mtllib P_BambooFallen.mtl
v -0.5139362 0.8127295 5.458364 1 1 1
v -1.688716 0.06436169 4.690841 1 1 1
v -1.085714 0.3495906 4.826618 1 1 1
v -1.378114 0.4678334 5.696603 1 1 1
v -2.228837 -0.3912238 5.534727 1 1 1
v -2.166322 -0.3027638 5.937259 1 1 1
v -1.943419 -0.3117916 6.249051 1 1 1
v -1.300883 0.1195685 6.688547 1 1 1
v -0.4174319 0.5918143 5.950671 1 1 1
v -0.05408218 1.290108 4.528173 1 1 1
v 0.6460627 1.478989 5.94358 1 1 1
v 0.199314 1.531491 5.432638 1 1 1
v 0.7030075 0.903962 4.975633 1 1 1
v 1.207291 0.5355502 6.023432 1 1 1
v 1.266296 0.2628856 5.713694 1 1 1
v 1.127283 0.003733456 5.467734 1 1 1
v 0.7552268 -0.1023945 4.66624 1 1 1
v -0.09621076 0.7615042 4.389299 1 1 1
v -0.03481698 1.192919 4.771775 1 1 1
v 0.4157781 0.3881551 6.067373 1 1 1
v 0.02483357 0.6878622 5.597541 1 1 1
v 0.7957867 0.8517028 5.112628 1 1 1
v 1.378002 -0.02533036 5.728869 1 1 1
v 1.580053 0.08655232 5.381848 1 1 1
v 1.602958 0.09789836 4.99932 1 1 1
v 1.368313 0.561184 4.276555 1 1 1
v 0.2053706 1.001445 4.31776 1 1 1
v 0.2414778 0.9702696 5.25417 1 1 1
v -1.086583 0.3402712 4.647036 1 1 1
v -0.4444506 0.5584078 4.70608 1 1 1
v -0.6237355 0.7328476 5.597024 1 1 1
v -1.576816 -0.0275954 5.561244 1 1 1
v -1.460671 0.06406039 5.950957 1 1 1
v -1.206948 0.03813219 6.237195 1 1 1
v -0.4759559 0.4051345 6.587968 1 1 1
v 0.36697 0.7532475 5.741649 1 1 1
v -0.381547 0.5034626 5.887414 1 1 1
v -0.7644957 0.1759298 7.395833 1 1 1
v -0.4457149 0.4341875 6.852615 1 1 1
v -1.103209 0.04806638 6.328244 1 1 1
v -1.842152 -0.0243873 7.296039 1 1 1
v -2.045848 -0.07516378 6.935906 1 1 1
v -2.178054 0.06761222 6.605576 1 1 1
v -1.969407 0.2305109 5.755863 1 1 1
v -0.8159791 0.6690748 5.597027 1 1 1
v 0.1203232 0.7219163 6.12315 1 1 1
v 0.106827 1.338649 7.588999 1 1 1
v -0.09649649 1.142698 6.969591 1 1 1
v 0.7309103 0.741869 6.864295 1 1 1
v 0.8891823 0.7350334 8.073765 1 1 1
v 1.155093 0.4814914 7.876856 1 1 1
v 1.222905 0.1632708 7.674079 1 1 1
v 1.251064 -0.1749059 6.851325 1 1 1
v 0.3251638 0.2135066 6.116611 1 1 1
v 0.3634148 0.6145335 6.477673 1 1 1
v 0.7823794 0.1603037 8.197797 1 1 1
v 0.3754532 0.2772476 7.539917 1 1 1
v 1.293509 0.5296639 7.066053 1 1 1
v 2.005637 -0.1366349 8.073118 1 1 1
v 2.27442 -0.04854387 7.686454 1 1 1
v 2.371609 -0.1236401 7.263311 1 1 1
v 2.153511 0.1496097 6.302083 1 1 1
v 0.7587327 0.3536939 6.062259 1 1 1
v 1.559047 0.3208339 7.263749 1 1 1
v 3.150352 0.2634124 6.78651 1 1 1
v 2.455946 0.4178907 6.801455 1 1 1
v 2.413152 -0.0303418 7.657524 1 1 1
v 3.673194 0.1036267 7.798753 1 1 1
v 3.473617 0.001931548 8.17248 1 1 1
v 3.227966 0.1003813 8.473388 1 1 1
v 2.339153 0.1109006 8.747756 1 1 1
v 1.505933 0.4674067 7.815097 1 1 1
v 0.2273398 0.5645733 6.9495 1 1 1
v -1.228278 0.5429685 7.752003 1 1 1
v -0.7377489 0.4636284 7.242718 1 1 1
v -0.07478786 0.7394975 7.890774 1 1 1
v -0.8720985 0.4468403 8.841694 1 1 1
v -0.4610249 0.494948 8.977892 1 1 1
v -0.08149202 0.3668994 8.989759 1 1 1
v 0.7384065 0.398473 8.551416 1 1 1
v 0.6449176 0.3205062 7.256662 1 1 1
v -0.282539 0.1116692 8.52991 1 1 1
v -1.944701 0.09006429 8.537071 1 1 1
v -1.270154 0.01072431 8.324995 1 1 1
v -0.9986416 0.2865934 9.211435 1 1 1
v -2.154036 -0.006063759 9.664222 1 1 1
v -1.858437 0.04204386 9.980691 1 1 1
v -1.530968 -0.08600467 10.17291 1 1 1
v -0.6012815 -0.05443114 10.18089 1 1 1
v -0.06312712 -0.1323978 8.999567 1 1 1
v -0.9860254 -0.1875483 9.133877 1 1 1
v -1.951271 0.1183169 10.45223 1 1 1
v -1.374909 0.0232535 10.04596 1 1 1
v -1.969176 -0.05356723 9.286657 1 1 1
v -2.890385 0.5398159 9.938478 1 1 1
v -2.971342 0.5263752 9.510566 1 1 1
v -2.885575 0.642404 9.136716 1 1 1
v -2.360757 0.4559391 8.391616 1 1 1
v -1.135552 0.129616 8.680736 1 1 1
v 0.2429602 0.4543407 8.12429 1 1 1
v 0.9377589 -0.6493541 9.155026 1 1 1
v 0.8157762 -0.2456719 8.581924 1 1 1
v 0.1053891 0.181328 9.080542 1 1 1
v 0.6223589 -0.2200714 10.17472 1 1 1
v 0.3281037 0.0954746 10.23546 1 1 1
v 0.2158171 0.4782134 10.19692 1 1 1
v -0.1936259 1.08967 9.627841 1 1 1
v 0.1507619 0.958367 8.380699 1 1 1
v 0.2276424 0.2363067 8.470428 1 1 1
v -1.236575 0.01835746 9.226651 1 1 1
v -0.7282149 0.0191772 8.7288 1 1 1
v -0.1139827 0.3258016 9.410195 1 1 1
v -0.898743 -0.1010914 10.31987 1 1 1
v -0.4984678 -0.01816446 10.4707 1 1 1
v -0.1079372 -0.1064733 10.48711 1 1 1
v 0.7144256 0.03479159 10.07584 1 1 1
v 0.6610883 0.02020359 8.776553 1 1 1
v 0.128591 0.1261849 9.381029 1 1 1
v -0.885279 0.7660788 10.53251 1 1 1
v -0.6274809 0.5524948 9.90465 1 1 1
v 0.1240612 0.176584 10.38368 1 1 1
v -0.555299 0.1748362 11.4626 1 1 1
v -0.199897 -0.07581931 11.48919 1 1 1
v 0.002853204 -0.4041171 11.38105 1 1 1
v 0.5881373 -0.7538891 10.74822 1 1 1
v 0.318316 -0.3940991 9.527989 1 1 1
v 0.6579428 0.4819975 6.619822 1 1 1
v 0.8752797 0.6636568 8.25783 1 1 1
v 0.5783026 0.5089214 7.630019 1 1 1
v 1.427226 0.7222929 7.218437 1 1 1
v 2.018306 0.5594599 8.336341 1 1 1
v 2.295463 0.561357 8.000149 1 1 1
v 2.442722 0.3884016 7.670021 1 1 1
v 2.333332 0.3057632 6.749922 1 1 1
v 1.092325 0.1986896 6.376232 1 1 1
v 0.5111587 0.538373 4.933458 1 1 1
v 1.979769 0.5781593 4.324479 1 1 1
v 1.324098 0.7220736 4.43756 1 1 1
v 1.352072 0.1246445 5.143712 1 1 1
v 2.567949 0.2150135 5.180983 1 1 1
v 2.410342 0.04267514 5.526274 1 1 1
v 2.207103 0.07260692 5.849969 1 1 1
v 1.387007 0.02862972 6.192885 1 1 1
v 0.5157765 0.5600306 5.481174 1 1 1
v 0.1045269 0.2621021 8.61363 1 1 1
v -0.4090417 0.01161861 10.17466 1 1 1
v -0.3819537 0.0008541346 9.463718 1 1 1
v 0.4878612 0.4190297 9.528129 1 1 1
v 0.5946013 0.02741623 10.73678 1 1 1
v 0.9758956 0.1547103 10.56869 1 1 1
v 1.279578 0.09797173 10.31346 1 1 1
v 1.574873 0.2587039 9.446086 1 1 1
v 0.652387 0.1106707 8.54148 1 1 1
v -0.0001332122 1.95248 0.1263614 1 1 1
v -0.0001341723 1.911467 0.1827121 1 1 1
v -0.02215995 1.994121 0.187603 1 1 1
v 0.08033714 2.032228 -0.1683097 1 1 1
v -8.996398E-05 1.94422 -0.2348957 1 1 1
v 0.08349454 2.033923 -0.2094989 1 1 1
v 0.1884779 1.968993 -0.1260538 1 1 1
v 0.1564431 2.013402 -0.1385713 1 1 1
v 0.1646554 2.0056 -0.1523495 1 1 1
v 0.02600993 1.961725 0.1862392 1 1 1
v 0.02053511 1.963189 0.1834702 1 1 1
v 0.01976348 1.973843 0.1661496 1 1 1
v 0.0184978 0.3114449 8.63607 1 1 1
v 0.1403266 0.1856934 9.835794 1 1 1
v 0.03005023 0.1229601 9.825563 1 1 1
v 0.1433319 0.3826342 8.646519 1 1 1
v -0.006770856 0.505012 7.357988 1 1 1
v 0.25052 0.1226869 9.82627 1 1 1
v 0.1333153 0.585027 7.369427 1 1 1
v -0.0260313 0.6862188 6.392058 1 1 1
v 0.2680661 0.3113577 8.635403 1 1 1
v 0.2504371 -0.003053784 9.806519 1 1 1
v 0.1256804 0.7729772 6.404856 1 1 1
v -0.07724623 1.202657 4.185891 1 1 1
v 0.2679663 0.1688915 8.613837 1 1 1
v 0.1401608 -0.0657872 9.796288 1 1 1
v 0.273302 0.5051734 7.355857 1 1 1
v 0.09364586 1.300508 4.202413 1 1 1
v -0.1379365 1.797281 2.042896 1 1 1
v 0.1431322 0.09770191 8.603393 1 1 1
v 0.02996733 -0.002780437 9.805811 1 1 1
v 0.2732025 0.3453032 7.330862 1 1 1
v 0.2772929 0.6866708 6.388832 1 1 1
v 0.056107 1.907843 2.063376 1 1 1
v -0.1678377 2.207315 0.2094946 1 1 1
v 0.0261546 2.317487 0.2298131 1 1 1
v 0.01839795 0.1689788 8.614508 1 1 1
v 0.03005023 0.1229601 9.825563 1 1 1
v 0.0184978 0.3114449 8.63607 1 1 1
v 0.264465 1.203944 4.180831 1 1 1
v 0.2501102 1.798802 2.036761 1 1 1
v 0.2201344 2.208391 0.2042551 1 1 1
v 0.1331163 0.2652863 7.319439 1 1 1
v -0.006870309 0.3451413 7.332999 1 1 1
v -0.006770856 0.505012 7.357988 1 1 1
v 0.2771938 0.5136032 6.360029 1 1 1
v 0.25007 1.579221 1.98969 1 1 1
v 0.2201219 1.989123 0.1583781 1 1 1
v 0.264392 1.009604 4.142775 1 1 1
v 0.1254821 0.4268416 6.347259 1 1 1
v -0.02613046 0.5131502 6.363266 1 1 1
v -0.0260313 0.6862188 6.392058 1 1 1
v 0.09349994 0.911832 4.126317 1 1 1
v 0.05602648 1.46875 1.969256 1 1 1
v 0.02612956 1.878951 0.1380591 1 1 1
v -0.07731918 1.00845 4.147864 1 1 1
v -0.07724623 1.202657 4.185891 1 1 1
v -0.1379767 1.577797 1.995855 1 1 1
v -0.1678502 1.988047 0.1636176 1 1 1
v -0.1379365 1.797281 2.042896 1 1 1
v -0.1678377 2.207315 0.2094946 1 1 1
v 0.0355025 0.5422243 6.151212 1 1 1
v 0.01203449 0.6830887 6.199358 1 1 1
v 0.2196072 0.6218465 6.452245 1 1 1
v 0.2413022 0.496664 6.411498 1 1 1
v 0.152918 0.5124913 6.064543 1 1 1
v 0.4523562 0.5688092 6.705973 1 1 1
v 0.3416807 0.470772 6.329754 1 1 1
v 0.2468035 0.6238515 6.026205 1 1 1
v 0.4706353 0.4589145 6.669801 1 1 1
v 0.7138255 0.5183027 6.948967 1 1 1
v 0.4202932 0.5703284 6.288961 1 1 1
v 0.2232549 0.7648175 6.074856 1 1 1
v 0.5538321 0.4367794 6.591859 1 1 1
v 0.7271889 0.4234512 6.915486 1 1 1
v 1.006956 0.4639511 7.168863 1 1 1
v 0.3985625 0.6954464 6.330079 1 1 1
v 0.1059198 0.7942412 6.161304 1 1 1
v 0.6186536 0.5249211 6.550337 1 1 1
v 0.7926182 0.4051801 6.841202 1 1 1
v 1.014416 0.3843994 7.13764 1 1 1
v 1.334143 0.3993698 7.353189 1 1 1
v 0.2982678 0.7210096 6.411599 1 1 1
v 0.01203449 0.6830887 6.199358 1 1 1
v 0.2196072 0.6218465 6.452245 1 1 1
v 0.600333 0.6348124 6.586845 1 1 1
v 0.5172133 0.6566461 6.66458 1 1 1
v 0.4523562 0.5688092 6.705973 1 1 1
v 0.8446188 0.4820125 6.800581 1 1 1
v 1.06184 0.3701259 7.068336 1 1 1
v 1.335548 0.3357706 7.325089 1 1 1
v 1.697093 0.318493 7.48948 1 1 1
v 0.7658569 0.5948812 6.908445 1 1 1
v 0.7138255 0.5183027 6.948967 1 1 1
v 0.8312333 0.5768087 6.834314 1 1 1
v 1.101763 0.4355519 7.030378 1 1 1
v 1.365625 0.3256638 7.263625 1 1 1
v 1.693624 0.2718002 7.466444 1 1 1
v 2.097148 0.2158163 7.564616 1 1 1
v 1.0469 0.5291946 7.13098 1 1 1
v 1.006956 0.4639511 7.168863 1 1 1
v 1.094287 0.5150545 7.06179 1 1 1
v 1.394256 0.3793021 7.230374 1 1 1
v 1.708591 0.2658802 7.417068 1 1 1
v 2.091829 0.1882248 7.549757 1 1 1
v 2.534877 0.08704889 7.559294 1 1 1
v 1.362797 0.4528546 7.319969 1 1 1
v 1.334143 0.3993698 7.353189 1 1 1
v 1.392841 0.4428628 7.2586 1 1 1
v 1.727019 0.3066816 7.390765 1 1 1
v 2.095891 0.1859848 7.518364 1 1 1
v 2.534877 0.08704889 7.559294 1 1 1
v 1.715532 0.359214 7.463193 1 1 1
v 1.697093 0.318493 7.48948 1 1 1
v 1.730479 0.3533716 7.413877 1 1 1
v 2.105268 0.2113563 7.501845 1 1 1
v 2.534877 0.08704889 7.559294 1 1 1
v 2.110586 0.2389427 7.516726 1 1 1
v 2.534877 0.08704889 7.559294 1 1 1
v 2.106528 0.2411627 7.548104 1 1 1
v 2.534877 0.08704889 7.559294 1 1 1
v 2.097148 0.2158163 7.564616 1 1 1
v 2.534877 0.08704889 7.559294 1 1 1
v 0.0641495 0.3171751 8.672791 1 1 1
v 0.1156272 0.2890311 8.75341 1 1 1
v -0.1620719 0.2446227 8.904289 1 1 1
v -0.2063875 0.2695785 8.832108 1 1 1
v 0.03284471 0.2483318 8.607174 1 1 1
v -0.4371989 0.1941116 9.043239 1 1 1
v -0.2313037 0.2088692 8.772321 1 1 1
v 0.05302434 0.151322 8.622107 1 1 1
v -0.4737018 0.2164057 8.9784 1 1 1
v -0.712427 0.1423506 9.164982 1 1 1
v -0.2119114 0.123157 8.784683 1 1 1
v 0.1044962 0.1231594 8.702734 1 1 1
v -0.4929553 0.1633505 8.924339 1 1 1
v -0.7403838 0.1622829 9.107031 1 1 1
v -0.9902285 0.09450889 9.26425 1 1 1
v -0.1676173 0.09814203 8.856905 1 1 1
v 0.1357906 0.1920154 8.768429 1 1 1
v -0.4757109 0.0879631 8.935092 1 1 1
v -0.7545341 0.1166776 9.058893 1 1 1
v -1.009275 0.1120861 9.213474 1 1 1
v -1.272942 0.05590737 9.335855 1 1 1
v -0.1426945 0.1588984 8.916723 1 1 1
v 0.1156272 0.2890311 8.75341 1 1 1
v -0.1620719 0.2446227 8.904289 1 1 1
v -0.4392248 0.06562185 8.999962 1 1 1
v -0.4199663 0.1187146 9.054047 1 1 1
v -0.4371989 0.1941116 9.043239 1 1 1
v -0.7407309 0.05111301 9.068689 1 1 1
v -1.018873 0.07387459 9.17176 1 1 1
v -1.283371 0.07077897 9.293299 1 1 1
v -1.5628 0.03191662 9.374722 1 1 1
v -0.6986324 0.07677805 9.17482 1 1 1
v -0.712427 0.1423506 9.164982 1 1 1
v -0.712786 0.03114545 9.126661 1 1 1
v -1.009427 0.01807058 9.180809 1 1 1
v -1.289068 0.04006684 9.258804 1 1 1
v -1.565973 0.04339242 9.3421 1 1 1
v -1.862007 0.02746785 9.375452 1 1 1
v -0.9807886 0.03869796 9.273322 1 1 1
v -0.9902285 0.09450889 9.26425 1 1 1
v -0.9903885 0.0004701614 9.231596 1 1 1
v -1.284335 -0.005526543 9.266851 1 1 1
v -1.56861 0.02051997 9.315907 1 1 1
v -1.86076 0.03447866 9.355463 1 1 1
v -2.172691 0.04448414 9.329418 1 1 1
v -1.268214 0.01030827 9.343918 1 1 1
v -1.272942 0.05590737 9.335855 1 1 1
v -1.27391 -0.02041245 9.30941 1 1 1
v -1.568073 -0.0138315 9.322327 1 1 1
v -1.861396 0.02056086 9.339397 1 1 1
v -2.172691 0.04448414 9.329418 1 1 1
v -1.562266 -0.002439737 9.381147 1 1 1
v -1.5628 0.03191662 9.374722 1 1 1
v -1.564902 -0.02531505 9.354948 1 1 1
v -1.863281 -0.0003691912 9.343319 1 1 1
v -2.172691 0.04448414 9.329418 1 1 1
v -1.864529 -0.007382154 9.363306 1 1 1
v -2.172691 0.04448414 9.329418 1 1 1
v -1.863892 0.006536007 9.379374 1 1 1
v -2.172691 0.04448414 9.329418 1 1 1
v -1.862007 0.02746785 9.375452 1 1 1
v -2.172691 0.04448414 9.329418 1 1 1
v 0.2201219 1.989123 0.1583781 1 1 1
v 0.2201344 2.208391 0.2042551 1 1 1
v 0.0261546 2.317487 0.2298131 1 1 1
v 0.02612956 1.878951 0.1380591 1 1 1
v -0.1678377 2.207315 0.2094946 1 1 1
v -0.1678502 1.988047 0.1636176 1 1 1
v 0.1403266 0.1856934 9.835794 1 1 1
v 0.25052 0.1226869 9.82627 1 1 1
v 0.2504371 -0.003053784 9.806519 1 1 1
v 0.1401608 -0.0657872 9.796288 1 1 1
v 0.03005023 0.1229601 9.825563 1 1 1
v 0.02996733 -0.002780437 9.805811 1 1 1
v -7.070446E-08 0.0033499 -0.2708826 1 1 1
v -3.370469E-08 -0.3343726 -0.2232161 1 1 1
v 0.1935641 -0.3304213 -0.1115103 1 1 1
v 0.2348987 0.008144855 -0.1353226 1 1 1
v -0.2348987 0.01268303 -0.13556 1 1 1
v -3.370469E-08 -0.3343726 -0.2232161 1 1 1
v -0.1935642 -0.3266817 -0.1117058 1 1 1
v -1.80522E-05 1.198811 -0.2430148 1 1 1
v -0.2076979 1.206349 -0.1233563 1 1 1
v -7.752171E-05 1.831442 -0.2362995 1 1 1
v -0.1677321 1.959672 -0.1305504 1 1 1
v -8.996398E-05 1.94422 -0.2348957 1 1 1
v 0.2348987 0.008144855 -0.1353226 1 1 1
v 0.1935641 -0.3304213 -0.1115103 1 1 1
v 0.1935642 -0.3187802 0.1117058 1 1 1
v 0.2348987 0.02227199 0.13556 1 1 1
v 3.370469E-08 -0.3110893 0.2232161 1 1 1
v 0.2076565 1.214267 0.1163592 1 1 1
v 0.2076591 1.202771 -0.123157 1 1 1
v 0.1980685 1.585882 -0.1246052 1 1 1
v 0.1889671 1.957888 0.0921292 1 1 1
v 0.1890093 1.949476 -0.08140805 1 1 1
v 4.090214E-08 0.03160524 0.2708826 1 1 1
v -0.1935641 -0.3150406 0.1115103 1 1 1
v -2.337409E-05 1.221805 0.2360177 1 1 1
v 0.1889671 1.957888 0.0921292 1 1 1
v 0.02600993 1.961725 0.1862392 1 1 1
v -0.2077006 1.217845 0.1161599 1 1 1
v -8.62607E-05 1.742007 0.211432 1 1 1
v -0.02215995 1.994121 0.187603 1 1 1
v -0.1886984 1.976328 0.09140399 1 1 1
v -0.1886757 1.993761 -0.002627821 1 1 1
v -0.2348986 0.02681011 0.1353226 1 1 1
v -0.1935642 -0.3266817 -0.1117058 1 1 1
v -0.2348987 0.01268303 -0.13556 1 1 1
v -0.2076979 1.206349 -0.1233563 1 1 1
v -0.1995643 1.537741 -0.01684901 1 1 1
v -0.172345 1.892719 -0.0216665 1 1 1
v -0.1887959 1.70639 -0.024322 1 1 1
v -0.1886642 1.974077 -0.05018899 1 1 1
v -0.1973214 1.626723 -0.04412696 1 1 1
v -0.1677321 1.959672 -0.1305504 1 1 1
v -0.1990378 1.557989 -0.03482816 1 1 1
v -0.1973214 1.626723 -0.04412696 1 1 1
v -0.1677321 1.959672 -0.1305504 1 1 1
v -7.070446E-08 0.0033499 -0.2708826 1 1 1
v 0.2348987 0.008144855 -0.1353226 1 1 1
v 0.2076591 1.202771 -0.123157 1 1 1
v -1.80522E-05 1.198811 -0.2430148 1 1 1
v -0.0001332122 1.95248 0.1263614 1 1 1
v -0.02215995 1.994121 0.187603 1 1 1
v -0.1886984 1.976328 0.09140399 1 1 1
v -0.1399991 1.956244 0.06331589 1 1 1
v -0.002434966 1.927077 0.1157942 1 1 1
v -0.1886757 1.993761 -0.002627821 1 1 1
v -0.1218637 1.926952 0.05287554 1 1 1
v -0.1375987 1.950581 -0.002618292 1 1 1
v -0.172345 1.892719 -0.0216665 1 1 1
v -0.123993 1.924371 -0.00338934 1 1 1
v -0.0009977546 1.901749 -0.01751757 1 1 1
v -0.07821286 1.917053 -0.01833295 1 1 1
v -0.121858 1.92597 -0.03245686 1 1 1
v -0.1218447 1.925331 -0.08687065 1 1 1
v 0.1166219 1.929537 0.05253599 1 1 1
v -0.002434966 1.927077 0.1157942 1 1 1
v 0.05691002 1.920332 -0.1196289 1 1 1
v -0.1399085 1.924219 -0.01831577 1 1 1
v -0.1310226 1.95149 -0.03217934 1 1 1
v -0.1886642 1.974077 -0.05018899 1 1 1
v -0.117241 1.923378 -0.01760672 1 1 1
v -0.123993 1.924371 -0.00338934 1 1 1
v -0.121858 1.92597 -0.03245686 1 1 1
v -0.1384185 1.953617 -0.09722612 1 1 1
v -0.1677321 1.959672 -0.1305504 1 1 1
v -8.996398E-05 1.94422 -0.2348957 1 1 1
v -9.588459E-05 1.943285 -0.1683655 1 1 1
v 0.08033714 1.970003 -0.1683097 1 1 1
v 0.06536395 1.945343 -0.1305885 1 1 1
v -0.004623019 1.918623 -0.1544013 1 1 1
v 0.1184327 1.922458 -0.08483316 1 1 1
v 0.1435429 1.960792 0.06551645 1 1 1
v 0.1333437 1.948444 -0.09219934 1 1 1
v 0.1685061 1.963012 -0.083663 1 1 1
v 0.1683818 1.971165 0.07985494 1 1 1
v 0.01976348 1.973843 0.1661496 1 1 1
v -0.0001332122 1.95248 0.1263614 1 1 1
v -0.002434966 1.927077 0.1157942 1 1 1
v -1.80522E-05 1.198811 -0.2430148 1 1 1
v 0.2076591 1.202771 -0.123157 1 1 1
v 0.1980685 1.585882 -0.1246052 1 1 1
v -7.752171E-05 1.831442 -0.2362995 1 1 1
v 0.1884779 1.968993 -0.1260538 1 1 1
v 0.07325466 1.969909 -0.2152457 1 1 1
v 0.1646554 2.0056 -0.1523495 1 1 1
v -8.996398E-05 1.94422 -0.2348957 1 1 1
v 0.08349454 2.033923 -0.2094989 1 1 1
v 0.1333437 1.948444 -0.09219934 1 1 1
v 0.1884779 1.968993 -0.1260538 1 1 1
v 0.1980685 1.585882 -0.1246052 1 1 1
v 0.1685061 1.963012 -0.083663 1 1 1
v 0.1890093 1.949476 -0.08140805 1 1 1
v -0.0001332122 1.95248 0.1263614 1 1 1
v 0.01976348 1.973843 0.1661496 1 1 1
v 0.02053511 1.963189 0.1834702 1 1 1
v -0.0001341723 1.911467 0.1827121 1 1 1
v -0.0001341723 1.911467 0.1827121 1 1 1
v -8.62607E-05 1.742007 0.211432 1 1 1
v -0.02215995 1.994121 0.187603 1 1 1
v 0.02600993 1.961725 0.1862392 1 1 1
v 0.02053511 1.963189 0.1834702 1 1 1
v 0.08033714 1.970003 -0.1683097 1 1 1
v 0.1564431 2.013402 -0.1385713 1 1 1
v 0.1884779 1.968993 -0.1260538 1 1 1
v 0.08033714 2.032228 -0.1683097 1 1 1
v -8.996398E-05 1.94422 -0.2348957 1 1 1
v 0.08033714 1.970003 -0.1683097 1 1 1
v 0.1884779 1.968993 -0.1260538 1 1 1
v 0.1333437 1.948444 -0.09219934 1 1 1
v 0.06536395 1.945343 -0.1305885 1 1 1
v 0.05691002 1.920332 -0.1196289 1 1 1
v 0.1184327 1.922458 -0.08483316 1 1 1
v 0.1646554 2.0056 -0.1523495 1 1 1
v 0.1564431 2.013402 -0.1385713 1 1 1
v 0.08033714 2.032228 -0.1683097 1 1 1
v 0.08349454 2.033923 -0.2094989 1 1 1
v 0.1685061 1.963012 -0.083663 1 1 1
v 0.1890093 1.949476 -0.08140805 1 1 1
v 0.1889671 1.957888 0.0921292 1 1 1
v 0.1683818 1.971165 0.07985494 1 1 1
v 0.02600993 1.961725 0.1862392 1 1 1
v 0.01976348 1.973843 0.1661496 1 1 1
v 0.1683818 1.971165 0.07985494 1 1 1
v 0.1889671 1.957888 0.0921292 1 1 1
v 0.02489369 1.622111 0.207314 0 0 0
v -0.07236554 1.182331 0.09360886 0 0 0
v 0.0535294 1.171358 0.1631183 0 0 0
v -0.08968184 1.632089 0.1474986 0 0.4352941 0
v -0.008745188 1.78107 0.2367091 0 0 0
v -0.102592 1.785368 0.180048 0 0 0
v -0.05177669 1.912667 0.2882223 0 0 0
v -0.1248923 1.911283 0.2347136 0 0 0
v -0.101283 1.973295 0.3541942 0 0.0627451 0
v -0.1696193 1.970067 0.2970228 0 0.0627451 0
v -0.01408005 1.172606 0.1997008 0 0.4745098 0
v 0.02489369 1.622111 0.207314 0 0 0
v 0.0535294 1.171358 0.1631183 0 0 0
v -0.03377528 1.616386 0.2500114 0 0.8196079 0
v -0.104086 1.177169 0.1528306 0 0.2784314 0
v -0.008745188 1.78107 0.2367091 0 0 0
v -0.1212227 1.606469 0.207582 0 0.8352941 0
v -0.07236554 1.182331 0.09360886 0 0 0
v -0.08968184 1.632089 0.1474986 0 0.4352941 0
v -0.06283639 1.808523 0.2910452 0 0.5843138 0
v -0.05177669 1.912667 0.2882223 0 0 0
v -0.101283 1.973295 0.3541942 0 0.0627451 0
v -0.1407271 1.801949 0.2412448 0 0.5803922 0
v -0.102592 1.785368 0.180048 0 0 0
v -0.1696193 1.970067 0.2970228 0 0.0627451 0
v -0.1248923 1.911283 0.2347136 0 0 0
v -0.1761322 2.046547 0.1607342 0 0 0
v -0.1715082 1.824096 0.01628735 0 0 0
v -0.1222096 1.820455 0.1465769 0 0 0
v -0.2066357 2.051534 0.04713633 0 0.6078432 0
v -0.2381225 2.131809 0.151424 0 0 0
v -0.2569365 2.122873 0.05638746 0 0.5529412 0
v -0.3053632 2.20496 0.151588 0 0 0
v -0.3403951 2.187415 0.1152397 0 0.1960784 0
v -0.1222096 1.820455 0.1465769 0 0 0
v -0.1715082 1.824096 0.01628735 0 0 0
v -0.1214092 1.350897 0.01115133 0 0 0
v -0.07394616 1.340585 0.1399379 0 0 0
v -0.1558468 1.343748 0.1208401 0 0.6196079 0
v -0.1222096 1.820455 0.1465769 0 0 0
v -0.07394616 1.340585 0.1399379 0 0 0
v -0.1805701 1.823521 0.1293311 0 0.682353 0
v -0.1885932 1.347174 0.03645613 0 0.3372549 0
v -0.1761322 2.046547 0.1607342 0 0 0
v -0.2346568 1.804317 0.06037191 0 0.6392157 0
v -0.1214092 1.350897 0.01115133 0 0 0
v -0.1715082 1.824096 0.01628735 0 0 0
v -0.2480363 2.079125 0.1523457 0 0.1098039 0
v -0.2381225 2.131809 0.151424 0 0 0
v -0.3053632 2.20496 0.151588 0 0 0
v -0.2877949 2.055141 0.1092368 0 0.1254902 0
v -0.2066357 2.051534 0.04713633 0 0.6078432 0
v -0.3403951 2.187415 0.1152397 0 0.1960784 0
v -0.2569365 2.122873 0.05638746 0 0.5529412 0
v 0.1757194 1.807683 -0.04243376 0 0.2627451 0
v 0.07997065 1.226938 0.09475706 0 0 0
v 0.08866649 1.198383 -0.1034789 0 0 0
v 0.1744922 1.813777 0.09701201 0 0.4627451 0
v 0.2083862 1.972921 -0.03214743 0 0.1098039 0
v 0.2188269 1.991572 0.08276746 0 0.5372549 0
v 0.2642287 2.045994 -0.01635746 0 0 0
v 0.2537036 2.034066 0.07962557 0 0 0
v 0.314181 2.08289 -0.007965135 0 0 0
v 0.338139 2.067406 0.03722901 0 0 0
v 0.1839324 1.180486 -0.02845624 0 0 0
v 0.1757194 1.807683 -0.04243376 0 0.2627451 0
v 0.08866649 1.198383 -0.1034789 0 0 0
v 0.2262614 1.80593 -0.005059753 0 0.6470588 0
v 0.2083862 1.972921 -0.03214743 0 0.1098039 0
v 0.1790408 1.193993 0.1026864 0 0 0
v 0.2691591 1.979597 -0.001140158 0 0.2078431 0
v 0.2271605 1.787516 0.08225533 0 0.6470588 0
v 0.07997065 1.226938 0.09475706 0 0 0
v 0.1744922 1.813777 0.09701201 0 0.4627451 0
v 0.2982113 1.958722 0.0628099 0 0.2431373 0
v 0.314181 2.08289 -0.007965135 0 0 0
v 0.338139 2.067406 0.03722901 0 0 0
v 0.2982113 1.958722 0.0628099 0 0.2431373 0
v 0.1744922 1.813777 0.09701201 0 0.4627451 0
v 0.2188269 1.991572 0.08276746 0 0.5372549 0
v 0.2537036 2.034066 0.07962557 0 0 0
v 0.2691591 1.979597 -0.001140158 0 0.2078431 0
v 0.314181 2.08289 -0.007965135 0 0 0
v 0.2642287 2.045994 -0.01635746 0 0 0
v 0.2083862 1.972921 -0.03214743 0 0.1098039 0
v -0.1748004 1.870185 -0.1215858 0 0.6431373 0
v -0.004993233 1.860079 -0.2206316 0 0.4901961 0
v 0.02903211 1.707594 -0.1988163 0 0.3019608 0
v -0.1788085 1.712382 -0.07025287 0 0.6509804 0
v 0.07780574 1.260552 -0.1848459 0 0 0
v -0.1789296 1.262292 -0.01183412 0 0 0
v -0.1632022 1.260693 -0.09962557 0 0 0
v -0.1788085 1.712382 -0.07025287 0 0.6509804 0
v -0.1789296 1.262292 -0.01183412 0 0 0
v -0.1807725 1.704895 -0.1480145 0 0.6745098 0
v -0.007643268 1.253418 -0.1967335 0 0 0
v -0.1748004 1.870185 -0.1215858 0 0.6431373 0
v -0.03490562 1.683654 -0.2422423 0 0.6313726 0
v 0.07780574 1.260552 -0.1848459 0 0 0
v 0.02903211 1.707594 -0.1988163 0 0.3019608 0
v -0.1948651 1.896862 -0.1969661 0 0.5803922 0
v -0.1941358 2.001379 -0.1869468 0 0.3686275 0
v -0.2323011 2.062219 -0.2599454 0 0 0
v -0.06092032 1.877792 -0.2737513 0 0.2666667 0
v -0.004993233 1.860079 -0.2206316 0 0.4901961 0
v -0.1140947 2.050445 -0.3115477 0 0.0627451 0
v -0.07617328 1.99131 -0.2449984 0 0.4509804 0
v -0.2323011 2.062219 -0.2599454 0 0 0
v -0.1140947 2.050445 -0.3115477 0 0.0627451 0
v -0.07617328 1.99131 -0.2449984 0 0.4509804 0
v -0.1941358 2.001379 -0.1869468 0 0.3686275 0
v -0.004993233 1.860079 -0.2206316 0 0.4901961 0
v -0.1748004 1.870185 -0.1215858 0 0.6431373 0
v 0.03707099 2.124088 0.8148808 0 0 0
v 0.0652689 2.230201 0.3754773 0 0.6509804 0
v 0.1227995 2.100831 0.806694 0 0 0
v -0.003601656 2.263289 0.3918743 0 0.6745098 0
v -0.1185063 2.027715 0.8011178 0 0 0
v 0.01565326 2.285228 0.2269411 0 0.6431373 0
v -0.1521711 2.17092 0.3933478 0 0.6313726 0
v -0.1455235 1.949589 0.7754235 0 0 0
v -0.1415907 2.102082 0.3521609 0 0.3019608 0
v -0.04349358 2.34107 0.2135344 0 0.5803922 0
v -0.03598583 2.360456 0.1106143 0 0.3686275 0
v -0.08540862 2.439052 0.06740572 0 0 0
v -0.1711789 2.252203 0.2133727 0 0.2666667 0
v -0.1479039 2.176562 0.213243 0 0.4901961 0
v -0.1836373 2.354921 0.06053688 0 0.0627451 0
v -0.1399169 2.27968 0.1028581 0 0.4509804 0
v 0.0652689 2.230201 0.3754773 0 0.6509804 0
v -0.1455235 1.949589 0.7754235 0 0 0
v 0.1227995 2.100831 0.806694 0 0 0
v -0.1415907 2.102082 0.3521609 0 0.3019608 0
v 0.01565326 2.285228 0.2269411 0 0.6431373 0
v -0.1479039 2.176562 0.213243 0 0.4901961 0
v 0.2951379 2.324165 0.06268878 0 0.1960784 0
v 0.1564627 2.240555 0.1842274 0 0.6078432 0
v 0.197275 2.291495 0.1255393 0 0.5529412 0
v 0.258236 2.245735 0.1757636 0 0.1254902 0
v 0.2890576 2.284696 0.02717062 0 0 0
v 0.1237016 2.15276 0.3966708 0 0 0
v 0.2522348 2.20122 0.1310787 0 0.1098039 0
v 0.2406873 2.216652 0.08104654 0 0 0
v 0.2030232 2.14025 0.1438427 0 0 0
v 0.201648 2.150952 0.4122781 0 0.6392157 0
v 0.110037 1.941816 0.8230162 0 0 0
v 0.1785693 1.961957 0.8311104 0 0.3372549 0
v 0.200672 2.077842 0.3602819 0 0.682353 0
v 0.165755 2.030113 0.345601 0 0 0
v 0.20523 1.881624 0.7988519 0 0.6196079 0
v 0.153007 1.818702 0.7789506 0 0 0
v 0.2890576 2.284696 0.02717062 0 0 0
v 0.2951379 2.324165 0.06268878 0 0.1960784 0
v 0.197275 2.291495 0.1255393 0 0.5529412 0
v 0.2406873 2.216652 0.08104654 0 0 0
v 0.1564627 2.240555 0.1842274 0 0.6078432 0
v 0.2030232 2.14025 0.1438427 0 0 0
v 0.1237016 2.15276 0.3966708 0 0 0
v 0.165755 2.030113 0.345601 0 0 0
v 0.165755 2.030113 0.345601 0 0 0
v 0.1237016 2.15276 0.3966708 0 0 0
v 0.110037 1.941816 0.8230162 0 0 0
v 0.153007 1.818702 0.7789506 0 0 0
v -0.08540862 2.439052 0.06740572 0 0 0
v -0.1836373 2.354921 0.06053688 0 0.0627451 0
v -0.1399169 2.27968 0.1028581 0 0.4509804 0
v -0.03598583 2.360456 0.1106143 0 0.3686275 0
v -0.1479039 2.176562 0.213243 0 0.4901961 0
v 0.01565326 2.285228 0.2269411 0 0.6431373 0
vn -0.1418781 0.9515505 -0.2728042
vn -0.6373299 -1.758337E-06 -0.7705911
vn -0.4954677 0.632493 -0.5953692
vn -0.4830238 0.7856508 -0.3865758
vn -0.8282794 -0.3393403 -0.4458716
vn -0.7034189 -0.6023234 -0.3773705
vn -0.7656068 -0.5907599 -0.2546549
vn -0.4655668 0.8715077 -0.1540195
vn -0.1418788 0.9515345 -0.2728599
vn -3.138185E-05 0.9065069 -0.422191
vn 0.09108717 0.9803759 -0.174832
vn 1.123548E-05 0.9548815 -0.2969871
vn 0.1028683 0.9048389 -0.4131401
vn 0.2587015 0.9436823 -0.2062457
vn 0.3631163 0.8854761 -0.2899631
vn 0.3862303 0.7980144 -0.4626005
vn 0.3497387 -0.6466309 -0.6779021
vn -5.590916E-05 0.8192702 -0.5734077
vn 2.161414E-05 0.9064712 -0.4222677
vn 0.04656423 0.9814074 -0.1862024
vn -1.585483E-05 0.9548551 -0.2970718
vn 0.200546 0.9001545 -0.3866566
vn 0.4830599 -0.7856474 -0.3865376
vn 0.6137113 0.6168637 -0.4927856
vn 0.5946141 0.3630716 -0.7173654
vn 0.3496803 0.6466202 -0.6779425
vn 0 0.8192486 -0.5734385
vn -1.032651E-05 0.9548773 -0.2970008
vn -0.4954964 0.6324672 -0.5953726
vn -0.1392911 0.8165593 -0.5602044
vn -0.1418675 0.9515348 -0.2728646
vn -0.7292079 -0.3506706 -0.5876104
vn -0.5584949 0.7738612 -0.2987013
vn -0.422578 0.8778264 -0.2254963
vn -0.1668038 0.9770385 -0.1325605
vn 0.07264693 0.9540054 -0.2908543
vn -0.1418949 0.951535 -0.2728497
vn -0.2288474 0.9727893 -0.03619074
vn -0.1667816 0.9770401 -0.1325773
vn -0.4226548 0.8777813 -0.2255281
vn -0.6441413 -0.7580001 -0.1025563
vn -0.8020985 -0.5832869 -0.1281187
vn -0.8952564 0.3305662 -0.2987341
vn -0.7034293 0.6023381 -0.3773276
vn -0.2884779 0.8933033 -0.344659
vn -8.887053E-05 0.9817857 -0.1899919
vn 1.810491E-06 1 3.555417E-05
vn -0.04541927 0.9952146 -0.08651599
vn 0.1952014 0.9752736 -0.1036236
vn 0.2161373 0.9737689 0.07112528
vn 0.2288456 0.9727892 0.03620745
vn 0.3599218 0.9329825 8.553267E-06
vn 0.3341526 -0.9360343 -0.1103714
vn 0.04662327 0.9814103 -0.1861722
vn 0.0911026 0.9803833 -0.1747825
vn 0.195239 0.975255 0.1037273
vn 0.1135167 0.9933762 -0.01782454
vn 0.3341256 0.9360552 -0.1102754
vn 0.6440697 -0.758059 0.1025713
vn 0.8140303 -0.5808223 5.334615E-06
vn 0.8021889 -0.583165 -0.1281075
vn 0.7656524 0.5907002 -0.254656
vn 0.2046964 0.9478998 -0.244101
vn 0.3534988 0.9337589 -0.05597108
vn 0.9338132 0.3250149 -0.1495269
vn 0.8021185 0.583265 -0.1280933
vn 0.9463632 -0.3231046 -8.353591E-05
vn 1 3.986061E-05 -1.209974E-05
vn 0.9873731 3.386661E-05 0.1584119
vn 0.9873863 7.820874E-05 0.1583297
vn 0.8953063 0.3304742 0.2986861
vn 0.3534955 0.9337571 0.05602284
vn 0.02306707 0.9954132 -0.09284662
vn -0.3599176 0.9329841 -8.247793E-06
vn -0.2288945 0.9727767 -0.03623442
vn -0.08284782 0.994413 0.06541564
vn -0.2587517 0.9436816 0.2061859
vn -0.09110456 0.9803734 0.1748373
vn -0.04658681 0.9814121 0.1861721
vn 0.1668539 0.9770276 0.132578
vn 0.1072906 0.9936088 -0.03507453
vn -0.1317094 0.9788266 0.1566876
vn -0.765662 0.5906898 0.2546515
vn -0.4655765 0.8715032 0.154015
vn -0.3631919 0.8854469 0.2899575
vn -0.8801896 -1.03265E-05 0.4746222
vn -0.7780939 2.652406E-06 0.6281479
vn -0.7291382 -0.3505797 0.5877512
vn -0.2702056 -0.8089492 0.5221017
vn -0.04658927 -0.9814057 0.1862052
vn -0.3631746 -0.8854461 0.2899819
vn -0.7780864 -5.564094E-05 0.6281573
vn -0.7780162 2.48244E-05 0.6282442
vn -0.8282315 -0.3393829 0.4459281
vn -0.8282747 0.3393991 0.4458355
vn -0.8952614 0.3305505 0.2987364
vn -0.765719 0.5906511 0.2545698
vn -0.8021294 0.5832484 0.1280999
vn -0.3022569 0.9395247 0.1610406
vn 0.04546672 0.9952211 0.08641598
vn 0.2046831 -0.947903 0.2440997
vn 0.1668136 -0.9770342 0.1325802
vn -4.923343E-05 0.9817924 0.1899568
vn 0.1392545 -0.816553 0.5602227
vn 0.1392568 0.816535 0.5602484
vn 7.594376E-05 0.9064746 0.4222602
vn -0.07258034 0.9539963 0.2909005
vn 9.38587E-05 0.9955531 0.0942027
vn 0.02326677 0.995473 0.09215339
vn -0.5584949 0.7738681 0.298683
vn -0.2587486 0.9436831 0.2061825
vn -0.07260379 0.9540292 0.2907868
vn -0.3497598 -0.6466276 0.6778945
vn -0.3498275 -0.6466045 0.6778815
vn -0.1814131 -0.6566488 0.732053
vn 0.2702349 0.8089885 0.5220256
vn 0.1317175 0.9788378 0.1566108
vn 2.065674E-05 0.9548782 0.2969979
vn -0.2702982 0.8089613 0.5220349
vn -0.2006646 0.900117 0.3866821
vn -7.69198E-05 0.8192644 0.5734161
vn -0.2211886 0.3827522 0.8969818
vn -0.2389235 6.285309E-05 0.9710383
vn -7.407368E-05 -0.3857581 0.9226
vn 0.1392924 -0.8165484 0.5602199
vn 0.07263485 -0.9540187 0.2908137
vn 0.1316832 0.9788274 -0.1567053
vn 0.1952197 0.975265 0.1036699
vn 0.1156431 0.9932908 -1.710653E-05
vn 0.3534508 0.9337714 -0.05606657
vn 0.4915031 0.8673695 0.07806907
vn 0.644096 0.7580411 0.1025386
vn 0.6546782 0.7559077 4.051253E-06
vn 0.802118 0.58327 -0.1280737
vn 0.2587475 0.9436739 -0.2062264
vn 0.1029592 0.9048434 -0.4131076
vn 0.5946116 0.3630952 -0.7173555
vn 0.3497926 0.6466858 -0.677822
vn 0.4954323 0.6325226 -0.595367
vn 0.8282688 0.3393195 -0.4459071
vn 0.8802072 -3.08007E-05 -0.4745895
vn 0.8282211 0.3394126 -0.4459248
vn 0.42262 0.8777941 -0.2255434
vn 0.07262164 0.9540069 -0.2908556
vn 1.095235E-05 0.9817951 0.1899431
vn -0.1392671 0.8165644 0.5602028
vn -0.141862 0.9515489 0.2728186
vn 0.07262497 0.9540207 0.2908093
vn 0.2211924 0.3827006 0.8970028
vn 0.3497542 0.646595 0.6779284
vn 0.5946062 0.3630441 0.7173859
vn 0.4830358 0.785639 0.3865847
vn 0.1668262 0.9770353 0.1325555
vn 0.01800609 0.8477464 -0.530096
vn 0.1442182 0.2632965 0.9538743
vn 0.2350972 0.7851535 0.5729427
vn -0.09950129 0.9941245 -0.04261529
vn -0.7274377 0.6856207 -0.02754151
vn -0.3889647 0.9204427 -0.03862362
vn 0.7870526 0.6036119 0.1272829
vn 0.7870526 0.6036119 0.1272829
vn 0.7870526 0.6036119 0.1272829
vn 0.1034861 0.4713033 0.8758789
vn -0.527606 0.562797 0.6363109
vn -0.3975506 0.8940122 0.2066297
vn -0.8647457 0.4942001 0.08933762
vn -0.001253297 0.6852731 0.7282851
vn -0.684356 0.2963454 0.6662104
vn 0.002331782 0.9871268 0.1599226
vn -0.8679829 0.4864793 0.09971829
vn 0.6812787 0.2948001 0.6700389
vn 0.000727906 0.984749 0.1739794
vn -0.8684517 0.4810163 0.1200622
vn 0.8662966 0.4923446 0.08442137
vn 0.6805545 -0.4843383 0.5497836
vn 0.001681426 0.9771869 0.2123748
vn -0.867911 0.4754423 0.1438234
vn 0.8665001 -0.4953565 -0.06164088
vn -0.002387957 -0.8729527 0.4877991
vn 0.8688323 0.4875354 0.08625295
vn 0.00110183 0.9673513 0.2534369
vn -0.8625804 0.4859069 0.1408884
vn 0.0009858059 -0.9911691 -0.1326004
vn -0.6847147 -0.4827716 0.545983
vn 0.8634058 -0.4990489 -0.07403113
vn 0.8698869 0.4828088 0.1009578
vn 0.0002262424 0.9694228 0.2453965
vn -0.6955191 0.5134543 -0.502611
vn -0.009020405 0.9032449 -0.4290305
vn -0.8662807 -0.4962826 -0.0571069
vn -0.684356 0.2963454 0.6662104
vn -0.8647457 0.4942001 0.08933762
vn 0.8692752 0.4802207 0.1172548
vn 0.8632321 0.4919487 0.1132114
vn 0.6786737 0.5178506 -0.5208001
vn -0.0005140582 -0.9891707 -0.1467688
vn -0.8638412 -0.5001035 -0.06062031
vn -0.8679829 0.4864793 0.09971829
vn 0.8630516 -0.4953028 -0.09908105
vn 0.8688931 -0.4785112 -0.1266954
vn 0.6793175 -0.2585973 -0.6867716
vn 0.8632914 -0.4890135 -0.124875
vn 0.0005240038 -0.9820622 -0.1885565
vn -0.8630117 -0.4987224 -0.08054056
vn -0.8684517 0.4810163 0.1200622
vn -9.937632E-05 -0.9728381 -0.2314863
vn -0.000509807 -0.9721412 -0.2343953
vn -0.008910023 -0.6487848 -0.7609198
vn -0.8636756 -0.494296 -0.09867109
vn -0.867911 0.4754423 0.1438234
vn -0.8693826 -0.4841747 -0.09873644
vn -0.6962424 -0.2618313 -0.6683494
vn -0.8625804 0.4859069 0.1408884
vn -0.6955191 0.5134543 -0.502611
vn -0.5846554 -0.7398143 0.3329458
vn -0.7386284 0.1778191 0.6502373
vn -0.723159 0.1768933 0.6676449
vn -0.5660615 -0.7443312 0.3543239
vn 0.180505 -0.9438057 -0.2768552
vn -0.6800835 0.1753389 0.7118587
vn 0.1834532 -0.9438027 -0.2749207
vn 0.7967507 -0.206102 -0.568076
vn -0.5303122 -0.7464707 0.4019335
vn -0.6134182 0.1690112 0.7714618
vn 0.7802278 -0.204361 -0.5911694
vn 0.637426 0.7323564 -0.2394625
vn 0.1771576 -0.9443901 -0.2770245
vn -0.4881796 -0.7495511 0.44705
vn -0.5192999 0.1564785 0.8401442
vn 0.6220002 0.7348338 -0.2704349
vn -0.1404683 0.9161316 0.3754619
vn 0.7387384 -0.1948034 -0.6452266
vn 0.1546891 -0.9425026 -0.2962435
vn -0.4383478 -0.7548257 0.4879441
vn -0.3959982 0.1351967 0.9082441
vn -0.1395139 0.9201737 0.3658091
vn -0.7386284 0.1778191 0.6502373
vn -0.723159 0.1768933 0.6676449
vn 0.5818668 0.7464489 -0.3228703
vn -0.1352762 0.9226256 0.3611958
vn -0.6800835 0.1753389 0.7118587
vn 0.6764103 -0.1833494 -0.7133387
vn 0.1131554 -0.9375935 -0.3288075
vn -0.3804769 -0.7637311 0.5214903
vn -0.2461178 0.1027791 0.9637751
vn -0.1110959 0.9197134 0.3765435
vn -0.6134182 0.1690112 0.7714618
vn 0.5397943 0.7560886 -0.3700707
vn 0.5888712 -0.1678969 -0.7905956
vn 0.05074658 -0.9280931 -0.3688738
vn -0.3152651 -0.7777404 0.5438086
vn -0.07301066 0.05754402 0.9956697
vn -0.06426064 0.9116148 0.4059915
vn -0.5192999 0.1564785 0.8401442
vn 0.4943538 0.7655154 -0.4118259
vn 0.4736961 -0.1456347 -0.8685635
vn -0.02998524 -0.9124382 -0.4081146
vn -0.239363 -0.7976817 0.5535425
vn 0.9583611 -0.2796048 0.05801035
vn 0.006740775 0.8971638 0.4416466
vn -0.3959982 0.1351967 0.9082441
vn 0.4453683 0.7758219 -0.4469312
vn 0.3344449 -0.1150468 -0.9353667
vn -0.11517 -0.892352 -0.4363987
vn 0.9583611 -0.2796048 0.05801035
vn 0.1008322 0.8748745 0.4737377
vn -0.2461178 0.1027791 0.9637751
vn 0.3951243 0.7871488 -0.4735752
vn 0.1885947 -0.07834788 -0.9789248
vn 0.9583611 -0.2796048 0.05801035
vn 0.3534882 0.796967 -0.4897853
vn 0.9583611 -0.2796048 0.05801035
vn 0.2173386 0.842235 0.49336
vn 0.9583611 -0.2796048 0.05801035
vn -0.07301066 0.05754402 0.9956697
vn 0.9583611 -0.2796048 0.05801035
vn -0.2420326 0.9623682 -0.1235624
vn 0.2638491 0.6783163 0.6857628
vn 0.2481176 0.6751307 0.6947202
vn -0.2489428 0.9608939 -0.1212863
vn -0.5383265 0.2847934 -0.7931565
vn 0.214213 0.6665752 0.7139961
vn -0.5283473 0.2843556 -0.7999945
vn -0.3264648 -0.6855075 -0.6507689
vn -0.2536672 0.9600576 -0.1180781
vn 0.1747951 0.6568766 0.7334574
vn -0.3088924 -0.6844419 -0.6603975
vn 0.1852434 -0.9679217 0.1697424
vn -0.498372 0.2872714 -0.8179856
vn -0.2414327 0.9625904 -0.1230041
vn 0.1294715 0.6470914 0.7513388
vn 0.1927031 -0.9672395 0.1652675
vn 0.4769617 -0.2804125 0.8329924
vn -0.2714764 -0.6823745 -0.6787236
vn -0.44719 0.2944348 -0.8445883
vn -0.2094551 0.968511 -0.1345919
vn 0.07846004 0.6388537 0.7653169
vn 0.4677036 -0.283126 0.8373129
vn 0.2638491 0.6783163 0.6857628
vn 0.2481176 0.6751307 0.6947202
vn 0.1994812 -0.966217 0.1631929
vn 0.4378983 -0.2895656 0.8511151
vn 0.214213 0.6665752 0.7139961
vn -0.2316619 -0.678986 -0.6966426
vn -0.3716263 0.3049968 -0.8768529
vn -0.1555284 0.9764447 -0.1495549
vn 0.02258095 0.6342423 0.7728045
vn 0.38416 -0.2998119 0.8732319
vn 0.1747951 0.6568766 0.7334574
vn 0.1857294 -0.9678153 0.1698182
vn -0.1894167 -0.674968 -0.7131196
vn -0.2697901 0.3163573 -0.9094676
vn -0.08064323 0.9833664 -0.162749
vn -0.04183973 0.6352783 0.7711492
vn 0.3037395 -0.3127337 0.8999667
vn 0.1294715 0.6470914 0.7513388
vn 0.1487729 -0.9718553 0.182658
vn -0.145586 -0.6710844 -0.7269459
vn -0.1444699 0.3242515 -0.9348741
vn 0.003040033 0.9856341 -0.1688668
vn -0.9905198 0.09870678 -0.09553796
vn 0.1950506 -0.3251989 0.9253113
vn 0.07846004 0.6388537 0.7653169
vn 0.08636529 -0.9765794 0.1970625
vn -0.1030665 -0.6679041 -0.7370762
vn -0.01152112 0.3240034 -0.9459858
vn -0.9905198 0.09870678 -0.09553796
vn 0.0594929 -0.3321804 0.9413378
vn 0.02258095 0.6342423 0.7728045
vn -0.001915415 -0.9784861 0.2063042
vn -0.07255234 -0.6655719 -0.742799
vn -0.9905198 0.09870678 -0.09553796
vn -0.1179352 -0.9719121 0.2036619
vn -0.9905198 0.09870678 -0.09553796
vn -0.1015371 -0.3270431 0.9395388
vn -0.9905198 0.09870678 -0.09553796
vn -0.04183973 0.6352783 0.7711492
vn -0.9905198 0.09870678 -0.09553796
vn 0.6793175 -0.2585973 -0.6867716
vn 0.6786737 0.5178506 -0.5208001
vn -0.009020405 0.9032449 -0.4290305
vn -0.008910023 -0.6487848 -0.7609198
vn -0.6955191 0.5134543 -0.502611
vn -0.6962424 -0.2618313 -0.6683494
vn -0.001253297 0.6852731 0.7282851
vn 0.6812787 0.2948001 0.6700389
vn 0.6805545 -0.4843383 0.5497836
vn -0.002387957 -0.8729527 0.4877991
vn -0.684356 0.2963454 0.6662104
vn -0.6847147 -0.4827716 0.545983
vn -4.755641E-05 -0.05825783 -0.9983016
vn 0.002334829 -0.1397556 -0.9901833
vn 0.8534439 -0.1395131 -0.502165
vn 0.8656241 -0.05696935 -0.4974429
vn -0.865644 -0.05642166 -0.4974708
vn 0.002334829 -0.1397556 -0.9901833
vn -0.8523636 -0.139249 -0.5040695
vn -0.002882471 0.01861281 -0.9998226
vn -0.8668401 0.02476072 -0.4979711
vn -0.01969442 -0.006462818 -0.9997852
vn -0.5547703 0.6766051 -0.4841854
vn -0.1971221 0.5112333 -0.8365306
vn 0.8656241 -0.05696935 -0.4974429
vn 0.8534439 -0.1395131 -0.502165
vn 0.8622049 -0.1385755 0.4872366
vn 0.8633791 -0.05371535 0.5016883
vn 0.001427383 -0.1377669 0.9904637
vn 0.8648506 0.03281458 0.5009557
vn 0.8664492 0.02231785 -0.4987662
vn 0.8654368 0.02317539 -0.5004818
vn 0.7717562 0.4692697 0.4291599
vn 0.7444498 0.4055339 -0.530412
vn -0.0007169775 -0.05171192 0.9986618
vn -0.8614637 -0.1382011 0.488652
vn -0.0002341484 0.03806077 0.9992754
vn 0.7717562 0.4692697 0.4291599
vn 0.1034861 0.4713033 0.8758789
vn -0.864931 0.03267554 0.5008259
vn -2.159202E-06 0.05131826 0.9986823
vn 0.2350972 0.7851535 0.5729427
vn -0.6113291 0.7082098 0.3531509
vn -0.388115 0.8130444 -0.4339648
vn -0.8637983 -0.05311989 0.5010297
vn -0.8523636 -0.139249 -0.5040695
vn -0.865644 -0.05642166 -0.4974708
vn -0.8668401 0.02476072 -0.4979711
vn -0.9995518 0.02963608 -0.004224726
vn -0.9758446 0.1869387 -0.1130543
vn -0.9912909 0.05689828 -0.118764
vn -0.5953183 0.7634161 0.2505833
vn -0.997839 0.04959683 0.043099
vn -0.5547703 0.6766051 -0.4841854
vn -0.9982039 0.05126983 -0.03099079
vn -0.997839 0.04959683 0.043099
vn -0.5547703 0.6766051 -0.4841854
vn -4.755641E-05 -0.05825783 -0.9983016
vn 0.8656241 -0.05696935 -0.4974429
vn 0.8664492 0.02231785 -0.4987662
vn -0.002882471 0.01861281 -0.9998226
vn 0.01800609 0.8477464 -0.530096
vn 0.2350972 0.7851535 0.5729427
vn -0.6113291 0.7082098 0.3531509
vn 0.5175483 0.7983978 -0.3077414
vn 0.01443002 0.7662507 -0.6423797
vn -0.388115 0.8130444 -0.4339648
vn 0.5188696 0.7724 -0.3662957
vn 0.5688816 0.6582404 -0.493045
vn -0.9758446 0.1869387 -0.1130543
vn 0.6189018 0.7779144 0.1086722
vn -0.002808744 0.9994527 -0.03296337
vn 0.1346144 0.9902693 0.03529361
vn 0.6435345 0.7643994 -0.03945763
vn 0.5579187 0.7666047 0.317874
vn -0.4796186 0.809901 -0.3376781
vn 0.01443002 0.7662507 -0.6423797
vn -0.2783297 0.8441173 0.4582559
vn -0.4035798 0.9111587 0.08314553
vn 0.471775 0.7264562 0.4996896
vn -0.5953183 0.7634161 0.2505833
vn 0.3664373 0.9263901 0.08674756
vn 0.6189018 0.7779144 0.1086722
vn 0.6435345 0.7643994 -0.03945763
vn 0.4482006 0.8830097 0.1393204
vn -0.5547703 0.6766051 -0.4841854
vn -0.1971221 0.5112333 -0.8365306
vn -0.08933627 0.8971635 0.4325698
vn -0.466875 0.5496914 0.6927244
vn -0.3676051 0.7442902 0.5575827
vn 0.06403268 0.7908279 0.6086798
vn -0.5265269 0.8008505 0.2853209
vn -0.4241136 0.8595653 -0.2850883
vn -0.264902 0.9281807 0.2613572
vn 0.1460846 0.8070967 -0.5720614
vn 0.1930807 0.9789537 0.06610274
vn -0.3975506 0.8940122 0.2066297
vn 0.01800609 0.8477464 -0.530096
vn 0.01443002 0.7662507 -0.6423797
vn -0.002882471 0.01861281 -0.9998226
vn 0.8664492 0.02231785 -0.4987662
vn 0.8654368 0.02317539 -0.5004818
vn -0.01969442 -0.006462818 -0.9997852
vn 0.5611272 -0.1075261 -0.8207158
vn 0.4464875 -0.0597621 -0.8927919
vn 0.5950227 -0.1535902 -0.7888966
vn -0.1971221 0.5112333 -0.8365306
vn 0.4835169 0.001238192 -0.8753341
vn -0.264902 0.9281807 0.2613572
vn 0.06302274 0.3585698 0.9313731
vn 0.8654368 0.02317539 -0.5004818
vn 0.1460846 0.8070967 -0.5720614
vn 0.7444498 0.4055339 -0.530412
vn 0.01800609 0.8477464 -0.530096
vn -0.3975506 0.8940122 0.2066297
vn -0.527606 0.562797 0.6363109
vn 0.1442182 0.2632965 0.9538743
vn 0.1442182 0.2632965 0.9538743
vn -2.159202E-06 0.05131826 0.9986823
vn 0.2350972 0.7851535 0.5729427
vn 0.1034861 0.4713033 0.8758789
vn -0.527606 0.562797 0.6363109
vn -0.466875 0.5496914 0.6927244
vn -0.3639517 -1.095059E-06 0.9314178
vn 0.06302274 0.3585698 0.9313731
vn -0.4773269 -6.728197E-07 0.8787258
vn -0.1971221 0.5112333 -0.8365306
vn -0.466875 0.5496914 0.6927244
vn 0.06302274 0.3585698 0.9313731
vn -0.264902 0.9281807 0.2613572
vn -0.3676051 0.7442902 0.5575827
vn -0.2783297 0.8441173 0.4582559
vn -0.5265269 0.8008505 0.2853209
vn 0.3080768 0.9504395 -0.04187432
vn 0.3080768 0.9504395 -0.04187432
vn -0.09950129 0.9941245 -0.04261529
vn -0.3889647 0.9204427 -0.03862362
vn 0.1460846 0.8070967 -0.5720614
vn 0.7444498 0.4055339 -0.530412
vn 0.7717562 0.4692697 0.4291599
vn 0.1930807 0.9789537 0.06610274
vn 0.1034861 0.4713033 0.8758789
vn -0.3975506 0.8940122 0.2066297
vn 0.1930807 0.9789537 0.06610274
vn 0.7717562 0.4692697 0.4291599
vn 0.990684 0.1183891 -0.06729922
vn -0.2601635 0.1032323 -0.9600303
vn 0.9971731 0.06005827 -0.04515372
vn -0.2640254 0.1430667 -0.9538461
vn 0.9636722 0.2503372 -0.09309765
vn -0.2219853 0.268264 -0.9374204
vn 0.8795947 0.4742876 -0.03693683
vn -0.1716555 0.5153446 -0.8396156
vn 0.1345182 0.6335899 0.761885
vn -0.7146894 0.6866003 0.1334131
vn 0.07555372 -0.1049502 0.9916033
vn 0.990684 0.1183891 -0.06729922
vn 0.9971731 0.06005827 -0.04515372
vn 0.1028176 -0.1304522 0.986109
vn -0.9532457 -0.07251166 0.293368
vn 0.9636722 0.2503372 -0.09309765
vn -0.9538733 -0.1087149 0.2798336
vn -0.2601635 0.1032323 -0.9600303
vn -0.2640254 0.1430667 -0.9538461
vn 0.1527836 -0.2245745 0.962405
vn 0.8795947 0.4742876 -0.03693683
vn 0.1345182 0.6335899 0.761885
vn -0.9729183 -0.1676186 0.1591666
vn -0.2219853 0.268264 -0.9374204
vn -0.7146894 0.6866003 0.1334131
vn -0.1716555 0.5153446 -0.8396156
vn 0.6958071 0.2780209 0.6622363
vn 0.3230558 0.1294367 -0.9374866
vn 0.7507145 0.08670731 0.6549119
vn 0.3321211 0.3173593 -0.8882447
vn 0.5612567 0.5972753 0.5729338
vn 0.08318116 0.3799245 -0.92127
vn -0.01222758 0.7571719 0.6531012
vn -0.7140877 0.6868556 0.1353073
vn 0.7507145 0.08670731 0.6549119
vn 0.3230558 0.1294367 -0.9374866
vn 0.4048015 0.06505545 -0.9120874
vn 0.7513766 0.07322375 0.6557984
vn -0.5918269 -0.06233466 0.8036512
vn 0.7507145 0.08670731 0.6549119
vn 0.7513766 0.07322375 0.6557984
vn -0.5238314 -0.1411663 0.8400433
vn -0.9544786 -0.07372645 -0.2890243
vn 0.6958071 0.2780209 0.6622363
vn -0.9660031 -0.1130448 -0.2325059
vn 0.4048015 0.06505545 -0.9120874
vn 0.3230558 0.1294367 -0.9374866
vn -0.3781962 -0.1460294 0.9141352
vn 0.5612567 0.5972753 0.5729338
vn -0.01222758 0.7571719 0.6531012
vn -0.9492199 -0.3144619 -0.009761009
vn 0.3321211 0.3173593 -0.8882447
vn -0.7140877 0.6868556 0.1353073
vn 0.08318116 0.3799245 -0.92127
vn -0.451799 0.1522306 -0.8790355
vn -0.6911668 0.1192665 0.7127861
vn -0.279668 0.1394906 -0.9499095
vn -0.639221 0.1529136 0.753667
vn -0.4974412 0.2987644 -0.8144274
vn -0.5537999 0.3948815 0.7330582
vn -0.2534716 0.616611 -0.7453476
vn -0.2735326 0.5945297 0.756118
vn 0.3911122 0.7115437 -0.5837267
vn 0.8139104 0.5655789 0.1329304
vn 0.8944954 -0.0460376 -0.4447006
vn -0.451799 0.1522306 -0.8790355
vn -0.279668 0.1394906 -0.9499095
vn 0.8318678 -0.1390354 -0.5372756
vn -0.4974412 0.2987644 -0.8144274
vn 0.7803965 -0.04991848 0.6232893
vn 0.6784748 -0.261975 -0.6863242
vn 0.7404197 -0.1078344 0.6634383
vn -0.6911668 0.1192665 0.7127861
vn -0.639221 0.1529136 0.753667
vn 0.8562721 -0.2473191 0.453466
vn 0.3911122 0.7115437 -0.5837267
vn 0.8139104 0.5655789 0.1329304
vn 0.8562721 -0.2473191 0.453466
vn -0.639221 0.1529136 0.753667
vn -0.5537999 0.3948815 0.7330582
vn -0.2735326 0.5945297 0.756118
vn 0.6784748 -0.261975 -0.6863242
vn 0.3911122 0.7115437 -0.5837267
vn -0.2534716 0.616611 -0.7453476
vn -0.4974412 0.2987644 -0.8144274
vn -0.3713546 0.2952416 0.8803
vn 0.9473202 0.3071694 0.09072721
vn 0.9897971 0.1419991 0.01174444
vn -0.4565667 0.159644 0.875249
vn 0.9873605 0.06842149 -0.1429607
vn -0.4890608 0.07871328 0.8686908
vn -0.8615692 -0.08055253 -0.5012084
vn -0.4565667 0.159644 0.875249
vn -0.4890608 0.07871328 0.8686908
vn -0.8920301 -0.1016806 -0.44039
vn -0.09968762 -0.08355383 -0.9915045
vn -0.3713546 0.2952416 0.8803
vn -0.02344264 -0.1099827 -0.993657
vn 0.9873605 0.06842149 -0.1429607
vn 0.9897971 0.1419991 0.01174444
vn -0.9244086 -0.1980083 -0.3259779
vn -0.3343769 0.5030206 0.7969707
vn -0.7160234 0.6550962 -0.2411626
vn 0.2180045 -0.07987628 -0.9726735
vn 0.9473202 0.3071694 0.09072721
vn 0.1539762 0.6683444 -0.7277411
vn 0.7761444 0.5854177 0.2342775
vn -0.7160234 0.6550962 -0.2411626
vn 0.1539762 0.6683444 -0.7277411
vn 0.7761444 0.5854177 0.2342775
vn -0.3343769 0.5030206 0.7969707
vn 0.9473202 0.3071694 0.09072721
vn -0.3713546 0.2952416 0.8803
vn -0.06988748 0.9481037 0.3101858
vn 0.9850217 0.06367109 -0.1602442
vn 0.9943396 0.07607321 -0.07417259
vn -0.001639008 0.9439338 0.3301305
vn -0.8454135 0.4899364 0.2126929
vn 0.9505369 0.01852292 -0.3100587
vn -0.880611 0.4180369 0.2230906
vn -0.5637131 -0.7866367 -0.2518538
vn -0.4267041 -0.837541 -0.3412457
vn 0.1164138 0.9011446 0.417596
vn 0.8571209 0.06995463 -0.5103431
vn 0.09131379 0.8810689 -0.4640898
vn -0.9683816 0.2049608 0.1422254
vn -0.3389372 -0.7956415 -0.5020719
vn -0.7286417 0.3305494 -0.5998486
vn -0.1378143 -0.6424122 -0.7538659
vn 0.9850217 0.06367109 -0.1602442
vn -0.5637131 -0.7866367 -0.2518538
vn 0.9943396 0.07607321 -0.07417259
vn -0.4267041 -0.837541 -0.3412457
vn 0.9505369 0.01852292 -0.3100587
vn -0.3389372 -0.7956415 -0.5020719
vn 0.6016723 0.5928727 -0.5352499
vn -0.828397 0.5576124 -0.05316803
vn -0.6574243 0.7518687 -0.04986809
vn 0.7573217 0.442118 0.4806199
vn 0.3669662 -0.1589122 -0.9165603
vn -0.8402746 0.5242869 0.1380647
vn 0.8700919 -0.4818189 -0.1038785
vn -0.1224572 -0.5019842 -0.8561636
vn -0.1533647 -0.7692268 -0.6202979
vn 0.6206294 0.6884649 0.3752802
vn -0.8847601 0.4330456 0.172253
vn 0.5742876 0.7370775 0.3562451
vn 0.9382087 -0.3418234 -0.05404814
vn -0.1893018 -0.8711745 -0.453012
vn 0.9642433 -0.2452355 -0.1004716
vn -0.188457 -0.8774655 -0.4410649
vn 0.3669662 -0.1589122 -0.9165603
vn 0.6016723 0.5928727 -0.5352499
vn -0.6574243 0.7518687 -0.04986809
vn -0.1224572 -0.5019842 -0.8561636
vn -0.828397 0.5576124 -0.05316803
vn -0.1533647 -0.7692268 -0.6202979
vn -0.8402746 0.5242869 0.1380647
vn -0.1893018 -0.8711745 -0.453012
vn -0.1893018 -0.8711745 -0.453012
vn -0.8402746 0.5242869 0.1380647
vn -0.8847601 0.4330456 0.172253
vn -0.188457 -0.8774655 -0.4410649
vn 0.09131379 0.8810689 -0.4640898
vn -0.7286417 0.3305494 -0.5998486
vn -0.1378143 -0.6424122 -0.7538659
vn 0.8571209 0.06995463 -0.5103431
vn -0.3389372 -0.7956415 -0.5020719
vn 0.9505369 0.01852292 -0.3100587
vt 0.4373277 0.01755164
vt 0.9999999 0.5371686
vt 0.8349814 0.2478156
vt 0.4700073 0.4879342
vt 0.7056674 0.9802757
vt 0.5055827 0.9999999
vt 0.3269839 0.9533684
vt 0.009257561 0.668371
vt 0.2015911 0.09033072
vt 0.4373277 0.01755164
vt 0.9999999 0.5371686
vt 0.8349814 0.2478156
vt 0.4700073 0.4879342
vt 0.7056674 0.9802757
vt 0.5055827 0.9999999
vt 0.3269839 0.9533684
vt 0.009257561 0.668371
vt 0.2015911 0.09033072
vt 0.4373277 0.01755164
vt 0.9999999 0.5371686
vt 0.8349814 0.2478156
vt 0.4700073 0.4879342
vt 0.7056674 0.9802757
vt 0.5055827 0.9999999
vt 0.3269839 0.9533684
vt 0.009257561 0.668371
vt 0.2015911 0.09033072
vt 0.4373277 0.01755164
vt 0.9999999 0.5371686
vt 0.8349814 0.2478156
vt 0.4700073 0.4879342
vt 0.7056674 0.9802757
vt 0.5055827 0.9999999
vt 0.3269839 0.9533684
vt 0.009257561 0.668371
vt 0.2015911 0.09033072
vt 0.4373277 0.01755164
vt 0.9999999 0.5371686
vt 0.8349814 0.2478156
vt 0.4700073 0.4879342
vt 0.7056674 0.9802757
vt 0.5055827 0.9999999
vt 0.3269839 0.9533684
vt 0.009257561 0.668371
vt 0.2015911 0.09033072
vt 0.4373277 0.01755164
vt 0.9999999 0.5371686
vt 0.8349814 0.2478156
vt 0.4700073 0.4879342
vt 0.7056674 0.9802757
vt 0.5055827 0.9999999
vt 0.3269839 0.9533684
vt 0.009257561 0.668371
vt 0.2015911 0.09033072
vt 0.4373277 0.01755164
vt 0.9999999 0.5371686
vt 0.8349814 0.2478156
vt 0.4700073 0.4879342
vt 0.7056674 0.9802757
vt 0.5055827 0.9999999
vt 0.3269839 0.9533684
vt 0.009257561 0.668371
vt 0.2015911 0.09033072
vt 0.4373277 0.01755164
vt 0.9999999 0.5371686
vt 0.8349814 0.2478156
vt 0.4700073 0.4879342
vt 0.7056674 0.9802757
vt 0.5055827 0.9999999
vt 0.3269839 0.9533684
vt 0.009257561 0.668371
vt 0.2015911 0.09033072
vt 0.4373277 0.01755164
vt 0.9999999 0.5371686
vt 0.8349814 0.2478156
vt 0.4700073 0.4879342
vt 0.7056674 0.9802757
vt 0.5055827 0.9999999
vt 0.3269839 0.9533684
vt 0.009257561 0.668371
vt 0.2015911 0.09033072
vt 0.4373277 0.01755164
vt 0.9999999 0.5371686
vt 0.8349814 0.2478156
vt 0.4700073 0.4879342
vt 0.7056674 0.9802757
vt 0.5055827 0.9999999
vt 0.3269839 0.9533684
vt 0.009257561 0.668371
vt 0.2015911 0.09033072
vt 0.4373277 0.01755164
vt 0.9999999 0.5371686
vt 0.8349814 0.2478156
vt 0.4700073 0.4879342
vt 0.7056674 0.9802757
vt 0.5055827 0.9999999
vt 0.3269839 0.9533684
vt 0.009257561 0.668371
vt 0.2015911 0.09033072
vt 0.4373277 0.01755164
vt 0.9999999 0.5371686
vt 0.8349814 0.2478156
vt 0.4700073 0.4879342
vt 0.7056674 0.9802757
vt 0.5055827 0.9999999
vt 0.3269839 0.9533684
vt 0.009257561 0.668371
vt 0.2015911 0.09033072
vt 0.4373277 0.01755164
vt 0.9999999 0.5371686
vt 0.8349814 0.2478156
vt 0.4700073 0.4879342
vt 0.7056674 0.9802757
vt 0.5055827 0.9999999
vt 0.3269839 0.9533684
vt 0.009257561 0.668371
vt 0.2015911 0.09033072
vt 0.4373277 0.01755164
vt 0.9999999 0.5371686
vt 0.8349814 0.2478156
vt 0.4700073 0.4879342
vt 0.7056674 0.9802757
vt 0.5055827 0.9999999
vt 0.3269839 0.9533684
vt 0.009257561 0.668371
vt 0.2015911 0.09033072
vt 0.4373277 0.01755164
vt 0.9999999 0.5371686
vt 0.8349814 0.2478156
vt 0.4700073 0.4879342
vt 0.7056674 0.9802757
vt 0.5055827 0.9999999
vt 0.3269839 0.9533684
vt 0.009257561 0.668371
vt 0.2015911 0.09033072
vt 0.4373277 0.01755164
vt 0.9999999 0.5371686
vt 0.8349814 0.2478156
vt 0.4700073 0.4879342
vt 0.7056674 0.9802757
vt 0.5055827 0.9999999
vt 0.3269839 0.9533684
vt 0.009257561 0.668371
vt 0.2015911 0.09033072
vt 0.4373277 0.01755164
vt 0.9999999 0.5371686
vt 0.8349814 0.2478156
vt 0.4700073 0.4879342
vt 0.7056674 0.9802757
vt 0.5055827 0.9999999
vt 0.3269839 0.9533684
vt 0.009257561 0.668371
vt 0.2015911 0.09033072
vt 0.8143449 0.8625278
vt 0.8181233 0.847967
vt 0.8085151 0.8493237
vt 0.8360683 0.7501395
vt 0.7013471 0.7377038
vt 0.7947203 0.7920254
vt 0.9003173 0.9179916
vt 0.8860582 0.920571
vt 0.3669027 0.1850333
vt 0.8286857 0.8564609
vt 0.8285462 0.8571125
vt 0.8281917 0.8587672
vt 0.511314 -0.24241
vt 0.4287401 -0.4133443
vt 0.511314 -0.4133448
vt 0.4287401 -0.2424093
vt 0.511314 -0.06172839
vt 0.346166 -0.4133449
vt 0.4287401 -0.06172797
vt 0.511314 0.07599163
vt 0.346166 -0.24241
vt 0.2635922 -0.4133449
vt 0.4287401 0.07599214
vt 0.511314 0.3943933
vt 0.2635922 -0.24241
vt 0.1810185 -0.413345
vt 0.346166 -0.06172866
vt 0.4287401 0.3943938
vt 0.511314 0.7127949
vt 0.1810184 -0.24241
vt 0.09844446 -0.4133452
vt 0.2635922 -0.06172869
vt 0.346166 0.07599163
vt 0.4287401 0.7127955
vt 0.511314 0.9918479
vt 0.4287401 0.9918483
vt 0.09844434 -0.24241
vt 0.01587045 -0.4133455
vt 0.01587045 -0.2424106
vt 0.346166 0.3943933
vt 0.346166 0.7127949
vt 0.346166 0.9918479
vt 0.1810184 -0.06172851
vt 0.09844434 -0.06172863
vt 0.01587045 -0.06172919
vt 0.2635922 0.07599163
vt 0.2635922 0.7127949
vt 0.2635922 0.9918479
vt 0.2635922 0.3943933
vt 0.1810184 0.07599163
vt 0.09844434 0.07599163
vt 0.01587045 0.07599112
vt 0.1810184 0.3943933
vt 0.1810184 0.7127949
vt 0.1810184 0.9918478
vt 0.09844434 0.3943933
vt 0.01587045 0.3943928
vt 0.09844434 0.7127949
vt 0.09844434 0.9918478
vt 0.01587045 0.7127943
vt 0.01587045 0.9918473
vt 0.1251584 0.765224
vt 0.04258442 0.7652239
vt 0.04258442 0.6989179
vt 0.1251584 0.6989181
vt 0.2077323 0.765224
vt 0.04258442 0.6326119
vt 0.2077323 0.6989181
vt 0.2903062 0.765224
vt 0.1251584 0.632612
vt 0.04258442 0.5663059
vt 0.2903062 0.6989181
vt 0.3728801 0.765224
vt 0.2077323 0.632612
vt 0.1251584 0.5663061
vt 0.04258442 0.5000001
vt 0.3728801 0.6989181
vt 0.4554541 0.765224
vt 0.2903062 0.632612
vt 0.2077323 0.5663061
vt 0.1251584 0.5000001
vt 0.04258442 0.4336941
vt 0.4554541 0.6989181
vt 0.538028 0.7652241
vt 0.538028 0.6989181
vt 0.3728801 0.632612
vt 0.4554541 0.632612
vt 0.538028 0.6326122
vt 0.2903062 0.5663061
vt 0.2077323 0.5000001
vt 0.1251584 0.4336941
vt 0.04258442 0.3673881
vt 0.4554541 0.5663061
vt 0.538028 0.5663062
vt 0.3728801 0.5663061
vt 0.2903062 0.5000001
vt 0.2077323 0.4336941
vt 0.1251584 0.3673881
vt 0.04258442 0.3010821
vt 0.4554541 0.5000001
vt 0.538028 0.5000002
vt 0.3728801 0.5000001
vt 0.2903062 0.4336941
vt 0.2077323 0.3673881
vt 0.1251584 0.3010821
vt 0.04258442 0.2347761
vt 0.4554541 0.4336942
vt 0.538028 0.4336941
vt 0.3728801 0.4336941
vt 0.2903062 0.3673881
vt 0.2077323 0.3010821
vt 0.1251584 0.2347761
vt 0.4554541 0.3673882
vt 0.538028 0.3673881
vt 0.3728801 0.3673881
vt 0.2903062 0.3010821
vt 0.2077323 0.2347763
vt 0.3728801 0.3010821
vt 0.2903062 0.2347763
vt 0.4554541 0.3010823
vt 0.3728801 0.2347763
vt 0.538028 0.3010821
vt 0.4554541 0.2347763
vt 0.1251584 0.6787736
vt 0.04258442 0.6787735
vt 0.04258442 0.6340802
vt 0.1251584 0.6340802
vt 0.2077323 0.6787736
vt 0.04258442 0.5893868
vt 0.2077323 0.6340802
vt 0.2903062 0.6787736
vt 0.1251584 0.5893869
vt 0.04258442 0.5446934
vt 0.2903062 0.6340802
vt 0.3728801 0.6787736
vt 0.2077323 0.5893869
vt 0.1251584 0.5446935
vt 0.04258442 0.5000001
vt 0.3728801 0.6340802
vt 0.4554541 0.6787736
vt 0.2903062 0.5893869
vt 0.2077323 0.5446935
vt 0.1251584 0.5000001
vt 0.04258442 0.4553067
vt 0.4554541 0.6340802
vt 0.538028 0.6787738
vt 0.538028 0.6340803
vt 0.3728801 0.5893869
vt 0.4554541 0.5893869
vt 0.538028 0.5893869
vt 0.2903062 0.5446935
vt 0.2077323 0.5000001
vt 0.1251584 0.4553067
vt 0.04258442 0.4106133
vt 0.4554541 0.5446935
vt 0.538028 0.5446936
vt 0.3728801 0.5446935
vt 0.2903062 0.5000001
vt 0.2077323 0.4553067
vt 0.1251584 0.4106134
vt 0.04258442 0.3659199
vt 0.4554541 0.5000001
vt 0.538028 0.5000002
vt 0.3728801 0.5000001
vt 0.2903062 0.4553067
vt 0.2077323 0.4106134
vt 0.1251584 0.3659199
vt 0.04258442 0.3212265
vt 0.4554541 0.4553068
vt 0.538028 0.4553067
vt 0.3728801 0.4553067
vt 0.2903062 0.4106134
vt 0.2077323 0.3659199
vt 0.1251584 0.3212266
vt 0.4554541 0.4106134
vt 0.538028 0.4106134
vt 0.3728801 0.4106134
vt 0.2903062 0.3659199
vt 0.2077323 0.3212266
vt 0.3728801 0.3659199
vt 0.2903062 0.3212266
vt 0.4554541 0.3659201
vt 0.3728801 0.3212266
vt 0.538028 0.3659199
vt 0.4554541 0.3212266
vt 0.9183772 0.8943475
vt 0.869053 0.851631
vt 0.7704034 0.851631
vt 0.8690521 0.9370641
vt 0.7210783 0.8943475
vt 0.7704025 0.9370641
vt 0.7169067 0.895722
vt 0.7675462 0.939573
vt 0.8688115 0.939573
vt 0.9194375 0.8957217
vt 0.7675325 0.8518702
vt 0.868798 0.8518702
vt 0.4480869 0.6002399
vt 0.4460052 0.6816354
vt 0.3528105 0.6818887
vt 0.3513593 0.6002399
vt 0.518589 0.5996086
vt 0.4463205 0.6818887
vt 0.518589 0.6816354
vt 0.4358575 0.3661419
vt 0.518589 0.3661419
vt 0.4358575 0.2163424
vt 0.5109024 0.1879398
vt 0.4358575 0.1850333
vt 0.3531258 0.5996086
vt 0.3531258 0.6816354
vt 0.2703935 0.6816354
vt 0.2703935 0.5996086
vt 0.1876618 0.6816354
vt 0.2703935 0.3661419
vt 0.3531258 0.3661419
vt 0.353126 0.2755876
vt 0.2703939 0.1901564
vt 0.3361734 0.1901571
vt 0.1876618 0.5996086
vt 0.1049302 0.6816354
vt 0.1876626 0.3661419
vt 0.2703939 0.1901564
vt 0.1991252 0.1900689
vt 0.1049309 0.3661419
vt 0.1876627 0.2413483
vt 0.1779914 0.1850335
vt 0.1049309 0.1850333
vt 0.06918377 0.1850333
vt 0.1049302 0.5996086
vt 0.02219853 0.6816354
vt 0.02219853 0.5996086
vt 0.02219853 0.3661419
vt 0.06102725 0.2887114
vt 0.06267581 0.1966678
vt 0.05885369 0.2466941
vt 0.05110297 0.1850333
vt 0.05165277 0.2673968
vt 0.02013435 0.188013
vt 0.05494887 0.2837016
vt 0.05165277 0.2673968
vt 0.02013435 0.188013
vt 0.442027 0.6002399
vt 0.3452994 0.6002399
vt 0.3572917 0.3659257
vt 0.441524 0.3662528
vt 0.8145213 0.8660166
vt 0.8093393 0.8542795
vt 0.7448227 0.8730001
vt 0.7636887 0.878466
vt 0.8127092 0.8730949
vt 0.7448317 0.891299
vt 0.7772394 0.8831706
vt 0.7645372 0.8911587
vt 0.7381452 0.8925344
vt 0.7772441 0.8920267
vt 0.815744 0.8943568
vt 0.7917347 0.8942471
vt 0.7772464 0.8963351
vt 0.777251 0.9051912
vt 0.8532011 0.8831706
vt 0.8215913 0.8739935
vt 0.8342215 0.9106765
vt 0.7611839 0.8944232
vt 0.767167 0.8970497
vt 0.7448362 0.9005545
vt 0.779163 0.8942025
vt 0.7772486 0.8920269
vt 0.7772464 0.896335
vt 0.7643021 0.909708
vt 0.753554 0.9161122
vt 0.8178897 0.9364986
vt 0.8178879 0.9235518
vt 0.8481548 0.9230573
vt 0.8432472 0.9162002
vt 0.8152304 0.916182
vt 0.8532127 0.905171
vt 0.8735328 0.878038
vt 0.8695827 0.9087297
vt 0.8832042 0.9070684
vt 0.8831551 0.8752475
vt 0.8281917 0.8587672
vt 0.8263817 0.8672166
vt 0.8215913 0.8739935
vt 0.351547 0.3662528
vt 0.4357793 0.3659257
vt 0.448871 0.2726527
vt 0.3412013 0.2124281
vt 0.4477796 0.1801676
vt 0.3775927 0.1789493
vt 0.4313702 0.1709396
vt 0.3410761 0.1851274
vt 0.3836474 0.1636074
vt 0.7416193 0.6838061
vt 0.709745 0.6812528
vt 0.7396 0.7957388
vt 0.7600746 0.681424
vt 0.7682342 0.6866097
vt 0.8181226 0.8616447
vt 0.825207 0.8536159
vt 0.825482 0.8494749
vt 0.8181233 0.847967
vt 0.1890721 0.1850336
vt 0.1876627 0.2413483
vt 0.1876627 0.1850336
vt 0.1991252 0.190069
vt 0.1971209 0.1850335
vt 0.8349382 0.7005067
vt 0.9656159 0.7542282
vt 1.043377 0.7206779
vt 0.8360683 0.7501395
vt 0.7419543 0.7235317
vt 0.8521825 0.9266987
vt 0.9003173 0.9179916
vt 0.8762581 0.9105787
vt 0.8466614 0.9189845
vt 0.8502436 0.917946
vt 0.8716085 0.9117525
vt 0.9708756 0.7924725
vt 0.9656159 0.7542282
vt 0.8360683 0.7501395
vt 0.7956535 0.7912097
vt 0.9732996 0.571511
vt 0.9833603 0.5605279
vt 0.8335687 0.5201885
vt 0.8320562 0.5335825
vt 0.6634576 0.5556639
vt 0.6764254 0.5656273
vt 0.8320562 0.5335825
vt 0.8335687 0.5201885
vt 0.8352506 0.5967713
vt 0.7650794 0.7023135
vt 0.8352506 0.7051981
vt 0.7721995 0.5940652
vt 0.8283744 0.5574651
vt 0.7748438 0.5565225
vt 0.8235284 0.5222499
vt 0.7793455 0.5233691
vt 0.8209248 0.4978257
vt 0.7776883 0.500295
vt 0.4895796 0.8541272
vt 0.5086845 0.7740098
vt 0.5130002 0.8556642
vt 0.4863361 0.7730376
vt 0.4648117 0.8538938
vt 0.5034878 0.744879
vt 0.4624414 0.7752548
vt 0.4445136 0.8544961
vt 0.4403416 0.7728364
vt 0.4822692 0.7361525
vt 0.4950623 0.7184159
vt 0.4778748 0.7033705
vt 0.4592802 0.7383326
vt 0.4395451 0.7449793
vt 0.4575475 0.7058903
vt 0.4428834 0.7202256
vt 0.7648989 0.5524817
vt 0.6959853 0.615281
vt 0.7712429 0.615281
vt 0.7013203 0.5526396
vt 0.7491493 0.5250123
vt 0.6972231 0.5290259
vt 0.7420751 0.4984166
vt 0.7132832 0.4974081
vt 0.9087055 0.7061396
vt 0.835723 0.7059159
vt 0.8504928 0.5815195
vt 0.9225174 0.5800204
vt 0.1169921 0.3230908
vt 0.09455372 0.3949166
vt 0.09541546 0.3213122
vt 0.1101929 0.396851
vt 0.1398563 0.3241893
vt 0.09445386 0.430684
vt 0.1333856 0.3949559
vt 0.1581046 0.3240784
vt 0.1540477 0.3965753
vt 0.1106053 0.4384128
vt 0.1043074 0.4457385
vt 0.1152252 0.4591503
vt 0.1268242 0.4361186
vt 0.1524519 0.4315835
vt 0.1285896 0.4579451
vt 0.1467932 0.4439194
vt 0.6413141 0.8681511
vt 0.5858351 0.9517637
vt 0.6428268 0.9582987
vt 0.6009594 0.8654562
vt 0.6428269 0.8435665
vt 0.6099552 0.8390473
vt 0.6405565 0.8300132
vt 0.6122627 0.8311048
vt 0.6411127 0.8208835
vt 0.6263914 0.8183215
vt 0.2404535 0.253055
vt 0.2393413 0.3747394
vt 0.2404535 0.253055
vt 0.2393413 0.3747394
vt 0.239259 0.4002612
vt 0.1947616 0.2523169
vt 0.2392314 0.4088225
vt 0.1968266 0.3743955
vt 0.1947616 0.2523169
vt 0.1968266 0.3743955
vt 0.197374 0.4068144
vt 0.2389937 0.4825908
vt 0.198559 0.4769804
vt 0.197374 0.4068144
vt 0.1968266 0.3743955
vt 0.2128325 0.4136558
vt 0.1981238 0.4512117
vt 0.2392314 0.4088225
vt 0.2389937 0.4825908
vt 0.239081 0.4554994
vt 0.239259 0.4002612
vt 0.7587063 0.7379875
vt 0.7039768 0.7362651
vt 0.7031264 0.7076969
vt 0.7588772 0.7079526
vt 0.7004184 0.6168937
vt 0.7603356 0.6174428
vt 0.4420247 0.4767897
vt 0.4696048 0.4039955
vt 0.4667296 0.4787208
vt 0.4477458 0.4026337
vt 0.3915965 0.4761841
vt 0.466168 0.3770782
vt 0.397939 0.4042412
vt 0.3676989 0.4754131
vt 0.3756915 0.4013681
vt 0.4471017 0.3687864
vt 0.4602078 0.3526813
vt 0.4455783 0.3386164
vt 0.4022423 0.3710352
vt 0.3818292 0.376058
vt 0.4113063 0.3414364
vt 0.3928938 0.3523882
vt 0.9188191 0.4991676
vt 0.8294581 0.5035698
vt 0.8266662 0.5370851
vt 0.9179561 0.5346643
vt 0.7879235 0.5858134
vt 0.9243953 0.5858134
vt 0.158244 0.5905169
vt 0.1919828 0.5014676
vt 0.1884655 0.5928794
vt 0.1652426 0.4998017
vt 0.09655492 0.5897761
vt 0.1877785 0.4685396
vt 0.1043138 0.5017682
vt 0.067321 0.588833
vt 0.07709837 0.4982536
vt 0.1644546 0.4583963
vt 0.1804873 0.4386948
vt 0.162591 0.4214891
vt 0.109578 0.4611472
vt 0.08460656 0.4672916
vt 0.120666 0.4249389
vt 0.09814191 0.4383363
vt 0.7588772 0.7079526
vt 0.7004184 0.6168937
vt 0.7603356 0.6174428
vt 0.7031264 0.7076969
vt 0.7587063 0.7379875
vt 0.7039768 0.7362651
vt 0.1285896 0.4579451
vt 0.1524519 0.4315835
vt 0.1467932 0.4439194
vt 0.1268242 0.4361186
vt 0.1152252 0.4591503
vt 0.1540477 0.3965753
vt 0.1106053 0.4384128
vt 0.1043074 0.4457385
vt 0.09445386 0.430684
vt 0.1333856 0.3949559
vt 0.1581046 0.3240784
vt 0.1398563 0.3241893
vt 0.1101929 0.396851
vt 0.09455372 0.3949166
vt 0.1169921 0.3230908
vt 0.09541546 0.3213122
vt 0.7420751 0.4984166
vt 0.7132832 0.4974081
vt 0.6972231 0.5290259
vt 0.7491493 0.5250123
vt 0.7013203 0.5526396
vt 0.7648989 0.5524817
vt 0.6959853 0.615281
vt 0.7712429 0.615281
vt 0.9087055 0.7061396
vt 0.835723 0.7059159
vt 0.8504928 0.5815195
vt 0.9225174 0.5800204
vt 0.9188191 0.4991676
vt 0.8294581 0.5035698
vt 0.8266662 0.5370851
vt 0.9179561 0.5346643
vt 0.7879235 0.5858134
vt 0.9243953 0.5858134
usemtl MV_BambooLeaves_Dry
f 1/1/1 3/3/3 2/2/2
f 1/1/1 2/2/2 4/4/4
f 4/4/4 2/2/2 5/5/5
f 4/4/4 5/5/5 6/6/6
f 4/4/4 6/6/6 7/7/7
f 4/4/4 7/7/7 8/8/8
f 8/8/8 1/1/1 4/4/4
f 8/8/8 9/9/9 1/1/1
f 10/10/10 12/12/12 11/11/11
f 10/10/10 11/11/11 13/13/13
f 13/13/13 11/11/11 14/14/14
f 13/13/13 14/14/14 15/15/15
f 13/13/13 15/15/15 16/16/16
f 13/13/13 16/16/16 17/17/17
f 17/17/17 10/10/10 13/13/13
f 17/17/17 18/18/18 10/10/10
f 19/19/19 21/21/21 20/20/20
f 19/19/19 20/20/20 22/22/22
f 22/22/22 20/20/20 23/23/23
f 22/22/22 23/23/23 24/24/24
f 22/22/22 24/24/24 25/25/25
f 22/22/22 25/25/25 26/26/26
f 26/26/26 19/19/19 22/22/22
f 26/26/26 27/27/27 19/19/19
f 28/28/28 30/30/30 29/29/29
f 28/28/28 29/29/29 31/31/31
f 31/31/31 29/29/29 32/32/32
f 31/31/31 32/32/32 33/33/33
f 31/31/31 33/33/33 34/34/34
f 31/31/31 34/34/34 35/35/35
f 35/35/35 28/28/28 31/31/31
f 35/35/35 36/36/36 28/28/28
f 37/37/37 39/39/39 38/38/38
f 37/37/37 38/38/38 40/40/40
f 40/40/40 38/38/38 41/41/41
f 40/40/40 41/41/41 42/42/42
f 40/40/40 42/42/42 43/43/43
f 40/40/40 43/43/43 44/44/44
f 44/44/44 37/37/37 40/40/40
f 44/44/44 45/45/45 37/37/37
f 46/46/46 48/48/48 47/47/47
f 46/46/46 47/47/47 49/49/49
f 49/49/49 47/47/47 50/50/50
f 49/49/49 50/50/50 51/51/51
f 49/49/49 51/51/51 52/52/52
f 49/49/49 52/52/52 53/53/53
f 53/53/53 46/46/46 49/49/49
f 53/53/53 54/54/54 46/46/46
f 55/55/55 57/57/57 56/56/56
f 55/55/55 56/56/56 58/58/58
f 58/58/58 56/56/56 59/59/59
f 58/58/58 59/59/59 60/60/60
f 58/58/58 60/60/60 61/61/61
f 58/58/58 61/61/61 62/62/62
f 62/62/62 55/55/55 58/58/58
f 62/62/62 63/63/63 55/55/55
f 64/64/64 66/66/66 65/65/65
f 64/64/64 65/65/65 67/67/67
f 67/67/67 65/65/65 68/68/68
f 67/67/67 68/68/68 69/69/69
f 67/67/67 69/69/69 70/70/70
f 67/67/67 70/70/70 71/71/71
f 71/71/71 64/64/64 67/67/67
f 71/71/71 72/72/72 64/64/64
f 73/73/73 75/75/75 74/74/74
f 73/73/73 74/74/74 76/76/76
f 76/76/76 74/74/74 77/77/77
f 76/76/76 77/77/77 78/78/78
f 76/76/76 78/78/78 79/79/79
f 76/76/76 79/79/79 80/80/80
f 80/80/80 73/73/73 76/76/76
f 80/80/80 81/81/81 73/73/73
f 82/82/82 84/84/84 83/83/83
f 82/82/82 83/83/83 85/85/85
f 85/85/85 83/83/83 86/86/86
f 85/85/85 86/86/86 87/87/87
f 85/85/85 87/87/87 88/88/88
f 85/85/85 88/88/88 89/89/89
f 89/89/89 82/82/82 85/85/85
f 89/89/89 90/90/90 82/82/82
f 91/91/91 93/93/93 92/92/92
f 91/91/91 92/92/92 94/94/94
f 94/94/94 92/92/92 95/95/95
f 94/94/94 95/95/95 96/96/96
f 94/94/94 96/96/96 97/97/97
f 94/94/94 97/97/97 98/98/98
f 98/98/98 91/91/91 94/94/94
f 98/98/98 99/99/99 91/91/91
f 100/100/100 102/102/102 101/101/101
f 100/100/100 101/101/101 103/103/103
f 103/103/103 101/101/101 104/104/104
f 103/103/103 104/104/104 105/105/105
f 103/103/103 105/105/105 106/106/106
f 103/103/103 106/106/106 107/107/107
f 107/107/107 100/100/100 103/103/103
f 107/107/107 108/108/108 100/100/100
f 109/109/109 111/111/111 110/110/110
f 109/109/109 110/110/110 112/112/112
f 112/112/112 110/110/110 113/113/113
f 112/112/112 113/113/113 114/114/114
f 112/112/112 114/114/114 115/115/115
f 112/112/112 115/115/115 116/116/116
f 116/116/116 109/109/109 112/112/112
f 116/116/116 117/117/117 109/109/109
f 118/118/118 120/120/120 119/119/119
f 118/118/118 119/119/119 121/121/121
f 121/121/121 119/119/119 122/122/122
f 121/121/121 122/122/122 123/123/123
f 121/121/121 123/123/123 124/124/124
f 121/121/121 124/124/124 125/125/125
f 125/125/125 118/118/118 121/121/121
f 125/125/125 126/126/126 118/118/118
f 127/127/127 129/129/129 128/128/128
f 127/127/127 128/128/128 130/130/130
f 130/130/130 128/128/128 131/131/131
f 130/130/130 131/131/131 132/132/132
f 130/130/130 132/132/132 133/133/133
f 130/130/130 133/133/133 134/134/134
f 134/134/134 127/127/127 130/130/130
f 134/134/134 135/135/135 127/127/127
f 136/136/136 138/138/138 137/137/137
f 136/136/136 137/137/137 139/139/139
f 139/139/139 137/137/137 140/140/140
f 139/139/139 140/140/140 141/141/141
f 139/139/139 141/141/141 142/142/142
f 139/139/139 142/142/142 143/143/143
f 143/143/143 136/136/136 139/139/139
f 143/143/143 144/144/144 136/136/136
f 145/145/145 147/147/147 146/146/146
f 145/145/145 146/146/146 148/148/148
f 148/148/148 146/146/146 149/149/149
f 148/148/148 149/149/149 150/150/150
f 148/148/148 150/150/150 151/151/151
f 148/148/148 151/151/151 152/152/152
f 152/152/152 145/145/145 148/148/148
f 152/152/152 153/153/153 145/145/145
usemtl MV_BambooBarkMISC
f 154/154/154 156/156/156 155/155/155
f 157/157/157 159/159/159 158/158/158
f 160/160/160 162/162/162 161/161/161
f 163/163/163 165/165/165 164/164/164
f 166/166/166 168/168/168 167/167/167
f 166/166/166 167/167/167 169/169/169
f 170/170/170 166/166/166 169/169/169
f 169/169/169 167/167/167 171/171/171
f 170/170/170 169/169/169 172/172/172
f 173/173/173 170/170/170 172/172/172
f 169/169/169 171/171/171 174/174/174
f 172/172/172 169/169/169 174/174/174
f 174/174/174 171/171/171 175/175/175
f 173/173/173 172/172/172 176/176/176
f 177/177/177 173/173/173 176/176/176
f 174/174/174 175/175/175 178/178/178
f 178/178/178 175/175/175 179/179/179
f 172/172/172 174/174/174 180/180/180
f 176/176/176 172/172/172 180/180/180
f 180/180/180 174/174/174 178/178/178
f 177/177/177 176/176/176 181/181/181
f 182/182/182 177/177/177 181/181/181
f 178/178/178 179/179/179 183/183/183
f 183/183/183 179/179/179 184/184/184
f 180/180/180 178/178/178 185/185/185
f 185/185/185 178/178/178 183/183/183
f 176/176/176 180/180/180 186/186/186
f 181/181/181 176/176/176 186/186/186
f 186/186/186 180/180/180 185/185/185
f 182/182/182 181/181/181 187/187/187
f 188/188/188 182/182/182 187/187/187
f 188/188/188 187/187/187 189/189/189
f 183/183/183 184/184/184 190/190/190
f 190/190/190 184/184/184 191/191/191
f 190/190/190 191/191/191 192/192/192
f 181/181/181 186/186/186 193/193/193
f 187/187/187 181/181/181 193/193/193
f 189/189/189 187/187/187 194/194/194
f 187/187/187 193/193/193 194/194/194
f 189/189/189 194/194/194 195/195/195
f 185/185/185 183/183/183 196/196/196
f 196/196/196 183/183/183 190/190/190
f 197/197/197 190/190/190 192/192/192
f 196/196/196 190/190/190 197/197/197
f 197/197/197 192/192/192 198/198/198
f 186/186/186 185/185/185 199/199/199
f 193/193/193 186/186/186 199/199/199
f 199/199/199 185/185/185 196/196/196
f 195/195/195 194/194/194 200/200/200
f 195/195/195 200/200/200 201/201/201
f 194/194/194 193/193/193 202/202/202
f 193/193/193 199/199/199 202/202/202
f 194/194/194 202/202/202 200/200/200
f 199/199/199 196/196/196 203/203/203
f 203/203/203 196/196/196 197/197/197
f 202/202/202 199/199/199 203/203/203
f 204/204/204 197/197/197 198/198/198
f 203/203/203 197/197/197 204/204/204
f 204/204/204 198/198/198 205/205/205
f 202/202/202 203/203/203 206/206/206
f 200/200/200 202/202/202 206/206/206
f 206/206/206 203/203/203 204/204/204
f 201/201/201 200/200/200 207/207/207
f 200/200/200 206/206/206 207/207/207
f 201/201/201 207/207/207 208/208/208
f 209/209/209 204/204/204 205/205/205
f 206/206/206 204/204/204 209/209/209
f 207/207/207 206/206/206 209/209/209
f 209/209/209 205/205/205 210/210/210
f 208/208/208 207/207/207 211/211/211
f 207/207/207 209/209/209 211/211/211
f 211/211/211 209/209/209 210/210/210
f 208/208/208 211/211/211 212/212/212
f 211/211/211 210/210/210 213/213/213
f 212/212/212 211/211/211 213/213/213
f 212/212/212 213/213/213 214/214/214
f 215/215/215 217/217/217 216/216/216
f 215/215/215 218/218/218 217/217/217
f 219/219/219 218/218/218 215/215/215
f 218/218/218 220/220/220 217/217/217
f 219/219/219 221/221/221 218/218/218
f 222/222/222 221/221/221 219/219/219
f 218/218/218 223/223/223 220/220/220
f 221/221/221 223/223/223 218/218/218
f 223/223/223 224/224/224 220/220/220
f 222/222/222 225/225/225 221/221/221
f 226/226/226 225/225/225 222/222/222
f 221/221/221 227/227/227 223/223/223
f 225/225/225 227/227/227 221/221/221
f 223/223/223 228/228/228 224/224/224
f 227/227/227 228/228/228 223/223/223
f 228/228/228 229/229/229 224/224/224
f 226/226/226 230/230/230 225/225/225
f 231/231/231 230/230/230 226/226/226
f 225/225/225 232/232/232 227/227/227
f 230/230/230 232/232/232 225/225/225
f 227/227/227 233/233/233 228/228/228
f 232/232/232 233/233/233 227/227/227
f 228/228/228 234/234/234 229/229/229
f 233/233/233 234/234/234 228/228/228
f 234/234/234 235/235/235 229/229/229
f 231/231/231 236/236/236 230/230/230
f 237/237/237 236/236/236 231/231/231
f 237/237/237 238/238/238 236/236/236
f 230/230/230 239/239/239 232/232/232
f 236/236/236 239/239/239 230/230/230
f 238/238/238 240/240/240 236/236/236
f 236/236/236 240/240/240 239/239/239
f 238/238/238 241/241/241 240/240/240
f 232/232/232 242/242/242 233/233/233
f 239/239/239 242/242/242 232/232/232
f 233/233/233 243/243/243 234/234/234
f 242/242/242 243/243/243 233/233/233
f 234/234/234 244/244/244 235/235/235
f 243/243/243 244/244/244 234/234/234
f 244/244/244 245/245/245 235/235/235
f 241/241/241 246/246/246 240/240/240
f 241/241/241 247/247/247 246/246/246
f 240/240/240 248/248/248 239/239/239
f 239/239/239 248/248/248 242/242/242
f 240/240/240 246/246/246 248/248/248
f 242/242/242 249/249/249 243/243/243
f 248/248/248 249/249/249 242/242/242
f 243/243/243 250/250/250 244/244/244
f 249/249/249 250/250/250 243/243/243
f 244/244/244 251/251/251 245/245/245
f 250/250/250 251/251/251 244/244/244
f 251/251/251 252/252/252 245/245/245
f 247/247/247 253/253/253 246/246/246
f 247/247/247 254/254/254 253/253/253
f 246/246/246 255/255/255 248/248/248
f 248/248/248 255/255/255 249/249/249
f 246/246/246 253/253/253 255/255/255
f 249/249/249 256/256/256 250/250/250
f 255/255/255 256/256/256 249/249/249
f 250/250/250 257/257/257 251/251/251
f 256/256/256 257/257/257 250/250/250
f 251/251/251 258/258/258 252/252/252
f 257/257/257 258/258/258 251/251/251
f 258/258/258 259/259/259 252/252/252
f 254/254/254 260/260/260 253/253/253
f 254/254/254 261/261/261 260/260/260
f 253/253/253 262/262/262 255/255/255
f 255/255/255 262/262/262 256/256/256
f 253/253/253 260/260/260 262/262/262
f 256/256/256 263/263/263 257/257/257
f 262/262/262 263/263/263 256/256/256
f 257/257/257 264/264/264 258/258/258
f 263/263/263 264/264/264 257/257/257
f 264/264/264 265/265/265 258/258/258
f 261/261/261 266/266/266 260/260/260
f 261/261/261 267/267/267 266/266/266
f 260/260/260 268/268/268 262/262/262
f 262/262/262 268/268/268 263/263/263
f 260/260/260 266/266/266 268/268/268
f 263/263/263 269/269/269 264/264/264
f 268/268/268 269/269/269 263/263/263
f 269/269/269 270/270/270 264/264/264
f 268/268/268 271/271/271 269/269/269
f 266/266/266 271/271/271 268/268/268
f 271/271/271 272/272/272 269/269/269
f 267/267/267 273/273/273 266/266/266
f 266/266/266 273/273/273 271/271/271
f 273/273/273 274/274/274 271/271/271
f 267/267/267 275/275/275 273/273/273
f 275/275/275 276/276/276 273/273/273
f 277/277/277 279/279/279 278/278/278
f 277/277/277 280/280/280 279/279/279
f 281/281/281 280/280/280 277/277/277
f 280/280/280 282/282/282 279/279/279
f 281/281/281 283/283/283 280/280/280
f 284/284/284 283/283/283 281/281/281
f 280/280/280 285/285/285 282/282/282
f 283/283/283 285/285/285 280/280/280
f 285/285/285 286/286/286 282/282/282
f 284/284/284 287/287/287 283/283/283
f 288/288/288 287/287/287 284/284/284
f 283/283/283 289/289/289 285/285/285
f 287/287/287 289/289/289 283/283/283
f 285/285/285 290/290/290 286/286/286
f 289/289/289 290/290/290 285/285/285
f 290/290/290 291/291/291 286/286/286
f 288/288/288 292/292/292 287/287/287
f 293/293/293 292/292/292 288/288/288
f 287/287/287 294/294/294 289/289/289
f 292/292/292 294/294/294 287/287/287
f 289/289/289 295/295/295 290/290/290
f 294/294/294 295/295/295 289/289/289
f 290/290/290 296/296/296 291/291/291
f 295/295/295 296/296/296 290/290/290
f 296/296/296 297/297/297 291/291/291
f 293/293/293 298/298/298 292/292/292
f 299/299/299 298/298/298 293/293/293
f 299/299/299 300/300/300 298/298/298
f 292/292/292 301/301/301 294/294/294
f 298/298/298 301/301/301 292/292/292
f 300/300/300 302/302/302 298/298/298
f 298/298/298 302/302/302 301/301/301
f 300/300/300 303/303/303 302/302/302
f 294/294/294 304/304/304 295/295/295
f 301/301/301 304/304/304 294/294/294
f 295/295/295 305/305/305 296/296/296
f 304/304/304 305/305/305 295/295/295
f 296/296/296 306/306/306 297/297/297
f 305/305/305 306/306/306 296/296/296
f 306/306/306 307/307/307 297/297/297
f 303/303/303 308/308/308 302/302/302
f 303/303/303 309/309/309 308/308/308
f 302/302/302 310/310/310 301/301/301
f 301/301/301 310/310/310 304/304/304
f 302/302/302 308/308/308 310/310/310
f 304/304/304 311/311/311 305/305/305
f 310/310/310 311/311/311 304/304/304
f 305/305/305 312/312/312 306/306/306
f 311/311/311 312/312/312 305/305/305
f 306/306/306 313/313/313 307/307/307
f 312/312/312 313/313/313 306/306/306
f 313/313/313 314/314/314 307/307/307
f 309/309/309 315/315/315 308/308/308
f 309/309/309 316/316/316 315/315/315
f 308/308/308 317/317/317 310/310/310
f 310/310/310 317/317/317 311/311/311
f 308/308/308 315/315/315 317/317/317
f 311/311/311 318/318/318 312/312/312
f 317/317/317 318/318/318 311/311/311
f 312/312/312 319/319/319 313/313/313
f 318/318/318 319/319/319 312/312/312
f 313/313/313 320/320/320 314/314/314
f 319/319/319 320/320/320 313/313/313
f 320/320/320 321/321/321 314/314/314
f 316/316/316 322/322/322 315/315/315
f 316/316/316 323/323/323 322/322/322
f 315/315/315 324/324/324 317/317/317
f 317/317/317 324/324/324 318/318/318
f 315/315/315 322/322/322 324/324/324
f 318/318/318 325/325/325 319/319/319
f 324/324/324 325/325/325 318/318/318
f 319/319/319 326/326/326 320/320/320
f 325/325/325 326/326/326 319/319/319
f 326/326/326 327/327/327 320/320/320
f 323/323/323 328/328/328 322/322/322
f 323/323/323 329/329/329 328/328/328
f 322/322/322 330/330/330 324/324/324
f 324/324/324 330/330/330 325/325/325
f 322/322/322 328/328/328 330/330/330
f 325/325/325 331/331/331 326/326/326
f 330/330/330 331/331/331 325/325/325
f 331/331/331 332/332/332 326/326/326
f 330/330/330 333/333/333 331/331/331
f 328/328/328 333/333/333 330/330/330
f 333/333/333 334/334/334 331/331/331
f 329/329/329 335/335/335 328/328/328
f 328/328/328 335/335/335 333/333/333
f 335/335/335 336/336/336 333/333/333
f 329/329/329 337/337/337 335/335/335
f 337/337/337 338/338/338 335/335/335
f 339/339/339 341/341/341 340/340/340
f 341/341/341 339/339/339 342/342/342
f 341/341/341 342/342/342 343/343/343
f 343/343/343 342/342/342 344/344/344
f 345/345/345 347/347/347 346/346/346
f 347/347/347 345/345/345 348/348/348
f 348/348/348 345/345/345 349/349/349
f 348/348/348 349/349/349 350/350/350
f 351/351/351 353/353/353 352/352/352
f 351/351/351 354/354/354 353/353/353
f 355/355/355 351/351/351 356/356/356
f 355/355/355 356/356/356 357/357/357
f 355/355/355 358/358/358 351/351/351
f 355/355/355 359/359/359 358/358/358
f 359/359/359 360/360/360 358/358/358
f 359/359/359 361/361/361 360/360/360
f 360/360/360 361/361/361 362/362/362
f 363/363/363 365/365/365 364/364/364
f 363/363/363 366/366/366 365/365/365
f 366/366/366 367/367/367 365/365/365
f 363/363/363 368/368/368 366/366/366
f 363/363/363 369/369/369 368/368/368
f 370/370/370 368/368/368 369/369/369
f 368/368/368 370/370/370 371/371/371
f 371/371/371 370/370/370 372/372/372
f 366/366/366 373/373/373 367/367/367
f 373/373/373 374/374/374 367/367/367
f 366/366/366 368/368/368 375/375/375
f 366/366/366 375/375/375 373/373/373
f 376/376/376 375/375/375 368/368/368
f 375/375/375 376/376/376 377/377/377
f 373/373/373 375/375/375 378/378/378
f 379/379/379 378/378/378 375/375/375
f 375/375/375 377/377/377 379/379/379
f 378/378/378 379/379/379 380/380/380
f 378/378/378 380/380/380 381/381/381
f 378/378/378 381/381/381 382/382/382
f 373/373/373 383/383/383 374/374/374
f 373/373/373 378/378/378 383/383/383
f 383/383/383 384/384/384 374/374/374
f 383/383/383 385/385/385 384/384/384
f 383/383/383 386/386/386 385/385/385
f 383/383/383 378/378/378 386/386/386
f 378/378/378 382/382/382 387/387/387
f 387/387/387 386/386/386 378/378/378
f 388/388/388 387/387/387 382/382/382
f 388/388/388 389/389/389 387/387/387
f 390/390/390 389/389/389 388/388/388
f 390/390/390 391/391/391 389/389/389
f 392/392/392 391/391/391 390/390/390
f 389/389/389 391/391/391 393/393/393
f 387/387/387 389/389/389 393/393/393
f 387/387/387 393/393/393 386/386/386
f 386/386/386 393/393/393 394/394/394
f 386/386/386 394/394/394 395/395/395
f 396/396/396 398/398/398 397/397/397
f 396/396/396 399/399/399 398/398/398
f 400/400/400 402/402/402 401/401/401
f 400/400/400 403/403/403 402/402/402
f 403/403/403 400/400/400 404/404/404
f 403/403/403 405/405/405 402/402/402
f 403/403/403 404/404/404 406/406/406
f 403/403/403 407/407/407 405/405/405
f 407/407/407 403/403/403 406/406/406
f 405/405/405 407/407/407 408/408/408
f 407/407/407 406/406/406 409/409/409
f 410/410/410 409/409/409 406/406/406
f 410/410/410 411/411/411 409/409/409
f 410/410/410 412/412/412 411/411/411
f 410/410/410 413/413/413 412/412/412
f 414/414/414 410/410/410 406/406/406
f 414/414/414 406/406/406 415/415/415
f 416/416/416 413/413/413 410/410/410
f 416/416/416 410/410/410 414/414/414
f 408/408/408 407/407/407 417/417/417
f 408/408/408 417/417/417 418/418/418
f 408/408/408 418/418/418 419/419/419
f 417/417/417 407/407/407 420/420/420
f 418/418/418 417/417/417 420/420/420
f 420/420/420 407/407/407 421/421/421
f 421/421/421 411/411/411 420/420/420
f 422/422/422 420/420/420 411/411/411
f 418/418/418 420/420/420 422/422/422
f 419/419/419 418/418/418 423/423/423
f 423/423/423 418/418/418 422/422/422
f 423/423/423 422/422/422 413/413/413
f 419/419/419 423/423/423 424/424/424
f 423/423/423 425/425/425 424/424/424
f 423/423/423 426/426/426 425/425/425
f 426/426/426 423/423/423 413/413/413
f 426/426/426 427/427/427 425/425/425
f 426/426/426 428/428/428 427/427/427
f 426/426/426 413/413/413 429/429/429
f 428/428/428 426/426/426 429/429/429
f 413/413/413 416/416/416 429/429/429
f 428/428/428 429/429/429 416/416/416
f 416/416/416 414/414/414 430/430/430
f 431/431/431 430/430/430 414/414/414
f 431/431/431 432/432/432 430/430/430
f 433/433/433 432/432/432 431/431/431
f 433/433/433 431/431/431 434/434/434
f 431/431/431 435/435/435 434/434/434
f 431/431/431 436/436/436 435/435/435
f 436/436/436 431/431/431 414/414/414
f 436/436/436 414/414/414 437/437/437
f 438/438/438 440/440/440 439/439/439
f 438/438/438 441/441/441 440/440/440
f 440/440/440 441/441/441 442/442/442
f 442/442/442 441/441/441 443/443/443
f 442/442/442 443/443/443 444/444/444
f 441/441/441 445/445/445 443/443/443
f 444/444/444 443/443/443 446/446/446
f 443/443/443 445/445/445 446/446/446
f 447/447/447 449/449/449 448/448/448
f 449/449/449 447/447/447 450/450/450
f 449/449/449 450/450/450 451/451/451
f 452/452/452 454/454/454 453/453/453
f 452/452/452 455/455/455 454/454/454
f 456/456/456 458/458/458 457/457/457
f 459/459/459 456/456/456 457/457/457
f 459/459/459 460/460/460 456/456/456
f 461/461/461 463/463/463 462/462/462
f 461/461/461 462/462/462 464/464/464
f 465/465/465 461/461/461 464/464/464
f 466/466/466 468/468/468 467/467/467
f 466/466/466 469/469/469 468/468/468
f 468/468/468 469/469/469 470/470/470
f 468/468/468 470/470/470 471/471/471
f 472/472/472 474/474/474 473/473/473
f 472/472/472 475/475/475 474/474/474
f 476/476/476 478/478/478 477/477/477
f 476/476/476 479/479/479 478/478/478
f 480/480/480 482/482/482 481/481/481
f 480/480/480 483/483/483 482/482/482
f 484/484/484 486/486/486 485/485/485
f 484/484/484 485/485/485 487/487/487
f 488/488/488 484/484/484 487/487/487
f 488/488/488 487/487/487 489/489/489
f 490/490/490 488/488/488 489/489/489
f 490/490/490 489/489/489 491/491/491
f 492/492/492 490/490/490 491/491/491
f 492/492/492 491/491/491 493/493/493
f 494/494/494 496/496/496 495/495/495
f 494/494/494 495/495/495 497/497/497
f 497/497/497 498/498/498 494/494/494
f 497/497/497 495/495/495 499/499/499
f 497/497/497 500/500/500 498/498/498
f 500/500/500 501/501/501 498/498/498
f 500/500/500 502/502/502 501/501/501
f 497/497/497 499/499/499 503/503/503
f 503/503/503 500/500/500 497/497/497
f 503/503/503 499/499/499 504/504/504
f 503/503/503 504/504/504 505/505/505
f 506/506/506 502/502/502 500/500/500
f 503/503/503 506/506/506 500/500/500
f 505/505/505 506/506/506 503/503/503
f 506/506/506 507/507/507 502/502/502
f 505/505/505 508/508/508 506/506/506
f 508/508/508 507/507/507 506/506/506
f 508/508/508 509/509/509 507/507/507
f 510/510/510 512/512/512 511/511/511
f 510/510/510 511/511/511 513/513/513
f 514/514/514 510/510/510 513/513/513
f 514/514/514 513/513/513 515/515/515
f 516/516/516 514/514/514 515/515/515
f 516/516/516 515/515/515 517/517/517
f 518/518/518 520/520/520 519/519/519
f 518/518/518 521/521/521 520/520/520
f 522/522/522 524/524/524 523/523/523
f 522/522/522 523/523/523 525/525/525
f 525/525/525 526/526/526 522/522/522
f 525/525/525 523/523/523 527/527/527
f 525/525/525 528/528/528 526/526/526
f 528/528/528 529/529/529 526/526/526
f 528/528/528 530/530/530 529/529/529
f 525/525/525 527/527/527 531/531/531
f 531/531/531 528/528/528 525/525/525
f 531/531/531 527/527/527 532/532/532
f 531/531/531 532/532/532 533/533/533
f 534/534/534 530/530/530 528/528/528
f 531/531/531 534/534/534 528/528/528
f 533/533/533 534/534/534 531/531/531
f 534/534/534 535/535/535 530/530/530
f 533/533/533 536/536/536 534/534/534
f 536/536/536 535/535/535 534/534/534
f 536/536/536 537/537/537 535/535/535
f 538/538/538 540/540/540 539/539/539
f 538/538/538 539/539/539 541/541/541
f 542/542/542 538/538/538 541/541/541
f 542/542/542 541/541/541 543/543/543
f 544/544/544 542/542/542 543/543/543
f 544/544/544 543/543/543 545/545/545
f 546/546/546 544/544/544 545/545/545
f 546/546/546 545/545/545 547/547/547
f 548/548/548 550/550/550 549/549/549
f 548/548/548 549/549/549 551/551/551
f 551/551/551 549/549/549 552/552/552
f 551/551/551 553/553/553 548/548/548
f 551/551/551 552/552/552 554/554/554
f 551/551/551 555/555/555 553/553/553
f 554/554/554 555/555/555 551/551/551
f 555/555/555 556/556/556 553/553/553
f 555/555/555 557/557/557 556/556/556
f 554/554/554 558/558/558 555/555/555
f 559/559/559 558/558/558 554/554/554
f 559/559/559 560/560/560 558/558/558
f 561/561/561 562/562/562 555/555/555
f 561/561/561 563/563/563 562/562/562
f 560/560/560 563/563/563 561/561/561
f 560/560/560 564/564/564 563/563/563
f 565/565/565 567/567/567 566/566/566
f 565/565/565 568/568/568 567/567/567
f 569/569/569 571/571/571 570/570/570
f 569/569/569 572/572/572 571/571/571
f 572/572/572 573/573/573 571/571/571
f 572/572/572 574/574/574 573/573/573
f 575/575/575 577/577/577 576/576/576
f 575/575/575 576/576/576 578/578/578
f 578/578/578 579/579/579 575/575/575
f 578/578/578 576/576/576 580/580/580
f 578/578/578 581/581/581 579/579/579
f 581/581/581 582/582/582 579/579/579
f 581/581/581 583/583/583 582/582/582
f 578/578/578 580/580/580 584/584/584
f 584/584/584 581/581/581 578/578/578
f 584/584/584 580/580/580 585/585/585
f 584/584/584 585/585/585 586/586/586
f 587/587/587 583/583/583 581/581/581
f 584/584/584 587/587/587 581/581/581
f 586/586/586 587/587/587 584/584/584
f 587/587/587 588/588/588 583/583/583
f 586/586/586 589/589/589 587/587/587
f 589/589/589 588/588/588 587/587/587
f 589/589/589 590/590/590 588/588/588
f 591/591/591 593/593/593 592/592/592
f 591/591/591 594/594/594 593/593/593
f 594/594/594 595/595/595 593/593/593
f 594/594/594 596/596/596 595/595/595
f 597/597/597 599/599/599 598/598/598
f 597/597/597 598/598/598 600/600/600
f 600/600/600 601/601/601 597/597/597
f 600/600/600 598/598/598 602/602/602
f 600/600/600 603/603/603 601/601/601
f 603/603/603 604/604/604 601/601/601
f 603/603/603 605/605/605 604/604/604
f 600/600/600 602/602/602 606/606/606
f 606/606/606 603/603/603 600/600/600
f 606/606/606 602/602/602 607/607/607
f 606/606/606 607/607/607 608/608/608
f 609/609/609 605/605/605 603/603/603
f 606/606/606 609/609/609 603/603/603
f 608/608/608 609/609/609 606/606/606
f 609/609/609 610/610/610 605/605/605
f 608/608/608 611/611/611 609/609/609
f 611/611/611 610/610/610 609/609/609
f 611/611/611 612/612/612 610/610/610
f 613/613/613 615/615/615 614/614/614
f 613/613/613 614/614/614 616/616/616
f 617/617/617 613/613/613 616/616/616
f 617/617/617 616/616/616 618/618/618
f 619/619/619 621/621/621 620/620/620
f 619/619/619 620/620/620 622/622/622
f 623/623/623 619/619/619 622/622/622
f 622/622/622 620/620/620 624/624/624
f 623/623/623 622/622/622 625/625/625
f 625/625/625 626/626/626 623/623/623
f 625/625/625 627/627/627 626/626/626
f 622/622/622 624/624/624 628/628/628
f 625/625/625 622/622/622 628/628/628
f 628/628/628 624/624/624 629/629/629
f 628/628/628 629/629/629 630/630/630
f 631/631/631 627/627/627 625/625/625
f 625/625/625 628/628/628 631/631/631
f 631/631/631 628/628/628 630/630/630
f 631/631/631 632/632/632 627/627/627
f 631/631/631 630/630/630 633/633/633
f 633/633/633 632/632/632 631/631/631
f 633/633/633 634/634/634 632/632/632
f 635/635/635 637/637/637 636/636/636
f 635/635/635 638/638/638 637/637/637
f 638/638/638 639/639/639 637/637/637
f 638/638/638 640/640/640 639/639/639
f 640/640/640 641/641/641 639/639/639
f 640/640/640 642/642/642 641/641/641
f 643/643/643 645/645/645 644/644/644
f 643/643/643 646/646/646 645/645/645
f 647/647/647 649/649/649 648/648/648
f 647/647/647 650/650/650 649/649/649
f 650/650/650 651/651/651 649/649/649
f 650/650/650 652/652/652 651/651/651
