mtllib P_BananaTree01.mtl
v -0.03958039 -0.2561016 0.07190045 1 1 1
v -0.08244329 -0.2535272 -0.003231891 1 1 1
v 0.02101818 0.9692353 0.001058234 1 1 1
v 0.04559907 0.9703248 0.04395597 1 1 1
v 0.06033748 1.473561 -0.02954943 1 1 1
v 0.04682926 -0.2607869 0.07228018 1 1 1
v 0.09504779 0.9696825 0.04414287 1 1 1
v 0.06033748 1.473561 -0.02954943 1 1 1
v 0.09037601 -0.2628978 -0.002472413 1 1 1
v 0.1199156 0.9679506 0.001432028 1 1 1
v 0.06033748 1.473561 -0.02954943 1 1 1
v 0.0475131 -0.2603233 -0.07760476 1 1 1
v 0.09533472 0.9668612 -0.04146571 1 1 1
v 0.06033748 1.473561 -0.02954943 1 1 1
v -0.03889655 -0.255638 -0.0779845 1 1 1
v 0.04588601 0.9675035 -0.0416526 1 1 1
v 0.06033748 1.473561 -0.02954943 1 1 1
v -0.08244329 -0.2535272 -0.003231891 1 1 1
v 0.02101818 0.9692353 0.001058234 1 1 1
v 0.06033748 1.473561 -0.02954943 1 1 1
v -0.3447916 1.581717 0.1306252 0.4745098 0.4745098 0.4745098
v -0.5111393 1.522745 0.07471638 0.4784314 0.4784314 0.4784314
v -0.3929068 1.378612 -0.01315149 0.3882353 0.3882353 0.3882353
v -0.2270971 1.411115 0.03984331 0.3803922 0.3803922 0.3803922
v -0.1372819 1.150977 -0.07557429 0.2627451 0.2627451 0.2627451
v -0.1954713 1.600228 0.237307 0.4666667 0.4666667 0.4666667
v 0.02815033 1.129089 0.05601058 0.2509804 0.2509804 0.2509804
v 0.0320645 0.8274391 -0.02906255 0.1333333 0.1333333 0.1333333
v -0.08100736 1.413967 0.1382728 0.372549 0.372549 0.372549
v 0.07153041 0.818499 0.01855759 0.1294118 0.1294118 0.1294118
v -0.005308814 0.5074186 -0.03304939 0.007843138 0.007843138 0.007843138
v 0.03386717 0.5045595 0.01160731 0.007843138 0.007843138 0.007843138
v 0.06613876 0.5033412 0.05912071 0.007843138 0.007843138 0.007843138
v 0.1005106 0.8213152 0.06526452 0.1294118 0.1294118 0.1294118
v 0.09563972 1.139779 0.2109092 0.2588235 0.2588235 0.2588235
v -0.008495978 1.364402 0.4385453 0.3882353 0.3882353 0.3882353
v -0.1551148 1.505661 0.5614464 0.4980392 0.4980392 0.4980392
v -0.2267075 1.639439 0.2637118 0.4862745 0.4862745 0.4862745
v -0.5007823 1.519775 0.1342355 0.4901961 0.4901961 0.4901961
v -0.5376882 1.554643 0.1377103 0.509804 0.509804 0.509804
v -0.4357601 1.828406 0.4456706 0.6156863 0.6156863 0.6156863
v -0.1363607 1.562475 0.6068417 0.509804 0.509804 0.509804
v -0.7674188 1.698238 0.2601831 0.6470588 0.6470588 0.6470588
v -0.3295438 1.709231 0.768367 0.6352941 0.6352941 0.6352941
v -0.4769643 1.854173 0.4844939 0.6392157 0.6392157 0.6392157
v -0.7947739 1.713223 0.2996082 0.6705883 0.6705883 0.6705883
v -0.3676876 1.730711 0.7959488 0.6588235 0.6588235 0.6588235
v -0.6562288 1.927567 0.6502991 0.7372549 0.7372549 0.7372549
v -0.5606737 1.78557 0.8976384 0.7568628 0.7568628 0.7568628
v -0.7359509 1.802678 0.3272352 0.6784314 0.6784314 0.6784314
v -0.6691776 1.790037 0.9129165 0.8 0.8 0.8
v -0.8738636 1.831963 0.5115941 0.7647059 0.7647059 0.7647059
v -0.7463711 1.942665 0.7151269 0.7803922 0.7803922 0.7803922
v -1.05889 1.861955 0.7415004 0.8823529 0.8823529 0.8823529
v -0.9088055 1.945351 0.8380043 0.8588235 0.8588235 0.8588235
v -0.6235146 1.850002 0.9274729 0.8078431 0.8078431 0.8078431
v -0.7857317 1.83878 1.06072 0.8745098 0.8745098 0.8745098
v -1.08398 1.861233 1.106052 0.9764706 0.9764706 0.9764706
v -1.163163 1.885801 1.014427 0.9764706 0.9764706 0.9764706
v -1.227703 1.881601 0.9256729 0.9764706 0.9764706 0.9764706
v -0.08759069 1.752077 -0.7489758 0.5137255 0.5137255 0.5137255
v -0.02409824 1.801 -0.8827006 0.5843138 0.5843138 0.5843138
v 0.2726195 1.856545 -0.7657499 0.5686275 0.5686275 0.5686275
v 0.2196436 1.792585 -0.5877079 0.4862745 0.4862745 0.4862745
v -0.0967742 1.716019 -0.6876832 0.4823529 0.4823529 0.4823529
v 0.1958265 1.75103 -0.5131548 0.4509804 0.4509804 0.4509804
v 0.5095447 1.735127 -0.578244 0.5019608 0.5019608 0.5019608
v 0.5572188 1.786262 -0.8855541 0.6470588 0.6470588 0.6470588
v 0.4462967 1.618065 -0.3771045 0.3921569 0.3921569 0.3921569
v 0.3116006 1.881402 -0.8963714 0.627451 0.627451 0.627451
v -0.02207933 1.764652 -0.9263772 0.5921569 0.5921569 0.5921569
v 0.02860657 1.77664 -1.04544 0.6509804 0.6509804 0.6509804
v 0.3790658 1.88598 -1.126645 0.7254902 0.7254902 0.7254902
v 0.6489725 1.800873 -1.083783 0.7490196 0.7490196 0.7490196
v 0.4569765 1.806131 -1.390671 0.8470588 0.8470588 0.8470588
v 0.08495311 1.783421 -1.256614 0.7490196 0.7490196 0.7490196
v 0.6457396 1.718781 -1.347759 0.8666667 0.8666667 0.8666667
v 0.2236492 1.742783 -1.484504 0.8666667 0.8666667 0.8666667
v 0.582575 1.663926 -1.609881 0.9647059 0.9647059 0.9647059
v 0.4776258 1.664022 -1.646147 0.9647059 0.9647059 0.9647059
v 0.5456421 1.666145 -1.624494 0.9647059 0.9647059 0.9647059
v -0.09211531 1.567438 -0.5123976 0.3921569 0.3921569 0.3921569
v -0.07991264 1.684195 -0.6418003 0.4705882 0.4705882 0.4705882
v 0.1475365 1.633286 -0.3586122 0.3686275 0.3686275 0.3686275
v -0.06177227 1.41538 -0.2458292 0.2588235 0.2588235 0.2588235
v 0.3291863 1.426044 -0.1757063 0.2666667 0.2666667 0.2666667
v 0.1005571 1.414375 -0.1774511 0.2509804 0.2509804 0.2509804
v 0.1169984 1.153295 -0.05192946 0.1333333 0.1333333 0.1333333
v 0.05009013 1.149752 -0.06959418 0.1333333 0.1333333 0.1333333
v 0.08230056 1.151779 -0.06000568 0.1333333 0.1333333 0.1333333
v 0.1091489 0.8685538 -0.01053453 0.01568628 0.01568628 0.01568628
v 0.07321582 0.8663701 -0.01974301 0.01568628 0.01568628 0.01568628
v 0.04249289 0.8644626 -0.02972866 0.01568628 0.01568628 0.01568628
v -0.4347126 2.136588 -0.1530417 0.6 0.6 0.6
v -0.4856073 2.209706 -0.1952982 0.6509804 0.6509804 0.6509804
v -0.4182048 2.239444 -0.2084032 0.6431373 0.6431373 0.6431373
v -0.3622943 2.167241 -0.167568 0.5960785 0.5960785 0.5960785
v -0.3409314 2.255635 -0.2544753 0.6352941 0.6352941 0.6352941
v -0.2863054 2.182527 -0.2155065 0.5882353 0.5882353 0.5882353
v -0.1918826 2.171517 -0.4520608 0.6078432 0.6078432 0.6078432
v -0.1769386 2.147855 -0.4403806 0.5921569 0.5921569 0.5921569
v -0.2665787 2.236681 -0.489055 0.6627451 0.6627451 0.6627451
v -0.2732323 2.16639 -0.2054724 0.5764706 0.5764706 0.5764706
v -0.1101547 1.966079 -0.3680692 0.4901961 0.4901961 0.4901961
v -0.3529895 2.272554 -0.2673669 0.6470588 0.6470588 0.6470588
v -0.1577527 1.989662 -0.1414212 0.4745098 0.4745098 0.4745098
v -0.4396806 2.390768 -0.3573334 0.7294118 0.7294118 0.7294118
v -0.5205208 2.226972 -0.1940027 0.6666667 0.6666667 0.6666667
v -0.3721724 2.359846 -0.5749211 0.7529412 0.7529412 0.7529412
v -0.5983643 2.536305 -0.4893952 0.8509804 0.8509804 0.8509804
v -0.5988259 2.345782 -0.2664363 0.7450981 0.7450981 0.7450981
v -0.5425348 2.519461 -0.652346 0.8745098 0.8745098 0.8745098
v -0.735665 2.507142 -0.3990917 0.8666667 0.8666667 0.8666667
v -0.7406843 2.644172 -0.6768705 0.9686275 0.9686275 0.9686275
v -0.8040341 2.64379 -0.5974674 0.9686275 0.9686275 0.9686275
v -0.7760566 2.647976 -0.6299411 0.9686275 0.9686275 0.9686275
v -0.3398291 1.965679 -0.04439912 0.4901961 0.4901961 0.4901961
v -0.4318891 2.13063 -0.1112266 0.5882353 0.5882353 0.5882353
v -0.2358079 1.798786 0.008469612 0.3921569 0.3921569 0.3921569
v -0.06800961 1.796569 -0.08542801 0.372549 0.372549 0.372549
v -0.1184019 1.574418 0.04659335 0.2666667 0.2666667 0.2666667
v -0.008928017 1.804265 -0.2840067 0.3882353 0.3882353 0.3882353
v -0.07478024 1.963186 -0.3562516 0.4823529 0.4823529 0.4823529
v 0.06156536 1.577121 -0.1771249 0.2627451 0.2627451 0.2627451
v 0.01302791 1.560027 -0.04704697 0.2509804 0.2509804 0.2509804
v 0.07310665 1.313218 -0.0453913 0.1333333 0.1333333 0.1333333
v 0.03200709 1.311502 0.008722513 0.1333333 0.1333333 0.1333333
v 0.05512029 1.312652 -0.01846547 0.1333333 0.1333333 0.1333333
v 0.08235972 1.061237 -0.03482183 0.01568628 0.01568628 0.01568628
v 0.06245394 1.060179 -0.007223321 0.01568628 0.01568628 0.01568628
v 0.0394718 1.059225 0.01787542 0.01568628 0.01568628 0.01568628
v 0.05531526 0.9648479 -0.03364496 0.02352941 0.02352941 0.02352941
v 0.07488196 0.9648538 -0.05362811 0.02352941 0.02352941 0.02352941
v 0.07259738 1.267178 -0.03928017 0.1411765 0.1411765 0.1411765
v 0.05296056 1.267211 -0.01755741 0.1411765 0.1411765 0.1411765
v 0.03864275 0.9649512 -0.01360356 0.02352941 0.02352941 0.02352941
v 0.0379154 1.267021 0.002051306 0.1411765 0.1411765 0.1411765
v 0.09314177 1.564205 0.02315401 0.2588235 0.2588235 0.2588235
v 0.1849981 1.574916 -0.05147792 0.2666667 0.2666667 0.2666667
v 0.03048918 1.576673 0.1649527 0.2705882 0.2705882 0.2705882
v 0.1722919 1.848362 0.08999101 0.3764706 0.3764706 0.3764706
v 0.4287825 1.835046 -0.02747407 0.3921569 0.3921569 0.3921569
v 0.1030195 1.851134 0.294645 0.3921569 0.3921569 0.3921569
v 0.2828995 2.113548 0.1892745 0.4941176 0.4941176 0.4941176
v 0.2102118 2.097397 0.3946839 0.5058824 0.5058824 0.5058824
v 0.5108814 2.094099 0.07400309 0.509804 0.509804 0.509804
v 0.3348109 2.228777 0.259135 0.5529412 0.5529412 0.5529412
v 0.2742648 2.210197 0.4584842 0.5686275 0.5686275 0.5686275
v 0.3490826 2.225472 0.2368429 0.5490196 0.5490196 0.5490196
v 0.3749944 2.265001 0.2559179 0.5686275 0.5686275 0.5686275
v 0.3612046 2.267255 0.2771548 0.5686275 0.5686275 0.5686275
v 0.6572288 2.305966 0.1924654 0.627451 0.627451 0.627451
v 0.4348889 2.349271 0.300116 0.6117647 0.6117647 0.6117647
v 0.3150731 2.225757 0.4701601 0.5843138 0.5843138 0.5843138
v 0.3636283 2.30682 0.5233783 0.6313726 0.6313726 0.6313726
v 0.6051348 2.55293 0.4453699 0.7294118 0.7294118 0.7294118
v 0.8405381 2.491063 0.3398054 0.7490196 0.7490196 0.7490196
v 0.7924405 2.718325 0.6158176 0.8509804 0.8509804 0.8509804
v 0.5118689 2.51463 0.6722377 0.7450981 0.7450981 0.7450981
v 0.9828697 2.670317 0.5171191 0.8705882 0.8705882 0.8705882
v 0.7123433 2.69319 0.8082236 0.8705882 0.8705882 0.8705882
v 1.038167 2.834087 0.7602184 0.9686275 0.9686275 0.9686275
v 0.9326267 2.830401 0.878006 0.9686275 0.9686275 0.9686275
v 1.001612 2.840789 0.7968562 0.9686275 0.9686275 0.9686275
v 0.8767747 1.659741 -0.1611729 0.6901961 0.6901961 0.6901961
v 1.039056 1.69518 -0.1337617 0.7764706 0.7764706 0.7764706
v 1.00244 1.755067 -0.03121576 0.7686275 0.7686275 0.7686275
v 0.7842054 1.719244 -0.02346486 0.6627451 0.6627451 0.6627451
v 0.9423123 1.787217 0.1708228 0.7568628 0.7568628 0.7568628
v 1.088617 1.785009 0.05072718 0.8196079 0.8196079 0.8196079
v 1.126243 1.698631 -0.08172217 0.827451 0.827451 0.827451
v 1.042072 1.689732 -0.1006216 0.7843137 0.7843137 0.7843137
v 0.7291741 1.730151 0.120374 0.6509804 0.6509804 0.6509804
v 0.9390694 1.734001 0.3128035 0.7647059 0.7647059 0.7647059
v 1.044521 1.796677 0.2007531 0.8078431 0.8078431 0.8078431
v 1.167558 1.793195 0.2368831 0.8705882 0.8705882 0.8705882
v 1.264303 1.704264 -0.08279349 0.8980392 0.8980392 0.8980392
v 1.146452 1.706614 -0.1095614 0.8352941 0.8352941 0.8352941
v 1.43745 1.726787 0.08140112 0.9921569 0.9921569 0.9921569
v 1.41216 1.744091 0.2726069 0.9921569 0.9921569 0.9921569
v 1.379434 1.710258 0.4040353 0.9921569 0.9921569 0.9921569
v 1.154571 1.674902 0.4686006 0.8941177 0.8941177 0.8941177
v 0.9560035 1.639085 0.4531348 0.772549 0.772549 0.772549
v 0.7684415 1.583482 0.4390763 0.6627451 0.6627451 0.6627451
v 0.7111529 1.662386 0.3598467 0.6470588 0.6470588 0.6470588
v 0.6868066 1.712368 0.1102721 0.627451 0.627451 0.627451
v 0.7452871 1.684775 -0.04594591 0.6392157 0.6392157 0.6392157
v 0.861614 1.623694 -0.1650128 0.6784314 0.6784314 0.6784314
v 0.8173949 1.607039 -0.172385 0.6509804 0.6509804 0.6509804
v 0.6302244 1.49119 -0.2268144 0.5254902 0.5254902 0.5254902
v 0.5319479 1.559431 -0.0944194 0.5137255 0.5137255 0.5137255
v 0.4133806 1.376588 -0.2037646 0.4 0.4 0.4
v 0.2969061 1.40523 0.03330846 0.3843137 0.3843137 0.3843137
v 0.1809149 1.191691 -0.04132469 0.2666667 0.2666667 0.2666667
v 0.464645 1.574867 0.07189713 0.5019608 0.5019608 0.5019608
v 0.4797282 1.566314 0.2538284 0.5137255 0.5137255 0.5137255
v 0.5315412 1.500986 0.4138795 0.5254902 0.5254902 0.5254902
v 0.739575 1.596159 0.4611863 0.654902 0.654902 0.654902
v 0.4667571 1.56529 0.2365634 0.5058824 0.5058824 0.5058824
v 0.3122486 1.391394 0.2620478 0.3960784 0.3960784 0.3960784
v 0.4971109 1.519533 0.3626551 0.5176471 0.5176471 0.5176471
v 0.1601619 1.192429 0.1026795 0.2666667 0.2666667 0.2666667
v 0.164557 1.189955 0.02280459 0.2627451 0.2627451 0.2627451
v 0.1057122 0.9511245 -0.05328204 0.145098 0.145098 0.145098
v 0.08416025 0.9520181 0.09063247 0.1411765 0.1411765 0.1411765
v 0.08994769 0.9485706 0.01023871 0.1411765 0.1411765 0.1411765
v 0.09303223 0.6999025 -0.06408049 0.02352941 0.02352941 0.02352941
v 0.06810236 0.7003825 0.07940235 0.01960784 0.01960784 0.01960784
v 0.07716372 0.6959468 -0.003433225 0.01960784 0.01960784 0.01960784
vn -0.5016828 0.05453672 0.8633308
vn -0.9964285 0.08430874 -0.004726292
vn -0.9966913 0.08114816 0.004630064
vn -0.487722 0.09617847 0.8676848
vn -0.01970647 0.9979659 -0.06062752
vn 0.4966697 0.0003890553 0.8679396
vn 0.5013589 0.07839505 0.8616806
vn -0.01970647 0.9979659 -0.06062752
vn 0.9997028 -0.02399266 0.004334742
vn 0.9988919 0.04554337 0.01186703
vn -0.01970647 0.9979659 -0.06062752
vn 0.5041894 0.005797311 -0.8635737
vn 0.5161204 0.02976907 -0.8559985
vn -0.01970647 0.9979659 -0.06062752
vn -0.4936493 0.05995283 -0.867592
vn -0.4902177 0.04755319 -0.8703018
vn -0.01970647 0.9979659 -0.06062752
vn -0.9964285 0.08430874 -0.004726292
vn -0.9966913 0.08114816 0.004630064
vn -0.01970647 0.9979659 -0.06062752
vn 0.2486356 0.5988324 -0.7613016
vn 0.07642701 0.5639641 -0.8222551
vn 0.1463449 0.518766 -0.8422974
vn 0.3394614 0.527761 -0.7786105
vn 0.5424682 0.406779 -0.7350232
vn 0.6084886 0.6906046 -0.3909051
vn 0.7524961 0.3224443 -0.5742643
vn 0.7517343 0.07972977 -0.6546286
vn 0.6920179 0.5474346 -0.4705599
vn 0.8119161 0.04171513 -0.5822818
vn 0.7488474 -0.07574509 -0.6583998
vn 0.7853577 -0.08063095 -0.6137687
vn 0.8259585 -0.08584048 -0.557157
vn 0.8562642 0.07263743 -0.5114053
vn 0.8679106 0.3807654 -0.3189808
vn 0.8050776 0.592432 -0.0295724
vn 0.7423087 0.6624267 0.10084
vn 0.4801247 0.767633 -0.4245231
vn 0.2498149 0.387821 -0.8872358
vn 0.1510559 0.6171588 -0.7722028
vn 0.3711937 0.8711625 -0.3213895
vn 0.6533421 0.7562903 0.03419334
vn -0.02893486 0.8273419 -0.560953
vn 0.5979869 0.7950241 0.1017261
vn 0.3094256 0.9328557 -0.1844887
vn -0.1408579 0.8890327 -0.4356374
vn 0.5038885 0.8409702 0.1971436
vn 0.189751 0.9817277 -0.01432635
vn 0.274505 0.875897 0.3968013
vn -0.09559232 0.9361662 -0.3383121
vn 0.1761496 0.8684267 0.463472
vn -0.2222626 0.918026 -0.328371
vn 0.0799822 0.9967904 -0.003419211
vn -0.2727682 0.9252771 -0.2635522
vn -0.0745341 0.9971591 0.01087394
vn 0.2134567 0.9272763 0.3075629
vn 0.1682486 0.9221652 0.348287
vn 0.03571254 0.9466094 0.3203985
vn -0.08074991 0.9943627 0.06871887
vn 0.03598681 0.9966581 -0.07333285
vn -0.299539 0.8951947 0.3300043
vn -0.2623328 0.9397407 0.2192467
vn -0.009664274 0.9708239 0.2395983
vn -0.07091663 0.9122501 0.4034484
vn -0.3384112 0.8369711 0.4300666
vn -0.139823 0.8433331 0.5188823
vn 0.2125081 0.8936445 0.3952716
vn 0.3126751 0.9307449 0.1896003
vn 0.1089572 0.7739359 0.6238201
vn 0.01080832 0.9940773 0.1081365
vn -0.3290706 0.9441963 -0.01435141
vn -0.3175463 0.9467915 -0.05244271
vn 0.0362611 0.9945968 -0.097275
vn 0.3338872 0.9422082 -0.02762412
vn 0.1544837 0.9284469 -0.3378182
vn -0.2377861 0.9544585 -0.1801849
vn 0.4546633 0.8465755 -0.2767511
vn -0.1103309 0.9291286 -0.3529123
vn 0.3086086 0.8689535 -0.3868855
vn 0.05926661 0.874391 -0.4815889
vn 0.1754711 0.8725824 -0.4558618
vn -0.4739356 0.7206562 0.5060037
vn -0.4370767 0.6878936 0.5794535
vn -0.2147523 0.7579021 0.616008
vn -0.3869778 0.6066154 0.6944538
vn 0.00430316 0.6017052 0.7987066
vn -0.1873242 0.5333313 0.8249045
vn -0.1931076 0.3077134 0.9316769
vn -0.300974 0.2926332 0.9076235
vn -0.2598512 0.279687 0.9242579
vn -0.2520494 0.1432755 0.9570492
vn -0.2840928 0.1414396 0.948307
vn -0.3139076 0.1395915 0.9391359
vn -0.03177191 0.4776588 0.8779707
vn -0.04063248 0.4786068 0.8770886
vn 0.1175018 0.5594802 0.8204725
vn 0.1609971 0.5706676 0.8052443
vn 0.5909709 0.6944343 0.4105049
vn 0.6047213 0.6869929 0.4029304
vn 0.6938286 0.6877369 0.2135879
vn 0.7951529 0.5326465 0.2898612
vn 0.6720053 0.7273011 0.1394344
vn 0.6553792 0.6066617 0.4499331
vn 0.8366992 0.5002578 0.2228822
vn 0.5835081 0.7149185 0.38524
vn 0.6521942 0.5412772 0.5307181
vn 0.4716354 0.7659694 0.436865
vn 0.1996393 0.6407241 0.7413615
vn 0.6718333 0.7317436 0.1148538
vn 0.4114288 0.8367158 0.3614319
vn 0.2218006 0.6863824 0.6925921
vn 0.5883373 0.799827 0.1188952
vn 0.2157905 0.7844535 0.5814356
vn 0.4362844 0.8823358 0.1764635
vn 0.2433191 0.8786489 0.4108185
vn 0.3350104 0.8967976 0.2890017
vn 0.3556736 0.4982891 0.7906986
vn 0.3500193 0.5129074 0.7838447
vn 0.4259666 0.4251429 0.7986276
vn 0.7013084 0.4288995 0.5693961
vn 0.5477952 0.3013007 0.7804731
vn 0.8546928 0.4428028 0.2709721
vn 0.8413133 0.4699963 0.2670121
vn 0.8818603 0.3225394 0.3439341
vn 0.7610232 0.2808491 0.5847799
vn 0.8375449 0.1401242 0.5280943
vn 0.7287995 0.1369978 0.6708823
vn 0.7895213 0.1270815 0.6004218
vn 0.8108284 0.04991062 0.5831521
vn 0.7737668 0.04816879 0.6316366
vn 0.7358527 0.04628349 0.6755581
vn -0.7419384 0.02799696 -0.6698834
vn -0.7142412 0.02779294 -0.6993476
vn -0.7263712 0.1162045 -0.6774079
vn -0.7637231 0.1093413 -0.6362166
vn -0.7696703 0.02811537 -0.6378222
vn -0.8051301 0.1198611 -0.5808604
vn -0.7670749 0.2662107 -0.5837191
vn -0.5630823 0.3136035 -0.7645857
vn -0.8746485 0.2953579 -0.3843875
vn -0.6640463 0.4424131 -0.6027546
vn -0.3618091 0.4350961 -0.8244911
vn -0.8563994 0.4281355 -0.2885826
vn -0.6338093 0.5243556 -0.5686272
vn -0.8246149 0.5148699 -0.2343483
vn -0.3301378 0.5154389 -0.7907793
vn -0.7051829 0.5915583 -0.3908655
vn -0.8031161 0.5642672 -0.1913299
vn -0.4839711 0.5943156 -0.6423091
vn -0.4510467 0.6329966 -0.6291838
vn -0.6688503 0.6744173 -0.3127308
vn -0.2120932 0.6480987 -0.7314264
vn -0.5283271 0.7063064 -0.4711707
vn -0.7880163 0.6046121 -0.1160808
vn -0.7625694 0.6308548 -0.1432128
vn -0.4347534 0.7843468 -0.4424811
vn -0.1215506 0.72979 -0.6727793
vn -0.3462561 0.8581733 -0.3790058
vn -0.6629033 0.7323039 -0.1558534
vn -0.112725 0.7904991 -0.6020002
vn -0.5539849 0.8233824 -0.1230538
vn -0.1613476 0.8856485 -0.4354236
vn -0.4168457 0.8948495 -0.1596376
vn -0.2872353 0.9140328 -0.286426
vn -0.1368768 0.8572186 -0.4964283
vn -0.09535442 0.8443922 -0.5271711
vn -0.05379736 0.9088395 -0.4136623
vn -0.2970352 0.8780408 -0.3752526
vn -0.2056067 0.9750317 0.08389995
vn 0.09647999 0.9659052 -0.240247
vn 0.1277727 0.8022178 -0.5831988
vn 0.06984313 0.7459551 -0.6623239
vn -0.3247035 0.9452265 0.03338586
vn -0.1950435 0.8735193 0.4460068
vn -0.07008572 0.9849274 0.1581331
vn 0.06462017 0.9850098 0.159937
vn 0.1515803 0.9471045 -0.2828718
vn 0.1099555 0.9079508 -0.4043948
vn 0.1441143 0.9754575 -0.1664738
vn 0.1803607 0.9775653 0.1087943
vn 0.07266556 0.9270349 0.3678668
vn -0.07667592 0.8732952 0.4811197
vn -0.2306884 0.7928327 0.5640915
vn -0.1442443 0.7268369 0.6714922
vn -0.3341905 0.8175845 0.4689056
vn -0.4481721 0.8929098 -0.04305572
vn -0.3679085 0.7890177 -0.4920309
vn -0.2116569 0.7700678 -0.6018281
vn -0.2368712 0.7615364 -0.6032863
vn -0.3421794 0.7040076 -0.6223236
vn -0.4773529 0.7478976 -0.4612845
vn -0.6164727 0.6293285 -0.4731882
vn -0.7613354 0.6267079 -0.1661498
vn -0.8556894 0.4442268 -0.2654396
vn -0.6116032 0.7822597 -0.1183693
vn -0.5114929 0.8191501 0.2595537
vn -0.4943653 0.7154307 0.4937224
vn -0.4449976 0.6873733 0.5740166
vn -0.70619 0.6745084 0.2152537
vn -0.7592365 0.6336904 0.1483125
vn -0.6585618 0.6425462 0.3917023
vn -0.894725 0.4457509 -0.02780696
vn -0.9006671 0.4116746 -0.1390061
vn -0.9556497 0.1831155 -0.2306565
vn -0.9788079 0.1899059 -0.07662115
vn -0.9715919 0.1779381 -0.1560358
vn -0.9670021 0.06186829 -0.2471424
vn -0.9928162 0.05826405 -0.1045051
vn -0.9814197 0.05953614 -0.1824031
vt 0.8333335 0.6187382
vt 1 0.6187382
vt 1 0.7984479
vt 0.8333336 0.7984479
vt 1 0.9781575
vt 0.6666669 0.6187382
vt 0.6666669 0.7984479
vt 0.8333336 0.9781575
vt 0.5000002 0.6187382
vt 0.5000002 0.7984479
vt 0.6666669 0.9781575
vt 0.3333335 0.6187382
vt 0.3333336 0.7984479
vt 0.5000003 0.9781575
vt 0.1666669 0.6187382
vt 0.1666669 0.7984479
vt 0.3333336 0.9781575
vt 1.788139E-07 0.6187382
vt 2.384186E-07 0.7984479
vt 0.166667 0.9781575
vt 0.1455901 0.4704232
vt 0.194105 0.4775558
vt 0.19022 0.3883612
vt 0.143988 0.3799257
vt 0.1484278 0.2624855
vt 0.09707517 0.4632906
vt 0.09506534 0.25054
vt 0.1089052 0.1322531
vt 0.09775586 0.3714902
vt 0.09327164 0.1295896
vt 0.112727 0.008639309
vt 0.09775586 0.00863931
vt 0.08329494 0.00863931
vt 0.07947406 0.1314788
vt 0.05285101 0.2615474
vt 0.0120092 0.3899281
vt 0.004812359 0.5005114
vt 0.09691472 0.4849284
vt 0.1946146 0.4892556
vt 0.1955045 0.5096856
vt 0.09416849 0.6133907
vt 0.004432952 0.5093613
vt 0.1990991 0.6449432
vt 0.002336244 0.6361015
vt 0.09293901 0.6370779
vt 0.1964747 0.668526
vt 0.003077975 0.6585448
vt 0.08789057 0.7343411
vt 0.006306916 0.7562461
vt 0.1876955 0.6748081
vt 0.01089844 0.8001707
vt 0.1862279 0.7606028
vt 0.08852771 0.7773038
vt 0.1639948 0.8806227
vt 0.08968429 0.8552916
vt 0.01168538 0.807699
vt 0.01879537 0.8757163
vt 0.06119832 0.9762419
vt 0.09237482 0.9762419
vt 0.1200654 0.9762418
vt 0.2303666 0.5149833
vt 0.234732 0.5859508
vt 0.3246275 0.5707263
vt 0.3233978 0.4897494
vt 0.2326802 0.4836629
vt 0.3222929 0.4533684
vt 0.398746 0.5049192
vt 0.3936912 0.6489805
vt 0.3952537 0.395812
vt 0.3251997 0.627947
vt 0.2352051 0.5936419
vt 0.2378878 0.651931
vt 0.3251997 0.7270561
vt 0.3976271 0.74794
vt 0.3242987 0.8457094
vt 0.2393375 0.7499259
vt 0.3786415 0.8678398
vt 0.2583885 0.8634246
vt 0.3371058 0.9643629
vt 0.3088791 0.9643629
vt 0.3270015 0.9643629
vt 0.2393213 0.3937551
vt 0.233423 0.4736069
vt 0.3197941 0.3710959
vt 0.2741429 0.259739
vt 0.3757687 0.2664943
vt 0.3179922 0.2524425
vt 0.3270295 0.1337891
vt 0.3094592 0.1337891
vt 0.3179922 0.1337891
vt 0.3238063 0.01513574
vt 0.3143885 0.01513574
vt 0.3061868 0.01513574
vt 0.4662462 0.5993024
vt 0.4674317 0.6483459
vt 0.4966832 0.6427034
vt 0.4974384 0.5945342
vt 0.5259348 0.6370608
vt 0.5262873 0.5901244
vt 0.6051452 0.60901
vt 0.6052555 0.5938953
vt 0.6047664 0.6609244
vt 0.5259 0.5792388
vt 0.6058956 0.4883319
vt 0.5268059 0.6483462
vt 0.5315177 0.4753838
vt 0.5320729 0.7292117
vt 0.4683937 0.662362
vt 0.6039845 0.7502237
vt 0.5338889 0.8484071
vt 0.4738483 0.7418313
vt 0.5868604 0.8680028
vt 0.482231 0.8629668
vt 0.552209 0.9676026
vt 0.5205016 0.9676026
vt 0.5338889 0.9676026
vt 0.4661713 0.488799
vt 0.465964 0.5876232
vt 0.4742136 0.3893778
vt 0.533889 0.3716253
vt 0.4883128 0.2668705
vt 0.5986733 0.3888374
vt 0.6052626 0.4796113
vt 0.5815117 0.2644517
vt 0.5383737 0.2524298
vt 0.5475397 0.1332344
vt 0.5263817 0.1332344
vt 0.5374768 0.1332344
vt 0.544468 0.01403889
vt 0.533889 0.01403889
vt 0.52331 0.01403889
vt 0.7109807 0.02159829
vt 0.7037683 0.02159829
vt 0.7070304 0.1401188
vt 0.7145822 0.1401188
vt 0.7177035 0.02159829
vt 0.7209557 0.1401188
vt 0.7154826 0.2586393
vt 0.6849381 0.2646314
vt 0.7554059 0.2686251
vt 0.7145822 0.3771599
vt 0.640026 0.3913885
vt 0.7703369 0.3928351
vt 0.7143911 0.4962881
vt 0.7710416 0.5100039
vt 0.6472888 0.5105637
vt 0.7187375 0.5524591
vt 0.7724615 0.5691023
vt 0.7120008 0.5503721
vt 0.7111197 0.5703077
vt 0.7175745 0.5720965
vt 0.6434805 0.6270856
vt 0.7091799 0.6142009
vt 0.7729018 0.5874298
vt 0.7739774 0.6321959
vt 0.7073792 0.7327214
vt 0.6381125 0.7508774
vt 0.7073792 0.8512419
vt 0.77189 0.7501946
vt 0.6508081 0.8685415
vt 0.7607652 0.8712991
vt 0.6921102 0.9697624
vt 0.7332876 0.9697624
vt 0.7055784 0.9697624
vt 0.8209506 0.6872764
vt 0.8215983 0.77642
vt 0.8522791 0.7697886
vt 0.863135 0.6626438
vt 0.9051881 0.7583528
vt 0.8699008 0.8188899
vt 0.8235868 0.8285649
vt 0.8218349 0.7826236
vt 0.9009397 0.6496989
vt 0.9486384 0.7637633
vt 0.9085835 0.8093725
vt 0.9126639 0.8706828
vt 0.826225 0.8977513
vt 0.8238163 0.8345844
vt 0.8634912 0.9924406
vt 0.9117636 0.9924406
vt 0.9464461 0.9924406
vt 0.9819824 0.8922164
vt 0.9920889 0.769174
vt 0.9938883 0.6614931
vt 0.9634123 0.646088
vt 0.9000587 0.6271673
vt 0.8569947 0.6378217
vt 0.814119 0.6746188
vt 0.8139309 0.6484761
vt 0.8091213 0.5232762
vt 0.854059 0.5116106
vt 0.8291485 0.398326
vt 0.8955569 0.3836518
vt 0.8809999 0.2642234
vt 0.8989968 0.499945
vt 0.9439615 0.5135754
vt 0.988563 0.525196
vt 0.9939932 0.655221
vt 0.9416158 0.5072793
vt 0.9661762 0.3975013
vt 0.9871847 0.517334
vt 0.9171573 0.2641912
vt 0.8973576 0.261894
vt 0.8802664 0.1422114
vt 0.9164305 0.1419145
vt 0.8964572 0.1401363
vt 0.8773327 0.02046313
vt 0.9135239 0.01990976
vt 0.8928558 0.01837854
usemtl M_BananaBark
f 1/1/1 3/3/3 2/2/2
f 1/1/1 4/4/4 3/3/3
f 4/4/4 5/5/5 3/3/3
f 6/6/6 4/4/4 1/1/1
f 6/6/6 7/7/7 4/4/4
f 7/7/7 8/8/8 4/4/4
f 9/9/9 7/7/7 6/6/6
f 9/9/9 10/10/10 7/7/7
f 10/10/10 11/11/11 7/7/7
f 12/12/12 10/10/10 9/9/9
f 12/12/12 13/13/13 10/10/10
f 13/13/13 14/14/14 10/10/10
f 15/15/15 13/13/13 12/12/12
f 15/15/15 16/16/16 13/13/13
f 16/16/16 17/17/17 13/13/13
f 18/18/18 16/16/16 15/15/15
f 18/18/18 19/19/19 16/16/16
f 19/19/19 20/20/20 16/16/16
usemtl M_BananaLeaves
f 21/21/21 23/23/23 22/22/22
f 21/21/21 24/24/24 23/23/23
f 24/24/24 25/25/25 23/23/23
f 24/24/24 21/21/21 26/26/26
f 24/24/24 27/27/27 25/25/25
f 28/28/28 25/25/25 27/27/27
f 24/24/24 26/26/26 29/29/29
f 27/27/27 24/24/24 29/29/29
f 28/28/28 27/27/27 30/30/30
f 31/31/31 28/28/28 30/30/30
f 31/31/31 30/30/30 32/32/32
f 33/33/33 32/32/32 30/30/30
f 33/33/33 30/30/30 34/34/34
f 34/34/34 30/30/30 27/27/27
f 34/34/34 27/27/27 35/35/35
f 35/35/35 27/27/27 29/29/29
f 35/35/35 29/29/29 36/36/36
f 36/36/36 29/29/29 26/26/26
f 37/37/37 36/36/36 26/26/26
f 26/26/26 38/38/38 37/37/37
f 39/39/39 38/38/38 26/26/26
f 39/39/39 40/40/40 38/38/38
f 40/40/40 41/41/41 38/38/38
f 42/42/42 38/38/38 41/41/41
f 40/40/40 43/43/43 41/41/41
f 42/42/42 41/41/41 44/44/44
f 43/43/43 45/45/45 41/41/41
f 44/44/44 41/41/41 45/45/45
f 43/43/43 46/46/46 45/45/45
f 44/44/44 45/45/45 47/47/47
f 47/47/47 45/45/45 48/48/48
f 47/47/47 48/48/48 49/49/49
f 50/50/50 48/48/48 45/45/45
f 48/48/48 51/51/51 49/49/49
f 50/50/50 52/52/52 48/48/48
f 48/48/48 53/53/53 51/51/51
f 53/53/53 48/48/48 52/52/52
f 52/52/52 54/54/54 53/53/53
f 54/54/54 55/55/55 53/53/53
f 56/56/56 53/53/53 55/55/55
f 56/56/56 55/55/55 57/57/57
f 55/55/55 58/58/58 57/57/57
f 55/55/55 59/59/59 58/58/58
f 54/54/54 59/59/59 55/55/55
f 54/54/54 60/60/60 59/59/59
f 61/61/61 63/63/63 62/62/62
f 61/61/61 64/64/64 63/63/63
f 65/65/65 64/64/64 61/61/61
f 65/65/65 66/66/66 64/64/64
f 63/63/63 64/64/64 67/67/67
f 67/67/67 64/64/64 66/66/66
f 67/67/67 68/68/68 63/63/63
f 69/69/69 67/67/67 66/66/66
f 68/68/68 70/70/70 63/63/63
f 71/71/71 63/63/63 70/70/70
f 71/71/71 70/70/70 72/72/72
f 68/68/68 73/73/73 70/70/70
f 72/72/72 70/70/70 73/73/73
f 68/68/68 74/74/74 73/73/73
f 74/74/74 75/75/75 73/73/73
f 72/72/72 73/73/73 76/76/76
f 76/76/76 73/73/73 75/75/75
f 74/74/74 77/77/77 75/75/75
f 76/76/76 75/75/75 78/78/78
f 75/75/75 77/77/77 79/79/79
f 75/75/75 80/80/80 78/78/78
f 75/75/75 79/79/79 81/81/81
f 75/75/75 81/81/81 80/80/80
f 82/82/82 66/66/66 83/83/83
f 82/82/82 84/84/84 66/66/66
f 66/66/66 84/84/84 69/69/69
f 85/85/85 84/84/84 82/82/82
f 86/86/86 69/69/69 84/84/84
f 85/85/85 87/87/87 84/84/84
f 86/86/86 84/84/84 87/87/87
f 88/88/88 86/86/86 87/87/87
f 89/89/89 87/87/87 85/85/85
f 88/88/88 87/87/87 90/90/90
f 89/89/89 90/90/90 87/87/87
f 91/91/91 88/88/88 90/90/90
f 91/91/91 90/90/90 92/92/92
f 92/92/92 90/90/90 89/89/89
f 92/92/92 89/89/89 93/93/93
f 94/94/94 96/96/96 95/95/95
f 94/94/94 97/97/97 96/96/96
f 97/97/97 98/98/98 96/96/96
f 97/97/97 99/99/99 98/98/98
f 98/98/98 99/99/99 100/100/100
f 99/99/99 101/101/101 100/100/100
f 100/100/100 102/102/102 98/98/98
f 99/99/99 103/103/103 101/101/101
f 104/104/104 101/101/101 103/103/103
f 102/102/102 105/105/105 98/98/98
f 104/104/104 103/103/103 106/106/106
f 102/102/102 107/107/107 105/105/105
f 108/108/108 105/105/105 107/107/107
f 102/102/102 109/109/109 107/107/107
f 109/109/109 110/110/110 107/107/107
f 108/108/108 107/107/107 111/111/111
f 111/111/111 107/107/107 110/110/110
f 109/109/109 112/112/112 110/110/110
f 111/111/111 110/110/110 113/113/113
f 110/110/110 112/112/112 114/114/114
f 110/110/110 115/115/115 113/113/113
f 110/110/110 114/114/114 116/116/116
f 110/110/110 116/116/116 115/115/115
f 117/117/117 106/106/106 103/103/103
f 117/117/117 103/103/103 118/118/118
f 119/119/119 106/106/106 117/117/117
f 119/119/119 120/120/120 106/106/106
f 121/121/121 120/120/120 119/119/119
f 122/122/122 106/106/106 120/120/120
f 122/122/122 123/123/123 106/106/106
f 124/124/124 122/122/122 120/120/120
f 121/121/121 125/125/125 120/120/120
f 124/124/124 120/120/120 125/125/125
f 126/126/126 124/124/124 125/125/125
f 127/127/127 125/125/125 121/121/121
f 126/126/126 125/125/125 128/128/128
f 127/127/127 128/128/128 125/125/125
f 129/129/129 126/126/126 128/128/128
f 129/129/129 128/128/128 130/130/130
f 130/130/130 128/128/128 127/127/127
f 130/130/130 127/127/127 131/131/131
f 132/132/132 134/134/134 133/133/133
f 132/132/132 135/135/135 134/134/134
f 136/136/136 135/135/135 132/132/132
f 136/136/136 137/137/137 135/135/135
f 134/134/134 135/135/135 138/138/138
f 137/137/137 138/138/138 135/135/135
f 134/134/134 138/138/138 139/139/139
f 137/137/137 140/140/140 138/138/138
f 139/139/139 138/138/138 141/141/141
f 140/140/140 141/141/141 138/138/138
f 139/139/139 141/141/141 142/142/142
f 140/140/140 143/143/143 141/141/141
f 142/142/142 141/141/141 144/144/144
f 143/143/143 144/144/144 141/141/141
f 143/143/143 145/145/145 144/144/144
f 142/142/142 144/144/144 146/146/146
f 147/147/147 144/144/144 145/145/145
f 147/147/147 145/145/145 148/148/148
f 146/146/146 144/144/144 149/149/149
f 144/144/144 147/147/147 149/149/149
f 150/150/150 146/146/146 149/149/149
f 147/147/147 150/150/150 149/149/149
f 147/147/147 151/151/151 150/150/150
f 152/152/152 146/146/146 150/150/150
f 150/150/150 151/151/151 153/153/153
f 150/150/150 153/153/153 152/152/152
f 153/153/153 151/151/151 154/154/154
f 153/153/153 154/154/154 155/155/155
f 152/152/152 153/153/153 156/156/156
f 155/155/155 156/156/156 153/153/153
f 152/152/152 156/156/156 157/157/157
f 157/157/157 156/156/156 158/158/158
f 155/155/155 159/159/159 156/156/156
f 159/159/159 158/158/158 156/156/156
f 157/157/157 158/158/158 160/160/160
f 159/159/159 161/161/161 158/158/158
f 158/158/158 162/162/162 160/160/160
f 158/158/158 161/161/161 163/163/163
f 158/158/158 164/164/164 162/162/162
f 158/158/158 163/163/163 164/164/164
f 165/165/165 167/167/167 166/166/166
f 165/165/165 168/168/168 167/167/167
f 168/168/168 169/169/169 167/167/167
f 170/170/170 167/167/167 169/169/169
f 167/167/167 170/170/170 171/171/171
f 167/167/167 171/171/171 172/172/172
f 168/168/168 173/173/173 169/169/169
f 173/173/173 174/174/174 169/169/169
f 170/170/170 169/169/169 175/175/175
f 169/169/169 174/174/174 175/175/175
f 170/170/170 175/175/175 176/176/176
f 174/174/174 176/176/176 175/175/175
f 170/170/170 176/176/176 177/177/177
f 177/177/177 178/178/178 170/170/170
f 176/176/176 179/179/179 177/177/177
f 176/176/176 180/180/180 179/179/179
f 176/176/176 181/181/181 180/180/180
f 176/176/176 182/182/182 181/181/181
f 174/174/174 182/182/182 176/176/176
f 182/182/182 174/174/174 183/183/183
f 174/174/174 184/184/184 183/183/183
f 174/174/174 185/185/185 184/184/184
f 173/173/173 185/185/185 174/174/174
f 168/168/168 186/186/186 173/173/173
f 186/186/186 185/185/185 173/173/173
f 168/168/168 187/187/187 186/186/186
f 187/187/187 168/168/168 188/188/188
f 187/187/187 188/188/188 189/189/189
f 190/190/190 187/187/187 189/189/189
f 190/190/190 191/191/191 187/187/187
f 191/191/191 186/186/186 187/187/187
f 192/192/192 191/191/191 190/190/190
f 192/192/192 193/193/193 191/191/191
f 194/194/194 193/193/193 192/192/192
f 191/191/191 195/195/195 186/186/186
f 191/191/191 193/193/193 195/195/195
f 196/196/196 186/186/186 195/195/195
f 196/196/196 185/185/185 186/186/186
f 185/185/185 196/196/196 197/197/197
f 185/185/185 197/197/197 198/198/198
f 193/193/193 199/199/199 195/195/195
f 199/199/199 193/193/193 200/200/200
f 199/199/199 200/200/200 201/201/201
f 202/202/202 200/200/200 193/193/193
f 194/194/194 203/203/203 193/193/193
f 202/202/202 193/193/193 203/203/203
f 204/204/204 203/203/203 194/194/194
f 205/205/205 202/202/202 203/203/203
f 204/204/204 206/206/206 203/203/203
f 205/205/205 203/203/203 206/206/206
f 207/207/207 206/206/206 204/204/204
f 208/208/208 205/205/205 206/206/206
f 207/207/207 209/209/209 206/206/206
f 208/208/208 206/206/206 209/209/209
