mtllib P_FirSapling2.mtl
v 0.0370512 1.013341 -0.01321888 1 1 1
v 0.01545239 1.497825 0.01573181 1 1 1
v -0.3500882 1.418197 -0.5687961 1 1 1
v -0.4041424 2.116813 -0.5630378 1 1 1
v -0.004001614 1.934212 0.04180908 1 1 1
v -0.2627898 2.793866 -0.2531309 1 1 1
v -0.04184245 2.78306 0.09253311 1 1 1
v -0.04184245 2.78306 0.09253311 1 1 1
v 0.6753044 1.77317 0.001883448 1 1 1
v 0.5275278 2.642299 0.0587358 1 1 1
v -0.004001614 1.934212 0.04180908 1 1 1
v 0.5213757 1.318324 -0.01744275 1 1 1
v 0.01545239 1.497825 0.01573181 1 1 1
v 0.0370512 1.013341 -0.01321888 1 1 1
v -0.2893361 1.323316 0.6110992 1 1 1
v 0.0370512 1.013341 -0.01321888 1 1 1
v 0.01545239 1.497825 0.01573181 1 1 1
v -0.3758783 1.891143 0.7636986 1 1 1
v -0.004001614 1.934212 0.04180908 1 1 1
v -0.2332716 2.752307 0.464365 1 1 1
v -0.04184245 2.78306 0.09253311 1 1 1
v 0.5508909 2.689118 0.2713413 1 1 1
v 0.6236315 3.130383 0.3258638 1 1 1
v 0.1381636 3.169611 -0.0948229 1 1 1
v 0.2136612 3.812845 -0.04175856 1 1 1
v 0.6891509 3.527844 0.3749742 1 1 1
v 0.5353794 4.377566 0.2257862 1 1 1
v 0.8165961 4.300972 0.4705028 1 1 1
v 0.6236315 3.130383 0.3258638 1 1 1
v 0.5508909 2.689118 0.2713413 1 1 1
v 1.025387 2.893317 0.1493272 1 1 1
v 0.6891509 3.527844 0.3749742 1 1 1
v 1.243668 3.281846 0.1458177 1 1 1
v 0.8165961 4.300972 0.4705028 1 1 1
v 1.280283 4.089558 0.2778615 1 1 1
v 0.4828111 2.960869 0.9278125 1 1 1
v 0.5508909 2.689118 0.2713413 1 1 1
v 0.6236315 3.130383 0.3258638 1 1 1
v 0.5456115 3.475973 1.113477 1 1 1
v 0.6891509 3.527844 0.3749742 1 1 1
v 0.7412787 4.266441 0.8504524 1 1 1
v 0.8165961 4.300972 0.4705028 1 1 1
v 0.1619683 2.141038 0.8716679 1 1 1
v 0.1378918 1.988054 0.006992328 1 1 1
v 0.08004285 2.511655 0.1800508 1 1 1
v 0.1061336 2.719057 1.222187 1 1 1
v 0.02793601 2.983276 0.3359299 1 1 1
v -0.0320672 3.755151 1.093211 1 1 1
v -0.07342047 3.900659 0.6391401 1 1 1
v 0.1378918 1.988054 0.006992328 1 1 1
v 0.08004285 2.511655 0.1800508 1 1 1
v -0.6138372 2.440607 -0.1952676 1 1 1
v -0.7409163 3.196561 0.03274829 1 1 1
v 0.02793601 2.983276 0.3359299 1 1 1
v -0.4948587 3.921303 0.4358034 1 1 1
v -0.07342047 3.900659 0.6391401 1 1 1
v 0.08004285 2.511655 0.1800508 1 1 1
v 0.1378918 1.988054 0.006992328 1 1 1
v 0.5685863 2.440263 -0.184702 1 1 1
v 0.02793601 2.983276 0.3359299 1 1 1
v 0.6777029 2.974727 -0.1274129 1 1 1
v -0.07342047 3.900659 0.6391401 1 1 1
v 0.4716406 3.887183 0.2488737 1 1 1
v 0.6880704 2.279613 0.6208639 1 1 1
v 0.07180692 1.904777 0.1017313 1 1 1
v 0.109478 2.464471 0.1030931 1 1 1
v 0.848219 2.938867 0.7239808 1 1 1
v 0.1434097 2.968602 0.1043196 1 1 1
v 0.57228 3.924023 0.4262952 1 1 1
v 0.2094116 3.949223 0.1067057 1 1 1
v 0.07180692 1.904777 0.1017313 1 1 1
v 0.109478 2.464471 0.1030931 1 1 1
v -0.6487778 2.401495 0.3544989 1 1 1
v -0.6411399 3.210364 0.3720818 1 1 1
v 0.1434097 2.968602 0.1043196 1 1 1
v -0.2389726 3.979037 0.2570401 1 1 1
v 0.2094116 3.949223 0.1067057 1 1 1
v 0.109478 2.464471 0.1030931 1 1 1
v 0.07180692 1.904777 0.1017313 1 1 1
v 0.2084703 2.223708 -0.4607382 1 1 1
v 0.1434097 2.968602 0.1043196 1 1 1
v 0.2833547 2.737478 -0.6565495 1 1 1
v 0.2094116 3.949223 0.1067057 1 1 1
v 0.3262014 3.748842 -0.5307522 1 1 1
v 0.3165627 1.407706 0.4087476 1 1 1
v 0.4987822 1.937735 0.5425538 1 1 1
v 0.3930168 2.051798 -0.2657471 1 1 1
v 0.6510677 2.828577 -0.1216097 1 1 1
v 0.6629124 2.415145 0.6630763 1 1 1
v 0.9409494 3.475779 0.4308175 1 1 1
v 0.9821721 3.34379 0.8975124 1 1 1
v -0.1722535 1.888977 1.011065 1 1 1
v 0.3165627 1.407706 0.4087476 1 1 1
v 0.4987822 1.937735 0.5425538 1 1 1
v -0.07727898 2.538029 1.269106 1 1 1
v 0.6629124 2.415145 0.6630763 1 1 1
v 0.5971795 3.397831 1.207737 1 1 1
v 0.9821721 3.34379 0.8975124 1 1 1
v 0.4987822 1.937735 0.5425538 1 1 1
v 0.3165627 1.407706 0.4087476 1 1 1
v 0.9305649 1.490659 0.686202 1 1 1
v 0.6629124 2.415145 0.6630763 1 1 1
v 1.276323 1.900551 0.8794249 1 1 1
v 0.9821721 3.34379 0.8975124 1 1 1
v 1.493879 2.906281 1.077152 1 1 1
v -0.07795526 4.252506 -0.1732368 1 1 1
v -0.2018709 4.953613 -0.3251342 1 1 1
v -0.4207296 4.976292 -0.04191395 1 1 1
v -0.504692 4.310149 0.3729029 1 1 1
v -0.01425076 3.892071 -0.09514713 1 1 1
v -0.3508701 3.825882 0.3863173 1 1 1
v 0.05647469 3.491911 -0.008450513 1 1 1
v -0.2018709 4.953613 -0.3251342 1 1 1
v 0.5103531 4.205938 -0.07628731 1 1 1
v 0.2918558 4.909774 -0.2428665 1 1 1
v -0.07795526 4.252506 -0.1732368 1 1 1
v 0.4303637 3.807853 -0.01255325 1 1 1
v -0.01425076 3.892071 -0.09514713 1 1 1
v 0.05647469 3.491911 -0.008450513 1 1 1
v -0.07795526 4.252506 -0.1732368 1 1 1
v -0.2018709 4.953613 -0.3251342 1 1 1
v -0.3288403 4.863049 -0.6395674 1 1 1
v -0.3275662 4.226427 -0.7615547 1 1 1
v -0.01425076 3.892071 -0.09514713 1 1 1
v -0.2125512 3.659743 -0.6040659 1 1 1
v 0.05647469 3.491911 -0.008450513 1 1 1
v 0.01421738 2.027461 0.01573181 1 1 1
v 0.09916306 2.627081 0.07596111 1 1 1
v 0.600912 2.501601 -0.6228276 1 1 1
v 0.7554139 3.364571 -0.5787392 1 1 1
v 0.1756754 3.167175 0.1302109 1 1 1
v 0.6344452 4.215038 -0.1744099 1 1 1
v 0.3245049 4.217749 0.2357349 1 1 1
v -0.7591457 2.600944 -0.03552335 1 1 1
v 0.01421738 2.027461 0.01573181 1 1 1
v 0.09916306 2.627081 0.07596111 1 1 1
v -0.8217258 3.340902 0.01747711 1 1 1
v 0.1756754 3.167175 0.1302109 1 1 1
v -0.1914387 4.296788 0.176527 1 1 1
v 0.3245049 4.217749 0.2357349 1 1 1
v 0.09916306 2.627081 0.07596111 1 1 1
v 0.01421738 2.027461 0.01573181 1 1 1
v 0.2995558 2.285253 0.6208878 1 1 1
v 0.1756754 3.167175 0.1302109 1 1 1
v 0.4604264 2.806323 0.8758916 1 1 1
v 0.3245049 4.217749 0.2357349 1 1 1
v 0.5620404 3.908204 0.8597268 1 1 1
v 0.1594915 1.866586 -0.4819651 1 1 1
v 0.2666692 2.409168 -0.6602573 1 1 1
v -0.4343424 2.55958 -0.241929 1 1 1
v -0.3222132 3.356843 -0.4748745 1 1 1
v 0.3632078 2.897885 -0.8208495 1 1 1
v 0.1451749 4.003737 -0.9048328 1 1 1
v 0.5509909 3.848523 -1.133229 1 1 1
v 0.9507751 2.258189 -0.2211944 1 1 1
v 0.1594915 1.866586 -0.4819651 1 1 1
v 0.2666692 2.409168 -0.6602573 1 1 1
v 1.21796 2.902816 -0.3567296 1 1 1
v 0.3632078 2.897885 -0.8208495 1 1 1
v 0.989974 3.841505 -0.8906994 1 1 1
v 0.5509909 3.848523 -1.133229 1 1 1
v 0.2666692 2.409168 -0.6602573 1 1 1
v 0.1594915 1.866586 -0.4819651 1 1 1
v 0.1941623 2.001155 -1.152313 1 1 1
v 0.3632078 2.897885 -0.8208495 1 1 1
v 0.2833098 2.438126 -1.514963 1 1 1
v 0.5509909 3.848523 -1.133229 1 1 1
v 0.4827612 3.456803 -1.712595 1 1 1
v -0.3058558 1.815875 -0.05537507 1 1 1
v -0.4966746 2.415812 -0.1893215 1 1 1
v -1.29396 1.987043 -0.3501252 1 1 1
v -1.620553 2.831647 -0.5546197 1 1 1
v -0.6685505 2.956191 -0.3099689 1 1 1
v -1.502102 3.823487 -0.6568402 1 1 1
v -1.002877 4.00732 -0.544651 1 1 1
v -0.2360763 2.515768 0.6828899 1 1 1
v -0.3058558 1.815875 -0.05537507 1 1 1
v -0.4966746 2.415812 -0.1893215 1 1 1
v -0.4221362 3.280819 0.6873074 1 1 1
v -0.6685505 2.956191 -0.3099689 1 1 1
v -0.8724174 4.164187 -0.0279073 1 1 1
v -1.002877 4.00732 -0.544651 1 1 1
v -0.4966746 2.415812 -0.1893215 1 1 1
v -0.3058558 1.815875 -0.05537507 1 1 1
v 0.03636164 2.201978 -0.6110897 1 1 1
v -0.6685505 2.956191 -0.3099689 1 1 1
v 0.01897327 2.768167 -0.9017677 1 1 1
v -1.002877 4.00732 -0.544651 1 1 1
v -0.4245816 3.842563 -1.038833 1 1 1
v 0.098547 3.444321 0.1925678 1 1 1
v 0.09939195 3.973346 0.1962576 1 1 1
v 0.6932659 3.868868 -0.2592831 1 1 1
v 0.7313557 4.630626 -0.2822018 1 1 1
v 0.100152 4.449854 0.1995821 1 1 1
v 0.4564667 5.378072 -0.06561283 1 1 1
v 0.1016312 5.376742 0.206047 1 1 1
v -0.5854597 3.840292 -0.08634276 1 1 1
v 0.098547 3.444321 0.1925678 1 1 1
v 0.09939195 3.973346 0.1962576 1 1 1
v -0.718565 4.471587 -0.1371164 1 1 1
v 0.100152 4.449854 0.1995821 1 1 1
v -0.3206682 5.378628 0.03231719 1 1 1
v 0.1016312 5.376742 0.206047 1 1 1
v 0.09939195 3.973346 0.1962576 1 1 1
v 0.098547 3.444321 0.1925678 1 1 1
v 0.168933 3.747921 0.7323303 1 1 1
v 0.100152 4.449854 0.1995821 1 1 1
v 0.1941644 4.23429 0.9238272 1 1 1
v 0.1016312 5.376742 0.206047 1 1 1
v 0.1803828 5.189767 0.8127613 1 1 1
v 0.615922 4.377767 0.3622465 1 1 1
v 1.073187 3.067502 -0.06842814 1 1 1
v 1.194235 4.069363 0.1551303 1 1 1
v 0.3809662 3.427818 0.1772709 1 1 1
v 0.756321 2.60516 -0.112959 1 1 1
v 0.2601767 2.939455 0.08217714 1 1 1
v 0.1260748 2.397267 -0.02339841 1 1 1
v -0.001764226 2.708857 0.8117532 1 1 1
v 0.1260748 2.397267 -0.02339841 1 1 1
v 0.2601767 2.939455 0.08217714 1 1 1
v 0.1135579 3.337399 1.085854 1 1 1
v 0.3809662 3.427818 0.1772709 1 1 1
v 0.4756327 4.321575 0.8290223 1 1 1
v 0.615922 4.377767 0.3622465 1 1 1
v 0.1260748 2.397267 -0.02339841 1 1 1
v 0.2601767 2.939455 0.08217714 1 1 1
v -0.2964983 3.06924 -0.4945144 1 1 1
v -0.1363116 3.864652 -0.376996 1 1 1
v 0.3809662 3.427818 0.1772709 1 1 1
v 0.2995644 4.520613 0.03049562 1 1 1
v 0.615922 4.377767 0.3622465 1 1 1
v 0.08384991 3.386754 -0.02614213 1 1 1
v 0.07596016 4.151668 0.01338481 1 1 1
v -0.2782278 4.153416 -0.09115026 1 1 1
v -0.5474358 3.537095 -0.2044038 1 1 1
v 0.08790588 2.993516 -0.04646207 1 1 1
v -0.5041466 2.908387 -0.2260198 1 1 1
v 0.09240913 2.556938 -0.06902219 1 1 1
v 0.07596016 4.151668 0.01338481 1 1 1
v 0.5240545 3.239167 -0.450882 1 1 1
v 0.4448099 4.022758 -0.3427267 1 1 1
v 0.08384991 3.386754 -0.02614213 1 1 1
v 0.4145746 2.829937 -0.3639193 1 1 1
v 0.08790588 2.993516 -0.04646207 1 1 1
v 0.09240913 2.556938 -0.06902219 1 1 1
v 0.08384991 3.386754 -0.02614213 1 1 1
v 0.07596016 4.151668 0.01338481 1 1 1
v 0.1657391 4.133677 0.3794651 1 1 1
v 0.2577563 3.36679 0.6843777 1 1 1
v 0.08790588 2.993516 -0.04646207 1 1 1
v 0.2346135 2.852023 0.5412245 1 1 1
v 0.09240913 2.556938 -0.06902219 1 1 1
v 0.1166105 3.027732 -0.02689839 1 1 1
v 0.1966934 3.482933 -0.1520586 1 1 1
v -0.3437224 3.365714 -0.5546588 1 1 1
v -0.2609721 4.019474 -0.7614059 1 1 1
v 0.2688265 3.892945 -0.2647944 1 1 1
v 0.09598344 4.675312 -0.739645 1 1 1
v 0.4091367 4.690488 -0.4840842 1 1 1
v 0.08351712 3.556849 0.5156918 1 1 1
v 0.1166105 3.027732 -0.02689839 1 1 1
v 0.1966934 3.482933 -0.1520586 1 1 1
v 0.1608572 4.136954 0.4909735 1 1 1
v 0.2688265 3.892945 -0.2647944 1 1 1
v 0.3520365 4.808322 -0.09206298 1 1 1
v 0.4091367 4.690488 -0.4840842 1 1 1
v 0.1966934 3.482933 -0.1520586 1 1 1
v 0.1166105 3.027732 -0.02689839 1 1 1
v 0.6126213 3.170637 -0.2544852 1 1 1
v 0.2688265 3.892945 -0.2647944 1 1 1
v 0.8437042 3.547735 -0.4240494 1 1 1
v 0.4091367 4.690488 -0.4840842 1 1 1
v 0.8897933 4.395789 -0.6159955 1 1 1
v 0.1765738 2.301597 0.1135578 1 1 1
v 0.04341985 2.977255 0.1213837 1 1 1
v -0.07705505 2.823092 -0.8427591 1 1 1
v -0.277897 3.794701 -0.8912411 1 1 1
v -0.07651614 3.585838 0.1284332 1 1 1
v -0.3978148 4.758952 -0.4328146 1 1 1
v -0.3098106 4.769635 0.1421461 1 1 1
v -0.6564321 2.651727 0.725049 1 1 1
v 0.1765738 2.301597 0.1135578 1 1 1
v 0.04341985 2.977255 0.1213837 1 1 1
v -0.9589795 3.427521 0.8530245 1 1 1
v -0.07651614 3.585838 0.1284332 1 1 1
v -0.7626285 4.67607 0.5157433 1 1 1
v -0.3098106 4.769635 0.1421461 1 1 1
v 0.04341985 2.977255 0.1213837 1 1 1
v 0.1765738 2.301597 0.1135578 1 1 1
v 0.7449494 2.818573 0.374341 1 1 1
v -0.07651614 3.585838 0.1284332 1 1 1
v 0.8481226 3.484963 0.4712047 1 1 1
v -0.3098106 4.769635 0.1421461 1 1 1
v 0.4664402 4.676976 0.4292192 1 1 1
v -0.07716276 3.062169 -0.2600689 1 1 1
v -0.1145678 3.648846 -0.2997389 1 1 1
v -0.8973761 3.462877 -0.5467958 1 1 1
v -1.000287 4.303296 -0.6197395 1 1 1
v -0.1482601 4.177282 -0.3354702 1 1 1
v -0.6858922 5.164778 -0.5573263 1 1 1
v -0.2137976 5.205179 -0.404974 1 1 1
v 0.06735615 3.563228 0.5141172 1 1 1
v -0.07716276 3.062169 -0.2600689 1 1 1
v -0.1145678 3.648846 -0.2997389 1 1 1
v 0.05651384 4.275452 0.6242485 1 1 1
v -0.1482601 4.177282 -0.3354702 1 1 1
v -0.1075182 5.245474 0.0907364 1 1 1
v -0.2137976 5.205179 -0.404974 1 1 1
v -0.1145678 3.648846 -0.2997389 1 1 1
v -0.07716276 3.062169 -0.2600689 1 1 1
v 0.3499183 3.404441 -0.6870413 1 1 1
v -0.1482601 4.177282 -0.3354702 1 1 1
v 0.4724607 3.945766 -0.8649312 1 1 1
v -0.2137976 5.205179 -0.404974 1 1 1
v 0.3066825 5.004145 -0.8480682 1 1 1
v -0.1840611 1.881922 0.06182672 1 1 1
v -0.4727154 2.23188 0.1562729 1 1 1
v -0.6144801 2.164749 -0.4867906 1 1 1
v -1.042458 2.668785 -0.3895549 1 1 1
v -0.7327137 2.547096 0.2413436 1 1 1
v -1.357911 3.162309 0.03408158 1 1 1
v -1.238456 3.160245 0.4068195 1 1 1
v -0.7025604 1.772813 0.5699006 1 1 1
v -0.1840611 1.881922 0.06182672 1 1 1
v -0.4727154 2.23188 0.1562729 1 1 1
v -1.106261 2.117739 0.7682821 1 1 1
v -0.7327137 2.547096 0.2413436 1 1 1
v -1.42604 2.932621 0.6769429 1 1 1
v -1.238456 3.160245 0.4068195 1 1 1
v -0.4727154 2.23188 0.1562729 1 1 1
v -0.1840611 1.881922 0.06182672 1 1 1
v 0.01681998 2.353511 0.2496166 1 1 1
v -0.7327137 2.547096 0.2413436 1 1 1
v -0.1203203 2.769979 0.3831854 1 1 1
v -1.238456 3.160245 0.4068195 1 1 1
v -0.7219228 3.342752 0.5245133 1 1 1
v 0.05625219 1.643419 -0.008401484 0 0 0
v 0.06658886 1.643322 0.03017987 0 0 0
v -0.1365044 1.836341 0.07007022 0 0 0
v -0.144496 1.83695 0.04281868 0 0 0
v 0.0269717 1.625242 -0.02064809 0 0 0
v -0.5420407 2.405671 0.1924886 0 0 0
v -0.1673643 1.826583 0.03461351 0 0 0
v 0.007920914 1.606923 0.00568663 0 0 0
v -0.5471216 2.406411 0.1762252 0 0 0
v -1.028532 2.88262 0.3479001 0 0 0
v -0.1818431 1.815359 0.05353043 0 0 0
v 0.01848334 1.606828 0.044268 0 0 0
v -0.5617515 2.401182 0.1714818 0 0 0
v -1.028532 2.88262 0.3479001 0 0 0
v -0.1739401 1.814804 0.08081263 0 0 0
v 0.04789474 1.62505 0.05651462 0 0 0
v -0.5712959 2.395204 0.1830019 0 0 0
v -0.1516722 1.825542 0.08921646 0 0 0
v 0.06658886 1.643322 0.03017987 0 0 0
v -0.1365044 1.836341 0.07007022 0 0 0
v -0.566214 2.394463 0.1992654 0 0 0
v -1.028532 2.88262 0.3479001 0 0 0
v -0.5515888 2.399699 0.2040088 0 0 0
v -0.5420407 2.405671 0.1924886 0 0 0
v 0.02114146 1.092495 0.02492338 0 0 0
v 0.004495845 1.129521 0.005680847 0 0 0
v 0.2898634 1.384586 0.4376445 0 0 0
v 0.3029098 1.371293 0.4548393 0 0 0
v 0.06417327 1.076313 0.008807652 0 0 0
v 0.5942206 2.151096 0.5607445 0 0 0
v 0.3280274 1.363768 0.4465285 0 0 0
v 0.09074152 1.097319 -0.02666855 0 0 0
v 0.3400871 1.36961 0.4210466 0 0 0
v 0.07435098 1.134239 -0.04573842 0 0 0
v 0.3270515 1.382897 0.4038547 0 0 0
v 0.03094201 1.150286 -0.02957065 0 0 0
v 0.3019457 1.390346 0.4121414 0 0 0
v 0.2898634 1.384586 0.4376445 0 0 0
v 0.004495845 1.129521 0.005680847 0 0 0
v -0.1211428 1.787183 0.02140535 0 0 0
v -0.1050251 1.803352 0.03086773 0 0 0
v -0.3670163 2.023666 -0.1214814 0 0 0
v -0.3762548 2.01445 -0.1267543 0 0 0
v -0.1426717 1.780719 0.03744767 0 0 0
v -0.9395919 2.37503 -0.1834454 0 0 0
v -0.3868054 2.009291 -0.1166514 0 0 0
v -0.1481126 1.790452 0.0629524 0 0 0
v -0.3881285 2.013361 -0.1012759 0 0 0
v -0.1319827 1.806619 0.07241479 0 0 0
v -0.3788912 2.022579 -0.0960031 0 0 0
v -0.1104244 1.813056 0.05637246 0 0 0
v -0.3683299 2.027727 -0.1061059 0 0 0
v -0.3670163 2.023666 -0.1214814 0 0 0
v -0.1050251 1.803352 0.03086773 0 0 0
v 0.07312147 2.708133 0.07721224 0 0 0
v 0.049113 2.714227 0.08947244 0 0 0
v 0.2392413 3.437102 -0.05521133 0 0 0
v 0.2547996 3.43237 -0.05846307 0 0 0
v 0.07405077 2.703701 0.05022636 0 0 0
v 0.5380622 3.684935 -0.1110361 0 0 0
v 0.2562731 3.428982 -0.07120423 0 0 0
v 0.05096611 2.705367 0.03550063 0 0 0
v 0.242107 3.430336 -0.0808116 0 0 0
v 0.02695181 2.711463 0.04776076 0 0 0
v 0.226504 3.435075 -0.07763124 0 0 0
v 0.02602802 2.715891 0.07474666 0 0 0
v 0.2251115 3.438453 -0.06477263 0 0 0
v 0.2392413 3.437102 -0.05521133 0 0 0
v 0.049113 2.714227 0.08947244 0 0 0
v 0.06592954 1.584878 -0.004345836 0 0 0
v 0.07592649 1.61761 0.0286569 0 0 0
v 0.2119331 1.954423 -0.4855995 0 0 0
v 0.2071139 1.940403 -0.510473 0 0 0
v 0.01710256 1.58274 -0.0242964 0 0 0
v 0.3460689 2.656737 -0.6329814 0 0 0
v 0.1802896 1.941379 -0.5250116 0 0 0
v 0.3460689 2.656737 -0.6329814 0 0 0
v -0.02178563 1.613364 -0.01124423 0 0 0
v 0.1582862 1.956375 -0.5146796 0 0 0
v -0.01194923 1.645985 0.02175852 0 0 0
v 0.1631179 1.970386 -0.4897671 0 0 0
v 0.03721405 1.648093 0.04170908 0 0 0
v 0.1899406 1.96941 -0.4752258 0 0 0
v 0.3460689 2.656737 -0.6329814 0 0 0
v 0.2119331 1.954423 -0.4855995 0 0 0
v 0.07592649 1.61761 0.0286569 0 0 0
v 0.03024644 3.187578 0.07817046 0 0 0
v 0.01255801 3.173532 0.08530182 0 0 0
v -0.230977 3.388037 0.1068094 0 0 0
v -0.2189978 3.394467 0.1025994 0 0 0
v 0.03331144 3.192435 0.05253978 0 0 0
v -0.5943893 3.824586 0.06194025 0 0 0
v -0.2162055 3.396259 0.087866 0 0 0
v 0.01865471 3.183255 0.03404047 0 0 0
v -0.2253965 3.391622 0.07734255 0 0 0
v 0.0009907297 3.169205 0.04117182 0 0 0
v -0.2373691 3.38519 0.08155254 0 0 0
v -0.002040693 3.164338 0.0668025 0 0 0
v -0.2401571 3.383396 0.09628596 0 0 0
v -0.230977 3.388037 0.1068094 0 0 0
v 0.01255801 3.173532 0.08530182 0 0 0
v 0.09782141 1.78808 0.02320479 0 0 0
v 0.07485191 1.767729 0.0441042 0 0 0
v -0.1591846 2.522244 0.8951499 0 0 0
v 0.03409756 1.768929 0.03685138 0 0 0
v 0.01631723 1.79048 0.008699128 0 0 0
v 0.0396025 1.810775 -0.0122003 0 0 0
v 0.08025201 1.809575 -0.004947476 0 0 0
v 0.09782141 1.78808 0.02320479 0 0 0
v -0.1451283 -0.1785955 -0.07507313 0 0.9960784 0
v -0.1009458 -0.3679924 -0.03596137 0 0.9921569 0
v -0.03824665 -0.3622406 -0.0719227 0 0.9960784 0
v -0.01509351 -0.1732578 -0.1501462 0 0.9960784 0
v 0.02426716 -0.3564889 -0.03596133 0 0.9882353 0
v 0.01259231 0.2445152 -0.08211436 0 0 0
v -0.05890739 0.2406268 -0.04105606 0 0.6470588 0
v 0.1144996 -0.1679201 -0.07507306 0 0.9960784 0
v 0.02437677 -0.3564889 0.03596136 0 0.8745098 0
v 0.08364736 0.2485206 -0.04105831 0 0.5294118 0
v 0.0262654 1.252901 -0.06949125 0 0 0
v -0.03042788 1.253313 -0.0367252 0 0 0
v 0.114599 -0.1679201 0.07507313 0 0.9764706 0
v -0.03815779 -0.3622408 0.0719227 0 0.772549 0
v 0.08379686 0.2486408 0.04105605 0 0.7215686 0
v 0.08298042 1.251509 -0.03678488 0 0 0
v 0.04128106 2.82686 0.01732998 0 0 0
v -0.0005428605 2.828393 0.04166393 0 0 0
v -0.0150513 -0.1732581 0.1501462 0 0.9294118 0
v -0.100837 -0.3679924 0.03596133 0 0.9568627 0
v 0.01270291 0.2447562 0.08211437 0 0.8313726 0
v 0.08300216 1.250529 0.02868755 0 0 0
v 0.08302014 2.824903 0.04157014 0 0 0
v 0.01367486 3.966454 0.02190072 0 0 0
v -0.009366897 3.962209 0.03702289 0 0 0
v 0.013296 4.65597 0.03614606 0 0 0
v 0.03731777 3.969995 0.03648157 0 0 0
v -0.1448698 -0.1785958 0.07507306 0 0.9490196 0
v -0.1009458 -0.3679924 -0.03596137 0 0.9921569 0
v -0.1451283 -0.1785955 -0.07507313 0 0.9960784 0
v -0.05890739 0.2406268 -0.04105606 0 0.6470588 0
v -0.05872443 0.2407477 0.0410583 0 0.7647059 0
v -0.03042788 1.253313 -0.0367252 0 0 0
v -0.03040614 1.252333 0.02874724 0 0 0
v -0.0005428605 2.828393 0.04166393 0 0 0
v 0.03734509 3.970324 0.06612432 0 0 0
v 0.02630887 1.250941 0.06145361 0 0 0
v -0.0006078999 2.827967 0.09023806 0 0 0
v -0.009366897 3.962209 0.03702289 0 0 0
v 0.08295587 2.824477 0.09014426 0 0 0
v 0.0411412 2.82601 0.1144782 0 0 0
v -0.009341726 3.962544 0.0666654 0 0 0
v 0.01372738 3.967118 0.08118598 0 0 0
vn -5.379316E-06 -1 3.221631E-05
vn -3.52161E-05 -1 -1.3493E-05
vn -0.191622 -0.938619 -0.2868369
vn -0.3537495 -0.7710975 -0.5294053
vn 4.143801E-06 -0.9827253 0.1850704
vn -0.7855476 0.3277735 -0.5248614
vn -0.3615222 0.3277394 0.8728623
vn -0.3615558 0.3276849 0.8728689
vn 0.487344 -0.8732101 -7.095351E-05
vn 0.9475244 0.2581899 0.1885084
vn -7.963402E-06 -0.9827431 0.1849757
vn 0.344958 -0.9386181 -1.718139E-05
vn 3.906712E-05 -1 4.419963E-05
vn 1.831725E-05 -1 4.546087E-05
vn -0.1864823 -0.8732173 0.4502398
vn -4.053115E-05 -1 6.53863E-05
vn -2.118572E-05 -1 2.710521E-05
vn -0.3123342 -0.5779123 0.753966
vn 2.413371E-05 -0.9827336 0.1850264
vn -0.3696767 0.2581924 0.892567
vn -0.3615875 0.3277048 0.8728483
vn 0.8032736 0.2581811 0.5367439
vn 0.7855599 0.327706 0.5248851
vn 0.8742481 0.3233596 -0.3621172
vn 0.9548005 0.2972474 9.483073E-06
vn 0.7867942 0.3233756 0.5257215
vn 0.869436 0.3382059 0.3601358
vn 0.7824886 0.3381442 0.5228481
vn 0.7855342 0.327688 0.5249349
vn 0.8032835 0.2581579 0.5367403
vn 0.9475306 0.2581696 0.1885051
vn 0.7867703 0.3233534 0.525771
vn 0.9266056 0.3277641 0.1843167
vn 0.7824425 0.3382033 0.5228789
vn 0.9364662 0.2972422 0.1862212
vn 0.3614824 0.3277296 0.8728825
vn 0.8032727 0.258187 0.5367426
vn 0.7855233 0.3277851 0.5248905
vn 0.3614802 0.3277207 0.8728867
vn 0.7868096 0.323374 0.5256994
vn 0.6751604 0.2972158 0.6751454
vn 0.7824591 0.3381693 0.5228759
vn 0.1885543 -0.2578707 0.9476023
vn 0.1710028 -0.9827266 0.07075671
vn 0.3696668 0.2581773 0.8925754
vn -1.248095E-05 0.2581824 0.9660962
vn -6.608027E-06 0.3277138 0.9447771
vn -1.012508E-06 0.3233188 0.9462901
vn -0.1862787 0.2972442 0.936454
vn 0.1710068 -0.9827226 0.07080133
vn 0.3696952 0.2582046 0.8925558
vn -0.9475335 0.2581376 -0.1885343
vn -0.9266245 0.3277493 0.1842481
vn 9.649138E-06 0.3277963 0.9447484
vn -0.6751326 0.2972952 0.6751382
vn -0.1862279 0.2973036 0.9364452
vn 0.369703 0.2581946 0.8925555
vn 0.171038 -0.9827147 0.07083663
vn 0.9475517 0.258117 -0.1884712
vn -5.162615E-06 0.3277307 0.9447712
vn 0.926603 0.3277678 -0.1843239
vn -0.1862668 0.2972583 0.9364519
vn 0.7939065 0.2972347 0.5304375
vn 0.7055495 0.06639706 0.7055433
vn 0.07084148 -0.9827231 0.1709878
vn 0.5367297 0.258157 0.8032909
vn 0.6831437 0.258159 0.6831315
vn 0.6680427 0.3277552 0.6680536
vn 0.7938958 0.2972372 0.5304522
vn 0.79388 0.2973132 0.5304333
vn 0.07082061 -0.9827298 0.1709579
vn 0.5367742 0.2582071 0.803245
vn -0.829618 0.06638975 0.5543703
vn -0.7855578 0.3276983 0.524893
vn 0.6680818 0.3277512 0.6680164
vn -0.5305061 0.2972569 0.7938523
vn 0.7938476 0.2972712 0.5305054
vn 0.536707 0.2581939 0.8032942
vn 0.07087719 -0.9827265 0.1709537
vn 0.2437011 -0.7710586 -0.5882843
vn 0.6680793 0.3276901 0.6680488
vn 0.3697694 0.2581772 -0.892533
vn 0.7938965 0.2972334 0.5304533
vn 0.5257613 0.3233992 -0.7867579
vn 0.1916624 -0.9386187 0.2868107
vn 0.4502299 -0.7710786 0.4502562
vn 0.4052379 -0.8731828 -0.2708029
vn 0.926622 0.3277298 -0.1842955
vn 0.7055326 0.06634949 0.7055647
vn 0.8742435 0.3233871 0.3621036
vn 0.6680573 0.3277243 0.6680541
vn -0.1592137 -0.5779618 0.8003819
vn 0.1916271 -0.9386009 0.2868927
vn 0.4502204 -0.7711171 0.4501999
vn -1.296896E-05 0.2581777 0.9660975
vn 0.7055506 0.06640602 0.7055414
vn 0.361596 0.3277036 0.8728452
vn 0.6680486 0.3277231 0.6680635
vn 0.4502208 -0.7710606 0.4502963
vn 0.1917126 -0.9385803 0.286903
vn 0.5294278 -0.7711152 0.3536773
vn 0.705575 0.06638873 0.7055187
vn 0.8033404 -0.2578807 0.5367883
vn 0.6679893 0.3277651 0.6681021
vn 0.8032616 0.2581643 0.53677
vn -0.5228338 0.3381518 -0.7824948
vn -0.376492 0.7353875 -0.563435
vn -0.6776661 0.7353698 6.913778E-06
vn -0.6654288 0.3382175 0.6654423
vn -0.1862671 0.2972309 -0.9364606
vn -0.5304873 0.297235 0.7938732
vn 0.7867896 0.323333 0.5257547
vn -0.3765416 0.7353489 -0.5634522
vn 0.9410698 0.3382124 1.443146E-05
vn 0.5634993 0.7353382 -0.3764921
vn -0.5228415 0.3381712 -0.7824813
vn 0.9548059 0.2972303 -1.749548E-05
vn -0.1862479 0.297259 -0.9364555
vn 0.7868065 0.3233969 0.52569
vn -0.5227931 0.3381766 -0.7825113
vn -0.3764815 0.7353569 -0.563482
vn -0.4808062 0.5008759 -0.7196866
vn -0.3653972 0.2972259 -0.8821234
vn -0.1862771 0.2972368 -0.9364567
vn -0.362129 0.3233702 -0.8742393
vn 0.7867946 0.3233379 0.5257442
vn -2.4423E-05 -1 2.241135E-05
vn 0.683146 0.2581673 0.683126
vn 0.6831376 0.2581547 -0.6831392
vn 0.7855455 0.3277279 -0.5248931
vn 0.6691089 0.3233553 0.6691297
vn 0.9229918 0.3382154 -0.183566
vn 0.6654778 0.3381639 0.6654205
vn -0.9661089 0.2581352 2.610207E-06
vn 2.160668E-05 -1 -1.309812E-05
vn 0.6831442 0.2582115 0.6831112
vn -0.9447597 0.3277638 6.222416E-05
vn 0.6691229 0.3233953 0.6690965
vn -0.6654473 0.3381765 0.6654447
vn 0.6654423 0.3381452 0.6654656
vn 0.6831358 0.2581686 0.6831357
vn 1.867861E-05 -1 6.434321E-05
vn 0.3817743 0.06632248 0.921873
vn 0.6691276 0.3233428 0.6691171
vn 0.3697044 0.2581702 0.8925619
vn 0.6654445 0.338122 0.6654751
vn 0.5304402 0.2973126 0.7938756
vn 0.1865096 -0.8732023 -0.4502576
vn 0.3697197 0.2581843 -0.8925515
vn -0.8925748 0.2581504 -0.3696869
vn -0.5257381 0.3233813 -0.7867808
vn 0.3615822 0.3277071 -0.8728495
vn 0.1862988 0.2972347 -0.936453
vn 0.3620995 0.3234065 -0.8742381
vn 0.9786258 0.06630205 -0.1946679
vn 0.1865239 -0.8731593 -0.4503352
vn 0.3696807 0.2582332 -0.8925536
vn 0.9475508 0.2581381 -0.188447
vn 0.3615676 0.3277307 -0.8728468
vn 0.6690938 0.3234249 -0.6691111
vn 0.3621191 0.3233223 -0.8742611
vn 0.3697147 0.2581737 -0.8925567
vn 0.1865018 -0.8731558 -0.4503511
vn 0.1884415 -0.2578583 -0.947628
vn 0.3616102 0.3277292 -0.8728297
vn 0.1946058 0.06633878 -0.9786357
vn 0.3621753 0.323287 -0.8742508
vn 0.1842408 0.3277134 -0.9266387
vn -0.3450364 -0.9385893 -7.234152E-06
vn -0.9475306 0.2581666 -0.1885096
vn -0.9476269 -0.2578242 -0.1884935
vn -0.8925519 0.2581954 -0.3697111
vn -0.8728521 0.3277336 -0.3615519
vn -0.8742328 0.3233766 -0.362139
vn -0.8820893 0.2973159 -0.3654063
vn -0.3697028 0.2581598 0.8925655
vn -0.3449946 -0.9386047 4.634297E-05
vn -0.94754 0.2581704 -0.1884565
vn -0.5248755 0.327757 0.7855451
vn -0.8728617 0.3277053 -0.3615545
vn -0.9547988 0.2972531 6.304706E-06
vn -0.8821139 0.2972591 -0.365393
vn -0.9475385 0.2581603 -0.1884783
vn -0.3449822 -0.9386092 -1.724029E-05
vn -3.380856E-05 0.06637428 -0.9977948
vn -0.8728464 0.3277408 -0.3615593
vn 2.420443E-05 0.2581651 -0.9661008
vn -0.882121 0.2972607 -0.3653746
vn -0.3620999 0.3233372 -0.8742635
vn 0.3621119 0.3233416 0.8742569
vn 0.3653918 0.2972565 0.8821153
vn 0.8821208 0.2972537 -0.3653808
vn 0.7996366 0.5008771 -0.3312151
vn 0.3312111 0.5009004 0.7996237
vn 0.3692323 0.9293371 -1.332406E-06
vn 0.1412708 0.9293231 0.341176
vn -0.954811 0.2972136 -2.644059E-05
vn 0.3621294 0.3233886 0.8742323
vn 0.3654088 0.2972857 0.8820984
vn -0.9229983 0.3381561 -0.1836427
vn 0.3311644 0.5008612 0.7996676
vn -0.362128 0.9293381 0.07206974
vn 0.1413371 0.9293299 0.34113
vn 0.3654046 0.2972599 0.8821089
vn 0.3621099 0.3233114 0.8742689
vn 0.1846074 0.3233288 0.9281049
vn 0.3311994 0.5008781 0.7996425
vn 0.1862563 0.2972237 0.936465
vn 0.141283 0.9293482 0.3411027
vn 0.1322028 0.7353501 0.6646673
vn 0.7824692 0.3381921 0.5228462
vn 0.944751 0.3277888 -5.350325E-05
vn 0.936447 0.297297 0.1862297
vn 0.7867972 0.3234299 0.5256837
vn 0.9661033 0.2581559 -2.4724E-05
vn 0.8728606 0.3277055 0.3615572
vn 0.3384142 -0.9385837 0.06735373
vn 2.508861E-05 0.2581379 0.9661081
vn 0.3383275 -0.9386202 0.06728051
vn 0.8728718 0.3277043 0.3615311
vn 0.1842775 0.3277771 0.9266089
vn 0.786816 0.3233348 0.5257141
vn 0.5227799 0.3381873 0.7825155
vn 0.7824621 0.3382134 0.5228431
vn 0.3383951 -0.9385902 0.0673589
vn 0.8728572 0.3277361 0.3615376
vn -0.5248894 0.3277722 -0.7855294
vn -0.3654058 0.2972235 -0.8821205
vn 0.7867951 0.3233975 0.5257066
vn 0.8488637 0.5009179 0.1688541
vn 0.7824721 0.3381694 0.5228564
vn 0.928083 0.3234044 0.1845849
vn 0.7824512 0.338172 0.5228861
vn -0.9229865 0.3381953 -0.1836298
vn -0.9280836 0.3233956 -0.1845971
vn 0.9447637 0.3277521 6.026881E-06
vn -0.8728771 0.3276875 -0.3615337
vn 0.9475169 0.2582292 -0.1884924
vn 0.7825041 0.33821 0.5227823
vn 0.7855318 0.3277071 -0.5249266
vn 0.7938977 0.2972818 -0.5304244
vn 0.928098 0.3233249 0.1846485
vn 0.7855237 0.3277434 -0.5249161
vn 0.9447722 0.3277277 -1.662289E-05
vn 0.9475281 0.2581685 -0.1885198
vn 0.9280998 0.3233454 0.1846037
vn 0.7824666 0.3381637 0.5228685
vn 0.3653175 0.2972841 0.8821368
vn 0.3620716 0.3233271 0.874279
vn 0.9447667 0.3277436 2.30291E-05
vn 0.3614826 0.3277316 0.8728817
vn 0.9475258 0.2582167 -0.1884651
vn 0.9266095 0.3277844 0.1842611
vn 0.786796 0.3233543 -0.5257319
vn -0.5257109 0.3233889 -0.7867959
vn -0.3653819 0.2972687 -0.8821153
vn 0.6751513 0.297231 -0.6751477
vn 0.1688295 0.5008594 -0.8489031
vn 0.6120127 0.5008725 -0.6120189
vn 0.184641 0.3233857 0.9280784
vn 0.9266226 0.3277141 0.1843207
vn 0.7868005 0.3233678 -0.525717
vn 0.1862696 0.2972595 0.936451
vn 0.6751295 0.2972675 -0.6751535
vn 0.6646712 0.7353561 -0.13215
vn 0.6120245 0.5009087 -0.6119776
vn 0.7868038 0.3233446 -0.5257263
vn 0.9266059 0.327724 0.1843868
vn 0.8728333 0.327762 -0.3615718
vn 0.6751622 0.2972288 -0.6751379
vn 0.8742061 0.3234105 -0.3621731
vn 0.6120209 0.5008678 -0.6120146
vn 0.78249 0.3381879 -0.5228177
vn 0.2439609 -0.9385881 0.243999
vn 0.1843332 0.3277345 0.9266129
vn 1.916784E-05 0.2581563 -0.9661032
vn -0.3621127 0.3233837 -0.8742411
vn -0.3621474 0.3233278 0.8742473
vn -0.6120531 0.500821 -0.6120207
vn -0.5635135 0.7353433 0.3764609
vn -0.6831154 0.258135 0.6831689
vn 0.2439033 -0.9386063 0.2439866
vn 0.1842672 0.3277378 0.9266248
vn -0.6680578 0.3277164 0.6680574
vn -0.3620895 0.3233986 0.8742452
vn -0.7824847 0.3381675 0.5228388
vn -0.5634657 0.7354052 0.3764117
vn 0.1842818 0.3277189 0.9266286
vn 0.2439211 -0.9385991 0.2439964
vn 0.8032869 0.2581469 0.5367404
vn -0.3621323 0.3233093 0.8742604
vn 0.7868357 0.3233571 0.5256708
vn -0.5634147 0.7354168 0.3764653
vn 0.6120111 0.5009151 0.6119857
vn -0.3615268 0.3277282 -0.8728646
vn -0.3620941 0.3233883 -0.874247
vn -0.7868112 0.3233328 -0.5257223
vn -0.7939122 0.2972071 -0.5304444
vn -0.3601381 0.3381889 -0.8694417
vn -0.563428 0.7353868 -0.376504
vn -0.2051125 0.9293362 -0.3070229
vn 0.1846275 0.3233296 0.9281006
vn -0.3615501 0.3277853 -0.8728335
vn -0.3621277 0.3233513 -0.8742468
vn 1.550497E-05 0.3382088 0.9410711
vn -0.360153 0.3381897 -0.8694352
vn -0.2051309 0.9293485 0.3069735
vn -0.2051372 0.92935 -0.3069648
vn -0.3621058 0.3233836 -0.874244
vn -0.3615527 0.327732 -0.8728524
vn 0.5257344 0.3233272 -0.7868056
vn -0.3601176 0.338169 -0.869458
vn 0.5304453 0.2973028 -0.7938758
vn -0.2051309 0.9293408 -0.3069968
vn 0.3312579 0.5008587 -0.7996304
vn -0.1538862 -0.9827304 0.1027615
vn -0.9218619 0.06629673 0.3818055
vn -0.8033334 -0.2578084 -0.5368336
vn -0.8925438 0.2582142 -0.3697176
vn -0.8925896 0.2581085 0.3696808
vn -0.9447565 0.3277731 -2.712693E-05
vn -0.8728615 0.3277375 0.3615258
vn -0.4502369 -0.7710927 0.4502255
vn -0.1538701 -0.9827284 0.1028049
vn -0.9218349 0.06636777 0.3818582
vn -0.8033467 -0.2578903 0.5367743
vn -0.8925593 0.2581448 0.3697285
vn -0.8925581 0.2581597 0.3697211
vn -0.8728429 0.3277728 0.3615388
vn -0.9218526 0.06641278 0.3818075
vn -0.1538185 -0.9827388 0.1027829
vn 1.844269E-05 0.2581604 0.9661021
vn -0.892576 0.2581715 0.3696696
vn -0.1843427 0.3277737 0.9265971
vn -0.8728749 0.3277429 0.3614888
vn -0.7855288 0.327778 0.5248867
vn 0.4752648 0.6495522 -0.5934689
vn 0.6894456 0.6666135 0.2833571
vn 0.7477514 0.5974358 0.2897213
vn 0.4891475 0.5832452 -0.6485059
vn -0.2349833 0.04062968 -0.9711499
vn 0.7692298 0.5783197 0.2717202
vn -0.2985148 -0.007303863 -0.9543771
vn -0.7383088 -0.6035635 -0.3010171
vn 0.5037124 0.6012259 -0.6203236
vn -0.6802333 0.6951122 0.2325976
vn -0.7874305 -0.5517114 -0.2748962
vn -0.4885351 -0.5686077 0.6618298
vn -0.2761885 0.07179942 -0.9584179
vn -0.6802333 0.6951122 0.2325976
vn -0.5440786 -0.553358 0.6306928
vn 0.2629035 0.1060167 0.9589797
vn -0.7837855 -0.5458037 -0.2962748
vn 0.2312481 0.009306939 0.9728503
vn 0.6894456 0.6666135 0.2833571
vn 0.7477514 0.5974358 0.2897213
vn -0.5086383 -0.5743715 0.6413926
vn -0.6802333 0.6951122 0.2325976
vn 0.2901098 0.0181692 0.9568208
vn 0.7692298 0.5783197 0.2717202
vn -0.5403345 -0.4981686 0.6781346
vn -0.8398679 0.4625384 0.2840425
vn -0.8886699 0.2977988 0.3486857
vn -0.347425 -0.3378769 0.87472
vn 0.3382385 -0.8679577 0.363654
vn 0.3343794 0.9293837 0.1563215
vn 0.4778123 -0.6232345 0.6190914
vn 0.8945646 -0.3414018 -0.2884423
vn 0.9029692 -0.4093364 -0.1307305
vn 0.5335859 0.5768092 -0.6185284
vn 0.5121633 0.303589 -0.8034441
vn -0.2733155 0.9046921 -0.3268498
vn -0.5009983 0.6981465 -0.511461
vn -0.8886699 0.2977988 0.3486857
vn -0.8398679 0.4625384 0.2840425
vn 0.1919042 -0.3758322 -0.9065996
vn 0.7022554 0.4588064 -0.5443656
vn 0.5854787 0.5050893 -0.6341131
vn 0.06620462 -0.2911955 -0.95437
vn -0.5399327 -0.7836221 -0.3072606
vn -0.8398869 0.5316651 -0.1091892
vn -0.5064277 -0.7926131 -0.339552
vn -0.7257289 -0.3413775 0.5973098
vn -0.6168362 -0.5234437 0.5878094
vn -0.125223 0.5168549 0.846865
vn -0.06849147 0.4080224 0.9103992
vn 0.5161895 0.8163866 0.2589621
vn 0.5078905 0.8309829 0.2269683
vn 0.5854787 0.5050893 -0.6341131
vn 0.7022554 0.4588064 -0.5443656
vn 0.7826759 -0.07920574 0.6173693
vn -0.09195727 0.2169563 0.9718404
vn -0.148789 0.3438735 0.9271531
vn 0.633426 -0.2366758 0.7367198
vn 0.859224 -0.2863506 -0.4239546
vn 0.7586597 0.642083 -0.1102946
vn 0.754688 -0.5384348 -0.3748787
vn 0.05351072 -0.1738568 -0.983316
vn 0.05133858 -0.1606298 -0.9856787
vn -0.7995912 0.1199183 -0.5884501
vn -0.69969 0.3311158 -0.6330848
vn -0.8575724 0.3152637 0.4064214
vn -0.7737368 0.5567699 0.3022227
vn -0.148789 0.3438735 0.9271531
vn -0.09195727 0.2169563 0.9718404
vn 0.7114996 -0.6530145 -0.2595004
vn 0.9187604 0.1721262 0.3553195
vn 0.9462146 -0.02713245 0.3223999
vn 0.7116791 -0.5096646 -0.483482
vn -0.2133415 -0.7598171 -0.6141364
vn 0.2199456 0.958392 -0.1819581
vn -0.08950864 -0.4985381 -0.8622342
vn 0.2199456 0.958392 -0.1819581
vn -0.9284456 -0.05132341 -0.3679059
vn -0.8370379 -0.04794044 -0.5450405
vn -0.6375911 0.7301334 0.2457293
vn -0.8042107 0.5027816 0.3169476
vn 0.2226885 0.797166 0.5611918
vn 0.1508436 0.5485718 0.8223839
vn 0.2199456 0.958392 -0.1819581
vn 0.9462146 -0.02713245 0.3223999
vn 0.9187604 0.1721262 0.3553195
vn 0.527987 0.5610257 0.6375578
vn -0.08733439 -0.1972245 0.9764605
vn -0.1938063 -0.1867109 0.9631086
vn 0.5057203 0.5068226 0.6981245
vn 0.5952006 0.7689237 -0.2334365
vn -0.6453387 0.7621128 -0.05217396
vn 0.6602749 0.7114284 -0.2406382
vn 0.1321132 0.3473803 -0.9283712
vn 0.1348637 0.2067241 -0.9690598
vn -0.5332665 -0.4547966 -0.713293
vn -0.5676923 -0.5063492 -0.6491039
vn -0.6361295 -0.7263987 0.2601619
vn -0.7043718 -0.6527507 0.2788855
vn -0.1938063 -0.1867109 0.9631086
vn -0.08733439 -0.1972245 0.9764605
vn 0.9754836 0.1359081 0.1730916
vn 0.4177274 -0.6197838 0.6643583
vn -0.186101 0.6294957 0.7543882
vn -0.5685666 -0.6775068 0.4666011
vn -0.9780872 0.01680464 -0.2075165
vn -0.3292276 0.7066898 -0.6262578
vn 0.5462435 0.72132 -0.4258115
vn 0.9754836 0.1359081 0.1730916
vn -0.8628207 -0.04155007 -0.5037995
vn -0.8418191 -0.2922054 -0.4538245
vn -0.04614352 -0.3767218 -0.9251764
vn 0.009332065 -0.1082318 -0.9940819
vn 0.7604669 -0.4572583 -0.4610912
vn 0.007021819 0.08787069 -0.9961072
vn -0.8582912 0.12566 -0.4975398
vn 0.8553741 -0.1676268 -0.4901393
vn 0.7608356 -0.4574378 0.4603041
vn 0.8666331 0.05352152 -0.4960672
vn 0.001197114 0.03369954 -0.9994313
vn -0.8622623 0.03392323 -0.5053246
vn 0.8557929 -0.1677067 0.4893802
vn -0.04645903 -0.3766244 0.9252003
vn 0.8665803 0.05561068 0.4959295
vn 0.8629686 0.01385937 -0.5050674
vn 0.00338281 0.03044715 -0.9995307
vn -0.8714571 0.01547979 -0.4902273
vn 0.008921148 -0.1082091 0.9940882
vn -0.8412225 -0.2918169 0.4551786
vn 0.006926606 0.09172101 0.9957606
vn 0.8697659 -0.006169049 0.4934261
vn 0.8727135 0.0285357 -0.4873981
vn -0.01590856 0.01310149 -0.9997876
vn -0.8768699 0.008760817 -0.480648
vn -0.0008576307 0.9997479 -0.02243808
vn 0.8698757 0.03127275 -0.4922787
vn -0.8621271 -0.04149096 0.5049905
vn -0.8418191 -0.2922054 -0.4538245
vn -0.8628207 -0.04155007 -0.5037995
vn -0.8582912 0.12566 -0.4975398
vn -0.8568146 0.1273084 0.4996611
vn -0.8622623 0.03392323 -0.5053246
vn -0.8689699 0.01381992 0.4946719
vn -0.8714571 0.01547979 -0.4902273
vn 0.8704453 0.04857171 0.4898632
vn 0.0007877315 -0.006449024 0.9999789
vn -0.8631685 0.0001375371 0.5049159
vn -0.8768699 0.008760817 -0.480648
vn 0.8655971 0.01185169 0.5006008
vn 0.005892614 -0.00177692 0.999981
vn -0.8731516 0.02520069 0.4867969
vn -0.006991269 0.0479554 0.998825
vt 0.4662382 0
vt 0.4662382 0.2737632
vt 0.8936397 0.2185459
vt 0.9201697 0.6126727
vt 0.4662382 0.520349
vt 0.7215343 1
vt 0.4662382 1
vt 0.4566118 1
vt 0.03668875 0.4114947
vt 0.104808 0.9055027
vt 0.4566118 0.520349
vt 0.145527 0.1591069
vt 0.4566118 0.2737632
vt 0.4566118 0
vt 0.882799 0.2033273
vt 0.4589814 0
vt 0.4589814 0.2737632
vt 0.9658197 0.529703
vt 0.4589814 0.520349
vt 0.7204024 1
vt 0.4589814 1
vt 0.4662382 0
vt 0.4662382 0.2737632
vt 0.8936397 0.2185459
vt 0.9201697 0.6126727
vt 0.4662382 0.520349
vt 0.7215343 1
vt 0.4662382 1
vt 0.4566118 0.2737632
vt 0.4566118 0
vt 0.145527 0.1591069
vt 0.4566118 0.520349
vt 0.03668875 0.4114947
vt 0.4566118 1
vt 0.104808 0.9055027
vt 0.882799 0.2033273
vt 0.4589814 0
vt 0.4589814 0.2737632
vt 0.9658197 0.529703
vt 0.4589814 0.520349
vt 0.7204024 1
vt 0.4589814 1
vt 0.882799 0.2033273
vt 0.4589814 0
vt 0.4589814 0.2737632
vt 0.9658197 0.529703
vt 0.4589814 0.520349
vt 0.7204024 1
vt 0.4589814 1
vt 0.4662382 0
vt 0.4662382 0.2737632
vt 0.8936397 0.2185459
vt 0.9201697 0.6126727
vt 0.4662382 0.520349
vt 0.7215343 1
vt 0.4662382 1
vt 0.4566118 0.2737632
vt 0.4566118 0
vt 0.145527 0.1591069
vt 0.4566118 0.520349
vt 0.03668875 0.4114947
vt 0.4566118 1
vt 0.104808 0.9055027
vt 0.882799 0.2033273
vt 0.4589814 0
vt 0.4589814 0.2737632
vt 0.9658197 0.529703
vt 0.4589814 0.520349
vt 0.7204024 1
vt 0.4589814 1
vt 0.4662382 0
vt 0.4662382 0.2737632
vt 0.8936397 0.2185459
vt 0.9201697 0.6126727
vt 0.4662382 0.520349
vt 0.7215343 1
vt 0.4662382 1
vt 0.4566118 0.2737632
vt 0.4566118 0
vt 0.145527 0.1591069
vt 0.4566118 0.520349
vt 0.03668875 0.4114947
vt 0.4566118 1
vt 0.104808 0.9055027
vt 0.4662382 0
vt 0.4662382 0.2737632
vt 0.8936397 0.2185459
vt 0.9201697 0.6126727
vt 0.4662382 0.520349
vt 0.7215343 1
vt 0.4662382 1
vt 0.882799 0.2033273
vt 0.4589814 0
vt 0.4589814 0.2737632
vt 0.9658197 0.529703
vt 0.4589814 0.520349
vt 0.7204024 1
vt 0.4589814 1
vt 0.4566118 0.2737632
vt 0.4566118 0
vt 0.145527 0.1591069
vt 0.4566118 0.520349
vt 0.03668875 0.4114947
vt 0.4566118 1
vt 0.104808 0.9055027
vt 0.4589814 0.520349
vt 0.4589814 1
vt 0.7204024 1
vt 0.9658197 0.529703
vt 0.4589814 0.2737632
vt 0.882799 0.2033273
vt 0.4589814 0
vt 0.4566118 1
vt 0.03668875 0.4114947
vt 0.104808 0.9055027
vt 0.4566118 0.520349
vt 0.145527 0.1591069
vt 0.4566118 0.2737632
vt 0.4566118 0
vt 0.4662382 0.520349
vt 0.4662382 1
vt 0.7215343 1
vt 0.9201697 0.6126727
vt 0.4662382 0.2737632
vt 0.8936397 0.2185459
vt 0.4662382 0
vt 0.4662382 0
vt 0.4662382 0.2737632
vt 0.8936397 0.2185459
vt 0.9201697 0.6126727
vt 0.4662382 0.520349
vt 0.7215343 1
vt 0.4662382 1
vt 0.882799 0.2033273
vt 0.4589814 0
vt 0.4589814 0.2737632
vt 0.9658197 0.529703
vt 0.4589814 0.520349
vt 0.7204024 1
vt 0.4589814 1
vt 0.4566118 0.2737632
vt 0.4566118 0
vt 0.145527 0.1591069
vt 0.4566118 0.520349
vt 0.03668875 0.4114947
vt 0.4566118 1
vt 0.104808 0.9055027
vt 0.4662382 0
vt 0.4662382 0.2737632
vt 0.8936397 0.2185459
vt 0.9201697 0.6126727
vt 0.4662382 0.520349
vt 0.7215343 1
vt 0.4662382 1
vt 0.882799 0.2033273
vt 0.4589814 0
vt 0.4589814 0.2737632
vt 0.9658197 0.529703
vt 0.4589814 0.520349
vt 0.7204024 1
vt 0.4589814 1
vt 0.4566118 0.2737632
vt 0.4566118 0
vt 0.145527 0.1591069
vt 0.4566118 0.520349
vt 0.03668875 0.4114947
vt 0.4566118 1
vt 0.104808 0.9055027
vt 0.4662382 0
vt 0.4662382 0.2737632
vt 0.8936397 0.2185459
vt 0.9201697 0.6126727
vt 0.4662382 0.520349
vt 0.7215343 1
vt 0.4662382 1
vt 0.882799 0.2033273
vt 0.4589814 0
vt 0.4589814 0.2737632
vt 0.9658197 0.529703
vt 0.4589814 0.520349
vt 0.7204024 1
vt 0.4589814 1
vt 0.4566118 0.2737632
vt 0.4566118 0
vt 0.145527 0.1591069
vt 0.4566118 0.520349
vt 0.03668875 0.4114947
vt 0.4566118 1
vt 0.104808 0.9055027
vt 0.4662382 0
vt 0.4662382 0.2737632
vt 0.8936397 0.2185459
vt 0.9201697 0.6126727
vt 0.4662382 0.520349
vt 0.7215343 1
vt 0.4662382 1
vt 0.882799 0.2033273
vt 0.4589814 0
vt 0.4589814 0.2737632
vt 0.9658197 0.529703
vt 0.4589814 0.520349
vt 0.7204024 1
vt 0.4589814 1
vt 0.4566118 0.2737632
vt 0.4566118 0
vt 0.145527 0.1591069
vt 0.4566118 0.520349
vt 0.03668875 0.4114947
vt 0.4566118 1
vt 0.104808 0.9055027
vt 0.4566118 1
vt 0.03668875 0.4114947
vt 0.104808 0.9055027
vt 0.4566118 0.520349
vt 0.145527 0.1591069
vt 0.4566118 0.2737632
vt 0.4566118 0
vt 0.882799 0.2033273
vt 0.4589814 0
vt 0.4589814 0.2737632
vt 0.9658197 0.529703
vt 0.4589814 0.520349
vt 0.7204024 1
vt 0.4589814 1
vt 0.4662382 0
vt 0.4662382 0.2737632
vt 0.8936397 0.2185459
vt 0.9201697 0.6126727
vt 0.4662382 0.520349
vt 0.7215343 1
vt 0.4662382 1
vt 0.4662382 0.520349
vt 0.4662382 1
vt 0.7215343 1
vt 0.9201697 0.6126727
vt 0.4662382 0.2737632
vt 0.8936397 0.2185459
vt 0.4662382 0
vt 0.4566118 1
vt 0.03668875 0.4114947
vt 0.104808 0.9055027
vt 0.4566118 0.520349
vt 0.145527 0.1591069
vt 0.4566118 0.2737632
vt 0.4566118 0
vt 0.4589814 0.520349
vt 0.4589814 1
vt 0.7204024 1
vt 0.9658197 0.529703
vt 0.4589814 0.2737632
vt 0.882799 0.2033273
vt 0.4589814 0
vt 0.4662382 0
vt 0.4662382 0.2737632
vt 0.8936397 0.2185459
vt 0.9201697 0.6126727
vt 0.4662382 0.520349
vt 0.7215343 1
vt 0.4662382 1
vt 0.882799 0.2033273
vt 0.4589814 0
vt 0.4589814 0.2737632
vt 0.9658197 0.529703
vt 0.4589814 0.520349
vt 0.7204024 1
vt 0.4589814 1
vt 0.4566118 0.2737632
vt 0.4566118 0
vt 0.145527 0.1591069
vt 0.4566118 0.520349
vt 0.03668875 0.4114947
vt 0.4566118 1
vt 0.104808 0.9055027
vt 0.4662382 0
vt 0.4662382 0.2737632
vt 0.8936397 0.2185459
vt 0.9201697 0.6126727
vt 0.4662382 0.520349
vt 0.7215343 1
vt 0.4662382 1
vt 0.882799 0.2033273
vt 0.4589814 0
vt 0.4589814 0.2737632
vt 0.9658197 0.529703
vt 0.4589814 0.520349
vt 0.7204024 1
vt 0.4589814 1
vt 0.4566118 0.2737632
vt 0.4566118 0
vt 0.145527 0.1591069
vt 0.4566118 0.520349
vt 0.03668875 0.4114947
vt 0.4566118 1
vt 0.104808 0.9055027
vt 0.4662382 0
vt 0.4662382 0.2737632
vt 0.8936397 0.2185459
vt 0.9201697 0.6126727
vt 0.4662382 0.520349
vt 0.7215343 1
vt 0.4662382 1
vt 0.882799 0.2033273
vt 0.4589814 0
vt 0.4589814 0.2737632
vt 0.9658197 0.529703
vt 0.4589814 0.520349
vt 0.7204024 1
vt 0.4589814 1
vt 0.4566118 0.2737632
vt 0.4566118 0
vt 0.145527 0.1591069
vt 0.4566118 0.520349
vt 0.03668875 0.4114947
vt 0.4566118 1
vt 0.104808 0.9055027
vt 0.4662382 0
vt 0.4662382 0.2737632
vt 0.8936397 0.2185459
vt 0.9201697 0.6126727
vt 0.4662382 0.520349
vt 0.7215343 1
vt 0.4662382 1
vt 0.882799 0.2033273
vt 0.4589814 0
vt 0.4589814 0.2737632
vt 0.9658197 0.529703
vt 0.4589814 0.520349
vt 0.7204024 1
vt 0.4589814 1
vt 0.4566118 0.2737632
vt 0.4566118 0
vt 0.145527 0.1591069
vt 0.4566118 0.520349
vt 0.03668875 0.4114947
vt 0.4566118 1
vt 0.104808 0.9055027
vt 0.6261795 0.2094563
vt 0.6216183 0.2097825
vt 0.6255819 0.2419403
vt 0.6288112 0.241818
vt 0.6302742 0.2098042
vt 0.6294221 0.3220461
vt 0.6318079 0.2422741
vt 0.6345599 0.2102066
vt 0.6313522 0.3219905
vt 0.6353217 0.4027951
vt 0.6347576 0.242643
vt 0.6392073 0.2101237
vt 0.6331627 0.3224061
vt 0.6353217 0.4027951
vt 0.6379139 0.2425746
vt 0.643337 0.2097243
vt 0.6349757 0.3228336
vt 0.6408328 0.2421767
vt 0.6475849 0.2096793
vt 0.6438515 0.2418642
vt 0.6369572 0.3228009
vt 0.6353217 0.4027951
vt 0.6387773 0.3223514
vt 0.64057 0.3219967
vt 0.6066378 0.3662177
vt 0.6117864 0.3672045
vt 0.6151101 0.2999391
vt 0.6125333 0.2992052
vt 0.6002768 0.3654434
vt 0.6217256 0.2080643
vt 0.6095353 0.298738
vt 0.5943814 0.3651241
vt 0.6064385 0.2986276
vt 0.5897265 0.3647677
vt 0.6037006 0.298704
vt 0.5847089 0.3636706
vt 0.6005705 0.2981264
vt 0.597589 0.2969725
vt 0.5799233 0.361887
vt 0.700453 0.3323267
vt 0.7031301 0.3330798
vt 0.7050377 0.29096
vt 0.7035071 0.2904965
vt 0.6972857 0.3315663
vt 0.7105913 0.2136144
vt 0.7018257 0.2900388
vt 0.694348 0.3313657
vt 0.6999997 0.2899127
vt 0.691724 0.3315501
vt 0.6983706 0.2900641
vt 0.6886165 0.3314366
vt 0.6966131 0.2900534
vt 0.6948631 0.2896037
vt 0.6855875 0.3306508
vt 0.6816433 0.3447151
vt 0.6846796 0.3451877
vt 0.689956 0.2607047
vt 0.6881983 0.2599744
vt 0.6788716 0.3444208
vt 0.689845 0.2123187
vt 0.6866296 0.2598892
vt 0.6758568 0.3443183
vt 0.684698 0.2603902
vt 0.6724983 0.3442178
vt 0.6828791 0.2608016
vt 0.6691601 0.3438528
vt 0.6813621 0.2605616
vt 0.6796607 0.2596449
vt 0.6658693 0.3431419
vt 0.574553 0.3611552
vt 0.5798958 0.3623289
vt 0.5844111 0.2900315
vt 0.5813405 0.289702
vt 0.5680249 0.3600166
vt 0.5890866 0.2060258
vt 0.57802 0.2891349
vt 0.5890866 0.2060258
vt 0.5618505 0.3594826
vt 0.5749596 0.2885602
vt 0.5568026 0.3591875
vt 0.5718935 0.2880337
vt 0.5514392 0.3582276
vt 0.5684039 0.2874257
vt 0.5890866 0.2060258
vt 0.5652329 0.2867487
vt 0.5464732 0.3565736
vt 0.687987 0.3326833
vt 0.6854109 0.3334779
vt 0.6895128 0.3705136
vt 0.6910209 0.3699212
vt 0.6908731 0.3323143
vt 0.6957902 0.4344502
vt 0.692736 0.369694
vt 0.6936696 0.332562
vt 0.6944094 0.3699705
vt 0.6962321 0.3330856
vt 0.6959774 0.3704211
vt 0.6992244 0.3333588
vt 0.6976897 0.3705751
vt 0.6993436 0.3703302
vt 0.7021167 0.3331557
vt 0.6741013 0.2113354
vt 0.6699201 0.2119714
vt 0.6658047 0.3441768
vt 0.6652108 0.212244
vt 0.6607125 0.2118224
vt 0.6565068 0.2112234
vt 0.6518024 0.2113227
vt 0.647418 0.2123526
vt 0.5546587 0.225512
vt 0.5415643 0.2030578
vt 0.5332672 0.2076864
vt 0.538544 0.2299752
vt 0.5240391 0.2100188
vt 0.5339153 0.2741973
vt 0.54374 0.2744665
vt 0.526156 0.2324043
vt 0.5147285 0.2096473
vt 0.5241279 0.2743408
vt 0.5297382 0.3934356
vt 0.5372949 0.3937539
vt 0.5145453 0.2327959
vt 0.505094 0.2085841
vt 0.5144581 0.2739961
vt 0.5221475 0.3932666
vt 0.5257749 0.5769873
vt 0.531381 0.5774411
vt 0.5030692 0.2308943
vt 0.4957065 0.2062213
vt 0.5047442 0.2735304
vt 0.5145001 0.3932534
vt 0.5201693 0.5766535
vt 0.5212722 0.7089566
vt 0.5244805 0.7087076
vt 0.5148305 0.7885388
vt 0.5180517 0.709165
vt 0.4903525 0.228181
vt 0.4869758 0.2026251
vt 0.4738808 0.2257346
vt 0.485288 0.2744691
vt 0.4949524 0.2733878
vt 0.4914788 0.3937761
vt 0.4991669 0.3935378
vt 0.4977339 0.5774716
vt 0.5146236 0.7090955
vt 0.5068008 0.3933611
vt 0.5033793 0.5773028
vt 0.5047511 0.708735
vt 0.5145504 0.5766601
vt 0.5089625 0.5769623
vt 0.5081723 0.7084572
vt 0.5113664 0.7087744
usemtl MV_FirLeaves_Sapling
f 1/1/1 3/3/3 2/2/2
f 2/2/2 3/3/3 4/4/4
f 2/2/2 4/4/4 5/5/5
f 5/5/5 4/4/4 6/6/6
f 5/5/5 6/6/6 7/7/7
f 8/8/8 10/10/10 9/9/9
f 8/8/8 9/9/9 11/11/11
f 11/11/11 9/9/9 12/12/12
f 11/11/11 12/12/12 13/13/13
f 13/13/13 12/12/12 14/14/14
f 15/15/15 17/17/17 16/16/16
f 17/17/17 15/15/15 18/18/18
f 17/17/17 18/18/18 19/19/19
f 19/19/19 18/18/18 20/20/20
f 19/19/19 20/20/20 21/21/21
f 22/22/22 24/24/24 23/23/23
f 23/23/23 24/24/24 25/25/25
f 23/23/23 25/25/25 26/26/26
f 26/26/26 25/25/25 27/27/27
f 26/26/26 27/27/27 28/28/28
f 29/29/29 31/31/31 30/30/30
f 32/32/32 31/31/31 29/29/29
f 32/32/32 33/33/33 31/31/31
f 34/34/34 33/33/33 32/32/32
f 34/34/34 35/35/35 33/33/33
f 36/36/36 38/38/38 37/37/37
f 38/38/38 36/36/36 39/39/39
f 38/38/38 39/39/39 40/40/40
f 40/40/40 39/39/39 41/41/41
f 40/40/40 41/41/41 42/42/42
f 43/43/43 45/45/45 44/44/44
f 45/45/45 43/43/43 46/46/46
f 45/45/45 46/46/46 47/47/47
f 47/47/47 46/46/46 48/48/48
f 47/47/47 48/48/48 49/49/49
f 50/50/50 52/52/52 51/51/51
f 51/51/51 52/52/52 53/53/53
f 51/51/51 53/53/53 54/54/54
f 54/54/54 53/53/53 55/55/55
f 54/54/54 55/55/55 56/56/56
f 57/57/57 59/59/59 58/58/58
f 60/60/60 59/59/59 57/57/57
f 60/60/60 61/61/61 59/59/59
f 62/62/62 61/61/61 60/60/60
f 62/62/62 63/63/63 61/61/61
f 64/64/64 66/66/66 65/65/65
f 66/66/66 64/64/64 67/67/67
f 66/66/66 67/67/67 68/68/68
f 68/68/68 67/67/67 69/69/69
f 68/68/68 69/69/69 70/70/70
f 71/71/71 73/73/73 72/72/72
f 72/72/72 73/73/73 74/74/74
f 72/72/72 74/74/74 75/75/75
f 75/75/75 74/74/74 76/76/76
f 75/75/75 76/76/76 77/77/77
f 78/78/78 80/80/80 79/79/79
f 81/81/81 80/80/80 78/78/78
f 81/81/81 82/82/82 80/80/80
f 83/83/83 82/82/82 81/81/81
f 83/83/83 84/84/84 82/82/82
f 85/85/85 87/87/87 86/86/86
f 86/86/86 87/87/87 88/88/88
f 86/86/86 88/88/88 89/89/89
f 89/89/89 88/88/88 90/90/90
f 89/89/89 90/90/90 91/91/91
f 92/92/92 94/94/94 93/93/93
f 94/94/94 92/92/92 95/95/95
f 94/94/94 95/95/95 96/96/96
f 96/96/96 95/95/95 97/97/97
f 96/96/96 97/97/97 98/98/98
f 99/99/99 101/101/101 100/100/100
f 102/102/102 101/101/101 99/99/99
f 102/102/102 103/103/103 101/101/101
f 104/104/104 103/103/103 102/102/102
f 104/104/104 105/105/105 103/103/103
f 106/106/106 108/108/108 107/107/107
f 106/106/106 109/109/109 108/108/108
f 110/110/110 109/109/109 106/106/106
f 110/110/110 111/111/111 109/109/109
f 111/111/111 110/110/110 112/112/112
f 113/113/113 115/115/115 114/114/114
f 113/113/113 114/114/114 116/116/116
f 116/116/116 114/114/114 117/117/117
f 116/116/116 117/117/117 118/118/118
f 118/118/118 117/117/117 119/119/119
f 120/120/120 122/122/122 121/121/121
f 120/120/120 123/123/123 122/122/122
f 124/124/124 123/123/123 120/120/120
f 124/124/124 125/125/125 123/123/123
f 126/126/126 125/125/125 124/124/124
f 127/127/127 129/129/129 128/128/128
f 128/128/128 129/129/129 130/130/130
f 128/128/128 130/130/130 131/131/131
f 131/131/131 130/130/130 132/132/132
f 131/131/131 132/132/132 133/133/133
f 134/134/134 136/136/136 135/135/135
f 136/136/136 134/134/134 137/137/137
f 136/136/136 137/137/137 138/138/138
f 138/138/138 137/137/137 139/139/139
f 138/138/138 139/139/139 140/140/140
f 141/141/141 143/143/143 142/142/142
f 144/144/144 143/143/143 141/141/141
f 144/144/144 145/145/145 143/143/143
f 146/146/146 145/145/145 144/144/144
f 146/146/146 147/147/147 145/145/145
f 148/148/148 150/150/150 149/149/149
f 149/149/149 150/150/150 151/151/151
f 149/149/149 151/151/151 152/152/152
f 152/152/152 151/151/151 153/153/153
f 152/152/152 153/153/153 154/154/154
f 155/155/155 157/157/157 156/156/156
f 157/157/157 155/155/155 158/158/158
f 157/157/157 158/158/158 159/159/159
f 159/159/159 158/158/158 160/160/160
f 159/159/159 160/160/160 161/161/161
f 162/162/162 164/164/164 163/163/163
f 165/165/165 164/164/164 162/162/162
f 165/165/165 166/166/166 164/164/164
f 167/167/167 166/166/166 165/165/165
f 167/167/167 168/168/168 166/166/166
f 169/169/169 171/171/171 170/170/170
f 170/170/170 171/171/171 172/172/172
f 170/170/170 172/172/172 173/173/173
f 173/173/173 172/172/172 174/174/174
f 173/173/173 174/174/174 175/175/175
f 176/176/176 178/178/178 177/177/177
f 178/178/178 176/176/176 179/179/179
f 178/178/178 179/179/179 180/180/180
f 180/180/180 179/179/179 181/181/181
f 180/180/180 181/181/181 182/182/182
f 183/183/183 185/185/185 184/184/184
f 186/186/186 185/185/185 183/183/183
f 186/186/186 187/187/187 185/185/185
f 188/188/188 187/187/187 186/186/186
f 188/188/188 189/189/189 187/187/187
f 190/190/190 192/192/192 191/191/191
f 191/191/191 192/192/192 193/193/193
f 191/191/191 193/193/193 194/194/194
f 194/194/194 193/193/193 195/195/195
f 194/194/194 195/195/195 196/196/196
f 197/197/197 199/199/199 198/198/198
f 199/199/199 197/197/197 200/200/200
f 199/199/199 200/200/200 201/201/201
f 201/201/201 200/200/200 202/202/202
f 201/201/201 202/202/202 203/203/203
f 204/204/204 206/206/206 205/205/205
f 207/207/207 206/206/206 204/204/204
f 207/207/207 208/208/208 206/206/206
f 209/209/209 208/208/208 207/207/207
f 209/209/209 210/210/210 208/208/208
f 211/211/211 213/213/213 212/212/212
f 211/211/211 212/212/212 214/214/214
f 214/214/214 212/212/212 215/215/215
f 214/214/214 215/215/215 216/216/216
f 216/216/216 215/215/215 217/217/217
f 218/218/218 220/220/220 219/219/219
f 220/220/220 218/218/218 221/221/221
f 220/220/220 221/221/221 222/222/222
f 222/222/222 221/221/221 223/223/223
f 222/222/222 223/223/223 224/224/224
f 225/225/225 227/227/227 226/226/226
f 226/226/226 227/227/227 228/228/228
f 226/226/226 228/228/228 229/229/229
f 229/229/229 228/228/228 230/230/230
f 229/229/229 230/230/230 231/231/231
f 232/232/232 234/234/234 233/233/233
f 232/232/232 235/235/235 234/234/234
f 236/236/236 235/235/235 232/232/232
f 236/236/236 237/237/237 235/235/235
f 238/238/238 237/237/237 236/236/236
f 239/239/239 241/241/241 240/240/240
f 239/239/239 240/240/240 242/242/242
f 242/242/242 240/240/240 243/243/243
f 242/242/242 243/243/243 244/244/244
f 244/244/244 243/243/243 245/245/245
f 246/246/246 248/248/248 247/247/247
f 246/246/246 249/249/249 248/248/248
f 250/250/250 249/249/249 246/246/246
f 250/250/250 251/251/251 249/249/249
f 251/251/251 250/250/250 252/252/252
f 253/253/253 255/255/255 254/254/254
f 254/254/254 255/255/255 256/256/256
f 254/254/254 256/256/256 257/257/257
f 257/257/257 256/256/256 258/258/258
f 257/257/257 258/258/258 259/259/259
f 260/260/260 262/262/262 261/261/261
f 262/262/262 260/260/260 263/263/263
f 262/262/262 263/263/263 264/264/264
f 264/264/264 263/263/263 265/265/265
f 264/264/264 265/265/265 266/266/266
f 267/267/267 269/269/269 268/268/268
f 270/270/270 269/269/269 267/267/267
f 270/270/270 271/271/271 269/269/269
f 272/272/272 271/271/271 270/270/270
f 272/272/272 273/273/273 271/271/271
f 274/274/274 276/276/276 275/275/275
f 275/275/275 276/276/276 277/277/277
f 275/275/275 277/277/277 278/278/278
f 278/278/278 277/277/277 279/279/279
f 278/278/278 279/279/279 280/280/280
f 281/281/281 283/283/283 282/282/282
f 283/283/283 281/281/281 284/284/284
f 283/283/283 284/284/284 285/285/285
f 285/285/285 284/284/284 286/286/286
f 285/285/285 286/286/286 287/287/287
f 288/288/288 290/290/290 289/289/289
f 291/291/291 290/290/290 288/288/288
f 291/291/291 292/292/292 290/290/290
f 293/293/293 292/292/292 291/291/291
f 293/293/293 294/294/294 292/292/292
f 295/295/295 297/297/297 296/296/296
f 296/296/296 297/297/297 298/298/298
f 296/296/296 298/298/298 299/299/299
f 299/299/299 298/298/298 300/300/300
f 299/299/299 300/300/300 301/301/301
f 302/302/302 304/304/304 303/303/303
f 304/304/304 302/302/302 305/305/305
f 304/304/304 305/305/305 306/306/306
f 306/306/306 305/305/305 307/307/307
f 306/306/306 307/307/307 308/308/308
f 309/309/309 311/311/311 310/310/310
f 312/312/312 311/311/311 309/309/309
f 312/312/312 313/313/313 311/311/311
f 314/314/314 313/313/313 312/312/312
f 314/314/314 315/315/315 313/313/313
f 316/316/316 318/318/318 317/317/317
f 317/317/317 318/318/318 319/319/319
f 317/317/317 319/319/319 320/320/320
f 320/320/320 319/319/319 321/321/321
f 320/320/320 321/321/321 322/322/322
f 323/323/323 325/325/325 324/324/324
f 325/325/325 323/323/323 326/326/326
f 325/325/325 326/326/326 327/327/327
f 327/327/327 326/326/326 328/328/328
f 327/327/327 328/328/328 329/329/329
f 330/330/330 332/332/332 331/331/331
f 333/333/333 332/332/332 330/330/330
f 333/333/333 334/334/334 332/332/332
f 335/335/335 334/334/334 333/333/333
f 335/335/335 336/336/336 334/334/334
usemtl M_FirBark
f 337/337/337 339/339/339 338/338/338
f 337/337/337 340/340/340 339/339/339
f 341/341/341 340/340/340 337/337/337
f 340/340/340 342/342/342 339/339/339
f 341/341/341 343/343/343 340/340/340
f 344/344/344 343/343/343 341/341/341
f 340/340/340 345/345/345 342/342/342
f 343/343/343 345/345/345 340/340/340
f 345/345/345 346/346/346 342/342/342
f 344/344/344 347/347/347 343/343/343
f 348/348/348 347/347/347 344/344/344
f 343/343/343 349/349/349 345/345/345
f 347/347/347 349/349/349 343/343/343
f 349/349/349 350/350/350 345/345/345
f 348/348/348 351/351/351 347/347/347
f 352/352/352 351/351/351 348/348/348
f 347/347/347 353/353/353 349/349/349
f 353/353/353 350/350/350 349/349/349
f 351/351/351 353/353/353 347/347/347
f 352/352/352 354/354/354 351/351/351
f 355/355/355 354/354/354 352/352/352
f 355/355/355 356/356/356 354/354/354
f 351/351/351 357/357/357 353/353/353
f 354/354/354 357/357/357 351/351/351
f 357/357/357 358/358/358 353/353/353
f 359/359/359 350/350/350 357/357/357
f 354/354/354 359/359/359 357/357/357
f 356/356/356 359/359/359 354/354/354
f 360/360/360 350/350/350 359/359/359
f 356/356/356 360/360/360 359/359/359
f 361/361/361 363/363/363 362/362/362
f 361/361/361 364/364/364 363/363/363
f 365/365/365 364/364/364 361/361/361
f 364/364/364 366/366/366 363/363/363
f 365/365/365 367/367/367 364/364/364
f 367/367/367 366/366/366 364/364/364
f 368/368/368 367/367/367 365/365/365
f 368/368/368 369/369/369 367/367/367
f 369/369/369 366/366/366 367/367/367
f 370/370/370 369/369/369 368/368/368
f 370/370/370 371/371/371 369/369/369
f 371/371/371 366/366/366 369/369/369
f 372/372/372 371/371/371 370/370/370
f 373/373/373 366/366/366 371/371/371
f 372/372/372 373/373/373 371/371/371
f 374/374/374 366/366/366 373/373/373
f 375/375/375 373/373/373 372/372/372
f 375/375/375 374/374/374 373/373/373
f 376/376/376 378/378/378 377/377/377
f 376/376/376 379/379/379 378/378/378
f 380/380/380 379/379/379 376/376/376
f 379/379/379 381/381/381 378/378/378
f 380/380/380 382/382/382 379/379/379
f 382/382/382 381/381/381 379/379/379
f 383/383/383 382/382/382 380/380/380
f 383/383/383 384/384/384 382/382/382
f 384/384/384 381/381/381 382/382/382
f 385/385/385 384/384/384 383/383/383
f 385/385/385 386/386/386 384/384/384
f 386/386/386 381/381/381 384/384/384
f 387/387/387 386/386/386 385/385/385
f 388/388/388 381/381/381 386/386/386
f 387/387/387 388/388/388 386/386/386
f 389/389/389 381/381/381 388/388/388
f 390/390/390 388/388/388 387/387/387
f 390/390/390 389/389/389 388/388/388
f 391/391/391 393/393/393 392/392/392
f 391/391/391 394/394/394 393/393/393
f 395/395/395 394/394/394 391/391/391
f 394/394/394 396/396/396 393/393/393
f 395/395/395 397/397/397 394/394/394
f 397/397/397 396/396/396 394/394/394
f 398/398/398 397/397/397 395/395/395
f 398/398/398 399/399/399 397/397/397
f 399/399/399 396/396/396 397/397/397
f 400/400/400 399/399/399 398/398/398
f 400/400/400 401/401/401 399/399/399
f 401/401/401 396/396/396 399/399/399
f 402/402/402 401/401/401 400/400/400
f 403/403/403 396/396/396 401/401/401
f 402/402/402 403/403/403 401/401/401
f 404/404/404 396/396/396 403/403/403
f 405/405/405 403/403/403 402/402/402
f 405/405/405 404/404/404 403/403/403
f 406/406/406 408/408/408 407/407/407
f 406/406/406 409/409/409 408/408/408
f 410/410/410 409/409/409 406/406/406
f 409/409/409 411/411/411 408/408/408
f 410/410/410 412/412/412 409/409/409
f 412/412/412 413/413/413 409/409/409
f 414/414/414 412/412/412 410/410/410
f 414/414/414 415/415/415 412/412/412
f 415/415/415 411/411/411 412/412/412
f 416/416/416 415/415/415 414/414/414
f 417/417/417 411/411/411 415/415/415
f 416/416/416 417/417/417 415/415/415
f 418/418/418 417/417/417 416/416/416
f 418/418/418 419/419/419 417/417/417
f 419/419/419 420/420/420 417/417/417
f 421/421/421 411/411/411 419/419/419
f 422/422/422 419/419/419 418/418/418
f 422/422/422 421/421/421 419/419/419
f 423/423/423 425/425/425 424/424/424
f 423/423/423 426/426/426 425/425/425
f 427/427/427 426/426/426 423/423/423
f 426/426/426 428/428/428 425/425/425
f 427/427/427 429/429/429 426/426/426
f 429/429/429 428/428/428 426/426/426
f 430/430/430 429/429/429 427/427/427
f 430/430/430 431/431/431 429/429/429
f 431/431/431 428/428/428 429/429/429
f 432/432/432 431/431/431 430/430/430
f 432/432/432 433/433/433 431/431/431
f 433/433/433 428/428/428 431/431/431
f 434/434/434 433/433/433 432/432/432
f 435/435/435 428/428/428 433/433/433
f 434/434/434 435/435/435 433/433/433
f 436/436/436 428/428/428 435/435/435
f 437/437/437 435/435/435 434/434/434
f 437/437/437 436/436/436 435/435/435
f 438/438/438 440/440/440 439/439/439
f 439/439/439 440/440/440 441/441/441
f 441/441/441 440/440/440 442/442/442
f 442/442/442 440/440/440 443/443/443
f 443/443/443 440/440/440 444/444/444
f 444/444/444 440/440/440 445/445/445
f 446/446/446 448/448/448 447/447/447
f 446/446/446 449/449/449 448/448/448
f 449/449/449 450/450/450 448/448/448
f 446/446/446 451/451/451 449/449/449
f 446/446/446 452/452/452 451/451/451
f 449/449/449 453/453/453 450/450/450
f 453/453/453 454/454/454 450/450/450
f 449/449/449 451/451/451 455/455/455
f 449/449/449 455/455/455 453/453/453
f 452/452/452 456/456/456 451/451/451
f 452/452/452 457/457/457 456/456/456
f 453/453/453 458/458/458 454/454/454
f 458/458/458 459/459/459 454/454/454
f 453/453/453 455/455/455 460/460/460
f 453/453/453 460/460/460 458/458/458
f 451/451/451 461/461/461 455/455/455
f 451/451/451 456/456/456 461/461/461
f 457/457/457 462/462/462 456/456/456
f 457/457/457 463/463/463 462/462/462
f 458/458/458 464/464/464 459/459/459
f 464/464/464 465/465/465 459/459/459
f 458/458/458 460/460/460 466/466/466
f 458/458/458 466/466/466 464/464/464
f 455/455/455 467/467/467 460/460/460
f 455/455/455 461/461/461 467/467/467
f 456/456/456 468/468/468 461/461/461
f 456/456/456 462/462/462 468/468/468
f 463/463/463 469/469/469 462/462/462
f 463/463/463 470/470/470 469/469/469
f 470/470/470 471/471/471 469/469/469
f 462/462/462 469/469/469 472/472/472
f 462/462/462 472/472/472 468/468/468
f 469/469/469 471/471/471 472/472/472
f 464/464/464 473/473/473 465/465/465
f 473/473/473 474/474/474 465/465/465
f 473/473/473 475/475/475 474/474/474
f 473/473/473 476/476/476 475/475/475
f 464/464/464 477/477/477 473/473/473
f 473/473/473 477/477/477 476/476/476
f 477/477/477 478/478/478 476/476/476
f 464/464/464 466/466/466 477/477/477
f 477/477/477 479/479/479 478/478/478
f 466/466/466 479/479/479 477/477/477
f 479/479/479 480/480/480 478/478/478
f 468/468/468 472/472/472 481/481/481
f 472/472/472 471/471/471 481/481/481
f 466/466/466 482/482/482 479/479/479
f 460/460/460 482/482/482 466/466/466
f 460/460/460 467/467/467 482/482/482
f 479/479/479 483/483/483 480/480/480
f 482/482/482 483/483/483 479/479/479
f 483/483/483 484/484/484 480/480/480
f 468/468/468 481/481/481 485/485/485
f 461/461/461 468/468/468 485/485/485
f 461/461/461 485/485/485 467/467/467
f 467/467/467 486/486/486 482/482/482
f 482/482/482 486/486/486 483/483/483
f 467/467/467 485/485/485 486/486/486
f 483/483/483 487/487/487 484/484/484
f 487/487/487 471/471/471 484/484/484
f 486/486/486 487/487/487 483/483/483
f 485/485/485 481/481/481 488/488/488
f 481/481/481 471/471/471 488/488/488
f 485/485/485 488/488/488 486/486/486
f 486/486/486 488/488/488 487/487/487
f 488/488/488 471/471/471 487/487/487
