mtllib P_FirFallen1.mtl
v -0.1307837 0.8314788 5.052676 0 0.3686275 0
v -0.1582182 0.8883264 5.140261 0 0.2588235 0
v -0.146973 0.8827758 5.026617 0 0.3372549 0
v -0.1629977 0.8295314 5.153885 0 0.3254902 0
v -0.255674 0.6992714 5.103201 0 0.6627451 0
v -0.2640252 0.7431936 5.202083 0 0.4823529 0
v -0.3055032 0.773733 5.212431 0 0.4588235 0
v -0.361912 0.6084014 5.165432 0 0.7058824 0
v -0.4091931 0.6182795 5.193995 0 0.6039216 0
v -0.3096355 0.5862623 5.094927 0 0.8039216 0
v -0.3757841 0.5137439 5.213614 0 0.682353 0
v -0.4212994 0.5360898 5.243182 0 0.5254902 0
v -0.4362778 0.4408999 5.187911 0 0.6745098 0
v -0.3908155 0.4640852 5.18235 0 0.7411765 0
v -0.3323871 0.4528065 5.097349 0 0.8352941 0
v -0.4371197 0.4409347 5.133956 0 0.7333333 0
v -0.3513668 0.2868208 5.115087 0 0.7843137 0
v -0.3953762 0.2676145 5.12594 0 0.7333333 0
v -0.3771913 0.2469237 5.183605 0 0.682353 0
v -0.3473953 0.259194 5.178798 0 0.7333333 0
v -0.2633397 0.1735159 5.081783 0 0.7372549 0
v -0.2838146 0.177963 5.153452 0 0.682353 0
v -0.3036107 0.1518733 5.156527 0 0.6039216 0
v -0.2920877 0.1341878 5.08793 0 0.6235294 0
v -0.1202675 0.1137655 5.059527 0 0.7921569 0
v -0.1414361 0.05596545 5.062606 0 0.7254902 0
v -0.0152997 0.02677891 5.070422 0 0.7960784 0
v 0.004860161 0.07213745 5.060299 0 0.8156863 0
v -0.1307837 0.8314788 5.052676 0 0.3686275 0
v -0.146973 0.8827758 5.026617 0 0.3372549 0
v -0.08561679 0.9045676 4.942893 0 0.1882353 0
v -0.01773636 0.8816061 4.85272 0 0.1960784 0
v -0.1064132 0.7886381 5.05227 0 0.3803922 0
v -0.004738624 0.9163849 4.734049 0 0.5058824 0
v 0.07430454 0.9075288 4.974883 0 0.0627451 0
v 0.05831181 0.8492866 5.023662 0 0.1764706 0
v 0.0415363 0.8154625 5.01406 0 0.2352941 0
v -0.05770824 0.7964534 5.007812 0 0.3019608 0
v 0.01194477 0.7930513 4.990591 0 0.2705882 0
v -0.01239506 0.7938939 4.969474 0 0.2627451 0
v -0.009893911 0.6600304 5.032668 0 0.5254902 0
v 0.05831181 0.8492866 5.023662 0 0.1764706 0
v 0.07430454 0.9075288 4.974883 0 0.0627451 0
v 0.302905 0.7789369 5.012257 0 0.3137255 0
v 0.2565889 0.7337366 5.018783 0 0.4745098 0
v 0.3937403 0.6961401 4.999477 0 0.3372549 0
v 0.3404566 0.6663577 5.007937 0 0.4980392 0
v 0.1776005 0.1104807 5.018636 0 0.8196079 0
v 0.1076638 0.02610278 5.055794 0 0.8156863 0
v 0.1191235 0.09048057 5.034674 0 0.8235294 0
v 0.2036968 0.05476179 5.013981 0 0.8078431 0
v 0.30186 0.1670586 5.011138 0 0.7411765 0
v 0.3472485 0.1256449 5.003417 0 0.6666667 0
v 0.3811748 0.3254153 4.999029 0 0.4941176 0
v 0.438866 0.304486 4.98943 0 0.3333333 0
v 0.4383024 0.3156735 5.038024 0 0.3254902 0
v 0.3812364 0.3393345 5.060794 0 0.4784314 0
v 0.4045623 0.4782241 4.996229 0 0.4901961 0
v 0.4436744 0.3438229 5.083249 0 0.2901961 0
v 0.385007 0.3590928 5.092537 0 0.4431373 0
v 0.398362 0.4725985 5.088085 0 0.4627451 0
v 0.368402 0.628363 4.930428 0 0.4745098 0
v 0.4687353 0.4807253 5.064904 0 0.3019608 0
v 0.3703659 0.6257232 5.068463 0 0.4745098 0
v 0.4257023 0.6515399 5.049222 0 0.3254902 0
v 0.4241143 0.6541641 4.921469 0 0.3058824 0
v 0.4257023 0.6515399 5.049222 0 0.3254902 0
v 0.3703659 0.6257232 5.068463 0 0.4745098 0
v 0.368402 0.628363 4.930428 0 0.4745098 0
v 0.3937403 0.6961401 4.999477 0 0.3372549 0
v 0.3404566 0.6663577 5.007937 0 0.4980392 0
v 0.0415363 0.8154625 5.01406 0 0.2352941 0
v 0.05831181 0.8492866 5.023662 0 0.1764706 0
v 0.2565889 0.7337366 5.018783 0 0.4745098 0
v 0.2046826 0.7269797 4.996141 0 0.5215687 0
v -0.04901486 0.4071313 5.029171 0 0.8078431 0
v -0.009893911 0.6600304 5.032668 0 0.5254902 0
v 0.01194477 0.7930513 4.990591 0 0.2705882 0
v 0.3404566 0.6663577 5.007937 0 0.4980392 0
v 0.3100542 0.6239274 4.983747 0 0.5843138 0
v 0.368402 0.628363 4.930428 0 0.4745098 0
v 0.3407465 0.495038 4.978278 0 0.6039216 0
v 0.4045623 0.4782241 4.996229 0 0.4901961 0
v 0.3811748 0.3254153 4.999029 0 0.4941176 0
v 0.3202286 0.3639339 4.980633 0 0.6392157 0
v 0.30186 0.1670586 5.011138 0 0.7411765 0
v 0.2518617 0.2247961 4.990423 0 0.7843137 0
v 0.1776005 0.1104807 5.018636 0 0.8196079 0
v 0.146611 0.1736986 5.006073 0 0.827451 0
v 0.1191235 0.09048057 5.034674 0 0.8235294 0
v 0.1017162 0.1602893 5.015218 0 0.827451 0
v 0.009319006 0.1491498 5.026087 0 0.8313726 0
v -0.1070175 0.1776787 5.044844 0 0.8352941 0
v -0.2050025 0.2449505 5.059715 0 0.827451 0
v 0.004860161 0.07213745 5.060299 0 0.8156863 0
v -0.1202675 0.1137655 5.059527 0 0.7921569 0
v -0.1526843 0.19448 5.052005 0 0.827451 0
v -0.2633397 0.1735159 5.081783 0 0.7372549 0
v -0.2306502 0.2152256 5.067758 0 0.8 0
v -0.3513668 0.2868208 5.115087 0 0.7843137 0
v -0.2177746 0.2307754 5.05154 0 0.8196079 0
v -0.2900825 0.3335617 5.086245 0 0.8235294 0
v -0.3323871 0.4528065 5.097349 0 0.8352941 0
v -0.2753512 0.335996 5.051822 0 0.827451 0
v -0.2822469 0.4300788 5.078403 0 0.8392157 0
v -0.3096355 0.5862623 5.094927 0 0.8039216 0
v -0.2579236 0.343593 5.07117 0 0.8313726 0
v -0.2621273 0.4202836 5.055625 0 0.8392157 0
v -0.25008 0.5060805 5.066812 0 0.8470588 0
v -0.2399697 0.448741 5.064368 0 0.8392157 0
v -0.2421744 0.5521918 5.065984 0 0.8313726 0
v -0.255674 0.6992714 5.103201 0 0.6627451 0
v -0.2025425 0.7112465 5.06792 0 0.6352941 0
v -0.1307837 0.8314788 5.052676 0 0.3686275 0
v -0.1064132 0.7886381 5.05227 0 0.3803922 0
v -0.05770824 0.7964534 5.007812 0 0.3019608 0
v -0.3953762 0.2676145 5.12594 0 0.7333333 0
v -0.3771913 0.2469237 5.183605 0 0.682353 0
v -0.3036107 0.1518733 5.156527 0 0.6039216 0
v -0.2920877 0.1341878 5.08793 0 0.6235294 0
v -0.3413235 0.1109328 4.483483 0 0 0
v -0.1851671 0.006592423 4.483483 0 0 0
v -0.1414361 0.05596545 5.062606 0 0.7254902 0
v -0.0152997 0.02677891 5.070422 0 0.7960784 0
v 0.002300887 -0.03658479 4.483483 0 0 0
v -0.1900967 0.001766771 3.959028 0 0 0
v -0.002099376 -0.03469565 3.959019 0 0 0
v -0.445147 0.2639904 4.589157 0 0 0
v -0.4371197 0.4409347 5.133956 0 0.7333333 0
v -0.3583453 0.1037891 3.959082 0 0 0
v -0.1856259 0.01005599 3.393649 0 0 0
v -0.006974534 -0.031185 3.393657 0 0 0
v -0.4535018 0.2651718 3.959028 0 0.05882353 0
v -0.3440576 0.1136636 3.393673 0 0 0
v -0.1892238 0.08846757 2.481924 0 0.3333333 0
v -0.01515044 0.04870492 2.481157 0 0.3019608 0
v -0.4969439 0.2652078 3.393974 0 0 0
v -0.343742 0.1889963 2.483865 0 0.3333333 0
v -0.1948898 0.0848777 1.592378 0 0.1607843 0
v -0.02564168 0.04550662 1.592973 0 0.1607843 0
v -0.4929647 0.336205 2.486954 0 0.3529412 0
v -0.3448725 0.1833133 1.59096 0 0.1372549 0
v -0.1797744 -0.003833026 0.5335634 0 0 0
v -0.01520449 -0.0421629 0.5342491 0 0 0
v -0.4895212 0.3271669 1.589146 0 0.1607843 0
v -0.3255917 0.09191593 0.5319256 0 0 0
v -0.1655356 -0.02994999 -0.5215887 0 0 0
v -0.005449004 -0.06640807 -0.5224971 0 0.1372549 0
v -0.4662082 0.2318214 0.5297874 0 0 0
v -0.3076768 0.06239185 -0.5193024 0 0 0
v -0.2114174 0.001718283 -1.541166 0 0.08235294 0
v -0.06065121 -0.0338296 -1.541969 0 0 0
v -0.444976 0.197656 -0.5157295 0 0.2352941 0
v -0.3452737 0.08932792 -1.539136 0 0.1333333 0
v -0.1488 0.06749204 -2.536669 0 0.1686275 0
v -0.007098667 0.03565654 -2.53388 0 0.1607843 0
v -0.4745633 0.2170547 -1.535946 0 0.2117647 0
v -0.2751774 0.1486102 -2.535304 0 0.1568628 0
v -0.1163376 0.1185944 -3.487063 0 0.2666667 0
v 0.02498623 0.08642286 -3.49232 0 0.1960784 0
v -0.1465654 0.1653246 -4.440674 0 0.8470588 0
v -0.01233832 0.1327038 -4.415868 0 0.8745098 0
v -0.2649545 0.2472764 -4.406105 0 0.7372549 0
v -0.2417427 0.2005939 -3.480481 0 0.2627451 0
v -0.3787021 0.3671452 -4.312518 0 0.454902 0
v -0.3628113 0.3206903 -3.47245 0 0.2666667 0
v -0.3813766 0.5152074 -4.177737 0 0.4078431 0
v -0.3976875 0.2671412 -2.530833 0 0.1843137 0
v -0.3677298 0.4686683 -3.467159 0 0.3098039 0
v -0.3359906 0.6584852 -4.183331 0 0.4862745 0
v -0.4043719 0.4148643 -2.520491 0 0.2784314 0
v -0.3221442 0.6118573 -3.463472 0 0.4823529 0
v -0.2556942 0.7816781 -4.214684 0 0.4392157 0
v -0.4800049 0.3750586 -1.532483 0 0.3019608 0
v -0.2396347 0.7350633 -3.461468 0 0.5568628 0
v -0.1415426 0.8743532 -4.272895 0 0.3176471 0
v -0.3605017 0.5581898 -2.508629 0 0.3764706 0
v -0.4507807 0.3652194 -0.5118281 0 0.5019608 0
v -0.1211612 0.8277578 -3.461536 0 0.3960784 0
v -0.0003597214 0.8921086 -4.361124 0 0.6352941 0
v -0.4315783 0.5278943 -1.529111 0 0.3686275 0
v -0.2794769 0.6817507 -2.496768 0 0.4117647 0
v -0.4713319 0.4042803 0.5266701 0 0 0
v 0.02674313 0.8455535 -3.465248 0 0.3764706 0
v 0.1370507 0.862429 -4.454749 0 0.8196079 0
v -0.3993885 0.5275326 -0.5080329 0 0.3843137 0
v -0.3437482 0.659244 -1.526118 0 0.5176471 0
v -0.1621294 0.7751917 -2.485736 0 0.4705882 0
v -0.4948461 0.5045484 1.586409 0 0.2470588 0
v -0.4176173 0.5710475 0.5236913 0 0.5921569 0
v -0.3061547 0.6672315 -0.504673 0 0.5254902 0
v -0.217523 0.7580156 -1.523809 0 0.454902 0
v -0.01444801 0.7941 -2.479146 0 0.4980392 0
v -0.499161 0.5184478 2.490219 0 0.3882353 0
v -0.4396628 0.6760946 1.583797 0 0.3607843 0
v -0.3209558 0.7143359 0.521245 0 0.7568628 0
v -0.172148 0.7725065 -0.5020866 0 0.8901961 0
v -0.5028861 0.4523953 3.393799 0 0.05882353 0
v -0.4431575 0.6949409 2.493402 0 0.3647059 0
v -0.3403075 0.823505 1.581666 0 0.4352941 0
v -0.4928803 0.4540349 3.959051 0 0.1215686 0
v -0.4449733 0.6335345 3.39366 0 0.1294118 0
v -0.4824622 0.4467492 4.590218 0 0 0
v -0.05980485 0.7769433 -1.523451 0 0.4117647 0
v -0.1825073 0.8219953 0.5194848 0 0.654902 0
v -0.3416661 0.8468106 2.496245 0 0.3176471 0
v -0.4812578 0.654748 3.959255 0 0.2156863 0
v -0.004689066 0.7930872 -0.5016875 0 0.8980392 0
v -0.1979687 0.9342826 1.580143 0 0.4980392 0
v -0.340409 0.7892811 3.393655 0 0.2509804 0
v -0.01006065 0.8423225 0.5190921 0 0.3215686 0
v -0.1958569 0.9612132 2.498451 0 0.5490196 0
v -0.02063961 0.9552461 1.579788 0 0.7372549 0
v -0.4471 0.6299102 4.58979 0 0 0
v -0.360465 0.8183224 3.959177 0 0.5686275 0
v -0.1904245 0.9064456 3.393727 0 0.5372549 0
v -0.01372635 0.9834797 2.498773 0 0.5294118 0
v -0.410128 0.6172927 5.130725 0 0 0
v -0.4212994 0.5360898 5.243182 0 0.5254902 0
v -0.4362778 0.4408999 5.187911 0 0.6745098 0
v -0.4091931 0.6182795 5.193995 0 0.6039216 0
v -0.2867875 0.7698397 5.088403 0 0 0
v -0.3055032 0.773733 5.212431 0 0.4588235 0
v -0.3385848 0.7890263 4.559505 0 0.509804 0
v -0.146973 0.8827758 5.026617 0 0.3372549 0
v -0.1582182 0.8883264 5.140261 0 0.2588235 0
v -0.1897147 0.9043744 3.959036 0 0.8862745 0
v -0.1846119 0.8947046 4.521356 0 0.7647059 0
v -0.08561679 0.9045676 4.942893 0 0.1882353 0
v -0.004738624 0.9163849 4.734049 0 0.5058824 0
v -0.003356656 0.9288929 3.393655 0 0.7019608 0
v -0.002512175 0.922649 4.488319 0 0.7803922 0
v 0.07430454 0.9075288 4.974883 0 0.0627451 0
v -0.00342969 0.9301293 3.963185 0 0.8823529 0
v 0.166641 0.9400921 4.547176 0 0.8509804 0
v 0.302905 0.7789369 5.012257 0 0.3137255 0
v 0.1908254 0.9369037 3.945067 0 0.6156863 0
v 0.1794717 0.8913702 3.393649 0 0.7254902 0
v 0.1644066 0.9473467 2.49806 0 0.3254902 0
v 0.3507094 0.8014341 4.421669 0 0.6470588 0
v 0.3937403 0.6961401 4.999477 0 0.3372549 0
v 0.3469612 0.7997546 3.94833 0 0.5058824 0
v 0.3310814 0.7867922 3.393664 0 0.1529412 0
v 0.4424261 0.6389845 4.426971 0 0.4705882 0
v 0.4241143 0.6541641 4.921469 0 0.3058824 0
v 0.4658577 0.4808441 4.986198 0 0 0
v 0.4257023 0.6515399 5.049222 0 0.3254902 0
v 0.4687353 0.4807253 5.064904 0 0.3019608 0
v 0.4436744 0.3438229 5.083249 0 0.2901961 0
v 0.4383024 0.3156735 5.038024 0 0.3254902 0
v 0.438866 0.304486 4.98943 0 0.3333333 0
v 0.4378901 0.6353498 3.964825 0 0.509804 0
v 0.480149 0.4547281 4.431173 0 0.5686275 0
v 0.3122835 0.8458574 2.49614 0 0.5764706 0
v 0.400553 0.6181865 3.393832 0 0.4941176 0
v 0.4782987 0.4538091 3.964589 0 0.5019608 0
v 0.4015551 0.2822542 4.522672 0 0.3372549 0
v 0.3472485 0.1256449 5.003417 0 0.6666667 0
v 0.3803085 0.6818459 2.493203 0 0.5843138 0
v 0.473096 0.447799 3.393643 0 0.5215687 0
v 0.4112293 0.2788227 3.99278 0 0.2666667 0
v 0.3282129 0.1153038 4.494087 0 0.1647059 0
v 0.2036968 0.05476179 5.013981 0 0.8078431 0
v 0.4513283 0.5161127 2.489884 0 0.4392157 0
v 0.4643694 0.2468269 3.393413 0 0.3529412 0
v 0.3374675 0.1097922 3.96346 0 0.07843138 0
v 0.1832311 0.006592423 4.483483 0 0 0
v 0.1076638 0.02610278 5.055794 0 0.8156863 0
v 0.002300887 -0.03658479 4.483483 0 0 0
v -0.002099376 -0.03469565 3.959019 0 0 0
v 0.1841562 0.002352983 3.959019 0 0 0
v -0.006974534 -0.031185 3.393657 0 0 0
v 0.1721809 0.02091122 3.393726 0 0.05882353 0
v -0.01515044 0.04870492 2.481157 0 0.3019608 0
v 0.3358002 0.113113 3.393636 0 0.1882353 0
v 0.1592097 0.09981871 2.482162 0 0.3176471 0
v -0.02564168 0.04550662 1.592973 0 0.1607843 0
v 0.318352 0.1899497 2.483749 0 0.3568628 0
v 0.144237 0.09457943 1.592345 0 0.08627451 0
v -0.01520449 -0.0421629 0.5342491 0 0 0
v 0.4432693 0.3204241 2.485973 0 0.4588235 0
v 0.2994573 0.1816784 1.591012 0 0.1137255 0
v 0.1500058 0.005496085 0.5335174 0 0 0
v -0.005449004 -0.06640807 -0.5224971 0 0.1372549 0
v 0.421527 0.3081691 1.588979 0 0.1803922 0
v 0.1548479 -0.01930827 -0.5213279 0 0.2313726 0
v -0.06065121 -0.0338296 -1.541969 0 0 0
v 0.3009734 0.0901299 0.5320034 0 0.06666667 0
v 0.4301268 0.4985939 1.586438 0 0.3843137 0
v 0.09032573 0.0089311 -1.54092 0 0 0
v -0.007098667 0.03565654 -2.53388 0 0.1607843 0
v 0.3011288 0.06365821 -0.5194297 0 0.2627451 0
v 0.4197166 0.2130716 0.5297068 0 0.1568628 0
v 0.361654 0.66017 1.58427 0 0.5921569 0
v 0.1340069 0.07758251 -2.525716 0 0 0
v 0.02498623 0.08642286 -3.49232 0 0.1960784 0
v 0.4281378 0.3982086 0.5267476 0 0.3137255 0
v 0.4159155 0.1836998 -0.5167464 0 0.2745098 0
v 0.2281076 0.08528727 -1.53923 0 0 0
v 0.2960891 0.8200479 1.581786 0 0.6431373 0
v 0.3616025 0.5553211 0.5242212 0 0.4235294 0
v 0.423211 0.3636326 -0.5121855 0 0.2980392 0
v 0.3362335 0.196496 -1.536849 0 0.1254902 0
v 0.2624057 0.1510954 -2.515842 0 0 0
v 0.1525732 0.9193912 1.580319 0 0.6862745 0
v 0.2978943 0.7107806 0.5213938 0 0.3372549 0
v 0.1583657 0.8074101 0.5197065 0 0.1058824 0
v 0.3578096 0.5159761 -0.5083132 0 0.3098039 0
v 0.3431318 0.3672083 -1.532779 0 0.4627451 0
v 0.1591284 0.759969 -0.5025287 0 0.6196079 0
v 0.2951632 0.66674 -0.5048012 0 0.2235294 0
v 0.09447552 0.7449878 -1.524195 0 0.4588235 0
v 0.2815591 0.5125743 -1.529326 0 0.509804 0
v 0.2225807 0.6560907 -1.526212 0 0.5333334 0
v 0.3626522 0.2570328 -2.504718 0 0 0
v 0.130517 0.7654927 -2.476036 0 0.3333333 0
v 0.2515094 0.6835389 -2.477623 0 0.1803922 0
v 0.3674087 0.4158566 -2.49285 0 0 0
v 0.3082303 0.5503479 -2.485088 0 0 0
v 0.1713654 0.8157781 -3.470506 0 0.4784314 0
v 0.2708339 0.7573747 -4.00925 0 0.6941177 0
v 0.1936706 0.821069 -4.49816 0 0.8039216 0
v 0.231035 0.7925221 -4.425228 0 0.8784314 0
v 0.25029 0.7797095 -4.541571 0 0.7137255 0
v 0.3010166 0.6463454 -4.596334 0 0.3764706 0
v 0.2913779 0.7331865 -3.47693 0 0.2627451 0
v 0.3465133 0.5999744 -3.483159 0 0.3686275 0
v 0.3540395 0.5115718 -4.653114 0 0.0627451 0
v 0.4040712 0.4644576 -3.489792 0 0.6666667 0
v 0.345526 0.3526064 -4.674232 0 0.2078431 0
v 0.3973961 0.3056569 -3.495458 0 0.7333333 0
v 0.2473534 0.246841 -4.628263 0 0.5490196 0
v 0.2958834 0.2008002 -3.496115 0 0.4196078 0
v 0.1231682 0.1739109 -4.560159 0 0.8 0
v 0.1666027 0.1278548 -3.4949 0 0 0
v 0.1448854 0.1517638 -4.02753 0 0 0
v 0.05541494 0.1794889 -4.456143 0 0.8784314 0
v -0.01233832 0.1327038 -4.415868 0 0.8745098 0
v 0.07725816 0.5041737 -3.03955 0 0 0
v -0.05436318 0.3342718 -3.065029 0 0.07450981 0
v 0.490584 0.1616922 -3.764243 0 0 0
v 0.5866839 0.2815272 -3.750726 0 0.3411765 0
v 0.6628307 0.07877412 -4.171374 0 0 0
v 0.2627628 0.4904644 -2.90172 0 0 0
v 0.7489654 0.1863199 -4.151672 0 0 0
v 0.7326833 0.2599736 -3.677493 0 0.4666667 0
v 0.3166475 0.3068534 -2.789369 0 0 0
v 0.891189 0.1640029 -4.114159 0 0 0
v 0.7825813 0.1193899 -3.61778 0 0.3647059 0
v 0.1850262 0.1369514 -2.814848 0 0 0
v 0.9472777 0.03414023 -4.096347 0 0 0
v 0.6864806 -0.002141207 -3.631297 0 0 0
v -0.0004784066 0.150661 -2.952679 0 0.09803922 0
v 0.8611427 -0.07340541 -4.11605 0 0 0
v 0.5404819 0.02130201 -3.70453 0 0 0
v -0.05436318 0.3342718 -3.065029 0 0.07450981 0
v 0.7189193 -0.05108842 -4.153563 0 0 0
v 0.490584 0.1616922 -3.764243 0 0 0
v 0.6628307 0.07877412 -4.171374 0 0 0
v 0.8611427 -0.07340541 -4.11605 0 0 0
v 0.9472777 0.03414023 -4.096347 0 0 0
v 0.891189 0.1640029 -4.114159 0 0 0
v 0.7489654 0.1863199 -4.151672 0 0 0
v 0.7189193 -0.05108842 -4.153563 0 0 0
v 0.6628307 0.07877412 -4.171374 0 0 0
v -0.06712905 0.01797685 -0.002677656 0 0 0
v 0.1440108 0.2457816 -0.1040006 0 0.227451 0
v -0.219093 0.190878 -0.8477026 0 0 0
v -0.367758 0.01694289 -0.7361181 0 0 0
v -0.6117434 0.09767598 -1.287316 0 0 0
v -0.3313752 0.1124729 0.1200801 0 0 0
v -0.7024572 -0.03338882 -1.152353 0 0 0
v -0.574787 0.08549102 -0.6268458 0 0 0
v -0.4213012 0.2608386 0.1296188 0 0 0
v -0.8514332 0.03086135 -1.035163 0 0 0
v -0.635973 0.2081639 -0.6052409 0 0.4156863 0
v -0.4063691 0.4628031 0.1008941 0 0 0
v -0.9087689 0.1296689 -1.020769 0 0 0
v -0.6244581 0.3652621 -0.6397065 0 0.6431373 0
v -0.2332327 0.6496051 0.01780869 0 0 0
v -0.906367 0.2553731 -1.067 0 0 0
v -0.5025515 0.5078903 -0.7312064 0 0.6431373 0
v 0.06095885 0.5615957 -0.0937569 0 0.4627451 0
v -0.8319803 0.362847 -1.177671 0 0 0
v -0.2864895 0.4363514 -0.8452456 0 0.227451 0
v 0.1440108 0.2457816 -0.1040006 0 0.227451 0
v -0.676505 0.2957938 -1.299975 0 0 0
v -0.219093 0.190878 -0.8477026 0 0 0
v -0.6117434 0.09767598 -1.287316 0 0 0
v -0.7024572 -0.03338882 -1.152353 0 0 0
v -0.6117434 0.09767598 -1.287316 0 0 0
v -0.676505 0.2957938 -1.299975 0 0 0
v -0.8319803 0.362847 -1.177671 0 0 0
v -0.8514332 0.03086135 -1.035163 0 0 0
v -0.906367 0.2553731 -1.067 0 0 0
v -0.9087689 0.1296689 -1.020769 0 0 0
v 0.1216596 0.3861832 0.1700538 0 0.4196078 0
v -0.03898134 0.5689504 0.1930896 0 0.1803922 0
v 0.4102721 1.011477 -0.1711558 0 0.6627451 0
v 0.5190165 0.8765385 -0.1834956 0 0.2509804 0
v 0.5254182 1.087005 -0.2299277 0 0 0
v 0.1016042 0.2154723 -0.02388469 0 0.2078431 0
v 0.6201894 0.9630826 -0.2421696 0 0 0
v 0.5140728 0.7644134 -0.32822 0 0 0
v -0.07909125 0.2275286 -0.1947877 0 0 0
v 0.6314762 0.8776388 -0.3824964 0 0 0
v 0.4003847 0.787227 -0.4606054 0 0 0
v -0.2397323 0.4102957 -0.1717523 0 0 0
v 0.5479916 0.9161173 -0.510581 0 0 0
v 0.2916405 0.9221658 -0.4482652 0 0.7254902 0
v -0.2196778 0.5810065 0.02218594 0 0 0
v 0.4532214 1.040039 -0.4983386 0 0.1254902 0
v 0.296584 1.034291 -0.3035413 0 0.8039216 0
v -0.03898134 0.5689504 0.1930896 0 0.1803922 0
v 0.4419348 1.125483 -0.3580117 0 0.1764706 0
v 0.4102721 1.011477 -0.1711558 0 0.6627451 0
v 0.5254182 1.087005 -0.2299277 0 0 0
v 0.5479916 0.9161173 -0.510581 0 0 0
v 0.6314762 0.8776388 -0.3824964 0 0 0
v 0.6201894 0.9630826 -0.2421696 0 0 0
v 0.4532214 1.040039 -0.4983386 0 0.1254902 0
v 0.5254182 1.087005 -0.2299277 0 0 0
v 0.4419348 1.125483 -0.3580117 0 0.1764706 0
v -0.08857737 0.2226557 2.063167 0 0.2392157 0
v 0.06346655 0.3724036 2.084362 0 0.3215686 0
v -0.4476945 0.9367881 1.506207 0 0 0
v -0.5694557 0.8269517 1.485125 0 0.1529412 0
v -0.6453856 1.155061 1.454159 0 0 0
v -0.2692044 0.2287801 2.203766 0 0.3137255 0
v -0.7463287 1.063484 1.43984 0 0 0
v -0.6948832 0.8147538 1.607855 0 0.1647059 0
v -0.2977868 0.3846524 2.365559 0 0.3764706 0
v -0.8267463 1.030467 1.55384 0 0 0
v -0.6985495 0.9123926 1.751668 0 0.1882353 0
v -0.1457421 0.5344005 2.386754 0 0 0
v -0.8062209 1.089027 1.682159 0 0 0
v -0.5767891 1.022229 1.772749 0 0.4745098 0
v 0.03488417 0.528276 2.246155 0 0.2901961 0
v -0.7052779 1.180604 1.696478 0 0 0
v -0.4513614 1.034427 1.650019 0 0.509804 0
v 0.06346655 0.3724036 2.084362 0 0.3215686 0
v -0.6248602 1.213621 1.582478 0 0 0
v -0.4476945 0.9367881 1.506207 0 0 0
v -0.6453856 1.155061 1.454159 0 0 0
v -0.8267463 1.030467 1.55384 0 0 0
v -0.7463287 1.063484 1.43984 0 0 0
v -0.6453856 1.155061 1.454159 0 0 0
v -0.6248602 1.213621 1.582478 0 0 0
v -0.8062209 1.089027 1.682159 0 0 0
v -0.7052779 1.180604 1.696478 0 0 0
v 0.2533148 0.4103109 -4.283401 0 0.5372549 0
v 0.2469782 0.5807896 -4.258322 0 0.6627451 0
v 0.1719435 0.690272 -4.229918 0 0.2784314 0
v 0.04565095 0.7448322 -4.139329 0 0.7647059 0
v 0.1481851 0.2869195 -4.281591 0 0.7843137 0
v -0.03102969 0.2609599 -4.17024 0 0.7137255 0
v -0.1054396 0.7394658 -4.042643 0 0.654902 0
v -0.168927 0.3251659 -4.070541 0 0.5058824 0
v -0.2386985 0.6198817 -4.107738 0 0.6392157 0
v -0.2617342 0.4436989 -4.155127 0 0.5921569 0
v 0.1757667 0.7003723 -4.290475 0 0.1764706 0
v 0.1895968 0.7367368 -4.509533 0 0.7607843 0
v 0.1610161 0.7327664 -4.408227 0 0 0
v 0.1138597 0.7695294 -4.455208 0 0.7568628 0
v 0.03812253 0.8023219 -4.400882 0 0.7529412 0
v 0.1719435 0.690272 -4.229918 0 0.2784314 0
v 0.2728675 0.6005038 -4.585787 0 0.3411765 0
v 0.2469782 0.5807896 -4.258322 0 0.6627451 0
v 0.2533148 0.4103109 -4.283401 0 0.5372549 0
v 0.2812501 0.402783 -4.624306 0 0.3607843 0
v 0.04565095 0.7448322 -4.139329 0 0.7647059 0
v -0.1430943 0.7960114 -4.284917 0 0.4078431 0
v -0.1054396 0.7394658 -4.042643 0 0.654902 0
v -0.2807929 0.6411704 -4.221843 0 0.5372549 0
v -0.2386985 0.6198817 -4.107738 0 0.6392157 0
v -0.3051757 0.4549994 -4.345538 0 0.5294118 0
v -0.2617342 0.4436989 -4.155127 0 0.5921569 0
v -0.2192407 0.2992854 -4.426972 0 0.7921569 0
v -0.168927 0.3251659 -4.070541 0 0.5058824 0
v 0.1481851 0.2869195 -4.281591 0 0.7843137 0
v -0.05384766 0.2220947 -4.427329 0 0.8941177 0
v -0.03102969 0.2609599 -4.17024 0 0.7137255 0
v 0.1611012 0.2530734 -4.571509 0 0.772549 0
v 0.0536268 0.2301923 -4.467549 0 0.8823529 0
v -0.05384766 0.2220947 -4.427329 0 0.8941177 0
v 0.05541494 0.1794889 -4.456143 0 0.8784314 0
v 0.0536268 0.2301923 -4.467549 0 0.8823529 0
v 0.1611012 0.2530734 -4.571509 0 0.772549 0
v -0.01233832 0.1327038 -4.415868 0 0.8745098 0
v -0.1465654 0.1653246 -4.440674 0 0.8470588 0
v -0.2192407 0.2992854 -4.426972 0 0.7921569 0
v -0.2649545 0.2472764 -4.406105 0 0.7372549 0
v 0.1231682 0.1739109 -4.560159 0 0.8 0
v 0.2473534 0.246841 -4.628263 0 0.5490196 0
v 0.345526 0.3526064 -4.674232 0 0.2078431 0
v -0.3051757 0.4549994 -4.345538 0 0.5294118 0
v -0.3787021 0.3671452 -4.312518 0 0.454902 0
v -0.3813766 0.5152074 -4.177737 0 0.4078431 0
v 0.2812501 0.402783 -4.624306 0 0.3607843 0
v 0.3540395 0.5115718 -4.653114 0 0.0627451 0
v 0.3010166 0.6463454 -4.596334 0 0.3764706 0
v 0.2728675 0.6005038 -4.585787 0 0.3411765 0
v 0.25029 0.7797095 -4.541571 0 0.7137255 0
v 0.1895968 0.7367368 -4.509533 0 0.7607843 0
v -0.2807929 0.6411704 -4.221843 0 0.5372549 0
v -0.3359906 0.6584852 -4.183331 0 0.4862745 0
v -0.2556942 0.7816781 -4.214684 0 0.4392157 0
v -0.1430943 0.7960114 -4.284917 0 0.4078431 0
v -0.1415426 0.8743532 -4.272895 0 0.3176471 0
v 0.231035 0.7925221 -4.425228 0 0.8784314 0
v 0.1610161 0.7327664 -4.408227 0 0 0
v 0.1138597 0.7695294 -4.455208 0 0.7568628 0
v 0.1936706 0.821069 -4.49816 0 0.8039216 0
v 0.03812253 0.8023219 -4.400882 0 0.7529412 0
v -0.0003597214 0.8921086 -4.361124 0 0.6352941 0
v 0.1370507 0.862429 -4.454749 0 0.8196079 0
v 0.1191235 0.09048057 5.034674 0 0.8235294 0
v 0.03522358 0.1348561 4.937174 0 0.8235294 0
v 0.1017162 0.1602893 5.015218 0 0.827451 0
v -0.04901486 0.4071313 5.029171 0 0.8078431 0
v 0.009319006 0.1491498 5.026087 0 0.8313726 0
v 0.004860161 0.07213745 5.060299 0 0.8156863 0
v 0.03519426 0.06562677 4.853827 0 0.7960784 0
v 0.1076638 0.02610278 5.055794 0 0.8156863 0
v -0.0152997 0.02677891 5.070422 0 0.7960784 0
v 0.01865369 0.01483366 4.762505 0 0.682353 0
v 0.002300887 -0.03658479 4.483483 0 0 0
vn 0.8383089 0.09114341 0.537523
vn 0.3004164 0.870054 0.3908402
vn 0.1296178 0.9406422 0.313674
vn 0.7507263 -0.1533065 0.6425784
vn 0.6394029 -0.4337919 0.6348138
vn 0.5425757 -0.3501049 0.7635694
vn -0.4053112 0.4857406 0.7744539
vn 0.6548093 -0.1948855 0.7302359
vn -0.5964856 0.4162414 0.6862565
vn 0.6296962 -0.1937065 0.7523035
vn 0.6568991 -0.1600111 0.7368039
vn -0.3787866 0.1090785 0.9190335
vn -0.545778 -0.6851234 0.4824234
vn 0.5392849 -0.6284787 0.5605234
vn 0.5186294 -0.1289355 0.8452214
vn -0.8229232 -0.3472722 0.4496659
vn 0.394542 0.3622207 0.8444719
vn -0.8487176 -0.1212884 0.5147499
vn -0.6319464 0.05343128 0.773168
vn 0.3268642 0.5978182 0.7319653
vn 0.5335435 0.03331851 0.8451161
vn 0.7981638 -0.00483104 0.6024211
vn -0.02746965 -0.7918221 0.6101338
vn -0.3187376 -0.8308629 0.4561504
vn 0.1363112 0.1556796 0.9783574
vn -0.2243566 -0.6536644 0.7227635
vn 0.3072016 -0.6581821 0.6873308
vn 0.6811988 -0.07381842 0.7283673
vn 0.8383089 0.09114341 0.537523
vn 0.1296178 0.9406422 0.313674
vn 0.3344702 0.8668205 0.3697999
vn 0.03454836 0.8884865 0.4576004
vn 0.4889405 0.1933516 0.8506187
vn -0.1143551 0.9912355 0.06614486
vn -0.0659169 0.8844601 0.4619365
vn -0.3710695 0.2911616 0.8817779
vn -0.5174911 0.1172211 0.8476215
vn 0.5066295 0.5848876 0.6334296
vn -0.6958234 0.3974769 0.5981989
vn 0.01038507 0.6862547 0.7272871
vn 0.3853551 0.00688861 0.9227427
vn -0.3710695 0.2911616 0.8817779
vn -0.0659169 0.8844601 0.4619365
vn 0.5152491 0.5549814 0.6530805
vn -0.03704054 -0.08283928 0.9958743
vn 0.7764187 0.02674428 0.6296496
vn 0.1916005 -0.4394983 0.8775708
vn 0.1334833 0.1620516 0.9777124
vn -0.3214865 -0.592436 0.7386922
vn -0.3597782 0.06596527 0.930703
vn 0.4043614 -0.6458521 0.6475854
vn 0.03680099 0.06514236 0.9971972
vn 0.6197664 -0.506525 0.5994349
vn -0.4177711 -0.2114751 0.8835981
vn 0.8016533 -0.5082845 0.314641
vn 0.4971248 -0.8281938 0.2587703
vn -0.7904249 -0.5438294 0.2819186
vn -0.8531603 0.05143681 0.5191068
vn 0.585025 -0.4718502 0.6596234
vn -0.5991903 -0.2585929 0.7576943
vn -0.5592696 0.07528263 0.8255605
vn 0.009541262 -0.05313836 0.9985416
vn 0.8265684 0.07865846 0.5573129
vn -0.6369534 0.4094122 0.6532015
vn 0.41939 0.7912495 0.4450127
vn 0.8893307 0.435493 0.1394158
vn 0.41939 0.7912495 0.4450127
vn -0.6369534 0.4094122 0.6532015
vn 0.009541262 -0.05313836 0.9985416
vn 0.7764187 0.02674428 0.6296496
vn 0.1916005 -0.4394983 0.8775708
vn -0.5174911 0.1172211 0.8476215
vn -0.3710695 0.2911616 0.8817779
vn -0.03704054 -0.08283928 0.9958743
vn -0.05555879 -0.2256982 0.9726117
vn 0.1659933 -0.01351123 0.9860343
vn 0.3853551 0.00688861 0.9227427
vn -0.6958234 0.3974769 0.5981989
vn 0.1916005 -0.4394983 0.8775708
vn 0.278552 -0.2259259 0.9334701
vn 0.009541262 -0.05313836 0.9985416
vn 0.01432372 0.122463 0.9923697
vn -0.8531603 0.05143681 0.5191068
vn -0.4177711 -0.2114751 0.8835981
vn -0.06790896 0.05841495 0.99598
vn 0.03680099 0.06514236 0.9971972
vn -0.01460679 0.1314352 0.9912171
vn 0.1334833 0.1620516 0.9777124
vn 0.1080454 0.1569868 0.9816728
vn -0.3597782 0.06596527 0.930703
vn -0.3018824 -0.111527 0.9467992
vn 0.7444285 0.1407939 0.6526893
vn 0.1810358 0.134971 0.9741708
vn -0.1288138 -0.1885622 0.9735765
vn 0.6811988 -0.07381842 0.7283673
vn 0.1363112 0.1556796 0.9783574
vn 0.1879539 0.1057585 0.9764673
vn 0.5335435 0.03331851 0.8451161
vn 0.4209514 0.2479066 0.8725492
vn 0.394542 0.3622207 0.8444719
vn 0.216811 0.1537232 0.9640343
vn 0.5934861 0.08476906 0.8003678
vn 0.5186294 -0.1289355 0.8452214
vn 0.2955426 0.02810202 0.9549162
vn 0.5761057 -0.06012067 0.8151612
vn 0.6296962 -0.1937065 0.7523035
vn -0.2876804 -0.0457323 0.956634
vn 0.135599 -0.0305617 0.9902924
vn 0.2774157 -0.03785858 0.9600038
vn -0.05600148 -0.01774297 0.998273
vn 0.2841162 -0.06865478 0.9563287
vn 0.6394029 -0.4337919 0.6348138
vn 0.3111595 -0.09549019 0.9455482
vn 0.8383089 0.09114341 0.537523
vn 0.4889405 0.1933516 0.8506187
vn 0.5066295 0.5848876 0.6334296
vn -0.8487176 -0.1212884 0.5147499
vn -0.6319464 0.05343128 0.773168
vn -0.02746965 -0.7918221 0.6101338
vn -0.3187376 -0.8308629 0.4561504
vn -0.6886246 -0.7233869 0.05007494
vn -0.3751674 -0.9253494 0.05457103
vn -0.2243566 -0.6536644 0.7227635
vn 0.3072016 -0.6581821 0.6873308
vn 0.004669036 -0.998853 0.04765461
vn -0.3773747 -0.9260589 -0.001796179
vn 0.00916038 -0.9999349 -0.006807977
vn -0.9120859 -0.4060591 0.05670431
vn -0.8229232 -0.3472722 0.4496659
vn -0.6877517 -0.7258924 0.008822623
vn -0.3811921 -0.9233056 -0.04689836
vn 0.02198139 -0.9984192 -0.05172942
vn -0.9234564 -0.3829115 0.02463716
vn -0.6461951 -0.7623954 -0.03442551
vn -0.3930834 -0.9188119 -0.03564097
vn 0.02917242 -0.998678 -0.0423237
vn -0.9176422 -0.3974048 -0.001515768
vn -0.6294982 -0.776447 -0.02936266
vn -0.3953542 -0.917713 0.03870334
vn 0.0256524 -0.9987356 0.04323446
vn -0.9202361 -0.3909933 -0.01702511
vn -0.6309173 -0.7752512 0.03047982
vn -0.3914003 -0.9191511 0.04435282
vn 0.02716961 -0.998234 0.05282764
vn -0.9208536 -0.3898417 0.007223529
vn -0.6282359 -0.777307 0.03336832
vn -0.387978 -0.921663 0.00323129
vn 0.03250905 -0.9994572 -0.005342843
vn -0.914608 -0.4043015 0.005699433
vn -0.6259606 -0.7798243 0.006889948
vn -0.3950655 -0.9174065 -0.04783966
vn 0.01916337 -0.9985259 -0.05078072
vn -0.912891 -0.4081444 0.006946792
vn -0.6275535 -0.7773488 -0.04365259
vn -0.3875759 -0.918863 -0.07399812
vn 0.03241233 -0.9976732 -0.05997951
vn -0.9154221 -0.400922 -0.03555193
vn -0.6236823 -0.7778221 -0.0775448
vn -0.3912703 -0.9190188 -0.0480821
vn 0.03753216 -0.9979753 -0.0513486
vn -0.2944153 -0.6240403 -0.7238047
vn -0.01699413 -0.8644947 -0.5023546
vn -0.6336145 -0.4369642 -0.6384317
vn -0.6333132 -0.7726358 -0.04414033
vn -0.8955919 -0.1532068 -0.4176637
vn -0.9165612 -0.3987967 -0.02960834
vn -0.9505607 0.2281014 -0.2107228
vn -0.9115587 -0.4045039 -0.07373811
vn -0.9908846 0.1347047 -0.001546382
vn -0.8553267 0.4001893 -0.3290363
vn -0.989851 0.1327841 -0.05063036
vn -0.9015079 0.43244 0.01670858
vn -0.7434409 0.5218745 -0.4182616
vn -0.9910163 0.1321901 -0.02031063
vn -0.7323605 0.6801504 0.03230412
vn -0.5133331 0.7402034 -0.4342672
vn -0.9021599 0.4302031 -0.0321373
vn -0.9909208 0.1344227 0.002536296
vn -0.3745548 0.9259712 0.04781419
vn -0.2732806 0.8106909 -0.5177819
vn -0.9032118 0.4290335 -0.01178185
vn -0.7355492 0.6773459 -0.01303062
vn -0.9902851 0.1358493 -0.02967202
vn 0.0518517 0.9973102 0.05180519
vn -0.02005148 0.8075937 -0.5893983
vn -0.9013321 0.4331194 -0.002842538
vn -0.7373974 0.6754356 -0.005633647
vn -0.3855878 0.9225687 0.01375123
vn -0.9895021 0.142933 -0.02134714
vn -0.9000402 0.4331695 -0.04787324
vn -0.7326638 0.6805144 -0.01019172
vn -0.3924243 0.9197838 -0.0009216117
vn 0.03810814 0.9986003 0.03667698
vn -0.9898101 0.1423933 -0.000243348
vn -0.8982607 0.4378752 -0.03732421
vn -0.7316674 0.6787906 -0.06249927
vn -0.3792699 0.9250059 -0.02276926
vn -0.9967906 0.07965545 0.007962534
vn -0.8990473 0.4377826 0.007762761
vn -0.7293031 0.6822942 -0.05090765
vn -0.9998233 -0.004558539 0.01823672
vn -0.9130241 0.4077882 -0.009787461
vn -0.9980024 -0.03240075 0.05423498
vn 0.03405899 0.9994195 0.0008635854
vn -0.3812047 0.9213613 -0.07600093
vn -0.7303505 0.6829466 0.01312178
vn -0.9260395 0.3774208 0.00210565
vn 0.04377076 0.9984899 -0.033199
vn -0.3790866 0.9231233 -0.06431732
vn -0.7136911 0.7004575 -0.002101371
vn 0.0425094 0.9961386 -0.07681587
vn -0.3795713 0.9250195 0.0162665
vn 0.04115172 0.9968343 -0.0680285
vn -0.9220405 0.3811081 0.06780843
vn -0.6808011 0.7324656 0.001986955
vn -0.3624631 0.9317384 0.02200161
vn 0.04040616 0.9990751 0.01470972
vn -0.9208905 0.3894978 0.0158797
vn -0.3787866 0.1090785 0.9190335
vn -0.545778 -0.6851234 0.4824234
vn -0.5964856 0.4162414 0.6862565
vn -0.7143916 0.6995682 -0.01578139
vn -0.4053112 0.4857406 0.7744539
vn -0.6868508 0.7237107 0.06692445
vn 0.1296178 0.9406422 0.313674
vn 0.3004164 0.870054 0.3908402
vn -0.3349556 0.9422063 0.007210881
vn -0.3539774 0.9345026 0.03748243
vn 0.3344702 0.8668205 0.3697999
vn -0.1143551 0.9912355 0.06614486
vn 0.008596675 0.9997686 0.01972185
vn -0.1077184 0.9940289 0.01741678
vn -0.0659169 0.8844601 0.4619365
vn -0.06712434 0.9977322 -0.004987491
vn 0.2826184 0.9573065 0.06075492
vn 0.5152491 0.5549814 0.6530805
vn 0.3396852 0.9402353 -0.02391045
vn 0.3814737 0.9243797 -7.5337E-05
vn 0.389351 0.9210453 0.009019727
vn 0.7361097 0.6760672 0.03279813
vn 0.7764187 0.02674428 0.6296496
vn 0.7733988 0.6332453 -0.02923813
vn 0.7825673 0.6223436 -0.01663851
vn 0.9238855 0.3824567 0.01274765
vn 0.8893307 0.435493 0.1394158
vn 0.9999861 0.003391522 -0.004042843
vn 0.41939 0.7912495 0.4450127
vn 0.8265684 0.07865846 0.5573129
vn 0.585025 -0.4718502 0.6596234
vn 0.4971248 -0.8281938 0.2587703
vn 0.8016533 -0.5082845 0.314641
vn 0.9320121 0.3613426 -0.02801758
vn 0.9972111 -0.07446117 0.0050592
vn 0.7735595 0.6337173 -0.002874539
vn 0.9253841 0.3784686 -0.02063576
vn 0.999933 -0.0113384 0.00232984
vn 0.9275784 -0.373559 -0.007209622
vn 0.6197664 -0.506525 0.5994349
vn 0.9220678 0.3868792 -0.0107416
vn 0.9936027 0.112858 -0.004095162
vn 0.9210467 -0.3882998 0.02993881
vn 0.7595832 -0.6503616 0.007946582
vn 0.4043614 -0.6458521 0.6475854
vn 0.9824139 0.1858467 -0.01799556
vn 0.9184527 -0.395528 -0.001504273
vn 0.7349328 -0.6779408 0.01642908
vn 0.4011482 -0.9155835 0.02805239
vn -0.3214865 -0.592436 0.7386922
vn 0.004669036 -0.998853 0.04765461
vn 0.00916038 -0.9999349 -0.006807977
vn 0.3993269 -0.9167747 -0.007887716
vn 0.02198139 -0.9984192 -0.05172942
vn 0.3879802 -0.9200883 -0.05393443
vn 0.02917242 -0.998678 -0.0423237
vn 0.6542385 -0.7555986 -0.03229271
vn 0.3893028 -0.9200974 -0.04317446
vn 0.0256524 -0.9987356 0.04323446
vn 0.6146613 -0.78767 -0.04204194
vn 0.3870805 -0.9212096 0.039263
vn 0.02716961 -0.998234 0.05282764
vn 0.9229148 -0.3834262 -0.03482284
vn 0.6127249 -0.7896587 0.03173707
vn 0.3858044 -0.921146 0.05143019
vn 0.03250905 -0.9994572 -0.005342843
vn 0.9216946 -0.3878357 0.00790748
vn 0.388441 -0.921377 -0.01333708
vn 0.01916337 -0.9985259 -0.05078072
vn 0.6100496 -0.7911074 0.04459501
vn 0.9828342 0.1830404 -0.02308895
vn 0.3830581 -0.9224507 -0.04848984
vn 0.03241233 -0.9976732 -0.05997951
vn 0.6130452 -0.7897856 -0.02035219
vn 0.9163913 -0.3997167 0.02129629
vn 0.9222716 0.3851258 -0.0330654
vn 0.3904435 -0.9197273 -0.04069011
vn 0.03753216 -0.9979753 -0.0513486
vn 0.9847263 0.1735347 -0.01413864
vn 0.9188372 -0.3931377 -0.03436378
vn 0.6079081 -0.7926648 -0.04615541
vn 0.7741497 0.631205 -0.04767056
vn 0.9222903 0.3854756 -0.02809173
vn 0.9832762 0.1769658 -0.04302246
vn 0.9160009 -0.3993244 -0.03850192
vn 0.6146628 -0.7883886 -0.02516323
vn 0.3897647 0.9187081 -0.06370893
vn 0.7809682 0.6228966 -0.04570164
vn 0.3938944 0.9166003 -0.06849115
vn 0.9208456 0.3874314 -0.04404878
vn 0.9832706 0.1808983 -0.02132689
vn 0.3954885 0.9175801 -0.04044205
vn 0.7806082 0.6233946 -0.04505633
vn 0.3861203 0.9224465 -0.001852271
vn 0.9211088 0.3890358 -0.01447946
vn 0.7748472 0.6320683 -0.01007603
vn 0.921304 -0.3887779 0.007122997
vn 0.3897099 0.9196567 0.04855671
vn 0.77576 0.6288856 0.05195488
vn 0.9822744 0.1832287 0.03955123
vn 0.9199299 0.3891556 0.04782319
vn 0.4018089 0.9145724 0.04590296
vn 0.7859903 0.6182325 -0.002814351
vn 0.4045421 0.218668 -0.8879921
vn 0.4797974 0.8472236 -0.2280495
vn 0.1566539 0.7830529 -0.6019034
vn 0.3616875 0.4810502 -0.7986068
vn 0.7809859 0.6238134 0.0302969
vn 0.9224501 0.3857503 0.01681206
vn 0.4928042 0.2763839 -0.8250794
vn 0.9840478 0.1778375 0.004879403
vn 0.4625067 -0.2532456 -0.8496788
vn 0.9213535 -0.3881453 -0.02123691
vn 0.1179322 -0.597503 -0.793147
vn 0.6139894 -0.7883717 -0.03856419
vn -0.3065277 -0.7087297 -0.6354077
vn 0.3902662 -0.9195966 -0.04510526
vn 0.3893085 -0.9186453 -0.06730277
vn -0.3343045 -0.7407483 -0.5826942
vn -0.01699413 -0.8644947 -0.5023546
vn -0.2311724 0.8678516 -0.4397647
vn -0.7908366 -0.004939129 -0.6120074
vn -0.8509594 0.07452781 -0.5199171
vn -0.2240633 0.9028198 -0.3670313
vn -0.5557167 0.03672228 -0.8305603
vn 0.59929 0.7900553 0.1290901
vn -0.05904283 0.6597529 -0.7491596
vn 0.6180969 0.7804149 0.09438632
vn 0.8546161 -0.1112316 0.507207
vn 0.64961 0.5649968 -0.5087098
vn 0.9006218 -0.09750412 0.4235248
vn 0.2832471 -0.9029049 0.3233167
vn 0.9279004 -0.1503291 -0.3411774
vn 0.3187444 -0.8993063 0.2994165
vn -0.4913232 -0.8463563 -0.205627
vn 0.434219 -0.7827942 -0.4457434
vn -0.5337591 -0.8311579 -0.1558135
vn -0.7908366 -0.004939129 -0.6120074
vn -0.2897568 -0.6746508 -0.6788868
vn -0.8509594 0.07452781 -0.5199171
vn -0.5557167 0.03672228 -0.8305603
vn 0.434219 -0.7827942 -0.4457434
vn 0.9279004 -0.1503291 -0.3411774
vn 0.64961 0.5649968 -0.5087098
vn -0.05904283 0.6597529 -0.7491596
vn -0.2897568 -0.6746508 -0.6788868
vn -0.5557167 0.03672228 -0.8305603
vn 0.2025463 -0.976149 -0.07815433
vn 0.8730729 -0.268757 -0.4068333
vn 0.8173822 -0.2689374 -0.5094695
vn 0.2588723 -0.9612356 -0.09492749
vn 0.186729 -0.3795824 -0.9061179
vn -0.5944701 -0.7745059 0.216208
vn -0.1815633 -0.8749102 -0.4489619
vn -0.5257801 -0.7882128 0.319806
vn -0.9349874 -0.2050469 0.2894036
vn -0.7134738 -0.6962442 -0.0787351
vn -0.8897436 -0.1707469 0.4233224
vn -0.8797196 0.428826 0.2054306
vn -0.9700819 -0.2427777 0.0001406923
vn -0.8297718 0.4728296 0.2964977
vn -0.301965 0.9505661 -0.07239684
vn -0.9690974 0.2039847 -0.1387097
vn -0.268936 0.95837 -0.09591814
vn 0.6025566 0.6935966 -0.3947774
vn -0.6292893 0.5938713 -0.5013102
vn 0.558636 0.6566265 -0.5067223
vn 0.8730729 -0.268757 -0.4068333
vn -0.0380497 0.3541546 -0.9344125
vn 0.8173822 -0.2689374 -0.5094695
vn 0.186729 -0.3795824 -0.9061179
vn -0.1815633 -0.8749102 -0.4489619
vn 0.186729 -0.3795824 -0.9061179
vn -0.0380497 0.3541546 -0.9344125
vn -0.6292893 0.5938713 -0.5013102
vn -0.7134738 -0.6962442 -0.0787351
vn -0.9690974 0.2039847 -0.1387097
vn -0.9700819 -0.2427777 0.0001406923
vn 0.7447696 -0.1332874 0.6538752
vn 0.01135673 0.6285525 0.7776843
vn -0.007860597 0.6299897 0.7765638
vn 0.6709876 -0.1502764 0.7260804
vn 0.4286639 0.7856622 0.4460743
vn 0.7327787 -0.654814 -0.1850782
vn 0.8997442 0.1733108 0.4005295
vn 0.7136714 -0.6905756 -0.1173816
vn 0.08453669 -0.4845365 -0.8706767
vn 0.9484749 -0.2184464 -0.2295135
vn 0.09250691 -0.4705389 -0.8775167
vn -0.5867739 0.1846241 -0.7884227
vn 0.5261896 -0.02643401 -0.8499563
vn -0.5514833 0.2706968 -0.7890434
vn -0.6626952 0.7488526 -0.007401386
vn 0.06068808 0.5894508 -0.8055214
vn -0.5978863 0.8015689 -0.004390392
vn 0.01135673 0.6285525 0.7776843
vn 0.01574358 0.983713 -0.1790556
vn -0.007860597 0.6299897 0.7765638
vn 0.4286639 0.7856622 0.4460743
vn 0.5261896 -0.02643401 -0.8499563
vn 0.9484749 -0.2184464 -0.2295135
vn 0.8997442 0.1733108 0.4005295
vn 0.06068808 0.5894508 -0.8055214
vn 0.4286639 0.7856622 0.4460743
vn 0.01574358 0.983713 -0.1790556
vn 0.04943696 -0.6699429 -0.7407649
vn 0.7699909 0.0460977 -0.6363875
vn 0.6489019 0.1390352 -0.7480612
vn -0.06386454 -0.5093849 -0.8581657
vn 0.05267156 0.6667921 -0.7433801
vn -0.7281395 -0.6707125 -0.1412718
vn -0.5238214 0.1624898 -0.8361868
vn -0.7474905 -0.6267878 -0.2199887
vn -0.8268769 0.0248194 0.561835
vn -0.9650548 -0.001427705 -0.2620445
vn -0.7850068 -0.09491272 0.6121731
vn -0.1052781 0.7399788 0.6643402
vn -0.8531674 0.3065088 0.4220875
vn 0.01182005 0.6404432 0.7679145
vn 0.6746647 0.7346075 0.07196772
vn -0.2695822 0.8100461 0.5207214
vn 0.7071222 0.7064448 0.03023057
vn 0.7699909 0.0460977 -0.6363875
vn 0.1647744 0.9842775 -0.06361702
vn 0.6489019 0.1390352 -0.7480612
vn 0.05267156 0.6667921 -0.7433801
vn -0.9650548 -0.001427705 -0.2620445
vn -0.5238214 0.1624898 -0.8361868
vn 0.05267156 0.6667921 -0.7433801
vn 0.1647744 0.9842775 -0.06361702
vn -0.8531674 0.3065088 0.4220875
vn -0.2695822 0.8100461 0.5207214
vn -0.798417 0.2943625 -0.5252438
vn -0.844418 -0.1724921 -0.5071535
vn -0.6927851 -0.4882707 -0.5306982
vn -0.4727689 -0.5818527 -0.6617681
vn -0.540311 0.6840467 -0.4900451
vn -0.1907441 0.7707788 -0.607879
vn 0.07635696 -0.5462885 -0.8341094
vn 0.2454197 0.5503134 -0.7980755
vn 0.7807025 -0.2443302 -0.5751578
vn 0.8567603 0.2300234 -0.4615746
vn -0.697685 -0.700619 -0.1495615
vn -0.8950419 0.1533795 -0.4187776
vn -0.4783371 -0.8040672 -0.3530858
vn -0.3833207 -0.5620782 -0.7328938
vn -0.5841324 -0.4401342 -0.6819613
vn -0.6927851 -0.4882707 -0.5306982
vn -0.8127245 -0.01834088 -0.5823594
vn -0.844418 -0.1724921 -0.5071535
vn -0.798417 0.2943625 -0.5252438
vn -0.7645079 0.2233508 -0.6046835
vn -0.4727689 -0.5818527 -0.6617681
vn -0.3053355 -0.4551845 -0.8364074
vn 0.07635696 -0.5462885 -0.8341094
vn 0.1345354 -0.03621696 -0.9902468
vn 0.7807025 -0.2443302 -0.5751578
vn 0.06143547 0.5845236 -0.8090475
vn 0.8567603 0.2300234 -0.4615746
vn 0.09219892 0.5291002 -0.8435356
vn 0.2454197 0.5503134 -0.7980755
vn -0.540311 0.6840467 -0.4900451
vn -0.006681327 0.5735397 -0.8191506
vn -0.1907441 0.7707788 -0.607879
vn -0.6984267 0.4161507 -0.5822532
vn -0.5438764 0.6103652 -0.575893
vn -0.006681327 0.5735397 -0.8191506
vn -0.3343045 -0.7407483 -0.5826942
vn -0.5438764 0.6103652 -0.575893
vn -0.6984267 0.4161507 -0.5822532
vn -0.01699413 -0.8644947 -0.5023546
vn -0.2944153 -0.6240403 -0.7238047
vn 0.09219892 0.5291002 -0.8435356
vn -0.6336145 -0.4369642 -0.6384317
vn -0.3065277 -0.7087297 -0.6354077
vn 0.1179322 -0.597503 -0.793147
vn 0.4625067 -0.2532456 -0.8496788
vn 0.06143547 0.5845236 -0.8090475
vn -0.8955919 -0.1532068 -0.4176637
vn -0.9505607 0.2281014 -0.2107228
vn -0.7645079 0.2233508 -0.6046835
vn 0.4928042 0.2763839 -0.8250794
vn 0.3616875 0.4810502 -0.7986068
vn -0.8127245 -0.01834088 -0.5823594
vn 0.1566539 0.7830529 -0.6019034
vn -0.8950419 0.1533795 -0.4187776
vn 0.1345354 -0.03621696 -0.9902468
vn -0.8553267 0.4001893 -0.3290363
vn -0.7434409 0.5218745 -0.4182616
vn -0.3053355 -0.4551845 -0.8364074
vn -0.5133331 0.7402034 -0.4342672
vn 0.4797974 0.8472236 -0.2280495
vn -0.4783371 -0.8040672 -0.3530858
vn -0.3833207 -0.5620782 -0.7328938
vn 0.4045421 0.218668 -0.8879921
vn -0.5841324 -0.4401342 -0.6819613
vn -0.2732806 0.8106909 -0.5177819
vn -0.02005148 0.8075937 -0.5893983
vn -0.3597782 0.06596527 0.930703
vn 0.2454608 -0.4195454 0.8739167
vn -0.3018824 -0.111527 0.9467992
vn 0.1659933 -0.01351123 0.9860343
vn 0.7444285 0.1407939 0.6526893
vn 0.6811988 -0.07381842 0.7283673
vn -0.05718382 -0.6240749 0.7792693
vn -0.3214865 -0.592436 0.7386922
vn 0.3072016 -0.6581821 0.6873308
vn 0.09713329 -0.9725049 0.2116586
vn 0.004669036 -0.998853 0.04765461
vt 0.5164953 0.4816231
vt 0.5131829 0.4922256
vt 0.5219764 0.4844117
vt 0.5088255 0.4883229
vt 0.4981319 0.4766406
vt 0.4962993 0.4873326
vt 0.4941744 0.4922256
vt 0.4809566 0.4775662
vt 0.4767548 0.4821112
vt 0.4867898 0.4692162
vt 0.4711373 0.4723955
vt 0.4678079 0.4772706
vt 0.4629701 0.4667412
vt 0.4683937 0.4670954
vt 0.4758925 0.4590275
vt 0.463993 0.4609893
vt 0.4686252 0.442386
vt 0.4633471 0.4417116
vt 0.4643224 0.4354747
vt 0.4668669 0.4365076
vt 0.4793834 0.4346409
vt 0.4732187 0.4325548
vt 0.4726106 0.4296552
vt 0.4795948 0.4295671
vt 0.4949 0.4392969
vt 0.4969561 0.4332634
vt 0.5090428 0.4390827
vt 0.5076522 0.4441341
vt 0.4813812 0.5289607
vt 0.4863493 0.5265455
vt 0.4855645 0.5167747
vt 0.4808002 0.5047836
vt 0.4769838 0.5288901
vt 0.4863493 0.4922256
vt 0.4638925 0.5077071
vt 0.46297 0.5146136
vt 0.4652293 0.51723
vt 0.474972 0.5231109
vt 0.4689126 0.5185032
vt 0.471945 0.5186348
vt 0.4648819 0.529809
vt 0.5141484 0.2768342
vt 0.5216848 0.2789899
vt 0.5216848 0.2522398
vt 0.5152784 0.2536853
vt 0.519776 0.2399099
vt 0.5142732 0.2428143
vt 0.5193602 0.3389898
vt 0.5271227 0.3491324
vt 0.5258253 0.3417004
vt 0.5159897 0.3448663
vt 0.506228 0.3317143
vt 0.5008453 0.3358681
vt 0.4987525 0.3137142
vt 0.4921767 0.3155225
vt 0.4920156 0.3100497
vt 0.4979097 0.3079354
vt 0.5110193 0.3051054
vt 0.4928127 0.3039849
vt 0.4982775 0.3050383
vt 0.5042167 0.2982428
vt 0.5271227 0.2988907
vt 0.4997353 0.2925835
vt 0.5170074 0.2889281
vt 0.5146942 0.2829077
vt 0.519026 0.3986373
vt 0.5209299 0.4113989
vt 0.5273172 0.4123936
vt 0.5252907 0.3986006
vt 0.5211002 0.3894124
vt 0.5273172 0.3896666
vt 0.8896214 0.770339
vt 0.8970821 0.7712582
vt 0.9001164 0.7273735
vt 0.8919646 0.7344009
vt 0.8130134 0.7458043
vt 0.8584798 0.7645789
vt 0.8831906 0.7758065
vt 0.899834 0.7066357
vt 0.8880403 0.704284
vt 0.895327 0.6897572
vt 0.8663864 0.6857745
vt 0.8674885 0.6721067
vt 0.8386989 0.6641546
vt 0.8404161 0.6785256
vt 0.8045475 0.6638894
vt 0.8103665 0.6779208
vt 0.7837394 0.6800075
vt 0.791979 0.6910199
vt 0.7744902 0.6881158
vt 0.785421 0.6974248
vt 0.7735655 0.7130579
vt 0.768244 0.7356371
vt 0.7720566 0.7581126
vt 0.7583222 0.707692
vt 0.7559073 0.7328299
vt 0.7674672 0.7450416
vt 0.7534503 0.7625826
vt 0.7636098 0.7605565
vt 0.7630676 0.7884735
vt 0.7683981 0.7592103
vt 0.7766572 0.7817851
vt 0.7923812 0.7992384
vt 0.7807026 0.7763881
vt 0.7933368 0.7885002
vt 0.8161951 0.8081049
vt 0.7842516 0.7734567
vt 0.7941906 0.7827183
vt 0.8093198 0.7894701
vt 0.8010485 0.7819967
vt 0.8176584 0.7928433
vt 0.8398404 0.8115877
vt 0.8476151 0.8019369
vt 0.8746165 0.801737
vt 0.86994 0.7935273
vt 0.8786898 0.784235
vt 0.2453496 0.9885516
vt 0.2478217 0.9946079
vt 0.2602639 0.9925449
vt 0.2628152 0.9856558
vt 0.2645655 0.9246998
vt 0.2832518 0.9257734
vt 0.2802323 0.9844911
vt 0.2932472 0.986635
vt 0.3026077 0.9273067
vt 0.2855951 0.8732426
vt 0.305019 0.8738663
vt 0.245887 0.9343905
vt 0.2271196 0.9888077
vt 0.2658964 0.8726249
vt 0.2864082 0.8163404
vt 0.305019 0.8161268
vt 0.2472894 0.8720584
vt 0.2674489 0.8162787
vt 0.2808559 0.7238307
vt 0.2990336 0.7230647
vt 0.2460763 0.8159485
vt 0.262167 0.7245069
vt 0.2769833 0.6334069
vt 0.2945784 0.632771
vt 0.2409388 0.7252395
vt 0.2588891 0.6341991
vt 0.2761379 0.526165
vt 0.2931799 0.5254378
vt 0.2384213 0.635195
vt 0.2585915 0.5271034
vt 0.2725965 0.4195127
vt 0.2891864 0.4187508
vt 0.2386338 0.5282969
vt 0.2553587 0.4205408
vt 0.2652016 0.3171644
vt 0.2807088 0.3161278
vt 0.2356168 0.4218578
vt 0.2493217 0.3182116
vt 0.2607994 0.2167163
vt 0.2754841 0.2159781
vt 0.2314458 0.3194404
vt 0.2455077 0.2176123
vt 0.2587494 0.1196527
vt 0.2734487 0.1188464
vt 0.2553256 0.0281353
vt 0.2693553 0.01891756
vt 0.2406154 0.03697252
vt 0.2434536 0.1203618
vt 0.2237031 0.04600143
vt 0.2258997 0.1210442
vt 0.2087203 0.04813766
vt 0.2280241 0.2187405
vt 0.2105695 0.1211038
vt 0.1935878 0.04706812
vt 0.2126427 0.2196779
vt 0.1949801 0.120975
vt 0.1788367 0.04350424
vt 0.2158499 0.3202944
vt 0.179638 0.1206937
vt 0.1640745 0.03742504
vt 0.1969794 0.2205482
vt 0.2184683 0.4232302
vt 0.1641598 0.1202865
vt 0.1495152 0.02875328
vt 0.1998779 0.3210311
vt 0.1814688 0.221302
vt 0.2212126 0.5293055
vt 0.14894 0.1198158
vt 0.1349568 0.01975107
vt 0.2010623 0.4245872
vt 0.1839566 0.32164
vt 0.1656982 0.2218966
vt 0.2208059 0.6360536
vt 0.2034197 0.5302119
vt 0.1839007 0.4258275
vt 0.1675688 0.3220797
vt 0.1500707 0.2220273
vt 0.2226976 0.7256961
vt 0.2030444 0.6368456
vt 0.1857976 0.5309715
vt 0.1665331 0.4268818
vt 0.2275138 0.8158767
vt 0.2044179 0.7261157
vt 0.185652 0.6375372
vt 0.2281188 0.871886
vt 0.2084093 0.8159308
vt 0.2274922 0.9340012
vt 0.1511594 0.3221354
vt 0.1678488 0.5315189
vt 0.1865536 0.7264843
vt 0.2085093 0.8719778
vt 0.1493859 0.4273682
vt 0.1681159 0.6380923
vt 0.189326 0.8158398
vt 0.1500553 0.5315943
vt 0.1685474 0.726789
vt 0.1507347 0.6381946
vt 0.2091128 0.93364
vt 0.1889138 0.8720706
vt 0.1699756 0.8157997
vt 0.1508374 0.7270389
vt 0.2087913 0.9885135
vt 0.2173126 1
vt 0.2271311 0.994318
vt 0.208764 0.9950373
vt 0.1884243 0.9845541
vt 0.1896424 0.9973996
vt 0.1900036 0.9306636
vt 0.1698095 0.9784565
vt 0.1704772 0.9901166
vt 0.1704009 0.8721426
vt 0.171391 0.9272137
vt 0.162901 0.970161
vt 0.1537352 0.9491053
vt 0.1507723 0.8159766
vt 0.1532462 0.9243274
vt 0.1448931 0.9737275
vt 0.1521053 0.8729341
vt 0.1366888 0.9301996
vt 0.1175338 0.9781663
vt 0.1331632 0.8716667
vt 0.1316572 0.81635
vt 0.133273 0.7271881
vt 0.113704 0.9185631
vt 0.1049305 0.9772098
vt 0.1128999 0.8721285
vt 0.1128587 0.8166201
vt 0.09528804 0.9196551
vt 0.09938514 0.9694798
vt 0.08131242 0.9768856
vt 0.09964132 0.9825625
vt 0.08163834 0.9849913
vt 0.06745553 0.9874396
vt 0.06433702 0.9829435
vt 0.06300187 0.9780257
vt 0.09437287 0.8739479
vt 0.07658601 0.9206038
vt 0.1158646 0.7271821
vt 0.09443557 0.8167996
vt 0.07583535 0.8739259
vt 0.05781937 0.9304376
vt 0.04246473 0.9800377
vt 0.09845424 0.726994
vt 0.07586443 0.8169386
vt 0.05698431 0.8768973
vt 0.0391947 0.9279702
vt 0.02612591 0.9814477
vt 0.08058929 0.7267432
vt 0.05595469 0.8170121
vt 0.0383532 0.8740916
vt 0.02071464 0.9272337
vt 0.01601541 0.9861031
vt 0.00167644 0.9278474
vt 7.116795E-05 0.8741274
vt 0.01939416 0.8739643
vt 0 0.8164721
vt 0.01883101 0.8169403
vt 0.005784035 0.7237551
vt 0.03759623 0.8171029
vt 0.02418685 0.7247066
vt 0.008721709 0.6335883
vt 0.04270804 0.7255678
vt 0.02668405 0.6341608
vt 0.01016927 0.5261011
vt 0.06098151 0.7262816
vt 0.04477155 0.6348093
vt 0.02751327 0.5266638
vt 0.01544738 0.4196587
vt 0.06260693 0.6355295
vt 0.03220737 0.4209328
vt 0.01932442 0.3165359
vt 0.04491162 0.527338
vt 0.08177507 0.6363907
vt 0.03532255 0.3175015
vt 0.02771902 0.2161407
vt 0.04897273 0.4223151
vt 0.06212091 0.5281246
vt 0.09929454 0.6370516
vt 0.04269052 0.2169437
vt 0.03010213 0.1191177
vt 0.08077157 0.5291784
vt 0.06539547 0.423748
vt 0.05161691 0.3184714
vt 0.1163443 0.6377134
vt 0.0980103 0.5300407
vt 0.08319306 0.4251475
vt 0.06789935 0.3194246
vt 0.05784035 0.2178149
vt 0.1334641 0.6380877
vt 0.1150957 0.5308683
vt 0.1324346 0.5313923
vt 0.09971344 0.4261241
vt 0.08574641 0.320282
vt 0.1325066 0.4274778
vt 0.1159807 0.4271107
vt 0.1347106 0.3219857
vt 0.1022006 0.3209219
vt 0.1183664 0.3215814
vt 0.07284343 0.2187324
vt 0.1346054 0.2218804
vt 0.1194081 0.2214208
vt 0.08922434 0.2198081
vt 0.1043494 0.2206593
vt 0.1339924 0.1193681
vt 0.1198328 0.06529434
vt 0.1276351 0.01566956
vt 0.1232067 0.02320455
vt 0.1203135 0.0115881
vt 0.1056561 0.006689548
vt 0.119352 0.1190004
vt 0.1049044 0.1188321
vt 0.09068823 0.001607895
vt 0.09029651 0.1185999
vt 0.07440662 0
vt 0.0744797 0.1184964
vt 0.05970335 0.004639626
vt 0.05985665 0.11869
vt 0.04500115 0.01128864
vt 0.04497576 0.1189094
vt 0.04498845 0.06509895
vt 0.0377202 0.01516294
vt 0.03043926 0.01903725
vt 0.4086423 0.009288073
vt 0.3872627 0.01433587
vt 0.413138 0.1045039
vt 0.4286058 0.1016033
vt 0.4200668 0.1507461
vt 0.4310991 0.004481316
vt 0.434039 0.1476128
vt 0.4450563 0.09978819
vt 0.4534413 0.0009014606
vt 0.449409 0.1482439
vt 0.4604752 0.09883523
vt 0.4756823 0
vt 0.4642105 0.1504385
vt 0.4755273 0.09808612
vt 0.4987473 0.00169611
vt 0.4786488 0.1507461
vt 0.4918542 0.09753203
vt 0.5209869 0.004977703
vt 0.4938461 0.1479833
vt 0.5078682 0.09768391
vt 0.5078485 0.144376
vt 0.7688938 0.7078074
vt 0.7688938 0.758758
vt 0.8156928 0.7818601
vt 0.8624917 0.7540108
vt 0.8156928 0.6799582
vt 0.8624917 0.7030594
vt 0.4042623 0.4089879
vt 0.3587317 0.4165704
vt 0.3831025 0.5319712
vt 0.4189985 0.5234921
vt 0.411181 0.6102927
vt 0.4459445 0.4006471
vt 0.4378064 0.5981464
vt 0.455986 0.5180445
vt 0.4705556 0.4002855
vt 0.4647333 0.5915037
vt 0.4773496 0.5154694
vt 0.4992194 0.3996431
vt 0.4809757 0.5911456
vt 0.5023182 0.5151229
vt 0.5367247 0.3992695
vt 0.4998616 0.5930735
vt 0.5337468 0.5160922
vt 0.5830774 0.4033813
vt 0.5235265 0.5980349
vt 0.5699064 0.520753
vt 0.6302494 0.4124473
vt 0.5524584 0.6050718
vt 0.6047551 0.5282314
vt 0.5825039 0.6102927
vt 0.7648287 0.7496055
vt 0.8039851 0.7963299
vt 0.8640144 0.7857731
vt 0.8848872 0.7284915
vt 0.7848288 0.6947188
vt 0.8527786 0.6901768
vt 0.8150318 0.6799793
vt 0.3810892 0.2856837
vt 0.3531488 0.2940889
vt 0.3780915 0.3794596
vt 0.3988003 0.3733443
vt 0.3847772 0.3960811
vt 0.4104692 0.2756527
vt 0.4028829 0.3910556
vt 0.4211974 0.3675874
vt 0.4403739 0.2697364
vt 0.4225879 0.3887685
vt 0.4425744 0.3647183
vt 0.4701104 0.2722693
vt 0.4415885 0.3890642
vt 0.4631175 0.3661823
vt 0.500892 0.2819252
vt 0.4607984 0.3907354
vt 0.4837542 0.3713729
vt 0.5297356 0.2929607
vt 0.4811967 0.3926799
vt 0.5037777 0.3775708
vt 0.5003368 0.3956391
vt 0.8317224 0.6795769
vt 0.7841876 0.7092362
vt 0.7841876 0.7677606
vt 0.879257 0.7084425
vt 0.8317224 0.7966259
vt 0.879257 0.7669669
vt 0.4120462 0.3286517
vt 0.3906199 0.3311779
vt 0.4044211 0.4263656
vt 0.4203741 0.422834
vt 0.415151 0.4549114
vt 0.4356247 0.3276001
vt 0.4283157 0.4502225
vt 0.4369144 0.421312
vt 0.4576943 0.3276581
vt 0.442487 0.4458979
vt 0.4547048 0.4211588
vt 0.4784023 0.3284638
vt 0.4564054 0.4438693
vt 0.4728419 0.4222178
vt 0.5004699 0.3300632
vt 0.4695892 0.4453424
vt 0.4916777 0.4248028
vt 0.5232248 0.3325689
vt 0.4827805 0.4493415
vt 0.5089186 0.4289155
vt 0.4955757 0.4549114
vt 0.8155349 0.7708801
vt 0.8556659 0.7708801
vt 0.8742319 0.7373107
vt 0.8526677 0.7037418
vt 0.7939708 0.7373112
vt 0.8125371 0.7037418
vt 0.7554711 0.7086526
vt 0.7592704 0.7614679
vt 0.7782112 0.7959245
vt 0.8166903 0.8128123
vt 0.7799085 0.6690788
vt 0.832343 0.6631285
vt 0.8611418 0.8129426
vt 0.8739005 0.6847651
vt 0.8965755 0.7741737
vt 0.9065311 0.719021
vt 0.3251563 0.4853347
vt 0.3516086 0.533345
vt 0.3450375 0.5076967
vt 0.3661261 0.5113282
vt 0.3790674 0.4831089
vt 0.318207 0.4768325
vt 0.3091284 0.5616865
vt 0.3015442 0.4897743
vt 0.2750558 0.4924729
vt 0.2522393 0.5616865
vt 0.3245165 0.4525326
vt 0.3712242 0.4091377
vt 0.3166767 0.4268606
vt 0.3124036 0.3774707
vt 0.3038747 0.4059204
vt 0.2498712 0.3716577
vt 0.2755651 0.4051633
vt 0.2050019 0.4004898
vt 0.2697353 0.4264476
vt 0.2554087 0.4769536
vt 0.2024873 0.4533415
vt 0.2567179 0.446779
vt 0.2104998 0.5247662
vt 0.2089635 0.484045
vt 0.5149273 0.4852957
vt 0.5321011 0.4695222
vt 0.5236241 0.4641366
vt 0.5333894 0.4362414
vt 0.5341461 0.4864552
vt 0.5166882 0.5065454
vt 0.4877494 0.5080295
vt 0.4927126 0.5209646
vt 0.5435833 0.4493102
vt 0.5435833 0.419386
vt 0.5359325 0.3916662
vt 0.4507199 0.5154383
vt 0.459509 0.5366139
vt 0.4207726 0.5376264
vt 0.5195952 0.4003267
vt 0.5089799 0.3763889
vt 0.477978 0.3743025
vt 0.4825327 0.3844967
vt 0.4482172 0.3716577
vt 0.4495479 0.3862029
vt 0.4081236 0.5076174
vt 0.3992034 0.5178251
vt 0.3848273 0.4922512
vt 0.3937155 0.4673176
vt 0.3790674 0.4616811
vt 0.4301918 0.3853646
vt 0.4378814 0.4030112
vt 0.4231624 0.4101821
vt 0.414747 0.3899111
vt 0.4098788 0.4266703
vt 0.3889861 0.4304706
vt 0.4049523 0.4016401
vt 0.5181047 0.1658349
vt 0.5266235 0.1687827
vt 0.5209405 0.1639409
vt 0.5251058 0.1507463
vt 0.5301416 0.1624846
vt 0.5342468 0.1626916
vt 0.5287095 0.182796
vt 0.5141484 0.167439
vt 0.537861 0.1626792
vt 0.5327827 0.2032986
vt 0.537861 0.2399101
usemtl MV_FirBarkMISC
f 1/1/1 3/3/3 2/2/2
f 1/1/1 2/2/2 4/4/4
f 5/5/5 1/1/1 4/4/4
f 6/6/6 4/4/4 2/2/2
f 5/5/5 4/4/4 6/6/6
f 6/6/6 2/2/2 7/7/7
f 8/8/8 5/5/5 6/6/6
f 8/8/8 6/6/6 7/7/7
f 8/8/8 7/7/7 9/9/9
f 10/10/10 5/5/5 8/8/8
f 11/11/11 8/8/8 9/9/9
f 11/11/11 10/10/10 8/8/8
f 11/11/11 9/9/9 12/12/12
f 11/11/11 12/12/12 13/13/13
f 14/14/14 10/10/10 11/11/11
f 11/11/11 13/13/13 14/14/14
f 10/10/10 14/14/14 15/15/15
f 16/16/16 14/14/14 13/13/13
f 16/16/16 15/15/15 14/14/14
f 17/17/17 15/15/15 16/16/16
f 17/17/17 16/16/16 18/18/18
f 17/17/17 18/18/18 19/19/19
f 17/17/17 19/19/19 20/20/20
f 21/21/21 17/17/17 20/20/20
f 22/22/22 20/20/20 19/19/19
f 21/21/21 20/20/20 22/22/22
f 22/22/22 19/19/19 23/23/23
f 24/24/24 22/22/22 23/23/23
f 24/24/24 21/21/21 22/22/22
f 25/25/25 21/21/21 24/24/24
f 25/25/25 24/24/24 26/26/26
f 27/27/27 25/25/25 26/26/26
f 27/27/27 28/28/28 25/25/25
f 29/29/29 31/31/31 30/30/30
f 29/29/29 32/32/32 31/31/31
f 33/33/33 32/32/32 29/29/29
f 31/31/31 32/32/32 34/34/34
f 32/32/32 35/35/35 34/34/34
f 32/32/32 36/36/36 35/35/35
f 32/32/32 37/37/37 36/36/36
f 32/32/32 33/33/33 38/38/38
f 32/32/32 39/39/39 37/37/37
f 32/32/32 38/38/38 40/40/40
f 40/40/40 39/39/39 32/32/32
f 38/38/38 41/41/41 40/40/40
f 40/40/40 41/41/41 39/39/39
f 42/42/42 44/44/44 43/43/43
f 42/42/42 45/45/45 44/44/44
f 45/45/45 46/46/46 44/44/44
f 45/45/45 47/47/47 46/46/46
f 48/48/48 50/50/50 49/49/49
f 48/48/48 49/49/49 51/51/51
f 52/52/52 48/48/48 51/51/51
f 52/52/52 51/51/51 53/53/53
f 54/54/54 52/52/52 53/53/53
f 54/54/54 53/53/53 55/55/55
f 54/54/54 55/55/55 56/56/56
f 54/54/54 56/56/56 57/57/57
f 57/57/57 58/58/58 54/54/54
f 57/57/57 56/56/56 59/59/59
f 58/58/58 57/57/57 60/60/60
f 57/57/57 59/59/59 60/60/60
f 58/58/58 60/60/60 61/61/61
f 61/61/61 60/60/60 59/59/59
f 62/62/62 58/58/58 61/61/61
f 61/61/61 59/59/59 63/63/63
f 62/62/62 61/61/61 64/64/64
f 64/64/64 61/61/61 63/63/63
f 64/64/64 63/63/63 65/65/65
f 66/66/66 68/68/68 67/67/67
f 66/66/66 69/69/69 68/68/68
f 70/70/70 69/69/69 66/66/66
f 70/70/70 71/71/71 69/69/69
f 72/72/72 74/74/74 73/73/73
f 72/72/72 75/75/75 74/74/74
f 72/72/72 76/76/76 75/75/75
f 72/72/72 77/77/77 76/76/76
f 78/78/78 77/77/77 72/72/72
f 75/75/75 79/79/79 74/74/74
f 75/75/75 80/80/80 79/79/79
f 75/75/75 76/76/76 80/80/80
f 79/79/79 80/80/80 81/81/81
f 80/80/80 82/82/82 81/81/81
f 80/80/80 76/76/76 82/82/82
f 81/81/81 82/82/82 83/83/83
f 82/82/82 84/84/84 83/83/83
f 82/82/82 85/85/85 84/84/84
f 82/82/82 76/76/76 85/85/85
f 85/85/85 86/86/86 84/84/84
f 85/85/85 87/87/87 86/86/86
f 85/85/85 76/76/76 87/87/87
f 87/87/87 88/88/88 86/86/86
f 87/87/87 89/89/89 88/88/88
f 87/87/87 76/76/76 89/89/89
f 89/89/89 90/90/90 88/88/88
f 89/89/89 91/91/91 90/90/90
f 89/89/89 76/76/76 91/91/91
f 76/76/76 93/93/93 92/92/92
f 93/93/93 76/76/76 94/94/94
f 95/95/95 92/92/92 93/93/93
f 95/95/95 93/93/93 96/96/96
f 97/97/97 96/96/96 93/93/93
f 93/93/93 94/94/94 97/97/97
f 96/96/96 97/97/97 98/98/98
f 98/98/98 97/97/97 99/99/99
f 99/99/99 100/100/100 98/98/98
f 101/101/101 99/99/99 97/97/97
f 94/94/94 101/101/101 97/97/97
f 99/99/99 102/102/102 100/100/100
f 102/102/102 99/99/99 101/101/101
f 102/102/102 103/103/103 100/100/100
f 104/104/104 101/101/101 94/94/94
f 102/102/102 101/101/101 104/104/104
f 102/102/102 105/105/105 103/103/103
f 105/105/105 102/102/102 104/104/104
f 105/105/105 106/106/106 103/103/103
f 104/104/104 94/94/94 107/107/107
f 94/94/94 76/76/76 107/107/107
f 105/105/105 104/104/104 108/108/108
f 108/108/108 104/104/104 107/107/107
f 109/109/109 106/106/106 105/105/105
f 105/105/105 108/108/108 109/109/109
f 108/108/108 107/107/107 110/110/110
f 107/107/107 76/76/76 110/110/110
f 108/108/108 110/110/110 109/109/109
f 109/109/109 110/110/110 76/76/76
f 106/106/106 109/109/109 111/111/111
f 109/109/109 76/76/76 111/111/111
f 111/111/111 112/112/112 106/106/106
f 111/111/111 113/113/113 112/112/112
f 111/111/111 76/76/76 113/113/113
f 113/113/113 114/114/114 112/112/112
f 113/113/113 115/115/115 114/114/114
f 113/113/113 76/76/76 115/115/115
f 115/115/115 76/76/76 77/77/77
f 77/77/77 116/116/116 115/115/115
f 117/117/117 119/119/119 118/118/118
f 117/117/117 120/120/120 119/119/119
f 121/121/121 120/120/120 117/117/117
f 122/122/122 120/120/120 121/121/121
f 122/122/122 123/123/123 120/120/120
f 124/124/124 123/123/123 122/122/122
f 124/124/124 122/122/122 125/125/125
f 125/125/125 122/122/122 126/126/126
f 125/125/125 126/126/126 127/127/127
f 121/121/121 117/117/117 128/128/128
f 128/128/128 117/117/117 129/129/129
f 122/122/122 121/121/121 130/130/130
f 122/122/122 130/130/130 126/126/126
f 127/127/127 126/126/126 131/131/131
f 127/127/127 131/131/131 132/132/132
f 121/121/121 128/128/128 133/133/133
f 121/121/121 133/133/133 130/130/130
f 126/126/126 130/130/130 134/134/134
f 126/126/126 134/134/134 131/131/131
f 132/132/132 131/131/131 135/135/135
f 132/132/132 135/135/135 136/136/136
f 130/130/130 133/133/133 137/137/137
f 130/130/130 137/137/137 134/134/134
f 131/131/131 134/134/134 138/138/138
f 131/131/131 138/138/138 135/135/135
f 136/136/136 135/135/135 139/139/139
f 136/136/136 139/139/139 140/140/140
f 134/134/134 137/137/137 141/141/141
f 134/134/134 141/141/141 138/138/138
f 135/135/135 138/138/138 142/142/142
f 135/135/135 142/142/142 139/139/139
f 140/140/140 139/139/139 143/143/143
f 140/140/140 143/143/143 144/144/144
f 138/138/138 141/141/141 145/145/145
f 138/138/138 145/145/145 142/142/142
f 139/139/139 142/142/142 146/146/146
f 139/139/139 146/146/146 143/143/143
f 144/144/144 143/143/143 147/147/147
f 144/144/144 147/147/147 148/148/148
f 142/142/142 145/145/145 149/149/149
f 142/142/142 149/149/149 146/146/146
f 143/143/143 146/146/146 150/150/150
f 143/143/143 150/150/150 147/147/147
f 148/148/148 147/147/147 151/151/151
f 148/148/148 151/151/151 152/152/152
f 146/146/146 149/149/149 153/153/153
f 146/146/146 153/153/153 150/150/150
f 147/147/147 150/150/150 154/154/154
f 147/147/147 154/154/154 151/151/151
f 152/152/152 151/151/151 155/155/155
f 152/152/152 155/155/155 156/156/156
f 150/150/150 153/153/153 157/157/157
f 150/150/150 157/157/157 154/154/154
f 151/151/151 154/154/154 158/158/158
f 151/151/151 158/158/158 155/155/155
f 156/156/156 155/155/155 159/159/159
f 156/156/156 159/159/159 160/160/160
f 160/160/160 159/159/159 161/161/161
f 160/160/160 161/161/161 162/162/162
f 159/159/159 163/163/163 161/161/161
f 155/155/155 164/164/164 159/159/159
f 159/159/159 164/164/164 163/163/163
f 155/155/155 158/158/158 164/164/164
f 164/164/164 165/165/165 163/163/163
f 164/164/164 166/166/166 165/165/165
f 158/158/158 166/166/166 164/164/164
f 166/166/166 167/167/167 165/165/165
f 154/154/154 168/168/168 158/158/158
f 158/158/158 168/168/168 166/166/166
f 154/154/154 157/157/157 168/168/168
f 166/166/166 169/169/169 167/167/167
f 168/168/168 169/169/169 166/166/166
f 169/169/169 170/170/170 167/167/167
f 157/157/157 171/171/171 168/168/168
f 168/168/168 171/171/171 169/169/169
f 169/169/169 172/172/172 170/170/170
f 171/171/171 172/172/172 169/169/169
f 172/172/172 173/173/173 170/170/170
f 157/157/157 174/174/174 171/171/171
f 153/153/153 174/174/174 157/157/157
f 172/172/172 175/175/175 173/173/173
f 175/175/175 176/176/176 173/173/173
f 171/171/171 177/177/177 172/172/172
f 174/174/174 177/177/177 171/171/171
f 177/177/177 175/175/175 172/172/172
f 153/153/153 178/178/178 174/174/174
f 149/149/149 178/178/178 153/153/153
f 175/175/175 179/179/179 176/176/176
f 179/179/179 180/180/180 176/176/176
f 174/174/174 181/181/181 177/177/177
f 178/178/178 181/181/181 174/174/174
f 177/177/177 182/182/182 175/175/175
f 182/182/182 179/179/179 175/175/175
f 181/181/181 182/182/182 177/177/177
f 149/149/149 183/183/183 178/178/178
f 145/145/145 183/183/183 149/149/149
f 179/179/179 184/184/184 180/180/180
f 184/184/184 185/185/185 180/180/180
f 178/178/178 186/186/186 181/181/181
f 183/183/183 186/186/186 178/178/178
f 181/181/181 187/187/187 182/182/182
f 186/186/186 187/187/187 181/181/181
f 182/182/182 188/188/188 179/179/179
f 188/188/188 184/184/184 179/179/179
f 187/187/187 188/188/188 182/182/182
f 145/145/145 189/189/189 183/183/183
f 141/141/141 189/189/189 145/145/145
f 183/183/183 190/190/190 186/186/186
f 189/189/189 190/190/190 183/183/183
f 186/186/186 191/191/191 187/187/187
f 190/190/190 191/191/191 186/186/186
f 187/187/187 192/192/192 188/188/188
f 191/191/191 192/192/192 187/187/187
f 188/188/188 193/193/193 184/184/184
f 192/192/192 193/193/193 188/188/188
f 141/141/141 194/194/194 189/189/189
f 137/137/137 194/194/194 141/141/141
f 189/189/189 195/195/195 190/190/190
f 194/194/194 195/195/195 189/189/189
f 190/190/190 196/196/196 191/191/191
f 195/195/195 196/196/196 190/190/190
f 191/191/191 197/197/197 192/192/192
f 196/196/196 197/197/197 191/191/191
f 137/137/137 198/198/198 194/194/194
f 133/133/133 198/198/198 137/137/137
f 194/194/194 199/199/199 195/195/195
f 198/198/198 199/199/199 194/194/194
f 195/195/195 200/200/200 196/196/196
f 199/199/199 200/200/200 195/195/195
f 133/133/133 201/201/201 198/198/198
f 128/128/128 201/201/201 133/133/133
f 198/198/198 202/202/202 199/199/199
f 201/201/201 202/202/202 198/198/198
f 128/128/128 203/203/203 201/201/201
f 128/128/128 129/129/129 203/203/203
f 197/197/197 204/204/204 192/192/192
f 192/192/192 204/204/204 193/193/193
f 196/196/196 205/205/205 197/197/197
f 200/200/200 205/205/205 196/196/196
f 199/199/199 206/206/206 200/200/200
f 202/202/202 206/206/206 199/199/199
f 201/201/201 207/207/207 202/202/202
f 203/203/203 207/207/207 201/201/201
f 197/197/197 208/208/208 204/204/204
f 205/205/205 208/208/208 197/197/197
f 200/200/200 209/209/209 205/205/205
f 206/206/206 209/209/209 200/200/200
f 202/202/202 210/210/210 206/206/206
f 207/207/207 210/210/210 202/202/202
f 205/205/205 211/211/211 208/208/208
f 209/209/209 211/211/211 205/205/205
f 206/206/206 212/212/212 209/209/209
f 210/210/210 212/212/212 206/206/206
f 209/209/209 213/213/213 211/211/211
f 212/212/212 213/213/213 209/209/209
f 203/203/203 214/214/214 207/207/207
f 207/207/207 215/215/215 210/210/210
f 214/214/214 215/215/215 207/207/207
f 210/210/210 216/216/216 212/212/212
f 215/215/215 216/216/216 210/210/210
f 212/212/212 217/217/217 213/213/213
f 216/216/216 217/217/217 212/212/212
f 203/203/203 218/218/218 214/214/214
f 203/203/203 129/129/129 218/218/218
f 129/129/129 219/219/219 218/218/218
f 219/219/219 129/129/129 220/220/220
f 218/218/218 219/219/219 221/221/221
f 222/222/222 218/218/218 221/221/221
f 214/214/214 218/218/218 222/222/222
f 222/222/222 221/221/221 223/223/223
f 214/214/214 224/224/224 215/215/215
f 214/214/214 222/222/222 224/224/224
f 225/225/225 222/222/222 223/223/223
f 224/224/224 222/222/222 225/225/225
f 225/225/225 223/223/223 226/226/226
f 215/215/215 227/227/227 216/216/216
f 224/224/224 227/227/227 215/215/215
f 224/224/224 225/225/225 228/228/228
f 224/224/224 228/228/228 227/227/227
f 229/229/229 228/228/228 225/225/225
f 228/228/228 229/229/229 230/230/230
f 227/227/227 231/231/231 216/216/216
f 216/216/216 231/231/231 217/217/217
f 228/228/228 230/230/230 232/232/232
f 232/232/232 230/230/230 233/233/233
f 228/228/228 234/234/234 227/227/227
f 227/227/227 234/234/234 231/231/231
f 228/228/228 232/232/232 234/234/234
f 232/232/232 233/233/233 235/235/235
f 235/235/235 233/233/233 236/236/236
f 232/232/232 237/237/237 234/234/234
f 232/232/232 235/235/235 237/237/237
f 234/234/234 238/238/238 231/231/231
f 234/234/234 237/237/237 238/238/238
f 231/231/231 239/239/239 217/217/217
f 231/231/231 238/238/238 239/239/239
f 235/235/235 236/236/236 240/240/240
f 240/240/240 236/236/236 241/241/241
f 235/235/235 242/242/242 237/237/237
f 235/235/235 240/240/240 242/242/242
f 237/237/237 243/243/243 238/238/238
f 237/237/237 242/242/242 243/243/243
f 240/240/240 241/241/241 244/244/244
f 244/244/244 241/241/241 245/245/245
f 244/244/244 245/245/245 246/246/246
f 246/246/246 245/245/245 247/247/247
f 246/246/246 247/247/247 248/248/248
f 249/249/249 246/246/246 248/248/248
f 250/250/250 246/246/246 249/249/249
f 246/246/246 250/250/250 251/251/251
f 240/240/240 252/252/252 242/242/242
f 240/240/240 244/244/244 252/252/252
f 244/244/244 246/246/246 253/253/253
f 253/253/253 246/246/246 251/251/251
f 238/238/238 243/243/243 254/254/254
f 238/238/238 254/254/254 239/239/239
f 242/242/242 255/255/255 243/243/243
f 242/242/242 252/252/252 255/255/255
f 244/244/244 256/256/256 252/252/252
f 244/244/244 253/253/253 256/256/256
f 253/253/253 251/251/251 257/257/257
f 257/257/257 251/251/251 258/258/258
f 243/243/243 259/259/259 254/254/254
f 243/243/243 255/255/255 259/259/259
f 252/252/252 260/260/260 255/255/255
f 252/252/252 256/256/256 260/260/260
f 253/253/253 261/261/261 256/256/256
f 253/253/253 257/257/257 261/261/261
f 257/257/257 258/258/258 262/262/262
f 262/262/262 258/258/258 263/263/263
f 255/255/255 264/264/264 259/259/259
f 255/255/255 260/260/260 264/264/264
f 256/256/256 265/265/265 260/260/260
f 256/256/256 261/261/261 265/265/265
f 257/257/257 266/266/266 261/261/261
f 257/257/257 262/262/262 266/266/266
f 262/262/262 263/263/263 267/267/267
f 267/267/267 263/263/263 268/268/268
f 267/267/267 268/268/268 269/269/269
f 267/267/267 269/269/269 270/270/270
f 262/262/262 267/267/267 271/271/271
f 267/267/267 270/270/270 271/271/271
f 262/262/262 271/271/271 266/266/266
f 271/271/271 270/270/270 272/272/272
f 271/271/271 272/272/272 273/273/273
f 266/266/266 271/271/271 273/273/273
f 273/273/273 272/272/272 274/274/274
f 261/261/261 266/266/266 275/275/275
f 266/266/266 273/273/273 275/275/275
f 261/261/261 275/275/275 265/265/265
f 273/273/273 274/274/274 276/276/276
f 275/275/275 273/273/273 276/276/276
f 276/276/276 274/274/274 277/277/277
f 265/265/265 275/275/275 278/278/278
f 275/275/275 276/276/276 278/278/278
f 276/276/276 277/277/277 279/279/279
f 278/278/278 276/276/276 279/279/279
f 279/279/279 277/277/277 280/280/280
f 265/265/265 278/278/278 281/281/281
f 260/260/260 265/265/265 281/281/281
f 260/260/260 281/281/281 264/264/264
f 278/278/278 279/279/279 282/282/282
f 281/281/281 278/278/278 282/282/282
f 279/279/279 280/280/280 283/283/283
f 282/282/282 279/279/279 283/283/283
f 283/283/283 280/280/280 284/284/284
f 264/264/264 281/281/281 285/285/285
f 281/281/281 282/282/282 285/285/285
f 283/283/283 284/284/284 286/286/286
f 286/286/286 284/284/284 287/287/287
f 282/282/282 283/283/283 288/288/288
f 285/285/285 282/282/282 288/288/288
f 288/288/288 283/283/283 286/286/286
f 264/264/264 285/285/285 289/289/289
f 259/259/259 264/264/264 289/289/289
f 286/286/286 287/287/287 290/290/290
f 290/290/290 287/287/287 291/291/291
f 288/288/288 286/286/286 292/292/292
f 292/292/292 286/286/286 290/290/290
f 285/285/285 288/288/288 293/293/293
f 289/289/289 285/285/285 293/293/293
f 293/293/293 288/288/288 292/292/292
f 259/259/259 289/289/289 294/294/294
f 254/254/254 259/259/259 294/294/294
f 290/290/290 291/291/291 295/295/295
f 295/295/295 291/291/291 296/296/296
f 289/289/289 293/293/293 297/297/297
f 294/294/294 289/289/289 297/297/297
f 293/293/293 292/292/292 298/298/298
f 297/297/297 293/293/293 298/298/298
f 292/292/292 290/290/290 299/299/299
f 299/299/299 290/290/290 295/295/295
f 298/298/298 292/292/292 299/299/299
f 254/254/254 294/294/294 300/300/300
f 239/239/239 254/254/254 300/300/300
f 294/294/294 297/297/297 301/301/301
f 300/300/300 294/294/294 301/301/301
f 297/297/297 298/298/298 302/302/302
f 301/301/301 297/297/297 302/302/302
f 298/298/298 299/299/299 303/303/303
f 302/302/302 298/298/298 303/303/303
f 299/299/299 295/295/295 304/304/304
f 303/303/303 299/299/299 304/304/304
f 239/239/239 300/300/300 305/305/305
f 217/217/217 239/239/239 305/305/305
f 217/217/217 305/305/305 213/213/213
f 300/300/300 301/301/301 306/306/306
f 305/305/305 300/300/300 306/306/306
f 213/213/213 305/305/305 307/307/307
f 305/305/305 306/306/306 307/307/307
f 213/213/213 307/307/307 211/211/211
f 301/301/301 302/302/302 308/308/308
f 306/306/306 301/301/301 308/308/308
f 302/302/302 303/303/303 309/309/309
f 308/308/308 302/302/302 309/309/309
f 211/211/211 307/307/307 310/310/310
f 211/211/211 310/310/310 208/208/208
f 307/307/307 306/306/306 311/311/311
f 306/306/306 308/308/308 311/311/311
f 307/307/307 311/311/311 310/310/310
f 208/208/208 310/310/310 312/312/312
f 208/208/208 312/312/312 204/204/204
f 311/311/311 308/308/308 313/313/313
f 308/308/308 309/309/309 313/313/313
f 310/310/310 311/311/311 314/314/314
f 310/310/310 314/314/314 312/312/312
f 311/311/311 313/313/313 314/314/314
f 309/309/309 303/303/303 315/315/315
f 303/303/303 304/304/304 315/315/315
f 204/204/204 312/312/312 316/316/316
f 204/204/204 316/316/316 193/193/193
f 312/312/312 314/314/314 317/317/317
f 312/312/312 317/317/317 316/316/316
f 313/313/313 309/309/309 318/318/318
f 309/309/309 315/315/315 318/318/318
f 314/314/314 313/313/313 319/319/319
f 314/314/314 319/319/319 317/317/317
f 313/313/313 318/318/318 319/319/319
f 193/193/193 316/316/316 320/320/320
f 193/193/193 320/320/320 184/184/184
f 184/184/184 320/320/320 185/185/185
f 321/321/321 185/185/185 320/320/320
f 185/185/185 321/321/321 322/322/322
f 322/322/322 321/321/321 323/323/323
f 323/323/323 321/321/321 324/324/324
f 321/321/321 325/325/325 324/324/324
f 316/316/316 326/326/326 320/320/320
f 316/316/316 317/317/317 326/326/326
f 321/321/321 320/320/320 326/326/326
f 321/321/321 327/327/327 325/325/325
f 326/326/326 327/327/327 321/321/321
f 317/317/317 327/327/327 326/326/326
f 317/317/317 319/319/319 327/327/327
f 327/327/327 328/328/328 325/325/325
f 319/319/319 329/329/329 327/327/327
f 327/327/327 329/329/329 328/328/328
f 319/319/319 318/318/318 329/329/329
f 329/329/329 330/330/330 328/328/328
f 318/318/318 331/331/331 329/329/329
f 329/329/329 331/331/331 330/330/330
f 318/318/318 315/315/315 331/331/331
f 331/331/331 332/332/332 330/330/330
f 315/315/315 333/333/333 331/331/331
f 331/331/331 333/333/333 332/332/332
f 315/315/315 304/304/304 333/333/333
f 333/333/333 334/334/334 332/332/332
f 304/304/304 335/335/335 333/333/333
f 304/304/304 295/295/295 335/335/335
f 295/295/295 296/296/296 335/335/335
f 334/334/334 333/333/333 336/336/336
f 336/336/336 333/333/333 335/335/335
f 335/335/335 296/296/296 336/336/336
f 337/337/337 334/334/334 336/336/336
f 336/336/336 296/296/296 338/338/338
f 336/336/336 338/338/338 337/337/337
f 339/339/339 341/341/341 340/340/340
f 339/339/339 342/342/342 341/341/341
f 342/342/342 343/343/343 341/341/341
f 344/344/344 342/342/342 339/339/339
f 342/342/342 345/345/345 343/343/343
f 344/344/344 346/346/346 342/342/342
f 346/346/346 345/345/345 342/342/342
f 347/347/347 346/346/346 344/344/344
f 346/346/346 348/348/348 345/345/345
f 347/347/347 349/349/349 346/346/346
f 349/349/349 348/348/348 346/346/346
f 350/350/350 349/349/349 347/347/347
f 349/349/349 351/351/351 348/348/348
f 350/350/350 352/352/352 349/349/349
f 352/352/352 351/351/351 349/349/349
f 353/353/353 352/352/352 350/350/350
f 352/352/352 354/354/354 351/351/351
f 353/353/353 355/355/355 352/352/352
f 355/355/355 354/354/354 352/352/352
f 356/356/356 355/355/355 353/353/353
f 355/355/355 357/357/357 354/354/354
f 356/356/356 358/358/358 355/355/355
f 358/358/358 357/357/357 355/355/355
f 358/358/358 359/359/359 357/357/357
f 360/360/360 362/362/362 361/361/361
f 362/362/362 360/360/360 363/363/363
f 363/363/363 360/360/360 364/364/364
f 363/363/363 364/364/364 365/365/365
f 366/366/366 368/368/368 367/367/367
f 366/366/366 369/369/369 368/368/368
f 369/369/369 370/370/370 368/368/368
f 371/371/371 369/369/369 366/366/366
f 369/369/369 372/372/372 370/370/370
f 371/371/371 373/373/373 369/369/369
f 373/373/373 372/372/372 369/369/369
f 374/374/374 373/373/373 371/371/371
f 373/373/373 375/375/375 372/372/372
f 374/374/374 376/376/376 373/373/373
f 376/376/376 375/375/375 373/373/373
f 377/377/377 376/376/376 374/374/374
f 376/376/376 378/378/378 375/375/375
f 377/377/377 379/379/379 376/376/376
f 379/379/379 378/378/378 376/376/376
f 380/380/380 379/379/379 377/377/377
f 379/379/379 381/381/381 378/378/378
f 380/380/380 382/382/382 379/379/379
f 382/382/382 381/381/381 379/379/379
f 383/383/383 382/382/382 380/380/380
f 382/382/382 384/384/384 381/381/381
f 383/383/383 385/385/385 382/382/382
f 385/385/385 384/384/384 382/382/382
f 386/386/386 385/385/385 383/383/383
f 385/385/385 387/387/387 384/384/384
f 386/386/386 388/388/388 385/385/385
f 388/388/388 387/387/387 385/385/385
f 388/388/388 389/389/389 387/387/387
f 390/390/390 392/392/392 391/391/391
f 392/392/392 390/390/390 393/393/393
f 393/393/393 390/390/390 394/394/394
f 393/393/393 394/394/394 395/395/395
f 395/395/395 394/394/394 396/396/396
f 397/397/397 399/399/399 398/398/398
f 397/397/397 400/400/400 399/399/399
f 400/400/400 401/401/401 399/399/399
f 402/402/402 400/400/400 397/397/397
f 400/400/400 403/403/403 401/401/401
f 402/402/402 404/404/404 400/400/400
f 404/404/404 403/403/403 400/400/400
f 405/405/405 404/404/404 402/402/402
f 404/404/404 406/406/406 403/403/403
f 405/405/405 407/407/407 404/404/404
f 407/407/407 406/406/406 404/404/404
f 408/408/408 407/407/407 405/405/405
f 407/407/407 409/409/409 406/406/406
f 408/408/408 410/410/410 407/407/407
f 410/410/410 409/409/409 407/407/407
f 411/411/411 410/410/410 408/408/408
f 410/410/410 412/412/412 409/409/409
f 411/411/411 413/413/413 410/410/410
f 413/413/413 412/412/412 410/410/410
f 414/414/414 413/413/413 411/411/411
f 413/413/413 415/415/415 412/412/412
f 414/414/414 416/416/416 413/413/413
f 416/416/416 415/415/415 413/413/413
f 416/416/416 417/417/417 415/415/415
f 418/418/418 420/420/420 419/419/419
f 420/420/420 418/418/418 421/421/421
f 420/420/420 421/421/421 422/422/422
f 422/422/422 421/421/421 423/423/423
f 424/424/424 426/426/426 425/425/425
f 424/424/424 427/427/427 426/426/426
f 427/427/427 428/428/428 426/426/426
f 429/429/429 427/427/427 424/424/424
f 427/427/427 430/430/430 428/428/428
f 429/429/429 431/431/431 427/427/427
f 431/431/431 430/430/430 427/427/427
f 432/432/432 431/431/431 429/429/429
f 431/431/431 433/433/433 430/430/430
f 432/432/432 434/434/434 431/431/431
f 434/434/434 433/433/433 431/431/431
f 435/435/435 434/434/434 432/432/432
f 434/434/434 436/436/436 433/433/433
f 435/435/435 437/437/437 434/434/434
f 437/437/437 436/436/436 434/434/434
f 438/438/438 437/437/437 435/435/435
f 437/437/437 439/439/439 436/436/436
f 438/438/438 440/440/440 437/437/437
f 440/440/440 439/439/439 437/437/437
f 441/441/441 440/440/440 438/438/438
f 440/440/440 442/442/442 439/439/439
f 441/441/441 443/443/443 440/440/440
f 443/443/443 442/442/442 440/440/440
f 443/443/443 444/444/444 442/442/442
f 445/445/445 447/447/447 446/446/446
f 447/447/447 445/445/445 448/448/448
f 448/448/448 445/445/445 449/449/449
f 448/448/448 449/449/449 450/450/450
f 451/451/451 453/453/453 452/452/452
f 451/451/451 454/454/454 453/453/453
f 455/455/455 454/454/454 451/451/451
f 456/456/456 454/454/454 455/455/455
f 456/456/456 457/457/457 454/454/454
f 457/457/457 456/456/456 458/458/458
f 458/458/458 459/459/459 457/457/457
f 458/458/458 460/460/460 459/459/459
f 461/461/461 463/463/463 462/462/462
f 463/463/463 461/461/461 464/464/464
f 461/461/461 465/465/465 464/464/464
f 462/462/462 466/466/466 461/461/461
f 467/467/467 466/466/466 462/462/462
f 466/466/466 467/467/467 468/468/468
f 467/467/467 469/469/469 468/468/468
f 467/467/467 470/470/470 469/469/469
f 471/471/471 461/461/461 466/466/466
f 465/465/465 461/461/461 471/471/471
f 472/472/472 465/465/465 471/471/471
f 472/472/472 471/471/471 473/473/473
f 474/474/474 472/472/472 473/473/473
f 474/474/474 473/473/473 475/475/475
f 476/476/476 474/474/474 475/475/475
f 476/476/476 475/475/475 477/477/477
f 478/478/478 476/476/476 477/477/477
f 478/478/478 477/477/477 479/479/479
f 470/470/470 480/480/480 469/469/469
f 481/481/481 478/478/478 479/479/479
f 481/481/481 479/479/479 482/482/482
f 480/480/480 481/481/481 482/482/482
f 470/470/470 483/483/483 480/480/480
f 480/480/480 484/484/484 481/481/481
f 483/483/483 484/484/484 480/480/480
f 485/485/485 487/487/487 486/486/486
f 486/486/486 487/487/487 488/488/488
f 485/485/485 486/486/486 489/489/489
f 485/485/485 489/489/489 490/490/490
f 491/491/491 485/485/485 490/490/490
f 491/491/491 490/490/490 492/492/492
f 486/486/486 488/488/488 493/493/493
f 488/488/488 494/494/494 493/493/493
f 488/488/488 495/495/495 494/494/494
f 496/496/496 491/491/491 492/492/492
f 496/496/496 492/492/492 497/497/497
f 496/496/496 497/497/497 498/498/498
f 488/488/488 499/499/499 495/495/495
f 499/499/499 500/500/500 495/495/495
f 499/499/499 501/501/501 500/500/500
f 499/499/499 502/502/502 501/501/501
f 502/502/502 503/503/503 501/501/501
f 502/502/502 504/504/504 503/503/503
f 505/505/505 496/496/496 498/498/498
f 505/505/505 498/498/498 506/506/506
f 505/505/505 506/506/506 507/507/507
f 508/508/508 505/505/505 507/507/507
f 508/508/508 507/507/507 509/509/509
f 504/504/504 510/510/510 503/503/503
f 504/504/504 511/511/511 510/510/510
f 510/510/510 511/511/511 512/512/512
f 510/510/510 512/512/512 513/513/513
f 514/514/514 508/508/508 509/509/509
f 513/513/513 512/512/512 514/514/514
f 514/514/514 509/509/509 515/515/515
f 513/513/513 514/514/514 516/516/516
f 514/514/514 515/515/515 516/516/516
f 517/517/517 519/519/519 518/518/518
f 519/519/519 520/520/520 518/518/518
f 521/521/521 518/518/518 520/520/520
f 518/518/518 521/521/521 522/522/522
f 517/517/517 518/518/518 523/523/523
f 518/518/518 522/522/522 523/523/523
f 524/524/524 517/517/517 523/523/523
f 523/523/523 522/522/522 525/525/525
f 524/524/524 523/523/523 526/526/526
f 523/523/523 525/525/525 526/526/526
f 527/527/527 524/524/524 526/526/526
f 527/527/527 526/526/526 525/525/525
