mtllib P_FirBranch2.mtl
v -0.1348106 0.04371752 -0.9132082
v -0.1164499 0.01641932 -0.9139683
v -0.08363851 0.01868405 -0.9150536
v -0.06918781 0.04824698 -0.9153787
v -0.1203603 0.07328045 -0.9135339
v -0.08754895 0.07554518 -0.9146192
v 0.06406289 0.03521554 1.265995
v 0.003303647 0.03325726 1.270196
v -0.02489988 0.08113141 1.256634
v 0.09264588 0.08494882 1.248392
v 0.003514519 0.1308605 1.239038
v 0.06320265 0.132792 1.23488
v -0.02489988 0.08113141 1.256634
v 0.003303647 0.03325726 1.270196
v 0.01257389 -0.008755371 1.063328
v -0.01900118 0.04018508 1.049618
v 0.003514519 0.1308605 1.239038
v 0.02631469 -0.0006095618 0.4732564
v 0.009244584 0.09314128 1.03571
v 0.06320265 0.132792 1.23488
v -0.004742715 0.04767312 0.4783876
v -0.04806831 0.1043725 -0.07928705
v 0.0690584 0.09654866 1.035755
v 0.09264588 0.08494882 1.248392
v 0.02176822 0.09866811 0.482722
v -0.07440395 0.1467527 -0.06916261
v -0.1113193 0.007041469 -0.6582748
v 0.1005153 0.04639141 1.04906
v 0.06406289 0.03521554 1.265995
v 0.07933654 0.1013804 0.481925
v -0.05334698 0.1923776 -0.0773555
v -0.1347016 0.04208446 -0.6560968
v -0.1164499 0.01641932 -0.9139683
v -0.1348106 0.04371752 -0.9132082
v -0.1170622 0.07969883 -0.6634115
v -0.1203603 0.07328045 -0.9135339
v 0.07224894 -0.005880401 1.062847
v 0.003303647 0.03325726 1.270196
v 0.01257389 -0.008755371 1.063328
v 0.1103939 0.05309775 0.4767937
v -0.005953885 0.1956223 -0.0956732
v -0.07604057 0.08227024 -0.6729041
v -0.08754895 0.07554518 -0.9146192
v 0.08388299 0.002102762 0.4724595
v 0.02631469 -0.0006095618 0.4732564
v 0.02038176 0.1532422 -0.1057976
v -0.05265828 0.04722726 -0.6750821
v -0.06918781 0.04824698 -0.9153787
v -0.0006752014 0.1076173 -0.09760463
v -0.04806831 0.1043725 -0.07928705
v -0.07029767 0.009612873 -0.6677672
v -0.08363851 0.01868405 -0.9150536
v -0.1113193 0.007041469 -0.6582748
v -0.1164499 0.01641932 -0.9139683
v 0.01502259 0.04396312 0.4412001
v 0.03767546 -0.003550246 0.4824658
v 0.5841208 0.01313008 0.1784575
v 0.5633277 0.04031408 0.1614394
v 0.7095588 0.04225741 -0.2152153
v 0.03836385 0.09103585 0.4825869
v 0.5843763 0.06718341 0.178642
v 0.7095588 0.04225741 -0.2152153
v 0.06101624 0.04352249 0.5238526
v 0.6051692 0.03999942 0.1956601
v 0.7095588 0.04225741 -0.2152153
v 0.03767546 -0.003550246 0.4824658
v 0.5841208 0.01313008 0.1784575
v 0.7095588 0.04225741 -0.2152153
v 0.04480391 0.08584157 0.7119114
v 0.0008350313 0.04805812 0.7452677
v -0.3974684 0.0263342 0.1640819
v -0.3672878 0.04811676 0.1553886
v -0.3331306 0.02771443 -0.3264667
v 0.07614818 0.0306786 0.6907434
v -0.3462682 0.01671039 0.149667
v -0.3331306 0.02771443 -0.3264667
v 0.0321794 -0.007104918 0.7240999
v -0.376449 -0.005072519 0.1583604
v -0.3331306 0.02771443 -0.3264667
v 0.0008350313 0.04805812 0.7452677
v -0.3974684 0.0263342 0.1640819
v -0.3331306 0.02771443 -0.3264667
v 0.1841222 0.06365 0.5365985
v 0.3681024 0.04792678 0.3226956
v 0.05758907 0.2064689 0.1192597
v 0.5691677 0.2889326 0.5739651
v 0.1841222 0.06365 0.5365985
v 0.3681024 0.04792678 0.3226956
v -0.04848222 0.04334486 0.6027898
v 0.0977753 0.02953266 0.9967929
v -0.3226663 0.291602 0.8624173
v 0.5454258 -0.01028921 0.1856253
v 0.8255706 0.031247 -0.2614578
v 0.6462153 0.1239469 -0.3887974
v 0.3170953 0.1494232 -0.1483967
v 0.5454258 -0.01028921 0.1856253
v 0.8255706 0.031247 -0.2614578
v 0.9917102 0.177509 -0.1590066
v 0.8487725 0.2725512 0.4129912
v 0.3681024 0.04792678 0.3226956
v 0.5454258 -0.01028921 0.1856253
v 0.3170953 0.1494232 -0.1483967
v 0.05758907 0.2064689 0.1192597
v 0.3681024 0.04792678 0.3226956
v 0.5454258 -0.01028921 0.1856253
v 0.8487725 0.2725512 0.4129912
v 0.5691677 0.2889326 0.5739651
v -0.1251165 0.1287167 -1.450218
v -0.09460945 0.06979915 -0.7586585
v -0.5554284 -0.1408532 -0.5472269
v -0.5109023 -0.04712437 -1.268538
v -0.06358527 0.1290937 -0.4469471
v -0.04038429 0.1821206 -0.06992102
v -0.4020836 -0.02037179 -0.2434692
v -0.09460945 0.06979915 -0.7586585
v -0.5554284 -0.1408532 -0.5472269
v 0.4429299 0.01480855 -0.3157407
v -0.04038429 0.1821206 -0.06992102
v -0.06358527 0.1290937 -0.4469471
v 0.539486 -0.06229131 -0.7401784
v -0.09460945 0.06979915 -0.7586585
v -0.09460945 0.06979915 -0.7586585
v -0.1251165 0.1287167 -1.450218
v 0.1538403 0.01245776 -1.41362
v 0.539486 -0.06229131 -0.7401784
v 0.0977753 0.02953266 0.9967929
v -0.04848222 0.04334486 0.6027898
v 0.4896576 0.2618063 0.5509478
v 0.3691163 0.2954248 -0.02435458
v -0.1439677 0.05578589 0.2479506
v -0.02103239 0.2121419 -0.5207007
v -0.3297032 0.07998605 -0.4422723
v -0.3297032 0.07998605 -0.4422723
v -0.5318602 0.3932167 0.5323389
v -0.6533941 0.3625125 -0.1992663
v -0.1439677 0.05578589 0.2479506
v -0.3226663 0.291602 0.8624173
v -0.04848222 0.04334486 0.6027898
vn -0.03342576 0.00533632 -0.999427
vn -0.03342638 0.005346755 -0.9994269
vn -0.03342636 0.005345261 -0.9994268
vn -0.03342576 0.005336816 -0.999427
vn -0.03342517 0.005327876 -0.9994271
vn -0.03342519 0.005330857 -0.999427
vn 0.05661386 0.3035986 0.9511166
vn 0.05603323 0.3025498 0.951485
vn 0.05659836 0.3036169 0.9511117
vn 0.05671128 0.303823 0.9510391
vn 0.05671315 0.303873 0.951023
vn 0.05644149 0.3033787 0.951197
vn -0.9975598 -0.06773648 -0.01691789
vn -0.4829744 -0.8615524 0.1564075
vn -0.4497705 -0.8901846 0.07264964
vn -0.9970053 -0.07251468 -0.02687032
vn -0.5732371 0.8024097 -0.1659458
vn -0.4348906 -0.8979938 -0.06691252
vn -0.5532901 0.8286937 -0.08448001
vn 0.4652824 0.8731318 -0.1454419
vn -0.9960419 -0.07719509 0.04406188
vn -0.4732427 -0.8800771 0.03880409
vn 0.4780318 0.8762684 -0.0603257
vn 0.9991914 -0.000210668 0.04020596
vn -0.5283462 0.8428891 0.1019224
vn -0.9933115 -0.008560762 0.1151479
vn -0.4264084 -0.9001555 0.08885889
vn 0.9997237 0.0042809 0.02311275
vn 0.4966772 -0.8467975 0.190383
vn 0.4938183 0.8685955 0.04105311
vn -0.5347711 0.8422819 0.06768323
vn -0.9929579 -0.1005527 0.06263985
vn -0.4449667 -0.8952168 -0.02432197
vn -0.997379 -0.07234937 -0.000843143
vn -0.5980418 0.7996538 -0.05385102
vn -0.5622712 0.8268496 -0.01307069
vn 0.52437 -0.8460674 0.09594856
vn -0.4829744 -0.8615524 0.1564075
vn -0.4497705 -0.8901846 0.07264964
vn 0.9977154 0.02215859 -0.06381992
vn 0.410611 0.9081724 -0.08137251
vn 0.4227532 0.8963947 -0.1332522
vn 0.4390728 0.8972813 -0.04583802
vn 0.5378602 -0.8350823 -0.115516
vn -0.4348906 -0.8979938 -0.06691252
vn 0.9825249 0.120192 -0.142122
vn 0.9940338 0.04266848 -0.1003807
vn 0.9951698 0.07032651 -0.06849316
vn 0.5819874 -0.809818 -0.07406391
vn -0.4732427 -0.8800771 0.03880409
vn 0.5466872 -0.8373327 0.002658054
vn 0.5545381 -0.8300263 -0.05953067
vn -0.4264084 -0.9001555 0.08885889
vn -0.4449667 -0.8952168 -0.02432197
vn -0.456518 0.004495108 -0.8897028
vn 0.02166201 -0.9995652 -0.02000371
vn 0.1510578 -0.9866012 0.06164214
vn -0.7393241 0.003776288 -0.6733391
vn -0.9322066 0.005125777 -0.3618903
vn 0.03620286 0.9991919 -0.01746228
vn 0.1611017 0.9845477 0.06864415
vn 0.0344105 0.9980423 -0.05222618
vn 0.5150867 -0.004841884 0.8571244
vn 0.8009111 -0.007036119 0.598742
vn 0.9692035 -0.004753029 0.2462156
vn 0.02166201 -0.9995652 -0.02000371
vn 0.1510578 -0.9866012 0.06164214
vn 0.0280868 -0.9974994 -0.06485426
vn 0.1169342 0.9810041 -0.1547822
vn -0.8134913 0.1830246 0.5520271
vn -0.9615464 0.1478091 0.2314756
vn 0.004538339 0.9984883 -0.0547765
vn 0.1719631 0.9846615 -0.0295018
vn 0.7781298 -0.18372 -0.6006338
vn 0.9243487 -0.2255911 -0.3077143
vn 0.9833641 -0.1801872 0.02296892
vn -0.1501404 -0.9832745 0.1030979
vn -0.3129667 -0.9482154 0.05421537
vn -0.181764 -0.9798748 -0.08250537
vn -0.8134913 0.1830246 0.5520271
vn -0.9615464 0.1478091 0.2314756
vn -0.9759922 0.1765807 -0.1275091
vn -0.3286443 -0.9196398 -0.2150711
vn -0.3286443 -0.9196398 -0.2150711
vn -0.3286443 -0.9196398 -0.2150711
vn -0.4260038 0.7986228 -0.4251145
vn -0.4260038 0.7986228 -0.4251145
vn -0.4260038 0.7986228 -0.4251145
vn 0.5611197 0.8079329 -0.1799696
vn 0.5611197 0.8079329 -0.1799696
vn 0.5611197 0.8079329 -0.1799696
vn -0.2736779 -0.9248395 -0.2641446
vn -0.2736779 -0.9248395 -0.2641446
vn -0.2736779 -0.9248395 -0.2641446
vn -0.2736779 -0.9248395 -0.2641446
vn -0.5414339 0.7973389 -0.2666457
vn -0.5414339 0.7973389 -0.2666457
vn -0.5414339 0.7973389 -0.2666457
vn -0.5414339 0.7973389 -0.2666457
vn -0.3835182 -0.9104945 -0.15464
vn -0.3835182 -0.9104945 -0.15464
vn -0.3835182 -0.9104945 -0.15464
vn -0.3835182 -0.9104945 -0.15464
vn -0.2525257 0.7738621 -0.5808341
vn -0.2525257 0.7738621 -0.5808341
vn -0.2525257 0.7738621 -0.5808341
vn -0.2525257 0.7738621 -0.5808341
vn -0.3762146 0.9215631 0.09583257
vn -0.3762146 0.9215631 0.09583257
vn -0.3762146 0.9215631 0.09583257
vn -0.3762146 0.9215631 0.09583257
vn -0.4502982 0.8875802 -0.09712405
vn -0.4502982 0.8875802 -0.09712405
vn -0.4502982 0.8875802 -0.09712405
vn -0.4588107 0.8804304 -0.1197293
vn -0.4588107 0.8804304 -0.1197293
vn 0.2544262 0.9553844 -0.1500268
vn 0.2544262 0.9553844 -0.1500268
vn 0.2544262 0.9553844 -0.1500268
vn 0.2282206 0.960754 -0.1576932
vn 0.2282206 0.960754 -0.1576932
vn 0.2616065 0.965062 0.01474598
vn 0.2616065 0.965062 0.01474598
vn 0.2616065 0.965062 0.01474598
vn 0.2616065 0.965062 0.01474598
vn -0.3573197 0.9193156 0.1648679
vn -0.3573197 0.9193156 0.1648679
vn -0.3573197 0.9193156 0.1648679
vn -0.3621973 0.9230157 0.1298277
vn -0.3621973 0.9230157 0.1298277
vn -0.3621973 0.9230157 0.1298277
vn -0.3621973 0.9230157 0.1298277
vn 0.5937545 0.7937542 -0.1319465
vn 0.5937545 0.7937542 -0.1319465
vn 0.5937545 0.7937542 -0.1319465
vn 0.5937545 0.7937542 -0.1319465
vn 0.5937546 0.7937541 -0.1319467
vn 0.5937546 0.7937541 -0.1319467
vt 0.826318 0.4145018
vt 0.8720322 0.3881088
vt 0.8720322 0.3353224
vt 0.826318 0.3089289
vt 0.780604 0.3881089
vt 0.780604 0.3353226
vt 0.7636811 0.332169
vt 0.7637027 0.4103749
vt 0.8293228 0.4432742
vt 0.8293606 0.2919642
vt 0.8950059 0.4032861
vt 0.8950059 0.3264559
vt 0.1870399 0.8290594
vt 0.2025862 0.8306893
vt 0.20607 0.7730474
vt 0.1895987 0.770499
vt 0.170933 0.8260607
vt 0.2040059 0.6071279
vt 0.1724397 0.7675114
vt 0.1549864 0.8243855
vt 0.1877899 0.6072877
vt 0.1951681 0.4488774
vt 0.1552906 0.7670776
vt 0.139153 0.8256417
vt 0.1715043 0.6079683
vt 0.1813503 0.4513099
vt 0.1899146 0.2829751
vt 0.1380105 0.7691852
vt 0.122509 0.8285692
vt 0.154953 0.6088834
vt 0.1679829 0.4502073
vt 0.1782233 0.2846772
vt 0.1812492 0.2121886
vt 0.1721281 0.2131342
vt 0.1663114 0.2843553
vt 0.1630506 0.2137479
vt 0.1210989 0.7718799
vt 0.1058658 0.8306893
vt 0.1046059 0.7725259
vt 0.1391457 0.609195
vt 0.1548497 0.4472902
vt 0.1540664 0.2826788
vt 0.1540823 0.2139577
vt 0.1236174 0.6087521
vt 0.1075102 0.6077846
vt 0.1415028 0.4454201
vt 0.142062 0.2815154
vt 0.1450012 0.2137818
vt 0.1274047 0.4467248
vt 0.1131827 0.4497977
vt 0.1303974 0.2818374
vt 0.1359488 0.2132588
vt 0.1188841 0.282814
vt 0.1266894 0.2123678
vt 0.2915846 0.2158172
vt 0.2754828 0.2181663
vt 0.303608 0.3930216
vt 0.3142369 0.3911877
vt 0.335144 0.5076932
vt 0.3077548 0.2140125
vt 0.32491 0.3897173
vt 0.3352443 0.5076752
vt 0.326768 0.2126219
vt 0.3352593 0.3891087
vt 0.3353629 0.5076647
vt 0.345691 0.2121886
vt 0.345691 0.3892142
vt 0.3354815 0.507675
vt 0.2239483 0.2149222
vt 0.20607 0.2170097
vt 0.2327319 0.4124917
vt 0.2431186 0.4109589
vt 0.2640707 0.5475683
vt 0.2399818 0.2135438
vt 0.2541303 0.4099745
vt 0.2641904 0.5475596
vt 0.2560479 0.2126284
vt 0.2648092 0.4093491
vt 0.2643101 0.5475507
vt 0.2754828 0.2121886
vt 0.2754828 0.4094466
vt 0.2644545 0.5475512
vt 0.4662382 0
vt 0.4662382 0.2737632
vt 0.8936397 0.2185459
vt 0.882799 0.2033273
vt 0.4589814 0
vt 0.4589814 0.2737632
vt 0.4566118 0.2737632
vt 0.4566118 0
vt 0.145527 0.1591069
vt 0.4662382 0.520349
vt 0.4662382 1
vt 0.7215343 1
vt 0.9201697 0.6126727
vt 0.4589814 0.520349
vt 0.4589814 1
vt 0.7204024 1
vt 0.9658197 0.529703
vt 0.4662382 0.2737632
vt 0.4662382 0.520349
vt 0.9201697 0.6126727
vt 0.8936397 0.2185459
vt 0.4589814 0.2737632
vt 0.4589814 0.520349
vt 0.9658197 0.529703
vt 0.882799 0.2033273
vt 0.4566118 1
vt 0.4566118 0.520349
vt 0.03668875 0.4114947
vt 0.104808 0.9055027
vt 0.4566118 0.2737632
vt 0.4566118 0
vt 0.145527 0.1591069
vt 0.4566118 0.520349
vt 0.03668875 0.4114947
vt 0.882799 0.2033273
vt 0.4589814 0
vt 0.4589814 0.2737632
vt 0.9658197 0.529703
vt 0.4589814 0.520349
vt 0.4589814 0.520349
vt 0.4589814 1
vt 0.7204024 1
vt 0.9658197 0.529703
vt 0.4662382 0
vt 0.4662382 0.2737632
vt 0.8936397 0.2185459
vt 0.9201697 0.6126727
vt 0.4662382 0.520349
vt 0.7215343 1
vt 0.4662382 1
vt 0.4566118 1
vt 0.03668875 0.4114947
vt 0.104808 0.9055027
vt 0.4566118 0.520349
vt 0.145527 0.1591069
vt 0.4566118 0.2737632
usemtl MV_FirBarkMISC
f 1/1/1 3/3/3 2/2/2
f 1/1/1 4/4/4 3/3/3
f 5/5/5 4/4/4 1/1/1
f 5/5/5 6/6/6 4/4/4
f 7/7/7 9/9/9 8/8/8
f 10/10/10 9/9/9 7/7/7
f 10/10/10 11/11/11 9/9/9
f 12/12/12 11/11/11 10/10/10
f 13/13/13 15/15/15 14/14/14
f 13/13/13 16/16/16 15/15/15
f 17/17/17 16/16/16 13/13/13
f 16/16/16 18/18/18 15/15/15
f 17/17/17 19/19/19 16/16/16
f 20/20/20 19/19/19 17/17/17
f 16/16/16 21/21/21 18/18/18
f 19/19/19 21/21/21 16/16/16
f 21/21/21 22/22/22 18/18/18
f 20/20/20 23/23/23 19/19/19
f 24/24/24 23/23/23 20/20/20
f 19/19/19 25/25/25 21/21/21
f 23/23/23 25/25/25 19/19/19
f 21/21/21 26/26/26 22/22/22
f 25/25/25 26/26/26 21/21/21
f 26/26/26 27/27/27 22/22/22
f 24/24/24 28/28/28 23/23/23
f 29/29/29 28/28/28 24/24/24
f 23/23/23 30/30/30 25/25/25
f 28/28/28 30/30/30 23/23/23
f 25/25/25 31/31/31 26/26/26
f 30/30/30 31/31/31 25/25/25
f 26/26/26 32/32/32 27/27/27
f 31/31/31 32/32/32 26/26/26
f 32/32/32 33/33/33 27/27/27
f 32/32/32 34/34/34 33/33/33
f 35/35/35 34/34/34 32/32/32
f 31/31/31 35/35/35 32/32/32
f 35/35/35 36/36/36 34/34/34
f 29/29/29 37/37/37 28/28/28
f 38/38/38 37/37/37 29/29/29
f 38/38/38 39/39/39 37/37/37
f 28/28/28 40/40/40 30/30/30
f 37/37/37 40/40/40 28/28/28
f 30/30/30 41/41/41 31/31/31
f 41/41/41 35/35/35 31/31/31
f 40/40/40 41/41/41 30/30/30
f 42/42/42 36/36/36 35/35/35
f 41/41/41 42/42/42 35/35/35
f 42/42/42 43/43/43 36/36/36
f 39/39/39 44/44/44 37/37/37
f 37/37/37 44/44/44 40/40/40
f 39/39/39 45/45/45 44/44/44
f 40/40/40 46/46/46 41/41/41
f 46/46/46 42/42/42 41/41/41
f 44/44/44 46/46/46 40/40/40
f 47/47/47 43/43/43 42/42/42
f 46/46/46 47/47/47 42/42/42
f 47/47/47 48/48/48 43/43/43
f 45/45/45 49/49/49 44/44/44
f 44/44/44 49/49/49 46/46/46
f 49/49/49 47/47/47 46/46/46
f 45/45/45 50/50/50 49/49/49
f 51/51/51 48/48/48 47/47/47
f 49/49/49 51/51/51 47/47/47
f 50/50/50 51/51/51 49/49/49
f 51/51/51 52/52/52 48/48/48
f 50/50/50 53/53/53 51/51/51
f 53/53/53 52/52/52 51/51/51
f 53/53/53 54/54/54 52/52/52
f 55/55/55 57/57/57 56/56/56
f 55/55/55 58/58/58 57/57/57
f 58/58/58 59/59/59 57/57/57
f 60/60/60 58/58/58 55/55/55
f 60/60/60 61/61/61 58/58/58
f 61/61/61 62/62/62 58/58/58
f 63/63/63 61/61/61 60/60/60
f 63/63/63 64/64/64 61/61/61
f 64/64/64 65/65/65 61/61/61
f 66/66/66 64/64/64 63/63/63
f 66/66/66 67/67/67 64/64/64
f 67/67/67 68/68/68 64/64/64
f 69/69/69 71/71/71 70/70/70
f 69/69/69 72/72/72 71/71/71
f 72/72/72 73/73/73 71/71/71
f 74/74/74 72/72/72 69/69/69
f 74/74/74 75/75/75 72/72/72
f 75/75/75 76/76/76 72/72/72
f 77/77/77 75/75/75 74/74/74
f 77/77/77 78/78/78 75/75/75
f 78/78/78 79/79/79 75/75/75
f 80/80/80 78/78/78 77/77/77
f 80/80/80 81/81/81 78/78/78
f 81/81/81 82/82/82 78/78/78
usemtl MV_FirLeaves_Dry
f 83/83/83 85/85/85 84/84/84
f 86/86/86 88/88/88 87/87/87
f 89/89/89 91/91/91 90/90/90
f 92/92/92 94/94/94 93/93/93
f 92/92/92 95/95/95 94/94/94
f 96/96/96 98/98/98 97/97/97
f 96/96/96 99/99/99 98/98/98
f 100/100/100 102/102/102 101/101/101
f 100/100/100 103/103/103 102/102/102
f 104/104/104 106/106/106 105/105/105
f 104/104/104 107/107/107 106/106/106
f 108/108/108 110/110/110 109/109/109
f 108/108/108 111/111/111 110/110/110
f 112/112/112 114/114/114 113/113/113
f 115/115/115 114/114/114 112/112/112
f 115/115/115 116/116/116 114/114/114
f 117/117/117 119/119/119 118/118/118
f 119/119/119 117/117/117 120/120/120
f 119/119/119 120/120/120 121/121/121
f 122/122/122 124/124/124 123/123/123
f 122/122/122 125/125/125 124/124/124
f 126/126/126 128/128/128 127/127/127
f 127/127/127 128/128/128 129/129/129
f 127/127/127 129/129/129 130/130/130
f 130/130/130 129/129/129 131/131/131
f 130/130/130 131/131/131 132/132/132
f 133/133/133 135/135/135 134/134/134
f 133/133/133 134/134/134 136/136/136
f 136/136/136 134/134/134 137/137/137
f 136/136/136 137/137/137 138/138/138
