mtllib P_KnotwoodDead01.mtl
v 0.398804 -0.9473156 -0.7332904
v 0.7702656 -1.045744 0.03536028
v 0.855834 0.3100065 0.1298631
v 0.5058619 0.3292759 -0.5867084
v -0.4530526 -0.8488861 -0.7893988
v 0.748663 1.150988 0.110654
v -0.2895021 0.3560277 -0.6415423
v -0.9334475 -0.8488861 -0.07685702
v 0.421701 1.191931 -0.5515263
v 0.2938855 1.958137 0.4690796
v -0.7348939 0.3635102 0.0201949
v -0.5619861 -0.9473156 0.6917938
v -0.2951367 1.023494 -0.6210684
v -0.02009598 2.025183 -0.1342841
v -0.3294218 2.801578 0.7610069
v -0.384922 0.3442408 0.7367664
v 0.2898702 -1.045744 0.7479023
v -0.6850121 0.8141136 -0.02843032
v -0.6212842 1.718642 -0.2426001
v -0.5020756 2.658159 0.174142
v -0.856446 3.653869 0.2687013
v 0.410442 0.317489 0.7916003
v 0.7702656 -1.045744 0.03536028
v 0.855834 0.3100065 0.1298631
v -0.3580499 0.773169 0.6337501
v 0.3587875 0.9416069 0.7032921
v 0.748663 1.150988 0.110654
v -0.9084913 1.345055 0.2524473
v -1.041967 2.35374 0.07101662
v -0.9226499 3.372746 -0.1216767
v -0.8455769 4.532931 -0.517005
v -0.59451 1.278009 0.8558109
v 0.006678399 1.58455 0.964127
v 0.2938855 1.958137 0.4690796
v -1.409204 2.192739 0.5547559
v -1.364906 3.200794 -0.2248717
v -0.9122326 4.232797 -0.9030853
v -0.4423413 6.085151 -1.68362
v -1.236551 2.336158 1.141621
v -0.6966597 2.640577 1.244746
v -0.3294218 2.801578 0.7610069
v -1.740959 3.309964 0.06231134
v -1.366087 4.157835 -1.081909
v -0.4808798 5.890919 -2.062705
v 0.2538985 7.422682 -2.204947
v -1.674755 3.591086 0.4526893
v -1.232499 3.763039 0.5558843
v -0.856446 3.653869 0.2687013
v -1.753286 4.383007 -0.8746523
v -0.8457841 5.923232 -2.283425
v 0.2502772 7.303934 -2.533894
v 1.20981 8.057895 -2.516822
v -1.686631 4.683141 -0.4885721
v -1.232777 4.758103 -0.3097484
v -0.8455769 4.532931 -0.517005
v -1.17215 6.149777 -2.12506
v 0.03003185 7.442675 -2.767481
v 1.22083 7.976179 -2.77354
v 2.217592 8.467628 -2.514472
v -1.133611 6.344008 -1.745975
v -0.7687071 6.311696 -1.525256
v -0.4423413 6.085151 -1.68362
v -0.1865927 7.700164 -2.672122
v 1.119124 8.131614 -2.968985
v 2.325557 8.455585 -2.76025
v 2.539118 9.450045 -2.004128
v -0.1829714 7.818912 -2.343175
v 0.03727392 7.680171 -2.109588
v 0.2538985 7.422682 -2.204947
v 1.006397 8.368768 -2.907711
v 2.238291 8.620577 -2.953566
v 2.645326 9.506608 -2.133252
v 2.481866 10.30025 -1.669155
v 0.9953763 8.450483 -2.650993
v 1.097083 8.295048 -2.455549
v 1.20981 8.057895 -2.516822
v 2.04306 8.79761 -2.901103
v 2.578573 9.597746 -2.268864
v 2.538723 10.32363 -1.741022
v 2.431774 10.39241 -1.74859
v 1.935095 8.809653 -2.655326
v 2.022361 8.64466 -2.46201
v 2.217592 8.467628 -2.514472
v 2.405614 9.632321 -2.275351
v 2.502687 10.33687 -1.827454
v 2.299406 9.575757 -2.146227
v 2.366158 9.484619 -2.010615
v 2.539118 9.450045 -2.004128
v 2.409792 10.32672 -1.842019
v 2.352935 10.30334 -1.770152
v 2.388972 10.2901 -1.68372
v 2.481866 10.30025 -1.669155
v -1.168712 2.214591 0.9818193
v -1.251328 2.398099 0.8534374
v -1.62686 2.738381 1.630517
v -1.562465 2.595365 1.730494
v -0.9587983 2.232373 1.094081
v -1.408063 3.454109 2.560883
v -1.381587 2.585336 1.772665
v -0.8315003 2.433664 1.077961
v -1.359711 3.345093 2.627115
v -1.664595 3.727613 3.357997
v -1.265103 2.718323 1.714858
v -0.9141157 2.617173 0.949579
v -1.225744 3.332934 2.649784
v -1.632112 3.657223 3.38746
v -2.268372 3.823326 4.735352
v -1.329498 2.861341 1.614881
v -1.12403 2.599391 0.8373172
v -1.140128 3.42979 2.60622
v -1.556401 3.657473 3.42131
v -1.510375 2.871369 1.572711
v -1.251328 2.398099 0.8534374
v -1.62686 2.738381 1.630517
v -1.188479 3.538805 2.539987
v -1.513172 3.728114 3.425695
v -1.322446 3.550965 2.517318
v -1.408063 3.454109 2.560883
v -1.545655 3.798504 3.396231
v -1.621366 3.798253 3.362381
v -1.664595 3.727613 3.357997
v -1.307741 3.598584 2.749113
v -1.359157 3.431686 2.821505
v -2.095164 3.695129 2.82267
v -2.104418 3.821203 2.777566
v -1.338836 3.532526 2.574731
v -2.772764 3.475027 3.055935
v -2.131691 3.775164 2.654476
v -1.390252 3.365627 2.647124
v -2.780108 3.55083 3.029576
v -3.365059 3.927317 3.533294
v -2.122438 3.649091 2.69958
v -1.359157 3.431686 2.821505
v -2.095164 3.695129 2.82267
v -2.822396 3.524678 2.966151
v -2.815052 3.448875 2.99251
v -2.772764 3.475027 3.055935
v -0.9390655 3.414263 -0.1049245
v -0.9218664 3.612698 0.1634295
v -0.09408038 4.260245 -0.4096292
v -0.06166683 4.123751 -0.6564446
v -1.147094 3.489599 -0.3553936
v 0.7786632 4.780899 -0.3505517
v -0.1796115 4.227843 -0.8927771
v -1.337923 3.76337 -0.3375089
v 0.861928 4.691493 -0.5539463
v 2.013306 4.791234 0.200525
v -0.32997 4.468429 -0.8822939
v -1.320723 3.961805 -0.06915499
v 0.8812955 4.830277 -0.7454134
v 2.095674 4.723496 0.04209274
v 3.019026 5.430899 0.4726397
v -0.3623838 4.604923 -0.6354785
v -1.112695 3.886469 0.1813143
v 0.8173982 5.058467 -0.7334859
v 2.122498 4.8383 -0.1081547
v 3.073638 5.378528 0.3519278
v 4.063363 5.3933 0.8091175
v -0.2444388 4.500831 -0.399146
v -0.9218664 3.612698 0.1634295
v -0.09408038 4.260245 -0.4096292
v 0.7341331 5.147873 -0.5300913
v 0.7147654 5.009089 -0.3386241
v 0.7786632 4.780899 -0.3505517
v 2.066953 5.020842 -0.09997018
v 3.090958 5.463445 0.238853
v 4.106138 5.361708 0.7400671
v 4.748766 5.211383 1.529154
v 1.984584 5.08858 0.05846217
v 1.957761 4.973776 0.2087095
v 2.013306 4.791234 0.200525
v 3.053665 5.600731 0.2464902
v 4.152072 5.41534 0.6889854
v 2.999052 5.653101 0.3672021
v 2.981732 5.568185 0.4802767
v 3.019026 5.430899 0.4726397
v 4.155231 5.500563 0.7069534
v 4.112455 5.532153 0.7760032
v 4.066521 5.478522 0.827085
v 4.063363 5.3933 0.8091175
v 1.56442 5.016175 -0.05477153
v 1.655888 4.897251 -0.2628992
v 1.789769 4.340924 0.1467435
v 1.727524 4.41636 0.3333456
v 1.333145 4.913824 -0.09792832
v 2.584053 3.93417 0.4570439
v 1.569768 4.276775 0.3371514
v 1.424613 4.794899 -0.306056
v 2.596382 3.955439 0.6232377
v 3.646339 3.744123 0.06602773
v 1.632013 4.20134 0.1505492
v 1.655888 4.897251 -0.2628992
v 1.789769 4.340924 0.1467435
v 2.545412 3.79717 0.6472738
v 2.533083 3.775901 0.4810797
v 2.584053 3.93417 0.4570439
v 3.697636 3.744076 0.1796178
v 3.66355 3.625177 0.194962
v 3.612252 3.625224 0.08137187
v 3.704945 3.669421 0.115097
v -1.529344 4.007363 -0.07043559
v -1.570514 3.839008 -0.2345825
v -2.357625 4.135293 -0.2985766
v -2.359008 4.273236 -0.1738148
v -1.458647 4.225138 -0.1379532
v -3.741305 4.05494 -0.5702757
v -2.334129 4.449028 -0.2292573
v -1.429118 4.274557 -0.3696179
v -3.742045 4.156064 -0.4787196
v -4.836737 4.817529 -0.9972955
v -2.307865 4.486878 -0.4094614
v -1.470287 4.106202 -0.5337647
v -3.70236 4.281381 -0.5151852
v -4.805071 4.861829 -0.9347424
v -5.569513 5.876664 -0.8852186
v -2.306482 4.348934 -0.5342233
v -1.540985 3.888427 -0.4662471
v -3.661934 4.305575 -0.6432066
v -4.748843 4.920844 -0.9500237
v -2.331362 4.173142 -0.478781
v -1.570514 3.839008 -0.2345825
v -2.357625 4.135293 -0.2985766
v -3.661194 4.204451 -0.7347626
v -4.724278 4.93556 -1.027858
v -3.700879 4.079134 -0.698297
v -3.741305 4.05494 -0.5702757
v -4.755944 4.89126 -1.09041
v -4.812173 4.832245 -1.075129
v -4.836737 4.817529 -0.9972955
v -2.834983 4.362132 -0.5013978
v -2.649518 4.399339 -0.3903801
v -3.088746 4.228547 0.3293937
v -3.182745 4.210565 0.2065557
v -2.785544 4.148731 -0.5124688
v -3.873481 4.130562 0.5326583
v -3.156229 4.057135 0.2087259
v -2.600079 4.185938 -0.4014506
v -3.913471 4.12386 0.4484076
v -3.907054 4.06558 0.4930344
v -3.06223 4.075118 0.331564
v -2.649518 4.399339 -0.3903801
v -3.088746 4.228547 0.3293937
v -3.886873 4.034391 0.4428995
v -3.846882 4.041094 0.5271505
v -3.873481 4.130562 0.5326583
v -1.185598 5.699408 -1.901421
v -1.117091 5.984668 -1.762394
v -2.342063 6.174686 -1.642869
v -2.429533 5.96356 -1.751327
v -1.22968 5.435589 -1.717433
v -3.904175 7.281229 -1.977759
v -2.52423 5.777724 -1.608197
v -1.205254 5.45703 -1.394418
v -3.946748 7.118021 -2.055025
v -4.916819 7.205137 -1.984677
v -2.531456 5.803015 -1.356609
v -1.136747 5.742291 -1.255391
v -4.006679 6.978036 -1.949045
v -4.960795 7.114101 -2.034679
v -5.052994 7.210217 -2.124559
v -2.443985 6.014142 -1.248151
v -1.092665 6.00611 -1.439379
v -4.024034 7.001258 -1.7658
v -5.018091 7.038437 -1.97374
v -2.349289 6.199977 -1.391281
v -1.117091 5.984668 -1.762394
v -2.342063 6.174686 -1.642869
v -3.98146 7.164466 -1.688534
v -5.031409 7.053807 -1.862799
v -3.92153 7.304452 -1.794514
v -3.904175 7.281229 -1.977759
v -4.987433 7.144842 -1.812797
v -4.930138 7.220507 -1.873736
v -4.916819 7.205137 -1.984677
v 0.7708902 8.161179 -2.540498
v 0.4936047 8.058372 -2.703313
v 1.260474 8.330357 -4.072986
v 1.427238 8.386888 -3.910387
v 0.8822949 7.842706 -2.529133
v 2.377266 9.551022 -4.910658
v 1.536902 8.177497 -3.950059
v 0.6050093 7.739897 -2.691947
v 2.470454 9.566321 -4.802063
v 2.493697 9.544501 -4.896251
v 1.370138 8.120965 -4.112659
v 0.4936047 8.058372 -2.703313
v 1.260474 8.330357 -4.072986
v 2.556792 9.468218 -4.862329
v 2.463604 9.452917 -4.970923
v 2.377266 9.551022 -4.910658
v -0.6863084 6.525382 -2.260335
v -0.4108219 6.594339 -2.425068
v -1.08653 6.739189 -3.4575
v -1.350769 6.692061 -3.35417
v -0.7277411 6.844642 -2.195981
v -1.453102 7.798929 -4.368778
v -1.344055 6.946802 -3.220817
v -0.4522546 6.913599 -2.360715
v -1.578436 7.75456 -4.285493
v -1.560682 7.86902 -4.344247
v -1.079815 6.993929 -3.324147
v -0.4108219 6.594339 -2.425068
v -1.08653 6.739189 -3.4575
v -1.559847 7.8787 -4.191383
v -1.434513 7.923071 -4.274666
v -1.453102 7.798929 -4.368778
v -1.144821 5.728556 -1.481008
v -1.381647 5.527811 -1.575928
v -0.9264066 5.634325 -2.800977
v -0.7672624 5.778598 -2.667386
v -0.8531004 5.609746 -1.402405
v -0.1081213 6.124468 -3.618781
v -0.5515667 5.68047 -2.578872
v -0.7982053 5.290193 -1.418723
v 0.001072241 6.223095 -3.505782
v 0.04366639 6.914077 -4.768865
v -0.4950152 5.438069 -2.62395
v -1.035031 5.089446 -1.513644
v 0.1728675 6.164113 -3.468012
v 0.1159664 6.998141 -4.74819
v -0.2993173 7.028975 -6.112754
v -0.6541597 5.293796 -2.757541
v -1.326752 5.208255 -1.592247
v 0.2354696 6.006503 -3.543241
v 0.2258727 6.98454 -4.769572
v -0.8698556 5.391923 -2.846055
v -1.381647 5.527811 -1.575928
v -0.9264066 5.634325 -2.800977
v 0.1262763 5.907875 -3.656239
v 0.2634788 6.886874 -4.811629
v -0.04551993 5.966857 -3.694009
v -0.1081213 6.124468 -3.618781
v 0.1911783 6.802811 -4.832305
v 0.08127222 6.816412 -4.810925
v 0.04366639 6.914077 -4.768865
v 2.154358 8.43406 -2.645908
v 1.88403 8.418612 -2.793841
v 1.296813 8.860938 -1.702281
v 1.454567 8.904886 -1.540654
v 2.187705 8.726829 -2.737418
v 0.1976752 9.914726 -1.531806
v 1.518344 9.094428 -1.654439
v 1.917378 8.711381 -2.88535
v 0.2814842 9.95476 -1.42953
v 0.08032838 11.78562 -1.602866
v 1.360589 9.050483 -1.816066
v 1.88403 8.418612 -2.793841
v 1.296813 8.860938 -1.702281
v 0.3708251 10.00474 -1.522304
v 0.2870159 9.964709 -1.62458
v 0.1976752 9.914726 -1.531806
v 0.03894807 7.600561 -2.425718
v 0.08467289 7.356114 -2.523871
v 0.8899864 7.35863 -2.144862
v 0.8052238 7.594789 -2.067949
v -0.07287414 7.62901 -2.184542
v 2.232223 7.893486 -1.370224
v 0.6822232 7.621458 -1.837664
v -0.1389715 7.413013 -2.041521
v 2.112403 8.114184 -1.321615
v 2.907374 8.041904 -0.3174937
v 0.6439847 7.411966 -1.684292
v -0.09324649 7.168566 -2.139674
v 1.934127 8.125298 -1.138529
v 2.810303 8.25611 -0.2456163
v 3.334913 7.534034 1.079681
v 0.7287471 7.175807 -1.761206
v 0.01857595 7.140116 -2.38085
v 1.875669 7.915713 -1.004053
v 2.588522 8.261157 -0.1394968
v 3.244891 7.734694 1.149358
v 3.815221 7.609075 1.937895
v 0.8517479 7.149138 -1.991491
v 0.08467289 7.356114 -2.523871
v 0.8899864 7.35863 -2.144862
v 1.995488 7.695017 -1.052662
v 2.173765 7.683904 -1.235748
v 2.232223 7.893486 -1.370224
v 2.463811 8.051996 -0.1052547
v 3.035098 7.739919 1.245187
v 3.705402 7.781007 1.951524
v 4.549258 8.272885 2.593729
v 2.560882 7.837789 -0.1771322
v 2.782663 7.832743 -0.2832516
v 2.907374 8.041904 -0.3174937
v 2.915328 7.544485 1.271339
v 3.546605 7.790977 2.07994
v 4.441872 8.386072 2.58339
v 4.512177 8.387773 2.74341
v 3.00535 7.343825 1.201662
v 3.215143 7.338599 1.105832
v 3.334913 7.534034 1.079681
v 3.497626 7.629015 2.194728
v 4.344078 8.412184 2.702572
v 3.607445 7.457082 2.181099
v 3.766243 7.447112 2.052682
v 3.815221 7.609075 1.937895
v 4.353669 8.325107 2.832093
v 4.432256 8.226613 2.823163
v 4.530051 8.200502 2.703982
v 4.549258 8.272885 2.593729
v 2.296757 8.008472 -0.8895897
v 2.167572 7.820328 -0.8648826
v 1.571049 8.372561 -0.1199893
v 1.685482 8.473789 -0.1767405
v 2.153482 8.085584 -1.051527
v 1.633269 9.393083 0.5609143
v 1.577512 8.537434 -0.2809241
v 2.024297 7.897439 -1.02682
v 1.706014 9.415283 0.4993356
v 1.643972 9.459953 0.5074699
v 1.46308 8.436207 -0.2241731
v 2.167572 7.820328 -0.8648826
v 1.571049 8.372561 -0.1199893
v 1.64124 9.452971 0.4364028
v 1.568495 9.430769 0.4979813
v 1.633269 9.393083 0.5609143
v 2.482542 8.03197 -0.342327
v 2.703448 7.949548 -0.4621482
v 3.225159 8.6703 -0.3151064
v 3.135748 8.75405 -0.2469866
v 2.576299 7.946101 -0.1104088
v 3.444901 9.607152 0.3874772
v 3.161913 8.68505 -0.1278095
v 3.392299 9.639676 0.4232268
v 4.228015 10.34821 0.1810729
v 3.414936 9.609571 0.4839233
v 2.797204 7.86368 -0.2302299
v 2.576299 7.946101 -0.1104088
v 3.161913 8.68505 -0.1278095
v 3.251324 8.601299 -0.1959294
v 2.703448 7.949548 -0.4621482
v 3.414936 9.609571 0.4839233
v 3.225159 8.6703 -0.3151064
v 3.467537 9.577046 0.4481733
v 4.228015 10.34821 0.1810729
v 3.444901 9.607152 0.3874772
v 3.933646 7.623835 2.140496
v 3.948087 7.814576 2.267409
v 4.411708 8.203781 1.529161
v 4.433975 8.127361 1.424883
v 3.740242 7.702153 2.044796
v 5.085132 9.513511 1.40381
v 4.327075 8.175988 1.366422
v 3.754683 7.892895 2.171708
v 4.30481 8.252407 1.4707
v 4.411708 8.203781 1.529161
v 3.948087 7.814576 2.267409
v 0.8638993 7.610939 -1.779622
v 1.1299 7.677961 -1.70775
v 0.8120409 7.530796 -0.4799973
v 0.5925704 7.476066 -0.562875
v 0.9355358 7.336723 -1.789038
v 0.1971708 7.364819 0.7989097
v 0.6520357 7.242648 -0.5662042
v 1.201536 7.403747 -1.717165
v 0.007920469 7.318297 0.7483819
v 0.06779955 7.510497 2.029124
v 0.8715061 7.297377 -0.4833267
v 1.1299 7.677961 -1.70775
v 0.8120409 7.530796 -0.4799973
v 0.05189396 7.122452 0.7639984
v -0.08953508 7.473675 2.016834
v -0.03037106 7.405463 3.006454
v 0.2411443 7.168974 0.8145266
v 0.1971708 7.364819 0.7989097
v -0.05316198 7.315914 2.023855
v -0.1157478 7.376643 2.92587
v -0.7143661 7.442122 3.079542
v 0.1041726 7.352736 2.036145
v 0.06779955 7.510497 2.029124
v -0.09543582 7.259246 2.946336
v -0.7343007 7.415936 3.013317
v -1.523263 8.146252 3.148305
v -0.01005903 7.288065 3.02692
v -0.03037106 7.405463 3.006454
v -0.7588857 7.353923 3.045237
v -0.7389511 7.380109 3.111463
v -0.7143661 7.442122 3.079542
v 0.1242165 7.291389 1.540617
v 0.07336382 7.296401 1.680089
v 0.9120723 7.66071 1.937279
v 0.9692485 7.676983 1.876687
v 0.07628004 7.430174 1.518152
v 0.889175 8.345201 2.658501
v 0.9232969 7.743663 1.851235
v 0.02542736 7.435185 1.657625
v 0.8661208 7.727389 1.911827
v 0.9120723 7.66071 1.937279
v 0.07336382 7.296401 1.680089
v -3.086299 6.677076 -1.571625
v -3.190012 6.443177 -1.590646
v -4.186084 6.85683 -0.7473822
v -4.096701 7.015503 -0.7510745
v -3.229812 6.756747 -1.768813
v -4.758894 7.491758 0.5365091
v -4.218849 7.081568 -0.868953
v -3.333525 6.522848 -1.787834
v -4.680074 7.560091 0.503638
v -5.228021 8.584907 0.420868
v -4.308233 6.922896 -0.8652607
v -3.190012 6.443177 -1.590646
v -4.186084 6.85683 -0.7473822
v -4.73714 7.582324 0.4130192
v -4.81596 7.51399 0.4458899
v -4.758894 7.491758 0.5365091
v 2.229693 3.956403 0.4575189
v 2.318702 4.091506 0.4484512
v 2.109243 4.238381 1.239606
v 2.052637 4.167935 1.259808
v 2.358138 3.875595 0.5143489
v 1.701278 4.864963 1.720942
v 2.116762 4.132682 1.316555
v 2.447147 4.010698 0.5052812
v 2.173368 4.203127 1.296353
v 2.109243 4.238381 1.239606
v 2.318702 4.091506 0.4484512
vn 0.5621124 0.04842386 -0.8256421
vn 0.9953626 -0.06728205 0.06874872
vn 0.9958996 0.03156644 0.08477983
vn 0.586096 0.06441577 -0.807677
vn -0.4273995 0.1657304 -0.8887423
vn 0.9531888 0.2994903 0.04167456
vn -0.4209625 0.1017944 -0.9013481
vn -0.9841988 0.1653081 -0.06345077
vn 0.5159354 0.3414772 -0.7856233
vn 0.853662 0.4897299 0.1772729
vn -0.9901604 0.1354548 -0.03513327
vn -0.5543191 0.04794468 0.8309222
vn -0.3931139 0.147902 -0.9075166
vn 0.4053309 0.5976021 -0.6917937
vn 0.7924286 0.5516408 0.2602872
vn -0.5297099 0.1136135 0.8405352
vn 0.4370666 -0.06725059 0.8969115
vn -0.9787195 -0.102355 -0.1778528
vn -0.4719704 0.175324 -0.8640054
vn 0.5700744 0.3879783 -0.7242155
vn 0.8636755 0.4380336 0.2493818
vn 0.4411027 0.05140844 0.895983
vn 0.9953626 -0.06728205 0.06874872
vn 0.9958996 0.03156644 0.08477983
vn -0.533097 -0.1617233 0.8304536
vn 0.5140321 0.05852225 0.8557723
vn 0.9531888 0.2994903 0.04167456
vn -0.9071465 -0.4034863 -0.1195158
vn -0.3961382 -0.1629051 -0.9036241
vn 0.7566299 -0.1762495 -0.6296407
vn 0.9208064 0.1620195 0.354775
vn -0.4251434 -0.4934314 0.7588007
vn 0.4335305 -0.04749539 0.8998864
vn 0.853662 0.4897299 0.1772729
vn -0.9108598 -0.4076609 -0.06439777
vn -0.2201792 -0.5323574 -0.8173841
vn 0.7654763 -0.4626113 -0.4472548
vn 0.8695058 -0.0669514 0.489364
vn -0.592294 -0.1798604 0.7853904
vn 0.207813 0.2689898 0.9404564
vn 0.7924286 0.5516408 0.2602872
vn -0.9411567 -0.2819119 -0.1864126
vn -0.1621122 -0.5936337 -0.7882378
vn 0.7459484 -0.5127598 -0.4250158
vn 0.6696181 -0.3108504 0.6745248
vn -0.7792062 0.2543299 0.5728474
vn 0.05693975 0.6002069 0.7978155
vn 0.8636755 0.4380336 0.2493818
vn -0.9184131 -0.1429112 -0.3689088
vn -0.1008291 -0.407878 -0.9074519
vn 0.6459492 -0.6847903 -0.3373601
vn 0.4130542 -0.569058 0.7110268
vn -0.8027509 0.4487873 0.3926589
vn 0.09937093 0.6233711 0.7755861
vn 0.9208064 0.1620195 0.354775
vn -0.8269131 0.1057901 -0.5522891
vn -0.0475347 -0.2580071 -0.964973
vn 0.4423104 -0.8517399 -0.2808926
vn 0.4188994 -0.6401379 0.6440085
vn -0.7774647 0.5538328 0.2980231
vn 0.05837708 0.4962831 0.8661959
vn 0.8695058 -0.0669514 0.489364
vn -0.6259627 0.4359101 -0.6466476
vn 0.05787104 -0.2610422 -0.9635912
vn 0.7491688 -0.6263989 -0.2153383
vn 0.4363611 -0.4213349 0.7950258
vn -0.6044428 0.7594863 0.2404773
vn 0.003559272 0.4232919 0.9059864
vn 0.6696181 -0.3108504 0.6745248
vn -0.3516342 0.5933357 -0.7240899
vn 0.4634982 -0.06095022 -0.8839992
vn 0.9898487 -0.1214206 0.07386982
vn 0.3170988 0.1712434 0.9328045
vn -0.3912615 0.8996317 0.1938486
vn -0.02547668 0.3600744 0.9325757
vn 0.4130542 -0.569058 0.7110268
vn -0.1919956 0.5872523 -0.7863031
vn 0.655543 0.3518442 -0.6681834
vn 0.8610719 0.4276651 0.2750595
vn -0.1554731 0.976279 0.1506897
vn -0.6791599 0.7233311 0.1246356
vn -0.3069934 -0.01685677 0.9515624
vn 0.4188994 -0.6401379 0.6440085
vn -0.3141719 0.5739161 -0.7562515
vn 0.5281765 0.6635987 -0.5297795
vn -0.9671167 0.254261 0.006050827
vn -0.5477901 -0.254582 0.7969404
vn 0.4363611 -0.4213349 0.7950258
vn -0.3889424 0.6337336 -0.6686596
vn -0.938108 0.3459698 0.01606966
vn -0.5704208 0.1183047 0.8127879
vn 0.3170988 0.1712434 0.9328045
vn -0.5646372 -0.8168932 0.1177718
vn -0.9078996 -0.05442777 -0.4156392
vn -0.9859284 0.03851705 -0.1626704
vn -0.6642036 -0.669423 0.3327258
vn 0.3214745 -0.7406119 0.5900408
vn -0.9723427 0.176186 -0.153324
vn 0.2353855 -0.7774687 0.5832119
vn 0.8454311 0.1095202 0.5227348
vn -0.6105474 -0.6971897 0.3757105
vn -0.930725 0.04674508 -0.3627201
vn 0.9474071 -0.08169608 0.3094278
vn 0.5066109 0.8621664 -0.003818166
vn 0.4287979 -0.739235 0.5192917
vn -0.5486361 -0.8360541 -0.003459273
vn -0.4501433 0.0637263 0.8906795
vn 0.5579436 0.7772782 -0.2907535
vn -0.369305 0.7936956 -0.483385
vn 0.9831447 -0.0272841 0.1807818
vn 0.4030331 -0.8146825 0.4169613
vn -0.4536532 0.74852 -0.4836492
vn -0.9078996 -0.05442777 -0.4156392
vn -0.9859284 0.03851705 -0.1626704
vn 0.6457714 0.7137077 -0.2712944
vn 0.8933737 0.0615674 0.4450763
vn -0.2762144 0.8497504 -0.4490322
vn -0.9723427 0.176186 -0.153324
vn 0.4960776 0.8630104 0.09549945
vn -0.3830063 0.8748136 -0.2966604
vn -0.930725 0.04674508 -0.3627201
vn 0.259543 0.8857786 0.3847513
vn -0.1265963 -0.363537 0.9229378
vn 0.1453744 -0.3135473 0.9383786
vn 0.03477949 0.9413124 0.3357401
vn 0.02754461 0.3920811 -0.9195182
vn 0.3240668 -0.5725556 0.7531008
vn -0.2245855 0.5064203 -0.8325263
vn -0.3582239 -0.8553109 -0.3743247
vn 0.251458 0.9021397 0.3505892
vn -0.6441521 0.4839897 0.5923024
vn -0.1774616 -0.8302897 -0.5283241
vn -0.1265963 -0.363537 0.9229378
vn 0.1453744 -0.3135473 0.9383786
vn -0.5307153 0.2473291 -0.8106599
vn -0.3377944 -0.8996788 -0.2765377
vn 0.3240668 -0.5725556 0.7531008
vn 0.6036338 -0.7944674 -0.06669195
vn 0.6546332 -0.1957391 0.7301655
vn 0.4682403 -0.3673405 0.8036243
vn 0.5472213 -0.8278765 -0.1231633
vn -0.02272736 -0.5685562 -0.8223304
vn -0.05571222 -0.5468507 0.8353745
vn 0.120537 -0.4322042 -0.8936836
vn -0.5896512 0.2465647 -0.7691016
vn 0.3260308 -0.9375134 -0.1215429
vn -0.09079828 -0.6269216 0.7737731
vn -0.3743045 0.3659599 -0.8520384
vn -0.5396478 0.841092 0.03666751
vn 0.3664634 -0.2746826 -0.8889624
vn 0.3098325 -0.9507903 -0.001218718
vn -0.1062484 -0.526944 0.8432326
vn -0.5074415 0.8597469 -0.05777976
vn 0.09046371 0.6124114 0.7853462
vn 0.09741113 0.6188003 -0.7794853
vn 0.4697031 -0.4209651 -0.7759943
vn 0.3132425 -0.9476178 -0.06244717
vn -0.4605708 -0.6450946 0.6096946
vn -0.1157394 0.5551217 0.8236774
vn 0.6546332 -0.1957391 0.7301655
vn 0.4682403 -0.3673405 0.8036243
vn -0.2247093 0.9742964 0.01588588
vn -0.3221862 0.4652947 0.8244374
vn -0.05571222 -0.5468507 0.8353745
vn 0.1995538 0.5624628 -0.8023802
vn 0.417592 -0.2659158 -0.8688532
vn 0.06517243 -0.9719076 -0.2261597
vn 0.6225274 -0.2284624 0.7485083
vn -0.2657687 0.9599183 0.08901586
vn -0.3873738 0.2838625 0.8771338
vn -0.09079828 -0.6269216 0.7737731
vn 0.1357704 0.6516325 -0.7462852
vn 0.5532153 -0.3348886 -0.7627597
vn -0.2244116 0.9729928 0.05407909
vn -0.3512497 0.441189 0.8258184
vn -0.1062484 -0.526944 0.8432326
vn 0.5806458 0.5825207 -0.5687884
vn 0.1392315 0.9766818 0.1634233
vn -0.4074223 0.4270155 0.8072577
vn -0.4605708 -0.6450946 0.6096946
vn 0.4029328 0.5676924 0.7178931
vn 0.9024258 -0.08395666 -0.4225862
vn 0.7331614 0.1261624 -0.6682496
vn 0.2070642 0.6398232 0.7401018
vn -0.8769714 0.006913969 0.4804929
vn 0.2071338 0.6018361 -0.7712905
vn -0.736279 -0.2821223 0.6150613
vn -0.371044 -0.6488312 -0.6643377
vn 0.2684041 0.6544473 0.706865
vn 0.2634582 0.5177971 -0.8139263
vn -0.3964464 -0.7641854 -0.5087739
vn 0.9024258 -0.08395666 -0.4225862
vn 0.7331614 0.1261624 -0.6682496
vn -0.1387228 -0.5584418 0.8178623
vn -0.2734782 -0.8468372 -0.456154
vn 0.2071338 0.6018361 -0.7712905
vn 0.7571083 0.5475202 0.3563827
vn 0.4935578 -0.6992967 0.5170926
vn 0.01266103 -0.727266 -0.6862389
vn 0.8891573 -0.2927411 -0.351713
vn -0.1830574 -0.1920383 0.9641635
vn -0.3572573 -0.8930719 0.2734771
vn -0.190415 -0.9226357 0.3353886
vn -0.1840609 -0.1322253 0.9739805
vn 0.1136603 0.7221834 0.6822994
vn -0.3201115 -0.9128671 0.2533818
vn -0.04826995 0.766029 0.6409912
vn 0.2371313 0.9285666 -0.2855395
vn -0.3381477 -0.242716 0.9092553
vn -0.7118001 -0.6947903 0.1029904
vn 0.08445078 0.9575623 -0.2755766
vn 0.06325514 0.2203518 -0.9733673
vn -0.07216454 0.6855146 0.7244737
vn -0.3890333 -0.2122635 0.8964359
vn -0.6167279 0.7809649 0.09869441
vn 0.09633281 0.2738758 -0.9569284
vn -0.2350835 -0.6874341 -0.6871464
vn 0.2525205 0.9245413 -0.2854063
vn 0.3379969 0.5677556 0.7506076
vn -0.04075225 -0.7159545 -0.6969565
vn -0.3572573 -0.8930719 0.2734771
vn -0.190415 -0.9226357 0.3353886
vn 0.236229 0.0835421 -0.9680995
vn 0.6309772 0.7322506 -0.2562752
vn -0.05420386 -0.7765598 -0.6277075
vn -0.3201115 -0.9128671 0.2533818
vn 0.224603 0.1736217 -0.9588582
vn -0.4118407 -0.498901 -0.7625515
vn -0.7118001 -0.6947903 0.1029904
vn -0.7865224 0.5542905 -0.272295
vn 0.4081006 0.7985489 0.442463
vn 0.3373561 0.6828287 0.6480246
vn -0.5528402 0.6990178 -0.4535878
vn -0.4709287 -0.8126428 -0.343275
vn -0.3533673 0.5737602 0.7388713
vn -0.2583795 -0.8748556 -0.4097166
vn 0.7282876 -0.5763113 0.3707594
vn -0.779734 0.4865168 -0.3941019
vn -0.8629962 -0.3509843 0.3633836
vn 0.5304644 -0.5659139 0.6311489
vn 0.4081006 0.7985489 0.442463
vn 0.3373561 0.6828287 0.6480246
vn -0.5172605 -0.7273292 -0.4510363
vn -0.09572615 -0.6426735 0.7601364
vn -0.3533673 0.5737602 0.7388713
vn -0.1302231 -0.0465268 -0.9903924
vn 0.07580469 0.8242444 -0.5611369
vn 0.3262501 0.7532372 -0.5711345
vn -0.04829118 -0.1523006 -0.9871538
vn -0.2656603 -0.865871 -0.4239011
vn 0.2755292 0.7885355 -0.5498139
vn -0.399226 -0.8359374 -0.3765997
vn -0.1915029 -0.7997335 0.568993
vn 0.07190318 -0.009120536 -0.9973699
vn 0.1526655 0.8398915 -0.5208412
vn -0.4152262 -0.7218914 0.5535884
vn 0.02037518 0.07816021 0.9967326
vn -0.2692237 -0.8337651 -0.4820316
vn 0.2017214 -0.3437505 -0.9171391
vn -0.4214911 0.3858078 -0.8206689
vn -0.09886128 0.05297477 0.9936901
vn 0.153679 0.8926237 0.4237991
vn -0.373263 -0.7046625 0.6034282
vn -0.5079964 -0.7980852 -0.3240364
vn 0.282001 0.823072 0.4929786
vn 0.07580469 0.8242444 -0.5611369
vn 0.3262501 0.7532372 -0.5711345
vn -0.111068 0.2458657 0.9629195
vn -0.704399 -0.5211995 0.4818435
vn 0.1941753 0.9161891 0.3505619
vn 0.2755292 0.7885355 -0.5498139
vn -0.5233471 0.2340214 0.8193544
vn -0.2670595 0.8989053 0.3473449
vn 0.1526655 0.8398915 -0.5208412
vn 0.3613705 0.8751632 0.3217154
vn -0.8187733 0.4343328 -0.3754535
vn -0.819608 0.356501 -0.4484973
vn 0.182673 0.7888965 0.5867477
vn 0.8476023 -0.4499213 0.2813206
vn -0.4903054 0.7126704 -0.5016986
vn 0.8169599 -0.5367722 0.2108367
vn -0.2876546 -0.8757145 -0.3877873
vn 0.2462178 0.8242021 0.5099685
vn 0.5037518 0.7424709 -0.4415554
vn -0.1570018 -0.7497189 -0.6428624
vn -0.8187733 0.4343328 -0.3754535
vn -0.819608 0.356501 -0.4484973
vn 0.9986322 -0.04874551 0.01891077
vn 0.2537369 -0.1696381 -0.9522818
vn -0.4903054 0.7126704 -0.5016986
vn -0.5180924 -0.8334574 0.1921697
vn 0.667393 -0.5350785 -0.5179553
vn 0.5093542 -0.5939514 -0.6227199
vn -0.6646741 -0.7372901 -0.1208791
vn -0.6962432 0.544834 0.4673344
vn 0.3879772 -0.105899 -0.9155649
vn -0.7462785 0.4099642 0.5244023
vn 0.4869416 0.8398218 -0.2399735
vn -0.8221716 -0.3668469 -0.4352668
vn -0.6028061 0.4420756 -0.6642244
vn 0.6870854 0.7264861 -0.01146343
vn 0.667393 -0.5350785 -0.5179553
vn 0.5093542 -0.5939514 -0.6227199
vn -0.6274099 0.6619832 0.4100428
vn 0.4839329 0.8670279 -0.1186236
vn 0.3879772 -0.105899 -0.9155649
vn -0.1429609 0.9897196 -0.004166777
vn -0.8799048 0.3715162 -0.2962148
vn -0.8391854 0.3485982 -0.4174292
vn -0.2617806 0.9611328 0.08771882
vn 0.7462858 0.6239551 0.2318139
vn -0.9050611 0.3438175 -0.2503078
vn 0.6647965 0.5760566 0.4756096
vn 0.9172962 -0.3516899 0.1867668
vn -0.2330994 0.8855371 0.4018566
vn -0.9625056 0.2255553 0.150691
vn 0.8550918 -0.4475968 0.2616777
vn 0.1856432 -0.9770015 -0.104903
vn 0.6505774 0.5129189 0.5600565
vn -0.2796545 0.9081014 0.3116812
vn -0.3218097 0.09284469 -0.9422411
vn 0.1894626 -0.947972 -0.255838
vn -0.7107191 -0.6116389 -0.3475288
vn 0.9418353 -0.288655 0.1721174
vn 0.6260617 0.7683535 0.1329646
vn -0.6100559 -0.5505781 -0.5698207
vn -0.8799048 0.3715162 -0.2962148
vn -0.8391854 0.3485982 -0.4174292
vn 0.4106164 -0.8160155 -0.4068328
vn 0.9774271 -0.01644375 -0.2106321
vn -0.5027215 -0.5652328 -0.6540512
vn -0.9050611 0.3438175 -0.2503078
vn 0.4300693 -0.7952259 -0.4273831
vn -0.6435419 -0.7233707 -0.2501776
vn -0.9625056 0.2255553 0.150691
vn 0.5230183 -0.6171844 0.5878224
vn -0.7163848 -0.6909092 -0.09714586
vn -0.6400049 -0.7669943 0.045972
vn 0.2814421 -0.4116077 0.8668157
vn 0.6658407 0.725576 0.1737691
vn -0.9079824 -0.4175758 -0.03461791
vn 0.6921477 0.6539623 0.305393
vn -0.5628116 0.6509498 -0.5094188
vn -0.1914765 -0.09818371 0.9765739
vn -0.1113319 0.9929305 -0.0411608
vn -0.3237365 0.4762003 -0.8175744
vn -0.7163848 -0.6909092 -0.09714586
vn -0.6400049 -0.7669943 0.045972
vn 0.8602903 0.4919421 0.1337672
vn -0.1258024 0.03750244 -0.9913462
vn -0.9079824 -0.4175758 -0.03461791
vn 0.2534428 0.8095888 -0.5294644
vn 0.4244387 -0.1075603 -0.8990454
vn 0.479587 -0.1508625 -0.8644286
vn 0.1769616 0.767772 -0.6158009
vn -0.1622272 0.9147092 0.3701209
vn 0.6958076 -0.01051534 -0.7181513
vn -0.3195581 0.8978187 0.302992
vn -0.4116995 0.1084021 0.9048495
vn 0.2564372 0.8038586 -0.5367042
vn 0.9068438 0.05094196 -0.418377
vn -0.4568653 0.05208345 0.8880098
vn -0.2396763 -0.8091667 0.5364743
vn -0.4163864 0.8988037 0.137019
vn 0.5079089 0.8514903 -0.130357
vn 0.9099478 -0.0899265 -0.404856
vn -0.1269723 -0.8140495 0.5667464
vn 0.1784555 -0.9146222 -0.3627944
vn -0.6965331 0.08798444 0.7121098
vn -0.3403556 0.8973044 0.2810746
vn 0.5302746 0.8423077 -0.09657476
vn 0.8165674 -0.1382301 -0.5604552
vn 0.322995 -0.9043888 -0.2788459
vn 0.4244387 -0.1075603 -0.8990454
vn 0.479587 -0.1508625 -0.8644286
vn -0.1859603 -0.8455696 0.5004307
vn 0.5107401 -0.8249108 -0.2422125
vn 0.6958076 -0.01051534 -0.7181513
vn -0.8903207 0.09293012 0.4457498
vn -0.4334612 0.8355711 0.3375386
vn 0.2627299 0.8025723 -0.5355843
vn 0.8972978 0.08454087 -0.4332545
vn -0.5031803 -0.851321 0.1485335
vn 0.4654317 -0.8283325 -0.3118312
vn 0.9068438 0.05094196 -0.418377
vn -0.9052996 -0.04166516 0.4227253
vn -0.5672342 0.8092377 0.1529044
vn 0.2598899 0.7993378 -0.5417715
vn 0.6518666 0.6511452 0.38869
vn -0.5104142 -0.8506059 0.1262816
vn 0.3478014 -0.8981976 -0.2688406
vn 0.9099478 -0.0899265 -0.404856
vn -0.7404402 -0.01911252 0.6718505
vn -0.3453606 0.9274029 0.143701
vn -0.2097493 -0.7863765 0.5810484
vn 0.5100951 -0.8598163 0.0227816
vn 0.8165674 -0.1382301 -0.5604552
vn -0.2773769 0.3470098 0.8959053
vn 0.2850473 -0.3423142 0.8953039
vn 0.837732 -0.4654206 0.2856376
vn 0.8972978 0.08454087 -0.4332545
vn 0.8126177 0.365886 0.4536298
vn 0.01943914 -0.7938743 0.6077712
vn -0.1577876 -0.7038178 0.6926353
vn 0.9429725 0.1196059 0.3106402
vn -0.06569903 0.8396095 -0.5392027
vn -0.02068454 -0.04851226 0.9986084
vn -0.1280501 0.7110404 -0.6913933
vn -0.8632511 -0.3201411 -0.3902655
vn 0.926967 0.277904 0.2519953
vn 0.1230327 0.9207056 0.3703569
vn -0.9731441 -0.1830085 -0.1396368
vn 0.01943914 -0.7938743 0.6077712
vn -0.1577876 -0.7038178 0.6926353
vn 0.07426197 0.8291259 -0.5541077
vn -0.8601617 0.4500784 0.2398985
vn -0.02068454 -0.04851226 0.9986084
vn -0.7126301 0.6722474 -0.2006037
vn 0.2630796 0.007373092 -0.9647459
vn 0.486854 0.1468814 -0.8610454
vn -0.6498072 0.6244484 -0.4333761
vn -0.2737817 0.2417188 0.9309219
vn 0.3256626 0.09167379 -0.9410312
vn -0.4029798 -0.1114645 0.9083958
vn -0.8016522 0.5890687 -0.101744
vn 0.7138923 0.6622636 -0.2275189
vn -0.3716126 0.0603351 0.9264253
vn 0.7860134 -0.5059546 0.3552364
vn -0.2737817 0.2417188 0.9309219
vn -0.4029798 -0.1114645 0.9083958
vn 0.8747675 -0.432137 0.2191788
vn 0.2630796 0.007373092 -0.9647459
vn -0.3716126 0.0603351 0.9264253
vn 0.486854 0.1468814 -0.8610454
vn 0.6890184 -0.5305586 0.4937219
vn 0.7138923 0.6622636 -0.2275189
vn 0.3256626 0.09167379 -0.9410312
vn 0.5912392 -0.7928416 -0.147778
vn 0.6759205 0.3827163 0.6298093
vn 0.5983363 0.09935439 0.7950612
vn 0.6635507 -0.6453066 -0.3785233
vn -0.59991 -0.3116528 -0.7368721
vn 0.4758635 0.8790055 -0.03005399
vn -0.3547175 -0.173259 -0.9187801
vn -0.5052337 0.8617956 0.04524738
vn -0.7232748 0.6885674 0.05242614
vn 0.5983363 0.09935439 0.7950612
vn 0.6759205 0.3827163 0.6298093
vn -0.8476195 0.5138323 -0.1323536
vn 0.478543 0.848524 0.22584
vn 0.490366 0.8249202 0.2811547
vn -0.8144115 0.5427015 -0.2054484
vn -0.4907433 -0.8526522 -0.1793189
vn 0.4680752 0.8734305 0.1342565
vn -0.4445103 -0.8677259 -0.2224013
vn 0.835906 -0.5189139 0.178856
vn -0.8624614 0.4548915 -0.2218873
vn 0.4958767 0.8670331 0.04857897
vn 0.8227148 -0.5057772 0.2594797
vn 0.478543 0.848524 0.22584
vn 0.490366 0.8249202 0.2811547
vn -0.5409658 -0.8335461 -0.1120574
vn -0.8323433 0.5516165 -0.05407135
vn 0.4843855 0.7398067 0.4669655
vn 0.7650641 -0.5973468 0.2405282
vn 0.4680752 0.8734305 0.1342565
vn -0.5573632 -0.8302281 0.008216956
vn -0.5535337 0.676826 -0.4852907
vn 0.3881554 0.8106214 0.4384384
vn 0.8655232 -0.4872815 0.1158716
vn 0.4958767 0.8670331 0.04857897
vn -0.2181207 -0.9699708 -0.1076102
vn -0.05435522 0.2725887 -0.9605941
vn -0.7225618 0.6867856 0.07893001
vn 0.6293066 -0.4282803 0.6484976
vn 0.4843855 0.7398067 0.4669655
vn -0.4717222 -0.8291152 -0.3000767
vn -0.1282307 -0.4480804 0.8847491
vn 0.3881554 0.8106214 0.4384384
vn 0.5138295 -0.6658343 -0.5409657
vn 0.03072906 -0.6131142 0.7893964
vn 0.1496799 -0.7354671 0.6608207
vn 0.8866403 -0.3628107 -0.2867707
vn 0.05871015 0.657805 -0.7508966
vn -0.02751169 0.6435576 0.7649031
vn 0.2961416 0.6154827 -0.730398
vn -0.424484 0.7005435 0.5736306
vn -0.8199589 0.5051571 0.2692282
vn 0.1496799 -0.7354671 0.6608207
vn 0.03072906 -0.6131142 0.7893964
vn 0.6522045 0.4350904 0.6207461
vn 0.08215225 -0.8520335 0.5170009
vn 0.0173113 -0.8919373 0.4518276
vn 0.7942981 0.3798198 0.4741597
vn -0.1371453 0.8748928 -0.464493
vn -0.1107647 -0.529488 0.8410552
vn -0.2145578 0.8506181 -0.4800145
vn -0.7090214 -0.4143242 -0.5706348
vn 0.8111852 0.2241662 0.5401186
vn -0.4162728 0.9081029 -0.04545416
vn -0.8414588 -0.3285034 -0.4289902
vn 0.08215225 -0.8520335 0.5170009
vn 0.0173113 -0.8919373 0.4518276
vn 0.1693305 0.6407071 -0.7488803
vn -0.9064195 -0.3996357 -0.1367295
vn -0.1107647 -0.529488 0.8410552
vn -0.9639421 -0.2181477 -0.1524052
vn -0.1889302 0.9543636 -0.231291
vn -0.03953479 0.8555821 -0.5161553
vn -0.9240056 -0.3605278 -0.1274101
vn 0.1559269 -0.9266858 0.3419653
vn -0.4524839 0.7464536 0.4879194
vn 0.06373372 -0.767695 0.6376382
vn 0.9305922 0.2539598 0.2636335
vn 0.8953876 0.179838 0.4073564
vn -0.03953479 0.8555821 -0.5161553
vn -0.1889302 0.9543636 -0.231291
vt -0.3113246 -0.3704824
vt -0.4184168 -0.3683595
vt -0.4103574 -0.1991359
vt -0.3131424 -0.2109712
vt -0.2055915 -0.3687611
vt -0.3863662 -0.09720045
vt -0.2104883 -0.2077986
vt -0.09753594 -0.3665164
vt -0.3015815 -0.1117473
vt -0.3651381 0.02277994
vt -0.09939721 -0.1985247
vt 0.01044446 -0.367853
vt -0.2156314 -0.1229985
vt -0.2803071 0.008874387
vt -0.3409784 0.1571838
vt 0.01646653 -0.1975322
vt 0.1194391 -0.3704824
vt -0.1103206 -0.1309397
vt -0.1892146 -0.01217526
vt -0.253918 0.1322092
vt -0.2739188 0.2825114
vt 0.1230784 -0.1986164
vt 0.2261759 -0.3698427
vt 0.2213716 -0.2007738
vt 0.01077834 -0.1289985
vt 0.1254256 -0.1157653
vt 0.2207453 -0.09843498
vt -0.09187588 -0.03331161
vt -0.161534 0.1087928
vt -0.2118209 0.2626234
vt -0.2477112 0.4196141
vt 0.005883008 -0.03633726
vt 0.0942823 -0.01797146
vt 0.1718771 0.01222801
vt -0.07475492 0.1022718
vt -0.1440623 0.2502944
vt -0.1925463 0.4128186
vt -0.2213985 0.6486193
vt -0.005507469 0.1078931
vt 0.05407262 0.1158867
vt 0.1217676 0.1360325
vt -0.0822455 0.2519622
vt -0.1384291 0.4092915
vt -0.1735722 0.6434656
vt -0.1964957 0.8457985
vt -0.02754605 0.2558671
vt 0.02581942 0.2611868
vt 0.08102006 0.2677718
vt -0.08577809 0.4077082
vt -0.1287046 0.6402524
vt -0.1534882 0.8405354
vt -0.1742705 0.999429
vt -0.03319827 0.4076597
vt 0.02144474 0.408821
vt 0.07829562 0.410415
vt -0.08382055 0.6386807
vt -0.112782 0.8359439
vt -0.1402176 0.9956317
vt -0.1615602 1.133472
vt -0.03570119 0.6390215
vt 0.01246578 0.6417223
vt 0.06276634 0.6458837
vt -0.07588306 0.8338561
vt -0.1055358 0.9929734
vt -0.1302679 1.129425
vt -0.1285717 1.27543
vt -0.04117638 0.8347204
vt -0.004702717 0.8368042
vt 0.03473255 0.8405819
vt -0.07184866 0.9917727
vt -0.1022998 1.126259
vt -0.1072114 1.269358
vt -0.08331469 1.370482
vt -0.03885704 0.9911896
vt -0.006243378 0.9909617
vt 0.0265651 0.9909753
vt -0.07271782 1.125235
vt -0.08538088 1.265661
vt -0.07697794 1.35929
vt -0.06018052 1.367965
vt -0.03824726 1.124894
vt 0.000756681 1.123988
vt 0.0368202 1.125361
vt -0.06367016 1.263917
vt -0.06914487 1.353121
vt -0.04141733 1.264199
vt -0.01872173 1.266736
vt 0.00137794 1.271618
vt -0.06047198 1.351048
vt -0.0518789 1.352723
vt -0.04411018 1.35809
vt -0.03626874 1.369253
vt 0.6927662 1.057806
vt 0.7231891 1.05497
vt 0.7088834 0.9455557
vt 0.6874614 0.9484491
vt 0.6647519 1.058559
vt 0.6829636 0.800166
vt 0.6653883 0.9499573
vt 0.6392473 1.058881
vt 0.6666207 0.8025963
vt 0.6637419 0.6946644
vt 0.6404907 0.9503046
vt 0.6134895 1.058881
vt 0.6504805 0.8043167
vt 0.6537713 0.6961786
vt 0.6312515 0.5165244
vt 0.6129386 0.9507078
vt 0.5880412 1.058847
vt 0.6355548 0.8049799
vt 0.6440833 0.6970919
vt 0.5875162 0.9497832
vt 0.5599374 1.058449
vt 0.5643808 0.9478926
vt 0.6209515 0.8045658
vt 0.6343693 0.6974703
vt 0.6059694 0.8035343
vt 0.5899179 0.8013751
vt 0.624264 0.6973732
vt 0.6145076 0.6967949
vt 0.6047845 0.695693
vt 1.200818 1.143829
vt 1.222403 1.137681
vt 1.193351 1.049539
vt 1.179447 1.052888
vt 1.176439 1.148482
vt 1.173419 0.9518079
vt 1.165719 1.05471
vt 1.155439 1.150471
vt 1.162992 0.9540373
vt 1.136671 0.8387331
vt 1.150312 1.056031
vt 1.132557 1.151076
vt 1.133438 1.056429
vt 1.151892 0.9560921
vt 1.142297 0.9570737
vt 1.132557 0.9573274
vt 0.4635859 -0.3533297
vt 0.4239006 -0.3422973
vt 0.4673283 -0.2012935
vt 0.500164 -0.2085588
vt 0.5033967 -0.3623835
vt 0.4894609 -0.07123089
vt 0.5295883 -0.2139536
vt 0.5467249 -0.3688053
vt 0.5208133 -0.07604975
vt 0.5182645 0.1025765
vt 0.5593367 -0.2170964
vt 0.5892541 -0.3704824
vt 0.5498123 -0.08032525
vt 0.5415769 0.09821233
vt 0.5564827 0.2576672
vt 0.5911852 -0.2195343
vt 0.6288656 -0.3699955
vt 0.5760204 -0.08357567
vt 0.5644037 0.09502652
vt 0.5746422 0.2535239
vt 0.5931221 0.3935224
vt 0.6236706 -0.2195699
vt 0.6706233 -0.3677768
vt 0.6592888 -0.2184227
vt 0.6008954 -0.08567655
vt 0.6269094 -0.08757406
vt 0.6552382 -0.08881545
vt 0.5900931 0.0924212
vt 0.5925368 0.2500112
vt 0.6032131 0.3906704
vt 0.6373196 0.5165246
vt 0.6186913 0.0896911
vt 0.6454076 0.08810923
vt 0.6706233 0.08746931
vt 0.6099538 0.2476675
vt 0.6132144 0.3885757
vt 0.6264809 0.2463925
vt 0.6422054 0.2458179
vt 0.6591728 0.2462559
vt 0.6232456 0.3871461
vt 0.6337732 0.3863868
vt 0.6447436 0.3863581
vt 0.6558503 0.3869445
vt 1.149777 0.08037493
vt 1.185037 0.07573131
vt 1.16864 -0.02043045
vt 1.140982 -0.01760787
vt 1.115654 0.08252236
vt 1.155267 -0.1464354
vt 1.113998 -0.01685846
vt 1.078635 0.07972509
vt 1.134637 -0.1440868
vt 1.11498 -0.3588151
vt 1.090509 -0.01698935
vt 1.044258 0.07373017
vt 1.065018 -0.01970357
vt 1.115879 -0.1431718
vt 1.09557 -0.1434826
vt 1.074534 -0.1453592
vt 1.123981 -0.2510735
vt 1.11503 -0.2459368
vt 1.105708 -0.250501
vt 1.115193 -0.2536311
vt 0.9396899 0.887126
vt 0.9669161 0.8789846
vt 0.9348356 0.7838366
vt 0.91304 0.7889036
vt 0.9119655 0.8933642
vt 0.9046235 0.6140614
vt 0.8929441 0.7925791
vt 0.8828281 0.897296
vt 0.888332 0.6170684
vt 0.8642765 0.442821
vt 0.8734431 0.7955166
vt 0.8549563 0.8988684
vt 0.8716264 0.6194561
vt 0.8543483 0.4452469
vt 0.815627 0.2898758
vt 0.8532101 0.7972516
vt 0.8281816 0.8989687
vt 0.8534467 0.6214977
vt 0.8441206 0.4472757
vt 0.8313575 0.7980033
vt 0.8012331 0.8978265
vt 0.8079599 0.798224
vt 0.8356274 0.6233028
vt 0.8339568 0.4487715
vt 0.8182367 0.6244507
vt 0.8012331 0.6249291
vt 0.8239653 0.4497066
vt 0.8139901 0.4500828
vt 0.8034608 0.4499163
vt 1.058816 0.07043421
vt 1.034579 0.07218814
vt 1.043795 0.1820858
vt 1.062766 0.1795028
vt 1.083339 0.06951895
vt 1.071715 0.2717481
vt 1.085711 0.1778495
vt 1.108988 0.06951892
vt 1.079307 0.2626522
vt 1.086912 0.2687712
vt 1.105506 0.1784261
vt 1.136989 0.07146734
vt 1.125414 0.1809576
vt 1.086178 0.260047
vt 1.094666 0.2613351
vt 1.102008 0.2721729
vt 1.170191 0.8163059
vt 1.209072 0.8037553
vt 1.15612 0.6562459
vt 1.125195 0.6641655
vt 1.131838 0.8262942
vt 1.107004 0.4129531
vt 1.096911 0.6700707
vt 1.090033 0.8340781
vt 1.085493 0.4200632
vt 1.047819 0.3095624
vt 1.069365 0.6740944
vt 1.047962 0.8378773
vt 1.063768 0.425453
vt 1.034434 0.3147803
vt 1.014702 0.2898758
vt 1.041566 0.6770808
vt 1.008308 0.838733
vt 1.037304 0.4298724
vt 1.02598 0.3234943
vt 1.011316 0.6785379
vt 0.9669163 0.8371979
vt 0.9778134 0.678682
vt 1.011274 0.4322248
vt 1.018869 0.3294316
vt 0.9889938 0.432467
vt 0.9669163 0.4312192
vt 1.011753 0.3321264
vt 1.002591 0.3311238
vt 0.9936689 0.3179479
vt 1.093735 1.258869
vt 1.132557 1.259352
vt 1.132557 1.050072
vt 1.103157 1.050299
vt 1.054515 1.259564
vt 1.110961 0.8405324
vt 1.069453 1.04989
vt 1.010401 1.255656
vt 1.096241 0.8556632
vt 1.086175 0.843078
vt 1.038349 1.046025
vt 0.9669161 1.245688
vt 1.007543 1.039109
vt 1.084192 0.8587289
vt 1.072471 0.8558415
vt 1.06132 0.8387327
vt 0.8431194 0.8989688
vt 0.8012333 0.9009103
vt 0.8109437 1.059288
vt 0.8466339 1.055022
vt 0.8837943 0.8991172
vt 0.8587511 1.22902
vt 0.8813876 1.053392
vt 0.9212003 0.8994325
vt 0.870979 1.207754
vt 0.8842927 1.224757
vt 0.9221618 1.055092
vt 0.9582778 0.8996917
vt 0.9582778 1.058451
vt 0.8865058 1.202906
vt 0.8978044 1.207885
vt 0.9116093 1.224529
vt 0.8450674 -0.3408508
vt 0.8061064 -0.3385113
vt 0.8188324 -0.1738238
vt 0.8514704 -0.1777003
vt 0.8828111 -0.3422161
vt 0.8549591 -0.01846802
vt 0.88587 -0.1799323
vt 0.9206662 -0.3425177
vt 0.8768113 -0.02183419
vt 0.8792578 0.1505785
vt 0.921988 -0.1806678
vt 0.9599078 -0.3416403
vt 0.8985599 -0.02372378
vt 0.8917404 0.1486185
vt 0.9164486 0.3160926
vt 0.954486 -0.179338
vt 1.001899 -0.3382964
vt 0.9189494 -0.02442682
vt 0.9040865 0.1475502
vt 0.9839541 -0.1761517
vt 1.041925 -0.3323411
vt 1.013723 -0.1713506
vt 0.938518 -0.02390021
vt 0.9170629 0.1472574
vt 0.9594976 -0.02181393
vt 0.9806951 -0.0186404
vt 0.930313 0.1479018
vt 0.9435381 0.1492002
vt 0.9571564 0.1513425
vt 0.4612985 0.5167447
vt 0.4239005 0.5165246
vt 0.428481 0.6731268
vt 0.4550795 0.6736619
vt 0.4987119 0.5203713
vt 0.4239005 0.8688053
vt 0.4790598 0.6752054
vt 0.5293845 0.524596
vt 0.4420137 0.869279
vt 0.4341154 1.12039
vt 0.5052133 0.6789253
vt 0.5599374 0.5298148
vt 0.5328305 0.6825284
vt 0.4619723 0.8711257
vt 0.4795999 0.87335
vt 0.4972064 0.8766022
vt 0.3867915 0.5455452
vt 0.4171721 0.5470681
vt 0.4233755 0.4434165
vt 0.3908398 0.4426086
vt 0.3567356 0.5449578
vt 0.4239004 0.2414165
vt 0.3568479 0.4416947
vt 0.3268068 0.5451508
vt 0.3933231 0.2418044
vt 0.4181676 0.09026808
vt 0.3239936 0.4416556
vt 0.2960238 0.5461567
vt 0.3605233 0.2420782
vt 0.3885915 0.09086952
vt 0.4145004 -0.1017784
vt 0.2929093 0.4417911
vt 0.2638499 0.5469984
vt 0.3276295 0.2415299
vt 0.3603001 0.09094122
vt 0.3860008 -0.1014316
vt 0.4089009 -0.227951
vt 0.2633214 0.4417085
vt 0.2323481 0.5470681
vt 0.2323076 0.4421957
vt 0.2926265 0.2412508
vt 0.2576042 0.2415568
vt 0.2261759 0.2421499
vt 0.3295995 0.09086379
vt 0.3567714 -0.1006834
vt 0.3832945 -0.2250063
vt 0.3755191 -0.3686844
vt 0.2960939 0.08997929
vt 0.2626671 0.08769017
vt 0.2312393 0.08559638
vt 0.3304054 -0.1005887
vt 0.3571653 -0.2232848
vt 0.3598913 -0.3511602
vt 0.3362533 -0.3704824
vt 0.3045559 -0.1017319
vt 0.27866 -0.1031151
vt 0.2521714 -0.1056704
vt 0.3325998 -0.222981
vt 0.3466133 -0.3446044
vt 0.3097487 -0.2238975
vt 0.2865447 -0.2257933
vt 0.2621787 -0.2292942
vt 0.3347308 -0.3427289
vt 0.3238764 -0.3438813
vt 0.3103791 -0.3510326
vt 0.2979667 -0.3649968
vt 1.199584 -0.06594002
vt 1.173845 -0.06528836
vt 1.178856 0.07666281
vt 1.198534 0.07556891
vt 1.225531 -0.06578702
vt 1.201531 0.2143743
vt 1.221426 0.07553151
vt 1.25298 -0.06477308
vt 1.21029 0.2033644
vt 1.218459 0.2114428
vt 1.242861 0.07694662
vt 1.282595 -0.06186461
vt 1.26446 0.07990742
vt 1.218715 0.2008195
vt 1.227183 0.2031932
vt 1.235251 0.2143743
vt 0.3781521 0.5470681
vt 0.3395378 0.5481091
vt 0.3550083 0.6719717
vt 0.3689161 0.6703227
vt 0.4160571 0.5536885
vt 0.3838928 0.7929889
vt 0.3831564 0.6703693
vt 0.3923954 0.7936381
vt 0.3395378 0.9189347
vt 0.4010679 0.7948198
vt 0.7610476 0.5165244
vt 0.7231891 0.5226319
vt 0.7543838 0.6393542
vt 0.7685409 0.6394075
vt 0.797341 0.5175446
vt 0.7347962 0.7669204
vt 0.7826979 0.6410699
vt 0.7434416 0.7658032
vt 0.797341 0.8907106
vt 0.7521279 0.7650988
vt 1.202419 -0.3702691
vt 1.173844 -0.3704821
vt 1.179879 -0.251796
vt 1.194751 -0.2514106
vt 1.234529 -0.3659582
vt 1.173844 -0.06593996
vt 1.209635 -0.2489814
vt 1.259813 -0.3592762
vt 1.22391 -0.2451761
vt 1.239382 -0.2397219
vt 1.286718 -0.3492878
vt 0.7825785 0.493322
vt 0.8149446 0.4916243
vt 0.8053681 0.3412732
vt 0.7764932 0.3430856
vt 0.7501773 0.4942772
vt 0.7893974 0.1730233
vt 0.7468716 0.344288
vt 0.7175068 0.4944548
vt 0.766203 0.1745335
vt 0.7813269 0.02521324
vt 0.718623 0.3442836
vt 0.6841512 0.4936361
vt 0.6903355 0.3435397
vt 0.7442591 0.1752679
vt 0.7629316 0.02586788
vt 0.7758195 -0.1169876
vt 0.7219957 0.175379
vt 0.6980358 0.1748625
vt 0.7437723 0.02585405
vt 0.7594974 -0.1158365
vt 0.7533 -0.2119247
vt 0.7240463 0.02571794
vt 0.7028087 0.02511361
vt 0.740481 -0.113966
vt 0.7442274 -0.2103434
vt 0.7246987 -0.359424
vt 0.7249101 -0.1137515
vt 0.7090797 -0.114002
vt 0.735164 -0.2093469
vt 0.7259885 -0.2089304
vt 0.7146761 -0.209138
vt 0.7417042 0.8913611
vt 0.7231891 0.8907106
vt 0.7231891 1.009187
vt 0.732744 1.009357
vt 0.7612998 0.893754
vt 0.7269433 1.136697
vt 0.7425714 1.010283
vt 0.7759268 0.8963667
vt 0.752316 1.012273
vt 0.7627236 1.01449
vt 0.7904193 0.8996429
vt 0.2534291 0.5474415
vt 0.226176 0.5470681
vt 0.2275259 0.7054525
vt 0.2506534 0.7060062
vt 0.2804724 0.5488251
vt 0.226176 0.9069126
vt 0.2708855 0.7068378
vt 0.3102581 0.5516608
vt 0.2403831 0.906749
vt 0.2418398 1.063989
vt 0.2902927 0.7088105
vt 0.3395378 0.5561718
vt 0.3111947 0.7116939
vt 0.2539726 0.9077805
vt 0.2698025 0.9091753
vt 0.2833147 0.9112693
vt 0.3587151 0.9274452
vt 0.3395378 0.9338335
vt 0.3766497 1.030688
vt 0.387391 1.026986
vt 0.3780196 0.9227661
vt 0.4187709 1.135536
vt 0.3976968 1.024507
vt 0.3990962 0.9198623
vt 0.4082748 1.022926
vt 0.4192654 1.022539
vt 0.4192655 0.9189348
usemtl M_KnotwoodBark
f 1/1/1 3/3/3 2/2/2
f 1/1/1 4/4/4 3/3/3
f 5/5/5 4/4/4 1/1/1
f 4/4/4 6/6/6 3/3/3
f 5/5/5 7/7/7 4/4/4
f 8/8/8 7/7/7 5/5/5
f 4/4/4 9/9/9 6/6/6
f 7/7/7 9/9/9 4/4/4
f 9/9/9 10/10/10 6/6/6
f 8/8/8 11/11/11 7/7/7
f 12/12/12 11/11/11 8/8/8
f 7/7/7 13/13/13 9/9/9
f 11/11/11 13/13/13 7/7/7
f 9/9/9 14/14/14 10/10/10
f 13/13/13 14/14/14 9/9/9
f 14/14/14 15/15/15 10/10/10
f 12/12/12 16/16/16 11/11/11
f 17/17/17 16/16/16 12/12/12
f 11/11/11 18/18/18 13/13/13
f 16/16/16 18/18/18 11/11/11
f 13/13/13 19/19/19 14/14/14
f 18/18/18 19/19/19 13/13/13
f 14/14/14 20/20/20 15/15/15
f 19/19/19 20/20/20 14/14/14
f 20/20/20 21/21/21 15/15/15
f 17/17/17 22/22/22 16/16/16
f 23/23/23 22/22/22 17/17/17
f 23/23/23 24/24/24 22/22/22
f 16/16/16 25/25/25 18/18/18
f 22/22/22 25/25/25 16/16/16
f 24/24/24 26/26/26 22/22/22
f 22/22/22 26/26/26 25/25/25
f 24/24/24 27/27/27 26/26/26
f 18/18/18 28/28/28 19/19/19
f 25/25/25 28/28/28 18/18/18
f 19/19/19 29/29/29 20/20/20
f 28/28/28 29/29/29 19/19/19
f 20/20/20 30/30/30 21/21/21
f 29/29/29 30/30/30 20/20/20
f 30/30/30 31/31/31 21/21/21
f 26/26/26 32/32/32 25/25/25
f 25/25/25 32/32/32 28/28/28
f 27/27/27 33/33/33 26/26/26
f 26/26/26 33/33/33 32/32/32
f 27/27/27 34/34/34 33/33/33
f 28/28/28 35/35/35 29/29/29
f 32/32/32 35/35/35 28/28/28
f 29/29/29 36/36/36 30/30/30
f 35/35/35 36/36/36 29/29/29
f 30/30/30 37/37/37 31/31/31
f 36/36/36 37/37/37 30/30/30
f 37/37/37 38/38/38 31/31/31
f 33/33/33 39/39/39 32/32/32
f 32/32/32 39/39/39 35/35/35
f 34/34/34 40/40/40 33/33/33
f 33/33/33 40/40/40 39/39/39
f 34/34/34 41/41/41 40/40/40
f 35/35/35 42/42/42 36/36/36
f 39/39/39 42/42/42 35/35/35
f 36/36/36 43/43/43 37/37/37
f 42/42/42 43/43/43 36/36/36
f 37/37/37 44/44/44 38/38/38
f 43/43/43 44/44/44 37/37/37
f 44/44/44 45/45/45 38/38/38
f 40/40/40 46/46/46 39/39/39
f 39/39/39 46/46/46 42/42/42
f 41/41/41 47/47/47 40/40/40
f 40/40/40 47/47/47 46/46/46
f 41/41/41 48/48/48 47/47/47
f 42/42/42 49/49/49 43/43/43
f 46/46/46 49/49/49 42/42/42
f 43/43/43 50/50/50 44/44/44
f 49/49/49 50/50/50 43/43/43
f 44/44/44 51/51/51 45/45/45
f 50/50/50 51/51/51 44/44/44
f 51/51/51 52/52/52 45/45/45
f 47/47/47 53/53/53 46/46/46
f 46/46/46 53/53/53 49/49/49
f 48/48/48 54/54/54 47/47/47
f 47/47/47 54/54/54 53/53/53
f 48/48/48 55/55/55 54/54/54
f 49/49/49 56/56/56 50/50/50
f 53/53/53 56/56/56 49/49/49
f 50/50/50 57/57/57 51/51/51
f 56/56/56 57/57/57 50/50/50
f 51/51/51 58/58/58 52/52/52
f 57/57/57 58/58/58 51/51/51
f 58/58/58 59/59/59 52/52/52
f 54/54/54 60/60/60 53/53/53
f 53/53/53 60/60/60 56/56/56
f 55/55/55 61/61/61 54/54/54
f 54/54/54 61/61/61 60/60/60
f 55/55/55 62/62/62 61/61/61
f 56/56/56 63/63/63 57/57/57
f 60/60/60 63/63/63 56/56/56
f 57/57/57 64/64/64 58/58/58
f 63/63/63 64/64/64 57/57/57
f 58/58/58 65/65/65 59/59/59
f 64/64/64 65/65/65 58/58/58
f 65/65/65 66/66/66 59/59/59
f 61/61/61 67/67/67 60/60/60
f 60/60/60 67/67/67 63/63/63
f 62/62/62 68/68/68 61/61/61
f 61/61/61 68/68/68 67/67/67
f 62/62/62 69/69/69 68/68/68
f 63/63/63 70/70/70 64/64/64
f 67/67/67 70/70/70 63/63/63
f 64/64/64 71/71/71 65/65/65
f 70/70/70 71/71/71 64/64/64
f 65/65/65 72/72/72 66/66/66
f 71/71/71 72/72/72 65/65/65
f 72/72/72 73/73/73 66/66/66
f 68/68/68 74/74/74 67/67/67
f 67/67/67 74/74/74 70/70/70
f 69/69/69 75/75/75 68/68/68
f 68/68/68 75/75/75 74/74/74
f 69/69/69 76/76/76 75/75/75
f 70/70/70 77/77/77 71/71/71
f 74/74/74 77/77/77 70/70/70
f 71/71/71 78/78/78 72/72/72
f 77/77/77 78/78/78 71/71/71
f 72/72/72 79/79/79 73/73/73
f 78/78/78 79/79/79 72/72/72
f 79/79/79 80/80/80 73/73/73
f 75/75/75 81/81/81 74/74/74
f 74/74/74 81/81/81 77/77/77
f 76/76/76 82/82/82 75/75/75
f 75/75/75 82/82/82 81/81/81
f 76/76/76 83/83/83 82/82/82
f 77/77/77 84/84/84 78/78/78
f 81/81/81 84/84/84 77/77/77
f 78/78/78 85/85/85 79/79/79
f 85/85/85 80/80/80 79/79/79
f 84/84/84 85/85/85 78/78/78
f 82/82/82 86/86/86 81/81/81
f 81/81/81 86/86/86 84/84/84
f 83/83/83 87/87/87 82/82/82
f 82/82/82 87/87/87 86/86/86
f 83/83/83 88/88/88 87/87/87
f 84/84/84 89/89/89 85/85/85
f 86/86/86 89/89/89 84/84/84
f 89/89/89 80/80/80 85/85/85
f 86/86/86 90/90/90 89/89/89
f 87/87/87 90/90/90 86/86/86
f 90/90/90 80/80/80 89/89/89
f 88/88/88 91/91/91 87/87/87
f 87/87/87 91/91/91 90/90/90
f 91/91/91 80/80/80 90/90/90
f 88/88/88 92/92/92 91/91/91
f 92/92/92 80/80/80 91/91/91
f 93/93/93 95/95/95 94/94/94
f 93/93/93 96/96/96 95/95/95
f 97/97/97 96/96/96 93/93/93
f 96/96/96 98/98/98 95/95/95
f 97/97/97 99/99/99 96/96/96
f 100/100/100 99/99/99 97/97/97
f 96/96/96 101/101/101 98/98/98
f 99/99/99 101/101/101 96/96/96
f 101/101/101 102/102/102 98/98/98
f 100/100/100 103/103/103 99/99/99
f 104/104/104 103/103/103 100/100/100
f 99/99/99 105/105/105 101/101/101
f 103/103/103 105/105/105 99/99/99
f 101/101/101 106/106/106 102/102/102
f 105/105/105 106/106/106 101/101/101
f 106/106/106 107/107/107 102/102/102
f 104/104/104 108/108/108 103/103/103
f 109/109/109 108/108/108 104/104/104
f 103/103/103 110/110/110 105/105/105
f 108/108/108 110/110/110 103/103/103
f 105/105/105 111/111/111 106/106/106
f 111/111/111 107/107/107 106/106/106
f 110/110/110 111/111/111 105/105/105
f 109/109/109 112/112/112 108/108/108
f 113/113/113 112/112/112 109/109/109
f 113/113/113 114/114/114 112/112/112
f 108/108/108 115/115/115 110/110/110
f 112/112/112 115/115/115 108/108/108
f 110/110/110 116/116/116 111/111/111
f 116/116/116 107/107/107 111/111/111
f 115/115/115 116/116/116 110/110/110
f 114/114/114 117/117/117 112/112/112
f 112/112/112 117/117/117 115/115/115
f 114/114/114 118/118/118 117/117/117
f 115/115/115 119/119/119 116/116/116
f 119/119/119 107/107/107 116/116/116
f 117/117/117 119/119/119 115/115/115
f 118/118/118 120/120/120 117/117/117
f 117/117/117 120/120/120 119/119/119
f 120/120/120 107/107/107 119/119/119
f 118/118/118 121/121/121 120/120/120
f 121/121/121 107/107/107 120/120/120
f 122/122/122 124/124/124 123/123/123
f 122/122/122 125/125/125 124/124/124
f 126/126/126 125/125/125 122/122/122
f 125/125/125 127/127/127 124/124/124
f 126/126/126 128/128/128 125/125/125
f 129/129/129 128/128/128 126/126/126
f 125/125/125 130/130/130 127/127/127
f 128/128/128 130/130/130 125/125/125
f 130/130/130 131/131/131 127/127/127
f 129/129/129 132/132/132 128/128/128
f 133/133/133 132/132/132 129/129/129
f 133/133/133 134/134/134 132/132/132
f 128/128/128 135/135/135 130/130/130
f 135/135/135 131/131/131 130/130/130
f 132/132/132 135/135/135 128/128/128
f 134/134/134 136/136/136 132/132/132
f 132/132/132 136/136/136 135/135/135
f 136/136/136 131/131/131 135/135/135
f 134/134/134 137/137/137 136/136/136
f 137/137/137 131/131/131 136/136/136
f 138/138/138 140/140/140 139/139/139
f 138/138/138 141/141/141 140/140/140
f 142/142/142 141/141/141 138/138/138
f 141/141/141 143/143/143 140/140/140
f 142/142/142 144/144/144 141/141/141
f 145/145/145 144/144/144 142/142/142
f 141/141/141 146/146/146 143/143/143
f 144/144/144 146/146/146 141/141/141
f 146/146/146 147/147/147 143/143/143
f 145/145/145 148/148/148 144/144/144
f 149/149/149 148/148/148 145/145/145
f 144/144/144 150/150/150 146/146/146
f 148/148/148 150/150/150 144/144/144
f 146/146/146 151/151/151 147/147/147
f 150/150/150 151/151/151 146/146/146
f 151/151/151 152/152/152 147/147/147
f 149/149/149 153/153/153 148/148/148
f 154/154/154 153/153/153 149/149/149
f 148/148/148 155/155/155 150/150/150
f 153/153/153 155/155/155 148/148/148
f 150/150/150 156/156/156 151/151/151
f 155/155/155 156/156/156 150/150/150
f 151/151/151 157/157/157 152/152/152
f 156/156/156 157/157/157 151/151/151
f 157/157/157 158/158/158 152/152/152
f 154/154/154 159/159/159 153/153/153
f 160/160/160 159/159/159 154/154/154
f 160/160/160 161/161/161 159/159/159
f 153/153/153 162/162/162 155/155/155
f 159/159/159 162/162/162 153/153/153
f 161/161/161 163/163/163 159/159/159
f 159/159/159 163/163/163 162/162/162
f 161/161/161 164/164/164 163/163/163
f 155/155/155 165/165/165 156/156/156
f 162/162/162 165/165/165 155/155/155
f 156/156/156 166/166/166 157/157/157
f 165/165/165 166/166/166 156/156/156
f 157/157/157 167/167/167 158/158/158
f 166/166/166 167/167/167 157/157/157
f 167/167/167 168/168/168 158/158/158
f 163/163/163 169/169/169 162/162/162
f 162/162/162 169/169/169 165/165/165
f 164/164/164 170/170/170 163/163/163
f 163/163/163 170/170/170 169/169/169
f 164/164/164 171/171/171 170/170/170
f 165/165/165 172/172/172 166/166/166
f 169/169/169 172/172/172 165/165/165
f 166/166/166 173/173/173 167/167/167
f 173/173/173 168/168/168 167/167/167
f 172/172/172 173/173/173 166/166/166
f 170/170/170 174/174/174 169/169/169
f 169/169/169 174/174/174 172/172/172
f 171/171/171 175/175/175 170/170/170
f 170/170/170 175/175/175 174/174/174
f 171/171/171 176/176/176 175/175/175
f 172/172/172 177/177/177 173/173/173
f 174/174/174 177/177/177 172/172/172
f 177/177/177 168/168/168 173/173/173
f 174/174/174 178/178/178 177/177/177
f 175/175/175 178/178/178 174/174/174
f 178/178/178 168/168/168 177/177/177
f 176/176/176 179/179/179 175/175/175
f 175/175/175 179/179/179 178/178/178
f 179/179/179 168/168/168 178/178/178
f 176/176/176 180/180/180 179/179/179
f 180/180/180 168/168/168 179/179/179
f 181/181/181 183/183/183 182/182/182
f 181/181/181 184/184/184 183/183/183
f 185/185/185 184/184/184 181/181/181
f 184/184/184 186/186/186 183/183/183
f 185/185/185 187/187/187 184/184/184
f 188/188/188 187/187/187 185/185/185
f 184/184/184 189/189/189 186/186/186
f 187/187/187 189/189/189 184/184/184
f 189/189/189 190/190/190 186/186/186
f 188/188/188 191/191/191 187/187/187
f 192/192/192 191/191/191 188/188/188
f 192/192/192 193/193/193 191/191/191
f 187/187/187 194/194/194 189/189/189
f 191/191/191 194/194/194 187/187/187
f 193/193/193 195/195/195 191/191/191
f 191/191/191 195/195/195 194/194/194
f 193/193/193 196/196/196 195/195/195
f 194/194/194 197/197/197 189/189/189
f 189/189/189 197/197/197 190/190/190
f 195/195/195 198/198/198 194/194/194
f 194/194/194 198/198/198 197/197/197
f 196/196/196 199/199/199 195/195/195
f 196/196/196 190/190/190 199/199/199
f 195/195/195 199/199/199 198/198/198
f 197/197/197 200/200/200 190/190/190
f 198/198/198 200/200/200 197/197/197
f 190/190/190 200/200/200 199/199/199
f 199/199/199 200/200/200 198/198/198
f 201/201/201 203/203/203 202/202/202
f 201/201/201 204/204/204 203/203/203
f 205/205/205 204/204/204 201/201/201
f 204/204/204 206/206/206 203/203/203
f 205/205/205 207/207/207 204/204/204
f 208/208/208 207/207/207 205/205/205
f 204/204/204 209/209/209 206/206/206
f 207/207/207 209/209/209 204/204/204
f 209/209/209 210/210/210 206/206/206
f 208/208/208 211/211/211 207/207/207
f 212/212/212 211/211/211 208/208/208
f 207/207/207 213/213/213 209/209/209
f 211/211/211 213/213/213 207/207/207
f 209/209/209 214/214/214 210/210/210
f 213/213/213 214/214/214 209/209/209
f 214/214/214 215/215/215 210/210/210
f 212/212/212 216/216/216 211/211/211
f 217/217/217 216/216/216 212/212/212
f 211/211/211 218/218/218 213/213/213
f 216/216/216 218/218/218 211/211/211
f 213/213/213 219/219/219 214/214/214
f 219/219/219 215/215/215 214/214/214
f 218/218/218 219/219/219 213/213/213
f 217/217/217 220/220/220 216/216/216
f 221/221/221 220/220/220 217/217/217
f 221/221/221 222/222/222 220/220/220
f 216/216/216 223/223/223 218/218/218
f 220/220/220 223/223/223 216/216/216
f 218/218/218 224/224/224 219/219/219
f 224/224/224 215/215/215 219/219/219
f 223/223/223 224/224/224 218/218/218
f 222/222/222 225/225/225 220/220/220
f 220/220/220 225/225/225 223/223/223
f 222/222/222 226/226/226 225/225/225
f 223/223/223 227/227/227 224/224/224
f 227/227/227 215/215/215 224/224/224
f 225/225/225 227/227/227 223/223/223
f 226/226/226 228/228/228 225/225/225
f 225/225/225 228/228/228 227/227/227
f 228/228/228 215/215/215 227/227/227
f 226/226/226 229/229/229 228/228/228
f 229/229/229 215/215/215 228/228/228
f 230/230/230 232/232/232 231/231/231
f 230/230/230 233/233/233 232/232/232
f 234/234/234 233/233/233 230/230/230
f 233/233/233 235/235/235 232/232/232
f 234/234/234 236/236/236 233/233/233
f 237/237/237 236/236/236 234/234/234
f 233/233/233 238/238/238 235/235/235
f 236/236/236 238/238/238 233/233/233
f 238/238/238 239/239/239 235/235/235
f 237/237/237 240/240/240 236/236/236
f 241/241/241 240/240/240 237/237/237
f 241/241/241 242/242/242 240/240/240
f 236/236/236 243/243/243 238/238/238
f 243/243/243 239/239/239 238/238/238
f 240/240/240 243/243/243 236/236/236
f 242/242/242 244/244/244 240/240/240
f 240/240/240 244/244/244 243/243/243
f 244/244/244 239/239/239 243/243/243
f 242/242/242 245/245/245 244/244/244
f 245/245/245 239/239/239 244/244/244
f 246/246/246 248/248/248 247/247/247
f 246/246/246 249/249/249 248/248/248
f 250/250/250 249/249/249 246/246/246
f 249/249/249 251/251/251 248/248/248
f 250/250/250 252/252/252 249/249/249
f 253/253/253 252/252/252 250/250/250
f 249/249/249 254/254/254 251/251/251
f 252/252/252 254/254/254 249/249/249
f 254/254/254 255/255/255 251/251/251
f 253/253/253 256/256/256 252/252/252
f 257/257/257 256/256/256 253/253/253
f 252/252/252 258/258/258 254/254/254
f 256/256/256 258/258/258 252/252/252
f 254/254/254 259/259/259 255/255/255
f 258/258/258 259/259/259 254/254/254
f 259/259/259 260/260/260 255/255/255
f 257/257/257 261/261/261 256/256/256
f 262/262/262 261/261/261 257/257/257
f 256/256/256 263/263/263 258/258/258
f 261/261/261 263/263/263 256/256/256
f 258/258/258 264/264/264 259/259/259
f 264/264/264 260/260/260 259/259/259
f 263/263/263 264/264/264 258/258/258
f 262/262/262 265/265/265 261/261/261
f 266/266/266 265/265/265 262/262/262
f 266/266/266 267/267/267 265/265/265
f 261/261/261 268/268/268 263/263/263
f 265/265/265 268/268/268 261/261/261
f 263/263/263 269/269/269 264/264/264
f 269/269/269 260/260/260 264/264/264
f 268/268/268 269/269/269 263/263/263
f 267/267/267 270/270/270 265/265/265
f 265/265/265 270/270/270 268/268/268
f 267/267/267 271/271/271 270/270/270
f 268/268/268 272/272/272 269/269/269
f 272/272/272 260/260/260 269/269/269
f 270/270/270 272/272/272 268/268/268
f 271/271/271 273/273/273 270/270/270
f 270/270/270 273/273/273 272/272/272
f 273/273/273 260/260/260 272/272/272
f 271/271/271 274/274/274 273/273/273
f 274/274/274 260/260/260 273/273/273
f 275/275/275 277/277/277 276/276/276
f 275/275/275 278/278/278 277/277/277
f 279/279/279 278/278/278 275/275/275
f 278/278/278 280/280/280 277/277/277
f 279/279/279 281/281/281 278/278/278
f 282/282/282 281/281/281 279/279/279
f 278/278/278 283/283/283 280/280/280
f 281/281/281 283/283/283 278/278/278
f 283/283/283 284/284/284 280/280/280
f 282/282/282 285/285/285 281/281/281
f 286/286/286 285/285/285 282/282/282
f 286/286/286 287/287/287 285/285/285
f 281/281/281 288/288/288 283/283/283
f 288/288/288 284/284/284 283/283/283
f 285/285/285 288/288/288 281/281/281
f 287/287/287 289/289/289 285/285/285
f 285/285/285 289/289/289 288/288/288
f 289/289/289 284/284/284 288/288/288
f 287/287/287 290/290/290 289/289/289
f 290/290/290 284/284/284 289/289/289
f 291/291/291 293/293/293 292/292/292
f 291/291/291 294/294/294 293/293/293
f 295/295/295 294/294/294 291/291/291
f 294/294/294 296/296/296 293/293/293
f 295/295/295 297/297/297 294/294/294
f 298/298/298 297/297/297 295/295/295
f 294/294/294 299/299/299 296/296/296
f 297/297/297 299/299/299 294/294/294
f 299/299/299 300/300/300 296/296/296
f 298/298/298 301/301/301 297/297/297
f 302/302/302 301/301/301 298/298/298
f 302/302/302 303/303/303 301/301/301
f 297/297/297 304/304/304 299/299/299
f 304/304/304 300/300/300 299/299/299
f 301/301/301 304/304/304 297/297/297
f 303/303/303 305/305/305 301/301/301
f 301/301/301 305/305/305 304/304/304
f 305/305/305 300/300/300 304/304/304
f 303/303/303 306/306/306 305/305/305
f 306/306/306 300/300/300 305/305/305
f 307/307/307 309/309/309 308/308/308
f 307/307/307 310/310/310 309/309/309
f 311/311/311 310/310/310 307/307/307
f 310/310/310 312/312/312 309/309/309
f 311/311/311 313/313/313 310/310/310
f 314/314/314 313/313/313 311/311/311
f 310/310/310 315/315/315 312/312/312
f 313/313/313 315/315/315 310/310/310
f 315/315/315 316/316/316 312/312/312
f 314/314/314 317/317/317 313/313/313
f 318/318/318 317/317/317 314/314/314
f 313/313/313 319/319/319 315/315/315
f 317/317/317 319/319/319 313/313/313
f 315/315/315 320/320/320 316/316/316
f 319/319/319 320/320/320 315/315/315
f 320/320/320 321/321/321 316/316/316
f 318/318/318 322/322/322 317/317/317
f 323/323/323 322/322/322 318/318/318
f 317/317/317 324/324/324 319/319/319
f 322/322/322 324/324/324 317/317/317
f 319/319/319 325/325/325 320/320/320
f 325/325/325 321/321/321 320/320/320
f 324/324/324 325/325/325 319/319/319
f 323/323/323 326/326/326 322/322/322
f 327/327/327 326/326/326 323/323/323
f 327/327/327 328/328/328 326/326/326
f 322/322/322 329/329/329 324/324/324
f 326/326/326 329/329/329 322/322/322
f 324/324/324 330/330/330 325/325/325
f 330/330/330 321/321/321 325/325/325
f 329/329/329 330/330/330 324/324/324
f 328/328/328 331/331/331 326/326/326
f 326/326/326 331/331/331 329/329/329
f 328/328/328 332/332/332 331/331/331
f 329/329/329 333/333/333 330/330/330
f 333/333/333 321/321/321 330/330/330
f 331/331/331 333/333/333 329/329/329
f 332/332/332 334/334/334 331/331/331
f 331/331/331 334/334/334 333/333/333
f 334/334/334 321/321/321 333/333/333
f 332/332/332 335/335/335 334/334/334
f 335/335/335 321/321/321 334/334/334
f 336/336/336 338/338/338 337/337/337
f 336/336/336 339/339/339 338/338/338
f 340/340/340 339/339/339 336/336/336
f 339/339/339 341/341/341 338/338/338
f 340/340/340 342/342/342 339/339/339
f 343/343/343 342/342/342 340/340/340
f 339/339/339 344/344/344 341/341/341
f 342/342/342 344/344/344 339/339/339
f 344/344/344 345/345/345 341/341/341
f 343/343/343 346/346/346 342/342/342
f 347/347/347 346/346/346 343/343/343
f 347/347/347 348/348/348 346/346/346
f 342/342/342 349/349/349 344/344/344
f 349/349/349 345/345/345 344/344/344
f 346/346/346 349/349/349 342/342/342
f 348/348/348 350/350/350 346/346/346
f 346/346/346 350/350/350 349/349/349
f 350/350/350 345/345/345 349/349/349
f 348/348/348 351/351/351 350/350/350
f 351/351/351 345/345/345 350/350/350
f 352/352/352 354/354/354 353/353/353
f 352/352/352 355/355/355 354/354/354
f 356/356/356 355/355/355 352/352/352
f 355/355/355 357/357/357 354/354/354
f 356/356/356 358/358/358 355/355/355
f 359/359/359 358/358/358 356/356/356
f 355/355/355 360/360/360 357/357/357
f 358/358/358 360/360/360 355/355/355
f 360/360/360 361/361/361 357/357/357
f 359/359/359 362/362/362 358/358/358
f 363/363/363 362/362/362 359/359/359
f 358/358/358 364/364/364 360/360/360
f 362/362/362 364/364/364 358/358/358
f 360/360/360 365/365/365 361/361/361
f 364/364/364 365/365/365 360/360/360
f 365/365/365 366/366/366 361/361/361
f 363/363/363 367/367/367 362/362/362
f 368/368/368 367/367/367 363/363/363
f 362/362/362 369/369/369 364/364/364
f 367/367/367 369/369/369 362/362/362
f 364/364/364 370/370/370 365/365/365
f 369/369/369 370/370/370 364/364/364
f 365/365/365 371/371/371 366/366/366
f 370/370/370 371/371/371 365/365/365
f 371/371/371 372/372/372 366/366/366
f 368/368/368 373/373/373 367/367/367
f 374/374/374 373/373/373 368/368/368
f 374/374/374 375/375/375 373/373/373
f 367/367/367 376/376/376 369/369/369
f 373/373/373 376/376/376 367/367/367
f 375/375/375 377/377/377 373/373/373
f 373/373/373 377/377/377 376/376/376
f 375/375/375 378/378/378 377/377/377
f 369/369/369 379/379/379 370/370/370
f 376/376/376 379/379/379 369/369/369
f 370/370/370 380/380/380 371/371/371
f 379/379/379 380/380/380 370/370/370
f 371/371/371 381/381/381 372/372/372
f 380/380/380 381/381/381 371/371/371
f 381/381/381 382/382/382 372/372/372
f 377/377/377 383/383/383 376/376/376
f 376/376/376 383/383/383 379/379/379
f 378/378/378 384/384/384 377/377/377
f 377/377/377 384/384/384 383/383/383
f 378/378/378 385/385/385 384/384/384
f 379/379/379 386/386/386 380/380/380
f 383/383/383 386/386/386 379/379/379
f 380/380/380 387/387/387 381/381/381
f 386/386/386 387/387/387 380/380/380
f 381/381/381 388/388/388 382/382/382
f 387/387/387 388/388/388 381/381/381
f 388/388/388 389/389/389 382/382/382
f 384/384/384 390/390/390 383/383/383
f 383/383/383 390/390/390 386/386/386
f 385/385/385 391/391/391 384/384/384
f 384/384/384 391/391/391 390/390/390
f 385/385/385 392/392/392 391/391/391
f 386/386/386 393/393/393 387/387/387
f 390/390/390 393/393/393 386/386/386
f 387/387/387 394/394/394 388/388/388
f 394/394/394 389/389/389 388/388/388
f 393/393/393 394/394/394 387/387/387
f 391/391/391 395/395/395 390/390/390
f 390/390/390 395/395/395 393/393/393
f 392/392/392 396/396/396 391/391/391
f 391/391/391 396/396/396 395/395/395
f 392/392/392 397/397/397 396/396/396
f 393/393/393 398/398/398 394/394/394
f 395/395/395 398/398/398 393/393/393
f 398/398/398 389/389/389 394/394/394
f 395/395/395 399/399/399 398/398/398
f 396/396/396 399/399/399 395/395/395
f 399/399/399 389/389/389 398/398/398
f 397/397/397 400/400/400 396/396/396
f 396/396/396 400/400/400 399/399/399
f 400/400/400 389/389/389 399/399/399
f 397/397/397 401/401/401 400/400/400
f 401/401/401 389/389/389 400/400/400
f 402/402/402 404/404/404 403/403/403
f 402/402/402 405/405/405 404/404/404
f 406/406/406 405/405/405 402/402/402
f 405/405/405 407/407/407 404/404/404
f 406/406/406 408/408/408 405/405/405
f 409/409/409 408/408/408 406/406/406
f 405/405/405 410/410/410 407/407/407
f 408/408/408 410/410/410 405/405/405
f 410/410/410 411/411/411 407/407/407
f 409/409/409 412/412/412 408/408/408
f 413/413/413 412/412/412 409/409/409
f 413/413/413 414/414/414 412/412/412
f 408/408/408 415/415/415 410/410/410
f 415/415/415 411/411/411 410/410/410
f 412/412/412 415/415/415 408/408/408
f 414/414/414 416/416/416 412/412/412
f 412/412/412 416/416/416 415/415/415
f 416/416/416 411/411/411 415/415/415
f 414/414/414 417/417/417 416/416/416
f 417/417/417 411/411/411 416/416/416
f 418/418/418 420/420/420 419/419/419
f 418/418/418 421/421/421 420/420/420
f 422/422/422 421/421/421 418/418/418
f 421/421/421 423/423/423 420/420/420
f 422/422/422 424/424/424 421/421/421
f 421/421/421 425/425/425 423/423/423
f 424/424/424 425/425/425 421/421/421
f 425/425/425 426/426/426 423/423/423
f 424/424/424 427/427/427 425/425/425
f 427/427/427 426/426/426 425/425/425
f 428/428/428 430/430/430 429/429/429
f 428/428/428 431/431/431 430/430/430
f 432/432/432 431/431/431 428/428/428
f 431/431/431 433/433/433 430/430/430
f 432/432/432 434/434/434 431/431/431
f 431/431/431 435/435/435 433/433/433
f 434/434/434 435/435/435 431/431/431
f 435/435/435 436/436/436 433/433/433
f 434/434/434 437/437/437 435/435/435
f 437/437/437 436/436/436 435/435/435
f 438/438/438 440/440/440 439/439/439
f 438/438/438 441/441/441 440/440/440
f 442/442/442 441/441/441 438/438/438
f 441/441/441 443/443/443 440/440/440
f 442/442/442 444/444/444 441/441/441
f 444/444/444 443/443/443 441/441/441
f 445/445/445 444/444/444 442/442/442
f 446/446/446 443/443/443 444/444/444
f 445/445/445 446/446/446 444/444/444
f 447/447/447 443/443/443 446/446/446
f 448/448/448 446/446/446 445/445/445
f 448/448/448 447/447/447 446/446/446
f 449/449/449 451/451/451 450/450/450
f 449/449/449 452/452/452 451/451/451
f 453/453/453 452/452/452 449/449/449
f 452/452/452 454/454/454 451/451/451
f 453/453/453 455/455/455 452/452/452
f 456/456/456 455/455/455 453/453/453
f 452/452/452 457/457/457 454/454/454
f 455/455/455 457/457/457 452/452/452
f 457/457/457 458/458/458 454/454/454
f 456/456/456 459/459/459 455/455/455
f 460/460/460 459/459/459 456/456/456
f 460/460/460 461/461/461 459/459/459
f 455/455/455 462/462/462 457/457/457
f 459/459/459 462/462/462 455/455/455
f 457/457/457 463/463/463 458/458/458
f 462/462/462 463/463/463 457/457/457
f 463/463/463 464/464/464 458/458/458
f 461/461/461 465/465/465 459/459/459
f 459/459/459 465/465/465 462/462/462
f 461/461/461 466/466/466 465/465/465
f 462/462/462 467/467/467 463/463/463
f 465/465/465 467/467/467 462/462/462
f 463/463/463 468/468/468 464/464/464
f 467/467/467 468/468/468 463/463/463
f 468/468/468 469/469/469 464/464/464
f 466/466/466 470/470/470 465/465/465
f 465/465/465 470/470/470 467/467/467
f 466/466/466 471/471/471 470/470/470
f 467/467/467 472/472/472 468/468/468
f 470/470/470 472/472/472 467/467/467
f 468/468/468 473/473/473 469/469/469
f 472/472/472 473/473/473 468/468/468
f 473/473/473 474/474/474 469/469/469
f 471/471/471 475/475/475 470/470/470
f 470/470/470 475/475/475 472/472/472
f 471/471/471 476/476/476 475/475/475
f 472/472/472 477/477/477 473/473/473
f 477/477/477 474/474/474 473/473/473
f 475/475/475 477/477/477 472/472/472
f 476/476/476 478/478/478 475/475/475
f 475/475/475 478/478/478 477/477/477
f 478/478/478 474/474/474 477/477/477
f 476/476/476 479/479/479 478/478/478
f 479/479/479 474/474/474 478/478/478
f 480/480/480 482/482/482 481/481/481
f 480/480/480 483/483/483 482/482/482
f 484/484/484 483/483/483 480/480/480
f 483/483/483 485/485/485 482/482/482
f 484/484/484 486/486/486 483/483/483
f 486/486/486 485/485/485 483/483/483
f 487/487/487 486/486/486 484/484/484
f 488/488/488 485/485/485 486/486/486
f 487/487/487 488/488/488 486/486/486
f 489/489/489 485/485/485 488/488/488
f 490/490/490 488/488/488 487/487/487
f 490/490/490 489/489/489 488/488/488
f 491/491/491 493/493/493 492/492/492
f 491/491/491 494/494/494 493/493/493
f 495/495/495 494/494/494 491/491/491
f 494/494/494 496/496/496 493/493/493
f 495/495/495 497/497/497 494/494/494
f 498/498/498 497/497/497 495/495/495
f 494/494/494 499/499/499 496/496/496
f 497/497/497 499/499/499 494/494/494
f 499/499/499 500/500/500 496/496/496
f 498/498/498 501/501/501 497/497/497
f 502/502/502 501/501/501 498/498/498
f 502/502/502 503/503/503 501/501/501
f 497/497/497 504/504/504 499/499/499
f 504/504/504 500/500/500 499/499/499
f 501/501/501 504/504/504 497/497/497
f 503/503/503 505/505/505 501/501/501
f 501/501/501 505/505/505 504/504/504
f 505/505/505 500/500/500 504/504/504
f 503/503/503 506/506/506 505/505/505
f 506/506/506 500/500/500 505/505/505
f 507/507/507 509/509/509 508/508/508
f 507/507/507 510/510/510 509/509/509
f 511/511/511 510/510/510 507/507/507
f 510/510/510 512/512/512 509/509/509
f 511/511/511 513/513/513 510/510/510
f 513/513/513 512/512/512 510/510/510
f 514/514/514 513/513/513 511/511/511
f 515/515/515 512/512/512 513/513/513
f 514/514/514 515/515/515 513/513/513
f 516/516/516 512/512/512 515/515/515
f 517/517/517 515/515/515 514/514/514
f 517/517/517 516/516/516 515/515/515
