mtllib P_RedMapleRoots01.mtl
v 0.5606015 -1.26366 -1.047326 0 0.8117647 0
v 0.2530735 -1.418169 -0.9723234 0 0.8784314 0
v -0.09403894 -0.1599103 0.1674733 0 0.172549 0
v 0.205648 0.002675047 0.1081833 0 0.2039216 0
v 0.1934471 0.06708048 0.2437995 0 0.1686275 0
v -0.1046003 -0.09371562 0.3024477 0 0.1411765 0
v -0.04562116 -0.02583153 1.120982 0 0.1411765 0
v 0.234085 0.1146896 0.996145 0 0.09019608 0
v 0.4726862 -0.02724567 1.704626 0 0.254902 0
v 0.7246644 0.1083251 1.55265 0 0.2901961 0
v 0.7456738 -0.08134387 2.293282 0 0.4470588 0
v 1.022026 0.03364529 2.240451 0 0.5215687 0
v 0.8098348 -0.1960655 2.930903 0 0.2431373 0
v 1.062737 -0.1254992 2.991143 0 0.2509804 0
v 0.57719 -0.501879 3.566024 0 0.7803922 0
v 0.7630772 -0.4715018 3.649466 0 0.9137255 0
v 0.5106692 -1.060508 4.220969 0 0.3960784 0
v 0.2575709 0.4499454 0.9712858 0 0.2313726 0
v 0.7610657 0.4302554 1.554836 0 0.3607843 0
v 1.073585 0.3303486 2.281598 0 0.5529412 0
v 1.1135 0.1175453 3.095641 0 0.227451 0
v 0.1959209 0.3791277 0.09144522 0 0.3294118 0
v 0.1934471 0.06708048 0.2437995 0 0.1686275 0
v 0.205648 0.002675047 0.1081833 0 0.2039216 0
v 0.2064445 0.3144627 -0.04422602 0 0.3607843 0
v 0.5782149 -1.020733 -1.301782 0 0.8588235 0
v 0.2883003 -0.9323137 -1.481236 0 0.9254902 0
v -0.09237169 0.4635594 -0.1373077 0 0.5490196 0
v -0.1003704 0.5296087 -0.001354963 0 0.5372549 0
v 0.1959209 0.3791277 0.09144522 0 0.3294118 0
v 0.001350641 0.6446801 1.071264 0 0.5764706 0
v 0.545489 0.616615 1.708998 0 0.5215687 0
v 0.8487909 0.512063 2.375576 0 0.6666667 0
v -0.2783555 0.504159 1.196101 0 0.3372549 0
v 0.2935109 0.4810441 1.860973 0 0.4784314 0
v -0.3989824 0.3682009 0.0575323 0 0.5019608 0
v -0.1003704 0.5296087 -0.001354963 0 0.5372549 0
v -0.09237169 0.4635594 -0.1373077 0 0.5490196 0
v -0.3920351 0.3009862 -0.07807945 0 0.5254902 0
v -0.01922762 -1.086823 -1.406233 0 0.8352941 0
v 0.2883003 -0.9323137 -1.481236 0 0.9254902 0
v 0.9113615 0.2900234 3.139902 0 0.1882353 0
v 0.5724386 0.3970739 2.428407 0 0.6117647 0
v 0.7892631 -0.3252859 3.792206 0 0.9372549 0
v 0.5106692 -1.060508 4.220969 0 0.3960784 0
v 0.6295617 -0.209447 3.851503 0 0.8588235 0
v 0.5106692 -1.060508 4.220969 0 0.3960784 0
v 0.6584598 0.2194572 3.079662 0 0.1882353 0
v 0.4436744 -0.239824 3.768061 0 0.8117647 0
v 0.5106692 -1.060508 4.220969 0 0.3960784 0
v 0.2571095 0.1591139 1.858787 0 0.2901961 0
v 0.52088 0.1003705 2.38726 0 0.4039216 0
v 0.6076964 -0.02358724 2.975163 0 0.2156863 0
v -0.3018414 0.1689032 1.22096 0 0.2666667 0
v 0.4174886 -0.3860401 3.625322 0 0.7529412 0
v 0.5106692 -1.060508 4.220969 0 0.3960784 0
v -0.4007979 0.05686287 0.2097023 0 0.3647059 0
v -0.3989824 0.3682009 0.0575323 0 0.5019608 0
v -0.3920351 0.3009862 -0.07807945 0 0.5254902 0
v 0.4726862 -0.02724567 1.704626 0 0.254902 0
v -0.04562116 -0.02583153 1.120982 0 0.1411765 0
v 0.7456738 -0.08134387 2.293282 0 0.4470588 0
v 0.8098348 -0.1960655 2.930903 0 0.2431373 0
v 0.57719 -0.501879 3.566024 0 0.7803922 0
v 0.5106692 -1.060508 4.220969 0 0.3960784 0
v -0.1046003 -0.09371562 0.3024477 0 0.1411765 0
v -0.3928783 -0.01079237 0.0741972 0 0.3882353 0
v -0.09403894 -0.1599103 0.1674733 0 0.172549 0
v 0.2530735 -1.418169 -0.9723234 0 0.8784314 0
v -0.03684115 -1.32975 -1.151777 0 0.7803922 0
v -0.01922762 -1.086823 -1.406233 0 0.8352941 0
v -0.5175941 -0.529392 -0.5927181 0 0.8352941 0
v -0.6602753 -0.5883194 -0.5079384 0 0.8 0
v -0.5439131 -0.05023719 0.05248928 0 0.4156863 0
v -0.3997847 0.02235346 -0.01082826 0 0.4862745 0
v -0.5327561 -0.3999972 -0.7112297 0 0.8431373 0
v -0.485408 0.05610995 0.4753021 0 0.0627451 0
v -0.4083417 0.1749036 -0.09272313 0 0.5647059 0
v -0.6905993 -0.3295298 -0.744962 0 0.8078431 0
v -0.3393735 0.1417513 0.4615767 0 0.1254902 0
v -0.4992895 0.03217836 0.8716546 0 0 0
v -0.5610275 0.2548629 -0.1113007 0 0.509804 0
v -0.8332804 -0.3884571 -0.6601822 0 0.8117647 0
v -0.3412006 0.3109704 0.4470688 0 0.1647059 0
v -0.3647304 0.1102513 0.9265364 0 0.1254902 0
v -0.6453171 -0.08436105 1.14488 0 0 0
v -0.7051561 0.1822723 -0.04798317 0 0.4431373 0
v -0.8181183 -0.517852 -0.5416703 0 0.8 0
v -0.4890624 0.3945481 0.4462863 0 0.1254902 0
v -0.3720014 0.2707471 0.9639771 0 0.2078431 0
v -0.5427449 -0.02261193 1.247416 0 0.09019608 0
v -0.9598586 -0.08359106 1.407237 0 0.3607843 0
v -0.6965989 0.02972226 0.03391182 0 0.4156863 0
v -0.6602753 -0.5883194 -0.5079384 0 0.8 0
v -0.5439131 -0.05023719 0.05248928 0 0.4156863 0
v -0.6350969 0.3089069 0.4600116 0 0.0627451 0
v -0.6332698 0.1396877 0.4745195 0 0.0627451 0
v -0.485408 0.05610995 0.4753021 0 0.0627451 0
v -0.5138319 0.3531699 0.9465359 0 0.1647059 0
v -0.5496655 0.1307621 1.28314 0 0.2 0
v -0.8620877 -0.02564324 1.499547 0 0.4431373 0
v -1.176824 -0.1413729 1.777989 0 0.5176471 0
v -0.648391 0.275097 0.8916543 0 0.0627451 0
v -0.6411198 0.1146012 0.8542135 0 0 0
v -0.4992895 0.03217836 0.8716546 0 0 0
v -0.6591581 0.2223869 1.216327 0 0.1882353 0
v -0.8589452 0.119088 1.521484 0 0.5176471 0
v -1.084267 -0.08773992 1.849989 0 0.5568628 0
v -1.351044 -0.3400766 2.148704 0 0.8196079 0
v -0.7617303 0.1606376 1.113791 0 0.1098039 0
v -0.7548097 0.007263586 1.078067 0 0 0
v -0.6453171 -0.08436105 1.14488 0 0 0
v -0.9535736 0.2058714 1.451111 0 0.5215687 0
v -1.097741 0.03317763 1.892706 0 0.6156863 0
v -1.284664 -0.3038122 2.209376 0 0.8156863 0
v -1.531389 -0.7194923 2.601155 0 0.5647059 0
v -1.051345 0.1479236 1.358801 0 0.4627451 0
v -1.054487 0.003192261 1.336864 0 0.3803922 0
v -0.9598586 -0.08359106 1.407237 0 0.3607843 0
v -1.203773 0.100462 1.863423 0 0.6235294 0
v -1.306603 -0.227787 2.265423 0 0.8156863 0
v -1.531389 -0.7194923 2.601155 0 0.5647059 0
v -1.29633 0.04682885 1.791422 0 0.6039216 0
v -1.282856 -0.07408862 1.748705 0 0.5450981 0
v -1.176824 -0.1413729 1.777989 0 0.5176471 0
v -1.394921 -0.1880266 2.260798 0 0.8196079 0
v -1.531389 -0.7194923 2.601155 0 0.5647059 0
v -1.461301 -0.2242911 2.200126 0 0.827451 0
v -1.531389 -0.7194923 2.601155 0 0.5647059 0
v -1.439362 -0.3003161 2.144079 0 0.827451 0
v -1.531389 -0.7194923 2.601155 0 0.5647059 0
v -1.351044 -0.3400766 2.148704 0 0.8196079 0
v -1.531389 -0.7194923 2.601155 0 0.5647059 0
vn 0.8147097 -0.2502535 0.5230882
vn -0.04458266 -0.6794614 0.7323556
vn -0.04829095 -0.797133 0.6018695
vn 0.8675128 -0.3098548 0.3891163
vn 0.8811179 -0.4564175 0.1237507
vn -0.04152907 -0.9634349 0.2647047
vn -0.1432314 -0.9830323 0.1145959
vn 0.7351773 -0.6180126 -0.2785227
vn -0.06540919 -0.9977922 -0.01149644
vn 0.6913592 -0.546525 -0.4725811
vn -0.1125676 -0.9878006 -0.1076037
vn 0.7736562 -0.5701247 -0.2764308
vn -0.1327115 -0.9386175 -0.3184098
vn 0.7847679 -0.6137357 -0.08641642
vn -0.2009894 -0.7982288 -0.5678328
vn 0.7572854 -0.638584 -0.136855
vn 0.7670737 -0.5847705 -0.2638968
vn 0.7931057 0.4983663 -0.3501632
vn 0.7897698 0.40738 -0.4585906
vn 0.9182736 0.3695904 -0.1420438
vn 0.9279021 0.2531115 0.2737376
vn 0.8438137 0.5189518 -0.1366293
vn 0.8811179 -0.4564175 0.1237507
vn 0.8675128 -0.3098548 0.3891163
vn 0.8397329 0.4925959 -0.2284686
vn 0.8707855 0.4446396 -0.2098287
vn 0.04059365 0.6971817 -0.7157443
vn -0.001160489 0.8146918 -0.579893
vn -0.008537091 0.9601166 -0.2794698
vn 0.8438137 0.5189518 -0.1366293
vn -0.03115541 0.9990132 -0.0316534
vn 0.157849 0.9874631 0.0004725294
vn 0.2255541 0.9615732 0.1565319
vn -0.7782492 0.5463353 0.30959
vn -0.6358101 0.6039498 0.4806144
vn -0.8440588 0.5196919 -0.1322316
vn -0.008537091 0.9601166 -0.2794698
vn -0.001160489 0.8146918 -0.579893
vn -0.8330663 0.380168 -0.4018369
vn -0.8196614 0.2648551 -0.507944
vn 0.04059365 0.6971817 -0.7157443
vn 0.2301662 0.8683744 0.43926
vn -0.696551 0.6278631 0.3472817
vn 0.8292813 0.1086427 0.5481692
vn 0.8413618 -0.003630011 0.5404602
vn 0.06208647 0.623604 0.779271
vn 0.04469355 0.3925596 0.91864
vn -0.6992677 0.6685691 0.2530616
vn -0.7844039 0.4774944 0.3958657
vn -0.7998744 0.2386138 0.5506945
vn -0.7666679 -0.4177774 0.4875268
vn -0.8945143 -0.3901582 0.2182218
vn -0.9542582 -0.2604863 -0.1467593
vn -0.8382452 -0.3872699 0.3838841
vn -0.9454188 -0.1990255 -0.258016
vn -0.9219562 -0.320019 -0.2181391
vn -0.9026056 -0.4030861 0.1510781
vn -0.8440588 0.5196919 -0.1322316
vn -0.8330663 0.380168 -0.4018369
vn -0.06540919 -0.9977922 -0.01149644
vn -0.1432314 -0.9830323 0.1145959
vn -0.1125676 -0.9878006 -0.1076037
vn -0.1327115 -0.9386175 -0.3184098
vn -0.2009894 -0.7982288 -0.5678328
vn -0.1372389 -0.74671 -0.6508377
vn -0.04152907 -0.9634349 0.2647047
vn -0.8963515 -0.4154737 0.1547109
vn -0.04829095 -0.797133 0.6018695
vn -0.04458266 -0.6794614 0.7323556
vn -0.8726923 -0.4357148 0.2203652
vn -0.8196614 0.2648551 -0.507944
vn 0.8952838 -0.3988334 0.1984914
vn 0.08641238 -0.7288193 0.6792315
vn 0.05991156 -0.8773919 0.476019
vn 0.9153903 -0.3959608 0.0726332
vn 0.8085591 0.3414117 -0.4792393
vn 0.03911229 -0.9948955 0.09302225
vn 0.7993785 0.4661614 -0.3790615
vn -0.08406307 0.7400255 -0.6673048
vn 0.8975252 -0.4408612 0.009485417
vn 0.1201832 -0.9754424 -0.1845755
vn -0.04379172 0.8821032 -0.4690162
vn -0.893995 0.4058807 -0.1898254
vn 0.8454683 0.5291076 -0.0723085
vn 0.8841726 -0.4434421 0.1469622
vn 0.06792876 -0.9818305 -0.1771847
vn -0.8500589 0.5094558 -0.1336213
vn -0.8062713 -0.3336627 0.4884627
vn 0.0157912 0.9966261 -0.08054203
vn 0.8066936 0.4798153 0.3449968
vn 0.6775729 -0.5920037 0.4363789
vn -0.08313165 -0.983739 -0.1592063
vn -0.8667446 -0.359777 0.3454192
vn 0.08641238 -0.7288193 0.6792315
vn 0.05991156 -0.8773919 0.476019
vn -0.8412058 0.5407089 -0.002593905
vn -0.8743093 -0.4766385 0.09164599
vn 0.03911229 -0.9948955 0.09302225
vn 0.001070445 0.9679338 0.2512029
vn 0.6684382 0.3217995 0.6705487
vn 0.6178803 -0.6093693 0.4968834
vn 0.05895977 -0.953882 -0.2943348
vn -0.8255451 0.5613285 -0.05818645
vn -0.8266345 -0.4675998 -0.3130909
vn 0.1201832 -0.9754424 -0.1845755
vn 0.01033284 0.9550629 0.2962233
vn 0.6269987 0.4348384 0.6463653
vn 0.8095015 -0.5099189 0.2910155
vn 0.1783929 -0.8500118 -0.4956369
vn -0.7173421 0.5654483 -0.4070487
vn -0.6295872 -0.4662018 -0.621511
vn 0.06792876 -0.9818305 -0.1771847
vn -0.04157059 0.9898036 0.1362381
vn 0.6682056 0.4381531 0.601268
vn 0.8789929 -0.4506094 0.1559571
vn 0.8906971 -0.4460694 0.08763976
vn -0.6673456 0.5818838 -0.4648238
vn -0.6995407 -0.3635812 -0.6151841
vn -0.08313165 -0.983739 -0.1592063
vn -0.1375445 0.9216789 0.3627526
vn 0.6160163 0.3389142 0.7110985
vn 0.6111884 0.2363522 0.7553717
vn -0.8290287 0.5319368 -0.1724955
vn -0.7691943 -0.381744 -0.5124563
vn 0.05895977 -0.953882 -0.2943348
vn -0.2649402 0.7193256 0.6421662
vn -0.3073298 0.5679101 0.7635617
vn -0.9276256 0.3699904 0.05116577
vn -0.9626989 0.2389918 0.126861
vn -0.7474077 -0.4048682 -0.5267481
vn -0.7118492 -0.4403391 -0.5471493
vn 0.1783929 -0.8500118 -0.4956369
vn 0.2238088 -0.7888874 -0.5723341
vt 0.02360797 -0.2240704
vt -0.0370428 -0.2197897
vt -0.01491925 0.07851071
vt 0.04456318 0.07800252
vt 0.04442238 0.1079746
vt -0.01536581 0.1073563
vt -0.03042525 0.2561888
vt 0.03407973 0.2540944
vt -0.006495774 0.3926209
vt 0.04589176 0.3874819
vt 0.00156033 0.5081917
vt 0.05238861 0.5030559
vt 0.01841962 0.6285963
vt 0.06528896 0.6217433
vt 0.04677576 0.7676203
vt 0.0824973 0.7548727
vt 0.1440647 0.8992132
vt 0.09886456 0.2532886
vt 0.09568137 0.386233
vt 0.09792739 0.5010039
vt 0.1050214 0.6183954
vt 0.09992161 0.1039514
vt 0.04442238 0.1079746
vt 0.04456318 0.07800253
vt 0.09916688 0.07694636
vt 0.07960695 -0.2278175
vt 0.1413264 -0.2315059
vt 0.1495501 0.07588241
vt 0.1503497 0.1002475
vt 0.09992161 0.1039514
vt 0.1564839 0.2561184
vt 0.1450741 0.38651
vt 0.1448745 0.4999604
vt 0.2082822 0.2554362
vt 0.1985747 0.3900208
vt 0.1975207 0.09885828
vt 0.1503497 0.1002475
vt 0.1495501 0.07588239
vt 0.1971558 0.07506511
vt 0.2066926 -0.2315059
vt 0.1413264 -0.2315059
vt 0.1435744 0.6176469
vt 0.194896 0.5020681
vt 0.1168368 0.7475659
vt 0.1442195 0.8991854
vt 0.1476268 0.7454273
vt 0.1443868 0.8991889
vt 0.1872788 0.6186422
vt 0.1763244 0.7478688
vt 0.1445524 0.8992237
vt 0.2579423 0.3932351
vt 0.2502134 0.5073749
vt 0.234774 0.6251947
vt 0.2551153 0.2539797
vt 0.206861 0.7545341
vt 0.1447021 0.8992878
vt 0.2486203 0.1000609
vt 0.1975207 0.09885827
vt 0.1971558 0.07506511
vt 0.3174511 0.3928347
vt 0.3077732 0.2516916
vt 0.3086615 0.5142616
vt 0.2838735 0.6362621
vt 0.2396209 0.768018
vt 0.1448334 0.8993831
vt 0.3071065 0.1041768
vt 0.2488966 0.07424987
vt 0.3079866 0.07533794
vt 0.328005 -0.2255829
vt 0.2667926 -0.2289156
vt 0.2066926 -0.2315059
vt 0.487512 -0.03909022
vt 0.4580545 -0.03789943
vt 0.464123 0.09346414
vt 0.4925451 0.09254539
vt 0.5161029 -0.0400362
vt 0.4632768 0.1702542
vt 0.5192542 0.09241039
vt 0.5464083 -0.04020101
vt 0.491363 0.1706499
vt 0.4606355 0.2414901
vt 0.544074 0.09280989
vt 0.5763592 -0.03871644
vt 0.5162849 0.1714992
vt 0.4891544 0.2429954
vt 0.4559058 0.3021574
vt 0.5682371 0.09340474
vt 0.6045393 -0.03675765
vt 0.5413896 0.1720676
vt 0.5139629 0.2446352
vt 0.4823545 0.3027592
vt 0.4593696 0.3781087
vt 0.595064 0.0946618
vt 0.6338183 -0.0345844
vt 0.6235148 0.09596956
vt 0.5673897 0.1728279
vt 0.5942544 0.1727926
vt 0.6238472 0.1717987
vt 0.5378302 0.2455006
vt 0.5079552 0.3035808
vt 0.487004 0.3755713
vt 0.4741054 0.4564038
vt 0.5660103 0.2465529
vt 0.5977494 0.2461801
vt 0.6295582 0.2434134
vt 0.5369133 0.3037875
vt 0.5147389 0.3730716
vt 0.4960594 0.4527545
vt 0.4914869 0.5336639
vt 0.5693579 0.3021539
vt 0.6026585 0.3034655
vt 0.6338184 0.3061982
vt 0.5412964 0.3725287
vt 0.5176949 0.4510331
vt 0.5069975 0.5295072
vt 0.5342898 0.6275514
vt 0.5655406 0.3738566
vt 0.5886915 0.3761269
vt 0.6139598 0.3808522
vt 0.5376324 0.4508189
vt 0.5215853 0.5274146
vt 0.5343931 0.6275383
vt 0.5573076 0.4517662
vt 0.5783185 0.4543101
vt 0.5998234 0.4581605
vt 0.5358824 0.526872
vt 0.5345004 0.6275398
vt 0.5504544 0.5277968
vt 0.5346049 0.6275565
vt 0.5648617 0.5303708
vt 0.5347021 0.6275867
vt 0.5800804 0.5348847
vt 0.5347949 0.627632
usemtl M_RedMapleBark
f 1/1/1 3/3/3 2/2/2
f 1/1/1 4/4/4 3/3/3
f 5/5/5 3/3/3 4/4/4
f 5/5/5 6/6/6 3/3/3
f 5/5/5 7/7/7 6/6/6
f 5/5/5 8/8/8 7/7/7
f 8/8/8 9/9/9 7/7/7
f 8/8/8 10/10/10 9/9/9
f 10/10/10 11/11/11 9/9/9
f 10/10/10 12/12/12 11/11/11
f 12/12/12 13/13/13 11/11/11
f 12/12/12 14/14/14 13/13/13
f 14/14/14 15/15/15 13/13/13
f 14/14/14 16/16/16 15/15/15
f 16/16/16 17/17/17 15/15/15
f 18/18/18 10/10/10 8/8/8
f 19/19/19 12/12/12 10/10/10
f 18/18/18 19/19/19 10/10/10
f 20/20/20 14/14/14 12/12/12
f 19/19/19 20/20/20 12/12/12
f 21/21/21 16/16/16 14/14/14
f 20/20/20 21/21/21 14/14/14
f 22/22/22 18/18/18 8/8/8
f 22/22/22 8/8/8 23/23/23
f 24/24/24 22/22/22 23/23/23
f 24/24/24 25/25/25 22/22/22
f 26/26/26 25/25/25 24/24/24
f 26/26/26 24/24/24 1/1/1
f 27/27/27 25/25/25 26/26/26
f 27/27/27 28/28/28 25/25/25
f 25/25/25 28/28/28 29/29/29
f 25/25/25 29/29/29 30/30/30
f 29/29/29 18/18/18 30/30/30
f 29/29/29 31/31/31 18/18/18
f 31/31/31 19/19/19 18/18/18
f 31/31/31 32/32/32 19/19/19
f 32/32/32 20/20/20 19/19/19
f 32/32/32 33/33/33 20/20/20
f 33/33/33 21/21/21 20/20/20
f 34/34/34 32/32/32 31/31/31
f 35/35/35 33/33/33 32/32/32
f 34/34/34 35/35/35 32/32/32
f 36/36/36 34/34/34 31/31/31
f 36/36/36 31/31/31 37/37/37
f 38/38/38 36/36/36 37/37/37
f 38/38/38 39/39/39 36/36/36
f 40/40/40 39/39/39 38/38/38
f 40/40/40 38/38/38 41/41/41
f 33/33/33 42/42/42 21/21/21
f 35/35/35 43/43/43 33/33/33
f 43/43/43 42/42/42 33/33/33
f 42/42/42 44/44/44 21/21/21
f 21/21/21 44/44/44 16/16/16
f 44/44/44 45/45/45 16/16/16
f 42/42/42 46/46/46 44/44/44
f 46/46/46 47/47/47 44/44/44
f 48/48/48 46/46/46 42/42/42
f 43/43/43 48/48/48 42/42/42
f 48/48/48 49/49/49 46/46/46
f 49/49/49 50/50/50 46/46/46
f 51/51/51 43/43/43 35/35/35
f 52/52/52 48/48/48 43/43/43
f 51/51/51 52/52/52 43/43/43
f 53/53/53 49/49/49 48/48/48
f 52/52/52 53/53/53 48/48/48
f 54/54/54 51/51/51 35/35/35
f 54/54/54 35/35/35 34/34/34
f 53/53/53 55/55/55 49/49/49
f 55/55/55 56/56/56 49/49/49
f 57/57/57 54/54/54 34/34/34
f 57/57/57 34/34/34 58/58/58
f 59/59/59 57/57/57 58/58/58
f 60/60/60 52/52/52 51/51/51
f 61/61/61 60/60/60 51/51/51
f 61/61/61 51/51/51 54/54/54
f 60/60/60 62/62/62 52/52/52
f 62/62/62 53/53/53 52/52/52
f 62/62/62 63/63/63 53/53/53
f 63/63/63 55/55/55 53/53/53
f 63/63/63 64/64/64 55/55/55
f 64/64/64 65/65/65 55/55/55
f 66/66/66 61/61/61 54/54/54
f 66/66/66 54/54/54 57/57/57
f 67/67/67 66/66/66 57/57/57
f 59/59/59 67/67/67 57/57/57
f 67/67/67 68/68/68 66/66/66
f 69/69/69 68/68/68 67/67/67
f 69/69/69 67/67/67 70/70/70
f 70/70/70 67/67/67 59/59/59
f 70/70/70 59/59/59 71/71/71
f 72/72/72 74/74/74 73/73/73
f 72/72/72 75/75/75 74/74/74
f 76/76/76 75/75/75 72/72/72
f 75/75/75 77/77/77 74/74/74
f 76/76/76 78/78/78 75/75/75
f 79/79/79 78/78/78 76/76/76
f 75/75/75 80/80/80 77/77/77
f 78/78/78 80/80/80 75/75/75
f 80/80/80 81/81/81 77/77/77
f 79/79/79 82/82/82 78/78/78
f 83/83/83 82/82/82 79/79/79
f 78/78/78 84/84/84 80/80/80
f 82/82/82 84/84/84 78/78/78
f 80/80/80 85/85/85 81/81/81
f 84/84/84 85/85/85 80/80/80
f 85/85/85 86/86/86 81/81/81
f 83/83/83 87/87/87 82/82/82
f 88/88/88 87/87/87 83/83/83
f 82/82/82 89/89/89 84/84/84
f 87/87/87 89/89/89 82/82/82
f 84/84/84 90/90/90 85/85/85
f 89/89/89 90/90/90 84/84/84
f 85/85/85 91/91/91 86/86/86
f 90/90/90 91/91/91 85/85/85
f 91/91/91 92/92/92 86/86/86
f 88/88/88 93/93/93 87/87/87
f 94/94/94 93/93/93 88/88/88
f 94/94/94 95/95/95 93/93/93
f 87/87/87 96/96/96 89/89/89
f 93/93/93 96/96/96 87/87/87
f 95/95/95 97/97/97 93/93/93
f 93/93/93 97/97/97 96/96/96
f 95/95/95 98/98/98 97/97/97
f 89/89/89 99/99/99 90/90/90
f 96/96/96 99/99/99 89/89/89
f 90/90/90 100/100/100 91/91/91
f 99/99/99 100/100/100 90/90/90
f 91/91/91 101/101/101 92/92/92
f 100/100/100 101/101/101 91/91/91
f 101/101/101 102/102/102 92/92/92
f 97/97/97 103/103/103 96/96/96
f 96/96/96 103/103/103 99/99/99
f 98/98/98 104/104/104 97/97/97
f 97/97/97 104/104/104 103/103/103
f 98/98/98 105/105/105 104/104/104
f 99/99/99 106/106/106 100/100/100
f 103/103/103 106/106/106 99/99/99
f 100/100/100 107/107/107 101/101/101
f 106/106/106 107/107/107 100/100/100
f 101/101/101 108/108/108 102/102/102
f 107/107/107 108/108/108 101/101/101
f 108/108/108 109/109/109 102/102/102
f 104/104/104 110/110/110 103/103/103
f 103/103/103 110/110/110 106/106/106
f 105/105/105 111/111/111 104/104/104
f 104/104/104 111/111/111 110/110/110
f 105/105/105 112/112/112 111/111/111
f 106/106/106 113/113/113 107/107/107
f 110/110/110 113/113/113 106/106/106
f 107/107/107 114/114/114 108/108/108
f 113/113/113 114/114/114 107/107/107
f 108/108/108 115/115/115 109/109/109
f 114/114/114 115/115/115 108/108/108
f 115/115/115 116/116/116 109/109/109
f 111/111/111 117/117/117 110/110/110
f 110/110/110 117/117/117 113/113/113
f 112/112/112 118/118/118 111/111/111
f 111/111/111 118/118/118 117/117/117
f 112/112/112 119/119/119 118/118/118
f 113/113/113 120/120/120 114/114/114
f 117/117/117 120/120/120 113/113/113
f 114/114/114 121/121/121 115/115/115
f 120/120/120 121/121/121 114/114/114
f 121/121/121 122/122/122 115/115/115
f 118/118/118 123/123/123 117/117/117
f 117/117/117 123/123/123 120/120/120
f 119/119/119 124/124/124 118/118/118
f 118/118/118 124/124/124 123/123/123
f 119/119/119 125/125/125 124/124/124
f 120/120/120 126/126/126 121/121/121
f 123/123/123 126/126/126 120/120/120
f 126/126/126 127/127/127 121/121/121
f 123/123/123 128/128/128 126/126/126
f 124/124/124 128/128/128 123/123/123
f 128/128/128 129/129/129 126/126/126
f 125/125/125 130/130/130 124/124/124
f 124/124/124 130/130/130 128/128/128
f 130/130/130 131/131/131 128/128/128
f 125/125/125 132/132/132 130/130/130
f 132/132/132 133/133/133 130/130/130
