mtllib P_TreeWindsweptSaplingB02.mtl
v 2.482648 3.456669 -0.4590699 1 1 1
v 2.500252 3.439404 -0.3083692 1 1 1
v 2.617652 3.658888 -0.2526612 1 1 1
v 2.661104 3.673025 -0.3630057 1 1 1
v 2.509698 3.514483 -0.5853641 1 1 1
v 2.617779 3.670668 -0.5038272 1 1 1
v 1.667426 1.301851 1.041028 1 1 1
v 1.678928 1.277458 1.140539 1 1 1
v 2.086721 1.161111 1.063415 1 1 1
v 2.061961 1.189679 0.9705591 1 1 1
v 1.698974 1.397964 1.060943 1 1 1
v 2.609546 0.8455934 0.712652 1 1 1
v 2.106298 1.278265 0.9859901 1 1 1
v 2.581334 0.8746053 0.6258639 1 1 1
v 3.090074 0.798794 0.5886511 1 1 1
v 2.617309 0.9616281 0.6432596 1 1 1
v 3.09105 0.8219082 0.5044047 1 1 1
v 3.431073 0.8840603 0.689778 1 1 1
v 3.086137 0.9060411 0.5274311 1 1 1
v 3.44555 0.9033146 0.6248034 1 1 1
v 3.663336 0.9171699 0.7086884 1 1 1
v 3.435687 0.9696466 0.6422625 1 1 1
v 1.710476 1.373571 1.160453 1 1 1
v 1.698974 1.397964 1.060943 1 1 1
v 2.106298 1.278265 0.9859901 1 1 1
v 2.131059 1.249698 1.078846 1 1 1
v 1.678928 1.277458 1.140539 1 1 1
v 2.617309 0.9616281 0.6432596 1 1 1
v 2.086721 1.161111 1.063415 1 1 1
v 2.645522 0.9326159 0.7300473 1 1 1
v 3.086137 0.9060411 0.5274311 1 1 1
v 2.609546 0.8455934 0.712652 1 1 1
v 3.085162 0.8829267 0.6116774 1 1 1
v 3.435687 0.9696466 0.6422625 1 1 1
v 3.090074 0.798794 0.5886511 1 1 1
v 3.42121 0.9503916 0.7072368 1 1 1
v 3.663336 0.9171699 0.7086884 1 1 1
v 3.431073 0.8840603 0.689778 1 1 1
v 3.058893 0.8813174 0.5425851 1 1 1
v 3.068163 0.840688 0.5122412 1 1 1
v 3.314844 1.014586 0.3560581 1 1 1
v 3.308279 1.055055 0.3841775 1 1 1
v 3.093268 0.8636737 0.57671 1 1 1
v 3.57005 1.063119 0.3232665 1 1 1
v 3.330862 1.032312 0.4221823 1 1 1
v 3.556402 1.096979 0.35148 1 1 1
v 3.698866 1.215242 0.2885036 1 1 1
v 3.576234 1.075321 0.3870663 1 1 1
v 3.687223 1.242665 0.311675 1 1 1
v 3.951994 1.265782 0.292913 1 1 1
v 3.70279 1.224571 0.3409117 1 1 1
v 3.102537 0.8230441 0.5463662 1 1 1
v 3.093268 0.8636737 0.57671 1 1 1
v 3.330862 1.032312 0.4221823 1 1 1
v 3.337428 0.9918432 0.3940629 1 1 1
v 3.068163 0.840688 0.5122412 1 1 1
v 3.576234 1.075321 0.3870663 1 1 1
v 3.314844 1.014586 0.3560581 1 1 1
v 3.589882 1.041461 0.3588527 1 1 1
v 3.70279 1.224571 0.3409117 1 1 1
v 3.57005 1.063119 0.3232665 1 1 1
v 3.714433 1.197147 0.3177403 1 1 1
v 3.951994 1.265782 0.292913 1 1 1
v 3.698866 1.215242 0.2885036 1 1 1
v 3.130898 1.993831 1.115405 1 1 1
v 3.16815 2.025562 1.099194 1 1 1
v 3.351813 1.825581 1.138658 1 1 1
v 3.328473 1.786353 1.155845 1 1 1
v 3.123853 1.977398 1.067055 1 1 1
v 3.674211 1.760025 1.147433 1 1 1
v 3.323956 1.769143 1.110431 1 1 1
v 3.674376 1.721497 1.1628 1 1 1
v 4.117645 1.813349 1.099508 1 1 1
v 3.673366 1.706131 1.124285 1 1 1
v 3.161107 2.009129 1.050843 1 1 1
v 3.123853 1.977398 1.067055 1 1 1
v 3.323956 1.769143 1.110431 1 1 1
v 3.347297 1.808372 1.093244 1 1 1
v 3.16815 2.025562 1.099194 1 1 1
v 3.673366 1.706131 1.124285 1 1 1
v 3.351813 1.825581 1.138658 1 1 1
v 3.673201 1.744659 1.108917 1 1 1
v 4.117645 1.813349 1.099508 1 1 1
v 3.674211 1.760025 1.147433 1 1 1
v 1.69525 3.341703 -0.504425 1 1 1
v 1.749587 3.301217 -0.4464661 1 1 1
v 1.663236 3.526966 -0.2228484 1 1 1
v 1.621206 3.557064 -0.2692677 1 1 1
v 1.627339 3.291488 -0.4758351 1 1 1
v 1.658311 3.748235 -0.09931736 1 1 1
v 1.566282 3.527368 -0.2387925 1 1 1
v 1.627272 3.767368 -0.134913 1 1 1
v 1.827269 4.17818 -0.05628742 1 1 1
v 1.588449 3.765713 -0.1019495 1 1 1
v 1.811014 4.196117 -0.07562016 1 1 1
v 1.969522 4.369084 0.09705063 1 1 1
v 1.789609 4.200409 -0.05364034 1 1 1
v 1.681676 3.251001 -0.4178761 1 1 1
v 1.627339 3.291488 -0.4758351 1 1 1
v 1.566282 3.527368 -0.2387925 1 1 1
v 1.608312 3.49727 -0.1923731 1 1 1
v 1.749587 3.301217 -0.4464661 1 1 1
v 1.588449 3.765713 -0.1019495 1 1 1
v 1.663236 3.526966 -0.2228484 1 1 1
v 1.619488 3.74658 -0.06635389 1 1 1
v 1.789609 4.200409 -0.05364034 1 1 1
v 1.658311 3.748235 -0.09931736 1 1 1
v 1.805864 4.182474 -0.03430767 1 1 1
v 1.969522 4.369084 0.09705063 1 1 1
v 1.827269 4.17818 -0.05628742 1 1 1
v 4.891212 3.463914 0.04922159 1 1 1
v 4.911606 3.420726 0.07793863 1 1 1
v 5.052032 3.59561 0.225227 1 1 1
v 5.039343 3.627948 0.2062874 1 1 1
v 4.849728 3.468851 0.08610614 1 1 1
v 5.246009 3.716286 0.3220153 1 1 1
v 5.013819 3.635133 0.2356545 1 1 1
v 5.234095 3.731946 0.3087031 1 1 1
v 5.33777 3.889237 0.3123913 1 1 1
v 5.222411 3.739446 0.3279817 1 1 1
v 4.870121 3.425662 0.1148231 1 1 1
v 4.849728 3.468851 0.08610614 1 1 1
v 5.013819 3.635133 0.2356545 1 1 1
v 5.026509 3.602794 0.2545941 1 1 1
v 4.911606 3.420726 0.07793863 1 1 1
v 5.222411 3.739446 0.3279817 1 1 1
v 5.052032 3.59561 0.225227 1 1 1
v 5.234325 3.723785 0.341294 1 1 1
v 5.33777 3.889237 0.3123913 1 1 1
v 5.246009 3.716286 0.3220153 1 1 1
v 3.545049 4.405138 -0.4162267 1 1 1
v 3.633184 4.417388 -0.4219571 1 1 1
v 3.601825 4.495037 -0.686654 1 1 1
v 3.517382 4.490369 -0.7057858 1 1 1
v 3.534925 4.489949 -0.3906255 1 1 1
v 3.731973 4.570252 -0.9220977 1 1 1
v 3.507651 4.573493 -0.6831129 1 1 1
v 3.680501 4.577843 -0.9865338 1 1 1
v 4.0118 4.564744 -1.005977 1 1 1
v 3.677071 4.659659 -0.9741558 1 1 1
v 3.987708 4.577027 -1.076531 1 1 1
v 4.33435 4.798819 -1.105243 1 1 1
v 3.971625 4.648637 -1.058573 1 1 1
v 4.330894 4.814126 -1.163084 1 1 1
v 4.691935 4.899498 -1.001143 1 1 1
v 4.308096 4.867356 -1.147635 1 1 1
v 3.62306 4.5022 -0.396356 1 1 1
v 3.534925 4.489949 -0.3906255 1 1 1
v 3.507651 4.573493 -0.6831129 1 1 1
v 3.592094 4.578162 -0.6639814 1 1 1
v 3.633184 4.417388 -0.4219571 1 1 1
v 3.677071 4.659659 -0.9741558 1 1 1
v 3.601825 4.495037 -0.686654 1 1 1
v 3.728543 4.652068 -0.9097201 1 1 1
v 3.971625 4.648637 -1.058573 1 1 1
v 3.731973 4.570252 -0.9220977 1 1 1
v 3.995717 4.636353 -0.9880187 1 1 1
v 4.308096 4.867356 -1.147635 1 1 1
v 4.0118 4.564744 -1.005977 1 1 1
v 4.311553 4.852049 -1.089794 1 1 1
v 4.691935 4.899498 -1.001143 1 1 1
v 4.33435 4.798819 -1.105243 1 1 1
v 4.043344 4.439219 -0.5431153 1 1 1
v 3.956862 4.383387 -0.4719495 1 1 1
v 4.176201 4.296547 -0.3078002 1 1 1
v 4.213358 4.34691 -0.3797489 1 1 1
v 4.038278 4.540512 -0.4698018 1 1 1
v 4.453881 4.400579 -0.2508486 1 1 1
v 4.196315 4.427684 -0.3320099 1 1 1
v 4.462451 4.428193 -0.298419 1 1 1
v 4.700799 4.516791 -0.1158534 1 1 1
v 4.438651 4.473459 -0.2764314 1 1 1
v 4.701155 4.530918 -0.1449807 1 1 1
v 5.023798 4.639896 -0.2281412 1 1 1
v 4.685456 4.556468 -0.1327802 1 1 1
v 3.951797 4.484679 -0.3986362 1 1 1
v 4.038278 4.540512 -0.4698018 1 1 1
v 4.196315 4.427684 -0.3320099 1 1 1
v 4.159158 4.37732 -0.2600613 1 1 1
v 3.956862 4.383387 -0.4719495 1 1 1
v 4.438651 4.473459 -0.2764314 1 1 1
v 4.176201 4.296547 -0.3078002 1 1 1
v 4.43008 4.445845 -0.2288609 1 1 1
v 4.685456 4.556468 -0.1327802 1 1 1
v 4.453881 4.400579 -0.2508486 1 1 1
v 4.6851 4.54234 -0.1036528 1 1 1
v 5.023798 4.639896 -0.2281412 1 1 1
v 4.700799 4.516791 -0.1158534 1 1 1
v 2.661104 3.673025 -0.3630057 1 1 1
v 2.617779 3.670668 -0.5038272 1 1 1
v 2.810697 3.599967 -0.5342386 1 1 1
v 2.818407 3.601876 -0.432113 1 1 1
v 2.617652 3.658888 -0.2526612 1 1 1
v 3.053204 3.521273 -0.5725107 1 1 1
v 2.773941 3.59011 -0.3363912 1 1 1
v 2.500252 3.439404 -0.3083692 1 1 1
v 3.034042 3.50316 -0.3949577 1 1 1
v 3.458138 3.269349 -0.3906608 1 1 1
v 2.676743 3.43225 -0.3817661 1 1 1
v 2.482648 3.456669 -0.4590699 1 1 1
v 3.372608 3.269328 -0.2575871 1 1 1
v 2.967181 3.344686 -0.4280245 1 1 1
v 2.71186 3.428658 -0.4842402 1 1 1
v 3.355771 3.110407 -0.2719114 1 1 1
v 3.449328 3.096407 -0.2110477 1 1 1
v 3.464632 3.250479 -0.1961209 1 1 1
v 3.549719 3.253375 -0.3253562 1 1 1
v 3.90113 3.376848 0.03418291 1 1 1
v 3.816619 3.372598 0.1438061 1 1 1
v 3.865275 3.247123 0.1764516 1 1 1
v 4.0613 3.508407 0.145003 1 1 1
v 4.01956 3.5231 0.2571114 1 1 1
v 4.06921 3.418117 0.2893574 1 1 1
v 4.147151 3.533153 0.1618041 1 1 1
v 4.161618 3.562776 0.2585842 1 1 1
v 4.181584 3.466098 0.2851926 1 1 1
v 4.425316 3.508266 0.04643684 1 1 1
v 4.444431 3.532679 0.1235908 1 1 1
v 4.444928 3.453368 0.1485628 1 1 1
v 4.958205 3.468714 0.05428506 1 1 1
v 4.975114 3.486984 0.1115688 1 1 1
v 4.981064 3.427262 0.1288605 1 1 1
v 5.419541 3.506491 -0.2261681 1 1 1
v 5.427253 3.517082 -0.1905547 1 1 1
v 5.443008 3.483209 -0.1838929 1 1 1
v 5.758704 3.725496 -0.2116438 1 1 1
v -0.6575114 -1.244352 -0.09801234 1 1 1
v -0.6942388 -1.463171 -0.2362733 1 1 1
v -0.7523385 -1.430101 -0.3083228 1 1 1
v -0.7979239 -1.164431 -0.272138 1 1 1
v -0.7446769 -1.423009 -0.406054 1 1 1
v -0.4561596 -0.464446 -0.2050021 1 1 1
v -0.3175415 -0.4992709 -0.04584632 1 1 1
v -0.7794076 -1.147289 -0.5083289 1 1 1
v -0.675742 -1.446048 -0.4722168 1 1 1
v -0.4438837 -0.4624369 -0.418552 1 1 1
v -0.4009234 0.4050161 -0.204134 1 1 1
v -0.2778331 0.3781494 -0.06322873 1 1 1
v -0.6128095 -1.202969 -0.6682277 1 1 1
v -0.585915 -1.485723 -0.4680543 1 1 1
v -0.2879049 -0.4944205 -0.5614014 1 1 1
v -0.3871586 0.4256362 -0.3915178 1 1 1
v -0.3304604 0.8191042 -0.08558018 1 1 1
v -0.2203721 0.745801 0.03519243 1 1 1
v -0.3957204 -1.298854 -0.6581677 1 1 1
v -0.5278152 -1.518793 -0.3960046 1 1 1
v -0.07959355 -0.5416613 -0.5498711 1 1 1
v -0.2446019 0.4279304 -0.515613 1 1 1
v -0.3108939 0.8863115 -0.2504412 1 1 1
v -0.1741471 1.201212 0.10168 1 1 1
v -0.09990686 1.093456 0.166188 1 1 1
v -0.255308 -1.378776 -0.484042 1 1 1
v -0.5354767 -1.525886 -0.2982736 1 1 1
v 0.05902448 -0.5764863 -0.3907154 1 1 1
v -0.05676126 0.4105548 -0.5037266 1 1 1
v -0.1731342 0.9080535 -0.3628173 1 1 1
v -0.1442389 1.299449 -0.001949906 1 1 1
v -0.003006786 1.374743 0.4827433 1 1 1
v 0.0412733 1.225522 0.4870223 1 1 1
v 0.06632895 0.383688 -0.3628215 1 1 1
v 0.002120703 0.8715943 -0.35688 1 1 1
v -0.02770212 1.330622 -0.08399638 1 1 1
v 0.05490011 1.505024 0.420137 1 1 1
v 0.3182542 1.348544 0.898673 1 1 1
v 0.3340988 1.213319 0.8658636 1 1 1
v 0.1122089 0.798291 -0.2361075 1 1 1
v 0.1071973 1.276469 -0.09639795 1 1 1
v 0.1810727 1.540048 0.3358772 1 1 1
v 0.3717937 1.468909 0.8511437 1 1 1
v 0.7917325 1.367379 1.236134 1 1 1
v 0.8153061 1.235914 1.21506 1 1 1
v 0.1814376 1.168714 -0.0318898 1 1 1
v 0.3016007 1.459299 0.2793222 1 1 1
v 0.4633547 1.503907 0.7511181 1 1 1
v 0.8012446 1.479452 1.161087 1 1 1
v 1.20587 1.483352 1.206312 1 1 1
v 1.207143 1.374768 1.187379 1 1 1
v 1.336944 1.379923 1.180364 1 1 1
v 1.204893 1.573405 1.144541 1 1 1
v 0.8382705 1.506481 1.033881 1 1 1
v 0.5393021 1.433035 0.6571896 1 1 1
v 1.335921 1.480013 1.198937 1 1 1
v 1.204697 1.592472 1.037917 1 1 1
v 0.881121 1.432635 0.9290317 1 1 1
v 1.657713 1.37295 1.216912 1 1 1
v 1.669218 1.288992 1.201852 1 1 1
v 1.334774 1.564206 1.140863 1 1 1
v 1.205703 1.528775 0.9486174 1 1 1
v 1.654389 1.443667 1.167961 1 1 1
v 1.760814 1.430589 1.212647 1 1 1
v 1.805256 1.37024 1.20186 1 1 1
v 1.334382 1.583283 1.040095 1 1 1
v 1.661193 1.459718 1.083674 1 1 1
v 1.72603 1.480258 1.167299 1 1 1
v 2.111047 1.74068 1.19454 1 1 1
v 2.148444 1.683139 1.184663 1 1 1
v 1.721279 1.490152 1.092379 1 1 1
v 2.079685 1.786497 1.153016 1 1 1
v 2.30407 1.826187 1.178018 1 1 1
v 2.318346 1.767007 1.169649 1 1 1
v 2.072729 1.793752 1.084415 1 1 1
v 2.29216 1.873683 1.140891 1 1 1
v 2.927879 1.851496 1.171216 1 1 1
v 2.944848 1.804626 1.164244 1 1 1
v 2.289591 1.881672 1.080016 1 1 1
v 2.913113 1.888876 1.140917 1 1 1
v 3.24124 2.086825 1.12422 1 1 1
v 3.255618 2.054178 1.119004 1 1 1
v 2.909199 1.89487 1.091096 1 1 1
v 3.226042 2.111678 1.102979 1 1 1
v 3.601419 2.158254 1.019437 1 1 1
v 3.60319 2.13933 1.017928 1 1 1
v 3.895342 2.154342 0.9123346 1 1 1
v 3.596743 2.172353 1.007483 1 1 1
v 3.218927 2.114177 1.067724 1 1 1
v 3.591902 2.173368 0.9890691 1 1 1
v 3.58973 2.160705 0.9749817 1 1 1
v 3.224063 2.09286 1.039107 1 1 1
v 2.918431 1.865967 1.050938 1 1 1
v 3.591501 2.14178 0.9734727 1 1 1
v 3.238442 2.060213 1.033891 1 1 1
v 2.297868 1.845474 1.031053 1 1 1
v 3.596176 2.127681 0.9854265 1 1 1
v 2.9354 1.819097 1.043966 1 1 1
v 2.094254 1.758195 1.028923 1 1 1
v 3.601018 2.126666 1.003841 1 1 1
v 3.60319 2.13933 1.017928 1 1 1
v 3.25364 2.03536 1.055131 1 1 1
v 3.260754 2.032861 1.090387 1 1 1
v 3.255618 2.054178 1.119004 1 1 1
v 2.312143 1.786294 1.022684 1 1 1
v 2.950166 1.781717 1.074265 1 1 1
v 2.95408 1.775723 1.124085 1 1 1
v 2.944848 1.804626 1.164244 1 1 1
v 2.324054 1.738798 1.059811 1 1 1
v 2.326623 1.730809 1.120686 1 1 1
v 2.318346 1.767007 1.169649 1 1 1
v 2.131651 1.700654 1.019046 1 1 1
v 2.169969 1.647581 1.129171 1 1 1
v 2.148444 1.683139 1.184663 1 1 1
v 2.163013 1.654836 1.06057 1 1 1
v 1.749345 1.454474 1.031774 1 1 1
v 1.833322 1.334562 1.141256 1 1 1
v 1.805256 1.37024 1.20186 1 1 1
v 1.828571 1.344455 1.066336 1 1 1
v 1.793787 1.394124 1.020987 1 1 1
v 1.67414 1.4117 1.013426 1 1 1
v 1.682165 1.240974 1.131604 1 1 1
v 1.669218 1.288992 1.201852 1 1 1
v 1.68897 1.257025 1.047318 1 1 1
v 1.685646 1.327742 0.9983666 1 1 1
v 1.335062 1.525922 0.9555439 1 1 1
v 1.337491 1.322385 1.095891 1 1 1
v 1.336944 1.379923 1.180364 1 1 1
v 1.207143 1.374768 1.187379 1 1 1
v 1.337186 1.341288 0.9949402 1 1 1
v 1.336189 1.425655 0.9367813 1 1 1
v 1.207033 1.419074 0.9293669 1 1 1
v 1.208428 1.310733 1.098609 1 1 1
v 1.208373 1.328707 0.9916865 1 1 1
v 0.9046947 1.30117 0.9079582 1 1 1
v 0.8581566 1.162067 1.110211 1 1 1
v 0.8153061 1.235914 1.21506 1 1 1
v 0.8951825 1.189097 0.9830051 1 1 1
v 0.5551468 1.29781 0.6243803 1 1 1
v 0.4100462 1.142447 0.7719352 1 1 1
v 0.3340988 1.213319 0.8658636 1 1 1
v 0.5016073 1.177444 0.6719095 1 1 1
v 0.3458808 1.310078 0.2836012 1 1 1
v 0.2879741 1.179797 0.3462074 1 1 1
v 0.1618014 1.144773 0.4304672 1 1 1
v 0.0412733 1.225522 0.4870223 1 1 1
v 0.1515294 1.070477 0.07173987 1 1 1
v 0.03499275 1.039304 0.1537865 1 1 1
v -0.09990686 1.093456 0.166188 1 1 1
v 0.09264239 0.7310839 -0.0712465 1 1 1
v -0.04511718 0.7093418 0.04112964 1 1 1
v -0.2203721 0.745801 0.03519243 1 1 1
v 0.05256411 0.363068 -0.1754377 1 1 1
v -0.08999244 0.3607738 -0.05134236 1 1 1
v -0.2778331 0.3781494 -0.06322873 1 1 1
v 0.04674868 -0.5784953 -0.1771655 1 1 1
v -0.1092301 -0.5465117 -0.0343161 1 1 1
v -0.3175415 -0.4992709 -0.04584632 1 1 1
v -0.2738242 -1.395917 -0.2478512 1 1 1
v -0.6044117 -1.502847 -0.2321106 1 1 1
v -0.4404224 -1.340237 -0.08795247 1 1 1
v -0.6575114 -1.244352 -0.09801234 1 1 1
v -0.6942388 -1.463171 -0.2362733 1 1 1
v -1.162983 -0.917192 -0.5435988 1 1 1
v -1.206103 -1.312288 -0.2295219 1 1 1
v -1.070809 -1.309354 -0.163269 1 1 1
v -0.8815235 -1.047839 -0.4018228 1 1 1
v -1.021685 -1.306642 -0.02103336 1 1 1
v -0.6961775 -0.5719932 -0.4046637 1 1 1
v -0.9839547 -0.444373 -0.5378108 1 1 1
v -0.7729303 -1.105702 -0.08304676 1 1 1
v -1.087506 -1.305742 0.1138651 1 1 1
v -0.58853 -0.6586102 -0.106163 1 1 1
v -0.5245954 -0.1313198 -0.2207104 1 1 1
v -0.7802507 0.1154076 -0.32612 1 1 1
v -0.9031747 -1.055377 0.226125 1 1 1
v -1.229715 -1.30718 0.1624049 1 1 1
v -0.7264449 -0.6519662 0.1829648 1 1 1
v -0.4571365 -0.3476844 0.03994095 1 1 1
v -0.2137149 0.06503686 0.02490499 1 1 1
v -0.3583943 0.4471532 -0.02642317 1 1 1
v -1.196436 -0.9260394 0.3446101 1 1 1
v -1.365009 -1.310114 0.09615183 1 1 1
v -1.02571 -0.5581424 0.2931635 1 1 1
v -0.6116174 -0.3585343 0.3028291 1 1 1
v -0.1932127 -0.1797162 0.2572341 1 1 1
v 0.1211949 0.149236 0.09167475 1 1 1
v -0.01326401 0.4745142 0.03910581 1 1 1
v -1.480265 -0.7938765 0.2029651 1 1 1
v -1.414134 -1.312826 -0.04608373 1 1 1
v -1.318834 -0.4271026 0.160312 1 1 1
v -0.8965071 -0.2013258 0.4139002 1 1 1
v -0.3002506 -0.1666533 0.5339909 1 1 1
v 0.07788829 -0.08372232 0.3022656 1 1 1
v -1.586357 -0.7376134 -0.1159492 1 1 1
v -1.348312 -1.313727 -0.1809822 1 1 1
v 0.07963461 -0.02470816 0.5840635 1 1 1
v 0.1229187 0.2971343 0.7603886 1 1 1
v -0.4711757 0.09596516 0.6930023 1 1 1
v 0.2984948 0.0735356 0.2878273 1 1 1
v -1.417631 -0.3461458 -0.1386779 1 1 1
v -1.454934 -0.7886924 -0.4251861 1 1 1
v -1.206103 -1.312288 -0.2295219 1 1 1
v -1.162983 -0.917192 -0.5435988 1 1 1
v -0.9839547 -0.444373 -0.5378108 1 1 1
v -1.276837 -0.3546311 -0.4279648 1 1 1
v -0.7802507 0.1154076 -0.32612 1 1 1
v -1.059458 0.2248907 -0.2153629 1 1 1
v -0.3583943 0.4471532 -0.02642317 1 1 1
v -1.213939 0.189023 0.04752509 1 1 1
v -0.6166563 0.6097364 0.06797723 1 1 1
v -1.15135 0.027664 0.3084458 1 1 1
v -0.7245697 0.6140431 0.3440595 1 1 1
v -0.70519 0.3811437 0.5803999 1 1 1
v -0.545911 0.4944456 0.6479216 1 1 1
v -0.5571295 0.7210585 0.4162342 1 1 1
v -0.455216 0.7074763 0.1417209 1 1 1
v -0.1049731 0.7661027 0.1976374 1 1 1
v -0.01326401 0.4745142 0.03910581 1 1 1
v 0.1994868 0.728318 -0.09108543 1 1 1
v -0.008677304 0.645 0.707661 1 1 1
v -0.1030732 0.8288467 0.474562 1 1 1
v 0.06444559 0.9388406 0.0894197 1 1 1
v 0.4237657 1.287557 -0.3414186 1 1 1
v 0.1193187 1.046958 0.3617344 1 1 1
v 0.2915336 1.431537 -0.1678979 1 1 1
v 0.6162623 1.82498 -0.6441409 1 1 1
v 0.3319623 1.001077 0.5663407 1 1 1
v 0.349461 1.545546 0.06007387 1 1 1
v 0.5059437 1.972309 -0.4991641 1 1 1
v 0.8931847 2.153438 -0.7768732 1 1 1
v 0.8027893 2.290479 -0.6534214 1 1 1
v 1.403285 2.592835 -0.840784 1 1 1
v 0.5535036 2.064785 -0.2892108 1 1 1
v 0.5636149 1.5628 0.208954 1 1 1
v 1.26386 2.682348 -0.7047858 1 1 1
v 1.552532 3.044347 -0.7403215 1 1 1
v 0.8192192 2.340064 -0.4547682 1 1 1
v 1.423196 3.108061 -0.6220723 1 1 1
v 1.806603 3.431146 -0.7893053 1 1 1
v 0.5778126 0.8145733 0.5833827 1 1 1
v 0.7310814 2.048237 -0.1372686 1 1 1
v 1.243539 2.689643 -0.4915231 1 1 1
v 1.728287 3.526276 -0.6938368 1 1 1
v 2.098366 3.609112 -0.7900024 1 1 1
v 0.8085469 1.473192 0.1915307 1 1 1
v 0.7128537 0.6123978 0.4028776 1 1 1
v 0.9328498 2.273147 -0.2972817 1 1 1
v 1.354225 2.610446 -0.325922 1 1 1
v 1.408066 3.118887 -0.4365355 1 1 1
v 2.034501 3.712943 -0.6937649 1 1 1
v 2.459679 3.657293 -0.6002426 1 1 1
v 0.9346552 1.932359 -0.1323432 1 1 1
v 1.727377 3.551816 -0.5400705 1 1 1
v 2.360996 3.770569 -0.5163671 1 1 1
v 2.533563 3.753432 -0.5393238 1 1 1
v 1.516005 3.070483 -0.2923958 1 1 1
v 1.994833 3.713638 -0.5436072 1 1 1
v 2.422662 3.811659 -0.498605 1 1 1
v 2.54797 3.921363 -0.4500399 1 1 1
v 1.804281 3.492786 -0.4179956 1 1 1
v 2.294835 3.763587 -0.3608124 1 1 1
v 2.445603 3.964178 -0.3984814 1 1 1
v 2.86829 4.231727 -0.461496 1 1 1
v 1.683784 2.991204 -0.2740886 1 1 1
v 2.002599 3.610791 -0.4274899 1 1 1
v 2.360104 3.800801 -0.3668841 1 1 1
v 2.82878 4.307899 -0.4198662 1 1 1
v 3.655195 4.454522 -0.533559 1 1 1
v 1.908743 3.378594 -0.3924245 1 1 1
v 2.30951 3.640339 -0.2443882 1 1 1
v 2.400453 3.966866 -0.2849832 1 1 1
v 3.646707 4.532358 -0.4998055 1 1 1
v 4.000576 4.475423 -0.5736844 1 1 1
v 2.05325 3.464646 -0.4134325 1 1 1
v 2.397577 3.723746 -0.2577205 1 1 1
v 2.821128 4.339336 -0.3301489 1 1 1
v 3.973871 4.535372 -0.5428647 1 1 1
v 4.326154 4.840928 -0.5351838 1 1 1
v 2.38156 3.496783 -0.2307901 1 1 1
v 2.438489 3.927576 -0.1757166 1 1 1
v 3.652041 4.564883 -0.4211704 1 1 1
v 4.298171 4.884267 -0.5097803 1 1 1
v 4.617408 4.984183 -0.6364757 1 1 1
v 2.498814 3.654128 -0.2192923 1 1 1
v 2.849817 4.307625 -0.2448994 1 1 1
v 3.967408 4.559508 -0.4748011 1 1 1
v 4.601087 5.016758 -0.6194243 1 1 1
v 4.839152 5.147193 -0.6149577 1 1 1
v 2.537497 3.868917 -0.1346545 1 1 1
v 3.668074 4.533044 -0.3437172 1 1 1
v 4.294343 4.904212 -0.4559821 1 1 1
v 4.829846 5.163176 -0.6062171 1 1 1
v 4.915119 5.172528 -0.5757027 1 1 1
v 4.600153 5.03192 -0.5821746 1 1 1
v 3.984972 4.533692 -0.4093645 1 1 1
v 2.898041 4.231342 -0.2140556 1 1 1
v 4.825385 5.168582 -0.5869991 1 1 1
v 4.316911 4.889078 -0.4053036 1 1 1
v 3.685412 4.455492 -0.3128168 1 1 1
v 4.615154 5.020788 -0.5465468 1 1 1
v 4.016276 4.473046 -0.3848864 1 1 1
v 4.828382 5.160244 -0.5685612 1 1 1
v 4.352656 4.847732 -0.3874313 1 1 1
v 4.637302 4.989882 -0.5334111 1 1 1
v 4.837081 5.143046 -0.5617039 1 1 1
v 2.937551 4.15517 -0.2556855 1 1 1
v 3.6939 4.377656 -0.3465704 1 1 1
v 4.042981 4.413096 -0.4157061 1 1 1
v 4.38064 4.804393 -0.4128349 1 1 1
v 4.653624 4.957305 -0.5504625 1 1 1
v 4.846388 5.127064 -0.5704445 1 1 1
v 2.640199 3.825895 -0.1849027 1 1 1
v 2.617652 3.658888 -0.2526612 1 1 1
v 2.500252 3.439404 -0.3083692 1 1 1
v 2.661104 3.673025 -0.3630057 1 1 1
v 2.685978 3.823004 -0.2987812 1 1 1
v 2.617779 3.670668 -0.5038272 1 1 1
v 2.117115 3.360814 -0.50967 1 1 1
v 2.945203 4.123733 -0.3454027 1 1 1
v 2.647187 3.861994 -0.4086843 1 1 1
v 3.688566 4.345131 -0.4252052 1 1 1
v 2.156784 3.36012 -0.6598278 1 1 1
v 2.482648 3.456669 -0.4590699 1 1 1
v 1.988384 3.276207 -0.48942 1 1 1
v 2.916513 4.155443 -0.4306523 1 1 1
v 4.049444 4.38896 -0.4837697 1 1 1
v 1.991989 3.258193 -0.6494091 1 1 1
v 2.149017 3.462967 -0.7759451 1 1 1
v 2.509698 3.514483 -0.5853641 1 1 1
v 1.81312 2.92749 -0.3923376 1 1 1
v 3.672534 4.37697 -0.5026586 1 1 1
v 4.384468 4.784449 -0.466633 1 1 1
v 1.916449 3.322154 -0.7705518 1 1 1
v 1.82825 2.916665 -0.5778745 1 1 1
v 4.031879 4.414777 -0.5492065 1 1 1
v 4.654557 4.942144 -0.5877123 1 1 1
v 1.72031 2.965069 -0.7220142 1 1 1
v 4.3619 4.799582 -0.5173115 1 1 1
v 4.850849 5.121657 -0.5896626 1 1 1
v 4.639556 4.953276 -0.6233401 1 1 1
v 4.847852 5.129995 -0.6081005 1 1 1
v 4.839152 5.147193 -0.6149577 1 1 1
v 4.617408 4.984183 -0.6364757 1 1 1
v 4.326154 4.840928 -0.5351838 1 1 1
v 4.000576 4.475423 -0.5736844 1 1 1
v 3.655195 4.454522 -0.533559 1 1 1
v 2.86829 4.231727 -0.461496 1 1 1
v 2.54797 3.921363 -0.4500399 1 1 1
v 2.533563 3.753432 -0.5393238 1 1 1
v 2.459679 3.657293 -0.6002426 1 1 1
v 2.098366 3.609112 -0.7900024 1 1 1
v 1.806603 3.431146 -0.7893053 1 1 1
v 1.552532 3.044347 -0.7403215 1 1 1
v 1.403285 2.592835 -0.840784 1 1 1
v 1.605752 2.543545 -0.81569 1 1 1
v 1.528755 2.418734 -0.8264019 1 1 1
v 0.8931847 2.153438 -0.7768732 1 1 1
v 1.716975 2.464536 -0.6512027 1 1 1
v 1.037453 2.009219 -0.7528068 1 1 1
v 0.6162623 1.82498 -0.6441409 1 1 1
v 1.642282 2.337492 -0.6563361 1 1 1
v 1.696933 2.471894 -0.4385998 1 1 1
v 0.819836 1.709102 -0.6392158 1 1 1
v 0.4237657 1.287557 -0.3414186 1 1 1
v 1.151084 1.942302 -0.5953204 1 1 1
v 1.620688 2.345606 -0.4371623 1 1 1
v 1.55744 2.561519 -0.3028183 1 1 1
v 1.475919 2.438561 -0.2969672 1 1 1
v 0.6686977 1.197948 -0.3588421 1 1 1
v 0.1994868 0.728318 -0.09108543 1 1 1
v 0.9974141 1.692554 -0.4872735 1 1 1
v 1.167514 1.991887 -0.3966669 1 1 1
v 1.077118 2.128928 -0.2732153 1 1 1
v 1.044974 1.785031 -0.2773201 1 1 1
v 0.4453371 0.5274119 -0.07404348 1 1 1
v 0.8828515 1.215203 -0.2099618 1 1 1
v 0.9407791 1.329212 0.01801011 1 1 1
v 0.6579806 0.4829576 0.1305628 1 1 1
v 0.2996313 0.1341719 0.5634716 1 1 1
v 2.986343 3.3628 -0.6055775 1 1 1
v 3.355771 3.110407 -0.2719114 1 1 1
v 2.721958 3.467229 -0.576416 1 1 1
v 2.509698 3.514483 -0.5853641 1 1 1
v 2.617779 3.670668 -0.5038272 1 1 1
v 2.810697 3.599967 -0.5342386 1 1 1
v 3.053204 3.521273 -0.5725107 1 1 1
v 3.441536 3.111131 -0.4047174 1 1 1
v 3.458138 3.269349 -0.3906608 1 1 1
v 3.549719 3.253375 -0.3253562 1 1 1
v 3.534549 3.099316 -0.3404231 1 1 1
v 3.449328 3.096407 -0.2110477 1 1 1
v 3.865275 3.247123 0.1764516 1 1 1
v 3.949786 3.251373 0.06682844 1 1 1
v 3.90113 3.376848 0.03418291 1 1 1
v 4.06921 3.418117 0.2893574 1 1 1
v 4.11095 3.403422 0.1772491 1 1 1
v 4.0613 3.508407 0.145003 1 1 1
v 4.181584 3.466098 0.2851926 1 1 1
v 4.167118 3.436474 0.1884124 1 1 1
v 4.147151 3.533153 0.1618041 1 1 1
v 4.444928 3.453368 0.1485628 1 1 1
v 4.425813 3.428955 0.07140871 1 1 1
v 4.425316 3.508266 0.04643684 1 1 1
v 4.981064 3.427262 0.1288605 1 1 1
v 4.964154 3.408992 0.07157668 1 1 1
v 4.958205 3.468714 0.05428506 1 1 1
v 5.443008 3.483209 -0.1838929 1 1 1
v 5.435296 3.472617 -0.2195061 1 1 1
v 5.419541 3.506491 -0.2261681 1 1 1
v 5.758704 3.725496 -0.2116438 1 1 1
v 2.946565 2.091326 1.22633 0 0 0
v 3.472477 2.393999 1.311249 1 1 1
v 3.742882 2.004471 1.024981 1 1 1
v 3.21697 1.701798 0.9400623 0 0 0
v 3.569106 1.80037 1.10645 0 0 0
v 3.829307 2.011902 1.025813 0.9960784 0.9960784 0.9960784
v 3.948119 1.896274 1.105875 0.9960784 0.9960784 0.9960784
v 3.68792 1.684741 1.186512 0 0 0
v 3.99134 1.872109 1.085688 0 0 0
v 4.251147 1.882962 1.004914 0.9960784 0.9960784 0.9960784
v 4.274036 1.732602 1.058334 0.9960784 0.9960784 0.9960784
v 4.014228 1.72175 1.139107 0 0 0
v 3.512822 2.181298 0.847385 0 0 0
v 3.916793 2.346895 0.6692262 1 1 1
v 4.108805 2.204755 0.9724894 1 1 1
v 3.704833 2.039158 1.150648 0 0 0
v 1.361446 4.003172 -0.04652955 0 0 0
v 1.737812 4.652701 0.2396689 1 1 1
v 2.260043 4.425455 0.06864464 1 1 1
v 1.883677 3.775925 -0.2175539 0 0 0
v 3.732822 4.919986 -0.3529566 0 0 0
v 4.932811 5.653277 -0.5792298 1 1 1
v 5.323729 4.966815 -0.7307267 1 1 1
v 4.123739 4.233524 -0.5044535 0 0 0
v 3.608675 4.652076 -0.7620776 0 0 0
v 4.957281 4.813379 -0.332972 1 1 1
v 4.892686 4.151137 0.118981 1 1 1
v 3.54408 3.989834 -0.3101245 0 0 0
v 4.97861 3.757479 0.3484401 0 0 0
v 5.244621 4.190442 0.3414927 1 1 1
v 5.618751 3.958988 0.2424517 1 1 1
v 5.35274 3.526025 0.2493989 0 0 0
v 3.634303 1.212942 0.3137606 0 0 0
v 3.990821 1.064605 0.2853907 0.9960784 0.9960784 0.9960784
v 3.916031 0.8744282 0.3398984 0.9960784 0.9960784 0.9960784
v 3.559513 1.022766 0.3682683 0 0 0
v 3.120881 4.667576 -0.4632895 0.003921569 0.003921569 0.003921569
v 4.172039 5.321002 -0.4391643 1 1 1
v 4.604383 4.616705 -0.201037 1 1 1
v 3.553225 3.963278 -0.2251622 0 0 0
v 5.582655 3.714625 -0.2184614 0 0 0
v 5.937226 3.862077 -0.1689542 0.9960784 0.9960784 0.9960784
v 6.019009 3.667093 -0.1739427 0.9960784 0.9960784 0.9960784
v 5.664437 3.519642 -0.2234499 0 0 0
vn 0.8246711 -0.5596751 -0.08173893
vn 0.8250727 -0.5648593 0.01374697
vn 0.8250727 -0.5648593 0.01374697
vn 0.8254796 -0.5614528 -0.05791584
vn 0.8181838 -0.5509968 -0.1642495
vn 0.8181838 -0.5509968 -0.1642495
vn -0.2890234 -0.4936858 -0.8202072
vn -0.1313952 -0.8284317 0.5444596
vn -0.08529031 -0.7839621 0.614922
vn -0.482642 -0.4272383 -0.7645417
vn 0.1435777 0.8245134 -0.5473236
vn -0.09541335 -0.895326 0.4350722
vn 0.1870722 0.8597994 -0.4751303
vn -0.468032 -0.4609339 -0.7539801
vn 0.05770543 -0.9263343 0.3722564
vn 0.01517355 0.802203 -0.5968586
vn 0.06549434 -0.4929148 -0.867609
vn 0.05777739 -0.8342376 0.5483697
vn -0.001888585 0.7944629 -0.6073099
vn 0.3647966 -0.4326208 -0.8244772
vn 0.9822066 -0.03795104 0.1839288
vn 0.1408782 0.8985757 -0.41559
vn 0.3012694 0.4901393 0.8179243
vn 0.1435777 0.8245134 -0.5473236
vn 0.1870722 0.8597994 -0.4751303
vn 0.4925385 0.4234992 0.7602988
vn -0.1313952 -0.8284317 0.5444596
vn 0.01517355 0.802203 -0.5968586
vn -0.08529031 -0.7839621 0.614922
vn 0.478386 0.3846519 0.7894237
vn -0.001888585 0.7944629 -0.6073099
vn -0.09541335 -0.895326 0.4350722
vn -0.021648 0.4940696 0.8691528
vn 0.1408782 0.8985757 -0.41559
vn 0.05770543 -0.9263343 0.3722564
vn -0.1431007 0.5100549 0.8481546
vn 0.9822066 -0.03795104 0.1839288
vn 0.05777739 -0.8342376 0.5483697
vn -0.5947666 0.8020086 -0.05509172
vn -0.3404861 -0.3119709 -0.8869855
vn -0.2601351 -0.1599988 -0.9522238
vn -0.4180665 0.8885473 -0.1889548
vn 0.3492126 0.3174702 0.8816254
vn 0.0008567913 -0.3059223 -0.9520561
vn 0.1895581 0.3511163 0.9169433
vn -0.4957219 0.8591378 -0.1270517
vn -0.09293085 -0.01626854 -0.9955397
vn 0.1853136 0.07491987 0.9798193
vn -0.4639399 0.8766602 -0.1273842
vn 0.9797078 0.1812591 -0.08554362
vn 0.05280291 0.3316458 0.9419251
vn 0.6031865 -0.7960333 0.04996989
vn 0.3492126 0.3174702 0.8816254
vn 0.1895581 0.3511163 0.9169433
vn 0.4022224 -0.9135339 0.06060542
vn -0.3404861 -0.3119709 -0.8869855
vn 0.1853136 0.07491987 0.9798193
vn -0.2601351 -0.1599988 -0.9522238
vn 0.5294165 -0.8404117 0.1158728
vn 0.05280291 0.3316458 0.9419251
vn 0.0008567913 -0.3059223 -0.9520561
vn 0.5718375 -0.8154892 0.08932666
vn 0.9797078 0.1812591 -0.08554362
vn -0.09293085 -0.01626854 -0.9955397
vn -0.4080922 -0.2174 0.886678
vn 0.6151071 0.6536625 0.4408725
vn 0.3862243 0.7765648 0.4977731
vn -0.3033738 -0.4057681 0.8621581
vn -0.6013954 -0.6678629 -0.4385006
vn 0.05716532 0.8922608 0.4478871
vn -0.4125232 -0.8425342 -0.3463534
vn 0.0551425 -0.449064 0.8917964
vn 0.9809364 0.1769755 -0.08027146
vn 0.02145738 -0.9374753 -0.3473899
vn 0.4223213 0.2036577 -0.8832714
vn -0.6013954 -0.6678629 -0.4385006
vn -0.4125232 -0.8425342 -0.3463534
vn 0.2289331 0.2046828 -0.9516799
vn 0.6151071 0.6536625 0.4408725
vn 0.02145738 -0.9374753 -0.3473899
vn 0.3862243 0.7765648 0.4977731
vn 0.01957622 0.3273782 -0.9446906
vn 0.9809364 0.1769755 -0.08027146
vn 0.05716532 0.8922608 0.4478871
vn 0.09948113 0.7485631 -0.6555583
vn 0.9592015 0.1082758 0.2611683
vn 0.9691644 -0.008029638 0.2462843
vn 0.07349903 0.6467533 -0.7591496
vn -0.9778563 -0.04705805 -0.2039181
vn 0.9608551 -0.2327419 0.1502954
vn -0.9961149 0.00120562 -0.08805553
vn 0.0264329 0.3513627 -0.9358662
vn 0.8948333 -0.4233763 -0.1415124
vn -0.966579 0.2477508 0.06591474
vn 0.105474 0.3699073 -0.9230621
vn 0.5645452 0.6310165 0.5320779
vn -0.8184339 0.5740234 -0.02574863
vn -0.1164416 -0.6893144 0.7150434
vn -0.9778563 -0.04705805 -0.2039181
vn -0.9961149 0.00120562 -0.08805553
vn -0.1781324 -0.5735927 0.7995375
vn 0.9592015 0.1082758 0.2611683
vn -0.966579 0.2477508 0.06591474
vn 0.9691644 -0.008029638 0.2462843
vn -0.1565395 -0.2422195 0.9575099
vn -0.8184339 0.5740234 -0.02574863
vn 0.9608551 -0.2327419 0.1502954
vn -0.1610612 -0.2224165 0.9615561
vn 0.5645452 0.6310165 0.5320779
vn 0.8948333 -0.4233763 -0.1415124
vn 0.2926082 0.5107245 -0.8084188
vn 0.8085369 -0.582869 -0.08082013
vn 0.7071178 -0.6944844 -0.1329511
vn 0.210281 0.5233068 -0.8257917
vn -0.7607262 0.6366667 0.1262986
vn 0.740994 -0.6675327 -0.07299231
vn -0.658589 0.719309 0.2210319
vn 0.1134993 0.2261958 -0.9674469
vn 0.5399967 0.839181 -0.06464418
vn -0.6431239 0.6925604 0.3267289
vn -0.2425898 -0.4589498 0.8547019
vn -0.7607262 0.6366667 0.1262986
vn -0.658589 0.719309 0.2210319
vn -0.2496471 -0.3715371 0.894224
vn 0.8085369 -0.582869 -0.08082013
vn -0.6431239 0.6925604 0.3267289
vn 0.7071178 -0.6944844 -0.1329511
vn 0.1024618 -0.2585782 0.960541
vn 0.5399967 0.839181 -0.06464418
vn 0.740994 -0.6675327 -0.07299231
vn -0.6208828 -0.7658889 -0.1670893
vn 0.7795517 -0.5704724 -0.2585738
vn 0.7069632 -0.7035913 -0.0718494
vn -0.6726429 -0.6542694 -0.3456631
vn -0.7812803 0.5768911 0.2383229
vn 0.4241612 -0.8380902 0.3430626
vn -0.8093491 0.5872802 -0.007483387
vn -0.4651663 -0.5127266 -0.7216175
vn 0.3894798 -0.8023719 0.4522221
vn -0.4839735 0.7288318 -0.4843283
vn -0.01355744 -0.6384998 -0.7695026
vn 0.3947091 -0.8165466 0.4212557
vn -0.3627915 0.7183729 -0.5935677
vn 0.2357521 -0.3123546 -0.9202475
vn 0.934316 0.1689352 0.3138704
vn -0.2481926 0.8120406 -0.5281953
vn 0.6194527 0.7712594 0.1464149
vn -0.7812803 0.5768911 0.2383229
vn -0.8093491 0.5872802 -0.007483387
vn 0.5158587 0.7908574 0.3292938
vn 0.7795517 -0.5704724 -0.2585738
vn -0.4839735 0.7288318 -0.4843283
vn 0.7069632 -0.7035913 -0.0718494
vn 0.3363616 0.7526621 0.5660042
vn -0.3627915 0.7183729 -0.5935677
vn 0.4241612 -0.8380902 0.3430626
vn 0.1353749 0.4742206 0.8699359
vn -0.2481926 0.8120406 -0.5281953
vn 0.3894798 -0.8023719 0.4522221
vn -0.2004816 0.5824504 0.7877554
vn 0.934316 0.1689352 0.3138704
vn 0.3947091 -0.8165466 0.4212557
vn 0.5871678 -0.2828392 -0.7584432
vn -0.3966409 -0.9171916 0.03788682
vn -0.104551 -0.9604912 0.2579258
vn 0.4529206 -0.406493 -0.7934899
vn 0.5281516 0.8469098 0.06164099
vn 0.2854048 -0.9155507 0.283392
vn 0.213444 0.9753723 -0.05559283
vn 0.4730498 -0.1950738 -0.8591683
vn 0.3255442 -0.7932832 0.5145122
vn -0.09998316 0.9317629 -0.349029
vn 0.2524111 -0.3589002 -0.8985986
vn 0.9144991 0.28612 -0.2860537
vn -0.2286215 0.9574347 -0.1762131
vn -0.4479635 0.2251175 0.8652461
vn 0.5281516 0.8469098 0.06164099
vn 0.213444 0.9753723 -0.05559283
vn -0.3453966 0.07945766 0.935087
vn -0.3966409 -0.9171916 0.03788682
vn -0.09998316 0.9317629 -0.349029
vn -0.104551 -0.9604912 0.2579258
vn -0.3366873 0.233403 0.9122306
vn -0.2286215 0.9574347 -0.1762131
vn 0.2854048 -0.9155507 0.283392
vn -0.1744276 0.2873744 0.941802
vn 0.9144991 0.28612 -0.2860537
vn 0.3255442 -0.7932832 0.5145122
vn 0.4598424 0.8733506 0.1606352
vn 0.2233087 0.7287541 -0.6473413
vn 0.2245141 0.7690013 -0.5985234
vn 0.3845217 0.9158758 0.1153893
vn 0.4976146 0.02563564 0.8670194
vn 0.4070027 0.6823223 -0.6072767
vn 0.453133 0.3359265 0.8257263
vn 0.1258502 -0.8675021 0.4812503
vn 0.246003 0.6200621 0.744987
vn 0.5585782 0.6079246 -0.5642855
vn 0.03200009 -0.8536803 0.5198134
vn -0.1340328 -0.9635096 -0.2316991
vn -0.1333714 0.6245697 0.7694965
vn -0.3810164 -0.7869003 0.4854012
vn -0.237418 -0.9480834 -0.2115905
vn -0.5108505 -0.7334449 0.4484311
vn -0.3336633 -0.7749097 0.5368275
vn -0.5021515 0.65581 0.5636995
vn 0.4735652 0.6565011 -0.5871477
vn 0.2302537 0.6557106 -0.7190458
vn -0.668112 0.5740799 0.4733484
vn -0.1487261 -0.6619927 0.7346062
vn -0.01618882 0.6388913 -0.7691267
vn -0.4750804 0.7181624 0.5084697
vn 0.05908427 -0.4227275 0.9043288
vn -0.1487558 0.6109385 -0.7775769
vn 0.0348985 0.8563589 0.5152004
vn 0.3021143 -0.3369483 0.8917359
vn -0.141479 0.4263397 -0.8934305
vn 0.1766799 0.9186571 0.353346
vn 0.1954761 -0.5090016 0.8382759
vn -0.2217782 0.4923628 -0.8416611
vn 0.1766672 0.8281376 0.5319556
vn 0.2869205 -0.4358813 0.8530441
vn -0.3703971 0.3415233 -0.8638101
vn -0.1199918 0.8631198 0.4905367
vn 0.4975658 -0.5545398 0.6670186
vn 0.8178049 0.5752348 -0.01732312
vn -0.5010992 -0.1156706 0.8576246
vn -0.5633121 -0.3717023 0.7379138
vn -0.9419611 -0.1985035 0.2707504
vn -0.9488325 0.1175313 0.2930926
vn -0.9047003 -0.2436126 -0.3495286
vn -0.9056523 0.2232284 0.3605038
vn -0.3825562 0.07000013 0.9212767
vn -0.8888511 0.1199289 -0.4422225
vn -0.5004101 -0.4612592 -0.7326866
vn -0.8568187 0.2638778 -0.4429788
vn -0.953563 0.07013635 0.2929138
vn -0.4703124 -0.05973238 0.8804762
vn -0.3887656 -0.09077581 -0.9168539
vn 0.006763038 -0.7165231 -0.6975306
vn -0.2588295 0.1568616 -0.9531012
vn -0.8773685 0.1732508 -0.4474469
vn -0.9312875 0.1312468 0.3398204
vn -0.4621355 -0.1676537 0.8708175
vn 0.2587294 -0.3941094 -0.8818939
vn 0.3625031 -0.8864462 -0.287758
vn 0.4787453 -0.0212607 -0.8776963
vn -0.3105538 0.1956853 -0.9301955
vn -0.842647 0.3929102 -0.368195
vn -0.9221532 0.1993442 0.3315049
vn -0.5876127 -0.365535 0.7218694
vn 0.6926838 -0.6243368 -0.3610995
vn 0.3744972 -0.8740291 0.3095559
vn 0.9374822 -0.1607194 -0.308701
vn 0.4322118 0.127425 -0.8927238
vn -0.2726954 0.4642653 -0.8426713
vn -0.7355213 0.6466936 -0.2019801
vn -0.8572484 0.1900291 0.4785543
vn -0.667792 -0.5418384 0.5103579
vn 0.937593 0.003460527 -0.3477175
vn 0.4571167 0.3058629 -0.83516
vn -0.163506 0.7733718 -0.6125047
vn -0.569102 0.8029327 0.1772627
vn -0.6843492 0.1393753 0.7157099
vn -0.567482 -0.5784639 0.5859554
vn 0.9450969 -0.000546842 -0.3267899
vn 0.5024223 0.5097393 -0.6983822
vn 0.02974578 0.975775 -0.2167448
vn -0.4205248 0.7848714 0.4551217
vn -0.2937222 0.1427155 0.945177
vn -0.1311417 -0.5583383 0.8191826
vn 0.9153917 -0.01923384 -0.4021046
vn 0.6203811 0.6155236 -0.4860639
vn 0.1048036 0.9928648 -0.05688298
vn -0.2801586 0.7721992 0.5702803
vn 0.02790342 0.2497934 0.9678971
vn 0.1482645 -0.4845575 0.8621031
vn -0.06261293 -0.524233 0.8492699
vn -0.05300555 0.8510956 0.5223281
vn -0.08774434 0.9879547 -0.1274614
vn 0.6030829 0.6062572 -0.5184044
vn 0.05369097 0.246086 0.9677597
vn -0.07457221 0.9727029 -0.2197457
vn 0.2125494 0.5889674 -0.7797052
vn -0.03068826 0.1182899 0.9925048
vn 0.0438303 -0.5824395 0.8116916
vn 0.1682843 0.8388693 0.5176666
vn -0.02620179 0.5535769 -0.8323857
vn -0.06414656 0.7970447 0.6005039
vn -0.09867141 0.1929442 0.9762359
vn 0.3319633 -0.422708 0.8432783
vn 0.213194 0.9565103 -0.199089
vn -0.009886728 0.9710137 -0.2388193
vn -0.4673891 0.7113048 0.5249695
vn -0.1028427 0.2636301 0.9591259
vn 0.3153528 -0.3722324 0.8729236
vn -0.5262489 0.8173024 -0.234689
vn -0.438167 0.7500876 0.4953567
vn -0.02699433 0.3050039 0.9519684
vn 0.1578373 -0.4426001 0.8827189
vn -0.5109974 0.8253176 -0.2402757
vn -0.1686779 0.8623796 0.4773355
vn 0.003548429 0.1890511 0.9819608
vn 0.2465227 -0.4965364 0.8322729
vn -0.1971098 0.9488245 -0.2467384
vn -0.2331342 0.7983264 0.5552688
vn 0.05545869 0.3404372 0.9386303
vn 0.3654836 -0.3440431 0.8649024
vn -0.3056611 0.916573 -0.2578083
vn -0.2556182 0.8358369 0.4858354
vn 0.2580006 0.3621752 0.8956923
vn 0.3366996 -0.3950369 0.8547392
vn 0.9625609 0.0146582 -0.270669
vn 0.07206076 0.9048167 0.4196593
vn -0.4000605 0.8877088 -0.2278698
vn -0.1158146 0.9483237 -0.2954133
vn -0.2034173 0.4620515 -0.8632091
vn -0.3025388 0.4715951 -0.8282924
vn -0.147038 0.4245643 -0.8933783
vn -0.1348863 -0.3007469 -0.944117
vn 0.001170672 -0.2196544 -0.975577
vn -0.1004983 0.53042 -0.8417569
vn 0.05541255 -0.8843616 -0.4635019
vn 0.113998 -0.295433 -0.9485378
vn -0.2847314 0.4523854 -0.8451483
vn 0.2533906 -0.9225487 0.2910278
vn 0.3366996 -0.3950369 0.8547392
vn 0.3412737 -0.7848343 -0.5172691
vn 0.4910907 -0.8282161 0.2699776
vn 0.3654836 -0.3440431 0.8649024
vn 0.07534019 -0.1915341 -0.9785901
vn 0.3182786 -0.8176719 -0.4796993
vn 0.371203 -0.8976628 0.2375078
vn 0.2465227 -0.4965364 0.8322729
vn 0.2350502 -0.814105 -0.5310221
vn 0.2727041 -0.9261479 0.2605428
vn 0.1578373 -0.4426001 0.8827189
vn 0.1253304 -0.1751179 -0.9765378
vn 0.5682559 -0.7816816 0.2570196
vn 0.3153528 -0.3722324 0.8729236
vn 0.4874958 -0.6984928 -0.5238853
vn -0.222579 0.4545084 -0.8624852
vn 0.5873563 -0.7704641 0.2477854
vn 0.3319633 -0.422708 0.8432783
vn 0.5544665 -0.6822364 -0.4765714
vn 0.2375709 -0.1860621 -0.9533839
vn 0.1252666 0.4718224 -0.8727496
vn 0.1387977 -0.9670566 0.2133936
vn 0.0438303 -0.5824395 0.8116916
vn 0.2027041 -0.8437964 -0.4969091
vn 0.2026766 -0.2686078 -0.9416857
vn 0.1867772 0.5576766 -0.8087714
vn -0.0820678 -0.9770525 0.1965537
vn -0.06261293 -0.524233 0.8492699
vn 0.1482645 -0.4845575 0.8621031
vn -0.006649376 -0.8191273 -0.5735732
vn 0.1032459 -0.1667418 -0.9805802
vn 0.09684371 -0.1736495 -0.9800343
vn 0.2473607 -0.9363781 0.2490157
vn 0.2308725 -0.8116439 -0.536593
vn 0.4134332 -0.2304218 -0.8808966
vn 0.1297863 -0.9526799 0.2748753
vn -0.1311417 -0.5583383 0.8191826
vn 0.3598888 -0.8417014 -0.4025155
vn 0.7415277 -0.1621499 -0.6510332
vn -0.123932 -0.9823937 0.1397982
vn -0.567482 -0.5784639 0.5859554
vn 0.4221693 -0.82564 -0.3742883
vn 0.8722104 -0.1036009 -0.4780335
vn 0.5909879 -0.7853695 -0.1841959
vn -0.07222401 -0.9695357 0.2340603
vn -0.667792 -0.5418384 0.5103579
vn 0.8242016 -0.5425565 0.1622471
vn 0.1752612 -0.7155297 0.6762402
vn -0.5876127 -0.365535 0.7218694
vn 0.874064 -0.2664239 0.4062395
vn 0.2847006 -0.3290089 0.9003881
vn -0.4621355 -0.1676537 0.8708175
vn 0.9043404 -0.108457 0.4128021
vn 0.3160811 -0.1368874 0.9388049
vn -0.4703124 -0.05973238 0.8804762
vn 0.8841199 -0.1885302 0.4275377
vn 0.3510318 -0.09551639 0.9314791
vn -0.3825562 0.07000013 0.9212767
vn 0.6693261 -0.6497797 0.3602623
vn -0.007552953 -0.6590824 0.7520328
vn 0.1830764 -0.4422133 0.8780264
vn -0.5010992 -0.1156706 0.8576246
vn -0.5633121 -0.3717023 0.7379138
vn -0.07475599 -0.2959574 -0.9522714
vn -0.1545408 -0.6055267 -0.7806756
vn 0.408714 -0.7487481 -0.5218516
vn 0.5384391 -0.5103201 -0.6705645
vn 0.6623778 -0.7449429 0.07947178
vn 0.69066 -0.1312142 -0.7111763
vn 0.09365276 0.1492478 -0.9843547
vn 0.8197854 -0.572556 0.01146957
vn 0.4256914 -0.5946721 0.6820205
vn 0.9307787 -0.3628651 -0.04449763
vn 0.6770647 -0.04989351 -0.7342303
vn 0.1768913 0.3852616 -0.9056947
vn 0.555874 -0.4026109 0.727261
vn -0.186481 -0.4090181 0.8932687
vn 0.6155527 -0.3577334 0.7022262
vn 0.818592 -0.5616993 -0.1200044
vn 0.4828627 -0.272364 -0.8322629
vn 0.1939895 0.3706394 -0.9082921
vn -0.1092613 -0.136731 0.9845642
vn -0.7600719 -0.2975464 0.5777169
vn -0.06271691 -0.08323283 0.9945546
vn 0.3182954 -0.6789964 0.6615527
vn 0.4885158 -0.8505822 -0.1945824
vn 0.2712762 -0.4908645 -0.8279259
vn -0.1275816 0.055412 -0.990279
vn -0.7449431 0.05091128 0.6651825
vn -0.9529405 -0.3024191 -0.02114367
vn -0.7104426 0.2171159 0.6694266
vn -0.2819007 -0.2936179 0.9134115
vn 0.1526649 -0.7833285 0.6025695
vn 0.4474521 -0.8619183 -0.2385026
vn -0.9961218 0.08013345 -0.03633043
vn -0.7081385 -0.4206008 -0.5671287
vn 0.3543731 -0.7448286 0.5653761
vn 0.2224802 -0.1722332 0.9596032
vn -0.2015578 -0.2630944 0.9434807
vn 0.6239833 -0.7478858 -0.2265211
vn -0.919278 0.3870171 -0.07173311
vn -0.7086321 -0.05928187 -0.7030834
vn -0.1545408 -0.6055267 -0.7806756
vn -0.07475599 -0.2959574 -0.9522714
vn 0.09365276 0.1492478 -0.9843547
vn -0.5665653 0.3542736 -0.7439717
vn 0.1768913 0.3852616 -0.9056947
vn -0.4542706 0.6369996 -0.6227919
vn 0.1939895 0.3706394 -0.9082921
vn -0.833128 0.5512447 0.04502223
vn -0.2780443 0.7905936 -0.545576
vn -0.7202003 0.172016 0.6721027
vn -0.6413857 0.7438664 0.1878488
vn -0.5938395 0.2528327 0.763826
vn -0.383685 0.3825664 0.8404932
vn -0.4272377 0.8637893 0.2670879
vn -0.1599148 0.8352529 -0.5260987
vn -0.4597929 0.7026701 -0.5429965
vn -0.1275816 0.055412 -0.990279
vn -0.4703342 -0.1169318 -0.8747072
vn -0.130835 0.4001877 0.9070458
vn -0.4322144 0.829375 0.3540167
vn -0.8426013 0.3494035 -0.4098051
vn -0.5431303 -0.2021945 -0.8149397
vn -0.6767086 0.6521451 0.3417195
vn -0.925069 0.2233912 -0.3071544
vn -0.512966 -0.1183602 -0.8502098
vn -0.09026088 0.5079336 0.8566542
vn -0.75082 0.5521344 0.3625147
vn -0.8593113 0.3393821 -0.3826276
vn -0.3455296 0.07736246 -0.9352135
vn -0.6732627 0.5548381 -0.4887455
vn -0.1646563 0.1796508 -0.9698526
vn -0.7132137 0.6428287 0.2794592
vn -0.1182492 0.5840935 0.8030267
vn -0.6781958 0.5082427 -0.5307918
vn -0.2794915 0.1934638 -0.9404554
vn -0.6239218 0.750346 0.218409
vn -0.7921257 0.4356734 -0.4274643
vn -0.2554941 0.186697 -0.9486132
vn 0.5148408 0.1044052 0.8509045
vn -0.1406705 0.6254119 0.7675101
vn -0.7819627 0.5550778 0.2835894
vn -0.6177613 0.6174082 -0.4870094
vn 0.1058651 0.3686023 -0.9235394
vn 0.5866039 0.3040971 0.7506137
vn 0.8622336 -0.3191413 0.3933219
vn -0.2069507 0.5469766 0.8111647
vn -0.3451103 0.2430148 0.9065554
vn -0.829084 0.4652303 0.3101297
vn -0.1961579 0.8530765 -0.4835107
vn 0.3542705 0.3321756 -0.8741578
vn 0.5484588 0.2868914 0.7854211
vn -0.6349928 0.7359137 0.234979
vn -0.1324121 0.8712165 -0.4727038
vn 0.2949075 0.3811693 -0.8762075
vn -0.3956487 0.2796922 0.8747768
vn -0.4061269 0.8868119 0.2205122
vn -0.3546883 0.6345849 -0.6866574
vn 0.02886417 0.2882239 -0.9571279
vn -0.2862118 0.4802176 0.8291405
vn -0.4254507 0.8187109 0.3856218
vn -0.6161501 0.5350198 -0.5780249
vn -0.1066597 0.0685729 -0.9919282
vn 0.2814129 -0.02215565 0.959331
vn -0.3855564 0.4252686 0.8188363
vn -0.8064424 0.5844275 0.08997294
vn -0.412424 0.654862 -0.6332947
vn -0.1076317 0.03073668 -0.9937156
vn 0.2642191 -0.01136666 0.9643957
vn -0.3911504 0.2480585 0.8862666
vn -0.8609352 0.4975417 0.1060325
vn -0.1773262 0.7249688 -0.6655642
vn -0.006966994 -0.04176133 -0.9991033
vn -0.08363312 -0.3366325 0.9379147
vn -0.5366269 0.1705722 0.8263999
vn -0.4703081 0.8804185 0.06061018
vn -0.2947237 0.6002931 -0.7434959
vn -0.1583524 0.02537011 -0.9870566
vn -0.1240763 -0.4230683 0.8975624
vn -0.6315426 0.2465608 0.7350931
vn -0.1238668 0.9920354 0.02286191
vn -0.5269882 0.5990627 -0.6028328
vn -0.1124323 -0.03826784 -0.9929222
vn 0.04356752 -0.2493584 0.9674307
vn -0.2652847 0.6533629 0.7090423
vn -0.3855449 0.9224473 0.02111863
vn -0.4208501 0.5761458 -0.700672
vn 0.1867019 0.194874 -0.9628949
vn -0.0591606 -0.1041469 0.9928008
vn 0.0127493 0.7230654 0.6906619
vn -0.5582282 0.8240731 0.09635757
vn -0.1463853 0.7545521 -0.639705
vn 0.927631 0.3438217 0.1459023
vn -0.4548667 0.8905442 -0.005204595
vn -0.1667159 0.5945231 0.7866054
vn 0.1030702 0.08983942 0.9906086
vn -0.3038975 0.9516628 0.04454267
vn -0.2719274 0.6282237 0.7289653
vn 0.1642339 0.04208634 0.9855232
vn -0.1723364 0.6929093 0.7001263
vn 0.171582 -0.08703451 0.9813178
vn -0.1953085 0.6715558 0.71475
vn 0.1852293 0.1110198 0.976404
vn 0.2692338 0.08204411 0.9595739
vn 0.1288991 0.05279492 0.9902514
vn 0.4558234 -0.5465187 0.7025257
vn 0.2448876 -0.675994 0.6950268
vn 0.4203193 -0.667763 0.6143487
vn 0.5678728 -0.4614738 0.6815882
vn 0.5774271 -0.5458293 0.6071642
vn 0.4898212 -0.5576654 0.6701376
vn 0.5701113 -0.3804539 0.7281675
vn 0.5743565 -0.3705744 0.7299241
vn 0.1696551 -0.7755602 0.608049
vn 0.9911292 -0.1232461 -0.04973155
vn 0.9035702 -0.4279651 0.02016995
vn 0.6861435 0.1519311 -0.711424
vn 0.3071714 -0.8756433 0.3726855
vn 0.5371596 -0.8408269 -0.06685508
vn 0.683553 -0.1570463 -0.7128055
vn 0.2014467 -0.9793197 -0.01876707
vn 0.4322688 -0.8417944 -0.3233048
vn 0.3371294 -0.9175652 -0.2107554
vn 0.7050086 -0.5012578 0.5017006
vn 0.2843938 -0.5604514 -0.7778267
vn 0.4680907 -0.8806317 -0.07334146
vn 0.6803032 -0.65872 -0.3213654
vn 0.3567688 -0.3433961 -0.8687895
vn 0.5217287 -0.3093048 -0.7950659
vn 0.822445 -0.2712544 0.5000053
vn 0.05432643 -0.6880729 -0.723605
vn 0.6455994 -0.7633461 -0.02245389
vn 0.2630257 -0.3366769 -0.9041383
vn 0.9094217 -0.327545 -0.2562545
vn 0.2945125 -0.6260232 -0.7220508
vn 0.5741643 -0.8128241 -0.09824645
vn 0.4487438 -0.1360981 -0.8832363
vn 0.3473333 -0.5715973 -0.743395
vn 0.6507897 -0.7557582 -0.07281695
vn 0.2912159 -0.6013443 -0.7440284
vn 0.5146258 -0.4253644 -0.7444633
vn 0.1867019 0.194874 -0.9628949
vn -0.1124323 -0.03826784 -0.9929222
vn -0.1583524 0.02537011 -0.9870566
vn -0.006966994 -0.04176133 -0.9991033
vn -0.1076317 0.03073668 -0.9937156
vn -0.1066597 0.0685729 -0.9919282
vn 0.02886417 0.2882239 -0.9571279
vn 0.2949075 0.3811693 -0.8762075
vn 0.3542705 0.3321756 -0.8741578
vn 0.1058651 0.3686023 -0.9235394
vn -0.2554941 0.186697 -0.9486132
vn -0.2794915 0.1934638 -0.9404554
vn -0.1646563 0.1796508 -0.9698526
vn 0.5025333 -0.08180411 -0.860679
vn 0.3488948 -0.3394981 -0.8735064
vn -0.3455296 0.07736246 -0.9352135
vn 0.8947144 -0.3413357 -0.288056
vn 0.1913709 -0.4315281 -0.8815672
vn -0.512966 -0.1183602 -0.8502098
vn 0.7224396 -0.6295481 -0.2859198
vn 0.817077 -0.3628356 0.4480351
vn 0.1435255 -0.479026 -0.8659877
vn -0.5431303 -0.2021945 -0.8149397
vn 0.6499869 -0.6834379 -0.3323095
vn 0.6777678 -0.5748243 0.4584845
vn 0.2870546 -0.1477883 0.9464451
vn 0.2533142 -0.1783294 0.9508052
vn 0.1834153 -0.4766079 -0.8597696
vn -0.4703342 -0.1169318 -0.8747072
vn 0.7552131 -0.5212268 -0.3974617
vn 0.748584 -0.5118271 0.4214913
vn 0.3799554 0.01648358 0.924858
vn 0.9339848 -0.1945652 0.2996947
vn 0.2007465 -0.4823759 -0.8526514
vn 0.8084024 -0.431825 -0.4000161
vn 0.959613 -0.1093009 0.2592223
vn 0.7590784 -0.5749733 -0.3052958
vn 0.646282 -0.5777106 0.498568
vn -0.0901329 -0.4789358 -0.8732105
vn -0.5108505 -0.7334449 0.4484311
vn -0.156194 -0.3967493 -0.9045405
vn -0.09899812 -0.489938 -0.8661179
vn 0.2233087 0.7287541 -0.6473413
vn 0.2245141 0.7690013 -0.5985234
vn 0.4070027 0.6823223 -0.6072767
vn 0.1663461 -0.6928536 -0.7016287
vn 0.5585782 0.6079246 -0.5642855
vn 0.4735652 0.6565011 -0.5871477
vn 0.477522 -0.7096431 -0.5180534
vn -0.3336633 -0.7749097 0.5368275
vn -0.1487261 -0.6619927 0.7346062
vn 0.6808228 -0.6618098 -0.3138283
vn 0.2302537 0.6557106 -0.7190458
vn 0.05908427 -0.4227275 0.9043288
vn 0.6274579 -0.6710937 -0.3948796
vn -0.01618882 0.6388913 -0.7691267
vn 0.3021143 -0.3369483 0.8917359
vn 0.1682211 -0.8810831 -0.4420342
vn -0.1487558 0.6109385 -0.7775769
vn 0.1954761 -0.5090016 0.8382759
vn -0.1374228 -0.8457526 -0.515575
vn -0.141479 0.4263397 -0.8934305
vn 0.2869205 -0.4358813 0.8530441
vn -0.05719087 -0.9381921 -0.3413573
vn -0.2217782 0.4923628 -0.8416611
vn 0.4975658 -0.5545398 0.6670186
vn 0.1669747 -0.7897218 -0.590304
vn -0.3703971 0.3415233 -0.8638101
vn 0.8178049 0.5752348 -0.01732312
vn 3.176927E-05 1 -5.434453E-05
vn -4.935264E-05 1 -3.871321E-05
vn -9.000301E-06 1 -4.673749E-05
vn -8.553267E-06 1 -4.684925E-05
vn -5.239248E-05 1 -1.02818E-06
vn -1.132488E-05 1 5.573033E-06
vn 3.024936E-05 1 1.049042E-05
vn -1.15335E-05 1 4.649162E-06
vn 4.462152E-05 1 -3.310945E-05
vn -4.197656E-05 1 -7.569789E-06
vn 2.607703E-07 1 -1.970306E-05
vn 2.682209E-06 1 -2.101064E-05
vn -3.573298E-05 1 -2.801418E-06
vn -1.238286E-05 1 3.427267E-06
vn 1.075864E-05 1 1.001358E-05
vn -1.257658E-05 1 3.427267E-06
vn 3.036857E-05 1 -3.707409E-05
vn -5.51343E-05 1 -2.784282E-05
vn -1.251698E-05 1 -3.248453E-05
vn -1.245737E-05 1 -3.246963E-05
vn 1.853704E-05 1 1.189858E-05
vn 6.493926E-05 1 7.152557E-07
vn -2.783537E-05 1 2.297014E-05
vn 1.898408E-05 1 1.174212E-05
vn -1.533329E-05 1 2.816319E-06
vn 2.157688E-05 1 1.755357E-05
vn -5.262345E-05 1 -1.243874E-05
vn -1.545995E-05 1 2.771616E-06
vn 3.233552E-05 1 -3.41339E-05
vn -6.16312E-05 1 -1.591444E-05
vn -1.505017E-05 1 -2.517924E-05
vn -1.618266E-05 1 -2.495944E-05
vn -3.72529E-06 1 -1.28448E-05
vn 4.214048E-05 1 -2.129376E-05
vn -3.397465E-06 1 -1.288205E-05
vn -4.965067E-05 1 -5.304813E-06
vn 3.46005E-05 1 2.179574E-05
vn -5.766749E-05 1 6.228685E-06
vn -1.144409E-05 1 1.416169E-05
vn -1.144409E-05 1 1.402199E-05
vn 5.853176E-05 1 6.333366E-05
vn -3.567338E-05 1 5.29848E-05
vn 1.254678E-05 1 5.827844E-05
vn 9.953976E-06 1 5.846843E-05
vt 1.588373 0.04616809
vt 1.520814 0.05397099
vt 1.520814 0.1166003
vt 1.574712 0.1185803
vt 1.65083 0.05376703
vt 1.63558 0.1038393
vt 1.461423 0.1944672
vt 1.506489 0.1954536
vt 1.516802 0.08534712
vt 1.467987 0.08449554
vt 1.416327 0.1938794
vt 1.520814 -0.09757054
vt 1.419077 0.08360744
vt 1.481029 -0.09691978
vt 1.498506 -0.2102764
vt 1.438197 -0.09658146
vt 1.46115 -0.2081227
vt 1.477082 -0.2969004
vt 1.426263 -0.2068361
vt 1.446758 -0.2948723
vt 1.448088 -0.350767
vt 1.416327 -0.2954816
vt 1.45989 0.1963305
vt 1.416327 0.1976271
vt 1.426913 0.2964928
vt 1.468264 0.2955003
vt 1.503492 0.1954536
vt 1.437975 0.468865
vt 1.509641 0.294417
vt 1.481707 0.4696029
vt 1.420215 0.596173
vt 1.527607 0.4701079
vt 1.462654 0.5978415
vt 1.416327 0.6881158
vt 1.50271 0.6008801
vt 1.444556 0.6875346
vt 1.444928 0.7412071
vt 1.472166 0.6896041
vt 1.701655 -0.09025395
vt 1.679698 -0.09145176
vt 1.665482 -0.01285845
vt 1.686603 -0.01280874
vt 1.723609 -0.08891451
vt 1.675468 0.05613232
vt 1.707153 -0.01271015
vt 1.69849 0.05475938
vt 1.692702 0.1084198
vt 1.72167 0.05368704
vt 1.708128 0.1070705
vt 1.722595 0.1675196
vt 1.723609 0.1064867
vt 1.653211 0.5883405
vt 1.632056 0.5896721
vt 1.648196 0.6696458
vt 1.671312 0.6694106
vt 1.674346 0.5869172
vt 1.641994 0.7304285
vt 1.693842 0.6693964
vt 1.660104 0.7312952
vt 1.632056 0.7812471
vt 1.678185 0.7324279
vt 1.650307 0.7822469
vt 1.633448 0.848708
vt 1.668382 0.7836229
vt 1.383168 0.8731717
vt 1.405605 0.8691149
vt 1.364621 0.8045105
vt 1.342974 0.8060734
vt 1.358865 0.8772224
vt 1.370424 0.7254723
vt 1.321409 0.8074102
vt 1.352428 0.7241226
vt 1.405605 0.6151267
vt 1.33332 0.7222127
vt 1.727655 -0.3470285
vt 1.707216 -0.350767
vt 1.665481 -0.2833191
vt 1.6874 -0.2817613
vt 1.749503 -0.3430057
vt 1.677755 -0.1950011
vt 1.709365 -0.2800112
vt 1.695455 -0.1969211
vt 1.749503 -0.09145153
vt 1.714264 -0.198297
vt 1.450856 0.7456021
vt 1.416327 0.7507417
vt 1.455755 0.8233249
vt 1.485814 0.8203973
vt 1.485739 0.7412071
vt 1.471401 0.8871057
vt 1.515572 0.8177875
vt 1.49656 0.8873248
vt 1.447256 1.007467
vt 1.520876 0.888052
vt 1.460165 1.00901
vt 1.416327 1.074221
vt 1.473252 1.011157
vt 1.595419 0.5912257
vt 1.558254 0.5869173
vt 1.532079 0.6642721
vt 1.561249 0.6665484
vt 1.632056 0.5968183
vt 1.527607 0.7296538
vt 1.589786 0.6695775
vt 1.550956 0.7291642
vt 1.568249 0.8600382
vt 1.573613 0.7291316
vt 1.583236 0.8578206
vt 1.632056 0.9317662
vt 1.59886 0.8560035
vt 1.656673 0.8491161
vt 1.632056 0.8502687
vt 1.645915 0.914408
vt 1.663113 0.9146926
vt 1.680825 0.848708
vt 1.632056 0.9768541
vt 1.681075 0.9155741
vt 1.64292 0.976826
vt 1.653613 1.024392
vt 1.653971 0.9772646
vt 1.347891 0.8772278
vt 1.321409 0.8772227
vt 1.325266 0.9469222
vt 1.34274 0.9458573
vt 1.373684 0.8781606
vt 1.353604 1.003885
vt 1.361508 0.9454005
vt 1.363497 1.003336
vt 1.356051 1.049193
vt 1.373684 1.003347
vt 1.041197 0.6261724
vt 1.0047 0.6371784
vt 1.06918 0.6984508
vt 1.10472 0.6918595
vt 1.081138 0.6151265
vt 1.089991 0.7661719
vt 1.143577 0.6856811
vt 1.127747 0.7678726
vt 1.049246 0.8344738
vt 1.163958 0.7698727
vt 1.082109 0.8371978
vt 1.056405 0.934518
vt 1.116753 0.8406258
vt 1.083377 0.9369442
vt 1.0047 1.0285
vt 1.109774 0.9409757
vt 1.286822 0.6247939
vt 1.25489 0.6151267
vt 1.1887 0.6783116
vt 1.224354 0.6857393
vt 1.321409 0.6349701
vt 1.163958 0.7634858
vt 1.262493 0.6932637
vt 1.201873 0.7613922
vt 1.215436 0.8333803
vt 1.238361 0.7597818
vt 1.247984 0.8299579
vt 1.220975 0.9331411
vt 1.281904 0.8270219
vt 1.246358 0.9294357
vt 1.321409 1.013583
vt 1.272045 0.9269705
vt 1.617183 -0.3385949
vt 1.568945 -0.350767
vt 1.520814 -0.2865974
vt 1.562881 -0.2826756
vt 1.665482 -0.3232529
vt 1.544189 -0.2161494
vt 1.605286 -0.2755796
vt 1.567243 -0.2171872
vt 1.55558 -0.139467
vt 1.590495 -0.2167766
vt 1.570473 -0.140789
vt 1.665482 0.04616809
vt 1.585956 -0.1418505
vt 1.625794 0.5734685
vt 1.672629 0.5570091
vt 1.607841 0.5113612
vt 1.5694 0.5177072
vt 1.572397 0.5869172
vt 1.601371 0.4479765
vt 1.527607 0.5212377
vt 1.574641 0.4479621
vt 1.595647 0.3717854
vt 1.547945 0.4464753
vt 1.581763 0.370787
vt 1.672629 0.1954536
vt 1.56758 0.3693091
vt 1.070937 -0.3162119
vt 1.004701 -0.3101354
vt 1.0309 -0.2602146
vt 1.07816 -0.2681372
vt 1.105163 -0.3369789
vt 1.04899 -0.195924
vt 1.117471 -0.2880816
vt 1.215807 -0.350767
vt 1.133275 -0.2090056
vt 1.161751 -0.07965988
vt 1.217011 -0.2992928
vt 1.281055 -0.3434358
vt 1.231242 -0.09753597
vt 1.212139 -0.217965
vt 1.26391 -0.2831082
vt 1.305466 -0.1074835
vt 1.319825 -0.08317947
vt 1.250407 -0.06710094
vt 1.180315 -0.05615902
vt 1.246912 0.06626016
vt 1.305924 0.06247932
vt 1.365002 0.06148654
vt 1.251053 0.1203889
vt 1.299078 0.1221669
vt 1.346601 0.126886
vt 1.246393 0.1432866
vt 1.288478 0.1501039
vt 1.3318 0.1565167
vt 1.199266 0.2177495
vt 1.238545 0.2224902
vt 1.278501 0.2277416
vt 1.186982 0.3566509
vt 1.214583 0.3608314
vt 1.242772 0.3657639
vt 1.055728 0.4990149
vt 1.074417 0.5031753
vt 1.093309 0.5078523
vt 1.004701 0.6151267
vt 0.9555368 -0.293034
vt 0.856177 -0.350767
vt 0.8098502 -0.33496
vt 0.8569734 -0.2674996
vt 0.7562298 -0.3259119
vt 0.9072866 -0.0949899
vt 1.004701 -0.09377289
vt 0.7776252 -0.2529258
vt 0.7004735 -0.3222682
vt 0.8102739 -0.0961163
vt 0.8607866 0.1140843
vt 0.9435855 0.1219772
vt 0.7096388 -0.2444035
vt 0.6440376 -0.3237244
vt 0.7157832 -0.09726942
vt 0.7839779 0.108225
vt 0.8395233 0.2115304
vt 0.9155802 0.2182659
vt 0.6444069 -0.2415725
vt 0.5876599 -0.3223066
vt 0.6298698 -0.09770572
vt 0.7115664 0.1046133
vt 0.7703913 0.2079223
vt 0.8052386 0.3122561
vt 0.8707879 0.3150757
vt 0.5783281 -0.2447274
vt 0.531736 -0.3265033
vt 0.5503991 -0.09793735
vt 0.6385627 0.1040861
vt 0.7016226 0.2061633
vt 0.7459411 0.3112963
vt 0.8111461 0.413653
vt 0.8787747 0.4109729
vt 0.5617167 0.1059954
vt 0.632568 0.2055194
vt 0.6902907 0.3111452
vt 0.7507273 0.4147586
vt 0.8298528 0.5356401
vt 0.8947002 0.5314295
vt 0.5608482 0.2052354
vt 0.6340646 0.3111776
vt 0.6911207 0.4145572
vt 0.7629541 0.5377146
vt 0.8294553 0.683121
vt 0.8941514 0.6872324
vt 0.5696939 0.3109123
vt 0.6281576 0.4137594
vt 0.6934597 0.5367566
vt 0.7653974 0.6793947
vt 0.7660164 0.7846509
vt 0.8195288 0.7893637
vt 0.8044096 0.8238758
vt 0.7167931 0.7811556
vt 0.6946781 0.6758107
vt 0.6193833 0.5327595
vt 0.7549417 0.8176251
vt 0.6710224 0.7780898
vt 0.6151662 0.6740632
vt 0.7666961 0.9171155
vt 0.8110234 0.9203321
vt 0.7096066 0.811585
vt 0.6220516 0.7753177
vt 0.7139746 0.9160217
vt 0.747143 0.9503274
vt 0.7843063 0.9569079
vt 0.6659005 0.8075755
vt 0.6557267 0.9152918
vt 0.7044902 0.9442967
vt 0.7143477 1.080939
vt 0.7487744 1.083472
vt 0.6566958 0.9411161
vt 0.6815892 1.079225
vt 0.7046592 1.137246
vt 0.7367724 1.138302
vt 0.6489428 1.078474
vt 0.6746925 1.136515
vt 0.6977934 1.321871
vt 0.7246143 1.323245
vt 0.6458321 1.136034
vt 0.6691575 1.320746
vt 0.6663121 1.435678
vt 0.6847343 1.437336
vt 0.6383188 1.319929
vt 0.6483226 1.434585
vt 0.6404756 1.540989
vt 0.6502264 1.541968
vt 0.6107272 1.628422
vt 0.6306051 1.540276
vt 0.6304696 1.433963
vt 0.6206258 1.539839
vt 0.610768 1.539681
vt 0.6124473 1.43369
vt 0.6084966 1.319533
vt 0.600979 1.539816
vt 0.593931 1.433845
vt 0.6165943 1.135645
vt 0.5911511 1.540252
vt 0.5815082 1.319522
vt 0.615981 1.078302
vt 0.5813074 1.540982
vt 0.571588 1.541983
vt 0.5743893 1.434459
vt 0.5543442 1.435556
vt 0.5352552 1.436955
vt 0.5857475 1.135613
vt 0.5562954 1.319951
vt 0.5312909 1.320812
vt 0.5060279 1.322034
vt 0.5524082 1.136045
vt 0.5173659 1.1371
vt 0.4835918 1.138494
vt 0.5820531 1.07914
vt 0.5090008 1.082437
vt 0.4729969 1.084036
vt 0.5462585 1.080633
vt 0.6083687 0.9427797
vt 0.4865057 0.9538063
vt 0.4499097 0.9558125
vt 0.5242249 0.9510416
vt 0.5640522 0.9469741
vt 0.6000117 0.9127036
vt 0.477184 0.9122028
vt 0.4382341 0.9146959
vt 0.5132338 0.9109913
vt 0.5527857 0.9109552
vt 0.6219317 0.807118
vt 0.4656705 0.8195234
vt 0.4149025 0.8243792
vt 0.3972784 0.7924808
vt 0.5211967 0.8136575
vt 0.5741255 0.8090662
vt 0.5688214 0.7733529
vt 0.4511725 0.7817832
vt 0.5104182 0.7748459
vt 0.5319824 0.6737729
vt 0.3869908 0.6805336
vt 0.3227727 0.6882553
vt 0.4551727 0.6754047
vt 0.5424882 0.5271524
vt 0.3919666 0.5258869
vt 0.319951 0.529544
vt 0.4657589 0.5245177
vt 0.5598018 0.4112265
vt 0.4823537 0.4081926
vt 0.400183 0.4053735
vt 0.3200316 0.4024251
vt 0.4950408 0.3096688
vt 0.4140564 0.3076741
vt 0.3388334 0.3047162
vt 0.4836037 0.2047666
vt 0.4012134 0.2048033
vt 0.3216093 0.2070327
vt 0.4795793 0.1093163
vt 0.3941975 0.1116096
vt 0.3076799 0.1131625
vt 0.4737471 -0.09865844
vt 0.3913274 -0.09996736
vt 0.3007931 -0.1023082
vt 0.5077674 -0.253515
vt 0.4784467 -0.3357701
vt 0.4311195 -0.2690901
vt 0.3374621 -0.2930709
vt 0.4325085 -0.350767
vt 0.1351939 -0.2728009
vt -0.09485215 -0.3361886
vt -0.1399196 -0.3019546
vt -0.005960613 -0.2320273
vt -0.2066135 -0.2806213
vt 0.08115941 -0.1244946
vt 0.2346789 -0.1505077
vt -0.1355068 -0.2093639
vt -0.2812431 -0.274442
vt -0.06817392 -0.1027263
vt 0.1121649 0.01223898
vt 0.3007931 0.01513821
vt -0.2609251 -0.195557
vt -0.35182 -0.2799919
vt -0.2204549 -0.0944283
vt -0.07452458 0.001569569
vt 0.03785267 0.1295784
vt 0.2265392 0.1760738
vt -0.3786231 -0.1883371
vt -0.4174294 -0.2951392
vt -0.3731847 -0.09977508
vt -0.2404385 -0.002739966
vt -0.1265866 0.1069134
vt -0.03404367 0.212615
vt 0.1157193 0.2472819
vt -0.4854154 -0.18612
vt -0.4810511 -0.3107409
vt -0.5173738 -0.1121542
vt -0.3999176 -0.009823859
vt -0.2520051 0.1027762
vt -0.135639 0.1720378
vt -0.586744 -0.1957769
vt -0.542891 -0.3272942
vt -0.2347381 0.1805058
vt -0.3273984 0.2188126
vt -0.3789661 0.1129335
vt -0.1378518 0.224787
vt -0.6413059 -0.1242424
vt -0.6866859 -0.2201959
vt -0.601675 -0.3507674
vt -0.7983767 -0.2705766
vt -0.8940439 -0.1549922
vt -0.7616993 -0.1386117
vt -0.8940439 0.003727198
vt -0.7553563 -0.00571245
vt -0.8522369 0.1612493
vt -0.6479166 -0.009313524
vt -0.7265295 0.1269595
vt -0.5407854 -0.009525597
vt -0.6164569 0.1202195
vt -0.5069888 0.1068659
vt -0.5008391 0.143863
vt -0.6024037 0.1589191
vt -0.7107672 0.169916
vt -0.7042598 0.2610977
vt -0.8804452 0.2502062
vt -0.8555636 0.3426116
vt -0.4439571 0.2417
vt -0.5667421 0.2595909
vt -0.7127476 0.3409613
vt -0.829397 0.5108163
vt -0.5698057 0.3462282
vt -0.7080858 0.5099759
vt -0.8312255 0.6743461
vt -0.4443263 0.3506979
vt -0.5840806 0.5131315
vt -0.7198575 0.6744403
vt -0.825571 0.7878591
vt -0.7171564 0.7839533
vt -0.7908399 0.9687648
vt -0.6151947 0.6747977
vt -0.4646428 0.5183169
vt -0.6816573 0.9542485
vt -0.6856675 1.085301
vt -0.6048848 0.7788569
vt -0.5985866 1.074827
vt -0.6600919 1.204945
vt -0.3337699 0.3477193
vt -0.500082 0.6778038
vt -0.558654 0.9411212
vt -0.5876585 1.203181
vt -0.6558223 1.292495
vt -0.3486885 0.5222077
vt -0.2335994 0.34277
vt -0.4850677 0.7710282
vt -0.4335699 0.9325955
vt -0.5147515 1.069266
vt -0.5850804 1.288015
vt -0.6258814 1.40086
vt -0.3694432 0.6808648
vt -0.5173507 1.202695
vt -0.5357417 1.391361
vt -0.5928007 1.431722
vt -0.4335563 1.066101
vt -0.5121556 1.282191
vt -0.5288317 1.414434
vt -0.5205471 1.465148
vt -0.4413539 1.204081
vt -0.4388931 1.376394
vt -0.4686347 1.453675
vt -0.4956397 1.577271
vt -0.350858 1.066198
vt -0.4300988 1.272561
vt -0.4427893 1.399956
vt -0.4530042 1.576302
vt -0.4830545 1.786792
vt -0.3534484 1.203257
vt -0.3548587 1.36419
vt -0.4192163 1.449588
vt -0.4440657 1.786529
vt -0.4850062 1.880232
vt -0.3358096 1.260995
vt -0.36274 1.395369
vt -0.4108056 1.575908
vt -0.4483311 1.878926
vt -0.435426 2.012228
vt -0.2918562 1.359598
vt -0.3719225 1.449787
vt -0.405998 1.786212
vt -0.4082878 2.01025
vt -0.4166262 2.105055
vt -0.3003407 1.401643
vt -0.3670833 1.575821
vt -0.4067725 1.878236
vt -0.3969086 2.103044
vt -0.3730315 2.174526
vt -0.3278471 1.450753
vt -0.3682194 1.786384
vt -0.3836324 2.009071
vt -0.3640372 2.171647
vt -0.3370242 2.191216
vt -0.376017 2.101601
vt -0.3636233 1.877039
vt -0.3214508 1.575869
vt -0.355242 2.169785
vt -0.3598099 2.008527
vt -0.3311472 1.786796
vt -0.3543301 2.100838
vt -0.324444 1.876741
vt -0.3463775 2.168683
vt -0.3360052 2.008427
vt -0.3326849 2.100519
vt -0.3372095 2.168392
vt -0.2750481 1.575283
vt -0.2926837 1.787421
vt -0.2907331 1.877048
vt -0.3107479 2.008879
vt -0.3119983 2.100856
vt -0.327646 2.168947
vt -0.2796393 1.454255
vt -0.2540299 1.415575
vt -0.2440649 1.366844
vt -0.2068998 1.418093
vt -0.2229354 1.458733
vt -0.1529049 1.405023
vt -0.237658 1.254314
vt -0.2257199 1.575606
vt -0.1578301 1.461515
vt -0.2515998 1.788586
vt -0.1462708 1.260796
vt -0.1968206 1.357204
vt -0.2510513 1.198444
vt -0.1765282 1.577369
vt -0.2597908 1.878027
vt -0.1450639 1.197285
vt -0.06636611 1.272945
vt -0.1451859 1.360525
vt -0.2593267 1.069148
vt -0.2096653 1.790838
vt -0.2826904 2.009958
vt -0.05302829 1.196144
vt -0.163069 1.073066
vt -0.2296116 1.879228
vt -0.2924057 2.101905
vt -0.06452799 1.074078
vt -0.2521235 2.011589
vt -0.3179523 2.170355
vt -0.2734811 2.10369
vt -0.3084741 2.172616
vt -0.2996958 2.175672
vt -0.2542123 2.106138
vt -0.2230477 2.013554
vt -0.1982041 1.881322
vt -0.1698309 1.793629
vt -0.1285757 1.579998
vt -0.09609413 1.462176
vt -0.1011309 1.413213
vt -0.08472598 1.377478
vt 0.004175186 1.284897
vt 0.02760303 1.198274
vt 0.02847636 1.074925
vt 0.0419364 0.952865
vt -0.0502657 0.9602877
vt -0.04132769 0.9275131
vt 0.1303921 0.786834
vt -0.1356462 0.953064
vt 0.021433 0.7738848
vt 0.1687576 0.6736159
vt -0.1303544 0.9212534
vt -0.2243094 0.9498733
vt 0.04819044 0.6732239
vt 0.1238968 0.5070953
vt -0.09323096 0.7636541
vt -0.2217291 0.9151348
vt -0.3238776 0.9503329
vt -0.3242105 0.910261
vt 0.001742214 0.5139149
vt 0.1041868 0.3415921
vt -0.08406824 0.6753002
vt -0.2196985 0.7600876
vt -0.3544442 0.7632481
vt -0.2257982 0.6811062
vt -0.02287462 0.3335021
vt -0.1162789 0.5200117
vt -0.2332957 0.5225163
vt -0.1330026 0.3349888
vt -0.2315769 0.2273334
vt 1.287053 -0.2085921
vt 1.131952 -0.1173064
vt 1.312793 -0.276441
vt 1.340871 -0.3308252
vt 1.416327 -0.3025975
vt 1.382179 -0.2556638
vt 1.35529 -0.1951282
vt 1.189503 -0.1048213
vt 1.250424 -0.09330928
vt 1.228769 -0.0686425
vt 1.175589 -0.08419418
vt 1.117161 -0.09193957
vt 1.063292 0.03127885
vt 1.117417 0.03470421
vt 1.170951 0.03860265
vt 1.064505 0.09626025
vt 1.11976 0.09531027
vt 1.175725 0.09138864
vt 1.076254 0.1224141
vt 1.124772 0.1141575
vt 1.17616 0.11125
vt 1.132992 0.1901898
vt 1.165639 0.1867542
vt 1.199372 0.1844202
vt 1.146629 0.3108069
vt 1.171881 0.3073246
vt 1.198181 0.3043631
vt 1.253935 0.4250917
vt 1.267677 0.4219958
vt 1.282273 0.4193367
vt 1.315439 0.5094514
vt 0.778777 0.7871313
vt 0.778777 0.9721565
vt 0.9460432 0.9721564
vt 0.9460431 0.7871313
vt 0.05845324 0.7970113
vt 0.05845324 0.9514983
vt 0.1366906 0.9514983
vt 0.1366906 0.7970114
vt 0.05845324 0.7970113
vt 0.05845324 0.9514983
vt 0.1366906 0.9514983
vt 0.1366906 0.7970114
vt 0.2589928 0.7880295
vt 0.2589928 0.9775455
vt 0.4271583 0.9775455
vt 0.4271582 0.7880295
vt 0.05297715 0.4754899
vt 0.05297714 0.6926374
vt 0.2137044 0.6926374
vt 0.2137044 0.4754899
vt 0.4066249 0.0310704
vt 0.4066249 0.3857908
vt 0.6069375 0.3857909
vt 0.6069376 0.03107041
vt 0.4066249 0.0310704
vt 0.4066249 0.3857908
vt 0.6069375 0.3857909
vt 0.6069376 0.03107041
vt 0.2589928 0.7880295
vt 0.2589928 0.9775455
vt 0.4271583 0.9775455
vt 0.4271582 0.7880295
vt 0.05845324 0.7970113
vt 0.05845324 0.9514983
vt 0.1366906 0.9514983
vt 0.1366906 0.7970114
vt 0.04404146 0.04401637
vt 0.04404147 0.3870854
vt 0.2823834 0.3870854
vt 0.2823834 0.04401638
vt 0.05845324 0.7970113
vt 0.05845324 0.9514983
vt 0.1366906 0.9514983
vt 0.1366906 0.7970114
usemtl M_WindsweptBark
f 1/1/1 3/3/3 2/2/2
f 1/1/1 4/4/4 3/3/3
f 5/5/5 4/4/4 1/1/1
f 5/5/5 6/6/6 4/4/4
f 7/7/7 9/9/9 8/8/8
f 7/7/7 10/10/10 9/9/9
f 11/11/11 10/10/10 7/7/7
f 10/10/10 12/12/12 9/9/9
f 11/11/11 13/13/13 10/10/10
f 10/10/10 14/14/14 12/12/12
f 13/13/13 14/14/14 10/10/10
f 14/14/14 15/15/15 12/12/12
f 13/13/13 16/16/16 14/14/14
f 14/14/14 17/17/17 15/15/15
f 16/16/16 17/17/17 14/14/14
f 17/17/17 18/18/18 15/15/15
f 16/16/16 19/19/19 17/17/17
f 17/17/17 20/20/20 18/18/18
f 19/19/19 20/20/20 17/17/17
f 20/20/20 21/21/21 18/18/18
f 19/19/19 22/22/22 20/20/20
f 22/22/22 21/21/21 20/20/20
f 23/23/23 25/25/25 24/24/24
f 23/23/23 26/26/26 25/25/25
f 27/27/27 26/26/26 23/23/23
f 26/26/26 28/28/28 25/25/25
f 27/27/27 29/29/29 26/26/26
f 26/26/26 30/30/30 28/28/28
f 29/29/29 30/30/30 26/26/26
f 30/30/30 31/31/31 28/28/28
f 29/29/29 32/32/32 30/30/30
f 30/30/30 33/33/33 31/31/31
f 32/32/32 33/33/33 30/30/30
f 33/33/33 34/34/34 31/31/31
f 32/32/32 35/35/35 33/33/33
f 33/33/33 36/36/36 34/34/34
f 35/35/35 36/36/36 33/33/33
f 36/36/36 37/37/37 34/34/34
f 35/35/35 38/38/38 36/36/36
f 38/38/38 37/37/37 36/36/36
f 39/39/39 41/41/41 40/40/40
f 39/39/39 42/42/42 41/41/41
f 43/43/43 42/42/42 39/39/39
f 42/42/42 44/44/44 41/41/41
f 43/43/43 45/45/45 42/42/42
f 42/42/42 46/46/46 44/44/44
f 45/45/45 46/46/46 42/42/42
f 46/46/46 47/47/47 44/44/44
f 45/45/45 48/48/48 46/46/46
f 46/46/46 49/49/49 47/47/47
f 48/48/48 49/49/49 46/46/46
f 49/49/49 50/50/50 47/47/47
f 48/48/48 51/51/51 49/49/49
f 51/51/51 50/50/50 49/49/49
f 52/52/52 54/54/54 53/53/53
f 52/52/52 55/55/55 54/54/54
f 56/56/56 55/55/55 52/52/52
f 55/55/55 57/57/57 54/54/54
f 56/56/56 58/58/58 55/55/55
f 55/55/55 59/59/59 57/57/57
f 58/58/58 59/59/59 55/55/55
f 59/59/59 60/60/60 57/57/57
f 58/58/58 61/61/61 59/59/59
f 59/59/59 62/62/62 60/60/60
f 61/61/61 62/62/62 59/59/59
f 62/62/62 63/63/63 60/60/60
f 61/61/61 64/64/64 62/62/62
f 64/64/64 63/63/63 62/62/62
f 65/65/65 67/67/67 66/66/66
f 65/65/65 68/68/68 67/67/67
f 69/69/69 68/68/68 65/65/65
f 68/68/68 70/70/70 67/67/67
f 69/69/69 71/71/71 68/68/68
f 68/68/68 72/72/72 70/70/70
f 71/71/71 72/72/72 68/68/68
f 72/72/72 73/73/73 70/70/70
f 71/71/71 74/74/74 72/72/72
f 74/74/74 73/73/73 72/72/72
f 75/75/75 77/77/77 76/76/76
f 75/75/75 78/78/78 77/77/77
f 79/79/79 78/78/78 75/75/75
f 78/78/78 80/80/80 77/77/77
f 79/79/79 81/81/81 78/78/78
f 78/78/78 82/82/82 80/80/80
f 81/81/81 82/82/82 78/78/78
f 82/82/82 83/83/83 80/80/80
f 81/81/81 84/84/84 82/82/82
f 84/84/84 83/83/83 82/82/82
f 85/85/85 87/87/87 86/86/86
f 85/85/85 88/88/88 87/87/87
f 89/89/89 88/88/88 85/85/85
f 88/88/88 90/90/90 87/87/87
f 89/89/89 91/91/91 88/88/88
f 88/88/88 92/92/92 90/90/90
f 91/91/91 92/92/92 88/88/88
f 92/92/92 93/93/93 90/90/90
f 91/91/91 94/94/94 92/92/92
f 92/92/92 95/95/95 93/93/93
f 94/94/94 95/95/95 92/92/92
f 95/95/95 96/96/96 93/93/93
f 94/94/94 97/97/97 95/95/95
f 97/97/97 96/96/96 95/95/95
f 98/98/98 100/100/100 99/99/99
f 98/98/98 101/101/101 100/100/100
f 102/102/102 101/101/101 98/98/98
f 101/101/101 103/103/103 100/100/100
f 102/102/102 104/104/104 101/101/101
f 101/101/101 105/105/105 103/103/103
f 104/104/104 105/105/105 101/101/101
f 105/105/105 106/106/106 103/103/103
f 104/104/104 107/107/107 105/105/105
f 105/105/105 108/108/108 106/106/106
f 107/107/107 108/108/108 105/105/105
f 108/108/108 109/109/109 106/106/106
f 107/107/107 110/110/110 108/108/108
f 110/110/110 109/109/109 108/108/108
f 111/111/111 113/113/113 112/112/112
f 111/111/111 114/114/114 113/113/113
f 115/115/115 114/114/114 111/111/111
f 114/114/114 116/116/116 113/113/113
f 115/115/115 117/117/117 114/114/114
f 114/114/114 118/118/118 116/116/116
f 117/117/117 118/118/118 114/114/114
f 118/118/118 119/119/119 116/116/116
f 117/117/117 120/120/120 118/118/118
f 120/120/120 119/119/119 118/118/118
f 121/121/121 123/123/123 122/122/122
f 121/121/121 124/124/124 123/123/123
f 125/125/125 124/124/124 121/121/121
f 124/124/124 126/126/126 123/123/123
f 125/125/125 127/127/127 124/124/124
f 124/124/124 128/128/128 126/126/126
f 127/127/127 128/128/128 124/124/124
f 128/128/128 129/129/129 126/126/126
f 127/127/127 130/130/130 128/128/128
f 130/130/130 129/129/129 128/128/128
f 131/131/131 133/133/133 132/132/132
f 131/131/131 134/134/134 133/133/133
f 135/135/135 134/134/134 131/131/131
f 134/134/134 136/136/136 133/133/133
f 135/135/135 137/137/137 134/134/134
f 134/134/134 138/138/138 136/136/136
f 137/137/137 138/138/138 134/134/134
f 138/138/138 139/139/139 136/136/136
f 137/137/137 140/140/140 138/138/138
f 138/138/138 141/141/141 139/139/139
f 140/140/140 141/141/141 138/138/138
f 141/141/141 142/142/142 139/139/139
f 140/140/140 143/143/143 141/141/141
f 141/141/141 144/144/144 142/142/142
f 143/143/143 144/144/144 141/141/141
f 144/144/144 145/145/145 142/142/142
f 143/143/143 146/146/146 144/144/144
f 146/146/146 145/145/145 144/144/144
f 147/147/147 149/149/149 148/148/148
f 147/147/147 150/150/150 149/149/149
f 151/151/151 150/150/150 147/147/147
f 150/150/150 152/152/152 149/149/149
f 151/151/151 153/153/153 150/150/150
f 150/150/150 154/154/154 152/152/152
f 153/153/153 154/154/154 150/150/150
f 154/154/154 155/155/155 152/152/152
f 153/153/153 156/156/156 154/154/154
f 154/154/154 157/157/157 155/155/155
f 156/156/156 157/157/157 154/154/154
f 157/157/157 158/158/158 155/155/155
f 156/156/156 159/159/159 157/157/157
f 157/157/157 160/160/160 158/158/158
f 159/159/159 160/160/160 157/157/157
f 160/160/160 161/161/161 158/158/158
f 159/159/159 162/162/162 160/160/160
f 162/162/162 161/161/161 160/160/160
f 163/163/163 165/165/165 164/164/164
f 163/163/163 166/166/166 165/165/165
f 167/167/167 166/166/166 163/163/163
f 166/166/166 168/168/168 165/165/165
f 167/167/167 169/169/169 166/166/166
f 166/166/166 170/170/170 168/168/168
f 169/169/169 170/170/170 166/166/166
f 170/170/170 171/171/171 168/168/168
f 169/169/169 172/172/172 170/170/170
f 170/170/170 173/173/173 171/171/171
f 172/172/172 173/173/173 170/170/170
f 173/173/173 174/174/174 171/171/171
f 172/172/172 175/175/175 173/173/173
f 175/175/175 174/174/174 173/173/173
f 176/176/176 178/178/178 177/177/177
f 176/176/176 179/179/179 178/178/178
f 180/180/180 179/179/179 176/176/176
f 179/179/179 181/181/181 178/178/178
f 180/180/180 182/182/182 179/179/179
f 179/179/179 183/183/183 181/181/181
f 182/182/182 183/183/183 179/179/179
f 183/183/183 184/184/184 181/181/181
f 182/182/182 185/185/185 183/183/183
f 183/183/183 186/186/186 184/184/184
f 185/185/185 186/186/186 183/183/183
f 186/186/186 187/187/187 184/184/184
f 185/185/185 188/188/188 186/186/186
f 188/188/188 187/187/187 186/186/186
f 189/189/189 191/191/191 190/190/190
f 189/189/189 192/192/192 191/191/191
f 192/192/192 189/189/189 193/193/193
f 192/192/192 194/194/194 191/191/191
f 192/192/192 193/193/193 195/195/195
f 196/196/196 195/195/195 193/193/193
f 192/192/192 197/197/197 194/194/194
f 197/197/197 192/192/192 195/195/195
f 197/197/197 198/198/198 194/194/194
f 196/196/196 199/199/199 195/195/195
f 199/199/199 197/197/197 195/195/195
f 200/200/200 199/199/199 196/196/196
f 197/197/197 201/201/201 198/198/198
f 199/199/199 202/202/202 197/197/197
f 202/202/202 201/201/201 197/197/197
f 200/200/200 203/203/203 199/199/199
f 203/203/203 202/202/202 199/199/199
f 202/202/202 204/204/204 201/201/201
f 205/205/205 201/201/201 204/204/204
f 198/198/198 201/201/201 206/206/206
f 205/205/205 206/206/206 201/201/201
f 198/198/198 206/206/206 207/207/207
f 206/206/206 208/208/208 207/207/207
f 205/205/205 209/209/209 206/206/206
f 206/206/206 209/209/209 208/208/208
f 205/205/205 210/210/210 209/209/209
f 209/209/209 211/211/211 208/208/208
f 210/210/210 212/212/212 209/209/209
f 209/209/209 212/212/212 211/211/211
f 210/210/210 213/213/213 212/212/212
f 212/212/212 214/214/214 211/211/211
f 213/213/213 215/215/215 212/212/212
f 212/212/212 215/215/215 214/214/214
f 213/213/213 216/216/216 215/215/215
f 215/215/215 217/217/217 214/214/214
f 216/216/216 218/218/218 215/215/215
f 215/215/215 218/218/218 217/217/217
f 216/216/216 219/219/219 218/218/218
f 218/218/218 220/220/220 217/217/217
f 219/219/219 221/221/221 218/218/218
f 218/218/218 221/221/221 220/220/220
f 219/219/219 222/222/222 221/221/221
f 221/221/221 223/223/223 220/220/220
f 222/222/222 224/224/224 221/221/221
f 221/221/221 224/224/224 223/223/223
f 222/222/222 225/225/225 224/224/224
f 224/224/224 226/226/226 223/223/223
f 225/225/225 226/226/226 224/224/224
f 227/227/227 229/229/229 228/228/228
f 227/227/227 230/230/230 229/229/229
f 230/230/230 231/231/231 229/229/229
f 227/227/227 232/232/232 230/230/230
f 227/227/227 233/233/233 232/232/232
f 230/230/230 234/234/234 231/231/231
f 234/234/234 235/235/235 231/231/231
f 230/230/230 232/232/232 236/236/236
f 230/230/230 236/236/236 234/234/234
f 233/233/233 237/237/237 232/232/232
f 233/233/233 238/238/238 237/237/237
f 234/234/234 239/239/239 235/235/235
f 239/239/239 240/240/240 235/235/235
f 234/234/234 236/236/236 241/241/241
f 234/234/234 241/241/241 239/239/239
f 232/232/232 242/242/242 236/236/236
f 232/232/232 237/237/237 242/242/242
f 238/238/238 243/243/243 237/237/237
f 238/238/238 244/244/244 243/243/243
f 239/239/239 245/245/245 240/240/240
f 245/245/245 246/246/246 240/240/240
f 239/239/239 241/241/241 247/247/247
f 239/239/239 247/247/247 245/245/245
f 236/236/236 248/248/248 241/241/241
f 236/236/236 242/242/242 248/248/248
f 237/237/237 249/249/249 242/242/242
f 237/237/237 243/243/243 249/249/249
f 244/244/244 250/250/250 243/243/243
f 244/244/244 251/251/251 250/250/250
f 245/245/245 252/252/252 246/246/246
f 252/252/252 253/253/253 246/246/246
f 245/245/245 247/247/247 254/254/254
f 245/245/245 254/254/254 252/252/252
f 241/241/241 255/255/255 247/247/247
f 241/241/241 248/248/248 255/255/255
f 242/242/242 256/256/256 248/248/248
f 242/242/242 249/249/249 256/256/256
f 243/243/243 257/257/257 249/249/249
f 243/243/243 250/250/250 257/257/257
f 251/251/251 258/258/258 250/250/250
f 251/251/251 259/259/259 258/258/258
f 247/247/247 260/260/260 254/254/254
f 247/247/247 255/255/255 260/260/260
f 248/248/248 261/261/261 255/255/255
f 248/248/248 256/256/256 261/261/261
f 249/249/249 262/262/262 256/256/256
f 249/249/249 257/257/257 262/262/262
f 250/250/250 263/263/263 257/257/257
f 250/250/250 258/258/258 263/263/263
f 259/259/259 264/264/264 258/258/258
f 259/259/259 265/265/265 264/264/264
f 255/255/255 266/266/266 260/260/260
f 255/255/255 261/261/261 266/266/266
f 256/256/256 267/267/267 261/261/261
f 256/256/256 262/262/262 267/267/267
f 257/257/257 268/268/268 262/262/262
f 257/257/257 263/263/263 268/268/268
f 258/258/258 269/269/269 263/263/263
f 258/258/258 264/264/264 269/269/269
f 265/265/265 270/270/270 264/264/264
f 265/265/265 271/271/271 270/270/270
f 261/261/261 272/272/272 266/266/266
f 261/261/261 267/267/267 272/272/272
f 262/262/262 273/273/273 267/267/267
f 262/262/262 268/268/268 273/273/273
f 263/263/263 274/274/274 268/268/268
f 263/263/263 269/269/269 274/274/274
f 264/264/264 275/275/275 269/269/269
f 264/264/264 270/270/270 275/275/275
f 271/271/271 276/276/276 270/270/270
f 271/271/271 277/277/277 276/276/276
f 276/276/276 277/277/277 278/278/278
f 270/270/270 276/276/276 279/279/279
f 270/270/270 279/279/279 275/275/275
f 269/269/269 275/275/275 280/280/280
f 269/269/269 280/280/280 274/274/274
f 268/268/268 274/274/274 281/281/281
f 268/268/268 281/281/281 273/273/273
f 276/276/276 278/278/278 282/282/282
f 279/279/279 276/276/276 282/282/282
f 275/275/275 279/279/279 283/283/283
f 275/275/275 283/283/283 280/280/280
f 274/274/274 280/280/280 284/284/284
f 274/274/274 284/284/284 281/281/281
f 278/278/278 285/285/285 282/282/282
f 278/278/278 286/286/286 285/285/285
f 279/279/279 282/282/282 287/287/287
f 283/283/283 279/279/279 287/287/287
f 280/280/280 283/283/283 288/288/288
f 280/280/280 288/288/288 284/284/284
f 282/282/282 285/285/285 289/289/289
f 282/282/282 289/289/289 287/287/287
f 286/286/286 290/290/290 285/285/285
f 286/286/286 291/291/291 290/290/290
f 283/283/283 287/287/287 292/292/292
f 288/288/288 283/283/283 292/292/292
f 287/287/287 289/289/289 293/293/293
f 287/287/287 293/293/293 292/292/292
f 285/285/285 294/294/294 289/289/289
f 285/285/285 290/290/290 294/294/294
f 291/291/291 295/295/295 290/290/290
f 291/291/291 296/296/296 295/295/295
f 289/289/289 297/297/297 293/293/293
f 289/289/289 294/294/294 297/297/297
f 290/290/290 298/298/298 294/294/294
f 290/290/290 295/295/295 298/298/298
f 296/296/296 299/299/299 295/295/295
f 296/296/296 300/300/300 299/299/299
f 294/294/294 301/301/301 297/297/297
f 294/294/294 298/298/298 301/301/301
f 295/295/295 302/302/302 298/298/298
f 295/295/295 299/299/299 302/302/302
f 300/300/300 303/303/303 299/299/299
f 300/300/300 304/304/304 303/303/303
f 298/298/298 305/305/305 301/301/301
f 298/298/298 302/302/302 305/305/305
f 299/299/299 306/306/306 302/302/302
f 299/299/299 303/303/303 306/306/306
f 304/304/304 307/307/307 303/303/303
f 304/304/304 308/308/308 307/307/307
f 302/302/302 309/309/309 305/305/305
f 302/302/302 306/306/306 309/309/309
f 303/303/303 310/310/310 306/306/306
f 303/303/303 307/307/307 310/310/310
f 308/308/308 311/311/311 307/307/307
f 308/308/308 312/312/312 311/311/311
f 312/312/312 313/313/313 311/311/311
f 307/307/307 311/311/311 314/314/314
f 307/307/307 314/314/314 310/310/310
f 311/311/311 313/313/313 314/314/314
f 306/306/306 310/310/310 315/315/315
f 306/306/306 315/315/315 309/309/309
f 310/310/310 314/314/314 316/316/316
f 314/314/314 313/313/313 316/316/316
f 310/310/310 316/316/316 315/315/315
f 315/315/315 316/316/316 317/317/317
f 316/316/316 313/313/313 317/317/317
f 309/309/309 315/315/315 318/318/318
f 315/315/315 317/317/317 318/318/318
f 305/305/305 309/309/309 319/319/319
f 309/309/309 318/318/318 319/319/319
f 318/318/318 317/317/317 320/320/320
f 317/317/317 313/313/313 320/320/320
f 318/318/318 320/320/320 321/321/321
f 319/319/319 318/318/318 321/321/321
f 305/305/305 319/319/319 322/322/322
f 301/301/301 305/305/305 322/322/322
f 320/320/320 313/313/313 323/323/323
f 321/321/321 320/320/320 323/323/323
f 319/319/319 321/321/321 324/324/324
f 322/322/322 319/319/319 324/324/324
f 301/301/301 322/322/322 325/325/325
f 297/297/297 301/301/301 325/325/325
f 323/323/323 313/313/313 326/326/326
f 326/326/326 313/313/313 327/327/327
f 321/321/321 323/323/323 328/328/328
f 328/328/328 323/323/323 326/326/326
f 324/324/324 321/321/321 328/328/328
f 329/329/329 326/326/326 327/327/327
f 328/328/328 326/326/326 329/329/329
f 329/329/329 327/327/327 330/330/330
f 322/322/322 324/324/324 331/331/331
f 325/325/325 322/322/322 331/331/331
f 324/324/324 328/328/328 332/332/332
f 332/332/332 328/328/328 329/329/329
f 331/331/331 324/324/324 332/332/332
f 333/333/333 329/329/329 330/330/330
f 332/332/332 329/329/329 333/333/333
f 333/333/333 330/330/330 334/334/334
f 331/331/331 332/332/332 335/335/335
f 335/335/335 332/332/332 333/333/333
f 336/336/336 333/333/333 334/334/334
f 335/335/335 333/333/333 336/336/336
f 336/336/336 334/334/334 337/337/337
f 325/325/325 331/331/331 338/338/338
f 338/338/338 331/331/331 335/335/335
f 339/339/339 336/336/336 337/337/337
f 339/339/339 337/337/337 340/340/340
f 341/341/341 335/335/335 336/336/336
f 338/338/338 335/335/335 341/341/341
f 341/341/341 336/336/336 339/339/339
f 342/342/342 325/325/325 338/338/338
f 297/297/297 325/325/325 342/342/342
f 293/293/293 297/297/297 342/342/342
f 343/343/343 339/339/339 340/340/340
f 343/343/343 340/340/340 344/344/344
f 345/345/345 341/341/341 339/339/339
f 345/345/345 339/339/339 343/343/343
f 346/346/346 338/338/338 341/341/341
f 342/342/342 338/338/338 346/346/346
f 346/346/346 341/341/341 345/345/345
f 293/293/293 342/342/342 347/347/347
f 347/347/347 342/342/342 346/346/346
f 292/292/292 293/293/293 347/347/347
f 348/348/348 343/343/343 344/344/344
f 348/348/348 344/344/344 349/349/349
f 350/350/350 345/345/345 343/343/343
f 350/350/350 343/343/343 348/348/348
f 351/351/351 346/346/346 345/345/345
f 347/347/347 346/346/346 351/351/351
f 351/351/351 345/345/345 350/350/350
f 292/292/292 347/347/347 352/352/352
f 352/352/352 347/347/347 351/351/351
f 288/288/288 292/292/292 352/352/352
f 353/353/353 348/348/348 349/349/349
f 353/353/353 349/349/349 354/354/354
f 355/355/355 353/353/353 354/354/354
f 356/356/356 350/350/350 348/348/348
f 356/356/356 348/348/348 353/353/353
f 357/357/357 351/351/351 350/350/350
f 352/352/352 351/351/351 357/357/357
f 357/357/357 350/350/350 356/356/356
f 352/352/352 358/358/358 288/288/288
f 352/352/352 357/357/357 358/358/358
f 284/284/284 288/288/288 358/358/358
f 355/355/355 359/359/359 353/353/353
f 359/359/359 356/356/356 353/353/353
f 360/360/360 357/357/357 356/356/356
f 360/360/360 358/358/358 357/357/357
f 359/359/359 360/360/360 356/356/356
f 284/284/284 358/358/358 361/361/361
f 361/361/361 358/358/358 360/360/360
f 281/281/281 284/284/284 361/361/361
f 362/362/362 359/359/359 355/355/355
f 362/362/362 355/355/355 363/363/363
f 364/364/364 360/360/360 359/359/359
f 361/361/361 360/360/360 364/364/364
f 364/364/364 359/359/359 362/362/362
f 281/281/281 361/361/361 365/365/365
f 365/365/365 361/361/361 364/364/364
f 273/273/273 281/281/281 365/365/365
f 366/366/366 362/362/362 363/363/363
f 366/366/366 363/363/363 367/367/367
f 368/368/368 364/364/364 362/362/362
f 365/365/365 364/364/364 368/368/368
f 368/368/368 362/362/362 366/366/366
f 273/273/273 365/365/365 369/369/369
f 369/369/369 365/365/365 368/368/368
f 267/267/267 273/273/273 369/369/369
f 267/267/267 369/369/369 272/272/272
f 369/369/369 368/368/368 370/370/370
f 370/370/370 368/368/368 366/366/366
f 272/272/272 369/369/369 370/370/370
f 371/371/371 366/366/366 367/367/367
f 370/370/370 366/366/366 371/371/371
f 371/371/371 367/367/367 372/372/372
f 272/272/272 370/370/370 373/373/373
f 373/373/373 370/370/370 371/371/371
f 266/266/266 272/272/272 373/373/373
f 374/374/374 371/371/371 372/372/372
f 373/373/373 371/371/371 374/374/374
f 374/374/374 372/372/372 375/375/375
f 266/266/266 373/373/373 376/376/376
f 376/376/376 373/373/373 374/374/374
f 260/260/260 266/266/266 376/376/376
f 377/377/377 374/374/374 375/375/375
f 376/376/376 374/374/374 377/377/377
f 377/377/377 375/375/375 378/378/378
f 260/260/260 376/376/376 379/379/379
f 379/379/379 376/376/376 377/377/377
f 254/254/254 260/260/260 379/379/379
f 380/380/380 377/377/377 378/378/378
f 379/379/379 377/377/377 380/380/380
f 380/380/380 378/378/378 381/381/381
f 254/254/254 379/379/379 382/382/382
f 382/382/382 379/379/379 380/380/380
f 252/252/252 254/254/254 382/382/382
f 383/383/383 380/380/380 381/381/381
f 382/382/382 380/380/380 383/383/383
f 383/383/383 381/381/381 384/384/384
f 252/252/252 382/382/382 385/385/385
f 385/385/385 382/382/382 383/383/383
f 252/252/252 385/385/385 253/253/253
f 385/385/385 386/386/386 253/253/253
f 387/387/387 383/383/383 384/384/384
f 385/385/385 383/383/383 387/387/387
f 385/385/385 387/387/387 386/386/386
f 387/387/387 384/384/384 388/388/388
f 387/387/387 389/389/389 386/386/386
f 387/387/387 388/388/388 389/389/389
f 390/390/390 392/392/392 391/391/391
f 390/390/390 393/393/393 392/392/392
f 393/393/393 394/394/394 392/392/392
f 390/390/390 395/395/395 393/393/393
f 390/390/390 396/396/396 395/395/395
f 393/393/393 397/397/397 394/394/394
f 397/397/397 398/398/398 394/394/394
f 393/393/393 395/395/395 399/399/399
f 393/393/393 399/399/399 397/397/397
f 396/396/396 400/400/400 395/395/395
f 396/396/396 401/401/401 400/400/400
f 397/397/397 402/402/402 398/398/398
f 402/402/402 403/403/403 398/398/398
f 397/397/397 399/399/399 404/404/404
f 397/397/397 404/404/404 402/402/402
f 395/395/395 405/405/405 399/399/399
f 395/395/395 400/400/400 405/405/405
f 401/401/401 406/406/406 400/400/400
f 401/401/401 407/407/407 406/406/406
f 402/402/402 408/408/408 403/403/403
f 408/408/408 409/409/409 403/403/403
f 402/402/402 404/404/404 410/410/410
f 402/402/402 410/410/410 408/408/408
f 399/399/399 411/411/411 404/404/404
f 399/399/399 405/405/405 411/411/411
f 400/400/400 412/412/412 405/405/405
f 400/400/400 406/406/406 412/412/412
f 407/407/407 413/413/413 406/406/406
f 407/407/407 414/414/414 413/413/413
f 408/408/408 415/415/415 409/409/409
f 415/415/415 416/416/416 409/409/409
f 408/408/408 410/410/410 417/417/417
f 408/408/408 417/417/417 415/415/415
f 404/404/404 418/418/418 410/410/410
f 404/404/404 411/411/411 418/418/418
f 405/405/405 419/419/419 411/411/411
f 405/405/405 412/412/412 419/419/419
f 406/406/406 420/420/420 412/412/412
f 406/406/406 413/413/413 420/420/420
f 415/415/415 421/421/421 416/416/416
f 421/421/421 422/422/422 416/416/416
f 412/412/412 420/420/420 423/423/423
f 412/412/412 423/423/423 419/419/419
f 419/419/419 423/423/423 424/424/424
f 411/411/411 419/419/419 425/425/425
f 411/411/411 425/425/425 418/418/418
f 419/419/419 424/424/424 425/425/425
f 423/423/423 420/420/420 426/426/426
f 426/426/426 420/420/420 413/413/413
f 415/415/415 427/427/427 421/421/421
f 415/415/415 417/417/417 427/427/427
f 421/421/421 428/428/428 422/422/422
f 428/428/428 429/429/429 422/422/422
f 428/428/428 430/430/430 429/429/429
f 428/428/428 431/431/431 430/430/430
f 421/421/421 432/432/432 428/428/428
f 428/428/428 432/432/432 431/431/431
f 421/421/421 427/427/427 432/432/432
f 432/432/432 433/433/433 431/431/431
f 432/432/432 434/434/434 433/433/433
f 427/427/427 434/434/434 432/432/432
f 434/434/434 435/435/435 433/433/433
f 417/417/417 436/436/436 427/427/427
f 427/427/427 436/436/436 434/434/434
f 434/434/434 437/437/437 435/435/435
f 436/436/436 437/437/437 434/434/434
f 417/417/417 438/438/438 436/436/436
f 410/410/410 438/438/438 417/417/417
f 410/410/410 418/418/418 438/438/438
f 438/438/438 439/439/439 436/436/436
f 436/436/436 439/439/439 437/437/437
f 418/418/418 440/440/440 438/438/438
f 438/438/438 440/440/440 439/439/439
f 418/418/418 425/425/425 440/440/440
f 439/439/439 440/440/440 441/441/441
f 441/441/441 440/440/440 425/425/425
f 442/442/442 437/437/437 439/439/439
f 439/439/439 441/441/441 442/442/442
f 437/437/437 443/443/443 435/435/435
f 442/442/442 443/443/443 437/437/437
f 435/435/435 443/443/443 444/444/444
f 442/442/442 444/444/444 443/443/443
f 435/435/435 444/444/444 445/445/445
f 444/444/444 446/446/446 445/445/445
f 425/425/425 447/447/447 441/441/441
f 425/425/425 424/424/424 447/447/447
f 441/441/441 448/448/448 442/442/442
f 442/442/442 448/448/448 444/444/444
f 441/441/441 447/447/447 448/448/448
f 444/444/444 449/449/449 446/446/446
f 448/448/448 449/449/449 444/444/444
f 449/449/449 450/450/450 446/446/446
f 447/447/447 451/451/451 448/448/448
f 448/448/448 451/451/451 449/449/449
f 449/449/449 452/452/452 450/450/450
f 451/451/451 452/452/452 449/449/449
f 452/452/452 453/453/453 450/450/450
f 447/447/447 454/454/454 451/451/451
f 424/424/424 454/454/454 447/447/447
f 451/451/451 455/455/455 452/452/452
f 454/454/454 455/455/455 451/451/451
f 452/452/452 456/456/456 453/453/453
f 455/455/455 456/456/456 452/452/452
f 456/456/456 457/457/457 453/453/453
f 456/456/456 458/458/458 457/457/457
f 458/458/458 459/459/459 457/457/457
f 455/455/455 460/460/460 456/456/456
f 460/460/460 458/458/458 456/456/456
f 454/454/454 461/461/461 455/455/455
f 461/461/461 460/460/460 455/455/455
f 458/458/458 462/462/462 459/459/459
f 462/462/462 463/463/463 459/459/459
f 460/460/460 464/464/464 458/458/458
f 464/464/464 462/462/462 458/458/458
f 462/462/462 465/465/465 463/463/463
f 465/465/465 466/466/466 463/463/463
f 467/467/467 461/461/461 454/454/454
f 424/424/424 467/467/467 454/454/454
f 461/461/461 468/468/468 460/460/460
f 468/468/468 464/464/464 460/460/460
f 464/464/464 469/469/469 462/462/462
f 469/469/469 465/465/465 462/462/462
f 465/465/465 470/470/470 466/466/466
f 470/470/470 471/471/471 466/466/466
f 467/467/467 472/472/472 461/461/461
f 472/472/472 468/468/468 461/461/461
f 424/424/424 473/473/473 467/467/467
f 473/473/473 472/472/472 467/467/467
f 468/468/468 474/474/474 464/464/464
f 474/474/474 469/469/469 464/464/464
f 474/474/474 475/475/475 469/469/469
f 469/469/469 476/476/476 465/465/465
f 476/476/476 470/470/470 465/465/465
f 475/475/475 476/476/476 469/469/469
f 470/470/470 477/477/477 471/471/471
f 477/477/477 478/478/478 471/471/471
f 472/472/472 479/479/479 468/468/468
f 479/479/479 474/474/474 468/468/468
f 476/476/476 480/480/480 470/470/470
f 480/480/480 477/477/477 470/470/470
f 477/477/477 481/481/481 478/478/478
f 481/481/481 482/482/482 478/478/478
f 475/475/475 483/483/483 476/476/476
f 483/483/483 480/480/480 476/476/476
f 480/480/480 484/484/484 477/477/477
f 484/484/484 481/481/481 477/477/477
f 481/481/481 485/485/485 482/482/482
f 485/485/485 486/486/486 482/482/482
f 483/483/483 487/487/487 480/480/480
f 487/487/487 484/484/484 480/480/480
f 484/484/484 488/488/488 481/481/481
f 488/488/488 485/485/485 481/481/481
f 485/485/485 489/489/489 486/486/486
f 489/489/489 490/490/490 486/486/486
f 475/475/475 491/491/491 483/483/483
f 491/491/491 487/487/487 483/483/483
f 487/487/487 492/492/492 484/484/484
f 492/492/492 488/488/488 484/484/484
f 488/488/488 493/493/493 485/485/485
f 493/493/493 489/489/489 485/485/485
f 489/489/489 494/494/494 490/490/490
f 494/494/494 495/495/495 490/490/490
f 491/491/491 496/496/496 487/487/487
f 496/496/496 492/492/492 487/487/487
f 492/492/492 497/497/497 488/488/488
f 497/497/497 493/493/493 488/488/488
f 493/493/493 498/498/498 489/489/489
f 498/498/498 494/494/494 489/489/489
f 494/494/494 499/499/499 495/495/495
f 499/499/499 500/500/500 495/495/495
f 496/496/496 501/501/501 492/492/492
f 501/501/501 497/497/497 492/492/492
f 497/497/497 502/502/502 493/493/493
f 502/502/502 498/498/498 493/493/493
f 498/498/498 503/503/503 494/494/494
f 503/503/503 499/499/499 494/494/494
f 499/499/499 504/504/504 500/500/500
f 504/504/504 505/505/505 500/500/500
f 501/501/501 506/506/506 497/497/497
f 506/506/506 502/502/502 497/497/497
f 502/502/502 507/507/507 498/498/498
f 507/507/507 503/503/503 498/498/498
f 503/503/503 508/508/508 499/499/499
f 508/508/508 504/504/504 499/499/499
f 504/504/504 509/509/509 505/505/505
f 509/509/509 510/510/510 505/505/505
f 506/506/506 511/511/511 502/502/502
f 511/511/511 507/507/507 502/502/502
f 507/507/507 512/512/512 503/503/503
f 512/512/512 508/508/508 503/503/503
f 508/508/508 513/513/513 504/504/504
f 513/513/513 509/509/509 504/504/504
f 509/509/509 514/514/514 510/510/510
f 514/514/514 515/515/515 510/510/510
f 511/511/511 516/516/516 507/507/507
f 516/516/516 512/512/512 507/507/507
f 512/512/512 517/517/517 508/508/508
f 517/517/517 513/513/513 508/508/508
f 513/513/513 518/518/518 509/509/509
f 518/518/518 514/514/514 509/509/509
f 514/514/514 519/519/519 515/515/515
f 519/519/519 520/520/520 515/515/515
f 521/521/521 519/519/519 514/514/514
f 518/518/518 521/521/521 514/514/514
f 522/522/522 518/518/518 513/513/513
f 517/517/517 522/522/522 513/513/513
f 523/523/523 517/517/517 512/512/512
f 516/516/516 523/523/523 512/512/512
f 524/524/524 520/520/520 519/519/519
f 521/521/521 524/524/524 519/519/519
f 525/525/525 521/521/521 518/518/518
f 522/522/522 525/525/525 518/518/518
f 526/526/526 522/522/522 517/517/517
f 523/523/523 526/526/526 517/517/517
f 527/527/527 524/524/524 521/521/521
f 525/525/525 527/527/527 521/521/521
f 528/528/528 525/525/525 522/522/522
f 526/526/526 528/528/528 522/522/522
f 529/529/529 520/520/520 524/524/524
f 527/527/527 529/529/529 524/524/524
f 530/530/530 527/527/527 525/525/525
f 528/528/528 530/530/530 525/525/525
f 531/531/531 529/529/529 527/527/527
f 530/530/530 531/531/531 527/527/527
f 532/532/532 520/520/520 529/529/529
f 531/531/531 532/532/532 529/529/529
f 533/533/533 526/526/526 523/523/523
f 534/534/534 528/528/528 526/526/526
f 533/533/533 534/534/534 526/526/526
f 535/535/535 530/530/530 528/528/528
f 534/534/534 535/535/535 528/528/528
f 536/536/536 531/531/531 530/530/530
f 535/535/535 536/536/536 530/530/530
f 537/537/537 532/532/532 531/531/531
f 536/536/536 537/537/537 531/531/531
f 538/538/538 520/520/520 532/532/532
f 537/537/537 538/538/538 532/532/532
f 539/539/539 533/533/533 523/523/523
f 539/539/539 523/523/523 516/516/516
f 540/540/540 539/539/539 516/516/516
f 540/540/540 516/516/516 511/511/511
f 541/541/541 540/540/540 511/511/511
f 542/542/542 539/539/539 540/540/540
f 541/541/541 511/511/511 506/506/506
f 542/542/542 543/543/543 539/539/539
f 543/543/543 533/533/533 539/539/539
f 544/544/544 543/543/543 542/542/542
f 545/545/545 541/541/541 506/506/506
f 545/545/545 506/506/506 501/501/501
f 543/543/543 546/546/546 533/533/533
f 546/546/546 534/534/534 533/533/533
f 544/544/544 547/547/547 543/543/543
f 547/547/547 546/546/546 543/543/543
f 546/546/546 548/548/548 534/534/534
f 548/548/548 535/535/535 534/534/534
f 549/549/549 541/541/541 545/545/545
f 549/549/549 550/550/550 541/541/541
f 551/551/551 545/545/545 501/501/501
f 551/551/551 501/501/501 496/496/496
f 547/547/547 552/552/552 546/546/546
f 552/552/552 548/548/548 546/546/546
f 548/548/548 553/553/553 535/535/535
f 553/553/553 536/536/536 535/535/535
f 554/554/554 549/549/549 545/545/545
f 554/554/554 545/545/545 551/551/551
f 555/555/555 550/550/550 549/549/549
f 555/555/555 556/556/556 550/550/550
f 557/557/557 551/551/551 496/496/496
f 557/557/557 496/496/496 491/491/491
f 552/552/552 558/558/558 548/548/548
f 558/558/558 553/553/553 548/548/548
f 553/553/553 559/559/559 536/536/536
f 559/559/559 537/537/537 536/536/536
f 560/560/560 555/555/555 549/549/549
f 560/560/560 549/549/549 554/554/554
f 561/561/561 554/554/554 551/551/551
f 561/561/561 551/551/551 557/557/557
f 558/558/558 562/562/562 553/553/553
f 562/562/562 559/559/559 553/553/553
f 559/559/559 563/563/563 537/537/537
f 563/563/563 538/538/538 537/537/537
f 564/564/564 560/560/560 554/554/554
f 564/564/564 554/554/554 561/561/561
f 562/562/562 565/565/565 559/559/559
f 565/565/565 563/563/563 559/559/559
f 563/563/563 566/566/566 538/538/538
f 566/566/566 520/520/520 538/538/538
f 567/567/567 566/566/566 563/563/563
f 565/565/565 567/567/567 563/563/563
f 568/568/568 520/520/520 566/566/566
f 567/567/567 568/568/568 566/566/566
f 569/569/569 520/520/520 568/568/568
f 570/570/570 569/569/569 568/568/568
f 570/570/570 568/568/568 567/567/567
f 571/571/571 570/570/570 567/567/567
f 571/571/571 567/567/567 565/565/565
f 572/572/572 571/571/571 565/565/565
f 572/572/572 565/565/565 562/562/562
f 573/573/573 572/572/572 562/562/562
f 573/573/573 562/562/562 558/558/558
f 574/574/574 573/573/573 558/558/558
f 574/574/574 558/558/558 552/552/552
f 575/575/575 574/574/574 552/552/552
f 575/575/575 552/552/552 547/547/547
f 576/576/576 575/575/575 547/547/547
f 576/576/576 547/547/547 544/544/544
f 577/577/577 576/576/576 544/544/544
f 577/577/577 544/544/544 556/556/556
f 578/578/578 577/577/577 556/556/556
f 578/578/578 556/556/556 555/555/555
f 579/579/579 578/578/578 555/555/555
f 579/579/579 555/555/555 560/560/560
f 580/580/580 579/579/579 560/560/560
f 580/580/580 560/560/560 564/564/564
f 581/581/581 580/580/580 564/564/564
f 581/581/581 564/564/564 582/582/582
f 582/582/582 564/564/564 561/561/561
f 582/582/582 583/583/583 581/581/581
f 584/584/584 581/581/581 583/583/583
f 582/582/582 561/561/561 585/585/585
f 585/585/585 561/561/561 557/557/557
f 584/584/584 583/583/583 586/586/586
f 587/587/587 584/584/584 586/586/586
f 588/588/588 583/583/583 582/582/582
f 588/588/588 582/582/582 585/585/585
f 586/586/586 583/583/583 588/588/588
f 585/585/585 557/557/557 589/589/589
f 589/589/589 557/557/557 491/491/491
f 587/587/587 586/586/586 590/590/590
f 591/591/591 587/587/587 590/590/590
f 586/586/586 588/588/588 592/592/592
f 590/590/590 586/586/586 592/592/592
f 593/593/593 588/588/588 585/585/585
f 593/593/593 585/585/585 589/589/589
f 592/592/592 588/588/588 593/593/593
f 589/589/589 491/491/491 594/594/594
f 475/475/475 594/594/594 491/491/491
f 595/595/595 589/589/589 594/594/594
f 595/595/595 593/593/593 589/589/589
f 595/595/595 594/594/594 475/475/475
f 591/591/591 590/590/590 596/596/596
f 597/597/597 591/591/591 596/596/596
f 590/590/590 592/592/592 598/598/598
f 596/596/596 590/590/590 598/598/598
f 592/592/592 593/593/593 599/599/599
f 599/599/599 593/593/593 595/595/595
f 598/598/598 592/592/592 599/599/599
f 600/600/600 595/595/595 475/475/475
f 599/599/599 595/595/595 600/600/600
f 600/600/600 475/475/475 474/474/474
f 479/479/479 600/600/600 474/474/474
f 601/601/601 599/599/599 600/600/600
f 598/598/598 599/599/599 601/601/601
f 601/601/601 600/600/600 479/479/479
f 597/597/597 596/596/596 602/602/602
f 414/414/414 597/597/597 602/602/602
f 414/414/414 602/602/602 413/413/413
f 596/596/596 598/598/598 603/603/603
f 603/603/603 598/598/598 601/601/601
f 602/602/602 596/596/596 603/603/603
f 604/604/604 601/601/601 479/479/479
f 603/603/603 601/601/601 604/604/604
f 604/604/604 479/479/479 472/472/472
f 473/473/473 604/604/604 472/472/472
f 413/413/413 602/602/602 605/605/605
f 602/602/602 603/603/603 605/605/605
f 605/605/605 603/603/603 604/604/604
f 605/605/605 604/604/604 473/473/473
f 413/413/413 605/605/605 426/426/426
f 426/426/426 605/605/605 473/473/473
f 426/426/426 473/473/473 606/606/606
f 423/423/423 426/426/426 606/606/606
f 424/424/424 606/606/606 473/473/473
f 423/423/423 606/606/606 424/424/424
f 607/607/607 202/202/202 203/203/203
f 607/607/607 608/608/608 202/202/202
f 607/607/607 203/203/203 609/609/609
f 609/609/609 203/203/203 200/200/200
f 609/609/609 200/200/200 610/610/610
f 611/611/611 609/609/609 610/610/610
f 611/611/611 612/612/612 609/609/609
f 612/612/612 607/607/607 609/609/609
f 612/612/612 613/613/613 607/607/607
f 613/613/613 614/614/614 607/607/607
f 607/607/607 614/614/614 608/608/608
f 613/613/613 615/615/615 614/614/614
f 614/614/614 615/615/615 616/616/616
f 608/608/608 614/614/614 617/617/617
f 614/614/614 616/616/616 617/617/617
f 608/608/608 617/617/617 618/618/618
f 617/617/617 619/619/619 618/618/618
f 616/616/616 620/620/620 617/617/617
f 617/617/617 620/620/620 619/619/619
f 616/616/616 621/621/621 620/620/620
f 620/620/620 622/622/622 619/619/619
f 621/621/621 623/623/623 620/620/620
f 620/620/620 623/623/623 622/622/622
f 621/621/621 624/624/624 623/623/623
f 623/623/623 625/625/625 622/622/622
f 624/624/624 626/626/626 623/623/623
f 623/623/623 626/626/626 625/625/625
f 624/624/624 627/627/627 626/626/626
f 626/626/626 628/628/628 625/625/625
f 627/627/627 629/629/629 626/626/626
f 626/626/626 629/629/629 628/628/628
f 627/627/627 630/630/630 629/629/629
f 629/629/629 631/631/631 628/628/628
f 630/630/630 632/632/632 629/629/629
f 629/629/629 632/632/632 631/631/631
f 630/630/630 633/633/633 632/632/632
f 632/632/632 634/634/634 631/631/631
f 633/633/633 635/635/635 632/632/632
f 632/632/632 635/635/635 634/634/634
f 633/633/633 636/636/636 635/635/635
f 635/635/635 637/637/637 634/634/634
f 636/636/636 637/637/637 635/635/635
usemtl M_WindsweptLeaves
f 638/638/638 640/640/640 639/639/639
f 638/638/638 641/641/641 640/640/640
f 642/642/642 644/644/644 643/643/643
f 642/642/642 645/645/645 644/644/644
f 646/646/646 648/648/648 647/647/647
f 646/646/646 649/649/649 648/648/648
f 650/650/650 652/652/652 651/651/651
f 650/650/650 653/653/653 652/652/652
f 654/654/654 656/656/656 655/655/655
f 654/654/654 657/657/657 656/656/656
f 658/658/658 660/660/660 659/659/659
f 658/658/658 661/661/661 660/660/660
f 662/662/662 664/664/664 663/663/663
f 662/662/662 665/665/665 664/664/664
f 666/666/666 668/668/668 667/667/667
f 666/666/666 669/669/669 668/668/668
f 670/670/670 672/672/672 671/671/671
f 670/670/670 673/673/673 672/672/672
f 674/674/674 676/676/676 675/675/675
f 674/674/674 677/677/677 676/676/676
f 678/678/678 680/680/680 679/679/679
f 678/678/678 681/681/681 680/680/680
