mtllib P_TreeWindsweptB01.mtl
v -0.1487702 3.257449 0.1910855 1 1 1
v -0.007963896 3.093185 0.3138641 1 1 1
v -0.2258295 3.123207 0.1826017 1 1 1
v 0.1045017 0.7415527 0.312862 1 1 1
v 0.2151207 1.395257 0.1421584 1 1 1
v 0.4441427 0.8408276 0.2316168 1 1 1
v -0.1219597 1.331322 0.2107785 1 1 1
v -0.1090571 2.037564 0.3422403 1 1 1
v 0.160625 2.0358 0.2843599 1 1 1
v -0.007963896 3.093185 0.3138641 1 1 1
v 0.2252941 2.986871 0.2429872 1 1 1
v 0.425679 3.531478 0.3330973 1 1 1
v 0.5114474 3.366987 0.2788163 1 1 1
v 0.3408858 3.670855 0.2507362 1 1 1
v -0.1487702 3.257449 0.1910855 1 1 1
v 0.9276123 3.730937 0.2893018 1 1 1
v 0.973824 3.573205 0.2319304 1 1 1
v 0.8892899 3.883041 0.2137852 1 1 1
v 1.824929 3.884364 0.3473228 1 1 1
v 1.927172 3.755391 0.295013 1 1 1
v 1.769955 4.019064 0.2694881 1 1 1
v 2.673654 4.636905 -0.01698961 1 1 1
v 2.727277 4.563041 -0.07327966 1 1 1
v 2.869284 4.821383 -0.2280724 1 1 1
v 2.539008 4.680532 -0.03594204 1 1 1
v 2.829519 4.902126 -0.1815523 1 1 1
v 3.662605 5.308778 -0.4256757 1 1 1
v 3.689423 5.209273 -0.4615329 1 1 1
v 4.502242 5.271163 -0.07715444 1 1 1
v 4.49855 5.186783 -0.1130844 1 1 1
v 5.481648 4.939795 0.1570958 1 1 1
v 5.484073 4.877862 0.1317065 1 1 1
v 6.241934 5.291003 -0.1323238 1 1 1
v 6.250535 5.259078 -0.1463119 1 1 1
v 6.921844 5.406281 -0.09245054 1 1 1
v 6.231076 5.322495 -0.1457172 1 1 1
v 6.921844 5.406281 -0.09245054 1 1 1
v 5.478304 5.001488 0.1312306 1 1 1
v 4.529161 5.353501 -0.1074917 1 1 1
v 3.643871 5.405351 -0.4728878 1 1 1
v 6.22432 5.335102 -0.1786465 1 1 1
v 6.921844 5.406281 -0.09245054 1 1 1
v 5.476 5.026801 0.06926225 1 1 1
v 2.799086 4.966993 -0.2243162 1 1 1
v 4.563539 5.385564 -0.1863249 1 1 1
v 6.225626 5.321442 -0.2118221 1 1 1
v 6.921844 5.406281 -0.09245054 1 1 1
v 5.476084 5.000907 0.007491161 1 1 1
v 3.644197 5.44242 -0.575513 1 1 1
v 2.432028 4.696582 -0.1340859 1 1 1
v 6.234228 5.289516 -0.2258103 1 1 1
v 6.921844 5.406281 -0.09245054 1 1 1
v 4.585237 5.348571 -0.2674748 1 1 1
v 2.768992 4.984859 -0.3319882 1 1 1
v 1.726875 4.065311 0.0843929 1 1 1
v 5.478509 4.938975 -0.01789811 1 1 1
v 3.663391 5.398272 -0.6734348 1 1 1
v 2.453069 4.680233 -0.2669499 1 1 1
v 0.8813057 3.940414 0.04961665 1 1 1
v 6.245086 5.258025 -0.2124169 1 1 1
v 6.921844 5.406281 -0.09245054 1 1 1
v 4.581545 5.264192 -0.3034047 1 1 1
v 2.754499 4.921319 -0.4349863 1 1 1
v 1.729182 3.996012 -0.07989122 1 1 1
v 0.3207569 3.725734 0.07758217 1 1 1
v 5.481853 4.877282 0.007967259 1 1 1
v 3.690209 5.298766 -0.7092919 1 1 1
v 2.553066 4.645813 -0.3451683 1 1 1
v 0.9083366 3.869448 -0.1070357 1 1 1
v 6.251841 5.245418 -0.1794876 1 1 1
v 6.921844 5.406281 -0.09245054 1 1 1
v 4.554626 5.181853 -0.2730674 1 1 1
v 2.782152 4.813012 -0.4735451 1 1 1
v 1.782476 3.851763 -0.09073279 1 1 1
v 5.484157 4.851968 0.06993549 1 1 1
v 3.708942 5.202194 -0.6620798 1 1 1
v 2.644413 4.567142 -0.3050888 1 1 1
v 6.250535 5.259078 -0.1463119 1 1 1
v 6.921844 5.406281 -0.09245054 1 1 1
v 5.484073 4.877862 0.1317065 1 1 1
v 4.520248 5.149789 -0.1942343 1 1 1
v 4.49855 5.186783 -0.1130844 1 1 1
v 3.708616 5.165125 -0.5594546 1 1 1
v 3.689423 5.209273 -0.4615329 1 1 1
v 2.850615 4.735341 -0.4290017 1 1 1
v 2.884347 4.746191 -0.3291744 1 1 1
v 2.869284 4.821383 -0.2280724 1 1 1
v 2.727277 4.563041 -0.07327966 1 1 1
v 2.714092 4.522117 -0.1898266 1 1 1
v 1.902407 3.732339 0.002916383 1 1 1
v 2.013029 3.705795 0.1532962 1 1 1
v 1.927172 3.755391 0.295013 1 1 1
v 0.9545485 3.711716 -0.1644072 1 1 1
v 1.000855 3.50224 0.0752781 1 1 1
v 0.973824 3.573205 0.2319304 1 1 1
v 0.9928707 3.559612 -0.08889037 1 1 1
v 0.3770838 3.663967 -0.08493326 1 1 1
v 0.5677745 3.30522 0.1163009 1 1 1
v 0.5114474 3.366987 0.2788163 1 1 1
v 0.5616641 3.38236 -0.05924946 1 1 1
v 0.4768711 3.521737 -0.1416108 1 1 1
v 0.09473491 3.111255 -0.3732584 1 1 1
v -0.2013149 3.307506 -0.05548171 1 1 1
v 0.3519924 2.948128 0.01237574 1 1 1
v 0.2252941 2.986871 0.2429872 1 1 1
v 0.297913 2.999649 -0.2428816 1 1 1
v -0.0787456 3.269321 -0.2771713 1 1 1
v -0.1525569 3.136056 -0.3060627 1 1 1
v -0.0787456 3.269321 -0.2771713 1 1 1
v -0.2803469 3.175089 -0.07431805 1 1 1
v -0.2258295 3.123207 0.1826017 1 1 1
v -0.4154339 2.070008 0.1711689 1 1 1
v 0.3132656 2.053494 0.0403798 1 1 1
v 0.160625 2.0358 0.2843599 1 1 1
v 0.2436048 2.081558 -0.2519475 1 1 1
v -0.0469265 2.112727 -0.4178517 1 1 1
v -0.3275512 2.119619 -0.3519646 1 1 1
v -0.4801918 2.101924 -0.1079842 1 1 1
v 0.376136 1.438719 -0.1165794 1 1 1
v 0.2151207 1.395257 0.1421584 1 1 1
v 0.2667651 1.436247 -0.4138699 1 1 1
v -0.004699707 1.389291 -0.5789675 1 1 1
v -0.2986519 1.325355 -0.513666 1 1 1
v -0.4596672 1.281892 -0.2549281 1 1 1
v 0.6248493 0.8346235 -0.03920457 1 1 1
v 0.4441427 0.8408276 0.2316168 1 1 1
v 0.4626392 0.718581 0.2518508 1 1 1
v 0.6448052 0.7119048 -0.02270945 1 1 1
v 0.5860593 -0.1358898 0.09624244 1 1 1
v 0.3892758 -0.0900287 0.3888049 1 1 1
v 0.5179689 0.7852227 -0.3512805 1 1 1
v 0.6248493 0.8346235 -0.03920457 1 1 1
v 0.6448052 0.7119048 -0.02270945 1 1 1
v 0.5393639 0.6615258 -0.3387426 1 1 1
v 0.4451668 -0.9078765 0.1015727 1 1 1
v 0.2361113 -0.8613772 0.4118847 1 1 1
v 0.03130531 -1.462177 0.3444159 1 1 1
v 0.1549892 -1.478959 0.1563063 1 1 1
v 0.3772007 -0.9019711 -0.2689779 1 1 1
v 0.1095345 -1.485018 -0.06458006 1 1 1
v 0.5185313 -0.1496559 -0.2525704 1 1 1
v 0.07202661 -0.847118 -0.4827035 1 1 1
v -0.07843244 -1.476803 -0.1888508 1 1 1
v 0.2262478 -0.1232613 -0.4533035 1 1 1
v -0.2915885 -0.7754512 -0.4144064 1 1 1
v -0.2988026 -1.459127 -0.1437099 1 1 1
v 0.2592694 0.6615326 -0.5207709 1 1 1
v 0.5179689 0.7852227 -0.3512805 1 1 1
v -0.1195748 -0.07216912 -0.3883704 1 1 1
v -0.5006437 -0.7289512 -0.1040942 1 1 1
v -0.4224863 -1.442345 0.04439981 1 1 1
v -0.05824542 0.6209862 -0.4525711 1 1 1
v -0.3163583 -0.02630807 -0.09580769 1 1 1
v -0.4326779 -0.7348574 0.2664562 1 1 1
v -0.3770315 -1.436286 0.2652861 1 1 1
v -0.2390518 0.6276287 -0.1798518 1 1 1
v -0.2488298 -0.01254197 0.253005 1 1 1
v -0.1275036 -0.7897105 0.4801816 1 1 1
v -0.1890646 -1.444501 0.3895568 1 1 1
v -0.1772362 0.6775691 0.1376315 1 1 1
v 0.04345357 -0.03893654 0.453738 1 1 1
v 0.2361113 -0.8613772 0.4118847 1 1 1
v 0.03130531 -1.462177 0.3444159 1 1 1
v 0.3892758 -0.0900287 0.3888049 1 1 1
v 0.4626392 0.718581 0.2518508 1 1 1
v 0.4441427 0.8408276 0.2316168 1 1 1
v -0.3934242 1.284364 0.04568107 1 1 1
v -0.2258295 3.123207 0.1826017 1 1 1
v -0.007963896 3.093185 0.3138641 1 1 1
v 1.808158 4.071289 0.09926673 1 1 1
v 1.948134 4.029028 0.03429824 1 1 1
v 2.243128 3.922952 0.7737011 1 1 1
v 2.137305 3.956005 0.852337 1 1 1
v 1.698476 3.959663 0.1325798 1 1 1
v 2.723133 3.844568 1.240272 1 1 1
v 2.668295 3.874367 1.336368 1 1 1
v 2.722128 3.883324 1.362568 1 1 1
v 2.775414 3.854082 1.268718 1 1 1
v 3.105542 3.984981 1.343334 1 1 1
v 3.071734 4.011129 1.424164 1 1 1
v 3.589166 3.92078 1.636069 1 1 1
v 2.0544 3.858946 0.8990343 1 1 1
v 1.72877 3.805779 0.1009244 1 1 1
v 2.668295 3.874367 1.336368 1 1 1
v 2.077318 3.728834 0.8670959 1 1 1
v 1.868746 3.76352 0.03595596 1 1 1
v 2.645882 3.795319 1.416697 1 1 1
v 2.18314 3.695781 0.7884601 1 1 1
v 1.978428 3.875145 0.002642968 1 1 1
v 3.551503 3.939274 1.689844 1 1 1
v 4.115322 3.921099 2.128797 1 1 1
v 2.700156 3.806501 1.440993 1 1 1
v 2.722128 3.883324 1.362568 1 1 1
v 3.029594 3.958705 1.473496 1 1 1
v 2.656599 3.688034 1.381844 1 1 1
v 2.266045 3.79284 0.7417629 1 1 1
v 1.948134 4.029028 0.03429824 1 1 1
v 2.243128 3.922952 0.7737011 1 1 1
v 4.099176 3.931491 2.165843 1 1 1
v 4.74286 3.623278 2.26472 1 1 1
v 2.713132 3.657979 1.286459 1 1 1
v 2.755319 3.735573 1.224501 1 1 1
v 2.723133 3.844568 1.240272 1 1 1
v 2.755319 3.735573 1.224501 1 1 1
v 2.775414 3.854082 1.268718 1 1 1
v 2.806815 3.748138 1.253266 1 1 1
v 2.784863 3.671291 1.331611 1 1 1
v 2.784863 3.671291 1.331611 1 1 1
v 3.096959 3.819618 1.384205 1 1 1
v 2.73156 3.70045 1.425502 1 1 1
v 3.063152 3.845766 1.465035 1 1 1
v 3.097208 3.906409 1.311835 1 1 1
v 3.105542 3.984981 1.343334 1 1 1
v 3.596855 3.854723 1.620917 1 1 1
v 3.589166 3.92078 1.636069 1 1 1
v 3.566883 3.80716 1.659539 1 1 1
v 4.113454 3.881569 2.115573 1 1 1
v 4.115322 3.921099 2.128797 1 1 1
v 4.74286 3.623278 2.26472 1 1 1
v 4.095442 3.852428 2.139395 1 1 1
v 4.74286 3.623278 2.26472 1 1 1
v 3.52922 3.825654 1.713314 1 1 1
v 4.079298 3.86282 2.176441 1 1 1
v 4.74286 3.623278 2.26472 1 1 1
v 4.081164 3.902351 2.189665 1 1 1
v 4.74286 3.623278 2.26472 1 1 1
v 3.52153 3.891711 1.728467 1 1 1
v 4.74286 3.623278 2.26472 1 1 1
v 2.73156 3.70045 1.425502 1 1 1
v 2.700156 3.806501 1.440993 1 1 1
v 3.550696 5.261365 -0.4506522 1 1 1
v 3.605954 5.168789 -0.5935587 1 1 1
v 3.527266 5.585306 -0.8700725 1 1 1
v 3.484022 5.669162 -0.7673401 1 1 1
v 3.7177 5.320123 -0.4241394 1 1 1
v 3.596959 5.766585 -1.001076 1 1 1
v 3.61458 5.678012 -0.7194819 1 1 1
v 3.772958 5.227546 -0.567046 1 1 1
v 3.569819 5.852031 -0.9234032 1 1 1
v 3.829912 6.019435 -1.156871 1 1 1
v 3.655939 5.593938 -0.822071 1 1 1
v 3.605954 5.168789 -0.5935587 1 1 1
v 3.527266 5.585306 -0.8700725 1 1 1
v 3.818874 6.106472 -1.104258 1 1 1
v 4.663615 6.015939 -1.419603 1 1 1
v 3.665649 5.838059 -0.8627116 1 1 1
v 3.69279 5.752612 -0.9403842 1 1 1
v 3.596959 5.766585 -1.001076 1 1 1
v 4.662499 6.070598 -1.38995 1 1 1
v 5.527469 6.323753 -1.534944 1 1 1
v 3.879558 6.069696 -1.030717 1 1 1
v 3.888122 5.981492 -1.082934 1 1 1
v 3.829912 6.019435 -1.156871 1 1 1
v 4.681509 6.042659 -1.337738 1 1 1
v 5.527469 6.323753 -1.534944 1 1 1
v 4.682626 5.988 -1.367392 1 1 1
v 5.527469 6.323753 -1.534944 1 1 1
v 4.663615 6.015939 -1.419603 1 1 1
v 5.527469 6.323753 -1.534944 1 1 1
v 3.934757 6.079278 -1.143123 1 1 1
v 3.949528 6.011733 -1.112053 1 1 1
v 4.167892 6.224278 -0.7464222 1 1 1
v 4.169553 6.263732 -0.7642303 1 1 1
v 4.505002 6.24698 -0.6692832 1 1 1
v 3.87113 6.084183 -1.102214 1 1 1
v 4.147815 6.279904 -0.7304307 1 1 1
v 4.505002 6.24698 -0.6692832 1 1 1
v 3.885901 6.016638 -1.071144 1 1 1
v 4.146155 6.24045 -0.7126219 1 1 1
v 4.505002 6.24698 -0.6692832 1 1 1
v 3.949528 6.011733 -1.112053 1 1 1
v 4.167892 6.224278 -0.7464222 1 1 1
v 4.505002 6.24698 -0.6692832 1 1 1
v 3.099209 3.906958 1.457746 1 1 1
v 3.11971 3.958947 1.399328 1 1 1
v 3.122278 4.243147 1.669655 1 1 1
v 3.107466 4.204224 1.709151 1 1 1
v 3.177399 3.894394 1.474005 1 1 1
v 3.323176 4.486334 2.03685 1 1 1
v 3.161755 4.185715 1.711271 1 1 1
v 3.197901 3.946384 1.415587 1 1 1
v 3.315721 4.468902 2.06563 1 1 1
v 3.296071 4.846801 2.145087 1 1 1
v 3.176567 4.224639 1.671774 1 1 1
v 3.11971 3.958947 1.399328 1 1 1
v 3.122278 4.243147 1.669655 1 1 1
v 3.348897 4.460174 2.068937 1 1 1
v 3.296071 4.846801 2.145087 1 1 1
v 3.356352 4.477607 2.040157 1 1 1
v 3.296071 4.846801 2.145087 1 1 1
v 3.323176 4.486334 2.03685 1 1 1
v 3.296071 4.846801 2.145087 1 1 1
v 3.731643 3.849348 1.78507 1 1 1
v 3.746047 3.830114 1.866285 1 1 1
v 4.120862 3.867019 1.798596 1 1 1
v 4.104866 3.881444 1.736218 1 1 1
v 3.729296 3.931637 1.804974 1 1 1
v 4.54964 3.997741 1.671352 1 1 1
v 4.097751 3.944941 1.752726 1 1 1
v 3.743701 3.912404 1.886188 1 1 1
v 4.551517 4.009735 1.6245 1 1 1
v 5.005111 3.919333 1.839799 1 1 1
v 4.113749 3.930517 1.815104 1 1 1
v 3.746047 3.830114 1.866285 1 1 1
v 4.120862 3.867019 1.798596 1 1 1
v 4.54897 4.056582 1.63639 1 1 1
v 5.013626 3.926531 1.812569 1 1 1
v 5.379924 3.955596 1.908251 1 1 1
v 4.547092 4.044588 1.683243 1 1 1
v 4.54964 3.997741 1.671352 1 1 1
v 5.013401 3.954995 1.820023 1 1 1
v 5.379924 3.955596 1.908251 1 1 1
v 5.004886 3.947796 1.847253 1 1 1
v 5.379924 3.955596 1.908251 1 1 1
v 5.005111 3.919333 1.839799 1 1 1
v 5.379924 3.955596 1.908251 1 1 1
v -0.1928749 -0.004674634 0.2405596 1 1 1
v -0.3080394 -0.3290092 0.1253642 1 1 1
v -0.4339797 0.2156034 0.245103 1 1 1
v -0.2750572 0.3028138 0.3049034 1 1 1
v -0.06362081 0.06802441 0.1074344 1 1 1
v -0.9583557 0.7862198 0.08810469 1 1 1
v -0.1525764 0.3756268 0.1778807 1 1 1
v -0.107729 0.06805871 -0.08555372 1 1 1
v -0.8707592 0.9218566 0.118802 1 1 1
v -1.292815 0.9911334 -0.4379625 1 1 1
v -0.1890179 0.3612297 -0.008942082 1 1 1
v -0.2236609 -0.2439757 -0.2112884 1 1 1
v -0.7520553 0.9682602 0.01502805 1 1 1
v -1.259822 1.125216 -0.4476901 1 1 1
v -1.641192 0.9728729 -0.6950374 1 1 1
v -0.3479404 0.2740197 -0.06874232 1 1 1
v -0.3587339 -0.3165772 -0.07292064 1 1 1
v -0.720948 0.879026 -0.1194433 1 1 1
v -1.164553 1.166588 -0.5391968 1 1 1
v -1.60702 1.079539 -0.6958098 1 1 1
v -1.961304 1.301664 -1.188679 1 1 1
v -0.4704212 0.2012062 0.05828015 1 1 1
v -0.3080394 -0.3290092 0.1253642 1 1 1
v -0.4339797 0.2156034 0.245103 1 1 1
v -0.8085445 0.7433891 -0.1501407 1 1 1
v -0.9272484 0.6969857 -0.0463667 1 1 1
v -0.9583557 0.7862198 0.08810469 1 1 1
v -1.102277 1.073878 -0.6209762 1 1 1
v -1.528479 1.11266 -0.7684757 1 1 1
v -1.914433 1.36814 -1.168822 1 1 1
v -2.449128 1.840661 -1.537216 1 1 1
v -1.135271 0.9397949 -0.6112486 1 1 1
v -1.23054 0.8984229 -0.5197418 1 1 1
v -1.292815 0.9911334 -0.4379625 1 1 1
v -1.484111 1.039116 -0.8403689 1 1 1
v -1.84815 1.38819 -1.215882 1 1 1
v -2.408152 1.86522 -1.51824 1 1 1
v -2.491412 2.116575 -1.468851 1 1 1
v -1.518284 0.9324499 -0.8395965 1 1 1
v -1.596824 0.8993286 -0.7669306 1 1 1
v -1.641192 0.9728729 -0.6950374 1 1 1
v -1.828738 1.341765 -1.2828 1 1 1
v -2.372796 1.884642 -1.550102 1 1 1
v -2.491412 2.116575 -1.468851 1 1 1
v -1.875608 1.27529 -1.302658 1 1 1
v -1.941892 1.25524 -1.255598 1 1 1
v -1.961304 1.301664 -1.188679 1 1 1
v -2.378419 1.879506 -1.600938 1 1 1
v -2.491412 2.116575 -1.468851 1 1 1
v -2.419397 1.854947 -1.619913 1 1 1
v -2.491412 2.116575 -1.468851 1 1 1
v -2.454751 1.835525 -1.588052 1 1 1
v -2.491412 2.116575 -1.468851 1 1 1
v -2.449128 1.840661 -1.537216 1 1 1
v -2.491412 2.116575 -1.468851 1 1 1
v -1.664128 1.024113 -0.8869103 1 1 1
v -1.624586 1.107511 -0.8835745 1 1 1
v -1.958728 1.2406 -0.6313325 1 1 1
v -1.993277 1.184917 -0.6290312 1 1 1
v -1.619375 0.9998118 -0.8098606 1 1 1
v -2.300753 1.555977 -0.4277329 1 1 1
v -1.963395 1.168694 -0.5729644 1 1 1
v -1.579833 1.083211 -0.8065249 1 1 1
v -2.317101 1.520238 -0.4300858 1 1 1
v -2.591299 1.492247 -0.04270499 1 1 1
v -1.928847 1.224378 -0.5752658 1 1 1
v -1.624586 1.107511 -0.8835745 1 1 1
v -1.958728 1.2406 -0.6313325 1 1 1
v -2.294035 1.507404 -0.3997568 1 1 1
v -2.591299 1.492247 -0.04270499 1 1 1
v -2.277248 1.54332 -0.3987933 1 1 1
v -2.591299 1.492247 -0.04270499 1 1 1
v -2.300753 1.555977 -0.4277329 1 1 1
v -2.591299 1.492247 -0.04270499 1 1 1
v -1.948522 1.336164 -1.32946 1 1 1
v -1.878535 1.396943 -1.301719 1 1 1
v -1.877155 1.523353 -1.63199 1 1 1
v -1.924932 1.488673 -1.678877 1 1 1
v -2.015112 1.402881 -1.307635 1 1 1
v -1.702092 1.676067 -1.771384 1 1 1
v -1.974882 1.544294 -1.669118 1 1 1
v -1.945126 1.463659 -1.279894 1 1 1
v -1.723754 1.67288 -1.822157 1 1 1
v -1.696836 1.954321 -1.757318 1 1 1
v -1.927104 1.578973 -1.622231 1 1 1
v -1.878535 1.396943 -1.301719 1 1 1
v -1.877155 1.523353 -1.63199 1 1 1
v -1.76891 1.6995 -1.804562 1 1 1
v -1.707078 1.958553 -1.789054 1 1 1
v -1.579512 2.09563 -1.787079 1 1 1
v -1.747248 1.702688 -1.75379 1 1 1
v -1.702092 1.676067 -1.771384 1 1 1
v -1.735789 1.972084 -1.777983 1 1 1
v -1.579512 2.09563 -1.787079 1 1 1
v -1.725547 1.967852 -1.746247 1 1 1
v -1.579512 2.09563 -1.787079 1 1 1
v -1.696836 1.954321 -1.757318 1 1 1
v -1.579512 2.09563 -1.787079 1 1 1
v -0.8544735 0.9097092 -0.2953308 1 1 1
v -0.7712013 0.8204322 -0.1394612 1 1 1
v -0.8719971 1.20619 0.105183 1 1 1
v -0.9255745 1.216322 -0.04797878 1 1 1
v -1.031183 0.8381553 -0.2419085 1 1 1
v -1.069412 1.752528 -0.07467089 1 1 1
v -1.073491 1.169569 0.000671211 1 1 1
v -0.9479103 0.7488785 -0.0860389 1 1 1
v -1.108386 1.741955 -0.1978669 1 1 1
v -1.080994 2.139986 -0.007053902 1 1 1
v -1.019913 1.159438 0.153833 1 1 1
v -0.7712013 0.8204322 -0.1394612 1 1 1
v -0.8719971 1.20619 0.105183 1 1 1
v -1.230717 1.726441 -0.1578355 1 1 1
v -1.108524 2.125381 -0.09804559 1 1 1
v -1.274707 2.399819 -0.1297937 1 1 1
v -1.191743 1.737014 -0.03463925 1 1 1
v -1.069412 1.752528 -0.07467089 1 1 1
v -1.197208 2.103758 -0.06774288 1 1 1
v -1.278064 2.36992 -0.1801881 1 1 1
v -1.661631 2.508964 -0.2412478 1 1 1
v -1.169678 2.118362 0.02324882 1 1 1
v -1.080994 2.139986 -0.007053902 1 1 1
v -1.317415 2.333668 -0.1560585 1 1 1
v -1.661631 2.508964 -0.2412478 1 1 1
v -1.314058 2.363568 -0.1056642 1 1 1
v -1.661631 2.508964 -0.2412478 1 1 1
v -1.274707 2.399819 -0.1297937 1 1 1
v -1.661631 2.508964 -0.2412478 1 1 1
v 5.71363 5.046813 0.003858131 1 1 1
v 5.776181 5.118394 -0.01688591 1 1 1
v 6.102587 4.887686 0.2394522 1 1 1
v 6.07179 4.830174 0.2621613 1 1 1
v 5.744204 4.997468 -0.07422605 1 1 1
v 6.509258 4.79807 0.2907745 1 1 1
v 6.085393 4.799124 0.2019724 1 1 1
v 5.806755 5.069049 -0.0949701 1 1 1
v 6.502393 4.76083 0.307698 1 1 1
v 7.23302 4.737932 0.4121197 1 1 1
v 6.116189 4.856637 0.1792633 1 1 1
v 5.776181 5.118394 -0.01688591 1 1 1
v 6.102587 4.887686 0.2394522 1 1 1
v 6.506523 4.743127 0.2704162 1 1 1
v 7.23302 4.737932 0.4121197 1 1 1
v 6.513388 4.780367 0.2534927 1 1 1
v 7.23302 4.737932 0.4121197 1 1 1
v 6.509258 4.79807 0.2907745 1 1 1
v 7.23302 4.737932 0.4121197 1 1 1
v -2.040857 1.823465 -1.840698 0 0 0
v -1.528578 2.426762 -1.95995 1 1 1
v -1.113784 2.119483 -1.732614 1 1 1
v -1.626064 1.516187 -1.613362 0.007843138 0.007843138 0.007843138
v -2.283575 1.29354 -0.3434964 0 0 0
v -2.671048 1.443179 -0.09305194 1 1 1
v -2.640228 1.831005 -0.277092 1 1 1
v -2.252754 1.681366 -0.5275365 0 0 0
v -2.101009 1.164076 -1.078295 0 0 0
v -2.933951 2.069038 -1.407976 1 1 1
v -2.480754 2.371203 -1.723553 1 1 1
v -1.647811 1.466241 -1.393872 0 0 0
v -1.559103 2.377578 -0.2136742 0 0 0
v -1.768488 2.732855 -0.3573868 0.9960784 0.9960784 0.9960784
v -1.582979 2.851195 -0.3351155 0.9960784 0.9960784 0.9960784
v -1.373594 2.495919 -0.1914029 0 0 0
v -1.329843 2.369996 -0.06667026 0 0 0
v -1.204131 2.671591 -0.1169406 0.9960784 0.9960784 0.9960784
v -1.044374 2.588822 -0.2140034 0.9960784 0.9960784 0.9960784
v -1.170087 2.287227 -0.163733 0 0 0
v 6.196821 5.346401 -0.2212979 0 0 0
v 6.470924 5.641988 -0.3558298 0.9960784 0.9960784 0.9960784
v 6.63026 5.541692 -0.2515569 0.9960784 0.9960784 0.9960784
v 6.356157 5.246105 -0.1170249 0 0 0
v 5.560765 5.109941 0.178636 0 0 0
v 5.988447 5.507331 0.2968639 1 1 1
v 6.31543 5.253116 -0.03150394 1 1 1
v 5.887747 4.855726 -0.1497318 0 0 0
v 6.535928 4.847999 0.2845981 0 0 0
v 6.758042 4.663304 0.2109845 0.9960784 0.9960784 0.9960784
v 6.665334 4.545284 0.2273658 0.9960784 0.9960784 0.9960784
v 6.44322 4.729979 0.3009794 0 0 0
v 7.003672 4.815559 0.3817803 0 0 0
v 7.276271 4.900097 0.3213085 0.9960784 0.9960784 0.9960784
v 7.327514 4.734603 0.3209521 0.9960784 0.9960784 0.9960784
v 7.054915 4.650066 0.3814239 0 0 0
v 3.530974 5.817717 -0.4779797 0.003921569 0.003921569 0.003921569
v 4.691829 6.525958 -0.7920904 1 1 1
v 4.654029 6.185598 -1.699212 1 1 1
v 3.493175 5.477357 -1.385102 0 0 0
v 4.160117 6.182934 -1.506348 0 0 0
v 4.992826 6.787932 -1.623091 1 1 1
v 5.421965 6.267655 -1.258351 1 1 1
v 4.589256 5.662657 -1.141608 0 0 0
v 3.530079 6.039491 -1.0189 0 0 0
v 3.86809 6.660306 -1.051878 1 1 1
v 4.426379 6.35329 -1.109271 1 1 1
v 4.088367 5.732475 -1.076293 0 0 0
v 4.280077 6.281631 -0.6228432 0 0 0
v 4.566179 6.313122 -0.5752269 0.9960784 0.9960784 0.9960784
v 4.599394 6.250221 -0.7331961 0.9960784 0.9960784 0.9960784
v 4.313291 6.218729 -0.7808124 0 0 0
v 3.469969 5.860152 -0.8056437 0 0 0
v 3.420896 6.298201 -1.184887 1 1 1
v 3.904538 6.214597 -1.344037 1 1 1
v 3.953611 5.776547 -0.9647937 0 0 0
v 5.405824 6.371653 -1.531493 0 0 0
v 5.695926 6.368132 -1.600009 0.9960784 0.9960784 0.9960784
v 5.698697 6.218443 -1.580583 0.9960784 0.9960784 0.9960784
v 5.408595 6.221964 -1.512067 0 0 0
vn -0.6408818 0.482597 0.5969678
vn -0.191564 0.08230343 0.9780232
vn -0.7727311 0.2510583 0.582972
vn -0.1445144 0.1480517 0.9783641
vn 0.5496935 0.1074233 0.8284307
vn 0.5388863 0.2780221 0.7951763
vn -0.2177937 -0.05234713 0.97459
vn -0.1453438 -0.06878367 0.9869874
vn 0.5642005 -0.07103295 0.8225765
vn -0.191564 0.08230343 0.9780232
vn 0.5179628 -0.2061453 0.8301919
vn -0.05503505 0.1154059 0.9917926
vn 0.374404 -0.4629933 0.8034046
vn -0.401204 0.6524761 0.6428921
vn -0.6408818 0.482597 0.5969678
vn -0.01599403 0.09866571 0.9949921
vn 0.2047063 -0.623368 0.7546574
vn -0.1990894 0.7502766 0.6304351
vn 0.09809474 0.04240242 0.9942734
vn 0.3767207 -0.5747299 0.7264758
vn -0.1935915 0.6567308 0.7288532
vn 0.3636209 0.2227314 0.9045278
vn 0.758757 -0.2818369 0.5872442
vn 0.6760511 -0.3622422 0.6416661
vn -0.2462296 0.6559693 0.7134951
vn 0.2782601 0.2593662 0.9248247
vn -0.1006926 0.1274117 0.9867256
vn 0.09279113 -0.6591374 0.7462758
vn -0.3019395 0.03954346 0.9525067
vn -0.3389713 -0.65451 0.675807
vn 0.05476175 -0.0614301 0.996608
vn 0.07991925 -0.7102831 0.6993646
vn 0.1353815 0.04631083 0.9897106
vn 0.3214903 -0.6674673 0.6716632
vn 0.9783291 0.1664466 0.1231574
vn -0.1078327 0.7394594 0.6645088
vn 0.9783291 0.1664466 0.1231574
vn 0.02043926 0.6207102 0.7837737
vn -0.07540956 0.7204847 0.6893585
vn -0.2233447 0.7932351 0.5664762
vn -0.2473182 0.9679223 -0.0442726
vn 0.9783291 0.1664466 0.1231574
vn -0.00809017 0.9948938 0.1006028
vn -0.2466378 0.7311786 0.6360406
vn 0.2055301 0.9779539 0.03692606
vn -0.2186035 0.677937 -0.7018646
vn 0.9783291 0.1664466 0.1231574
vn -0.0009731421 0.6908946 -0.7229548
vn -0.2068975 0.9709122 -0.1205112
vn -0.6265672 0.7702896 0.1186064
vn -0.04636845 0.04013519 -0.9981178
vn 0.9783291 0.1664466 0.1231574
vn 0.379685 0.6948062 -0.6108057
vn -0.5520651 0.833715 -0.01198245
vn -0.4125221 0.909548 0.05047736
vn 0.03324538 -0.1137539 -0.9929526
vn -0.07729117 0.6614874 -0.7459628
vn -0.6440102 0.4678849 -0.6052558
vn -0.255778 0.9643283 -0.06817996
vn 0.1876688 -0.6312758 -0.75251
vn 0.9783291 0.1664466 0.1231574
vn 0.3635574 0.02477156 -0.9312424
vn -0.5782711 0.4941058 -0.649201
vn -0.3331746 0.5354408 -0.7760785
vn -0.4934255 0.8690539 -0.03573088
vn 0.06898973 -0.7696718 -0.6347013
vn 0.1019589 0.003080881 -0.9947838
vn -0.2782398 -0.1734803 -0.9447154
vn -0.1661998 0.6355266 -0.7539786
vn 0.342895 -0.9373505 -0.06162169
vn 0.9783291 0.1664466 0.1231574
vn 0.1392806 -0.7069757 -0.6933876
vn -0.288731 -0.1560955 -0.9445997
vn 0.03095453 -0.2123667 -0.9766996
vn 0.08632787 -0.9954684 0.0398757
vn 0.2470227 -0.6684728 -0.7015154
vn 0.2998817 -0.6445942 -0.7032562
vn 0.3214903 -0.6674673 0.6716632
vn 0.9783291 0.1664466 0.1231574
vn 0.07991925 -0.7102831 0.6993646
vn -0.1641301 -0.9864033 0.008357482
vn -0.3389713 -0.65451 0.675807
vn 0.2499592 -0.9677112 0.03248813
vn 0.09279113 -0.6591374 0.7462758
vn 0.2240313 -0.7196497 -0.6572019
vn 0.6341158 -0.7723303 0.03745763
vn 0.6760511 -0.3622422 0.6416661
vn 0.758757 -0.2818369 0.5872442
vn 0.7562372 -0.6509484 -0.06611761
vn 0.2825152 -0.7201126 -0.6337373
vn 0.5532659 -0.8326603 0.02395088
vn 0.3767207 -0.5747299 0.7264758
vn 0.03509682 -0.07542471 -0.9965336
vn 0.3021297 -0.9528166 0.02929466
vn 0.2047063 -0.623368 0.7546574
vn 0.2199685 -0.6991933 -0.6802519
vn -0.2896025 0.6634932 -0.6898602
vn 0.6584903 -0.7416283 0.127976
vn 0.374404 -0.4629933 0.8034046
vn 0.5378168 -0.5131138 -0.6689299
vn 0.1307269 0.1161628 -0.9845896
vn 0.150342 0.1628474 -0.9751297
vn -0.7447786 0.6596044 -0.1011278
vn 0.9490943 -0.2936858 0.1138803
vn 0.5179628 -0.2061453 0.8301919
vn 0.7541139 -0.129114 -0.6439269
vn -0.3957926 0.5635149 -0.7251201
vn -0.5687359 0.2827823 -0.7723817
vn -0.3957926 0.5635149 -0.7251201
vn -0.9217712 0.3630809 -0.1360517
vn -0.7727311 0.2510583 0.582972
vn -0.8014075 0.007711499 0.5980691
vn 0.9838273 -0.001570929 0.1791127
vn 0.5642005 -0.07103295 0.8225765
vn 0.8037691 0.07646257 -0.5900074
vn 0.1220377 0.1281524 -0.9842173
vn -0.6118909 0.1393691 -0.7785665
vn -0.9866855 0.09284073 -0.1335375
vn 0.9704981 0.2290961 0.07515594
vn 0.5496935 0.1074233 0.8284307
vn 0.7229313 0.2060457 -0.6594812
vn 0.1161318 0.09468452 -0.9887104
vn -0.5762717 -0.0590374 -0.815123
vn -0.9664157 -0.1646249 -0.1973307
vn 0.9535666 0.2834691 0.1017647
vn 0.5388863 0.2780221 0.7951763
vn 0.5684416 0.1487907 0.8091573
vn 0.9875229 0.07679424 0.1374819
vn 0.9736114 -0.102464 0.2039168
vn 0.5494955 0.005105949 0.8354811
vn 0.768937 0.1532602 -0.620683
vn 0.9535666 0.2834691 0.1017647
vn 0.9875229 0.07679424 0.1374819
vn 0.8080377 -0.01479577 -0.588945
vn 0.9336776 -0.3010409 0.1939605
vn 0.5262407 -0.172274 0.8327019
vn 0.4789316 -0.2560985 0.8396654
vn 0.8773527 -0.4196446 0.2327029
vn 0.775563 -0.319141 -0.5446569
vn 0.716948 -0.4969906 -0.4888619
vn 0.8327948 -0.1196851 -0.540489
vn 0.1631259 -0.2200133 -0.9617609
vn 0.1068356 -0.4413016 -0.8909765
vn 0.2229209 -0.05166538 -0.9734665
vn -0.5551035 -0.0658523 -0.8291703
vn -0.5909091 -0.2940074 -0.7512563
vn 0.2261081 -0.04890015 -0.972874
vn 0.768937 0.1532602 -0.620683
vn -0.5357675 0.06574805 -0.8418019
vn -0.9743207 0.05594233 -0.2181046
vn -0.9776454 -0.1420712 -0.1550007
vn -0.5110039 -0.137564 -0.8484994
vn -0.9654889 0.1704572 -0.1969151
vn -0.8437651 0.07864568 0.5309193
vn -0.8299548 -0.06779134 0.5536961
vn -0.9713516 -0.1244459 -0.2024584
vn -0.8052618 0.196476 0.55942
vn -0.2197951 -0.01353607 0.9754522
vn -0.2307729 -0.1120125 0.9665387
vn -0.8050452 0.001789831 0.5932109
vn -0.1752135 0.1297296 0.9759459
vn 0.5262407 -0.172274 0.8327019
vn 0.4789316 -0.2560985 0.8396654
vn 0.5494955 0.005105949 0.8354811
vn 0.5684416 0.1487907 0.8091573
vn 0.5388863 0.2780221 0.7951763
vn -0.8255423 -0.1587484 0.5415522
vn -0.7727311 0.2510583 0.582972
vn -0.191564 0.08230343 0.9780232
vn -0.1766897 0.9582138 0.2249602
vn 0.700345 0.6905565 -0.1806895
vn 0.6044026 0.7405022 -0.2938607
vn -0.1933837 0.9387923 0.2850818
vn -0.8626744 0.2594452 0.4341442
vn 0.4092676 0.7199607 -0.5604967
vn -0.2058613 0.9437601 0.2587239
vn -0.308207 0.9362069 0.168894
vn 0.06479535 0.6774226 -0.7327347
vn 0.2005861 0.7067055 -0.6784781
vn -0.1545978 0.9809413 0.1177019
vn 0.4809127 0.6664216 -0.5697414
vn -0.766083 0.2256799 0.6018184
vn -0.6742642 -0.699571 0.2365761
vn -0.2058613 0.9437601 0.2587239
vn -0.6145136 -0.686556 0.3886051
vn 0.2041677 -0.963863 -0.1711251
vn -0.5496467 0.1856315 0.8145118
vn 0.126793 -0.9777458 -0.1671427
vn 0.8877907 -0.2651626 -0.3761867
vn -0.05995646 0.9766364 0.2063653
vn 0.4501453 0.7598767 -0.4689954
vn -0.3514334 0.2537797 0.9011606
vn -0.308207 0.9362069 0.168894
vn -0.3383497 0.4192394 0.8424713
vn -0.3717338 -0.7215206 0.5841422
vn 0.7916145 -0.2694902 -0.5483809
vn 0.700345 0.6905565 -0.1806895
vn 0.6044026 0.7405022 -0.2938607
vn 0.05784293 0.9228643 0.380757
vn 0.911561 -0.3791553 0.1590531
vn 0.1828716 -0.9694935 -0.1632187
vn 0.5878938 -0.2934103 -0.7538509
vn 0.4092676 0.7199607 -0.5604967
vn 0.5878938 -0.2934103 -0.7538509
vn 0.06479535 0.6774226 -0.7327347
vn 0.4316858 -0.2875827 -0.8549524
vn 0.3435536 -0.9370986 -0.06178396
vn 0.3435536 -0.9370986 -0.06178396
vn 0.3158611 -0.9114751 -0.2635242
vn -0.05672897 -0.6453464 0.7617807
vn -0.1165588 -0.6355346 0.7632233
vn 0.3657057 -0.126941 -0.9220333
vn 0.2005861 0.7067055 -0.6784781
vn 0.5874055 -0.2572547 -0.7673166
vn 0.4809127 0.6664216 -0.5697414
vn 0.1862126 -0.9548158 -0.2316282
vn 0.4464266 -0.2053434 -0.8709405
vn 0.4501453 0.7598767 -0.4689954
vn 0.911561 -0.3791553 0.1590531
vn -0.03579086 -0.9731005 -0.2275838
vn 0.911561 -0.3791553 0.1590531
vn -0.3854886 -0.7156085 0.5824973
vn -0.4065402 -0.6320158 0.6597583
vn 0.911561 -0.3791553 0.1590531
vn -0.3387071 0.2726106 0.9005337
vn 0.911561 -0.3791553 0.1590531
vn -0.5165949 0.2774101 0.8100453
vn 0.911561 -0.3791553 0.1590531
vn -0.05672897 -0.6453464 0.7617807
vn -0.3514334 0.2537797 0.9011606
vn -0.8877322 0.181176 0.4232101
vn -0.4494598 -0.5471013 -0.7061629
vn -0.5234754 -0.4533758 -0.7214041
vn -0.9008484 0.3390866 0.271095
vn 0.4360097 0.6476253 0.6248816
vn -0.4214545 -0.3108188 -0.8519201
vn 0.3669153 0.6049957 0.7066494
vn 0.865187 -0.07910311 -0.4951709
vn -0.7983742 0.6004778 0.04500055
vn -0.3571675 -0.1504835 -0.9218385
vn 0.870636 -0.2628591 -0.4158102
vn -0.4494598 -0.5471013 -0.7061629
vn -0.5234754 -0.4533758 -0.7214041
vn -0.4335308 0.886328 -0.1627075
vn -0.1493881 -0.35731 -0.9219613
vn 0.3482953 0.4613333 0.8160036
vn 0.8035775 -0.5609195 -0.1990789
vn -0.4214545 -0.3108188 -0.8519201
vn -0.1945308 0.9225128 -0.3333585
vn 0.9317546 0.320735 -0.1701833
vn 0.2679867 0.477954 0.8365064
vn 0.4727829 -0.8687961 0.1472065
vn -0.3571675 -0.1504835 -0.9218385
vn 0.2497659 0.2518534 0.9349796
vn 0.9317546 0.320735 -0.1701833
vn 0.2462892 -0.9462933 0.2094531
vn 0.9317546 0.320735 -0.1701833
vn -0.1493881 -0.35731 -0.9219613
vn 0.9317546 0.320735 -0.1701833
vn 0.5340794 0.5829324 -0.6123308
vn 0.7288548 -0.6833242 -0.04288048
vn 0.4275895 -0.8985553 -0.09882052
vn 0.3522088 0.5991659 -0.7189918
vn 0.9803827 -0.01359074 0.1966342
vn -0.6597676 0.7452206 0.09671037
vn -0.3979369 0.8396977 0.3695323
vn 0.9803827 -0.01359074 0.1966342
vn -0.4892156 -0.5317408 0.6913176
vn -0.39177 -0.3010727 0.8694087
vn 0.9803827 -0.01359074 0.1966342
vn 0.7288548 -0.6833242 -0.04288048
vn 0.4275895 -0.8985553 -0.09882052
vn 0.9803827 -0.01359074 0.1966342
vn -0.8624833 -0.3117905 0.3986344
vn -0.5043561 0.5973828 -0.6235052
vn -0.5182151 0.7187046 -0.4635912
vn -0.8835907 -0.1623083 0.4392305
vn 0.5048404 -0.5296821 0.6815959
vn -0.5058315 0.581928 -0.6367845
vn 0.4307127 -0.6956303 0.5749653
vn 0.8627793 0.3769144 -0.3369682
vn -0.7075569 -0.2405137 0.664467
vn -0.1027684 0.9655597 0.2390251
vn 0.8071345 0.3478076 -0.4770365
vn -0.5043561 0.5973828 -0.6235052
vn -0.5182151 0.7187046 -0.4635912
vn 0.5521277 -0.496987 0.6694468
vn -0.1027684 0.9655597 0.2390251
vn 0.9182824 0.1253374 -0.3755636
vn -0.1027684 0.9655597 0.2390251
vn -0.5058315 0.581928 -0.6367845
vn -0.1027684 0.9655597 0.2390251
vn -0.06580178 -0.5230498 -0.8497583
vn 0.1743971 -0.8447219 0.5059947
vn 0.277349 -0.8292913 0.4851325
vn -0.050887 -0.5634903 -0.824554
vn -0.1047196 0.8494591 -0.5171586
vn 0.04575229 -0.9029174 0.4273722
vn -0.2160124 0.8373703 -0.5021451
vn 0.1354164 0.5292181 0.8376101
vn 0.08618951 -0.3814057 -0.9203809
vn -0.1660421 -0.8557093 0.4900935
vn 0.1386255 0.4883774 0.8615512
vn 0.1743971 -0.8447219 0.5059947
vn 0.277349 -0.8292913 0.4851325
vn 0.01648895 0.8329474 -0.5531065
vn 0.2343549 -0.56722 -0.7895184
vn 0.9772051 0.04832795 0.2067234
vn -0.03639857 0.6453957 0.7629808
vn 0.04575229 -0.9029174 0.4273722
vn 0.2396943 0.8533416 -0.4629846
vn 0.9772051 0.04832795 0.2067234
vn -0.1829801 0.4567902 0.8705521
vn 0.9772051 0.04832795 0.2067234
vn -0.1660421 -0.8557093 0.4900935
vn 0.9772051 0.04832795 0.2067234
vn 0.1468309 -0.165504 0.9752175
vn -0.8476676 -0.2903834 0.4440014
vn -0.5872626 -0.3108907 0.7473082
vn 0.2255934 0.1318729 0.965255
vn 0.9409912 0.2096035 0.2657104
vn -0.7292774 -0.213181 0.6501602
vn 0.8133177 0.4754288 0.3353831
vn 0.5204329 0.3513085 -0.7782879
vn -0.2174796 0.5468866 0.8084663
vn -0.7290129 -0.2305669 0.6444991
vn 0.6739383 0.4295256 -0.6010948
vn -0.5330955 0.1035518 -0.8396942
vn 0.4578948 0.8507134 0.2581068
vn -0.4265063 0.7411847 0.5183992
vn -0.7288396 -0.3266816 0.6017243
vn -0.1487702 -0.006702601 -0.9888491
vn -0.9482021 -0.134436 -0.2878189
vn 0.7181237 0.4150766 -0.5585784
vn 0.2315855 0.963873 -0.1315936
vn -0.4885919 0.5928147 0.6401942
vn -0.824801 -0.2688511 0.4974158
vn -0.8625491 -0.4302928 -0.26619
vn -0.8476676 -0.2903834 0.4440014
vn -0.5872626 -0.3108907 0.7473082
vn 0.1732543 -0.5097567 -0.8426927
vn -0.6107591 -0.7824543 -0.1214029
vn -0.7292774 -0.213181 0.6501602
vn 0.6495708 0.3263783 -0.6866841
vn 0.2401678 0.9705603 -0.01822551
vn -0.2569412 0.5805808 0.7725976
vn -0.8055648 -0.3176532 0.5001619
vn 0.4513028 -0.6092233 -0.6520527
vn -0.2457811 -0.9693236 -0.00183222
vn -0.7290129 -0.2305669 0.6444991
vn 0.6618614 0.2210343 -0.7162984
vn 0.559794 0.8086981 0.1806602
vn -0.009171071 0.1720691 0.9850422
vn -0.2775055 0.8977801 0.3420258
vn 0.2968819 -0.7147192 -0.6332753
vn -0.3597745 -0.9330274 0.004704721
vn -0.7288396 -0.3266816 0.6017243
vn 0.7626216 0.2399475 -0.6006942
vn 0.767258 0.5921271 0.2463751
vn -0.2775055 0.8977801 0.3420258
vn 0.2175393 -0.5240529 -0.8234351
vn -0.5434261 -0.7812035 -0.3072605
vn -0.824801 -0.2688511 0.4974158
vn 0.5562749 0.414142 -0.7204475
vn -0.2775055 0.8977801 0.3420258
vn -0.1882943 -0.04663951 -0.9810045
vn -0.2775055 0.8977801 0.3420258
vn -0.8174474 -0.3860245 -0.4275102
vn -0.2775055 0.8977801 0.3420258
vn -0.8055648 -0.3176532 0.5001619
vn -0.2775055 0.8977801 0.3420258
vn -0.6776096 -0.4367015 -0.5917239
vn -0.07236051 0.8388307 -0.5395619
vn 0.04759569 0.7541234 -0.6550058
vn -0.7184251 -0.471103 -0.5117885
vn 0.007468652 -0.8090875 0.5876407
vn -0.1188087 0.871689 -0.4754395
vn -0.1271674 -0.7376158 0.6631376
vn 0.6117276 0.4677695 0.6379507
vn -0.7342875 -0.2397185 -0.6351039
vn -0.6188972 -0.08222935 0.7811559
vn 0.6365725 0.3939254 0.663022
vn -0.07236051 0.8388307 -0.5395619
vn 0.04759569 0.7541234 -0.6550058
vn 0.05861936 -0.8248531 0.5622998
vn -0.6188972 -0.08222935 0.7811559
vn 0.646442 0.581185 0.4943042
vn -0.6188972 -0.08222935 0.7811559
vn -0.1188087 0.871689 -0.4754395
vn -0.6188972 -0.08222935 0.7811559
vn -0.02083552 -0.9141507 -0.4048387
vn 0.9997424 -0.02268147 0.0007845223
vn 0.9347224 -0.2769204 0.2227312
vn -0.09659109 -0.7846414 -0.6123789
vn -0.9946061 0.05908323 -0.08525249
vn 0.9068481 -0.3008531 0.2951506
vn -0.9003225 0.1712992 -0.4000951
vn 0.03288122 0.9476088 0.3177364
vn 0.4068656 -0.3758771 -0.8325725
vn 0.8063911 -0.2571383 0.5325537
vn -0.1468717 0.88894 0.4338369
vn 0.9997424 -0.02268147 0.0007845223
vn 0.9347224 -0.2769204 0.2227312
vn -0.733767 0.2341408 -0.6377806
vn 0.2951058 -0.04913426 -0.9542004
vn 0.7124498 0.6944515 -0.1007594
vn -0.1812245 0.4025067 0.8972993
vn 0.9068481 -0.3008531 0.2951506
vn -0.8207193 0.4571557 -0.3426784
vn 0.7124498 0.6944515 -0.1007594
vn -0.4315201 0.2957044 0.8522613
vn 0.7124498 0.6944515 -0.1007594
vn 0.8063911 -0.2571383 0.5325537
vn 0.7124498 0.6944515 -0.1007594
vn 0.3132793 0.6323505 -0.7085117
vn 0.91548 -0.007766976 0.4022886
vn 0.805058 0.1667347 0.5692813
vn 0.5188236 0.3251076 -0.7906497
vn -0.9344668 0.1282357 -0.3321556
vn 0.9000474 0.1958278 0.3893149
vn -0.9536377 -0.1500527 -0.2608817
vn -0.342086 -0.5195643 0.7829624
vn 0.3575719 0.05747942 -0.932115
vn 0.8135012 0.3177059 0.4871127
vn -0.3355373 -0.1908091 0.9225002
vn 0.91548 -0.007766976 0.4022886
vn 0.805058 0.1667347 0.5692813
vn -0.8565673 -0.09707893 -0.5068215
vn 0.5787028 0.1728456 -0.7970116
vn 0.4876653 0.8406664 0.235505
vn -0.5708216 0.005566935 0.8210553
vn 0.9000474 0.1958278 0.3893149
vn -0.8993012 -0.1866921 -0.3954787
vn 0.4190409 0.2095145 -0.8834639
vn -0.9031758 0.3534336 -0.2436356
vn -0.3421041 0.04646825 0.9385124
vn 0.8135012 0.3177059 0.4871127
vn -0.5583299 -0.7218966 -0.408819
vn -0.9031758 0.3534336 -0.2436356
vn -0.4145805 0.1002691 0.9044718
vn -0.9031758 0.3534336 -0.2436356
vn 0.4876653 0.8406664 0.235505
vn -0.9031758 0.3534336 -0.2436356
vn -0.6460736 -0.1806451 0.7415904
vn 0.2651419 0.8585199 0.4389116
vn 0.1548588 0.8492406 0.5047863
vn -0.4255314 -0.3055149 0.851812
vn -0.1999664 -0.8974141 -0.3932701
vn 0.08745286 0.928928 0.3597844
vn -0.1921632 -0.9449762 -0.2647514
vn 0.7071441 0.1426074 -0.692539
vn -0.1488708 -0.368165 0.9177647
vn 0.982977 -0.04404316 0.1783715
vn 0.4894553 0.2166484 -0.8446875
vn 0.2651419 0.8585199 0.4389116
vn 0.1548588 0.8492406 0.5047863
vn -0.006834718 -0.9408584 -0.3387313
vn 0.982977 -0.04404316 0.1783715
vn 0.2272539 0.3021098 -0.9257891
vn 0.982977 -0.04404316 0.1783715
vn 0.08745286 0.928928 0.3597844
vn 0.982977 -0.04404316 0.1783715
vn -5.611777E-05 1 4.917383E-07
vn -1.311302E-05 1 1.111627E-05
vn 3.033876E-05 1 2.182275E-05
vn -1.335144E-05 1 1.080334E-05
vn -1.206994E-05 1 -1.357496E-05
vn -4.786253E-05 1 1.499057E-05
vn -1.230836E-05 1 -1.347065E-05
vn 2.325326E-05 1 -4.23491E-05
vn -1.516938E-05 1 1.457334E-05
vn -1.484155E-05 1 1.445412E-05
vn 2.452731E-05 1 3.531575E-06
vn -5.492568E-05 1 2.557039E-05
vn -7.629395E-06 1 6.765127E-06
vn -7.301569E-06 1 6.854534E-06
vn 3.775954E-05 1 1.92225E-05
vn -5.25415E-05 1 -5.945564E-06
vn 6.285309E-05 1 3.099441E-05
vn -2.086163E-05 1 7.82162E-05
vn 2.062321E-05 1 5.51641E-05
vn 2.020597E-05 1 5.480647E-05
vn -4.565716E-05 1 2.294779E-06
vn -7.480383E-06 1 1.15782E-05
vn 3.144145E-05 1 2.031028E-05
vn -7.092953E-06 1 1.105666E-05
vn 9.536743E-06 1 -7.492304E-05
vn -6.347895E-05 1 -4.419684E-05
vn -2.712011E-05 1 -5.948544E-05
vn -2.646446E-05 1 -5.924702E-05
vn 3.132224E-05 1 -5.64158E-05
vn -6.133318E-05 1 -3.332645E-05
vn -1.347065E-05 1 -4.531442E-05
vn -1.478195E-05 1 -4.395843E-05
vn 6.54757E-05 1 8.47876E-06
vn -2.804398E-05 1 2.806144E-05
vn 2.002716E-05 1 1.855567E-05
vn 1.966953E-05 1 1.801503E-05
vn -6.699562E-05 1 -2.014637E-05
vn -5.337131E-05 1 -4.673005E-05
vn -7.990003E-05 1 6.206334E-06
vn -6.699376E-05 1 -2.008677E-05
vn -2.968311E-05 1 -2.063066E-05
vn 1.221895E-05 1 -1.123548E-05
vn 5.409121E-05 1 -1.721084E-06
vn 1.192093E-05 1 -1.147389E-05
vn -4.756451E-05 1 3.122166E-05
vn 0 1 2.638251E-05
vn 4.804134E-05 1 2.151355E-05
vn 4.470348E-07 1 2.634898E-05
vn -3.747642E-06 1 1.565926E-05
vn 1.420826E-05 1 1.230836E-05
vn -2.198666E-05 1 1.584925E-05
vn -3.792346E-06 1 1.5378E-05
vn 1.66595E-05 1 -1.66893E-06
vn 4.99636E-05 1 -1.760945E-05
vn -1.665205E-05 1 1.451373E-05
vn 1.651048E-05 1 -1.665205E-06
vn 2.58293E-05 1 8.19983E-06
vn 7.168949E-05 1 -1.251698E-06
vn 0.0114951 0.9999303 -0.002710417
vn -1.862831E-05 1 2.011657E-05
vt -0.2422278 1.128926
vt -0.1429427 1.121494
vt -0.2306489 1.095416
vt 0.07398909 0.4786084
vt 0.1415729 0.6855544
vt 0.2424246 0.5139489
vt -0.02079105 0.6647619
vt -0.0325166 0.8633579
vt 0.08394963 0.8768694
vt -0.1429427 1.121494
vt -0.0296818 1.139143
vt -0.1838417 1.280598
vt -0.1024867 1.286116
vt -0.2578512 1.277831
vt -0.2422278 1.128926
vt -0.1931618 1.435453
vt -0.1084973 1.434193
vt -0.2749664 1.437124
vt -0.1560218 1.714871
vt -0.0737769 1.729507
vt -0.2377273 1.720925
vt -0.2233002 2.084218
vt -0.1735557 2.092214
vt -0.2318655 2.18601
vt -0.2830826 2.063016
vt -0.278797 2.182384
vt -0.2761027 2.46539
vt -0.225206 2.466174
vt -0.2774895 2.733392
vt -0.2334954 2.734157
vt -0.2879901 3.064237
vt -0.2553713 3.06574
vt -0.3337371 3.338571
vt -0.3156068 3.340115
vt -0.3746634 3.55155
vt -0.3508029 3.337547
vt -0.3749853 3.551524
vt -0.3193446 3.063521
vt -0.317884 2.733069
vt -0.3239397 2.465007
vt -0.3669606 3.337062
vt -0.3753206 3.55151
vt -0.3539498 3.06345
vt -0.3149171 2.189287
vt -0.3577895 2.733057
vt -0.3830434 3.337068
vt -0.3756728 3.551505
vt -0.3925991 3.063576
vt -0.3680277 2.465191
vt -0.352222 2.050163
vt -0.3991305 3.337461
vt -0.3760349 3.551509
vt -0.3998508 2.733479
vt -0.3657858 2.194634
vt -0.3475336 1.722313
vt -0.4303502 3.064349
vt -0.4112263 2.465707
vt -0.4153214 2.063791
vt -0.3538238 1.438318
vt -0.4153107 3.338355
vt -0.3763931 3.551524
vt -0.4429421 2.734229
vt -0.4214839 2.191415
vt -0.4540893 1.718277
vt -0.3334142 1.276269
vt -0.4630847 3.065549
vt -0.4534225 2.466163
vt -0.4705726 2.088975
vt -0.4304551 1.438486
vt -0.43223 3.339814
vt -0.3767369 3.55155
vt -0.4858959 2.735129
vt -0.474967 2.185529
vt -0.5380028 1.711896
vt -0.4941002 3.067376
vt -0.4961897 2.467343
vt -0.5368296 2.092333
vt -0.4502037 3.341823
vt -0.377063 3.551584
vt -0.52631 3.069851
vt -0.5302647 2.736375
vt -0.5753196 2.73806
vt -0.5409257 2.469077
vt -0.5894707 2.470891
vt -0.5270109 2.186125
vt -0.5763136 2.18817
vt -0.6375262 2.193987
vt -0.672727 2.094457
vt -0.6090654 2.089226
vt -0.6317842 1.729761
vt -0.712734 1.753105
vt -0.7917403 1.7379
vt -0.5072086 1.437237
vt -0.6780618 1.432129
vt -0.7640011 1.432565
vt -0.5909622 1.434424
vt -0.414124 1.275098
vt -0.7068139 1.276575
vt -0.8043773 1.284634
vt -0.6022062 1.27337
vt -0.5043811 1.274103
vt -0.5000665 1.099926
vt -0.3284696 1.121965
vt -0.7282599 1.118295
vt -0.8504137 1.133781
vt -0.6069653 1.105946
vt -0.4112673 1.120158
vt -0.4100722 1.0809
vt -0.4147289 1.113512
vt -0.3246508 1.085092
vt -0.235151 1.091473
vt -0.1694837 0.8528293
vt -0.8090487 0.8518128
vt -0.9439546 0.8611852
vt -0.6720215 0.8459838
vt -0.5225878 0.8450624
vt -0.3998402 0.8447336
vt -0.2821913 0.8474597
vt -0.7924042 0.6615211
vt -0.9355708 0.6675661
vt -0.6496406 0.6566027
vt -0.5176394 0.650141
vt -0.401682 0.64706
vt -0.2860119 0.6482714
vt -0.8317415 0.4821265
vt -0.9733592 0.4909146
vt -0.9794279 0.4537757
vt -0.8367835 0.4480488
vt -0.8526486 0.227838
vt -1.005729 0.2191931
vt -0.6997777 0.4770872
vt -0.8317415 0.4821265
vt -0.8367836 0.4480488
vt -0.7042769 0.4442194
vt -0.7850504 0.03215683
vt -0.9425304 -0.004230857
vt -0.7926159 -0.1722115
vt -0.6994543 -0.1376952
vt -0.6471618 0.05694771
vt -0.5964807 -0.1179872
vt -0.7030222 0.236269
vt -0.5192649 0.07136047
vt -0.489972 -0.1127751
vt -0.5554574 0.2444768
vt -0.3953046 0.07391655
vt -0.3840547 -0.1130507
vt -0.5662271 0.4543892
vt -0.6997777 0.4770872
vt -0.4027268 0.2513021
vt -0.2677846 0.06994247
vt -0.2790884 -0.1197958
vt -0.4204807 0.4507704
vt -0.2454457 0.2512867
vt -0.1333604 0.05687761
vt -0.1749091 -0.1296496
vt -0.260303 0.4528404
vt -0.08535123 0.2464193
vt 0.01215553 0.03574884
vt -0.07117707 -0.1419954
vt -0.09494996 0.4646771
vt 0.07359058 0.238933
vt 0.1732678 0.007010102
vt 0.03040564 -0.1612865
vt 0.2354693 0.2309361
vt 0.2518228 0.4764831
vt 0.2456879 0.4950605
vt -0.161865 0.652668
vt -0.235151 1.091473
vt -0.1429427 1.121494
vt 1.785839 -0.1582149
vt 1.719585 -0.1485306
vt 1.80244 0.06049871
vt 1.856594 0.05308831
vt 1.853561 -0.1665337
vt 1.866797 0.2408566
vt 1.917521 0.2365592
vt 1.921166 0.2543918
vt 1.871416 0.2594427
vt 1.886592 0.3609916
vt 1.930475 0.3563994
vt 1.965402 0.5482013
vt 1.907625 0.04738522
vt 1.924169 -0.1725495
vt 1.917521 0.2365591
vt 1.961757 0.04245758
vt 1.991443 -0.1762391
vt 1.961871 0.2329208
vt 2.016963 0.03883922
vt 2.055878 -0.1787368
vt 1.999285 0.5429708
vt 2.058506 0.7699222
vt 1.964989 0.2499296
vt 1.921166 0.2543918
vt 1.974697 0.3530927
vt 2.000507 0.2227255
vt 2.072414 0.03668666
vt 2.120432 -0.1803905
vt 2.13115 0.03516364
vt 2.077564 0.7667437
vt 2.164311 0.985538
vt 2.041396 0.2192078
vt 2.084807 0.2223683
vt 2.134191 0.2189936
vt 2.084807 0.2223683
vt 2.137475 0.2375941
vt 2.08887 0.2408913
vt 2.046312 0.2435167
vt 2.046312 0.2435166
vt 2.077208 0.3447318
vt 2.005373 0.2464163
vt 2.025177 0.3499955
vt 2.124751 0.3405457
vt 2.170267 0.3375036
vt 2.133079 0.5304048
vt 2.166227 0.5297269
vt 2.101636 0.5320169
vt 2.158615 0.7601267
vt 2.179366 0.7597389
vt 2.166095 0.9853781
vt 2.136744 0.7609811
vt 2.165769 0.9853823
vt 2.069526 0.5344718
vt 2.116547 0.7622854
vt 2.165442 0.9853991
vt 2.097147 0.7642193
vt 2.165082 0.98543
vt 2.035471 0.5380936
vt 2.164692 0.985478
vt 2.005373 0.2464163
vt 1.964989 0.2499295
vt 1.732841 0.7130887
vt 1.802194 0.7099822
vt 1.780948 0.5866325
vt 1.726256 0.5885096
vt 1.666077 0.7128144
vt 1.773805 0.5280993
vt 1.672795 0.5917544
vt 1.601814 0.7111386
vt 1.72466 0.5274699
vt 1.76705 0.4223305
vt 1.611997 0.5896502
vt 1.537991 0.7077687
vt 1.556718 0.583827
vt 1.722178 0.4230258
vt 1.748146 0.1482881
vt 1.671822 0.5277698
vt 1.616932 0.5288624
vt 1.567407 0.5272466
vt 1.718184 0.1489543
vt 1.70364 -0.1650825
vt 1.677191 0.4211097
vt 1.629014 0.4198434
vt 1.578792 0.4192141
vt 1.687474 0.1488653
vt 1.703172 -0.1650739
vt 1.659531 0.147882
vt 1.702699 -0.1650829
vt 1.631606 0.1460072
vt 1.702166 -0.1651119
vt 0.2792978 -0.102622
vt 0.2472416 -0.09453285
vt 0.3264308 0.03284049
vt 0.3446711 0.0283767
vt 0.3990051 0.1211426
vt 0.3098883 -0.1080035
vt 0.3615982 0.02614486
vt 0.399138 0.1211116
vt 0.3488764 -0.11202
vt 0.3789549 0.02366769
vt 0.3993189 0.121083
vt 0.3830628 -0.1146017
vt 0.3961695 0.02161193
vt 0.3994948 0.1210686
vt 0.5925816 -0.1218143
vt 0.5547236 -0.1211832
vt 0.5653366 -0.01088727
vt 0.5911648 -0.01155877
vt 0.6255205 -0.1213006
vt 0.5812904 0.1258312
vt 0.617533 -0.0112623
vt 0.6584318 -0.1200157
vt 0.5964196 0.1251352
vt 0.6032805 0.2315513
vt 0.6452901 -0.01026416
vt 0.6920464 -0.1179157
vt 0.6712571 -0.00851059
vt 0.6097948 0.1251614
vt 0.6034471 0.2315471
vt 0.6232668 0.1257576
vt 0.6036565 0.231552
vt 0.6372373 0.1271235
vt 0.6038283 0.2315645
vt 1.172157 0.3458494
vt 1.210041 0.3449075
vt 1.199381 0.2368898
vt 1.169501 0.2378384
vt 1.135838 0.3458134
vt 1.181722 0.1055061
vt 1.137824 0.2379434
vt 1.099688 0.3449929
vt 1.161407 0.1060921
vt 1.173453 -0.03532875
vt 1.108141 0.2372738
vt 1.062108 0.3432744
vt 1.078275 0.2357359
vt 1.142195 0.1060481
vt 1.160106 -0.03483546
vt 1.150109 -0.1439586
vt 1.123313 0.1055619
vt 1.10175 0.104477
vt 1.146212 -0.03482711
vt 1.149936 -0.1439521
vt 1.133197 -0.03517091
vt 1.149772 -0.1439546
vt 1.11989 -0.03600061
vt 1.149597 -0.1439646
vt 2.23103 -0.1018844
vt 2.120354 -0.1812093
vt 2.163234 -0.0169332
vt 2.245234 -0.01941371
vt 2.324283 -0.1004246
vt 2.170836 0.1963718
vt 2.317531 -0.01915026
vt 2.411261 -0.09889114
vt 2.235579 0.1946281
vt 2.199149 0.3730689
vt 2.387944 -0.01851034
vt 2.496978 -0.1640615
vt 2.303282 0.1941006
vt 2.260888 0.3724997
vt 2.185941 0.5004041
vt 2.473305 -0.014961
vt 2.573637 -0.1613137
vt 2.378621 0.1953292
vt 2.315217 0.3723792
vt 2.240203 0.4998424
vt 2.231707 0.700646
vt 2.560134 -0.01090968
vt 2.648632 -0.1538769
vt 2.643027 -0.009482622
vt 2.457566 0.198788
vt 2.538534 0.2043824
vt 2.613365 0.2116367
vt 2.364221 0.3741678
vt 2.297857 0.5010113
vt 2.26899 0.6985745
vt 2.262629 0.9391869
vt 2.416487 0.3762898
vt 2.474941 0.3800094
vt 2.535777 0.3862092
vt 2.359091 0.5014131
vt 2.305763 0.6978619
vt 2.286421 0.935963
vt 2.326787 1.019265
vt 2.416135 0.5028586
vt 2.466563 0.5056684
vt 2.515801 0.5092585
vt 2.341226 0.6983435
vt 2.31103 0.9337806
vt 2.326906 1.019242
vt 2.378517 0.6999243
vt 2.419637 0.7027905
vt 2.45896 0.7065407
vt 2.333586 0.9329158
vt 2.32703 1.019232
vt 2.355012 0.9339104
vt 2.327174 1.019237
vt 2.376279 0.9364788
vt 2.327332 1.019257
vt 2.397669 0.9407013
vt 2.327483 1.019293
vt 0.8484236 0.2788579
vt 0.8865364 0.2724824
vt 0.8328357 0.1590573
vt 0.8052427 0.1637663
vt 0.8090055 0.2836479
vt 0.7794506 0.01106858
vt 0.7802207 0.1674755
vt 0.7706094 0.2867231
vt 0.7617351 0.01407063
vt 0.7079615 -0.1270584
vt 0.754494 0.1691566
vt 0.7311304 0.2882674
vt 0.7252704 0.1695633
vt 0.7423279 0.01647484
vt 0.7077387 -0.1270245
vt 0.7235897 0.01821733
vt 0.7075478 -0.1270061
vt 0.7051598 0.01836824
vt 0.707314 -0.1269954
vt 0.4269345 -0.1160687
vt 0.3830631 -0.1146017
vt 0.3980306 -0.01368535
vt 0.4327782 -0.01473308
vt 0.4738778 -0.1146456
vt 0.4005265 0.06688571
vt 0.4605884 -0.01411784
vt 0.514149 -0.1110314
vt 0.4243989 0.06656575
vt 0.4121846 0.1488192
vt 0.4895533 -0.01233792
vt 0.5562112 -0.1057231
vt 0.5203993 -0.009377003
vt 0.4492278 0.06793523
vt 0.4271914 0.1479087
vt 0.431668 0.1994629
vt 0.479769 0.06978178
vt 0.5064839 0.07251883
vt 0.440267 0.1479902
vt 0.4317431 0.1994603
vt 0.4525714 0.149399
vt 0.4318379 0.1994667
vt 0.4648934 0.1518875
vt 0.431929 0.1994814
vt 1.233754 -0.1400828
vt 1.163711 -0.1365738
vt 1.175464 -0.01443028
vt 1.248788 -0.02132511
vt 1.304111 -0.1449237
vt 1.260743 0.1419691
vt 1.331169 -0.03070271
vt 1.37546 -0.1514429
vt 1.308664 0.1361126
vt 1.277029 0.255054
vt 1.398657 -0.03454614
vt 1.454906 -0.155696
vt 1.464172 -0.03693235
vt 1.352572 0.1323142
vt 1.324154 0.249956
vt 1.332865 0.3570997
vt 1.398752 0.1301016
vt 1.461333 0.1283889
vt 1.376194 0.2472664
vt 1.360358 0.3517396
vt 1.408391 0.4777915
vt 1.424653 0.2437235
vt 1.469884 0.2433621
vt 1.390182 0.3488845
vt 1.408606 0.4777589
vt 1.420604 0.3486547
vt 1.40879 0.4777485
vt 1.450032 0.35027
vt 1.408982 0.4777553
vt 0.8919463 -0.1333127
vt 0.8475761 -0.1324116
vt 0.861171 0.004075289
vt 0.8913655 0.003393769
vt 0.9377425 -0.1321714
vt 0.8747149 0.1247036
vt 0.9213479 0.003858447
vt 0.977412 -0.1298343
vt 0.8931157 0.1243463
vt 0.8918331 0.327529
vt 0.9529461 0.005781651
vt 1.016903 -0.126514
vt 0.9847567 0.008610606
vt 0.9116876 0.1246932
vt 0.8921556 0.3275295
vt 0.9290645 0.1256797
vt 0.8924865 0.3275422
vt 0.9464837 0.1273621
vt 0.8928058 0.327565
vt 0.5269784 0.7709641
vt 0.5269784 0.98024
vt 0.6744604 0.98024
vt 0.6744604 0.7709641
vt 0.2589928 0.7880295
vt 0.2589928 0.9775455
vt 0.4271583 0.9775455
vt 0.4271582 0.7880295
vt 0.3161606 0.447558
vt 0.3161606 0.7205692
vt 0.4511289 0.7205692
vt 0.4511289 0.4475581
vt 0.05845324 0.7970113
vt 0.05845324 0.9514983
vt 0.1366906 0.9514983
vt 0.1366906 0.7970114
vt 0.05845324 0.7970113
vt 0.05845324 0.9514983
vt 0.1366906 0.9514983
vt 0.1366906 0.7970114
vt 0.05845324 0.7970113
vt 0.05845324 0.9514983
vt 0.1366906 0.9514983
vt 0.1366906 0.7970114
vt 0.2589928 0.7880295
vt 0.2589928 0.9775455
vt 0.4271583 0.9775455
vt 0.4271582 0.7880295
vt 0.05845324 0.7970113
vt 0.05845324 0.9514983
vt 0.1366906 0.9514983
vt 0.1366906 0.7970114
vt 0.05845324 0.7970113
vt 0.05845324 0.9514983
vt 0.1366906 0.9514983
vt 0.1366906 0.7970114
vt 0.04404146 0.04401637
vt 0.04404147 0.3870854
vt 0.2823834 0.3870854
vt 0.2823834 0.04401638
vt 0.05297715 0.4754899
vt 0.05297714 0.6926374
vt 0.2137044 0.6926374
vt 0.2137044 0.4754899
vt 0.778777 0.7871313
vt 0.778777 0.9721565
vt 0.9460432 0.9721564
vt 0.9460431 0.7871313
vt 0.05845324 0.7970113
vt 0.05845324 0.9514983
vt 0.1366906 0.9514983
vt 0.1366906 0.7970114
vt 0.2589928 0.7880295
vt 0.2589928 0.9775455
vt 0.4271583 0.9775455
vt 0.4271582 0.7880295
vt 0.05845324 0.7970113
vt 0.05845324 0.9514983
vt 0.1366906 0.9514983
vt 0.1366906 0.7970114
usemtl M_WindsweptBark
f 1/1/1 3/3/3 2/2/2
f 4/4/4 6/6/6 5/5/5
f 4/4/4 5/5/5 7/7/7
f 5/5/5 8/8/8 7/7/7
f 5/5/5 9/9/9 8/8/8
f 9/9/9 10/10/10 8/8/8
f 9/9/9 11/11/11 10/10/10
f 11/11/11 12/12/12 10/10/10
f 11/11/11 13/13/13 12/12/12
f 10/10/10 12/12/12 14/14/14
f 10/10/10 14/14/14 15/15/15
f 13/13/13 16/16/16 12/12/12
f 13/13/13 17/17/17 16/16/16
f 12/12/12 18/18/18 14/14/14
f 12/12/12 16/16/16 18/18/18
f 17/17/17 19/19/19 16/16/16
f 17/17/17 20/20/20 19/19/19
f 16/16/16 21/21/21 18/18/18
f 16/16/16 19/19/19 21/21/21
f 20/20/20 22/22/22 19/19/19
f 20/20/20 23/23/23 22/22/22
f 24/24/24 22/22/22 23/23/23
f 19/19/19 22/22/22 25/25/25
f 19/19/19 25/25/25 21/21/21
f 24/24/24 26/26/26 22/22/22
f 25/25/25 22/22/22 26/26/26
f 24/24/24 27/27/27 26/26/26
f 24/24/24 28/28/28 27/27/27
f 28/28/28 29/29/29 27/27/27
f 28/28/28 30/30/30 29/29/29
f 30/30/30 31/31/31 29/29/29
f 30/30/30 32/32/32 31/31/31
f 32/32/32 33/33/33 31/31/31
f 32/32/32 34/34/34 33/33/33
f 34/34/34 35/35/35 33/33/33
f 31/31/31 33/33/33 36/36/36
f 33/33/33 37/37/37 36/36/36
f 29/29/29 31/31/31 38/38/38
f 31/31/31 36/36/36 38/38/38
f 27/27/27 29/29/29 39/39/39
f 29/29/29 38/38/38 39/39/39
f 26/26/26 27/27/27 40/40/40
f 27/27/27 39/39/39 40/40/40
f 38/38/38 36/36/36 41/41/41
f 36/36/36 42/42/42 41/41/41
f 39/39/39 38/38/38 43/43/43
f 38/38/38 41/41/41 43/43/43
f 26/26/26 40/40/40 44/44/44
f 25/25/25 26/26/26 44/44/44
f 40/40/40 39/39/39 45/45/45
f 39/39/39 43/43/43 45/45/45
f 43/43/43 41/41/41 46/46/46
f 41/41/41 47/47/47 46/46/46
f 43/43/43 46/46/46 48/48/48
f 45/45/45 43/43/43 48/48/48
f 40/40/40 45/45/45 49/49/49
f 44/44/44 40/40/40 49/49/49
f 50/50/50 25/25/25 44/44/44
f 21/21/21 25/25/25 50/50/50
f 48/48/48 46/46/46 51/51/51
f 46/46/46 52/52/52 51/51/51
f 45/45/45 48/48/48 53/53/53
f 49/49/49 45/45/45 53/53/53
f 44/44/44 49/49/49 54/54/54
f 50/50/50 44/44/44 54/54/54
f 21/21/21 50/50/50 55/55/55
f 18/18/18 21/21/21 55/55/55
f 48/48/48 51/51/51 56/56/56
f 53/53/53 48/48/48 56/56/56
f 49/49/49 53/53/53 57/57/57
f 54/54/54 49/49/49 57/57/57
f 58/58/58 50/50/50 54/54/54
f 55/55/55 50/50/50 58/58/58
f 18/18/18 55/55/55 59/59/59
f 14/14/14 18/18/18 59/59/59
f 56/56/56 51/51/51 60/60/60
f 51/51/51 61/61/61 60/60/60
f 53/53/53 56/56/56 62/62/62
f 57/57/57 53/53/53 62/62/62
f 54/54/54 57/57/57 63/63/63
f 58/58/58 54/54/54 63/63/63
f 55/55/55 58/58/58 64/64/64
f 59/59/59 55/55/55 64/64/64
f 14/14/14 59/59/59 65/65/65
f 15/15/15 14/14/14 65/65/65
f 56/56/56 60/60/60 66/66/66
f 62/62/62 56/56/56 66/66/66
f 57/57/57 62/62/62 67/67/67
f 63/63/63 57/57/57 67/67/67
f 68/68/68 58/58/58 63/63/63
f 64/64/64 58/58/58 68/68/68
f 59/59/59 64/64/64 69/69/69
f 65/65/65 59/59/59 69/69/69
f 66/66/66 60/60/60 70/70/70
f 60/60/60 71/71/71 70/70/70
f 62/62/62 66/66/66 72/72/72
f 67/67/67 62/62/62 72/72/72
f 63/63/63 67/67/67 73/73/73
f 68/68/68 63/63/63 73/73/73
f 64/64/64 68/68/68 74/74/74
f 69/69/69 64/64/64 74/74/74
f 66/66/66 70/70/70 75/75/75
f 72/72/72 66/66/66 75/75/75
f 67/67/67 72/72/72 76/76/76
f 73/73/73 67/67/67 76/76/76
f 77/77/77 68/68/68 73/73/73
f 74/74/74 68/68/68 77/77/77
f 75/75/75 70/70/70 78/78/78
f 70/70/70 79/79/79 78/78/78
f 75/75/75 78/78/78 80/80/80
f 72/72/72 75/75/75 81/81/81
f 81/81/81 75/75/75 80/80/80
f 76/76/76 72/72/72 81/81/81
f 81/81/81 80/80/80 82/82/82
f 83/83/83 81/81/81 82/82/82
f 76/76/76 81/81/81 83/83/83
f 83/83/83 82/82/82 84/84/84
f 73/73/73 76/76/76 85/85/85
f 85/85/85 76/76/76 83/83/83
f 77/77/77 73/73/73 85/85/85
f 86/86/86 83/83/83 84/84/84
f 85/85/85 83/83/83 86/86/86
f 86/86/86 84/84/84 87/87/87
f 88/88/88 86/86/86 87/87/87
f 89/89/89 85/85/85 86/86/86
f 89/89/89 77/77/77 85/85/85
f 88/88/88 89/89/89 86/86/86
f 90/90/90 77/77/77 89/89/89
f 74/74/74 77/77/77 90/90/90
f 91/91/91 89/89/89 88/88/88
f 90/90/90 89/89/89 91/91/91
f 91/91/91 88/88/88 92/92/92
f 93/93/93 74/74/74 90/90/90
f 69/69/69 74/74/74 93/93/93
f 94/94/94 91/91/91 92/92/92
f 94/94/94 92/92/92 95/95/95
f 96/96/96 90/90/90 91/91/91
f 93/93/93 90/90/90 96/96/96
f 96/96/96 91/91/91 94/94/94
f 97/97/97 69/69/69 93/93/93
f 65/65/65 69/69/69 97/97/97
f 98/98/98 94/94/94 95/95/95
f 98/98/98 95/95/95 99/99/99
f 100/100/100 96/96/96 94/94/94
f 100/100/100 94/94/94 98/98/98
f 101/101/101 93/93/93 96/96/96
f 97/97/97 93/93/93 101/101/101
f 101/101/101 96/96/96 100/100/100
f 102/102/102 101/101/101 100/100/100
f 102/102/102 97/97/97 101/101/101
f 103/103/103 65/65/65 97/97/97
f 15/15/15 65/65/65 103/103/103
f 104/104/104 98/98/98 99/99/99
f 104/104/104 99/99/99 105/105/105
f 106/106/106 100/100/100 98/98/98
f 102/102/102 100/100/100 106/106/106
f 106/106/106 98/98/98 104/104/104
f 103/103/103 97/97/97 107/107/107
f 102/102/102 107/107/107 97/97/97
f 108/108/108 103/103/103 107/107/107
f 108/108/108 109/109/109 102/102/102
f 110/110/110 15/15/15 103/103/103
f 108/108/108 110/110/110 103/103/103
f 110/110/110 111/111/111 15/15/15
f 112/112/112 111/111/111 110/110/110
f 113/113/113 104/104/104 105/105/105
f 113/113/113 105/105/105 114/114/114
f 115/115/115 106/106/106 104/104/104
f 115/115/115 104/104/104 113/113/113
f 116/116/116 102/102/102 106/106/106
f 116/116/116 106/106/106 115/115/115
f 117/117/117 108/108/108 102/102/102
f 117/117/117 102/102/102 116/116/116
f 118/118/118 110/110/110 108/108/108
f 112/112/112 110/110/110 118/118/118
f 118/118/118 108/108/108 117/117/117
f 119/119/119 113/113/113 114/114/114
f 119/119/119 114/114/114 120/120/120
f 121/121/121 115/115/115 113/113/113
f 121/121/121 113/113/113 119/119/119
f 122/122/122 116/116/116 115/115/115
f 122/122/122 115/115/115 121/121/121
f 123/123/123 117/117/117 116/116/116
f 123/123/123 116/116/116 122/122/122
f 124/124/124 118/118/118 117/117/117
f 124/124/124 117/117/117 123/123/123
f 125/125/125 119/119/119 120/120/120
f 125/125/125 120/120/120 126/126/126
f 127/127/127 125/125/125 126/126/126
f 127/127/127 128/128/128 125/125/125
f 129/129/129 128/128/128 127/127/127
f 129/129/129 127/127/127 130/130/130
f 131/131/131 121/121/121 119/119/119
f 131/131/131 119/119/119 132/132/132
f 133/133/133 131/131/131 132/132/132
f 133/133/133 134/134/134 131/131/131
f 135/135/135 129/129/129 130/130/130
f 135/135/135 130/130/130 136/136/136
f 135/135/135 136/136/136 137/137/137
f 135/135/135 137/137/137 138/138/138
f 139/139/139 135/135/135 138/138/138
f 139/139/139 129/129/129 135/135/135
f 139/139/139 138/138/138 140/140/140
f 141/141/141 133/133/133 129/129/129
f 139/139/139 141/141/141 129/129/129
f 141/141/141 134/134/134 133/133/133
f 142/142/142 139/139/139 140/140/140
f 142/142/142 141/141/141 139/139/139
f 142/142/142 140/140/140 143/143/143
f 144/144/144 134/134/134 141/141/141
f 142/142/142 144/144/144 141/141/141
f 145/145/145 142/142/142 143/143/143
f 145/145/145 144/144/144 142/142/142
f 145/145/145 143/143/143 146/146/146
f 144/144/144 147/147/147 134/134/134
f 148/148/148 134/134/134 147/147/147
f 147/147/147 121/121/121 148/148/148
f 147/147/147 122/122/122 121/121/121
f 145/145/145 149/149/149 144/144/144
f 149/149/149 147/147/147 144/144/144
f 150/150/150 145/145/145 146/146/146
f 150/150/150 149/149/149 145/145/145
f 150/150/150 146/146/146 151/151/151
f 152/152/152 122/122/122 147/147/147
f 149/149/149 152/152/152 147/147/147
f 152/152/152 123/123/123 122/122/122
f 150/150/150 153/153/153 149/149/149
f 153/153/153 152/152/152 149/149/149
f 154/154/154 150/150/150 151/151/151
f 154/154/154 153/153/153 150/150/150
f 154/154/154 151/151/151 155/155/155
f 156/156/156 123/123/123 152/152/152
f 153/153/153 156/156/156 152/152/152
f 156/156/156 124/124/124 123/123/123
f 154/154/154 157/157/157 153/153/153
f 157/157/157 156/156/156 153/153/153
f 158/158/158 154/154/154 155/155/155
f 158/158/158 157/157/157 154/154/154
f 158/158/158 155/155/155 159/159/159
f 160/160/160 124/124/124 156/156/156
f 157/157/157 160/160/160 156/156/156
f 158/158/158 161/161/161 157/157/157
f 161/161/161 160/160/160 157/157/157
f 162/162/162 158/158/158 159/159/159
f 162/162/162 161/161/161 158/158/158
f 162/162/162 159/159/159 163/163/163
f 162/162/162 164/164/164 161/161/161
f 164/164/164 4/4/4 161/161/161
f 161/161/161 4/4/4 160/160/160
f 164/164/164 165/165/165 4/4/4
f 165/165/165 166/166/166 4/4/4
f 160/160/160 167/167/167 124/124/124
f 4/4/4 167/167/167 160/160/160
f 167/167/167 118/118/118 124/124/124
f 4/4/4 7/7/7 167/167/167
f 167/167/167 112/112/112 118/118/118
f 7/7/7 112/112/112 167/167/167
f 7/7/7 8/8/8 112/112/112
f 8/8/8 168/168/168 112/112/112
f 8/8/8 169/169/169 168/168/168
f 170/170/170 172/172/172 171/171/171
f 170/170/170 173/173/173 172/172/172
f 174/174/174 173/173/173 170/170/170
f 173/173/173 175/175/175 172/172/172
f 173/173/173 176/176/176 175/175/175
f 175/175/175 176/176/176 177/177/177
f 175/175/175 177/177/177 178/178/178
f 177/177/177 179/179/179 178/178/178
f 177/177/177 180/180/180 179/179/179
f 180/180/180 181/181/181 179/179/179
f 174/174/174 182/182/182 173/173/173
f 183/183/183 182/182/182 174/174/174
f 182/182/182 184/184/184 173/173/173
f 183/183/183 185/185/185 182/182/182
f 186/186/186 185/185/185 183/183/183
f 182/182/182 187/187/187 184/184/184
f 185/185/185 187/187/187 182/182/182
f 186/186/186 188/188/188 185/185/185
f 189/189/189 188/188/188 186/186/186
f 180/180/180 190/190/190 181/181/181
f 190/190/190 191/191/191 181/181/181
f 184/184/184 187/187/187 192/192/192
f 184/184/184 192/192/192 193/193/193
f 192/192/192 180/180/180 193/193/193
f 192/192/192 194/194/194 180/180/180
f 194/194/194 190/190/190 180/180/180
f 185/185/185 195/195/195 187/187/187
f 188/188/188 195/195/195 185/185/185
f 189/189/189 196/196/196 188/188/188
f 197/197/197 196/196/196 189/189/189
f 197/197/197 198/198/198 196/196/196
f 190/190/190 199/199/199 191/191/191
f 199/199/199 200/200/200 191/191/191
f 196/196/196 201/201/201 188/188/188
f 188/188/188 201/201/201 195/195/195
f 198/198/198 202/202/202 196/196/196
f 198/198/198 203/203/203 202/202/202
f 196/196/196 204/204/204 201/201/201
f 202/202/202 203/203/203 205/205/205
f 206/206/206 201/201/201 204/204/204
f 202/202/202 205/205/205 206/206/206
f 206/206/206 207/207/207 201/201/201
f 195/195/195 201/201/201 208/208/208
f 206/206/206 209/209/209 207/207/207
f 195/195/195 208/208/208 210/210/210
f 208/208/208 211/211/211 210/210/210
f 208/208/208 209/209/209 211/211/211
f 205/205/205 212/212/212 206/206/206
f 206/206/206 212/212/212 209/209/209
f 205/205/205 213/213/213 212/212/212
f 213/213/213 214/214/214 212/212/212
f 213/213/213 215/215/215 214/214/214
f 212/212/212 216/216/216 209/209/209
f 212/212/212 214/214/214 216/216/216
f 215/215/215 217/217/217 214/214/214
f 215/215/215 218/218/218 217/217/217
f 218/218/218 219/219/219 217/217/217
f 214/214/214 217/217/217 220/220/220
f 214/214/214 220/220/220 216/216/216
f 217/217/217 221/221/221 220/220/220
f 209/209/209 216/216/216 222/222/222
f 209/209/209 222/222/222 211/211/211
f 216/216/216 220/220/220 223/223/223
f 216/216/216 223/223/223 222/222/222
f 220/220/220 224/224/224 223/223/223
f 222/222/222 223/223/223 225/225/225
f 223/223/223 226/226/226 225/225/225
f 211/211/211 222/222/222 227/227/227
f 222/222/222 225/225/225 227/227/227
f 227/227/227 225/225/225 199/199/199
f 225/225/225 228/228/228 199/199/199
f 227/227/227 199/199/199 190/190/190
f 194/194/194 227/227/227 190/190/190
f 211/211/211 227/227/227 194/194/194
f 229/229/229 211/211/211 194/194/194
f 229/229/229 194/194/194 230/230/230
f 187/187/187 229/229/229 230/230/230
f 187/187/187 195/195/195 229/229/229
f 231/231/231 233/233/233 232/232/232
f 231/231/231 234/234/234 233/233/233
f 235/235/235 234/234/234 231/231/231
f 234/234/234 236/236/236 233/233/233
f 235/235/235 237/237/237 234/234/234
f 238/238/238 237/237/237 235/235/235
f 234/234/234 239/239/239 236/236/236
f 237/237/237 239/239/239 234/234/234
f 239/239/239 240/240/240 236/236/236
f 238/238/238 241/241/241 237/237/237
f 242/242/242 241/241/241 238/238/238
f 242/242/242 243/243/243 241/241/241
f 239/239/239 244/244/244 240/240/240
f 244/244/244 245/245/245 240/240/240
f 237/237/237 246/246/246 239/239/239
f 241/241/241 246/246/246 237/237/237
f 246/246/246 244/244/244 239/239/239
f 243/243/243 247/247/247 241/241/241
f 241/241/241 247/247/247 246/246/246
f 243/243/243 248/248/248 247/247/247
f 244/244/244 249/249/249 245/245/245
f 249/249/249 250/250/250 245/245/245
f 246/246/246 251/251/251 244/244/244
f 247/247/247 251/251/251 246/246/246
f 251/251/251 249/249/249 244/244/244
f 248/248/248 252/252/252 247/247/247
f 247/247/247 252/252/252 251/251/251
f 248/248/248 253/253/253 252/252/252
f 251/251/251 254/254/254 249/249/249
f 252/252/252 254/254/254 251/251/251
f 254/254/254 255/255/255 249/249/249
f 253/253/253 256/256/256 252/252/252
f 252/252/252 256/256/256 254/254/254
f 256/256/256 257/257/257 254/254/254
f 253/253/253 258/258/258 256/256/256
f 258/258/258 259/259/259 256/256/256
f 260/260/260 262/262/262 261/261/261
f 260/260/260 263/263/263 262/262/262
f 263/263/263 264/264/264 262/262/262
f 265/265/265 263/263/263 260/260/260
f 265/265/265 266/266/266 263/263/263
f 266/266/266 267/267/267 263/263/263
f 268/268/268 266/266/266 265/265/265
f 268/268/268 269/269/269 266/266/266
f 269/269/269 270/270/270 266/266/266
f 271/271/271 269/269/269 268/268/268
f 271/271/271 272/272/272 269/269/269
f 272/272/272 273/273/273 269/269/269
f 274/274/274 276/276/276 275/275/275
f 274/274/274 277/277/277 276/276/276
f 278/278/278 277/277/277 274/274/274
f 277/277/277 279/279/279 276/276/276
f 278/278/278 280/280/280 277/277/277
f 281/281/281 280/280/280 278/278/278
f 277/277/277 282/282/282 279/279/279
f 280/280/280 282/282/282 277/277/277
f 282/282/282 283/283/283 279/279/279
f 281/281/281 284/284/284 280/280/280
f 285/285/285 284/284/284 281/281/281
f 285/285/285 286/286/286 284/284/284
f 280/280/280 287/287/287 282/282/282
f 284/284/284 287/287/287 280/280/280
f 287/287/287 288/288/288 282/282/282
f 286/286/286 289/289/289 284/284/284
f 284/284/284 289/289/289 287/287/287
f 289/289/289 290/290/290 287/287/287
f 286/286/286 291/291/291 289/289/289
f 291/291/291 292/292/292 289/289/289
f 293/293/293 295/295/295 294/294/294
f 293/293/293 296/296/296 295/295/295
f 297/297/297 296/296/296 293/293/293
f 296/296/296 298/298/298 295/295/295
f 297/297/297 299/299/299 296/296/296
f 300/300/300 299/299/299 297/297/297
f 296/296/296 301/301/301 298/298/298
f 299/299/299 301/301/301 296/296/296
f 301/301/301 302/302/302 298/298/298
f 300/300/300 303/303/303 299/299/299
f 304/304/304 303/303/303 300/300/300
f 304/304/304 305/305/305 303/303/303
f 299/299/299 306/306/306 301/301/301
f 303/303/303 306/306/306 299/299/299
f 301/301/301 307/307/307 302/302/302
f 306/306/306 307/307/307 301/301/301
f 307/307/307 308/308/308 302/302/302
f 305/305/305 309/309/309 303/303/303
f 303/303/303 309/309/309 306/306/306
f 305/305/305 310/310/310 309/309/309
f 306/306/306 311/311/311 307/307/307
f 309/309/309 311/311/311 306/306/306
f 311/311/311 312/312/312 307/307/307
f 310/310/310 313/313/313 309/309/309
f 309/309/309 313/313/313 311/311/311
f 313/313/313 314/314/314 311/311/311
f 310/310/310 315/315/315 313/313/313
f 315/315/315 316/316/316 313/313/313
f 317/317/317 319/319/319 318/318/318
f 317/317/317 320/320/320 319/319/319
f 321/321/321 320/320/320 317/317/317
f 320/320/320 322/322/322 319/319/319
f 321/321/321 323/323/323 320/320/320
f 324/324/324 323/323/323 321/321/321
f 320/320/320 325/325/325 322/322/322
f 323/323/323 325/325/325 320/320/320
f 325/325/325 326/326/326 322/322/322
f 324/324/324 327/327/327 323/323/323
f 328/328/328 327/327/327 324/324/324
f 323/323/323 329/329/329 325/325/325
f 327/327/327 329/329/329 323/323/323
f 325/325/325 330/330/330 326/326/326
f 329/329/329 330/330/330 325/325/325
f 330/330/330 331/331/331 326/326/326
f 328/328/328 332/332/332 327/327/327
f 333/333/333 332/332/332 328/328/328
f 327/327/327 334/334/334 329/329/329
f 332/332/332 334/334/334 327/327/327
f 329/329/329 335/335/335 330/330/330
f 334/334/334 335/335/335 329/329/329
f 330/330/330 336/336/336 331/331/331
f 335/335/335 336/336/336 330/330/330
f 336/336/336 337/337/337 331/331/331
f 333/333/333 338/338/338 332/332/332
f 339/339/339 338/338/338 333/333/333
f 339/339/339 340/340/340 338/338/338
f 332/332/332 341/341/341 334/334/334
f 338/338/338 341/341/341 332/332/332
f 340/340/340 342/342/342 338/338/338
f 338/338/338 342/342/342 341/341/341
f 340/340/340 343/343/343 342/342/342
f 334/334/334 344/344/344 335/335/335
f 341/341/341 344/344/344 334/334/334
f 335/335/335 345/345/345 336/336/336
f 344/344/344 345/345/345 335/335/335
f 336/336/336 346/346/346 337/337/337
f 345/345/345 346/346/346 336/336/336
f 346/346/346 347/347/347 337/337/337
f 342/342/342 348/348/348 341/341/341
f 341/341/341 348/348/348 344/344/344
f 343/343/343 349/349/349 342/342/342
f 342/342/342 349/349/349 348/348/348
f 343/343/343 350/350/350 349/349/349
f 344/344/344 351/351/351 345/345/345
f 348/348/348 351/351/351 344/344/344
f 345/345/345 352/352/352 346/346/346
f 351/351/351 352/352/352 345/345/345
f 346/346/346 353/353/353 347/347/347
f 352/352/352 353/353/353 346/346/346
f 353/353/353 354/354/354 347/347/347
f 349/349/349 355/355/355 348/348/348
f 348/348/348 355/355/355 351/351/351
f 350/350/350 356/356/356 349/349/349
f 349/349/349 356/356/356 355/355/355
f 350/350/350 357/357/357 356/356/356
f 351/351/351 358/358/358 352/352/352
f 355/355/355 358/358/358 351/351/351
f 352/352/352 359/359/359 353/353/353
f 358/358/358 359/359/359 352/352/352
f 359/359/359 360/360/360 353/353/353
f 356/356/356 361/361/361 355/355/355
f 355/355/355 361/361/361 358/358/358
f 357/357/357 362/362/362 356/356/356
f 356/356/356 362/362/362 361/361/361
f 357/357/357 363/363/363 362/362/362
f 358/358/358 364/364/364 359/359/359
f 361/361/361 364/364/364 358/358/358
f 364/364/364 365/365/365 359/359/359
f 361/361/361 366/366/366 364/364/364
f 362/362/362 366/366/366 361/361/361
f 366/366/366 367/367/367 364/364/364
f 363/363/363 368/368/368 362/362/362
f 362/362/362 368/368/368 366/366/366
f 368/368/368 369/369/369 366/366/366
f 363/363/363 370/370/370 368/368/368
f 370/370/370 371/371/371 368/368/368
f 372/372/372 374/374/374 373/373/373
f 372/372/372 375/375/375 374/374/374
f 376/376/376 375/375/375 372/372/372
f 375/375/375 377/377/377 374/374/374
f 376/376/376 378/378/378 375/375/375
f 379/379/379 378/378/378 376/376/376
f 375/375/375 380/380/380 377/377/377
f 378/378/378 380/380/380 375/375/375
f 380/380/380 381/381/381 377/377/377
f 379/379/379 382/382/382 378/378/378
f 383/383/383 382/382/382 379/379/379
f 383/383/383 384/384/384 382/382/382
f 378/378/378 385/385/385 380/380/380
f 382/382/382 385/385/385 378/378/378
f 385/385/385 386/386/386 380/380/380
f 384/384/384 387/387/387 382/382/382
f 382/382/382 387/387/387 385/385/385
f 387/387/387 388/388/388 385/385/385
f 384/384/384 389/389/389 387/387/387
f 389/389/389 390/390/390 387/387/387
f 391/391/391 393/393/393 392/392/392
f 391/391/391 394/394/394 393/393/393
f 395/395/395 394/394/394 391/391/391
f 394/394/394 396/396/396 393/393/393
f 395/395/395 397/397/397 394/394/394
f 398/398/398 397/397/397 395/395/395
f 394/394/394 399/399/399 396/396/396
f 397/397/397 399/399/399 394/394/394
f 399/399/399 400/400/400 396/396/396
f 398/398/398 401/401/401 397/397/397
f 402/402/402 401/401/401 398/398/398
f 402/402/402 403/403/403 401/401/401
f 397/397/397 404/404/404 399/399/399
f 401/401/401 404/404/404 397/397/397
f 399/399/399 405/405/405 400/400/400
f 404/404/404 405/405/405 399/399/399
f 405/405/405 406/406/406 400/400/400
f 403/403/403 407/407/407 401/401/401
f 401/401/401 407/407/407 404/404/404
f 403/403/403 408/408/408 407/407/407
f 404/404/404 409/409/409 405/405/405
f 407/407/407 409/409/409 404/404/404
f 409/409/409 410/410/410 405/405/405
f 408/408/408 411/411/411 407/407/407
f 407/407/407 411/411/411 409/409/409
f 411/411/411 412/412/412 409/409/409
f 408/408/408 413/413/413 411/411/411
f 413/413/413 414/414/414 411/411/411
f 415/415/415 417/417/417 416/416/416
f 415/415/415 418/418/418 417/417/417
f 419/419/419 418/418/418 415/415/415
f 418/418/418 420/420/420 417/417/417
f 419/419/419 421/421/421 418/418/418
f 422/422/422 421/421/421 419/419/419
f 418/418/418 423/423/423 420/420/420
f 421/421/421 423/423/423 418/418/418
f 423/423/423 424/424/424 420/420/420
f 422/422/422 425/425/425 421/421/421
f 426/426/426 425/425/425 422/422/422
f 426/426/426 427/427/427 425/425/425
f 421/421/421 428/428/428 423/423/423
f 425/425/425 428/428/428 421/421/421
f 423/423/423 429/429/429 424/424/424
f 428/428/428 429/429/429 423/423/423
f 429/429/429 430/430/430 424/424/424
f 427/427/427 431/431/431 425/425/425
f 425/425/425 431/431/431 428/428/428
f 427/427/427 432/432/432 431/431/431
f 428/428/428 433/433/433 429/429/429
f 431/431/431 433/433/433 428/428/428
f 429/429/429 434/434/434 430/430/430
f 433/433/433 434/434/434 429/429/429
f 434/434/434 435/435/435 430/430/430
f 432/432/432 436/436/436 431/431/431
f 431/431/431 436/436/436 433/433/433
f 432/432/432 437/437/437 436/436/436
f 433/433/433 438/438/438 434/434/434
f 436/436/436 438/438/438 433/433/433
f 438/438/438 439/439/439 434/434/434
f 437/437/437 440/440/440 436/436/436
f 436/436/436 440/440/440 438/438/438
f 440/440/440 441/441/441 438/438/438
f 437/437/437 442/442/442 440/440/440
f 442/442/442 443/443/443 440/440/440
f 444/444/444 446/446/446 445/445/445
f 444/444/444 447/447/447 446/446/446
f 448/448/448 447/447/447 444/444/444
f 447/447/447 449/449/449 446/446/446
f 448/448/448 450/450/450 447/447/447
f 451/451/451 450/450/450 448/448/448
f 447/447/447 452/452/452 449/449/449
f 450/450/450 452/452/452 447/447/447
f 452/452/452 453/453/453 449/449/449
f 451/451/451 454/454/454 450/450/450
f 455/455/455 454/454/454 451/451/451
f 455/455/455 456/456/456 454/454/454
f 450/450/450 457/457/457 452/452/452
f 454/454/454 457/457/457 450/450/450
f 457/457/457 458/458/458 452/452/452
f 456/456/456 459/459/459 454/454/454
f 454/454/454 459/459/459 457/457/457
f 459/459/459 460/460/460 457/457/457
f 456/456/456 461/461/461 459/459/459
f 461/461/461 462/462/462 459/459/459
usemtl M_WindsweptLeaves
f 463/463/463 465/465/465 464/464/464
f 463/463/463 466/466/466 465/465/465
f 467/467/467 469/469/469 468/468/468
f 467/467/467 470/470/470 469/469/469
f 471/471/471 473/473/473 472/472/472
f 471/471/471 474/474/474 473/473/473
f 475/475/475 477/477/477 476/476/476
f 475/475/475 478/478/478 477/477/477
f 479/479/479 481/481/481 480/480/480
f 479/479/479 482/482/482 481/481/481
f 483/483/483 485/485/485 484/484/484
f 483/483/483 486/486/486 485/485/485
f 487/487/487 489/489/489 488/488/488
f 487/487/487 490/490/490 489/489/489
f 491/491/491 493/493/493 492/492/492
f 491/491/491 494/494/494 493/493/493
f 495/495/495 497/497/497 496/496/496
f 495/495/495 498/498/498 497/497/497
f 499/499/499 501/501/501 500/500/500
f 499/499/499 502/502/502 501/501/501
f 503/503/503 505/505/505 504/504/504
f 503/503/503 506/506/506 505/505/505
f 507/507/507 509/509/509 508/508/508
f 507/507/507 510/510/510 509/509/509
f 511/511/511 513/513/513 512/512/512
f 511/511/511 514/514/514 513/513/513
f 515/515/515 517/517/517 516/516/516
f 515/515/515 518/518/518 517/517/517
f 519/519/519 521/521/521 520/520/520
f 519/519/519 522/522/522 521/521/521
