mtllib P_BushChina03.mtl
v -0.1287047 0.6145651 0.1548712 0.5490196 0.5490196 0.5490196
v -0.2331434 1.327933 0.263569 1 1 1
v -0.2406841 1.326334 0.2707651 1 1 1
v -0.1151924 0.6174302 0.1419766 0.5490196 0.5490196 0.5490196
v -0.07391392 -0.1035232 0.05273088 0.003921569 0.003921569 0.003921569
v -0.2305658 1.326686 0.2737142 1 1 1
v -0.06040165 -0.1006581 0.03983629 0.003921569 0.003921569 0.003921569
v -0.1105736 0.6151968 0.1601558 0.5490196 0.5490196 0.5490196
v -0.2406841 1.326334 0.2707651 1 1 1
v -0.05578287 -0.1028915 0.05801546 0.003921569 0.003921569 0.003921569
v -0.1287047 0.6145651 0.1548712 0.5490196 0.5490196 0.5490196
v -0.07391392 -0.1035232 0.05273088 0.003921569 0.003921569 0.003921569
v 0.5616758 1.087433 -0.5290993 1 1 1
v 0.9894538 1.024243 -0.1002886 1 1 1
v 0.6330158 1.307409 0.2970185 1 1 1
v 0.2052376 1.370599 -0.1317922 1 1 1
v -0.5147429 1.164094 1.061953 1 1 1
v -0.5949751 1.436789 0.6199307 1 1 1
v -0.09572835 1.367357 0.4864772 1 1 1
v -0.01549602 1.094662 0.9284998 1 1 1
v -0.2453424 1.291515 0.7069973 1 1 1
v -0.0971254 1.009834 1.150857 1 1 1
v -0.6158621 0.9791907 1.304631 1 1 1
v -0.7640792 1.260872 0.8607711 1 1 1
v -0.6970658 0.963098 1.136801 1 1 1
v -0.4186141 1.31701 0.8050593 1 1 1
v 0.05650628 1.178589 1.056186 1 1 1
v -0.2219454 0.8246771 1.387928 1 1 1
v -1.166515 0.9888881 0.7101017 1 1 1
v -0.567461 1.082071 0.8078887 1 1 1
v -0.618713 0.8313148 1.360814 1 1 1
v -1.217767 0.7381321 1.263027 1 1 1
v -1.028003 0.633253 1.226945 1 1 1
v -1.272327 0.7016426 0.6619732 1 1 1
v -0.7461042 0.9499671 0.4644659 1 1 1
v -0.5017802 0.8815777 1.029437 1 1 1
v -1.244208 0.8875273 0.6743301 1 1 1
v -1.213287 0.9609657 0.1936291 1 1 1
v -0.7818013 1.170649 0.2534187 1 1 1
v -0.8127227 1.097211 0.7341197 1 1 1
v -0.4915132 1.431877 0.4280533 1 1 1
v -0.8184704 1.268973 0.7447302 1 1 1
v -1.108661 1.147504 0.3826333 1 1 1
v -0.7817041 1.310409 0.06595653 1 1 1
v -1.222598 0.9568576 -0.7724754 1 1 1
v -1.135996 1.263428 -0.3304746 1 1 1
v -1.371391 0.8863777 -0.02283162 1 1 1
v -1.457993 0.5798069 -0.4648322 1 1 1
v -1.364062 0.9101211 -0.4157404 1 1 1
v -1.096313 0.8017085 -0.9558581 1 1 1
v -0.6770884 1.224124 -0.8328259 1 1 1
v -0.9448377 1.332537 -0.2927081 1 1 1
v -0.5481981 1.410307 -0.8670905 1 1 1
v -0.3663861 1.358394 -0.2752828 1 1 1
v -0.9272085 1.154413 -0.1208831 1 1 1
v -1.109021 1.206326 -0.7126907 1 1 1
v -1.02085 0.7584268 -1.249056 1 1 1
v -0.4890145 0.7628061 -1.462629 1 1 1
v -0.3285658 1.126087 -1.055635 1 1 1
v -0.8604015 1.121708 -0.8420615 1 1 1
v -0.008761174 1.217897 -1.046976 1 1 1
v -0.4345359 1.223333 -0.8346844 1 1 1
v -0.6193075 0.9870487 -1.199213 1 1 1
v -0.1935329 0.9816126 -1.411505 1 1 1
v 0.02281357 1.153625 -0.2216268 1 1 1
v 0.5726048 1.053065 -0.198147 1 1 1
v 0.5300009 0.9469505 0.3449736 1 1 1
v -0.01979034 1.047511 0.3214937 1 1 1
v -0.4995902 0.9095591 -0.2803749 1 1 1
v -0.03792295 0.9281587 -0.6723671 1 1 1
v 0.3424075 1.035543 -0.2193391 1 1 1
v -0.1192598 1.016944 0.1726531 1 1 1
v -0.3557029 0.8291295 -0.3901636 1 1 1
v -0.3284804 0.8281289 0.1189092 1 1 1
v -0.7668458 0.5768228 0.1418568 1 1 1
v -0.7940683 0.5778231 -0.3672162 1 1 1
v -0.5885557 0.7393781 0.1179403 1 1 1
v -0.3083851 1.043193 0.3497163 1 1 1
v -0.2283832 0.7178291 0.6794996 1 1 1
v -0.5085539 0.4140147 0.4477235 1 1 1
v -0.6039808 1.309398 -0.5646554 1 1 1
v -0.6654089 1.212336 -1.150871 1 1 1
v -0.07911633 1.141079 -1.200509 1 1 1
v -0.01768818 1.238141 -0.6142933 1 1 1
v -0.2053277 1.117529 -1.094037 1 1 1
v -0.1130921 1.413466 -0.6379511 1 1 1
v -0.6472461 1.398753 -0.5203807 1 1 1
v -0.7394816 1.102815 -0.9764667 1 1 1
v -0.3914445 1.440878 -0.3481833 1 1 1
v -0.4820576 1.279405 -0.8423209 1 1 1
v 0.03313148 1.227624 -0.9198734 1 1 1
v 0.1237445 1.389097 -0.4257357 1 1 1
v -1.131925 1.034824 -0.7819872 1 1 1
v -0.6352084 1.316033 -0.9986429 1 1 1
v -0.4648426 1.450769 -0.4331726 1 1 1
v -0.9615591 1.169559 -0.2165167 1 1 1
v -0.4746143 1.391593 -0.4957849 1 1 1
v -0.5099818 1.301698 0.009765387 1 1 1
v -1.005476 1.190745 -0.04462781 1 1 1
v -0.9701082 1.280641 -0.5501782 1 1 1
v -1.40065 0.9127764 -0.196105 1 1 1
v -1.573166 0.4310938 -0.544828 1 1 1
v -1.223707 0.6392443 -1.005221 1 1 1
v -1.051191 1.120927 -0.6564986 1 1 1
v -0.9515156 1.347676 -0.02204886 1 1 1
v -1.415377 1.020103 0.2800814 1 1 1
v -1.54097 0.7013322 -0.258357 1 1 1
v -1.077109 1.028906 -0.5604872 1 1 1
v -1.307515 1.169411 0.4291407 1 1 1
v -1.506152 0.7161347 0.0274755 1 1 1
v -1.176807 0.9860917 -0.4400412 1 1 1
v -0.9781696 1.439368 -0.03837605 1 1 1
v -0.9090813 1.218402 -0.6735026 1 1 1
v -0.5997882 1.305412 -0.134647 1 1 1
v -1.102007 1.12083 0.1834222 1 1 1
v -1.4113 1.03382 -0.3554336 1 1 1
v -1.196918 1.032659 -0.4966179 1 1 1
v -0.7863655 1.327374 -0.5714971 1 1 1
v -0.7067351 1.343569 -0.07115228 1 1 1
v -1.117288 1.048854 0.00372684 1 1 1
v -0.1643184 1.117377 1.212803 1 1 1
v -0.5375483 0.6967044 1.503299 1 1 1
v -0.9975219 0.8226253 1.094672 1 1 1
v -0.624292 1.243298 0.8041762 1 1 1
v -0.1339084 1.136793 0.9136184 1 1 1
v -0.1311472 0.896547 1.417506 1 1 1
v -0.6848996 0.8854591 1.415253 1 1 1
v -0.6876606 1.125705 0.9113663 1 1 1
v -0.2285148 1.13151 1.130966 1 1 1
v 0.2830726 1.349201 0.7995102 1 1 1
v 0.6710634 0.9853255 1.159372 1 1 1
v 0.159476 0.7676335 1.490828 1 1 1
v 0.9262468 0.9430692 0.6959907 1 1 1
v 1.128073 0.8635253 0.2075083 1 1 1
v 1.431162 0.4715822 0.3965591 1 1 1
v 1.229336 0.5511262 0.8850415 1 1 1
v 1.223523 0.7545608 0.8356847 1 1 1
v 0.7269681 0.9894495 1.175072 1 1 1
v 0.5284101 1.314225 0.6597863 1 1 1
v 1.024965 1.079336 0.3203994 1 1 1
v 1.255987 0.7581846 0.0947183 1 1 1
v 1.063719 0.9847901 0.4831844 1 1 1
v 0.8828472 1.329018 0.1928634 1 1 1
v 1.075115 1.102412 -0.1956026 1 1 1
v 0.6786928 1.359416 -0.3051019 1 1 1
v 1.13703 1.127931 -0.1474428 1 1 1
v 1.018275 1.23853 0.3601807 1 1 1
v 0.5599387 1.470015 0.2025215 1 1 1
v 1.808437 0.6644555 -0.06282193 1 1 1
v 1.470055 0.6703201 0.4903654 1 1 1
v 0.9628924 0.9130915 0.1775625 1 1 1
v 1.301275 0.9072267 -0.3756248 1 1 1
v 0.8278158 1.224267 -0.4997518 1 1 1
v 1.166127 0.7392691 -0.7414292 1 1 1
v 1.471789 0.67752 -0.1896314 1 1 1
v 1.133478 1.162518 0.05204593 1 1 1
v 0.9526723 1.252448 -0.1099242 1 1 1
v 1.02852 1.149482 -0.6059436 1 1 1
v 1.462969 0.9124549 -0.4903075 1 1 1
v 1.387122 1.015422 0.005711898 1 1 1
v 1.218505 0.9875958 -0.05503754 1 1 1
v 0.7735227 1.393246 -0.08291488 1 1 1
v 0.6840293 1.255555 -0.6579859 1 1 1
v 1.129012 0.8499046 -0.6301085 1 1 1
v 0.4518947 1.342058 -0.7166288 1 1 1
v 0.7019143 1.240742 -0.277644 1 1 1
v 0.2860248 1.37142 -0.01061818 1 1 1
v 0.03600519 1.472736 -0.4496028 1 1 1
v 0.6854587 1.244939 -0.4361594 1 1 1
v 0.3522682 1.306897 0.04939781 1 1 1
v -0.1315609 1.315818 -0.2837452 1 1 1
v 0.2016296 1.253859 -0.7693025 1 1 1
v 0.02484508 0.6890148 -1.456514 1 1 1
v 0.5503031 0.6454929 -1.540094 1 1 1
v 0.6421243 0.9704548 -1.132035 1 1 1
v 0.1166663 1.013977 -1.048455 1 1 1
v -0.2020752 0.9665354 -1.455243 1 1 1
v 0.2371199 1.039702 -1.249348 1 1 1
v 0.02039636 1.197695 -0.8431996 1 1 1
v -0.4187987 1.124529 -1.049095 1 1 1
v 0.1057535 0.4638537 -1.211731 1 1 1
v 0.6179022 0.504634 -1.05729 1 1 1
v 0.4900818 0.9135242 -0.7413862 1 1 1
v -0.02206693 0.872744 -0.895827 1 1 1
v 0.6880747 0.8620235 0.6638086 1 1 1
v 0.3639706 1.227674 0.2371011 1 1 1
v 0.7220842 0.9874773 -0.2407305 1 1 1
v 1.046188 0.6218265 0.1859771 1 1 1
v 0.5903159 0.9233637 0.6326044 1 1 1
v 0.3225548 0.6495158 1.102229 1 1 1
v -0.2159341 0.8129947 0.8905325 1 1 1
v 0.05182708 1.086843 0.4209077 1 1 1
v -0.7154757 0.1216082 -1.189279 1 1 1
v -0.2919751 0.421669 -1.314228 1 1 1
v -0.4135847 0.7565268 -0.9222587 1 1 1
v -0.8370855 0.4564659 -0.7973102 1 1 1
v -0.0312686 0.8921657 -0.6840876 1 1 1
v -0.5284898 0.8079911 -0.7737728 1 1 1
v -0.4082088 0.5378658 -1.187092 1 1 1
v 0.08901244 0.6220405 -1.097406 1 1 1
v -0.08217793 0.93955 -0.7687089 1 1 1
v -0.7017161 0.7630698 -0.7039447 1 1 1
v -0.6398065 0.3627738 -1.202505 1 1 1
v -0.02026829 0.5392539 -1.26727 1 1 1
v 0.05365981 0.3154458 -1.4223 1 1 1
v -0.4178236 0.2839745 -1.472542 1 1 1
v -0.476542 0.5082875 -1.062022 1 1 1
v -0.005058664 0.5397589 -1.01178 1 1 1
v -1.049079 0.5706862 -0.4021381 1 1 1
v -0.8993065 0.2303468 -0.8573059 1 1 1
v -0.5104804 0.6299474 -1.028153 1 1 1
v -0.6602529 0.9702868 -0.5729856 1 1 1
v -0.6401244 0.7610124 -0.6724705 1 1 1
v -0.7982926 0.9129318 -0.1377831 1 1 1
v -1.253942 0.566757 -0.1742129 1 1 1
v -1.095773 0.4148376 -0.7089003 1 1 1
v -1.126863 0.5694335 -0.00142175 1 1 1
v -0.8090347 0.8641827 0.2907093 1 1 1
v -0.9281303 0.5794873 0.7075281 1 1 1
v -1.245959 0.2847381 0.4153972 1 1 1
v -0.5842352 0.883354 0.762789 1 1 1
v -1.012381 0.5654675 0.5013527 1 1 1
v -0.8512895 0.7799754 -0.02328752 1 1 1
v -0.4231434 1.097862 0.2381488 1 1 1
v -0.50091 0.5852226 1.02319 1 1 1
v -0.9394565 0.3160035 1.058762 1 1 1
v -1.068623 0.4639666 0.5861704 1 1 1
v -0.6300765 0.7331856 0.5505984 1 1 1
v -0.4758391 0.8010435 0.7101977 1 1 1
v -0.6193655 0.9932241 0.2841662 1 1 1
v -0.1701464 1.159642 0.2078984 1 1 1
v -0.02662004 0.9674613 0.6339298 1 1 1
v -0.3502537 0.1828442 1.405896 1 1 1
v -0.7054302 0.1388576 0.9032605 1 1 1
v -0.3379315 0.5304301 0.6093083 1 1 1
v 0.01724488 0.5744167 1.111944 1 1 1
v 0.2485067 0.4890998 1.509417 1 1 1
v -0.2892797 0.4528595 1.378074 1 1 1
v -0.183835 0.6742042 0.8852571 1 1 1
v 0.3539514 0.7104445 1.016601 1 1 1
v 0.4082059 0.6570148 1.038513 1 1 1
v -0.1214614 0.9360674 0.8712519 1 1 1
v 0.1478194 1.137247 0.3541588 1 1 1
v 0.6774868 0.8581944 0.5214201 1 1 1
v -0.1362481 0.1971441 1.423012 1 1 1
v 0.3705969 0.5493243 1.112458 1 1 1
v 0.3525227 0.2106829 1.461462 1 1 1
v -0.118174 0.5357855 1.074009 1 1 1
v 0.7498233 0.1859142 1.432841 1 1 1
v 0.2156812 0.2829455 1.428026 1 1 1
v 0.2580787 0.4917909 0.933317 1 1 1
v 0.7922208 0.3947596 0.9381314 1 1 1
v 1.124336 0.3940801 0.8240482 1 1 1
v 0.8237441 0.3064854 1.3081 1 1 1
v 0.4152551 0.6589549 1.118216 1 1 1
v 0.7158474 0.7465495 0.6341633 1 1 1
v 0.6331507 0.7061574 0.6650599 1 1 1
v 0.2940899 1.084518 0.4216434 1 1 1
v 0.662046 1.146522 0.005486414 1 1 1
v 1.001107 0.7681616 0.2489029 1 1 1
v 0.8127089 0.5711476 0.3382004 1 1 1
v 1.372615 0.4496532 0.07027248 1 1 1
v 1.59755 0.2622292 0.6253232 1 1 1
v 1.037644 0.3837237 0.893251 1 1 1
v 0.9215032 0.6259524 -0.6980112 1 1 1
v 1.36768 0.3621441 -0.5540118 1 1 1
v 1.313857 0.5435409 -0.054922 1 1 1
v 0.8676804 0.8073491 -0.1989213 1 1 1
v 0.9675447 0.6916114 -0.6189725 1 1 1
v 0.9366339 0.1708059 -0.8740955 1 1 1
v 1.345001 -0.02731966 -0.5191223 1 1 1
v 1.375912 0.4934858 -0.2639992 1 1 1
v 0.9630458 0.0964616 -1.052434 1 1 1
v 1.068682 0.2442086 -0.6023289 1 1 1
v 0.8514228 0.665056 -0.6894827 1 1 1
v 0.7457862 0.517309 -1.139588 1 1 1
v 0.1156506 1.123182 -0.3610407 1 1 1
v 0.2771877 0.9835663 -0.793538 1 1 1
v 0.6759871 0.8145723 -0.5900338 1 1 1
v 0.5144501 0.9541881 -0.1575362 1 1 1
v -0.1240715 0.4875434 -1.230698 1 1 1
v 0.5074764 0.5073442 -1.147591 1 1 1
v 0.4359622 0.9600855 -0.7120093 1 1 1
v -0.1955858 0.9402848 -0.795117 1 1 1
v 1.16845 1.26933 0.1705857 1 1 1
v 1.089722 1.194065 0.6988322 1 1 1
v 0.6210686 1.450238 0.665485 1 1 1
v 0.6997973 1.525503 0.1372386 1 1 1
v 1.017599 1.11928 0.9281505 1 1 1
v 0.4592052 1.263746 1.219901 1 1 1
v 0.2293831 1.492669 0.6666784 1 1 1
v 0.7877765 1.348202 0.3749281 1 1 1
v 0.6991614 1.50937 0.6466436 1 1 1
v 0.08487451 1.358112 0.6504133 1 1 1
v 0.04219671 1.516334 0.0444874 1 1 1
v 0.6564836 1.667592 0.04071771 1 1 1
v 0.5492874 1.40704 -0.1672833 1 1 1
v 0.9694155 1.431848 0.184938 1 1 1
v 0.6230161 1.541947 0.5903676 1 1 1
v 0.2028878 1.517139 0.2381463 1 1 1
v 0.1073314 1.154515 -0.7510172 1 1 1
v 0.5492103 0.9708 -0.9960548 1 1 1
v 0.8358987 1.07748 -0.5590484 1 1 1
v 0.3940199 1.261195 -0.3140109 1 1 1
v 0.3926312 1.581336 0.09797873 1 1 1
v 0.5102806 1.434926 0.6612267 1 1 1
v -0.05525292 1.291113 0.7419707 1 1 1
v -0.1729022 1.437523 0.1787228 1 1 1
v -0.5419439 1.316859 0.2684982 1 1 1
v -0.0822344 1.58094 0.1318836 1 1 1
v 0.1145738 1.496593 0.6310974 1 1 1
v -0.3451357 1.232511 0.767712 1 1 1
v 0.3372684 0.8787687 1.200276 1 1 1
v -0.1006273 0.9027107 0.874343 1 1 1
v 0.02942863 1.410753 0.7369302 1 1 1
v 0.4673243 1.386811 1.062863 1 1 1
v 0.8650061 1.671498 0.3202631 1 1 1
v 1.199449 1.460069 0.6879957 1 1 1
v 0.7965781 1.436138 1.040636 1 1 1
v 0.4621358 1.647567 0.6729031 1 1 1
v 0.5009167 1.492391 0.4985076 1 1 1
v 1.035558 1.375609 0.1422806 1 1 1
v 1.338261 1.15235 0.6697813 1 1 1
v 0.8036192 1.269132 1.026008 1 1 1
v 0.6903716 1.495341 0.09682912 1 1 1
v 1.136179 1.282462 0.3828947 1 1 1
v 0.8275632 1.274296 0.8577675 1 1 1
v 0.3817559 1.487176 0.5717019 1 1 1
v 0.9978086 1.437175 0.4304964 1 1 1
v 0.6531233 1.478198 0.086566 1 1 1
v 0.9713277 1.333879 -0.2495509 1 1 1
v 1.316013 1.292856 0.09437954 1 1 1
v 0.9056407 1.52296 -0.2591423 1 1 1
v 1.390948 1.263767 0.02617672 1 1 1
v 1.062291 1.21831 0.5439038 1 1 1
v 0.5769839 1.477503 0.2585848 1 1 1
v 0.2187995 0.509855 -0.5635747 1 1 1
v 0.3611299 0.5962619 -0.09769776 1 1 1
v -0.09482249 0.5036682 0.0587741 1 1 1
v -0.2371529 0.4172613 -0.4071029 1 1 1
v -0.4296513 0.5698131 -0.4545566 1 1 1
v -0.07292242 0.5326292 -0.04874445 1 1 1
v -0.4650726 0.3709892 0.2811641 1 1 1
v -0.8218015 0.4081731 -0.1246481 1 1 1
v -0.4150112 0.4140235 0.2762039 1 1 1
v -0.1704535 0.5567915 0.6980114 1 1 1
v -0.4192528 0.2060301 0.960983 1 1 1
v -0.6638106 0.06326193 0.5391755 1 1 1
v -0.6737105 0.1744485 0.6650406 1 1 1
v -0.7585256 0.3551339 0.1290271 1 1 1
v -0.2519262 0.6108134 0.1350535 1 1 1
v -0.1671111 0.4301279 0.6710669 1 1 1
v -0.002723846 0.4782892 0.4855038 1 1 1
v -0.4100094 0.317245 0.7323751 1 1 1
v -0.6864482 0.3896079 0.3235147 1 1 1
v -0.2791627 0.5506521 0.07664342 1 1 1
v 0.5622596 0.4956217 0.2025088 1 1 1
v 0.1886784 0.6406825 -0.2035252 1 1 1
v 0.5075971 0.3783721 -0.5906676 1 1 1
v 0.8811783 0.2333113 -0.1846336 1 1 1
v 0.7976983 0.3086608 -0.3265072 1 1 1
v 0.3198356 0.5818856 -0.3810799 1 1 1
v 0.244596 0.3519028 -0.8736848 1 1 1
v 0.7224588 0.07867805 -0.8191121 1 1 1
v 0.3704954 0.5323879 -0.6251963 1 1 1
v -0.1683051 0.6789993 -0.5095402 1 1 1
v -0.3523846 0.2222221 -0.7880671 1 1 1
v 0.186416 0.07561079 -0.9037233 1 1 1
v -0.3680668 1.29838 -1.038324 1 1 1
v 0.08526933 1.318333 -0.9040368 1 1 1
v -0.04036518 1.547479 -0.5139577 1 1 1
v -0.4937013 1.527526 -0.6482444 1 1 1
v -0.9232528 1.023633 -1.406569 1 1 1
v -0.4036326 0.9821464 -1.598032 1 1 1
v -0.2249633 1.294546 -1.180826 1 1 1
v -0.7445834 1.336032 -0.9893625 1 1 1
v -1.575055 0.9514409 -0.8580073 1 1 1
v -1.14344 0.9144084 -1.186291 1 1 1
v -0.8623874 1.231325 -0.8525249 1 1 1
v -1.294002 1.268358 -0.5242407 1 1 1
v -1.266782 1.381216 -0.4488773 1 1 1
v -0.971944 1.669944 -0.1741726 1 1 1
v -1.040891 1.373057 0.2118702 1 1 1
v -1.335728 1.084329 -0.06283455 1 1 1
v -1.390097 1.19234 -0.7772893 1 1 1
v -0.8820646 1.56441 -0.7496631 1 1 1
v -0.9619844 1.627721 -0.1326483 1 1 1
v -1.470017 1.25565 -0.1602746 1 1 1
v -0.9979623 1.281908 -0.7247512 1 1 1
v -0.5249501 1.586695 -0.6819319 1 1 1
v -0.550054 1.547267 -0.1239719 1 1 1
v -1.023066 1.242481 -0.1667911 1 1 1
v -0.643059 1.479803 0.06303348 1 1 1
v -0.6425413 1.604563 -0.4249764 1 1 1
v -0.1606582 1.476084 -0.4573107 1 1 1
v -0.1611759 1.351324 0.03069906 1 1 1
v -0.1840811 1.401917 -0.5551375 1 1 1
v -0.1857918 1.415723 0.1005955 1 1 1
v -0.8069165 1.609744 0.09489016 1 1 1
v -0.8052058 1.595939 -0.5608428 1 1 1
v -0.8369735 1.578938 -0.8538061 1 1 1
v -0.3396032 1.612884 -0.7335126 1 1 1
v -0.4631256 1.702845 -0.2481784 1 1 1
v -0.9604961 1.668899 -0.3684719 1 1 1
v -0.03386833 0.7085093 0.2022012 1 1 1
v -0.3810709 0.722901 -0.3497603 1 1 1
v 0.1179716 0.4642117 -0.6704201 1 1 1
v 0.4651741 0.4498199 -0.1184585 1 1 1
v -0.3930567 0.7332743 -0.3658203 1 1 1
v -0.4070559 0.5713085 0.1159299 1 1 1
v -0.9109266 0.5947774 0.1091782 1 1 1
v -0.8969275 0.7567431 -0.3725719 1 1 1
v -1.403088 0.4604057 0.1627184 1 1 1
v -0.8633465 0.7160749 0.3137348 1 1 1
v -0.891898 0.4513756 0.863913 1 1 1
v -1.431639 0.1957063 0.7128966 1 1 1
v -1.582063 0.4373362 0.09854185 1 1 1
v -1.803783 0.2214844 -0.4744816 1 1 1
v -1.332186 0.5424885 -0.7778758 1 1 1
v -1.110465 0.7583404 -0.2048523 1 1 1
v -1.351171 0.404822 0.257505 1 1 1
v -1.94145 0.2228399 0.03751664 1 1 1
v -1.724966 0.2608441 -0.5747982 1 1 1
v -1.134687 0.4428262 -0.3548098 1 1 1
v -0.4440789 0.6378658 -1.147411 1 1 1
v -0.7833885 0.7381275 -0.6776061 1 1 1
v -1.208346 0.4170602 -0.9160061 1 1 1
v -0.8690364 0.3167986 -1.385811 1 1 1
v -0.9126931 0.4460879 -1.319512 1 1 1
v -0.6248877 0.5772604 -0.8813691 1 1 1
v -1.076447 0.6080301 -0.5939626 1 1 1
v -1.364253 0.4768577 -1.032106 1 1 1
v -1.240454 0.5769294 -0.6603702 1 1 1
v -1.606555 0.4837214 -1.196666 1 1 1
v -1.066563 0.4102375 -1.552518 1 1 1
v -0.7004622 0.5034455 -1.016222 1 1 1
v -1.994919 0.2895786 -0.8425719 1 1 1
v -1.453991 0.4199585 -1.144316 1 1 1
v -1.200268 0.6165642 -0.6045228 1 1 1
v -1.741196 0.4861842 -0.3027787 1 1 1
v -2.307995 0.1344912 -0.2930762 1 1 1
v -2.052566 0.07286992 -0.8911538 1 1 1
v -1.537594 0.4207174 -0.7070575 1 1 1
v -1.793023 0.4823387 -0.10898 1 1 1
v -1.685287 0.3363745 0.411698 1 1 1
v -1.289716 0.5849935 -0.04108815 1 1 1
v -0.7961631 0.5555521 0.3739326 1 1 1
v -1.191734 0.3069332 0.8267188 1 1 1
v -1.381308 0.5605293 0.06185125 1 1 1
v -1.168393 0.6055338 -0.3875975 1 1 1
v -0.7204219 0.5988682 -0.1760501 1 1 1
v -0.9333367 0.5538636 0.2733986 1 1 1
v -0.882612 0.6759871 0.7085846 1 1 1
v -1.214535 0.5658499 0.3016279 1 1 1
v -0.7972021 0.445133 -0.006087624 1 1 1
v -0.4652792 0.5552702 0.400869 1 1 1
v -1.166811 0.4217559 0.2883354 1 1 1
v -0.7458244 0.6129679 -0.1549378 1 1 1
v -0.3108321 0.7069953 0.2987436 1 1 1
v -0.7318182 0.5157833 0.7420168 1 1 1
v -0.3781955 0.5923784 0.5788228 1 1 1
v -0.9504547 0.4063642 0.4857048 1 1 1
v -0.9134388 0.5813541 -0.09134054 1 1 1
v -0.3411796 0.7673684 0.001777403 1 1 1
v -0.4292894 0.7306409 0.3777086 1 1 1
v -0.2255545 0.3285654 0.8053304 1 1 1
v -0.8075334 0.1737463 0.9370366 1 1 1
v -1.011268 0.5758219 0.5094149 1 1 1
v -0.6629531 0.8560451 0.1574281 1 1 1
v -1.218786 0.7024782 -0.1039371 1 1 1
v -0.9188305 0.4636577 -0.6015188 1 1 1
v -0.3629972 0.6172248 -0.3401536 1 1 1
v -0.2729186 0.6343982 0.00656566 1 1 1
v -0.834052 0.6922683 -0.007501274 1 1 1
v -0.8223413 0.6698664 -0.5667995 1 1 1
v -0.2612079 0.6119965 -0.5527325 1 1 1
v 0.01841279 0.8444384 -0.07448076 1 1 1
v 0.5087584 0.4395985 0.03835873 1 1 1
v 0.1663419 0.1529354 0.4978586 1 1 1
v -0.3240037 0.5577754 0.3850192 1 1 1
v -0.4339806 0.6524457 -0.196058 1 1 1
v -0.1274632 0.6113231 -0.5562934 1 1 1
v 0.2308218 0.6036572 -0.2505605 1 1 1
v -0.07569572 0.6447799 0.1096749 1 1 1
v 0.1731771 0.4057389 0.2395149 0.5490196 0.5490196 0.5490196
v 0.2264849 0.942755 0.2819863 1 1 1
v 0.2348449 0.9423309 0.2834148 1 1 1
v 0.1581968 0.4064991 0.2369554 0.5490196 0.5490196 0.5490196
v 0.1481296 -0.1333161 0.2260084 0.003921569 0.003921569 0.003921569
v 0.2318971 0.9426671 0.2754581 1 1 1
v 0.1331493 -0.1325559 0.2234488 0.003921569 0.003921569 0.003921569
v 0.1678949 0.4063416 0.2252575 0.5490196 0.5490196 0.5490196
v 0.2348449 0.9423309 0.2834148 1 1 1
v 0.1428474 -0.1327134 0.2117509 0.003921569 0.003921569 0.003921569
v 0.1731771 0.4057389 0.2395149 0.5490196 0.5490196 0.5490196
v 0.1481296 -0.1333161 0.2260084 0.003921569 0.003921569 0.003921569
v 0.1379279 0.4763342 0.7831572 0.5490196 0.5490196 0.5490196
v 0.1703303 1.051044 0.9551535 1 1 1
v 0.176639 1.049128 0.9625809 1 1 1
v 0.1266233 0.4797681 0.7698481 0.5490196 0.5490196 0.5490196
v 0.1083938 -0.1084584 0.6573553 0.003921569 0.003921569 0.003921569
v 0.1801141 1.050917 0.9534504 1 1 1
v 0.09708917 -0.1050244 0.6440463 0.003921569 0.003921569 0.003921569
v 0.1441548 0.4795391 0.7667965 0.5490196 0.5490196 0.5490196
v 0.176639 1.049128 0.9625809 1 1 1
v 0.1146207 -0.1052533 0.6409947 0.003921569 0.003921569 0.003921569
v 0.1379279 0.4763342 0.7831572 0.5490196 0.5490196 0.5490196
v 0.1083938 -0.1084584 0.6573553 0.003921569 0.003921569 0.003921569
v 0.5556862 0.312956 -0.84657 0.5490196 0.5490196 0.5490196
v 0.5412357 0.7697142 -1.121652 1 1 1
v 0.5455296 0.777219 -1.111501 1 1 1
v 0.5514324 0.2973647 -0.8669569 0.5490196 0.5490196 0.5490196
v 0.519471 -0.09933329 -0.5209829 0.003921569 0.003921569 0.003921569
v 0.5554534 0.7740889 -1.114531 1 1 1
v 0.5152172 -0.1149246 -0.5413698 0.003921569 0.003921569 0.003921569
v 0.5769089 0.3052035 -0.8541969 0.5490196 0.5490196 0.5490196
v 0.5455296 0.777219 -1.111501 1 1 1
v 0.5406939 -0.1070857 -0.5286098 0.003921569 0.003921569 0.003921569
v 0.5556862 0.312956 -0.84657 0.5490196 0.5490196 0.5490196
v 0.519471 -0.09933329 -0.5209829 0.003921569 0.003921569 0.003921569
v 0.9801754 0.3161512 0.01518738 0.5490196 0.5490196 0.5490196
v 1.309814 0.8143159 0.03486678 1 1 1
v 1.324456 0.8076323 0.02576289 1 1 1
v 0.9539384 0.3281277 0.0315006 0.5490196 0.5490196 0.5490196
v 0.729805 -0.219262 0.005591065 0.003921569 0.003921569 0.003921569
v 1.3101 0.8145142 0.01635662 1 1 1
v 0.7035681 -0.2072854 0.0219043 0.003921569 0.003921569 0.003921569
v 0.9544504 0.3284828 -0.00166763 0.5490196 0.5490196 0.5490196
v 1.324456 0.8076323 0.02576289 1 1 1
v 0.7040799 -0.2069303 -0.01126395 0.003921569 0.003921569 0.003921569
v 0.9801754 0.3161512 0.01518738 0.5490196 0.5490196 0.5490196
v 0.729805 -0.219262 0.005591065 0.003921569 0.003921569 0.003921569
v 0.5237755 0.2884185 0.4246789 0.5490196 0.5490196 0.5490196
v 0.6790429 0.696843 0.3993819 1 1 1
v 0.6902003 0.6938929 0.3922985 1 1 1
v 0.5037825 0.2937048 0.4373716 0.5490196 0.5490196 0.5490196
v 0.4314618 -0.1334244 0.4549609 0.003921569 0.003921569 0.003921569
v 0.6784734 0.6959971 0.3858631 1 1 1
v 0.4114688 -0.1281381 0.4676536 0.003921569 0.003921569 0.003921569
v 0.502762 0.2921892 0.4131472 0.5490196 0.5490196 0.5490196
v 0.6902003 0.6938929 0.3922985 1 1 1
v 0.4104483 -0.1296537 0.4434293 0.003921569 0.003921569 0.003921569
v 0.5237755 0.2884185 0.4246789 0.5490196 0.5490196 0.5490196
v 0.4314618 -0.1334244 0.4549609 0.003921569 0.003921569 0.003921569
v -0.6308769 0.3667024 0.5810112 0.5490196 0.5490196 0.5490196
v -0.7112405 0.8546565 0.8865622 1 1 1
v -0.7090988 0.8487402 0.8990877 1 1 1
v -0.6347144 0.377304 0.5585672 0.5490196 0.5490196 0.5490196
v -0.5804176 -0.1500179 0.3283103 0.003921569 0.003921569 0.003921569
v -0.6983846 0.8535333 0.8914258 1 1 1
v -0.5842551 -0.1394165 0.3058662 0.003921569 0.003921569 0.003921569
v -0.611678 0.3752915 0.5672821 0.5490196 0.5490196 0.5490196
v -0.7090988 0.8487402 0.8990877 1 1 1
v -0.5612187 -0.141429 0.3145812 0.003921569 0.003921569 0.003921569
v -0.6308769 0.3667024 0.5810112 0.5490196 0.5490196 0.5490196
v -0.5804176 -0.1500179 0.3283103 0.003921569 0.003921569 0.003921569
v -0.7384771 0.4446282 -0.2169721 0.5490196 0.5490196 0.5490196
v -0.9200505 0.975796 -0.2637404 1 1 1
v -0.9326931 0.9732051 -0.2595054 1 1 1
v -0.7158228 0.449271 -0.2245606 0.5490196 0.5490196 0.5490196
v -0.6174307 -0.1009391 -0.1893997 0.003921569 0.003921569 0.003921569
v -0.9227418 0.9758605 -0.2506508 1 1 1
v -0.5947765 -0.09629629 -0.1969881 0.003921569 0.003921569 0.003921569
v -0.7206452 0.4493865 -0.2011057 0.5490196 0.5490196 0.5490196
v -0.9326931 0.9732051 -0.2595054 1 1 1
v -0.5995991 -0.09618089 -0.1735332 0.003921569 0.003921569 0.003921569
v -0.7384771 0.4446282 -0.2169721 0.5490196 0.5490196 0.5490196
v -0.6174307 -0.1009391 -0.1893997 0.003921569 0.003921569 0.003921569
v 0.516821 0.6571972 0.08022486 0.5490196 0.5490196 0.5490196
v 0.7302655 1.471899 0.2516033 1 1 1
v 0.7372898 1.468738 0.2613594 1 1 1
v 0.504234 0.6628609 0.06274299 0.5490196 0.5490196 0.5490196
v 0.3030722 -0.165469 -0.03239865 0.003921569 0.003921569 0.003921569
v 0.7422394 1.469013 0.2499602 1 1 1
v 0.2904851 -0.1598053 -0.04988052 0.003921569 0.003921569 0.003921569
v 0.5256898 0.6576892 0.05979864 0.5490196 0.5490196 0.5490196
v 0.7372898 1.468738 0.2613594 1 1 1
v 0.311941 -0.164977 -0.05282486 0.003921569 0.003921569 0.003921569
v 0.516821 0.6571972 0.08022486 0.5490196 0.5490196 0.5490196
v 0.3030722 -0.165469 -0.03239865 0.003921569 0.003921569 0.003921569
v -1.26267 0.1722058 -0.5578269 0.5490196 0.5490196 0.5490196
v -1.578179 0.4746156 -0.5467866 1 1 1
v -1.584608 0.4691149 -0.5404993 1 1 1
v -1.25115 0.1820624 -0.5690929 0.5490196 0.5490196 0.5490196
v -0.9860843 -0.1624102 -0.5677492 0.003921569 0.003921569 0.003921569
v -1.577033 0.4752578 -0.5364987 1 1 1
v -0.9745638 -0.1525537 -0.5790153 0.003921569 0.003921569 0.003921569
v -1.249096 0.1832131 -0.550658 0.5490196 0.5490196 0.5490196
v -1.584608 0.4691149 -0.5404993 1 1 1
v -0.9725105 -0.151403 -0.5605805 0.003921569 0.003921569 0.003921569
v -1.26267 0.1722058 -0.5578269 0.5490196 0.5490196 0.5490196
v -0.9860843 -0.1624102 -0.5677492 0.003921569 0.003921569 0.003921569
v -0.3846915 0.5058065 -0.8801848 0.5490196 0.5490196 0.5490196
v -0.5552167 1.192529 -1.218658 1 1 1
v -0.5602944 1.187617 -1.227533 1 1 1
v -0.3755929 0.5146089 -0.8642803 0.5490196 0.5490196 0.5490196
v -0.2062563 -0.1994425 -0.5919354 0.003921569 0.003921569 0.003921569
v -0.5662464 1.189942 -1.21816 1 1 1
v -0.1971577 -0.19064 -0.576031 0.003921569 0.003921569 0.003921569
v -0.3953573 0.5099727 -0.8633888 0.5490196 0.5490196 0.5490196
v -0.5602944 1.187617 -1.227533 1 1 1
v -0.2169221 -0.1952763 -0.5751395 0.003921569 0.003921569 0.003921569
v -0.3846915 0.5058065 -0.8801848 0.5490196 0.5490196 0.5490196
v -0.2062563 -0.1994425 -0.5919354 0.003921569 0.003921569 0.003921569
vn -0.06387582 0.9101396 0.4093481
vn 0.09015165 0.9172367 0.3880072
vn 0.0901318 0.9172565 0.3879648
vn -0.06391624 0.9101078 0.4094124
vn 0.05531773 0.08331504 0.9949867
vn 0.09016355 0.9172302 0.3880197
vn 0.05530354 0.08329984 0.9949888
vn -0.06387271 0.9101014 0.4094335
vn 0.0901318 0.9172565 0.3879648
vn 0.1505379 0.09137381 0.9843725
vn -0.06387582 0.9101396 0.4093481
vn 0.05531773 0.08331504 0.9949867
vn 0.2587627 0.756142 -0.6010749
vn 0.5669702 0.7958034 -0.2127013
vn 0.2914298 0.9445483 0.1513179
vn -0.02026357 0.9923651 -0.1216586
vn -0.1541655 0.7587521 0.6328731
vn 0.0720416 0.7719038 0.6316444
vn -0.1954529 0.9541913 0.2265326
vn -0.16914 0.7967715 0.5801265
vn -0.2832834 0.8769367 0.3882429
vn -0.237627 0.6636177 0.7093271
vn -0.07137427 0.6804724 0.7292895
vn -0.1303467 0.7439283 0.6554239
vn -0.1530267 0.6882464 0.7091542
vn -0.2951013 0.833458 0.4671862
vn -0.1686684 0.7370206 0.6544859
vn -0.3076998 0.4489576 0.8389028
vn -0.3752393 0.5800039 0.7230428
vn -0.1109237 0.8031799 0.5853187
vn -0.1243902 0.6335512 0.763636
vn -0.3437603 0.5901816 0.7304208
vn -0.322115 0.5457616 0.7735542
vn -0.4727406 0.6319816 0.6140974
vn -0.08004312 0.7016196 0.7080417
vn -0.133699 0.7079746 0.6934671
vn -0.4336641 0.5927508 0.6786618
vn -0.4521336 0.5590401 0.6950175
vn -0.07440203 0.7394294 0.6691102
vn -0.1303181 0.7439693 0.655383
vn 0.1036849 0.8194008 0.5637656
vn -0.1147882 0.6584531 0.7438166
vn -0.3057449 0.6550706 0.6909432
vn -0.04415754 0.878382 0.4759152
vn -0.5054911 0.6526862 -0.5643398
vn -0.3682346 0.915409 -0.1625721
vn -0.6562627 0.5578198 0.5080909
vn -0.8522466 0.4096559 -0.3253579
vn -0.578814 0.790697 -0.199431
vn -0.4026575 0.2339502 -0.8849487
vn -0.0412604 0.8550728 -0.5168637
vn -0.2699971 0.9532222 -0.1359004
vn 0.08409567 0.886393 -0.4552312
vn 0.2943445 0.9516123 0.08829138
vn -0.2481942 0.9640192 0.09521919
vn -0.3547711 0.8870972 -0.2952898
vn -0.3155873 0.2187408 -0.9233403
vn 0.05006528 0.1672848 -0.9846367
vn 0.214795 0.6785908 -0.7024085
vn -0.1991658 0.8301089 -0.5208188
vn 0.4007497 0.6900227 -0.6027175
vn 0.178361 0.8117767 -0.5560629
vn 0.01451454 0.4791047 -0.8776378
vn 0.2084085 0.4321221 -0.8774032
vn 0.1904612 0.9776299 -0.08924358
vn 0.283259 0.9235477 -0.2585033
vn 0.2914483 0.9445391 0.1513402
vn -0.1724663 0.9689979 0.1769138
vn 0.2943428 0.9516103 0.08831829
vn 0.3572878 0.746953 -0.5607197
vn 0.1093502 0.9370219 -0.3317114
vn -0.05033794 0.9664006 0.2520634
vn 0.3763525 0.8928061 -0.2474996
vn -0.06999192 0.868591 0.4905618
vn -0.1449856 0.6844845 0.714465
vn -0.3533174 0.9029416 -0.2446697
vn 0.01190606 0.7501914 0.6611136
vn -0.06997945 0.8685831 0.4905774
vn -0.282725 0.782398 0.5549053
vn -0.1109224 0.8031965 0.5852962
vn 0.08652969 0.9610122 -0.262618
vn -0.03486235 0.5858119 -0.8096968
vn 0.3814516 0.6198658 -0.6857559
vn 0.3983966 0.8341789 -0.3813473
vn 0.3402228 0.6467834 -0.6825831
vn 0.3763556 0.892809 -0.2474846
vn -0.06609622 0.9704866 -0.2319203
vn -0.05169442 0.6590788 -0.750295
vn 0.2131949 0.9757605 -0.04939047
vn 0.1783181 0.8117696 -0.556087
vn 0.4451019 0.729023 -0.5200093
vn 0.143693 0.9465591 -0.2887531
vn -0.4652482 0.6802425 -0.5664048
vn 0.07145467 0.7590024 -0.647155
vn 0.2131869 0.9757603 -0.04942848
vn -0.2602542 0.9640821 -0.05304239
vn 0.2064864 0.9636105 -0.1697592
vn 0.1247742 0.934476 0.3334456
vn -0.3080835 0.939531 0.1495526
vn -0.3133338 0.9225177 -0.225351
vn -0.6755681 0.7301566 0.1023674
vn -0.7182286 0.636159 -0.2818677
vn -0.4158491 0.4029633 -0.8152853
vn -0.3547912 0.8870845 -0.2953039
vn -0.1518675 0.9359987 0.3175574
vn -0.5638097 0.529121 0.6341526
vn -0.9493073 0.2999917 0.09391814
vn -0.3835964 0.8729644 -0.3013087
vn -0.4055817 0.6316671 0.6606817
vn -0.8059894 0.268684 0.5274371
vn -0.4088876 0.880405 -0.2402039
vn -0.2481823 0.9640293 0.09514702
vn -0.2628617 0.9252104 -0.2736595
vn 0.1311169 0.9675244 0.2161133
vn -0.2298887 0.7411152 0.6307927
vn -0.5787805 0.7907133 -0.1994636
vn -0.4088775 0.8804094 -0.2402051
vn -0.2349222 0.940559 -0.2452762
vn -0.02033341 0.9529364 0.3024876
vn -0.4516798 0.7891695 0.4161692
vn -0.2747664 0.6484879 0.7099062
vn -0.07868883 0.5488225 0.8322272
vn -0.2881853 0.6603249 0.6934841
vn -0.07177582 0.7942393 0.6033508
vn -0.2584011 0.7861208 0.561465
vn -0.278057 0.4246466 0.8616029
vn -0.1243603 0.6335496 0.7636423
vn -0.1505205 0.7972426 0.5845919
vn -0.3361059 0.6670855 0.6648532
vn 0.0296593 0.8929415 0.4491945
vn 0.2617927 0.6164773 0.7425769
vn -0.113572 0.3450736 0.931679
vn 0.5539351 0.6991242 0.4520856
vn 0.801892 0.5972092 -0.01762109
vn 0.972177 -0.0646238 0.2251569
vn 0.7836561 0.1050037 0.6122559
vn 0.7416557 0.3904761 0.5454128
vn 0.377021 0.5839819 0.7189022
vn 0.2073049 0.9114068 0.3554747
vn 0.5937067 0.7921718 0.1413371
vn 0.8663853 0.4977823 -0.03986396
vn 0.6501082 0.7184088 0.2474837
vn 0.4429826 0.8956206 0.04037614
vn 0.6219214 0.7248635 -0.2962881
vn 0.3186952 0.8862574 -0.336127
vn 0.6379593 0.7467025 -0.1882639
vn 0.5203702 0.8418052 0.1434533
vn 0.2243342 0.9739196 0.03398384
vn 0.9562663 0.2121796 -0.2013321
vn 0.9202709 0.3122658 0.2357785
vn 0.6555954 0.7548874 0.01842961
vn 0.7421002 0.4941759 -0.452855
vn 0.4258034 0.755571 -0.497799
vn 0.6577032 0.2912236 -0.6947051
vn 0.9604807 0.1497845 -0.234609
vn 0.6502903 0.7540511 -0.09235537
vn 0.5128642 0.8388386 -0.1825381
vn 0.5069404 0.6381001 -0.5795169
vn 0.8070989 0.4016258 -0.4327679
vn 0.7960271 0.5909798 -0.1307051
vn 0.7270237 0.6776634 -0.1104936
vn 0.3567589 0.923404 -0.1415916
vn 0.2587728 0.7561169 -0.6011022
vn 0.6425432 0.4105769 -0.646966
vn 0.1768353 0.781001 -0.5989714
vn 0.3187105 0.8862499 -0.3361321
vn 0.03427269 0.9878176 -0.1517953
vn 0.3111227 0.9328028 -0.1818835
vn 0.2830489 0.8740088 -0.3949583
vn 0.1241547 0.9911647 -0.04667169
vn 0.3076451 0.9511486 0.02590324
vn 0.1654621 0.7849651 -0.5970361
vn 0.1731009 0.5977932 -0.7827384
vn 0.3831526 0.5242364 -0.7605066
vn 0.2821513 0.5679615 -0.773182
vn 0.3473428 0.683458 -0.6420577
vn 0.2084385 0.4321479 -0.8773834
vn 0.2532498 0.7015058 -0.6661488
vn 0.4451175 0.729018 -0.5200031
vn 0.1401952 0.6703166 -0.7287118
vn 0.1736084 0.5963905 -0.7836954
vn 0.3988306 0.5269684 -0.7504922
vn 0.2397743 0.5817972 -0.7771875
vn 0.3473389 0.6834596 -0.6420582
vn 0.3661395 0.7751241 0.5149024
vn 0.1121148 0.993044 0.03597242
vn 0.3665742 0.8650685 -0.3424616
vn 0.8663914 0.4977724 -0.03985733
vn 0.2828789 0.8497701 0.4448262
vn 0.00387539 0.3543136 0.9351187
vn -0.3012577 0.7039925 0.6431472
vn -0.1436021 0.9553044 0.2584026
vn -0.005116284 0.4727622 -0.8811752
vn -0.06083146 0.3808038 -0.9226527
vn 0.1563487 0.3880247 -0.9082907
vn -0.2576199 0.3396153 -0.9045957
vn 0.3572813 0.7469366 -0.5607458
vn 0.1209123 0.5879685 -0.7997958
vn 0.05215655 0.1926077 -0.9798887
vn 0.1832155 0.6458299 -0.7411719
vn 0.3943713 0.7021645 -0.5928206
vn -0.07408968 0.482516 -0.872748
vn -0.01922274 0.3176877 -0.9480006
vn 0.1731215 0.5977828 -0.7827418
vn 0.1442451 0.3746574 -0.915874
vn -0.0871555 0.3539329 -0.931201
vn -0.01890021 0.180215 -0.9834456
vn 0.1967987 0.6218774 -0.7579834
vn -0.6331214 0.3147436 -0.7071731
vn -0.09261677 0.4187841 -0.9033504
vn 0.05009555 0.167313 -0.9846303
vn -0.1374801 0.9174525 -0.3733365
vn -0.07408717 0.4824937 -0.8727605
vn -0.06934097 0.9281527 0.3656833
vn -0.8995982 0.307894 0.3097166
vn -0.415863 0.4029742 -0.8152729
vn -0.7202953 0.3091755 0.6209551
vn -0.114825 0.6583893 0.7438675
vn -0.3010901 0.6570772 0.691082
vn -0.6080258 0.5068576 0.6110647
vn -0.1109357 0.8031776 0.5853196
vn -0.42081 0.6626524 0.6195247
vn -0.1483112 0.677357 0.7205494
vn 0.1153102 0.82869 0.5477011
vn -0.08552428 0.6200575 0.779881
vn -0.3532739 0.4338224 0.828852
vn -0.4687136 0.6269392 0.6222979
vn -0.1505508 0.7972392 0.5845888
vn -0.161434 0.8106367 0.5628563
vn 0.01189672 0.7502013 0.6611025
vn -0.05032473 0.9664007 0.2520654
vn -0.2697477 0.8444338 0.4627827
vn -0.05391419 0.3254559 0.944019
vn -0.2913229 0.4123407 0.8631953
vn -0.1541275 0.7587476 0.6328876
vn -0.2269878 0.2282559 0.9467713
vn -0.05700959 0.02861629 0.9979634
vn -0.08489541 0.4291014 0.8992578
vn -0.2601455 0.4771783 0.8394195
vn 0.04992426 0.5753711 0.8163674
vn 0.1628379 0.455271 0.8753355
vn -0.3098924 0.7240613 0.6161996
vn -0.05279956 0.9859661 0.158376
vn 0.4460224 0.8325166 0.3286032
vn 0.04491242 0.2847894 0.9575374
vn 0.1231632 0.1839262 0.9751933
vn 0.07422432 -0.1993116 0.9771211
vn -0.2107268 0.3068155 0.9281479
vn 0.3424259 -0.2122135 0.9152649
vn -0.04519537 -0.1186724 0.9919043
vn -0.1246985 0.06062165 0.990341
vn 0.4996462 -0.04843926 0.8648742
vn 0.7852612 -0.06275906 0.6159758
vn 0.4773585 -0.0108487 0.8786417
vn 0.1451708 0.3302684 0.9326565
vn 0.4606761 0.7577283 0.4621964
vn 0.3778823 0.723649 0.5775267
vn 0.03857299 0.9660038 0.255634
vn 0.3766573 0.9246218 -0.05660354
vn 0.730355 0.6687831 0.1389631
vn 0.7958193 0.5509033 0.2513506
vn 0.992438 -0.02416719 -0.1203442
vn 0.9581913 -0.04556742 0.2824766
vn 0.7443574 -0.06153721 0.66494
vn 0.6068152 0.299267 -0.7363522
vn 0.8660281 0.1389737 -0.4802934
vn 0.9562557 0.2121675 -0.2013952
vn 0.6219884 0.7072063 -0.3361394
vn 0.5497558 0.3446118 -0.7609279
vn 0.6693486 0.4165005 -0.6152234
vn 0.934644 0.2523775 -0.2504917
vn 0.8926393 0.1476448 -0.4259062
vn 0.6967815 0.3030475 -0.6501213
vn 0.7591202 0.3752988 -0.5318716
vn 0.5411646 0.3320828 -0.7725684
vn 0.4593908 0.4937076 -0.7383854
vn 0.143691 0.9465565 -0.2887622
vn 0.1374277 0.7110813 -0.6895484
vn 0.3430696 0.5530989 -0.7592001
vn 0.283227 0.9235516 -0.2585246
vn 0.1405102 0.5226776 -0.8408716
vn 0.3810733 0.563399 -0.7330517
vn 0.1869566 0.6439095 -0.7419083
vn 0.4007581 0.6900266 -0.6027074
vn 0.5937828 0.8041813 0.0267255
vn 0.5666432 0.734305 0.3737803
vn 0.2072921 0.9114192 0.3554505
vn 0.2923193 0.9547957 -0.05398707
vn 0.5250542 0.6521499 0.5468259
vn 0.08858666 0.7391164 0.6677271
vn 0.03606942 0.9336502 0.3563654
vn 0.3799822 0.9126541 0.1505857
vn 0.292145 0.9227793 0.2512562
vn -0.1419951 0.9302781 0.3382605
vn -0.03106506 0.9993153 -0.02009601
vn 0.2095641 0.976607 -0.04818227
vn 0.207563 0.9653132 -0.1583923
vn 0.4429987 0.8956127 0.04037436
vn 0.2094008 0.9453375 0.2499767
vn -0.05000496 0.9975113 0.04970644
vn 0.3707027 0.7736828 -0.513804
vn 0.2397535 0.5817813 -0.7772058
vn 0.4711154 0.6724135 -0.5708858
vn 0.109344 0.9370244 -0.3317066
vn 0.1241659 0.9911648 -0.04663836
vn 0.2072783 0.9114181 0.3554614
vn -0.2202573 0.9050777 0.3637597
vn -0.05029471 0.9664075 0.2520457
vn 0.103639 0.8193908 0.5637886
vn 0.1187566 0.9859477 0.1174906
vn -0.05206287 0.9658852 0.2536835
vn -0.2951148 0.8334552 0.4671827
vn 0.04991636 0.5753807 0.8163611
vn -0.3098637 0.7240471 0.6162307
vn -0.1419749 0.9302702 0.3382907
vn 0.1083222 0.8475344 0.5195689
vn 0.380042 0.9239932 0.04248048
vn 0.5134587 0.806063 0.2943172
vn 0.3182583 0.7971666 0.5130665
vn 0.1240294 0.9598902 0.2514507
vn 0.2093931 0.9453402 0.249973
vn 0.5146435 0.856613 -0.03682903
vn 0.6376675 0.6913208 0.3397877
vn 0.3661617 0.7751268 0.5148826
vn 0.2923054 0.9547991 -0.0540022
vn 0.5937026 0.7921741 0.1413418
vn 0.350718 0.8285345 0.4364944
vn 0.1239927 0.9598933 0.2514572
vn 0.4429229 0.8844585 0.1468072
vn 0.2923073 0.9548006 -0.05396577
vn 0.4610603 0.8371068 -0.2944072
vn 0.6502908 0.7540531 -0.09233567
vn 0.3510624 0.9010463 -0.2546973
vn 0.727017 0.6776661 -0.110521
vn 0.5634159 0.7859245 0.2547258
vn 0.2243399 0.973919 0.0339627
vn 0.2440967 0.6988251 -0.6723542
vn 0.1905316 0.8849174 -0.4249928
vn -0.05033254 0.966397 0.2520782
vn 0.3473364 0.6834314 -0.6420895
vn 0.400726 0.6900353 -0.6027188
vn 0.07617488 0.9958482 -0.04983769
vn -0.1008805 0.8329735 0.5440388
vn -0.4330167 0.5101234 0.7431491
vn -0.1008928 0.8329751 0.5440342
vn -0.2276986 0.6691168 0.7074151
vn -0.08618504 0.4104981 0.9077794
vn -0.3393438 0.4630318 0.8188086
vn -0.3392928 0.4630673 0.8188096
vn -0.1790221 0.7213937 0.668986
vn -0.06998475 0.8685979 0.4905503
vn -0.1775345 0.5127074 0.8400075
vn -0.3554829 0.7417821 0.5686749
vn -0.08554565 0.6200751 0.7798647
vn -0.1702381 0.7550084 0.6332309
vn -0.06998688 0.8685835 0.4905757
vn 0.5937725 0.8041884 0.02674395
vn 0.1286685 0.8289133 -0.5443778
vn 0.5288905 0.5071339 -0.6805072
vn 0.866055 0.1389923 -0.4802395
vn 0.7421118 0.2949109 -0.6019117
vn 0.2183693 0.6194406 -0.7540611
vn 0.3483627 0.6205949 -0.7024994
vn 0.673562 0.4077561 -0.6164812
vn 0.2821544 0.5679547 -0.7731858
vn 0.3572568 0.7469299 -0.5607703
vn -0.08717645 0.3538929 -0.9312143
vn 0.3479068 0.4501861 -0.8223706
vn 0.2447724 0.7363397 -0.6307855
vn 0.4451308 0.7290137 -0.5199976
vn 0.3690526 0.9226882 -0.1115649
vn 0.08654922 0.9610034 -0.2626439
vn -0.1741926 0.3056874 -0.936062
vn 0.1138907 0.392768 -0.9125581
vn 0.3402125 0.6467497 -0.6826201
vn -0.03567459 0.7772678 -0.6281578
vn -0.7017337 0.4184175 -0.5766251
vn -0.392893 0.3136184 -0.8644528
vn -0.1991663 0.8301057 -0.5208237
vn -0.4088773 0.8804111 -0.2401992
vn -0.3799615 0.9060426 -0.1863223
vn -0.2403797 0.9702276 -0.02959889
vn -0.2095118 0.7986911 0.5640898
vn -0.5772341 0.8028005 0.1493725
vn -0.4574189 0.7770752 -0.4323449
vn -0.2261477 0.9206747 -0.3181435
vn -0.2030476 0.9693569 0.1382711
vn -0.5170373 0.8559613 -0.001669198
vn -0.3026319 0.8966948 -0.3230363
vn 0.08650863 0.961001 -0.262666
vn 0.1310942 0.9675245 0.2161264
vn -0.3040127 0.95072 -0.06089129
vn 0.0306214 0.9063231 0.4214746
vn -0.01208262 0.9972771 -0.0727496
vn 0.3690163 0.9227031 -0.1115617
vn 0.1187398 0.9859537 0.1174571
vn 0.3763748 0.8928041 -0.2474729
vn 0.07515847 0.9576316 0.2780162
vn -0.06937613 0.9281508 0.3656817
vn -0.1900359 0.9556889 -0.2248224
vn -0.2261377 0.9206804 -0.3181342
vn 0.2037602 0.9144424 -0.3496811
vn 0.1199041 0.990152 0.07226328
vn -0.242699 0.9602938 -0.1375971
vn -0.1693951 0.9536918 0.2485505
vn 0.3111221 0.9328062 -0.1818672
vn 0.2807637 0.6997426 -0.656911
vn 0.5411446 0.3320887 -0.7725799
vn 0.3763469 0.8928121 -0.2474867
vn -0.04139628 0.8289953 0.5577215
vn -0.3751858 0.5800097 0.723066
vn -0.3480063 0.9101335 -0.2248303
vn -0.7107766 0.4293081 0.5572174
vn -0.1810992 0.6535192 0.7349257
vn -0.3070475 0.6096931 0.7307504
vn -0.6360617 0.3120433 0.7057298
vn -0.8313081 0.3398519 0.4398039
vn -0.6614819 0.7482798 -0.05018906
vn -0.6331038 0.3147613 -0.7071809
vn -0.4240024 0.9029855 -0.0695649
vn -0.6760042 0.4769261 0.5617471
vn -0.581777 0.7824865 0.2219244
vn -0.5814946 0.7778634 -0.2383118
vn -0.7885002 0.3742872 -0.4880332
vn 0.09707904 0.2740054 -0.9568159
vn -0.2987851 0.2880863 -0.9097987
vn -0.4158718 0.4029621 -0.8152743
vn -0.03380655 0.3524744 -0.9352106
vn -0.09266156 0.4187813 -0.9033471
vn -0.1427652 0.2104044 -0.967134
vn -0.6264101 0.356003 -0.6934496
vn -0.4757027 0.6352783 -0.6083817
vn -0.6331649 0.3147401 -0.7071357
vn -0.5357939 0.7167929 -0.4462429
vn -0.06601331 0.541209 -0.838293
vn -0.1157406 0.2010229 -0.972725
vn -0.4795645 0.8506688 -0.2153615
vn -0.4756804 0.6352548 -0.6084237
vn -0.6331265 0.3147359 -0.707172
vn -0.9066718 0.4145408 0.07811706
vn -0.6361113 0.752077 0.1724605
vn -0.455417 0.8129401 -0.3629376
vn -0.5423349 0.568234 -0.6188563
vn -0.8033559 0.5486081 0.2316215
vn -0.6236563 0.6021316 0.4984881
vn -0.8060082 0.2686442 0.5274287
vn -0.1790256 0.7213997 0.6689786
vn -0.4956768 0.4783345 0.7249142
vn -0.7637233 0.2513688 0.5945927
vn -0.7884713 0.374322 -0.4880534
vn -0.091253 0.6808677 0.7266995
vn -0.3752312 0.5800244 0.7230306
vn -0.2853822 0.6881939 0.667043
vn -0.5598071 0.4756375 0.6785168
vn -0.1810974 0.6534981 0.7349449
vn -0.1008588 0.8329719 0.5440452
vn -0.6232299 0.4900411 0.6094622
vn -0.09130076 0.6808577 0.7267028
vn -0.04143447 0.8289924 0.557723
vn -0.2339912 0.6782213 0.696609
vn -0.1614453 0.8106224 0.5628735
vn -0.4208157 0.6626694 0.6195026
vn -0.36029 0.5499889 0.7534609
vn 0.0901688 0.9172315 0.3880155
vn -0.1448568 0.8345079 0.5316136
vn -0.156821 0.4483865 0.8799754
vn -0.3577381 0.3844632 0.8510061
vn -0.4208079 0.6626714 0.6195057
vn -0.03893143 0.6990961 0.713967
vn -0.7441887 0.4072811 0.5294386
vn -0.351331 0.3976019 -0.8476316
vn 0.369028 0.8866681 -0.278636
vn -0.06386164 0.9101179 0.4093986
vn -0.2068345 0.6331373 0.7458931
vn -0.402614 0.2339607 -0.8849658
vn 0.347394 0.683436 -0.6420534
vn -0.01645067 0.9981274 -0.05891662
vn 0.6219434 0.7248556 -0.2962614
vn 0.0545825 -0.05348404 0.9970758
vn -0.1008771 0.832945 0.5440832
vn 0.2808299 0.9508567 0.1304079
vn 0.3572531 0.7469453 -0.5607522
vn 0.1286496 0.8289264 -0.5443623
vn -0.05032614 0.9664108 0.2520266
vn -0.118372 0.9800853 0.1594396
vn 0.04304548 0.9868665 0.1556969
vn 0.0430615 0.9868707 0.1556663
vn -0.1183415 0.9801026 0.1593555
vn 0.3992534 -0.0274128 0.9164308
vn 0.04307288 0.9868766 0.1556254
vn 0.3671802 0.003676749 0.9301426
vn -0.1183449 0.9800951 0.1593987
vn 0.0430615 0.9868707 0.1556663
vn 0.3992664 -0.02742091 0.9164249
vn -0.118372 0.9800853 0.1594396
vn 0.3992534 -0.0274128 0.9164308
vn -0.127146 0.1845976 0.9745551
vn -0.09722469 0.8046454 0.5857415
vn -0.07785013 0.7464703 0.660849
vn -0.1271386 0.1846112 0.9745535
vn 0.1505455 0.09132315 0.984376
vn -0.07782458 0.7464634 0.6608599
vn 0.1505485 0.09137166 0.9843711
vn -0.1271258 0.1845415 0.9745684
vn -0.07785013 0.7464703 0.660849
vn 0.1505781 0.09131629 0.9843716
vn -0.127146 0.1845976 0.9745551
vn 0.1505455 0.09132315 0.984376
vn 0.459314 0.4937041 -0.7384354
vn 0.3222196 0.6143726 -0.7202228
vn 0.3222489 0.614332 -0.7202442
vn 0.4593842 0.4936665 -0.738417
vn 0.7044072 0.2848985 -0.6501103
vn 0.3222378 0.6143557 -0.7202291
vn 0.7044268 0.2848844 -0.6500952
vn 0.5530908 0.5013568 -0.665381
vn 0.3222489 0.614332 -0.7202442
vn 0.7044554 0.2848238 -0.6500908
vn 0.459314 0.4937041 -0.7384354
vn 0.7044072 0.2848985 -0.6501103
vn 0.9756852 -0.0656141 -0.209125
vn 0.8750132 0.452574 -0.1718389
vn 0.8750064 0.45258 -0.1718578
vn 0.9756888 -0.06560284 -0.2091119
vn 0.9554071 0.1008487 0.2775372
vn 0.8750263 0.4525292 -0.1718902
vn 0.9554043 0.1008128 0.2775598
vn 0.9756884 -0.06564119 -0.2091015
vn 0.8750064 0.45258 -0.1718578
vn 0.9553921 0.1008292 0.2775957
vn 0.9756852 -0.0656141 -0.209125
vn 0.9554071 0.1008487 0.2775372
vn 0.72495 -0.3244852 0.6075829
vn 0.5134142 0.8060938 0.2943105
vn 0.5134274 0.8060817 0.2943207
vn 0.6990791 -0.3837073 0.6033714
vn 0.4720806 -0.1014322 0.8757005
vn 0.5134225 0.806079 0.2943366
vn 0.4721033 -0.101389 0.8756933
vn 0.7249722 -0.3244743 0.6075622
vn 0.5134274 0.8060817 0.2943207
vn 0.4720954 -0.1014179 0.8756943
vn 0.72495 -0.3244852 0.6075829
vn 0.4720806 -0.1014322 0.8757005
vn -0.1529433 0.6882584 0.7091606
vn -0.2053237 0.7408993 0.6394611
vn -0.2053402 0.7408856 0.6394717
vn -0.2053562 0.740891 0.6394602
vn -0.3989829 0.1667768 0.9016641
vn -0.1300161 0.7895183 0.5997972
vn -0.4002673 0.1675531 0.9009507
vn -0.1530335 0.6882214 0.709177
vn -0.2053402 0.7408856 0.6394717
vn -0.3989825 0.1667874 0.9016623
vn -0.1529433 0.6882584 0.7091606
vn -0.3989829 0.1667768 0.9016641
vn -0.1147918 0.658474 0.7437976
vn -0.3200984 0.9341913 -0.1575551
vn -0.3682111 0.9154124 -0.162606
vn -0.1147569 0.6584245 0.7438468
vn -0.01923466 0.3177337 -0.9479849
vn -0.3200275 0.9342171 -0.1575465
vn -0.01920203 0.3177187 -0.9479905
vn -0.11481 0.6584108 0.7438507
vn -0.3682111 0.9154124 -0.162606
vn -0.01924335 0.3176839 -0.9480014
vn -0.1147918 0.658474 0.7437976
vn -0.01923466 0.3177337 -0.9479849
vn 0.3765865 0.9246507 -0.05660136
vn 0.291507 0.9553533 0.04820496
vn 0.2914823 0.9553574 0.04827336
vn 0.3766592 0.9246185 -0.05664291
vn 0.9554052 0.1007848 0.2775667
vn 0.2914689 0.9553638 0.04822712
vn 0.9603971 0.1779291 -0.2144265
vn 0.3766968 0.9246085 -0.05655691
vn 0.2914823 0.9553574 0.04827336
vn 0.960377 0.1780025 -0.2144554
vn 0.3765865 0.9246507 -0.05660136
vn 0.9554052 0.1007848 0.2775667
vn -0.5581435 0.5564486 -0.6155005
vn -0.7182187 0.6361634 -0.281883
vn -0.7182035 0.6362001 -0.2818386
vn -0.5581388 0.5563914 -0.6155564
vn -0.2707015 0.5994468 -0.7532492
vn -0.718213 0.6361683 -0.2818867
vn -0.1893909 0.5264121 -0.8288674
vn -0.55812 0.5564346 -0.6155345
vn -0.7182035 0.6362001 -0.2818386
vn -0.2706915 0.5993918 -0.7532965
vn -0.5581435 0.5564486 -0.6155005
vn -0.2707015 0.5994468 -0.7532492
vn 0.02680087 0.3004746 -0.9534132
vn 0.04552203 0.5885037 -0.807212
vn 0.04548717 0.588507 -0.8072115
vn 0.02683793 0.3004762 -0.9534117
vn 0.1432074 0.1509588 -0.978112
vn 0.04552924 0.5884966 -0.8072167
vn 0.1432009 0.150944 -0.9781153
vn 0.09715784 0.2739838 -0.9568141
vn 0.04548717 0.588507 -0.8072115
vn -0.06770689 0.2609577 -0.9629729
vn 0.02680087 0.3004746 -0.9534132
vn 0.1432074 0.1509588 -0.978112
vt 0.2868399 0.9116632
vt 0.2850333 0.9217287
vt 0.2868399 0.9217287
vt 0.2850333 0.9116632
vt 0.2868399 0.9015976
vt 0.2832266 0.9217287
vt 0.2850333 0.9015976
vt 0.2832266 0.9116632
vt 0.28142 0.9217287
vt 0.2832266 0.9015976
vt 0.28142 0.9116632
vt 0.28142 0.9015976
vt 0.3181963 0.932238
vt 0.2485127 0.932238
vt 0.2485127 0.8630997
vt 0.3181963 0.8630997
vt 0.3181963 0.932238
vt 0.2485127 0.932238
vt 0.2485127 0.8630997
vt 0.3181963 0.8630997
vt 0.3939658 0.932238
vt 0.3242822 0.932238
vt 0.3242822 0.8630997
vt 0.3939658 0.8630997
vt 0.3181963 0.932238
vt 0.2485127 0.932238
vt 0.2485127 0.8630997
vt 0.3181963 0.8630997
vt 0.3939658 0.932238
vt 0.3242822 0.932238
vt 0.3242822 0.8630997
vt 0.3939658 0.8630997
vt 0.3181963 0.932238
vt 0.2485127 0.932238
vt 0.2485127 0.8630997
vt 0.3181963 0.8630997
vt 0.3939658 0.932238
vt 0.3242822 0.932238
vt 0.3242822 0.8630997
vt 0.3939658 0.8630997
vt 0.3181963 0.932238
vt 0.2485127 0.932238
vt 0.2485127 0.8630997
vt 0.3181963 0.8630997
vt 0.3939658 0.932238
vt 0.3242822 0.932238
vt 0.3242822 0.8630997
vt 0.3939658 0.8630997
vt 0.3181963 0.932238
vt 0.2485127 0.932238
vt 0.2485127 0.8630997
vt 0.3181963 0.8630997
vt 0.3939658 0.932238
vt 0.3242822 0.932238
vt 0.3242822 0.8630997
vt 0.3939658 0.8630997
vt 0.3181963 0.932238
vt 0.2485127 0.932238
vt 0.2485127 0.8630997
vt 0.3181963 0.8630997
vt 0.3939658 0.932238
vt 0.3242822 0.932238
vt 0.3242822 0.8630997
vt 0.3939658 0.8630997
vt 0.3181963 0.932238
vt 0.2485127 0.932238
vt 0.2485127 0.8630997
vt 0.3181963 0.8630997
vt 0.3939658 0.932238
vt 0.3242822 0.932238
vt 0.3242822 0.8630997
vt 0.3939658 0.8630997
vt 0.3181963 0.932238
vt 0.2485127 0.932238
vt 0.2485127 0.8630997
vt 0.3181963 0.8630997
vt 0.3939658 0.932238
vt 0.3242822 0.932238
vt 0.3242822 0.8630997
vt 0.3939658 0.8630997
vt 0.3181963 0.932238
vt 0.2485127 0.932238
vt 0.2485127 0.8630997
vt 0.3181963 0.8630997
vt 0.3939658 0.932238
vt 0.3242822 0.932238
vt 0.3242822 0.8630997
vt 0.3939658 0.8630997
vt 0.3181963 0.932238
vt 0.2485127 0.932238
vt 0.2485127 0.8630997
vt 0.3181963 0.8630997
vt 0.3939658 0.932238
vt 0.3242822 0.932238
vt 0.3242822 0.8630997
vt 0.3939658 0.8630997
vt 0.3181963 0.932238
vt 0.2485127 0.932238
vt 0.2485127 0.8630997
vt 0.3181963 0.8630997
vt 0.3939658 0.932238
vt 0.3242822 0.932238
vt 0.3242822 0.8630997
vt 0.3939658 0.8630997
vt 0.3181963 0.932238
vt 0.2485127 0.932238
vt 0.2485127 0.8630997
vt 0.3181963 0.8630997
vt 0.3939658 0.932238
vt 0.3242822 0.932238
vt 0.3242822 0.8630997
vt 0.3939658 0.8630997
vt 0.3181963 0.932238
vt 0.2485127 0.932238
vt 0.2485127 0.8630997
vt 0.3181963 0.8630997
vt 0.3939658 0.932238
vt 0.3242822 0.932238
vt 0.3242822 0.8630997
vt 0.3939658 0.8630997
vt 0.3181963 0.932238
vt 0.2485127 0.932238
vt 0.2485127 0.8630997
vt 0.3181963 0.8630997
vt 0.3939658 0.932238
vt 0.3242822 0.932238
vt 0.3242822 0.8630997
vt 0.3939658 0.8630997
vt 0.3181963 0.932238
vt 0.2485127 0.932238
vt 0.2485127 0.8630997
vt 0.3181963 0.8630997
vt 0.3939658 0.932238
vt 0.3242822 0.932238
vt 0.3242822 0.8630997
vt 0.3939658 0.8630997
vt 0.3181963 0.932238
vt 0.2485127 0.932238
vt 0.2485127 0.8630997
vt 0.3181963 0.8630997
vt 0.3939658 0.932238
vt 0.3242822 0.932238
vt 0.3242822 0.8630997
vt 0.3939658 0.8630997
vt 0.3181963 0.932238
vt 0.2485127 0.932238
vt 0.2485127 0.8630997
vt 0.3181963 0.8630997
vt 0.3939658 0.932238
vt 0.3242822 0.932238
vt 0.3242822 0.8630997
vt 0.3939658 0.8630997
vt 0.3181963 0.932238
vt 0.2485127 0.932238
vt 0.2485127 0.8630997
vt 0.3181963 0.8630997
vt 0.3939658 0.932238
vt 0.3242822 0.932238
vt 0.3242822 0.8630997
vt 0.3939658 0.8630997
vt 0.3181963 0.932238
vt 0.2485127 0.932238
vt 0.2485127 0.8630997
vt 0.3181963 0.8630997
vt 0.3939658 0.932238
vt 0.3242822 0.932238
vt 0.3242822 0.8630997
vt 0.3939658 0.8630997
vt 0.3181963 0.932238
vt 0.2485127 0.932238
vt 0.2485127 0.8630997
vt 0.3181963 0.8630997
vt 0.3181963 0.932238
vt 0.2485127 0.932238
vt 0.2485127 0.8630997
vt 0.3181963 0.8630997
vt 0.3939658 0.932238
vt 0.3242822 0.932238
vt 0.3242822 0.8630997
vt 0.3939658 0.8630997
vt 0.3181963 0.932238
vt 0.2485127 0.932238
vt 0.2485127 0.8630997
vt 0.3181963 0.8630997
vt 0.3939658 0.932238
vt 0.3242822 0.932238
vt 0.3242822 0.8630997
vt 0.3939658 0.8630997
vt 0.3181963 0.932238
vt 0.2485127 0.932238
vt 0.2485127 0.8630997
vt 0.3181963 0.8630997
vt 0.3939658 0.932238
vt 0.3242822 0.932238
vt 0.3242822 0.8630997
vt 0.3939658 0.8630997
vt 0.3181963 0.932238
vt 0.2485127 0.932238
vt 0.2485127 0.8630997
vt 0.3181963 0.8630997
vt 0.3939658 0.932238
vt 0.3242822 0.932238
vt 0.3242822 0.8630997
vt 0.3939658 0.8630997
vt 0.3181963 0.932238
vt 0.2485127 0.932238
vt 0.2485127 0.8630997
vt 0.3181963 0.8630997
vt 0.3939658 0.932238
vt 0.3242822 0.932238
vt 0.3242822 0.8630997
vt 0.3939658 0.8630997
vt 0.3181963 0.932238
vt 0.2485127 0.932238
vt 0.2485127 0.8630997
vt 0.3181963 0.8630997
vt 0.3939658 0.932238
vt 0.3242822 0.932238
vt 0.3242822 0.8630997
vt 0.3939658 0.8630997
vt 0.3181963 0.932238
vt 0.2485127 0.932238
vt 0.2485127 0.8630997
vt 0.3181963 0.8630997
vt 0.3939658 0.932238
vt 0.3242822 0.932238
vt 0.3242822 0.8630997
vt 0.3939658 0.8630997
vt 0.3181963 0.932238
vt 0.2485127 0.932238
vt 0.2485127 0.8630997
vt 0.3181963 0.8630997
vt 0.3939658 0.932238
vt 0.3242822 0.932238
vt 0.3242822 0.8630997
vt 0.3939658 0.8630997
vt 0.3181963 0.932238
vt 0.2485127 0.932238
vt 0.2485127 0.8630997
vt 0.3181963 0.8630997
vt 0.3939658 0.932238
vt 0.3242822 0.932238
vt 0.3242822 0.8630997
vt 0.3939658 0.8630997
vt 0.3181963 0.932238
vt 0.2485127 0.8630997
vt 0.2485127 0.932238
vt 0.3181963 0.8630997
vt 0.3939658 0.932238
vt 0.3242822 0.932238
vt 0.3242822 0.8630997
vt 0.3939658 0.8630997
vt 0.3181963 0.932238
vt 0.2485127 0.932238
vt 0.2485127 0.8630997
vt 0.3181963 0.8630997
vt 0.3939658 0.932238
vt 0.3242822 0.932238
vt 0.3242822 0.8630997
vt 0.3939658 0.8630997
vt 0.3181963 0.932238
vt 0.2485127 0.932238
vt 0.2485127 0.8630997
vt 0.3181963 0.8630997
vt 0.3939658 0.932238
vt 0.3242822 0.932238
vt 0.3242822 0.8630997
vt 0.3939658 0.8630997
vt 0.3181963 0.932238
vt 0.2485127 0.932238
vt 0.2485127 0.8630997
vt 0.3181963 0.8630997
vt 0.3939658 0.932238
vt 0.3242822 0.932238
vt 0.3242822 0.8630997
vt 0.3939658 0.8630997
vt 0.3181963 0.932238
vt 0.2485127 0.932238
vt 0.2485127 0.8630997
vt 0.3181963 0.8630997
vt 0.3939658 0.932238
vt 0.3242822 0.932238
vt 0.3242822 0.8630997
vt 0.3939658 0.8630997
vt 0.3181963 0.932238
vt 0.2485127 0.932238
vt 0.2485127 0.8630997
vt 0.3181963 0.8630997
vt 0.3939658 0.932238
vt 0.3242822 0.932238
vt 0.3242822 0.8630997
vt 0.3939658 0.8630997
vt 0.3181963 0.932238
vt 0.2485127 0.932238
vt 0.2485127 0.8630997
vt 0.3181963 0.8630997
vt 0.3939658 0.932238
vt 0.3242822 0.932238
vt 0.3242822 0.8630997
vt 0.3939658 0.8630997
vt 0.3181963 0.932238
vt 0.2485127 0.932238
vt 0.2485127 0.8630997
vt 0.3181963 0.8630997
vt 0.3939658 0.932238
vt 0.3242822 0.932238
vt 0.3242822 0.8630997
vt 0.3939658 0.8630997
vt 0.3181963 0.932238
vt 0.2485127 0.932238
vt 0.2485127 0.8630997
vt 0.3181963 0.8630997
vt 0.3939658 0.932238
vt 0.3242822 0.932238
vt 0.3242822 0.8630997
vt 0.3939658 0.8630997
vt 0.3181963 0.932238
vt 0.2485127 0.932238
vt 0.2485127 0.8630997
vt 0.3181963 0.8630997
vt 0.3939658 0.932238
vt 0.3242822 0.932238
vt 0.3242822 0.8630997
vt 0.3939658 0.8630997
vt 0.3181963 0.932238
vt 0.2485127 0.932238
vt 0.2485127 0.8630997
vt 0.3181963 0.8630997
vt 0.3939658 0.932238
vt 0.3242822 0.932238
vt 0.3242822 0.8630997
vt 0.3939658 0.8630997
vt 0.3181963 0.932238
vt 0.2485127 0.932238
vt 0.2485127 0.8630997
vt 0.3181963 0.8630997
vt 0.3939658 0.932238
vt 0.3242822 0.932238
vt 0.3242822 0.8630997
vt 0.3939658 0.8630997
vt 0.3181963 0.932238
vt 0.2485127 0.932238
vt 0.2485127 0.8630997
vt 0.3181963 0.8630997
vt 0.3939658 0.932238
vt 0.3242822 0.932238
vt 0.3242822 0.8630997
vt 0.3939658 0.8630997
vt 0.3181963 0.932238
vt 0.2485127 0.932238
vt 0.2485127 0.8630997
vt 0.3181963 0.8630997
vt 0.3939658 0.932238
vt 0.3242822 0.932238
vt 0.3242822 0.8630997
vt 0.3939658 0.8630997
vt 0.3181963 0.932238
vt 0.2485127 0.932238
vt 0.2485127 0.8630997
vt 0.3181963 0.8630997
vt 0.3939658 0.932238
vt 0.3242822 0.932238
vt 0.3242822 0.8630997
vt 0.3939658 0.8630997
vt 0.3181963 0.932238
vt 0.2485127 0.932238
vt 0.2485127 0.8630997
vt 0.3181963 0.8630997
vt 0.3939658 0.932238
vt 0.3242822 0.932238
vt 0.3242822 0.8630997
vt 0.3939658 0.8630997
vt 0.3181963 0.932238
vt 0.2485127 0.932238
vt 0.2485127 0.8630997
vt 0.3181963 0.8630997
vt 0.3939658 0.932238
vt 0.3242822 0.932238
vt 0.3242822 0.8630997
vt 0.3939658 0.8630997
vt 0.3181963 0.932238
vt 0.2485127 0.932238
vt 0.2485127 0.8630997
vt 0.3181963 0.8630997
vt 0.3939658 0.932238
vt 0.3242822 0.932238
vt 0.3242822 0.8630997
vt 0.3939658 0.8630997
vt 0.3181963 0.932238
vt 0.2485127 0.932238
vt 0.2485127 0.8630997
vt 0.3181963 0.8630997
vt 0.3939658 0.932238
vt 0.3242822 0.932238
vt 0.3242822 0.8630997
vt 0.3939658 0.8630997
vt 0.3181963 0.932238
vt 0.2485127 0.932238
vt 0.2485127 0.8630997
vt 0.3181963 0.8630997
vt 0.3939658 0.932238
vt 0.3242822 0.932238
vt 0.3242822 0.8630997
vt 0.3939658 0.8630997
vt 0.3181963 0.932238
vt 0.2485127 0.932238
vt 0.2485127 0.8630997
vt 0.3181963 0.8630997
vt 0.3939658 0.932238
vt 0.3242822 0.932238
vt 0.3242822 0.8630997
vt 0.3939658 0.8630997
vt 0.3181963 0.932238
vt 0.2485127 0.932238
vt 0.2485127 0.8630997
vt 0.3181963 0.8630997
vt 0.3939658 0.932238
vt 0.3242822 0.932238
vt 0.3242822 0.8630997
vt 0.3939658 0.8630997
vt 0.3181963 0.932238
vt 0.2485127 0.932238
vt 0.2485127 0.8630997
vt 0.3181963 0.8630997
vt 0.3939658 0.932238
vt 0.3242822 0.932238
vt 0.3242822 0.8630997
vt 0.3939658 0.8630997
vt 0.3181963 0.932238
vt 0.2485127 0.932238
vt 0.2485127 0.8630997
vt 0.3181963 0.8630997
vt 0.3939658 0.932238
vt 0.3242822 0.932238
vt 0.3242822 0.8630997
vt 0.3939658 0.8630997
vt 0.3181963 0.932238
vt 0.2485127 0.932238
vt 0.2485127 0.8630997
vt 0.3181963 0.8630997
vt 0.3939658 0.932238
vt 0.3242822 0.932238
vt 0.3242822 0.8630997
vt 0.3939658 0.8630997
vt 0.3181963 0.932238
vt 0.2485127 0.932238
vt 0.2485127 0.8630997
vt 0.3181963 0.8630997
vt 0.3939658 0.932238
vt 0.3242822 0.932238
vt 0.3242822 0.8630997
vt 0.3939658 0.8630997
vt 0.3181963 0.932238
vt 0.2485127 0.932238
vt 0.2485127 0.8630997
vt 0.3181963 0.8630997
vt 0.3939658 0.932238
vt 0.3242822 0.932238
vt 0.3242822 0.8630997
vt 0.3939658 0.8630997
vt 0.3181963 0.932238
vt 0.2485127 0.932238
vt 0.2485127 0.8630997
vt 0.3181963 0.8630997
vt 0.3939658 0.932238
vt 0.3242822 0.932238
vt 0.3242822 0.8630997
vt 0.3939658 0.8630997
vt 0.3181963 0.932238
vt 0.2485127 0.932238
vt 0.2485127 0.8630997
vt 0.3181963 0.8630997
vt 0.3939658 0.932238
vt 0.3242822 0.932238
vt 0.3242822 0.8630997
vt 0.3939658 0.8630997
vt 0.3181963 0.932238
vt 0.2485127 0.932238
vt 0.2485127 0.8630997
vt 0.3181963 0.8630997
vt 0.3939658 0.932238
vt 0.3242822 0.932238
vt 0.3242822 0.8630997
vt 0.3939658 0.8630997
vt 0.2868399 0.9116632
vt 0.2850333 0.9217287
vt 0.2868399 0.9217287
vt 0.2850333 0.9116632
vt 0.2868399 0.9015976
vt 0.2832266 0.9217287
vt 0.2850333 0.9015976
vt 0.2832266 0.9116632
vt 0.28142 0.9217287
vt 0.2832266 0.9015976
vt 0.28142 0.9116632
vt 0.28142 0.9015976
vt 0.2868399 0.9116632
vt 0.2850333 0.9217287
vt 0.2868399 0.9217287
vt 0.2850333 0.9116632
vt 0.2868399 0.9015976
vt 0.2832266 0.9217287
vt 0.2850333 0.9015976
vt 0.2832266 0.9116632
vt 0.28142 0.9217287
vt 0.2832266 0.9015976
vt 0.28142 0.9116632
vt 0.28142 0.9015976
vt 0.2868399 0.9116632
vt 0.2850333 0.9217287
vt 0.2868399 0.9217287
vt 0.2850333 0.9116632
vt 0.2868399 0.9015976
vt 0.2832266 0.9217287
vt 0.2850333 0.9015976
vt 0.2832266 0.9116632
vt 0.28142 0.9217287
vt 0.2832266 0.9015976
vt 0.28142 0.9116632
vt 0.28142 0.9015976
vt 0.2868399 0.9116632
vt 0.2850333 0.9217287
vt 0.2868399 0.9217287
vt 0.2850333 0.9116632
vt 0.2868399 0.9015976
vt 0.2832266 0.9217287
vt 0.2850333 0.9015976
vt 0.2832266 0.9116632
vt 0.28142 0.9217287
vt 0.2832266 0.9015976
vt 0.28142 0.9116632
vt 0.28142 0.9015976
vt 0.2868399 0.9116632
vt 0.2850333 0.9217287
vt 0.2868399 0.9217287
vt 0.2850333 0.9116632
vt 0.2868399 0.9015976
vt 0.2832266 0.9217287
vt 0.2850333 0.9015976
vt 0.2832266 0.9116632
vt 0.28142 0.9217287
vt 0.2832266 0.9015976
vt 0.28142 0.9116632
vt 0.28142 0.9015976
vt 0.2868399 0.9116632
vt 0.2850333 0.9217287
vt 0.2868399 0.9217287
vt 0.2850333 0.9116632
vt 0.2868399 0.9015976
vt 0.2832266 0.9217287
vt 0.2850333 0.9015976
vt 0.2832266 0.9116632
vt 0.28142 0.9217287
vt 0.2832266 0.9015976
vt 0.28142 0.9116632
vt 0.28142 0.9015976
vt 0.2868399 0.9116632
vt 0.2850333 0.9217287
vt 0.2868399 0.9217287
vt 0.2850333 0.9116632
vt 0.2868399 0.9015976
vt 0.2832266 0.9217287
vt 0.2850333 0.9015976
vt 0.2832266 0.9116632
vt 0.28142 0.9217287
vt 0.2832266 0.9015976
vt 0.28142 0.9116632
vt 0.28142 0.9015976
vt 0.2868399 0.9116632
vt 0.2850333 0.9217287
vt 0.2868399 0.9217287
vt 0.2850333 0.9116632
vt 0.2868399 0.9015976
vt 0.2832266 0.9217287
vt 0.2850333 0.9015976
vt 0.2832266 0.9116632
vt 0.28142 0.9217287
vt 0.2832266 0.9015976
vt 0.28142 0.9116632
vt 0.28142 0.9015976
vt 0.2868399 0.9116632
vt 0.2850333 0.9217287
vt 0.2868399 0.9217287
vt 0.2850333 0.9116632
vt 0.2868399 0.9015976
vt 0.2832266 0.9217287
vt 0.2850333 0.9015976
vt 0.2832266 0.9116632
vt 0.28142 0.9217287
vt 0.2832266 0.9015976
vt 0.28142 0.9116632
vt 0.28142 0.9015976
vt 0.2868399 0.9116632
vt 0.2850333 0.9217287
vt 0.2868399 0.9217287
vt 0.2850333 0.9116632
vt 0.2868399 0.9015976
vt 0.2832266 0.9217287
vt 0.2850333 0.9015976
vt 0.2832266 0.9116632
vt 0.28142 0.9217287
vt 0.2832266 0.9015976
vt 0.28142 0.9116632
vt 0.28142 0.9015976
usemtl MV_BushChina
f 1/1/1 3/3/3 2/2/2
f 1/1/1 2/2/2 4/4/4
f 5/5/5 1/1/1 4/4/4
f 4/4/4 2/2/2 6/6/6
f 5/5/5 4/4/4 7/7/7
f 4/4/4 6/6/6 8/8/8
f 7/7/7 4/4/4 8/8/8
f 8/8/8 6/6/6 9/9/9
f 7/7/7 8/8/8 10/10/10
f 8/8/8 9/9/9 11/11/11
f 10/10/10 8/8/8 11/11/11
f 10/10/10 11/11/11 12/12/12
f 13/13/13 15/15/15 14/14/14
f 15/15/15 13/13/13 16/16/16
f 17/17/17 19/19/19 18/18/18
f 19/19/19 17/17/17 20/20/20
f 21/21/21 23/23/23 22/22/22
f 23/23/23 21/21/21 24/24/24
f 25/25/25 27/27/27 26/26/26
f 27/27/27 25/25/25 28/28/28
f 29/29/29 31/31/31 30/30/30
f 31/31/31 29/29/29 32/32/32
f 33/33/33 35/35/35 34/34/34
f 35/35/35 33/33/33 36/36/36
f 37/37/37 39/39/39 38/38/38
f 39/39/39 37/37/37 40/40/40
f 41/41/41 43/43/43 42/42/42
f 43/43/43 41/41/41 44/44/44
f 45/45/45 47/47/47 46/46/46
f 47/47/47 45/45/45 48/48/48
f 49/49/49 51/51/51 50/50/50
f 51/51/51 49/49/49 52/52/52
f 53/53/53 55/55/55 54/54/54
f 55/55/55 53/53/53 56/56/56
f 57/57/57 59/59/59 58/58/58
f 59/59/59 57/57/57 60/60/60
f 61/61/61 63/63/63 62/62/62
f 63/63/63 61/61/61 64/64/64
f 65/65/65 67/67/67 66/66/66
f 67/67/67 65/65/65 68/68/68
f 69/69/69 71/71/71 70/70/70
f 71/71/71 69/69/69 72/72/72
f 73/73/73 75/75/75 74/74/74
f 75/75/75 73/73/73 76/76/76
f 77/77/77 79/79/79 78/78/78
f 79/79/79 77/77/77 80/80/80
f 81/81/81 83/83/83 82/82/82
f 83/83/83 81/81/81 84/84/84
f 85/85/85 87/87/87 86/86/86
f 87/87/87 85/85/85 88/88/88
f 89/89/89 91/91/91 90/90/90
f 91/91/91 89/89/89 92/92/92
f 93/93/93 95/95/95 94/94/94
f 95/95/95 93/93/93 96/96/96
f 97/97/97 99/99/99 98/98/98
f 99/99/99 97/97/97 100/100/100
f 101/101/101 103/103/103 102/102/102
f 103/103/103 101/101/101 104/104/104
f 105/105/105 107/107/107 106/106/106
f 107/107/107 105/105/105 108/108/108
f 109/109/109 111/111/111 110/110/110
f 111/111/111 109/109/109 112/112/112
f 113/113/113 115/115/115 114/114/114
f 115/115/115 113/113/113 116/116/116
f 117/117/117 119/119/119 118/118/118
f 119/119/119 117/117/117 120/120/120
f 121/121/121 123/123/123 122/122/122
f 123/123/123 121/121/121 124/124/124
f 125/125/125 127/127/127 126/126/126
f 127/127/127 125/125/125 128/128/128
f 129/129/129 131/131/131 130/130/130
f 131/131/131 129/129/129 132/132/132
f 133/133/133 135/135/135 134/134/134
f 135/135/135 133/133/133 136/136/136
f 137/137/137 139/139/139 138/138/138
f 139/139/139 137/137/137 140/140/140
f 141/141/141 143/143/143 142/142/142
f 143/143/143 141/141/141 144/144/144
f 145/145/145 147/147/147 146/146/146
f 147/147/147 145/145/145 148/148/148
f 149/149/149 151/151/151 150/150/150
f 151/151/151 149/149/149 152/152/152
f 153/153/153 155/155/155 154/154/154
f 155/155/155 153/153/153 156/156/156
f 157/157/157 159/159/159 158/158/158
f 159/159/159 157/157/157 160/160/160
f 161/161/161 163/163/163 162/162/162
f 163/163/163 161/161/161 164/164/164
f 165/165/165 167/167/167 166/166/166
f 167/167/167 165/165/165 168/168/168
f 169/169/169 171/171/171 170/170/170
f 171/171/171 169/169/169 172/172/172
f 173/173/173 175/175/175 174/174/174
f 175/175/175 173/173/173 176/176/176
f 177/177/177 179/179/179 178/178/178
f 179/179/179 177/177/177 180/180/180
f 181/181/181 183/183/183 182/182/182
f 183/183/183 181/181/181 184/184/184
f 185/185/185 187/187/187 186/186/186
f 187/187/187 185/185/185 188/188/188
f 189/189/189 191/191/191 190/190/190
f 191/191/191 189/189/189 192/192/192
f 193/193/193 195/195/195 194/194/194
f 195/195/195 193/193/193 196/196/196
f 197/197/197 199/199/199 198/198/198
f 199/199/199 197/197/197 200/200/200
f 201/201/201 203/203/203 202/202/202
f 203/203/203 201/201/201 204/204/204
f 205/205/205 207/207/207 206/206/206
f 207/207/207 205/205/205 208/208/208
f 209/209/209 211/211/211 210/210/210
f 211/211/211 209/209/209 212/212/212
f 213/213/213 215/215/215 214/214/214
f 215/215/215 213/213/213 216/216/216
f 217/217/217 219/219/219 218/218/218
f 219/219/219 217/217/217 220/220/220
f 221/221/221 223/223/223 222/222/222
f 223/223/223 221/221/221 224/224/224
f 225/225/225 227/227/227 226/226/226
f 227/227/227 225/225/225 228/228/228
f 229/229/229 231/231/231 230/230/230
f 231/231/231 229/229/229 232/232/232
f 233/233/233 235/235/235 234/234/234
f 235/235/235 233/233/233 236/236/236
f 237/237/237 239/239/239 238/238/238
f 239/239/239 237/237/237 240/240/240
f 241/241/241 243/243/243 242/242/242
f 243/243/243 241/241/241 244/244/244
f 245/245/245 247/247/247 246/246/246
f 246/246/246 248/248/248 245/245/245
f 249/249/249 251/251/251 250/250/250
f 251/251/251 249/249/249 252/252/252
f 253/253/253 255/255/255 254/254/254
f 255/255/255 253/253/253 256/256/256
f 257/257/257 259/259/259 258/258/258
f 259/259/259 257/257/257 260/260/260
f 261/261/261 263/263/263 262/262/262
f 263/263/263 261/261/261 264/264/264
f 265/265/265 267/267/267 266/266/266
f 267/267/267 265/265/265 268/268/268
f 269/269/269 271/271/271 270/270/270
f 271/271/271 269/269/269 272/272/272
f 273/273/273 275/275/275 274/274/274
f 275/275/275 273/273/273 276/276/276
f 277/277/277 279/279/279 278/278/278
f 279/279/279 277/277/277 280/280/280
f 281/281/281 283/283/283 282/282/282
f 283/283/283 281/281/281 284/284/284
f 285/285/285 287/287/287 286/286/286
f 287/287/287 285/285/285 288/288/288
f 289/289/289 291/291/291 290/290/290
f 291/291/291 289/289/289 292/292/292
f 293/293/293 295/295/295 294/294/294
f 295/295/295 293/293/293 296/296/296
f 297/297/297 299/299/299 298/298/298
f 299/299/299 297/297/297 300/300/300
f 301/301/301 303/303/303 302/302/302
f 303/303/303 301/301/301 304/304/304
f 305/305/305 307/307/307 306/306/306
f 307/307/307 305/305/305 308/308/308
f 309/309/309 311/311/311 310/310/310
f 311/311/311 309/309/309 312/312/312
f 313/313/313 315/315/315 314/314/314
f 315/315/315 313/313/313 316/316/316
f 317/317/317 319/319/319 318/318/318
f 319/319/319 317/317/317 320/320/320
f 321/321/321 323/323/323 322/322/322
f 323/323/323 321/321/321 324/324/324
f 325/325/325 327/327/327 326/326/326
f 327/327/327 325/325/325 328/328/328
f 329/329/329 331/331/331 330/330/330
f 331/331/331 329/329/329 332/332/332
f 333/333/333 335/335/335 334/334/334
f 335/335/335 333/333/333 336/336/336
f 337/337/337 339/339/339 338/338/338
f 339/339/339 337/337/337 340/340/340
f 341/341/341 343/343/343 342/342/342
f 343/343/343 341/341/341 344/344/344
f 345/345/345 347/347/347 346/346/346
f 347/347/347 345/345/345 348/348/348
f 349/349/349 351/351/351 350/350/350
f 351/351/351 349/349/349 352/352/352
f 353/353/353 355/355/355 354/354/354
f 355/355/355 353/353/353 356/356/356
f 357/357/357 359/359/359 358/358/358
f 359/359/359 357/357/357 360/360/360
f 361/361/361 363/363/363 362/362/362
f 363/363/363 361/361/361 364/364/364
f 365/365/365 367/367/367 366/366/366
f 367/367/367 365/365/365 368/368/368
f 369/369/369 371/371/371 370/370/370
f 371/371/371 369/369/369 372/372/372
f 373/373/373 375/375/375 374/374/374
f 375/375/375 373/373/373 376/376/376
f 377/377/377 379/379/379 378/378/378
f 379/379/379 377/377/377 380/380/380
f 381/381/381 383/383/383 382/382/382
f 383/383/383 381/381/381 384/384/384
f 385/385/385 387/387/387 386/386/386
f 387/387/387 385/385/385 388/388/388
f 389/389/389 391/391/391 390/390/390
f 391/391/391 389/389/389 392/392/392
f 393/393/393 395/395/395 394/394/394
f 395/395/395 393/393/393 396/396/396
f 397/397/397 399/399/399 398/398/398
f 399/399/399 397/397/397 400/400/400
f 401/401/401 403/403/403 402/402/402
f 403/403/403 401/401/401 404/404/404
f 405/405/405 407/407/407 406/406/406
f 407/407/407 405/405/405 408/408/408
f 409/409/409 411/411/411 410/410/410
f 411/411/411 409/409/409 412/412/412
f 413/413/413 415/415/415 414/414/414
f 415/415/415 413/413/413 416/416/416
f 417/417/417 419/419/419 418/418/418
f 419/419/419 417/417/417 420/420/420
f 421/421/421 423/423/423 422/422/422
f 423/423/423 421/421/421 424/424/424
f 425/425/425 427/427/427 426/426/426
f 427/427/427 425/425/425 428/428/428
f 429/429/429 431/431/431 430/430/430
f 431/431/431 429/429/429 432/432/432
f 433/433/433 435/435/435 434/434/434
f 435/435/435 433/433/433 436/436/436
f 437/437/437 439/439/439 438/438/438
f 439/439/439 437/437/437 440/440/440
f 441/441/441 443/443/443 442/442/442
f 443/443/443 441/441/441 444/444/444
f 445/445/445 447/447/447 446/446/446
f 447/447/447 445/445/445 448/448/448
f 449/449/449 451/451/451 450/450/450
f 451/451/451 449/449/449 452/452/452
f 453/453/453 455/455/455 454/454/454
f 455/455/455 453/453/453 456/456/456
f 457/457/457 459/459/459 458/458/458
f 459/459/459 457/457/457 460/460/460
f 461/461/461 463/463/463 462/462/462
f 463/463/463 461/461/461 464/464/464
f 465/465/465 467/467/467 466/466/466
f 467/467/467 465/465/465 468/468/468
f 469/469/469 471/471/471 470/470/470
f 471/471/471 469/469/469 472/472/472
f 473/473/473 475/475/475 474/474/474
f 475/475/475 473/473/473 476/476/476
f 477/477/477 479/479/479 478/478/478
f 479/479/479 477/477/477 480/480/480
f 481/481/481 483/483/483 482/482/482
f 483/483/483 481/481/481 484/484/484
f 485/485/485 487/487/487 486/486/486
f 485/485/485 486/486/486 488/488/488
f 489/489/489 485/485/485 488/488/488
f 488/488/488 486/486/486 490/490/490
f 489/489/489 488/488/488 491/491/491
f 488/488/488 490/490/490 492/492/492
f 491/491/491 488/488/488 492/492/492
f 492/492/492 490/490/490 493/493/493
f 491/491/491 492/492/492 494/494/494
f 492/492/492 493/493/493 495/495/495
f 494/494/494 492/492/492 495/495/495
f 494/494/494 495/495/495 496/496/496
f 497/497/497 499/499/499 498/498/498
f 497/497/497 498/498/498 500/500/500
f 501/501/501 497/497/497 500/500/500
f 500/500/500 498/498/498 502/502/502
f 501/501/501 500/500/500 503/503/503
f 500/500/500 502/502/502 504/504/504
f 503/503/503 500/500/500 504/504/504
f 504/504/504 502/502/502 505/505/505
f 503/503/503 504/504/504 506/506/506
f 504/504/504 505/505/505 507/507/507
f 506/506/506 504/504/504 507/507/507
f 506/506/506 507/507/507 508/508/508
f 509/509/509 511/511/511 510/510/510
f 509/509/509 510/510/510 512/512/512
f 513/513/513 509/509/509 512/512/512
f 512/512/512 510/510/510 514/514/514
f 513/513/513 512/512/512 515/515/515
f 512/512/512 514/514/514 516/516/516
f 515/515/515 512/512/512 516/516/516
f 516/516/516 514/514/514 517/517/517
f 515/515/515 516/516/516 518/518/518
f 516/516/516 517/517/517 519/519/519
f 518/518/518 516/516/516 519/519/519
f 518/518/518 519/519/519 520/520/520
f 521/521/521 523/523/523 522/522/522
f 521/521/521 522/522/522 524/524/524
f 525/525/525 521/521/521 524/524/524
f 524/524/524 522/522/522 526/526/526
f 525/525/525 524/524/524 527/527/527
f 524/524/524 526/526/526 528/528/528
f 527/527/527 524/524/524 528/528/528
f 528/528/528 526/526/526 529/529/529
f 527/527/527 528/528/528 530/530/530
f 528/528/528 529/529/529 531/531/531
f 530/530/530 528/528/528 531/531/531
f 530/530/530 531/531/531 532/532/532
f 533/533/533 535/535/535 534/534/534
f 533/533/533 534/534/534 536/536/536
f 537/537/537 533/533/533 536/536/536
f 536/536/536 534/534/534 538/538/538
f 537/537/537 536/536/536 539/539/539
f 536/536/536 538/538/538 540/540/540
f 539/539/539 536/536/536 540/540/540
f 540/540/540 538/538/538 541/541/541
f 539/539/539 540/540/540 542/542/542
f 540/540/540 541/541/541 543/543/543
f 542/542/542 540/540/540 543/543/543
f 542/542/542 543/543/543 544/544/544
f 545/545/545 547/547/547 546/546/546
f 545/545/545 546/546/546 548/548/548
f 549/549/549 545/545/545 548/548/548
f 548/548/548 546/546/546 550/550/550
f 549/549/549 548/548/548 551/551/551
f 548/548/548 550/550/550 552/552/552
f 551/551/551 548/548/548 552/552/552
f 552/552/552 550/550/550 553/553/553
f 551/551/551 552/552/552 554/554/554
f 552/552/552 553/553/553 555/555/555
f 554/554/554 552/552/552 555/555/555
f 554/554/554 555/555/555 556/556/556
f 557/557/557 559/559/559 558/558/558
f 557/557/557 558/558/558 560/560/560
f 561/561/561 557/557/557 560/560/560
f 560/560/560 558/558/558 562/562/562
f 561/561/561 560/560/560 563/563/563
f 560/560/560 562/562/562 564/564/564
f 563/563/563 560/560/560 564/564/564
f 564/564/564 562/562/562 565/565/565
f 563/563/563 564/564/564 566/566/566
f 564/564/564 565/565/565 567/567/567
f 566/566/566 564/564/564 567/567/567
f 566/566/566 567/567/567 568/568/568
f 569/569/569 571/571/571 570/570/570
f 569/569/569 570/570/570 572/572/572
f 573/573/573 569/569/569 572/572/572
f 572/572/572 570/570/570 574/574/574
f 573/573/573 572/572/572 575/575/575
f 572/572/572 574/574/574 576/576/576
f 575/575/575 572/572/572 576/576/576
f 576/576/576 574/574/574 577/577/577
f 575/575/575 576/576/576 578/578/578
f 576/576/576 577/577/577 579/579/579
f 578/578/578 576/576/576 579/579/579
f 578/578/578 579/579/579 580/580/580
f 581/581/581 583/583/583 582/582/582
f 581/581/581 582/582/582 584/584/584
f 585/585/585 581/581/581 584/584/584
f 584/584/584 582/582/582 586/586/586
f 585/585/585 584/584/584 587/587/587
f 584/584/584 586/586/586 588/588/588
f 587/587/587 584/584/584 588/588/588
f 588/588/588 586/586/586 589/589/589
f 587/587/587 588/588/588 590/590/590
f 588/588/588 589/589/589 591/591/591
f 590/590/590 588/588/588 591/591/591
f 590/590/590 591/591/591 592/592/592
f 593/593/593 595/595/595 594/594/594
f 593/593/593 594/594/594 596/596/596
f 597/597/597 593/593/593 596/596/596
f 596/596/596 594/594/594 598/598/598
f 597/597/597 596/596/596 599/599/599
f 596/596/596 598/598/598 600/600/600
f 599/599/599 596/596/596 600/600/600
f 600/600/600 598/598/598 601/601/601
f 599/599/599 600/600/600 602/602/602
f 600/600/600 601/601/601 603/603/603
f 602/602/602 600/600/600 603/603/603
f 602/602/602 603/603/603 604/604/604
