mtllib P_Bush3.mtl
v -0.3159505 0.2501587 0.215424
v -0.3380081 0.2586575 0.2032698
v -0.2180195 0.7192022 0.3189633
v -0.3371477 0.2659034 0.1777111
v -0.2180195 0.7192022 0.3189633
v -0.3142296 0.2646508 0.1643067
v -0.2180195 0.7192022 0.3189633
v -0.2921718 0.256152 0.1764607
v -0.2180195 0.7192022 0.3189633
v -0.2930323 0.248906 0.2020195
v -0.2180195 0.7192022 0.3189633
v -0.3159505 0.2501587 0.215424
v -0.2180195 0.7192022 0.3189633
v 0.3286996 -0.4370505 0.2509448
v 0.3323226 -0.4352127 0.3007796
v 0.387235 0.2231392 0.2644655
v 0.3858918 0.2305593 0.2297774
v 0.2839315 -0.4333862 0.2289815
v 0.4603944 0.5488923 0.4174097
v 0.3549629 0.2392305 0.2146661
v 0.2427865 -0.427884 0.2568528
v 0.4598522 0.5550247 0.3970032
v 0.4476323 0.8223532 0.4416633
v 0.3253772 0.2404815 0.234243
v 0.2464095 -0.4260463 0.3066876
v 0.4412822 0.5602378 0.3879315
v 0.4476323 0.8223532 0.4416633
v 0.3267204 0.2330614 0.2689311
v 0.2911777 -0.4297107 0.328651
v 0.4232543 0.5593184 0.3992658
v 0.4476323 0.8223532 0.4416633
v 0.3576492 0.2243903 0.2840425
v 0.3323226 -0.4352127 0.3007796
v 0.387235 0.2231392 0.2644655
v 0.4237965 0.5531858 0.4196722
v 0.4476323 0.8223532 0.4416633
v 0.4423665 0.5479728 0.4287441
v 0.4476323 0.8223532 0.4416633
v 0.4603944 0.5488923 0.4174097
v 0.4476323 0.8223532 0.4416633
v 0.08600961 -0.4945515 -0.0202468
v 0.07404351 -0.494948 0.02829862
v 0.1068578 0.4160123 0.03820491
v 0.1161473 0.4173213 0.0003920197
v 0.0499953 -0.4922555 -0.05485439
v -0.04028392 0.9102651 0.02719331
v 0.08825099 0.4143027 -0.02663589
v 0.002014816 -0.4903561 -0.0409168
v -0.03371978 0.9148193 -0.0002403855
v 0.06678092 1.382802 0.1776081
v 0.05106521 0.4099749 -0.01585072
v -0.009951413 -0.4907525 0.0076285
v -0.05451411 0.9174419 -0.01966068
v 0.07074654 1.384989 0.1608376
v 0.04886019 1.820731 0.1626397
v 0.04177594 0.408666 0.02196217
v 0.02606297 -0.4930485 0.04223638
v 0.05817401 1.388189 0.1492854
v 0.04886019 1.820731 0.1626397
v -0.0818727 0.9155104 -0.01164746
v 0.06967223 0.4116848 0.04898989
v 0.07404351 -0.494948 0.02829862
v 0.1068578 0.4160123 0.03820491
v 0.04163611 1.389202 0.1545036
v 0.04886019 1.820731 0.1626397
v -0.08843684 0.9109563 0.01578623
v -0.06764257 0.9083337 0.03520662
v -0.04028392 0.9102651 0.02719331
v 0.03767055 1.387014 0.1712741
v 0.04886019 1.820731 0.1626397
v 0.05024296 1.383815 0.1828262
v 0.04886019 1.820731 0.1626397
v 0.06678092 1.382802 0.1776081
v 0.04886019 1.820731 0.1626397
v 0.1082469 0.1222533 0.01315999
v 0.06761068 0.1243406 0.04221737
v -0.08922565 0.4483755 -0.2189318
v -0.06613988 0.4475821 -0.23575
v -0.1223289 0.8948779 -0.2968862
v 0.1084708 0.09308492 -0.02744991
v -0.06813383 0.4371248 -0.2622662
v -0.1223289 0.8948779 -0.2968862
v 0.06805837 0.06600416 -0.03900248
v -0.09321356 0.4274609 -0.271964
v -0.1223289 0.8948779 -0.2968862
v 0.02742207 0.06809151 -0.009944916
v -0.1162994 0.4282542 -0.255146
v -0.1223289 0.8948779 -0.2968862
v 0.02719814 0.09725963 0.03066498
v -0.1143054 0.4387115 -0.2286299
v -0.1223289 0.8948779 -0.2968862
v 0.06761068 0.1243406 0.04221737
v -0.08922565 0.4483755 -0.2189318
v -0.1223289 0.8948779 -0.2968862
v -0.1621575 -0.3994831 0.2744164
v -0.1971054 -0.3979596 0.310142
v -0.2626189 0.1821445 0.213012
v -0.2369001 0.1890707 0.1845798
v -0.1753069 -0.4079515 0.2269255
v -0.3963014 0.4792252 0.2532205
v -0.2478532 0.186268 0.1472971
v -0.2234043 -0.4148963 0.2151604
v -0.3777782 0.4856405 0.2324318
v -0.4283509 0.9202105 0.2536528
v -0.2845254 0.1765393 0.1384467
v -0.258352 -0.4133724 0.250886
v -0.3864424 0.4860694 0.2052073
v -0.4168141 0.9228042 0.2409273
v -0.4857147 1.093935 0.2469593
v -0.3102443 0.1696132 0.166879
v -0.2452028 -0.4049042 0.2983768
v -0.4219732 0.9225501 0.2243418
v -0.4857147 1.093935 0.2469593
v -0.4136304 0.4800828 0.1987713
v -0.2992911 0.1724158 0.2041616
v -0.1971054 -0.3979596 0.310142
v -0.2626189 0.1821445 0.213012
v -0.438669 0.9197025 0.2204818
v -0.4857147 1.093935 0.2469593
v -0.4321537 0.4736675 0.2195598
v -0.4234892 0.4732386 0.2467845
v -0.3963014 0.4792252 0.2532205
v -0.4502057 0.9171087 0.2332071
v -0.4857147 1.093935 0.2469593
v -0.4450466 0.9173626 0.2497926
v -0.4857147 1.093935 0.2469593
v -0.4283509 0.9202105 0.2536528
v -0.4857147 1.093935 0.2469593
v 0.1019371 -0.2068382 -0.0123139
v 0.06795949 -0.210986 -0.04875999
v 0.1044665 0.4567279 -0.1484105
v 0.1282206 0.4571359 -0.1220341
v 0.150663 -0.2099496 -0.02308834
v 0.3003414 0.7902234 -0.2806681
v 0.1616253 0.4467517 -0.1280695
v 0.1654115 -0.2172087 -0.07030892
v 0.3141402 0.7889661 -0.2644714
v 0.3961231 1.17606 -0.3178201
v 0.1712761 0.4359597 -0.1604813
v 0.1314339 -0.2213567 -0.1067551
v 0.333755 0.7812966 -0.2677525
v 0.3961231 1.17606 -0.3178201
v 0.1475221 0.4355516 -0.1868579
v 0.08270788 -0.2182451 -0.09598058
v 0.3395707 0.7748845 -0.2872303
v 0.3961231 1.17606 -0.3178201
v 0.1141173 0.4459356 -0.1808223
v 0.06795949 -0.210986 -0.04875999
v 0.1044665 0.4567279 -0.1484105
v 0.3257717 0.7761419 -0.3034269
v 0.3961231 1.17606 -0.3178201
v 0.3061571 0.7838113 -0.3001456
v 0.3961231 1.17606 -0.3178201
v 0.3003414 0.7902234 -0.2806681
v 0.3961231 1.17606 -0.3178201
v -0.1206448 -0.4323202 -0.2090912
v -0.1589904 -0.4369372 -0.2408449
v -0.139598 0.2261669 -0.3467632
v -0.113997 0.2386466 -0.3255739
v -0.07368427 -0.4351533 -0.2260229
v -0.2964921 0.4262476 -0.3775616
v -0.08270799 0.2482653 -0.3393075
v -0.0650692 -0.4426034 -0.2747084
v -0.2820477 0.4359958 -0.3652874
v -0.2972022 0.5850838 -0.441321
v -0.07701993 0.2454046 -0.3742301
v -0.1034148 -0.4472207 -0.3064621
v -0.2634735 0.4422892 -0.3736367
v -0.2972022 0.5850838 -0.441321
v -0.1026211 0.2329248 -0.3954194
v -0.1503754 -0.4443873 -0.2895305
v -0.2593434 0.4388343 -0.39426
v -0.2972022 0.5850838 -0.441321
v -0.1339101 0.2233061 -0.3816859
v -0.1589904 -0.4369372 -0.2408449
v -0.139598 0.2261669 -0.3467632
v -0.2737877 0.4290861 -0.4065343
v -0.2972022 0.5850838 -0.441321
v -0.2923619 0.4227926 -0.398185
v -0.2972022 0.5850838 -0.441321
v -0.2964921 0.4262476 -0.3775616
v -0.2972022 0.5850838 -0.441321
v 1.192334 2.197098 -0.1212114
v 0.8909626 2.658066 -0.2841752
v 0.5237363 2.320585 -0.5689984
v 0.8301457 1.832354 -0.4210754
v 1.640674 1.847842 -0.2041789
v 0.3552422 2.085254 -1.065085
v 1.303638 1.477734 -0.4857806
v 0.6350406 1.60122 -0.9335674
v 1.104954 1.27503 -0.9850886
v 0.3204784 1.397801 -0.7873869
v 0.6362282 1.704923 0.276355
v 1.456298 2.383233 -0.1629063
v 1.140548 2.07611 -1.226648
v 1.497688 1.41704 -0.623829
v 1.050119 2.422821 -0.9609599
v 0.1784623 2.282648 -0.2219499
v 0.6260314 1.276867 0.1151807
v -1.608134 1.036696 0.2228255
v -1.059608 1.700385 -0.1787296
v -1.54523 1.701249 0.2832301
v -1.117942 1.014234 -0.2685878
v -1.92845 0.512225 -0.04468912
v -0.8738641 1.78822 -0.816711
v -1.45826 0.4634803 -0.5198537
v -0.9097332 1.127169 -0.9214089
v -1.257084 0.5991963 -1.144631
v -0.6301568 1.705549 0.01035392
v -0.6276587 0.3620425 -0.003995538
v -1.790906 0.3670607 -0.6763443
v -1.793404 1.710567 -0.661995
v -1.863024 1.141007 0.3028305
v -1.647469 1.349047 -1.006932
v -0.3968122 0.8757507 -0.8762816
v -0.6123673 0.6677104 0.4334807
v 0.8701254 0.9406982 1.129024
v 1.716975 0.5802447 0.8933772
v 1.4283 0.7810518 1.463973
v 1.154621 0.7525107 0.5241045
v 0.4938812 1.40762 0.829591
v 2.122017 0.7146193 0.3765406
v 0.7449284 1.232044 0.2334498
v 1.591778 0.8715905 -0.002197385
v 1.187599 1.341188 -0.2578411
v 1.694974 0.1153442 0.8334519
v 0.5345818 0.273595 0.1749174
v 0.6863946 1.607522 0.2279625
v 1.846787 1.449271 0.8864971
v 0.8856454 1.112154 1.358399
v 1.717005 1.529074 0.3887392
v 1.427056 0.4324442 -0.3313676
v 0.5956972 0.01552367 0.6382921
v -1.594155 2.36775 0.7600395
v -0.9869726 2.667768 0.3082628
v -1.246384 2.823381 0.7964873
v -1.346453 2.197572 0.2464055
v -2.102249 2.147533 0.6076652
v -0.9348913 2.724342 -0.2609119
v -1.877302 1.964705 0.1118369
v -1.270119 2.264723 -0.3399398
v -1.790756 2.048494 -0.449734
v -0.6437499 2.468174 0.3719638
v -1.234449 1.479999 0.3595259
v -2.185596 2.052408 0.05418038
v -1.594897 3.040583 0.06661802
v -1.714954 2.543894 0.8816022
v -1.713894 2.750844 -0.2509788
v -1.006898 1.856833 -0.4136745
v -1.007958 1.649883 0.7189061
v -0.9141724 2.681576 0.7262405
v -0.1833695 2.559743 0.2320195
v -0.314172 2.863721 0.7661125
v -0.8030758 2.372153 0.164351
v -1.505997 2.810903 0.5595507
v -0.1009697 2.576669 -0.3906287
v -1.423188 2.504798 0.01713985
v -0.6923845 2.382965 -0.4770813
v -1.292795 2.523851 -0.5971905
v -0.00628376 2.163142 0.3017052
v -1.162383 1.663551 0.288099
v -1.640798 2.779742 -0.04593375
v -0.4846983 3.279334 -0.03232744
v -0.9088011 2.915166 0.8592239
v -0.7755591 3.098202 -0.3797622
v -0.7194773 1.852602 -0.5577434
v -0.8527189 1.669567 0.6812425
v -1.002247 3.124788 0.5672244
v -0.1458988 3.359577 0.4985806
v -0.6185682 3.50747 0.8852054
v -0.5300758 2.968898 0.1470377
v -1.444296 3.050036 0.1270285
v 0.2021028 3.501437 -0.004944503
v -1.004878 2.883724 -0.290127
v -0.1485287 3.118512 -0.3587709
v -0.6236248 3.044003 -0.7631215
v 0.1194264 3.050973 0.6655351
v -0.5901773 2.167698 0.1154178
v -1.256975 3.064855 -0.4649554
v -0.5473716 3.948129 0.08516221
v -1.152691 3.320321 0.6740491
v -0.5438868 3.728081 -0.3503677
v 0.07837009 2.634978 -0.415665
v -0.5304346 2.227217 0.6087516
v 0.5169736 3.143461 0.741805
v 0.8560637 2.945012 -0.05744865
v 1.091408 3.017556 0.5205805
v 0.2549884 3.086701 0.1485541
v 0.08682269 3.568844 0.9114695
v 0.738751 3.187311 -0.6251597
v -0.1889746 3.5185 0.3491811
v 0.1501158 3.320051 -0.4500727
v -0.2658342 3.738599 -0.2342708
v 0.7877563 2.522951 -0.1609183
v -0.3841217 2.619838 0.2903648
v -0.2186693 3.85762 0.454264
v 0.9532087 3.760733 0.00298059
v 0.6941791 3.271765 0.8980551
v 0.5219806 3.886463 -0.1876868
v -0.1961199 2.941336 -0.6088846
v -0.02392155 2.326638 0.4768575
v 1.36991 2.633862 0.4722894
v 1.5745 1.845873 0.4719583
v 1.698247 2.298417 0.8032637
v 1.240469 2.179853 0.1099948
v 1.329341 3.011505 0.04146129
v 1.722681 1.496532 0.04082447
v 1.190738 2.587676 -0.3205211
v 1.395328 1.799687 -0.3208523
v 1.353775 2.20962 -0.7209781
v 1.280849 1.617613 0.624812
v 0.5115883 2.242399 0.0387671
v 1.368212 2.804931 -0.4859451
v 2.137473 2.180145 0.1001002
v 1.545577 2.775141 0.5701535
v 1.957307 2.153458 -0.3070905
v 0.9532496 1.595134 -0.3826669
v 0.5415201 2.216818 0.4945769
v 1.068524 2.813562 0.7262402
v 1.302161 2.110476 0.2320193
v 1.50984 2.368121 0.7661123
v 0.846826 2.570797 0.1643507
v 0.9064305 3.397264 0.5595506
v 1.355617 2.045524 -0.3906291
v 0.6744527 3.18106 0.01713943
v 0.9080902 2.477974 -0.4770816
v 0.7522069 3.074666 -0.5971909
v 1.034204 1.768642 0.3017049
v 0.0524441 2.557505 0.2880986
v 0.8159119 3.501899 -0.04593396
v 1.797672 2.713037 -0.03232765
v 1.277574 2.917923 0.8592238
v 1.501652 2.885608 -0.3797624
v 0.4264868 2.254194 -0.5577437
v 0.202409 2.286509 0.6812423
v 0.1174825 1.577469 1.640987
v 0.8498768 2.09108 0.7642957
v 0.8657767 2.047383 1.646698
v 0.06383353 1.623044 0.7281486
v -0.7624982 1.554405 1.717782
v 0.6455883 2.541862 0.03227264
v -0.8439666 1.57825 0.8382417
v -0.1115723 2.091861 -0.03844959
v -0.9826865 2.048885 0.1033564
v 1.214675 1.668262 0.4980638
v -0.1579487 0.5497226 0.4496747
v -1.226695 1.835984 1.033527
v 0.1459294 2.954524 1.081917
v 0.1299948 1.768547 1.967006
v -0.3544985 2.825185 0.630461
v -0.05033201 1.511615 -0.5182722
v 0.4341609 0.4549776 0.818273
v -1.204849 2.231363 -0.1510605
v -0.08571792 2.47378 0.1410819
v -0.8299777 2.604848 0.4931926
v -0.4487838 2.099086 -0.5473924
v -1.60404 2.295436 -0.8801857
v 0.5475796 2.761504 -0.3185186
v -0.8909507 2.151909 -1.287601
v 0.2281806 2.394326 -0.9954581
v -0.2264829 2.452092 -1.691897
v 0.1853319 2.003786 0.3563814
v -0.5246279 1.075348 -0.8382304
v -1.143991 2.457656 -1.544454
v -0.4340312 3.386094 -0.349842
v -1.4336 2.469814 -0.01661152
v -0.2697942 3.218852 -0.9534346
v 0.5315828 1.762045 -1.122685
v -0.6322227 1.013007 -0.1858616
v 0.3694988 3.525638 -1.144921
v 0.7912694 3.372906 -0.0516001
v 0.5992161 4.032435 -0.52406
v 0.5779072 2.825073 -0.6845026
v 0.5582638 3.141875 -1.860586
v 1.369152 2.848234 0.2414111
v 0.7486683 2.446483 -1.441947
v 1.170439 2.29375 -0.3486251
v 1.3282 1.957674 -1.095115
v 0.3663802 3.233644 0.323623
v -0.2777649 2.203104 -0.8236344
v 1.042609 2.476925 -1.810942
v 1.686754 3.507466 -0.6636836
v 0.4819624 3.831051 -1.290995
v 1.773895 2.883864 -0.814666
v 0.7176934 1.799283 -0.1066691
v -0.5742385 2.746469 -0.5829983
v 0.06244021 0.7635038 1.443845
v 0.7861239 0.2305664 1.135835
v 0.372034 0.2107115 1.662496
v 0.4899577 0.8122486 0.8987457
v -0.01119494 1.429148 1.470889
v 1.380146 0.4045334 0.8787158
v 0.3874632 1.498068 0.9365127
v 1.111147 0.9651307 0.628503
v 0.9969168 1.622971 0.6871091
v 0.6525021 -0.05687273 0.7898133
v -0.05723196 0.9495729 0.2526297
v 0.4497439 1.794571 1.165962
v 1.159478 0.7881255 1.703145
v 0.03764927 0.7574703 1.729501
v 1.263273 1.166743 1.361311
v 0.9652367 0.9045046 0.07771242
v -0.2603873 0.495232 0.4459023
v 0.5937518 2.47261 0.6522011
v 0.2989059 1.818745 1.180118
v 0.2098983 2.439911 1.148542
v 0.7106294 1.832629 0.6760394
v 1.166781 2.587585 0.4215808
v 0.5999163 1.330477 1.436544
v 1.294321 1.972366 0.4238833
v 0.999475 1.3185 0.9518008
v 1.556799 1.478151 0.7095827
v -0.0251658 1.591119 0.9886209
v 0.6198298 1.615826 -0.09291115
v 1.595841 2.145644 0.5012582
v 0.9508456 2.120936 1.582791
v 0.6065651 2.708493 0.7805485
v 1.286701 1.832503 1.377541
v 0.8554007 0.9558973 0.5826295
v 0.1752649 1.831887 -0.01436234
v -1.141555 1.807054 0.2485164
v -1.612696 1.06608 -0.1142432
v -1.675694 1.732435 -0.1494332
v -1.066479 1.119519 0.3112823
v -0.8927231 1.910289 0.8622435
v -1.798527 0.4857067 0.1648088
v -0.7981952 1.251096 0.9381726
v -1.269335 0.5101215 0.5754125
v -1.015556 0.6635611 1.176486
v -1.389332 0.8857134 -0.4854359
v -0.22603 1.017003 0.1738922
v -0.8938698 1.393764 1.277188
v -2.057172 1.262474 0.6178601
v -1.311769 2.03442 0.2883013
v -1.784188 0.9594084 0.9412889
v -0.83117 0.1982614 0.3776996
v -0.3587508 1.273273 -0.275288
v -2.050683 1.40217 -0.3026512
v -1.8951 0.7489395 -0.006582201
v -2.265841 0.9315224 -0.3184579
v -1.665751 1.232482 0.03021932
v -2.038875 1.877823 -0.09852648
v -1.739753 0.6219345 0.4706909
v -1.658993 1.733346 0.2222058
v -1.50341 1.080116 0.5182752
v -1.512786 1.568235 0.6906224
v -1.630154 0.5808345 -0.1880732
v -1.119734 1.482393 -0.2498062
v -1.828301 1.925681 0.3654781
v -2.338722 1.024124 0.4272113
v -2.267997 1.428964 -0.3363356
v -2.069973 1.212834 0.6592656
v -1.071359 1.053165 0.4259823
v -1.269382 1.269294 -0.5696194
v 1.472208 1.50498 0.8505424
v 1.505681 0.9365034 0.2516104
v 1.542366 0.9264289 0.8334093
v 1.444865 1.537527 0.2479358
v 1.710067 2.036132 0.8857357
v 1.774421 0.94319 -0.2657596
v 1.680136 2.090893 0.3060437
v 1.713608 1.522416 -0.2928886
v 1.942122 2.052893 -0.2134335
v 1.132871 0.8405567 0.1158241
v 0.8491605 1.974071 0.1416326
v 1.954668 2.244721 0.4073669
v 2.238379 1.111207 0.3815585
v 1.60679 1.439374 1.050099
v 2.267109 1.452921 0.08583349
v 1.315975 1.65495 -0.5626559
v 0.6556556 1.641405 0.4016095
v -1.146013 1.402101 0.8038022
v -0.838207 0.6495694 0.6556228
v -1.362269 0.8994983 0.6024053
v -0.5987236 1.15746 0.8784155
v -1.063158 1.766548 1.251296
v -0.4713758 0.3197449 0.9664089
v -0.5270507 1.551534 1.330644
v -0.2192446 0.7990018 1.182464
v -0.1722643 1.186795 1.6153
v -0.6323854 0.6391709 0.3032587
v -0.1541649 1.671582 0.5705504
v -0.6498293 1.627382 1.628083
v -1.12805 0.5949706 1.360791
v -1.38797 1.394536 0.8641219
v -0.7559369 0.7247566 1.583804
v 0.1940443 0.9205239 0.9317122
v -0.4379892 1.590303 0.2120305
v -0.2431221 2.152447 0.6533384
v 0.6755416 2.152447 0.351231
v 0.3555688 2.333158 0.9260551
v 0.06515622 1.973299 0.04295283
v -0.8179461 2.333158 0.3333657
v 0.9482583 2.333158 -0.24746
v -0.5452294 2.152447 -0.2653253
v 0.3734345 2.152447 -0.5674328
v -0.2252567 2.333158 -0.8401495
v 0.8679568 1.716019 0.3770828
v -0.2937667 1.194639 -0.1219015
v -0.7728254 2.458992 -0.3276674
v 0.3888981 2.980371 0.1713172
v -0.2949723 2.363794 0.8479277
v 0.204717 2.880822 -0.3154368
v 0.408765 1.614683 -0.7904965
v -0.09092414 1.097656 0.3728679
v 0.6432493 2.695366 0.1960699
v 0.2867145 2.695366 -0.7028708
v 0.8796546 2.876077 -0.4178665
v 0.01551151 2.516219 -0.07513314
v 0.358245 2.876077 0.7890096
v -0.3272219 2.876078 -0.9392759
v -0.2556916 2.695366 0.5526046
v -0.6122267 2.695366 -0.3463363
v -0.8486319 2.876078 0.2676002
v 0.3010067 2.258939 -0.896488
v -0.1275712 1.737559 0.2930109
v -0.3043036 3.001912 0.7835234
v 0.1242745 3.523291 -0.4059758
v 0.8405929 2.906714 0.2361839
v -0.3505867 3.423742 -0.1929995
v -0.8370049 2.157604 -0.3682562
v 0.3541745 1.640576 0.06092685
v 0.2498529 1.926546 -1.129015
v 0.2653383 1.047307 -1.258728
v 0.6157103 1.531 -1.449863
v -0.1342616 1.44127 -0.9311745
v -0.2285429 2.331969 -1.124343
v -0.1987714 0.6415619 -1.373726
v -0.6129121 1.88053 -0.920099
v -0.5974267 1.001291 -1.049812
v -1.043024 1.44253 -1.048206
v 0.4399609 0.8373179 -0.9149603
v -0.2068489 1.593213 -0.1465116
v -0.7999615 2.091948 -1.136327
v -0.1531519 1.336053 -1.904775
v 0.351925 2.061342 -1.33737
v -0.5954105 1.31955 -1.701451
v -0.6563265 0.8298763 -0.5452667
v 0.2910087 1.571667 -0.1811866
v 1.737232 1.864232 -0.2281734
v 1.93444 1.008052 -0.0933054
v 2.2523 1.54769 -0.06156766
v 1.393481 1.315362 -0.2806588
v 1.398737 2.141173 -0.6775921
v 1.777886 0.4950967 -0.4182976
v 1.046505 1.625433 -0.7341364
v 1.243714 0.7692521 -0.5992684
v 0.9243231 1.08858 -1.034322
v 1.794256 0.8709192 0.2995149
v 0.7209387 1.499275 0.1167257
v 1.079271 1.769788 -1.057444
v 2.152588 1.141432 -0.8746545
v 1.949677 2.004934 -0.3122611
v 1.72266 1.032554 -1.075933
v 0.8301523 0.6241008 -0.2905352
v 1.05717 1.59648 0.4731364
v 0.8602723 2.05484 -1.104642
v 1.063367 1.196928 -1.218076
v 1.391753 1.729374 -1.174302
v 0.500591 1.516732 -1.161628
v 0.408239 2.406455 -1.36015
v 0.7987053 0.7570524 -1.578236
v 0.04024833 1.901275 -1.411408
v 0.2433435 1.043363 -1.524842
v -0.1848086 1.434134 -1.764084
v 1.047081 0.9765266 -0.8387049
v -0.01068336 1.590153 -0.5474139
v -0.02393484 2.110494 -1.69167
v 1.033829 1.496867 -1.982961
v 1.040594 2.217432 -1.21887
v 0.5596828 1.416636 -2.060121
v -0.05903864 0.8227072 -1.141052
v 0.421873 1.623504 -0.2998027
v -0.6969793 1.749221 -1.179859
v -1.052767 1.007393 -1.685523
v -0.7615085 1.60304 -1.842146
v -1.010195 1.144421 -0.9943575
v -0.9358608 2.066289 -0.6261799
v -1.61989 0.6400645 -1.598359
v -1.23414 1.489297 -0.4205914
v -1.589927 0.7474683 -0.9262552
v -1.794243 1.103314 -0.3823928
v -0.7453772 0.6429577 -1.70035
v -0.473763 0.8425299 -0.3768792
v -1.462173 1.783008 -0.3158479
v -1.733788 1.583436 -1.639319
v -0.7200255 2.00157 -1.323983
v -1.94011 1.40351 -1.186513
v -1.339467 0.302322 -0.6463342
v -0.1193832 0.9003815 -0.7838038
v -1.016284 1.471072 -1.749221
v -0.2354741 1.700318 -1.229249
v -0.5195315 1.934261 -1.802606
v -0.7313206 1.202421 -1.161922
v -1.270446 0.8646386 -1.927538
v 0.2307243 1.305382 -0.9278498
v -1.016627 0.5876232 -1.359212
v -0.2358164 0.8168691 -0.8392394
v -0.52019 0.2357595 -1.052782
v -0.3508364 1.961473 -0.8471354
v -1.422682 1.14236 -0.6341063
v -0.9953812 0.3219179 -1.638829
v 0.07646388 1.141031 -1.851859
v -0.9808826 1.530101 -2.032496
v -0.0007094145 0.6931053 -1.580967
v -0.4685254 0.8333033 -0.3055565
v -1.448699 1.670298 -0.7570858
v 0.6345053 0.9862293 -1.526849
v 1.348841 1.599586 -1.312123
v 0.9275548 1.515089 -1.840833
v 1.070548 1.0454 -0.9748851
v 0.5855466 0.3120579 -1.441687
v 1.958914 1.491285 -1.028858
v 0.9930608 0.3481102 -0.896903
v 1.707397 0.961467 -0.6821766
v 1.616906 0.288254 -0.6297117
v 1.201905 1.940573 -1.012691
v 0.5199721 0.9954875 -0.3006809
v 1.067865 0.01490664 -1.077504
v 1.749799 0.9599923 -1.789515
v 0.6091381 0.9433072 -1.814071
v 1.869862 0.6421493 -1.383884
v 1.556746 1.109195 -0.1392936
v 0.2960229 1.410353 -0.5694805
v -0.6812462 0.9737459 1.633211
v -1.178989 1.48204 1.26667
v -0.9974198 1.412017 1.796663
v -0.8678572 1.022781 1.080959
v -0.6193155 0.4150543 1.580377
v -1.576266 1.39229 0.8756715
v -0.7856591 0.4449314 1.041674
v -1.283402 0.9532254 0.6751326
v -1.198162 0.3953278 0.6593855
v -0.9809119 1.764619 1.073884
v -0.2503594 0.9814183 0.7080745
v -0.8943428 0.1688026 1.161801
v -1.624896 0.9520032 1.52761
v -0.7414393 0.9381762 1.864455
v -1.605636 0.6886041 1.177574
v -1.014623 1.075649 0.2933647
v -0.1504269 1.325221 0.9802454
v 0.2463875 0.736447 1.621715
v -0.002067685 1.382024 1.219269
v 0.3761923 1.285886 1.62724
v -0.1589193 0.8185709 1.207961
v -0.04332483 0.3056533 1.84363
v -0.5210006 1.546828 1.069897
v -0.4384786 0.3623189 1.444374
v -0.6869338 1.007897 1.041928
v -0.9405178 0.5665951 1.286288
v 0.1624738 1.40083 0.8603481
v -0.008191109 0.2883993 0.7407819
v -0.5852129 0.2722895 1.714288
v -0.4145477 1.384721 1.833854
v 0.3217165 0.791467 1.844561
v -0.7427804 1.138501 1.679212
v -0.6715376 0.838214 0.5903233
v 0.3929592 0.4911803 0.7556728
v 1.499701 0.6542026 1.294951
v 1.615019 1.399801 1.028029
v 1.87936 1.06028 1.393559
v 1.205218 0.9959028 0.9224846
v 1.027237 0.3861035 1.448784
v 1.248946 1.819577 0.9356045
v 0.7285822 0.6984769 1.085477
v 0.8439007 1.444076 0.8185549
v 0.396823 1.145401 0.9908285
v 1.784775 1.400933 0.6710503
v 1.101669 0.5536445 0.3605751
v 0.5440247 0.6438602 1.3413
v 1.22713 1.491149 1.651775
v 1.581635 0.6244429 1.520259
v 0.8283861 1.467712 1.470864
v 0.7963604 1.37307 0.3435028
v 1.549609 0.5298008 0.3928974
v 0.843107 1.190718 0.1304979
v 0.502443 0.7149997 -0.7016586
v 1.109169 0.698297 -0.3187039
v 0.2116642 1.237318 -0.2594301
v 0.7952127 1.878225 0.3307244
v 0.1402588 0.9636182 -1.269163
v 0.1758437 1.942442 -0.02607879
v -0.1648202 1.466723 -0.8582355
v -0.1736977 2.143546 -0.6197352
v 0.1887615 0.3405728 -0.5838596
v -0.4258755 1.191321 0.4000809
v 0.3733586 2.296922 -0.05660233
v 0.9879959 1.446174 -1.040543
v 1.148633 1.221584 0.1292862
v 0.5664791 1.810805 -1.046981
v -0.72245 1.297698 -0.6660966
v -0.140296 0.7084779 0.5101704
v -1.627915 2.662865 0.2798774
v -1.005392 2.783725 0.4671893
v -1.420357 2.782032 0.6802908
v -1.20687 2.670646 0.04264492
v -1.861731 2.791439 -0.1027589
v -0.6648797 3.023801 0.257363
v -1.464539 2.793511 -0.3473931
v -0.8420151 2.91437 -0.1600812
v -1.106254 3.033208 -0.5256869
v -0.8387873 2.506725 0.5139162
v -1.225689 2.158011 -0.2627192
v -1.617237 2.988397 -0.4405067
v -1.230335 3.33711 0.3361287
v -1.76039 2.765505 0.3883111
v -1.141629 3.338932 -0.01513934
v -0.6572835 2.600281 -0.3221602
v -1.276045 2.026855 0.08129036
v -0.9639291 1.888473 -1.470128
v -0.3102975 1.911516 -1.211919
v -0.5570548 2.15541 -1.566478
v -0.7195858 1.618781 -1.107156
v -1.255328 1.502729 -1.581367
v 0.001331866 1.547032 -1.084939
v -1.036689 1.232553 -1.227407
v -0.3830571 1.255597 -0.9691984
v -0.6969414 0.8943518 -1.099828
v -0.2981308 2.086986 -0.9124374
v -1.135789 1.632795 -0.6279829
v -1.100592 1.059485 -1.439741
v -0.2629331 1.513675 -1.724196
v -0.971241 1.945093 -1.67457
v -0.3431446 1.186458 -1.537297
v -0.4667465 1.262141 -0.5534928
v -1.094843 2.020776 -0.690766
v -1.63262 0.4148425 -1.055778
v -1.211968 1.087674 -1.20817
v -1.589159 0.7728536 -1.497229
v -1.233938 0.7209929 -0.7456723
v -1.477204 -0.07330954 -0.8057911
v -0.6684674 1.220263 -1.098777
v -1.095505 0.2074369 -0.4888883
v -0.6748533 0.8802686 -0.6412804
v -0.5565122 0.3740996 -0.4073386
v -1.378379 1.40629 -1.03476
v -1.559182 0.7811629 -0.0954656
v -0.9714618 -0.0830493 -0.5574945
v -0.7906591 0.542078 -1.496789
v -1.679542 0.2878131 -1.258645
v -0.5564141 0.4554425 -1.131242
v -0.7591283 1.129467 -0.2310505
v -1.882256 0.9618379 -0.3584533
v -0.1502507 0.3004463 -1.547887
v 0.2817494 0.9832547 -1.552567
v 0.2301137 0.5354531 -1.90149
v -0.1006805 0.7497687 -1.167764
v -0.2636938 -0.06595731 -1.126201
v 0.5668612 1.246797 -1.135197
v -0.2319431 0.3576263 -0.7460576
v 0.2000573 1.040435 -0.7507371
v 0.07305365 0.6453864 -0.3599086
v 0.06100696 1.294859 -1.668564
v -0.7985348 0.9060792 -1.02375
v -0.115943 0.09068691 -0.6054772
v 0.7435989 0.4794664 -1.250292
v -0.03700519 0.1191891 -1.665422
v 0.6196617 0.5381193 -0.8293404
v -0.147766 1.363337 -0.6400825
v -0.8044327 0.9444067 -1.476164
v -1.160539 2.563963 -0.6585244
v -0.4859451 2.930081 -0.9299356
v -0.9157897 3.077371 -0.5786353
v -0.7308067 2.398024 -1.035263
v -1.548772 2.241227 -0.9323661
v -0.2518114 2.94512 -1.454176
v -1.144417 2.060267 -1.297911
v -0.4698228 2.426386 -1.569322
v -0.8847936 2.108976 -1.807907
v -0.1599377 2.803651 -0.7313606
v -0.5615145 1.726205 -0.7898002
v -1.423853 2.084148 -1.463461
v -1.022276 3.161593 -1.405022
v -1.339654 2.724757 -0.6089328
v -0.9826991 2.828131 -1.698642
v -0.1411787 2.069228 -1.494978
v -0.4981337 1.965854 -0.4052694
v -0.1895223 1.915003 1.347771
v -0.1008446 1.876231 0.5384271
v -0.01552844 1.512592 0.9756539
v -0.2717252 2.310046 0.9093805
v -0.05595499 2.331461 1.721136
v 0.1145347 2.256919 0.1651072
v -0.1428993 2.728075 1.313928
v -0.05422163 2.689303 0.5045841
v 0.074108 3.075788 0.9105891
v -0.4539695 1.817271 0.354254
v -0.9366464 2.5819 1.069219
v 0.1017634 2.832025 1.502755
v 0.5844402 2.067396 0.78779
v -0.03095579 1.768305 1.465586
v 0.5241349 2.509839 0.7794286
v -0.484899 2.877736 0.3607255
v -1.039989 2.136203 1.046883
v 0.4472944 0.5013169 0.5306249
v 0.7234324 0.3894287 -0.16366
v 0.9352903 0.4593614 0.3204046
v 0.2108773 0.4423641 0.03502315
v 0.0488025 0.8113626 0.7014145
v 0.5797001 0.5962483 -0.6334041
v -0.1987531 0.7556044 0.2326928
v 0.07738495 0.643716 -0.4615924
v -0.3067877 0.9482494 -0.2523943
v 0.3981979 0.4463149 -0.3429838
v -0.2486668 0.1247667 -0.7707407
v 0.3204165 0.2361749 -0.891233
v -0.1916091 0.3507367 -0.2030521
v 0.4278575 0.9112483 0.02272522
v -0.8157918 0.2930461 -0.7996715
v -0.1368995 0.8270243 0.1800215
v -0.7837643 0.5054761 -0.2477355
v -0.7083509 0.9681194 0.1142866
v -0.5767601 0.6817983 -0.3646671
v 0.0648514 1.152933 -0.09788987
v -0.2218439 1.086416 -0.6118618
v -0.2838709 0.7266165 0.1727301
v -0.7058409 0.1121053 -0.2668207
v 0.5277085 1.0179 0.2460799
v -0.4386355 0.1393883 0.2610458
v 0.2029761 0.6105233 0.5278228
v 0.0437116 0.04358912 0.5911209
v -1.361897 1.793851 0.3187839
v -1.270288 2.360814 0.3244979
v -0.7030237 2.271715 0.336551
v -0.7780692 1.68142 0.3441112
v -1.48445 1.312319 0.6068475
v -0.2177136 2.231052 0.6410065
v -0.92581 1.180998 0.6302707
v -0.2669365 1.658863 0.6480379
v -0.4318753 1.182556 0.9233561
v -0.02117717 1.582066 0.3391654
v -0.9384789 1.513373 -0.353227
v -1.616895 1.856119 0.5115541
v -0.699593 1.924812 1.203947
v -0.967613 1.072754 0.8469089
v -0.9294565 2.218017 0.9586515
v -0.6141495 2.315136 -0.144398
v -0.652306 1.169874 -0.2561404
vn -0.01475181 -0.2125947 0.9770291
vn -0.8489444 0.09037667 0.5206971
vn -0.01896039 -0.211741 0.9771419
vn -0.821614 0.3549228 -0.446072
vn -0.8512453 0.09199502 0.5166414
vn 0.04573042 0.3130811 -0.9486248
vn -0.8212761 0.355007 -0.4466271
vn 0.8756325 0.008390136 -0.4829052
vn 0.04154252 0.3139369 -0.9485345
vn 0.8423795 -0.2527116 0.4759555
vn 0.8733507 0.01001236 -0.4869891
vn -0.01475181 -0.2125947 0.9770291
vn 0.8427204 -0.252627 0.4753966
vn 0.8247666 -0.08791994 -0.5585967
vn 0.8953082 -0.05028209 0.4426002
vn 0.9062072 -0.2058928 0.3693193
vn 0.7973246 0.01256214 -0.6034201
vn -0.0712958 -0.01406596 -0.9973561
vn 0.8620608 -0.1987256 0.4662181
vn -0.04985119 0.2382968 -0.9699121
vn -0.8918003 0.09533574 -0.4422707
vn 0.8822743 0.07916209 -0.4640318
vn 0.8514714 0.1240423 -0.5095194
vn -0.8420278 0.2760767 -0.4634338
vn -0.8182846 0.1321555 0.5594152
vn 0.01980774 0.3399301 -0.9402421
vn -0.03456005 0.2015004 -0.9788786
vn -0.8675358 0.08593965 0.4898939
vn 0.07678675 0.0595148 0.9952697
vn -0.8743209 0.2971752 -0.3837315
vn -0.8805364 0.1538685 -0.448308
vn 0.02330573 -0.1746196 0.9843602
vn 0.8953082 -0.05028209 0.4426002
vn 0.9062072 -0.2058928 0.3693193
vn -0.8037215 -0.005845414 0.5949769
vn -0.8356962 0.0291985 0.5484153
vn 0.05918176 -0.2392894 0.969143
vn 0.04999667 -0.04793122 0.9975986
vn 0.8620608 -0.1987256 0.4662181
vn 0.8787569 -0.001318976 0.4772678
vn 0.9603091 -0.02554413 -0.2777661
vn 0.721517 -0.03352353 0.6915847
vn 0.7324121 0.0959172 0.6740715
vn 0.9581867 0.1274506 -0.2561924
vn 0.2396999 0.02024823 -0.9706359
vn 0.7131764 -0.07171328 0.6973068
vn 0.2848769 0.05534774 -0.9569649
vn -0.7209552 0.05845313 -0.6905121
vn 0.9290465 0.1003918 -0.3560815
vn 0.7227502 -0.1570742 0.6730229
vn -0.6919562 -0.05711225 -0.7196769
vn -0.9593022 0.05060521 0.2778098
vn 0.148468 0.179243 -0.9725375
vn 0.9696983 -0.03898557 -0.2411751
vn 0.956699 0.0492394 -0.2868843
vn -0.951665 -0.09365205 0.2925115
vn -0.2398216 0.004456078 0.9708068
vn 0.2777029 0.1509717 -0.9487301
vn 0.2208101 0.03484742 -0.9746941
vn -0.7380143 0.1086658 -0.665978
vn -0.1906197 -0.01135672 0.9815983
vn 0.721517 -0.03352353 0.6915847
vn 0.7324121 0.0959172 0.6740715
vn -0.7324663 0.2147127 -0.6460586
vn -0.7328039 0.02508803 -0.6799772
vn -0.973367 -0.03844253 0.2260062
vn -0.3205311 -0.1347471 0.937605
vn 0.7131764 -0.07171328 0.6973068
vn -0.9283696 0.07763128 0.3634602
vn -0.9543101 0.03053844 0.2972537
vn -0.1766579 -0.104122 0.9787495
vn -0.212716 0.04442506 0.9761037
vn 0.7227502 -0.1570742 0.6730229
vn 0.730356 0.05316372 0.6809946
vn 0.7870314 0.5806109 0.2085011
vn -0.01716462 0.6217258 0.7830468
vn 0.006486143 0.4094971 0.9122884
vn 0.8880951 0.3765235 0.2636611
vn 0.9058192 0.1670059 0.3893591
vn 0.7963097 -0.0029525 -0.6048819
vn 0.741223 -0.01487144 -0.6710941
vn 0.7911189 0.0475431 -0.609812
vn -0.01418734 -0.5463719 -0.8374225
vn -0.1146636 -0.325712 -0.9384903
vn -0.1253104 -0.06060545 -0.9902648
vn -0.8235054 -0.504882 -0.258714
vn -0.8684583 -0.3011814 -0.3937893
vn -0.9079129 -0.04896921 -0.4162886
vn -0.8268157 0.08112054 0.5565926
vn -0.8666344 0.03995586 0.4973413
vn -0.815373 0.07161935 0.5744889
vn -0.01716462 0.6217258 0.7830468
vn 0.006486143 0.4094971 0.9122884
vn 0.1051885 0.178596 0.9782836
vn 0.960081 0.1574365 0.2312102
vn 0.2576257 0.1879953 0.94778
vn 0.3328288 0.1123486 0.9362707
vn 0.9446926 0.275651 0.1776864
vn 0.6968718 -0.01135627 -0.7171057
vn 0.2432256 -0.00182668 0.969968
vn 0.6574671 0.201089 -0.7261544
vn -0.2639313 -0.1505806 -0.9527149
vn 0.9371328 0.2337867 0.2590867
vn 0.318515 0.07913627 0.9446087
vn -0.2345678 -0.0344297 -0.9714898
vn -0.9647055 -0.1195331 -0.2346385
vn 0.6177058 0.2486741 -0.7460568
vn 0.9522055 0.2204922 0.2113949
vn 0.9060448 0.3567687 0.2275934
vn -0.9318528 -0.2199784 -0.2885481
vn -0.7011024 0.04989038 0.7113132
vn 0.6684506 0.2075569 -0.7142087
vn 0.618756 0.3245398 -0.7154124
vn -0.3634951 0.02737479 -0.9311938
vn -0.6661143 -0.1517952 0.7302397
vn 0.2576257 0.1879953 0.94778
vn 0.3328288 0.1123486 0.9362707
vn -0.2742977 0.05092113 -0.9602957
vn -0.3116234 0.05996775 -0.9483115
vn -0.9631178 -0.1879394 -0.1925694
vn -0.6697126 -0.2014154 0.7147845
vn 0.2432256 -0.00182668 0.969968
vn -0.9678379 -0.1020945 -0.2299271
vn -0.9589881 -0.1752515 -0.222775
vn -0.656262 -0.08632225 0.749579
vn -0.6656151 -0.1415457 0.7327492
vn 0.318515 0.07913627 0.9446087
vn 0.271773 0.1264966 0.9540115
vn -0.2961654 0.1672164 0.9403854
vn -0.9733244 0.08470416 0.213225
vn -0.9303918 0.3199711 0.178856
vn -0.309845 0.3366172 0.8892047
vn 0.6826576 0.1045794 0.7232162
vn -0.911643 0.3960561 0.109757
vn 0.620173 0.06524894 0.7817467
vn 0.9746022 -0.0396888 -0.2203983
vn -0.2315897 0.336133 0.9128969
vn -0.3057424 0.1932418 0.9322978
vn 0.9522489 -0.2604491 -0.1593373
vn 0.2999515 -0.122717 -0.9460284
vn 0.7011754 -0.04074581 0.7118236
vn 0.6618639 -0.009500389 0.7495638
vn 0.217145 -0.264312 -0.939674
vn -0.6789154 -0.06095435 -0.7316819
vn 0.9268394 -0.3254454 -0.1872275
vn 0.9700764 -0.1512327 -0.1899482
vn -0.7093829 0.038915 -0.7037483
vn -0.9733244 0.08470416 0.213225
vn -0.9303918 0.3199711 0.178856
vn 0.3135648 -0.2700929 -0.9103444
vn 0.3325554 -0.09228026 -0.938558
vn -0.5892508 0.07605109 -0.804363
vn -0.6305322 0.1099982 -0.768329
vn -0.911643 0.3960561 0.109757
vn -0.9517688 0.2529861 0.1735922
vn -0.1771913 0.1709169 0.9692217
vn -0.9405659 0.07934267 0.3302128
vn -0.8770032 -0.2194118 0.4274621
vn -0.06580921 0.1582432 0.9852047
vn 0.7703329 0.1141199 0.6273467
vn -0.9021093 -0.2287003 0.3659168
vn 0.7458432 0.3898734 0.540108
vn 0.9403023 -0.03330772 -0.3387065
vn -0.2986337 0.20104 0.9329528
vn -0.2829834 0.4127665 0.8657622
vn 0.8762235 0.3073379 -0.3711816
vn 0.1727198 -0.1270242 -0.976746
vn 0.5764913 0.5305863 0.6213984
vn 0.6853889 0.4377245 0.5819272
vn 0.2387929 -0.009917757 -0.9710199
vn -0.7721372 -0.06837238 -0.6317667
vn 0.8311084 0.3846069 -0.4016669
vn 0.930004 0.1301345 -0.3437407
vn -0.6777582 -0.3029869 -0.6699574
vn -0.9405659 0.07934267 0.3302128
vn -0.8770032 -0.2194118 0.4274621
vn 0.07588144 -0.1104031 -0.990986
vn 0.2019553 -0.1841914 -0.9619187
vn -0.7526973 -0.3850172 -0.5340492
vn -0.7519515 -0.1901925 -0.6311861
vn -0.9021093 -0.2287003 0.3659168
vn -0.9602081 0.1003329 0.2606413
vn 0.9831104 0.0561156 -0.1741979
vn 0.7499356 0.6436515 -0.152674
vn 0.2969136 0.0137961 -0.9548047
vn 0.8984144 0.1746586 -0.4029217
vn 0.8368962 0.3881191 -0.3859641
vn -0.1128115 0.02840409 -0.9932104
vn 0.8859712 0.4091318 -0.2183256
vn 0.1067174 0.5175992 -0.8489419
vn 0.7543718 0.1929859 -0.627439
vn -0.3993181 0.3256054 -0.8570451
vn -0.02758121 0.1292062 0.9912341
vn 0.9982528 0.05868298 -0.006899328
vn 0.5791548 0.2304309 -0.7819728
vn 0.9634684 0.2486738 -0.0994489
vn 0.6182442 0.1312392 -0.7749519
vn -0.2675157 -0.1404022 -0.9532694
vn -0.05914783 0.3406715 0.93832
vn -0.7827846 -0.4819747 0.3936354
vn -0.7563968 0.1640372 -0.6332107
vn -0.7561486 0.4563106 0.4690627
vn -0.6255965 -0.7709954 0.1191433
vn -0.6968486 -0.7170407 -0.01596019
vn -0.664218 0.3582882 -0.6560824
vn -0.6994209 -0.6395553 0.3190289
vn -0.7707108 0.5862027 -0.2497423
vn -0.710183 -0.5810704 -0.3974888
vn -0.4589324 0.3379631 0.8216825
vn -0.8694905 -0.4818517 -0.1086512
vn -0.8404799 -0.5163078 0.1643774
vn -0.7017598 0.3047051 -0.6439628
vn -0.8718139 -0.2923129 0.393057
vn -0.9187893 0.3501169 -0.1823304
vn 0.3271013 -0.6035314 -0.7271551
vn -0.7521191 -0.6177109 0.229674
vn -0.07998987 -0.07399424 0.9940455
vn 0.7316779 -0.2215762 0.6446328
vn 0.3560958 -0.1113249 0.9277945
vn 0.6131341 -0.2214576 0.7583027
vn 0.1261366 0.3706247 0.9201776
vn 0.9853414 -0.1100543 0.1303469
vn -0.1233297 0.2477914 0.9609315
vn 0.9514735 -0.07100174 -0.2994277
vn 0.9054524 0.2973666 -0.3028681
vn 0.6942756 -0.4660001 0.5484756
vn -0.2858838 -0.4218113 0.8604335
vn -0.05909962 0.3406885 0.9383169
vn 0.7965621 0.1909163 0.5736198
vn 0.005567104 0.03701772 0.999299
vn 0.9481947 0.2366755 0.2119235
vn 0.719157 -0.4066339 -0.5634378
vn -0.2304173 -0.4615566 0.8566641
vn -0.6484916 0.06373971 0.7585484
vn -0.4493794 0.456676 0.7677924
vn -0.4670171 0.3680167 0.8040267
vn -0.7162894 0.2352981 0.6569356
vn -0.7089562 0.55225 0.4386355
vn -0.5934563 0.7948897 0.1263323
vn -0.8172616 0.555022 0.1550294
vn -0.9836162 0.04649126 -0.1741777
vn -0.9458885 0.1686142 -0.277244
vn -0.1249168 0.1284092 0.9838225
vn -0.5135124 0.2377408 0.8244902
vn -0.8756726 0.4759048 0.08192728
vn -0.7504736 0.5848698 0.307761
vn -0.6515674 0.1418845 0.7452039
vn -0.9206263 0.3882162 0.04165715
vn -0.7753561 0.04957409 -0.6295756
vn -0.5366013 0.5644419 0.6272674
vn -0.2232736 0.3096911 0.9242512
vn -0.410274 0.4926745 0.7674289
vn -0.5019028 0.4751774 0.7227032
vn -0.3328988 0.05929844 0.9410962
vn -0.6219748 0.3589505 0.695918
vn -0.1425654 0.789129 -0.5974534
vn -0.868396 0.2347653 0.4367764
vn -0.3141682 0.217521 -0.924112
vn -0.889697 0.2829849 -0.3582721
vn -0.4424247 0.232784 0.866067
vn -0.3139488 0.5569018 0.7689582
vn -0.8730152 0.4328081 0.2247702
vn 0.02045369 0.9604949 0.2775449
vn -0.1892717 0.4574707 0.868848
vn -0.1752199 0.9828979 -0.05665427
vn -0.6912695 0.2481318 -0.6786584
vn -0.5664583 0.6518879 0.5041499
vn -0.2967969 0.6515254 0.6981592
vn -0.3765999 0.8030761 0.4617805
vn -0.0519121 0.7325943 0.6786831
vn -0.06364027 0.8555273 0.5138317
vn -0.6967375 0.5988065 0.3949529
vn -0.1351859 0.9807885 0.1406371
vn -0.5479259 0.8354573 0.04229039
vn -0.2038449 0.9745925 -0.09282655
vn 0.02084561 0.8716782 -0.4896351
vn -0.2455569 0.6673593 0.7030885
vn -0.1418857 0.2299099 0.9628136
vn -0.6441082 0.7534508 -0.1320471
vn 0.02049905 0.9751726 0.2204955
vn -0.3302508 0.6928302 0.641031
vn 0.09390581 0.9949725 -0.03480722
vn -0.2300505 0.7992359 -0.5552465
vn -0.270782 0.2278202 0.9352941
vn 0.08447547 0.6770408 0.7310812
vn 0.5680386 0.8172076 0.09748825
vn 0.5882924 0.6237628 0.5146183
vn -0.137815 0.946095 0.2931061
vn -0.1766164 0.7498001 0.637657
vn 0.2978256 0.8489807 -0.4364994
vn -0.355586 0.8617842 0.3617827
vn -0.2149184 0.9509877 -0.2223342
vn -0.3439872 0.9365431 -0.06752601
vn 0.8486977 0.5288767 -0.001354664
vn -0.3083317 0.5307263 0.789469
vn -0.3213261 0.8890951 0.3259748
vn 0.36791 0.9274029 0.06757402
vn 0.1994065 0.672337 0.7128815
vn 0.07097048 0.9974778 -0.001133859
vn 0.03314438 0.9012819 -0.4319634
vn -0.4424298 0.2327497 0.8660736
vn 0.8211645 0.2793266 0.4976601
vn 0.8131623 0.4929553 0.3094544
vn 0.6494581 0.58584 0.4847637
vn 0.9305348 0.3165959 0.1840435
vn 0.75006 0.6441216 0.150058
vn 0.954465 0.209847 -0.2120399
vn 0.9371985 0.3155033 -0.1487164
vn 0.8595291 0.3329698 -0.387738
vn 0.8744144 -0.09681156 -0.475423
vn 0.6396918 0.3821432 0.666904
vn 0.3068957 0.1078129 0.945617
vn 0.8316962 0.4677199 -0.2991984
vn 0.8550217 0.5155499 -0.05609206
vn 0.8045613 0.3387126 0.4878063
vn 0.9113368 0.2849695 -0.2970818
vn 0.8942583 0.3806747 -0.2353483
vn 0.235757 0.006065533 0.9717931
vn 0.5719571 0.4153433 0.7073578
vn 0.8831976 0.43392 0.1779761
vn 0.6275742 0.5534428 0.5475872
vn 0.7130852 0.5088177 0.4823008
vn 0.3774943 0.770305 0.5139341
vn 0.9458563 -0.0446551 -0.3214995
vn 0.3000913 0.9429377 0.1442698
vn 0.8383845 0.30431 -0.4522243
vn 0.3449173 0.8387996 -0.4212451
vn 0.6842656 0.601881 0.4117278
vn -0.4932355 0.4368031 0.7522777
vn 0.3027274 0.9504308 0.07097507
vn 0.9455709 0.3163835 0.07613886
vn 0.5801563 0.4648202 0.6688504
vn 0.8501176 0.5062995 -0.1447782
vn 0.06177542 -0.05067904 -0.9968026
vn -0.1894581 0.01383036 0.9817914
vn 0.3515075 0.3666964 0.8613804
vn 0.1847439 0.2591516 0.9480032
vn 0.003939554 0.3911192 0.9203317
vn 0.3628441 0.4737583 0.8024321
vn -0.2770114 0.3266684 0.9036329
vn 0.6607472 0.6204723 0.4224067
vn -0.5772137 0.6202998 0.5310861
vn -0.4766715 0.2539962 0.8415879
vn -0.5488033 0.3178758 0.7731558
vn 0.628461 0.4036494 0.664909
vn 0.3213955 -0.5840219 0.7454015
vn -0.6168029 0.5609147 0.5522037
vn -0.1399942 0.5078126 0.8500165
vn 0.2906721 0.3986734 0.8698099
vn -0.4102823 0.4926066 0.767468
vn -0.2592869 0.2571422 -0.9309394
vn -0.154364 -0.5351204 0.8305528
vn -0.9556255 0.1481635 0.2546124
vn -0.3810446 0.3580591 0.8524076
vn -0.2232635 0.3097544 0.9242325
vn 0.3679907 -0.0332192 -0.9292359
vn -0.8680281 -0.05092942 -0.493896
vn 0.2965038 0.909468 -0.291468
vn -0.2333737 -0.07048944 -0.9698288
vn -0.1304502 0.1308853 -0.9827776
vn 0.146551 0.01889541 -0.9890226
vn 0.07841088 0.03799742 0.9961967
vn 0.2500761 0.6282546 -0.7367212
vn -0.3599689 0.02013183 -0.9327471
vn 0.05684856 0.9971051 -0.05049432
vn -0.9145024 0.141129 0.3791673
vn 0.1453663 0.781493 -0.6067432
vn -0.04466546 0.4480296 -0.8929023
vn -0.7127836 -0.7001023 -0.04238493
vn 0.006069898 0.7858386 -0.6184019
vn 0.302768 0.9504187 0.07096391
vn 0.1333964 0.9711297 -0.197769
vn 0.2364918 0.6926928 -0.6813577
vn 0.08007814 0.4542681 -0.8872587
vn 0.793955 0.5080529 0.3339427
vn 0.2868148 0.1018195 -0.9525598
vn 0.95417 -0.1102525 -0.2782158
vn 0.6755695 0.470931 -0.5673004
vn 0.007596522 0.9059974 0.4232152
vn 0.07787195 -0.2244016 -0.9713804
vn 0.3839958 0.05799749 -0.9215115
vn 0.7123747 0.6635095 -0.2286422
vn 0.04708162 0.825116 -0.5629982
vn 0.8372546 0.3846484 -0.3886521
vn 0.9086671 0.1379889 -0.3940599
vn 0.1072353 0.8715826 -0.4783767
vn 0.3947948 -0.2623478 0.8805173
vn -0.179578 -0.3964289 0.900331
vn 0.41155 -0.5125059 0.753634
vn 0.1470524 -0.1208091 0.9817234
vn 0.2981564 0.317782 0.9000652
vn 0.5489174 -0.3431226 0.7622051
vn 0.04186319 0.4623163 0.8857263
vn 0.4333847 -0.07666741 0.897942
vn 0.1892381 0.3948785 0.8990328
vn -0.1227398 -0.5572191 0.8212441
vn 0.1917589 -0.5901531 0.7841862
vn -0.05912076 0.3407265 0.9383017
vn 0.1685512 -0.1050845 0.9800754
vn 0.2577095 -0.2361381 0.9369229
vn 0.2630423 0.07290334 0.9620259
vn 0.8487499 -0.1376643 -0.5105608
vn 0.09901109 -0.5917176 0.8000419
vn 0.2601577 0.239128 0.935487
vn 0.2782253 0.3985481 0.873928
vn -0.1409533 0.05964185 0.9882181
vn -0.144727 0.2275612 0.9629486
vn 0.7503952 0.3023182 0.5878017
vn -0.241661 0.08819614 0.9663444
vn 0.7028252 0.5632242 0.4345289
vn 0.09063924 0.1805545 0.9793797
vn 0.7540652 0.2238951 0.6174598
vn 0.3813964 0.563104 0.7331102
vn 0.8595553 0.3329611 -0.3876874
vn 0.7588377 0.5742751 0.3072025
vn 0.01397633 0.4293187 0.9030449
vn 0.2350975 0.372301 0.8978425
vn 0.302592 0.3761813 0.875743
vn -0.1687238 -0.0698415 0.9831859
vn 0.1545047 0.1554719 0.9756827
vn -0.3487708 0.4792846 0.8053852
vn -0.8783413 -0.4653491 -0.1093929
vn -0.8771176 0.4698423 -0.09956337
vn -0.704007 -0.5880485 0.3982124
vn -0.471524 0.6859229 0.5542336
vn -0.6319488 -0.752674 0.1847229
vn -0.6266032 0.242666 0.7405954
vn -0.8226731 -0.5497189 0.1449762
vn -0.5818592 -0.419771 0.6965861
vn -0.805391 -0.5910698 -0.04451993
vn -0.8098981 -0.5496057 -0.2049358
vn -0.5166626 0.2599222 0.815782
vn -0.8269703 -0.08306924 0.5560752
vn -0.6444131 0.2871362 0.7087204
vn -0.8063993 -0.2078545 0.5536395
vn -0.8084214 -0.5510854 0.2067846
vn 0.09615463 0.3221726 -0.9417851
vn -0.977017 0.01214835 -0.2128147
vn -0.7836568 -0.6210688 -0.01247249
vn -0.9205866 -0.3469671 -0.1792601
vn -0.9574246 -0.275331 0.0867807
vn -0.8920981 0.4517049 -0.01111901
vn -0.6437348 -0.6461691 0.4099647
vn -0.781381 0.445795 0.4367044
vn -0.6794657 -0.3311971 0.6547021
vn -0.5134956 0.2377132 0.8245088
vn -0.5983207 -0.7944465 -0.104245
vn -0.6913527 0.2880407 -0.6626191
vn -0.7698362 0.5040213 0.3915543
vn -0.9087962 -0.2400415 0.3412763
vn -0.9770327 0.0121542 -0.2127427
vn -0.8227621 -0.1430375 0.5500936
vn -0.798675 -0.3522713 0.4878762
vn -0.8962823 0.08281538 -0.4356831
vn 0.6088113 0.2707921 0.7456679
vn 0.9946904 -0.08667631 0.05548245
vn 0.6810752 -0.07263713 0.7286018
vn 0.9277785 0.3708304 0.04137405
vn 0.6413714 0.5029401 0.579391
vn 0.8831212 -0.03848569 -0.4675637
vn 0.8155019 0.5596539 0.1474595
vn 0.8395907 0.2709496 -0.4708225
vn 0.8296186 0.4364071 -0.3482554
vn 0.8658147 -0.1878202 -0.4637764
vn 0.883186 0.4339647 0.1779244
vn 0.8155556 0.5595859 0.1474201
vn 0.9894393 0.04514609 0.1377377
vn 0.6225954 0.2224297 0.7502666
vn 0.9733998 0.1826 -0.1383835
vn 0.8942032 0.3808083 -0.2353416
vn -0.05911872 0.3406731 0.9383213
vn -0.7378418 0.2658894 0.6203969
vn -0.7171155 -0.60794 0.3408144
vn -0.8195872 -0.3901845 0.4195628
vn -0.4765083 0.07635865 0.8758477
vn -0.5536304 0.4979675 0.6674742
vn -0.1897489 -0.7015631 0.6868804
vn -0.1984212 0.4142134 0.8882884
vn 0.1265536 -0.3032456 0.9444714
vn 0.1367953 0.07469993 0.9877788
vn -0.8533807 -0.51967 -0.04104241
vn -0.1332553 0.4651608 0.8751391
vn -0.1984322 0.4141717 0.8883054
vn -0.5818908 -0.4198066 0.6965383
vn -0.6918821 0.1621762 0.703561
vn -0.2973665 -0.2949414 0.9080654
vn 0.3206154 -0.1656469 0.932613
vn -0.2729917 0.5378438 0.7976213
vn -0.4345396 0.4875305 0.7572908
vn 0.2980877 0.02517955 0.9542063
vn 0.008839756 -0.0351863 0.9993417
vn -0.4345447 0.4875245 0.7572918
vn -0.2984672 0.08683882 0.9504611
vn 0.9834735 -0.04222598 -0.176059
vn 0.3679589 -0.03335164 -0.9292437
vn -0.1128132 0.02843566 -0.9932092
vn 0.1351475 -0.07815003 -0.9877387
vn 0.07908493 0.4327456 0.8980405
vn -0.7127942 -0.7000926 -0.0423646
vn -0.5948618 0.8026736 0.0430654
vn 0.007567614 0.9060174 0.4231727
vn -0.442389 0.2327624 0.866091
vn -0.2148989 0.9509943 -0.222325
vn -0.4281651 0.2743773 -0.8610411
vn 0.2657414 0.2375879 0.9343091
vn 0.4426988 0.6839027 0.5799094
vn -0.140606 0.6422377 -0.753499
vn 0.5724167 0.7655301 -0.2937731
vn -0.3549366 0.8226207 0.4442018
vn 0.007298887 0.5380563 0.8428774
vn 0.09277192 0.6710137 -0.7356181
vn -0.4270187 0.3958534 0.8129915
vn -0.002220303 0.9997147 -0.02378181
vn -0.2365519 0.7139809 0.658995
vn -0.07401311 -0.1101581 -0.9911546
vn -0.4345652 0.4875086 0.7572902
vn -0.4812219 0.543768 0.6875622
vn -0.182176 0.9644207 -0.1915846
vn 0.4997308 0.7636591 0.4087712
vn -0.004957318 0.9968015 0.07976323
vn -0.8336273 -0.202103 -0.5140232
vn 0.1544959 0.1554565 0.9756866
vn -0.3431378 0.1473075 -0.9276621
vn -0.3585035 -0.1298784 -0.9244495
vn 0.003092453 0.3487995 -0.9371923
vn -0.1546325 0.5698227 -0.8070879
vn 0.1351055 -0.07818548 -0.9877416
vn 0.4097379 -0.4833006 -0.7736507
vn 0.3882443 0.2793915 -0.8781838
vn 0.4090945 -0.05170099 -0.9110262
vn -0.5566599 0.6762054 -0.4825723
vn -0.2976923 -0.5936049 -0.7476714
vn -0.2592956 0.257157 -0.9309329
vn -0.1307845 -0.07496066 -0.9885729
vn 0.4621199 0.2666759 -0.8457713
vn -0.06370895 0.09629887 -0.9933115
vn 0.2208477 0.3393577 -0.9143646
vn -0.7833559 -0.5822873 0.2174744
vn -0.2593152 0.2572029 -0.9309148
vn 0.8158974 0.3782142 -0.4373391
vn 0.9525555 -0.03500402 -0.3023451
vn 0.9485972 0.2164018 -0.230941
vn 0.8820248 0.1929047 -0.4299071
vn 0.893058 -0.1345049 -0.4293668
vn 0.7867659 -0.2609788 -0.5593652
vn 0.8371277 0.420064 -0.3503761
vn 0.8774921 -0.3834232 -0.2880873
vn 0.6187307 -0.1287675 -0.7749783
vn 0.988741 -0.07344999 0.1303697
vn -0.05910968 0.3407069 0.9383096
vn 0.5653899 0.5138721 -0.6451898
vn 0.9813721 0.04335464 -0.1871611
vn 0.8369147 0.3880913 -0.3859521
vn 0.8895939 -0.122675 -0.43997
vn 0.4135773 -0.7406492 -0.5295211
vn 0.4617867 0.4381484 0.7712191
vn 0.4877492 0.2816399 -0.8263049
vn 0.6175021 0.0422627 -0.7854329
vn 0.681693 0.4717606 -0.5592286
vn -0.1547116 0.4900061 -0.8578802
vn 0.008893891 0.0594668 -0.9981907
vn 0.1613831 -0.3565275 -0.9202411
vn -0.4281819 0.2743748 -0.8610336
vn -0.3088389 -0.1279592 -0.9424675
vn 0.2891835 0.3475004 -0.8919734
vn 0.8094562 -0.2882014 -0.5115863
vn -0.2593134 0.257147 -0.9309307
vn -0.2801532 -0.1329446 -0.950705
vn 0.2503982 0.2042876 -0.9463442
vn 0.5649443 0.01007108 -0.8250676
vn 0.003186494 0.1723015 -0.9850391
vn 0.06932402 -0.471266 -0.8792624
vn -0.2592839 0.2571725 -0.9309319
vn 0.2050474 0.47077 -0.8580974
vn -0.3344539 -0.02630479 -0.942045
vn 0.06104755 0.5568521 -0.8283653
vn -0.7674599 0.5050803 -0.3948406
vn -0.6791049 -0.06673501 -0.7310013
vn -0.7278052 -0.3177563 -0.6077257
vn -0.6913528 0.2880489 -0.6626155
vn -0.9509416 -0.3077082 -0.03202863
vn -0.8410515 -0.369739 -0.3948741
vn 0.05693744 -0.4086143 -0.9109294
vn -0.7833788 -0.5822405 0.2175169
vn -0.8652621 0.3030584 -0.3993459
vn -0.6966193 0.4090565 -0.5894017
vn -0.02138653 -0.1029566 -0.9944559
vn -0.9161881 0.3420034 -0.2088854
vn -0.6966196 -0.6770724 0.2372638
vn 0.08828951 -0.6015418 -0.7939475
vn -0.2450538 0.4620135 -0.8523451
vn 0.14328 0.5886416 -0.7955953
vn 0.1771799 0.671738 -0.7192881
vn 0.1566296 0.5509303 -0.8197213
vn -0.4128561 -0.1139768 -0.9036366
vn -0.18185 0.4121678 -0.8927757
vn -0.3463066 -0.5967354 -0.7238636
vn 0.04759508 -0.6148185 -0.7872313
vn 0.103898 -0.6795155 -0.7262672
vn 0.06755194 -0.1913418 -0.9791961
vn -0.95034 -0.1640037 -0.2644932
vn -0.2497239 -0.6316687 -0.7339159
vn -0.3025342 0.07492688 -0.9501889
vn -0.1797103 0.4160829 -0.8913918
vn 0.06938811 -0.471263 -0.879259
vn -0.783353 -0.5822649 0.2175446
vn -0.7794691 0.3013767 -0.5491813
vn 0.003197402 -0.1153107 -0.9933243
vn 0.6279591 0.4184243 -0.6561923
vn 0.2431009 0.2765261 -0.9297501
vn 0.7629429 -0.129497 -0.6333629
vn 0.002536178 -0.6697475 -0.7425846
vn 0.9333581 0.2090119 -0.2918164
vn 0.4077314 -0.8393964 -0.3594006
vn 0.9791791 -0.1194268 -0.1641511
vn 0.69078 -0.4773849 -0.5430716
vn 0.7105269 0.2965689 -0.6381209
vn 0.5021489 -0.741043 -0.4457599
vn 0.3805083 -0.8279998 -0.4118614
vn 0.6833224 -0.1351295 -0.717503
vn 0.003159583 -0.184807 -0.9827698
vn 0.8094455 -0.2882119 -0.5115974
vn 0.8826202 0.07588182 -0.4639218
vn -0.2815689 0.3849796 -0.8789253
vn -0.2695613 -0.08094642 0.9595752
vn -0.6516775 0.3104702 0.6920438
vn -0.4416242 0.1581612 0.8831496
vn -0.6199356 -0.087585 0.7797492
vn -0.1941847 -0.4557026 0.868693
vn -0.6489929 0.07906134 0.7566754
vn -0.4368149 -0.6323612 0.639775
vn -0.841572 -0.2641823 0.4711307
vn -0.7463601 -0.6247957 0.2292966
vn -0.5444474 0.6034142 0.5826392
vn 0.2681114 -0.288248 0.9192548
vn -0.4022235 -0.6899344 0.6018363
vn -0.7241436 -0.0793358 0.6850708
vn -0.2695693 -0.08095672 0.959572
vn -0.8143057 -0.2431072 0.5270723
vn -0.7611633 -0.5722941 0.3051391
vn 0.298088 0.3177809 0.9000883
vn 0.4367331 -0.2488314 0.8644925
vn 0.3795954 0.3116971 0.8710638
vn 0.4753398 0.1352631 0.8693423
vn 0.2047182 -0.2783169 0.938419
vn 0.2181027 -0.458435 0.8615501
vn -0.2372826 0.5094942 0.827111
vn -0.1083277 -0.5816608 0.806186
vn -0.4625849 -0.08794145 0.8822027
vn -0.525185 -0.4261469 0.7366
vn 0.2634051 0.48838 0.8319271
vn 0.2574916 -0.5495183 0.794813
vn -0.1444056 -0.5253008 0.8385739
vn -0.03147355 0.2459115 0.9687812
vn 0.3987576 -0.1638513 0.9022999
vn -0.270135 -0.004156292 0.9628135
vn -0.7014851 -0.5996869 0.38509
vn -0.1543241 -0.5351917 0.8305143
vn 0.4803417 -0.1964852 0.8547897
vn 0.632594 0.1796794 0.7533526
vn 0.6498321 0.03634325 0.7592084
vn 0.3603108 -0.04000595 0.9319741
vn 0.09570929 -0.2694597 0.9582438
vn 0.3898697 0.4442683 0.8066147
vn -0.2327386 -0.1590539 0.9594449
vn -0.08451699 0.228581 0.9698493
vn 0.2657534 0.2376311 0.9342947
vn 0.8668679 0.1870918 0.4621003
vn 0.7162171 -0.4104123 0.564442
vn 0.1108446 -0.2623596 0.9585828
vn 0.2187139 0.2261919 0.9492109
vn 0.4181625 -0.1837295 0.8895974
vn -0.08328135 0.1792956 0.9802639
vn -0.2465791 0.4050871 0.8803995
vn 0.9091173 -0.3473468 0.2299041
vn 0.8820228 0.1928558 -0.4299331
vn 0.01991084 -0.673176 -0.7392142
vn 0.7784035 -0.3779435 -0.5012453
vn -0.2592745 0.2571599 -0.930938
vn 0.04611242 0.3309173 0.9425324
vn -0.2215167 -0.2004443 -0.9543335
vn 0.1544582 0.1554305 0.9756967
vn -0.2592754 0.2571618 -0.9309372
vn -0.2675046 -0.140489 -0.9532598
vn -0.0969632 -0.5539815 -0.8268632
vn -0.5529447 0.6587206 0.5102348
vn 0.03091169 -0.09371226 0.9951193
vn 0.5739498 0.4488666 -0.684909
vn 0.8905212 0.1932929 -0.4118371
vn 0.08239428 0.2302904 -0.9696275
vn -0.8257266 0.3940758 -0.4035838
vn 0.3612024 -0.5956944 0.7174128
vn -0.804164 0.2870728 0.5204896
vn -0.3637318 0.4780265 0.7994936
vn -0.5846962 0.323988 0.7437488
vn -0.7455431 0.486342 0.4556721
vn -0.9359872 0.3281885 0.1273586
vn -0.07190681 0.774972 0.6278915
vn -0.8443856 0.5339066 -0.04423398
vn -0.3647042 0.895248 0.2559722
vn -0.4832215 0.8498433 -0.2103889
vn -0.1847493 0.1912384 0.9639997
vn -0.9682074 -0.007252842 -0.2500437
vn -0.8130627 0.5681319 -0.127103
vn -0.4068168 0.783209 0.4701955
vn -0.7919775 0.3456749 0.5032699
vn -0.3969337 0.8720661 0.2862592
vn -0.1830546 0.9817 0.052499
vn -0.7797087 0.4426999 0.4427994
vn -0.2053902 0.5576219 -0.804284
vn 0.06757539 -0.1913485 -0.9791932
vn 0.05000592 -0.2161943 -0.975069
vn 0.2050523 0.4707856 -0.8580877
vn -0.4956427 0.5279084 -0.6896746
vn -0.1546415 0.5698088 -0.8070959
vn -0.5238262 0.4360005 -0.7317853
vn 0.1922867 0.609823 -0.7688575
vn 0.361567 -0.4291953 -0.827684
vn 0.06759989 -0.1913014 -0.9792007
vn -0.7794619 0.3012971 -0.5492352
vn -0.5386585 0.07623848 -0.8390677
vn 0.3989027 0.478431 -0.7822918
vn -0.1840433 0.6746721 -0.7148046
vn 0.4621038 0.2666825 -0.8457781
vn 0.143303 0.5886421 -0.7955908
vn -0.7550709 -0.1568903 -0.6365951
vn -0.8006345 -0.5742355 -0.1709913
vn -0.8377838 0.1722826 -0.5181091
vn -0.7852978 -0.2303251 -0.5746804
vn -0.8260023 -0.5108958 0.2381297
vn -0.6277202 -0.778327 -0.01320207
vn 0.3225201 0.6352975 -0.7016965
vn -0.7747274 -0.5379829 0.3322226
vn -0.7219748 -0.6428033 0.2560395
vn -0.8393296 -0.5169532 0.1681823
vn -0.8135809 0.5172443 -0.2656024
vn -0.5983551 -0.7944264 -0.1042008
vn -0.7647673 -0.6438758 0.02355677
vn -0.04573235 -0.5869057 -0.8083627
vn -0.7294409 -0.594704 -0.3379988
vn 0.1823567 -0.7311161 -0.6574309
vn -0.6255769 -0.7710104 0.1191487
vn -0.8407274 -0.4472269 -0.30523
vn 0.354812 -0.6054783 -0.7123935
vn -0.3088152 -0.127949 -0.9424767
vn -0.2545443 -0.3980906 -0.8813235
vn 0.1304398 -0.5715538 -0.8101307
vn 0.2151567 -0.6143898 -0.7591
vn -0.07227278 0.1066724 -0.9916641
vn 0.1874765 -0.5535948 -0.8114095
vn -0.1440512 -0.4690852 -0.8713256
vn -0.09696671 -0.5540069 -0.8268456
vn -0.3624116 0.1707048 -0.916252
vn -0.1445977 -0.5215218 -0.8408963
vn 0.05593665 -0.5816291 -0.8115286
vn 0.1721828 -0.6989184 -0.6941658
vn -0.1775498 -0.5679605 -0.8036772
vn 0.1992782 -0.7550223 -0.6246836
vn -0.2592931 0.2571552 -0.9309341
vn -0.05598613 -0.1406817 -0.9884707
vn -0.7629249 0.424317 -0.4877506
vn 0.1950954 0.7046582 -0.6821984
vn -0.3420881 0.890213 -0.3008265
vn -0.120142 0.03670466 -0.9920779
vn -0.8210047 -0.1398851 -0.5535192
vn 0.1686436 0.5007973 -0.8489767
vn -0.4731189 -0.1372461 -0.8702424
vn 0.09582239 0.01365507 -0.9953048
vn -0.1337681 -0.1742074 -0.9755808
vn -0.1364641 0.7334896 -0.6658608
vn 0.3882196 0.2794301 -0.8781824
vn -0.5554129 -0.2340205 -0.7979667
vn -0.240669 0.6139828 -0.7517338
vn -0.8227593 0.4861838 -0.2944357
vn -0.2179742 0.295268 -0.9302173
vn -0.1961975 -0.1948648 -0.9610069
vn 0.3679271 -0.03327712 -0.929259
vn 0.136098 0.6534036 0.7446751
vn -0.1332744 0.4651181 0.8751589
vn 0.3814464 0.56311 0.7330797
vn -0.4080654 0.3384177 0.8479128
vn 0.1360685 0.6533645 0.7447149
vn -0.4424158 0.2327779 0.8660732
vn -0.2867443 0.2926358 0.9122182
vn -0.4425091 0.4688329 0.7644484
vn -0.2310507 0.5782868 0.7824321
vn -0.2730237 0.5378351 0.7976161
vn -0.1847842 0.1912756 0.9639857
vn -0.1385726 0.3166937 0.9383511
vn 0.009855717 0.02384749 0.999667
vn 0.2290598 0.5082019 0.8302183
vn 0.1347954 0.2214831 0.965803
vn -0.2353026 0.6420374 0.7296716
vn -0.5034673 0.7115529 0.4901153
vn -0.1542868 -0.5352169 0.8305049
vn 0.4301707 -0.6436281 -0.6330056
vn 0.00437957 -0.5474483 0.836828
vn -0.05457058 -0.4935713 0.8679916
vn 0.2774567 -0.4711111 0.8373005
vn 0.3895855 -0.7378063 -0.5512396
vn 0.3214146 -0.5840098 0.7454028
vn -0.09561152 -0.599866 -0.7943672
vn -0.7833565 -0.5822773 0.2174988
vn 0.5561993 -0.7052794 -0.4395717
vn 0.1744998 -0.5512398 -0.815895
vn -0.07550319 -0.5714611 -0.8171483
vn -0.8700415 -0.4702404 -0.1479922
vn -0.1543555 -0.5351479 0.8305367
vn -0.4712578 -0.788504 -0.395193
vn 0.3614248 -0.5926991 0.7197778
vn -0.7833834 -0.5822422 0.2174958
vn -0.773071 -0.624344 -0.1120529
vn -0.7833036 -0.5823328 0.2175408
vn -0.2593477 0.2571665 -0.9309157
vn -0.1546695 0.5698371 -0.8070707
vn -0.8695044 -0.4818124 -0.1087148
vn -0.8713045 -0.488165 0.05023322
vn 0.1705783 -0.2293174 0.9582884
vn -0.7658036 -0.5534205 0.3275218
vn 0.191756 -0.5901505 0.7841887
vn 0.1604741 -0.5001007 0.8509685
vn -0.4951432 0.6005092 0.6278709
vn -0.6484817 0.06363229 0.758566
vn -0.1418716 0.2298986 0.9628183
vn -0.4619477 0.5217877 0.7171763
vn -0.6295364 -0.04860267 0.7754493
vn -0.5055311 0.2795437 0.8162682
vn -0.8307344 0.0401144 0.5552217
vn -0.1068381 0.5874556 0.8021731
vn -0.1903592 0.1531425 0.9696962
vn 0.2419807 0.2999507 0.922754
vn -0.7794853 0.3012352 -0.5492357
vn -0.5890259 0.5312407 0.6089596
vn -0.3059303 0.668588 0.6777882
vn -0.8475571 -0.003792252 0.5306907
vn -0.4430212 0.6021917 0.6641517
vn -0.1418995 0.2298671 0.9628217
vn -0.6255962 -0.7710025 0.1190988
vt 0.4950125 0.6632183
vt 0.5056489 0.66623
vt 0.5590525 0.4696581
vt 0.5164206 0.6687422
vt 0.5592801 0.4695983
vt 0.5272816 0.6708684
vt 0.5595042 0.4695264
vt 0.5382246 0.6725225
vt 0.5597034 0.4695695
vt 0.5492467 0.6735207
vt 0.5599047 0.469602
vt 0.5603119 0.6737381
vt 0.5601076 0.4696238
vt 0.4740108 0.5544935
vt 0.4950125 0.5547481
vt 0.4950125 0.276818
vt 0.4803569 0.2768506
vt 0.4524128 0.5537065
vt 0.4915702 0.1166543
vt 0.466343 0.276433
vt 0.4301751 0.5522758
vt 0.4823775 0.1172351
vt 0.4720565 6.097555E-05
vt 0.4523435 0.2756065
vt 0.4096509 0.5504361
vt 0.4729679 0.1172636
vt 0.4719445 6.186962E-05
vt 0.4383707 0.2743272
vt 0.3902032 0.5483076
vt 0.4632644 0.1168327
vt 0.4718331 5.364418E-05
vt 0.4234576 0.2725265
vt 0.3707918 0.5458275
vt 0.4083682 0.2703744
vt 0.4540979 0.1159524
vt 0.4717217 4.559755E-05
vt 0.4453548 0.1145824
vt 0.4716052 2.789497E-05
vt 0.4366367 0.1127067
vt 0.4714833 0
vt 0.1027966 1
vt 0.1238782 1
vt 0.1215769 0.615644
vt 0.1052716 0.6158603
vt 0.08152417 0.9997465
vt 0.1131812 0.4004339
vt 0.08941904 0.6158156
vt 0.06120938 0.9992737
vt 0.100812 0.4007235
vt 0.1074603 0.1851863
vt 0.07263742 0.615456
vt 0.0410556 0.9985984
vt 0.08962217 0.400771
vt 0.1001212 0.185497
vt 0.09093398 4.065037E-05
vt 0.05533158 0.6147565
vt 0.02091196 0.9977284
vt 0.09299731 0.1855776
vt 0.09075541 4.267693E-05
vt 0.0788369 0.4005431
vt 0.03896435 0.6138762
vt 0 0.996619
vt 0.0226473 0.6127118
vt 0.08539373 0.1854506
vt 0.09058054 3.767014E-05
vt 0.06800439 0.400103
vt 0.05710872 0.3993891
vt 0.04514144 0.3983527
vt 0.07774328 0.1851531
vt 0.09040566 3.290176E-05
vt 0.07057798 0.1846659
vt 0.09022391 2.0504E-05
vt 0.06324868 0.1839322
vt 0.09003054 0
vt 0.641709 0.01406885
vt 0.621381 0.02005308
vt 0.6789745 0.199524
vt 0.6905859 0.1959575
vt 0.7434348 0.382639
vt 0.6609795 0.00935781
vt 0.7018668 0.1930598
vt 0.7436088 0.3825907
vt 0.6821225 0.005216893
vt 0.7130191 0.1909128
vt 0.7438 0.382549
vt 0.7050317 0.002150241
vt 0.7243616 0.1893388
vt 0.7440099 0.3825296
vt 0.7262608 0.0005521439
vt 0.7356904 0.1885055
vt 0.7442036 0.3825226
vt 0.7474266 0
vt 0.7474266 0.1883297
vt 0.7443978 0.3825257
vt 0.2269299 0.6546635
vt 0.2478931 0.6548736
vt 0.2478931 0.4067333
vt 0.2321986 0.4066595
vt 0.2051635 0.6539898
vt 0.2469758 0.2652353
vt 0.2167734 0.4061749
vt 0.1835064 0.6527956
vt 0.2346504 0.2652324
vt 0.2430396 0.07609046
vt 0.201388 0.4053079
vt 0.1632253 0.6512605
vt 0.2216707 0.2648535
vt 0.2358696 0.07675481
vt 0.2263335 4.374981E-05
vt 0.1854179 0.4039955
vt 0.1435403 0.6494486
vt 0.2287777 0.07698143
vt 0.2262534 4.62532E-05
vt 0.2091365 0.2642746
vt 0.1684309 0.4022009
vt 0.1238782 0.6473509
vt 0.1518846 0.4001595
vt 0.2217016 0.07676494
vt 0.2261763 4.172325E-05
vt 0.1974059 0.2633959
vt 0.1859145 0.2621542
vt 0.1743773 0.2606308
vt 0.2144038 0.07609284
vt 0.2261019 3.027916E-05
vt 0.2068881 0.07497227
vt 0.2260275 1.883507E-05
vt 0.199639 0.07343912
vt 0.2259538 0
vt 0.3486403 0.6162228
vt 0.3707918 0.6165032
vt 0.3707917 0.332359
vt 0.3559652 0.3325474
vt 0.328135 0.6155188
vt 0.3614216 0.1637015
vt 0.3415013 0.3322733
vt 0.3086544 0.6145281
vt 0.3523915 0.164165
vt 0.3456166 6.580353E-05
vt 0.3261214 0.3315172
vt 0.2891845 0.6132199
vt 0.3438138 0.1642593
vt 0.3454604 7.236004E-05
vt 0.3101319 0.3303584
vt 0.2693048 0.6115509
vt 0.3355576 0.1639602
vt 0.3452956 7.081032E-05
vt 0.2951903 0.3288586
vt 0.2478931 0.6093354
vt 0.2805112 0.3269304
vt 0.3273075 0.1633126
vt 0.345122 6.067753E-05
vt 0.3190311 0.1622542
vt 0.3449592 3.457069E-05
vt 0.3103958 0.1607413
vt 0.3447984 0
vt 0.6004048 0.4692299
vt 0.621381 0.4695059
vt 0.621381 0.1876489
vt 0.6062476 0.1878708
vt 0.579713 0.4684637
vt 0.6174338 0.07253766
vt 0.5928321 0.1875564
vt 0.5567437 0.4669563
vt 0.6079831 0.07375461
vt 0.5944518 4.88162E-05
vt 0.5797405 0.1867434
vt 0.5351691 0.4648993
vt 0.5986593 0.074031
vt 0.5943804 5.292892E-05
vt 0.5667441 0.1854502
vt 0.5157973 0.4626234
vt 0.5883185 0.0734719
vt 0.5943128 4.738569E-05
vt 0.5530367 0.1835337
vt 0.4950125 0.4596968
vt 0.5375206 0.1809039
vt 0.5782525 0.07238775
vt 0.5942451 4.190207E-05
vt 0.5692893 0.07063168
vt 0.5941754 2.652407E-05
vt 0.5601577 0.06792557
vt 0.5941002 0
vt 0 0.5
vt 0 1
vt 0.5 1
vt 0.5 0.5
vt 0 0
vt 1 1
vt 0.5 0
vt 1 0.5
vt 1 0
vt 0 0
vt 0 1
vt 1 1
vt 1 0
vt 0 0
vt 0 1
vt 1 1
vt 1 0
vt 0.5 0
vt 1 0.5
vt 1 0
vt 0.5 0.5
vt 0 0
vt 1 1
vt 0 0.5
vt 0.5 1
vt 0 1
vt 0 0
vt 0 1
vt 1 1
vt 1 0
vt 0 0
vt 0 1
vt 1 1
vt 1 0
vt 0.5 0
vt 1 0.5
vt 1 0
vt 0.5 0.5
vt 0 0
vt 1 1
vt 0 0.5
vt 0.5 1
vt 0 1
vt 0 0
vt 0 1
vt 1 1
vt 1 0
vt 0 0
vt 0 1
vt 1 1
vt 1 0
vt 0.5 0
vt 1 0.5
vt 1 0
vt 0.5 0.5
vt 0 0
vt 1 1
vt 0 0.5
vt 0.5 1
vt 0 1
vt 0 0
vt 0 1
vt 1 1
vt 1 0
vt 0 0
vt 0 1
vt 1 1
vt 1 0
vt 0.5 0
vt 1 0.5
vt 1 0
vt 0.5 0.5
vt 0 0
vt 1 1
vt 0 0.5
vt 0.5 1
vt 0 1
vt 0 0
vt 0 1
vt 1 1
vt 1 0
vt 0 0
vt 0 1
vt 1 1
vt 1 0
vt 0.5 0
vt 1 0.5
vt 1 0
vt 0.5 0.5
vt 0 0
vt 1 1
vt 0 0.5
vt 0.5 1
vt 0 1
vt 0 0
vt 0 1
vt 1 1
vt 1 0
vt 0 0
vt 0 1
vt 1 1
vt 1 0
vt 0.5 0
vt 1 0.5
vt 1 0
vt 0.5 0.5
vt 0 0
vt 1 1
vt 0 0.5
vt 0.5 1
vt 0 1
vt 0 0
vt 0 1
vt 1 1
vt 1 0
vt 0 0
vt 0 1
vt 1 1
vt 1 0
vt 0.5 0
vt 1 0.5
vt 1 0
vt 0.5 0.5
vt 0 0
vt 1 1
vt 0 0.5
vt 0.5 1
vt 0 1
vt 0 0
vt 0 1
vt 1 1
vt 1 0
vt 0 0
vt 0 1
vt 1 1
vt 1 0
vt 0.5 0
vt 1 0.5
vt 1 0
vt 0.5 0.5
vt 0 0
vt 1 1
vt 0 0.5
vt 0.5 1
vt 0 1
vt 0 0
vt 0 1
vt 1 1
vt 1 0
vt 0 0
vt 0 1
vt 1 1
vt 1 0
vt 0.5 0
vt 1 0.5
vt 1 0
vt 0.5 0.5
vt 0 0
vt 1 1
vt 0 0.5
vt 0.5 1
vt 0 1
vt 0 0
vt 0 1
vt 1 1
vt 1 0
vt 0 0
vt 0 1
vt 1 1
vt 1 0
vt 0.5 0
vt 1 0.5
vt 1 0
vt 0.5 0.5
vt 0 0
vt 1 1
vt 0 0.5
vt 0.5 1
vt 0 1
vt 0 0
vt 0 1
vt 1 1
vt 1 0
vt 0 0
vt 0 1
vt 1 1
vt 1 0
vt 0.5 0
vt 1 0.5
vt 1 0
vt 0.5 0.5
vt 0 0
vt 1 1
vt 0 0.5
vt 0.5 1
vt 0 1
vt 0 0
vt 0 1
vt 1 1
vt 1 0
vt 0 0
vt 0 1
vt 1 1
vt 1 0
vt 0.5 0
vt 1 0.5
vt 1 0
vt 0.5 0.5
vt 0 0
vt 1 1
vt 0 0.5
vt 0.5 1
vt 0 1
vt 0 0
vt 0 1
vt 1 1
vt 1 0
vt 0 0
vt 0 1
vt 1 1
vt 1 0
vt 0.5 0
vt 1 0.5
vt 1 0
vt 0.5 0.5
vt 0 0
vt 1 1
vt 0 0.5
vt 0.5 1
vt 0 1
vt 0 0
vt 0 1
vt 1 1
vt 1 0
vt 0 0
vt 0 1
vt 1 1
vt 1 0
vt 0.5 0
vt 1 0.5
vt 1 0
vt 0.5 0.5
vt 0 0
vt 1 1
vt 0 0.5
vt 0.5 1
vt 0 1
vt 0 0
vt 0 1
vt 1 1
vt 1 0
vt 0 0
vt 0 1
vt 1 1
vt 1 0
vt 0.5 0
vt 1 0.5
vt 1 0
vt 0.5 0.5
vt 0 0
vt 1 1
vt 0 0.5
vt 0.5 1
vt 0 1
vt 0 0
vt 0 1
vt 1 1
vt 1 0
vt 0 0
vt 0 1
vt 1 1
vt 1 0
vt 0.5 0
vt 1 0.5
vt 1 0
vt 0.5 0.5
vt 0 0
vt 1 1
vt 0 0.5
vt 0.5 1
vt 0 1
vt 0 0
vt 0 1
vt 1 1
vt 1 0
vt 0 0
vt 0 1
vt 1 1
vt 1 0
vt 0.5 0
vt 1 0.5
vt 1 0
vt 0.5 0.5
vt 0 0
vt 1 1
vt 0 0.5
vt 0.5 1
vt 0 1
vt 0 0
vt 0 1
vt 1 1
vt 1 0
vt 0 0
vt 0 1
vt 1 1
vt 1 0
vt 0.5 0
vt 1 0.5
vt 1 0
vt 0.5 0.5
vt 0 0
vt 1 1
vt 0 0.5
vt 0.5 1
vt 0 1
vt 0 0
vt 0 1
vt 1 1
vt 1 0
vt 0 0
vt 0 1
vt 1 1
vt 1 0
vt 0.5 0
vt 1 0.5
vt 1 0
vt 0.5 0.5
vt 0 0
vt 1 1
vt 0 0.5
vt 0.5 1
vt 0 1
vt 0 0
vt 0 1
vt 1 1
vt 1 0
vt 0 0
vt 0 1
vt 1 1
vt 1 0
vt 0.5 0
vt 1 0.5
vt 1 0
vt 0.5 0.5
vt 0 0
vt 1 1
vt 0 0.5
vt 0.5 1
vt 0 1
vt 0 0
vt 0 1
vt 1 1
vt 1 0
vt 0 0
vt 0 1
vt 1 1
vt 1 0
vt 0.5 0
vt 1 0.5
vt 1 0
vt 0.5 0.5
vt 0 0
vt 1 1
vt 0 0.5
vt 0.5 1
vt 0 1
vt 0 0
vt 0 1
vt 1 1
vt 1 0
vt 0 0
vt 0 1
vt 1 1
vt 1 0
vt 0.5 0
vt 1 0.5
vt 1 0
vt 0.5 0.5
vt 0 0
vt 1 1
vt 0 0.5
vt 0.5 1
vt 0 1
vt 0 0
vt 0 1
vt 1 1
vt 1 0
vt 0 0
vt 0 1
vt 1 1
vt 1 0
vt 0.5 0
vt 1 0.5
vt 1 0
vt 0.5 0.5
vt 0 0
vt 1 1
vt 0 0.5
vt 0.5 1
vt 0 1
vt 0 0
vt 0 1
vt 1 1
vt 1 0
vt 0 0
vt 0 1
vt 1 1
vt 1 0
vt 0.5 0
vt 1 0.5
vt 1 0
vt 0.5 0.5
vt 0 0
vt 1 1
vt 0 0.5
vt 0.5 1
vt 0 1
vt 0 0
vt 0 1
vt 1 1
vt 1 0
vt 0 0
vt 0 1
vt 1 1
vt 1 0
vt 0.5 0
vt 1 0.5
vt 1 0
vt 0.5 0.5
vt 0 0
vt 1 1
vt 0 0.5
vt 0.5 1
vt 0 1
vt 0 0
vt 0 1
vt 1 1
vt 1 0
vt 0 0
vt 0 1
vt 1 1
vt 1 0
vt 0.5 0
vt 1 0.5
vt 1 0
vt 0.5 0.5
vt 0 0
vt 1 1
vt 0 0.5
vt 0.5 1
vt 0 1
vt 0 0
vt 0 1
vt 1 1
vt 1 0
vt 0 0
vt 0 1
vt 1 1
vt 1 0
vt 0.5 0
vt 1 0.5
vt 1 0
vt 0.5 0.5
vt 0 0
vt 1 1
vt 0 0.5
vt 0.5 1
vt 0 1
vt 0 0
vt 0 1
vt 1 1
vt 1 0
vt 0 0
vt 0 1
vt 1 1
vt 1 0
vt 0.5 0
vt 1 0.5
vt 1 0
vt 0.5 0.5
vt 0 0
vt 1 1
vt 0 0.5
vt 0.5 1
vt 0 1
vt 0 0
vt 0 1
vt 1 1
vt 1 0
vt 0 0
vt 0 1
vt 1 1
vt 1 0
vt 0.5 0
vt 1 0.5
vt 1 0
vt 0.5 0.5
vt 0 0
vt 1 1
vt 0 0.5
vt 0.5 1
vt 0 1
vt 0 0
vt 0 1
vt 1 1
vt 1 0
vt 0 0
vt 0 1
vt 1 1
vt 1 0
vt 0.5 0
vt 1 0.5
vt 1 0
vt 0.5 0.5
vt 0 0
vt 1 1
vt 0 0.5
vt 0.5 1
vt 0 1
vt 0 0
vt 0 1
vt 1 1
vt 1 0
vt 0 0
vt 0 1
vt 1 1
vt 1 0
vt 0.5 0
vt 1 0.5
vt 1 0
vt 0.5 0.5
vt 0 0
vt 1 1
vt 0 0.5
vt 0.5 1
vt 0 1
vt 0 0
vt 0 1
vt 1 1
vt 1 0
vt 0 0
vt 0 1
vt 1 1
vt 1 0
vt 0.5 0
vt 1 0.5
vt 1 0
vt 0.5 0.5
vt 0 0
vt 1 1
vt 0 0.5
vt 0.5 1
vt 0 1
vt 0 0
vt 0 1
vt 1 1
vt 1 0
vt 0 0
vt 0 1
vt 1 1
vt 1 0
vt 0.5 0
vt 1 0.5
vt 1 0
vt 0.5 0.5
vt 0 0
vt 1 1
vt 0 0.5
vt 0.5 1
vt 0 1
vt 0 0
vt 0 1
vt 1 1
vt 1 0
vt 0 0
vt 0 1
vt 1 1
vt 1 0
vt 0.5 0
vt 1 0.5
vt 1 0
vt 0.5 0.5
vt 0 0
vt 1 1
vt 0 0.5
vt 0.5 1
vt 0 1
vt 0 0
vt 0 1
vt 1 1
vt 1 0
vt 0 0
vt 0 1
vt 1 1
vt 1 0
vt 0.5 0
vt 1 0.5
vt 1 0
vt 0.5 0.5
vt 0 0
vt 1 1
vt 0 0.5
vt 0.5 1
vt 0 1
vt 0 0
vt 0 1
vt 1 1
vt 1 0
vt 0 0
vt 0 1
vt 1 1
vt 1 0
vt 0.5 0
vt 1 0.5
vt 1 0
vt 0.5 0.5
vt 0 0
vt 1 1
vt 0 0.5
vt 0.5 1
vt 0 1
vt 0.5 0
vt 1 0.5
vt 1 0
vt 0.5 0.5
vt 0 0
vt 1 1
vt 0 0.5
vt 0.5 1
vt 0 1
vt 0.5 0
vt 1 0.5
vt 1 0
vt 0.5 0.5
vt 0 0
vt 1 1
vt 0 0.5
vt 0.5 1
vt 0 1
vt 0 0.5
vt 0 1
vt 0.5 1
vt 0.5 0.5
vt 0 0
vt 1 1
vt 0.5 0
vt 1 0.5
vt 1 0
vt 0 0
vt 0 1
vt 1 1
vt 1 0
vt 0 0
vt 0 1
vt 1 1
vt 1 0
usemtl M_OakBark
f 1/1/1 3/3/3 2/2/2
f 2/2/2 5/5/5 4/4/4
f 4/4/4 7/7/7 6/6/6
f 6/6/6 9/9/9 8/8/8
f 8/8/8 11/11/11 10/10/10
f 10/10/10 13/13/13 12/12/12
f 14/14/14 16/16/16 15/15/15
f 14/14/14 17/17/17 16/16/16
f 18/18/18 17/17/17 14/14/14
f 17/17/17 19/19/19 16/16/16
f 18/18/18 20/20/20 17/17/17
f 21/21/21 20/20/20 18/18/18
f 17/17/17 22/22/22 19/19/19
f 20/20/20 22/22/22 17/17/17
f 22/22/22 23/23/23 19/19/19
f 21/21/21 24/24/24 20/20/20
f 25/25/25 24/24/24 21/21/21
f 20/20/20 26/26/26 22/22/22
f 24/24/24 26/26/26 20/20/20
f 26/26/26 27/27/27 22/22/22
f 25/25/25 28/28/28 24/24/24
f 29/29/29 28/28/28 25/25/25
f 24/24/24 30/30/30 26/26/26
f 28/28/28 30/30/30 24/24/24
f 30/30/30 31/31/31 26/26/26
f 29/29/29 32/32/32 28/28/28
f 33/33/33 32/32/32 29/29/29
f 33/33/33 34/34/34 32/32/32
f 28/28/28 35/35/35 30/30/30
f 32/32/32 35/35/35 28/28/28
f 35/35/35 36/36/36 30/30/30
f 34/34/34 37/37/37 32/32/32
f 32/32/32 37/37/37 35/35/35
f 37/37/37 38/38/38 35/35/35
f 34/34/34 39/39/39 37/37/37
f 39/39/39 40/40/40 37/37/37
f 41/41/41 43/43/43 42/42/42
f 41/41/41 44/44/44 43/43/43
f 45/45/45 44/44/44 41/41/41
f 44/44/44 46/46/46 43/43/43
f 45/45/45 47/47/47 44/44/44
f 48/48/48 47/47/47 45/45/45
f 44/44/44 49/49/49 46/46/46
f 47/47/47 49/49/49 44/44/44
f 49/49/49 50/50/50 46/46/46
f 48/48/48 51/51/51 47/47/47
f 52/52/52 51/51/51 48/48/48
f 47/47/47 53/53/53 49/49/49
f 51/51/51 53/53/53 47/47/47
f 49/49/49 54/54/54 50/50/50
f 53/53/53 54/54/54 49/49/49
f 54/54/54 55/55/55 50/50/50
f 52/52/52 56/56/56 51/51/51
f 57/57/57 56/56/56 52/52/52
f 53/53/53 58/58/58 54/54/54
f 58/58/58 59/59/59 54/54/54
f 51/51/51 60/60/60 53/53/53
f 60/60/60 58/58/58 53/53/53
f 56/56/56 60/60/60 51/51/51
f 57/57/57 61/61/61 56/56/56
f 62/62/62 61/61/61 57/57/57
f 62/62/62 63/63/63 61/61/61
f 60/60/60 64/64/64 58/58/58
f 64/64/64 65/65/65 58/58/58
f 56/56/56 66/66/66 60/60/60
f 61/61/61 66/66/66 56/56/56
f 66/66/66 64/64/64 60/60/60
f 63/63/63 67/67/67 61/61/61
f 61/61/61 67/67/67 66/66/66
f 63/63/63 68/68/68 67/67/67
f 66/66/66 69/69/69 64/64/64
f 67/67/67 69/69/69 66/66/66
f 69/69/69 70/70/70 64/64/64
f 68/68/68 71/71/71 67/67/67
f 67/67/67 71/71/71 69/69/69
f 71/71/71 72/72/72 69/69/69
f 68/68/68 73/73/73 71/71/71
f 73/73/73 74/74/74 71/71/71
f 75/75/75 77/77/77 76/76/76
f 75/75/75 78/78/78 77/77/77
f 78/78/78 79/79/79 77/77/77
f 80/80/80 78/78/78 75/75/75
f 80/80/80 81/81/81 78/78/78
f 81/81/81 82/82/82 78/78/78
f 83/83/83 81/81/81 80/80/80
f 83/83/83 84/84/84 81/81/81
f 84/84/84 85/85/85 81/81/81
f 86/86/86 84/84/84 83/83/83
f 86/86/86 87/87/87 84/84/84
f 87/87/87 88/88/88 84/84/84
f 89/89/89 87/87/87 86/86/86
f 89/89/89 90/90/90 87/87/87
f 90/90/90 91/91/91 87/87/87
f 92/92/92 90/90/90 89/89/89
f 92/92/92 93/93/93 90/90/90
f 93/93/93 94/94/94 90/90/90
f 95/95/95 97/97/97 96/96/96
f 95/95/95 98/98/98 97/97/97
f 99/99/99 98/98/98 95/95/95
f 98/98/98 100/100/100 97/97/97
f 99/99/99 101/101/101 98/98/98
f 102/102/102 101/101/101 99/99/99
f 98/98/98 103/103/103 100/100/100
f 101/101/101 103/103/103 98/98/98
f 103/103/103 104/104/104 100/100/100
f 102/102/102 105/105/105 101/101/101
f 106/106/106 105/105/105 102/102/102
f 101/101/101 107/107/107 103/103/103
f 105/105/105 107/107/107 101/101/101
f 103/103/103 108/108/108 104/104/104
f 107/107/107 108/108/108 103/103/103
f 108/108/108 109/109/109 104/104/104
f 106/106/106 110/110/110 105/105/105
f 111/111/111 110/110/110 106/106/106
f 107/107/107 112/112/112 108/108/108
f 112/112/112 113/113/113 108/108/108
f 105/105/105 114/114/114 107/107/107
f 114/114/114 112/112/112 107/107/107
f 110/110/110 114/114/114 105/105/105
f 111/111/111 115/115/115 110/110/110
f 116/116/116 115/115/115 111/111/111
f 116/116/116 117/117/117 115/115/115
f 114/114/114 118/118/118 112/112/112
f 118/118/118 119/119/119 112/112/112
f 110/110/110 120/120/120 114/114/114
f 115/115/115 120/120/120 110/110/110
f 120/120/120 118/118/118 114/114/114
f 117/117/117 121/121/121 115/115/115
f 115/115/115 121/121/121 120/120/120
f 117/117/117 122/122/122 121/121/121
f 120/120/120 123/123/123 118/118/118
f 121/121/121 123/123/123 120/120/120
f 123/123/123 124/124/124 118/118/118
f 122/122/122 125/125/125 121/121/121
f 121/121/121 125/125/125 123/123/123
f 125/125/125 126/126/126 123/123/123
f 122/122/122 127/127/127 125/125/125
f 127/127/127 128/128/128 125/125/125
f 129/129/129 131/131/131 130/130/130
f 129/129/129 132/132/132 131/131/131
f 133/133/133 132/132/132 129/129/129
f 132/132/132 134/134/134 131/131/131
f 133/133/133 135/135/135 132/132/132
f 136/136/136 135/135/135 133/133/133
f 132/132/132 137/137/137 134/134/134
f 135/135/135 137/137/137 132/132/132
f 137/137/137 138/138/138 134/134/134
f 136/136/136 139/139/139 135/135/135
f 140/140/140 139/139/139 136/136/136
f 135/135/135 141/141/141 137/137/137
f 139/139/139 141/141/141 135/135/135
f 141/141/141 142/142/142 137/137/137
f 140/140/140 143/143/143 139/139/139
f 144/144/144 143/143/143 140/140/140
f 139/139/139 145/145/145 141/141/141
f 143/143/143 145/145/145 139/139/139
f 145/145/145 146/146/146 141/141/141
f 144/144/144 147/147/147 143/143/143
f 148/148/148 147/147/147 144/144/144
f 148/148/148 149/149/149 147/147/147
f 143/143/143 150/150/150 145/145/145
f 147/147/147 150/150/150 143/143/143
f 150/150/150 151/151/151 145/145/145
f 149/149/149 152/152/152 147/147/147
f 147/147/147 152/152/152 150/150/150
f 152/152/152 153/153/153 150/150/150
f 149/149/149 154/154/154 152/152/152
f 154/154/154 155/155/155 152/152/152
f 156/156/156 158/158/158 157/157/157
f 156/156/156 159/159/159 158/158/158
f 160/160/160 159/159/159 156/156/156
f 159/159/159 161/161/161 158/158/158
f 160/160/160 162/162/162 159/159/159
f 163/163/163 162/162/162 160/160/160
f 159/159/159 164/164/164 161/161/161
f 162/162/162 164/164/164 159/159/159
f 164/164/164 165/165/165 161/161/161
f 163/163/163 166/166/166 162/162/162
f 167/167/167 166/166/166 163/163/163
f 162/162/162 168/168/168 164/164/164
f 166/166/166 168/168/168 162/162/162
f 168/168/168 169/169/169 164/164/164
f 167/167/167 170/170/170 166/166/166
f 171/171/171 170/170/170 167/167/167
f 166/166/166 172/172/172 168/168/168
f 170/170/170 172/172/172 166/166/166
f 172/172/172 173/173/173 168/168/168
f 171/171/171 174/174/174 170/170/170
f 175/175/175 174/174/174 171/171/171
f 175/175/175 176/176/176 174/174/174
f 170/170/170 177/177/177 172/172/172
f 174/174/174 177/177/177 170/170/170
f 177/177/177 178/178/178 172/172/172
f 176/176/176 179/179/179 174/174/174
f 174/174/174 179/179/179 177/177/177
f 179/179/179 180/180/180 177/177/177
f 176/176/176 181/181/181 179/179/179
f 181/181/181 182/182/182 179/179/179
usemtl M_BushLeaves
f 183/183/183 185/185/185 184/184/184
f 183/183/183 186/186/186 185/185/185
f 187/187/187 186/186/186 183/183/183
f 186/186/186 188/188/188 185/185/185
f 187/187/187 189/189/189 186/186/186
f 186/186/186 190/190/190 188/188/188
f 189/189/189 190/190/190 186/186/186
f 189/189/189 191/191/191 190/190/190
f 192/192/192 194/194/194 193/193/193
f 192/192/192 195/195/195 194/194/194
f 196/196/196 198/198/198 197/197/197
f 196/196/196 199/199/199 198/198/198
f 200/200/200 202/202/202 201/201/201
f 200/200/200 201/201/201 203/203/203
f 204/204/204 200/200/200 203/203/203
f 203/203/203 201/201/201 205/205/205
f 204/204/204 203/203/203 206/206/206
f 203/203/203 205/205/205 207/207/207
f 206/206/206 203/203/203 207/207/207
f 206/206/206 207/207/207 208/208/208
f 209/209/209 211/211/211 210/210/210
f 209/209/209 212/212/212 211/211/211
f 213/213/213 215/215/215 214/214/214
f 213/213/213 216/216/216 215/215/215
f 217/217/217 219/219/219 218/218/218
f 217/217/217 218/218/218 220/220/220
f 221/221/221 217/217/217 220/220/220
f 220/220/220 218/218/218 222/222/222
f 221/221/221 220/220/220 223/223/223
f 220/220/220 222/222/222 224/224/224
f 223/223/223 220/220/220 224/224/224
f 223/223/223 224/224/224 225/225/225
f 226/226/226 228/228/228 227/227/227
f 226/226/226 229/229/229 228/228/228
f 230/230/230 232/232/232 231/231/231
f 230/230/230 233/233/233 232/232/232
f 234/234/234 236/236/236 235/235/235
f 234/234/234 235/235/235 237/237/237
f 238/238/238 234/234/234 237/237/237
f 237/237/237 235/235/235 239/239/239
f 238/238/238 237/237/237 240/240/240
f 237/237/237 239/239/239 241/241/241
f 240/240/240 237/237/237 241/241/241
f 240/240/240 241/241/241 242/242/242
f 243/243/243 245/245/245 244/244/244
f 243/243/243 246/246/246 245/245/245
f 247/247/247 249/249/249 248/248/248
f 247/247/247 250/250/250 249/249/249
f 251/251/251 253/253/253 252/252/252
f 251/251/251 252/252/252 254/254/254
f 255/255/255 251/251/251 254/254/254
f 254/254/254 252/252/252 256/256/256
f 255/255/255 254/254/254 257/257/257
f 254/254/254 256/256/256 258/258/258
f 257/257/257 254/254/254 258/258/258
f 257/257/257 258/258/258 259/259/259
f 260/260/260 262/262/262 261/261/261
f 260/260/260 263/263/263 262/262/262
f 264/264/264 266/266/266 265/265/265
f 264/264/264 267/267/267 266/266/266
f 268/268/268 270/270/270 269/269/269
f 268/268/268 269/269/269 271/271/271
f 272/272/272 268/268/268 271/271/271
f 271/271/271 269/269/269 273/273/273
f 272/272/272 271/271/271 274/274/274
f 271/271/271 273/273/273 275/275/275
f 274/274/274 271/271/271 275/275/275
f 274/274/274 275/275/275 276/276/276
f 277/277/277 279/279/279 278/278/278
f 277/277/277 280/280/280 279/279/279
f 281/281/281 283/283/283 282/282/282
f 281/281/281 284/284/284 283/283/283
f 285/285/285 287/287/287 286/286/286
f 285/285/285 286/286/286 288/288/288
f 289/289/289 285/285/285 288/288/288
f 288/288/288 286/286/286 290/290/290
f 289/289/289 288/288/288 291/291/291
f 288/288/288 290/290/290 292/292/292
f 291/291/291 288/288/288 292/292/292
f 291/291/291 292/292/292 293/293/293
f 294/294/294 296/296/296 295/295/295
f 294/294/294 297/297/297 296/296/296
f 298/298/298 300/300/300 299/299/299
f 298/298/298 301/301/301 300/300/300
f 302/302/302 304/304/304 303/303/303
f 302/302/302 303/303/303 305/305/305
f 306/306/306 302/302/302 305/305/305
f 305/305/305 303/303/303 307/307/307
f 306/306/306 305/305/305 308/308/308
f 305/305/305 307/307/307 309/309/309
f 308/308/308 305/305/305 309/309/309
f 308/308/308 309/309/309 310/310/310
f 311/311/311 313/313/313 312/312/312
f 311/311/311 314/314/314 313/313/313
f 315/315/315 317/317/317 316/316/316
f 315/315/315 318/318/318 317/317/317
f 319/319/319 321/321/321 320/320/320
f 319/319/319 320/320/320 322/322/322
f 323/323/323 319/319/319 322/322/322
f 322/322/322 320/320/320 324/324/324
f 323/323/323 322/322/322 325/325/325
f 322/322/322 324/324/324 326/326/326
f 325/325/325 322/322/322 326/326/326
f 325/325/325 326/326/326 327/327/327
f 328/328/328 330/330/330 329/329/329
f 328/328/328 331/331/331 330/330/330
f 332/332/332 334/334/334 333/333/333
f 332/332/332 335/335/335 334/334/334
f 336/336/336 338/338/338 337/337/337
f 336/336/336 337/337/337 339/339/339
f 340/340/340 336/336/336 339/339/339
f 339/339/339 337/337/337 341/341/341
f 340/340/340 339/339/339 342/342/342
f 339/339/339 341/341/341 343/343/343
f 342/342/342 339/339/339 343/343/343
f 342/342/342 343/343/343 344/344/344
f 345/345/345 347/347/347 346/346/346
f 345/345/345 348/348/348 347/347/347
f 349/349/349 351/351/351 350/350/350
f 349/349/349 352/352/352 351/351/351
f 353/353/353 355/355/355 354/354/354
f 353/353/353 354/354/354 356/356/356
f 357/357/357 353/353/353 356/356/356
f 356/356/356 354/354/354 358/358/358
f 357/357/357 356/356/356 359/359/359
f 356/356/356 358/358/358 360/360/360
f 359/359/359 356/356/356 360/360/360
f 359/359/359 360/360/360 361/361/361
f 362/362/362 364/364/364 363/363/363
f 362/362/362 365/365/365 364/364/364
f 366/366/366 368/368/368 367/367/367
f 366/366/366 369/369/369 368/368/368
f 370/370/370 372/372/372 371/371/371
f 370/370/370 371/371/371 373/373/373
f 374/374/374 370/370/370 373/373/373
f 373/373/373 371/371/371 375/375/375
f 374/374/374 373/373/373 376/376/376
f 373/373/373 375/375/375 377/377/377
f 376/376/376 373/373/373 377/377/377
f 376/376/376 377/377/377 378/378/378
f 379/379/379 381/381/381 380/380/380
f 379/379/379 382/382/382 381/381/381
f 383/383/383 385/385/385 384/384/384
f 383/383/383 386/386/386 385/385/385
f 387/387/387 389/389/389 388/388/388
f 387/387/387 388/388/388 390/390/390
f 391/391/391 387/387/387 390/390/390
f 390/390/390 388/388/388 392/392/392
f 391/391/391 390/390/390 393/393/393
f 390/390/390 392/392/392 394/394/394
f 393/393/393 390/390/390 394/394/394
f 393/393/393 394/394/394 395/395/395
f 396/396/396 398/398/398 397/397/397
f 396/396/396 399/399/399 398/398/398
f 400/400/400 402/402/402 401/401/401
f 400/400/400 403/403/403 402/402/402
f 404/404/404 406/406/406 405/405/405
f 404/404/404 405/405/405 407/407/407
f 408/408/408 404/404/404 407/407/407
f 407/407/407 405/405/405 409/409/409
f 408/408/408 407/407/407 410/410/410
f 407/407/407 409/409/409 411/411/411
f 410/410/410 407/407/407 411/411/411
f 410/410/410 411/411/411 412/412/412
f 413/413/413 415/415/415 414/414/414
f 413/413/413 416/416/416 415/415/415
f 417/417/417 419/419/419 418/418/418
f 417/417/417 420/420/420 419/419/419
f 421/421/421 423/423/423 422/422/422
f 421/421/421 422/422/422 424/424/424
f 425/425/425 421/421/421 424/424/424
f 424/424/424 422/422/422 426/426/426
f 425/425/425 424/424/424 427/427/427
f 424/424/424 426/426/426 428/428/428
f 427/427/427 424/424/424 428/428/428
f 427/427/427 428/428/428 429/429/429
f 430/430/430 432/432/432 431/431/431
f 430/430/430 433/433/433 432/432/432
f 434/434/434 436/436/436 435/435/435
f 434/434/434 437/437/437 436/436/436
f 438/438/438 440/440/440 439/439/439
f 438/438/438 439/439/439 441/441/441
f 442/442/442 438/438/438 441/441/441
f 441/441/441 439/439/439 443/443/443
f 442/442/442 441/441/441 444/444/444
f 441/441/441 443/443/443 445/445/445
f 444/444/444 441/441/441 445/445/445
f 444/444/444 445/445/445 446/446/446
f 447/447/447 449/449/449 448/448/448
f 447/447/447 450/450/450 449/449/449
f 451/451/451 453/453/453 452/452/452
f 451/451/451 454/454/454 453/453/453
f 455/455/455 457/457/457 456/456/456
f 455/455/455 456/456/456 458/458/458
f 459/459/459 455/455/455 458/458/458
f 458/458/458 456/456/456 460/460/460
f 459/459/459 458/458/458 461/461/461
f 458/458/458 460/460/460 462/462/462
f 461/461/461 458/458/458 462/462/462
f 461/461/461 462/462/462 463/463/463
f 464/464/464 466/466/466 465/465/465
f 464/464/464 467/467/467 466/466/466
f 468/468/468 470/470/470 469/469/469
f 468/468/468 471/471/471 470/470/470
f 472/472/472 474/474/474 473/473/473
f 472/472/472 473/473/473 475/475/475
f 476/476/476 472/472/472 475/475/475
f 475/475/475 473/473/473 477/477/477
f 476/476/476 475/475/475 478/478/478
f 475/475/475 477/477/477 479/479/479
f 478/478/478 475/475/475 479/479/479
f 478/478/478 479/479/479 480/480/480
f 481/481/481 483/483/483 482/482/482
f 481/481/481 484/484/484 483/483/483
f 485/485/485 487/487/487 486/486/486
f 485/485/485 488/488/488 487/487/487
f 489/489/489 491/491/491 490/490/490
f 489/489/489 490/490/490 492/492/492
f 493/493/493 489/489/489 492/492/492
f 492/492/492 490/490/490 494/494/494
f 493/493/493 492/492/492 495/495/495
f 492/492/492 494/494/494 496/496/496
f 495/495/495 492/492/492 496/496/496
f 495/495/495 496/496/496 497/497/497
f 498/498/498 500/500/500 499/499/499
f 498/498/498 501/501/501 500/500/500
f 502/502/502 504/504/504 503/503/503
f 502/502/502 505/505/505 504/504/504
f 506/506/506 508/508/508 507/507/507
f 506/506/506 507/507/507 509/509/509
f 510/510/510 506/506/506 509/509/509
f 509/509/509 507/507/507 511/511/511
f 510/510/510 509/509/509 512/512/512
f 509/509/509 511/511/511 513/513/513
f 512/512/512 509/509/509 513/513/513
f 512/512/512 513/513/513 514/514/514
f 515/515/515 517/517/517 516/516/516
f 515/515/515 518/518/518 517/517/517
f 519/519/519 521/521/521 520/520/520
f 519/519/519 522/522/522 521/521/521
f 523/523/523 525/525/525 524/524/524
f 523/523/523 524/524/524 526/526/526
f 527/527/527 523/523/523 526/526/526
f 526/526/526 524/524/524 528/528/528
f 527/527/527 526/526/526 529/529/529
f 526/526/526 528/528/528 530/530/530
f 529/529/529 526/526/526 530/530/530
f 529/529/529 530/530/530 531/531/531
f 532/532/532 534/534/534 533/533/533
f 532/532/532 535/535/535 534/534/534
f 536/536/536 538/538/538 537/537/537
f 536/536/536 539/539/539 538/538/538
f 540/540/540 542/542/542 541/541/541
f 540/540/540 541/541/541 543/543/543
f 544/544/544 540/540/540 543/543/543
f 543/543/543 541/541/541 545/545/545
f 544/544/544 543/543/543 546/546/546
f 543/543/543 545/545/545 547/547/547
f 546/546/546 543/543/543 547/547/547
f 546/546/546 547/547/547 548/548/548
f 549/549/549 551/551/551 550/550/550
f 549/549/549 552/552/552 551/551/551
f 553/553/553 555/555/555 554/554/554
f 553/553/553 556/556/556 555/555/555
f 557/557/557 559/559/559 558/558/558
f 557/557/557 558/558/558 560/560/560
f 561/561/561 557/557/557 560/560/560
f 560/560/560 558/558/558 562/562/562
f 561/561/561 560/560/560 563/563/563
f 560/560/560 562/562/562 564/564/564
f 563/563/563 560/560/560 564/564/564
f 563/563/563 564/564/564 565/565/565
f 566/566/566 568/568/568 567/567/567
f 566/566/566 569/569/569 568/568/568
f 570/570/570 572/572/572 571/571/571
f 570/570/570 573/573/573 572/572/572
f 574/574/574 576/576/576 575/575/575
f 574/574/574 575/575/575 577/577/577
f 578/578/578 574/574/574 577/577/577
f 577/577/577 575/575/575 579/579/579
f 578/578/578 577/577/577 580/580/580
f 577/577/577 579/579/579 581/581/581
f 580/580/580 577/577/577 581/581/581
f 580/580/580 581/581/581 582/582/582
f 583/583/583 585/585/585 584/584/584
f 583/583/583 586/586/586 585/585/585
f 587/587/587 589/589/589 588/588/588
f 587/587/587 590/590/590 589/589/589
f 591/591/591 593/593/593 592/592/592
f 591/591/591 592/592/592 594/594/594
f 595/595/595 591/591/591 594/594/594
f 594/594/594 592/592/592 596/596/596
f 595/595/595 594/594/594 597/597/597
f 594/594/594 596/596/596 598/598/598
f 597/597/597 594/594/594 598/598/598
f 597/597/597 598/598/598 599/599/599
f 600/600/600 602/602/602 601/601/601
f 600/600/600 603/603/603 602/602/602
f 604/604/604 606/606/606 605/605/605
f 604/604/604 607/607/607 606/606/606
f 608/608/608 610/610/610 609/609/609
f 608/608/608 609/609/609 611/611/611
f 612/612/612 608/608/608 611/611/611
f 611/611/611 609/609/609 613/613/613
f 612/612/612 611/611/611 614/614/614
f 611/611/611 613/613/613 615/615/615
f 614/614/614 611/611/611 615/615/615
f 614/614/614 615/615/615 616/616/616
f 617/617/617 619/619/619 618/618/618
f 617/617/617 620/620/620 619/619/619
f 621/621/621 623/623/623 622/622/622
f 621/621/621 624/624/624 623/623/623
f 625/625/625 627/627/627 626/626/626
f 625/625/625 626/626/626 628/628/628
f 629/629/629 625/625/625 628/628/628
f 628/628/628 626/626/626 630/630/630
f 629/629/629 628/628/628 631/631/631
f 628/628/628 630/630/630 632/632/632
f 631/631/631 628/628/628 632/632/632
f 631/631/631 632/632/632 633/633/633
f 634/634/634 636/636/636 635/635/635
f 634/634/634 637/637/637 636/636/636
f 638/638/638 640/640/640 639/639/639
f 638/638/638 641/641/641 640/640/640
f 642/642/642 644/644/644 643/643/643
f 642/642/642 643/643/643 645/645/645
f 646/646/646 642/642/642 645/645/645
f 645/645/645 643/643/643 647/647/647
f 646/646/646 645/645/645 648/648/648
f 645/645/645 647/647/647 649/649/649
f 648/648/648 645/645/645 649/649/649
f 648/648/648 649/649/649 650/650/650
f 651/651/651 653/653/653 652/652/652
f 651/651/651 654/654/654 653/653/653
f 655/655/655 657/657/657 656/656/656
f 655/655/655 658/658/658 657/657/657
f 659/659/659 661/661/661 660/660/660
f 659/659/659 660/660/660 662/662/662
f 663/663/663 659/659/659 662/662/662
f 662/662/662 660/660/660 664/664/664
f 663/663/663 662/662/662 665/665/665
f 662/662/662 664/664/664 666/666/666
f 665/665/665 662/662/662 666/666/666
f 665/665/665 666/666/666 667/667/667
f 668/668/668 670/670/670 669/669/669
f 668/668/668 671/671/671 670/670/670
f 672/672/672 674/674/674 673/673/673
f 672/672/672 675/675/675 674/674/674
f 676/676/676 678/678/678 677/677/677
f 676/676/676 677/677/677 679/679/679
f 680/680/680 676/676/676 679/679/679
f 679/679/679 677/677/677 681/681/681
f 680/680/680 679/679/679 682/682/682
f 679/679/679 681/681/681 683/683/683
f 682/682/682 679/679/679 683/683/683
f 682/682/682 683/683/683 684/684/684
f 685/685/685 687/687/687 686/686/686
f 685/685/685 688/688/688 687/687/687
f 689/689/689 691/691/691 690/690/690
f 689/689/689 692/692/692 691/691/691
f 693/693/693 695/695/695 694/694/694
f 693/693/693 694/694/694 696/696/696
f 697/697/697 693/693/693 696/696/696
f 696/696/696 694/694/694 698/698/698
f 697/697/697 696/696/696 699/699/699
f 696/696/696 698/698/698 700/700/700
f 699/699/699 696/696/696 700/700/700
f 699/699/699 700/700/700 701/701/701
f 702/702/702 704/704/704 703/703/703
f 702/702/702 705/705/705 704/704/704
f 706/706/706 708/708/708 707/707/707
f 706/706/706 709/709/709 708/708/708
f 710/710/710 712/712/712 711/711/711
f 710/710/710 711/711/711 713/713/713
f 714/714/714 710/710/710 713/713/713
f 713/713/713 711/711/711 715/715/715
f 714/714/714 713/713/713 716/716/716
f 713/713/713 715/715/715 717/717/717
f 716/716/716 713/713/713 717/717/717
f 716/716/716 717/717/717 718/718/718
f 719/719/719 721/721/721 720/720/720
f 719/719/719 722/722/722 721/721/721
f 723/723/723 725/725/725 724/724/724
f 723/723/723 726/726/726 725/725/725
f 727/727/727 729/729/729 728/728/728
f 727/727/727 728/728/728 730/730/730
f 731/731/731 727/727/727 730/730/730
f 730/730/730 728/728/728 732/732/732
f 731/731/731 730/730/730 733/733/733
f 730/730/730 732/732/732 734/734/734
f 733/733/733 730/730/730 734/734/734
f 733/733/733 734/734/734 735/735/735
f 736/736/736 738/738/738 737/737/737
f 736/736/736 739/739/739 738/738/738
f 740/740/740 742/742/742 741/741/741
f 740/740/740 743/743/743 742/742/742
f 744/744/744 746/746/746 745/745/745
f 744/744/744 745/745/745 747/747/747
f 748/748/748 744/744/744 747/747/747
f 747/747/747 745/745/745 749/749/749
f 748/748/748 747/747/747 750/750/750
f 747/747/747 749/749/749 751/751/751
f 750/750/750 747/747/747 751/751/751
f 750/750/750 751/751/751 752/752/752
f 753/753/753 755/755/755 754/754/754
f 753/753/753 756/756/756 755/755/755
f 757/757/757 759/759/759 758/758/758
f 757/757/757 760/760/760 759/759/759
f 761/761/761 763/763/763 762/762/762
f 761/761/761 762/762/762 764/764/764
f 765/765/765 761/761/761 764/764/764
f 764/764/764 762/762/762 766/766/766
f 765/765/765 764/764/764 767/767/767
f 764/764/764 766/766/766 768/768/768
f 767/767/767 764/764/764 768/768/768
f 767/767/767 768/768/768 769/769/769
f 770/770/770 772/772/772 771/771/771
f 770/770/770 773/773/773 772/772/772
f 774/774/774 776/776/776 775/775/775
f 774/774/774 777/777/777 776/776/776
f 778/778/778 780/780/780 779/779/779
f 778/778/778 779/779/779 781/781/781
f 782/782/782 778/778/778 781/781/781
f 781/781/781 779/779/779 783/783/783
f 782/782/782 781/781/781 784/784/784
f 781/781/781 783/783/783 785/785/785
f 784/784/784 781/781/781 785/785/785
f 784/784/784 785/785/785 786/786/786
f 787/787/787 789/789/789 788/788/788
f 787/787/787 790/790/790 789/789/789
f 791/791/791 793/793/793 792/792/792
f 791/791/791 794/794/794 793/793/793
f 795/795/795 797/797/797 796/796/796
f 795/795/795 796/796/796 798/798/798
f 799/799/799 795/795/795 798/798/798
f 798/798/798 796/796/796 800/800/800
f 799/799/799 798/798/798 801/801/801
f 798/798/798 800/800/800 802/802/802
f 801/801/801 798/798/798 802/802/802
f 801/801/801 802/802/802 803/803/803
f 804/804/804 806/806/806 805/805/805
f 804/804/804 805/805/805 807/807/807
f 808/808/808 804/804/804 807/807/807
f 807/807/807 805/805/805 809/809/809
f 808/808/808 807/807/807 810/810/810
f 807/807/807 809/809/809 811/811/811
f 810/810/810 807/807/807 811/811/811
f 810/810/810 811/811/811 812/812/812
f 813/813/813 815/815/815 814/814/814
f 813/813/813 814/814/814 816/816/816
f 817/817/817 813/813/813 816/816/816
f 816/816/816 814/814/814 818/818/818
f 817/817/817 816/816/816 819/819/819
f 816/816/816 818/818/818 820/820/820
f 819/819/819 816/816/816 820/820/820
f 819/819/819 820/820/820 821/821/821
f 822/822/822 824/824/824 823/823/823
f 822/822/822 825/825/825 824/824/824
f 826/826/826 825/825/825 822/822/822
f 825/825/825 827/827/827 824/824/824
f 826/826/826 828/828/828 825/825/825
f 825/825/825 829/829/829 827/827/827
f 828/828/828 829/829/829 825/825/825
f 828/828/828 830/830/830 829/829/829
f 831/831/831 833/833/833 832/832/832
f 831/831/831 834/834/834 833/833/833
f 835/835/835 837/837/837 836/836/836
f 835/835/835 838/838/838 837/837/837
