mtllib P_BushTropical03.mtl
v 0.5616757 1.087433 -0.5290993 1 1 1
v 0.9894538 1.024243 -0.1002887 1 1 1
v 0.6330158 1.307409 0.2970184 1 1 1
v 0.2052376 1.370599 -0.1317922 1 1 1
v -0.5147428 1.164094 1.061953 1 1 1
v -0.5949751 1.436789 0.6199308 1 1 1
v -0.09572831 1.367357 0.4864772 1 1 1
v -0.01549593 1.094662 0.9284998 1 1 1
v -0.2453423 1.291515 0.7069973 1 1 1
v -0.09712529 1.009834 1.150857 1 1 1
v -0.615862 0.9791906 1.304631 1 1 1
v -0.7640791 1.260872 0.8607712 1 1 1
v -0.6970657 0.963098 1.136801 1 1 1
v -0.418614 1.31701 0.8050593 1 1 1
v 0.05650637 1.178589 1.056186 1 1 1
v -0.2219453 0.8246771 1.387928 1 1 1
v -1.166515 0.9888881 0.7101018 1 1 1
v -0.567461 1.082071 0.8078887 1 1 1
v -0.6187129 0.8313147 1.360814 1 1 1
v -1.217767 0.7381321 1.263027 1 1 1
v -1.028003 0.633253 1.226945 1 1 1
v -1.272327 0.7016426 0.6619732 1 1 1
v -0.7461042 0.9499671 0.464466 1 1 1
v -0.50178 0.8815777 1.029437 1 1 1
v -1.244208 0.8875273 0.6743303 1 1 1
v -1.213287 0.9609657 0.1936292 1 1 1
v -0.7818013 1.170649 0.2534188 1 1 1
v -0.8127226 1.097211 0.7341198 1 1 1
v -0.4915131 1.431877 0.4280533 1 1 1
v -0.8184704 1.268973 0.7447303 1 1 1
v -1.108661 1.147504 0.3826334 1 1 1
v -0.781704 1.310409 0.0659566 1 1 1
v -1.222598 0.9568575 -0.7724752 1 1 1
v -1.135996 1.263428 -0.3304745 1 1 1
v -1.371391 0.8863777 -0.0228315 1 1 1
v -1.457993 0.5798069 -0.4648321 1 1 1
v -1.364063 0.9101211 -0.4157403 1 1 1
v -1.096313 0.8017085 -0.955858 1 1 1
v -0.6770886 1.224124 -0.8328258 1 1 1
v -0.9448377 1.332537 -0.292708 1 1 1
v -0.5481982 1.410307 -0.8670903 1 1 1
v -0.3663862 1.358394 -0.2752828 1 1 1
v -0.9272085 1.154413 -0.120883 1 1 1
v -1.109021 1.206326 -0.7126906 1 1 1
v -1.02085 0.7584268 -1.249056 1 1 1
v -0.4890145 0.7628061 -1.462629 1 1 1
v -0.3285659 1.126087 -1.055635 1 1 1
v -0.8604015 1.121708 -0.8420615 1 1 1
v -0.008761266 1.217897 -1.046976 1 1 1
v -0.434536 1.223333 -0.8346844 1 1 1
v -0.6193076 0.9870487 -1.199213 1 1 1
v -0.193533 0.9816126 -1.411505 1 1 1
v 0.02281355 1.153625 -0.2216268 1 1 1
v 0.5726047 1.053065 -0.198147 1 1 1
v 0.5300009 0.9469505 0.3449735 1 1 1
v -0.01979032 1.047511 0.3214937 1 1 1
v -0.4995902 0.9095591 -0.2803748 1 1 1
v -0.037923 0.9281587 -0.6723671 1 1 1
v 0.3424075 1.035543 -0.2193391 1 1 1
v -0.1192597 1.016944 0.1726531 1 1 1
v -0.3557029 0.8291295 -0.3901636 1 1 1
v -0.3284804 0.8281289 0.1189092 1 1 1
v -0.7668458 0.5768228 0.1418568 1 1 1
v -0.7940683 0.5778231 -0.3672161 1 1 1
v -0.5885557 0.7393781 0.1179403 1 1 1
v -0.3083851 1.043193 0.3497164 1 1 1
v -0.2283832 0.7178291 0.6794996 1 1 1
v -0.5085538 0.4140147 0.4477236 1 1 1
v -0.6039808 1.309398 -0.5646554 1 1 1
v -0.6654091 1.212336 -1.150871 1 1 1
v -0.07911644 1.141079 -1.200509 1 1 1
v -0.01768824 1.238141 -0.6142933 1 1 1
v -0.2053278 1.117529 -1.094037 1 1 1
v -0.1130922 1.413466 -0.637951 1 1 1
v -0.6472462 1.398753 -0.5203806 1 1 1
v -0.7394817 1.102815 -0.9764666 1 1 1
v -0.3914446 1.440878 -0.3481832 1 1 1
v -0.4820576 1.279405 -0.8423209 1 1 1
v 0.0331314 1.227624 -0.9198734 1 1 1
v 0.1237445 1.389097 -0.4257357 1 1 1
v -1.131925 1.034824 -0.7819871 1 1 1
v -0.6352085 1.316033 -0.9986429 1 1 1
v -0.4648426 1.450769 -0.4331725 1 1 1
v -0.9615591 1.169559 -0.2165166 1 1 1
v -0.4746143 1.391593 -0.4957849 1 1 1
v -0.5099818 1.301698 0.009765431 1 1 1
v -1.005476 1.190745 -0.04462772 1 1 1
v -0.9701083 1.280641 -0.5501781 1 1 1
v -1.40065 0.9127764 -0.1961049 1 1 1
v -1.573166 0.4310938 -0.5448278 1 1 1
v -1.223707 0.6392443 -1.005221 1 1 1
v -1.051191 1.120927 -0.6564986 1 1 1
v -0.9515156 1.347676 -0.02204878 1 1 1
v -1.415377 1.020103 0.2800815 1 1 1
v -1.54097 0.7013322 -0.2583568 1 1 1
v -1.077109 1.028906 -0.560487 1 1 1
v -1.307515 1.169411 0.4291408 1 1 1
v -1.506152 0.7161347 0.02747564 1 1 1
v -1.176807 0.9860917 -0.440041 1 1 1
v -0.9781696 1.439368 -0.03837596 1 1 1
v -0.9090814 1.218402 -0.6735026 1 1 1
v -0.5997882 1.305412 -0.1346469 1 1 1
v -1.102007 1.12083 0.1834223 1 1 1
v -1.4113 1.03382 -0.3554335 1 1 1
v -1.196918 1.032659 -0.4966178 1 1 1
v -0.7863656 1.327374 -0.571497 1 1 1
v -0.7067351 1.343569 -0.07115223 1 1 1
v -1.117288 1.048854 0.003726937 1 1 1
v -0.1643183 1.117377 1.212803 1 1 1
v -0.5375482 0.6967044 1.503299 1 1 1
v -0.9975219 0.8226253 1.094672 1 1 1
v -0.624292 1.243298 0.8041762 1 1 1
v -0.1339083 1.136793 0.9136184 1 1 1
v -0.131147 0.896547 1.417506 1 1 1
v -0.6848994 0.8854591 1.415253 1 1 1
v -0.6876606 1.125705 0.9113664 1 1 1
v -0.2285147 1.13151 1.130966 1 1 1
v 0.2830727 1.349201 0.7995102 1 1 1
v 0.6710635 0.9853255 1.159372 1 1 1
v 0.1594761 0.7676335 1.490828 1 1 1
v 0.9262468 0.9430692 0.6959906 1 1 1
v 1.128073 0.8635252 0.2075082 1 1 1
v 1.431162 0.4715822 0.3965589 1 1 1
v 1.229336 0.5511262 0.8850414 1 1 1
v 1.223523 0.7545608 0.8356845 1 1 1
v 0.7269681 0.9894494 1.175071 1 1 1
v 0.5284101 1.314225 0.6597862 1 1 1
v 1.024965 1.079336 0.3203993 1 1 1
v 1.255987 0.7581846 0.09471819 1 1 1
v 1.063719 0.9847901 0.4831843 1 1 1
v 0.8828472 1.329018 0.1928634 1 1 1
v 1.075115 1.102412 -0.1956027 1 1 1
v 0.6786928 1.359416 -0.3051019 1 1 1
v 1.13703 1.127931 -0.1474428 1 1 1
v 1.018275 1.23853 0.3601806 1 1 1
v 0.5599387 1.470015 0.2025215 1 1 1
v 1.808437 0.6644555 -0.06282209 1 1 1
v 1.470055 0.6703201 0.4903652 1 1 1
v 0.9628924 0.9130915 0.1775624 1 1 1
v 1.301275 0.9072267 -0.375625 1 1 1
v 0.8278157 1.224267 -0.4997519 1 1 1
v 1.166127 0.7392691 -0.7414293 1 1 1
v 1.471789 0.67752 -0.1896315 1 1 1
v 1.133478 1.162518 0.05204583 1 1 1
v 0.9526722 1.252448 -0.1099243 1 1 1
v 1.02852 1.149482 -0.6059436 1 1 1
v 1.462969 0.9124549 -0.4903076 1 1 1
v 1.387122 1.015422 0.005711777 1 1 1
v 1.218505 0.9875958 -0.05503765 1 1 1
v 0.7735226 1.393246 -0.08291494 1 1 1
v 0.6840293 1.255555 -0.657986 1 1 1
v 1.129012 0.8499046 -0.6301087 1 1 1
v 0.4518947 1.342058 -0.7166288 1 1 1
v 0.7019142 1.240742 -0.2776441 1 1 1
v 0.2860248 1.37142 -0.01061821 1 1 1
v 0.03600515 1.472736 -0.4496028 1 1 1
v 0.6854587 1.244939 -0.4361595 1 1 1
v 0.3522682 1.306897 0.04939778 1 1 1
v -0.1315609 1.315818 -0.2837452 1 1 1
v 0.2016295 1.253859 -0.7693025 1 1 1
v 0.02484495 0.6890148 -1.456514 1 1 1
v 0.5503029 0.6454929 -1.540094 1 1 1
v 0.6421242 0.9704548 -1.132035 1 1 1
v 0.1166662 1.013977 -1.048455 1 1 1
v -0.2020753 0.9665354 -1.455243 1 1 1
v 0.2371198 1.039702 -1.249348 1 1 1
v 0.02039628 1.197695 -0.8431996 1 1 1
v -0.4187988 1.124529 -1.049095 1 1 1
v 0.1057533 0.4638537 -1.211731 1 1 1
v 0.617902 0.504634 -1.05729 1 1 1
v 0.4900818 0.9135242 -0.7413862 1 1 1
v -0.022067 0.872744 -0.895827 1 1 1
v 0.6880748 0.8620235 0.6638086 1 1 1
v 0.3639706 1.227674 0.2371011 1 1 1
v 0.7220841 0.9874772 -0.2407306 1 1 1
v 1.046188 0.6218265 0.185977 1 1 1
v 0.590316 0.9233636 0.6326043 1 1 1
v 0.3225549 0.6495158 1.102229 1 1 1
v -0.215934 0.8129947 0.8905325 1 1 1
v 0.05182711 1.086843 0.4209077 1 1 1
v -0.7154759 0.1216082 -1.189279 1 1 1
v -0.2919752 0.421669 -1.314228 1 1 1
v -0.4135848 0.7565268 -0.9222585 1 1 1
v -0.8370855 0.4564659 -0.7973102 1 1 1
v -0.03126866 0.8921657 -0.6840876 1 1 1
v -0.5284899 0.8079911 -0.7737727 1 1 1
v -0.408209 0.5378658 -1.187092 1 1 1
v 0.08901235 0.6220405 -1.097406 1 1 1
v -0.082178 0.93955 -0.7687089 1 1 1
v -0.7017162 0.7630698 -0.7039447 1 1 1
v -0.6398066 0.3627738 -1.202505 1 1 1
v -0.02026841 0.5392539 -1.26727 1 1 1
v 0.05365968 0.3154458 -1.4223 1 1 1
v -0.4178237 0.2839745 -1.472542 1 1 1
v -0.4765421 0.5082875 -1.062022 1 1 1
v -0.005058753 0.5397589 -1.01178 1 1 1
v -1.049079 0.5706862 -0.4021379 1 1 1
v -0.8993065 0.2303468 -0.8573058 1 1 1
v -0.5104805 0.6299474 -1.028153 1 1 1
v -0.660253 0.9702868 -0.5729855 1 1 1
v -0.6401245 0.7610123 -0.6724704 1 1 1
v -0.7982925 0.9129318 -0.1377831 1 1 1
v -1.253942 0.566757 -0.1742128 1 1 1
v -1.095774 0.4148376 -0.7089002 1 1 1
v -1.126863 0.5694335 -0.001421651 1 1 1
v -0.8090346 0.8641827 0.2907093 1 1 1
v -0.9281301 0.5794873 0.7075282 1 1 1
v -1.245959 0.2847381 0.4153973 1 1 1
v -0.5842351 0.883354 0.7627891 1 1 1
v -1.012381 0.5654675 0.5013527 1 1 1
v -0.8512895 0.7799754 -0.02328744 1 1 1
v -0.4231433 1.097862 0.2381488 1 1 1
v -0.5009099 0.5852226 1.02319 1 1 1
v -0.9394565 0.3160035 1.058762 1 1 1
v -1.068623 0.4639665 0.5861706 1 1 1
v -0.6300765 0.7331856 0.5505984 1 1 1
v -0.4758391 0.8010435 0.7101977 1 1 1
v -0.6193654 0.9932241 0.2841663 1 1 1
v -0.1701463 1.159642 0.2078984 1 1 1
v -0.02661998 0.9674613 0.6339298 1 1 1
v -0.3502536 0.1828442 1.405896 1 1 1
v -0.70543 0.1388576 0.9032606 1 1 1
v -0.3379314 0.5304301 0.6093083 1 1 1
v 0.01724498 0.5744167 1.111944 1 1 1
v 0.2485068 0.4890998 1.509417 1 1 1
v -0.2892796 0.4528595 1.378074 1 1 1
v -0.1838349 0.6742042 0.885257 1 1 1
v 0.3539515 0.7104445 1.0166 1 1 1
v 0.408206 0.6570148 1.038513 1 1 1
v -0.1214613 0.9360674 0.8712519 1 1 1
v 0.1478194 1.137247 0.3541588 1 1 1
v 0.6774868 0.8581944 0.5214201 1 1 1
v -0.136248 0.1971441 1.423012 1 1 1
v 0.370597 0.5493243 1.112458 1 1 1
v 0.3525229 0.2106829 1.461462 1 1 1
v -0.1181739 0.5357855 1.074009 1 1 1
v 0.7498235 0.1859142 1.432841 1 1 1
v 0.2156813 0.2829455 1.428026 1 1 1
v 0.2580788 0.4917908 0.9333169 1 1 1
v 0.7922209 0.3947596 0.9381313 1 1 1
v 1.124336 0.3940801 0.8240482 1 1 1
v 0.8237442 0.3064854 1.3081 1 1 1
v 0.4152552 0.6589549 1.118216 1 1 1
v 0.7158476 0.7465494 0.6341632 1 1 1
v 0.6331508 0.7061574 0.6650599 1 1 1
v 0.29409 1.084518 0.4216434 1 1 1
v 0.662046 1.146522 0.005486356 1 1 1
v 1.001107 0.7681616 0.2489028 1 1 1
v 0.8127089 0.5711476 0.3382003 1 1 1
v 1.372615 0.4496532 0.07027236 1 1 1
v 1.59755 0.2622292 0.6253231 1 1 1
v 1.037644 0.3837237 0.8932509 1 1 1
v 0.9215032 0.6259524 -0.6980112 1 1 1
v 1.36768 0.3621441 -0.5540119 1 1 1
v 1.313857 0.5435409 -0.05492211 1 1 1
v 0.8676804 0.8073491 -0.1989214 1 1 1
v 0.9675446 0.6916114 -0.6189726 1 1 1
v 0.9366338 0.1708059 -0.8740956 1 1 1
v 1.345001 -0.02731966 -0.5191224 1 1 1
v 1.375912 0.4934858 -0.2639993 1 1 1
v 0.9630457 0.0964616 -1.052434 1 1 1
v 1.068682 0.2442086 -0.602329 1 1 1
v 0.8514228 0.665056 -0.6894828 1 1 1
v 0.7457862 0.517309 -1.139588 1 1 1
v 0.1156505 1.123182 -0.3610407 1 1 1
v 0.2771876 0.9835663 -0.793538 1 1 1
v 0.6759871 0.8145723 -0.5900338 1 1 1
v 0.5144501 0.954188 -0.1575363 1 1 1
v -0.1240716 0.4875434 -1.230698 1 1 1
v 0.5074763 0.5073442 -1.147591 1 1 1
v 0.4359621 0.9600855 -0.7120094 1 1 1
v -0.1955859 0.9402848 -0.795117 1 1 1
v 1.16845 1.26933 0.1705856 1 1 1
v 1.089722 1.194065 0.6988321 1 1 1
v 0.6210687 1.450238 0.665485 1 1 1
v 0.6997975 1.525503 0.1372386 1 1 1
v 1.017599 1.11928 0.9281505 1 1 1
v 0.4592054 1.263746 1.219901 1 1 1
v 0.2293831 1.492669 0.6666784 1 1 1
v 0.7877765 1.348202 0.374928 1 1 1
v 0.6991614 1.50937 0.6466435 1 1 1
v 0.08487456 1.358112 0.6504133 1 1 1
v 0.04219672 1.516334 0.0444874 1 1 1
v 0.6564836 1.667592 0.04071765 1 1 1
v 0.5492874 1.40704 -0.1672833 1 1 1
v 0.9694155 1.431848 0.1849379 1 1 1
v 0.6230162 1.541947 0.5903675 1 1 1
v 0.2028878 1.517139 0.2381463 1 1 1
v 0.1073313 1.154515 -0.7510172 1 1 1
v 0.5492102 0.9708 -0.9960548 1 1 1
v 0.8358986 1.07748 -0.5590485 1 1 1
v 0.3940199 1.261195 -0.3140109 1 1 1
v 0.3926312 1.581336 0.09797869 1 1 1
v 0.5102807 1.434926 0.6612266 1 1 1
v -0.05525285 1.291113 0.7419707 1 1 1
v -0.1729021 1.437523 0.1787228 1 1 1
v -0.5419439 1.316859 0.2684982 1 1 1
v -0.08223439 1.58094 0.1318836 1 1 1
v 0.1145739 1.496593 0.6310974 1 1 1
v -0.3451356 1.232511 0.767712 1 1 1
v 0.3372685 0.8787687 1.200276 1 1 1
v -0.1006272 0.9027106 0.874343 1 1 1
v 0.0294287 1.410753 0.7369301 1 1 1
v 0.4673244 1.386811 1.062863 1 1 1
v 0.8650061 1.671498 0.320263 1 1 1
v 1.199449 1.460069 0.6879957 1 1 1
v 0.7965783 1.436138 1.040636 1 1 1
v 0.4621358 1.647567 0.6729029 1 1 1
v 0.5009167 1.492391 0.4985075 1 1 1
v 1.035558 1.375609 0.1422805 1 1 1
v 1.338261 1.15235 0.6697811 1 1 1
v 0.8036194 1.269132 1.026008 1 1 1
v 0.6903716 1.495341 0.09682905 1 1 1
v 1.136179 1.282462 0.3828946 1 1 1
v 0.8275632 1.274296 0.8577674 1 1 1
v 0.381756 1.487176 0.5717019 1 1 1
v 0.9978088 1.437175 0.4304963 1 1 1
v 0.6531233 1.478198 0.08656594 1 1 1
v 0.9713277 1.333879 -0.249551 1 1 1
v 1.316013 1.292856 0.09437943 1 1 1
v 0.9056407 1.52296 -0.2591424 1 1 1
v 1.390948 1.263767 0.0261766 1 1 1
v 1.062291 1.21831 0.5439037 1 1 1
v 0.5769839 1.477503 0.2585847 1 1 1
v 0.2187994 0.509855 -0.5635747 1 1 1
v 0.3611299 0.5962619 -0.09769778 1 1 1
v -0.09482248 0.5036682 0.0587741 1 1 1
v -0.237153 0.4172613 -0.4071029 1 1 1
v -0.4296514 0.5698131 -0.4545565 1 1 1
v -0.07292243 0.5326292 -0.04874445 1 1 1
v -0.4650725 0.3709892 0.2811641 1 1 1
v -0.8218014 0.4081731 -0.124648 1 1 1
v -0.4150112 0.4140235 0.2762039 1 1 1
v -0.1704534 0.5567915 0.6980114 1 1 1
v -0.4192527 0.2060301 0.960983 1 1 1
v -0.6638106 0.06326193 0.5391755 1 1 1
v -0.6737104 0.1744485 0.6650406 1 1 1
v -0.7585256 0.3551339 0.1290272 1 1 1
v -0.2519262 0.6108134 0.1350536 1 1 1
v -0.1671111 0.4301279 0.6710671 1 1 1
v -0.002723804 0.4782892 0.4855038 1 1 1
v -0.4100093 0.317245 0.7323751 1 1 1
v -0.6864482 0.3896079 0.3235148 1 1 1
v -0.2791627 0.5506521 0.07664344 1 1 1
v 0.5622596 0.4956217 0.2025087 1 1 1
v 0.1886783 0.6406825 -0.2035252 1 1 1
v 0.507597 0.3783721 -0.5906677 1 1 1
v 0.8811783 0.2333113 -0.1846337 1 1 1
v 0.7976983 0.3086608 -0.3265073 1 1 1
v 0.3198355 0.5818856 -0.3810799 1 1 1
v 0.244596 0.3519028 -0.8736848 1 1 1
v 0.7224588 0.07867805 -0.8191121 1 1 1
v 0.3704954 0.5323879 -0.6251963 1 1 1
v -0.1683052 0.6789993 -0.5095401 1 1 1
v -0.3523846 0.2222221 -0.7880671 1 1 1
v 0.1864159 0.07561079 -0.9037233 1 1 1
v -0.3680669 1.29838 -1.038324 1 1 1
v 0.08526925 1.318333 -0.9040368 1 1 1
v -0.04036523 1.547479 -0.5139577 1 1 1
v -0.4937014 1.527526 -0.6482443 1 1 1
v -0.9232529 1.023633 -1.406569 1 1 1
v -0.4036328 0.9821464 -1.598032 1 1 1
v -0.2249634 1.294546 -1.180826 1 1 1
v -0.7445834 1.336032 -0.9893624 1 1 1
v -1.575055 0.9514409 -0.8580072 1 1 1
v -1.14344 0.9144084 -1.186291 1 1 1
v -0.8623874 1.231325 -0.8525247 1 1 1
v -1.294002 1.268358 -0.5242406 1 1 1
v -1.266782 1.381216 -0.4488772 1 1 1
v -0.971944 1.669944 -0.1741725 1 1 1
v -1.040891 1.373057 0.2118703 1 1 1
v -1.335728 1.084329 -0.06283443 1 1 1
v -1.390097 1.19234 -0.7772892 1 1 1
v -0.8820646 1.56441 -0.749663 1 1 1
v -0.9619844 1.627721 -0.1326482 1 1 1
v -1.470017 1.25565 -0.1602745 1 1 1
v -0.9979624 1.281908 -0.7247511 1 1 1
v -0.5249502 1.586695 -0.6819319 1 1 1
v -0.550054 1.547267 -0.1239718 1 1 1
v -1.023066 1.242481 -0.1667911 1 1 1
v -0.643059 1.479803 0.06303353 1 1 1
v -0.6425413 1.604563 -0.4249763 1 1 1
v -0.1606582 1.476084 -0.4573107 1 1 1
v -0.1611759 1.351324 0.03069907 1 1 1
v -0.1840811 1.401917 -0.5551375 1 1 1
v -0.1857918 1.415723 0.1005955 1 1 1
v -0.8069165 1.609744 0.09489023 1 1 1
v -0.8052058 1.595939 -0.5608426 1 1 1
v -0.8369735 1.578938 -0.8538061 1 1 1
v -0.3396033 1.612884 -0.7335126 1 1 1
v -0.4631257 1.702845 -0.2481783 1 1 1
v -0.9604961 1.668899 -0.3684718 1 1 1
v -0.03386831 0.7085093 0.2022012 1 1 1
v -0.3810709 0.722901 -0.3497602 1 1 1
v 0.1179715 0.4642116 -0.6704201 1 1 1
v 0.465174 0.4498199 -0.1184585 1 1 1
v -0.3930568 0.7332743 -0.3658203 1 1 1
v -0.4070559 0.5713085 0.1159299 1 1 1
v -0.9109266 0.5947774 0.1091783 1 1 1
v -0.8969275 0.7567431 -0.3725719 1 1 1
v -1.403088 0.4604057 0.1627185 1 1 1
v -0.8633465 0.7160749 0.3137349 1 1 1
v -0.8918979 0.4513756 0.8639131 1 1 1
v -1.431639 0.1957063 0.7128967 1 1 1
v -1.582063 0.4373361 0.09854198 1 1 1
v -1.803783 0.2214844 -0.4744814 1 1 1
v -1.332186 0.5424885 -0.7778757 1 1 1
v -1.110465 0.7583404 -0.2048522 1 1 1
v -1.351171 0.404822 0.2575051 1 1 1
v -1.94145 0.2228399 0.03751681 1 1 1
v -1.724966 0.2608441 -0.574798 1 1 1
v -1.134687 0.4428262 -0.3548097 1 1 1
v -0.444079 0.6378658 -1.147411 1 1 1
v -0.7833885 0.7381275 -0.677606 1 1 1
v -1.208346 0.4170602 -0.9160059 1 1 1
v -0.8690366 0.3167986 -1.385811 1 1 1
v -0.9126931 0.4460879 -1.319512 1 1 1
v -0.6248878 0.5772604 -0.881369 1 1 1
v -1.076447 0.6080301 -0.5939625 1 1 1
v -1.364253 0.4768577 -1.032105 1 1 1
v -1.240454 0.5769294 -0.6603702 1 1 1
v -1.606555 0.4837214 -1.196666 1 1 1
v -1.066563 0.4102375 -1.552518 1 1 1
v -0.7004623 0.5034455 -1.016222 1 1 1
v -1.994919 0.2895786 -0.8425716 1 1 1
v -1.453991 0.4199585 -1.144316 1 1 1
v -1.200268 0.6165642 -0.6045227 1 1 1
v -1.741196 0.4861842 -0.3027785 1 1 1
v -2.307995 0.1344912 -0.293076 1 1 1
v -2.052566 0.07286992 -0.8911536 1 1 1
v -1.537594 0.4207174 -0.7070575 1 1 1
v -1.793023 0.4823387 -0.1089799 1 1 1
v -1.685287 0.3363745 0.4116981 1 1 1
v -1.289716 0.5849935 -0.04108804 1 1 1
v -0.796163 0.5555521 0.3739327 1 1 1
v -1.191734 0.3069332 0.8267189 1 1 1
v -1.381308 0.5605293 0.06185137 1 1 1
v -1.168393 0.6055338 -0.3875974 1 1 1
v -0.7204219 0.5988682 -0.1760501 1 1 1
v -0.9333366 0.5538636 0.2733987 1 1 1
v -0.882612 0.6759871 0.7085847 1 1 1
v -1.214535 0.5658499 0.301628 1 1 1
v -0.7972021 0.445133 -0.006087554 1 1 1
v -0.4652792 0.5552702 0.400869 1 1 1
v -1.16681 0.4217559 0.2883355 1 1 1
v -0.7458244 0.6129679 -0.1549378 1 1 1
v -0.3108321 0.7069953 0.2987437 1 1 1
v -0.7318181 0.5157833 0.7420169 1 1 1
v -0.3781954 0.5923784 0.5788228 1 1 1
v -0.9504545 0.4063642 0.4857049 1 1 1
v -0.9134388 0.5813541 -0.09134045 1 1 1
v -0.3411796 0.7673684 0.001777433 1 1 1
v -0.4292894 0.7306409 0.3777086 1 1 1
v -0.2255544 0.3285654 0.8053304 1 1 1
v -0.8075333 0.1737463 0.9370366 1 1 1
v -1.011268 0.5758219 0.509415 1 1 1
v -0.6629531 0.8560451 0.1574281 1 1 1
v -1.218786 0.7024782 -0.103937 1 1 1
v -0.9188306 0.4636577 -0.6015188 1 1 1
v -0.3629972 0.6172248 -0.3401536 1 1 1
v -0.2729186 0.6343982 0.006565684 1 1 1
v -0.834052 0.6922682 -0.007501201 1 1 1
v -0.8223414 0.6698664 -0.5667994 1 1 1
v -0.261208 0.6119965 -0.5527325 1 1 1
v 0.01841278 0.8444384 -0.07448076 1 1 1
v 0.5087584 0.4395985 0.03835868 1 1 1
v 0.1663419 0.1529354 0.4978586 1 1 1
v -0.3240037 0.5577754 0.3850192 1 1 1
v -0.4339806 0.6524457 -0.1960579 1 1 1
v -0.1274632 0.6113231 -0.5562934 1 1 1
v 0.2308217 0.6036572 -0.2505605 1 1 1
v -0.0756957 0.6447799 0.1096749 1 1 1
v -0.1287047 0.6145651 0.1548712 0.5490196 0.5490196 0.5490196
v -0.2406841 1.326334 0.2707651 1 1 1
v -0.2305657 1.326686 0.2737142 1 1 1
v -0.1105736 0.6151968 0.1601558 0.5490196 0.5490196 0.5490196
v -0.07391391 -0.1035232 0.05273089 0.003921569 0.003921569 0.003921569
v -0.2331433 1.327933 0.2635691 1 1 1
v -0.05578287 -0.1028915 0.05801547 0.003921569 0.003921569 0.003921569
v -0.1151924 0.6174302 0.1419766 0.5490196 0.5490196 0.5490196
v -0.2406841 1.326334 0.2707651 1 1 1
v -0.06040165 -0.1006581 0.03983629 0.003921569 0.003921569 0.003921569
v -0.1287047 0.6145651 0.1548712 0.5490196 0.5490196 0.5490196
v -0.07391391 -0.1035232 0.05273089 0.003921569 0.003921569 0.003921569
v 0.137928 0.4763342 0.7831571 0.5490196 0.5490196 0.5490196
v 0.1766391 1.049128 0.9625809 1 1 1
v 0.1801142 1.050917 0.9534504 1 1 1
v 0.1441549 0.4795391 0.7667965 0.5490196 0.5490196 0.5490196
v 0.1083938 -0.1084584 0.6573553 0.003921569 0.003921569 0.003921569
v 0.1146207 -0.1052533 0.6409947 0.003921569 0.003921569 0.003921569
v 0.1703304 1.051044 0.9551534 1 1 1
v 0.1266234 0.4797681 0.7698481 0.5490196 0.5490196 0.5490196
v 0.09708922 -0.1050244 0.6440463 0.003921569 0.003921569 0.003921569
v 0.137928 0.4763342 0.7831571 0.5490196 0.5490196 0.5490196
v 0.1766391 1.049128 0.9625809 1 1 1
v 0.1083938 -0.1084584 0.6573553 0.003921569 0.003921569 0.003921569
v 0.5556861 0.312956 -0.8465701 0.5490196 0.5490196 0.5490196
v 0.5455295 0.777219 -1.111501 1 1 1
v 0.5554533 0.7740889 -1.114531 1 1 1
v 0.5769089 0.3052035 -0.8541969 0.5490196 0.5490196 0.5490196
v 0.519471 -0.09933329 -0.5209829 0.003921569 0.003921569 0.003921569
v 0.5406938 -0.1070857 -0.5286098 0.003921569 0.003921569 0.003921569
v 0.5412356 0.7697142 -1.121652 1 1 1
v 0.5514323 0.2973647 -0.866957 0.5490196 0.5490196 0.5490196
v 0.5152172 -0.1149246 -0.5413699 0.003921569 0.003921569 0.003921569
v 0.5556861 0.312956 -0.8465701 0.5490196 0.5490196 0.5490196
v 0.5455295 0.777219 -1.111501 1 1 1
v 0.519471 -0.09933329 -0.5209829 0.003921569 0.003921569 0.003921569
v 0.9801754 0.3161512 0.0151873 0.5490196 0.5490196 0.5490196
v 1.309814 0.8143159 0.03486666 1 1 1
v 1.324456 0.8076323 0.02576277 1 1 1
v 0.9539384 0.3281277 0.03150052 0.5490196 0.5490196 0.5490196
v 0.729805 -0.2192619 0.005591001 0.003921569 0.003921569 0.003921569
v 0.7035681 -0.2072854 0.02190423 0.003921569 0.003921569 0.003921569
v 1.3101 0.8145142 0.0163565 1 1 1
v 0.9544504 0.3284828 -0.001667713 0.5490196 0.5490196 0.5490196
v 0.7040799 -0.2069303 -0.01126401 0.003921569 0.003921569 0.003921569
v 0.9801754 0.3161512 0.0151873 0.5490196 0.5490196 0.5490196
v 1.324456 0.8076323 0.02576277 1 1 1
v 0.729805 -0.2192619 0.005591001 0.003921569 0.003921569 0.003921569
v 0.5237755 0.2884185 0.4246788 0.5490196 0.5490196 0.5490196
v 0.6902003 0.6938929 0.3922985 1 1 1
v 0.6784734 0.6959971 0.3858631 1 1 1
v 0.502762 0.2921892 0.4131472 0.5490196 0.5490196 0.5490196
v 0.4314619 -0.1334244 0.4549609 0.003921569 0.003921569 0.003921569
v 0.4104483 -0.1296537 0.4434292 0.003921569 0.003921569 0.003921569
v 0.6790429 0.696843 0.3993818 1 1 1
v 0.5037825 0.2937048 0.4373715 0.5490196 0.5490196 0.5490196
v 0.4114688 -0.1281381 0.4676535 0.003921569 0.003921569 0.003921569
v 0.5237755 0.2884185 0.4246788 0.5490196 0.5490196 0.5490196
v 0.6902003 0.6938929 0.3922985 1 1 1
v 0.4314619 -0.1334244 0.4549609 0.003921569 0.003921569 0.003921569
v -0.6308768 0.3667024 0.5810112 0.5490196 0.5490196 0.5490196
v -0.7112405 0.8546565 0.8865623 1 1 1
v -0.7090986 0.8487402 0.8990877 1 1 1
v -0.6347143 0.377304 0.5585672 0.5490196 0.5490196 0.5490196
v -0.5804176 -0.1500179 0.3283103 0.003921569 0.003921569 0.003921569
v -0.6983845 0.8535333 0.8914259 1 1 1
v -0.584255 -0.1394165 0.3058662 0.003921569 0.003921569 0.003921569
v -0.6116779 0.3752915 0.5672821 0.5490196 0.5490196 0.5490196
v -0.7090986 0.8487402 0.8990877 1 1 1
v -0.5612187 -0.141429 0.3145812 0.003921569 0.003921569 0.003921569
v -0.6308768 0.3667024 0.5810112 0.5490196 0.5490196 0.5490196
v -0.5804176 -0.1500179 0.3283103 0.003921569 0.003921569 0.003921569
v -0.9200505 0.975796 -0.2637403 1 1 1
v -0.9326932 0.9732051 -0.2595053 1 1 1
v -0.738477 0.4446282 -0.2169721 0.5490196 0.5490196 0.5490196
v -0.7158228 0.449271 -0.2245605 0.5490196 0.5490196 0.5490196
v -0.6174307 -0.1009391 -0.1893996 0.003921569 0.003921569 0.003921569
v -0.5947765 -0.09629629 -0.196988 0.003921569 0.003921569 0.003921569
v -0.9227418 0.9758604 -0.2506507 1 1 1
v -0.7206452 0.4493865 -0.2011056 0.5490196 0.5490196 0.5490196
v -0.5995991 -0.09618089 -0.1735331 0.003921569 0.003921569 0.003921569
v -0.738477 0.4446282 -0.2169721 0.5490196 0.5490196 0.5490196
v -0.9326932 0.9732051 -0.2595053 1 1 1
v -0.6174307 -0.1009391 -0.1893996 0.003921569 0.003921569 0.003921569
v 0.516821 0.6571972 0.0802248 0.5490196 0.5490196 0.5490196
v 0.73729 1.468738 0.2613593 1 1 1
v 0.7422394 1.469013 0.2499601 1 1 1
v 0.5256898 0.6576892 0.0597986 0.5490196 0.5490196 0.5490196
v 0.3030722 -0.165469 -0.03239867 0.003921569 0.003921569 0.003921569
v 0.7302655 1.471899 0.2516032 1 1 1
v 0.311941 -0.164977 -0.05282489 0.003921569 0.003921569 0.003921569
v 0.504234 0.6628609 0.06274295 0.5490196 0.5490196 0.5490196
v 0.73729 1.468738 0.2613593 1 1 1
v 0.2904851 -0.1598053 -0.04988054 0.003921569 0.003921569 0.003921569
v 0.516821 0.6571972 0.0802248 0.5490196 0.5490196 0.5490196
v 0.3030722 -0.165469 -0.03239867 0.003921569 0.003921569 0.003921569
v -0.3846916 0.5058065 -0.8801848 0.5490196 0.5490196 0.5490196
v -0.5602945 1.187617 -1.227533 1 1 1
v -0.5662466 1.189942 -1.21816 1 1 1
v -0.3953574 0.5099727 -0.8633887 0.5490196 0.5490196 0.5490196
v -0.2062563 -0.1994425 -0.5919354 0.003921569 0.003921569 0.003921569
v -0.5552168 1.192529 -1.218657 1 1 1
v -0.2169222 -0.1952763 -0.5751395 0.003921569 0.003921569 0.003921569
v -0.375593 0.5146089 -0.8642803 0.5490196 0.5490196 0.5490196
v -0.5602945 1.187617 -1.227533 1 1 1
v -0.1971577 -0.19064 -0.576031 0.003921569 0.003921569 0.003921569
v -0.3846916 0.5058065 -0.8801848 0.5490196 0.5490196 0.5490196
v -0.2062563 -0.1994425 -0.5919354 0.003921569 0.003921569 0.003921569
v 0.2264849 0.942755 0.2819863 1 1 1
v 0.2348449 0.9423309 0.2834147 1 1 1
v 0.1731771 0.4057389 0.2395149 0.5490196 0.5490196 0.5490196
v 0.1581968 0.4064991 0.2369554 0.5490196 0.5490196 0.5490196
v 0.2318971 0.9426671 0.2754581 1 1 1
v 0.1331493 -0.1325559 0.2234488 0.003921569 0.003921569 0.003921569
v 0.1481296 -0.1333161 0.2260084 0.003921569 0.003921569 0.003921569
v 0.167895 0.4063416 0.2252575 0.5490196 0.5490196 0.5490196
v 0.1428474 -0.1327134 0.2117509 0.003921569 0.003921569 0.003921569
v 0.1731771 0.4057389 0.2395149 0.5490196 0.5490196 0.5490196
v 0.2348449 0.9423309 0.2834147 1 1 1
v 0.1481296 -0.1333161 0.2260084 0.003921569 0.003921569 0.003921569
v -1.26267 0.1722058 -0.5578268 0.5490196 0.5490196 0.5490196
v -1.578179 0.4746156 -0.5467864 1 1 1
v -1.584608 0.4691149 -0.5404991 1 1 1
v -1.25115 0.1820624 -0.5690928 0.5490196 0.5490196 0.5490196
v -1.577033 0.4752578 -0.5364986 1 1 1
v -0.9745639 -0.1525537 -0.5790151 0.003921569 0.003921569 0.003921569
v -0.9860843 -0.1624102 -0.5677491 0.003921569 0.003921569 0.003921569
v -0.9725105 -0.151403 -0.5605804 0.003921569 0.003921569 0.003921569
v -1.249096 0.1832131 -0.5506579 0.5490196 0.5490196 0.5490196
v -0.9860843 -0.1624102 -0.5677491 0.003921569 0.003921569 0.003921569
v -1.26267 0.1722058 -0.5578268 0.5490196 0.5490196 0.5490196
v -1.584608 0.4691149 -0.5404991 1 1 1
vn 0.2602404 0.7570251 -0.5993229
vn 0.5671765 0.7956551 -0.212706
vn 0.291335 0.9448538 0.1495831
vn -0.02363923 0.9927123 -0.1181675
vn -0.1580536 0.7585775 0.6321228
vn 0.07094996 0.7727005 0.6307932
vn -0.1969702 0.9534117 0.2284923
vn -0.1654282 0.7955473 0.5828705
vn -0.2844593 0.8770415 0.3871449
vn -0.2367332 0.6629265 0.7102717
vn -0.0708662 0.6772419 0.7323397
vn -0.1343585 0.7428097 0.6558822
vn -0.1500726 0.6871364 0.71086
vn -0.2917303 0.8357729 0.4651635
vn -0.1651525 0.7393067 0.6528018
vn -0.3062343 0.4475704 0.8401793
vn -0.3766192 0.5806261 0.7218251
vn -0.1104334 0.8044672 0.5836411
vn -0.1262448 0.6311789 0.7652943
vn -0.3455767 0.5890851 0.7304488
vn -0.323653 0.544729 0.7736402
vn -0.4730843 0.6308135 0.6150329
vn -0.0787483 0.7009643 0.7088354
vn -0.1338778 0.7085668 0.6928275
vn -0.4341882 0.5920604 0.6789294
vn -0.4501091 0.5607119 0.6949849
vn -0.07082903 0.7398726 0.6690081
vn -0.1343209 0.7428257 0.6558719
vn 0.1022339 0.8178656 0.5662546
vn -0.1181711 0.6616674 0.7404268
vn -0.3068206 0.6530374 0.6923895
vn -0.04718873 0.8805006 0.4716906
vn -0.5033218 0.6527324 -0.5662222
vn -0.3703206 0.9140428 -0.1654941
vn -0.6530204 0.5586122 0.5113871
vn -0.8525087 0.4104775 -0.3236311
vn -0.5831836 0.7880895 -0.1970071
vn -0.402649 0.2368218 -0.8841885
vn -0.0391953 0.8547467 -0.5175634
vn -0.2680664 0.9540265 -0.1340668
vn 0.08626594 0.8863246 -0.4549581
vn 0.2913063 0.9526978 0.08664595
vn -0.2525671 0.9629338 0.09470107
vn -0.3531482 0.8867717 -0.2981984
vn -0.3154823 0.2208464 -0.9228747
vn 0.04727216 0.1654798 -0.9850796
vn 0.2131591 0.6789243 -0.7025846
vn -0.1976125 0.8299392 -0.5216803
vn 0.3997853 0.6897936 -0.6036196
vn 0.1808468 0.8097666 -0.5581868
vn 0.01580423 0.4815744 -0.8762627
vn 0.2054169 0.4345183 -0.8769252
vn 0.1893234 0.9780719 -0.08678693
vn 0.2839354 0.9228371 -0.260293
vn 0.2913532 0.9448454 0.1496007
vn -0.1734197 0.9694606 0.1734123
vn 0.2913155 0.9526997 0.08659434
vn 0.3547468 0.7488979 -0.5597379
vn 0.1102571 0.9372442 -0.3307821
vn -0.04718011 0.9667065 0.2515005
vn 0.3790828 0.8923898 -0.2448197
vn -0.07107377 0.8689535 0.4897636
vn -0.1415648 0.6840708 0.7155464
vn -0.3534493 0.9032155 -0.2434654
vn 0.01579273 0.7490339 0.6623434
vn -0.07110379 0.8689682 0.4897332
vn -0.2846263 0.7827439 0.5534437
vn -0.110421 0.8044696 0.5836401
vn 0.08670942 0.9616676 -0.2601478
vn -0.03155496 0.5832057 -0.8117114
vn 0.3781124 0.6223328 -0.6853707
vn 0.4014423 0.8343315 -0.3778029
vn 0.3384486 0.6454313 -0.6847416
vn 0.3790733 0.8924051 -0.2447787
vn -0.06317639 0.9713708 -0.2290142
vn -0.0551204 0.6614146 -0.7479923
vn 0.212505 0.9760189 -0.04721049
vn 0.1808428 0.809757 -0.558202
vn 0.4470854 0.7294593 -0.5176909
vn 0.1418941 0.9459383 -0.2916621
vn -0.4655547 0.678606 -0.5681131
vn 0.07110479 0.758457 -0.6478326
vn 0.2125028 0.97602 -0.04719682
vn -0.2606919 0.9638367 -0.05530427
vn 0.2052993 0.9631668 -0.1736719
vn 0.1257751 0.9354942 0.3301988
vn -0.3079089 0.9395167 0.1500017
vn -0.3149435 0.9212302 -0.2283539
vn -0.6754005 0.7303506 0.1020889
vn -0.7163353 0.6376195 -0.2833818
vn -0.4160599 0.4003792 -0.81645
vn -0.3531272 0.8867657 -0.2982413
vn -0.1496293 0.9372222 0.3150011
vn -0.565138 0.5258211 0.6357132
vn -0.9498163 0.2982971 0.09416807
vn -0.3853994 0.8730136 -0.2988552
vn -0.4090392 0.6293492 0.6607621
vn -0.8051311 0.2684064 0.5288875
vn -0.4084214 0.879727 -0.2434592
vn -0.2525865 0.9629263 0.09472566
vn -0.2589485 0.9260104 -0.2746821
vn 0.1337852 0.9679707 0.2124481
vn -0.2286827 0.7413723 0.6309289
vn -0.5831666 0.7880948 -0.1970361
vn -0.4084203 0.8797216 -0.2434805
vn -0.2370002 0.9401273 -0.244932
vn -0.02366507 0.953786 0.2995533
vn -0.4498197 0.7891235 0.4182659
vn -0.2762928 0.6472826 0.7104136
vn -0.07846996 0.5493561 0.8318956
vn -0.2909746 0.6605843 0.692071
vn -0.07066711 0.7932674 0.6047587
vn -0.2598475 0.787367 0.5590461
vn -0.2765121 0.4265926 0.8611386
vn -0.1262558 0.6311896 0.7652836
vn -0.1500395 0.7975166 0.5843419
vn -0.3385672 0.6692536 0.6614166
vn 0.03157623 0.892403 0.4501332
vn 0.2608272 0.6164626 0.7429287
vn -0.1105017 0.3472506 0.9312392
vn 0.5521986 0.7020641 0.4496475
vn 0.8017895 0.5973996 -0.01572731
vn 0.9713805 -0.06317224 0.2289741
vn 0.784381 0.101991 0.6118369
vn 0.7408926 0.3941037 0.5438386
vn 0.378736 0.5839109 0.7180579
vn 0.2045569 0.9125876 0.3540345
vn 0.5901657 0.7947584 0.1416463
vn 0.8670811 0.4966053 -0.03941469
vn 0.6535108 0.7164887 0.2440645
vn 0.4405725 0.8968557 0.03931501
vn 0.6216373 0.7239859 -0.2990173
vn 0.3141091 0.8873199 -0.3376372
vn 0.6371297 0.7472804 -0.1887797
vn 0.5196916 0.842514 0.1417418
vn 0.2201563 0.9749571 0.03146138
vn 0.9552081 0.2131753 -0.2052653
vn 0.9195576 0.3143553 0.2357849
vn 0.6539609 0.7563643 0.01574844
vn 0.7392167 0.4954593 -0.4561566
vn 0.4255694 0.7565746 -0.4964731
vn 0.6606245 0.2909654 -0.6920364
vn 0.9601514 0.1495254 -0.2361174
vn 0.6511302 0.753105 -0.09413996
vn 0.5106438 0.8405889 -0.1807021
vn 0.5038806 0.6377129 -0.5826033
vn 0.808344 0.4002882 -0.4316819
vn 0.7956188 0.5908101 -0.1339185
vn 0.726059 0.6786965 -0.1104969
vn 0.3553293 0.9238716 -0.1421352
vn 0.2602499 0.7570348 -0.5993065
vn 0.645227 0.4091593 -0.6451905
vn 0.1735898 0.7811657 -0.5997055
vn 0.3141218 0.887316 -0.3376358
vn 0.0316274 0.9881523 -0.1501821
vn 0.3156994 0.9313285 -0.1815521
vn 0.2835883 0.8743404 -0.3938356
vn 0.1258231 0.9909298 -0.04718713
vn 0.3066714 0.9515231 0.02358748
vn 0.1648731 0.7852615 -0.5968092
vn 0.1735956 0.5996786 -0.7811851
vn 0.3838159 0.524808 -0.7597775
vn 0.2838582 0.5677163 -0.7727371
vn 0.345386 0.6829248 -0.6436787
vn 0.2053749 0.434532 -0.8769282
vn 0.2516509 0.6998951 -0.668445
vn 0.4470987 0.7294471 -0.5176967
vn 0.1413997 0.6678771 -0.7307163
vn 0.1725331 0.5960247 -0.784211
vn 0.401747 0.5277994 -0.7483496
vn 0.2358806 0.5818085 -0.7783696
vn 0.345387 0.6829219 -0.6436812
vn 0.3642959 0.7761016 0.5147375
vn 0.1103647 0.9931085 0.03943631
vn 0.3697228 0.8653722 -0.3382842
vn 0.8670965 0.4965798 -0.03939818
vn 0.2837324 0.8512714 0.4413988
vn 3.199279E-05 0.3537121 0.9353544
vn -0.2995712 0.7016518 0.6464842
vn -0.1420667 0.9549737 0.2604655
vn -0.007873327 0.4721843 -0.8814647
vn -0.06313381 0.3788264 -0.9233118
vn 0.1579839 0.3870742 -0.9084133
vn -0.2595741 0.338233 -0.904555
vn 0.3547331 0.7489054 -0.5597367
vn 0.117653 0.5882873 -0.8000475
vn 0.0553606 0.1897509 -0.9802703
vn 0.1813449 0.6464683 -0.7410754
vn 0.3947198 0.7025782 -0.5920981
vn -0.0708918 0.480406 -0.8741764
vn -0.01582268 0.3161575 -0.9485748
vn 0.173575 0.5996746 -0.7811928
vn 0.1419326 0.3784378 -0.9146803
vn -0.08677299 0.3549919 -0.9308336
vn -0.01577288 0.1809179 -0.9833717
vn 0.1971276 0.622965 -0.7570041
vn -0.6304827 0.31524 -0.7093063
vn -0.09434314 0.4166585 -0.9041544
vn 0.04726247 0.1654905 -0.9850783
vn -0.1336342 0.919621 -0.3693768
vn -0.07083557 0.4804243 -0.8741709
vn -0.07090423 0.929364 0.3622917
vn -0.9001957 0.3079441 0.3079258
vn -0.4160999 0.4003544 -0.8164418
vn -0.7184585 0.3079077 0.6237069
vn -0.1181378 0.6616622 0.7404368
vn -0.299716 0.6546006 0.6940233
vn -0.6066859 0.5042568 0.6145383
vn -0.1104245 0.8044872 0.5836154
vn -0.4176154 0.6619015 0.622482
vn -0.1491628 0.6752372 0.7223608
vn 0.1180172 0.8262316 0.5508297
vn -0.08651425 0.6214009 0.7787016
vn -0.3549025 0.4338201 0.8281572
vn -0.4708158 0.627747 0.6198921
vn -0.1500328 0.797529 0.5843266
vn -0.1655609 0.8119795 0.5597131
vn 0.01577257 0.7490541 0.6623212
vn -0.04713535 0.9667065 0.251509
vn -0.2680807 0.8436427 0.4651879
vn -0.05508977 0.322827 0.9448534
vn -0.2909714 0.4088542 0.8649704
vn -0.1580505 0.758577 0.6321242
vn -0.2286528 0.2287047 0.9462622
vn -0.05503709 0.03142394 0.9979897
vn -0.08683337 0.4264748 0.9003218
vn -0.2587703 0.4783807 0.8391603
vn 0.04717598 0.5738724 0.8175848
vn 0.1653848 0.4567498 0.8740867
vn -0.3076604 0.7257839 0.6152909
vn -0.05524093 0.9859315 0.157758
vn 0.4471601 0.8315554 0.3294899
vn 0.04712148 0.2827049 0.9580488
vn 0.1258604 0.1809309 0.9754092
vn 0.07097272 -0.1971335 0.9778044
vn -0.2123275 0.306667 0.927832
vn 0.3395799 -0.2132073 0.916094
vn -0.04719676 -0.1181022 0.9918792
vn -0.1257473 0.06284375 0.9900699
vn 0.4964903 -0.04727826 0.8667538
vn 0.786918 -0.06297306 0.6138357
vn 0.4782761 -0.007847607 0.8781744
vn 0.1422168 0.3319109 0.9325286
vn 0.4638624 0.754755 0.4638713
vn 0.3783449 0.72513 0.5753623
vn 0.03930932 0.9670362 0.2515861
vn 0.3789723 0.923757 -0.05525523
vn 0.7307327 0.6678559 0.1414152
vn 0.7953734 0.5512444 0.2520131
vn 0.9927073 -0.02360488 -0.1182164
vn 0.9580527 -0.04713525 0.2826892
vn 0.7476265 -0.06295326 0.6611289
vn 0.6048044 0.2984764 -0.7383248
vn 0.8657139 0.1416393 -0.4800811
vn 0.9552148 0.2131642 -0.2052456
vn 0.6208777 0.7073199 -0.337949
vn 0.5492281 0.3452187 -0.7610338
vn 0.6695204 0.4174775 -0.6143736
vn 0.9346967 0.2513325 -0.2513449
vn 0.8920593 0.1499996 -0.4262985
vn 0.6940151 0.2997089 -0.6546126
vn 0.755552 0.3777723 -0.5351909
vn 0.54333 0.330682 -0.7716488
vn 0.4561177 0.4954309 -0.7392597
vn 0.1419045 0.9459402 -0.2916507
vn 0.1337951 0.7085844 -0.6928254
vn 0.3472822 0.552496 -0.7577224
vn 0.2839619 0.9228338 -0.2602757
vn 0.1417448 0.5196698 -0.842527
vn 0.3778453 0.5667788 -0.7321166
vn 0.1889501 0.6455147 -0.7400059
vn 0.3998016 0.6898153 -0.6035839
vn 0.5922219 0.8054267 0.02368833
vn 0.5684712 0.7342588 0.3710856
vn 0.2045455 0.9125909 0.3540324
vn 0.2919742 0.9548301 -0.05523298
vn 0.527382 0.6533523 0.5431381
vn 0.08644422 0.7389568 0.6681843
vn 0.03926882 0.934634 0.3534364
vn 0.3780446 0.9136145 0.1496359
vn 0.2917424 0.9226108 0.2523405
vn -0.1418867 0.9300576 0.3389114
vn -0.03148049 0.9992251 -0.0236248
vn 0.2125416 0.9760098 -0.04723432
vn 0.2042492 0.9662294 -0.157108
vn 0.4405562 0.8968631 0.03933059
vn 0.2124415 0.9441755 0.2517961
vn -0.04713496 0.9977749 0.04715475
vn 0.3711122 0.773851 -0.5132548
vn 0.2358672 0.581807 -0.7783748
vn 0.4720493 0.6687821 -0.5743692
vn 0.1102442 0.9372427 -0.3307906
vn 0.1258558 0.9909254 -0.04719365
vn 0.2045476 0.9125915 0.3540298
vn -0.2205025 0.905623 0.3622507
vn -0.04713557 0.9667086 0.2515011
vn 0.1022512 0.8178703 0.5662445
vn 0.1183216 0.9858985 0.1183392
vn -0.05501148 0.966314 0.2514179
vn -0.2917343 0.8357596 0.4651848
vn 0.04714987 0.5739002 0.8175668
vn -0.3076425 0.7257695 0.6153168
vn -0.1419243 0.9300568 0.3388981
vn 0.1099659 0.8481063 0.5182889
vn 0.3792361 0.9244556 0.03952045
vn 0.5138894 0.8064457 0.2925116
vn 0.3159607 0.7978204 0.5134701
vn 0.1258249 0.959594 0.2516896
vn 0.2124244 0.9441835 0.2517804
vn 0.5117825 0.8582124 -0.03937195
vn 0.6373171 0.6923644 0.3383171
vn 0.3711152 0.7738438 0.5132634
vn 0.2919737 0.9548306 -0.05522537
vn 0.5901638 0.7947626 0.1416302
vn 0.3549173 0.8281715 0.4337807
vn 0.1258679 0.9595863 0.2516973
vn 0.4421259 0.8843204 0.1500072
vn 0.2919784 0.9548296 -0.05521819
vn 0.4651901 0.8357563 -0.2917355
vn 0.6511127 0.7531171 -0.09416409
vn 0.3552874 0.8999785 -0.2526056
vn 0.726038 0.6787158 -0.1105156
vn 0.5655652 0.7854718 0.2513366
vn 0.2201623 0.9749563 0.03144472
vn 0.2442508 0.7012658 -0.669752
vn 0.1895517 0.8844457 -0.4264107
vn -0.04717587 0.9667032 0.2515143
vn 0.34541 0.6829435 -0.6436459
vn 0.3997684 0.6898111 -0.6036108
vn 0.07903372 0.9957442 -0.04740421
vn -0.102218 0.8336862 0.5426959
vn -0.4336595 0.5124898 0.7411435
vn -0.1022276 0.833697 0.5426776
vn -0.2280942 0.6684995 0.707871
vn -0.08678851 0.4104733 0.9077331
vn -0.3384071 0.4643107 0.8184718
vn -0.3384144 0.4643222 0.8184623
vn -0.1806135 0.7224258 0.6674427
vn -0.07108552 0.8689399 0.4897861
vn -0.1807103 0.5106365 0.8405915
vn -0.3552559 0.742104 0.5683968
vn -0.08650597 0.6213933 0.7787086
vn -0.1733905 0.7565992 0.6304708
vn -0.07109837 0.8689544 0.4897584
vn 0.5922095 0.8054361 0.02368076
vn 0.1263301 0.8289903 -0.5448081
vn 0.5299828 0.5062551 -0.6803118
vn 0.8657373 0.1416707 -0.4800296
vn 0.743551 0.2926906 -0.6012189
vn 0.2196998 0.6198886 -0.7533061
vn 0.3467832 0.622636 -0.7014741
vn 0.6759976 0.408774 -0.6131323
vn 0.2838829 0.5677155 -0.7727287
vn 0.3547652 0.7489114 -0.5597083
vn -0.08677837 0.3549669 -0.9308426
vn 0.3478374 0.4506032 -0.8221714
vn 0.2435855 0.7385865 -0.6286144
vn 0.447084 0.7294763 -0.5176681
vn 0.3704813 0.9222631 -0.1103375
vn 0.08670412 0.9616753 -0.2601213
vn -0.1729908 0.3067577 -0.9359348
vn 0.1101375 0.3933996 -0.9127467
vn 0.3384472 0.6454287 -0.6847447
vn -0.03924375 0.7771903 -0.6280409
vn -0.7023164 0.4182337 -0.5760488
vn -0.392809 0.3142604 -0.8642578
vn -0.1975917 0.8299433 -0.5216815
vn -0.4084408 0.8797066 -0.2435004
vn -0.3782375 0.9061868 -0.1891082
vn -0.2442682 0.9691958 -0.03150344
vn -0.2126897 0.7956505 0.5671889
vn -0.5754126 0.8040351 0.1497592
vn -0.4558369 0.7780572 -0.4322497
vn -0.2283396 0.9212351 -0.3149394
vn -0.2047069 0.9685109 0.1417097
vn -0.5179523 0.8554095 1.044571E-05
vn -0.299294 0.8978556 -0.3229219
vn 0.08670404 0.9616658 -0.2601562
vn 0.1337792 0.9679737 0.2124382
vn -0.3061863 0.9498982 -0.06279492
vn 0.03147079 0.9047181 0.4248467
vn -0.01572689 0.9973758 -0.07066877
vn 0.3704885 0.9222565 -0.1103686
vn 0.118327 0.9858999 0.1183226
vn 0.3790642 0.8924009 -0.2448081
vn 0.07855902 0.958257 0.2749039
vn -0.07091197 0.9293613 0.362297
vn -0.1893782 0.9548621 -0.2288539
vn -0.2283414 0.9212237 -0.3149717
vn 0.2051207 0.9151125 -0.3471233
vn 0.1179157 0.9905007 0.07074095
vn -0.2440499 0.9604826 -0.1338392
vn -0.1731314 0.9521673 0.2517995
vn 0.3157198 0.9313242 -0.1815388
vn 0.2836822 0.7012675 -0.6540247
vn 0.5432703 0.3307107 -0.7716786
vn 0.3791041 0.8923877 -0.2447941
vn -0.03940322 0.8277514 0.5597098
vn -0.376594 0.580609 0.7218519
vn -0.3453313 0.9104556 -0.2276334
vn -0.7078388 0.4325838 0.5584223
vn -0.1814577 0.6547773 0.7337165
vn -0.3073589 0.6068729 0.7329637
vn -0.6351908 0.3136616 0.7057968
vn -0.8322743 0.337623 0.4396933
vn -0.6616716 0.7483033 -0.04725256
vn -0.6305199 0.3152066 -0.709288
vn -0.4239927 0.9029049 -0.0706605
vn -0.6765552 0.4798673 0.55857
vn -0.5839036 0.7811832 0.2209288
vn -0.5818253 0.7783609 -0.2358676
vn -0.7869165 0.377752 -0.48792
vn 0.09408752 0.2745191 -0.9569675
vn -0.2979268 0.2900622 -0.9094523
vn -0.4160516 0.4003792 -0.8164543
vn -0.03141306 0.3535202 -0.9348993
vn -0.09438029 0.4167037 -0.9041296
vn -0.1415314 0.2122505 -0.9669119
vn -0.6291034 0.3538826 -0.6920954
vn -0.4730294 0.6385791 -0.6070091
vn -0.6304558 0.3152195 -0.7093393
vn -0.5350161 0.7159691 -0.4484932
vn -0.06308493 0.5444621 -0.8364098
vn -0.1175532 0.203773 -0.971935
vn -0.480524 0.8507993 -0.2126906
vn -0.4730364 0.6385685 -0.6070147
vn -0.6304868 0.3152415 -0.7093019
vn -0.9053882 0.4172274 0.07869843
vn -0.6352112 0.7528205 0.1725343
vn -0.4572564 0.8120247 -0.3626742
vn -0.5423678 0.5659167 -0.6209472
vn -0.8027355 0.5509197 0.2282612
vn -0.624821 0.601118 0.4982527
vn -0.8051262 0.2683774 0.5289096
vn -0.1806055 0.7224283 0.6674421
vn -0.4956929 0.4799371 0.7238432
vn -0.7618822 0.2513472 0.5969591
vn -0.7869084 0.3777326 -0.4879481
vn -0.09487822 0.6797903 0.7272437
vn -0.3765771 0.5806023 0.7218661
vn -0.2837511 0.6858647 0.6701306
vn -0.5606228 0.4738103 0.6791214
vn -0.1814654 0.6547929 0.7337006
vn -0.1022124 0.8336842 0.5426999
vn -0.6242425 0.4899522 0.6084967
vn -0.09487256 0.6798049 0.7272308
vn -0.03940119 0.8277522 0.5597087
vn -0.2368564 0.6790598 0.6948215
vn -0.1655426 0.8119818 0.5597153
vn -0.4176227 0.6618813 0.6224985
vn -0.3610402 0.5494161 0.7535198
vn 0.08703645 0.9176873 0.3876528
vn -0.1414915 0.8332365 0.5345063
vn -0.1571476 0.4479229 0.8801532
vn -0.3547384 0.3862788 0.8514397
vn -0.4176259 0.6619045 0.6224717
vn -0.03919085 0.6986733 0.7143666
vn -0.7459625 0.4083477 0.5261104
vn -0.3536379 0.3929778 -0.8488278
vn 0.3692471 0.8877267 -0.2749506
vn -0.06281777 0.9107124 0.4082362
vn -0.2049287 0.6304867 0.7486593
vn -0.4026564 0.2368615 -0.8841745
vn 0.3454063 0.6829323 -0.6436598
vn -0.01568112 0.9983611 -0.05503879
vn 0.6216264 0.7239867 -0.2990383
vn 0.05494061 -0.05494516 0.9969767
vn -0.102231 0.8337094 0.5426579
vn 0.2833135 0.9498105 0.1326405
vn 0.3547288 0.7489061 -0.5597384
vn 0.126301 0.8290167 -0.5447745
vn -0.04715329 0.9667109 0.2514887
vn -0.06281126 0.9106715 0.4083283
vn 0.08701782 0.9176996 0.3876278
vn 0.08704351 0.917693 0.3876377
vn -0.06280061 0.910723 0.4082153
vn 0.05527951 0.086823 0.9946889
vn 0.08705304 0.9176812 0.3876636
vn 0.1496263 0.09445259 0.9842209
vn -0.06287907 0.9107141 0.4082229
vn 0.08701782 0.9176996 0.3876278
vn 0.05531539 0.08685964 0.9946837
vn -0.06281126 0.9106715 0.4083283
vn 0.05527951 0.086823 0.9946889
vn -0.125818 0.1809439 0.9754123
vn -0.07857811 0.746841 0.6603439
vn -0.07860947 0.7468109 0.6603741
vn -0.1258749 0.180959 0.9754021
vn 0.1495941 0.09445969 0.984225
vn 0.14959 0.09452315 0.9842196
vn -0.09483513 0.8057552 0.5846066
vn -0.1258674 0.1808477 0.9754238
vn 0.1495759 0.09448041 0.9842258
vn -0.125818 0.1809439 0.9754123
vn -0.07857811 0.746841 0.6603439
vn 0.1495941 0.09445969 0.984225
vn 0.4561125 0.4954791 -0.7392306
vn 0.3237176 0.615753 -0.7183698
vn 0.3236952 0.6157569 -0.7183765
vn 0.5496374 0.5025483 -0.667341
vn 0.7012882 0.2836853 -0.6540012
vn 0.7012834 0.2836849 -0.6540065
vn 0.3236894 0.6157525 -0.7183829
vn 0.4562 0.4953938 -0.7392337
vn 0.7012727 0.2836492 -0.6540334
vn 0.4561125 0.4954791 -0.7392306
vn 0.3237176 0.615753 -0.7183698
vn 0.7012882 0.2836853 -0.6540012
vn 0.9751635 -0.06294522 -0.2123538
vn 0.8760702 0.4498411 -0.1736202
vn 0.8760392 0.4498801 -0.173676
vn 0.975157 -0.06299453 -0.2123688
vn 0.9555146 0.1025965 0.2765248
vn 0.9555462 0.1025848 0.2764197
vn 0.8760468 0.4498945 -0.1736
vn 0.9751725 -0.06285318 -0.2123394
vn 0.9555407 0.1026635 0.2764096
vn 0.9751635 -0.06294522 -0.2123538
vn 0.8760392 0.4498801 -0.173676
vn 0.9555146 0.1025965 0.2765248
vn 0.725641 -0.3234003 0.6073364
vn 0.5139134 0.8064422 0.2924792
vn 0.5138902 0.8064307 0.2925516
vn 0.7256574 -0.3234194 0.6073065
vn 0.4730144 -0.1025124 0.8750706
vn 0.473056 -0.1024647 0.8750538
vn 0.5139119 0.8064184 0.2925476
vn 0.6981628 -0.3843611 0.604016
vn 0.4729909 -0.1025126 0.8750832
vn 0.725641 -0.3234003 0.6073364
vn 0.5139134 0.8064422 0.2924792
vn 0.4730144 -0.1025124 0.8750706
vn -0.1501316 0.6871476 0.7108366
vn -0.2051116 0.7414398 0.6389024
vn -0.2050859 0.7414309 0.638921
vn -0.2050529 0.7414712 0.6388848
vn -0.3999421 0.1646672 0.9016268
vn -0.1341103 0.788989 0.5995921
vn -0.4027078 0.1657994 0.9001873
vn -0.1500725 0.6872162 0.7107828
vn -0.2050859 0.7414309 0.638921
vn -0.3999761 0.1651313 0.9015269
vn -0.1501316 0.6871476 0.7108366
vn -0.3999421 0.1646672 0.9016268
vn -0.3217272 0.933737 -0.1569295
vn -0.3703344 0.9140387 -0.1654861
vn -0.1181714 0.6616206 0.7404686
vn -0.1181878 0.6616557 0.7404346
vn -0.01579944 0.316152 -0.948577
vn -0.01585169 0.3161067 -0.9485912
vn -0.3217054 0.9337428 -0.1569396
vn -0.1181609 0.661653 0.7404413
vn -0.01584892 0.3161608 -0.9485732
vn -0.1181714 0.6616206 0.7404686
vn -0.3703344 0.9140387 -0.1654861
vn -0.01579944 0.316152 -0.948577
vn 0.3790514 0.9237244 -0.05525648
vn 0.2920809 0.9552188 0.04739051
vn 0.2920625 0.9552255 0.04736863
vn 0.3789873 0.9237515 -0.05524331
vn 0.9555438 0.1026792 0.276393
vn 0.2921205 0.9552079 0.04736562
vn 0.960282 0.1809087 -0.2124396
vn 0.3789687 0.923759 -0.0552465
vn 0.2920809 0.9552188 0.04739051
vn 0.9602317 0.1810434 -0.2125523
vn 0.3790514 0.9237244 -0.05525648
vn 0.9555438 0.1026792 0.276393
vn 0.02358948 0.2995502 -0.9537889
vn 0.04699902 0.5879757 -0.8075121
vn 0.0470327 0.5880116 -0.807484
vn 0.09415557 0.2745199 -0.9569606
vn 0.1420583 0.1499337 -0.9784372
vn 0.04702711 0.5879583 -0.807523
vn -0.07100297 0.2604692 -0.9628678
vn 0.02368981 0.2994724 -0.9538108
vn 0.04699902 0.5879757 -0.8075121
vn 0.1420484 0.1499462 -0.9784366
vn 0.02358948 0.2995502 -0.9537889
vn 0.1420583 0.1499337 -0.9784372
vn 0.03947717 0.9866789 0.1578174
vn 0.03948293 0.9866732 0.157851
vn -0.1185397 0.9802883 0.1580608
vn -0.118597 0.9802794 0.1580726
vn 0.0394237 0.9866728 0.1578688
vn 0.3700405 2.720207E-05 0.9290156
vn 0.4023746 -0.02366033 0.9151694
vn -0.1186673 0.9802642 0.1581145
vn 0.402337 -0.02307533 0.9152008
vn -0.1185397 0.9802883 0.1580608
vn 0.03948293 0.9866732 0.157851
vn 0.4023746 -0.02366033 0.9151694
vn -0.5584202 0.5584021 -0.6134769
vn -0.7163228 0.6376349 -0.2833787
vn -0.7163307 0.6376224 -0.2833868
vn -0.5583652 0.5584745 -0.6134611
vn -0.7163464 0.6376025 -0.283392
vn -0.1891764 0.5282621 -0.8277388
vn -0.2674161 0.597854 -0.7556846
vn -0.2676074 0.5980744 -0.7554424
vn -0.5584109 0.5583754 -0.6135097
vn -0.2674161 0.597854 -0.7556846
vn -0.5584202 0.5584021 -0.6134769
vn -0.7163307 0.6376224 -0.2833868
vt 0.3181152 1
vt 0.2485352 1
vt 0.2485352 0.9308472
vt 0.3181152 0.9308472
vt 0.3181152 1
vt 0.2485352 1
vt 0.2485352 0.9308472
vt 0.3181152 0.9308472
vt 0.394043 1
vt 0.3242188 1
vt 0.3242188 0.9308472
vt 0.394043 0.9308472
vt 0.3181152 1
vt 0.2485352 1
vt 0.2485352 0.9308472
vt 0.3181152 0.9308472
vt 0.394043 1
vt 0.3242188 1
vt 0.3242188 0.9308472
vt 0.394043 0.9308472
vt 0.3181152 1
vt 0.2485352 1
vt 0.2485352 0.9308472
vt 0.3181152 0.9308472
vt 0.394043 1
vt 0.3242188 1
vt 0.3242188 0.9308472
vt 0.394043 0.9308472
vt 0.3181152 1
vt 0.2485352 1
vt 0.2485352 0.9308472
vt 0.3181152 0.9308472
vt 0.394043 1
vt 0.3242188 1
vt 0.3242188 0.9308472
vt 0.394043 0.9308472
vt 0.3181152 1
vt 0.2485352 1
vt 0.2485352 0.9308472
vt 0.3181152 0.9308472
vt 0.394043 1
vt 0.3242188 1
vt 0.3242188 0.9308472
vt 0.394043 0.9308472
vt 0.3181152 1
vt 0.2485352 1
vt 0.2485352 0.9308472
vt 0.3181152 0.9308472
vt 0.394043 1
vt 0.3242188 1
vt 0.3242188 0.9308472
vt 0.394043 0.9308472
vt 0.3181152 1
vt 0.2485352 1
vt 0.2485352 0.9308472
vt 0.3181152 0.9308472
vt 0.394043 1
vt 0.3242188 1
vt 0.3242188 0.9308472
vt 0.394043 0.9308472
vt 0.3181152 1
vt 0.2485352 1
vt 0.2485352 0.9308472
vt 0.3181152 0.9308472
vt 0.394043 1
vt 0.3242188 1
vt 0.3242188 0.9308472
vt 0.394043 0.9308472
vt 0.3181152 1
vt 0.2485352 1
vt 0.2485352 0.9308472
vt 0.3181152 0.9308472
vt 0.394043 1
vt 0.3242188 1
vt 0.3242188 0.9308472
vt 0.394043 0.9308472
vt 0.3181152 1
vt 0.2485352 1
vt 0.2485352 0.9308472
vt 0.3181152 0.9308472
vt 0.394043 1
vt 0.3242188 1
vt 0.3242188 0.9308472
vt 0.394043 0.9308472
vt 0.3181152 1
vt 0.2485352 1
vt 0.2485352 0.9308472
vt 0.3181152 0.9308472
vt 0.394043 1
vt 0.3242188 1
vt 0.3242188 0.9308472
vt 0.394043 0.9308472
vt 0.3181152 1
vt 0.2485352 1
vt 0.2485352 0.9308472
vt 0.3181152 0.9308472
vt 0.394043 1
vt 0.3242188 1
vt 0.3242188 0.9308472
vt 0.394043 0.9308472
vt 0.3181152 1
vt 0.2485352 1
vt 0.2485352 0.9308472
vt 0.3181152 0.9308472
vt 0.394043 1
vt 0.3242188 1
vt 0.3242188 0.9308472
vt 0.394043 0.9308472
vt 0.3181152 1
vt 0.2485352 1
vt 0.2485352 0.9308472
vt 0.3181152 0.9308472
vt 0.394043 1
vt 0.3242188 1
vt 0.3242188 0.9308472
vt 0.394043 0.9308472
vt 0.3181152 1
vt 0.2485352 1
vt 0.2485352 0.9308472
vt 0.3181152 0.9308472
vt 0.394043 1
vt 0.3242188 1
vt 0.3242188 0.9308472
vt 0.394043 0.9308472
vt 0.3181152 1
vt 0.2485352 1
vt 0.2485352 0.9308472
vt 0.3181152 0.9308472
vt 0.394043 1
vt 0.3242188 1
vt 0.3242188 0.9308472
vt 0.394043 0.9308472
vt 0.3181152 1
vt 0.2485352 1
vt 0.2485352 0.9308472
vt 0.3181152 0.9308472
vt 0.394043 1
vt 0.3242188 1
vt 0.3242188 0.9308472
vt 0.394043 0.9308472
vt 0.3181152 1
vt 0.2485352 1
vt 0.2485352 0.9308472
vt 0.3181152 0.9308472
vt 0.394043 1
vt 0.3242188 1
vt 0.3242188 0.9308472
vt 0.394043 0.9308472
vt 0.3181152 1
vt 0.2485352 1
vt 0.2485352 0.9308472
vt 0.3181152 0.9308472
vt 0.394043 1
vt 0.3242188 1
vt 0.3242188 0.9308472
vt 0.394043 0.9308472
vt 0.3181152 1
vt 0.2485352 1
vt 0.2485352 0.9308472
vt 0.3181152 0.9308472
vt 0.3181152 1
vt 0.2485352 1
vt 0.2485352 0.9308472
vt 0.3181152 0.9308472
vt 0.394043 1
vt 0.3242188 1
vt 0.3242188 0.9308472
vt 0.394043 0.9308472
vt 0.3181152 1
vt 0.2485352 1
vt 0.2485352 0.9308472
vt 0.3181152 0.9308472
vt 0.394043 1
vt 0.3242188 1
vt 0.3242188 0.9308472
vt 0.394043 0.9308472
vt 0.3181152 1
vt 0.2485352 1
vt 0.2485352 0.9308472
vt 0.3181152 0.9308472
vt 0.394043 1
vt 0.3242188 1
vt 0.3242188 0.9308472
vt 0.394043 0.9308472
vt 0.3181152 1
vt 0.2485352 1
vt 0.2485352 0.9308472
vt 0.3181152 0.9308472
vt 0.394043 1
vt 0.3242188 1
vt 0.3242188 0.9308472
vt 0.394043 0.9308472
vt 0.3181152 1
vt 0.2485352 1
vt 0.2485352 0.9308472
vt 0.3181152 0.9308472
vt 0.394043 1
vt 0.3242188 1
vt 0.3242188 0.9308472
vt 0.394043 0.9308472
vt 0.3181152 1
vt 0.2485352 1
vt 0.2485352 0.9308472
vt 0.3181152 0.9308472
vt 0.394043 1
vt 0.3242188 1
vt 0.3242188 0.9308472
vt 0.394043 0.9308472
vt 0.3181152 1
vt 0.2485352 1
vt 0.2485352 0.9308472
vt 0.3181152 0.9308472
vt 0.394043 1
vt 0.3242188 1
vt 0.3242188 0.9308472
vt 0.394043 0.9308472
vt 0.3181152 1
vt 0.2485352 1
vt 0.2485352 0.9308472
vt 0.3181152 0.9308472
vt 0.394043 1
vt 0.3242188 1
vt 0.3242188 0.9308472
vt 0.394043 0.9308472
vt 0.3181152 1
vt 0.2485352 1
vt 0.2485352 0.9308472
vt 0.3181152 0.9308472
vt 0.394043 1
vt 0.3242188 1
vt 0.3242188 0.9308472
vt 0.394043 0.9308472
vt 0.3181152 1
vt 0.2485352 0.9308472
vt 0.2485352 1
vt 0.3181152 0.9308472
vt 0.394043 1
vt 0.3242188 1
vt 0.3242188 0.9308472
vt 0.394043 0.9308472
vt 0.3181152 1
vt 0.2485352 1
vt 0.2485352 0.9308472
vt 0.3181152 0.9308472
vt 0.394043 1
vt 0.3242188 1
vt 0.3242188 0.9308472
vt 0.394043 0.9308472
vt 0.3181152 1
vt 0.2485352 1
vt 0.2485352 0.9308472
vt 0.3181152 0.9308472
vt 0.394043 1
vt 0.3242188 1
vt 0.3242188 0.9308472
vt 0.394043 0.9308472
vt 0.3181152 1
vt 0.2485352 1
vt 0.2485352 0.9308472
vt 0.3181152 0.9308472
vt 0.394043 1
vt 0.3242188 1
vt 0.3242188 0.9308472
vt 0.394043 0.9308472
vt 0.3181152 1
vt 0.2485352 1
vt 0.2485352 0.9308472
vt 0.3181152 0.9308472
vt 0.394043 1
vt 0.3242188 1
vt 0.3242188 0.9308472
vt 0.394043 0.9308472
vt 0.3181152 1
vt 0.2485352 1
vt 0.2485352 0.9308472
vt 0.3181152 0.9308472
vt 0.394043 1
vt 0.3242188 1
vt 0.3242188 0.9308472
vt 0.394043 0.9308472
vt 0.3181152 1
vt 0.2485352 1
vt 0.2485352 0.9308472
vt 0.3181152 0.9308472
vt 0.394043 1
vt 0.3242188 1
vt 0.3242188 0.9308472
vt 0.394043 0.9308472
vt 0.3181152 1
vt 0.2485352 1
vt 0.2485352 0.9308472
vt 0.3181152 0.9308472
vt 0.394043 1
vt 0.3242188 1
vt 0.3242188 0.9308472
vt 0.394043 0.9308472
vt 0.3181152 1
vt 0.2485352 1
vt 0.2485352 0.9308472
vt 0.3181152 0.9308472
vt 0.394043 1
vt 0.3242188 1
vt 0.3242188 0.9308472
vt 0.394043 0.9308472
vt 0.3181152 1
vt 0.2485352 1
vt 0.2485352 0.9308472
vt 0.3181152 0.9308472
vt 0.394043 1
vt 0.3242188 1
vt 0.3242188 0.9308472
vt 0.394043 0.9308472
vt 0.3181152 1
vt 0.2485352 1
vt 0.2485352 0.9308472
vt 0.3181152 0.9308472
vt 0.394043 1
vt 0.3242188 1
vt 0.3242188 0.9308472
vt 0.394043 0.9308472
vt 0.3181152 1
vt 0.2485352 1
vt 0.2485352 0.9308472
vt 0.3181152 0.9308472
vt 0.394043 1
vt 0.3242188 1
vt 0.3242188 0.9308472
vt 0.394043 0.9308472
vt 0.3181152 1
vt 0.2485352 1
vt 0.2485352 0.9308472
vt 0.3181152 0.9308472
vt 0.394043 1
vt 0.3242188 1
vt 0.3242188 0.9308472
vt 0.394043 0.9308472
vt 0.3181152 1
vt 0.2485352 1
vt 0.2485352 0.9308472
vt 0.3181152 0.9308472
vt 0.394043 1
vt 0.3242188 1
vt 0.3242188 0.9308472
vt 0.394043 0.9308472
vt 0.3181152 1
vt 0.2485352 1
vt 0.2485352 0.9308472
vt 0.3181152 0.9308472
vt 0.394043 1
vt 0.3242188 1
vt 0.3242188 0.9308472
vt 0.394043 0.9308472
vt 0.3181152 1
vt 0.2485352 1
vt 0.2485352 0.9308472
vt 0.3181152 0.9308472
vt 0.394043 1
vt 0.3242188 1
vt 0.3242188 0.9308472
vt 0.394043 0.9308472
vt 0.3181152 1
vt 0.2485352 1
vt 0.2485352 0.9308472
vt 0.3181152 0.9308472
vt 0.394043 1
vt 0.3242188 1
vt 0.3242188 0.9308472
vt 0.394043 0.9308472
vt 0.3181152 1
vt 0.2485352 1
vt 0.2485352 0.9308472
vt 0.3181152 0.9308472
vt 0.394043 1
vt 0.3242188 1
vt 0.3242188 0.9308472
vt 0.394043 0.9308472
vt 0.3181152 1
vt 0.2485352 1
vt 0.2485352 0.9308472
vt 0.3181152 0.9308472
vt 0.394043 1
vt 0.3242188 1
vt 0.3242188 0.9308472
vt 0.394043 0.9308472
vt 0.3181152 1
vt 0.2485352 1
vt 0.2485352 0.9308472
vt 0.3181152 0.9308472
vt 0.394043 1
vt 0.3242188 1
vt 0.3242188 0.9308472
vt 0.394043 0.9308472
vt 0.3181152 1
vt 0.2485352 1
vt 0.2485352 0.9308472
vt 0.3181152 0.9308472
vt 0.394043 1
vt 0.3242188 1
vt 0.3242188 0.9308472
vt 0.394043 0.9308472
vt 0.3181152 1
vt 0.2485352 1
vt 0.2485352 0.9308472
vt 0.3181152 0.9308472
vt 0.394043 1
vt 0.3242188 1
vt 0.3242188 0.9308472
vt 0.394043 0.9308472
vt 0.3181152 1
vt 0.2485352 1
vt 0.2485352 0.9308472
vt 0.3181152 0.9308472
vt 0.394043 1
vt 0.3242188 1
vt 0.3242188 0.9308472
vt 0.394043 0.9308472
vt 0.3181152 1
vt 0.2485352 1
vt 0.2485352 0.9308472
vt 0.3181152 0.9308472
vt 0.394043 1
vt 0.3242188 1
vt 0.3242188 0.9308472
vt 0.394043 0.9308472
vt 0.3181152 1
vt 0.2485352 1
vt 0.2485352 0.9308472
vt 0.3181152 0.9308472
vt 0.394043 1
vt 0.3242188 1
vt 0.3242188 0.9308472
vt 0.394043 0.9308472
vt 0.3181152 1
vt 0.2485352 1
vt 0.2485352 0.9308472
vt 0.3181152 0.9308472
vt 0.394043 1
vt 0.3242188 1
vt 0.3242188 0.9308472
vt 0.394043 0.9308472
vt 0.3181152 1
vt 0.2485352 1
vt 0.2485352 0.9308472
vt 0.3181152 0.9308472
vt 0.394043 1
vt 0.3242188 1
vt 0.3242188 0.9308472
vt 0.394043 0.9308472
vt 0.3181152 1
vt 0.2485352 1
vt 0.2485352 0.9308472
vt 0.3181152 0.9308472
vt 0.394043 1
vt 0.3242188 1
vt 0.3242188 0.9308472
vt 0.394043 0.9308472
vt 0.3181152 1
vt 0.2485352 1
vt 0.2485352 0.9308472
vt 0.3181152 0.9308472
vt 0.394043 1
vt 0.3242188 1
vt 0.3242188 0.9308472
vt 0.394043 0.9308472
vt 0.3181152 1
vt 0.2485352 1
vt 0.2485352 0.9308472
vt 0.3181152 0.9308472
vt 0.394043 1
vt 0.3242188 1
vt 0.3242188 0.9308472
vt 0.394043 0.9308472
vt 0.1257324 0.8960571
vt 0.1257324 0.9929466
vt 0.1431885 0.9929466
vt 0.1431885 0.8960571
vt 0.1257324 0.7991943
vt 0.1605225 0.9929466
vt 0.1431885 0.7991943
vt 0.1605225 0.8960571
vt 0.1779785 0.9929466
vt 0.1605225 0.7991943
vt 0.1779785 0.8960571
vt 0.1779785 0.7991943
vt 0.1257324 0.8960571
vt 0.1257324 0.9929466
vt 0.1431885 0.9929466
vt 0.1431885 0.8960571
vt 0.1257324 0.7991943
vt 0.1431885 0.7991943
vt 0.1605225 0.9929466
vt 0.1605225 0.8960571
vt 0.1605225 0.7991943
vt 0.1779785 0.8960571
vt 0.1779785 0.9929466
vt 0.1779785 0.7991943
vt 0.1257324 0.8960571
vt 0.1257324 0.9929466
vt 0.1431885 0.9929466
vt 0.1431885 0.8960571
vt 0.1257324 0.7991943
vt 0.1431885 0.7991943
vt 0.1605225 0.9929466
vt 0.1605225 0.8960571
vt 0.1605225 0.7991943
vt 0.1779785 0.8960571
vt 0.1779785 0.9929466
vt 0.1779785 0.7991943
vt 0.1779785 0.8960571
vt 0.1605225 0.9929466
vt 0.1779785 0.9929466
vt 0.1605225 0.8960571
vt 0.1779785 0.7991943
vt 0.1605225 0.7991943
vt 0.1431885 0.9929466
vt 0.1431885 0.8960571
vt 0.1431885 0.7991943
vt 0.1257324 0.8960571
vt 0.1257324 0.9929466
vt 0.1257324 0.7991943
vt 0.1257324 0.8960571
vt 0.1257324 0.9929466
vt 0.1431885 0.9929466
vt 0.1431885 0.8960571
vt 0.1257324 0.7991943
vt 0.1431885 0.7991943
vt 0.1605225 0.9929466
vt 0.1605225 0.8960571
vt 0.1605225 0.7991943
vt 0.1779785 0.8960571
vt 0.1779785 0.9929466
vt 0.1779785 0.7991943
vt 0.1779785 0.8960571
vt 0.1605225 0.9929466
vt 0.1779785 0.9929466
vt 0.1605225 0.8960571
vt 0.1779785 0.7991943
vt 0.1431885 0.9929466
vt 0.1605225 0.7991943
vt 0.1431885 0.8960571
vt 0.1257324 0.9929466
vt 0.1431885 0.7991943
vt 0.1257324 0.8960571
vt 0.1257324 0.7991943
vt 0.1605225 0.9929466
vt 0.1779785 0.9929466
vt 0.1779785 0.8960571
vt 0.1605225 0.8960571
vt 0.1779785 0.7991943
vt 0.1605225 0.7991943
vt 0.1431885 0.9929466
vt 0.1431885 0.8960571
vt 0.1431885 0.7991943
vt 0.1257324 0.8960571
vt 0.1257324 0.9929466
vt 0.1257324 0.7991943
vt 0.1257324 0.8960571
vt 0.1257324 0.9929466
vt 0.1431885 0.9929466
vt 0.1431885 0.8960571
vt 0.1257324 0.7991943
vt 0.1605225 0.9929466
vt 0.1431885 0.7991943
vt 0.1605225 0.8960571
vt 0.1779785 0.9929466
vt 0.1605225 0.7991943
vt 0.1779785 0.8960571
vt 0.1779785 0.7991943
vt 0.1257324 0.8960571
vt 0.1257324 0.9929466
vt 0.1431885 0.9929466
vt 0.1431885 0.8960571
vt 0.1257324 0.7991943
vt 0.1605225 0.9929466
vt 0.1431885 0.7991943
vt 0.1605225 0.8960571
vt 0.1779785 0.9929466
vt 0.1605225 0.7991943
vt 0.1779785 0.8960571
vt 0.1779785 0.7991943
vt 0.1605225 0.9929466
vt 0.1779785 0.9929466
vt 0.1779785 0.8960571
vt 0.1605225 0.8960571
vt 0.1431885 0.9929466
vt 0.1605225 0.7991943
vt 0.1779785 0.7991943
vt 0.1431885 0.8960571
vt 0.1431885 0.7991943
vt 0.1257324 0.8960571
vt 0.1257324 0.9929466
vt 0.1257324 0.7991943
vt 0.1779785 0.8960571
vt 0.1605225 0.9929466
vt 0.1779785 0.9929466
vt 0.1605225 0.8960571
vt 0.1431885 0.9929466
vt 0.1605225 0.7991943
vt 0.1779785 0.7991943
vt 0.1431885 0.7991943
vt 0.1431885 0.8960571
vt 0.1257324 0.7991943
vt 0.1257324 0.8960571
vt 0.1257324 0.9929466
usemtl MV_BushTropical
f 1/1/1 3/3/3 2/2/2
f 3/3/3 1/1/1 4/4/4
f 5/5/5 7/7/7 6/6/6
f 7/7/7 5/5/5 8/8/8
f 9/9/9 11/11/11 10/10/10
f 11/11/11 9/9/9 12/12/12
f 13/13/13 15/15/15 14/14/14
f 15/15/15 13/13/13 16/16/16
f 17/17/17 19/19/19 18/18/18
f 19/19/19 17/17/17 20/20/20
f 21/21/21 23/23/23 22/22/22
f 23/23/23 21/21/21 24/24/24
f 25/25/25 27/27/27 26/26/26
f 27/27/27 25/25/25 28/28/28
f 29/29/29 31/31/31 30/30/30
f 31/31/31 29/29/29 32/32/32
f 33/33/33 35/35/35 34/34/34
f 35/35/35 33/33/33 36/36/36
f 37/37/37 39/39/39 38/38/38
f 39/39/39 37/37/37 40/40/40
f 41/41/41 43/43/43 42/42/42
f 43/43/43 41/41/41 44/44/44
f 45/45/45 47/47/47 46/46/46
f 47/47/47 45/45/45 48/48/48
f 49/49/49 51/51/51 50/50/50
f 51/51/51 49/49/49 52/52/52
f 53/53/53 55/55/55 54/54/54
f 55/55/55 53/53/53 56/56/56
f 57/57/57 59/59/59 58/58/58
f 59/59/59 57/57/57 60/60/60
f 61/61/61 63/63/63 62/62/62
f 63/63/63 61/61/61 64/64/64
f 65/65/65 67/67/67 66/66/66
f 67/67/67 65/65/65 68/68/68
f 69/69/69 71/71/71 70/70/70
f 71/71/71 69/69/69 72/72/72
f 73/73/73 75/75/75 74/74/74
f 75/75/75 73/73/73 76/76/76
f 77/77/77 79/79/79 78/78/78
f 79/79/79 77/77/77 80/80/80
f 81/81/81 83/83/83 82/82/82
f 83/83/83 81/81/81 84/84/84
f 85/85/85 87/87/87 86/86/86
f 87/87/87 85/85/85 88/88/88
f 89/89/89 91/91/91 90/90/90
f 91/91/91 89/89/89 92/92/92
f 93/93/93 95/95/95 94/94/94
f 95/95/95 93/93/93 96/96/96
f 97/97/97 99/99/99 98/98/98
f 99/99/99 97/97/97 100/100/100
f 101/101/101 103/103/103 102/102/102
f 103/103/103 101/101/101 104/104/104
f 105/105/105 107/107/107 106/106/106
f 107/107/107 105/105/105 108/108/108
f 109/109/109 111/111/111 110/110/110
f 111/111/111 109/109/109 112/112/112
f 113/113/113 115/115/115 114/114/114
f 115/115/115 113/113/113 116/116/116
f 117/117/117 119/119/119 118/118/118
f 119/119/119 117/117/117 120/120/120
f 121/121/121 123/123/123 122/122/122
f 123/123/123 121/121/121 124/124/124
f 125/125/125 127/127/127 126/126/126
f 127/127/127 125/125/125 128/128/128
f 129/129/129 131/131/131 130/130/130
f 131/131/131 129/129/129 132/132/132
f 133/133/133 135/135/135 134/134/134
f 135/135/135 133/133/133 136/136/136
f 137/137/137 139/139/139 138/138/138
f 139/139/139 137/137/137 140/140/140
f 141/141/141 143/143/143 142/142/142
f 143/143/143 141/141/141 144/144/144
f 145/145/145 147/147/147 146/146/146
f 147/147/147 145/145/145 148/148/148
f 149/149/149 151/151/151 150/150/150
f 151/151/151 149/149/149 152/152/152
f 153/153/153 155/155/155 154/154/154
f 155/155/155 153/153/153 156/156/156
f 157/157/157 159/159/159 158/158/158
f 159/159/159 157/157/157 160/160/160
f 161/161/161 163/163/163 162/162/162
f 163/163/163 161/161/161 164/164/164
f 165/165/165 167/167/167 166/166/166
f 167/167/167 165/165/165 168/168/168
f 169/169/169 171/171/171 170/170/170
f 171/171/171 169/169/169 172/172/172
f 173/173/173 175/175/175 174/174/174
f 175/175/175 173/173/173 176/176/176
f 177/177/177 179/179/179 178/178/178
f 179/179/179 177/177/177 180/180/180
f 181/181/181 183/183/183 182/182/182
f 183/183/183 181/181/181 184/184/184
f 185/185/185 187/187/187 186/186/186
f 187/187/187 185/185/185 188/188/188
f 189/189/189 191/191/191 190/190/190
f 191/191/191 189/189/189 192/192/192
f 193/193/193 195/195/195 194/194/194
f 195/195/195 193/193/193 196/196/196
f 197/197/197 199/199/199 198/198/198
f 199/199/199 197/197/197 200/200/200
f 201/201/201 203/203/203 202/202/202
f 203/203/203 201/201/201 204/204/204
f 205/205/205 207/207/207 206/206/206
f 207/207/207 205/205/205 208/208/208
f 209/209/209 211/211/211 210/210/210
f 211/211/211 209/209/209 212/212/212
f 213/213/213 215/215/215 214/214/214
f 215/215/215 213/213/213 216/216/216
f 217/217/217 219/219/219 218/218/218
f 219/219/219 217/217/217 220/220/220
f 221/221/221 223/223/223 222/222/222
f 223/223/223 221/221/221 224/224/224
f 225/225/225 227/227/227 226/226/226
f 227/227/227 225/225/225 228/228/228
f 229/229/229 231/231/231 230/230/230
f 231/231/231 229/229/229 232/232/232
f 233/233/233 235/235/235 234/234/234
f 234/234/234 236/236/236 233/233/233
f 237/237/237 239/239/239 238/238/238
f 239/239/239 237/237/237 240/240/240
f 241/241/241 243/243/243 242/242/242
f 243/243/243 241/241/241 244/244/244
f 245/245/245 247/247/247 246/246/246
f 247/247/247 245/245/245 248/248/248
f 249/249/249 251/251/251 250/250/250
f 251/251/251 249/249/249 252/252/252
f 253/253/253 255/255/255 254/254/254
f 255/255/255 253/253/253 256/256/256
f 257/257/257 259/259/259 258/258/258
f 259/259/259 257/257/257 260/260/260
f 261/261/261 263/263/263 262/262/262
f 263/263/263 261/261/261 264/264/264
f 265/265/265 267/267/267 266/266/266
f 267/267/267 265/265/265 268/268/268
f 269/269/269 271/271/271 270/270/270
f 271/271/271 269/269/269 272/272/272
f 273/273/273 275/275/275 274/274/274
f 275/275/275 273/273/273 276/276/276
f 277/277/277 279/279/279 278/278/278
f 279/279/279 277/277/277 280/280/280
f 281/281/281 283/283/283 282/282/282
f 283/283/283 281/281/281 284/284/284
f 285/285/285 287/287/287 286/286/286
f 287/287/287 285/285/285 288/288/288
f 289/289/289 291/291/291 290/290/290
f 291/291/291 289/289/289 292/292/292
f 293/293/293 295/295/295 294/294/294
f 295/295/295 293/293/293 296/296/296
f 297/297/297 299/299/299 298/298/298
f 299/299/299 297/297/297 300/300/300
f 301/301/301 303/303/303 302/302/302
f 303/303/303 301/301/301 304/304/304
f 305/305/305 307/307/307 306/306/306
f 307/307/307 305/305/305 308/308/308
f 309/309/309 311/311/311 310/310/310
f 311/311/311 309/309/309 312/312/312
f 313/313/313 315/315/315 314/314/314
f 315/315/315 313/313/313 316/316/316
f 317/317/317 319/319/319 318/318/318
f 319/319/319 317/317/317 320/320/320
f 321/321/321 323/323/323 322/322/322
f 323/323/323 321/321/321 324/324/324
f 325/325/325 327/327/327 326/326/326
f 327/327/327 325/325/325 328/328/328
f 329/329/329 331/331/331 330/330/330
f 331/331/331 329/329/329 332/332/332
f 333/333/333 335/335/335 334/334/334
f 335/335/335 333/333/333 336/336/336
f 337/337/337 339/339/339 338/338/338
f 339/339/339 337/337/337 340/340/340
f 341/341/341 343/343/343 342/342/342
f 343/343/343 341/341/341 344/344/344
f 345/345/345 347/347/347 346/346/346
f 347/347/347 345/345/345 348/348/348
f 349/349/349 351/351/351 350/350/350
f 351/351/351 349/349/349 352/352/352
f 353/353/353 355/355/355 354/354/354
f 355/355/355 353/353/353 356/356/356
f 357/357/357 359/359/359 358/358/358
f 359/359/359 357/357/357 360/360/360
f 361/361/361 363/363/363 362/362/362
f 363/363/363 361/361/361 364/364/364
f 365/365/365 367/367/367 366/366/366
f 367/367/367 365/365/365 368/368/368
f 369/369/369 371/371/371 370/370/370
f 371/371/371 369/369/369 372/372/372
f 373/373/373 375/375/375 374/374/374
f 375/375/375 373/373/373 376/376/376
f 377/377/377 379/379/379 378/378/378
f 379/379/379 377/377/377 380/380/380
f 381/381/381 383/383/383 382/382/382
f 383/383/383 381/381/381 384/384/384
f 385/385/385 387/387/387 386/386/386
f 387/387/387 385/385/385 388/388/388
f 389/389/389 391/391/391 390/390/390
f 391/391/391 389/389/389 392/392/392
f 393/393/393 395/395/395 394/394/394
f 395/395/395 393/393/393 396/396/396
f 397/397/397 399/399/399 398/398/398
f 399/399/399 397/397/397 400/400/400
f 401/401/401 403/403/403 402/402/402
f 403/403/403 401/401/401 404/404/404
f 405/405/405 407/407/407 406/406/406
f 407/407/407 405/405/405 408/408/408
f 409/409/409 411/411/411 410/410/410
f 411/411/411 409/409/409 412/412/412
f 413/413/413 415/415/415 414/414/414
f 415/415/415 413/413/413 416/416/416
f 417/417/417 419/419/419 418/418/418
f 419/419/419 417/417/417 420/420/420
f 421/421/421 423/423/423 422/422/422
f 423/423/423 421/421/421 424/424/424
f 425/425/425 427/427/427 426/426/426
f 427/427/427 425/425/425 428/428/428
f 429/429/429 431/431/431 430/430/430
f 431/431/431 429/429/429 432/432/432
f 433/433/433 435/435/435 434/434/434
f 435/435/435 433/433/433 436/436/436
f 437/437/437 439/439/439 438/438/438
f 439/439/439 437/437/437 440/440/440
f 441/441/441 443/443/443 442/442/442
f 443/443/443 441/441/441 444/444/444
f 445/445/445 447/447/447 446/446/446
f 447/447/447 445/445/445 448/448/448
f 449/449/449 451/451/451 450/450/450
f 451/451/451 449/449/449 452/452/452
f 453/453/453 455/455/455 454/454/454
f 455/455/455 453/453/453 456/456/456
f 457/457/457 459/459/459 458/458/458
f 459/459/459 457/457/457 460/460/460
f 461/461/461 463/463/463 462/462/462
f 463/463/463 461/461/461 464/464/464
f 465/465/465 467/467/467 466/466/466
f 467/467/467 465/465/465 468/468/468
f 469/469/469 471/471/471 470/470/470
f 471/471/471 469/469/469 472/472/472
f 473/473/473 475/475/475 474/474/474
f 475/475/475 473/473/473 476/476/476
f 477/477/477 476/476/476 473/473/473
f 476/476/476 478/478/478 475/475/475
f 476/476/476 477/477/477 479/479/479
f 478/478/478 476/476/476 480/480/480
f 479/479/479 480/480/480 476/476/476
f 480/480/480 481/481/481 478/478/478
f 480/480/480 479/479/479 482/482/482
f 481/481/481 480/480/480 483/483/483
f 482/482/482 483/483/483 480/480/480
f 483/483/483 482/482/482 484/484/484
f 485/485/485 487/487/487 486/486/486
f 487/487/487 485/485/485 488/488/488
f 489/489/489 488/488/488 485/485/485
f 488/488/488 489/489/489 490/490/490
f 488/488/488 491/491/491 487/487/487
f 490/490/490 492/492/492 488/488/488
f 491/491/491 488/488/488 492/492/492
f 492/492/492 490/490/490 493/493/493
f 494/494/494 491/491/491 492/492/492
f 493/493/493 494/494/494 492/492/492
f 491/491/491 494/494/494 495/495/495
f 494/494/494 493/493/493 496/496/496
f 497/497/497 499/499/499 498/498/498
f 499/499/499 497/497/497 500/500/500
f 501/501/501 500/500/500 497/497/497
f 500/500/500 501/501/501 502/502/502
f 500/500/500 503/503/503 499/499/499
f 502/502/502 504/504/504 500/500/500
f 503/503/503 500/500/500 504/504/504
f 504/504/504 502/502/502 505/505/505
f 503/503/503 504/504/504 506/506/506
f 505/505/505 506/506/506 504/504/504
f 503/503/503 506/506/506 507/507/507
f 506/506/506 505/505/505 508/508/508
f 509/509/509 511/511/511 510/510/510
f 510/510/510 512/512/512 509/509/509
f 512/512/512 513/513/513 509/509/509
f 513/513/513 512/512/512 514/514/514
f 515/515/515 512/512/512 510/510/510
f 516/516/516 514/514/514 512/512/512
f 512/512/512 515/515/515 516/516/516
f 514/514/514 516/516/516 517/517/517
f 515/515/515 518/518/518 516/516/516
f 518/518/518 517/517/517 516/516/516
f 518/518/518 515/515/515 519/519/519
f 518/518/518 520/520/520 517/517/517
f 521/521/521 523/523/523 522/522/522
f 523/523/523 521/521/521 524/524/524
f 525/525/525 524/524/524 521/521/521
f 524/524/524 525/525/525 526/526/526
f 524/524/524 527/527/527 523/523/523
f 526/526/526 528/528/528 524/524/524
f 527/527/527 524/524/524 528/528/528
f 528/528/528 526/526/526 529/529/529
f 530/530/530 527/527/527 528/528/528
f 529/529/529 530/530/530 528/528/528
f 527/527/527 530/530/530 531/531/531
f 530/530/530 529/529/529 532/532/532
f 533/533/533 535/535/535 534/534/534
f 534/534/534 536/536/536 533/533/533
f 536/536/536 537/537/537 533/533/533
f 538/538/538 536/536/536 534/534/534
f 537/537/537 536/536/536 539/539/539
f 536/536/536 538/538/538 540/540/540
f 540/540/540 539/539/539 536/536/536
f 541/541/541 540/540/540 538/538/538
f 539/539/539 540/540/540 542/542/542
f 541/541/541 543/543/543 540/540/540
f 543/543/543 542/542/542 540/540/540
f 543/543/543 544/544/544 542/542/542
f 545/545/545 547/547/547 546/546/546
f 547/547/547 545/545/545 548/548/548
f 548/548/548 549/549/549 547/547/547
f 549/549/549 548/548/548 550/550/550
f 551/551/551 548/548/548 545/545/545
f 552/552/552 550/550/550 548/548/548
f 548/548/548 551/551/551 552/552/552
f 550/550/550 552/552/552 553/553/553
f 551/551/551 554/554/554 552/552/552
f 554/554/554 553/553/553 552/552/552
f 554/554/554 551/551/551 555/555/555
f 553/553/553 554/554/554 556/556/556
f 557/557/557 559/559/559 558/558/558
f 559/559/559 557/557/557 560/560/560
f 561/561/561 560/560/560 557/557/557
f 560/560/560 562/562/562 559/559/559
f 560/560/560 561/561/561 563/563/563
f 562/562/562 560/560/560 564/564/564
f 563/563/563 564/564/564 560/560/560
f 564/564/564 565/565/565 562/562/562
f 564/564/564 563/563/563 566/566/566
f 565/565/565 564/564/564 567/567/567
f 566/566/566 567/567/567 564/564/564
f 567/567/567 566/566/566 568/568/568
f 569/569/569 571/571/571 570/570/570
f 571/571/571 569/569/569 572/572/572
f 573/573/573 572/572/572 569/569/569
f 572/572/572 574/574/574 571/571/571
f 572/572/572 573/573/573 575/575/575
f 574/574/574 572/572/572 576/576/576
f 575/575/575 576/576/576 572/572/572
f 576/576/576 577/577/577 574/574/574
f 576/576/576 575/575/575 578/578/578
f 577/577/577 576/576/576 579/579/579
f 578/578/578 579/579/579 576/576/576
f 579/579/579 578/578/578 580/580/580
f 581/581/581 583/583/583 582/582/582
f 583/583/583 581/581/581 584/584/584
f 585/585/585 584/584/584 581/581/581
f 586/586/586 583/583/583 584/584/584
f 583/583/583 586/586/586 587/587/587
f 588/588/588 586/586/586 584/584/584
f 584/584/584 585/585/585 588/588/588
f 586/586/586 588/588/588 589/589/589
f 585/585/585 590/590/590 588/588/588
f 590/590/590 589/589/589 588/588/588
f 590/590/590 585/585/585 591/591/591
f 589/589/589 590/590/590 592/592/592
f 593/593/593 595/595/595 594/594/594
f 594/594/594 596/596/596 593/593/593
f 597/597/597 596/596/596 594/594/594
f 598/598/598 593/593/593 596/596/596
f 593/593/593 598/598/598 599/599/599
f 596/596/596 600/600/600 598/598/598
f 600/600/600 596/596/596 601/601/601
f 596/596/596 597/597/597 601/601/601
f 601/601/601 602/602/602 600/600/600
f 602/602/602 601/601/601 603/603/603
f 597/597/597 603/603/603 601/601/601
f 603/603/603 597/597/597 604/604/604
