mtllib P_CactusBulb02.mtl
v 2.845718E-05 -0.07205913 1.988335E-05
v 0.0864012 -0.03793231 -0.1805885
v -0.0002102346 -0.03443351 -0.2509448
v 0.1528397 0.04601844 -0.3185481
v -0.000357425 0.04962896 -0.4279802
v 0.1895269 0.1625819 -0.39473
v 6.137105E-06 0.1622022 -0.5202547
v 0.1979881 0.3026881 -0.4122998
v 0.001205867 0.301597 -0.5477713
v 0.3340465 0.04977839 -0.2668615
v 0.195645 -0.03413726 -0.1564899
v 2.845718E-05 -0.07205913 1.988335E-05
v 0.4062086 0.1625982 -0.3244088
v 0.4277821 0.3026881 -0.341613
v 0.4198877 0.457979 -0.3353176
v 0.1892823 0.4573065 -0.3919182
v 0.3893447 0.6119106 -0.3099757
v 0.1760893 0.6011969 -0.3546091
v 0.3339942 0.7368595 -0.2616884
v 0.004315266 0.4552686 -0.5374835
v 0.009825117 0.6068999 -0.4965374
v 0.1551214 0.718936 -0.2957967
v 0.2523967 0.8232675 -0.1897196
v 0.01656193 0.7313097 -0.4190599
v 0.1245166 0.8081241 -0.2143817
v 0.1498922 0.8702889 -0.09898885
v 0.02421667 0.8186836 -0.3039072
v 0.08363637 0.8639923 -0.1119008
v 0.03575833 0.8818733 0.001631251
v 0.03151135 0.8676056 -0.1589371
v 0.03575833 0.8818733 0.001631251
v -0.1893558 0.2977968 -0.4117126
v 0.004315266 0.4552686 -0.5374835
v -0.1742749 0.4510335 -0.3911138
v 0.009825117 0.6068999 -0.4965374
v -0.184914 0.1593529 -0.3943681
v 6.137105E-06 0.1622022 -0.5202547
v -0.1493748 0.5946547 -0.3536791
v 0.01656193 0.7313097 -0.4190599
v -0.1140164 0.7128305 -0.2948439
v 0.02421667 0.8186836 -0.3039072
v -0.06957295 0.8035178 -0.2136062
v 0.03151135 0.8676056 -0.1589371
v -0.1507557 0.04384615 -0.3183317
v -0.000357425 0.04962896 -0.4279802
v -0.01778122 0.8614716 -0.1114568
v 0.03575833 0.8818733 0.001631251
v -0.08552767 -0.03951837 -0.1804418
v -0.0002102346 -0.03443351 -0.2509448
v 2.845718E-05 -0.07205913 1.988335E-05
v -0.1915443 -0.03786233 -0.1561344
v 2.845718E-05 -0.07205913 1.988335E-05
v -0.3251167 0.04436249 -0.2662541
v -0.3924754 0.1564318 -0.323579
v -0.407937 0.2950416 -0.3404951
v -0.3935079 0.4487139 -0.3338895
v -0.3556199 0.6012426 -0.3082618
v -0.1140164 0.7128305 -0.2948439
v -0.2894761 0.7260435 -0.2598533
v -0.1963895 0.8141714 -0.1881142
v -0.08372221 0.8647025 -0.09799298
v 0.03575833 0.8818733 0.001631251
v -0.4163798 0.2917446 -0.1002403
v -0.3935079 0.4487139 -0.3338895
v -0.3854223 0.444572 -0.094786
v -0.3556199 0.6012426 -0.3082618
v -0.4064714 0.1537103 -0.09633324
v -0.3924754 0.1564318 -0.323579
v -0.3398954 0.5892639 -0.08536373
v -0.2894761 0.7260435 -0.2598533
v -0.2723141 0.7081676 -0.07070782
v -0.1963895 0.8141714 -0.1881142
v -0.1848418 0.7999852 -0.05076407
v -0.08372221 0.8647025 -0.09799298
v -0.3321688 0.03854604 -0.077906
v -0.3251167 0.04436249 -0.2662541
v -0.07895486 0.8595307 -0.02585522
v 0.03575833 0.8818733 0.001631251
v -0.1903544 -0.04203663 -0.04423981
v -0.1915443 -0.03786233 -0.1561344
v 2.845718E-05 -0.07205913 1.988335E-05
v -0.2383522 -0.0389057 0.05626909
v 2.845718E-05 -0.07205913 1.988335E-05
v -0.4028223 0.04227688 0.09607444
v -0.4844407 0.1541094 0.1169855
v -0.5016161 0.2922783 0.1235623
v -0.4818089 0.4454057 0.1217727
v -0.4354056 0.5978324 0.1130627
v -0.2723141 0.7081676 -0.07070782
v -0.3568039 0.7230272 0.09610252
v -0.2450776 0.8116091 0.07052393
v -0.1100809 0.863355 0.03795386
v 0.03575833 0.8818733 0.001631251
v 2.845718E-05 -0.07205913 1.988335E-05
v 0.1948307 -0.03795709 -0.04462298
v 0.195645 -0.03413726 -0.1564899
v 0.3441152 0.04599657 -0.0786962
v 0.3340465 0.04977839 -0.2668615
v 0.4265507 0.1625804 -0.0975116
v 0.4062086 0.1625982 -0.3244088
v 0.4455627 0.3026881 -0.101851
v 0.4235862 0.4582494 -0.09687211
v 0.4198877 0.457979 -0.3353176
v 0.385628 0.6042323 -0.0877279
v 0.3893447 0.6119106 -0.3099757
v 0.3283687 0.7222365 -0.07304346
v 0.3339942 0.7368595 -0.2616884
v 0.2490892 0.8107267 -0.05262163
v 0.2523967 0.8232675 -0.1897196
v 0.148404 0.8653511 -0.02688538
v 0.1498922 0.8702889 -0.09898885
v 0.03575833 0.8818733 0.001631251
v 0.1808017 0.8703905 0.03668282
v 0.03575833 0.8818733 0.001631251
v 0.3112582 0.823621 0.06835034
v 0.4150748 0.7373489 0.09354545
v 0.485353 0.6123318 0.110547
v 0.5237278 0.4580576 0.1196241
v 0.5335717 0.3026882 0.1218819
v 0.5066701 0.1625983 0.1157417
v 0.4166855 0.04977271 0.09520341
v 0.2441016 -0.03414902 0.05581223
v 2.845718E-05 -0.07205913 1.988335E-05
v 0.3406799 0.4574507 0.2712609
v 0.5237278 0.4580576 0.1196241
v 0.3572043 0.3026882 0.2852723
v 0.5066701 0.1625983 0.1157417
v 0.3131349 0.6017535 0.245787
v 0.485353 0.6123318 0.110547
v 0.3419578 0.1625808 0.2731137
v 0.4166855 0.04977271 0.09520341
v 0.2694958 0.7194027 0.2055961
v 0.4150748 0.7373489 0.09354545
v 0.2758497 0.04600115 0.2203942
v 0.2441016 -0.03414902 0.05581223
v 0.2075327 0.8083179 0.1498698
v 0.3112582 0.823621 0.06835034
v 0.1561322 -0.03795246 0.1249232
v 2.845718E-05 -0.07205913 1.988335E-05
v 0.1272393 0.8639703 0.07959821
v 0.1808017 0.8703905 0.03668282
v 0.03575833 0.8818733 0.001631251
v 0.1009094 0.8673285 0.1459605
v 0.03575833 0.8818733 0.001631251
v 0.1563185 0.8182064 0.2760782
v 0.1985225 0.7307041 0.3792765
v 0.2253454 0.6060446 0.4485101
v 0.2375538 0.4545543 0.4848185
v 0.2388646 0.3013029 0.4937056
v 0.2257224 0.1620985 0.4687592
v 0.185323 0.04958196 0.3855737
v 0.1086632 -0.03448861 0.2260958
v 2.845718E-05 -0.07205913 1.988335E-05
v 0.1009094 0.8673285 0.1459605
v 0.03654156 0.8610705 0.12737
v 0.03575833 0.8818733 0.001631251
v 0.1563185 0.8182064 0.2760782
v 0.03377957 0.8025764 0.2407025
v 0.1985225 0.7307041 0.3792765
v -0.02813814 0.864047 0.1465481
v 0.03575833 0.8818733 0.001631251
v -0.0906801 0.812456 0.2770878
v 0.02831152 0.7113987 0.3305392
v 0.02831152 0.7113987 0.3305392
v 0.2253454 0.6060446 0.4485101
v -0.1439562 0.7232895 0.3805082
v 0.02115946 0.59277 0.3952042
v 0.2375538 0.4545543 0.4848185
v -0.1833092 0.5979072 0.4497534
v 0.01415095 0.4492537 0.4359704
v 0.2388646 0.3013029 0.4937056
v -0.2070668 0.445512 0.4860449
v 0.008917278 0.29646 0.4582039
v 0.2257224 0.1620985 0.4687592
v -0.2178883 0.292312 0.4948117
v 0.004997229 0.158525 0.438456
v 0.185323 0.04958196 0.3855737
v 0.002543201 0.0435046 0.3537365
v 0.1086632 -0.03448861 0.2260958
v -0.2118806 0.1544112 0.4696319
v -0.1764655 0.04328764 0.3862175
v 0.001400552 -0.03963132 0.2005327
v 2.845718E-05 -0.07205913 1.988335E-05
v -0.1042977 -0.03811887 0.2264396
v 2.845718E-05 -0.07205913 1.988335E-05
v -0.3018447 0.4425014 0.2733559
v -0.2070668 0.445512 0.4860449
v -0.3284031 0.2898979 0.286963
v -0.2118806 0.1544112 0.4696319
v -0.2642372 0.5872967 0.2479811
v -0.1833092 0.5979072 0.4497534
v -0.2091317 0.7066811 0.2076657
v -0.1439562 0.7232895 0.3805082
v -0.1389254 0.79911 0.1514528
v -0.0906801 0.812456 0.2770878
v -0.3221542 0.1523971 0.2743514
v -0.1764655 0.04328764 0.3862175
v -0.05479964 0.8592244 0.08044226
v -0.02813814 0.864047 0.1465481
v 0.03575833 0.8818733 0.001631251
v -0.1100809 0.863355 0.03795386
v 0.03575833 0.8818733 0.001631251
v -0.2450776 0.8116091 0.07052393
v -0.2091317 0.7066811 0.2076657
v -0.3568039 0.7230272 0.09610252
v -0.4354056 0.5978324 0.1130627
v -0.4818089 0.4454057 0.1217727
v -0.5016161 0.2922783 0.1235623
v -0.4844407 0.1541094 0.1169855
v -0.264033 0.03798188 0.2212178
v -0.4028223 0.04227688 0.09607444
v -0.1042977 -0.03811887 0.2264396
v -0.1516563 -0.04215551 0.125317
v 2.845718E-05 -0.07205913 1.988335E-05
v -0.2383522 -0.0389057 0.05626909
v 2.845718E-05 -0.07205913 1.988335E-05
vn 0.009226943 -0.9999539 -0.002653857
vn 0.135156 -0.9511005 -0.2777424
vn 0.004702837 -0.938646 -0.3448502
vn 0.2843631 -0.756862 -0.5884706
vn -0.000712037 -0.7532664 -0.6577152
vn 0.4021376 -0.3811568 -0.8324692
vn -0.005973368 -0.3911795 -0.9202949
vn 0.436119 -0.02862404 -0.8994336
vn -0.01050395 -0.02150698 -0.9997135
vn 0.5134367 -0.7541355 -0.409466
vn 0.2691446 -0.9388495 -0.2147621
vn 0.009226943 -0.9999539 -0.002653857
vn 0.7184603 -0.3943802 -0.5729564
vn 0.7815596 -0.02831714 -0.6231875
vn 0.7657533 0.197319 -0.6121169
vn 0.4330653 0.1641776 -0.8862845
vn 0.7154122 0.3960552 -0.575609
vn 0.4130166 0.3405013 -0.8446752
vn 0.5990934 0.6399578 -0.4811871
vn -0.01287416 0.2105987 -0.9774878
vn -0.0117307 0.4172279 -0.9087262
vn 0.3541211 0.580379 -0.7333201
vn 0.4118606 0.8498755 -0.328759
vn -0.01014942 0.6593062 -0.7518061
vn 0.2436097 0.8163108 -0.5237281
vn 0.1996437 0.9663892 -0.16197
vn -0.00986451 0.8573178 -0.514693
vn 0.1036736 0.9615426 -0.2543375
vn -0.02354574 0.9996989 0.00691231
vn -0.01562038 0.9655207 -0.2598574
vn -0.02354574 0.9996989 0.00691231
vn -0.4498731 -0.0127141 -0.893002
vn -0.01285836 0.2105861 -0.9774908
vn -0.4464503 0.1900379 -0.8743957
vn -0.01177499 0.4172294 -0.908725
vn -0.4099092 -0.3738667 -0.8319845
vn -0.005982966 -0.3911973 -0.9202874
vn -0.4273579 0.3737177 -0.8232256
vn -0.0101243 0.6593207 -0.7517937
vn -0.3745409 0.606536 -0.7013083
vn -0.009873123 0.8573093 -0.514707
vn -0.2768984 0.8242729 -0.4938639
vn -0.01562038 0.9655207 -0.2598574
vn -0.2806957 -0.7560058 -0.591325
vn -0.000692457 -0.7532729 -0.6577078
vn -0.1507057 0.9588535 -0.2405988
vn -0.02354574 0.9996989 0.00691231
vn -0.1211888 -0.9525076 -0.2793609
vn 0.004702837 -0.938646 -0.3448502
vn 0.009226943 -0.9999539 -0.002653857
vn -0.2632384 -0.9402937 -0.2157623
vn 0.009226943 -0.9999539 -0.002653857
vn -0.5267466 -0.7463812 -0.4067594
vn -0.7398196 -0.368728 -0.562767
vn -0.7980098 0.009311616 -0.6025727
vn -0.7776343 0.2366928 -0.5824615
vn -0.7216543 0.4355243 -0.5380833
vn -0.3745323 0.6065376 -0.7013114
vn -0.5976186 0.6680301 -0.4433821
vn -0.421445 0.8551299 -0.301889
vn -0.2313947 0.9612092 -0.1501115
vn -0.02354574 0.9996989 0.00691231
vn -0.9798396 0.03073276 -0.1974078
vn -0.7776182 0.236699 -0.5824804
vn -0.9584913 0.2163799 -0.1856724
vn -0.7216371 0.4355397 -0.5380939
vn -0.9217988 -0.3357025 -0.1938834
vn -0.739815 -0.3687345 -0.5627688
vn -0.9080486 0.3823708 -0.1709982
vn -0.5976402 0.6679999 -0.4433987
vn -0.7863342 0.6007365 -0.1442023
vn -0.4214267 0.8551319 -0.3019091
vn -0.5775685 0.8099024 -0.1023369
vn -0.2313947 0.9612092 -0.1501115
vn -0.6528599 -0.7436606 -0.1440238
vn -0.5267726 -0.7463617 -0.4067615
vn -0.3070323 0.9503748 -0.05018801
vn -0.02354574 0.9996989 0.00691231
vn -0.2941535 -0.9532405 -0.06932662
vn -0.2632384 -0.9402937 -0.2157623
vn 0.009226943 -0.9999539 -0.002653857
vn -0.3327497 -0.9401845 0.07301188
vn 0.009226943 -0.9999539 -0.002653857
vn -0.6577559 -0.7390124 0.1456639
vn -0.9136428 -0.3504246 0.2060567
vn -0.9741758 0.03012759 0.223772
vn -0.9434849 0.2478946 0.2199646
vn -0.8770407 0.4338314 0.2063734
vn -0.7863428 0.6007292 -0.1441857
vn -0.7306225 0.6602152 0.174088
vn -0.515676 0.8477127 0.1243441
vn -0.2807187 0.9574019 0.06766554
vn -0.02354574 0.9996989 0.00691231
vn 0.009226943 -0.9999539 -0.002653857
vn 0.3010702 -0.9511198 -0.06876004
vn 0.2691446 -0.9388495 -0.2147621
vn 0.6371437 -0.7568979 -0.1454426
vn 0.5134174 -0.7541337 -0.4094935
vn 0.9016072 -0.3804678 -0.2057884
vn 0.7184607 -0.394366 -0.5729657
vn 0.9745846 -0.0264239 -0.2224558
vn 0.9615486 0.1652717 -0.2193389
vn 0.7657807 0.197293 -0.6120909
vn 0.9197229 0.3318696 -0.2096962
vn 0.7154163 0.3960285 -0.5756223
vn 0.8051217 0.5637652 -0.1842493
vn 0.599107 0.6399463 -0.4811855
vn 0.5782333 0.804934 -0.133145
vn 0.411872 0.8498698 -0.3287592
vn 0.273854 0.9596442 -0.06392982
vn 0.1996437 0.9663892 -0.16197
vn -0.02354574 0.9996989 0.00691231
vn 0.2521866 0.9657987 0.06029026
vn -0.02354574 0.9996989 0.00691231
vn 0.5194145 0.8465104 0.116742
vn 0.7548907 0.6334915 0.1697899
vn 0.8981944 0.3897663 0.2032954
vn 0.9565509 0.194278 0.2174085
vn 0.9745861 -0.02887218 0.2221447
vn 0.8959154 -0.3943596 0.2044896
vn 0.6402887 -0.7541011 0.1461573
vn 0.3357131 -0.938841 0.07664491
vn 0.009226943 -0.9999539 -0.002653857
vn 0.7778078 0.1573855 0.6084775
vn 0.9565495 0.1942959 0.2173984
vn 0.7841705 -0.03070439 0.6197854
vn 0.8959146 -0.3943627 0.2044871
vn 0.7462533 0.3276528 0.5794391
vn 0.8981963 0.389762 0.2032954
vn 0.7237895 -0.381597 0.5749022
vn 0.6402863 -0.7541068 0.1461378
vn 0.6505786 0.5658456 0.5065237
vn 0.7548897 0.633497 0.1697736
vn 0.5117338 -0.7568764 0.4065299
vn 0.3357131 -0.938841 0.07664491
vn 0.4614882 0.8073526 0.3677097
vn 0.5193934 0.8465251 0.1167287
vn 0.2425291 -0.9510764 0.1913984
vn 0.009226943 -0.9999539 -0.002653857
vn 0.2124142 0.9592274 0.1864485
vn 0.2521866 0.9657987 0.06029026
vn -0.02354574 0.9996989 0.00691231
vn 0.1065141 0.9638489 0.2442336
vn -0.02354574 0.9996989 0.00691231
vn 0.2278586 0.8502436 0.474517
vn 0.3325734 0.6444728 0.6885127
vn 0.3983048 0.3985757 0.82613
vn 0.4248039 0.1956192 0.8838975
vn 0.4335486 -0.03048603 0.9006144
vn 0.4003997 -0.3954843 0.8266029
vn 0.2892537 -0.7544342 0.589204
vn 0.1565959 -0.9387428 0.3069849
vn 0.009226943 -0.9999539 -0.002653857
vn 0.1065141 0.9638489 0.2442336
vn -0.02477124 0.957662 0.2868273
vn -0.02354574 0.9996989 0.00691231
vn 0.2278546 0.8502522 0.4745035
vn -0.01899911 0.8171211 0.5761528
vn 0.3325973 0.6444672 0.6885064
vn -0.1368927 0.9599636 0.2443977
vn -0.02354574 0.9996989 0.00691231
vn -0.238278 0.8507285 0.468492
vn -0.01052862 0.589459 0.8077297
vn -0.01055081 0.5894529 0.8077339
vn 0.3982931 0.3986223 0.8261131
vn -0.3344067 0.6579103 0.6747786
vn -0.002529766 0.3513378 0.9362454
vn 0.4248115 0.1955688 0.883905
vn -0.4047937 0.4216059 0.8114127
vn 0.002150486 0.1697745 0.9854806
vn 0.4335211 -0.0304601 0.9006285
vn -0.4348634 0.2211891 0.8729084
vn 0.00492391 -0.02978422 0.9995442
vn 0.4003849 -0.3955013 0.8266019
vn -0.4445909 -0.007706348 0.8957006
vn 0.01055296 -0.3859169 0.9224732
vn 0.2892671 -0.7544252 0.589209
vn 0.01585747 -0.7605901 0.6490388
vn 0.1565959 -0.9387428 0.3069849
vn -0.4102836 -0.3833915 0.827453
vn -0.2874143 -0.7538253 0.5908812
vn 0.01735246 -0.9532761 0.3016017
vn 0.009226943 -0.9999539 -0.002653857
vn -0.1374556 -0.9420831 0.3059173
vn 0.009226943 -0.9999539 -0.002653857
vn -0.7818903 0.2059509 0.5884147
vn -0.4348422 0.2212121 0.8729132
vn -0.7951763 0.01640425 0.6061564
vn -0.4102958 -0.3833686 0.8274574
vn -0.7422866 0.3751665 0.5552124
vn -0.4048161 0.4216048 0.8114021
vn -0.6444417 0.5968733 0.4779511
vn -0.3343901 0.6579389 0.6747589
vn -0.472688 0.8094175 0.3484384
vn -0.2382741 0.8507299 0.4684912
vn -0.7414145 -0.3497864 0.5726726
vn -0.2874047 -0.7538437 0.5908623
vn -0.2505287 0.9507137 0.1826987
vn -0.1368927 0.9599636 0.2443977
vn -0.02354574 0.9996989 0.00691231
vn -0.2807187 0.9574019 0.06766554
vn -0.02354574 0.9996989 0.00691231
vn -0.5156831 0.8477049 0.1243677
vn -0.6444594 0.5968614 0.4779421
vn -0.7306346 0.6602003 0.1740938
vn -0.8770409 0.4338414 0.2063515
vn -0.9434831 0.2479129 0.2199518
vn -0.9741772 0.03013789 0.2237641
vn -0.9136424 -0.3504143 0.2060761
vn -0.5195308 -0.7507898 0.4079246
vn -0.6577517 -0.7390181 0.1456534
vn -0.1374556 -0.9420831 0.3059173
vn -0.2320096 -0.9545631 0.1870316
vn 0.009226943 -0.9999539 -0.002653857
vn -0.3327497 -0.9401845 0.07301188
vn 0.009226943 -0.9999539 -0.002653857
vt 0.6837373 0
vt 0.648023 0.05000001
vt 0.7194516 0.05000001
vt 0.648023 0.09999999
vt 0.7194516 0.09999999
vt 0.648023 0.15
vt 0.7194515 0.15
vt 0.648023 0.2
vt 0.7194515 0.2
vt 0.5765945 0.09999999
vt 0.5765945 0.05000001
vt 0.6123087 0
vt 0.5765945 0.15
vt 0.5765945 0.2
vt 0.5765945 0.25
vt 0.648023 0.25
vt 0.5765945 0.3
vt 0.648023 0.3
vt 0.5765945 0.35
vt 0.7194516 0.25
vt 0.7194516 0.3
vt 0.648023 0.35
vt 0.5765945 0.4
vt 0.7194516 0.35
vt 0.648023 0.4
vt 0.5765945 0.45
vt 0.7194515 0.4
vt 0.648023 0.45
vt 0.6123087 0.5
vt 0.7194516 0.45
vt 0.6837373 0.5
vt 0.7908801 0.2
vt 0.7194516 0.25
vt 0.7908801 0.25
vt 0.7194516 0.3
vt 0.7908801 0.15
vt 0.7194515 0.15
vt 0.7908801 0.3
vt 0.7194516 0.35
vt 0.7908801 0.35
vt 0.7194515 0.4
vt 0.7908801 0.4
vt 0.7194516 0.45
vt 0.7908801 0.09999996
vt 0.7194516 0.09999999
vt 0.7908801 0.45
vt 0.7551659 0.5
vt 0.7908801 0.05000001
vt 0.7194516 0.05000001
vt 0.7551659 0
vt 0.8623087 0.05000001
vt 0.8265944 0
vt 0.8623087 0.09999996
vt 0.8623087 0.15
vt 0.8623087 0.2
vt 0.8623087 0.25
vt 0.8623087 0.3
vt 0.7908801 0.35
vt 0.8623087 0.35
vt 0.8623087 0.4
vt 0.8623087 0.45
vt 0.8265944 0.5
vt 0.9337373 0.2
vt 0.8623087 0.25
vt 0.9337373 0.25
vt 0.8623087 0.3
vt 0.9337373 0.15
vt 0.8623087 0.15
vt 0.9337373 0.3
vt 0.8623087 0.35
vt 0.9337373 0.35
vt 0.8623087 0.4
vt 0.9337373 0.4
vt 0.8623087 0.45
vt 0.9337373 0.09999996
vt 0.8623087 0.09999996
vt 0.9337373 0.45
vt 0.898023 0.5
vt 0.9337373 0.05000001
vt 0.8623087 0.05000001
vt 0.898023 0
vt 1.005166 0.05000001
vt 0.9694516 0
vt 1.005166 0.09999996
vt 1.005166 0.15
vt 1.005166 0.2
vt 1.005166 0.25
vt 1.005166 0.3
vt 0.9337373 0.35
vt 1.005166 0.35
vt 1.005166 0.4
vt 1.005166 0.45
vt 0.9694516 0.5
vt 0.5408801 0
vt 0.5051659 0.05000001
vt 0.5765945 0.05000001
vt 0.5051659 0.09999999
vt 0.5765945 0.09999999
vt 0.5051659 0.15
vt 0.5765945 0.15
vt 0.5051659 0.2
vt 0.5051659 0.25
vt 0.5765945 0.25
vt 0.5051659 0.3
vt 0.5765945 0.3
vt 0.5051659 0.35
vt 0.5765945 0.35
vt 0.5051659 0.4
vt 0.5765945 0.4
vt 0.5051659 0.45
vt 0.5765945 0.45
vt 0.5408801 0.5
vt 0.4337373 0.45
vt 0.4694516 0.5
vt 0.4337373 0.4
vt 0.4337373 0.35
vt 0.4337373 0.3
vt 0.4337373 0.25
vt 0.4337373 0.2
vt 0.4337373 0.15
vt 0.4337373 0.09999999
vt 0.4337373 0.05000001
vt 0.4694516 0
vt 0.3623087 0.25
vt 0.4337373 0.25
vt 0.3623087 0.2
vt 0.4337373 0.15
vt 0.3623087 0.3
vt 0.4337373 0.3
vt 0.3623087 0.15
vt 0.4337373 0.09999999
vt 0.3623087 0.35
vt 0.4337373 0.35
vt 0.3623087 0.09999999
vt 0.4337373 0.05000001
vt 0.3623087 0.4
vt 0.4337373 0.4
vt 0.3623087 0.05000001
vt 0.398023 0
vt 0.3623087 0.45
vt 0.4337373 0.45
vt 0.398023 0.5
vt 0.2908802 0.45
vt 0.3265945 0.5
vt 0.2908801 0.4
vt 0.2908802 0.35
vt 0.2908801 0.3
vt 0.2908801 0.25
vt 0.2908801 0.2
vt 0.2908802 0.15
vt 0.2908801 0.09999999
vt 0.2908802 0.05000001
vt 0.3265945 0
vt 0.2908802 0.45
vt 0.2194516 0.45
vt 0.2551659 0.5
vt 0.2908801 0.4
vt 0.2194516 0.4
vt 0.2908802 0.35
vt 0.148023 0.45
vt 0.1837373 0.5
vt 0.148023 0.4
vt 0.2194516 0.35
vt 0.2194516 0.35
vt 0.2908801 0.3
vt 0.148023 0.35
vt 0.2194516 0.3
vt 0.2908801 0.25
vt 0.148023 0.3
vt 0.2194516 0.25
vt 0.2908801 0.2
vt 0.148023 0.25
vt 0.2194516 0.2
vt 0.2908802 0.15
vt 0.148023 0.2
vt 0.2194516 0.15
vt 0.2908801 0.09999999
vt 0.2194516 0.09999999
vt 0.2908802 0.05000001
vt 0.148023 0.15
vt 0.148023 0.09999999
vt 0.2194516 0.05000001
vt 0.2551659 0
vt 0.148023 0.05000001
vt 0.1837373 0
vt 0.07659444 0.25
vt 0.148023 0.25
vt 0.07659444 0.2
vt 0.148023 0.15
vt 0.07659444 0.3
vt 0.148023 0.3
vt 0.07659444 0.35
vt 0.148023 0.35
vt 0.07659444 0.4
vt 0.148023 0.4
vt 0.07659444 0.15
vt 0.148023 0.09999999
vt 0.07659444 0.45
vt 0.148023 0.45
vt 0.1123087 0.5
vt 0.005165875 0.45
vt 0.04088017 0.5
vt 0.005165875 0.4
vt 0.07659444 0.35
vt 0.005165875 0.35
vt 0.005165875 0.3
vt 0.005165875 0.25
vt 0.005165875 0.2
vt 0.005165875 0.15
vt 0.07659444 0.09999999
vt 0.005165875 0.09999996
vt 0.148023 0.05000001
vt 0.07659444 0.05000001
vt 0.1123087 0
vt 0.005165875 0.05000001
vt 0.04088017 0
usemtl M_Cactus
f 1/1/1 3/3/3 2/2/2
f 3/3/3 4/4/4 2/2/2
f 3/3/3 5/5/5 4/4/4
f 5/5/5 6/6/6 4/4/4
f 5/5/5 7/7/7 6/6/6
f 7/7/7 8/8/8 6/6/6
f 7/7/7 9/9/9 8/8/8
f 2/2/2 4/4/4 10/10/10
f 2/2/2 10/10/10 11/11/11
f 12/12/12 2/2/2 11/11/11
f 4/4/4 13/13/13 10/10/10
f 4/4/4 6/6/6 13/13/13
f 6/6/6 14/14/14 13/13/13
f 6/6/6 8/8/8 14/14/14
f 8/8/8 15/15/15 14/14/14
f 8/8/8 16/16/16 15/15/15
f 9/9/9 16/16/16 8/8/8
f 16/16/16 17/17/17 15/15/15
f 16/16/16 18/18/18 17/17/17
f 18/18/18 19/19/19 17/17/17
f 9/9/9 20/20/20 16/16/16
f 20/20/20 18/18/18 16/16/16
f 20/20/20 21/21/21 18/18/18
f 18/18/18 22/22/22 19/19/19
f 21/21/21 22/22/22 18/18/18
f 22/22/22 23/23/23 19/19/19
f 21/21/21 24/24/24 22/22/22
f 22/22/22 25/25/25 23/23/23
f 24/24/24 25/25/25 22/22/22
f 25/25/25 26/26/26 23/23/23
f 24/24/24 27/27/27 25/25/25
f 25/25/25 28/28/28 26/26/26
f 27/27/27 28/28/28 25/25/25
f 28/28/28 29/29/29 26/26/26
f 27/27/27 30/30/30 28/28/28
f 30/30/30 31/31/31 28/28/28
f 32/32/32 33/33/33 9/9/9
f 32/32/32 34/34/34 33/33/33
f 34/34/34 35/35/35 33/33/33
f 36/36/36 32/32/32 9/9/9
f 36/36/36 9/9/9 37/37/37
f 34/34/34 38/38/38 35/35/35
f 38/38/38 39/39/39 35/35/35
f 38/38/38 40/40/40 39/39/39
f 40/40/40 41/41/41 39/39/39
f 40/40/40 42/42/42 41/41/41
f 42/42/42 43/43/43 41/41/41
f 44/44/44 36/36/36 37/37/37
f 44/44/44 37/37/37 45/45/45
f 42/42/42 46/46/46 43/43/43
f 46/46/46 47/47/47 43/43/43
f 48/48/48 44/44/44 45/45/45
f 48/48/48 45/45/45 49/49/49
f 50/50/50 48/48/48 49/49/49
f 51/51/51 44/44/44 48/48/48
f 52/52/52 51/51/51 48/48/48
f 51/51/51 53/53/53 44/44/44
f 53/53/53 36/36/36 44/44/44
f 53/53/53 54/54/54 36/36/36
f 54/54/54 32/32/32 36/36/36
f 54/54/54 55/55/55 32/32/32
f 55/55/55 34/34/34 32/32/32
f 55/55/55 56/56/56 34/34/34
f 56/56/56 38/38/38 34/34/34
f 56/56/56 57/57/57 38/38/38
f 57/57/57 58/58/58 38/38/38
f 57/57/57 59/59/59 58/58/58
f 59/59/59 42/42/42 58/58/58
f 59/59/59 60/60/60 42/42/42
f 60/60/60 46/46/46 42/42/42
f 60/60/60 61/61/61 46/46/46
f 61/61/61 62/62/62 46/46/46
f 63/63/63 64/64/64 55/55/55
f 63/63/63 65/65/65 64/64/64
f 65/65/65 66/66/66 64/64/64
f 67/67/67 63/63/63 55/55/55
f 67/67/67 55/55/55 68/68/68
f 65/65/65 69/69/69 66/66/66
f 69/69/69 70/70/70 66/66/66
f 69/69/69 71/71/71 70/70/70
f 71/71/71 72/72/72 70/70/70
f 71/71/71 73/73/73 72/72/72
f 73/73/73 74/74/74 72/72/72
f 75/75/75 67/67/67 68/68/68
f 75/75/75 68/68/68 76/76/76
f 73/73/73 77/77/77 74/74/74
f 77/77/77 78/78/78 74/74/74
f 79/79/79 75/75/75 76/76/76
f 79/79/79 76/76/76 80/80/80
f 81/81/81 79/79/79 80/80/80
f 82/82/82 75/75/75 79/79/79
f 83/83/83 82/82/82 79/79/79
f 82/82/82 84/84/84 75/75/75
f 84/84/84 67/67/67 75/75/75
f 84/84/84 85/85/85 67/67/67
f 85/85/85 63/63/63 67/67/67
f 85/85/85 86/86/86 63/63/63
f 86/86/86 65/65/65 63/63/63
f 86/86/86 87/87/87 65/65/65
f 87/87/87 69/69/69 65/65/65
f 87/87/87 88/88/88 69/69/69
f 88/88/88 89/89/89 69/69/69
f 88/88/88 90/90/90 89/89/89
f 90/90/90 73/73/73 89/89/89
f 90/90/90 91/91/91 73/73/73
f 91/91/91 77/77/77 73/73/73
f 91/91/91 92/92/92 77/77/77
f 92/92/92 93/93/93 77/77/77
f 94/94/94 96/96/96 95/95/95
f 96/96/96 97/97/97 95/95/95
f 96/96/96 98/98/98 97/97/97
f 98/98/98 99/99/99 97/97/97
f 98/98/98 100/100/100 99/99/99
f 100/100/100 101/101/101 99/99/99
f 100/100/100 14/14/14 101/101/101
f 14/14/14 102/102/102 101/101/101
f 14/14/14 103/103/103 102/102/102
f 103/103/103 104/104/104 102/102/102
f 103/103/103 105/105/105 104/104/104
f 105/105/105 106/106/106 104/104/104
f 105/105/105 107/107/107 106/106/106
f 107/107/107 108/108/108 106/106/106
f 107/107/107 109/109/109 108/108/108
f 109/109/109 110/110/110 108/108/108
f 109/109/109 111/111/111 110/110/110
f 111/111/111 112/112/112 110/110/110
f 108/108/108 110/110/110 113/113/113
f 110/110/110 114/114/114 113/113/113
f 108/108/108 113/113/113 115/115/115
f 106/106/106 108/108/108 115/115/115
f 106/106/106 115/115/115 116/116/116
f 104/104/104 106/106/106 116/116/116
f 104/104/104 116/116/116 117/117/117
f 102/102/102 104/104/104 117/117/117
f 102/102/102 117/117/117 118/118/118
f 101/101/101 102/102/102 118/118/118
f 101/101/101 118/118/118 119/119/119
f 99/99/99 101/101/101 119/119/119
f 99/99/99 119/119/119 120/120/120
f 97/97/97 99/99/99 120/120/120
f 97/97/97 120/120/120 121/121/121
f 95/95/95 97/97/97 121/121/121
f 95/95/95 121/121/121 122/122/122
f 123/123/123 95/95/95 122/122/122
f 119/119/119 125/125/125 124/124/124
f 119/119/119 124/124/124 126/126/126
f 127/127/127 119/119/119 126/126/126
f 125/125/125 128/128/128 124/124/124
f 125/125/125 129/129/129 128/128/128
f 127/127/127 126/126/126 130/130/130
f 131/131/131 127/127/127 130/130/130
f 129/129/129 132/132/132 128/128/128
f 129/129/129 133/133/133 132/132/132
f 131/131/131 130/130/130 134/134/134
f 135/135/135 131/131/131 134/134/134
f 133/133/133 136/136/136 132/132/132
f 133/133/133 137/137/137 136/136/136
f 135/135/135 134/134/134 138/138/138
f 139/139/139 135/135/135 138/138/138
f 137/137/137 140/140/140 136/136/136
f 137/137/137 141/141/141 140/140/140
f 141/141/141 142/142/142 140/140/140
f 136/136/136 140/140/140 143/143/143
f 140/140/140 144/144/144 143/143/143
f 136/136/136 143/143/143 145/145/145
f 132/132/132 136/136/136 145/145/145
f 132/132/132 145/145/145 146/146/146
f 128/128/128 132/132/132 146/146/146
f 128/128/128 146/146/146 147/147/147
f 124/124/124 128/128/128 147/147/147
f 124/124/124 147/147/147 148/148/148
f 126/126/126 124/124/124 148/148/148
f 126/126/126 148/148/148 149/149/149
f 130/130/130 126/126/126 149/149/149
f 130/130/130 149/149/149 150/150/150
f 134/134/134 130/130/130 150/150/150
f 134/134/134 150/150/150 151/151/151
f 138/138/138 134/134/134 151/151/151
f 138/138/138 151/151/151 152/152/152
f 153/153/153 138/138/138 152/152/152
f 154/154/154 156/156/156 155/155/155
f 157/157/157 154/154/154 155/155/155
f 157/157/157 155/155/155 158/158/158
f 159/159/159 157/157/157 158/158/158
f 158/158/158 155/155/155 160/160/160
f 155/155/155 161/161/161 160/160/160
f 158/158/158 160/160/160 162/162/162
f 159/159/159 158/158/158 163/163/163
f 164/164/164 158/158/158 162/162/162
f 165/165/165 159/159/159 163/163/163
f 164/164/164 162/162/162 166/166/166
f 165/165/165 163/163/163 167/167/167
f 167/167/167 164/164/164 166/166/166
f 168/168/168 165/165/165 167/167/167
f 167/167/167 166/166/166 169/169/169
f 168/168/168 167/167/167 170/170/170
f 170/170/170 167/167/167 169/169/169
f 171/171/171 168/168/168 170/170/170
f 170/170/170 169/169/169 172/172/172
f 171/171/171 170/170/170 173/173/173
f 173/173/173 170/170/170 172/172/172
f 174/174/174 171/171/171 173/173/173
f 173/173/173 172/172/172 175/175/175
f 174/174/174 173/173/173 176/176/176
f 176/176/176 173/173/173 175/175/175
f 177/177/177 174/174/174 176/176/176
f 177/177/177 176/176/176 178/178/178
f 179/179/179 177/177/177 178/178/178
f 176/176/176 175/175/175 180/180/180
f 178/178/178 176/176/176 180/180/180
f 178/178/178 180/180/180 181/181/181
f 179/179/179 178/178/178 182/182/182
f 182/182/182 178/178/178 181/181/181
f 183/183/183 179/179/179 182/182/182
f 182/182/182 181/181/181 184/184/184
f 185/185/185 182/182/182 184/184/184
f 175/175/175 187/187/187 186/186/186
f 175/175/175 186/186/186 188/188/188
f 189/189/189 175/175/175 188/188/188
f 187/187/187 190/190/190 186/186/186
f 187/187/187 191/191/191 190/190/190
f 191/191/191 192/192/192 190/190/190
f 191/191/191 193/193/193 192/192/192
f 193/193/193 194/194/194 192/192/192
f 193/193/193 195/195/195 194/194/194
f 189/189/189 188/188/188 196/196/196
f 197/197/197 189/189/189 196/196/196
f 195/195/195 198/198/198 194/194/194
f 195/195/195 199/199/199 198/198/198
f 199/199/199 200/200/200 198/198/198
f 194/194/194 198/198/198 201/201/201
f 198/198/198 202/202/202 201/201/201
f 194/194/194 201/201/201 203/203/203
f 204/204/204 194/194/194 203/203/203
f 204/204/204 203/203/203 205/205/205
f 190/190/190 204/204/204 205/205/205
f 190/190/190 205/205/205 206/206/206
f 186/186/186 190/190/190 206/206/206
f 186/186/186 206/206/206 207/207/207
f 188/188/188 186/186/186 207/207/207
f 188/188/188 207/207/207 208/208/208
f 196/196/196 188/188/188 208/208/208
f 196/196/196 208/208/208 209/209/209
f 210/210/210 196/196/196 209/209/209
f 197/197/197 196/196/196 210/210/210
f 210/210/210 209/209/209 211/211/211
f 212/212/212 197/197/197 210/210/210
f 213/213/213 210/210/210 211/211/211
f 212/212/212 210/210/210 213/213/213
f 214/214/214 212/212/212 213/213/213
f 213/213/213 211/211/211 215/215/215
f 216/216/216 213/213/213 215/215/215
