mtllib P_DesertTwigRoots01.mtl
v -0.5951545 0.8251384 0.09303106
v -0.6016777 0.8138712 0.08920423
v -0.8001314 0.8673362 0.2226575
v 0.195814 0.7009526 -0.5188936
v 0.2029314 0.6912056 -0.5365448
v 0.1417342 0.7965955 -0.6154141
v 0.1330016 0.6584819 0.5301262
v 0.149091 0.6636813 0.5366655
v 0.1284502 0.7817111 0.6284813
v 0.1488887 0.6497378 0.5482498
v 0.1327993 0.6445383 0.5417106
v 0.1284502 0.7817111 0.6284813
v 0.7269328 0.5652885 -0.2509206
v 0.7143871 0.577289 -0.2561414
v 0.7640535 0.6668773 -0.2759957
v -0.2997908 0.7307706 0.5484773
v -0.2925898 0.7167871 0.557492
v -0.2844167 0.7457005 0.6437957
v 0.1286644 0.9125034 0.0817399
v 0.1339709 0.9159193 0.07624601
v 0.01606687 1.000468 0.04717034
v 0.4622824 1.001964 0.2628428
v 0.4690732 1.004134 0.2629219
v 0.4547535 1.117914 0.3118858
v 0.4694077 1.002833 0.2699237
v 0.4626168 1.000662 0.2698446
v 0.4547535 1.117914 0.3118858
v 0.6049698 0.7551216 -0.3577931
v 0.6006895 0.7580232 -0.3528847
v 0.6016951 0.8658568 -0.370759
v 0.6705797 0.9396169 0.4838295
v 0.6777947 0.9363447 0.4910089
v 0.6876816 1.071606 0.5471951
v 0.6701809 0.9309059 0.4961817
v 0.6629659 0.9341781 0.4890023
v 0.6876816 1.071606 0.5471951
v -0.3753312 0.8674132 -0.1440018
v -0.3791651 0.8707011 -0.1385192
v -0.3662835 1.005892 -0.1691596
v -0.4014303 0.787089 0.3697386
v -0.4036856 0.7891171 0.3629292
v -0.2834503 0.8228682 0.3475937
v -0.268933 0.9129266 0.2647344
v -0.2783937 0.9145828 0.2687997
v -0.2821004 1.074344 0.2229698
v -0.2182668 0.9152482 -0.3093668
v -0.2182315 0.910338 -0.315902
v -0.2182557 0.9836177 -0.3575714
v 0.8334995 0.8821123 0.2470927
v 0.8340992 0.8826884 0.2362254
v 1.028514 0.9116402 0.2684164
v -0.07130404 0.8054923 -0.3611152
v -0.06158289 0.8053882 -0.3580208
v -0.05256301 0.9066355 -0.4062603
v -0.06361271 0.812873 -0.3513919
v -0.07333389 0.8129772 -0.3544862
v -0.05256301 0.9066355 -0.4062603
v 0.06383057 -0.1790437 0.06175251
v -0.004220136 -0.1953317 0.0851952
v -0.03527455 0.08745562 0.08895753
v 0.02540969 0.08837653 0.0679566
v 0.07689764 -0.1702258 -0.01033947
v -0.00226151 0.2511664 0.06854047
v 0.03756066 0.08898609 0.004897548
v 0.04193972 0.221702 0.05318714
v 0.04835629 0.2070183 0.0002642104
v 0.1801222 0.3912306 -0.001659826
v 0.2005895 0.3510438 -0.01327897
v 0.021914 -0.177696 -0.05898878
v 0.07689764 -0.1702258 -0.01033947
v 0.03756066 0.08898609 0.004897548
v -0.01097263 0.08867473 -0.03716061
v 0.04835629 0.2070183 0.0002642104
v 0.01057166 0.221799 -0.03730539
v 0.2086455 0.3411089 -0.05805946
v 0.1962343 0.3713608 -0.09122083
v 0.483279 0.4165087 0.0587188
v 0.474261 0.4415647 0.03205505
v 0.175767 0.4115477 -0.0796017
v 0.4527799 0.4713117 0.04064398
v 0.6684182 0.6564859 0.07097193
v 0.6485926 0.6621398 0.05177631
v 0.7477156 0.8581235 -0.0834835
v 0.7364118 0.8626633 -0.09575957
v 0.9025103 0.9557613 -0.09873974
v -0.0461367 -0.1939841 -0.0355461
v 0.021914 -0.177696 -0.05898878
v -0.01097263 0.08867473 -0.03716061
v -0.07165686 0.08775382 -0.01615968
v -0.05920377 -0.202802 0.0365459
v 0.01057166 0.221799 -0.03730539
v -0.08380783 0.08714426 0.04689937
v -0.03362956 0.2512634 -0.02195207
v 0.1962343 0.3713608 -0.09122083
v -0.04004615 0.265947 0.03097086
v 0.175767 0.4115477 -0.0796017
v 0.167711 0.4214826 -0.03482119
v -0.004220136 -0.1953317 0.0851952
v -0.05920377 -0.202802 0.0365459
v -0.08380783 0.08714426 0.04689937
v -0.03527455 0.08745562 0.08895753
v -0.04004615 0.265947 0.03097086
v -0.00226151 0.2511664 0.06854047
v 0.167711 0.4214826 -0.03482119
v 0.1801222 0.3912306 -0.001659826
v 0.4403168 0.4760025 0.0758967
v 0.4493348 0.4509465 0.1025604
v 0.2005895 0.3510438 -0.01327897
v 0.4708159 0.4211996 0.0939715
v 0.6247092 0.6893712 0.08446439
v 0.6445349 0.6837173 0.10366
v 0.7255833 0.8841022 -0.07786057
v 0.7368871 0.8795626 -0.06558447
v 0.9025103 0.9557613 -0.09873974
v 0.7479532 0.8665732 -0.06839595
v 0.04835629 0.2070183 0.0002642104
v 0.04193972 0.221702 0.05318714
v 0.2005895 0.3510438 -0.01327897
v 0.2086455 0.3411089 -0.05805946
v 0.4708159 0.4211996 0.0939715
v 0.483279 0.4165087 0.0587188
v 0.6663893 0.6672746 0.09691375
v 0.6684182 0.6564859 0.07097193
v 0.6445349 0.6837173 0.10366
v 0.4493348 0.4509465 0.1025604
v 0.7479532 0.8665732 -0.06839595
v 0.7477156 0.8581235 -0.0834835
v 0.9025103 0.9557613 -0.09873974
v 0.167711 0.4214826 -0.03482119
v 0.175767 0.4115477 -0.0796017
v 0.4527799 0.4713117 0.04064398
v 0.4403168 0.4760025 0.0758967
v 0.4527799 0.4713117 0.04064398
v 0.474261 0.4415647 0.03205505
v 0.6485926 0.6621398 0.05177631
v 0.626738 0.6785825 0.05852259
v 0.4403168 0.4760025 0.0758967
v 0.7364118 0.8626633 -0.09575957
v 0.6247092 0.6893712 0.08446439
v 0.7253456 0.8756526 -0.09294812
v 0.9025103 0.9557613 -0.09873974
v 0.7255833 0.8841022 -0.07786057
v 0.6663893 0.6672746 0.09691375
v 0.6445349 0.6837173 0.10366
v 0.7368871 0.8795626 -0.06558447
v 0.7479532 0.8665732 -0.06839595
v 0.02414764 0.2406183 0.03982063
v 0.0137867 0.1949385 0.062485
v -0.1492789 0.3186133 0.2231682
v -0.1308914 0.3479646 0.1957018
v -0.005246052 0.2572902 0.000251445
v -0.2881311 0.5612021 0.231029
v -0.1483705 0.3547398 0.1556695
v -0.2614535 0.5713004 0.2075526
v -0.388521 0.6485879 0.1110088
v -0.2606333 0.5572763 0.1733845
v -0.367304 0.6570193 0.09195612
v -0.4704932 0.7458009 0.08787623
v -0.3646665 0.6433929 0.06565757
v -0.45992 0.7571732 0.0720351
v -0.5951545 0.8251384 0.09303106
v -0.4635833 0.7524553 0.05067201
v -0.5940396 0.8355829 0.08443943
v -0.8001314 0.8673362 0.2226575
v -0.5994479 0.8347601 0.07202101
v -0.04500071 0.2282823 -0.01665341
v -0.005246052 0.2572902 0.000251445
v -0.1483705 0.3547398 0.1556695
v -0.1842371 0.3321634 0.1431036
v -0.05536165 0.1826025 0.006010948
v -0.2026246 0.302812 0.17057
v -0.2864907 0.533154 0.1626928
v -0.3131683 0.5230556 0.1861691
v -0.02596795 0.1659306 0.04558014
v -0.05536165 0.1826025 0.006010948
v -0.2026246 0.302812 0.17057
v -0.1851455 0.296037 0.2106022
v -0.3131683 0.5230556 0.1861691
v -0.3139885 0.5370797 0.2203373
v -0.4044629 0.6129034 0.07746428
v -0.4071003 0.6265299 0.1037629
v -0.3832459 0.6213349 0.05841166
v -0.2864907 0.533154 0.1626928
v -0.4883928 0.7249929 0.06099117
v -0.4847295 0.7297108 0.08235428
v -0.6070861 0.8130485 0.07678581
v -0.6016777 0.8138712 0.08920423
v -0.8001314 0.8673362 0.2226575
v 0.0137867 0.1949385 0.062485
v -0.02596795 0.1659306 0.04558014
v -0.1851455 0.296037 0.2106022
v -0.1492789 0.3186133 0.2231682
v -0.1842371 0.3321634 0.1431036
v -0.1483705 0.3547398 0.1556695
v -0.2606333 0.5572763 0.1733845
v -0.2864907 0.533154 0.1626928
v -0.3646665 0.6433929 0.06565757
v -0.3832459 0.6213349 0.05841166
v -0.4635833 0.7524553 0.05067201
v -0.4778197 0.7363651 0.04515005
v -0.5994479 0.8347601 0.07202101
v -0.6059712 0.8234929 0.06819412
v -0.1492789 0.3186133 0.2231682
v -0.1851455 0.296037 0.2106022
v -0.3139885 0.5370797 0.2203373
v -0.2881311 0.5612021 0.231029
v -0.4071003 0.6265299 0.1037629
v -0.388521 0.6485879 0.1110088
v -0.4847295 0.7297108 0.08235428
v -0.4704932 0.7458009 0.08787623
v -0.6016777 0.8138712 0.08920423
v -0.5951545 0.8251384 0.09303106
v -0.4044629 0.6129034 0.07746428
v -0.3832459 0.6213349 0.05841166
v -0.4778197 0.7363651 0.04515005
v -0.4883928 0.7249929 0.06099117
v -0.6059712 0.8234929 0.06819412
v -0.6070861 0.8130485 0.07678581
v -0.8001314 0.8673362 0.2226575
v -0.5994479 0.8347601 0.07202101
v 0.1020245 0.3655517 -0.02840644
v 0.1178366 0.3073636 -0.0407421
v 0.08624683 0.3606392 -0.2928121
v 0.07426153 0.4030807 -0.2739734
v 0.1608329 0.3827595 -0.03419489
v 0.1020245 0.3655517 -0.02840644
v 0.07426153 0.4030807 -0.2739734
v 0.1205502 0.4124594 -0.2656532
v 0.176645 0.3245714 -0.04653056
v 0.1325356 0.3700179 -0.284492
v 0.1878267 0.5579143 -0.4444955
v 0.1991787 0.5363899 -0.4698905
v 0.2157496 0.7071612 -0.5142833
v 0.2228671 0.697414 -0.5319347
v 0.1417342 0.7965955 -0.6154141
v 0.1178366 0.3073636 -0.0407421
v 0.176645 0.3245714 -0.04653056
v 0.1325356 0.3700179 -0.284492
v 0.08624683 0.3606392 -0.2928121
v 0.07426153 0.4030807 -0.2739734
v 0.08624683 0.3606392 -0.2928121
v 0.1670424 0.5363058 -0.4841847
v 0.1556903 0.5578302 -0.4587897
v 0.2029314 0.6912056 -0.5365448
v 0.195814 0.7009526 -0.5188936
v 0.1205502 0.4124594 -0.2656532
v 0.07426153 0.4030807 -0.2739734
v 0.1556903 0.5578302 -0.4587897
v 0.1878267 0.5579143 -0.4444955
v 0.195814 0.7009526 -0.5188936
v 0.2157496 0.7071612 -0.5142833
v 0.1417342 0.7965955 -0.6154141
v 0.08624683 0.3606392 -0.2928121
v 0.1325356 0.3700179 -0.284492
v 0.1991787 0.5363899 -0.4698905
v 0.1670424 0.5363058 -0.4841847
v 0.2228671 0.697414 -0.5319347
v 0.2029314 0.6912056 -0.5365448
v 0.1417342 0.7965955 -0.6154141
v 0.440568 0.4695074 0.04874771
v 0.4492936 0.4202053 0.06344645
v 0.4009405 0.4910118 0.3060583
v 0.3964783 0.5263865 0.286517
v 0.2791541 0.6133328 0.4463613
v 0.2772003 0.6382314 0.4300682
v 0.1488887 0.6497378 0.5482498
v 0.149091 0.6636813 0.5366655
v 0.1284502 0.7817111 0.6284813
v 0.3897971 0.458847 0.04312999
v 0.440568 0.4695074 0.04874771
v 0.3964783 0.5263865 0.286517
v 0.3587715 0.5156685 0.275725
v 0.2772003 0.6382314 0.4300682
v 0.254572 0.626385 0.4146785
v 0.149091 0.6636813 0.5366655
v 0.1330016 0.6584819 0.5301262
v 0.2565258 0.6014864 0.4309716
v 0.1327993 0.6445383 0.5417106
v 0.1284502 0.7817111 0.6284813
v 0.3985227 0.4095449 0.05782875
v 0.3897971 0.458847 0.04312999
v 0.3587715 0.5156685 0.275725
v 0.3632337 0.4802939 0.2952663
v 0.254572 0.626385 0.4146785
v 0.2565258 0.6014864 0.4309716
v 0.4492936 0.4202053 0.06344645
v 0.3985227 0.4095449 0.05782875
v 0.3632337 0.4802939 0.2952663
v 0.4009405 0.4910118 0.3060583
v 0.2565258 0.6014864 0.4309716
v 0.2791541 0.6133328 0.4463613
v 0.1327993 0.6445383 0.5417106
v 0.1488887 0.6497378 0.5482498
v 0.536359 0.5666773 0.07719164
v 0.5009186 0.5284515 0.07956949
v 0.5395296 0.488096 -0.1336761
v 0.5647278 0.5185122 -0.1240302
v 0.6000725 0.5343351 -0.2490471
v 0.6094409 0.5525844 -0.2274042
v 0.7153883 0.5709581 -0.2730995
v 0.7143871 0.577289 -0.2561414
v 0.7640535 0.6668773 -0.2759957
v 0.5739824 0.5325359 0.08909666
v 0.536359 0.5666773 0.07719164
v 0.5647278 0.5185122 -0.1240302
v 0.5947077 0.4917362 -0.1179153
v 0.6094409 0.5525844 -0.2274042
v 0.6281943 0.531506 -0.2177485
v 0.7143871 0.577289 -0.2561414
v 0.7269328 0.5652885 -0.2509206
v 0.538542 0.4943102 0.09147452
v 0.5739824 0.5325359 0.08909666
v 0.5947077 0.4917362 -0.1179153
v 0.5695094 0.46132 -0.1275612
v 0.6281943 0.531506 -0.2177485
v 0.6188258 0.5132567 -0.2393915
v 0.7269328 0.5652885 -0.2509206
v 0.7279338 0.5589575 -0.2678787
v 0.7640535 0.6668773 -0.2759957
v 0.5009186 0.5284515 0.07956949
v 0.538542 0.4943102 0.09147452
v 0.5695094 0.46132 -0.1275612
v 0.5395296 0.488096 -0.1336761
v 0.6188258 0.5132567 -0.2393915
v 0.6000725 0.5343351 -0.2490471
v 0.6000725 0.5343351 -0.2490471
v 0.6188258 0.5132567 -0.2393915
v 0.7279338 0.5589575 -0.2678787
v 0.7153883 0.5709581 -0.2730995
v 0.7640535 0.6668773 -0.2759957
v -0.2384053 0.5143319 0.1936281
v -0.2125418 0.4705225 0.2052341
v -0.2192498 0.5308856 0.4151958
v -0.2377418 0.5598454 0.3934584
v -0.2874333 0.6137106 0.4929115
v -0.2986037 0.628884 0.4697985
v -0.2837225 0.4894975 0.2008731
v -0.2384053 0.5143319 0.1936281
v -0.2377418 0.5598454 0.3934584
v -0.2725274 0.5388587 0.3950908
v -0.2986037 0.628884 0.4697985
v -0.325326 0.6165608 0.4746232
v -0.2997908 0.7307706 0.5484773
v -0.3162786 0.7260879 0.5543836
v -0.2844167 0.7457005 0.6437957
v -0.2578589 0.4456882 0.212479
v -0.2837225 0.4894975 0.2008731
v -0.2725274 0.5388587 0.3950908
v -0.2540354 0.509899 0.4168282
v -0.325326 0.6165608 0.4746232
v -0.3141557 0.6013874 0.4977362
v -0.2125418 0.4705225 0.2052341
v -0.2578589 0.4456882 0.212479
v -0.2540354 0.509899 0.4168282
v -0.2192498 0.5308856 0.4151958
v -0.3141557 0.6013874 0.4977362
v -0.2874333 0.6137106 0.4929115
v -0.3090777 0.7121041 0.5633982
v -0.2925898 0.7167871 0.557492
v -0.2844167 0.7457005 0.6437957
v -0.2986037 0.628884 0.4697985
v -0.2874333 0.6137106 0.4929115
v -0.2925898 0.7167871 0.557492
v -0.2997908 0.7307706 0.5484773
v -0.3141557 0.6013874 0.4977362
v -0.325326 0.6165608 0.4746232
v -0.3162786 0.7260879 0.5543836
v -0.3090777 0.7121041 0.5633982
v -0.2844167 0.7457005 0.6437957
v 0.3893062 0.4995658 0.2515815
v 0.4010615 0.5025746 0.272385
v 0.3496516 0.7075904 0.2685777
v 0.3412308 0.7025779 0.2525741
v 0.2737749 0.8771603 0.21852
v 0.2711916 0.8671561 0.209428
v 0.1346367 0.922699 0.08110449
v 0.1339709 0.9159193 0.07624601
v 0.01606687 1.000468 0.04717034
v 0.3690046 0.4950134 0.2637117
v 0.3893062 0.4995658 0.2515815
v 0.3412308 0.7025779 0.2525741
v 0.3254648 0.6988407 0.2620405
v 0.2711916 0.8671561 0.209428
v 0.2603274 0.8631841 0.2168854
v 0.3807599 0.4980223 0.2845151
v 0.3690046 0.4950134 0.2637117
v 0.3254648 0.6988407 0.2620405
v 0.3338855 0.703853 0.278044
v 0.2603274 0.8631841 0.2168854
v 0.2629108 0.8731881 0.2259775
v 0.1286644 0.9125034 0.0817399
v 0.1293302 0.919283 0.0865984
v 0.01606687 1.000468 0.04717034
v 0.4010615 0.5025746 0.272385
v 0.3807599 0.4980223 0.2845151
v 0.3338855 0.703853 0.278044
v 0.3496516 0.7075904 0.2685777
v 0.2629108 0.8731881 0.2259775
v 0.2737749 0.8771603 0.21852
v 0.1293302 0.919283 0.0865984
v 0.1346367 0.922699 0.08110449
v 0.01606687 1.000468 0.04717034
v 0.2603274 0.8631841 0.2168854
v 0.2711916 0.8671561 0.209428
v 0.1339709 0.9159193 0.07624601
v 0.1286644 0.9125034 0.0817399
v 0.3346036 0.6973655 0.2558427
v 0.3439777 0.6791113 0.2560579
v 0.5038819 0.7646459 0.2686513
v 0.4912656 0.774464 0.2683156
v 0.5321702 0.8953689 0.2608866
v 0.5205629 0.8936954 0.2609005
v 0.5321134 0.89586 0.2726035
v 0.503715 0.764978 0.284637
v 0.4690732 1.004134 0.2629219
v 0.4622824 1.001964 0.2628428
v 0.3334558 0.6970174 0.2763292
v 0.3346036 0.6973655 0.2558427
v 0.4912656 0.774464 0.2683156
v 0.4910987 0.7747961 0.2843013
v 0.5205629 0.8936954 0.2609005
v 0.5205061 0.8941864 0.2726174
v 0.3428298 0.6787634 0.2765443
v 0.3334558 0.6970174 0.2763292
v 0.4910987 0.7747961 0.2843013
v 0.503715 0.764978 0.284637
v 0.5205061 0.8941864 0.2726174
v 0.5321134 0.89586 0.2726035
v 0.4626168 1.000662 0.2698446
v 0.4694077 1.002833 0.2699237
v 0.3439777 0.6791113 0.2560579
v 0.3428298 0.6787634 0.2765443
v 0.503715 0.764978 0.284637
v 0.5038819 0.7646459 0.2686513
v 0.5205061 0.8941864 0.2726174
v 0.5205629 0.8936954 0.2609005
v 0.4622824 1.001964 0.2628428
v 0.4626168 1.000662 0.2698446
v 0.4547535 1.117914 0.3118858
v 0.5321702 0.8953689 0.2608866
v 0.5321134 0.89586 0.2726035
v 0.4694077 1.002833 0.2699237
v 0.4690732 1.004134 0.2629219
v 0.4547535 1.117914 0.3118858
v 0.5895417 0.5200616 -0.1614146
v 0.5784276 0.5028387 -0.1604223
v 0.5039665 0.5492547 -0.2542816
v 0.5163146 0.5582428 -0.2495468
v 0.5170797 0.6568058 -0.298554
v 0.5260113 0.6570318 -0.2909577
v 0.595379 0.7582292 -0.3576373
v 0.6006895 0.7580232 -0.3528847
v 0.6016951 0.8658568 -0.370759
v 0.6015599 0.511485 -0.1756672
v 0.5895417 0.5200616 -0.1614146
v 0.5163146 0.5582428 -0.2495468
v 0.5253325 0.5519764 -0.2611697
v 0.5260113 0.6570318 -0.2909577
v 0.5325961 0.6509489 -0.2985186
v 0.5904459 0.4942621 -0.1746749
v 0.6015599 0.511485 -0.1756672
v 0.5253325 0.5519764 -0.2611697
v 0.5129844 0.5429882 -0.2659044
v 0.5325961 0.6509489 -0.2985186
v 0.5236644 0.6507227 -0.306115
v 0.6049698 0.7551216 -0.3577931
v 0.5996593 0.7553278 -0.3625458
v 0.6016951 0.8658568 -0.370759
v 0.5784276 0.5028387 -0.1604223
v 0.5904459 0.4942621 -0.1746749
v 0.5129844 0.5429882 -0.2659044
v 0.5039665 0.5492547 -0.2542816
v 0.5039665 0.5492547 -0.2542816
v 0.5129844 0.5429882 -0.2659044
v 0.5236644 0.6507227 -0.306115
v 0.5170797 0.6568058 -0.298554
v 0.5996593 0.7553278 -0.3625458
v 0.595379 0.7582292 -0.3576373
v 0.6016951 0.8658568 -0.370759
v 0.5325961 0.6509489 -0.2985186
v 0.5260113 0.6570318 -0.2909577
v 0.6006895 0.7580232 -0.3528847
v 0.6049698 0.7551216 -0.3577931
v 0.6253534 0.6684367 0.05591981
v 0.6453196 0.6450267 0.05649452
v 0.7762294 0.766252 0.2362605
v 0.7587994 0.7821966 0.2321472
v 0.6087236 0.6547934 0.07792716
v 0.6253534 0.6684367 0.05591981
v 0.7587994 0.7821966 0.2321472
v 0.7434511 0.7686349 0.2446159
v 0.7491475 0.848449 0.3727636
v 0.7379727 0.8356799 0.3773835
v 0.6705797 0.9396169 0.4838295
v 0.6629659 0.9341781 0.4890023
v 0.6876816 1.071606 0.5471951
v 0.6286899 0.6313835 0.07850189
v 0.6087236 0.6547934 0.07792716
v 0.7434511 0.7686349 0.2446159
v 0.7608812 0.7526902 0.2487291
v 0.6453196 0.6450267 0.05649452
v 0.6286899 0.6313835 0.07850189
v 0.7608812 0.7526902 0.2487291
v 0.7762294 0.766252 0.2362605
v 0.7506388 0.8280351 0.3868911
v 0.7618136 0.8408041 0.3822711
v 0.6701809 0.9309059 0.4961817
v 0.6777947 0.9363447 0.4910089
v 0.6876816 1.071606 0.5471951
v 0.7587994 0.7821966 0.2321472
v 0.7762294 0.766252 0.2362605
v 0.7618136 0.8408041 0.3822711
v 0.7491475 0.848449 0.3727636
v 0.6777947 0.9363447 0.4910089
v 0.6705797 0.9396169 0.4838295
v 0.7608812 0.7526902 0.2487291
v 0.7434511 0.7686349 0.2446159
v 0.7379727 0.8356799 0.3773835
v 0.7506388 0.8280351 0.3868911
v 0.6629659 0.9341781 0.4890023
v 0.6701809 0.9309059 0.4961817
v 0.1289096 0.485835 -0.3719753
v 0.126891 0.460532 -0.3679996
v -0.02500113 0.4497704 -0.5371441
v -0.0176729 0.4681228 -0.5339403
v -0.09695956 0.5732059 -0.6250128
v -0.0865622 0.5786141 -0.6161683
v -0.0759142 0.7277296 -0.6466937
v -0.06953095 0.729644 -0.6407551
v -0.05732027 0.8470236 -0.7456654
v 0.147698 0.4816617 -0.388996
v 0.1289096 0.485835 -0.3719753
v -0.0176729 0.4681228 -0.5339403
v -0.003821302 0.4650577 -0.5480654
v -0.0865622 0.5786141 -0.6161683
v -0.07654323 0.5765907 -0.6267089
v -0.06953095 0.729644 -0.6407551
v -0.06335367 0.726507 -0.6463834
v -0.05732027 0.8470236 -0.7456654
v 0.1456794 0.4563587 -0.3850202
v 0.147698 0.4816617 -0.388996
v -0.003821302 0.4650577 -0.5480654
v -0.01114957 0.4467053 -0.5512694
v -0.07654323 0.5765907 -0.6267089
v -0.08694071 0.5711825 -0.6355535
v -0.06335367 0.726507 -0.6463834
v -0.06973693 0.7245926 -0.6523223
v -0.05732027 0.8470236 -0.7456654
v 0.126891 0.460532 -0.3679996
v 0.1456794 0.4563587 -0.3850202
v -0.01114957 0.4467053 -0.5512694
v -0.02500113 0.4497704 -0.5371441
v -0.02500113 0.4497704 -0.5371441
v -0.01114957 0.4467053 -0.5512694
v -0.08694071 0.5711825 -0.6355535
v -0.09695956 0.5732059 -0.6250128
v -0.09695956 0.5732059 -0.6250128
v -0.08694071 0.5711825 -0.6355535
v -0.06973693 0.7245926 -0.6523223
v -0.0759142 0.7277296 -0.6466937
v -0.05732027 0.8470236 -0.7456654
v -0.4236973 0.6649433 0.0816943
v -0.4132845 0.6478391 0.07398825
v -0.4123447 0.7200119 -0.07685665
v -0.420291 0.7304691 -0.06651251
v -0.4237943 0.8154676 -0.1265782
v -0.4297939 0.8217462 -0.1179222
v -0.4049374 0.6744292 0.0859891
v -0.4236973 0.6649433 0.0816943
v -0.420291 0.7304691 -0.06651251
v -0.4056212 0.7369608 -0.0618058
v -0.4297939 0.8217462 -0.1179222
v -0.4195625 0.8222313 -0.1111825
v -0.3849608 0.8716114 -0.1431181
v -0.3791651 0.8707011 -0.1385192
v -0.3662835 1.005892 -0.1691596
v -0.3945246 0.657325 0.07828305
v -0.4049374 0.6744292 0.0859891
v -0.4056212 0.7369608 -0.0618058
v -0.3976748 0.7265036 -0.07214995
v -0.4195625 0.8222313 -0.1111825
v -0.4135628 0.8159527 -0.1198384
v -0.4132845 0.6478391 0.07398825
v -0.3945246 0.657325 0.07828305
v -0.3976748 0.7265036 -0.07214995
v -0.4123447 0.7200119 -0.07685665
v -0.4135628 0.8159527 -0.1198384
v -0.4237943 0.8154676 -0.1265782
v -0.3753312 0.8674132 -0.1440018
v -0.3811269 0.8683235 -0.1486006
v -0.3662835 1.005892 -0.1691596
v -0.4297939 0.8217462 -0.1179222
v -0.4237943 0.8154676 -0.1265782
v -0.3811269 0.8683235 -0.1486006
v -0.3849608 0.8716114 -0.1431181
v -0.3662835 1.005892 -0.1691596
v -0.4135628 0.8159527 -0.1198384
v -0.4195625 0.8222313 -0.1111825
v -0.3791651 0.8707011 -0.1385192
v -0.3753312 0.8674132 -0.1440018
v -0.2577656 0.5506582 0.4235763
v -0.2618894 0.535462 0.4090011
v -0.4163659 0.5972692 0.3919615
v -0.4119823 0.6084642 0.4035784
v -0.4589342 0.6679401 0.3553204
v -0.4527746 0.6705694 0.3655912
v -0.4036856 0.7891171 0.3629292
v -0.4014303 0.787089 0.3697386
v -0.2511817 0.5638348 0.4079753
v -0.2577656 0.5506582 0.4235763
v -0.4119823 0.6084642 0.4035784
v -0.402072 0.6160949 0.3924852
v -0.4527746 0.6705694 0.3655912
v -0.4422001 0.6698987 0.3594211
v -0.2553055 0.5486387 0.3934002
v -0.2511817 0.5638348 0.4079753
v -0.402072 0.6160949 0.3924852
v -0.4064556 0.6048998 0.3808683
v -0.4422001 0.6698987 0.3594211
v -0.4483596 0.6672695 0.3491503
v -0.3969416 0.781958 0.3667238
v -0.3991968 0.7839859 0.3599143
v -0.2618894 0.535462 0.4090011
v -0.2553055 0.5486387 0.3934002
v -0.4064556 0.6048998 0.3808683
v -0.4163659 0.5972692 0.3919615
v -0.4483596 0.6672695 0.3491503
v -0.4589342 0.6679401 0.3553204
v -0.4422001 0.6698987 0.3594211
v -0.4527746 0.6705694 0.3655912
v -0.4014303 0.787089 0.3697386
v -0.3969416 0.781958 0.3667238
v -0.2834503 0.8228682 0.3475937
v -0.3991968 0.7839859 0.3599143
v -0.4589342 0.6679401 0.3553204
v -0.4483596 0.6672695 0.3491503
v -0.3991968 0.7839859 0.3599143
v -0.4036856 0.7891171 0.3629292
v -0.2834503 0.8228682 0.3475937
v -0.4203655 0.6957044 0.06970672
v -0.418231 0.6769334 0.08525199
v -0.3340456 0.7836839 0.1968498
v -0.3368091 0.7953598 0.1842902
v -0.268933 0.9129266 0.2647344
v -0.2726968 0.9148371 0.2551971
v -0.2821004 1.074344 0.2229698
v -0.4414725 0.7020829 0.08030702
v -0.4203655 0.6957044 0.06970672
v -0.3368091 0.7953598 0.1842902
v -0.3518834 0.7997707 0.1917074
v -0.2726968 0.9148371 0.2551971
v -0.2821575 0.9164934 0.2592625
v -0.2821004 1.074344 0.2229698
v -0.4393381 0.683312 0.09585231
v -0.4414725 0.7020829 0.08030702
v -0.3518834 0.7997707 0.1917074
v -0.3491199 0.7880948 0.2042671
v -0.2821575 0.9164934 0.2592625
v -0.2783937 0.9145828 0.2687997
v -0.2821004 1.074344 0.2229698
v -0.418231 0.6769334 0.08525199
v -0.4393381 0.683312 0.09585231
v -0.3491199 0.7880948 0.2042671
v -0.3340456 0.7836839 0.1968498
v -0.2783937 0.9145828 0.2687997
v -0.268933 0.9129266 0.2647344
v 0.1841431 0.6271926 -0.5062714
v 0.2054659 0.6152957 -0.5078093
v 0.2833315 0.7559997 -0.4585387
v 0.2676286 0.7634011 -0.4579536
v 0.3149221 0.8473263 -0.3556207
v 0.3053085 0.8513677 -0.3554705
v 0.3712784 0.9837599 -0.3740667
v 0.1822193 0.6207053 -0.4827601
v 0.1841431 0.6271926 -0.5062714
v 0.2676286 0.7634011 -0.4579536
v 0.2643153 0.7551903 -0.44301
v 0.3053085 0.8513677 -0.3554705
v 0.3041759 0.8483054 -0.3455652
v 0.3712784 0.9837599 -0.3740667
v 0.2035421 0.6088083 -0.4842981
v 0.1822193 0.6207053 -0.4827601
v 0.2643153 0.7551903 -0.44301
v 0.2800183 0.7477889 -0.443595
v 0.3041759 0.8483054 -0.3455652
v 0.3137895 0.844264 -0.3457154
v 0.3712784 0.9837599 -0.3740667
v 0.2054659 0.6152957 -0.5078093
v 0.2035421 0.6088083 -0.4842981
v 0.2800183 0.7477889 -0.443595
v 0.2833315 0.7559997 -0.4585387
v 0.3137895 0.844264 -0.3457154
v 0.3149221 0.8473263 -0.3556207
v 0.3712784 0.9837599 -0.3740667
v 0.1339055 0.3729592 -0.1577896
v 0.1030602 0.3481027 -0.1740339
v -0.02688095 0.4947867 -0.1417869
v -0.001913288 0.5156354 -0.1284449
v -0.1182789 0.6796135 -0.2567384
v -0.09433588 0.6876566 -0.2445707
v -0.1238825 0.914698 -0.2061666
v -0.1069931 0.9069024 -0.1968617
v 0.03650256 1.066757 -0.2142704
v 0.04546729 1.059636 -0.2087918
v 0.130521 1.216526 -0.1986579
v 0.1411521 0.3893723 -0.1966644
v 0.1339055 0.3729592 -0.1577896
v -0.001913288 0.5156354 -0.1284449
v 0.01223459 0.519165 -0.1604361
v -0.09433588 0.6876566 -0.2445707
v -0.08151107 0.687188 -0.269497
v -0.1069931 0.9069024 -0.1968617
v -0.09755824 0.9053013 -0.2153285
v 0.1103068 0.3645158 -0.2129088
v 0.1411521 0.3893723 -0.1966644
v 0.01223459 0.519165 -0.1604361
v -0.0127331 0.4983163 -0.1737781
v -0.08151107 0.687188 -0.269497
v -0.1054541 0.679145 -0.2816647
v -0.09755824 0.9053013 -0.2153285
v -0.1144476 0.9130968 -0.2246334
v 0.05008113 1.056644 -0.220231
v 0.04111636 1.063765 -0.2257096
v 0.130521 1.216526 -0.1986579
v 0.1030602 0.3481027 -0.1740339
v 0.1103068 0.3645158 -0.2129088
v -0.0127331 0.4983163 -0.1737781
v -0.02688095 0.4947867 -0.1417869
v -0.1054541 0.679145 -0.2816647
v -0.1182789 0.6796135 -0.2567384
v -0.1182789 0.6796135 -0.2567384
v -0.1054541 0.679145 -0.2816647
v -0.1144476 0.9130968 -0.2246334
v -0.1238825 0.914698 -0.2061666
v 0.04111636 1.063765 -0.2257096
v 0.03650256 1.066757 -0.2142704
v 0.130521 1.216526 -0.1986579
v -0.09755824 0.9053013 -0.2153285
v -0.1069931 0.9069024 -0.1968617
v 0.04546729 1.059636 -0.2087918
v 0.05008113 1.056644 -0.220231
v 0.130521 1.216526 -0.1986579
v -0.1130831 0.824688 -0.22039
v -0.1124148 0.8153316 -0.2311889
v -0.2182315 0.910338 -0.315902
v -0.2182668 0.9152482 -0.3093668
v -0.1022816 0.8320956 -0.2261396
v -0.1130831 0.824688 -0.22039
v -0.2182668 0.9152482 -0.3093668
v -0.2106786 0.9176977 -0.3111662
v -0.2182557 0.9836177 -0.3575714
v -0.2106433 0.9127876 -0.3177014
v -0.1016133 0.8227393 -0.2369386
v -0.1022816 0.8320956 -0.2261396
v -0.2106786 0.9176977 -0.3111662
v -0.2106433 0.9127876 -0.3177014
v -0.1124148 0.8153316 -0.2311889
v -0.2182315 0.910338 -0.315902
v -0.2182557 0.9836177 -0.3575714
v 0.681304 0.7636387 0.002228016
v 0.689184 0.7536322 -0.01586288
v 0.5876551 0.8880644 -0.128583
v 0.5834622 0.8932618 -0.1178469
v 0.5679397 1.038029 -0.1906089
v 0.6986003 0.777435 0.002130531
v 0.681304 0.7636387 0.002228016
v 0.5834622 0.8932618 -0.1178469
v 0.5946015 0.899038 -0.1162928
v 0.5679397 1.038029 -0.1906089
v 0.7064801 0.7674284 -0.01596027
v 0.6986003 0.777435 0.002130531
v 0.5946015 0.899038 -0.1162928
v 0.5987943 0.8938406 -0.127029
v 0.5679397 1.038029 -0.1906089
v 0.689184 0.7536322 -0.01586288
v 0.7064801 0.7674284 -0.01596027
v 0.5987943 0.8938406 -0.127029
v 0.5876551 0.8880644 -0.128583
v 0.5679397 1.038029 -0.1906089
v 0.7672688 0.7666938 0.2317914
v 0.7672619 0.7666559 0.2508634
v 0.8392894 0.8728799 0.2469227
v 0.8398891 0.8734561 0.2360555
v 1.028514 0.9116402 0.2684164
v 0.7518733 0.7779509 0.2318082
v 0.7672688 0.7666938 0.2317914
v 0.8398891 0.8734561 0.2360555
v 0.8340992 0.8826884 0.2362254
v 1.028514 0.9116402 0.2684164
v 0.7518663 0.7779128 0.2508802
v 0.7518733 0.7779509 0.2318082
v 0.8340992 0.8826884 0.2362254
v 0.8334995 0.8821123 0.2470927
v 0.7672619 0.7666559 0.2508634
v 0.7518663 0.7779128 0.2508802
v 0.8334995 0.8821123 0.2470927
v 0.8392894 0.8728799 0.2469227
v 1.028514 0.9116402 0.2684164
v -0.5527052 0.8014299 0.08000258
v -0.5641884 0.8124835 0.09047611
v -0.522339 0.8996989 0.03635999
v -0.5148073 0.8966141 0.02911112
v -0.5316018 0.9932168 0.02577987
v -0.5660959 0.8003457 0.06646524
v -0.5527052 0.8014299 0.08000258
v -0.5148073 0.8966141 0.02911112
v -0.5225126 0.8958178 0.02144404
v -0.5316018 0.9932168 0.02577987
v -0.5775791 0.8113993 0.07693877
v -0.5660959 0.8003457 0.06646524
v -0.5225126 0.8958178 0.02144404
v -0.5300443 0.8989026 0.02869295
v -0.5316018 0.9932168 0.02577987
v -0.5641884 0.8124835 0.09047611
v -0.5775791 0.8113993 0.07693877
v -0.5300443 0.8989026 0.02869295
v -0.522339 0.8996989 0.03635999
v -0.5316018 0.9932168 0.02577987
v -0.113568 0.7490451 -0.2505435
v -0.09664345 0.7486857 -0.2448732
v -0.06158289 0.8053882 -0.3580208
v -0.07130404 0.8054923 -0.3611152
v -0.1155413 0.7653812 -0.2436182
v -0.113568 0.7490451 -0.2505435
v -0.07130404 0.8054923 -0.3611152
v -0.07333389 0.8129772 -0.3544862
v -0.05256301 0.9066355 -0.4062603
v -0.0986167 0.7650219 -0.2379479
v -0.1155413 0.7653812 -0.2436182
v -0.07333389 0.8129772 -0.3544862
v -0.06361271 0.812873 -0.3513919
v -0.09664345 0.7486857 -0.2448732
v -0.06158289 0.8053882 -0.3580208
v -0.05256301 0.9066355 -0.4062603
vn 0.3753907 0.1651231 0.9120396
vn -0.1492624 -0.7594723 0.6331845
vn -0.8024976 0.1732202 0.5709575
vn -0.8341362 0.2681356 0.4819958
vn -0.3033739 -0.4652357 -0.8315768
vn -0.4523962 0.6558421 -0.6043252
vn -0.7541817 0.2297329 -0.6151689
vn 0.5663013 0.8035309 -0.1834148
vn -0.08149308 0.8160657 0.5721849
vn 0.4427384 -0.4461709 0.7777624
vn -0.675813 -0.7045681 0.216473
vn -0.08149308 0.8160657 0.5721849
vn 0.5768616 -0.2503361 0.7775362
vn -0.4233943 0.7673267 0.4816087
vn 0.3981011 0.9081381 -0.1296178
vn 0.3060822 0.7991309 -0.5174007
vn 0.9719505 -0.1935352 0.1336275
vn 0.2136001 0.263946 0.9405889
vn -0.4864334 -0.8725249 -0.04563775
vn 0.3445105 -0.3166383 -0.8837719
vn -0.7901584 0.5661216 -0.2348533
vn -0.7256364 -0.06307187 -0.6851816
vn 0.5322249 0.3575492 -0.7673951
vn -0.08896489 0.9268274 0.3647963
vn 0.7007579 0.1210798 0.7030491
vn -0.7235112 -0.3184707 0.6124607
vn -0.08896489 0.9268274 0.3647963
vn 0.9527327 -0.2944968 -0.07464568
vn 0.2459844 0.2560397 0.9348451
vn 0.01431641 0.992817 -0.1187829
vn -0.1234118 0.5879694 -0.7994132
vn 0.9590878 0.09538195 0.2665571
vn 0.1156468 0.9159096 0.3843637
vn -0.1575738 -0.564351 0.810357
vn -0.9866687 -0.1528913 -0.05575847
vn 0.1156468 0.9159096 0.3843637
vn 0.9228907 -0.369323 -0.1089646
vn 0.316208 0.2136172 0.924327
vn 0.09979723 0.9779888 -0.183244
vn -0.2560656 0.3982091 0.8808292
vn -0.6477671 0.717459 -0.2562236
vn 0.9432636 0.3012932 -0.139557
vn 0.8694429 -0.2101271 0.4471193
vn -0.2488848 -0.0208557 0.9683086
vn -0.03966863 0.970734 -0.2368584
vn -0.7448761 0.1698314 0.6452262
vn -0.7104475 -0.5897347 -0.3840278
vn -0.04699465 0.8440285 -0.5342355
vn -0.4220472 0.6552743 0.6264917
vn -0.3375616 0.6981688 -0.6313578
vn 0.9754045 0.1730591 0.136516
vn -0.4414538 -0.5270888 -0.7261514
vn 0.77612 -0.5352001 -0.3334645
vn 0.1350839 0.8811876 -0.4530571
vn 0.646636 0.4783295 0.594191
vn -0.8570516 0.5007407 0.1213307
vn 0.1350839 0.8811876 -0.4530571
vn 0.7302439 0.08899572 0.6773653
vn -0.2168481 -0.03653702 0.9755214
vn -0.2281654 0.06440745 0.9714897
vn 0.7298639 0.03777623 0.6825479
vn 0.9335385 0.1599471 -0.3208158
vn -0.1567914 0.3285503 0.9313813
vn 0.9453439 0.02501119 -0.3251145
vn 0.6477794 -0.1687132 0.7429117
vn 0.827506 -0.4753736 -0.2987537
vn -0.2035082 0.3378218 0.9189456
vn 0.3127872 -0.6511956 0.6914538
vn 0.1569652 0.09967332 -0.9825615
vn 0.9335385 0.1599471 -0.3208158
vn 0.9453439 0.02501119 -0.3251145
vn 0.1524783 0.03819379 -0.9875686
vn 0.827506 -0.4753736 -0.2987537
vn 0.02721708 -0.1463449 -0.9888592
vn 0.4657103 -0.8113558 -0.3532927
vn 0.1788667 -0.140206 -0.9738321
vn 0.5840521 -0.7953091 -0.1623778
vn 0.3980275 -0.1977794 -0.8957999
vn -0.2355345 0.6525014 -0.7202537
vn -0.1860621 0.6517586 -0.7352494
vn 0.8281949 -0.5441262 -0.1342386
vn 0.1645491 -0.3929658 -0.9047107
vn 0.6428501 -0.709958 -0.2875822
vn -0.0414016 -0.3876267 -0.9208862
vn 0.8855683 0.4539715 -0.09838071
vn -0.7747159 -0.02648645 -0.6317546
vn 0.1569652 0.09967332 -0.9825615
vn 0.1524783 0.03819379 -0.9875686
vn -0.7816283 0.06612163 -0.6202299
vn -0.940641 -0.09116042 0.3269316
vn 0.02721708 -0.1463449 -0.9888592
vn -0.9416332 0.07640817 0.3278548
vn -0.7061629 0.3501971 -0.6153828
vn 0.1788667 -0.140206 -0.9738321
vn -0.7767392 0.5636889 0.2809464
vn -0.2355345 0.6525014 -0.7202537
vn -0.4237507 0.8945634 0.142097
vn -0.2168481 -0.03653702 0.9755214
vn -0.940641 -0.09116042 0.3269316
vn -0.9416332 0.07640817 0.3278548
vn -0.2281654 0.06440745 0.9714897
vn -0.7767392 0.5636889 0.2809464
vn -0.1567914 0.3285503 0.9313813
vn -0.4237507 0.8945634 0.142097
vn -0.2035082 0.3378218 0.9189456
vn -0.5405282 0.7773697 0.3217539
vn -0.2516899 0.05242978 0.9663867
vn 0.3127872 -0.6511956 0.6914538
vn 0.2698493 -0.6604213 0.7007319
vn -0.7119442 0.6254504 0.3192918
vn -0.005402962 0.3855998 0.9226503
vn -0.6337402 0.7717534 0.05263177
vn -0.04314341 0.6055253 0.7946558
vn 0.8855683 0.4539715 -0.09838071
vn 0.6819389 -0.1848032 0.7076772
vn 0.827506 -0.4753736 -0.2987537
vn 0.6477794 -0.1687132 0.7429117
vn 0.3127872 -0.6511956 0.6914538
vn 0.4657103 -0.8113558 -0.3532927
vn 0.2698493 -0.6604213 0.7007319
vn 0.5840521 -0.7953091 -0.1623778
vn 0.7021672 -0.1598107 0.6938457
vn 0.8281949 -0.5441262 -0.1342386
vn -0.005402962 0.3855998 0.9226503
vn -0.2516899 0.05242978 0.9663867
vn 0.6819389 -0.1848032 0.7076772
vn 0.6428501 -0.709958 -0.2875822
vn 0.8855683 0.4539715 -0.09838071
vn -0.4237507 0.8945634 0.142097
vn -0.2355345 0.6525014 -0.7202537
vn -0.1860621 0.6517586 -0.7352494
vn -0.5405282 0.7773697 0.3217539
vn -0.1860621 0.6517586 -0.7352494
vn 0.3980275 -0.1977794 -0.8957999
vn 0.1645491 -0.3929658 -0.9047107
vn -0.7100977 0.2680041 -0.6511031
vn -0.5405282 0.7773697 0.3217539
vn -0.0414016 -0.3876267 -0.9208862
vn -0.7119442 0.6254504 0.3192918
vn -0.6138919 0.2960124 -0.7317878
vn 0.8855683 0.4539715 -0.09838071
vn -0.6337402 0.7717534 0.05263177
vn 0.7021672 -0.1598107 0.6938457
vn -0.005402962 0.3855998 0.9226503
vn -0.04314341 0.6055253 0.7946558
vn 0.6819389 -0.1848032 0.7076772
vn 0.739863 0.5794228 0.3418656
vn 0.5381362 -0.3091638 0.7841091
vn 0.3256981 -0.1765643 0.9288411
vn 0.7781985 0.4692126 0.4174284
vn 0.167504 0.8953626 -0.4126357
vn -0.02208383 0.4100475 0.9117968
vn 0.4334421 0.7031197 -0.5636938
vn 0.6473374 0.6827593 0.3388128
vn -0.1083042 0.496489 0.8612601
vn 0.7376829 0.3723973 -0.5631557
vn 0.6320204 0.7614764 0.143889
vn 0.1518544 0.2813696 0.947508
vn 0.6602046 0.2569338 -0.7057725
vn 0.6071315 0.7648717 0.2153198
vn 0.3753907 0.1651231 0.9120396
vn 0.4425219 0.549933 -0.7083418
vn 0.4156021 0.8846095 0.2115202
vn -0.8024976 0.1732202 0.5709575
vn 0.02864708 0.7752981 -0.6309455
vn -0.5812253 0.3493352 -0.7349436
vn 0.167504 0.8953626 -0.4126357
vn 0.4334421 0.7031197 -0.5636938
vn -0.4783757 0.1158778 -0.8704764
vn -0.7848822 -0.5408996 -0.3023039
vn -0.8234055 -0.5321198 -0.197109
vn 0.01937887 -0.3379407 -0.9409679
vn -0.7695152 -0.616407 -0.1669992
vn -0.2188589 -0.8589609 0.4629115
vn -0.7848822 -0.5408996 -0.3023039
vn -0.8234055 -0.5321198 -0.197109
vn -0.4191647 -0.6421739 0.6418049
vn -0.7695152 -0.616407 -0.1669992
vn -0.6829619 -0.183771 0.7069592
vn -0.6174237 -0.7201232 -0.3165607
vn -0.7654024 -0.301372 0.5686247
vn 0.06009069 -0.439729 -0.896118
vn 0.01937887 -0.3379407 -0.9409679
vn -0.668806 -0.6758043 -0.3098179
vn -0.5187629 -0.4695624 0.7144201
vn -0.5457569 -0.7615807 -0.3494914
vn -0.1492624 -0.7594723 0.6331845
vn -0.8024976 0.1732202 0.5709575
vn 0.5381362 -0.3091638 0.7841091
vn -0.2188589 -0.8589609 0.4629115
vn -0.4191647 -0.6421739 0.6418049
vn 0.3256981 -0.1765643 0.9288411
vn -0.4783757 0.1158778 -0.8704764
vn 0.4334421 0.7031197 -0.5636938
vn 0.7376829 0.3723973 -0.5631557
vn 0.01937887 -0.3379407 -0.9409679
vn 0.6602046 0.2569338 -0.7057725
vn 0.06009069 -0.439729 -0.896118
vn 0.4425219 0.549933 -0.7083418
vn -0.1625617 -0.136973 -0.9771449
vn 0.02864708 0.7752981 -0.6309455
vn -0.4215174 0.01608973 -0.9066775
vn 0.3256981 -0.1765643 0.9288411
vn -0.4191647 -0.6421739 0.6418049
vn -0.6829619 -0.183771 0.7069592
vn -0.02208383 0.4100475 0.9117968
vn -0.7654024 -0.301372 0.5686247
vn -0.1083042 0.496489 0.8612601
vn -0.5187629 -0.4695624 0.7144201
vn 0.1518544 0.2813696 0.947508
vn -0.1492624 -0.7594723 0.6331845
vn 0.3753907 0.1651231 0.9120396
vn -0.6174237 -0.7201232 -0.3165607
vn 0.06009069 -0.439729 -0.896118
vn -0.1625617 -0.136973 -0.9771449
vn -0.668806 -0.6758043 -0.3098179
vn -0.4215174 0.01608973 -0.9066775
vn -0.5457569 -0.7615807 -0.3494914
vn -0.8024976 0.1732202 0.5709575
vn 0.02864708 0.7752981 -0.6309455
vn -0.8614697 0.4798947 0.1660452
vn -0.4996964 -0.8584543 -0.1155836
vn -0.5257301 -0.7370684 -0.4246624
vn -0.9172184 0.3924564 0.06847131
vn 0.4881677 0.8721333 0.03279991
vn -0.8614697 0.4798947 0.1660452
vn -0.9172184 0.3924564 0.06847131
vn 0.4840311 0.7951742 0.3652559
vn 0.8519889 -0.4598705 -0.2502681
vn 0.7697632 -0.5860566 -0.2529867
vn 0.4919703 0.4438251 0.7489889
vn 0.8496342 -0.4271343 -0.3093185
vn 0.4765797 0.5749695 0.6650428
vn 0.9291192 0.004022392 -0.3697584
vn -0.4523962 0.6558421 -0.6043252
vn -0.4996964 -0.8584543 -0.1155836
vn 0.8519889 -0.4598705 -0.2502681
vn 0.7697632 -0.5860566 -0.2529867
vn -0.5257301 -0.7370684 -0.4246624
vn -0.9172184 0.3924564 0.06847131
vn -0.5257301 -0.7370684 -0.4246624
vn -0.36096 -0.427013 -0.8290765
vn -0.8984621 0.4226252 0.1189699
vn -0.3033739 -0.4652357 -0.8315768
vn -0.8341362 0.2681356 0.4819958
vn 0.4840311 0.7951742 0.3652559
vn -0.9172184 0.3924564 0.06847131
vn -0.8984621 0.4226252 0.1189699
vn 0.4919703 0.4438251 0.7489889
vn -0.8341362 0.2681356 0.4819958
vn 0.4765797 0.5749695 0.6650428
vn -0.4523962 0.6558421 -0.6043252
vn -0.5257301 -0.7370684 -0.4246624
vn 0.7697632 -0.5860566 -0.2529867
vn 0.8496342 -0.4271343 -0.3093185
vn -0.36096 -0.427013 -0.8290765
vn 0.9291192 0.004022392 -0.3697584
vn -0.3033739 -0.4652357 -0.8315768
vn -0.4523962 0.6558421 -0.6043252
vn 0.5618844 0.8223135 -0.08992501
vn 0.8003066 -0.5145841 0.3077543
vn 0.7116642 -0.4310822 0.5547091
vn 0.6555504 0.7533448 -0.05220522
vn 0.6009982 -0.2071721 0.7719332
vn 0.4630887 0.8862863 0.006746052
vn 0.4427384 -0.4461709 0.7777624
vn 0.5663013 0.8035309 -0.1834148
vn -0.08149308 0.8160657 0.5721849
vn -0.8110715 0.5326922 -0.241665
vn 0.5618844 0.8223135 -0.08992501
vn 0.6555504 0.7533448 -0.05220522
vn -0.7546698 0.4341585 -0.4919145
vn 0.4630887 0.8862863 0.006746052
vn -0.5673847 0.4005985 -0.719441
vn 0.5663013 0.8035309 -0.1834148
vn -0.7541817 0.2297329 -0.6151689
vn -0.5088671 -0.85861 0.06199237
vn -0.675813 -0.7045681 0.216473
vn -0.08149308 0.8160657 0.5721849
vn -0.5765467 -0.8020278 0.1560298
vn -0.8110715 0.5326922 -0.241665
vn -0.7546698 0.4341585 -0.4919145
vn -0.5021098 -0.8314795 0.2377555
vn -0.5673847 0.4005985 -0.719441
vn -0.5088671 -0.85861 0.06199237
vn 0.8003066 -0.5145841 0.3077543
vn -0.5765467 -0.8020278 0.1560298
vn -0.5021098 -0.8314795 0.2377555
vn 0.7116642 -0.4310822 0.5547091
vn -0.5088671 -0.85861 0.06199237
vn 0.6009982 -0.2071721 0.7719332
vn -0.675813 -0.7045681 0.216473
vn 0.4427384 -0.4461709 0.7777624
vn -0.02155573 0.9722205 -0.2330723
vn -0.9837426 -0.06177695 -0.168624
vn -0.930542 -0.168488 -0.3251205
vn -0.150894 0.9882703 -0.02351291
vn -0.6354489 0.1093508 -0.7643607
vn -0.2755692 0.9527698 0.1276376
vn -0.2679411 0.1258972 -0.9551741
vn -0.4233943 0.7673267 0.4816087
vn 0.3981011 0.9081381 -0.1296178
vn 0.9948075 0.05082626 0.08817433
vn -0.02155573 0.9722205 -0.2330723
vn -0.150894 0.9882703 -0.02351291
vn 0.9753715 -0.0479662 0.2152899
vn -0.2755692 0.9527698 0.1276376
vn 0.7300786 -0.07084459 0.679681
vn -0.4233943 0.7673267 0.4816087
vn 0.5768616 -0.2503361 0.7775362
vn 0.03508991 -0.9873483 0.1546352
vn 0.9948075 0.05082626 0.08817433
vn 0.9753715 -0.0479662 0.2152899
vn 0.05127958 -0.9922568 -0.1131239
vn 0.7300786 -0.07084459 0.679681
vn 0.1250469 -0.8770702 -0.4638006
vn 0.5768616 -0.2503361 0.7775362
vn 0.6142992 -0.6743232 -0.4097862
vn 0.3981011 0.9081381 -0.1296178
vn -0.9837426 -0.06177695 -0.168624
vn 0.03508991 -0.9873483 0.1546352
vn 0.05127958 -0.9922568 -0.1131239
vn -0.930542 -0.168488 -0.3251205
vn 0.1250469 -0.8770702 -0.4638006
vn -0.6354489 0.1093508 -0.7643607
vn -0.6354489 0.1093508 -0.7643607
vn 0.1250469 -0.8770702 -0.4638006
vn 0.6142992 -0.6743232 -0.4097862
vn -0.2679411 0.1258972 -0.9551741
vn 0.3981011 0.9081381 -0.1296178
vn 0.2596082 0.9419598 -0.212874
vn 0.9641017 -0.2460999 0.09971403
vn 0.9006757 -0.1624246 0.4029909
vn 0.4054286 0.8615667 -0.3055005
vn 0.8407072 -0.08481644 0.5348061
vn 0.2601103 0.7058366 -0.658891
vn -0.9623773 0.2711474 -0.01757748
vn 0.2596082 0.9419598 -0.212874
vn 0.4054286 0.8615667 -0.3055005
vn -0.9637521 0.07585778 -0.2557879
vn 0.2601103 0.7058366 -0.658891
vn -0.9328024 0.0667242 -0.3541577
vn 0.3060822 0.7991309 -0.5174007
vn -0.8612128 0.4926941 -0.1247598
vn 0.2136001 0.263946 0.9405889
vn -0.2642537 -0.917666 0.2967473
vn -0.9623773 0.2711474 -0.01757748
vn -0.9637521 0.07585778 -0.2557879
vn -0.1710149 -0.8569297 0.4862359
vn -0.9328024 0.0667242 -0.3541577
vn -0.4491312 -0.6047763 0.6576678
vn 0.9641017 -0.2460999 0.09971403
vn -0.2642537 -0.917666 0.2967473
vn -0.1710149 -0.8569297 0.4862359
vn 0.9006757 -0.1624246 0.4029909
vn -0.4491312 -0.6047763 0.6576678
vn 0.8407072 -0.08481644 0.5348061
vn -0.4729467 -0.6039605 0.6415242
vn 0.9719505 -0.1935352 0.1336275
vn 0.2136001 0.263946 0.9405889
vn 0.2601103 0.7058366 -0.658891
vn 0.8407072 -0.08481644 0.5348061
vn 0.9719505 -0.1935352 0.1336275
vn 0.3060822 0.7991309 -0.5174007
vn -0.4491312 -0.6047763 0.6576678
vn -0.9328024 0.0667242 -0.3541577
vn -0.8612128 0.4926941 -0.1247598
vn -0.4729467 -0.6039605 0.6415242
vn 0.2136001 0.263946 0.9405889
vn 0.2461798 0.06302033 -0.9671732
vn 0.9369914 0.2396968 0.2541508
vn 0.8932849 0.3490851 0.2831638
vn 0.3192447 -0.01040582 -0.9476152
vn 0.6402863 0.7532158 0.1506629
vn 0.5360284 -0.1513684 -0.8305185
vn 0.5313068 0.8266019 -0.1855868
vn 0.3445105 -0.3166383 -0.8837719
vn -0.7901584 0.5661216 -0.2348533
vn -0.9450566 -0.2040999 -0.255365
vn 0.2461798 0.06302033 -0.9671732
vn 0.3192447 -0.01040582 -0.9476152
vn -0.9287105 -0.3085266 -0.2056897
vn 0.5360284 -0.1513684 -0.8305185
vn -0.7519349 -0.6590377 0.01622268
vn -0.2552781 -0.02763074 0.9664728
vn -0.9450566 -0.2040999 -0.255365
vn -0.9287105 -0.3085266 -0.2056897
vn -0.2398468 0.08026084 0.9674873
vn -0.7519349 -0.6590377 0.01622268
vn -0.3391671 0.409977 0.8466904
vn -0.4864334 -0.8725249 -0.04563775
vn -0.4372274 0.259719 0.8610333
vn -0.7901584 0.5661216 -0.2348533
vn 0.9369914 0.2396968 0.2541508
vn -0.2552781 -0.02763074 0.9664728
vn -0.2398468 0.08026084 0.9674873
vn 0.8932849 0.3490851 0.2831638
vn -0.3391671 0.409977 0.8466904
vn 0.6402863 0.7532158 0.1506629
vn -0.4372274 0.259719 0.8610333
vn 0.5313068 0.8266019 -0.1855868
vn -0.7901584 0.5661216 -0.2348533
vn -0.7519349 -0.6590377 0.01622268
vn 0.5360284 -0.1513684 -0.8305185
vn 0.3445105 -0.3166383 -0.8837719
vn -0.4864334 -0.8725249 -0.04563775
vn -0.2655989 0.6519202 -0.7102516
vn 0.3809206 -0.6071534 -0.6973265
vn 0.6436865 -0.4849493 -0.5920237
vn -0.4402869 0.3642406 -0.820656
vn 0.7618452 0.1043869 -0.6392927
vn -0.5872946 -0.08923281 -0.8044392
vn 0.7644204 0.1528167 0.6263453
vn 0.6094489 -0.4460554 0.6554438
vn 0.5322249 0.3575492 -0.7673951
vn -0.7256364 -0.06307187 -0.6851816
vn -0.34437 0.6282305 0.6976646
vn -0.2655989 0.6519202 -0.7102516
vn -0.4402869 0.3642406 -0.820656
vn -0.4451626 0.3835383 0.809153
vn -0.5872946 -0.08923281 -0.8044392
vn -0.6103684 -0.03125507 0.7915008
vn 0.3017964 -0.6316469 0.7141017
vn -0.34437 0.6282305 0.6976646
vn -0.4451626 0.3835383 0.809153
vn 0.6094489 -0.4460554 0.6554438
vn -0.6103684 -0.03125507 0.7915008
vn 0.7644204 0.1528167 0.6263453
vn -0.7235112 -0.3184707 0.6124607
vn 0.7007579 0.1210798 0.7030491
vn 0.3809206 -0.6071534 -0.6973265
vn 0.3017964 -0.6316469 0.7141017
vn 0.6094489 -0.4460554 0.6554438
vn 0.6436865 -0.4849493 -0.5920237
vn -0.6103684 -0.03125507 0.7915008
vn -0.5872946 -0.08923281 -0.8044392
vn -0.7256364 -0.06307187 -0.6851816
vn -0.7235112 -0.3184707 0.6124607
vn -0.08896489 0.9268274 0.3647963
vn 0.7618452 0.1043869 -0.6392927
vn 0.7644204 0.1528167 0.6263453
vn 0.7007579 0.1210798 0.7030491
vn 0.5322249 0.3575492 -0.7673951
vn -0.08896489 0.9268274 0.3647963
vn -0.04674516 0.9008593 0.4315871
vn -0.8153965 -0.2869793 0.5027638
vn -0.9631966 -0.19935 0.1803105
vn -0.05729081 0.6620668 0.7472519
vn -0.9244496 0.3810623 0.01358285
vn 0.06468917 0.4322667 0.8994225
vn -0.9448887 0.3168904 -0.08225502
vn 0.2459844 0.2560397 0.9348451
vn 0.01431641 0.992817 -0.1187829
vn 0.7772088 0.3130608 -0.5458382
vn -0.04674516 0.9008593 0.4315871
vn -0.05729081 0.6620668 0.7472519
vn 0.8883229 -0.0009697395 -0.4592184
vn 0.06468917 0.4322667 0.8994225
vn 0.9429229 -0.3329234 -0.007635301
vn 0.01207216 -0.8781097 -0.4783071
vn 0.7772088 0.3130608 -0.5458382
vn 0.8883229 -0.0009697395 -0.4592184
vn -0.2470041 -0.6709917 -0.6991131
vn 0.9429229 -0.3329234 -0.007635301
vn -0.2550185 -0.3151937 -0.9141217
vn 0.9527327 -0.2944968 -0.07464568
vn 0.02358998 -0.2753595 -0.9610519
vn 0.01431641 0.992817 -0.1187829
vn -0.8153965 -0.2869793 0.5027638
vn 0.01207216 -0.8781097 -0.4783071
vn -0.2470041 -0.6709917 -0.6991131
vn -0.9631966 -0.19935 0.1803105
vn -0.9631966 -0.19935 0.1803105
vn -0.2470041 -0.6709917 -0.6991131
vn -0.2550185 -0.3151937 -0.9141217
vn -0.9244496 0.3810623 0.01358285
vn 0.02358998 -0.2753595 -0.9610519
vn -0.9448887 0.3168904 -0.08225502
vn 0.01431641 0.992817 -0.1187829
vn 0.9429229 -0.3329234 -0.007635301
vn 0.06468917 0.4322667 0.8994225
vn 0.2459844 0.2560397 0.9348451
vn 0.9527327 -0.2944968 -0.07464568
vn -0.06630841 0.8616127 -0.5032165
vn 0.8518054 -0.2145053 -0.4779279
vn 0.9702844 -0.04308474 -0.2381005
vn 0.0684815 0.8641905 -0.4984828
vn -0.8293747 0.2340606 0.5073001
vn -0.06630841 0.8616127 -0.5032165
vn 0.0684815 0.8641905 -0.4984828
vn -0.9605858 0.09873863 0.2598571
vn 0.03356643 0.8516375 -0.5230553
vn -0.9610969 -0.2440456 -0.1293616
vn -0.1234118 0.5879694 -0.7994132
vn -0.9866687 -0.1528913 -0.05575847
vn 0.1156468 0.9159096 0.3843637
vn 0.08675315 -0.8406967 0.5345119
vn -0.8293747 0.2340606 0.5073001
vn -0.9605858 0.09873863 0.2598571
vn 0.2074974 -0.8582377 0.469439
vn 0.8518054 -0.2145053 -0.4779279
vn 0.08675315 -0.8406967 0.5345119
vn 0.2074974 -0.8582377 0.469439
vn 0.9702844 -0.04308474 -0.2381005
vn 0.1373221 -0.7829278 0.6067675
vn 0.9539643 0.1781056 0.2413099
vn -0.1575738 -0.564351 0.810357
vn 0.9590878 0.09538195 0.2665571
vn 0.1156468 0.9159096 0.3843637
vn 0.0684815 0.8641905 -0.4984828
vn 0.9702844 -0.04308474 -0.2381005
vn 0.9539643 0.1781056 0.2413099
vn 0.03356643 0.8516375 -0.5230553
vn 0.9590878 0.09538195 0.2665571
vn -0.1234118 0.5879694 -0.7994132
vn 0.2074974 -0.8582377 0.469439
vn -0.9605858 0.09873863 0.2598571
vn -0.9610969 -0.2440456 -0.1293616
vn 0.1373221 -0.7829278 0.6067675
vn -0.9866687 -0.1528913 -0.05575847
vn -0.1575738 -0.564351 0.810357
vn -0.4742855 0.8111742 0.3421254
vn -0.5867803 -0.582448 0.5625329
vn -0.7231179 -0.6270787 0.2896083
vn -0.3595356 0.6723033 0.6471032
vn -0.9843377 -0.1758061 -0.01309809
vn -0.1344048 0.3563796 0.9246237
vn -0.9807684 0.1758099 0.08475947
vn 0.03515425 0.4261363 0.9039757
vn 0.07922225 0.7683303 -0.6351317
vn 0.5569118 0.5822308 -0.5923314
vn -0.4742855 0.8111742 0.3421254
vn -0.3595356 0.6723033 0.6471032
vn 0.7638681 0.4043063 -0.5030329
vn -0.1344048 0.3563796 0.9246237
vn 0.9682266 0.1362606 -0.2096908
vn 0.03515425 0.4261363 0.9039757
vn 0.9937358 -0.02059714 0.1098402
vn 0.07922225 0.7683303 -0.6351317
vn 0.4472837 -0.8125213 -0.3738268
vn 0.5569118 0.5822308 -0.5923314
vn 0.7638681 0.4043063 -0.5030329
vn 0.151359 -0.7965831 -0.5852743
vn 0.9682266 0.1362606 -0.2096908
vn -0.124692 -0.3586189 -0.9251186
vn 0.9937358 -0.02059714 0.1098402
vn -0.02056027 -0.3676017 -0.929756
vn 0.07922225 0.7683303 -0.6351317
vn -0.5867803 -0.582448 0.5625329
vn 0.4472837 -0.8125213 -0.3738268
vn 0.151359 -0.7965831 -0.5852743
vn -0.7231179 -0.6270787 0.2896083
vn -0.7231179 -0.6270787 0.2896083
vn 0.151359 -0.7965831 -0.5852743
vn -0.124692 -0.3586189 -0.9251186
vn -0.9843377 -0.1758061 -0.01309809
vn -0.9843377 -0.1758061 -0.01309809
vn -0.124692 -0.3586189 -0.9251186
vn -0.02056027 -0.3676017 -0.929756
vn -0.9807684 0.1758099 0.08475947
vn 0.07922225 0.7683303 -0.6351317
vn -0.9605982 0.262083 0.09254034
vn -0.2749136 -0.8670594 -0.4154884
vn -0.2179302 -0.7114214 -0.6681212
vn -0.9900907 0.07799732 0.1167771
vn -0.3844582 -0.3046048 -0.8714401
vn -0.9307338 0.3575354 0.07683091
vn 0.2736695 0.8856632 0.3751077
vn -0.9605982 0.262083 0.09254034
vn -0.9900907 0.07799732 0.1167771
vn 0.3531664 0.722161 0.5947748
vn -0.9307338 0.3575354 0.07683091
vn 0.1149919 0.4741158 0.872921
vn -0.9033122 0.428216 0.02565203
vn 0.316208 0.2136172 0.924327
vn 0.09979723 0.9779888 -0.183244
vn 0.9613959 -0.2411504 -0.132531
vn 0.2736695 0.8856632 0.3751077
vn 0.3531664 0.722161 0.5947748
vn 0.9217995 -0.2244351 -0.3160925
vn 0.1149919 0.4741158 0.872921
vn 0.9177102 -0.3360489 -0.211847
vn -0.2749136 -0.8670594 -0.4154884
vn 0.9613959 -0.2411504 -0.132531
vn 0.9217995 -0.2244351 -0.3160925
vn -0.2179302 -0.7114214 -0.6681212
vn 0.9177102 -0.3360489 -0.211847
vn -0.3844582 -0.3046048 -0.8714401
vn 0.9228907 -0.369323 -0.1089646
vn -0.05166218 -0.2407307 -0.969216
vn 0.09979723 0.9779888 -0.183244
vn -0.9307338 0.3575354 0.07683091
vn -0.3844582 -0.3046048 -0.8714401
vn -0.05166218 -0.2407307 -0.969216
vn -0.9033122 0.428216 0.02565203
vn 0.09979723 0.9779888 -0.183244
vn 0.9177102 -0.3360489 -0.211847
vn 0.1149919 0.4741158 0.872921
vn 0.316208 0.2136172 0.924327
vn 0.9228907 -0.369323 -0.1089646
vn -0.1018755 0.07497177 0.991968
vn -0.3735203 -0.9270803 0.03169814
vn -0.6437579 -0.7640738 0.04203558
vn -0.3115992 0.08204151 0.9466653
vn -0.94278 -0.1035256 -0.316936
vn -0.5060454 0.1835934 0.8427404
vn -0.6477671 0.717459 -0.2562236
vn -0.2560656 0.3982091 0.8808292
vn 0.3318104 0.9425917 -0.03771945
vn -0.1018755 0.07497177 0.991968
vn -0.3115992 0.08204151 0.9466653
vn 0.5593756 0.8233633 0.09576982
vn -0.5060454 0.1835934 0.8427404
vn 0.9750734 0.1381169 0.1736538
vn 0.06051383 -0.05655952 -0.9965637
vn 0.3318104 0.9425917 -0.03771945
vn 0.5593756 0.8233633 0.09576982
vn 0.1037606 -0.2502138 -0.9626145
vn 0.9750734 0.1381169 0.1736538
vn 0.08505449 -0.1782438 -0.9803035
vn 0.647824 -0.607331 0.459862
vn 0.0822861 -0.1253939 -0.9886887
vn -0.3735203 -0.9270803 0.03169814
vn 0.06051383 -0.05655952 -0.9965637
vn 0.1037606 -0.2502138 -0.9626145
vn -0.6437579 -0.7640738 0.04203558
vn 0.08505449 -0.1782438 -0.9803035
vn -0.94278 -0.1035256 -0.316936
vn 0.9750734 0.1381169 0.1736538
vn -0.5060454 0.1835934 0.8427404
vn -0.2560656 0.3982091 0.8808292
vn 0.647824 -0.607331 0.459862
vn 0.9432636 0.3012932 -0.139557
vn 0.0822861 -0.1253939 -0.9886887
vn -0.94278 -0.1035256 -0.316936
vn 0.08505449 -0.1782438 -0.9803035
vn 0.0822861 -0.1253939 -0.9886887
vn -0.6477671 0.717459 -0.2562236
vn 0.9432636 0.3012932 -0.139557
vn 0.5621113 0.3757528 -0.7367772
vn 0.6861348 -0.7094104 0.1611085
vn 0.7186001 -0.6456065 0.2584691
vn 0.554681 0.2829371 -0.7824804
vn 0.8694429 -0.2101271 0.4471193
vn 0.5569987 0.01433805 -0.8303896
vn -0.03966863 0.970734 -0.2368584
vn -0.6564787 0.7439584 -0.1247468
vn 0.5621113 0.3757528 -0.7367772
vn 0.554681 0.2829371 -0.7824804
vn -0.7325022 0.6628483 -0.1551538
vn 0.5569987 0.01433805 -0.8303896
vn -0.9310927 0.2771602 -0.2371677
vn -0.03966863 0.970734 -0.2368584
vn -0.5339783 -0.3406212 0.7738504
vn -0.6564787 0.7439584 -0.1247468
vn -0.7325022 0.6628483 -0.1551538
vn -0.4533428 -0.3051803 0.8374637
vn -0.9310927 0.2771602 -0.2371677
vn -0.2488848 -0.0208557 0.9683086
vn -0.03966863 0.970734 -0.2368584
vn 0.6861348 -0.7094104 0.1611085
vn -0.5339783 -0.3406212 0.7738504
vn -0.4533428 -0.3051803 0.8374637
vn 0.7186001 -0.6456065 0.2584691
vn -0.2488848 -0.0208557 0.9683086
vn 0.8694429 -0.2101271 0.4471193
vn -0.5457602 0.5576101 -0.6254733
vn 0.6868663 -0.1303483 -0.7149994
vn 0.7574263 0.09110896 -0.6465328
vn -0.4169513 0.6596733 -0.6252862
vn 0.8375731 -0.1113935 -0.5348485
vn -0.6839915 0.5282429 -0.5031054
vn 0.4081613 0.8997415 -0.1544976
vn -0.6554146 0.1820299 0.7330053
vn -0.5457602 0.5576101 -0.6254733
vn -0.4169513 0.6596733 -0.6252862
vn -0.7915767 0.0380942 0.6098812
vn -0.6839915 0.5282429 -0.5031054
vn -0.6502518 0.04580933 0.7583364
vn 0.4081613 0.8997415 -0.1544976
vn 0.5745111 -0.5041726 0.6447846
vn -0.6554146 0.1820299 0.7330053
vn -0.7915767 0.0380942 0.6098812
vn 0.6052221 -0.5986042 0.5247659
vn -0.6502518 0.04580933 0.7583364
vn 0.4853108 -0.4386305 0.7563575
vn 0.4081613 0.8997415 -0.1544976
vn 0.6868663 -0.1303483 -0.7149994
vn 0.5745111 -0.5041726 0.6447846
vn 0.6052221 -0.5986042 0.5247659
vn 0.7574263 0.09110896 -0.6465328
vn 0.4853108 -0.4386305 0.7563575
vn 0.8375731 -0.1113935 -0.5348485
vn 0.4081613 0.8997415 -0.1544976
vn 0.3679081 0.1620736 0.9156287
vn -0.6502686 -0.6582237 0.3793314
vn -0.7697495 -0.4258824 0.4755101
vn 0.143544 0.3273956 0.9339204
vn -0.9692752 -0.2087955 0.1300389
vn 0.1916983 0.2256636 0.9551584
vn -0.8787763 0.3377551 0.3371554
vn 0.1237407 -0.1273016 0.9841151
vn -0.7335666 0.5973368 0.3241434
vn 0.3164171 -0.2384711 0.9181567
vn 0.4884295 0.8664055 0.1038181
vn 0.6050608 0.7044445 -0.3710248
vn 0.3679081 0.1620736 0.9156287
vn 0.143544 0.3273956 0.9339204
vn 0.7914451 0.5567333 -0.2523144
vn 0.1916983 0.2256636 0.9551584
vn 0.8701055 0.1753249 -0.4606274
vn 0.1237407 -0.1273016 0.9841151
vn 0.8930277 -0.294881 -0.3399217
vn -0.4095009 -0.1132262 -0.9052562
vn 0.6050608 0.7044445 -0.3710248
vn 0.7914451 0.5567333 -0.2523144
vn -0.350034 -0.3915708 -0.8509691
vn 0.8701055 0.1753249 -0.4606274
vn -0.2724961 -0.1985576 -0.9414461
vn 0.8930277 -0.294881 -0.3399217
vn -0.4243725 0.2815214 -0.8606124
vn 0.774089 -0.5366308 -0.3358776
vn -0.1665868 0.2192888 -0.9613331
vn 0.4884295 0.8664055 0.1038181
vn -0.6502686 -0.6582237 0.3793314
vn -0.4095009 -0.1132262 -0.9052562
vn -0.350034 -0.3915708 -0.8509691
vn -0.7697495 -0.4258824 0.4755101
vn -0.2724961 -0.1985576 -0.9414461
vn -0.9692752 -0.2087955 0.1300389
vn -0.9692752 -0.2087955 0.1300389
vn -0.2724961 -0.1985576 -0.9414461
vn -0.4243725 0.2815214 -0.8606124
vn -0.8787763 0.3377551 0.3371554
vn -0.1665868 0.2192888 -0.9613331
vn -0.7335666 0.5973368 0.3241434
vn 0.4884295 0.8664055 0.1038181
vn 0.8930277 -0.294881 -0.3399217
vn 0.1237407 -0.1273016 0.9841151
vn 0.3164171 -0.2384711 0.9181567
vn 0.774089 -0.5366308 -0.3358776
vn 0.4884295 0.8664055 0.1038181
vn -0.5842705 0.1123802 0.8037404
vn -0.5183315 -0.8134236 -0.2639594
vn -0.7104475 -0.5897347 -0.3840278
vn -0.7448761 0.1698314 0.6452262
vn 0.4835185 0.8434147 0.2342255
vn -0.5842705 0.1123802 0.8037404
vn -0.7448761 0.1698314 0.6452262
vn 0.5644553 0.6930196 0.4484575
vn -0.04699465 0.8440285 -0.5342355
vn 0.536935 -0.2639579 -0.801266
vn 0.549577 -0.07953718 -0.8316483
vn 0.4835185 0.8434147 0.2342255
vn 0.5644553 0.6930196 0.4484575
vn 0.536935 -0.2639579 -0.801266
vn -0.5183315 -0.8134236 -0.2639594
vn -0.7104475 -0.5897347 -0.3840278
vn -0.04699465 0.8440285 -0.5342355
vn -0.8212715 -0.09857764 0.561957
vn -0.3176888 -0.7386824 -0.5944933
vn -0.4431522 -0.5824666 -0.6814315
vn -0.900304 -0.05160315 0.4321919
vn -0.144059 0.8948825 -0.4224124
vn 0.2841548 0.7821271 0.5545566
vn -0.8212715 -0.09857764 0.561957
vn -0.900304 -0.05160315 0.4321919
vn 0.3155084 0.6475203 0.6936656
vn -0.144059 0.8948825 -0.4224124
vn 0.7871171 0.1439644 -0.5997673
vn 0.2841548 0.7821271 0.5545566
vn 0.3155084 0.6475203 0.6936656
vn 0.7975944 0.007896703 -0.6031424
vn -0.144059 0.8948825 -0.4224124
vn -0.3176888 -0.7386824 -0.5944933
vn 0.7871171 0.1439644 -0.5997673
vn 0.7975944 0.007896703 -0.6031424
vn -0.4431522 -0.5824666 -0.6814315
vn -0.144059 0.8948825 -0.4224124
vn 0.6000363 -0.379126 -0.7044288
vn 0.5988533 -0.3819231 0.7039244
vn 0.3219566 -0.5366003 0.7800027
vn 0.3920797 -0.4223896 -0.8172274
vn 0.9754045 0.1730591 0.136516
vn -0.542456 0.4549837 -0.7062091
vn 0.6000363 -0.379126 -0.7044288
vn 0.3920797 -0.4223896 -0.8172274
vn -0.3375616 0.6981688 -0.6313578
vn 0.9754045 0.1730591 0.136516
vn -0.5420335 0.4521945 0.7083218
vn -0.542456 0.4549837 -0.7062091
vn -0.3375616 0.6981688 -0.6313578
vn -0.4220472 0.6552743 0.6264917
vn 0.5988533 -0.3819231 0.7039244
vn -0.5420335 0.4521945 0.7083218
vn -0.4220472 0.6552743 0.6264917
vn 0.3219566 -0.5366003 0.7800027
vn 0.9754045 0.1730591 0.136516
vn 0.9411026 -0.3255809 0.09122997
vn 0.08811461 0.4940998 0.8649284
vn 0.1504625 0.2991156 0.9422796
vn 0.9910042 -0.1144377 -0.06938718
vn -0.0946549 0.9949479 -0.03345218
vn -0.05187276 -0.4057342 -0.912518
vn 0.9411026 -0.3255809 0.09122997
vn 0.9910042 -0.1144377 -0.06938718
vn 0.09201467 -0.2094625 -0.9734777
vn -0.0946549 0.9949479 -0.03345218
vn -0.9003344 0.4139041 -0.1344669
vn -0.05187276 -0.4057342 -0.912518
vn 0.09201467 -0.2094625 -0.9734777
vn -0.9691716 0.1868022 -0.1606589
vn -0.0946549 0.9949479 -0.03345218
vn 0.08811461 0.4940998 0.8649284
vn -0.9003344 0.4139041 -0.1344669
vn -0.9691716 0.1868022 -0.1606589
vn 0.1504625 0.2991156 0.9422796
vn -0.0946549 0.9949479 -0.03345218
vn -0.5796865 -0.6140196 -0.5356711
vn 0.7612399 -0.6426927 -0.086371
vn 0.77612 -0.5352001 -0.3334645
vn -0.4414538 -0.5270888 -0.7261514
vn -0.7334248 0.6796417 0.01323531
vn -0.5796865 -0.6140196 -0.5356711
vn -0.4414538 -0.5270888 -0.7261514
vn -0.8570516 0.5007407 0.1213307
vn 0.1350839 0.8811876 -0.4530571
vn 0.6027102 0.6514133 0.4608698
vn -0.7334248 0.6796417 0.01323531
vn -0.8570516 0.5007407 0.1213307
vn 0.646636 0.4783295 0.594191
vn 0.7612399 -0.6426927 -0.086371
vn 0.77612 -0.5352001 -0.3334645
vn 0.1350839 0.8811876 -0.4530571
vt 0.5988058 0.3845322
vt 0.5931892 0.3857586
vt 0.5988057 0.4887036
vt 0.2334096 0.9532204
vt 0.242789 0.9519591
vt 0.2334096 0.8899859
vt 0.5933714 0.6824536
vt 0.5985976 0.6766864
vt 0.5933714 0.6268767
vt 0.5933715 0.6219155
vt 0.5990509 0.6268768
vt 0.5990509 0.5619321
vt 0.231178 0.7800527
vt 0.2372582 0.775346
vt 0.231178 0.7343472
vt 0.243952 0.7343471
vt 0.2372582 0.7387776
vt 0.243952 0.7682154
vt 0.4072992 0.5331416
vt 0.4096463 0.5331724
vt 0.4096463 0.4686558
vt 0.3101332 0.5509474
vt 0.3124541 0.5502334
vt 0.3101332 0.495103
vt 0.3101332 0.5934624
vt 0.3128596 0.594898
vt 0.3128596 0.5509472
vt 0.406681 0.6256577
vt 0.4096464 0.6247017
vt 0.406681 0.5843092
vt 0.1139347 0.6674203
vt 0.1186482 0.667024
vt 0.1139347 0.6071284
vt 0.479456 0.5978686
vt 0.4841705 0.5982939
vt 0.4841705 0.5325488
vt 0.4064952 0.5843091
vt 0.4096463 0.5838242
vt 0.4064952 0.5331724
vt 0.3128597 0.5948981
vt 0.3101333 0.596117
vt 0.3128597 0.6337106
vt 0.4800249 0.5325489
vt 0.4841706 0.5311647
vt 0.4800249 0.4660251
vt 0.4065739 0.6564202
vt 0.4096464 0.6577628
vt 0.4096464 0.6256577
vt 0.7703941 0.7631
vt 0.7662994 0.7649481
vt 0.7703941 0.8180797
vt 0.8466558 0.2536043
vt 0.850785 0.2543273
vt 0.850785 0.2060567
vt 0.2409726 0.6302615
vt 0.2448508 0.6290538
vt 0.2409726 0.5861477
vt 0.4365611 0.9450101
vt 0.4626828 0.9439226
vt 0.4926169 0.8432265
vt 0.4683396 0.8487988
vt 0.4096464 0.9281566
vt 0.4878603 0.7887692
vt 0.4440934 0.8365973
vt 0.4680505 0.8030584
vt 0.4477237 0.7973236
vt 0.4221637 0.7572633
vt 0.4096464 0.7718928
vt 0.09425433 0.6071285
vt 0.1206895 0.5879803
vt 0.05652419 0.4966742
vt 0.03203384 0.5111133
vt 0.03203892 0.4503032
vt 0.008342245 0.4563549
vt 0.03039913 0.3722334
vt 0.01138533 0.3667255
vt 0.12007 0.2749309
vt 0.104882 0.2700261
vt -4.947387E-09 0.3546203
vt 0.09472191 0.2623817
vt 0.1206895 0.1445745
vt 0.1088611 0.1484917
vt 0.0561056 0.06749952
vt 0.04871169 0.06937002
vt 0.07262624 4.489593E-08
vt 0.3816933 0.7569074
vt 0.4059797 0.7400087
vt 0.3621529 0.6334401
vt 0.3390478 0.6428105
vt 0.3546962 0.7637294
vt 0.3540613 0.5745941
vt 0.3145033 0.6459034
vt 0.3340779 0.5687922
vt 0.4059797 0.4846151
vt 0.3128998 0.5644838
vt 0.3924355 0.4708852
vt 0.3740788 0.4686556
vt 0.1206895 0.5673652
vt 0.1474048 0.5861477
vt 0.2140678 0.4767397
vt 0.1893677 0.462712
vt 0.244979 0.4027531
vt 0.221194 0.3969522
vt 0.2391696 0.317889
vt 0.2202266 0.32285
vt 0.145839 0.2364537
vt 0.1307144 0.2408829
vt 0.2090447 0.3366543
vt 0.1206895 0.2500606
vt 0.1388314 0.122579
vt 0.1269458 0.1187967
vt 0.1970995 0.05375756
vt 0.1896776 0.05192114
vt 0.1694874 9.827694E-10
vt 0.1845811 0.05551934
vt 0.2657129 0.4951029
vt 0.2898246 0.4932388
vt 0.2652944 0.4042982
vt 0.244979 0.4043041
vt 0.2881231 0.2850375
vt 0.2719176 0.2820123
vt 0.3051666 0.1536354
vt 0.2929176 0.1558163
vt 0.3128999 0.1578182
vt 0.2986125 0.2859057
vt 0.2608688 0.07844989
vt 0.2535692 0.08076296
vt 0.244979 -2.282526E-09
vt 0.907316 0.5611019
vt 0.8897623 0.5670539
vt 0.8922423 0.6324807
vt 0.907316 0.6269068
vt 0.578984 0.6774259
vt 0.5931892 0.6819987
vt 0.5677136 0.5667857
vt 0.5572596 0.5667831
vt 0.5643865 0.6833475
vt 0.5820726 0.4555876
vt 0.546141 0.566916
vt 0.5758277 0.4538444
vt 0.5931892 0.3845323
vt 0.5691108 0.4528274
vt 0.299482 0.7572349
vt 0.3119415 0.7569218
vt 0.3119414 0.6450549
vt 0.3044769 0.6464942
vt 0.3276353 0.4582066
vt 0.3448571 0.4686557
vt 0.4096463 0.3750848
vt 0.3920307 0.3723599
vt 0.3128998 0.4447555
vt 0.3926042 0.2557245
vt 0.3771796 0.3657404
vt 0.3785065 0.2615051
vt 0.3436604 0.1999225
vt 0.3669465 0.2669647
vt 0.3322355 0.2044043
vt 0.3295504 0.1444771
vt 0.323527 0.2101185
vt 0.3202401 0.1446283
vt 0.3345684 0.08054207
vt 0.3128999 0.1454699
vt 0.3294254 0.07784262
vt 0.4044597 -2.392822E-08
vt 0.3252619 0.07670557
vt 0.8934816 0.8301052
vt 0.9101252 0.8244107
vt 0.8841678 0.7254295
vt 0.8699404 0.72879
vt 0.8720177 0.8337247
vt 0.8513019 0.725107
vt 0.9101252 0.6501607
vt 0.8966222 0.6409832
vt 0.47424 0.4660251
vt 0.4930943 0.4532406
vt 0.4280947 0.3640057
vt 0.4096463 0.3699901
vt 0.428327 0.2592296
vt 0.4134627 0.2532134
vt 0.4810609 0.2067655
vt 0.469736 0.2006181
vt 0.4886641 0.2111753
vt 0.4376698 0.2649184
vt 0.4930943 0.1459756
vt 0.4835802 0.1447784
vt 0.492092 0.08120535
vt 0.4864027 0.08211782
vt 0.4364999 2.580904E-09
vt 0.7871981 0.370311
vt 0.8101538 0.3714333
vt 0.8101538 0.2640288
vt 0.7907052 0.2643773
vt 0.7750859 0.262362
vt 0.7940943 0.2640288
vt 0.8210623 0.1784929
vt 0.8048764 0.1795993
vt 0.7945642 0.1067561
vt 0.781706 0.109249
vt 0.793337 0.04829683
vt 0.7837152 0.04993818
vt 0.7808181 3.938865E-09
vt 0.7750859 0.00179217
vt 0.7526928 0.6601737
vt 0.771073 0.6590905
vt 0.7382688 0.5517432
vt 0.72254 0.5500607
vt 0.7666094 0.48055
vt 0.7541543 0.4775867
vt 0.7645434 0.425539
vt 0.755223 0.4235497
vt 0.771073 0.3753351
vt 0.7654564 0.3732937
vt 0.4930943 0.8788157
vt 0.5026187 0.8878832
vt 0.5281214 0.8474684
vt 0.5200017 0.8423892
vt 0.5324022 0.7937421
vt 0.5273279 0.7928917
vt 0.4930943 0.6920271
vt 0.5376053 0.7915944
vt 0.5461411 0.9974639
vt 0.570424 0.9970284
vt 0.570424 0.8827022
vt 0.5515623 0.8872117
vt 0.6426249 0.688883
vt 0.6590854 0.6958005
vt 0.6392698 0.596649
vt 0.627307 0.5969607
vt 0.6212497 0.6986243
vt 0.6100311 0.6004505
vt 0.6122186 0.4947049
vt 0.5992188 0.4906144
vt 0.6282535 0.4318823
vt 0.6207446 0.4277549
vt 0.6590854 0.3732938
vt 0.9389005 0.5513968
vt 0.9127239 0.5568678
vt 0.9192399 0.6399344
vt 0.9389005 0.6400869
vt 0.244979 0.9513233
vt 0.2649539 0.9579981
vt 0.2797832 0.8473877
vt 0.2642986 0.8482716
vt 0.2540588 0.7803538
vt 0.2449789 0.7823938
vt 0.561223 0.8827024
vt 0.5788714 0.8794333
vt 0.5765175 0.8023968
vt 0.5631371 0.8084118
vt 0.5544271 0.7418335
vt 0.546141 0.7425112
vt 0.5788714 0.6833474
vt 0.07996215 0.8284051
vt 0.09891717 0.8290485
vt 0.0985167 0.7392683
vt 0.08413766 0.7349775
vt 0.1139348 0.6656999
vt 0.1052026 0.6661785
vt 0.07996212 0.6071285
vt 0.4930943 0.6887444
vt 0.5144416 0.6920271
vt 0.5461411 0.5958814
vt 0.5287806 0.5968193
vt 0.5239767 0.5033733
vt 0.5112788 0.5051689
vt 0.5191945 0.4289677
vt 0.511641 0.4311179
vt 0.4930943 0.3845322
vt 0.6884491 0.6869118
vt 0.7021729 0.6942987
vt 0.6918202 0.595688
vt 0.6812042 0.5929171
vt 0.6965905 0.4998822
vt 0.689021 0.502205
vt 0.6701694 0.4314561
vt 0.6655893 0.4310286
vt 0.6783016 0.5023379
vt 0.6590854 0.430013
vt 0.7021729 0.3732938
vt 0.6832189 0.8902323
vt 0.7021729 0.8860776
vt 0.674579 0.7828159
vt 0.6594811 0.7821033
vt 0.7021729 0.6959367
vt 0.6913083 0.6942987
vt 0.789126 0.6409832
vt 0.8102444 0.6360947
vt 0.7879399 0.5284792
vt 0.771073 0.529172
vt 0.7851999 0.4429447
vt 0.7730651 0.4392065
vt 0.8102444 0.3738335
vt 0.802751 0.3732938
vt 0.7021729 0.8560551
vt 0.71856 0.8707172
vt 0.762686 0.7956276
vt 0.7481967 0.7884849
vt 0.7571721 0.7372641
vt 0.7465098 0.7396833
vt 0.7431009 0.691954
vt 0.7382405 0.6970367
vt 0.7021729 0.6682147
vt 0.8238599 0.3716224
vt 0.8466488 0.3722167
vt 0.8388029 0.2911753
vt 0.8210624 0.2893575
vt 0.8466559 0.2397211
vt 0.8336121 0.2411426
vt 0.8289724 0.2060567
vt 0.8210624 0.206387
vt 0.3656495 0.9511365
vt 0.3847045 0.939587
vt 0.3300089 0.8663942
vt 0.3128999 0.8709426
vt 0.326279 0.8238865
vt 0.3137417 0.8197458
vt 0.3526025 0.7832536
vt 0.3471034 0.7774738
vt 0.3847046 0.7637295
vt 0.2331185 0.8296472
vt 0.2100738 0.828741
vt 0.2091704 0.9276519
vt 0.2271108 0.9269445
vt 0.2200461 0.974259
vt 0.2331185 0.9760106
vt 0.7058724 0.3707892
vt 0.7185133 0.3726358
vt 0.7267749 0.3345712
vt 0.7191799 0.3339217
vt 0.7058724 0.2889669
vt 0.1693981 0.9631068
vt 0.1919791 0.9674013
vt 0.2091704 0.8897383
vt 0.1913192 0.8914739
vt 0.1812536 0.8414223
vt 0.1693981 0.8460595
vt 0.8332806 0.2026193
vt 0.8537064 0.2060567
vt 0.836748 0.1340164
vt 0.8210623 0.1330784
vt 0.8327146 0.08144974
vt 0.8213552 0.07862186
vt 0.8537064 0.02982139
vt 0.8471986 0.02640133
vt 0.8469989 1.125996E-08
vt 0.06724408 0.9814364
vt 0.08931176 0.9771082
vt 0.06592571 0.8925575
vt 0.04844776 0.8898689
vt 0.08931176 0.8435742
vt 0.07765406 0.8375738
vt 0.04844779 0.8372796
vt 0.07154704 0.8375737
vt 0.06995296 0.74448
vt 0.05208074 0.7423249
vt 0.07996217 0.6921163
vt 0.06677494 0.6926206
vt 0.05976611 0.6445001
vt 0.0520348 0.6465443
vt 0.04844779 0.6071284
vt 0.6223197 0.9395469
vt 0.6348974 0.9411167
vt 0.6296949 0.8964936
vt 0.6223197 0.8933271
vt 0.5992189 0.9762537
vt 0.6117361 0.9780277
vt 0.6223197 0.9239954
vt 0.6144321 0.9253939
vt 0.5992189 0.893327
vt 0.7058724 0.2830932
vt 0.7138649 0.288967
vt 0.7572392 0.2102604
vt 0.7504954 0.206756
vt 0.7750859 0.1283535
vt 0.7698319 0.1291584
vt 0.7235225 0.05606582
vt 0.7205079 0.05710853
vt 0.7058724 1.079535E-08
vt 0.2999003 0.6450549
vt 0.3101332 0.6437609
vt 0.3074555 0.5584269
vt 0.2994819 0.5595131
vt 0.3101332 0.4951029
vt 0.3042559 0.4963463
vt 0.4701382 0.7572633
vt 0.4788029 0.7518848
vt 0.4337145 0.6728214
vt 0.4264588 0.675908
vt 0.4151937 0.5945371
vt 0.4096463 0.5933958
vt 0.4664714 0.5251047
vt 0.4632913 0.5238616
vt 0.4788029 0.466025
vt 0.7021729 0.6682147
vt 0.7116551 0.6672015
vt 0.7225299 0.5842723
vt 0.7151508 0.5849816
vt 0.7225402 0.5013059
vt 0.7171245 0.5011603
vt 0.7054832 0.4331017
vt 0.7021729 0.4322216
vt 0.7200667 0.3732938
vt 0.5459949 0.7818257
vt 0.5402238 0.7799404
vt 0.5402238 0.8313038
vt 0.5436439 0.8321899
vt 0.9101251 0.9658547
vt 0.9155993 0.9720833
vt 0.9571896 0.9127467
vt 0.9518276 0.9105051
vt 0.9458894 0.8545521
vt 0.9425132 0.8569329
vt 0.9491319 0.8538676
vt 0.961632 0.9119663
vt 0.9119622 0.8183526
vt 0.9101251 0.8202449
vt 0.7494943 0.9851715
vt 0.756269 0.9825965
vt 0.769937 0.9224274
vt 0.764681 0.9240584
vt 0.7533851 0.8707172
vt 0.7494943 0.871806
vt 0.8921838 0.9833227
vt 0.8973677 0.9764979
vt 0.8564688 0.9274166
vt 0.8513017 0.93033
vt 0.8657005 0.8746962
vt 0.8623657 0.8728511
vt 0.8973677 0.8353172
vt 0.8955381 0.8337247
vt 0.7462729 0.3692885
vt 0.754512 0.3696727
vt 0.754512 0.288967
vt 0.7480634 0.2890821
vt 0.8129417 0.9836861
vt 0.8179768 0.9849488
vt 0.8274746 0.9332532
vt 0.8243527 0.9331133
vt 0.8129417 0.8896874
vt 0.7657773 0.7631001
vt 0.7703941 0.7630747
vt 0.7655852 0.7094465
vt 0.7626859 0.7088329
vt 0.7703941 0.6682149
vt 0.9390106 0.358881
vt 0.9448413 0.3649095
vt 0.9863413 0.3265886
vt 0.9798416 0.3247715
vt 0.9776551 0.278357
vt 0.9727822 0.2801278
vt 0.9544255 0.2379235
vt 0.9515162 0.2391449
vt 0.9390106 0.1926239
vt 0.8101539 0.3525602
vt 0.8190635 0.3518495
vt 0.8194161 0.3060551
vt 0.8124719 0.3062883
vt 0.8151163 0.2640288
vt 0.8101539 0.2649381
vt 0.8960143 0.3729754
vt 0.9018916 0.3664545
vt 0.8603011 0.3326889
vt 0.8537064 0.3349219
vt 0.8670589 0.2869762
vt 0.8621069 0.2854154
vt 0.890881 0.2406337
vt 0.8879243 0.2395319
vt 0.9018916 0.1926239
vt 0.4002974 0.820443
vt 0.4092478 0.8203915
vt 0.4092478 0.7637295
vt 0.4022884 0.7640998
vt 0.9596991 0.7930214
vt 0.966751 0.7924383
vt 0.9603921 0.7452018
vt 0.9552386 0.7449608
vt 0.9744819 0.6843667
vt 0.9713472 0.6846109
vt 0.9552386 0.6409832
vt 0.1139348 0.7785326
vt 0.1180905 0.7809281
vt 0.1180905 0.7270934
vt 0.1156271 0.7253548
vt 0.2334096 0.889986
vt 0.244979 0.8878923
vt 0.2423497 0.7803539
vt 0.2334096 0.7838861
vt 0.1675851 0.838245
vt 0.1806544 0.8414224
vt 0.2091704 0.7740894
vt 0.1985693 0.773515
vt 0.1935355 0.71415
vt 0.1860144 0.7158616
vt 0.1722734 0.644885
vt 0.1675851 0.6444283
vt 0.1986865 0.5861477
vt 0.7750859 0.3724058
vt 0.7871981 0.3731193
vt 0.784499 0.2665736
vt 0.7750859 0.2640288
vt 0.287674 0.7803538
vt 0.2994819 0.7762415
vt 0.2548618 0.6780223
vt 0.2449789 0.6786819
vt 0.2677969 0.6094133
vt 0.2608195 0.6075535
vt 0.2994819 0.5483028
vt 0.2949269 0.5485616
vt 0.2787129 0.4951029
vt 0.9616318 0.9383649
vt 0.9704626 0.9440812
vt 0.9812831 0.8873842
vt 0.9744934 0.8856307
vt 0.9655949 0.8187003
vt 0.9616318 0.8183525
vt 0.1043543 0.9684668
vt 0.1139347 0.9639359
vt 0.09828227 0.9018595
vt 0.0906468 0.9020189
vt 0.1139347 0.8298085
vt 0.1094072 0.8290485
vt 0.8102443 0.6106568
vt 0.8180988 0.6187343
vt 0.8897623 0.5483353
vt 0.8815225 0.5452181
vt 0.8836078 0.4744666
vt 0.8777385 0.4772494
vt 0.8331594 0.4277309
vt 0.8299094 0.42998
vt 0.8102444 0.3732937
vt 0.2121955 0.8282077
vt 0.2235159 0.828741
vt 0.217987 0.7718024
vt 0.2091705 0.7709902
vt 0.2268562 0.7044045
vt 0.2204039 0.7036682
vt 0.231178 0.650655
vt 0.2272489 0.6510508
vt 0.2091705 0.5861477
vt 0.8435387 0.8896875
vt 0.8513018 0.8813764
vt 0.7792799 0.8167392
vt 0.771073 0.8200836
vt 0.7815206 0.7483107
vt 0.7755901 0.7456797
vt 0.8284841 0.7002451
vt 0.8251971 0.6980764
vt 0.8513018 0.6409832
vt 0.7378322 0.288967
vt 0.726775 0.2906772
vt 0.7292129 0.3713367
vt 0.7378322 0.3696575
vt 0.3040818 0.8296227
vt 0.3119415 0.8310842
vt 0.3119415 0.7581679
vt 0.3061664 0.7572349
vt 0.0412361 0.9819825
vt 0.04751576 0.9803642
vt 0.03285205 0.9147149
vt 0.02896961 0.9148996
vt 0.04751576 0.8575131
vt 0.9405042 0.6392055
vt 0.9497304 0.6407128
vt 0.9642158 0.5727956
vt 0.9568834 0.5737304
vt 0.9457778 0.5373846
vt 0.9405042 0.5386582
vt 0.9405041 0.5363718
vt 0.9489493 0.5373846
vt 0.9771941 0.4918329
vt 0.9703828 0.4915927
vt 0.9779752 0.4469559
vt 0.9729893 0.4488796
vt 0.9627442 0.4288699
vt 0.9599151 0.4305422
vt 0.9405041 0.3732938
vt 0.9861869 0.1126357
vt 0.9948812 0.1105073
vt 0.9808629 0.04179811
vt 0.9739526 0.04115755
vt 0.9948812 0.001215581
vt 0.9898581 -3.568919E-09
vt 0.9302527 0.3711123
vt 0.9390105 0.3692842
vt 0.9108549 0.3190743
vt 0.9038094 0.31993
vt 0.9070613 0.2741901
vt 0.9018916 0.2726287
vt 0.9215224 0.2525347
vt 0.918577 0.2510507
vt 0.9390105 0.1926239
vt 0.6594811 0.978608
vt 0.6648611 0.9793291
vt 0.6730736 0.9488919
vt 0.6697778 0.9487137
vt 0.6594811 0.8902322
vt 0.7656908 0.8448091
vt 0.7703941 0.8469027
vt 0.7703941 0.8195437
vt 0.7675649 0.8180797
vt 0.1206895 0.968833
vt 0.1290543 0.9715385
vt 0.1624565 0.9208846
vt 0.1556924 0.9192492
vt 0.1676338 0.8813073
vt 0.1626744 0.8829789
vt 0.1226067 0.8453305
vt 0.1206895 0.8475803
vt 0.5226063 0.9836348
vt 0.5313093 0.9864948
vt 0.541977 0.9214657
vt 0.5351332 0.9215441
vt 0.526695 0.8878831
vt 0.5226063 0.8910362
vt 0.7415027 0.9854449
vt 0.7494943 0.9834395
vt 0.7128621 0.9378617
vt 0.7063804 0.9389555
vt 0.7068309 0.9054752
vt 0.7021729 0.9034399
vt 0.7494943 0.8731555
vt 0.7478842 0.8707173
vt 0.9025622 0.9392803
vt 0.9085308 0.9357182
vt 0.9020076 0.8715087
vt 0.8973678 0.8719251
vt 0.9085308 0.8365461
vt 0.9052989 0.8337249
vt 0.9642159 0.6327723
vt 0.9680213 0.6364402
vt 0.9814484 0.58948
vt 0.9789343 0.5890841
vt 0.9642159 0.5373846
vt 0.9767956 0.5895699
vt 0.8086092 0.9854175
vt 0.8129416 0.9826536
vt 0.7935079 0.9303823
vt 0.7904499 0.9298183
vt 0.8129416 0.8896874
vt 0.8537065 0.1873035
vt 0.8624913 0.1926238
vt 0.8936454 0.1243672
vt 0.8869967 0.1216157
vt 0.9028637 0.05538944
vt 0.8988227 0.05630236
vt 0.8537065 -4.988777E-08
vt 0.5866022 0.8648273
vt 0.5961588 0.8672722
vt 0.5856498 0.8099476
vt 0.5788714 0.8082767
vt 0.5842773 0.7488545
vt 0.5801889 0.7483348
vt 0.5961588 0.6833475
vt 0.6388812 0.8933271
vt 0.6477894 0.8887217
vt 0.6147934 0.8201839
vt 0.608081 0.8223917
vt 0.6032388 0.753985
vt 0.5992189 0.7527134
vt 0.6477894 0.6986243
vt 0.6477893 0.8448538
vt 0.6576318 0.8449709
vt 0.6586079 0.7672729
vt 0.6516212 0.7671087
vt 0.6520249 0.6991942
vt 0.6477893 0.6986244
vt 0.9028637 0.1870726
vt 0.9109171 0.1869703
vt 0.9112145 0.1125949
vt 0.905461 0.1132327
vt 0.9251528 0.06054449
vt 0.9216915 0.06113869
vt 0.9028636 -3.079488E-08
vt 0.9253258 0.5513969
vt 0.9336948 0.5498
vt 0.9405041 0.481542
vt 0.9346153 0.4844885
vt 0.9163401 0.4346422
vt 0.9127238 0.4354828
vt 0.9405041 0.3732939
vt 0.9046715 0.5611019
vt 0.9127239 0.5599201
vt 0.9095698 0.4888299
vt 0.9037952 0.4891
vt 0.8932445 0.4322812
vt 0.8897623 0.4322288
vt 0.9127239 0.3732938
vt 0.9332229 0.1765686
vt 0.9414166 0.1733697
vt 0.9310054 0.1056086
vt 0.9251528 0.1059688
vt 0.9521143 0.04703025
vt 0.9485638 0.04820523
vt 0.9251528 3.902334E-08
vt 0.4930942 0.3739583
vt 0.5083385 0.3845322
vt 0.5378291 0.3198986
vt 0.5254191 0.3110212
vt 0.5992188 0.2355584
vt 0.587701 0.2323185
vt 0.5818247 0.1325729
vt 0.5736963 0.1362596
vt 0.5304131 0.0656438
vt 0.525982 0.06893117
vt 0.4930942 -8.570198E-10
vt 1.450243E-08 0.8503575
vt 0.01753334 0.8575134
vt 0.04844775 0.7751212
vt 0.03292293 0.7748273
vt 0.01227848 0.6812644
vt 1.017544E-08 0.6826168
vt 0.02073032 0.6071286
vt 0.01171982 0.608542
vt 0.6906388 0.3732938
vt 0.7058724 0.3621185
vt 0.6727716 0.3118949
vt 0.6603827 0.3212499
vt 0.610862 0.2360178
vt 0.5992189 0.2397859
vt 0.6217788 0.143882
vt 0.6134303 0.140601
vt 0.6715312 0.07188153
vt 0.6669627 0.06880461
vt 0.7058724 1.963976E-09
vt 0.9391976 0.8183525
vt 0.9552386 0.8124515
vt 0.924324 0.7361463
vt 0.9101251 0.7353914
vt 0.9552386 0.6431271
vt 0.9438836 0.6409831
vt 0.1555533 0.8453304
vt 0.1675851 0.8442667
vt 0.1296711 0.7450031
vt 0.1206894 0.7452487
vt 0.1625997 0.6622242
vt 0.1572381 0.6613767
vt 0.1675851 0.5861476
vt 0.3913205 0.9252621
vt 0.4002973 0.9270379
vt 0.3903182 0.8345882
vt 0.3847045 0.8344355
vt 0.4002973 0.7637295
vt 0.5931892 0.5617111
vt 0.5990508 0.5619321
vt 0.5990508 0.4887036
vt 0.5956908 0.4888704
vt 0.6477894 0.946123
vt 0.6522773 0.9480205
vt 0.6590872 0.8789394
vt 0.656488 0.8790411
vt 0.6477894 0.8449708
vt 0.6539797 0.8792666
vt 0.5920488 0.9700805
vt 0.5965739 0.969841
vt 0.583937 0.8995041
vt 0.5813502 0.8993461
vt 0.5877178 0.9711801
vt 0.5788714 0.8987705
vt 0.5965739 0.8672721
vt 0.2311779 0.7341857
vt 0.2409726 0.734347
vt 0.2404386 0.6452633
vt 0.2348446 0.6454849
vt 0.231178 0.5861477
vt 0.9521142 0.1536129
vt 0.9603809 0.1547171
vt 0.9739526 0.0665999
vt 0.969168 0.06726234
vt 0.9521142 -2.250249E-08
vt 0.4841706 0.6212643
vt 0.4930943 0.6204759
vt 0.4917852 0.5345023
vt 0.4866775 0.5346326
vt 0.4841706 0.4660251
vt 0.2942871 0.937206
vt 0.303082 0.9355689
vt 0.2849081 0.8489985
vt 0.2797832 0.8486399
vt 0.303082 0.7803538
vt 0.4816963 0.7540058
vt 0.4892693 0.7533154
vt 0.4930942 0.7010174
vt 0.4887777 0.7010564
vt 0.4816963 0.6212642
vt 0.02240518 0.9821381
vt 0.0289696 0.9804353
vt 0.004205659 0.9303026
vt 5.781076E-08 0.9296209
vt 0.0289696 0.8575132
vt 0.1139347 0.7253547
vt 0.1201774 0.7236305
vt 0.1175221 0.6674203
vt 0.1139347 0.6687338
vt 0.4930942 0.9989362
vt 0.4999288 1
vt 0.5226062 0.9519703
vt 0.5182912 0.9529295
vt 0.4930942 0.8878832
vt 0.765612 0.3629137
vt 0.7737491 0.3614779
vt 0.7593144 0.3221909
vt 0.754512 0.3217205
vt 0.7737491 0.288967
vt 0.5376053 0.7799405
vt 0.545995 0.7795609
vt 0.544387 0.7338154
vt 0.5395944 0.7341152
vt 0.5376053 0.6920272
vt 0.6833036 0.9745229
vt 0.6913415 0.9763419
vt 0.7021729 0.9276007
vt 0.6974238 0.9281074
vt 0.6833036 0.8902321
vt 0.7378322 0.3702174
vt 0.7462729 0.3702174
vt 0.7435491 0.3307369
vt 0.7387252 0.3306575
vt 0.7425969 0.288967
vt 0.1139348 0.8315771
vt 0.1193115 0.8282264
vt 0.1170133 0.7809282
vt 0.1139348 0.7829054
vt 0.8274747 0.9808362
vt 0.8350758 0.9829889
vt 0.8486203 0.9315132
vt 0.8441306 0.931621
vt 0.8274747 0.8896874
vt 0.7853486 0.9870729
vt 0.7904499 0.9856904
vt 0.7774227 0.9307504
vt 0.7745028 0.9314601
vt 0.7794938 0.9878252
vt 0.771073 0.9304208
vt 0.7904499 0.8896873
usemtl M_DesertTwigRoots
f 1/1/1 3/3/3 2/2/2
f 4/4/4 6/6/6 5/5/5
f 7/7/7 9/9/9 8/8/8
f 10/10/10 12/12/12 11/11/11
f 13/13/13 15/15/15 14/14/14
f 16/16/16 18/18/18 17/17/17
f 19/19/19 21/21/21 20/20/20
f 22/22/22 24/24/24 23/23/23
f 25/25/25 27/27/27 26/26/26
f 28/28/28 30/30/30 29/29/29
f 31/31/31 33/33/33 32/32/32
f 34/34/34 36/36/36 35/35/35
f 37/37/37 39/39/39 38/38/38
f 40/40/40 42/42/42 41/41/41
f 43/43/43 45/45/45 44/44/44
f 46/46/46 48/48/48 47/47/47
f 49/49/49 51/51/51 50/50/50
f 52/52/52 54/54/54 53/53/53
f 55/55/55 57/57/57 56/56/56
f 58/58/58 60/60/60 59/59/59
f 58/58/58 61/61/61 60/60/60
f 62/62/62 61/61/61 58/58/58
f 61/61/61 63/63/63 60/60/60
f 62/62/62 64/64/64 61/61/61
f 61/61/61 65/65/65 63/63/63
f 64/64/64 65/65/65 61/61/61
f 64/64/64 66/66/66 65/65/65
f 65/65/65 67/67/67 63/63/63
f 65/65/65 68/68/68 67/67/67
f 69/69/69 71/71/71 70/70/70
f 69/69/69 72/72/72 71/71/71
f 72/72/72 73/73/73 71/71/71
f 72/72/72 74/74/74 73/73/73
f 74/74/74 75/75/75 73/73/73
f 74/74/74 76/76/76 75/75/75
f 76/76/76 77/77/77 75/75/75
f 76/76/76 78/78/78 77/77/77
f 79/79/79 78/78/78 76/76/76
f 79/79/79 80/80/80 78/78/78
f 78/78/78 81/81/81 77/77/77
f 78/78/78 82/82/82 81/81/81
f 82/82/82 83/83/83 81/81/81
f 82/82/82 84/84/84 83/83/83
f 84/84/84 85/85/85 83/83/83
f 86/86/86 88/88/88 87/87/87
f 86/86/86 89/89/89 88/88/88
f 90/90/90 89/89/89 86/86/86
f 89/89/89 91/91/91 88/88/88
f 90/90/90 92/92/92 89/89/89
f 89/89/89 93/93/93 91/91/91
f 92/92/92 93/93/93 89/89/89
f 93/93/93 94/94/94 91/91/91
f 92/92/92 95/95/95 93/93/93
f 93/93/93 96/96/96 94/94/94
f 95/95/95 96/96/96 93/93/93
f 95/95/95 97/97/97 96/96/96
f 98/98/98 100/100/100 99/99/99
f 98/98/98 101/101/101 100/100/100
f 101/101/101 102/102/102 100/100/100
f 101/101/101 103/103/103 102/102/102
f 103/103/103 104/104/104 102/102/102
f 103/103/103 105/105/105 104/104/104
f 105/105/105 106/106/106 104/104/104
f 105/105/105 107/107/107 106/106/106
f 108/108/108 107/107/107 105/105/105
f 108/108/108 109/109/109 107/107/107
f 107/107/107 110/110/110 106/106/106
f 107/107/107 111/111/111 110/110/110
f 111/111/111 112/112/112 110/110/110
f 111/111/111 113/113/113 112/112/112
f 113/113/113 114/114/114 112/112/112
f 115/115/115 114/114/114 113/113/113
f 116/116/116 118/118/118 117/117/117
f 116/116/116 119/119/119 118/118/118
f 119/119/119 120/120/120 118/118/118
f 119/119/119 121/121/121 120/120/120
f 121/121/121 122/122/122 120/120/120
f 121/121/121 123/123/123 122/122/122
f 120/120/120 122/122/122 124/124/124
f 120/120/120 124/124/124 125/125/125
f 123/123/123 126/126/126 122/122/122
f 123/123/123 127/127/127 126/126/126
f 127/127/127 128/128/128 126/126/126
f 129/129/129 131/131/131 130/130/130
f 129/129/129 132/132/132 131/131/131
f 133/133/133 135/135/135 134/134/134
f 133/133/133 136/136/136 135/135/135
f 137/137/137 136/136/136 133/133/133
f 136/136/136 138/138/138 135/135/135
f 137/137/137 139/139/139 136/136/136
f 136/136/136 140/140/140 138/138/138
f 139/139/139 140/140/140 136/136/136
f 140/140/140 141/141/141 138/138/138
f 139/139/139 142/142/142 140/140/140
f 142/142/142 141/141/141 140/140/140
f 143/143/143 145/145/145 144/144/144
f 143/143/143 146/146/146 145/145/145
f 147/147/147 149/149/149 148/148/148
f 147/147/147 150/150/150 149/149/149
f 151/151/151 150/150/150 147/147/147
f 150/150/150 152/152/152 149/149/149
f 151/151/151 153/153/153 150/150/150
f 150/150/150 154/154/154 152/152/152
f 153/153/153 154/154/154 150/150/150
f 154/154/154 155/155/155 152/152/152
f 153/153/153 156/156/156 154/154/154
f 154/154/154 157/157/157 155/155/155
f 156/156/156 157/157/157 154/154/154
f 157/157/157 158/158/158 155/155/155
f 156/156/156 159/159/159 157/157/157
f 157/157/157 160/160/160 158/158/158
f 159/159/159 160/160/160 157/157/157
f 160/160/160 161/161/161 158/158/158
f 159/159/159 162/162/162 160/160/160
f 160/160/160 163/163/163 161/161/161
f 162/162/162 163/163/163 160/160/160
f 163/163/163 164/164/164 161/161/161
f 162/162/162 165/165/165 163/163/163
f 165/165/165 164/164/164 163/163/163
f 166/166/166 168/168/168 167/167/167
f 166/166/166 169/169/169 168/168/168
f 170/170/170 169/169/169 166/166/166
f 170/170/170 171/171/171 169/169/169
f 171/171/171 172/172/172 169/169/169
f 171/171/171 173/173/173 172/172/172
f 174/174/174 176/176/176 175/175/175
f 174/174/174 177/177/177 176/176/176
f 177/177/177 178/178/178 176/176/176
f 177/177/177 179/179/179 178/178/178
f 179/179/179 180/180/180 178/178/178
f 179/179/179 181/181/181 180/180/180
f 178/178/178 180/180/180 182/182/182
f 178/178/178 182/182/182 183/183/183
f 181/181/181 184/184/184 180/180/180
f 181/181/181 185/185/185 184/184/184
f 185/185/185 186/186/186 184/184/184
f 185/185/185 187/187/187 186/186/186
f 187/187/187 188/188/188 186/186/186
f 189/189/189 191/191/191 190/190/190
f 189/189/189 192/192/192 191/191/191
f 193/193/193 195/195/195 194/194/194
f 193/193/193 196/196/196 195/195/195
f 196/196/196 197/197/197 195/195/195
f 196/196/196 198/198/198 197/197/197
f 198/198/198 199/199/199 197/197/197
f 198/198/198 200/200/200 199/199/199
f 200/200/200 201/201/201 199/199/199
f 200/200/200 202/202/202 201/201/201
f 203/203/203 205/205/205 204/204/204
f 203/203/203 206/206/206 205/205/205
f 206/206/206 207/207/207 205/205/205
f 206/206/206 208/208/208 207/207/207
f 208/208/208 209/209/209 207/207/207
f 208/208/208 210/210/210 209/209/209
f 210/210/210 211/211/211 209/209/209
f 210/210/210 212/212/212 211/211/211
f 213/213/213 215/215/215 214/214/214
f 213/213/213 216/216/216 215/215/215
f 216/216/216 217/217/217 215/215/215
f 216/216/216 218/218/218 217/217/217
f 218/218/218 219/219/219 217/217/217
f 217/217/217 219/219/219 220/220/220
f 221/221/221 223/223/223 222/222/222
f 221/221/221 224/224/224 223/223/223
f 225/225/225 227/227/227 226/226/226
f 225/225/225 228/228/228 227/227/227
f 229/229/229 228/228/228 225/225/225
f 229/229/229 230/230/230 228/228/228
f 230/230/230 231/231/231 228/228/228
f 230/230/230 232/232/232 231/231/231
f 232/232/232 233/233/233 231/231/231
f 232/232/232 234/234/234 233/233/233
f 234/234/234 235/235/235 233/233/233
f 236/236/236 238/238/238 237/237/237
f 236/236/236 239/239/239 238/238/238
f 240/240/240 242/242/242 241/241/241
f 240/240/240 243/243/243 242/242/242
f 243/243/243 244/244/244 242/242/242
f 243/243/243 245/245/245 244/244/244
f 246/246/246 248/248/248 247/247/247
f 246/246/246 249/249/249 248/248/248
f 249/249/249 250/250/250 248/248/248
f 249/249/249 251/251/251 250/250/250
f 251/251/251 252/252/252 250/250/250
f 253/253/253 255/255/255 254/254/254
f 253/253/253 256/256/256 255/255/255
f 256/256/256 257/257/257 255/255/255
f 256/256/256 258/258/258 257/257/257
f 258/258/258 259/259/259 257/257/257
f 260/260/260 262/262/262 261/261/261
f 260/260/260 263/263/263 262/262/262
f 263/263/263 264/264/264 262/262/262
f 263/263/263 265/265/265 264/264/264
f 265/265/265 266/266/266 264/264/264
f 265/265/265 267/267/267 266/266/266
f 267/267/267 268/268/268 266/266/266
f 269/269/269 271/271/271 270/270/270
f 269/269/269 272/272/272 271/271/271
f 272/272/272 273/273/273 271/271/271
f 272/272/272 274/274/274 273/273/273
f 274/274/274 275/275/275 273/273/273
f 274/274/274 276/276/276 275/275/275
f 277/277/277 276/276/276 274/274/274
f 277/277/277 278/278/278 276/276/276
f 278/278/278 279/279/279 276/276/276
f 280/280/280 282/282/282 281/281/281
f 280/280/280 283/283/283 282/282/282
f 283/283/283 284/284/284 282/282/282
f 283/283/283 285/285/285 284/284/284
f 286/286/286 288/288/288 287/287/287
f 286/286/286 289/289/289 288/288/288
f 289/289/289 290/290/290 288/288/288
f 289/289/289 291/291/291 290/290/290
f 291/291/291 292/292/292 290/290/290
f 291/291/291 293/293/293 292/292/292
f 294/294/294 296/296/296 295/295/295
f 294/294/294 297/297/297 296/296/296
f 297/297/297 298/298/298 296/296/296
f 297/297/297 299/299/299 298/298/298
f 299/299/299 300/300/300 298/298/298
f 299/299/299 301/301/301 300/300/300
f 301/301/301 302/302/302 300/300/300
f 303/303/303 305/305/305 304/304/304
f 303/303/303 306/306/306 305/305/305
f 306/306/306 307/307/307 305/305/305
f 306/306/306 308/308/308 307/307/307
f 308/308/308 309/309/309 307/307/307
f 308/308/308 310/310/310 309/309/309
f 311/311/311 313/313/313 312/312/312
f 311/311/311 314/314/314 313/313/313
f 314/314/314 315/315/315 313/313/313
f 314/314/314 316/316/316 315/315/315
f 316/316/316 317/317/317 315/315/315
f 316/316/316 318/318/318 317/317/317
f 318/318/318 319/319/319 317/317/317
f 320/320/320 322/322/322 321/321/321
f 320/320/320 323/323/323 322/322/322
f 323/323/323 324/324/324 322/322/322
f 323/323/323 325/325/325 324/324/324
f 326/326/326 328/328/328 327/327/327
f 326/326/326 329/329/329 328/328/328
f 329/329/329 330/330/330 328/328/328
f 331/331/331 333/333/333 332/332/332
f 331/331/331 334/334/334 333/333/333
f 334/334/334 335/335/335 333/333/333
f 334/334/334 336/336/336 335/335/335
f 337/337/337 339/339/339 338/338/338
f 337/337/337 340/340/340 339/339/339
f 340/340/340 341/341/341 339/339/339
f 340/340/340 342/342/342 341/341/341
f 342/342/342 343/343/343 341/341/341
f 342/342/342 344/344/344 343/343/343
f 344/344/344 345/345/345 343/343/343
f 346/346/346 348/348/348 347/347/347
f 346/346/346 349/349/349 348/348/348
f 349/349/349 350/350/350 348/348/348
f 349/349/349 351/351/351 350/350/350
f 352/352/352 354/354/354 353/353/353
f 352/352/352 355/355/355 354/354/354
f 355/355/355 356/356/356 354/354/354
f 355/355/355 357/357/357 356/356/356
f 357/357/357 358/358/358 356/356/356
f 357/357/357 359/359/359 358/358/358
f 359/359/359 360/360/360 358/358/358
f 361/361/361 363/363/363 362/362/362
f 361/361/361 364/364/364 363/363/363
f 365/365/365 367/367/367 366/366/366
f 365/365/365 368/368/368 367/367/367
f 368/368/368 369/369/369 367/367/367
f 370/370/370 372/372/372 371/371/371
f 370/370/370 373/373/373 372/372/372
f 373/373/373 374/374/374 372/372/372
f 373/373/373 375/375/375 374/374/374
f 375/375/375 376/376/376 374/374/374
f 375/375/375 377/377/377 376/376/376
f 377/377/377 378/378/378 376/376/376
f 379/379/379 381/381/381 380/380/380
f 379/379/379 382/382/382 381/381/381
f 382/382/382 383/383/383 381/381/381
f 382/382/382 384/384/384 383/383/383
f 385/385/385 387/387/387 386/386/386
f 385/385/385 388/388/388 387/387/387
f 388/388/388 389/389/389 387/387/387
f 388/388/388 390/390/390 389/389/389
f 390/390/390 391/391/391 389/389/389
f 390/390/390 392/392/392 391/391/391
f 392/392/392 393/393/393 391/391/391
f 394/394/394 396/396/396 395/395/395
f 394/394/394 397/397/397 396/396/396
f 397/397/397 398/398/398 396/396/396
f 397/397/397 399/399/399 398/398/398
f 399/399/399 400/400/400 398/398/398
f 399/399/399 401/401/401 400/400/400
f 401/401/401 402/402/402 400/400/400
f 403/403/403 405/405/405 404/404/404
f 403/403/403 406/406/406 405/405/405
f 407/407/407 409/409/409 408/408/408
f 407/407/407 410/410/410 409/409/409
f 410/410/410 411/411/411 409/409/409
f 410/410/410 412/412/412 411/411/411
f 409/409/409 411/411/411 413/413/413
f 409/409/409 413/413/413 414/414/414
f 412/412/412 415/415/415 411/411/411
f 412/412/412 416/416/416 415/415/415
f 417/417/417 419/419/419 418/418/418
f 417/417/417 420/420/420 419/419/419
f 420/420/420 421/421/421 419/419/419
f 420/420/420 422/422/422 421/421/421
f 423/423/423 425/425/425 424/424/424
f 423/423/423 426/426/426 425/425/425
f 426/426/426 427/427/427 425/425/425
f 426/426/426 428/428/428 427/427/427
f 428/428/428 429/429/429 427/427/427
f 428/428/428 430/430/430 429/429/429
f 431/431/431 433/433/433 432/432/432
f 431/431/431 434/434/434 433/433/433
f 435/435/435 437/437/437 436/436/436
f 435/435/435 438/438/438 437/437/437
f 438/438/438 439/439/439 437/437/437
f 440/440/440 442/442/442 441/441/441
f 440/440/440 443/443/443 442/442/442
f 443/443/443 444/444/444 442/442/442
f 445/445/445 447/447/447 446/446/446
f 445/445/445 448/448/448 447/447/447
f 448/448/448 449/449/449 447/447/447
f 448/448/448 450/450/450 449/449/449
f 450/450/450 451/451/451 449/449/449
f 450/450/450 452/452/452 451/451/451
f 452/452/452 453/453/453 451/451/451
f 454/454/454 456/456/456 455/455/455
f 454/454/454 457/457/457 456/456/456
f 457/457/457 458/458/458 456/456/456
f 457/457/457 459/459/459 458/458/458
f 460/460/460 462/462/462 461/461/461
f 460/460/460 463/463/463 462/462/462
f 463/463/463 464/464/464 462/462/462
f 463/463/463 465/465/465 464/464/464
f 465/465/465 466/466/466 464/464/464
f 465/465/465 467/467/467 466/466/466
f 467/467/467 468/468/468 466/466/466
f 469/469/469 471/471/471 470/470/470
f 469/469/469 472/472/472 471/471/471
f 473/473/473 475/475/475 474/474/474
f 473/473/473 476/476/476 475/475/475
f 476/476/476 477/477/477 475/475/475
f 476/476/476 478/478/478 477/477/477
f 478/478/478 479/479/479 477/477/477
f 480/480/480 482/482/482 481/481/481
f 480/480/480 483/483/483 482/482/482
f 484/484/484 486/486/486 485/485/485
f 484/484/484 487/487/487 486/486/486
f 488/488/488 490/490/490 489/489/489
f 488/488/488 491/491/491 490/490/490
f 491/491/491 492/492/492 490/490/490
f 491/491/491 493/493/493 492/492/492
f 493/493/493 494/494/494 492/492/492
f 493/493/493 495/495/495 494/494/494
f 495/495/495 496/496/496 494/494/494
f 497/497/497 499/499/499 498/498/498
f 497/497/497 500/500/500 499/499/499
f 501/501/501 503/503/503 502/502/502
f 501/501/501 504/504/504 503/503/503
f 504/504/504 505/505/505 503/503/503
f 504/504/504 506/506/506 505/505/505
f 506/506/506 507/507/507 505/505/505
f 506/506/506 508/508/508 507/507/507
f 508/508/508 509/509/509 507/507/507
f 510/510/510 512/512/512 511/511/511
f 510/510/510 513/513/513 512/512/512
f 513/513/513 514/514/514 512/512/512
f 513/513/513 515/515/515 514/514/514
f 516/516/516 518/518/518 517/517/517
f 516/516/516 519/519/519 518/518/518
f 519/519/519 520/520/520 518/518/518
f 519/519/519 521/521/521 520/520/520
f 522/522/522 524/524/524 523/523/523
f 522/522/522 525/525/525 524/524/524
f 525/525/525 526/526/526 524/524/524
f 525/525/525 527/527/527 526/526/526
f 527/527/527 528/528/528 526/526/526
f 527/527/527 529/529/529 528/528/528
f 529/529/529 530/530/530 528/528/528
f 531/531/531 533/533/533 532/532/532
f 531/531/531 534/534/534 533/533/533
f 534/534/534 535/535/535 533/533/533
f 534/534/534 536/536/536 535/535/535
f 536/536/536 537/537/537 535/535/535
f 536/536/536 538/538/538 537/537/537
f 538/538/538 539/539/539 537/537/537
f 540/540/540 542/542/542 541/541/541
f 540/540/540 543/543/543 542/542/542
f 543/543/543 544/544/544 542/542/542
f 543/543/543 545/545/545 544/544/544
f 545/545/545 546/546/546 544/544/544
f 545/545/545 547/547/547 546/546/546
f 547/547/547 548/548/548 546/546/546
f 549/549/549 551/551/551 550/550/550
f 549/549/549 552/552/552 551/551/551
f 553/553/553 555/555/555 554/554/554
f 553/553/553 556/556/556 555/555/555
f 557/557/557 559/559/559 558/558/558
f 557/557/557 560/560/560 559/559/559
f 560/560/560 561/561/561 559/559/559
f 562/562/562 564/564/564 563/563/563
f 562/562/562 565/565/565 564/564/564
f 565/565/565 566/566/566 564/564/564
f 565/565/565 567/567/567 566/566/566
f 568/568/568 570/570/570 569/569/569
f 568/568/568 571/571/571 570/570/570
f 571/571/571 572/572/572 570/570/570
f 571/571/571 573/573/573 572/572/572
f 573/573/573 574/574/574 572/572/572
f 573/573/573 575/575/575 574/574/574
f 575/575/575 576/576/576 574/574/574
f 577/577/577 579/579/579 578/578/578
f 577/577/577 580/580/580 579/579/579
f 580/580/580 581/581/581 579/579/579
f 580/580/580 582/582/582 581/581/581
f 583/583/583 585/585/585 584/584/584
f 583/583/583 586/586/586 585/585/585
f 586/586/586 587/587/587 585/585/585
f 586/586/586 588/588/588 587/587/587
f 588/588/588 589/589/589 587/587/587
f 588/588/588 590/590/590 589/589/589
f 590/590/590 591/591/591 589/589/589
f 592/592/592 594/594/594 593/593/593
f 592/592/592 595/595/595 594/594/594
f 595/595/595 596/596/596 594/594/594
f 597/597/597 599/599/599 598/598/598
f 597/597/597 600/600/600 599/599/599
f 601/601/601 603/603/603 602/602/602
f 601/601/601 604/604/604 603/603/603
f 604/604/604 605/605/605 603/603/603
f 604/604/604 606/606/606 605/605/605
f 606/606/606 607/607/607 605/605/605
f 606/606/606 608/608/608 607/607/607
f 609/609/609 611/611/611 610/610/610
f 609/609/609 612/612/612 611/611/611
f 612/612/612 613/613/613 611/611/611
f 612/612/612 614/614/614 613/613/613
f 615/615/615 617/617/617 616/616/616
f 615/615/615 618/618/618 617/617/617
f 618/618/618 619/619/619 617/617/617
f 618/618/618 620/620/620 619/619/619
f 620/620/620 621/621/621 619/619/619
f 620/620/620 622/622/622 621/621/621
f 623/623/623 625/625/625 624/624/624
f 623/623/623 626/626/626 625/625/625
f 626/626/626 627/627/627 625/625/625
f 626/626/626 628/628/628 627/627/627
f 629/629/629 631/631/631 630/630/630
f 629/629/629 632/632/632 631/631/631
f 632/632/632 633/633/633 631/631/631
f 634/634/634 633/633/633 632/632/632
f 635/635/635 637/637/637 636/636/636
f 635/635/635 638/638/638 637/637/637
f 638/638/638 639/639/639 637/637/637
f 640/640/640 642/642/642 641/641/641
f 640/640/640 643/643/643 642/642/642
f 643/643/643 644/644/644 642/642/642
f 643/643/643 645/645/645 644/644/644
f 645/645/645 646/646/646 644/644/644
f 647/647/647 649/649/649 648/648/648
f 647/647/647 650/650/650 649/649/649
f 650/650/650 651/651/651 649/649/649
f 650/650/650 652/652/652 651/651/651
f 652/652/652 653/653/653 651/651/651
f 654/654/654 656/656/656 655/655/655
f 654/654/654 657/657/657 656/656/656
f 657/657/657 658/658/658 656/656/656
f 657/657/657 659/659/659 658/658/658
f 659/659/659 660/660/660 658/658/658
f 661/661/661 663/663/663 662/662/662
f 661/661/661 664/664/664 663/663/663
f 664/664/664 665/665/665 663/663/663
f 664/664/664 666/666/666 665/665/665
f 667/667/667 669/669/669 668/668/668
f 667/667/667 670/670/670 669/669/669
f 670/670/670 671/671/671 669/669/669
f 670/670/670 672/672/672 671/671/671
f 672/672/672 673/673/673 671/671/671
f 674/674/674 676/676/676 675/675/675
f 674/674/674 677/677/677 676/676/676
f 677/677/677 678/678/678 676/676/676
f 677/677/677 679/679/679 678/678/678
f 679/679/679 680/680/680 678/678/678
f 681/681/681 683/683/683 682/682/682
f 681/681/681 684/684/684 683/683/683
f 684/684/684 685/685/685 683/683/683
f 684/684/684 686/686/686 685/685/685
f 686/686/686 687/687/687 685/685/685
f 688/688/688 690/690/690 689/689/689
f 688/688/688 691/691/691 690/690/690
f 691/691/691 692/692/692 690/690/690
f 691/691/691 693/693/693 692/692/692
f 693/693/693 694/694/694 692/692/692
f 695/695/695 697/697/697 696/696/696
f 695/695/695 698/698/698 697/697/697
f 698/698/698 699/699/699 697/697/697
f 698/698/698 700/700/700 699/699/699
f 700/700/700 701/701/701 699/699/699
f 700/700/700 702/702/702 701/701/701
f 702/702/702 703/703/703 701/701/701
f 702/702/702 704/704/704 703/703/703
f 704/704/704 705/705/705 703/703/703
f 706/706/706 708/708/708 707/707/707
f 706/706/706 709/709/709 708/708/708
f 709/709/709 710/710/710 708/708/708
f 709/709/709 711/711/711 710/710/710
f 711/711/711 712/712/712 710/710/710
f 711/711/711 713/713/713 712/712/712
f 714/714/714 716/716/716 715/715/715
f 714/714/714 717/717/717 716/716/716
f 717/717/717 718/718/718 716/716/716
f 717/717/717 719/719/719 718/718/718
f 719/719/719 720/720/720 718/718/718
f 719/719/719 721/721/721 720/720/720
f 721/721/721 722/722/722 720/720/720
f 721/721/721 723/723/723 722/722/722
f 723/723/723 724/724/724 722/722/722
f 725/725/725 727/727/727 726/726/726
f 725/725/725 728/728/728 727/727/727
f 728/728/728 729/729/729 727/727/727
f 728/728/728 730/730/730 729/729/729
f 731/731/731 733/733/733 732/732/732
f 731/731/731 734/734/734 733/733/733
f 734/734/734 735/735/735 733/733/733
f 734/734/734 736/736/736 735/735/735
f 736/736/736 737/737/737 735/735/735
f 738/738/738 740/740/740 739/739/739
f 738/738/738 741/741/741 740/740/740
f 741/741/741 742/742/742 740/740/740
f 743/743/743 745/745/745 744/744/744
f 743/743/743 746/746/746 745/745/745
f 747/747/747 749/749/749 748/748/748
f 747/747/747 750/750/750 749/749/749
f 750/750/750 751/751/751 749/749/749
f 752/752/752 751/751/751 750/750/750
f 753/753/753 755/755/755 754/754/754
f 753/753/753 756/756/756 755/755/755
f 757/757/757 756/756/756 753/753/753
f 757/757/757 758/758/758 756/756/756
f 758/758/758 759/759/759 756/756/756
f 760/760/760 762/762/762 761/761/761
f 760/760/760 763/763/763 762/762/762
f 763/763/763 764/764/764 762/762/762
f 765/765/765 767/767/767 766/766/766
f 765/765/765 768/768/768 767/767/767
f 768/768/768 769/769/769 767/767/767
f 770/770/770 772/772/772 771/771/771
f 770/770/770 773/773/773 772/772/772
f 773/773/773 774/774/774 772/772/772
f 775/775/775 777/777/777 776/776/776
f 775/775/775 778/778/778 777/777/777
f 778/778/778 779/779/779 777/777/777
f 780/780/780 782/782/782 781/781/781
f 780/780/780 783/783/783 782/782/782
f 783/783/783 784/784/784 782/782/782
f 785/785/785 787/787/787 786/786/786
f 785/785/785 788/788/788 787/787/787
f 788/788/788 789/789/789 787/787/787
f 790/790/790 792/792/792 791/791/791
f 790/790/790 793/793/793 792/792/792
f 794/794/794 796/796/796 795/795/795
f 794/794/794 797/797/797 796/796/796
f 797/797/797 798/798/798 796/796/796
f 799/799/799 801/801/801 800/800/800
f 799/799/799 802/802/802 801/801/801
f 802/802/802 803/803/803 801/801/801
f 804/804/804 806/806/806 805/805/805
f 804/804/804 807/807/807 806/806/806
f 807/807/807 808/808/808 806/806/806
f 809/809/809 811/811/811 810/810/810
f 809/809/809 812/812/812 811/811/811
f 812/812/812 813/813/813 811/811/811
f 814/814/814 816/816/816 815/815/815
f 814/814/814 817/817/817 816/816/816
f 817/817/817 818/818/818 816/816/816
f 819/819/819 821/821/821 820/820/820
f 819/819/819 822/822/822 821/821/821
f 823/823/823 825/825/825 824/824/824
f 823/823/823 826/826/826 825/825/825
f 826/826/826 827/827/827 825/825/825
f 828/828/828 830/830/830 829/829/829
f 828/828/828 831/831/831 830/830/830
f 832/832/832 831/831/831 828/828/828
f 832/832/832 833/833/833 831/831/831
f 833/833/833 834/834/834 831/831/831
