mtllib P_DesertTwigRoots03.mtl
v 1.29375 0.08530617 -0.09107179
v 1.30521 0.1032813 -0.08757672
v 1.558203 -4.941225E-05 -0.1320835
v 1.298313 0.1144882 -0.1226019
v 1.286853 0.09651311 -0.1260969
v 1.558203 -4.941225E-05 -0.1320835
v -0.9346903 0.01058102 0.6676058
v -0.9336658 -0.006957963 0.6700266
v -0.9922751 0.0474843 0.9082643
v -0.4524483 0.4203227 0.9292928
v -0.4532327 0.4367366 0.9122242
v -0.4140468 0.5124893 1.007245
v -0.4297787 0.4396297 0.9139284
v -0.4289943 0.4232157 0.9309969
v -0.4140468 0.5124893 1.007245
v 0.6296401 0.297819 -0.3501236
v 0.6372834 0.2882495 -0.3441405
v 0.7973612 0.388477 -0.3902828
v 0.6317286 0.2913498 -0.3320855
v 0.6240852 0.3009192 -0.3380686
v 0.7973612 0.388477 -0.3902828
v 0.4390153 0.07368124 0.7829839
v 0.4329393 0.08245444 0.7824912
v 0.4620935 0.0915557 0.8883446
v 0.4416365 0.08854423 0.7836756
v 0.4477125 0.07977101 0.7841683
v 0.4620935 0.0915557 0.8883446
v 1.440811 0.02276826 0.415842
v 1.446593 0.02367494 0.4045059
v 1.543107 0.04739398 0.4738372
v 1.447073 0.01094967 0.4037328
v 1.44129 0.01004294 0.4150688
v 1.543107 0.04739398 0.4738372
v 1.012441 0.2227088 -0.1853114
v 1.003846 0.2323665 -0.1870911
v 1.092466 0.2704277 -0.3205405
v 1.332655 0.3673239 0.2887452
v 1.329204 0.3628078 0.2975785
v 1.490577 0.3976209 0.3232693
v 0.9757814 0.1252929 0.4348318
v 0.96948 0.1359122 0.4406036
v 1.095849 0.1148507 0.6108552
v -0.6517881 0.01678664 0.9805621
v -0.6412597 0.02213094 0.9841706
v -0.7860749 0.03177175 1.129886
v -0.6466169 0.005661808 0.9819505
v -0.6517881 0.01678664 0.9805621
v -0.7860749 0.03177175 1.129886
v -0.6412597 0.02213094 0.9841706
v -0.6360886 0.0110061 0.985559
v -0.7860749 0.03177175 1.129886
v 0.07495122 -0.1680403 -0.003723528
v 0.0465599 -0.1736925 0.08378936
v 0.03769357 0.1046611 0.09301376
v 0.06149767 0.1002279 0.01653675
v 0.0944227 0.2666409 0.07508382
v 0.1047099 0.2424778 0.01120235
v 0.3233511 0.3855006 -0.008590095
v 0.3319361 0.3651029 -0.06238748
v 0.308858 0.4412679 -0.000596866
v 0.04552141 0.3140337 0.08662162
v 0.657959 0.397669 0.1209829
v 0.6646686 0.3811517 0.07741926
v 1.029305 0.2917551 0.1214639
v 1.016275 0.2852059 0.08944314
v 1.29375 0.08530617 -0.09107179
v 1.284572 0.08192208 -0.1103319
v 1.558203 -4.941225E-05 -0.1320835
v 1.30521 0.1032813 -0.08757672
v 1.046675 0.3217337 0.1275953
v 0.01320056 -0.1636884 -0.07202026
v 0.07495122 -0.1680403 -0.003723528
v 0.06149767 0.1002279 0.01653675
v 0.008412711 0.1107894 -0.04267024
v 0.1047099 0.2424778 0.01120235
v 0.06609575 0.2657074 -0.04114137
v -0.07694139 -0.1649887 -0.05280407
v 0.01320056 -0.1636884 -0.07202026
v 0.008412711 0.1107894 -0.04267024
v -0.06847636 0.1257841 -0.02540018
v -0.1053327 -0.1706409 0.03470884
v -0.07694139 -0.1649887 -0.05280407
v -0.06847636 0.1257841 -0.02540018
v -0.09228048 0.1302172 0.05107684
v -0.04358205 -0.1749929 0.1030056
v -0.1053327 -0.1706409 0.03470884
v -0.09228048 0.1302172 0.05107684
v -0.03919551 0.1196557 0.1102838
v 0.0465599 -0.1736925 0.08378936
v 0.006907299 0.3372633 0.03427792
v 0.03769357 0.1046611 0.09301376
v 0.04552141 0.3140337 0.08662162
v 0.0944227 0.2666409 0.07508382
v -0.06847636 0.1257841 -0.02540018
v 0.008412711 0.1107894 -0.04267024
v 0.06609575 0.2657074 -0.04114137
v 0.01719448 0.3131002 -0.02960358
v 0.326028 0.4004724 -0.1081916
v 0.3115351 0.4562397 -0.1001984
v 0.3319361 0.3651029 -0.06238748
v 0.1047099 0.2424778 0.01120235
v 0.6646686 0.3811517 0.07741926
v 0.67631 0.4106199 0.04260932
v 1.016275 0.2852059 0.08944314
v 1.020614 0.3086353 0.06355391
v 1.284572 0.08192208 -0.1103319
v 1.286853 0.09651311 -0.1260969
v 1.558203 -4.941225E-05 -0.1320835
v -0.09228048 0.1302172 0.05107684
v -0.06847636 0.1257841 -0.02540018
v 0.01719448 0.3131002 -0.02960358
v 0.006907299 0.3372633 0.03427792
v 0.3115351 0.4562397 -0.1001984
v 0.30295 0.4766375 -0.04640098
v 0.6812418 0.4566056 0.05136303
v 0.6745322 0.473123 0.09492661
v 0.04552141 0.3140337 0.08662162
v 0.006907299 0.3372633 0.03427792
v 0.30295 0.4766375 -0.04640098
v 0.308858 0.4412679 -0.000596866
v 0.6745322 0.473123 0.09492661
v 0.6628908 0.4436548 0.1297365
v 1.051014 0.345163 0.101706
v 1.046675 0.3217337 0.1275953
v 1.037983 0.3386138 0.06968535
v 0.6812418 0.4566056 0.05136303
v 1.298313 0.1144882 -0.1226019
v 1.307491 0.1178723 -0.1033418
v 1.30521 0.1032813 -0.08757672
v 1.558203 -4.941225E-05 -0.1320835
v 0.3233511 0.3855006 -0.008590095
v 0.308858 0.4412679 -0.000596866
v 0.6628908 0.4436548 0.1297365
v 0.657959 0.397669 0.1209829
v 1.046675 0.3217337 0.1275953
v 1.029305 0.2917551 0.1214639
v 0.3115351 0.4562397 -0.1001984
v 0.326028 0.4004724 -0.1081916
v 0.67631 0.4106199 0.04260932
v 0.6812418 0.4566056 0.05136303
v 1.020614 0.3086353 0.06355391
v 1.037983 0.3386138 0.06968535
v 1.037983 0.3386138 0.06968535
v 1.020614 0.3086353 0.06355391
v 1.286853 0.09651311 -0.1260969
v 1.298313 0.1144882 -0.1226019
v -0.02147418 0.1715997 0.03199708
v 0.03633566 0.1435308 0.05424432
v -0.09282178 0.1462069 0.3688131
v -0.131275 0.1691278 0.332296
v -0.4228614 0.1684117 0.5268623
v -0.4350757 0.1897073 0.4852877
v -0.41112 0.1215831 0.5274616
v -0.09034295 0.08893202 0.3759508
v -0.07362454 0.1320094 0.01361968
v -0.02147418 0.1715997 0.03199708
v -0.131275 0.1691278 0.332296
v -0.1672492 0.1347736 0.3029165
v -0.4350757 0.1897073 0.4852877
v -0.4355484 0.1641743 0.4443123
v -0.6350815 0.05514301 0.4489443
v -0.6326309 0.03543124 0.4155411
v -0.800013 0.03119499 0.51972
v -0.811774 0.01363783 0.4998736
v -0.9486355 0.01756795 0.6591655
v -0.9615562 0.007015809 0.6531459
v -0.9922751 0.0474843 0.9082643
v -0.06796508 0.06435014 0.01748952
v -0.07362454 0.1320094 0.01361968
v -0.1672492 0.1347736 0.3029165
v -0.1647703 0.07749869 0.310054
v -0.01015526 0.03628118 0.03973676
v -0.4355484 0.1641743 0.4443123
v -0.1263172 0.05457788 0.3465712
v -0.423807 0.1173456 0.4449116
v -0.4115928 0.09605004 0.4864862
v 0.04199512 0.07587149 0.05811416
v -0.01015526 0.03628118 0.03973676
v -0.1263172 0.05457788 0.3465712
v -0.09034295 0.08893202 0.3759508
v 0.03633566 0.1435308 0.05424432
v -0.09282178 0.1462069 0.3688131
v -0.4115928 0.09605004 0.4864862
v -0.41112 0.1215831 0.5274616
v -0.6096693 -0.01831138 0.4489403
v -0.61212 0.001400448 0.4823435
v -0.6199247 -0.001295991 0.4155391
v -0.423807 0.1173456 0.4449116
v -0.7936556 -0.02624474 0.5244189
v -0.7818948 -0.008687541 0.5442654
v -0.9465864 -0.01751006 0.6640071
v -0.9336658 -0.006957963 0.6700266
v -0.9922751 0.0474843 0.9082643
v -0.4350757 0.1897073 0.4852877
v -0.6248261 0.03812762 0.4823454
v -0.6350815 0.05514301 0.4489443
v -0.4228614 0.1684117 0.5268623
v -0.61212 0.001400448 0.4823435
v -0.41112 0.1215831 0.5274616
v -0.423807 0.1173456 0.4449116
v -0.4355484 0.1641743 0.4443123
v -0.6326309 0.03543124 0.4155411
v -0.6199247 -0.001295991 0.4155391
v -0.6199247 -0.001295991 0.4155391
v -0.6326309 0.03543124 0.4155411
v -0.811774 0.01363783 0.4998736
v -0.8085952 -0.01508206 0.502223
v -0.6096693 -0.01831138 0.4489403
v -0.9615562 0.007015809 0.6531459
v -0.7936556 -0.02624474 0.5244189
v -0.9605318 -0.01052314 0.6555669
v -0.9922751 0.0474843 0.9082643
v -0.9465864 -0.01751006 0.6640071
v -0.6248261 0.03812762 0.4823454
v -0.61212 0.001400448 0.4823435
v -0.7818948 -0.008687541 0.5442654
v -0.7850735 0.02003231 0.5419159
v -0.6350815 0.05514301 0.4489443
v -0.9336658 -0.006957963 0.6700266
v -0.800013 0.03119499 0.51972
v -0.9346903 0.01058102 0.6676058
v -0.9486355 0.01756795 0.6591655
v -0.9922751 0.0474843 0.9082643
v 0.239901 0.4330779 -0.07201666
v 0.197287 0.3826282 -0.02609293
v 0.1831763 0.1705011 -0.2904462
v 0.2152697 0.2176743 -0.3163863
v 0.393613 0.003584603 -0.5233991
v 0.4074624 0.0472215 -0.5275203
v 0.5643674 -0.001009241 -0.6600996
v 0.5697599 0.02635915 -0.6584085
v 0.5979562 0.008305034 -0.8465872
v 0.3077765 0.396279 -0.04945846
v 0.239901 0.4330779 -0.07201666
v 0.2152697 0.2176743 -0.3163863
v 0.2666127 0.1999357 -0.2851225
v 0.2651624 0.3458294 -0.003534731
v 0.3077765 0.396279 -0.04945846
v 0.2666127 0.1999357 -0.2851225
v 0.2345193 0.1527625 -0.2591823
v 0.4382635 0.04060727 -0.4940461
v 0.424414 -0.003029611 -0.489925
v 0.5940684 0.0207903 -0.6457971
v 0.5886759 -0.006578043 -0.647488
v 0.5979562 0.008305034 -0.8465872
v 0.197287 0.3826282 -0.02609293
v 0.2651624 0.3458294 -0.003534731
v 0.2345193 0.1527625 -0.2591823
v 0.1831763 0.1705011 -0.2904462
v 0.2666127 0.1999357 -0.2851225
v 0.2152697 0.2176743 -0.3163863
v 0.4074624 0.0472215 -0.5275203
v 0.4382635 0.04060727 -0.4940461
v 0.5697599 0.02635915 -0.6584085
v 0.5940684 0.0207903 -0.6457971
v 0.5979562 0.008305034 -0.8465872
v 0.1831763 0.1705011 -0.2904462
v 0.2345193 0.1527625 -0.2591823
v 0.424414 -0.003029611 -0.489925
v 0.393613 0.003584603 -0.5233991
v 0.5886759 -0.006578043 -0.647488
v 0.5643674 -0.001009241 -0.6600996
v 0.5979562 0.008305034 -0.8465872
v -0.3662814 0.1687279 0.4409142
v -0.2998355 0.1722594 0.4259728
v -0.2624783 0.3164009 0.6697451
v -0.3142428 0.3051968 0.6654416
v -0.3457402 0.3433695 0.8191236
v -0.3795418 0.3297873 0.8052748
v -0.4297787 0.4396297 0.9139284
v -0.4532327 0.4367366 0.9122242
v -0.4140468 0.5124893 1.007245
v -0.3554077 0.1110493 0.4756377
v -0.3662814 0.1687279 0.4409142
v -0.3142428 0.3051968 0.6654416
v -0.3057674 0.2575827 0.6874572
v -0.2889619 0.1145808 0.4606964
v -0.3554077 0.1110493 0.4756377
v -0.3057674 0.2575827 0.6874572
v -0.2540028 0.2687868 0.6917606
v -0.375432 0.2975804 0.8268305
v -0.3416304 0.3111626 0.8406794
v -0.4524483 0.4203227 0.9292928
v -0.4289943 0.4232157 0.9309969
v -0.4140468 0.5124893 1.007245
v -0.2998355 0.1722594 0.4259728
v -0.2889619 0.1145808 0.4606964
v -0.2540028 0.2687868 0.6917606
v -0.2624783 0.3164009 0.6697451
v -0.3057674 0.2575827 0.6874572
v -0.3142428 0.3051968 0.6654416
v -0.3795418 0.3297873 0.8052748
v -0.375432 0.2975804 0.8268305
v -0.4532327 0.4367366 0.9122242
v -0.4524483 0.4203227 0.9292928
v -0.2624783 0.3164009 0.6697451
v -0.2540028 0.2687868 0.6917606
v -0.3416304 0.3111626 0.8406794
v -0.3457402 0.3433695 0.8191236
v -0.4289943 0.4232157 0.9309969
v -0.4297787 0.4396297 0.9139284
v 0.3280692 0.1200179 -0.4209886
v 0.3029472 0.1135352 -0.3996726
v 0.1329763 0.03591729 -0.6310948
v 0.1573037 0.04296736 -0.6376541
v 0.1727119 0.05162633 -0.846107
v 0.1883651 0.05633558 -0.8360561
v 0.3342806 0.08810096 -0.9682065
v 0.3426362 0.09085242 -0.9605442
v 0.4492844 0.0305075 -1.126591
v 0.3384413 0.08818279 -0.4184462
v 0.3280692 0.1200179 -0.4209886
v 0.1573037 0.04296736 -0.6376541
v 0.1647347 0.01788826 -0.6370493
v 0.1883651 0.05633558 -0.8360561
v 0.1938761 0.03795505 -0.8360269
v 0.3133193 0.08170014 -0.3971302
v 0.3384413 0.08818279 -0.4184462
v 0.1647347 0.01788826 -0.6370493
v 0.1404073 0.01083818 -0.6304899
v 0.1938761 0.03795505 -0.8360269
v 0.178223 0.03324579 -0.8460778
v 0.3443751 0.07952309 -0.9583722
v 0.3360196 0.07677163 -0.9660345
v 0.4492844 0.0305075 -1.126591
v 0.3029472 0.1135352 -0.3996726
v 0.3133193 0.08170014 -0.3971302
v 0.1404073 0.01083818 -0.6304899
v 0.1329763 0.03591729 -0.6310948
v 0.1329763 0.03591729 -0.6310948
v 0.1404073 0.01083818 -0.6304899
v 0.178223 0.03324579 -0.8460778
v 0.1727119 0.05162633 -0.846107
v 0.3360196 0.07677163 -0.9660345
v 0.3342806 0.08810096 -0.9682065
v 0.4492844 0.0305075 -1.126591
v 0.1938761 0.03795505 -0.8360269
v 0.1883651 0.05633558 -0.8360561
v 0.3426362 0.09085242 -0.9605442
v 0.3443751 0.07952309 -0.9583722
v 0.4492844 0.0305075 -1.126591
v -0.6495268 -0.002578691 0.4662158
v -0.6303458 -0.007445074 0.4463482
v -0.7889444 -0.0104339 0.2991849
v -0.7988332 -0.006908387 0.3183468
v -0.6468006 0.02502266 0.4620871
v -0.6495268 -0.002578691 0.4662158
v -0.7988332 -0.006908387 0.3183468
v -0.7949471 0.01450542 0.3164123
v -0.9279509 0.03095056 0.2853966
v -0.9191122 0.0441787 0.2873165
v -0.961303 0.1037875 0.2302745
v -0.9543477 0.1102905 0.2323349
v -1.098677 0.2322068 0.2145814
v -0.6276196 0.02015628 0.4422195
v -0.6468006 0.02502266 0.4620871
v -0.7949471 0.01450542 0.3164123
v -0.7850583 0.01097988 0.2972506
v -0.9191122 0.0441787 0.2873165
v -0.9125173 0.04186502 0.2728963
v -0.9543477 0.1102905 0.2323349
v -0.9507167 0.1092521 0.2233544
v -1.098677 0.2322068 0.2145814
v -0.6303458 -0.007445074 0.4463482
v -0.6276196 0.02015628 0.4422195
v -0.7850583 0.01097988 0.2972506
v -0.7889444 -0.0104339 0.2991849
v -0.9125173 0.04186502 0.2728963
v -0.9213558 0.02863687 0.2709765
v -0.9507167 0.1092521 0.2233544
v -0.9576719 0.102749 0.2212941
v -1.098677 0.2322068 0.2145814
v -0.7988332 -0.006908387 0.3183468
v -0.7889444 -0.0104339 0.2991849
v -0.9213558 0.02863687 0.2709765
v -0.9279509 0.03095056 0.2853966
v -0.9576719 0.102749 0.2212941
v -0.961303 0.1037875 0.2302745
v -1.098677 0.2322068 0.2145814
v -0.2976297 0.295174 0.7101851
v -0.2900407 0.2734088 0.6942165
v -0.4375347 0.1499551 0.7981165
v -0.4422028 0.1677158 0.8099555
v -0.5527901 0.1340465 0.8004839
v -0.5478219 0.1473155 0.8079698
v -0.3173248 0.3020539 0.6914477
v -0.2976297 0.295174 0.7101851
v -0.4422028 0.1677158 0.8099555
v -0.451704 0.1768388 0.7925231
v -0.5478219 0.1473155 0.8079698
v -0.545094 0.1542874 0.7938015
v -0.6512463 0.2771444 0.7990127
v -0.6449292 0.2768551 0.7916017
v -0.6514095 0.4063345 0.7032596
v -0.3097357 0.2802886 0.6754791
v -0.3173248 0.3020539 0.6914477
v -0.451704 0.1768388 0.7925231
v -0.447036 0.1590781 0.7806841
v -0.545094 0.1542874 0.7938015
v -0.5500622 0.1410183 0.7863156
v -0.2900407 0.2734088 0.6942165
v -0.3097357 0.2802886 0.6754791
v -0.447036 0.1590781 0.7806841
v -0.4375347 0.1499551 0.7981165
v -0.5500622 0.1410183 0.7863156
v -0.5527901 0.1340465 0.8004839
v -0.6515743 0.2723111 0.7861149
v -0.6578913 0.2726004 0.7935258
v -0.6514095 0.4063345 0.7032596
v -0.5478219 0.1473155 0.8079698
v -0.5527901 0.1340465 0.8004839
v -0.6578913 0.2726004 0.7935258
v -0.6512463 0.2771444 0.7990127
v -0.6514095 0.4063345 0.7032596
v -0.5500622 0.1410183 0.7863156
v -0.545094 0.1542874 0.7938015
v -0.6449292 0.2768551 0.7916017
v -0.6515743 0.2723111 0.7861149
v -0.6514095 0.4063345 0.7032596
v -0.718119 0.01425334 0.4720255
v -0.686996 0.01292303 0.4792324
v -0.6974546 0.243112 0.5449352
v -0.7190359 0.2400437 0.5385982
v -0.7859257 0.4068275 0.6174737
v -0.7948961 0.3984102 0.6116024
v -0.9922143 0.47867 0.6163089
v -0.7254226 0.006022066 0.5020467
v -0.718119 0.01425334 0.4720255
v -0.7190359 0.2400437 0.5385982
v -0.7239193 0.2318484 0.5591971
v -0.7948961 0.3984102 0.6116024
v -0.7972124 0.3924738 0.6236517
v -0.9922143 0.47867 0.6163089
v -0.6942994 0.004691713 0.5092536
v -0.7254226 0.006022066 0.5020467
v -0.7239193 0.2318484 0.5591971
v -0.7023379 0.2349167 0.5655342
v -0.7972124 0.3924738 0.6236517
v -0.7882419 0.4008911 0.6295232
v -0.9922143 0.47867 0.6163089
v -0.686996 0.01292303 0.4792324
v -0.6942994 0.004691713 0.5092536
v -0.7023379 0.2349167 0.5655342
v -0.6974546 0.243112 0.5449352
v -0.6974546 0.243112 0.5449352
v -0.7023379 0.2349167 0.5655342
v -0.7882419 0.4008911 0.6295232
v -0.7859257 0.4068275 0.6174737
v -0.9922143 0.47867 0.6163089
v 0.3758235 0.04536317 -0.4970844
v 0.3910035 0.02040252 -0.4840884
v 0.5623466 0.1519314 -0.4433575
v 0.5503429 0.1685877 -0.4530428
v 0.6372834 0.2882495 -0.3441405
v 0.6296401 0.297819 -0.3501236
v 0.3640106 0.0531135 -0.4684007
v 0.3758235 0.04536317 -0.4970844
v 0.5503429 0.1685877 -0.4530428
v 0.5377256 0.1704164 -0.4342602
v 0.6296401 0.297819 -0.3501236
v 0.6240852 0.3009192 -0.3380686
v 0.7973612 0.388477 -0.3902828
v 0.3791906 0.02815284 -0.4554047
v 0.3640106 0.0531135 -0.4684007
v 0.5377256 0.1704164 -0.4342602
v 0.5497293 0.1537602 -0.424575
v 0.6240852 0.3009192 -0.3380686
v 0.6317286 0.2913498 -0.3320855
v 0.3910035 0.02040252 -0.4840884
v 0.3791906 0.02815284 -0.4554047
v 0.5497293 0.1537602 -0.424575
v 0.5623466 0.1519314 -0.4433575
v 0.6317286 0.2913498 -0.3320855
v 0.6372834 0.2882495 -0.3441405
v 0.7973612 0.388477 -0.3902828
v 0.5199736 0.4130815 -0.01176722
v 0.4644099 0.4186136 -0.01539623
v 0.4390409 0.2287353 0.159729
v 0.4845777 0.2237385 0.1632883
v 0.5208883 0.4499017 0.0303579
v 0.5199736 0.4130815 -0.01176722
v 0.4845777 0.2237385 0.1632883
v 0.4873526 0.2642899 0.1847154
v 0.4653246 0.4554338 0.02672891
v 0.5208883 0.4499017 0.0303579
v 0.4873526 0.2642899 0.1847154
v 0.4418158 0.2692866 0.1811561
v 0.450599 0.232331 0.4696279
v 0.4149977 0.2311624 0.4782139
v 0.6001675 0.06929509 0.66394
v 0.5835099 0.06318574 0.6845335
v 0.8503697 0.1113124 0.7736065
v 0.8432317 0.1072801 0.7880269
v 1.047951 0.07533532 0.896794
v 0.4644099 0.4186136 -0.01539623
v 0.4653246 0.4554338 0.02672891
v 0.4418158 0.2692866 0.1811561
v 0.4390409 0.2287353 0.159729
v 0.4149977 0.2311624 0.4782139
v 0.413057 0.196854 0.4654975
v 0.5835099 0.06318574 0.6845335
v 0.5829586 0.03725579 0.6763952
v 0.8432317 0.1072801 0.7880269
v 0.8454754 0.0911974 0.7846401
v 1.047951 0.07533532 0.896794
v 0.4845777 0.2237385 0.1632883
v 0.4390409 0.2287353 0.159729
v 0.413057 0.196854 0.4654975
v 0.4486583 0.1980226 0.4569114
v 0.4873526 0.2642899 0.1847154
v 0.450599 0.232331 0.4696279
v 0.4486583 0.1980226 0.4569114
v 0.413057 0.196854 0.4654975
v 0.5829586 0.03725579 0.6763952
v 0.5996161 0.04336515 0.6558015
v 0.450599 0.232331 0.4696279
v 0.4486583 0.1980226 0.4569114
v 0.5996161 0.04336515 0.6558015
v 0.6001675 0.06929509 0.66394
v 0.8526133 0.09522977 0.7702198
v 0.8503697 0.1113124 0.7736065
v 1.047951 0.07533532 0.896794
v 0.5996161 0.04336515 0.6558015
v 0.5829586 0.03725579 0.6763952
v 0.8454754 0.0911974 0.7846401
v 0.8526133 0.09522977 0.7702198
v 1.047951 0.07533532 0.896794
v 0.5292088 0.09933762 0.5889891
v 0.5189941 0.1148214 0.5866684
v 0.4329393 0.08245444 0.7824912
v 0.4390153 0.07368124 0.7829839
v 0.5427228 0.1094561 0.5970178
v 0.5292088 0.09933762 0.5889891
v 0.4390153 0.07368124 0.7829839
v 0.4477125 0.07977101 0.7841683
v 0.4620935 0.0915557 0.8883446
v 0.5325081 0.1249399 0.5946972
v 0.5427228 0.1094561 0.5970178
v 0.4477125 0.07977101 0.7841683
v 0.4416365 0.08854423 0.7836756
v 0.5189941 0.1148214 0.5866684
v 0.5325081 0.1249399 0.5946972
v 0.4416365 0.08854423 0.7836756
v 0.4329393 0.08245444 0.7824912
v 0.4620935 0.0915557 0.8883446
v -0.8984379 0.018528 0.6219278
v -0.9159304 0.01592126 0.6394919
v -1.007401 0.08161515 0.5499071
v -1.000364 0.0853011 0.5380837
v -1.107592 0.1521911 0.5465367
v -0.9054793 -0.003087692 0.6117069
v -0.8984379 0.018528 0.6219278
v -1.000364 0.0853011 0.5380837
v -1.006078 0.07420243 0.5312231
v -1.107592 0.1521911 0.5465367
v -0.9229719 -0.005694404 0.629271
v -0.9054793 -0.003087692 0.6117069
v -1.006078 0.07420243 0.5312231
v -1.013115 0.07051645 0.5430464
v -1.107592 0.1521911 0.5465367
v -0.9159304 0.01592126 0.6394919
v -0.9229719 -0.005694404 0.629271
v -1.013115 0.07051645 0.5430464
v -1.007401 0.08161515 0.5499071
v -1.107592 0.1521911 0.5465367
v 0.4858891 0.1694626 0.5214792
v 0.4975665 0.1538271 0.5342681
v 0.5146382 0.2711146 0.6523255
v 0.5089199 0.282544 0.6485237
v 0.5627905 0.2921686 0.7850084
v 0.4659692 0.162999 0.5317656
v 0.4858891 0.1694626 0.5214792
v 0.5089199 0.282544 0.6485237
v 0.4974841 0.2787139 0.6542103
v 0.5627905 0.2921686 0.7850084
v 0.4776467 0.1473634 0.5445545
v 0.4659692 0.162999 0.5317656
v 0.4974841 0.2787139 0.6542103
v 0.5032025 0.2672845 0.658012
v 0.5627905 0.2921686 0.7850084
v 0.4975665 0.1538271 0.5342681
v 0.4776467 0.1473634 0.5445545
v 0.5032025 0.2672845 0.658012
v 0.5146382 0.2711146 0.6523255
v 0.5627905 0.2921686 0.7850084
v 1.145799 0.2543971 0.01387852
v 1.133818 0.22615 -0.006296031
v 1.23895 0.05270907 0.1830627
v 1.2447 0.0792836 0.1919742
v 1.300657 0.04657504 0.342551
v 1.302391 0.067258 0.3456454
v 1.447073 0.01094967 0.4037328
v 1.446593 0.02367494 0.4045059
v 1.543107 0.04739398 0.4738372
v 1.11412 0.2545693 0.03244985
v 1.145799 0.2543971 0.01387852
v 1.2447 0.0792836 0.1919742
v 1.219173 0.08049223 0.2048419
v 1.302391 0.067258 0.3456454
v 1.287519 0.06629461 0.3604198
v 1.446593 0.02367494 0.4045059
v 1.440811 0.02276826 0.415842
v 1.10214 0.2263222 0.01227524
v 1.11412 0.2545693 0.03244985
v 1.219173 0.08049223 0.2048419
v 1.213423 0.05391777 0.1959305
v 1.287519 0.06629461 0.3604198
v 1.285785 0.04561165 0.3573255
v 1.440811 0.02276826 0.415842
v 1.44129 0.01004294 0.4150688
v 1.543107 0.04739398 0.4738372
v 1.133818 0.22615 -0.006296031
v 1.10214 0.2263222 0.01227524
v 1.213423 0.05391777 0.1959305
v 1.23895 0.05270907 0.1830627
v 1.23895 0.05270907 0.1830627
v 1.213423 0.05391777 0.1959305
v 1.285785 0.04561165 0.3573255
v 1.300657 0.04657504 0.342551
v 1.300657 0.04657504 0.342551
v 1.285785 0.04561165 0.3573255
v 1.44129 0.01004294 0.4150688
v 1.447073 0.01094967 0.4037328
v 0.9167132 0.3417324 0.07339919
v 0.9320764 0.3246734 0.09365185
v 1.011049 0.2360345 -0.04817171
v 0.9981008 0.2511031 -0.05698627
v 1.00319 0.2139524 -0.1881508
v 0.9945951 0.2236101 -0.1899306
v 1.092466 0.2704277 -0.3205405
v 0.9398178 0.3618073 0.07278176
v 0.9167132 0.3417324 0.07339919
v 0.9981008 0.2511031 -0.05698627
v 1.015085 0.2645146 -0.0590071
v 0.9945951 0.2236101 -0.1899306
v 1.003846 0.2323665 -0.1870911
v 1.092466 0.2704277 -0.3205405
v 0.955181 0.3447483 0.09303448
v 0.9398178 0.3618073 0.07278176
v 1.015085 0.2645146 -0.0590071
v 1.028033 0.249446 -0.05019261
v 0.9320764 0.3246734 0.09365185
v 0.955181 0.3447483 0.09303448
v 1.028033 0.249446 -0.05019261
v 1.011049 0.2360345 -0.04817171
v 1.012441 0.2227088 -0.1853114
v 1.00319 0.2139524 -0.1881508
v 1.092466 0.2704277 -0.3205405
v 1.028033 0.249446 -0.05019261
v 1.015085 0.2645146 -0.0590071
v 1.003846 0.2323665 -0.1870911
v 1.012441 0.2227088 -0.1853114
v 0.9939067 0.303268 0.08786993
v 0.976931 0.327462 0.09423578
v 1.083701 0.3531324 0.2633858
v 1.095031 0.3336362 0.2565692
v 1.013813 0.3209905 0.07359673
v 0.9939067 0.303268 0.08786993
v 1.095031 0.3336362 0.2565692
v 1.101556 0.344392 0.2366521
v 1.222839 0.3985951 0.2396946
v 1.225568 0.4060401 0.2243443
v 1.220342 0.4141474 0.2467938
v 1.083701 0.3531324 0.2633858
v 0.9968369 0.3451845 0.07996253
v 1.013813 0.3209905 0.07359673
v 1.101556 0.344392 0.2366521
v 1.090225 0.3638881 0.2434687
v 0.976931 0.327462 0.09423578
v 0.9968369 0.3451845 0.07996253
v 1.090225 0.3638881 0.2434687
v 1.083701 0.3531324 0.2633858
v 1.090225 0.3638881 0.2434687
v 1.101556 0.344392 0.2366521
v 1.225568 0.4060401 0.2243443
v 1.223071 0.4215925 0.2314435
v 1.083701 0.3531324 0.2633858
v 1.090225 0.3638881 0.2434687
v 1.223071 0.4215925 0.2314435
v 1.220342 0.4141474 0.2467938
v 1.331823 0.3767751 0.2932522
v 1.328372 0.372259 0.3020855
v 1.490577 0.3976209 0.3232693
v 1.222839 0.3985951 0.2396946
v 1.220342 0.4141474 0.2467938
v 1.328372 0.372259 0.3020855
v 1.329204 0.3628078 0.2975785
v 1.490577 0.3976209 0.3232693
v 1.225568 0.4060401 0.2243443
v 1.222839 0.3985951 0.2396946
v 1.329204 0.3628078 0.2975785
v 1.332655 0.3673239 0.2887452
v 1.223071 0.4215925 0.2314435
v 1.225568 0.4060401 0.2243443
v 1.332655 0.3673239 0.2887452
v 1.331823 0.3767751 0.2932522
v 1.490577 0.3976209 0.3232693
v 0.6210953 -0.08710552 0.3976618
v 0.6133271 -0.07777105 0.3680833
v 0.7950851 0.07821119 0.3749235
v 0.7972463 0.06903701 0.3955751
v 0.6411019 -0.1088982 0.3855301
v 0.6210953 -0.08710552 0.3976618
v 0.7972463 0.06903701 0.3955751
v 0.8094851 0.05207245 0.3867579
v 0.6333336 -0.0995637 0.3559516
v 0.96948 0.1359122 0.4406036
v 0.8073239 0.06124666 0.3661063
v 0.9757814 0.1252929 0.4348318
v 0.9812645 0.1336053 0.4255241
v 1.095849 0.1148507 0.6108552
v 0.6133271 -0.07777105 0.3680833
v 0.6333336 -0.0995637 0.3559516
v 0.8073239 0.06124666 0.3661063
v 0.7950851 0.07821119 0.3749235
v 0.7972463 0.06903701 0.3955751
v 0.7950851 0.07821119 0.3749235
v 0.9749631 0.1442247 0.431296
v 0.96948 0.1359122 0.4406036
v 1.095849 0.1148507 0.6108552
v 0.7950851 0.07821119 0.3749235
v 0.8073239 0.06124666 0.3661063
v 0.9812645 0.1336053 0.4255241
v 0.9749631 0.1442247 0.431296
v 1.095849 0.1148507 0.6108552
v -0.8379409 0.01064254 0.5531551
v -0.8168771 0.0228579 0.5374742
v -0.6684596 0.05642994 0.7714408
v -0.6857582 0.04737579 0.7778887
v -0.8255749 -0.01529829 0.5495581
v -0.8379409 0.01064254 0.5531551
v -0.6857582 0.04737579 0.7778887
v -0.6772481 0.02891475 0.7747963
v -0.6517881 0.01678664 0.9805621
v -0.6466169 0.005661808 0.9819505
v -0.8045112 -0.003082924 0.5338773
v -0.8255749 -0.01529829 0.5495581
v -0.6772481 0.02891475 0.7747963
v -0.6599497 0.0379689 0.7683485
v -0.6466169 0.005661808 0.9819505
v -0.6360886 0.0110061 0.985559
v -0.7860749 0.03177175 1.129886
v -0.8168771 0.0228579 0.5374742
v -0.8045112 -0.003082924 0.5338773
v -0.6599497 0.0379689 0.7683485
v -0.6684596 0.05642994 0.7714408
v -0.6360886 0.0110061 0.985559
v -0.6412597 0.02213094 0.9841706
v -0.6857582 0.04737579 0.7778887
v -0.6684596 0.05642994 0.7714408
v -0.6412597 0.02213094 0.9841706
v -0.6517881 0.01678664 0.9805621
vn -0.1034647 -0.7462171 0.6576132
vn 0.4645133 0.110365 0.878662
vn 0.9303425 -0.3553277 -0.09058128
vn 0.1059378 0.6022646 -0.7912361
vn -0.3913136 -0.1943807 -0.8994942
vn 0.9303425 -0.3553277 -0.09058128
vn 0.6703686 0.6367002 0.3810759
vn 0.7160548 -0.4637475 0.5217316
vn -0.1762242 0.1855099 0.9667115
vn -0.7669479 -0.4648559 0.4423798
vn -0.7780468 0.4221741 -0.4652013
vn 0.2179148 0.6774812 0.7025186
vn 0.5538017 0.7022994 -0.4473024
vn 0.6026329 -0.4022838 0.6892034
vn 0.2179148 0.6774812 0.7025186
vn -0.2007998 0.4876971 -0.8496063
vn 0.7262004 -0.674678 -0.1320704
vn 0.8436782 0.4759992 -0.2482576
vn 0.04071957 -0.222177 0.9741557
vn -0.6436672 0.641447 0.4174187
vn 0.8436782 0.4759992 -0.2482576
vn -0.2888463 -0.9572381 -0.01621318
vn -0.9911897 0.1109616 -0.07232235
vn 0.2010168 0.09648709 0.9748243
vn 0.0229814 0.9964287 0.08125143
vn 0.9483222 -0.2748486 0.1585665
vn 0.2010168 0.09648709 0.9748243
vn -0.3188217 0.5912331 0.7408078
vn 0.3790754 0.6847754 -0.6224022
vn 0.813602 0.2496254 0.5251085
vn 0.378917 -0.6783074 -0.6295404
vn -0.212499 -0.821155 0.5296685
vn 0.813602 0.2496254 0.5251085
vn 0.9588005 -0.2124273 0.1886166
vn -0.09290303 0.9948899 -0.03953574
vn 0.5328664 0.2831519 -0.7974198
vn 0.2991301 -0.4581325 -0.8370399
vn -0.155157 -0.9322869 0.326753
vn 0.971092 0.1685742 0.1690065
vn 0.1731516 -0.9809276 0.08831497
vn -0.5782627 0.2808155 0.7659994
vn 0.5587664 -0.09212505 0.8241924
vn -0.8951436 0.3693583 -0.2495843
vn 0.4735431 0.8558047 0.2082192
vn -0.6925571 0.08722599 0.7160701
vn -0.1444385 -0.9890527 -0.03020494
vn -0.8951436 0.3693583 -0.2495843
vn -0.6925571 0.08722599 0.7160701
vn 0.4735431 0.8558047 0.2082192
vn 0.8880845 -0.3307461 0.3192382
vn -0.6925571 0.08722599 0.7160701
vn 0.9765726 0.06214543 -0.206019
vn 0.6731574 -0.002249772 0.7394958
vn 0.6305659 -0.06806207 0.7731457
vn 0.9705478 -0.1190749 -0.2094235
vn 0.5354282 -0.2302366 0.8125932
vn 0.7534371 -0.6361931 -0.166105
vn 0.1346201 -0.5893234 0.7966024
vn 0.2843745 -0.9294028 -0.235248
vn -0.1510151 0.4926843 0.8570043
vn -0.1681729 0.4114265 0.8957935
vn -0.2195597 -0.5825699 0.7825637
vn -0.08332445 -0.9869288 -0.1379443
vn -0.04785929 -0.6194834 0.7835495
vn -0.4478409 -0.8889228 -0.09620192
vn -0.1034647 -0.7462171 0.6576132
vn -0.4979251 -0.835872 -0.2310596
vn 0.9303425 -0.3553277 -0.09058128
vn 0.4645133 0.110365 0.878662
vn 0.4014632 0.1903976 0.8958661
vn 0.3130429 0.1065676 -0.9437413
vn 0.9765726 0.06214543 -0.206019
vn 0.9705478 -0.1190749 -0.2094235
vn 0.2613248 0.01204568 -0.9651757
vn 0.7534371 -0.6361931 -0.166105
vn 0.09042082 -0.2208483 -0.9711077
vn -0.6691316 0.09024306 -0.7376444
vn 0.3130429 0.1065676 -0.9437413
vn 0.2613248 0.01204568 -0.9651757
vn -0.6893995 0.1879552 -0.6995721
vn -0.9769316 0.03007208 0.2114243
vn -0.6691316 0.09024306 -0.7376444
vn -0.6893995 0.1879552 -0.6995721
vn -0.9467019 0.2348932 0.2204104
vn -0.3083451 -0.01806214 0.9511031
vn -0.9769316 0.03007208 0.2114243
vn -0.9467019 0.2348932 0.2204104
vn -0.3318909 0.1129431 0.936532
vn 0.6731574 -0.002249772 0.7394958
vn -0.6771799 0.7132904 0.1806768
vn 0.6305659 -0.06806207 0.7731457
vn -0.1681729 0.4114265 0.8957935
vn 0.5354282 -0.2302366 0.8125932
vn -0.6893995 0.1879552 -0.6995721
vn 0.2613248 0.01204568 -0.9651757
vn 0.09042082 -0.2208483 -0.9711077
vn -0.5751466 0.4330763 -0.694011
vn 0.1677665 -0.2956066 -0.9404633
vn -0.06950296 0.5937928 -0.8016105
vn 0.2843745 -0.9294028 -0.235248
vn 0.7534371 -0.6361931 -0.166105
vn -0.08332445 -0.9869288 -0.1379443
vn 0.1806377 -0.3086961 -0.9338505
vn -0.4478409 -0.8889228 -0.09620192
vn -0.3275238 -0.1735124 -0.9287743
vn -0.4979251 -0.835872 -0.2310596
vn -0.3913136 -0.1943807 -0.8994942
vn 0.9303425 -0.3553277 -0.09058128
vn -0.9467019 0.2348932 0.2204104
vn -0.6893995 0.1879552 -0.6995721
vn -0.5751466 0.4330763 -0.694011
vn -0.6771799 0.7132904 0.1806768
vn -0.06950296 0.5937928 -0.8016105
vn -0.2228304 0.9744402 0.02851392
vn 0.2674724 0.6815954 -0.681092
vn 0.1206296 0.9646086 0.2344757
vn -0.1681729 0.4114265 0.8957935
vn -0.6771799 0.7132904 0.1806768
vn -0.2228304 0.9744402 0.02851392
vn -0.1510151 0.4926843 0.8570043
vn 0.1206296 0.9646086 0.2344757
vn -0.1118587 0.3552485 0.928055
vn 0.5268442 0.8175641 0.2324312
vn 0.4014632 0.1903976 0.8958661
vn 0.2067418 0.7142073 -0.6687046
vn 0.2674724 0.6815954 -0.681092
vn 0.1059378 0.6022646 -0.7912361
vn 0.5651014 0.820924 0.08212363
vn 0.4645133 0.110365 0.878662
vn 0.9303425 -0.3553277 -0.09058128
vn 0.1346201 -0.5893234 0.7966024
vn -0.1510151 0.4926843 0.8570043
vn -0.1118587 0.3552485 0.928055
vn -0.2195597 -0.5825699 0.7825637
vn 0.4014632 0.1903976 0.8958661
vn -0.04785929 -0.6194834 0.7835495
vn -0.06950296 0.5937928 -0.8016105
vn 0.1677665 -0.2956066 -0.9404633
vn 0.1806377 -0.3086961 -0.9338505
vn 0.2674724 0.6815954 -0.681092
vn -0.3275238 -0.1735124 -0.9287743
vn 0.2067418 0.7142073 -0.6687046
vn 0.2067418 0.7142073 -0.6687046
vn -0.3275238 -0.1735124 -0.9287743
vn -0.3913136 -0.1943807 -0.8994942
vn 0.1059378 0.6022646 -0.7912361
vn -0.1036215 0.994269 -0.02630132
vn 0.7573085 0.5768996 0.3060566
vn 0.6272684 0.5386317 0.5625036
vn 0.03386784 0.9994262 0.0005549703
vn -0.0255475 0.5482014 0.835956
vn -0.2685977 0.9615973 0.05644475
vn 0.2120659 -0.3241802 0.9219193
vn 0.6535221 -0.3820435 0.6534154
vn -0.8669386 0.4065712 -0.2883007
vn -0.1036215 0.994269 -0.02630132
vn 0.03386784 0.9994262 0.0005549703
vn -0.6700963 0.4549898 -0.5864769
vn -0.2685977 0.9615973 0.05644475
vn -0.3092561 0.5344155 -0.7866135
vn -0.3812758 0.9198832 -0.09188977
vn -0.277783 0.3389632 -0.8988551
vn -0.1786698 0.9796653 -0.09128539
vn -0.5607384 0.352568 -0.7491783
vn -0.1875179 0.9730022 -0.1345499
vn -0.8343306 0.3406551 -0.4334127
vn -0.1762242 0.1855099 0.9667115
vn -0.7871769 -0.5699003 -0.2357247
vn -0.8669386 0.4065712 -0.2883007
vn -0.6700963 0.4549898 -0.5864769
vn -0.606483 -0.662056 -0.4402957
vn 0.07072256 -0.9934736 0.08949088
vn -0.3092561 0.5344155 -0.7866135
vn 0.0889555 -0.9765483 0.1960625
vn -0.05818819 -0.5052792 -0.8609919
vn 0.2382781 -0.9570677 0.1650605
vn 0.8378571 -0.4073295 0.3634256
vn 0.07072256 -0.9934736 0.08949088
vn 0.0889555 -0.9765483 0.1960625
vn 0.6535221 -0.3820435 0.6534154
vn 0.7573085 0.5768996 0.3060566
vn 0.6272684 0.5386317 0.5625036
vn 0.2382781 -0.9570677 0.1650605
vn 0.2120659 -0.3241802 0.9219193
vn 0.286144 -0.9560235 -0.06434869
vn 0.2422302 -0.5360883 0.8086618
vn 0.04075246 -0.5338789 -0.8445783
vn -0.05818819 -0.5052792 -0.8609919
vn 0.03333951 -0.9982361 0.04912544
vn 0.4613689 -0.421322 0.7807859
vn -0.0618227 -0.9882305 0.1399233
vn 0.7160548 -0.4637475 0.5217316
vn -0.1762242 0.1855099 0.9667115
vn -0.2685977 0.9615973 0.05644475
vn -0.1010186 0.4804405 0.8711901
vn -0.3812758 0.9198832 -0.09188977
vn -0.0255475 0.5482014 0.835956
vn 0.2422302 -0.5360883 0.8086618
vn 0.2120659 -0.3241802 0.9219193
vn -0.05818819 -0.5052792 -0.8609919
vn -0.3092561 0.5344155 -0.7866135
vn -0.277783 0.3389632 -0.8988551
vn 0.04075246 -0.5338789 -0.8445783
vn 0.04075246 -0.5338789 -0.8445783
vn -0.277783 0.3389632 -0.8988551
vn -0.5607384 0.352568 -0.7491783
vn -0.4511852 -0.5876132 -0.6716716
vn 0.286144 -0.9560235 -0.06434869
vn -0.8343306 0.3406551 -0.4334127
vn 0.03333951 -0.9982361 0.04912544
vn -0.767679 -0.5653779 -0.30169
vn -0.1762242 0.1855099 0.9667115
vn -0.0618227 -0.9882305 0.1399233
vn -0.1010186 0.4804405 0.8711901
vn 0.2422302 -0.5360883 0.8086618
vn 0.4613689 -0.421322 0.7807859
vn 0.3511328 0.6184303 0.7030291
vn -0.3812758 0.9198832 -0.09188977
vn 0.7160548 -0.4637475 0.5217316
vn -0.1786698 0.9796653 -0.09128539
vn 0.6703686 0.6367002 0.3810759
vn -0.1875179 0.9730022 -0.1345499
vn -0.1762242 0.1855099 0.9667115
vn -0.2229918 0.7393149 -0.6353646
vn -0.9740285 -0.1459359 0.1731217
vn -0.9380931 -0.3312351 -0.1013143
vn -0.3349524 0.6596902 -0.6727673
vn -0.6460959 -0.6200999 -0.4450125
vn -0.2947973 0.7005933 -0.6498182
vn -0.6346813 -0.6649935 -0.3936537
vn -0.3225773 0.8968447 -0.3026773
vn 0.09862666 -0.008309564 -0.9950898
vn 0.9669369 0.09184188 -0.2379037
vn -0.2229918 0.7393149 -0.6353646
vn -0.3349524 0.6596902 -0.6727673
vn 0.9450799 0.3267235 0.008712732
vn 0.2217249 -0.7932918 0.5670328
vn 0.9669369 0.09184188 -0.2379037
vn 0.9450799 0.3267235 0.008712732
vn 0.07413082 -0.799115 0.5965902
vn 0.7388532 0.4969932 0.4550754
vn 0.2372738 -0.8265894 0.5103441
vn 0.8138694 0.4861827 0.3181869
vn 0.5963975 -0.7591975 0.2606322
vn 0.09862666 -0.008309564 -0.9950898
vn -0.9740285 -0.1459359 0.1731217
vn 0.2217249 -0.7932918 0.5670328
vn 0.07413082 -0.799115 0.5965902
vn -0.9380931 -0.3312351 -0.1013143
vn 0.9450799 0.3267235 0.008712732
vn -0.3349524 0.6596902 -0.6727673
vn -0.2947973 0.7005933 -0.6498182
vn 0.7388532 0.4969932 0.4550754
vn -0.3225773 0.8968447 -0.3026773
vn 0.8138694 0.4861827 0.3181869
vn 0.09862666 -0.008309564 -0.9950898
vn -0.9380931 -0.3312351 -0.1013143
vn 0.07413082 -0.799115 0.5965902
vn 0.2372738 -0.8265894 0.5103441
vn -0.6460959 -0.6200999 -0.4450125
vn 0.5963975 -0.7591975 0.2606322
vn -0.6346813 -0.6649935 -0.3936537
vn 0.09862666 -0.008309564 -0.9950898
vn -0.7964191 0.5815351 -0.1659325
vn 0.5825795 0.6563162 -0.4794269
vn 0.6082619 0.7727189 -0.1814469
vn -0.7137569 0.6155092 -0.3342148
vn 0.5730626 0.8190402 -0.02779203
vn -0.7699445 0.2829681 -0.5719392
vn 0.5538017 0.7022994 -0.4473024
vn -0.7780468 0.4221741 -0.4652013
vn 0.2179148 0.6774812 0.7025186
vn -0.5711145 -0.6091259 0.5502672
vn -0.7964191 0.5815351 -0.1659325
vn -0.7137569 0.6155092 -0.3342148
vn -0.4985845 -0.8043072 0.3232699
vn 0.807003 -0.5388932 0.2415374
vn -0.5711145 -0.6091259 0.5502672
vn -0.4985845 -0.8043072 0.3232699
vn 0.8618366 -0.3601922 0.3570704
vn -0.5186694 -0.825145 0.22387
vn 0.6179038 -0.3778866 0.6894902
vn -0.7669479 -0.4648559 0.4423798
vn 0.6026329 -0.4022838 0.6892034
vn 0.2179148 0.6774812 0.7025186
vn 0.5825795 0.6563162 -0.4794269
vn 0.807003 -0.5388932 0.2415374
vn 0.8618366 -0.3601922 0.3570704
vn 0.6082619 0.7727189 -0.1814469
vn -0.4985845 -0.8043072 0.3232699
vn -0.7137569 0.6155092 -0.3342148
vn -0.7699445 0.2829681 -0.5719392
vn -0.5186694 -0.825145 0.22387
vn -0.7780468 0.4221741 -0.4652013
vn -0.7669479 -0.4648559 0.4423798
vn 0.6082619 0.7727189 -0.1814469
vn 0.8618366 -0.3601922 0.3570704
vn 0.6179038 -0.3778866 0.6894902
vn 0.5730626 0.8190402 -0.02779203
vn 0.6026329 -0.4022838 0.6892034
vn 0.5538017 0.7022994 -0.4473024
vn 0.3000027 0.8001198 -0.5194294
vn -0.7594526 0.5287114 0.3790726
vn -0.9147785 0.3679527 0.1667068
vn 0.3115356 0.9309494 -0.1904697
vn -0.8003187 0.4254738 -0.4224477
vn 0.2674659 0.920653 0.2843592
vn -0.5330718 0.6267589 -0.5683378
vn 0.4313289 0.8436081 0.3198136
vn 0.5390823 -0.2613795 -0.8006692
vn 0.7356307 -0.5369948 -0.4128973
vn 0.3000027 0.8001198 -0.5194294
vn 0.3115356 0.9309494 -0.1904697
vn 0.7581561 -0.6359171 -0.1442527
vn 0.2674659 0.920653 0.2843592
vn 0.7362396 -0.6060735 0.3010419
vn -0.3228964 -0.8117514 0.4866185
vn 0.7356307 -0.5369948 -0.4128973
vn 0.7581561 -0.6359171 -0.1442527
vn -0.53662 -0.8216739 0.1920699
vn 0.7362396 -0.6060735 0.3010419
vn -0.4459796 -0.7905141 -0.4197495
vn 0.6754637 -0.4250824 0.6025394
vn -0.3819071 -0.8501605 -0.3624558
vn 0.5390823 -0.2613795 -0.8006692
vn -0.7594526 0.5287114 0.3790726
vn -0.3228964 -0.8117514 0.4866185
vn -0.53662 -0.8216739 0.1920699
vn -0.9147785 0.3679527 0.1667068
vn -0.9147785 0.3679527 0.1667068
vn -0.53662 -0.8216739 0.1920699
vn -0.4459796 -0.7905141 -0.4197495
vn -0.8003187 0.4254738 -0.4224477
vn -0.3819071 -0.8501605 -0.3624558
vn -0.5330718 0.6267589 -0.5683378
vn 0.5390823 -0.2613795 -0.8006692
vn 0.7362396 -0.6060735 0.3010419
vn 0.2674659 0.920653 0.2843592
vn 0.4313289 0.8436081 0.3198136
vn 0.6754637 -0.4250824 0.6025394
vn 0.5390823 -0.2613795 -0.8006692
vn -0.5693653 -0.5723627 0.5901052
vn 0.3989665 -0.8192058 -0.4119802
vn 0.2026442 -0.7655093 -0.6106806
vn -0.4400997 -0.6836457 0.5821864
vn -0.4316754 0.8171161 0.3820702
vn -0.5693653 -0.5723627 0.5901052
vn -0.4400997 -0.6836457 0.5821864
vn -0.1927908 0.845476 0.4979981
vn -0.70625 -0.4622056 0.5362621
vn -0.04507197 0.6219947 0.7817231
vn -0.8116693 -0.4091009 0.4169287
vn 0.3122668 0.6266814 0.7139747
vn -0.7489427 0.6595545 -0.06381822
vn 0.5358115 0.5730689 -0.620079
vn -0.4316754 0.8171161 0.3820702
vn -0.1927908 0.845476 0.4979981
vn 0.4428862 0.502331 -0.7426408
vn -0.04507197 0.6219947 0.7817231
vn 0.6424083 0.4496199 -0.6206075
vn 0.3122668 0.6266814 0.7139747
vn 0.7383394 0.4009406 -0.5423114
vn -0.7489427 0.6595545 -0.06381822
vn 0.3989665 -0.8192058 -0.4119802
vn 0.5358115 0.5730689 -0.620079
vn 0.4428862 0.502331 -0.7426408
vn 0.2026442 -0.7655093 -0.6106806
vn 0.6424083 0.4496199 -0.6206075
vn -0.2470372 -0.7467117 -0.6175712
vn 0.7383394 0.4009406 -0.5423114
vn -0.1618626 -0.4653807 -0.8701847
vn -0.7489427 0.6595545 -0.06381822
vn -0.4400997 -0.6836457 0.5821864
vn 0.2026442 -0.7655093 -0.6106806
vn -0.2470372 -0.7467117 -0.6175712
vn -0.70625 -0.4622056 0.5362621
vn -0.1618626 -0.4653807 -0.8701847
vn -0.8116693 -0.4091009 0.4169287
vn -0.7489427 0.6595545 -0.06381822
vn 0.2898971 0.3625022 0.8857493
vn 0.6731694 -0.7350833 0.08059409
vn 0.4421356 -0.8567946 0.265366
vn 0.1822677 0.1809525 0.9664547
vn -0.3696276 -0.9037837 0.2157552
vn -0.02533939 0.0370112 0.9989936
vn -0.7033817 0.7082349 -0.0604787
vn 0.2898971 0.3625022 0.8857493
vn 0.1822677 0.1809525 0.9664547
vn -0.4681616 0.8795258 -0.08520006
vn -0.02533939 0.0370112 0.9989936
vn 0.2976472 0.8882765 -0.3498158
vn -0.09545012 0.3485644 0.932412
vn 0.9199548 0.3883468 -0.05357148
vn -0.0001159455 0.8276569 -0.5612344
vn -0.321849 -0.3869829 -0.8640934
vn -0.7033817 0.7082349 -0.0604787
vn -0.4681616 0.8795258 -0.08520006
vn -0.1174676 -0.4329447 -0.8937339
vn 0.2976472 0.8882765 -0.3498158
vn -0.1830006 -0.4146048 -0.891411
vn 0.6731694 -0.7350833 0.08059409
vn -0.321849 -0.3869829 -0.8640934
vn -0.1174676 -0.4329447 -0.8937339
vn 0.4421356 -0.8567946 0.265366
vn -0.1830006 -0.4146048 -0.891411
vn -0.3696276 -0.9037837 0.2157552
vn -0.2271544 -0.3886257 -0.8929564
vn -0.9380776 -0.2551397 0.2343379
vn -0.0001159455 0.8276569 -0.5612344
vn -0.02533939 0.0370112 0.9989936
vn -0.3696276 -0.9037837 0.2157552
vn -0.9380776 -0.2551397 0.2343379
vn -0.09545012 0.3485644 0.932412
vn -0.0001159455 0.8276569 -0.5612344
vn -0.1830006 -0.4146048 -0.891411
vn 0.2976472 0.8882765 -0.3498158
vn 0.9199548 0.3883468 -0.05357148
vn -0.2271544 -0.3886257 -0.8929564
vn -0.0001159455 0.8276569 -0.5612344
vn -0.528277 0.238877 -0.8147768
vn 0.8488531 0.1798628 -0.4970894
vn 0.826555 0.3734991 -0.4210763
vn -0.4498129 0.2190973 -0.8658319
vn 0.6002643 0.7736592 -0.202816
vn -0.2761332 0.0181912 -0.9609472
vn -0.9301661 0.3666229 -0.01946144
vn -0.8502507 -0.1248415 0.5113593
vn -0.528277 0.238877 -0.8147768
vn -0.4498129 0.2190973 -0.8658319
vn -0.8147782 -0.3236925 0.4809986
vn -0.2761332 0.0181912 -0.9609472
vn -0.5590024 -0.6843777 0.4681276
vn -0.9301661 0.3666229 -0.01946144
vn 0.5251015 -0.1838968 0.8309334
vn -0.8502507 -0.1248415 0.5113593
vn -0.8147782 -0.3236925 0.4809986
vn 0.5872107 -0.09796028 0.8034846
vn -0.5590024 -0.6843777 0.4681276
vn 0.3734222 0.2220206 0.9007013
vn -0.9301661 0.3666229 -0.01946144
vn 0.8488531 0.1798628 -0.4970894
vn 0.5251015 -0.1838968 0.8309334
vn 0.5872107 -0.09796028 0.8034846
vn 0.826555 0.3734991 -0.4210763
vn 0.826555 0.3734991 -0.4210763
vn 0.5872107 -0.09796028 0.8034846
vn 0.3734222 0.2220206 0.9007013
vn 0.6002643 0.7736592 -0.202816
vn -0.9301661 0.3666229 -0.01946144
vn -0.04974852 0.3994056 -0.9154235
vn 0.6216883 -0.70511 -0.3410623
vn 0.7864526 -0.5288095 -0.3191436
vn 0.1113764 0.426441 -0.8976321
vn 0.7262004 -0.674678 -0.1320704
vn -0.2007998 0.4876971 -0.8496063
vn -0.5711531 0.7408351 0.3534792
vn -0.04974852 0.3994056 -0.9154235
vn 0.1113764 0.426441 -0.8976321
vn -0.7397958 0.6298601 0.2365978
vn -0.2007998 0.4876971 -0.8496063
vn -0.6436672 0.641447 0.4174187
vn 0.8436782 0.4759992 -0.2482576
vn 0.09875593 -0.3605765 0.9274869
vn -0.5711531 0.7408351 0.3534792
vn -0.7397958 0.6298601 0.2365978
vn 0.09434384 -0.5010323 0.8602708
vn -0.6436672 0.641447 0.4174187
vn 0.04071957 -0.222177 0.9741557
vn 0.6216883 -0.70511 -0.3410623
vn 0.09875593 -0.3605765 0.9274869
vn 0.09434384 -0.5010323 0.8602708
vn 0.7864526 -0.5288095 -0.3191436
vn 0.04071957 -0.222177 0.9741557
vn 0.7262004 -0.674678 -0.1320704
vn 0.8436782 0.4759992 -0.2482576
vn 0.6862901 -0.5588447 -0.465509
vn -0.7170273 -0.4191176 -0.5569671
vn -0.663587 -0.63706 -0.3921821
vn 0.5961665 -0.7509763 -0.2839371
vn 0.7068809 0.3724498 0.6013324
vn 0.6862901 -0.5588447 -0.465509
vn 0.5961665 -0.7509763 -0.2839371
vn 0.8222464 0.4327896 0.3695998
vn -0.6915402 0.5116545 0.5098842
vn 0.7068809 0.3724498 0.6013324
vn 0.8222464 0.4327896 0.3695998
vn -0.7644254 0.5972369 0.2428209
vn 0.6237029 0.7655803 0.1577387
vn -0.6372532 0.6428543 0.4250254
vn 0.448681 0.8458503 -0.2884835
vn -0.4913341 0.3345572 0.8041531
vn 0.234735 0.8607844 -0.451608
vn -0.3512877 0.5729034 0.7405259
vn 0.8567402 -0.1105968 0.5037506
vn -0.7170273 -0.4191176 -0.5569671
vn -0.6915402 0.5116545 0.5098842
vn -0.7644254 0.5972369 0.2428209
vn -0.663587 -0.63706 -0.3921821
vn -0.6372532 0.6428543 0.4250254
vn -0.8321728 -0.5541063 0.02132211
vn -0.4913341 0.3345572 0.8041531
vn -0.4168888 -0.8506359 0.3203472
vn -0.3512877 0.5729034 0.7405259
vn -0.176176 -0.8505282 0.4955439
vn 0.8567402 -0.1105968 0.5037506
vn 0.5961665 -0.7509763 -0.2839371
vn -0.663587 -0.63706 -0.3921821
vn -0.8321728 -0.5541063 0.02132211
vn 0.5910572 -0.7064453 -0.389341
vn 0.8222464 0.4327896 0.3695998
vn 0.6237029 0.7655803 0.1577387
vn 0.5910572 -0.7064453 -0.389341
vn -0.8321728 -0.5541063 0.02132211
vn -0.4168888 -0.8506359 0.3203472
vn 0.3707804 -0.6450303 -0.668175
vn 0.6237029 0.7655803 0.1577387
vn 0.5910572 -0.7064453 -0.389341
vn 0.3707804 -0.6450303 -0.668175
vn 0.448681 0.8458503 -0.2884835
vn 0.4463972 -0.4519665 -0.7723056
vn 0.234735 0.8607844 -0.451608
vn 0.8567402 -0.1105968 0.5037506
vn 0.3707804 -0.6450303 -0.668175
vn -0.4168888 -0.8506359 0.3203472
vn -0.176176 -0.8505282 0.4955439
vn 0.4463972 -0.4519665 -0.7723056
vn 0.8567402 -0.1105968 0.5037506
vn -0.1354389 -0.9722497 -0.1907533
vn -0.9086774 0.1993037 -0.3668562
vn -0.9911897 0.1109616 -0.07232235
vn -0.2888463 -0.9572381 -0.01621318
vn 0.8857478 -0.2055859 0.4161555
vn -0.1354389 -0.9722497 -0.1907533
vn -0.2888463 -0.9572381 -0.01621318
vn 0.9483222 -0.2748486 0.1585665
vn 0.2010168 0.09648709 0.9748243
vn 0.11465 0.9636538 0.2413022
vn 0.8857478 -0.2055859 0.4161555
vn 0.9483222 -0.2748486 0.1585665
vn 0.0229814 0.9964287 0.08125143
vn -0.9086774 0.1993037 -0.3668562
vn 0.11465 0.9636538 0.2413022
vn 0.0229814 0.9964287 0.08125143
vn -0.9911897 0.1109616 -0.07232235
vn 0.2010168 0.09648709 0.9748243
vn 0.6591518 0.713707 -0.2369417
vn -0.3317443 0.5635394 0.7565508
vn -0.09000488 0.4458207 0.8905858
vn 0.5874987 0.7122295 -0.3841543
vn -0.8042762 0.5924464 0.04633516
vn 0.2615791 -0.5132574 -0.8174003
vn 0.6591518 0.713707 -0.2369417
vn 0.5874987 0.7122295 -0.3841543
vn 0.04214372 -0.3106879 -0.9495772
vn -0.8042762 0.5924464 0.04633516
vn -0.7312223 -0.658089 0.1795353
vn 0.2615791 -0.5132574 -0.8174003
vn 0.04214372 -0.3106879 -0.9495772
vn -0.6673595 -0.7398968 0.08475845
vn -0.8042762 0.5924464 0.04633516
vn -0.3317443 0.5635394 0.7565508
vn -0.7312223 -0.658089 0.1795353
vn -0.6673595 -0.7398968 0.08475845
vn -0.09000488 0.4458207 0.8905858
vn -0.8042762 0.5924464 0.04633516
vn 0.2567133 0.6984569 -0.6680241
vn 0.9622971 -0.2494297 0.1084861
vn 0.9564678 -0.2688901 -0.1134352
vn 0.2378948 0.8595423 -0.4523197
vn 0.3924536 0.1201901 0.9118852
vn -0.9508152 0.3065805 -0.04425757
vn 0.2567133 0.6984569 -0.6680241
vn 0.2378948 0.8595423 -0.4523197
vn -0.862277 0.4981031 0.09149741
vn 0.3924536 0.1201901 0.9118852
vn -0.2410635 -0.6398393 0.729722
vn -0.9508152 0.3065805 -0.04425757
vn -0.862277 0.4981031 0.09149741
vn -0.3919226 -0.7287884 0.5614839
vn 0.3924536 0.1201901 0.9118852
vn 0.9622971 -0.2494297 0.1084861
vn -0.2410635 -0.6398393 0.729722
vn -0.3919226 -0.7287884 0.5614839
vn 0.9564678 -0.2688901 -0.1134352
vn 0.3924536 0.1201901 0.9118852
vn 0.8486936 0.5267146 0.04786361
vn 0.3879386 -0.5616107 -0.7308195
vn 0.4588133 -0.7252381 -0.513342
vn 0.8398525 0.5239729 -0.1417758
vn 0.3818639 -0.7675579 -0.5148153
vn 0.5098996 0.8174753 -0.267837
vn 0.378917 -0.6783074 -0.6295404
vn 0.3790754 0.6847754 -0.6224022
vn 0.813602 0.2496254 0.5251085
vn -0.3689466 0.5331877 0.7613077
vn 0.8486936 0.5267146 0.04786361
vn 0.8398525 0.5239729 -0.1417758
vn -0.5537261 0.6051134 0.5720361
vn 0.5098996 0.8174753 -0.267837
vn -0.447381 0.6259858 0.6387426
vn 0.3790754 0.6847754 -0.6224022
vn -0.3188217 0.5912331 0.7408078
vn -0.8318319 -0.5548215 -0.0151274
vn -0.3689466 0.5331877 0.7613077
vn -0.5537261 0.6051134 0.5720361
vn -0.6980961 -0.7138877 0.05501121
vn -0.447381 0.6259858 0.6387426
vn -0.6038674 -0.6190501 0.5021167
vn -0.3188217 0.5912331 0.7408078
vn -0.212499 -0.821155 0.5296685
vn 0.813602 0.2496254 0.5251085
vn 0.3879386 -0.5616107 -0.7308195
vn -0.8318319 -0.5548215 -0.0151274
vn -0.6980961 -0.7138877 0.05501121
vn 0.4588133 -0.7252381 -0.513342
vn 0.4588133 -0.7252381 -0.513342
vn -0.6980961 -0.7138877 0.05501121
vn -0.6038674 -0.6190501 0.5021167
vn 0.3818639 -0.7675579 -0.5148153
vn 0.3818639 -0.7675579 -0.5148153
vn -0.6038674 -0.6190501 0.5021167
vn -0.212499 -0.821155 0.5296685
vn 0.378917 -0.6783074 -0.6295404
vn -0.8720806 -0.08664158 -0.4816312
vn -0.1644234 -0.8758112 0.4537838
vn -0.0054546 -0.9400136 0.3410933
vn -0.9720184 -0.05315586 -0.2288115
vn -0.1540547 -0.9798514 -0.1271157
vn -0.9542354 -0.02725555 -0.297812
vn 0.5328664 0.2831519 -0.7974198
vn 0.1918072 0.8381111 -0.5106661
vn -0.8720806 -0.08664158 -0.4816312
vn -0.9720184 -0.05315586 -0.2288115
vn 0.2618654 0.8960303 -0.3585474
vn -0.9542354 -0.02725555 -0.297812
vn -0.09290303 0.9948899 -0.03953574
vn 0.5328664 0.2831519 -0.7974198
vn 0.9031767 0.05153012 0.4261648
vn 0.1918072 0.8381111 -0.5106661
vn 0.2618654 0.8960303 -0.3585474
vn 0.9725424 -0.108358 0.2059608
vn -0.1644234 -0.8758112 0.4537838
vn 0.9031767 0.05153012 0.4261648
vn 0.9725424 -0.108358 0.2059608
vn -0.0054546 -0.9400136 0.3410933
vn 0.9588005 -0.2124273 0.1886166
vn -0.1540547 -0.9798514 -0.1271157
vn 0.5328664 0.2831519 -0.7974198
vn 0.9725424 -0.108358 0.2059608
vn 0.2618654 0.8960303 -0.3585474
vn -0.09290303 0.9948899 -0.03953574
vn 0.9588005 -0.2124273 0.1886166
vn -0.05242272 -0.9760261 0.211246
vn -0.8472192 0.1536249 0.508546
vn -0.4936439 0.1513306 0.8563964
vn 0.08172147 -0.856426 0.5097607
vn 0.8781823 -0.1426787 -0.4565507
vn -0.05242272 -0.9760261 0.211246
vn 0.08172147 -0.856426 0.5097607
vn 0.5802037 -0.4149204 -0.70086
vn 0.03849538 -0.9585151 0.2824304
vn 0.2479661 -0.1868881 -0.9505712
vn -0.1818554 0.5389686 0.8224607
vn -0.4936439 0.1513306 0.8563964
vn 0.08907114 0.9831067 -0.1598986
vn 0.8781823 -0.1426787 -0.4565507
vn 0.5802037 -0.4149204 -0.70086
vn -0.2472986 0.956997 -0.1516578
vn -0.8472192 0.1536249 0.508546
vn 0.08907114 0.9831067 -0.1598986
vn -0.2472986 0.956997 -0.1516578
vn -0.4936439 0.1513306 0.8563964
vn -0.2472986 0.956997 -0.1516578
vn 0.5802037 -0.4149204 -0.70086
vn 0.2479661 -0.1868881 -0.9505712
vn 0.05458922 0.9135976 -0.4029387
vn -0.4936439 0.1513306 0.8563964
vn -0.2472986 0.956997 -0.1516578
vn 0.05458922 0.9135976 -0.4029387
vn -0.1818554 0.5389686 0.8224607
vn 0.2087826 0.9472429 -0.2431886
vn -0.2710118 0.2135384 0.9385915
vn 0.971092 0.1685742 0.1690065
vn 0.03849538 -0.9585151 0.2824304
vn -0.1818554 0.5389686 0.8224607
vn -0.2710118 0.2135384 0.9385915
vn -0.155157 -0.9322869 0.326753
vn 0.971092 0.1685742 0.1690065
vn 0.2479661 -0.1868881 -0.9505712
vn 0.03849538 -0.9585151 0.2824304
vn -0.155157 -0.9322869 0.326753
vn 0.2991301 -0.4581325 -0.8370399
vn 0.05458922 0.9135976 -0.4029387
vn 0.2479661 -0.1868881 -0.9505712
vn 0.2991301 -0.4581325 -0.8370399
vn 0.2087826 0.9472429 -0.2431886
vn 0.971092 0.1685742 0.1690065
vn -0.2483961 0.2937072 0.9230577
vn -0.5930734 0.7070947 -0.3850729
vn -0.4198176 0.8242515 -0.3799507
vn -0.327478 0.3315776 0.8847681
vn 0.6350445 -0.6687672 0.3866122
vn -0.2483961 0.2937072 0.9230577
vn -0.327478 0.3315776 0.8847681
vn 0.4867817 -0.8027702 0.3443888
vn 0.2924108 -0.2569252 -0.9211327
vn -0.5782627 0.2808155 0.7659994
vn 0.2965844 -0.1497261 -0.9431965
vn 0.1731516 -0.9809276 0.08831497
vn 0.6319072 -0.02035443 -0.7747767
vn 0.5587664 -0.09212505 0.8241924
vn -0.5930734 0.7070947 -0.3850729
vn 0.2924108 -0.2569252 -0.9211327
vn 0.2965844 -0.1497261 -0.9431965
vn -0.4198176 0.8242515 -0.3799507
vn -0.327478 0.3315776 0.8847681
vn -0.4198176 0.8242515 -0.3799507
vn 0.05351714 0.9649457 -0.2569351
vn -0.5782627 0.2808155 0.7659994
vn 0.5587664 -0.09212505 0.8241924
vn -0.4198176 0.8242515 -0.3799507
vn 0.2965844 -0.1497261 -0.9431965
vn 0.6319072 -0.02035443 -0.7747767
vn 0.05351714 0.9649457 -0.2569351
vn 0.5587664 -0.09212505 0.8241924
vn -0.8041705 0.3370016 0.4896323
vn 0.2239874 0.934603 -0.2763094
vn 0.3580385 0.9266088 -0.1149106
vn -0.848086 0.4080351 0.33802
vn -0.2011394 -0.9278268 0.3141346
vn -0.8041705 0.3370016 0.4896323
vn -0.848086 0.4080351 0.33802
vn -0.2097932 -0.9710569 0.1141721
vn -0.8951436 0.3693583 -0.2495843
vn -0.1444385 -0.9890527 -0.03020494
vn 0.8278723 -0.3323904 -0.4518231
vn -0.2011394 -0.9278268 0.3141346
vn -0.2097932 -0.9710569 0.1141721
vn 0.9188817 -0.2401319 -0.3130386
vn -0.1444385 -0.9890527 -0.03020494
vn 0.8880845 -0.3307461 0.3192382
vn -0.6925571 0.08722599 0.7160701
vn 0.2239874 0.934603 -0.2763094
vn 0.8278723 -0.3323904 -0.4518231
vn 0.9188817 -0.2401319 -0.3130386
vn 0.3580385 0.9266088 -0.1149106
vn 0.8880845 -0.3307461 0.3192382
vn 0.4735431 0.8558047 0.2082192
vn -0.848086 0.4080351 0.33802
vn 0.3580385 0.9266088 -0.1149106
vn 0.4735431 0.8558047 0.2082192
vn -0.8951436 0.3693583 -0.2495843
vt 0.8491009 0.8473608
vt 0.8412739 0.8463567
vt 0.8412739 0.9181651
vt 0.8489928 0.6759458
vt 0.8412738 0.676608
vt 0.8489928 0.7648161
vt 0.3449048 0.908026
vt 0.3508235 0.9111129
vt 0.3508235 0.8549073
vt 0.7181042 0.4249031
vt 0.7257464 0.4235851
vt 0.7181042 0.3769619
vt 0.7381543 0.4186557
vt 0.7451379 0.4207233
vt 0.7451379 0.376962
vt 0.6391657 0.7135482
vt 0.6442985 0.7142415
vt 0.6442985 0.6569527
vt 0.8855933 0.3939348
vt 0.8902498 0.3953537
vt 0.8902498 0.3272735
vt 0.7557938 0.4127061
vt 0.7594492 0.4140316
vt 0.7594492 0.3769619
vt 0.7594492 0.4104141
vt 0.7632166 0.4090822
vt 0.7594492 0.3769619
vt 0.7510701 0.4178861
vt 0.7557939 0.4174028
vt 0.7510701 0.376962
vt 0.7257463 0.4218719
vt 0.7305609 0.4215057
vt 0.7257463 0.3769618
vt 0.5620739 0.8908278
vt 0.5664132 0.8912525
vt 0.5664132 0.8279775
vt 0.5169514 0.6373127
vt 0.5198479 0.6392621
vt 0.5198479 0.579062
vt 0.3223774 0.8543857
vt 0.326617 0.8549073
vt 0.326617 0.7739045
vt 0.2156219 0.785505
vt 0.211312 0.7837708
vt 0.211312 0.8627673
vt 0.8899871 0.2488451
vt 0.8855933 0.2502574
vt 0.8899871 0.3272735
vt 0.5198479 0.5010921
vt 0.5165525 0.5002503
vt 0.5165525 0.5790621
vt 0.07376643 0.5401637
vt 0.1027286 0.5584043
vt 0.1527184 0.5178686
vt 0.1258184 0.5037625
vt 0.1744315 0.4712737
vt 0.1484109 0.4659992
vt 0.1680357 0.3674555
vt 0.1461135 0.3630478
vt 0.1800357 0.3641815
vt 0.1858729 0.4812939
vt 0.2184465 0.2637017
vt 0.2006919 0.2602145
vt 0.2047784 0.1549246
vt 0.1924763 0.1575505
vt 0.09945419 0.07953566
vt 0.09213365 0.08148025
vt 0.0737664 3.813256E-08
vt 0.1038136 0.07310144
vt 0.2121345 0.1448102
vt 0.3840017 0.9507272
vt 0.4192441 0.9491553
vt 0.4126083 0.8459848
vt 0.3819801 0.8447801
vt 0.4192441 0.7930412
vt 0.3941116 0.7868372
vt 0.7246604 0.9953532
vt 0.755138 0.9822032
vt 0.7506233 0.9077523
vt 0.7246604 0.9147342
vt 0.7726161 0.9999999
vt 0.8048169 0.9907386
vt 0.8048169 0.9065039
vt 0.7771172 0.9118862
vt 0.346597 0.9807761
vt 0.38198 0.9814312
vt 0.3812604 0.8656591
vt 0.350544 0.8676915
vt 0.3273789 0.9808353
vt 0.3638975 0.7868372
vt 0.3340011 0.8739383
vt 0.3386635 0.7939616
vt 0.3273789 0.8124504
vt 0.2184465 0.00242887
vt 0.2194746 0.03168651
vt 0.260065 0.02477302
vt 0.2692499 1.456717E-08
vt 0.3149208 0.09517951
vt 0.3273789 0.08045054
vt 0.292798 0.09588221
vt 0.2393885 0.03287059
vt 0.2586695 0.177428
vt 0.2761993 0.1815694
vt 0.2307185 0.3020205
vt 0.2441463 0.3034943
vt 0.2334348 0.4492159
vt 0.2416963 0.4499475
vt 0.2184465 0.5519998
vt 0.5409802 0.7464401
vt 0.5695222 0.7378716
vt 0.5469829 0.6732509
vt 0.5205407 0.6732795
vt 0.5695222 0.5465396
vt 0.5472519 0.5465283
vt 0.5448891 0.4267269
vt 0.5268731 0.4266374
vt 7.573908E-09 0.5967153
vt 0.02145105 0.6122211
vt 0.07376639 0.5100686
vt 0.05252189 0.5058608
vt 0.02772439 0.3720195
vt 0.0109996 0.3747002
vt 0.01259076 0.2206655
vt -6.629524E-09 0.2209184
vt 0.02296608 0.2245913
vt 0.04111232 0.3675822
vt 0.0641344 0.1066796
vt 0.05783467 0.1037716
vt 0.05012742 0.1037652
vt 0.05510841 -1.358805E-08
vt 5.985796E-09 0.8474367
vt 0.02099794 0.853413
vt 0.04409189 0.7239824
vt 0.02599897 0.7241638
vt 0.01235117 0.6122212
vt -6.408593E-09 0.6162564
vt 0.2948241 0.8093791
vt 0.3159316 0.8025824
vt 0.2887441 0.667111
vt 0.2707061 0.6674019
vt 0.3159316 0.5559236
vt 0.3037767 0.5519998
vt 0.07088133 0.8120319
vt 0.05815125 0.8126869
vt 0.05815126 0.9417763
vt 0.06605077 0.9416498
vt 0.8746198 0.434411
vt 0.8500845 0.4256988
vt 0.807879 0.5443993
vt 0.8300856 0.5442471
vt 0.8582048 0.6759458
vt 0.8746198 0.6673178
vt 0.8479239 0.6750131
vt 0.7968227 0.5482202
vt 0.5423594 0.01458102
vt 0.5206891 -3.023915E-08
vt 0.4573638 0.09971739
vt 0.4784276 0.1065578
vt 0.4538245 0.2263083
vt 0.470907 0.2190538
vt 0.5237331 0.2886345
vt 0.5369998 0.2817726
vt 0.533621 0.3567814
vt 0.5447471 0.3571644
vt 0.5206786 0.4341987
vt 0.526615 0.4375362
vt 0.4538245 0.5002503
vt 0.8192749 0.6854576
vt 0.7968227 0.6858655
vt 0.8270285 0.7902557
vt 0.846276 0.791591
vt 0.8409422 0.6759458
vt 0.7968227 0.9013826
vt 0.8654804 0.7912061
vt 0.8133057 0.8984177
vt 0.8285376 0.9065039
vt 0.3733373 0.004113375
vt 0.3515854 0.01861249
vt 0.4224086 0.121741
vt 0.4435666 0.115
vt 0.3862946 -2.465972E-08
vt 0.4538245 0.1099463
vt 0.4264696 0.236539
vt 0.4434531 0.243792
vt 0.3606655 0.2962674
vt 0.3738342 0.3031177
vt 0.3536367 0.2905706
vt 0.4178306 0.2292733
vt 0.3515854 0.3695056
vt 0.3627171 0.3691544
vt 0.3685903 0.4466341
vt 0.3745472 0.443319
vt 0.4432212 0.5109056
vt 0.8604994 0.9136078
vt 0.8476742 0.9884491
vt 0.8597312 0.9942694
vt 0.8455529 0.906504
vt 0.8341681 0.9942694
vt 0.8290234 0.9147115
vt 0.9727493 0.1256639
vt 0.9557101 0.1183123
vt 0.9557101 0.1944661
vt 0.9696825 0.1996028
vt 0.218334 0.5584042
vt 0.2050587 0.5623389
vt 0.1989501 0.6341243
vt 0.208705 0.6335431
vt 0.2308604 0.5642838
vt 0.2044113 0.7163551
vt 0.2182207 0.6352052
vt 0.2103977 0.7165168
vt 0.2308604 0.7933698
vt 0.2161205 0.7148321
vt 0.8834515 0.654644
vt 0.8746198 0.6527348
vt 0.9012601 0.7165294
vt 0.9070171 0.7155306
vt 0.8968091 0.647976
vt 0.9095289 0.7915599
vt 0.9179432 0.7133601
vt 0.9130516 0.7904369
vt 0.9197311 0.7917836
vt 0.8746198 0.8679367
vt 0.7989647 0.01414342
vt 0.7760026 -4.501405E-09
vt 0.7181042 0.1161664
vt 0.7376243 0.1226679
vt 0.7421881 0.2428782
vt 0.7558119 0.2402126
vt 0.7913376 0.3106669
vt 0.7989647 0.3071415
vt 0.7983797 0.3769619
vt 0.9608589 -2.567502E-08
vt 0.9315037 0.003034011
vt 0.9315037 0.1183123
vt 0.9539229 0.1102498
vt 0.668364 0.4256988
vt 0.6454403 0.4407105
vt 0.7052856 0.5417958
vt 0.7246605 0.5345615
vt 0.6878445 0.650194
vt 0.7011624 0.6521176
vt 0.6454403 0.7215485
vt 0.6528393 0.7245973
vt 0.6520916 0.7946583
vt 0.9591768 0.2197402
vt 0.9313353 0.2128345
vt 0.9313353 0.3229463
vt 0.952221 0.3338092
vt 0.8697947 0.2308136
vt 0.8932158 0.2360798
vt 0.8698097 0.1348538
vt 0.8527794 0.1353787
vt 0.8572144 0.0563965
vt 0.8470912 0.05320407
vt 0.8932158 9.134801E-08
vt 0.7726162 0.4256988
vt 0.7544246 0.4329858
vt 0.7246604 0.5510765
vt 0.7371081 0.5505841
vt 0.7313298 0.638322
vt 0.7386603 0.6344042
vt 0.7721668 0.6912312
vt 0.2184465 0.806136
vt 0.2420366 0.8140492
vt 0.2707061 0.7083378
vt 0.2514516 0.7090452
vt 0.2414363 0.6486756
vt 0.228181 0.6539673
vt 0.2267833 0.5954586
vt 0.2184465 0.5953171
vt 0.2414575 0.5519997
vt 0.9696933 0.5218769
vt 0.9945782 0.519051
vt 0.9945782 0.4256987
vt 0.975107 0.4296627
vt 0.1016609 0.8142848
vt 0.125443 0.8077065
vt 0.09301639 0.7123874
vt 0.07376642 0.7106196
vt 0.116226 0.6552796
vt 0.1030824 0.6492912
vt 0.125443 0.5986413
vt 0.1170963 0.5982533
vt 0.09993136 0.5584043
vt 0.9608589 0.09746458
vt 0.9844005 0.1030799
vt 0.9844005 0.006171658
vt 0.9660785 4.138689E-08
vt 0.861632 0.978772
vt 0.8816035 0.9781106
vt 0.8652052 0.9245594
vt 0.8504134 0.9229798
vt 0.8816035 0.8705405
vt 0.8728771 0.8679367
vt 0.9771638 0.647976
vt 0.9622858 0.6532392
vt 0.9536681 0.7146205
vt 0.9649825 0.7088829
vt 0.9702132 0.75792
vt 0.9771638 0.7530566
vt 0.4132914 0.5202824
vt 0.4044946 0.5109056
vt 0.3273789 0.5798575
vt 0.336452 0.58404
vt 0.3374368 0.6556893
vt 0.3437068 0.6534984
vt 0.3933145 0.7115856
vt 0.3967757 0.7096023
vt 0.4132914 0.7868372
vt 0.6396019 0.7147949
vt 0.6267085 0.715361
vt 0.6328152 0.8246419
vt 0.6428654 0.8247607
vt 0.6267084 0.8675275
vt 0.6340718 0.8677066
vt 0.4383382 0.5002504
vt 0.429618 0.5097544
vt 0.5074753 0.5765849
vt 0.5165524 0.5724598
vt 0.500616 0.6481314
vt 0.5069716 0.6505597
vt 0.4476307 0.7028815
vt 0.4511496 0.7050178
vt 0.429618 0.7786449
vt 0.1747436 0.8130962
vt 0.1619181 0.8127483
vt 0.1619181 0.926761
vt 0.1718884 0.9264687
vt 0.8717941 0.647976
vt 0.8810273 0.6476148
vt 0.857146 0.5737181
vt 0.8504133 0.5741208
vt 0.8622643 0.4980993
vt 0.858205 0.4973119
vt 0.8810273 0.4256988
vt 0.4157052 0.6576946
vt 0.4199184 0.6583943
vt 0.4159883 0.5814202
vt 0.4132915 0.5820145
vt 0.4199184 0.5109057
vt 0.9587846 0.3338093
vt 0.94836 0.3355454
vt 0.9510106 0.4026286
vt 0.9587846 0.3994521
vt 0.8955247 0.8551632
vt 0.9049765 0.8597087
vt 0.9387566 0.7863199
vt 0.9311011 0.7835535
vt 0.9415879 0.739593
vt 0.9358715 0.7402828
vt 0.9259095 0.706496
vt 0.9227171 0.7077721
vt 0.8955247 0.647976
vt 0.6293458 0.6433362
vt 0.6391657 0.6400657
vt 0.6249545 0.5696831
vt 0.6171733 0.5699666
vt 0.6391657 0.5214989
vt 0.6334583 0.5213991
vt 0.6239318 0.4918447
vt 0.6204438 0.4915775
vt 0.638523 0.4266375
vt 0.7625173 0.9077524
vt 0.7716642 0.9031664
vt 0.7339202 0.8299877
vt 0.7264881 0.8327856
vt 0.730252 0.7850764
vt 0.7246603 0.7843713
vt 0.7430027 0.7530174
vt 0.7398697 0.7517164
vt 0.7716642 0.6912313
vt 0.8779553 0.397632
vt 0.8855934 0.3997115
vt 0.8706445 0.3547589
vt 0.8650392 0.3534954
vt 0.8855934 0.3209306
vt 0.8821627 0.3203754
vt 0.8708721 0.2488451
vt 0.05311428 0.8133221
vt 0.04409194 0.812032
vt 0.05077063 0.8916711
vt 0.05779272 0.8920708
vt 0.04409191 0.9330066
vt 0.04921741 0.9303017
vt 0.2880837 0.8220132
vt 0.2810202 0.8140492
vt 0.2236484 0.8579309
vt 0.2308523 0.8622485
vt 0.2184465 0.8959408
vt 0.2245522 0.8954884
vt 0.2362212 0.945388
vt 0.2390254 0.9429932
vt 0.2880837 0.9560148
vt 0.9536682 0.647976
vt 0.9441655 0.6494336
vt 0.941588 0.7241322
vt 0.9489999 0.7236001
vt 0.9483471 0.7590495
vt 0.9536682 0.7616789
vt 0.1537343 0.9545676
vt 0.1597911 0.9488316
vt 0.09187209 0.9212961
vt 0.08507998 0.9244615
vt 0.07981426 0.8925693
vt 0.07376636 0.8918128
vt 0.1039395 0.834016
vt 0.1013863 0.8312922
vt 0.1597911 0.8142849
vt 0.6391657 0.5410106
vt 0.6446169 0.5438552
vt 0.6446169 0.4812435
vt 0.6408978 0.4813344
vt 0.6404763 0.4266374
vt 0.6391658 0.6569526
vt 0.6445575 0.6539745
vt 0.6428841 0.5960805
vt 0.6391658 0.5960258
vt 0.6424797 0.5438552
vt 0.9194856 0.6225834
vt 0.9296448 0.6260821
vt 0.9617757 0.5401565
vt 0.9540724 0.5392007
vt 0.9696933 0.4717866
vt 0.9650905 0.4740099
vt 0.9194856 0.4256988
vt 0.04409191 0.812032
vt 0.0559985 0.8119975
vt 0.07088134 0.751802
vt 0.06232313 0.7525349
vt 0.06187874 0.6885066
vt 0.05676965 0.6893882
vt 0.0440919 0.6122211
vt 0.4700944 0.9737165
vt 0.4800572 0.9706132
vt 0.445688 0.8885201
vt 0.4380902 0.8892334
vt 0.4342365 0.8256577
vt 0.429618 0.8234155
vt 0.4800572 0.7786448
vt 0.6171734 0.7137541
vt 0.626674 0.7082414
vt 0.6238493 0.643336
vt 0.6171734 0.6465802
vt 0.3266587 0.5519998
vt 0.3180405 0.5533157
vt 0.3159316 0.5991597
vt 0.3211173 0.5986836
vt 0.3266588 0.68195
vt 0.6914786 0.9387642
vt 0.7037188 0.9390264
vt 0.7070292 0.8648207
vt 0.6983283 0.8652337
vt 0.6966918 0.7946582
vt 0.6914786 0.7951332
vt 0.916065 0.2121179
vt 0.9283159 0.2128346
vt 0.9315036 0.1291081
vt 0.922965 0.1308314
vt 0.8984496 0.06712244
vt 0.8932157 0.06703161
vt 0.9315036 2.440442E-08
vt 0.7085037 0.9365807
vt 0.7207806 0.9359964
vt 0.7157491 0.8654307
vt 0.7070292 0.8652405
vt 0.7207807 0.7950019
vt 0.7155581 0.7946582
vt 0.8954846 0.4251217
vt 0.9077544 0.4245209
vt 0.9017527 0.3425222
vt 0.8932158 0.3407213
vt 0.9313353 0.2793971
vt 0.9261009 0.2794362
vt 0.8932158 0.2128346
vt 0.9788632 0.1041866
vt 0.9608589 0.1030799
vt 0.9641011 0.2022047
vt 0.9788632 0.2033977
vt 0.94836 0.3338093
vt 0.9313353 0.3429331
vt 0.9355009 0.4157532
vt 0.94836 0.4040239
vt 0.5381035 6.622283E-09
vt 0.5205406 0.01210038
vt 0.5633756 0.08152205
vt 0.5776502 0.07135703
vt 0.631999 0.1650581
vt 0.6454402 0.1613136
vt 0.6222055 0.2762635
vt 0.6318077 0.2803483
vt 0.5610935 0.3480551
vt 0.5663234 0.3517025
vt 0.5205406 0.4266375
vt 0.6633192 -1.336243E-09
vt 0.6454402 0.00607123
vt 0.6979656 0.06282254
vt 0.7151201 0.06195236
vt 0.6820033 0.1354438
vt 0.6959071 0.1361742
vt 0.7078229 0.2529158
vt 0.7181042 0.2540766
vt 0.6610871 0.3408961
vt 0.6670898 0.3427072
vt 0.6454402 0.4256987
vt 0.9520858 0.8746742
vt 0.9656568 0.8700725
vt 0.9656568 0.7620935
vt 0.9545316 0.7692199
vt 0.941588 0.8635594
vt 0.9460443 0.7616789
vt 0.03337444 0.8561868
vt 0.02104079 0.853413
vt 0.0210043 0.9648627
vt 0.03082092 0.9613286
vt 0.5695221 0.7140696
vt 0.583542 0.7147948
vt 0.6171733 0.6099583
vt 0.6067472 0.6100308
vt 0.5798796 0.5147105
vt 0.5736462 0.5158951
vt 0.5695221 0.4266374
vt 0.4201947 0.6752887
vt 0.4296181 0.679426
vt 0.4260852 0.578711
vt 0.4202258 0.5772034
vt 0.4296181 0.5109056
vt 0.5692098 0.7467378
vt 0.5620739 0.7464402
vt 0.5620739 0.8279774
vt 0.5661388 0.8278326
vt -1.856475E-08 0.9651116
vt 0.007055611 0.966375
vt 0.02100429 0.8870645
vt 0.01694076 0.8876463
vt -7.386538E-09 0.8534129
vt 0.8469933 0.7648161
vt 0.8412739 0.7653017
vt 0.8437685 0.8463104
vt 0.8469933 0.8463567
vt 0.9728222 0.3199895
vt 0.9798706 0.318914
vt 0.9632314 0.24372
vt 0.9591768 0.2430694
vt 0.9798706 0.2128346
vt 0.9759839 0.858833
vt 0.985335 0.8567547
vt 0.9711176 0.8034179
vt 0.9656566 0.8030637
vt 0.985335 0.7616788
vt 0.8857169 0.9653326
vt 0.8952405 0.9642963
vt 0.8870676 0.9080348
vt 0.8816035 0.9077323
vt 0.8952405 0.8679366
vt 0.9656299 0.9707392
vt 0.9749894 0.9726957
vt 0.9851049 0.9202324
vt 0.9796444 0.9205903
vt 0.9656299 0.8746742
vt 0.9771637 0.7421852
vt 0.9866939 0.7431084
vt 0.9900719 0.6870211
vt 0.9846084 0.6873786
vt 0.9771637 0.647976
vt 0.9744061 0.4253368
vt 0.9830433 0.4233769
vt 0.9642769 0.3659354
vt 0.9591767 0.3654764
vt 0.9830433 0.3199894
vt 0.2066539 0.6711911
vt 0.2156219 0.6711911
vt 0.213606 0.6055533
vt 0.2084819 0.6056459
vt 0.2095983 0.5584043
vt 0.9415879 0.9806355
vt 0.9502372 0.9829219
vt 0.9656299 0.9227182
vt 0.9605179 0.9229748
vt 0.9415879 0.8746741
vt 0.2066539 0.7837709
vt 0.2156213 0.7837709
vt 0.2134078 0.7215672
vt 0.208284 0.7214747
vt 0.2131097 0.6711912
vt 0.8470911 0.004815477
vt 0.8338569 -2.643945E-08
vt 0.7989646 0.0944309
vt 0.809936 0.09503783
vt 0.8188694 0.1500928
vt 0.826812 0.1488907
vt 0.8206828 0.209676
vt 0.8253565 0.2082365
vt 0.8470911 0.248845
vt 0.8950465 0.4256988
vt 0.8810273 0.4273291
vt 0.8944542 0.5255116
vt 0.9052538 0.5234463
vt 0.9115137 0.5824956
vt 0.9194856 0.5835795
vt 0.8810273 0.6365393
vt 0.8854011 0.6386003
vt 0.1386245 0.5584043
vt 0.125443 0.5632101
vt 0.16376 0.6556671
vt 0.1747436 0.6551443
vt 0.1482247 0.714739
vt 0.1561876 0.7160239
vt 0.147557 0.7742547
vt 0.1522315 0.7757369
vt 0.125443 0.8127482
vt 0.429618 0.679426
vt 0.4158268 0.6803296
vt 0.4189131 0.7831523
vt 0.429618 0.7832035
vt 0.7551381 0.9668365
vt 0.7651315 0.9635037
vt 0.7620996 0.9077523
vt 0.7551381 0.9118177
vt 0.215622 0.8665748
vt 0.2085156 0.8627673
vt 0.2085156 0.9153623
vt 0.2131327 0.9166855
vt 0.1747437 0.9489912
vt 0.1856186 0.9512659
vt 0.207902 0.8928232
vt 0.1996619 0.8932432
vt 0.1939551 0.8554677
vt 0.1891529 0.856917
vt 0.1747437 0.7933699
vt 0.5118687 0.7802075
vt 0.5003452 0.7786447
vt 0.4960141 0.8446986
vt 0.5040777 0.8465191
vt 0.4800572 0.8917332
vt 0.485035 0.8912456
vt 0.5118687 0.9454319
vt 0.8377131 0.971797
vt 0.8491009 0.9695963
vt 0.845477 0.918511
vt 0.8377131 0.9181651
vt 0.8104506 0.2488451
vt 0.7989646 0.2503904
vt 0.806055 0.3184306
vt 0.8141069 0.3166296
vt 0.8254275 0.3660299
vt 0.8303812 0.3665549
vt 0.7989646 0.4199094
vt 0.7381543 0.3769619
vt 0.730561 0.3804463
vt 0.7334592 0.4207541
vt 0.7381543 0.4194484
vt 0.4196475 0.9490497
vt 0.4296181 0.9505014
vt 0.4296181 0.874667
vt 0.4217511 0.8745806
vt 0.8955246 0.9636254
vt 0.9042487 0.9702587
vt 0.9341798 0.9082575
vt 0.9266433 0.9075987
vt 0.9008234 0.8639204
vt 0.8955246 0.8641883
vt 0.9037772 0.8597086
vt 0.9390885 0.9054101
vt 0.626674 0.7133595
vt 0.6371255 0.7117562
vt 0.6349144 0.6433359
vt 0.626674 0.64354
vt 0.9485429 0.1837933
vt 0.959003 0.1808205
vt 0.9554945 0.1202542
vt 0.9485429 0.1183123
vt 0.5119318 0.9154364
vt 0.518204 0.9147836
vt 0.5171956 0.8613908
vt 0.5119318 0.8597867
vt 0.6454402 0.9438798
vt 0.6542937 0.9427009
vt 0.6723738 0.898266
vt 0.6657683 0.8983884
vt 0.6493589 0.8526826
vt 0.6454402 0.8534361
vt 0.648717 0.7946582
vt 0.9796686 0.6170518
vt 0.9858863 0.6164125
vt 0.9734878 0.5705943
vt 0.9696933 0.5712206
vt 0.9858863 0.5218769
vt 0.75107 0.3769619
vt 0.7451379 0.3797614
vt 0.7472316 0.4195277
vt 0.75107 0.4182818
vt 0.6267084 0.9682957
vt 0.6331097 0.9684647
vt 0.6418293 0.9195248
vt 0.6379195 0.9191787
vt 0.6267084 0.8677065
vt 0.03435975 0.9273505
vt 0.0440919 0.9317313
vt 0.0440919 0.8551619
vt 0.03730991 0.8534129
vt 0.5532809 0.9543198
vt 0.5620739 0.9538307
vt 0.5390912 0.8678099
vt 0.5330417 0.8690864
vt 0.5451586 0.9578307
vt 0.5278239 0.797685
vt 0.5269452 0.8699932
vt 0.5241897 0.7989072
vt 0.5205407 0.7965022
vt 0.5620739 0.7464402
vt 0.4201875 0.8745807
vt 0.4296181 0.8733463
vt 0.4269019 0.7832776
vt 0.4201875 0.7832035
vt 0.3205285 0.8196689
vt 0.3138552 0.8140492
vt 0.2880837 0.8709576
vt 0.2927857 0.872058
vt 0.3205285 0.9446335
vt 0.6841171 0.9414167
vt 0.6914787 0.9412485
vt 0.6768816 0.8741672
vt 0.6723738 0.8738327
vt 0.6914787 0.7946582
vt 0.3159316 0.7739045
vt 0.326617 0.7720845
vt 0.3232386 0.68195
vt 0.3159316 0.6848884
vt 0.8303812 0.4156907
vt 0.8407379 0.4173129
vt 0.8485105 0.3139607
vt 0.8411524 0.3130298
vt 0.834829 0.2503059
vt 0.8303812 0.2488451
vt 0.6168072 0.9303637
vt 0.6267084 0.9257599
vt 0.5772334 0.8452123
vt 0.5695221 0.8468545
vt 0.5789582 0.7762945
vt 0.5745789 0.7746479
vt 0.6267084 0.7147948
vt 0.8543501 0.4167408
vt 0.8650392 0.4153052
vt 0.8561051 0.3117678
vt 0.8485106 0.3125685
vt 0.8650392 0.2488451
vt 0.8605026 0.2501988
vt 0.5182041 0.7817201
vt 0.5118687 0.7786448
vt 0.5118687 0.8597867
vt 0.5153014 0.8589696
usemtl M_DesertTwigRoots
f 1/1/1 3/3/3 2/2/2
f 4/4/4 6/6/6 5/5/5
f 7/7/7 9/9/9 8/8/8
f 10/10/10 12/12/12 11/11/11
f 13/13/13 15/15/15 14/14/14
f 16/16/16 18/18/18 17/17/17
f 19/19/19 21/21/21 20/20/20
f 22/22/22 24/24/24 23/23/23
f 25/25/25 27/27/27 26/26/26
f 28/28/28 30/30/30 29/29/29
f 31/31/31 33/33/33 32/32/32
f 34/34/34 36/36/36 35/35/35
f 37/37/37 39/39/39 38/38/38
f 40/40/40 42/42/42 41/41/41
f 43/43/43 45/45/45 44/44/44
f 46/46/46 48/48/48 47/47/47
f 49/49/49 51/51/51 50/50/50
f 52/52/52 54/54/54 53/53/53
f 52/52/52 55/55/55 54/54/54
f 55/55/55 56/56/56 54/54/54
f 55/55/55 57/57/57 56/56/56
f 57/57/57 58/58/58 56/56/56
f 57/57/57 59/59/59 58/58/58
f 56/56/56 58/58/58 60/60/60
f 56/56/56 60/60/60 61/61/61
f 59/59/59 62/62/62 58/58/58
f 59/59/59 63/63/63 62/62/62
f 63/63/63 64/64/64 62/62/62
f 63/63/63 65/65/65 64/64/64
f 65/65/65 66/66/66 64/64/64
f 65/65/65 67/67/67 66/66/66
f 67/67/67 68/68/68 66/66/66
f 64/64/64 66/66/66 69/69/69
f 64/64/64 69/69/69 70/70/70
f 71/71/71 73/73/73 72/72/72
f 71/71/71 74/74/74 73/73/73
f 74/74/74 75/75/75 73/73/73
f 74/74/74 76/76/76 75/75/75
f 77/77/77 79/79/79 78/78/78
f 77/77/77 80/80/80 79/79/79
f 81/81/81 83/83/83 82/82/82
f 81/81/81 84/84/84 83/83/83
f 85/85/85 87/87/87 86/86/86
f 85/85/85 88/88/88 87/87/87
f 89/89/89 88/88/88 85/85/85
f 88/88/88 90/90/90 87/87/87
f 89/89/89 91/91/91 88/88/88
f 88/88/88 92/92/92 90/90/90
f 91/91/91 92/92/92 88/88/88
f 91/91/91 93/93/93 92/92/92
f 94/94/94 96/96/96 95/95/95
f 94/94/94 97/97/97 96/96/96
f 97/97/97 98/98/98 96/96/96
f 97/97/97 99/99/99 98/98/98
f 96/96/96 98/98/98 100/100/100
f 96/96/96 100/100/100 101/101/101
f 98/98/98 102/102/102 100/100/100
f 98/98/98 103/103/103 102/102/102
f 103/103/103 104/104/104 102/102/102
f 103/103/103 105/105/105 104/104/104
f 105/105/105 106/106/106 104/104/104
f 105/105/105 107/107/107 106/106/106
f 107/107/107 108/108/108 106/106/106
f 109/109/109 111/111/111 110/110/110
f 109/109/109 112/112/112 111/111/111
f 112/112/112 113/113/113 111/111/111
f 112/112/112 114/114/114 113/113/113
f 114/114/114 115/115/115 113/113/113
f 114/114/114 116/116/116 115/115/115
f 117/117/117 119/119/119 118/118/118
f 117/117/117 120/120/120 119/119/119
f 120/120/120 121/121/121 119/119/119
f 120/120/120 122/122/122 121/121/121
f 122/122/122 123/123/123 121/121/121
f 122/122/122 124/124/124 123/123/123
f 121/121/121 123/123/123 125/125/125
f 121/121/121 125/125/125 126/126/126
f 123/123/123 127/127/127 125/125/125
f 124/124/124 128/128/128 123/123/123
f 123/123/123 128/128/128 127/127/127
f 124/124/124 129/129/129 128/128/128
f 128/128/128 130/130/130 127/127/127
f 129/129/129 130/130/130 128/128/128
f 131/131/131 133/133/133 132/132/132
f 131/131/131 134/134/134 133/133/133
f 134/134/134 135/135/135 133/133/133
f 134/134/134 136/136/136 135/135/135
f 137/137/137 139/139/139 138/138/138
f 137/137/137 140/140/140 139/139/139
f 140/140/140 141/141/141 139/139/139
f 140/140/140 142/142/142 141/141/141
f 143/143/143 145/145/145 144/144/144
f 143/143/143 146/146/146 145/145/145
f 147/147/147 149/149/149 148/148/148
f 147/147/147 150/150/150 149/149/149
f 150/150/150 151/151/151 149/149/149
f 150/150/150 152/152/152 151/151/151
f 149/149/149 151/151/151 153/153/153
f 149/149/149 153/153/153 154/154/154
f 155/155/155 157/157/157 156/156/156
f 155/155/155 158/158/158 157/157/157
f 158/158/158 159/159/159 157/157/157
f 158/158/158 160/160/160 159/159/159
f 160/160/160 161/161/161 159/159/159
f 160/160/160 162/162/162 161/161/161
f 162/162/162 163/163/163 161/161/161
f 162/162/162 164/164/164 163/163/163
f 164/164/164 165/165/165 163/163/163
f 164/164/164 166/166/166 165/165/165
f 166/166/166 167/167/167 165/165/165
f 168/168/168 170/170/170 169/169/169
f 168/168/168 171/171/171 170/170/170
f 172/172/172 171/171/171 168/168/168
f 171/171/171 173/173/173 170/170/170
f 172/172/172 174/174/174 171/171/171
f 171/171/171 175/175/175 173/173/173
f 174/174/174 175/175/175 171/171/171
f 174/174/174 176/176/176 175/175/175
f 177/177/177 179/179/179 178/178/178
f 177/177/177 180/180/180 179/179/179
f 181/181/181 180/180/180 177/177/177
f 181/181/181 182/182/182 180/180/180
f 180/180/180 183/183/183 179/179/179
f 180/180/180 184/184/184 183/183/183
f 184/184/184 185/185/185 183/183/183
f 184/184/184 186/186/186 185/185/185
f 183/183/183 185/185/185 187/187/187
f 183/183/183 187/187/187 188/188/188
f 186/186/186 189/189/189 185/185/185
f 186/186/186 190/190/190 189/189/189
f 190/190/190 191/191/191 189/189/189
f 190/190/190 192/192/192 191/191/191
f 192/192/192 193/193/193 191/191/191
f 194/194/194 196/196/196 195/195/195
f 194/194/194 195/195/195 197/197/197
f 197/197/197 195/195/195 198/198/198
f 197/197/197 198/198/198 199/199/199
f 200/200/200 202/202/202 201/201/201
f 200/200/200 203/203/203 202/202/202
f 204/204/204 206/206/206 205/205/205
f 204/204/204 207/207/207 206/206/206
f 208/208/208 207/207/207 204/204/204
f 207/207/207 209/209/209 206/206/206
f 208/208/208 210/210/210 207/207/207
f 207/207/207 211/211/211 209/209/209
f 210/210/210 211/211/211 207/207/207
f 211/211/211 212/212/212 209/209/209
f 210/210/210 213/213/213 211/211/211
f 213/213/213 212/212/212 211/211/211
f 214/214/214 216/216/216 215/215/215
f 214/214/214 217/217/217 216/216/216
f 218/218/218 217/217/217 214/214/214
f 217/217/217 219/219/219 216/216/216
f 218/218/218 220/220/220 217/217/217
f 217/217/217 221/221/221 219/219/219
f 220/220/220 221/221/221 217/217/217
f 220/220/220 222/222/222 221/221/221
f 222/222/222 223/223/223 221/221/221
f 224/224/224 226/226/226 225/225/225
f 224/224/224 227/227/227 226/226/226
f 227/227/227 228/228/228 226/226/226
f 227/227/227 229/229/229 228/228/228
f 229/229/229 230/230/230 228/228/228
f 229/229/229 231/231/231 230/230/230
f 231/231/231 232/232/232 230/230/230
f 233/233/233 235/235/235 234/234/234
f 233/233/233 236/236/236 235/235/235
f 237/237/237 239/239/239 238/238/238
f 237/237/237 240/240/240 239/239/239
f 240/240/240 241/241/241 239/239/239
f 240/240/240 242/242/242 241/241/241
f 242/242/242 243/243/243 241/241/241
f 242/242/242 244/244/244 243/243/243
f 244/244/244 245/245/245 243/243/243
f 246/246/246 248/248/248 247/247/247
f 246/246/246 249/249/249 248/248/248
f 250/250/250 252/252/252 251/251/251
f 250/250/250 253/253/253 252/252/252
f 253/253/253 254/254/254 252/252/252
f 253/253/253 255/255/255 254/254/254
f 255/255/255 256/256/256 254/254/254
f 257/257/257 259/259/259 258/258/258
f 257/257/257 260/260/260 259/259/259
f 260/260/260 261/261/261 259/259/259
f 260/260/260 262/262/262 261/261/261
f 262/262/262 263/263/263 261/261/261
f 264/264/264 266/266/266 265/265/265
f 264/264/264 267/267/267 266/266/266
f 267/267/267 268/268/268 266/266/266
f 267/267/267 269/269/269 268/268/268
f 269/269/269 270/270/270 268/268/268
f 269/269/269 271/271/271 270/270/270
f 271/271/271 272/272/272 270/270/270
f 273/273/273 275/275/275 274/274/274
f 273/273/273 276/276/276 275/275/275
f 277/277/277 279/279/279 278/278/278
f 277/277/277 280/280/280 279/279/279
f 280/280/280 281/281/281 279/279/279
f 280/280/280 282/282/282 281/281/281
f 282/282/282 283/283/283 281/281/281
f 282/282/282 284/284/284 283/283/283
f 284/284/284 285/285/285 283/283/283
f 286/286/286 288/288/288 287/287/287
f 286/286/286 289/289/289 288/288/288
f 290/290/290 292/292/292 291/291/291
f 290/290/290 293/293/293 292/292/292
f 293/293/293 294/294/294 292/292/292
f 293/293/293 295/295/295 294/294/294
f 296/296/296 298/298/298 297/297/297
f 296/296/296 299/299/299 298/298/298
f 299/299/299 300/300/300 298/298/298
f 299/299/299 301/301/301 300/300/300
f 302/302/302 304/304/304 303/303/303
f 302/302/302 305/305/305 304/304/304
f 305/305/305 306/306/306 304/304/304
f 305/305/305 307/307/307 306/306/306
f 307/307/307 308/308/308 306/306/306
f 307/307/307 309/309/309 308/308/308
f 309/309/309 310/310/310 308/308/308
f 311/311/311 313/313/313 312/312/312
f 311/311/311 314/314/314 313/313/313
f 314/314/314 315/315/315 313/313/313
f 314/314/314 316/316/316 315/315/315
f 317/317/317 319/319/319 318/318/318
f 317/317/317 320/320/320 319/319/319
f 320/320/320 321/321/321 319/319/319
f 320/320/320 322/322/322 321/321/321
f 322/322/322 323/323/323 321/321/321
f 322/322/322 324/324/324 323/323/323
f 324/324/324 325/325/325 323/323/323
f 326/326/326 328/328/328 327/327/327
f 326/326/326 329/329/329 328/328/328
f 330/330/330 332/332/332 331/331/331
f 330/330/330 333/333/333 332/332/332
f 333/333/333 334/334/334 332/332/332
f 333/333/333 335/335/335 334/334/334
f 335/335/335 336/336/336 334/334/334
f 337/337/337 339/339/339 338/338/338
f 337/337/337 340/340/340 339/339/339
f 340/340/340 341/341/341 339/339/339
f 342/342/342 344/344/344 343/343/343
f 342/342/342 345/345/345 344/344/344
f 346/346/346 348/348/348 347/347/347
f 346/346/346 349/349/349 348/348/348
f 349/349/349 350/350/350 348/348/348
f 349/349/349 351/351/351 350/350/350
f 351/351/351 352/352/352 350/350/350
f 351/351/351 353/353/353 352/352/352
f 353/353/353 354/354/354 352/352/352
f 355/355/355 357/357/357 356/356/356
f 355/355/355 358/358/358 357/357/357
f 358/358/358 359/359/359 357/357/357
f 358/358/358 360/360/360 359/359/359
f 360/360/360 361/361/361 359/359/359
f 360/360/360 362/362/362 361/361/361
f 362/362/362 363/363/363 361/361/361
f 364/364/364 366/366/366 365/365/365
f 364/364/364 367/367/367 366/366/366
f 367/367/367 368/368/368 366/366/366
f 367/367/367 369/369/369 368/368/368
f 369/369/369 370/370/370 368/368/368
f 369/369/369 371/371/371 370/370/370
f 371/371/371 372/372/372 370/370/370
f 373/373/373 375/375/375 374/374/374
f 373/373/373 376/376/376 375/375/375
f 376/376/376 377/377/377 375/375/375
f 376/376/376 378/378/378 377/377/377
f 378/378/378 379/379/379 377/377/377
f 380/380/380 382/382/382 381/381/381
f 380/380/380 383/383/383 382/382/382
f 383/383/383 384/384/384 382/382/382
f 383/383/383 385/385/385 384/384/384
f 386/386/386 388/388/388 387/387/387
f 386/386/386 389/389/389 388/388/388
f 389/389/389 390/390/390 388/388/388
f 389/389/389 391/391/391 390/390/390
f 391/391/391 392/392/392 390/390/390
f 391/391/391 393/393/393 392/392/392
f 393/393/393 394/394/394 392/392/392
f 395/395/395 397/397/397 396/396/396
f 395/395/395 398/398/398 397/397/397
f 398/398/398 399/399/399 397/397/397
f 398/398/398 400/400/400 399/399/399
f 401/401/401 403/403/403 402/402/402
f 401/401/401 404/404/404 403/403/403
f 404/404/404 405/405/405 403/403/403
f 404/404/404 406/406/406 405/405/405
f 406/406/406 407/407/407 405/405/405
f 406/406/406 408/408/408 407/407/407
f 408/408/408 409/409/409 407/407/407
f 410/410/410 412/412/412 411/411/411
f 410/410/410 413/413/413 412/412/412
f 413/413/413 414/414/414 412/412/412
f 415/415/415 417/417/417 416/416/416
f 415/415/415 418/418/418 417/417/417
f 418/418/418 419/419/419 417/417/417
f 420/420/420 422/422/422 421/421/421
f 420/420/420 423/423/423 422/422/422
f 423/423/423 424/424/424 422/422/422
f 423/423/423 425/425/425 424/424/424
f 425/425/425 426/426/426 424/424/424
f 427/427/427 429/429/429 428/428/428
f 427/427/427 430/430/430 429/429/429
f 430/430/430 431/431/431 429/429/429
f 430/430/430 432/432/432 431/431/431
f 432/432/432 433/433/433 431/431/431
f 434/434/434 436/436/436 435/435/435
f 434/434/434 437/437/437 436/436/436
f 437/437/437 438/438/438 436/436/436
f 437/437/437 439/439/439 438/438/438
f 439/439/439 440/440/440 438/438/438
f 441/441/441 443/443/443 442/442/442
f 441/441/441 444/444/444 443/443/443
f 445/445/445 447/447/447 446/446/446
f 445/445/445 448/448/448 447/447/447
f 448/448/448 449/449/449 447/447/447
f 450/450/450 452/452/452 451/451/451
f 450/450/450 453/453/453 452/452/452
f 453/453/453 454/454/454 452/452/452
f 453/453/453 455/455/455 454/454/454
f 456/456/456 458/458/458 457/457/457
f 456/456/456 459/459/459 458/458/458
f 459/459/459 460/460/460 458/458/458
f 459/459/459 461/461/461 460/460/460
f 461/461/461 462/462/462 460/460/460
f 463/463/463 465/465/465 464/464/464
f 463/463/463 466/466/466 465/465/465
f 466/466/466 467/467/467 465/465/465
f 466/466/466 468/468/468 467/467/467
f 469/469/469 471/471/471 470/470/470
f 469/469/469 472/472/472 471/471/471
f 472/472/472 473/473/473 471/471/471
f 472/472/472 474/474/474 473/473/473
f 474/474/474 475/475/475 473/473/473
f 476/476/476 478/478/478 477/477/477
f 476/476/476 479/479/479 478/478/478
f 480/480/480 482/482/482 481/481/481
f 480/480/480 483/483/483 482/482/482
f 484/484/484 486/486/486 485/485/485
f 484/484/484 487/487/487 486/486/486
f 487/487/487 488/488/488 486/486/486
f 487/487/487 489/489/489 488/488/488
f 489/489/489 490/490/490 488/488/488
f 489/489/489 491/491/491 490/490/490
f 491/491/491 492/492/492 490/490/490
f 491/491/491 493/493/493 492/492/492
f 493/493/493 494/494/494 492/492/492
f 495/495/495 497/497/497 496/496/496
f 495/495/495 498/498/498 497/497/497
f 498/498/498 499/499/499 497/497/497
f 498/498/498 500/500/500 499/499/499
f 500/500/500 501/501/501 499/499/499
f 500/500/500 502/502/502 501/501/501
f 502/502/502 503/503/503 501/501/501
f 502/502/502 504/504/504 503/503/503
f 504/504/504 505/505/505 503/503/503
f 506/506/506 508/508/508 507/507/507
f 506/506/506 509/509/509 508/508/508
f 510/510/510 509/509/509 506/506/506
f 510/510/510 511/511/511 509/509/509
f 512/512/512 514/514/514 513/513/513
f 512/512/512 515/515/515 514/514/514
f 516/516/516 518/518/518 517/517/517
f 516/516/516 519/519/519 518/518/518
f 519/519/519 520/520/520 518/518/518
f 519/519/519 521/521/521 520/520/520
f 521/521/521 522/522/522 520/520/520
f 523/523/523 525/525/525 524/524/524
f 523/523/523 526/526/526 525/525/525
f 526/526/526 527/527/527 525/525/525
f 528/528/528 530/530/530 529/529/529
f 528/528/528 531/531/531 530/530/530
f 532/532/532 534/534/534 533/533/533
f 532/532/532 535/535/535 534/534/534
f 535/535/535 536/536/536 534/534/534
f 537/537/537 539/539/539 538/538/538
f 537/537/537 540/540/540 539/539/539
f 541/541/541 543/543/543 542/542/542
f 541/541/541 544/544/544 543/543/543
f 544/544/544 545/545/545 543/543/543
f 546/546/546 548/548/548 547/547/547
f 546/546/546 549/549/549 548/548/548
f 549/549/549 550/550/550 548/548/548
f 551/551/551 553/553/553 552/552/552
f 551/551/551 554/554/554 553/553/553
f 554/554/554 555/555/555 553/553/553
f 556/556/556 558/558/558 557/557/557
f 556/556/556 559/559/559 558/558/558
f 559/559/559 560/560/560 558/558/558
f 561/561/561 563/563/563 562/562/562
f 561/561/561 564/564/564 563/563/563
f 564/564/564 565/565/565 563/563/563
f 566/566/566 568/568/568 567/567/567
f 566/566/566 569/569/569 568/568/568
f 569/569/569 570/570/570 568/568/568
f 571/571/571 573/573/573 572/572/572
f 571/571/571 574/574/574 573/573/573
f 574/574/574 575/575/575 573/573/573
f 576/576/576 578/578/578 577/577/577
f 576/576/576 579/579/579 578/578/578
f 579/579/579 580/580/580 578/578/578
f 581/581/581 583/583/583 582/582/582
f 581/581/581 584/584/584 583/583/583
f 584/584/584 585/585/585 583/583/583
f 586/586/586 588/588/588 587/587/587
f 586/586/586 589/589/589 588/588/588
f 589/589/589 590/590/590 588/588/588
f 589/589/589 591/591/591 590/590/590
f 591/591/591 592/592/592 590/590/590
f 591/591/591 593/593/593 592/592/592
f 593/593/593 594/594/594 592/592/592
f 595/595/595 597/597/597 596/596/596
f 595/595/595 598/598/598 597/597/597
f 598/598/598 599/599/599 597/597/597
f 598/598/598 600/600/600 599/599/599
f 600/600/600 601/601/601 599/599/599
f 600/600/600 602/602/602 601/601/601
f 603/603/603 605/605/605 604/604/604
f 603/603/603 606/606/606 605/605/605
f 606/606/606 607/607/607 605/605/605
f 606/606/606 608/608/608 607/607/607
f 608/608/608 609/609/609 607/607/607
f 608/608/608 610/610/610 609/609/609
f 610/610/610 611/611/611 609/609/609
f 612/612/612 614/614/614 613/613/613
f 612/612/612 615/615/615 614/614/614
f 616/616/616 618/618/618 617/617/617
f 616/616/616 619/619/619 618/618/618
f 620/620/620 622/622/622 621/621/621
f 620/620/620 623/623/623 622/622/622
f 624/624/624 626/626/626 625/625/625
f 624/624/624 627/627/627 626/626/626
f 627/627/627 628/628/628 626/626/626
f 627/627/627 629/629/629 628/628/628
f 629/629/629 630/630/630 628/628/628
f 631/631/631 633/633/633 632/632/632
f 631/631/631 634/634/634 633/633/633
f 634/634/634 635/635/635 633/633/633
f 634/634/634 636/636/636 635/635/635
f 636/636/636 637/637/637 635/635/635
f 638/638/638 640/640/640 639/639/639
f 638/638/638 641/641/641 640/640/640
f 642/642/642 644/644/644 643/643/643
f 642/642/642 645/645/645 644/644/644
f 645/645/645 646/646/646 644/644/644
f 645/645/645 647/647/647 646/646/646
f 647/647/647 648/648/648 646/646/646
f 649/649/649 651/651/651 650/650/650
f 649/649/649 652/652/652 651/651/651
f 653/653/653 655/655/655 654/654/654
f 653/653/653 656/656/656 655/655/655
f 657/657/657 659/659/659 658/658/658
f 657/657/657 660/660/660 659/659/659
f 660/660/660 661/661/661 659/659/659
f 660/660/660 662/662/662 661/661/661
f 659/659/659 661/661/661 663/663/663
f 659/659/659 663/663/663 664/664/664
f 665/665/665 667/667/667 666/666/666
f 665/665/665 668/668/668 667/667/667
f 669/669/669 671/671/671 670/670/670
f 669/669/669 672/672/672 671/671/671
f 673/673/673 675/675/675 674/674/674
f 673/673/673 676/676/676 675/675/675
f 677/677/677 679/679/679 678/678/678
f 677/677/677 680/680/680 679/679/679
f 680/680/680 681/681/681 679/679/679
f 680/680/680 682/682/682 681/681/681
f 682/682/682 683/683/683 681/681/681
f 684/684/684 686/686/686 685/685/685
f 684/684/684 687/687/687 686/686/686
f 687/687/687 688/688/688 686/686/686
f 689/689/689 691/691/691 690/690/690
f 689/689/689 692/692/692 691/691/691
f 693/693/693 695/695/695 694/694/694
f 693/693/693 696/696/696 695/695/695
f 696/696/696 697/697/697 695/695/695
f 698/698/698 700/700/700 699/699/699
f 698/698/698 701/701/701 700/700/700
f 702/702/702 704/704/704 703/703/703
f 702/702/702 705/705/705 704/704/704
f 706/706/706 705/705/705 702/702/702
f 705/705/705 707/707/707 704/704/704
f 706/706/706 708/708/708 705/705/705
f 705/705/705 709/709/709 707/707/707
f 708/708/708 709/709/709 705/705/705
f 708/708/708 710/710/710 709/709/709
f 710/710/710 711/711/711 709/709/709
f 712/712/712 714/714/714 713/713/713
f 712/712/712 715/715/715 714/714/714
f 716/716/716 718/718/718 717/717/717
f 716/716/716 719/719/719 718/718/718
f 719/719/719 720/720/720 718/718/718
f 721/721/721 723/723/723 722/722/722
f 721/721/721 724/724/724 723/723/723
f 724/724/724 725/725/725 723/723/723
f 726/726/726 728/728/728 727/727/727
f 726/726/726 729/729/729 728/728/728
f 730/730/730 732/732/732 731/731/731
f 730/730/730 733/733/733 732/732/732
f 733/733/733 734/734/734 732/732/732
f 733/733/733 735/735/735 734/734/734
f 736/736/736 738/738/738 737/737/737
f 736/736/736 739/739/739 738/738/738
f 739/739/739 740/740/740 738/738/738
f 739/739/739 741/741/741 740/740/740
f 741/741/741 742/742/742 740/740/740
f 743/743/743 745/745/745 744/744/744
f 743/743/743 746/746/746 745/745/745
f 746/746/746 747/747/747 745/745/745
f 746/746/746 748/748/748 747/747/747
f 749/749/749 751/751/751 750/750/750
f 749/749/749 752/752/752 751/751/751
