mtllib P_ElephantEars03.mtl
v 0.3596534 1.949822 -0.1868808 1 1 1
v 0.4864983 1.934245 -0.3067518 1 1 1
v 0.7695122 1.945546 -0.2071678 1 1 1
v 0.7044529 1.984969 -0.06764449 1 1 1
v 0.8465601 1.9635 0.05770376 1 1 1
v 0.9625748 1.918743 -0.03802282 1 1 1
v 1.050849 1.86922 0.3518536 1 1 1
v 1.196666 1.77427 0.3186926 1 1 1
v 1.059563 1.737645 0.6749974 1 1 1
v 1.132673 1.638587 0.6823706 1 1 1
v 0.9788591 1.685106 0.8266646 1 1 1
v 1.019402 1.575436 0.8926973 1 1 1
v 0.840085 1.65606 0.9551148 1 1 1
v 0.8516941 1.753208 0.8709476 1 1 1
v 0.5159636 1.830477 0.923815 1 1 1
v 0.5634161 1.908396 0.7830373 1 1 1
v 0.1766838 1.964371 0.6982093 1 1 1
v 0.2848394 1.995544 0.583427 1 1 1
v 0.03842713 1.986877 0.522795 1 1 1
v 0.1824701 2.013892 0.454213 1 1 1
v -0.03854685 1.965415 0.1953998 1 1 1
v 0.4101507 1.960932 0.4338601 1 1 1
v 0.1903794 2.007033 0.134809 1 1 1
v 0.07426419 1.966492 0.08789187 1 1 1
v 0.249294 1.973794 -0.00665871 1 1 1
v 0.5952591 1.921597 0.58326 1 1 1
v 0.3607928 1.971319 0.3710896 1 1 1
v 0.5339547 1.914493 0.2834274 1 1 1
v 0.3649196 1.974204 0.2332899 1 1 1
v 0.315704 1.967354 0.06063999 1 1 1
v 0.4189148 1.968071 0.1645595 1 1 1
v 0.4044021 1.99478 -0.07130545 1 1 1
v 0.5021169 1.966255 0.1090924 1 1 1
v 0.6219151 1.956458 0.1103216 1 1 1
v 0.6907679 1.943825 0.1708094 1 1 1
v 0.8411512 1.897585 0.3648906 1 1 1
v 0.624595 1.914804 0.3820624 1 1 1
v 0.942169 1.785477 0.6432114 1 1 1
v 0.8368937 1.789596 0.7399688 1 1 1
v 0.905107 1.776137 0.7210893 1 1 1
v 0.8180798 1.825885 0.6048753 1 1 1
v -0.82787 1.535606 0.4272716 1 1 1
v -0.4839104 1.676512 0.1216082 1 1 1
v -0.272355 1.690231 0.1892668 1 1 1
v -0.253869 1.686584 0.3762916 1 1 1
v -0.03259712 1.686927 0.3419551 1 1 1
v -0.06396516 1.627774 0.4595574 1 1 1
v 0.2707187 1.700564 0.3491697 1 1 1
v 0.1534065 1.694685 0.4962969 1 1 1
v 0.5112705 1.693368 0.4176356 1 1 1
v 0.5944677 1.575445 0.8213486 1 1 1
v -0.6465713 1.556539 0.5689788 1 1 1
v -0.7237035 1.442942 0.7619761 1 1 1
v -0.9336587 1.384789 0.6896052 1 1 1
v -0.7415538 1.152042 1.174338 1 1 1
v -0.9278393 1.001599 1.167313 1 1 1
v -0.4440203 1.42425 0.8008043 1 1 1
v -0.4066221 1.481264 0.7082132 1 1 1
v -0.161643 1.390794 0.8314984 1 1 1
v -0.2380364 1.544864 0.6287993 1 1 1
v -0.4804185 1.248052 1.094353 1 1 1
v -0.601781 0.817751 1.495341 1 1 1
v -0.6892161 0.6557699 1.48624 1 1 1
v -0.1143952 1.550307 0.6471741 1 1 1
v 0.01349774 1.546417 0.7106153 1 1 1
v 0.3696337 1.586059 0.8502108 1 1 1
v 0.1014745 1.495384 0.848889 1 1 1
v 0.3268099 1.457598 1.086479 1 1 1
v 0.5371265 1.404554 1.142781 1 1 1
v 0.08153947 1.430306 0.9621168 1 1 1
v 0.1424919 1.138656 1.465906 1 1 1
v 0.3106692 0.9822443 1.571907 1 1 1
v -0.03243375 1.236066 1.238823 1 1 1
v -0.2104782 0.8189022 1.612734 1 1 1
v -0.1431646 0.6618865 1.655563 1 1 1
v -0.2147512 1.319072 1.000695 1 1 1
v -0.4399942 0.707576 1.585438 1 1 1
v -0.4646889 0.5207491 1.620865 1 1 1
v -0.2686712 0.9329623 1.476971 1 1 1
v -0.462979 0.9285093 1.414127 1 1 1
v -0.3874327 0.8977215 1.476811 1 1 1
v -0.3221106 1.042219 1.325536 1 1 1
v 0.5529788 1.408078 -0.01549314 1 1 1
v 0.6680585 1.4007 -0.2058035 1 1 1
v 1.04654 1.364498 -0.17711 1 1 1
v 1.016731 1.391096 0.02071228 1 1 1
v 1.22612 1.323188 0.1217035 1 1 1
v 1.331015 1.275432 -0.04088253 1 1 1
v 1.552941 1.122438 0.3938812 1 1 1
v 1.706036 0.9957814 0.2883954 1 1 1
v 1.644216 0.8893246 0.7596474 1 1 1
v 1.720538 0.7565537 0.7267691 1 1 1
v 1.584918 0.8002108 0.9611382 1 1 1
v 1.638149 0.6452308 1.008356 1 1 1
v 1.451071 0.751326 1.157929 1 1 1
v 1.453939 0.8890834 1.069165 1 1 1
v 1.072335 1.009224 1.258561 1 1 1
v 1.098335 1.131173 1.085819 1 1 1
v 0.6081613 1.258997 1.1214 1 1 1
v 0.7092106 1.310835 0.9517407 1 1 1
v 0.3880001 1.338334 0.9585885 1 1 1
v 0.5466652 1.371541 0.8322985 1 1 1
v 0.1884448 1.388412 0.5832976 1 1 1
v 0.8102099 1.286106 0.7225573 1 1 1
v 0.455523 1.42936 0.4410631 1 1 1
v 0.2928127 1.400675 0.4155923 1 1 1
v 0.4781735 1.411527 0.2440188 1 1 1
v 1.076873 1.186378 0.8352651 1 1 1
v 0.7319285 1.317397 0.6646708 1 1 1
v 0.9072746 1.246954 0.4907335 1 1 1
v 0.6943806 1.349562 0.4966767 1 1 1
v 0.5793028 1.382441 0.3024265 1 1 1
v 0.7379157 1.350768 0.3942816 1 1 1
v 0.6506517 1.435233 0.1177571 1 1 1
v 0.8219281 1.351541 0.2990263 1 1 1
v 0.9671101 1.326629 0.2589585 1 1 1
v 1.068141 1.290994 0.3071983 1 1 1
v 1.305284 1.176848 0.4844215 1 1 1
v 1.048823 1.217188 0.5802863 1 1 1
v 1.498291 0.9678888 0.7685801 1 1 1
v 1.40057 0.9635919 0.9216603 1 1 1
v 1.475907 0.9436904 0.873705 1 1 1
v 1.340998 1.039259 0.7704817 1 1 1
v -0.2088939 2.153417 -0.4850658 1 1 1
v -0.2163748 2.151604 -0.4689097 1 1 1
v -0.1849762 1.910545 -0.35807 1 1 1
v -0.1708887 1.903873 -0.3787124 1 1 1
v -0.1503836 1.623522 -0.2463994 1 1 1
v -0.1337539 1.616963 -0.2715826 1 1 1
v -0.1228523 1.342063 -0.1586949 1 1 1
v -0.102266 1.335585 -0.1907027 1 1 1
v -0.09798078 1.037579 -0.08584715 1 1 1
v -0.07349885 1.03204 -0.124782 1 1 1
v -0.1635534 1.918702 -0.3460861 0.8941177 0.8941177 0.8941177
v -0.1246163 1.631855 -0.2315542 0.7764706 0.7764706 0.7764706
v -0.09044216 1.350757 -0.1396095 0.6 0.6 0.6
v -0.05886705 1.045777 -0.0624191 0.454902 0.454902 0.454902
v -0.2006092 2.144537 -0.4551048 0.9490196 0.9490196 0.9490196
v -0.2088939 2.153417 -0.4850658 1 1 1
v -0.1941774 2.152533 -0.4743222 0.9490196 0.9490196 0.9490196
v -0.1708887 1.903873 -0.3787124 1 1 1
v -0.1494659 1.91203 -0.3667287 0.8941177 0.8941177 0.8941177
v -0.1337539 1.616963 -0.2715826 1 1 1
v -0.1079865 1.625296 -0.2567373 0.7764706 0.7764706 0.7764706
v -0.102266 1.335585 -0.1907027 1 1 1
v -0.06985592 1.344279 -0.1716173 0.6 0.6 0.6
v -0.03438513 1.040238 -0.101354 0.454902 0.454902 0.454902
v -0.004265092 0.662758 -0.04256492 0.3764706 0.3764706 0.3764706
v -0.04360002 0.657332 -0.06642473 1 1 1
v -0.02852581 0.6655246 -0.003198271 0.3764706 0.3764706 0.3764706
v -0.06786074 0.6600986 -0.02705807 1 1 1
v -0.01905993 0.233154 -0.03852834 1 1 1
v 0.02045656 0.2354417 -0.01446215 0.3333333 0.3333333 0.3333333
v -0.007487355 -0.06887353 -0.04286487 1 1 1
v -0.003622599 0.23507 0.0251109 0.3333333 0.3333333 0.3333333
v -0.04313909 0.2327823 0.001044704 1 1 1
v -0.01905993 0.233154 -0.03852834 1 1 1
v 0.03211476 -0.06882036 -0.01883076 0.2705882 0.2705882 0.2705882
v 0.008121222 -0.07142659 0.0207102 0.2705882 0.2705882 0.2705882
v -0.03148089 -0.07147976 -0.003323902 1 1 1
v 0.5489913 1.90656 0.2989057 1 1 1
v 0.5444511 1.907922 0.2775558 1 1 1
v 0.4468048 1.697819 0.2078651 1 1 1
v 0.4490266 1.687845 0.2394042 1 1 1
v 0.3432053 1.446615 0.1377698 1 1 1
v 0.3465941 1.436451 0.1758748 1 1 1
v 0.2590322 1.198568 0.08048153 1 1 1
v 0.2640337 1.188009 0.1285605 1 1 1
v 0.1839089 0.9287276 0.03122141 1 1 1
v 0.1907351 0.9188577 0.08937009 1 1 1
v 0.1077788 0.5922849 -0.006185006 1 1 1
v 0.1153965 0.5859129 0.05235257 1 1 1
v 0.4165414 1.709967 0.2138387 0.8941177 0.8941177 0.8941177
v 0.3063368 1.459376 0.1444527 0.7764706 0.7764706 0.7764706
v 0.212181 1.212373 0.08838733 0.6 0.6 0.6
v 0.126863 0.9424914 0.04025448 0.454902 0.454902 0.454902
v 0.04994136 0.6025512 0.002459165 0.3764706 0.3764706 0.3764706
v 0.5195153 1.90527 0.2778919 0.9490196 0.9490196 0.9490196
v 0.5489913 1.90656 0.2989057 1 1 1
v 0.5269225 1.909281 0.3010048 0.9490196 0.9490196 0.9490196
v 0.4490266 1.687845 0.2394042 1 1 1
v 0.4187633 1.699994 0.2453777 0.8941177 0.8941177 0.8941177
v 0.3465941 1.436451 0.1758748 1 1 1
v 0.3097256 1.449212 0.1825577 0.7764706 0.7764706 0.7764706
v 0.2640337 1.188009 0.1285605 1 1 1
v 0.2171825 1.201814 0.1364664 0.6 0.6 0.6
v 0.1907351 0.9188577 0.08937009 1 1 1
v 0.1336892 0.9326218 0.09840316 0.454902 0.454902 0.454902
v 0.05755909 0.5961792 0.06099676 0.3764706 0.3764706 0.3764706
v 0.05836122 0.2063857 0.03171739 1 1 1
v -7.535145E-05 0.2126648 0.04014479 0.3333333 0.3333333 0.3333333
v 0.03566267 -0.06551404 0.03051078 1 1 1
v -0.008292269 0.2150498 -0.01860959 0.3333333 0.3333333 0.3333333
v 0.05014431 0.2087706 -0.02703698 1 1 1
v 0.05836122 0.2063857 0.03171739 1 1 1
v -0.02301238 -0.06209131 0.0389255 0.2705882 0.2705882 0.2705882
v -0.03146775 -0.06256287 -0.01984156 0.2705882 0.2705882 0.2705882
v 0.02720729 -0.06598558 -0.02825627 1 1 1
v 0.9108126 1.215074 0.5217793 1 1 1
v 0.9068953 1.227242 0.4994315 1 1 1
v 0.7401314 1.160696 0.3853961 1 1 1
v 0.73381 1.138159 0.4131769 1 1 1
v 0.5638794 1.052461 0.2698706 1 1 1
v 0.5604573 1.028066 0.3055677 1 1 1
v 0.4136559 0.9146439 0.1712108 1 1 1
v 0.4138185 0.8881033 0.2184847 1 1 1
v 0.2771097 0.7375438 0.08356713 1 1 1
v 0.2821611 0.7117952 0.1430987 1 1 1
v 0.1439763 0.4869583 0.01133342 1 1 1
v 0.1536225 0.4698583 0.0733581 1 1 1
v 0.7185869 1.185615 0.4007093 0.8941177 0.8941177 0.8941177
v 0.5340313 1.079701 0.2856249 0.7764706 0.7764706 0.7764706
v 0.3719057 0.9447404 0.1882511 0.6 0.6 0.6
v 0.2221531 0.7675592 0.1012126 0.454902 0.454902 0.454902
v 0.08442487 0.5083253 0.02648584 0.3764706 0.3764706 0.3764706
v 0.8801072 1.239198 0.5005902 0.9490196 0.9490196 0.9490196
v 0.9108126 1.215074 0.5217793 1 1 1
v 0.8894764 1.228732 0.5263693 0.9490196 0.9490196 0.9490196
v 0.73381 1.138159 0.4131769 1 1 1
v 0.7122654 1.163079 0.42849 0.8941177 0.8941177 0.8941177
v 0.5604573 1.028066 0.3055677 1 1 1
v 0.5306092 1.055306 0.321322 0.7764706 0.7764706 0.7764706
v 0.4138185 0.8881033 0.2184847 1 1 1
v 0.3720683 0.9181998 0.2355251 0.6 0.6 0.6
v 0.2821611 0.7117952 0.1430987 1 1 1
v 0.2272045 0.7418107 0.1607442 0.454902 0.454902 0.454902
v 0.0940711 0.4912253 0.08851051 0.3764706 0.3764706 0.3764706
v 0.0653519 0.1688257 0.03292331 1 1 1
v 0.002645032 0.1794316 0.0466303 0.3333333 0.3333333 0.3333333
v 0.04125267 -0.05464033 0.02969523 1 1 1
v -0.01015662 0.1857705 -0.0168398 0.3333333 0.3333333 0.3333333
v 0.05255024 0.1751645 -0.03054679 1 1 1
v 0.0653519 0.1688257 0.03292331 1 1 1
v -0.0223157 -0.05202268 0.04328682 0.2705882 0.2705882 0.2705882
v -0.03597883 -0.0536721 -0.02029868 0.2705882 0.2705882 0.2705882
v 0.02758952 -0.05628974 -0.03389027 1 1 1
v -0.9421203 1.564435 -0.107465 1 1 1
v -0.9238145 1.573181 -0.08735242 1 1 1
v -0.7304078 1.441293 -0.05558899 1 1 1
v -0.7442031 1.418693 -0.08595693 1 1 1
v -0.5342318 1.268453 -0.02578777 1 1 1
v -0.5543344 1.244693 -0.06246611 1 1 1
v -0.3727967 1.077482 0.001371205 1 1 1
v -0.4016856 1.052203 -0.04490998 1 1 1
v -0.2315158 0.852549 0.02607206 1 1 1
v -0.2701353 0.828463 -0.02991701 1 1 1
v -0.103962 0.5536608 0.04041605 1 1 1
v -0.1461254 0.5378788 -0.01597151 1 1 1
v -0.7099364 1.464026 -0.08180684 0.8941177 0.8941177 0.8941177
v -0.5061579 1.292372 -0.05666931 0.7764706 0.7764706 0.7764706
v -0.3339437 1.102961 -0.03679742 0.6 0.6 0.6
v -0.1809393 0.8768743 -0.01927866 0.454902 0.454902 0.454902
v -0.04984175 0.5696822 -0.004536152 0.3764706 0.3764706 0.3764706
v -0.8951196 1.578219 -0.101887 0.9490196 0.9490196 0.9490196
v -0.9421203 1.564435 -0.107465 1 1 1
v -0.9196411 1.573264 -0.122724 0.9490196 0.9490196 0.9490196
v -0.7442031 1.418693 -0.08595693 1 1 1
v -0.7237315 1.441426 -0.1121748 0.8941177 0.8941177 0.8941177
v -0.5543344 1.244693 -0.06246611 1 1 1
v -0.5262606 1.268612 -0.09334765 0.7764706 0.7764706 0.7764706
v -0.4016856 1.052203 -0.04490998 1 1 1
v -0.3628326 1.077682 -0.08307862 0.6 0.6 0.6
v -0.2701353 0.828463 -0.02991701 1 1 1
v -0.2195589 0.8527884 -0.07526775 0.454902 0.454902 0.454902
v -0.09200513 0.5539002 -0.06092372 0.3764706 0.3764706 0.3764706
v -0.07012783 0.1923306 -0.007820657 1 1 1
v -0.01383583 0.1984774 -0.05253994 0.3333333 0.3333333 0.3333333
v -0.05809311 -0.0587733 -0.006993622 1 1 1
v 0.03049931 0.2043849 0.004080544 0.3333333 0.3333333 0.3333333
v -0.02579269 0.1982381 0.04879983 1 1 1
v -0.07012783 0.1923306 -0.007820657 1 1 1
v -0.001457194 -0.05980225 -0.05168927 0.2705882 0.2705882 0.2705882
v 0.04322186 -0.06107046 0.004954852 0.2705882 0.2705882 0.2705882
v -0.01341405 -0.06004153 0.0496505 1 1 1
v -0.03721994 1.649128 -1.035344 1 1 1
v -0.05555579 1.659168 -1.013126 1 1 1
v -0.05818751 1.524671 -0.7997497 1 1 1
v -0.02829268 1.50003 -0.8184682 1 1 1
v -0.05828644 1.345644 -0.5832029 1 1 1
v -0.02273446 1.319667 -0.609664 1 1 1
v -0.06113341 1.145531 -0.4041025 1 1 1
v -0.01684208 1.117836 -0.4414464 1 1 1
v -0.06459861 0.9080155 -0.2469191 1 1 1
v -0.01160973 0.8815824 -0.2962252 1 1 1
v -0.05931761 0.5905818 -0.1060996 1 1 1
v -0.006479975 0.5732402 -0.1594388 1 1 1
v -0.02726582 1.549455 -0.7829904 0.8941177 0.8941177 0.8941177
v -0.02122729 1.371791 -0.559081 0.7764706 0.7764706 0.7764706
v -0.01466076 1.17344 -0.3696825 0.6 0.6 0.6
v -0.008670747 0.9347041 -0.2011216 0.454902 0.454902 0.454902
v -0.003238489 0.6081792 -0.05626904 0.3764706 0.3764706 0.3764706
v -0.03564692 1.665454 -0.9853219 0.9490196 0.9490196 0.9490196
v -0.03721994 1.649128 -1.035344 1 1 1
v -0.01753956 1.659257 -1.014351 0.9490196 0.9490196 0.9490196
v -0.02829268 1.50003 -0.8184682 1 1 1
v 0.002629042 1.524814 -0.8017089 0.8941177 0.8941177 0.8941177
v -0.02273446 1.319667 -0.609664 1 1 1
v 0.01432474 1.345814 -0.585542 0.7764706 0.7764706 0.7764706
v -0.01684208 1.117836 -0.4414464 1 1 1
v 0.02963057 1.145744 -0.4070264 0.6 0.6 0.6
v -0.01160973 0.8815824 -0.2962252 1 1 1
v 0.04431814 0.9082711 -0.2504277 0.454902 0.454902 0.454902
v 0.04959914 0.5908374 -0.1096082 0.3764706 0.3764706 0.3764706
v -0.002916621 0.2051584 -0.07562914 1 1 1
v 0.05326756 0.2119028 -0.02332748 0.3333333 0.3333333 0.3333333
v -0.001864964 -0.06270247 -0.06249088 1 1 1
v 0.0005349908 0.2183916 0.0324828 0.3333333 0.3333333 0.3333333
v -0.05564919 0.2116473 -0.01981887 1 1 1
v -0.002916621 0.2051584 -0.07562914 1 1 1
v 0.05435023 -0.06385587 -0.009801827 0.2705882 0.2705882 0.2705882
v 0.001648659 -0.06526483 0.04639582 0.2705882 0.2705882 0.2705882
v -0.05456654 -0.0641114 -0.00629322 1 1 1
v -0.1658432 1.37907 0.850335 1 1 1
v -0.1466993 1.387466 0.8357126 1 1 1
v -0.1041286 1.274994 0.6624171 1 1 1
v -0.1320243 1.254388 0.6719993 1 1 1
v -0.06302013 1.125284 0.4860592 1 1 1
v -0.09699056 1.103561 0.5008759 1 1 1
v -0.02676821 0.9579414 0.3407221 1 1 1
v -0.06991865 0.9347808 0.3627468 1 1 1
v 0.005834833 0.7593208 0.2133532 1 1 1
v -0.04666613 0.7372162 0.2434733 1 1 1
v 0.02821372 0.4938694 0.09765568 1 1 1
v -0.02492819 0.4793676 0.1310894 1 1 1
v -0.1261389 1.295719 0.6429082 0.8941177 0.8941177 0.8941177
v -0.08863443 1.14715 0.4593907 0.7764706 0.7764706 0.7764706
v -0.05809862 0.9812798 0.3038822 0.6 0.6 0.6
v -0.03104122 0.7816389 0.1654551 0.454902 0.454902 0.454902
v -0.008021391 0.5085849 0.04644389 0.3764706 0.3764706 0.3764706
v -0.1576471 1.392722 0.8092943 0.9490196 0.9490196 0.9490196
v -0.1658432 1.37907 0.850335 1 1 1
v -0.1778954 1.38754 0.8295074 0.9490196 0.9490196 0.9490196
v -0.1320243 1.254388 0.6719993 1 1 1
v -0.1540346 1.275113 0.6524903 0.8941177 0.8941177 0.8941177
v -0.09699056 1.103561 0.5008759 1 1 1
v -0.1226048 1.125427 0.4742073 0.7764706 0.7764706 0.7764706
v -0.06991865 0.9347808 0.3627468 1 1 1
v -0.101249 0.9581194 0.325907 0.6 0.6 0.6
v -0.04666613 0.7372162 0.2434733 1 1 1
v -0.08354219 0.7595344 0.1955751 0.454902 0.454902 0.454902
v -0.06116329 0.4940831 0.0798776 0.3764706 0.3764706 0.3764706
v -0.0119516 0.1715621 0.0621516 1 1 1
v -0.04780411 0.177202 0.008907195 0.3333333 0.3333333 0.3333333
v -0.01031895 -0.05243444 0.05125125 1 1 1
v 0.005720412 0.1826283 -0.02655914 0.3333333 0.3333333 0.3333333
v 0.04157291 0.1769883 0.02668527 1 1 1
v -0.0119516 0.1715621 0.0621516 1 1 1
v -0.04612331 -0.05339897 -0.002314553 0.2705882 0.2705882 0.2705882
v 0.007449347 -0.05457718 -0.03810227 0.2705882 0.2705882 0.2705882
v 0.04325371 -0.05361266 0.01546352 1 1 1
v 1.062092 1.514827 -0.5289602 1 1 1
v 1.036307 1.529258 -0.5376866 1 1 1
v 0.8193148 1.437526 -0.4412493 1 1 1
v 0.8447441 1.409809 -0.4194568 1 1 1
v 0.5961449 1.295645 -0.3390066 1 1 1
v 0.6315033 1.265819 -0.3154665 1 1 1
v 0.4068798 1.120637 -0.2552291 1 1 1
v 0.4563554 1.088342 -0.2284257 1 1 1
v 0.2381211 0.8999351 -0.1814685 1 1 1
v 0.3031239 0.8687271 -0.1521081 1 1 1
v 0.08879387 0.5918222 -0.1068493 1 1 1
v 0.1589032 0.5711508 -0.08004067 1 1 1
v 0.8211281 1.465388 -0.4079286 0.8941177 0.8941177 0.8941177
v 0.5933127 1.325643 -0.2967451 0.7764706 0.7764706 0.7764706
v 0.3980618 1.153148 -0.1997803 0.6 0.6 0.6
v 0.2219075 0.9314011 -0.1121263 0.454902 0.454902 0.454902
v 0.06747374 0.6127517 -0.03495539 0.3764706 0.3764706 0.3764706
v 1.020751 1.54134 -0.5085943 0.9490196 0.9490196 0.9490196
v 1.062092 1.514827 -0.5289602 1 1 1
v 1.053336 1.529348 -0.5032355 0.9490196 0.9490196 0.9490196
v 0.8447441 1.409809 -0.4194568 1 1 1
v 0.8465575 1.437671 -0.3861361 0.8941177 0.8941177 0.8941177
v 0.6315033 1.265819 -0.3154665 1 1 1
v 0.6286711 1.295817 -0.2732049 0.7764706 0.7764706 0.7764706
v 0.4563554 1.088342 -0.2284257 1 1 1
v 0.4475375 1.120852 -0.1729769 0.6 0.6 0.6
v 0.3031239 0.8687271 -0.1521081 1 1 1
v 0.2869103 0.9001932 -0.08276589 0.454902 0.454902 0.454902
v 0.1375831 0.5920804 -0.008146722 0.3764706 0.3764706 0.3764706
v 0.07024913 0.2057312 -0.03526265 1 1 1
v 0.04578996 0.2137219 0.03821678 0.3333333 0.3333333 0.3333333
v 0.05686993 -0.0629424 -0.02794648 1 1 1
v -0.02745844 0.2214546 0.01299361 0.3333333 0.3333333 0.3333333
v -0.002999272 0.2134638 -0.06048583 1 1 1
v 0.07024913 0.2057312 -0.03526265 1 1 1
v 0.03193703 -0.06446474 0.04579201 0.2705882 0.2705882 0.2705882
v -0.04178509 -0.06624527 0.02082788 0.2705882 0.2705882 0.2705882
v -0.01685221 -0.06472292 -0.05291061 1 1 1
v -0.4769844 1.87516 -1.275542 1 1 1
v -0.5013932 1.741286 -1.364917 1 1 1
v -0.2653411 1.823326 -1.355062 1 1 1
v -0.7189806 1.837544 -1.182872 1 1 1
v -0.3086683 1.946551 -1.268904 1 1 1
v 0.09797499 2.014853 -1.176442 1 1 1
v -0.6322119 1.952973 -1.144032 1 1 1
v -0.9452881 2.027377 -0.8083696 1 1 1
v -0.01292649 2.120532 -1.04265 1 1 1
v 0.3862751 2.167912 -0.7716729 1 1 1
v -0.7589189 2.130671 -0.7815033 1 1 1
v -0.8337534 2.207895 -0.305124 1 1 1
v 0.2153439 2.2195 -0.6934949 1 1 1
v 0.4630159 2.196473 -0.5121164 1 1 1
v 0.2726096 2.242645 -0.5021118 1 1 1
v 0.3981259 2.184897 -0.1088729 1 1 1
v 0.003862068 2.194729 -0.5821869 1 1 1
v 0.1174856 2.253814 -0.147234 1 1 1
v 0.2227975 2.199967 -0.04008456 1 1 1
v -0.01580543 2.225872 -0.01457716 1 1 1
v -0.1386296 2.15043 -0.833558 1 1 1
v 0.031387 2.207778 -0.4894305 1 1 1
v -0.2073085 2.155608 -0.4688589 1 1 1
v -0.0358528 2.21971 -0.3368305 1 1 1
v -0.06003986 2.218444 -0.120359 1 1 1
v -0.2236362 2.214805 0.1376614 1 1 1
v -0.1282023 2.219909 -0.2843286 1 1 1
v -0.2173134 2.265245 -0.01388404 1 1 1
v -0.4217092 2.211389 0.2143792 1 1 1
v -0.6923984 2.23769 -0.02757433 1 1 1
v -0.246863 2.226454 -0.260241 1 1 1
v -0.5525968 2.272823 -0.1554161 1 1 1
v -0.6564023 2.248737 -0.360608 1 1 1
v -0.3813227 2.222384 -0.316311 1 1 1
v -0.431915 2.208031 -0.4153869 1 1 1
v -0.5156979 2.150458 -0.7007338 1 1 1
v -0.2638329 2.156073 -0.6211184 1 1 1
v -0.5112243 2.005006 -1.055934 1 1 1
v -0.34881 1.997351 -1.116278 1 1 1
v -0.4349573 1.986664 -1.126003 1 1 1
v -0.3863407 2.048012 -0.9571921 1 1 1
v 1.137273 1.64762 0.01019239 1 1 1
v 0.6937711 1.702344 0.1797748 1 1 1
v 0.609412 1.730984 -0.01772659 1 1 1
v 1.148677 1.602074 0.2302028 1 1 1
v 0.7360811 1.755153 -0.1475909 1 1 1
v 0.5716448 1.756349 -0.290732 1 1 1
v 1.338797 1.564315 -0.06483859 1 1 1
v 1.422857 1.492272 0.1293283 1 1 1
v 1.681546 1.343844 -0.3398372 1 1 1
v 1.807614 1.193114 -0.2142013 1 1 1
v 1.193402 1.559377 -0.2988193 1 1 1
v 1.861924 1.072508 -0.680383 1 1 1
v 1.925416 0.9129887 -0.6282312 1 1 1
v 0.6836696 1.71569 -0.3469212 1 1 1
v 0.3850364 1.778551 -0.5190321 1 1 1
v 1.096237 1.601773 -0.2628291 1 1 1
v 1.041706 1.539118 -0.5314515 1 1 1
v 0.9257132 1.655897 -0.331725 1 1 1
v 1.44938 1.431525 -0.4734606 1 1 1
v 0.5678427 1.791176 -0.5235562 1 1 1
v 0.2850161 1.787948 -0.7409623 1 1 1
v 0.8610402 1.667079 -0.4343496 1 1 1
v 0.7031983 1.743816 -0.9155713 1 1 1
v 0.5415924 1.735359 -1.065994 1 1 1
v 0.8278133 1.675945 -0.5690792 1 1 1
v 0.9164726 1.653406 -1.044561 1 1 1
v 0.8308003 1.616113 -1.24172 1 1 1
v 0.8793072 1.649264 -0.7258163 1 1 1
v 1.342202 1.396754 -1.178678 1 1 1
v 1.329403 1.266095 -1.387047 1 1 1
v 0.9814772 1.602569 -0.7884697 1 1 1
v 1.702453 1.101042 -1.043655 1 1 1
v 1.706513 0.9579468 -1.138058 1 1 1
v 1.27549 1.452853 -0.8971011 1 1 1
v 1.837059 0.9838631 -0.8688971 1 1 1
v 1.896297 0.8085677 -0.8937461 1 1 1
v 1.206632 1.493288 -0.6048385 1 1 1
v 1.628158 1.189529 -0.9034236 1 1 1
v 1.704354 1.170964 -0.7206615 1 1 1
v 1.706003 1.152448 -0.8190886 1 1 1
v 1.539767 1.271242 -0.7575757 1 1 1
v 0.7001804 1.777918 -0.9936454 1 1 1
v 0.5717435 1.895801 -0.5841311 1 1 1
v 0.2695994 1.91724 -0.6794316 1 1 1
v 0.3716636 1.912251 -0.538788 1 1 1
v 0.1089838 1.916848 -0.5487015 1 1 1
v 0.07767211 1.867301 -0.6592866 1 1 1
v -0.1361621 1.93088 -0.4123074 1 1 1
v -0.1112736 1.93154 -0.5846345 1 1 1
v -0.3603001 1.928153 -0.3548281 1 1 1
v -0.6179886 1.837417 -0.6422102 1 1 1
v 0.4899073 1.804204 -1.02122 1 1 1
v 0.4585784 1.707535 -1.215284 1 1 1
v 0.658443 1.649835 -1.25774 1 1 1
v 0.2731013 1.457019 -1.56305 1 1 1
v 0.4212403 1.317046 -1.649922 1 1 1
v 0.2167296 1.693017 -1.116314 1 1 1
v 0.2315097 1.74172 -1.022936 1 1 1
v -0.02385402 1.664509 -1.010136 1 1 1
v 0.1355892 1.797572 -0.8785605 1 1 1
v 0.1043949 1.543126 -1.373818 1 1 1
v 0.003290713 1.162948 -1.765931 1 1 1
v 0.07319307 1.012588 -1.805403 1 1 1
v 0.02845976 1.803869 -0.8352739 1 1 1
v -0.1033177 1.803558 -0.8262799 1 1 1
v -0.4516967 1.847675 -0.7698395 1 1 1
v -0.2393317 1.762867 -0.897319 1 1 1
v -0.5309712 1.73932 -0.9829285 1 1 1
v -0.7264724 1.693587 -0.9315383 1 1 1
v -0.2778818 1.707694 -0.9992921 1 1 1
v -0.5689197 1.460827 -1.383194 1 1 1
v -0.7565988 1.321653 -1.394879 1 1 1
v -0.3208974 1.540104 -1.280251 1 1 1
v -0.3637911 1.170654 -1.676763 1 1 1
v -0.4415102 1.027751 -1.685197 1 1 1
v -0.06219163 1.605559 -1.172476 1 1 1
v -0.1706896 1.065759 -1.766234 1 1 1
v -0.1722705 0.8946506 -1.81282 1 1 1
v -0.2511131 1.269789 -1.591522 1 1 1
v -0.06680965 1.262176 -1.632312 1 1 1
v -0.1571342 1.23679 -1.64814 1 1 1
v -0.1350443 1.36381 -1.491739 1 1 1
v -1.691865 0.9778634 -0.2187062 1 1 1
v -1.735471 0.8098959 -0.2384575 1 1 1
v -1.652324 0.9352018 -0.4606486 1 1 1
v -1.70047 0.929351 0.05784512 1 1 1
v -1.637591 1.080109 -0.3772006 1 1 1
v -1.399324 1.246448 -0.7251552 1 1 1
v -1.66871 1.072842 -0.006466568 1 1 1
v -1.528146 1.20365 0.4539365 1 1 1
v -1.364668 1.37768 -0.5543195 1 1 1
v -0.9598033 1.578957 -0.8113492 1 1 1
v -1.459071 1.347615 0.2878475 1 1 1
v -1.086778 1.566092 0.5847419 1 1 1
v -0.982567 1.627715 -0.6092941 1 1 1
v -0.7003769 1.703901 -0.7630172 1 1 1
v -0.7917337 1.722061 -0.5742936 1 1 1
v -0.3581058 1.810866 -0.5109369 1 1 1
v -0.9654449 1.603236 -0.3532787 1 1 1
v -0.5413544 1.821454 -0.2577421 1 1 1
v -0.3781403 1.818993 -0.3094004 1 1 1
v -0.4692784 1.81364 -0.06710696 1 1 1
v -1.240665 1.454084 -0.3345138 1 1 1
v -0.8737183 1.650775 -0.3360766 1 1 1
v -0.9411623 1.564965 -0.09674835 1 1 1
v -0.768866 1.700626 -0.199374 1 1 1
v -0.5822306 1.764817 -0.07427044 1 1 1
v -0.4182896 1.816751 0.2047642 1 1 1
v -0.761829 1.702314 -0.08564213 1 1 1
v -0.5715275 1.820096 0.1278779 1 1 1
v -0.8504462 1.726518 0.3846666 1 1 1
v -0.434438 1.804968 0.4317856 1 1 1
v -0.7830126 1.708811 0.5792471 1 1 1
v -0.794495 1.696911 0.04015625 1 1 1
v -1.073968 1.619044 0.3880365 1 1 1
v -0.9031542 1.652424 0.1433943 1 1 1
v -1.010303 1.597702 0.1454493 1 1 1
v -1.285789 1.434004 0.09150696 1 1 1
v -1.104632 1.507148 -0.1138438 1 1 1
v -1.554195 1.173811 -0.08120382 1 1 1
v -1.534845 1.173734 -0.2662485 1 1 1
v -1.577722 1.145484 -0.1878608 1 1 1
v -1.425025 1.269729 -0.1547768 1 1 1
vn -0.049721 0.9775326 -0.2048361
vn 0.009128111 0.967701 -0.2519354
vn 0.1291824 0.9709504 -0.2014131
vn 0.09120386 0.9940725 -0.0591756
vn 0.2247537 0.9730287 0.05196999
vn 0.3765905 0.9241591 -0.06410584
vn 0.3976883 0.8929943 0.2107254
vn 0.5849743 0.7889329 0.1881222
vn 0.5047053 0.7608709 0.407858
vn 0.6582057 0.6150806 0.4340981
vn 0.530196 0.6667076 0.5238255
vn 0.5793127 0.550958 0.6007014
vn 0.4026209 0.6352341 0.6590707
vn 0.4088379 0.7705311 0.4890128
vn 0.1733982 0.8174602 0.5492647
vn 0.2394446 0.9104167 0.3373539
vn -0.01954613 0.9505493 0.3099579
vn 0.09415451 0.9806502 0.1716397
vn -0.140167 0.9873961 0.07349999
vn -0.002192925 0.9994526 0.03301128
vn -0.194965 0.9795111 -0.05046498
vn 0.2321295 0.9723218 -0.0265762
vn -0.004244171 0.9933569 -0.1149957
vn -0.1443373 0.9832863 -0.110972
vn -0.1020774 0.9797409 -0.1723019
vn 0.3094064 0.9488702 0.06255476
vn 0.2496648 0.9681576 -0.01839052
vn 0.1544013 0.9830751 0.09860779
vn 0.2418081 0.9702923 0.007858614
vn 0.0005538638 0.9977183 -0.06751166
vn 0.1520976 0.9835548 0.09739715
vn -0.05332493 0.9963311 -0.06693918
vn 0.06019535 0.9803488 0.1878639
vn 0.02630037 0.980303 0.1957406
vn 0.02630662 0.9823002 0.1854567
vn 0.1172463 0.9607956 0.2512472
vn 0.154152 0.9843076 0.08588152
vn 0.2358081 0.9160426 0.3244387
vn 0.3815013 0.9026725 0.1990957
vn 0.3384327 0.8905084 0.3040694
vn 0.26201 0.9437419 0.2017477
vn -0.2940987 0.9212041 0.2547333
vn -0.2160083 0.9644202 0.1524276
vn -0.1396995 0.9755819 0.1694814
vn -0.06654004 0.9553959 0.2877347
vn -0.06576989 0.9820648 0.1767007
vn -0.104922 0.9436365 0.3139133
vn -0.01123947 0.9786298 0.2053225
vn -0.1326396 0.9540017 0.2688633
vn 0.0601447 0.9712402 0.2303805
vn 0.0781158 0.9322112 0.353384
vn -0.1915337 0.9146393 0.3560194
vn -0.2564976 0.8330678 0.4901091
vn -0.4264123 0.7872471 0.4454375
vn -0.311039 0.6847767 0.6590415
vn -0.5086225 0.5475153 0.6644774
vn -0.01735627 0.8566098 0.5156727
vn -0.01465868 0.8463688 0.5323956
vn -0.1644843 0.8447574 0.5092444
vn -0.0411864 0.8419198 0.5380286
vn -0.04946396 0.7902895 0.6107338
vn -0.3300953 0.4711355 0.817966
vn -0.4549408 0.2945725 0.8403904
vn -0.1647123 0.8460827 0.5069653
vn -0.2874639 0.8352067 0.468822
vn -0.06517335 0.9177797 0.3917052
vn -0.3113857 0.8401587 0.444041
vn -0.087593 0.8345007 0.544
vn 0.09580628 0.792006 0.6029491
vn -0.3030178 0.8451969 0.4402527
vn -0.1205718 0.673237 0.7295302
vn 0.01089576 0.5428983 0.8397278
vn -0.3087589 0.7849238 0.5371802
vn -0.2110993 0.4663504 0.8590427
vn -0.1313316 0.2896703 0.9480734
vn -0.1540601 0.8499028 0.5039155
vn -0.2807753 0.3376641 0.8984143
vn -0.3018718 0.1959613 0.9329912
vn -0.3028947 0.6947873 0.6523231
vn -0.1205705 0.6893525 0.7143221
vn -0.2292321 0.6549683 0.720048
vn -0.1903874 0.7527417 0.6301846
vn 0.02045835 0.9987087 -0.04650148
vn 0.0642767 0.9920428 -0.1082574
vn 0.1925469 0.9770609 -0.09098155
vn 0.1938064 0.9793226 0.05802116
vn 0.3470133 0.9293199 0.1262789
vn 0.4585554 0.8881205 -0.03112853
vn 0.5426429 0.8102373 0.2214818
vn 0.7045614 0.6964151 0.1363795
vn 0.6779963 0.6389876 0.3633398
vn 0.8143702 0.4788222 0.3279186
vn 0.7195968 0.5251507 0.4543095
vn 0.7716858 0.3946455 0.4987544
vn 0.6263487 0.4822323 0.6124861
vn 0.6069316 0.6428669 0.467286
vn 0.4010285 0.6982359 0.5929949
vn 0.4237172 0.8193058 0.3862664
vn 0.172788 0.8844393 0.4334875
vn 0.2517722 0.927651 0.2758159
vn 0.003118413 0.9696776 0.2443676
vn 0.127311 0.9769657 0.1712603
vn -0.08101883 0.986941 0.1392239
vn 0.3347074 0.941035 0.04923563
vn 0.08820406 0.9956626 0.02959657
vn -0.04675181 0.9965406 0.06870995
vn -0.02162257 0.9997652 -0.001417572
vn 0.4280921 0.8969094 0.1108639
vn 0.3530772 0.9341545 0.05188323
vn 0.2920455 0.9372128 0.1906349
vn 0.3522345 0.9325457 0.07930507
vn 0.1050237 0.9916905 0.07429671
vn 0.2895903 0.9380732 0.1901474
vn 0.0531823 0.9946326 0.08875535
vn 0.2230666 0.9274408 0.3001581
vn 0.192403 0.9288589 0.3165475
vn 0.1901232 0.9325249 0.3070023
vn 0.2911439 0.8930638 0.343034
vn 0.2888254 0.9405529 0.1787179
vn 0.4177272 0.8272716 0.375667
vn 0.5253902 0.8229982 0.2159608
vn 0.5083092 0.7971696 0.3257951
vn 0.4161161 0.8726808 0.2554912
vn -0.2298721 0.4982859 -0.8359844
vn -0.8231128 0.5542092 0.1238443
vn -0.9693839 -0.01832485 0.2448656
vn -0.2031156 -0.3867409 -0.8995419
vn -0.9690764 -0.01956843 0.2459839
vn -0.2113781 -0.3288689 -0.9204154
vn -0.9689798 -0.01915529 0.2463967
vn -0.2185349 -0.2593787 -0.9407259
vn -0.9674296 -0.02862877 0.2515163
vn -0.2244513 -0.1971942 -0.954325
vn 0.2019635 0.419984 0.8847736
vn 0.2065193 0.3568116 0.9110627
vn 0.2148285 0.2937688 0.9314229
vn 0.2229279 0.214246 0.9510004
vn 0.1656918 0.6207089 0.7663332
vn -0.2298721 0.4982859 -0.8359844
vn 0.7345258 0.6239746 -0.2666976
vn -0.2031156 -0.3867409 -0.8995419
vn 0.9704989 0.06264935 -0.2328239
vn -0.2113781 -0.3288689 -0.9204154
vn 0.9723002 0.05874773 -0.2262322
vn -0.2185349 -0.2593787 -0.9407259
vn 0.9719493 0.06200929 -0.2268687
vn 0.9736771 0.05254309 -0.221793
vn 0.975249 0.04304083 -0.2168799
vn -0.2302751 -0.1224549 -0.9653902
vn 0.2302679 0.1225592 0.9653786
vn -0.9658134 -0.03812912 0.2564189
vn -0.2353027 -0.03635056 -0.9712422
vn 0.9749131 0.04138526 -0.2187044
vn -0.1745623 -0.5576206 -0.8115339
vn 0.235315 0.03609253 0.9712487
vn -0.9662243 -0.03978787 0.2546127
vn -0.2353027 -0.03635056 -0.9712422
vn 0.8130561 -0.5435591 -0.2085267
vn 0.2136687 -0.5959373 0.774083
vn -0.7722601 -0.6098525 0.1780288
vn 0.7612848 0.3592689 0.5397882
vn 0.6309453 0.5411572 -0.5559288
vn 0.5962556 -0.01733359 -0.8026075
vn 0.7032176 -0.4472495 0.552678
vn 0.5943828 -0.01832146 -0.8039736
vn 0.7261822 -0.3925835 0.5643914
vn 0.594105 -0.01730482 -0.8042013
vn 0.7489651 -0.3229396 0.5785856
vn 0.5878715 -0.02992264 -0.8084008
vn 0.7647197 -0.2656779 0.5870427
vn 0.5819796 -0.04241483 -0.8120965
vn 0.7800133 -0.1955853 0.5944121
vn -0.6857077 0.4927327 -0.535742
vn -0.7100045 0.4309562 -0.5569295
vn -0.7335531 0.3704169 -0.5698169
vn -0.7585923 0.2892743 -0.5838306
vn -0.7799938 0.1956883 -0.5944037
vn -0.5224233 0.7373267 -0.4282795
vn 0.7612848 0.3592689 0.5397882
vn -0.3097942 0.6187348 0.7219381
vn 0.7032176 -0.4472495 0.552678
vn -0.5954819 0.07544059 0.7998187
vn 0.7261822 -0.3925835 0.5643914
vn -0.6029694 0.07050602 0.7946426
vn 0.7489651 -0.3229396 0.5785856
vn -0.6015367 0.07541109 0.7952777
vn 0.7647197 -0.2656779 0.5870427
vn -0.6080296 0.06281327 0.7914256
vn -0.6139364 0.05032223 0.7877499
vn 0.792995 -0.1102483 0.5991696
vn -0.6126282 0.04853461 0.7888797
vn 0.6124903 -0.6173968 0.4936363
vn -0.793025 0.1099918 -0.5991771
vn 0.5833339 -0.04420602 -0.8110287
vn 0.792995 -0.1102483 0.5991696
vn -0.5306704 -0.5378426 0.6550682
vn -0.6914074 -0.5347054 -0.4858455
vn 0.4460655 -0.6135834 -0.6515682
vn 0.7981024 -0.290069 0.5281028
vn 0.8570241 0.3009382 -0.4182653
vn 0.5550606 -0.0004049536 -0.8318098
vn 0.3246829 -0.9082933 0.2637884
vn 0.5462237 0.004308742 -0.8376283
vn 0.4485468 -0.8288473 0.3343917
vn 0.5408312 0.004742153 -0.8411178
vn 0.5700064 -0.7131736 0.4080149
vn 0.5210634 -0.007901045 -0.8534815
vn 0.666326 -0.5843604 0.4631767
vn 0.502046 -0.0250583 -0.8644779
vn 0.7546846 -0.4117823 0.5107706
vn -0.2771231 0.933338 -0.2282168
vn -0.4078989 0.8578156 -0.3126833
vn -0.5282599 0.7575544 -0.3834746
vn -0.6493669 0.6103497 -0.4536473
vn -0.7544287 0.4124129 -0.5106398
vn -0.01890035 0.9973054 -0.07088605
vn 0.7981024 -0.290069 0.5281028
vn -0.007321267 0.3768274 0.9262546
vn 0.3246829 -0.9082933 0.2637884
vn -0.5280621 0.09289615 0.8441094
vn 0.4485468 -0.8288473 0.3343917
vn -0.5414727 0.09427617 0.8354157
vn 0.5700064 -0.7131736 0.4080149
vn -0.5425761 0.09737687 0.8343435
vn 0.666326 -0.5843604 0.4631767
vn -0.5625989 0.08475567 0.822374
vn -0.5812958 0.06757107 0.8108819
vn 0.8171763 -0.202584 0.5396134
vn -0.5803026 0.05670032 0.8124248
vn 0.6445621 -0.6174147 0.450931
vn -0.8175067 0.2009201 -0.539735
vn 0.5033118 -0.03595238 -0.8633565
vn 0.8171763 -0.202584 0.5396134
vn -0.4896415 -0.5370392 0.6869062
vn -0.7224177 -0.5354205 -0.4375358
vn 0.3965327 -0.61281 -0.6835391
vn -0.993489 -0.006294988 -0.1137543
vn -0.4684456 0.4581411 0.7554241
vn -0.1236968 0.04051159 0.9914928
vn -0.6300126 -0.7725347 -0.07920975
vn -0.1148861 0.04250122 0.992469
vn -0.7248117 -0.683573 -0.08588405
vn -0.1109948 0.0428246 0.9928979
vn -0.8176366 -0.5673655 -0.09781058
vn -0.09330174 0.02782859 0.9952489
vn -0.8855321 -0.4524292 -0.1055504
vn -0.07710727 0.01038521 0.9969687
vn -0.9452597 -0.3064042 -0.1122527
vn 0.5798329 0.8118784 0.06817076
vn 0.6864566 0.722308 0.083955
vn 0.7789093 0.6201476 0.09336612
vn 0.870623 0.4808629 0.1038584
vn 0.9451228 0.3068317 0.1122374
vn 0.3256057 0.9444993 0.04361146
vn -0.993489 -0.006294988 -0.1137543
vn -0.2840825 0.4646714 -0.8386761
vn -0.6300126 -0.7725347 -0.07920975
vn 0.110243 0.04604545 -0.9928375
vn -0.7248117 -0.683573 -0.08588405
vn 0.1233541 0.04342394 -0.9914122
vn -0.8176366 -0.5673655 -0.09781058
vn 0.123111 0.04750982 -0.991255
vn -0.8855321 -0.4524292 -0.1055504
vn 0.1408737 0.03251543 -0.9894935
vn 0.1570332 0.01507112 -0.9874783
vn -0.9842522 -0.1329982 -0.1164436
vn 0.1545502 0.007939947 -0.987953
vn -0.8050182 -0.5853714 -0.09636436
vn 0.9843975 0.1319053 0.1164582
vn -0.07962835 0.003253448 0.9968193
vn -0.9842522 -0.1329982 -0.1164436
vn 0.1086627 -0.5749381 -0.8109492
vn 0.8162659 -0.5698175 0.09496381
vn -0.08274063 -0.5787685 0.8112836
vn -0.03553023 -0.03781924 -0.9986528
vn -0.8169619 0.4466138 -0.3648414
vn -0.9988495 0.04100206 0.02487077
vn -0.0148616 -0.7898961 -0.6130607
vn -0.9984864 0.04324798 0.03397821
vn -0.0225715 -0.7005976 -0.7131995
vn -0.9983225 0.04352634 0.03817877
vn -0.02478995 -0.5831048 -0.8120186
vn -0.997983 0.02867953 0.05663475
vn -0.02740654 -0.4653998 -0.8846762
vn -0.9972327 0.0111528 0.073502
vn -0.02981688 -0.315202 -0.9485561
vn 0.01827036 0.827784 0.5607494
vn 0.01873362 0.7384092 0.6740927
vn 0.02338037 0.6351339 0.7720481
vn 0.0268434 0.4936434 0.8692501
vn 0.02981089 0.3156549 0.9484057
vn 0.004462986 0.9540849 0.2995033
vn -0.03553023 -0.03781924 -0.9986528
vn 0.7862228 0.4530326 -0.4202561
vn -0.0148616 -0.7898961 -0.6130607
vn 0.998129 0.04651812 -0.03968174
vn -0.0225715 -0.7005976 -0.7131995
vn 0.9986777 0.04427604 -0.02612244
vn -0.02478995 -0.5831048 -0.8120186
vn 0.998495 0.04821099 -0.02614553
vn -0.02740654 -0.4653998 -0.8846762
vn 0.9994135 0.03336558 -0.007708299
vn 0.9998325 0.01583806 0.009169521
vn -0.03157372 -0.1367742 -0.990099
vn 0.9999435 0.008275657 0.006663966
vn -0.02473201 -0.5853748 -0.8103855
vn 0.03158149 0.1356134 0.9902583
vn -0.9974693 0.003589551 0.07100758
vn -0.03157372 -0.1367742 -0.990099
vn 0.8181088 -0.5749111 -0.01323725
vn 0.02779328 -0.5698484 0.8212796
vn -0.8145608 -0.5787415 0.03935679
vn -0.1916577 -0.03780814 0.9807333
vn 0.7130572 0.4466134 0.5404497
vn 0.9785099 0.04100013 0.2020826
vn -0.1244228 -0.7898963 0.6004855
vn 0.9802198 0.04324755 0.193129
vn -0.1396027 -0.7005976 0.6997672
vn 0.981012 0.04352646 0.1889999
vn -0.1598305 -0.5831048 0.7965193
vn 0.9848628 0.02867985 0.1709466
vn -0.1737435 -0.4654001 0.8678802
vn 0.9879535 0.01115286 0.1543485
vn -0.1858693 -0.3152022 0.930645
vn 0.1092517 0.8277843 -0.5503066
vn 0.1344803 0.7384092 -0.6608077
vn 0.1521475 0.635134 -0.7572687
vn 0.1707973 0.4936436 -0.8527276
vn 0.1858409 0.315655 -0.9304972
vn 0.06350965 0.9540848 -0.2927264
vn -0.1916577 -0.03780814 0.9807333
vn -0.8609969 0.4530274 0.2311939
vn -0.1244228 -0.7898963 0.6004855
vn -0.9811643 0.04651611 -0.1874911
vn -0.1396027 -0.7005976 0.6997672
vn -0.9786265 0.0442756 -0.2008231
vn -0.1598305 -0.5831048 0.7965193
vn -0.9784535 0.04821101 -0.2007596
vn -0.1737435 -0.4654001 0.8678802
vn -0.9751709 0.03336573 -0.2189257
vn -0.9717551 0.01583817 -0.2354593
vn -0.1935703 -0.1367742 0.9715057
vn -0.972431 0.008275704 -0.233044
vn -0.159517 -0.5853748 0.7949156
vn 0.1935988 0.1356135 -0.9716628
vn 0.9876188 0.00358953 0.1568316
vn -0.1935703 -0.1367742 0.9715057
vn -0.7998335 -0.5749112 -0.1724628
vn 0.1590038 -0.5698482 -0.8062201
vn 0.8022957 -0.5787415 0.1462184
vn 0.8690969 -0.2395959 -0.4327404
vn 0.06929427 0.3617844 -0.9296829
vn -0.4317096 0.04401937 -0.9009379
vn 0.4162867 -0.8869492 -0.2000664
vn -0.4412299 0.04817348 -0.8961002
vn 0.5369767 -0.8009869 -0.264719
vn -0.4468734 0.04833897 -0.8932902
vn 0.6583957 -0.6795235 -0.3236711
vn -0.4671696 0.03467054 -0.8834877
vn 0.7511185 -0.5468371 -0.3698516
vn -0.485826 0.01662662 -0.8738974
vn 0.8327035 -0.3714581 -0.4106383
vn -0.3620902 0.9147933 0.1790082
vn -0.4982875 0.8323408 0.2427312
vn -0.6170348 0.7262203 0.3031045
vn -0.7348471 0.5737118 0.3617384
vn -0.8324775 0.3720896 0.4105249
vn -0.09767208 0.9943158 0.04238273
vn 0.8690969 -0.2395959 -0.4327404
vn 0.7821988 0.3674346 0.5031469
vn 0.4162867 -0.8869492 -0.2000664
vn 0.4539035 0.04938541 0.8896813
vn 0.5369767 -0.8009869 -0.264719
vn 0.4396698 0.04993581 0.8967702
vn 0.6583957 -0.6795235 -0.3236711
vn 0.4382253 0.05302237 0.8972999
vn 0.7511185 -0.5468371 -0.3698516
vn 0.4181402 0.03935535 0.9075296
vn 0.3992285 0.02130999 0.9166037
vn 0.8849035 -0.1611979 -0.436991
vn 0.4012748 0.01068216 0.9158954
vn 0.7274008 -0.5854099 -0.358027
vn -0.8851418 0.1595499 0.4371132
vn -0.4839985 0.00599767 -0.8750483
vn 0.8849035 -0.1611979 -0.436991
vn 0.3495499 -0.5747187 0.7399415
vn -0.7359413 -0.5700593 0.3652709
vn -0.3744012 -0.5785495 -0.7246408
vn -0.2471408 0.6679565 -0.7019656
vn -0.2715324 0.5514074 -0.7888092
vn -0.08053553 0.6230558 -0.7780201
vn -0.4027166 0.6277734 -0.666123
vn -0.14099 0.7666491 -0.6263952
vn 0.1024391 0.7977834 -0.5941783
vn -0.2607666 0.7661651 -0.58736
vn -0.4156809 0.8092405 -0.4151377
vn -0.0319451 0.9044292 -0.4254262
vn 0.1998037 0.9318002 -0.3030296
vn -0.2269964 0.9017991 -0.3677376
vn -0.3087645 0.9451863 -0.1062421
vn 0.0447679 0.974732 -0.2188454
vn 0.2248188 0.9735995 -0.03950251
vn 0.08292481 0.9950604 -0.05457402
vn 0.2282723 0.9688393 0.09613598
vn -0.1578645 0.9835786 -0.08747586
vn 0.02871896 0.996111 0.08329546
vn 0.1589875 0.9783004 0.1328587
vn 0.09662255 0.9800486 0.1736919
vn -0.1973404 0.9600047 -0.1986142
vn -0.1712727 0.9799727 -0.1015835
vn -0.03820904 0.9839792 -0.174141
vn -0.1539897 0.9803934 -0.1229477
vn 0.04244958 0.998397 0.03743614
vn 0.03585451 0.9822666 0.1840296
vn -0.03650144 0.9843924 -0.1721604
vn 0.09235308 0.994074 0.05733848
vn -0.03691436 0.9779451 0.2055743
vn -0.1286142 0.9852014 0.1132983
vn 0.08223071 0.9718028 -0.2209922
vn -0.03842449 0.9992514 -0.00450326
vn -0.1214495 0.9800425 -0.1573744
vn 0.1165079 0.96954 -0.2154486
vn 0.1127694 0.9720355 -0.2059855
vn 0.05202077 0.9522837 -0.3007483
vn -0.04268178 0.9858175 -0.1623027
vn -0.03305908 0.9104753 -0.4122401
vn -0.2157519 0.9111459 -0.3510901
vn -0.1372966 0.8915508 -0.4316095
vn -0.1015293 0.9455193 -0.30933
vn 0.3049263 0.9519945 0.02695075
vn 0.1616811 0.9701341 0.1808287
vn 0.1242583 0.985788 0.1130572
vn 0.2937746 0.9405708 0.1703617
vn 0.1685643 0.9854819 -0.02028608
vn 0.08137362 0.9952839 0.05280384
vn 0.4563319 0.889623 -0.01821947
vn 0.5366123 0.8330426 0.1344889
vn 0.633855 0.7667907 -0.1012912
vn 0.778797 0.6265585 0.02999526
vn 0.3190393 0.9232122 -0.2142267
vn 0.7872064 0.5788358 -0.2127324
vn 0.9018606 0.4042719 -0.1523542
vn 0.214311 0.976724 -0.009003237
vn 0.06818548 0.9976452 -0.007404167
vn 0.3309568 0.91566 -0.2281104
vn 0.410297 0.9065365 -0.0992377
vn 0.3527804 0.9113821 -0.2119635
vn 0.4181932 0.8709811 -0.2578883
vn 0.1970744 0.9794888 0.04199137
vn 0.04179924 0.9960237 -0.07867372
vn 0.4085897 0.9074998 -0.09745988
vn 0.250082 0.963863 -0.09179896
vn 0.1271533 0.9763017 -0.1751198
vn 0.4599896 0.8877168 0.01919137
vn 0.3879791 0.9036791 -0.1812082
vn 0.3183482 0.8754654 -0.3636136
vn 0.4561809 0.8882607 0.05377602
vn 0.5654103 0.7710889 -0.2928021
vn 0.5766211 0.6622885 -0.4784162
vn 0.4474221 0.8929024 0.05038683
vn 0.7419671 0.5834755 -0.3302138
vn 0.774999 0.4243041 -0.4683402
vn 0.5303836 0.8476442 -0.01387637
vn 0.8292151 0.4602641 -0.3171107
vn 0.8827284 0.3247918 -0.3395599
vn 0.3990327 0.9111101 -0.1032056
vn 0.6225401 0.7759036 -0.102066
vn 0.5523302 0.7847468 -0.2812542
vn 0.6301408 0.7486612 -0.2059827
vn 0.5275344 0.8329403 -0.1670863
vn 0.1508582 0.9311778 -0.3318882
vn 0.1362336 0.9697511 -0.2025416
vn -0.06125124 0.9678161 -0.2440907
vn 0.06207785 0.9820207 -0.1782742
vn -0.005194854 0.9891358 -0.1469127
vn -0.04164667 0.9571725 -0.286507
vn -0.06678754 0.9872932 -0.1441925
vn 0.005278735 0.9652564 -0.2612511
vn -0.1412404 0.9813969 -0.130044
vn -0.2198499 0.9483797 -0.228565
vn 0.01107953 0.9298825 -0.3676898
vn -0.002711065 0.8545738 -0.5193229
vn 0.1652063 0.8059899 -0.5684077
vn -0.04490881 0.714334 -0.6983626
vn 0.1190995 0.576707 -0.808223
vn -0.2213609 0.8802643 -0.4196832
vn -0.2324047 0.8708472 -0.4331435
vn -0.09145585 0.8675326 -0.4888999
vn -0.2124705 0.8665677 -0.4515714
vn -0.2434107 0.8184491 -0.5204732
vn -0.1144954 0.5084811 -0.8534271
vn -0.02292129 0.3327015 -0.9427536
vn -0.09007296 0.8687462 -0.4869978
vn 0.03480951 0.855567 -0.5165205
vn -0.1158926 0.9352319 -0.3345298
vn 0.06808907 0.8592304 -0.5070375
vn -0.175631 0.8592593 -0.4804448
vn -0.3648267 0.820368 -0.4403383
vn 0.06291582 0.8641144 -0.4993475
vn -0.2451676 0.7069427 -0.663419
vn -0.4178065 0.5825585 -0.6971825
vn 0.0173339 0.8085336 -0.5881947
vn -0.2380476 0.5061428 -0.8289468
vn -0.3566699 0.334251 -0.8723892
vn -0.09762459 0.8724579 -0.4788388
vn -0.2013155 0.3792158 -0.9031431
vn -0.2044554 0.2392507 -0.9491876
vn -0.0482737 0.7240429 -0.6880636
vn -0.2370575 0.7223099 -0.6496708
vn -0.1471043 0.6878082 -0.7108307
vn -0.1326204 0.7813163 -0.6098826
vn -0.9213517 0.3804649 -0.07973394
vn -0.9656847 0.2409642 -0.09689917
vn -0.9023606 0.3412759 -0.2632035
vn -0.9412317 0.3292262 0.0754514
vn -0.8470294 0.512463 -0.1411486
vn -0.7303922 0.5891774 -0.3455391
vn -0.8629 0.5051088 -0.01639129
vn -0.7949775 0.573171 0.1987104
vn -0.678412 0.7192362 -0.1498546
vn -0.4888662 0.8175827 -0.3042506
vn -0.7086186 0.7037668 0.05071477
vn -0.5351442 0.8101848 0.2392099
vn -0.4955599 0.859145 -0.1276328
vn -0.269346 0.9396776 -0.2108524
vn -0.3475381 0.9333615 -0.0897418
vn -0.1513687 0.9763218 -0.1545419
vn -0.4702953 0.8753542 0.1121487
vn -0.2532721 0.9672002 0.01941971
vn -0.1518444 0.9854711 -0.07609105
vn -0.1433998 0.9896625 -0.002125988
vn -0.5727332 0.8137776 0.09870534
vn -0.486536 0.8656573 0.1179836
vn -0.4948149 0.8683571 -0.0333789
vn -0.4976985 0.8623402 0.0930893
vn -0.287279 0.9577587 -0.01300256
vn -0.1603069 0.9854177 0.05704108
vn -0.4925764 0.8696033 -0.03404074
vn -0.2484906 0.9673856 -0.04916839
vn -0.3562764 0.9334671 0.04130733
vn -0.1704323 0.9765083 0.1318498
vn -0.2886867 0.9415016 0.173881
vn -0.4810302 0.8615559 -0.1622695
vn -0.5134126 0.8567561 0.04874954
vn -0.4615128 0.8664017 -0.1906672
vn -0.4558669 0.871003 -0.1831369
vn -0.554437 0.8146254 -0.1702498
vn -0.487235 0.8729368 -0.02415342
vn -0.6697303 0.7287021 -0.1430195
vn -0.6930471 0.7192935 0.0479866
vn -0.7225143 0.6889195 -0.05799201
vn -0.6223977 0.7818699 -0.03606417
vt 0.0517161 0
vt 0.02459591 0
vt 0.003666307 0.04184772
vt 0.02613111 0.05063556
vt 0.02351185 0.07923858
vt 0 0.08188488
vt 0.03153574 0.1349158
vt 0.01106393 0.1515442
vt 0.064302 0.1782479
vt 0.05627633 0.193339
vt 0.08913435 0.1897494
vt 0.0910355 0.2094383
vt 0.1183126 0.1925458
vt 0.1086215 0.1776812
vt 0.1523424 0.1455879
vt 0.1324668 0.1306606
vt 0.1670109 0.08012377
vt 0.1428264 0.07798043
vt 0.1638474 0.04528327
vt 0.1405664 0.05308996
vt 0.1372791 0
vt 0.1125771 0.07529958
vt 0.1054513 0.01830235
vt 0.1131591 0.0001968832
vt 0.08350545 0.008567931
vt 0.1076069 0.1119899
vt 0.1114471 0.06285435
vt 0.08232782 0.07261874
vt 0.09625506 0.04780401
vt 0.08323786 0.02312207
vt 0.08281891 0.04590841
vt 0.05936903 0.01815468
vt 0.06756268 0.04859761
vt 0.05422946 0.06162715
vt 0.05291983 0.07592866
vt 0.05714133 0.1141175
vt 0.08274691 0.09331916
vt 0.07434028 0.1593724
vt 0.09650002 0.159089
vt 0.08675646 0.1651231
vt 0.08437857 0.1404968
vt 0.3326453 0.04528327
vt 0.3060769 0
vt 0.2819569 0.0001968832
vt 0.2742491 0.01830235
vt 0.2523033 0.008567931
vt 0.2520357 0.02312207
vt 0.220514 0
vt 0.2281669 0.01815468
vt 0.1933938 0
vt 0.1724642 0.04184772
vt 0.3093643 0.05308996
vt 0.3116243 0.07798043
vt 0.3358088 0.08012377
vt 0.3012647 0.1306606
vt 0.3211403 0.1455879
vt 0.281375 0.07529958
vt 0.280245 0.06285435
vt 0.2511257 0.07261874
vt 0.2650529 0.04780401
vt 0.2764047 0.1119899
vt 0.2774194 0.1776812
vt 0.2871105 0.1925458
vt 0.2516168 0.04590841
vt 0.2363605 0.04859761
vt 0.194929 0.05063556
vt 0.2230273 0.06162715
vt 0.1923097 0.07923858
vt 0.1687979 0.08188488
vt 0.2217177 0.07592866
vt 0.2003336 0.1349158
vt 0.1798618 0.1515442
vt 0.2259392 0.1141175
vt 0.2330999 0.1782479
vt 0.2250742 0.193339
vt 0.2515448 0.09331916
vt 0.2579322 0.1897494
vt 0.2598334 0.2094383
vt 0.2431382 0.1593724
vt 0.2652979 0.159089
vt 0.2555543 0.1651231
vt 0.2531765 0.1404968
vt 0.220514 0
vt 0.1933938 0
vt 0.1724642 0.04184772
vt 0.194929 0.05063556
vt 0.1923097 0.07923858
vt 0.1687979 0.08188488
vt 0.2003336 0.1349158
vt 0.1798618 0.1515442
vt 0.2330999 0.1782479
vt 0.2250742 0.193339
vt 0.2579322 0.1897494
vt 0.2598334 0.2094383
vt 0.2871105 0.1925458
vt 0.2774194 0.1776812
vt 0.3211403 0.1455879
vt 0.3012647 0.1306606
vt 0.3358088 0.08012377
vt 0.3116243 0.07798043
vt 0.3326453 0.04528327
vt 0.3093643 0.05308996
vt 0.3060769 0
vt 0.281375 0.07529958
vt 0.2742491 0.01830235
vt 0.2819569 0.0001968832
vt 0.2523033 0.008567931
vt 0.2764047 0.1119899
vt 0.280245 0.06285435
vt 0.2511257 0.07261874
vt 0.2650529 0.04780401
vt 0.2520357 0.02312207
vt 0.2516168 0.04590841
vt 0.2281669 0.01815468
vt 0.2363605 0.04859761
vt 0.2230273 0.06162715
vt 0.2217177 0.07592866
vt 0.2259392 0.1141175
vt 0.2515448 0.09331916
vt 0.2431382 0.1593724
vt 0.2652979 0.159089
vt 0.2555543 0.1651231
vt 0.2531765 0.1404968
vt 0.2148321 0.5909438
vt 0.2148469 0.5909635
vt 0.2145701 0.5911714
vt 0.214549 0.591143
vt 0.2142959 0.5913759
vt 0.2142678 0.591338
vt 0.2140338 0.5915706
vt 0.2139987 0.5915233
vt 0.2137578 0.5917771
vt 0.2137148 0.5917212
vt 0.2145919 0.5911993
vt 0.2143248 0.5914131
vt 0.21407 0.5916172
vt 0.2138012 0.5918323
vt 0.2148621 0.5909831
vt 0.2148935 0.5910212
vt 0.2148776 0.5910023
vt 0.2146371 0.5912539
vt 0.2146142 0.5912268
vt 0.2143851 0.5914858
vt 0.2143546 0.5914499
vt 0.2141453 0.5917079
vt 0.2141071 0.5916631
vt 0.2138451 0.5918872
vt 0.2135173 0.5921507
vt 0.2135612 0.592206
vt 0.2134734 0.5920953
vt 0.2134292 0.59204
vt 0.2131909 0.5924994
vt 0.2131532 0.5924429
vt 0.2127097 0.592663
vt 0.2131137 0.592392
vt 0.2130704 0.5923442
vt 0.213014 0.5922861
vt 0.2129757 0.5925362
vt 0.2129745 0.5925068
vt 0.2129474 0.5924941
vt 0.2148321 0.5909438
vt 0.2148469 0.5909635
vt 0.2145701 0.5911714
vt 0.214549 0.591143
vt 0.2142959 0.5913759
vt 0.2142678 0.591338
vt 0.2140338 0.5915706
vt 0.2139987 0.5915233
vt 0.2137578 0.5917771
vt 0.2137148 0.5917212
vt 0.2134292 0.59204
vt 0.2135612 0.592206
vt 0.2145919 0.5911993
vt 0.2143248 0.5914131
vt 0.21407 0.5916172
vt 0.2138012 0.5918323
vt 0.2134734 0.5920953
vt 0.2148621 0.5909831
vt 0.2148935 0.5910212
vt 0.2148776 0.5910023
vt 0.2146371 0.5912539
vt 0.2146142 0.5912268
vt 0.2143851 0.5914858
vt 0.2143546 0.5914499
vt 0.2141453 0.5917079
vt 0.2141071 0.5916631
vt 0.2138899 0.5919416
vt 0.2138451 0.5918872
vt 0.2135173 0.5921507
vt 0.2131909 0.5924994
vt 0.2131532 0.5924429
vt 0.2127097 0.592663
vt 0.2131137 0.592392
vt 0.2130704 0.5923442
vt 0.213014 0.5922861
vt 0.2129757 0.5925362
vt 0.2129745 0.5925068
vt 0.2129474 0.5924941
vt 0.2148321 0.5909438
vt 0.2148469 0.5909635
vt 0.2145701 0.5911714
vt 0.214549 0.591143
vt 0.2142959 0.5913759
vt 0.2142678 0.591338
vt 0.2140338 0.5915706
vt 0.2139987 0.5915233
vt 0.2137578 0.5917771
vt 0.2137148 0.5917212
vt 0.2134292 0.59204
vt 0.2135612 0.592206
vt 0.2145919 0.5911993
vt 0.2143248 0.5914131
vt 0.21407 0.5916172
vt 0.2138012 0.5918323
vt 0.2134734 0.5920953
vt 0.2148621 0.5909831
vt 0.2148935 0.5910212
vt 0.2148776 0.5910023
vt 0.2146371 0.5912539
vt 0.2146142 0.5912268
vt 0.2143851 0.5914858
vt 0.2143546 0.5914499
vt 0.2141453 0.5917079
vt 0.2141071 0.5916631
vt 0.2138899 0.5919416
vt 0.2138451 0.5918872
vt 0.2135173 0.5921507
vt 0.2131909 0.5924994
vt 0.2131532 0.5924429
vt 0.2127097 0.592663
vt 0.2131137 0.592392
vt 0.2130704 0.5923442
vt 0.213014 0.5922861
vt 0.2129757 0.5925362
vt 0.2129745 0.5925068
vt 0.2129474 0.5924941
vt 0.2148321 0.5909438
vt 0.2148469 0.5909635
vt 0.2145701 0.5911714
vt 0.214549 0.591143
vt 0.2142959 0.5913759
vt 0.2142678 0.591338
vt 0.2140338 0.5915706
vt 0.2139987 0.5915233
vt 0.2137578 0.5917771
vt 0.2137148 0.5917212
vt 0.2134292 0.59204
vt 0.2135612 0.592206
vt 0.2145919 0.5911993
vt 0.2143248 0.5914131
vt 0.21407 0.5916172
vt 0.2138012 0.5918323
vt 0.2134734 0.5920953
vt 0.2148621 0.5909831
vt 0.2148935 0.5910212
vt 0.2148776 0.5910023
vt 0.2146371 0.5912539
vt 0.2146142 0.5912268
vt 0.2143851 0.5914858
vt 0.2143546 0.5914499
vt 0.2141453 0.5917079
vt 0.2141071 0.5916631
vt 0.2138899 0.5919416
vt 0.2138451 0.5918872
vt 0.2135173 0.5921507
vt 0.2131909 0.5924994
vt 0.2131532 0.5924429
vt 0.2127097 0.592663
vt 0.2131137 0.592392
vt 0.2130704 0.5923442
vt 0.213014 0.5922861
vt 0.2129757 0.5925362
vt 0.2129745 0.5925068
vt 0.2129474 0.5924941
vt 0.2148321 0.5909438
vt 0.2148469 0.5909635
vt 0.2145701 0.5911714
vt 0.214549 0.591143
vt 0.2142959 0.5913759
vt 0.2142678 0.591338
vt 0.2140338 0.5915706
vt 0.2139987 0.5915233
vt 0.2137578 0.5917771
vt 0.2137148 0.5917212
vt 0.2134292 0.59204
vt 0.2135612 0.592206
vt 0.2145919 0.5911993
vt 0.2143248 0.5914131
vt 0.21407 0.5916172
vt 0.2138012 0.5918323
vt 0.2134734 0.5920953
vt 0.2148621 0.5909831
vt 0.2148935 0.5910212
vt 0.2148776 0.5910023
vt 0.2146371 0.5912539
vt 0.2146142 0.5912268
vt 0.2143851 0.5914858
vt 0.2143546 0.5914499
vt 0.2141453 0.5917079
vt 0.2141071 0.5916631
vt 0.2138899 0.5919416
vt 0.2138451 0.5918872
vt 0.2135173 0.5921507
vt 0.2131909 0.5924994
vt 0.2131532 0.5924429
vt 0.2127097 0.592663
vt 0.2131137 0.592392
vt 0.2130704 0.5923442
vt 0.213014 0.5922861
vt 0.2129757 0.5925362
vt 0.2129745 0.5925068
vt 0.2129474 0.5924941
vt 0.2148321 0.5909438
vt 0.2148469 0.5909635
vt 0.2145701 0.5911714
vt 0.214549 0.591143
vt 0.2142959 0.5913759
vt 0.2142678 0.591338
vt 0.2140338 0.5915706
vt 0.2139987 0.5915233
vt 0.2137578 0.5917771
vt 0.2137148 0.5917212
vt 0.2134292 0.59204
vt 0.2135612 0.592206
vt 0.2145919 0.5911993
vt 0.2143248 0.5914131
vt 0.21407 0.5916172
vt 0.2138012 0.5918323
vt 0.2134734 0.5920953
vt 0.2148621 0.5909831
vt 0.2148935 0.5910212
vt 0.2148776 0.5910023
vt 0.2146371 0.5912539
vt 0.2146142 0.5912268
vt 0.2143851 0.5914858
vt 0.2143546 0.5914499
vt 0.2141453 0.5917079
vt 0.2141071 0.5916631
vt 0.2138899 0.5919416
vt 0.2138451 0.5918872
vt 0.2135173 0.5921507
vt 0.2131909 0.5924994
vt 0.2131532 0.5924429
vt 0.2127097 0.592663
vt 0.2131137 0.592392
vt 0.2130704 0.5923442
vt 0.213014 0.5922861
vt 0.2129757 0.5925362
vt 0.2129745 0.5925068
vt 0.2129474 0.5924941
vt 0.2148321 0.5909438
vt 0.2148469 0.5909635
vt 0.2145701 0.5911714
vt 0.214549 0.591143
vt 0.2142959 0.5913759
vt 0.2142678 0.591338
vt 0.2140338 0.5915706
vt 0.2139987 0.5915233
vt 0.2137578 0.5917771
vt 0.2137148 0.5917212
vt 0.2134292 0.59204
vt 0.2135612 0.592206
vt 0.2145919 0.5911993
vt 0.2143248 0.5914131
vt 0.21407 0.5916172
vt 0.2138012 0.5918323
vt 0.2134734 0.5920953
vt 0.2148621 0.5909831
vt 0.2148935 0.5910212
vt 0.2148776 0.5910023
vt 0.2146371 0.5912539
vt 0.2146142 0.5912268
vt 0.2143851 0.5914858
vt 0.2143546 0.5914499
vt 0.2141453 0.5917079
vt 0.2141071 0.5916631
vt 0.2138899 0.5919416
vt 0.2138451 0.5918872
vt 0.2135173 0.5921507
vt 0.2131909 0.5924994
vt 0.2131532 0.5924429
vt 0.2127097 0.592663
vt 0.2131137 0.592392
vt 0.2130704 0.5923442
vt 0.213014 0.5922861
vt 0.2129757 0.5925362
vt 0.2129745 0.5925068
vt 0.2129474 0.5924941
vt 0.08913435 0.1897494
vt 0.0910355 0.2094383
vt 0.1183126 0.1925458
vt 0.05627633 0.193339
vt 0.1086215 0.1776812
vt 0.1523424 0.1455879
vt 0.064302 0.1782479
vt 0.01106393 0.1515442
vt 0.1324668 0.1306606
vt 0.1670109 0.08012377
vt 0.03153574 0.1349158
vt 0 0.08188488
vt 0.1428264 0.07798043
vt 0.1638474 0.04528327
vt 0.1405664 0.05308996
vt 0.1372791 0
vt 0.1125771 0.07529958
vt 0.1054513 0.01830235
vt 0.1131591 0.0001968832
vt 0.08350545 0.008567931
vt 0.1076069 0.1119899
vt 0.1114471 0.06285435
vt 0.08232782 0.07261874
vt 0.09625506 0.04780401
vt 0.08323786 0.02312207
vt 0.0517161 0
vt 0.08281891 0.04590841
vt 0.05936903 0.01815468
vt 0.02459591 0
vt 0.003666307 0.04184772
vt 0.06756268 0.04859761
vt 0.02613111 0.05063556
vt 0.02351185 0.07923858
vt 0.05422946 0.06162715
vt 0.05291983 0.07592866
vt 0.05714133 0.1141175
vt 0.08274691 0.09331916
vt 0.07434028 0.1593724
vt 0.09650002 0.159089
vt 0.08675646 0.1651231
vt 0.08437857 0.1404968
vt 0.1405664 0.05308996
vt 0.1372791 0
vt 0.1131591 0.0001968832
vt 0.1638474 0.04528327
vt 0.1054513 0.01830235
vt 0.08350545 0.008567931
vt 0.1428264 0.07798043
vt 0.1670109 0.08012377
vt 0.1324668 0.1306606
vt 0.1523424 0.1455879
vt 0.1125771 0.07529958
vt 0.1086215 0.1776812
vt 0.1183126 0.1925458
vt 0.08323786 0.02312207
vt 0.0517161 0
vt 0.1114471 0.06285435
vt 0.08232782 0.07261874
vt 0.09625506 0.04780401
vt 0.1076069 0.1119899
vt 0.05936903 0.01815468
vt 0.02459591 0
vt 0.08281891 0.04590841
vt 0.02613111 0.05063556
vt 0.003666307 0.04184772
vt 0.06756268 0.04859761
vt 0.02351185 0.07923858
vt 0 0.08188488
vt 0.05422946 0.06162715
vt 0.03153574 0.1349158
vt 0.01106393 0.1515442
vt 0.05291983 0.07592866
vt 0.064302 0.1782479
vt 0.05627633 0.193339
vt 0.05714133 0.1141175
vt 0.08913435 0.1897494
vt 0.0910355 0.2094383
vt 0.08274691 0.09331916
vt 0.07434028 0.1593724
vt 0.09650002 0.159089
vt 0.08675646 0.1651231
vt 0.08437857 0.1404968
vt 0.3326453 0.04528327
vt 0.3060769 0
vt 0.2742491 0.01830235
vt 0.2819569 0.0001968832
vt 0.2523033 0.008567931
vt 0.2520357 0.02312207
vt 0.220514 0
vt 0.2281669 0.01815468
vt 0.1933938 0
vt 0.1724642 0.04184772
vt 0.3093643 0.05308996
vt 0.3116243 0.07798043
vt 0.3358088 0.08012377
vt 0.3012647 0.1306606
vt 0.3211403 0.1455879
vt 0.281375 0.07529958
vt 0.280245 0.06285435
vt 0.2511257 0.07261874
vt 0.2650529 0.04780401
vt 0.2764047 0.1119899
vt 0.2774194 0.1776812
vt 0.2871105 0.1925458
vt 0.2516168 0.04590841
vt 0.2363605 0.04859761
vt 0.194929 0.05063556
vt 0.2230273 0.06162715
vt 0.1923097 0.07923858
vt 0.1687979 0.08188488
vt 0.2217177 0.07592866
vt 0.2003336 0.1349158
vt 0.1798618 0.1515442
vt 0.2259392 0.1141175
vt 0.2330999 0.1782479
vt 0.2250742 0.193339
vt 0.2515448 0.09331916
vt 0.2579322 0.1897494
vt 0.2598334 0.2094383
vt 0.2431382 0.1593724
vt 0.2652979 0.159089
vt 0.2555543 0.1651231
vt 0.2531765 0.1404968
vt 0.08913435 0.1897494
vt 0.0910355 0.2094383
vt 0.1183126 0.1925458
vt 0.05627633 0.193339
vt 0.1086215 0.1776812
vt 0.1523424 0.1455879
vt 0.064302 0.1782479
vt 0.01106393 0.1515442
vt 0.1324668 0.1306606
vt 0.1670109 0.08012377
vt 0.03153574 0.1349158
vt 0 0.08188488
vt 0.1428264 0.07798043
vt 0.1638474 0.04528327
vt 0.1405664 0.05308996
vt 0.1372791 0
vt 0.1125771 0.07529958
vt 0.1054513 0.01830235
vt 0.1131591 0.0001968832
vt 0.08350545 0.008567931
vt 0.1076069 0.1119899
vt 0.1114471 0.06285435
vt 0.08232782 0.07261874
vt 0.09625506 0.04780401
vt 0.08323786 0.02312207
vt 0.0517161 0
vt 0.08281891 0.04590841
vt 0.05936903 0.01815468
vt 0.02613111 0.05063556
vt 0.02459591 0
vt 0.003666307 0.04184772
vt 0.06756268 0.04859761
vt 0.02351185 0.07923858
vt 0.05422946 0.06162715
vt 0.05291983 0.07592866
vt 0.05714133 0.1141175
vt 0.08274691 0.09331916
vt 0.07434028 0.1593724
vt 0.09650002 0.159089
vt 0.08675646 0.1651231
vt 0.08437857 0.1404968
usemtl MV_ElephantEars
f 1/1/1 3/3/3 2/2/2
f 3/3/3 1/1/1 4/4/4
f 3/3/3 4/4/4 5/5/5
f 3/3/3 5/5/5 6/6/6
f 6/6/6 5/5/5 7/7/7
f 6/6/6 7/7/7 8/8/8
f 8/8/8 7/7/7 9/9/9
f 8/8/8 9/9/9 10/10/10
f 10/10/10 9/9/9 11/11/11
f 10/10/10 11/11/11 12/12/12
f 11/11/11 13/13/13 12/12/12
f 11/11/11 14/14/14 13/13/13
f 14/14/14 15/15/15 13/13/13
f 14/14/14 16/16/16 15/15/15
f 16/16/16 17/17/17 15/15/15
f 16/16/16 18/18/18 17/17/17
f 19/19/19 17/17/17 18/18/18
f 19/19/19 18/18/18 20/20/20
f 20/20/20 21/21/21 19/19/19
f 22/22/22 18/18/18 16/16/16
f 22/22/22 20/20/20 18/18/18
f 23/23/23 21/21/21 20/20/20
f 21/21/21 23/23/23 24/24/24
f 25/25/25 24/24/24 23/23/23
f 26/26/26 16/16/16 14/14/14
f 22/22/22 16/16/16 26/26/26
f 22/22/22 27/27/27 20/20/20
f 27/27/27 23/23/23 20/20/20
f 28/28/28 27/27/27 22/22/22
f 28/28/28 22/22/22 26/26/26
f 28/28/28 29/29/29 27/27/27
f 27/27/27 29/29/29 23/23/23
f 25/25/25 23/23/23 30/30/30
f 30/30/30 23/23/23 29/29/29
f 30/30/30 1/1/1 25/25/25
f 30/30/30 29/29/29 31/31/31
f 31/31/31 29/29/29 28/28/28
f 30/30/30 32/32/32 1/1/1
f 31/31/31 32/32/32 30/30/30
f 4/4/4 1/1/1 32/32/32
f 31/31/31 33/33/33 32/32/32
f 4/4/4 32/32/32 33/33/33
f 28/28/28 33/33/33 31/31/31
f 4/4/4 33/33/33 34/34/34
f 34/34/34 33/33/33 28/28/28
f 34/34/34 5/5/5 4/4/4
f 34/34/34 35/35/35 5/5/5
f 28/28/28 35/35/35 34/34/34
f 35/35/35 7/7/7 5/5/5
f 35/35/35 36/36/36 7/7/7
f 28/28/28 36/36/36 35/35/35
f 36/36/36 9/9/9 7/7/7
f 28/28/28 37/37/37 36/36/36
f 28/28/28 26/26/26 37/37/37
f 36/36/36 38/38/38 9/9/9
f 37/37/37 38/38/38 36/36/36
f 38/38/38 11/11/11 9/9/9
f 37/37/37 26/26/26 39/39/39
f 26/26/26 14/14/14 39/39/39
f 40/40/40 14/14/14 11/11/11
f 38/38/38 40/40/40 11/11/11
f 40/40/40 39/39/39 14/14/14
f 37/37/37 39/39/39 41/41/41
f 37/37/37 41/41/41 38/38/38
f 41/41/41 39/39/39 40/40/40
f 41/41/41 40/40/40 38/38/38
f 42/42/42 44/44/44 43/43/43
f 44/44/44 42/42/42 45/45/45
f 46/46/46 44/44/44 45/45/45
f 46/46/46 45/45/45 47/47/47
f 47/47/47 48/48/48 46/46/46
f 47/47/47 49/49/49 48/48/48
f 49/49/49 50/50/50 48/48/48
f 50/50/50 49/49/49 51/51/51
f 45/45/45 42/42/42 52/52/52
f 42/42/42 53/53/53 52/52/52
f 42/42/42 54/54/54 53/53/53
f 55/55/55 53/53/53 54/54/54
f 55/55/55 54/54/54 56/56/56
f 57/57/57 52/52/52 53/53/53
f 57/57/57 53/53/53 55/55/55
f 58/58/58 45/45/45 52/52/52
f 57/57/57 58/58/58 52/52/52
f 59/59/59 58/58/58 57/57/57
f 59/59/59 60/60/60 58/58/58
f 58/58/58 60/60/60 45/45/45
f 47/47/47 45/45/45 60/60/60
f 59/59/59 57/57/57 61/61/61
f 57/57/57 55/55/55 61/61/61
f 62/62/62 55/55/55 56/56/56
f 61/61/61 55/55/55 62/62/62
f 62/62/62 56/56/56 63/63/63
f 47/47/47 60/60/60 64/64/64
f 64/64/64 60/60/60 59/59/59
f 64/64/64 49/49/49 47/47/47
f 64/64/64 65/65/65 49/49/49
f 59/59/59 65/65/65 64/64/64
f 66/66/66 49/49/49 65/65/65
f 51/51/51 49/49/49 66/66/66
f 66/66/66 65/65/65 67/67/67
f 67/67/67 65/65/65 59/59/59
f 51/51/51 66/66/66 68/68/68
f 67/67/67 68/68/68 66/66/66
f 51/51/51 68/68/68 69/69/69
f 67/67/67 70/70/70 68/68/68
f 59/59/59 70/70/70 67/67/67
f 69/69/69 68/68/68 71/71/71
f 70/70/70 71/71/71 68/68/68
f 69/69/69 71/71/71 72/72/72
f 59/59/59 73/73/73 70/70/70
f 70/70/70 73/73/73 71/71/71
f 72/72/72 71/71/71 74/74/74
f 73/73/73 74/74/74 71/71/71
f 72/72/72 74/74/74 75/75/75
f 59/59/59 76/76/76 73/73/73
f 59/59/59 61/61/61 76/76/76
f 75/75/75 74/74/74 77/77/77
f 75/75/75 77/77/77 78/78/78
f 77/77/77 63/63/63 78/78/78
f 77/77/77 62/62/62 63/63/63
f 73/73/73 79/79/79 74/74/74
f 79/79/79 77/77/77 74/74/74
f 76/76/76 79/79/79 73/73/73
f 76/76/76 61/61/61 80/80/80
f 61/61/61 62/62/62 80/80/80
f 81/81/81 62/62/62 77/77/77
f 79/79/79 81/81/81 77/77/77
f 81/81/81 80/80/80 62/62/62
f 76/76/76 80/80/80 82/82/82
f 76/76/76 82/82/82 79/79/79
f 82/82/82 80/80/80 81/81/81
f 82/82/82 81/81/81 79/79/79
f 83/83/83 85/85/85 84/84/84
f 85/85/85 83/83/83 86/86/86
f 85/85/85 86/86/86 87/87/87
f 85/85/85 87/87/87 88/88/88
f 88/88/88 87/87/87 89/89/89
f 88/88/88 89/89/89 90/90/90
f 90/90/90 89/89/89 91/91/91
f 90/90/90 91/91/91 92/92/92
f 92/92/92 91/91/91 93/93/93
f 92/92/92 93/93/93 94/94/94
f 93/93/93 95/95/95 94/94/94
f 93/93/93 96/96/96 95/95/95
f 96/96/96 97/97/97 95/95/95
f 96/96/96 98/98/98 97/97/97
f 98/98/98 99/99/99 97/97/97
f 98/98/98 100/100/100 99/99/99
f 101/101/101 99/99/99 100/100/100
f 101/101/101 100/100/100 102/102/102
f 102/102/102 103/103/103 101/101/101
f 104/104/104 100/100/100 98/98/98
f 104/104/104 102/102/102 100/100/100
f 105/105/105 103/103/103 102/102/102
f 103/103/103 105/105/105 106/106/106
f 107/107/107 106/106/106 105/105/105
f 108/108/108 98/98/98 96/96/96
f 104/104/104 98/98/98 108/108/108
f 104/104/104 109/109/109 102/102/102
f 109/109/109 105/105/105 102/102/102
f 110/110/110 109/109/109 104/104/104
f 110/110/110 104/104/104 108/108/108
f 110/110/110 111/111/111 109/109/109
f 109/109/109 111/111/111 105/105/105
f 107/107/107 105/105/105 112/112/112
f 112/112/112 105/105/105 111/111/111
f 112/112/112 83/83/83 107/107/107
f 112/112/112 111/111/111 113/113/113
f 113/113/113 111/111/111 110/110/110
f 112/112/112 114/114/114 83/83/83
f 113/113/113 114/114/114 112/112/112
f 86/86/86 83/83/83 114/114/114
f 113/113/113 115/115/115 114/114/114
f 86/86/86 114/114/114 115/115/115
f 110/110/110 115/115/115 113/113/113
f 86/86/86 115/115/115 116/116/116
f 116/116/116 115/115/115 110/110/110
f 116/116/116 87/87/87 86/86/86
f 116/116/116 117/117/117 87/87/87
f 110/110/110 117/117/117 116/116/116
f 117/117/117 89/89/89 87/87/87
f 117/117/117 118/118/118 89/89/89
f 110/110/110 118/118/118 117/117/117
f 118/118/118 91/91/91 89/89/89
f 110/110/110 119/119/119 118/118/118
f 110/110/110 108/108/108 119/119/119
f 118/118/118 120/120/120 91/91/91
f 119/119/119 120/120/120 118/118/118
f 120/120/120 93/93/93 91/91/91
f 119/119/119 108/108/108 121/121/121
f 108/108/108 96/96/96 121/121/121
f 122/122/122 96/96/96 93/93/93
f 120/120/120 122/122/122 93/93/93
f 122/122/122 121/121/121 96/96/96
f 119/119/119 121/121/121 123/123/123
f 119/119/119 123/123/123 120/120/120
f 123/123/123 121/121/121 122/122/122
f 123/123/123 122/122/122 120/120/120
f 124/124/124 126/126/126 125/125/125
f 124/124/124 127/127/127 126/126/126
f 127/127/127 128/128/128 126/126/126
f 127/127/127 129/129/129 128/128/128
f 129/129/129 130/130/130 128/128/128
f 129/129/129 131/131/131 130/130/130
f 131/131/131 132/132/132 130/130/130
f 131/131/131 133/133/133 132/132/132
f 125/125/125 126/126/126 134/134/134
f 126/126/126 128/128/128 135/135/135
f 126/126/126 135/135/135 134/134/134
f 128/128/128 130/130/130 136/136/136
f 128/128/128 136/136/136 135/135/135
f 130/130/130 132/132/132 137/137/137
f 130/130/130 137/137/137 136/136/136
f 125/125/125 134/134/134 138/138/138
f 138/138/138 139/139/139 125/125/125
f 138/138/138 140/140/140 139/139/139
f 140/140/140 141/141/141 139/139/139
f 142/142/142 140/140/140 138/138/138
f 140/140/140 142/142/142 141/141/141
f 142/142/142 138/138/138 134/134/134
f 142/142/142 143/143/143 141/141/141
f 144/144/144 142/142/142 134/134/134
f 142/142/142 144/144/144 143/143/143
f 144/144/144 134/134/134 135/135/135
f 144/144/144 145/145/145 143/143/143
f 146/146/146 144/144/144 135/135/135
f 144/144/144 146/146/146 145/145/145
f 146/146/146 135/135/135 136/136/136
f 146/146/146 133/133/133 145/145/145
f 147/147/147 146/146/146 136/136/136
f 147/147/147 136/136/136 137/137/137
f 146/146/146 147/147/147 133/133/133
f 137/137/137 148/148/148 147/147/147
f 147/147/147 149/149/149 133/133/133
f 147/147/147 148/148/148 149/149/149
f 137/137/137 150/150/150 148/148/148
f 132/132/132 150/150/150 137/137/137
f 133/133/133 151/151/151 132/132/132
f 133/133/133 149/149/149 151/151/151
f 132/132/132 151/151/151 150/150/150
f 148/148/148 152/152/152 149/149/149
f 148/148/148 153/153/153 152/152/152
f 150/150/150 153/153/153 148/148/148
f 153/153/153 154/154/154 152/152/152
f 151/151/151 155/155/155 150/150/150
f 150/150/150 155/155/155 153/153/153
f 149/149/149 156/156/156 151/151/151
f 151/151/151 156/156/156 155/155/155
f 149/149/149 157/157/157 156/156/156
f 155/155/155 158/158/158 153/153/153
f 153/153/153 158/158/158 154/154/154
f 155/155/155 159/159/159 158/158/158
f 156/156/156 159/159/159 155/155/155
f 154/154/154 158/158/158 159/159/159
f 157/157/157 160/160/160 156/156/156
f 157/157/157 154/154/154 160/160/160
f 154/154/154 159/159/159 160/160/160
f 156/156/156 160/160/160 159/159/159
f 161/161/161 163/163/163 162/162/162
f 161/161/161 164/164/164 163/163/163
f 164/164/164 165/165/165 163/163/163
f 164/164/164 166/166/166 165/165/165
f 166/166/166 167/167/167 165/165/165
f 166/166/166 168/168/168 167/167/167
f 168/168/168 169/169/169 167/167/167
f 168/168/168 170/170/170 169/169/169
f 170/170/170 171/171/171 169/169/169
f 170/170/170 172/172/172 171/171/171
f 162/162/162 163/163/163 173/173/173
f 163/163/163 165/165/165 174/174/174
f 163/163/163 174/174/174 173/173/173
f 165/165/165 167/167/167 175/175/175
f 165/165/165 175/175/175 174/174/174
f 167/167/167 169/169/169 176/176/176
f 167/167/167 176/176/176 175/175/175
f 169/169/169 171/171/171 177/177/177
f 169/169/169 177/177/177 176/176/176
f 162/162/162 173/173/173 178/178/178
f 178/178/178 179/179/179 162/162/162
f 178/178/178 180/180/180 179/179/179
f 180/180/180 181/181/181 179/179/179
f 182/182/182 180/180/180 178/178/178
f 180/180/180 182/182/182 181/181/181
f 182/182/182 178/178/178 173/173/173
f 182/182/182 183/183/183 181/181/181
f 184/184/184 182/182/182 173/173/173
f 182/182/182 184/184/184 183/183/183
f 184/184/184 173/173/173 174/174/174
f 184/184/184 185/185/185 183/183/183
f 186/186/186 184/184/184 174/174/174
f 184/184/184 186/186/186 185/185/185
f 186/186/186 174/174/174 175/175/175
f 186/186/186 187/187/187 185/185/185
f 188/188/188 186/186/186 175/175/175
f 186/186/186 188/188/188 187/187/187
f 188/188/188 175/175/175 176/176/176
f 188/188/188 172/172/172 187/187/187
f 176/176/176 189/189/189 188/188/188
f 188/188/188 189/189/189 172/172/172
f 176/176/176 177/177/177 189/189/189
f 189/189/189 190/190/190 172/172/172
f 189/189/189 191/191/191 190/190/190
f 177/177/177 191/191/191 189/189/189
f 191/191/191 192/192/192 190/190/190
f 177/177/177 193/193/193 191/191/191
f 171/171/171 193/193/193 177/177/177
f 172/172/172 194/194/194 171/171/171
f 171/171/171 194/194/194 193/193/193
f 172/172/172 195/195/195 194/194/194
f 193/193/193 196/196/196 191/191/191
f 191/191/191 196/196/196 192/192/192
f 193/193/193 197/197/197 196/196/196
f 194/194/194 197/197/197 193/193/193
f 192/192/192 196/196/196 197/197/197
f 195/195/195 198/198/198 194/194/194
f 195/195/195 192/192/192 198/198/198
f 192/192/192 197/197/197 198/198/198
f 194/194/194 198/198/198 197/197/197
f 199/199/199 201/201/201 200/200/200
f 199/199/199 202/202/202 201/201/201
f 202/202/202 203/203/203 201/201/201
f 202/202/202 204/204/204 203/203/203
f 204/204/204 205/205/205 203/203/203
f 204/204/204 206/206/206 205/205/205
f 206/206/206 207/207/207 205/205/205
f 206/206/206 208/208/208 207/207/207
f 208/208/208 209/209/209 207/207/207
f 208/208/208 210/210/210 209/209/209
f 200/200/200 201/201/201 211/211/211
f 201/201/201 203/203/203 212/212/212
f 201/201/201 212/212/212 211/211/211
f 203/203/203 205/205/205 213/213/213
f 203/203/203 213/213/213 212/212/212
f 205/205/205 207/207/207 214/214/214
f 205/205/205 214/214/214 213/213/213
f 207/207/207 209/209/209 215/215/215
f 207/207/207 215/215/215 214/214/214
f 200/200/200 211/211/211 216/216/216
f 216/216/216 217/217/217 200/200/200
f 216/216/216 218/218/218 217/217/217
f 218/218/218 219/219/219 217/217/217
f 220/220/220 218/218/218 216/216/216
f 218/218/218 220/220/220 219/219/219
f 220/220/220 216/216/216 211/211/211
f 220/220/220 221/221/221 219/219/219
f 222/222/222 220/220/220 211/211/211
f 220/220/220 222/222/222 221/221/221
f 222/222/222 211/211/211 212/212/212
f 222/222/222 223/223/223 221/221/221
f 224/224/224 222/222/222 212/212/212
f 222/222/222 224/224/224 223/223/223
f 224/224/224 212/212/212 213/213/213
f 224/224/224 225/225/225 223/223/223
f 226/226/226 224/224/224 213/213/213
f 224/224/224 226/226/226 225/225/225
f 226/226/226 213/213/213 214/214/214
f 226/226/226 210/210/210 225/225/225
f 214/214/214 227/227/227 226/226/226
f 226/226/226 227/227/227 210/210/210
f 214/214/214 215/215/215 227/227/227
f 227/227/227 228/228/228 210/210/210
f 227/227/227 229/229/229 228/228/228
f 215/215/215 229/229/229 227/227/227
f 229/229/229 230/230/230 228/228/228
f 215/215/215 231/231/231 229/229/229
f 209/209/209 231/231/231 215/215/215
f 210/210/210 232/232/232 209/209/209
f 209/209/209 232/232/232 231/231/231
f 210/210/210 233/233/233 232/232/232
f 231/231/231 234/234/234 229/229/229
f 229/229/229 234/234/234 230/230/230
f 231/231/231 235/235/235 234/234/234
f 232/232/232 235/235/235 231/231/231
f 230/230/230 234/234/234 235/235/235
f 233/233/233 236/236/236 232/232/232
f 233/233/233 230/230/230 236/236/236
f 230/230/230 235/235/235 236/236/236
f 232/232/232 236/236/236 235/235/235
f 237/237/237 239/239/239 238/238/238
f 237/237/237 240/240/240 239/239/239
f 240/240/240 241/241/241 239/239/239
f 240/240/240 242/242/242 241/241/241
f 242/242/242 243/243/243 241/241/241
f 242/242/242 244/244/244 243/243/243
f 244/244/244 245/245/245 243/243/243
f 244/244/244 246/246/246 245/245/245
f 246/246/246 247/247/247 245/245/245
f 246/246/246 248/248/248 247/247/247
f 238/238/238 239/239/239 249/249/249
f 239/239/239 241/241/241 250/250/250
f 239/239/239 250/250/250 249/249/249
f 241/241/241 243/243/243 251/251/251
f 241/241/241 251/251/251 250/250/250
f 243/243/243 245/245/245 252/252/252
f 243/243/243 252/252/252 251/251/251
f 245/245/245 247/247/247 253/253/253
f 245/245/245 253/253/253 252/252/252
f 238/238/238 249/249/249 254/254/254
f 254/254/254 255/255/255 238/238/238
f 254/254/254 256/256/256 255/255/255
f 256/256/256 257/257/257 255/255/255
f 258/258/258 256/256/256 254/254/254
f 256/256/256 258/258/258 257/257/257
f 258/258/258 254/254/254 249/249/249
f 258/258/258 259/259/259 257/257/257
f 260/260/260 258/258/258 249/249/249
f 258/258/258 260/260/260 259/259/259
f 260/260/260 249/249/249 250/250/250
f 260/260/260 261/261/261 259/259/259
f 262/262/262 260/260/260 250/250/250
f 260/260/260 262/262/262 261/261/261
f 262/262/262 250/250/250 251/251/251
f 262/262/262 263/263/263 261/261/261
f 264/264/264 262/262/262 251/251/251
f 262/262/262 264/264/264 263/263/263
f 264/264/264 251/251/251 252/252/252
f 264/264/264 248/248/248 263/263/263
f 252/252/252 265/265/265 264/264/264
f 264/264/264 265/265/265 248/248/248
f 252/252/252 253/253/253 265/265/265
f 265/265/265 266/266/266 248/248/248
f 265/265/265 267/267/267 266/266/266
f 253/253/253 267/267/267 265/265/265
f 267/267/267 268/268/268 266/266/266
f 253/253/253 269/269/269 267/267/267
f 247/247/247 269/269/269 253/253/253
f 248/248/248 270/270/270 247/247/247
f 247/247/247 270/270/270 269/269/269
f 248/248/248 271/271/271 270/270/270
f 269/269/269 272/272/272 267/267/267
f 267/267/267 272/272/272 268/268/268
f 269/269/269 273/273/273 272/272/272
f 270/270/270 273/273/273 269/269/269
f 268/268/268 272/272/272 273/273/273
f 271/271/271 274/274/274 270/270/270
f 271/271/271 268/268/268 274/274/274
f 268/268/268 273/273/273 274/274/274
f 270/270/270 274/274/274 273/273/273
f 275/275/275 277/277/277 276/276/276
f 275/275/275 278/278/278 277/277/277
f 278/278/278 279/279/279 277/277/277
f 278/278/278 280/280/280 279/279/279
f 280/280/280 281/281/281 279/279/279
f 280/280/280 282/282/282 281/281/281
f 282/282/282 283/283/283 281/281/281
f 282/282/282 284/284/284 283/283/283
f 284/284/284 285/285/285 283/283/283
f 284/284/284 286/286/286 285/285/285
f 276/276/276 277/277/277 287/287/287
f 277/277/277 279/279/279 288/288/288
f 277/277/277 288/288/288 287/287/287
f 279/279/279 281/281/281 289/289/289
f 279/279/279 289/289/289 288/288/288
f 281/281/281 283/283/283 290/290/290
f 281/281/281 290/290/290 289/289/289
f 283/283/283 285/285/285 291/291/291
f 283/283/283 291/291/291 290/290/290
f 276/276/276 287/287/287 292/292/292
f 292/292/292 293/293/293 276/276/276
f 292/292/292 294/294/294 293/293/293
f 294/294/294 295/295/295 293/293/293
f 296/296/296 294/294/294 292/292/292
f 294/294/294 296/296/296 295/295/295
f 296/296/296 292/292/292 287/287/287
f 296/296/296 297/297/297 295/295/295
f 298/298/298 296/296/296 287/287/287
f 296/296/296 298/298/298 297/297/297
f 298/298/298 287/287/287 288/288/288
f 298/298/298 299/299/299 297/297/297
f 300/300/300 298/298/298 288/288/288
f 298/298/298 300/300/300 299/299/299
f 300/300/300 288/288/288 289/289/289
f 300/300/300 301/301/301 299/299/299
f 302/302/302 300/300/300 289/289/289
f 300/300/300 302/302/302 301/301/301
f 302/302/302 289/289/289 290/290/290
f 302/302/302 286/286/286 301/301/301
f 290/290/290 303/303/303 302/302/302
f 302/302/302 303/303/303 286/286/286
f 290/290/290 291/291/291 303/303/303
f 303/303/303 304/304/304 286/286/286
f 303/303/303 305/305/305 304/304/304
f 291/291/291 305/305/305 303/303/303
f 305/305/305 306/306/306 304/304/304
f 291/291/291 307/307/307 305/305/305
f 285/285/285 307/307/307 291/291/291
f 286/286/286 308/308/308 285/285/285
f 285/285/285 308/308/308 307/307/307
f 286/286/286 309/309/309 308/308/308
f 307/307/307 310/310/310 305/305/305
f 305/305/305 310/310/310 306/306/306
f 307/307/307 311/311/311 310/310/310
f 308/308/308 311/311/311 307/307/307
f 306/306/306 310/310/310 311/311/311
f 309/309/309 312/312/312 308/308/308
f 309/309/309 306/306/306 312/312/312
f 306/306/306 311/311/311 312/312/312
f 308/308/308 312/312/312 311/311/311
f 313/313/313 315/315/315 314/314/314
f 313/313/313 316/316/316 315/315/315
f 316/316/316 317/317/317 315/315/315
f 316/316/316 318/318/318 317/317/317
f 318/318/318 319/319/319 317/317/317
f 318/318/318 320/320/320 319/319/319
f 320/320/320 321/321/321 319/319/319
f 320/320/320 322/322/322 321/321/321
f 322/322/322 323/323/323 321/321/321
f 322/322/322 324/324/324 323/323/323
f 314/314/314 315/315/315 325/325/325
f 315/315/315 317/317/317 326/326/326
f 315/315/315 326/326/326 325/325/325
f 317/317/317 319/319/319 327/327/327
f 317/317/317 327/327/327 326/326/326
f 319/319/319 321/321/321 328/328/328
f 319/319/319 328/328/328 327/327/327
f 321/321/321 323/323/323 329/329/329
f 321/321/321 329/329/329 328/328/328
f 314/314/314 325/325/325 330/330/330
f 330/330/330 331/331/331 314/314/314
f 330/330/330 332/332/332 331/331/331
f 332/332/332 333/333/333 331/331/331
f 334/334/334 332/332/332 330/330/330
f 332/332/332 334/334/334 333/333/333
f 334/334/334 330/330/330 325/325/325
f 334/334/334 335/335/335 333/333/333
f 336/336/336 334/334/334 325/325/325
f 334/334/334 336/336/336 335/335/335
f 336/336/336 325/325/325 326/326/326
f 336/336/336 337/337/337 335/335/335
f 338/338/338 336/336/336 326/326/326
f 336/336/336 338/338/338 337/337/337
f 338/338/338 326/326/326 327/327/327
f 338/338/338 339/339/339 337/337/337
f 340/340/340 338/338/338 327/327/327
f 338/338/338 340/340/340 339/339/339
f 340/340/340 327/327/327 328/328/328
f 340/340/340 324/324/324 339/339/339
f 328/328/328 341/341/341 340/340/340
f 340/340/340 341/341/341 324/324/324
f 328/328/328 329/329/329 341/341/341
f 341/341/341 342/342/342 324/324/324
f 341/341/341 343/343/343 342/342/342
f 329/329/329 343/343/343 341/341/341
f 343/343/343 344/344/344 342/342/342
f 329/329/329 345/345/345 343/343/343
f 323/323/323 345/345/345 329/329/329
f 324/324/324 346/346/346 323/323/323
f 323/323/323 346/346/346 345/345/345
f 324/324/324 347/347/347 346/346/346
f 345/345/345 348/348/348 343/343/343
f 343/343/343 348/348/348 344/344/344
f 345/345/345 349/349/349 348/348/348
f 346/346/346 349/349/349 345/345/345
f 344/344/344 348/348/348 349/349/349
f 347/347/347 350/350/350 346/346/346
f 347/347/347 344/344/344 350/350/350
f 344/344/344 349/349/349 350/350/350
f 346/346/346 350/350/350 349/349/349
f 351/351/351 353/353/353 352/352/352
f 351/351/351 354/354/354 353/353/353
f 354/354/354 355/355/355 353/353/353
f 354/354/354 356/356/356 355/355/355
f 356/356/356 357/357/357 355/355/355
f 356/356/356 358/358/358 357/357/357
f 358/358/358 359/359/359 357/357/357
f 358/358/358 360/360/360 359/359/359
f 360/360/360 361/361/361 359/359/359
f 360/360/360 362/362/362 361/361/361
f 352/352/352 353/353/353 363/363/363
f 353/353/353 355/355/355 364/364/364
f 353/353/353 364/364/364 363/363/363
f 355/355/355 357/357/357 365/365/365
f 355/355/355 365/365/365 364/364/364
f 357/357/357 359/359/359 366/366/366
f 357/357/357 366/366/366 365/365/365
f 359/359/359 361/361/361 367/367/367
f 359/359/359 367/367/367 366/366/366
f 352/352/352 363/363/363 368/368/368
f 368/368/368 369/369/369 352/352/352
f 368/368/368 370/370/370 369/369/369
f 370/370/370 371/371/371 369/369/369
f 372/372/372 370/370/370 368/368/368
f 370/370/370 372/372/372 371/371/371
f 372/372/372 368/368/368 363/363/363
f 372/372/372 373/373/373 371/371/371
f 374/374/374 372/372/372 363/363/363
f 372/372/372 374/374/374 373/373/373
f 374/374/374 363/363/363 364/364/364
f 374/374/374 375/375/375 373/373/373
f 376/376/376 374/374/374 364/364/364
f 374/374/374 376/376/376 375/375/375
f 376/376/376 364/364/364 365/365/365
f 376/376/376 377/377/377 375/375/375
f 378/378/378 376/376/376 365/365/365
f 376/376/376 378/378/378 377/377/377
f 378/378/378 365/365/365 366/366/366
f 378/378/378 362/362/362 377/377/377
f 366/366/366 379/379/379 378/378/378
f 378/378/378 379/379/379 362/362/362
f 366/366/366 367/367/367 379/379/379
f 379/379/379 380/380/380 362/362/362
f 379/379/379 381/381/381 380/380/380
f 367/367/367 381/381/381 379/379/379
f 381/381/381 382/382/382 380/380/380
f 367/367/367 383/383/383 381/381/381
f 361/361/361 383/383/383 367/367/367
f 362/362/362 384/384/384 361/361/361
f 361/361/361 384/384/384 383/383/383
f 362/362/362 385/385/385 384/384/384
f 383/383/383 386/386/386 381/381/381
f 381/381/381 386/386/386 382/382/382
f 383/383/383 387/387/387 386/386/386
f 384/384/384 387/387/387 383/383/383
f 382/382/382 386/386/386 387/387/387
f 385/385/385 388/388/388 384/384/384
f 385/385/385 382/382/382 388/388/388
f 382/382/382 387/387/387 388/388/388
f 384/384/384 388/388/388 387/387/387
f 389/389/389 391/391/391 390/390/390
f 392/392/392 389/389/389 390/390/390
f 389/389/389 393/393/393 391/391/391
f 393/393/393 394/394/394 391/391/391
f 392/392/392 395/395/395 389/389/389
f 396/396/396 395/395/395 392/392/392
f 393/393/393 397/397/397 394/394/394
f 397/397/397 398/398/398 394/394/394
f 396/396/396 399/399/399 395/395/395
f 400/400/400 399/399/399 396/396/396
f 397/397/397 401/401/401 398/398/398
f 402/402/402 398/398/398 401/401/401
f 402/402/402 401/401/401 403/403/403
f 403/403/403 404/404/404 402/402/402
f 405/405/405 401/401/401 397/397/397
f 405/405/405 403/403/403 401/401/401
f 404/404/404 403/403/403 406/406/406
f 404/404/404 406/406/406 407/407/407
f 408/408/408 407/407/407 406/406/406
f 409/409/409 397/397/397 393/393/393
f 405/405/405 397/397/397 409/409/409
f 405/405/405 410/410/410 403/403/403
f 410/410/410 406/406/406 403/403/403
f 411/411/411 410/410/410 405/405/405
f 411/411/411 405/405/405 409/409/409
f 411/411/411 412/412/412 410/410/410
f 410/410/410 412/412/412 406/406/406
f 408/408/408 406/406/406 413/413/413
f 413/413/413 406/406/406 412/412/412
f 413/413/413 414/414/414 408/408/408
f 413/413/413 412/412/412 415/415/415
f 415/415/415 412/412/412 411/411/411
f 413/413/413 416/416/416 414/414/414
f 415/415/415 416/416/416 413/413/413
f 416/416/416 417/417/417 414/414/414
f 416/416/416 418/418/418 417/417/417
f 415/415/415 419/419/419 416/416/416
f 411/411/411 419/419/419 415/415/415
f 418/418/418 416/416/416 420/420/420
f 420/420/420 416/416/416 419/419/419
f 418/418/418 420/420/420 421/421/421
f 418/418/418 421/421/421 400/400/400
f 400/400/400 421/421/421 399/399/399
f 420/420/420 419/419/419 422/422/422
f 422/422/422 421/421/421 420/420/420
f 422/422/422 419/419/419 411/411/411
f 422/422/422 423/423/423 421/421/421
f 423/423/423 399/399/399 421/421/421
f 411/411/411 423/423/423 422/422/422
f 423/423/423 424/424/424 399/399/399
f 411/411/411 424/424/424 423/423/423
f 424/424/424 395/395/395 399/399/399
f 411/411/411 425/425/425 424/424/424
f 411/411/411 409/409/409 425/425/425
f 424/424/424 426/426/426 395/395/395
f 425/425/425 426/426/426 424/424/424
f 426/426/426 389/389/389 395/395/395
f 425/425/425 409/409/409 427/427/427
f 409/409/409 393/393/393 427/427/427
f 428/428/428 393/393/393 389/389/389
f 426/426/426 428/428/428 389/389/389
f 428/428/428 427/427/427 393/393/393
f 425/425/425 427/427/427 429/429/429
f 425/425/425 429/429/429 426/426/426
f 429/429/429 427/427/427 428/428/428
f 429/429/429 428/428/428 426/426/426
f 430/430/430 432/432/432 431/431/431
f 430/430/430 431/431/431 433/433/433
f 432/432/432 430/430/430 434/434/434
f 435/435/435 432/432/432 434/434/434
f 433/433/433 436/436/436 430/430/430
f 433/433/433 437/437/437 436/436/436
f 438/438/438 436/436/436 437/437/437
f 438/438/438 437/437/437 439/439/439
f 440/440/440 430/430/430 436/436/436
f 440/440/440 436/436/436 438/438/438
f 441/441/441 438/438/438 439/439/439
f 441/441/441 439/439/439 442/442/442
f 435/435/435 434/434/434 443/443/443
f 443/443/443 444/444/444 435/435/435
f 445/445/445 434/434/434 430/430/430
f 440/440/440 445/445/445 430/430/430
f 446/446/446 445/445/445 440/440/440
f 446/446/446 447/447/447 445/445/445
f 445/445/445 447/447/447 434/434/434
f 443/443/443 434/434/434 447/447/447
f 446/446/446 440/440/440 448/448/448
f 440/440/440 438/438/438 448/448/448
f 448/448/448 438/438/438 441/441/441
f 443/443/443 449/449/449 444/444/444
f 449/449/449 450/450/450 444/444/444
f 443/443/443 447/447/447 451/451/451
f 451/451/451 447/447/447 446/446/446
f 451/451/451 449/449/449 443/443/443
f 452/452/452 450/450/450 449/449/449
f 450/450/450 452/452/452 453/453/453
f 451/451/451 454/454/454 449/449/449
f 446/446/446 454/454/454 451/451/451
f 452/452/452 449/449/449 454/454/454
f 453/453/453 452/452/452 455/455/455
f 453/453/453 455/455/455 456/456/456
f 452/452/452 454/454/454 457/457/457
f 457/457/457 454/454/454 446/446/446
f 457/457/457 455/455/455 452/452/452
f 456/456/456 455/455/455 458/458/458
f 456/456/456 458/458/458 459/459/459
f 457/457/457 460/460/460 455/455/455
f 446/446/446 460/460/460 457/457/457
f 460/460/460 458/458/458 455/455/455
f 459/459/459 458/458/458 461/461/461
f 459/459/459 461/461/461 462/462/462
f 460/460/460 463/463/463 458/458/458
f 446/446/446 463/463/463 460/460/460
f 463/463/463 461/461/461 458/458/458
f 462/462/462 461/461/461 464/464/464
f 462/462/462 464/464/464 465/465/465
f 464/464/464 442/442/442 465/465/465
f 464/464/464 441/441/441 442/442/442
f 446/446/446 466/466/466 463/463/463
f 446/446/446 448/448/448 466/466/466
f 463/463/463 467/467/467 461/461/461
f 467/467/467 464/464/464 461/461/461
f 466/466/466 467/467/467 463/463/463
f 448/448/448 441/441/441 468/468/468
f 466/466/466 448/448/448 468/468/468
f 469/469/469 441/441/441 464/464/464
f 467/467/467 469/469/469 464/464/464
f 469/469/469 468/468/468 441/441/441
f 466/466/466 468/468/468 470/470/470
f 466/466/466 470/470/470 467/467/467
f 470/470/470 468/468/468 469/469/469
f 470/470/470 469/469/469 467/467/467
f 471/471/471 473/473/473 472/472/472
f 472/472/472 473/473/473 474/474/474
f 475/475/475 474/474/474 473/473/473
f 475/475/475 473/473/473 476/476/476
f 476/476/476 477/477/477 475/475/475
f 476/476/476 478/478/478 477/477/477
f 478/478/478 479/479/479 477/477/477
f 478/478/478 480/480/480 479/479/479
f 473/473/473 471/471/471 481/481/481
f 471/471/471 482/482/482 481/481/481
f 471/471/471 483/483/483 482/482/482
f 484/484/484 482/482/482 483/483/483
f 484/484/484 483/483/483 485/485/485
f 486/486/486 481/481/481 482/482/482
f 486/486/486 482/482/482 484/484/484
f 487/487/487 473/473/473 481/481/481
f 486/486/486 487/487/487 481/481/481
f 488/488/488 487/487/487 486/486/486
f 488/488/488 489/489/489 487/487/487
f 487/487/487 489/489/489 473/473/473
f 476/476/476 473/473/473 489/489/489
f 488/488/488 486/486/486 490/490/490
f 486/486/486 484/484/484 490/490/490
f 491/491/491 484/484/484 485/485/485
f 490/490/490 484/484/484 491/491/491
f 491/491/491 485/485/485 492/492/492
f 476/476/476 489/489/489 493/493/493
f 493/493/493 489/489/489 488/488/488
f 493/493/493 478/478/478 476/476/476
f 493/493/493 494/494/494 478/478/478
f 488/488/488 494/494/494 493/493/493
f 495/495/495 478/478/478 494/494/494
f 480/480/480 478/478/478 495/495/495
f 495/495/495 494/494/494 496/496/496
f 496/496/496 494/494/494 488/488/488
f 480/480/480 495/495/495 497/497/497
f 496/496/496 497/497/497 495/495/495
f 480/480/480 497/497/497 498/498/498
f 496/496/496 499/499/499 497/497/497
f 488/488/488 499/499/499 496/496/496
f 498/498/498 497/497/497 500/500/500
f 499/499/499 500/500/500 497/497/497
f 498/498/498 500/500/500 501/501/501
f 488/488/488 502/502/502 499/499/499
f 499/499/499 502/502/502 500/500/500
f 501/501/501 500/500/500 503/503/503
f 502/502/502 503/503/503 500/500/500
f 501/501/501 503/503/503 504/504/504
f 488/488/488 505/505/505 502/502/502
f 488/488/488 490/490/490 505/505/505
f 504/504/504 503/503/503 506/506/506
f 504/504/504 506/506/506 507/507/507
f 506/506/506 492/492/492 507/507/507
f 506/506/506 491/491/491 492/492/492
f 502/502/502 508/508/508 503/503/503
f 508/508/508 506/506/506 503/503/503
f 505/505/505 508/508/508 502/502/502
f 505/505/505 490/490/490 509/509/509
f 490/490/490 491/491/491 509/509/509
f 510/510/510 491/491/491 506/506/506
f 508/508/508 510/510/510 506/506/506
f 510/510/510 509/509/509 491/491/491
f 505/505/505 509/509/509 511/511/511
f 505/505/505 511/511/511 508/508/508
f 511/511/511 509/509/509 510/510/510
f 511/511/511 510/510/510 508/508/508
f 512/512/512 514/514/514 513/513/513
f 515/515/515 512/512/512 513/513/513
f 512/512/512 516/516/516 514/514/514
f 516/516/516 517/517/517 514/514/514
f 515/515/515 518/518/518 512/512/512
f 519/519/519 518/518/518 515/515/515
f 516/516/516 520/520/520 517/517/517
f 520/520/520 521/521/521 517/517/517
f 519/519/519 522/522/522 518/518/518
f 523/523/523 522/522/522 519/519/519
f 520/520/520 524/524/524 521/521/521
f 525/525/525 521/521/521 524/524/524
f 525/525/525 524/524/524 526/526/526
f 526/526/526 527/527/527 525/525/525
f 528/528/528 524/524/524 520/520/520
f 528/528/528 526/526/526 524/524/524
f 527/527/527 526/526/526 529/529/529
f 527/527/527 529/529/529 530/530/530
f 531/531/531 530/530/530 529/529/529
f 532/532/532 520/520/520 516/516/516
f 528/528/528 520/520/520 532/532/532
f 528/528/528 533/533/533 526/526/526
f 533/533/533 529/529/529 526/526/526
f 534/534/534 533/533/533 528/528/528
f 534/534/534 528/528/528 532/532/532
f 534/534/534 535/535/535 533/533/533
f 533/533/533 535/535/535 529/529/529
f 531/531/531 529/529/529 536/536/536
f 536/536/536 529/529/529 535/535/535
f 536/536/536 537/537/537 531/531/531
f 536/536/536 535/535/535 538/538/538
f 538/538/538 535/535/535 534/534/534
f 536/536/536 539/539/539 537/537/537
f 538/538/538 539/539/539 536/536/536
f 540/540/540 537/537/537 539/539/539
f 537/537/537 540/540/540 541/541/541
f 541/541/541 540/540/540 542/542/542
f 538/538/538 543/543/543 539/539/539
f 534/534/534 543/543/543 538/538/538
f 540/540/540 539/539/539 543/543/543
f 542/542/542 540/540/540 544/544/544
f 542/542/542 544/544/544 523/523/523
f 523/523/523 544/544/544 522/522/522
f 540/540/540 543/543/543 545/545/545
f 545/545/545 544/544/544 540/540/540
f 545/545/545 543/543/543 534/534/534
f 545/545/545 546/546/546 544/544/544
f 546/546/546 522/522/522 544/544/544
f 534/534/534 546/546/546 545/545/545
f 546/546/546 547/547/547 522/522/522
f 534/534/534 547/547/547 546/546/546
f 547/547/547 518/518/518 522/522/522
f 534/534/534 548/548/548 547/547/547
f 534/534/534 532/532/532 548/548/548
f 547/547/547 549/549/549 518/518/518
f 548/548/548 549/549/549 547/547/547
f 549/549/549 512/512/512 518/518/518
f 548/548/548 532/532/532 550/550/550
f 532/532/532 516/516/516 550/550/550
f 551/551/551 516/516/516 512/512/512
f 549/549/549 551/551/551 512/512/512
f 551/551/551 550/550/550 516/516/516
f 548/548/548 550/550/550 552/552/552
f 548/548/548 552/552/552 549/549/549
f 552/552/552 550/550/550 551/551/551
f 552/552/552 551/551/551 549/549/549
