mtllib P_ElephantEars01.mtl
v 0.4941527 1.030737 -0.02370088 1 1 1
v 0.2792549 0.9406186 0.05187995 1 1 1
v 0.1951585 0.9464807 -0.01457641 1 1 1
v 0.2121208 1.011366 -0.08884752 1 1 1
v 0.1135017 0.9748064 -0.1226827 1 1 1
v 0.1544798 0.9987212 -0.1745221 1 1 1
v -0.01693537 0.9477872 -0.1866279 1 1 1
v 0.05298834 1.012542 -0.2178079 1 1 1
v -0.1085804 0.9434333 -0.2650383 1 1 1
v 0.03092874 1.066052 -0.4238765 1 1 1
v -0.06722185 1.031628 -0.4619116 1 1 1
v 0.1061213 1.085244 -0.5342314 1 1 1
v 0.03301802 1.061439 -0.6102076 1 1 1
v 0.2875853 1.047153 -0.7006182 1 1 1
v 0.2517665 0.9887531 -0.8012906 1 1 1
v 0.4982825 0.9480551 -0.7295372 1 1 1
v 0.4949971 0.8818468 -0.7826613 1 1 1
v 0.6059042 0.9052421 -0.6866614 1 1 1
v 0.6435325 0.8281136 -0.7207669 1 1 1
v 0.7067912 0.8809044 -0.6060668 1 1 1
v 0.65001 0.9492363 -0.6038159 1 1 1
v 0.7244294 0.9966892 -0.3871657 1 1 1
v 0.6243474 1.051701 -0.4036547 1 1 1
v 0.6032474 1.055395 -0.1348865 1 1 1
v 0.5133437 1.080472 -0.1944697 1 1 1
v 0.432306 1.064784 -0.1112184 1 1 1
v 0.4021475 1.060254 -0.271093 1 1 1
v 0.3629923 1.054291 -0.2311179 1 1 1
v 0.2916357 1.031748 -0.3486454 1 1 1
v 0.2679697 1.040128 -0.2216326 1 1 1
v 0.4875455 1.060327 -0.4106925 1 1 1
v 0.2166116 1.036099 -0.2532028 1 1 1
v 0.1714117 1.041933 -0.3050086 1 1 1
v 0.162483 1.0549 -0.387667 1 1 1
v 0.1984879 1.061898 -0.4409225 1 1 1
v 0.3174818 1.055719 -0.5611389 1 1 1
v 0.3497015 1.049973 -0.41666 1 1 1
v 0.4922546 0.9819248 -0.6512064 1 1 1
v 0.5675703 0.9801405 -0.5877268 1 1 1
v 0.5471385 0.9722179 -0.6312404 1 1 1
v 0.4812082 1.007643 -0.5668122 1 1 1
v -0.2796854 0.8613874 0.02884753 1 1 1
v -0.3430603 0.8548143 0.1502906 1 1 1
v -0.5774816 0.8387504 0.1470736 1 1 1
v -0.5665189 0.8585835 0.02477416 1 1 1
v -0.7003385 0.8218886 -0.03022549 1 1 1
v -0.7591984 0.7908449 0.07301277 1 1 1
v -0.9152585 0.7085204 -0.1882595 1 1 1
v -1.007282 0.6307352 -0.1196759 1 1 1
v -0.9895682 0.5735418 -0.4138279 1 1 1
v -1.03735 0.4922739 -0.3930556 1 1 1
v -0.9624941 0.5217488 -0.5417237 1 1 1
v -0.9995941 0.4280375 -0.571526 1 1 1
v -0.8887469 0.4935209 -0.6689519 1 1 1
v -0.8847806 0.576647 -0.6116942 1 1 1
v -0.6556736 0.6486537 -0.7410981 1 1 1
v -0.6628767 0.7207357 -0.6315897 1 1 1
v -0.3608313 0.7928171 -0.6706258 1 1 1
v -0.4154343 0.822908 -0.5613298 1 1 1
v -0.2177669 0.83517 -0.5778393 1 1 1
v -0.309805 0.8555042 -0.4932536 1 1 1
v -0.07947241 0.855625 -0.3541597 1 1 1
v -0.4689013 0.8046734 -0.4168764 1 1 1
v -0.237413 0.8820339 -0.2553025 1 1 1
v -0.136834 0.8614326 -0.2466726 1 1 1
v -0.2438633 0.8675072 -0.1336029 1 1 1
v -0.6389124 0.7494715 -0.4773891 1 1 1
v -0.417983 0.8216298 -0.3838293 1 1 1
v -0.5200789 0.7774453 -0.2712268 1 1 1
v -0.3877558 0.8375639 -0.2814539 1 1 1
v -0.3088141 0.8522606 -0.1660176 1 1 1
v -0.410468 0.8369398 -0.2167489 1 1 1
v -0.3445493 0.8821979 -0.04866123 1 1 1
v -0.4583555 0.8367956 -0.1548263 1 1 1
v -0.5464432 0.8228374 -0.1248694 1 1 1
v -0.6110392 0.8033553 -0.1511601 1 1 1
v -0.7656763 0.7401053 -0.2527799 1 1 1
v -0.611119 0.7629989 -0.3211878 1 1 1
v -0.8989273 0.619915 -0.4236709 1 1 1
v -0.8449471 0.6188241 -0.5217533 1 1 1
v -0.8897002 0.6067505 -0.4896404 1 1 1
v -0.8011369 0.6615494 -0.4297798 1 1 1
v -0.3959288 0.7133094 0.1575477 1 1 1
v -0.2492791 0.7585712 0.007043958 1 1 1
v -0.1528385 0.7629361 0.03071756 1 1 1
v -0.1391857 0.7675213 0.1134345 1 1 1
v -0.04163678 0.7621651 0.09200437 1 1 1
v -0.05317504 0.7405895 0.1472777 1 1 1
v 0.09389871 0.7625861 0.08626936 1 1 1
v 0.04586227 0.7674185 0.1551211 1 1 1
v 0.2029186 0.7571113 0.1102533 1 1 1
v 0.2497834 0.7172097 0.2915947 1 1 1
v -0.3106695 0.7240722 0.2147036 1 1 1
v -0.3413142 0.6818135 0.3067267 1 1 1
v -0.4379426 0.6574852 0.282527 1 1 1
v -0.3421678 0.5672297 0.5010014 1 1 1
v -0.427922 0.5036794 0.5085266 1 1 1
v -0.2159321 0.6694228 0.3168694 1 1 1
v -0.2010117 0.6908077 0.2726188 1 1 1
v -0.08984182 0.6501255 0.3238589 1 1 1
v -0.1271641 0.7130338 0.2303313 1 1 1
v -0.2265613 0.6020544 0.4547071 1 1 1
v -0.2762418 0.4270695 0.6518692 1 1 1
v -0.3182293 0.3563908 0.6561384 1 1 1
v -0.07146501 0.7136961 0.2348553 1 1 1
v -0.01271148 0.711706 0.2596237 1 1 1
v 0.1506755 0.727317 0.3102942 1 1 1
v 0.02964894 0.6921478 0.320464 1 1 1
v 0.1363243 0.6792985 0.4211275 1 1 1
v 0.2307349 0.6535882 0.4422123 1 1 1
v 0.02297284 0.6675602 0.3736904 1 1 1
v 0.05988326 0.5543206 0.6064217 1 1 1
v 0.1352094 0.4851904 0.6545132 1 1 1
v -0.02300978 0.5930828 0.5068594 1 1 1
v -0.09850362 0.4240941 0.6930924 1 1 1
v -0.06996194 0.3544383 0.7159457 1 1 1
v -0.109766 0.6251933 0.403118 1 1 1
v -0.2034348 0.378074 0.6913947 1 1 1
v -0.2166002 0.2966859 0.714603 1 1 1
v -0.1264441 0.4711997 0.6302511 1 1 1
v -0.2149029 0.4707907 0.6078998 1 1 1
v -0.1799472 0.4578263 0.6347657 1 1 1
v -0.1528093 0.5155257 0.5604883 1 1 1
v -0.09637718 0.6454896 0.3546626 1 1 1
v -0.08733597 0.6486297 0.3482083 1 1 1
v -0.06507237 0.5917279 0.2748452 1 1 1
v -0.07803258 0.5828843 0.2791868 1 1 1
v -0.04351024 0.5186328 0.2006637 1 1 1
v -0.05931763 0.5093856 0.2071756 1 1 1
v -0.02476281 0.4391292 0.1401534 1 1 1
v -0.04486565 0.4293422 0.1496606 1 1 1
v -0.00801545 0.3464915 0.08760273 1 1 1
v -0.03249763 0.3372247 0.1004392 1 1 1
v 0.003892792 0.2244434 0.04021116 1 1 1
v -0.02090788 0.2184407 0.05431511 1 1 1
v -0.07444092 0.6005715 0.264893 0.8941177 0.8941177 0.8941177
v -0.05436189 0.52788 0.1874531 0.7764706 0.7764706 0.7764706
v -0.03798384 0.4489163 0.1222728 0.6 0.6 0.6
v -0.0235219 0.3557584 0.06471819 0.454902 0.454902 0.454902
v -0.01129517 0.2304461 0.01605912 0.3764706 0.3764706 0.3764706
v -0.09165571 0.6501213 0.3358723 0.9490196 0.9490196 0.9490196
v -0.09637718 0.6454896 0.3546626 1 1 1
v -0.1012936 0.6486297 0.3447011 0.9490196 0.9490196 0.9490196
v -0.07803258 0.5828843 0.2791868 1 1 1
v -0.08740111 0.5917278 0.2692346 0.8941177 0.8941177 0.8941177
v -0.05931763 0.5093856 0.2071756 1 1 1
v -0.07016933 0.5186328 0.193965 0.7764706 0.7764706 0.7764706
v -0.04486565 0.4293422 0.1496606 1 1 1
v -0.05808669 0.4391292 0.13178 0.6 0.6 0.6
v -0.03249763 0.3372247 0.1004392 1 1 1
v -0.04800409 0.3464916 0.07755467 0.454902 0.454902 0.454902
v -0.03609585 0.2244434 0.03016309 0.3764706 0.3764706 0.3764706
v -0.01397974 0.07810291 0.02674297 1 1 1
v -0.02897731 0.08024915 0.001833259 0.3333333 0.3333333 0.3333333
v -0.01307629 -0.02353745 0.0231475 1 1 1
v -0.003986257 0.08239541 -0.01302838 0.3333333 0.3333333 0.3333333
v 0.01101132 0.08024918 0.01188134 1 1 1
v -0.01397974 0.07810291 0.02674297 1 1 1
v -0.02804904 -0.02418426 -0.001861019 0.2705882 0.2705882 0.2705882
v -0.003033156 -0.02483107 -0.01682146 0.2705882 0.2705882 0.2705882
v 0.0119396 -0.02418426 0.008187057 1 1 1
v -0.5289589 0.7680257 -0.2742788 1 1 1
v -0.5245034 0.7738774 -0.2626808 1 1 1
v -0.4206328 0.7273331 -0.2036192 1 1 1
v -0.4195691 0.7154747 -0.2178929 1 1 1
v -0.31291 0.6551746 -0.1436779 1 1 1
v -0.3137593 0.642432 -0.1618272 1 1 1
v -0.2228238 0.5664352 -0.09217734 1 1 1
v -0.2261196 0.5526642 -0.1160315 1 1 1
v -0.1431321 0.4546543 -0.04610842 1 1 1
v -0.149465 0.4413902 -0.07597589 1 1 1
v -0.06962927 0.2987944 -0.007699817 1 1 1
v -0.07810656 0.2900774 -0.03868783 1 1 1
v -0.4095224 0.7391914 -0.212643 0.8941177 0.8941177 0.8941177
v -0.2975258 0.6679173 -0.1533445 0.7764706 0.7764706 0.7764706
v -0.2013592 0.5802061 -0.103093 0.6 0.6 0.6
v -0.1149966 0.4679183 -0.05796462 0.454902 0.454902 0.454902
v -0.03934946 0.3075114 -0.01843548 0.3764706 0.3764706 0.3764706
v -0.5090809 0.7784962 -0.2638917 0.9490196 0.9490196 0.9490196
v -0.5289589 0.7680257 -0.2742788 1 1 1
v -0.5168934 0.7738774 -0.277244 0.9490196 0.9490196 0.9490196
v -0.4195691 0.7154747 -0.2178929 1 1 1
v -0.4084588 0.7273331 -0.2269167 0.8941177 0.8941177 0.8941177
v -0.3137593 0.642432 -0.1618272 1 1 1
v -0.298375 0.6551746 -0.1714937 0.7764706 0.7764706 0.7764706
v -0.2261196 0.5526642 -0.1160315 1 1 1
v -0.204655 0.5664352 -0.1269471 0.6 0.6 0.6
v -0.149465 0.4413902 -0.07597589 1 1 1
v -0.1213296 0.4546542 -0.08783209 0.454902 0.454902 0.454902
v -0.04782674 0.2987944 -0.0494235 0.3764706 0.3764706 0.3764706
v -0.03496285 0.1045844 -0.01614324 1 1 1
v -0.003386536 0.1077273 -0.02620142 0.3333333 0.3333333 0.3333333
v -0.02931038 -0.03155183 -0.01318954 1 1 1
v 0.00638725 0.1108701 0.005464076 0.3333333 0.3333333 0.3333333
v -0.02518906 0.1077273 0.01552226 1 1 1
v -0.03496285 0.1045844 -0.01614324 1 1 1
v 0.002435801 -0.03249998 -0.02315896 0.2705882 0.2705882 0.2705882
v 0.01237944 -0.03344813 0.008595293 0.2705882 0.2705882 0.2705882
v -0.01936673 -0.03249997 0.01856472 1 1 1
v 0.3027446 1.031763 -0.3597922 1 1 1
v 0.2889046 1.032298 -0.3559982 1 1 1
v 0.2223017 0.9284699 -0.2823073 1 1 1
v 0.2389207 0.9196146 -0.2816974 1 1 1
v 0.1564719 0.8027595 -0.208192 1 1 1
v 0.1770024 0.7935666 -0.2082925 1 1 1
v 0.1017312 0.6728299 -0.1488142 1 1 1
v 0.1281004 0.6631151 -0.1497858 1 1 1
v 0.05355407 0.5265743 -0.09765819 1 1 1
v 0.0859368 0.5173157 -0.09970431 1 1 1
v 0.01283638 0.3388824 -0.04980564 1 1 1
v 0.04588697 0.3327024 -0.05263663 1 1 1
v 0.2263266 0.9371415 -0.266072 0.8941177 0.8941177 0.8941177
v 0.1605888 0.8117331 -0.1879795 0.7764706 0.7764706 0.7764706
v 0.1061713 0.6822706 -0.1227026 0.6 0.6 0.6
v 0.05814254 0.5355037 -0.06544391 0.454902 0.454902 0.454902
v 0.016757 0.3447333 -0.01680649 0.3764706 0.3764706 0.3764706
v 0.2859742 1.029673 -0.3392628 0.9490196 0.9490196 0.9490196
v 0.3027446 1.031763 -0.3597922 1 1 1
v 0.301809 1.032183 -0.3454683 0.9490196 0.9490196 0.9490196
v 0.2389207 0.9196146 -0.2816974 1 1 1
v 0.2429456 0.9282861 -0.2654621 0.8941177 0.8941177 0.8941177
v 0.1770024 0.7935666 -0.2082925 1 1 1
v 0.1811193 0.8025402 -0.1880799 0.7764706 0.7764706 0.7764706
v 0.1281004 0.6631151 -0.1497858 1 1 1
v 0.1325405 0.6725557 -0.1236741 0.6 0.6 0.6
v 0.0859368 0.5173157 -0.09970431 1 1 1
v 0.09052528 0.5262452 -0.06749004 0.454902 0.454902 0.454902
v 0.0498076 0.3385534 -0.01963749 0.3764706 0.3764706 0.3764706
v 0.02026072 0.1182836 -0.02357023 1 1 1
v 0.02375401 0.120559 0.009913615 0.3333333 0.3333333 0.3333333
v 0.01470752 -0.03625997 -0.01845039 1 1 1
v -0.009723914 0.1231634 0.01322932 0.3333333 0.3333333 0.3333333
v -0.0132172 0.120888 -0.02025453 1 1 1
v 0.02026072 0.1182836 -0.02357023 1 1 1
v 0.01810821 -0.03656169 0.01511883 0.2705882 0.2705882 0.2705882
v -0.01546232 -0.03653437 0.01851991 0.2705882 0.2705882 0.2705882
v -0.01886301 -0.03623264 -0.01504931 1 1 1
vn -0.06004821 0.9125136 0.4046147
vn -0.2011214 0.8422844 0.5001071
vn -0.2773073 0.8410726 0.4644326
vn -0.2998738 0.8943462 0.3319949
vn -0.3585613 0.8226778 0.4411747
vn -0.2608547 0.910687 0.3203186
vn -0.3897881 0.8395678 0.3784062
vn -0.2567051 0.8935532 0.3683276
vn -0.4393466 0.8412361 0.3151135
vn -0.2295474 0.9571622 0.1764894
vn -0.3853621 0.9084705 0.1617945
vn -0.06637099 0.9955525 -0.06685975
vn -0.1918314 0.957013 -0.2175474
vn 0.1664776 0.9186673 -0.3582395
vn 0.1384521 0.8261139 -0.5462296
vn 0.3956424 0.7491418 -0.5312755
vn 0.4041971 0.6172991 -0.6749567
vn 0.4918599 0.6413988 -0.5887966
vn 0.5464648 0.5388836 -0.6410777
vn 0.6055602 0.6222613 -0.4960722
vn 0.4600722 0.7534366 -0.469752
vn 0.518808 0.8302819 -0.2036425
vn 0.3067291 0.9278916 -0.2119778
vn 0.2454126 0.9573061 0.1527667
vn 0.0873446 0.993942 0.06671088
vn -0.1140528 0.9574302 0.2651781
vn -0.1351573 0.9900388 -0.03944466
vn -0.1871327 0.9823323 -0.002132266
vn -0.02480855 0.9990091 0.0369505
vn -0.1854977 0.9821694 0.03055688
vn 0.01318508 0.9774989 -0.2105279
vn -0.08663514 0.9896982 0.1139815
vn 0.02014766 0.9810866 0.1925182
vn 0.05314414 0.9794621 0.1944989
vn 0.08613314 0.9883859 0.1251969
vn 0.2101094 0.9757727 -0.06100637
vn 0.01791558 0.9994286 -0.02866132
vn 0.3382916 0.9032609 -0.2639669
vn 0.2003645 0.8988932 -0.3896731
vn 0.3247152 0.8638735 -0.3850748
vn 0.1808781 0.9572396 -0.2257776
vn 0.008818763 0.9969126 0.0780227
vn -0.03112043 0.9893407 0.1422548
vn -0.1605817 0.9780382 0.1328714
vn -0.1713065 0.9850943 -0.01560019
vn -0.3298257 0.9410352 -0.07528424
vn -0.4321191 0.8975431 0.08769011
vn -0.5342054 0.8298439 -0.1611951
vn -0.6932876 0.7173228 -0.0692846
vn -0.6828078 0.666556 -0.2991264
vn -0.8208012 0.508698 -0.25983
vn -0.7331187 0.5567302 -0.3906258
vn -0.7913557 0.4290162 -0.435547
vn -0.651336 0.5166404 -0.5557376
vn -0.6184581 0.6720305 -0.4072894
vn -0.4196293 0.726376 -0.5443246
vn -0.4258623 0.8412877 -0.3329809
vn -0.1768406 0.9017861 -0.3943467
vn -0.2444179 0.9418379 -0.2306541
vn 0.006755557 0.9767871 -0.214106
vn -0.1122734 0.9847464 -0.1329255
vn 0.09786769 0.9886309 -0.1141533
vn -0.3123146 0.9499781 0.001121539
vn -0.06371105 0.9979478 0.00641113
vn 0.06844355 0.9967993 -0.0413111
vn 0.04794254 0.9983886 0.03036087
vn -0.4105771 0.9101265 -0.05564379
vn -0.3309914 0.9436337 -0.00053914
vn -0.2788969 0.9496454 -0.1427939
vn -0.3319466 0.9428827 -0.02799463
vn -0.08345243 0.9958169 -0.03720655
vn -0.2763937 0.95043 -0.1424411
vn -0.03258246 0.9979604 -0.05489388
vn -0.2173431 0.9417091 -0.2567993
vn -0.1877639 0.9429057 -0.2750882
vn -0.1847824 0.9462083 -0.2656035
vn -0.2889028 0.9103844 -0.2962018
vn -0.2748348 0.9525236 -0.1310143
vn -0.4189997 0.8487626 -0.3225544
vn -0.5163057 0.8419991 -0.1564163
vn -0.5069678 0.8192894 -0.2678594
vn -0.4085149 0.8902521 -0.2014118
vn -0.2411487 0.9503067 0.1968871
vn -0.1683376 0.9819056 0.08673979
vn -0.09070198 0.9910405 0.09804028
vn -0.01076945 0.977047 0.2127513
vn -0.01626342 0.9948459 0.1000862
vn -0.04777366 0.9690645 0.24214
vn 0.03985493 0.9913008 0.1254372
vn -0.07796948 0.9770529 0.1982128
vn 0.1123926 0.9828029 0.1465137
vn 0.1368849 0.9528191 0.2709213
vn -0.1324856 0.9472654 0.2917803
vn -0.191595 0.8793935 0.4358422
vn -0.365709 0.8376443 0.4057203
vn -0.2405883 0.7473571 0.619334
vn -0.4425148 0.6196812 0.6482097
vn 0.04943521 0.8944383 0.4444505
vn 0.05282925 0.8854357 0.4617496
vn -0.09814367 0.8885339 0.4481911
vn 0.02657691 0.8826025 0.4693682
vn 0.02111148 0.8372571 0.5464017
vn -0.2573659 0.5479037 0.7959675
vn -0.3871597 0.379254 0.840401
vn -0.09846954 0.8896849 0.4458302
vn -0.223786 0.8811986 0.4164238
vn -0.004029029 0.947697 0.3191461
vn -0.249075 0.8852239 0.3928618
vn -0.01958824 0.8777034 0.4788038
vn 0.1655168 0.8320298 0.5294627
vn -0.2407868 0.8895796 0.3881622
vn -0.04649027 0.7331129 0.6785161
vn 0.08682238 0.6062402 0.7905281
vn -0.2424654 0.8374201 0.4898348
vn -0.136203 0.5411865 0.8297988
vn -0.05760951 0.3687468 0.927743
vn -0.08790144 0.8927858 0.4418224
vn -0.208036 0.4191497 0.8837616
vn -0.2322446 0.2816571 0.9309842
vn -0.2325244 0.7564447 0.6113296
vn -0.04686779 0.7479673 0.6620788
vn -0.15616 0.7189035 0.6773418
vn -0.119569 0.8075255 0.5775862
vn -0.2401185 0.04196538 0.9698361
vn 0.6938187 0.4769644 0.5395558
vn 0.9676234 0.04231709 0.2488256
vn -0.1657637 -0.7440316 0.6472552
vn 0.9696568 0.04392164 0.2404924
vn -0.1829696 -0.6548712 0.7332571
vn 0.9704977 0.04427079 0.2370113
vn -0.2051777 -0.5395754 0.816554
vn 0.9749269 0.0289342 0.2206361
vn -0.2203052 -0.4275102 0.8767558
vn 0.9785541 0.01143536 0.2056726
vn -0.2335128 -0.2860765 0.929318
vn 0.148712 0.7855875 -0.600614
vn 0.1764128 0.6950748 -0.6969574
vn 0.1961146 0.5936204 -0.7804831
vn 0.2168472 0.4563111 -0.8629934
vn 0.2334838 0.2864754 -0.9292024
vn 0.09363377 0.9280224 -0.360565
vn -0.2401185 0.04196538 0.9698361
vn -0.864093 0.4799028 0.1517776
vn -0.1657637 -0.7440316 0.6472552
vn -0.9703062 0.04318736 -0.2379934
vn -0.1829696 -0.6548712 0.7332571
vn -0.9673346 0.03999516 -0.2503281
vn -0.2051777 -0.5395754 0.816554
vn -0.9672604 0.04427049 -0.2498951
vn -0.2203052 -0.4275102 0.8767558
vn -0.9634228 0.02893413 -0.2664195
vn -0.9595459 0.01143535 -0.2813202
vn -0.2419829 -0.1184252 0.9630264
vn -0.960327 0.004836408 -0.2788344
vn -0.1990097 -0.5771685 0.7920049
vn 0.2420121 0.1174104 -0.9631433
vn 0.9780675 0.004836455 0.2082324
vn -0.2419829 -0.1184252 0.9630264
vn -0.7904434 -0.5769845 -0.205641
vn 0.1988601 -0.578036 -0.7914096
vn 0.7937635 -0.5769844 0.192428
vn -0.8698648 -0.1999263 -0.4509599
vn -0.7715088 0.3826964 0.5082496
vn -0.4692311 0.04454146 0.8819514
vn -0.4074452 -0.8873431 -0.2158951
vn -0.4604384 0.04782031 0.8864027
vn -0.5319024 -0.8003042 -0.2767545
vn -0.454911 0.04725202 0.8892825
vn -0.6506763 -0.6789811 -0.3400075
vn -0.4367495 0.03507207 0.8988993
vn -0.7441932 -0.5430959 -0.3888745
vn -0.4193492 0.01867117 0.9076329
vn -0.8255262 -0.3638982 -0.4313752
vn 0.3661729 0.9110745 0.1893693
vn 0.4976614 0.8270891 0.2612596
vn 0.616115 0.7188545 0.321948
vn 0.7305743 0.5661465 0.3817582
vn 0.8253043 0.3645383 0.4312593
vn 0.1319861 0.9886358 0.07196475
vn -0.8698648 -0.1999263 -0.4509599
vn -0.02781356 0.3843578 -0.9227651
vn -0.4074452 -0.8873431 -0.2158951
vn 0.4557513 0.04530322 -0.8889535
vn -0.5319024 -0.8003042 -0.2767545
vn 0.4683857 0.04531497 -0.8823613
vn -0.6506763 -0.6789811 -0.3400075
vn 0.470275 0.04725135 -0.8812541
vn -0.7441932 -0.5430959 -0.3888745
vn 0.4885404 0.03507164 -0.8718362
vn 0.5056466 0.01867083 -0.8625386
vn -0.875988 -0.1520384 -0.4577438
vn 0.5037786 0.00795714 -0.8637962
vn -0.7237405 -0.5772124 -0.3781874
vn 0.8762141 0.1503705 0.457862
vn -0.4214481 0.007957449 0.9068176
vn -0.875988 -0.1520384 -0.4577438
vn 0.3860848 -0.5767466 -0.7199318
vn 0.7230458 -0.5783195 0.3778245
vn -0.3705513 -0.5767465 0.728049
vn 0.6055938 0.2815781 -0.7442916
vn -0.494839 0.540484 -0.6804494
vn -0.7753828 0.04061772 -0.6301839
vn 0.4862862 -0.6361557 -0.5990256
vn -0.7788195 0.04053787 -0.6259367
vn 0.5217774 -0.5559843 -0.6470162
vn -0.7800066 0.04067583 -0.6244478
vn 0.5597886 -0.4573174 -0.6910119
vn -0.7874447 0.02824251 -0.6157379
vn 0.5869992 -0.3636148 -0.7233369
vn -0.7941987 0.01481062 -0.6074775
vn 0.6111353 -0.2480494 -0.7516549
vn -0.4624731 0.6736592 0.5764564
vn -0.5078695 0.5903836 0.6273084
vn -0.5442458 0.5016094 0.6724467
vn -0.5810257 0.3864879 0.7162654
vn -0.6110924 0.2483054 0.7516053
vn -0.3640636 0.814838 0.4511061
vn 0.6055938 0.2815781 -0.7442916
vn 0.7712208 0.5320618 0.3494692
vn 0.4862862 -0.6361557 -0.5990256
vn 0.7730902 0.02777745 0.6336877
vn 0.5217774 -0.5559843 -0.6470162
vn 0.7681974 0.02332376 0.6397882
vn 0.5597886 -0.4573174 -0.6910119
vn 0.7685821 0.02689332 0.6391856
vn 0.5869992 -0.3636148 -0.7233369
vn 0.7614087 0.01445739 0.648111
vn 0.7545274 0.001026766 0.6562678
vn 0.6275209 -0.1135933 -0.7702689
vn 0.7560844 -0.003252845 0.654466
vn 0.5059938 -0.5927804 -0.6265634
vn -0.6275707 0.1129481 0.7703232
vn -0.7927917 0.01053232 -0.6094018
vn 0.6275209 -0.1135933 -0.7702689
vn 0.6191673 -0.5825235 0.5265912
vn -0.5259262 -0.562008 0.6383954
vn -0.6462544 -0.5712611 -0.5059803
vt 0.3325657 0.04528327
vt 0.3059973 0
vt 0.2818773 0.0001968832
vt 0.2741695 0.01830235
vt 0.2522237 0.008567931
vt 0.2519561 0.02312207
vt 0.2204344 0
vt 0.2280873 0.01815468
vt 0.1933142 0
vt 0.1948494 0.05063556
vt 0.1723846 0.04184772
vt 0.1922301 0.07923858
vt 0.1687182 0.08188488
vt 0.200254 0.1349158
vt 0.1797822 0.1515442
vt 0.2330202 0.1782479
vt 0.2249946 0.193339
vt 0.2578526 0.1897494
vt 0.2597538 0.2094383
vt 0.2870309 0.1925458
vt 0.2773397 0.1776812
vt 0.3210607 0.1455879
vt 0.301185 0.1306606
vt 0.3357292 0.08012377
vt 0.3115447 0.07798043
vt 0.3092846 0.05308996
vt 0.2812954 0.07529958
vt 0.2801653 0.06285435
vt 0.2510461 0.07261874
vt 0.2649733 0.04780401
vt 0.2763251 0.1119899
vt 0.2515371 0.04590841
vt 0.2362809 0.04859761
vt 0.2229477 0.06162715
vt 0.2216381 0.07592866
vt 0.2258596 0.1141175
vt 0.2514651 0.09331916
vt 0.2430585 0.1593724
vt 0.2652183 0.159089
vt 0.2554747 0.1651231
vt 0.2530968 0.1404968
vt 0.0517161 0
vt 0.02459591 0
vt 0.003666307 0.04184772
vt 0.02613111 0.05063556
vt 0.02351185 0.07923858
vt 0 0.08188488
vt 0.03153574 0.1349158
vt 0.01106393 0.1515442
vt 0.064302 0.1782479
vt 0.05627633 0.193339
vt 0.08913435 0.1897494
vt 0.0910355 0.2094383
vt 0.1183126 0.1925458
vt 0.1086215 0.1776812
vt 0.1523424 0.1455879
vt 0.1324668 0.1306606
vt 0.1670109 0.08012377
vt 0.1428264 0.07798043
vt 0.1638474 0.04528327
vt 0.1405664 0.05308996
vt 0.1372791 0
vt 0.1125771 0.07529958
vt 0.1054513 0.01830235
vt 0.1131591 0.0001968832
vt 0.08350545 0.008567931
vt 0.1076069 0.1119899
vt 0.1114471 0.06285435
vt 0.08232782 0.07261874
vt 0.09625506 0.04780401
vt 0.08323786 0.02312207
vt 0.08281891 0.04590841
vt 0.05936903 0.01815468
vt 0.06756268 0.04859761
vt 0.05422946 0.06162715
vt 0.05291983 0.07592866
vt 0.05714133 0.1141175
vt 0.08274691 0.09331916
vt 0.07434028 0.1593724
vt 0.09650002 0.159089
vt 0.08675646 0.1651231
vt 0.08437857 0.1404968
vt 0.1638474 0.04528327
vt 0.1372791 0
vt 0.1131591 0.0001968832
vt 0.1054513 0.01830235
vt 0.08350545 0.008567931
vt 0.08323786 0.02312207
vt 0.0517161 0
vt 0.05936903 0.01815468
vt 0.02459591 0
vt 0.003666307 0.04184772
vt 0.1405664 0.05308996
vt 0.1428264 0.07798043
vt 0.1670109 0.08012377
vt 0.1324668 0.1306606
vt 0.1523424 0.1455879
vt 0.1125771 0.07529958
vt 0.1114471 0.06285435
vt 0.08232782 0.07261874
vt 0.09625506 0.04780401
vt 0.1076069 0.1119899
vt 0.1086215 0.1776812
vt 0.1183126 0.1925458
vt 0.08281891 0.04590841
vt 0.06756268 0.04859761
vt 0.02613111 0.05063556
vt 0.05422946 0.06162715
vt 0.02351185 0.07923858
vt 0 0.08188488
vt 0.05291983 0.07592866
vt 0.03153574 0.1349158
vt 0.01106393 0.1515442
vt 0.05714133 0.1141175
vt 0.064302 0.1782479
vt 0.05627633 0.193339
vt 0.08274691 0.09331916
vt 0.08913435 0.1897494
vt 0.0910355 0.2094383
vt 0.07434028 0.1593724
vt 0.09650002 0.159089
vt 0.08675646 0.1651231
vt 0.08437857 0.1404968
vt 0.2148321 0.5909438
vt 0.2148469 0.5909635
vt 0.2145701 0.5911714
vt 0.214549 0.591143
vt 0.2142959 0.5913759
vt 0.2142678 0.591338
vt 0.2140338 0.5915706
vt 0.2139987 0.5915233
vt 0.2137578 0.5917771
vt 0.2137148 0.5917212
vt 0.2134292 0.59204
vt 0.2135612 0.592206
vt 0.2145919 0.5911993
vt 0.2143248 0.5914131
vt 0.21407 0.5916172
vt 0.2138012 0.5918323
vt 0.2134734 0.5920953
vt 0.2148621 0.5909831
vt 0.2148935 0.5910212
vt 0.2148776 0.5910023
vt 0.2146371 0.5912539
vt 0.2146142 0.5912268
vt 0.2143851 0.5914858
vt 0.2143546 0.5914499
vt 0.2141453 0.5917079
vt 0.2141071 0.5916631
vt 0.2138899 0.5919416
vt 0.2138451 0.5918872
vt 0.2135173 0.5921507
vt 0.2131909 0.5924994
vt 0.2131532 0.5924429
vt 0.2127097 0.592663
vt 0.2131137 0.592392
vt 0.2130704 0.5923442
vt 0.213014 0.5922861
vt 0.2129757 0.5925362
vt 0.2129745 0.5925068
vt 0.2129474 0.5924941
vt 0.2148321 0.5909438
vt 0.2148469 0.5909635
vt 0.2145701 0.5911714
vt 0.214549 0.591143
vt 0.2142959 0.5913759
vt 0.2142678 0.591338
vt 0.2140338 0.5915706
vt 0.2139987 0.5915233
vt 0.2137578 0.5917771
vt 0.2137148 0.5917212
vt 0.2134292 0.59204
vt 0.2135612 0.592206
vt 0.2145919 0.5911993
vt 0.2143248 0.5914131
vt 0.21407 0.5916172
vt 0.2138012 0.5918323
vt 0.2134734 0.5920953
vt 0.2148621 0.5909831
vt 0.2148935 0.5910212
vt 0.2148776 0.5910023
vt 0.2146371 0.5912539
vt 0.2146142 0.5912268
vt 0.2143851 0.5914858
vt 0.2143546 0.5914499
vt 0.2141453 0.5917079
vt 0.2141071 0.5916631
vt 0.2138899 0.5919416
vt 0.2138451 0.5918872
vt 0.2135173 0.5921507
vt 0.2131909 0.5924994
vt 0.2131532 0.5924429
vt 0.2127097 0.592663
vt 0.2131137 0.592392
vt 0.2130704 0.5923442
vt 0.213014 0.5922861
vt 0.2129757 0.5925362
vt 0.2129745 0.5925068
vt 0.2129474 0.5924941
vt 0.2148321 0.5909438
vt 0.2148469 0.5909635
vt 0.2145701 0.5911714
vt 0.214549 0.591143
vt 0.2142959 0.5913759
vt 0.2142678 0.591338
vt 0.2140338 0.5915706
vt 0.2139987 0.5915233
vt 0.2137578 0.5917771
vt 0.2137148 0.5917212
vt 0.2134292 0.59204
vt 0.2135612 0.592206
vt 0.2145919 0.5911993
vt 0.2143248 0.5914131
vt 0.21407 0.5916172
vt 0.2138012 0.5918323
vt 0.2134734 0.5920953
vt 0.2148621 0.5909831
vt 0.2148935 0.5910212
vt 0.2148776 0.5910023
vt 0.2146371 0.5912539
vt 0.2146142 0.5912268
vt 0.2143851 0.5914858
vt 0.2143546 0.5914499
vt 0.2141453 0.5917079
vt 0.2141071 0.5916631
vt 0.2138899 0.5919416
vt 0.2138451 0.5918872
vt 0.2135173 0.5921507
vt 0.2131909 0.5924994
vt 0.2131532 0.5924429
vt 0.2127097 0.592663
vt 0.2131137 0.592392
vt 0.2130704 0.5923442
vt 0.213014 0.5922861
vt 0.2129757 0.5925362
vt 0.2129745 0.5925068
vt 0.2129474 0.5924941
usemtl MV_ElephantEars
f 1/1/1 3/3/3 2/2/2
f 1/1/1 4/4/4 3/3/3
f 5/5/5 3/3/3 4/4/4
f 5/5/5 4/4/4 6/6/6
f 6/6/6 7/7/7 5/5/5
f 6/6/6 8/8/8 7/7/7
f 8/8/8 9/9/9 7/7/7
f 10/10/10 9/9/9 8/8/8
f 9/9/9 10/10/10 11/11/11
f 11/11/11 10/10/10 12/12/12
f 11/11/11 12/12/12 13/13/13
f 13/13/13 12/12/12 14/14/14
f 13/13/13 14/14/14 15/15/15
f 15/15/15 14/14/14 16/16/16
f 15/15/15 16/16/16 17/17/17
f 17/17/17 16/16/16 18/18/18
f 17/17/17 18/18/18 19/19/19
f 18/18/18 20/20/20 19/19/19
f 18/18/18 21/21/21 20/20/20
f 21/21/21 22/22/22 20/20/20
f 21/21/21 23/23/23 22/22/22
f 23/23/23 24/24/24 22/22/22
f 23/23/23 25/25/25 24/24/24
f 1/1/1 24/24/24 25/25/25
f 1/1/1 25/25/25 26/26/26
f 4/4/4 1/1/1 26/26/26
f 27/27/27 25/25/25 23/23/23
f 27/27/27 26/26/26 25/25/25
f 28/28/28 4/4/4 26/26/26
f 27/27/27 28/28/28 26/26/26
f 29/29/29 28/28/28 27/27/27
f 29/29/29 30/30/30 28/28/28
f 28/28/28 30/30/30 4/4/4
f 29/29/29 27/27/27 31/31/31
f 27/27/27 23/23/23 31/31/31
f 31/31/31 23/23/23 21/21/21
f 6/6/6 4/4/4 30/30/30
f 6/6/6 30/30/30 32/32/32
f 32/32/32 30/30/30 29/29/29
f 32/32/32 8/8/8 6/6/6
f 32/32/32 33/33/33 8/8/8
f 29/29/29 33/33/33 32/32/32
f 10/10/10 8/8/8 33/33/33
f 10/10/10 33/33/33 34/34/34
f 34/34/34 33/33/33 29/29/29
f 34/34/34 12/12/12 10/10/10
f 34/34/34 35/35/35 12/12/12
f 29/29/29 35/35/35 34/34/34
f 35/35/35 14/14/14 12/12/12
f 35/35/35 36/36/36 14/14/14
f 29/29/29 36/36/36 35/35/35
f 36/36/36 16/16/16 14/14/14
f 29/29/29 37/37/37 36/36/36
f 29/29/29 31/31/31 37/37/37
f 36/36/36 38/38/38 16/16/16
f 37/37/37 38/38/38 36/36/36
f 38/38/38 18/18/18 16/16/16
f 37/37/37 31/31/31 39/39/39
f 31/31/31 21/21/21 39/39/39
f 40/40/40 21/21/21 18/18/18
f 38/38/38 40/40/40 18/18/18
f 40/40/40 39/39/39 21/21/21
f 37/37/37 39/39/39 41/41/41
f 37/37/37 41/41/41 38/38/38
f 41/41/41 39/39/39 40/40/40
f 41/41/41 40/40/40 38/38/38
f 42/42/42 44/44/44 43/43/43
f 42/42/42 45/45/45 44/44/44
f 44/44/44 45/45/45 46/46/46
f 44/44/44 46/46/46 47/47/47
f 47/47/47 46/46/46 48/48/48
f 47/47/47 48/48/48 49/49/49
f 49/49/49 48/48/48 50/50/50
f 49/49/49 50/50/50 51/51/51
f 51/51/51 50/50/50 52/52/52
f 51/51/51 52/52/52 53/53/53
f 52/52/52 54/54/54 53/53/53
f 52/52/52 55/55/55 54/54/54
f 55/55/55 56/56/56 54/54/54
f 55/55/55 57/57/57 56/56/56
f 57/57/57 58/58/58 56/56/56
f 57/57/57 59/59/59 58/58/58
f 60/60/60 58/58/58 59/59/59
f 60/60/60 59/59/59 61/61/61
f 61/61/61 62/62/62 60/60/60
f 63/63/63 59/59/59 57/57/57
f 63/63/63 61/61/61 59/59/59
f 62/62/62 61/61/61 64/64/64
f 62/62/62 64/64/64 65/65/65
f 66/66/66 65/65/65 64/64/64
f 67/67/67 57/57/57 55/55/55
f 63/63/63 57/57/57 67/67/67
f 63/63/63 68/68/68 61/61/61
f 68/68/68 64/64/64 61/61/61
f 69/69/69 68/68/68 63/63/63
f 69/69/69 63/63/63 67/67/67
f 69/69/69 70/70/70 68/68/68
f 68/68/68 70/70/70 64/64/64
f 66/66/66 64/64/64 71/71/71
f 71/71/71 64/64/64 70/70/70
f 71/71/71 42/42/42 66/66/66
f 71/71/71 70/70/70 72/72/72
f 72/72/72 70/70/70 69/69/69
f 71/71/71 73/73/73 42/42/42
f 72/72/72 73/73/73 71/71/71
f 45/45/45 42/42/42 73/73/73
f 72/72/72 74/74/74 73/73/73
f 45/45/45 73/73/73 74/74/74
f 69/69/69 74/74/74 72/72/72
f 45/45/45 74/74/74 75/75/75
f 75/75/75 74/74/74 69/69/69
f 75/75/75 46/46/46 45/45/45
f 75/75/75 76/76/76 46/46/46
f 69/69/69 76/76/76 75/75/75
f 76/76/76 48/48/48 46/46/46
f 76/76/76 77/77/77 48/48/48
f 69/69/69 77/77/77 76/76/76
f 77/77/77 50/50/50 48/48/48
f 69/69/69 78/78/78 77/77/77
f 69/69/69 67/67/67 78/78/78
f 77/77/77 79/79/79 50/50/50
f 78/78/78 79/79/79 77/77/77
f 79/79/79 52/52/52 50/50/50
f 78/78/78 67/67/67 80/80/80
f 67/67/67 55/55/55 80/80/80
f 81/81/81 55/55/55 52/52/52
f 79/79/79 81/81/81 52/52/52
f 81/81/81 80/80/80 55/55/55
f 78/78/78 80/80/80 82/82/82
f 78/78/78 82/82/82 79/79/79
f 82/82/82 80/80/80 81/81/81
f 82/82/82 81/81/81 79/79/79
f 83/83/83 85/85/85 84/84/84
f 85/85/85 83/83/83 86/86/86
f 87/87/87 85/85/85 86/86/86
f 87/87/87 86/86/86 88/88/88
f 88/88/88 89/89/89 87/87/87
f 88/88/88 90/90/90 89/89/89
f 90/90/90 91/91/91 89/89/89
f 91/91/91 90/90/90 92/92/92
f 86/86/86 83/83/83 93/93/93
f 83/83/83 94/94/94 93/93/93
f 83/83/83 95/95/95 94/94/94
f 96/96/96 94/94/94 95/95/95
f 96/96/96 95/95/95 97/97/97
f 98/98/98 93/93/93 94/94/94
f 98/98/98 94/94/94 96/96/96
f 99/99/99 86/86/86 93/93/93
f 98/98/98 99/99/99 93/93/93
f 100/100/100 99/99/99 98/98/98
f 100/100/100 101/101/101 99/99/99
f 99/99/99 101/101/101 86/86/86
f 88/88/88 86/86/86 101/101/101
f 100/100/100 98/98/98 102/102/102
f 98/98/98 96/96/96 102/102/102
f 103/103/103 96/96/96 97/97/97
f 102/102/102 96/96/96 103/103/103
f 103/103/103 97/97/97 104/104/104
f 88/88/88 101/101/101 105/105/105
f 105/105/105 101/101/101 100/100/100
f 105/105/105 90/90/90 88/88/88
f 105/105/105 106/106/106 90/90/90
f 100/100/100 106/106/106 105/105/105
f 107/107/107 90/90/90 106/106/106
f 92/92/92 90/90/90 107/107/107
f 107/107/107 106/106/106 108/108/108
f 108/108/108 106/106/106 100/100/100
f 92/92/92 107/107/107 109/109/109
f 108/108/108 109/109/109 107/107/107
f 92/92/92 109/109/109 110/110/110
f 108/108/108 111/111/111 109/109/109
f 100/100/100 111/111/111 108/108/108
f 110/110/110 109/109/109 112/112/112
f 111/111/111 112/112/112 109/109/109
f 110/110/110 112/112/112 113/113/113
f 100/100/100 114/114/114 111/111/111
f 111/111/111 114/114/114 112/112/112
f 113/113/113 112/112/112 115/115/115
f 114/114/114 115/115/115 112/112/112
f 113/113/113 115/115/115 116/116/116
f 100/100/100 117/117/117 114/114/114
f 100/100/100 102/102/102 117/117/117
f 116/116/116 115/115/115 118/118/118
f 116/116/116 118/118/118 119/119/119
f 118/118/118 104/104/104 119/119/119
f 118/118/118 103/103/103 104/104/104
f 114/114/114 120/120/120 115/115/115
f 120/120/120 118/118/118 115/115/115
f 117/117/117 120/120/120 114/114/114
f 117/117/117 102/102/102 121/121/121
f 102/102/102 103/103/103 121/121/121
f 122/122/122 103/103/103 118/118/118
f 120/120/120 122/122/122 118/118/118
f 122/122/122 121/121/121 103/103/103
f 117/117/117 121/121/121 123/123/123
f 117/117/117 123/123/123 120/120/120
f 123/123/123 121/121/121 122/122/122
f 123/123/123 122/122/122 120/120/120
f 124/124/124 126/126/126 125/125/125
f 124/124/124 127/127/127 126/126/126
f 127/127/127 128/128/128 126/126/126
f 127/127/127 129/129/129 128/128/128
f 129/129/129 130/130/130 128/128/128
f 129/129/129 131/131/131 130/130/130
f 131/131/131 132/132/132 130/130/130
f 131/131/131 133/133/133 132/132/132
f 133/133/133 134/134/134 132/132/132
f 133/133/133 135/135/135 134/134/134
f 125/125/125 126/126/126 136/136/136
f 126/126/126 128/128/128 137/137/137
f 126/126/126 137/137/137 136/136/136
f 128/128/128 130/130/130 138/138/138
f 128/128/128 138/138/138 137/137/137
f 130/130/130 132/132/132 139/139/139
f 130/130/130 139/139/139 138/138/138
f 132/132/132 134/134/134 140/140/140
f 132/132/132 140/140/140 139/139/139
f 125/125/125 136/136/136 141/141/141
f 141/141/141 142/142/142 125/125/125
f 141/141/141 143/143/143 142/142/142
f 143/143/143 144/144/144 142/142/142
f 145/145/145 143/143/143 141/141/141
f 143/143/143 145/145/145 144/144/144
f 145/145/145 141/141/141 136/136/136
f 145/145/145 146/146/146 144/144/144
f 147/147/147 145/145/145 136/136/136
f 145/145/145 147/147/147 146/146/146
f 147/147/147 136/136/136 137/137/137
f 147/147/147 148/148/148 146/146/146
f 149/149/149 147/147/147 137/137/137
f 147/147/147 149/149/149 148/148/148
f 149/149/149 137/137/137 138/138/138
f 149/149/149 150/150/150 148/148/148
f 151/151/151 149/149/149 138/138/138
f 149/149/149 151/151/151 150/150/150
f 151/151/151 138/138/138 139/139/139
f 151/151/151 135/135/135 150/150/150
f 139/139/139 152/152/152 151/151/151
f 151/151/151 152/152/152 135/135/135
f 139/139/139 140/140/140 152/152/152
f 152/152/152 153/153/153 135/135/135
f 152/152/152 154/154/154 153/153/153
f 140/140/140 154/154/154 152/152/152
f 154/154/154 155/155/155 153/153/153
f 140/140/140 156/156/156 154/154/154
f 134/134/134 156/156/156 140/140/140
f 135/135/135 157/157/157 134/134/134
f 134/134/134 157/157/157 156/156/156
f 135/135/135 158/158/158 157/157/157
f 156/156/156 159/159/159 154/154/154
f 154/154/154 159/159/159 155/155/155
f 156/156/156 160/160/160 159/159/159
f 157/157/157 160/160/160 156/156/156
f 155/155/155 159/159/159 160/160/160
f 158/158/158 161/161/161 157/157/157
f 158/158/158 155/155/155 161/161/161
f 155/155/155 160/160/160 161/161/161
f 157/157/157 161/161/161 160/160/160
f 162/162/162 164/164/164 163/163/163
f 162/162/162 165/165/165 164/164/164
f 165/165/165 166/166/166 164/164/164
f 165/165/165 167/167/167 166/166/166
f 167/167/167 168/168/168 166/166/166
f 167/167/167 169/169/169 168/168/168
f 169/169/169 170/170/170 168/168/168
f 169/169/169 171/171/171 170/170/170
f 171/171/171 172/172/172 170/170/170
f 171/171/171 173/173/173 172/172/172
f 163/163/163 164/164/164 174/174/174
f 164/164/164 166/166/166 175/175/175
f 164/164/164 175/175/175 174/174/174
f 166/166/166 168/168/168 176/176/176
f 166/166/166 176/176/176 175/175/175
f 168/168/168 170/170/170 177/177/177
f 168/168/168 177/177/177 176/176/176
f 170/170/170 172/172/172 178/178/178
f 170/170/170 178/178/178 177/177/177
f 163/163/163 174/174/174 179/179/179
f 179/179/179 180/180/180 163/163/163
f 179/179/179 181/181/181 180/180/180
f 181/181/181 182/182/182 180/180/180
f 183/183/183 181/181/181 179/179/179
f 181/181/181 183/183/183 182/182/182
f 183/183/183 179/179/179 174/174/174
f 183/183/183 184/184/184 182/182/182
f 185/185/185 183/183/183 174/174/174
f 183/183/183 185/185/185 184/184/184
f 185/185/185 174/174/174 175/175/175
f 185/185/185 186/186/186 184/184/184
f 187/187/187 185/185/185 175/175/175
f 185/185/185 187/187/187 186/186/186
f 187/187/187 175/175/175 176/176/176
f 187/187/187 188/188/188 186/186/186
f 189/189/189 187/187/187 176/176/176
f 187/187/187 189/189/189 188/188/188
f 189/189/189 176/176/176 177/177/177
f 189/189/189 173/173/173 188/188/188
f 177/177/177 190/190/190 189/189/189
f 189/189/189 190/190/190 173/173/173
f 177/177/177 178/178/178 190/190/190
f 190/190/190 191/191/191 173/173/173
f 190/190/190 192/192/192 191/191/191
f 178/178/178 192/192/192 190/190/190
f 192/192/192 193/193/193 191/191/191
f 178/178/178 194/194/194 192/192/192
f 172/172/172 194/194/194 178/178/178
f 173/173/173 195/195/195 172/172/172
f 172/172/172 195/195/195 194/194/194
f 173/173/173 196/196/196 195/195/195
f 194/194/194 197/197/197 192/192/192
f 192/192/192 197/197/197 193/193/193
f 194/194/194 198/198/198 197/197/197
f 195/195/195 198/198/198 194/194/194
f 193/193/193 197/197/197 198/198/198
f 196/196/196 199/199/199 195/195/195
f 196/196/196 193/193/193 199/199/199
f 193/193/193 198/198/198 199/199/199
f 195/195/195 199/199/199 198/198/198
f 200/200/200 202/202/202 201/201/201
f 200/200/200 203/203/203 202/202/202
f 203/203/203 204/204/204 202/202/202
f 203/203/203 205/205/205 204/204/204
f 205/205/205 206/206/206 204/204/204
f 205/205/205 207/207/207 206/206/206
f 207/207/207 208/208/208 206/206/206
f 207/207/207 209/209/209 208/208/208
f 209/209/209 210/210/210 208/208/208
f 209/209/209 211/211/211 210/210/210
f 201/201/201 202/202/202 212/212/212
f 202/202/202 204/204/204 213/213/213
f 202/202/202 213/213/213 212/212/212
f 204/204/204 206/206/206 214/214/214
f 204/204/204 214/214/214 213/213/213
f 206/206/206 208/208/208 215/215/215
f 206/206/206 215/215/215 214/214/214
f 208/208/208 210/210/210 216/216/216
f 208/208/208 216/216/216 215/215/215
f 201/201/201 212/212/212 217/217/217
f 217/217/217 218/218/218 201/201/201
f 217/217/217 219/219/219 218/218/218
f 219/219/219 220/220/220 218/218/218
f 221/221/221 219/219/219 217/217/217
f 219/219/219 221/221/221 220/220/220
f 221/221/221 217/217/217 212/212/212
f 221/221/221 222/222/222 220/220/220
f 223/223/223 221/221/221 212/212/212
f 221/221/221 223/223/223 222/222/222
f 223/223/223 212/212/212 213/213/213
f 223/223/223 224/224/224 222/222/222
f 225/225/225 223/223/223 213/213/213
f 223/223/223 225/225/225 224/224/224
f 225/225/225 213/213/213 214/214/214
f 225/225/225 226/226/226 224/224/224
f 227/227/227 225/225/225 214/214/214
f 225/225/225 227/227/227 226/226/226
f 227/227/227 214/214/214 215/215/215
f 227/227/227 211/211/211 226/226/226
f 215/215/215 228/228/228 227/227/227
f 227/227/227 228/228/228 211/211/211
f 215/215/215 216/216/216 228/228/228
f 228/228/228 229/229/229 211/211/211
f 228/228/228 230/230/230 229/229/229
f 216/216/216 230/230/230 228/228/228
f 230/230/230 231/231/231 229/229/229
f 216/216/216 232/232/232 230/230/230
f 210/210/210 232/232/232 216/216/216
f 211/211/211 233/233/233 210/210/210
f 210/210/210 233/233/233 232/232/232
f 211/211/211 234/234/234 233/233/233
f 232/232/232 235/235/235 230/230/230
f 230/230/230 235/235/235 231/231/231
f 232/232/232 236/236/236 235/235/235
f 233/233/233 236/236/236 232/232/232
f 231/231/231 235/235/235 236/236/236
f 234/234/234 237/237/237 233/233/233
f 234/234/234 231/231/231 237/237/237
f 231/231/231 236/236/236 237/237/237
f 233/233/233 237/237/237 236/236/236
