mtllib P_IvyCoastalVine06.mtl
v -0.2262359 -8.727728 -0.04559177 0.9960784 0.9960784 0.9960784
v -0.3302124 -8.424641 0.04905495 0.9882353 0.9882353 0.9882353
v -0.3189988 -8.727894 0.0450119 0.9960784 0.9960784 0.9960784
v -0.1228322 -0.007246883 -0.02048075 0.1058824 0.1058824 0.1058824
v -0.2135247 -0.008295289 0.06984736 0.1058824 0.1058824 0.1058824
v -0.1186034 -1.12297 -0.09677626 0.1098039 0.1098039 0.1098039
v -0.2098862 -1.085525 -0.003458704 0.1098039 0.1098039 0.1098039
v -0.1208626 -1.228812 0.07702396 0.1137255 0.1137255 0.1137255
v -0.1232285 -0.009343712 0.1603893 0.1058824 0.1058824 0.1058824
v -0.2461886 -2.173312 -0.06222802 0.1960784 0.1960784 0.1960784
v -0.1645887 -2.396766 -0.1530075 0.227451 0.227451 0.227451
v -0.269585 -3.065311 -0.0375714 0.3411765 0.3411765 0.3411765
v -0.1807601 -3.251065 -0.1206775 0.372549 0.372549 0.372549
v -0.02733384 -0.825127 0.01454533 0.09803922 0.09803922 0.09803922
v -0.03248686 -0.008292901 0.07000928 0.1058824 0.1058824 0.1058824
v -0.1228322 -0.007246883 -0.02048075 0.1058824 0.1058824 0.1058824
v -0.1186034 -1.12297 -0.09677626 0.1098039 0.1098039 0.1098039
v -0.04475744 -1.660721 -0.03892024 0.1372549 0.1372549 0.1372549
v -0.1645887 -2.396766 -0.1530075 0.227451 0.227451 0.227451
v -0.07992451 -2.56846 -0.05997306 0.2509804 0.2509804 0.2509804
v -0.1807601 -3.251065 -0.1206775 0.372549 0.372549 0.372549
v -0.1709505 -2.582627 0.03119936 0.254902 0.254902 0.254902
v -0.0919246 -3.416984 -0.02708453 0.3921569 0.3921569 0.3921569
v -0.184074 -3.788019 -0.1138026 0.4392157 0.4392157 0.4392157
v -0.09921774 -4.15349 -0.02273688 0.4745098 0.4745098 0.4745098
v -0.1912039 -4.207275 -0.1083881 0.4784314 0.4784314 0.4784314
v -0.20797 -4.561612 -0.06757942 0.4941176 0.4941176 0.4941176
v -0.1825322 -3.439691 0.06426483 0.3960784 0.3960784 0.3960784
v -0.2747791 -3.838843 -0.02534042 0.4431373 0.4431373 0.4431373
v -0.184074 -3.788019 -0.1138026 0.4392157 0.4392157 0.4392157
v -0.1912039 -4.207275 -0.1083881 0.4784314 0.4784314 0.4784314
v -0.1892298 -4.13551 0.06836041 0.4745098 0.4745098 0.4745098
v -0.1189999 -4.578893 0.023761 0.4941176 0.4941176 0.4941176
v -0.2200551 -5.014838 -0.0580502 0.5294118 0.5294118 0.5294118
v -0.2830907 -4.239838 -0.01266364 0.4784314 0.4784314 0.4784314
v -0.2983597 -4.549781 0.02265969 0.4980392 0.4980392 0.4980392
v -0.20797 -4.561612 -0.06757942 0.4941176 0.4941176 0.4941176
v -0.2200551 -5.014838 -0.0580502 0.5294118 0.5294118 0.5294118
v -0.2092819 -4.559163 0.1136181 0.4941176 0.4941176 0.4941176
v -0.130425 -5.064528 0.03131589 0.5294118 0.5294118 0.5294118
v -0.2293052 -5.874175 -0.04671353 0.6196079 0.6196079 0.6196079
v -0.3106934 -5.013772 0.03199957 0.5294118 0.5294118 0.5294118
v -0.3198236 -5.875116 0.04353064 0.6196079 0.6196079 0.6196079
v -0.2293052 -5.874175 -0.04671353 0.6196079 0.6196079 0.6196079
v -0.221085 -5.064055 0.1213235 0.5294118 0.5294118 0.5294118
v -0.1389864 -5.934275 0.04646323 0.627451 0.627451 0.627451
v -0.2379669 -6.716279 0.001146498 0.7568628 0.7568628 0.7568628
v -0.2295524 -5.936664 0.1368168 0.627451 0.627451 0.627451
v -0.336394 -6.761316 0.0982282 0.772549 0.772549 0.772549
v -0.2379669 -6.716279 0.001146498 0.7568628 0.7568628 0.7568628
v -0.2407695 -6.830264 0.1976149 0.7843137 0.7843137 0.7843137
v -0.352284 -7.857865 0.07139126 0.9529412 0.9529412 0.9529412
v -0.245839 -8.090137 -0.03556471 0.9686275 0.9686275 0.9686275
v -0.1427099 -6.77246 0.09813925 0.7686275 0.7686275 0.7686275
v -0.1485128 -7.969709 0.06569126 0.9607843 0.9607843 0.9607843
v -0.245839 -8.090137 -0.03556471 0.9686275 0.9686275 0.9686275
v -0.2262359 -8.727728 -0.04559177 0.9960784 0.9960784 0.9960784
v -0.3302124 -8.424641 0.04905495 0.9882353 0.9882353 0.9882353
v -0.2262359 -8.727728 -0.04559177 0.9960784 0.9960784 0.9960784
v -0.2453647 -8.123932 0.1555109 0.9686275 0.9686275 0.9686275
v -0.2268681 -8.727728 0.1338955 0.9960784 0.9960784 0.9960784
v -0.3189988 -8.727894 0.0450119 0.9960784 0.9960784 0.9960784
v -0.1367702 -8.727578 0.04426588 0.9960784 0.9960784 0.9960784
v 0.1602276 1.410609E-08 -0.003562967 0.1058824 0.1058824 0.1058824
v 0.07876858 -1.909587E-08 0.07761376 0.1058824 0.1058824 0.1058824
v -0.002408212 -1.410608E-08 -0.003845374 0.1058824 0.1058824 0.1058824
v 0.07905079 1.909587E-08 -0.08502208 0.1058824 0.1058824 0.1058824
v 4.423892 2.486051E-08 0.0851663 0.03137255 0.03137255 0.03137255
v 4.342745 -0.002195881 0.003706926 0.03137255 0.03137255 0.03137255
v 4.424174 -1.02253E-08 -0.07746956 0.03137255 0.03137255 0.03137255
v 4.505321 0.002195896 0.003989772 0.03137255 0.03137255 0.03137255
v 4.337088 -1.46838 -0.1445381 0.03137255 0.03137255 0.03137255
v 4.909261 -2.327948 -0.6889036 0.08627451 0.08627451 0.08627451
v 4.573699 -2.99537 0.008864489 0.1921569 0.1921569 0.1921569
v 4.012931 -2.127964 0.5343102 0.05882353 0.05882353 0.05882353
v 4.47574 -1.696148 0.06655502 0.03137255 0.03137255 0.03137255
v 4.972035 -2.723624 0.7837999 0.1647059 0.1647059 0.1647059
v 4.485971 -3.488576 0.02775951 0.3568628 0.3568628 0.3568628
v 4.003725 -2.452432 -0.6680385 0.1058824 0.1058824 0.1058824
v 4.637668 -0.8833668 0.007546958 0.02745098 0.02745098 0.02745098
v 5.356302 -2.236832 0.5702201 0.08627451 0.08627451 0.08627451
v 4.236573 -3.013588 0.1383327 0.1960784 0.1960784 0.1960784
v 3.547149 -1.653626 -0.4109522 0.04313726 0.04313726 0.04313726
v 4.479106 -1.784944 -0.003859791 0.03529412 0.03529412 0.03529412
v 3.435542 -3.016272 -0.6721323 0.2745098 0.2745098 0.2745098
v 4.26743 -4.09907 0.01770406 0.5294118 0.5294118 0.5294118
v 5.285505 -2.853813 0.6663049 0.2117647 0.2117647 0.2117647
v 4.408626 -2.660648 0.01796402 0.1137255 0.1137255 0.1137255
v 3.748327 -4.029818 0.854688 0.5372549 0.5372549 0.5372549
v 4.49797 -4.965072 -0.0792354 0.6666667 0.6666667 0.6666667
v 5.137382 -3.586142 -0.8898327 0.4666667 0.4666667 0.4666667
v 4.435236 -2.537521 -0.02099582 0.08627451 0.08627451 0.08627451
v 3.419415 -3.743109 0.5305139 0.4588235 0.4588235 0.4588235
v 4.415244 -4.751156 0.1680408 0.6392157 0.6392157 0.6392157
v 5.402288 -3.53304 -0.371643 0.4392157 0.4392157 0.4392157
v 4.604371 -2.526356 -0.09345553 0.08627451 0.08627451 0.08627451
v 3.957901 -3.223523 0.4958166 0.282353 0.282353 0.282353
v 4.449574 -3.988919 0.132562 0.5019608 0.5019608 0.5019608
v 5.080758 -3.280619 -0.4445869 0.3254902 0.3254902 0.3254902
v 4.067349 -4.137345 0.01366785 0.5333334 0.5333334 0.5333334
v 3.383522 -5.251829 0.04389212 0.6901961 0.6901961 0.6901961
v 4.353464 -5.851897 -0.06083271 0.7921569 0.7921569 0.7921569
v 5.011533 -4.732906 -0.08859996 0.6509804 0.6509804 0.6509804
v 3.743434 -4.784325 0.0007646554 0.6352941 0.6352941 0.6352941
v 4.800273 -5.734964 -0.05678533 0.772549 0.772549 0.772549
v 3.970525 -6.663121 -0.01022393 0.9294118 0.9294118 0.9294118
v 2.939229 -5.699762 0.04590574 0.7607843 0.7607843 0.7607843
v 3.307016 -5.149991 -0.005357733 0.6705883 0.6705883 0.6705883
v 2.298557 -6.337857 0.02832917 0.8431373 0.8431373 0.8431373
v 3.337438 -7.222975 0.01561661 0.9764706 0.9764706 0.9764706
v 4.316257 -6.025073 -0.01754886 0.8235294 0.8235294 0.8235294
v 3.367514 -5.625054 -0.0769499 0.7568628 0.7568628 0.7568628
v 2.51954 -6.824792 0.5934871 0.9372549 0.9372549 0.9372549
v 3.504507 -7.753058 0.1834535 0.9960784 0.9960784 0.9960784
v 4.325182 -6.542451 -0.4732598 0.9215686 0.9215686 0.9215686
v 2.881164 -5.411233 -0.1030953 0.7058824 0.7058824 0.7058824
v 3.572279 -6.259387 0.2717676 0.8666667 0.8666667 0.8666667
v 2.879802 -6.946305 -0.0008972269 0.9529412 0.9529412 0.9529412
v 2.208584 -6.089813 -0.3671617 0.8039216 0.8039216 0.8039216
v 2.741465 -5.607905 -0.01908034 0.7333333 0.7333333 0.7333333
v 3.385032 -7.025759 -0.5701045 0.972549 0.972549 0.972549
v 2.396946 -7.768702 0.180809 0.9882353 0.9882353 0.9882353
v 1.779225 -6.345549 0.711731 0.8117647 0.8117647 0.8117647
v 1.764152 -4.928609 -0.07646874 0.5568628 0.5568628 0.5568628
v 2.887661 -6.147753 -0.5576473 0.8666667 0.8666667 0.8666667
v 1.983383 -7.212512 0.02025561 0.945098 0.945098 0.945098
v 0.8875006 -5.979733 0.485539 0.6588235 0.6588235 0.6588235
v 1.678355 -5.924263 -0.1617996 0.7058824 0.7058824 0.7058824
v 2.007265 -7.15096 1.02099 0.9490196 0.9490196 0.9490196
v 1.437106 -8.206656 0.08811989 0.9882353 0.9882353 0.9882353
v 1.122794 -6.966573 -1.065994 0.8941177 0.8941177 0.8941177
v 1.802544 -5.129973 0.001875909 0.5843138 0.5843138 0.5843138
v 1.407174 -6.046317 -0.8758724 0.7411765 0.7411765 0.7411765
v 1.615884 -6.88535 -0.09669469 0.8784314 0.8784314 0.8784314
v 2.003865 -5.957933 0.7579207 0.7647059 0.7647059 0.7647059
v 1.568093 -5.685415 0.04421483 0.654902 0.654902 0.654902
v 0.8122922 -6.830279 -0.8840877 0.8431373 0.8431373 0.8431373
v 1.544172 -7.875769 -0.1945979 0.9764706 0.9764706 0.9764706
v 2.278755 -6.717127 0.7121077 0.9137255 0.9137255 0.9137255
v 1.518982 -4.848299 -0.09385023 0.5372549 0.5372549 0.5372549
v 1.371728 -5.960769 0.8923235 0.7137255 0.7137255 0.7137255
v 1.669673 -6.829154 -0.03970491 0.8745098 0.8745098 0.8745098
v 1.809482 -5.706441 -0.9986814 0.7372549 0.7372549 0.7372549
v 1.317651 -4.359201 -0.07221329 0.4823529 0.4823529 0.4823529
v 0.8994229 -5.484921 1.125096 0.627451 0.627451 0.627451
v 1.118444 -6.593989 0.1621158 0.7843137 0.7843137 0.7843137
v 1.528895 -5.452995 -1.005767 0.6666667 0.6666667 0.6666667
v 0.9478081 -3.765628 0.003590279 0.4470588 0.4470588 0.4470588
v -0.2642039 -4.891971 0.04384046 0.5176471 0.5176471 0.5176471
v 0.7200038 -5.950513 0.1511029 0.6392157 0.6392157 0.6392157
v 1.902028 -4.809978 0.1088655 0.5411765 0.5411765 0.5411765
v 0.4928501 -3.302288 0.07471389 0.3764706 0.3764706 0.3764706
v 0.3293198 -4.361014 0.8044195 0.4941176 0.4941176 0.4941176
v 0.7156135 -5.007954 -0.04451865 0.5294118 0.5294118 0.5294118
v 0.8696941 -3.943307 -0.7507045 0.4823529 0.4823529 0.4823529
v 0.5523227 -3.750455 0.02460764 0.4313726 0.4313726 0.4313726
v 1.067816 -4.515841 0.6866856 0.5019608 0.5019608 0.5019608
v 0.7899534 -5.241896 0.06633519 0.5529412 0.5529412 0.5529412
v 0.2842149 -4.466722 -0.5775983 0.4980392 0.4980392 0.4980392
v 0.1694959 -1.8512 -0.006657099 0.1529412 0.1529412 0.1529412
v -0.5669675 -2.72448 0.312978 0.2941177 0.2941177 0.2941177
v 0.1297365 -3.428696 0.0002282854 0.3843137 0.3843137 0.3843137
v 0.8458749 -2.546896 -0.3103643 0.2941177 0.2941177 0.2941177
v 0.1592819 -1.890332 -0.1459356 0.1647059 0.1647059 0.1647059
v -0.1277126 -2.875664 -0.6613284 0.3372549 0.3372549 0.3372549
v 0.3596635 -3.391992 0.0509164 0.3921569 0.3921569 0.3921569
v 0.6341358 -2.402977 0.5472963 0.254902 0.254902 0.254902
v 0.2506457 -2.28368 -0.05305541 0.2156863 0.2156863 0.2156863
v 0.3454325 -3.192277 -0.8822979 0.3960784 0.3960784 0.3960784
v 0.3418627 -3.922055 -0.08558907 0.454902 0.454902 0.454902
v 0.2478564 -3.004654 0.7205071 0.345098 0.345098 0.345098
v 0.3081907 -2.359581 0.09129649 0.2313726 0.2313726 0.2313726
v 1.174321 -3.586521 0.6768239 0.4392157 0.4392157 0.4392157
v 0.4667671 -4.484206 -0.1515502 0.4901961 0.4901961 0.4901961
v -0.3778437 -3.24725 -0.7150679 0.3960784 0.3960784 0.3960784
v -0.05577785 -1.411311 -0.1416461 0.1215686 0.1215686 0.1215686
v 0.4705405 -2.333908 0.4981265 0.2352941 0.2352941 0.2352941
v -0.1446042 -3.054744 -0.03204228 0.3333333 0.3333333 0.3333333
v -0.6538981 -2.123639 -0.6557584 0.2352941 0.2352941 0.2352941
v -0.261941 -6.275026 0.056343 0.6784314 0.6784314 0.6784314
v 0.2501766 -7.201257 -0.3184394 0.8666667 0.8666667 0.8666667
v -0.3797134 -7.7578 0.1917096 0.945098 0.945098 0.945098
v -0.8745979 -6.826591 0.552832 0.8235294 0.8235294 0.8235294
v -0.3826553 -7.071966 0.1857093 0.8352941 0.8352941 0.8352941
v 0.6624204 -8.18315 0.5487685 0.9803922 0.9803922 0.9803922
v -0.1532528 -9.135936 -0.01018887 1 1 1
v -1.173174 -8.0127 -0.3586347 0.9764706 0.9764706 0.9764706
v -0.4967675 -7.553668 -0.01076125 0.9215686 0.9215686 0.9215686
v 0.3440592 -8.764953 -0.9020073 1 1 1
v -0.1239039 -9.8134 0.07690688 1 1 1
v -0.9485058 -8.588772 0.9406621 0.9960784 0.9960784 0.9960784
v -0.1209431 0.7962852 0.0266553 0.1137255 0.1137255 0.1137255
v 0.7644858 -0.3839881 0.76733 0.1058824 0.1058824 0.1058824
v 0.02710279 -1.394856 0.04300218 0.1176471 0.1176471 0.1176471
v -0.8360268 -0.2018078 -0.6767275 0.1254902 0.1254902 0.1254902
v 0.1326737 0.3612846 0.05244077 0.1098039 0.1098039 0.1098039
v -0.3428197 -0.6848565 0.9703648 0.1254902 0.1254902 0.1254902
v -0.2300086 -1.56119 0.03326783 0.1254902 0.1254902 0.1254902
v 0.239546 -0.5041445 -0.8578584 0.1215686 0.1215686 0.1215686
v -0.1381385 0.5295686 0.08368523 0.1137255 0.1137255 0.1137255
v 0.4208414 -0.5955639 -0.6610381 0.1058824 0.1058824 0.1058824
v -0.2416685 -1.410436 0.06890779 0.1215686 0.1215686 0.1215686
v -0.7823716 -0.276297 0.7925362 0.1254902 0.1254902 0.1254902
v -0.1769928 -0.4617725 -0.1431167 0.09803922 0.09803922 0.09803922
v -1.111651 -1.826237 0.4840116 0.2156863 0.2156863 0.2156863
v 0.0496555 -2.787908 0.1292454 0.2901961 0.2901961 0.2901961
v 0.9526121 -1.413086 -0.4856592 0.1294118 0.1294118 0.1294118
v -0.2107506 -0.6300757 0.02901655 0.1019608 0.1019608 0.1019608
v 0.8303969 -1.512524 0.1023159 0.1333333 0.1333333 0.1333333
v 0.07041505 -2.424665 -0.04941776 0.2313726 0.2313726 0.2313726
v -0.9467942 -1.529332 -0.118938 0.1607843 0.1607843 0.1607843
v -0.112743 -0.57368 -0.02841811 0.1019608 0.1019608 0.1019608
v -1.073281 -1.508611 0.08258743 0.1686275 0.1686275 0.1686275
v -0.2565146 -2.355967 0.035543 0.2196078 0.2196078 0.2196078
v 0.679474 -1.409922 -0.07363461 0.1215686 0.1215686 0.1215686
v -0.3503478 -1.705387 -0.1031423 0.1411765 0.1411765 0.1411765
v -0.3530102 -2.492494 0.6288666 0.2627451 0.2627451 0.2627451
v -0.1341869 -3.117434 -0.04016897 0.3490196 0.3490196 0.3490196
v -0.1362088 -2.322857 -0.7524757 0.254902 0.254902 0.254902
v -0.07236609 -3.256871 -0.002237283 0.3686275 0.3686275 0.3686275
v -0.4797132 -4.051946 -0.6232958 0.4862745 0.4862745 0.4862745
v -0.1230249 -4.703142 -0.0261822 0.5058824 0.5058824 0.5058824
v 0.2736914 -3.900096 0.5775321 0.4588235 0.4588235 0.4588235
v -0.2049691 -2.903231 0.1648082 0.3098039 0.3098039 0.3098039
v -0.8260273 -3.92534 0.4263005 0.4784314 0.4784314 0.4784314
v -0.09455276 -4.506382 -0.09976006 0.4941176 0.4941176 0.4941176
v 0.5062974 -3.479484 -0.3480951 0.4039216 0.4039216 0.4039216
v -0.3331541 -2.780081 0.02540058 0.2901961 0.2901961 0.2901961
v -0.3558897 -3.637897 -0.6633552 0.4392157 0.4392157 0.4392157
v -0.08885466 -4.223008 0.05416933 0.4784314 0.4784314 0.4784314
v -0.07198024 -3.359095 0.7225111 0.4 0.4 0.4
v -0.2834729 -2.516909 -0.07565485 0.2470588 0.2470588 0.2470588
v -0.7515181 -3.870706 -1.055324 0.5058824 0.5058824 0.5058824
v -0.2105449 -4.823106 -0.001846936 0.5137255 0.5137255 0.5137255
v 0.2424899 -3.459071 0.9480843 0.4235294 0.4235294 0.4235294
v -0.3540523 -3.535604 -0.05621476 0.4117647 0.4117647 0.4117647
v 0.5315895 -4.335123 0.02969166 0.4784314 0.4784314 0.4784314
v -0.1655585 -5.115331 -0.02176687 0.5372549 0.5372549 0.5372549
v -1.029757 -4.305124 -0.1059379 0.5058824 0.5058824 0.5058824
v -0.1162518 -3.727044 -0.1107676 0.4313726 0.4313726 0.4313726
v -0.9430422 -4.651149 0.4094446 0.5294118 0.5294118 0.5294118
v -0.2279782 -5.506712 0.03082707 0.5764706 0.5764706 0.5764706
v 0.5774245 -4.571239 -0.4774478 0.5019608 0.5019608 0.5019608
v -0.06917625 -4.174424 0.1265486 0.4745098 0.4745098 0.4745098
v 0.7428944 -5.308791 -0.0655603 0.5568628 0.5568628 0.5568628
v -0.2541553 -6.032997 -0.01797508 0.6392157 0.6392157 0.6392157
v -1.038937 -4.891624 0.1716914 0.5490196 0.5490196 0.5490196
v -0.3963851 -4.530335 -0.0757863 0.5019608 0.5019608 0.5019608
v -1.127184 -5.783086 0.7705822 0.6705883 0.6705883 0.6705883
v -0.151226 -6.731699 0.2137209 0.7607843 0.7607843 0.7607843
v 0.5533374 -5.468037 -0.6144865 0.5843138 0.5843138 0.5843138
v -0.1177759 -4.19859 0.03430926 0.4784314 0.4784314 0.4784314
v -1.309216 -5.310833 -0.4492725 0.6235294 0.6235294 0.6235294
v -0.4748333 -6.43165 0.06475157 0.7098039 0.7098039 0.7098039
v 0.6899651 -5.303783 0.5337819 0.5647059 0.5647059 0.5647059
v -0.3397024 -4.666327 0.01865831 0.5058824 0.5058824 0.5058824
v 0.6545545 -5.795064 -0.1672398 0.6156863 0.6156863 0.6156863
v -0.3066159 -6.681839 0.05955274 0.7490196 0.7490196 0.7490196
v -1.272994 -5.542587 0.2392347 0.6352941 0.6352941 0.6352941
v -0.2006111 -4.280916 0.09873699 0.4784314 0.4784314 0.4784314
v -0.8315267 -5.494047 -0.8522888 0.6235294 0.6235294 0.6235294
v -0.1101272 -6.488592 -0.06619365 0.7098039 0.7098039 0.7098039
v 0.5007217 -5.263278 0.8610069 0.5686275 0.5686275 0.5686275
v -0.3106816 -5.3003 -0.00979929 0.5529412 0.5529412 0.5529412
v 0.4373973 -6.47854 -0.554539 0.7333333 0.7333333 0.7333333
v -0.149823 -7.258986 0.3214944 0.8705882 0.8705882 0.8705882
v -0.8798246 -6.072867 0.8435116 0.6941177 0.6941177 0.6941177
v -0.3792642 -5.468323 0.009788374 0.572549 0.572549 0.572549
v -1.312131 -6.89787 -0.0723414 0.8588235 0.8588235 0.8588235
v -0.06214767 -7.719268 -0.02137178 0.9372549 0.9372549 0.9372549
v 0.8371406 -6.282838 0.05906116 0.7019608 0.7019608 0.7019608
v -0.09110811 -6.639161 0.09720486 0.7372549 0.7372549 0.7372549
v -0.4358112 -7.388612 0.7839547 0.9098039 0.9098039 0.9098039
v -0.2685836 -8.055224 0.1426999 0.9686275 0.9686275 0.9686275
v 0.06999282 -7.297133 -0.5252762 0.8901961 0.8901961 0.8901961
v -0.08431797 -6.233789 0.07854462 0.6666667 0.6666667 0.6666667
v -1.024961 -7.327888 -0.3695467 0.9137255 0.9137255 0.9137255
v -0.2066278 -8.239206 0.1308096 0.9764706 0.9764706 0.9764706
v 0.7095799 -7.133813 0.5649048 0.8705882 0.8705882 0.8705882
v -0.3580003 -7.596296 0.2404695 0.9254902 0.9254902 0.9254902
v 0.1955175 -8.505493 0.7369117 0.9921569 0.9921569 0.9921569
v -0.1917377 -9.134249 0.02095234 1 1 1
v -0.7328866 -8.218407 -0.4565385 0.9843137 0.9843137 0.9843137
v -0.2845209 -6.831463 0.1370139 0.7882353 0.7882353 0.7882353
v -0.509788 -8.04793 -0.8824794 0.9764706 0.9764706 0.9764706
v -0.2803981 -8.963907 0.1563559 1 1 1
v -0.06169513 -7.736958 1.146128 0.9529412 0.9529412 0.9529412
v -0.2379738 -7.678428 -0.1475592 0.9333333 0.9333333 0.9333333
v -1.014612 -8.63598 -0.007406549 0.9960784 0.9960784 0.9960784
v -0.1691869 -9.301805 0.1433096 1 1 1
v 0.5836578 -8.337177 0.0009859953 0.9843137 0.9843137 0.9843137
v -0.2445462 -8.668686 -0.01255496 0.9960784 0.9960784 0.9960784
v -0.6382793 -9.45824 -0.5917383 1 1 1
v -0.2014489 -10.07133 -0.05553767 1 1 1
v 0.180046 -9.274576 0.5079111 1 1 1
v -0.1452899 -7.7881 -0.1233938 0.945098 0.945098 0.945098
v -0.1495379 -8.938901 -0.8106369 1 1 1
v -0.2030923 -9.541529 0.1952471 1 1 1
v -0.1977343 -8.386436 0.8559405 0.9882353 0.9882353 0.9882353
v -0.3213801 -9.04796 0.1589815 1 1 1
v 0.03506086 -9.926006 0.8502326 1 1 1
v -0.181663 -10.60118 0.1070733 1 1 1
v -0.5308348 -9.715265 -0.5631986 1 1 1
v -0.01363878 -6.34508E-05 -0.003864907 0.1058824 0.1058824 0.1058824
v 0.06903366 -5.465921E-05 0.07613385 0.1058824 0.1058824 0.1058824
v 0.1706033 -2.270243 0.07807066 0.2078431 0.2078431 0.2078431
v 0.09520647 -2.334849 -0.003675698 0.2156863 0.2156863 0.2156863
v 0.2462462 -2.196094 -0.003413354 0.2 0.2 0.2
v 0.1519767 -4.586568E-05 -0.003577289 0.1058824 0.1058824 0.1058824
v 0.06931078 -5.462021E-05 -0.08357601 0.1058824 0.1058824 0.1058824
v 0.3493948 -3.530401 0.07835422 0.4078431 0.4078431 0.4078431
v 0.2814447 -3.605993 -0.003351943 0.4156863 0.4156863 0.4156863
v 0.4183071 -3.451114 -0.003114393 0.4 0.4 0.4
v 0.170886 -2.270239 -0.08515959 0.2117647 0.2117647 0.2117647
v -0.01363878 -6.34508E-05 -0.003864907 0.1058824 0.1058824 0.1058824
v 0.09520647 -2.334849 -0.003675698 0.2156863 0.2156863 0.2156863
v 0.3496782 -3.530401 -0.08482178 0.4078431 0.4078431 0.4078431
v 0.2814447 -3.605993 -0.003351943 0.4156863 0.4156863 0.4156863
v 0.6868707 -4.626565 0.07896162 0.4980392 0.4980392 0.4980392
v 0.629735 -4.708733 -0.002746588 0.5058824 0.5058824 0.5058824
v 0.7454155 -4.542276 -0.002545815 0.4901961 0.4901961 0.4901961
v 1.31251 -5.52823 -0.001560105 0.6117647 0.6117647 0.6117647
v 0.6871535 -4.626564 -0.08425595 0.5019608 0.5019608 0.5019608
v 0.629735 -4.708733 -0.002746588 0.5058824 0.5058824 0.5058824
v 1.248557 -5.582696 0.08363108 0.6117647 0.6117647 0.6117647
v 1.187268 -5.639616 -0.001777524 0.6196079 0.6196079 0.6196079
v 1.725248 -6.093612 -0.0008424082 0.7411765 0.7411765 0.7411765
v 1.248853 -5.582696 -0.08697277 0.6156863 0.6156863 0.6156863
v 1.187268 -5.639616 -0.001777524 0.6196079 0.6196079 0.6196079
v 1.725248 -6.093612 -0.0008424082 0.7411765 0.7411765 0.7411765
v 1.774516 -6.022625 0.08056127 0.7333333 0.7333333 0.7333333
v 2.208339 -6.26801 -2.712477E-06 0.827451 0.827451 0.827451
v 1.774799 -6.022625 -0.08207458 0.7372549 0.7372549 0.7372549
v 2.208339 -6.26801 -2.712477E-06 0.827451 0.827451 0.827451
v 2.232733 -6.187668 0.08135772 0.8117647 0.8117647 0.8117647
v 2.757033 -6.309644 0.000951013 0.8705882 0.8705882 0.8705882
v 1.824067 -5.9516 -0.0006709169 0.7254902 0.7254902 0.7254902
v 2.233016 -6.187668 -0.0812781 0.8156863 0.8156863 0.8156863
v 2.757033 -6.309644 0.000951013 0.8705882 0.8705882 0.8705882
v 2.257409 -6.107315 8.230656E-05 0.8 0.8 0.8
v 2.753846 -6.228383 0.08226352 0.854902 0.854902 0.854902
v 2.754128 -6.228383 -0.08037234 0.854902 0.854902 0.854902
v 3.190145 -6.157425 0.08302191 0.8509804 0.8509804 0.8509804
v 3.222287 -6.235049 0.001759712 0.8627451 0.8627451 0.8627451
v 2.750941 -6.147122 0.0009401527 0.8392157 0.8392157 0.8392157
v 3.158285 -6.079971 0.0016482 0.8352941 0.8352941 0.8352941
v 3.190427 -6.157425 -0.07961397 0.854902 0.854902 0.854902
v 3.222287 -6.235049 0.001759712 0.8627451 0.8627451 0.8627451
v 3.548609 -5.963775 0.08364497 0.8156863 0.8156863 0.8156863
v 3.605192 -6.028204 0.002425277 0.827451 0.827451 0.827451
v 3.492309 -5.89931 0.002228793 0.8078431 0.8078431 0.8078431
v 3.869418 -5.47712 0.002884302 0.7294118 0.7294118 0.7294118
v 3.548892 -5.963775 -0.07899088 0.8196079 0.8196079 0.8196079
v 3.605192 -6.028204 0.002425277 0.827451 0.827451 0.827451
v 3.938451 -5.522686 0.08801386 0.7294118 0.7294118 0.7294118
v 4.00636 -5.570172 0.003122566 0.7411765 0.7411765 0.7411765
v 4.356822 -4.668246 0.003731748 0.6392157 0.6392157 0.6392157
v 3.938746 -5.522686 -0.08200447 0.7333333 0.7333333 0.7333333
v 4.00636 -5.570172 0.003122566 0.7411765 0.7411765 0.7411765
v 4.356822 -4.668246 0.003731748 0.6392157 0.6392157 0.6392157
v 4.287726 -4.598302 0.08518928 0.6235294 0.6235294 0.6235294
v 4.548747 -3.195851 0.004065343 0.2588235 0.2588235 0.2588235
v 4.28801 -4.598302 -0.07796571 0.627451 0.627451 0.627451
v 4.548747 -3.195851 0.004065343 0.2588235 0.2588235 0.2588235
v 4.469463 -3.120544 0.08531193 0.2313726 0.2313726 0.2313726
v 4.505321 0.002195896 0.003989772 0.03137255 0.03137255 0.03137255
v 4.423892 2.486051E-08 0.0851663 0.03137255 0.03137255 0.03137255
v 4.357814 -0.001824723 0.003733099 0.03137255 0.03137255 0.03137255
v 4.217996 -4.524945 0.003490196 0.6117647 0.6117647 0.6117647
v 4.440173 -3.487043 -0.0777319 0.3568628 0.3568628 0.3568628
v 4.362189 -3.415309 0.003740832 0.3333333 0.3333333 0.3333333
v 4.465633 -1.991444 -0.0776279 0.04313726 0.04313726 0.04313726
v 4.505321 0.002195896 0.003989772 0.03137255 0.03137255 0.03137255
v 4.424174 -1.02253E-08 -0.07746956 0.03137255 0.03137255 0.03137255
v -0.4299961 -4.891985 -0.3676557 0.5294118 0.5294118 0.5294118
v -0.2764801 -4.873712 -0.33756 0.5215687 0.5215687 0.5215687
v -0.3003177 -4.725591 -0.3088757 0.5137255 0.5137255 0.5137255
v -0.2778282 -5.02677 -0.3061934 0.5333334 0.5333334 0.5333334
v -0.1468017 -4.707318 -0.27878 0.509804 0.509804 0.509804
v -0.1706394 -4.559196 -0.2500958 0.4941176 0.4941176 0.4941176
v -0.0202111 -4.690595 -0.1892941 0.5058824 0.5058824 0.5058824
v -0.1243122 -5.008497 -0.2760977 0.5294118 0.5294118 0.5294118
v -0.1256603 -5.161554 -0.2447311 0.5372549 0.5372549 0.5372549
v 0.00227842 -4.991773 -0.1866118 0.5254902 0.5254902 0.5254902
v 0.003626554 -4.838716 -0.2179784 0.5137255 0.5137255 0.5137255
v 0.1302171 -4.821992 -0.1284924 0.509804 0.509804 0.509804
v -0.1573079 -4.857282 -0.2264781 0.5137255 0.5137255 0.5137255
vn 0.01658306 -0.5721814 -0.8199595
vn -0.9990479 -0.03971034 -0.01806889
vn -0.8072185 -0.5902475 -0.002504454
vn -0.002956722 0.06863437 -0.9976375
vn -0.9997545 -0.004579639 0.02167943
vn 0.02630338 0.0604607 -0.997824
vn -0.9999655 0.007618278 -0.003279352
vn 0.02435912 -0.05698892 0.9980776
vn -0.005285637 -0.06632718 0.997784
vn -0.9968722 0.03941175 -0.06850173
vn -0.01073138 -0.005571263 -0.9999269
vn -0.9998325 0.01690065 0.007035113
vn -0.0005399626 -0.02835244 -0.9995978
vn 0.9999613 3.117748E-06 0.008800997
vn 0.9996955 0.004082987 0.0243358
vn -0.002956722 0.06863437 -0.9976375
vn 0.02630338 0.0604607 -0.997824
vn 0.9982932 -0.02760599 -0.05146506
vn -0.01073138 -0.005571263 -0.9999269
vn 0.9990729 -0.03666204 -0.02256757
vn -0.0005399626 -0.02835244 -0.9995978
vn 0.008047106 0.01599113 0.9998398
vn 0.9999524 -0.006571899 0.007214027
vn 0.009093308 -0.0102237 -0.9999064
vn 0.9991684 -0.02526544 -0.03200375
vn -0.003645501 -0.07020141 -0.9975262
vn -0.005434781 -0.06799241 -0.9976711
vn -0.01256342 0.01692265 0.9997779
vn -0.9998388 0.009474706 -0.01525159
vn 0.009093308 -0.0102237 -0.9999064
vn -0.003645501 -0.07020141 -0.9975262
vn 0.02300467 0.0509699 0.9984352
vn 0.9991853 -0.0334689 0.02255186
vn -0.003395173 -0.01730506 -0.9998445
vn -0.9990911 0.0410033 -0.0116469
vn -0.9991395 0.03742092 0.01788715
vn -0.005434781 -0.06799241 -0.9976711
vn -0.003395173 -0.01730506 -0.9998445
vn -0.00530803 0.06264403 0.9980218
vn 0.9998677 -0.01626058 0.0005691978
vn 0.001060634 -0.03174896 -0.9994953
vn -0.9998205 0.01891661 0.001059274
vn -0.9998743 0.009935006 -0.01235892
vn 0.001060634 -0.03174896 -0.9994953
vn -0.003791687 0.01610399 0.9998631
vn 0.9998847 -0.01085366 -0.01062441
vn 0.002300009 -0.02285594 -0.9997361
vn 0.002180163 0.04699242 0.9988928
vn -0.9994653 0.02794088 0.01698558
vn 0.002300009 -0.02285594 -0.9997361
vn -0.001724221 0.01094429 0.9999386
vn -0.9997745 -0.00526079 0.02057359
vn -0.004647007 0.02122707 -0.9997639
vn 0.9997393 0.006690703 0.02182901
vn 0.9999745 -0.001358259 0.007015731
vn -0.004647007 0.02122707 -0.9997639
vn 0.01658306 -0.5721814 -0.8199595
vn -0.9990479 -0.03971034 -0.01806889
vn 0.01658306 -0.5721814 -0.8199595
vn -0.005148806 -0.04238738 0.999088
vn 0.009415218 -0.5883048 0.8085845
vn -0.8072185 -0.5902475 -0.002504454
vn 0.819377 -0.5732326 -0.005075889
vn 0.2440081 0.9666684 -0.07753918
vn 0.2440006 0.9666684 -0.07756265
vn 0.1277005 0.9835578 -0.1276978
vn 0.07754423 0.9666684 -0.2440064
vn 0.4088368 0.8991186 0.1563274
vn 0.3338333 0.9416224 0.04361938
vn 0.4057965 0.895238 -0.1840596
vn 0.4656784 0.8726102 0.1472925
vn 0.5854264 0.790498 -0.1799686
vn 0.6448568 0.4873713 -0.5887522
vn 0.8224227 0.5618672 0.08902886
vn 0.4198709 0.533292 0.734376
vn 0.6887855 0.7241769 0.03380031
vn 0.5748066 0.4353929 0.6928422
vn 0.6708144 0.3477973 0.6550153
vn 0.3428378 0.4463859 -0.8265603
vn 0.5287511 0.8481818 0.03178084
vn 0.7594615 0.5319461 0.3745018
vn 0.5585747 0.4375846 0.7046375
vn 0.3096797 0.7191671 -0.6220106
vn 0.6887758 0.7241837 0.03385088
vn 0.1312147 0.3081213 -0.9422547
vn 0.4527366 0.271987 0.8491482
vn 0.6738794 0.4246317 0.6046275
vn 0.8131732 0.5656905 0.1369075
vn 0.1812924 0.1624309 0.9699223
vn 0.4494697 0.1530497 -0.8800868
vn 0.5803185 0.3129404 -0.7518636
vn 0.7735124 0.6293312 -0.07497241
vn 0.1440613 0.2169193 0.9655011
vn 0.3887718 0.1730379 0.9049389
vn 0.8478307 0.3998349 -0.3483032
vn 0.8095714 0.5622768 -0.1686383
vn 0.2755774 0.3059997 0.9112745
vn 0.4794546 0.2635978 0.8370421
vn 0.7089227 0.3585258 -0.6073615
vn 0.3358035 0.2386567 0.9111965
vn 0.1189636 0.09133964 0.9886884
vn 0.3720265 0.09344127 -0.9235069
vn 0.820189 0.2503752 -0.5143951
vn 0.2296984 0.1448264 0.9624261
vn 0.5342876 0.114538 -0.8375069
vn 0.2321676 0.02811193 0.9722695
vn 0.02983832 0.07850104 0.9964674
vn 0.09712129 0.09029365 0.9911683
vn -0.09478864 0.02608645 0.9951556
vn 0.09073098 -0.01547442 0.9957552
vn 0.3796623 0.06893194 -0.9225535
vn 0.1145325 0.08046874 -0.9901551
vn -0.04868729 0.02331923 0.9985418
vn 0.139707 -0.0270468 0.9898235
vn 0.2931616 0.02996212 -0.9555933
vn 0.01228146 0.07962336 -0.9967494
vn 0.1548299 0.02668855 0.9875806
vn 0.01271151 0.007920504 0.9998878
vn -0.09929461 0.04736142 -0.9939303
vn -0.01832519 0.07760644 -0.9968156
vn 0.09054089 0.008043647 -0.9958603
vn -0.07815585 -0.02655223 0.9965875
vn -0.1855515 0.02749208 0.9822499
vn -0.2308125 0.1437331 -0.9623234
vn 0.01274395 0.03432384 -0.9993296
vn -0.1550785 -0.01591089 0.987774
vn -0.3947157 0.07334101 0.9158715
vn -0.2220764 0.08066303 -0.971687
vn -0.1417209 -0.01585898 0.9897797
vn -0.3020817 -0.07538626 0.9502966
vn -0.295951 0.009251028 -0.9551584
vn -0.220174 0.1062913 0.9696523
vn -0.2532915 0.04657665 -0.9662681
vn -0.2309584 0.02479404 -0.9726477
vn -0.1567836 0.05794081 0.9859319
vn -0.2817834 0.09112946 0.9551406
vn -0.3970691 0.02887416 -0.9173344
vn -0.2826936 -0.02949428 -0.9587567
vn -0.09408871 0.02360067 0.995284
vn -0.3005733 0.1554331 -0.9410081
vn -0.2608999 0.05939051 0.9635373
vn -0.2309385 0.02481583 -0.9726518
vn -0.1644417 0.07734886 -0.9833494
vn -0.3963654 0.174646 -0.9013286
vn -0.3610691 0.09449375 0.9277393
vn -0.3789226 0.03183034 0.9248808
vn -0.2254127 0.08610792 -0.9704507
vn -0.2854944 0.3046949 -0.908655
vn -0.9367162 0.01034886 -0.3499367
vn -0.2086013 0.06266537 0.9759911
vn -0.2126224 0.1472228 0.9659799
vn 0.2719499 0.3041459 -0.9129834
vn 0.4474189 0.007334829 0.8942944
vn -0.2652149 0.114099 -0.9574144
vn -0.4466166 0.228146 -0.8651491
vn 0.2466458 0.2050643 -0.9471613
vn -0.3878075 0.1751593 0.9049445
vn -0.01604229 0.06742659 0.9975953
vn 0.2545461 0.0328754 -0.9665017
vn 0.8365443 -0.005491168 -0.5478718
vn -0.9382423 -0.005263775 0.345939
vn 0.5339842 0.0230988 -0.8451789
vn 0.7399814 0.1487948 -0.6559632
vn 0.609258 -0.005652785 -0.7929519
vn -0.08090917 -0.005362332 -0.9967071
vn 0.3939039 0.06333791 -0.9169667
vn 0.8364431 -0.005415201 0.548027
vn 0.8323237 0.01012087 -0.5541974
vn 0.3449754 -0.005242229 -0.9385971
vn 0.06793959 0.1617084 -0.9844972
vn 0.4634328 -0.005203575 0.8861168
vn 0.9438913 0.2692124 0.1912952
vn -0.3879783 0.2630394 0.8833364
vn 0.05395716 0.205048 -0.9772635
vn -0.3449207 -0.005151242 -0.9386177
vn -0.07991882 -0.005125373 -0.9967881
vn 0.8364845 -0.005416453 0.5479639
vn -0.5482439 -0.005470366 -0.8363006
vn -0.6096545 -0.005666614 -0.792647
vn -0.9733267 -0.03701389 -0.2264179
vn -0.3054152 -0.04037789 -0.9513628
vn -0.9708591 -0.04974801 0.2344308
vn -0.8824446 -0.05051485 0.4676962
vn -0.9711425 -0.0512183 0.2329355
vn -0.4712682 -0.08320329 0.8780566
vn -0.4764267 -0.1076483 -0.8725992
vn -0.9026472 -0.06190462 -0.4259061
vn -0.9737692 -0.05084428 -0.2217845
vn -0.535095 -0.1127397 -0.8372354
vn -0.8763888 -0.1030958 -0.4704401
vn -0.6973212 -0.0924525 0.7107712
vn -0.1338948 0.9819212 -0.133802
vn 0.6917546 0.4841141 0.5358255
vn 0.8366868 -0.005477637 -0.5476542
vn -0.5958796 0.538453 -0.5958154
vn 0.1276697 0.9835659 -0.127666
vn -0.3247819 0.1754175 0.929379
vn -0.937303 -0.005215906 -0.3484764
vn 0.320475 0.3679182 -0.8728872
vn -0.13384 0.9819224 -0.1338484
vn 0.4520248 0.3972975 -0.7986416
vn -0.9743035 -0.005185277 -0.2251798
vn -0.5958126 0.5384893 0.5958495
vn -0.2417805 0.8149391 -0.5267035
vn -0.9374373 -0.005293906 0.348114
vn 0.7941217 0.05597621 0.6051755
vn 0.8366516 -0.005405515 -0.5477087
vn -0.6236811 0.7391772 -0.2542421
vn 0.9967784 -0.005351244 -0.0800251
vn 0.5480608 -0.005501717 -0.8364205
vn -0.9742183 -0.005352646 -0.2255438
vn -0.241774 0.8149425 -0.5267011
vn -0.9967729 -0.00547415 -0.08008639
vn -0.9379058 -0.005196631 -0.3468511
vn 0.9743154 -0.005192071 -0.2251279
vn -0.8365727 -0.005457848 -0.5478287
vn -0.5480866 -0.005461008 0.8364038
vn -0.5482632 -0.005497337 -0.8362878
vn -0.08061376 -0.005375057 -0.9967309
vn -0.2276324 -0.005399317 -0.9737322
vn -0.546369 0.008410453 -0.8375023
vn -0.3441206 0.007185042 -0.938898
vn 0.5414876 0.003737271 0.8407005
vn -0.9737916 -0.005426408 0.2273775
vn -0.9386859 0.006959378 0.3447033
vn -0.2215851 0.006713256 -0.9751179
vn 0.3939287 0.0632759 -0.9169604
vn -0.9382457 -0.005223035 -0.3459302
vn -0.3440489 -0.001424879 -0.9389506
vn -0.5451908 0.008451937 -0.8382693
vn -0.08133718 -0.005060762 0.9966738
vn -0.7920987 -0.005652726 -0.6103668
vn -0.5475447 0.005345375 -0.8367594
vn -0.8335539 0.01015112 -0.552345
vn 0.3445329 -0.004952937 0.9387611
vn -0.8361307 -0.0007652342 -0.5485297
vn -0.2307118 0.1282628 -0.9645314
vn -0.5406906 0.008501559 -0.8411786
vn -0.973684 0.01087168 -0.227643
vn -0.2278281 -0.001727775 -0.9736999
vn -0.9371333 0.0104607 0.3488148
vn -0.8833885 0.01000103 -0.4685346
vn -0.3872401 0.2087161 -0.8980439
vn -0.8351591 0.01046354 0.5499088
vn -0.4766176 0.1096265 -0.8722486
vn -0.8309754 0.009617358 -0.5562261
vn -0.9966885 0.01111135 0.0805513
vn -0.8345534 0.01023369 -0.5508322
vn -0.8320572 0.01024202 0.5545953
vn -0.5143375 -0.05316415 0.8559384
vn -0.4639238 0.1057852 -0.8795363
vn -0.5451427 0.00845176 -0.8383007
vn -0.9359998 0.010364 -0.351848
vn -0.9733305 -0.03698254 -0.2264068
vn -0.09395472 0.05524591 0.9940425
vn -0.9370914 0.01030087 -0.3489322
vn -0.4057029 0.08770999 -0.9097869
vn -0.9710338 -0.05315714 -0.2329543
vn -0.9967349 0.01107576 0.07998022
vn -0.9736903 0.01091087 -0.2276141
vn -0.6023524 0.009126902 -0.7981781
vn -0.2094249 -0.05510926 -0.9762706
vn -0.09392055 0.05520794 0.9940478
vn -0.8836647 0.01003559 -0.4680129
vn -0.3534376 0.02759764 -0.9350509
vn -0.4380124 -0.05380416 0.8973573
vn -0.7877472 -0.006922424 0.6159598
vn -0.9356491 0.01029014 -0.3527816
vn -0.9950742 -0.05247689 -0.08410435
vn -0.07736735 -0.05043086 -0.9957264
vn -0.2225184 0.08915287 0.9708436
vn -0.5132954 -0.05426844 -0.8564945
vn -0.5181 -0.05352706 0.8536435
vn -0.9772596 -0.05787715 0.2039946
vn -0.05960508 -0.05134052 -0.9969009
vn -0.3419878 -0.008843213 -0.9396628
vn -0.8896769 -0.05548066 -0.4532075
vn -0.9942207 -0.07589373 0.0759294
vn -0.408948 -0.02374604 0.9122487
vn -0.8920978 -0.05445993 0.4485484
vn 0.1705185 -0.09350747 0.9809076
vn -0.8563687 -0.1072144 -0.5051116
vn -0.7673088 -0.07829785 -0.6364799
vn -0.9952336 -0.05239942 0.08224656
vn -0.3874323 -0.06252284 -0.9197756
vn -0.9602908 -0.09872189 0.2609513
vn -0.06592046 -0.05347747 0.9963908
vn -0.5399024 -0.05318323 -0.8400459
vn -0.9896375 -0.1028584 -0.100189
vn -0.9555847 -0.09931406 0.2774791
vn -0.431019 -0.1146792 -0.8950259
vn -0.7919439 -0.09924104 -0.602475
vn -0.5864707 -0.1028259 -0.8034171
vn -0.5793569 -0.1430306 -0.8024262
vn 0.2364509 -0.1203416 0.9641623
vn -0.1991646 -0.05566343 -0.9783839
vn -0.07177548 -0.09941888 -0.9924536
vn -0.874306 -0.1068052 0.4734783
vn -0.138691 -0.09437775 0.9858284
vn -0.9602924 -0.09869941 0.260954
vn 0.1247761 -0.1053333 0.9865779
vn -0.7255476 -0.6750129 -0.1339335
vn -0.5945459 -0.1030328 -0.7974331
vn -0.9989735 -0.04526543 -0.001734015
vn -0.02263364 -0.001469661 0.9997427
vn -0.02627773 0.0113481 0.9995902
vn -0.9940681 -0.1087461 -0.001725765
vn 0.997122 0.07579354 0.001730685
vn 0.9990212 0.04420066 0.001733552
vn -0.01916329 -0.001469938 -0.9998153
vn -0.04605619 0.01126561 0.9988753
vn -0.969725 -0.2441937 -0.001683453
vn 0.9815231 0.1913361 0.001703909
vn -0.02280713 0.0113478 -0.9996755
vn -0.9989735 -0.04526543 -0.001734015
vn -0.9940681 -0.1087461 -0.001725765
vn -0.04258753 0.01126456 -0.9990293
vn -0.969725 -0.2441937 -0.001683453
vn -0.06377368 0.001745236 0.9979628
vn -0.9006939 -0.4344516 -0.001563794
vn 0.9282668 0.3719116 0.001611409
vn 0.7633986 0.6459264 0.001325688
vn -0.06030763 0.001743935 -0.9981783
vn -0.9006939 -0.4344516 -0.001563794
vn -0.05906275 -0.04790739 0.997104
vn -0.7592399 -0.6508096 -0.001318635
vn -0.5047244 -0.8632801 -0.0008766876
vn -0.05559791 -0.04790869 -0.9973032
vn -0.7592399 -0.6508096 -0.001318635
vn -0.5047244 -0.8632801 -0.0008766876
vn -0.03432164 -0.07059191 0.9969146
vn -0.2144136 -0.9767429 -0.000371852
vn -0.03085647 -0.07059338 -0.9970278
vn -0.2144136 -0.9767429 -0.000371852
vn -0.008902563 -0.05952045 0.9981874
vn 0.0414355 -0.9991412 7.279234E-05
vn 0.4926202 0.870244 0.0008554053
vn -0.005433158 -0.05952205 -0.9982122
vn 0.0414355 -0.9991412 7.279234E-05
vn 0.2050431 0.9787529 0.0003554877
vn 0.0007345108 -0.05332321 0.998577
vn 0.004205083 -0.05332495 -0.9985684
vn 0.01698347 -0.07163003 0.9972867
vn 0.3257492 -0.945456 0.0005668568
vn -0.04182525 0.9991249 -7.369935E-05
vn -0.3176979 0.9481918 -0.0005528329
vn 0.02045084 -0.07163099 -0.9972215
vn 0.3257492 -0.945456 0.0005668568
vn 0.04345054 -0.06352864 0.9970337
vn 0.6254989 -0.7802243 0.001087533
vn -0.6200177 0.7845871 -0.00107773
vn -0.8584328 0.5129238 -0.001492529
vn 0.04691672 -0.06352928 -0.9968766
vn 0.6254989 -0.7802243 0.001087533
vn 0.06759624 -0.03870958 0.9969615
vn 0.8521538 -0.5232893 0.001481404
vn 0.9617169 -0.2737506 0.01269716
vn 0.07106195 -0.03871026 -0.9967205
vn 0.8521538 -0.5232893 0.001481404
vn 0.9617169 -0.2737506 0.01269716
vn 0.05076675 0.01604591 0.9985816
vn 0.9974167 -0.05693327 -0.04380126
vn 0.07947383 0.01202775 -0.9967644
vn 0.9974167 -0.05693327 -0.04380126
vn 0.08641709 -0.009383811 0.9962149
vn 0.9995483 0.01526547 0.02588888
vn -0.0414516 -0.0008438564 0.9991401
vn -0.9998509 -0.01707027 -0.002592998
vn -0.9775544 0.2097978 -0.0192963
vn 0.0589769 -0.01963707 -0.9980661
vn -0.9956842 0.0820062 -0.04345086
vn 0.07831799 0.009749768 -0.9968808
vn 0.9995483 0.01526547 0.02588888
vn -0.01658985 -0.002881048 -0.9998583
vn -0.6052297 0.009190501 -0.7959979
vn -0.4585799 0.007600821 -0.8886206
vn -0.5428494 0.008474529 -0.8397874
vn -0.4576221 0.007677839 -0.8891137
vn -0.2196644 0.006694912 -0.9755525
vn -0.2215925 0.006732584 -0.9751161
vn 0.2245063 0.008109243 -0.9744389
vn -0.2157533 0.006726264 -0.9764247
vn -0.2157714 0.006728336 -0.9764207
vn 0.2059613 0.01341802 -0.9784681
vn 0.2059765 0.01340796 -0.9784651
vn 0.08040542 0.05743254 -0.9951063
vn -0.2177284 0.00676215 -0.975986
vt 0.1983386 0.7923007
vt 0.1954337 0.7994915
vt 0.1970724 0.7938124
vt 0.1881941 0.9974645
vt 0.1932843 0.9974896
vt 0.1882068 0.9719234
vt 0.1932966 0.9728158
vt 0.198386 0.9695894
vt 0.1983732 0.99751
vt 0.1933183 0.9479001
vt 0.1882437 0.9428
vt 0.1933323 0.927581
vt 0.1882598 0.9234123
vt 0.2034721 0.9787929
vt 0.2034623 0.9974865
vt 0.2085487 0.9974667
vt 0.208559 0.9719235
vt 0.2034793 0.9596787
vt 0.2085495 0.9428009
vt 0.2034805 0.9389516
vt 0.208556 0.9234124
vt 0.1983992 0.9386176
vt 0.203492 0.9197176
vt 0.2085719 0.9114029
vt 0.2035019 0.9032495
vt 0.2085535 0.9020827
vt 0.2083593 0.8941865
vt 0.1984095 0.9191614
vt 0.1933237 0.910194
vt 0.1882553 0.9114038
vt 0.1882709 0.9020853
vt 0.1984202 0.9035197
vt 0.2033486 0.8937376
vt 0.2084033 0.883994
vt 0.1933186 0.9012074
vt 0.1934299 0.8943036
vt 0.1884512 0.8941997
vt 0.1882876 0.8840072
vt 0.1983824 0.8940232
vt 0.2033629 0.8828275
vt 0.2083018 0.8642094
vt 0.193321 0.8839629
vt 0.1932315 0.8642066
vt 0.1882081 0.8642194
vt 0.1983331 0.8827841
vt 0.2032668 0.8627408
vt 0.2077965 0.8428893
vt 0.1982477 0.8626996
vt 0.1933827 0.841797
vt 0.1885469 0.842898
vt 0.1981594 0.839967
vt 0.194783 0.8132827
vt 0.1920916 0.8074307
vt 0.2029409 0.8414081
vt 0.2011723 0.8104085
vt 0.2039459 0.8074247
vt 0.1983386 0.7923007
vt 0.1954337 0.7994915
vt 0.1983386 0.7923007
vt 0.1980173 0.8066477
vt 0.1978808 0.7939349
vt 0.1970724 0.7938124
vt 0.1984459 0.7938446
vt 0.2045281 0.7978303
vt 0.1962968 0.7978303
vt 0.1880656 0.7978303
vt 0.2127593 0.7978303
vt 0.1962968 0.7978303
vt 0.2045281 0.7978303
vt 0.2127593 0.7978303
vt 0.1880656 0.7978303
vt 0.2343438 0.7837718
vt 0.3270256 0.7379127
vt 0.3673113 0.8190135
vt 0.2744597 0.8628029
vt 0.2343438 0.7837718
vt 0.3270256 0.7379127
vt 0.3673113 0.8190135
vt 0.2744597 0.8628029
vt 0.2343438 0.7837718
vt 0.3270256 0.7379127
vt 0.3673113 0.8190135
vt 0.2744597 0.8628029
vt 0.2343438 0.7837718
vt 0.3270256 0.7379127
vt 0.3673113 0.8190135
vt 0.2744597 0.8628029
vt 0.2343438 0.7837718
vt 0.3270256 0.7379127
vt 0.3673113 0.8190135
vt 0.2744597 0.8628029
vt 0.2343438 0.7837718
vt 0.3270256 0.7379127
vt 0.3673113 0.8190135
vt 0.2744597 0.8628029
vt 0.2343438 0.7837718
vt 0.3270256 0.7379127
vt 0.3673113 0.8190135
vt 0.2744597 0.8628029
vt 0.2343438 0.7837718
vt 0.3270256 0.7379127
vt 0.3673113 0.8190135
vt 0.2744597 0.8628029
vt 0.2343438 0.7837718
vt 0.3270256 0.7379127
vt 0.3673113 0.8190135
vt 0.2744597 0.8628029
vt 0.2343438 0.7837718
vt 0.3270256 0.7379127
vt 0.3673113 0.8190135
vt 0.2744597 0.8628029
vt 0.2343438 0.7837718
vt 0.3270256 0.7379127
vt 0.3673113 0.8190135
vt 0.2744597 0.8628029
vt 0.2343438 0.7837718
vt 0.3270256 0.7379127
vt 0.3673113 0.8190135
vt 0.2744597 0.8628029
vt 0.2343438 0.7837718
vt 0.3270256 0.7379127
vt 0.3673113 0.8190135
vt 0.2744597 0.8628029
vt 0.2343438 0.7837718
vt 0.3270256 0.7379127
vt 0.3673113 0.8190135
vt 0.2744597 0.8628029
vt 0.2343438 0.7837718
vt 0.3270256 0.7379127
vt 0.3673113 0.8190135
vt 0.2744597 0.8628029
vt 0.2343438 0.7837718
vt 0.3270256 0.7379127
vt 0.3673113 0.8190135
vt 0.2744597 0.8628029
vt 0.2343438 0.7837718
vt 0.3270256 0.7379127
vt 0.3673113 0.8190135
vt 0.2744597 0.8628029
vt 0.2343438 0.7837718
vt 0.3270256 0.7379127
vt 0.3673113 0.8190135
vt 0.2744597 0.8628029
vt 0.2343438 0.7837718
vt 0.3270256 0.7379127
vt 0.3673113 0.8190135
vt 0.2744597 0.8628029
vt 0.2343438 0.7837718
vt 0.3270256 0.7379127
vt 0.3673113 0.8190135
vt 0.2744597 0.8628029
vt 0.2343438 0.7837718
vt 0.3270256 0.7379127
vt 0.3673113 0.8190135
vt 0.2744597 0.8628029
vt 0.2343438 0.7837718
vt 0.3270256 0.7379127
vt 0.3673113 0.8190135
vt 0.2744597 0.8628029
vt 0.2343438 0.7837718
vt 0.3270256 0.7379127
vt 0.3673113 0.8190135
vt 0.2744597 0.8628029
vt 0.2343438 0.7837718
vt 0.3270256 0.7379127
vt 0.3673113 0.8190135
vt 0.2744597 0.8628029
vt 0.2343438 0.7837718
vt 0.3270256 0.7379127
vt 0.3673113 0.8190135
vt 0.2744597 0.8628029
vt 0.2343438 0.7837718
vt 0.3270256 0.7379127
vt 0.3673113 0.8190135
vt 0.2744597 0.8628029
vt 0.2343438 0.7837718
vt 0.3270256 0.7379127
vt 0.3673113 0.8190135
vt 0.2744597 0.8628029
vt 0.2343438 0.7837718
vt 0.3270256 0.7379127
vt 0.3673113 0.8190135
vt 0.2744597 0.8628029
vt 0.2343438 0.7837718
vt 0.3270256 0.7379127
vt 0.3673113 0.8190135
vt 0.2744597 0.8628029
vt 0.2343438 0.7837718
vt 0.3270256 0.7379127
vt 0.3673113 0.8190135
vt 0.2744597 0.8628029
vt 0.2343438 0.7837718
vt 0.3270256 0.7379127
vt 0.3673113 0.8190135
vt 0.2744597 0.8628029
vt 0.2343438 0.7837718
vt 0.3270256 0.7379127
vt 0.3673113 0.8190135
vt 0.2744597 0.8628029
vt 0.2343438 0.7837718
vt 0.3270256 0.7379127
vt 0.3673113 0.8190135
vt 0.2744597 0.8628029
vt 0.2343438 0.7837718
vt 0.3270256 0.7379127
vt 0.3673113 0.8190135
vt 0.2744597 0.8628029
vt 0.2343438 0.7837718
vt 0.3270256 0.7379127
vt 0.3673113 0.8190135
vt 0.2744597 0.8628029
vt 0.2343438 0.7837718
vt 0.3270256 0.7379127
vt 0.3673113 0.8190135
vt 0.2744597 0.8628029
vt 0.2343438 0.7837718
vt 0.3270256 0.7379127
vt 0.3673113 0.8190135
vt 0.2744597 0.8628029
vt 0.2343438 0.7837718
vt 0.3270256 0.7379127
vt 0.3673113 0.8190135
vt 0.2744597 0.8628029
vt 0.2343438 0.7837718
vt 0.3270256 0.7379127
vt 0.3673113 0.8190135
vt 0.2744597 0.8628029
vt 0.2343438 0.7837718
vt 0.3270256 0.7379127
vt 0.3673113 0.8190135
vt 0.2744597 0.8628029
vt 0.2343438 0.7837718
vt 0.3270256 0.7379127
vt 0.3673113 0.8190135
vt 0.2744597 0.8628029
vt 0.2343438 0.7837718
vt 0.3270256 0.7379127
vt 0.3673113 0.8190135
vt 0.2744597 0.8628029
vt 0.2343438 0.7837718
vt 0.3270256 0.7379127
vt 0.3673113 0.8190135
vt 0.2744597 0.8628029
vt 0.2343438 0.7837718
vt 0.3270256 0.7379127
vt 0.3673113 0.8190135
vt 0.2744597 0.8628029
vt 0.2343438 0.7837718
vt 0.3270256 0.7379127
vt 0.3673113 0.8190135
vt 0.2744597 0.8628029
vt 0.2343438 0.7837718
vt 0.3270256 0.7379127
vt 0.3673113 0.8190135
vt 0.2744597 0.8628029
vt 0.2343438 0.7837718
vt 0.3270256 0.7379127
vt 0.3673113 0.8190135
vt 0.2744597 0.8628029
vt 0.2343438 0.7837718
vt 0.3270256 0.7379127
vt 0.3673113 0.8190135
vt 0.2744597 0.8628029
vt 0.2343438 0.7837718
vt 0.3270256 0.7379127
vt 0.3673113 0.8190135
vt 0.2744597 0.8628029
vt 0.2343438 0.7837718
vt 0.3270256 0.7379127
vt 0.3673113 0.8190135
vt 0.2744597 0.8628029
vt 0.2343438 0.7837718
vt 0.3270256 0.7379127
vt 0.3673113 0.8190135
vt 0.2744597 0.8628029
vt 0.2343438 0.7837718
vt 0.3270256 0.7379127
vt 0.3673113 0.8190135
vt 0.2744597 0.8628029
vt 0.2343438 0.7837718
vt 0.3270256 0.7379127
vt 0.3673113 0.8190135
vt 0.2744597 0.8628029
vt 0.2343438 0.7837718
vt 0.3270256 0.7379127
vt 0.3673113 0.8190135
vt 0.2744597 0.8628029
vt 0.2343438 0.7837718
vt 0.3270256 0.7379127
vt 0.3673113 0.8190135
vt 0.2744597 0.8628029
vt 0.2343438 0.7837718
vt 0.3270256 0.7379127
vt 0.3673113 0.8190135
vt 0.2744597 0.8628029
vt 0.2343438 0.7837718
vt 0.3270256 0.7379127
vt 0.3673113 0.8190135
vt 0.2744597 0.8628029
vt 0.2343438 0.7837718
vt 0.3270256 0.7379127
vt 0.3673113 0.8190135
vt 0.2744597 0.8628029
vt 0.2127595 0.7978303
vt 0.2127595 0.8471819
vt 0.2089793 0.8471819
vt 0.2089024 0.7978303
vt 0.209071 0.8965334
vt 0.2127595 0.8965334
vt 0.2127595 0.9458851
vt 0.2070132 0.8471819
vt 0.2069232 0.7978303
vt 0.2071107 0.8965334
vt 0.2089793 0.9458851
vt 0.2127595 0.9952366
vt 0.2089024 0.9952366
vt 0.2070132 0.9458851
vt 0.2069232 0.9952366
vt 0.2049775 0.8471819
vt 0.2048844 0.7978303
vt 0.2050757 0.8965334
vt 0.2028546 0.8965334
vt 0.2049775 0.9458851
vt 0.2048844 0.9952366
vt 0.202848 0.8471819
vt 0.202835 0.7978303
vt 0.2014413 0.7978303
vt 0.202848 0.9458851
vt 0.202835 0.9952366
vt 0.2014413 0.9952366
vt 0.2014413 0.8471819
vt 0.2004125 0.7978303
vt 0.2014413 0.9458851
vt 0.2004125 0.9952366
vt 0.2004125 0.8471819
vt 0.1993835 0.7978303
vt 0.2014413 0.8965334
vt 0.2004125 0.9458851
vt 0.1993835 0.9952366
vt 0.2004125 0.8965334
vt 0.1993835 0.8471819
vt 0.1993835 0.9458851
vt 0.1983546 0.8471819
vt 0.1983546 0.7978303
vt 0.1993835 0.8965334
vt 0.1983546 0.8965334
vt 0.1983546 0.9458851
vt 0.1983546 0.9952366
vt 0.1973257 0.8471819
vt 0.1973257 0.7978303
vt 0.1973257 0.8965334
vt 0.1959078 0.8965334
vt 0.1973257 0.9458851
vt 0.1973257 0.9952366
vt 0.1959127 0.8471819
vt 0.1959228 0.7978303
vt 0.1939099 0.7978303
vt 0.1959127 0.9458851
vt 0.1959228 0.9952366
vt 0.1939099 0.9952366
vt 0.1938234 0.8471819
vt 0.1914349 0.7978303
vt 0.1938234 0.9458851
vt 0.1914349 0.9952366
vt 0.1913469 0.8471819
vt 0.1880656 0.7978303
vt 0.1880656 0.8471819
vt 0.1880655 0.8965334
vt 0.1937286 0.8965334
vt 0.1918255 0.9458851
vt 0.1917351 0.8965334
vt 0.1898746 0.9458851
vt 0.1880656 0.9952366
vt 0.1880656 0.9458851
vt 0.571822 0.9419652
vt 0.5644003 0.9348297
vt 0.5571921 0.9417181
vt 0.5717815 0.9277761
vt 0.5497705 0.9345826
vt 0.5425622 0.941471
vt 0.5424264 0.9275218
vt 0.5643598 0.9206406
vt 0.571741 0.913587
vt 0.5570158 0.9135798
vt 0.5496346 0.9206334
vt 0.5422906 0.9135725
vt 0.5569786 0.9276942
usemtl MV_IvyCoastalVines
f 1/1/1 3/3/3 2/2/2
f 4/4/4 6/6/6 5/5/5
f 6/6/6 7/7/7 5/5/5
f 8/8/8 5/5/5 7/7/7
f 8/8/8 9/9/9 5/5/5
f 6/6/6 10/10/10 7/7/7
f 7/7/7 10/10/10 8/8/8
f 11/11/11 10/10/10 6/6/6
f 11/11/11 12/12/12 10/10/10
f 13/13/13 12/12/12 11/11/11
f 8/8/8 14/14/14 9/9/9
f 9/9/9 14/14/14 15/15/15
f 16/16/16 15/15/15 14/14/14
f 16/16/16 14/14/14 17/17/17
f 18/18/18 17/17/17 14/14/14
f 8/8/8 18/18/18 14/14/14
f 18/18/18 19/19/19 17/17/17
f 20/20/20 19/19/19 18/18/18
f 20/20/20 18/18/18 8/8/8
f 20/20/20 21/21/21 19/19/19
f 10/10/10 22/22/22 8/8/8
f 20/20/20 8/8/8 22/22/22
f 10/10/10 12/12/12 22/22/22
f 23/23/23 21/21/21 20/20/20
f 23/23/23 20/20/20 22/22/22
f 23/23/23 24/24/24 21/21/21
f 25/25/25 24/24/24 23/23/23
f 25/25/25 26/26/26 24/24/24
f 27/27/27 26/26/26 25/25/25
f 23/23/23 22/22/22 28/28/28
f 12/12/12 28/28/28 22/22/22
f 25/25/25 23/23/23 28/28/28
f 12/12/12 29/29/29 28/28/28
f 13/13/13 29/29/29 12/12/12
f 30/30/30 29/29/29 13/13/13
f 31/31/31 29/29/29 30/30/30
f 29/29/29 32/32/32 28/28/28
f 25/25/25 28/28/28 32/32/32
f 27/27/27 25/25/25 33/33/33
f 34/34/34 27/27/27 33/33/33
f 31/31/31 35/35/35 29/29/29
f 29/29/29 35/35/35 32/32/32
f 31/31/31 36/36/36 35/35/35
f 32/32/32 35/35/35 36/36/36
f 37/37/37 36/36/36 31/31/31
f 36/36/36 37/37/37 38/38/38
f 32/32/32 39/39/39 25/25/25
f 39/39/39 33/33/33 25/25/25
f 32/32/32 36/36/36 39/39/39
f 34/34/34 33/33/33 40/40/40
f 40/40/40 33/33/33 39/39/39
f 41/41/41 34/34/34 40/40/40
f 36/36/36 38/38/38 42/42/42
f 39/39/39 36/36/36 42/42/42
f 43/43/43 42/42/42 38/38/38
f 43/43/43 38/38/38 44/44/44
f 39/39/39 42/42/42 45/45/45
f 40/40/40 39/39/39 45/45/45
f 45/45/45 42/42/42 43/43/43
f 41/41/41 40/40/40 46/46/46
f 47/47/47 41/41/41 46/46/46
f 40/40/40 45/45/45 48/48/48
f 45/45/45 43/43/43 48/48/48
f 40/40/40 48/48/48 46/46/46
f 49/49/49 43/43/43 44/44/44
f 48/48/48 43/43/43 49/49/49
f 49/49/49 44/44/44 50/50/50
f 46/46/46 48/48/48 51/51/51
f 48/48/48 49/49/49 51/51/51
f 50/50/50 52/52/52 49/49/49
f 52/52/52 51/51/51 49/49/49
f 50/50/50 53/53/53 52/52/52
f 47/47/47 46/46/46 54/54/54
f 46/46/46 51/51/51 54/54/54
f 54/54/54 55/55/55 47/47/47
f 51/51/51 55/55/55 54/54/54
f 55/55/55 56/56/56 47/47/47
f 57/57/57 56/56/56 55/55/55
f 53/53/53 58/58/58 52/52/52
f 53/53/53 59/59/59 58/58/58
f 52/52/52 60/60/60 51/51/51
f 58/58/58 60/60/60 52/52/52
f 60/60/60 55/55/55 51/51/51
f 58/58/58 61/61/61 60/60/60
f 55/55/55 60/60/60 61/61/61
f 62/62/62 61/61/61 58/58/58
f 57/57/57 61/61/61 62/62/62
f 55/55/55 61/61/61 63/63/63
f 57/57/57 55/55/55 63/63/63
f 57/57/57 63/63/63 61/61/61
f 64/64/64 66/66/66 65/65/65
f 64/64/64 67/67/67 66/66/66
f 68/68/68 70/70/70 69/69/69
f 71/71/71 70/70/70 68/68/68
f 72/72/72 74/74/74 73/73/73
f 74/74/74 72/72/72 75/75/75
f 76/76/76 78/78/78 77/77/77
f 78/78/78 76/76/76 79/79/79
f 80/80/80 82/82/82 81/81/81
f 82/82/82 80/80/80 83/83/83
f 84/84/84 86/86/86 85/85/85
f 86/86/86 84/84/84 87/87/87
f 88/88/88 90/90/90 89/89/89
f 90/90/90 88/88/88 91/91/91
f 92/92/92 94/94/94 93/93/93
f 94/94/94 92/92/92 95/95/95
f 96/96/96 98/98/98 97/97/97
f 98/98/98 96/96/96 99/99/99
f 100/100/100 102/102/102 101/101/101
f 102/102/102 100/100/100 103/103/103
f 104/104/104 106/106/106 105/105/105
f 106/106/106 104/104/104 107/107/107
f 108/108/108 110/110/110 109/109/109
f 110/110/110 108/108/108 111/111/111
f 112/112/112 114/114/114 113/113/113
f 114/114/114 112/112/112 115/115/115
f 116/116/116 118/118/118 117/117/117
f 118/118/118 116/116/116 119/119/119
f 120/120/120 122/122/122 121/121/121
f 122/122/122 120/120/120 123/123/123
f 124/124/124 126/126/126 125/125/125
f 126/126/126 124/124/124 127/127/127
f 128/128/128 130/130/130 129/129/129
f 130/130/130 128/128/128 131/131/131
f 132/132/132 134/134/134 133/133/133
f 134/134/134 132/132/132 135/135/135
f 136/136/136 138/138/138 137/137/137
f 138/138/138 136/136/136 139/139/139
f 140/140/140 142/142/142 141/141/141
f 142/142/142 140/140/140 143/143/143
f 144/144/144 146/146/146 145/145/145
f 146/146/146 144/144/144 147/147/147
f 148/148/148 150/150/150 149/149/149
f 150/150/150 148/148/148 151/151/151
f 152/152/152 154/154/154 153/153/153
f 154/154/154 152/152/152 155/155/155
f 156/156/156 158/158/158 157/157/157
f 158/158/158 156/156/156 159/159/159
f 160/160/160 162/162/162 161/161/161
f 162/162/162 160/160/160 163/163/163
f 164/164/164 166/166/166 165/165/165
f 166/166/166 164/164/164 167/167/167
f 168/168/168 170/170/170 169/169/169
f 170/170/170 168/168/168 171/171/171
f 172/172/172 174/174/174 173/173/173
f 174/174/174 172/172/172 175/175/175
f 176/176/176 178/178/178 177/177/177
f 178/178/178 176/176/176 179/179/179
f 180/180/180 182/182/182 181/181/181
f 182/182/182 180/180/180 183/183/183
f 184/184/184 186/186/186 185/185/185
f 186/186/186 184/184/184 187/187/187
f 188/188/188 190/190/190 189/189/189
f 190/190/190 188/188/188 191/191/191
f 192/192/192 194/194/194 193/193/193
f 194/194/194 192/192/192 195/195/195
f 196/196/196 198/198/198 197/197/197
f 198/198/198 196/196/196 199/199/199
f 200/200/200 202/202/202 201/201/201
f 202/202/202 200/200/200 203/203/203
f 204/204/204 206/206/206 205/205/205
f 206/206/206 204/204/204 207/207/207
f 208/208/208 210/210/210 209/209/209
f 210/210/210 208/208/208 211/211/211
f 212/212/212 214/214/214 213/213/213
f 214/214/214 212/212/212 215/215/215
f 216/216/216 218/218/218 217/217/217
f 218/218/218 216/216/216 219/219/219
f 220/220/220 222/222/222 221/221/221
f 222/222/222 220/220/220 223/223/223
f 224/224/224 226/226/226 225/225/225
f 226/226/226 224/224/224 227/227/227
f 228/228/228 230/230/230 229/229/229
f 230/230/230 228/228/228 231/231/231
f 232/232/232 234/234/234 233/233/233
f 234/234/234 232/232/232 235/235/235
f 236/236/236 238/238/238 237/237/237
f 238/238/238 236/236/236 239/239/239
f 240/240/240 242/242/242 241/241/241
f 242/242/242 240/240/240 243/243/243
f 244/244/244 246/246/246 245/245/245
f 246/246/246 244/244/244 247/247/247
f 248/248/248 250/250/250 249/249/249
f 250/250/250 248/248/248 251/251/251
f 252/252/252 254/254/254 253/253/253
f 254/254/254 252/252/252 255/255/255
f 256/256/256 258/258/258 257/257/257
f 258/258/258 256/256/256 259/259/259
f 260/260/260 262/262/262 261/261/261
f 262/262/262 260/260/260 263/263/263
f 264/264/264 266/266/266 265/265/265
f 266/266/266 264/264/264 267/267/267
f 268/268/268 270/270/270 269/269/269
f 270/270/270 268/268/268 271/271/271
f 272/272/272 274/274/274 273/273/273
f 274/274/274 272/272/272 275/275/275
f 276/276/276 278/278/278 277/277/277
f 278/278/278 276/276/276 279/279/279
f 280/280/280 282/282/282 281/281/281
f 282/282/282 280/280/280 283/283/283
f 284/284/284 286/286/286 285/285/285
f 286/286/286 284/284/284 287/287/287
f 288/288/288 290/290/290 289/289/289
f 290/290/290 288/288/288 291/291/291
f 292/292/292 294/294/294 293/293/293
f 294/294/294 292/292/292 295/295/295
f 296/296/296 298/298/298 297/297/297
f 298/298/298 296/296/296 299/299/299
f 300/300/300 302/302/302 301/301/301
f 302/302/302 300/300/300 303/303/303
f 304/304/304 306/306/306 305/305/305
f 304/304/304 307/307/307 306/306/306
f 305/305/305 306/306/306 308/308/308
f 305/305/305 308/308/308 309/309/309
f 308/308/308 310/310/310 309/309/309
f 307/307/307 311/311/311 306/306/306
f 307/307/307 312/312/312 311/311/311
f 306/306/306 313/313/313 308/308/308
f 306/306/306 311/311/311 313/313/313
f 308/308/308 314/314/314 310/310/310
f 313/313/313 314/314/314 308/308/308
f 314/314/314 315/315/315 310/310/310
f 314/314/314 316/316/316 315/315/315
f 317/317/317 316/316/316 314/314/314
f 313/313/313 317/317/317 314/314/314
f 317/317/317 318/318/318 316/316/316
f 312/312/312 319/319/319 311/311/311
f 312/312/312 320/320/320 319/319/319
f 311/311/311 321/321/321 313/313/313
f 321/321/321 317/317/317 313/313/313
f 311/311/311 319/319/319 321/321/321
f 319/319/319 322/322/322 321/321/321
f 323/323/323 318/318/318 317/317/317
f 321/321/321 323/323/323 317/317/317
f 322/322/322 323/323/323 321/321/321
f 323/323/323 324/324/324 318/318/318
f 320/320/320 325/325/325 319/319/319
f 319/319/319 325/325/325 322/322/322
f 320/320/320 326/326/326 325/325/325
f 327/327/327 325/325/325 326/326/326
f 328/328/328 324/324/324 323/323/323
f 322/322/322 328/328/328 323/323/323
f 328/328/328 329/329/329 324/324/324
f 328/328/328 330/330/330 329/329/329
f 327/327/327 331/331/331 325/325/325
f 331/331/331 322/322/322 325/325/325
f 332/332/332 331/331/331 327/327/327
f 328/328/328 333/333/333 330/330/330
f 322/322/322 333/333/333 328/328/328
f 333/333/333 334/334/334 330/330/330
f 332/332/332 335/335/335 331/331/331
f 336/336/336 335/335/335 332/332/332
f 331/331/331 337/337/337 322/322/322
f 322/322/322 337/337/337 333/333/333
f 335/335/335 337/337/337 331/331/331
f 333/333/333 338/338/338 334/334/334
f 337/337/337 338/338/338 333/333/333
f 338/338/338 339/339/339 334/334/334
f 335/335/335 340/340/340 337/337/337
f 337/337/337 340/340/340 338/338/338
f 336/336/336 341/341/341 335/335/335
f 341/341/341 340/340/340 335/335/335
f 338/338/338 342/342/342 339/339/339
f 340/340/340 342/342/342 338/338/338
f 336/336/336 343/343/343 341/341/341
f 336/336/336 344/344/344 343/343/343
f 341/341/341 345/345/345 340/340/340
f 340/340/340 345/345/345 342/342/342
f 341/341/341 346/346/346 345/345/345
f 346/346/346 342/342/342 345/345/345
f 341/341/341 343/343/343 346/346/346
f 347/347/347 339/339/339 342/342/342
f 346/346/346 347/347/347 342/342/342
f 347/347/347 348/348/348 339/339/339
f 344/344/344 349/349/349 343/343/343
f 344/344/344 350/350/350 349/349/349
f 343/343/343 351/351/351 346/346/346
f 351/351/351 347/347/347 346/346/346
f 343/343/343 349/349/349 351/351/351
f 349/349/349 352/352/352 351/351/351
f 353/353/353 348/348/348 347/347/347
f 351/351/351 353/353/353 347/347/347
f 352/352/352 353/353/353 351/351/351
f 353/353/353 354/354/354 348/348/348
f 350/350/350 355/355/355 349/349/349
f 349/349/349 355/355/355 352/352/352
f 350/350/350 356/356/356 355/355/355
f 357/357/357 355/355/355 356/356/356
f 358/358/358 354/354/354 353/353/353
f 352/352/352 358/358/358 353/353/353
f 358/358/358 359/359/359 354/354/354
f 358/358/358 360/360/360 359/359/359
f 357/357/357 361/361/361 355/355/355
f 361/361/361 352/352/352 355/355/355
f 362/362/362 361/361/361 357/357/357
f 358/358/358 363/363/363 360/360/360
f 352/352/352 363/363/363 358/358/358
f 363/363/363 364/364/364 360/360/360
f 362/362/362 365/365/365 361/361/361
f 366/366/366 365/365/365 362/362/362
f 366/366/366 367/367/367 365/365/365
f 368/368/368 365/365/365 367/367/367
f 361/361/361 369/369/369 352/352/352
f 352/352/352 369/369/369 363/363/363
f 365/365/365 369/369/369 361/361/361
f 363/363/363 370/370/370 364/364/364
f 369/369/369 370/370/370 363/363/363
f 365/365/365 371/371/371 369/369/369
f 371/371/371 365/365/365 368/368/368
f 369/369/369 371/371/371 370/370/370
f 364/364/364 370/370/370 372/372/372
f 371/371/371 372/372/372 370/370/370
f 371/371/371 368/368/368 372/372/372
f 372/372/372 373/373/373 364/364/364
f 374/374/374 372/372/372 368/368/368
f 372/372/372 374/374/374 373/373/373
f 375/375/375 377/377/377 376/376/376
f 376/376/376 378/378/378 375/375/375
f 376/376/376 377/377/377 379/379/379
f 377/377/377 380/380/380 379/379/379
f 379/379/379 380/380/380 381/381/381
f 376/376/376 382/382/382 378/378/378
f 382/382/382 383/383/383 378/378/378
f 384/384/384 383/383/383 382/382/382
f 385/385/385 379/379/379 381/381/381
f 385/385/385 384/384/384 382/382/382
f 385/385/385 381/381/381 386/386/386
f 386/386/386 384/384/384 385/385/385
f 387/387/387 382/382/382 376/376/376
f 376/376/376 379/379/379 387/387/387
f 387/387/387 379/379/379 385/385/385
f 385/385/385 382/382/382 387/387/387
