mtllib P_IvyCoastal03.mtl
v 0.1912722 0.5857262 0.2835484
v -0.226129 -0.1992817 0.7798599
v -0.2338177 -0.6069949 0.04887643
v -0.2338177 -0.6069949 0.04887643
v -0.09514166 0.1781097 -0.4300251
v 0.1912722 0.5857262 0.2835484
v 0.4449092 0.4197699 0.6960315
v -0.1222177 -0.1069344 0.5670659
v -0.06596064 -0.03064739 -0.1252287
v -0.06596064 -0.03064739 -0.1252287
v 0.5536441 0.4477098 0.02231864
v 0.4449092 0.4197699 0.6960315
v 3.922301 0.1625341 0.2053503
v 3.626268 -0.01207136 0.8632753
v 3.094573 -0.2139037 0.5384282
v 3.094573 -0.2139037 0.5384282
v 3.402644 -0.00619352 -0.1098351
v 3.922301 0.1625341 0.2053503
v 0.9364197 0.3728646 -0.657997
v 0.3978151 0.3280835 0.04255035
v -0.08237724 -0.04426572 -0.4240927
v -0.08237724 -0.04426572 -0.4240927
v 0.3635288 0.2054435 -1.122036
v 0.9364197 0.3728646 -0.657997
v 1.360207 0.6395324 -0.09187451
v 0.7740711 0.2576603 0.4129115
v 0.542011 -0.06530745 -0.1994668
v 0.542011 -0.06530745 -0.1994668
v 1.042604 0.3493138 -0.6862029
v 1.360207 0.6395324 -0.09187451
v 1.057253 0.5316039 0.3188213
v 0.2911896 0.1390485 0.5162252
v 0.2077214 -0.01489673 -0.2660262
v 0.2077214 -0.01489673 -0.2660262
v 0.9119896 0.4342857 -0.4441417
v 1.057253 0.5316039 0.3188213
v 0.3623558 0.3206184 0.3353899
v 0.2427336 -0.06940553 -0.5217088
v 0.8299534 0.2700597 -0.8371489
v 0.8299534 0.2700597 -0.8371489
v 1.074274 0.5776047 0.0210553
v 0.3623558 0.3206184 0.3353899
v 0.9661852 0.475871 0.4020526
v 0.4127838 0.1251438 -0.1150332
v 0.8587129 0.1250992 -0.686303
v 0.8587129 0.1250992 -0.686303
v 1.45569 0.4230689 -0.1592044
v 0.9661852 0.475871 0.4020526
v 0.3682187 -0.03632577 -0.3240579
v 0.388342 0.07245803 -1.197275
v 0.9572097 0.5538785 -1.076732
v 0.9572097 0.5538785 -1.076732
v 0.8530576 0.4492174 -0.2165366
v 0.3682187 -0.03632577 -0.3240579
v 1.23029 0.357199 -0.383673
v 0.5733525 0.3186104 0.1777283
v 0.1509468 0.1068092 -0.399993
v 0.1509468 0.1068092 -0.399993
v 0.7557777 0.2890194 -0.9502305
v 1.23029 0.357199 -0.383673
v 0.2608311 -0.03877432 -0.7937862
v 0.7406059 0.3682777 -1.197517
v 1.053929 0.5125186 -0.5998939
v 1.053929 0.5125186 -0.5998939
v 0.4843472 0.1879912 -0.2166404
v 0.2608311 -0.03877432 -0.7937862
v 3.790443 -0.1733914 0.7237351
v 3.657523 -0.125916 0.03668471
v 4.245367 -0.01681471 -0.03386814
v 4.245367 -0.01681471 -0.03386814
v 4.35646 -0.04477118 0.6508004
v 3.790443 -0.1733914 0.7237351
v 2.285943 0.1158929 1.41789
v 2.986364 0.2668392 1.373497
v 3.042652 0.2152473 1.994042
v 3.042652 0.2152473 1.994042
v 2.35143 0.04273869 2.019331
v 2.285943 0.1158929 1.41789
v 3.021268 -0.1384274 0.9907423
v 3.68445 0.1593414 1.016946
v 3.608422 0.3049664 1.655466
v 3.608422 0.3049664 1.655466
v 2.953506 -0.02349196 1.612755
v 3.021268 -0.1384274 0.9907423
v 2.826384 -0.1635408 0.4648713
v 3.526485 0.02201355 0.1907982
v 3.729133 0.212512 0.8319259
v 3.729133 0.212512 0.8319259
v 3.003419 0.04121924 1.085045
v 2.826384 -0.1635408 0.4648713
v 0.5740746 0.6087273 1.405194
v -0.2016518 -0.1367416 1.249004
v 0.02969484 -0.1335553 0.3716432
v 0.02969484 -0.1335553 0.3716432
v 0.788746 0.4347276 0.5571598
v 0.5740746 0.6087273 1.405194
v -0.00707263 0.1409048 0.3507247
v 0.1947035 0.4868866 1.026942
v -0.2102129 -0.02366053 1.346479
v -0.2102129 -0.02366053 1.346479
v -0.2361882 -0.3740813 0.6668939
v -0.00707263 0.1409048 0.3507247
v -0.001872182 0.16992 0.04392504
v -0.005872555 0.40536 0.963274
v -0.4194108 -0.3802916 1.106461
v -0.4194108 -0.3802916 1.106461
v -0.304885 -0.5413155 0.1850185
v -0.001872182 0.16992 0.04392504
v 0.8162988 0.2567181 1.257817
v 0.3521262 0.1973436 0.5074772
v 0.9579082 0.4108751 0.0710889
v 0.9579082 0.4108751 0.0710889
v 1.454616 0.3788595 0.8240025
v 0.8162988 0.2567181 1.257817
v 0.7546532 0.5711899 -0.04591659
v 0.9028242 0.4948028 0.8191483
v 0.3490511 0.04237755 0.9096863
v 0.3490511 0.04237755 0.9096863
v 0.1997415 0.06264116 0.04889382
v 0.7546532 0.5711899 -0.04591659
v 0.1044701 -0.09253491 0.3499617
v 0.4169475 0.2063521 -0.4623832
v 1.029566 0.5613382 -0.02600153
v 1.029566 0.5613382 -0.02600153
v 0.5253933 0.4103607 0.7643142
v 0.1044701 -0.09253491 0.3499617
v 0.6601455 0.400094 -0.4166489
v -0.1548717 -0.1298185 -0.2554224
v -0.2687182 -0.2607436 -1.148236
v -0.2687182 -0.2607436 -1.148236
v 0.5229054 0.3522154 -1.297287
v 0.6601455 0.400094 -0.4166489
v -0.09237291 -0.3398783 -1.408745
v 0.360458 0.4166262 -1.510259
v 0.409676 0.5186142 -0.7035932
v 0.409676 0.5186142 -0.7035932
v -0.07431553 -0.2246933 -0.6233584
v -0.09237291 -0.3398783 -1.408745
v 0.198162 -0.1314145 -0.9092215
v 0.7744665 0.4117925 -1.524951
v 1.294778 0.5245737 -0.7806346
v 1.294778 0.5245737 -0.7806346
v 0.5779137 0.1201831 -0.1959042
v 0.198162 -0.1314145 -0.9092215
v 0.8009886 0.3202322 -1.642531
v 1.001024 0.3875701 -0.8766863
v 0.4270915 0.140842 -0.6796325
v 0.4270915 0.140842 -0.6796325
v 0.2676296 0.0201154 -1.442248
v 0.8009886 0.3202322 -1.642531
v 2.28217 0.1326351 0.9446805
v 1.875571 -0.1020683 0.2448713
v 2.448912 0.1573439 -0.1900108
v 2.838997 0.3727076 0.5172954
v 3.738632 0.1300511 -0.5225385
v 3.118101 0.01343214 -0.1881418
v 2.887112 -0.1579818 -0.732253
v 3.523056 -0.04057647 -1.05588
v 2.224425 -0.05260347 0.7761836
v 2.956671 0.2390027 0.5978901
v 3.090898 0.3075275 1.291641
v 2.365081 -0.0003344876 1.449121
v 1.578108 0.4688964 0.56817
v 1.470612 0.3035845 1.360269
v 0.7831647 0.1430952 1.236996
v 0.901558 0.3144809 0.4559904
v 1.051809 0.1303585 -0.9485692
v 1.720452 0.4381384 -0.5668141
v 1.374651 0.3736826 0.08512374
v 0.7240585 0.07994774 -0.3055739
v 1.212149 0.1850982 -1.421492
v 1.686691 0.5271955 -0.679812
v 1.086154 0.2851669 -0.1572763
v 0.6588116 -0.05377109 -0.9045765
v 1.638646 0.1268984 -0.5079559
v 0.8640792 0.0446143 -1.072194
v 1.341884 0.2328507 -1.766739
v 2.097586 0.3230972 -1.185264
v 1.509011 0.2950822 -0.5319095
v 0.837039 -0.01064623 -0.7029641
v 0.9270127 0.1508616 -1.356336
v 1.5894 0.463192 -1.166709
v 0.649366 -0.02387531 -1.416438
v 1.401141 0.1565178 -1.83212
v 1.687591 0.4187995 -1.13493
v 0.9055049 0.2465271 -0.731116
v 1.600883 0.1459995 -0.738508
v 2.030189 0.4030585 -0.01679922
v 1.36843 0.3295401 0.4171144
v 0.9557087 0.07305694 -0.3081114
v 1.677806 0.5095396 -0.3305785
v 1.493317 0.2918016 0.5506364
v 0.7618243 0.04430902 0.3479758
v 0.960218 0.2541652 -0.5241115
v 1.606001 0.3312098 -0.4878558
v 1.276873 0.2905002 0.1803025
v 0.7067131 0.2147357 -0.09748273
v 1.04066 0.249987 -0.7562615
v 1.019155 0.06252766 0.152145
v 1.302331 0.1191211 -0.6944538
v 1.968374 0.4260347 -0.4656405
v 1.673682 0.3502251 0.3669385
v 2.300133 0.4008394 0.1264704
v 1.441388 0.2752812 0.4404005
v 1.247525 0.004607258 -0.2686252
v 2.10404 0.1466389 -0.5645796
v 2.150972 0.3072267 -1.034294
v 1.854863 0.2535365 -0.3261106
v 1.274886 0.06915676 -0.5681126
v 1.582311 0.1112522 -1.269609
v 1.119785 0.4096952 -0.9027466
v 1.067418 0.4396086 0.1448449
v 0.2751221 0.102501 0.1188636
v 0.3191058 0.08724561 -0.9242486
v 0.5729322 0.08821579 -0.9578303
v 1.300361 0.4332736 -0.968246
v 1.302632 0.4370516 -0.2367744
v 0.5847414 0.1087541 -0.2388087
v 1.314929 0.1795768 0.2049336
v 1.96323 0.3993253 0.5024642
v 1.690418 0.3410657 1.102905
v 1.053704 0.1220044 0.7935809
v 1.664616 0.3236343 0.2661906
v 2.337657 0.3702809 0.7623654
v 1.934049 0.1302938 1.329499
v 1.275707 0.07873274 0.8234988
v 1.684756 0.3338194 1.522596
v 0.8194408 0.2700069 1.64282
v 0.7115747 0.2935208 0.8999122
v 1.568886 0.3571621 0.7953475
v 2.115889 0.2299923 2.041012
v 1.551116 -0.02381985 1.385898
v 2.079711 0.2134671 0.8413335
v 2.630498 0.4518754 1.501444
v 1.88105 0.1552645 0.7149435
v 2.256727 0.3736539 1.270838
v 1.740378 0.3183099 1.638262
v 1.378206 0.09929872 1.078566
v 1.392036 0.08830936 1.254426
v 1.507263 0.1028525 0.4976918
v 2.108335 0.3878562 0.5749419
v 1.979018 0.3717586 1.326742
v 2.071251 0.2699883 0.5459603
v 2.550546 0.3297721 1.114185
v 2.081912 0.1281988 1.530984
v 1.616105 0.06390209 0.9583324
v 2.095959 -0.1004903 1.570695
v 2.492959 0.1503337 1.032995
v 2.854092 0.4498382 1.442936
v 2.451057 0.2001596 1.968909
v 2.555792 0.01273491 1.762116
v 2.844191 0.06928623 1.138124
v 3.365046 0.2423921 1.396155
v 3.065018 0.1990333 2.011939
v 2.538257 -0.08026611 1.02619
v 3.144879 0.05284453 0.6910763
v 3.377154 0.2756616 1.217995
v 2.769979 0.1337825 1.535891
v 3.183602 0.1037696 2.068126
v 2.610602 -0.07409607 1.628975
v 2.915167 0.1727415 1.128204
v 3.479123 0.334839 1.573534
v 3.50175 0.0164547 0.05647198
v 3.014251 -0.1051718 -0.2522869
v 3.28728 -0.03933204 -0.7240795
v 3.759594 0.08121168 -0.4040029
v 4.729388 -0.03053832 0.1787587
v 4.159238 -0.2015119 0.4477319
v 3.917041 -0.2815871 -0.08872861
v 4.544896 -0.09233952 -0.3450804
v 2.291704 0.1757558 0.5677001
v 1.835992 -0.1105806 -0.1194861
v 2.43027 0.09686815 -0.6138714
v 2.868223 0.3637294 0.08301896
v 1.846289 -0.04263831 -0.5832431
v 2.581744 0.222118 -0.9116918
v 2.831001 0.2915765 -0.2349454
v 2.095757 0.04338288 0.07520545
v 2.298875 -0.1374374 0.1846647
v 2.39144 -0.05048347 -0.6484785
v 2.995008 0.3245925 -0.5656536
v 2.891301 0.2216183 0.2578725
v 2.783309 0.214507 0.05348159
v 2.217269 0.07267249 0.3975861
v 1.923765 0.04608107 -0.1008297
v 2.493273 0.1966086 -0.4344258
v 2.535552 -0.09614956 -0.4535756
v 3.020686 0.2083606 -0.7146433
v 3.250958 0.2026706 -0.2208528
v 2.777136 -0.1007402 0.02542085
v 2.787051 -0.1465937 -0.2945971
v 3.347573 0.05461108 -0.6265696
v 3.570347 0.1761094 -0.1020601
v 3.024091 -0.02682328 0.2127386
v 2.724902 -0.1771281 -0.8005727
v 3.308407 0.2277958 -0.7645496
v 3.210073 0.256839 -0.1297098
v 2.636657 -0.1390873 -0.176979
v 2.618887 -0.1299727 -0.8450724
v 3.081568 0.1488425 -1.175367
v 3.342519 0.2153213 -0.7051412
v 2.883389 -0.06317174 -0.3895541
v 2.130539 -0.04598724 0.6700516
v 2.685821 0.1151626 0.08994547
v 3.159072 0.2514482 0.5823452
v 2.601641 0.1026024 1.144085
v 2.295197 0.119441 1.225155
v 1.934689 0.1569095 0.6487618
v 2.459669 0.1831193 0.3352696
v 2.804448 0.1404289 0.9171615
v 2.839685 0.07488192 1.001189
v 2.411501 -0.1074347 0.3945788
v 2.919281 0.07352233 -0.02857799
v 3.329875 0.2400068 0.5867991
v 2.638862 -0.03434145 0.8018271
v 2.612767 -0.1274755 0.01618379
v 3.224733 0.1584823 -0.06419855
v 3.250267 0.2399398 0.7196599
v 3.342983 0.1201962 0.220523
v 2.664496 -0.05832588 0.5527309
v 2.354771 0.007844686 -0.05806369
v 3.051247 0.1831545 -0.380092
v 0.1836531 -0.09872639 -0.4115641
v -0.01857247 -0.07477014 -1.473941
v 0.7509333 0.5023438 -1.547448
v 0.8493046 0.3757713 -0.4885779
v 0.5985073 -0.02904106 -1.604677
v 1.443806 0.4373892 -1.451024
v 1.286734 0.4768793 -0.5632604
v 0.4805184 0.0004478476 -0.721021
v 1.586304 0.3456041 1.039538
v 1.674387 0.3812799 1.110674
v 1.615569 0.3399354 1.202793
v 1.746299 0.3732202 1.014552
v 1.703651 0.3761775 1.27403
v 1.644914 0.3352547 1.366148
v 1.802125 0.3628479 1.342978
v 1.834459 0.4090396 1.085643
v 1.906568 0.4010179 0.9893456
v 1.933021 0.3952491 1.154428
v 1.861049 0.4036998 1.250675
v 1.959549 0.3907226 1.31966
v 1.777865 0.3499016 1.179612
v 0.9351172 0.5649468 -0.1720041
v 1.017438 0.5752561 -0.1030228
v 0.9556463 0.5415494 -0.02416032
v 1.081502 0.564341 -0.1903533
v 1.038234 0.5509269 0.04440942
v 0.976699 0.5168936 0.1229797
v 1.120727 0.5150673 0.1057214
v 1.164045 0.5738371 -0.1217215
v 1.228305 0.5627548 -0.209262
v 1.24649 0.5381016 -0.06034419
v 1.182478 0.5488548 0.02690969
v 1.265157 0.5123526 0.08793464
v 1.100748 0.5245031 -0.04283694
v 1.32827 0.5151745 -0.4180847
v 1.271329 0.5136415 -0.4868104
v 1.339046 0.5226095 -0.543233
v 1.217986 0.4694653 -0.4301656
v 1.282258 0.5204383 -0.6122124
v 1.35007 0.5292786 -0.6687446
v 1.241811 0.4835079 -0.6816688
v 1.161191 0.4673742 -0.4991252
v 1.107973 0.4230757 -0.4426171
v 1.120759 0.4304724 -0.5685909
v 1.1741 0.4745583 -0.6252489
v 1.133798 0.4370667 -0.6949392
v 1.235721 0.4650668 -0.5571138
v 0.7939814 0.4215991 -0.6671556
v 0.6760592 0.4325624 -0.6172718
v 0.6321505 0.3693184 -0.7131991
v 0.7377048 0.4454969 -0.5089481
v 0.5146074 0.366683 -0.6630865
v 0.4789214 0.2985385 -0.7591603
v 0.4216196 0.309347 -0.6033832
v 0.6154103 0.4520635 -0.4590753
v 0.6775068 0.4667428 -0.3512453
v 0.5141212 0.4015924 -0.3995692
v 0.4553708 0.378621 -0.5076045
v 0.3644495 0.3166469 -0.4480665
v 0.5781571 0.3701986 -0.5535032
v 3.218301 0.098194 -0.461366
v 3.287305 0.1242382 -0.4517315
v 3.274194 0.1222042 -0.3771152
v 3.304887 0.09539865 -0.5200734
v 3.343045 0.1481548 -0.3674149
v 3.330215 0.1459657 -0.2928597
v 3.414474 0.1438004 -0.3497343
v 3.373818 0.1214962 -0.5103068
v 3.391777 0.09259664 -0.5786342
v 3.445408 0.1172366 -0.4925534
v 3.427893 0.145789 -0.4242985
v 3.499194 0.1414926 -0.4064609
v 3.361013 0.1094351 -0.4311883
vn -0.9116803 0.3628599 -0.1927994
vn -0.9116803 0.3628599 -0.1927994
vn -0.9116803 0.3628599 -0.1927994
vn -0.9335814 0.2918 0.2080349
vn -0.9335814 0.2918 0.2080349
vn -0.9335814 0.2918 0.2080349
vn -0.6833321 0.7296838 0.02487835
vn -0.6833321 0.7296838 0.02487835
vn -0.6833321 0.7296838 0.02487835
vn -0.6002921 0.7972301 -0.06382269
vn -0.6002921 0.7972301 -0.06382269
vn -0.6002921 0.7972301 -0.06382269
vn -0.3901774 0.918216 0.06812376
vn -0.3901774 0.918216 0.06812376
vn -0.3901774 0.918216 0.06812376
vn -0.3710619 0.9209833 0.1187548
vn -0.3710619 0.9209833 0.1187548
vn -0.3710619 0.9209833 0.1187548
vn -0.4168318 0.8695308 -0.2648914
vn -0.4168318 0.8695308 -0.2648914
vn -0.4168318 0.8695308 -0.2648914
vn -0.3561468 0.9285484 0.1046775
vn -0.3561468 0.9285484 0.1046775
vn -0.3561468 0.9285484 0.1046775
vn -0.6320405 0.7581652 -0.1603446
vn -0.6320405 0.7581652 -0.1603446
vn -0.6320405 0.7581652 -0.1603446
vn -0.6507784 0.7589245 -0.02282404
vn -0.6507784 0.7589245 -0.02282404
vn -0.6507784 0.7589245 -0.02282404
vn -0.477125 0.8705475 -0.1204114
vn -0.477125 0.8705475 -0.1204114
vn -0.477125 0.8705475 -0.1204114
vn -0.538615 0.8425377 -0.004919516
vn -0.538615 0.8425377 -0.004919516
vn -0.538615 0.8425377 -0.004919516
vn -0.5856914 0.7654438 -0.2665735
vn -0.5856914 0.7654438 -0.2665735
vn -0.5856914 0.7654438 -0.2665735
vn -0.410198 0.8893601 -0.2019315
vn -0.410198 0.8893601 -0.2019315
vn -0.410198 0.8893601 -0.2019315
vn -0.3322781 0.9067965 -0.2594446
vn -0.3322781 0.9067965 -0.2594446
vn -0.3322781 0.9067965 -0.2594446
vn -0.2196975 0.93466 -0.2795421
vn -0.2196975 0.93466 -0.2795421
vn -0.2196975 0.93466 -0.2795421
vn -0.653659 0.7526855 0.07870468
vn -0.653659 0.7526855 0.07870468
vn -0.653659 0.7526855 0.07870468
vn -0.7076515 0.7065616 0.0002861678
vn -0.7076515 0.7065616 0.0002861678
vn -0.7076515 0.7065616 0.0002861678
vn -0.219103 0.9569011 -0.1906152
vn -0.219103 0.9569011 -0.1906152
vn -0.219103 0.9569011 -0.1906152
vn -0.2264272 0.9713072 0.07275391
vn -0.2264272 0.9713072 0.07275391
vn -0.2264272 0.9713072 0.07275391
vn -0.5856185 0.8026282 0.1133094
vn -0.5856185 0.8026282 0.1133094
vn -0.5856185 0.8026282 0.1133094
vn -0.548285 0.8285918 -0.1132218
vn -0.548285 0.8285918 -0.1132218
vn -0.548285 0.8285918 -0.1132218
vn -0.1698685 0.9803181 0.1006037
vn -0.1698685 0.9803181 0.1006037
vn -0.1698685 0.9803181 0.1006037
vn -0.2118806 0.9744771 0.07416897
vn -0.2118806 0.9744771 0.07416897
vn -0.2118806 0.9744771 0.07416897
vn -0.2036 0.9739906 0.09944543
vn -0.2036 0.9739906 0.09944543
vn -0.2036 0.9739906 0.09944543
vn -0.2347601 0.9615492 0.1425161
vn -0.2347601 0.9615492 0.1425161
vn -0.2347601 0.9615492 0.1425161
vn -0.3885525 0.887252 -0.2486179
vn -0.3885525 0.887252 -0.2486179
vn -0.3885525 0.887252 -0.2486179
vn -0.4274674 0.8795195 -0.2090865
vn -0.4274674 0.8795195 -0.2090865
vn -0.4274674 0.8795195 -0.2090865
vn -0.3162935 0.9320114 -0.1769549
vn -0.3162935 0.9320114 -0.1769549
vn -0.3162935 0.9320114 -0.1769549
vn -0.2966584 0.928826 -0.2219819
vn -0.2966584 0.928826 -0.2219819
vn -0.2966584 0.928826 -0.2219819
vn -0.6642388 0.727343 -0.1725082
vn -0.6642388 0.727343 -0.1725082
vn -0.6642388 0.727343 -0.1725082
vn -0.524854 0.7978577 -0.2965661
vn -0.524854 0.7978577 -0.2965661
vn -0.524854 0.7978577 -0.2965661
vn -0.8012924 0.5947114 -0.06518266
vn -0.8012924 0.5947114 -0.06518266
vn -0.8012924 0.5947114 -0.06518266
vn -0.9334626 0.3320744 -0.1355515
vn -0.9334626 0.3320744 -0.1355515
vn -0.9334626 0.3320744 -0.1355515
vn -0.887422 0.4456047 -0.1179782
vn -0.887422 0.4456047 -0.1179782
vn -0.887422 0.4456047 -0.1179782
vn -0.9177066 0.3560083 -0.1762745
vn -0.9177066 0.3560083 -0.1762745
vn -0.9177066 0.3560083 -0.1762745
vn -0.2713808 0.9580583 0.09206943
vn -0.2713808 0.9580583 0.09206943
vn -0.2713808 0.9580583 0.09206943
vn -0.110723 0.9871728 0.1150224
vn -0.110723 0.9871728 0.1150224
vn -0.110723 0.9871728 0.1150224
vn -0.6061565 0.776439 0.1723855
vn -0.6061565 0.776439 0.1723855
vn -0.6061565 0.776439 0.1723855
vn -0.6574644 0.7419209 0.1315064
vn -0.6574644 0.7419209 0.1315064
vn -0.6574644 0.7419209 0.1315064
vn -0.5486922 0.8306589 0.09456471
vn -0.5486922 0.8306589 0.09456471
vn -0.5486922 0.8306589 0.09456471
vn -0.6254091 0.7363001 -0.2583134
vn -0.6254091 0.7363001 -0.2583134
vn -0.6254091 0.7363001 -0.2583134
vn -0.5515434 0.832539 -0.05175654
vn -0.5515434 0.832539 -0.05175654
vn -0.5515434 0.832539 -0.05175654
vn -0.6053872 0.7942852 0.05116077
vn -0.6053872 0.7942852 0.05116077
vn -0.6053872 0.7942852 0.05116077
vn -0.8586943 0.5123385 -0.01238338
vn -0.8586943 0.5123385 -0.01238338
vn -0.8586943 0.5123385 -0.01238338
vn -0.8394492 0.5401253 -0.05991448
vn -0.8394492 0.5401253 -0.05991448
vn -0.8394492 0.5401253 -0.05991448
vn -0.5189882 0.8208582 0.2384178
vn -0.5189882 0.8208582 0.2384178
vn -0.5189882 0.8208582 0.2384178
vn -0.5103883 0.8593708 -0.03139524
vn -0.5103883 0.8593708 -0.03139524
vn -0.5103883 0.8593708 -0.03139524
vn -0.3888845 0.9210564 0.02058967
vn -0.3888845 0.9210564 0.02058967
vn -0.3888845 0.9210564 0.02058967
vn -0.4994052 0.8657539 -0.03262904
vn -0.4994052 0.8657539 -0.03262904
vn -0.4994052 0.8657539 -0.03262904
vn -0.4400196 0.8968534 -0.04513127
vn -0.4400196 0.8968534 -0.04513127
vn -0.4400196 0.8968534 -0.04513127
vn -0.4228384 0.9052115 -0.04242437
vn -0.2748978 0.9443226 -0.180793
vn -0.2748978 0.9443226 -0.180793
vn -0.2748978 0.9443226 -0.180793
vn -0.2717408 0.9430506 -0.1918657
vn -0.373948 0.9272502 -0.01923669
vn -0.373948 0.9272502 -0.01923669
vn -0.373948 0.9272502 -0.01923669
vn -0.3886859 0.9213195 0.009680674
vn -0.2521626 0.9535511 0.164786
vn -0.2521626 0.9535511 0.164786
vn -0.2521626 0.9535511 0.164786
vn -0.2462198 0.9538325 0.1719866
vn -0.3667289 0.9245966 -0.1031071
vn -0.3667289 0.9245966 -0.1031071
vn -0.3667289 0.9245966 -0.1031071
vn -0.3545415 0.9287936 -0.1079014
vn -0.455983 0.8824885 -0.1152977
vn -0.455983 0.8824885 -0.1152977
vn -0.455983 0.8824885 -0.1152977
vn -0.4836311 0.8674354 -0.1168616
vn -0.1966354 0.9720624 0.1281764
vn -0.1966354 0.9720624 0.1281764
vn -0.1966354 0.9720624 0.1281764
vn -0.217572 0.9669836 0.1326848
vn -0.4418868 0.8831444 0.1574548
vn -0.4418868 0.8831444 0.1574548
vn -0.4418868 0.8831444 0.1574548
vn -0.4600486 0.8709955 0.1724013
vn -0.3354172 0.9188523 -0.2078601
vn -0.3354172 0.9188523 -0.2078601
vn -0.3354172 0.9188523 -0.2078601
vn -0.3251469 0.9148483 -0.2394413
vn -0.2358604 0.9512914 -0.1985312
vn -0.2358604 0.9512914 -0.1985312
vn -0.2358604 0.9512914 -0.1985312
vn -0.2403138 0.9500305 -0.1992267
vn -0.3546186 0.9223004 0.1536476
vn -0.3546186 0.9223004 0.1536476
vn -0.3546186 0.9223004 0.1536476
vn -0.3649949 0.9206489 0.138508
vn -0.1299904 0.9915087 -0.00362116
vn -0.1299904 0.9915087 -0.00362116
vn -0.1299904 0.9915087 -0.00362116
vn -0.1350136 0.9907237 -0.01542712
vn -0.3970275 0.9150069 -0.07163402
vn -0.3970275 0.9150069 -0.07163402
vn -0.3970275 0.9150069 -0.07163402
vn -0.3871369 0.9204854 -0.05321386
vn -0.2407995 0.9268628 -0.2879946
vn -0.2407995 0.9268628 -0.2879946
vn -0.2407995 0.9268628 -0.2879946
vn -0.248064 0.9298736 -0.2716602
vn -0.2849436 0.957413 -0.04655667
vn -0.2849436 0.957413 -0.04655667
vn -0.2849436 0.957413 -0.04655667
vn -0.2976813 0.9518442 -0.07333817
vn -0.3898359 0.9197472 -0.04575024
vn -0.3898359 0.9197472 -0.04575024
vn -0.3898359 0.9197472 -0.04575024
vn -0.3727279 0.9274786 -0.02928061
vn -0.428616 0.9034806 -0.003335752
vn -0.428616 0.9034806 -0.003335752
vn -0.428616 0.9034806 -0.003335752
vn -0.4157632 0.9092714 -0.01914427
vn -0.3021548 0.9522011 -0.0448948
vn -0.3021548 0.9522011 -0.0448948
vn -0.3021548 0.9522011 -0.0448948
vn -0.306322 0.9509595 -0.04292895
vn -0.2360123 0.9437937 0.2314126
vn -0.2360123 0.9437937 0.2314126
vn -0.2360123 0.9437937 0.2314126
vn -0.2540811 0.9382056 0.2349747
vn -0.06776147 0.9968426 0.04138983
vn -0.06776147 0.9968426 0.04138983
vn -0.06776147 0.9968426 0.04138983
vn -0.06875119 0.9967091 0.04294544
vn -0.4097114 0.9122152 -0.0002100565
vn -0.4097114 0.9122152 -0.0002100565
vn -0.4097114 0.9122152 -0.0002100565
vn -0.3965402 0.9180171 -0.0006869764
vn -0.2473148 0.9470202 -0.2049101
vn -0.2473148 0.9470202 -0.2049101
vn -0.2473148 0.9470202 -0.2049101
vn -0.2538507 0.9451448 -0.2055751
vn -0.4230226 0.9048982 -0.04702273
vn -0.4230226 0.9048982 -0.04702273
vn -0.4230226 0.9048982 -0.04702273
vn -0.4287552 0.9017789 -0.05444057
vn -0.2838591 0.9486458 0.139625
vn -0.2838591 0.9486458 0.139625
vn -0.2838591 0.9486458 0.139625
vn -0.3011677 0.943378 0.1390543
vn -0.5932582 0.8024898 -0.06367762
vn -0.5932582 0.8024898 -0.06367762
vn -0.5932582 0.8024898 -0.06367762
vn -0.5940359 0.800936 -0.07498635
vn -0.2930971 0.9548298 -0.0489298
vn -0.2930971 0.9548298 -0.0489298
vn -0.2930971 0.9548298 -0.0489298
vn -0.3064424 0.9483043 -0.08253524
vn -0.3323631 0.9122965 -0.2392696
vn -0.3323631 0.9122965 -0.2392696
vn -0.3323631 0.9122965 -0.2392696
vn -0.3346444 0.9134726 -0.2314754
vn -0.4176109 0.8896863 0.1845522
vn -0.4176109 0.8896863 0.1845522
vn -0.4176109 0.8896863 0.1845522
vn -0.4006045 0.8983304 0.1803292
vn -0.2400232 0.9707611 -0.003430768
vn -0.2400232 0.9707611 -0.003430768
vn -0.2400232 0.9707611 -0.003430768
vn -0.246273 0.9691992 -0.001601926
vn -0.2919541 0.9563697 -0.01094456
vn -0.2919541 0.9563697 -0.01094456
vn -0.2919541 0.9563697 -0.01094456
vn -0.292277 0.9562827 -0.009881744
vn -0.4067167 0.907117 -0.1082604
vn -0.4067167 0.907117 -0.1082604
vn -0.4067167 0.907117 -0.1082604
vn -0.3881191 0.9154195 -0.1066338
vn -0.3289931 0.94402 0.02428316
vn -0.3289931 0.94402 0.02428316
vn -0.3289931 0.94402 0.02428316
vn -0.3206841 0.9471835 -0.002243561
vn -0.530503 0.8471704 0.02947711
vn -0.530503 0.8471704 0.02947711
vn -0.530503 0.8471704 0.02947711
vn -0.5215679 0.8522298 0.0408818
vn -0.2035496 0.9767174 0.06775519
vn -0.2035496 0.9767174 0.06775519
vn -0.2035496 0.9767174 0.06775519
vn -0.2065895 0.974547 0.08705724
vn -0.4347323 0.875053 0.2128148
vn -0.4347323 0.875053 0.2128148
vn -0.4347323 0.875053 0.2128148
vn -0.4376859 0.8694555 0.2290814
vn -0.367892 0.9280131 -0.05871296
vn -0.367892 0.9280131 -0.05871296
vn -0.367892 0.9280131 -0.05871296
vn -0.3709044 0.9275471 -0.04567645
vn -0.5605125 0.8187677 -0.1242787
vn -0.5605125 0.8187677 -0.1242787
vn -0.5605125 0.8187677 -0.1242787
vn -0.556244 0.8209777 -0.1287954
vn -0.4466093 0.8862976 0.1225426
vn -0.4466093 0.8862976 0.1225426
vn -0.4466093 0.8862976 0.1225426
vn -0.4473629 0.8848532 0.1300052
vn -0.2777201 0.9606615 0.001029923
vn -0.2777201 0.9606615 0.001029923
vn -0.2777201 0.9606615 0.001029923
vn -0.2795416 0.9598566 -0.02306119
vn -0.008067035 0.9975221 0.06988946
vn -0.008067035 0.9975221 0.06988946
vn -0.008067035 0.9975221 0.06988946
vn 0.002318633 0.9974163 0.07180144
vn -0.356767 0.933749 -0.02880946
vn -0.356767 0.933749 -0.02880946
vn -0.356767 0.933749 -0.02880946
vn -0.3399251 0.9400499 -0.02751582
vn -0.4314415 0.8974319 -0.09205578
vn -0.4314415 0.8974319 -0.09205578
vn -0.4314415 0.8974319 -0.09205578
vn -0.4169659 0.9053504 -0.08050003
vn -0.16301 0.9686255 0.1875964
vn -0.16301 0.9686255 0.1875964
vn -0.16301 0.9686255 0.1875964
vn -0.1610564 0.9704014 0.17995
vn -0.5869558 0.7991546 0.1297489
vn -0.5869558 0.7991546 0.1297489
vn -0.5869558 0.7991546 0.1297489
vn -0.5624102 0.8132383 0.1494599
vn -0.4626384 0.8782616 -0.1209224
vn -0.4626384 0.8782616 -0.1209224
vn -0.4626384 0.8782616 -0.1209224
vn -0.4926776 0.8650489 -0.09465204
vn -0.3291675 0.9420415 -0.06485971
vn -0.2238883 0.9743726 0.02172681
vn -0.4509771 0.885886 0.1087462
vn -0.2009582 0.9521959 -0.230084
vn -0.2068385 0.9720407 0.111152
vn -0.2834326 0.9303606 0.2325839
vn -0.1133919 0.9331833 0.3410444
vn -0.121726 0.9925482 0.005565991
vn -0.03666472 0.9932337 -0.1101928
vn 0.1291754 0.9915639 0.01071153
vn -0.1112155 0.9893272 0.09414236
vn 0.00531155 0.984099 0.1775413
vn -0.1725789 0.9837105 0.05030117
vn -0.1427378 0.9895058 0.02245685
vn -0.03526817 0.9925634 0.1165078
vn -0.2702933 0.943287 0.1927465
vn -0.008122552 0.991442 -0.1302949
vn -0.01581892 0.976943 0.2129134
vn -0.1004935 0.9392667 0.3281451
vn 0.06670398 0.8966486 0.4376892
vn 0.0761067 0.9913933 0.1065226
vn 0.1591949 0.9872138 -0.0081197
vn 0.3209088 0.939622 0.118861
vn 0.0894421 0.9751409 0.2027323
vn 0.2009525 0.9363619 0.2878272
vn 0.02544636 0.9879856 0.1524368
vn -0.2515765 0.9495495 0.1872566
vn -0.3393434 0.9381461 0.06876066
vn -0.09210727 0.9946427 0.04692812
vn -0.3968533 0.8664524 0.3029321
vn -0.3361364 0.9414959 -0.02444842
vn -0.2284415 0.9657562 -0.123002
vn -0.3478263 0.8960814 -0.2757807
vn -0.4466732 0.8930258 0.05466181
vn -0.5334679 0.8323891 0.1501341
vn -0.6526912 0.7572367 -0.024224
vn -0.438264 0.8979089 -0.04104083
vn -0.5079151 0.8461365 -0.1614785
vn -0.3967495 0.9177295 0.01903678
vn -0.0479508 0.9457912 -0.3212159
vn -0.2039866 0.9424676 -0.2648479
vn -0.2001492 0.8514269 -0.484781
vn 0.01075243 0.9916028 -0.1288733
vn -0.3847079 0.8793735 -0.280539
vn -0.4454421 0.7999976 -0.4019765
vn -0.6379065 0.7148586 -0.2864481
vn -0.281168 0.9482265 -0.1476856
vn -0.190852 0.981333 -0.02368596
vn -0.4415746 0.8945042 0.06981422
vn -0.4636302 0.869983 -0.1678592
vn -0.6030119 0.791861 -0.09660658
vn -0.3304266 0.9187527 -0.2161293
vn -0.3135319 0.9190486 -0.2388459
vn -0.1765878 0.960101 -0.2168474
vn -0.3482926 0.9367388 -0.03482268
vn -0.26499 0.8618356 -0.4324577
vn -0.1248676 0.9825423 -0.1379085
vn -0.1500559 0.9886723 0.003207354
vn 0.05159936 0.9980003 0.03650986
vn -0.09310325 0.9562262 -0.2774227
vn -0.06263963 0.9131857 -0.402701
vn 0.1425588 0.9253154 -0.3513807
vn -0.04485588 0.9801876 -0.1929256
vn 0.09878943 0.9824439 -0.1582552
vn -0.1100772 0.9698521 -0.2174165
vt 0.2343438 0.7837718
vt 0.3270256 0.7379127
vt 0.3673113 0.8190135
vt 0.3673113 0.8190135
vt 0.2744597 0.8628029
vt 0.2343438 0.7837718
vt 0.2343438 0.7837718
vt 0.3270256 0.7379127
vt 0.3673113 0.8190135
vt 0.3673113 0.8190135
vt 0.2744597 0.8628029
vt 0.2343438 0.7837718
vt 0.2343438 0.7837718
vt 0.3270256 0.7379127
vt 0.3673113 0.8190135
vt 0.3673113 0.8190135
vt 0.2744597 0.8628029
vt 0.2343438 0.7837718
vt 0.2343438 0.7837718
vt 0.3270256 0.7379127
vt 0.3673113 0.8190135
vt 0.3673113 0.8190135
vt 0.2744597 0.8628029
vt 0.2343438 0.7837718
vt 0.2343438 0.7837718
vt 0.3270256 0.7379127
vt 0.3673113 0.8190135
vt 0.3673113 0.8190135
vt 0.2744597 0.8628029
vt 0.2343438 0.7837718
vt 0.2343438 0.7837718
vt 0.3270256 0.7379127
vt 0.3673113 0.8190135
vt 0.3673113 0.8190135
vt 0.2744597 0.8628029
vt 0.2343438 0.7837718
vt 0.2343438 0.7837718
vt 0.3270256 0.7379127
vt 0.3673113 0.8190135
vt 0.3673113 0.8190135
vt 0.2744597 0.8628029
vt 0.2343438 0.7837718
vt 0.2343438 0.7837718
vt 0.3270256 0.7379127
vt 0.3673113 0.8190135
vt 0.3673113 0.8190135
vt 0.2744597 0.8628029
vt 0.2343438 0.7837718
vt 0.2343438 0.7837718
vt 0.3270256 0.7379127
vt 0.3673113 0.8190135
vt 0.3673113 0.8190135
vt 0.2744597 0.8628029
vt 0.2343438 0.7837718
vt 0.2343438 0.7837718
vt 0.3270256 0.7379127
vt 0.3673113 0.8190135
vt 0.3673113 0.8190135
vt 0.2744597 0.8628029
vt 0.2343438 0.7837718
vt 0.2343438 0.7837718
vt 0.3270256 0.7379127
vt 0.3673113 0.8190135
vt 0.3673113 0.8190135
vt 0.2744597 0.8628029
vt 0.2343438 0.7837718
vt 0.2343438 0.7837718
vt 0.3270256 0.7379127
vt 0.3673113 0.8190135
vt 0.3673113 0.8190135
vt 0.2744597 0.8628029
vt 0.2343438 0.7837718
vt 0.2343438 0.7837718
vt 0.3270256 0.7379127
vt 0.3673113 0.8190135
vt 0.3673113 0.8190135
vt 0.2744597 0.8628029
vt 0.2343438 0.7837718
vt 0.2343438 0.7837718
vt 0.3270256 0.7379127
vt 0.3673113 0.8190135
vt 0.3673113 0.8190135
vt 0.2744597 0.8628029
vt 0.2343438 0.7837718
vt 0.2343438 0.7837718
vt 0.3270256 0.7379127
vt 0.3673113 0.8190135
vt 0.3673113 0.8190135
vt 0.2744597 0.8628029
vt 0.2343438 0.7837718
vt 0.2343438 0.7837718
vt 0.3270256 0.7379127
vt 0.3673113 0.8190135
vt 0.3673113 0.8190135
vt 0.2744597 0.8628029
vt 0.2343438 0.7837718
vt 0.2343438 0.7837718
vt 0.3270256 0.7379127
vt 0.3673113 0.8190135
vt 0.3673113 0.8190135
vt 0.2744597 0.8628029
vt 0.2343438 0.7837718
vt 0.2343438 0.7837718
vt 0.3270256 0.7379127
vt 0.3673113 0.8190135
vt 0.3673113 0.8190135
vt 0.2744597 0.8628029
vt 0.2343438 0.7837718
vt 0.2343438 0.7837718
vt 0.3270256 0.7379127
vt 0.3673113 0.8190135
vt 0.3673113 0.8190135
vt 0.2744597 0.8628029
vt 0.2343438 0.7837718
vt 0.2343438 0.7837718
vt 0.3270256 0.7379127
vt 0.3673113 0.8190135
vt 0.3673113 0.8190135
vt 0.2744597 0.8628029
vt 0.2343438 0.7837718
vt 0.2343438 0.7837718
vt 0.3270256 0.7379127
vt 0.3673113 0.8190135
vt 0.3673113 0.8190135
vt 0.2744597 0.8628029
vt 0.2343438 0.7837718
vt 0.2343438 0.7837718
vt 0.3270256 0.7379127
vt 0.3673113 0.8190135
vt 0.3673113 0.8190135
vt 0.2744597 0.8628029
vt 0.2343438 0.7837718
vt 0.2343438 0.7837718
vt 0.3270256 0.7379127
vt 0.3673113 0.8190135
vt 0.3673113 0.8190135
vt 0.2744597 0.8628029
vt 0.2343438 0.7837718
vt 0.2343438 0.7837718
vt 0.3270256 0.7379127
vt 0.3673113 0.8190135
vt 0.3673113 0.8190135
vt 0.2744597 0.8628029
vt 0.2343438 0.7837718
vt 0.2343438 0.7837718
vt 0.3270256 0.7379127
vt 0.3673113 0.8190135
vt 0.3673113 0.8190135
vt 0.2744597 0.8628029
vt 0.2343438 0.7837718
vt 0.2343438 0.7837718
vt 0.3270256 0.7379127
vt 0.3673113 0.8190135
vt 0.2744597 0.8628029
vt 0.2343438 0.7837718
vt 0.3270256 0.7379127
vt 0.3673113 0.8190135
vt 0.2744597 0.8628029
vt 0.2343438 0.7837718
vt 0.3270256 0.7379127
vt 0.3673113 0.8190135
vt 0.2744597 0.8628029
vt 0.2343438 0.7837718
vt 0.3270256 0.7379127
vt 0.3673113 0.8190135
vt 0.2744597 0.8628029
vt 0.2343438 0.7837718
vt 0.3270256 0.7379127
vt 0.3673113 0.8190135
vt 0.2744597 0.8628029
vt 0.2343438 0.7837718
vt 0.3270256 0.7379127
vt 0.3673113 0.8190135
vt 0.2744597 0.8628029
vt 0.2343438 0.7837718
vt 0.3270256 0.7379127
vt 0.3673113 0.8190135
vt 0.2744597 0.8628029
vt 0.2343438 0.7837718
vt 0.3270256 0.7379127
vt 0.3673113 0.8190135
vt 0.2744597 0.8628029
vt 0.2343438 0.7837718
vt 0.3270256 0.7379127
vt 0.3673113 0.8190135
vt 0.2744597 0.8628029
vt 0.2343438 0.7837718
vt 0.3270256 0.7379127
vt 0.3673113 0.8190135
vt 0.2744597 0.8628029
vt 0.2343438 0.7837718
vt 0.3270256 0.7379127
vt 0.3673113 0.8190135
vt 0.2744597 0.8628029
vt 0.2343438 0.7837718
vt 0.3270256 0.7379127
vt 0.3673113 0.8190135
vt 0.2744597 0.8628029
vt 0.2343438 0.7837718
vt 0.3270256 0.7379127
vt 0.3673113 0.8190135
vt 0.2744597 0.8628029
vt 0.2343438 0.7837718
vt 0.3270256 0.7379127
vt 0.3673113 0.8190135
vt 0.2744597 0.8628029
vt 0.2343438 0.7837718
vt 0.3270256 0.7379127
vt 0.3673113 0.8190135
vt 0.2744597 0.8628029
vt 0.2343438 0.7837718
vt 0.3270256 0.7379127
vt 0.3673113 0.8190135
vt 0.2744597 0.8628029
vt 0.2343438 0.7837718
vt 0.3270256 0.7379127
vt 0.3673113 0.8190135
vt 0.2744597 0.8628029
vt 0.2343438 0.7837718
vt 0.3270256 0.7379127
vt 0.3673113 0.8190135
vt 0.2744597 0.8628029
vt 0.2343438 0.7837718
vt 0.3270256 0.7379127
vt 0.3673113 0.8190135
vt 0.2744597 0.8628029
vt 0.2343438 0.7837718
vt 0.3270256 0.7379127
vt 0.3673113 0.8190135
vt 0.2744597 0.8628029
vt 0.2343438 0.7837718
vt 0.3270256 0.7379127
vt 0.3673113 0.8190135
vt 0.2744597 0.8628029
vt 0.2343438 0.7837718
vt 0.3270256 0.7379127
vt 0.3673113 0.8190135
vt 0.2744597 0.8628029
vt 0.2343438 0.7837718
vt 0.3270256 0.7379127
vt 0.3673113 0.8190135
vt 0.2744597 0.8628029
vt 0.2343438 0.7837718
vt 0.3270256 0.7379127
vt 0.3673113 0.8190135
vt 0.2744597 0.8628029
vt 0.2343438 0.7837718
vt 0.3270256 0.7379127
vt 0.3673113 0.8190135
vt 0.2744597 0.8628029
vt 0.2343438 0.7837718
vt 0.3270256 0.7379127
vt 0.3673113 0.8190135
vt 0.2744597 0.8628029
vt 0.2343438 0.7837718
vt 0.3270256 0.7379127
vt 0.3673113 0.8190135
vt 0.2744597 0.8628029
vt 0.2343438 0.7837718
vt 0.3270256 0.7379127
vt 0.3673113 0.8190135
vt 0.2744597 0.8628029
vt 0.2343438 0.7837718
vt 0.3270256 0.7379127
vt 0.3673113 0.8190135
vt 0.2744597 0.8628029
vt 0.2343438 0.7837718
vt 0.3270256 0.7379127
vt 0.3673113 0.8190135
vt 0.2744597 0.8628029
vt 0.2343438 0.7837718
vt 0.3270256 0.7379127
vt 0.3673113 0.8190135
vt 0.2744597 0.8628029
vt 0.2343438 0.7837718
vt 0.3270256 0.7379127
vt 0.3673113 0.8190135
vt 0.2744597 0.8628029
vt 0.2343438 0.7837718
vt 0.3270256 0.7379127
vt 0.3673113 0.8190135
vt 0.2744597 0.8628029
vt 0.2343438 0.7837718
vt 0.3270256 0.7379127
vt 0.3673113 0.8190135
vt 0.2744597 0.8628029
vt 0.2343438 0.7837718
vt 0.3270256 0.7379127
vt 0.3673113 0.8190135
vt 0.2744597 0.8628029
vt 0.2343438 0.7837718
vt 0.3270256 0.7379127
vt 0.3673113 0.8190135
vt 0.2744597 0.8628029
vt 0.2343438 0.7837718
vt 0.3270256 0.7379127
vt 0.3673113 0.8190135
vt 0.2744597 0.8628029
vt 0.2343438 0.7837718
vt 0.3270256 0.7379127
vt 0.3673113 0.8190135
vt 0.2744597 0.8628029
vt 0.2343438 0.7837718
vt 0.3270256 0.7379127
vt 0.3673113 0.8190135
vt 0.2744597 0.8628029
vt 0.2343438 0.7837718
vt 0.3270256 0.7379127
vt 0.3673113 0.8190135
vt 0.2744597 0.8628029
vt 0.2343438 0.7837718
vt 0.3270256 0.7379127
vt 0.3673113 0.8190135
vt 0.2744597 0.8628029
vt 0.2343438 0.7837718
vt 0.3270256 0.7379127
vt 0.3673113 0.8190135
vt 0.2744597 0.8628029
vt 0.2343438 0.7837718
vt 0.3270256 0.7379127
vt 0.3673113 0.8190135
vt 0.2744597 0.8628029
vt 0.2343438 0.7837718
vt 0.3270256 0.7379127
vt 0.3673113 0.8190135
vt 0.2744597 0.8628029
vt 0.2343438 0.7837718
vt 0.3270256 0.7379127
vt 0.3673113 0.8190135
vt 0.2744597 0.8628029
vt 0.571822 0.9419652
vt 0.5644003 0.9348297
vt 0.5571921 0.9417181
vt 0.5717815 0.9277761
vt 0.5497705 0.9345826
vt 0.5425622 0.941471
vt 0.5424264 0.9275218
vt 0.5643598 0.9206406
vt 0.571741 0.913587
vt 0.5570158 0.9135798
vt 0.5496346 0.9206334
vt 0.5422906 0.9135725
vt 0.5569786 0.9276942
vt 0.571822 0.9419652
vt 0.5644003 0.9348297
vt 0.5571921 0.9417181
vt 0.5717815 0.9277761
vt 0.5497705 0.9345826
vt 0.5425622 0.941471
vt 0.5424264 0.9275218
vt 0.5643598 0.9206406
vt 0.571741 0.913587
vt 0.5570158 0.9135798
vt 0.5496346 0.9206334
vt 0.5422906 0.9135725
vt 0.5569786 0.9276942
vt 0.571822 0.9419652
vt 0.5644003 0.9348297
vt 0.5571921 0.9417181
vt 0.5717815 0.9277761
vt 0.5497705 0.9345826
vt 0.5425622 0.941471
vt 0.5424264 0.9275218
vt 0.5643598 0.9206406
vt 0.571741 0.913587
vt 0.5570158 0.9135798
vt 0.5496346 0.9206334
vt 0.5422906 0.9135725
vt 0.5569786 0.9276942
vt 0.571822 0.9419652
vt 0.5644003 0.9348297
vt 0.5571921 0.9417181
vt 0.5717815 0.9277761
vt 0.5497705 0.9345826
vt 0.5425622 0.941471
vt 0.5424264 0.9275218
vt 0.5643598 0.9206406
vt 0.571741 0.913587
vt 0.5570158 0.9135798
vt 0.5496346 0.9206334
vt 0.5422906 0.9135725
vt 0.5569786 0.9276942
vt 0.571822 0.9419652
vt 0.5644003 0.9348297
vt 0.5571921 0.9417181
vt 0.5717815 0.9277761
vt 0.5497705 0.9345826
vt 0.5425622 0.941471
vt 0.5424264 0.9275218
vt 0.5643598 0.9206406
vt 0.571741 0.913587
vt 0.5570158 0.9135798
vt 0.5496346 0.9206334
vt 0.5422906 0.9135725
vt 0.5569786 0.9276942
usemtl MV_IvyCoastal
f 1/1/1 3/3/3 2/2/2
f 4/4/4 6/6/6 5/5/5
f 7/7/7 9/9/9 8/8/8
f 10/10/10 12/12/12 11/11/11
f 13/13/13 15/15/15 14/14/14
f 16/16/16 18/18/18 17/17/17
f 19/19/19 21/21/21 20/20/20
f 22/22/22 24/24/24 23/23/23
f 25/25/25 27/27/27 26/26/26
f 28/28/28 30/30/30 29/29/29
f 31/31/31 33/33/33 32/32/32
f 34/34/34 36/36/36 35/35/35
f 37/37/37 39/39/39 38/38/38
f 40/40/40 42/42/42 41/41/41
f 43/43/43 45/45/45 44/44/44
f 46/46/46 48/48/48 47/47/47
f 49/49/49 51/51/51 50/50/50
f 52/52/52 54/54/54 53/53/53
f 55/55/55 57/57/57 56/56/56
f 58/58/58 60/60/60 59/59/59
f 61/61/61 63/63/63 62/62/62
f 64/64/64 66/66/66 65/65/65
f 67/67/67 69/69/69 68/68/68
f 70/70/70 72/72/72 71/71/71
f 73/73/73 75/75/75 74/74/74
f 76/76/76 78/78/78 77/77/77
f 79/79/79 81/81/81 80/80/80
f 82/82/82 84/84/84 83/83/83
f 85/85/85 87/87/87 86/86/86
f 88/88/88 90/90/90 89/89/89
f 91/91/91 93/93/93 92/92/92
f 94/94/94 96/96/96 95/95/95
f 97/97/97 99/99/99 98/98/98
f 100/100/100 102/102/102 101/101/101
f 103/103/103 105/105/105 104/104/104
f 106/106/106 108/108/108 107/107/107
f 109/109/109 111/111/111 110/110/110
f 112/112/112 114/114/114 113/113/113
f 115/115/115 117/117/117 116/116/116
f 118/118/118 120/120/120 119/119/119
f 121/121/121 123/123/123 122/122/122
f 124/124/124 126/126/126 125/125/125
f 127/127/127 129/129/129 128/128/128
f 130/130/130 132/132/132 131/131/131
f 133/133/133 135/135/135 134/134/134
f 136/136/136 138/138/138 137/137/137
f 139/139/139 141/141/141 140/140/140
f 142/142/142 144/144/144 143/143/143
f 145/145/145 147/147/147 146/146/146
f 148/148/148 150/150/150 149/149/149
f 151/151/151 153/153/153 152/152/152
f 153/153/153 151/151/151 154/154/154
f 155/155/155 157/157/157 156/156/156
f 157/157/157 155/155/155 158/158/158
f 159/159/159 161/161/161 160/160/160
f 161/161/161 159/159/159 162/162/162
f 163/163/163 165/165/165 164/164/164
f 165/165/165 163/163/163 166/166/166
f 167/167/167 169/169/169 168/168/168
f 169/169/169 167/167/167 170/170/170
f 171/171/171 173/173/173 172/172/172
f 173/173/173 171/171/171 174/174/174
f 175/175/175 177/177/177 176/176/176
f 177/177/177 175/175/175 178/178/178
f 179/179/179 181/181/181 180/180/180
f 181/181/181 179/179/179 182/182/182
f 183/183/183 185/185/185 184/184/184
f 185/185/185 183/183/183 186/186/186
f 187/187/187 189/189/189 188/188/188
f 189/189/189 187/187/187 190/190/190
f 191/191/191 193/193/193 192/192/192
f 193/193/193 191/191/191 194/194/194
f 195/195/195 197/197/197 196/196/196
f 197/197/197 195/195/195 198/198/198
f 199/199/199 201/201/201 200/200/200
f 201/201/201 199/199/199 202/202/202
f 203/203/203 205/205/205 204/204/204
f 205/205/205 203/203/203 206/206/206
f 207/207/207 209/209/209 208/208/208
f 209/209/209 207/207/207 210/210/210
f 211/211/211 213/213/213 212/212/212
f 213/213/213 211/211/211 214/214/214
f 215/215/215 217/217/217 216/216/216
f 217/217/217 215/215/215 218/218/218
f 219/219/219 221/221/221 220/220/220
f 221/221/221 219/219/219 222/222/222
f 223/223/223 225/225/225 224/224/224
f 225/225/225 223/223/223 226/226/226
f 227/227/227 229/229/229 228/228/228
f 229/229/229 227/227/227 230/230/230
f 231/231/231 233/233/233 232/232/232
f 233/233/233 231/231/231 234/234/234
f 235/235/235 237/237/237 236/236/236
f 237/237/237 235/235/235 238/238/238
f 239/239/239 241/241/241 240/240/240
f 241/241/241 239/239/239 242/242/242
f 243/243/243 245/245/245 244/244/244
f 245/245/245 243/243/243 246/246/246
f 247/247/247 249/249/249 248/248/248
f 249/249/249 247/247/247 250/250/250
f 251/251/251 253/253/253 252/252/252
f 253/253/253 251/251/251 254/254/254
f 255/255/255 257/257/257 256/256/256
f 257/257/257 255/255/255 258/258/258
f 259/259/259 261/261/261 260/260/260
f 261/261/261 259/259/259 262/262/262
f 263/263/263 265/265/265 264/264/264
f 265/265/265 263/263/263 266/266/266
f 267/267/267 269/269/269 268/268/268
f 269/269/269 267/267/267 270/270/270
f 271/271/271 273/273/273 272/272/272
f 273/273/273 271/271/271 274/274/274
f 275/275/275 277/277/277 276/276/276
f 277/277/277 275/275/275 278/278/278
f 279/279/279 281/281/281 280/280/280
f 281/281/281 279/279/279 282/282/282
f 283/283/283 285/285/285 284/284/284
f 285/285/285 283/283/283 286/286/286
f 287/287/287 289/289/289 288/288/288
f 289/289/289 287/287/287 290/290/290
f 291/291/291 293/293/293 292/292/292
f 293/293/293 291/291/291 294/294/294
f 295/295/295 297/297/297 296/296/296
f 297/297/297 295/295/295 298/298/298
f 299/299/299 301/301/301 300/300/300
f 301/301/301 299/299/299 302/302/302
f 303/303/303 305/305/305 304/304/304
f 305/305/305 303/303/303 306/306/306
f 307/307/307 309/309/309 308/308/308
f 309/309/309 307/307/307 310/310/310
f 311/311/311 313/313/313 312/312/312
f 313/313/313 311/311/311 314/314/314
f 315/315/315 317/317/317 316/316/316
f 317/317/317 315/315/315 318/318/318
f 319/319/319 321/321/321 320/320/320
f 321/321/321 319/319/319 322/322/322
f 323/323/323 325/325/325 324/324/324
f 325/325/325 323/323/323 326/326/326
f 327/327/327 329/329/329 328/328/328
f 329/329/329 327/327/327 330/330/330
f 331/331/331 333/333/333 332/332/332
f 332/332/332 334/334/334 331/331/331
f 332/332/332 333/333/333 335/335/335
f 333/333/333 336/336/336 335/335/335
f 335/335/335 336/336/336 337/337/337
f 332/332/332 338/338/338 334/334/334
f 338/338/338 339/339/339 334/334/334
f 340/340/340 339/339/339 338/338/338
f 341/341/341 335/335/335 337/337/337
f 341/341/341 340/340/340 338/338/338
f 341/341/341 337/337/337 342/342/342
f 342/342/342 340/340/340 341/341/341
f 343/343/343 338/338/338 332/332/332
f 332/332/332 335/335/335 343/343/343
f 343/343/343 335/335/335 341/341/341
f 341/341/341 338/338/338 343/343/343
f 344/344/344 346/346/346 345/345/345
f 345/345/345 347/347/347 344/344/344
f 345/345/345 346/346/346 348/348/348
f 346/346/346 349/349/349 348/348/348
f 348/348/348 349/349/349 350/350/350
f 345/345/345 351/351/351 347/347/347
f 351/351/351 352/352/352 347/347/347
f 353/353/353 352/352/352 351/351/351
f 354/354/354 348/348/348 350/350/350
f 354/354/354 353/353/353 351/351/351
f 354/354/354 350/350/350 355/355/355
f 355/355/355 353/353/353 354/354/354
f 356/356/356 351/351/351 345/345/345
f 345/345/345 348/348/348 356/356/356
f 356/356/356 348/348/348 354/354/354
f 354/354/354 351/351/351 356/356/356
f 357/357/357 359/359/359 358/358/358
f 358/358/358 360/360/360 357/357/357
f 358/358/358 359/359/359 361/361/361
f 359/359/359 362/362/362 361/361/361
f 361/361/361 362/362/362 363/363/363
f 358/358/358 364/364/364 360/360/360
f 364/364/364 365/365/365 360/360/360
f 366/366/366 365/365/365 364/364/364
f 367/367/367 361/361/361 363/363/363
f 367/367/367 366/366/366 364/364/364
f 367/367/367 363/363/363 368/368/368
f 368/368/368 366/366/366 367/367/367
f 369/369/369 364/364/364 358/358/358
f 358/358/358 361/361/361 369/369/369
f 369/369/369 361/361/361 367/367/367
f 367/367/367 364/364/364 369/369/369
f 370/370/370 372/372/372 371/371/371
f 371/371/371 373/373/373 370/370/370
f 371/371/371 372/372/372 374/374/374
f 372/372/372 375/375/375 374/374/374
f 374/374/374 375/375/375 376/376/376
f 371/371/371 377/377/377 373/373/373
f 377/377/377 378/378/378 373/373/373
f 379/379/379 378/378/378 377/377/377
f 380/380/380 374/374/374 376/376/376
f 380/380/380 379/379/379 377/377/377
f 380/380/380 376/376/376 381/381/381
f 381/381/381 379/379/379 380/380/380
f 382/382/382 377/377/377 371/371/371
f 371/371/371 374/374/374 382/382/382
f 382/382/382 374/374/374 380/380/380
f 380/380/380 377/377/377 382/382/382
f 383/383/383 385/385/385 384/384/384
f 384/384/384 386/386/386 383/383/383
f 384/384/384 385/385/385 387/387/387
f 385/385/385 388/388/388 387/387/387
f 387/387/387 388/388/388 389/389/389
f 384/384/384 390/390/390 386/386/386
f 390/390/390 391/391/391 386/386/386
f 392/392/392 391/391/391 390/390/390
f 393/393/393 387/387/387 389/389/389
f 393/393/393 392/392/392 390/390/390
f 393/393/393 389/389/389 394/394/394
f 394/394/394 392/392/392 393/393/393
f 395/395/395 390/390/390 384/384/384
f 384/384/384 387/387/387 395/395/395
f 395/395/395 387/387/387 393/393/393
f 393/393/393 390/390/390 395/395/395
