mtllib P_LilyPadCluster1.mtl
v -0.1561921 -0.007331336 0.6475128 1 1 1
v -0.550472 -0.007331336 0.6400897 1 1 1
v -0.5692478 -0.007331336 0.2461871 1 1 1
v -0.5316963 -0.007331336 1.033992 1 1 1
v -0.944752 -0.007331336 0.6326666 1 1 1
v 0.881366 -0.008051517 0.0359022 1 1 1
v 0.4539686 -0.008051517 -0.3175886 1 1 1
v 0.8224846 -0.008051517 -0.3280291 1 1 1
v 1.191 -0.008051517 -0.3384696 1 1 1
v 0.7636032 -0.008051517 -0.6919603 1 1 1
v -0.9532216 -0.003246172 -0.3984789 1 1 1
v -0.58465 -0.003246172 -0.349851 1 1 1
v -0.6765224 -0.003246172 0.01038396 1 1 1
v -0.4927775 -0.003246172 -0.7100859 1 1 1
v -0.2160782 -0.003246172 -0.3012232 1 1 1
v -0.3955581 0.007996578 0.4093416 1 1 1
v -0.3955581 0.007996578 -0.3765945 1 1 1
v 0 0.007996578 0.01637354 1 1 1
v 0.3955581 0.007996578 0.4093416 1 1 1
v 0.3955581 0.007996578 -0.3765945 1 1 1
v -0.115909 0.1171145 -0.08264305 1 1 1
v -0.03038144 0.1171145 -0.1642566 1 1 1
v -0.02205278 0.05221974 -0.1227148 1 1 1
v -0.08533758 0.05221974 -0.06232611 1 1 1
v -0.1231267 0.1171145 0.06513368 1 1 1
v 0.08527776 0.05221975 -0.1119988 1 1 1
v 0.1146727 0.1171145 -0.1497742 1 1 1
v 0.009966014 0.01381352 -0.01188178 1 1 1
v -0.09067822 0.05221975 0.04701898 1 1 1
v -0.01103908 0.1171145 0.1320928 1 1 1
v 0.1104159 0.05221974 -0.03041238 1 1 1
v 0.1486462 0.1171145 -0.03951258 1 1 1
v -0.007740707 0.05221974 0.09656436 1 1 1
v 0.1500429 0.1171145 0.09993654 1 1 1
v 0.1114494 0.05221974 0.07277081 1 1 1
v 0.03434565 0.02090934 -0.02263809 1 1 1
v 0.05712282 0.04634191 0.01409882 1 1 1
v 0.03092186 0.02090934 0.002438111 1 1 1
v 0.06308515 0.04634191 -0.02957002 1 1 1
v 0.02396293 0.02090934 -0.03524324 1 1 1
v 0.04641925 0.04634191 0.02689551 1 1 1
v 0.03134374 0.02090934 0.001933762 1 1 1
v 0.03856133 0.04634191 -0.05934319 1 1 1
v 0.002920047 0.02092692 -0.03835808 1 1 1
v 0.003120822 0.04634191 0.03848669 1 1 1
v 0.005507602 0.02090934 0.0088502 1 1 1
v -0.0006870226 0.04634948 -0.06515288 1 1 1
v -0.01028452 0.02083255 -0.03170468 1 1 1
v -0.0294409 0.04634191 0.02151227 1 1 1
v -0.01069353 0.02090934 0.0004045544 1 1 1
v -0.03196376 0.04625091 -0.0493935 1 1 1
v -0.0166068 0.02093141 -0.01051567 1 1 1
v -0.04470785 0.04635141 -0.006681696 1 1 1
v 0.07950383 0.07921196 -0.03254221 1 1 1
v 0.04699375 0.07921196 -0.07201107 1 1 1
v 0.0722276 0.07921196 0.02074989 1 1 1
v -0.001946968 0.07921196 -0.07925548 1 1 1
v -0.04343498 0.079118 -0.05835097 1 1 1
v 0.05458146 0.07921196 0.04184679 1 1 1
v -0.05968244 0.07921196 -0.003897551 1 1 1
v -0.03905969 0.07921196 0.03418715 1 1 1
v 0.002420186 0.07921196 0.05581057 1 1 1
v -0.08526956 0.117708 0.08359842 1 1 1
v -0.1382844 0.117708 -0.01594035 1 1 1
v -0.09797928 0.04113034 -0.01292275 1 1 1
v -0.05875176 0.04113034 0.06072943 1 1 1
v 0.04864479 0.117708 0.1281841 1 1 1
v -0.06056765 0.04113035 -0.1087791 1 1 1
v -0.0877237 0.117708 -0.1454875 1 1 1
v 0.01207084 0.008468919 -0.01387365 1 1 1
v 0.04033608 0.04113035 0.09371988 1 1 1
v 0.1389509 0.117708 0.04240248 1 1 1
v 0.02084528 0.04113034 -0.1109201 1 1 1
v 0.02230352 0.117708 -0.148381 1 1 1
v 0.1071567 0.04113034 0.03024713 1 1 1
v 0.1507794 0.117708 -0.1138486 1 1 1
v 0.115909 0.04113034 -0.08536838 1 1 1
v -0.1648701 0.04144892 -0.1218782 1 1 1
v -0.2322468 0.07672925 -0.1707791 1 1 1
v -0.03989613 0.07672925 -0.2789192 1 1 1
v -0.02921489 0.04140017 -0.1981533 1 1 1
v 0.2278308 0.07672925 -0.2111716 1 1 1
v -0.1887222 0.03511616 0.06451306 1 1 1
v -0.2723065 0.07363739 0.0994297 1 1 1
v 0.01223096 0.01331348 -0.01224231 1 1 1
v 0.1663167 0.0384927 -0.1492059 1 1 1
v 0.2861978 0.07672925 0.02544527 1 1 1
v -0.07342537 0.04359217 0.1471203 1 1 1
v -0.1072555 0.07672925 0.2168581 1 1 1
v 0.2062173 0.04198031 0.01501513 1 1 1
v 0.1259944 0.08177578 0.2707187 1 1 1
v 0.09033534 0.03935243 0.1806497 1 1 1
v 0.1034992 0.09681784 -0.2133912 1 1 1
v 0.07115302 0.03361498 -0.1311118 1 1 1
v -0.03493517 0.03361498 -0.1394336 1 1 1
v -0.07475665 0.09681784 -0.2273742 1 1 1
v 0.2531454 0.09681784 -0.04701405 1 1 1
v -0.1279233 0.03361498 -0.04685092 1 1 1
v -0.2310009 0.09681784 -0.07181103 1 1 1
v 0.02012257 0.006759867 -0.01029996 1 1 1
v 0.1602143 0.03361498 -0.03209312 1 1 1
v 0.1856908 0.09681784 0.1385841 1 1 1
v -0.08893702 0.03361497 0.04940967 1 1 1
v -0.1654939 0.09681784 0.08993188 1 1 1
v 0.120069 0.03361498 0.07836483 1 1 1
v -0.03390435 0.09681784 0.2547747 1 1 1
v -0.01062209 0.03361498 0.1475151 1 1 1
vn 0 1 0
vn 0 1 0
vn 0 1 0
vn 0 1 0
vn 0 1 0
vn 0 1 0
vn 0 1 0
vn 0 1 0
vn 0 1 0
vn 0 1 0
vn 0 1 0
vn 0 1 0
vn 0 1 0
vn 0 1 0
vn 0 1 0
vn 0 1 0
vn 0 1 0
vn 0 1 0
vn 0 1 0
vn 0 1 0
vn 0.7877583 0.4885603 0.375161
vn 0.2601608 0.544036 0.7977099
vn 0.2267571 0.748336 0.6233575
vn 0.6322067 0.7233684 0.2775838
vn 0.7640385 0.4968994 -0.4115048
vn -0.4106287 0.7642102 0.4973598
vn -0.5071941 0.5935012 0.6249085
vn 0.009152569 0.9999573 -0.001281781
vn 0.6128362 0.7193456 -0.3270685
vn 0.1425499 0.4808799 -0.8651208
vn -0.6490151 0.7542474 0.09944978
vn -0.8453823 0.5169085 0.1346634
vn 0.1225005 0.7237474 -0.6791047
vn -0.6343991 0.5875559 -0.5023105
vn -0.4990487 0.7560118 -0.4235523
vn -0.6258501 0.7576693 0.1850642
vn -0.7359174 0.5937555 -0.325392
vn -0.6169861 0.7479042 -0.2448825
vn -0.7733042 0.5927125 0.2251502
vn -0.3256469 0.7421553 0.5857982
vn -0.4323827 0.6002586 -0.6728558
vn -0.3280843 0.7535717 -0.5696405
vn -0.4009978 0.5715998 0.7158732
vn 0.1112843 0.7280605 0.6764198
vn 0.09048123 0.6032496 -0.7924034
vn 0.07551327 0.7597092 -0.6458635
vn 0.1338234 0.5554835 0.8206884
vn 0.5136758 0.7405937 0.4331954
vn 0.5734985 0.5820489 -0.5764708
vn 0.4743083 0.7424523 -0.473071
vn 0.633132 0.5618802 0.5323857
vn 0.6649765 0.744107 -0.06411758
vn 0.8168099 0.5711502 -0.08129647
vn -0.8607714 0.4512495 0.2354707
vn -0.4514637 0.4193765 0.7875938
vn -0.8174415 0.4487189 -0.3611661
vn 0.1412805 0.394875 0.907807
vn 0.7027963 0.4048921 0.5849271
vn -0.4737472 0.4593964 -0.7513445
vn 0.9021704 0.4195083 -0.1005062
vn 0.62628 0.4332289 -0.6481405
vn 0.09103369 0.4658313 -0.8801784
vn 0.597251 0.4122774 -0.6879816
vn 0.8848624 0.4641719 -0.0395328
vn 0.6892971 0.7227041 -0.05067956
vn 0.453334 0.7010146 -0.5505151
vn -0.1990612 0.4200723 -0.8853891
vn 0.3881409 0.7345057 0.5566399
vn 0.4962682 0.512058 0.701081
vn 0.001112039 0.9999646 -0.008344096
vn -0.155713 0.6941756 -0.7027615
vn -0.8282992 0.4053053 -0.3868438
vn -0.08138946 0.7344329 0.6737835
vn -0.1032343 0.4386646 0.8927015
vn -0.6416491 0.7016523 -0.3097909
vn -0.6982804 0.5062031 0.5061253
vn -0.568814 0.7252698 0.3878587
vn 0.2483569 0.9521967 0.1778773
vn 0.3226735 0.9179268 0.2308511
vn 0.0533343 0.9137498 0.4027613
vn 0.04432461 0.951295 0.3050788
vn -0.2714911 0.923716 0.2702615
vn 0.2543304 0.9600118 -0.1170186
vn 0.3390233 0.9291878 -0.1472184
vn -0.005866724 0.9999821 -0.001208715
vn -0.2123777 0.9550291 0.206918
vn -0.4077715 0.9099193 -0.07595561
vn 0.1122626 0.9480239 -0.2977378
vn 0.1595209 0.9037722 -0.3971761
vn -0.3108034 0.948233 -0.06523354
vn -0.143963 0.9246792 -0.3524814
vn -0.1114382 0.9543493 -0.2771264
vn -0.2511346 0.8128029 0.5256261
vn -0.201894 0.8971854 0.3928068
vn 0.137698 0.9075953 0.3966233
vn 0.1956135 0.8361803 0.5123845
vn -0.5480385 0.8301023 0.1028784
vn 0.3977105 0.9144648 0.07470314
vn 0.5009367 0.8589377 0.1062472
vn -0.005026496 0.9999831 0.002942469
vn -0.4263469 0.900276 0.08792911
vn -0.4350792 0.815459 -0.3817495
vn 0.3664312 0.9051685 -0.2154027
vn 0.5098906 0.8075984 -0.2963046
vn -0.3302922 0.8999636 -0.2845569
vn 0.102666 0.8665863 -0.4883522
vn 0.07955195 0.9156722 -0.3939744
vt 0.002709552 0.4193769
vt 0.06608284 0.4907453
vt 0.1294562 0.4193769
vt 0.00270955 0.5621136
vt 0.1294562 0.5621137
vt 0.1339659 0.4211837
vt 0.1339659 0.5645227
vt 0.1967436 0.4928532
vt 0.2595213 0.4211837
vt 0.2595213 0.5645227
vt 0.002709552 0.4193769
vt 0.06608284 0.4907453
vt 0.1294562 0.4193769
vt 0.00270955 0.5621136
vt 0.1294562 0.5621137
vt 0.1339659 0.4211837
vt 0.1339659 0.5645227
vt 0.1967436 0.4928532
vt 0.2595213 0.4211837
vt 0.2595213 0.5645227
vt 0.5233816 0.8556798
vt 0.5436078 0.8313586
vt 0.5516514 0.8506107
vt 0.5415382 0.8627713
vt 0.5260032 0.8951816
vt 0.5711521 0.8503072
vt 0.5826093 0.8307515
vt 0.5596949 0.8698629
vt 0.5428491 0.8825222
vt 0.5578542 0.909536
vt 0.5773611 0.8644394
vt 0.5950273 0.8590161
vt 0.5587745 0.8896995
vt 0.5996829 0.8960397
vt 0.5796889 0.8829513
vt 0.6172611 0.8672493
vt 0.6231956 0.8732874
vt 0.621521 0.8674449
vt 0.6141387 0.8728716
vt 0.615488 0.8651452
vt 0.6262335 0.8715682
vt 0.6214246 0.8674994
vt 0.6090041 0.8667783
vt 0.615612 0.861563
vt 0.6301846 0.8632433
vt 0.6233569 0.8634282
vt 0.6092869 0.8586127
vt 0.6168831 0.8596216
vt 0.627955 0.8560092
vt 0.6224502 0.8604863
vt 0.6131074 0.8529505
vt 0.6208066 0.8591766
vt 0.622784 0.8518527
vt 0.6110163 0.8784939
vt 0.6025203 0.8684114
vt 0.6248704 0.8791299
vt 0.6029618 0.8556623
vt 0.6093318 0.8462792
vt 0.6310423 0.8756369
vt 0.6247615 0.8445288
vt 0.6334598 0.8515322
vt 0.6370124 0.8630586
vt 0.5233816 0.8556798
vt 0.5436078 0.8313586
vt 0.5516514 0.8506107
vt 0.5415382 0.8627713
vt 0.5260032 0.8951816
vt 0.5711521 0.8503072
vt 0.5826093 0.8307515
vt 0.5596949 0.8698629
vt 0.5428491 0.8825222
vt 0.5578542 0.909536
vt 0.5773611 0.8644394
vt 0.5950273 0.8590161
vt 0.5587745 0.8896995
vt 0.5996829 0.8960397
vt 0.5796889 0.8829513
vt 0.5492659 0.8432614
vt 0.5436078 0.8313586
vt 0.5233816 0.8556798
vt 0.5356289 0.8596382
vt 0.5260032 0.8951816
vt 0.5748136 0.8427715
vt 0.5826093 0.8307515
vt 0.5596949 0.8698629
vt 0.5374644 0.8872932
vt 0.5578542 0.909536
vt 0.5833665 0.8622388
vt 0.5950273 0.8590161
vt 0.5585843 0.8967313
vt 0.5996829 0.8960397
vt 0.586746 0.8876294
vt 0.5233816 0.8556798
vt 0.5415382 0.8627713
vt 0.5516514 0.8506107
vt 0.5436078 0.8313586
vt 0.5260032 0.8951816
vt 0.5711521 0.8503072
vt 0.5826093 0.8307515
vt 0.5596949 0.8698629
vt 0.5428491 0.8825222
vt 0.5578542 0.909536
vt 0.5773611 0.8644394
vt 0.5950273 0.8590161
vt 0.5587745 0.8896995
vt 0.5996829 0.8960397
vt 0.5796889 0.8829513
usemtl MV_LilyPads
f 1/1/1 3/3/3 2/2/2
f 2/2/2 4/4/4 1/1/1
f 2/2/2 3/3/3 5/5/5
f 5/5/5 4/4/4 2/2/2
f 6/6/6 8/8/8 7/7/7
f 9/9/9 8/8/8 6/6/6
f 7/7/7 8/8/8 10/10/10
f 10/10/10 8/8/8 9/9/9
f 11/11/11 13/13/13 12/12/12
f 12/12/12 14/14/14 11/11/11
f 12/12/12 13/13/13 15/15/15
f 15/15/15 14/14/14 12/12/12
f 16/16/16 18/18/18 17/17/17
f 19/19/19 18/18/18 16/16/16
f 17/17/17 18/18/18 20/20/20
f 20/20/20 18/18/18 19/19/19
f 21/21/21 23/23/23 22/22/22
f 21/21/21 24/24/24 23/23/23
f 24/24/24 21/21/21 25/25/25
f 26/26/26 22/22/22 23/23/23
f 26/26/26 27/27/27 22/22/22
f 24/24/24 28/28/28 23/23/23
f 28/28/28 26/26/26 23/23/23
f 24/24/24 25/25/25 29/29/29
f 28/28/28 24/24/24 29/29/29
f 30/30/30 29/29/29 25/25/25
f 27/27/27 26/26/26 31/31/31
f 26/26/26 28/28/28 31/31/31
f 27/27/27 31/31/31 32/32/32
f 30/30/30 33/33/33 29/29/29
f 33/33/33 28/28/28 29/29/29
f 33/33/33 30/30/30 34/34/34
f 35/35/35 32/32/32 31/31/31
f 28/28/28 35/35/35 31/31/31
f 28/28/28 33/33/33 35/35/35
f 35/35/35 34/34/34 32/32/32
f 33/33/33 34/34/34 35/35/35
f 36/36/36 38/38/38 37/37/37
f 36/36/36 37/37/37 39/39/39
f 40/40/40 36/36/36 39/39/39
f 38/38/38 41/41/41 37/37/37
f 38/38/38 42/42/42 41/41/41
f 40/40/40 39/39/39 43/43/43
f 44/44/44 40/40/40 43/43/43
f 42/42/42 45/45/45 41/41/41
f 42/42/42 46/46/46 45/45/45
f 44/44/44 43/43/43 47/47/47
f 48/48/48 44/44/44 47/47/47
f 46/46/46 49/49/49 45/45/45
f 46/46/46 50/50/50 49/49/49
f 48/48/48 47/47/47 51/51/51
f 52/52/52 48/48/48 51/51/51
f 50/50/50 52/52/52 53/53/53
f 50/50/50 53/53/53 49/49/49
f 52/52/52 51/51/51 53/53/53
f 43/43/43 39/39/39 54/54/54
f 43/43/43 54/54/54 55/55/55
f 47/47/47 43/43/43 55/55/55
f 39/39/39 56/56/56 54/54/54
f 47/47/47 55/55/55 57/57/57
f 51/51/51 47/47/47 57/57/57
f 39/39/39 37/37/37 56/56/56
f 51/51/51 57/57/57 58/58/58
f 53/53/53 51/51/51 58/58/58
f 37/37/37 59/59/59 56/56/56
f 53/53/53 58/58/58 60/60/60
f 49/49/49 53/53/53 60/60/60
f 37/37/37 41/41/41 59/59/59
f 49/49/49 60/60/60 61/61/61
f 41/41/41 62/62/62 59/59/59
f 45/45/45 49/49/49 61/61/61
f 41/41/41 45/45/45 62/62/62
f 45/45/45 61/61/61 62/62/62
f 63/63/63 65/65/65 64/64/64
f 63/63/63 66/66/66 65/65/65
f 66/66/66 63/63/63 67/67/67
f 68/68/68 64/64/64 65/65/65
f 68/68/68 69/69/69 64/64/64
f 66/66/66 70/70/70 65/65/65
f 70/70/70 68/68/68 65/65/65
f 66/66/66 67/67/67 71/71/71
f 70/70/70 66/66/66 71/71/71
f 72/72/72 71/71/71 67/67/67
f 69/69/69 68/68/68 73/73/73
f 68/68/68 70/70/70 73/73/73
f 69/69/69 73/73/73 74/74/74
f 72/72/72 75/75/75 71/71/71
f 75/75/75 70/70/70 71/71/71
f 75/75/75 72/72/72 76/76/76
f 77/77/77 74/74/74 73/73/73
f 70/70/70 77/77/77 73/73/73
f 70/70/70 75/75/75 77/77/77
f 77/77/77 76/76/76 74/74/74
f 75/75/75 76/76/76 77/77/77
f 78/78/78 80/80/80 79/79/79
f 78/78/78 81/81/81 80/80/80
f 81/81/81 82/82/82 80/80/80
f 83/83/83 78/78/78 79/79/79
f 83/83/83 79/79/79 84/84/84
f 81/81/81 78/78/78 85/85/85
f 85/85/85 78/78/78 83/83/83
f 81/81/81 86/86/86 82/82/82
f 85/85/85 86/86/86 81/81/81
f 86/86/86 87/87/87 82/82/82
f 88/88/88 83/83/83 84/84/84
f 83/83/83 88/88/88 85/85/85
f 88/88/88 84/84/84 89/89/89
f 86/86/86 90/90/90 87/87/87
f 90/90/90 86/86/86 85/85/85
f 90/90/90 91/91/91 87/87/87
f 85/85/85 88/88/88 92/92/92
f 92/92/92 88/88/88 89/89/89
f 85/85/85 92/92/92 90/90/90
f 92/92/92 89/89/89 91/91/91
f 90/90/90 92/92/92 91/91/91
f 93/93/93 95/95/95 94/94/94
f 93/93/93 96/96/96 95/95/95
f 94/94/94 97/97/97 93/93/93
f 98/98/98 95/95/95 96/96/96
f 98/98/98 96/96/96 99/99/99
f 94/94/94 95/95/95 100/100/100
f 100/100/100 95/95/95 98/98/98
f 94/94/94 101/101/101 97/97/97
f 100/100/100 101/101/101 94/94/94
f 102/102/102 97/97/97 101/101/101
f 99/99/99 103/103/103 98/98/98
f 98/98/98 103/103/103 100/100/100
f 99/99/99 104/104/104 103/103/103
f 102/102/102 101/101/101 105/105/105
f 105/105/105 101/101/101 100/100/100
f 105/105/105 106/106/106 102/102/102
f 100/100/100 103/103/103 107/107/107
f 107/107/107 103/103/103 104/104/104
f 100/100/100 107/107/107 105/105/105
f 107/107/107 104/104/104 106/106/106
f 105/105/105 107/107/107 106/106/106
