mtllib P_RedFern01.mtl
v 0.3152777 0.787762 1.909088 0.972549 0.972549 0.972549
v 0.144721 0.5451254 2.100584 0.9764706 0.9764706 0.9764706
v -0.01963324 0.5528834 2.105038 0.9764706 0.9764706 0.9764706
v 0.06448265 0.8188226 1.927757 0.9686275 0.9686275 0.9686275
v 0.4572282 0.9506949 1.657498 0.9529412 0.9529412 0.9529412
v -0.09756015 0.545576 2.083701 0.9764706 0.9764706 0.9764706
v 0.1351286 1.017153 1.678836 0.9490196 0.9490196 0.9490196
v 0.5480702 1.036635 1.37901 0.8980392 0.8980392 0.8980392
v -0.08582454 0.8096659 1.908218 0.9686275 0.9686275 0.9686275
v -0.1663781 0.5484385 2.084743 0.9764706 0.9764706 0.9764706
v 0.1955121 1.132399 1.383816 0.8941177 0.8941177 0.8941177
v 0.5629979 1.06361 1.090227 0.8 0.8 0.8
v -0.2557716 0.821046 1.910173 0.972549 0.972549 0.972549
v -0.3106102 0.5517825 2.081259 0.9764706 0.9764706 0.9764706
v -0.5016977 0.7937315 1.864559 0.9686275 0.9686275 0.9686275
v -0.07112247 1.004556 1.659523 0.9490196 0.9490196 0.9490196
v -0.2995788 1.019363 1.655326 0.9490196 0.9490196 0.9490196
v -0.5833536 0.9659615 1.607189 0.9529412 0.9529412 0.9529412
v 0.2238548 1.159965 1.067893 0.7843137 0.7843137 0.7843137
v 0.4781949 1.039088 0.7889419 0.5411765 0.5411765 0.5411765
v -0.05508097 1.124307 1.368454 0.8941177 0.8941177 0.8941177
v -0.3347638 1.133521 1.355808 0.8941177 0.8941177 0.8941177
v -0.6579508 1.049608 1.317881 0.8980392 0.8980392 0.8980392
v 0.2081234 1.100365 0.7537812 0.4588235 0.4588235 0.4588235
v 0.3537809 0.9260885 0.4956224 0.145098 0.145098 0.145098
v 0.1385871 0.9556648 0.4640198 0.145098 0.145098 0.145098
v -0.03888252 1.153579 1.055087 0.7686275 0.7686275 0.7686275
v -0.3201527 1.162698 1.040492 0.7764706 0.7764706 0.7764706
v -0.6430231 1.076584 1.029098 0.7960784 0.7960784 0.7960784
v -0.0239434 1.089811 0.7468191 0.4470588 0.4470588 0.4470588
v -0.01156986 0.9385805 0.4706044 0.2039216 0.2039216 0.2039216
v -0.2890764 1.100906 0.7303482 0.5372549 0.5372549 0.5372549
v -0.5531398 1.042736 0.7394062 0.6156863 0.6156863 0.6156863
v -0.179091 0.9576115 0.4490342 0.227451 0.227451 0.227451
v -0.3752927 0.934372 0.4583335 0.3098039 0.3098039 0.3098039
v -0.06506144 1.734414 -2.005502 0.972549 0.972549 0.972549
v -0.4827101 1.726699 -2.305094 0.9764706 0.9764706 0.9764706
v -0.2955365 1.708514 -2.327144 0.9764706 0.9764706 0.9764706
v -0.3436725 1.810013 -1.967951 0.9686275 0.9686275 0.9686275
v 0.1259619 1.670671 -1.698438 0.9529412 0.9529412 0.9529412
v -0.568816 1.700764 -2.282635 0.9764706 0.9764706 0.9764706
v -0.2160774 1.812111 -1.622877 0.9490196 0.9490196 0.9490196
v 0.2582942 1.560347 -1.414679 0.8980392 0.8980392 0.8980392
v -0.5124139 1.785904 -1.935636 0.9686275 0.9686275 0.9686275
v -0.6460552 1.697763 -2.269764 0.9764706 0.9764706 0.9764706
v -0.09791886 1.739023 -1.287728 0.8941177 0.8941177 0.8941177
v 0.3204369 1.4436 -1.131669 0.8 0.8 0.8
v -0.7035622 1.774455 -1.901201 0.972549 0.972549 0.972549
v -0.806156 1.673647 -2.23666 0.9764706 0.9764706 0.9764706
v -0.9560041 1.647418 -1.840397 0.9686275 0.9686275 0.9686275
v -0.4474047 1.788813 -1.580596 0.9490196 0.9490196 0.9490196
v -0.7025025 1.763075 -1.533974 0.9490196 0.9490196 0.9490196
v -0.9845915 1.585187 -1.493502 0.9529412 0.9529412 0.9529412
v -0.01380743 1.602548 -0.968249 0.7764706 0.7764706 0.7764706
v 0.2957191 1.323013 -0.8116072 0.6156863 0.6156863 0.6156863
v -0.3780445 1.725714 -1.233017 0.8941177 0.8941177 0.8941177
v -0.6885685 1.677042 -1.182319 0.8941177 0.8941177 0.8941177
v -1.000502 1.451215 -1.183295 0.8980392 0.8980392 0.8980392
v 0.02326168 1.409775 -0.666869 0.4039216 0.4039216 0.4039216
v 0.2277973 1.129671 -0.4966672 0.2666667 0.2666667 0.2666667
v 0.0009520389 1.159429 -0.3901146 0.2196078 0.2196078 0.2196078
v -0.3064294 1.591172 -0.9068672 0.7490196 0.7490196 0.7490196
v -0.6197029 1.543495 -0.8604178 0.772549 0.772549 0.772549
v -0.9383589 1.334468 -0.9002843 0.7960784 0.7960784 0.7960784
v -0.2356368 1.390966 -0.6161613 0.3294118 0.3294118 0.3294118
v -0.1687082 1.1337 -0.3733898 0.227451 0.227451 0.227451
v -0.5323021 1.352338 -0.5727 0.4784314 0.4784314 0.4784314
v -0.8061497 1.21375 -0.620847 0.6156863 0.6156863 0.6156863
v -0.3567956 1.125718 -0.3278933 0.2627451 0.2627451 0.2627451
v -0.5739564 1.060952 -0.3482572 0.3764706 0.3764706 0.3764706
v -2.007922 1.216885 0.4810078 0.9686275 0.9686275 0.9686275
v -2.009424 1.224086 0.4897415 0.9686275 0.9686275 0.9686275
v -2.168293 1.122431 0.5267754 1 1 1
v -1.705132 1.324243 0.4037338 0.9490196 0.9490196 0.9490196
v -1.699219 1.310954 0.4160881 1 1 1
v -2.002682 1.209566 0.4879435 1 1 1
v -2.168293 1.122431 0.5267754 1 1 1
v -2.004151 1.216696 0.4966684 1 1 1
v -1.374637 1.336689 0.3382381 1 1 1
v -1.704745 1.337433 0.417737 0.9490196 0.9490196 0.9490196
v -1.378653 1.356089 0.3194736 0.8941177 0.8941177 0.8941177
v -1.058689 1.283088 0.2615137 0.8313726 0.8313726 0.8313726
v -1.058257 1.307989 0.2350912 0.627451 0.627451 0.627451
v -0.7779328 1.162226 0.1924554 0.5529412 0.5529412 0.5529412
v -1.37357 1.375495 0.3384474 0.8941177 0.8941177 0.8941177
v -1.698788 1.323926 0.4300777 1 1 1
v -0.770956 1.190604 0.1578474 0.2392157 0.2392157 0.2392157
v -0.518252 0.9679058 0.1275892 0.4313726 0.4313726 0.4313726
v -2.002682 1.209566 0.4879435 1 1 1
v -2.168293 1.122431 0.5267754 1 1 1
v -1.699219 1.310954 0.4160881 1 1 1
v -1.369566 1.355636 0.3572094 1 1 1
v -1.374637 1.336689 0.3382381 1 1 1
v -1.045502 1.333075 0.2589388 0.7490196 0.7490196 0.7490196
v -1.046142 1.307384 0.285402 1 1 1
v -1.058689 1.283088 0.2615137 0.8313726 0.8313726 0.8313726
v -0.5027251 0.9966356 0.08427742 0.1254902 0.1254902 0.1254902
v -0.2684684 0.6592115 0.06373195 0.4117647 0.4117647 0.4117647
v -0.748251 1.219353 0.1859944 0.3411765 0.3411765 0.3411765
v -0.755814 1.189848 0.22073 0.7921569 0.7921569 0.7921569
v -0.7779328 1.162226 0.1924554 0.5529412 0.5529412 0.5529412
v -0.4678351 1.025831 0.1161449 0.1490196 0.1490196 0.1490196
v -0.4845566 0.995729 0.1597279 0.5058824 0.5058824 0.5058824
v -0.518252 0.9679058 0.1275892 0.4313726 0.4313726 0.4313726
v -0.2460714 0.6794506 0.0186638 0.01568628 0.01568628 0.01568628
v -0.2039776 0.6997438 0.04868966 0.01568628 0.01568628 0.01568628
v -0.227903 0.678544 0.09411427 0.5058824 0.5058824 0.5058824
v -0.1052302 0.2424003 0.0194156 0.003921569 0.003921569 0.003921569
v -0.07834344 0.2511753 -0.02687143 0.003921569 0.003921569 0.003921569
v -0.07348991 -0.07579947 0.007948892 0.003921569 0.003921569 0.003921569
v -0.03154197 0.2594478 0.001876349 0.003921569 0.003921569 0.003921569
v -0.060175 0.2502687 0.04857903 0.003921569 0.003921569 0.003921569
v -0.1052302 0.2424003 0.0194156 0.003921569 0.003921569 0.003921569
v -0.04573017 -0.07577624 -0.03865353 0.003921569 0.003921569 0.003921569
v 0.00198668 -0.07668055 -0.01023644 0.003921569 0.003921569 0.003921569
v -0.02756172 -0.0766829 0.03679693 0.003921569 0.003921569 0.003921569
v -2.068011 1.143535 0.07998155 0.972549 0.972549 0.972549
v -2.3106 1.049916 0.4743514 0.9764706 0.9764706 0.9764706
v -2.330222 1.026111 0.3028029 0.9764706 0.9764706 0.9764706
v -2.047776 1.223584 0.3349338 0.9686275 0.9686275 0.9686275
v -1.791113 1.169788 -0.1061375 0.9529412 0.9529412 0.9529412
v -2.280106 1.035092 0.5526505 0.9764706 0.9764706 0.9764706
v -1.750561 1.32011 0.2048126 0.9490196 0.9490196 0.9490196
v -1.522237 1.141731 -0.2367419 0.8980392 0.8980392 0.8980392
v -2.006771 1.213835 0.4889795 0.9686275 0.9686275 0.9686275
v -2.265434 1.037022 0.6232522 0.9764706 0.9764706 0.9764706
v -1.440444 1.338773 0.08376127 0.8941177 0.8941177 0.8941177
v -1.251639 1.102429 -0.3023743 0.8 0.8 0.8
v -1.966845 1.216005 0.6635638 0.972549 0.972549 0.972549
v -2.223821 1.027573 0.7692722 0.9764706 0.9764706 0.9764706
v -1.868081 1.125631 0.8935428 0.9686275 0.9686275 0.9686275
v -1.699035 1.31465 0.4160883 0.9490196 0.9490196 0.9490196
v -1.642206 1.30859 0.6490743 0.9490196 0.9490196 0.9490196
v -1.549091 1.167322 0.9079361 0.9529412 0.9529412 0.9529412
v -1.128256 1.289015 -0.00458998 0.772549 0.772549 0.772549
v -0.9437774 1.062797 -0.2897516 0.5960785 0.5960785 0.5960785
v -1.378663 1.346225 0.3393221 0.8941177 0.8941177 0.8941177
v -1.310739 1.32196 0.6233913 0.8941177 0.8941177 0.8941177
v -1.245429 1.127917 0.9127955 0.8980392 0.8980392 0.8980392
v -0.8202786 1.177412 -0.047575 0.3843137 0.3843137 0.3843137
v -0.6245879 0.9495012 -0.2356709 0.3215686 0.3215686 0.3215686
v -0.5244946 1.002641 -0.03285072 0.1686275 0.1686275 0.1686275
v -1.060194 1.29997 0.262079 0.7450981 0.7450981 0.7450981
v -0.9967517 1.27576 0.5489749 0.772549 0.772549 0.772549
v -0.9748304 1.088615 0.8471634 0.7960784 0.7960784 0.7960784
v -0.7612524 1.178445 0.1886336 0.3294118 0.3294118 0.3294118
v -0.4983821 0.9883756 0.1230505 0.1490196 0.1490196 0.1490196
v -0.7034521 1.161436 0.4603253 0.4666667 0.4666667 0.4666667
v -0.7093896 1.036071 0.7173049 0.6117647 0.6117647 0.6117647
v -0.448565 0.9956812 0.2940824 0.1843137 0.1843137 0.1843137
v -0.4474807 0.9415921 0.4964247 0.3568628 0.3568628 0.3568628
v 1.556021 1.708558 1.722479 0.972549 0.972549 0.972549
v 2.074917 1.793776 1.640107 0.9764706 0.9764706 0.9764706
v 1.959848 1.749387 1.791934 0.9764706 0.9764706 0.9764706
v 1.717676 1.823255 1.496286 0.9686275 0.9686275 0.9686275
v 1.200821 1.595903 1.628385 0.9529412 0.9529412 0.9529412
v 2.125662 1.777907 1.560468 0.9764706 0.9764706 0.9764706
v 1.375425 1.784869 1.334936 0.9490196 0.9490196 0.9490196
v 0.9050812 1.455385 1.502206 0.8980392 0.8980392 0.8980392
v 1.820036 1.82068 1.349181 0.9686275 0.9686275 0.9686275
v 2.172476 1.785111 1.494815 0.9764706 0.9764706 0.9764706
v 1.05429 1.684782 1.167823 0.8941177 0.8941177 0.8941177
v 0.6568598 1.327178 1.322558 0.8 0.8 0.8
v 1.934979 1.834112 1.184836 0.972549 0.972549 0.972549
v 2.268369 1.781109 1.353621 0.9764706 0.9764706 0.9764706
v 2.09391 1.7365 0.9516047 0.9686275 0.9686275 0.9686275
v 1.515523 1.791428 1.135114 0.9490196 0.9490196 0.9490196
v 1.670025 1.798617 0.9147565 0.9490196 0.9490196 0.9490196
v 1.868524 1.654267 0.6693779 0.9529412 0.9529412 0.9529412
v 0.7713845 1.537098 0.9797464 0.7843137 0.7843137 0.7843137
v 0.4432143 1.218156 1.051832 0.6235294 0.6235294 0.6235294
v 1.219778 1.707949 0.9244915 0.8941177 0.8941177 0.8941177
v 1.413843 1.698959 0.6590825 0.8941177 0.8941177 0.8941177
v 1.664177 1.509069 0.4150464 0.8980392 0.8980392 0.8980392
v 0.5346274 1.349213 0.7618529 0.5411765 0.5411765 0.5411765
v 0.2657271 1.052418 0.7435301 0.3490196 0.3490196 0.3490196
v 0.3552084 1.119418 0.5079725 0.145098 0.145098 0.145098
v 0.9413644 1.564147 0.7229916 0.7764706 0.7764706 0.7764706
v 1.139781 1.556144 0.4583442 0.7764706 0.7764706 0.7764706
v 1.415955 1.380861 0.2353982 0.7960784 0.7960784 0.7960784
v 0.6883505 1.364189 0.5364541 0.4196078 0.4196078 0.4196078
v 0.468069 1.113871 0.3702846 0.1215686 0.1215686 0.1215686
v 0.8757735 1.362873 0.2866326 0.5019608 0.5019608 0.5019608
v 1.116747 1.250284 0.1070049 0.6117647 0.6117647 0.6117647
v 0.5735229 1.131548 0.2011659 0.1372549 0.1372549 0.1372549
v 0.7484552 1.087526 0.05046152 0.2784314 0.2784314 0.2784314
v -0.3719837 2.096605 1.381876 0.972549 0.972549 0.972549
v -0.5972415 2.215445 1.588259 0.9764706 0.9764706 0.9764706
v -0.6973507 2.258089 1.52834 0.9764706 0.9764706 0.9764706
v -0.4974486 2.201039 1.283618 0.9686275 0.9686275 0.9686275
v -0.2015246 1.927059 1.189931 0.9529412 0.9529412 0.9529412
v -0.7498254 2.244743 1.499065 0.9764706 0.9764706 0.9764706
v -0.3207982 2.087355 1.046129 0.9490196 0.9490196 0.9490196
v -0.07759433 1.745156 1.008158 0.8980392 0.8980392 0.8980392
v -0.5962005 2.200842 1.228241 0.9686275 0.9686275 0.9686275
v -0.793163 2.249988 1.473915 0.9764706 0.9764706 0.9764706
v -0.1677812 1.925415 0.825689 0.8941177 0.8941177 0.8941177
v 0.02233918 1.575078 0.8179981 0.8 0.8 0.8
v -0.7056695 2.207915 1.164911 0.972549 0.972549 0.972549
v -0.8867214 2.241081 1.420831 0.9764706 0.9764706 0.9764706
v -0.8581659 2.113634 1.104443 0.9686275 0.9686275 0.9686275
v -0.4528478 2.09635 0.9692847 0.9490196 0.9490196 0.9490196
v -0.6005188 2.096049 0.888415 0.9490196 0.9490196 0.9490196
v -0.7751744 1.967397 0.8554879 0.9529412 0.9529412 0.9529412
v -0.04930808 1.729157 0.6169595 0.7686275 0.7686275 0.7686275
v 0.104347 1.41431 0.5890723 0.5058824 0.5058824 0.5058824
v -0.3214652 1.948083 0.7267275 0.8941177 0.8941177 0.8941177
v -0.5057181 1.934233 0.638649 0.8941177 0.8941177 0.8941177
v -0.7026339 1.779185 0.6490119 0.8980392 0.8980392 0.8980392
v 0.02970184 1.505087 0.4156763 0.4078431 0.4078431 0.4078431
v 0.1464245 1.209596 0.355846 0.1137255 0.1137255 0.1137255
v 0.05923925 1.252415 0.2219223 0.1333333 0.1333333 0.1333333
v -0.207242 1.753685 0.5093765 0.7529412 0.7529412 0.7529412
v -0.3945436 1.742523 0.4246513 0.7686275 0.7686275 0.7686275
v -0.6028202 1.609311 0.4590802 0.7803922 0.7803922 0.7803922
v -0.1137395 1.519218 0.3240076 0.3764706 0.3764706 0.3764706
v -0.04387257 1.251992 0.1764002 0.1529412 0.1529412 0.1529412
v -0.2907456 1.515196 0.2432224 0.4235294 0.4235294 0.4235294
v -0.4756479 1.436033 0.2717771 0.4313726 0.4313726 0.4313726
v -0.1488936 1.261869 0.1072535 0.1529412 0.1529412 0.1529412
v -0.2955583 1.234758 0.1010993 0.1529412 0.1529412 0.1529412
v 1.561669 1.155876 -1.307339 0.972549 0.972549 0.972549
v 1.908246 1.059412 -1.304763 0.9764706 0.9764706 0.9764706
v 2.001453 1.091383 -1.163368 0.9764706 0.9764706 0.9764706
v 1.704663 1.247578 -1.103974 0.9686275 0.9686275 0.9686275
v 1.232309 1.165466 -1.270874 0.9529412 0.9529412 0.9529412
v 2.029286 1.079927 -1.084553 0.9764706 0.9764706 0.9764706
v 1.392573 1.328741 -1.014189 0.9490196 0.9490196 0.9490196
v 0.9467317 1.125838 -1.196234 0.8980392 0.8980392 0.8980392
v 1.772545 1.244833 -0.9614204 0.9686275 0.9686275 0.9686275
v 2.063142 1.085108 -1.021988 0.9764706 0.9764706 0.9764706
v 1.080562 1.334843 -0.907558 0.8941177 0.8941177 0.8941177
v 0.7015 1.079491 -1.071105 0.8 0.8 0.8
v 1.853689 1.254949 -0.8043364 0.972549 0.972549 0.972549
v 2.125467 1.082195 -0.8851188 0.9764706 0.9764706 0.9764706
v 1.930874 1.174983 -0.5658436 0.9686275 0.9686275 0.9686275
v 1.488781 1.332916 -0.8218558 0.9490196 0.9490196 0.9490196
v 1.59487 1.337482 -0.6097527 0.9490196 0.9490196 0.9490196
v 1.696883 1.209065 -0.3516771 0.9529412 0.9529412 0.9529412
v 0.7907969 1.276585 -0.7731201 0.7843137 0.7843137 0.7843137
v 0.4780979 1.037407 -0.8631985 0.6196079 0.6196079 0.6196079
v 1.19669 1.353786 -0.6756225 0.8941177 0.8941177 0.8941177
v 1.327821 1.342717 -0.4174328 0.8941177 0.8941177 0.8941177
v 1.472066 1.164327 -0.152411 0.8980392 0.8980392 0.8980392
v 0.5352989 1.161067 -0.6052632 0.4745098 0.4745098 0.4745098
v 0.2752886 0.9259604 -0.6145712 0.3333333 0.3333333 0.3333333
v 0.3275213 0.9874875 -0.3994915 0.1372549 0.1372549 0.1372549
v 0.9091797 1.299448 -0.5289206 0.7647059 0.7647059 0.7647059
v 1.045399 1.288623 -0.2714204 0.772549 0.772549 0.772549
v 1.226835 1.11798 -0.02728212 0.7960784 0.7960784 0.7960784
v 0.6414837 1.172783 -0.3895241 0.3764706 0.3764706 0.3764706
v 0.4077882 0.9805027 -0.2648199 0.1098039 0.1098039 0.1098039
v 0.7718993 1.168366 -0.1472656 0.4588235 0.4588235 0.4588235
v 0.9449728 1.056747 0.0465138 0.5843138 0.5843138 0.5843138
v 0.4791353 0.9954484 -0.1043103 0.1058824 0.1058824 0.1058824
v 0.6092072 0.9513475 0.05069267 0.1686275 0.1686275 0.1686275
v 1.92347 1.161254 -1.034296 1 1 1
v 1.768161 1.24746 -0.9682322 0.9686275 0.9686275 0.9686275
v 1.769035 1.240453 -0.9594926 1 1 1
v 1.489104 1.329272 -0.8218843 1 1 1
v 1.485015 1.341897 -0.835298 0.9490196 0.9490196 0.9490196
v 1.193397 1.344246 -0.673613 0.9764706 0.9764706 0.9764706
v 1.774471 1.255063 -0.9627673 0.9686275 0.9686275 0.9686275
v 1.18357 1.36254 -0.6908374 0.8745098 0.8745098 0.8745098
v 0.9083754 1.28273 -0.5278993 0.7176471 0.7176471 0.7176471
v 1.775318 1.247985 -0.9540117 1 1 1
v 1.769035 1.240453 -0.9594926 1 1 1
v 1.492996 1.355622 -0.8248146 0.9490196 0.9490196 0.9490196
v 1.497054 1.342779 -0.8113768 1 1 1
v 1.489104 1.329272 -0.8218843 1 1 1
v 0.8901676 1.306035 -0.5482538 0.5529412 0.5529412 0.5529412
v 0.6571018 1.15708 -0.3968053 0.5254902 0.5254902 0.5254902
v 1.190959 1.382552 -0.6737985 0.8941177 0.8941177 0.8941177
v 1.200815 1.363804 -0.6565719 1 1 1
v 1.193397 1.344246 -0.673613 0.9764706 0.9764706 0.9764706
v 0.6287102 1.183413 -0.4193076 0.2039216 0.2039216 0.2039216
v 0.4263345 0.9605556 -0.2734185 0.6392157 0.6392157 0.6392157
v 0.8947362 1.331799 -0.5228445 0.7647059 0.7647059 0.7647059
v 0.9131595 1.307719 -0.5025698 1 1 1
v 0.9083754 1.28273 -0.5278993 0.7176471 0.7176471 0.7176471
v 0.3860511 0.9868872 -0.2970947 0.07450981 0.07450981 0.07450981
v 0.2059963 0.6525043 -0.1511678 0.2117647 0.2117647 0.2117647
v 0.6284909 1.212954 -0.3844664 0.3921569 0.3921569 0.3921569
v 0.6574474 1.185518 -0.3622079 1 1 1
v 0.6571018 1.15708 -0.3968053 0.5254902 0.5254902 0.5254902
v 0.3791296 1.017085 -0.2517456 0.1098039 0.1098039 0.1098039
v 0.4205317 0.9894135 -0.2285829 0.9882353 0.9882353 0.9882353
v 0.4263345 0.9605556 -0.2734185 0.6392157 0.6392157 0.6392157
v 0.1597869 0.6705508 -0.1715561 0.007843138 0.007843138 0.007843138
v 0.1942674 0.673077 -0.1030443 0.5254902 0.5254902 0.5254902
v 0.1466516 0.6920611 -0.1227594 0.02745098 0.02745098 0.02745098
v 0.06417541 0.2395558 -0.06456528 0.003921569 0.003921569 0.003921569
v 0.01415162 0.246496 -0.08262442 0.003921569 0.003921569 0.003921569
v 0.03864454 -0.07507842 -0.04011439 0.003921569 0.003921569 0.003921569
v -0.002983127 0.2563607 -0.03138544 0.003921569 0.003921569 0.003921569
v 0.0486322 0.2490223 -0.0141126 0.003921569 0.003921569 0.003921569
v 0.06417541 0.2395558 -0.06456528 0.003921569 0.003921569 0.003921569
v -0.0120659 -0.07660034 -0.05751593 0.003921569 0.003921569 0.003921569
v -0.02992064 -0.07560854 -0.005587406 0.003921569 0.003921569 0.003921569
v 0.02241468 -0.07407405 0.0109959 0.003921569 0.003921569 0.003921569
v -0.6816317 2.234702 1.381649 1 1 1
v -0.5876017 2.202111 1.230556 0.9686275 0.9686275 0.9686275
v -0.5953465 2.19517 1.228068 1 1 1
v -0.4532542 2.093568 0.9715459 1 1 1
v -0.4392277 2.10447 0.97392 0.9490196 0.9490196 0.9490196
v -0.3218059 1.93833 0.7281859 1 1 1
v -0.5929856 2.209955 1.225434 0.9686275 0.9686275 0.9686275
v -0.3004058 1.9523 0.7291487 0.8941177 0.8941177 0.8941177
v -0.2102306 1.738945 0.514935 1 1 1
v -0.600755 2.20286 1.222973 1 1 1
v -0.5953465 2.19517 1.228068 1 1 1
v -0.4472187 2.117045 0.9633967 0.9490196 0.9490196 0.9490196
v -0.4613513 2.105731 0.961166 1 1 1
v -0.4532542 2.093568 0.9715459 1 1 1
v -0.1802451 1.754793 0.5134094 0.7529412 0.7529412 0.7529412
v -0.1238124 1.512288 0.3426269 1 1 1
v -0.3104039 1.968843 0.7114237 0.8941177 0.8941177 0.8941177
v -0.3320911 1.954105 0.7108826 1 1 1
v -0.3218059 1.93833 0.7281859 1 1 1
v -0.08495743 1.528204 0.3379274 0.4313726 0.4313726 0.4313726
v -0.05605618 1.241237 0.1983026 0.9803922 0.9803922 0.9803922
v -0.1918765 1.774232 0.486585 0.7529412 0.7529412 0.7529412
v -0.2224783 1.757199 0.4890624 1 1 1
v -0.2102306 1.738945 0.514935 1 1 1
v -0.008175861 1.254829 0.1899051 0.2352941 0.2352941 0.2352941
v -0.006008978 0.8819671 0.07597743 0.8588235 0.8588235 0.8588235
v -0.09777926 1.548654 0.3010632 0.3882353 0.3882353 0.3882353
v -0.1377266 1.531211 0.3075067 0.8901961 0.8901961 0.8901961
v -0.1238124 1.512288 0.3426269 1 1 1
v -0.02186468 1.273659 0.1421973 0.1607843 0.1607843 0.1607843
v -0.07146612 1.258435 0.153419 0.4941176 0.4941176 0.4941176
v -0.05605618 1.241237 0.1983026 0.9803922 0.9803922 0.9803922
v 0.04286828 0.888402 0.06514318 0.07450981 0.07450981 0.07450981
v -0.02042196 0.8920085 0.02865713 0.05882353 0.05882353 0.05882353
v 0.03028207 0.8993169 0.01474037 0.007843138 0.007843138 0.007843138
v 0.0006708333 0.4570725 0.02239261 0.1647059 0.1647059 0.1647059
v 0.04968115 0.4550437 0.01049095 0.02352941 0.02352941 0.02352941
v -0.02650491 0.1543933 0.03961515 0.003921569 0.003921569 0.003921569
v 0.03724211 0.4565974 -0.04109242 0.003921569 0.003921569 0.003921569
v -0.0136091 0.4586502 -0.02599511 0.02352941 0.02352941 0.02352941
v 0.0006708333 0.4570725 0.02239261 0.1647059 0.1647059 0.1647059
v 0.02196406 0.1463351 0.02805656 0.003921569 0.003921569 0.003921569
v 0.008926303 0.1412203 -0.02314738 0.003921569 0.003921569 0.003921569
v -0.04132618 0.1499415 -0.00842951 0.003921569 0.003921569 0.003921569
v 1.994364 1.806806 1.470218 1 1 1
v 1.818236 1.814382 1.347612 1 1 1
v 1.813067 1.823 1.355463 0.9686275 0.9686275 0.9686275
v 1.516948 1.787612 1.13592 1 1 1
v 1.506173 1.801917 1.147664 0.9490196 0.9490196 0.9490196
v 1.218857 1.696363 0.9232759 1 1 1
v 1.81824 1.832439 1.348507 0.9686275 0.9686275 0.9686275
v 1.200478 1.71594 0.937997 0.8941177 0.8941177 0.8941177
v 0.9437903 1.545278 0.7237538 1 1 1
v 1.823409 1.823732 1.340652 1 1 1
v 1.818236 1.814382 1.347612 1 1 1
v 1.512759 1.817701 1.134481 0.9490196 0.9490196 0.9490196
v 1.523569 1.803147 1.122749 1 1 1
v 1.516948 1.787612 1.13592 1 1 1
v 0.9156688 1.569373 0.7407551 0.7764706 0.7764706 0.7764706
v 0.7066296 1.349292 0.5484816 1 1 1
v 1.206876 1.737771 0.9169549 0.8941177 0.8941177 0.8941177
v 1.225397 1.717703 0.9023087 1 1 1
v 1.218857 1.696363 0.9232759 1 1 1
v 0.6675878 1.376166 0.5668527 0.6 0.6 0.6
v 0.4889781 1.093149 0.3838609 0.9921569 0.9921569 0.9921569
v 0.9204004 1.596629 0.7099575 0.7764706 0.7764706 0.7764706
v 0.9488914 1.571723 0.6931744 0.9960784 0.9960784 0.9960784
v 0.9437903 1.545278 0.7237538 1 1 1
v 0.4378518 1.120321 0.4026638 0.454902 0.454902 0.454902
v 0.2734098 0.7287759 0.2153504 0.5333334 0.5333334 0.5333334
v 0.6693337 1.407118 0.5252956 0.4313726 0.4313726 0.4313726
v 0.7091122 1.379102 0.5073823 0.7098039 0.7098039 0.7098039
v 0.7066296 1.349292 0.5484816 1 1 1
v 0.4352763 1.152421 0.3492912 0.1215686 0.1215686 0.1215686
v 0.4876753 1.123845 0.3313076 0.2745098 0.2745098 0.2745098
v 0.4889781 1.093149 0.3838609 0.9921569 0.9921569 0.9921569
v 0.2180308 0.7487599 0.230829 0.3647059 0.3647059 0.3647059
v 0.2109961 0.7733231 0.1739706 0.01960784 0.01960784 0.01960784
v 0.2678544 0.7522834 0.1594727 0.03921569 0.03921569 0.03921569
v 0.1142706 0.2633321 0.08125007 0.003921569 0.003921569 0.003921569
v 0.05575203 0.2741339 0.09408306 0.003921569 0.003921569 0.003921569
v 0.05880617 -0.09025807 0.02506252 0.003921569 0.003921569 0.003921569
v 0.04542554 0.2890691 0.03445075 0.003921569 0.003921569 0.003921569
v 0.1055756 0.2776574 0.0227268 0.003921569 0.003921569 0.003921569
v 0.1142706 0.2633321 0.08125007 0.003921569 0.003921569 0.003921569
v -0.0008066234 -0.08643192 0.03678707 0.003921569 0.003921569 0.003921569
v -0.01228044 -0.07881095 -0.02400754 0.003921569 0.003921569 0.003921569
v 0.04901697 -0.08290836 -0.03456921 0.003921569 0.003921569 0.003921569
v -0.5459146 1.748976 -2.135306 1 1 1
v -0.5113984 1.780098 -1.93285 1 1 1
v -0.5037543 1.78944 -1.935432 0.9686275 0.9686275 0.9686275
v -0.4473265 1.78503 -1.581954 1 1 1
v -0.4339283 1.800787 -1.583343 0.9490196 0.9490196 0.9490196
v -0.3767965 1.714581 -1.231478 1 1 1
v -0.5132686 1.797379 -1.934873 0.9686275 0.9686275 0.9686275
v -0.3567535 1.736304 -1.229238 0.8941177 0.8941177 0.8941177
v -0.3053528 1.572981 -0.9095899 1 1 1
v -0.5209035 1.787953 -1.93228 1 1 1
v -0.5113984 1.780098 -1.93285 1 1 1
v -0.4493949 1.814285 -1.579409 0.9490196 0.9490196 0.9490196
v -0.462776 1.798286 -1.578041 1 1 1
v -0.4473265 1.78503 -1.581954 1 1 1
v -0.2774812 1.599668 -0.9014227 0.7450981 0.7450981 0.7450981
v -0.2384417 1.3775 -0.637772 0.8313726 0.8313726 0.8313726
v -0.3780477 1.754923 -1.219258 0.8941177 0.8941177 0.8941177
v -0.3980759 1.732722 -1.221643 1 1 1
v -0.3767965 1.714581 -1.231478 1 1 1
v -0.2022594 1.40693 -0.6220934 0.3372549 0.3372549 0.3372549
v -0.1718369 1.115698 -0.398901 0.4823529 0.4823529 0.4823529
v -0.3046917 1.62236 -0.8827041 0.7490196 0.7490196 0.7490196
v -0.3325738 1.594892 -0.891296 1 1 1
v -0.3053528 1.572981 -0.9095899 1 1 1
v -0.1268148 1.144695 -0.3743171 0.2313726 0.2313726 0.2313726
v -0.09965513 0.7405729 -0.1831384 0.03137255 0.03137255 0.03137255
v -0.2348657 1.431455 -0.5928705 0.3411765 0.3411765 0.3411765
v -0.2711187 1.40096 -0.6094361 0.8392157 0.8392157 0.8392157
v -0.2384417 1.3775 -0.637772 0.8313726 0.8313726 0.8313726
v -0.1642341 1.167763 -0.3329839 0.2313726 0.2313726 0.2313726
v -0.2094364 1.137533 -0.3591301 0.4941176 0.4941176 0.4941176
v -0.1718369 1.115698 -0.398901 0.4823529 0.4823529 0.4823529
v -0.05289042 0.7605137 -0.1533456 0.02745098 0.02745098 0.02745098
v -0.08848266 0.774086 -0.1065507 0.2196078 0.2196078 0.2196078
v -0.1355121 0.7533509 -0.1381585 0.2431373 0.2431373 0.2431373
v -0.03677892 0.2687378 -0.06361312 0.003921569 0.003921569 0.003921569
v 0.01150369 0.2772879 -0.03093481 0.003921569 0.003921569 0.003921569
v -0.006432304 -0.07888412 -0.0624733 0.01960784 0.01960784 0.01960784
v -0.02249692 0.2789164 0.01888561 0.003921569 0.003921569 0.003921569
v -0.071118 0.270125 -0.01574777 0.003921569 0.003921569 0.003921569
v -0.03677892 0.2687378 -0.06361312 0.003921569 0.003921569 0.003921569
v 0.04258292 -0.07872601 -0.02976748 0.003921569 0.003921569 0.003921569
v 0.009350467 -0.08589698 0.02008181 0.003921569 0.003921569 0.003921569
v -0.04003877 -0.08588889 -0.01458043 0.003921569 0.003921569 0.003921569
v -0.09299374 0.667287 2.019442 1 1 1
v -0.07813007 0.8124812 1.909024 0.9686275 0.9686275 0.9686275
v -0.08558226 0.8074018 1.902957 1 1 1
v -0.07111 1.001157 1.658555 1 1 1
v -0.05839957 1.012082 1.665826 0.9490196 0.9490196 0.9490196
v -0.05485016 1.116545 1.362253 1 1 1
v -0.0860478 0.8177503 1.914338 0.9686275 0.9686275 0.9686275
v -0.03636008 1.134265 1.367534 0.8941177 0.8941177 0.8941177
v -0.03881009 1.138087 1.05037 1 1 1
v -0.09349889 0.8126466 1.908245 1 1 1
v -0.08558226 0.8074018 1.902957 1 1 1
v -0.07154435 1.023373 1.671839 0.9490196 0.9490196 0.9490196
v -0.08425305 1.01236 1.664516 1 1 1
v -0.07111 1.001157 1.658555 1 1 1
v -0.01378258 1.162312 1.050149 0.7686275 0.7686275 0.7686275
v -0.02483939 1.072144 0.7607462 1 1 1
v -0.05490505 1.152588 1.370986 0.8941177 0.8941177 0.8941177
v -0.07339484 1.134664 1.365657 1 1 1
v -0.05485016 1.116545 1.362253 1 1 1
v 0.006855537 1.100615 0.7519736 0.4588235 0.4588235 0.4588235
v -0.01269796 0.9175119 0.4883893 0.9568627 0.9568627 0.9568627
v -0.03812877 1.18744 1.047403 0.7686275 0.7686275 0.7686275
v -0.06316143 1.162843 1.047646 1 1 1
v -0.03881009 1.138087 1.05037 1 1 1
v 0.02576779 0.9463555 0.4681936 0.2470588 0.2470588 0.2470588
v -0.002739923 0.6361798 0.2322182 0.3960784 0.3960784 0.3960784
v -0.02315592 1.130298 0.7398755 0.4588235 0.4588235 0.4588235
v -0.05486672 1.101279 0.748845 0.9960784 0.9960784 0.9960784
v -0.02483939 1.072144 0.7607462 1 1 1
v -0.009798413 0.9766656 0.4437383 0.1803922 0.1803922 0.1803922
v -0.04829698 0.9471523 0.4644395 0.8431373 0.8431373 0.8431373
v -0.01269796 0.9175119 0.4883893 0.9568627 0.9568627 0.9568627
v 0.03607749 0.6550882 0.2029758 0.01960784 0.01960784 0.01960784
v -0.03798728 0.655885 0.1992217 0.254902 0.254902 0.254902
v 0.0008710148 0.6752355 0.1692668 0.007843138 0.007843138 0.007843138
v 0.000318628 0.2362747 0.08700201 0.003921569 0.003921569 0.003921569
v 0.03924405 0.2410604 0.05263137 0.003921569 0.003921569 0.003921569
v -0.00300334 -0.06675599 0.08822756 0.003921569 0.003921569 0.003921569
v 0.004148064 0.2467617 0.01367662 0.003921569 0.003921569 0.003921569
v -0.03482071 0.2418572 0.04887727 0.003921569 0.003921569 0.003921569
v 0.000318628 0.2362747 0.08700201 0.003921569 0.003921569 0.003921569
v 0.03580477 -0.07267173 0.05390018 0.003921569 0.003921569 0.003921569
v 0.0005887789 -0.07791708 0.0149897 0.003921569 0.003921569 0.003921569
v -0.03825999 -0.07187499 0.05014608 0.003921569 0.003921569 0.003921569
vn 0.1477357 0.6939879 0.7046666
vn 0.09772244 0.5516853 0.8283077
vn -0.06283079 0.5662538 0.8218327
vn -0.005426966 0.6825127 0.7308536
vn 0.2102301 0.8533316 0.4771044
vn -0.07202946 0.5626405 0.8235578
vn 0.05652874 0.8626658 0.5026056
vn 0.2509565 0.9401351 0.2305796
vn -0.05274028 0.685811 0.7258661
vn -0.02996003 0.5526927 0.8328465
vn 0.1033847 0.965689 0.2382361
vn 0.2654527 0.9639694 -0.01725919
vn -0.06903972 0.6770381 0.7327025
vn -0.1374351 0.5509872 0.8231189
vn -0.1960213 0.697458 0.6892952
vn -0.02623085 0.869729 0.492832
vn -0.1007782 0.8632085 0.4946868
vn -0.2441156 0.8547906 0.4579745
vn 0.1240353 0.9912978 -0.04408756
vn 0.2503417 0.9262828 -0.2816542
vn -0.01085986 0.9730035 0.2305348
vn -0.1212281 0.9664766 0.2263331
vn -0.2592682 0.9447022 0.2007929
vn 0.1073723 0.9388571 -0.3271368
vn 0.2239744 0.8616881 -0.455334
vn 0.05753472 0.8854221 -0.4612131
vn 0.004178858 0.9986055 -0.05262705
vn -0.1073393 0.9925857 -0.05702567
vn -0.2497791 0.967057 -0.04910439
vn 0.01485976 0.9447929 -0.3273312
vn 0.01871538 0.890878 -0.4538571
vn -0.07484134 0.9385924 -0.3368131
vn -0.2126341 0.9287325 -0.3037151
vn -0.009265255 0.8866166 -0.4624123
vn -0.1716468 0.8634953 -0.4742501
vn 0.263967 0.9554359 -0.1321506
vn -0.06060514 0.9760963 -0.2087177
vn 0.1605524 0.9552551 -0.2484163
vn 0.03579839 0.9922771 -0.1187629
vn 0.3926189 0.919246 0.02893411
vn -0.1589003 0.9676083 -0.1961757
vn 0.1557594 0.9856256 0.06543192
vn 0.4746231 0.8644877 0.1655112
vn -0.1283194 0.9878393 -0.08779284
vn -0.2056421 0.958323 -0.1983138
vn 0.2481257 0.9403609 0.2327123
vn 0.5064486 0.8099887 0.2956823
vn -0.2623788 0.9621961 -0.0730486
vn -0.3716599 0.9142868 -0.1610859
vn -0.4489336 0.8935241 -0.008559546
vn -0.07902317 0.9900076 0.1167917
vn -0.3020797 0.9417513 0.1478254
vn -0.514201 0.8365052 0.1893579
vn 0.2932687 0.870979 0.394194
vn 0.488415 0.743501 0.45679
vn -0.04128077 0.9527724 0.3008665
vn -0.3256207 0.8834588 0.3368557
vn -0.5337399 0.7686337 0.352596
vn 0.2792288 0.7755557 0.5661666
vn 0.4499718 0.6801956 0.5786704
vn 0.2122298 0.7178428 0.6630689
vn -0.002741884 0.8804405 0.4741488
vn -0.2907179 0.8148749 0.5014598
vn -0.5109225 0.7105615 0.4837981
vn 0.03111166 0.778511 0.6268593
vn 0.04605989 0.7195354 0.6929266
vn -0.2198256 0.7244858 0.6532971
vn -0.4347404 0.6533242 0.6198131
vn -0.1080888 0.6897186 0.7159644
vn -0.3496549 0.602565 0.7173959
vn -0.2740067 0.03516858 -0.9610845
vn -0.4223038 0.8994459 0.1125017
vn -0.8472266 -0.4928626 0.1982263
vn -0.2597217 0.05608781 -0.9640533
vn 0.1853353 -0.9810545 -0.0564172
vn 0.3687848 -0.92413 -0.09990771
vn -0.8472266 -0.4928626 0.1982263
vn 0.1936461 0.01182831 0.9810002
vn -0.04570931 -0.9989543 -0.0009968535
vn -0.2176499 0.9739187 0.06411546
vn -0.2502773 0.05980239 -0.9663255
vn -0.2718786 -0.9608197 0.05392287
vn -0.2412804 0.05950288 -0.9686295
vn -0.4797442 -0.8710965 0.1050546
vn 0.01029202 0.9999015 0.009537747
vn 0.2078305 0.0327531 0.9776163
vn -0.230784 0.05827849 -0.9712582
vn -0.6667292 -0.7296815 0.1517797
vn 0.3687848 -0.92413 -0.09990771
vn -0.8472266 -0.4928626 0.1982263
vn 0.1853353 -0.9810545 -0.0564172
vn 0.2172966 0.03646859 0.9754242
vn -0.04570931 -0.9989543 -0.0009968535
vn 0.2351248 0.9709252 -0.04495162
vn 0.2263543 0.036168 0.9733733
vn -0.2718786 -0.9608197 0.05392287
vn -0.2087846 0.05242578 -0.9765555
vn -0.8353421 -0.513993 0.1949738
vn 0.4459452 0.8898223 -0.096691
vn 0.2368888 0.03494074 0.9709083
vn -0.4797442 -0.8710965 0.1050546
vn 0.6520669 0.7435592 -0.1480823
vn 0.2588557 0.02908901 0.9654778
vn -0.6667292 -0.7296815 0.1517797
vn -0.1851199 0.04087942 -0.9818653
vn 0.834731 0.5150453 -0.1948139
vn 0.2822811 0.01755489 0.9591711
vn -0.9434185 -0.2442913 0.2242395
vn -0.1858899 0.02554612 -0.9822384
vn -0.7699583 -0.612752 0.1780425
vn 0.9441217 0.2413693 -0.2244438
vn 0.2816815 0.00221303 0.9595054
vn -0.9434185 -0.2442913 0.2242395
vn -0.1670666 -0.5660704 -0.8072503
vn 0.8152308 -0.5424578 -0.2028258
vn 0.2155615 -0.5851648 0.7817388
vn -0.4346776 0.8625054 -0.2591136
vn -0.5167285 0.8531258 0.07189012
vn -0.5554236 0.8184037 -0.1473778
vn -0.4284962 0.9030276 -0.03052875
vn -0.2519559 0.8814079 -0.3995477
vn -0.4984884 0.8501641 0.1695003
vn -0.2300952 0.9593129 -0.1636302
vn -0.0866606 0.8662645 -0.4920121
vn -0.3916026 0.9106169 0.1320006
vn -0.4957481 0.841145 0.2161223
vn -0.03417846 0.9625943 -0.2687825
vn 0.07221691 0.8425507 -0.5337538
vn -0.3646572 0.8925889 0.2651609
vn -0.44007 0.8134721 0.380265
vn -0.271167 0.8516794 0.4484535
vn -0.1734386 0.9824702 0.06834851
vn -0.1214142 0.9493634 0.2897719
vn -0.04043094 0.8647712 0.5005358
vn 0.1634982 0.9310238 -0.3262869
vn 0.2657632 0.8071741 -0.5271051
vn 0.03928274 0.9990897 0.01663432
vn 0.1032247 0.9485343 0.2993783
vn 0.1583387 0.8465464 0.5082205
vn 0.3774655 0.8673503 -0.3243813
vn 0.4132804 0.7639029 -0.4956327
vn 0.4983129 0.8260279 -0.2633671
vn 0.2504537 0.9674952 -0.03501402
vn 0.3039536 0.9187613 0.2519721
vn 0.3193693 0.8197091 0.475479
vn 0.4461148 0.8913964 -0.07996327
vn 0.5340105 0.8396095 -0.09944165
vn 0.4936329 0.8528464 0.1702339
vn 0.4818805 0.7849122 0.389492
vn 0.5687898 0.8207325 0.05363105
vn 0.5976249 0.7446419 0.2972422
vn -0.2384011 0.9160387 0.3225493
vn 0.01923672 0.9903725 0.1370849
vn -0.1037974 0.9416171 0.3202862
vn -0.0984438 0.9834567 0.1520585
vn -0.4095502 0.8562392 0.3148381
vn 0.08052997 0.995019 0.05875445
vn -0.2807751 0.9514922 0.1258096
vn -0.5333137 0.7954009 0.2879479
vn -0.004474128 0.9998847 0.01451238
vn 0.1162929 0.9928477 0.02700615
vn -0.4298043 0.8985865 0.08837765
vn -0.6216373 0.7494481 0.2278038
vn 0.08298663 0.9923463 -0.09144383
vn 0.2137642 0.9697687 -0.1177013
vn 0.1831365 0.9459084 -0.2678026
vn -0.152285 0.985471 -0.0752087
vn -0.01106881 0.9663636 -0.2569413
vn 0.1242111 0.8897774 -0.4391672
vn -0.5430407 0.8395201 0.01768983
vn -0.6975043 0.7082952 0.1086536
vn -0.2746395 0.947854 -0.1616972
vn -0.09236971 0.9152191 -0.3922269
vn 0.05515562 0.8287686 -0.5568668
vn -0.6245834 0.7735567 -0.1072647
vn -0.7410113 0.6714895 -0.002000622
vn -0.6321493 0.742525 -0.2214587
vn -0.3901997 0.8875731 -0.2448639
vn -0.2008073 0.8582337 -0.4723466
vn -0.02736298 0.7805582 -0.6244839
vn -0.4910157 0.8091459 -0.3227792
vn -0.5346651 0.7653925 -0.3582004
vn -0.3290651 0.7861338 -0.5231729
vn -0.1538536 0.7358047 -0.659485
vn -0.4401793 0.7549078 -0.4861649
vn -0.2676112 0.6956044 -0.6667225
vn 0.6148012 0.7824652 0.09883073
vn 0.4833708 0.8675192 0.1173165
vn 0.2334387 0.971049 -0.05069806
vn 0.365106 0.928197 -0.07174888
vn 0.7679493 0.6356618 0.07866335
vn 0.07319137 0.9877722 -0.1376552
vn 0.5409142 0.8295757 -0.1386222
vn 0.8511643 0.5217188 0.05769576
vn 0.1341971 0.967604 -0.2138546
vn -0.0300474 0.9827775 -0.1823334
vn 0.6613502 0.7233782 -0.1983429
vn 0.8873166 0.461147 -0.003559706
vn -0.07769682 0.9466456 -0.3127705
vn -0.249879 0.9218454 -0.2962458
vn -0.332709 0.8365334 -0.4353352
vn 0.2288525 0.9066811 -0.3543389
vn -0.1089197 0.855763 -0.5057729
vn -0.4157366 0.6915062 -0.5907472
vn 0.7201516 0.6323931 -0.2854132
vn 0.8907506 0.4283658 -0.1518757
vn 0.2956918 0.827899 -0.4766022
vn -0.1326882 0.7523469 -0.6452659
vn -0.4497817 0.5762762 -0.6823504
vn 0.7137758 0.5490738 -0.4347899
vn 0.8707344 0.4014547 -0.2839996
vn 0.6539619 0.512569 -0.5564233
vn 0.3540895 0.7282842 -0.586705
vn -0.08732871 0.6653153 -0.7414373
vn -0.4262233 0.5132514 -0.7449207
vn 0.3975325 0.6143896 -0.6815374
vn 0.4136612 0.5551347 -0.7216024
vn 0.01386859 0.5739842 -0.8187489
vn -0.3166916 0.4758309 -0.8205434
vn 0.152516 0.5372028 -0.8295493
vn -0.2017248 0.4455108 -0.8722541
vn 0.1171297 0.8592122 -0.4980313
vn 0.2811409 0.8258218 -0.4888539
vn 0.391117 0.8709827 -0.2973493
vn 0.2570302 0.911731 -0.3204404
vn -0.1098469 0.8651826 -0.4892778
vn 0.4403575 0.8726626 -0.2110576
vn 0.02123069 0.9546289 -0.2970403
vn -0.2911425 0.8419088 -0.4543409
vn 0.333366 0.9268242 -0.1728125
vn 0.4688703 0.8660528 -0.1735318
vn -0.1917931 0.9483188 -0.252798
vn -0.4348288 0.8143033 -0.3844918
vn 0.3997242 0.9150771 -0.05342747
vn 0.5339131 0.8454576 -0.01176454
vn 0.4495497 0.881021 0.1473333
vn 0.1265681 0.9883906 -0.08405139
vn 0.2314668 0.9655032 0.1192756
vn 0.3103603 0.8899781 0.3340892
vn -0.374019 0.9116871 -0.1701074
vn -0.5733259 0.7786383 -0.2549898
vn -0.06528328 0.9978016 0.01140567
vn 0.0707818 0.960329 0.2697374
vn 0.1683896 0.8680239 0.4670968
vn -0.5294791 0.8477757 -0.03046675
vn -0.6618297 0.7372997 -0.1355388
vn -0.5789511 0.8098699 0.09447856
vn -0.2538442 0.9612868 0.1071945
vn -0.1073594 0.9259494 0.3620658
vn 0.02899294 0.8377413 0.545297
vn -0.4249606 0.8829415 0.1995564
vn -0.5008061 0.830994 0.2421616
vn -0.2982448 0.8559985 0.4222756
vn -0.1457959 0.7984675 0.5841175
vn -0.4278273 0.8191528 0.3820372
vn -0.2899259 0.754465 0.5888342
vn 0.8013169 -0.456848 -0.3862398
vn -0.4133023 -0.008656947 -0.9105527
vn -0.2950535 -0.9377776 0.1830755
vn -0.1280465 -0.9866297 0.1008262
vn -0.4269844 0.01128094 -0.9041886
vn 0.08020421 -0.9967719 -0.003608895
vn 0.3452466 0.9152842 -0.2075085
vn -0.4353814 0.0145577 -0.9001284
vn 0.2820705 -0.9534304 -0.1068028
vn 0.4843286 0.05711627 0.8730198
vn -0.2950535 -0.9377776 0.1830755
vn 0.1580101 0.9806376 -0.1156841
vn 0.4704767 0.0770389 0.8790431
vn -0.1280465 -0.9866297 0.1008262
vn -0.4432753 0.01402857 -0.8962757
vn 0.4660693 -0.8611901 -0.2028076
vn -0.04772096 0.9987785 -0.01281202
vn 0.4621162 0.08031622 0.8831749
vn 0.08020421 -0.9967719 -0.003608895
vn -0.452497 0.01266105 -0.891676
vn 0.6302307 -0.7199588 -0.290635
vn -0.2486515 0.964442 0.08957807
vn 0.4543347 0.07979494 0.8872501
vn 0.2820705 -0.9534304 -0.1068028
vn -0.4719994 0.00660592 -0.8815742
vn 0.7771095 -0.5073686 -0.3723948
vn -0.4355869 0.8805608 0.186753
vn 0.4451884 0.07843082 0.8919955
vn 0.4660693 -0.8611901 -0.2028076
vn -0.6171454 0.7339899 0.2835321
vn 0.4256351 0.07237203 0.9019961
vn 0.6302307 -0.7199588 -0.290635
vn -0.4926108 -0.00477113 -0.8702367
vn 0.4045866 0.06096358 0.9124654
vn -0.7765914 0.5083798 0.3720965
vn 0.8700368 -0.2430488 -0.4289093
vn -0.491781 -0.01944912 -0.8705017
vn 0.7132069 -0.6150307 -0.3362637
vn -0.8706181 0.2402527 0.429305
vn 0.4057277 0.04630869 0.91282
vn 0.8700368 -0.2430488 -0.4289093
vn -0.3838549 -0.6022158 -0.699994
vn -0.7440118 -0.5393943 0.3943352
vn 0.3505251 -0.5484101 0.759196
vn -0.4837379 0.1781369 0.8568926
vn 0.8551966 -0.01830152 0.5179806
vn -0.1785071 -0.9602159 0.2147573
vn -0.244395 -0.9103523 0.3339608
vn 0.8645703 -0.01423152 0.5023103
vn -0.3186075 -0.822363 0.4713899
vn 0.1503456 0.9748598 -0.1644524
vn 0.8661412 -0.01629286 0.4995336
vn -0.3819943 -0.7092226 0.5925232
vn -0.8741619 0.08022331 -0.4789627
vn -0.1785071 -0.9602159 0.2147573
vn 0.2293236 0.9238389 -0.306484
vn -0.8649448 0.08431474 -0.4947339
vn -0.244395 -0.9103523 0.3339608
vn 0.8666431 -0.01952753 0.4985464
vn -0.4325106 -0.5764639 0.6932704
vn 0.3041944 0.8426082 -0.4443843
vn -0.863506 0.08226256 -0.4975845
vn -0.3186075 -0.822363 0.4713899
vn 0.8676469 -0.02277512 0.496659
vn -0.470337 -0.4239988 0.7739562
vn 0.3688821 0.7364362 -0.567087
vn -0.8631786 0.07904079 -0.4986735
vn -0.3819943 -0.7092226 0.5925232
vn 0.8727202 -0.03261098 0.4871302
vn -0.4958473 -0.2300833 0.8373751
vn 0.422147 0.6082831 -0.6721485
vn -0.8623247 0.07580224 -0.5006496
vn -0.4325106 -0.5764639 0.6932704
vn 0.46679 0.4419315 -0.7660311
vn -0.857462 0.06597801 -0.5102997
vn -0.470337 -0.4239988 0.7739562
vn 0.8784735 -0.04336249 0.4758193
vn -0.8514772 0.055213 -0.5214768
vn 0.4957968 0.230751 -0.8372213
vn -0.4999244 -0.01221104 0.8659829
vn 0.8761709 -0.04819558 0.4795851
vn -0.4630936 -0.4595225 0.7578809
vn 0.499862 0.01052624 -0.8660411
vn -0.8539953 0.05039215 -0.5178347
vn -0.4999244 -0.01221104 0.8659829
vn 0.6362807 -0.6089894 0.473581
vn 0.3347248 -0.6839286 -0.6482291
vn -0.7773253 -0.5284396 -0.3413458
vn 0.8194279 -0.07670294 0.568027
vn 0.03942984 -0.9989845 -0.02180106
vn -0.5485164 -0.01378634 0.8360262
vn 0.1529196 -0.9865319 0.05805404
vn -0.5627007 -0.004095293 0.8266506
vn 0.2894042 -0.944504 0.1554264
vn 0.009219817 0.9984023 0.05574878
vn -0.566493 -0.0035839 0.8240587
vn 0.4160088 -0.8751003 0.2472574
vn 0.5946416 0.06707046 -0.8011885
vn 0.03942984 -0.9989845 -0.02180106
vn -0.1254691 0.9913442 -0.03865371
vn 0.5805055 0.07675765 -0.8106304
vn 0.1529196 -0.9865319 0.05805404
vn -0.5694481 -0.004877154 0.8220128
vn 0.5283912 -0.7821063 0.3303218
vn -0.2611689 0.9557834 -0.1351624
vn 0.5767438 0.07727087 -0.8132624
vn 0.2894042 -0.944504 0.1554264
vn -0.5736762 -0.006372151 0.8190574
vn 0.6270356 -0.6654577 0.4049597
vn -0.3878773 0.8933933 -0.2267148
vn 0.5738646 0.07598076 -0.8154179
vn 0.4160088 -0.8751003 0.2472574
vn -0.5862035 -0.01282248 0.8100623
vn 0.7189479 -0.5055222 0.4770338
vn -0.5032601 0.8060014 -0.3115945
vn 0.5697035 0.0744883 -0.8184677
vn 0.5283912 -0.7821063 0.3303218
vn -0.6164497 0.6800758 -0.3968459
vn 0.5572431 0.06804249 -0.8275569
vn 0.6270356 -0.6654577 0.4049597
vn -0.5994623 -0.02118193 0.8001227
vn -0.7186952 0.5060737 -0.4768299
vn 0.5437322 0.05966527 -0.8371352
vn 0.7860136 -0.3125321 0.5333914
vn -0.598026 -0.02916934 0.8009458
vn 0.5948617 -0.7081278 0.3803874
vn -0.786381 0.3110411 -0.5337213
vn 0.5453696 0.05169223 -0.8366002
vn 0.7860136 -0.3125321 0.5333914
vn -0.5335168 -0.6011791 0.5949315
vn -0.7303133 -0.4295682 -0.5311437
vn 0.4010493 -0.535086 -0.7435337
vn -0.1616724 -0.1908228 -0.9682193
vn 0.09787476 -0.9931362 0.06404042
vn 0.9707415 0.1148941 -0.2108563
vn 0.06667005 -0.9922056 -0.1052768
vn 0.9727966 0.1285634 -0.1927128
vn 0.02597874 -0.9512507 -0.3073226
vn -0.1080695 0.9865521 -0.1226208
vn 0.974134 0.129476 -0.1851998
vn -0.01543142 -0.8693379 -0.4939772
vn -0.9873051 -0.05486307 0.1490592
vn 0.09787476 -0.9931362 0.06404042
vn -0.0730025 0.9947297 0.07199658
vn -0.9850679 -0.04117353 0.1671704
vn 0.06667005 -0.9922056 -0.1052768
vn 0.9755544 0.1275978 -0.1789202
vn -0.05549575 -0.7521426 -0.6566595
vn -0.03316535 0.9614349 0.2730255
vn -0.9837989 -0.04026641 0.1746947
vn 0.02597874 -0.9512507 -0.3073226
vn 0.9772654 0.1250422 -0.1712214
vn -0.09410256 -0.5996047 -0.7947446
vn 0.007628977 0.8877733 0.4602179
vn -0.9825769 -0.0421633 0.1810108
vn -0.01543142 -0.8693379 -0.4939772
vn 0.981293 0.1164058 -0.1533423
vn -0.1336831 -0.3898269 -0.9111332
vn 0.04790313 0.7773508 0.6272407
vn -0.9810085 -0.04473067 0.1887363
vn -0.05549575 -0.7521426 -0.6566595
vn 0.09054136 0.61554 0.7828875
vn -0.9769663 -0.05336577 0.2066133
vn -0.09410256 -0.5996047 -0.7947446
vn 0.9854535 0.1037535 -0.1345979
vn 0.1335427 0.3906985 0.9107805
vn -0.9720724 -0.06595448 0.225223
vn -0.1669646 -0.1426089 -0.9755949
vn 0.9861973 0.09220463 -0.137525
vn -0.1052836 -0.5467562 -0.8306462
vn 0.1672176 0.140307 0.9758854
vn -0.9718676 -0.07754996 0.2223949
vn -0.1669646 -0.1426089 -0.9755949
vn 0.845219 -0.5046558 -0.1758619
vn 0.1944152 -0.6043504 0.772634
vn -0.756223 -0.6434929 0.1185059
vn -0.03914187 -0.7944261 0.6060984
vn 0.9943601 0.004749209 0.1059503
vn 0.0275372 -0.7178797 -0.6956224
vn 0.01579082 -0.8682722 -0.4958368
vn 0.9945039 0.03661291 0.0980901
vn 0.0005126767 -0.9761019 -0.2173127
vn -0.0301709 0.6738392 0.7382618
vn 0.9953638 0.04782268 0.08345005
vn -0.01465594 -0.9968795 0.07756668
vn -0.9996449 0.02619937 0.00488042
vn 0.0275372 -0.7178797 -0.6956224
vn -0.01744982 0.8509826 0.524904
vn -0.9983093 0.0580528 -0.002917702
vn 0.01579082 -0.8682722 -0.4958368
vn 0.9964072 0.05210704 0.06676493
vn -0.02836115 -0.9318302 0.3617844
vn -0.002384432 0.9676127 0.252428
vn -0.9974439 0.06926309 -0.01755788
vn 0.0005126767 -0.9761019 -0.2173127
vn 0.9974439 0.0532931 0.04759791
vn -0.04003636 -0.7801499 0.6243101
vn 0.01272034 0.9991619 -0.03890692
vn -0.9967031 0.07354814 -0.03425919
vn -0.01465594 -0.9968795 0.07756668
vn 0.9987291 0.04819269 0.01475559
vn -0.04889316 -0.5162371 0.855049
vn 0.02662857 0.945439 -0.324709
vn -0.9957711 0.07473394 -0.05343125
vn -0.02836115 -0.9318302 0.3617844
vn 0.03932757 0.7933275 -0.6075236
vn -0.9938383 0.06962759 -0.08624106
vn -0.04003636 -0.7801499 0.6243101
vn 0.9993293 0.03072864 -0.01991622
vn -0.9913046 0.05214296 -0.120815
vn 0.0488599 0.5179098 -0.8540388
vn -0.05171571 -0.1735857 0.9834599
vn 0.9997633 0.004218481 -0.02134237
vn -0.04904673 -0.5083358 0.8597611
vn 0.05170659 0.1688651 -0.984282
vn -0.992161 0.02564657 -0.1223064
vn -0.05171571 -0.1735857 0.9834599
vn 0.8084781 -0.5832386 0.07871438
vn 0.03177772 -0.6447062 -0.7637697
vn -0.8246211 -0.5656708 -0.00406203
vt 0.1807766 0.7179053
vt 0.1958065 0.7480437
vt 0.211171 0.7480437
vt 0.2044317 0.7179053
vt 0.168408 0.6877668
vt 0.2185332 0.7480437
vt 0.1991951 0.6877668
vt 0.1608963 0.6576284
vt 0.2185332 0.7179053
vt 0.2250069 0.7480437
vt 0.1950395 0.6576284
vt 0.1608963 0.62749
vt 0.2343912 0.7179052
vt 0.2384485 0.7480437
vt 0.2578788 0.7179053
vt 0.2185332 0.6877668
vt 0.2399132 0.6877668
vt 0.2672499 0.6877668
vt 0.1939052 0.6274901
vt 0.1707609 0.5973516
vt 0.2185332 0.6576284
vt 0.2447763 0.6576284
vt 0.2761702 0.6576284
vt 0.1968261 0.5973516
vt 0.1840917 0.5672131
vt 0.2045776 0.5672131
vt 0.2185333 0.62749
vt 0.2449355 0.6274899
vt 0.2761702 0.62749
vt 0.2185332 0.5973516
vt 0.2185332 0.5672131
vt 0.2434226 0.5973516
vt 0.2686819 0.5973516
vt 0.2342835 0.5672131
vt 0.2527406 0.5672131
vt 0.1807766 0.7179053
vt 0.211171 0.7480437
vt 0.1958065 0.7480437
vt 0.2044317 0.7179053
vt 0.168408 0.6877668
vt 0.2185332 0.7480437
vt 0.1991951 0.6877668
vt 0.1608963 0.6576284
vt 0.2185332 0.7179053
vt 0.2250069 0.7480437
vt 0.1950395 0.6576284
vt 0.1608963 0.62749
vt 0.2343912 0.7179052
vt 0.2384485 0.7480437
vt 0.2578788 0.7179053
vt 0.2185332 0.6877668
vt 0.2399132 0.6877668
vt 0.2672499 0.6877668
vt 0.1939052 0.6274901
vt 0.1707609 0.5973516
vt 0.2185332 0.6576284
vt 0.2447763 0.6576284
vt 0.2761702 0.6576284
vt 0.1968261 0.5973516
vt 0.1840917 0.5672131
vt 0.2045776 0.5672131
vt 0.2185333 0.62749
vt 0.2449355 0.6274899
vt 0.2761702 0.62749
vt 0.2185332 0.5973516
vt 0.2185332 0.5672131
vt 0.2434226 0.5973516
vt 0.2686819 0.5973516
vt 0.2342835 0.5672131
vt 0.2527406 0.5672131
vt 0.2151329 0.5907849
vt 0.2151237 0.5907737
vt 0.2152751 0.5906525
vt 0.2148776 0.5910023
vt 0.2148935 0.5910212
vt 0.2151425 0.5907959
vt 0.2152751 0.5906525
vt 0.2151148 0.5907621
vt 0.2146371 0.5912539
vt 0.2148621 0.5909831
vt 0.2146142 0.5912268
vt 0.2143851 0.5914858
vt 0.2143546 0.5914499
vt 0.2141453 0.5917079
vt 0.2145919 0.5911993
vt 0.2148469 0.5909635
vt 0.2141071 0.5916631
vt 0.2138899 0.5919416
vt 0.2151063 0.5907503
vt 0.2152751 0.5906525
vt 0.2148321 0.5909438
vt 0.2145701 0.5911714
vt 0.214549 0.591143
vt 0.2143248 0.5914131
vt 0.2142959 0.5913759
vt 0.2142678 0.591338
vt 0.2138451 0.5918872
vt 0.2135612 0.592206
vt 0.21407 0.5916172
vt 0.2140338 0.5915706
vt 0.2139987 0.5915233
vt 0.2138012 0.5918323
vt 0.2137578 0.5917771
vt 0.2137148 0.5917212
vt 0.2135173 0.5921507
vt 0.2134734 0.5920953
vt 0.2134292 0.59204
vt 0.2131909 0.5924994
vt 0.2131532 0.5924429
vt 0.2127097 0.592663
vt 0.2131137 0.592392
vt 0.2130704 0.5923442
vt 0.213014 0.5922861
vt 0.2129757 0.5925362
vt 0.2129745 0.5925068
vt 0.2129474 0.5924941
vt 0.1807766 0.7179053
vt 0.211171 0.7480437
vt 0.1958065 0.7480437
vt 0.2044317 0.7179053
vt 0.168408 0.6877668
vt 0.2185332 0.7480437
vt 0.1991951 0.6877668
vt 0.1608963 0.6576284
vt 0.2185332 0.7179053
vt 0.2250069 0.7480437
vt 0.1950395 0.6576284
vt 0.1608963 0.62749
vt 0.2343912 0.7179052
vt 0.2384485 0.7480437
vt 0.2578788 0.7179053
vt 0.2185332 0.6877668
vt 0.2399132 0.6877668
vt 0.2672499 0.6877668
vt 0.1939052 0.6274901
vt 0.1707609 0.5973516
vt 0.2185332 0.6576284
vt 0.2447763 0.6576284
vt 0.2761702 0.6576284
vt 0.1968261 0.5973516
vt 0.1840917 0.5672131
vt 0.2045776 0.5672131
vt 0.2185333 0.62749
vt 0.2449355 0.6274899
vt 0.2761702 0.62749
vt 0.2185332 0.5973516
vt 0.2185332 0.5672131
vt 0.2434226 0.5973516
vt 0.2686819 0.5973516
vt 0.2342835 0.5672131
vt 0.2527406 0.5672131
vt 0.1807766 0.7179053
vt 0.211171 0.7480437
vt 0.1958065 0.7480437
vt 0.2044317 0.7179053
vt 0.168408 0.6877668
vt 0.2185332 0.7480437
vt 0.1991951 0.6877668
vt 0.1608963 0.6576284
vt 0.2185332 0.7179053
vt 0.2250069 0.7480437
vt 0.1950395 0.6576284
vt 0.1608963 0.62749
vt 0.2343912 0.7179052
vt 0.2384485 0.7480437
vt 0.2578788 0.7179053
vt 0.2185332 0.6877668
vt 0.2399132 0.6877668
vt 0.2672499 0.6877668
vt 0.1939052 0.6274901
vt 0.1707609 0.5973516
vt 0.2185332 0.6576284
vt 0.2447763 0.6576284
vt 0.2761702 0.6576284
vt 0.1968261 0.5973516
vt 0.1840917 0.5672131
vt 0.2045776 0.5672131
vt 0.2185333 0.62749
vt 0.2449355 0.6274899
vt 0.2761702 0.62749
vt 0.2185332 0.5973516
vt 0.2185332 0.5672131
vt 0.2434226 0.5973516
vt 0.2686819 0.5973516
vt 0.2342835 0.5672131
vt 0.2527406 0.5672131
vt 0.1807766 0.7179053
vt 0.1958065 0.7480437
vt 0.211171 0.7480437
vt 0.2044317 0.7179053
vt 0.168408 0.6877668
vt 0.2185332 0.7480437
vt 0.1991951 0.6877668
vt 0.1608963 0.6576284
vt 0.2185332 0.7179053
vt 0.2250069 0.7480437
vt 0.1950395 0.6576284
vt 0.1608963 0.62749
vt 0.2343912 0.7179052
vt 0.2384485 0.7480437
vt 0.2578788 0.7179053
vt 0.2185332 0.6877668
vt 0.2399132 0.6877668
vt 0.2672499 0.6877668
vt 0.1939052 0.6274901
vt 0.1707609 0.5973516
vt 0.2185332 0.6576284
vt 0.2447763 0.6576284
vt 0.2761702 0.6576284
vt 0.1968261 0.5973516
vt 0.1840917 0.5672131
vt 0.2045776 0.5672131
vt 0.2185333 0.62749
vt 0.2449355 0.6274899
vt 0.2761702 0.62749
vt 0.2185332 0.5973516
vt 0.2185332 0.5672131
vt 0.2434226 0.5973516
vt 0.2686819 0.5973516
vt 0.2342835 0.5672131
vt 0.2527406 0.5672131
vt 0.1807766 0.7179053
vt 0.1958065 0.7480437
vt 0.211171 0.7480437
vt 0.2044317 0.7179053
vt 0.168408 0.6877668
vt 0.2185332 0.7480437
vt 0.1991951 0.6877668
vt 0.1608963 0.6576284
vt 0.2185332 0.7179053
vt 0.2250069 0.7480437
vt 0.1950395 0.6576284
vt 0.1608963 0.62749
vt 0.2343912 0.7179052
vt 0.2384485 0.7480437
vt 0.2578788 0.7179053
vt 0.2185332 0.6877668
vt 0.2399132 0.6877668
vt 0.2672499 0.6877668
vt 0.1939052 0.6274901
vt 0.1707609 0.5973516
vt 0.2185332 0.6576284
vt 0.2447763 0.6576284
vt 0.2761702 0.6576284
vt 0.1968261 0.5973516
vt 0.1840917 0.5672131
vt 0.2045776 0.5672131
vt 0.2185333 0.62749
vt 0.2449355 0.6274899
vt 0.2761702 0.62749
vt 0.2185332 0.5973516
vt 0.2185332 0.5672131
vt 0.2434226 0.5973516
vt 0.2686819 0.5973516
vt 0.2342835 0.5672131
vt 0.2527406 0.5672131
vt 0.2152751 0.5906525
vt 0.2151329 0.5907849
vt 0.2151425 0.5907959
vt 0.2148935 0.5910212
vt 0.2148776 0.5910023
vt 0.2146371 0.5912539
vt 0.2151237 0.5907737
vt 0.2146142 0.5912268
vt 0.2143851 0.5914858
vt 0.2151148 0.5907621
vt 0.2151063 0.5907503
vt 0.2148621 0.5909831
vt 0.2148469 0.5909635
vt 0.2148321 0.5909438
vt 0.2143546 0.5914499
vt 0.2141453 0.5917079
vt 0.2145919 0.5911993
vt 0.2145701 0.5911714
vt 0.214549 0.591143
vt 0.2141071 0.5916631
vt 0.2138899 0.5919416
vt 0.2143248 0.5914131
vt 0.2142959 0.5913759
vt 0.2142678 0.591338
vt 0.2138451 0.5918872
vt 0.2135612 0.592206
vt 0.21407 0.5916172
vt 0.2140338 0.5915706
vt 0.2139987 0.5915233
vt 0.2138012 0.5918323
vt 0.2137578 0.5917771
vt 0.2137148 0.5917212
vt 0.2135173 0.5921507
vt 0.2134292 0.59204
vt 0.2134734 0.5920953
vt 0.2131909 0.5924994
vt 0.2131532 0.5924429
vt 0.2127097 0.592663
vt 0.2131137 0.592392
vt 0.2130704 0.5923442
vt 0.213014 0.5922861
vt 0.2129757 0.5925362
vt 0.2129745 0.5925068
vt 0.2129474 0.5924941
vt 0.2152751 0.5906525
vt 0.2151329 0.5907849
vt 0.2151425 0.5907959
vt 0.2148935 0.5910212
vt 0.2148776 0.5910023
vt 0.2146371 0.5912539
vt 0.2151237 0.5907737
vt 0.2146142 0.5912268
vt 0.2143851 0.5914858
vt 0.2151148 0.5907621
vt 0.2151063 0.5907503
vt 0.2148621 0.5909831
vt 0.2148469 0.5909635
vt 0.2148321 0.5909438
vt 0.2143546 0.5914499
vt 0.2141453 0.5917079
vt 0.2145919 0.5911993
vt 0.2145701 0.5911714
vt 0.214549 0.591143
vt 0.2141071 0.5916631
vt 0.2138899 0.5919416
vt 0.2143248 0.5914131
vt 0.2142959 0.5913759
vt 0.2142678 0.591338
vt 0.2138451 0.5918872
vt 0.2135612 0.592206
vt 0.21407 0.5916172
vt 0.2140338 0.5915706
vt 0.2139987 0.5915233
vt 0.2138012 0.5918323
vt 0.2137578 0.5917771
vt 0.2137148 0.5917212
vt 0.2135173 0.5921507
vt 0.2134292 0.59204
vt 0.2134734 0.5920953
vt 0.2131909 0.5924994
vt 0.2131532 0.5924429
vt 0.2127097 0.592663
vt 0.2131137 0.592392
vt 0.2130704 0.5923442
vt 0.213014 0.5922861
vt 0.2129757 0.5925362
vt 0.2129745 0.5925068
vt 0.2129474 0.5924941
vt 0.2152751 0.5906525
vt 0.2151425 0.5907959
vt 0.2151329 0.5907849
vt 0.2148935 0.5910212
vt 0.2148776 0.5910023
vt 0.2146371 0.5912539
vt 0.2151237 0.5907737
vt 0.2146142 0.5912268
vt 0.2143851 0.5914858
vt 0.2151148 0.5907621
vt 0.2151063 0.5907503
vt 0.2148621 0.5909831
vt 0.2148469 0.5909635
vt 0.2148321 0.5909438
vt 0.2143546 0.5914499
vt 0.2141453 0.5917079
vt 0.2145919 0.5911993
vt 0.2145701 0.5911714
vt 0.214549 0.591143
vt 0.2141071 0.5916631
vt 0.2138899 0.5919416
vt 0.2143248 0.5914131
vt 0.2142959 0.5913759
vt 0.2142678 0.591338
vt 0.2138451 0.5918872
vt 0.2135612 0.592206
vt 0.21407 0.5916172
vt 0.2140338 0.5915706
vt 0.2139987 0.5915233
vt 0.2138012 0.5918323
vt 0.2137578 0.5917771
vt 0.2137148 0.5917212
vt 0.2135173 0.5921507
vt 0.2134734 0.5920953
vt 0.2134292 0.59204
vt 0.2131909 0.5924994
vt 0.2131532 0.5924429
vt 0.2127097 0.592663
vt 0.2131137 0.592392
vt 0.2130704 0.5923442
vt 0.213014 0.5922861
vt 0.2129757 0.5925362
vt 0.2129745 0.5925068
vt 0.2129474 0.5924941
vt 0.2152751 0.5906525
vt 0.2151425 0.5907959
vt 0.2151329 0.5907849
vt 0.2148935 0.5910212
vt 0.2148776 0.5910023
vt 0.2146371 0.5912539
vt 0.2151237 0.5907737
vt 0.2146142 0.5912268
vt 0.2143851 0.5914858
vt 0.2151148 0.5907621
vt 0.2151063 0.5907503
vt 0.2148621 0.5909831
vt 0.2148469 0.5909635
vt 0.2148321 0.5909438
vt 0.2143546 0.5914499
vt 0.2141453 0.5917079
vt 0.2145919 0.5911993
vt 0.2145701 0.5911714
vt 0.214549 0.591143
vt 0.2141071 0.5916631
vt 0.2138899 0.5919416
vt 0.2143248 0.5914131
vt 0.2142959 0.5913759
vt 0.2142678 0.591338
vt 0.2138451 0.5918872
vt 0.2135612 0.592206
vt 0.21407 0.5916172
vt 0.2140338 0.5915706
vt 0.2139987 0.5915233
vt 0.2138012 0.5918323
vt 0.2137578 0.5917771
vt 0.2137148 0.5917212
vt 0.2135173 0.5921507
vt 0.2134734 0.5920953
vt 0.2134292 0.59204
vt 0.2131909 0.5924994
vt 0.2131532 0.5924429
vt 0.2127097 0.592663
vt 0.2131137 0.592392
vt 0.2130704 0.5923442
vt 0.213014 0.5922861
vt 0.2129757 0.5925362
vt 0.2129745 0.5925068
vt 0.2129474 0.5924941
vt 0.2152751 0.5906525
vt 0.2151329 0.5907849
vt 0.2151425 0.5907959
vt 0.2148935 0.5910212
vt 0.2148776 0.5910023
vt 0.2146371 0.5912539
vt 0.2151237 0.5907737
vt 0.2146142 0.5912268
vt 0.2143851 0.5914858
vt 0.2151148 0.5907621
vt 0.2151063 0.5907503
vt 0.2148621 0.5909831
vt 0.2148469 0.5909635
vt 0.2148321 0.5909438
vt 0.2143546 0.5914499
vt 0.2141453 0.5917079
vt 0.2145919 0.5911993
vt 0.2145701 0.5911714
vt 0.214549 0.591143
vt 0.2141071 0.5916631
vt 0.2138899 0.5919416
vt 0.2143248 0.5914131
vt 0.2142959 0.5913759
vt 0.2142678 0.591338
vt 0.2138451 0.5918872
vt 0.2135612 0.592206
vt 0.21407 0.5916172
vt 0.2140338 0.5915706
vt 0.2139987 0.5915233
vt 0.2138012 0.5918323
vt 0.2137578 0.5917771
vt 0.2137148 0.5917212
vt 0.2135173 0.5921507
vt 0.2134292 0.59204
vt 0.2134734 0.5920953
vt 0.2131909 0.5924994
vt 0.2131532 0.5924429
vt 0.2127097 0.592663
vt 0.2131137 0.592392
vt 0.2130704 0.5923442
vt 0.213014 0.5922861
vt 0.2129757 0.5925362
vt 0.2129745 0.5925068
vt 0.2129474 0.5924941
usemtl MV_RedFerns
f 1/1/1 3/3/3 2/2/2
f 1/1/1 4/4/4 3/3/3
f 5/5/5 4/4/4 1/1/1
f 4/4/4 6/6/6 3/3/3
f 5/5/5 7/7/7 4/4/4
f 8/8/8 7/7/7 5/5/5
f 4/4/4 9/9/9 6/6/6
f 7/7/7 9/9/9 4/4/4
f 9/9/9 10/10/10 6/6/6
f 8/8/8 11/11/11 7/7/7
f 12/12/12 11/11/11 8/8/8
f 9/9/9 13/13/13 10/10/10
f 13/13/13 14/14/14 10/10/10
f 13/13/13 15/15/15 14/14/14
f 7/7/7 16/16/16 9/9/9
f 16/16/16 13/13/13 9/9/9
f 11/11/11 16/16/16 7/7/7
f 17/17/17 15/15/15 13/13/13
f 16/16/16 17/17/17 13/13/13
f 17/17/17 18/18/18 15/15/15
f 12/12/12 19/19/19 11/11/11
f 20/20/20 19/19/19 12/12/12
f 11/11/11 21/21/21 16/16/16
f 21/21/21 17/17/17 16/16/16
f 19/19/19 21/21/21 11/11/11
f 22/22/22 18/18/18 17/17/17
f 21/21/21 22/22/22 17/17/17
f 22/22/22 23/23/23 18/18/18
f 20/20/20 24/24/24 19/19/19
f 25/25/25 24/24/24 20/20/20
f 25/25/25 26/26/26 24/24/24
f 19/19/19 27/27/27 21/21/21
f 27/27/27 22/22/22 21/21/21
f 24/24/24 27/27/27 19/19/19
f 28/28/28 23/23/23 22/22/22
f 27/27/27 28/28/28 22/22/22
f 28/28/28 29/29/29 23/23/23
f 26/26/26 30/30/30 24/24/24
f 24/24/24 30/30/30 27/27/27
f 30/30/30 28/28/28 27/27/27
f 26/26/26 31/31/31 30/30/30
f 32/32/32 29/29/29 28/28/28
f 30/30/30 32/32/32 28/28/28
f 31/31/31 32/32/32 30/30/30
f 32/32/32 33/33/33 29/29/29
f 31/31/31 34/34/34 32/32/32
f 34/34/34 33/33/33 32/32/32
f 34/34/34 35/35/35 33/33/33
f 36/36/36 38/38/38 37/37/37
f 36/36/36 37/37/37 39/39/39
f 40/40/40 36/36/36 39/39/39
f 39/39/39 37/37/37 41/41/41
f 40/40/40 39/39/39 42/42/42
f 43/43/43 40/40/40 42/42/42
f 39/39/39 41/41/41 44/44/44
f 42/42/42 39/39/39 44/44/44
f 44/44/44 41/41/41 45/45/45
f 43/43/43 42/42/42 46/46/46
f 47/47/47 43/43/43 46/46/46
f 44/44/44 45/45/45 48/48/48
f 48/48/48 45/45/45 49/49/49
f 48/48/48 49/49/49 50/50/50
f 42/42/42 44/44/44 51/51/51
f 51/51/51 44/44/44 48/48/48
f 46/46/46 42/42/42 51/51/51
f 52/52/52 48/48/48 50/50/50
f 51/51/51 48/48/48 52/52/52
f 52/52/52 50/50/50 53/53/53
f 47/47/47 46/46/46 54/54/54
f 55/55/55 47/47/47 54/54/54
f 46/46/46 51/51/51 56/56/56
f 56/56/56 51/51/51 52/52/52
f 54/54/54 46/46/46 56/56/56
f 57/57/57 52/52/52 53/53/53
f 56/56/56 52/52/52 57/57/57
f 57/57/57 53/53/53 58/58/58
f 55/55/55 54/54/54 59/59/59
f 60/60/60 55/55/55 59/59/59
f 60/60/60 59/59/59 61/61/61
f 54/54/54 56/56/56 62/62/62
f 62/62/62 56/56/56 57/57/57
f 59/59/59 54/54/54 62/62/62
f 63/63/63 57/57/57 58/58/58
f 62/62/62 57/57/57 63/63/63
f 63/63/63 58/58/58 64/64/64
f 61/61/61 59/59/59 65/65/65
f 59/59/59 62/62/62 65/65/65
f 65/65/65 62/62/62 63/63/63
f 61/61/61 65/65/65 66/66/66
f 67/67/67 63/63/63 64/64/64
f 65/65/65 63/63/63 67/67/67
f 66/66/66 65/65/65 67/67/67
f 67/67/67 64/64/64 68/68/68
f 66/66/66 67/67/67 69/69/69
f 69/69/69 67/67/67 68/68/68
f 69/69/69 68/68/68 70/70/70
f 71/71/71 73/73/73 72/72/72
f 74/74/74 71/71/71 72/72/72
f 71/71/71 74/74/74 75/75/75
f 71/71/71 75/75/75 76/76/76
f 77/77/77 71/71/71 76/76/76
f 77/77/77 78/78/78 72/72/72
f 74/74/74 79/79/79 75/75/75
f 74/74/74 72/72/72 80/80/80
f 78/78/78 80/80/80 72/72/72
f 74/74/74 81/81/81 79/79/79
f 81/81/81 74/74/74 80/80/80
f 81/81/81 82/82/82 79/79/79
f 81/81/81 83/83/83 82/82/82
f 83/83/83 84/84/84 82/82/82
f 81/81/81 80/80/80 85/85/85
f 83/83/83 81/81/81 85/85/85
f 78/78/78 86/86/86 80/80/80
f 86/86/86 85/85/85 80/80/80
f 83/83/83 87/87/87 84/84/84
f 87/87/87 88/88/88 84/84/84
f 89/89/89 86/86/86 78/78/78
f 90/90/90 89/89/89 78/78/78
f 89/89/89 91/91/91 86/86/86
f 91/91/91 92/92/92 86/86/86
f 86/86/86 92/92/92 85/85/85
f 91/91/91 93/93/93 92/92/92
f 83/83/83 85/85/85 94/94/94
f 92/92/92 94/94/94 85/85/85
f 87/87/87 83/83/83 94/94/94
f 93/93/93 95/95/95 92/92/92
f 92/92/92 95/95/95 94/94/94
f 93/93/93 96/96/96 95/95/95
f 87/87/87 97/97/97 88/88/88
f 97/97/97 98/98/98 88/88/88
f 87/87/87 94/94/94 99/99/99
f 95/95/95 99/99/99 94/94/94
f 97/97/97 87/87/87 99/99/99
f 96/96/96 100/100/100 95/95/95
f 95/95/95 100/100/100 99/99/99
f 96/96/96 101/101/101 100/100/100
f 97/97/97 99/99/99 102/102/102
f 100/100/100 102/102/102 99/99/99
f 101/101/101 103/103/103 100/100/100
f 100/100/100 103/103/103 102/102/102
f 101/101/101 104/104/104 103/103/103
f 102/102/102 105/105/105 97/97/97
f 97/97/97 105/105/105 98/98/98
f 103/103/103 106/106/106 102/102/102
f 102/102/102 106/106/106 105/105/105
f 104/104/104 107/107/107 103/103/103
f 104/104/104 98/98/98 107/107/107
f 103/103/103 107/107/107 106/106/106
f 105/105/105 108/108/108 98/98/98
f 105/105/105 109/109/109 108/108/108
f 106/106/106 109/109/109 105/105/105
f 109/109/109 110/110/110 108/108/108
f 107/107/107 111/111/111 106/106/106
f 106/106/106 111/111/111 109/109/109
f 98/98/98 112/112/112 107/107/107
f 107/107/107 112/112/112 111/111/111
f 98/98/98 113/113/113 112/112/112
f 111/111/111 114/114/114 109/109/109
f 109/109/109 114/114/114 110/110/110
f 111/111/111 115/115/115 114/114/114
f 112/112/112 115/115/115 111/111/111
f 110/110/110 114/114/114 115/115/115
f 113/113/113 116/116/116 112/112/112
f 113/113/113 110/110/110 116/116/116
f 110/110/110 115/115/115 116/116/116
f 112/112/112 116/116/116 115/115/115
f 117/117/117 119/119/119 118/118/118
f 117/117/117 118/118/118 120/120/120
f 121/121/121 117/117/117 120/120/120
f 120/120/120 118/118/118 122/122/122
f 121/121/121 120/120/120 123/123/123
f 124/124/124 121/121/121 123/123/123
f 120/120/120 122/122/122 125/125/125
f 123/123/123 120/120/120 125/125/125
f 125/125/125 122/122/122 126/126/126
f 124/124/124 123/123/123 127/127/127
f 128/128/128 124/124/124 127/127/127
f 125/125/125 126/126/126 129/129/129
f 129/129/129 126/126/126 130/130/130
f 129/129/129 130/130/130 131/131/131
f 123/123/123 125/125/125 132/132/132
f 132/132/132 125/125/125 129/129/129
f 127/127/127 123/123/123 132/132/132
f 133/133/133 129/129/129 131/131/131
f 132/132/132 129/129/129 133/133/133
f 133/133/133 131/131/131 134/134/134
f 128/128/128 127/127/127 135/135/135
f 136/136/136 128/128/128 135/135/135
f 127/127/127 132/132/132 137/137/137
f 137/137/137 132/132/132 133/133/133
f 135/135/135 127/127/127 137/137/137
f 138/138/138 133/133/133 134/134/134
f 137/137/137 133/133/133 138/138/138
f 138/138/138 134/134/134 139/139/139
f 136/136/136 135/135/135 140/140/140
f 141/141/141 136/136/136 140/140/140
f 141/141/141 140/140/140 142/142/142
f 135/135/135 137/137/137 143/143/143
f 143/143/143 137/137/137 138/138/138
f 140/140/140 135/135/135 143/143/143
f 144/144/144 138/138/138 139/139/139
f 143/143/143 138/138/138 144/144/144
f 144/144/144 139/139/139 145/145/145
f 142/142/142 140/140/140 146/146/146
f 140/140/140 143/143/143 146/146/146
f 146/146/146 143/143/143 144/144/144
f 142/142/142 146/146/146 147/147/147
f 148/148/148 144/144/144 145/145/145
f 146/146/146 144/144/144 148/148/148
f 147/147/147 146/146/146 148/148/148
f 148/148/148 145/145/145 149/149/149
f 147/147/147 148/148/148 150/150/150
f 150/150/150 148/148/148 149/149/149
f 150/150/150 149/149/149 151/151/151
f 152/152/152 154/154/154 153/153/153
f 152/152/152 153/153/153 155/155/155
f 156/156/156 152/152/152 155/155/155
f 155/155/155 153/153/153 157/157/157
f 156/156/156 155/155/155 158/158/158
f 159/159/159 156/156/156 158/158/158
f 155/155/155 157/157/157 160/160/160
f 158/158/158 155/155/155 160/160/160
f 160/160/160 157/157/157 161/161/161
f 159/159/159 158/158/158 162/162/162
f 163/163/163 159/159/159 162/162/162
f 160/160/160 161/161/161 164/164/164
f 164/164/164 161/161/161 165/165/165
f 164/164/164 165/165/165 166/166/166
f 158/158/158 160/160/160 167/167/167
f 167/167/167 160/160/160 164/164/164
f 162/162/162 158/158/158 167/167/167
f 168/168/168 164/164/164 166/166/166
f 167/167/167 164/164/164 168/168/168
f 168/168/168 166/166/166 169/169/169
f 163/163/163 162/162/162 170/170/170
f 171/171/171 163/163/163 170/170/170
f 162/162/162 167/167/167 172/172/172
f 172/172/172 167/167/167 168/168/168
f 170/170/170 162/162/162 172/172/172
f 173/173/173 168/168/168 169/169/169
f 172/172/172 168/168/168 173/173/173
f 173/173/173 169/169/169 174/174/174
f 171/171/171 170/170/170 175/175/175
f 176/176/176 171/171/171 175/175/175
f 176/176/176 175/175/175 177/177/177
f 170/170/170 172/172/172 178/178/178
f 178/178/178 172/172/172 173/173/173
f 175/175/175 170/170/170 178/178/178
f 179/179/179 173/173/173 174/174/174
f 178/178/178 173/173/173 179/179/179
f 179/179/179 174/174/174 180/180/180
f 177/177/177 175/175/175 181/181/181
f 175/175/175 178/178/178 181/181/181
f 181/181/181 178/178/178 179/179/179
f 177/177/177 181/181/181 182/182/182
f 183/183/183 179/179/179 180/180/180
f 181/181/181 179/179/179 183/183/183
f 182/182/182 181/181/181 183/183/183
f 183/183/183 180/180/180 184/184/184
f 182/182/182 183/183/183 185/185/185
f 185/185/185 183/183/183 184/184/184
f 185/185/185 184/184/184 186/186/186
f 187/187/187 189/189/189 188/188/188
f 187/187/187 190/190/190 189/189/189
f 191/191/191 190/190/190 187/187/187
f 190/190/190 192/192/192 189/189/189
f 191/191/191 193/193/193 190/190/190
f 194/194/194 193/193/193 191/191/191
f 190/190/190 195/195/195 192/192/192
f 193/193/193 195/195/195 190/190/190
f 195/195/195 196/196/196 192/192/192
f 194/194/194 197/197/197 193/193/193
f 198/198/198 197/197/197 194/194/194
f 195/195/195 199/199/199 196/196/196
f 199/199/199 200/200/200 196/196/196
f 199/199/199 201/201/201 200/200/200
f 193/193/193 202/202/202 195/195/195
f 202/202/202 199/199/199 195/195/195
f 197/197/197 202/202/202 193/193/193
f 203/203/203 201/201/201 199/199/199
f 202/202/202 203/203/203 199/199/199
f 203/203/203 204/204/204 201/201/201
f 198/198/198 205/205/205 197/197/197
f 206/206/206 205/205/205 198/198/198
f 197/197/197 207/207/207 202/202/202
f 207/207/207 203/203/203 202/202/202
f 205/205/205 207/207/207 197/197/197
f 208/208/208 204/204/204 203/203/203
f 207/207/207 208/208/208 203/203/203
f 208/208/208 209/209/209 204/204/204
f 206/206/206 210/210/210 205/205/205
f 211/211/211 210/210/210 206/206/206
f 211/211/211 212/212/212 210/210/210
f 205/205/205 213/213/213 207/207/207
f 213/213/213 208/208/208 207/207/207
f 210/210/210 213/213/213 205/205/205
f 214/214/214 209/209/209 208/208/208
f 213/213/213 214/214/214 208/208/208
f 214/214/214 215/215/215 209/209/209
f 212/212/212 216/216/216 210/210/210
f 210/210/210 216/216/216 213/213/213
f 216/216/216 214/214/214 213/213/213
f 212/212/212 217/217/217 216/216/216
f 218/218/218 215/215/215 214/214/214
f 216/216/216 218/218/218 214/214/214
f 217/217/217 218/218/218 216/216/216
f 218/218/218 219/219/219 215/215/215
f 217/217/217 220/220/220 218/218/218
f 220/220/220 219/219/219 218/218/218
f 220/220/220 221/221/221 219/219/219
f 222/222/222 224/224/224 223/223/223
f 222/222/222 225/225/225 224/224/224
f 226/226/226 225/225/225 222/222/222
f 225/225/225 227/227/227 224/224/224
f 226/226/226 228/228/228 225/225/225
f 229/229/229 228/228/228 226/226/226
f 225/225/225 230/230/230 227/227/227
f 228/228/228 230/230/230 225/225/225
f 230/230/230 231/231/231 227/227/227
f 229/229/229 232/232/232 228/228/228
f 233/233/233 232/232/232 229/229/229
f 230/230/230 234/234/234 231/231/231
f 234/234/234 235/235/235 231/231/231
f 234/234/234 236/236/236 235/235/235
f 228/228/228 237/237/237 230/230/230
f 237/237/237 234/234/234 230/230/230
f 232/232/232 237/237/237 228/228/228
f 238/238/238 236/236/236 234/234/234
f 237/237/237 238/238/238 234/234/234
f 238/238/238 239/239/239 236/236/236
f 233/233/233 240/240/240 232/232/232
f 241/241/241 240/240/240 233/233/233
f 232/232/232 242/242/242 237/237/237
f 242/242/242 238/238/238 237/237/237
f 240/240/240 242/242/242 232/232/232
f 243/243/243 239/239/239 238/238/238
f 242/242/242 243/243/243 238/238/238
f 243/243/243 244/244/244 239/239/239
f 241/241/241 245/245/245 240/240/240
f 246/246/246 245/245/245 241/241/241
f 246/246/246 247/247/247 245/245/245
f 240/240/240 248/248/248 242/242/242
f 248/248/248 243/243/243 242/242/242
f 245/245/245 248/248/248 240/240/240
f 249/249/249 244/244/244 243/243/243
f 248/248/248 249/249/249 243/243/243
f 249/249/249 250/250/250 244/244/244
f 247/247/247 251/251/251 245/245/245
f 245/245/245 251/251/251 248/248/248
f 251/251/251 249/249/249 248/248/248
f 247/247/247 252/252/252 251/251/251
f 253/253/253 250/250/250 249/249/249
f 251/251/251 253/253/253 249/249/249
f 252/252/252 253/253/253 251/251/251
f 253/253/253 254/254/254 250/250/250
f 252/252/252 255/255/255 253/253/253
f 255/255/255 254/254/254 253/253/253
f 255/255/255 256/256/256 254/254/254
f 257/257/257 259/259/259 258/258/258
f 258/258/258 259/259/259 260/260/260
f 258/258/258 260/260/260 261/261/261
f 261/261/261 260/260/260 262/262/262
f 258/258/258 263/263/263 257/257/257
f 261/261/261 263/263/263 258/258/258
f 261/261/261 262/262/262 264/264/264
f 264/264/264 262/262/262 265/265/265
f 257/257/257 263/263/263 266/266/266
f 257/257/257 266/266/266 267/267/267
f 261/261/261 268/268/268 263/263/263
f 266/266/266 263/263/263 268/268/268
f 264/264/264 268/268/268 261/261/261
f 267/267/267 266/266/266 269/269/269
f 266/266/266 268/268/268 269/269/269
f 267/267/267 269/269/269 270/270/270
f 264/264/264 265/265/265 271/271/271
f 271/271/271 265/265/265 272/272/272
f 264/264/264 273/273/273 268/268/268
f 269/269/269 268/268/268 273/273/273
f 271/271/271 273/273/273 264/264/264
f 270/270/270 269/269/269 274/274/274
f 269/269/269 273/273/273 274/274/274
f 270/270/270 274/274/274 275/275/275
f 271/271/271 272/272/272 276/276/276
f 276/276/276 272/272/272 277/277/277
f 271/271/271 278/278/278 273/273/273
f 274/274/274 273/273/273 278/278/278
f 276/276/276 278/278/278 271/271/271
f 275/275/275 274/274/274 279/279/279
f 274/274/274 278/278/278 279/279/279
f 275/275/275 279/279/279 280/280/280
f 276/276/276 277/277/277 281/281/281
f 281/281/281 277/277/277 282/282/282
f 276/276/276 283/283/283 278/278/278
f 279/279/279 278/278/278 283/283/283
f 281/281/281 283/283/283 276/276/276
f 280/280/280 279/279/279 284/284/284
f 279/279/279 283/283/283 284/284/284
f 280/280/280 284/284/284 285/285/285
f 281/281/281 286/286/286 283/283/283
f 284/284/284 283/283/283 286/286/286
f 285/285/285 284/284/284 287/287/287
f 284/284/284 286/286/286 287/287/287
f 285/285/285 287/287/287 288/288/288
f 286/286/286 281/281/281 289/289/289
f 281/281/281 282/282/282 289/289/289
f 288/288/288 287/287/287 290/290/290
f 288/288/288 290/290/290 282/282/282
f 287/287/287 286/286/286 291/291/291
f 286/286/286 289/289/289 291/291/291
f 287/287/287 291/291/291 290/290/290
f 289/289/289 282/282/282 292/292/292
f 289/289/289 292/292/292 293/293/293
f 291/291/291 289/289/289 293/293/293
f 293/293/293 292/292/292 294/294/294
f 290/290/290 291/291/291 295/295/295
f 291/291/291 293/293/293 295/295/295
f 282/282/282 290/290/290 296/296/296
f 290/290/290 295/295/295 296/296/296
f 282/282/282 296/296/296 297/297/297
f 295/295/295 293/293/293 298/298/298
f 293/293/293 294/294/294 298/298/298
f 295/295/295 298/298/298 299/299/299
f 296/296/296 295/295/295 299/299/299
f 294/294/294 299/299/299 298/298/298
f 297/297/297 300/300/300 294/294/294
f 297/297/297 296/296/296 300/300/300
f 294/294/294 300/300/300 299/299/299
f 296/296/296 299/299/299 300/300/300
f 301/301/301 303/303/303 302/302/302
f 302/302/302 303/303/303 304/304/304
f 302/302/302 304/304/304 305/305/305
f 305/305/305 304/304/304 306/306/306
f 302/302/302 307/307/307 301/301/301
f 305/305/305 307/307/307 302/302/302
f 305/305/305 306/306/306 308/308/308
f 308/308/308 306/306/306 309/309/309
f 301/301/301 307/307/307 310/310/310
f 301/301/301 310/310/310 311/311/311
f 305/305/305 312/312/312 307/307/307
f 310/310/310 307/307/307 312/312/312
f 308/308/308 312/312/312 305/305/305
f 311/311/311 310/310/310 313/313/313
f 310/310/310 312/312/312 313/313/313
f 311/311/311 313/313/313 314/314/314
f 308/308/308 309/309/309 315/315/315
f 315/315/315 309/309/309 316/316/316
f 308/308/308 317/317/317 312/312/312
f 313/313/313 312/312/312 317/317/317
f 315/315/315 317/317/317 308/308/308
f 314/314/314 313/313/313 318/318/318
f 313/313/313 317/317/317 318/318/318
f 314/314/314 318/318/318 319/319/319
f 315/315/315 316/316/316 320/320/320
f 320/320/320 316/316/316 321/321/321
f 315/315/315 322/322/322 317/317/317
f 318/318/318 317/317/317 322/322/322
f 320/320/320 322/322/322 315/315/315
f 319/319/319 318/318/318 323/323/323
f 318/318/318 322/322/322 323/323/323
f 319/319/319 323/323/323 324/324/324
f 320/320/320 321/321/321 325/325/325
f 325/325/325 321/321/321 326/326/326
f 320/320/320 327/327/327 322/322/322
f 323/323/323 322/322/322 327/327/327
f 325/325/325 327/327/327 320/320/320
f 324/324/324 323/323/323 328/328/328
f 323/323/323 327/327/327 328/328/328
f 324/324/324 328/328/328 329/329/329
f 325/325/325 330/330/330 327/327/327
f 328/328/328 327/327/327 330/330/330
f 329/329/329 328/328/328 331/331/331
f 328/328/328 330/330/330 331/331/331
f 329/329/329 331/331/331 332/332/332
f 330/330/330 325/325/325 333/333/333
f 325/325/325 326/326/326 333/333/333
f 332/332/332 331/331/331 334/334/334
f 332/332/332 334/334/334 326/326/326
f 331/331/331 330/330/330 335/335/335
f 330/330/330 333/333/333 335/335/335
f 331/331/331 335/335/335 334/334/334
f 333/333/333 326/326/326 336/336/336
f 333/333/333 336/336/336 337/337/337
f 335/335/335 333/333/333 337/337/337
f 337/337/337 336/336/336 338/338/338
f 334/334/334 335/335/335 339/339/339
f 335/335/335 337/337/337 339/339/339
f 326/326/326 334/334/334 340/340/340
f 334/334/334 339/339/339 340/340/340
f 326/326/326 340/340/340 341/341/341
f 339/339/339 337/337/337 342/342/342
f 337/337/337 338/338/338 342/342/342
f 339/339/339 342/342/342 343/343/343
f 340/340/340 339/339/339 343/343/343
f 338/338/338 343/343/343 342/342/342
f 341/341/341 344/344/344 338/338/338
f 341/341/341 340/340/340 344/344/344
f 338/338/338 344/344/344 343/343/343
f 340/340/340 343/343/343 344/344/344
f 345/345/345 347/347/347 346/346/346
f 347/347/347 348/348/348 346/346/346
f 347/347/347 349/349/349 348/348/348
f 349/349/349 350/350/350 348/348/348
f 347/347/347 345/345/345 351/351/351
f 349/349/349 347/347/347 351/351/351
f 349/349/349 352/352/352 350/350/350
f 352/352/352 353/353/353 350/350/350
f 345/345/345 354/354/354 351/351/351
f 345/345/345 355/355/355 354/354/354
f 349/349/349 351/351/351 356/356/356
f 354/354/354 356/356/356 351/351/351
f 352/352/352 349/349/349 356/356/356
f 355/355/355 357/357/357 354/354/354
f 354/354/354 357/357/357 356/356/356
f 355/355/355 358/358/358 357/357/357
f 352/352/352 359/359/359 353/353/353
f 359/359/359 360/360/360 353/353/353
f 352/352/352 356/356/356 361/361/361
f 357/357/357 361/361/361 356/356/356
f 359/359/359 352/352/352 361/361/361
f 358/358/358 362/362/362 357/357/357
f 357/357/357 362/362/362 361/361/361
f 358/358/358 363/363/363 362/362/362
f 359/359/359 364/364/364 360/360/360
f 364/364/364 365/365/365 360/360/360
f 359/359/359 361/361/361 366/366/366
f 362/362/362 366/366/366 361/361/361
f 364/364/364 359/359/359 366/366/366
f 363/363/363 367/367/367 362/362/362
f 362/362/362 367/367/367 366/366/366
f 363/363/363 368/368/368 367/367/367
f 364/364/364 369/369/369 365/365/365
f 369/369/369 370/370/370 365/365/365
f 364/364/364 366/366/366 371/371/371
f 367/367/367 371/371/371 366/366/366
f 369/369/369 364/364/364 371/371/371
f 368/368/368 372/372/372 367/367/367
f 367/367/367 372/372/372 371/371/371
f 368/368/368 373/373/373 372/372/372
f 369/369/369 371/371/371 374/374/374
f 372/372/372 374/374/374 371/371/371
f 373/373/373 375/375/375 372/372/372
f 372/372/372 375/375/375 374/374/374
f 373/373/373 376/376/376 375/375/375
f 374/374/374 377/377/377 369/369/369
f 369/369/369 377/377/377 370/370/370
f 375/375/375 378/378/378 374/374/374
f 374/374/374 378/378/378 377/377/377
f 376/376/376 379/379/379 375/375/375
f 376/376/376 370/370/370 379/379/379
f 375/375/375 379/379/379 378/378/378
f 377/377/377 380/380/380 370/370/370
f 377/377/377 381/381/381 380/380/380
f 378/378/378 381/381/381 377/377/377
f 381/381/381 382/382/382 380/380/380
f 379/379/379 383/383/383 378/378/378
f 378/378/378 383/383/383 381/381/381
f 370/370/370 384/384/384 379/379/379
f 379/379/379 384/384/384 383/383/383
f 370/370/370 385/385/385 384/384/384
f 383/383/383 386/386/386 381/381/381
f 381/381/381 386/386/386 382/382/382
f 383/383/383 387/387/387 386/386/386
f 384/384/384 387/387/387 383/383/383
f 382/382/382 386/386/386 387/387/387
f 385/385/385 388/388/388 384/384/384
f 385/385/385 382/382/382 388/388/388
f 382/382/382 387/387/387 388/388/388
f 384/384/384 388/388/388 387/387/387
f 389/389/389 391/391/391 390/390/390
f 391/391/391 392/392/392 390/390/390
f 391/391/391 393/393/393 392/392/392
f 393/393/393 394/394/394 392/392/392
f 391/391/391 389/389/389 395/395/395
f 393/393/393 391/391/391 395/395/395
f 393/393/393 396/396/396 394/394/394
f 396/396/396 397/397/397 394/394/394
f 389/389/389 398/398/398 395/395/395
f 389/389/389 399/399/399 398/398/398
f 393/393/393 395/395/395 400/400/400
f 398/398/398 400/400/400 395/395/395
f 396/396/396 393/393/393 400/400/400
f 399/399/399 401/401/401 398/398/398
f 398/398/398 401/401/401 400/400/400
f 399/399/399 402/402/402 401/401/401
f 396/396/396 403/403/403 397/397/397
f 403/403/403 404/404/404 397/397/397
f 396/396/396 400/400/400 405/405/405
f 401/401/401 405/405/405 400/400/400
f 403/403/403 396/396/396 405/405/405
f 402/402/402 406/406/406 401/401/401
f 401/401/401 406/406/406 405/405/405
f 402/402/402 407/407/407 406/406/406
f 403/403/403 408/408/408 404/404/404
f 408/408/408 409/409/409 404/404/404
f 403/403/403 405/405/405 410/410/410
f 406/406/406 410/410/410 405/405/405
f 408/408/408 403/403/403 410/410/410
f 407/407/407 411/411/411 406/406/406
f 406/406/406 411/411/411 410/410/410
f 407/407/407 412/412/412 411/411/411
f 408/408/408 413/413/413 409/409/409
f 413/413/413 414/414/414 409/409/409
f 408/408/408 410/410/410 415/415/415
f 411/411/411 415/415/415 410/410/410
f 413/413/413 408/408/408 415/415/415
f 412/412/412 416/416/416 411/411/411
f 411/411/411 416/416/416 415/415/415
f 412/412/412 417/417/417 416/416/416
f 413/413/413 415/415/415 418/418/418
f 416/416/416 418/418/418 415/415/415
f 417/417/417 419/419/419 416/416/416
f 416/416/416 419/419/419 418/418/418
f 417/417/417 420/420/420 419/419/419
f 418/418/418 421/421/421 413/413/413
f 413/413/413 421/421/421 414/414/414
f 419/419/419 422/422/422 418/418/418
f 418/418/418 422/422/422 421/421/421
f 420/420/420 423/423/423 419/419/419
f 420/420/420 414/414/414 423/423/423
f 419/419/419 423/423/423 422/422/422
f 421/421/421 424/424/424 414/414/414
f 421/421/421 425/425/425 424/424/424
f 422/422/422 425/425/425 421/421/421
f 425/425/425 426/426/426 424/424/424
f 423/423/423 427/427/427 422/422/422
f 422/422/422 427/427/427 425/425/425
f 414/414/414 428/428/428 423/423/423
f 423/423/423 428/428/428 427/427/427
f 414/414/414 429/429/429 428/428/428
f 427/427/427 430/430/430 425/425/425
f 425/425/425 430/430/430 426/426/426
f 427/427/427 431/431/431 430/430/430
f 428/428/428 431/431/431 427/427/427
f 426/426/426 430/430/430 431/431/431
f 429/429/429 432/432/432 428/428/428
f 429/429/429 426/426/426 432/432/432
f 426/426/426 431/431/431 432/432/432
f 428/428/428 432/432/432 431/431/431
f 433/433/433 435/435/435 434/434/434
f 434/434/434 435/435/435 436/436/436
f 434/434/434 436/436/436 437/437/437
f 437/437/437 436/436/436 438/438/438
f 434/434/434 439/439/439 433/433/433
f 437/437/437 439/439/439 434/434/434
f 437/437/437 438/438/438 440/440/440
f 440/440/440 438/438/438 441/441/441
f 433/433/433 439/439/439 442/442/442
f 433/433/433 442/442/442 443/443/443
f 437/437/437 444/444/444 439/439/439
f 442/442/442 439/439/439 444/444/444
f 440/440/440 444/444/444 437/437/437
f 443/443/443 442/442/442 445/445/445
f 442/442/442 444/444/444 445/445/445
f 443/443/443 445/445/445 446/446/446
f 440/440/440 441/441/441 447/447/447
f 447/447/447 441/441/441 448/448/448
f 440/440/440 449/449/449 444/444/444
f 445/445/445 444/444/444 449/449/449
f 447/447/447 449/449/449 440/440/440
f 446/446/446 445/445/445 450/450/450
f 445/445/445 449/449/449 450/450/450
f 446/446/446 450/450/450 451/451/451
f 447/447/447 448/448/448 452/452/452
f 452/452/452 448/448/448 453/453/453
f 447/447/447 454/454/454 449/449/449
f 450/450/450 449/449/449 454/454/454
f 452/452/452 454/454/454 447/447/447
f 451/451/451 450/450/450 455/455/455
f 450/450/450 454/454/454 455/455/455
f 451/451/451 455/455/455 456/456/456
f 452/452/452 453/453/453 457/457/457
f 457/457/457 453/453/453 458/458/458
f 452/452/452 459/459/459 454/454/454
f 455/455/455 454/454/454 459/459/459
f 457/457/457 459/459/459 452/452/452
f 456/456/456 455/455/455 460/460/460
f 455/455/455 459/459/459 460/460/460
f 456/456/456 460/460/460 461/461/461
f 457/457/457 462/462/462 459/459/459
f 460/460/460 459/459/459 462/462/462
f 461/461/461 460/460/460 463/463/463
f 460/460/460 462/462/462 463/463/463
f 461/461/461 463/463/463 464/464/464
f 462/462/462 457/457/457 465/465/465
f 457/457/457 458/458/458 465/465/465
f 464/464/464 463/463/463 466/466/466
f 464/464/464 466/466/466 458/458/458
f 463/463/463 462/462/462 467/467/467
f 462/462/462 465/465/465 467/467/467
f 463/463/463 467/467/467 466/466/466
f 465/465/465 458/458/458 468/468/468
f 465/465/465 468/468/468 469/469/469
f 467/467/467 465/465/465 469/469/469
f 469/469/469 468/468/468 470/470/470
f 466/466/466 467/467/467 471/471/471
f 467/467/467 469/469/469 471/471/471
f 458/458/458 466/466/466 472/472/472
f 466/466/466 471/471/471 472/472/472
f 458/458/458 472/472/472 473/473/473
f 471/471/471 469/469/469 474/474/474
f 469/469/469 470/470/470 474/474/474
f 471/471/471 474/474/474 475/475/475
f 472/472/472 471/471/471 475/475/475
f 470/470/470 475/475/475 474/474/474
f 473/473/473 476/476/476 470/470/470
f 473/473/473 472/472/472 476/476/476
f 470/470/470 476/476/476 475/475/475
f 472/472/472 475/475/475 476/476/476
