mtllib P_Beach_Scallop.mtl
v -0.1913002 0.00808839 4.555249E-06
v -0.1330085 0.001039625 -0.141632
v -0.206608 0.006694818 -0.1115122
v -0.09623699 0.006859311 -0.0007947274
v -0.13372 0.0004035814 0.1401055
v -0.2064193 0.006635168 0.1115077
v 0.007620894 -0.04141545 -0.004642742
v -0.02306543 0.0007284843 -0.2611988
v -0.02880063 -0.001089984 0.2549663
v 0.05846446 0.000728485 -0.2567595
v 0.04884298 -0.002026876 0.2461437
v 0.1663954 0.0007284931 -0.2066934
v 0.1539233 -0.002813018 0.188761
v 0.2456152 0.0004232395 -0.1131435
v 0.2369026 -0.001885241 0.09114703
v 0.2713061 -0.0004790949 -0.01154593
v -0.0230654 0.02303882 -0.2611988
v -0.02306543 0.0007284843 -0.2611988
v 0.05846446 0.000728485 -0.2567595
v -0.1330085 0.001039625 -0.141632
v 0.05847199 0.02303882 -0.2567708
v 0.1663954 0.0007284931 -0.2066934
v -0.1330085 0.02278169 -0.141632
v -0.206608 0.006694818 -0.1115122
v 0.1664158 0.02303883 -0.206724
v 0.2456152 0.0004232395 -0.1131435
v 0.0134157 0.07657234 -0.005060094
v 0.2456274 0.02272803 -0.1132168
v 0.2712961 0.02181884 -0.01166734
v 0.2713061 -0.0004790949 -0.01154593
v 0.2369026 -0.001885241 0.09114703
v 0.236849 0.0204021 0.09100759
v 0.1539233 -0.002813018 0.188761
v 0.1538219 0.01946279 0.1886091
v 0.04884298 -0.002026876 0.2461437
v 0.04875882 0.02025989 0.2460466
v -0.02880063 -0.001089984 0.2549663
v -0.02886555 0.02120379 0.2549028
v -0.13372 0.0004035814 0.1401055
v -0.1337434 0.02213729 0.1400777
v -0.2064193 0.006635168 0.1115077
v -0.09623256 0.05025066 -0.0007727237
v -0.2064165 0.01804655 0.1115067
v -0.1913002 0.00808839 4.555249E-06
v -0.1912993 0.01996084 4.933416E-06
v -0.206608 0.01810746 -0.1115122
vn -0.6911811 -0.7226817 -2.348697E-05
vn -0.4647222 -0.7168058 -0.5198296
vn -0.7179376 -0.5680311 -0.4023758
vn -0.2517804 -0.9677526 -0.00785006
vn -0.4639803 -0.7234948 0.5111532
vn -0.7179306 -0.5680825 0.4023158
vn -0.0862952 -0.9962696 -8.342321E-06
vn -0.3058401 -0.5724691 -0.7607503
vn -0.2911066 -0.5664248 0.7709863
vn 0.1882186 -0.6116177 -0.7684383
vn 0.2357272 -0.6128296 0.7542365
vn 0.4814958 -0.6077914 -0.6314677
vn 0.4959345 -0.6140234 0.614023
vn 0.7083057 -0.6059989 -0.3620337
vn 0.6908048 -0.612264 0.3846056
vn 0.8016602 -0.5973149 0.02357759
vn -0.3067723 0.5583841 -0.7707776
vn -0.3058401 -0.5724691 -0.7607503
vn 0.1882186 -0.6116177 -0.7684383
vn -0.4647222 -0.7168058 -0.5198296
vn 0.1963703 0.5970545 -0.7777948
vn 0.4814958 -0.6077914 -0.6314677
vn -0.4737671 0.6791077 -0.5606759
vn -0.7179376 -0.5680311 -0.4023758
vn 0.4872306 0.5893853 -0.6443844
vn 0.7083057 -0.6059989 -0.3620337
vn -0.02361678 0.9996901 0.007874507
vn 0.7168624 0.5907992 -0.3702225
vn 0.8117375 0.5831705 0.03153375
vn 0.8016602 -0.5973149 0.02357759
vn 0.6908048 -0.612264 0.3846056
vn 0.7003598 0.5902537 0.4013686
vn 0.4959345 -0.6140234 0.614023
vn 0.5097421 0.588279 0.6277665
vn 0.2357272 -0.6128296 0.7542365
vn 0.2436464 0.5894437 0.77019
vn -0.2911066 -0.5664248 0.7709863
vn -0.2846412 0.5534849 0.7827093
vn -0.4639803 -0.7234948 0.5111532
vn -0.4627703 0.6831475 0.5649365
vn -0.7179306 -0.5680825 0.4023158
vn -0.2591451 0.9658384 2.246565E-05
vn -0.7156208 0.5662317 0.4089848
vn -0.6911811 -0.7226817 -2.348697E-05
vn -0.756486 0.6540099 1.173979E-05
vn -0.7156558 0.5662242 -0.4089339
vt 0.4760742 0.8939209
vt 0.5546875 0.9269409
vt 0.5136719 0.9438782
vt 0.5136719 0.8581543
vt 0.4472656 0.8137207
vt 0.4282227 0.8536377
vt 0.5585938 0.8155518
vt 0.6445313 0.9331055
vt 0.4458008 0.7236328
vt 0.6757813 0.9003296
vt 0.4802246 0.6943359
vt 0.6987305 0.8387451
vt 0.5429688 0.6743164
vt 0.6933594 0.7695313
vt 0.6118164 0.6838379
vt 0.6640625 0.7158203
vt 0.4421387 0.7416992
vt 0.4311523 0.7368164
vt 0.4599609 0.701416
vt 0.4196777 0.8261719
vt 0.4682617 0.7116699
vt 0.5214844 0.6728516
vt 0.4333496 0.8273926
vt 0.420166 0.8765869
vt 0.5244141 0.6853027
vt 0.5922852 0.6728516
vt 0.5571289 0.8170166
vt 0.5898438 0.6853027
vt 0.6420898 0.7092285
vt 0.6499023 0.6989746
vt 0.6894531 0.7478027
vt 0.6777344 0.7540283
vt 0.7075195 0.8172607
vt 0.6943359 0.8178711
vt 0.6948242 0.8844604
vt 0.6826172 0.8793335
vt 0.6660156 0.9237671
vt 0.6577148 0.913269
vt 0.5766602 0.9550781
vt 0.5727539 0.9415283
vt 0.5258789 0.9642639
vt 0.5170898 0.8662109
vt 0.5273438 0.9568481
vt 0.4724121 0.9208984
vt 0.4780273 0.9141846
vt 0.427002 0.8739014
usemtl MV_BeachShells
f 1/1/1 3/3/3 2/2/2
f 1/1/1 2/2/2 4/4/4
f 5/5/5 1/1/1 4/4/4
f 5/5/5 6/6/6 1/1/1
f 2/2/2 7/7/7 4/4/4
f 7/7/7 5/5/5 4/4/4
f 8/8/8 7/7/7 2/2/2
f 7/7/7 9/9/9 5/5/5
f 7/7/7 8/8/8 10/10/10
f 9/9/9 7/7/7 11/11/11
f 12/12/12 7/7/7 10/10/10
f 7/7/7 13/13/13 11/11/11
f 7/7/7 12/12/12 14/14/14
f 13/13/13 7/7/7 15/15/15
f 7/7/7 14/14/14 16/16/16
f 15/15/15 7/7/7 16/16/16
f 17/17/17 19/19/19 18/18/18
f 17/17/17 18/18/18 20/20/20
f 17/17/17 21/21/21 19/19/19
f 21/21/21 22/22/22 19/19/19
f 17/17/17 20/20/20 23/23/23
f 23/23/23 20/20/20 24/24/24
f 21/21/21 25/25/25 22/22/22
f 25/25/25 26/26/26 22/22/22
f 27/27/27 21/21/21 17/17/17
f 21/21/21 27/27/27 25/25/25
f 27/27/27 17/17/17 23/23/23
f 27/27/27 28/28/28 25/25/25
f 25/25/25 28/28/28 26/26/26
f 28/28/28 27/27/27 29/29/29
f 28/28/28 30/30/30 26/26/26
f 28/28/28 29/29/29 30/30/30
f 29/29/29 31/31/31 30/30/30
f 29/29/29 32/32/32 31/31/31
f 27/27/27 32/32/32 29/29/29
f 32/32/32 33/33/33 31/31/31
f 32/32/32 34/34/34 33/33/33
f 32/32/32 27/27/27 34/34/34
f 34/34/34 35/35/35 33/33/33
f 34/34/34 36/36/36 35/35/35
f 27/27/27 36/36/36 34/34/34
f 36/36/36 37/37/37 35/35/35
f 36/36/36 38/38/38 37/37/37
f 36/36/36 27/27/27 38/38/38
f 38/38/38 39/39/39 37/37/37
f 38/38/38 40/40/40 39/39/39
f 27/27/27 40/40/40 38/38/38
f 40/40/40 41/41/41 39/39/39
f 40/40/40 27/27/27 42/42/42
f 23/23/23 42/42/42 27/27/27
f 40/40/40 43/43/43 41/41/41
f 43/43/43 44/44/44 41/41/41
f 40/40/40 42/42/42 45/45/45
f 45/45/45 43/43/43 40/40/40
f 45/45/45 42/42/42 23/23/23
f 43/43/43 45/45/45 44/44/44
f 23/23/23 46/46/46 45/45/45
f 46/46/46 44/44/44 45/45/45
f 23/23/23 24/24/24 46/46/46
f 46/46/46 24/24/24 44/44/44
