mtllib P_Waterfall4.mtl
v 2.27371 6.11204 -4.292059 0.01568628 0.01568628 0.01568628
v 2.213616 6.319513 -4.285235 0.454902 0.454902 0.454902
v 2.260674 6.111996 -5 0 0 0
v 2.20493 6.319484 -5 0 0 0
v 2.28692 6.112083 -3.574656 0 0 0
v 1.900336 6.623266 -5 0 0 0
v 2.222419 6.319542 -3.560917 0.7058824 0.7058824 0.7058824
v 2.352903 5.984964 -2.422876 0 0 0
v 1.902643 6.623274 -4.271536 0.454902 0.454902 0.454902
v 1.484253 6.734459 -5 0 0 0
v 2.272388 6.186011 -2.360243 1 1 1
v 2.394709 5.645086 -1.599931 0 0 0
v 1.484209 6.734459 -4.260312 0.454902 0.454902 0.454902
v -4.967084E-07 6.734459 -4.999699 0 0 0
v 1.904981 6.623282 -3.533334 0.7058824 0.7058824 0.7058824
v 2.31732 5.8205 -1.474051 1 1 1
v 2.449676 5.19823 -1.123523 0 0 0
v -4.214001E-07 6.734459 -4.241672 0.454902 0.454902 0.454902
v -1.484254 6.734459 -5 0 0 0
v 1.931432 6.480365 -2.253011 1 1 1
v 1.484164 6.734459 -3.510736 0.7058824 0.7058824 0.7058824
v 2.37951 5.31468 -0.9349229 1 1 1
v 2.516246 4.657131 -0.9324957 0 0 0
v -1.484209 6.734459 -4.260312 0.454902 0.454902 0.454902
v -1.900337 6.623266 -5 0 0 0
v 1.980824 6.077325 -1.271205 1 1 1
v 2.454035 4.708693 -0.7215433 1 1 1
v 2.64776 3.084854 -0.6876722 0 0 0
v 1.501909 6.588106 -2.190061 1 1 1
v -3.450852E-07 6.734459 -3.473511 0.7058824 0.7058824 0.7058824
v -1.90319 6.623342 -4.271559 0.454902 0.454902 0.454902
v -2.204931 6.319484 -5 0 0 0
v 2.053448 5.485174 -0.6404558 1 1 1
v 2.608248 3.119705 -0.4771492 1 1 1
v 2.847445 1.462445 -0.4405794 0 0 0
v 1.552773 6.17133 -1.16866 1 1 1
v -2.107121E-07 6.588106 -2.120957 1 1 1
v -1.484165 6.734459 -3.510736 0.7058824 0.7058824 0.7058824
v 2.139494 4.784184 -0.3944717 1 1 1
v 2.80792 1.497295 -0.2310768 1 1 1
v 2.931587 0.6228635 -0.3011311 0 0 0
v -1.501909 6.588106 -2.190061 1 1 1
v -1.072936E-07 6.17133 -1.079981 1 1 1
v -1.906082 6.623418 -3.533381 0.7058824 0.7058824 0.7058824
v 1.629024 5.54758 -0.5040665 1 1 1
v 2.326851 3.17073 -0.1516698 1 1 1
v -1.552773 6.17133 -1.168659 1 1 1
v -4.055974E-08 5.54758 -0.4082606 1 1 1
v 1.719114 4.811816 -0.2458599 1 1 1
v -1.406044E-08 4.811816 -0.1415277 1 1 1
v -1.629024 5.54758 -0.5040662 1 1 1
v -1.931433 6.480365 -2.253011 1 1 1
v 1.918482 3.189407 -0.00365961 1 1 1
v -1.719114 4.811816 -0.2458595 1 1 1
v -1.980824 6.077325 -1.271205 1 1 1
v 2.526455 1.548321 0.09198793 1 1 1
v -1.073113E-07 3.189407 0.1197615 1 1 1
v -2.053448 5.485174 -0.6404554 1 1 1
v 2.900832 0.638437 -0.08828875 1 1 1
v 3.282359 0.1359733 -0.4212139 0 0 0
v 2.117993 1.566997 0.238569 1 1 1
v 3.312946 0.1210012 -0.2372103 0.6196079 0.6196079 0.6196079
v 3.510151 -0.05541243 -0.4827819 0 0 0
v 3.482452 -0.05541243 0.004754138 0 0 0
v 2.632197 0.6612383 0.2365075 1 1 1
v 2.982528 0.1267985 0.562941 0.6156863 0.6156863 0.6156863
v 3.18022 -0.05541243 0.7520291 0 0 0
v 2.228419 0.6695842 0.3819589 1 1 1
v 2.514395 0.1289205 0.8406551 0.6196079 0.6196079 0.6196079
v 2.712139 -0.05541243 1.087473 0 0 0
v 3.785649E-08 1.566997 0.3810507 1 1 1
v 1.115707E-07 0.1289205 1.145342 0.6196079 0.6196079 0.6196079
v 1.403101E-07 -0.05541243 1.457703 0 0 0
v 5.288563E-08 0.6695842 0.5323289 1 1 1
v -1.918483 3.189406 -0.003659229 1 1 1
v -2.514395 0.1289205 0.8406556 0.6196079 0.6196079 0.6196079
v -2.712139 -0.05541243 1.087474 0 0 0
v -2.117993 1.566997 0.2385694 1 1 1
v -2.22842 0.6695841 0.3819594 1 1 1
v -2.139493 4.784184 -0.3944712 1 1 1
v -2.982528 0.1267985 0.5629416 0.6196079 0.6196079 0.6196079
v -3.180221 -0.05541243 0.7520298 0 0 0
v -2.632198 0.6612383 0.236508 1 1 1
v -2.326851 3.17073 -0.1516692 1 1 1
v -2.526455 1.54832 0.09198847 1 1 1
v -3.302355 0.1210012 -0.05079867 0.6196079 0.6196079 0.6196079
v -3.482452 -0.05541243 0.004755009 0 0 0
v -3.510151 -0.05541243 -0.4827811 0 0 0
v -3.282359 0.1359733 -0.4212131 0 0 0
v -2.931587 0.6228634 -0.3011304 0 0 0
v -2.900832 0.638437 -0.08828811 1 1 1
v -2.847446 1.462445 -0.4405788 0 0 0
v -2.807921 1.497295 -0.2310763 1 1 1
v -2.64776 3.084854 -0.6876715 0 0 0
v -2.608248 3.119704 -0.4771485 1 1 1
v -2.516246 4.657131 -0.932495 0 0 0
v -2.454035 4.708693 -0.7215429 1 1 1
v -2.449676 5.19823 -1.123523 0 0 0
v -2.37951 5.31468 -0.9349224 1 1 1
v -2.39471 5.645086 -1.59993 0 0 0
v -2.317321 5.8205 -1.47405 1 1 1
v -2.352904 5.984964 -2.422875 0 0 0
v -2.272389 6.186011 -2.360243 1 1 1
v -2.293078 6.112842 -3.574861 0 0 0
v -2.226525 6.320047 -3.561069 0.7058824 0.7058824 0.7058824
v -2.276769 6.112416 -4.292161 0 0 0
v -2.215656 6.319764 -4.285311 0.454902 0.454902 0.454902
v -2.260675 6.111996 -5 0 0 0
v -4.445004 -7.18523E-07 2.856971 1 1 1
v -4.893127 -7.892986E-07 4.072253 1 1 1
v -6.403069 -1.018626E-06 3.306366 1 1 1
v -5.816662 -9.374108E-07 2.161225 1 1 1
v -3.99688 -6.477475E-07 1.641688 1 1 1
v -5.230254 -8.561951E-07 1.016085 1 1 1
v -3.548756 -5.76972E-07 0.4264056 1 1 1
v -4.643847 -7.749794E-07 -0.1290565 1 1 1
v -3.100632 -5.061963E-07 -0.788877 1 1 1
v -4.057438 -6.937637E-07 -1.274197 1 1 1
v 1.513477 1.926516E-07 3.668168 1 1 1
v 1.666058 1.67228E-07 4.965233 1 1 1
v 3.904047E-07 -7.388633E-08 5.078192 1 1 1
v 3.175675E-07 -3.694316E-08 3.770783 1 1 1
v 1.360895 2.180752E-07 2.371104 1 1 1
v 2.447304E-07 3.272429E-15 2.463374 1 1 1
v 1.208314 2.434988E-07 1.07404 1 1 1
v 1.315335E-07 3.694316E-08 1.155965 1 1 1
v 1.055732 2.689223E-07 -0.2230234 1 1 1
v 1.833651E-08 7.388631E-08 -0.1514441 1 1 1
v 4.445004 6.446367E-07 2.85697 1 1 1
v 4.893128 6.41526E-07 4.072253 1 1 1
v 3.30575 4.063518E-07 4.628141 1 1 1
v 3.003002 4.204381E-07 3.361949 1 1 1
v 3.99688 6.477474E-07 1.641688 1 1 1
v 2.700254 4.345244E-07 2.095757 1 1 1
v 3.548756 6.508582E-07 0.4264052 1 1 1
v 2.397506 4.486108E-07 0.8295646 1 1 1
v 3.100632 6.539689E-07 -0.7888775 1 1 1
v 2.094758 4.62697E-07 -0.4366272 1 1 1
v -1.513476 -2.66538E-07 3.668168 1 1 1
v -1.666058 -3.150007E-07 4.965232 1 1 1
v -3.30575 -5.541245E-07 4.628142 1 1 1
v -3.003002 -4.943245E-07 3.361949 1 1 1
v -1.360895 -2.180752E-07 2.371104 1 1 1
v -2.700253 -4.345244E-07 2.095757 1 1 1
v -1.208314 -1.696125E-07 1.074041 1 1 1
v -2.397505 -3.747244E-07 0.8295649 1 1 1
v -1.055732 -1.211497E-07 -0.2230227 1 1 1
v -2.094757 -3.149244E-07 -0.4366275 1 1 1
v 5.816662 8.635245E-07 2.161224 1 1 1
v 6.40307 8.70854E-07 3.306365 1 1 1
v 4.893128 6.41526E-07 4.072253 1 1 1
v 4.445004 6.446367E-07 2.85697 1 1 1
v 5.230254 8.561952E-07 1.016084 1 1 1
v 3.99688 6.477474E-07 1.641688 1 1 1
v 4.643847 8.488657E-07 -0.1290573 1 1 1
v 3.548756 6.508582E-07 0.4264052 1 1 1
v 4.057439 8.415363E-07 -1.274198 1 1 1
v 3.100632 6.539689E-07 -0.7888775 1 1 1
v 3.003002 4.204381E-07 3.361949 1 1 1
v 3.30575 4.063518E-07 4.628141 1 1 1
v 1.666058 1.67228E-07 4.965233 1 1 1
v 1.513477 1.926516E-07 3.668168 1 1 1
v 2.700254 4.345244E-07 2.095757 1 1 1
v 1.360895 2.180752E-07 2.371104 1 1 1
v 2.397506 4.486108E-07 0.8295646 1 1 1
v 1.208314 2.434988E-07 1.07404 1 1 1
v 2.094758 4.62697E-07 -0.4366272 1 1 1
v 1.055732 2.689223E-07 -0.2230234 1 1 1
v 3.175675E-07 -3.694316E-08 3.770783 1 1 1
v 3.904047E-07 -7.388633E-08 5.078192 1 1 1
v -1.666058 -3.150007E-07 4.965232 1 1 1
v -1.513476 -2.66538E-07 3.668168 1 1 1
v 2.447304E-07 3.272429E-15 2.463374 1 1 1
v -1.360895 -2.180752E-07 2.371104 1 1 1
v 1.315335E-07 3.694316E-08 1.155965 1 1 1
v -1.208314 -1.696125E-07 1.074041 1 1 1
v 1.833651E-08 7.388631E-08 -0.1514441 1 1 1
v -1.055732 -1.211497E-07 -0.2230227 1 1 1
v -3.003002 -4.943245E-07 3.361949 1 1 1
v -3.30575 -5.541245E-07 4.628142 1 1 1
v -4.893127 -7.892986E-07 4.072253 1 1 1
v -4.445004 -7.18523E-07 2.856971 1 1 1
v -2.700253 -4.345244E-07 2.095757 1 1 1
v -3.99688 -6.477475E-07 1.641688 1 1 1
v -2.397505 -3.747244E-07 0.8295649 1 1 1
v -3.548756 -5.76972E-07 0.4264056 1 1 1
v -2.094757 -3.149244E-07 -0.4366275 1 1 1
v -3.100632 -5.061963E-07 -0.788877 1 1 1
vn 0.9588684 0.2833888 -0.01619212
vn 0.8569013 0.515367 -0.01081484
vn 0.9646977 0.2630454 -0.01285658
vn 0.8636478 0.5040178 -0.008854172
vn 0.9499273 0.3122438 -0.01191351
vn 0.4961295 0.8682435 -0.00298097
vn 0.8397347 0.5429256 0.008797248
vn 0.9392745 0.3405945 0.04193694
vn 0.4938802 0.869525 -0.002967624
vn 0.129854 0.9915331 -0.0002028838
vn 0.8235552 0.5572296 0.1060761
vn 0.9382664 0.320179 0.1309259
vn 0.1294798 0.9915821 -0.0002021839
vn 0 1 0
vn 0.4822096 0.8751122 0.04065239
vn 0.8242706 0.5038529 0.2582833
vn 0.948078 0.2470094 0.2003358
vn 0 1 0
vn -0.1297351 0.9915486 -0.0002732019
vn 0.4790596 0.8547981 0.1995551
vn 0.1295453 0.9901317 0.05345236
vn 0.8396168 0.3637543 0.4033936
vn 0.9622531 0.1591528 0.2207699
vn -0.1292413 0.9916131 -0.0002722073
vn -0.4953374 0.8686925 -0.003777641
vn 0.4949385 0.7484049 0.4415042
vn 0.8680516 0.2082378 0.4506922
vn 0.9738898 0.1325838 0.1842831
vn 0.139394 0.9607123 0.2400025
vn 0 0.9984666 0.05535681
vn -0.4924714 0.8703206 -0.003757406
vn -0.8631817 0.5047724 -0.01105416
vn 0.520784 0.5079278 0.6861438
vn 0.8904245 0.1628225 0.4250094
vn 0.9787599 0.1355163 0.1538324
vn 0.1611457 0.8358436 0.5247834
vn 0 0.9688578 0.2476178
vn -0.1292621 0.9901682 0.05346196
vn 0.5454341 0.2606219 0.796604
vn 0.9001348 0.1677383 0.4020214
vn 0.9146658 0.3979633 0.07079305
vn -0.1392858 0.9607185 0.2400405
vn 0 0.8407869 0.5413662
vn -0.4806817 0.8759471 0.04076431
vn 0.1854035 0.550835 0.8137607
vn 0.5626303 0.1868527 0.8053156
vn -0.1611453 0.8358436 0.5247835
vn 1.089051E-07 0.5470662 0.8370894
vn 0.1986845 0.258747 0.9452907
vn 0 0.2482772 0.9686891
vn -0.1854032 0.550835 0.8137607
vn -0.4783886 0.855068 0.2000079
vn 0.2041327 0.1699191 0.9640837
vn -0.1986843 0.258747 0.9452907
vn -0.494938 0.748405 0.4415044
vn 0.5681193 0.1931915 0.7999483
vn 0 0.1571439 0.9875757
vn -0.5207836 0.5079279 0.6861441
vn 0.8508787 0.409348 0.3293018
vn 0.7194144 0.6942211 -0.02235777
vn 0.2047133 0.1748222 0.9630834
vn 0.7020299 0.7041172 0.1066447
vn 0.670539 0.7418536 0.005541711
vn 0.5874038 0.7918124 0.1673024
vn 0.566287 0.4558292 0.6866868
vn 0.4782078 0.7699961 0.4224019
vn 0.4149995 0.8427199 0.3429266
vn 0.2044843 0.4707293 0.8582541
vn 0.1875084 0.7878769 0.5865924
vn 0.2033833 0.8511298 0.483956
vn 0 0.1616479 0.9868485
vn 0 0.7879856 0.6156937
vn 0 0.8458987 0.5333437
vn 0 0.467479 0.8840042
vn -0.2041324 0.1699191 0.9640837
vn -0.1875082 0.7878769 0.5865925
vn -0.203383 0.8511299 0.4839558
vn -0.204713 0.1748222 0.9630834
vn -0.2044841 0.4707292 0.8582543
vn -0.5454336 0.2606219 0.7966043
vn -0.4755198 0.7610344 0.4412567
vn -0.430793 0.8264433 0.3625036
vn -0.5520416 0.4633924 0.6931937
vn -0.5626301 0.1868528 0.8053157
vn -0.5681193 0.1931915 0.7999483
vn -0.6889242 0.7051768 0.1676577
vn -0.6353567 0.7566435 0.1543129
vn -0.6629764 0.7485234 0.01322837
vn -0.7197524 0.6942165 0.004477324
vn -0.9157845 0.393849 0.07887769
vn -0.8440307 0.4234872 0.3290453
vn -0.9787599 0.1355162 0.1538324
vn -0.9001349 0.1677383 0.4020213
vn -0.9738899 0.1325838 0.1842825
vn -0.8904246 0.1628227 0.4250092
vn -0.9622533 0.1591528 0.2207693
vn -0.8680516 0.2082379 0.4506921
vn -0.948078 0.2470092 0.2003362
vn -0.8396166 0.3637543 0.4033941
vn -0.9382664 0.3201789 0.1309261
vn -0.8242705 0.5038528 0.2582836
vn -0.9385139 0.3423837 0.04432872
vn -0.822509 0.5584664 0.1076764
vn -0.9481994 0.3174747 -0.01129926
vn -0.8375081 0.5463474 0.009199482
vn -0.9570836 0.2891144 -0.02009334
vn -0.8547215 0.5189119 -0.01347096
vn -0.9644164 0.2639052 -0.01597013
vn -1.539751E-07 1 0
vn -1.539751E-07 1 0
vn -1.539751E-07 1 0
vn -1.539751E-07 1 0
vn -1.69532E-07 1 0
vn -1.69532E-07 1 0
vn -1.69532E-07 1 0
vn -1.69532E-07 1 0
vn -1.804556E-07 1 0
vn -1.804556E-07 1 0
vn -1.458405E-07 1 0
vn -1.458405E-07 1 0
vn -1.458405E-07 1 0
vn -1.458405E-07 1 0
vn -1.630058E-07 1 0
vn -1.630058E-07 1 0
vn -1.630058E-07 1 0
vn -1.630058E-07 1 0
vn -1.75059E-07 1 0
vn -1.75059E-07 1 0
vn -1.34916E-07 1 0
vn -1.34916E-07 1 0
vn -1.34916E-07 1 0
vn -1.34916E-07 1 0
vn -1.512705E-07 1 0
vn -1.512705E-07 1 0
vn -1.512705E-07 1 0
vn -1.512705E-07 1 0
vn -1.627544E-07 1 0
vn -1.627544E-07 1 0
vn -1.523299E-07 1 0
vn -1.523299E-07 1 0
vn -1.523299E-07 1 0
vn -1.523299E-07 1 0
vn -1.692237E-07 1 0
vn -1.692237E-07 1 0
vn -1.692237E-07 1 0
vn -1.692237E-07 1 0
vn -1.810861E-07 1 0
vn -1.810861E-07 1 0
vn -1.279958E-07 1 0
vn -1.279958E-07 1 0
vn -1.279958E-07 1 0
vn -1.279958E-07 1 0
vn -1.435528E-07 1 0
vn -1.435528E-07 1 0
vn -1.435528E-07 1 0
vn -1.435528E-07 1 0
vn -1.544765E-07 1 0
vn -1.544765E-07 1 0
vn -1.408957E-07 1 0
vn -1.408957E-07 1 0
vn -1.408957E-07 1 0
vn -1.408957E-07 1 0
vn -1.577894E-07 1 0
vn -1.577894E-07 1 0
vn -1.577894E-07 1 0
vn -1.577894E-07 1 0
vn -1.696518E-07 1 0
vn -1.696518E-07 1 0
vn -1.496723E-07 1 0
vn -1.496723E-07 1 0
vn -1.496723E-07 1 0
vn -1.496723E-07 1 0
vn -1.668375E-07 1 0
vn -1.668375E-07 1 0
vn -1.668375E-07 1 0
vn -1.668375E-07 1 0
vn -1.788906E-07 1 0
vn -1.788906E-07 1 0
vn -1.53772E-07 1 0
vn -1.53772E-07 1 0
vn -1.53772E-07 1 0
vn -1.53772E-07 1 0
vn -1.701266E-07 1 0
vn -1.701266E-07 1 0
vn -1.701266E-07 1 0
vn -1.701266E-07 1 0
vn -1.816105E-07 1 0
vn -1.816105E-07 1 0
vt 0.9917006 0.8804208
vt 0.9532277 0.8798254
vt 0.9937731 0.996792
vt 0.9573727 0.9967737
vt 0.9896003 0.7769174
vt 0.877092 0.9969277
vt 0.9490274 0.7759243
vt 0.9854085 0.641502
vt 0.8710161 0.8799571
vt 0.7960174 0.9972176
vt 0.9406435 0.6390056
vt 0.9830878 0.5425113
vt 0.7892647 0.8799638
vt 0.5024263 0.9967841
vt 0.8648591 0.7760601
vt 0.9360023 0.53957
vt 0.9824142 0.467734
vt 0.5021019 0.8806719
vt 0.2087052 0.9974402
vt 0.8532689 0.640433
vt 0.7824216 0.7758925
vt 0.9346553 0.4649944
vt 0.9867721 0.4022135
vt 0.2148557 0.8799968
vt 0.1275577 0.9968586
vt 0.84883 0.5414246
vt 0.9433711 0.3998472
vt 0.9936081 0.240266
vt 0.7713932 0.6403375
vt 0.5017732 0.7773475
vt 0.1329482 0.8797823
vt 0.04718632 0.9968282
vt 0.8498507 0.4667118
vt 0.9570429 0.238825
vt 0.9972664 0.09342142
vt 0.7692496 0.5414503
vt 0.5010045 0.642019
vt 0.2210883 0.7757826
vt 0.8622061 0.4016777
vt 0.9643595 0.09264
vt 0.997418 0.04361878
vt 0.2306337 0.6401047
vt 0.5003541 0.5429965
vt 0.1384107 0.7757988
vt 0.7736917 0.4668125
vt 0.8842034 0.240332
vt 0.2315279 0.5411992
vt 0.4998087 0.4681769
vt 0.78554 0.401545
vt 0.4993448 0.4025922
vt 0.2260189 0.4665869
vt 0.1487361 0.6401135
vt 0.8122572 0.2401298
vt 0.2132845 0.4013688
vt 0.151962 0.5410994
vt 0.8982968 0.09348828
vt 0.4984323 0.2404992
vt 0.1499102 0.4664108
vt 0.9646631 0.04325807
vt 0.9939414 0.01350066
vt 0.830397 0.09344046
vt 0.9773231 0.01227705
vt 0.9975408 0.001443356
vt 0.9649084 0.001443356
vt 0.9026619 0.04366058
vt 0.9052917 0.01234788
vt 0.9061882 0.001443356
vt 0.8381032 0.04366132
vt 0.842746 0.01235164
vt 0.8443289 0.001443356
vt 0.4976806 0.09351131
vt 0.4970562 0.01234613
vt 0.4969763 0.001443356
vt 0.497291 0.04366032
vt 0.1847725 0.2400584
vt 0.1514821 0.01235284
vt 0.1497388 0.001443356
vt 0.1650828 0.09342585
vt 0.1565954 0.04366165
vt 0.1367137 0.401428
vt 0.08903265 0.01234852
vt 0.08798406 0.001443356
vt 0.09210828 0.0436607
vt 0.1129016 0.2402844
vt 0.0972133 0.09347984
vt 0.02963907 0.01234622
vt 0.02941045 0.001443356
vt -0.0006723702 0.001443356
vt 0.002749681 0.0135014
vt -0.0002227724 0.04362445
vt 0.03030962 0.04366037
vt 0.0003337264 0.09343334
vt 0.03142259 0.09350996
vt 0.004690439 0.2402978
vt 0.04013607 0.2404513
vt 0.01246521 0.4022599
vt 0.0556857 0.4023502
vt 0.01721513 0.4677219
vt 0.06518552 0.4676197
vt 0.01702151 0.5425031
vt 0.06479827 0.5423868
vt 0.01527888 0.6415315
vt 0.061313 0.6414114
vt 0.01154301 0.7769575
vt 0.05384129 0.7768331
vt 0.009868217 0.8804484
vt 0.05049172 0.8803807
vt 0.008215517 0.9968014
vt 0.875 0.3437499
vt 0.875 0
vt 1 0
vt 1 0.3437499
vt 0.875 0.6249999
vt 1 0.625
vt 0.875 0.84375
vt 1 0.84375
vt 0.875 1
vt 1 1
vt 0.3750001 0.3437499
vt 0.375 0
vt 0.5000001 0
vt 0.5 0.3437499
vt 0.375 0.6249999
vt 0.5 0.6249999
vt 0.375 0.8437499
vt 0.5 0.84375
vt 0.375 1
vt 0.5 1
vt 0.125 0.3437498
vt 0.125 -2.980232E-08
vt 0.2500001 0
vt 0.25 0.3437499
vt 0.125 0.6249999
vt 0.25 0.6249999
vt 0.125 0.8437499
vt 0.25 0.84375
vt 0.125 1
vt 0.25 1
vt 0.625 0.34375
vt 0.625 0
vt 0.75 0
vt 0.75 0.3437499
vt 0.625 0.625
vt 0.75 0.6249999
vt 0.6249999 0.8437499
vt 0.7499999 0.8437499
vt 0.6249999 0.9999999
vt 0.7499999 1
vt 0 0.3437498
vt 0 -5.960464E-08
vt 0.125 -2.980232E-08
vt 0.125 0.3437498
vt 0 0.6249999
vt 0.125 0.6249999
vt -2.980232E-08 0.84375
vt 0.125 0.8437499
vt -2.980232E-08 1
vt 0.125 1
vt 0.25 0.3437499
vt 0.2500001 0
vt 0.375 0
vt 0.3750001 0.3437499
vt 0.25 0.6249999
vt 0.375 0.6249999
vt 0.25 0.84375
vt 0.375 0.8437499
vt 0.25 1
vt 0.375 1
vt 0.5 0.3437499
vt 0.5000001 0
vt 0.625 0
vt 0.625 0.34375
vt 0.5 0.6249999
vt 0.625 0.625
vt 0.5 0.84375
vt 0.6249999 0.8437499
vt 0.5 1
vt 0.6249999 0.9999999
vt 0.75 0.3437499
vt 0.75 0
vt 0.875 0
vt 0.875 0.3437499
vt 0.75 0.6249999
vt 0.875 0.6249999
vt 0.7499999 0.8437499
vt 0.875 0.84375
vt 0.7499999 1
vt 0.875 1
usemtl M_Waterfall
f 1/1/1 3/3/3 2/2/2
f 2/2/2 3/3/3 4/4/4
f 5/5/5 1/1/1 2/2/2
f 2/2/2 4/4/4 6/6/6
f 5/5/5 2/2/2 7/7/7
f 8/8/8 5/5/5 7/7/7
f 2/2/2 6/6/6 9/9/9
f 7/7/7 2/2/2 9/9/9
f 9/9/9 6/6/6 10/10/10
f 8/8/8 7/7/7 11/11/11
f 12/12/12 8/8/8 11/11/11
f 9/9/9 10/10/10 13/13/13
f 13/13/13 10/10/10 14/14/14
f 7/7/7 9/9/9 15/15/15
f 11/11/11 7/7/7 15/15/15
f 15/15/15 9/9/9 13/13/13
f 12/12/12 11/11/11 16/16/16
f 17/17/17 12/12/12 16/16/16
f 13/13/13 14/14/14 18/18/18
f 18/18/18 14/14/14 19/19/19
f 11/11/11 15/15/15 20/20/20
f 16/16/16 11/11/11 20/20/20
f 15/15/15 13/13/13 21/21/21
f 21/21/21 13/13/13 18/18/18
f 20/20/20 15/15/15 21/21/21
f 17/17/17 16/16/16 22/22/22
f 23/23/23 17/17/17 22/22/22
f 18/18/18 19/19/19 24/24/24
f 25/25/25 24/24/24 19/19/19
f 16/16/16 20/20/20 26/26/26
f 22/22/22 16/16/16 26/26/26
f 23/23/23 22/22/22 27/27/27
f 28/28/28 23/23/23 27/27/27
f 20/20/20 21/21/21 29/29/29
f 26/26/26 20/20/20 29/29/29
f 21/21/21 18/18/18 30/30/30
f 30/30/30 18/18/18 24/24/24
f 25/25/25 31/31/31 24/24/24
f 32/32/32 31/31/31 25/25/25
f 22/22/22 26/26/26 33/33/33
f 27/27/27 22/22/22 33/33/33
f 28/28/28 27/27/27 34/34/34
f 35/35/35 28/28/28 34/34/34
f 26/26/26 29/29/29 36/36/36
f 33/33/33 26/26/26 36/36/36
f 21/21/21 37/37/37 29/29/29
f 21/21/21 30/30/30 37/37/37
f 30/30/30 24/24/24 38/38/38
f 31/31/31 38/38/38 24/24/24
f 27/27/27 33/33/33 39/39/39
f 34/34/34 27/27/27 39/39/39
f 35/35/35 34/34/34 40/40/40
f 41/41/41 35/35/35 40/40/40
f 30/30/30 38/38/38 42/42/42
f 30/30/30 42/42/42 37/37/37
f 29/29/29 37/37/37 43/43/43
f 29/29/29 43/43/43 36/36/36
f 31/31/31 44/44/44 38/38/38
f 44/44/44 42/42/42 38/38/38
f 33/33/33 36/36/36 45/45/45
f 39/39/39 33/33/33 45/45/45
f 34/34/34 39/39/39 46/46/46
f 40/40/40 34/34/34 46/46/46
f 37/37/37 42/42/42 47/47/47
f 37/37/37 47/47/47 43/43/43
f 36/36/36 43/43/43 48/48/48
f 36/36/36 48/48/48 45/45/45
f 39/39/39 45/45/45 49/49/49
f 46/46/46 39/39/39 49/49/49
f 45/45/45 50/50/50 49/49/49
f 45/45/45 48/48/48 50/50/50
f 43/43/43 51/51/51 48/48/48
f 43/43/43 47/47/47 51/51/51
f 52/52/52 47/47/47 42/42/42
f 44/44/44 52/52/52 42/42/42
f 46/46/46 49/49/49 53/53/53
f 53/53/53 49/49/49 50/50/50
f 48/48/48 54/54/54 50/50/50
f 48/48/48 51/51/51 54/54/54
f 55/55/55 51/51/51 47/47/47
f 52/52/52 55/55/55 47/47/47
f 56/56/56 46/46/46 53/53/53
f 40/40/40 46/46/46 56/56/56
f 53/53/53 50/50/50 57/57/57
f 57/57/57 50/50/50 54/54/54
f 55/55/55 58/58/58 51/51/51
f 58/58/58 54/54/54 51/51/51
f 59/59/59 40/40/40 56/56/56
f 41/41/41 40/40/40 59/59/59
f 60/60/60 41/41/41 59/59/59
f 56/56/56 53/53/53 61/61/61
f 61/61/61 53/53/53 57/57/57
f 60/60/60 59/59/59 62/62/62
f 63/63/63 60/60/60 62/62/62
f 62/62/62 64/64/64 63/63/63
f 59/59/59 56/56/56 65/65/65
f 62/62/62 59/59/59 65/65/65
f 65/65/65 56/56/56 61/61/61
f 64/64/64 62/62/62 66/66/66
f 62/62/62 65/65/65 66/66/66
f 64/64/64 66/66/66 67/67/67
f 65/65/65 61/61/61 68/68/68
f 66/66/66 65/65/65 68/68/68
f 67/67/67 66/66/66 69/69/69
f 66/66/66 68/68/68 69/69/69
f 67/67/67 69/69/69 70/70/70
f 61/61/61 57/57/57 71/71/71
f 68/68/68 61/61/61 71/71/71
f 70/70/70 69/69/69 72/72/72
f 70/70/70 72/72/72 73/73/73
f 69/69/69 68/68/68 74/74/74
f 68/68/68 71/71/71 74/74/74
f 69/69/69 74/74/74 72/72/72
f 71/71/71 57/57/57 75/75/75
f 57/57/57 54/54/54 75/75/75
f 73/73/73 72/72/72 76/76/76
f 73/73/73 76/76/76 77/77/77
f 74/74/74 71/71/71 78/78/78
f 71/71/71 75/75/75 78/78/78
f 72/72/72 74/74/74 79/79/79
f 72/72/72 79/79/79 76/76/76
f 74/74/74 78/78/78 79/79/79
f 80/80/80 75/75/75 54/54/54
f 58/58/58 80/80/80 54/54/54
f 81/81/81 77/77/77 76/76/76
f 81/81/81 82/82/82 77/77/77
f 83/83/83 76/76/76 79/79/79
f 83/83/83 81/81/81 76/76/76
f 84/84/84 78/78/78 75/75/75
f 80/80/80 84/84/84 75/75/75
f 85/85/85 79/79/79 78/78/78
f 85/85/85 83/83/83 79/79/79
f 84/84/84 85/85/85 78/78/78
f 86/86/86 82/82/82 81/81/81
f 86/86/86 87/87/87 82/82/82
f 86/86/86 88/88/88 87/87/87
f 89/89/89 88/88/88 86/86/86
f 90/90/90 89/89/89 86/86/86
f 91/91/91 86/86/86 81/81/81
f 90/90/90 86/86/86 91/91/91
f 91/91/91 81/81/81 83/83/83
f 92/92/92 90/90/90 91/91/91
f 93/93/93 91/91/91 83/83/83
f 92/92/92 91/91/91 93/93/93
f 93/93/93 83/83/83 85/85/85
f 94/94/94 92/92/92 93/93/93
f 95/95/95 93/93/93 85/85/85
f 94/94/94 93/93/93 95/95/95
f 95/95/95 85/85/85 84/84/84
f 96/96/96 94/94/94 95/95/95
f 97/97/97 95/95/95 84/84/84
f 96/96/96 95/95/95 97/97/97
f 97/97/97 84/84/84 80/80/80
f 98/98/98 96/96/96 97/97/97
f 99/99/99 97/97/97 80/80/80
f 98/98/98 97/97/97 99/99/99
f 99/99/99 80/80/80 58/58/58
f 100/100/100 98/98/98 99/99/99
f 101/101/101 99/99/99 58/58/58
f 100/100/100 99/99/99 101/101/101
f 101/101/101 58/58/58 55/55/55
f 102/102/102 100/100/100 101/101/101
f 103/103/103 101/101/101 55/55/55
f 102/102/102 101/101/101 103/103/103
f 103/103/103 55/55/55 52/52/52
f 104/104/104 102/102/102 103/103/103
f 105/105/105 103/103/103 52/52/52
f 104/104/104 103/103/103 105/105/105
f 105/105/105 52/52/52 44/44/44
f 106/106/106 104/104/104 105/105/105
f 107/107/107 105/105/105 44/44/44
f 106/106/106 105/105/105 107/107/107
f 107/107/107 44/44/44 31/31/31
f 108/108/108 106/106/106 107/107/107
f 32/32/32 107/107/107 31/31/31
f 107/107/107 32/32/32 108/108/108
usemtl M_WaterWaves
f 109/109/109 111/111/111 110/110/110
f 109/109/109 112/112/112 111/111/111
f 113/113/113 112/112/112 109/109/109
f 113/113/113 114/114/114 112/112/112
f 115/115/115 114/114/114 113/113/113
f 115/115/115 116/116/116 114/114/114
f 117/117/117 116/116/116 115/115/115
f 117/117/117 118/118/118 116/116/116
f 119/119/119 121/121/121 120/120/120
f 119/119/119 122/122/122 121/121/121
f 123/123/123 122/122/122 119/119/119
f 123/123/123 124/124/124 122/122/122
f 125/125/125 124/124/124 123/123/123
f 125/125/125 126/126/126 124/124/124
f 127/127/127 126/126/126 125/125/125
f 127/127/127 128/128/128 126/126/126
f 129/129/129 131/131/131 130/130/130
f 129/129/129 132/132/132 131/131/131
f 133/133/133 132/132/132 129/129/129
f 133/133/133 134/134/134 132/132/132
f 135/135/135 134/134/134 133/133/133
f 135/135/135 136/136/136 134/134/134
f 137/137/137 136/136/136 135/135/135
f 137/137/137 138/138/138 136/136/136
f 139/139/139 141/141/141 140/140/140
f 139/139/139 142/142/142 141/141/141
f 143/143/143 142/142/142 139/139/139
f 143/143/143 144/144/144 142/142/142
f 145/145/145 144/144/144 143/143/143
f 145/145/145 146/146/146 144/144/144
f 147/147/147 146/146/146 145/145/145
f 147/147/147 148/148/148 146/146/146
f 149/149/149 151/151/151 150/150/150
f 149/149/149 152/152/152 151/151/151
f 153/153/153 152/152/152 149/149/149
f 153/153/153 154/154/154 152/152/152
f 155/155/155 154/154/154 153/153/153
f 155/155/155 156/156/156 154/154/154
f 157/157/157 156/156/156 155/155/155
f 157/157/157 158/158/158 156/156/156
f 159/159/159 161/161/161 160/160/160
f 159/159/159 162/162/162 161/161/161
f 163/163/163 162/162/162 159/159/159
f 163/163/163 164/164/164 162/162/162
f 165/165/165 164/164/164 163/163/163
f 165/165/165 166/166/166 164/164/164
f 167/167/167 166/166/166 165/165/165
f 167/167/167 168/168/168 166/166/166
f 169/169/169 171/171/171 170/170/170
f 169/169/169 172/172/172 171/171/171
f 173/173/173 172/172/172 169/169/169
f 173/173/173 174/174/174 172/172/172
f 175/175/175 174/174/174 173/173/173
f 175/175/175 176/176/176 174/174/174
f 177/177/177 176/176/176 175/175/175
f 177/177/177 178/178/178 176/176/176
f 179/179/179 181/181/181 180/180/180
f 179/179/179 182/182/182 181/181/181
f 183/183/183 182/182/182 179/179/179
f 183/183/183 184/184/184 182/182/182
f 185/185/185 184/184/184 183/183/183
f 185/185/185 186/186/186 184/184/184
f 187/187/187 186/186/186 185/185/185
f 187/187/187 188/188/188 186/186/186
