mtllib P_BoulderClassic5.mtl
v 2.450439 6.076717 2.051217
v 2.269569 6.442291 1.764466
v 2.139015 6.873133 0.7750291
v -1.741257 4.905148 -0.0844088
v -1.99226 4.699742 -1.160724
v -0.2838478 5.403718 -2.384749
v -4.723934 -4.321593 1.656449
v -3.4445 -4.903554 2.372726
v -4.833569 -4.43741 0.270048
v -2.552483 -5.829559 -0.3284182
v -4.337772 -4.85147 -0.8278325
v -5.034973 -3.150495 -2.2903
v -4.305977 -4.27399 -2.386094
v -1.889702 -5.915186 1.760339
v -2.506027 -5.15324 2.657397
v -1.393398 -5.966974 -1.161432
v -2.111526 -4.754811 -3.317084
v -1.496563 -6.176166 0.4460534
v -1.204071 -5.438048 -2.748165
v -0.2537956 -5.3823 -3.07097
v 0.2673912 -5.341717 -3.247859
v -0.8385506 -6.02669 1.462753
v -0.2823792 -5.80487 1.768955
v 1.588291 -5.116539 2.601321
v 1.915813 -4.987422 -0.7518687
v 2.178455 -4.85404 -3.367737
v 1.814587 -4.529192 -3.994564
v 2.56813 -4.813596 2.660699
v 0.6853256 -5.436541 2.625873
v 0.5217361 -5.086777 3.463092
v -0.2207642 -5.360867 3.178021
v -1.008709 -5.047973 3.114126
v -2.225666 -4.758281 3.072927
v 3.963409 -4.516143 1.445742
v 4.48674 -4.327693 -1.082539
v 5.069366 -4.052689 -0.6456594
v 5.125873 -3.959971 0.5669223
v -4.723934 -4.321593 1.656449
v -3.755276 -3.566478 3.042496
v -3.4445 -4.903554 2.372726
v -2.937443 -4.207384 3.28884
v -2.506027 -5.15324 2.657397
v -3.032761 -3.318176 3.548563
v -3.142944 -1.674856 3.550957
v -2.225666 -4.758281 3.072927
v -1.889702 -5.915186 1.760339
v -0.2823792 -5.80487 1.768955
v -1.008709 -5.047973 3.114126
v -0.462574 -2.532431 3.577893
v -0.2207642 -5.360867 3.178021
v -2.510376 -2.652627 3.637928
v -0.4050064 -1.851337 3.575469
v -3.164696 -0.5629511 3.455448
v 1.474411 -3.283477 4.094762
v 1.81345 -0.999348 4.0891
v -0.1816368 -0.01698209 3.148308
v 1.34763 -4.316455 3.880503
v 0.5217361 -5.086777 3.463092
v 2.56813 -4.813596 2.660699
v 2.394005 -3.839217 3.805577
v 3.024761 -2.885426 3.907029
v 2.194107 -2.065349 4.226104
v 5.05714 -1.56332 2.681164
v 3.543777 0.3704118 3.277136
v 5.395016 -0.5500203 2.112133
v 4.647251 2.340729 1.744326
v 3.684723 4.104807 2.027537
v 2.43153 0.5143017 3.798636
v 2.066967 4.280563 2.769819
v 2.450439 6.076717 2.051217
v 1.641678 1.696728 3.569461
v 1.222408 6.227795 2.156975
v 2.269569 6.442291 1.764466
v 0.3825493 5.552481 2.339881
v 1.994698 2.330536 3.471339
v 0.7555237 4.023594 2.56742
v -0.1002541 1.569793 3.016098
v -1.688709 2.498703 2.882209
v -2.174259 1.114567 3.096111
v -3.560138 0.3189378 2.686394
v -2.77322 1.098939 2.75513
v -2.615257 1.337387 2.677608
v -2.349857 2.694006 2.435217
v -0.6482162 4.89902 2.230447
v -0.1818848 5.310367 2.250302
v 3.999447 -2.350523 -3.796736
v 2.638553 -3.541383 -4.120306
v 1.814587 -4.529192 -3.994564
v 4.48674 -4.327693 -1.082539
v 2.178455 -4.85404 -3.367737
v 5.081745 -2.102695 -2.712343
v 5.069366 -4.052689 -0.6456594
v 5.792664 -2.195383 -1.527423
v 4.732975 -1.235534 -3.320309
v 4.07265 -1.781012 -3.828306
v 5.793655 -2.115495 0.7711291
v 5.125873 -3.959971 0.5669223
v 5.348865 0.1576176 -2.043211
v 5.141529 0.7586718 -2.224829
v 4.916195 1.437191 -2.071486
v 5.395016 -0.5500203 2.112133
v 4.510906 2.775849 -1.987994
v 5.522392 -2.943799 1.026311
v 3.963409 -4.516143 1.445742
v 2.56813 -4.813596 2.660699
v 5.528164 -2.012338 1.830078
v 5.05714 -1.56332 2.681164
v 2.394005 -3.839217 3.805577
v 3.024761 -2.885426 3.907029
v 4.647251 2.340729 1.744326
v 4.180149 3.929443 1.292647
v 3.684723 4.104807 2.027537
v 3.973953 4.644521 -1.416142
v 3.733112 4.147837 -2.216339
v 3.73428 5.182193 -0.1522858
v 3.125961 6.093337 -0.8738033
v 3.999447 -2.350523 -3.796736
v 5.081745 -2.102695 -2.712343
v 4.07265 -1.781012 -3.828306
v 2.638553 -3.541383 -4.120306
v 1.817402 -4.070344 -4.253811
v 0.3453865 -2.290596 -4.499469
v 1.814587 -4.529192 -3.994564
v 0.2673912 -5.341717 -3.247859
v -0.2537956 -5.3823 -3.07097
v -0.6098595 -2.273752 -4.0455
v -2.111526 -4.754811 -3.317084
v -1.993237 -2.287154 -4.134633
v -4.305977 -4.27399 -2.386094
v 1.996983 1.046283 -3.578515
v 0.08333206 0.5991269 -3.138876
v 2.865894 0.9017766 -3.521456
v 4.732975 -1.235534 -3.320309
v 5.141529 0.7586718 -2.224829
v 4.916195 1.437191 -2.071486
v 3.538795 1.741093 -2.770618
v 4.510906 2.775849 -1.987994
v 3.733112 4.147837 -2.216339
v 2.265148 2.638595 -3.646402
v 2.939064 4.452515 -2.771648
v 3.973953 4.644521 -1.416142
v 3.125961 6.093337 -0.8738033
v 1.99144 6.905333 -0.2356098
v 0.4102974 6.373242 -1.246927
v 0.9611473 4.907569 -2.754087
v -0.2838478 5.403718 -2.384749
v 1.688175 4.212014 -3.227331
v 0.4199028 3.376769 -2.850908
v 0.03997421 5.012334 -2.799114
v -0.8475952 4.50371 -3.00998
v 0.3416786 1.743024 -2.946633
v -1.679008 3.14389 -2.971236
v -2.295841 1.751146 -3.086715
v -0.5222549 0.1259809 -3.327292
v -2.724369 0.9833531 -3.473573
v -0.2182693 -0.02184639 -3.280093
v -2.95557 -1.016064 -3.94132
v -3.708557 -0.7766555 -3.633021
v -3.51495 0.2413069 -3.394766
v -4.4049 -2.312548 -2.874399
v -4.750888 -2.535846 -2.601333
v -5.034973 -3.150495 -2.2903
v 4.180149 3.929443 1.292647
v 3.684723 4.104807 2.027537
v 2.450439 6.076717 2.051217
v 3.73428 5.182193 -0.1522858
v 2.139015 6.873133 0.7750291
v 3.125961 6.093337 -0.8738033
v 1.99144 6.905333 -0.2356098
v 0.8959656 6.807776 -0.3942716
v 0.4102974 6.373242 -1.246927
v 1.476097 6.892643 0.9002169
v 1.222408 6.227795 2.156975
v 2.269569 6.442291 1.764466
v 0.9430695 6.43158 1.744325
v 0.3825493 5.552481 2.339881
v 0.9430695 6.43158 1.744325
v 1.222408 6.227795 2.156975
v 0.0318222 5.89099 1.69218
v 1.476097 6.892643 0.9002169
v -0.1818848 5.310367 2.250302
v -0.03835678 6.185594 0.195895
v 0.8959656 6.807776 -0.3942716
v -0.2014389 5.734337 0.5874608
v -0.6482162 4.89902 2.230447
v -0.06845093 6.087351 -1.270395
v 0.4102974 6.373242 -1.246927
v -0.2838478 5.403718 -2.384749
v -1.741257 4.905148 -0.0844088
v -1.956215 4.166246 1.558646
v -2.349857 2.694006 2.435217
v -2.36409 3.878931 0.7458115
v -2.315964 4.357973 -0.4675204
v -1.99226 4.699742 -1.160724
v -2.831897 3.019238 -0.3206033
v -2.615257 1.337387 2.677608
v -2.30632 3.719867 -1.928852
v -3.066132 1.897109 -0.1328966
v -2.77322 1.098939 2.75513
v -1.59021 4.750546 -2.212893
v -0.2838478 5.403718 -2.384749
v -0.8475952 4.50371 -3.00998
v -1.679008 3.14389 -2.971236
v -2.295841 1.751146 -3.086715
v -3.022148 1.939439 -0.867197
v -3.163937 1.38874 -2.477328
v -2.724369 0.9833531 -3.473573
v -3.51495 0.2413069 -3.394766
v -3.687637 1.448705 -1.311401
v -3.775032 1.223922 0.1835991
v -3.751011 0.6858535 -2.360849
v -3.960457 -0.4921691 -3.169711
v -3.708557 -0.7766555 -3.633021
v -4.4049 -2.312548 -2.874399
v -4.312241 -1.636442 -0.9729659
v -4.750888 -2.535846 -2.601333
v -3.728473 0.7508726 1.831631
v -3.560138 0.3189378 2.686394
v -4.014446 -0.7047755 2.222002
v -3.164696 -0.5629511 3.455448
v -4.230118 -1.505248 1.935027
v -3.142944 -1.674856 3.550957
v -3.755276 -3.566478 3.042496
v -4.402748 -2.259772 1.954736
v -5.115207 -3.348098 1.162113
v -4.723934 -4.321593 1.656449
v -4.833569 -4.43741 0.270048
v -5.358951 -2.97772 -0.4705896
v -5.034973 -3.150495 -2.2903
v -5.140808 -2.479121 -1.207648
vn 0.5093049 0.5500596 0.6618482
vn 0.4601292 0.7803376 0.4235022
vn 0.3862448 0.9043512 0.1815598
vn -0.6001369 0.7941958 0.09533411
vn -0.6935235 0.7059046 -0.1439582
vn -0.2768194 0.8048434 -0.5249745
vn -0.7688059 -0.516986 0.3763816
vn -0.5105193 -0.7229491 0.4655264
vn -0.7816425 -0.6226497 0.03663919
vn -0.3888968 -0.9153667 -0.1042264
vn -0.622856 -0.766618 -0.1560365
vn -0.8499047 -0.1585325 -0.502523
vn -0.5919445 -0.5783131 -0.5613874
vn -0.2040037 -0.9019127 0.3807046
vn -0.2039352 -0.7479814 0.6316124
vn -0.07880888 -0.9698502 -0.2306072
vn -0.2688996 -0.5837352 -0.7661242
vn -0.02470701 -0.9996941 0.001135234
vn -0.2253452 -0.8684481 -0.4416078
vn -0.1121024 -0.7476184 -0.654599
vn -0.007453002 -0.8100168 -0.5863593
vn 0.188863 -0.9635913 0.1892683
vn 0.1017073 -0.9301302 0.3528644
vn 0.3114574 -0.9239801 -0.2219351
vn 0.3139072 -0.9491302 -0.024781
vn 0.4625743 -0.7854864 -0.41114
vn 0.1884155 -0.6030699 -0.7751169
vn 0.4487575 -0.812386 0.3723515
vn 0.2543043 -0.9375515 0.2373323
vn 0.0119873 -0.6247403 0.7807406
vn -0.1672339 -0.7153772 0.6784307
vn -0.195089 -0.6141217 0.7647188
vn -0.1472602 -0.6456372 0.7493111
vn 0.4927981 -0.8095286 0.3190823
vn 0.4991731 -0.8235859 -0.2693186
vn 0.7233953 -0.6706394 -0.1641404
vn 0.7481588 -0.6333332 0.1978572
vn -0.7688059 -0.516986 0.3763816
vn -0.6769908 -0.1719249 0.7156293
vn -0.5105193 -0.7229491 0.4655264
vn -0.3124132 -0.4341371 0.8449396
vn -0.2039352 -0.7479814 0.6316124
vn -0.2848138 -0.1611713 0.9449365
vn -0.4556637 0.06950241 0.8874345
vn -0.1472602 -0.6456372 0.7493111
vn -0.2040037 -0.9019127 0.3807046
vn 0.1017073 -0.9301302 0.3528644
vn -0.195089 -0.6141217 0.7647188
vn -0.1183661 -0.06651396 0.9907398
vn -0.1672339 -0.7153772 0.6784307
vn -0.03229053 -0.03862381 0.998732
vn -0.115858 0.1095511 0.9872059
vn -0.4496848 0.1798614 0.8748906
vn -0.08509557 -0.1312743 0.9876871
vn -0.1300052 0.1429904 0.9811485
vn -0.1450277 0.1704636 0.9746328
vn 0.05646144 -0.440999 0.8957299
vn 0.0119873 -0.6247403 0.7807406
vn 0.4487575 -0.812386 0.3723515
vn 0.4122624 -0.4576689 0.7877683
vn 0.4907351 -0.2419141 0.8370524
vn 0.1196684 0.01942806 0.9926238
vn 0.6911926 -0.1151964 0.7134301
vn 0.5066395 0.1958214 0.8396252
vn 0.8769804 0.2103662 0.4320318
vn 0.8734354 0.2804549 0.3980649
vn 0.654124 0.3647272 0.6626431
vn 0.248591 0.1952724 0.9487209
vn 0.1484428 0.2800422 0.9484414
vn 0.5093049 0.5500596 0.6618482
vn -0.1964054 0.205377 0.9587728
vn -0.08498387 0.6436325 0.7606017
vn 0.4601292 0.7803376 0.4235022
vn -0.2491029 0.462613 0.8508449
vn 0.09594485 0.3122362 0.9451472
vn -0.113911 0.194863 0.9741934
vn -0.1349986 0.1536031 0.9788674
vn -0.2516797 0.2649058 0.9308503
vn -0.233645 0.2759657 0.9323373
vn -0.7380646 0.383809 0.5549336
vn -0.576221 0.563917 0.5915801
vn -0.7111874 0.4505589 0.539638
vn -0.7534279 0.3397266 0.5629672
vn -0.5143652 0.6017961 0.6109582
vn -0.5079665 0.5416375 0.6697752
vn 0.5588537 -0.3053594 -0.7709982
vn 0.4273694 -0.304588 -0.8512236
vn 0.1884155 -0.6030699 -0.7751169
vn 0.4991731 -0.8235859 -0.2693186
vn 0.4625743 -0.7854864 -0.41114
vn 0.7740357 -0.2926781 -0.5614341
vn 0.7233953 -0.6706394 -0.1641404
vn 0.9502785 -0.1712767 -0.2600677
vn 0.6792908 0.09684489 -0.7274511
vn 0.4479363 0.03955616 -0.89319
vn 0.9954363 -0.05351451 0.07901243
vn 0.7481588 -0.6333332 0.1978572
vn 0.9484317 0.1983867 -0.2472246
vn 0.8145654 0.3326977 -0.4751794
vn 0.8316529 0.3381901 -0.4404325
vn 0.8769804 0.2103662 0.4320318
vn 0.8381149 0.2666508 -0.4758789
vn 0.8645252 -0.413104 0.2862539
vn 0.4927981 -0.8095286 0.3190823
vn 0.4487575 -0.812386 0.3723515
vn 0.8494524 -0.2546417 0.462156
vn 0.6911926 -0.1151964 0.7134301
vn 0.4122624 -0.4576689 0.7877683
vn 0.4907351 -0.2419141 0.8370524
vn 0.8734354 0.2804549 0.3980649
vn 0.8884278 0.3981051 0.2284916
vn 0.654124 0.3647272 0.6626431
vn 0.8425516 0.4601106 -0.280009
vn 0.6735209 0.3684198 -0.6408093
vn 0.8551714 0.5109568 0.08720662
vn 0.5824456 0.7472959 -0.3198531
vn 0.5588537 -0.3053594 -0.7709982
vn 0.7740357 -0.2926781 -0.5614341
vn 0.4479363 0.03955616 -0.89319
vn 0.4273694 -0.304588 -0.8512236
vn 0.02745786 -0.3505109 -0.9361561
vn -0.2036983 0.02655693 -0.9786735
vn 0.1884155 -0.6030699 -0.7751169
vn -0.007453002 -0.8100168 -0.5863593
vn -0.1121024 -0.7476184 -0.654599
vn -0.1640572 -0.0001084207 -0.9864509
vn -0.2688996 -0.5837352 -0.7661242
vn -0.1358878 -0.1096692 -0.9846355
vn -0.5919445 -0.5783131 -0.5613874
vn -0.1013004 0.133259 -0.9858906
vn -0.1157361 0.2660981 -0.9569728
vn 0.3172571 0.1851598 -0.930088
vn 0.6792908 0.09684489 -0.7274511
vn 0.8145654 0.3326977 -0.4751794
vn 0.8316529 0.3381901 -0.4404325
vn 0.5476776 0.2220318 -0.8066915
vn 0.8381149 0.2666508 -0.4758789
vn 0.6735209 0.3684198 -0.6408093
vn 0.128489 0.1270907 -0.9835337
vn 0.4286213 0.4882193 -0.7602143
vn 0.8425516 0.4601106 -0.280009
vn 0.5824456 0.7472959 -0.3198531
vn 0.2130876 0.9422875 -0.25824
vn -0.1980923 0.8667373 -0.45774
vn 0.02704194 0.5290824 -0.8481395
vn -0.2768194 0.8048434 -0.5249745
vn -0.05710598 0.3846627 -0.9212891
vn -0.08626877 0.08121502 -0.992956
vn 0.04640581 0.485505 -0.8730015
vn -0.2336126 0.3531467 -0.9059319
vn -0.1334332 0.1116752 -0.9847457
vn -0.3884064 0.2124321 -0.8966677
vn -0.3719946 0.4323237 -0.8214112
vn 0.1671887 0.2388276 -0.9565612
vn -0.2479208 0.4647971 -0.8499994
vn -0.01358432 0.2816484 -0.9594215
vn -0.199619 0.0733421 -0.977125
vn -0.5890211 0.09041428 -0.8030439
vn -0.6295444 0.4064972 -0.6621434
vn -0.7479928 0.07298665 -0.6596816
vn -0.7537169 0.2774352 -0.595769
vn -0.8499047 -0.1585325 -0.502523
vn 0.8884278 0.3981051 0.2284916
vn 0.654124 0.3647272 0.6626431
vn 0.5093049 0.5500596 0.6618482
vn 0.8551714 0.5109568 0.08720662
vn 0.3862448 0.9043512 0.1815598
vn 0.5824456 0.7472959 -0.3198531
vn 0.2130876 0.9422875 -0.25824
vn -0.2760576 0.9495673 -0.1487086
vn -0.1980923 0.8667373 -0.45774
vn -0.1352653 0.9649805 0.2247578
vn -0.08498387 0.6436325 0.7606017
vn 0.4601292 0.7803376 0.4235022
vn -0.3377798 0.8480006 0.4084113
vn -0.2491029 0.462613 0.8508449
vn -0.3377798 0.8480006 0.4084113
vn -0.08498387 0.6436325 0.7606017
vn -0.6644484 0.6752661 0.3201936
vn -0.1352653 0.9649805 0.2247578
vn -0.5079665 0.5416375 0.6697752
vn -0.7532641 0.6540002 0.0698351
vn -0.2760576 0.9495673 -0.1487086
vn -0.7702268 0.6289598 0.1056415
vn -0.5143652 0.6017961 0.6109582
vn -0.7442157 0.6463704 -0.1683693
vn -0.1980923 0.8667373 -0.45774
vn -0.2768194 0.8048434 -0.5249745
vn -0.6001369 0.7941958 0.09533411
vn -0.7133157 0.5900212 0.378227
vn -0.7534279 0.3397266 0.5629672
vn -0.8751774 0.4425391 0.1955088
vn -0.8492217 0.5278407 0.01437681
vn -0.6935235 0.7059046 -0.1439582
vn -0.9591789 0.282746 0.005535109
vn -0.7111874 0.4505589 0.539638
vn -0.8565472 0.3446044 -0.3841545
vn -0.8479633 0.5155389 0.1231984
vn -0.576221 0.563917 0.5915801
vn -0.6262909 0.6484882 -0.4326925
vn -0.2768194 0.8048434 -0.5249745
vn -0.2336126 0.3531467 -0.9059319
vn -0.3884064 0.2124321 -0.8966677
vn -0.3719946 0.4323237 -0.8214112
vn -0.8136643 0.5623423 -0.1473822
vn -0.6224332 0.6911827 -0.3672103
vn -0.2479208 0.4647971 -0.8499994
vn -0.6295444 0.4064972 -0.6621434
vn -0.796744 0.5885276 -0.1372382
vn -0.850589 0.5124964 0.1176679
vn -0.885963 0.3908723 -0.2495763
vn -0.9054057 0.2482439 -0.3444061
vn -0.5890211 0.09041428 -0.8030439
vn -0.7479928 0.07298665 -0.6596816
vn -0.9114617 0.4113833 0.001214649
vn -0.7537169 0.2774352 -0.595769
vn -0.8101022 0.5310542 0.2484267
vn -0.7380646 0.383809 0.5549336
vn -0.9310676 0.1434596 0.3354587
vn -0.4496848 0.1798614 0.8748906
vn -0.9412324 0.1827033 0.2840792
vn -0.4556637 0.06950241 0.8874345
vn -0.6769908 -0.1719249 0.7156293
vn -0.8736351 0.2461963 0.4197012
vn -0.956989 0.08247145 0.2781556
vn -0.7688059 -0.516986 0.3763816
vn -0.7816425 -0.6226497 0.03663919
vn -0.9852449 0.1571645 0.06776299
vn -0.8499047 -0.1585325 -0.502523
vn -0.8614125 0.5025819 -0.07334875
vt 0.2006407 0.4815307
vt 0.1973877 0.4911165
vt 0.2006407 0.5160117
vt 0.5649147 0.6523304
vt 0.548584 0.6719036
vt 0.5649147 0.7153358
vt 0.6333361 0
vt 0.609067 0.02808762
vt 0.6647797 0.005702972
vt 0.6625309 0.06802368
vt 0.6857824 0.02510834
vt 0.7296486 0.006710052
vt 0.7236834 0.03043365
vt 0.6118965 0.072052
vt 0.5975399 0.04884338
vt 0.675993 0.09888077
vt 0.7334852 0.0868187
vt 0.6389408 0.08937454
vt 0.7136621 0.1081352
vt 0.7172775 0.1304436
vt 0.7193022 0.1426163
vt 0.6137581 0.09751511
vt 0.6054783 0.1067314
vt 0.5818567 0.1391525
vt 0.6572838 0.1634064
vt 0.7162447 0.1822739
vt 0.7334852 0.1755257
vt 0.5777826 0.1585045
vt 0.5836248 0.1211548
vt 0.5668659 0.1108665
vt 0.5752077 0.09776306
vt 0.5813742 0.0787468
vt 0.5887136 0.0503006
vt 0.6009092 0.1938362
vt 0.6570377 0.2176323
vt 0.6459179 0.2263985
vt 0.6185427 0.2206001
vt 0.3456001 0.3008499
vt 0.3364601 0.2705383
vt 0.3124428 0.2923241
vt 0.3117027 0.2704926
vt 0.2909698 0.2831764
vt 0.3258438 0.2547493
vt 0.3513756 0.2255592
vt 0.2908249 0.27108
vt 0.2697678 0.2902641
vt 0.2413139 0.2653732
vt 0.2639084 0.2591553
vt 0.2890358 0.2035217
vt 0.2446365 0.2537155
vt 0.3254776 0.234726
vt 0.2976952 0.1899643
vt 0.367794 0.2052307
vt 0.2414474 0.1891785
vt 0.2677574 0.1416359
vt 0.3202972 0.1532211
vt 0.2293396 0.2106819
vt 0.2343102 0.2375488
vt 0.2010651 0.2048073
vt 0.2167168 0.1870346
vt 0.2184334 0.1600571
vt 0.2452354 0.155941
vt 0.2009964 0.1086273
vt 0.2560959 0.09287643
vt 0.209919 0.08587265
vt 0.2656746 0.04303741
vt 0.3084755 0.02319336
vt 0.2782288 0.1050529
vt 0.3402138 0.04156113
vt 0.3596687 0.003768921
vt 0.3101768 0.09453964
vt 0.3846207 0.01818466
vt 0.3686485 0
vt 0.3904114 0.04241943
vt 0.3127708 0.07784271
vt 0.3612976 0.06533432
vt 0.3416252 0.1226082
vt 0.3847389 0.1280022
vt 0.373745 0.1604195
vt 0.3888016 0.195694
vt 0.3851585 0.1698074
vt 0.3857193 0.1632423
vt 0.4004669 0.1345177
vt 0.4004669 0.06946564
vt 0.3976097 0.05511856
vt 0.2094948 0.4893055
vt 0.2009981 0.5233784
vt 0.2033117 0.5502987
vt 0.2726769 0.5336418
vt 0.2180274 0.5562449
vt 0.2354236 0.4786901
vt 0.2832379 0.5245991
vt 0.2634726 0.4778204
vt 0.22139 0.4602022
vt 0.209017 0.4758224
vt 0.3176262 0.4770784
vt 0.3118432 0.5227633
vt 0.2522254 0.4256725
vt 0.2481532 0.4128017
vt 0.2519963 0.3983974
vt 0.3497691 0.4437103
vt 0.2544315 0.3696785
vt 0.3232043 0.4976168
vt 0.3319836 0.5418148
vt 0.3600874 0.5562449
vt 0.3425324 0.4765453
vt 0.3626387 0.4689884
vt 0.3874173 0.5352526
vt 0.3903866 0.5101938
vt 0.3421569 0.3807907
vt 0.332083 0.3463726
vt 0.3493288 0.3451786
vt 0.2685585 0.3296604
vt 0.2494392 0.3419132
vt 0.2984836 0.3191013
vt 0.2817261 0.3008499
vt 0.01872635 0.131773
vt 0 0.1551914
vt 0.02439499 0.1436291
vt 0.03105545 0.09032249
vt 0.04085541 0.06932068
vt 0.09253693 0.08491707
vt 0.0351181 0.06161499
vt 0.05567169 0.0306015
vt 0.06552505 0.02433586
vt 0.1117134 0.07586098
vt 0.1104965 0.01272774
vt 0.1391678 0.0582962
vt 0.1601028 0
vt 0.1011162 0.1747894
vt 0.1336174 0.1449203
vt 0.08195877 0.1828403
vt 0.01793289 0.164854
vt 0.03448868 0.2142239
vt 0.04743958 0.2254906
vt 0.07887268 0.2111645
vt 0.07225037 0.2471085
vt 0.1049767 0.2632885
vt 0.115696 0.2088165
vt 0.1247482 0.2568016
vt 0.1062126 0.2799015
vt 0.14114 0.3005562
vt 0.1737976 0.3057575
vt 0.1989059 0.2710705
vt 0.1699028 0.2416706
vt 0.2008743 0.2380219
vt 0.1467972 0.2345943
vt 0.1615791 0.2046967
vt 0.1896019 0.2322655
vt 0.2009964 0.2104683
vt 0.1427269 0.1713619
vt 0.200573 0.1739712
vt 0.195488 0.1386814
vt 0.1398239 0.1273632
vt 0.194519 0.1165409
vt 0.1319008 0.1284142
vt 0.1742249 0.07235146
vt 0.1921806 0.06938362
vt 0.2009964 0.09280586
vt 0.1867065 0.03467178
vt 0.1907616 0.02745247
vt 0.1886787 0.01353264
vt 0.06349498 0.9785843
vt 0.08045042 0.9659157
vt 0.0784654 0.9271965
vt 0.02798414 0.9625015
vt 0.04747093 0.9165115
vt 0.009827614 0.9441185
vt 0.02362245 0.9134789
vt 0.01970196 0.8889351
vt 0 0.8805161
vt 0.05021369 0.9011345
vt 0.08045036 0.8981628
vt 0.07126218 0.9212685
vt 0.07044005 0.890892
vt 0.5668664 0.2555895
vt 0.5568191 0.2817717
vt 0.56614 0.2785606
vt 0.552429 0.2618551
vt 0.5395351 0.2997303
vt 0.5631288 0.2454348
vt 0.5185208 0.2729778
vt 0.5082819 0.2972183
vt 0.5258595 0.2604008
vt 0.560585 0.2323561
vt 0.4840397 0.276022
vt 0.4862611 0.28654
vt 0.4554884 0.2635756
vt 0.505149 0.2306938
vt 0.5405453 0.2068911
vt 0.5553674 0.1686478
vt 0.5200641 0.1999292
vt 0.4935364 0.215045
vt 0.4790488 0.2279301
vt 0.4916587 0.1811762
vt 0.5560202 0.1364174
vt 0.4574016 0.2069769
vt 0.4918796 0.1544247
vt 0.5567825 0.12957
vt 0.455343 0.236701
vt 0.4554884 0.2635756
vt 0.4370661 0.2414274
vt 0.4321347 0.2045259
vt 0.423822 0.1695242
vt 0.475009 0.158453
vt 0.4354854 0.1513577
vt 0.4115915 0.1505842
vt 0.4097435 0.1270466
vt 0.4620321 0.1433697
vt 0.4959139 0.1322441
vt 0.4349471 0.1304388
vt 0.4118364 0.1064148
vt 0.4004698 0.1044655
vt 0.4118855 0.06244087
vt 0.4585363 0.07065964
vt 0.4169692 0.05341434
vt 0.5327125 0.1165466
vt 0.5513799 0.1058044
vt 0.5364415 0.08147049
vt 0.5668664 0.08796883
vt 0.5267382 0.06348228
vt 0.5653559 0.06419754
vt 0.5462208 0.0200901
vt 0.5243871 0.0457449
vt 0.501214 0.01880741
vt 0.5099946 0
vt 0.4771945 0.001623154
vt 0.4641328 0.03040123
vt 0.4217027 0.0365181
vt 0.4490001 0.04578114
usemtl MV_RockClassic_Boulders
f 1/1/1 3/3/3 2/2/2
f 4/4/4 6/6/6 5/5/5
f 7/7/7 9/9/9 8/8/8
f 9/9/9 10/10/10 8/8/8
f 11/11/11 10/10/10 9/9/9
f 11/11/11 9/9/9 12/12/12
f 12/12/12 13/13/13 11/11/11
f 10/10/10 11/11/11 13/13/13
f 10/10/10 14/14/14 8/8/8
f 15/15/15 8/8/8 14/14/14
f 13/13/13 16/16/16 10/10/10
f 17/17/17 16/16/16 13/13/13
f 10/10/10 18/18/18 14/14/14
f 16/16/16 18/18/18 10/10/10
f 16/16/16 17/17/17 19/19/19
f 17/17/17 20/20/20 19/19/19
f 19/19/19 20/20/20 16/16/16
f 20/20/20 21/21/21 16/16/16
f 16/16/16 21/21/21 18/18/18
f 22/22/22 14/14/14 18/18/18
f 14/14/14 22/22/22 23/23/23
f 24/24/24 22/22/22 18/18/18
f 22/22/22 24/24/24 23/23/23
f 18/18/18 21/21/21 25/25/25
f 24/24/24 18/18/18 25/25/25
f 26/26/26 25/25/25 21/21/21
f 27/27/27 26/26/26 21/21/21
f 28/28/28 24/24/24 25/25/25
f 25/25/25 26/26/26 28/28/28
f 29/29/29 24/24/24 28/28/28
f 24/24/24 29/29/29 23/23/23
f 30/30/30 29/29/29 28/28/28
f 30/30/30 31/31/31 29/29/29
f 23/23/23 29/29/29 31/31/31
f 32/32/32 23/23/23 31/31/31
f 23/23/23 32/32/32 33/33/33
f 34/34/34 28/28/28 26/26/26
f 35/35/35 34/34/34 26/26/26
f 35/35/35 36/36/36 34/34/34
f 37/37/37 34/34/34 36/36/36
f 38/38/38 40/40/40 39/39/39
f 41/41/41 39/39/39 40/40/40
f 42/42/42 41/41/41 40/40/40
f 43/43/43 39/39/39 41/41/41
f 44/44/44 39/39/39 43/43/43
f 41/41/41 42/42/42 45/45/45
f 45/45/45 42/42/42 46/46/46
f 46/46/46 47/47/47 45/45/45
f 41/41/41 45/45/45 48/48/48
f 41/41/41 48/48/48 43/43/43
f 48/48/48 49/49/49 43/43/43
f 49/49/49 48/48/48 50/50/50
f 51/51/51 44/44/44 43/43/43
f 51/51/51 43/43/43 49/49/49
f 44/44/44 51/51/51 52/52/52
f 52/52/52 51/51/51 49/49/49
f 44/44/44 52/52/52 53/53/53
f 49/49/49 50/50/50 54/54/54
f 55/55/55 52/52/52 49/49/49
f 54/54/54 55/55/55 49/49/49
f 56/56/56 53/53/53 52/52/52
f 55/55/55 56/56/56 52/52/52
f 57/57/57 54/54/54 50/50/50
f 50/50/50 58/58/58 57/57/57
f 59/59/59 57/57/57 58/58/58
f 57/57/57 59/59/59 60/60/60
f 57/57/57 60/60/60 54/54/54
f 54/54/54 60/60/60 61/61/61
f 61/61/61 62/62/62 54/54/54
f 55/55/55 54/54/54 62/62/62
f 62/62/62 61/61/61 63/63/63
f 62/62/62 63/63/63 64/64/64
f 65/65/65 64/64/64 63/63/63
f 64/64/64 65/65/65 66/66/66
f 64/64/64 66/66/66 67/67/67
f 64/64/64 68/68/68 62/62/62
f 55/55/55 62/62/62 68/68/68
f 64/64/64 67/67/67 68/68/68
f 67/67/67 69/69/69 68/68/68
f 69/69/69 67/67/67 70/70/70
f 55/55/55 68/68/68 71/71/71
f 56/56/56 55/55/55 71/71/71
f 72/72/72 69/69/69 70/70/70
f 70/70/70 73/73/73 72/72/72
f 69/69/69 72/72/72 74/74/74
f 75/75/75 71/71/71 68/68/68
f 68/68/68 69/69/69 75/75/75
f 75/75/75 69/69/69 71/71/71
f 69/69/69 76/76/76 71/71/71
f 69/69/69 74/74/74 76/76/76
f 77/77/77 56/56/56 71/71/71
f 71/71/71 76/76/76 77/77/77
f 74/74/74 78/78/78 76/76/76
f 76/76/76 78/78/78 77/77/77
f 79/79/79 56/56/56 77/77/77
f 79/79/79 77/77/77 78/78/78
f 56/56/56 79/79/79 53/53/53
f 53/53/53 79/79/79 80/80/80
f 81/81/81 80/80/80 79/79/79
f 82/82/82 81/81/81 79/79/79
f 79/79/79 78/78/78 82/82/82
f 83/83/83 82/82/82 78/78/78
f 78/78/78 84/84/84 83/83/83
f 74/74/74 84/84/84 78/78/78
f 74/74/74 85/85/85 84/84/84
f 86/86/86 88/88/88 87/87/87
f 88/88/88 86/86/86 89/89/89
f 90/90/90 88/88/88 89/89/89
f 89/89/89 86/86/86 91/91/91
f 92/92/92 89/89/89 91/91/91
f 93/93/93 92/92/92 91/91/91
f 91/91/91 94/94/94 93/93/93
f 91/91/91 95/95/95 94/94/94
f 96/96/96 92/92/92 93/93/93
f 92/92/92 96/96/96 97/97/97
f 94/94/94 98/98/98 93/93/93
f 98/98/98 94/94/94 99/99/99
f 99/99/99 100/100/100 98/98/98
f 101/101/101 93/93/93 98/98/98
f 101/101/101 98/98/98 100/100/100
f 93/93/93 101/101/101 96/96/96
f 102/102/102 101/101/101 100/100/100
f 103/103/103 97/97/97 96/96/96
f 104/104/104 97/97/97 103/103/103
f 104/104/104 103/103/103 105/105/105
f 106/106/106 96/96/96 101/101/101
f 106/106/106 103/103/103 96/96/96
f 107/107/107 105/105/105 103/103/103
f 106/106/106 107/107/107 103/103/103
f 101/101/101 107/107/107 106/106/106
f 107/107/107 108/108/108 105/105/105
f 109/109/109 108/108/108 107/107/107
f 110/110/110 101/101/101 102/102/102
f 102/102/102 111/111/111 110/110/110
f 110/110/110 111/111/111 112/112/112
f 113/113/113 111/111/111 102/102/102
f 114/114/114 113/113/113 102/102/102
f 113/113/113 115/115/115 111/111/111
f 115/115/115 113/113/113 116/116/116
f 117/117/117 119/119/119 118/118/118
f 120/120/120 119/119/119 117/117/117
f 120/120/120 121/121/121 119/119/119
f 122/122/122 119/119/119 121/121/121
f 120/120/120 123/123/123 121/121/121
f 122/122/122 121/121/121 123/123/123
f 122/122/122 123/123/123 124/124/124
f 124/124/124 125/125/125 122/122/122
f 125/125/125 126/126/126 122/122/122
f 125/125/125 127/127/127 126/126/126
f 128/128/128 126/126/126 127/127/127
f 129/129/129 128/128/128 127/127/127
f 130/130/130 119/119/119 122/122/122
f 126/126/126 131/131/131 122/122/122
f 130/130/130 122/122/122 131/131/131
f 130/130/130 132/132/132 119/119/119
f 132/132/132 133/133/133 119/119/119
f 133/133/133 132/132/132 134/134/134
f 132/132/132 135/135/135 134/134/134
f 136/136/136 135/135/135 132/132/132
f 135/135/135 136/136/136 137/137/137
f 138/138/138 137/137/137 136/136/136
f 139/139/139 136/136/136 132/132/132
f 138/138/138 136/136/136 139/139/139
f 139/139/139 132/132/132 130/130/130
f 138/138/138 139/139/139 140/140/140
f 138/138/138 140/140/140 141/141/141
f 140/140/140 142/142/142 141/141/141
f 143/143/143 142/142/142 140/140/140
f 144/144/144 143/143/143 140/140/140
f 145/145/145 144/144/144 140/140/140
f 146/146/146 144/144/144 145/145/145
f 139/139/139 147/147/147 140/140/140
f 147/147/147 145/145/145 140/140/140
f 139/139/139 148/148/148 147/147/147
f 139/139/139 130/130/130 148/148/148
f 147/147/147 148/148/148 145/145/145
f 146/146/146 145/145/145 149/149/149
f 145/145/145 148/148/148 149/149/149
f 146/146/146 149/149/149 150/150/150
f 150/150/150 149/149/149 148/148/148
f 151/151/151 148/148/148 130/130/130
f 148/148/148 151/151/151 150/150/150
f 152/152/152 150/150/150 151/151/151
f 131/131/131 151/151/151 130/130/130
f 153/153/153 152/152/152 151/151/151
f 151/151/151 131/131/131 153/153/153
f 131/131/131 154/154/154 153/153/153
f 153/153/153 154/154/154 155/155/155
f 154/154/154 131/131/131 156/156/156
f 131/131/131 126/126/126 156/156/156
f 126/126/126 154/154/154 156/156/156
f 126/126/126 157/157/157 154/154/154
f 154/154/154 157/157/157 155/155/155
f 126/126/126 128/128/128 157/157/157
f 157/157/157 158/158/158 155/155/155
f 158/158/158 157/157/157 128/128/128
f 155/155/155 158/158/158 159/159/159
f 160/160/160 158/158/158 128/128/128
f 160/160/160 128/128/128 129/129/129
f 160/160/160 129/129/129 161/161/161
f 161/161/161 129/129/129 162/162/162
f 163/163/163 165/165/165 164/164/164
f 166/166/166 165/165/165 163/163/163
f 165/165/165 166/166/166 167/167/167
f 167/167/167 166/166/166 168/168/168
f 167/167/167 168/168/168 169/169/169
f 167/167/167 169/169/169 170/170/170
f 170/170/170 169/169/169 171/171/171
f 170/170/170 172/172/172 167/167/167
f 167/167/167 172/172/172 173/173/173
f 174/174/174 167/167/167 173/173/173
f 172/172/172 175/175/175 173/173/173
f 176/176/176 178/178/178 177/177/177
f 176/176/176 177/177/177 179/179/179
f 179/179/179 177/177/177 180/180/180
f 176/176/176 179/179/179 181/181/181
f 182/182/182 179/179/179 180/180/180
f 181/181/181 179/179/179 182/182/182
f 183/183/183 182/182/182 180/180/180
f 181/181/181 182/182/182 184/184/184
f 181/181/181 184/184/184 185/185/185
f 186/186/186 182/182/182 183/183/183
f 182/182/182 186/186/186 184/184/184
f 183/183/183 187/187/187 186/186/186
f 188/188/188 186/186/186 187/187/187
f 188/188/188 184/184/184 186/186/186
f 188/188/188 189/189/189 184/184/184
f 185/185/185 184/184/184 189/189/189
f 189/189/189 190/190/190 185/185/185
f 191/191/191 185/185/185 190/190/190
f 190/190/190 189/189/189 192/192/192
f 190/190/190 192/192/192 191/191/191
f 192/192/192 189/189/189 193/193/193
f 194/194/194 193/193/193 189/189/189
f 191/191/191 192/192/192 195/195/195
f 193/193/193 195/195/195 192/192/192
f 191/191/191 195/195/195 196/196/196
f 194/194/194 197/197/197 193/193/193
f 195/195/195 193/193/193 197/197/197
f 198/198/198 196/196/196 195/195/195
f 198/198/198 199/199/199 196/196/196
f 197/197/197 194/194/194 200/200/200
f 200/200/200 194/194/194 201/201/201
f 200/200/200 201/201/201 202/202/202
f 200/200/200 202/202/202 203/203/203
f 203/203/203 197/197/197 200/200/200
f 197/197/197 203/203/203 204/204/204
f 205/205/205 195/195/195 197/197/197
f 197/197/197 204/204/204 205/205/205
f 198/198/198 195/195/195 205/205/205
f 206/206/206 205/205/205 204/204/204
f 207/207/207 206/206/206 204/204/204
f 208/208/208 206/206/206 207/207/207
f 198/198/198 205/205/205 209/209/209
f 209/209/209 205/205/205 206/206/206
f 199/199/199 198/198/198 210/210/210
f 210/210/210 198/198/198 209/209/209
f 211/211/211 206/206/206 208/208/208
f 206/206/206 211/211/211 209/209/209
f 211/211/211 208/208/208 212/212/212
f 212/212/212 208/208/208 213/213/213
f 213/213/213 214/214/214 212/212/212
f 211/211/211 215/215/215 209/209/209
f 211/211/211 212/212/212 215/215/215
f 212/212/212 214/214/214 215/215/215
f 209/209/209 215/215/215 210/210/210
f 215/215/215 214/214/214 216/216/216
f 217/217/217 199/199/199 210/210/210
f 199/199/199 217/217/217 218/218/218
f 217/217/217 210/210/210 219/219/219
f 217/217/217 219/219/219 218/218/218
f 210/210/210 215/215/215 219/219/219
f 220/220/220 218/218/218 219/219/219
f 221/221/221 220/220/220 219/219/219
f 215/215/215 221/221/221 219/219/219
f 222/222/222 220/220/220 221/221/221
f 221/221/221 223/223/223 222/222/222
f 221/221/221 224/224/224 223/223/223
f 221/221/221 215/215/215 224/224/224
f 223/223/223 224/224/224 225/225/225
f 224/224/224 215/215/215 225/225/225
f 225/225/225 226/226/226 223/223/223
f 225/225/225 227/227/227 226/226/226
f 225/225/225 228/228/228 227/227/227
f 225/225/225 215/215/215 228/228/228
f 229/229/229 227/227/227 228/228/228
f 230/230/230 228/228/228 215/215/215
f 228/228/228 230/230/230 229/229/229
f 230/230/230 215/215/215 216/216/216
f 230/230/230 216/216/216 229/229/229
