mtllib P_BoulderCubic01.mtl
v -2.615921 -1.238131 2.538436
v -2.355591 -1.340675 2.698498
v -2.605152 -1.355107 2.408943
v -2.421257 -1.237784 -2.041406
v -2.488724 -1.265784 -1.722536
v -2.387596 -1.23195 -2.19628
v -2.505363 2.833831 0.4322087
v -2.522709 2.473325 0.1023209
v -1.318329 2.85211 -0.5581391
v -2.366509 2.557367 -1.815215
v -1.797787 2.72431 -2.297381
v -1.766072 2.773829 -2.251832
v -2.54882 2.481318 -0.4979809
v -1.318329 2.85211 -0.5581391
v -2.522709 2.473325 0.1023209
v -0.5659868 2.868109 -1.928789
v 0.1654547 2.759459 -2.284655
v 0.9564436 2.815073 -2.086492
v 1.45335 2.678547 -2.242392
v 1.365803 2.873093 0.06255089
v 2.738342 2.522711 -1.30313
v 2.410007 2.542773 -1.766251
v 1.951938 2.564541 -2.246328
v 2.752583 2.703408 1.330612
v 0.2305298 2.893191 -0.1328294
v -1.235519 2.916276 -0.4651548
v 1.751679 2.52243 2.454196
v 2.749459 2.508509 2.341158
v 1.053257 2.701628 1.423983
v 1.313389 2.801421 2.471486
v 0.0962639 3.035464 0.1617247
v -1.208591 3.026612 -0.3648184
v -0.8261297 2.900699 2.482029
v 0.1019137 2.828322 2.58498
v -1.684208 2.868845 2.404556
v -2.371151 2.842753 1.397042
v -2.505363 2.833831 0.4322087
v -1.318329 2.85211 -0.5581391
v -2.410015 2.707728 1.906252
v -2.171844 2.766871 2.304903
v -2.366509 2.557367 -1.815215
v -2.348728 1.992772 -2.284948
v -1.797787 2.72431 -2.297381
v -2.60101 1.803255 -1.980081
v -2.54882 2.481318 -0.4979809
v -2.618763 0.9062778 -2.285342
v -2.618324 1.505347 -0.7893134
v -2.617764 -1.003178 -2.28981
v -2.599915 -1.301373 -1.178757
v -2.639492 -1.351729 0.6675335
v -2.522709 2.473325 0.1023209
v -2.418213 2.062937 2.244517
v -2.410015 2.707728 1.906252
v -2.505363 2.833831 0.4322087
v -2.371151 2.842753 1.397042
v -2.3643 2.497863 2.269546
v -2.171844 2.766871 2.304903
v -2.478939 0.4285839 2.65254
v -2.615921 -1.238131 2.538436
v -2.4865 -0.4737943 2.722661
v -2.605152 -1.355107 2.408943
v -2.590313 -2.061568 0.694205
v -2.815998 -1.379649 -0.2554246
v -2.61171 -2.536149 1.23119
v -2.63744 -2.642624 0.358945
v -2.949909 -2.649462 -1.248445
v -2.614368 -2.447489 2.496366
v -3.101513 -2.055772 -2.398348
v -3.067806 -2.584086 -2.108131
v -2.888989 -2.540021 -2.425696
v -3.059738 -1.38828 -2.098617
v -3.093876 -1.764682 -2.419738
v -2.706288 -1.354882 -2.497815
v -2.616722 -1.558513 2.531984
v -2.398098 -1.540364 2.787879
v -2.355591 -1.340675 2.698498
v -2.37611 -2.496444 2.747165
v -1.766072 2.773829 -2.251832
v -1.797787 2.72431 -2.297381
v 0.1654547 2.759459 -2.284655
v 0.1846006 1.820989 -2.229307
v 1.140674 2.158617 -2.254993
v 1.45335 2.678547 -2.242392
v 1.951938 2.564541 -2.246328
v 2.653526 1.180084 -2.572213
v 2.705887 1.543222 -2.299408
v 1.162037 0.9488923 -2.544354
v 2.677395 -0.07377774 -2.756845
v 0.2238119 0.03681432 -2.532538
v 0.03107814 0.2875323 -2.284258
v 0.2447546 -0.6513367 -2.610792
v 1.427383 -1.013627 -2.760702
v 2.677185 -2.221207 -2.780932
v 1.15456 -2.398151 -2.717908
v -0.2480662 -2.447112 -2.607491
v 2.238559 -2.50037 -2.754454
v 0.6075513 -2.595941 -2.496432
v -0.8823016 -2.654936 -2.472948
v -1.747669 -2.580748 -2.413278
v -0.02295708 -0.9869771 -2.602276
v -0.4305842 -1.094793 -2.592349
v -1.045609 -1.239425 -2.549934
v -1.575936 -2.386628 -2.592886
v -2.888989 -2.540021 -2.425696
v -2.706288 -1.354882 -2.497815
v -1.916554 -1.288517 -2.52217
v -3.093876 -1.764682 -2.419738
v -3.101513 -2.055772 -2.398348
v 2.653526 1.180084 -2.572213
v 2.677395 -0.07377774 -2.756845
v 2.705887 1.543222 -2.299408
v 2.750782 2.177317 -1.756076
v 1.951938 2.564541 -2.246328
v 2.410007 2.542773 -1.766251
v 2.738342 2.522711 -1.30313
v 2.677185 -2.221207 -2.780932
v 2.752583 2.703408 1.330612
v 2.752556 -2.140069 1.174666
v 2.749459 2.508509 2.341158
v 2.727406 -0.189558 2.538139
v 2.139462 -1.42737 2.442433
v 1.833321 -2.513742 2.071294
v 2.740723 -2.255379 1.038145
v 2.757065 -2.460856 -0.6303192
v 2.701256 -2.510465 -2.20197
v 2.73822 -2.563298 -1.278859
v 1.15456 -2.398151 -2.717908
v -0.8823016 -2.654936 -2.472948
v 0.6075513 -2.595941 -2.496432
v 1.604054 -2.644856 2.084207
v 2.73822 -2.563298 -1.278859
v 2.238559 -2.50037 -2.754454
v 2.701256 -2.510465 -2.20197
v 2.677185 -2.221207 -2.780932
v 2.740723 -2.255379 1.038145
v 2.757065 -2.460856 -0.6303192
v 1.833321 -2.513742 2.071294
v -2.63744 -2.642624 0.358945
v -0.9162023 -2.645118 2.678093
v 0.5148242 -2.633892 2.410938
v -1.504974 -2.623059 2.746633
v -2.949909 -2.649462 -1.248445
v -2.61171 -2.536149 1.23119
v -2.37611 -2.496444 2.747165
v -2.614368 -2.447489 2.496366
v -1.747669 -2.580748 -2.413278
v -3.067806 -2.584086 -2.108131
v -2.888989 -2.540021 -2.425696
v -0.2480662 -2.447112 -2.607491
v 2.139462 -1.42737 2.442433
v 1.833321 -2.513742 2.071294
v 1.604054 -2.644856 2.084207
v 0.5148242 -2.633892 2.410938
v 0.492264 -1.874954 2.584434
v -0.9162023 -2.645118 2.678093
v -1.504974 -2.623059 2.746633
v -1.337906 -1.291716 2.779098
v 2.498959 -0.5050499 2.565358
v 2.727406 -0.189558 2.538139
v 0.9802821 -0.05196814 2.669478
v -2.398098 -1.540364 2.787879
v -2.37611 -2.496444 2.747165
v -2.355591 -1.340675 2.698498
v 0.1019137 2.828322 2.58498
v -2.4865 -0.4737943 2.722661
v -2.615921 -1.238131 2.538436
v -1.736702 1.751803 2.573802
v -2.478939 0.4285839 2.65254
v -2.418213 2.062937 2.244517
v -1.684208 2.868845 2.404556
v -2.3643 2.497863 2.269546
v -2.171844 2.766871 2.304903
v -0.8261297 2.900699 2.482029
v 1.751679 2.52243 2.454196
v 2.749459 2.508509 2.341158
v 1.313389 2.801421 2.471486
v -2.639492 -1.351729 0.6675335
v -2.815998 -1.379649 -0.2554246
v -2.599915 -1.301373 -1.178757
v -3.059738 -1.38828 -2.098617
v -2.539772 -1.284254 -1.394659
v -2.488724 -1.265784 -1.722536
v -2.421257 -1.237784 -2.041406
v -2.387596 -1.23195 -2.19628
v -2.706288 -1.354882 -2.497815
v -1.916554 -1.288517 -2.52217
v -1.668812 -1.192367 -2.257042
v -1.166081 -1.183641 -2.280529
v -1.045609 -1.239425 -2.549934
v -0.7177278 -1.083578 -2.300256
v -0.4305842 -1.094793 -2.592349
v -0.1825449 -0.9682102 -2.292846
v -0.02295708 -0.9869771 -2.602276
v -0.1825449 -0.9682102 -2.292846
v -0.02295708 -0.9869771 -2.602276
v 0.2447546 -0.6513367 -2.610792
v 0.05399684 -0.6321619 -2.301132
v 0.2238119 0.03681432 -2.532538
v 0.03107814 0.2875323 -2.284258
v 0.1846006 1.820989 -2.229307
v 0.05399684 -0.6321619 -2.301132
v -0.7177278 -1.083578 -2.300256
v -0.1825449 -0.9682102 -2.292846
v -2.617764 -1.003178 -2.28981
v -2.348728 1.992772 -2.284948
v -2.618763 0.9062778 -2.285342
v -1.668812 -1.192367 -2.257042
v -1.166081 -1.183641 -2.280529
v -2.387596 -1.23195 -2.19628
v -2.421257 -1.237784 -2.041406
v -2.387596 -1.23195 -2.19628
v -2.617764 -1.003178 -2.28981
v -2.599915 -1.301373 -1.178757
v -2.539772 -1.284254 -1.394659
v -1.318329 2.85211 -0.5581391
v -1.235519 2.916276 -0.4651548
v -1.208591 3.026612 -0.3648184
v 0.2305298 2.893191 -0.1328294
vn -0.8594604 -0.2278081 0.4576367
vn -0.3962063 0.1608177 0.903968
vn -0.9765756 -0.06815355 0.2040961
vn -0.8640515 -0.4564608 -0.2122705
vn -0.3602386 0.9328542 -0.003335408
vn -0.4727917 0.4774799 -0.740595
vn -0.7481748 0.6477903 -0.1435348
vn -0.9120012 0.3871898 -0.135417
vn -0.1835425 0.9513555 -0.2474567
vn -0.6973583 0.677276 -0.2344967
vn -0.2911326 0.4662155 -0.8353951
vn -0.2281255 0.8930399 -0.387864
vn -0.7879709 0.615384 0.02011067
vn -0.1835425 0.9513555 -0.2474567
vn -0.9120012 0.3871898 -0.135417
vn -0.01147969 0.9904885 -0.1371155
vn 0.01011673 0.575587 -0.8176779
vn 0.09474991 0.9583868 -0.2692902
vn 0.1416602 0.6516225 -0.7451982
vn 0.07315557 0.9969357 0.02770316
vn 0.7503651 0.6487978 -0.1265453
vn 0.4482642 0.8269044 -0.3395415
vn 0.2478759 0.6611032 -0.7081667
vn 0.6971089 0.7132871 0.07252993
vn 0.1631232 0.9406911 -0.2974747
vn 0.2573435 0.6544344 -0.7109782
vn 0.1863066 0.6267983 0.7565804
vn 0.6259882 0.5320922 0.5701023
vn 0.4480183 0.883388 -0.1374966
vn 0.3352994 0.7559314 0.5622652
vn 0.2271755 0.9635324 -0.1414093
vn -0.05829517 0.9075437 -0.415892
vn -0.06061525 0.7563024 0.651408
vn 0.03449814 0.6119044 0.7901791
vn -0.194857 0.723039 0.662756
vn -0.4746107 0.8753704 0.09203949
vn -0.7481748 0.6477903 -0.1435348
vn -0.1835425 0.9513555 -0.2474567
vn -0.8098221 0.5567606 0.1849482
vn -0.4116915 0.6609689 0.6273995
vn -0.6973583 0.677276 -0.2344967
vn -0.496546 0.2182166 -0.8401331
vn -0.2911326 0.4662155 -0.8353951
vn -0.943152 0.1931204 -0.2704975
vn -0.7879709 0.615384 0.02011067
vn -0.7113637 0.02367027 -0.7024255
vn -0.9991292 0.03578003 0.02146465
vn -0.6851097 -0.2978096 -0.6647813
vn -0.7910997 0.6116819 0.00255119
vn -0.9979377 0.01709388 0.06187125
vn -0.9120012 0.3871898 -0.135417
vn -0.817957 0.116296 0.5634018
vn -0.8098221 0.5567606 0.1849482
vn -0.7481748 0.6477903 -0.1435348
vn -0.4746107 0.8753704 0.09203949
vn -0.6955749 0.163853 0.6995196
vn -0.4116915 0.6609689 0.6273995
vn -0.6998577 0.1069817 0.7062253
vn -0.8594604 -0.2278081 0.4576367
vn -0.5201561 0.03693618 0.8532721
vn -0.9765756 -0.06815355 0.2040961
vn -0.9963471 -0.01381519 0.08427144
vn -0.8006462 0.5852804 0.1281118
vn -0.7975507 -0.599433 0.06777092
vn -0.6805173 -0.7249281 0.106656
vn -0.6988057 -0.7104818 0.08298323
vn -0.8012633 -0.5237166 0.2893058
vn -0.8339264 -0.07524552 -0.5467219
vn -0.7295236 -0.673962 -0.1164927
vn -0.3451737 -0.625796 -0.6994531
vn -0.778236 0.6215253 -0.08974856
vn -0.7752805 0.1172483 -0.6206393
vn -0.2905741 0.6031055 -0.7428529
vn -0.9283229 0.1258618 0.3498218
vn -0.4256596 0.1843307 0.8859097
vn -0.3962063 0.1608177 0.903968
vn -0.3664424 -0.605495 0.7064672
vn -0.2281255 0.8930399 -0.387864
vn -0.2911326 0.4662155 -0.8353951
vn 0.01011673 0.575587 -0.8176779
vn -0.04676408 0.05042222 -0.9976326
vn -0.03682221 0.1086259 -0.9934005
vn 0.1416602 0.6516225 -0.7451982
vn 0.2478759 0.6611032 -0.7081667
vn 0.5763808 0.1947482 -0.7936362
vn 0.8603531 0.2621102 -0.4371394
vn -0.09669594 0.1672155 -0.9811671
vn 0.6487055 0.06396139 -0.758347
vn -0.4972966 0.07990582 -0.863893
vn -0.3932582 0.04348127 -0.9183993
vn -0.4301522 0.1595379 -0.8885476
vn -0.07091622 0.03166163 -0.9969797
vn 0.6585091 -0.2702195 -0.7023868
vn -0.0765694 -0.328914 -0.9412506
vn -0.05567274 -0.2118309 -0.9757193
vn 0.1093746 -0.6976807 -0.7080104
vn 0.02499984 -0.937224 -0.3478309
vn -0.05221031 -0.8172646 -0.5738926
vn -0.05328668 -0.9013541 -0.4297922
vn -0.3200768 0.3871884 -0.8646595
vn -0.17104 0.5953872 -0.785022
vn -0.125941 0.5905177 -0.7971372
vn -0.04446169 -0.2758103 -0.9601832
vn -0.3451737 -0.625796 -0.6994531
vn -0.2905741 0.6031055 -0.7428529
vn -0.06396848 0.6157594 -0.7853333
vn -0.7752805 0.1172483 -0.6206393
vn -0.8339264 -0.07524552 -0.5467219
vn 0.5763808 0.1947482 -0.7936362
vn 0.6487055 0.06396139 -0.758347
vn 0.8603531 0.2621102 -0.4371394
vn 0.8904997 0.3161647 -0.3271854
vn 0.2478759 0.6611032 -0.7081667
vn 0.4482642 0.8269044 -0.3395415
vn 0.7503651 0.6487978 -0.1265453
vn 0.6585091 -0.2702195 -0.7023868
vn 0.6971089 0.7132871 0.07252993
vn 0.9069738 -0.3043902 0.2911101
vn 0.6259882 0.5320922 0.5701023
vn 0.7208616 -0.05077051 0.691217
vn 0.4532848 -0.3251186 0.8299583
vn 0.5039245 -0.6159891 0.6054896
vn 0.7971596 -0.5818143 0.1613342
vn 0.9146477 -0.4018589 0.04391989
vn 0.7207642 -0.6816842 -0.1257205
vn 0.730652 -0.6818852 -0.03435456
vn -0.0765694 -0.328914 -0.9412506
vn -0.05221031 -0.8172646 -0.5738926
vn 0.02499984 -0.937224 -0.3478309
vn 0.2504987 -0.8335967 0.4923076
vn 0.730652 -0.6818852 -0.03435456
vn 0.1093746 -0.6976807 -0.7080104
vn 0.7207642 -0.6816842 -0.1257205
vn 0.6585091 -0.2702195 -0.7023868
vn 0.7971596 -0.5818143 0.1613342
vn 0.9146477 -0.4018589 0.04391989
vn 0.5039245 -0.6159891 0.6054896
vn -0.6805173 -0.7249281 0.106656
vn 0.07555072 -0.7376905 0.6708985
vn 0.1362955 -0.7288781 0.6709398
vn -0.02112037 -0.7063121 0.7075855
vn -0.6988057 -0.7104818 0.08298323
vn -0.7975507 -0.599433 0.06777092
vn -0.3664424 -0.605495 0.7064672
vn -0.8012633 -0.5237166 0.2893058
vn -0.05328668 -0.9013541 -0.4297922
vn -0.7295236 -0.673962 -0.1164927
vn -0.3451737 -0.625796 -0.6994531
vn -0.05567274 -0.2118309 -0.9757193
vn 0.4532848 -0.3251186 0.8299583
vn 0.5039245 -0.6159891 0.6054896
vn 0.2504987 -0.8335967 0.4923076
vn 0.1362955 -0.7288781 0.6709398
vn 0.1188653 -0.1392926 0.9830914
vn 0.07555072 -0.7376905 0.6708985
vn -0.02112037 -0.7063121 0.7075855
vn 0.02312971 0.005435479 0.9997177
vn 0.292318 -0.1640455 0.9421461
vn 0.7208616 -0.05077051 0.691217
vn 0.05809212 0.004345785 0.9983017
vn -0.4256596 0.1843307 0.8859097
vn -0.3664424 -0.605495 0.7064672
vn -0.3962063 0.1608177 0.903968
vn 0.03449814 0.6119044 0.7901791
vn -0.5201561 0.03693618 0.8532721
vn -0.8594604 -0.2278081 0.4576367
vn -0.1805607 0.1396801 0.9735951
vn -0.6998577 0.1069817 0.7062253
vn -0.817957 0.116296 0.5634018
vn -0.194857 0.723039 0.662756
vn -0.6955749 0.163853 0.6995196
vn -0.4116915 0.6609689 0.6273995
vn -0.06061525 0.7563024 0.651408
vn 0.1863066 0.6267983 0.7565804
vn 0.6259882 0.5320922 0.5701023
vn 0.3352994 0.7559314 0.5622652
vn -0.9979377 0.01709388 0.06187125
vn -0.8006462 0.5852804 0.1281118
vn -0.7910997 0.6116819 0.00255119
vn -0.778236 0.6215253 -0.08974856
vn -0.9549807 -0.132999 -0.2651851
vn -0.3602386 0.9328542 -0.003335408
vn -0.8640515 -0.4564608 -0.2122705
vn -0.4727917 0.4774799 -0.740595
vn -0.2905741 0.6031055 -0.7428529
vn -0.06396848 0.6157594 -0.7853333
vn -0.04418436 0.4773862 -0.8775819
vn -0.1040733 0.6300604 -0.7695405
vn -0.125941 0.5905177 -0.7971372
vn -0.1436889 0.5884909 -0.7956331
vn -0.17104 0.5953872 -0.785022
vn -0.3094204 0.5672721 -0.7631916
vn -0.3200768 0.3871884 -0.8646595
vn -0.3094204 0.5672721 -0.7631916
vn -0.3200768 0.3871884 -0.8646595
vn -0.4301522 0.1595379 -0.8885476
vn -0.5280282 0.1889198 -0.8279466
vn -0.4972966 0.07990582 -0.863893
vn -0.3932582 0.04348127 -0.9183993
vn -0.04676408 0.05042222 -0.9976326
vn -0.5280282 0.1889198 -0.8279466
vn -0.1436889 0.5884909 -0.7956331
vn -0.3094204 0.5672721 -0.7631916
vn -0.6851097 -0.2978096 -0.6647813
vn -0.496546 0.2182166 -0.8401331
vn -0.7113637 0.02367027 -0.7024255
vn -0.04418436 0.4773862 -0.8775819
vn -0.1040733 0.6300604 -0.7695405
vn -0.4727917 0.4774799 -0.740595
vn -0.8640515 -0.4564608 -0.2122705
vn -0.4727917 0.4774799 -0.740595
vn -0.6851097 -0.2978096 -0.6647813
vn -0.7910997 0.6116819 0.00255119
vn -0.9549807 -0.132999 -0.2651851
vn -0.1835425 0.9513555 -0.2474567
vn 0.2573435 0.6544344 -0.7109782
vn -0.05829517 0.9075437 -0.415892
vn 0.1631232 0.9406911 -0.2974747
vt 0.6242615 0.482052
vt 0.6224238 0.4763274
vt 0.6224238 0.483913
vt 0.5511308 0.3343375
vt 0.5512339 0.3406998
vt 0.5512339 0.3312586
vt 0.6722165 0.3425345
vt 0.6790984 0.3449465
vt 0.6790984 0.3199385
vt 0.4847287 0.7397363
vt 0.4752572 0.750969
vt 0.4761879 0.7515883
vt 0.5108004 0.7361636
vt 0.5098011 0.7604848
vt 0.5226956 0.7366953
vt 0.4826284 0.775373
vt 0.4755019 0.789894
vt 0.4794506 0.8055719
vt 0.4762757 0.8154517
vt 0.5220796 0.8137207
vt 0.4947886 0.840986
vt 0.4856238 0.8344613
vt 0.4761258 0.8253632
vt 0.5471012 0.841283
vt 0.5182338 0.7911994
vt 0.5116796 0.7621152
vt 0.5692859 0.8214958
vt 0.5670232 0.841283
vt 0.548975 0.8075867
vt 0.5697933 0.8127452
vt 0.5241557 0.7885125
vt 0.513731 0.7626277
vt 0.5700888 0.7702964
vt 0.5720755 0.7887175
vt 0.568547 0.7532855
vt 0.5485693 0.7396482
vt 0.5294397 0.7369691
vt 0.5098011 0.7604848
vt 0.5585876 0.7389166
vt 0.5665205 0.743635
vt 0.8018773 0.7335978
vt 0.8115948 0.7444449
vt 0.8114222 0.7297679
vt 0.8056406 0.7484968
vt 0.7757922 0.7361025
vt 0.8123303 0.7660592
vt 0.7822526 0.7552563
vt 0.8137889 0.8038942
vt 0.7919876 0.8105915
vt 0.7554266 0.8129205
vt 0.7639063 0.7366815
vt 0.7217671 0.7463116
vt 0.7280098 0.73329
vt 0.7571133 0.7297679
vt 0.7380118 0.7302384
vt 0.7209694 0.737694
vt 0.7201127 0.7323285
vt 0.7148418 0.779009
vt 0.7182725 0.8119985
vt 0.714098 0.7969434
vt 0.7209247 0.8142207
vt 0.7554168 0.8269907
vt 0.7737039 0.8128695
vt 0.7451112 0.8367854
vt 0.7624687 0.8382803
vt 0.7942686 0.837365
vt 0.7199741 0.8359331
vt 0.8166022 0.8248261
vt 0.8112362 0.8354921
vt 0.8175323 0.8343363
vt 0.8101913 0.8117998
vt 0.8168187 0.8190401
vt 0.8181464 0.8107427
vt 0.7186301 0.8183429
vt 0.7135877 0.8180979
vt 0.7152239 0.8140637
vt 0.7150847 0.8370081
vt 0.7093425 0.6385726
vt 0.7083369 0.6379551
vt 0.7093425 0.6768816
vt 0.6907617 0.6774001
vt 0.6975929 0.6963105
vt 0.7079551 0.7024306
vt 0.7057701 0.7123358
vt 0.6782935 0.7264881
vt 0.6856151 0.727448
vt 0.6734908 0.6969433
vt 0.6533603 0.7271686
vt 0.6552671 0.6784759
vt 0.6603117 0.6745946
vt 0.641594 0.6790029
vt 0.6345313 0.7025235
vt 0.6107737 0.7274946
vt 0.6070563 0.6973212
vt 0.6059148 0.669504
vt 0.6051821 0.7188367
vt 0.6031426 0.6864852
vt 0.6017523 0.656947
vt 0.6031143 0.6397696
vt 0.6349015 0.6737446
vt 0.632705 0.6656765
vt 0.62976 0.6534986
vt 0.6069148 0.6431607
vt 0.6037402 0.6171309
vt 0.6272359 0.6205789
vt 0.6286636 0.6362321
vt 0.6190835 0.6129488
vt 0.6133198 0.6128401
vt 0.6298906 0.8323346
vt 0.6546554 0.836638
vt 0.6228745 0.8267092
vt 0.610621 0.8155847
vt 0.6020833 0.8255361
vt 0.6031116 0.815782
vt 0.6039968 0.8064342
vt 0.697184 0.8382418
vt 0.6017523 0.7541384
vt 0.6976238 0.759769
vt 0.606119 0.7342161
vt 0.65965 0.7317397
vt 0.6836666 0.7346087
vt 0.7047635 0.7427017
vt 0.6998304 0.7625415
vt 0.7030748 0.7957045
vt 0.703224 0.8269069
vt 0.7047635 0.8086208
vt 0.4752572 0.6474853
vt 0.4771206 0.6881942
vt 0.4787881 0.6586765
vt 0.5707743 0.6454931
vt 0.5058981 0.6182563
vt 0.4760308 0.6260231
vt 0.4876089 0.6176598
vt 0.4762338 0.6172293
vt 0.5518426 0.6214117
vt 0.51879 0.618776
vt 0.5708931 0.6409022
vt 0.5306478 0.7269305
vt 0.5789511 0.6961845
vt 0.575698 0.6674978
vt 0.5794813 0.7079207
vt 0.4984126 0.7308277
vt 0.5479753 0.7276309
vt 0.5783061 0.7251146
vt 0.573027 0.7294564
vt 0.4771035 0.7053732
vt 0.481268 0.7319185
vt 0.4752572 0.7279175
vt 0.4754364 0.6753985
vt 0.7248802 0.0851106
vt 0.7297503 0.1067594
vt 0.7341755 0.1095718
vt 0.7559198 0.1104848
vt 0.7571568 0.09554327
vt 0.7843825 0.1121268
vt 0.7960972 0.1122573
vt 0.7940391 0.08574799
vt 0.7186773 0.06656241
vt 0.7144321 0.06009321
vt 0.7492248 0.05902303
vt 0.8148087 0.09164862
vt 0.8134665 0.1105486
vt 0.8141074 0.08761861
vt 0.7692478 0.002746337
vt 0.8175156 0.07057855
vt 0.8192779 0.08576204
vt 0.8046557 0.02575001
vt 0.8181674 0.05267057
vt 0.818276 0.02008029
vt 0.8045672 0.003509275
vt 0.817624 0.01142657
vt 0.8140798 0.005936181
vt 0.7876422 0.002122557
vt 0.7362274 0.0072395
vt 0.7163982 0.006554788
vt 0.7451745 0.00212256
vt 0.8650128 0.1059782
vt 0.8506129 0.1178201
vt 0.8422152 0.1345847
vt 0.8235231 0.1428207
vt 0.840398 0.1386274
vt 0.8370225 0.1442602
vt 0.8340135 0.1499584
vt 0.8325641 0.1527419
vt 0.823857 0.1533661
vt 0.8356025 0.1637129
vt 0.8427609 0.1627591
vt 0.85013 0.1694865
vt 0.8485397 0.1751512
vt 0.8567358 0.1754148
vt 0.857408 0.183513
vt 0.8650128 0.1820218
vt 0.8635188 0.1887712
vt 0.142088 0.5643363
vt 0.1482483 0.5647926
vt 0.1486155 0.5580619
vt 0.1424444 0.5576068
vt 0.1473515 0.5443923
vt 0.142495 0.5393736
vt 0.142088 0.5089035
vt 0.6420737 0.675191
vt 0.6330046 0.659956
vt 0.6353778 0.6705509
vt 0.6343094 0.6222633
vt 0.6937529 0.6271402
vt 0.6721693 0.6219512
vt 0.6307186 0.641108
vt 0.6309596 0.6510783
vt 0.6298481 0.6268548
vt 0.5795842 0.3431582
vt 0.5788785 0.3462191
vt 0.5833492 0.348044
vt 0.5833492 0.3261183
vt 0.5821005 0.330379
vt 0.1363008 0.4912012
vt 0.1350433 0.4895248
vt 0.1328319 0.4889269
vt 0.1363008 0.4605032
usemtl MV_RockCubic_Rocks
f 1/1/1 3/3/3 2/2/2
f 4/4/4 6/6/6 5/5/5
f 7/7/7 9/9/9 8/8/8
f 10/10/10 12/12/12 11/11/11
f 12/12/12 10/10/10 13/13/13
f 14/14/14 12/12/12 13/13/13
f 15/15/15 14/14/14 13/13/13
f 16/16/16 12/12/12 14/14/14
f 16/16/16 17/17/17 12/12/12
f 18/18/18 17/17/17 16/16/16
f 18/18/18 19/19/19 17/17/17
f 14/14/14 20/20/20 16/16/16
f 16/16/16 20/20/20 18/18/18
f 18/18/18 21/21/21 19/19/19
f 20/20/20 21/21/21 18/18/18
f 22/22/22 19/19/19 21/21/21
f 22/22/22 23/23/23 19/19/19
f 24/24/24 21/21/21 20/20/20
f 25/25/25 20/20/20 14/14/14
f 26/26/26 25/25/25 14/14/14
f 27/27/27 24/24/24 20/20/20
f 20/20/20 25/25/25 27/27/27
f 28/28/28 24/24/24 27/27/27
f 27/27/27 25/25/25 29/29/29
f 30/30/30 27/27/27 29/29/29
f 25/25/25 31/31/31 29/29/29
f 30/30/30 29/29/29 31/31/31
f 31/31/31 25/25/25 32/32/32
f 33/33/33 30/30/30 31/31/31
f 33/33/33 31/31/31 32/32/32
f 34/34/34 30/30/30 33/33/33
f 32/32/32 35/35/35 33/33/33
f 36/36/36 35/35/35 32/32/32
f 37/37/37 36/36/36 32/32/32
f 37/37/37 32/32/32 38/38/38
f 36/36/36 39/39/39 35/35/35
f 35/35/35 39/39/39 40/40/40
f 41/41/41 43/43/43 42/42/42
f 44/44/44 41/41/41 42/42/42
f 45/45/45 41/41/41 44/44/44
f 44/44/44 42/42/42 46/46/46
f 47/47/47 45/45/45 44/44/44
f 44/44/44 46/46/46 47/47/47
f 46/46/46 48/48/48 47/47/47
f 47/47/47 48/48/48 49/49/49
f 50/50/50 47/47/47 49/49/49
f 51/51/51 45/45/45 47/47/47
f 51/51/51 47/47/47 50/50/50
f 52/52/52 51/51/51 50/50/50
f 53/53/53 51/51/51 52/52/52
f 53/53/53 54/54/54 51/51/51
f 53/53/53 55/55/55 54/54/54
f 56/56/56 53/53/53 52/52/52
f 57/57/57 53/53/53 56/56/56
f 52/52/52 50/50/50 58/58/58
f 58/58/58 50/50/50 59/59/59
f 60/60/60 58/58/58 59/59/59
f 59/59/59 50/50/50 61/61/61
f 61/61/61 50/50/50 62/62/62
f 62/62/62 50/50/50 63/63/63
f 61/61/61 62/62/62 64/64/64
f 64/64/64 62/62/62 65/65/65
f 65/65/65 62/62/62 66/66/66
f 62/62/62 63/63/63 66/66/66
f 67/67/67 61/61/61 64/64/64
f 63/63/63 68/68/68 66/66/66
f 69/69/69 66/66/66 68/68/68
f 68/68/68 70/70/70 69/69/69
f 63/63/63 71/71/71 68/68/68
f 71/71/71 72/72/72 68/68/68
f 71/71/71 73/73/73 72/72/72
f 74/74/74 61/61/61 67/67/67
f 61/61/61 74/74/74 75/75/75
f 75/75/75 74/74/74 67/67/67
f 75/75/75 76/76/76 61/61/61
f 67/67/67 77/77/77 75/75/75
f 78/78/78 80/80/80 79/79/79
f 79/79/79 80/80/80 81/81/81
f 82/82/82 81/81/81 80/80/80
f 83/83/83 82/82/82 80/80/80
f 83/83/83 84/84/84 82/82/82
f 84/84/84 85/85/85 82/82/82
f 84/84/84 86/86/86 85/85/85
f 82/82/82 85/85/85 87/87/87
f 82/82/82 87/87/87 81/81/81
f 85/85/85 88/88/88 87/87/87
f 81/81/81 87/87/87 89/89/89
f 90/90/90 79/79/79 81/81/81
f 89/89/89 87/87/87 91/91/91
f 87/87/87 88/88/88 92/92/92
f 87/87/87 92/92/92 91/91/91
f 88/88/88 93/93/93 92/92/92
f 93/93/93 94/94/94 92/92/92
f 92/92/92 94/94/94 91/91/91
f 95/95/95 91/91/91 94/94/94
f 93/93/93 96/96/96 94/94/94
f 97/97/97 94/94/94 96/96/96
f 94/94/94 98/98/98 95/95/95
f 95/95/95 98/98/98 99/99/99
f 100/100/100 91/91/91 95/95/95
f 101/101/101 100/100/100 95/95/95
f 101/101/101 95/95/95 102/102/102
f 102/102/102 95/95/95 103/103/103
f 95/95/95 104/104/104 103/103/103
f 105/105/105 102/102/102 103/103/103
f 105/105/105 103/103/103 104/104/104
f 106/106/106 102/102/102 105/105/105
f 105/105/105 104/104/104 107/107/107
f 104/104/104 108/108/108 107/107/107
f 109/109/109 111/111/111 110/110/110
f 112/112/112 110/110/110 111/111/111
f 111/111/111 113/113/113 112/112/112
f 114/114/114 112/112/112 113/113/113
f 115/115/115 112/112/112 114/114/114
f 112/112/112 116/116/116 110/110/110
f 115/115/115 117/117/117 112/112/112
f 118/118/118 112/112/112 117/117/117
f 118/118/118 117/117/117 119/119/119
f 120/120/120 118/118/118 119/119/119
f 120/120/120 121/121/121 118/118/118
f 122/122/122 118/118/118 121/121/121
f 122/122/122 123/123/123 118/118/118
f 123/123/123 124/124/124 118/118/118
f 118/118/118 124/124/124 112/112/112
f 112/112/112 124/124/124 116/116/116
f 124/124/124 125/125/125 116/116/116
f 124/124/124 126/126/126 125/125/125
f 127/127/127 129/129/129 128/128/128
f 128/128/128 129/129/129 130/130/130
f 130/130/130 129/129/129 131/131/131
f 129/129/129 132/132/132 131/131/131
f 133/133/133 131/131/131 132/132/132
f 132/132/132 134/134/134 133/133/133
f 135/135/135 130/130/130 131/131/131
f 131/131/131 136/136/136 135/135/135
f 137/137/137 130/130/130 135/135/135
f 130/130/130 138/138/138 128/128/128
f 139/139/139 138/138/138 130/130/130
f 139/139/139 130/130/130 140/140/140
f 139/139/139 141/141/141 138/138/138
f 128/128/128 138/138/138 142/142/142
f 143/143/143 138/138/138 141/141/141
f 144/144/144 143/143/143 141/141/141
f 144/144/144 145/145/145 143/143/143
f 128/128/128 142/142/142 146/146/146
f 142/142/142 147/147/147 146/146/146
f 146/146/146 147/147/147 148/148/148
f 146/146/146 148/148/148 149/149/149
f 150/150/150 152/152/152 151/151/151
f 153/153/153 152/152/152 150/150/150
f 154/154/154 153/153/153 150/150/150
f 153/153/153 154/154/154 155/155/155
f 156/156/156 155/155/155 154/154/154
f 157/157/157 156/156/156 154/154/154
f 154/154/154 150/150/150 158/158/158
f 150/150/150 159/159/159 158/158/158
f 160/160/160 154/154/154 158/158/158
f 160/160/160 157/157/157 154/154/154
f 159/159/159 160/160/160 158/158/158
f 157/157/157 161/161/161 156/156/156
f 156/156/156 161/161/161 162/162/162
f 157/157/157 163/163/163 161/161/161
f 159/159/159 164/164/164 160/160/160
f 164/164/164 157/157/157 160/160/160
f 165/165/165 163/163/163 157/157/157
f 163/163/163 165/165/165 166/166/166
f 167/167/167 165/165/165 157/157/157
f 167/167/167 157/157/157 164/164/164
f 167/167/167 168/168/168 165/165/165
f 167/167/167 169/169/169 168/168/168
f 167/167/167 170/170/170 169/169/169
f 170/170/170 167/167/167 164/164/164
f 170/170/170 171/171/171 169/169/169
f 170/170/170 172/172/172 171/171/171
f 170/170/170 164/164/164 173/173/173
f 174/174/174 164/164/164 159/159/159
f 159/159/159 175/175/175 174/174/174
f 176/176/176 164/164/164 174/174/174
f 177/177/177 179/179/179 178/178/178
f 179/179/179 180/180/180 178/178/178
f 180/180/180 179/179/179 181/181/181
f 181/181/181 182/182/182 180/180/180
f 181/181/181 183/183/183 182/182/182
f 182/182/182 184/184/184 180/180/180
f 180/180/180 184/184/184 185/185/185
f 185/185/185 184/184/184 186/186/186
f 187/187/187 186/186/186 184/184/184
f 187/187/187 188/188/188 186/186/186
f 188/188/188 189/189/189 186/186/186
f 190/190/190 189/189/189 188/188/188
f 190/190/190 191/191/191 189/189/189
f 190/190/190 192/192/192 191/191/191
f 192/192/192 193/193/193 191/191/191
f 194/194/194 196/196/196 195/195/195
f 194/194/194 197/197/197 196/196/196
f 197/197/197 198/198/198 196/196/196
f 199/199/199 198/198/198 197/197/197
f 200/200/200 198/198/198 199/199/199
f 201/201/201 203/203/203 202/202/202
f 201/201/201 202/202/202 90/90/90
f 90/90/90 202/202/202 79/79/79
f 202/202/202 204/204/204 79/79/79
f 205/205/205 79/79/79 204/204/204
f 205/205/205 204/204/204 206/206/206
f 202/202/202 207/207/207 204/204/204
f 202/202/202 208/208/208 207/207/207
f 204/204/204 207/207/207 209/209/209
f 210/210/210 212/212/212 211/211/211
f 210/210/210 213/213/213 212/212/212
f 214/214/214 213/213/213 210/210/210
f 215/215/215 217/217/217 216/216/216
f 218/218/218 216/216/216 217/217/217
