mtllib P_BoulderCubic04.mtl
v -4.823105 3.172551 -1.392827
v -4.817123 1.645961 -1.561382
v -4.816048 2.67285 -1.515718
v -0.2822111 0.2308852 2.494588
v 0.3153307 0.9012627 2.548126
v 0.3157885 0.7411991 2.771829
v -4.550735 -3.019601 2.036056
v -4.381401 -2.458171 2.169615
v -4.377235 -3.052331 2.412568
v 3.561744 -3.032031 -1.64087
v 4.667458 -3.015351 -1.342734
v 4.352158 -2.929953 -1.618394
v -0.3124999 -3.031679 1.567697
v 1.001877 -3.025908 -1.646814
v 0.1979063 -3.038628 -1.970207
v 0.971855 -3.031213 -1.86371
v -0.5111467 -3.038715 -2.070929
v 4.170151 -3.038103 1.874748
v -2.796837 -3.0401 -2.161759
v 1.482643 -3.043931 2.709624
v -1.318283 -3.033863 -2.168205
v 4.672005 -3.038415 1.130283
v 4.508163 -3.039284 1.557935
v 3.682526 -3.041759 2.531178
v 3.477799 -3.064795 2.810778
v 0.09883142 -3.032474 2.725166
v -1.167747 -3.057564 2.795106
v -1.730865 -3.071639 2.714627
v -2.747009 -3.083007 2.611372
v -4.377235 -3.052331 2.412568
v -4.550735 -3.019601 2.036056
v -4.935883 -3.032685 1.151996
v -4.880493 -3.030637 1.910066
v -4.956993 -2.965417 -1.447534
v -4.326424 -2.973131 -2.130674
v -4.817841 -2.814265 -1.84195
v 4.667458 -3.015351 -1.342734
v 4.642067 0.4064892 -1.631977
v 4.352158 -2.929953 -1.618394
v 3.561744 -3.032031 -1.64087
v 4.619171 1.502915 -1.636927
v 1.001129 0.5186319 -1.6583
v 1.001877 -3.025908 -1.646814
v 1.097221 1.933938 -1.624719
v -1.574249 -0.05393492 -1.653491
v 1.130028 3.144585 -1.638381
v -4.799438 -0.08331213 -1.647456
v 1.338402 3.204865 -1.631482
v 2.249466 3.21412 -1.609876
v 3.668075 3.144701 -1.58915
v 4.480698 3.040512 -1.548992
v 1.20433 3.166812 -1.593011
v 1.084244 3.671334 -1.556406
v -0.1255037 3.869683 -1.626732
v -0.7222596 3.922595 -1.595189
v -4.816048 2.67285 -1.515718
v -2.1241 3.977644 -1.490549
v -4.68335 3.46805 -1.432649
v -2.863587 3.968875 -1.431985
v -4.823105 3.172551 -1.392827
v -4.817123 1.645961 -1.561382
v -4.940056 0.3345369 -1.631022
v -4.823105 3.172551 -1.392827
v -4.880119 -0.3477857 -1.614561
v -4.969521 -2.242473 -1.630785
v -0.1255037 3.869683 -1.626732
v 1.084244 3.671334 -1.556406
v 1.463058 3.828348 -0.2058572
v -0.7222596 3.922595 -1.595189
v 0.5891268 3.866239 2.124777
v 1.469544 3.789461 1.687393
v 1.502587 3.660775 2.197949
v -1.606872 3.923994 2.244479
v -3.229667 3.991692 2.19179
v -2.1241 3.977644 -1.490549
v -4.329521 3.997248 -0.9034347
v -2.863587 3.968875 -1.431985
v -4.68335 3.46805 -1.432649
v -4.618004 3.980602 1.736756
v -4.807541 3.975465 -0.716108
v -4.795876 3.959854 0.4857779
v -4.807541 3.975465 -0.716108
v -4.823105 3.172551 -1.392827
v -4.68335 3.46805 -1.432649
v -4.795876 3.959854 0.4857779
v -4.985931 -0.124095 -1.430731
v -4.940056 0.3345369 -1.631022
v -4.880119 -0.3477857 -1.614561
v -4.969521 -2.242473 -1.630785
v -4.906197 -2.473881 1.983199
v -4.956993 -2.965417 -1.447534
v -4.817841 -2.814265 -1.84195
v -4.563591 -1.619348 -2.139359
v -4.799438 -0.08331213 -1.647456
v -4.935883 -3.032685 1.151996
v -4.880493 -3.030637 1.910066
v -4.744202 1.56365 1.854064
v -4.696335 3.695174 1.791266
v -4.618004 3.980602 1.736756
v -4.764565 0.7536934 2.048582
v -4.848068 -1.807084 2.125232
v -0.2822111 0.2308852 2.494588
v -0.1693799 -1.428256 2.712255
v -0.3893354 -1.146447 2.444545
v -0.02296423 -0.2940719 2.796834
v -0.02296423 -0.2940719 2.796834
v -0.2822111 0.2308852 2.494588
v 0.3157885 0.7411991 2.771829
v 1.096314 0.838572 2.83565
v 1.901093 -0.1182569 2.713959
v -0.1693799 -1.428256 2.712255
v 3.31086 0.7187952 2.78453
v 2.414139 0.9824345 2.801394
v 3.318672 1.020967 2.582799
v 3.691223 -0.2459831 2.7105
v 3.934487 0.3815662 2.373708
v 2.071778 -2.435923 2.728467
v 3.477799 -3.064795 2.810778
v 1.482643 -3.043931 2.709624
v 0.09883142 -3.032474 2.725166
v -1.167747 -3.057564 2.795106
v -1.678589 -2.020922 2.526147
v -0.3893354 -1.146447 2.444545
v -2.747009 -3.083007 2.611372
v -1.650779 -1.751072 2.265965
v -2.633056 -2.12102 2.435686
v -3.922874 -1.992912 2.257395
v -1.528099 0.09119339 2.232259
v -0.2822111 0.2308852 2.494588
v -3.429306 0.4416905 2.131771
v -1.178695 1.844676 2.270631
v 0.3153307 0.9012627 2.548126
v -4.019165 -2.416507 2.492378
v -4.377235 -3.052331 2.412568
v -4.381401 -2.458171 2.169615
v 0.6539919 1.812564 2.466934
v 2.052719 1.07316 2.638324
v -4.906197 -2.473881 1.983199
v -4.880493 -3.030637 1.910066
v -4.550735 -3.019601 2.036056
v -4.848068 -1.807084 2.125232
v -4.764565 0.7536934 2.048582
v -4.305161 1.668249 2.115043
v -4.744202 1.56365 1.854064
v -4.154892 3.380317 2.14427
v -4.696335 3.695174 1.791266
v -4.618004 3.980602 1.736756
v -3.229667 3.991692 2.19179
v -1.606872 3.923994 2.244479
v -2.162994 1.868135 2.210847
v -0.07989483 3.825774 2.173751
v 0.5891268 3.866239 2.124777
v 1.502587 3.660775 2.197949
v 1.642617 3.211263 2.287753
v 0.5706941 2.253672 2.338458
v 1.913216 2.229193 2.463288
v 2.645333 3.213464 2.330611
v 3.434204 1.883618 2.393109
v 4.289772 3.038892 2.076124
v 3.525574 3.213851 2.17288
v 4.660614 2.676815 2.077499
v 4.671112 2.993309 1.783019
v 4.668442 1.724209 2.191876
v 4.674561 0.3184234 2.029693
v 4.672981 -1.211412 1.870458
v 4.170151 -3.038103 1.874748
v 4.667603 -2.283352 1.601452
v 4.508163 -3.039284 1.557935
v 3.682526 -3.041759 2.531178
v 3.477799 -3.064795 2.810778
v 3.691223 -0.2459831 2.7105
v 4.170151 -3.038103 1.874748
v 3.934487 0.3815662 2.373708
v 4.660614 2.676815 2.077499
v 4.671112 2.993309 1.783019
v 4.668442 1.724209 2.191876
v 4.655861 2.884103 -1.387561
v 4.674561 0.3184234 2.029693
v 4.664841 3.167348 0.5607381
v 4.480698 3.040512 -1.548992
v 4.557755 3.167858 -0.4503025
v 4.619171 1.502915 -1.636927
v 4.642067 0.4064892 -1.631977
v 4.672981 -1.211412 1.870458
v 4.667458 -3.015351 -1.342734
v 4.667603 -2.283352 1.601452
v 4.672005 -3.038415 1.130283
v 4.508163 -3.039284 1.557935
v 4.289772 3.038892 2.076124
v 3.525574 3.213851 2.17288
v 4.671112 2.993309 1.783019
v 4.664841 3.167348 0.5607381
v 4.557755 3.167858 -0.4503025
v 1.708527 3.21549 -0.009891696
v 1.642617 3.211263 2.287753
v 2.645333 3.213464 2.330611
v 2.249466 3.21412 -1.609876
v 3.668075 3.144701 -1.58915
v 4.480698 3.040512 -1.548992
v 1.338402 3.204865 -1.631482
v 1.360054 3.211697 -1.098439
v 1.20433 3.166812 -1.593011
v 2.414139 0.9824345 2.801394
v 2.052719 1.07316 2.638324
v 3.318672 1.020967 2.582799
v 0.3153307 0.9012627 2.548126
v 1.096314 0.838572 2.83565
v 0.3157885 0.7411991 2.771829
v -3.393105 -0.2085182 -2.161815
v -4.161377 -0.2587421 -2.137587
v -1.842354 -0.2396354 -2.170094
v -2.796837 -3.0401 -2.161759
v -4.326424 -2.973131 -2.130674
v -1.318283 -3.033863 -2.168205
v -4.563591 -1.619348 -2.139359
v -4.799438 -0.08331213 -1.647456
v -4.817841 -2.814265 -1.84195
v -0.5640337 -0.1375836 -2.092207
v -0.5111467 -3.038715 -2.070929
v -0.4345934 0.1083737 -1.943011
v 0.1979063 -3.038628 -1.970207
v 0.6733397 0.3582034 -1.795258
v 0.9513701 0.1424275 -1.852074
v 0.971855 -3.031213 -1.86371
v 1.001129 0.5186319 -1.6583
v 1.001129 0.5186319 -1.6583
v -1.574249 -0.05393492 -1.653491
v 0.6733397 0.3582034 -1.795258
v -0.4345934 0.1083737 -1.943011
v -1.842354 -0.2396354 -2.170094
v -4.799438 -0.08331213 -1.647456
v -3.393105 -0.2085182 -2.161815
v -4.161377 -0.2587421 -2.137587
v 1.001877 -3.025908 -1.646814
v 1.001129 0.5186319 -1.6583
v 0.9513701 0.1424275 -1.852074
v 0.971855 -3.031213 -1.86371
v 1.360054 3.211697 -1.098439
v 1.084244 3.671334 -1.556406
v 1.20433 3.166812 -1.593011
v 1.463058 3.828348 -0.2058572
v 1.708527 3.21549 -0.009891696
v 1.469544 3.789461 1.687393
v 1.502587 3.660775 2.197949
v 1.614739 3.243436 2.215063
v 1.642617 3.211263 2.287753
v 2.163292 0.419349 -2.177862
v 2.219536 -1.003384 -2.193657
v 2.216987 -0.7156172 -2.186536
v 1.032348 0.09909785 -2.2739
v 1.50264 -1.279562 -2.25831
v 0.7380903 1.658321 -2.062305
v 2.055641 1.197747 -2.070163
v 1.999214 1.498429 -1.906732
v 0.4541472 1.69733 -2.05181
v -0.2204821 -1.559599 -2.425845
v -0.3080141 0.322592 -2.292617
v -0.3692171 0.5847447 -2.212861
v -0.1568605 1.591006 -1.983478
v -0.3128817 -1.598118 -2.355516
v 0.3373564 -1.554013 -2.3627
v -0.1356585 -1.673829 -2.403935
v -0.3213732 -1.859745 -2.141367
v 1.50264 -1.279562 -2.25831
v 2.205612 -1.080917 -2.069949
v 2.219536 -1.003384 -2.193657
v 2.050888 -1.0785 -0.3972257
v -0.3213732 -1.859745 -2.141367
v -0.1356585 -1.673829 -2.403935
v 0.4003143 -1.580761 -0.3710626
v -0.3508684 -1.848571 -1.740978
v -0.4550705 -1.842227 -0.4504443
v 0.7558365 -1.468527 -0.3331956
v 1.254021 -1.311053 -0.3026288
v 1.756935 -1.154272 -0.2619426
v 2.071678 -1.054573 -0.2400233
v 2.128357 -1.053875 -0.9544708
v 2.193718 -1.056043 -1.714525
v 2.193718 -1.056043 -1.714525
v 2.205612 -1.080917 -2.069949
v 2.050888 -1.0785 -0.3972257
v 2.219536 -1.003384 -2.193657
v 2.216987 -0.7156172 -2.186536
v 2.163292 0.419349 -2.177862
v 2.104332 0.621421 -1.435934
v 2.128357 -1.053875 -0.9544708
v 2.055641 1.197747 -2.070163
v 2.071678 -1.054573 -0.2400233
v 2.011017 0.8911738 -0.2105566
v 2.044037 -0.5877816 -0.2117508
v 1.959427 1.536228 -0.2076839
v 1.975502 1.761456 -1.100703
v 1.999214 1.498429 -1.906732
v 1.912956 2.080253 -0.200243
v -0.4550705 -1.842227 -0.4504443
v -0.4773255 -0.6221992 -0.4233456
v 0.4003143 -1.580761 -0.3710626
v 2.044037 -0.5877816 -0.2117508
v 0.7558365 -1.468527 -0.3331956
v 1.254021 -1.311053 -0.3026288
v 1.756935 -1.154272 -0.2619426
v 2.071678 -1.054573 -0.2400233
v 0.6319885 2.18684 -0.3103943
v -0.499733 1.680572 -0.3996032
v -0.1950913 2.193904 -0.369367
v -0.3595963 2.202173 -0.400505
v 1.912956 2.080253 -0.200243
v 1.001816 2.164566 -0.2736858
v 1.959427 1.536228 -0.2076839
v 2.011017 0.8911738 -0.2105566
v -0.1950913 2.193904 -0.369367
v -0.3595963 2.202173 -0.400505
v 0.6319885 2.18684 -0.3103943
v 0.4541472 1.69733 -2.05181
v -0.1568605 1.591006 -1.983478
v 1.001816 2.164566 -0.2736858
v 0.7380903 1.658321 -2.062305
v 1.912956 2.080253 -0.200243
v 1.975502 1.761456 -1.100703
v 1.999214 1.498429 -1.906732
v -0.3508684 -1.848571 -1.740978
v -0.3213732 -1.859745 -2.141367
v -0.3128817 -1.598118 -2.355516
v -0.4136582 -1.837831 -1.032632
v -0.4550705 -1.842227 -0.4504443
v -0.4773255 -0.6221992 -0.4233456
v -0.3632509 -0.03315202 -2.247498
v -0.3080141 0.322592 -2.292617
v -0.3692171 0.5847447 -2.212861
v -0.5039826 1.182515 -0.4294312
v -0.499733 1.680572 -0.3996032
v -0.3314821 0.9923969 -2.005904
v -0.1568605 1.591006 -1.983478
v -0.4154358 2.010278 -0.4044041
v -0.3595963 2.202173 -0.400505
v 2.282463 -3.209835 -1.996251
v 2.362884 -2.411861 -2.244367
v 2.10746 -3.215186 -2.236459
v 2.370575 -3.041871 -1.318054
v 2.27861 -3.224545 -0.459271
v 2.334473 -3.148478 -0.4583236
v 2.381607 -1.808717 -0.4697616
v 2.384132 -1.244619 -0.9877968
v 2.313614 -1.093767 -2.187888
v 2.271416 -1.280519 -0.471778
v 2.10746 -3.215186 -2.236459
v 2.27861 -3.224545 -0.459271
v 2.282463 -3.209835 -1.996251
v -0.0689394 -3.229069 -2.240028
v 1.013474 -3.214658 -0.5131792
v 0.05976862 -3.154629 -0.6414297
v -0.1763078 -3.145933 -0.836653
v -0.1855775 -2.983185 -0.667226
v -0.1747362 -3.184501 -1.687889
v -0.1670611 -2.682148 -2.346994
v -0.0689394 -3.229069 -2.240028
v 2.10746 -3.215186 -2.236459
v 1.044731 -1.530898 -2.302664
v -0.1308062 -1.837918 -2.357819
v 2.362884 -2.411861 -2.244367
v 1.838073 -1.272446 -2.239486
v 2.313614 -1.093767 -2.187888
v -0.1747362 -3.184501 -1.687889
v -0.0689394 -3.229069 -2.240028
v -0.1670611 -2.682148 -2.346994
v -0.1855775 -2.983185 -0.667226
v -0.1763078 -3.145933 -0.836653
v -0.1426012 -1.729092 -2.163252
v -0.1308062 -1.837918 -2.357819
v -0.1650773 -1.727182 -1.450646
v -0.134964 -1.703381 -0.5537127
v -0.1426012 -1.729092 -2.163252
v -0.1308062 -1.837918 -2.357819
v 1.044731 -1.530898 -2.302664
v 0.3406066 -1.567311 -0.5153273
v -0.134964 -1.703381 -0.5537127
v -0.1650773 -1.727182 -1.450646
v 2.047348 -1.099321 -0.4749508
v 1.838073 -1.272446 -2.239486
v 2.200218 -1.070485 -1.463706
v 2.313614 -1.093767 -2.187888
v 2.384132 -1.244619 -0.9877968
v 2.271416 -1.280519 -0.471778
v -0.134964 -1.703381 -0.5537127
v 0.05976862 -3.154629 -0.6414297
v -0.1855775 -2.983185 -0.667226
v 1.013474 -3.214658 -0.5131792
v 0.3406066 -1.567311 -0.5153273
v 2.334473 -3.148478 -0.4583236
v 2.27861 -3.224545 -0.459271
v 2.047348 -1.099321 -0.4749508
v 2.381607 -1.808717 -0.4697616
v 2.271416 -1.280519 -0.471778
vn -0.8892161 0.1591318 -0.4289195
vn -0.4653546 0.06595936 -0.8826633
vn -0.6850037 0.0571207 -0.7262969
vn -0.3943946 0.1268662 0.9101416
vn -0.2550197 0.3974163 0.8814903
vn -0.3697148 0.4766058 0.7975951
vn -0.3767996 -0.7999434 0.4670253
vn -0.5252068 0.1831063 0.8310415
vn -0.5344207 -0.5833884 0.6115983
vn 0.02245041 -0.7106143 -0.7032235
vn 0.6982759 -0.6366906 -0.3271634
vn 0.2991858 -0.4593424 -0.8363566
vn 0.003409398 -0.9999782 -0.005656468
vn 0.3111051 -0.8859195 -0.3440355
vn 0.104445 -0.7099263 -0.6964883
vn 0.5723878 -0.5957072 -0.5634759
vn 0.09232998 -0.7070466 -0.7011136
vn 0.4607286 -0.7667808 0.4469636
vn -0.01818493 -0.7082289 -0.7057486
vn -0.005040818 -0.7265669 0.6870772
vn 0.04188621 -0.6637903 -0.746745
vn 0.7117994 -0.6978828 0.07937974
vn 0.5575898 -0.7362595 0.3834261
vn 0.5666714 -0.7212315 0.3983825
vn 0.3235267 -0.6472154 0.6902484
vn 0.03657519 -0.7714601 0.6352257
vn -0.05631408 -0.6441003 0.7628654
vn -0.002444507 -0.9885174 0.1510876
vn -0.06159858 -0.6783239 0.7321764
vn -0.5344207 -0.5833884 0.6115983
vn -0.3767996 -0.7999434 0.4670253
vn -0.717142 -0.6967259 0.01674447
vn -0.6121991 -0.6545337 0.4436191
vn -0.7270814 -0.6702181 -0.1488635
vn -0.2247996 -0.6552137 -0.7212213
vn -0.7135438 -0.3506898 -0.6065244
vn 0.6982759 -0.6366906 -0.3271634
vn 0.7105397 -0.003976081 -0.7036459
vn 0.2991858 -0.4593424 -0.8363566
vn 0.02245041 -0.7106143 -0.7032235
vn 0.6109493 0.02629153 -0.7912331
vn 0.08665207 0.1330837 -0.9873095
vn 0.3111051 -0.8859195 -0.3440355
vn 0.005895098 0.004332692 -0.9999732
vn -0.08585916 0.622068 -0.7782413
vn 0.2779461 0.05838758 -0.9588206
vn -0.2759566 0.132623 -0.9519765
vn -0.1685896 0.6994569 -0.6945053
vn 0.02261468 0.7275218 -0.6857117
vn 0.0678813 0.6983213 -0.7125584
vn 0.4247338 0.6131407 -0.6660779
vn 0.3301149 0.3924161 -0.8585067
vn 0.4880936 0.5984741 -0.6352901
vn 0.04178781 0.6484702 -0.7600922
vn 0.0122316 0.7112995 -0.7027827
vn -0.6850037 0.0571207 -0.7262969
vn -0.02581992 0.7660183 -0.6423001
vn -0.4554105 0.4254085 -0.7820671
vn -0.07234214 0.7677597 -0.6366408
vn -0.8892161 0.1591318 -0.4289195
vn -0.4653546 0.06595936 -0.8826633
vn -0.6540108 0.0489478 -0.7549
vn -0.8892161 0.1591318 -0.4289195
vn -0.6704001 0.01720043 -0.7418004
vn -0.9499432 -0.002936883 -0.3124088
vn 0.04178781 0.6484702 -0.7600922
vn 0.4880936 0.5984741 -0.6352901
vn 0.6216219 0.7729405 -0.1270795
vn 0.0122316 0.7112995 -0.7027827
vn 0.06560884 0.8595867 0.5067606
vn 0.6067685 0.7916769 0.07127286
vn 0.5546644 0.5803827 0.596241
vn 0.02087392 0.6949885 0.7187178
vn -0.05152948 0.7027093 0.7096086
vn -0.02581992 0.7660183 -0.6423001
vn -0.1316285 0.9369664 -0.3236786
vn -0.07234214 0.7677597 -0.6366408
vn -0.4554105 0.4254085 -0.7820671
vn -0.5376903 0.7297199 0.422372
vn -0.6915633 0.6987387 -0.183042
vn -0.7766818 0.6285333 0.04136891
vn -0.6915633 0.6987387 -0.183042
vn -0.8892161 0.1591318 -0.4289195
vn -0.4554105 0.4254085 -0.7820671
vn -0.7766818 0.6285333 0.04136891
vn -0.9824249 -0.01129387 -0.1863165
vn -0.6540108 0.0489478 -0.7549
vn -0.6704001 0.01720043 -0.7418004
vn -0.9499432 -0.002936883 -0.3124088
vn -0.7997943 -0.06808329 0.5964006
vn -0.7270814 -0.6702181 -0.1488635
vn -0.7135438 -0.3506898 -0.6065244
vn -0.4531502 0.0296357 -0.8909414
vn -0.2759566 0.132623 -0.9519765
vn -0.717142 -0.6967259 0.01674447
vn -0.6121991 -0.6545337 0.4436191
vn -0.8592623 0.09246518 0.5031086
vn -0.8163505 0.181319 0.548357
vn -0.5376903 0.7297199 0.422372
vn -0.711436 0.05465517 0.7006223
vn -0.6581655 -0.02254346 0.7525358
vn -0.3943946 0.1268662 0.9101416
vn -0.1988747 0.1343112 0.9707778
vn -0.4567233 0.1907382 0.8689204
vn -0.3680096 0.01616607 0.9296815
vn -0.3680096 0.01616607 0.9296815
vn -0.3943946 0.1268662 0.9101416
vn -0.3697148 0.4766058 0.7975951
vn -0.0489247 0.4920529 0.8691895
vn 0.01651102 -0.05904563 0.9981188
vn -0.1988747 0.1343112 0.9707778
vn 0.3245374 0.2515949 0.911798
vn 0.04020476 0.5601928 0.8273861
vn 0.2582101 0.3063037 0.9162453
vn 0.4844053 0.005616446 0.8748257
vn 0.5117314 0.0192184 0.8589305
vn -0.02200637 0.014241 0.9996564
vn 0.3235267 -0.6472154 0.6902484
vn -0.005040818 -0.7265669 0.6870772
vn 0.03657519 -0.7714601 0.6352257
vn -0.05631408 -0.6441003 0.7628654
vn -0.2021987 0.4263129 0.8816876
vn -0.4567233 0.1907382 0.8689204
vn -0.06159858 -0.6783239 0.7321764
vn -0.1965088 0.3977884 0.8961857
vn -0.06973897 0.3891003 0.9185519
vn -0.1733232 0.2251896 0.9587746
vn -0.1081012 0.01658252 0.9940016
vn -0.3943946 0.1268662 0.9101416
vn -0.04908083 0.02263544 0.9985383
vn -0.07466862 0.03587806 0.9965628
vn -0.2550197 0.3974163 0.8814903
vn -0.3363356 0.2939428 0.8946933
vn -0.5344207 -0.5833884 0.6115983
vn -0.5252068 0.1831063 0.8310415
vn -0.08743264 0.1740167 0.9808536
vn -0.03692396 0.4971662 0.8668693
vn -0.7997943 -0.06808329 0.5964006
vn -0.6121991 -0.6545337 0.4436191
vn -0.3767996 -0.7999434 0.4670253
vn -0.6581655 -0.02254346 0.7525358
vn -0.711436 0.05465517 0.7006223
vn -0.2677084 0.02968602 0.9630426
vn -0.8592623 0.09246518 0.5031086
vn -0.2923416 0.1259262 0.9479868
vn -0.8163505 0.181319 0.548357
vn -0.5376903 0.7297199 0.422372
vn -0.05152948 0.7027093 0.7096086
vn 0.02087392 0.6949885 0.7187178
vn -0.06172836 -0.0001955886 0.9980929
vn 0.02541061 0.1504241 0.988295
vn 0.06560884 0.8595867 0.5067606
vn 0.5546644 0.5803827 0.596241
vn 0.2089154 0.5564991 0.8041537
vn -0.1022256 0.1827268 0.9778348
vn -0.06056498 0.1319671 0.9894021
vn 0.04545899 0.7323288 0.6794322
vn 0.1308932 0.156882 0.978905
vn 0.2971983 0.6648867 0.6852729
vn 0.1487615 0.7869887 0.5987644
vn 0.7317099 0.2024981 0.6508419
vn 0.7725084 0.5929687 0.2271979
vn 0.7658398 0.04554065 0.6414168
vn 0.843354 -0.0581316 0.5342047
vn 0.8361183 -0.06914012 0.5441746
vn 0.4607286 -0.7667808 0.4469636
vn 0.9135721 -0.1124068 0.3908334
vn 0.5575898 -0.7362595 0.3834261
vn 0.5666714 -0.7212315 0.3983825
vn 0.3235267 -0.6472154 0.6902484
vn 0.4844053 0.005616446 0.8748257
vn 0.4607286 -0.7667808 0.4469636
vn 0.5117314 0.0192184 0.8589305
vn 0.7317099 0.2024981 0.6508419
vn 0.7725084 0.5929687 0.2271979
vn 0.7658398 0.04554065 0.6414168
vn 0.9021611 0.3072523 -0.3028224
vn 0.843354 -0.0581316 0.5342047
vn 0.7175109 0.696471 0.01031338
vn 0.4247338 0.6131407 -0.6660779
vn 0.594906 0.7996296 -0.0817273
vn 0.6109493 0.02629153 -0.7912331
vn 0.7105397 -0.003976081 -0.7036459
vn 0.8361183 -0.06914012 0.5441746
vn 0.6982759 -0.6366906 -0.3271634
vn 0.9135721 -0.1124068 0.3908334
vn 0.7117994 -0.6978828 0.07937974
vn 0.5575898 -0.7362595 0.3834261
vn 0.2971983 0.6648867 0.6852729
vn 0.1487615 0.7869887 0.5987644
vn 0.7725084 0.5929687 0.2271979
vn 0.7175109 0.696471 0.01031338
vn 0.594906 0.7996296 -0.0817273
vn 0.534995 0.8424263 -0.06401854
vn 0.2089154 0.5564991 0.8041537
vn 0.04545899 0.7323288 0.6794322
vn 0.02261468 0.7275218 -0.6857117
vn 0.0678813 0.6983213 -0.7125584
vn 0.4247338 0.6131407 -0.6660779
vn -0.1685896 0.6994569 -0.6945053
vn 0.588858 0.7840672 -0.1961757
vn 0.3301149 0.3924161 -0.8585067
vn 0.04020476 0.5601928 0.8273861
vn -0.03692396 0.4971662 0.8668693
vn 0.2582101 0.3063037 0.9162453
vn -0.2550197 0.3974163 0.8814903
vn -0.0489247 0.4920529 0.8691895
vn -0.3697148 0.4766058 0.7975951
vn -0.001620439 0.5163788 -0.8563588
vn -0.2179285 0.4953473 -0.8409151
vn -0.02332691 0.5575634 -0.8298066
vn -0.01818493 -0.7082289 -0.7057486
vn -0.2247996 -0.6552137 -0.7212213
vn 0.04188621 -0.6637903 -0.746745
vn -0.4531502 0.0296357 -0.8909414
vn -0.2759566 0.132623 -0.9519765
vn -0.7135438 -0.3506898 -0.6065244
vn 0.06847219 0.2537555 -0.9648418
vn 0.09232998 -0.7070466 -0.7011136
vn -0.1043763 0.8090243 -0.5784334
vn 0.104445 -0.7099263 -0.6964883
vn -0.02852941 0.6312901 -0.7750219
vn 0.6172976 0.1558558 -0.7711372
vn 0.5723878 -0.5957072 -0.5634759
vn 0.08665207 0.1330837 -0.9873095
vn 0.08665207 0.1330837 -0.9873095
vn -0.08585916 0.622068 -0.7782413
vn -0.02852941 0.6312901 -0.7750219
vn -0.1043763 0.8090243 -0.5784334
vn -0.02332691 0.5575634 -0.8298066
vn -0.2759566 0.132623 -0.9519765
vn -0.001620439 0.5163788 -0.8563588
vn -0.2179285 0.4953473 -0.8409151
vn 0.3111051 -0.8859195 -0.3440355
vn 0.08665207 0.1330837 -0.9873095
vn 0.6172976 0.1558558 -0.7711372
vn 0.5723878 -0.5957072 -0.5634759
vn 0.588858 0.7840672 -0.1961757
vn 0.4880936 0.5984741 -0.6352901
vn 0.3301149 0.3924161 -0.8585067
vn 0.6216219 0.7729405 -0.1270795
vn 0.534995 0.8424263 -0.06401854
vn 0.6067685 0.7916769 0.07127286
vn 0.5546644 0.5803827 0.596241
vn 0.8922395 0.446309 -0.06867979
vn 0.2089154 0.5564991 0.8041537
vn 0.7386085 0.1151381 -0.6642293
vn 0.7150328 -0.2885295 -0.6367722
vn 0.8607249 0.03713289 -0.5077143
vn 0.05521057 0.08186403 -0.9951131
vn 0.2685792 -0.6637028 -0.6981145
vn 0.08507035 0.6389626 -0.7645193
vn 0.6925533 0.2774512 -0.665876
vn 0.6271873 0.630151 -0.4577618
vn -0.0279408 0.6749049 -0.7373756
vn -0.2854727 -0.1376296 -0.9484532
vn -0.3792529 0.09819788 -0.9200676
vn -0.8269954 0.1658185 -0.5371991
vn -0.546423 0.5537809 -0.6282903
vn -0.7994549 -0.2333686 -0.5535441
vn 0.116215 -0.1184142 -0.98614
vn -0.001275525 -0.5799626 -0.8146421
vn -0.5267968 -0.8092268 -0.2600714
vn 0.2685792 -0.6637028 -0.6981145
vn 0.7303234 -0.6725037 -0.1198608
vn 0.7150328 -0.2885295 -0.6367722
vn 0.4337612 -0.8992343 0.05682359
vn -0.5267968 -0.8092268 -0.2600714
vn -0.001275525 -0.5799626 -0.8146421
vn 0.1428702 -0.6829522 0.7163549
vn -0.581171 -0.8130697 -0.03402975
vn -0.5295675 -0.6722196 0.5173772
vn 0.1251588 -0.6419246 0.7564839
vn 0.1652035 -0.6695548 0.7241576
vn 0.1526977 -0.6701225 0.7263741
vn 0.6225284 -0.4600817 0.6330744
vn 0.9163125 -0.3928507 0.07771674
vn 0.9420896 -0.3261304 0.07814198
vn 0.9420896 -0.3261304 0.07814198
vn 0.7303234 -0.6725037 -0.1198608
vn 0.4337612 -0.8992343 0.05682359
vn 0.7150328 -0.2885295 -0.6367722
vn 0.8607249 0.03713289 -0.5077143
vn 0.7386085 0.1151381 -0.6642293
vn 0.9958104 0.07348464 0.05442159
vn 0.9163125 -0.3928507 0.07771674
vn 0.6925533 0.2774512 -0.665876
vn 0.6225284 -0.4600817 0.6330744
vn 0.7114777 0.03949414 0.7015979
vn 0.446516 -0.005673422 0.8947576
vn 0.7744471 0.05942044 0.6298418
vn 0.7380526 0.6514635 -0.1757092
vn 0.6271873 0.630151 -0.4577618
vn 0.5286304 0.653932 0.5412235
vn -0.5295675 -0.6722196 0.5173772
vn -0.7580042 -0.02333272 0.6518322
vn 0.1428702 -0.6829522 0.7163549
vn 0.446516 -0.005673422 0.8947576
vn 0.1251588 -0.6419246 0.7564839
vn 0.1652035 -0.6695548 0.7241576
vn 0.1526977 -0.6701225 0.7263741
vn 0.6225284 -0.4600817 0.6330744
vn -0.01222997 0.8021026 0.5970611
vn -0.7996334 0.1144953 0.5894721
vn -0.0780474 0.5651581 0.8212826
vn -0.5574999 0.7324296 0.3908207
vn 0.5286304 0.653932 0.5412235
vn -0.018211 0.6236137 0.7815205
vn 0.7744471 0.05942044 0.6298418
vn 0.7114777 0.03949414 0.7015979
vn -0.0780474 0.5651581 0.8212826
vn -0.5574999 0.7324296 0.3908207
vn -0.01222997 0.8021026 0.5970611
vn -0.0279408 0.6749049 -0.7373756
vn -0.546423 0.5537809 -0.6282903
vn -0.018211 0.6236137 0.7815205
vn 0.08507035 0.6389626 -0.7645193
vn 0.5286304 0.653932 0.5412235
vn 0.7380526 0.6514635 -0.1757092
vn 0.6271873 0.630151 -0.4577618
vn -0.581171 -0.8130697 -0.03402975
vn -0.5267968 -0.8092268 -0.2600714
vn -0.7994549 -0.2333686 -0.5535441
vn -0.9420941 -0.3274674 -0.07227605
vn -0.5295675 -0.6722196 0.5173772
vn -0.7580042 -0.02333272 0.6518322
vn -0.9168732 0.01152539 -0.3990121
vn -0.3792529 0.09819788 -0.9200676
vn -0.8269954 0.1658185 -0.5371991
vn -0.9924784 -2.579259E-05 0.1224203
vn -0.7996334 0.1144953 0.5894721
vn -0.9531063 0.1880533 -0.2371167
vn -0.546423 0.5537809 -0.6282903
vn -0.9286187 0.2573013 0.2673266
vn -0.5574999 0.7324296 0.3908207
vn 0.6743549 -0.7064358 -0.2149281
vn 0.7161499 -0.03427164 -0.6971046
vn 0.3003221 -0.6675411 -0.681319
vn 0.9722446 -0.2337232 -0.01067367
vn 0.3497416 -0.6976348 0.6252891
vn 0.7037926 -0.2691529 0.657444
vn 0.7123927 0.03209299 0.7010468
vn 0.877529 0.4724253 0.08220327
vn 0.4744174 0.6843666 -0.5536881
vn 0.58368 0.3715741 0.7219768
vn 0.3003221 -0.6675411 -0.681319
vn 0.3497416 -0.6976348 0.6252891
vn 0.6743549 -0.7064358 -0.2149281
vn -0.4682609 -0.6898029 -0.5521809
vn -0.0665701 -0.7054378 0.7056388
vn -0.2075751 -0.7050093 0.6781404
vn -0.7039956 -0.6883947 0.174651
vn -0.7528275 -0.2076216 0.6246152
vn -0.7713619 -0.6363827 -0.004225428
vn -0.6819089 -0.0824904 -0.7267706
vn -0.4682609 -0.6898029 -0.5521809
vn 0.3003221 -0.6675411 -0.681319
vn -0.1266104 0.6492811 -0.7499359
vn -0.5949441 0.3431946 -0.7268143
vn 0.7161499 -0.03427164 -0.6971046
vn -0.168199 0.6625163 -0.7299187
vn 0.4744174 0.6843666 -0.5536881
vn -0.7713619 -0.6363827 -0.004225428
vn -0.4682609 -0.6898029 -0.5521809
vn -0.6819089 -0.0824904 -0.7267706
vn -0.7528275 -0.2076216 0.6246152
vn -0.7039956 -0.6883947 0.174651
vn -0.7188739 0.6660694 -0.1989267
vn -0.5949441 0.3431946 -0.7268143
vn -0.8227124 0.568274 -0.01445919
vn -0.6468585 0.4877729 0.5862182
vn -0.7188739 0.6660694 -0.1989267
vn -0.5949441 0.3431946 -0.7268143
vn -0.1266104 0.6492811 -0.7499359
vn -0.2167149 0.6857881 0.6947873
vn -0.6468585 0.4877729 0.5862182
vn -0.8227124 0.568274 -0.01445919
vn 0.08669325 0.7688459 0.63353
vn -0.168199 0.6625163 -0.7299187
vn 0.0976143 0.9951112 0.01500779
vn 0.4744174 0.6843666 -0.5536881
vn 0.877529 0.4724253 0.08220327
vn 0.58368 0.3715741 0.7219768
vn -0.6468585 0.4877729 0.5862182
vn -0.2075751 -0.7050093 0.6781404
vn -0.7528275 -0.2076216 0.6246152
vn -0.0665701 -0.7054378 0.7056388
vn -0.2167149 0.6857881 0.6947873
vn 0.7037926 -0.2691529 0.657444
vn 0.3497416 -0.6976348 0.6252891
vn 0.08669325 0.7688459 0.63353
vn 0.7123927 0.03209299 0.7010468
vn 0.58368 0.3715741 0.7219768
vt 0.1445986 0.6988086
vt 0.1445986 0.7292628
vt 0.1459345 0.7089235
vt 0.7254733 0.3334465
vt 0.7254733 0.3199385
vt 0.7208271 0.3227951
vt 0.5911815 0.7319058
vt 0.5894683 0.720548
vt 0.5837264 0.7319058
vt 0.297234 0.02430421
vt 0.3030782 0.002355502
vt 0.2976635 0.008597425
vt 0.3611119 0.1009323
vt 0.2972881 0.07506249
vt 0.2909246 0.09102808
vt 0.2929875 0.07567263
vt 0.2889744 0.1050942
vt 0.3669007 0.01202868
vt 0.2873244 0.1504233
vt 0.3836311 0.06527077
vt 0.2871009 0.1211033
vt 0.3521057 0.002122625
vt 0.3605959 0.005345784
vt 0.3799477 0.02165925
vt 0.3854971 0.02570908
vt 0.3840352 0.09270602
vt 0.385497 0.1178247
vt 0.3839336 0.1290003
vt 0.3819497 0.1491593
vt 0.3781268 0.1814877
vt 0.3706842 0.1849405
vt 0.3531756 0.1926353
vt 0.368204 0.1914904
vt 0.3016563 0.1931904
vt 0.2880661 0.1807306
vt 0.2938801 0.1904072
vt 0.005422325 0.195171
vt 0.0730719 0.1919348
vt 0.006745097 0.1888814
vt 0.004074241 0.1733038
vt 0.09477254 0.1905968
vt 0.07233774 0.1197015
vt 0.002122566 0.1225755
vt 0.1004679 0.1204603
vt 0.0589136 0.0691319
vt 0.1244727 0.1201347
vt 0.05572546 0.005247824
vt 0.1258384 0.1242143
vt 0.1267675 0.1422576
vt 0.1265483 0.1704214
vt 0.1251581 0.1866036
vt 0.124992 0.1215847
vt 0.134905 0.1187944
vt 0.1378269 0.09467001
vt 0.1384055 0.08279951
vt 0.1103686 0.002681604
vt 0.1384055 0.05496737
vt 0.1262639 0.004661132
vt 0.1376579 0.04031568
vt 0.1203132 0.002126609
vt 0.09000523 0.003493509
vt 0.06389648 0.002122629
vt 0.1203132 0.002126609
vt 0.05043434 0.003859257
vt 0.01281985 0.003618339
vt 0.1534551 0.5917124
vt 0.1551537 0.6157193
vt 0.1821416 0.6227387
vt 0.1539047 0.5798578
vt 0.2280568 0.6046141
vt 0.2196473 0.6222357
vt 0.2297058 0.6227471
vt 0.2297058 0.5610195
vt 0.228141 0.5288461
vt 0.1555271 0.552015
vt 0.1664158 0.5080838
vt 0.1564283 0.5373349
vt 0.1555061 0.5013654
vt 0.2186376 0.5014752
vt 0.1699518 0.4985475
vt 0.1937693 0.4983758
vt 0.4457013 0.002122558
vt 0.4591727 0.01800445
vt 0.4599704 0.01209968
vt 0.4218706 0.002506808
vt 0.4601164 0.08342174
vt 0.4640662 0.07430037
vt 0.4637984 0.08781311
vt 0.4642314 0.1254096
vt 0.3925925 0.1302142
vt 0.4606493 0.1397531
vt 0.4684885 0.1366878
vt 0.4743561 0.1128965
vt 0.464449 0.08254202
vt 0.4091079 0.1412498
vt 0.394086 0.1412417
vt 0.3949106 0.0500951
vt 0.3960202 0.007809847
vt 0.3970975 0.00212256
vt 0.3911044 0.06617483
vt 0.3897422 0.1169836
vt 0.8144081 0.314054
vt 0.8089513 0.3467457
vt 0.8144081 0.3414156
vt 0.8081043 0.3241664
vt 0.2264962 0.09755773
vt 0.2160812 0.09234723
vt 0.2058215 0.1038389
vt 0.2035878 0.1192351
vt 0.2221698 0.13566
vt 0.2490083 0.09518679
vt 0.2050112 0.1632061
vt 0.2001686 0.1453105
vt 0.1989394 0.1633335
vt 0.2239477 0.171198
vt 0.2112742 0.1759211
vt 0.2680478 0.1400332
vt 0.279955 0.1681299
vt 0.280341 0.1286274
vt 0.2807017 0.1011868
vt 0.2817588 0.07605783
vt 0.2613192 0.06562351
vt 0.2434103 0.09084242
vt 0.2828557 0.04486057
vt 0.2558569 0.06619109
vt 0.2636696 0.04679462
vt 0.261603 0.02126551
vt 0.2192722 0.06784698
vt 0.2160812 0.09234723
vt 0.2130844 0.03006446
vt 0.1843802 0.07399807
vt 0.2025616 0.103875
vt 0.270132 0.01941956
vt 0.2828557 0.01263672
vt 0.2709847 0.01242242
vt 0.1843225 0.1102366
vt 0.1984586 0.138191
vt 0.2714443 0.00212238
vt 0.2824419 0.002908701
vt 0.2821334 0.009375711
vt 0.2582569 0.002915114
vt 0.2074285 0.003507164
vt 0.1891316 0.0121853
vt 0.1912882 0.003661299
vt 0.1551407 0.01441189
vt 0.1489895 0.003724671
vt 0.1432772 0.005182148
vt 0.1426506 0.03246296
vt 0.1433308 0.06462984
vt 0.1843057 0.0545092
vt 0.1446083 0.09497364
vt 0.1435058 0.1082414
vt 0.1472232 0.1263978
vt 0.1561101 0.1293209
vt 0.1755633 0.1084613
vt 0.1755326 0.1350176
vt 0.1556615 0.1491726
vt 0.1817163 0.1653489
vt 0.1583318 0.1819711
vt 0.1552224 0.1666997
vt 0.165354 0.1894764
vt 0.158961 0.1896984
vt 0.1842791 0.1899834
vt 0.212081 0.1907924
vt 0.2423463 0.1915006
vt 0.2787707 0.1823182
vt 0.2634934 0.1919924
vt 0.2785287 0.1891798
vt 0.2421909 0.6946374
vt 0.2476169 0.6949318
vt 0.2457507 0.6392359
vt 0.2294562 0.6949506
vt 0.239213 0.6269923
vt 0.07558347 0.508534
vt 0.06970014 0.5023249
vt 0.07801171 0.5273958
vt 0.00685994 0.5050679
vt 0.07503124 0.5552883
vt 0.04543908 0.499099
vt 0.003533307 0.5018659
vt 0.02533576 0.4991961
vt 0.002122564 0.5324567
vt 0.002413998 0.5542004
vt 0.07212516 0.5856325
vt 0.008724247 0.6219742
vt 0.0669657 0.6069205
vt 0.05775243 0.6219742
vt 0.06613537 0.6217878
vt 0.8974348 0.493008
vt 0.8821259 0.4923123
vt 0.9054815 0.4981676
vt 0.9074003 0.522223
vt 0.907012 0.5423743
vt 0.8499572 0.5385375
vt 0.8447302 0.4932749
vt 0.8644662 0.4907072
vt 0.8633783 0.5692097
vt 0.8913874 0.5664051
vt 0.9074003 0.5642751
vt 0.8454183 0.5712043
vt 0.8449335 0.560636
vt 0.8427139 0.5706954
vt 0.1466266 0.4867867
vt 0.1435369 0.4795593
vt 0.142088 0.5046583
vt 0.142088 0.4451208
vt 0.1475551 0.460694
vt 0.1464309 0.4452206
vt 0.01675756 0.7133231
vt 0.01774456 0.7285611
vt 0.01737535 0.6825686
vt 0.07289924 0.7014983
vt 0.07156105 0.7318347
vt 0.07277576 0.6721755
vt 0.04472316 0.7365375
vt 0.01406285 0.7412543
vt 0.06829152 0.7416035
vt 0.01531726 0.6572238
vt 0.07282998 0.6561766
vt 0.01037812 0.6546687
vt 0.07278503 0.6421232
vt 0.00536113 0.6327086
vt 0.009662622 0.6271904
vt 0.07259227 0.6267833
vt 0.002122559 0.6262193
vt 0.3414547 0.4745824
vt 0.3412812 0.4236333
vt 0.3386557 0.4681125
vt 0.335609 0.4461905
vt 0.3309406 0.4183415
vt 0.3414547 0.3596823
vt 0.3311564 0.3875829
vt 0.3316249 0.372359
vt 0.3500169 0.4299257
vt 0.3500169 0.3596825
vt 0.3461232 0.3670915
vt 0.3456999 0.4299986
vt 0.2459665 0.5656598
vt 0.2365825 0.574819
vt 0.2466672 0.5755588
vt 0.2339509 0.547808
vt 0.2463112 0.5438844
vt 0.2349924 0.5102807
vt 0.2376395 0.5001621
vt 0.2459981 0.4998274
vt 0.2466672 0.498376
vt 0.5949064 0.8715717
vt 0.5954736 0.8998036
vt 0.5955338 0.8940951
vt 0.5723655 0.8775259
vt 0.5811574 0.90503
vt 0.5671175 0.8464148
vt 0.5930644 0.8560546
vt 0.5920497 0.8500039
vt 0.5615019 0.845528
vt 0.5468957 0.9099893
vt 0.5458767 0.8725882
vt 0.5447587 0.8673344
vt 0.5493408 0.8473723
vt 0.5450436 0.910688
vt 0.557954 0.9100665
vt 0.5485318 0.9122772
vt 0.5447587 0.9157814
vt 0.7548152 0.9354061
vt 0.7574493 0.9211382
vt 0.7550074 0.9210388
vt 0.7907586 0.9214597
vt 0.7599282 0.9714589
vt 0.7544962 0.9681544
vt 0.7938188 0.9542068
vt 0.7678924 0.9713833
vt 0.7935678 0.9713299
vt 0.7940207 0.9470809
vt 0.793859 0.9371321
vt 0.7938894 0.9270734
vt 0.7938388 0.9207836
vt 0.7796279 0.9208315
vt 0.7645006 0.9207836
vt 0.9119697 0.7922532
vt 0.9049323 0.7927834
vt 0.9380026 0.7924852
vt 0.9024835 0.7912673
vt 0.9026067 0.7855621
vt 0.9026827 0.763029
vt 0.9173449 0.7589209
vt 0.926999 0.7921003
vt 0.9047114 0.7475132
vt 0.9411294 0.7920144
vt 0.9415672 0.7534071
vt 0.9416473 0.7827408
vt 0.9415576 0.7405846
vt 0.9238512 0.7362043
vt 0.9079016 0.7414987
vt 0.9416473 0.7297678
vt 0.8726583 0.9138082
vt 0.8726583 0.8896231
vt 0.8556476 0.9089816
vt 0.8227801 0.8899845
vt 0.8485788 0.9069068
vt 0.8386614 0.903987
vt 0.8286558 0.9010865
vt 0.8223915 0.8992386
vt 0.8496812 0.8344015
vt 0.8722555 0.8439717
vt 0.8660414 0.8339229
vt 0.8692825 0.8336846
vt 0.8243884 0.8370458
vt 0.8423783 0.8349983
vt 0.8236665 0.8478459
vt 0.8228831 0.8606526
vt 0.3341739 0.9312063
vt 0.3338209 0.9279039
vt 0.3340404 0.9476503
vt 0.2996209 0.9414811
vt 0.3018658 0.9295274
vt 0.3341739 0.9550229
vt 0.2989463 0.9470844
vt 0.3341497 0.9731644
vt 0.3160717 0.9730397
vt 0.2999531 0.9722863
vt 0.8773353 0.6937407
vt 0.8852745 0.6941324
vt 0.8896381 0.6890391
vt 0.8632835 0.6932297
vt 0.8517306 0.6930689
vt 0.8517306 0.6688771
vt 0.8881811 0.6579814
vt 0.8892452 0.6509326
vt 0.8877676 0.6457182
vt 0.8526472 0.6331104
vt 0.852278 0.6232221
vt 0.8838536 0.6375329
vt 0.8837115 0.6256034
vt 0.8525373 0.6166628
vt 0.8525569 0.6128401
vt 0.9482686 0.87556
vt 0.9432726 0.8598518
vt 0.943407 0.8755761
vt 0.961737 0.872178
vt 0.9787358 0.8755761
vt 0.978775 0.8741109
vt 0.9783673 0.8475993
vt 0.9680122 0.8365145
vt 0.944159 0.8336846
vt 0.9781818 0.8370491
vt 0.3897422 0.1491485
vt 0.4249506 0.145495
vt 0.39448 0.1456411
vt 0.3900008 0.1923084
vt 0.4240795 0.1705857
vt 0.4217043 0.1894962
vt 0.4178728 0.1942033
vt 0.4212911 0.1943104
vt 0.4009806 0.1943104
vt 0.5049545 0.9725101
vt 0.5158188 0.9709793
vt 0.5171571 0.927838
vt 0.4830249 0.9476421
vt 0.4882589 0.9711633
vt 0.5014334 0.9221783
vt 0.4784663 0.9317319
vt 0.4752572 0.9221783
vt 0.774842 0.3370106
vt 0.7741665 0.3479937
vt 0.785014 0.3499195
vt 0.7785053 0.3167059
vt 0.7753353 0.3201194
vt 0.8038592 0.3459749
vt 0.8017671 0.3498701
vt 0.8036634 0.3318402
vt 0.8038592 0.314054
vt 0.6056772 0.9217798
vt 0.6017523 0.921912
vt 0.6022853 0.9451867
vt 0.6381187 0.9323673
vt 0.6375778 0.9229436
vt 0.6198116 0.9217843
vt 0.6381187 0.9661302
vt 0.6031887 0.9609007
vt 0.6184488 0.9685295
vt 0.6040159 0.970324
vt 0.627663 0.9725096
vt 0.6379372 0.9706089
vt 0.423329 0.9237876
vt 0.4519171 0.928708
vt 0.4486792 0.9237398
vt 0.4524979 0.947581
vt 0.420319 0.9330952
vt 0.4502948 0.9736797
vt 0.4518404 0.9726269
vt 0.4098813 0.966562
vt 0.4237094 0.9736797
vt 0.4133182 0.971127
usemtl MV_RockCubic_Rocks
f 1/1/1 3/3/3 2/2/2
f 4/4/4 6/6/6 5/5/5
f 7/7/7 9/9/9 8/8/8
f 10/10/10 12/12/12 11/11/11
f 11/11/11 13/13/13 10/10/10
f 13/13/13 14/14/14 10/10/10
f 13/13/13 15/15/15 14/14/14
f 16/16/16 14/14/14 15/15/15
f 13/13/13 17/17/17 15/15/15
f 18/18/18 13/13/13 11/11/11
f 13/13/13 19/19/19 17/17/17
f 18/18/18 20/20/20 13/13/13
f 17/17/17 19/19/19 21/21/21
f 18/18/18 11/11/11 22/22/22
f 23/23/23 18/18/18 22/22/22
f 20/20/20 18/18/18 24/24/24
f 25/25/25 20/20/20 24/24/24
f 20/20/20 26/26/26 13/13/13
f 26/26/26 27/27/27 13/13/13
f 27/27/27 28/28/28 13/13/13
f 29/29/29 28/28/28 27/27/27
f 28/28/28 29/29/29 13/13/13
f 30/30/30 13/13/13 29/29/29
f 13/13/13 30/30/30 31/31/31
f 13/13/13 31/31/31 19/19/19
f 32/32/32 19/19/19 31/31/31
f 31/31/31 33/33/33 32/32/32
f 19/19/19 32/32/32 34/34/34
f 19/19/19 34/34/34 35/35/35
f 36/36/36 35/35/35 34/34/34
f 37/37/37 39/39/39 38/38/38
f 38/38/38 39/39/39 40/40/40
f 41/41/41 38/38/38 40/40/40
f 41/41/41 40/40/40 42/42/42
f 40/40/40 43/43/43 42/42/42
f 41/41/41 42/42/42 44/44/44
f 44/44/44 42/42/42 45/45/45
f 44/44/44 45/45/45 46/46/46
f 46/46/46 45/45/45 47/47/47
f 41/41/41 44/44/44 48/48/48
f 49/49/49 41/41/41 48/48/48
f 41/41/41 49/49/49 50/50/50
f 50/50/50 51/51/51 41/41/41
f 52/52/52 48/48/48 44/44/44
f 44/44/44 46/46/46 52/52/52
f 46/46/46 53/53/53 52/52/52
f 53/53/53 46/46/46 54/54/54
f 55/55/55 54/54/54 46/46/46
f 56/56/56 55/55/55 46/46/46
f 47/47/47 56/56/56 46/46/46
f 57/57/57 55/55/55 56/56/56
f 58/58/58 57/57/57 56/56/56
f 58/58/58 59/59/59 57/57/57
f 60/60/60 58/58/58 56/56/56
f 61/61/61 56/56/56 47/47/47
f 61/61/61 47/47/47 62/62/62
f 63/63/63 61/61/61 62/62/62
f 62/62/62 47/47/47 64/64/64
f 47/47/47 65/65/65 64/64/64
f 66/66/66 68/68/68 67/67/67
f 69/69/69 68/68/68 66/66/66
f 69/69/69 70/70/70 68/68/68
f 70/70/70 71/71/71 68/68/68
f 72/72/72 71/71/71 70/70/70
f 73/73/73 70/70/70 69/69/69
f 73/73/73 69/69/69 74/74/74
f 69/69/69 75/75/75 74/74/74
f 74/74/74 75/75/75 76/76/76
f 75/75/75 77/77/77 76/76/76
f 77/77/77 78/78/78 76/76/76
f 74/74/74 76/76/76 79/79/79
f 76/76/76 78/78/78 80/80/80
f 76/76/76 80/80/80 79/79/79
f 80/80/80 81/81/81 79/79/79
f 82/82/82 84/84/84 83/83/83
f 85/85/85 82/82/82 83/83/83
f 85/85/85 83/83/83 86/86/86
f 86/86/86 83/83/83 87/87/87
f 86/86/86 87/87/87 88/88/88
f 86/86/86 88/88/88 89/89/89
f 90/90/90 85/85/85 86/86/86
f 91/91/91 86/86/86 89/89/89
f 90/90/90 86/86/86 91/91/91
f 89/89/89 92/92/92 91/91/91
f 89/89/89 93/93/93 92/92/92
f 94/94/94 93/93/93 89/89/89
f 90/90/90 91/91/91 95/95/95
f 90/90/90 95/95/95 96/96/96
f 85/85/85 90/90/90 97/97/97
f 98/98/98 85/85/85 97/97/97
f 98/98/98 99/99/99 85/85/85
f 97/97/97 90/90/90 100/100/100
f 100/100/100 90/90/90 101/101/101
f 102/102/102 104/104/104 103/103/103
f 102/102/102 103/103/103 105/105/105
f 106/106/106 108/108/108 107/107/107
f 108/108/108 106/106/106 109/109/109
f 109/109/109 106/106/106 110/110/110
f 110/110/110 106/106/106 111/111/111
f 109/109/109 110/110/110 112/112/112
f 113/113/113 109/109/109 112/112/112
f 113/113/113 112/112/112 114/114/114
f 110/110/110 115/115/115 112/112/112
f 110/110/110 111/111/111 115/115/115
f 115/115/115 116/116/116 112/112/112
f 112/112/112 116/116/116 114/114/114
f 111/111/111 117/117/117 115/115/115
f 118/118/118 115/115/115 117/117/117
f 117/117/117 119/119/119 118/118/118
f 117/117/117 120/120/120 119/119/119
f 121/121/121 120/120/120 117/117/117
f 111/111/111 121/121/121 117/117/117
f 122/122/122 121/121/121 111/111/111
f 123/123/123 122/122/122 111/111/111
f 124/124/124 121/121/121 122/122/122
f 125/125/125 122/122/122 123/123/123
f 126/126/126 124/124/124 122/122/122
f 122/122/122 125/125/125 126/126/126
f 127/127/127 126/126/126 125/125/125
f 127/127/127 125/125/125 128/128/128
f 128/128/128 125/125/125 123/123/123
f 129/129/129 128/128/128 123/123/123
f 128/128/128 130/130/130 127/127/127
f 131/131/131 130/130/130 128/128/128
f 128/128/128 129/129/129 132/132/132
f 132/132/132 131/131/131 128/128/128
f 133/133/133 124/124/124 126/126/126
f 133/133/133 126/126/126 127/127/127
f 124/124/124 133/133/133 134/134/134
f 134/134/134 133/133/133 135/135/135
f 135/135/135 133/133/133 127/127/127
f 131/131/131 132/132/132 136/136/136
f 136/136/136 132/132/132 137/137/137
f 138/138/138 135/135/135 127/127/127
f 135/135/135 138/138/138 139/139/139
f 135/135/135 139/139/139 140/140/140
f 127/127/127 141/141/141 138/138/138
f 142/142/142 141/141/141 127/127/127
f 142/142/142 127/127/127 130/130/130
f 130/130/130 143/143/143 142/142/142
f 142/142/142 143/143/143 144/144/144
f 145/145/145 144/144/144 143/143/143
f 130/130/130 145/145/145 143/143/143
f 145/145/145 146/146/146 144/144/144
f 147/147/147 146/146/146 145/145/145
f 148/148/148 147/147/147 145/145/145
f 148/148/148 145/145/145 130/130/130
f 148/148/148 130/130/130 149/149/149
f 149/149/149 130/130/130 150/150/150
f 150/150/150 130/130/130 131/131/131
f 149/149/149 150/150/150 131/131/131
f 151/151/151 149/149/149 131/131/131
f 151/151/151 152/152/152 149/149/149
f 152/152/152 151/151/151 153/153/153
f 153/153/153 151/151/151 154/154/154
f 151/151/151 131/131/131 155/155/155
f 154/154/154 151/151/151 155/155/155
f 131/131/131 136/136/136 155/155/155
f 155/155/155 136/136/136 154/154/154
f 136/136/136 137/137/137 154/154/154
f 154/154/154 137/137/137 156/156/156
f 157/157/157 154/154/154 156/156/156
f 158/158/158 156/156/156 137/137/137
f 157/157/157 156/156/156 158/158/158
f 158/158/158 137/137/137 114/114/114
f 159/159/159 157/157/157 158/158/158
f 160/160/160 157/157/157 159/159/159
f 159/159/159 158/158/158 161/161/161
f 159/159/159 161/161/161 162/162/162
f 161/161/161 158/158/158 163/163/163
f 114/114/114 163/163/163 158/158/158
f 114/114/114 116/116/116 163/163/163
f 163/163/163 116/116/116 164/164/164
f 116/116/116 165/165/165 164/164/164
f 165/165/165 116/116/116 166/166/166
f 165/165/165 166/166/166 167/167/167
f 166/166/166 168/168/168 167/167/167
f 169/169/169 171/171/171 170/170/170
f 171/171/171 169/169/169 172/172/172
f 171/171/171 172/172/172 173/173/173
f 174/174/174 176/176/176 175/175/175
f 176/176/176 177/177/177 175/175/175
f 177/177/177 176/176/176 178/178/178
f 179/179/179 175/175/175 177/177/177
f 179/179/179 177/177/177 180/180/180
f 179/179/179 180/180/180 181/181/181
f 177/177/177 182/182/182 180/180/180
f 183/183/183 182/182/182 177/177/177
f 178/178/178 183/183/183 177/177/177
f 184/184/184 183/183/183 178/178/178
f 184/184/184 185/185/185 183/183/183
f 184/184/184 186/186/186 185/185/185
f 187/187/187 185/185/185 186/186/186
f 188/188/188 187/187/187 186/186/186
f 189/189/189 191/191/191 190/190/190
f 192/192/192 190/190/190 191/191/191
f 192/192/192 193/193/193 190/190/190
f 190/190/190 193/193/193 194/194/194
f 190/190/190 194/194/194 195/195/195
f 196/196/196 190/190/190 195/195/195
f 193/193/193 197/197/197 194/194/194
f 193/193/193 198/198/198 197/197/197
f 198/198/198 193/193/193 199/199/199
f 194/194/194 197/197/197 200/200/200
f 194/194/194 200/200/200 201/201/201
f 202/202/202 201/201/201 200/200/200
f 203/203/203 205/205/205 204/204/204
f 206/206/206 203/203/203 204/204/204
f 203/203/203 206/206/206 207/207/207
f 207/207/207 206/206/206 208/208/208
f 209/209/209 211/211/211 210/210/210
f 210/210/210 211/211/211 212/212/212
f 210/210/210 212/212/212 213/213/213
f 212/212/212 211/211/211 214/214/214
f 210/210/210 213/213/213 215/215/215
f 216/216/216 210/210/210 215/215/215
f 213/213/213 217/217/217 215/215/215
f 214/214/214 211/211/211 218/218/218
f 214/214/214 218/218/218 219/219/219
f 211/211/211 220/220/220 218/218/218
f 221/221/221 219/219/219 218/218/218
f 222/222/222 218/218/218 220/220/220
f 223/223/223 221/221/221 218/218/218
f 222/222/222 223/223/223 218/218/218
f 223/223/223 224/224/224 221/221/221
f 223/223/223 222/222/222 225/225/225
f 226/226/226 228/228/228 227/227/227
f 228/228/228 229/229/229 227/227/227
f 229/229/229 230/230/230 227/227/227
f 227/227/227 230/230/230 231/231/231
f 230/230/230 232/232/232 231/231/231
f 231/231/231 232/232/232 233/233/233
f 234/234/234 236/236/236 235/235/235
f 234/234/234 237/237/237 236/236/236
f 238/238/238 240/240/240 239/239/239
f 238/238/238 239/239/239 241/241/241
f 242/242/242 238/238/238 241/241/241
f 243/243/243 242/242/242 241/241/241
f 243/243/243 244/244/244 242/242/242
f 244/244/244 245/245/245 242/242/242
f 244/244/244 246/246/246 245/245/245
f 246/246/246 242/242/242 245/245/245
f 247/247/247 249/249/249 248/248/248
f 250/250/250 247/247/247 248/248/248
f 248/248/248 251/251/251 250/250/250
f 252/252/252 247/247/247 250/250/250
f 253/253/253 247/247/247 252/252/252
f 254/254/254 253/253/253 252/252/252
f 252/252/252 250/250/250 255/255/255
f 250/250/250 251/251/251 256/256/256
f 250/250/250 257/257/257 255/255/255
f 250/250/250 256/256/256 257/257/257
f 258/258/258 255/255/255 257/257/257
f 259/259/259 255/255/255 258/258/258
f 260/260/260 257/257/257 256/256/256
f 256/256/256 251/251/251 261/261/261
f 251/251/251 262/262/262 261/261/261
f 261/261/261 262/262/262 256/256/256
f 256/256/256 262/262/262 260/260/260
f 262/262/262 263/263/263 260/260/260
f 264/264/264 266/266/266 265/265/265
f 264/264/264 265/265/265 267/267/267
f 267/267/267 268/268/268 264/264/264
f 269/269/269 264/264/264 268/268/268
f 267/267/267 270/270/270 268/268/268
f 271/271/271 268/268/268 270/270/270
f 272/272/272 271/271/271 270/270/270
f 273/273/273 270/270/270 267/267/267
f 273/273/273 267/267/267 274/274/274
f 275/275/275 274/274/274 267/267/267
f 275/275/275 267/267/267 276/276/276
f 276/276/276 267/267/267 277/277/277
f 267/267/267 278/278/278 277/277/277
f 279/279/279 281/281/281 280/280/280
f 282/282/282 279/279/279 280/280/280
f 279/279/279 282/282/282 283/283/283
f 279/279/279 283/283/283 284/284/284
f 285/285/285 279/279/279 284/284/284
f 286/286/286 279/279/279 285/285/285
f 285/285/285 284/284/284 287/287/287
f 288/288/288 286/286/286 285/285/285
f 289/289/289 288/288/288 285/285/285
f 290/290/290 288/288/288 289/289/289
f 289/289/289 285/285/285 291/291/291
f 285/285/285 287/287/287 292/292/292
f 285/285/285 292/292/292 291/291/291
f 287/287/287 293/293/293 292/292/292
f 291/291/291 292/292/292 294/294/294
f 295/295/295 297/297/297 296/296/296
f 298/298/298 296/296/296 297/297/297
f 299/299/299 298/298/298 297/297/297
f 298/298/298 299/299/299 300/300/300
f 298/298/298 300/300/300 301/301/301
f 298/298/298 301/301/301 302/302/302
f 296/296/296 298/298/298 303/303/303
f 304/304/304 296/296/296 303/303/303
f 305/305/305 304/304/304 303/303/303
f 305/305/305 306/306/306 304/304/304
f 303/303/303 298/298/298 307/307/307
f 303/303/303 307/307/307 308/308/308
f 309/309/309 307/307/307 298/298/298
f 298/298/298 310/310/310 309/309/309
f 311/311/311 313/313/313 312/312/312
f 312/312/312 313/313/313 314/314/314
f 312/312/312 314/314/314 315/315/315
f 313/313/313 316/316/316 314/314/314
f 316/316/316 317/317/317 314/314/314
f 316/316/316 318/318/318 317/317/317
f 318/318/318 319/319/319 317/317/317
f 319/319/319 320/320/320 317/317/317
f 321/321/321 323/323/323 322/322/322
f 324/324/324 323/323/323 321/321/321
f 325/325/325 324/324/324 321/321/321
f 324/324/324 325/325/325 326/326/326
f 324/324/324 326/326/326 323/323/323
f 327/327/327 323/323/323 326/326/326
f 327/327/327 328/328/328 323/323/323
f 329/329/329 328/328/328 327/327/327
f 330/330/330 327/327/327 326/326/326
f 330/330/330 326/326/326 331/331/331
f 327/327/327 332/332/332 329/329/329
f 332/332/332 327/327/327 330/330/330
f 330/330/330 331/331/331 332/332/332
f 332/332/332 333/333/333 329/329/329
f 331/331/331 334/334/334 332/332/332
f 334/334/334 333/333/333 332/332/332
f 334/334/334 331/331/331 335/335/335
f 334/334/334 335/335/335 333/333/333
f 336/336/336 338/338/338 337/337/337
f 337/337/337 339/339/339 336/336/336
f 339/339/339 340/340/340 336/336/336
f 341/341/341 340/340/340 339/339/339
f 341/341/341 339/339/339 342/342/342
f 343/343/343 339/339/339 337/337/337
f 343/343/343 342/342/342 339/339/339
f 343/343/343 337/337/337 344/344/344
f 345/345/345 342/342/342 343/343/343
f 346/346/346 348/348/348 347/347/347
f 347/347/347 349/349/349 346/346/346
f 350/350/350 349/349/349 347/347/347
f 350/350/350 351/351/351 349/349/349
f 352/352/352 349/349/349 351/351/351
f 351/351/351 353/353/353 352/352/352
f 352/352/352 354/354/354 349/349/349
f 355/355/355 357/357/357 356/356/356
f 358/358/358 357/357/357 355/355/355
f 359/359/359 358/358/358 355/355/355
f 358/358/358 360/360/360 357/357/357
f 358/358/358 361/361/361 360/360/360
f 362/362/362 360/360/360 361/361/361
f 363/363/363 365/365/365 364/364/364
f 366/366/366 365/365/365 363/363/363
f 366/366/366 363/363/363 367/367/367
f 366/366/366 368/368/368 365/365/365
f 365/365/365 368/368/368 369/369/369
f 366/366/366 370/370/370 368/368/368
f 371/371/371 370/370/370 366/366/366
f 372/372/372 374/374/374 373/373/373
f 374/374/374 372/372/372 375/375/375
f 375/375/375 372/372/372 376/376/376
f 376/376/376 372/372/372 377/377/377
f 378/378/378 374/374/374 375/375/375
f 378/378/378 379/379/379 374/374/374
f 378/378/378 380/380/380 379/379/379
f 380/380/380 381/381/381 379/379/379
f 382/382/382 381/381/381 380/380/380
f 382/382/382 380/380/380 378/378/378
f 383/383/383 382/382/382 378/378/378
f 384/384/384 386/386/386 385/385/385
f 387/387/387 384/384/384 385/385/385
f 388/388/388 384/384/384 387/387/387
f 388/388/388 387/387/387 389/389/389
f 389/389/389 387/387/387 390/390/390
f 388/388/388 389/389/389 391/391/391
f 391/391/391 389/389/389 392/392/392
f 393/393/393 391/391/391 392/392/392
