mtllib P_CliffClassic3.mtl
v -6.807587 -35.46618 6.304204
v -1.260651 -41.09088 4.427092
v -2.444305 -41.2922 3.158866
v -6.589813 -36.95081 4.169261
v -9.849762 -26.52438 0.7336021
v -8.362274 -28.77376 7.205735
v -3.840424 -30.21299 -6.431956
v -11.4996 -20.74262 2.637811
v -10.35825 -20.20379 5.466569
v -12.23325 -13.70735 5.255953
v -15.85068 -10.61269 0.5983698
v -16.15579 -4.620008 3.634497
v -12.32407 -21.14224 -4.202874
v -18.13766 -4.434965 -1.725732
v -19.34427 2.769526 4.253171
v -4.370453 -25.62756 -10.31077
v 0.06155396 -25.02064 -9.732301
v 3.114655 -34.6139 -1.012833
v 5.846405 -36.62923 3.266266
v 11.47269 -26.76887 -3.065586
v 9.078705 -33.41462 3.803848
v 12.66489 -28.30433 4.714077
v -16.30283 -6.267662 -14.03687
v -20.61227 3.836036 -16.23287
v -4.322174 -21.36213 -15.65059
v -6.918915 -14.95372 -18.61426
v 13.80991 -20.07701 -2.354656
v 20.01749 -8.749816 2.696644
v 20.73929 -3.828125 -9.871558
v 16.62173 -19.63069 7.573672
v 21.65384 -1.276743 -13.65979
v 12.44852 -23.645 -6.53896
v 5.993378 -13.94283 -18.36224
v 22.01022 -5.736145 10.84597
v 25.6312 5.082395 4.136785
v 24.25332 1.558263 9.915124
v 26.14187 7.586947 10.03654
v 14.84378 -14.76965 -2.433046
v 16.57248 -6.062649 -2.436296
v 21.74411 3.055979 -1.663271
v 22.50149 4.745959 -2.076521
v 26.40036 16.13278 3.397013
v 26.07211 16.56536 11.80752
v 25.5281 13.97955 -0.03489661
v 25.03006 16.92841 0.2348093
v 26.65689 16.82325 -3.176603
v 25.48776 5.584525 -6.693394
v 25.42905 6.493023 -9.33081
v 25.69583 15.29035 -10.5552
v 19.13614 9.664615 -20.50378
v 22.69607 16.01377 -15.51278
v 15.92612 16.66706 -20.8284
v 12.43094 13.41737 -24.25996
v 11.49661 16.90401 -22.63155
v 7.400238 16.09966 -23.67556
v 7.799957 11.32612 -23.98503
v 4.499298 13.8563 -25.67508
v 10.32108 7.087085 -23.96688
v 18.62234 -1.291143 -18.13345
v 0.8502502 13.77371 -27.97265
v 0.4533997 16.52099 -27.52176
v -8.168304 16.18341 -27.39971
v -2.099701 9.531861 -28.80978
v -9.607269 11.8133 -28.40155
v -10.65695 15.53471 -27.53249
v -14.18973 13.99899 -26.65349
v 11.69778 -12.72884 -17.77978
v 9.532562 -5.124393 -20.08273
v 7.265839 6.233356 -23.25108
v -3.100922 3.593246 -27.86897
v -3.5784 -7.512472 -22.73485
v -7.256805 0.8290567 -26.8166
v -14.83237 4.453567 -23.16301
v 14.27292 -17.1371 -11.3567
v 7.003571 -4.918121 -19.33042
v 3.647247 -13.50873 -17.35415
v -17.86606 13.44048 -23.20043
v -16.55759 15.10941 -23.95235
v -18.41263 15.5216 -20.72816
v -4.968109 -7.180274 -22.56353
v 2.656097 -18.54007 -14.27431
v -3.55423 -18.2324 -18.12413
v -4.190643 -14.04009 -20.75147
v -4.043793 -11.33067 -21.4934
v -16.78659 -1.182292 -17.29188
v -13.64255 1.409731 -19.94283
v -17.19504 5.046685 -19.1264
v -18.46585 10.29325 -19.3822
v -21.81155 11.57778 -16.12147
v -22.18289 15.46975 -16.8073
v -23.22146 15.96752 -12.42748
v -22.02969 9.99389 -5.10316
v -23.324 14.18132 -4.435481
v -23.66306 16.78422 -3.865624
v -23.60196 15.66944 3.395966
v -23.43906 12.17817 4.527243
v -22.16409 9.018052 1.685238
v -21.64212 8.905704 4.707196
v -14.18973 13.99899 -26.65349
v -10.65695 15.53471 -27.53249
v -16.55759 15.10941 -23.95235
v -8.168304 16.18341 -27.39971
v -18.41263 15.5216 -20.72816
v -12.51907 17.8966 -18.99447
v -20.26889 17.36812 -15.19997
v -22.18289 15.46975 -16.8073
v -23.22146 15.96752 -12.42748
v -22.75101 17.39377 -8.550048
v -23.66306 16.78422 -3.865624
v -14.9075 17.84274 -3.879966
v -22.17203 17.31563 3.417051
v -23.60196 15.66944 3.395966
v -25.70395 16.20698 6.167115
v -16.71445 17.80199 7.55473
v -4.636688 17.86345 -18.73139
v 0.4533997 16.52099 -27.52176
v -5.822968 17.85732 -1.671712
v -4.397247 17.86099 15.43875
v -26.93143 16.75246 12.28197
v -28.46701 13.9154 10.26727
v -28.53628 14.52604 12.79591
v -25.91635 16.06585 17.59217
v -0.7259827 17.80652 -11.80847
v 8.720184 17.80726 -18.28558
v 4.867157 17.17319 -22.90699
v 4.499298 13.8563 -25.67508
v 7.400238 16.09966 -23.67556
v 11.49661 16.90401 -22.63155
v 15.92612 16.66706 -20.8284
v 9.232941 17.74236 -3.557816
v -18.16092 16.62995 22.40077
v -18.86649 14.1552 26.44857
v -11.29428 16.64713 25.88203
v 23.91696 17.12934 -12.44148
v 22.69607 16.01377 -15.51278
v 25.69583 15.29035 -10.5552
v 24.44595 17.49481 -8.212258
v 26.65689 16.82325 -3.176603
v 25.03006 16.92841 0.2348093
v 17.35617 17.71511 3.091301
v 25.40402 17.04786 13.09762
v 26.40036 16.13278 3.397013
v 26.07211 16.56536 11.80752
v 25.53238 14.96603 14.77041
v 21.60538 15.92354 22.55755
v 9.488068 17.99267 13.82402
v 15.06534 16.93964 25.24148
v 19.04599 16.10243 25.17241
v 16.09012 15.46948 26.97556
v 9.336151 16.79211 27.79542
v 2.309296 16.90639 26.60193
v 3.722565 16.31633 27.76382
v -2.895844 16.1479 25.75511
v -5.66037 16.92192 22.00568
v -7.11557 16.24179 26.81323
v -17.41177 17.15838 14.61673
v -23.60196 15.66944 3.395966
v -25.70395 16.20698 6.167115
v -23.43906 12.17817 4.527243
v -25.31198 11.68363 6.340119
v -28.46701 13.9154 10.26727
v -21.64212 8.905704 4.707196
v -27.37539 8.865474 12.11079
v -28.53628 14.52604 12.79591
v -23.1506 3.687819 7.497307
v -19.34427 2.769526 4.253171
v -16.15579 -4.620008 3.634497
v -26.43472 6.347968 13.07887
v -25.91635 16.06585 17.59217
v -25.23623 3.364402 11.94393
v -17.82767 -6.051216 5.457815
v -12.23325 -13.70735 5.255953
v -21.74692 -2.119659 11.8471
v -13.26077 -13.97221 7.133825
v -10.35825 -20.20379 5.466569
v -8.362274 -28.77376 7.205735
v -9.139313 -29.32872 9.852747
v -6.807587 -35.46618 6.304204
v -18.686 10.52411 27.0462
v -18.86649 14.1552 26.44857
v -7.224457 14.10453 27.20219
v -11.29428 16.64713 25.88203
v -7.11557 16.24179 26.81323
v -2.895844 16.1479 25.75511
v -14.33646 -13.07699 11.42117
v -5.04361 -35.04772 7.786747
v -1.260651 -41.09088 4.427092
v -0.5860291 8.869941 26.15343
v 3.722565 16.31633 27.76382
v -9.609467 -12.70166 18.5213
v -8.160675 -23.62619 14.2565
v -7.14035 -27.7086 12.50071
v 1.670746 -28.26384 8.622683
v -3.389374 -16.66316 15.08483
v -17.73117 1.807038 20.2615
v -18.25955 4.221856 24.43357
v -16.43869 5.515538 27.51755
v -14.57797 1.63892 25.87398
v -12.50613 -2.097479 23.31939
v 1.350677 -11.66068 16.6256
v -11.00821 1.926845 26.64178
v -6.84848 5.184916 27.72733
v 0.2528381 -2.653414 20.29329
v 1.928436 -9.960832 16.38922
v 2.116364 -19.1613 12.32516
v -3.11734 6.605921 27.36575
v 3.632294 -20.3128 10.49706
v 1.365753 -2.10654 19.6986
v -0.3730164 6.85005 25.44565
v 3.080719 8.635329 26.75332
v 2.739899 -2.134093 20.06931
v 13.26212 -2.235337 16.73975
v 15.27774 8.929816 24.495
v 11.73776 11.86436 27.65585
v 9.336151 16.79211 27.79542
v 16.09012 15.46948 26.97556
v 19.04599 16.10243 25.17241
v 12.08194 -12.26863 13.37841
v 22.71914 7.319079 16.58364
v 21.60538 15.92354 22.55755
v 26.14187 7.586947 10.03654
v 25.53238 14.96603 14.77041
v 26.07211 16.56536 11.80752
v 24.25332 1.558263 9.915124
v 22.4617 2.388297 13.25183
v 22.01022 -5.736145 10.84597
v 15.03934 -1.6437 16.63593
v 14.48642 -12.31711 13.08109
v 16.62173 -19.63069 7.573672
v 14.99368 -21.03651 8.128335
v 12.66489 -28.30433 4.714077
v 2.894379 -29.4992 7.119591
v 9.078705 -33.41462 3.803848
v 5.846405 -36.62923 3.266266
v -2.444305 -41.2922 3.158866
vn -0.7537477 -0.5101212 0.4142955
vn 0.1903053 -0.8747961 0.4455509
vn -0.246431 -0.9489279 -0.1969967
vn -0.8182505 -0.5733966 -0.04101843
vn -0.903614 -0.4084606 -0.1290027
vn -0.9614791 -0.2517287 -0.1104108
vn -0.3407952 -0.6243927 -0.7028459
vn -0.9243048 -0.2778606 0.2616372
vn -0.9666868 -0.2559468 0.002782389
vn -0.9263663 -0.3736503 -0.04723338
vn -0.9268455 -0.304448 0.2197018
vn -0.9124513 -0.3551135 -0.2032905
vn -0.8500286 -0.4834063 -0.2092124
vn -0.9380594 -0.3341366 0.09163619
vn -0.9019012 -0.3226156 -0.2872169
vn -0.3274366 -0.6974714 -0.6374316
vn 0.2497782 -0.6600279 -0.7085013
vn 0.3345911 -0.6444776 -0.68753
vn 0.5955245 -0.781078 0.1877971
vn 0.6980231 -0.5708069 -0.4323693
vn 0.6643196 -0.6523299 0.3648907
vn 0.7534029 -0.550876 0.3590538
vn -0.8253789 -0.433118 -0.362158
vn -0.8619172 -0.2722976 -0.4277299
vn -0.2113062 -0.6958177 -0.6864309
vn -0.5797192 -0.4581066 -0.6738427
vn 0.9407626 -0.3295463 -0.07978117
vn 0.881602 -0.3136068 -0.3527444
vn 0.9082776 -0.3989878 0.1258593
vn 0.8454678 -0.4307176 0.3157001
vn 0.8755662 -0.330881 -0.3519966
vn 0.6363983 -0.6259646 -0.4507387
vn -0.08698041 -0.4129353 -0.9065974
vn 0.8315527 -0.3583207 0.424413
vn 0.9494503 -0.2382924 -0.2043548
vn 0.922389 -0.2812624 0.2647451
vn 0.9641629 -0.1779 0.1968288
vn 0.9775873 -0.1919951 -0.0863773
vn 0.9400508 -0.3195988 -0.1190007
vn 0.8262314 -0.4037818 -0.3928129
vn 0.8979766 -0.4390922 0.02891516
vn 0.9013233 0.4205891 -0.1035435
vn 0.8887517 0.449091 0.09185658
vn 0.9974051 -0.07196725 0.001938482
vn 0.5882905 0.8076089 0.0410134
vn 0.8259251 0.5536796 0.1062381
vn 0.9265114 -0.3460515 0.1477329
vn 0.9407306 -0.1840349 -0.2848808
vn 0.9248142 0.222062 -0.3088806
vn 0.6555917 -0.04057854 -0.7540244
vn 0.7112934 0.3964183 -0.5804432
vn 0.398534 0.7162014 -0.5729104
vn 0.2682717 0.151623 -0.9513363
vn 0.1798372 0.7934495 -0.5814607
vn 0.1212521 0.4768093 -0.8706037
vn 0.1904844 -0.04033971 -0.9808611
vn 0.506645 0.2712916 -0.8183592
vn 0.1035012 -0.1965456 -0.9750166
vn 0.622385 -0.3028357 -0.7217531
vn 0.3061254 0.09110218 -0.9476221
vn 0.1913356 0.6719381 -0.7154648
vn -0.06638989 0.7220474 -0.6886508
vn 0.1696541 -0.06499927 -0.9833578
vn -0.2304966 -0.02390889 -0.9727793
vn -0.235992 0.6170037 -0.7507424
vn -0.5302782 0.1798619 -0.8285256
vn 0.3963664 -0.485754 -0.7790614
vn 0.02437332 -0.2386087 -0.9708099
vn 0.1439418 -0.2547911 -0.9562229
vn 0.1690361 -0.2707314 -0.9476979
vn 0.1215392 -0.3725155 -0.9200329
vn -0.295206 -0.3863765 -0.873823
vn -0.6893792 -0.4179843 -0.5916464
vn 0.655686 -0.5498874 -0.5173972
vn -0.004936782 -0.259734 -0.9656675
vn 0.01097879 -0.3737817 -0.9274517
vn -0.8522649 0.01753061 -0.5228167
vn -0.5412148 0.6605058 -0.5204023
vn -0.6622036 0.5607103 -0.497082
vn -0.3884142 -0.4081241 -0.8261774
vn -0.05088568 -0.5343118 -0.8437545
vn 0.0410603 -0.5771175 -0.8156283
vn -0.0704853 -0.4015847 -0.9131054
vn -0.5199161 -0.2173878 -0.8260931
vn -0.6786373 -0.4183217 -0.6037039
vn -0.63433 -0.4649203 -0.6176363
vn -0.6939737 -0.3145346 -0.6476638
vn -0.8251828 -0.1717352 -0.5381266
vn -0.903378 -0.1741745 -0.3918821
vn -0.8157079 0.3247075 -0.4787334
vn -0.9326141 0.313312 -0.1790711
vn -0.9642536 -0.261289 -0.0440795
vn -0.9780824 -0.2022351 -0.04955689
vn -0.8852601 0.4650887 0.002654126
vn -0.9200519 0.251049 -0.3007973
vn -0.8630311 -0.2756717 -0.4232994
vn -0.9410523 -0.3371002 0.02800301
vn -0.8486403 -0.3846054 -0.3631645
vn -0.5302782 0.1798619 -0.8285256
vn -0.235992 0.6170037 -0.7507424
vn -0.5412148 0.6605058 -0.5204023
vn -0.06638989 0.7220474 -0.6886508
vn -0.6622036 0.5607103 -0.497082
vn -0.1140762 0.9780411 -0.1744196
vn -0.324353 0.9230154 -0.2069724
vn -0.8157079 0.3247075 -0.4787334
vn -0.9326141 0.313312 -0.1790711
vn -0.4973323 0.8647258 -0.07007059
vn -0.8852601 0.4650887 0.002654126
vn -0.03368376 0.9994326 -1.397302E-05
vn -0.3611096 0.932458 -0.01104554
vn -0.9200519 0.251049 -0.3007973
vn -0.69082 0.5704361 -0.4442641
vn -0.06631467 0.9974083 0.02791203
vn -0.0005397708 0.9965318 -0.08321188
vn 0.1913356 0.6719381 -0.7154648
vn 0.00272101 0.9999962 0.0004657
vn -0.02201453 0.9979202 0.06058525
vn -0.5230125 0.8522872 0.008026847
vn -0.9536822 0.08743919 -0.2878273
vn -0.9624291 0.1932569 0.1907405
vn -0.699908 0.541308 0.4659554
vn 0.005615626 0.9999816 0.002273467
vn 0.03979069 0.9954119 -0.08701609
vn 0.1175602 0.9037324 -0.41164
vn 0.506645 0.2712916 -0.8183592
vn 0.1212521 0.4768093 -0.8706037
vn 0.1798372 0.7934495 -0.5814607
vn 0.398534 0.7162014 -0.5729104
vn 0.008965122 0.9999511 -0.004168486
vn -0.1857909 0.9416005 0.2808384
vn -0.4302782 0.4434719 0.7862528
vn -0.06869502 0.823305 0.563427
vn 0.5489547 0.7805222 -0.299055
vn 0.7112934 0.3964183 -0.5804432
vn 0.9248142 0.222062 -0.3088806
vn 0.4021639 0.909331 -0.1066829
vn 0.8259251 0.5536796 0.1062381
vn 0.5882905 0.8076089 0.0410134
vn 0.05171457 0.9986614 0.001052617
vn 0.5675796 0.7969908 0.2065408
vn 0.9013233 0.4205891 -0.1035435
vn 0.8887517 0.449091 0.09185658
vn 0.9267328 0.05836295 0.3711606
vn 0.7067102 0.4065256 0.5790489
vn 0.0197337 0.9991898 0.03507547
vn 0.1373849 0.9416071 0.307411
vn 0.5851809 0.4415999 0.6801124
vn 0.391116 0.2439875 0.8874111
vn 0.04279263 0.6657967 0.7449051
vn -0.1118087 0.9187582 0.3786585
vn -0.137597 0.4117502 0.9008489
vn -0.05404849 0.6649303 0.7449473
vn -0.02680635 0.9890718 0.1449767
vn 0.04927408 0.6657935 0.7445073
vn -0.05927324 0.9955896 0.07271959
vn -0.9200519 0.251049 -0.3007973
vn -0.69082 0.5704361 -0.4442641
vn -0.8630311 -0.2756717 -0.4232994
vn -0.7395904 -0.2303001 -0.6324302
vn -0.9536822 0.08743919 -0.2878273
vn -0.8486403 -0.3846054 -0.3631645
vn -0.9524327 -0.295575 -0.07421193
vn -0.9624291 0.1932569 0.1907405
vn -0.7703159 -0.3177891 -0.5528324
vn -0.9019012 -0.3226156 -0.2872169
vn -0.9124513 -0.3551135 -0.2032905
vn -0.880914 -0.3689494 0.2964233
vn -0.699908 0.541308 0.4659554
vn -0.8754978 -0.4818261 0.03670563
vn -0.7450013 -0.4086257 -0.5272554
vn -0.9263663 -0.3736503 -0.04723338
vn -0.8471635 -0.5102836 0.1480694
vn -0.8568678 -0.403786 -0.3205222
vn -0.9666868 -0.2559468 0.002782389
vn -0.9614791 -0.2517287 -0.1104108
vn -0.8458418 -0.4567382 0.2755755
vn -0.7537477 -0.5101212 0.4142955
vn -0.5121055 -0.03760937 0.8580988
vn -0.4302782 0.4434719 0.7862528
vn 0.06542934 0.157952 0.9852768
vn -0.06869502 0.823305 0.563427
vn 0.04927408 0.6657935 0.7445073
vn -0.05404849 0.6649303 0.7449473
vn -0.8594182 -0.4604008 0.2223318
vn -0.1122495 -0.5390629 0.8347523
vn 0.1903053 -0.8747961 0.4455509
vn 0.08666633 -0.09560888 0.991639
vn -0.137597 0.4117502 0.9008489
vn -0.2863075 -0.4522749 0.8446748
vn -0.2838381 -0.3812591 0.8798167
vn -0.1047918 -0.4732003 0.8747001
vn 0.4618185 -0.3580416 0.8114985
vn 0.2595192 -0.3927558 0.8822656
vn -0.6760468 -0.5888587 0.4429516
vn -0.7143854 -0.5091606 0.4800093
vn -0.3981442 -0.2586348 0.8801075
vn -0.4148201 -0.6081019 0.6768577
vn -0.3040282 -0.5907941 0.7473481
vn 0.5415598 -0.330941 0.7727814
vn 0.02600758 -0.5028806 0.8639645
vn 0.1222482 -0.2573101 0.9585651
vn 0.413944 -0.3836211 0.8255212
vn 0.5086161 -0.3183219 0.7999881
vn 0.468313 -0.359722 0.8070211
vn 0.3299159 -0.1800245 0.9266859
vn 0.3834331 -0.384056 0.8399286
vn 0.1629543 -0.4424365 0.8818706
vn 0.258453 -0.4083381 0.8754782
vn -0.01710757 -0.3585135 0.9333678
vn 0.02706264 -0.4942357 0.8689066
vn 0.2045553 -0.4446837 0.8720169
vn 0.4164487 -0.495616 0.7621911
vn 0.1742641 -0.3117528 0.9340461
vn 0.04279263 0.6657967 0.7449051
vn 0.391116 0.2439875 0.8874111
vn 0.5851809 0.4415999 0.6801124
vn 0.1415874 -0.4102558 0.9009124
vn 0.751177 -0.3450176 0.5627576
vn 0.7067102 0.4065256 0.5790489
vn 0.9641629 -0.1779 0.1968288
vn 0.9267328 0.05836295 0.3711606
vn 0.8887517 0.449091 0.09185658
vn 0.922389 -0.2812624 0.2647451
vn 0.6963555 -0.3653342 0.617754
vn 0.8315527 -0.3583207 0.424413
vn 0.3888288 -0.4347408 0.8122886
vn 0.3221916 -0.3974951 0.85918
vn 0.8454678 -0.4307176 0.3157001
vn 0.4312028 -0.4621786 0.7748904
vn 0.7534029 -0.550876 0.3590538
vn 0.3985669 -0.3711227 0.8386969
vn 0.6643196 -0.6523299 0.3648907
vn 0.5955245 -0.781078 0.1877971
vn -0.246431 -0.9489279 -0.1969967
vt 0.1946259 0.5710263
vt 0.2067588 0.5491726
vt 0.2015894 0.5476366
vt 0.1919634 0.5635586
vt 0.1617537 0.5807937
vt 0.1820278 0.5889013
vt 0.156559 0.5504278
vt 0.1529498 0.5982531
vt 0.1591768 0.6055757
vt 0.14348 0.6196158
vt 0.123674 0.615757
vt 0.1167996 0.6349211
vt 0.1385635 0.5832249
vt 0.1041565 0.6228713
vt 0.09745093 0.6510792
vt 0.1387161 0.5515152
vt 0.139051 0.5381585
vt 0.1778248 0.5291879
vt 0.1915424 0.5190626
vt 0.1553316 0.5011047
vt 0.1851211 0.5058364
vt 0.1754558 0.4883943
vt 0.08737602 0.5902215
vt 0.05925702 0.6038649
vt 0.1194713 0.5496766
vt 0.1017086 0.5560744
vt 0.1425335 0.485341
vt 0.1298127 0.446627
vt 0.09250265 0.4660575
vt 0.1630759 0.461671
vt 0.08009427 0.4686031
vt 0.1408599 0.5010535
vt 0.1011054 0.5196242
vt 0.1397539 0.4218245
vt 0.1001037 0.413644
vt 0.1204942 0.408154
vt 0.1059315 0.394549
vt 0.1312289 0.4741188
vt 0.1140612 0.4569916
vt 0.09456217 0.4346873
vt 0.08970176 0.4316894
vt 0.07106116 0.3936063
vt 0.08723366 0.3717563
vt 0.06905612 0.4070282
vt 0.06196027 0.4000783
vt 0.05482965 0.409784
vt 0.0756711 0.439688
vt 0.06898367 0.4440485
vt 0.04415946 0.4324121
vt 0.04412209 0.4736046
vt 0.03386908 0.4483929
vt 0.01998975 0.4741609
vt 0.02675506 0.4916892
vt 0.01441606 0.4897103
vt 0.0137467 0.5044857
vt 0.02939897 0.5069518
vt 0.01943602 0.5176551
vt 0.04334342 0.501857
vt 0.07370126 0.4820893
vt 0.01792892 0.5309992
vt 0.009124599 0.5308142
vt 0.007888846 0.5590817
vt 0.02958759 0.5411017
vt 0.02250995 0.5631024
vt 0.01066013 0.5673981
vt 0.01686006 0.5793175
vt 0.099254 0.5054507
vt 0.07845321 0.5090457
vt 0.04476049 0.5110437
vt 0.04605361 0.5442949
vt 0.07919883 0.5471983
vt 0.05331283 0.555769
vt 0.04779514 0.5799041
vt 0.1178787 0.497209
vt 0.07774621 0.5161951
vt 0.100552 0.526373
vt 0.02416714 0.5937917
vt 0.01749697 0.5918143
vt 0.02092388 0.6032408
vt 0.07846659 0.5511209
vt 0.1167543 0.529779
vt 0.1094794 0.5471975
vt 0.09709805 0.5483298
vt 0.08989882 0.5482342
vt 0.0701158 0.5897837
vt 0.06027099 0.5806577
vt 0.05194416 0.5928298
vt 0.03743397 0.6002743
vt 0.03914272 0.615133
vt 0.02748188 0.6192211
vt 0.03289755 0.6324536
vt 0.06113388 0.6412972
vt 0.05102291 0.6505538
vt 0.04518308 0.6564952
vt 0.06070336 0.6734609
vt 0.07175904 0.6703287
vt 0.07541861 0.6569478
vt 0.081678 0.6641932
vt 0.7859346 0.06598341
vt 0.784628 0.07757612
vt 0.7954165 0.06028755
vt 0.7851305 0.08521529
vt 0.8052335 0.05512781
vt 0.8108623 0.07368951
vt 0.822656 0.05171026
vt 0.8172618 0.04440625
vt 0.8304293 0.04206087
vt 0.8417205 0.04541136
vt 0.8548543 0.04179282
vt 0.8547873 0.06779265
vt 0.8770347 0.0457464
vt 0.8766661 0.03917943
vt 0.8863491 0.03556095
vt 0.8885603 0.06290098
vt 0.8107618 0.09674095
vt 0.7838909 0.110679
vt 0.8608518 0.09446266
vt 0.9107741 0.09968942
vt 0.9041068 0.03455575
vt 0.8987459 0.02530836
vt 0.9062175 0.02705063
vt 0.9190499 0.03703512
vt 0.8309654 0.1089368
vt 0.8113986 0.1368799
vt 0.7970917 0.1252871
vt 0.7836899 0.1260243
vt 0.7937413 0.1335294
vt 0.7984654 0.1455242
vt 0.8039603 0.1587922
vt 0.8547204 0.1382201
vt 0.9324518 0.05995252
vt 0.9461218 0.05687003
vt 0.9422688 0.08025651
vt 0.8290219 0.1799673
vt 0.8196741 0.1781581
vt 0.8327075 0.1881424
vt 0.8408493 0.1817095
vt 0.8552564 0.1889466
vt 0.8654084 0.1844569
vt 0.8738182 0.1619417
vt 0.9018954 0.1841219
vt 0.8748233 0.1888797
vt 0.8985113 0.1865343
vt 0.9076582 0.1884106
vt 0.9291348 0.1759468
vt 0.9049443 0.1397613
vt 0.9375111 0.1570499
vt 0.9370085 0.1687766
vt 0.9436091 0.1608695
vt 0.9453846 0.1407665
vt 0.9423693 0.1203955
vt 0.9461218 0.1244161
vt 0.9413306 0.1051842
vt 0.9303746 0.09660687
vt 0.9448152 0.09278744
vt 0.9095345 0.06162779
vt 0.8300402 0.697639
vt 0.8196118 0.6954402
vt 0.8269828 0.7083312
vt 0.819105 0.7090684
vt 0.8041744 0.7017266
vt 0.8294497 0.7193208
vt 0.8014855 0.71752
vt 0.7962923 0.7013246
vt 0.81846 0.7334893
vt 0.8323395 0.738892
vt 0.83587 0.762781
vt 0.8000239 0.7254397
vt 0.7789618 0.7024176
vt 0.8045638 0.7336275
vt 0.827632 0.765076
vt 0.832708 0.7930821
vt 0.8072317 0.7515987
vt 0.8260822 0.7932203
vt 0.8336294 0.8132855
vt 0.8306684 0.8393357
vt 0.8226899 0.840479
vt 0.8323938 0.8597779
vt 0.7563878 0.7319313
vt 0.7520782 0.7227552
vt 0.725266 0.7430005
vt 0.7298686 0.7295358
vt 0.7210861 0.7384397
vt 0.7113949 0.7466609
vt 0.8124291 0.7907577
vt 0.8256007 0.8614197
vt 0.8318452 0.8840396
vt 0.7207929 0.7681251
vt 0.6954548 0.7596189
vt 0.7871119 0.7996365
vt 0.8064903 0.8283712
vt 0.8125002 0.8395702
vt 0.7974734 0.8621149
vt 0.7826725 0.8236177
vt 0.7791712 0.7511799
vt 0.7679178 0.7451616
vt 0.7584777 0.7457397
vt 0.762959 0.7560885
vt 0.7687346 0.768611
vt 0.7625109 0.8216032
vt 0.7553702 0.7616293
vt 0.7411683 0.7623036
vt 0.7446989 0.7988198
vt 0.7573385 0.8204975
vt 0.7769976 0.8422673
vt 0.7311209 0.7665796
vt 0.7764322 0.8499064
vt 0.7412561 0.8009557
vt 0.7246209 0.7736283
vt 0.7124462 0.7756679
vt 0.7378846 0.8033891
vt 0.7170948 0.828723
vt 0.6871164 0.8011484
vt 0.6874221 0.785129
vt 0.6822038 0.7701982
vt 0.6710716 0.7877758
vt 0.6636544 0.7953981
vt 0.7416037 0.8484657
vt 0.6763151 0.8314871
vt 0.6589553 0.805328
vt 0.6670468 0.8516907
vt 0.651421 0.8305072
vt 0.6437442 0.83725
vt 0.6855793 0.8568252
vt 0.6878617 0.8453331
vt 0.7079899 0.8609883
vt 0.7120775 0.8312945
vt 0.7367958 0.853701
vt 0.7491089 0.8781345
vt 0.7553283 0.8762163
vt 0.7760175 0.8890613
vt 0.7977791 0.8688452
vt 0.7943407 0.8921982
vt 0.8079268 0.8921227
vt 0.83587 0.8873357
usemtl MV_RockClassic_Cliff
f 1/1/1 3/3/3 2/2/2
f 4/4/4 3/3/3 1/1/1
f 5/5/5 4/4/4 1/1/1
f 1/1/1 6/6/6 5/5/5
f 3/3/3 4/4/4 7/7/7
f 4/4/4 5/5/5 7/7/7
f 6/6/6 8/8/8 5/5/5
f 8/8/8 6/6/6 9/9/9
f 9/9/9 10/10/10 8/8/8
f 10/10/10 11/11/11 8/8/8
f 11/11/11 10/10/10 12/12/12
f 13/13/13 5/5/5 8/8/8
f 8/8/8 11/11/11 13/13/13
f 12/12/12 14/14/14 11/11/11
f 14/14/14 12/12/12 15/15/15
f 16/16/16 5/5/5 13/13/13
f 7/7/7 5/5/5 16/16/16
f 17/17/17 7/7/7 16/16/16
f 18/18/18 3/3/3 7/7/7
f 17/17/17 18/18/18 7/7/7
f 18/18/18 19/19/19 3/3/3
f 19/19/19 18/18/18 20/20/20
f 18/18/18 17/17/17 20/20/20
f 21/21/21 19/19/19 20/20/20
f 20/20/20 22/22/22 21/21/21
f 23/23/23 13/13/13 11/11/11
f 16/16/16 13/13/13 23/23/23
f 14/14/14 23/23/23 11/11/11
f 24/24/24 23/23/23 14/14/14
f 16/16/16 23/23/23 25/25/25
f 16/16/16 25/25/25 17/17/17
f 23/23/23 24/24/24 26/26/26
f 25/25/25 23/23/23 26/26/26
f 20/20/20 27/27/27 22/22/22
f 27/27/27 28/28/28 22/22/22
f 20/20/20 29/29/29 27/27/27
f 30/30/30 22/22/22 28/28/28
f 20/20/20 31/31/31 29/29/29
f 31/31/31 20/20/20 32/32/32
f 32/32/32 20/20/20 17/17/17
f 32/32/32 17/17/17 33/33/33
f 34/34/34 30/30/30 28/28/28
f 35/35/35 34/34/34 28/28/28
f 36/36/36 34/34/34 35/35/35
f 36/36/36 35/35/35 37/37/37
f 38/38/38 28/28/28 27/27/27
f 38/38/38 27/27/27 29/29/29
f 38/38/38 39/39/39 28/28/28
f 38/38/38 29/29/29 39/39/39
f 28/28/28 39/39/39 40/40/40
f 35/35/35 28/28/28 40/40/40
f 39/39/39 41/41/41 40/40/40
f 39/39/39 29/29/29 41/41/41
f 40/40/40 41/41/41 35/35/35
f 42/42/42 37/37/37 35/35/35
f 42/42/42 43/43/43 37/37/37
f 44/44/44 42/42/42 35/35/35
f 35/35/35 41/41/41 44/44/44
f 42/42/42 44/44/44 45/45/45
f 46/46/46 45/45/45 44/44/44
f 41/41/41 47/47/47 44/44/44
f 41/41/41 29/29/29 47/47/47
f 47/47/47 46/46/46 44/44/44
f 47/47/47 29/29/29 48/48/48
f 46/46/46 47/47/47 48/48/48
f 48/48/48 29/29/29 31/31/31
f 46/46/46 48/48/48 49/49/49
f 48/48/48 31/31/31 49/49/49
f 49/49/49 31/31/31 50/50/50
f 50/50/50 51/51/51 49/49/49
f 51/51/51 50/50/50 52/52/52
f 52/52/52 50/50/50 53/53/53
f 53/53/53 54/54/54 52/52/52
f 54/54/54 53/53/53 55/55/55
f 55/55/55 53/53/53 56/56/56
f 57/57/57 55/55/55 56/56/56
f 50/50/50 58/58/58 53/53/53
f 53/53/53 58/58/58 56/56/56
f 31/31/31 59/59/59 50/50/50
f 59/59/59 58/58/58 50/50/50
f 57/57/57 56/56/56 60/60/60
f 60/60/60 61/61/61 57/57/57
f 61/61/61 60/60/60 62/62/62
f 62/62/62 60/60/60 63/63/63
f 63/63/63 60/60/60 56/56/56
f 62/62/62 63/63/63 64/64/64
f 62/62/62 64/64/64 65/65/65
f 66/66/66 65/65/65 64/64/64
f 31/31/31 67/67/67 59/59/59
f 59/59/59 68/68/68 58/58/58
f 59/59/59 67/67/67 68/68/68
f 69/69/69 56/56/56 58/58/58
f 58/58/58 68/68/68 69/69/69
f 70/70/70 63/63/63 56/56/56
f 69/69/69 70/70/70 56/56/56
f 70/70/70 69/69/69 71/71/71
f 63/63/63 70/70/70 72/72/72
f 64/64/64 63/63/63 72/72/72
f 72/72/72 70/70/70 71/71/71
f 66/66/66 64/64/64 73/73/73
f 64/64/64 72/72/72 73/73/73
f 67/67/67 31/31/31 74/74/74
f 74/74/74 31/31/31 32/32/32
f 74/74/74 32/32/32 33/33/33
f 74/74/74 33/33/33 67/67/67
f 67/67/67 33/33/33 68/68/68
f 68/68/68 75/75/75 69/69/69
f 75/75/75 71/71/71 69/69/69
f 75/75/75 68/68/68 33/33/33
f 75/75/75 33/33/33 76/76/76
f 76/76/76 71/71/71 75/75/75
f 66/66/66 73/73/73 77/77/77
f 77/77/77 78/78/78 66/66/66
f 79/79/79 78/78/78 77/77/77
f 72/72/72 71/71/71 80/80/80
f 80/80/80 73/73/73 72/72/72
f 76/76/76 33/33/33 81/81/81
f 33/33/33 17/17/17 81/81/81
f 81/81/81 17/17/17 25/25/25
f 25/25/25 82/82/82 81/81/81
f 82/82/82 76/76/76 81/81/81
f 26/26/26 82/82/82 25/25/25
f 76/76/76 82/82/82 83/83/83
f 71/71/71 76/76/76 83/83/83
f 26/26/26 83/83/83 82/82/82
f 71/71/71 83/83/83 84/84/84
f 80/80/80 71/71/71 84/84/84
f 26/26/26 85/85/85 83/83/83
f 85/85/85 84/84/84 83/83/83
f 85/85/85 80/80/80 84/84/84
f 24/24/24 85/85/85 26/26/26
f 80/80/80 86/86/86 73/73/73
f 85/85/85 86/86/86 80/80/80
f 73/73/73 86/86/86 87/87/87
f 85/85/85 87/87/87 86/86/86
f 24/24/24 87/87/87 85/85/85
f 73/73/73 87/87/87 77/77/77
f 88/88/88 77/77/77 87/87/87
f 24/24/24 88/88/88 87/87/87
f 88/88/88 79/79/79 77/77/77
f 79/79/79 88/88/88 89/89/89
f 24/24/24 89/89/89 88/88/88
f 89/89/89 90/90/90 79/79/79
f 91/91/91 90/90/90 89/89/89
f 24/24/24 92/92/92 89/89/89
f 91/91/91 89/89/89 92/92/92
f 24/24/24 14/14/14 92/92/92
f 92/92/92 93/93/93 91/91/91
f 93/93/93 94/94/94 91/91/91
f 95/95/95 94/94/94 93/93/93
f 93/93/93 96/96/96 95/95/95
f 92/92/92 14/14/14 97/97/97
f 97/97/97 93/93/93 92/92/92
f 93/93/93 97/97/97 96/96/96
f 97/97/97 14/14/14 15/15/15
f 97/97/97 98/98/98 96/96/96
f 15/15/15 98/98/98 97/97/97
f 99/99/99 101/101/101 100/100/100
f 102/102/102 100/100/100 101/101/101
f 103/103/103 102/102/102 101/101/101
f 103/103/103 104/104/104 102/102/102
f 104/104/104 103/103/103 105/105/105
f 106/106/106 105/105/105 103/103/103
f 106/106/106 107/107/107 105/105/105
f 105/105/105 107/107/107 108/108/108
f 107/107/107 109/109/109 108/108/108
f 108/108/108 110/110/110 105/105/105
f 104/104/104 105/105/105 110/110/110
f 108/108/108 109/109/109 111/111/111
f 108/108/108 111/111/111 110/110/110
f 112/112/112 111/111/111 109/109/109
f 112/112/112 113/113/113 111/111/111
f 110/110/110 111/111/111 114/114/114
f 114/114/114 111/111/111 113/113/113
f 102/102/102 104/104/104 115/115/115
f 115/115/115 116/116/116 102/102/102
f 104/104/104 110/110/110 117/117/117
f 117/117/117 110/110/110 114/114/114
f 117/117/117 114/114/114 118/118/118
f 114/114/114 113/113/113 119/119/119
f 113/113/113 120/120/120 119/119/119
f 121/121/121 119/119/119 120/120/120
f 122/122/122 119/119/119 121/121/121
f 117/117/117 123/123/123 104/104/104
f 104/104/104 123/123/123 115/115/115
f 115/115/115 123/123/123 124/124/124
f 116/116/116 115/115/115 125/125/125
f 125/125/125 115/115/115 124/124/124
f 125/125/125 126/126/126 116/116/116
f 127/127/127 126/126/126 125/125/125
f 125/125/125 128/128/128 127/127/127
f 128/128/128 125/125/125 124/124/124
f 129/129/129 128/128/128 124/124/124
f 130/130/130 123/123/123 117/117/117
f 124/124/124 123/123/123 130/130/130
f 117/117/117 118/118/118 130/130/130
f 122/122/122 131/131/131 119/119/119
f 131/131/131 122/122/122 132/132/132
f 133/133/133 131/131/131 132/132/132
f 129/129/129 124/124/124 134/134/134
f 129/129/129 134/134/134 135/135/135
f 136/136/136 135/135/135 134/134/134
f 124/124/124 137/137/137 134/134/134
f 137/137/137 136/136/136 134/134/134
f 130/130/130 137/137/137 124/124/124
f 137/137/137 138/138/138 136/136/136
f 137/137/137 139/139/139 138/138/138
f 137/137/137 130/130/130 140/140/140
f 140/140/140 139/139/139 137/137/137
f 139/139/139 140/140/140 141/141/141
f 142/142/142 139/139/139 141/141/141
f 141/141/141 143/143/143 142/142/142
f 143/143/143 141/141/141 144/144/144
f 144/144/144 141/141/141 145/145/145
f 140/140/140 130/130/130 146/146/146
f 146/146/146 141/141/141 140/140/140
f 118/118/118 146/146/146 130/130/130
f 145/145/145 141/141/141 147/147/147
f 146/146/146 147/147/147 141/141/141
f 148/148/148 145/145/145 147/147/147
f 149/149/149 148/148/148 147/147/147
f 147/147/147 150/150/150 149/149/149
f 151/151/151 147/147/147 146/146/146
f 151/151/151 150/150/150 147/147/147
f 151/151/151 146/146/146 118/118/118
f 150/150/150 151/151/151 152/152/152
f 153/153/153 152/152/152 151/151/151
f 151/151/151 154/154/154 153/153/153
f 118/118/118 154/154/154 151/151/151
f 153/153/153 154/154/154 155/155/155
f 154/154/154 133/133/133 155/155/155
f 133/133/133 154/154/154 131/131/131
f 118/118/118 131/131/131 154/154/154
f 118/118/118 156/156/156 131/131/131
f 114/114/114 156/156/156 118/118/118
f 131/131/131 156/156/156 119/119/119
f 119/119/119 156/156/156 114/114/114
f 157/157/157 159/159/159 158/158/158
f 158/158/158 159/159/159 160/160/160
f 158/158/158 160/160/160 161/161/161
f 160/160/160 159/159/159 162/162/162
f 160/160/160 163/163/163 161/161/161
f 164/164/164 161/161/161 163/163/163
f 165/165/165 160/160/160 162/162/162
f 165/165/165 162/162/162 166/166/166
f 165/165/165 166/166/166 167/167/167
f 168/168/168 164/164/164 163/163/163
f 169/169/169 164/164/164 168/168/168
f 170/170/170 163/163/163 160/160/160
f 170/170/170 160/160/160 165/165/165
f 163/163/163 170/170/170 168/168/168
f 167/167/167 171/171/171 165/165/165
f 172/172/172 171/171/171 167/167/167
f 173/173/173 170/170/170 165/165/165
f 165/165/165 171/171/171 173/173/173
f 172/172/172 174/174/174 171/171/171
f 174/174/174 173/173/173 171/171/171
f 172/172/172 175/175/175 174/174/174
f 176/176/176 174/174/174 175/175/175
f 174/174/174 176/176/176 177/177/177
f 176/176/176 178/178/178 177/177/177
f 168/168/168 179/179/179 169/169/169
f 179/179/179 180/180/180 169/169/169
f 179/179/179 181/181/181 180/180/180
f 180/180/180 181/181/181 182/182/182
f 181/181/181 183/183/183 182/182/182
f 184/184/184 183/183/183 181/181/181
f 174/174/174 185/185/185 173/173/173
f 185/185/185 174/174/174 177/177/177
f 186/186/186 177/177/177 178/178/178
f 186/186/186 178/178/178 187/187/187
f 188/188/188 184/184/184 181/181/181
f 188/188/188 189/189/189 184/184/184
f 173/173/173 185/185/185 190/190/190
f 177/177/177 191/191/191 185/185/185
f 185/185/185 191/191/191 190/190/190
f 177/177/177 186/186/186 192/192/192
f 177/177/177 192/192/192 191/191/191
f 186/186/186 193/193/193 192/192/192
f 186/186/186 187/187/187 193/193/193
f 191/191/191 192/192/192 194/194/194
f 194/194/194 190/190/190 191/191/191
f 192/192/192 193/193/193 194/194/194
f 195/195/195 173/173/173 190/190/190
f 170/170/170 173/173/173 195/195/195
f 168/168/168 170/170/170 195/195/195
f 196/196/196 168/168/168 195/195/195
f 168/168/168 196/196/196 179/179/179
f 197/197/197 179/179/179 196/196/196
f 197/197/197 181/181/181 179/179/179
f 195/195/195 198/198/198 196/196/196
f 197/197/197 196/196/196 198/198/198
f 190/190/190 199/199/199 195/195/195
f 195/195/195 199/199/199 198/198/198
f 194/194/194 200/200/200 190/190/190
f 199/199/199 190/190/190 200/200/200
f 198/198/198 201/201/201 197/197/197
f 199/199/199 201/201/201 198/198/198
f 197/197/197 202/202/202 181/181/181
f 202/202/202 197/197/197 201/201/201
f 201/201/201 199/199/199 203/203/203
f 203/203/203 202/202/202 201/201/201
f 200/200/200 203/203/203 199/199/199
f 200/200/200 204/204/204 203/203/203
f 200/200/200 194/194/194 205/205/205
f 204/204/204 200/200/200 205/205/205
f 205/205/205 194/194/194 193/193/193
f 206/206/206 181/181/181 202/202/202
f 203/203/203 206/206/206 202/202/202
f 188/188/188 181/181/181 206/206/206
f 193/193/193 207/207/207 205/205/205
f 205/205/205 207/207/207 204/204/204
f 208/208/208 206/206/206 203/203/203
f 204/204/204 208/208/208 203/203/203
f 188/188/188 206/206/206 209/209/209
f 209/209/209 206/206/206 208/208/208
f 188/188/188 209/209/209 210/210/210
f 210/210/210 189/189/189 188/188/188
f 208/208/208 211/211/211 209/209/209
f 208/208/208 204/204/204 211/211/211
f 210/210/210 209/209/209 211/211/211
f 211/211/211 204/204/204 212/212/212
f 211/211/211 212/212/212 210/210/210
f 212/212/212 213/213/213 210/210/210
f 210/210/210 214/214/214 189/189/189
f 214/214/214 210/210/210 213/213/213
f 214/214/214 215/215/215 189/189/189
f 215/215/215 214/214/214 216/216/216
f 216/216/216 214/214/214 213/213/213
f 213/213/213 217/217/217 216/216/216
f 207/207/207 218/218/218 204/204/204
f 204/204/204 218/218/218 212/212/212
f 219/219/219 217/217/217 213/213/213
f 220/220/220 217/217/217 219/219/219
f 219/219/219 221/221/221 220/220/220
f 220/220/220 221/221/221 222/222/222
f 223/223/223 222/222/222 221/221/221
f 221/221/221 219/219/219 224/224/224
f 224/224/224 219/219/219 225/225/225
f 213/213/213 225/225/225 219/219/219
f 225/225/225 226/226/226 224/224/224
f 227/227/227 225/225/225 213/213/213
f 212/212/212 227/227/227 213/213/213
f 226/226/226 225/225/225 227/227/227
f 227/227/227 212/212/212 228/228/228
f 228/228/228 226/226/226 227/227/227
f 218/218/218 228/228/228 212/212/212
f 229/229/229 226/226/226 228/228/228
f 228/228/228 218/218/218 230/230/230
f 229/229/229 228/228/228 230/230/230
f 218/218/218 207/207/207 230/230/230
f 229/229/229 230/230/230 231/231/231
f 207/207/207 232/232/232 230/230/230
f 232/232/232 231/231/231 230/230/230
f 232/232/232 207/207/207 193/193/193
f 232/232/232 233/233/233 231/231/231
f 187/187/187 232/232/232 193/193/193
f 232/232/232 234/234/234 233/233/233
f 232/232/232 187/187/187 234/234/234
f 234/234/234 187/187/187 235/235/235
