mtllib P_CliffClassic4.mtl
v -14.39325 16.23933 23.69097
v -11.09009 16.39003 22.0438
v -10.04462 14.12709 22.54972
v -12.73755 10.7349 23.38566
v -11.66516 -0.7382278 19.78753
v -7.082397 3.901656 19.57653
v -5.453125 -8.537363 15.26923
v -13.89001 10.4643 23.30102
v -16.02966 0.1784468 18.673
v -17.55615 -6.376454 15.10017
v -10.22278 -12.88218 15.95867
v -19.1366 14.64536 21.17323
v -21.46112 15.89844 19.42867
v -17.06647 6.691171 21.76232
v -8.899048 -15.4598 15.14665
v -6.32843 -14.40413 13.67984
v -6.732117 -23.25418 9.846438
v -8.73407 -21.34254 12.26485
v -7.132141 -31.59601 6.183636
v -5.74408 -31.07491 5.803437
v -5.610046 -34.48515 2.718121
v -20.88208 6.28422 19.37618
v -20.39087 9.739713 20.28364
v -25.14966 5.162818 10.79558
v -24.7077 16.57148 12.17083
v -22.7597 -3.036218 9.594688
v -19.41858 -9.477963 8.743911
v -6.29071 -35.08974 2.427946
v -3.464294 -36.15304 1.479395
v -5.400452 -39.95958 0.05310377
v -9.339783 -30.34517 -2.990657
v -25.59302 13.70752 10.07676
v -22.87891 7.55582 3.653529
v -25.4024 16.3096 9.345206
v -25.10406 16.86509 4.470855
v -24.3537 16.83245 2.213555
v -21.50763 17.55511 -1.846875
v -13.22614 -23.23646 2.957341
v -18.64111 -12.04381 -0.02038771
v -7.018677 -36.69693 -2.50886
v -4.610535 -41.27902 -0.6678215
v -2.284058 -38.46387 -2.406277
v -19.64771 7.551981 -0.885275
v -21.95087 17.21936 -4.907373
v -9.294434 -30.1768 -3.425323
v -5.118408 -35.1388 -3.059465
v 0.2753906 -32.32257 -6.159961
v -3.309448 -27.32895 -6.305122
v 1.157227 -27.60798 -8.025004
v 1.664795 -19.45383 -11.64692
v -6.493774 -31.57385 -4.587756
v -11.00122 -25.80907 -3.797036
v -13.73694 -20.33866 -6.876224
v -10.16034 -24.27923 -7.373839
v -1.773682 -15.88709 -13.99337
v 3.40033 -13.18871 -16.33159
v -5.273621 -15.43107 -11.54819
v -8.873901 -8.392166 -14.22975
v -13.97162 -14.8559 -10.5201
v 0.9354248 -7.873693 -18.6267
v 5.914917 -2.759153 -22.62462
v 1.921082 -1.410675 -21.94667
v 6.842041 0.7793893 -23.68197
v 8.464966 4.848584 -25.03633
v -18.34912 -10.15152 -9.540556
v -20.3786 -4.700375 -9.761831
v -4.861511 -10.02636 -17.58667
v -5.96167 -5.814792 -19.73158
v -1.354431 -2.811773 -20.74913
v -3.962158 6.724494 -23.17538
v -9.75415 -0.2767277 -18.26139
v -6.234192 0.7242575 -21.7631
v -20.71173 -4.296327 -9.012051
v -17.24854 7.442122 -18.58652
v -22.37524 6.176981 -13.97703
v -23.85333 8.813514 -8.406322
v -20.8089 -3.091668 -2.137245
v -1.590271 7.593256 -23.46482
v 4.117065 5.940215 -23.38501
v 6.74054 12.75088 -23.40648
v 12.29083 12.70918 -25.64433
v 12.7229 15.49585 -23.56223
v 2.361877 12.90271 -24.1789
v -3.807434 14.8096 -23.33885
v -3.338745 12.9554 -24.67263
v -9.172424 10.28017 -22.95793
v -10.18872 15.03273 -24.54349
v -13.50195 16.25085 -24.69335
v -12.48004 13.41615 -23.58971
v -16.6983 15.42355 -24.08235
v -17.61652 16.48877 -23.92011
v -23.32318 15.91903 -20.48919
v -16.29865 11.7277 -21.88242
v -22.79187 10.81731 -16.22473
v -24.9931 15.72082 -16.82704
v -25.98694 16.26953 -11.8583
v -25.83392 16.48641 -9.652783
v -23.80438 9.075828 -6.75591
v -18.40991 -2.735445 0.8631039
v -21.24048 -3.391369 3.290632
v -20.79291 -4.496243 2.560126
v -8.125854 16.61878 22.00368
v -10.04462 14.12709 22.54972
v -11.09009 16.39003 22.0438
v -6.949707 13.74715 22.20782
v -3.174866 16.55268 21.17896
v -7.082397 3.901656 19.57653
v 4.088745 16.66169 21.64326
v -0.8649292 9.090882 23.83776
v -2.849792 3.701163 22.06463
v -5.453125 -8.537363 15.26923
v 6.470093 10.01972 24.78832
v 10.84723 16.20691 24.16443
v 12.82281 15.9698 24.03338
v 6.081299 6.654513 22.96171
v 14.15381 12.68169 23.33819
v 15.33569 15.42401 22.41962
v 18.09741 14.27164 17.99967
v 12.79309 7.088979 20.21095
v 14.37854 8.378303 19.99142
v 15.28156 0.7050409 15.86886
v 23.44812 11.48365 9.937031
v 18.88953 14.61617 13.99374
v 21.74023 16.34122 6.404761
v 22.52283 2.62651 9.828295
v 20.54248 -2.90728 11.90426
v 6.142639 4.10027 21.88254
v 6.234009 -1.039909 18.88986
v 0.8568115 -2.278028 18.11119
v 6.415833 -10.05009 17.31417
v 14.31873 -1.593079 16.23863
v 15.87079 -7.819856 15.66478
v 1.034912 -18.17539 15.38107
v -6.32843 -14.40413 13.67984
v -6.732117 -23.25418 9.846438
v 16.74677 -10.39615 14.4048
v 18.25549 -16.13851 10.10883
v 14.82196 -17.56802 12.47946
v 17.67737 -19.55856 8.532211
v 11.82605 -17.15972 13.66637
v 13.69336 -21.70196 9.688575
v 15.01947 -27.06861 5.171902
v 5.473694 -20.34719 11.79385
v 2.164673 -26.23896 8.317434
v -3.586182 -33.11141 5.33846
v -5.74408 -31.07491 5.803437
v -5.610046 -34.48515 2.718121
v -3.464294 -36.15304 1.479395
v 7.728088 -23.00824 8.685488
v 13.06055 -28.11118 6.447266
v 11.2608 -33.0641 3.191337
v 10.67273 -28.62067 6.037462
v 10.47052 -32.7513 3.633436
v -2.389404 -33.73153 4.385104
v 9.577026 -31.89773 0.4335133
v 14.24414 -28.16878 -1.217154
v 7.270691 -26.40925 6.166485
v 7.617859 -27.74311 3.583023
v 7.943665 -28.61156 -0.4246835
v 9.530945 -27.54058 -3.041157
v 4.723328 -25.38059 7.685913
v 2.450317 -27.19775 3.634072
v 0.7294312 -29.45281 6.244328
v 1.793091 -28.24609 0.9771718
v 4.852234 -27.50288 1.110482
v 5.962585 -27.33402 -0.6658151
v -0.5740967 -34.19096 1.336547
v 0.2894287 -32.90731 1.276693
v -2.655762 -39.10012 -0.1416832
v -5.400452 -39.95958 0.05310377
v -4.610535 -41.27902 -0.6678215
v -2.284058 -38.46387 -2.406277
v -0.2331543 -35.58535 -2.468411
v 0.2753906 -32.32257 -6.159961
v 4.202881 -27.3545 -4.614139
v 1.157227 -27.60798 -8.025004
v 1.556274 -29.6118 -1.419816
v 3.24823 -21.95124 -10.82862
v 1.664795 -19.45383 -11.64692
v 6.569641 -15.35549 -14.44843
v 3.40033 -13.18871 -16.33159
v 5.914917 -2.759153 -22.62462
v 4.814697 -26.17031 -3.430157
v 6.872803 -21.56326 -7.156713
v 6.886597 -25.95845 -3.388349
v 8.098511 -20.03396 -8.53741
v 12.34741 -24.40327 -5.161221
v 15.55707 -26.1269 -1.987728
v 11.85004 -19.69094 -7.712599
v 11.34015 -12.3265 -14.7049
v 16.6485 -18.26801 -4.683955
v 18.42041 -17.16293 -3.434253
v 13.92578 -6.495665 -17.30306
v 12.91125 -0.6487083 -22.07891
v 16.63757 3.532859 -21.2746
v 7.444092 -0.0442934 -23.354
v 6.842041 0.7793893 -23.68197
v 8.464966 4.848584 -25.03633
v 13.46411 3.034028 -23.42879
v 18.61157 15.52603 -23.54306
v 13.71771 13.28976 -25.49903
v 12.29083 12.70918 -25.64433
v 18.68665 16.4123 -22.85789
v 12.7229 15.49585 -23.56223
v 20.88184 16.4693 -14.03347
v 23.479 16.09114 -6.670694
v 22.52612 16.67187 -0.5130744
v 15.72943 16.94089 -10.88566
v 18.0304 16.69715 -16.75616
v 20.88489 16.58834 -16.74801
v 21.43811 15.54296 -19.10249
v 18.68665 16.4123 -22.85789
v 13.53168 17.18377 -21.11509
v 12.7229 15.49585 -23.56223
v 12.5694 17.28087 -16.82581
v 4.750122 16.88108 -17.3768
v 5.010559 15.39504 -19.68969
v 6.74054 12.75088 -23.40648
v -4.755005 17.00499 -18.66575
v -3.807434 14.8096 -23.33885
v -13.50195 16.25085 -24.69335
v -17.61652 16.48877 -23.92011
v 3.593323 17.52465 -12.30258
v 8.64209 17.73394 -1.410772
v 16.99335 17.14278 -0.8799017
v 16.17883 17.41427 10.66861
v 17.46936 17.26104 13.23843
v 21.74023 16.34122 6.404761
v 18.88953 14.61617 13.99374
v 12.34064 15.82057 15.04239
v 18.09741 14.27164 17.99967
v 11.90424 17.5294 14.40378
v 12.84503 15.55457 19.22727
v 15.33569 15.42401 22.41962
v 12.82281 15.9698 24.03338
v 10.84723 16.20691 24.16443
v 4.26178 16.9027 17.91522
v 4.088745 16.66169 21.64326
v -3.174866 16.55268 21.17896
v 0.1254883 17.62265 12.64273
v -8.125854 16.61878 22.00368
v 5.359558 17.3347 12.73112
v 11.34155 17.45916 12.0416
v 6.353027 17.6947 6.333793
v -2.141418 17.62215 -0.3541656
v -14.36414 17.58041 0.4100478
v -8.608032 16.95786 14.39177
v -19.82843 17.60479 6.021193
v -14.05554 16.71838 18.36979
v -11.09009 16.39003 22.0438
v -14.39325 16.23933 23.69097
v -21.46112 15.89844 19.42867
v -19.76868 16.78034 14.85176
v -24.7077 16.57148 12.17083
v -25.4024 16.3096 9.345206
v -25.10406 16.86509 4.470855
v -24.3537 16.83245 2.213555
v -21.50763 17.55511 -1.846875
v -14.12866 17.77357 -6.744442
v -21.95087 17.21936 -4.907373
v -20.59998 17.06102 -10.06346
v -25.83392 16.48641 -9.652783
v -17.49194 17.08311 -15.06588
v -23.85815 16.37841 -19.17909
v -23.32318 15.91903 -20.48919
v -24.9931 15.72082 -16.82704
v -25.98694 16.26953 -11.8583
v -24.55402 16.57055 -11.37911
v 15.01947 -27.06861 5.171902
v 14.24414 -28.16878 -1.217154
v 11.2608 -33.0641 3.191337
v 15.55707 -26.1269 -1.987728
v 18.42041 -17.16293 -3.434253
v 17.52637 -19.46688 3.558676
v 17.67737 -19.55856 8.532211
v 20.02429 -6.072613 9.511066
v 18.25549 -16.13851 10.10883
v 20.54248 -2.90728 11.90426
v 22.52283 2.62651 9.828295
v 20.08191 -12.07651 4.893105
v 22.49188 -6.204632 5.299842
v 18.52307 -14.46194 2.245088
v 24.60645 5.972648 2.408331
v 23.44812 11.48365 9.937031
v 20.36371 -4.552825 -0.1076409
v 20.69177 -2.898682 -5.993536
v 13.92578 -6.495665 -17.30306
v 22.27997 6.309336 -10.37758
v 16.63757 3.532859 -21.2746
v 22.34912 5.0465 -4.035678
v 24.01343 12.27911 7.606126
v 21.74023 16.34122 6.404761
v 22.52612 16.67187 -0.5130744
v 24.28845 14.03845 -3.815594
v 23.479 16.09114 -6.670694
v 23.35876 15.47292 -9.246618
v 20.88184 16.4693 -14.03347
v 21.89612 9.340983 -9.738163
v 21.43811 15.54296 -19.10249
v 19.98596 14.76159 -21.83637
v 18.68665 16.4123 -22.85789
v 18.61157 15.52603 -23.54306
vn -0.1066314 0.5934094 0.7978064
vn 0.1008848 0.8128753 0.573634
vn 0.2151842 0.02773968 0.9761794
vn 0.215783 -0.1895922 0.9578583
vn -0.001901813 -0.3115947 0.9502133
vn -0.1031262 -0.2628681 0.9593046
vn 0.06079004 -0.262739 0.96295
vn -0.1602656 -0.2120365 0.9640309
vn -0.3122826 -0.3819308 0.8698324
vn -0.6083856 -0.4151392 0.676407
vn -0.1091679 -0.3296153 0.9377826
vn -0.511756 0.06080164 0.8569766
vn -0.6209091 0.5793717 0.5280155
vn -0.2664078 -0.3040021 0.9146637
vn 0.1539167 -0.379969 0.9121037
vn 0.1418379 -0.3294576 0.9334558
vn 0.1583585 -0.4399864 0.8839313
vn -0.02253057 -0.5015004 0.864864
vn -0.2820437 -0.6681682 0.6884785
vn 0.03778616 -0.5384542 0.8418071
vn 0.02265731 -0.6764462 0.7361435
vn -0.7009941 -0.2436737 0.6702465
vn -0.6259655 -0.06415775 0.7772072
vn -0.9808951 -0.1683047 0.097562
vn -0.6989006 0.6601605 0.2751836
vn -0.9152188 -0.3780287 0.1395309
vn -0.8700326 -0.4400316 0.222296
vn -0.5086499 -0.5611019 0.6530237
vn 0.2122701 -0.5538374 0.8051121
vn -0.5390847 -0.5773779 0.6132067
vn -0.9194124 -0.3861347 -0.07470579
vn -0.9947631 -0.03399513 0.09638884
vn -0.8787811 -0.1618703 -0.4489341
vn -0.7904592 0.6103925 0.05094475
vn -0.7987353 0.5809676 -0.1565203
vn -0.7793826 0.5129492 -0.359786
vn -0.6599845 0.7371252 -0.1451446
vn -0.868866 -0.485598 0.096262
vn -0.9373046 -0.3469713 -0.03272793
vn -0.699396 -0.4598396 -0.547168
vn -0.08150508 -0.9961291 0.03292089
vn 0.4348143 -0.6547667 -0.6182371
vn -0.9937716 -0.1113448 0.004495984
vn -0.6405666 0.7335443 0.2271282
vn -0.7510435 -0.3291635 -0.5723506
vn -0.1147957 -0.3492739 -0.9299622
vn 0.2867953 -0.5064169 -0.8131977
vn -0.2022239 -0.3699911 -0.9067591
vn 0.1813405 -0.4609827 -0.8686833
vn -0.09786324 -0.4977171 -0.8618007
vn -0.2303742 -0.3749444 -0.8979669
vn -0.8298845 -0.4781144 -0.2875732
vn -0.7795307 -0.4929179 -0.3864763
vn -0.4216334 -0.5154895 -0.7459866
vn -0.2790424 -0.5431024 -0.7919439
vn -0.0198022 -0.5298684 -0.8478487
vn -0.3411213 -0.4530477 -0.8236408
vn -0.5042865 -0.4243563 -0.7520751
vn -0.4316294 -0.3750206 -0.8203997
vn -0.112382 -0.4525763 -0.8846157
vn -0.03189396 -0.4034421 -0.9144492
vn -0.2134521 -0.2978627 -0.9304386
vn -0.09156647 -0.2757875 -0.9568474
vn -0.08298229 -0.1319777 -0.9877732
vn -0.7501932 -0.3453814 -0.5638454
vn -0.7650904 -0.3592003 -0.5344266
vn -0.359163 -0.5635868 -0.7438897
vn -0.3895559 -0.4034704 -0.8279238
vn -0.07583289 -0.3460163 -0.9351589
vn -0.1834362 -0.24078 -0.9530877
vn -0.5290101 -0.3388222 -0.7780411
vn -0.4120031 -0.1385115 -0.9005932
vn -0.9519948 -0.2814634 -0.1203501
vn -0.4415571 -0.4367453 -0.7837608
vn -0.8258234 -0.3156951 -0.4672816
vn -0.9680513 -0.2478484 -0.03804987
vn -0.92754 -0.1222397 0.3531669
vn -0.003489475 -0.1786308 -0.98391
vn -0.1822973 -0.03797124 -0.98251
vn -0.1914163 0.4493101 -0.8726283
vn -0.1172476 0.2344115 -0.9650411
vn -0.1733706 0.7310441 -0.6599373
vn 0.155967 0.2872458 -0.9450737
vn 0.1641014 0.784344 -0.5982268
vn 0.02220697 0.1614817 -0.9866258
vn -0.2342307 -0.3669118 -0.9002842
vn 0.03460777 0.01531814 -0.9992836
vn -0.01886276 0.5019809 -0.864673
vn -0.1528544 -0.4412612 -0.8842647
vn -0.2914032 -0.3188323 -0.9019037
vn -0.3340901 0.5683417 -0.7519119
vn -0.6815956 0.1318262 -0.7197564
vn -0.3178135 -0.5315614 -0.785135
vn -0.7606153 -0.4275852 -0.488503
vn -0.9521289 0.0574742 -0.3002453
vn -0.876114 0.4737711 -0.08924792
vn -0.8080927 0.5507746 0.2088865
vn -0.9322639 -0.09820888 0.3481941
vn -0.9910471 -0.01186511 -0.1329844
vn -0.8767048 -0.1720413 -0.449211
vn -0.8792025 -0.07389333 -0.4706832
vn 0.050664 0.7249143 0.6869733
vn 0.2151842 0.02773968 0.9761794
vn 0.1008848 0.8128753 0.573634
vn -0.0008103398 0.01327583 0.9999115
vn 0.00398908 0.8054212 0.5926895
vn -0.1031262 -0.2628681 0.9593046
vn -0.08802085 0.8291746 0.5520162
vn -0.1715028 -0.05166842 0.9838278
vn -0.2522896 -0.328642 0.9101343
vn 0.06079004 -0.262739 0.96295
vn 0.02041198 -0.1382078 0.9901929
vn 0.03451664 0.7337779 0.678512
vn 0.3124485 0.6605909 0.6826388
vn 0.1712626 -0.4261671 0.8882853
vn 0.5523566 -0.2580384 0.7926654
vn 0.6653793 0.5997711 0.4444603
vn 0.7536414 0.4918014 0.436069
vn 0.4047062 -0.4516141 0.7951463
vn 0.6432127 -0.3806162 0.6643861
vn 0.5437645 -0.1383391 0.8277575
vn 0.881434 0.1550716 0.4461243
vn 0.5872217 0.7132872 0.3826121
vn 0.6360722 0.7476391 0.1909137
vn 0.8592252 -0.1032036 0.50108
vn 0.8433344 -0.1217684 0.5234115
vn 0.2174682 -0.4366154 0.8729689
vn 0.1638066 -0.3397903 0.9261263
vn -0.02819211 -0.4019845 0.9152124
vn 0.06431943 -0.2449618 0.9673969
vn 0.3069619 -0.02241012 0.951458
vn 0.438926 -0.1317685 0.8888088
vn 0.01095103 -0.4093629 0.9123059
vn 0.1418379 -0.3294576 0.9334558
vn 0.1583585 -0.4399864 0.8839313
vn 0.5881083 -0.2657111 0.763889
vn 0.8735021 -0.290966 0.3902985
vn 0.4292211 -0.4616545 0.7763017
vn 0.8458707 -0.3994712 0.3534481
vn 0.154879 -0.4818539 0.8624554
vn 0.2669765 -0.5624352 0.7825537
vn 0.8228613 -0.4711442 0.3176828
vn 0.2340154 -0.5932609 0.7702456
vn 0.435753 -0.6973617 0.5690396
vn -0.07722367 -0.6530683 0.7533514
vn 0.03778616 -0.5384542 0.8418071
vn 0.02265731 -0.6764462 0.7361435
vn 0.2122701 -0.5538374 0.8051121
vn 0.09935765 -0.604751 0.7901925
vn 0.3421661 -0.5240799 0.7799119
vn 0.2918765 -0.9487846 0.1208961
vn -0.2746291 -0.5220999 0.8074594
vn -0.4246997 -0.7642902 0.4852738
vn 0.3644508 -0.7146149 0.5970773
vn -0.412359 -0.8064818 -0.4237302
vn 0.6109114 -0.6565059 -0.4424785
vn -0.192896 -0.7623509 0.6177478
vn -0.4779231 -0.8164811 0.323957
vn -0.6275227 -0.7089432 -0.3218926
vn -0.1211401 -0.6711139 -0.7313899
vn 0.2517595 -0.8054247 0.5365707
vn 0.4610359 -0.8624832 0.2087309
vn 0.7081552 -0.5748919 0.4098971
vn 0.7203373 -0.6825618 0.1233842
vn -0.01622915 -0.9977282 0.06538496
vn -0.206046 -0.8909469 -0.4046711
vn 0.7605735 -0.5476213 0.3487676
vn 0.8698235 -0.4932947 0.008213738
vn 0.6263393 -0.5999369 0.4977699
vn -0.5390847 -0.5773779 0.6132067
vn -0.08150508 -0.9961291 0.03292089
vn 0.4348143 -0.6547667 -0.6182371
vn 0.8684659 -0.4921559 -0.05957827
vn 0.2867953 -0.5064169 -0.8131977
vn 0.8288363 -0.5329503 -0.1702774
vn 0.1813405 -0.4609827 -0.8686833
vn 0.8737292 -0.4081981 0.2645216
vn 0.2471265 -0.5310283 -0.8105168
vn -0.09786324 -0.4977171 -0.8618007
vn 0.2432817 -0.6101333 -0.7540235
vn -0.0198022 -0.5298684 -0.8478487
vn -0.03189396 -0.4034421 -0.9144492
vn 0.5497338 -0.794554 -0.2578309
vn 0.3120391 -0.6605479 -0.6828675
vn -0.1335844 -0.7389405 -0.6603954
vn 0.1796186 -0.6649178 -0.7249976
vn 0.3154005 -0.5096414 -0.8004924
vn 0.78365 -0.4729769 -0.4027227
vn 0.4070312 -0.5130782 -0.755696
vn 0.431901 -0.5681784 -0.7004532
vn 0.6365374 -0.4081673 -0.654385
vn 0.913345 -0.3001168 -0.2751923
vn 0.6601979 -0.4457109 -0.6045498
vn 0.3993643 -0.433847 -0.8076416
vn 0.7385633 -0.3280607 -0.5889825
vn 0.1332529 -0.3353034 -0.9326389
vn -0.09156647 -0.2757875 -0.9568474
vn -0.08298229 -0.1319777 -0.9877732
vn 0.3840489 -0.3011553 -0.8728184
vn 0.5027491 0.2479949 -0.8280953
vn 0.1489983 0.241433 -0.9589106
vn -0.1172476 0.2344115 -0.9650411
vn 0.3969854 0.7690411 -0.5009775
vn -0.1733706 0.7310441 -0.6599373
vn 0.6433519 0.7628664 -0.06429052
vn 0.7206166 0.690014 -0.0677674
vn 0.547058 0.8359426 0.0439042
vn 0.0924236 0.9956362 -0.01290393
vn 0.08310027 0.9964873 -0.01036579
vn 0.5387616 0.8423182 -0.01536187
vn 0.9096254 0.3060971 -0.2808668
vn 0.3969854 0.7690411 -0.5009775
vn -0.04577273 0.9567695 -0.2872229
vn -0.1733706 0.7310441 -0.6599373
vn 0.03916343 0.9989399 -0.02419191
vn -0.03814932 0.9524743 -0.3022206
vn -0.0949163 0.8171155 -0.5686064
vn -0.1914163 0.4493101 -0.8726283
vn 0.06769148 0.9701231 -0.2329786
vn 0.1641014 0.784344 -0.5982268
vn -0.01886276 0.5019809 -0.864673
vn -0.3340901 0.5683417 -0.7519119
vn 0.001042429 0.9982338 -0.05939936
vn 0.02960019 0.9995013 -0.01099723
vn 0.07968606 0.9965293 -0.02407371
vn 0.069135 0.9975907 0.005764723
vn 0.3591935 0.7851196 0.5045466
vn 0.6360722 0.7476391 0.1909137
vn 0.5872217 0.7132872 0.3826121
vn 0.1494579 0.8321002 0.5341082
vn 0.7536414 0.4918014 0.436069
vn -0.03575287 0.7889147 0.6134618
vn 0.1847593 0.9822242 -0.03316062
vn 0.6653793 0.5997711 0.4444603
vn 0.3124485 0.6605909 0.6826388
vn 0.03451664 0.7337779 0.678512
vn 0.06794883 0.994687 0.0773361
vn -0.08802085 0.8291746 0.5520162
vn 0.00398908 0.8054212 0.5926895
vn 0.0004629427 0.9978311 0.06582457
vn 0.050664 0.7249143 0.6869733
vn 0.05237167 0.9924278 0.1111054
vn -0.002999655 0.999992 0.00265206
vn 0.00658025 0.999783 0.01976657
vn -0.006541651 0.9999661 -0.005000793
vn 0.001602212 0.999826 0.01858397
vn -0.03276058 0.997865 0.05649855
vn -0.07009904 0.9967536 0.03960333
vn -0.04002554 0.9954438 0.08654199
vn 0.1008848 0.8128753 0.573634
vn -0.1066314 0.5934094 0.7978064
vn -0.6209091 0.5793717 0.5280155
vn -0.08318051 0.9891126 0.1213976
vn -0.6989006 0.6601605 0.2751836
vn -0.7904592 0.6103925 0.05094475
vn -0.7987353 0.5809676 -0.1565203
vn -0.7793826 0.5129492 -0.359786
vn -0.6599845 0.7371252 -0.1451446
vn -0.02245286 0.9994628 -0.02387661
vn -0.6405666 0.7335443 0.2271282
vn -0.09505536 0.9943008 -0.0482734
vn -0.8080927 0.5507746 0.2088865
vn -0.04995903 0.9968966 -0.06083672
vn -0.6227947 0.7162225 -0.3148843
vn -0.6815956 0.1318262 -0.7197564
vn -0.9521289 0.0574742 -0.3002453
vn -0.876114 0.4737711 -0.08924792
vn -0.1421601 0.9887818 -0.04583818
vn 0.8228613 -0.4711442 0.3176828
vn 0.6109114 -0.6565059 -0.4424785
vn 0.2918765 -0.9487846 0.1208961
vn 0.78365 -0.4729769 -0.4027227
vn 0.913345 -0.3001168 -0.2751923
vn 0.9635178 -0.2676198 0.003617929
vn 0.8458707 -0.3994712 0.3534481
vn 0.9376371 -0.2490322 0.2425277
vn 0.8735021 -0.290966 0.3902985
vn 0.8433344 -0.1217684 0.5234115
vn 0.8592252 -0.1032036 0.50108
vn 0.9146247 -0.3766865 0.1468636
vn 0.9527236 -0.2987865 0.05517706
vn 0.9652959 -0.2285514 -0.1263647
vn 0.9893926 -0.1359362 -0.05122001
vn 0.881434 0.1550716 0.4461243
vn 0.9526985 -0.2259411 -0.2032639
vn 0.9499863 -0.2358463 -0.2047013
vn 0.6601979 -0.4457109 -0.6045498
vn 0.9760829 -0.1255697 -0.1774664
vn 0.7385633 -0.3280607 -0.5889825
vn 0.9643424 -0.2001126 -0.1732016
vn 0.9370081 0.2687036 0.2231907
vn 0.6360722 0.7476391 0.1909137
vn 0.547058 0.8359426 0.0439042
vn 0.9866685 0.1500402 -0.06303353
vn 0.7206166 0.690014 -0.0677674
vn 0.917543 0.2547292 -0.3053324
vn 0.6433519 0.7628664 -0.06429052
vn 0.9900727 -0.01731102 -0.1394864
vn 0.9096254 0.3060971 -0.2808668
vn 0.8377488 -0.02886502 -0.5452923
vn 0.3969854 0.7690411 -0.5009775
vn 0.5027491 0.2479949 -0.8280953
vt 0.01518162 0.7787943
vt 0.01151808 0.7899712
vt 0.01839533 0.7943481
vt 0.02984472 0.7878563
vt 0.0618976 0.7990795
vt 0.04650309 0.8099014
vt 0.08407941 0.8226451
vt 0.03144058 0.7848715
vt 0.06311806 0.7859988
vt 0.08400398 0.7847894
vt 0.09730598 0.809007
vt 0.02613183 0.7652958
vt 0.02602272 0.755231
vt 0.04425889 0.779079
vt 0.1046491 0.8134381
vt 0.1025271 0.822096
vt 0.1305472 0.8221901
vt 0.1227899 0.8149447
vt 0.1568286 0.8201252
vt 0.1563245 0.8244514
vt 0.1696229 0.8243818
vt 0.05024096 0.768847
vt 0.0406008 0.7670493
vt 0.06634413 0.7493374
vt 0.03796794 0.733483
vt 0.08532732 0.7621411
vt 0.101616 0.7737537
vt 0.1717581 0.8222693
vt 0.1751172 0.8313635
vt 0.1872292 0.8275802
vt 0.1736792 0.7985437
vt 0.04889562 0.7332046
vt 0.07556733 0.7301056
vt 0.04400485 0.7268328
vt 0.052051 0.7139404
vt 0.05703657 0.708787
vt 0.06681224 0.696973
vt 0.1441141 0.7926029
vt 0.1244869 0.7604297
vt 0.1857153 0.8145185
vt 0.1921582 0.8295713
vt 0.1998918 0.8190711
vt 0.08761292 0.7193657
vt 0.07381435 0.6904354
vt 0.1743923 0.7973452
vt 0.1905678 0.8093492
vt 0.2067252 0.7963225
vt 0.1930499 0.7831254
vt 0.2073984 0.7804122
vt 0.2061864 0.753758
vt 0.1848476 0.7982261
vt 0.1656181 0.7857984
vt 0.1586011 0.7666984
vt 0.1716645 0.7753041
vt 0.1951214 0.7416071
vt 0.2100688 0.729991
vt 0.1828586 0.7452381
vt 0.1698445 0.7246295
vt 0.1577365 0.7477754
vt 0.2013128 0.7136566
vt 0.2145417 0.6933399
vt 0.2018465 0.6919956
vt 0.2155195 0.6820525
vt 0.218292 0.6686805
vt 0.1419775 0.7388555
vt 0.1322069 0.7254389
vt 0.185381 0.7218522
vt 0.1811605 0.7091497
vt 0.1928988 0.6984413
vt 0.179613 0.67119
vt 0.164487 0.6982343
vt 0.177315 0.6906215
vt 0.1295745 0.7257392
vt 0.1376724 0.680268
vt 0.1204711 0.6927009
vt 0.1020673 0.6975052
vt 0.1128521 0.7357992
vt 0.1861872 0.6671661
vt 0.2040362 0.6685711
vt 0.2072478 0.6470872
vt 0.2245082 0.6437014
vt 0.2213673 0.6338905
vt 0.1943336 0.6493605
vt 0.175904 0.6451216
vt 0.1779628 0.6517706
vt 0.1616633 0.6637014
vt 0.156252 0.6487687
vt 0.1455314 0.6469798
vt 0.1500664 0.6555364
vt 0.1368751 0.6515033
vt 0.1335057 0.6491542
vt 0.1154418 0.6568316
vt 0.1392297 0.6637186
vt 0.116635 0.6772771
vt 0.1060548 0.6644406
vt 0.09322029 0.673267
vt 0.08799502 0.6775831
vt 0.09801867 0.7004068
vt 0.1048793 0.742561
vt 0.0986385 0.7506716
vt 0.102468 0.7513876
vt 0.2141509 0.9080737
vt 0.2100889 0.9005808
vt 0.2064119 0.9062886
vt 0.2186879 0.9008118
vt 0.227473 0.9108416
vt 0.2222531 0.8730925
vt 0.2467298 0.9144738
vt 0.2378922 0.8914825
vt 0.234941 0.8760809
vt 0.230747 0.8383569
vt 0.2561825 0.8971258
vt 0.266049 0.9136992
vt 0.2712928 0.9134479
vt 0.2569213 0.8871192
vt 0.2751352 0.9049572
vt 0.2793042 0.9117167
vt 0.2924791 0.9068637
vt 0.2761091 0.8882809
vt 0.2801027 0.892025
vt 0.2873462 0.8693525
vt 0.316787 0.896194
vt 0.3032075 0.9081318
vt 0.3249286 0.9105018
vt 0.3133211 0.8730441
vt 0.3050393 0.8587788
vt 0.2581081 0.8798946
vt 0.2610394 0.8638235
vt 0.2466292 0.8583025
vt 0.2643664 0.8387135
vt 0.2845539 0.8629913
vt 0.2890381 0.8464563
vt 0.2530065 0.8140852
vt 0.2295705 0.8211477
vt 0.2282282 0.7919248
vt 0.2928101 0.8397965
vt 0.302478 0.8237033
vt 0.2914327 0.8201354
vt 0.3036453 0.8137788
vt 0.2827924 0.8202395
vt 0.293166 0.806043
vt 0.3059836 0.7906309
vt 0.2678602 0.8054135
vt 0.2599465 0.7803574
vt 0.2387162 0.7576394
vt 0.2317823 0.7635462
vt 0.2317719 0.7498354
vt 0.2377497 0.7434806
vt 0.2779733 0.7948744
vt 0.3004929 0.7868208
vt 0.3057458 0.7721639
vt 0.2956512 0.7813689
vt 0.3032063 0.7721721
vt 0.2419851 0.7540404
vt 0.3032525 0.7644097
vt 0.3159244 0.7567694
vt 0.2817787 0.7808376
vt 0.286934 0.7707946
vt 0.2944095 0.7572761
vt 0.301793 0.7486668
vt 0.2697976 0.78378
vt 0.2678365 0.764473
vt 0.2538297 0.7675704
vt 0.2686723 0.7535579
vt 0.2799663 0.7578278
vt 0.286436 0.7524605
vt 0.2481971 0.7450582
vt 0.2527342 0.7470128
vt 0.2364449 0.7345054
vt 0.2289287 0.735368
vt 0.2295807 0.7307813
vt 0.2402547 0.7295395
vt 0.2496913 0.7329009
vt 0.2617653 0.7245399
vt 0.2811508 0.7346311
vt 0.275653 0.7197973
vt 0.2669655 0.7433326
vt 0.2927136 0.7083907
vt 0.2933661 0.6989239
vt 0.3137005 0.6938959
vt 0.3095408 0.681766
vt 0.3326906 0.6538139
vt 0.2858927 0.7390906
vt 0.3022533 0.7225668
vt 0.2938295 0.7416769
vt 0.3087176 0.7179499
vt 0.3147498 0.7395952
vt 0.3217466 0.7522671
vt 0.3201374 0.7234433
vt 0.3306157 0.6935177
vt 0.3363315 0.7323074
vt 0.3431537 0.7344834
vt 0.3462466 0.6806196
vt 0.3526233 0.6599659
vt 0.368434 0.6581002
vt 0.340719 0.649254
vt 0.3405884 0.6461632
vt 0.3511766 0.6381279
vt 0.3597526 0.651543
vt 0.3927689 0.6332109
vt 0.3773816 0.6287998
vt 0.373388 0.6274139
vt 0.3952916 0.6311339
vt 0.3808874 0.6210018
vt 0.7906253 0.2328706
vt 0.7837232 0.2548859
vt 0.7874759 0.2729629
vt 0.8061047 0.2416169
vt 0.7988005 0.2249518
vt 0.7908934 0.2251954
vt 0.7876099 0.2186289
vt 0.7956511 0.2073372
vt 0.8109964 0.2118226
vt 0.8130066 0.2030998
vt 0.8146148 0.2239007
vt 0.8379343 0.2205501
vt 0.8369293 0.2122315
vt 0.8317025 0.1986657
vt 0.8666145 0.2166981
vt 0.8636662 0.2012937
vt 0.8929495 0.1990955
vt 0.9051453 0.2016795
vt 0.841888 0.2358483
vt 0.8280839 0.2684199
vt 0.8037594 0.2709186
vt 0.808249 0.3025955
vt 0.8050995 0.3095352
vt 0.7914295 0.2929507
vt 0.7988676 0.3151556
vt 0.8177643 0.3175763
vt 0.8010789 0.3264091
vt 0.8192385 0.3124151
vt 0.8165582 0.3295345
vt 0.8097233 0.3389101
vt 0.8172283 0.3433333
vt 0.822924 0.343517
vt 0.8415529 0.324871
vt 0.842223 0.3357297
vt 0.8633312 0.3341692
vt 0.8534135 0.3092399
vt 0.8779392 0.3363642
vt 0.8379343 0.309789
vt 0.8210478 0.3063621
vt 0.835187 0.2907373
vt 0.8595785 0.2709327
vt 0.8953617 0.2726933
vt 0.8790784 0.3140521
vt 0.9117123 0.2889286
vt 0.8952279 0.3255301
vt 0.8866507 0.3364569
vt 0.8963671 0.3412057
vt 0.91714 0.3285848
vt 0.9119133 0.3149834
vt 0.9263874 0.3070045
vt 0.9285318 0.2986775
vt 0.9273256 0.2842436
vt 0.9251143 0.2775939
vt 0.9163359 0.2656818
vt 0.8943567 0.2517281
vt 0.9175422 0.2565821
vt 0.9131196 0.2416531
vt 0.9284648 0.2420526
vt 0.9037381 0.2274329
vt 0.9208927 0.2164433
vt 0.9203565 0.2126148
vt 0.9253153 0.2218003
vt 0.9285318 0.2355609
vt 0.9244442 0.2372623
vt 0.877052 0.7792687
vt 0.8964849 0.7773924
vt 0.8852942 0.7589478
vt 0.8979591 0.7848472
vt 0.8990312 0.813226
vt 0.8790623 0.8035933
vt 0.8643202 0.8014825
vt 0.8556088 0.8406498
vt 0.8582891 0.8108639
vt 0.8474336 0.8489422
vt 0.8515212 0.8668674
vt 0.8723613 0.8263264
vt 0.8688768 0.8442012
vt 0.8814076 0.8192066
vt 0.8722942 0.8798003
vt 0.8487067 0.8932694
vt 0.8852271 0.8491936
vt 0.9014436 0.8563636
vt 0.9407784 0.8470492
vt 0.9098198 0.8852783
vt 0.9461393 0.8798674
vt 0.8921293 0.8789124
vt 0.8555418 0.8961005
vt 0.8562119 0.9097872
vt 0.8765829 0.9128195
vt 0.8869695 0.9048955
vt 0.8946756 0.9116301
vt 0.9017786 0.9102061
vt 0.9157838 0.9158349
vt 0.9067373 0.8936714
vt 0.930861 0.915081
vt 0.9399072 0.9133557
vt 0.944129 0.9186493
vt 0.9461393 0.9159522
usemtl MV_RockClassic_Cliff
f 1/1/1 3/3/3 2/2/2
f 4/4/4 3/3/3 1/1/1
f 5/5/5 3/3/3 4/4/4
f 3/3/3 5/5/5 6/6/6
f 5/5/5 7/7/7 6/6/6
f 4/4/4 1/1/1 8/8/8
f 9/9/9 5/5/5 4/4/4
f 8/8/8 9/9/9 4/4/4
f 9/9/9 10/10/10 5/5/5
f 7/7/7 5/5/5 11/11/11
f 11/11/11 5/5/5 10/10/10
f 12/12/12 8/8/8 1/1/1
f 12/12/12 1/1/1 13/13/13
f 8/8/8 14/14/14 9/9/9
f 14/14/14 8/8/8 12/12/12
f 15/15/15 7/7/7 11/11/11
f 15/15/15 16/16/16 7/7/7
f 17/17/17 16/16/16 15/15/15
f 11/11/11 18/18/18 15/15/15
f 17/17/17 15/15/15 18/18/18
f 11/11/11 10/10/10 18/18/18
f 19/19/19 17/17/17 18/18/18
f 10/10/10 19/19/19 18/18/18
f 19/19/19 20/20/20 17/17/17
f 20/20/20 19/19/19 21/21/21
f 22/22/22 9/9/9 14/14/14
f 10/10/10 9/9/9 22/22/22
f 14/14/14 12/12/12 23/23/23
f 22/22/22 14/14/14 23/23/23
f 13/13/13 23/23/23 12/12/12
f 13/13/13 22/22/22 23/23/23
f 24/24/24 22/22/22 13/13/13
f 25/25/25 24/24/24 13/13/13
f 22/22/22 26/26/26 10/10/10
f 22/22/22 24/24/24 26/26/26
f 27/27/27 10/10/10 26/26/26
f 27/27/27 19/19/19 10/10/10
f 28/28/28 21/21/21 19/19/19
f 21/21/21 28/28/28 29/29/29
f 28/28/28 30/30/30 29/29/29
f 31/31/31 28/28/28 19/19/19
f 30/30/30 28/28/28 31/31/31
f 32/32/32 24/24/24 25/25/25
f 24/24/24 32/32/32 33/33/33
f 32/32/32 25/25/25 34/34/34
f 35/35/35 32/32/32 34/34/34
f 33/33/33 32/32/32 35/35/35
f 35/35/35 36/36/36 33/33/33
f 36/36/36 37/37/37 33/33/33
f 38/38/38 19/19/19 27/27/27
f 31/31/31 19/19/19 38/38/38
f 38/38/38 27/27/27 39/39/39
f 40/40/40 30/30/30 31/31/31
f 40/40/40 41/41/41 30/30/30
f 40/40/40 42/42/42 41/41/41
f 33/33/33 37/37/37 43/43/43
f 37/37/37 44/44/44 43/43/43
f 45/45/45 31/31/31 38/38/38
f 45/45/45 40/40/40 31/31/31
f 46/46/46 42/42/42 40/40/40
f 42/42/42 46/46/46 47/47/47
f 48/48/48 47/47/47 46/46/46
f 48/48/48 49/49/49 47/47/47
f 50/50/50 49/49/49 48/48/48
f 40/40/40 51/51/51 46/46/46
f 40/40/40 45/45/45 51/51/51
f 51/51/51 48/48/48 46/46/46
f 45/45/45 38/38/38 52/52/52
f 45/45/45 52/52/52 51/51/51
f 38/38/38 53/53/53 52/52/52
f 53/53/53 38/38/38 39/39/39
f 52/52/52 54/54/54 51/51/51
f 48/48/48 51/51/51 54/54/54
f 53/53/53 54/54/54 52/52/52
f 50/50/50 48/48/48 55/55/55
f 55/55/55 56/56/56 50/50/50
f 48/48/48 54/54/54 57/57/57
f 55/55/55 48/48/48 57/57/57
f 54/54/54 58/58/58 57/57/57
f 55/55/55 57/57/57 58/58/58
f 54/54/54 53/53/53 59/59/59
f 59/59/59 58/58/58 54/54/54
f 60/60/60 56/56/56 55/55/55
f 56/56/56 60/60/60 61/61/61
f 61/61/61 60/60/60 62/62/62
f 61/61/61 62/62/62 63/63/63
f 63/63/63 62/62/62 64/64/64
f 65/65/65 59/59/59 53/53/53
f 65/65/65 53/53/53 39/39/39
f 59/59/59 65/65/65 66/66/66
f 59/59/59 66/66/66 58/58/58
f 67/67/67 55/55/55 58/58/58
f 67/67/67 60/60/60 55/55/55
f 68/68/68 67/67/67 58/58/58
f 60/60/60 67/67/67 68/68/68
f 62/62/62 60/60/60 69/69/69
f 68/68/68 69/69/69 60/60/60
f 70/70/70 62/62/62 69/69/69
f 68/68/68 58/58/58 71/71/71
f 71/71/71 58/58/58 66/66/66
f 72/72/72 69/69/69 68/68/68
f 72/72/72 70/70/70 69/69/69
f 71/71/71 72/72/72 68/68/68
f 71/71/71 70/70/70 72/72/72
f 65/65/65 39/39/39 73/73/73
f 65/65/65 73/73/73 66/66/66
f 71/71/71 66/66/66 74/74/74
f 74/74/74 70/70/70 71/71/71
f 73/73/73 75/75/75 66/66/66
f 66/66/66 75/75/75 74/74/74
f 76/76/76 75/75/75 73/73/73
f 73/73/73 39/39/39 77/77/77
f 76/76/76 73/73/73 77/77/77
f 78/78/78 62/62/62 70/70/70
f 78/78/78 79/79/79 62/62/62
f 79/79/79 64/64/64 62/62/62
f 64/64/64 79/79/79 80/80/80
f 79/79/79 78/78/78 80/80/80
f 81/81/81 64/64/64 80/80/80
f 80/80/80 82/82/82 81/81/81
f 80/80/80 78/78/78 83/83/83
f 83/83/83 84/84/84 80/80/80
f 83/83/83 78/78/78 85/85/85
f 70/70/70 85/85/85 78/78/78
f 84/84/84 83/83/83 85/85/85
f 85/85/85 70/70/70 86/86/86
f 70/70/70 74/74/74 86/86/86
f 85/85/85 87/87/87 84/84/84
f 88/88/88 84/84/84 87/87/87
f 86/86/86 89/89/89 85/85/85
f 86/86/86 74/74/74 89/89/89
f 89/89/89 87/87/87 85/85/85
f 87/87/87 90/90/90 88/88/88
f 87/87/87 89/89/89 90/90/90
f 88/88/88 90/90/90 91/91/91
f 92/92/92 91/91/91 90/90/90
f 74/74/74 93/93/93 89/89/89
f 90/90/90 89/89/89 93/93/93
f 93/93/93 74/74/74 75/75/75
f 92/92/92 90/90/90 94/94/94
f 93/93/93 94/94/94 90/90/90
f 93/93/93 75/75/75 94/94/94
f 92/92/92 94/94/94 95/95/95
f 75/75/75 76/76/76 94/94/94
f 76/76/76 95/95/95 94/94/94
f 95/95/95 76/76/76 96/96/96
f 96/96/96 76/76/76 97/97/97
f 97/97/97 76/76/76 98/98/98
f 98/98/98 44/44/44 97/97/97
f 98/98/98 76/76/76 77/77/77
f 43/43/43 44/44/44 98/98/98
f 43/43/43 98/98/98 77/77/77
f 43/43/43 77/77/77 99/99/99
f 43/43/43 99/99/99 33/33/33
f 39/39/39 99/99/99 77/77/77
f 99/99/99 100/100/100 33/33/33
f 24/24/24 33/33/33 100/100/100
f 26/26/26 24/24/24 100/100/100
f 27/27/27 26/26/26 100/100/100
f 39/39/39 27/27/27 101/101/101
f 99/99/99 39/39/39 101/101/101
f 99/99/99 101/101/101 100/100/100
f 27/27/27 100/100/100 101/101/101
f 102/102/102 104/104/104 103/103/103
f 102/102/102 103/103/103 105/105/105
f 105/105/105 106/106/106 102/102/102
f 103/103/103 107/107/107 105/105/105
f 108/108/108 106/106/106 105/105/105
f 107/107/107 109/109/109 105/105/105
f 109/109/109 108/108/108 105/105/105
f 109/109/109 107/107/107 110/110/110
f 107/107/107 111/111/111 110/110/110
f 112/112/112 108/108/108 109/109/109
f 113/113/113 108/108/108 112/112/112
f 113/113/113 112/112/112 114/114/114
f 112/112/112 109/109/109 115/115/115
f 115/115/115 109/109/109 110/110/110
f 116/116/116 114/114/114 112/112/112
f 116/116/116 112/112/112 115/115/115
f 116/116/116 117/117/117 114/114/114
f 117/117/117 116/116/116 118/118/118
f 119/119/119 116/116/116 115/115/115
f 120/120/120 118/118/118 116/116/116
f 119/119/119 120/120/120 116/116/116
f 119/119/119 121/121/121 120/120/120
f 118/118/118 120/120/120 122/122/122
f 121/121/121 122/122/122 120/120/120
f 122/122/122 123/123/123 118/118/118
f 123/123/123 122/122/122 124/124/124
f 121/121/121 125/125/125 122/122/122
f 125/125/125 121/121/121 126/126/126
f 127/127/127 119/119/119 115/115/115
f 110/110/110 127/127/127 115/115/115
f 119/119/119 127/127/127 128/128/128
f 128/128/128 127/127/127 110/110/110
f 128/128/128 121/121/121 119/119/119
f 129/129/129 128/128/128 110/110/110
f 129/129/129 130/130/130 128/128/128
f 111/111/111 129/129/129 110/110/110
f 129/129/129 111/111/111 130/130/130
f 128/128/128 131/131/131 121/121/121
f 131/131/131 128/128/128 130/130/130
f 121/121/121 131/131/131 132/132/132
f 132/132/132 126/126/126 121/121/121
f 132/132/132 131/131/131 130/130/130
f 111/111/111 133/133/133 130/130/130
f 133/133/133 111/111/111 134/134/134
f 134/134/134 135/135/135 133/133/133
f 126/126/126 132/132/132 136/136/136
f 137/137/137 126/126/126 136/136/136
f 138/138/138 137/137/137 136/136/136
f 136/136/136 132/132/132 138/138/138
f 137/137/137 138/138/138 139/139/139
f 130/130/130 140/140/140 132/132/132
f 132/132/132 140/140/140 138/138/138
f 139/139/139 138/138/138 141/141/141
f 140/140/140 141/141/141 138/138/138
f 141/141/141 142/142/142 139/139/139
f 140/140/140 130/130/130 143/143/143
f 133/133/133 143/143/143 130/130/130
f 143/143/143 133/133/133 144/144/144
f 135/135/135 145/145/145 133/133/133
f 133/133/133 145/145/145 144/144/144
f 135/135/135 146/146/146 145/145/145
f 145/145/145 146/146/146 147/147/147
f 148/148/148 145/145/145 147/147/147
f 143/143/143 149/149/149 140/140/140
f 141/141/141 140/140/140 149/149/149
f 144/144/144 149/149/149 143/143/143
f 141/141/141 150/150/150 142/142/142
f 142/142/142 150/150/150 151/151/151
f 152/152/152 150/150/150 141/141/141
f 149/149/149 152/152/152 141/141/141
f 151/151/151 150/150/150 153/153/153
f 152/152/152 153/153/153 150/150/150
f 145/145/145 148/148/148 154/154/154
f 154/154/154 144/144/144 145/145/145
f 151/151/151 153/153/153 155/155/155
f 155/155/155 156/156/156 151/151/151
f 157/157/157 152/152/152 149/149/149
f 153/153/153 152/152/152 158/158/158
f 157/157/157 158/158/158 152/152/152
f 155/155/155 153/153/153 159/159/159
f 153/153/153 158/158/158 159/159/159
f 160/160/160 156/156/156 155/155/155
f 155/155/155 159/159/159 160/160/160
f 149/149/149 161/161/161 157/157/157
f 161/161/161 149/149/149 144/144/144
f 161/161/161 162/162/162 157/157/157
f 157/157/157 162/162/162 158/158/158
f 162/162/162 161/161/161 144/144/144
f 154/154/154 163/163/163 144/144/144
f 163/163/163 162/162/162 144/144/144
f 163/163/163 164/164/164 162/162/162
f 162/162/162 165/165/165 158/158/158
f 159/159/159 158/158/158 165/165/165
f 162/162/162 164/164/164 165/165/165
f 165/165/165 166/166/166 159/159/159
f 159/159/159 166/166/166 160/160/160
f 166/166/166 165/165/165 164/164/164
f 167/167/167 163/163/163 154/154/154
f 154/154/154 148/148/148 167/167/167
f 163/163/163 168/168/168 164/164/164
f 168/168/168 163/163/163 167/167/167
f 167/167/167 148/148/148 169/169/169
f 170/170/170 169/169/169 148/148/148
f 169/169/169 170/170/170 171/171/171
f 169/169/169 171/171/171 172/172/172
f 173/173/173 169/169/169 172/172/172
f 173/173/173 167/167/167 169/169/169
f 173/173/173 172/172/172 174/174/174
f 174/174/174 175/175/175 173/173/173
f 176/176/176 175/175/175 174/174/174
f 167/167/167 177/177/177 168/168/168
f 177/177/177 167/167/167 173/173/173
f 177/177/177 164/164/164 168/168/168
f 175/175/175 177/177/177 173/173/173
f 177/177/177 175/175/175 164/164/164
f 178/178/178 175/175/175 176/176/176
f 179/179/179 178/178/178 176/176/176
f 180/180/180 178/178/178 179/179/179
f 180/180/180 179/179/179 181/181/181
f 182/182/182 180/180/180 181/181/181
f 175/175/175 183/183/183 164/164/164
f 164/164/164 183/183/183 166/166/166
f 178/178/178 184/184/184 175/175/175
f 184/184/184 183/183/183 175/175/175
f 178/178/178 180/180/180 184/184/184
f 166/166/166 183/183/183 185/185/185
f 185/185/185 183/183/183 184/184/184
f 166/166/166 185/185/185 160/160/160
f 184/184/184 186/186/186 185/185/185
f 186/186/186 160/160/160 185/185/185
f 186/186/186 184/184/184 180/180/180
f 187/187/187 160/160/160 186/186/186
f 160/160/160 187/187/187 156/156/156
f 156/156/156 187/187/187 188/188/188
f 186/186/186 189/189/189 187/187/187
f 187/187/187 189/189/189 188/188/188
f 190/190/190 186/186/186 180/180/180
f 189/189/189 186/186/186 190/190/190
f 188/188/188 189/189/189 191/191/191
f 191/191/191 189/189/189 190/190/190
f 188/188/188 191/191/191 192/192/192
f 193/193/193 192/192/192 191/191/191
f 193/193/193 191/191/191 190/190/190
f 190/190/190 180/180/180 194/194/194
f 190/190/190 194/194/194 193/193/193
f 194/194/194 180/180/180 182/182/182
f 194/194/194 195/195/195 193/193/193
f 194/194/194 182/182/182 196/196/196
f 197/197/197 196/196/196 182/182/182
f 197/197/197 198/198/198 196/196/196
f 194/194/194 199/199/199 195/195/195
f 194/194/194 196/196/196 199/199/199
f 198/198/198 199/199/199 196/196/196
f 199/199/199 200/200/200 195/195/195
f 199/199/199 198/198/198 201/201/201
f 201/201/201 200/200/200 199/199/199
f 201/201/201 198/198/198 202/202/202
f 203/203/203 200/200/200 201/201/201
f 204/204/204 201/201/201 202/202/202
f 203/203/203 201/201/201 204/204/204
f 205/205/205 207/207/207 206/206/206
f 207/207/207 205/205/205 208/208/208
f 208/208/208 205/205/205 209/209/209
f 209/209/209 205/205/205 210/210/210
f 205/205/205 211/211/211 210/210/210
f 212/212/212 210/210/210 211/211/211
f 210/210/210 212/212/212 209/209/209
f 212/212/212 213/213/213 209/209/209
f 212/212/212 214/214/214 213/213/213
f 215/215/215 209/209/209 213/213/213
f 209/209/209 215/215/215 208/208/208
f 216/216/216 213/213/213 214/214/214
f 216/216/216 215/215/215 213/213/213
f 217/217/217 216/216/216 214/214/214
f 214/214/214 218/218/218 217/217/217
f 218/218/218 219/219/219 217/217/217
f 216/216/216 217/217/217 219/219/219
f 219/219/219 218/218/218 220/220/220
f 219/219/219 220/220/220 221/221/221
f 221/221/221 222/222/222 219/219/219
f 223/223/223 215/215/215 216/216/216
f 223/223/223 216/216/216 219/219/219
f 208/208/208 215/215/215 224/224/224
f 215/215/215 223/223/223 224/224/224
f 225/225/225 208/208/208 224/224/224
f 208/208/208 225/225/225 207/207/207
f 226/226/226 207/207/207 225/225/225
f 226/226/226 225/225/225 224/224/224
f 227/227/227 207/207/207 226/226/226
f 207/207/207 227/227/227 228/228/228
f 227/227/227 229/229/229 228/228/228
f 229/229/229 227/227/227 230/230/230
f 229/229/229 230/230/230 231/231/231
f 232/232/232 227/227/227 226/226/226
f 232/232/232 230/230/230 227/227/227
f 230/230/230 233/233/233 231/231/231
f 231/231/231 233/233/233 234/234/234
f 234/234/234 233/233/233 235/235/235
f 236/236/236 235/235/235 233/233/233
f 233/233/233 237/237/237 236/236/236
f 233/233/233 230/230/230 237/237/237
f 236/236/236 237/237/237 238/238/238
f 237/237/237 239/239/239 238/238/238
f 240/240/240 239/239/239 237/237/237
f 241/241/241 239/239/239 240/240/240
f 242/242/242 237/237/237 230/230/230
f 230/230/230 232/232/232 242/242/242
f 242/242/242 240/240/240 237/237/237
f 226/226/226 243/243/243 232/232/232
f 232/232/232 243/243/243 242/242/242
f 243/243/243 226/226/226 244/244/244
f 242/242/242 243/243/243 244/244/244
f 240/240/240 242/242/242 244/244/244
f 244/244/244 226/226/226 224/224/224
f 224/224/224 245/245/245 244/244/244
f 244/244/244 245/245/245 240/240/240
f 223/223/223 245/245/245 224/224/224
f 240/240/240 245/245/245 246/246/246
f 246/246/246 245/245/245 223/223/223
f 247/247/247 241/241/241 240/240/240
f 240/240/240 246/246/246 247/247/247
f 246/246/246 248/248/248 247/247/247
f 247/247/247 248/248/248 249/249/249
f 247/247/247 249/249/249 241/241/241
f 250/250/250 241/241/241 249/249/249
f 250/250/250 249/249/249 251/251/251
f 252/252/252 251/251/251 249/249/249
f 249/249/249 253/253/253 252/252/252
f 248/248/248 253/253/253 249/249/249
f 252/252/252 253/253/253 254/254/254
f 254/254/254 253/253/253 248/248/248
f 255/255/255 254/254/254 248/248/248
f 255/255/255 248/248/248 256/256/256
f 248/248/248 257/257/257 256/256/256
f 257/257/257 248/248/248 258/258/258
f 248/248/248 246/246/246 258/258/258
f 259/259/259 258/258/258 246/246/246
f 246/246/246 223/223/223 259/259/259
f 259/259/259 260/260/260 258/258/258
f 219/219/219 259/259/259 223/223/223
f 261/261/261 260/260/260 259/259/259
f 262/262/262 260/260/260 261/261/261
f 259/259/259 219/219/219 263/263/263
f 263/263/263 261/261/261 259/259/259
f 263/263/263 219/219/219 222/222/222
f 222/222/222 264/264/264 263/263/263
f 264/264/264 261/261/261 263/263/263
f 265/265/265 264/264/264 222/222/222
f 264/264/264 265/265/265 266/266/266
f 264/264/264 266/266/266 267/267/267
f 262/262/262 261/261/261 268/268/268
f 268/268/268 261/261/261 264/264/264
f 264/264/264 267/267/267 268/268/268
f 268/268/268 267/267/267 262/262/262
f 269/269/269 271/271/271 270/270/270
f 270/270/270 272/272/272 269/269/269
f 273/273/273 269/269/269 272/272/272
f 274/274/274 269/269/269 273/273/273
f 269/269/269 274/274/274 275/275/275
f 275/275/275 274/274/274 276/276/276
f 277/277/277 275/275/275 276/276/276
f 278/278/278 277/277/277 276/276/276
f 276/276/276 279/279/279 278/278/278
f 280/280/280 276/276/276 274/274/274
f 281/281/281 279/279/279 276/276/276
f 280/280/280 281/281/281 276/276/276
f 280/280/280 274/274/274 282/282/282
f 273/273/273 282/282/282 274/274/274
f 282/282/282 281/281/281 280/280/280
f 283/283/283 279/279/279 281/281/281
f 284/284/284 279/279/279 283/283/283
f 282/282/282 285/285/285 281/281/281
f 282/282/282 273/273/273 285/285/285
f 281/281/281 285/285/285 283/283/283
f 285/285/285 273/273/273 286/286/286
f 286/286/286 273/273/273 287/287/287
f 286/286/286 287/287/287 288/288/288
f 288/288/288 287/287/287 289/289/289
f 290/290/290 285/285/285 286/286/286
f 290/290/290 283/283/283 285/285/285
f 290/290/290 286/286/286 288/288/288
f 284/284/284 283/283/283 291/291/291
f 292/292/292 284/284/284 291/291/291
f 292/292/292 291/291/291 293/293/293
f 291/291/291 283/283/283 294/294/294
f 293/293/293 291/291/291 294/294/294
f 294/294/294 283/283/283 290/290/290
f 293/293/293 294/294/294 295/295/295
f 296/296/296 295/295/295 294/294/294
f 294/294/294 290/290/290 296/296/296
f 295/295/295 296/296/296 297/297/297
f 298/298/298 296/296/296 290/290/290
f 296/296/296 298/298/298 297/297/297
f 288/288/288 298/298/298 290/290/290
f 288/288/288 297/297/297 298/298/298
f 299/299/299 297/297/297 288/288/288
f 299/299/299 288/288/288 300/300/300
f 301/301/301 299/299/299 300/300/300
f 288/288/288 289/289/289 300/300/300
f 300/300/300 302/302/302 301/301/301
f 289/289/289 302/302/302 300/300/300
