mtllib P_CubicCliffPiece18.mtl
v 12.32124 8.886583 9.595088
v 9.309587 9.072279 9.49121
v 12.20371 9.844866 10.31062
v 9.309587 9.072279 9.49121
v 8.116776 10.00793 10.42201
v 12.20371 9.844866 10.31062
v 5.203857 8.773636 -7.222685
v 8.137084 8.253628 -7.206236
v 5.593719 7.862425 -7.645344
v 10.03863 -19.83934 -8.953004
v 9.526336 -22.38836 -9.163447
v 10.03897 -23.12623 -7.030862
v 10.13501 -23.11402 0.2863217
v 10.0208 -17.34477 -2.590152
v 10.11201 -13.87749 -6.465396
v 10.11496 -15.46285 -8.530114
v 10.13335 -14.35413 -7.688238
v 10.20111 -14.2923 8.23833
v 10.21848 -21.10905 7.630893
v 9.521058 -23.13798 5.945182
v 9.57776 -22.56764 7.511814
v 9.385743 -20.64472 8.615949
v 10.24738 -7.122957 -0.03315896
v 10.21182 -7.189638 -6.393058
v 10.20491 -10.01909 8.298851
v 10.0636 1.633402 0.8659669
v 10.22643 8.565624 4.952834
v 10.15984 -1.166113 7.891469
v 10.15088 8.652277 7.563524
v 10.28394 8.804037 7.671323
v 10.25787 8.635952 -1.986179
v 10.19916 4.56843 -2.703391
v 10.12903 8.49758 -7.050682
v 10.14827 6.773808 -6.84063
v 10.72739 -0.07713699 -6.830039
v 10.38507 3.872742 -6.79457
v 10.34189 2.747412 -7.045208
v 10.70376 -2.916328 -7.193553
v 10.75064 -6.997206 -7.164767
v 5.153182 -23.1541 -9.196716
v 10.03897 -23.12623 -7.030862
v 9.526336 -22.38836 -9.163447
v 10.13501 -23.11402 0.2863217
v -0.8199461 -23.1395 1.858179
v 9.521058 -23.13798 5.945182
v -1.288238 -22.97655 1.349544
v -6.307145 -23.13178 -9.241841
v 6.391465 -23.0483 8.530148
v 9.57776 -22.56764 7.511814
v 8.498872 -22.47526 8.566676
v 1.823395 -22.96695 8.484392
v 0.9564216 -22.67537 8.319906
v -0.6962277 -22.84303 3.326061
v 0.4911201 -22.95008 8.670622
v -1.529266 -23.13784 1.427959
v -13.11623 -23.13911 0.003645613
v -10.57039 -22.86696 8.57778
v -13.26594 -22.92713 5.613215
v -13.30487 -22.35903 7.231691
v -12.9492 -22.37602 8.548278
v -13.33136 -23.12828 -4.835774
v -11.68067 -23.15153 -7.670953
v -11.74997 -22.61928 -8.833661
v -10.06291 -22.69994 -9.158896
v -13.33078 -21.68083 -8.046576
v 10.21848 -21.10905 7.630893
v 9.57776 -22.56764 7.511814
v 8.498872 -22.47526 8.566676
v 9.385743 -20.64472 8.615949
v 6.391465 -23.0483 8.530148
v 3.297074 -15.589 8.570507
v 1.823395 -22.96695 8.484392
v 10.20491 -10.01909 8.298851
v 10.20111 -14.2923 8.23833
v 2.662019 -15.62772 8.424612
v 0.9564216 -22.67537 8.319906
v 0.4911201 -22.95008 8.670622
v 3.077576 -3.847452 7.816536
v 10.15984 -1.166113 7.891469
v 2.74347 -2.314837 7.868633
v 2.117432 -15.50896 8.762138
v -9.879363 9.824881 7.556577
v 10.15088 8.652277 7.563524
v -3.826919 -17.17094 8.726048
v -10.57039 -22.86696 8.57778
v -13.2914 -15.3702 8.56479
v -12.9492 -22.37602 8.548278
v -13.12762 -11.80065 8.34196
v -9.853484 -6.556597 7.940293
v -12.7754 -6.885363 7.595915
v -8.786193 -4.8286 7.858101
v -9.874038 5.868246 7.639718
v 0.016648 10.28343 7.593718
v 7.743943 9.170643 7.631223
v 10.28394 8.804037 7.671323
v -0.8534692 10.67 7.610239
v -2.102874 10.6779 7.595339
v -9.866149 12.46764 7.565505
v 8.165282 8.161509 -7.047849
v 10.14827 6.773808 -6.84063
v 10.12903 8.49758 -7.050682
v 4.966857 8.685884 -6.993435
v 3.808502 2.981062 -6.804146
v 10.34189 2.747412 -7.045208
v 10.70376 -2.916328 -7.193553
v 4.691314 9.361067 -7.079579
v 5.203857 8.773636 -7.222685
v 4.296127 -7.127352 -6.697487
v 10.75064 -6.997206 -7.164767
v -9.688478 4.576918 -6.8125
v -4.283341 9.381229 -7.028259
v -9.814042 8.789101 -6.856325
v -9.116334 11.1671 -7.02448
v -9.214067 -4.638643 -6.628567
v -5.00058 -12.81128 -6.603806
v -9.916322 -11.05602 -6.562457
v -9.800218 -6.337793 -6.57376
v 3.63005 -13.81693 -6.625781
v 10.11201 -13.87749 -6.465396
v 9.870986 -7.213465 -6.70561
v 10.21182 -7.189638 -6.393058
v 10.21182 -7.189638 -6.393058
v 10.24738 -7.122957 -0.03315896
v 10.75064 -6.997206 -7.164767
v 9.870986 -7.213465 -6.70561
v 4.296127 -7.127352 -6.697487
v 10.11201 -13.87749 -6.465396
v 3.63005 -13.81693 -6.625781
v 10.13335 -14.35413 -7.688238
v 9.305602 -14.63984 -8.636689
v 6.266387 -14.59171 -9.184541
v 1.025848 -14.29372 -9.352043
v -4.478379 -13.95117 -9.176689
v -5.00058 -12.81128 -6.603806
v -9.022996 -13.0475 -8.564258
v -9.916322 -11.05602 -6.562457
v -9.916322 -11.05602 -6.562457
v -10.17809 -12.54062 -8.095447
v -9.022996 -13.0475 -8.564258
v -12.58612 -13.4328 -8.15054
v -13.308 -18.02981 -8.376151
v -13.2865 -13.7715 -7.738938
v -13.14664 -12.69148 -7.176684
v -5.665559 -18.13156 -9.114802
v -4.478379 -13.95117 -9.176689
v 5.153182 -23.1541 -9.196716
v 1.025848 -14.29372 -9.352043
v -6.307145 -23.13178 -9.241841
v -10.06291 -22.69994 -9.158896
v -11.74997 -22.61928 -8.833661
v -13.33078 -21.68083 -8.046576
v 6.47708 -17.62854 -9.368638
v 9.526336 -22.38836 -9.163447
v 6.266387 -14.59171 -9.184541
v 10.03863 -19.83934 -8.953004
v 9.305602 -14.63984 -8.636689
v 10.11496 -15.46285 -8.530114
v 10.13335 -14.35413 -7.688238
v -13.14664 -12.69148 -7.176684
v -13.0206 -11.23495 -4.722702
v -12.98938 -10.55739 -2.569589
v -13.30521 -18.58503 -1.986608
v -13.2865 -13.7715 -7.738938
v -13.33078 -21.68083 -8.046576
v -13.308 -18.02981 -8.376151
v -13.33136 -23.12828 -4.835774
v -13.26594 -22.92713 5.613215
v -13.30487 -22.35903 7.231691
v -13.16942 -8.897215 1.113942
v -12.63544 -10.41537 -3.275245
v -12.91386 -8.067572 2.223518
v -13.2914 -15.3702 8.56479
v -12.9492 -22.37602 8.548278
v -13.14659 -8.510042 5.030292
v -12.62988 -6.369524 6.14195
v -13.12762 -11.80065 8.34196
v -12.7754 -6.885363 7.595915
v -13.14664 -12.69148 -7.176684
v -12.58612 -13.4328 -8.15054
v -10.17809 -12.54062 -8.095447
v -9.916322 -11.05602 -6.562457
v -13.0206 -11.23495 -4.722702
v -12.63544 -10.41537 -3.275245
v -12.98938 -10.55739 -2.569589
v -9.924239 -5.426985 5.955363
v -12.91386 -8.067572 2.223518
v -11.50792 -5.839399 6.068537
v -12.62988 -6.369524 6.14195
v -9.853484 -6.556597 7.940293
v -12.7754 -6.885363 7.595915
v -9.853484 -6.556597 7.940293
v -9.924239 -5.426985 5.955363
v -8.786193 -4.8286 7.858101
v -9.874038 5.868246 7.639718
v -9.885377 3.12546 -6.315995
v -9.879363 9.824881 7.556577
v -9.881744 17.40809 0.9987155
v -9.866149 12.46764 7.565505
v -9.855363 -4.755388 -5.916876
v -9.916322 -11.05602 -6.562457
v -9.800218 -6.337793 -6.57376
v -9.214067 -4.638643 -6.628567
v -9.688478 4.576918 -6.8125
v -9.814042 8.789101 -6.856325
v -9.869201 17.77772 10.33828
v -9.874419 12.8275 8.876657
v -9.586913 13.87448 10.24724
v -8.596297 12.64614 10.22751
v -9.871428 21.70965 7.226789
v -9.592376 20.64326 10.11538
v -9.842529 21.86996 -2.805673
v -9.892747 12.33027 -5.623879
v -9.116334 11.1671 -7.02448
v -9.946548 16.23662 -5.123149
v -9.959625 20.25659 -4.67272
v -9.977738 21.7065 -5.549111
v -10.51308 19.97328 -6.053405
v -10.76656 21.19155 -6.642571
v -10.82379 14.81698 -6.230002
v -10.78311 12.79543 -6.492399
v -10.82208 12.69259 -9.643313
v -10.82242 19.32514 -10.72793
v -10.6584 17.67212 -6.422844
v -10.7361 21.01351 -9.296279
v -9.09929 21.1165 -10.92444
v -9.592376 20.64326 10.11538
v -6.924956 21.87491 10.22524
v -9.869201 17.77772 10.33828
v -4.984038 11.6041 10.51502
v -9.586913 13.87448 10.24724
v -8.596297 12.64614 10.22751
v -1.292922 11.91627 10.45989
v -2.751113 10.96768 9.971331
v -1.398635 11.38282 9.975904
v 0.2509927 10.42732 10.48775
v 0.1775216 21.96235 10.22712
v 6.572801 9.597927 10.46977
v 7.355348 21.36667 10.23602
v 8.116776 10.00793 10.42201
v 9.309587 9.072279 9.49121
v 12.28279 15.47248 10.3483
v 11.96909 10.98025 10.4585
v 12.20371 9.844866 10.31062
v 9.064408 20.41183 10.27622
v 11.59517 20.99064 9.732413
v 12.32806 20.6636 9.761821
v -4.984038 11.6041 10.51502
v -9.874419 12.8275 8.876657
v -8.596297 12.64614 10.22751
v -2.102874 10.6779 7.595339
v -9.866149 12.46764 7.565505
v -2.751113 10.96768 9.971331
v -0.8534692 10.67 7.610239
v -1.398635 11.38282 9.975904
v 0.2509927 10.42732 10.48775
v 0.016648 10.28343 7.593718
v 6.572801 9.597927 10.46977
v 9.309587 9.072279 9.49121
v 7.743943 9.170643 7.631223
v 10.28394 8.804037 7.671323
v 12.32124 8.886583 9.595088
v 12.29179 8.945929 -5.913915
v 10.25787 8.635952 -1.986179
v 12.25214 8.950071 -9.881246
v 10.12903 8.49758 -7.050682
v 10.83131 8.622179 -9.796369
v 9.511504 7.817209 -8.060071
v 9.424102 7.932291 -9.694579
v 5.612044 8.04563 -9.748345
v 5.593719 7.862425 -7.645344
v 8.137084 8.253628 -7.206236
v 8.165282 8.161509 -7.047849
v 5.203857 8.773636 -7.222685
v 4.966857 8.685884 -6.993435
v 11.59517 20.99064 9.732413
v 12.22855 21.83277 4.060807
v 12.32806 20.6636 9.761821
v 7.355348 21.36667 10.23602
v 0.1775216 21.96235 10.22712
v 12.30695 21.82107 -2.473171
v -9.459412 22.03006 5.365648
v -6.924956 21.87491 10.22524
v -9.871428 21.70965 7.226789
v -9.592376 20.64326 10.11538
v -9.842529 21.86996 -2.805673
v -2.618348 21.83965 -9.235275
v 6.625823 21.79286 -10.8839
v 12.24664 21.11653 -9.464141
v 11.56401 21.06061 -10.89147
v -2.470902 21.65489 -11.01834
v -7.916596 21.83721 -7.763742
v -9.09929 21.1165 -10.92444
v -9.977738 21.7065 -5.549111
v -10.7361 21.01351 -9.296279
v -10.76656 21.19155 -6.642571
v 12.22855 21.83277 4.060807
v 12.30695 21.82107 -2.473171
v 12.32806 20.6636 9.761821
v 12.259 18.90988 -10.59815
v 12.24664 21.11653 -9.464141
v 11.56401 21.06061 -10.89147
v 12.29179 8.945929 -5.913915
v 12.25214 8.950071 -9.881246
v 12.25619 15.36074 -10.36529
v 12.32124 8.886583 9.595088
v 12.28279 15.47248 10.3483
v 12.20371 9.844866 10.31062
v -9.116334 11.1671 -7.02448
v -10.78311 12.79543 -6.492399
v -9.892747 12.33027 -5.623879
v -9.217469 11.31329 -9.608108
v -10.82208 12.69259 -9.643313
v -4.086213 9.714533 -9.554041
v -4.283341 9.381229 -7.028259
v 0.2389213 9.825598 -9.917488
v 4.691314 9.361067 -7.079579
v 4.931762 9.841002 -9.901541
v -4.086213 9.714533 -9.554041
v 0.2389213 9.825598 -9.917488
v -9.217469 11.31329 -9.608108
v -4.649964 12.7096 -10.23547
v -10.82208 12.69259 -9.643313
v -10.82242 19.32514 -10.72793
v -9.09929 21.1165 -10.92444
v -2.470902 21.65489 -11.01834
v 7.583953 21.54223 -10.98551
v 6.625823 21.79286 -10.8839
v 11.56401 21.06061 -10.89147
v 12.259 18.90988 -10.59815
v 12.25619 15.36074 -10.36529
v 12.25214 8.950071 -9.881246
v 4.931762 9.841002 -9.901541
v 10.83131 8.622179 -9.796369
v 5.240142 8.787134 -9.843866
v 9.424102 7.932291 -9.694579
v 5.612044 8.04563 -9.748345
v 5.593719 7.862425 -7.645344
v 5.612044 8.04563 -9.748345
v 5.203857 8.773636 -7.222685
v 4.875045 9.502291 -8.87385
v 4.691314 9.361067 -7.079579
v 5.240142 8.787134 -9.843866
v 4.931762 9.841002 -9.901541
vn 0.6067395 -0.6963831 0.3832985
vn -0.06473282 -0.9131189 0.4025215
vn 0.5777743 -0.2955085 0.760823
vn -0.06473282 -0.9131189 0.4025215
vn 0.06822385 -0.2932494 0.9535986
vn 0.5777743 -0.2955085 0.760823
vn -0.6262438 -0.7487316 -0.2173012
vn 0.008317282 -0.9985052 0.05401951
vn -0.475269 -0.7976179 0.3713827
vn 0.7561808 0.01396488 -0.6542137
vn 0.5003816 -0.4552859 -0.7364326
vn 0.6935025 -0.7076732 -0.1351034
vn 0.7118686 -0.7023088 -0.002351225
vn 0.9999526 -0.007540602 -0.006171783
vn 0.8694341 0.262614 -0.4184713
vn 0.7800931 0.1395763 -0.609896
vn 0.7342327 0.6056285 -0.3067841
vn 0.8674164 -0.01140551 0.4974523
vn 0.9068284 -0.2029057 0.3694475
vn 0.5304362 -0.8395151 0.117694
vn 0.6453504 -0.6481599 0.4042421
vn 0.4153519 -0.1072506 0.9033162
vn 0.9997269 -0.009929782 0.0211549
vn 0.6826087 -0.6929047 -0.232225
vn 0.7014564 0.03623926 0.7117904
vn 0.9997554 0.003885727 0.02177344
vn 0.9906428 -0.1363599 0.005734953
vn 0.6877019 0.02614651 0.7255222
vn 0.5566238 -0.4616576 0.6906825
vn 0.09793297 -0.976864 0.1901204
vn 0.7601811 -0.6496767 0.00669991
vn 0.9993219 0.02234405 0.02926545
vn 0.5229557 -0.8401521 -0.1437427
vn 0.7191573 -0.008078009 -0.6948003
vn 0.9650201 0.04942542 -0.2574748
vn 0.9733052 0.07791697 -0.215884
vn 0.4768198 0.06593635 -0.8765246
vn 0.7002582 -0.00386752 -0.7138792
vn 0.6215131 -0.4918716 -0.6097408
vn 0.01172702 -0.7167543 -0.6972272
vn 0.6935025 -0.7076732 -0.1351034
vn 0.5003816 -0.4552859 -0.7364326
vn 0.7118686 -0.7023088 -0.002351225
vn -0.2777214 -0.957768 0.07450762
vn 0.5304362 -0.8395151 0.117694
vn 0.1503037 -0.9839755 -0.09592208
vn -0.01008401 -0.6961322 -0.7178429
vn 0.02544374 -0.7068084 0.7069473
vn 0.6453504 -0.6481599 0.4042421
vn 0.2806301 -0.5250169 0.8034949
vn -0.1567485 -0.6805557 0.7157331
vn 0.2359028 -0.7331864 0.637799
vn 0.04464379 -0.9983523 0.03604902
vn 0.3148327 -0.6951343 0.6462728
vn 0.2797657 -0.956615 -0.08135657
vn -0.2494908 -0.9682114 0.01791971
vn -0.06372788 -0.701829 0.7094891
vn -0.6981035 -0.7126175 0.06948305
vn -0.8320341 -0.5201634 0.1927414
vn -0.5362288 -0.5343555 0.6533934
vn -0.7131714 -0.6993561 -0.04782879
vn -0.258089 -0.9391204 -0.2268105
vn -0.3631793 -0.5313957 -0.7653231
vn -0.1312737 -0.509409 -0.8504527
vn -0.8323543 -0.2873473 -0.4739386
vn 0.9068284 -0.2029057 0.3694475
vn 0.6453504 -0.6481599 0.4042421
vn 0.2806301 -0.5250169 0.8034949
vn 0.4153519 -0.1072506 0.9033162
vn 0.02544374 -0.7068084 0.7069473
vn -0.1064975 0.035753 0.9936699
vn -0.1567485 -0.6805557 0.7157331
vn 0.7014564 0.03623926 0.7117904
vn 0.8674164 -0.01140551 0.4974523
vn 0.1372079 0.0006490275 0.9905421
vn 0.2359028 -0.7331864 0.637799
vn 0.3148327 -0.6951343 0.6462728
vn 0.1410852 0.02694885 0.9896306
vn 0.6877019 0.02614651 0.7255222
vn 0.01037575 0.0176864 0.9997898
vn 0.2737278 -0.002971563 0.9618027
vn -0.7111978 0.006577602 0.7029613
vn 0.5566238 -0.4616576 0.6906825
vn -0.01027927 0.02012142 0.9997447
vn -0.06372788 -0.701829 0.7094891
vn -0.7060748 0.03095026 0.7074606
vn -0.5362288 -0.5343555 0.6533934
vn -0.6867036 0.09397793 0.7208372
vn -0.2329995 0.3946391 0.8888032
vn -0.6483936 0.4807637 0.5902982
vn -0.4270357 0.1042527 0.8982049
vn -0.707832 0.01146885 0.7062878
vn -0.1773042 -0.6338397 0.7528682
vn -0.1205883 -0.8161758 0.5650801
vn 0.09793297 -0.976864 0.1901204
vn -0.1626069 -0.69349 0.7018765
vn -0.0813565 -0.6145479 0.7846732
vn -0.8985634 -0.2861797 0.3326934
vn -0.01628131 -0.5528424 -0.8331267
vn 0.7191573 -0.008078009 -0.6948003
vn 0.5229557 -0.8401521 -0.1437427
vn -0.1053388 -0.2553916 -0.9610821
vn -0.01478969 -0.01494096 -0.999779
vn 0.4768198 0.06593635 -0.8765246
vn 0.7002582 -0.00386752 -0.7138792
vn -0.3226022 -0.6731042 -0.6654762
vn -0.6262438 -0.7487316 -0.2173012
vn -0.01776046 -0.02537954 -0.9995201
vn 0.6215131 -0.4918716 -0.6097408
vn -0.529016 -0.03339659 -0.8479545
vn -0.1152069 -0.6126602 -0.7819046
vn -0.7146733 0.002314464 -0.6994546
vn -0.6813719 -0.541367 -0.4925994
vn -0.3746181 0.03107045 -0.9266585
vn 0.0867423 0.5510731 -0.8299363
vn -0.2964619 0.5917613 -0.7496192
vn -0.6891972 0.03989335 -0.7234748
vn 0.04533574 0.6184182 -0.7845404
vn 0.8694341 0.262614 -0.4184713
vn 0.2216535 -0.6425162 -0.733514
vn 0.6826087 -0.6929047 -0.232225
vn 0.6826087 -0.6929047 -0.232225
vn 0.9997269 -0.009929782 0.0211549
vn 0.6215131 -0.4918716 -0.6097408
vn 0.2216535 -0.6425162 -0.733514
vn -0.01776046 -0.02537954 -0.9995201
vn 0.8694341 0.262614 -0.4184713
vn 0.04533574 0.6184182 -0.7845404
vn 0.7342327 0.6056285 -0.3067841
vn 0.2425283 0.6131399 -0.7518241
vn 0.09863801 0.6266418 -0.7730399
vn 0.02237693 0.6088632 -0.7929596
vn 0.01933032 0.5366314 -0.8435954
vn 0.0867423 0.5510731 -0.8299363
vn 0.01666327 0.4623932 -0.8865184
vn -0.2964619 0.5917613 -0.7496192
vn -0.2964619 0.5917613 -0.7496192
vn -0.1233608 0.633082 -0.7641919
vn 0.01666327 0.4623932 -0.8865184
vn -0.3444487 0.3704737 -0.8626149
vn -0.7426 0.0410157 -0.6684781
vn -0.8771539 0.1863017 -0.4425976
vn -0.7619544 0.5127603 -0.3956037
vn -0.04957533 0.02785263 -0.998382
vn 0.01933032 0.5366314 -0.8435954
vn 0.01172702 -0.7167543 -0.6972272
vn 0.02237693 0.6088632 -0.7929596
vn -0.01008401 -0.6961322 -0.7178429
vn -0.1312737 -0.509409 -0.8504527
vn -0.3631793 -0.5313957 -0.7653231
vn -0.8323543 -0.2873473 -0.4739386
vn 0.06745271 0.02563193 -0.9973932
vn 0.5003816 -0.4552859 -0.7364326
vn 0.09863801 0.6266418 -0.7730399
vn 0.7561808 0.01396488 -0.6542137
vn 0.2425283 0.6131399 -0.7518241
vn 0.7800931 0.1395763 -0.609896
vn 0.7342327 0.6056285 -0.3067841
vn -0.7619544 0.5127603 -0.3956037
vn -0.7602415 0.5898731 -0.2721811
vn -0.9346927 0.3194704 -0.1558467
vn -0.9999247 0.01224647 0.0007670775
vn -0.8771539 0.1863017 -0.4425976
vn -0.8323543 -0.2873473 -0.4739386
vn -0.7426 0.0410157 -0.6684781
vn -0.7131714 -0.6993561 -0.04782879
vn -0.6981035 -0.7126175 0.06948305
vn -0.8320341 -0.5201634 0.1927414
vn -0.9245619 0.3461184 -0.1593342
vn -0.493609 0.8037175 -0.3322475
vn -0.6967084 0.6746873 -0.2437097
vn -0.7060748 0.03095026 0.7074606
vn -0.5362288 -0.5343555 0.6533934
vn -0.990301 0.1386377 0.009142804
vn -0.7155563 0.6981287 -0.02440431
vn -0.6867036 0.09397793 0.7208372
vn -0.6483936 0.4807637 0.5902982
vn -0.7619544 0.5127603 -0.3956037
vn -0.3444487 0.3704737 -0.8626149
vn -0.1233608 0.633082 -0.7641919
vn -0.2964619 0.5917613 -0.7496192
vn -0.7602415 0.5898731 -0.2721811
vn -0.493609 0.8037175 -0.3322475
vn -0.9346927 0.3194704 -0.1558467
vn -0.8266881 0.5332631 0.1794917
vn -0.6967084 0.6746873 -0.2437097
vn -0.297496 0.9543375 0.02712978
vn -0.7155563 0.6981287 -0.02440431
vn -0.2329995 0.3946391 0.8888032
vn -0.6483936 0.4807637 0.5902982
vn -0.2329995 0.3946391 0.8888032
vn -0.8266881 0.5332631 0.1794917
vn -0.4270357 0.1042527 0.8982049
vn -0.707832 0.01146885 0.7062878
vn -0.9652596 -0.02555123 -0.2600407
vn -0.7111978 0.006577602 0.7029613
vn -0.9999954 0.002850334 -0.00106351
vn -0.8985634 -0.2861797 0.3326934
vn -0.9478949 0.04840454 -0.3148845
vn -0.2964619 0.5917613 -0.7496192
vn -0.6891972 0.03989335 -0.7234748
vn -0.3746181 0.03107045 -0.9266585
vn -0.529016 -0.03339659 -0.8479545
vn -0.7146733 0.002314464 -0.6994546
vn -0.7069678 0.02761513 0.7067064
vn -0.7995771 -0.5578757 0.2223766
vn -0.6273987 -0.1829682 0.7568973
vn -0.335614 -0.6333968 0.6972602
vn -0.7662294 0.6293225 0.1297912
vn -0.6350286 0.3903698 0.6665959
vn -0.704151 0.7100498 0.0007862084
vn -0.9642793 -0.2070261 0.1652438
vn -0.6813719 -0.541367 -0.4925994
vn -0.9406217 -0.007617455 0.3393713
vn -0.982692 0.02792091 0.1831306
vn -0.637473 0.7642164 0.09798766
vn -0.9126976 0.03025164 0.4075144
vn -0.8733666 0.4569563 0.1685878
vn -0.9257342 -0.02585442 0.37729
vn -0.8808074 -0.3684162 0.2974016
vn -0.7395875 -0.3892675 -0.549073
vn -0.7153395 0.07132898 -0.6951271
vn -0.9618319 0.01872117 0.2730001
vn -0.7453091 0.6314418 -0.2139988
vn -0.2197951 0.5983669 -0.770485
vn -0.6350286 0.3903698 0.6665959
vn -0.1017338 0.7053393 0.7015316
vn -0.7069678 0.02761513 0.7067064
vn -0.1679239 -0.6539219 0.7376908
vn -0.6273987 -0.1829682 0.7568973
vn -0.335614 -0.6333968 0.6972602
vn -0.0620882 -0.2259979 0.9721471
vn -0.01556364 -0.8765159 0.4811213
vn -0.1276697 -0.8293462 0.5439534
vn -0.2374225 -0.6684633 0.7048314
vn 0.01241203 0.7163755 0.6976045
vn -0.06074845 -0.6547098 0.7534353
vn 0.06718148 0.6604539 0.7478552
vn 0.06822385 -0.2932494 0.9535986
vn -0.06473282 -0.9131189 0.4025215
vn 0.6820543 0.02235079 0.7309599
vn 0.229671 -0.02947587 0.9728219
vn 0.5777743 -0.2955085 0.760823
vn 0.07116339 0.1376239 0.9879248
vn 0.2157501 0.7758557 0.5928743
vn 0.7043663 0.427205 0.5668899
vn -0.1679239 -0.6539219 0.7376908
vn -0.7995771 -0.5578757 0.2223766
vn -0.335614 -0.6333968 0.6972602
vn -0.0813565 -0.6145479 0.7846732
vn -0.8985634 -0.2861797 0.3326934
vn -0.01556364 -0.8765159 0.4811213
vn -0.1626069 -0.69349 0.7018765
vn -0.1276697 -0.8293462 0.5439534
vn -0.2374225 -0.6684633 0.7048314
vn -0.1773042 -0.6338397 0.7528682
vn -0.06074845 -0.6547098 0.7534353
vn -0.06473282 -0.9131189 0.4025215
vn -0.1205883 -0.8161758 0.5650801
vn 0.09793297 -0.976864 0.1901204
vn 0.6067395 -0.6963831 0.3832985
vn 0.7576799 -0.6526141 -0.00399154
vn 0.7601811 -0.6496767 0.00669991
vn 0.6262258 -0.5329792 -0.5690118
vn 0.5229557 -0.8401521 -0.1437427
vn 0.2106181 -0.7086232 -0.673419
vn 0.2645767 -0.9453199 0.1907079
vn 0.1457872 -0.7638806 -0.6286752
vn -0.4275065 -0.6853101 -0.5895662
vn -0.475269 -0.7976179 0.3713827
vn 0.008317282 -0.9985052 0.05401951
vn -0.01628131 -0.5528424 -0.8331267
vn -0.6262438 -0.7487316 -0.2173012
vn -0.1053388 -0.2553916 -0.9610821
vn 0.2157501 0.7758557 0.5928743
vn 0.6517243 0.757222 0.04324727
vn 0.7043663 0.427205 0.5668899
vn 0.06718148 0.6604539 0.7478552
vn 0.01241203 0.7163755 0.6976045
vn 0.7110296 0.7029198 -0.01845709
vn -0.2971885 0.9545846 0.02114884
vn -0.1017338 0.7053393 0.7015316
vn -0.7662294 0.6293225 0.1297912
vn -0.6350286 0.3903698 0.6665959
vn -0.704151 0.7100498 0.0007862084
vn -0.01108367 0.9981932 -0.05905396
vn 0.03504558 0.8381535 -0.5443074
vn 0.7569077 0.6317952 -0.1671094
vn 0.396288 0.5385649 -0.743575
vn -0.021278 0.6363503 -0.7711068
vn -0.09670259 0.9903778 -0.09899747
vn -0.2197951 0.5983669 -0.770485
vn -0.637473 0.7642164 0.09798766
vn -0.7453091 0.6314418 -0.2139988
vn -0.8733666 0.4569563 0.1685878
vn 0.6517243 0.757222 0.04324727
vn 0.7110296 0.7029198 -0.01845709
vn 0.7043663 0.427205 0.5668899
vn 0.7256786 -0.0169795 -0.6878244
vn 0.7569077 0.6317952 -0.1671094
vn 0.396288 0.5385649 -0.743575
vn 0.7576799 -0.6526141 -0.00399154
vn 0.6262258 -0.5329792 -0.5690118
vn 0.7128193 -0.05186132 -0.6994277
vn 0.6067395 -0.6963831 0.3832985
vn 0.6820543 0.02235079 0.7309599
vn 0.5777743 -0.2955085 0.760823
vn -0.6813719 -0.541367 -0.4925994
vn -0.8808074 -0.3684162 0.2974016
vn -0.9642793 -0.2070261 0.1652438
vn -0.4001824 -0.6865177 -0.6070812
vn -0.7395875 -0.3892675 -0.549073
vn -0.1369954 -0.7774982 -0.6137824
vn -0.1152069 -0.6126602 -0.7819046
vn -0.004360395 -0.6834533 -0.7299812
vn -0.3226022 -0.6731042 -0.6654762
vn -0.2376899 -0.4033518 -0.883635
vn -0.1369954 -0.7774982 -0.6137824
vn -0.004360395 -0.6834533 -0.7299812
vn -0.4001824 -0.6865177 -0.6070812
vn -0.03940122 -0.1488942 -0.9880679
vn -0.7395875 -0.3892675 -0.549073
vn -0.7153395 0.07132898 -0.6951271
vn -0.2197951 0.5983669 -0.770485
vn -0.021278 0.6363503 -0.7711068
vn 0.05660665 0.3180098 -0.946396
vn 0.03504558 0.8381535 -0.5443074
vn 0.396288 0.5385649 -0.743575
vn 0.7256786 -0.0169795 -0.6878244
vn 0.7128193 -0.05186132 -0.6994277
vn 0.6262258 -0.5329792 -0.5690118
vn -0.2376899 -0.4033518 -0.883635
vn 0.2106181 -0.7086232 -0.673419
vn -0.6309009 -0.3323414 -0.70108
vn 0.1457872 -0.7638806 -0.6286752
vn -0.4275065 -0.6853101 -0.5895662
vn -0.475269 -0.7976179 0.3713827
vn -0.4275065 -0.6853101 -0.5895662
vn -0.6262438 -0.7487316 -0.2173012
vn -0.9439849 -0.3175204 -0.08985162
vn -0.3226022 -0.6731042 -0.6654762
vn -0.6309009 -0.3323414 -0.70108
vn -0.2376899 -0.4033518 -0.883635
vt 0.04864792 0.5865268
vt 0.05330168 0.6006242
vt 0.05330168 0.5859125
vt 0.04671665 0.5105688
vt 0.05113745 0.5165092
vt 0.05113745 0.4964029
vt 0.04864791 0.6050034
vt 0.04864791 0.619661
vt 0.0526927 0.6076744
vt 0.6597145 0.1431266
vt 0.6586795 0.155675
vt 0.669172 0.1592991
vt 0.7051748 0.1592378
vt 0.6910217 0.1308528
vt 0.6719543 0.1137916
vt 0.6617952 0.1215921
vt 0.6659375 0.1161365
vt 0.7443011 0.1158314
vt 0.7413124 0.1493717
vt 0.7330188 0.1593633
vt 0.7407271 0.1565564
vt 0.7461599 0.1470974
vt 0.7036028 0.08055556
vt 0.6723101 0.0808841
vt 0.7445989 0.0948059
vt 0.7080269 0.03747391
vt 0.7281355 0.003363254
vt 0.7425945 0.05124716
vt 0.7409809 0.002937834
vt 0.7415112 0.002189465
vt 0.6939933 0.003016844
vt 0.6904644 0.02303101
vt 0.6690744 0.003699294
vt 0.670108 0.01218054
vt 0.6701595 0.04588205
vt 0.6703343 0.02645171
vt 0.6691012 0.03198921
vt 0.668371 0.05985202
vt 0.6685125 0.07993059
vt 0.7489209 0.2583526
vt 0.7594829 0.2342712
vt 0.7490008 0.2367945
vt 0.7954836 0.2336564
vt 0.8034298 0.2875255
vt 0.8233387 0.2365688
vt 0.8009365 0.2898305
vt 0.7489209 0.3147369
vt 0.8361182 0.2519114
vt 0.8310466 0.2362285
vt 0.8362578 0.2415111
vt 0.8359817 0.2743827
vt 0.8351895 0.2786354
vt 0.8106502 0.2868723
vt 0.8369238 0.2809329
vt 0.8013268 0.2910236
vt 0.7945432 0.3480588
vt 0.8366814 0.3353526
vt 0.822147 0.3486752
vt 0.8301118 0.3488046
vt 0.8365828 0.3470302
vt 0.7707361 0.3492104
vt 0.7567542 0.3411451
vt 0.7510353 0.3414796
vt 0.7494023 0.33319
vt 0.7549398 0.3491908
vt 0.6286895 0.6201785
vt 0.6317639 0.6273779
vt 0.6370891 0.6270643
vt 0.6328224 0.6180167
vt 0.647427 0.6299908
vt 0.6630439 0.5934609
vt 0.6699057 0.6298261
vt 0.629347 0.5656768
vt 0.6291403 0.5866937
vt 0.6661647 0.5936729
vt 0.6741847 0.628424
vt 0.6764636 0.6298279
vt 0.6647323 0.5356508
vt 0.6300293 0.5220953
vt 0.6664574 0.5281329
vt 0.6688542 0.5931442
vt 0.7291965 0.469049
vt 0.6305857 0.4737691
vt 0.6980128 0.6016286
vt 0.7308898 0.6299908
vt 0.7446711 0.5932528
vt 0.742619 0.6276979
vt 0.7440504 0.5756664
vt 0.7282125 0.5496652
vt 0.7425672 0.551408
vt 0.7230513 0.5411021
vt 0.7289633 0.4885196
vt 0.6805324 0.466278
vt 0.6424558 0.4713505
vt 0.6299403 0.4730242
vt 0.6848339 0.4644232
vt 0.6909813 0.4644485
vt 0.7292705 0.4560483
vt 0.5036175 0.6647347
vt 0.5134376 0.6714472
vt 0.5132648 0.6629986
vt 0.4878593 0.6622845
vt 0.4824094 0.6903659
vt 0.51456 0.6912696
vt 0.516582 0.71913
vt 0.486473 0.6589872
vt 0.4890174 0.661874
vt 0.4852463 0.7400464
vt 0.5169891 0.7391949
vt 0.4159341 0.683093
vt 0.4423168 0.6592633
vt 0.415134 0.6623877
vt 0.4184612 0.6506852
vt 0.4186688 0.7283723
vt 0.4397524 0.7683846
vt 0.4154915 0.7599555
vt 0.4158592 0.7367467
vt 0.4822588 0.7729661
vt 0.5141562 0.7729661
vt 0.5126787 0.7402337
vt 0.5143603 0.7400595
vt 0.518729 0.9650154
vt 0.5211158 0.9962175
vt 0.5211158 0.9610402
vt 0.5169465 0.9635998
vt 0.489594 0.9655756
vt 0.3205162 0.7797784
vt 0.321146 0.8116695
vt 0.3265308 0.7797318
vt 0.3311754 0.7838445
vt 0.3337964 0.7988079
vt 0.3344931 0.8245773
vt 0.3334967 0.8516329
vt 0.3208309 0.8540712
vt 0.3303764 0.8739235
vt 0.3205162 0.8781514
vt 0.3979227 0.6563268
vt 0.3903211 0.6557353
vt 0.3883197 0.6616285
vt 0.3848109 0.6443619
vt 0.3619338 0.642993
vt 0.382879 0.6410941
vt 0.3883094 0.6412733
vt 0.3649361 0.6804664
vt 0.3859534 0.6843088
vt 0.3454341 0.7358211
vt 0.3868463 0.7114271
vt 0.3401363 0.6796815
vt 0.340492 0.6610839
vt 0.3401363 0.6527853
vt 0.3440936 0.6446055
vt 0.3730864 0.7396981
vt 0.3512485 0.7568784
vt 0.38788 0.7372351
vt 0.3639982 0.7581866
vt 0.3891517 0.7521462
vt 0.3855184 0.7564991
vt 0.3910704 0.7560716
vt 0.9070297 0.9353396
vt 0.913963 0.9231216
vt 0.9170923 0.9124643
vt 0.8775448 0.9103799
vt 0.9017694 0.9382178
vt 0.8628892 0.940483
vt 0.8808814 0.9417568
vt 0.8554645 0.9248266
vt 0.8554645 0.8734056
vt 0.8581057 0.8653937
vt 0.9249098 0.8942017
vt 0.917859 0.9158958
vt 0.928887 0.8886465
vt 0.8923603 0.8581738
vt 0.8578987 0.858893
vt 0.9264436 0.8748994
vt 0.9368701 0.8691906
vt 0.9099421 0.8589199
vt 0.9341943 0.8620983
vt 0.05412033 0.8188239
vt 0.05126479 0.8141193
vt 0.0393778 0.814741
vt 0.03822768 0.8223136
vt 0.05377461 0.8309063
vt 0.05204454 0.8380787
vt 0.05389724 0.8414977
vt 0.03977153 0.8838568
vt 0.05408232 0.8650731
vt 0.04760087 0.8841822
vt 0.05316061 0.8843802
vt 0.03978213 0.8936333
vt 0.05412033 0.8915114
vt 0.6708362 0.3811906
vt 0.6797584 0.3743532
vt 0.6699998 0.372718
vt 0.6639726 0.320425
vt 0.7338307 0.324438
vt 0.6617255 0.3010829
vt 0.6886038 0.2597224
vt 0.6599092 0.288207
vt 0.7371668 0.3631204
vt 0.7445419 0.3933992
vt 0.7414252 0.3703936
vt 0.74051 0.3620775
vt 0.735263 0.3170312
vt 0.7326618 0.2964692
vt 0.6428353 0.2641824
vt 0.6532782 0.2873319
vt 0.6458751 0.2831489
vt 0.6467219 0.2891282
vt 0.6553643 0.2429304
vt 0.6419801 0.2500665
vt 0.7041516 0.235423
vt 0.7242867 0.2800339
vt 0.7318357 0.2847687
vt 0.7192312 0.2613281
vt 0.7143417 0.242035
vt 0.7176424 0.2343798
vt 0.7213016 0.2424874
vt 0.723375 0.2361527
vt 0.7256421 0.2675014
vt 0.7282734 0.2771795
vt 0.7437024 0.2755681
vt 0.7445419 0.2425111
vt 0.7246557 0.2534558
vt 0.736426 0.2352415
vt 0.744172 0.2336565
vt 0.154174 0.7629341
vt 0.1470588 0.7755116
vt 0.1683538 0.7627421
vt 0.1966479 0.7892087
vt 0.1873684 0.7657159
vt 0.1929859 0.7710735
vt 0.1936108 0.807181
vt 0.1988155 0.8004199
vt 0.1962301 0.8068826
vt 0.2002847 0.8153575
vt 0.1437397 0.8103026
vt 0.2017767 0.8466939
vt 0.1437397 0.8457412
vt 0.1991344 0.8540981
vt 0.2031611 0.8603332
vt 0.1706414 0.8723016
vt 0.1928024 0.8725916
vt 0.1982616 0.8742051
vt 0.1477288 0.8545098
vt 0.1438171 0.8666868
vt 0.1451247 0.8704135
vt 0.8505616 0.2047598
vt 0.8424067 0.2287216
vt 0.849078 0.2224697
vt 0.8362507 0.1905779
vt 0.8359551 0.2286751
vt 0.8479291 0.1937979
vt 0.8363485 0.1844316
vt 0.8479787 0.1871212
vt 0.8505278 0.1790671
vt 0.8362836 0.1801713
vt 0.8505616 0.1480088
vt 0.8457994 0.1345534
vt 0.8366174 0.1422145
vt 0.8368637 0.1297386
vt 0.8463691 0.1197482
vt 0.7700601 0.1195864
vt 0.7893453 0.129687
vt 0.7505389 0.1197036
vt 0.7644238 0.1302293
vt 0.7509282 0.1267136
vt 0.7594441 0.1332847
vt 0.7514004 0.1336765
vt 0.7510615 0.1524245
vt 0.7614082 0.1525659
vt 0.7636191 0.1400399
vt 0.7643988 0.1399092
vt 0.7634817 0.1544426
vt 0.7646049 0.1556178
vt 0.7515134 0.4596346
vt 0.779422 0.4564521
vt 0.7513648 0.4560483
vt 0.74905 0.4804735
vt 0.7491181 0.5157529
vt 0.8115709 0.4560483
vt 0.7730669 0.5631482
vt 0.7491479 0.550702
vt 0.763909 0.5651996
vt 0.7496898 0.5638981
vt 0.8132727 0.565019
vt 0.8448868 0.5294595
vt 0.852971 0.4839765
vt 0.8459652 0.4563664
vt 0.8529899 0.4597241
vt 0.8536586 0.5287399
vt 0.837662 0.5555311
vt 0.8532134 0.5613834
vt 0.8267708 0.5656859
vt 0.8452066 0.5694472
vt 0.8321506 0.5695941
vt 0.2795317 0.8532884
vt 0.2793706 0.8211395
vt 0.2738715 0.8813577
vt 0.2649162 0.7812088
vt 0.2757915 0.7867532
vt 0.2754851 0.7797318
vt 0.2159661 0.8044159
vt 0.2159226 0.7848955
vt 0.2474571 0.7824113
vt 0.2159226 0.8807256
vt 0.2483386 0.8843263
vt 0.2206476 0.884231
vt 0.9328005 0.1889627
vt 0.9352178 0.1971373
vt 0.9395977 0.1928899
vt 0.9200802 0.1891352
vt 0.919714 0.196948
vt 0.920971 0.1639908
vt 0.9333696 0.1652883
vt 0.919714 0.1426671
vt 0.9342179 0.1211415
vt 0.9203681 0.1195864
vt 0.7918651 0.7856551
vt 0.7923597 0.8069289
vt 0.7997239 0.7604069
vt 0.806504 0.782868
vt 0.806504 0.752511
vt 0.8389786 0.7524883
vt 0.8477618 0.7609627
vt 0.8503935 0.7935744
vt 0.8498385 0.8430477
vt 0.8510855 0.8383355
vt 0.8474803 0.8626326
vt 0.8369414 0.8660578
vt 0.8195168 0.8660486
vt 0.788052 0.866038
vt 0.7924352 0.8300194
vt 0.7864515 0.8590488
vt 0.7872594 0.8315377
vt 0.7830729 0.8521268
vt 0.7836251 0.8333695
vt 0.9116932 0.8504709
vt 0.9125422 0.8401215
vt 0.9069309 0.8517396
vt 0.9047667 0.8431059
vt 0.9039721 0.8519114
vt 0.9090309 0.8390187
vt 0.9039721 0.8378458
usemtl MV_RockCubic_Cliff
f 1/1/1 3/3/3 2/2/2
f 4/4/4 6/6/6 5/5/5
f 7/7/7 9/9/9 8/8/8
f 10/10/10 12/12/12 11/11/11
f 13/13/13 12/12/12 10/10/10
f 14/14/14 13/13/13 10/10/10
f 14/14/14 10/10/10 15/15/15
f 15/15/15 10/10/10 16/16/16
f 17/17/17 15/15/15 16/16/16
f 14/14/14 18/18/18 13/13/13
f 18/18/18 14/14/14 15/15/15
f 19/19/19 13/13/13 18/18/18
f 20/20/20 13/13/13 19/19/19
f 21/21/21 20/20/20 19/19/19
f 22/22/22 19/19/19 18/18/18
f 18/18/18 15/15/15 23/23/23
f 15/15/15 24/24/24 23/23/23
f 25/25/25 18/18/18 23/23/23
f 26/26/26 25/25/25 23/23/23
f 27/27/27 25/25/25 26/26/26
f 25/25/25 27/27/27 28/28/28
f 28/28/28 27/27/27 29/29/29
f 29/29/29 27/27/27 30/30/30
f 31/31/31 30/30/30 27/27/27
f 31/31/31 27/27/27 26/26/26
f 26/26/26 32/32/32 31/31/31
f 33/33/33 31/31/31 32/32/32
f 32/32/32 34/34/34 33/33/33
f 26/26/26 23/23/23 35/35/35
f 26/26/26 35/35/35 32/32/32
f 34/34/34 32/32/32 36/36/36
f 36/36/36 32/32/32 35/35/35
f 37/37/37 34/34/34 36/36/36
f 37/37/37 36/36/36 35/35/35
f 37/37/37 35/35/35 38/38/38
f 23/23/23 38/38/38 35/35/35
f 23/23/23 39/39/39 38/38/38
f 40/40/40 42/42/42 41/41/41
f 40/40/40 41/41/41 43/43/43
f 44/44/44 40/40/40 43/43/43
f 44/44/44 43/43/43 45/45/45
f 46/46/46 40/40/40 44/44/44
f 46/46/46 47/47/47 40/40/40
f 48/48/48 44/44/44 45/45/45
f 48/48/48 45/45/45 49/49/49
f 48/48/48 49/49/49 50/50/50
f 51/51/51 44/44/44 48/48/48
f 52/52/52 44/44/44 51/51/51
f 52/52/52 53/53/53 44/44/44
f 46/46/46 44/44/44 53/53/53
f 54/54/54 53/53/53 52/52/52
f 46/46/46 53/53/53 55/55/55
f 54/54/54 55/55/55 53/53/53
f 47/47/47 46/46/46 55/55/55
f 54/54/54 56/56/56 55/55/55
f 47/47/47 55/55/55 56/56/56
f 54/54/54 57/57/57 56/56/56
f 57/57/57 58/58/58 56/56/56
f 59/59/59 58/58/58 57/57/57
f 57/57/57 60/60/60 59/59/59
f 58/58/58 61/61/61 56/56/56
f 56/56/56 62/62/62 47/47/47
f 62/62/62 56/56/56 61/61/61
f 63/63/63 47/47/47 62/62/62
f 62/62/62 61/61/61 63/63/63
f 47/47/47 63/63/63 64/64/64
f 63/63/63 61/61/61 65/65/65
f 66/66/66 68/68/68 67/67/67
f 69/69/69 68/68/68 66/66/66
f 69/69/69 70/70/70 68/68/68
f 71/71/71 70/70/70 69/69/69
f 71/71/71 72/72/72 70/70/70
f 73/73/73 71/71/71 69/69/69
f 69/69/69 74/74/74 73/73/73
f 72/72/72 71/71/71 75/75/75
f 72/72/72 75/75/75 76/76/76
f 77/77/77 76/76/76 75/75/75
f 78/78/78 71/71/71 73/73/73
f 78/78/78 75/75/75 71/71/71
f 79/79/79 78/78/78 73/73/73
f 80/80/80 75/75/75 78/78/78
f 79/79/79 80/80/80 78/78/78
f 75/75/75 80/80/80 81/81/81
f 77/77/77 75/75/75 81/81/81
f 82/82/82 80/80/80 79/79/79
f 82/82/82 79/79/79 83/83/83
f 81/81/81 84/84/84 77/77/77
f 80/80/80 84/84/84 81/81/81
f 85/85/85 77/77/77 84/84/84
f 85/85/85 84/84/84 86/86/86
f 80/80/80 86/86/86 84/84/84
f 85/85/85 86/86/86 87/87/87
f 86/86/86 80/80/80 88/88/88
f 80/80/80 89/89/89 88/88/88
f 90/90/90 88/88/88 89/89/89
f 91/91/91 89/89/89 80/80/80
f 80/80/80 92/92/92 91/91/91
f 82/82/82 92/92/92 80/80/80
f 93/93/93 82/82/82 83/83/83
f 94/94/94 93/93/93 83/83/83
f 95/95/95 94/94/94 83/83/83
f 93/93/93 96/96/96 82/82/82
f 96/96/96 97/97/97 82/82/82
f 98/98/98 82/82/82 97/97/97
f 99/99/99 101/101/101 100/100/100
f 99/99/99 100/100/100 102/102/102
f 102/102/102 100/100/100 103/103/103
f 100/100/100 104/104/104 103/103/103
f 103/103/103 104/104/104 105/105/105
f 102/102/102 103/103/103 106/106/106
f 102/102/102 106/106/106 107/107/107
f 105/105/105 108/108/108 103/103/103
f 108/108/108 105/105/105 109/109/109
f 106/106/106 103/103/103 110/110/110
f 111/111/111 106/106/106 110/110/110
f 112/112/112 111/111/111 110/110/110
f 113/113/113 111/111/111 112/112/112
f 114/114/114 110/110/110 103/103/103
f 103/103/103 108/108/108 114/114/114
f 114/114/114 108/108/108 115/115/115
f 114/114/114 115/115/115 116/116/116
f 114/114/114 116/116/116 117/117/117
f 108/108/108 118/118/118 115/115/115
f 108/108/108 119/119/119 118/118/118
f 120/120/120 119/119/119 108/108/108
f 121/121/121 119/119/119 120/120/120
f 122/122/122 124/124/124 123/123/123
f 125/125/125 124/124/124 122/122/122
f 125/125/125 126/126/126 124/124/124
f 127/127/127 129/129/129 128/128/128
f 128/128/128 129/129/129 130/130/130
f 128/128/128 130/130/130 131/131/131
f 132/132/132 128/128/128 131/131/131
f 128/128/128 132/132/132 133/133/133
f 134/134/134 128/128/128 133/133/133
f 134/134/134 133/133/133 135/135/135
f 136/136/136 134/134/134 135/135/135
f 137/137/137 139/139/139 138/138/138
f 138/138/138 139/139/139 140/140/140
f 141/141/141 140/140/140 139/139/139
f 142/142/142 140/140/140 141/141/141
f 140/140/140 142/142/142 143/143/143
f 144/144/144 141/141/141 139/139/139
f 139/139/139 145/145/145 144/144/144
f 145/145/145 146/146/146 144/144/144
f 145/145/145 147/147/147 146/146/146
f 144/144/144 146/146/146 148/148/148
f 149/149/149 144/144/144 148/148/148
f 144/144/144 149/149/149 141/141/141
f 141/141/141 149/149/149 150/150/150
f 151/151/151 141/141/141 150/150/150
f 147/147/147 152/152/152 146/146/146
f 153/153/153 146/146/146 152/152/152
f 154/154/154 152/152/152 147/147/147
f 155/155/155 153/153/153 152/152/152
f 154/154/154 155/155/155 152/152/152
f 154/154/154 156/156/156 155/155/155
f 156/156/156 157/157/157 155/155/155
f 158/158/158 157/157/157 156/156/156
f 159/159/159 161/161/161 160/160/160
f 161/161/161 159/159/159 162/162/162
f 159/159/159 163/163/163 162/162/162
f 162/162/162 163/163/163 164/164/164
f 164/164/164 163/163/163 165/165/165
f 162/162/162 164/164/164 166/166/166
f 162/162/162 166/166/166 167/167/167
f 167/167/167 168/168/168 162/162/162
f 162/162/162 169/169/169 161/161/161
f 170/170/170 161/161/161 169/169/169
f 171/171/171 170/170/170 169/169/169
f 172/172/172 162/162/162 168/168/168
f 172/172/172 169/169/169 162/162/162
f 173/173/173 172/172/172 168/168/168
f 171/171/171 169/169/169 174/174/174
f 174/174/174 169/169/169 172/172/172
f 175/175/175 171/171/171 174/174/174
f 174/174/174 172/172/172 176/176/176
f 177/177/177 175/175/175 174/174/174
f 177/177/177 174/174/174 176/176/176
f 178/178/178 180/180/180 179/179/179
f 181/181/181 180/180/180 178/178/178
f 182/182/182 181/181/181 178/178/178
f 182/182/182 183/183/183 181/181/181
f 184/184/184 183/183/183 182/182/182
f 185/185/185 181/181/181 183/183/183
f 186/186/186 185/185/185 183/183/183
f 187/187/187 185/185/185 186/186/186
f 187/187/187 186/186/186 188/188/188
f 187/187/187 189/189/189 185/185/185
f 190/190/190 187/187/187 188/188/188
f 190/190/190 189/189/189 187/187/187
f 191/191/191 193/193/193 192/192/192
f 194/194/194 192/192/192 193/193/193
f 195/195/195 192/192/192 194/194/194
f 194/194/194 196/196/196 195/195/195
f 196/196/196 197/197/197 195/195/195
f 198/198/198 197/197/197 196/196/196
f 192/192/192 195/195/195 199/199/199
f 199/199/199 200/200/200 192/192/192
f 200/200/200 199/199/199 201/201/201
f 202/202/202 201/201/201 199/199/199
f 199/199/199 195/195/195 202/202/202
f 195/195/195 203/203/203 202/202/202
f 195/195/195 204/204/204 203/203/203
f 197/197/197 204/204/204 195/195/195
f 198/198/198 205/205/205 197/197/197
f 206/206/206 205/205/205 198/198/198
f 205/205/205 206/206/206 207/207/207
f 207/207/207 206/206/206 208/208/208
f 205/205/205 209/209/209 197/197/197
f 205/205/205 210/210/210 209/209/209
f 197/197/197 209/209/209 211/211/211
f 197/197/197 212/212/212 204/204/204
f 212/212/212 197/197/197 211/211/211
f 213/213/213 204/204/204 212/212/212
f 211/211/211 214/214/214 212/212/212
f 211/211/211 215/215/215 214/214/214
f 215/215/215 211/211/211 216/216/216
f 216/216/216 217/217/217 215/215/215
f 214/214/214 215/215/215 217/217/217
f 216/216/216 218/218/218 217/217/217
f 212/212/212 214/214/214 219/219/219
f 212/212/212 219/219/219 220/220/220
f 219/219/219 221/221/221 220/220/220
f 222/222/222 221/221/221 219/219/219
f 214/214/214 217/217/217 223/223/223
f 223/223/223 219/219/219 214/214/214
f 217/217/217 218/218/218 223/223/223
f 222/222/222 219/219/219 223/223/223
f 218/218/218 222/222/222 223/223/223
f 222/222/222 218/218/218 224/224/224
f 225/225/225 222/222/222 224/224/224
f 226/226/226 228/228/228 227/227/227
f 227/227/227 228/228/228 229/229/229
f 229/229/229 228/228/228 230/230/230
f 231/231/231 229/229/229 230/230/230
f 227/227/227 229/229/229 232/232/232
f 233/233/233 232/232/232 229/229/229
f 234/234/234 232/232/232 233/233/233
f 232/232/232 234/234/234 235/235/235
f 227/227/227 232/232/232 236/236/236
f 235/235/235 236/236/236 232/232/232
f 237/237/237 236/236/236 235/235/235
f 236/236/236 237/237/237 238/238/238
f 237/237/237 239/239/239 238/238/238
f 239/239/239 237/237/237 240/240/240
f 241/241/241 238/238/238 239/239/239
f 239/239/239 242/242/242 241/241/241
f 239/239/239 243/243/243 242/242/242
f 242/242/242 243/243/243 241/241/241
f 238/238/238 241/241/241 244/244/244
f 244/244/244 245/245/245 238/238/238
f 246/246/246 244/244/244 241/241/241
f 246/246/246 245/245/245 244/244/244
f 247/247/247 249/249/249 248/248/248
f 247/247/247 248/248/248 250/250/250
f 251/251/251 250/250/250 248/248/248
f 252/252/252 247/247/247 250/250/250
f 252/252/252 250/250/250 253/253/253
f 253/253/253 254/254/254 252/252/252
f 254/254/254 253/253/253 255/255/255
f 255/255/255 253/253/253 256/256/256
f 257/257/257 255/255/255 256/256/256
f 257/257/257 256/256/256 258/258/258
f 258/258/258 256/256/256 259/259/259
f 260/260/260 258/258/258 259/259/259
f 260/260/260 261/261/261 258/258/258
f 261/261/261 260/260/260 262/262/262
f 262/262/262 260/260/260 263/263/263
f 262/262/262 263/263/263 264/264/264
f 263/263/263 265/265/265 264/264/264
f 264/264/264 265/265/265 266/266/266
f 265/265/265 267/267/267 266/266/266
f 268/268/268 266/266/266 267/267/267
f 268/268/268 267/267/267 269/269/269
f 267/267/267 270/270/270 269/269/269
f 271/271/271 270/270/270 267/267/267
f 271/271/271 267/267/267 265/265/265
f 265/265/265 272/272/272 271/271/271
f 273/273/273 271/271/271 272/272/272
f 274/274/274 273/273/273 272/272/272
f 275/275/275 277/277/277 276/276/276
f 276/276/276 278/278/278 275/275/275
f 278/278/278 276/276/276 279/279/279
f 279/279/279 276/276/276 280/280/280
f 279/279/279 280/280/280 281/281/281
f 281/281/281 282/282/282 279/279/279
f 281/281/281 283/283/283 282/282/282
f 284/284/284 282/282/282 283/283/283
f 281/281/281 285/285/285 283/283/283
f 280/280/280 286/286/286 281/281/281
f 281/281/281 286/286/286 285/285/285
f 280/280/280 287/287/287 286/286/286
f 287/287/287 280/280/280 288/288/288
f 288/288/288 289/289/289 287/287/287
f 286/286/286 287/287/287 290/290/290
f 285/285/285 286/286/286 291/291/291
f 291/291/291 286/286/286 290/290/290
f 291/291/291 290/290/290 292/292/292
f 293/293/293 285/285/285 291/291/291
f 293/293/293 291/291/291 292/292/292
f 294/294/294 293/293/293 292/292/292
f 294/294/294 295/295/295 293/293/293
f 296/296/296 298/298/298 297/297/297
f 297/297/297 298/298/298 299/299/299
f 297/297/297 299/299/299 300/300/300
f 299/299/299 301/301/301 300/300/300
f 302/302/302 299/299/299 298/298/298
f 299/299/299 302/302/302 303/303/303
f 303/303/303 304/304/304 299/299/299
f 305/305/305 302/302/302 298/298/298
f 305/305/305 298/298/298 306/306/306
f 307/307/307 305/305/305 306/306/306
f 308/308/308 310/310/310 309/309/309
f 309/309/309 311/311/311 308/308/308
f 309/309/309 312/312/312 311/311/311
f 313/313/313 308/308/308 311/311/311
f 314/314/314 308/308/308 313/313/313
f 314/314/314 313/313/313 315/315/315
f 316/316/316 314/314/314 315/315/315
f 315/315/315 317/317/317 316/316/316
f 318/318/318 320/320/320 319/319/319
f 321/321/321 319/319/319 320/320/320
f 321/321/321 320/320/320 322/322/322
f 321/321/321 322/322/322 323/323/323
f 324/324/324 321/321/321 323/323/323
f 325/325/325 321/321/321 324/324/324
f 321/321/321 325/325/325 319/319/319
f 326/326/326 319/319/319 325/325/325
f 327/327/327 326/326/326 325/325/325
f 327/327/327 328/328/328 326/326/326
f 328/328/328 329/329/329 326/326/326
f 326/326/326 329/329/329 330/330/330
f 331/331/331 326/326/326 330/330/330
f 332/332/332 319/319/319 326/326/326
f 326/326/326 331/331/331 332/332/332
f 332/332/332 331/331/331 333/333/333
f 332/332/332 333/333/333 334/334/334
f 334/334/334 333/333/333 335/335/335
f 334/334/334 335/335/335 336/336/336
f 337/337/337 339/339/339 338/338/338
f 339/339/339 340/340/340 338/338/338
f 341/341/341 340/340/340 339/339/339
f 342/342/342 338/338/338 340/340/340
f 340/340/340 341/341/341 343/343/343
f 340/340/340 343/343/343 342/342/342
