mtllib P_CubicCliffPiece09.mtl
v -2.122852 10.73786 -0.373838
v -2.108372 10.63388 -2.577929
v -2.076985 10.62799 -3.105766
v 1.208996 10.47925 2.778954
v 1.778134 10.53467 1.987203
v 1.80653 9.902357 2.796112
v 2.004238 -10.89046 -2.017243
v 1.90913 -10.77255 -2.724767
v 1.877361 -10.8728 -2.629993
v 2.023189 -8.040852 -1.634485
v 1.847484 -8.15501 -2.799175
v 2.0247 -6.434566 3.165642
v 2.052655 -10.80186 3.238293
v 2.073482 -6.240677 -2.086003
v 1.871029 -6.016933 -2.938703
v 2.043377 -4.748211 -1.132904
v 2.107525 -3.205723 0.34732
v 2.099575 -3.304855 3.013757
v 2.062725 -2.040199 3.011866
v 2.007641 1.338345 2.990535
v 1.984143 3.983963 2.89718
v 1.928875 -4.068974 -2.407364
v 1.852886 -1.041515 -3.002148
v 1.809612 2.535511 -3.163569
v 1.945568 6.55201 -0.2909865
v 1.882122 8.294376 2.837492
v 1.801204 7.693378 -3.217842
v 1.756481 10.88342 -2.14405
v 1.80653 9.902357 2.796112
v 1.792003 9.972248 -3.284102
v 1.778134 10.53467 1.987203
v 1.726681 10.84095 -2.66596
v 1.308101 10.78502 -3.289686
v 1.71043 10.76978 1.781614
v 1.497082 10.83367 1.96614
v 1.208996 10.47925 2.778954
v 1.006939 10.72579 2.728767
v 1.90913 -10.77255 -2.724767
v -0.6387522 -10.46178 -2.746532
v 1.877361 -10.8728 -2.629993
v 0.4434927 -10.48502 -2.827034
v -1.283131 -10.05861 -2.744666
v 1.847484 -8.15501 -2.799175
v -1.57259 -9.689693 -2.743369
v 1.871029 -6.016933 -2.938703
v -1.692829 -7.792107 -2.83545
v -1.904988 -8.972652 -2.516834
v 1.807766 -2.593624 -2.978017
v 1.852886 -1.041515 -3.002148
v 1.809612 2.535511 -3.163569
v -2.028599 -1.455631 -2.931927
v -1.969425 -4.22982 -2.823195
v -2.064396 1.817577 -2.995776
v 1.801204 7.693378 -3.217842
v -1.289768 9.858715 -3.24896
v -2.105122 7.453007 -3.122869
v -2.076985 10.62799 -3.105766
v 0.0901906 10.72347 -3.291005
v 1.792003 9.972248 -3.284102
v 1.308101 10.78502 -3.289686
v -1.74979 -10.83464 1.1577
v -1.505192 -10.87388 -1.241317
v -1.886936 -10.846 -0.7090604
v 2.052655 -10.80186 3.238293
v -0.8385202 -10.90009 -2.075491
v -1.488025 -10.77047 3.256235
v 2.004238 -10.89046 -2.017243
v 1.877361 -10.8728 -2.629993
v -1.112797 -10.88204 -1.770752
v -1.283131 -10.05861 -2.744666
v -0.6387522 -10.46178 -2.746532
v -0.4523203 -10.87585 -2.343986
v -1.969425 -4.22982 -2.823195
v -1.904988 -8.972652 -2.516834
v -1.692829 -7.792107 -2.83545
v -1.903171 -8.482708 1.202669
v -2.149113 5.035419 0.05531854
v -2.028599 -1.455631 -2.931927
v -2.064396 1.817577 -2.995776
v -2.105122 7.453007 -3.122869
v -1.886997 -9.974682 -1.514105
v -1.57259 -9.689693 -2.743369
v -1.87418 -10.7201 -0.8815126
v -1.283131 -10.05861 -2.744666
v -1.505192 -10.87388 -1.241317
v -1.886936 -10.846 -0.7090604
v -1.74979 -10.83464 1.1577
v -1.6917 -7.837429 3.182219
v -1.488025 -10.77047 3.256235
v -1.92255 -4.426968 3.110238
v -2.005268 -0.5205574 3.03525
v -2.032032 1.754395 2.931165
v -2.074421 6.693081 2.565541
v -2.049274 3.29533 2.878015
v -2.142933 10.79729 0.9055175
v -2.104374 10.56977 2.38069
v -2.122852 10.73786 -0.373838
v -2.076985 10.62799 -3.105766
v -2.108372 10.63388 -2.577929
v 1.497082 10.83367 1.96614
v 1.756481 10.88342 -2.14405
v 1.71043 10.76978 1.781614
v 1.293285 10.95146 0.6472405
v -0.7421454 10.91093 1.417273
v 1.006939 10.72579 2.728767
v -2.104374 10.56977 2.38069
v -2.142933 10.79729 0.9055175
v -2.076985 10.62799 -3.105766
v 1.726681 10.84095 -2.66596
v 0.0901906 10.72347 -3.291005
v 1.308101 10.78502 -3.289686
v -2.104374 10.56977 2.38069
v 1.006939 10.72579 2.728767
v 1.208996 10.47925 2.778954
v -0.525852 5.845913 2.893789
v -2.074421 6.693081 2.565541
v -2.049274 3.29533 2.878015
v -2.032032 1.754395 2.931165
v -2.005268 -0.5205574 3.03525
v 1.882122 8.294376 2.837492
v 1.80653 9.902357 2.796112
v 1.904675 5.855576 2.8923
v 1.984143 3.983963 2.89718
v 2.007641 1.338345 2.990535
v 1.840924 -3.129101 3.096154
v 2.062725 -2.040199 3.011866
v 2.099575 -3.304855 3.013757
v 2.0247 -6.434566 3.165642
v -1.6917 -7.837429 3.182219
v -1.92255 -4.426968 3.110238
v -1.488025 -10.77047 3.256235
v 2.052655 -10.80186 3.238293
vn -0.9958267 0.08947827 -0.01796808
vn -0.8862215 0.4614641 -0.04076925
vn -0.6028635 0.567452 -0.560851
vn 0.2951839 0.3846216 0.8746043
vn 0.8931 0.3746966 0.2489474
vn 0.6922597 0.2050514 0.6919035
vn 0.7163385 -0.6953454 -0.05791281
vn 0.5963221 -0.3480527 -0.7233667
vn 0.3833902 -0.8353854 -0.3938821
vn 0.9981064 -0.01496823 -0.05966317
vn 0.6915056 -0.04690698 -0.7208466
vn 0.7037673 0.007243511 0.7103936
vn 0.5825188 -0.5663605 0.583016
vn 0.9952005 -0.005061565 -0.09772594
vn 0.6183578 -0.008634614 -0.7858492
vn 0.9994273 0.009748027 -0.03240623
vn 0.9997193 -1.320395E-05 -0.02369235
vn 0.8193091 0.01872156 0.5730464
vn 0.8049083 0.01975073 0.5930705
vn 0.6997979 0.02319925 0.7139641
vn 0.9208449 0.0266424 0.3890179
vn 0.994497 0.01458954 -0.1037441
vn 0.8730291 -0.01045413 -0.4875561
vn 0.6674063 -0.006573424 -0.7446648
vn 0.999537 0.02155089 -0.02148005
vn 0.7073685 0.04413819 0.7054656
vn 0.6910166 -0.008110011 -0.7227933
vn 0.6730304 0.7380351 -0.04831395
vn 0.6922597 0.2050514 0.6919035
vn 0.7125694 0.07290228 -0.6978039
vn 0.8931 0.3746966 0.2489474
vn 0.6414751 0.7412258 -0.1977221
vn 0.2152936 0.6702334 -0.7102365
vn 0.7054837 0.6909029 0.1579425
vn 0.3543318 0.8898219 0.2875167
vn 0.2951839 0.3846216 0.8746043
vn 0.1342655 0.688944 0.7122703
vn 0.5963221 -0.3480527 -0.7233667
vn -0.2172007 -0.4910893 -0.8435966
vn 0.3833902 -0.8353854 -0.3938821
vn -0.02953752 -0.3353873 -0.9416171
vn -0.4157302 -0.4070603 -0.8133083
vn 0.6915056 -0.04690698 -0.7208466
vn -0.5721316 -0.2752175 -0.7726065
vn 0.6183578 -0.008634614 -0.7858492
vn -0.4039075 -0.04324627 -0.9137771
vn -0.9131902 -0.1042484 -0.3939746
vn -0.04894616 -0.01837374 -0.9986324
vn 0.8730291 -0.01045413 -0.4875561
vn 0.6674063 -0.006573424 -0.7446648
vn -0.7178087 -0.03074744 -0.6955611
vn -0.8942344 -0.03469014 -0.4462527
vn -0.7148918 -0.02038288 -0.698938
vn 0.6910166 -0.008110011 -0.7227933
vn -0.08827303 0.01758504 -0.995941
vn -0.7333501 -0.01336481 -0.6797199
vn -0.6028635 0.567452 -0.560851
vn -0.04853454 0.6724283 -0.7385693
vn 0.7125694 0.07290228 -0.6978039
vn 0.2152936 0.6702334 -0.7102365
vn -0.6846237 -0.7242507 0.08216707
vn -0.3770167 -0.8965707 -0.2324205
vn -0.7274314 -0.6816447 -0.0787653
vn 0.5825188 -0.5663605 0.583016
vn -0.2829649 -0.910377 -0.3019015
vn -0.5176519 -0.5812215 0.6278679
vn 0.7163385 -0.6953454 -0.05791281
vn 0.3833902 -0.8353854 -0.3938821
vn -0.4503367 -0.8287905 -0.3321193
vn -0.4157302 -0.4070603 -0.8133083
vn -0.2172007 -0.4910893 -0.8435966
vn -0.1382706 -0.8892168 -0.4360902
vn -0.8942344 -0.03469014 -0.4462527
vn -0.9131902 -0.1042484 -0.3939746
vn -0.4039075 -0.04324627 -0.9137771
vn -0.9969996 -0.04219554 0.06489439
vn -0.9999549 -0.006756922 0.006676423
vn -0.7178087 -0.03074744 -0.6955611
vn -0.7148918 -0.02038288 -0.698938
vn -0.7333501 -0.01336481 -0.6797199
vn -0.9779626 -0.1452261 -0.1499956
vn -0.5721316 -0.2752175 -0.7726065
vn -0.8510646 -0.3960854 -0.3446817
vn -0.4157302 -0.4070603 -0.8133083
vn -0.3770167 -0.8965707 -0.2324205
vn -0.7274314 -0.6816447 -0.0787653
vn -0.6846237 -0.7242507 0.08216707
vn -0.6621619 -0.02818115 0.7488307
vn -0.5176519 -0.5812215 0.6278679
vn -0.7132936 -0.003913643 0.7008544
vn -0.7038692 0.00306787 0.7103231
vn -0.7307141 0.022333 0.6823182
vn -0.7608844 0.03529495 0.6479269
vn -0.7519773 0.02143241 0.6588405
vn -0.7206761 0.6927809 0.02609027
vn -0.6361837 0.5144464 0.5749915
vn -0.9958267 0.08947827 -0.01796808
vn -0.6028635 0.567452 -0.560851
vn -0.8862215 0.4614641 -0.04076925
vn 0.3543318 0.8898219 0.2875167
vn 0.6730304 0.7380351 -0.04831395
vn 0.7054837 0.6909029 0.1579425
vn 0.1390013 0.9900745 0.02076803
vn -0.06228957 0.9948006 0.08057245
vn 0.1342655 0.688944 0.7122703
vn -0.6361837 0.5144464 0.5749915
vn -0.7206761 0.6927809 0.02609027
vn -0.6028635 0.567452 -0.560851
vn 0.6414751 0.7412258 -0.1977221
vn -0.04853454 0.6724283 -0.7385693
vn 0.2152936 0.6702334 -0.7102365
vn -0.6361837 0.5144464 0.5749915
vn 0.1342655 0.688944 0.7122703
vn 0.2951839 0.3846216 0.8746043
vn -0.07746499 0.04745519 0.995865
vn -0.7608844 0.03529495 0.6479269
vn -0.7519773 0.02143241 0.6588405
vn -0.7307141 0.022333 0.6823182
vn -0.7038692 0.00306787 0.7103231
vn 0.7073685 0.04413819 0.7054656
vn 0.6922597 0.2050514 0.6919035
vn 0.2663446 0.02396954 0.9635798
vn 0.9208449 0.0266424 0.3890179
vn 0.6997979 0.02319925 0.7139641
vn 0.154414 0.02072501 0.9877889
vn 0.8049083 0.01975073 0.5930705
vn 0.8193091 0.01872156 0.5730464
vn 0.7037673 0.007243511 0.7103936
vn -0.6621619 -0.02818115 0.7488307
vn -0.7132936 -0.003913643 0.7008544
vn -0.5176519 -0.5812215 0.6278679
vn 0.5825188 -0.5663605 0.583016
vt 0.1857675 0.4773742
vt 0.1858792 0.4665304
vt 0.1857675 0.4639311
vt 0.567153 0.2289439
vt 0.5644681 0.2249654
vt 0.5642459 0.2289439
vt 0.00635691 0.8096009
vt 0.002889513 0.8089446
vt 0.003344751 0.8094485
vt 0.008552004 0.7956252
vt 0.002810386 0.7960613
vt 0.03234033 0.7882497
vt 0.03221908 0.8097404
vt 0.006528192 0.7867199
vt 0.002358324 0.7855284
vt 0.01138015 0.7794831
vt 0.01883051 0.7720569
vt 0.03193612 0.7728369
vt 0.03206543 0.7666162
vt 0.03233078 0.7499952
vt 0.0321615 0.7369713
vt 0.005185468 0.7760037
vt 0.002591487 0.7610471
vt 0.002189468 0.7434343
vt 0.01676005 0.7239899
vt 0.03234033 0.7157627
vt 0.002487738 0.7180565
vt 0.008119443 0.7024826
vt 0.03231303 0.7078493
vt 0.002411544 0.7068394
vt 0.02840324 0.7046506
vt 0.005547484 0.7026348
vt 0.002473449 0.7028467
vt 0.02741774 0.7034724
vt 0.02833258 0.703181
vt 0.03229223 0.7050171
vt 0.0320725 0.7038014
vt 0.3174862 0.3429568
vt 0.3049585 0.3413577
vt 0.317329 0.3434361
vt 0.3102811 0.3415141
vt 0.3017995 0.3393559
vt 0.3172556 0.3300911
vt 0.3003858 0.3375329
vt 0.3174292 0.3195948
vt 0.2998461 0.3282089
vt 0.2987752 0.3339659
vt 0.317214 0.3027612
vt 0.3174795 0.295132
vt 0.3173647 0.2775595
vt 0.2983716 0.2970472
vt 0.2985863 0.3106786
vt 0.2982868 0.2809559
vt 0.3174683 0.2521983
vt 0.3023208 0.2414634
vt 0.2982435 0.2532549
vt 0.2984722 0.2376377
vt 0.3091341 0.2372558
vt 0.3174862 0.2409987
vt 0.3151282 0.236988
vt 0.2000991 0.9720972
vt 0.1987869 0.9838894
vt 0.2006881 0.9812883
vt 0.1814862 0.9616847
vt 0.1954699 0.9879628
vt 0.1989048 0.96176
vt 0.1814862 0.9875449
vt 0.1820811 0.9905655
vt 0.1968324 0.9864762
vt 0.1975805 0.9912742
vt 0.1944322 0.9912544
vt 0.1935561 0.989266
vt 0.8705221 0.3071662
vt 0.8695312 0.3305301
vt 0.870953 0.3246872
vt 0.8511827 0.3285284
vt 0.8553603 0.2619063
vt 0.8707568 0.293508
vt 0.8707142 0.2773998
vt 0.8707238 0.2496648
vt 0.8647078 0.3355692
vt 0.8706995 0.3340313
vt 0.8616772 0.3393054
vt 0.8707251 0.335845
vt 0.8634366 0.3400212
vt 0.8608438 0.3399437
vt 0.8516507 0.3400924
vt 0.8413598 0.325571
vt 0.8413026 0.3400063
vt 0.8413565 0.3087874
vt 0.8413026 0.2895635
vt 0.8415669 0.2783614
vt 0.8428262 0.2540276
vt 0.8416604 0.2707757
vt 0.8505457 0.2336565
vt 0.8433121 0.2349376
vt 0.8568433 0.2338083
vt 0.8702891 0.2340486
vt 0.8676946 0.2340777
vt 0.9724706 0.4318319
vt 0.9714358 0.4115942
vt 0.9714358 0.4309117
vt 0.9735447 0.4253543
vt 0.9835148 0.4292639
vt 0.974843 0.4356137
vt 0.9901793 0.4340868
vt 0.9904432 0.4268299
vt 0.9903672 0.4070917
vt 0.971616 0.4090285
vt 0.9797109 0.4060511
vt 0.9737155 0.405985
vt 0.3178389 0.3483122
vt 0.3025249 0.3478149
vt 0.3015507 0.3490474
vt 0.3104472 0.371713
vt 0.3179953 0.3673989
vt 0.3181399 0.3841395
vt 0.3181755 0.3917251
vt 0.318222 0.4029261
vt 0.2984097 0.359852
vt 0.2986561 0.3519331
vt 0.298489 0.3718548
vt 0.2982435 0.3810679
vt 0.2983347 0.3940911
vt 0.2995034 0.4160621
vt 0.2983265 0.4107163
vt 0.2982435 0.4169403
vt 0.2988571 0.4323418
vt 0.3172498 0.4389543
vt 0.3181196 0.4221543
vt 0.3164767 0.4534038
vt 0.2990598 0.4538327
usemtl MV_RockCubic_Cliff
f 1/1/1 3/3/3 2/2/2
f 4/4/4 6/6/6 5/5/5
f 7/7/7 9/9/9 8/8/8
f 7/7/7 8/8/8 10/10/10
f 10/10/10 8/8/8 11/11/11
f 12/12/12 7/7/7 10/10/10
f 12/12/12 13/13/13 7/7/7
f 14/14/14 10/10/10 11/11/11
f 14/14/14 11/11/11 15/15/15
f 12/12/12 10/10/10 16/16/16
f 16/16/16 10/10/10 14/14/14
f 17/17/17 12/12/12 16/16/16
f 12/12/12 17/17/17 18/18/18
f 18/18/18 17/17/17 19/19/19
f 19/19/19 17/17/17 20/20/20
f 21/21/21 20/20/20 17/17/17
f 14/14/14 15/15/15 22/22/22
f 16/16/16 14/14/14 22/22/22
f 22/22/22 15/15/15 23/23/23
f 16/16/16 22/22/22 23/23/23
f 17/17/17 16/16/16 23/23/23
f 24/24/24 17/17/17 23/23/23
f 21/21/21 17/17/17 25/25/25
f 17/17/17 24/24/24 25/25/25
f 26/26/26 21/21/21 25/25/25
f 25/25/25 24/24/24 27/27/27
f 26/26/26 25/25/25 28/28/28
f 25/25/25 27/27/27 28/28/28
f 29/29/29 26/26/26 28/28/28
f 30/30/30 28/28/28 27/27/27
f 29/29/29 28/28/28 31/31/31
f 32/32/32 28/28/28 30/30/30
f 32/32/32 30/30/30 33/33/33
f 34/34/34 31/31/31 28/28/28
f 31/31/31 34/34/34 35/35/35
f 36/36/36 31/31/31 35/35/35
f 36/36/36 35/35/35 37/37/37
f 38/38/38 40/40/40 39/39/39
f 41/41/41 38/38/38 39/39/39
f 42/42/42 41/41/41 39/39/39
f 38/38/38 41/41/41 43/43/43
f 44/44/44 41/41/41 42/42/42
f 43/43/43 41/41/41 45/45/45
f 44/44/44 46/46/46 41/41/41
f 46/46/46 45/45/45 41/41/41
f 44/44/44 47/47/47 46/46/46
f 48/48/48 45/45/45 46/46/46
f 48/48/48 49/49/49 45/45/45
f 49/49/49 48/48/48 50/50/50
f 46/46/46 51/51/51 48/48/48
f 50/50/50 48/48/48 51/51/51
f 46/46/46 52/52/52 51/51/51
f 53/53/53 50/50/50 51/51/51
f 50/50/50 53/53/53 54/54/54
f 55/55/55 54/54/54 53/53/53
f 53/53/53 56/56/56 55/55/55
f 57/57/57 55/55/55 56/56/56
f 57/57/57 58/58/58 55/55/55
f 58/58/58 54/54/54 55/55/55
f 59/59/59 54/54/54 58/58/58
f 59/59/59 58/58/58 60/60/60
f 61/61/61 63/63/63 62/62/62
f 64/64/64 61/61/61 62/62/62
f 64/64/64 62/62/62 65/65/65
f 64/64/64 66/66/66 61/61/61
f 67/67/67 64/64/64 65/65/65
f 67/67/67 65/65/65 68/68/68
f 65/65/65 62/62/62 69/69/69
f 62/62/62 70/70/70 69/69/69
f 70/70/70 65/65/65 69/69/69
f 71/71/71 65/65/65 70/70/70
f 68/68/68 65/65/65 72/72/72
f 71/71/71 68/68/68 72/72/72
f 72/72/72 65/65/65 71/71/71
f 73/73/73 75/75/75 74/74/74
f 76/76/76 73/73/73 74/74/74
f 76/76/76 77/77/77 73/73/73
f 78/78/78 73/73/73 77/77/77
f 77/77/77 79/79/79 78/78/78
f 77/77/77 80/80/80 79/79/79
f 74/74/74 81/81/81 76/76/76
f 74/74/74 82/82/82 81/81/81
f 81/81/81 82/82/82 83/83/83
f 83/83/83 82/82/82 84/84/84
f 83/83/83 84/84/84 85/85/85
f 83/83/83 85/85/85 86/86/86
f 86/86/86 81/81/81 83/83/83
f 86/86/86 76/76/76 81/81/81
f 76/76/76 86/86/86 87/87/87
f 88/88/88 76/76/76 87/87/87
f 88/88/88 87/87/87 89/89/89
f 88/88/88 90/90/90 76/76/76
f 76/76/76 90/90/90 77/77/77
f 91/91/91 77/77/77 90/90/90
f 92/92/92 77/77/77 91/91/91
f 93/93/93 77/77/77 92/92/92
f 93/93/93 92/92/92 94/94/94
f 93/93/93 95/95/95 77/77/77
f 93/93/93 96/96/96 95/95/95
f 77/77/77 95/95/95 97/97/97
f 97/97/97 95/95/95 98/98/98
f 77/77/77 97/97/97 80/80/80
f 99/99/99 98/98/98 80/80/80
f 97/97/97 99/99/99 80/80/80
f 100/100/100 102/102/102 101/101/101
f 100/100/100 101/101/101 103/103/103
f 104/104/104 100/100/100 103/103/103
f 104/104/104 105/105/105 100/100/100
f 104/104/104 106/106/106 105/105/105
f 107/107/107 106/106/106 104/104/104
f 107/107/107 104/104/104 103/103/103
f 107/107/107 103/103/103 101/101/101
f 107/107/107 101/101/101 108/108/108
f 108/108/108 101/101/101 109/109/109
f 108/108/108 109/109/109 110/110/110
f 109/109/109 111/111/111 110/110/110
f 112/112/112 114/114/114 113/113/113
f 112/112/112 115/115/115 114/114/114
f 116/116/116 115/115/115 112/112/112
f 116/116/116 117/117/117 115/115/115
f 117/117/117 118/118/118 115/115/115
f 115/115/115 118/118/118 119/119/119
f 115/115/115 120/120/120 114/114/114
f 114/114/114 120/120/120 121/121/121
f 115/115/115 122/122/122 120/120/120
f 122/122/122 123/123/123 120/120/120
f 122/122/122 124/124/124 123/123/123
f 115/115/115 124/124/124 122/122/122
f 115/115/115 119/119/119 124/124/124
f 119/119/119 125/125/125 124/124/124
f 126/126/126 124/124/124 125/125/125
f 126/126/126 125/125/125 127/127/127
f 125/125/125 128/128/128 127/127/127
f 119/119/119 128/128/128 125/125/125
f 129/129/129 128/128/128 119/119/119
f 130/130/130 129/129/129 119/119/119
f 129/129/129 131/131/131 128/128/128
f 128/128/128 131/131/131 132/132/132
