mtllib P_CubicCliffPiece15.mtl
v -6.761765 -21.70521 -5.79627
v 8.466614 -21.75666 4.487328
v 8.447845 -21.75878 -5.796156
v 7.044602 -21.78022 4.734832
v -7.221116 -21.81101 -3.089809
v -7.699219 -21.51479 -2.954555
v -7.769867 -21.22043 0.9931569
v -6.043334 -21.78094 4.189044
v -7.502426 -21.12266 3.317541
v -3.375503 -21.80674 5.375674
v -4.41687 -21.73211 5.116346
v 8.466614 -21.75666 4.487328
v 8.455001 2.606985 -5.802718
v 8.447845 -21.75878 -5.796156
v 8.283951 5.977312 -0.9297199
v 8.455994 5.48505 -4.714597
v 7.908203 4.468622 -5.818072
v 7.429336 7.600447 -5.179223
v 8.097809 7.143377 -4.534676
v 7.695693 7.688242 -4.214075
v 7.972672 7.640467 -1.647352
v 8.28302 7.474752 -0.6377106
v 8.360031 7.628113 2.54865
v 8.451142 7.606653 5.524711
v 8.460968 -11.23073 5.287776
v 8.447845 -21.75878 -5.796156
v 8.455001 2.606985 -5.802718
v -6.761765 -21.70521 -5.79627
v -6.329621 -5.81542 -5.944742
v -7.393692 -20.52352 -5.784654
v -7.762818 -19.82386 -5.762058
v -7.939728 -13.17039 -5.605845
v -6.295365 6.892729 -5.666872
v -7.9124 -6.45503 -5.45322
v -7.904068 0.2452068 -5.309499
v -7.894608 6.654737 -5.162806
v -3.389054 0.3146534 -5.995751
v -5.399552 7.186167 -5.76385
v 0.8450923 7.403818 -5.77024
v 2.206451 5.516224 -5.905398
v 7.908203 4.468622 -5.818072
v 6.33142 7.702963 -5.387312
v 7.429336 7.600447 -5.179223
v -7.762818 -19.82386 -5.762058
v -6.761765 -21.70521 -5.79627
v -7.393692 -20.52352 -5.784654
v -7.699219 -21.51479 -2.954555
v -7.939728 -13.17039 -5.605845
v -7.769867 -21.22043 0.9931569
v -7.928955 2.469584 5.012283
v -7.9124 -6.45503 -5.45322
v -7.910293 7.21298 5.269458
v -7.904068 0.2452068 -5.309499
v -7.784103 -4.867254 4.874438
v -7.896667 11.7049 5.506812
v -7.690658 -15.0865 4.245094
v -7.196044 -15.46884 4.924802
v -7.502426 -21.12266 3.317541
v -7.883774 7.047468 -4.40286
v -7.894608 6.654737 -5.162806
v -7.916671 17.65759 5.534213
v -7.448089 -19.80017 4.184779
v -7.097793 -19.55182 4.69076
v -6.289123 -20.87863 4.760787
v -6.043334 -21.78094 4.189044
v -7.88533 23.194 4.109834
v -7.833297 22.13795 5.384498
v -7.395065 23.20019 5.225561
v -7.87378 21.4374 -4.37266
v -7.892624 22.90866 -2.36574
v -7.900193 22.02946 -4.024834
v -7.563065 23.08968 -3.386079
v -7.563065 23.08968 -3.386079
v -7.88533 23.194 4.109834
v -7.892624 22.90866 -2.36574
v 0.3916478 23.83651 5.30527
v -5.112991 23.35285 5.482746
v -7.395065 23.20019 5.225561
v -0.5455165 23.74716 5.509146
v 4.144608 23.68082 5.307106
v 1.293808 23.74303 -3.661406
v 2.361527 23.7273 2.379538
v 5.44104 23.79363 2.203753
v 5.465622 23.5034 4.757685
v 5.50177 23.12959 5.288227
v 5.531662 23.84072 -2.50534
v 5.116195 23.81899 -3.62118
v -4.887833 23.25713 -4.138511
v -6.474808 22.97823 -4.271945
v 1.920395 23.51333 -4.13245
v 4.960907 23.52893 -4.188991
v -7.833297 22.13795 5.384498
v -7.395065 23.20019 5.225561
v -5.112991 23.35285 5.482746
v -7.916671 17.65759 5.534213
v -4.658828 4.432144 5.53179
v -0.5455165 23.74716 5.509146
v -7.422439 5.02569 5.523762
v -7.896667 11.7049 5.506812
v -7.910293 7.21298 5.269458
v -7.928955 2.469584 5.012283
v -7.382888 0.9214954 5.139723
v -7.784103 -4.867254 4.874438
v 0.2918248 18.04707 5.502541
v 4.144608 23.68082 5.307106
v 5.50177 23.12959 5.288227
v 5.864884 18.77646 5.22465
v 5.845566 13.24962 5.489921
v 1.189927 -3.338438 5.537763
v 5.889054 8.243 5.506062
v 6.331254 7.815838 5.523133
v 8.451142 7.606653 5.524711
v 8.460968 -11.23073 5.287776
v -2.484054 -21.11935 5.553602
v -7.196044 -15.46884 4.924802
v -7.097793 -19.55182 4.69076
v 0.2971959 -21.11352 5.349754
v -3.375503 -21.80674 5.375674
v 6.321778 -21.06107 4.963046
v 8.466614 -21.75666 4.487328
v 7.044602 -21.78022 4.734832
v -4.41687 -21.73211 5.116346
v -6.289123 -20.87863 4.760787
v -6.043334 -21.78094 4.189044
v 5.465622 23.5034 4.757685
v 5.44104 23.79363 2.203753
v 5.50177 23.12959 5.288227
v 5.864884 18.77646 5.22465
v 5.531662 23.84072 -2.50534
v 5.832931 21.3695 -4.232412
v 5.889054 8.243 5.506062
v 5.845566 13.24962 5.489921
v 5.885757 19.74412 -4.2446
v 5.969635 8.16114 -4.339755
v 6.231964 7.832609 -4.64858
v 5.604614 23.0762 -3.630432
v 4.960907 23.52893 -4.188991
v 5.116195 23.81899 -3.62118
v 4.960907 23.52893 -4.188991
v 1.920395 23.51333 -4.13245
v 5.832931 21.3695 -4.232412
v 1.420486 18.97688 -4.131658
v 5.885757 19.74412 -4.2446
v -4.887833 23.25713 -4.138511
v 5.385314 7.889906 -4.416209
v 5.969635 8.16114 -4.339755
v 6.231964 7.832609 -4.64858
v -3.139283 10.50534 -4.331388
v -4.034668 7.661144 -4.42395
v -7.883774 7.047468 -4.40286
v -7.87378 21.4374 -4.37266
v -6.474808 22.97823 -4.271945
v -7.900193 22.02946 -4.024834
v -7.563065 23.08968 -3.386079
v 5.889054 8.243 5.506062
v 6.231964 7.832609 -4.64858
v 6.331254 7.815838 5.523133
v 8.360031 7.628113 2.54865
v 8.451142 7.606653 5.524711
v 7.972672 7.640467 -1.647352
v 8.28302 7.474752 -0.6377106
v 7.695693 7.688242 -4.214075
v 7.429336 7.600447 -5.179223
v 6.33142 7.702963 -5.387312
v 5.385314 7.889906 -4.416209
v 0.8450923 7.403818 -5.77024
v -5.399552 7.186167 -5.76385
v -4.034668 7.661144 -4.42395
v -6.052079 7.346722 -4.434307
v -7.883774 7.047468 -4.40286
v -7.894608 6.654737 -5.162806
v -6.295365 6.892729 -5.666872
vn -0.33471 -0.6722575 -0.6603325
vn 0.6283664 -0.604607 0.4894958
vn 0.5757611 -0.5787674 -0.5775184
vn 0.1038385 -0.7588049 0.6429873
vn -0.2933609 -0.9552922 -0.03682806
vn -0.852237 -0.5215286 -0.0412305
vn -0.8463021 -0.5283263 0.06814756
vn -0.3385856 -0.8656583 0.3687755
vn -0.804682 -0.5248847 0.277458
vn -0.1053534 -0.7161402 0.6899594
vn -0.2461285 -0.6253325 0.7405269
vn 0.6283664 -0.604607 0.4894958
vn 0.720628 0.02242804 -0.6929591
vn 0.5757611 -0.5787674 -0.5775184
vn 0.9984536 0.04844957 -0.02725754
vn 0.9502111 0.1552091 -0.2702017
vn 0.4260282 0.153466 -0.8915987
vn 0.4298241 0.6687866 -0.6066099
vn 0.8735787 0.3929411 -0.2871544
vn 0.4738359 0.8749633 -0.09959231
vn 0.6629366 0.7462369 -0.06037838
vn 0.8989856 0.4227619 -0.1144436
vn 0.7375644 0.6750318 -0.0181901
vn 0.6117662 0.5412586 0.576872
vn 0.7140379 -0.01478313 0.6999509
vn 0.5757611 -0.5787674 -0.5775184
vn 0.720628 0.02242804 -0.6929591
vn -0.33471 -0.6722575 -0.6603325
vn -0.1442402 0.006911446 -0.9895186
vn -0.7155331 -0.3735725 -0.5903016
vn -0.7373017 -0.1291386 -0.6631058
vn -0.8025437 0.0026025 -0.5965877
vn -0.2638012 0.3744307 -0.8889379
vn -0.8089784 0.01624109 -0.5876139
vn -0.805264 0.01413069 -0.592748
vn -0.7376885 0.3648337 -0.5680776
vn -0.01843431 0.008326592 -0.9997954
vn -0.1283343 0.6250142 -0.7699919
vn -0.01935122 0.6365116 -0.7710243
vn 0.009902675 0.04909673 -0.998745
vn 0.4260282 0.153466 -0.8915987
vn 0.09949832 0.7091916 -0.6979595
vn 0.4298241 0.6687866 -0.6066099
vn -0.7373017 -0.1291386 -0.6631058
vn -0.33471 -0.6722575 -0.6603325
vn -0.7155331 -0.3735725 -0.5903016
vn -0.852237 -0.5215286 -0.0412305
vn -0.8025437 0.0026025 -0.5965877
vn -0.8463021 -0.5283263 0.06814756
vn -0.8545477 -0.04410243 0.5174971
vn -0.8089784 0.01624109 -0.5876139
vn -0.8946499 -0.02090212 0.4462786
vn -0.805264 0.01413069 -0.592748
vn -0.7354481 -0.02296621 0.6771917
vn -0.7428709 -0.004743119 0.669418
vn -0.9461067 -0.03242793 0.3222272
vn -0.5214737 -0.03374221 0.8525999
vn -0.804682 -0.5248847 0.277458
vn -0.879223 0.2863717 -0.3807338
vn -0.7376885 0.3648337 -0.5680776
vn -0.7052356 0.007235011 0.7089362
vn -0.8751768 -0.1901888 0.4448524
vn -0.5538665 -0.1478685 0.8193698
vn -0.4471518 -0.341953 0.8265128
vn -0.3385856 -0.8656583 0.3687755
vn -0.7315447 0.678079 0.0710722
vn -0.6995952 0.1318545 0.7022685
vn -0.3859473 0.7106847 0.5881937
vn -0.6768121 0.09369712 -0.7301687
vn -0.8876721 0.4583725 -0.04396417
vn -0.8597282 0.2831053 -0.4251104
vn -0.5246345 0.7990546 -0.2937184
vn -0.5246345 0.7990546 -0.2937184
vn -0.7315447 0.678079 0.0710722
vn -0.8876721 0.4583725 -0.04396417
vn 0.003341125 0.967521 0.2527687
vn -0.07393023 0.6827156 0.7269346
vn -0.3859473 0.7106847 0.5881937
vn -0.04207623 0.6868401 0.7255896
vn 0.0879363 0.7089241 0.6997814
vn -0.02698021 0.9369004 -0.3485537
vn 0.01613814 0.9998662 0.002672935
vn 0.6605053 0.7502866 0.02833388
vn 0.7121208 0.6737487 0.1973491
vn 0.6643807 0.3063212 0.6817373
vn 0.6616822 0.7488646 -0.03712756
vn 0.3910601 0.864255 -0.3164417
vn -0.0318464 0.7036082 -0.7098742
vn -0.1336714 0.5693004 -0.8111899
vn -0.02777403 0.5766962 -0.8164865
vn 0.292979 0.518544 -0.8032904
vn -0.6995952 0.1318545 0.7022685
vn -0.3859473 0.7106847 0.5881937
vn -0.07393023 0.6827156 0.7269346
vn -0.7052356 0.007235011 0.7089362
vn -0.01950615 -0.01891302 0.9996308
vn -0.04207623 0.6868401 0.7255896
vn -0.308059 -0.04424856 0.9503377
vn -0.7428709 -0.004743119 0.669418
vn -0.8946499 -0.02090212 0.4462786
vn -0.8545477 -0.04410243 0.5174971
vn -0.1934018 -0.04141737 0.9802451
vn -0.7354481 -0.02296621 0.6771917
vn 0.02021844 0.006696626 0.9997732
vn 0.0879363 0.7089241 0.6997814
vn 0.6643807 0.3063212 0.6817373
vn 0.7368158 0.03924564 0.6749536
vn 0.6069898 0.01472121 0.7945732
vn 0.01063518 -0.004599022 0.9999329
vn 0.5415481 0.2396368 0.8057914
vn 0.2427056 0.5620972 0.7906584
vn 0.6117662 0.5412586 0.576872
vn 0.7140379 -0.01478313 0.6999509
vn -0.01868669 -0.1446493 0.9893065
vn -0.5214737 -0.03374221 0.8525999
vn -0.5538665 -0.1478685 0.8193698
vn 0.06277728 -0.1653663 0.9842322
vn -0.1053534 -0.7161402 0.6899594
vn 0.1056687 -0.1368867 0.9849346
vn 0.6283664 -0.604607 0.4894958
vn 0.1038385 -0.7588049 0.6429873
vn -0.2461285 -0.6253325 0.7405269
vn -0.4471518 -0.341953 0.8265128
vn -0.3385856 -0.8656583 0.3687755
vn 0.7121208 0.6737487 0.1973491
vn 0.6605053 0.7502866 0.02833388
vn 0.6643807 0.3063212 0.6817373
vn 0.7368158 0.03924564 0.6749536
vn 0.6616822 0.7488646 -0.03712756
vn 0.7103065 0.07775309 -0.6995851
vn 0.5415481 0.2396368 0.8057914
vn 0.6069898 0.01472121 0.7945732
vn 0.7119265 0.02705609 -0.7017326
vn 0.621882 0.4640382 -0.6308179
vn 0.1577197 0.9675235 -0.1975419
vn 0.89349 0.3159155 -0.3191755
vn 0.292979 0.518544 -0.8032904
vn 0.3910601 0.864255 -0.3164417
vn 0.292979 0.518544 -0.8032904
vn -0.02777403 0.5766962 -0.8164865
vn 0.7103065 0.07775309 -0.6995851
vn -0.008129205 0.01195355 -0.9998955
vn 0.7119265 0.02705609 -0.7017326
vn -0.0318464 0.7036082 -0.7098742
vn -0.01184752 0.6416102 -0.7669394
vn 0.621882 0.4640382 -0.6308179
vn 0.1577197 0.9675235 -0.1975419
vn 0.006246285 0.02056928 -0.9997689
vn -0.0371046 0.5965144 -0.8017442
vn -0.879223 0.2863717 -0.3807338
vn -0.6768121 0.09369712 -0.7301687
vn -0.1336714 0.5693004 -0.8111899
vn -0.8597282 0.2831053 -0.4251104
vn -0.5246345 0.7990546 -0.2937184
vn 0.5415481 0.2396368 0.8057914
vn 0.1577197 0.9675235 -0.1975419
vn 0.2427056 0.5620972 0.7906584
vn 0.7375644 0.6750318 -0.0181901
vn 0.6117662 0.5412586 0.576872
vn 0.6629366 0.7462369 -0.06037838
vn 0.8989856 0.4227619 -0.1144436
vn 0.4738359 0.8749633 -0.09959231
vn 0.4298241 0.6687866 -0.6066099
vn 0.09949832 0.7091916 -0.6979595
vn -0.01184752 0.6416102 -0.7669394
vn -0.01935122 0.6365116 -0.7710243
vn -0.1283343 0.6250142 -0.7699919
vn -0.0371046 0.5965144 -0.8017442
vn -0.1577869 0.9855736 0.06121989
vn -0.879223 0.2863717 -0.3807338
vn -0.7376885 0.3648337 -0.5680776
vn -0.2638012 0.3744307 -0.8889379
vt 0.8968607 0.6247824
vt 0.9474586 0.5498611
vt 0.8968607 0.5499538
vt 0.9486765 0.5568587
vt 0.9101772 0.627048
vt 0.9108431 0.6293842
vt 0.9302675 0.6297157
vt 0.9459914 0.6212516
vt 0.9417043 0.6283945
vt 0.9518299 0.6081272
vt 0.9505541 0.6132467
vt 0.7747719 0.7788828
vt 0.7231627 0.6594247
vt 0.7241757 0.7793074
vt 0.747003 0.6426482
vt 0.7284005 0.6452204
vt 0.7230127 0.6502726
vt 0.7260303 0.6348438
vt 0.7292193 0.6370584
vt 0.7307752 0.6343697
vt 0.7434055 0.634498
vt 0.7483795 0.6352688
vt 0.7640506 0.634385
vt 0.778694 0.6343697
vt 0.7782866 0.7270616
vt 0.1393256 0.790686
vt 0.1393607 0.6708452
vt 0.06449012 0.7904143
vt 0.06661348 0.7122817
vt 0.06138106 0.7846003
vt 0.05956538 0.7811559
vt 0.05869792 0.7484098
vt 0.06678744 0.6497396
vt 0.05883539 0.71536
vt 0.05887916 0.6823857
vt 0.05892856 0.6508409
vt 0.08108088 0.6821398
vt 0.07119317 0.64831
vt 0.1019184 0.6472437
vt 0.108614 0.6565468
vt 0.13667 0.6616906
vt 0.1289202 0.6457234
vt 0.1343263 0.6461999
vt 0.05431248 0.454514
vt 0.05419889 0.4637657
vt 0.05431903 0.4579558
vt 0.04031182 0.4625208
vt 0.05429383 0.421769
vt 0.02093269 0.4606365
vt 0.003799225 0.3436601
vt 0.05428467 0.3887186
vt 0.003058134 0.3202984
vt 0.05431903 0.3557437
vt 0.003654226 0.3797648
vt 0.002387058 0.298176
vt 0.005611303 0.430103
vt 0.00218947 0.4319053
vt 0.009491324 0.4598967
vt 0.05061137 0.3221825
vt 0.0543065 0.3241985
vt 0.002912854 0.2688914
vt 0.005368231 0.4532949
vt 0.002881315 0.452015
vt 0.002330555 0.4585287
vt 0.005024723 0.4630289
vt 0.0105294 0.2418148
vt 0.004139178 0.2468682
vt 0.005006325 0.2416577
vt 0.05205539 0.251394
vt 0.04234859 0.2439349
vt 0.0504121 0.2484434
vt 0.04736298 0.2431552
vt 0.6722563 0.9597224
vt 0.6353662 0.9610918
vt 0.6672257 0.961326
vt 0.6297193 0.9202985
vt 0.6286895 0.9474043
vt 0.6298903 0.9586481
vt 0.6286895 0.9249088
vt 0.6298143 0.9018436
vt 0.6738622 0.9161168
vt 0.6441691 0.9106953
vt 0.6451204 0.8955455
vt 0.6325536 0.8953701
vt 0.6299421 0.8951996
vt 0.6682931 0.8952287
vt 0.6737716 0.8973054
vt 0.6760342 0.9465718
vt 0.6766447 0.9543998
vt 0.676196 0.9130608
vt 0.6765593 0.8981025
vt 0.4102888 0.2415618
vt 0.4081306 0.2363234
vt 0.3969054 0.2355933
vt 0.4107009 0.2636156
vt 0.3946714 0.3286809
vt 0.3744324 0.2336565
vt 0.408269 0.3257597
vt 0.4106022 0.2928987
vt 0.4106663 0.3149785
vt 0.4107549 0.3382939
vt 0.4080697 0.3459203
vt 0.4100405 0.3743777
vt 0.3703123 0.2616987
vt 0.3513531 0.2339677
vt 0.3446752 0.2366783
vt 0.3428877 0.2580892
vt 0.3429861 0.2853006
vt 0.3658938 0.3669113
vt 0.3427723 0.3099329
vt 0.3405967 0.3120358
vt 0.3301663 0.3130655
vt 0.3301151 0.4057202
vt 0.3839711 0.454388
vt 0.4071478 0.4265381
vt 0.4066615 0.4466064
vt 0.370284 0.4543436
vt 0.3883551 0.4577553
vt 0.3406364 0.4540558
vt 0.3300773 0.4574403
vt 0.3370771 0.4575757
vt 0.3934757 0.4573673
vt 0.4026834 0.4531396
vt 0.401467 0.457533
vt 0.1902704 0.8803598
vt 0.1777089 0.8788915
vt 0.1928748 0.882207
vt 0.1924927 0.9036201
vt 0.1545395 0.8785841
vt 0.1460023 0.890712
vt 0.1937103 0.9554517
vt 0.1937103 0.9308181
vt 0.1459165 0.8987085
vt 0.1452646 0.9556974
vt 0.1437397 0.9573057
vt 0.1489915 0.882327
vt 0.146251 0.8800986
vt 0.1490492 0.8786784
vt 0.4056568 0.8793131
vt 0.3907021 0.8789482
vt 0.4096377 0.8900599
vt 0.3875986 0.9011796
vt 0.4096662 0.8980602
vt 0.3571812 0.8792368
vt 0.4055158 0.9562919
vt 0.40843 0.9550315
vt 0.4096662 0.9567258
vt 0.3639638 0.9422051
vt 0.3591537 0.956073
vt 0.3401363 0.9585378
vt 0.3422316 0.8877887
vt 0.3493334 0.8803994
vt 0.342194 0.8848271
vt 0.3440176 0.8795765
vt 0.7831573 0.8830044
vt 0.8331206 0.8813847
vt 0.7830729 0.880854
vt 0.7977158 0.8708962
vt 0.7830729 0.8704366
vt 0.8183599 0.8728191
vt 0.8133926 0.8712977
vt 0.8309881 0.87419
vt 0.8357353 0.8755098
vt 0.8367552 0.8809062
vt 0.831974 0.8855459
vt 0.8386147 0.9079182
vt 0.8385559 0.9386544
vt 0.8319714 0.9319054
vt 0.8320122 0.9418496
vt 0.8318483 0.950879
vt 0.8355853 0.9509588
vt 0.8380734 0.9430786
usemtl MV_RockCubic_Cliff
f 1/1/1 3/3/3 2/2/2
f 4/4/4 1/1/1 2/2/2
f 4/4/4 5/5/5 1/1/1
f 5/5/5 6/6/6 1/1/1
f 5/5/5 7/7/7 6/6/6
f 5/5/5 4/4/4 8/8/8
f 8/8/8 7/7/7 5/5/5
f 9/9/9 7/7/7 8/8/8
f 10/10/10 8/8/8 4/4/4
f 10/10/10 11/11/11 8/8/8
f 12/12/12 14/14/14 13/13/13
f 15/15/15 12/12/12 13/13/13
f 15/15/15 13/13/13 16/16/16
f 13/13/13 17/17/17 16/16/16
f 16/16/16 17/17/17 18/18/18
f 16/16/16 18/18/18 19/19/19
f 16/16/16 19/19/19 15/15/15
f 19/19/19 18/18/18 20/20/20
f 19/19/19 20/20/20 21/21/21
f 15/15/15 19/19/19 21/21/21
f 15/15/15 21/21/21 22/22/22
f 23/23/23 15/15/15 22/22/22
f 12/12/12 15/15/15 23/23/23
f 12/12/12 23/23/23 24/24/24
f 25/25/25 12/12/12 24/24/24
f 26/26/26 28/28/28 27/27/27
f 29/29/29 27/27/27 28/28/28
f 30/30/30 29/29/29 28/28/28
f 31/31/31 29/29/29 30/30/30
f 32/32/32 29/29/29 31/31/31
f 32/32/32 33/33/33 29/29/29
f 32/32/32 34/34/34 33/33/33
f 35/35/35 33/33/33 34/34/34
f 36/36/36 33/33/33 35/35/35
f 33/33/33 37/37/37 29/29/29
f 37/37/37 27/27/27 29/29/29
f 38/38/38 37/37/37 33/33/33
f 38/38/38 39/39/39 37/37/37
f 27/27/27 37/37/37 40/40/40
f 39/39/39 40/40/40 37/37/37
f 40/40/40 41/41/41 27/27/27
f 39/39/39 41/41/41 40/40/40
f 39/39/39 42/42/42 41/41/41
f 41/41/41 42/42/42 43/43/43
f 44/44/44 46/46/46 45/45/45
f 44/44/44 45/45/45 47/47/47
f 47/47/47 48/48/48 44/44/44
f 47/47/47 49/49/49 48/48/48
f 50/50/50 48/48/48 49/49/49
f 48/48/48 50/50/50 51/51/51
f 52/52/52 51/51/51 50/50/50
f 53/53/53 51/51/51 52/52/52
f 54/54/54 50/50/50 49/49/49
f 55/55/55 53/53/53 52/52/52
f 54/54/54 49/49/49 56/56/56
f 57/57/57 54/54/54 56/56/56
f 58/58/58 56/56/56 49/49/49
f 55/55/55 59/59/59 53/53/53
f 53/53/53 59/59/59 60/60/60
f 55/55/55 61/61/61 59/59/59
f 56/56/56 62/62/62 57/57/57
f 58/58/58 62/62/62 56/56/56
f 62/62/62 63/63/63 57/57/57
f 63/63/63 62/62/62 64/64/64
f 64/64/64 62/62/62 58/58/58
f 64/64/64 58/58/58 65/65/65
f 61/61/61 66/66/66 59/59/59
f 67/67/67 66/66/66 61/61/61
f 68/68/68 66/66/66 67/67/67
f 66/66/66 69/69/69 59/59/59
f 70/70/70 69/69/69 66/66/66
f 71/71/71 69/69/69 70/70/70
f 71/71/71 70/70/70 72/72/72
f 73/73/73 75/75/75 74/74/74
f 76/76/76 73/73/73 74/74/74
f 77/77/77 76/76/76 74/74/74
f 78/78/78 77/77/77 74/74/74
f 77/77/77 79/79/79 76/76/76
f 79/79/79 80/80/80 76/76/76
f 76/76/76 81/81/81 73/73/73
f 80/80/80 82/82/82 76/76/76
f 82/82/82 81/81/81 76/76/76
f 80/80/80 83/83/83 82/82/82
f 83/83/83 81/81/81 82/82/82
f 84/84/84 83/83/83 80/80/80
f 84/84/84 80/80/80 85/85/85
f 83/83/83 86/86/86 81/81/81
f 86/86/86 87/87/87 81/81/81
f 73/73/73 81/81/81 88/88/88
f 81/81/81 87/87/87 88/88/88
f 73/73/73 88/88/88 89/89/89
f 87/87/87 90/90/90 88/88/88
f 91/91/91 90/90/90 87/87/87
f 92/92/92 94/94/94 93/93/93
f 92/92/92 95/95/95 94/94/94
f 94/94/94 95/95/95 96/96/96
f 97/97/97 94/94/94 96/96/96
f 95/95/95 98/98/98 96/96/96
f 95/95/95 99/99/99 98/98/98
f 98/98/98 99/99/99 100/100/100
f 98/98/98 100/100/100 101/101/101
f 101/101/101 102/102/102 98/98/98
f 96/96/96 98/98/98 102/102/102
f 102/102/102 101/101/101 103/103/103
f 96/96/96 102/102/102 103/103/103
f 97/97/97 96/96/96 104/104/104
f 105/105/105 97/97/97 104/104/104
f 106/106/106 105/105/105 104/104/104
f 106/106/106 104/104/104 107/107/107
f 104/104/104 108/108/108 107/107/107
f 104/104/104 96/96/96 108/108/108
f 108/108/108 96/96/96 109/109/109
f 110/110/110 108/108/108 109/109/109
f 110/110/110 109/109/109 111/111/111
f 111/111/111 109/109/109 112/112/112
f 109/109/109 113/113/113 112/112/112
f 114/114/114 96/96/96 103/103/103
f 96/96/96 114/114/114 109/109/109
f 103/103/103 115/115/115 114/114/114
f 115/115/115 116/116/116 114/114/114
f 109/109/109 117/117/117 113/113/113
f 109/109/109 114/114/114 117/117/117
f 114/114/114 116/116/116 118/118/118
f 114/114/114 118/118/118 117/117/117
f 117/117/117 119/119/119 113/113/113
f 118/118/118 119/119/119 117/117/117
f 113/113/113 119/119/119 120/120/120
f 120/120/120 119/119/119 121/121/121
f 119/119/119 118/118/118 121/121/121
f 116/116/116 122/122/122 118/118/118
f 116/116/116 123/123/123 122/122/122
f 122/122/122 123/123/123 124/124/124
f 125/125/125 127/127/127 126/126/126
f 127/127/127 128/128/128 126/126/126
f 126/126/126 128/128/128 129/129/129
f 128/128/128 130/130/130 129/129/129
f 128/128/128 131/131/131 130/130/130
f 132/132/132 131/131/131 128/128/128
f 131/131/131 133/133/133 130/130/130
f 134/134/134 133/133/133 131/131/131
f 131/131/131 135/135/135 134/134/134
f 130/130/130 136/136/136 129/129/129
f 136/136/136 130/130/130 137/137/137
f 138/138/138 129/129/129 136/136/136
f 136/136/136 137/137/137 138/138/138
f 139/139/139 141/141/141 140/140/140
f 142/142/142 140/140/140 141/141/141
f 141/141/141 143/143/143 142/142/142
f 144/144/144 140/140/140 142/142/142
f 142/142/142 143/143/143 145/145/145
f 145/145/145 143/143/143 146/146/146
f 146/146/146 147/147/147 145/145/145
f 142/142/142 145/145/145 148/148/148
f 142/142/142 148/148/148 144/144/144
f 148/148/148 145/145/145 149/149/149
f 148/148/148 149/149/149 150/150/150
f 148/148/148 150/150/150 151/151/151
f 151/151/151 144/144/144 148/148/148
f 152/152/152 144/144/144 151/151/151
f 152/152/152 151/151/151 153/153/153
f 154/154/154 152/152/152 153/153/153
f 155/155/155 157/157/157 156/156/156
f 158/158/158 156/156/156 157/157/157
f 159/159/159 158/158/158 157/157/157
f 158/158/158 160/160/160 156/156/156
f 158/158/158 161/161/161 160/160/160
f 162/162/162 156/156/156 160/160/160
f 162/162/162 163/163/163 156/156/156
f 163/163/163 164/164/164 156/156/156
f 156/156/156 164/164/164 165/165/165
f 164/164/164 166/166/166 165/165/165
f 165/165/165 166/166/166 167/167/167
f 165/165/165 167/167/167 168/168/168
f 169/169/169 168/168/168 167/167/167
f 170/170/170 168/168/168 169/169/169
f 169/169/169 167/167/167 170/170/170
f 170/170/170 167/167/167 171/171/171
f 171/171/171 167/167/167 172/172/172
