mtllib P_CubicCliffPiece14.mtl
v -6.059388 -2.195982 -5.471585
v -5.482499 -10.24091 -6.101114
v -5.72284 1.505957 -6.03305
v -6.14264 -10.35615 -5.475849
v -5.482499 -10.24091 -6.101114
v -6.059388 -2.195982 -5.471585
v 6.402481 -22.15495 -4.373222
v 6.15303 -21.92685 -5.558589
v 4.755874 -22.18956 -5.967471
v 6.365677 -22.18746 2.442454
v 1.93515 -22.2191 -3.118339
v 1.582504 -22.19904 -6.031512
v 2.141983 -22.25551 -1.194234
v 0.6272283 -22.15572 6.440113
v -0.5974427 -22.23966 -0.9839023
v -3.531784 -22.24151 -0.7787481
v -6.104889 -22.24474 -0.5976313
v -6.129135 -22.17046 5.201077
v -5.003646 -22.16759 6.140637
v -3.70346 -22.16068 6.461489
v 4.39972 -21.7516 6.435265
v 6.358338 -21.80599 4.293698
v 5.866486 -21.23674 6.443019
v 6.402481 -22.15495 -4.373222
v 6.308685 -21.06499 -6.055715
v 6.15303 -21.92685 -5.558589
v 6.323029 -19.75707 6.343197
v 6.388107 22.6067 -5.890819
v 6.358338 -21.80599 4.293698
v 6.365677 -22.18746 2.442454
v 5.866486 -21.23674 6.443019
v 6.325989 7.023804 6.486599
v 6.394913 24.01333 1.651736
v 6.379653 23.51449 -5.229523
v 6.370926 23.71986 2.744087
v 6.314133 17.63733 5.476278
v 5.642334 21.81363 6.41495
v 5.628449 23.43464 5.544032
v 5.027115 23.52991 6.449387
v 6.308685 -21.06499 -6.055715
v 4.755874 -22.18956 -5.967471
v 6.15303 -21.92685 -5.558589
v 1.582504 -22.19904 -6.031512
v 6.388107 22.6067 -5.890819
v 1.574142 -10.38676 -6.131883
v -0.2786565 23.18318 -5.982227
v -5.482499 -10.24091 -6.101114
v -5.72284 1.505957 -6.03305
v -6.077103 22.86577 -5.977536
v -6.133454 4.818064 -5.927394
v -6.059388 -2.195982 -5.471585
v 2.036804 -23.7433 -1.466557
v 1.40837 -23.76075 -6.278904
v 1.729293 -23.79805 -3.749815
v 2.141983 -22.25551 -1.194234
v 1.93515 -22.2191 -3.118339
v 1.582504 -22.19904 -6.031512
v 1.161849 -21.9008 -7.60568
v 0.7510675 -23.85525 -7.111516
v 1.2023 -16.72739 -7.555118
v 1.574142 -10.38676 -6.131883
v 1.253387 -11.48078 -7.235768
v 0.7510675 -23.85525 -7.111516
v 1.729293 -23.79805 -3.749815
v 1.40837 -23.76075 -6.278904
v -6.758637 -23.83479 -5.464176
v -3.347779 -23.73031 -6.856701
v -5.890488 -23.4909 -6.528866
v 2.036804 -23.7433 -1.466557
v -0.5609132 -23.80276 -1.039759
v 1.569656 -23.79932 -1.190226
v -2.600861 -23.81055 -0.909876
v -4.675385 -23.85604 -0.7781438
v -6.665192 -23.80172 -4.379249
v -6.476609 -23.82436 -3.089144
v -6.108566 -23.41887 -0.6628509
v 2.141983 -22.25551 -1.194234
v 2.036804 -23.7433 -1.466557
v 1.569656 -23.79932 -1.190226
v -0.5974427 -22.23966 -0.9839023
v -0.5609132 -23.80276 -1.039759
v -3.531784 -22.24151 -0.7787481
v -2.600861 -23.81055 -0.909876
v -4.675385 -23.85604 -0.7781438
v -6.104889 -22.24474 -0.5976313
v -6.108566 -23.41887 -0.6628509
v -6.08316 23.54649 6.393093
v -6.136306 -20.5337 6.384697
v -6.129135 -22.17046 5.201077
v -6.172409 -10.58271 -1.020291
v -6.104889 -22.24474 -0.5976313
v -6.059388 -2.195982 -5.471585
v -6.14264 -10.35615 -5.475849
v -6.133454 4.818064 -5.927394
v -6.077103 22.86577 -5.977536
v -6.116104 23.52706 -1.501027
v -6.109436 23.94403 3.846321
v -6.38356 -10.66549 -2.30457
v -6.549775 -10.65044 -3.515435
v -6.476609 -23.82436 -3.089144
v -6.108566 -23.41887 -0.6628509
v -6.665192 -23.80172 -4.379249
v -6.904648 -22.07666 -6.604046
v -6.758637 -23.83479 -5.464176
v -6.814972 -10.64367 -5.156212
v -6.941224 -15.546 -6.637162
v -6.894852 -10.70964 -6.583836
v -5.003646 -22.16759 6.140637
v -6.129135 -22.17046 5.201077
v -6.136306 -20.5337 6.384697
v -3.70346 -22.16068 6.461489
v -6.08316 23.54649 6.393093
v -5.197464 23.96307 6.446281
v 0.6272283 -22.15572 6.440113
v 4.39972 -21.7516 6.435265
v 4.105607 23.99718 6.458073
v 5.866486 -21.23674 6.443019
v 5.027115 23.52991 6.449387
v 5.642334 21.81363 6.41495
v 6.325989 7.023804 6.486599
v 6.323029 -19.75707 6.343197
v -6.549775 -10.65044 -3.515435
v -6.14264 -10.35615 -5.475849
v -6.172409 -10.58271 -1.020291
v -6.894852 -10.70964 -6.583836
v -5.482499 -10.24091 -6.101114
v -6.814972 -10.64367 -5.156212
v -6.38356 -10.66549 -2.30457
v -4.082352 -10.40587 -7.052657
v -1.639649 -10.40025 -7.31245
v 0.3977655 -10.38906 -7.120381
v 1.574142 -10.38676 -6.131883
v -6.904648 -22.07666 -6.604046
v -6.758637 -23.83479 -5.464176
v -5.890488 -23.4909 -6.528866
v -6.941224 -15.546 -6.637162
v -4.082352 -10.40587 -7.052657
v -6.894852 -10.70964 -6.583836
v 0.4549707 -11.57571 -7.512177
v -1.639649 -10.40025 -7.31245
v 0.3977655 -10.38906 -7.120381
v 1.253387 -11.48078 -7.235768
v 1.574142 -10.38676 -6.131883
v 1.2023 -16.72739 -7.555118
v 0.06054623 -23.44241 -7.429129
v -3.347779 -23.73031 -6.856701
v 1.161849 -21.9008 -7.60568
v 0.7510675 -23.85525 -7.111516
v 1.467147 23.13396 -5.796609
v -0.2786565 23.18318 -5.982227
v 6.388107 22.6067 -5.890819
v 2.822281 23.90413 -2.61789
v -6.077103 22.86577 -5.977536
v 5.836212 23.47697 -5.789655
v -6.116104 23.52706 -1.501027
v 4.851455 23.9259 -3.296641
v 6.379653 23.51449 -5.229523
v 6.394913 24.01333 1.651736
v -6.004135 23.76502 1.145857
v -6.109436 23.94403 3.846321
v -5.197464 23.96307 6.446281
v -6.08316 23.54649 6.393093
v 4.105607 23.99718 6.458073
v 5.628449 23.43464 5.544032
v 6.370926 23.71986 2.744087
v 5.027115 23.52991 6.449387
v 1.467147 23.13396 -5.796609
v 6.388107 22.6067 -5.890819
v 5.836212 23.47697 -5.789655
v 6.379653 23.51449 -5.229523
vn -0.9507297 -0.005273602 -0.3099764
vn -0.3277288 0.6398742 -0.6950935
vn -0.3517558 -0.02487761 -0.9357612
vn -0.7413121 0.6401212 -0.2017455
vn -0.3277288 0.6398742 -0.6950935
vn -0.9507297 -0.005273602 -0.3099764
vn 0.7370966 -0.6726171 -0.06538276
vn 0.5909024 -0.6638772 -0.4583682
vn 0.0828932 -0.7426861 -0.6644893
vn 0.7003244 -0.7123725 0.04551065
vn 0.6638377 -0.7438256 -0.07773614
vn 0.8288265 -0.3112184 -0.4649621
vn 0.3233932 -0.9148373 0.2418458
vn 0.01720936 -0.7044487 0.7095462
vn 0.04813522 -0.7159101 0.6965312
vn 0.04721384 -0.7189938 0.6934111
vn -0.8591787 -0.3330801 0.3884196
vn -0.6963385 -0.6900313 0.1974068
vn -0.2335342 -0.7924483 0.5634601
vn -0.0364712 -0.6952071 0.7178837
vn 0.114877 -0.6470445 0.7537484
vn 0.774222 -0.609428 0.1708152
vn 0.4946322 -0.4543722 0.7408676
vn 0.7370966 -0.6726171 -0.06538276
vn 0.6848093 -0.1405562 -0.7150387
vn 0.5909024 -0.6638772 -0.4583682
vn 0.7857285 -0.0490772 0.6166217
vn 0.6974621 0.1135961 -0.7075611
vn 0.774222 -0.609428 0.1708152
vn 0.7003244 -0.7123725 0.04551065
vn 0.4946322 -0.4543722 0.7408676
vn 0.6683318 0.00078972 0.7438629
vn 0.7009761 0.7128805 0.02083332
vn 0.7247576 0.6511667 -0.2251852
vn 0.8803222 0.4403741 0.1763612
vn 0.9695055 0.03242012 0.2429156
vn 0.6351123 0.09103667 0.7670363
vn 0.7703722 0.5494365 0.3234907
vn 0.4417315 0.4842368 0.7552404
vn 0.6848093 -0.1405562 -0.7150387
vn 0.0828932 -0.7426861 -0.6644893
vn 0.5909024 -0.6638772 -0.4583682
vn 0.8288265 -0.3112184 -0.4649621
vn 0.6974621 0.1135961 -0.7075611
vn 0.277481 0.1966341 -0.9403931
vn -0.01237357 0.6500468 -0.7597935
vn -0.3277288 0.6398742 -0.6950935
vn -0.3517558 -0.02487761 -0.9357612
vn -0.5986585 0.5125359 -0.6155607
vn -0.8003576 -0.007156133 -0.5994802
vn -0.9507297 -0.005273602 -0.3099764
vn 0.710339 -0.6415365 0.2895677
vn 0.7339447 -0.6377885 -0.2335618
vn 0.6286544 -0.7746273 -0.06889316
vn 0.3233932 -0.9148373 0.2418458
vn 0.6638377 -0.7438256 -0.07773614
vn 0.8288265 -0.3112184 -0.4649621
vn 0.5403504 -0.06628657 -0.838825
vn 0.3360187 -0.7643024 -0.5503938
vn 0.5602373 -0.002728271 -0.8283276
vn 0.277481 0.1966341 -0.9403931
vn 0.6865314 0.1846898 -0.7032527
vn 0.3360187 -0.7643024 -0.5503938
vn 0.6286544 -0.7746273 -0.06889316
vn 0.7339447 -0.6377885 -0.2335618
vn -0.6885616 -0.706182 -0.1648937
vn -0.1134124 -0.719023 -0.6856701
vn -0.2682104 -0.5415349 -0.7967453
vn 0.710339 -0.6415365 0.2895677
vn 0.05922058 -0.7255833 0.6855814
vn 0.1886088 -0.7667321 0.6136355
vn 0.05041646 -0.7217804 0.6902835
vn -0.01198881 -0.737193 0.6755759
vn -0.7395751 -0.6649596 0.1041988
vn -0.6936324 -0.7115983 0.1118122
vn -0.5795752 -0.4481179 0.6806489
vn 0.3233932 -0.9148373 0.2418458
vn 0.710339 -0.6415365 0.2895677
vn 0.1886088 -0.7667321 0.6136355
vn 0.04813522 -0.7159101 0.6965312
vn 0.05922058 -0.7255833 0.6855814
vn 0.04721384 -0.7189938 0.6934111
vn 0.05041646 -0.7217804 0.6902835
vn -0.01198881 -0.737193 0.6755759
vn -0.8591787 -0.3330801 0.3884196
vn -0.5795752 -0.4481179 0.6806489
vn -0.6910168 0.381471 0.6139834
vn -0.7119176 -0.1105798 0.6935023
vn -0.6963385 -0.6900313 0.1974068
vn -0.998677 0.02926509 0.04228352
vn -0.8591787 -0.3330801 0.3884196
vn -0.9507297 -0.005273602 -0.3099764
vn -0.7413121 0.6401212 -0.2017455
vn -0.8003576 -0.007156133 -0.5994802
vn -0.5986585 0.5125359 -0.6155607
vn -0.7501732 0.6564144 -0.0797518
vn -0.6663138 0.7452254 -0.02578589
vn -0.9758884 0.1632795 0.1448507
vn -0.383236 0.9223582 0.04884303
vn -0.6936324 -0.7115983 0.1118122
vn -0.5795752 -0.4481179 0.6806489
vn -0.7395751 -0.6649596 0.1041988
vn -0.7190152 -0.09149148 -0.6889459
vn -0.6885616 -0.706182 -0.1648937
vn -0.544055 0.8379497 0.04294729
vn -0.7735453 -0.0162908 -0.6335316
vn -0.6971669 0.4755653 -0.5364662
vn -0.2335342 -0.7924483 0.5634601
vn -0.6963385 -0.6900313 0.1974068
vn -0.7119176 -0.1105798 0.6935023
vn -0.0364712 -0.6952071 0.7178837
vn -0.6910168 0.381471 0.6139834
vn -0.1369725 0.7220598 0.6781358
vn 0.01720936 -0.7044487 0.7095462
vn 0.114877 -0.6470445 0.7537484
vn 0.1184798 0.718912 0.6849293
vn 0.4946322 -0.4543722 0.7408676
vn 0.4417315 0.4842368 0.7552404
vn 0.6351123 0.09103667 0.7670363
vn 0.6683318 0.00078972 0.7438629
vn 0.7857285 -0.0490772 0.6166217
vn -0.383236 0.9223582 0.04884303
vn -0.7413121 0.6401212 -0.2017455
vn -0.998677 0.02926509 0.04228352
vn -0.6971669 0.4755653 -0.5364662
vn -0.3277288 0.6398742 -0.6950935
vn -0.544055 0.8379497 0.04294729
vn -0.9758884 0.1632795 0.1448507
vn -0.1078465 0.6186461 -0.7782328
vn -0.04766341 0.6570576 -0.7523321
vn 0.2033851 0.7766257 -0.5962274
vn 0.277481 0.1966341 -0.9403931
vn -0.7190152 -0.09149148 -0.6889459
vn -0.6885616 -0.706182 -0.1648937
vn -0.2682104 -0.5415349 -0.7967453
vn -0.7735453 -0.0162908 -0.6335316
vn -0.1078465 0.6186461 -0.7782328
vn -0.6971669 0.4755653 -0.5364662
vn 0.1200185 0.1331816 -0.9837978
vn -0.04766341 0.6570576 -0.7523321
vn 0.2033851 0.7766257 -0.5962274
vn 0.6865314 0.1846898 -0.7032527
vn 0.277481 0.1966341 -0.9403931
vn 0.5602373 -0.002728271 -0.8283276
vn -0.0206038 -0.3500957 -0.9364874
vn -0.1134124 -0.719023 -0.6856701
vn 0.5403504 -0.06628657 -0.838825
vn 0.3360187 -0.7643024 -0.5503938
vn 0.04228114 0.9116442 -0.4087996
vn -0.01237357 0.6500468 -0.7597935
vn 0.6974621 0.1135961 -0.7075611
vn -0.0373074 0.9942769 -0.1001084
vn -0.5986585 0.5125359 -0.6155607
vn 0.1718542 0.6822686 -0.7106164
vn -0.7501732 0.6564144 -0.0797518
vn 0.03171028 0.9933896 -0.1103242
vn 0.7247576 0.6511667 -0.2251852
vn 0.7009761 0.7128805 0.02083332
vn -0.1456019 0.9874017 -0.06195138
vn -0.6663138 0.7452254 -0.02578589
vn -0.1369725 0.7220598 0.6781358
vn -0.6910168 0.381471 0.6139834
vn 0.1184798 0.718912 0.6849293
vn 0.7703722 0.5494365 0.3234907
vn 0.8803222 0.4403741 0.1763612
vn 0.4417315 0.4842368 0.7552404
vn 0.04228114 0.9116442 -0.4087996
vn 0.6974621 0.1135961 -0.7075611
vn 0.1718542 0.6822686 -0.7106164
vn 0.7247576 0.6511667 -0.2251852
vt 0.2087062 0.2551808
vt 0.2115437 0.2947778
vt 0.2115437 0.2369798
vt 0.3218652 0.277126
vt 0.3250961 0.2766114
vt 0.3218652 0.236988
vt 0.9363446 0.05570015
vt 0.937583 0.06152725
vt 0.9444793 0.0635116
vt 0.936392 0.02216445
vt 0.9583023 0.04943704
vt 0.960094 0.06376363
vt 0.9572484 0.03997407
vt 0.9645438 0.002380732
vt 0.9707213 0.0388847
vt 0.9851542 0.03781695
vt 0.9978104 0.03687466
vt 0.9978104 0.008342832
vt 0.9922542 0.003742307
vt 0.9858506 0.002189472
vt 0.9459614 0.002479099
vt 0.9363705 0.01305521
vt 0.9387167 0.002469481
vt 0.2724959 0.2294616
vt 0.2641974 0.2241311
vt 0.2666596 0.2283644
vt 0.3251793 0.2174653
vt 0.2641974 0.009250659
vt 0.3151332 0.2275841
vt 0.3060316 0.2294954
vt 0.3256983 0.2247495
vt 0.3253874 0.08569351
vt 0.3012828 0.002189458
vt 0.2674343 0.004771939
vt 0.3066629 0.003613404
vt 0.3202191 0.03349104
vt 0.3247607 0.01293345
vt 0.3204454 0.004974
vt 0.3248989 0.004495915
vt 0.457223 0.2197754
vt 0.4495946 0.2253077
vt 0.4564745 0.2239482
vt 0.4339796 0.22539
vt 0.457223 0.004955843
vt 0.43383 0.1673057
vt 0.4244137 0.002189467
vt 0.3991087 0.1666441
vt 0.3978214 0.1088606
vt 0.3958868 0.003799224
vt 0.3957733 0.0925594
vt 0.3962097 0.126995
vt 0.8838983 0.6289958
vt 0.8620012 0.6199867
vt 0.8734212 0.6249325
vt 0.8879479 0.6227505
vt 0.879275 0.6189508
vt 0.8660776 0.6133577
vt 0.8594885 0.6090325
vt 0.8580377 0.6188501
vt 0.8694965 0.5856259
vt 0.8879479 0.5595074
vt 0.8808641 0.5623946
vt 0.956786 0.5078034
vt 0.9736249 0.5041648
vt 0.9611009 0.5048611
vt 0.9622685 0.5452295
vt 0.9566166 0.5280012
vt 0.9573456 0.540581
vt 0.9849383 0.5034441
vt 0.9861323 0.5163443
vt 0.9861323 0.5058356
vt 0.9860626 0.5264015
vt 0.9859899 0.5366309
vt 0.9676259 0.5451452
vt 0.9740231 0.5446681
vt 0.9860613 0.5436809
vt 0.4101284 0.641094
vt 0.402832 0.6416254
vt 0.4025398 0.6439281
vt 0.410222 0.6545753
vt 0.4025361 0.654413
vt 0.4102311 0.6690156
vt 0.4025115 0.6644518
vt 0.4023016 0.6746613
vt 0.4102311 0.6816784
vt 0.4044601 0.6817093
vt 0.002189467 0.004145577
vt 0.002234685 0.2210342
vt 0.008057294 0.2290875
vt 0.03866816 0.1720719
vt 0.0365838 0.2294525
vt 0.06055917 0.1308056
vt 0.06058627 0.1709566
vt 0.06280709 0.09629466
vt 0.06304964 0.007493992
vt 0.04102913 0.004240757
vt 0.01472093 0.002189472
vt 0.04500206 0.1724801
vt 0.05097146 0.1724067
vt 0.04886883 0.2372262
vt 0.03690494 0.2352295
vt 0.05522972 0.2371157
vt 0.06619284 0.2286289
vt 0.06057419 0.2372788
vt 0.05906323 0.1723747
vt 0.06635845 0.1964961
vt 0.06609268 0.1726995
vt 0.3858182 0.2292776
vt 0.3913444 0.2292164
vt 0.3913943 0.2212587
vt 0.3794249 0.2292695
vt 0.391133 0.004399482
vt 0.3867757 0.002354475
vt 0.3581163 0.2292443
vt 0.3395545 0.2272565
vt 0.3410019 0.002189458
vt 0.3323377 0.2247245
vt 0.3364677 0.004487779
vt 0.3334402 0.01292867
vt 0.3300773 0.08569557
vt 0.3300901 0.2174371
vt 0.953518 0.446451
vt 0.9604582 0.4394519
vt 0.9422459 0.4516583
vt 0.9670568 0.4395574
vt 0.9612345 0.4350407
vt 0.9609751 0.443094
vt 0.948095 0.4490501
vt 0.9613536 0.426721
vt 0.9558023 0.4159852
vt 0.9494931 0.4081379
vt 0.9422459 0.405985
vt 0.05918811 0.9554908
vt 0.06001037 0.963976
vt 0.06424613 0.9623886
vt 0.05869811 0.9233778
vt 0.07251279 0.8980201
vt 0.05869811 0.8995821
vt 0.09488382 0.9036234
vt 0.08452609 0.8979133
vt 0.09455325 0.8977367
vt 0.09881258 0.9030815
vt 0.1003589 0.8975359
vt 0.09880399 0.9289314
vt 0.09350694 0.9619936
vt 0.07676181 0.9634915
vt 0.09884916 0.9543841
vt 0.09692963 0.9639485
vt 0.5893738 0.9220782
vt 0.5902765 0.9306657
vt 0.5898651 0.897899
vt 0.5737461 0.9153454
vt 0.5902157 0.9592126
vt 0.5893686 0.9005622
vt 0.5681932 0.9593372
vt 0.5770985 0.9053649
vt 0.5866162 0.8978828
vt 0.552761 0.897735
vt 0.5551717 0.9587556
vt 0.5418848 0.9592462
vt 0.529098 0.9547418
vt 0.529352 0.9591244
vt 0.529098 0.908969
vt 0.5336018 0.9015157
vt 0.5473846 0.8978634
vt 0.529144 0.9044629
vt 0.2073151 0.4166349
vt 0.2100766 0.3924412
vt 0.2057652 0.3951275
vt 0.2055219 0.3924412
usemtl MV_RockCubic_Cliff
f 1/1/1 3/3/3 2/2/2
f 4/4/4 6/6/6 5/5/5
f 7/7/7 9/9/9 8/8/8
f 10/10/10 9/9/9 7/7/7
f 11/11/11 9/9/9 10/10/10
f 11/11/11 12/12/12 9/9/9
f 11/11/11 10/10/10 13/13/13
f 14/14/14 13/13/13 10/10/10
f 14/14/14 15/15/15 13/13/13
f 14/14/14 16/16/16 15/15/15
f 14/14/14 17/17/17 16/16/16
f 18/18/18 17/17/17 14/14/14
f 19/19/19 18/18/18 14/14/14
f 19/19/19 14/14/14 20/20/20
f 21/21/21 14/14/14 10/10/10
f 21/21/21 10/10/10 22/22/22
f 22/22/22 23/23/23 21/21/21
f 24/24/24 26/26/26 25/25/25
f 24/24/24 25/25/25 27/27/27
f 27/27/27 25/25/25 28/28/28
f 27/27/27 29/29/29 24/24/24
f 29/29/29 30/30/30 24/24/24
f 31/31/31 29/29/29 27/27/27
f 28/28/28 32/32/32 27/27/27
f 32/32/32 28/28/28 33/33/33
f 28/28/28 34/34/34 33/33/33
f 32/32/32 33/33/33 35/35/35
f 36/36/36 32/32/32 35/35/35
f 37/37/37 32/32/32 36/36/36
f 37/37/37 36/36/36 35/35/35
f 35/35/35 38/38/38 37/37/37
f 39/39/39 37/37/37 38/38/38
f 40/40/40 42/42/42 41/41/41
f 40/40/40 41/41/41 43/43/43
f 40/40/40 43/43/43 44/44/44
f 44/44/44 43/43/43 45/45/45
f 44/44/44 45/45/45 46/46/46
f 46/46/46 45/45/45 47/47/47
f 48/48/48 46/46/46 47/47/47
f 49/49/49 46/46/46 48/48/48
f 49/49/49 48/48/48 50/50/50
f 48/48/48 51/51/51 50/50/50
f 52/52/52 54/54/54 53/53/53
f 53/53/53 55/55/55 52/52/52
f 56/56/56 55/55/55 53/53/53
f 53/53/53 57/57/57 56/56/56
f 58/58/58 57/57/57 53/53/53
f 59/59/59 58/58/58 53/53/53
f 60/60/60 57/57/57 58/58/58
f 57/57/57 60/60/60 61/61/61
f 61/61/61 60/60/60 62/62/62
f 63/63/63 65/65/65 64/64/64
f 64/64/64 66/66/66 63/63/63
f 66/66/66 67/67/67 63/63/63
f 67/67/67 66/66/66 68/68/68
f 66/66/66 64/64/64 69/69/69
f 69/69/69 70/70/70 66/66/66
f 71/71/71 70/70/70 69/69/69
f 70/70/70 72/72/72 66/66/66
f 72/72/72 73/73/73 66/66/66
f 73/73/73 74/74/74 66/66/66
f 75/75/75 74/74/74 73/73/73
f 73/73/73 76/76/76 75/75/75
f 77/77/77 79/79/79 78/78/78
f 80/80/80 79/79/79 77/77/77
f 80/80/80 81/81/81 79/79/79
f 82/82/82 81/81/81 80/80/80
f 82/82/82 83/83/83 81/81/81
f 82/82/82 84/84/84 83/83/83
f 85/85/85 84/84/84 82/82/82
f 85/85/85 86/86/86 84/84/84
f 87/87/87 89/89/89 88/88/88
f 87/87/87 90/90/90 89/89/89
f 89/89/89 90/90/90 91/91/91
f 92/92/92 90/90/90 87/87/87
f 92/92/92 93/93/93 90/90/90
f 87/87/87 94/94/94 92/92/92
f 87/87/87 95/95/95 94/94/94
f 95/95/95 87/87/87 96/96/96
f 87/87/87 97/97/97 96/96/96
f 90/90/90 98/98/98 91/91/91
f 90/90/90 99/99/99 98/98/98
f 98/98/98 100/100/100 91/91/91
f 101/101/101 91/91/91 100/100/100
f 100/100/100 98/98/98 102/102/102
f 98/98/98 103/103/103 102/102/102
f 102/102/102 103/103/103 104/104/104
f 98/98/98 105/105/105 103/103/103
f 105/105/105 106/106/106 103/103/103
f 105/105/105 107/107/107 106/106/106
f 108/108/108 110/110/110 109/109/109
f 111/111/111 110/110/110 108/108/108
f 110/110/110 111/111/111 112/112/112
f 113/113/113 112/112/112 111/111/111
f 111/111/111 114/114/114 113/113/113
f 113/113/113 114/114/114 115/115/115
f 113/113/113 115/115/115 116/116/116
f 115/115/115 117/117/117 116/116/116
f 116/116/116 117/117/117 118/118/118
f 118/118/118 117/117/117 119/119/119
f 117/117/117 120/120/120 119/119/119
f 117/117/117 121/121/121 120/120/120
f 122/122/122 124/124/124 123/123/123
f 125/125/125 122/122/122 123/123/123
f 123/123/123 126/126/126 125/125/125
f 127/127/127 122/122/122 125/125/125
f 122/122/122 127/127/127 128/128/128
f 125/125/125 126/126/126 129/129/129
f 126/126/126 130/130/130 129/129/129
f 130/130/130 126/126/126 131/131/131
f 132/132/132 131/131/131 126/126/126
f 133/133/133 135/135/135 134/134/134
f 136/136/136 135/135/135 133/133/133
f 137/137/137 135/135/135 136/136/136
f 137/137/137 136/136/136 138/138/138
f 137/137/137 139/139/139 135/135/135
f 140/140/140 139/139/139 137/137/137
f 141/141/141 139/139/139 140/140/140
f 142/142/142 139/139/139 141/141/141
f 142/142/142 141/141/141 143/143/143
f 142/142/142 144/144/144 139/139/139
f 139/139/139 144/144/144 135/135/135
f 135/135/135 144/144/144 145/145/145
f 135/135/135 145/145/145 146/146/146
f 147/147/147 145/145/145 144/144/144
f 148/148/148 146/146/146 145/145/145
f 145/145/145 147/147/147 148/148/148
f 149/149/149 151/151/151 150/150/150
f 150/150/150 152/152/152 149/149/149
f 152/152/152 150/150/150 153/153/153
f 154/154/154 149/149/149 152/152/152
f 152/152/152 153/153/153 155/155/155
f 152/152/152 156/156/156 154/154/154
f 156/156/156 157/157/157 154/154/154
f 156/156/156 158/158/158 157/157/157
f 158/158/158 156/156/156 152/152/152
f 152/152/152 155/155/155 159/159/159
f 160/160/160 159/159/159 155/155/155
f 161/161/161 159/159/159 160/160/160
f 160/160/160 162/162/162 161/161/161
f 163/163/163 159/159/159 161/161/161
f 159/159/159 163/163/163 152/152/152
f 163/163/163 158/158/158 152/152/152
f 164/164/164 158/158/158 163/163/163
f 164/164/164 165/165/165 158/158/158
f 166/166/166 164/164/164 163/163/163
f 167/167/167 169/169/169 168/168/168
f 169/169/169 170/170/170 168/168/168
