mtllib P_CubicCliffPiece11.mtl
v 0.4981768 -10.11401 2.672986
v 0.205208 -9.922501 2.435304
v 0.2098772 -9.77309 2.513835
v -0.1319654 -10.03522 2.815836
v 0.2098772 -9.77309 2.513835
v 0.205208 -9.922501 2.435304
v 0.3874435 -9.967552 0.04807159
v 0.500435 -10.18116 1.4684
v 0.5427627 -10.12855 -0.3964954
v 4.293037 -9.50959 2.642629
v 3.571694 -9.868198 2.502096
v 1.590279 -10.11184 2.668272
v 0.4981768 -10.11401 2.672986
v 4.807381 -7.882717 2.640947
v 4.745522 -8.996269 2.646264
v 4.801796 -4.920006 2.655783
v 4.930153 -5.932335 2.561983
v 4.904488 -3.677578 2.569783
v 0.3062365 -4.187019 2.673088
v 0.2098772 -9.77309 2.513835
v 4.707268 -1.31617 2.648132
v 4.905006 -1.258224 2.459732
v 4.909752 0.8458824 2.641189
v 3.905861 6.786301 2.680663
v 4.92643 8.704597 2.633657
v 0.05893729 -4.598595 2.528696
v -0.1319654 -10.03522 2.815836
v 0.4189837 0.1158142 2.682571
v 0.1581805 -0.315979 2.579118
v 0.03760551 -0.6216888 2.564821
v 0.1653674 0.6280365 2.664142
v 0.1943743 1.715332 2.762646
v 0.3375018 3.687668 2.836459
v -2.575004 3.426411 2.790282
v -0.1052778 -0.6820869 2.774758
v -0.1319654 -10.03522 2.815836
v -1.912773 -10.01179 2.829094
v -4.128105 -9.424046 2.783477
v -4.076194 -10.06138 2.809467
v -4.301658 1.700798 2.775143
v -4.522423 -5.839462 2.560911
v -5.11776 4.634312 2.641797
v -5.125252 2.318443 2.646249
v -4.763512 1.858852 2.696336
v -2.130012 9.880924 2.803441
v -3.958977 9.77919 2.74402
v 0.8137286 9.84584 2.828527
v -5.083763 7.936989 2.65589
v -4.725487 9.748268 2.667773
v -5.108482 9.76767 2.384779
v 1.861138 9.894901 2.6887
v 4.471397 9.685368 2.621427
v 2.665627 9.889149 2.637618
v 4.931175 9.566238 2.303321
v 3.571694 -9.868198 2.502096
v 4.293037 -9.50959 2.642629
v 4.666695 -9.912132 1.40803
v 4.397591 -10.05863 0.4975147
v 4.275398 -9.984093 -2.07974
v 4.659294 -9.660671 -1.705423
v 4.428627 -9.921562 -2.516248
v 4.305763 -10.00994 -3.038946
v 3.421547 -10.01965 -3.074579
v 0.2165907 -10.08576 -2.187838
v 1.93502 -10.0255 -3.088235
v 1.350837 -9.987282 -3.018938
v 0.414314 -9.94516 -2.803097
v -1.856072 -9.802155 -2.775589
v 3.17762 -10.12382 1.291648
v 1.725548 -10.18842 2.525853
v 1.590279 -10.11184 2.668272
v 0.4981768 -10.11401 2.672986
v 1.360329 -10.29619 1.209991
v 0.500435 -10.18116 1.4684
v 0.205208 -9.922501 2.435304
v 0.5427627 -10.12855 -0.3964954
v 0.2611771 -9.944962 0.7915325
v 0.3874435 -9.967552 0.04807159
v 0.28199 -10.07022 -0.4680367
v 0.0765458 -10.0937 1.05852
v -0.1319654 -10.03522 2.815836
v -1.912773 -10.01179 2.829094
v -2.162148 -10.03445 0.1477115
v -2.058327 -9.912708 -2.339092
v -4.284721 -10.08352 0.8408421
v -4.076194 -10.06138 2.809467
v -4.188881 -10.06043 2.101599
v -4.426338 -10.03699 -0.4388009
v -4.44735 -9.89785 -1.716318
v -4.310112 -9.752029 -2.336967
v -4.199883 -9.689743 -2.588341
v -4.446938 -9.790199 -2.066943
v -0.1319654 -10.03522 2.815836
v -0.1052778 -0.6820869 2.774758
v 0.05893729 -4.598595 2.528696
v 0.03760551 -0.6216888 2.564821
v 0.1943743 1.715332 2.762646
v 0.8137286 9.84584 2.828527
v -2.130012 9.880924 2.803441
v 1.861138 9.894901 2.6887
v -0.1072314 9.88065 -2.521193
v 2.665627 9.889149 2.637618
v 2.285713 9.90107 -2.465998
v 3.495003 9.909149 0.7368454
v 3.846962 9.681423 -2.164986
v 4.471397 9.685368 2.621427
v 4.917824 9.584839 -1.526953
v 4.931175 9.566238 2.303321
v 4.516426 9.229637 -2.227309
v 4.921303 9.202271 -1.946347
v -2.876763 9.884483 -1.52166
v -3.478157 9.624908 -2.697865
v -5.115593 9.746559 0.8623999
v -5.108482 9.76767 2.384779
v -3.958977 9.77919 2.74402
v -4.725487 9.748268 2.667773
v -5.135262 9.57225 -1.42013
v -5.03437 9.458313 -2.081439
v -4.981651 9.261719 -2.587721
v -4.887917 9.208748 -2.675501
v -4.887917 9.208748 -2.675501
v -4.981651 9.261719 -2.587721
v -5.140526 7.550976 -2.670084
v -2.29969 5.341946 -2.800581
v -3.478157 9.624908 -2.697865
v -0.1072314 9.88065 -2.521193
v -4.881157 1.809616 -2.7838
v -5.127999 2.042702 -2.783245
v 1.474159 9.375992 -2.535772
v 2.285713 9.90107 -2.465998
v -3.246178 1.624344 -2.914387
v -4.497216 1.425762 -2.806551
v 0.9076612 -4.998058 -2.983814
v -4.484902 -6.866417 -2.793595
v 1.696861 -7.628407 -2.947687
v -1.856072 -9.802155 -2.775589
v -4.199883 -9.689743 -2.588341
v 0.414314 -9.94516 -2.803097
v 1.350837 -9.987282 -3.018938
v 1.93502 -10.0255 -3.088235
v 1.654365 4.777138 -2.763574
v 2.741737 0.3677292 -2.856599
v 3.10276 5.368504 -2.842115
v 4.369453 -9.129246 -3.037666
v 3.421547 -10.01965 -3.074579
v 4.305763 -10.00994 -3.038946
v 4.469886 -7.317001 -3.029114
v 4.301368 -6.955914 -2.7995
v 4.322395 -5.431221 -2.761638
v 4.276603 -2.002319 -2.738523
v 4.629372 -3.178001 -2.52946
v 4.910698 -0.8370934 -2.395372
v 4.413154 2.498497 -2.82805
v 4.927223 3.981876 -2.497206
v 4.917717 5.598652 -2.317777
v 4.205909 4.50066 -2.73901
v 4.138999 6.326935 -2.751704
v 4.922432 7.016216 -2.16864
v 4.090492 8.689186 -2.593907
v 4.921303 9.202271 -1.946347
v 4.516426 9.229637 -2.227309
v 3.846962 9.681423 -2.164986
v -5.135262 9.57225 -1.42013
v -4.981651 9.261719 -2.587721
v -5.03437 9.458313 -2.081439
v -5.140526 7.550976 -2.670084
v -5.129875 7.716419 2.607175
v -5.115593 9.746559 0.8623999
v -5.127999 2.042702 -2.783245
v -5.108482 9.76767 2.384779
v -5.135582 1.655243 -0.7536066
v -5.083763 7.936989 2.65589
v -5.11776 4.634312 2.641797
v -5.129662 1.847519 2.207041
v -5.125252 2.318443 2.646249
v -4.763512 1.858852 2.696336
v -4.552238 1.430328 -2.391193
v -4.881157 1.809616 -2.7838
v -5.127999 2.042702 -2.783245
v -4.873116 1.561295 -1.587095
v -4.538094 1.542953 -0.7831832
v -5.135582 1.655243 -0.7536066
v -4.537712 1.642075 0.7205446
v -5.110741 1.760826 1.0643
v -5.129662 1.847519 2.207041
v -4.540825 1.778931 2.695485
v -4.763512 1.858852 2.696336
v -4.301658 1.700798 2.775143
v -4.50164 1.67012 2.564754
v -4.552238 1.430328 -2.391193
v -4.497216 1.425762 -2.806551
v -4.881157 1.809616 -2.7838
v -4.484902 -6.866417 -2.793595
v -4.538094 1.542953 -0.7831832
v -4.537712 1.642075 0.7205446
v -4.419792 -9.320358 0.7324413
v -4.446938 -9.790199 -2.066943
v -4.199883 -9.689743 -2.588341
v -4.310112 -9.752029 -2.336967
v -4.426338 -10.03699 -0.4388009
v -4.44735 -9.89785 -1.716318
v -4.284721 -10.08352 0.8408421
v -4.188881 -10.06043 2.101599
v -4.522423 -5.839462 2.560911
v -4.128105 -9.424046 2.783477
v -4.076194 -10.06138 2.809467
v -4.50164 1.67012 2.564754
v -4.301658 1.700798 2.775143
v -4.540825 1.778931 2.695485
v 4.910698 -0.8370934 -2.395372
v 4.917717 5.598652 -2.317777
v 4.927223 3.981876 -2.497206
v 4.922432 7.016216 -2.16864
v 4.921303 9.202271 -1.946347
v 4.909752 0.8458824 2.641189
v 4.92643 8.704597 2.633657
v 4.931175 9.566238 2.303321
v 4.917824 9.584839 -1.526953
v 4.905006 -1.258224 2.459732
v 4.904488 -3.677578 2.569783
v 4.91729 -6.42865 -1.453786
v 4.930153 -5.932335 2.561983
v 4.906502 -3.748573 -2.056799
v 4.629372 -3.178001 -2.52946
v 4.828407 -7.233524 -1.579275
v 4.322395 -5.431221 -2.761638
v 4.301368 -6.955914 -2.7995
v 4.942848 -9.370522 1.744419
v 4.807381 -7.882717 2.640947
v 4.745522 -8.996269 2.646264
v 4.293037 -9.50959 2.642629
v 4.770638 -7.368031 -1.933997
v 4.469886 -7.317001 -3.029114
v 4.369453 -9.129246 -3.037666
v 4.659294 -9.660671 -1.705423
v 4.428627 -9.921562 -2.516248
v 4.305763 -10.00994 -3.038946
v 4.907387 -9.658821 1.389273
v 4.666695 -9.912132 1.40803
vn -0.3328948 -0.6415001 0.6911286
vn -0.07115646 -0.9139926 0.3994425
vn 0.08160398 -0.1514157 0.9850959
vn 0.3175914 -0.6359455 0.7033556
vn 0.08160398 -0.1514157 0.9850959
vn -0.07115646 -0.9139926 0.3994425
vn -0.2269482 -0.9722458 0.05685744
vn -0.4142083 -0.9101757 0.0034213
vn -0.2808793 -0.9576944 0.06267486
vn 0.3400369 -0.4934857 0.8005291
vn 0.1925249 -0.838502 0.5097534
vn 0.03107983 -0.5059133 0.8620242
vn -0.3328948 -0.6415001 0.6911286
vn 0.6226929 -0.03462401 0.7817
vn 0.6137131 -0.2064437 0.7620612
vn 0.3245564 0.002256745 0.9458637
vn 0.888737 -0.0002487929 0.4584175
vn 0.8721938 0.01070998 0.4890433
vn -0.2605789 -0.001085881 0.965452
vn 0.08160398 -0.1514157 0.9850959
vn 0.3616849 -0.004815963 0.9322879
vn 0.9256342 -0.01180485 0.3782354
vn 0.7201113 -0.003104793 0.6938517
vn 0.03515304 0.004804237 0.9993704
vn 0.7105705 0.04254301 0.7023388
vn 0.2373741 -0.008535643 0.9713808
vn 0.3175914 -0.6359455 0.7033556
vn -0.1178323 -0.03793926 0.9923085
vn -0.1400574 -0.04587647 0.98908
vn 0.4448616 -0.04418087 0.894509
vn -0.04576085 -0.08919944 0.994962
vn 0.03796175 -0.02915511 0.9988538
vn 0.0291177 -0.02229328 0.9993273
vn -0.02372739 0.003690242 0.9997116
vn 0.4635236 -0.02073453 0.885842
vn 0.3175914 -0.6359455 0.7033556
vn -0.00424866 -0.6939374 0.7200228
vn -0.6490822 -0.04713134 0.7592568
vn -0.4965726 -0.597123 0.6299681
vn -0.2679444 -0.09825107 0.9584115
vn -0.8874709 -0.01827432 0.4605013
vn -0.4693318 0.006915478 0.8829948
vn -0.7521014 -0.1100361 0.6497964
vn -0.3977727 -0.5470144 0.7365814
vn -0.03231751 0.7067487 0.7067262
vn -0.07661368 0.6363736 0.767567
vn 0.04583169 0.5357502 0.8431318
vn -0.5220114 0.03619812 0.8521701
vn -0.2618016 0.6154612 0.7434161
vn -0.6998906 0.6350728 0.3268575
vn 0.05162038 0.723416 0.68848
vn 0.2660905 0.6696638 0.6933587
vn 0.05732824 0.8558302 0.5140702
vn 0.7752621 0.5721238 0.2676624
vn 0.1925249 -0.838502 0.5097534
vn 0.3400369 -0.4934857 0.8005291
vn 0.490265 -0.8521442 0.1830042
vn 0.3268739 -0.9450609 -0.003657107
vn 0.3428542 -0.9393213 0.01124739
vn 0.9070537 -0.4040705 -0.1182397
vn 0.8274535 -0.5530756 -0.09709901
vn 0.5016791 -0.617829 -0.6054795
vn 0.0277855 -0.6918337 -0.7215222
vn -0.04277675 -0.9918171 -0.1202873
vn -0.04150229 -0.6539934 -0.755361
vn -0.1714604 -0.5751115 -0.7999051
vn -0.1107784 -0.6367369 -0.763082
vn -0.06191181 -0.6144843 -0.7864961
vn 0.1095366 -0.992259 0.05851277
vn 0.08018196 -0.9442003 0.319463
vn 0.03107983 -0.5059133 0.8620242
vn -0.3328948 -0.6415001 0.6911286
vn -0.008442519 -0.9999478 -0.005748597
vn -0.4142083 -0.9101757 0.0034213
vn -0.07115646 -0.9139926 0.3994425
vn -0.2808793 -0.9576944 0.06267486
vn 0.07372458 -0.9972471 0.00793063
vn -0.2269482 -0.9722458 0.05685744
vn -0.01786117 -0.9981395 0.05829695
vn 0.331775 -0.9428892 0.0297548
vn 0.3175914 -0.6359455 0.7033556
vn -0.00424866 -0.6939374 0.7200228
vn -0.01112319 -0.9997666 -0.01851769
vn -0.05406708 -0.9828398 -0.1763598
vn -0.6287309 -0.7761121 0.04845018
vn -0.4965726 -0.597123 0.6299681
vn -0.7539503 -0.6484742 0.1050724
vn -0.6952801 -0.7184392 -0.02075551
vn -0.7410905 -0.6629829 -0.1060123
vn -0.4523747 -0.8041341 -0.3856495
vn -0.4407127 -0.5456846 -0.7127416
vn -0.810371 -0.5264899 -0.2571132
vn 0.3175914 -0.6359455 0.7033556
vn 0.4635236 -0.02073453 0.885842
vn 0.2373741 -0.008535643 0.9713808
vn 0.4448616 -0.04418087 0.894509
vn 0.03796175 -0.02915511 0.9988538
vn 0.04583169 0.5357502 0.8431318
vn -0.03231751 0.7067487 0.7067262
vn 0.05162038 0.723416 0.68848
vn 0.008384759 0.7284328 -0.6850659
vn 0.05732824 0.8558302 0.5140702
vn 0.06072208 0.7534455 -0.6547005
vn 0.1050377 0.9944678 0.0009477952
vn 0.239265 0.8184322 -0.5224184
vn 0.2660905 0.6696638 0.6933587
vn 0.7274674 0.6599859 -0.1876429
vn 0.7752621 0.5721238 0.2676624
vn 0.4526333 0.4227064 -0.7851384
vn 0.8299971 0.2821845 -0.4811204
vn -0.06775589 0.9942119 -0.08337848
vn -0.08019605 0.655101 -0.7512732
vn -0.7194165 0.6945328 -0.008004778
vn -0.6998906 0.6350728 0.3268575
vn -0.07661368 0.6363736 0.767567
vn -0.2618016 0.6154612 0.7434161
vn -0.7498468 0.6532707 -0.1047248
vn -0.6631714 0.700971 -0.2623802
vn -0.6932963 0.5097595 -0.5093972
vn -0.3203413 0.3204826 -0.891444
vn -0.3203413 0.3204826 -0.891444
vn -0.6932963 0.5097595 -0.5093972
vn -0.7246466 0.01756096 -0.6888968
vn -0.003705106 0.03076902 -0.9995196
vn -0.08019605 0.655101 -0.7512732
vn 0.008384759 0.7284328 -0.6850659
vn -0.4867631 -0.4635258 -0.7404091
vn -0.7016206 -0.2603775 -0.6632738
vn 0.008440015 0.08116149 -0.9966652
vn 0.06072208 0.7534455 -0.6547005
vn -0.0435154 0.008760911 -0.9990144
vn -0.5467741 -0.2096876 -0.8105981
vn 0.01284706 -0.00107865 -0.9999169
vn -0.7174763 -0.0310882 -0.6958888
vn -0.01786859 0.01720049 -0.9996924
vn -0.06191181 -0.6144843 -0.7864961
vn -0.4407127 -0.5456846 -0.7127416
vn -0.1107784 -0.6367369 -0.763082
vn -0.1714604 -0.5751115 -0.7999051
vn -0.04150229 -0.6539934 -0.755361
vn -0.02172799 0.03006636 -0.9993117
vn 0.02837287 0.00267399 -0.9995939
vn 0.005548905 0.03052858 -0.9995185
vn 0.6195989 -0.03174388 -0.7842764
vn 0.0277855 -0.6918337 -0.7215222
vn 0.5016791 -0.617829 -0.6054795
vn 0.570809 0.2925546 -0.7671955
vn 0.5407953 0.3133577 -0.7806071
vn 0.5383773 -0.02059073 -0.8424523
vn 0.2881548 -0.006873447 -0.9575592
vn 0.697301 -0.03273704 -0.7160304
vn 0.8725117 -0.01845692 -0.4882445
vn 0.3112075 -0.0006481619 -0.9503418
vn 0.8265582 0.05782819 -0.5598727
vn 0.8576947 0.02780709 -0.5134066
vn 0.2783709 0.05494768 -0.9589006
vn 0.2964231 0.0556843 -0.953432
vn 0.8890964 0.04148304 -0.4558364
vn 0.292749 0.178559 -0.9393693
vn 0.8299971 0.2821845 -0.4811204
vn 0.4526333 0.4227064 -0.7851384
vn 0.239265 0.8184322 -0.5224184
vn -0.7498468 0.6532707 -0.1047248
vn -0.6932963 0.5097595 -0.5093972
vn -0.6631714 0.700971 -0.2623802
vn -0.7246466 0.01756096 -0.6888968
vn -0.9318644 0.008445126 0.3627084
vn -0.7194165 0.6945328 -0.008004778
vn -0.7016206 -0.2603775 -0.6632738
vn -0.6998906 0.6350728 0.3268575
vn -0.7683794 -0.6396179 0.02195583
vn -0.5220114 0.03619812 0.8521701
vn -0.4693318 0.006915478 0.8829948
vn -0.7612935 -0.6277446 0.1623852
vn -0.7521014 -0.1100361 0.6497964
vn -0.3977727 -0.5470144 0.7365814
vn -0.901704 -0.4231932 -0.08852963
vn -0.4867631 -0.4635258 -0.7404091
vn -0.7016206 -0.2603775 -0.6632738
vn -0.4761104 -0.8783947 -0.04173376
vn -0.7681307 -0.638904 0.04215343
vn -0.7683794 -0.6396179 0.02195583
vn -0.7613586 -0.646702 0.04593012
vn -0.3399906 -0.9383624 0.06231009
vn -0.7612935 -0.6277446 0.1623852
vn -0.4107531 -0.8895596 0.1999141
vn -0.3977727 -0.5470144 0.7365814
vn -0.2679444 -0.09825107 0.9584115
vn -0.9110811 -0.2837691 0.299009
vn -0.901704 -0.4231932 -0.08852963
vn -0.5467741 -0.2096876 -0.8105981
vn -0.4867631 -0.4635258 -0.7404091
vn -0.7174763 -0.0310882 -0.6958888
vn -0.7681307 -0.638904 0.04215343
vn -0.7613586 -0.646702 0.04593012
vn -0.9948048 -0.08111102 0.06151797
vn -0.810371 -0.5264899 -0.2571132
vn -0.4407127 -0.5456846 -0.7127416
vn -0.4523747 -0.8041341 -0.3856495
vn -0.6952801 -0.7184392 -0.02075551
vn -0.7410905 -0.6629829 -0.1060123
vn -0.6287309 -0.7761121 0.04845018
vn -0.7539503 -0.6484742 0.1050724
vn -0.8874709 -0.01827432 0.4605013
vn -0.6490822 -0.04713134 0.7592568
vn -0.4965726 -0.597123 0.6299681
vn -0.9110811 -0.2837691 0.299009
vn -0.2679444 -0.09825107 0.9584115
vn -0.4107531 -0.8895596 0.1999141
vn 0.8725117 -0.01845692 -0.4882445
vn 0.8576947 0.02780709 -0.5134066
vn 0.8265582 0.05782819 -0.5598727
vn 0.8890964 0.04148304 -0.4558364
vn 0.8299971 0.2821845 -0.4811204
vn 0.7201113 -0.003104793 0.6938517
vn 0.7105705 0.04254301 0.7023388
vn 0.7752621 0.5721238 0.2676624
vn 0.7274674 0.6599859 -0.1876429
vn 0.9256342 -0.01180485 0.3782354
vn 0.8721938 0.01070998 0.4890433
vn 0.9889153 -0.03644695 -0.143938
vn 0.888737 -0.0002487929 0.4584175
vn 0.9406798 -0.05268688 -0.3351798
vn 0.697301 -0.03273704 -0.7160304
vn 0.943085 -0.004980956 -0.3325144
vn 0.5383773 -0.02059073 -0.8424523
vn 0.5407953 0.3133577 -0.7806071
vn 0.9275234 -0.3057993 0.2149121
vn 0.6226929 -0.03462401 0.7817
vn 0.6137131 -0.2064437 0.7620612
vn 0.3400369 -0.4934857 0.8005291
vn 0.959982 0.1478383 -0.2378622
vn 0.570809 0.2925546 -0.7671955
vn 0.6195989 -0.03174388 -0.7842764
vn 0.9070537 -0.4040705 -0.1182397
vn 0.8274535 -0.5530756 -0.09709901
vn 0.5016791 -0.617829 -0.6054795
vn 0.897733 -0.4292668 0.09902233
vn 0.490265 -0.8521442 0.1830042
vt 0.5144679 0.2280829
vt 0.5151346 0.2267194
vt 0.5144679 0.2262239
vt 0.509635 0.2281416
vt 0.510089 0.2262239
vt 0.5092584 0.2262239
vt 0.3345515 0.5629333
vt 0.335404 0.5699562
vt 0.335404 0.5607808
vt 0.5322421 0.8903808
vt 0.5357895 0.8921337
vt 0.5455408 0.8933452
vt 0.5509143 0.8933561
vt 0.5297113 0.8823771
vt 0.5300158 0.8878558
vt 0.529739 0.8678027
vt 0.5291063 0.8727756
vt 0.5292326 0.8616836
vt 0.5518587 0.8641972
vt 0.5523309 0.8916661
vt 0.530204 0.8500724
vt 0.5292287 0.8497724
vt 0.5292076 0.8394353
vt 0.5341476 0.8102134
vt 0.5291255 0.8007725
vt 0.5530737 0.8662104
vt 0.5540166 0.8929797
vt 0.5513041 0.8430294
vt 0.552586 0.8451454
vt 0.5531791 0.8466482
vt 0.5525517 0.840508
vt 0.5524102 0.8351668
vt 0.5517069 0.8254694
vt 0.5660367 0.8267505
vt 0.5538847 0.8469622
vt 0.5540166 0.8929797
vt 0.5627788 0.8928651
vt 0.5736784 0.8899695
vt 0.5734233 0.8931071
vt 0.5745322 0.8352383
vt 0.5756158 0.8723167
vt 0.578546 0.8207956
vt 0.5785829 0.8321892
vt 0.5768037 0.8344544
vt 0.5638474 0.7949975
vt 0.5728458 0.7954929
vt 0.5493637 0.7951727
vt 0.5783789 0.8045486
vt 0.5766162 0.7956387
vt 0.5784972 0.7955206
vt 0.5442083 0.7949204
vt 0.5313643 0.7959464
vt 0.5402493 0.7949448
vt 0.529098 0.7965071
vt 0.9785005 0.2398228
vt 0.9793312 0.236284
vt 0.9733316 0.2342317
vt 0.9688028 0.2353879
vt 0.9561083 0.2354895
vt 0.9580235 0.2336565
vt 0.9539918 0.234649
vt 0.951398 0.2351574
vt 0.951053 0.2394982
vt 0.9547971 0.2554285
vt 0.9507004 0.246804
vt 0.950929 0.2496872
vt 0.9518106 0.2543306
vt 0.9515104 0.2654899
vt 0.9724727 0.2415416
vt 0.9782616 0.2489209
vt 0.9789361 0.2496091
vt 0.9787496 0.2549792
vt 0.9717216 0.2504696
vt 0.9728274 0.2547404
vt 0.9775255 0.2563635
vt 0.9636668 0.2541713
vt 0.9694544 0.2557738
vt 0.9658233 0.2550115
vt 0.9632652 0.2554364
vt 0.9707311 0.2567409
vt 0.9793312 0.2581003
vt 0.9790545 0.2668565
vt 0.9658234 0.2675688
vt 0.9536172 0.2665741
vt 0.9688234 0.2781397
vt 0.9785424 0.2774914
vt 0.9750405 0.2779094
vt 0.962505 0.2785876
vt 0.9562204 0.278438
vt 0.9531958 0.2776362
vt 0.9519813 0.2770426
vt 0.954497 0.2783628
vt 0.1146817 0.2948446
vt 0.1146817 0.2488236
vt 0.1133862 0.2680864
vt 0.1136499 0.2485201
vt 0.1146737 0.2370237
vt 0.716886 0.4179964
vt 0.716886 0.432478
vt 0.7176182 0.4128463
vt 0.7431688 0.4227503
vt 0.7179033 0.4088909
vt 0.7429979 0.410974
vt 0.7272903 0.4048894
vt 0.7415812 0.4032933
vt 0.7180576 0.4000196
vt 0.7384864 0.3980038
vt 0.7196414 0.397778
vt 0.7419133 0.400029
vt 0.7405478 0.3980269
vt 0.7381347 0.4363336
vt 0.7438951 0.4393571
vt 0.72631 0.4472559
vt 0.7188201 0.4471557
vt 0.7171009 0.4414846
vt 0.7174437 0.4452606
vt 0.7375385 0.447459
vt 0.7407959 0.4469972
vt 0.7432879 0.4467707
vt 0.7437234 0.4463164
vt 0.05994073 0.7984947
vt 0.05948125 0.7982222
vt 0.05869796 0.8066475
vt 0.0726731 0.8175317
vt 0.06687674 0.7964516
vt 0.08346603 0.7951716
vt 0.05997188 0.8349016
vt 0.05875738 0.833755
vt 0.09124663 0.7976565
vt 0.09524109 0.7950649
vt 0.06801391 0.8358315
vt 0.06186055 0.8367929
vt 0.08845058 0.8684151
vt 0.0619214 0.8775758
vt 0.0923344 0.8813478
vt 0.0748563 0.892014
vt 0.06332777 0.8914344
vt 0.08602672 0.8927223
vt 0.09063047 0.8929593
vt 0.09350345 0.8931569
vt 0.09212888 0.8203068
vt 0.09747726 0.8420075
vt 0.09925386 0.8174096
vt 0.1054826 0.8887432
vt 0.1008179 0.8931271
vt 0.1051692 0.893075
vt 0.1059769 0.8798287
vt 0.1051522 0.8780214
vt 0.1052564 0.8705172
vt 0.1050315 0.8536492
vt 0.1067713 0.8594035
vt 0.1081581 0.8478718
vt 0.1057016 0.8315244
vt 0.1082374 0.8241838
vt 0.1081941 0.8162075
vt 0.1046837 0.8216646
vt 0.1043542 0.8126839
vt 0.1082203 0.809215
vt 0.1041186 0.8010439
vt 0.108219 0.7984329
vt 0.1062215 0.7983361
vt 0.1029287 0.7961053
vt 0.9238687 0.9469578
vt 0.9296129 0.9484422
vt 0.9271188 0.9474937
vt 0.9300925 0.956857
vt 0.9041234 0.9562365
vt 0.9126317 0.9461839
vt 0.9308499 0.9839545
vt 0.9051409 0.9461358
vt 0.9208796 0.9859354
vt 0.9038723 0.9551529
vt 0.9040651 0.9714023
vt 0.9063068 0.9850979
vt 0.9041285 0.982797
vt 0.9038723 0.9850585
vt 0.1107578 0.3246745
vt 0.1122588 0.3266818
vt 0.1134593 0.3267376
vt 0.1125214 0.3207997
vt 0.11107 0.3167683
vt 0.1140071 0.3167666
vt 0.1114254 0.3093778
vt 0.1143178 0.3078262
vt 0.1146817 0.3022145
vt 0.1119096 0.2996724
vt 0.1129998 0.2997216
vt 0.1107578 0.2992236
vt 0.1116914 0.3003059
vt 0.9666888 0.8600448
vt 0.9687283 0.8600605
vt 0.9686385 0.8581739
vt 0.9687944 0.9008605
vt 0.958775 0.8595161
vt 0.9513754 0.8590522
vt 0.9514811 0.9129902
vt 0.9652628 0.9152577
vt 0.9678081 0.914754
vt 0.9665805 0.915065
vt 0.9572551 0.9164976
vt 0.9635395 0.9157929
vt 0.9509499 0.9167463
vt 0.9447399 0.9166521
vt 0.9424382 0.8958926
vt 0.9413707 0.9135315
vt 0.9412491 0.9166675
vt 0.9422993 0.8589432
vt 0.9412491 0.8587947
vt 0.9416573 0.8584101
vt 0.8120023 0.4048685
vt 0.8123841 0.3732027
vt 0.8115012 0.3811575
vt 0.8131179 0.3662277
vt 0.8142116 0.3554717
vt 0.8367838 0.3965878
vt 0.8367467 0.3579203
vt 0.8351213 0.3536808
vt 0.8162752 0.3535894
vt 0.8358909 0.4069407
vt 0.8364325 0.4188446
vt 0.8166352 0.4323806
vt 0.836394 0.4299384
vt 0.8136682 0.419194
vt 0.8113428 0.41639
vt 0.8160178 0.4363419
vt 0.8102007 0.4274804
vt 0.8100144 0.4349826
vt 0.8323714 0.4468552
vt 0.8367827 0.4395364
vt 0.8368089 0.4450162
vt 0.8367914 0.4475475
vt 0.8142725 0.4370045
vt 0.8088845 0.4367571
vt 0.8088425 0.4456752
vt 0.8153973 0.4482863
vt 0.811408 0.4495729
vt 0.8088362 0.4500093
vt 0.8306239 0.4482741
vt 0.8307164 0.4495235
usemtl MV_RockCubic_Cliff
f 1/1/1 3/3/3 2/2/2
f 4/4/4 6/6/6 5/5/5
f 7/7/7 9/9/9 8/8/8
f 10/10/10 12/12/12 11/11/11
f 13/13/13 12/12/12 10/10/10
f 13/13/13 10/10/10 14/14/14
f 14/14/14 10/10/10 15/15/15
f 16/16/16 13/13/13 14/14/14
f 16/16/16 14/14/14 17/17/17
f 16/16/16 17/17/17 18/18/18
f 16/16/16 19/19/19 13/13/13
f 19/19/19 20/20/20 13/13/13
f 21/21/21 16/16/16 18/18/18
f 19/19/19 16/16/16 21/21/21
f 22/22/22 21/21/21 18/18/18
f 22/22/22 23/23/23 21/21/21
f 24/24/24 21/21/21 23/23/23
f 24/24/24 23/23/23 25/25/25
f 19/19/19 26/26/26 20/20/20
f 20/20/20 26/26/26 27/27/27
f 28/28/28 19/19/19 21/21/21
f 24/24/24 28/28/28 21/21/21
f 19/19/19 29/29/29 26/26/26
f 28/28/28 29/29/29 19/19/19
f 30/30/30 26/26/26 29/29/29
f 30/30/30 29/29/29 31/31/31
f 31/31/31 29/29/29 28/28/28
f 31/31/31 32/32/32 30/30/30
f 28/28/28 32/32/32 31/31/31
f 33/33/33 32/32/32 28/28/28
f 33/33/33 28/28/28 24/24/24
f 33/33/33 34/34/34 32/32/32
f 34/34/34 35/35/35 32/32/32
f 35/35/35 34/34/34 36/36/36
f 36/36/36 34/34/34 37/37/37
f 34/34/34 38/38/38 37/37/37
f 38/38/38 39/39/39 37/37/37
f 34/34/34 40/40/40 38/38/38
f 41/41/41 38/38/38 40/40/40
f 42/42/42 40/40/40 34/34/34
f 40/40/40 42/42/42 43/43/43
f 44/44/44 40/40/40 43/43/43
f 42/42/42 34/34/34 45/45/45
f 34/34/34 33/33/33 45/45/45
f 42/42/42 45/45/45 46/46/46
f 45/45/45 33/33/33 47/47/47
f 48/48/48 42/42/42 46/46/46
f 49/49/49 48/48/48 46/46/46
f 48/48/48 49/49/49 50/50/50
f 33/33/33 51/51/51 47/47/47
f 51/51/51 33/33/33 24/24/24
f 51/51/51 24/24/24 52/52/52
f 53/53/53 51/51/51 52/52/52
f 25/25/25 52/52/52 24/24/24
f 52/52/52 25/25/25 54/54/54
f 55/55/55 57/57/57 56/56/56
f 57/57/57 55/55/55 58/58/58
f 57/57/57 58/58/58 59/59/59
f 57/57/57 59/59/59 60/60/60
f 60/60/60 59/59/59 61/61/61
f 61/61/61 59/59/59 62/62/62
f 62/62/62 59/59/59 63/63/63
f 58/58/58 63/63/63 59/59/59
f 64/64/64 63/63/63 58/58/58
f 63/63/63 64/64/64 65/65/65
f 66/66/66 65/65/65 64/64/64
f 66/66/66 64/64/64 67/67/67
f 64/64/64 68/68/68 67/67/67
f 69/69/69 64/64/64 58/58/58
f 58/58/58 55/55/55 69/69/69
f 55/55/55 70/70/70 69/69/69
f 70/70/70 55/55/55 71/71/71
f 71/71/71 72/72/72 70/70/70
f 73/73/73 69/69/69 70/70/70
f 70/70/70 72/72/72 73/73/73
f 69/69/69 73/73/73 64/64/64
f 73/73/73 72/72/72 74/74/74
f 72/72/72 75/75/75 74/74/74
f 76/76/76 73/73/73 74/74/74
f 64/64/64 73/73/73 76/76/76
f 75/75/75 77/77/77 74/74/74
f 74/74/74 77/77/77 78/78/78
f 76/76/76 78/78/78 79/79/79
f 77/77/77 79/79/79 78/78/78
f 76/76/76 79/79/79 64/64/64
f 80/80/80 77/77/77 75/75/75
f 80/80/80 79/79/79 77/77/77
f 80/80/80 64/64/64 79/79/79
f 81/81/81 80/80/80 75/75/75
f 82/82/82 80/80/80 81/81/81
f 83/83/83 64/64/64 80/80/80
f 80/80/80 82/82/82 83/83/83
f 64/64/64 83/83/83 84/84/84
f 64/64/64 84/84/84 68/68/68
f 83/83/83 82/82/82 85/85/85
f 83/83/83 85/85/85 84/84/84
f 86/86/86 85/85/85 82/82/82
f 86/86/86 87/87/87 85/85/85
f 88/88/88 84/84/84 85/85/85
f 84/84/84 88/88/88 89/89/89
f 90/90/90 68/68/68 84/84/84
f 84/84/84 89/89/89 90/90/90
f 90/90/90 91/91/91 68/68/68
f 89/89/89 92/92/92 90/90/90
f 93/93/93 95/95/95 94/94/94
f 94/94/94 95/95/95 96/96/96
f 97/97/97 94/94/94 96/96/96
f 98/98/98 100/100/100 99/99/99
f 100/100/100 101/101/101 99/99/99
f 101/101/101 100/100/100 102/102/102
f 103/103/103 101/101/101 102/102/102
f 104/104/104 103/103/103 102/102/102
f 105/105/105 103/103/103 104/104/104
f 102/102/102 106/106/106 104/104/104
f 104/104/104 107/107/107 105/105/105
f 106/106/106 107/107/107 104/104/104
f 108/108/108 107/107/107 106/106/106
f 105/105/105 107/107/107 109/109/109
f 107/107/107 110/110/110 109/109/109
f 99/99/99 101/101/101 111/111/111
f 111/111/111 101/101/101 112/112/112
f 99/99/99 111/111/111 113/113/113
f 99/99/99 113/113/113 114/114/114
f 115/115/115 99/99/99 114/114/114
f 116/116/116 115/115/115 114/114/114
f 111/111/111 117/117/117 113/113/113
f 111/111/111 112/112/112 117/117/117
f 118/118/118 117/117/117 112/112/112
f 112/112/112 119/119/119 118/118/118
f 120/120/120 119/119/119 112/112/112
f 121/121/121 123/123/123 122/122/122
f 121/121/121 124/124/124 123/123/123
f 125/125/125 124/124/124 121/121/121
f 126/126/126 124/124/124 125/125/125
f 123/123/123 124/124/124 127/127/127
f 123/123/123 127/127/127 128/128/128
f 129/129/129 124/124/124 126/126/126
f 130/130/130 129/129/129 126/126/126
f 127/127/127 124/124/124 131/131/131
f 127/127/127 131/131/131 132/132/132
f 131/131/131 133/133/133 132/132/132
f 132/132/132 133/133/133 134/134/134
f 133/133/133 135/135/135 134/134/134
f 135/135/135 136/136/136 134/134/134
f 136/136/136 137/137/137 134/134/134
f 138/138/138 136/136/136 135/135/135
f 138/138/138 135/135/135 139/139/139
f 139/139/139 135/135/135 140/140/140
f 124/124/124 141/141/141 131/131/131
f 129/129/129 141/141/141 124/124/124
f 141/141/141 142/142/142 131/131/131
f 142/142/142 133/133/133 131/131/131
f 129/129/129 143/143/143 141/141/141
f 141/141/141 143/143/143 142/142/142
f 135/135/135 144/144/144 140/140/140
f 140/140/140 144/144/144 145/145/145
f 144/144/144 146/146/146 145/145/145
f 147/147/147 144/144/144 135/135/135
f 147/147/147 135/135/135 148/148/148
f 133/133/133 148/148/148 135/135/135
f 149/149/149 148/148/148 133/133/133
f 150/150/150 149/149/149 133/133/133
f 142/142/142 150/150/150 133/133/133
f 150/150/150 151/151/151 149/149/149
f 150/150/150 152/152/152 151/151/151
f 142/142/142 153/153/153 150/150/150
f 153/153/153 152/152/152 150/150/150
f 143/143/143 153/153/153 142/142/142
f 154/154/154 152/152/152 153/153/153
f 155/155/155 154/154/154 153/153/153
f 155/155/155 153/153/153 156/156/156
f 156/156/156 153/153/153 143/143/143
f 155/155/155 156/156/156 157/157/157
f 156/156/156 143/143/143 157/157/157
f 158/158/158 155/155/155 157/157/157
f 143/143/143 159/159/159 157/157/157
f 159/159/159 158/158/158 157/157/157
f 129/129/129 159/159/159 143/143/143
f 160/160/160 158/158/158 159/159/159
f 130/130/130 159/159/159 129/129/129
f 161/161/161 160/160/160 159/159/159
f 130/130/130 161/161/161 159/159/159
f 162/162/162 161/161/161 130/130/130
f 163/163/163 165/165/165 164/164/164
f 163/163/163 164/164/164 166/166/166
f 163/163/163 166/166/166 167/167/167
f 163/163/163 167/167/167 168/168/168
f 167/167/167 166/166/166 169/169/169
f 168/168/168 167/167/167 170/170/170
f 169/169/169 171/171/171 167/167/167
f 172/172/172 170/170/170 167/167/167
f 173/173/173 172/172/172 167/167/167
f 167/167/167 171/171/171 174/174/174
f 173/173/173 167/167/167 175/175/175
f 167/167/167 174/174/174 175/175/175
f 175/175/175 174/174/174 176/176/176
f 177/177/177 179/179/179 178/178/178
f 180/180/180 179/179/179 177/177/177
f 180/180/180 177/177/177 181/181/181
f 180/180/180 182/182/182 179/179/179
f 181/181/181 182/182/182 180/180/180
f 183/183/183 182/182/182 181/181/181
f 183/183/183 184/184/184 182/182/182
f 184/184/184 185/185/185 182/182/182
f 186/186/186 184/184/184 183/183/183
f 186/186/186 185/185/185 184/184/184
f 185/185/185 186/186/186 187/187/187
f 187/187/187 186/186/186 188/188/188
f 188/188/188 186/186/186 189/189/189
f 190/190/190 192/192/192 191/191/191
f 190/190/190 191/191/191 193/193/193
f 194/194/194 190/190/190 193/193/193
f 194/194/194 193/193/193 195/195/195
f 196/196/196 195/195/195 193/193/193
f 193/193/193 197/197/197 196/196/196
f 193/193/193 198/198/198 197/197/197
f 197/197/197 198/198/198 199/199/199
f 196/196/196 197/197/197 200/200/200
f 197/197/197 201/201/201 200/200/200
f 196/196/196 200/200/200 202/202/202
f 203/203/203 196/196/196 202/202/202
f 204/204/204 195/195/195 196/196/196
f 203/203/203 204/204/204 196/196/196
f 205/205/205 204/204/204 203/203/203
f 206/206/206 205/205/205 203/203/203
f 207/207/207 195/195/195 204/204/204
f 204/204/204 208/208/208 207/207/207
f 209/209/209 195/195/195 207/207/207
f 210/210/210 212/212/212 211/211/211
f 211/211/211 213/213/213 210/210/210
f 214/214/214 210/210/210 213/213/213
f 215/215/215 210/210/210 214/214/214
f 215/215/215 214/214/214 216/216/216
f 216/216/216 214/214/214 217/217/217
f 214/214/214 218/218/218 217/217/217
f 219/219/219 210/210/210 215/215/215
f 219/219/219 220/220/220 210/210/210
f 220/220/220 221/221/221 210/210/210
f 222/222/222 221/221/221 220/220/220
f 221/221/221 223/223/223 210/210/210
f 224/224/224 210/210/210 223/223/223
f 225/225/225 224/224/224 223/223/223
f 223/223/223 221/221/221 225/225/225
f 225/225/225 226/226/226 224/224/224
f 226/226/226 225/225/225 227/227/227
f 222/222/222 228/228/228 221/221/221
f 228/228/228 222/222/222 229/229/229
f 229/229/229 230/230/230 228/228/228
f 231/231/231 228/228/228 230/230/230
f 227/227/227 225/225/225 232/232/232
f 232/232/232 233/233/233 227/227/227
f 234/234/234 233/233/233 232/232/232
f 221/221/221 235/235/235 225/225/225
f 228/228/228 235/235/235 221/221/221
f 235/235/235 232/232/232 225/225/225
f 234/234/234 232/232/232 236/236/236
f 232/232/232 235/235/235 236/236/236
f 236/236/236 237/237/237 234/234/234
f 231/231/231 238/238/238 228/228/228
f 228/228/228 238/238/238 235/235/235
f 239/239/239 238/238/238 231/231/231
f 239/239/239 235/235/235 238/238/238
