mtllib P_PlatformClassic4.mtl
v 3.909776 -4.495032 -0.9698209
v 2.418062 -2.291041 -1.151548
v 2.204843 -4.012405 -1.904137
v 2.418062 -2.291041 -1.151548
v 1.368158 -1.522677 -1.032612
v 1.480185 -2.814578 -2.383446
v 1.368158 -1.522677 -1.032612
v 2.418062 -2.291041 -1.151548
v 1.630609 -0.6155244 -0.1562752
v 0.5892353 -0.3270956 -1.881672
v 0.8123093 0.4678113 -1.005599
v 0.5731277 0.3215661 -1.276945
v 1.630609 -0.6155244 -0.1562752
v 1.181761 -0.1751604 0.7421271
v 1.338762 0.7795692 -0.09999313
v 1.181761 -0.1751604 0.7421271
v 1.630609 -0.6155244 -0.1562752
v 1.969316 -0.9930369 0.6058887
v -0.4703197 -5.167532 -2.643509
v 2.442858 -5.015657 -2.793162
v 1.391005 -5.06189 -2.688726
v -3.516926 -5.118743 1.768112
v -3.346393 -5.360045 1.246105
v -3.567659 -5.115057 -0.3348776
v -0.7950172 0.9059473 1.317353
v -1.405476 0.9735205 0.761315
v -1.912331 1.899343 1.607448
v 2.641409 4.2987 -1.087493
v 2.885935 4.216042 -0.1436277
v 2.740156 4.244903 0.6403567
v -1.441551 3.669869 2.49457
v -2.118614 3.201432 2.101055
v -2.207321 4.080684 2.780443
v 1.475786 2.170078 0.7985407
v 0.5813694 2.040365 1.492858
v 1.649054 2.891062 1.796768
v 1.602388 -3.492365 -2.386808
v 1.551905 -4.426923 -2.684383
v 2.204843 -4.012405 -1.904137
v 1.480185 -2.814578 -2.383446
v 2.418062 -2.291041 -1.151548
v 2.204843 -4.012405 -1.904137
v 3.569948 -4.828012 -1.765194
v 3.909776 -4.495032 -0.9698209
v 2.442858 -5.015657 -2.793162
v 1.551905 -4.426923 -2.684383
v 1.480185 -2.814578 -2.383446
v 1.368158 -1.522677 -1.032612
v 0.8004704 -1.257392 -2.132777
v 1.0173 -0.6090467 -0.7555739
v 1.630609 -0.6155244 -0.1562752
v 0.8854752 0.7765484 -0.4137803
v 0.8123093 0.4678113 -1.005599
v 0.5892353 -0.3270956 -1.881672
v 1.408094 1.311182 -0.8806047
v 1.052332 0.9536175 -1.337029
v 0.5731277 0.3215661 -1.276945
v 1.383295 2.133887 -1.683174
v 1.768953 3.211777 -1.736684
v 1.451593 3.407815 -2.248539
v 2.565424 3.564389 0.03078272
v 2.077971 4.24107 -2.183538
v 1.260126 4.019742 -2.797224
v 1.273512 4.304187 -2.834735
v 2.641409 4.2987 -1.087493
v 2.885935 4.216042 -0.1436277
v 2.740156 4.244903 0.6403567
v 2.544058 4.002187 1.611814
v 2.749109 4.319478 1.224563
v 2.356168 4.370517 0.5128034
v 2.641409 4.2987 -1.087493
v 2.12557 3.633695 1.758538
v 1.476606 2.041457 -0.1150743
v 1.475786 2.170078 0.7985407
v 1.649054 2.891062 1.796768
v 1.297914 1.500502 0.4659686
v 1.338762 0.7795692 -0.09999313
v 1.181761 -0.1751604 0.7421271
v 1.476606 2.041457 -0.1150743
v 0.8854752 0.7765484 -0.4137803
v 1.338762 0.7795692 -0.09999313
v 1.630609 -0.6155244 -0.1562752
v 1.408094 1.311182 -0.8806047
v 0.8854752 0.7765484 -0.4137803
v 1.476606 2.041457 -0.1150743
v 2.565424 3.564389 0.03078272
v -0.4503613 -1.526963 1.377859
v 0.3281002 0.04008776 1.286388
v 1.108839 -0.9559092 1.51101
v 1.539541 -2.528072 2.137279
v -0.5122414 -3.221039 2.270933
v 0.5922661 -4.05873 2.871122
v 4.100317 -5.197471 0.4856482
v 1.669084 -5.354933 2.029808
v 3.235689 -5.023392 1.554277
v 3.633173 -5.220675 -1.544589
v 4.132631 -5.150683 -0.4060432
v -1.004957 -5.498604 1.688926
v -1.098022 -5.188194 2.990409
v -2.499786 -5.410207 2.431705
v 3.189421 -5.265963 -2.195993
v -3.346393 -5.360045 1.246105
v -3.259989 -5.146288 2.387461
v -3.516926 -5.118743 1.768112
v -3.340717 -5.329275 -0.5803086
v -3.567659 -5.115057 -0.3348776
v -0.4703197 -5.167532 -2.643509
v 2.442858 -5.015657 -2.793162
v -1.321098 -5.184568 -2.452122
v -2.477489 -5.184946 -1.808223
v 4.075731 -4.68824 0.09249861
v 4.132631 -5.150683 -0.4060432
v 4.100317 -5.197471 0.4856482
v 4.040976 -4.902412 -1.029285
v 3.633173 -5.220675 -1.544589
v 3.189421 -5.265963 -2.195993
v 3.569948 -4.828012 -1.765194
v 2.442858 -5.015657 -2.793162
v 3.909776 -4.495032 -0.9698209
v 3.278757 -3.416774 0.3638973
v 2.418062 -2.291041 -1.151548
v 2.737333 -2.504905 0.1974754
v 1.630609 -0.6155244 -0.1562752
v 1.969316 -0.9930369 0.6058887
v -3.567659 -5.115057 -0.3348776
v -3.533545 -4.745071 2.187958
v -3.516926 -5.118743 1.768112
v -3.526506 -3.364802 0.6266099
v -3.007448 -4.368422 -1.248072
v -3.340717 -5.329275 -0.5803086
v -2.477489 -5.184946 -1.808223
v -2.052097 -1.832327 -1.704254
v -2.582756 -1.149012 -0.07474723
v -1.201212 -1.305276 -2.022827
v -0.7428856 -0.6047381 -1.69051
v -0.5515785 -0.5621478 -2.225873
v -1.053308 0.4525407 -1.529065
v -1.543777 -0.1976596 -0.5035762
v -1.967163 -0.0549053 0.2702674
v -1.564884 0.1535722 -0.321814
v -1.742319 0.6388747 0.3271886
v -1.615208 1.536237 -1.566316
v -2.37072 2.158096 0.1403657
v -1.923887 1.984573 -1.687048
v -2.703619 2.992617 0.05894214
v -2.141148 2.802037 -1.922022
v -2.853012 3.966368 -2.041829
v -2.197351 4.309731 -2.96681
v -2.732056 4.330201 -2.223506
v -3.137634 4.292944 -0.9553918
v -3.14209 4.010639 0.2804322
v -2.973557 4.315981 0.2132545
v -3.197176 4.289767 0.6443654
v -3.533545 -4.745071 2.187958
v -3.259989 -5.146288 2.387461
v -3.516926 -5.118743 1.768112
v -2.04278 -4.75995 3.010517
v -1.098022 -5.188194 2.990409
v -2.499786 -5.410207 2.431705
v -1.859694 -3.750487 3.042139
v -2.351278 -3.215714 2.621805
v -3.526506 -3.364802 0.6266099
v -1.536882 -1.248933 1.889367
v -2.582756 -1.149012 -0.07474723
v -1.83354 -0.8408487 1.004463
v -1.967163 -0.0549053 0.2702674
v -0.9714603 -0.07712772 1.292374
v -1.742319 0.6388747 0.3271886
v -1.405476 0.9735205 0.761315
v -0.7950172 0.9059473 1.317353
v -2.37072 2.158096 0.1403657
v -1.912331 1.899343 1.607448
v -1.894235 2.52323 1.826226
v -1.175501 2.750777 2.149803
v -0.7950172 0.9059473 1.317353
v -2.573618 3.449819 1.341223
v -2.703619 2.992617 0.05894214
v -3.14209 4.010639 0.2804322
v -3.197176 4.289767 0.6443654
v -2.837177 4.282769 2.151593
v -2.118614 3.201432 2.101055
v -1.441551 3.669869 2.49457
v -2.207321 4.080684 2.780443
v -1.995396 4.322298 2.755681
v -1.036003 -4.339499 2.979278
v -1.098022 -5.188194 2.990409
v -2.04278 -4.75995 3.010517
v -1.859694 -3.750487 3.042139
v -0.5122414 -3.221039 2.270933
v -1.536882 -1.248933 1.889367
v -0.4503613 -1.526963 1.377859
v -0.9714603 -0.07712772 1.292374
v 0.3281002 0.04008776 1.286388
v -0.7950172 0.9059473 1.317353
v 0.1713066 0.955155 1.281294
v -0.2063961 1.897724 1.476809
v -0.70117 1.479273 1.439389
v -1.175501 2.750777 2.149803
v -0.9076939 2.907276 2.160478
v -1.441551 3.669869 2.49457
v -0.9756241 3.760732 2.433465
v -1.08392 4.292309 2.798874
v -2.207321 4.080684 2.780443
v -1.995396 4.322298 2.755681
v -0.1692142 3.294996 2.541217
v 0.5813694 2.040365 1.492858
v 0.7870522 1.649805 0.9960954
v 1.475786 2.170078 0.7985407
v 1.297914 1.500502 0.4659686
v 1.181761 -0.1751604 0.7421271
v 1.108839 -0.9559092 1.51101
v 1.969316 -0.9930369 0.6058887
v 1.539541 -2.528072 2.137279
v 1.440908 3.373089 2.282987
v 1.649054 2.891062 1.796768
v 2.12557 3.633695 1.758538
v 1.175699 4.291428 3.022386
v 0.4952755 4.27629 3.111796
v 1.935259 4.28982 2.025981
v 2.44504 4.303383 1.791316
v 2.544058 4.002187 1.611814
v 2.749109 4.319478 1.224563
v 2.427092 -3.894327 1.258091
v 2.737333 -2.504905 0.1974754
v 3.278757 -3.416774 0.3638973
v 1.73308 -4.44993 2.328746
v 0.5922661 -4.05873 2.871122
v 3.309271 -4.785767 1.519867
v 3.880068 -4.674479 0.8272308
v 4.075731 -4.68824 0.09249861
v 4.100317 -5.197471 0.4856482
v 3.235689 -5.023392 1.554277
v 1.669084 -5.354933 2.029808
v -1.098022 -5.188194 2.990409
v -0.4480591 -4.38597 3.092618
v -0.5122414 -3.221039 2.270933
v -1.036003 -4.339499 2.979278
v -0.4480591 -4.38597 3.092618
v -1.098022 -5.188194 2.990409
v -0.5122414 -3.221039 2.270933
v -1.923887 1.984573 -1.687048
v -1.615208 1.536237 -1.566316
v -2.141148 2.802037 -1.922022
v -0.4842319 2.005598 -1.689909
v -0.3020267 1.308613 -1.576672
v -1.053308 0.4525407 -1.529065
v 0.4056931 3.231002 -2.225349
v 1.052332 0.9536175 -1.337029
v 0.5731277 0.3215661 -1.276945
v 0.1012878 0.7388549 -1.449946
v 1.383295 2.133887 -1.683174
v 1.451593 3.407815 -2.248539
v -0.1405487 0.741133 -1.737398
v 1.260126 4.019742 -2.797224
v -0.08775902 -0.367945 -2.221407
v 0.5892353 -0.3270956 -1.881672
v 0.8004704 -1.257392 -2.132777
v -0.5515785 -0.5621478 -2.225873
v 0.140152 -1.488187 -2.557937
v 1.480185 -2.814578 -2.383446
v -0.03827286 -2.849407 -2.697582
v -0.5005016 -3.653581 -2.703939
v 1.602388 -3.492365 -2.386808
v -1.201212 -1.305276 -2.022827
v -2.052097 -1.832327 -1.704254
v -2.477489 -5.184946 -1.808223
v -1.321098 -5.184568 -2.452122
v -0.4703197 -5.167532 -2.643509
v 1.391005 -5.06189 -2.688726
v 1.551905 -4.426923 -2.684383
v 2.442858 -5.015657 -2.793162
v 2.641409 4.2987 -1.087493
v 1.273512 4.304187 -2.834735
v 2.077971 4.24107 -2.183538
v 1.011777 4.302058 -2.030241
v 0.5403557 4.283152 -2.789968
v -0.617878 4.305416 -2.973002
v -0.544014 4.538701 -1.56219
v -1.099468 4.299009 -2.692712
v -1.615887 4.285984 -2.977337
v -2.197351 4.309731 -2.96681
v -2.732056 4.330201 -2.223506
v 1.240396 4.543579 0.2049433
v 2.356168 4.370517 0.5128034
v 2.749109 4.319478 1.224563
v 0.3481989 4.54114 -0.6786159
v -1.904152 4.54835 0.2523211
v -2.973557 4.315981 0.2132545
v -3.137634 4.292944 -0.9553918
v -3.197176 4.289767 0.6443654
v -2.457662 4.390796 1.379049
v -2.837177 4.282769 2.151593
v -1.731554 4.378843 2.121805
v -1.995396 4.322298 2.755681
v -1.08392 4.292309 2.798874
v 1.935259 4.28982 2.025981
v 2.44504 4.303383 1.791316
v 1.189639 4.345757 2.415341
v 1.175699 4.291428 3.022386
v 0.4952755 4.27629 3.111796
v -1.08392 4.292309 2.798874
v 0.4952755 4.27629 3.111796
v -0.1692142 3.294996 2.541217
v -0.9756241 3.760732 2.433465
v -0.9076939 2.907276 2.160478
v -0.70117 1.479273 1.439389
v 0.5403557 4.283152 -2.789968
v 1.273512 4.304187 -2.834735
v -0.617878 4.305416 -2.973002
v -1.024462 3.412859 -2.194661
v -1.099468 4.299009 -2.692712
v -1.274511 3.424848 -2.322266
v -1.615887 4.285984 -2.977337
v -2.197351 4.309731 -2.96681
v 0.1012878 0.7388549 -1.449946
v -0.3020267 1.308613 -1.576672
v -0.1405487 0.741133 -1.737398
v 0.5892353 -0.3270956 -1.881672
v 0.5731277 0.3215661 -1.276945
vn 0.8199503 0.4724118 -0.3232778
vn 0.7052727 0.5188387 -0.4831115
vn 0.5783775 0.4089652 -0.705852
vn 0.7052727 0.5188387 -0.4831115
vn 0.6279411 0.5426257 -0.5578955
vn 0.5096287 0.2427802 -0.825431
vn 0.6279411 0.5426257 -0.5578955
vn 0.7052727 0.5188387 -0.4831115
vn 0.8197352 0.4759957 -0.3185317
vn 0.6176472 0.3828872 -0.6869566
vn 0.9450258 -0.1994636 -0.259115
vn 0.5409092 0.3089584 -0.78228
vn 0.8197352 0.4759957 -0.3185317
vn 0.7665723 0.3513827 0.5374916
vn 0.9249512 0.02367396 -0.379348
vn 0.7665723 0.3513827 0.5374916
vn 0.8197352 0.4759957 -0.3185317
vn 0.822659 0.5046455 0.2618493
vn -0.08883942 -0.6640465 -0.7423947
vn 0.3181317 -0.1909789 -0.9286115
vn -0.06585059 0.6363406 -0.7685924
vn -0.8625702 -0.4852662 0.1431414
vn -0.4668676 -0.8835382 0.0373478
vn -0.9308531 -0.2755549 -0.2399626
vn -0.2210315 -0.21788 0.9506174
vn -0.7460756 -0.3161339 0.5860295
vn -0.6741353 -0.4289865 0.6012588
vn 0.8333376 0.4528176 -0.3170246
vn 0.9386776 0.3400805 -0.05682946
vn 0.9088579 0.4151778 0.04005931
vn 0.04017291 -0.4648151 0.8844959
vn -0.559864 -0.5186147 0.6462128
vn -0.422259 -0.1222945 0.8981878
vn 0.78988 -0.5278884 0.3121274
vn 0.3359608 -0.5479963 0.7660486
vn 0.604046 -0.5906957 0.5349832
vn 0.5136753 0.1722419 -0.8405179
vn 0.2159869 0.2280177 -0.9493985
vn 0.5783775 0.4089652 -0.705852
vn 0.5096287 0.2427802 -0.825431
vn 0.7052727 0.5188387 -0.4831115
vn 0.5783775 0.4089652 -0.705852
vn 0.7237633 0.3071106 -0.61794
vn 0.8199503 0.4724118 -0.3232778
vn 0.3181317 -0.1909789 -0.9286115
vn 0.2159869 0.2280177 -0.9493985
vn 0.5096287 0.2427802 -0.825431
vn 0.6279411 0.5426257 -0.5578955
vn 0.6733273 0.3640648 -0.6434962
vn 0.8331007 0.2905002 -0.470694
vn 0.8197352 0.4759957 -0.3185317
vn 0.9101754 -0.1909353 -0.3675927
vn 0.9450258 -0.1994636 -0.259115
vn 0.6176472 0.3828872 -0.6869566
vn 0.8814726 -0.471855 -0.01894861
vn 0.5836699 -0.4541811 -0.6730891
vn 0.5409092 0.3089584 -0.78228
vn 0.5807334 -0.3751262 -0.7225157
vn 0.8052969 -0.3784571 -0.4563628
vn 0.4337927 -0.4889648 -0.756794
vn 0.8711216 -0.4910594 0.002815152
vn 0.7378059 0.3776652 -0.5594743
vn 0.2578469 -0.3609962 -0.8962125
vn 0.2424367 0.5874861 -0.7720652
vn 0.8333376 0.4528176 -0.3170246
vn 0.9386776 0.3400805 -0.05682946
vn 0.9088579 0.4151778 0.04005931
vn 0.7979483 -0.3810416 0.4669966
vn 0.8733187 0.4637972 0.1490188
vn 0.2218045 0.9748462 -0.02185813
vn 0.8333376 0.4528176 -0.3170246
vn 0.7120976 -0.4316705 0.5536944
vn 0.8671017 -0.4415326 0.2306156
vn 0.78988 -0.5278884 0.3121274
vn 0.604046 -0.5906957 0.5349832
vn 0.9006481 -0.1729265 0.3986596
vn 0.9249512 0.02367396 -0.379348
vn 0.7665723 0.3513827 0.5374916
vn 0.8671017 -0.4415326 0.2306156
vn 0.9101754 -0.1909353 -0.3675927
vn 0.9249512 0.02367396 -0.379348
vn 0.8197352 0.4759957 -0.3185317
vn 0.8814726 -0.471855 -0.01894861
vn 0.9101754 -0.1909353 -0.3675927
vn 0.8671017 -0.4415326 0.2306156
vn 0.8711216 -0.4910594 0.002815152
vn 0.14892 0.303683 0.941063
vn 0.2232879 0.124616 0.9667541
vn 0.3113026 0.4186007 0.8531495
vn 0.4518736 0.3515731 0.8198821
vn 0.1257847 0.4607724 0.8785596
vn 0.2089114 0.1097697 0.9717544
vn 0.7726496 -0.5812166 0.2553426
vn 0.2280365 -0.8058997 0.5463744
vn 0.5187693 -0.480744 0.7069396
vn 0.582027 -0.7418041 -0.3331238
vn 0.8401156 -0.5358869 -0.08385084
vn 0.01032916 -0.9970191 0.07646168
vn 0.03191932 -0.618236 0.7853441
vn -0.1752619 -0.8768461 0.4476876
vn 0.5137163 -0.6431104 -0.5678949
vn -0.4668676 -0.8835382 0.0373478
vn -0.5702153 -0.5100765 0.6439537
vn -0.8625702 -0.4852662 0.1431414
vn -0.5654442 -0.7473526 -0.3489082
vn -0.9308531 -0.2755549 -0.2399626
vn -0.08883942 -0.6640465 -0.7423947
vn 0.3181317 -0.1909789 -0.9286115
vn -0.2942729 -0.6270382 -0.7212673
vn -0.5020615 -0.5582818 -0.6604965
vn 0.9402502 0.332406 0.07372832
vn 0.8401156 -0.5358869 -0.08385084
vn 0.7726496 -0.5812166 0.2553426
vn 0.9399968 -0.03801434 -0.3390588
vn 0.582027 -0.7418041 -0.3331238
vn 0.5137163 -0.6431104 -0.5678949
vn 0.7237633 0.3071106 -0.61794
vn 0.3181317 -0.1909789 -0.9286115
vn 0.8199503 0.4724118 -0.3232778
vn 0.7493566 0.5634453 0.3478421
vn 0.7052727 0.5188387 -0.4831115
vn 0.869089 0.4425315 0.2210208
vn 0.8197352 0.4759957 -0.3185317
vn 0.822659 0.5046455 0.2618493
vn -0.9308531 -0.2755549 -0.2399626
vn -0.8677582 0.03901996 0.4954524
vn -0.8625702 -0.4852662 0.1431414
vn -0.9477329 0.317085 0.03548812
vn -0.8109625 0.1005336 -0.5763965
vn -0.5654442 -0.7473526 -0.3489082
vn -0.5020615 -0.5582818 -0.6604965
vn -0.6636505 0.3488836 -0.661701
vn -0.8761353 0.4738822 -0.0884447
vn -0.5604401 0.3898193 -0.7307173
vn -0.8621244 0.2535128 -0.4387171
vn -0.4815243 0.3202357 -0.8158329
vn -0.6225222 -0.06514153 -0.7798864
vn -0.8086107 0.2846157 -0.5149201
vn -0.8998072 0.4214993 0.1126298
vn -0.9240108 0.04074257 -0.3801895
vn -0.9571481 -0.06297287 0.2826691
vn -0.5333936 -0.3964254 -0.7472203
vn -0.9101125 -0.4118017 0.04598443
vn -0.589873 -0.460914 -0.6630294
vn -0.9185005 -0.3951332 0.01505262
vn -0.5568071 -0.5059115 -0.6588015
vn -0.8841923 -0.2380433 -0.4019193
vn -0.3503424 0.3582433 -0.8654028
vn -0.6546711 0.6556383 -0.3762235
vn -0.8695279 0.4847563 -0.09451224
vn -0.993893 -0.1103446 0.0008265149
vn -0.5366179 0.8410709 -0.06812538
vn -0.8949284 0.4411348 0.06710684
vn -0.8677582 0.03901996 0.4954524
vn -0.5702153 -0.5100765 0.6439537
vn -0.8625702 -0.4852662 0.1431414
vn -0.251514 -0.2033902 0.9462416
vn 0.03191932 -0.618236 0.7853441
vn -0.1752619 -0.8768461 0.4476876
vn -0.09701237 0.2339638 0.9673932
vn -0.570709 0.4077996 0.7127348
vn -0.9477329 0.317085 0.03548812
vn -0.2249338 0.5180157 0.8252664
vn -0.8761353 0.4738822 -0.0884447
vn -0.7453414 0.4364 0.5040053
vn -0.8998072 0.4214993 0.1126298
vn -0.3156523 0.2080831 0.9257782
vn -0.9571481 -0.06297287 0.2826691
vn -0.7460756 -0.3161339 0.5860295
vn -0.2210315 -0.21788 0.9506174
vn -0.9101125 -0.4118017 0.04598443
vn -0.6741353 -0.4289865 0.6012588
vn -0.6230677 -0.3728129 0.6876025
vn -0.01151734 -0.3943807 0.918875
vn -0.2210315 -0.21788 0.9506174
vn -0.8466048 -0.4575289 0.2718961
vn -0.9185005 -0.3951332 0.01505262
vn -0.993893 -0.1103446 0.0008265149
vn -0.8949284 0.4411348 0.06710684
vn -0.8087738 0.401905 0.4293685
vn -0.559864 -0.5186147 0.6462128
vn 0.04017291 -0.4648151 0.8844959
vn -0.422259 -0.1222945 0.8981878
vn -0.1503891 0.7290018 0.667787
vn 0.02003849 0.2184609 0.9756399
vn 0.03191932 -0.618236 0.7853441
vn -0.251514 -0.2033902 0.9462416
vn -0.09701237 0.2339638 0.9673932
vn 0.1257847 0.4607724 0.8785596
vn -0.2249338 0.5180157 0.8252664
vn 0.14892 0.303683 0.941063
vn -0.3156523 0.2080831 0.9257782
vn 0.2232879 0.124616 0.9667541
vn -0.2210315 -0.21788 0.9506174
vn 0.2167019 -0.07025953 0.9737062
vn 0.1919416 -0.4329246 0.880758
vn 0.3127373 -0.3083333 0.8984019
vn -0.01151734 -0.3943807 0.918875
vn -0.02862334 -0.3885792 0.9209707
vn 0.04017291 -0.4648151 0.8844959
vn -0.1055309 -0.4720281 0.8752444
vn -0.05465915 0.4928907 0.8683727
vn -0.422259 -0.1222945 0.8981878
vn -0.1503891 0.7290018 0.667787
vn -0.06413879 -0.5035193 0.8616
vn 0.3359608 -0.5479963 0.7660486
vn 0.6384307 -0.2978245 0.7097231
vn 0.78988 -0.5278884 0.3121274
vn 0.9006481 -0.1729265 0.3986596
vn 0.7665723 0.3513827 0.5374916
vn 0.3113026 0.4186007 0.8531495
vn 0.822659 0.5046455 0.2618493
vn 0.4518736 0.3515731 0.8198821
vn 0.4563006 -0.4614586 0.7608191
vn 0.604046 -0.5906957 0.5349832
vn 0.7120976 -0.4316705 0.5536944
vn 0.3820328 0.3919217 0.836928
vn 0.01463642 0.4108504 0.9115853
vn 0.4944693 0.630026 0.5988051
vn 0.5132421 0.5684749 0.6429765
vn 0.7979483 -0.3810416 0.4669966
vn 0.8733187 0.4637972 0.1490188
vn 0.6220871 0.4395782 0.6479033
vn 0.869089 0.4425315 0.2210208
vn 0.7493566 0.5634453 0.3478421
vn 0.4920417 -0.02833227 0.8701105
vn 0.2089114 0.1097697 0.9717544
vn 0.6269575 0.2189676 0.7476479
vn 0.8233163 0.2698957 0.4993061
vn 0.9402502 0.332406 0.07372832
vn 0.7726496 -0.5812166 0.2553426
vn 0.5187693 -0.480744 0.7069396
vn 0.2280365 -0.8058997 0.5463744
vn 0.03191932 -0.618236 0.7853441
vn 0.07630635 0.1185061 0.990017
vn 0.1257847 0.4607724 0.8785596
vn 0.02003849 0.2184609 0.9756399
vn 0.07630635 0.1185061 0.990017
vn 0.03191932 -0.618236 0.7853441
vn 0.1257847 0.4607724 0.8785596
vn -0.589873 -0.460914 -0.6630294
vn -0.5333936 -0.3964254 -0.7472203
vn -0.5568071 -0.5059115 -0.6588015
vn -0.1124724 -0.2615023 -0.9586274
vn 0.02115966 -0.09643601 -0.9951143
vn -0.6225222 -0.06514153 -0.7798864
vn 0.0005067658 -0.455398 -0.8902878
vn 0.5836699 -0.4541811 -0.6730891
vn 0.5409092 0.3089584 -0.78228
vn 0.5778517 0.309873 -0.7550272
vn 0.5807334 -0.3751262 -0.7225157
vn 0.4337927 -0.4889648 -0.756794
vn 0.237693 0.4161015 -0.8777025
vn 0.2578469 -0.3609962 -0.8962125
vn 0.1008757 0.380614 -0.9192155
vn 0.6176472 0.3828872 -0.6869566
vn 0.6733273 0.3640648 -0.6434962
vn -0.4815243 0.3202357 -0.8158329
vn 0.09150872 0.2256164 -0.969909
vn 0.5096287 0.2427802 -0.825431
vn -0.0277875 0.1039525 -0.994194
vn -0.2336587 0.04817247 -0.9711246
vn 0.5136753 0.1722419 -0.8405179
vn -0.5604401 0.3898193 -0.7307173
vn -0.6636505 0.3488836 -0.661701
vn -0.5020615 -0.5582818 -0.6604965
vn -0.2942729 -0.6270382 -0.7212673
vn -0.08883942 -0.6640465 -0.7423947
vn -0.06585059 0.6363406 -0.7685924
vn 0.2159869 0.2280177 -0.9493985
vn 0.3181317 -0.1909789 -0.9286115
vn 0.8333376 0.4528176 -0.3170246
vn 0.2424367 0.5874861 -0.7720652
vn 0.7378059 0.3776652 -0.5594743
vn 0.04643669 0.9965667 -0.06854497
vn -0.009692282 0.5391961 -0.8421245
vn -0.1478875 0.3581466 -0.9218787
vn 0.01973491 0.9948522 -0.09939584
vn 0.0378213 0.5402067 -0.840682
vn 0.1671295 0.3135315 -0.9347544
vn -0.3503424 0.3582433 -0.8654028
vn -0.6546711 0.6556383 -0.3762235
vn 0.07123677 0.9974452 0.005321624
vn 0.2218045 0.9748462 -0.02185813
vn 0.8733187 0.4637972 0.1490188
vn 0.05813834 0.9964151 -0.06145686
vn -0.09386957 0.9953716 0.02058889
vn -0.5366179 0.8410709 -0.06812538
vn -0.8695279 0.4847563 -0.09451224
vn -0.8949284 0.4411348 0.06710684
vn -0.1329057 0.9884421 0.07292616
vn -0.8087738 0.401905 0.4293685
vn -0.02636368 0.9954227 0.09186269
vn -0.1503891 0.7290018 0.667787
vn -0.05465915 0.4928907 0.8683727
vn 0.4944693 0.630026 0.5988051
vn 0.5132421 0.5684749 0.6429765
vn 0.05681477 0.9942936 0.09029033
vn 0.3820328 0.3919217 0.836928
vn 0.01463642 0.4108504 0.9115853
vn -0.05465915 0.4928907 0.8683727
vn 0.01463642 0.4108504 0.9115853
vn -0.06413879 -0.5035193 0.8616
vn -0.1055309 -0.4720281 0.8752444
vn -0.02862334 -0.3885792 0.9209707
vn 0.3127373 -0.3083333 0.8984019
vn -0.009692282 0.5391961 -0.8421245
vn 0.2424367 0.5874861 -0.7720652
vn -0.1478875 0.3581466 -0.9218787
vn 0.1743535 -0.391406 -0.9035498
vn 0.0378213 0.5402067 -0.840682
vn 0.1951296 -0.4526524 -0.8700749
vn 0.1671295 0.3135315 -0.9347544
vn -0.3503424 0.3582433 -0.8654028
vn 0.5778517 0.309873 -0.7550272
vn 0.02115966 -0.09643601 -0.9951143
vn 0.237693 0.4161015 -0.8777025
vn 0.6176472 0.3828872 -0.6869566
vn 0.5409092 0.3089584 -0.78228
vt 0.777132 0.9571171
vt 0.777132 0.8885803
vt 0.7480621 0.9220333
vt 0.1223068 0.7464374
vt 0.1497002 0.7464375
vt 0.1422768 0.7118647
vt 0.04511833 0.9285698
vt 0.06100273 0.9580336
vt 0.06100273 0.9106817
vt 0.3143578 0.4352636
vt 0.3143578 0.4143963
vt 0.3094501 0.4195557
vt 0.8342648 0.2301512
vt 0.86026 0.2345419
vt 0.86026 0.2044744
vt 0.09994698 0.9406796
vt 0.1201439 0.9570942
vt 0.1201439 0.9357166
vt 0.3107479 0.5102997
vt 0.3107479 0.4352646
vt 0.3094496 0.4624252
vt 0.1671019 0.2996769
vt 0.1608429 0.3067417
vt 0.1671019 0.3407879
vt 0.09994698 0.9316578
vt 0.1208267 0.9357166
vt 0.1208267 0.9106817
vt 0.3143578 0.2615092
vt 0.3094482 0.2860931
vt 0.3143578 0.3060299
vt 0.3583336 0.6769352
vt 0.3430443 0.6899166
vt 0.3583336 0.6979065
vt 0.07662392 0.9216309
vt 0.0999465 0.9391594
vt 0.0999465 0.9106808
vt 0.7848811 0.9333234
vt 0.7877522 0.9578171
vt 0.8045044 0.9364319
vt 0.7771335 0.918653
vt 0.8045044 0.8885813
vt 0.8346386 0.9371471
vt 0.85606 0.9088802
vt 0.8467331 0.8885803
vt 0.85606 0.9481544
vt 0.8382702 0.9631329
vt 0.45539 0.7657275
vt 0.4210386 0.7935746
vt 0.451952 0.8014534
vt 0.4154663 0.8143177
vt 0.3959446 0.8147373
vt 0.4057198 0.8476446
vt 0.4212923 0.8414376
vt 0.4458637 0.8232639
vt 0.4119682 0.8647215
vt 0.426589 0.8557105
vt 0.430088 0.8376412
vt 0.4302807 0.8879118
vt 0.4265785 0.9168253
vt 0.4412584 0.9221067
vt 0.3764544 0.9233406
vt 0.4331722 0.9454494
vt 0.4550886 0.9385026
vt 0.45539 0.9458489
vt 0.4018183 0.9457099
vt 0.3769817 0.9416242
vt 0.3589745 0.9392781
vt 0.3372803 0.9292855
vt 0.3445196 0.9393439
vt 0.3625965 0.9447832
vt 0.4018183 0.9457099
vt 0.3377104 0.917834
vt 0.3914461 0.8809898
vt 0.3689384 0.8813355
vt 0.341917 0.8970563
vt 0.3796673 0.8647835
vt 0.3944283 0.8485608
vt 0.3768425 0.8211799
vt 0.620594 0.7979095
vt 0.6035748 0.829405
vt 0.6151676 0.8301284
vt 0.620594 0.8663837
vt 0.3430443 0.6598902
vt 0.3580112 0.6769352
vt 0.3580112 0.6438379
vt 0.3472767 0.6018467
vt 0.1591396 0.5437407
vt 0.1343002 0.5099998
vt 0.1265316 0.5402379
vt 0.1223068 0.584898
vt 0.1591396 0.5901108
vt 0.137989 0.6209331
vt 0.8456182 0.008026123
vt 0.8636808 0.07995605
vt 0.8646345 0.03778458
vt 0.7922549 0.002979279
vt 0.8240829 0
vt 0.8337302 0.1425285
vt 0.8646345 0.1553078
vt 0.8397131 0.185051
vt 0.7727656 0.008544922
vt 0.8038716 0.1961136
vt 0.8323603 0.2032242
vt 0.8151388 0.2044754
vt 0.7592983 0.18116
vt 0.7633643 0.1886635
vt 0.7321186 0.0942955
vt 0.7520247 0.02190018
vt 0.7299008 0.1166306
vt 0.7362499 0.1500969
vt 0.5391307 0.9625087
vt 0.5270309 0.9728823
vt 0.5485959 0.976109
vt 0.5112162 0.9656796
vt 0.4951673 0.9744101
vt 0.4756956 0.976109
vt 0.4895449 0.964293
vt 0.4553905 0.9717808
vt 0.5119352 0.9560866
vt 0.5404415 0.9344482
vt 0.4973617 0.9065366
vt 0.5327697 0.9134212
vt 0.5167732 0.8697681
vt 0.5378361 0.8794508
vt 0.7706575 0.2591417
vt 0.8306866 0.2632228
vt 0.8191137 0.2548841
vt 0.8002577 0.3010348
vt 0.7470093 0.283021
vt 0.7617283 0.2556529
vt 0.7250824 0.2669512
vt 0.7378254 0.3529298
vt 0.7840862 0.3634
vt 0.7241507 0.3717787
vt 0.7303352 0.3912624
vt 0.7161293 0.3945899
vt 0.7418175 0.4154829
vt 0.7678003 0.3941835
vt 0.7907 0.3936086
vt 0.7737751 0.402441
vt 0.7927876 0.4121319
vt 0.7513132 0.4393021
vt 0.8013639 0.4467489
vt 0.7535543 0.4489306
vt 0.8064451 0.4657916
vt 0.7538233 0.4685553
vt 0.7632542 0.4936787
vt 0.7366171 0.5080787
vt 0.7593918 0.5038598
vt 0.792841 0.4978467
vt 0.8204412 0.4881496
vt 0.818512 0.4969081
vt 0.8306866 0.4940202
vt 0.8919353 0.01867437
vt 0.8997459 0.007787704
vt 0.8835545 0.009562016
vt 0.9332104 0.01542711
vt 0.9483032 0.003264427
vt 0.9131832 0
vt 0.9387093 0.04108
vt 0.9231701 0.05593586
vt 0.8646355 0.05598259
vt 0.9265785 0.1062927
vt 0.8712883 0.1125336
vt 0.9052944 0.1182075
vt 0.8903446 0.1394391
vt 0.926918 0.1363873
vt 0.8964939 0.1569023
vt 0.9111481 0.1645503
vt 0.9321289 0.1613789
vt 0.8847733 0.1969295
vt 0.9202099 0.1879473
vt 0.9257813 0.2036824
vt 0.9446945 0.2082314
vt 0.9321289 0.1613789
vt 0.9064617 0.2289138
vt 0.878952 0.2188759
vt 0.8774185 0.2453036
vt 0.8839073 0.2521038
vt 0.9188576 0.2496619
vt 0.9283524 0.2210503
vt 0.9483032 0.2317538
vt 0.941328 0.2429247
vt 0.9449139 0.2488918
vt 0.1482182 0.223021
vt 0.1495533 0.2448621
vt 0.1683578 0.2337899
vt 0.16539 0.2078257
vt 0.1261921 0.1941385
vt 0.1399288 0.1432557
vt 0.1101227 0.1503816
vt 0.1189632 0.1130223
vt 0.09351158 0.1100793
vt 0.1160107 0.08773613
vt 0.0965538 0.08651876
vt 0.107275 0.0622735
vt 0.1162701 0.07300806
vt 0.1375408 0.04038382
vt 0.1325073 0.03637362
vt 0.1485863 0.01677608
vt 0.1384754 0.01445341
vt 0.1467609 0.0008320808
vt 0.1683578 0.006210804
vt 0.1638241 0
vt 0.1245136 0.02650547
vt 0.09218216 0.05865049
vt 0.07980347 0.06862497
vt 0.06308746 0.05523872
vt 0.06092644 0.07240152
vt 0.06770515 0.1155705
vt 0.08197403 0.135798
vt 0.0499897 0.1366405
vt 0.08396339 0.1763978
vt 0.08876801 0.02454185
vt 0.07651138 0.03687239
vt 0.0666256 0.01777983
vt 0.1064186 0.001024723
vt 0.1211967 0.001390934
vt 0.07487679 0.0009307861
vt 0.06099129 0.0005688667
vt 0.05602455 0.008294106
vt 0.04554749 7.009506E-05
vt 0.05179024 0.2114534
vt 0.02803802 0.1755219
vt 0.02019882 0.1990514
vt 0.08325958 0.2259054
vt 0.1146507 0.2158689
vt 0.03890419 0.2344937
vt 0.01614952 0.2315378
vt 0 0.2317715
vt 0.006080627 0.2449493
vt 0.04089928 0.2406116
vt 0.0794239 0.2491398
vt 0.1495533 0.2448621
vt 0.1386452 0.2242713
vt 0.1261921 0.1941385
vt 0.1656475 0.7841942
vt 0.1534805 0.786329
vt 0.168087 0.8059099
vt 0.168087 0.7552702
vt 0.716095 0.1844835
vt 0.7081451 0.1729145
vt 0.7216988 0.2056031
vt 0.6790466 0.1851072
vt 0.6743317 0.1671352
vt 0.6936264 0.1450434
vt 0.6561279 0.2169085
vt 0.6394958 0.1579795
vt 0.6517982 0.1416631
vt 0.6639404 0.1524448
vt 0.6309891 0.1885114
vt 0.6292152 0.2215266
vt 0.6701164 0.152606
vt 0.6340904 0.2374849
vt 0.6686172 0.1242633
vt 0.6512489 0.1252155
vt 0.6457176 0.1013885
vt 0.680542 0.1192412
vt 0.6626282 0.09558344
vt 0.6280899 0.06145525
vt 0.6671181 0.0605998
vt 0.6789665 0.03988171
vt 0.6249046 0.04402113
vt 0.6972504 0.09999847
vt 0.7191696 0.08625889
vt 0.7299004 0
vt 0.7000351 0.0003352165
vt 0.6781082 0.000898838
vt 0.6302032 0.003740788
vt 0.6261024 0.0200882
vt 0.6031189 0.005032063
vt 0.00497818 0.8006487
vt 0.04183197 0.7570214
vt 0.020504 0.7729783
vt 0.04779214 0.7779595
vt 0.06063843 0.7588644
vt 0.09060669 0.75527
vt 0.08740616 0.7915659
vt 0.102726 0.7629352
vt 0.1162758 0.7561035
vt 0.1312256 0.7569375
vt 0.144268 0.7765703
vt 0.03982544 0.8353112
vt 0.01079793 0.8421018
vt 0 0.860013
vt 0.0636156 0.8134388
vt 0.1206551 0.8395307
vt 0.1481476 0.839462
vt 0.1534805 0.809556
vt 0.1534805 0.8507528
vt 0.1337784 0.868978
vt 0.1427765 0.8891685
vt 0.1143922 0.8873826
vt 0.1205597 0.9039154
vt 0.09706879 0.904146
vt 0.02015686 0.8813887
vt 0.007274628 0.8748724
vt 0.0389725 0.8921334
vt 0.03873825 0.9077384
vt 0.05615234 0.9106815
vt 0.1408501 0.4499884
vt 0.1679583 0.4691143
vt 0.1647902 0.4355459
vt 0.144804 0.4358807
vt 0.1545029 0.4157257
vt 0.1679583 0.3799362
vt 0.6526337 0.2442198
vt 0.6337585 0.2448206
vt 0.682415 0.2448015
vt 0.6929512 0.2214952
vt 0.6948509 0.2444963
vt 0.6993675 0.2218409
vt 0.7080956 0.244247
vt 0.7230644 0.2448206
vt 0.1567917 0.7352452
vt 0.1618614 0.7484779
vt 0.1657362 0.7353978
vt 0.1657362 0.7118645
vt 0.1497011 0.7259526
usemtl MV_RockClassic_Platforms
f 1/1/1 3/3/3 2/2/2
f 4/4/4 6/6/6 5/5/5
f 7/7/7 9/9/9 8/8/8
f 10/10/10 12/12/12 11/11/11
f 13/13/13 15/15/15 14/14/14
f 16/16/16 18/18/18 17/17/17
f 19/19/19 21/21/21 20/20/20
f 22/22/22 24/24/24 23/23/23
f 25/25/25 27/27/27 26/26/26
f 28/28/28 30/30/30 29/29/29
f 31/31/31 33/33/33 32/32/32
f 34/34/34 36/36/36 35/35/35
f 37/37/37 39/39/39 38/38/38
f 39/39/39 37/37/37 40/40/40
f 40/40/40 41/41/41 39/39/39
f 42/42/42 44/44/44 43/43/43
f 43/43/43 45/45/45 42/42/42
f 45/45/45 46/46/46 42/42/42
f 47/47/47 49/49/49 48/48/48
f 48/48/48 49/49/49 50/50/50
f 51/51/51 48/48/48 50/50/50
f 51/51/51 50/50/50 52/52/52
f 50/50/50 49/49/49 53/53/53
f 50/50/50 53/53/53 52/52/52
f 49/49/49 54/54/54 53/53/53
f 55/55/55 52/52/52 53/53/53
f 56/56/56 55/55/55 53/53/53
f 57/57/57 56/56/56 53/53/53
f 55/55/55 56/56/56 58/58/58
f 58/58/58 59/59/59 55/55/55
f 60/60/60 59/59/59 58/58/58
f 59/59/59 61/61/61 55/55/55
f 60/60/60 62/62/62 59/59/59
f 63/63/63 62/62/62 60/60/60
f 64/64/64 62/62/62 63/63/63
f 65/65/65 59/59/59 62/62/62
f 59/59/59 65/65/65 66/66/66
f 61/61/61 59/59/59 66/66/66
f 67/67/67 61/61/61 66/66/66
f 67/67/67 68/68/68 61/61/61
f 68/68/68 67/67/67 69/69/69
f 67/67/67 70/70/70 69/69/69
f 70/70/70 67/67/67 71/71/71
f 61/61/61 68/68/68 72/72/72
f 61/61/61 72/72/72 73/73/73
f 74/74/74 73/73/73 72/72/72
f 72/72/72 75/75/75 74/74/74
f 76/76/76 73/73/73 74/74/74
f 73/73/73 76/76/76 77/77/77
f 77/77/77 76/76/76 78/78/78
f 79/79/79 81/81/81 80/80/80
f 82/82/82 80/80/80 81/81/81
f 83/83/83 85/85/85 84/84/84
f 86/86/86 85/85/85 83/83/83
f 87/87/87 89/89/89 88/88/88
f 90/90/90 89/89/89 87/87/87
f 87/87/87 91/91/91 90/90/90
f 92/92/92 90/90/90 91/91/91
f 93/93/93 95/95/95 94/94/94
f 96/96/96 93/93/93 94/94/94
f 97/97/97 93/93/93 96/96/96
f 96/96/96 94/94/94 98/98/98
f 99/99/99 98/98/98 94/94/94
f 99/99/99 100/100/100 98/98/98
f 96/96/96 98/98/98 101/101/101
f 98/98/98 100/100/100 102/102/102
f 103/103/103 102/102/102 100/100/100
f 103/103/103 104/104/104 102/102/102
f 105/105/105 98/98/98 102/102/102
f 105/105/105 101/101/101 98/98/98
f 102/102/102 106/106/106 105/105/105
f 105/105/105 107/107/107 101/101/101
f 101/101/101 107/107/107 108/108/108
f 107/107/107 105/105/105 109/109/109
f 110/110/110 109/109/109 105/105/105
f 111/111/111 113/113/113 112/112/112
f 112/112/112 114/114/114 111/111/111
f 115/115/115 114/114/114 112/112/112
f 115/115/115 116/116/116 114/114/114
f 116/116/116 117/117/117 114/114/114
f 117/117/117 116/116/116 118/118/118
f 119/119/119 114/114/114 117/117/117
f 114/114/114 119/119/119 111/111/111
f 120/120/120 111/111/111 119/119/119
f 119/119/119 121/121/121 120/120/120
f 122/122/122 120/120/120 121/121/121
f 122/122/122 121/121/121 123/123/123
f 124/124/124 122/122/122 123/123/123
f 125/125/125 127/127/127 126/126/126
f 126/126/126 128/128/128 125/125/125
f 128/128/128 129/129/129 125/125/125
f 130/130/130 125/125/125 129/129/129
f 131/131/131 130/130/130 129/129/129
f 131/131/131 129/129/129 132/132/132
f 132/132/132 129/129/129 128/128/128
f 133/133/133 132/132/132 128/128/128
f 134/134/134 132/132/132 133/133/133
f 134/134/134 133/133/133 135/135/135
f 136/136/136 134/134/134 135/135/135
f 136/136/136 135/135/135 137/137/137
f 133/133/133 138/138/138 135/135/135
f 138/138/138 137/137/137 135/135/135
f 138/138/138 133/133/133 139/139/139
f 138/138/138 140/140/140 137/137/137
f 139/139/139 140/140/140 138/138/138
f 139/139/139 141/141/141 140/140/140
f 142/142/142 137/137/137 140/140/140
f 142/142/142 140/140/140 141/141/141
f 141/141/141 143/143/143 142/142/142
f 143/143/143 144/144/144 142/142/142
f 144/144/144 143/143/143 145/145/145
f 146/146/146 144/144/144 145/145/145
f 145/145/145 147/147/147 146/146/146
f 148/148/148 146/146/146 147/147/147
f 147/147/147 149/149/149 148/148/148
f 150/150/150 149/149/149 147/147/147
f 145/145/145 151/151/151 147/147/147
f 150/150/150 147/147/147 151/151/151
f 152/152/152 150/150/150 151/151/151
f 153/153/153 152/152/152 151/151/151
f 154/154/154 156/156/156 155/155/155
f 157/157/157 154/154/154 155/155/155
f 157/157/157 155/155/155 158/158/158
f 158/158/158 155/155/155 159/159/159
f 160/160/160 154/154/154 157/157/157
f 161/161/161 154/154/154 160/160/160
f 154/154/154 161/161/161 162/162/162
f 160/160/160 163/163/163 161/161/161
f 163/163/163 162/162/162 161/161/161
f 163/163/163 164/164/164 162/162/162
f 163/163/163 165/165/165 164/164/164
f 166/166/166 164/164/164 165/165/165
f 165/165/165 163/163/163 167/167/167
f 165/165/165 167/167/167 166/166/166
f 167/167/167 168/168/168 166/166/166
f 169/169/169 168/168/168 167/167/167
f 170/170/170 169/169/169 167/167/167
f 168/168/168 169/169/169 171/171/171
f 169/169/169 172/172/172 171/171/171
f 172/172/172 173/173/173 171/171/171
f 173/173/173 172/172/172 174/174/174
f 175/175/175 174/174/174 172/172/172
f 171/171/171 173/173/173 176/176/176
f 176/176/176 177/177/177 171/171/171
f 176/176/176 178/178/178 177/177/177
f 178/178/178 176/176/176 179/179/179
f 180/180/180 179/179/179 176/176/176
f 174/174/174 181/181/181 173/173/173
f 181/181/181 176/176/176 173/173/173
f 176/176/176 181/181/181 180/180/180
f 182/182/182 181/181/181 174/174/174
f 180/180/180 181/181/181 183/183/183
f 183/183/183 184/184/184 180/180/180
f 185/185/185 187/187/187 186/186/186
f 187/187/187 185/185/185 188/188/188
f 188/188/188 185/185/185 189/189/189
f 189/189/189 190/190/190 188/188/188
f 191/191/191 190/190/190 189/189/189
f 190/190/190 191/191/191 192/192/192
f 192/192/192 191/191/191 193/193/193
f 192/192/192 193/193/193 194/194/194
f 194/194/194 193/193/193 195/195/195
f 194/194/194 195/195/195 196/196/196
f 194/194/194 196/196/196 197/197/197
f 197/197/197 198/198/198 194/194/194
f 197/197/197 199/199/199 198/198/198
f 199/199/199 200/200/200 198/198/198
f 201/201/201 200/200/200 199/199/199
f 202/202/202 200/200/200 201/201/201
f 200/200/200 202/202/202 203/203/203
f 202/202/202 204/204/204 203/203/203
f 197/197/197 196/196/196 205/205/205
f 196/196/196 195/195/195 206/206/206
f 205/205/205 196/196/196 206/206/206
f 193/193/193 207/207/207 195/195/195
f 207/207/207 206/206/206 195/195/195
f 207/207/207 208/208/208 206/206/206
f 208/208/208 207/207/207 209/209/209
f 207/207/207 210/210/210 209/209/209
f 210/210/210 207/207/207 193/193/193
f 193/193/193 211/211/211 210/210/210
f 211/211/211 212/212/212 210/210/210
f 211/211/211 213/213/213 212/212/212
f 205/205/205 206/206/206 214/214/214
f 214/214/214 206/206/206 215/215/215
f 214/214/214 215/215/215 216/216/216
f 217/217/217 205/205/205 214/214/214
f 217/217/217 218/218/218 205/205/205
f 217/217/217 214/214/214 219/219/219
f 214/214/214 216/216/216 219/219/219
f 219/219/219 216/216/216 220/220/220
f 221/221/221 220/220/220 216/216/216
f 221/221/221 222/222/222 220/220/220
f 223/223/223 212/212/212 213/213/213
f 223/223/223 224/224/224 212/212/212
f 225/225/225 224/224/224 223/223/223
f 213/213/213 226/226/226 223/223/223
f 213/213/213 227/227/227 226/226/226
f 228/228/228 225/225/225 223/223/223
f 223/223/223 226/226/226 228/228/228
f 229/229/229 225/225/225 228/228/228
f 230/230/230 225/225/225 229/229/229
f 231/231/231 230/230/230 229/229/229
f 232/232/232 231/231/231 229/229/229
f 232/232/232 229/229/229 228/228/228
f 232/232/232 228/228/228 226/226/226
f 233/233/233 232/232/232 226/226/226
f 233/233/233 226/226/226 227/227/227
f 227/227/227 234/234/234 233/233/233
f 234/234/234 227/227/227 235/235/235
f 235/235/235 227/227/227 236/236/236
f 237/237/237 239/239/239 238/238/238
f 240/240/240 237/237/237 238/238/238
f 241/241/241 243/243/243 242/242/242
f 244/244/244 242/242/242 243/243/243
f 245/245/245 242/242/242 244/244/244
f 246/246/246 242/242/242 245/245/245
f 245/245/245 244/244/244 247/247/247
f 245/245/245 247/247/247 248/248/248
f 245/245/245 248/248/248 249/249/249
f 250/250/250 245/245/245 249/249/249
f 247/247/247 251/251/251 248/248/248
f 251/251/251 247/247/247 252/252/252
f 253/253/253 246/246/246 245/245/245
f 252/252/252 247/247/247 254/254/254
f 255/255/255 246/246/246 253/253/253
f 253/253/253 256/256/256 255/255/255
f 255/255/255 256/256/256 257/257/257
f 258/258/258 246/246/246 255/255/255
f 259/259/259 255/255/255 257/257/257
f 259/259/259 258/258/258 255/255/255
f 257/257/257 260/260/260 259/259/259
f 260/260/260 261/261/261 259/259/259
f 261/261/261 258/258/258 259/259/259
f 261/261/261 262/262/262 258/258/258
f 263/263/263 261/261/261 260/260/260
f 264/264/264 258/258/258 262/262/262
f 265/265/265 264/264/264 262/262/262
f 262/262/262 266/266/266 265/265/265
f 262/262/262 267/267/267 266/266/266
f 262/262/262 268/268/268 267/267/267
f 269/269/269 268/268/268 262/262/262
f 261/261/261 269/269/269 262/262/262
f 261/261/261 263/263/263 270/270/270
f 269/269/269 261/261/261 270/270/270
f 269/269/269 270/270/270 271/271/271
f 272/272/272 274/274/274 273/273/273
f 273/273/273 275/275/275 272/272/272
f 276/276/276 275/275/275 273/273/273
f 277/277/277 275/275/275 276/276/276
f 278/278/278 275/275/275 277/277/277
f 277/277/277 279/279/279 278/278/278
f 278/278/278 279/279/279 280/280/280
f 278/278/278 280/280/280 281/281/281
f 278/278/278 281/281/281 282/282/282
f 275/275/275 283/283/283 272/272/272
f 272/272/272 283/283/283 284/284/284
f 284/284/284 283/283/283 285/285/285
f 283/283/283 275/275/275 286/286/286
f 286/286/286 275/275/275 278/278/278
f 283/283/283 286/286/286 278/278/278
f 282/282/282 287/287/287 278/278/278
f 283/283/283 278/278/278 287/287/287
f 287/287/287 282/282/282 288/288/288
f 282/282/282 289/289/289 288/288/288
f 287/287/287 288/288/288 290/290/290
f 290/290/290 291/291/291 287/287/287
f 292/292/292 291/291/291 290/290/290
f 291/291/291 293/293/293 287/287/287
f 292/292/292 293/293/293 291/291/291
f 293/293/293 283/283/283 287/287/287
f 294/294/294 293/293/293 292/292/292
f 295/295/295 293/293/293 294/294/294
f 293/293/293 295/295/295 283/283/283
f 283/283/283 296/296/296 285/285/285
f 297/297/297 285/285/285 296/296/296
f 298/298/298 296/296/296 283/283/283
f 283/283/283 295/295/295 298/298/298
f 296/296/296 298/298/298 299/299/299
f 298/298/298 295/295/295 299/299/299
f 299/299/299 295/295/295 300/300/300
f 301/301/301 303/303/303 302/302/302
f 301/301/301 304/304/304 303/303/303
f 303/303/303 304/304/304 305/305/305
f 306/306/306 303/303/303 305/305/305
f 307/307/307 308/308/308 254/254/254
f 254/254/254 247/247/247 307/307/307
f 309/309/309 307/307/307 247/247/247
f 247/247/247 310/310/310 309/309/309
f 247/247/247 244/244/244 310/310/310
f 311/311/311 309/309/309 310/310/310
f 244/244/244 312/312/312 310/310/310
f 310/310/310 312/312/312 311/311/311
f 244/244/244 243/243/243 312/312/312
f 313/313/313 311/311/311 312/312/312
f 312/312/312 243/243/243 314/314/314
f 313/313/313 312/312/312 314/314/314
f 315/315/315 317/317/317 316/316/316
f 318/318/318 317/317/317 315/315/315
f 315/315/315 319/319/319 318/318/318
