mtllib P_RockDesert_Clump01.mtl
v -1.222221 -0.06088656 -0.335928 1 1 1
v -1.273427 0.02502834 -0.1147289 1 1 1
v -1.311853 -0.07636827 -0.06453133 1 1 1
v 0.2591386 -0.07718933 -0.7536621 1 1 1
v 0.5695579 -0.2924265 -0.7332344 1 1 1
v 0.6927106 -0.3190186 -0.8207092 1 1 1
v -0.7516398 -0.115725 0.3643398 1 1 1
v -0.5691494 -0.1554707 0.1959248 1 1 1
v -0.7515664 -0.09155104 0.2654152 1 1 1
v -0.7516398 -0.115725 0.3643398 1 1 1
v -0.5758671 -0.3201022 0.5646477 1 1 1
v -0.5691494 -0.1554707 0.1959248 1 1 1
v -0.3164484 0.06769567 0.1117611 1 1 1
v -0.02585244 -0.1647795 0.3085213 1 1 1
v -0.1311572 0.08476298 0.1482983 1 1 1
v -0.02585244 -0.1647795 0.3085213 1 1 1
v -0.3164484 0.06769567 0.1117611 1 1 1
v -0.3496144 -0.1274453 0.157692 1 1 1
v 0.5708069 -0.1789345 0.2441769 1 1 1
v 0.6492059 -0.01731169 0.1955452 1 1 1
v 0.5075674 -0.08976991 0.3171368 1 1 1
v 0.6870124 -0.1490619 0.1585522 1 1 1
v 0.8003702 -0.1380609 0.1137962 1 1 1
v 0.9379764 0.05085447 0.09493446 1 1 1
v 0.9264584 -0.09556373 0.09150124 1 1 1
v 0.9986935 -0.1321044 0.9385281 1 1 1
v 0.8719353 -0.151569 0.9540043 1 1 1
v 0.8176756 -0.05965853 0.832983 1 1 1
v 0.7231378 0.02053135 0.7008743 1 1 1
v 1.167075 -0.08378991 0.8048706 1 1 1
v 1.15428 -0.1209164 0.856636 1 1 1
v 1.103048 0.00764098 0.6226997 1 1 1
v 1.208983 -0.07573744 0.7542953 1 1 1
v 0.8302087 0.2029178 0.3291836 1 1 1
v 1.063272 0.1026758 0.4608822 1 1 1
v 0.5969493 0.1040783 0.4519558 1 1 1
v 0.6423578 -0.02445793 0.6370354 1 1 1
v 0.9604087 0.1440732 0.2002316 1 1 1
v 0.9824591 0.133276 0.2144604 1 1 1
v 0.6526089 0.07046466 0.2934628 1 1 1
v 0.5075674 -0.08976991 0.3171368 1 1 1
v 0.6492059 -0.01731169 0.1955452 1 1 1
v 0.9379764 0.05085447 0.09493446 1 1 1
v 1.15428 -0.1209164 0.856636 1 1 1
v 1.167075 -0.08378991 0.8048706 1 1 1
v 1.208983 -0.07573744 0.7542953 1 1 1
v 1.238671 -0.1222128 0.7493362 1 1 1
v 1.23035 -0.1853555 0.7880535 1 1 1
v 1.24759 -0.1650533 0.75737 1 1 1
v 1.230366 -0.32722 0.7152042 1 1 1
v 1.107612 -0.2809862 0.8614826 1 1 1
v 0.9986935 -0.1321044 0.9385281 1 1 1
v 0.9959497 -0.3792091 0.8570309 1 1 1
v 0.8719353 -0.151569 0.9540043 1 1 1
v 0.5075674 -0.08976991 0.3171368 1 1 1
v 0.5969493 0.1040783 0.4519558 1 1 1
v 0.6423578 -0.02445793 0.6370354 1 1 1
v 0.6148849 -0.09778307 0.5666904 1 1 1
v 0.7140433 -0.1281344 0.7847061 1 1 1
v 0.7231378 0.02053135 0.7008743 1 1 1
v 0.8176756 -0.05965853 0.832983 1 1 1
v 0.8719353 -0.151569 0.9540043 1 1 1
v 0.6166315 -0.2447192 0.4761639 1 1 1
v 0.6366947 -0.283612 0.4442539 1 1 1
v 0.5708069 -0.1789345 0.2441769 1 1 1
v 0.7457232 -0.3973276 0.6088524 1 1 1
v 0.8256226 -0.3512071 0.8389645 1 1 1
v 0.9959497 -0.3792091 0.8570309 1 1 1
v 0.8743348 -0.4476031 0.7816696 1 1 1
v 1.238671 -0.1222128 0.7493362 1 1 1
v 1.208983 -0.07573744 0.7542953 1 1 1
v 1.103048 0.00764098 0.6226997 1 1 1
v 1.155079 -0.1393785 0.5458775 1 1 1
v 1.191332 -0.2532237 0.5442295 1 1 1
v 1.196359 -0.3734327 0.6034336 1 1 1
v 1.24759 -0.1650533 0.75737 1 1 1
v 1.230366 -0.32722 0.7152042 1 1 1
v 1.23035 -0.1853555 0.7880535 1 1 1
v 1.125444 -0.3612427 0.5061607 1 1 1
v 1.035455 -0.3387641 0.3789482 1 1 1
v 1.03088 -0.2505122 0.2661991 1 1 1
v 1.115324 -0.04989269 0.3375187 1 1 1
v 0.9264584 -0.09556373 0.09150124 1 1 1
v 0.9923797 0.03449466 0.1217747 1 1 1
v 0.9379764 0.05085447 0.09493446 1 1 1
v 0.9824591 0.133276 0.2144604 1 1 1
v 1.063272 0.1026758 0.4608822 1 1 1
v 0.9604087 0.1440732 0.2002316 1 1 1
v 1.03088 -0.2505122 0.2661991 1 1 1
v 0.9264584 -0.09556373 0.09150124 1 1 1
v 0.8003702 -0.1380609 0.1137962 1 1 1
v 0.6870124 -0.1490619 0.1585522 1 1 1
v 0.8933625 -0.3566433 0.4745731 1 1 1
v 0.5708069 -0.1789345 0.2441769 1 1 1
v 1.035455 -0.3387641 0.3789482 1 1 1
v 0.6366947 -0.283612 0.4442539 1 1 1
v 1.125444 -0.3612427 0.5061607 1 1 1
v 0.7457232 -0.3973276 0.6088524 1 1 1
v 1.179803 -0.414257 0.6335144 1 1 1
v 1.196359 -0.3734327 0.6034336 1 1 1
v 1.230366 -0.32722 0.7152042 1 1 1
v 1.152039 -0.4334965 0.6861744 1 1 1
v 0.8743348 -0.4476031 0.7816696 1 1 1
v 1.107612 -0.2809862 0.8614826 1 1 1
v 0.9959497 -0.3792091 0.8570309 1 1 1
v 1.063272 0.1026758 0.4608822 1 1 1
v 1.115324 -0.04989269 0.3375187 1 1 1
v 1.155079 -0.1393785 0.5458775 1 1 1
v 1.103048 0.00764098 0.6226997 1 1 1
v -0.8266506 -0.1267448 -0.02772903 1 1 1
v -0.8806591 -0.1943389 -0.2600574 1 1 1
v -0.9088635 -0.3649658 0.01285934 1 1 1
v -0.9575433 -0.4123391 -0.3242836 1 1 1
v -0.9857016 -0.4950538 -0.1754417 1 1 1
v -1.062965 -0.6217877 -0.4030991 1 1 1
v -1.003335 -0.511277 -0.07294464 1 1 1
v -1.042458 -0.4709485 0.02435875 1 1 1
v -0.9837555 -0.3261286 0.1160202 1 1 1
v -0.8997519 -0.2049161 0.1815071 1 1 1
v -1.148706 -0.6612489 -0.168932 1 1 1
v -1.25398 -0.625686 -0.2993183 1 1 1
v -1.416901 -0.5772053 -0.1527977 1 1 1
v -1.258957 -0.5870792 -0.4249725 1 1 1
v -1.538402 -0.4654103 -0.2517052 1 1 1
v -1.532676 -0.4383888 -0.3914108 1 1 1
v -1.161673 0.1318913 -0.00371933 1 1 1
v -1.128524 0.1383399 -0.1288795 1 1 1
v -1.071208 0.1398305 -0.1038475 1 1 1
v -1.177941 0.1182944 -0.1275558 1 1 1
v -1.194842 0.0416516 -0.2196407 1 1 1
v -1.237068 0.04464822 0.1190681 1 1 1
v -1.198059 0.05074456 0.1286583 1 1 1
v -1.259327 0.008452706 0.1322536 1 1 1
v -1.273427 0.02502834 -0.1147289 1 1 1
v -1.222221 -0.06088656 -0.335928 1 1 1
v -1.311853 -0.07636827 -0.06453133 1 1 1
v -1.094787 -0.5292568 -0.4908371 1 1 1
v -1.258957 -0.5870792 -0.4249725 1 1 1
v -1.062965 -0.6217877 -0.4030991 1 1 1
v -1.231565 -0.4788133 -0.5126305 1 1 1
v -1.333384 -0.4109442 -0.5118675 1 1 1
v -1.532676 -0.4383888 -0.3914108 1 1 1
v -1.447706 -0.350701 -0.4731026 1 1 1
v -1.330605 -0.1419448 -0.3828773 1 1 1
v -1.542678 -0.383198 -0.3630962 1 1 1
v -0.9088635 -0.3649658 0.01285934 1 1 1
v -0.8997519 -0.2049161 0.1815071 1 1 1
v -0.8266506 -0.1267448 -0.02772903 1 1 1
v -0.9075798 0.01934543 0.0194931 1 1 1
v -0.8366899 -0.03735632 -0.1105347 1 1 1
v -0.9981308 -0.127797 0.2140675 1 1 1
v -1.028242 0.03685277 0.1047573 1 1 1
v -1.071208 0.1398305 -0.1038475 1 1 1
v -1.147222 -0.0355882 0.1965179 1 1 1
v -1.161673 0.1318913 -0.00371933 1 1 1
v -1.198059 0.05074456 0.1286583 1 1 1
v -0.9981308 -0.127797 0.2140675 1 1 1
v -0.8997519 -0.2049161 0.1815071 1 1 1
v -0.9837555 -0.3261286 0.1160202 1 1 1
v -1.042458 -0.4709485 0.02435875 1 1 1
v -1.204433 -0.05967798 0.1773243 1 1 1
v -1.147222 -0.0355882 0.1965179 1 1 1
v -1.316356 -0.1982508 0.05935669 1 1 1
v -1.263319 -0.04308319 0.1521034 1 1 1
v -1.259327 0.008452706 0.1322536 1 1 1
v -1.198059 0.05074456 0.1286583 1 1 1
v -1.237068 0.04464822 0.1190681 1 1 1
v -1.311853 -0.07636827 -0.06453133 1 1 1
v -1.416901 -0.5772053 -0.1527977 1 1 1
v -1.148706 -0.6612489 -0.168932 1 1 1
v -1.433966 -0.3179718 -0.03355789 1 1 1
v -1.452543 -0.2004308 -0.1980095 1 1 1
v -1.538402 -0.4654103 -0.2517052 1 1 1
v -1.538311 -0.4397123 -0.2396717 1 1 1
v -1.542678 -0.383198 -0.3630962 1 1 1
v -1.532676 -0.4383888 -0.3914108 1 1 1
v -0.8366899 -0.03735632 -0.1105347 1 1 1
v -0.9075798 0.01934543 0.0194931 1 1 1
v -1.071208 0.1398305 -0.1038475 1 1 1
v -0.8806591 -0.1943389 -0.2600574 1 1 1
v -1.070211 -0.1364473 -0.3069839 1 1 1
v -0.8266506 -0.1267448 -0.02772903 1 1 1
v -1.128524 0.1383399 -0.1288795 1 1 1
v -1.194842 0.0416516 -0.2196407 1 1 1
v -1.222221 -0.06088656 -0.335928 1 1 1
v -0.9667776 -0.3774896 -0.3647003 1 1 1
v -0.9575433 -0.4123391 -0.3242836 1 1 1
v -1.062965 -0.6217877 -0.4030991 1 1 1
v -1.094787 -0.5292568 -0.4908371 1 1 1
v -1.231565 -0.4788133 -0.5126305 1 1 1
v -1.330605 -0.1419448 -0.3828773 1 1 1
v -1.333384 -0.4109442 -0.5118675 1 1 1
v -1.330605 -0.1419448 -0.3828773 1 1 1
v -1.222221 -0.06088656 -0.335928 1 1 1
v -1.311853 -0.07636827 -0.06453133 1 1 1
v -1.452543 -0.2004308 -0.1980095 1 1 1
v -1.447706 -0.350701 -0.4731026 1 1 1
v -1.542678 -0.383198 -0.3630962 1 1 1
v 0.941803 -0.1455999 -0.8700066 1 1 1
v 0.9380445 -0.0967977 -0.9093952 1 1 1
v 0.8411373 -0.2628615 -0.8303375 1 1 1
v 0.8374348 -0.2641799 -0.7170639 1 1 1
v 0.6927106 -0.3190186 -0.8207092 1 1 1
v 0.5695579 -0.2924265 -0.7332344 1 1 1
v 0.9336061 -0.1636994 -0.5349731 1 1 1
v 0.994029 -0.08907705 -0.8149261 1 1 1
v 1.04464 -0.04753846 -0.5774097 1 1 1
v 0.9649343 -0.1319505 -0.5149841 1 1 1
v 0.7645216 -0.1204818 -0.3707848 1 1 1
v 0.5749645 -0.133164 -0.40518 1 1 1
v 0.7829185 -0.08875566 -0.352047 1 1 1
v 0.8411373 -0.2628615 -0.8303375 1 1 1
v 0.5063813 -0.1630343 -0.9338837 1 1 1
v 0.6927106 -0.3190186 -0.8207092 1 1 1
v 0.725853 -0.04914612 -0.9671116 1 1 1
v 0.9380445 -0.0967977 -0.9093952 1 1 1
v 0.8620796 -0.0471493 -0.9434242 1 1 1
v 0.4760635 0.07132154 -0.9637566 1 1 1
v 0.3743429 0.008871965 -0.9494877 1 1 1
v 0.4077387 -0.09958839 -0.9359303 1 1 1
v 0.2581484 -0.03310817 -0.856039 1 1 1
v 0.2591386 -0.07718933 -0.7536621 1 1 1
v 0.5065889 0.1632766 -0.2830906 1 1 1
v 0.5064797 0.2115274 -0.3231506 1 1 1
v 0.5976834 0.1505696 -0.2981968 1 1 1
v 0.6022644 0.215117 -0.3458481 1 1 1
v 0.6400368 0.147761 -0.3109512 1 1 1
v 0.6664405 0.182718 -0.3439655 1 1 1
v 0.7829185 -0.08875566 -0.352047 1 1 1
v 0.7747692 0.1503533 -0.3778973 1 1 1
v 0.9303875 0.06349223 -0.4733448 1 1 1
v 0.9649343 -0.1319505 -0.5149841 1 1 1
v 1.011531 0.009787999 -0.5484409 1 1 1
v 1.04464 -0.04753846 -0.5774097 1 1 1
v 1.011531 0.009787999 -0.5484409 1 1 1
v 0.9292903 0.02097639 -0.8494129 1 1 1
v 1.04464 -0.04753846 -0.5774097 1 1 1
v 0.994029 -0.08907705 -0.8149261 1 1 1
v 0.9728875 -0.0715034 -0.8696747 1 1 1
v 0.941803 -0.1455999 -0.8700066 1 1 1
v 0.9380445 -0.0967977 -0.9093952 1 1 1
v 0.8620796 -0.0471493 -0.9434242 1 1 1
v 0.8095222 0.0278035 -0.9262352 1 1 1
v 0.8534942 0.05868112 -0.8681698 1 1 1
v 0.588412 0.08664342 -0.9425354 1 1 1
v 0.725853 -0.04914612 -0.9671116 1 1 1
v 0.4760635 0.07132154 -0.9637566 1 1 1
v 0.2375865 0.03951155 -0.7377567 1 1 1
v 0.2591386 -0.07718933 -0.7536621 1 1 1
v 0.2581484 -0.03310817 -0.856039 1 1 1
v 0.2533884 -0.005076855 -0.6103458 1 1 1
v 0.5695579 -0.2924265 -0.7332344 1 1 1
v 0.5749645 -0.133164 -0.40518 1 1 1
v 0.3722176 0.02586236 -0.3612576 1 1 1
v 0.3948502 0.1945882 -0.4653797 1 1 1
v 0.5064797 0.2115274 -0.3231506 1 1 1
v 0.5065889 0.1632766 -0.2830906 1 1 1
v 0.4287572 0.005773716 -0.343626 1 1 1
v 0.7645216 -0.1204818 -0.3707848 1 1 1
v 0.5976834 0.1505696 -0.2981968 1 1 1
v 0.7829185 -0.08875566 -0.352047 1 1 1
v 0.2591386 -0.07718933 -0.7536621 1 1 1
v 0.6927106 -0.3190186 -0.8207092 1 1 1
v 0.4077387 -0.09958839 -0.9359303 1 1 1
v 0.5063813 -0.1630343 -0.9338837 1 1 1
v -0.2685781 -0.05679019 0.9456921 1 1 1
v -0.2345958 0.0008464009 0.9438477 1 1 1
v -0.1722555 -0.0500145 0.90872 1 1 1
v -0.1772442 0.01738026 0.9207516 1 1 1
v -0.08630633 -0.1443832 0.7794609 1 1 1
v -0.170254 0.1011131 0.856308 1 1 1
v -0.308579 0.07269504 0.8955574 1 1 1
v -0.2268152 0.15879 0.799099 1 1 1
v -0.3045249 0.1362396 0.8254108 1 1 1
v -0.206645 0.1939589 0.5787983 1 1 1
v -0.1190028 0.1309966 0.7237701 1 1 1
v -0.0005369186 0.06026279 0.4655952 1 1 1
v -0.1529503 0.2026433 0.469511 1 1 1
v -0.09410286 0.1955855 0.3567333 1 1 1
v -0.03101444 0.117523 0.3782883 1 1 1
v 0.03399849 -0.1555313 0.5525875 1 1 1
v 0.03290725 0.01290803 0.4035568 1 1 1
v 0.03036547 -0.05357886 0.3624306 1 1 1
v -0.5691494 -0.1554707 0.1959248 1 1 1
v -0.5567421 -0.1119954 0.1456242 1 1 1
v -0.7515664 -0.09155104 0.2654152 1 1 1
v -0.756475 -0.02511191 0.2814312 1 1 1
v -0.6086948 0.08962675 0.2153988 1 1 1
v -0.3164484 0.06769567 0.1117611 1 1 1
v -0.3496144 -0.1274453 0.157692 1 1 1
v -0.3685484 0.207652 0.1866112 1 1 1
v -0.245667 0.1880711 0.1404743 1 1 1
v -0.7515664 -0.09155104 0.2654152 1 1 1
v -0.756475 -0.02511191 0.2814312 1 1 1
v -0.7516398 -0.115725 0.3643398 1 1 1
v -0.7638687 -0.03222321 0.3885612 1 1 1
v -0.7495627 -0.1205149 0.4124813 1 1 1
v -0.7561831 -0.07672194 0.4528599 1 1 1
v -0.5758671 -0.3201022 0.5646477 1 1 1
v -0.7312111 -0.1082617 0.5753918 1 1 1
v -0.6295216 -0.1536401 0.7661495 1 1 1
v -0.4607363 -0.290853 0.8082733 1 1 1
v -0.5507901 -0.166529 0.8741722 1 1 1
v -0.4937195 -0.2013473 0.9161701 1 1 1
v -0.308579 0.07269504 0.8955574 1 1 1
v -0.2685781 -0.05679019 0.9456921 1 1 1
v -0.2345958 0.0008464009 0.9438477 1 1 1
v -0.206645 0.1939589 0.5787983 1 1 1
v -0.2268152 0.15879 0.799099 1 1 1
v -0.3045249 0.1362396 0.8254108 1 1 1
v -0.56819 0.09923913 0.520956 1 1 1
v -0.308579 0.07269504 0.8955574 1 1 1
v -0.5507901 -0.166529 0.8741722 1 1 1
v -0.6295216 -0.1536401 0.7661495 1 1 1
v -0.7312111 -0.1082617 0.5753918 1 1 1
v -0.7561831 -0.07672194 0.4528599 1 1 1
v -0.7638687 -0.03222321 0.3885612 1 1 1
v -0.756475 -0.02511191 0.2814312 1 1 1
v -0.3212333 0.2158573 0.3050461 1 1 1
v -0.6086948 0.08962675 0.2153988 1 1 1
v -0.3685484 0.207652 0.1866112 1 1 1
v -0.245667 0.1880711 0.1404743 1 1 1
v -0.1123815 0.1709128 0.2137394 1 1 1
v -0.09410286 0.1955855 0.3567333 1 1 1
v -0.1529503 0.2026433 0.469511 1 1 1
v -0.1190028 0.1309966 0.7237701 1 1 1
v -0.170254 0.1011131 0.856308 1 1 1
v -0.09410286 0.1955855 0.3567333 1 1 1
v -0.1123815 0.1709128 0.2137394 1 1 1
v -0.03101444 0.117523 0.3782883 1 1 1
v -0.1311572 0.08476298 0.1482983 1 1 1
v -0.245667 0.1880711 0.1404743 1 1 1
v -0.3164484 0.06769567 0.1117611 1 1 1
v 0.03290725 0.01290803 0.4035568 1 1 1
v 0.03036547 -0.05357886 0.3624306 1 1 1
v -0.02585244 -0.1647795 0.3085213 1 1 1
v -0.02585244 -0.1647795 0.3085213 1 1 1
v 0.03399849 -0.1555313 0.5525875 1 1 1
v 0.03036547 -0.05357886 0.3624306 1 1 1
v -0.1772261 -0.2229109 0.7414093 1 1 1
v -0.08630633 -0.1443832 0.7794609 1 1 1
v -0.1722555 -0.0500145 0.90872 1 1 1
v -0.4145913 -0.2940873 0.7815933 1 1 1
v -0.2685781 -0.05679019 0.9456921 1 1 1
v -0.4937195 -0.2013473 0.9161701 1 1 1
v -0.4607363 -0.290853 0.8082733 1 1 1
v -0.5336962 -0.3276517 0.5508919 1 1 1
v -0.5758671 -0.3201022 0.5646477 1 1 1
v -0.5691494 -0.1554707 0.1959248 1 1 1
v -0.4533708 -0.2634056 0.3639927 1 1 1
v -0.3496144 -0.1274453 0.157692 1 1 1
v -0.5567421 -0.1119954 0.1456242 1 1 1
v 0.7747692 0.1503533 -0.3778973 1 1 1
v 0.6664405 0.182718 -0.3439655 1 1 1
v 0.6493804 0.1866921 -0.5871201 1 1 1
v 0.9303875 0.06349223 -0.4733448 1 1 1
v 0.6022644 0.215117 -0.3458481 1 1 1
v 1.011531 0.009787999 -0.5484409 1 1 1
v 0.9292903 0.02097639 -0.8494129 1 1 1
v 0.8534942 0.05868112 -0.8681698 1 1 1
v 0.5064797 0.2115274 -0.3231506 1 1 1
v 0.3785424 0.1334184 -0.7753601 1 1 1
v 0.3948502 0.1945882 -0.4653797 1 1 1
v 0.588412 0.08664342 -0.9425354 1 1 1
v 0.4760635 0.07132154 -0.9637566 1 1 1
v 0.3743429 0.008871965 -0.9494877 1 1 1
v 0.2581484 -0.03310817 -0.856039 1 1 1
v 0.2375865 0.03951155 -0.7377567 1 1 1
v 0.295789 0.126889 -0.6826153 1 1 1
v 0.2533884 -0.005076855 -0.6103458 1 1 1
vn -0.114723 0.6954312 -0.7093759
vn -0.8476211 0.5038502 -0.1663536
vn -0.8889967 0.4492996 0.08840153
vn -0.789324 -0.6139759 -0.001149855
vn -0.347265 -0.9360096 0.05738591
vn 0.01135225 -0.9428309 -0.3330781
vn -0.8405746 -0.5217426 -0.145667
vn -0.2032216 -0.7931256 -0.574154
vn -0.7781652 -0.3736906 -0.5047914
vn -0.8405746 -0.5217426 -0.145667
vn -0.5663218 -0.8192782 0.0897925
vn -0.2032216 -0.7931256 -0.574154
vn -0.002617215 0.03330759 -0.9994417
vn 0.5882609 -0.6440506 -0.4890276
vn 0.5371661 0.007833193 -0.8434402
vn 0.5882609 -0.6440506 -0.4890276
vn -0.002617215 0.03330759 -0.9994417
vn 0.1517602 -0.571865 -0.8061882
vn -0.648227 -0.517218 -0.5588267
vn -0.5370626 0.3988853 -0.7432727
vn -0.9815969 0.03306649 -0.1880799
vn -0.3739297 -0.4156795 -0.8290881
vn -0.216447 -0.4164082 -0.8830373
vn 0.0622028 0.4502321 -0.8907424
vn 0.2493797 -0.2616297 -0.9323946
vn 0.2226466 0.3690345 0.9023536
vn -0.2803483 0.1728925 0.9441997
vn -0.2788661 0.7290434 0.6250835
vn -0.34702 0.7333493 0.5846161
vn 0.377858 0.7646231 0.522087
vn 0.5190279 0.3913452 0.7599072
vn 0.5670392 0.8025398 0.1854629
vn 0.6651905 0.7185091 0.2031413
vn -0.1039689 0.9864104 -0.1272201
vn 0.6233239 0.7674469 0.1499751
vn -0.7012495 0.6946101 0.1605182
vn -0.8384116 0.2474658 0.4856198
vn 0.1835071 0.8543926 -0.4861465
vn 0.641279 0.7171045 -0.2729879
vn -0.5486394 0.6817554 -0.4839467
vn -0.9815969 0.03306649 -0.1880799
vn -0.5370626 0.3988853 -0.7432727
vn 0.0622028 0.4502321 -0.8907424
vn 0.5190279 0.3913452 0.7599072
vn 0.377858 0.7646231 0.522087
vn 0.6651905 0.7185091 0.2031413
vn 0.9321162 0.3467008 0.1046806
vn 0.8618881 -0.04100552 0.505438
vn 0.9916916 0.07503091 0.1044899
vn 0.8904997 -0.3502151 0.2904476
vn 0.4672337 -0.3610388 0.8070587
vn 0.2226466 0.3690345 0.9023536
vn 0.1624762 -0.6199098 0.7676675
vn -0.2803483 0.1728925 0.9441997
vn -0.9815969 0.03306649 -0.1880799
vn -0.7012495 0.6946101 0.1605182
vn -0.8384116 0.2474658 0.4856198
vn -0.9153064 -0.1044529 0.3889778
vn -0.8065599 0.03619451 0.5900434
vn -0.34702 0.7333493 0.5846161
vn -0.2788661 0.7290434 0.6250835
vn -0.2803483 0.1728925 0.9441997
vn -0.8733627 -0.4122994 0.2593202
vn -0.6016791 -0.7835819 -0.1548599
vn -0.648227 -0.517218 -0.5588267
vn -0.5714476 -0.8205366 -0.01293937
vn -0.5716249 -0.4731673 0.6703414
vn 0.1624762 -0.6199098 0.7676675
vn -0.259857 -0.9052959 0.3360264
vn 0.9321162 0.3467008 0.1046806
vn 0.6651905 0.7185091 0.2031413
vn 0.5670392 0.8025398 0.1854629
vn 0.9076145 0.2329436 -0.3492465
vn 0.8512586 0.04263393 -0.5230117
vn 0.8510667 -0.3769902 -0.3654637
vn 0.9916916 0.07503091 0.1044899
vn 0.8904997 -0.3502151 0.2904476
vn 0.8618881 -0.04100552 0.505438
vn 0.4903774 -0.6935243 -0.5277823
vn 0.3838196 -0.7637147 -0.5190593
vn 0.5226098 -0.628229 -0.5763744
vn 0.9438472 0.09211484 -0.3172813
vn 0.2493797 -0.2616297 -0.9323946
vn 0.7251531 0.2228339 -0.6515352
vn 0.0622028 0.4502321 -0.8907424
vn 0.641279 0.7171045 -0.2729879
vn 0.6233239 0.7674469 0.1499751
vn 0.1835071 0.8543926 -0.4861465
vn 0.5226098 -0.628229 -0.5763744
vn 0.2493797 -0.2616297 -0.9323946
vn -0.216447 -0.4164082 -0.8830373
vn -0.3739297 -0.4156795 -0.8290881
vn -0.08657638 -0.9115381 -0.4019986
vn -0.648227 -0.517218 -0.5588267
vn 0.3838196 -0.7637147 -0.5190593
vn -0.6016791 -0.7835819 -0.1548599
vn 0.4903774 -0.6935243 -0.5277823
vn -0.5714476 -0.8205366 -0.01293937
vn 0.5443053 -0.8122741 -0.2096251
vn 0.8510667 -0.3769902 -0.3654637
vn 0.8904997 -0.3502151 0.2904476
vn 0.3860722 -0.9091111 0.1564139
vn -0.259857 -0.9052959 0.3360264
vn 0.4672337 -0.3610388 0.8070587
vn 0.1624762 -0.6199098 0.7676675
vn 0.6233239 0.7674469 0.1499751
vn 0.9438472 0.09211484 -0.3172813
vn 0.9076145 0.2329436 -0.3492465
vn 0.5670392 0.8025398 0.1854629
vn 0.9900566 0.01024428 0.1402964
vn 0.7960615 0.1220239 -0.5927869
vn 0.8143858 -0.5116888 0.2737709
vn 0.914852 -0.3213141 -0.2445466
vn 0.8461187 -0.5329328 0.008110387
vn 0.489182 -0.7716529 -0.4065129
vn 0.660723 -0.692492 0.2896549
vn 0.1450354 -0.6371843 0.7569419
vn 0.1275277 -0.5775549 0.8063294
vn 0.6100735 -0.1563477 0.7767662
vn 0.1494843 -0.9435796 0.2954864
vn -0.2999877 -0.9346234 -0.1910146
vn -0.5434006 -0.7493563 0.3783926
vn -0.2985793 -0.7840415 -0.5441778
vn -0.8521219 -0.5139279 0.09882547
vn -0.783184 -0.4053923 -0.4714655
vn -0.2023053 0.9321682 0.3002247
vn -0.01500842 0.8981199 -0.4394943
vn 0.3416253 0.9095128 -0.2368094
vn -0.5307604 0.8079908 -0.2558207
vn -0.2243263 0.7254501 -0.6506918
vn -0.6011819 0.6932361 0.3974973
vn -0.2322734 0.7441012 0.6263884
vn -0.7117872 0.4703109 0.5216961
vn -0.8476211 0.5038502 -0.1663536
vn -0.114723 0.6954312 -0.7093759
vn -0.8889967 0.4492996 0.08840153
vn 0.3728873 -0.2284815 -0.899306
vn -0.2985793 -0.7840415 -0.5441778
vn 0.489182 -0.7716529 -0.4065129
vn -0.005058201 -0.1416483 -0.9899041
vn -0.1331807 -0.03536859 -0.9904605
vn -0.783184 -0.4053923 -0.4714655
vn -0.5358239 0.1943545 -0.8216563
vn -0.307222 0.6975111 -0.6473739
vn -0.9390551 0.2705293 -0.212107
vn 0.8143858 -0.5116888 0.2737709
vn 0.6100735 -0.1563477 0.7767662
vn 0.9900566 0.01024428 0.1402964
vn 0.6663467 0.6604484 0.3461071
vn 0.8433394 0.4658693 -0.2678517
vn 0.1659314 0.07451699 0.9833179
vn 0.3573079 0.7190056 0.5961225
vn 0.3416253 0.9095128 -0.2368094
vn -0.1110221 0.2518437 0.9613786
vn -0.2023053 0.9321682 0.3002247
vn -0.2322734 0.7441012 0.6263884
vn 0.1659314 0.07451699 0.9833179
vn 0.6100735 -0.1563477 0.7767662
vn 0.1275277 -0.5775549 0.8063294
vn 0.1450354 -0.6371843 0.7569419
vn -0.3594277 -0.1388377 0.922787
vn -0.1110221 0.2518437 0.9613786
vn -0.6868145 -0.08362742 0.7220057
vn -0.6924157 0.04664645 0.7199894
vn -0.7117872 0.4703109 0.5216961
vn -0.2322734 0.7441012 0.6263884
vn -0.6011819 0.6932361 0.3974973
vn -0.8889967 0.4492996 0.08840153
vn -0.5434006 -0.7493563 0.3783926
vn 0.1494843 -0.9435796 0.2954864
vn -0.7227284 -0.0254324 0.6906642
vn -0.8170279 0.5742964 0.05147012
vn -0.8521219 -0.5139279 0.09882547
vn -0.9436036 -0.05195746 0.326975
vn -0.9390551 0.2705293 -0.212107
vn -0.783184 -0.4053923 -0.4714655
vn 0.8433394 0.4658693 -0.2678517
vn 0.6663467 0.6604484 0.3461071
vn 0.3416253 0.9095128 -0.2368094
vn 0.7960615 0.1220239 -0.5927869
vn 0.3249295 0.4694407 -0.8210031
vn 0.9900566 0.01024428 0.1402964
vn -0.01500842 0.8981199 -0.4394943
vn -0.2243263 0.7254501 -0.6506918
vn -0.114723 0.6954312 -0.7093759
vn 0.7152654 0.05106825 -0.6969845
vn 0.914852 -0.3213141 -0.2445466
vn 0.489182 -0.7716529 -0.4065129
vn 0.3728873 -0.2284815 -0.899306
vn -0.005058201 -0.1416483 -0.9899041
vn -0.307222 0.6975111 -0.6473739
vn -0.1331807 -0.03536859 -0.9904605
vn -0.307222 0.6975111 -0.6473739
vn -0.114723 0.6954312 -0.7093759
vn -0.8889967 0.4492996 0.08840153
vn -0.8170279 0.5742964 0.05147012
vn -0.5358239 0.1943545 -0.8216563
vn -0.9390551 0.2705293 -0.212107
vn 0.674663 -0.5962758 -0.435069
vn 0.5460966 -0.168861 -0.8205268
vn 0.4607545 -0.7705862 -0.4403434
vn 0.4294985 -0.8841712 0.1837725
vn 0.01135225 -0.9428309 -0.3330781
vn -0.347265 -0.9360096 0.05738591
vn 0.4946401 -0.820419 0.2867818
vn 0.962195 -0.1649793 -0.2167084
vn 0.980309 -0.05342912 0.1901043
vn 0.6942909 -0.5063466 0.5114424
vn 0.1088617 -0.7192459 0.6861739
vn -0.2500766 -0.7558994 0.6050436
vn 0.405047 -0.2141805 0.8888552
vn 0.4607545 -0.7705862 -0.4403434
vn -0.2695022 -0.6005715 -0.7527832
vn 0.01135225 -0.9428309 -0.3330781
vn 0.116589 -0.08778331 -0.9892932
vn 0.5460966 -0.168861 -0.8205268
vn 0.3472835 0.09666704 -0.9327645
vn -0.1695844 0.5255036 -0.8337189
vn -0.4721964 0.229048 -0.8512154
vn -0.3903392 -0.5208508 -0.759177
vn -0.843124 -0.1014066 -0.5280707
vn -0.789324 -0.6139759 -0.001149855
vn -0.2235944 0.2318797 0.9466981
vn -0.2697276 0.8472689 0.4575831
vn 0.1678367 0.1800405 0.9692348
vn 0.2036513 0.9151918 0.3477789
vn 0.3534153 0.2753964 0.8940103
vn 0.3949859 0.7779074 0.4887189
vn 0.405047 -0.2141805 0.8888552
vn 0.5729703 0.5725277 0.5864445
vn 0.6709375 0.536611 0.5117535
vn 0.6942909 -0.5063466 0.5114424
vn 0.7902601 0.5162936 0.3300452
vn 0.980309 -0.05342912 0.1901043
vn 0.7902601 0.5162936 0.3300452
vn 0.6356499 0.66313 -0.3952313
vn 0.980309 -0.05342912 0.1901043
vn 0.962195 -0.1649793 -0.2167084
vn 0.8477324 0.1415857 -0.5111783
vn 0.674663 -0.5962758 -0.435069
vn 0.5460966 -0.168861 -0.8205268
vn 0.3472835 0.09666704 -0.9327645
vn 0.2858898 0.5507559 -0.784178
vn 0.396939 0.8241968 -0.4039048
vn 0.1099756 0.7337289 -0.6704829
vn 0.116589 -0.08778331 -0.9892932
vn -0.1695844 0.5255036 -0.8337189
vn -0.9281037 0.3374717 -0.1572784
vn -0.789324 -0.6139759 -0.001149855
vn -0.843124 -0.1014066 -0.5280707
vn -0.909953 -0.2164555 0.3537409
vn -0.347265 -0.9360096 0.05738591
vn -0.2500766 -0.7558994 0.6050436
vn -0.7396456 -0.2137453 0.6381515
vn -0.4937553 0.856269 0.1516876
vn -0.2697276 0.8472689 0.4575831
vn -0.2235944 0.2318797 0.9466981
vn -0.2980333 -0.4681256 0.8318862
vn 0.1088617 -0.7192459 0.6861739
vn 0.1678367 0.1800405 0.9692348
vn 0.405047 -0.2141805 0.8888552
vn -0.789324 -0.6139759 -0.001149855
vn 0.01135225 -0.9428309 -0.3330781
vn -0.3903392 -0.5208508 -0.759177
vn -0.2695022 -0.6005715 -0.7527832
vn 0.06037327 -0.2201076 0.9736056
vn 0.08406309 0.219475 0.9719898
vn 0.5634421 -0.3304853 0.7571741
vn 0.5763187 0.2649384 0.7730876
vn 0.7395021 -0.3816946 0.554478
vn 0.5404109 0.609818 0.5797223
vn -0.3039249 0.5844066 0.7523952
vn 0.175177 0.9212356 0.3473298
vn -0.3237784 0.8219836 0.4685196
vn 0.02789527 0.9830056 0.1814436
vn 0.6622174 0.6658884 0.3435997
vn 0.8453701 0.4792121 0.2360195
vn 0.333281 0.9337987 0.1301679
vn 0.512382 0.8584122 -0.02435653
vn 0.8423237 0.5250486 -0.1217162
vn 0.866053 -0.4562327 0.2044603
vn 0.9511725 0.2951105 -0.09044708
vn 0.937412 -0.02943633 -0.3469758
vn -0.2032216 -0.7931256 -0.574154
vn -0.2692031 -0.3432705 -0.8998306
vn -0.7781652 -0.3736906 -0.5047914
vn -0.8329639 0.4126395 -0.3686459
vn -0.5804029 0.70534 -0.4069742
vn -0.002617215 0.03330759 -0.9994417
vn 0.1517602 -0.571865 -0.8061882
vn -0.2707495 0.8493804 -0.4530427
vn 0.1268362 0.6993297 -0.7034562
vn -0.7781652 -0.3736906 -0.5047914
vn -0.8329639 0.4126395 -0.3686459
vn -0.8405746 -0.5217426 -0.145667
vn -0.9084337 0.4016391 0.1159056
vn -0.8908942 -0.4506225 0.05698248
vn -0.9551229 0.1646718 0.2462182
vn -0.5663218 -0.8192782 0.0897925
vn -0.9224087 -0.09165936 0.375181
vn -0.8662555 -0.09479297 0.4905259
vn -0.1639052 -0.8659484 0.472513
vn -0.7498866 -0.02395915 0.6611323
vn -0.3054303 -0.4002315 0.864018
vn -0.3039249 0.5844066 0.7523952
vn 0.06037327 -0.2201076 0.9736056
vn 0.08406309 0.219475 0.9719898
vn 0.02789527 0.9830056 0.1814436
vn 0.175177 0.9212356 0.3473298
vn -0.3237784 0.8219836 0.4685196
vn -0.5318184 0.8160833 0.2262239
vn -0.3039249 0.5844066 0.7523952
vn -0.7498866 -0.02395915 0.6611323
vn -0.8662555 -0.09479297 0.4905259
vn -0.9224087 -0.09165936 0.375181
vn -0.9551229 0.1646718 0.2462182
vn -0.9084337 0.4016391 0.1159056
vn -0.8329639 0.4126395 -0.3686459
vn -0.1424486 0.9895834 0.02080998
vn -0.5804029 0.70534 -0.4069742
vn -0.2707495 0.8493804 -0.4530427
vn 0.1268362 0.6993297 -0.7034562
vn 0.6242874 0.6520997 -0.4301525
vn 0.512382 0.8584122 -0.02435653
vn 0.333281 0.9337987 0.1301679
vn 0.6622174 0.6658884 0.3435997
vn 0.5404109 0.609818 0.5797223
vn 0.512382 0.8584122 -0.02435653
vn 0.6242874 0.6520997 -0.4301525
vn 0.8423237 0.5250486 -0.1217162
vn 0.5371661 0.007833193 -0.8434402
vn 0.1268362 0.6993297 -0.7034562
vn -0.002617215 0.03330759 -0.9994417
vn 0.9511725 0.2951105 -0.09044708
vn 0.937412 -0.02943633 -0.3469758
vn 0.5882609 -0.6440506 -0.4890276
vn 0.5882609 -0.6440506 -0.4890276
vn 0.866053 -0.4562327 0.2044603
vn 0.937412 -0.02943633 -0.3469758
vn 0.3635985 -0.8649678 0.3458712
vn 0.7395021 -0.3816946 0.554478
vn 0.5634421 -0.3304853 0.7571741
vn 0.249391 -0.905198 0.344123
vn 0.06037327 -0.2201076 0.9736056
vn -0.3054303 -0.4002315 0.864018
vn -0.1639052 -0.8659484 0.472513
vn -0.03610127 -0.9901908 -0.1349774
vn -0.5663218 -0.8192782 0.0897925
vn -0.2032216 -0.7931256 -0.574154
vn 0.002466505 -0.9167458 -0.3994635
vn 0.1517602 -0.571865 -0.8061882
vn -0.2692031 -0.3432705 -0.8998306
vn 0.5729703 0.5725277 0.5864445
vn 0.3949859 0.7779074 0.4887189
vn 0.1771985 0.9722919 -0.1524767
vn 0.6709375 0.536611 0.5117535
vn 0.2036513 0.9151918 0.3477789
vn 0.7902601 0.5162936 0.3300452
vn 0.6356499 0.66313 -0.3952313
vn 0.396939 0.8241968 -0.4039048
vn -0.2697276 0.8472689 0.4575831
vn -0.3129174 0.8804744 -0.3561566
vn -0.4937553 0.856269 0.1516876
vn 0.1099756 0.7337289 -0.6704829
vn -0.1695844 0.5255036 -0.8337189
vn -0.4721964 0.229048 -0.8512154
vn -0.843124 -0.1014066 -0.5280707
vn -0.9281037 0.3374717 -0.1572784
vn -0.6700271 0.7381604 -0.07863171
vn -0.909953 -0.2164555 0.3537409
vt 0.2488945 0.829158
vt 0.2170894 0.8730901
vt 0.2488945 0.9008077
vt 0.9090264 2.496958E-09
vt 0.8883225 0.1261169
vt 0.9090264 0.1754192
vt 0.2202395 0.5678158
vt 0.2202395 0.4839231
vt 0.1975531 0.5409293
vt 0.8883227 0.218928
vt 0.9611347 0.2698724
vt 0.9611347 0.1754192
vt 0.773185 0.7944329
vt 0.773185 0.9106146
vt 0.8186254 0.8238822
vt 0.3954242 0.9457593
vt 0.3954242 0.7971542
vt 0.3462002 0.830171
vt 0.2471953 0.4591574
vt 0.1975531 0.4155912
vt 0.2120239 0.4839231
vt 0.2457183 0.4074289
vt 0.2510771 0.3643572
vt 0.1975531 0.3051089
vt 0.2469916 0.3186076
vt 0.6185918 5.630694E-08
vt 0.5753928 0.0126835
vt 0.5858048 0.04903471
vt 0.5843417 0.09505803
vt 0.695089 0.01701817
vt 0.6797782 0.005721155
vt 0.7115957 0.07412155
vt 0.7163282 0.02715909
vt 0.6907099 0.1824949
vt 0.7328686 0.1213776
vt 0.5909441 0.1819176
vt 0.5646446 0.1298126
vt 0.744272 0.213193
vt 0.7478676 0.2069748
vt 0.6284726 0.228818
vt 0.5646446 0.2548766
vt 0.6334773 0.2690113
vt 0.743996 0.2586293
vt 0.9831195 0.04784448
vt 0.9959764 0.02980953
vt 0.9961596 0.006333649
vt 0.9776278 1.496196E-08
vt 0.9557774 0.01483698
vt 0.9619246 0.001871009
vt 0.9090265 0.002912356
vt 0.9324574 0.06793978
vt 0.991541 0.1071705
vt 0.9092094 0.09863322
vt 0.9961596 0.1429411
vt 0.5238163 -5.800478E-09
vt 0.4403757 0.0264634
vt 0.4455808 0.09544348
vt 0.4807331 0.0827015
vt 0.4502214 0.1593329
vt 0.4204686 0.1235391
vt 0.4209242 0.1865181
vt 0.4268215 0.238684
vt 0.5421195 0.0822913
vt 0.559913 0.0852339
vt 0.5646446 0.01102323
vt 0.5646446 0.1633569
vt 0.5085588 0.2279361
vt 0.5144553 0.2774234
vt 0.5486417 0.23981
vt 0.3891873 0.7786047
vt 0.4031852 0.764923
vt 0.4024855 0.7017675
vt 0.3461577 0.7228352
vt 0.3120614 0.7477031
vt 0.2848457 0.7746986
vt 0.3776043 0.7880669
vt 0.3194025 0.7971541
vt 0.3756976 0.7909349
vt 0.2692818 0.7365512
vt 0.2510771 0.6865982
vt 0.2594064 0.6549
vt 0.3373329 0.6648915
vt 0.2737877 0.5756401
vt 0.322111 0.5826288
vt 0.3203582 0.5604715
vt 0.3679171 0.5825117
vt 0.4031852 0.6509068
vt 0.3679399 0.5724273
vt 0.2531571 0.4869482
vt 0.2510771 0.5516346
vt 0.298196 0.5604715
vt 0.3410802 0.5591416
vt 0.3325559 0.4373626
vt 0.3916124 0.5452033
vt 0.2735903 0.4520757
vt 0.4045503 0.4746416
vt 0.2623222 0.3999536
vt 0.4001265 0.4112429
vt 0.2653183 0.3530814
vt 0.252571 0.3596657
vt 0.2510771 0.3166415
vt 0.2824428 0.3394513
vt 0.38459 0.3404357
vt 0.3041373 0.2803515
vt 0.3484734 0.2985335
vt 0.9117553 0.2803514
vt 0.9117553 0.3457408
vt 0.9733618 0.3515363
vt 0.9642055 0.2932978
vt 0.05994677 0.00773836
vt 4.907315E-09 0.07017472
vt 0.09714084 0.04617511
vt 0.002864277 0.1234677
vt 0.05751937 0.1132656
vt 0.005607056 0.1870302
vt 0.09301538 0.102119
vt 0.1279463 0.09327228
vt 0.1399635 0.04708043
vt 0.1406808 -3.562698E-08
vt 0.09444442 0.1752967
vt 0.07005969 0.2261415
vt 0.1406808 0.2448375
vt 0.03016193 0.246063
vt 0.125333 0.2883011
vt 0.07980338 0.3085061
vt 0.1101415 0.9078287
vt 0.1250122 0.8643782
vt 0.1047249 0.8602246
vt 0.1405305 0.8752914
vt 0.1733167 0.8542868
vt 0.1177547 0.9617191
vt 0.1047249 0.9565427
vt 0.1259193 0.9712302
vt 0.1758127 0.9012132
vt 0.2170894 0.8291581
vt 0.1897478 0.9269658
vt 0.928901 0.7200187
vt 0.8657427 0.7012921
vt 0.9055431 0.7492123
vt 0.9072789 0.6792325
vt 0.8946003 0.6392323
vt 0.8202538 0.6021357
vt 0.8715051 0.597204
vt 0.928901 0.5552812
vt 0.8243188 0.5827309
vt 0.7647365 0.978148
vt 0.7669515 0.9183952
vt 0.6900036 0.9360277
vt 0.6816893 0.8750086
vt 0.6529271 0.9193464
vt 0.773185 0.8738395
vt 0.7166856 0.8358769
vt 0.6529271 0.8228509
vt 0.7726553 0.8203933
vt 0.6921192 0.7950869
vt 0.7461877 0.7944329
vt 0.04495389 0.3122843
vt 0.008669262 0.3297778
vt 0.008235353 0.3820546
vt 1.325716E-08 0.4442308
vt 0.1132553 0.3240557
vt 0.1032226 0.3085062
vt 0.1222577 0.3961785
vt 0.1340823 0.3318216
vt 0.1480162 0.3245237
vt 0.1444436 0.3101708
vt 0.1532441 0.3174821
vt 0.166803 0.3989057
vt 0.08479 0.5471373
vt 0.005748725 0.5470204
vt 0.1336009 0.4580549
vt 0.1879232 0.4741432
vt 0.1524183 0.5570294
vt 0.1568198 0.5479865
vt 0.1879232 0.5665869
vt 0.1764709 0.5857323
vt 0.3894545 0.03330136
vt 0.3737337 1.346556E-08
vt 0.291266 0.01387899
vt 0.3940846 0.1108348
vt 0.3268059 0.128369
vt 0.4204686 0.03829464
vt 0.273705 0.02641172
vt 0.2664292 0.07863911
vt 0.2676774 0.1329908
vt 0.398339 0.1909987
vt 0.4127535 0.1906106
vt 0.4204686 0.2746332
vt 0.3825188 0.272479
vt 0.3335149 0.2803514
vt 0.2510771 0.1771091
vt 0.2925582 0.2747374
vt 0.3314917 0.8804209
vt 0.3462002 0.8327284
vt 0.2510771 0.7971542
vt 0.2510771 0.8774891
vt 0.3210235 0.9564768
vt 0.2683173 0.9599664
vt 0.4168199 0.8343563
vt 0.4045502 0.8270566
vt 0.4171207 0.8823936
vt 0.4553917 0.895053
vt 0.4045502 0.9373443
vt 0.4235487 0.9839887
vt 0.5298313 0.872233
vt 0.4423541 0.8174018
vt 0.529536 0.8206207
vt 0.5406256 0.8609615
vt 0.571175 0.9400485
vt 0.5410368 1
vt 0.5803136 0.932897
vt 0.8304867 0.4889402
vt 0.8226458 0.3857681
vt 0.790294 0.4557706
vt 0.8935838 0.4311538
vt 0.9041819 0.4945184
vt 0.9117552 0.4672628
vt 0.8920667 0.3372584
vt 0.8564168 0.3181145
vt 0.8272141 0.3461321
vt 0.8154401 0.28275
vt 0.7902939 0.2803514
vt 0.7442002 0.2806057
vt 0.72269 0.2803514
vt 0.7392468 0.3084846
vt 0.7111571 0.3081985
vt 0.7350244 0.3220356
vt 0.7169428 0.3292762
vt 0.7902939 0.404478
vt 0.7135937 0.3683007
vt 0.7131391 0.4398833
vt 0.7632397 0.4884661
vt 0.7111571 0.4834239
vt 0.7214244 0.5066563
vt 0.7111571 0.5222877
vt 0.6849791 0.4353638
vt 0.6873142 0.5275708
vt 0.6491636 0.4647248
vt 0.6498733 0.4466325
vt 0.6263221 0.4401492
vt 0.6384659 0.4292015
vt 0.6545621 0.3987369
vt 0.6838328 0.3848482
vt 0.6987608 0.4085445
vt 0.7111571 0.3163611
vt 0.6570601 0.3549518
vt 0.7084461 0.2803514
vt 0.8144855 0.7538788
vt 0.7761127 0.7712526
vt 0.7938845 0.7944329
vt 0.7927451 0.7212567
vt 0.6529272 0.7456625
vt 0.6858055 0.6290504
vt 0.7693684 0.6268668
vt 0.8202538 0.6293424
vt 0.7985522 0.5685198
vt 0.7823404 0.5638242
vt 0.7520802 0.6155713
vt 0.6529272 0.5870464
vt 0.7622388 0.5552811
vt 0.6582392 0.5743213
vt 0.6344237 0.9440351
vt 0.6344237 0.8174018
vt 0.5803136 0.8835266
vt 0.5861473 0.8567533
vt 0.7815337 0.2215692
vt 0.7993048 0.2119291
vt 0.7794365 0.1879371
vt 0.8024323 0.1915016
vt 0.7478676 0.1348642
vt 0.8342606 0.1727133
vt 0.8315338 0.2177389
vt 0.8609049 0.1720427
vt 0.8568754 0.1984746
vt 0.8831841 0.1113932
vt 0.8480962 0.126266
vt 0.8292523 0.03244482
vt 0.8883225 0.07037727
vt 0.8878617 0.02735249
vt 0.8555951 0.01765835
vt 0.7478676 0.04779484
vt 0.8139037 0.008963414
vt 0.793232 -1.164319E-08
vt 0.9377896 0.871789
vt 0.9215653 0.8586822
vt 0.9084122 0.9386538
vt 0.8853783 0.9405882
vt 0.8504748 0.8796374
vt 0.869566 0.7711532
vt 0.9377896 0.7950087
vt 0.8202537 0.7948941
vt 0.8318321 0.7492121
vt 0.2242509 0.305109
vt 0.2474605 0.2988542
vt 0.2209412 0.2779891
vt 0.2510771 0.2702352
vt 0.2213525 0.2640617
vt 0.2384778 0.2521691
vt 0.1406808 0.1925726
vt 0.2306506 0.2133876
vt 0.2116617 0.139688
vt 0.1469703 0.09795538
vt 0.2024152 0.09299268
vt 0.1856435 0.07051428
vt 0.2510771 0.02629247
vt 0.2057573 0.008969621
vt 0.2202692 -8.046333E-09
vt 0.4995617 0.61034
vt 0.427299 0.6373004
vt 0.4238689 0.6673412
vt 0.5449317 0.7356326
vt 0.4045503 0.6812949
vt 0.4417666 0.7871448
vt 0.4820652 0.8034667
vt 0.5496652 0.8174019
vt 0.5908428 0.8128554
vt 0.6101373 0.8054139
vt 0.6461295 0.7942672
vt 0.5981123 0.6251444
vt 0.6529272 0.7275257
vt 0.6419203 0.6328844
vt 0.6529272 0.5915322
vt 0.6221083 0.5552811
vt 0.5701343 0.5569284
vt 0.533806 0.5836827
vt 0.4497293 0.5996985
vt 0.4088973 0.6297563
vt 0.104725 0.8993823
vt 0.06814897 0.8796428
vt 0.09280822 0.9338631
vt 0.02930593 0.8815297
vt 0.04620961 0.8302222
vt 5.617068E-08 0.8291579
vt 0.07419973 0.9739538
vt 0.04717158 0.9799367
vt 3.669815E-08 0.9777631
vt 0.5929179 0.3178839
vt 0.626322 0.4007718
vt 0.6256064 0.332938
vt 0.5577639 0.478369
vt 0.5981588 0.4864683
vt 0.5849199 0.5352367
vt 0.472528 0.5049597
vt 0.5535522 0.5530737
vt 0.4617008 0.5552811
vt 0.4585911 0.5165951
vt 0.4173672 0.4299515
vt 0.4045502 0.4367954
vt 0.4045502 0.3049276
vt 0.4414697 0.3595172
vt 0.4795974 0.2803514
vt 0.410509 0.2861535
vt 0.007372873 0.6611465
vt 3.601266E-08 0.6955883
vt 0.08385766 0.6800845
vt 0.03701824 0.6123534
vt 0.002133269 0.7126088
vt 0.06177679 0.5857323
vt 0.1688762 0.5857323
vt 0.1770895 0.6044981
vt 0.0005774564 0.7461463
vt 0.1690338 0.7584834
vt 0.05739368 0.7724048
vt 0.2167676 0.6813312
vt 0.2321459 0.7178918
vt 0.2383459 0.7594161
vt 0.2168114 0.8100112
vt 0.1720953 0.8183826
vt 0.1429557 0.7940496
vt 0.1309852 0.8291581
usemtl MV_RockDesert_Rocks
f 1/1/1 3/3/3 2/2/2
f 4/4/4 6/6/6 5/5/5
f 7/7/7 9/9/9 8/8/8
f 10/10/10 12/12/12 11/11/11
f 13/13/13 15/15/15 14/14/14
f 16/16/16 18/18/18 17/17/17
f 19/19/19 21/21/21 20/20/20
f 19/19/19 20/20/20 22/22/22
f 22/22/22 20/20/20 23/23/23
f 23/23/23 20/20/20 24/24/24
f 23/23/23 24/24/24 25/25/25
f 26/26/26 28/28/28 27/27/27
f 26/26/26 29/29/29 28/28/28
f 30/30/30 29/29/29 26/26/26
f 30/30/30 26/26/26 31/31/31
f 32/32/32 29/29/29 30/30/30
f 32/32/32 30/30/30 33/33/33
f 34/34/34 29/29/29 32/32/32
f 34/34/34 32/32/32 35/35/35
f 36/36/36 29/29/29 34/34/34
f 37/37/37 29/29/29 36/36/36
f 38/38/38 34/34/34 35/35/35
f 38/38/38 35/35/35 39/39/39
f 34/34/34 40/40/40 36/36/36
f 38/38/38 40/40/40 34/34/34
f 36/36/36 40/40/40 41/41/41
f 40/40/40 42/42/42 41/41/41
f 42/42/42 40/40/40 38/38/38
f 43/43/43 42/42/42 38/38/38
f 44/44/44 46/46/46 45/45/45
f 44/44/44 47/47/47 46/46/46
f 48/48/48 47/47/47 44/44/44
f 48/48/48 49/49/49 47/47/47
f 44/44/44 50/50/50 48/48/48
f 44/44/44 51/51/51 50/50/50
f 51/51/51 44/44/44 52/52/52
f 53/53/53 51/51/51 52/52/52
f 53/53/53 52/52/52 54/54/54
f 55/55/55 57/57/57 56/56/56
f 55/55/55 58/58/58 57/57/57
f 57/57/57 58/58/58 59/59/59
f 59/59/59 60/60/60 57/57/57
f 59/59/59 61/61/61 60/60/60
f 59/59/59 62/62/62 61/61/61
f 63/63/63 58/58/58 55/55/55
f 59/59/59 58/58/58 63/63/63
f 55/55/55 64/64/64 63/63/63
f 55/55/55 65/65/65 64/64/64
f 63/63/63 64/64/64 66/66/66
f 59/59/59 63/63/63 66/66/66
f 59/59/59 67/67/67 62/62/62
f 67/67/67 59/59/59 66/66/66
f 68/68/68 62/62/62 67/67/67
f 69/69/69 67/67/67 66/66/66
f 68/68/68 67/67/67 69/69/69
f 70/70/70 72/72/72 71/71/71
f 70/70/70 73/73/73 72/72/72
f 74/74/74 73/73/73 70/70/70
f 75/75/75 74/74/74 70/70/70
f 75/75/75 70/70/70 76/76/76
f 77/77/77 75/75/75 76/76/76
f 77/77/77 76/76/76 78/78/78
f 79/79/79 74/74/74 75/75/75
f 80/80/80 74/74/74 79/79/79
f 80/80/80 73/73/73 74/74/74
f 81/81/81 73/73/73 80/80/80
f 81/81/81 82/82/82 73/73/73
f 83/83/83 82/82/82 81/81/81
f 83/83/83 84/84/84 82/82/82
f 85/85/85 84/84/84 83/83/83
f 82/82/82 84/84/84 86/86/86
f 86/86/86 84/84/84 85/85/85
f 82/82/82 86/86/86 87/87/87
f 86/86/86 85/85/85 88/88/88
f 89/89/89 91/91/91 90/90/90
f 89/89/89 92/92/92 91/91/91
f 92/92/92 89/89/89 93/93/93
f 92/92/92 93/93/93 94/94/94
f 93/93/93 89/89/89 95/95/95
f 93/93/93 96/96/96 94/94/94
f 93/93/93 95/95/95 97/97/97
f 93/93/93 98/98/98 96/96/96
f 93/93/93 97/97/97 99/99/99
f 100/100/100 99/99/99 97/97/97
f 99/99/99 100/100/100 101/101/101
f 102/102/102 98/98/98 93/93/93
f 102/102/102 93/93/93 99/99/99
f 101/101/101 102/102/102 99/99/99
f 102/102/102 103/103/103 98/98/98
f 101/101/101 104/104/104 102/102/102
f 103/103/103 102/102/102 105/105/105
f 102/102/102 104/104/104 105/105/105
f 106/106/106 108/108/108 107/107/107
f 109/109/109 108/108/108 106/106/106
f 110/110/110 112/112/112 111/111/111
f 112/112/112 113/113/113 111/111/111
f 112/112/112 114/114/114 113/113/113
f 113/113/113 114/114/114 115/115/115
f 116/116/116 114/114/114 112/112/112
f 115/115/115 114/114/114 116/116/116
f 112/112/112 117/117/117 116/116/116
f 112/112/112 118/118/118 117/117/117
f 112/112/112 119/119/119 118/118/118
f 116/116/116 117/117/117 120/120/120
f 115/115/115 116/116/116 120/120/120
f 120/120/120 121/121/121 115/115/115
f 122/122/122 121/121/121 120/120/120
f 121/121/121 123/123/123 115/115/115
f 124/124/124 121/121/121 122/122/122
f 123/123/123 121/121/121 124/124/124
f 125/125/125 123/123/123 124/124/124
f 126/126/126 128/128/128 127/127/127
f 127/127/127 129/129/129 126/126/126
f 129/129/129 127/127/127 130/130/130
f 126/126/126 129/129/129 131/131/131
f 126/126/126 131/131/131 132/132/132
f 129/129/129 133/133/133 131/131/131
f 130/130/130 134/134/134 129/129/129
f 129/129/129 134/134/134 133/133/133
f 135/135/135 134/134/134 130/130/130
f 134/134/134 136/136/136 133/133/133
f 137/137/137 139/139/139 138/138/138
f 137/137/137 138/138/138 140/140/140
f 140/140/140 138/138/138 141/141/141
f 141/141/141 138/138/138 142/142/142
f 141/141/141 142/142/142 143/143/143
f 144/144/144 141/141/141 143/143/143
f 142/142/142 145/145/145 143/143/143
f 146/146/146 148/148/148 147/147/147
f 149/149/149 147/147/147 148/148/148
f 149/149/149 148/148/148 150/150/150
f 149/149/149 151/151/151 147/147/147
f 149/149/149 152/152/152 151/151/151
f 153/153/153 152/152/152 149/149/149
f 152/152/152 154/154/154 151/151/151
f 155/155/155 152/152/152 153/153/153
f 154/154/154 152/152/152 155/155/155
f 154/154/154 155/155/155 156/156/156
f 157/157/157 159/159/159 158/158/158
f 157/157/157 160/160/160 159/159/159
f 161/161/161 160/160/160 157/157/157
f 161/161/161 157/157/157 162/162/162
f 163/163/163 160/160/160 161/161/161
f 162/162/162 164/164/164 161/161/161
f 163/163/163 161/161/161 164/164/164
f 162/162/162 165/165/165 164/164/164
f 165/165/165 163/163/163 164/164/164
f 166/166/166 165/165/165 162/162/162
f 166/166/166 167/167/167 165/165/165
f 165/165/165 168/168/168 163/163/163
f 169/169/169 160/160/160 163/163/163
f 170/170/170 160/160/160 169/169/169
f 163/163/163 168/168/168 171/171/171
f 169/169/169 163/163/163 171/171/171
f 171/171/171 168/168/168 172/172/172
f 173/173/173 169/169/169 171/171/171
f 172/172/172 174/174/174 171/171/171
f 173/173/173 171/171/171 174/174/174
f 172/172/172 175/175/175 174/174/174
f 174/174/174 176/176/176 173/173/173
f 174/174/174 175/175/175 176/176/176
f 177/177/177 179/179/179 178/178/178
f 179/179/179 177/177/177 180/180/180
f 179/179/179 180/180/180 181/181/181
f 177/177/177 182/182/182 180/180/180
f 179/179/179 181/181/181 183/183/183
f 181/181/181 184/184/184 183/183/183
f 181/181/181 185/185/185 184/184/184
f 181/181/181 180/180/180 186/186/186
f 187/187/187 186/186/186 180/180/180
f 188/188/188 186/186/186 187/187/187
f 188/188/188 189/189/189 186/186/186
f 181/181/181 186/186/186 189/189/189
f 190/190/190 181/181/181 189/189/189
f 190/190/190 185/185/185 181/181/181
f 185/185/185 190/190/190 191/191/191
f 191/191/191 190/190/190 192/192/192
f 193/193/193 195/195/195 194/194/194
f 193/193/193 196/196/196 195/195/195
f 197/197/197 196/196/196 193/193/193
f 197/197/197 198/198/198 196/196/196
f 199/199/199 201/201/201 200/200/200
f 201/201/201 199/199/199 202/202/202
f 203/203/203 201/201/201 202/202/202
f 202/202/202 204/204/204 203/203/203
f 202/202/202 199/199/199 205/205/205
f 199/199/199 206/206/206 205/205/205
f 206/206/206 207/207/207 205/205/205
f 205/205/205 207/207/207 208/208/208
f 202/202/202 209/209/209 204/204/204
f 209/209/209 202/202/202 205/205/205
f 209/209/209 205/205/205 208/208/208
f 210/210/210 204/204/204 209/209/209
f 211/211/211 209/209/209 208/208/208
f 212/212/212 214/214/214 213/213/213
f 213/213/213 215/215/215 212/212/212
f 215/215/215 216/216/216 212/212/212
f 217/217/217 216/216/216 215/215/215
f 215/215/215 213/213/213 218/218/218
f 219/219/219 218/218/218 213/213/213
f 213/213/213 220/220/220 219/219/219
f 219/219/219 220/220/220 221/221/221
f 221/221/221 220/220/220 222/222/222
f 223/223/223 225/225/225 224/224/224
f 224/224/224 225/225/225 226/226/226
f 226/226/226 225/225/225 227/227/227
f 226/226/226 227/227/227 228/228/228
f 227/227/227 225/225/225 229/229/229
f 228/228/228 227/227/227 230/230/230
f 230/230/230 227/227/227 231/231/231
f 232/232/232 227/227/227 229/229/229
f 227/227/227 232/232/232 231/231/231
f 233/233/233 231/231/231 232/232/232
f 232/232/232 234/234/234 233/233/233
f 235/235/235 237/237/237 236/236/236
f 236/236/236 237/237/237 238/238/238
f 238/238/238 239/239/239 236/236/236
f 238/238/238 240/240/240 239/239/239
f 239/239/239 240/240/240 241/241/241
f 242/242/242 239/239/239 241/241/241
f 236/236/236 239/239/239 242/242/242
f 236/236/236 242/242/242 243/243/243
f 244/244/244 236/236/236 243/243/243
f 245/245/245 244/244/244 243/243/243
f 245/245/245 243/243/243 242/242/242
f 245/245/245 242/242/242 246/246/246
f 245/245/245 246/246/246 247/247/247
f 248/248/248 250/250/250 249/249/249
f 248/248/248 249/249/249 251/251/251
f 251/251/251 249/249/249 252/252/252
f 253/253/253 251/251/251 252/252/252
f 253/253/253 254/254/254 251/251/251
f 251/251/251 254/254/254 255/255/255
f 255/255/255 254/254/254 256/256/256
f 256/256/256 254/254/254 257/257/257
f 258/258/258 254/254/254 253/253/253
f 258/258/258 257/257/257 254/254/254
f 253/253/253 259/259/259 258/258/258
f 260/260/260 257/257/257 258/258/258
f 261/261/261 258/258/258 259/259/259
f 260/260/260 258/258/258 261/261/261
f 262/262/262 264/264/264 263/263/263
f 265/265/265 263/263/263 264/264/264
f 266/266/266 268/268/268 267/267/267
f 267/267/267 268/268/268 269/269/269
f 268/268/268 270/270/270 269/269/269
f 271/271/271 267/267/267 269/269/269
f 272/272/272 267/267/267 271/271/271
f 272/272/272 271/271/271 273/273/273
f 274/274/274 272/272/272 273/273/273
f 275/275/275 273/273/273 271/271/271
f 271/271/271 269/269/269 276/276/276
f 276/276/276 269/269/269 270/270/270
f 277/277/277 276/276/276 270/270/270
f 276/276/276 277/277/277 278/278/278
f 279/279/279 278/278/278 277/277/277
f 277/277/277 280/280/280 279/279/279
f 270/270/270 281/281/281 277/277/277
f 282/282/282 280/280/280 277/277/277
f 277/277/277 281/281/281 282/282/282
f 283/283/283 282/282/282 281/281/281
f 284/284/284 286/286/286 285/285/285
f 287/287/287 285/285/285 286/286/286
f 288/288/288 285/285/285 287/287/287
f 289/289/289 285/285/285 288/288/288
f 290/290/290 285/285/285 289/289/289
f 288/288/288 291/291/291 289/289/289
f 291/291/291 292/292/292 289/289/289
f 293/293/293 295/295/295 294/294/294
f 294/294/294 295/295/295 296/296/296
f 296/296/296 295/295/295 297/297/297
f 296/296/296 297/297/297 298/298/298
f 297/297/297 295/295/295 299/299/299
f 298/298/298 297/297/297 300/300/300
f 300/300/300 297/297/297 301/301/301
f 302/302/302 297/297/297 299/299/299
f 297/297/297 302/302/302 301/301/301
f 303/303/303 301/301/301 302/302/302
f 302/302/302 304/304/304 303/303/303
f 303/303/303 304/304/304 305/305/305
f 305/305/305 304/304/304 306/306/306
f 306/306/306 307/307/307 305/305/305
f 308/308/308 310/310/310 309/309/309
f 310/310/310 308/308/308 311/311/311
f 312/312/312 310/310/310 311/311/311
f 313/313/313 312/312/312 311/311/311
f 313/313/313 311/311/311 314/314/314
f 315/315/315 314/314/314 311/311/311
f 315/315/315 311/311/311 316/316/316
f 316/316/316 311/311/311 317/317/317
f 311/311/311 318/318/318 317/317/317
f 319/319/319 318/318/318 311/311/311
f 311/311/311 308/308/308 319/319/319
f 318/318/318 319/319/319 320/320/320
f 321/321/321 320/320/320 319/319/319
f 322/322/322 321/321/321 319/319/319
f 322/322/322 319/319/319 323/323/323
f 324/324/324 323/323/323 319/319/319
f 325/325/325 324/324/324 319/319/319
f 319/319/319 308/308/308 325/325/325
f 308/308/308 326/326/326 325/325/325
f 308/308/308 327/327/327 326/326/326
f 328/328/328 330/330/330 329/329/329
f 329/329/329 330/330/330 331/331/331
f 332/332/332 329/329/329 331/331/331
f 332/332/332 331/331/331 333/333/333
f 331/331/331 330/330/330 334/334/334
f 331/331/331 334/334/334 335/335/335
f 331/331/331 335/335/335 336/336/336
f 337/337/337 339/339/339 338/338/338
f 340/340/340 337/337/337 338/338/338
f 338/338/338 341/341/341 340/340/340
f 341/341/341 342/342/342 340/340/340
f 340/340/340 342/342/342 343/343/343
f 342/342/342 344/344/344 343/343/343
f 344/344/344 345/345/345 343/343/343
f 343/343/343 345/345/345 346/346/346
f 347/347/347 340/340/340 343/343/343
f 347/347/347 343/343/343 346/346/346
f 340/340/340 347/347/347 337/337/337
f 348/348/348 347/347/347 346/346/346
f 348/348/348 349/349/349 347/347/347
f 350/350/350 337/337/337 347/347/347
f 350/350/350 347/347/347 349/349/349
f 350/350/350 351/351/351 337/337/337
f 349/349/349 352/352/352 350/350/350
f 350/350/350 352/352/352 351/351/351
f 353/353/353 355/355/355 354/354/354
f 353/353/353 356/356/356 355/355/355
f 354/354/354 355/355/355 357/357/357
f 358/358/358 355/355/355 356/356/356
f 358/358/358 359/359/359 355/355/355
f 359/359/359 360/360/360 355/355/355
f 355/355/355 361/361/361 357/357/357
f 362/362/362 361/361/361 355/355/355
f 361/361/361 362/362/362 363/363/363
f 360/360/360 364/364/364 355/355/355
f 355/355/355 364/364/364 362/362/362
f 362/362/362 364/364/364 365/365/365
f 365/365/365 366/366/366 362/362/362
f 366/366/366 367/367/367 362/362/362
f 368/368/368 362/362/362 367/367/367
f 369/369/369 363/363/363 362/362/362
f 368/368/368 369/369/369 362/362/362
f 363/363/363 369/369/369 370/370/370
f 369/369/369 368/368/368 370/370/370
