mtllib P_RockHexic_Rocks02.mtl
v 1.93876 0.431049 3.391719 0 0 0
v 2.266105 0.1354344 3.307837 0 0 0
v 2.048887 0.3260389 3.425103 0 0 0
v 3.23532 0.2165322 1.629106 0 0 0
v 2.266105 0.1354344 3.307837 0 0 0
v 3.044215 0.3716792 1.53299 0 0 0
v 3.044215 0.3716792 1.53299 0 0 0
v 2.266105 0.1354344 3.307837 0 0 0
v 1.93876 0.431049 3.391719 0 0 0
v -0.8057013 -7.190692 1.748224 0 0 0
v -2.690299 -7.190692 1.748224 0 0 0
v -2.690299 5.837408 1.748224 0 0.6235294 0
v -0.8057013 5.895126 1.748224 0 0.9529412 0
v 0.1365976 5.895126 0.1161146 0 0.854902 0
v 0.1365976 -7.190692 0.1161146 0 0 0
v -2.690299 5.818374 -1.515995 0 0.6745098 0
v -2.690299 -7.190692 -1.515995 0 0 0
v -0.8057013 -7.190692 -1.515995 0 0 0
v -0.8057013 5.837408 -1.515995 0 0.9294118 0
v 0.1365976 -7.190692 0.1161146 0 0 0
v 0.1365976 5.895126 0.1161146 0 0.854902 0
v 2.845675 6.259419 -1.484079 0 0.6588235 0
v 2.845675 -5.396976 -1.484079 0 0.372549 0
v 1.824667 -5.396976 0.2843576 0 0.682353 0
v 1.824667 6.259419 0.2843576 0 0.6509804 0
v -0.2173471 -5.396976 0.2843576 0 0.8823529 0
v -0.2173471 6.259419 0.2843576 0 0.9529412 0
v 0.04610634 0.9318625 -0.183754 0 0 0
v 0.06973743 0.8672012 -0.1657397 0 0 0
v 2.041579 0.6300428 -0.1267597 0 0 0
v 0.05775261 0.7896283 -0.2054634 0 0 0
v -0.2173471 6.259419 -3.252515 0 0 0
v -0.2173471 -5.396976 -3.252515 0 0.8745098 0
v 1.824667 -5.396976 -3.252515 0 0.5647059 0
v 1.824667 6.259419 -3.252515 0 0 0
v 2.845675 -5.396976 -1.484079 0 0.372549 0
v 2.845675 6.259419 -1.484079 0 0.6588235 0
v 3.044215 0.3716792 1.53299 0 0 0
v 2.041579 0.6300428 -0.1267597 0 0 0
v 2.176131 0.5816413 -0.2054634 0 0 0
v 0.05775261 0.7896283 -0.2054634 0 0 0
v 2.16585 -4.149865 -0.2047764 0 0.7019608 0
v 3.225055 -4.129032 1.629792 0 0 0
v 3.23532 0.2165322 1.629106 0 0 0
v 2.176131 0.5816413 -0.2054634 0 0 0
v 3.044215 0.3716792 1.53299 0 0 0
v 0.0474596 -4.160874 -0.2047756 0 0.5686275 0
v 0.05775261 0.7896283 -0.2054634 0 0 0
v 1.93876 0.431049 3.391719 0 0 0
v 0.09473133 0.5498706 3.450552 0 0 0
v 0.08917141 0.6334962 3.431247 0 0 0
v 1.99856 0.2341552 3.462557 0 0 0
v 2.048887 0.3260389 3.425103 0 0 0
v 2.266105 0.1354344 3.307837 0 0 0
v 2.175704 -0.04020247 3.463705 0 0 0
v 0.04839325 -4.149863 3.464036 0 0.1254902 0
v 3.23532 0.2165322 1.629106 0 0 0
v 2.165862 -4.129034 3.464362 0 0.6588235 0
v 3.225055 -4.129032 1.629792 0 0 0
v 1.93876 0.431049 3.391719 0 0 0
v 0.08917141 0.6334962 3.431247 0 0 0
v 0.1013813 0.6928793 3.483079 0 0 0
v 2.178618 0.474617 3.44827 0 0 0
v 3.044215 0.3716792 1.53299 0 0 0
v 3.244307 0.4028555 1.595326 0 0 0
v 2.160313 0.6876966 -0.2197425 0 0 0
v 2.041579 0.6300428 -0.1267597 0 0 0
v 0.04610634 0.9318625 -0.183754 0 0 0
v -0.8057013 5.895126 1.748224 0 0.9529412 0
v -2.690299 5.837408 1.748224 0 0.6235294 0
v -2.621023 5.957429 1.628235 0 0.7647059 0
v -0.8749027 6.010907 1.628235 0 0.9607843 0
v 0.1365976 5.895126 0.1161146 0 0.854902 0
v -0.001916885 6.010907 0.1161789 0 0.8784314 0
v -0.8749771 5.957429 -1.396005 0 0.9568627 0
v -0.8057013 5.837408 -1.515995 0 0.9294118 0
v -3.494044 5.939794 0.1161166 0 0.8078431 0
v -2.62102 5.939794 -1.396005 0 0.7803922 0
v -2.690299 5.818374 -1.515995 0 0.6745098 0
v -3.632598 5.818374 0.1161146 0 0.7764706 0
v -2.690299 -7.190692 1.748224 0 0 0
v -2.621017 -7.310692 1.628224 0 0 0
v -3.494034 -7.310692 0.1161146 0 0 0
v -3.632598 -7.190692 0.1161146 0 0 0
v -3.632598 5.818374 0.1161146 0 0.7764706 0
v -2.690299 -7.190692 -1.515995 0 0 0
v -2.690299 5.818374 -1.515995 0 0.6745098 0
v -2.690299 5.837408 1.748224 0 0.6235294 0
v -3.494044 5.939794 0.1161166 0 0.8078431 0
v -2.621023 5.957429 1.628235 0 0.7647059 0
v -2.690299 -7.190692 -1.515995 0 0 0
v -3.632598 -7.190692 0.1161146 0 0 0
v -3.494034 -7.310692 0.1161146 0 0 0
v -2.621017 -7.310692 -1.395995 0 0 0
v -0.8057013 -7.190692 -1.515995 0 0 0
v -2.621017 -7.310692 1.628224 0 0 0
v -0.8749828 -7.310692 -1.395995 0 0 0
v 0.1365976 -7.190692 0.1161146 0 0 0
v -0.001966476 -7.310692 0.1161146 0 0 0
v -0.8749828 -7.310692 1.628224 0 0 0
v -0.8057013 -7.190692 1.748224 0 0 0
v -2.690299 -7.190692 1.748224 0 0 0
v 1.824667 6.259419 0.2843576 0 0.6509804 0
v -0.2173471 6.259419 0.2843576 0 0.9529412 0
v -0.1480656 6.379419 0.1643576 0 0.8980392 0
v 1.755385 6.379419 0.1643576 0 0.6392157 0
v 2.845675 6.259419 -1.484079 0 0.6588235 0
v 2.70711 6.379419 -1.484079 0 0.6588235 0
v 1.755385 6.379419 -3.132515 0 0 0
v 1.824667 6.259419 -3.252515 0 0 0
v -0.2173471 6.259419 -3.252515 0 0 0
v -0.1480656 6.379419 -3.132515 0 0 0
v -1.099791 6.379419 -1.484079 0 0.9490196 0
v -1.238355 6.259419 -1.484079 0 0.9647059 0
v -1.238355 6.259419 -1.484079 0 0.9647059 0
v -1.099791 6.379419 -1.484079 0 0.9490196 0
v -0.1480656 6.379419 0.1643576 0 0.8980392 0
v -0.2173471 6.259419 0.2843576 0 0.9529412 0
v -1.238355 -5.396976 -1.484079 0 0 0
v -0.2173471 -5.396976 0.2843576 0 0.8823529 0
v -0.1480656 -5.516975 0.1643576 0 0.9137255 0
v -1.099791 -5.516975 -1.484079 0 0.2941177 0
v -0.2173471 -5.396976 -3.252515 0 0.8745098 0
v -0.2173471 6.259419 -3.252515 0 0 0
v 0.04610634 0.9318625 -0.183754 0 0 0
v 2.22996 4.726834 -0.186669 0 0 0
v 0.1121721 4.763208 -0.152382 0 0.7882353 0
v 2.160313 0.6876966 -0.2197425 0 0 0
v 3.315548 4.556726 1.629156 0 0.6588235 0
v 3.244307 0.4028555 1.595326 0 0 0
v 3.220014 4.695786 1.466912 0 0.6588235 0
v 2.165955 4.845824 -0.06690098 0 0.1254902 0
v 3.252133 4.705919 1.748951 0 0.6588235 0
v 3.178749 4.814178 1.623595 0 0.6588235 0
v 2.178618 0.474617 3.44827 0 0 0
v 3.315548 4.556726 1.629156 0 0.6588235 0
v 3.244307 0.4028555 1.595326 0 0 0
v 2.286439 4.572029 3.480736 0 0.8156863 0
v 0.1013813 0.6928793 3.483079 0 0 0
v 3.252133 4.705919 1.748951 0 0.6588235 0
v 0.1710424 4.732758 3.516159 0 0.8745098 0
v 2.338595 4.729975 3.391874 0 0.8196079 0
v 2.144724 4.69941 3.484288 0 0.854902 0
v -1.01173 -4.160872 1.629794 0 0.4509804 0
v 0.1164913 -4.269868 3.344382 0 0.2156863 0
v -0.8734179 -4.280159 1.62981 0 0.5686275 0
v 0.04839325 -4.149863 3.464036 0 0.1254902 0
v 0.09473133 0.5498706 3.450552 0 0 0
v -1.001437 0.7896284 1.629106 0 0.6941177 0
v 0.0474596 -4.160874 -0.2047756 0 0.5686275 0
v 0.05775261 0.7896283 -0.2054634 0 0 0
v 0.06973743 0.8672012 -0.1657397 0 0 0
v 0.08917141 0.6334962 3.431247 0 0 0
v -0.9669237 0.8672014 1.629811 0 0.6941177 0
v 0.04610634 0.9318625 -0.183754 0 0 0
v -0.9833593 0.9344543 1.667657 0 0.7019608 0
v 0.1013813 0.6928793 3.483079 0 0 0
v 0.1121721 4.763208 -0.152382 0 0.7882353 0
v 0.1710424 4.732758 3.516159 0 0.8745098 0
v -0.9172897 4.76604 1.699031 0 0.8980392 0
v -1.238355 -5.396976 -1.484079 0 0 0
v -1.099791 -5.516975 -1.484079 0 0.2941177 0
v -0.1480656 -5.516975 -3.132515 0 0.9098039 0
v -0.2173471 -5.396976 -3.252515 0 0.8745098 0
v 1.824667 -5.396976 -3.252515 0 0.5647059 0
v -0.1480656 -5.516975 0.1643576 0 0.9137255 0
v 1.755385 -5.516975 -3.132515 0 0.6627451 0
v 2.845675 -5.396976 -1.484079 0 0.372549 0
v 1.755385 -5.516975 0.1643576 0 0.6666667 0
v -0.2173471 -5.396976 0.2843576 0 0.8823529 0
v 1.824667 -5.396976 0.2843576 0 0.682353 0
v 2.70711 -5.516975 -1.484079 0 0.5686275 0
v -1.01173 -4.160872 1.629794 0 0.4509804 0
v -0.8734179 -4.280159 1.62981 0 0.5686275 0
v 0.1164904 -4.280159 -0.08476017 0 0.7254902 0
v 0.0474596 -4.160874 -0.2047756 0 0.5686275 0
v 2.096307 -4.269868 -0.08476019 0 0.7490196 0
v 2.16585 -4.149865 -0.2047764 0 0.7019608 0
v 0.1164913 -4.269868 3.344382 0 0.2156863 0
v 3.086219 -4.250397 1.629817 0 0.09019608 0
v 3.225055 -4.129032 1.629792 0 0 0
v 2.165862 -4.129034 3.464362 0 0.6588235 0
v 2.096314 -4.250397 3.344382 0 0.6588235 0
v 0.04839325 -4.149863 3.464036 0 0.1254902 0
v 2.22996 4.726834 -0.186669 0 0 0
v 2.165955 4.845824 -0.06690098 0 0.1254902 0
v 0.1866398 4.879691 -0.03476904 0 0.827451 0
v 0.1121721 4.763208 -0.152382 0 0.7882353 0
v -0.7767248 4.882116 1.697763 0 0.9058824 0
v -0.9172897 4.76604 1.699031 0 0.8980392 0
v 0.1710424 4.732758 3.516159 0 0.8745098 0
v 0.2404137 4.850672 3.396029 0 0.9058824 0
v 1.987538 4.821537 3.368008 0 0.9137255 0
v 3.178749 4.814178 1.623595 0 0.6588235 0
v 2.144724 4.69941 3.484288 0 0.854902 0
v 2.330092 4.816429 3.232151 0 0.8352941 0
v 3.252133 4.705919 1.748951 0 0.6588235 0
v 2.338595 4.729975 3.391874 0 0.8196079 0
vn 0.2115318 -0.2483303 0.945297
vn 0.7665141 0.3362703 0.5471548
vn 0.5311659 0.5351185 0.6568949
vn 0.920069 0.3887701 0.04827812
vn 0.7665141 0.3362703 0.5471548
vn 0.944764 -0.2862862 -0.1595657
vn 0.944764 -0.2862862 -0.1595657
vn 0.7665141 0.3362703 0.5471548
vn 0.2115318 -0.2483303 0.945297
vn 0.4640327 -0.3724202 0.8037269
vn -0.4640314 -0.3724217 0.8037269
vn -0.4690795 0.3703095 0.8017701
vn 0.4584444 0.3819875 0.8024427
vn 0.9241582 0.3819869 -0.004196584
vn 0.9280634 -0.3724223 0
vn -0.4658171 0.3692276 -0.8041676
vn -0.4640314 -0.3724217 -0.8037269
vn 0.4640326 -0.3724203 -0.8037269
vn 0.4598132 0.3703095 -0.80712
vn 0.9280634 -0.3724223 0
vn 0.9241582 0.3819869 -0.004196584
vn 0.9280642 0.3724203 0
vn 0.9280638 -0.3724212 0
vn 0.464031 -0.3724213 0.8037274
vn 0.4640306 0.3724214 0.8037274
vn -0.464031 -0.3724212 0.8037274
vn -0.4640306 0.3724215 0.8037274
vn -0.5204836 -0.1807576 -0.8345199
vn -0.4775056 0.03151937 -0.8780631
vn 0.2730539 0.1122433 -0.9554282
vn -0.4604834 0.2364926 -0.8555854
vn -0.4640319 0.3724203 -0.8037273
vn -0.4640315 -0.3724208 -0.8037273
vn 0.4640314 -0.3724206 -0.8037274
vn 0.4640319 0.3724205 -0.8037271
vn 0.9280638 -0.3724212 0
vn 0.9280642 0.3724203 0
vn 0.944764 -0.2862862 -0.1595657
vn 0.2730539 0.1122433 -0.9554282
vn 0.474052 0.5299063 -0.7031886
vn -0.4604834 0.2364926 -0.8555854
vn 0.4652658 -0.3736472 -0.8024433
vn 0.9287121 -0.3707994 0.001308825
vn 0.920069 0.3887701 0.04827812
vn 0.474052 0.5299063 -0.7031886
vn 0.944764 -0.2862862 -0.1595657
vn -0.4634525 -0.3734757 -0.8035719
vn -0.4604834 0.2364926 -0.8555854
vn 0.2115318 -0.2483303 0.945297
vn -0.4580192 0.09688358 0.883647
vn -0.5979313 -0.1818917 0.7806367
vn 0.2004458 0.1739626 0.9641361
vn 0.5311659 0.5351185 0.6568949
vn 0.7665141 0.3362703 0.5471548
vn 0.5010723 0.08002134 0.8616978
vn -0.4641943 -0.368802 0.8053005
vn 0.920069 0.3887701 0.04827812
vn 0.4653016 -0.3699916 0.8041148
vn 0.9287121 -0.3707994 0.001308825
vn 0.2115318 -0.2483303 0.945297
vn -0.5979313 -0.1818917 0.7806367
vn -0.4480326 -0.2686478 0.8526987
vn 0.4302474 -0.5450665 0.719576
vn 0.944764 -0.2862862 -0.1595657
vn 0.810844 -0.5850593 -0.01541092
vn 0.4050332 -0.4704638 -0.7839719
vn 0.2730539 0.1122433 -0.9554282
vn -0.5204836 -0.1807576 -0.8345199
vn 0.4584444 0.3819875 0.8024427
vn -0.4690795 0.3703095 0.8017701
vn -0.2370721 0.8961942 0.3750105
vn 0.1992989 0.9066224 0.3719085
vn 0.9241582 0.3819869 -0.004196584
vn 0.4217329 0.9066217 -0.01335613
vn 0.2062322 0.8961943 -0.3928157
vn 0.4598132 0.3703095 -0.80712
vn -0.4490443 0.8934988 -0.004376088
vn -0.2283092 0.8934998 -0.3866951
vn -0.4658171 0.3692276 -0.8041676
vn -0.9293387 0.3692259 -0.001326867
vn -0.4640314 -0.3724217 0.8037269
vn -0.2211336 -0.8968819 0.3830179
vn -0.4422725 -0.8968807 0
vn -0.9280644 -0.3724199 0
vn -0.9293387 0.3692259 -0.001326867
vn -0.4640314 -0.3724217 -0.8037269
vn -0.4658171 0.3692276 -0.8041676
vn -0.4690795 0.3703095 0.8017701
vn -0.4490443 0.8934988 -0.004376088
vn -0.2370721 0.8961942 0.3750105
vn -0.4640314 -0.3724217 -0.8037269
vn -0.9280644 -0.3724199 0
vn -0.4422725 -0.8968807 0
vn -0.2211336 -0.8968819 -0.3830179
vn 0.4640326 -0.3724203 -0.8037269
vn -0.2211336 -0.8968819 0.3830179
vn 0.2211374 -0.8968811 -0.3830177
vn 0.9280634 -0.3724223 0
vn 0.4422688 -0.8968825 0
vn 0.2211373 -0.8968811 0.3830178
vn 0.4640327 -0.3724202 0.8037269
vn -0.4640314 -0.3724217 0.8037269
vn 0.4640306 0.3724214 0.8037274
vn -0.4640306 0.3724215 0.8037274
vn -0.2211345 0.8968816 0.3830181
vn 0.2211345 0.8968816 0.3830182
vn 0.9280642 0.3724203 0
vn 0.4422724 0.8968808 0
vn 0.2211363 0.8968812 -0.3830182
vn 0.4640319 0.3724205 -0.8037271
vn -0.4640319 0.3724203 -0.8037273
vn -0.2211363 0.896881 -0.3830185
vn -0.4422723 0.8968808 0
vn -0.9280642 0.3724203 0
vn -0.9280642 0.3724203 0
vn -0.4422723 0.8968808 0
vn -0.2211345 0.8968816 0.3830181
vn -0.4640306 0.3724215 0.8037274
vn -0.9280638 -0.3724211 0
vn -0.464031 -0.3724212 0.8037274
vn -0.2211349 -0.8968816 0.3830181
vn -0.4422709 -0.8968815 0
vn -0.4640315 -0.3724208 -0.8037273
vn -0.4640319 0.3724203 -0.8037273
vn -0.5204836 -0.1807576 -0.8345199
vn 0.4578086 0.3694679 -0.8086438
vn -0.4710865 0.3874156 -0.7924561
vn 0.4050332 -0.4704638 -0.7839719
vn 0.9935731 0.1109767 -0.02228733
vn 0.810844 -0.5850593 -0.01541092
vn 0.8389693 0.3766501 -0.3927661
vn 0.2317072 0.8948901 -0.3814231
vn 0.8658119 0.4129055 0.2826286
vn 0.5327358 0.8455474 -0.03524469
vn 0.4302474 -0.5450665 0.719576
vn 0.9935731 0.1109767 -0.02228733
vn 0.810844 -0.5850593 -0.01541092
vn 0.5086464 0.06949932 0.8581659
vn -0.4480326 -0.2686478 0.8526987
vn 0.8658119 0.4129055 0.2826286
vn -0.4440294 0.3763551 0.8131388
vn 0.5798188 0.5251106 0.6229519
vn 0.1374705 0.4529941 0.8808509
vn -0.9285445 -0.3712142 0.002307164
vn -0.2169885 -0.8961518 0.3870761
vn -0.4392966 -0.8983392 0.002281406
vn -0.4641943 -0.368802 0.8053005
vn -0.4580192 0.09688358 0.883647
vn -0.9795417 0.2007762 0.01367153
vn -0.4634525 -0.3734757 -0.8035719
vn -0.4604834 0.2364926 -0.8555854
vn -0.4775056 0.03151937 -0.8780631
vn -0.5979313 -0.1818917 0.7806367
vn -0.9885241 0.1307018 -0.07574391
vn -0.5204836 -0.1807576 -0.8345199
vn -0.9899538 -0.1254106 0.06529777
vn -0.4480326 -0.2686478 0.8526987
vn -0.4710865 0.3874156 -0.7924561
vn -0.4440294 0.3763551 0.8131388
vn -0.9203943 0.3905754 0.01803333
vn -0.9280638 -0.3724211 0
vn -0.4422709 -0.8968815 0
vn -0.2211356 -0.8968813 -0.3830182
vn -0.4640315 -0.3724208 -0.8037273
vn 0.4640314 -0.3724206 -0.8037274
vn -0.2211349 -0.8968816 0.3830181
vn 0.2211356 -0.8968812 -0.3830186
vn 0.9280638 -0.3724212 0
vn 0.221135 -0.8968816 0.383018
vn -0.464031 -0.3724212 0.8037274
vn 0.464031 -0.3724213 0.8037274
vn 0.442271 -0.8968815 0
vn -0.9285445 -0.3712142 0.002307164
vn -0.4392966 -0.8983392 0.002281406
vn -0.2177863 -0.898474 -0.3812003
vn -0.4634525 -0.3734757 -0.8035719
vn 0.2263093 -0.897111 -0.3794416
vn 0.4652658 -0.3736472 -0.8024433
vn -0.2169885 -0.8961518 0.3870761
vn 0.4482882 -0.8938788 0.004294398
vn 0.9287121 -0.3707994 0.001308825
vn 0.4653016 -0.3699916 0.8041148
vn 0.2277043 -0.8937281 0.3865241
vn -0.4641943 -0.368802 0.8053005
vn 0.4578086 0.3694679 -0.8086438
vn 0.2317072 0.8948901 -0.3814231
vn -0.2092516 0.9039021 -0.3730614
vn -0.4710865 0.3874156 -0.7924561
vn -0.4232486 0.9058995 0.01438003
vn -0.9203943 0.3905754 0.01803333
vn -0.4440294 0.3763551 0.8131388
vn -0.1975917 0.899321 0.3901016
vn 0.0608841 0.9180605 0.3917373
vn 0.5327358 0.8455474 -0.03524469
vn 0.1374705 0.4529941 0.8808509
vn 0.3116702 0.9129546 0.2633925
vn 0.8658119 0.4129055 0.2826286
vn 0.5798188 0.5251106 0.6229519
vt 0.5782424 0.5833653
vt 0.5811752 0.5833653
vt 0.5791049 0.5828593
vt 0.887585 0.9831259
vt 0.887585 0.9667428
vt 0.8857428 0.983005
vt 0.8934937 0.9667428
vt 0.8909265 0.9796771
vt 0.8934937 0.9824277
vt 0.2962373 0.6977982
vt 0.3102732 0.6972795
vt 0.3102732 0.5873479
vt 0.2962373 0.5873796
vt 0.2826767 0.5868044
vt 0.2826767 0.697223
vt 0.3136146 0.5875072
vt 0.3136146 0.6975369
vt 0.3216591 0.6974829
vt 0.3216591 0.5872922
vt 0.3375987 0.6974833
vt 0.3375987 0.5868043
vt 0.6109062 0.4663203
vt 0.7092633 0.4663203
vt 0.7098866 0.4516271
vt 0.6115295 0.4516271
vt 0.7093245 0.4364188
vt 0.6109675 0.4364188
vt 0.90234 0.9667428
vt 0.9018762 0.9671137
vt 0.90234 0.976019
vt 0.9011528 0.9669616
vt 0.6109648 0.6795282
vt 0.7095538 0.6795282
vt 0.7094952 0.6708118
vt 0.6109062 0.6708118
vt 0.7094956 0.6535407
vt 0.6109066 0.6535407
vt 0.587015 0.5661402
vt 0.5725796 0.5739986
vt 0.573241 0.5751513
vt 0.5577008 0.5661402
vt 0.9216342 0.3759438
vt 0.9214584 0.3580267
vt 0.8847036 0.3579879
vt 0.8816151 0.3759049
vt 0.8833952 0.3595055
vt 0.921788 0.3849862
vt 0.8799167 0.3849472
vt 0.8819734 0.4813014
vt 0.880634 0.4673176
vt 0.8799167 0.4673464
vt 0.8836858 0.4814801
vt 0.8828999 0.4819972
vt 0.884487 0.4841011
vt 0.8860368 0.4828185
vt 0.9202867 0.4673176
vt 0.8830706 0.4980355
vt 0.9205351 0.4830899
vt 0.9197351 0.4983254
vt 0.1709038 0.9972945
vt 0.1553583 0.9973654
vt 0.1554798 0.9977952
vt 0.1729413 0.9977952
vt 0.180433 0.9817253
vt 0.1821288 0.982272
vt 0.1732992 0.9667427
vt 0.1722618 0.9675238
vt 0.1555359 0.9667438
vt 0.9726552 0.6987844
vt 0.9646993 0.7125698
vt 0.9658558 0.7125981
vt 0.9732272 0.6998255
vt 0.9885934 0.6987844
vt 0.9879929 0.6998255
vt 0.9953886 0.7125981
vt 0.9965755 0.7125698
vt 0.9732465 0.7253785
vt 0.988013 0.7253785
vt 0.9886146 0.7263644
vt 0.9726765 0.7263644
vt 0.2555036 0.6979712
vt 0.2560838 0.6990054
vt 0.2708516 0.699007
vt 0.2714432 0.6979729
vt 0.2714432 0.5879624
vt 0.2793353 0.6982381
vt 0.2793353 0.5882277
vt 0.2555036 0.5877998
vt 0.2708516 0.5869551
vt 0.2560838 0.5868043
vt 0.9726439 0.8191921
vt 0.9885699 0.8191921
vt 0.9880282 0.8182097
vt 0.9732731 0.8182097
vt 0.9646991 0.8053946
vt 0.9954225 0.8054267
vt 0.9659125 0.8054267
vt 0.9726803 0.7915971
vt 0.9733068 0.7926436
vt 0.9880618 0.7926436
vt 0.9886063 0.7915971
vt 0.9965511 0.8053946
vt 0.165101 0.9373423
vt 0.1501493 0.9287138
vt 0.1501211 0.9298704
vt 0.1640582 0.9379134
vt 0.165101 0.9546117
vt 0.1640582 0.954011
vt 0.1501211 0.9620656
vt 0.1501493 0.9632526
vt 0.1351977 0.9546241
vt 0.1361841 0.9540226
vt 0.1361841 0.937925
vt 0.1351977 0.9373547
vt 0.6119033 0.2166637
vt 0.6109079 0.2172554
vt 0.6109062 0.2333545
vt 0.6119015 0.2339347
vt 0.710475 0.2166637
vt 0.7104731 0.2339347
vt 0.7115074 0.2333545
vt 0.7115091 0.2172554
vt 0.7107623 0.2081124
vt 0.6121907 0.2081124
vt 0.2553988 0.9208957
vt 0.2636744 0.8884566
vt 0.2548815 0.8884892
vt 0.2642198 0.9226207
vt 0.2816038 0.8893263
vt 0.2821676 0.9244607
vt 0.2799748 0.8882012
vt 0.2642436 0.8874354
vt 0.2821676 0.8880497
vt 0.2809106 0.8871735
vt 0.7602576 0.9236156
vt 0.7448943 0.8883778
vt 0.7448943 0.9233937
vt 0.7599742 0.8890824
vt 0.7758937 0.9213963
vt 0.7458605 0.8871736
vt 0.7758917 0.8873415
vt 0.759245 0.8877103
vt 0.7610564 0.8879825
vt 0.01958682 0.8828114
vt 0.002241009 0.8835418
vt 0.01898375 0.8838323
vt 0.001670712 0.8825008
vt 0.002049699 0.842767
vt 0.0200519 0.8409518
vt 0.0284536 0.8832163
vt 0.02891868 0.8413568
vt 0.02858542 0.8406951
vt 0.002222881 0.8420627
vt 0.01990723 0.8402988
vt 0.02882444 0.8401493
vt 0.01970803 0.8397223
vt 0.001798425 0.8415529
vt 0.02870332 0.8077526
vt 0.001670716 0.8073928
vt 0.01958691 0.8073235
vt 0.1684424 0.9545784
vt 0.1694248 0.9540367
vt 0.1694248 0.9379514
vt 0.1684424 0.9373221
vt 0.1833924 0.9287137
vt 0.1833604 0.9620977
vt 0.1833604 0.9299271
vt 0.1983424 0.9373616
vt 0.1972959 0.9540734
vt 0.1833924 0.9632263
vt 0.1983424 0.9546179
vt 0.1972959 0.9379881
vt 0.952327 0.169499
vt 0.9517862 0.1685182
vt 0.9350556 0.1685182
vt 0.9344255 0.169499
vt 0.9267058 0.1540208
vt 0.9254912 0.1539869
vt 0.9601671 0.1540208
vt 0.9350833 0.1395209
vt 0.934455 0.1384722
vt 0.9523566 0.1384722
vt 0.9518139 0.1395209
vt 0.961288 0.1539816
vt 0.9336004 0.3074489
vt 0.9342278 0.3064697
vt 0.9266495 0.2915389
vt 0.9254912 0.2914739
vt 0.9358033 0.2774932
vt 0.9352731 0.2764644
vt 0.9531643 0.2774299
vt 0.9525242 0.2783956
vt 0.959216 0.2915733
vt 0.9508735 0.3073703
vt 0.9607223 0.2923174
vt 0.959553 0.2946719
vt 0.9521149 0.3074489
vt 0.9607925 0.2941246
usemtl MV_RockHexic_Rocks
f 1/1/1 3/3/3 2/2/2
f 4/4/4 6/6/6 5/5/5
f 7/7/7 9/9/9 8/8/8
f 10/10/10 12/12/12 11/11/11
f 10/10/10 13/13/13 12/12/12
f 14/14/14 13/13/13 10/10/10
f 14/14/14 10/10/10 15/15/15
f 16/16/16 18/18/18 17/17/17
f 16/16/16 19/19/19 18/18/18
f 19/19/19 20/20/20 18/18/18
f 19/19/19 21/21/21 20/20/20
f 22/22/22 24/24/24 23/23/23
f 22/22/22 25/25/25 24/24/24
f 25/25/25 26/26/26 24/24/24
f 25/25/25 27/27/27 26/26/26
f 28/28/28 30/30/30 29/29/29
f 30/30/30 31/31/31 29/29/29
f 32/32/32 34/34/34 33/33/33
f 32/32/32 35/35/35 34/34/34
f 35/35/35 36/36/36 34/34/34
f 35/35/35 37/37/37 36/36/36
f 38/38/38 40/40/40 39/39/39
f 39/39/39 40/40/40 41/41/41
f 42/42/42 44/44/44 43/43/43
f 42/42/42 45/45/45 44/44/44
f 46/46/46 44/44/44 45/45/45
f 47/47/47 45/45/45 42/42/42
f 47/47/47 48/48/48 45/45/45
f 49/49/49 51/51/51 50/50/50
f 50/50/50 52/52/52 49/49/49
f 52/52/52 53/53/53 49/49/49
f 52/52/52 54/54/54 53/53/53
f 55/55/55 52/52/52 50/50/50
f 52/52/52 55/55/55 54/54/54
f 55/55/55 50/50/50 56/56/56
f 57/57/57 54/54/54 55/55/55
f 56/56/56 58/58/58 55/55/55
f 59/59/59 57/57/57 55/55/55
f 58/58/58 59/59/59 55/55/55
f 60/60/60 62/62/62 61/61/61
f 60/60/60 63/63/63 62/62/62
f 64/64/64 63/63/63 60/60/60
f 64/64/64 65/65/65 63/63/63
f 66/66/66 65/65/65 64/64/64
f 66/66/66 64/64/64 67/67/67
f 68/68/68 66/66/66 67/67/67
f 69/69/69 71/71/71 70/70/70
f 69/69/69 72/72/72 71/71/71
f 73/73/73 72/72/72 69/69/69
f 71/71/71 72/72/72 74/74/74
f 73/73/73 74/74/74 72/72/72
f 71/71/71 74/74/74 75/75/75
f 73/73/73 75/75/75 74/74/74
f 73/73/73 76/76/76 75/75/75
f 75/75/75 77/77/77 71/71/71
f 76/76/76 78/78/78 75/75/75
f 75/75/75 78/78/78 77/77/77
f 76/76/76 79/79/79 78/78/78
f 79/79/79 77/77/77 78/78/78
f 79/79/79 80/80/80 77/77/77
f 81/81/81 83/83/83 82/82/82
f 81/81/81 84/84/84 83/83/83
f 81/81/81 85/85/85 84/84/84
f 85/85/85 86/86/86 84/84/84
f 85/85/85 87/87/87 86/86/86
f 81/81/81 88/88/88 85/85/85
f 88/88/88 89/89/89 85/85/85
f 88/88/88 90/90/90 89/89/89
f 91/91/91 93/93/93 92/92/92
f 91/91/91 94/94/94 93/93/93
f 95/95/95 94/94/94 91/91/91
f 94/94/94 96/96/96 93/93/93
f 95/95/95 97/97/97 94/94/94
f 94/94/94 97/97/97 96/96/96
f 98/98/98 97/97/97 95/95/95
f 98/98/98 99/99/99 97/97/97
f 96/96/96 97/97/97 99/99/99
f 98/98/98 100/100/100 99/99/99
f 96/96/96 99/99/99 100/100/100
f 98/98/98 101/101/101 100/100/100
f 101/101/101 96/96/96 100/100/100
f 101/101/101 102/102/102 96/96/96
f 103/103/103 105/105/105 104/104/104
f 103/103/103 106/106/106 105/105/105
f 107/107/107 106/106/106 103/103/103
f 107/107/107 108/108/108 106/106/106
f 107/107/107 109/109/109 108/108/108
f 109/109/109 106/106/106 108/108/108
f 109/109/109 105/105/105 106/106/106
f 107/107/107 110/110/110 109/109/109
f 111/111/111 109/109/109 110/110/110
f 105/105/105 109/109/109 112/112/112
f 111/111/111 112/112/112 109/109/109
f 105/105/105 112/112/112 113/113/113
f 114/114/114 112/112/112 111/111/111
f 114/114/114 113/113/113 112/112/112
f 115/115/115 117/117/117 116/116/116
f 115/115/115 118/118/118 117/117/117
f 118/118/118 115/115/115 119/119/119
f 118/118/118 119/119/119 120/120/120
f 119/119/119 121/121/121 120/120/120
f 119/119/119 122/122/122 121/121/121
f 115/115/115 123/123/123 119/119/119
f 115/115/115 124/124/124 123/123/123
f 125/125/125 127/127/127 126/126/126
f 125/125/125 126/126/126 128/128/128
f 128/128/128 126/126/126 129/129/129
f 130/130/130 128/128/128 129/129/129
f 126/126/126 131/131/131 129/129/129
f 132/132/132 131/131/131 126/126/126
f 131/131/131 133/133/133 129/129/129
f 132/132/132 134/134/134 131/131/131
f 131/131/131 134/134/134 133/133/133
f 135/135/135 137/137/137 136/136/136
f 138/138/138 135/135/135 136/136/136
f 139/139/139 135/135/135 138/138/138
f 136/136/136 140/140/140 138/138/138
f 138/138/138 141/141/141 139/139/139
f 140/140/140 142/142/142 138/138/138
f 138/138/138 143/143/143 141/141/141
f 143/143/143 138/138/138 142/142/142
f 144/144/144 146/146/146 145/145/145
f 144/144/144 145/145/145 147/147/147
f 148/148/148 144/144/144 147/147/147
f 148/148/148 149/149/149 144/144/144
f 149/149/149 150/150/150 144/144/144
f 149/149/149 151/151/151 150/150/150
f 152/152/152 151/151/151 149/149/149
f 153/153/153 149/149/149 148/148/148
f 152/152/152 149/149/149 154/154/154
f 153/153/153 154/154/154 149/149/149
f 155/155/155 152/152/152 154/154/154
f 156/156/156 154/154/154 153/153/153
f 155/155/155 154/154/154 156/156/156
f 156/156/156 153/153/153 157/157/157
f 156/156/156 158/158/158 155/155/155
f 159/159/159 156/156/156 157/157/157
f 156/156/156 160/160/160 158/158/158
f 159/159/159 160/160/160 156/156/156
f 161/161/161 163/163/163 162/162/162
f 161/161/161 164/164/164 163/163/163
f 165/165/165 163/163/163 164/164/164
f 163/163/163 166/166/166 162/162/162
f 165/165/165 167/167/167 163/163/163
f 163/163/163 167/167/167 166/166/166
f 168/168/168 167/167/167 165/165/165
f 167/167/167 169/169/169 166/166/166
f 170/170/170 166/166/166 169/169/169
f 170/170/170 169/169/169 171/171/171
f 168/168/168 171/171/171 169/169/169
f 167/167/167 172/172/172 169/169/169
f 168/168/168 169/169/169 172/172/172
f 168/168/168 172/172/172 167/167/167
f 173/173/173 175/175/175 174/174/174
f 173/173/173 176/176/176 175/175/175
f 177/177/177 174/174/174 175/175/175
f 176/176/176 177/177/177 175/175/175
f 176/176/176 178/178/178 177/177/177
f 177/177/177 179/179/179 174/174/174
f 178/178/178 180/180/180 177/177/177
f 179/179/179 177/177/177 180/180/180
f 178/178/178 181/181/181 180/180/180
f 182/182/182 180/180/180 181/181/181
f 179/179/179 180/180/180 183/183/183
f 182/182/182 183/183/183 180/180/180
f 184/184/184 179/179/179 183/183/183
f 184/184/184 183/183/183 182/182/182
f 185/185/185 187/187/187 186/186/186
f 185/185/185 188/188/188 187/187/187
f 188/188/188 189/189/189 187/187/187
f 188/188/188 190/190/190 189/189/189
f 191/191/191 189/189/189 190/190/190
f 192/192/192 187/187/187 189/189/189
f 192/192/192 186/186/186 187/187/187
f 191/191/191 192/192/192 189/189/189
f 186/186/186 192/192/192 193/193/193
f 193/193/193 192/192/192 191/191/191
f 194/194/194 186/186/186 193/193/193
f 193/193/193 191/191/191 195/195/195
f 193/193/193 196/196/196 194/194/194
f 196/196/196 193/193/193 195/195/195
f 197/197/197 194/194/194 196/196/196
f 196/196/196 195/195/195 198/198/198
f 197/197/197 196/196/196 198/198/198
