mtllib P_RockSpire_Spire07.mtl
v 3.356487 70.29022 -14.93667
v 2.83408 73.22285 -14.4834
v 1.935657 75.89458 -15.15149
v 12.27972 76.9002 8.347617
v 10.54538 76.95055 8.382152
v 10.31558 76.90314 8.367155
v 12.3169 76.91634 8.559088
v 12.33882 76.84022 8.566325
v 12.40289 76.61779 8.587478
v 12.62161 76.76956 8.269743
v 15.2309 74.70604 8.516937
v 15.20478 74.7515 8.517076
v 12.3169 76.91634 8.559088
v 12.40289 76.61779 8.587478
v 12.33882 76.84022 8.566325
v -21.21157 32.6929 -1.802988
v -22.99842 31.63404 -2.549156
v -21.38826 32.50322 -5.564234
v -8.628145 7.522185 4.847333
v -9.345117 12.87214 7.373977
v -9.689131 13.27332 6.891144
v -10.80562 26.38131 9.558467
v -9.689131 13.27332 6.891144
v -12.95249 12.67917 8.966348
v -10.80562 26.38131 9.558467
v -8.605036 25.61831 8.588094
v -9.689131 13.27332 6.891144
v 6.892604 37.37176 -15.24988
v -3.430839 35.09124 -14.24096
v -2.652666 32.08758 -17.01239
v 13.55036 23.24143 9.881654
v 8.257133 33.48736 10.56402
v 13.76161 34.40302 8.166895
v 4.873693 -4.233985 -9.913233
v 6.843836 14.96314 -9.126287
v -10.23499 -4.996408 -2.396879
v -3.45409 35.35548 -5.819589
v 6.843836 14.96314 -9.126287
v 5.543935 35.03749 -10.33741
v 4.040182 65.26165 -16.87822
v 4.014353 70.50283 -15.50932
v 3.356487 70.29022 -14.93667
v 2.83408 73.22285 -14.4834
v 3.477757 73.46236 -14.98958
v -1.42572 70.42684 -15.59949
v 1.935657 75.89458 -15.15149
v -6.710426 73.66692 -12.94813
v 2.545292 70.01409 -15.85728
v 3.356487 70.29022 -14.93667
v 4.040182 65.26165 -16.87822
v 3.144789 65.37301 -17.47409
v -0.806711 64.06818 -17.50534
v 2.815813 56.6691 -18.46033
v 0.2633369 55.64264 -18.63549
v 3.703815 57.34946 -17.926
v 1.634124 51.86979 -18.02653
v -1.118864 52.87207 -18.2449
v -4.010709 54.75232 -17.10294
v -4.922132 61.10146 -15.79304
v 7.913572 58.61129 -17.47684
v 4.993972 52.88985 -18.06414
v 9.980373 58.95267 -16.58922
v 7.789244 66.29641 -16.96792
v 4.014353 70.50283 -15.50932
v 6.1502 50.69328 -16.68688
v 1.312796 50.05145 -16.43208
v 7.038259 71.5684 -15.92646
v 3.477757 73.46236 -14.98958
v 6.740634 74.96127 -15.41867
v 10.12082 67.80186 -15.64916
v 16.08958 75.42443 -13.28492
v 17.16034 67.59911 -14.30597
v 16.15673 61.19523 -15.39677
v 18.15321 61.70889 -12.30884
v 16.95904 51.55529 -13.34107
v 16.25073 51.30685 -14.40498
v 13.82564 47.91013 -14.48958
v 6.392514 40.64076 -15.97209
v 12.91272 38.24187 -13.89666
v 3.808318 31.94809 -10.96343
v 1.032674 39.44995 -15.7024
v -4.971807 33.12638 -12.15517
v -5.501917 35.4906 -13.58762
v -4.736403 48.46341 -14.89969
v -2.501432 51.45763 -15.64955
v -4.922132 61.10146 -15.79304
v 0.2633369 55.64264 -18.63549
v -0.806711 64.06818 -17.50534
v -1.42572 70.42684 -15.59949
v -6.977322 67.53644 -13.11178
v -6.710426 73.66692 -12.94813
v -7.9018 71.56874 -8.82966
v -7.897636 75.19968 -9.301604
v -9.275391 75.25493 -7.295905
v -7.639095 66.19202 -8.131469
v -6.301529 62.44579 -8.801151
v -12.57554 66.26815 -3.725399
v -11.51617 72.01992 1.126144
v -14.20818 67.13797 1.074516
v -9.875171 75.30968 -3.144718
v -10.70288 73.50912 9.035431
v -12.25597 59.19929 -3.520441
v -6.243499 52.49157 -9.518143
v -12.24671 69.86034 15.06514
v -8.141423 75.02185 14.91376
v -12.22031 65.79329 15.43662
v -11.66094 54.5062 13.34664
v -12.94232 51.00552 2.526688
v -11.88709 50.06841 12.54101
v -10.9363 44.63009 -3.467254
v -10.12522 35.81861 6.600914
v -9.803377 36.4892 11.59688
v -8.325396 32.81581 -0.7586238
v -8.225961 35.42725 -6.879629
v -7.181997 33.24356 -9.716022
v -7.260587 35.44554 -11.62454
v -4.971807 33.12638 -12.15517
v -5.501917 35.4906 -13.58762
v -6.634412 45.26833 -12.82894
v -4.736403 48.46341 -14.89969
v -4.65011 54.70491 -14.31968
v -2.501432 51.45763 -15.64955
v -4.010709 54.75232 -17.10294
v -1.118864 52.87207 -18.2449
v 1.634124 51.86979 -18.02653
v -1.118864 52.87207 -18.2449
v 1.312796 50.05145 -16.43208
v -2.501432 51.45763 -15.64955
v -7.181997 33.24356 -9.716022
v 3.808318 31.94809 -10.96343
v -4.971807 33.12638 -12.15517
v -8.325396 32.81581 -0.7586238
v 1.607219 30.69412 9.690301
v -4.891998 31.64644 9.376019
v -10.12522 35.81861 6.600914
v -9.803377 36.4892 11.59688
v -6.016253 33.38556 13.15203
v -1.67653 33.73411 15.57949
v 7.395073 33.61071 13.31252
v 6.20013 35.70145 17.03845
v 9.601582 36.07815 7.413976
v 13.64512 38.57919 7.64867
v 13.49109 38.12424 -10.4554
v 12.91272 38.24187 -13.89666
v 15.94025 39.44496 -6.447083
v 15.76732 39.78883 4.141448
v 15.58377 39.32519 -9.316095
v 6.707273 47.76082 17.8737
v 6.20013 35.70145 17.03845
v -1.67653 33.73411 15.57949
v -5.342924 55.79548 16.96796
v 4.640613 57.9507 18.27859
v -6.016253 33.38556 13.15203
v -9.803377 36.4892 11.59688
v -11.88709 50.06841 12.54101
v -11.66094 54.5062 13.34664
v -12.22031 65.79329 15.43662
v 4.907084 75.94593 16.80873
v -12.24671 69.86034 15.06514
v -8.141423 75.02185 14.91376
v 6.707273 47.76082 17.8737
v 7.395073 33.61071 13.31252
v 6.20013 35.70145 17.03845
v 9.601582 36.07815 7.413976
v 10.41952 49.9091 8.357954
v 8.128868 58.55759 16.34544
v 4.640613 57.9507 18.27859
v 4.907084 75.94593 16.80873
v 10.88021 59.44667 10.15202
v 6.943157 76.3318 15.58351
v 10.31558 76.90314 8.367155
v 13.64512 38.57919 7.64867
v 9.601582 36.07815 7.413976
v 10.41952 49.9091 8.357954
v 13.65422 50.62437 8.607833
v 10.88021 59.44667 10.15202
v 14.36575 60.59989 9.492053
v 14.66442 68.50397 9.317527
v 10.31558 76.90314 8.367155
v 12.40289 76.61779 8.587478
v 15.2309 74.70604 8.516937
v 15.20478 74.7515 8.517076
v 12.3169 76.91634 8.559088
v 12.3169 76.91634 8.559088
v 10.54538 76.95055 8.382152
v 17.16034 67.59911 -14.30597
v 17.18096 76.34925 1.22702
v 16.08958 75.42443 -13.28492
v 18.64906 61.69464 -5.209672
v 18.15321 61.70889 -12.30884
v 17.71781 61.65252 5.349992
v 16.86184 50.52083 5.404667
v 16.4837 74.05877 7.726338
v 17.1184 49.90887 -9.317554
v 16.95904 51.55529 -13.34107
v 14.66442 68.50397 9.317527
v 15.2309 74.70604 8.516937
v 14.36575 60.59989 9.492053
v 13.65422 50.62437 8.607833
v 13.64512 38.57919 7.64867
v 15.76732 39.78883 4.141448
v 15.94025 39.44496 -6.447083
v 15.58377 39.32519 -9.316095
v 14.41891 46.98834 -10.93134
v 13.82564 47.91013 -14.48958
v 12.91272 38.24187 -13.89666
v 13.49109 38.12424 -10.4554
v 3.477757 73.46236 -14.98958
v 4.133074 74.78911 -11.64841
v 2.83408 73.22285 -14.4834
v 6.740634 74.96127 -15.41867
v 5.819696 75.94579 -4.712545
v 16.08958 75.42443 -13.28492
v 17.18096 76.34925 1.22702
v 12.27972 76.9002 8.347617
v 10.31558 76.90314 8.367155
v 3.044533 76.47029 1.821552
v 12.62161 76.76956 8.269743
v 16.4837 74.05877 7.726338
v 15.2309 74.70604 8.516937
v -3.995104 76.74625 7.443975
v 6.943157 76.3318 15.58351
v 4.907084 75.94593 16.80873
v -8.141423 75.02185 14.91376
v -10.70288 73.50912 9.035431
v -3.838348 76.20739 2.98779
v -11.51617 72.01992 1.126144
v -9.875171 75.30968 -3.144718
v -0.754374 78.38957 -1.86169
v 2.484431 77.81698 -0.8716591
v 4.650072 77.28973 -5.133316
v 3.180246 77.35758 -11.39304
v -3.478559 78.00848 -1.082842
v -9.275391 75.25493 -7.295905
v -0.2289367 77.58421 -8.60145
v 1.935657 75.89458 -15.15149
v -7.897636 75.19968 -9.301604
v -6.710426 73.66692 -12.94813
v 4.133074 74.78911 -11.64841
v 1.935657 75.89458 -15.15149
v 2.83408 73.22285 -14.4834
v 3.180246 77.35758 -11.39304
v 4.133074 74.78911 -11.64841
v 4.650072 77.28973 -5.133316
v 3.180246 77.35758 -11.39304
v 5.819696 75.94579 -4.712545
v 2.484431 77.81698 -0.8716591
v 3.044533 76.47029 1.821552
v 15.20478 74.7515 8.517076
v 12.3169 76.91634 8.559088
v 12.35477 76.88885 8.48066
v 12.3169 76.91634 8.559088
v 10.54538 76.95055 8.382152
v 17.1184 49.90887 -9.317554
v 14.41891 46.98834 -10.93134
v 15.58377 39.32519 -9.316095
v 13.49109 38.12424 -10.4554
v -1.416488 52.50985 -5.945627
v -5.232869 56.44143 -2.070138
v -3.113787 56.91121 -4.687965
v -9.753278 52.31172 3.831826
v -8.551198 57.71157 -0.2505686
v -14.59213 54.9603 5.102105
v 1.054141 33.60459 -5.99348
v -11.90306 44.30783 7.42742
v -3.830305 25.80792 2.998215
v -8.605036 25.61831 8.588094
v -10.80562 26.38131 9.558467
v -9.689131 13.27332 6.891144
v 0.8939297 22.2229 -4.170876
v 1.077874 26.60426 -6.787952
v 1.241285 19.60276 -5.694984
v 0.3339975 13.85447 -5.605412
v -8.628145 7.522185 4.847333
v -0.6079834 -1.053632 -4.760726
v -4.175735 -4.711175 -0.5639151
v -9.2098 -5.150745 5.495643
v -9.083205 -5.038679 6.243348
v -8.5962 6.93282 5.734487
v -13.04748 -3.639274 9.936335
v -9.345117 12.87214 7.373977
v -12.96563 7.187665 10.31533
v -12.98537 12.27837 9.795397
v -14.59213 54.9603 5.102105
v -20.37873 51.60755 1.160685
v -18.38837 56.38153 2.149115
v -11.90306 44.30783 7.42742
v -21.0598 29.78958 2.044808
v -10.80562 26.38131 9.558467
v -12.95249 12.67917 8.966348
v -19.99235 10.21305 4.071599
v -24.41735 17.02935 -2.802255
v -22.6819 10.11535 0.2434513
v -24.53242 25.19806 -2.687017
v -22.99842 31.63404 -2.549156
v -21.21157 32.6929 -1.802988
v -25.26703 9.958809 -3.521903
v -24.18775 -4.466058 -2.262702
v -19.48487 -3.987528 4.92436
v -20.55138 9.878709 4.906611
v -12.96563 7.187665 10.31533
v -13.04748 -3.639274 9.936335
v -12.98537 12.27837 9.795397
v -21.0598 29.78958 2.044808
v -21.21157 32.6929 -1.802988
v -20.37873 51.60755 1.160685
v -19.89366 53.85808 -4.652313
v -18.38837 56.38153 2.149115
v -17.87542 58.70633 -4.164118
v -20.64515 33.6076 -5.480995
v -21.38826 32.50322 -5.564234
v -18.83995 56.5997 -5.56058
v -16.0854 59.75463 -5.268245
v -15.76337 57.51366 -8.59255
v -13.57405 59.99133 -8.051962
v -12.0343 57.89112 -10.54374
v -13.19639 56.03206 -11.27191
v -11.32455 50.85448 -13.62677
v -13.10236 25.95999 -14.15179
v -13.90076 12.74995 -14.50626
v -17.80975 31.42225 -8.899943
v -16.86023 24.64058 -10.23124
v -19.24434 30.75904 -8.651356
v -15.70485 14.33813 -12.75432
v -13.18758 -2.076382 -14.00958
v -14.47723 -3.279397 -12.43326
v -21.08936 18.58182 -8.070087
v -18.02125 20.11765 -11.0579
v -18.77371 11.04983 -13.10498
v -24.53242 25.19806 -2.687017
v -22.99842 31.63404 -2.549156
v -24.41735 17.02935 -2.802255
v -25.26703 9.958809 -3.521903
v -21.29789 -5.209593 -8.956482
v -24.18775 -4.466058 -2.262702
v -18.09587 -3.824899 -12.93943
v -19.32642 -5.03166 -11.50264
v -19.99235 10.21305 4.071599
v -20.55138 9.878709 4.906611
v -22.6819 10.11535 0.2434513
v -12.95249 12.67917 8.966348
v -12.98537 12.27837 9.795397
v -9.345117 12.87214 7.373977
v -9.689131 13.27332 6.891144
v 0.3339975 13.85447 -5.605412
v -5.206275 -3.761631 -8.400986
v -0.6079834 -1.053632 -4.760726
v -9.703773 -2.533644 -12.35925
v -1.046334 27.17039 -8.582854
v 1.241285 19.60276 -5.694984
v 1.077874 26.60426 -6.787952
v 1.054141 33.60459 -5.99348
v -1.416488 52.50985 -5.945627
v -13.90076 12.74995 -14.50626
v -13.18758 -2.076382 -14.00958
v -11.32455 50.85448 -13.62677
v -9.601421 52.99817 -12.83418
v -13.19639 56.03206 -11.27191
v -12.0343 57.89112 -10.54374
v -8.461703 56.13899 -11.51005
v -3.113787 56.91121 -4.687965
v -5.565554 59.07833 -5.98488
v -13.04748 -3.639274 9.936335
v -9.083205 -5.038679 6.243348
v -9.2098 -5.150745 5.495643
v -15.32615 -5.398821 1.834141
v -19.48487 -3.987528 4.92436
v -24.18775 -4.466058 -2.262702
v -4.175735 -4.711175 -0.5639151
v -5.970599 -4.529283 -7.645747
v -21.29789 -5.209593 -8.956482
v -0.6079834 -1.053632 -4.760726
v -5.206275 -3.761631 -8.400986
v -19.32642 -5.03166 -11.50264
v -9.703773 -2.533644 -12.35925
v -14.47723 -3.279397 -12.43326
v -18.09587 -3.824899 -12.93943
v -13.18758 -2.076382 -14.00958
v -14.47723 -3.279397 -12.43326
v -18.77371 11.04983 -13.10498
v -18.09587 -3.824899 -12.93943
v -15.70485 14.33813 -12.75432
v -18.02125 20.11765 -11.0579
v -16.86023 24.64058 -10.23124
v -19.24434 30.75904 -8.651356
v -17.80975 31.42225 -8.899943
v -5.565554 59.07833 -5.98488
v -3.113787 56.91121 -4.687965
v -5.232869 56.44143 -2.070138
v -8.551198 57.71157 -0.2505686
v -8.020464 59.86383 -6.008845
v -8.461703 56.13899 -11.51005
v -12.0343 57.89112 -10.54374
v -13.57405 59.99133 -8.051962
v -12.76314 59.31342 -1.253485
v -16.0854 59.75463 -5.268245
v -17.87542 58.70633 -4.164118
v -14.21843 57.9288 1.646588
v -14.59213 54.9603 5.102105
v -18.38837 56.38153 2.149115
v 10.0409 19.13848 2.487803
v 9.807163 -4.438984 2.240542
v -8.210979 -4.45439 -2.53492
v -9.706264 21.21359 -2.301212
v -8.269603 34.94306 -2.050534
v 0.3986258 42.31821 -0.07972629
v 6.849953 41.25843 1.12772
v 6.082004 42.34455 1.017763
v 10.78786 -4.442056 -4.232763
v 9.807163 -4.438984 2.240542
v 10.0409 19.13848 2.487803
v 11.58328 19.77974 -8.649445
v 6.849953 41.25843 1.12772
v 9.511238 15.93467 -13.67282
v 7.573948 -4.462714 -14.08217
v 9.602489 36.96853 -12.35693
v 9.252668 39.31123 -11.33371
v 7.032481 42.33972 -11.35757
v 7.626342 41.47246 -12.35342
v 6.082004 42.34455 1.017763
v 10.78786 -4.442056 -4.232763
v -8.210979 -4.45439 -2.53492
v 9.807163 -4.438984 2.240542
v 7.573948 -4.462714 -14.08217
v -5.783597 -4.446968 -14.90126
v -3.097162 -4.445919 -17.19526
v -5.783597 -4.446968 -14.90126
v -3.097162 -4.445919 -17.19526
v -3.778223 21.01348 -17.26524
v -6.957044 21.30854 -13.98715
v -8.210979 -4.45439 -2.53492
v -9.706264 21.21359 -2.301212
v -8.269603 34.94306 -2.050534
v -4.976678 34.4591 -12.35868
v -4.460813 31.18427 -15.3818
v -2.652666 32.08758 -17.01239
v -3.430839 35.09124 -14.24096
v 9.252668 39.31123 -11.33371
v 7.626342 41.47246 -12.35342
v 9.602489 36.96853 -12.35693
v 6.892604 37.37176 -15.24988
v 4.444689 42.32644 -10.64593
v -3.430839 35.09124 -14.24096
v 8.509358 35.09166 -14.94377
v -2.652666 32.08758 -17.01239
v -3.778223 21.01348 -17.26524
v 9.511238 15.93467 -13.67282
v 11.58328 19.77974 -8.649445
v -3.097162 -4.445919 -17.19526
v 7.573948 -4.462714 -14.08217
v -4.976678 34.4591 -12.35868
v 0.3986258 42.31821 -0.07972629
v -8.269603 34.94306 -2.050534
v 4.444689 42.32644 -10.64593
v -3.430839 35.09124 -14.24096
v 6.082004 42.34455 1.017763
v 7.032481 42.33972 -11.35757
v 7.626342 41.47246 -12.35342
v -5.454253 -4.48575 12.71767
v -8.490308 -4.729409 12.2997
v -10.52802 -3.932923 12.04814
v 2.12501 4.730038 15.32659
v 5.861611 -4.647865 8.498118
v -9.757668 8.067421 12.72217
v 7.483576 3.470131 13.19053
v 1.480795 24.68914 15.24701
v -9.944188 13.8333 12.60343
v -6.626511 29.22733 12.36776
v 6.579149 27.75627 13.56182
v -0.008033782 31.83105 13.72452
v 5.817713 31.10179 12.6135
v 5.861611 -4.647865 8.498118
v 9.18113 -5.5695 2.550199
v -5.454253 -4.48575 12.71767
v -9.186803 -5.60264 8.076436
v -8.490308 -4.729409 12.2997
v -10.52802 -3.932923 12.04814
v -12.51689 -5.613171 2.458631
v 12.00866 -5.413105 -1.80117
v 8.775632 -4.188961 -10.56656
v 14.15952 -4.856581 -6.136837
v 4.873693 -4.233985 -9.913233
v -10.23499 -4.996408 -2.396879
v -13.37566 -5.043004 -1.385483
v 7.483576 3.470131 13.19053
v 9.18113 -5.5695 2.550199
v 5.861611 -4.647865 8.498118
v 14.82401 5.829744 0.8162563
v 12.00866 -5.413105 -1.80117
v 15.52671 1.108073 -4.323627
v 14.15952 -4.856581 -6.136837
v 15.25551 17.06502 -3.774757
v 13.53969 10.61993 9.890272
v 6.579149 27.75627 13.56182
v 13.55036 23.24143 9.881654
v 15.25684 26.99403 -5.296031
v 8.257133 33.48736 10.56402
v 5.817713 31.10179 12.6135
v 13.76161 34.40302 8.166895
v 14.08696 36.06237 5.915177
v 14.59917 37.11172 2.253418
v 15.83152 34.70012 -6.471088
v -6.626511 29.22733 12.36776
v -6.262814 32.9909 2.163429
v -5.809 32.56018 8.551512
v -11.1438 20.24586 -2.032097
v -6.48485 34.52249 -4.274935
v -3.45409 35.35548 -5.819589
v -9.944188 13.8333 12.60343
v -13.16524 12.29536 -1.775905
v -9.757668 8.067421 12.72217
v -10.52802 -3.932923 12.04814
v -13.37566 -5.043004 -1.385483
v -12.51689 -5.613171 2.458631
v -3.45409 35.35548 -5.819589
v -6.262814 32.9909 2.163429
v -6.48485 34.52249 -4.274935
v 4.256298 34.483 4.186246
v 7.504704 37.26258 -2.683945
v 10.92343 36.99788 5.109488
v 5.543935 35.03749 -10.33741
v 13.77948 35.95121 -9.775278
v 12.58635 35.32332 -11.59121
v 12.92538 37.86789 -2.318059
v 15.83152 34.70012 -6.471088
v 13.69571 37.71474 0.9876223
v 14.59917 37.11172 2.253418
v 14.08696 36.06237 5.915177
v 13.76161 34.40302 8.166895
v 8.257133 33.48736 10.56402
v 5.817713 31.10179 12.6135
v -0.008033782 31.83105 13.72452
v -5.809 32.56018 8.551512
v -6.626511 29.22733 12.36776
v -13.37566 -5.043004 -1.385483
v -10.23499 -4.996408 -2.396879
v -13.16524 12.29536 -1.775905
v -11.1438 20.24586 -2.032097
v 6.843836 14.96314 -9.126287
v -3.45409 35.35548 -5.819589
v 10.79896 8.78768 -10.22603
v 8.775632 -4.188961 -10.56656
v 14.15952 -4.856581 -6.136837
v 15.52671 1.108073 -4.323627
v 4.873693 -4.233985 -9.913233
v 6.843836 14.96314 -9.126287
v 15.25551 17.06502 -3.774757
v 12.17632 15.48452 -8.34625
v 5.543935 35.03749 -10.33741
v 12.1369 25.61776 -9.685719
v 15.25684 26.99403 -5.296031
v 12.58635 35.32332 -11.59121
v 15.83152 34.70012 -6.471088
v 13.77948 35.95121 -9.775278
vn 0.01619607 0.2264912 -0.9738786
vn 0.4273256 0.5056666 -0.7494626
vn 0.2505784 0.6033437 -0.757091
vn 0.1481287 0.9872538 -0.05820367
vn -0.1901734 0.977835 0.08759499
vn 0.2203068 0.8941441 0.389835
vn -0.02689337 0.9598793 0.2791209
vn 0.1575767 0.9814294 0.1093892
vn 0.0057612 0.09421034 0.9955357
vn 0.4974201 0.8427157 0.205921
vn 0.4785469 0.4432136 0.7579938
vn 0.8383445 0.5390763 0.08108846
vn 0.01460474 0.9909518 0.1334217
vn 0.0057612 0.09421034 0.9955357
vn 0.1575767 0.9814294 0.1093892
vn -0.908636 0.3990496 0.1230455
vn -0.8493355 0.5228035 0.07284082
vn -0.79599 0.4245811 -0.4314288
vn 0.9264336 0.009250082 0.3763445
vn 0.8023775 0.4718633 0.3654251
vn 0.7650776 0.1776433 0.6189501
vn -0.05411882 0.03899056 0.997773
vn 0.7650776 0.1776433 0.6189501
vn -0.185948 0.6068746 0.7727396
vn -0.05411882 0.03899056 0.997773
vn 0.5959485 -0.01758069 0.8028302
vn 0.7650776 0.1776433 0.6189501
vn 0.2485128 0.3993974 -0.8824529
vn -0.5515645 0.6227152 -0.5549797
vn -0.3097032 0.2683906 -0.9121679
vn 0.8163351 0.04186557 0.5760593
vn 0.0187169 0.6727084 0.739671
vn 0.6805338 0.4087828 0.6080874
vn -0.2380868 -0.6017911 -0.7623399
vn -0.1580866 0.03693169 -0.9867344
vn -0.2417854 -0.6725876 -0.6994038
vn -0.4298615 0.7185563 -0.5467138
vn -0.1580866 0.03693169 -0.9867344
vn -0.252367 0.5188365 -0.8167738
vn 0.2499805 0.1963006 -0.9481434
vn -0.4244784 0.1386737 -0.8947557
vn 0.01619607 0.2264912 -0.9738786
vn 0.4273256 0.5056666 -0.7494626
vn -0.4955017 0.4974041 -0.7120866
vn -0.2681003 0.2029797 -0.9417651
vn 0.2505784 0.6033437 -0.757091
vn -0.6514447 0.4201893 -0.6317126
vn 0.3507204 0.2752638 -0.8951118
vn 0.01619607 0.2264912 -0.9738786
vn 0.2499805 0.1963006 -0.9481434
vn 0.2748042 0.2292823 -0.9337624
vn -0.2663783 0.1753413 -0.9477859
vn 0.3390935 -0.0496192 -0.9394432
vn -0.1178199 0.01314071 -0.9929481
vn 0.2758781 0.04816951 -0.9599849
vn 0.003172364 -0.424061 -0.9056281
vn -0.3197935 -0.3718582 -0.8714663
vn -0.7414987 -0.191668 -0.6429954
vn -0.7700612 0.02459717 -0.6374958
vn 0.2571909 0.01527978 -0.9662398
vn 0.2275216 -0.2050325 -0.951943
vn 0.298419 -0.02246262 -0.9541706
vn 0.1754159 0.1491214 -0.9731352
vn -0.4244784 0.1386737 -0.8947557
vn 0.2036902 -0.2062173 -0.9570709
vn -0.1449785 -0.3588155 -0.9220806
vn 0.05529491 0.167656 -0.9842936
vn -0.4955017 0.4974041 -0.7120866
vn -0.09342083 0.6976614 -0.7103106
vn 0.275756 0.1498503 -0.9494754
vn 0.5593435 0.649164 -0.5154813
vn 0.7374189 0.1526926 -0.65795
vn 0.5325432 0.0006323853 -0.8464026
vn 0.9605812 -0.002565426 -0.2779875
vn 0.9023696 -0.2761666 -0.3308493
vn 0.6121811 -0.2680755 -0.7438883
vn 0.6032205 -0.2495668 -0.7575232
vn 0.107194 -0.2578758 -0.9602133
vn 0.6464346 -0.4678479 -0.6026945
vn 0.1994483 -0.8858768 -0.4188588
vn -0.07131918 -0.2794139 -0.9575184
vn -0.2627648 -0.7914827 -0.5518241
vn -0.4233424 -0.3343307 -0.8420238
vn -0.5391518 0.004545935 -0.8421963
vn -0.4819186 -0.2870865 -0.8278501
vn -0.7700612 0.02459717 -0.6374958
vn -0.1178199 0.01314071 -0.9929481
vn -0.2663783 0.1753413 -0.9477859
vn -0.2681003 0.2029797 -0.9417651
vn -0.8421394 -0.02282253 -0.5387767
vn -0.6514447 0.4201893 -0.6317126
vn -0.9218636 -0.05819035 -0.3831207
vn -0.6611474 0.5980234 -0.4530477
vn -0.7317386 0.5666636 -0.3787493
vn -0.8457446 -0.1426008 -0.5141801
vn -0.8773777 -0.1015817 -0.4689238
vn -0.8598884 0.07420877 -0.5050593
vn -0.7985598 0.6013198 -0.02676704
vn -0.9709402 0.2008653 -0.1301086
vn -0.7184594 0.6943496 0.04116568
vn -0.7007447 0.7134099 0.001782212
vn -0.8601628 -0.05756958 -0.50676
vn -0.8918924 0.03214268 -0.451104
vn -0.7279827 0.2737057 0.6285908
vn -0.402606 0.7026929 0.5866268
vn -0.7073101 -0.003876376 0.7068928
vn -0.8166684 -0.1076707 0.5669743
vn -0.9926549 -0.110741 -0.0487102
vn -0.8450343 -0.1084076 0.5236075
vn -0.9205211 -0.1240825 -0.3704653
vn -0.8851461 -0.4621271 0.05435747
vn -0.791729 -0.3805477 0.4778585
vn -0.662047 -0.7447857 -0.08359431
vn -0.9665225 -0.1643316 -0.1970519
vn -0.651594 -0.7195705 -0.2400908
vn -0.8599199 -0.2122139 -0.4642231
vn -0.2627648 -0.7914827 -0.5518241
vn -0.4233424 -0.3343307 -0.8420238
vn -0.903779 0.04866543 -0.4252238
vn -0.5391518 0.004545935 -0.8421963
vn -0.9206303 -0.1140301 -0.3734126
vn -0.4819186 -0.2870865 -0.8278501
vn -0.7414987 -0.191668 -0.6429954
vn -0.3197935 -0.3718582 -0.8714663
vn 0.003172364 -0.424061 -0.9056281
vn -0.3197935 -0.3718582 -0.8714663
vn -0.1449785 -0.3588155 -0.9220806
vn -0.4819186 -0.2870865 -0.8278501
vn -0.651594 -0.7195705 -0.2400908
vn 0.1994483 -0.8858768 -0.4188588
vn -0.2627648 -0.7914827 -0.5518241
vn -0.662047 -0.7447857 -0.08359431
vn 0.152051 -0.9751925 0.1608725
vn -0.3610924 -0.9193286 0.1563555
vn -0.8851461 -0.4621271 0.05435747
vn -0.791729 -0.3805477 0.4778585
vn -0.4964912 -0.6348184 0.5920321
vn -0.1985429 -0.5672048 0.7992868
vn 0.6763276 -0.6621716 0.3226602
vn 0.4481471 -0.3807544 0.8088204
vn 0.7055322 -0.6574019 0.2646641
vn 0.5203869 -0.5034124 0.6897633
vn 0.7216277 -0.6560565 -0.2210052
vn 0.6464346 -0.4678479 -0.6026945
vn 0.8297544 -0.5579205 -0.01524635
vn 0.8603037 -0.476028 0.1824142
vn 0.7720525 -0.4706439 -0.4271174
vn 0.5136943 -0.08217219 0.8540291
vn 0.4481471 -0.3807544 0.8088204
vn -0.1985429 -0.5672048 0.7992868
vn -0.2785096 -0.06294041 0.9583689
vn 0.1575626 0.03923449 0.9867293
vn -0.4964912 -0.6348184 0.5920321
vn -0.791729 -0.3805477 0.4778585
vn -0.8450343 -0.1084076 0.5236075
vn -0.8166684 -0.1076707 0.5669743
vn -0.7073101 -0.003876376 0.7068928
vn 0.1081896 0.6105292 0.7845693
vn -0.7279827 0.2737057 0.6285908
vn -0.402606 0.7026929 0.5866268
vn 0.5136943 -0.08217219 0.8540291
vn 0.6763276 -0.6621716 0.3226602
vn 0.4481471 -0.3807544 0.8088204
vn 0.7055322 -0.6574019 0.2646641
vn 0.5336229 -0.1270021 0.8361322
vn 0.7547162 0.02005681 0.6557448
vn 0.1575626 0.03923449 0.9867293
vn 0.1081896 0.6105292 0.7845693
vn 0.6194983 -0.03779113 0.7840878
vn 0.5081649 0.6685455 0.5429689
vn 0.2203068 0.8941441 0.389835
vn 0.5203869 -0.5034124 0.6897633
vn 0.7055322 -0.6574019 0.2646641
vn 0.5336229 -0.1270021 0.8361322
vn 0.3655218 -0.1177884 0.9233199
vn 0.6194983 -0.03779113 0.7840878
vn 0.5106453 -0.04064504 0.8588302
vn 0.3985706 0.03205208 0.9165774
vn 0.2203068 0.8941441 0.389835
vn 0.0057612 0.09421034 0.9955357
vn 0.4785469 0.4432136 0.7579938
vn 0.8383445 0.5390763 0.08108846
vn 0.01460474 0.9909518 0.1334217
vn -0.02689337 0.9598793 0.2791209
vn -0.1901734 0.977835 0.08759499
vn 0.7374189 0.1526926 -0.65795
vn 0.6939286 0.7194486 0.02927321
vn 0.5593435 0.649164 -0.5154813
vn 0.9999845 -8.927395E-05 -0.005569719
vn 0.9605812 -0.002565426 -0.2779875
vn 0.9338757 -0.02069651 0.3569983
vn 0.9159231 -0.1020563 0.3881615
vn 0.8040894 0.3248181 0.4979291
vn 0.9578748 -0.2297049 -0.1723703
vn 0.9023696 -0.2761666 -0.3308493
vn 0.3985706 0.03205208 0.9165774
vn 0.4785469 0.4432136 0.7579938
vn 0.5106453 -0.04064504 0.8588302
vn 0.3655218 -0.1177884 0.9233199
vn 0.5203869 -0.5034124 0.6897633
vn 0.8603037 -0.476028 0.1824142
vn 0.8297544 -0.5579205 -0.01524635
vn 0.7720525 -0.4706439 -0.4271174
vn 0.8250721 -0.2630193 -0.5000769
vn 0.6032205 -0.2495668 -0.7575232
vn 0.6464346 -0.4678479 -0.6026945
vn 0.7216277 -0.6560565 -0.2210052
vn -0.4955017 0.4974041 -0.7120866
vn 0.3832222 0.8578302 -0.3424444
vn 0.4273256 0.5056666 -0.7494626
vn -0.09342083 0.6976614 -0.7103106
vn 0.3270049 0.9436889 -0.05019018
vn 0.5593435 0.649164 -0.5154813
vn 0.6939286 0.7194486 0.02927321
vn 0.1481287 0.9872538 -0.05820367
vn 0.2203068 0.8941441 0.389835
vn 0.08898921 0.9920985 0.08843971
vn 0.4974201 0.8427157 0.205921
vn 0.8040894 0.3248181 0.4979291
vn 0.4785469 0.4432136 0.7579938
vn -0.2261696 0.9739286 -0.01761683
vn 0.5081649 0.6685455 0.5429689
vn 0.1081896 0.6105292 0.7845693
vn -0.402606 0.7026929 0.5866268
vn -0.7007447 0.7134099 0.001782212
vn -0.2734978 0.9550597 0.1142803
vn -0.7985598 0.6013198 -0.02676704
vn -0.7184594 0.6943496 0.04116568
vn -0.004228797 0.9923093 0.1237112
vn 0.3279945 0.9126274 0.2439895
vn 0.5690526 0.8218944 -0.02586009
vn 0.4679058 0.8242975 -0.318744
vn -0.2415485 0.9559312 0.166883
vn -0.7317386 0.5666636 -0.3787493
vn -0.1762487 0.9595311 -0.2196279
vn 0.2505784 0.6033437 -0.757091
vn -0.6611474 0.5980234 -0.4530477
vn -0.6514447 0.4201893 -0.6317126
vn 0.3832222 0.8578302 -0.3424444
vn 0.2505784 0.6033437 -0.757091
vn 0.4273256 0.5056666 -0.7494626
vn 0.4679058 0.8242975 -0.318744
vn 0.3832222 0.8578302 -0.3424444
vn 0.5690526 0.8218944 -0.02586009
vn 0.4679058 0.8242975 -0.318744
vn 0.3270049 0.9436889 -0.05019018
vn 0.3279945 0.9126274 0.2439895
vn 0.08898921 0.9920985 0.08843971
vn 0.8383445 0.5390763 0.08108846
vn 0.07104305 0.9973957 0.01244081
vn 0.3179473 0.934464 -0.1602704
vn 0.04296518 0.9986441 -0.02939269
vn -0.1901734 0.977835 0.08759499
vn 0.9578748 -0.2297049 -0.1723703
vn 0.8250721 -0.2630193 -0.5000769
vn 0.7720525 -0.4706439 -0.4271174
vn 0.7216277 -0.6560565 -0.2210052
vn 0.9715464 0.2171906 -0.09447714
vn 0.6576185 0.434767 0.6152362
vn 0.8336179 0.5388577 0.1212996
vn 0.5850942 0.2704802 0.7645295
vn 0.4113599 0.699498 0.5843677
vn -0.1033949 0.4266931 0.8984667
vn 0.9849645 0.1395481 -0.1018394
vn 0.1174768 0.1371721 0.9835563
vn 0.7912929 0.01634515 0.6112188
vn 0.5959485 -0.01758069 0.8028302
vn -0.05411882 0.03899056 0.997773
vn 0.7650776 0.1776433 0.6189501
vn 0.9154267 -0.03075095 0.4013082
vn 0.9065281 -0.01204688 -0.4219736
vn 0.9676653 -0.1278927 -0.2174108
vn 0.9850986 -0.1356219 -0.105771
vn 0.9264336 0.009250082 0.3763445
vn 0.9499983 -0.3027551 -0.07643712
vn 0.6349977 -0.6996989 0.3274133
vn 0.4919589 -0.8376415 0.2373461
vn 0.6689107 -0.6607597 0.340522
vn 0.9457757 -0.01880971 0.3242753
vn 0.01801101 -0.4894613 0.871839
vn 0.8023775 0.4718633 0.3654251
vn 0.0683459 -0.01053889 0.997606
vn -0.06826754 0.5153922 0.8542309
vn -0.1033949 0.4266931 0.8984667
vn -0.9002632 0.1417275 0.4116303
vn -0.657204 0.552038 0.5131637
vn 0.1174768 0.1371721 0.9835563
vn -0.7675729 0.1122636 0.6310536
vn -0.05411882 0.03899056 0.997773
vn -0.185948 0.6068746 0.7727396
vn -0.6087578 0.6421916 0.4658367
vn -0.9981325 0.05147177 0.03289572
vn -0.8413228 0.03603242 0.5393308
vn -0.9971768 0.07501742 -0.003316924
vn -0.8493355 0.5228035 0.07284082
vn -0.908636 0.3990496 0.1230455
vn -0.999109 0.04047976 -0.01194012
vn -0.8018621 -0.5855703 0.118847
vn -0.5817854 -0.5854126 0.5646395
vn -0.7186243 0.4597889 0.5217023
vn 0.0683459 -0.01053889 0.997606
vn 0.01801101 -0.4894613 0.871839
vn -0.06826754 0.5153922 0.8542309
vn -0.7675729 0.1122636 0.6310536
vn -0.908636 0.3990496 0.1230455
vn -0.9002632 0.1417275 0.4116303
vn -0.9277417 0.18806 -0.3223799
vn -0.657204 0.552038 0.5131637
vn -0.6743159 0.7383525 -0.0115642
vn -0.8624229 0.2732072 -0.4261273
vn -0.79599 0.4245811 -0.4314288
vn -0.8549405 0.3410898 -0.3908125
vn -0.4057442 0.9087348 -0.09784066
vn -0.6424007 0.3815588 -0.6646309
vn -0.1925053 0.890969 -0.411237
vn -0.07194786 0.6546061 -0.7525386
vn -0.4363589 0.3160127 -0.8424529
vn -0.1671074 0.1041809 -0.980419
vn -0.5998377 0.05780441 -0.798031
vn -0.1880722 -0.01757868 -0.9819979
vn -0.5934928 0.178879 -0.7847093
vn -0.4572663 0.139429 -0.878332
vn -0.5282528 0.2865667 -0.7992675
vn -0.4221308 0.1011247 -0.900877
vn -0.1373281 -0.3763226 -0.9162545
vn 0.0253133 -0.6121041 -0.790372
vn -0.7984561 0.09478777 -0.5945445
vn -0.4481185 0.1880638 -0.873969
vn -0.4305677 0.06338712 -0.9003297
vn -0.9971768 0.07501742 -0.003316924
vn -0.8493355 0.5228035 0.07284082
vn -0.9981325 0.05147177 0.03289572
vn -0.999109 0.04047976 -0.01194012
vn -0.594805 -0.7100632 -0.3768518
vn -0.8018621 -0.5855703 0.118847
vn -0.2290812 -0.4105677 -0.8825848
vn -0.4429429 -0.6833973 -0.5803186
vn -0.6087578 0.6421916 0.4658367
vn -0.7186243 0.4597889 0.5217023
vn -0.8413228 0.03603242 0.5393308
vn -0.185948 0.6068746 0.7727396
vn -0.06826754 0.5153922 0.8542309
vn 0.8023775 0.4718633 0.3654251
vn 0.7650776 0.1776433 0.6189501
vn 0.9850986 -0.1356219 -0.105771
vn 0.5934496 -0.5558587 -0.5820985
vn 0.9499983 -0.3027551 -0.07643712
vn 0.4029995 -0.487701 -0.7744283
vn 0.5651304 -0.001400442 -0.8250005
vn 0.9676653 -0.1278927 -0.2174108
vn 0.9065281 -0.01204688 -0.4219736
vn 0.9849645 0.1395481 -0.1018394
vn 0.9715464 0.2171906 -0.09447714
vn -0.1880722 -0.01757868 -0.9819979
vn -0.1373281 -0.3763226 -0.9162545
vn -0.1671074 0.1041809 -0.980419
vn 0.3077975 0.2280339 -0.9237214
vn -0.4363589 0.3160127 -0.8424529
vn -0.07194786 0.6546061 -0.7525386
vn 0.3755323 0.4648935 -0.801779
vn 0.8336179 0.5388577 0.1212996
vn 0.548255 0.8225097 -0.1513085
vn 0.01801101 -0.4894613 0.871839
vn 0.6689107 -0.6607597 0.340522
vn 0.4919589 -0.8376415 0.2373461
vn -0.06367138 -0.9930824 0.09865783
vn -0.5817854 -0.5854126 0.5646395
vn -0.8018621 -0.5855703 0.118847
vn 0.6349977 -0.6996989 0.3274133
vn 0.3057677 -0.9157041 -0.2607532
vn -0.594805 -0.7100632 -0.3768518
vn 0.9499983 -0.3027551 -0.07643712
vn 0.5934496 -0.5558587 -0.5820985
vn -0.4429429 -0.6833973 -0.5803186
vn 0.4029995 -0.487701 -0.7744283
vn 0.0253133 -0.6121041 -0.790372
vn -0.2290812 -0.4105677 -0.8825848
vn -0.1373281 -0.3763226 -0.9162545
vn 0.0253133 -0.6121041 -0.790372
vn -0.4305677 0.06338712 -0.9003297
vn -0.2290812 -0.4105677 -0.8825848
vn -0.4221308 0.1011247 -0.900877
vn -0.4481185 0.1880638 -0.873969
vn -0.4572663 0.139429 -0.878332
vn -0.5282528 0.2865667 -0.7992675
vn -0.5934928 0.178879 -0.7847093
vn 0.548255 0.8225097 -0.1513085
vn 0.8336179 0.5388577 0.1212996
vn 0.6576185 0.434767 0.6152362
vn 0.4113599 0.699498 0.5843677
vn 0.2305699 0.9675212 -0.1036356
vn 0.3755323 0.4648935 -0.801779
vn -0.07194786 0.6546061 -0.7525386
vn -0.1925053 0.890969 -0.411237
vn 0.006718847 0.9437038 0.3307235
vn -0.4057442 0.9087348 -0.09784066
vn -0.6743159 0.7383525 -0.0115642
vn -0.04273054 0.8520757 0.5216715
vn -0.1033949 0.4266931 0.8984667
vn -0.657204 0.552038 0.5131637
vn 0.5750536 0.04865575 0.8166676
vn 0.4473814 -0.5767223 0.6835505
vn -0.6764266 -0.5963886 0.4321664
vn -0.8622772 0.01340482 0.5062593
vn -0.8143829 0.3938496 0.4262196
vn -0.4092255 0.7340227 0.5419825
vn 0.5881146 0.3134057 0.7455857
vn 0.2649083 0.6924288 0.6710932
vn 0.736805 -0.6747357 -0.04301514
vn 0.4473814 -0.5767223 0.6835505
vn 0.5750536 0.04865575 0.8166676
vn 0.9930305 0.03363487 -0.1129561
vn 0.5881146 0.3134057 0.7455857
vn 0.6913103 -0.04202133 -0.7213351
vn 0.5239788 -0.634613 -0.568078
vn 0.9402819 0.208308 -0.2692171
vn 0.9313849 0.3417395 -0.1254444
vn 0.3201043 0.891826 -0.3196554
vn 0.4232768 0.6862561 -0.5915145
vn 0.2649083 0.6924288 0.6710932
vn 0.736805 -0.6747357 -0.04301514
vn -0.6764266 -0.5963886 0.4321664
vn 0.4473814 -0.5767223 0.6835505
vn 0.5239788 -0.634613 -0.568078
vn -0.6534258 -0.6503971 -0.3873221
vn -0.1619776 -0.6178813 -0.7694062
vn -0.6534258 -0.6503971 -0.3873221
vn -0.1619776 -0.6178813 -0.7694062
vn -0.2898221 0.01094525 -0.957018
vn -0.8818064 0.04594074 -0.4693688
vn -0.6764266 -0.5963886 0.4321664
vn -0.8622772 0.01340482 0.5062593
vn -0.8143829 0.3938496 0.4262196
vn -0.8023689 0.4923214 -0.3373776
vn -0.80433 0.2050851 -0.5576677
vn -0.3097032 0.2683906 -0.9121679
vn -0.5515645 0.6227152 -0.5549797
vn 0.9313849 0.3417395 -0.1254444
vn 0.4232768 0.6862561 -0.5915145
vn 0.9402819 0.208308 -0.2692171
vn 0.2485128 0.3993974 -0.8824529
vn -0.2716368 0.8852713 -0.3775027
vn -0.5515645 0.6227152 -0.5549797
vn 0.6251179 0.1062111 -0.7732702
vn -0.3097032 0.2683906 -0.9121679
vn -0.2898221 0.01094525 -0.957018
vn 0.6913103 -0.04202133 -0.7213351
vn 0.9930305 0.03363487 -0.1129561
vn -0.1619776 -0.6178813 -0.7694062
vn 0.5239788 -0.634613 -0.568078
vn -0.8023689 0.4923214 -0.3373776
vn -0.4092255 0.7340227 0.5419825
vn -0.8143829 0.3938496 0.4262196
vn -0.2716368 0.8852713 -0.3775027
vn -0.5515645 0.6227152 -0.5549797
vn 0.2649083 0.6924288 0.6710932
vn 0.3201043 0.891826 -0.3196554
vn 0.4232768 0.6862561 -0.5915145
vn 0.02453881 -0.6837849 0.7292709
vn -0.1680674 -0.6736161 0.7197185
vn -0.6613262 -0.4046385 0.6315974
vn 0.1159982 -0.1751229 0.9776893
vn 0.3958625 -0.7613112 0.5135155
vn -0.6886216 0.0001828609 0.7251208
vn 0.5345436 -0.3269897 0.7793208
vn 0.01781669 0.08575592 0.9961569
vn -0.7401541 0.08046691 0.6676054
vn -0.6820094 0.3778733 0.626159
vn 0.3837458 0.180224 0.9056813
vn -0.03014128 0.7303125 0.6824479
vn 0.1445559 0.6353925 0.7585381
vn 0.3958625 -0.7613112 0.5135155
vn 0.4754686 -0.8311585 0.2882799
vn 0.02453881 -0.6837849 0.7292709
vn -0.1611979 -0.9736445 0.1613433
vn -0.1680674 -0.6736161 0.7197185
vn -0.6613262 -0.4046385 0.6315974
vn -0.6646256 -0.7399139 0.1039236
vn 0.5256057 -0.821287 0.22187
vn 0.1616427 -0.5757393 -0.801496
vn 0.7102682 -0.6510659 -0.2676423
vn -0.2380868 -0.6017911 -0.7623399
vn -0.2417854 -0.6725876 -0.6994038
vn -0.7209345 -0.5394131 -0.4350712
vn 0.5345436 -0.3269897 0.7793208
vn 0.4754686 -0.8311585 0.2882799
vn 0.3958625 -0.7613112 0.5135155
vn 0.9471318 -0.1704278 0.2718378
vn 0.5256057 -0.821287 0.22187
vn 0.9835141 -0.1392251 -0.1153969
vn 0.7102682 -0.6510659 -0.2676423
vn 0.9765514 -0.01190004 -0.2149554
vn 0.823041 -0.1434938 0.5495571
vn 0.3837458 0.180224 0.9056813
vn 0.8163351 0.04186557 0.5760593
vn 0.9710489 -0.06894555 -0.2287152
vn 0.0187169 0.6727084 0.739671
vn 0.1445559 0.6353925 0.7585381
vn 0.6805338 0.4087828 0.6080874
vn 0.701082 0.5859577 0.4063714
vn 0.7724429 0.6026614 0.2003282
vn 0.939465 0.2641279 -0.2182706
vn -0.6820094 0.3778733 0.626159
vn -0.6363706 0.7497541 0.1813871
vn -0.5322067 0.8220005 0.2026605
vn -0.8596646 0.1666519 -0.4829119
vn -0.66557 0.6535305 -0.3604365
vn -0.4298615 0.7185563 -0.5467138
vn -0.7401541 0.08046691 0.6676054
vn -0.8381138 0.09823351 -0.5365776
vn -0.6886216 0.0001828609 0.7251208
vn -0.6613262 -0.4046385 0.6315974
vn -0.7209345 -0.5394131 -0.4350712
vn -0.6646256 -0.7399139 0.1039236
vn -0.4298615 0.7185563 -0.5467138
vn -0.6363706 0.7497541 0.1813871
vn -0.66557 0.6535305 -0.3604365
vn -0.2829482 0.9065096 0.3133378
vn -0.1726885 0.9847645 -0.02043764
vn -0.08844181 0.9332005 0.3483028
vn -0.252367 0.5188365 -0.8167738
vn 0.5858914 0.6351519 -0.5033025
vn 0.3147053 0.4180384 -0.8521763
vn 0.2468808 0.9636558 -0.1020656
vn 0.939465 0.2641279 -0.2182706
vn 0.2934609 0.9550645 0.04162363
vn 0.7724429 0.6026614 0.2003282
vn 0.701082 0.5859577 0.4063714
vn 0.6805338 0.4087828 0.6080874
vn 0.0187169 0.6727084 0.739671
vn 0.1445559 0.6353925 0.7585381
vn -0.03014128 0.7303125 0.6824479
vn -0.5322067 0.8220005 0.2026605
vn -0.6820094 0.3778733 0.626159
vn -0.7209345 -0.5394131 -0.4350712
vn -0.2417854 -0.6725876 -0.6994038
vn -0.8381138 0.09823351 -0.5365776
vn -0.8596646 0.1666519 -0.4829119
vn -0.1580866 0.03693169 -0.9867344
vn -0.4298615 0.7185563 -0.5467138
vn 0.3634357 0.06417957 -0.929406
vn 0.1616427 -0.5757393 -0.801496
vn 0.7102682 -0.6510659 -0.2676423
vn 0.9835141 -0.1392251 -0.1153969
vn -0.2380868 -0.6017911 -0.7623399
vn -0.1580866 0.03693169 -0.9867344
vn 0.9765514 -0.01190004 -0.2149554
vn 0.5673272 0.01173088 -0.823409
vn -0.252367 0.5188365 -0.8167738
vn 0.4196478 -0.1459773 -0.8958718
vn 0.9710489 -0.06894555 -0.2287152
vn 0.3147053 0.4180384 -0.8521763
vn 0.939465 0.2641279 -0.2182706
vn 0.5858914 0.6351519 -0.5033025
vt 0.3510571 0.1700767
vt 0.3520257 0.1637494
vt 0.3510571 0.1579997
vt 0.1740378 0.2440304
vt 0.1741413 0.240726
vt 0.1740378 0.2402732
vt 0.04643486 0.1891301
vt 0.04643488 0.1892994
vt 0.04643488 0.1897942
vt 0.2863328 0.372843
vt 0.2863328 0.3797379
vt 0.2863747 0.3796363
vt 0.082155 0.1891302
vt 0.0819469 0.1897599
vt 0.08210194 0.1892907
vt 0.5620422 0.31401
vt 0.5583182 0.3157902
vt 0.5620422 0.3220279
vt 0.3468674 0.1704694
vt 0.3479598 0.1588371
vt 0.3468674 0.1579997
vt 0.7679241 0.2785093
vt 0.7613947 0.3063059
vt 0.7679241 0.3074159
vt 0.6486986 0.6298646
vt 0.6451747 0.6313706
vt 0.6486981 0.657559
vt 0.8917247 0.6830403
vt 0.8917247 0.660964
vt 0.8859681 0.6631829
vt 0.2338952 0.9526148
vt 0.2338952 0.9288638
vt 0.224922 0.9304844
vt 0.9567674 0.5001066
vt 0.9359855 0.4647482
vt 0.9359855 0.5152134
vt 0.955655 0.6318438
vt 0.9709516 0.673951
vt 0.9709516 0.6313638
vt 0.2537808 0.6044907
vt 0.2536949 0.5929683
vt 0.252018 0.593069
vt 0.25223 0.5867353
vt 0.2537808 0.5865448
vt 0.5133206 0.7303156
vt 0.5204339 0.718949
vt 0.5057557 0.7227746
vt 0.5206894 0.7315541
vt 0.5231047 0.730968
vt 0.5224065 0.7418613
vt 0.5201452 0.7415922
vt 0.5124705 0.7440279
vt 0.5182129 0.760139
vt 0.5131049 0.7621143
vt 0.5204393 0.7587293
vt 0.5161245 0.7702064
vt 0.5106839 0.7678552
vt 0.5062655 0.7635239
vt 0.5060066 0.7498513
vt 0.5289916 0.7563758
vt 0.5225872 0.7683302
vt 0.5337902 0.7557616
vt 0.529569 0.7399912
vt 0.5238516 0.7306156
vt 0.5259718 0.7729956
vt 0.516889 0.7739244
vt 0.5293227 0.7286422
vt 0.523433 0.7242396
vt 0.5293717 0.7213666
vt 0.5353248 0.7368932
vt 0.5493014 0.7210271
vt 0.5500644 0.7378296
vt 0.5468454 0.7514372
vt 0.5535371 0.7502859
vt 0.5498356 0.7718432
vt 0.5474875 0.7723901
vt 0.5425996 0.7794077
vt 0.526637 0.7943308
vt 0.5409522 0.7998359
vt 0.5258796 0.8122104
vt 0.5165399 0.7963804
vt 0.5079814 0.8090392
vt 0.5057557 0.8040754
vt 0.5066096 0.7766643
vt 0.5103481 0.7705483
vt 0.4904613 0.7550126
vt 0.4997619 0.7662831
vt 0.496748 0.7484173
vt 0.4924829 0.7348899
vt 0.4836442 0.7414173
vt 0.4834987 0.7283518
vt 0.4743829 0.7327969
vt 0.4753363 0.7250867
vt 0.4703469 0.725025
vt 0.4731581 0.7441926
vt 0.4754292 0.7520712
vt 0.4608803 0.7443076
vt 0.4518405 0.7318538
vt 0.4500878 0.7424566
vt 0.4615732 0.7248422
vt 0.4364731 0.7284018
vt 0.4606879 0.7593114
vt 0.4769132 0.7732587
vt 0.4232653 0.7361206
vt 0.4264015 0.7248147
vt 0.4225353 0.7447587
vt 0.4271301 0.7687787
vt 0.4480364 0.7766275
vt 0.4285966 0.7782584
vt 0.4614909 0.7901917
vt 0.4417743 0.8085895
vt 0.431935 0.8069989
vt 0.4578367 0.8150346
vt 0.4702322 0.8096414
vt 0.4766644 0.8142802
vt 0.4804537 0.8096558
vt 0.4831009 0.8144184
vt 0.48562 0.8094722
vt 0.4833111 0.7887456
vt 0.4887903 0.7818537
vt 0.4876817 0.7685552
vt 0.4918419 0.7753253
vt 0.4937279 0.7684797
vt 0.4980221 0.7722769
vt 0.3219484 0.7132255
vt 0.3235817 0.7075264
vt 0.3187545 0.711971
vt 0.3187545 0.7036111
vt 0.9408723 0.8268248
vt 0.9182865 0.8336905
vt 0.9371808 0.8327843
vt 0.9397917 0.8076393
vt 0.9148704 0.7896252
vt 0.9286416 0.7877642
vt 0.9408723 0.7914886
vt 0.9383067 0.7811424
vt 0.9296261 0.7793971
vt 0.9196253 0.7759807
vt 0.9015067 0.7842222
vt 0.9026761 0.7759268
vt 0.8992854 0.7973793
vt 0.8908572 0.7984033
vt 0.8981342 0.8362525
vt 0.9006768 0.843232
vt 0.8915296 0.8287821
vt 0.8878278 0.8065427
vt 0.8933753 0.8346531
vt 0.1382413 0.78707
vt 0.1417974 0.812497
vt 0.1587339 0.8155632
vt 0.1613479 0.7684878
vt 0.1403729 0.7652535
vt 0.1692739 0.8154939
vt 0.177481 0.8082712
vt 0.1786779 0.7793266
vt 0.1768857 0.7700352
vt 0.174518 0.7462744
vt 0.1382413 0.7269213
vt 0.1742381 0.7375959
vt 0.1655088 0.7271099
vt 0.3191051 0.5442708
vt 0.3099655 0.5744096
vt 0.3182159 0.5698495
vt 0.296478 0.569381
vt 0.2972966 0.5400701
vt 0.3146438 0.5214663
vt 0.3210846 0.5223848
vt 0.3173434 0.4841518
vt 0.3002211 0.5198511
vt 0.3133894 0.483548
vt 0.296478 0.4826719
vt 0.0782454 0.2705339
vt 0.08623967 0.2761486
vt 0.08459809 0.2467081
vt 0.07808294 0.2449533
vt 0.08272793 0.2264616
vt 0.07649287 0.2237187
vt 0.07647359 0.2068773
vt 0.08623967 0.1893011
vt 0.0819469 0.1897599
vt 0.07635295 0.19361
vt 0.07640654 0.1935153
vt 0.082155 0.1891302
vt 0.082155 0.1891302
vt 0.08577893 0.1891836
vt 0.8190897 0.6004635
vt 0.8506999 0.5834751
vt 0.82248 0.5838632
vt 0.8357183 0.6140569
vt 0.8219188 0.6132579
vt 0.857474 0.6151696
vt 0.8574137 0.638768
vt 0.8640189 0.5889632
vt 0.8278024 0.6385667
vt 0.8200094 0.6346412
vt 0.8681365 0.6008001
vt 0.8665672 0.5875791
vt 0.8681365 0.6175925
vt 0.8661792 0.6386475
vt 0.8634054 0.6641434
vt 0.8549283 0.6613638
vt 0.8336467 0.6610136
vt 0.8281759 0.6609462
vt 0.8263633 0.6444116
vt 0.8197668 0.6420425
vt 0.8209279 0.6625827
vt 0.8273598 0.6632296
vt 0.8970929 0.3215542
vt 0.897949 0.3143384
vt 0.895646 0.3205858
vt 0.9040854 0.3219228
vt 0.900421 0.2993302
vt 0.9235894 0.3158953
vt 0.9235894 0.2849039
vt 0.9120488 0.2705635
vt 0.9078763 0.2708354
vt 0.893487 0.2858958
vt 0.9127871 0.2706761
vt 0.9210755 0.2712523
vt 0.9182891 0.2697647
vt 0.8776464 0.2750806
vt 0.899567 0.2560638
vt 0.8950501 0.2537935
vt 0.8676555 0.2599111
vt 0.8631582 0.2728193
vt 0.8786908 0.2845223
vt 0.8626958 0.2897591
vt 0.8668561 0.2985156
vt 0.886008 0.2942926
vt 0.8927259 0.2916826
vt 0.8980036 0.3003907
vt 0.8958822 0.3139114
vt 0.8801017 0.2930796
vt 0.8687917 0.3072322
vt 0.8881999 0.3085266
vt 0.893842 0.322109
vt 0.8720364 0.3112706
vt 0.8751403 0.3188435
vt 0.5707181 0.3154203
vt 0.5651396 0.3207685
vt 0.5712043 0.3216039
vt 0.5651396 0.31401
vt 0.8887407 0.4354254
vt 0.8851891 0.4222952
vt 0.8833717 0.4335872
vt 0.8881531 0.4226564
vt 0.8851768 0.4121212
vt 0.8887407 0.4075306
vt 0.9182336 0.2697679
vt 0.9120939 0.2701084
vt 0.9121868 0.2702693
vt 0.9120939 0.2701084
vt 0.9083617 0.2707662
vt 0.950261 0.6481754
vt 0.9444652 0.6552306
vt 0.950261 0.6708009
vt 0.9455736 0.6740055
vt 0.5142178 0.4752565
vt 0.525493 0.4676462
vt 0.5188127 0.4661542
vt 0.5397776 0.4775201
vt 0.5318074 0.4652455
vt 0.5463898 0.4720358
vt 0.5086869 0.5153561
vt 0.5469858 0.4951755
vt 0.5286797 0.5336477
vt 0.5432842 0.5351031
vt 0.5469872 0.5336282
vt 0.5383611 0.5608473
vt 0.5102552 0.5398446
vt 0.5057557 0.5300101
vt 0.5064704 0.5450763
vt 0.5062238 0.5572403
vt 0.5324181 0.5726195
vt 0.5057557 0.5889624
vt 0.5160375 0.5974995
vt 0.5317194 0.5995772
vt 0.5331324 0.5995044
vt 0.5340445 0.5740591
vt 0.5436716 0.5972124
vt 0.538989 0.5618111
vt 0.5464291 0.5743691
vt 0.5463819 0.5634767
vt 0.4770407 0.4767086
vt 0.4911635 0.4846656
vt 0.4871003 0.4742373
vt 0.4684122 0.498942
vt 0.4888046 0.5311029
vt 0.462072 0.5368593
vt 0.4649022 0.5662721
vt 0.4823849 0.5725272
vt 0.4976396 0.5586586
vt 0.4907925 0.5731053
vt 0.4988796 0.5413326
vt 0.4966367 0.5274364
vt 0.492667 0.5249248
vt 0.4989358 0.5737932
vt 0.4938253 0.60427
vt 0.4787594 0.6026105
vt 0.4827459 0.5733296
vt 0.4630703 0.577947
vt 0.462072 0.6009445
vt 0.4642289 0.567136
vt 0.00154867 0.4162339
vt 0.009192998 0.4101773
vt 0.003798923 0.3697969
vt 0.0158401 0.3651317
vt 0.003181047 0.3594547
vt 0.01624887 0.354643
vt 0.01699066 0.4082878
vt 0.01664579 0.4106991
vt 0.01839594 0.3592404
vt 0.01970696 0.3522993
vt 0.02662381 0.3571317
vt 0.02704503 0.3516699
vt 0.03312508 0.3560816
vt 0.03379007 0.3601498
vt 0.03982339 0.3710763
vt 0.03965462 0.4241846
vt 0.03981784 0.4523564
vt 0.0258315 0.4128015
vt 0.02916745 0.4271861
vt 0.02434149 0.4143212
vt 0.03504542 0.4490757
vt 0.03930942 0.4838204
vt 0.03524547 0.4864398
vt 0.02189841 0.4403549
vt 0.03003148 0.4369229
vt 0.0336351 0.4563274
vt 0.008683003 0.4264114
vt 0.009463322 0.4125945
vt 0.008994443 0.44378
vt 0.009857686 0.4589075
vt 0.02353968 0.4910001
vt 0.008066182 0.4894668
vt 0.03376918 0.4879064
vt 0.03002702 0.4905328
vt 0.1303627 0.6773319
vt 0.1282424 0.677581
vt 0.1349991 0.6861471
vt 0.1279046 0.6592264
vt 0.1263079 0.6584852
vt 0.1344243 0.6539413
vt 0.1349991 0.6550596
vt 0.4578841 0.5699675
vt 0.4464426 0.608012
vt 0.4583246 0.6015555
vt 0.4340735 0.6061485
vt 0.4511969 0.5421576
vt 0.4589747 0.557731
vt 0.4569695 0.5430186
vt 0.4569523 0.5280433
vt 0.4503708 0.4879964
vt 0.4225354 0.5741717
vt 0.4258311 0.6055597
vt 0.4245012 0.4930095
vt 0.428321 0.4882709
vt 0.4225354 0.481774
vt 0.4252468 0.4776738
vt 0.431405 0.4813677
vt 0.4478181 0.4785522
vt 0.4417107 0.4742373
vt 0.2398573 0.9531378
vt 0.2379894 0.9645775
vt 0.2391767 0.9656711
vt 0.2542249 0.9638208
vt 0.2572088 0.9531378
vt 0.2744929 0.9590634
vt 0.2386797 0.9824131
vt 0.2509705 0.9919431
vt 0.2783809 0.9741085
vt 0.2383218 0.9939876
vt 0.2507049 0.9941819
vt 0.278413 0.9809555
vt 0.2634793 0.9948924
vt 0.2715587 0.9887974
vt 0.2782736 0.9849316
vt 0.2715027 0.9930853
vt 0.08623964 0.3535773
vt 0.07867992 0.3226315
vt 0.07878532 0.354305
vt 0.08518521 0.3160164
vt 0.0828262 0.3033518
vt 0.08622237 0.2938457
vt 0.08365705 0.2804589
vt 0.08623964 0.2792459
vt 0.9344004 0.6803161
vt 0.9397678 0.6827421
vt 0.9413677 0.675759
vt 0.9400752 0.6677982
vt 0.9311466 0.6762265
vt 0.921307 0.6827421
vt 0.9182563 0.6754708
vt 0.9204342 0.6696006
vt 0.9328836 0.6620417
vt 0.9217998 0.6617403
vt 0.9212886 0.6573008
vt 0.9358176 0.6558089
vt 0.9410844 0.6506739
vt 0.9311686 0.6481754
vt 0.7396644 0.7360182
vt 0.74089 0.7861624
vt 0.7801959 0.7859252
vt 0.7823269 0.7313392
vt 0.7789716 0.7021421
vt 0.7601542 0.686558
vt 0.7465188 0.6888735
vt 0.7480913 0.686558
vt 0.7744347 0.4254347
vt 0.7880886 0.4254762
vt 0.7880886 0.3753767
vt 0.7646948 0.3739159
vt 0.7874112 0.3279909
vt 0.7562317 0.3817656
vt 0.7571151 0.4249268
vt 0.7585063 0.337084
vt 0.7607755 0.3320909
vt 0.7623164 0.3254254
vt 0.7599025 0.3273071
vt 0.7877405 0.325601
vt 0.9714527 0.7264668
vt 0.9575986 0.6883133
vt 0.9575986 0.7279817
vt 0.9899661 0.7144822
vt 0.9843667 0.6865581
vt 0.9905517 0.6908322
vt 0.827053 0.08585403
vt 0.8335255 0.08569825
vt 0.8331968 0.03160354
vt 0.8244027 0.03114207
vt 0.8004746 0.08572378
vt 0.7989727 0.03124281
vt 0.7994586 0.001917502
vt 0.822489 0.002966065
vt 0.8289329 0.009973527
vt 0.8334638 0.007951216
vt 0.8273458 0.0015487
vt 0.7711121 0.5903834
vt 0.7671701 0.58571
vt 0.7707176 0.5954683
vt 0.7628804 0.5945634
vt 0.7626769 0.5834749
vt 0.7438673 0.5983707
vt 0.7661422 0.5995394
vt 0.7426538 0.6050253
vt 0.7396643 0.6284751
vt 0.7682006 0.6402597
vt 0.7769991 0.6319235
vt 0.7396643 0.6826462
vt 0.7630069 0.6834605
vt 0.08698478 0.9883941
vt 0.06337958 0.9721834
vt 0.06410442 0.9911144
vt 0.08709629 0.9679919
vt 0.09153379 0.9859214
vt 0.06337958 0.9598616
vt 0.08962803 0.9628705
vt 0.09196144 0.9620333
vt 0.8741803 0.8536934
vt 0.8804557 0.8545314
vt 0.8847303 0.853054
vt 0.858001 0.8333466
vt 0.8554531 0.8526878
vt 0.8837467 0.8274788
vt 0.8491398 0.8353817
vt 0.8611296 0.7909873
vt 0.8847303 0.8152393
vt 0.8798073 0.7821473
vt 0.8527974 0.783865
vt 0.8659471 0.7759268
vt 0.8553733 0.7768108
vt 0.8964899 0.4995779
vt 0.9049513 0.5113869
vt 0.8985599 0.4739524
vt 0.9108577 0.4709994
vt 0.9020998 0.4684893
vt 0.9044346 0.4647482
vt 0.9246927 0.4696472
vt 0.9107944 0.5207534
vt 0.9306301 0.5223646
vt 0.9172236 0.5287814
vt 0.9328881 0.5142565
vt 0.932007 0.4783935
vt 0.9328881 0.4714299
vt 0.4168641 0.7966362
vt 0.3939356 0.815128
vt 0.4083009 0.8133826
vt 0.3868633 0.7912109
vt 0.3831721 0.8146713
vt 0.3758569 0.8008887
vt 0.3729577 0.813311
vt 0.3779187 0.7669925
vt 0.4061561 0.7816585
vt 0.419438 0.7449698
vt 0.4067371 0.7548299
vt 0.3753572 0.7457642
vt 0.4124916 0.7326803
vt 0.4182663 0.7377207
vt 0.4036938 0.7309828
vt 0.3990381 0.7272999
vt 0.3914003 0.7248147
vt 0.3729577 0.7293351
vt 0.7800965 0.6030101
vt 0.799172 0.5916566
vt 0.7869492 0.5945968
vt 0.8091212 0.6179177
vt 0.8112291 0.5863488
vt 0.8159922 0.583475
vt 0.7832918 0.6359754
vt 0.8102999 0.6350506
vt 0.7853771 0.6480426
vt 0.7907776 0.6730856
vt 0.8159922 0.6715052
vt 0.8091444 0.6738063
vt 0.8392342 0.4490184
vt 0.8334001 0.4320093
vt 0.8328109 0.4456877
vt 0.8558276 0.4278722
vt 0.8626176 0.4425145
vt 0.8700357 0.4259912
vt 0.8583059 0.4588021
vt 0.8758463 0.4577412
vt 0.8732738 0.461594
vt 0.8741627 0.4418249
vt 0.8802742 0.4507632
vt 0.8758622 0.4348047
vt 0.8778083 0.4321354
vt 0.8767844 0.424347
vt 0.8761327 0.4195721
vt 0.8644593 0.4143834
vt 0.859304 0.4100112
vt 0.8469232 0.4075305
vt 0.8344816 0.4184262
vt 0.8328109 0.4103364
vt 0.7931988 0.7728295
vt 0.7982191 0.7718796
vt 0.7854242 0.7368427
vt 0.7854242 0.7196623
vt 0.8155443 0.7261254
vt 0.7897967 0.6865581
vt 0.7975241 0.5224721
vt 0.7936214 0.5500466
vt 0.8080375 0.5511348
vt 0.8121878 0.538298
vt 0.7867219 0.549979
vt 0.7907884 0.509132
vt 0.8118034 0.5043097
vt 0.801738 0.5080721
vt 0.7867219 0.4665488
vt 0.8002041 0.4866678
vt 0.8101861 0.4833596
vt 0.7991014 0.4662437
vt 0.8100384 0.4671131
vt 0.8030419 0.4647483
usemtl MV_RockSpire_Spires
f 1/1/1 3/3/3 2/2/2
f 4/4/4 6/6/6 5/5/5
f 7/7/7 9/9/9 8/8/8
f 10/10/10 12/12/12 11/11/11
f 13/13/13 15/15/15 14/14/14
f 16/16/16 18/18/18 17/17/17
f 19/19/19 21/21/21 20/20/20
f 22/22/22 24/24/24 23/23/23
f 25/25/25 27/27/27 26/26/26
f 28/28/28 30/30/30 29/29/29
f 31/31/31 33/33/33 32/32/32
f 34/34/34 36/36/36 35/35/35
f 37/37/37 39/39/39 38/38/38
f 40/40/40 42/42/42 41/41/41
f 41/41/41 42/42/42 43/43/43
f 41/41/41 43/43/43 44/44/44
f 45/45/45 47/47/47 46/46/46
f 48/48/48 45/45/45 46/46/46
f 49/49/49 48/48/48 46/46/46
f 50/50/50 48/48/48 49/49/49
f 45/45/45 48/48/48 51/51/51
f 50/50/50 51/51/51 48/48/48
f 51/51/51 52/52/52 45/45/45
f 52/52/52 51/51/51 53/53/53
f 52/52/52 53/53/53 54/54/54
f 55/55/55 53/53/53 51/51/51
f 55/55/55 51/51/51 50/50/50
f 53/53/53 56/56/56 54/54/54
f 56/56/56 53/53/53 55/55/55
f 57/57/57 54/54/54 56/56/56
f 54/54/54 57/57/57 58/58/58
f 54/54/54 58/58/58 59/59/59
f 50/50/50 60/60/60 55/55/55
f 55/55/55 61/61/61 56/56/56
f 60/60/60 61/61/61 55/55/55
f 62/62/62 61/61/61 60/60/60
f 50/50/50 63/63/63 60/60/60
f 63/63/63 62/62/62 60/60/60
f 63/63/63 50/50/50 64/64/64
f 61/61/61 65/65/65 56/56/56
f 62/62/62 65/65/65 61/61/61
f 65/65/65 66/66/66 56/56/56
f 63/63/63 64/64/64 67/67/67
f 67/67/67 64/64/64 68/68/68
f 67/67/67 68/68/68 69/69/69
f 67/67/67 70/70/70 63/63/63
f 70/70/70 67/67/67 69/69/69
f 70/70/70 62/62/62 63/63/63
f 70/70/70 69/69/69 71/71/71
f 70/70/70 71/71/71 72/72/72
f 70/70/70 72/72/72 73/73/73
f 70/70/70 73/73/73 62/62/62
f 72/72/72 74/74/74 73/73/73
f 73/73/73 74/74/74 75/75/75
f 73/73/73 75/75/75 76/76/76
f 76/76/76 62/62/62 73/73/73
f 76/76/76 75/75/75 77/77/77
f 76/76/76 77/77/77 62/62/62
f 77/77/77 65/65/65 62/62/62
f 78/78/78 65/65/65 77/77/77
f 78/78/78 77/77/77 79/79/79
f 78/78/78 79/79/79 80/80/80
f 66/66/66 65/65/65 78/78/78
f 81/81/81 78/78/78 80/80/80
f 66/66/66 78/78/78 81/81/81
f 80/80/80 82/82/82 81/81/81
f 82/82/82 83/83/83 81/81/81
f 83/83/83 84/84/84 81/81/81
f 84/84/84 66/66/66 81/81/81
f 66/66/66 84/84/84 85/85/85
f 86/86/86 88/88/88 87/87/87
f 89/89/89 88/88/88 86/86/86
f 89/89/89 86/86/86 90/90/90
f 89/89/89 90/90/90 91/91/91
f 92/92/92 91/91/91 90/90/90
f 92/92/92 93/93/93 91/91/91
f 92/92/92 94/94/94 93/93/93
f 90/90/90 95/95/95 92/92/92
f 95/95/95 94/94/94 92/92/92
f 96/96/96 95/95/95 90/90/90
f 96/96/96 90/90/90 86/86/86
f 95/95/95 97/97/97 94/94/94
f 97/97/97 95/95/95 96/96/96
f 98/98/98 94/94/94 97/97/97
f 98/98/98 97/97/97 99/99/99
f 94/94/94 98/98/98 100/100/100
f 99/99/99 101/101/101 98/98/98
f 97/97/97 96/96/96 102/102/102
f 97/97/97 102/102/102 99/99/99
f 103/103/103 96/96/96 86/86/86
f 102/102/102 96/96/96 103/103/103
f 99/99/99 104/104/104 101/101/101
f 101/101/101 104/104/104 105/105/105
f 106/106/106 104/104/104 99/99/99
f 99/99/99 107/107/107 106/106/106
f 99/99/99 108/108/108 107/107/107
f 108/108/108 99/99/99 102/102/102
f 108/108/108 109/109/109 107/107/107
f 102/102/102 110/110/110 108/108/108
f 102/102/102 103/103/103 110/110/110
f 108/108/108 111/111/111 109/109/109
f 108/108/108 110/110/110 111/111/111
f 111/111/111 112/112/112 109/109/109
f 113/113/113 111/111/111 110/110/110
f 110/110/110 114/114/114 113/113/113
f 103/103/103 114/114/114 110/110/110
f 114/114/114 115/115/115 113/113/113
f 114/114/114 116/116/116 115/115/115
f 115/115/115 116/116/116 117/117/117
f 118/118/118 117/117/117 116/116/116
f 114/114/114 119/119/119 116/116/116
f 118/118/118 116/116/116 119/119/119
f 119/119/119 114/114/114 103/103/103
f 119/119/119 120/120/120 118/118/118
f 119/119/119 103/103/103 121/121/121
f 120/120/120 119/119/119 121/121/121
f 103/103/103 86/86/86 121/121/121
f 122/122/122 120/120/120 121/121/121
f 121/121/121 86/86/86 123/123/123
f 122/122/122 121/121/121 123/123/123
f 122/122/122 123/123/123 124/124/124
f 125/125/125 127/127/127 126/126/126
f 127/127/127 128/128/128 126/126/126
f 129/129/129 131/131/131 130/130/130
f 132/132/132 129/129/129 130/130/130
f 130/130/130 133/133/133 132/132/132
f 132/132/132 133/133/133 134/134/134
f 135/135/135 132/132/132 134/134/134
f 136/136/136 135/135/135 134/134/134
f 134/134/134 137/137/137 136/136/136
f 137/137/137 134/134/134 138/138/138
f 138/138/138 134/134/134 133/133/133
f 133/133/133 139/139/139 138/138/138
f 139/139/139 140/140/140 138/138/138
f 133/133/133 141/141/141 139/139/139
f 133/133/133 130/130/130 141/141/141
f 142/142/142 141/141/141 130/130/130
f 142/142/142 130/130/130 143/143/143
f 143/143/143 130/130/130 144/144/144
f 142/142/142 143/143/143 145/145/145
f 145/145/145 146/146/146 142/142/142
f 143/143/143 147/147/147 145/145/145
f 148/148/148 150/150/150 149/149/149
f 148/148/148 151/151/151 150/150/150
f 151/151/151 148/148/148 152/152/152
f 153/153/153 150/150/150 151/151/151
f 153/153/153 151/151/151 154/154/154
f 151/151/151 155/155/155 154/154/154
f 151/151/151 156/156/156 155/155/155
f 156/156/156 151/151/151 157/157/157
f 152/152/152 158/158/158 151/151/151
f 157/157/157 151/151/151 158/158/158
f 158/158/158 159/159/159 157/157/157
f 158/158/158 160/160/160 159/159/159
f 161/161/161 163/163/163 162/162/162
f 164/164/164 161/161/161 162/162/162
f 164/164/164 165/165/165 161/161/161
f 165/165/165 166/166/166 161/161/161
f 161/161/161 166/166/166 167/167/167
f 167/167/167 166/166/166 168/168/168
f 165/165/165 169/169/169 166/166/166
f 166/166/166 170/170/170 168/168/168
f 169/169/169 170/170/170 166/166/166
f 169/169/169 171/171/171 170/170/170
f 172/172/172 174/174/174 173/173/173
f 172/172/172 175/175/175 174/174/174
f 175/175/175 176/176/176 174/174/174
f 175/175/175 177/177/177 176/176/176
f 176/176/176 177/177/177 178/178/178
f 179/179/179 176/176/176 178/178/178
f 178/178/178 180/180/180 179/179/179
f 181/181/181 180/180/180 178/178/178
f 180/180/180 181/181/181 182/182/182
f 180/180/180 182/182/182 183/183/183
f 179/179/179 180/180/180 184/184/184
f 179/179/179 184/184/184 185/185/185
f 186/186/186 188/188/188 187/187/187
f 189/189/189 186/186/186 187/187/187
f 190/190/190 186/186/186 189/189/189
f 191/191/191 189/189/189 187/187/187
f 192/192/192 189/189/189 191/191/191
f 187/187/187 193/193/193 191/191/191
f 194/194/194 190/190/190 189/189/189
f 192/192/192 194/194/194 189/189/189
f 194/194/194 195/195/195 190/190/190
f 196/196/196 191/191/191 193/193/193
f 196/196/196 193/193/193 197/197/197
f 191/191/191 196/196/196 198/198/198
f 198/198/198 192/192/192 191/191/191
f 198/198/198 199/199/199 192/192/192
f 192/192/192 199/199/199 200/200/200
f 201/201/201 192/192/192 200/200/200
f 201/201/201 202/202/202 192/192/192
f 192/192/192 202/202/202 194/194/194
f 202/202/202 203/203/203 194/194/194
f 194/194/194 204/204/204 195/195/195
f 204/204/204 205/205/205 195/195/195
f 206/206/206 205/205/205 204/204/204
f 207/207/207 206/206/206 204/204/204
f 208/208/208 210/210/210 209/209/209
f 208/208/208 209/209/209 211/211/211
f 209/209/209 212/212/212 211/211/211
f 212/212/212 213/213/213 211/211/211
f 212/212/212 214/214/214 213/213/213
f 212/212/212 215/215/215 214/214/214
f 212/212/212 216/216/216 215/215/215
f 217/217/217 216/216/216 212/212/212
f 218/218/218 214/214/214 215/215/215
f 219/219/219 214/214/214 218/218/218
f 220/220/220 219/219/219 218/218/218
f 217/217/217 221/221/221 216/216/216
f 216/216/216 221/221/221 222/222/222
f 221/221/221 223/223/223 222/222/222
f 221/221/221 224/224/224 223/223/223
f 221/221/221 225/225/225 224/224/224
f 226/226/226 225/225/225 221/221/221
f 221/221/221 217/217/217 226/226/226
f 226/226/226 227/227/227 225/225/225
f 226/226/226 228/228/228 227/227/227
f 226/226/226 217/217/217 229/229/229
f 217/217/217 230/230/230 229/229/229
f 230/230/230 231/231/231 229/229/229
f 229/229/229 231/231/231 232/232/232
f 226/226/226 233/233/233 228/228/228
f 233/233/233 226/226/226 229/229/229
f 234/234/234 228/228/228 233/233/233
f 229/229/229 232/232/232 235/235/235
f 229/229/229 235/235/235 233/233/233
f 234/234/234 233/233/233 235/235/235
f 235/235/235 232/232/232 236/236/236
f 234/234/234 235/235/235 237/237/237
f 235/235/235 236/236/236 238/238/238
f 235/235/235 238/238/238 237/237/237
f 239/239/239 241/241/241 240/240/240
f 242/242/242 239/239/239 240/240/240
f 243/243/243 245/245/245 244/244/244
f 243/243/243 244/244/244 246/246/246
f 246/246/246 244/244/244 247/247/247
f 246/246/246 247/247/247 248/248/248
f 218/218/218 250/250/250 249/249/249
f 250/250/250 218/218/218 251/251/251
f 215/215/215 251/251/251 218/218/218
f 252/252/252 251/251/251 215/215/215
f 215/215/215 253/253/253 252/252/252
f 254/254/254 256/256/256 255/255/255
f 255/255/255 256/256/256 257/257/257
f 258/258/258 260/260/260 259/259/259
f 261/261/261 258/258/258 259/259/259
f 259/259/259 262/262/262 261/261/261
f 263/263/263 261/261/261 262/262/262
f 258/258/258 261/261/261 264/264/264
f 261/261/261 263/263/263 265/265/265
f 261/261/261 265/265/265 264/264/264
f 265/265/265 266/266/266 264/264/264
f 266/266/266 265/265/265 267/267/267
f 265/265/265 268/268/268 267/267/267
f 267/267/267 269/269/269 266/266/266
f 266/266/266 270/270/270 264/264/264
f 270/270/270 271/271/271 264/264/264
f 270/270/270 272/272/272 271/271/271
f 272/272/272 270/270/270 273/273/273
f 270/270/270 266/266/266 273/273/273
f 269/269/269 273/273/273 266/266/266
f 274/274/274 273/273/273 269/269/269
f 275/275/275 273/273/273 274/274/274
f 276/276/276 275/275/275 274/274/274
f 274/274/274 277/277/277 276/276/276
f 274/274/274 278/278/278 277/277/277
f 274/274/274 279/279/279 278/278/278
f 279/279/279 280/280/280 278/278/278
f 274/274/274 281/281/281 279/279/279
f 279/279/279 282/282/282 280/280/280
f 281/281/281 282/282/282 279/279/279
f 281/281/281 283/283/283 282/282/282
f 284/284/284 286/286/286 285/285/285
f 287/287/287 284/284/284 285/285/285
f 287/287/287 285/285/285 288/288/288
f 287/287/287 288/288/288 289/289/289
f 290/290/290 289/289/289 288/288/288
f 290/290/290 288/288/288 291/291/291
f 292/292/292 291/291/291 288/288/288
f 292/292/292 293/293/293 291/291/291
f 292/292/292 288/288/288 294/294/294
f 288/288/288 295/295/295 294/294/294
f 288/288/288 296/296/296 295/295/295
f 292/292/292 297/297/297 293/293/293
f 298/298/298 293/293/293 297/297/297
f 299/299/299 293/293/293 298/298/298
f 300/300/300 293/293/293 299/299/299
f 301/301/301 300/300/300 299/299/299
f 301/301/301 299/299/299 302/302/302
f 301/301/301 303/303/303 300/300/300
f 304/304/304 306/306/306 305/305/305
f 305/305/305 306/306/306 307/307/307
f 307/307/307 306/306/306 308/308/308
f 308/308/308 309/309/309 307/307/307
f 307/307/307 310/310/310 305/305/305
f 305/305/305 310/310/310 311/311/311
f 312/312/312 307/307/307 309/309/309
f 312/312/312 309/309/309 313/313/313
f 314/314/314 312/312/312 313/313/313
f 307/307/307 312/312/312 314/314/314
f 315/315/315 314/314/314 313/313/313
f 315/315/315 316/316/316 314/314/314
f 316/316/316 317/317/317 314/314/314
f 314/314/314 317/317/317 307/307/307
f 317/317/317 318/318/318 307/307/307
f 318/318/318 319/319/319 307/307/307
f 320/320/320 319/319/319 318/318/318
f 310/310/310 307/307/307 321/321/321
f 307/307/307 319/319/319 321/321/321
f 321/321/321 319/319/319 322/322/322
f 310/310/310 321/321/321 323/323/323
f 310/310/310 323/323/323 311/311/311
f 319/319/319 324/324/324 322/322/322
f 319/319/319 320/320/320 324/324/324
f 324/324/324 320/320/320 325/325/325
f 324/324/324 325/325/325 326/326/326
f 323/323/323 327/327/327 311/311/311
f 323/323/323 328/328/328 327/327/327
f 328/328/328 329/329/329 327/327/327
f 330/330/330 311/311/311 327/327/327
f 330/330/330 331/331/331 311/311/311
f 330/330/330 327/327/327 332/332/332
f 332/332/332 327/327/327 329/329/329
f 332/332/332 329/329/329 333/333/333
f 333/333/333 329/329/329 334/334/334
f 333/333/333 334/334/334 335/335/335
f 334/334/334 329/329/329 336/336/336
f 337/337/337 334/334/334 336/336/336
f 338/338/338 340/340/340 339/339/339
f 341/341/341 338/338/338 339/339/339
f 341/341/341 339/339/339 342/342/342
f 341/341/341 342/342/342 343/343/343
f 341/341/341 343/343/343 344/344/344
f 345/345/345 347/347/347 346/346/346
f 346/346/346 348/348/348 345/345/345
f 348/348/348 349/349/349 345/345/345
f 350/350/350 345/345/345 349/349/349
f 350/350/350 349/349/349 351/351/351
f 351/351/351 349/349/349 352/352/352
f 353/353/353 352/352/352 349/349/349
f 349/349/349 348/348/348 354/354/354
f 348/348/348 355/355/355 354/354/354
f 349/349/349 354/354/354 356/356/356
f 356/356/356 357/357/357 349/349/349
f 349/349/349 357/357/357 353/353/353
f 357/357/357 356/356/356 358/358/358
f 358/358/358 359/359/359 357/357/357
f 359/359/359 360/360/360 357/357/357
f 353/353/353 357/357/357 360/360/360
f 361/361/361 353/353/353 360/360/360
f 362/362/362 361/361/361 360/360/360
f 363/363/363 365/365/365 364/364/364
f 366/366/366 365/365/365 363/363/363
f 366/366/366 363/363/363 367/367/367
f 366/366/366 367/367/367 368/368/368
f 369/369/369 365/365/365 366/366/366
f 370/370/370 369/369/369 366/366/366
f 368/368/368 371/371/371 366/366/366
f 371/371/371 370/370/370 366/366/366
f 370/370/370 372/372/372 369/369/369
f 370/370/370 373/373/373 372/372/372
f 374/374/374 370/370/370 371/371/371
f 375/375/375 373/373/373 370/370/370
f 370/370/370 374/374/374 376/376/376
f 376/376/376 375/375/375 370/370/370
f 374/374/374 377/377/377 376/376/376
f 378/378/378 375/375/375 376/376/376
f 379/379/379 381/381/381 380/380/380
f 379/379/379 380/380/380 382/382/382
f 382/382/382 380/380/380 383/383/383
f 384/384/384 382/382/382 383/383/383
f 384/384/384 383/383/383 385/385/385
f 384/384/384 385/385/385 386/386/386
f 387/387/387 389/389/389 388/388/388
f 387/387/387 390/390/390 389/389/389
f 390/390/390 387/387/387 391/391/391
f 391/391/391 387/387/387 392/392/392
f 392/392/392 393/393/393 391/391/391
f 393/393/393 394/394/394 391/391/391
f 395/395/395 391/391/391 394/394/394
f 390/390/390 391/391/391 395/395/395
f 396/396/396 395/395/395 394/394/394
f 395/395/395 396/396/396 397/397/397
f 398/398/398 390/390/390 395/395/395
f 397/397/397 398/398/398 395/395/395
f 399/399/399 390/390/390 398/398/398
f 398/398/398 397/397/397 400/400/400
f 400/400/400 399/399/399 398/398/398
f 401/401/401 403/403/403 402/402/402
f 401/401/401 404/404/404 403/403/403
f 401/401/401 405/405/405 404/404/404
f 406/406/406 405/405/405 401/401/401
f 401/401/401 407/407/407 406/406/406
f 407/407/407 408/408/408 406/406/406
f 409/409/409 411/411/411 410/410/410
f 409/409/409 412/412/412 411/411/411
f 411/411/411 412/412/412 413/413/413
f 412/412/412 409/409/409 414/414/414
f 409/409/409 415/415/415 414/414/414
f 413/413/413 412/412/412 416/416/416
f 417/417/417 413/413/413 416/416/416
f 417/417/417 418/418/418 413/413/413
f 419/419/419 418/418/418 417/417/417
f 418/418/418 420/420/420 413/413/413
f 421/421/421 423/423/423 422/422/422
f 424/424/424 421/421/421 422/422/422
f 422/422/422 425/425/425 424/424/424
f 425/425/425 426/426/426 424/424/424
f 427/427/427 429/429/429 428/428/428
f 427/427/427 430/430/430 429/429/429
f 431/431/431 430/430/430 427/427/427
f 431/431/431 432/432/432 430/430/430
f 432/432/432 433/433/433 430/430/430
f 433/433/433 434/434/434 430/430/430
f 429/429/429 430/430/430 435/435/435
f 434/434/434 435/435/435 430/430/430
f 436/436/436 429/429/429 435/435/435
f 437/437/437 435/435/435 434/434/434
f 437/437/437 436/436/436 435/435/435
f 438/438/438 440/440/440 439/439/439
f 439/439/439 440/440/440 441/441/441
f 439/439/439 441/441/441 442/442/442
f 443/443/443 442/442/442 441/441/441
f 440/440/440 444/444/444 441/441/441
f 445/445/445 441/441/441 444/444/444
f 444/444/444 446/446/446 445/445/445
f 444/444/444 440/440/440 447/447/447
f 446/446/446 444/444/444 447/447/447
f 447/447/447 440/440/440 448/448/448
f 449/449/449 446/446/446 447/447/447
f 450/450/450 449/449/449 447/447/447
f 451/451/451 453/453/453 452/452/452
f 452/452/452 454/454/454 451/451/451
f 454/454/454 455/455/455 451/451/451
f 456/456/456 454/454/454 452/452/452
f 456/456/456 457/457/457 454/454/454
f 457/457/457 458/458/458 454/454/454
f 459/459/459 461/461/461 460/460/460
f 459/459/459 462/462/462 461/461/461
f 462/462/462 459/459/459 463/463/463
f 464/464/464 461/461/461 462/462/462
f 463/463/463 465/465/465 462/462/462
f 462/462/462 466/466/466 464/464/464
f 462/462/462 465/465/465 466/466/466
f 466/466/466 467/467/467 464/464/464
f 468/468/468 467/467/467 466/466/466
f 465/465/465 469/469/469 466/466/466
f 466/466/466 470/470/470 468/468/468
f 466/466/466 469/469/469 470/470/470
f 471/471/471 470/470/470 469/469/469
f 472/472/472 474/474/474 473/473/473
f 474/474/474 475/475/475 473/473/473
f 474/474/474 476/476/476 475/475/475
f 477/477/477 475/475/475 476/476/476
f 477/477/477 478/478/478 475/475/475
f 478/478/478 473/473/473 475/475/475
f 473/473/473 478/478/478 479/479/479
f 480/480/480 479/479/479 478/478/478
f 480/480/480 481/481/481 479/479/479
f 482/482/482 480/480/480 478/478/478
f 483/483/483 482/482/482 478/478/478
f 478/478/478 484/484/484 483/483/483
f 485/485/485 487/487/487 486/486/486
f 488/488/488 485/485/485 486/486/486
f 486/486/486 489/489/489 488/488/488
f 490/490/490 488/488/488 489/489/489
f 490/490/490 489/489/489 491/491/491
f 488/488/488 490/490/490 492/492/492
f 485/485/485 488/488/488 493/493/493
f 492/492/492 493/493/493 488/488/488
f 485/485/485 493/493/493 494/494/494
f 492/492/492 495/495/495 493/493/493
f 493/493/493 495/495/495 494/494/494
f 495/495/495 492/492/492 496/496/496
f 494/494/494 495/495/495 497/497/497
f 497/497/497 498/498/498 494/494/494
f 495/495/495 496/496/496 499/499/499
f 500/500/500 499/499/499 496/496/496
f 496/496/496 501/501/501 500/500/500
f 496/496/496 502/502/502 501/501/501
f 503/503/503 505/505/505 504/504/504
f 504/504/504 506/506/506 503/503/503
f 504/504/504 507/507/507 506/506/506
f 506/506/506 507/507/507 508/508/508
f 509/509/509 503/503/503 506/506/506
f 509/509/509 506/506/506 510/510/510
f 511/511/511 509/509/509 510/510/510
f 511/511/511 510/510/510 512/512/512
f 510/510/510 513/513/513 512/512/512
f 512/512/512 513/513/513 514/514/514
f 515/515/515 517/517/517 516/516/516
f 518/518/518 515/515/515 516/516/516
f 518/518/518 519/519/519 515/515/515
f 519/519/519 518/518/518 520/520/520
f 521/521/521 515/515/515 519/519/519
f 519/519/519 522/522/522 521/521/521
f 522/522/522 523/523/523 521/521/521
f 524/524/524 522/522/522 519/519/519
f 519/519/519 520/520/520 524/524/524
f 522/522/522 524/524/524 525/525/525
f 524/524/524 526/526/526 525/525/525
f 520/520/520 526/526/526 524/524/524
f 526/526/526 527/527/527 525/525/525
f 527/527/527 526/526/526 520/520/520
f 528/528/528 527/527/527 520/520/520
f 529/529/529 528/528/528 520/520/520
f 529/529/529 520/520/520 530/530/530
f 518/518/518 530/530/530 520/520/520
f 531/531/531 530/530/530 518/518/518
f 531/531/531 518/518/518 516/516/516
f 531/531/531 516/516/516 532/532/532
f 532/532/532 516/516/516 533/533/533
f 532/532/532 533/533/533 534/534/534
f 535/535/535 537/537/537 536/536/536
f 537/537/537 538/538/538 536/536/536
f 536/536/536 538/538/538 539/539/539
f 538/538/538 540/540/540 539/539/539
f 541/541/541 543/543/543 542/542/542
f 543/543/543 541/541/541 544/544/544
f 541/541/541 542/542/542 545/545/545
f 541/541/541 545/545/545 546/546/546
f 544/544/544 541/541/541 547/547/547
f 541/541/541 546/546/546 548/548/548
f 541/541/541 548/548/548 547/547/547
f 548/548/548 546/546/546 549/549/549
f 547/547/547 548/548/548 550/550/550
f 548/548/548 549/549/549 550/550/550
f 547/547/547 550/550/550 551/551/551
f 550/550/550 549/549/549 552/552/552
f 553/553/553 551/551/551 550/550/550
f 550/550/550 552/552/552 554/554/554
f 550/550/550 554/554/554 553/553/553
