mtllib P_RockClassic1.mtl
v -0.1916908 0.01256455 -0.3662583 1 1 1
v -0.1095936 -0.2801414 -0.2268416 1 1 1
v 0.03383142 -0.2031491 -0.3364713 1 1 1
v -0.02786138 -0.03329656 -0.3955569 1 1 1
v 0.15326 -0.185961 -0.2721419 1 1 1
v 0.1137087 0.07605205 -0.313685 1 1 1
v -0.005778425 0.1950618 -0.3013656 1 1 1
v 0.2788237 0.2326225 -0.1207732 1 1 1
v -0.1698513 0.3096282 -0.04387461 1 1 1
v -0.2747014 0.08444832 -0.203092 1 1 1
v -0.2643489 0.2472551 -0.04997403 1 1 1
v -0.1408237 -0.1720206 0.3320841 1 1 1
v -0.1260401 -0.2882136 0.1461785 1 1 1
v -0.2029837 -0.1091208 0.3322253 1 1 1
v -0.3583425 -0.04244757 0.02707453 1 1 1
v -0.202524 -0.2906446 -0.1108449 1 1 1
v 0.04992021 -0.3088387 0.0684441 1 1 1
v 0.09948187 -0.3230439 -0.1176231 1 1 1
v -0.1095936 -0.2801414 -0.2268416 1 1 1
v -0.2686915 -0.2120451 -0.1530671 1 1 1
v -0.1916908 0.01256455 -0.3662583 1 1 1
v -0.2747014 0.08444832 -0.203092 1 1 1
v -0.1095936 -0.2801414 -0.2268416 1 1 1
v 0.09948187 -0.3230439 -0.1176231 1 1 1
v 0.03383142 -0.2031491 -0.3364713 1 1 1
v 0.2224559 -0.2879097 -0.1018955 1 1 1
v 0.15326 -0.185961 -0.2721419 1 1 1
v 0.04992021 -0.3088387 0.0684441 1 1 1
v 0.2114151 0.004668946 -0.187617 1 1 1
v 0.1137087 0.07605205 -0.313685 1 1 1
v 0.2788237 0.2326225 -0.1207732 1 1 1
v 0.3699259 0.1620489 0.04583473 1 1 1
v 0.3313269 -0.2182149 0.0958534 1 1 1
v 0.2918062 -0.1487222 0.2448477 1 1 1
v 0.3461006 0.2162998 0.08278692 1 1 1
v 0.2788237 0.2326225 -0.1207732 1 1 1
v 0.3699259 0.1620489 0.04583473 1 1 1
v 0.1637786 0.3268755 -0.06993625 1 1 1
v -0.005778425 0.1950618 -0.3013656 1 1 1
v 0.2024537 0.3102616 0.09433353 1 1 1
v -0.1698513 0.3096282 -0.04387461 1 1 1
v 0.03105638 0.2775334 0.2048238 1 1 1
v -0.1132128 0.28704 0.1365101 1 1 1
v 0.2024537 0.3102616 0.09433353 1 1 1
v 0.3461006 0.2162998 0.08278692 1 1 1
v 0.03105638 0.2775334 0.2048238 1 1 1
v 0.2810278 -0.003609432 0.2482098 1 1 1
v 0.3699259 0.1620489 0.04583473 1 1 1
v -0.01977948 0.1058456 0.353642 1 1 1
v 0.2918062 -0.1487222 0.2448477 1 1 1
v 0.01821623 -0.1199652 0.3606414 1 1 1
v -0.1713904 0.04996169 0.3402578 1 1 1
v -0.2029837 -0.1091208 0.3322253 1 1 1
v -0.1408237 -0.1720206 0.3320841 1 1 1
v 0.04992021 -0.3088387 0.0684441 1 1 1
v -0.1260401 -0.2882136 0.1461785 1 1 1
v 0.03105638 0.2775334 0.2048238 1 1 1
v -0.01977948 0.1058456 0.353642 1 1 1
v -0.1132128 0.28704 0.1365101 1 1 1
v -0.2368264 0.1776921 0.1851573 1 1 1
v -0.1698513 0.3096282 -0.04387461 1 1 1
v -0.1713904 0.04996169 0.3402578 1 1 1
v -0.2029837 -0.1091208 0.3322253 1 1 1
v -0.2643489 0.2472551 -0.04997403 1 1 1
v -0.3583425 -0.04244757 0.02707453 1 1 1
v -0.314149 0.1514838 0.07211329 1 1 1
v -0.2747014 0.08444832 -0.203092 1 1 1
vn -0.55568 0.1019698 -0.8251194
vn -0.2663041 -0.7941536 -0.546262
vn 0.1452277 -0.5369446 -0.8310232
vn 0.08324708 -0.03631213 -0.9958671
vn 0.6687626 -0.3276933 -0.6673633
vn 0.5453643 0.2073322 -0.8121522
vn -0.009463899 0.660162 -0.7510636
vn 0.7182257 0.4588279 -0.5230955
vn -0.3659889 0.9174802 -0.1558276
vn -0.8313211 0.2973416 -0.4695672
vn -0.7104571 0.6715942 -0.2102666
vn -0.2660111 -0.6170442 0.7406043
vn -0.3280973 -0.8816285 0.3392396
vn -0.6410695 -0.2477649 0.7263901
vn -0.9852644 -0.1465475 0.08819234
vn -0.5098674 -0.8562505 -0.08288759
vn 0.09721326 -0.9566058 0.2746907
vn 0.1469645 -0.9687308 -0.1999048
vn -0.2663041 -0.7941536 -0.546262
vn -0.811202 -0.4836274 -0.3287182
vn -0.55568 0.1019698 -0.8251194
vn -0.8313211 0.2973416 -0.4695672
vn -0.2663041 -0.7941536 -0.546262
vn 0.1469645 -0.9687308 -0.1999048
vn 0.1452277 -0.5369446 -0.8310232
vn 0.652993 -0.700998 -0.2867089
vn 0.6687626 -0.3276933 -0.6673633
vn 0.09721326 -0.9566058 0.2746907
vn 0.8373409 -0.06568114 -0.5427212
vn 0.5453643 0.2073322 -0.8121522
vn 0.7182257 0.4588279 -0.5230955
vn 0.9886108 0.1311577 -0.07379946
vn 0.8052711 -0.585431 0.09385535
vn 0.6185774 -0.4020789 0.6750516
vn 0.7611681 0.5577286 0.3310015
vn 0.7182257 0.4588279 -0.5230955
vn 0.9886108 0.1311577 -0.07379946
vn 0.2272706 0.9422466 -0.2460072
vn -0.009463899 0.660162 -0.7510636
vn 0.3176837 0.8742847 0.3670195
vn -0.3659889 0.9174802 -0.1558276
vn 0.07290313 0.8021857 0.5926072
vn -0.2908702 0.8723083 0.3930303
vn 0.3176837 0.8742847 0.3670195
vn 0.7611681 0.5577286 0.3310015
vn 0.07290313 0.8021857 0.5926072
vn 0.6290082 0.1748613 0.7574776
vn 0.9886108 0.1311577 -0.07379946
vn 0.05967489 0.4071114 0.9114271
vn 0.6185774 -0.4020789 0.6750516
vn 0.1750347 -0.3552839 0.9182244
vn -0.4928826 0.2773376 0.8247125
vn -0.6410695 -0.2477649 0.7263901
vn -0.2660111 -0.6170442 0.7406043
vn 0.09721326 -0.9566058 0.2746907
vn -0.3280973 -0.8816285 0.3392396
vn 0.07290313 0.8021857 0.5926072
vn 0.05967489 0.4071114 0.9114271
vn -0.2908702 0.8723083 0.3930303
vn -0.6572646 0.5294309 0.5363826
vn -0.3659889 0.9174802 -0.1558276
vn -0.4928826 0.2773376 0.8247125
vn -0.6410695 -0.2477649 0.7263901
vn -0.7104571 0.6715942 -0.2102666
vn -0.9852644 -0.1465475 0.08819234
vn -0.9009362 0.3643513 0.2357159
vn -0.8313211 0.2973416 -0.4695672
vt 0.7677386 0.301958
vt 0.7629949 0.2877298
vt 0.7546681 0.2922733
vt 0.7585255 0.300541
vt 0.7487603 0.2946148
vt 0.7526449 0.3082384
vt 0.7602243 0.3133583
vt 0.7471522 0.319344
vt 0.7725672 0.319344
vt 0.7741303 0.3056143
vt 0.7767754 0.3151468
vt 0.7415729 0.1342413
vt 0.7423546 0.1455127
vt 0.7458913 0.132185
vt 0.7610342 0.1421601
vt 0.7518139 0.1561027
vt 0.7377931 0.1531051
vt 0.7408882 0.1631989
vt 0.7523265 0.1631989
vt 0.7576019 0.1551021
vt 0.7685101 0.1623318
vt 0.7686871 0.1520039
vt 0.8644543 0.1228171
vt 0.8639578 0.132854
vt 0.8742788 0.124143
vt 0.8678628 0.1380818
vt 0.8758191 0.1308041
vt 0.8567856 0.139169
vt 0.8810909 0.1397493
vt 0.8854976 0.1328074
vt 0.8884059 0.148865
vt 0.8823533 0.1574739
vt 0.8659192 0.1511265
vt 0.8621435 0.1574739
vt 0.7938595 0.2885499
vt 0.8009156 0.2983413
vt 0.7971945 0.2877298
vt 0.7937772 0.302982
vt 0.7998346 0.3152733
vt 0.7879373 0.2957967
vt 0.7825466 0.3152732
vt 0.7780962 0.2987136
vt 0.7767755 0.3069605
vt 0.9220216 0.8378589
vt 0.9128679 0.8354105
vt 0.9282223 0.8458207
vt 0.9082892 0.8466113
vt 0.9091204 0.8363882
vt 0.9248543 0.8544997
vt 0.9019729 0.8518205
vt 0.914814 0.8616886
vt 0.9282223 0.8624749
vt 0.9231499 0.869681
vt 0.9185105 0.8698828
vt 0.9035875 0.8676593
vt 0.9119201 0.8735465
vt 0.7686871 0.1565006
vt 0.7786324 0.1643967
vt 0.772491 0.1503412
vt 0.7811201 0.1514315
vt 0.77248 0.1402221
vt 0.7855425 0.161298
vt 0.7936376 0.1613555
vt 0.7779981 0.1391094
vt 0.7936376 0.143093
vt 0.7840948 0.1446264
vt 0.7849364 0.132185
usemtl MV_RockClassic_Rocks
f 1/1/1 3/3/3 2/2/2
f 4/4/4 3/3/3 1/1/1
f 3/3/3 4/4/4 5/5/5
f 6/6/6 5/5/5 4/4/4
f 6/6/6 4/4/4 7/7/7
f 7/7/7 4/4/4 1/1/1
f 7/7/7 8/8/8 6/6/6
f 1/1/1 9/9/9 7/7/7
f 1/1/1 10/10/10 9/9/9
f 11/11/11 9/9/9 10/10/10
f 12/12/12 14/14/14 13/13/13
f 15/15/15 13/13/13 14/14/14
f 15/15/15 16/16/16 13/13/13
f 16/16/16 17/17/17 13/13/13
f 18/18/18 17/17/17 16/16/16
f 18/18/18 16/16/16 19/19/19
f 19/19/19 16/16/16 20/20/20
f 15/15/15 20/20/20 16/16/16
f 21/21/21 19/19/19 20/20/20
f 21/21/21 20/20/20 15/15/15
f 21/21/21 15/15/15 22/22/22
f 23/23/23 25/25/25 24/24/24
f 25/25/25 26/26/26 24/24/24
f 26/26/26 25/25/25 27/27/27
f 26/26/26 28/28/28 24/24/24
f 29/29/29 26/26/26 27/27/27
f 27/27/27 30/30/30 29/29/29
f 29/29/29 30/30/30 31/31/31
f 31/31/31 32/32/32 29/29/29
f 26/26/26 33/33/33 28/28/28
f 26/26/26 29/29/29 33/33/33
f 33/33/33 29/29/29 32/32/32
f 34/34/34 28/28/28 33/33/33
f 32/32/32 34/34/34 33/33/33
f 35/35/35 37/37/37 36/36/36
f 36/36/36 38/38/38 35/35/35
f 39/39/39 38/38/38 36/36/36
f 40/40/40 35/35/35 38/38/38
f 39/39/39 41/41/41 38/38/38
f 40/40/40 38/38/38 42/42/42
f 43/43/43 38/38/38 41/41/41
f 38/38/38 43/43/43 42/42/42
f 44/44/44 46/46/46 45/45/45
f 45/45/45 46/46/46 47/47/47
f 45/45/45 47/47/47 48/48/48
f 49/49/49 47/47/47 46/46/46
f 50/50/50 48/48/48 47/47/47
f 49/49/49 50/50/50 47/47/47
f 49/49/49 51/51/51 50/50/50
f 51/51/51 49/49/49 52/52/52
f 52/52/52 53/53/53 51/51/51
f 51/51/51 53/53/53 54/54/54
f 50/50/50 51/51/51 54/54/54
f 54/54/54 55/55/55 50/50/50
f 56/56/56 55/55/55 54/54/54
f 57/57/57 59/59/59 58/58/58
f 59/59/59 60/60/60 58/58/58
f 59/59/59 61/61/61 60/60/60
f 60/60/60 62/62/62 58/58/58
f 62/62/62 60/60/60 63/63/63
f 61/61/61 64/64/64 60/60/60
f 60/60/60 65/65/65 63/63/63
f 66/66/66 60/60/60 64/64/64
f 60/60/60 66/66/66 65/65/65
f 64/64/64 67/67/67 66/66/66
f 65/65/65 66/66/66 67/67/67
