mtllib P_RockDesert_Hoodoo11.mtl
v 0.4253032 6.164798 1.579671 1 1 1
v -0.6121132 5.949261 1.574939 1 1 1
v -1.009399 6.084574 1.747826 1 1 1
v 1.750867 4.517387 0.01945024 1 1 1
v 1.455987 4.299142 1.559242 1 1 1
v -0.2561229 4.255989 2.106257 1 1 1
v -0.2561229 4.298911 0.01945024 1 1 1
v 1.43548 4.517387 -1.672152 1 1 1
v -1.241453 4.366462 1.54945 1 1 1
v -0.2561229 4.298911 -2.018014 1 1 1
v -1.680692 4.433932 0.01945024 1 1 1
v -1.320802 4.161403 -1.800332 1 1 1
v -1.704441 4.119693 -1.408781 1 1 1
v -1.320802 4.161403 -1.800332 1 1 1
v -1.704441 4.119693 -1.408781 1 1 1
v -1.999878 3.698397 -1.311803 1 1 1
v -1.918676 3.230813 -1.642886 1 1 1
v -1.805429 2.592391 -1.507074 1 1 1
v -0.2743447 2.832736 -1.826249 1 1 1
v -0.2561229 4.298911 -2.018014 1 1 1
v 1.43548 4.517387 -1.672152 1 1 1
v -1.863996 1.555762 -1.588423 1 1 1
v 1.261831 2.946731 -1.512165 1 1 1
v -0.2561229 1.64615 -1.917166 1 1 1
v -2.040675 0.4111003 -1.743334 1 1 1
v 1.35175 1.736537 -1.588423 1 1 1
v -0.2740034 0.4539561 -2.104546 1 1 1
v 1.492668 0.4968114 -1.743334 1 1 1
v -2.428385 -0.7881463 -2.189754 1 1 1
v -0.2291038 -0.7881465 -2.639416 1 1 1
v 1.970177 -0.7881463 -2.189754 1 1 1
v 1.964764 -1.952249 -2.189572 1 1 1
v -0.2323247 -1.907757 -2.639329 1 1 1
v 1.687093 -4.008307 -1.948108 1 1 1
v -2.415955 -1.862099 -2.186432 1 1 1
v -0.2984059 -4.486035 -2.294383 1 1 1
v -2.160116 -4.579308 -1.87308 1 1 1
v 1.261831 2.946731 -1.512165 1 1 1
v 1.750867 4.517387 0.01945024 1 1 1
v 1.43548 4.517387 -1.672152 1 1 1
v 1.54824 2.946731 0.02401005 1 1 1
v 1.455987 4.299142 1.559242 1 1 1
v 1.35175 1.736537 -1.588423 1 1 1
v 1.270496 2.870826 1.496042 1 1 1
v 1.610828 1.740409 0.2282376 1 1 1
v 1.492668 0.4968114 -1.743334 1 1 1
v 1.35175 1.736537 1.627323 1 1 1
v 1.778606 0.5006838 0.2589704 1 1 1
v 1.492668 0.4968114 1.790008 1 1 1
v 1.970177 -0.7881463 -2.189754 1 1 1
v 2.331964 -0.7842741 0.3333681 1 1 1
v 1.970177 -0.7881463 2.208808 1 1 1
v 1.969686 -1.942865 2.202017 1 1 1
v 2.345265 -1.951294 0.3342022 1 1 1
v 1.664401 -4.052412 1.97999 1 1 1
v 1.964764 -1.952249 -2.189572 1 1 1
v 2.012022 -4.310359 0.307162 1 1 1
v 1.687093 -4.008307 -1.948108 1 1 1
v 1.577698 -4.652264 0.08882469 1 1 1
v 1.331576 -4.510084 -1.477201 1 1 1
v -0.2561229 4.255989 2.106257 1 1 1
v -1.21341 3.978366 1.853373 1 1 1
v -1.241453 4.366462 1.54945 1 1 1
v -0.2561229 3.958152 2.33618 1 1 1
v 1.455987 4.299142 1.559242 1 1 1
v 1.270496 2.870826 1.496042 1 1 1
v -0.2746562 2.714222 2.1595 1 1 1
v -1.21778 2.792715 1.751165 1 1 1
v 1.35175 1.736537 1.627323 1 1 1
v -0.2025435 1.626603 2.15135 1 1 1
v -1.311082 1.816086 1.883441 1 1 1
v 1.492668 0.4968114 1.790008 1 1 1
v -0.2201032 0.4336044 2.335667 1 1 1
v -1.638002 0.5344492 2.101392 1 1 1
v 1.970177 -0.7881463 2.208808 1 1 1
v -0.1189238 -0.6317129 2.582901 1 1 1
v -2.12068 -0.7883189 2.624763 1 1 1
v -2.271321 0.5341882 1.528399 1 1 1
v -2.970186 -0.7669501 1.944709 1 1 1
v -2.969395 -1.822282 1.941553 1 1 1
v -2.105715 -1.858984 2.634478 1 1 1
v -2.578809 -4.775819 1.80508 1 1 1
v -1.993079 -4.797124 2.232168 1 1 1
v -0.1638288 -1.721257 2.720385 1 1 1
v 1.969686 -1.942865 2.202017 1 1 1
v -0.3050429 -4.364867 2.383357 1 1 1
v 1.664401 -4.052412 1.97999 1 1 1
v -0.3424593 -4.690176 2.100346 1 1 1
v 1.218661 -4.605792 1.713381 1 1 1
v -1.999878 3.698397 -1.311803 1 1 1
v -1.704441 4.119693 -1.408781 1 1 1
v -1.680692 4.433932 0.01945024 1 1 1
v -1.958578 4.020011 0.01945024 1 1 1
v -1.241453 4.366462 1.54945 1 1 1
v -1.537328 3.930146 1.38742 1 1 1
v -1.21341 3.978366 1.853373 1 1 1
v -1.21778 2.792715 1.751165 1 1 1
v -1.619044 2.767057 1.271509 1 1 1
v -1.311082 1.816086 1.883441 1 1 1
v -2.174536 2.769923 -0.01088083 1 1 1
v -1.828619 1.794954 1.329928 1 1 1
v -1.638002 0.5344492 2.101392 1 1 1
v -2.271321 0.5341882 1.528399 1 1 1
v -2.012271 2.621969 -0.9666376 1 1 1
v -1.918676 3.230813 -1.642886 1 1 1
v -1.805429 2.592391 -1.507074 1 1 1
v -2.290771 1.707176 0.07717246 1 1 1
v -2.215771 1.641604 -0.8186339 1 1 1
v -1.863996 1.555762 -1.588423 1 1 1
v -2.773621 0.4829333 -0.009979233 1 1 1
v -2.970186 -0.7669501 1.944709 1 1 1
v -2.463234 0.4624902 -0.8988408 1 1 1
v -2.040675 0.4111003 -1.743334 1 1 1
v -3.302928 -0.8090985 0.007480828 1 1 1
v -2.988475 -0.7647383 -1.139715 1 1 1
v -2.428385 -0.7881463 -2.189754 1 1 1
v -2.415955 -1.862099 -2.186432 1 1 1
v -2.995315 -1.820916 -1.139053 1 1 1
v -2.160116 -4.579308 -1.87308 1 1 1
v -2.681488 -4.493298 -0.8872461 1 1 1
v -3.302945 -1.858721 0.008956637 1 1 1
v -2.969395 -1.822282 1.941553 1 1 1
v -2.914627 -4.618451 0.1152761 1 1 1
v -2.578809 -4.775819 1.80508 1 1 1
v -1.009399 6.084574 1.747826 1 1 1
v -1.283564 6.270164 1.301438 1 1 1
v -1.328555 6.36161 1.619392 1 1 1
v -1.440596 6.741064 1.568388 1 1 1
v -1.372356 6.869514 1.647405 1 1 1
v -1.415941 6.928592 1.489123 1 1 1
v -1.480295 6.872143 1.330153 1 1 1
v -1.335576 6.4435 0.636244 1 1 1
v -1.477908 6.8333 0.5859026 1 1 1
v -1.36679 6.527368 0.5319957 1 1 1
v -1.328555 6.36161 1.619392 1 1 1
v -0.3200069 6.307598 2.09886 1 1 1
v -1.009399 6.084574 1.747826 1 1 1
v -0.7532251 6.796438 1.940285 1 1 1
v -1.372356 6.869514 1.647405 1 1 1
v -1.107638 6.921998 1.766337 1 1 1
v 0.08904298 6.794781 2.030603 1 1 1
v 0.2109047 6.589531 2.028082 1 1 1
v -0.01157621 6.37213 2.070652 1 1 1
v 0.4097182 6.364336 1.77341 1 1 1
v 0.4253032 6.164798 1.579671 1 1 1
v 0.6798629 6.362849 1.494699 1 1 1
v 0.4835048 6.696656 1.500082 1 1 1
v 0.4243147 6.638766 0.08927778 1 1 1
v 0.366875 6.507248 0.01076376 1 1 1
v 0.5014307 6.139246 0.4373088 1 1 1
v 0.652357 6.595696 0.5919305 1 1 1
v 0.6843074 6.145243 1.247046 1 1 1
v 0.7354178 6.522964 1.317852 1 1 1
v 0.6798629 6.362849 1.494699 1 1 1
v 0.4835048 6.696656 1.500082 1 1 1
v 0.4253032 6.164798 1.579671 1 1 1
v 0.3264374 6.141465 0.35829 1 1 1
v 0.5014307 6.139246 0.4373088 1 1 1
v 0.366875 6.507248 0.01076376 1 1 1
v -0.2876803 6.044311 0.5220965 1 1 1
v 0.6843074 6.145243 1.247046 1 1 1
v -0.7659566 6.238803 0.2687135 1 1 1
v -0.7629602 6.310357 0.1780207 1 1 1
v -1.36679 6.527368 0.5319957 1 1 1
v -1.335576 6.4435 0.636244 1 1 1
v -1.283564 6.270164 1.301438 1 1 1
v -0.6121132 5.949261 1.574939 1 1 1
v 0.4253032 6.164798 1.579671 1 1 1
v -1.009399 6.084574 1.747826 1 1 1
v -1.36679 6.527368 0.5319957 1 1 1
v -1.296287 6.898499 0.4871508 1 1 1
v -1.477908 6.8333 0.5859026 1 1 1
v -0.9761564 6.872455 0.2971143 1 1 1
v -0.0224113 6.631723 -0.001769876 1 1 1
v -0.401548 6.824932 0.08246871 1 1 1
v -0.05306865 6.75704 0.04600391 1 1 1
v -0.7629602 6.310357 0.1780207 1 1 1
v 0.1654489 6.761144 0.07715471 1 1 1
v 0.09933746 6.58483 -0.007352683 1 1 1
v 0.3264374 6.141465 0.35829 1 1 1
v 0.4243147 6.638766 0.08927778 1 1 1
v 0.366875 6.507248 0.01076376 1 1 1
v 0.08904298 6.794781 2.030603 1 1 1
v 0.4835048 6.696656 1.500082 1 1 1
v 0.2109047 6.589531 2.028082 1 1 1
v 0.4097182 6.364336 1.77341 1 1 1
v 0.4253032 6.164798 1.579671 1 1 1
v -1.009399 6.084574 1.747826 1 1 1
v -0.01157621 6.37213 2.070652 1 1 1
v -0.3200069 6.307598 2.09886 1 1 1
v 0.7354178 6.522964 1.317852 1 1 1
v 0.4835048 6.696656 1.500082 1 1 1
v 0.652357 6.595696 0.5919305 1 1 1
v 0.4243147 6.638766 0.08927778 1 1 1
v -0.08096434 6.930212 0.7469988 1 1 1
v 0.1654489 6.761144 0.07715471 1 1 1
v -0.05306865 6.75704 0.04600391 1 1 1
v -0.401548 6.824932 0.08246871 1 1 1
v -0.9761564 6.872455 0.2971143 1 1 1
v -1.296287 6.898499 0.4871508 1 1 1
v -1.157894 7.063634 1.397438 1 1 1
v -1.477908 6.8333 0.5859026 1 1 1
v -1.480295 6.872143 1.330153 1 1 1
v -1.415941 6.928592 1.489123 1 1 1
v -0.1792556 6.923623 1.87706 1 1 1
v 0.08904298 6.794781 2.030603 1 1 1
v -0.7532251 6.796438 1.940285 1 1 1
v -1.107638 6.921998 1.766337 1 1 1
v -1.372356 6.869514 1.647405 1 1 1
v -0.9060256 7.079695 1.481613 1 1 1
v -0.8520936 7.013287 1.703151 1 1 1
v 0.09428319 4.500644 1.525278 1 1 1
v -0.8759521 4.565768 1.402912 1 1 1
v -0.975485 4.972995 1.773691 1 1 1
v 0.02561051 5.033257 2.001563 1 1 1
v 0.8930484 4.562975 1.431107 1 1 1
v -0.9749501 5.688617 1.773623 1 1 1
v 1.025369 5.123121 1.786828 1 1 1
v 1.793881 4.664765 1.212318 1 1 1
v 0.03316933 5.706001 2.004723 1 1 1
v -0.9175121 6.043006 1.642751 1 1 1
v 0.2197656 6.049264 1.650128 1 1 1
v 1.035463 5.824697 1.789606 1 1 1
v 0.8828022 6.381322 1.507265 1 1 1
v 2.090786 5.44275 1.486902 1 1 1
v 2.42723 4.939723 1.109063 1 1 1
v 2.705706 5.226308 1.098237 1 1 1
v 2.930511 5.827095 1.184594 1 1 1
v 2.085864 6.122143 1.511034 1 1 1
v 1.798668 6.465788 1.390114 1 1 1
v 2.930511 6.290732 1.184594 1 1 1
v 2.78109 6.656281 1.112544 1 1 1
v -1.481624 4.311712 -0.4877468 1 1 1
v -1.448622 4.241355 -1.424163 1 1 1
v -1.62243 4.979346 -1.507926 1 1 1
v -1.776623 4.996685 -0.5232913 1 1 1
v -1.262193 4.303744 0.7564322 1 1 1
v -1.521883 5.880954 -1.449148 1 1 1
v -1.540453 4.974032 0.8407763 1 1 1
v -0.8759521 4.565768 1.402912 1 1 1
v -0.975485 4.972995 1.773691 1 1 1
v -1.725514 5.826565 -0.5152828 1 1 1
v -1.163675 6.655074 -1.267433 1 1 1
v -1.308665 6.544872 -0.4511336 1 1 1
v -1.181091 6.479177 0.2289798 1 1 1
v -1.488286 5.802752 0.8479738 1 1 1
v -0.9749501 5.688617 1.773623 1 1 1
v -1.115066 6.297186 0.7330847 1 1 1
v -0.9175121 6.043006 1.642751 1 1 1
v -1.521883 5.880954 -1.449148 1 1 1
v -0.4813419 6.601646 -1.814753 1 1 1
v -1.163675 6.655074 -1.267433 1 1 1
v -0.653956 5.839478 -2.010802 1 1 1
v 0.4636547 6.66369 -2.052354 1 1 1
v -1.62243 4.979346 -1.507926 1 1 1
v 0.4134111 5.92853 -2.218925 1 1 1
v 1.662155 6.909485 -2.119801 1 1 1
v -0.656307 5.004224 -2.020575 1 1 1
v 1.741662 6.214951 -2.308622 1 1 1
v 2.84821 6.918185 -2.166045 1 1 1
v 3.00819 6.417241 -2.327554 1 1 1
v -0.7937091 4.318472 -1.742199 1 1 1
v -1.448622 4.241355 -1.424163 1 1 1
v -0.5582477 4.533606 -1.915782 1 1 1
v 0.4134111 5.097954 -2.218925 1 1 1
v 0.447388 4.624644 -2.106244 1 1 1
v 1.741662 5.384376 -2.308622 1 1 1
v 3.00819 5.781874 -2.327554 1 1 1
v 1.687588 4.881009 -2.180201 1 1 1
v 2.913724 5.429633 -2.232184 1 1 1
v -1.262193 4.303744 0.7564322 1 1 1
v -0.8759521 4.565768 1.402912 1 1 1
v 0.09428319 4.500644 1.525278 1 1 1
v -0.117098 4.234946 0.6226774 1 1 1
v -1.481624 4.311712 -0.4877468 1 1 1
v 0.8930484 4.562975 1.431107 1 1 1
v -0.3351012 4.230429 -0.6220101 1 1 1
v -1.448622 4.241355 -1.424163 1 1 1
v 0.8472788 4.309933 0.4936887 1 1 1
v 1.793881 4.664765 1.212318 1 1 1
v -0.4827781 4.326407 -1.622078 1 1 1
v -0.7937091 4.318472 -1.742199 1 1 1
v -0.5582477 4.533606 -1.915782 1 1 1
v 1.973916 4.480835 0.2373715 1 1 1
v 2.42723 4.939723 1.109063 1 1 1
v 2.519215 4.599854 -0.1275316 1 1 1
v 0.6217156 4.305559 -0.7684706 1 1 1
v 0.4923095 4.412699 -1.808239 1 1 1
v 0.447388 4.624644 -2.106244 1 1 1
v 1.869569 4.688003 -0.9872043 1 1 1
v 1.712287 4.687333 -1.874045 1 1 1
v 1.687588 4.881009 -2.180201 1 1 1
v 2.105153 4.798238 -1.054189 1 1 1
v 2.90167 5.219912 -1.918622 1 1 1
v 2.913724 5.429633 -2.232184 1 1 1
v 3.006338 5.219912 -1.310426 1 1 1
v 3.171172 5.226645 -0.3537871 1 1 1
v 3.161033 6.909312 -0.3542962 1 1 1
v 2.78109 6.656281 1.112544 1 1 1
v 1.798668 6.465788 1.390114 1 1 1
v 2.082213 6.907315 0.2688052 1 1 1
v 2.996175 6.918185 -1.306265 1 1 1
v 0.8828022 6.381322 1.507265 1 1 1
v 1.863761 6.910348 -0.9831095 1 1 1
v 2.84821 6.918185 -2.166045 1 1 1
v 1.662155 6.909485 -2.119801 1 1 1
v 0.8395655 6.751583 0.4774848 1 1 1
v 0.2197656 6.049264 1.650128 1 1 1
v 0.6196293 6.531874 -0.7715725 1 1 1
v 0.4636547 6.66369 -2.052354 1 1 1
v -0.1008878 6.403982 0.5363676 1 1 1
v -0.9175121 6.043006 1.642751 1 1 1
v -1.115066 6.297186 0.7330847 1 1 1
v -1.181091 6.479177 0.2289798 1 1 1
v -0.3305869 6.456197 -0.623368 1 1 1
v -0.4813419 6.601646 -1.814753 1 1 1
v -1.308665 6.544872 -0.4511336 1 1 1
v -1.163675 6.655074 -1.267433 1 1 1
v 3.00819 6.417241 -2.327554 1 1 1
v 2.996175 6.918185 -1.306265 1 1 1
v 2.84821 6.918185 -2.166045 1 1 1
v 3.171589 6.417241 -1.378087 1 1 1
v 3.00819 5.781874 -2.327554 1 1 1
v 3.161033 6.909312 -0.3542962 1 1 1
v 3.171589 5.781874 -1.378087 1 1 1
v 2.913724 5.429633 -2.232184 1 1 1
v 3.345791 6.416386 -0.3334647 1 1 1
v 2.78109 6.656281 1.112544 1 1 1
v 2.930511 6.290732 1.184594 1 1 1
v 3.347496 5.781298 -0.3341408 1 1 1
v 2.930511 5.827095 1.184594 1 1 1
v 3.006338 5.219912 -1.310426 1 1 1
v 2.90167 5.219912 -1.918622 1 1 1
v 3.171172 5.226645 -0.3537871 1 1 1
v 2.705706 5.226308 1.098237 1 1 1
v 2.42723 4.939723 1.109063 1 1 1
v 2.519215 4.599854 -0.1275316 1 1 1
v -1.660983 9.252668 -1.658672 1 1 1
v -0.630587 10.1045 -2.388772 1 1 1
v -1.776268 10.05095 -1.744365 1 1 1
v -0.5224298 9.288719 -2.319276 1 1 1
v -1.382589 7.99224 -1.845318 1 1 1
v 1.194004 10.30104 -2.406295 1 1 1
v -0.3811851 7.924826 -2.474393 1 1 1
v -1.290549 7.104646 -1.929459 1 1 1
v 1.197903 9.443331 -2.377368 1 1 1
v 2.735626 10.501 -2.234298 1 1 1
v 2.739594 9.604162 -2.203724 1 1 1
v 1.303063 8.0161 -2.625193 1 1 1
v 2.843067 8.139204 -2.45633 1 1 1
v -0.26241 6.865961 -2.578471 1 1 1
v 1.350083 6.827572 -2.709936 1 1 1
v 2.781805 7.238592 -2.525651 1 1 1
v 2.763748 7.136327 -2.45958 1 1 1
v 1.359892 6.737591 -2.639587 1 1 1
v -0.249587 6.774875 -2.509958 1 1 1
v -1.3099 7.007706 -1.846842 1 1 1
v -0.1999293 6.972306 2.003189 1 1 1
v -1.073317 7.384424 1.962357 1 1 1
v -1.04319 8.098306 2.015788 1 1 1
v -0.1937957 7.976568 2.106664 1 1 1
v 1.462821 6.624201 1.962011 1 1 1
v 1.368212 7.843942 2.046606 1 1 1
v 2.720803 6.923059 1.938377 1 1 1
v 2.702984 8.032829 2.028989 1 1 1
v -0.9755727 9.059359 2.078932 1 1 1
v -0.1097074 9.256044 2.229984 1 1 1
v 1.438709 9.601776 2.26336 1 1 1
v -1.203937 9.021648 1.893267 1 1 1
v -1.253919 8.08816 1.83648 1 1 1
v -1.374882 9.709873 1.958422 1 1 1
v -1.153231 9.745141 2.149094 1 1 1
v -0.07355717 10.00057 2.332741 1 1 1
v 1.458786 10.35695 2.398343 1 1 1
v 2.866212 9.989634 2.211898 1 1 1
v 3.120845 8.079117 1.594523 1 1 1
v 3.057941 11.05509 2.352843 1 1 1
v 3.033932 10.01523 2.069031 1 1 1
v 3.216432 11.09396 2.206757 1 1 1
v 2.739594 9.604162 -2.203724 1 1 1
v 3.268859 10.68125 -0.7594607 1 1 1
v 2.735626 10.501 -2.234298 1 1 1
v 3.260557 9.756031 -0.8208352 1 1 1
v 3.425793 10.86215 0.6916043 1 1 1
v 2.843067 8.139204 -2.45633 1 1 1
v 3.398333 9.888431 0.5086681 1 1 1
v 3.216432 11.09396 2.206757 1 1 1
v 3.033932 10.01523 2.069031 1 1 1
v 3.270911 8.069186 -1.019159 1 1 1
v 3.338484 8.073635 0.3802413 1 1 1
v 3.120845 8.079117 1.594523 1 1 1
v 3.054138 7.160707 -1.107393 1 1 1
v 2.781805 7.238592 -2.525651 1 1 1
v 2.763748 7.136327 -2.45958 1 1 1
v 3.201867 7.054819 0.27788 1 1 1
v 3.038139 7.19469 1.537099 1 1 1
v 2.702984 8.032829 2.028989 1 1 1
v 2.720803 6.923059 1.938377 1 1 1
v -1.375386 7.068035 1.043719 1 1 1
v -1.259764 7.371973 1.781095 1 1 1
v -1.073317 7.384424 1.962357 1 1 1
v -0.1999293 6.972306 2.003189 1 1 1
v -0.1161882 6.683871 0.9466766 1 1 1
v -1.485798 6.980703 0.4593311 1 1 1
v 1.582974 6.303089 0.814265 1 1 1
v 1.462821 6.624201 1.962011 1 1 1
v 2.720803 6.923059 1.938377 1 1 1
v -0.1550083 6.486543 -0.02412208 1 1 1
v -1.56129 6.827527 0.0624428 1 1 1
v -1.665702 6.741045 -0.6748238 1 1 1
v -0.1518611 6.439787 -0.7550922 1 1 1
v -1.3099 7.007706 -1.846842 1 1 1
v -0.249587 6.774875 -2.509958 1 1 1
v 1.359892 6.737591 -2.639587 1 1 1
v 1.523703 6.412108 -0.8088028 1 1 1
v 2.515573 6.550271 0.5234494 1 1 1
v 2.50521 6.661099 -0.9893293 1 1 1
v 2.763748 7.136327 -2.45958 1 1 1
v 3.054138 7.160707 -1.107393 1 1 1
v 3.201867 7.054819 0.27788 1 1 1
v 3.038139 7.19469 1.537099 1 1 1
v -1.073317 7.384424 1.962357 1 1 1
v -1.253919 8.08816 1.83648 1 1 1
v -1.04319 8.098306 2.015788 1 1 1
v -1.259764 7.371973 1.781095 1 1 1
v -1.375386 7.068035 1.043719 1 1 1
v -1.582012 7.895742 0.8212526 1 1 1
v -1.485798 6.980703 0.4593311 1 1 1
v -1.56129 6.827527 0.0624428 1 1 1
v -1.799344 7.748157 -0.5929955 1 1 1
v -1.665702 6.741045 -0.6748238 1 1 1
v -1.3099 7.007706 -1.846842 1 1 1
v -1.290549 7.104646 -1.929459 1 1 1
v -1.382589 7.99224 -1.845318 1 1 1
v -1.660983 9.252668 -1.658672 1 1 1
v -1.938944 9.038311 -0.4675251 1 1 1
v -1.776268 10.05095 -1.744365 1 1 1
v -2.036337 9.787036 -0.4413719 1 1 1
v -1.61689 9.014297 0.9073677 1 1 1
v -1.203937 9.021648 1.893267 1 1 1
v -1.75367 9.730152 0.9521983 1 1 1
v -1.374882 9.709873 1.958422 1 1 1
v -1.119376 10.09321 1.801531 1 1 1
v -1.447187 10.09789 0.9596182 1 1 1
v -1.866397 9.97633 -0.4479367 1 1 1
v -1.866397 9.97633 -0.4479367 1 1 1
v -2.036337 9.787036 -0.4413719 1 1 1
v -1.776268 10.05095 -1.744365 1 1 1
v -1.634956 10.17671 -1.628266 1 1 1
v -0.630587 10.1045 -2.388772 1 1 1
v -0.5234758 10.36441 -0.528749 1 1 1
v -1.447187 10.09789 0.9596182 1 1 1
v -0.6159802 10.39794 -2.048167 1 1 1
v 1.194004 10.30104 -2.406295 1 1 1
v 1.220089 10.62379 -2.05119 1 1 1
v 2.735626 10.501 -2.234298 1 1 1
v 2.407389 10.80413 -1.871391 1 1 1
v 3.268859 10.68125 -0.7594607 1 1 1
v 1.216498 10.67745 -0.5291195 1 1 1
v 2.911401 10.92667 -0.7372119 1 1 1
v 3.425793 10.86215 0.6916043 1 1 1
v -0.2882677 10.33654 0.9246548 1 1 1
v -0.1167407 10.31515 2.008125 1 1 1
v -1.119376 10.09321 1.801531 1 1 1
v 1.341671 10.66875 0.9617002 1 1 1
v 2.954948 11.04515 0.8588884 1 1 1
v 2.992059 11.16728 1.729415 1 1 1
v -1.095928 10.09686 1.82218 1 1 1
v -1.374882 9.709873 1.958422 1 1 1
v -1.153231 9.745141 2.149094 1 1 1
v -0.07355717 10.00057 2.332741 1 1 1
v 1.566934 10.69517 1.980739 1 1 1
v 1.458786 10.35695 2.398343 1 1 1
v 2.957764 11.1999 2.086686 1 1 1
v 3.216432 11.09396 2.206757 1 1 1
v 3.057941 11.05509 2.352843 1 1 1
v 2.550093 11.05584 2.08663 1 1 1
v 1.331576 -4.510084 -1.477201 1 1 1
v 1.687093 -4.008307 -1.948108 1 1 1
v -0.2984059 -4.486035 -2.294383 1 1 1
v -0.1727512 -4.668032 -1.838256 1 1 1
v -2.160116 -4.579308 -1.87308 1 1 1
v -2.059456 -4.806267 -1.227586 1 1 1
v -2.681488 -4.493298 -0.8872461 1 1 1
v -2.914627 -4.618451 0.1152761 1 1 1
v -2.496688 -4.867697 0.02066039 1 1 1
v -2.578809 -4.775819 1.80508 1 1 1
v -2.139417 -5.055514 1.809855 1 1 1
v -1.993079 -4.797124 2.232168 1 1 1
v -0.3050429 -4.364867 2.383357 1 1 1
v -0.3424593 -4.690176 2.100346 1 1 1
v 0.6217865 -4.848035 -0.8083419 1 1 1
v -0.1276274 -4.875794 -0.9880637 1 1 1
v -0.4348355 -5.085183 0.2450034 1 1 1
v 0.7784618 -4.881083 0.02481274 1 1 1
v 1.577698 -4.652264 0.08882469 1 1 1
v -1.441788 -5.003023 -0.5731629 1 1 1
v -1.667777 -5.131376 0.0577935 1 1 1
v -1.464415 -5.166515 1.079558 1 1 1
v -0.3027096 -4.899234 1.263103 1 1 1
v 1.218661 -4.605792 1.713381 1 1 1
v 0.5677728 -4.91548 1.041565 1 1 1
v 2.012022 -4.310359 0.307162 1 1 1
v 1.664401 -4.052412 1.97999 1 1 1
vn 0.3878347 -0.7928388 0.4700966
vn -0.05641308 -0.9487531 0.3109424
vn -0.4377044 -0.7177235 0.5415605
vn 0.7447774 0.6670462 0.01886363
vn 0.6423037 0.5515384 0.5322136
vn -0.04988815 0.8354253 0.5473352
vn -0.03062005 0.9995282 0.00240509
vn 0.561348 0.5873706 -0.5829959
vn -0.4236225 0.8260421 0.3717505
vn -0.02172919 0.5985094 -0.8008211
vn -0.4839062 0.8742598 0.03878756
vn -0.2761641 0.6136129 -0.7397382
vn -0.5614444 0.7529607 -0.3432641
vn -0.2761641 0.6136129 -0.7397382
vn -0.5614444 0.7529607 -0.3432641
vn -0.9043853 0.2775101 -0.3241533
vn -0.6789328 -0.05516232 -0.7321252
vn -0.6544417 -0.0173757 -0.7559128
vn 0.009463146 -0.02971712 -0.9995136
vn -0.02172919 0.5985094 -0.8008211
vn 0.561348 0.5873706 -0.5829959
vn -0.6079712 0.1568287 -0.778316
vn 0.7169245 -0.04049794 -0.6959735
vn -0.004761488 0.1181815 -0.9929806
vn -0.567855 0.33709 -0.7509401
vn 0.7198075 0.1251772 -0.6827942
vn -0.007957172 0.2820228 -0.9593747
vn 0.6828956 0.3334735 -0.6499608
vn -0.5867086 0.210452 -0.7819738
vn -0.0001353693 0.1961151 -0.9805809
vn 0.7096589 0.2181468 -0.6699225
vn 0.7230935 -0.08245951 -0.6858107
vn -0.001166442 -0.06820931 -0.9976704
vn 0.654934 -0.4343426 -0.6183915
vn -0.5972297 -0.07472596 -0.7985818
vn 0.03593859 -0.5756932 -0.8168756
vn -0.4769919 -0.5769226 -0.6630529
vn 0.7169245 -0.04049794 -0.6959735
vn 0.7447774 0.6670462 0.01886363
vn 0.561348 0.5873706 -0.5829959
vn 0.9994566 -0.03258237 -0.005002471
vn 0.6423037 0.5515384 0.5322136
vn 0.7198075 0.1251772 -0.6827942
vn 0.7791612 -0.02376116 0.6263731
vn 0.9942794 0.1038801 0.02484484
vn 0.6828956 0.3334735 -0.6499608
vn 0.7498603 0.1298746 0.6487235
vn 0.9625586 0.2703371 0.01996824
vn 0.6972107 0.3026744 0.649835
vn 0.7096589 0.2181468 -0.6699225
vn 0.9795185 0.1997746 0.02517159
vn 0.7029583 0.2107404 0.6792923
vn 0.7143753 -0.06808837 0.6964423
vn 0.9970488 -0.07196324 0.02673847
vn 0.6494226 -0.4095749 0.6407017
vn 0.7230935 -0.08245951 -0.6858107
vn 0.8775021 -0.4775427 0.04407896
vn 0.654934 -0.4343426 -0.6183915
vn 0.5244389 -0.8510608 -0.02567904
vn 0.4199308 -0.8514671 -0.3141049
vn -0.04988815 0.8354253 0.5473352
vn -0.60001 0.2257742 0.7674726
vn -0.4236225 0.8260421 0.3717505
vn -0.02573533 0.220455 0.9750576
vn 0.6423037 0.5515384 0.5322136
vn 0.7791612 -0.02376116 0.6263731
vn 0.001083205 -0.01737404 0.9998485
vn -0.5933135 0.02713783 0.8045139
vn 0.7498603 0.1298746 0.6487235
vn 0.05735686 0.1266413 0.990289
vn -0.4853816 0.1880231 0.8538454
vn 0.6972107 0.3026744 0.649835
vn 0.07270891 0.2509277 0.9652714
vn -0.3813841 0.345162 0.8575602
vn 0.7029583 0.2107404 0.6792923
vn 0.09822926 0.1965401 0.9755629
vn -0.3565794 0.2251091 0.9067398
vn -0.7750863 0.4193392 0.4726478
vn -0.8328833 0.2421456 0.4976656
vn -0.8584163 -0.06759282 0.5084808
vn -0.3397839 -0.05158766 0.9390876
vn -0.7600069 -0.4992214 0.4161341
vn -0.2296062 -0.4919219 0.8398178
vn 0.09379552 -0.0311025 0.9951056
vn 0.7143753 -0.06808837 0.6964423
vn 0.1273424 -0.4131956 0.9016947
vn 0.6494226 -0.4095749 0.6407017
vn 0.1541345 -0.8379354 0.5235522
vn 0.374835 -0.8244414 0.4240225
vn -0.9043853 0.2775101 -0.3241533
vn -0.5614444 0.7529607 -0.3432641
vn -0.4839062 0.8742598 0.03878756
vn -0.933511 0.3402817 0.1129851
vn -0.4236225 0.8260421 0.3717505
vn -0.867306 0.2348163 0.4389096
vn -0.60001 0.2257742 0.7674726
vn -0.5933135 0.02713783 0.8045139
vn -0.8598542 0.1106438 0.4984063
vn -0.4853816 0.1880231 0.8538454
vn -0.9846705 0.1257024 0.1209252
vn -0.8220395 0.2596458 0.5067891
vn -0.3813841 0.345162 0.8575602
vn -0.7750863 0.4193392 0.4726478
vn -0.9742579 0.06065949 -0.2171219
vn -0.6789328 -0.05516232 -0.7321252
vn -0.6544417 -0.0173757 -0.7559128
vn -0.9637064 0.251296 0.09011291
vn -0.9365894 0.1908636 -0.29389
vn -0.6079712 0.1568287 -0.778316
vn -0.9224678 0.3860065 -0.007220916
vn -0.8328833 0.2421456 0.4976656
vn -0.8799186 0.3319591 -0.3399211
vn -0.567855 0.33709 -0.7509401
vn -0.9765406 0.2115858 -0.03999737
vn -0.9051669 0.2097644 -0.3696915
vn -0.5867086 0.210452 -0.7819738
vn -0.5972297 -0.07472596 -0.7985818
vn -0.9270205 -0.06923151 -0.3685645
vn -0.4769919 -0.5769226 -0.6630529
vn -0.8109716 -0.4892577 -0.3208612
vn -0.996511 -0.070266 -0.04503796
vn -0.8584163 -0.06759282 0.5084808
vn -0.8524216 -0.5195419 -0.05876806
vn -0.7600069 -0.4992214 0.4161341
vn -0.4377044 -0.7177235 0.5415605
vn -0.7248562 -0.6854373 -0.06898701
vn -0.7926494 -0.380153 0.4766452
vn -0.9218565 -0.08306797 0.3785239
vn -0.6246226 0.3932993 0.6746572
vn -0.6917961 0.6822508 0.236542
vn -0.9358062 0.352366 0.01025104
vn -0.7384592 -0.6504366 -0.1777931
vn -0.8599215 0.3218431 -0.3961717
vn -0.7601275 -0.3693284 -0.5346051
vn -0.7926494 -0.380153 0.4766452
vn 0.000318748 -0.5368507 0.8436772
vn -0.4377044 -0.7177235 0.5415605
vn -0.2590738 0.3417395 0.9033797
vn -0.6246226 0.3932993 0.6746572
vn -0.3496416 0.56787 0.7451674
vn 0.3332053 0.610458 0.7185509
vn 0.5758431 0.07423335 0.8141831
vn 0.2114177 -0.4465088 0.8694437
vn 0.6939315 -0.232473 0.6814802
vn 0.3878347 -0.7928388 0.4700966
vn 0.8323141 -0.1038264 0.5444937
vn 0.6164672 0.7345216 0.2836304
vn 0.6837962 0.4892947 -0.5413072
vn 0.4002202 -0.2134906 -0.8912045
vn 0.6024143 -0.7180756 -0.3485174
vn 0.8514243 0.4759436 -0.2203506
vn 0.7216878 -0.6871444 0.08366236
vn 0.9146271 0.3698252 0.1633608
vn 0.8323141 -0.1038264 0.5444937
vn 0.6164672 0.7345216 0.2836304
vn 0.3878347 -0.7928388 0.4700966
vn 0.1198795 -0.834179 -0.5383069
vn 0.6024143 -0.7180756 -0.3485174
vn 0.4002202 -0.2134906 -0.8912045
vn -0.05097469 -0.9549963 -0.292205
vn 0.7216878 -0.6871444 0.08366236
vn -0.3097288 -0.836309 -0.4523885
vn -0.3474804 -0.3116738 -0.8843737
vn -0.7601275 -0.3693284 -0.5346051
vn -0.7384592 -0.6504366 -0.1777931
vn -0.7248562 -0.6854373 -0.06898701
vn -0.05641308 -0.9487531 0.3109424
vn 0.3878347 -0.7928388 0.4700966
vn -0.4377044 -0.7177235 0.5415605
vn -0.7601275 -0.3693284 -0.5346051
vn -0.4037415 0.6725206 -0.620249
vn -0.8599215 0.3218431 -0.3961717
vn -0.2815617 0.5686094 -0.7729207
vn -0.06991876 0.09637944 -0.9928859
vn -0.1886064 0.5310355 -0.8260925
vn 0.06543315 0.7184649 -0.6924787
vn -0.3474804 -0.3116738 -0.8843737
vn 0.253569 0.7871919 -0.562167
vn 0.05459929 -0.1125156 -0.9921488
vn 0.1198795 -0.834179 -0.5383069
vn 0.6837962 0.4892947 -0.5413072
vn 0.4002202 -0.2134906 -0.8912045
vn 0.3332053 0.610458 0.7185509
vn 0.6164672 0.7345216 0.2836304
vn 0.5758431 0.07423335 0.8141831
vn 0.6939315 -0.232473 0.6814802
vn 0.3878347 -0.7928388 0.4700966
vn -0.4377044 -0.7177235 0.5415605
vn 0.2114177 -0.4465088 0.8694437
vn 0.000318748 -0.5368507 0.8436772
vn 0.9146271 0.3698252 0.1633608
vn 0.6164672 0.7345216 0.2836304
vn 0.8514243 0.4759436 -0.2203506
vn 0.6837962 0.4892947 -0.5413072
vn 0.2335982 0.967733 -0.094471
vn 0.253569 0.7871919 -0.562167
vn 0.06543315 0.7184649 -0.6924787
vn -0.1886064 0.5310355 -0.8260925
vn -0.2815617 0.5686094 -0.7729207
vn -0.4037415 0.6725206 -0.620249
vn -0.244913 0.9673929 0.06456546
vn -0.8599215 0.3218431 -0.3961717
vn -0.9358062 0.352366 0.01025104
vn -0.6917961 0.6822508 0.236542
vn 0.1311568 0.9112444 0.3904249
vn 0.3332053 0.610458 0.7185509
vn -0.2590738 0.3417395 0.9033797
vn -0.3496416 0.56787 0.7451674
vn -0.6246226 0.3932993 0.6746572
vn -0.009243157 0.9962796 0.0856825
vn -0.07205845 0.8757015 0.4774458
vn 0.0383751 -0.8284556 0.5587384
vn -0.3556907 -0.7508349 0.556535
vn -0.5326688 -0.3059704 0.7890793
vn 0.002043951 -0.3358285 0.9419209
vn 0.2078683 -0.8009894 0.5614328
vn -0.5533012 0.2955729 0.7787775
vn 0.2595116 -0.3000742 0.9179375
vn 0.3165572 -0.7702829 0.5535845
vn -0.02440843 0.2850896 0.95819
vn -0.3660584 0.7532803 0.5464157
vn -0.09802939 0.7684579 0.632347
vn 0.1609385 0.2470751 0.9555379
vn -0.09225383 0.7763019 0.623574
vn 0.3411044 -0.2214796 0.9135615
vn 0.5172535 -0.6440312 0.5636246
vn 0.6890421 -0.4605933 0.5595309
vn 0.7476013 -0.154581 0.6459078
vn 0.2500628 0.2029262 0.9467257
vn 0.06686073 0.7320984 0.6779098
vn 0.712772 0.2072605 0.6700741
vn 0.4297412 0.7140877 0.5526312
vn -0.6090068 -0.7928128 0.0236351
vn -0.5498268 -0.7353269 -0.3962132
vn -0.8198381 -0.1131471 -0.561305
vn -0.9904731 -0.1369667 0.01425679
vn -0.5252562 -0.8054298 0.2745702
vn -0.8017803 0.2700169 -0.5331408
vn -0.9159178 -0.198223 0.3490019
vn -0.3556907 -0.7508349 0.556535
vn -0.5326688 -0.3059704 0.7890793
vn -0.9580041 0.2865317 0.01129677
vn -0.4438415 0.8523737 -0.2765211
vn -0.5119106 0.8562238 0.06948698
vn -0.4305944 0.8795917 0.2022547
vn -0.8969671 0.2945093 0.3297184
vn -0.5533012 0.2955729 0.7787775
vn -0.4730229 0.8168281 0.3302139
vn -0.3660584 0.7532803 0.5464157
vn -0.8017803 0.2700169 -0.5331408
vn -0.2527705 0.7980778 -0.5469725
vn -0.4438415 0.8523737 -0.2765211
vn -0.3753793 0.1737922 -0.9104322
vn -0.2026962 0.7770513 -0.5959073
vn -0.8198381 -0.1131471 -0.561305
vn -0.1491803 0.1223337 -0.9812134
vn -0.1370038 0.8089171 -0.5717369
vn -0.332061 -0.1053478 -0.9373566
vn -0.06017367 0.1300945 -0.989674
vn 0.4077067 0.7359675 -0.5404878
vn 0.6237125 0.1967236 -0.7564936
vn -0.1678247 -0.7747738 -0.6095575
vn -0.5498268 -0.7353269 -0.3962132
vn -0.1714711 -0.5026501 -0.8473137
vn -0.1066693 -0.1243845 -0.9864838
vn -0.01645541 -0.5703418 -0.8212427
vn -0.001489632 -0.1320218 -0.9912457
vn 0.6447377 -0.1509246 -0.7493564
vn 0.1487388 -0.5796374 -0.801185
vn 0.5844923 -0.4742522 -0.658372
vn -0.5252562 -0.8054298 0.2745702
vn -0.3556907 -0.7508349 0.556535
vn 0.0383751 -0.8284556 0.5587384
vn 0.01405816 -0.9881487 0.1528548
vn -0.6090068 -0.7928128 0.0236351
vn 0.2078683 -0.8009894 0.5614328
vn 0.01950793 -0.9993058 -0.03174019
vn -0.5498268 -0.7353269 -0.3962132
vn 0.1460937 -0.9844673 0.09736905
vn 0.3165572 -0.7702829 0.5535845
vn 0.05457169 -0.9550409 -0.2914082
vn -0.1678247 -0.7747738 -0.6095575
vn -0.1714711 -0.5026501 -0.8473137
vn 0.2701625 -0.960004 0.07351608
vn 0.5172535 -0.6440312 0.5636246
vn 0.4662472 -0.8844778 -0.0176814
vn 0.146779 -0.9860432 -0.07858001
vn 0.1059452 -0.9299304 -0.3521434
vn -0.01645541 -0.5703418 -0.8212427
vn 0.2514794 -0.9594054 -0.127669
vn 0.2850472 -0.9034437 -0.320215
vn 0.1487388 -0.5796374 -0.801185
vn 0.3679434 -0.9174579 -0.1512898
vn 0.673074 -0.687164 -0.273454
vn 0.5844923 -0.4742522 -0.658372
vn 0.7527015 -0.6366248 -0.1677783
vn 0.8247048 -0.5655245 0.006644594
vn 0.5976436 0.7978716 0.07888731
vn 0.4297412 0.7140877 0.5526312
vn 0.06686073 0.7320984 0.6779098
vn -0.05617431 0.9865347 0.1536026
vn 0.5614453 0.8221566 -0.09400924
vn -0.09225383 0.7763019 0.623574
vn -0.116553 0.9931124 0.0119671
vn 0.4077067 0.7359675 -0.5404878
vn -0.1370038 0.8089171 -0.5717369
vn -0.2024116 0.9652514 0.1652855
vn -0.09802939 0.7684579 0.632347
vn -0.1803311 0.9830373 0.0334405
vn -0.2026962 0.7770513 -0.5959073
vn -0.1331724 0.9727991 0.1895441
vn -0.3660584 0.7532803 0.5464157
vn -0.4730229 0.8168281 0.3302139
vn -0.4305944 0.8795917 0.2022547
vn -0.01122192 0.9976625 0.06740629
vn -0.2527705 0.7980778 -0.5469725
vn -0.5119106 0.8562238 0.06948698
vn -0.4438415 0.8523737 -0.2765211
vn 0.6237125 0.1967236 -0.7564936
vn 0.5614453 0.8221566 -0.09400924
vn 0.4077067 0.7359675 -0.5404878
vn 0.9705327 0.1756233 -0.1649931
vn 0.6447377 -0.1509246 -0.7493564
vn 0.5976436 0.7978716 0.07888731
vn 0.9747816 -0.1491285 -0.1660166
vn 0.5844923 -0.4742522 -0.658372
vn 0.9802495 0.1882747 0.06052797
vn 0.4297412 0.7140877 0.5526312
vn 0.712772 0.2072605 0.6700741
vn 0.9852044 -0.161888 0.05625438
vn 0.7476013 -0.154581 0.6459078
vn 0.7527015 -0.6366248 -0.1677783
vn 0.673074 -0.687164 -0.273454
vn 0.8247048 -0.5655245 0.006644594
vn 0.6890421 -0.4605933 0.5595309
vn 0.5172535 -0.6440312 0.5636246
vn 0.4662472 -0.8844778 -0.0176814
vn -0.8047007 -0.1106058 -0.5832865
vn -0.2742388 0.3340495 -0.9017783
vn -0.7772639 0.3276539 -0.5371255
vn -0.2837996 -0.01043489 -0.9588268
vn -0.7771398 -0.03776838 -0.6281937
vn -0.001049212 0.3826418 -0.9238962
vn -0.3100708 0.06917338 -0.9481936
vn -0.7432368 -0.1993464 -0.6386392
vn 0.02948503 0.05597965 -0.9979964
vn 0.5359276 0.4089525 -0.7386065
vn 0.6293754 0.0661432 -0.7742814
vn 0.0112083 0.1154863 -0.9932458
vn 0.6447033 0.05905175 -0.7621486
vn -0.3171304 -0.2814184 -0.9056666
vn 0.05491022 -0.3030006 -0.9514071
vn 0.6305141 -0.2273902 -0.7421224
vn 0.6082566 -0.6615521 -0.4386032
vn 0.1064496 -0.8390418 -0.5335516
vn -0.2438867 -0.8124981 -0.5294961
vn -0.6988425 -0.5861501 -0.4099357
vn -0.1829781 -0.6272092 0.7570519
vn -0.4345722 -0.4091532 0.8023346
vn -0.4064904 -0.05385076 0.9120668
vn -0.0519938 -0.08975279 0.994606
vn 0.0279476 -0.685258 0.7277641
vn 0.02743712 -0.09368943 0.9952233
vn 0.4698439 -0.538913 0.6991563
vn 0.4096957 -0.1055368 0.9060968
vn -0.3718975 -0.1168459 0.9208905
vn -0.06293964 -0.1197928 0.9908019
vn 0.03695399 -0.1341076 0.9902775
vn -0.7955245 -0.1229143 0.5933235
vn -0.831429 -0.03917986 0.554248
vn -0.8083818 0.1819885 0.5598205
vn -0.4498145 0.2283849 0.8634276
vn -0.1587416 0.3143876 0.9359282
vn -0.09675319 0.3209912 0.9421271
vn 0.3984283 -0.1633144 0.9025427
vn 0.8994448 -0.08917735 0.4278393
vn 0.2531646 0.3963225 0.882517
vn 0.8606153 -0.1378966 0.4902305
vn 0.7662491 0.4813981 0.4255799
vn 0.6293754 0.0661432 -0.7742814
vn 0.8432405 0.4812725 -0.2394206
vn 0.5359276 0.4089525 -0.7386065
vn 0.9772714 0.01522446 -0.2114444
vn 0.8734472 0.486432 -0.02176869
vn 0.6447033 0.05905175 -0.7621486
vn 0.9980052 -0.03799263 0.05041975
vn 0.7662491 0.4813981 0.4255799
vn 0.8606153 -0.1378966 0.4902305
vn 0.9815388 -0.05740141 -0.1824467
vn 0.9951847 -0.08242761 0.05303993
vn 0.8994448 -0.08917735 0.4278393
vn 0.8657863 -0.4776739 -0.149136
vn 0.6305141 -0.2273902 -0.7421224
vn 0.6082566 -0.6615521 -0.4386032
vn 0.8663553 -0.4991957 0.01523663
vn 0.860875 -0.3770956 0.3416041
vn 0.4096957 -0.1055368 0.9060968
vn 0.4698439 -0.538913 0.6991563
vn -0.7138022 -0.6358967 0.2934653
vn -0.7471563 -0.4310617 0.5059083
vn -0.4345722 -0.4091532 0.8023346
vn -0.1829781 -0.6272092 0.7570519
vn -0.2152231 -0.9594108 0.1822359
vn -0.7114617 -0.634533 0.301977
vn 0.05895704 -0.9901507 0.1269867
vn 0.0279476 -0.685258 0.7277641
vn 0.4698439 -0.538913 0.6991563
vn -0.1600004 -0.9811798 0.1081024
vn -0.68878 -0.6781529 0.2563024
vn -0.7483461 -0.6583858 -0.08066162
vn -0.1266931 -0.9902017 -0.05873339
vn -0.6988425 -0.5861501 -0.4099357
vn -0.2438867 -0.8124981 -0.5294961
vn 0.1064496 -0.8390418 -0.5335516
vn 0.09370714 -0.9900697 -0.1047905
vn 0.4416682 -0.8956038 0.05313159
vn 0.4318646 -0.8912708 -0.138309
vn 0.6082566 -0.6615521 -0.4386032
vn 0.8657863 -0.4776739 -0.149136
vn 0.8663553 -0.4991957 0.01523663
vn 0.860875 -0.3770956 0.3416041
vn -0.4345722 -0.4091532 0.8023346
vn -0.831429 -0.03917986 0.554248
vn -0.4064904 -0.05385076 0.9120668
vn -0.7471563 -0.4310617 0.5059083
vn -0.7138022 -0.6358967 0.2934653
vn -0.9649153 -0.09630536 0.2442616
vn -0.7114617 -0.634533 0.301977
vn -0.68878 -0.6781529 0.2563024
vn -0.9913938 -0.1116927 -0.06828672
vn -0.7483461 -0.6583858 -0.08066162
vn -0.6988425 -0.5861501 -0.4099357
vn -0.7432368 -0.1993464 -0.6386392
vn -0.7771398 -0.03776838 -0.6281937
vn -0.8047007 -0.1106058 -0.5832865
vn -0.9909061 -0.1313476 -0.02920557
vn -0.7772639 0.3276539 -0.5371255
vn -0.9665555 0.2546076 0.03074738
vn -0.9519821 -0.1241186 0.2798654
vn -0.7955245 -0.1229143 0.5933235
vn -0.9315303 0.231199 0.2807105
vn -0.8083818 0.1819885 0.5598205
vn -0.4953605 0.8180623 0.2922191
vn -0.5168875 0.8427244 0.1504759
vn -0.5484695 0.8332435 0.06990325
vn -0.5484695 0.8332435 0.06990325
vn -0.9665555 0.2546076 0.03074738
vn -0.7772639 0.3276539 -0.5371255
vn -0.4563732 0.8715466 -0.1792484
vn -0.2742388 0.3340495 -0.9017783
vn -0.2042189 0.9784121 0.03169385
vn -0.5168875 0.8427244 0.1504759
vn -0.225878 0.9117891 -0.3429576
vn -0.001049212 0.3826418 -0.9238962
vn -0.1035234 0.9203621 -0.3771161
vn 0.5359276 0.4089525 -0.7386065
vn 0.1104017 0.9305382 -0.3491564
vn 0.8432405 0.4812725 -0.2394206
vn -0.1691256 0.9855742 -0.006325213
vn 0.1951099 0.9711075 -0.1374134
vn 0.8734472 0.486432 -0.02176869
vn -0.2122927 0.9763021 0.04202528
vn -0.2339845 0.8877255 0.3964779
vn -0.4953605 0.8180623 0.2922191
vn -0.2154892 0.976504 0.002061755
vn 0.0659951 0.9938431 -0.08899702
vn 0.08408789 0.9933233 -0.07898078
vn -0.3625484 0.8361262 0.4116451
vn -0.8083818 0.1819885 0.5598205
vn -0.4498145 0.2283849 0.8634276
vn -0.1587416 0.3143876 0.9359282
vn -0.2784649 0.914907 0.292237
vn -0.09675319 0.3209912 0.9421271
vn -0.02374888 0.9818949 0.1879319
vn 0.7662491 0.4813981 0.4255799
vn 0.2531646 0.3963225 0.882517
vn -0.3184888 0.905118 0.2816492
vn 0.4199308 -0.8514671 -0.3141049
vn 0.654934 -0.4343426 -0.6183915
vn 0.03593859 -0.5756932 -0.8168756
vn 0.1036344 -0.9200482 -0.3778507
vn -0.4769919 -0.5769226 -0.6630529
vn -0.2758408 -0.9276419 -0.2517783
vn -0.8109716 -0.4892577 -0.3208612
vn -0.8524216 -0.5195419 -0.05876806
vn -0.4147644 -0.9029255 -0.1126767
vn -0.7600069 -0.4992214 0.4161341
vn -0.251286 -0.9084833 0.3339364
vn -0.2296062 -0.4919219 0.8398178
vn 0.1273424 -0.4131956 0.9016947
vn 0.1541345 -0.8379354 0.5235522
vn 0.1906178 -0.966503 -0.1718632
vn 0.06768241 -0.9729632 -0.220821
vn 0.09993226 -0.9947551 -0.02181229
vn 0.2452805 -0.9689144 -0.03228576
vn 0.5244389 -0.8510608 -0.02567904
vn -0.0544174 -0.9781898 -0.2004581
vn -0.1166547 -0.9873502 -0.107384
vn -7.751444E-06 -0.9952829 0.09701409
vn 0.119417 -0.9658496 0.2299435
vn 0.374835 -0.8244414 0.4240225
vn 0.1758028 -0.9732306 0.1480393
vn 0.8775021 -0.4775427 0.04407896
vn 0.6494226 -0.4095749 0.6407017
vt 0.4128245 0.4862669
vt 0.40571 0.5342842
vt 0.4128245 0.5522389
vt 0.621615 0.3304882
vt 0.6482881 0.397675
vt 0.7300103 0.4078476
vt 0.7124081 0.3138715
vt 0.621615 0.2516991
vt 0.7694276 0.3742327
vt 0.6953157 0.222195
vt 0.7762054 0.3015397
vt 0.7453546 0.2232147
vt 0.7659944 0.2376563
vt 0.4949709 0.4238042
vt 0.474815 0.424291
vt 0.4593442 0.4424943
vt 0.4636582 0.4642156
vt 0.4656333 0.4937495
vt 0.5378224 0.4881522
vt 0.5450377 0.4212645
vt 0.6198525 0.4170744
vt 0.4599523 0.5409312
vt 0.6054707 0.4882038
vt 0.5351565 0.5424545
vt 0.4490642 0.5926558
vt 0.605862 0.5438304
vt 0.5315003 0.5969093
vt 0.6089931 0.6010009
vt 0.4304475 0.6462077
vt 0.5328851 0.6539404
vt 0.629169 0.6614716
vt 0.6248899 0.7146441
vt 0.5288598 0.7050876
vt 0.6035691 0.8075739
vt 0.4272654 0.6953222
vt 0.514581 0.8225902
vt 0.4272654 0.8202971
vt 0.2539442 0.07317137
vt 0.3250565 -2.921441E-09
vt 0.2467418 0.0009107326
vt 0.3250632 0.07234432
vt 0.3946035 0.01047164
vt 0.2510626 0.1283677
vt 0.3915267 0.07627048
vt 0.3349199 0.1273919
vt 0.2447505 0.1848101
vt 0.3980865 0.1279877
vt 0.3371784 0.1837517
vt 0.4062949 0.1843925
vt 0.226163 0.2425985
vt 0.3426371 0.2413077
vt 0.4272653 0.2420787
vt 0.4272653 0.2949315
vt 0.3430317 0.2946915
vt 0.4167409 0.3921987
vt 0.2264691 0.2958911
vt 0.3414031 0.403419
vt 0.2372064 0.3905931
vt 0.330171 0.4200726
vt 0.2577732 0.4143048
vt 0.1019294 0.005501718
vt 0.1456006 0.01801576
vt 0.1466564 2.185112E-08
vt 0.1021027 0.01932476
vt 0.02306996 0.00312613
vt 0.03152134 0.0685188
vt 0.1028187 0.07618409
vt 0.1457238 0.07226221
vt 0.0278973 0.1205923
vt 0.09950839 0.126012
vt 0.1500985 0.1171104
vt 0.02156325 0.1775215
vt 0.1004519 0.1808149
vt 0.1652419 0.1759965
vt -5.46278E-09 0.2367242
vt 0.09600233 0.2298175
vt 0.1877522 0.2369998
vt 0.1938279 0.1755606
vt 0.226163 0.2354878
vt 0.2261244 0.2838393
vt 0.1870738 0.2860639
vt 0.2081252 0.4190666
vt 0.1816097 0.4203781
vt 0.09816347 0.2798439
vt 1.739349E-05 0.2896267
vt 0.1043797 0.4007101
vt 0.01383782 0.386109
vt 0.1058807 0.4153975
vt 0.03406018 0.4112538
vt 0.59521 0.03893244
vt 0.5994359 0.02130219
vt 0.5356476 0.001370382
vt 0.5357467 0.0191222
vt 0.463571 -2.786672E-08
vt 0.4710393 0.01935091
vt 0.4482653 0.0165415
vt 0.4487472 0.07086381
vt 0.4726555 0.07240268
vt 0.4398313 0.1143938
vt 0.5339282 0.07526822
vt 0.4677562 0.1155733
vt 0.4272653 0.1705493
vt 0.456796 0.1704095
vt 0.5758356 0.08646066
vt 0.6081202 0.06184307
vt 0.5990779 0.09077485
vt 0.5268427 0.122804
vt 0.5668111 0.1296711
vt 0.5994427 0.1380255
vt 0.5291875 0.1769697
vt 0.4372514 0.2252169
vt 0.5676808 0.1826671
vt 0.6034244 0.1900281
vt 0.5268103 0.2336193
vt 0.5772231 0.2374214
vt 0.6216149 0.2448666
vt 0.6176109 0.2937499
vt 0.5735103 0.2854323
vt 0.592395 0.4170743
vt 0.5509181 0.4071892
vt 0.5230455 0.2813552
vt 0.433672 0.2732342
vt 0.5063251 0.4079571
vt 0.4272653 0.4096343
vt 0.4232742 0.8056269
vt 0.421131 0.7820038
vt 0.4123842 0.7941111
vt 0.3964193 0.7857889
vt 0.3898565 0.7877955
vt 0.3895181 0.7798566
vt 0.3941458 0.7734033
vt 0.4232742 0.7505429
vt 0.4067778 0.7419089
vt 0.421097 0.744657
vt 0.7512978 0.9366792
vt 0.7458151 0.8910695
vt 0.737689 0.922911
vt 0.7694357 0.9094741
vt 0.7746263 0.9373693
vt 0.7762416 0.9252171
vt 0.7670688 0.8710228
vt 0.7573598 0.8659863
vt 0.7479724 0.8767689
vt 0.7467175 0.8572814
vt 0.737689 0.856939
vt 0.7461371 0.8447062
vt 0.7619215 0.8528146
vt 0.1924302 0.7390315
vt 0.198412 0.7430398
vt 0.2157966 0.7237951
vt 0.1949064 0.7154222
vt 0.2167276 0.6862138
vt 0.199484 0.6821307
vt 0.2072715 0.6745206
vt 0.1924302 0.674295
vt 0.2170335 0.6718108
vt 0.8322795 0.9239935
vt 0.8275301 0.9314
vt 0.8476815 0.9281381
vt 0.8289725 0.8950604
vt 0.7895982 0.9342888
vt 0.8436062 0.8750634
vt 0.8476815 0.8758029
vt 0.8356124 0.8460613
vt 0.8306971 0.8467827
vt 0.8002324 0.8447063
vt 0.7834267 0.8733295
vt 0.7762417 0.9203268
vt 0.7782082 0.8541617
vt 0.3944683 0.6596469
vt 0.4118266 0.6603667
vt 0.4074253 0.6520612
vt 0.4132311 0.6761517
vt 0.4096655 0.7225894
vt 0.4155413 0.7036426
vt 0.4150449 0.7199745
vt 0.389518 0.6906277
vt 0.4167697 0.7295097
vt 0.4084341 0.7284181
vt 0.389518 0.7393917
vt 0.4130926 0.741909
vt 0.4068375 0.7408351
vt 0.4172891 0.5522389
vt 0.40571 0.572458
vt 0.4245904 0.5577128
vt 0.4254121 0.572458
vt 0.4257794 0.4862669
vt 0.4257794 0.4200726
vt 0.40571 0.4637668
vt 0.4060823 0.4495793
vt 0.5653367 0.8225901
vt 0.5584887 0.8344943
vt 0.598929 0.8231207
vt 0.6229197 0.8312755
vt 0.5957516 0.8565197
vt 0.6248538 0.8427706
vt 0.6272199 0.8526055
vt 0.6272199 0.8685051
vt 0.6200466 0.8955154
vt 0.6128387 0.910866
vt 0.5710898 0.9081128
vt 0.6089988 0.9197006
vt 0.5751729 0.9229135
vt 0.5677629 0.9205443
vt 0.5446703 0.8658478
vt 0.5362372 0.8545411
vt 0.5440369 0.8925407
vt 0.5537695 0.9076918
vt 0.5602386 0.9193565
vt 0.5661862 0.8969601
vt 0.555719 0.8955864
vt 0.7799511 0.3630152
vt 0.7894837 0.4064519
vt 0.8083686 0.4085579
vt 0.8042442 0.3629743
vt 0.7774854 0.3263125
vt 0.8408027 0.4037474
vt 0.801758 0.3168737
vt 0.7762054 0.2846126
vt 0.8346855 0.3581351
vt 0.8565665 0.3986615
vt 0.849225 0.3470774
vt 0.8334895 0.3117264
vt 0.8599266 0.314681
vt 0.809302 0.2661873
vt 0.7844919 0.2539777
vt 0.7956232 0.2394294
vt 0.8212932 0.2252958
vt 0.8401148 0.2618873
vt 0.8576944 0.2725028
vt 0.842309 0.222195
vt 0.8599266 0.2264611
vt 0.4310836 0.9282052
vt 0.4272653 0.9706553
vt 0.4616373 0.9753873
vt 0.4635808 0.9313835
vt 0.4303989 0.870411
vt 0.5023674 0.97218
vt 0.4622141 0.8680435
vt 0.4410177 0.8389411
vt 0.4602077 0.8225901
vt 0.5012255 0.9307486
vt 0.5362372 0.962014
vt 0.5322388 0.9256238
vt 0.5290334 0.8939911
vt 0.499801 0.86744
vt 0.4928528 0.8225904
vt 0.5206988 0.8706956
vt 0.5087088 0.8282437
vt 0.6626668 0.8486014
vt 0.635363 0.7955516
vt 0.629169 0.8297336
vt 0.6692757 0.8059045
vt 0.6374995 0.7510656
vt 0.7032331 0.8573647
vt 0.6707961 0.7559717
vt 0.6324885 0.6953836
vt 0.7073011 0.8102403
vt 0.6646116 0.6940874
vt 0.6381996 0.6416264
vt 0.6619076 0.6358979
vt 0.7376891 0.8218549
vt 0.7376891 0.8539081
vt 0.7291837 0.8089622
vt 0.708616 0.7602443
vt 0.7302886 0.761919
vt 0.7024314 0.69836
vt 0.6908386 0.6391663
vt 0.7250134 0.7042608
vt 0.7063477 0.6458825
vt 0.2702675 0.6542794
vt 0.2384533 0.6677864
vt 0.2268737 0.711075
vt 0.2692282 0.7071009
vt 0.328117 0.6520612
vt 0.226163 0.7479243
vt 0.3270948 0.7049509
vt 0.3704409 0.6593893
vt 0.2690645 0.7516856
vt 0.2304655 0.7901826
vt 0.373395 0.7044694
vt 0.3807856 0.6911008
vt 0.3871513 0.7028676
vt 0.2736495 0.8044279
vt 0.2311481 0.8195748
vt 0.2867947 0.8314539
vt 0.3277713 0.7493011
vt 0.3757576 0.749896
vt 0.389518 0.7497078
vt 0.3298471 0.807309
vt 0.3710887 0.8056883
vt 0.3850974 0.8064693
vt 0.3313965 0.8184196
vt 0.3655872 0.859955
vt 0.3796998 0.8624503
vt 0.3373238 0.8609214
vt 0.292865 0.8624504
vt 0.9026445 -4.677011E-08
vt 0.8389962 0.02910481
vt 0.8338489 0.07599769
vt 0.8830253 0.05351201
vt 0.9468972 1.267279E-05
vt 0.8356131 0.1184067
vt 0.9412178 0.05362226
vt 0.9868421 -4.351419E-08
vt 0.9940733 0.05387737
vt 0.8830985 0.1115301
vt 0.833762 0.1501583
vt 0.9407547 0.1122215
vt 0.9999999 0.1090047
vt 0.8871892 0.1551762
vt 0.8430326 0.2014131
vt 0.8860962 0.2026878
vt 0.9096959 0.2013434
vt 0.9414051 0.156402
vt 0.9966027 0.1536149
vt 0.9415001 0.2016631
vt 0.9773858 0.1885311
vt 0.9321099 0.2221949
vt 0.9602613 0.2658033
vt 0.955317 0.226343
vt 0.93757 0.2657714
vt 0.9032368 0.225665
vt 0.9653351 0.3095459
vt 0.9086968 0.2692415
vt 0.887491 0.2316538
vt 0.9435239 0.3137041
vt 0.9606341 0.3764697
vt 0.9447915 0.3821586
vt 0.9146643 0.3171468
vt 0.9237223 0.3846909
vt 0.8830904 0.2749182
vt 0.8795928 0.2470046
vt 0.8888981 0.3187877
vt 0.8953802 0.3834178
vt 0.8816931 0.3846909
vt 0.8599265 0.3306506
vt 0.774579 0.8436972
vt 0.7406569 0.7884044
vt 0.7376891 0.8447064
vt 0.7783185 0.7876849
vt 0.8333821 0.8355584
vt 0.7399245 0.705132
vt 0.8412097 0.7864122
vt 0.8743045 0.8348396
vt 0.779044 0.7090252
vt 0.7376891 0.6358979
vt 0.7785923 0.6399758
vt 0.8446961 0.7090316
vt 0.845959 0.6401959
vt 0.8900704 0.7851247
vt 0.8991388 0.7116967
vt 0.8867784 0.6465491
vt 0.8913352 0.6482764
vt 0.9032594 0.7121415
vt 0.8942556 0.785426
vt 0.8786064 0.8367143
vt 0.2611633 0.6179352
vt 0.2893152 0.6520612
vt 0.3206571 0.642752
vt 0.3056457 0.6064755
vt 0.2270228 0.5479535
vt 0.2822205 0.5385303
vt 0.226163 0.4886983
vt 0.2756087 0.4771053
vt 0.3625513 0.6290097
vt 0.3614653 0.5884796
vt 0.3593893 0.5158499
vt 0.3635485 0.639406
vt 0.3226768 0.6520612
vt 0.3960056 0.6393269
vt 0.3949726 0.6292608
vt 0.3940731 0.5786039
vt 0.3926327 0.5065982
vt 0.3605918 0.4480396
vt 0.2732083 0.4576259
vt 0.4056841 0.4276832
vt 0.3599226 0.4401711
vt 0.40571 0.4200725
vt 0.1133142 0.6807225
vt 0.1670477 0.745675
vt 0.1542285 0.6771674
vt 0.1246008 0.7450625
vt 0.1789426 0.8119732
vt 0.0460364 0.6730029
vt 0.1339604 0.8058686
vt 0.1924302 0.8799837
vt 0.1423786 0.8757326
vt 0.04707971 0.7400753
vt 0.05057936 0.8041701
vt 0.05302852 0.8589584
vt 0.004838501 0.7375745
vt 0.004569549 0.6718107
vt 2.398591E-08 0.6750188
vt 0.00345522 0.8015274
vt 0.01227677 0.8582068
vt 0.05088526 0.8776631
vt 2.505188E-08 0.8762352
vt 0.6850911 0.4240022
vt 0.6509148 0.4265654
vt 0.6419457 0.4344139
vt 0.6369576 0.4741589
vt 0.6849729 0.4818776
vt 0.7122106 0.4211123
vt 0.6848485 0.5599794
vt 0.6327927 0.5502613
vt 0.629169 0.6078075
vt 0.7295036 0.4836819
vt 0.7306523 0.419127
vt 0.7647324 0.4170744
vt 0.7628907 0.4865189
vt 0.8168936 0.4376429
vt 0.8433294 0.4885187
vt 0.8433294 0.5625123
vt 0.7591774 0.5632513
vt 0.6946392 0.6036478
vt 0.7637499 0.6087473
vt 0.8298437 0.6259709
vt 0.7670055 0.6342532
vt 0.7032115 0.6358979
vt 0.6462663 0.6237795
vt 0.8694003 0.4202058
vt 0.9023243 0.4263437
vt 0.9018181 0.4170744
vt 0.8696957 0.4294391
vt 0.8565288 0.4638391
vt 0.8952467 0.4744155
vt 0.8531799 0.4910832
vt 0.8466262 0.5096601
vt 0.8898325 0.5400391
vt 0.8433294 0.5438315
vt 0.8542387 0.595124
vt 0.8585973 0.5987103
vt 0.8994659 0.5946864
vt 0.9581306 0.5866856
vt 0.9492612 0.5340764
vt 0.9950712 0.5905818
vt 0.9838338 0.5328256
vt 0.9463997 0.4698282
vt 0.9446716 0.4227892
vt 0.9796405 0.4679576
vt 0.9767964 0.4201926
vt 0.9932042 0.4257104
vt 0.9950712 0.4657417
vt 0.991726 0.5320941
vt 0.1316776 0.6636698
vt 0.1310747 0.6718108
vt 0.1911148 0.6586424
vt 0.185983 0.6520038
vt 0.2199498 0.6057113
vt 0.1353229 0.6014084
vt 0.06724239 0.6450737
vt 0.2049987 0.6046891
vt 0.2199498 0.521796
vt 0.2043919 0.5202016
vt 0.2114751 0.4509405
vt 0.1957569 0.4656095
vt 0.1440128 0.4270529
vt 0.1348521 0.5211576
vt 0.143778 0.4429687
vt 0.07789473 0.4203781
vt 0.06858423 0.5915449
vt 0.01883374 0.5843678
vt 0.02847827 0.6305683
vt 0.06651787 0.5163176
vt 0.07096111 0.4416878
vt 0.03136401 0.4402691
vt 0.02752537 0.6295
vt 0.02062527 0.6430807
vt 0.0118265 0.6329782
vt 0.003253902 0.5831742
vt 0.01978526 0.5065523
vt -2.951989E-08 0.5123862
vt 0.01510795 0.4419872
vt 0.009203849 0.4304149
vt 0.002539518 0.4378299
vt 0.01506879 0.460923
vt 0.786048 0.203001
vt 0.8049673 0.2221949
vt 0.8337621 0.1344126
vt 0.8122944 0.1371334
vt 0.8268455 0.04721965
vt 0.7969625 0.04756977
vt 0.7855209 0.01712578
vt 0.7416034 1.512886E-08
vt 0.7432196 0.01957954
vt 0.6628016 0.004187813
vt 0.6597766 0.02409115
vt 0.6396064 0.02796282
vt 0.6216149 0.1035295
vt 0.6347703 0.1036887
vt 0.7604288 0.1664414
vt 0.7734858 0.1336261
vt 0.7196152 0.1116353
vt 0.7216237 0.1681017
vt 0.7134432 0.2039294
vt 0.7632878 0.07131056
vt 0.736177 0.05693825
vt 0.6885126 0.05948311
vt 0.6725321 0.1109689
vt 0.6420965 0.1770237
vt 0.6768933 0.1518995
vt 0.7006227 0.2221949
vt 0.6269636 0.1954874
usemtl MV_RockDesert_Hoodoo
f 1/1/1 3/3/3 2/2/2
f 4/4/4 6/6/6 5/5/5
f 4/4/4 7/7/7 6/6/6
f 8/8/8 7/7/7 4/4/4
f 7/7/7 9/9/9 6/6/6
f 8/8/8 10/10/10 7/7/7
f 7/7/7 11/11/11 9/9/9
f 12/12/12 7/7/7 10/10/10
f 7/7/7 13/13/13 11/11/11
f 7/7/7 12/12/12 13/13/13
f 14/14/14 16/16/16 15/15/15
f 14/14/14 17/17/17 16/16/16
f 14/14/14 18/18/18 17/17/17
f 14/14/14 19/19/19 18/18/18
f 19/19/19 14/14/14 20/20/20
f 19/19/19 20/20/20 21/21/21
f 22/22/22 18/18/18 19/19/19
f 19/19/19 21/21/21 23/23/23
f 22/22/22 19/19/19 24/24/24
f 24/24/24 19/19/19 23/23/23
f 25/25/25 22/22/22 24/24/24
f 24/24/24 23/23/23 26/26/26
f 25/25/25 24/24/24 27/27/27
f 27/27/27 24/24/24 26/26/26
f 27/27/27 26/26/26 28/28/28
f 29/29/29 25/25/25 27/27/27
f 30/30/30 27/27/27 28/28/28
f 29/29/29 27/27/27 30/30/30
f 30/30/30 28/28/28 31/31/31
f 30/30/30 31/31/31 32/32/32
f 29/29/29 30/30/30 33/33/33
f 30/30/30 32/32/32 33/33/33
f 33/33/33 32/32/32 34/34/34
f 29/29/29 33/33/33 35/35/35
f 33/33/33 34/34/34 36/36/36
f 35/35/35 33/33/33 36/36/36
f 35/35/35 36/36/36 37/37/37
f 38/38/38 40/40/40 39/39/39
f 38/38/38 39/39/39 41/41/41
f 41/41/41 39/39/39 42/42/42
f 43/43/43 38/38/38 41/41/41
f 41/41/41 42/42/42 44/44/44
f 43/43/43 41/41/41 45/45/45
f 45/45/45 41/41/41 44/44/44
f 46/46/46 43/43/43 45/45/45
f 45/45/45 44/44/44 47/47/47
f 46/46/46 45/45/45 48/48/48
f 48/48/48 45/45/45 47/47/47
f 48/48/48 47/47/47 49/49/49
f 50/50/50 46/46/46 48/48/48
f 51/51/51 48/48/48 49/49/49
f 50/50/50 48/48/48 51/51/51
f 51/51/51 49/49/49 52/52/52
f 51/51/51 52/52/52 53/53/53
f 50/50/50 51/51/51 54/54/54
f 51/51/51 53/53/53 54/54/54
f 54/54/54 53/53/53 55/55/55
f 50/50/50 54/54/54 56/56/56
f 54/54/54 55/55/55 57/57/57
f 56/56/56 54/54/54 57/57/57
f 56/56/56 57/57/57 58/58/58
f 59/59/59 58/58/58 57/57/57
f 59/59/59 60/60/60 58/58/58
f 61/61/61 63/63/63 62/62/62
f 61/61/61 62/62/62 64/64/64
f 65/65/65 61/61/61 64/64/64
f 66/66/66 65/65/65 64/64/64
f 67/67/67 64/64/64 62/62/62
f 66/66/66 64/64/64 67/67/67
f 67/67/67 62/62/62 68/68/68
f 69/69/69 66/66/66 67/67/67
f 70/70/70 67/67/67 68/68/68
f 69/69/69 67/67/67 70/70/70
f 70/70/70 68/68/68 71/71/71
f 72/72/72 69/69/69 70/70/70
f 73/73/73 70/70/70 71/71/71
f 72/72/72 70/70/70 73/73/73
f 73/73/73 71/71/71 74/74/74
f 75/75/75 72/72/72 73/73/73
f 76/76/76 73/73/73 74/74/74
f 75/75/75 73/73/73 76/76/76
f 76/76/76 74/74/74 77/77/77
f 77/77/77 74/74/74 78/78/78
f 77/77/77 78/78/78 79/79/79
f 77/77/77 79/79/79 80/80/80
f 77/77/77 80/80/80 81/81/81
f 76/76/76 77/77/77 81/81/81
f 81/81/81 80/80/80 82/82/82
f 81/81/81 82/82/82 83/83/83
f 75/75/75 76/76/76 84/84/84
f 76/76/76 81/81/81 84/84/84
f 84/84/84 81/81/81 83/83/83
f 75/75/75 84/84/84 85/85/85
f 84/84/84 83/83/83 86/86/86
f 85/85/85 84/84/84 86/86/86
f 85/85/85 86/86/86 87/87/87
f 88/88/88 87/87/87 86/86/86
f 88/88/88 89/89/89 87/87/87
f 90/90/90 92/92/92 91/91/91
f 90/90/90 93/93/93 92/92/92
f 94/94/94 92/92/92 93/93/93
f 94/94/94 93/93/93 95/95/95
f 95/95/95 96/96/96 94/94/94
f 97/97/97 96/96/96 95/95/95
f 97/97/97 95/95/95 98/98/98
f 98/98/98 95/95/95 93/93/93
f 99/99/99 97/97/97 98/98/98
f 100/100/100 93/93/93 90/90/90
f 98/98/98 93/93/93 100/100/100
f 99/99/99 98/98/98 101/101/101
f 101/101/101 98/98/98 100/100/100
f 102/102/102 99/99/99 101/101/101
f 102/102/102 101/101/101 103/103/103
f 100/100/100 90/90/90 104/104/104
f 104/104/104 90/90/90 105/105/105
f 104/104/104 105/105/105 106/106/106
f 101/101/101 100/100/100 107/107/107
f 103/103/103 101/101/101 107/107/107
f 107/107/107 100/100/100 104/104/104
f 108/108/108 104/104/104 106/106/106
f 107/107/107 104/104/104 108/108/108
f 108/108/108 106/106/106 109/109/109
f 103/103/103 107/107/107 110/110/110
f 110/110/110 107/107/107 108/108/108
f 111/111/111 103/103/103 110/110/110
f 112/112/112 108/108/108 109/109/109
f 110/110/110 108/108/108 112/112/112
f 112/112/112 109/109/109 113/113/113
f 111/111/111 110/110/110 114/114/114
f 114/114/114 110/110/110 112/112/112
f 115/115/115 112/112/112 113/113/113
f 114/114/114 112/112/112 115/115/115
f 115/115/115 113/113/113 116/116/116
f 115/115/115 116/116/116 117/117/117
f 115/115/115 117/117/117 118/118/118
f 114/114/114 115/115/115 118/118/118
f 118/118/118 117/117/117 119/119/119
f 118/118/118 119/119/119 120/120/120
f 111/111/111 114/114/114 121/121/121
f 114/114/114 118/118/118 121/121/121
f 121/121/121 118/118/118 120/120/120
f 111/111/111 121/121/121 122/122/122
f 121/121/121 120/120/120 123/123/123
f 122/122/122 121/121/121 123/123/123
f 122/122/122 123/123/123 124/124/124
f 125/125/125 127/127/127 126/126/126
f 127/127/127 128/128/128 126/126/126
f 128/128/128 127/127/127 129/129/129
f 130/130/130 128/128/128 129/129/129
f 131/131/131 128/128/128 130/130/130
f 126/126/126 128/128/128 132/132/132
f 128/128/128 131/131/131 132/132/132
f 131/131/131 133/133/133 132/132/132
f 132/132/132 133/133/133 134/134/134
f 135/135/135 137/137/137 136/136/136
f 136/136/136 138/138/138 135/135/135
f 138/138/138 139/139/139 135/135/135
f 140/140/140 139/139/139 138/138/138
f 138/138/138 136/136/136 141/141/141
f 142/142/142 141/141/141 136/136/136
f 136/136/136 143/143/143 142/142/142
f 142/142/142 143/143/143 144/144/144
f 144/144/144 143/143/143 145/145/145
f 146/146/146 144/144/144 145/145/145
f 146/146/146 147/147/147 144/144/144
f 148/148/148 150/150/150 149/149/149
f 151/151/151 150/150/150 148/148/148
f 152/152/152 150/150/150 151/151/151
f 151/151/151 153/153/153 152/152/152
f 153/153/153 154/154/154 152/152/152
f 154/154/154 153/153/153 155/155/155
f 154/154/154 156/156/156 152/152/152
f 157/157/157 159/159/159 158/158/158
f 157/157/157 158/158/158 160/160/160
f 160/160/160 158/158/158 161/161/161
f 160/160/160 162/162/162 157/157/157
f 163/163/163 157/157/157 162/162/162
f 163/163/163 162/162/162 164/164/164
f 162/162/162 165/165/165 164/164/164
f 162/162/162 166/166/166 165/165/165
f 160/160/160 161/161/161 167/167/167
f 160/160/160 167/167/167 162/162/162
f 166/166/166 162/162/162 167/167/167
f 161/161/161 168/168/168 167/167/167
f 166/166/166 167/167/167 169/169/169
f 170/170/170 172/172/172 171/171/171
f 171/171/171 173/173/173 170/170/170
f 174/174/174 170/170/170 173/173/173
f 175/175/175 174/174/174 173/173/173
f 176/176/176 174/174/174 175/175/175
f 170/170/170 174/174/174 177/177/177
f 178/178/178 174/174/174 176/176/176
f 174/174/174 179/179/179 177/177/177
f 178/178/178 179/179/179 174/174/174
f 179/179/179 180/180/180 177/177/177
f 181/181/181 179/179/179 178/178/178
f 179/179/179 182/182/182 180/180/180
f 182/182/182 179/179/179 181/181/181
f 183/183/183 185/185/185 184/184/184
f 185/185/185 186/186/186 184/184/184
f 187/187/187 189/189/189 188/188/188
f 190/190/190 188/188/188 189/189/189
f 191/191/191 193/193/193 192/192/192
f 194/194/194 192/192/192 193/193/193
f 192/192/192 194/194/194 195/195/195
f 195/195/195 194/194/194 196/196/196
f 197/197/197 195/195/195 196/196/196
f 198/198/198 195/195/195 197/197/197
f 198/198/198 199/199/199 195/195/195
f 200/200/200 195/195/195 199/199/199
f 200/200/200 201/201/201 195/195/195
f 200/200/200 202/202/202 201/201/201
f 201/201/201 202/202/202 203/203/203
f 203/203/203 204/204/204 201/201/201
f 195/195/195 205/205/205 192/192/192
f 192/192/192 205/205/205 206/206/206
f 205/205/205 207/207/207 206/206/206
f 205/205/205 208/208/208 207/207/207
f 201/201/201 204/204/204 208/208/208
f 208/208/208 204/204/204 209/209/209
f 201/201/201 210/210/210 195/195/195
f 210/210/210 205/205/205 195/195/195
f 201/201/201 208/208/208 211/211/211
f 210/210/210 201/201/201 211/211/211
f 205/205/205 210/210/210 211/211/211
f 205/205/205 211/211/211 208/208/208
f 212/212/212 214/214/214 213/213/213
f 212/212/212 215/215/215 214/214/214
f 216/216/216 215/215/215 212/212/212
f 215/215/215 217/217/217 214/214/214
f 216/216/216 218/218/218 215/215/215
f 219/219/219 218/218/218 216/216/216
f 215/215/215 220/220/220 217/217/217
f 218/218/218 220/220/220 215/215/215
f 220/220/220 221/221/221 217/217/217
f 220/220/220 222/222/222 221/221/221
f 223/223/223 222/222/222 220/220/220
f 218/218/218 223/223/223 220/220/220
f 223/223/223 224/224/224 222/222/222
f 219/219/219 225/225/225 218/218/218
f 225/225/225 223/223/223 218/218/218
f 226/226/226 225/225/225 219/219/219
f 227/227/227 225/225/225 226/226/226
f 227/227/227 228/228/228 225/225/225
f 229/229/229 224/224/224 223/223/223
f 225/225/225 229/229/229 223/223/223
f 228/228/228 229/229/229 225/225/225
f 229/229/229 230/230/230 224/224/224
f 228/228/228 231/231/231 229/229/229
f 231/231/231 230/230/230 229/229/229
f 231/231/231 232/232/232 230/230/230
f 233/233/233 235/235/235 234/234/234
f 233/233/233 236/236/236 235/235/235
f 237/237/237 236/236/236 233/233/233
f 236/236/236 238/238/238 235/235/235
f 237/237/237 239/239/239 236/236/236
f 240/240/240 239/239/239 237/237/237
f 240/240/240 241/241/241 239/239/239
f 236/236/236 242/242/242 238/238/238
f 239/239/239 242/242/242 236/236/236
f 242/242/242 243/243/243 238/238/238
f 242/242/242 244/244/244 243/243/243
f 242/242/242 245/245/245 244/244/244
f 241/241/241 246/246/246 239/239/239
f 239/239/239 246/246/246 242/242/242
f 246/246/246 245/245/245 242/242/242
f 241/241/241 247/247/247 246/246/246
f 246/246/246 248/248/248 245/245/245
f 247/247/247 248/248/248 246/246/246
f 247/247/247 249/249/249 248/248/248
f 250/250/250 252/252/252 251/251/251
f 250/250/250 251/251/251 253/253/253
f 253/253/253 251/251/251 254/254/254
f 255/255/255 250/250/250 253/253/253
f 253/253/253 254/254/254 256/256/256
f 256/256/256 254/254/254 257/257/257
f 255/255/255 253/253/253 258/258/258
f 258/258/258 253/253/253 256/256/256
f 256/256/256 257/257/257 259/259/259
f 259/259/259 257/257/257 260/260/260
f 259/259/259 260/260/260 261/261/261
f 258/258/258 262/262/262 255/255/255
f 255/255/255 262/262/262 263/263/263
f 262/262/262 258/258/258 264/264/264
f 258/258/258 256/256/256 265/265/265
f 264/264/264 258/258/258 265/265/265
f 265/265/265 256/256/256 259/259/259
f 264/264/264 265/265/265 266/266/266
f 267/267/267 259/259/259 261/261/261
f 265/265/265 259/259/259 267/267/267
f 266/266/266 265/265/265 267/267/267
f 267/267/267 261/261/261 268/268/268
f 266/266/266 267/267/267 269/269/269
f 269/269/269 267/267/267 268/268/268
f 269/269/269 268/268/268 270/270/270
f 271/271/271 273/273/273 272/272/272
f 271/271/271 274/274/274 273/273/273
f 275/275/275 274/274/274 271/271/271
f 274/274/274 276/276/276 273/273/273
f 275/275/275 277/277/277 274/274/274
f 278/278/278 277/277/277 275/275/275
f 274/274/274 279/279/279 276/276/276
f 277/277/277 279/279/279 274/274/274
f 279/279/279 280/280/280 276/276/276
f 278/278/278 281/281/281 277/277/277
f 281/281/281 278/278/278 282/282/282
f 283/283/283 281/281/281 282/282/282
f 279/279/279 284/284/284 280/280/280
f 284/284/284 285/285/285 280/280/280
f 284/284/284 286/286/286 285/285/285
f 277/277/277 287/287/287 279/279/279
f 281/281/281 287/287/287 277/277/277
f 287/287/287 284/284/284 279/279/279
f 288/288/288 281/281/281 283/283/283
f 281/281/281 288/288/288 287/287/287
f 288/288/288 283/283/283 289/289/289
f 287/287/287 290/290/290 284/284/284
f 288/288/288 290/290/290 287/287/287
f 290/290/290 286/286/286 284/284/284
f 291/291/291 288/288/288 289/289/289
f 288/288/288 291/291/291 290/290/290
f 291/291/291 289/289/289 292/292/292
f 290/290/290 293/293/293 286/286/286
f 291/291/291 293/293/293 290/290/290
f 294/294/294 291/291/291 292/292/292
f 293/293/293 291/291/291 294/294/294
f 294/294/294 292/292/292 295/295/295
f 293/293/293 294/294/294 296/296/296
f 286/286/286 293/293/293 296/296/296
f 286/286/286 296/296/296 297/297/297
f 298/298/298 300/300/300 299/299/299
f 298/298/298 301/301/301 300/300/300
f 302/302/302 301/301/301 298/298/298
f 301/301/301 303/303/303 300/300/300
f 302/302/302 304/304/304 301/301/301
f 305/305/305 304/304/304 302/302/302
f 305/305/305 306/306/306 304/304/304
f 301/301/301 307/307/307 303/303/303
f 304/304/304 307/307/307 301/301/301
f 307/307/307 308/308/308 303/303/303
f 306/306/306 309/309/309 304/304/304
f 304/304/304 309/309/309 307/307/307
f 306/306/306 310/310/310 309/309/309
f 307/307/307 311/311/311 308/308/308
f 309/309/309 311/311/311 307/307/307
f 311/311/311 312/312/312 308/308/308
f 311/311/311 313/313/313 312/312/312
f 311/311/311 314/314/314 313/313/313
f 310/310/310 315/315/315 309/309/309
f 309/309/309 315/315/315 311/311/311
f 315/315/315 314/314/314 311/311/311
f 310/310/310 316/316/316 315/315/315
f 315/315/315 317/317/317 314/314/314
f 316/316/316 317/317/317 315/315/315
f 316/316/316 318/318/318 317/317/317
f 319/319/319 321/321/321 320/320/320
f 319/319/319 320/320/320 322/322/322
f 323/323/323 319/319/319 322/322/322
f 322/322/322 320/320/320 324/324/324
f 323/323/323 322/322/322 325/325/325
f 325/325/325 326/326/326 323/323/323
f 322/322/322 324/324/324 327/327/327
f 325/325/325 322/322/322 327/327/327
f 327/327/327 324/324/324 328/328/328
f 327/327/327 328/328/328 329/329/329
f 330/330/330 327/327/327 329/329/329
f 325/325/325 327/327/327 330/330/330
f 330/330/330 329/329/329 331/331/331
f 332/332/332 326/326/326 325/325/325
f 332/332/332 325/325/325 330/330/330
f 326/326/326 332/332/332 333/333/333
f 332/332/332 330/330/330 334/334/334
f 334/334/334 330/330/330 331/331/331
f 334/334/334 331/331/331 335/335/335
f 336/336/336 334/334/334 335/335/335
f 336/336/336 337/337/337 334/334/334
f 338/338/338 340/340/340 339/339/339
f 338/338/338 339/339/339 341/341/341
f 342/342/342 338/338/338 341/341/341
f 341/341/341 339/339/339 343/343/343
f 342/342/342 341/341/341 344/344/344
f 345/345/345 342/342/342 344/344/344
f 341/341/341 343/343/343 346/346/346
f 344/344/344 341/341/341 346/346/346
f 346/346/346 343/343/343 347/347/347
f 346/346/346 347/347/347 348/348/348
f 349/349/349 346/346/346 348/348/348
f 344/344/344 346/346/346 349/349/349
f 349/349/349 348/348/348 350/350/350
f 345/345/345 344/344/344 351/351/351
f 351/351/351 344/344/344 349/349/349
f 352/352/352 349/349/349 350/350/350
f 351/351/351 349/349/349 352/352/352
f 352/352/352 350/350/350 353/353/353
f 354/354/354 352/352/352 353/353/353
f 354/354/354 355/355/355 352/352/352
f 355/355/355 351/351/351 352/352/352
f 355/355/355 356/356/356 351/351/351
f 356/356/356 345/345/345 351/351/351
f 356/356/356 357/357/357 345/345/345
f 358/358/358 360/360/360 359/359/359
f 358/358/358 361/361/361 360/360/360
f 362/362/362 361/361/361 358/358/358
f 362/362/362 363/363/363 361/361/361
f 364/364/364 363/363/363 362/362/362
f 364/364/364 365/365/365 363/363/363
f 361/361/361 366/366/366 360/360/360
f 363/363/363 367/367/367 361/361/361
f 361/361/361 367/367/367 366/366/366
f 365/365/365 368/368/368 363/363/363
f 363/363/363 368/368/368 367/367/367
f 360/360/360 366/366/366 369/369/369
f 360/360/360 369/369/369 370/370/370
f 366/366/366 371/371/371 369/369/369
f 366/366/366 372/372/372 371/371/371
f 367/367/367 372/372/372 366/366/366
f 367/367/367 373/373/373 372/372/372
f 368/368/368 373/373/373 367/367/367
f 368/368/368 374/374/374 373/373/373
f 365/365/365 375/375/375 368/368/368
f 375/375/375 374/374/374 368/368/368
f 375/375/375 365/365/365 376/376/376
f 375/375/375 377/377/377 374/374/374
f 375/375/375 376/376/376 378/378/378
f 378/378/378 377/377/377 375/375/375
f 378/378/378 379/379/379 377/377/377
f 380/380/380 382/382/382 381/381/381
f 380/380/380 381/381/381 383/383/383
f 383/383/383 381/381/381 384/384/384
f 385/385/385 380/380/380 383/383/383
f 383/383/383 384/384/384 386/386/386
f 386/386/386 384/384/384 387/387/387
f 386/386/386 387/387/387 388/388/388
f 385/385/385 383/383/383 389/389/389
f 389/389/389 383/383/383 386/386/386
f 390/390/390 386/386/386 388/388/388
f 389/389/389 386/386/386 390/390/390
f 390/390/390 388/388/388 391/391/391
f 392/392/392 385/385/385 389/389/389
f 392/392/392 389/389/389 390/390/390
f 392/392/392 393/393/393 385/385/385
f 394/394/394 393/393/393 392/392/392
f 392/392/392 390/390/390 395/395/395
f 395/395/395 390/390/390 391/391/391
f 395/395/395 391/391/391 396/396/396
f 397/397/397 396/396/396 391/391/391
f 397/397/397 398/398/398 396/396/396
f 399/399/399 401/401/401 400/400/400
f 399/399/399 402/402/402 401/401/401
f 399/399/399 403/403/403 402/402/402
f 404/404/404 403/403/403 399/399/399
f 402/402/402 403/403/403 405/405/405
f 402/402/402 405/405/405 406/406/406
f 405/405/405 407/407/407 406/406/406
f 404/404/404 408/408/408 403/403/403
f 405/405/405 403/403/403 408/408/408
f 409/409/409 408/408/408 404/404/404
f 410/410/410 408/408/408 409/409/409
f 410/410/410 411/411/411 408/408/408
f 412/412/412 411/411/411 410/410/410
f 412/412/412 413/413/413 411/411/411
f 411/411/411 413/413/413 414/414/414
f 415/415/415 408/408/408 411/411/411
f 405/405/405 408/408/408 415/415/415
f 411/411/411 414/414/414 415/415/415
f 405/405/405 416/416/416 407/407/407
f 415/415/415 416/416/416 405/405/405
f 414/414/414 417/417/417 415/415/415
f 415/415/415 417/417/417 416/416/416
f 414/414/414 418/418/418 417/417/417
f 417/417/417 418/418/418 419/419/419
f 416/416/416 417/417/417 419/419/419
f 416/416/416 419/419/419 420/420/420
f 407/407/407 416/416/416 420/420/420
f 407/407/407 420/420/420 421/421/421
f 422/422/422 424/424/424 423/423/423
f 422/422/422 423/423/423 425/425/425
f 426/426/426 425/425/425 423/423/423
f 426/426/426 423/423/423 427/427/427
f 428/428/428 426/426/426 427/427/427
f 427/427/427 429/429/429 428/428/428
f 429/429/429 427/427/427 430/430/430
f 429/429/429 430/430/430 431/431/431
f 430/430/430 432/432/432 431/431/431
f 432/432/432 430/430/430 433/433/433
f 433/433/433 430/430/430 434/434/434
f 430/430/430 435/435/435 434/434/434
f 430/430/430 436/436/436 435/435/435
f 427/427/427 436/436/436 430/430/430
f 436/436/436 437/437/437 435/435/435
f 436/436/436 438/438/438 437/437/437
f 423/423/423 439/439/439 427/427/427
f 427/427/427 439/439/439 436/436/436
f 439/439/439 438/438/438 436/436/436
f 423/423/423 440/440/440 439/439/439
f 440/440/440 441/441/441 439/439/439
f 439/439/439 441/441/441 438/438/438
f 440/440/440 442/442/442 441/441/441
f 441/441/441 442/442/442 443/443/443
f 441/441/441 443/443/443 444/444/444
f 444/444/444 438/438/438 441/441/441
f 444/444/444 445/445/445 438/438/438
f 446/446/446 448/448/448 447/447/447
f 446/446/446 449/449/449 448/448/448
f 449/449/449 450/450/450 448/448/448
f 451/451/451 449/449/449 446/446/446
f 452/452/452 451/451/451 446/446/446
f 449/449/449 453/453/453 450/450/450
f 451/451/451 453/453/453 449/449/449
f 453/453/453 454/454/454 450/450/450
f 453/453/453 455/455/455 454/454/454
f 455/455/455 453/453/453 451/451/451
f 455/455/455 456/456/456 454/454/454
f 455/455/455 457/457/457 456/456/456
f 457/457/457 458/458/458 456/456/456
f 455/455/455 451/451/451 459/459/459
f 457/457/457 455/455/455 459/459/459
f 457/457/457 460/460/460 458/458/458
f 457/457/457 459/459/459 460/460/460
f 460/460/460 461/461/461 458/458/458
f 452/452/452 462/462/462 451/451/451
f 459/459/459 451/451/451 462/462/462
f 452/452/452 463/463/463 462/462/462
f 463/463/463 452/452/452 464/464/464
f 459/459/459 462/462/462 465/465/465
f 460/460/460 459/459/459 465/465/465
f 465/465/465 462/462/462 463/463/463
f 460/460/460 466/466/466 461/461/461
f 460/460/460 465/465/465 466/466/466
f 466/466/466 467/467/467 461/461/461
f 465/465/465 467/467/467 466/466/466
f 463/463/463 464/464/464 468/468/468
f 468/468/468 464/464/464 469/469/469
f 468/468/468 469/469/469 470/470/470
f 463/463/463 468/468/468 470/470/470
f 463/463/463 470/470/470 471/471/471
f 465/465/465 463/463/463 472/472/472
f 472/472/472 463/463/463 471/471/471
f 467/467/467 465/465/465 472/472/472
f 472/472/472 471/471/471 473/473/473
f 461/461/461 467/467/467 474/474/474
f 461/461/461 474/474/474 475/475/475
f 474/474/474 476/476/476 475/475/475
f 474/474/474 473/473/473 476/476/476
f 467/467/467 472/472/472 477/477/477
f 467/467/467 477/477/477 474/474/474
f 474/474/474 477/477/477 473/473/473
f 473/473/473 477/477/477 472/472/472
f 478/478/478 480/480/480 479/479/479
f 478/478/478 481/481/481 480/480/480
f 481/481/481 482/482/482 480/480/480
f 481/481/481 483/483/483 482/482/482
f 483/483/483 484/484/484 482/482/482
f 483/483/483 485/485/485 484/484/484
f 483/483/483 486/486/486 485/485/485
f 486/486/486 487/487/487 485/485/485
f 486/486/486 488/488/488 487/487/487
f 488/488/488 489/489/489 487/487/487
f 488/488/488 490/490/490 489/489/489
f 488/488/488 491/491/491 490/490/490
f 492/492/492 481/481/481 478/478/478
f 493/493/493 483/483/483 481/481/481
f 492/492/492 493/493/493 481/481/481
f 493/493/493 492/492/492 494/494/494
f 495/495/495 492/492/492 478/478/478
f 494/494/494 492/492/492 495/495/495
f 495/495/495 478/478/478 496/496/496
f 493/493/493 497/497/497 483/483/483
f 497/497/497 486/486/486 483/483/483
f 494/494/494 497/497/497 493/493/493
f 497/497/497 498/498/498 486/486/486
f 498/498/498 488/488/488 486/486/486
f 497/497/497 494/494/494 498/498/498
f 498/498/498 499/499/499 488/488/488
f 499/499/499 491/491/491 488/488/488
f 498/498/498 494/494/494 499/499/499
f 499/499/499 500/500/500 491/491/491
f 499/499/499 494/494/494 500/500/500
f 500/500/500 501/501/501 491/491/491
f 494/494/494 495/495/495 502/502/502
f 502/502/502 500/500/500 494/494/494
f 502/502/502 495/495/495 496/496/496
f 500/500/500 502/502/502 501/501/501
f 502/502/502 496/496/496 501/501/501
f 501/501/501 496/496/496 503/503/503
f 501/501/501 503/503/503 504/504/504
