mtllib P_RockSpire_Rock11.mtl
v 3.864533 5.063282 -0.9763275
v 3.955337 5.054734 0.3938631
v 2.712665 6.059661 -0.9799483
v 1.897296 7.370312 2.048112
v 1.357753 8.18155 1.642657
v 1.984344 7.375054 1.959937
v 1.062191 4.883701 -2.322346
v 2.175499 5.205275 -1.291461
v 1.914153 5.226385 -1.367923
v -2.966717 -1.615434 0.9018241
v -1.598285 -2.224245 1.624277
v -2.351212 -1.948458 1.163341
v -1.753272 -1.411159 -2.787145
v -2.935941 -1.193085 -1.774432
v -2.856848 -1.28867 -1.724526
v -1.684179 -1.47232 -2.767406
v -1.742412 -1.895986 -0.5655715
v 0.9656208 -1.578667 -2.985408
v -3.138506 -1.556024 0.2771175
v 1.83051 -1.846407 -1.697508
v 0.9915538 -1.522539 -3.018261
v -2.351212 -1.948458 1.163341
v -2.966717 -1.615434 0.9018241
v -1.53735 -2.228238 1.303727
v -1.598285 -2.224245 1.624277
v 2.170222 -1.44232 1.194303
v -0.6937858 -1.935802 2.392928
v 2.754376 -1.521149 -0.6422062
v 3.418132 -0.4581546 1.096972
v 3.311823 -0.9278839 -0.2323066
v 0.9656208 -1.578667 -2.985408
v 0.9915538 -1.522539 -3.018261
v -1.684179 -1.47232 -2.767406
v -1.753272 -1.411159 -2.787145
v -0.5211375 1.846774 -3.316206
v 1.903579 0.5115364 -2.997882
v 1.87197 2.053173 -2.998885
v -2.368372 1.732749 -3.185641
v -2.935941 -1.193085 -1.774432
v -2.787217 1.752318 -2.879593
v -2.889465 4.911485 -2.151943
v -1.916822 4.91164 -2.833561
v -0.5065426 5.123843 -2.817009
v 1.062191 4.883701 -2.322346
v 0.9970288 5.013218 -2.281751
v 1.914153 5.226385 -1.367923
v 2.690544 2.516292 -2.086852
v 2.175499 5.205275 -1.291461
v 3.330836 2.496524 -1.751893
v 2.798427 1.03612 -2.014746
v 2.643453 0.4838995 -2.003146
v 3.864533 5.063282 -0.9763275
v 2.712665 6.059661 -0.9799483
v 1.858103 6.262884 -1.013078
v 1.154367 5.509573 -1.438834
v -0.3253427 6.39726 -1.413321
v 1.914153 5.226385 -1.367923
v -0.5226481 5.532974 -1.829339
v 0.8126239 7.994674 -1.026494
v 1.852251 7.202475 -0.9782943
v 0.813112 8.042033 -0.9874125
v 0.05845182 7.914728 -1.264427
v -1.124292 8.019702 -0.9671078
v -1.123668 8.06524 -0.92181
v -1.917619 7.355659 -0.995828
v -2.191167 6.424759 -1.055617
v -2.309656 6.417466 -0.9773825
v -2.266961 5.298049 -1.426683
v -2.296584 5.218791 -1.489346
v 0.9915538 -1.522539 -3.018261
v 1.83051 -1.846407 -1.697508
v 1.903579 0.5115364 -2.997882
v 2.643453 0.4838995 -2.003146
v 2.754376 -1.521149 -0.6422062
v 1.87197 2.053173 -2.998885
v 2.690544 2.516292 -2.086852
v 3.311823 -0.9278839 -0.2323066
v 3.383638 2.481773 -1.673328
v 2.798427 1.03612 -2.014746
v 3.330836 2.496524 -1.751893
v 3.864533 5.063282 -0.9763275
v 3.955337 5.054734 0.3938631
v 3.544832 0.5483645 1.587506
v 3.418132 -0.4581546 1.096972
v 3.492931 0.5186973 1.631439
v 3.592761 2.762337 1.748017
v 2.777648 5.865635 1.940159
v 2.779535 5.969351 1.866569
v 2.770539 6.308539 0.9508056
v 2.712665 6.059661 -0.9799483
v 3.492931 0.5186973 1.631439
v 3.592761 2.762337 1.748017
v 3.544832 0.5483645 1.587506
v 3.507561 2.6992 1.830849
v 2.777648 5.865635 1.940159
v 1.346651 3.595122 2.859545
v 0.6715147 -0.05615063 2.762244
v 2.170222 -1.44232 1.194303
v 3.418132 -0.4581546 1.096972
v -0.6396909 -1.511181 2.604139
v -0.6937858 -1.935802 2.392928
v -1.598285 -2.224245 1.624277
v -2.966717 -1.615434 0.9018241
v -2.910076 1.685329 2.34378
v -2.990084 4.014974 2.34022
v -2.521861 4.839062 2.396026
v -2.76215 4.818514 2.357895
v -1.01097 6.68129 2.577802
v -2.508913 5.771269 2.392339
v -2.374644 6.182038 2.412269
v -2.549894 6.035096 2.301125
v -2.58326 6.5656 1.981453
v -2.026766 7.867821 1.140088
v 0.276788 8.148265 1.905039
v -0.5002012 8.421253 1.313569
v 0.3674259 8.053541 1.975233
v 0.8113123 8.091141 1.945714
v 0.6830785 6.271016 2.770413
v 1.315298 7.253178 2.331913
v 1.218441 4.579024 2.824497
v 1.910926 6.257052 2.271516
v 1.897296 7.370312 2.048112
v 1.357753 8.18155 1.642657
v 2.016973 6.342064 2.147629
v 2.779535 5.969351 1.866569
v 1.984344 7.375054 1.959937
v -2.76215 4.818514 2.357895
v -2.599454 4.903778 2.282912
v -2.521861 4.839062 2.396026
v -3.143368 4.920701 1.7221
v -2.817473 5.067397 1.076679
v -3.378474 4.916785 0.6802933
v -2.296584 5.218791 -1.489346
v -2.889465 4.911485 -2.151943
v -1.916822 4.91164 -2.833561
v -0.5226481 5.532974 -1.829339
v -0.5065426 5.123843 -2.817009
v 0.9970288 5.013218 -2.281751
v 1.154367 5.509573 -1.438834
v 1.914153 5.226385 -1.367923
v -2.508913 5.771269 2.392339
v -2.521861 4.839062 2.396026
v -2.599454 4.903778 2.282912
v -2.549894 6.035096 2.301125
v -2.778764 5.155501 1.095004
v -2.817473 5.067397 1.076679
v -2.266961 5.298049 -1.426683
v -2.296584 5.218791 -1.489346
v -2.309656 6.417466 -0.9773825
v -2.611443 6.461545 2.004744
v -2.801149 6.413751 1.287582
v -2.58326 6.5656 1.981453
v -2.374644 6.182038 2.412269
v -2.041528 7.886934 1.030634
v -1.917619 7.355659 -0.995828
v -2.026766 7.867821 1.140088
v -0.5002012 8.421253 1.313569
v -2.026766 7.867821 1.140088
v -2.041528 7.886934 1.030634
v -1.123668 8.06524 -0.92181
v -1.917619 7.355659 -0.995828
v 0.2199521 8.528964 0.6828846
v 0.276788 8.148265 1.905039
v 0.04128719 8.381431 -0.5799277
v 0.05845182 7.914728 -1.264427
v 0.813112 8.042033 -0.9874125
v 1.357753 8.18155 1.642657
v 0.8113123 8.091141 1.945714
v 1.875297 7.807351 -0.1302393
v 1.852251 7.202475 -0.9782943
v 1.934271 7.757714 -0.05714979
v 1.852251 7.202475 -0.9782943
v 1.858103 6.262884 -1.013078
v 1.925995 6.295082 -0.9109777
v 1.934271 7.757714 -0.05714979
v 1.875297 7.807351 -0.1302393
v 2.07426 6.607624 0.8391946
v 1.984344 7.375054 1.959937
v 2.016973 6.342064 2.147629
v 1.357753 8.18155 1.642657
v 1.925995 6.295082 -0.9109777
v 1.858103 6.262884 -1.013078
v 2.712665 6.059661 -0.9799483
v 2.07426 6.607624 0.8391946
v 2.770539 6.308539 0.9508056
v 2.779535 5.969351 1.866569
v 2.016973 6.342064 2.147629
v -2.787217 1.752318 -2.879593
v -2.889465 4.911485 -2.151943
v -3.378474 4.916785 0.6802933
v -2.935941 -1.193085 -1.774432
v -3.138506 -1.556024 0.2771175
v -2.856848 -1.28867 -1.724526
v -3.007805 -0.3649899 1.38187
v -2.966717 -1.615434 0.9018241
v -2.910076 1.685329 2.34378
v -3.044054 3.915463 2.276371
v -2.990084 4.014974 2.34022
v -3.158044 4.823921 1.800552
v -3.143368 4.920701 1.7221
v -2.76215 4.818514 2.357895
vn 0.788051 0.3378621 -0.5146114
vn 0.9459119 0.2994522 0.1248166
vn 0.4052898 0.6825764 -0.6081362
vn 0.5188686 0.3975476 0.7567901
vn 0.4337521 0.8342655 0.3403824
vn 0.854185 0.3670897 0.3682568
vn 0.4361159 0.3612633 -0.8241916
vn 0.2951109 0.3536215 -0.8876156
vn 0.2707279 0.7101105 -0.6499611
vn -0.748823 -0.5384808 0.3863967
vn -0.2955844 -0.8477217 0.4404518
vn -0.480681 -0.8463354 0.2294825
vn -0.4040076 -0.4332762 -0.8056362
vn -0.8381957 -0.3756365 -0.3953798
vn -0.521138 -0.8060123 -0.2806411
vn -0.2122597 -0.7806332 -0.5878416
vn -0.1883969 -0.9671203 -0.1708361
vn 0.1683823 -0.7855598 -0.5954353
vn -0.8211011 -0.5701288 -0.02731543
vn 0.460348 -0.8244181 -0.3292638
vn 0.3412359 -0.3755575 -0.8616929
vn -0.480681 -0.8463354 0.2294825
vn -0.748823 -0.5384808 0.3863967
vn -0.08902886 -0.9947579 -0.0503051
vn -0.2955844 -0.8477217 0.4404518
vn 0.4203607 -0.7805661 0.4626159
vn -0.03408638 -0.7336496 0.6786725
vn 0.6300746 -0.7549242 -0.1819215
vn 0.8107976 -0.4472472 0.3775941
vn 0.8781185 -0.4590911 -0.1346974
vn 0.1683823 -0.7855598 -0.5954353
vn 0.3412359 -0.3755575 -0.8616929
vn -0.2122597 -0.7806332 -0.5878416
vn -0.4040076 -0.4332762 -0.8056362
vn 0.02725702 0.04145561 -0.9987685
vn 0.533198 -0.1153675 -0.8380873
vn 0.4571325 0.1335838 -0.8793096
vn -0.3683213 -0.03318369 -0.9291062
vn -0.8381957 -0.3756365 -0.3953798
vn -0.8185771 -0.03319043 -0.5734369
vn -0.7167092 0.5539991 -0.4235716
vn -0.2797551 0.575828 -0.7682183
vn 0.1032531 0.6158562 -0.7810633
vn 0.4361159 0.3612633 -0.8241916
vn 0.3485383 0.650987 -0.6743419
vn 0.2707279 0.7101105 -0.6499611
vn 0.5678582 0.184662 -0.8021454
vn 0.2951109 0.3536215 -0.8876156
vn 0.645362 0.03810989 -0.7629257
vn 0.5513303 -0.1592819 -0.8189409
vn 0.7818593 -0.2163446 -0.5847145
vn 0.788051 0.3378621 -0.5146114
vn 0.4052898 0.6825764 -0.6081362
vn 0.3320688 0.326207 -0.8850533
vn 0.2387319 0.5807482 -0.7782922
vn 0.01652835 0.2783173 -0.960347
vn 0.2707279 0.7101105 -0.6499611
vn -0.01086365 0.731809 -0.6814232
vn 0.2945316 0.4129859 -0.8617969
vn 0.6663581 0.2445367 -0.7043925
vn 0.3251175 0.7975721 -0.5081116
vn 0.05026578 0.4483919 -0.8924226
vn -0.279122 0.5051112 -0.8166723
vn -0.3501089 0.8383327 -0.417878
vn -0.6116053 0.4384604 -0.6585526
vn -0.3989929 0.2569104 -0.8802282
vn -0.8437431 0.2443009 -0.4779275
vn -0.682158 0.4624316 -0.5664076
vn -0.4098135 0.8646951 -0.2904398
vn 0.3412359 -0.3755575 -0.8616929
vn 0.460348 -0.8244181 -0.3292638
vn 0.533198 -0.1153675 -0.8380873
vn 0.7818593 -0.2163446 -0.5847145
vn 0.6300746 -0.7549242 -0.1819215
vn 0.4571325 0.1335838 -0.8793096
vn 0.5678582 0.184662 -0.8021454
vn 0.8781185 -0.4590911 -0.1346974
vn 0.9218611 -0.1133802 -0.3705632
vn 0.5513303 -0.1592819 -0.8189409
vn 0.645362 0.03810989 -0.7629257
vn 0.788051 0.3378621 -0.5146114
vn 0.9459119 0.2994522 0.1248166
vn 0.9146808 -0.143324 0.3779117
vn 0.8107976 -0.4472472 0.3775941
vn 0.5578603 -0.2626974 0.7872623
vn 0.9048009 0.008419635 0.4257516
vn 0.6340334 0.2706717 0.7243883
vn 0.6523529 0.6068254 0.454091
vn 0.5579931 0.8225428 0.1098495
vn 0.4052898 0.6825764 -0.6081362
vn 0.5578603 -0.2626974 0.7872623
vn 0.9048009 0.008419635 0.4257516
vn 0.9146808 -0.143324 0.3779117
vn 0.569451 -0.0144715 0.8218979
vn 0.6340334 0.2706717 0.7243883
vn 0.1891429 0.004742187 0.9819381
vn 0.1966657 -0.2060567 0.9585735
vn 0.4203607 -0.7805661 0.4626159
vn 0.8107976 -0.4472472 0.3775941
vn -0.07393873 -0.3409224 0.9371793
vn -0.03408638 -0.7336496 0.6786725
vn -0.2955844 -0.8477217 0.4404518
vn -0.748823 -0.5384808 0.3863967
vn -0.6751238 -0.07852989 0.7335128
vn -0.552072 0.07598701 0.8303268
vn -0.2765147 0.1329499 0.9517689
vn -0.4372147 0.4890454 0.7547702
vn -0.1884746 0.341268 0.9208765
vn -0.5625721 0.03338736 0.8260738
vn -0.3922619 0.2974862 0.8704209
vn -0.8485619 0.1429179 0.5094283
vn -0.6975702 0.5087153 0.5045835
vn -0.5647814 0.7110064 0.4189175
vn -0.07983022 0.7757828 0.6259299
vn -0.216981 0.9140694 0.3426318
vn -0.03298044 0.5047541 0.862633
vn 0.1130381 0.7061903 0.6989404
vn 0.1002284 0.1863718 0.9773535
vn 0.2340107 0.3639485 0.9015434
vn 0.2343003 0.0765449 0.9691461
vn 0.4592904 0.2035312 0.8646545
vn 0.5188686 0.3975476 0.7567901
vn 0.4337521 0.8342655 0.3403824
vn 0.7227681 0.4069458 0.5585709
vn 0.6523529 0.6068254 0.454091
vn 0.854185 0.3670897 0.3682568
vn -0.4372147 0.4890454 0.7547702
vn -0.6779036 0.5483007 0.4897071
vn -0.2765147 0.1329499 0.9517689
vn -0.6144194 0.7455493 0.2581573
vn -0.6246954 0.7795691 0.04503103
vn -0.830558 0.5564839 0.02234126
vn -0.4098135 0.8646951 -0.2904398
vn -0.7167092 0.5539991 -0.4235716
vn -0.2797551 0.575828 -0.7682183
vn -0.01086365 0.731809 -0.6814232
vn 0.1032531 0.6158562 -0.7810633
vn 0.3485383 0.650987 -0.6743419
vn 0.2387319 0.5807482 -0.7782922
vn 0.2707279 0.7101105 -0.6499611
vn -0.5625721 0.03338736 0.8260738
vn -0.2765147 0.1329499 0.9517689
vn -0.6779036 0.5483007 0.4897071
vn -0.8485619 0.1429179 0.5094283
vn -0.9788821 0.2040347 0.01264207
vn -0.6246954 0.7795691 0.04503103
vn -0.682158 0.4624316 -0.5664076
vn -0.4098135 0.8646951 -0.2904398
vn -0.8437431 0.2443009 -0.4779275
vn -0.8887749 0.2100499 0.4073797
vn -0.9778793 0.2069682 0.03026814
vn -0.6975702 0.5087153 0.5045835
vn -0.3922619 0.2974862 0.8704209
vn -0.6706728 0.7416919 0.009549563
vn -0.6116053 0.4384604 -0.6585526
vn -0.5647814 0.7110064 0.4189175
vn -0.216981 0.9140694 0.3426318
vn -0.5647814 0.7110064 0.4189175
vn -0.6706728 0.7416919 0.009549563
vn -0.3501089 0.8383327 -0.417878
vn -0.6116053 0.4384604 -0.6585526
vn 0.07718779 0.9970127 0.002779075
vn -0.07983022 0.7757828 0.6259299
vn 0.02505357 0.9566939 -0.2900158
vn 0.05026578 0.4483919 -0.8924226
vn 0.3251175 0.7975721 -0.5081116
vn 0.4337521 0.8342655 0.3403824
vn 0.1130381 0.7061903 0.6989404
vn 0.6152247 0.7477486 -0.2497413
vn 0.6663581 0.2445367 -0.7043925
vn 0.8862554 0.454856 -0.08750625
vn 0.6663581 0.2445367 -0.7043925
vn 0.3320688 0.326207 -0.8850533
vn 0.6793538 0.609314 -0.4089192
vn 0.8862554 0.454856 -0.08750625
vn 0.6152247 0.7477486 -0.2497413
vn 0.8368195 0.5473859 0.01009076
vn 0.854185 0.3670897 0.3682568
vn 0.7227681 0.4069458 0.5585709
vn 0.4337521 0.8342655 0.3403824
vn 0.6793538 0.609314 -0.4089192
vn 0.3320688 0.326207 -0.8850533
vn 0.4052898 0.6825764 -0.6081362
vn 0.8368195 0.5473859 0.01009076
vn 0.5579931 0.8225428 0.1098495
vn 0.6523529 0.6068254 0.454091
vn 0.7227681 0.4069458 0.5585709
vn -0.8185771 -0.03319043 -0.5734369
vn -0.7167092 0.5539991 -0.4235716
vn -0.830558 0.5564839 0.02234126
vn -0.8381957 -0.3756365 -0.3953798
vn -0.8211011 -0.5701288 -0.02731543
vn -0.521138 -0.8060123 -0.2806411
vn -0.8847411 -0.1708028 0.4336584
vn -0.748823 -0.5384808 0.3863967
vn -0.6751238 -0.07852989 0.7335128
vn -0.8992366 -0.002265468 0.4374567
vn -0.552072 0.07598701 0.8303268
vn -0.8894595 0.2537479 0.3800971
vn -0.6144194 0.7455493 0.2581573
vn -0.4372147 0.4890454 0.7547702
vt 0.5271097 0.178891
vt 0.5364574 0.1909752
vt 0.5364574 0.1703466
vt 0.2170589 0.3820554
vt 0.2183814 0.3894287
vt 0.2183814 0.3816635
vt 0.4413507 0.582383
vt 0.4413507 0.5655013
vt 0.4400157 0.5682184
vt 0.5389955 0.1703466
vt 0.5389955 0.1814458
vt 0.5399479 0.1751852
vt 0.6788828 0.1670242
vt 0.6856708 0.1828718
vt 0.6864653 0.1822353
vt 0.6793237 0.1663801
vt 0.7024935 0.1745163
vt 0.6858761 0.1375896
vt 0.706763 0.1920138
vt 0.7024363 0.1328227
vt 0.685614 0.137184
vt 0.7188019 0.1867728
vt 0.7139665 0.1923027
vt 0.7230155 0.1787147
vt 0.7262129 0.1804312
vt 0.7342554 0.13874
vt 0.7373937 0.1733026
vt 0.7167234 0.1264336
vt 0.7373937 0.1248169
vt 0.7229354 0.1216732
vt 0.6440148 0.7852627
vt 0.6441757 0.7846171
vt 0.6148746 0.7898784
vt 0.6139871 0.7893814
vt 0.6201965 0.7515612
vt 0.6495703 0.7604405
vt 0.6457828 0.7437445
vt 0.6003047 0.7568403
vt 0.6005011 0.7889475
vt 0.595663 0.7573505
vt 0.5874142 0.7227114
vt 0.598088 0.7210105
vt 0.6129824 0.7155378
vt 0.6305623 0.7142974
vt 0.6295584 0.7130061
vt 0.638979 0.7079998
vt 0.6535711 0.7362412
vt 0.6418661 0.7075917
vt 0.6605574 0.734791
vt 0.658045 0.7520486
vt 0.6575881 0.7583931
vt 0.6605574 0.7051399
vt 0.6457787 0.6968808
vt 0.6360148 0.6966043
vt 0.6300735 0.7066679
vt 0.6119613 0.7003036
vt 0.638979 0.7079998
vt 0.6117863 0.7104352
vt 0.6207541 0.6801155
vt 0.6338487 0.6863738
vt 0.6206493 0.6795721
vt 0.6127389 0.6828372
vt 0.599582 0.6841325
vt 0.5994822 0.6836042
vt 0.592422 0.6931486
vt 0.5915263 0.7039267
vt 0.5902427 0.7042164
vt 0.5932568 0.7166094
vt 0.5931178 0.7175814
vt 0.6646013 0.8564007
vt 0.6797938 0.8597828
vt 0.6640152 0.8344803
vt 0.6753756 0.8347057
vt 0.6916962 0.8561888
vt 0.6630954 0.8173669
vt 0.6732844 0.8122571
vt 0.6961284 0.8497561
vt 0.6781765 0.812878
vt 0.6749887 0.8286997
vt 0.6772743 0.8127248
vt 0.6846102 0.7841742
vt 0.6998653 0.7835028
vt 0.7155706 0.832451
vt 0.7106577 0.8438179
vt 0.7160546 0.8327167
vt 0.7160857 0.8078418
vt 0.7160857 0.7727451
vt 0.7152092 0.7716412
vt 0.7048407 0.7684292
vt 0.6835245 0.7723175
vt 0.675517 0.2844988
vt 0.6740853 0.2595797
vt 0.6749142 0.2841706
vt 0.6750826 0.2602807
vt 0.6827137 0.2249503
vt 0.6994408 0.2501067
vt 0.7075129 0.290585
vt 0.6903387 0.3060059
vt 0.676257 0.2952622
vt 0.7222552 0.3065125
vt 0.7228268 0.3111909
vt 0.7325599 0.3141124
vt 0.7473201 0.3069797
vt 0.7468251 0.2705152
vt 0.7473201 0.2445878
vt 0.7420041 0.2355131
vt 0.7446599 0.2356931
vt 0.7249886 0.2153178
vt 0.7417014 0.2251458
vt 0.7401494 0.2206037
vt 0.7420686 0.2221888
vt 0.742197 0.216229
vt 0.7353897 0.2017022
vt 0.710107 0.1991151
vt 0.7184132 0.1958436
vt 0.7091492 0.2001963
vt 0.7041954 0.1998512
vt 0.7063223 0.2202112
vt 0.6989202 0.2093247
vt 0.7006832 0.2391343
vt 0.6924393 0.2204993
vt 0.6922961 0.2080769
vt 0.6979618 0.1988912
vt 0.691187 0.2195517
vt 0.68264 0.2237847
vt 0.6912857 0.2080248
vt 0.3544371 0.9453458
vt 0.3539039 0.9434075
vt 0.3523842 0.9435778
vt 0.3625771 0.9439802
vt 0.3657091 0.9365386
vt 0.3731065 0.9384765
vt 0.3837285 0.9136184
vt 0.3936096 0.9139451
vt 0.3923889 0.9007902
vt 0.3738489 0.8960575
vt 0.3821007 0.8889021
vt 0.366733 0.8800273
vt 0.3584626 0.8846506
vt 0.3523842 0.8787796
vt 0.9803162 0.6409756
vt 0.9906347 0.6420202
vt 0.9900433 0.6406569
vt 0.9774952 0.6396585
vt 0.9885498 0.6271491
vt 0.9895465 0.627021
vt 0.9896882 0.5993842
vt 0.9906347 0.5987611
vt 0.9768075 0.6031162
vt 0.9730966 0.6358848
vt 0.9744096 0.6279023
vt 0.9719688 0.6355297
vt 0.9757419 0.6408235
vt 0.9583508 0.6238756
vt 0.9664263 0.6021077
vt 0.9584433 0.6251149
vt 0.2904937 0.9704294
vt 0.2895121 0.9875671
vt 0.2906898 0.9879266
vt 0.3138217 0.9813962
vt 0.3130558 0.9903318
vt 0.2987476 0.9636644
vt 0.2853697 0.9608564
vt 0.3122524 0.9679486
vt 0.3197094 0.9690675
vt 0.318069 0.9602643
vt 0.2902262 0.9494687
vt 0.2858875 0.9549233
vt 0.3105563 0.9470718
vt 0.3197094 0.9489476
vt 0.3098526 0.9462973
vt 0.9694444 0.9754171
vt 0.9798687 0.9760504
vt 0.9795857 0.9748831
vt 0.9635643 0.965001
vt 0.9629524 0.9658211
vt 0.9766478 0.9552918
vt 0.9683345 0.9426609
vt 0.9798687 0.9408363
vt 0.9588469 0.946194
vt 0.8999819 0.6096144
vt 0.9006839 0.6084467
vt 0.8912407 0.6093284
vt 0.8992691 0.6290951
vt 0.8916438 0.6307741
vt 0.8921131 0.6410056
vt 0.9006839 0.6436405
vt 0.92664 0.8752537
vt 0.9188492 0.8400493
vt 0.8876436 0.8397654
vt 0.9142172 0.9079353
vt 0.8915029 0.9118127
vt 0.9136124 0.9089962
vt 0.8792459 0.8984795
vt 0.8844631 0.9124286
vt 0.8686592 0.8755967
vt 0.8696501 0.8507887
vt 0.8689187 0.8496775
vt 0.8750682 0.8407163
vt 0.8759393 0.8396459
vt 0.8686592 0.8407401
usemtl MV_RockSpire_Rocks
f 1/1/1 3/3/3 2/2/2
f 4/4/4 6/6/6 5/5/5
f 7/7/7 9/9/9 8/8/8
f 10/10/10 12/12/12 11/11/11
f 13/13/13 15/15/15 14/14/14
f 13/13/13 16/16/16 15/15/15
f 16/16/16 17/17/17 15/15/15
f 17/17/17 16/16/16 18/18/18
f 15/15/15 17/17/17 19/19/19
f 17/17/17 18/18/18 20/20/20
f 21/21/21 20/20/20 18/18/18
f 22/22/22 19/19/19 17/17/17
f 19/19/19 22/22/22 23/23/23
f 24/24/24 22/22/22 17/17/17
f 20/20/20 24/24/24 17/17/17
f 25/25/25 22/22/22 24/24/24
f 20/20/20 25/25/25 24/24/24
f 25/25/25 20/20/20 26/26/26
f 26/26/26 27/27/27 25/25/25
f 20/20/20 28/28/28 26/26/26
f 29/29/29 26/26/26 28/28/28
f 28/28/28 30/30/30 29/29/29
f 31/31/31 33/33/33 32/32/32
f 32/32/32 33/33/33 34/34/34
f 32/32/32 34/34/34 35/35/35
f 32/32/32 35/35/35 36/36/36
f 36/36/36 35/35/35 37/37/37
f 34/34/34 38/38/38 35/35/35
f 38/38/38 34/34/34 39/39/39
f 38/38/38 39/39/39 40/40/40
f 40/40/40 41/41/41 38/38/38
f 41/41/41 42/42/42 38/38/38
f 35/35/35 38/38/38 42/42/42
f 42/42/42 43/43/43 35/35/35
f 35/35/35 44/44/44 37/37/37
f 35/35/35 43/43/43 44/44/44
f 43/43/43 45/45/45 44/44/44
f 44/44/44 45/45/45 46/46/46
f 47/47/47 37/37/37 44/44/44
f 47/47/47 44/44/44 48/48/48
f 49/49/49 47/47/47 48/48/48
f 50/50/50 47/47/47 49/49/49
f 50/50/50 51/51/51 47/47/47
f 48/48/48 52/52/52 49/49/49
f 48/48/48 53/53/53 52/52/52
f 53/53/53 48/48/48 54/54/54
f 54/54/54 48/48/48 55/55/55
f 55/55/55 56/56/56 54/54/54
f 55/55/55 48/48/48 57/57/57
f 58/58/58 56/56/56 55/55/55
f 56/56/56 59/59/59 54/54/54
f 60/60/60 54/54/54 59/59/59
f 60/60/60 59/59/59 61/61/61
f 61/61/61 59/59/59 62/62/62
f 62/62/62 59/59/59 56/56/56
f 62/62/62 56/56/56 63/63/63
f 64/64/64 62/62/62 63/63/63
f 64/64/64 63/63/63 65/65/65
f 63/63/63 56/56/56 65/65/65
f 56/56/56 66/66/66 65/65/65
f 66/66/66 56/56/56 58/58/58
f 66/66/66 67/67/67 65/65/65
f 66/66/66 68/68/68 67/67/67
f 66/66/66 58/58/58 68/68/68
f 68/68/68 58/58/58 69/69/69
f 70/70/70 72/72/72 71/71/71
f 73/73/73 71/71/71 72/72/72
f 73/73/73 74/74/74 71/71/71
f 73/73/73 72/72/72 75/75/75
f 73/73/73 75/75/75 76/76/76
f 77/77/77 74/74/74 73/73/73
f 73/73/73 78/78/78 77/77/77
f 79/79/79 78/78/78 73/73/73
f 79/79/79 80/80/80 78/78/78
f 81/81/81 78/78/78 80/80/80
f 78/78/78 81/81/81 82/82/82
f 77/77/77 78/78/78 83/83/83
f 77/77/77 83/83/83 84/84/84
f 85/85/85 84/84/84 83/83/83
f 86/86/86 83/83/83 78/78/78
f 82/82/82 86/86/86 78/78/78
f 82/82/82 87/87/87 86/86/86
f 82/82/82 88/88/88 87/87/87
f 89/89/89 88/88/88 82/82/82
f 90/90/90 89/89/89 82/82/82
f 91/91/91 93/93/93 92/92/92
f 91/91/91 92/92/92 94/94/94
f 92/92/92 95/95/95 94/94/94
f 96/96/96 94/94/94 95/95/95
f 97/97/97 94/94/94 96/96/96
f 94/94/94 97/97/97 91/91/91
f 91/91/91 97/97/97 98/98/98
f 98/98/98 99/99/99 91/91/91
f 100/100/100 98/98/98 97/97/97
f 101/101/101 98/98/98 100/100/100
f 101/101/101 100/100/100 102/102/102
f 100/100/100 103/103/103 102/102/102
f 100/100/100 104/104/104 103/103/103
f 104/104/104 100/100/100 97/97/97
f 97/97/97 96/96/96 104/104/104
f 105/105/105 104/104/104 96/96/96
f 105/105/105 96/96/96 106/106/106
f 106/106/106 107/107/107 105/105/105
f 106/106/106 96/96/96 108/108/108
f 106/106/106 108/108/108 109/109/109
f 108/108/108 110/110/110 109/109/109
f 111/111/111 109/109/109 110/110/110
f 112/112/112 110/110/110 108/108/108
f 113/113/113 112/112/112 108/108/108
f 113/113/113 108/108/108 114/114/114
f 115/115/115 113/113/113 114/114/114
f 108/108/108 116/116/116 114/114/114
f 114/114/114 116/116/116 117/117/117
f 96/96/96 118/118/118 108/108/108
f 116/116/116 108/108/108 118/118/118
f 116/116/116 119/119/119 117/117/117
f 118/118/118 119/119/119 116/116/116
f 120/120/120 118/118/118 96/96/96
f 96/96/96 95/95/95 120/120/120
f 118/118/118 120/120/120 121/121/121
f 118/118/118 121/121/121 119/119/119
f 121/121/121 120/120/120 95/95/95
f 119/119/119 122/122/122 117/117/117
f 121/121/121 122/122/122 119/119/119
f 123/123/123 117/117/117 122/122/122
f 124/124/124 121/121/121 95/95/95
f 124/124/124 122/122/122 121/121/121
f 124/124/124 95/95/95 125/125/125
f 124/124/124 126/126/126 122/122/122
f 127/127/127 129/129/129 128/128/128
f 128/128/128 130/130/130 127/127/127
f 130/130/130 128/128/128 131/131/131
f 131/131/131 132/132/132 130/130/130
f 132/132/132 131/131/131 133/133/133
f 133/133/133 134/134/134 132/132/132
f 134/134/134 133/133/133 135/135/135
f 133/133/133 136/136/136 135/135/135
f 136/136/136 137/137/137 135/135/135
f 136/136/136 138/138/138 137/137/137
f 136/136/136 139/139/139 138/138/138
f 138/138/138 139/139/139 140/140/140
f 141/141/141 143/143/143 142/142/142
f 141/141/141 144/144/144 143/143/143
f 145/145/145 143/143/143 144/144/144
f 145/145/145 146/146/146 143/143/143
f 147/147/147 146/146/146 145/145/145
f 147/147/147 148/148/148 146/146/146
f 145/145/145 149/149/149 147/147/147
f 145/145/145 144/144/144 150/150/150
f 145/145/145 151/151/151 149/149/149
f 150/150/150 151/151/151 145/145/145
f 152/152/152 150/150/150 144/144/144
f 152/152/152 151/151/151 150/150/150
f 144/144/144 153/153/153 152/152/152
f 149/149/149 151/151/151 154/154/154
f 154/154/154 151/151/151 152/152/152
f 149/149/149 154/154/154 155/155/155
f 156/156/156 154/154/154 152/152/152
f 157/157/157 159/159/159 158/158/158
f 160/160/160 159/159/159 157/157/157
f 161/161/161 159/159/159 160/160/160
f 157/157/157 162/162/162 160/160/160
f 157/157/157 163/163/163 162/162/162
f 162/162/162 164/164/164 160/160/160
f 165/165/165 160/160/160 164/164/164
f 166/166/166 165/165/165 164/164/164
f 164/164/164 162/162/162 166/166/166
f 167/167/167 162/162/162 163/163/163
f 167/167/167 163/163/163 168/168/168
f 169/169/169 166/166/166 162/162/162
f 167/167/167 169/169/169 162/162/162
f 169/169/169 170/170/170 166/166/166
f 171/171/171 169/169/169 167/167/167
f 172/172/172 174/174/174 173/173/173
f 174/174/174 172/172/172 175/175/175
f 176/176/176 175/175/175 172/172/172
f 177/177/177 174/174/174 175/175/175
f 177/177/177 175/175/175 178/178/178
f 178/178/178 179/179/179 177/177/177
f 175/175/175 180/180/180 178/178/178
f 181/181/181 183/183/183 182/182/182
f 184/184/184 183/183/183 181/181/181
f 184/184/184 185/185/185 183/183/183
f 186/186/186 185/185/185 184/184/184
f 186/186/186 184/184/184 187/187/187
f 188/188/188 190/190/190 189/189/189
f 190/190/190 188/188/188 191/191/191
f 191/191/191 192/192/192 190/190/190
f 192/192/192 191/191/191 193/193/193
f 190/190/190 192/192/192 194/194/194
f 192/192/192 195/195/195 194/194/194
f 194/194/194 195/195/195 196/196/196
f 190/190/190 194/194/194 196/196/196
f 196/196/196 197/197/197 190/190/190
f 196/196/196 198/198/198 197/197/197
f 199/199/199 190/190/190 197/197/197
f 198/198/198 199/199/199 197/197/197
f 200/200/200 190/190/190 199/199/199
f 201/201/201 199/199/199 198/198/198
f 201/201/201 200/200/200 199/199/199
