mtllib P_RockHexic_Rocks09.mtl
v 5.59185 5.059176 3.310413 0 0 0
v 5.59185 -9.45895 3.310413 0 0 0
v 3.60154 -9.45895 3.352833 0 0 0
v 3.60154 5.059176 3.352833 0 0 0
v 5.520027 5.179176 3.191916 0 0 0
v 3.668243 5.179176 3.231384 0 0 0
v 3.60154 5.059176 3.352833 0 0 0
v 3.60154 -9.45895 3.352833 0 0 0
v 2.569641 -9.45895 1.650382 0 0 0
v 2.569641 5.059176 1.650382 0 0 0
v 3.668243 5.179176 3.231384 0 0 0
v 3.528061 -9.45895 -0.09448828 0 0 0
v 2.708176 5.179176 1.64743 0 0 0
v 3.528061 5.059176 -0.09448822 0 0 0
v 3.599884 5.179176 0.02400822 0 0 0
v 5.518379 5.059176 -0.1369083 0 0 0
v 5.518379 -9.45895 -0.1369084 0 0 0
v 6.55027 -9.45895 1.565542 0 0 0
v 6.55027 5.059176 1.565542 0 0 0
v 5.59185 -9.45895 3.310413 0 0 0
v 5.59185 5.059176 3.310413 0 0 0
v 6.411736 5.179176 1.568495 0 0 0
v 5.451668 5.179176 -0.01545928 0 0 0
v 5.520027 5.179176 3.191916 0 0 0
v 3.599884 5.179176 0.02400822 0 0 0
v 3.668243 5.179176 3.231384 0 0 0
v 2.708176 5.179176 1.64743 0 0 0
v 3.528061 5.059176 -0.09448822 0 0 0
v 3.528061 -9.45895 -0.09448828 0 0 0
v 5.518379 -9.45895 -0.1369084 0 0 0
v 5.518379 5.059176 -0.1369083 0 0 0
v 5.451668 5.179176 -0.01545928 0 0 0
v 3.599884 5.179176 0.02400822 0 0 0
v 3.531853 5.718488 1.695681 0 0.6588235 0
v 3.400787 -8.152659 1.652193 0 0 0
v 4.383385 -8.160549 3.383688 0 0 0
v 4.550705 5.71849 3.423737 0 0.6588235 0
v 3.46434 5.838487 1.815947 0 0.6588235 0
v 3.556007 5.718492 5.148841 0 0.7647059 0
v 3.37513 -8.154563 5.10024 0 0 0
v 3.488243 5.838487 5.029149 0 0.9254902 0
v 4.413193 5.838487 3.424758 0 0.6588235 0
v 1.612381 5.838487 5.026494 0 0 0
v 1.588478 5.838487 1.813292 0 0 0
v 0.6635284 5.838487 3.417683 0 0 0
v 1.518303 5.718489 1.692731 0 0 0
v 1.409943 -8.138786 1.637248 0 0.1098039 0
v 3.400787 -8.152659 1.652193 0 0 0
v 3.531853 5.718488 1.695681 0 0.6588235 0
v 1.588478 5.838487 1.813292 0 0 0
v 3.46434 5.838487 1.815947 0 0.6588235 0
v 3.37513 -8.154563 5.10024 0 0 0
v 1.384285 -8.140688 5.085296 0 0 0
v 1.542458 5.718492 5.145892 0 0 0
v 3.556007 5.718492 5.148841 0 0.7647059 0
v 1.612381 5.838487 5.026494 0 0 0
v 3.488243 5.838487 5.029149 0 0.9254902 0
v 0.4016953 -8.1328 3.3538 0 0.454902 0
v 1.409943 -8.138786 1.637248 0 0.1098039 0
v 1.518303 5.718489 1.692731 0 0 0
v 0.5236053 5.71849 3.417836 0 0 0
v 1.384285 -8.140688 5.085296 0 0 0
v 1.542458 5.718492 5.145892 0 0 0
v 0.6635284 5.838487 3.417683 0 0 0
v 1.588478 5.838487 1.813292 0 0 0
v 1.612381 5.838487 5.026494 0 0 0
v -1.26255 -7.382739 0.8830038 0 0.9529412 0
v 0.9429169 -7.396431 0.9527242 0 0.5921569 0
v 0.9429169 7.33236 0.9527242 0 0.8862745 0
v -1.26255 7.4749 0.8830038 0 0.8352941 0
v 0.8699188 7.452508 1.070404 0 0.9882353 0
v -1.197433 7.58612 1.005049 0 0.8235294 0
v -1.383308 7.33236 4.702978 0 0.4784314 0
v -1.383308 -7.272521 4.702978 0 0 0
v -2.425659 -7.315396 2.758131 0 0.9568627 0
v -2.425659 7.4749 2.758131 0 0 0
v -1.31031 7.452508 4.585298 0 0.7137255 0
v -2.287392 7.58612 2.762243 0 0.3294118 0
v -1.197433 7.58612 1.005049 0 0.8235294 0
v -1.26255 7.4749 0.8830038 0 0.8352941 0
v -1.26255 -7.382739 0.8830038 0 0.9529412 0
v 0.8221588 7.20886 4.772698 0 0.8588235 0
v 0.8221588 -7.361464 4.772698 0 0 0
v -1.383308 -7.272521 4.702978 0 0 0
v -1.383308 7.33236 4.702978 0 0.4784314 0
v 0.7569427 7.336744 4.650649 0 0.8588235 0
v -1.31031 7.452508 4.585298 0 0.7137255 0
v -3.7687 -7.128858 0.4177927 0 0 0
v -1.688843 -7.121421 0.4160227 0 0 0
v -1.677521 3.674358 0.2839321 0 0 0
v -3.758591 4.011306 0.2854028 0 0 0
v -1.564125 5.826254 0.2946177 0 0 0
v -3.645813 6.335395 0.2959577 0 0 0
v -1.59819 8.544811 0.2904457 0 0.854902 0
v -3.68013 8.544812 0.2917022 0 0.8039216 0
v -1.668823 8.664805 0.4103018 0 0.8588235 0
v -3.612633 8.664805 0.4114308 0 0.9921569 0
v -5.32766 -6.410268 -1.477918 0 0 0
v -3.304825 -6.382886 -1.551057 0 0 0
v -3.363174 4.902482 -1.557035 0 0 0
v -5.390533 5.210258 -1.484337 0 0 0
v -3.477226 9.328758 -1.567883 0 0.6313726 0
v -5.508781 9.328761 -1.495595 0 0.7411765 0
v -3.545044 9.437147 -1.446395 0 0.7333333 0
v -5.438423 9.437147 -1.379067 0 0.7960784 0
v -6.322845 9.273963 0.2875867 0 0.4745098 0
v -5.438423 9.437147 -1.379067 0 0.7960784 0
v -3.545044 9.437147 -1.446395 0 0.7333333 0
v -2.535912 9.273963 0.1529258 0 0.9411765 0
v -5.313698 9.105378 1.886946 0 0.8235294 0
v -3.477226 9.328758 -1.567883 0 0.6313726 0
v -3.420357 9.105378 1.81962 0 0.9843137 0
v -2.394554 9.153651 0.1482806 0 0.9411765 0
v -3.363174 4.902482 -1.557035 0 0 0
v -3.343452 8.972768 1.936728 0 0.9843137 0
v -2.284401 4.619417 0.1587476 0 0 0
v -3.304825 -6.382886 -1.551057 0 0 0
v -3.232971 4.644128 1.947228 0 0 0
v -2.230095 -6.366013 0.1643306 0 0 0
v -3.178192 -6.376522 1.952857 0 0.1411765 0
v 5.094933 -8.423574 -3.00011 0 0.0627451 0
v 5.588188 -1.030874 -2.26872 0 0 0
v 5.03595 -0.833961 -2.998482 0 0 0
v 3.104927 -8.423574 -2.945203 0 0.9058824 0
v 3.104927 -0.4428095 -2.945203 0 0 0
v 3.178391 -0.2919166 -2.825691 0 0 0
v 3.200027 -0.8459084 0.5015896 0 0 0
v 3.200027 -8.423574 0.5015896 0 0 0
v 2.157471 -8.423574 -1.194353 0 0.6588235 0
v 2.157471 -0.4428095 -1.194353 0 0 0
v 3.266792 -0.6666654 0.378208 0 0 0
v 3.104927 -8.423574 -2.945203 0 0.9058824 0
v 2.297707 -0.2919166 -1.198223 0 0 0
v 3.104927 -0.4428095 -2.945203 0 0 0
v 3.178391 -0.2919166 -2.825691 0 0 0
v 3.200027 6.005012 0.5015897 0 0 0
v 3.200027 -0.5946529 0.5015896 0 0 0
v 2.157471 -0.1914331 -1.194353 0 0 0
v 2.157471 6.005012 -1.194353 0 0 0
v 3.265968 6.125011 0.3797244 0 0.1254902 0
v 3.104927 -0.1914331 -2.945203 0 0 0
v 2.295982 6.125011 -1.198175 0 0 0
v 3.104927 6.005012 -2.945203 0 0 0
v 3.17749 6.125011 -2.82716 0 0 0
v 2.490799 7.984459 -4.197406 0 0 0
v 2.405205 -8.11738 -4.437673 0 0.7764706 0
v 3.359734 -8.11738 -2.69067 0 0.9058824 0
v 3.467117 7.984459 -2.462488 0 0.2117647 0
v 2.324043 -8.117382 -0.9905259 0 0.6588235 0
v 2.420822 8.104453 -4.076436 0 0.06666667 0
v 2.452789 7.984461 -0.7495126 0 0.9568627 0
v 3.32933 8.104453 -2.462356 0 0.1333333 0
v 2.385757 8.104453 -0.8685232 0 0.9137255 0
v 0.5687332 8.104453 -4.096684 0 0.3529412 0
v 0.5336685 8.104453 -0.8887703 0 0.7686275 0
v -0.3748474 8.104453 -2.502851 0 0.7215686 0
v 2.324043 -8.117382 -0.9905259 0 0.6588235 0
v 0.3338318 -8.117385 -1.037385 0 0.8235294 0
v 0.4621506 7.984464 -0.7714541 0 0.9803922 0
v 2.452789 7.984461 -0.7495126 0 0.9568627 0
v 0.5336685 8.104453 -0.8887703 0 0.7686275 0
v 2.385757 8.104453 -0.8685232 0 0.9137255 0
v -0.6206894 -8.117385 -2.784387 0 0.8784314 0
v 0.4149933 -8.117383 -4.484533 0 0.5921569 0
v 0.5001526 7.984462 -4.219348 0 0.227451 0
v -0.5141678 7.984464 -2.506372 0 0.4392157 0
v 0.3338318 -8.117385 -1.037385 0 0.8235294 0
v 0.5687332 8.104453 -4.096684 0 0.3529412 0
v 0.4621506 7.984464 -0.7714541 0 0.9803922 0
v -0.3748474 8.104453 -2.502851 0 0.7215686 0
v 0.5336685 8.104453 -0.8887703 0 0.7686275 0
v -0.6017151 8.999489 -5.505119 0 0.8078431 0
v -0.6017151 -6.716069 -5.505119 0 0.5058824 0
v 0.4621048 -6.716069 -3.717922 0 0.682353 0
v 0.4621048 8.999489 -3.717922 0 0.2078431 0
v -0.5537415 -6.716069 -1.903028 0 0.5607843 0
v -0.5537415 8.999489 -1.903028 0 0.945098 0
v 0.323555 9.119489 -3.716077 0 0.3333333 0
v -0.6693954 9.119489 -5.384207 0 0.8745098 0
v -0.6246185 9.119489 -2.022094 0 0.945098 0
v -2.610512 9.119489 -5.358355 0 0 0
v -3.558685 9.119489 -3.664372 0 0 0
v -2.565735 9.119489 -1.996242 0 0.6705883 0
v -2.681389 8.999489 -5.477421 0 0 0
v -2.681389 -6.716069 -5.477421 0 0 0
v -0.6017151 -6.716069 -5.505119 0 0.5058824 0
v -0.6017151 8.999489 -5.505119 0 0.8078431 0
v -2.610512 9.119489 -5.358355 0 0 0
v -0.6693954 9.119489 -5.384207 0 0.8745098 0
v -2.633415 8.999489 -1.87533 0 0.6627451 0
v -2.633415 -6.716069 -1.87533 0 0.09019608 0
v -3.697235 -6.716069 -3.662527 0 0 0
v -3.697235 8.999489 -3.662527 0 0 0
v -2.681389 -6.716069 -5.477421 0 0 0
v -2.681389 8.999489 -5.477421 0 0 0
v -3.558685 9.119489 -3.664372 0 0 0
v -2.565735 9.119489 -1.996242 0 0.6705883 0
v -2.610512 9.119489 -5.358355 0 0 0
v -0.5537415 8.999489 -1.903028 0 0.945098 0
v -0.5537415 -6.716069 -1.903028 0 0.5607843 0
v -2.633415 -6.716069 -1.87533 0 0.09019608 0
v -2.633415 8.999489 -1.87533 0 0.6627451 0
v -0.6246185 9.119489 -2.022094 0 0.945098 0
v -2.565735 9.119489 -1.996242 0 0.6705883 0
v -3.06926 9.533623 -3.839177 0 0.2431373 0
v -3.06926 -5.339688 -3.839177 0 0 0
v -2.135384 -5.339688 -2.221656 0 0 0
v -2.135384 9.533623 -2.221656 0 0.6745098 0
v -3.06926 -5.339688 -0.6041346 0 0 0
v -3.06926 9.533623 -0.6041347 0 0.9607843 0
v -2.273949 9.653623 -2.221656 0 0.6588235 0
v -3.138542 9.653623 -3.719177 0 0.5960785 0
v -3.138542 9.653623 -0.7241347 0 0.8862745 0
v -4.867729 9.653623 -3.719175 0 0 0
v -5.73233 9.653623 -2.221654 0 0 0
v -4.867729 9.653623 -0.7241336 0 0.8352941 0
v -4.937012 9.533623 -3.839175 0 0 0
v -4.937012 -5.339688 -3.839175 0 0 0
v -3.06926 -5.339688 -3.839177 0 0 0
v -3.06926 9.533623 -3.839177 0 0.2431373 0
v -3.138542 9.653623 -3.719177 0 0.5960785 0
v -4.867729 9.653623 -3.719175 0 0 0
v -4.937012 9.533623 -0.6041335 0 0.8627451 0
v -4.937012 -5.339688 -0.6041335 0 0 0
v -5.870888 -5.339688 -2.221654 0 0 0
v -5.870888 9.533623 -2.221654 0 0 0
v -4.867729 9.653623 -0.7241336 0 0.8352941 0
v -4.937012 -5.339688 -3.839175 0 0 0
v -5.73233 9.653623 -2.221654 0 0 0
v -4.937012 9.533623 -3.839175 0 0 0
v -4.867729 9.653623 -3.719175 0 0 0
v -3.06926 9.533623 -0.6041347 0 0.9607843 0
v -3.06926 -5.339688 -0.6041346 0 0 0
v -4.937012 -5.339688 -0.6041335 0 0 0
v -4.937012 9.533623 -0.6041335 0 0.8627451 0
v -4.867729 9.653623 -0.7241336 0 0.8352941 0
v -3.138542 9.653623 -0.7241347 0 0.8862745 0
v -1.673561 3.405098 3.886547 0 0 0
v -1.685844 -7.11868 4.0184 0 0.427451 0
v -3.765694 -7.126115 4.020172 0 0 0
v -3.754631 3.742043 3.888018 0 0 0
v -1.559677 5.420991 3.897336 0 0 0
v -3.641365 5.93013 3.898676 0 0 0
v -1.59346 8.544809 3.89324 0 0.3411765 0
v -3.675491 8.544809 3.894485 0 0 0
v -1.664116 8.664805 3.773124 0 0.345098 0
v -3.607933 8.664805 3.774252 0 0.1254902 0
v -3.754631 3.742043 3.888018 0 0 0
v -3.765694 -7.126115 4.020172 0 0 0
v -4.807121 -7.131204 2.219867 0 0 0
v -4.79715 4.045147 2.087445 0 0 0
v -3.7687 -7.128858 0.4177927 0 0 0
v -3.758591 4.011306 0.2854028 0 0 0
v -3.641365 5.93013 3.898676 0 0 0
v -3.645813 6.335395 0.2959577 0 0 0
v -4.684433 6.387329 2.097987 0 0 0
v -3.675491 8.544809 3.894485 0 0 0
v -3.68013 8.544812 0.2917022 0 0.8039216 0
v -4.718765 8.544813 2.093724 0 0.8901961 0
v -3.607933 8.664805 3.774252 0 0.1254902 0
v -3.612633 8.664805 0.4114308 0 0.9921569 0
v -4.582077 8.664805 2.093324 0 0.9254902 0
v -0.6474152 -7.116331 2.216325 0 0 0
v -1.685844 -7.11868 4.0184 0 0.427451 0
v -1.673561 3.405098 3.886547 0 0 0
v -0.6350098 3.371254 2.084504 0 0 0
v -1.688843 -7.121421 0.4160227 0 0 0
v -1.677521 3.674358 0.2839321 0 0 0
v -1.559677 5.420991 3.897336 0 0 0
v -0.5210571 5.369054 2.095307 0 0 0
v -1.564125 5.826254 0.2946177 0 0 0
v -0.5548019 8.544809 2.091222 0 0 0
v -1.59346 8.544809 3.89324 0 0.3411765 0
v -1.59819 8.544811 0.2904457 0 0.854902 0
v -0.6946716 8.664805 2.09123 0 0 0
v -1.664116 8.664805 3.773124 0 0.345098 0
v -1.668823 8.664805 0.4103018 0 0.8588235 0
v -3.607933 8.664805 3.774252 0 0.1254902 0
v -3.612633 8.664805 0.4114308 0 0.9921569 0
v -4.582077 8.664805 2.093324 0 0.9254902 0
v -6.275757 -6.420777 0.3106087 0 0 0
v -5.32766 -6.410268 -1.477918 0 0 0
v -5.390533 5.210258 -1.484337 0 0 0
v -6.339104 5.234968 0.3041427 0 0 0
v -5.260323 4.951903 2.019925 0 0 0
v -5.201027 -6.403903 2.025996 0 0 0
v -5.375 8.972765 2.009016 0 0.7490196 0
v -6.457649 9.153654 0.292856 0 0.2745098 0
v -5.313698 9.105378 1.886946 0 0.8235294 0
v -5.508781 9.328761 -1.495595 0 0.7411765 0
v -6.322845 9.273963 0.2875867 0 0.4745098 0
v -5.438423 9.437147 -1.379067 0 0.7960784 0
v -3.232971 4.644128 1.947228 0 0 0
v -3.178192 -6.376522 1.952857 0 0.1411765 0
v -5.201027 -6.403903 2.025996 0 0 0
v -5.260323 4.951903 2.019925 0 0 0
v -3.343452 8.972768 1.936728 0 0.9843137 0
v -5.375 8.972765 2.009016 0 0.7490196 0
v -3.420357 9.105378 1.81962 0 0.9843137 0
v -5.313698 9.105378 1.886946 0 0.8235294 0
v 5.028984 6.125011 -2.878245 0 0 0
v 3.17749 6.125011 -2.82716 0 0 0
v 3.104927 6.005012 -2.945203 0 0 0
v 5.094933 6.005012 -3.00011 0 0 0
v 3.104927 -0.1914331 -2.945203 0 0 0
v 5.094933 -0.5946528 -3.00011 0 0 0
v 0.4149933 -8.117383 -4.484533 0 0.5921569 0
v 0.4808121 -8.237374 -4.364843 0 0.6352941 0
v 2.332489 -8.237374 -4.321078 0 0.8470588 0
v 2.405205 -8.11738 -4.437673 0 0.7764706 0
v 0.5001526 7.984462 -4.219348 0 0.227451 0
v 2.490799 7.984459 -4.197406 0 0 0
v 0.5687332 8.104453 -4.096684 0 0.3529412 0
v 2.420822 8.104453 -4.076436 0 0.06666667 0
v 5.190033 -1.290168 0.4466825 0 0 0
v 5.190033 -8.423574 0.4466824 0 0 0
v 3.200027 -8.423574 0.5015896 0 0 0
v 3.200027 -0.8459084 0.5015896 0 0 0
v 5.116562 -1.079585 0.32717 0 0 0
v 3.266792 -0.6666654 0.378208 0 0 0
v 5.190033 6.005012 0.4466825 0 0 0
v 5.190033 -1.038841 0.4466825 0 0 0
v 3.200027 -0.5946529 0.5015896 0 0 0
v 3.200027 6.005012 0.5015897 0 0 0
v 5.11747 6.125011 0.3286391 0 0 0
v 3.265968 6.125011 0.3797244 0 0.1254902 0
v 6.137482 -0.7174327 -1.304167 0 0 0
v 5.190033 -1.038841 0.4466825 0 0 0
v 5.190033 6.005012 0.4466825 0 0 0
v 6.137482 6.005012 -1.304167 0 0 0
v 5.616203 -0.801571 -2.152143 0 0 0
v 5.11747 6.125011 0.3286391 0 0 0
v 5.094933 6.005012 -3.00011 0 0 0
v 5.094933 -0.5946528 -3.00011 0 0 0
v 5.99897 6.125011 -1.300346 0 0 0
v 3.265968 6.125011 0.3797244 0 0.1254902 0
v 5.028984 6.125011 -2.878245 0 0 0
v 2.295982 6.125011 -1.198175 0 0 0
v 3.17749 6.125011 -2.82716 0 0 0
v 6.137482 -8.423574 -1.304167 0 0 0
v 5.190033 -8.423574 0.4466824 0 0 0
v 5.190033 -1.290168 0.4466825 0 0 0
v 6.137482 -0.8773775 -1.304167 0 0 0
v 5.116562 -1.079585 0.32717 0 0 0
v 5.997253 -0.7581769 -1.300298 0 0 0
v 5.512711 -0.8579497 -2.088512 0 0 0
v 5.588188 -1.030874 -2.26872 0 0 0
v 5.094933 -8.423574 -3.00011 0 0.0627451 0
v 5.092728 -0.6921536 -2.771701 0 0 0
v 5.03595 -0.833961 -2.998482 0 0 0
v 3.178391 -0.2919166 -2.825691 0 0 0
v 0.7922211 6.720118 2.295069 0 0.6588235 0
v 0.7922211 -8.698791 2.295069 0 0.8705882 0
v -0.08925629 -8.698791 0.6261709 0 0.9529412 0
v -0.08925629 6.720118 0.6261709 0 0.4039216 0
v 0.9411774 6.857143 2.282219 0 0.8235294 0
v 0.005332947 6.857143 0.5103856 0 0.9647059 0
v -0.08027649 -8.698791 0.3878103 0 0.9137255 0
v 0.005332947 -8.835814 0.5103856 0 0.9215686 0
v -0.08027649 6.720118 0.3878103 0 0.4039216 0
v 0.9242935 -8.698791 -1.21002 0 0.8235294 0
v 0.9242935 6.720118 -1.21002 0 0.3411765 0
v 1.071861 6.857143 -1.185996 0 0.9137255 0
v 3.22319 6.720118 -1.123395 0 0.6705883 0
v 3.22319 -8.698791 -1.123395 0 0.2745098 0
v 4.104668 -8.698791 0.5455031 0 0 0
v 4.104668 6.720118 0.5455031 0 0.9686275 0
v 4.095688 -8.698791 0.7838637 0 0 0
v 3.074234 6.857143 -1.110545 0 0.8 0
v 3.021255 6.720118 -1.250354 0 0.7137255 0
v 4.095688 6.720118 0.7838637 0 0.9568627 0
v 3.091118 -8.698791 2.381694 0 0 0
v 3.091118 6.720118 2.381694 0 0.8980392 0
v 4.010078 6.857143 0.6612884 0 0.9686275 0
v 2.94355 6.857143 2.35767 0 0.9529412 0
v 0.9411774 6.857143 2.282219 0 0.8235294 0
v 0.005332947 6.857143 0.5103856 0 0.9647059 0
v 1.071861 6.857143 -1.185996 0 0.9137255 0
v 1.071861 -8.835814 -1.185996 0 0.8235294 0
v 1.135208 -8.698791 -1.321422 0 0.8235294 0
v 0.9242935 -8.698791 -1.21002 0 0.8235294 0
v 0.9242935 6.720118 -1.21002 0 0.3411765 0
v 1.135208 6.720118 -1.321422 0 0.5411765 0
v 1.071861 6.857143 -1.185996 0 0.9137255 0
v 3.021255 -8.698791 -1.250354 0 0.4666667 0
v 3.021255 6.720118 -1.250354 0 0.7137255 0
v 3.074234 6.857143 -1.110545 0 0.8 0
v 3.22319 -8.698791 -1.123395 0 0.2745098 0
v 3.074234 -8.835814 -1.110545 0 0.2627451 0
v 3.22319 6.720118 -1.123395 0 0.6705883 0
v 2.94355 -8.835814 2.35767 0 0 0
v 2.880203 -8.698791 2.493096 0 0 0
v 3.091118 -8.698791 2.381694 0 0 0
v 3.091118 6.720118 2.381694 0 0.8980392 0
v 2.880203 6.720118 2.493096 0 0.9137255 0
v 2.94355 6.857143 2.35767 0 0.9529412 0
v 0.9941559 -8.698791 2.422028 0 0.8431373 0
v 0.9941559 6.720118 2.422028 0 0.8352941 0
v 0.9411774 6.857143 2.282219 0 0.8235294 0
v 0.7922211 6.720118 2.295069 0 0.6588235 0
v 0.7922211 -8.698791 2.295069 0 0.8705882 0
v 0.9411774 -8.835814 2.282219 0 0.7803922 0
v 3.021255 -8.698791 -1.250354 0 0.4666667 0
v 1.135208 -8.698791 -1.321422 0 0.8235294 0
v 1.071861 -8.835814 -1.185996 0 0.8235294 0
v 3.074234 -8.835814 -1.110545 0 0.2627451 0
v 0.005332947 -8.835814 0.5103856 0 0.9215686 0
v 0.9242935 -8.698791 -1.21002 0 0.8235294 0
v -0.08027649 -8.698791 0.3878103 0 0.9137255 0
v 0.9411774 -8.835814 2.282219 0 0.7803922 0
v -0.08925629 -8.698791 0.6261709 0 0.9529412 0
v 0.7922211 -8.698791 2.295069 0 0.8705882 0
v 4.010078 -8.835814 0.6612884 0 0 0
v 4.104668 -8.698791 0.5455031 0 0 0
v 3.22319 -8.698791 -1.123395 0 0.2745098 0
v 4.095688 -8.698791 0.7838637 0 0 0
v 3.091118 -8.698791 2.381694 0 0 0
v 2.94355 -8.835814 2.35767 0 0 0
v 0.9941559 -8.698791 2.422028 0 0.8431373 0
v 2.880203 -8.698791 2.493096 0 0 0
v -2.283653 8.22556 1.028367 0 0.682353 0
v -2.283653 -7.940551 1.028367 0 0.8235294 0
v -3.275917 -7.772337 -0.6718165 0 0 0
v -3.275917 8.22556 -0.6718165 0 0.3764706 0
v -2.128998 8.362585 1.008398 0 0.8784314 0
v -3.182465 8.362585 -0.7966506 0 0.7607843 0
v -3.277092 -7.760612 -0.9206023 0 0 0
v -3.182983 -7.911735 -0.7972865 0 0 0
v -3.277092 8.22556 -0.9206021 0 0.5411765 0
v -2.300819 -7.760612 -2.630022 0 0.6156863 0
v -2.300819 8.22556 -2.630022 0 0 0
v -2.145981 8.362585 -2.611504 0 0.1411765 0
v -2.14679 -7.911735 -2.611624 0 0.6588235 0
v -2.085945 -7.772337 -2.755426 0 0.6588235 0
v -2.300819 -7.760612 -2.630022 0 0.6156863 0
v -2.085945 8.22556 -2.755426 0 0 0
v -2.300819 8.22556 -2.630022 0 0 0
v -2.145981 8.362585 -2.611504 0 0.1411765 0
v -0.05603027 8.362585 -2.62131 0 0.9333333 0
v -0.1174088 8.22556 -2.764661 0 0.8509804 0
v 0.09862518 8.22556 -2.641279 0 0.9058824 0
v -0.1174088 -7.940551 -2.764661 0 0.9058824 0
v 0.09862518 -7.95962 -2.641279 0 0.9058824 0
v -0.05596161 -8.090399 -2.621431 0 0.9058824 0
v -0.03887177 -8.183464 0.9987102 0 0.9843137 0
v -0.09908295 -8.047269 1.142514 0 0.9882353 0
v 0.1157913 -8.053813 1.01711 0 0.9803922 0
v 0.1157913 8.22556 1.01711 0 0.4588235 0
v -0.09908295 8.22556 1.142514 0 0.509804 0
v -0.03904724 8.362585 0.9985924 0 0.372549 0
v -2.128998 8.362585 1.008398 0 0.8784314 0
v -2.067619 -7.95962 1.151749 0 0.8235294 0
v -2.067619 8.22556 1.151749 0 0.6862745 0
v -2.283653 8.22556 1.028367 0 0.682353 0
v -2.283653 -7.940551 1.028367 0 0.8235294 0
v -2.129066 -8.090399 1.008519 0 0.6627451 0
v -0.1174088 -7.940551 -2.764661 0 0.9058824 0
v -2.085945 -7.772337 -2.755426 0 0.6588235 0
v -2.14679 -7.911735 -2.611624 0 0.6588235 0
v -0.05596161 -8.090399 -2.621431 0 0.9058824 0
v -2.129066 -8.090399 1.008519 0 0.6627451 0
v -3.182983 -7.911735 -0.7972865 0 0 0
v -2.300819 -7.760612 -2.630022 0 0.6156863 0
v -3.277092 -7.760612 -0.9206023 0 0 0
v -2.283653 -7.940551 1.028367 0 0.8235294 0
v -3.275917 -7.772337 -0.6718165 0 0 0
v -0.03887177 -8.183464 0.9987102 0 0.9843137 0
v -0.09908295 -8.047269 1.142514 0 0.9882353 0
v -2.067619 -7.95962 1.151749 0 0.8235294 0
v 0.9976273 -8.183464 -0.8161724 0 0.8039216 0
v 0.1157913 -8.053813 1.01711 0 0.9803922 0
v 1.092064 -8.053813 -0.6923096 0 0.7411765 0
v 1.090889 -8.047269 -0.9410952 0 0.8196079 0
v 0.09862518 -7.95962 -2.641279 0 0.9058824 0
v -1.197433 7.58612 1.005049 0 0.8235294 0
v -1.31031 7.452508 4.585298 0 0.7137255 0
v -2.287392 7.58612 2.762243 0 0.3294118 0
v 0.8699188 7.452508 1.070404 0 0.9882353 0
v 1.846954 7.336744 2.893377 0 0.9058824 0
v 0.7569427 7.336744 4.650649 0 0.8588235 0
v 0.9429169 7.33236 0.9527242 0 0.8862745 0
v 0.8221588 7.20886 4.772698 0 0.8588235 0
v 1.985268 7.20886 2.897572 0 0.6941177 0
v 0.9429169 -7.396431 0.9527242 0 0.5921569 0
v 0.8221588 -7.361464 4.772698 0 0 0
v 1.985268 -7.396431 2.897572 0 0 0
v -0.05603027 8.362585 -2.62131 0 0.9333333 0
v -3.182465 8.362585 -0.7966506 0 0.7607843 0
v -2.145981 8.362585 -2.611504 0 0.1411765 0
v -2.128998 8.362585 1.008398 0 0.8784314 0
v 0.9974365 8.362585 -0.8162612 0 0.9058824 0
v -0.03904724 8.362585 0.9985924 0 0.372549 0
v 0.1157913 8.22556 1.01711 0 0.4588235 0
v 1.090889 8.22556 -0.9410953 0 0.9372549 0
v 0.09862518 8.22556 -2.641279 0 0.9058824 0
v 0.09862518 -7.95962 -2.641279 0 0.9058824 0
v 1.090889 -8.047269 -0.9410952 0 0.8196079 0
v 1.092064 8.22556 -0.6923097 0 0.945098 0
v 0.1157913 -8.053813 1.01711 0 0.9803922 0
v 1.092064 -8.053813 -0.6923096 0 0.7411765 0
v 5.094933 -0.5946528 -3.00011 0 0 0
v 3.104927 -0.1914331 -2.945203 0 0 0
v 3.178391 -0.2919166 -2.825691 0 0 0
v 2.157471 -0.1914331 -1.194353 0 0 0
v 5.092728 -0.6921536 -2.771701 0 0 0
v 2.297707 -0.2919166 -1.198223 0 0 0
v 3.200027 -0.5946529 0.5015896 0 0 0
v 3.266792 -0.6666654 0.378208 0 0 0
v 5.616203 -0.801571 -2.152143 0 0 0
v 5.512711 -0.8579497 -2.088512 0 0 0
v 5.190033 -1.038841 0.4466825 0 0 0
v 5.116562 -1.079585 0.32717 0 0 0
v 5.997253 -0.7581769 -1.300298 0 0 0
v 6.137482 -0.7174327 -1.304167 0 0 0
v -3.06926 -5.339688 -0.6041346 0 0 0
v -2.135384 -5.339688 -2.221656 0 0 0
v -2.273949 -5.459688 -2.221656 0 0 0
v -3.06926 -5.339688 -3.839177 0 0 0
v -3.138542 -5.459688 -3.719177 0 0 0
v -4.937012 -5.339688 -3.839175 0 0 0
v -4.867729 -5.459688 -3.719175 0 0 0
v -5.732323 -5.459688 -2.221654 0 0 0
v -5.870888 -5.339688 -2.221654 0 0 0
v -4.937012 -5.339688 -0.6041335 0 0 0
v -4.867729 -5.459688 -0.7241336 0 0 0
v -3.138542 -5.459688 -0.7241346 0 0 0
v -0.5537415 -6.716069 -1.903028 0 0.5607843 0
v 0.4621048 -6.716069 -3.717922 0 0.682353 0
v 0.323555 -6.836069 -3.716077 0 0.682353 0
v -0.6017151 -6.716069 -5.505119 0 0.5058824 0
v -0.6246185 -6.836069 -2.022094 0 0.6901961 0
v -2.633415 -6.716069 -1.87533 0 0.09019608 0
v -0.6693954 -6.836069 -5.384207 0 0.5294118 0
v -2.610512 -6.836069 -5.358355 0 0.09019608 0
v -2.681389 -6.716069 -5.477421 0 0 0
v -2.565735 -6.836069 -1.996242 0 0.1882353 0
v -3.558685 -6.836069 -3.664372 0 0 0
v -3.697235 -6.716069 -3.662527 0 0 0
v 0.3338318 -8.117385 -1.037385 0 0.8235294 0
v 2.324043 -8.117382 -0.9905259 0 0.6588235 0
v 2.256691 -8.237374 -1.113869 0 0.6588235 0
v 3.359734 -8.11738 -2.69067 0 0.9058824 0
v 0.4050064 -8.237374 -1.157633 0 0.8235294 0
v -0.6206894 -8.117385 -2.784387 0 0.8784314 0
v 3.220428 -8.237374 -2.695591 0 0.9058824 0
v 2.405205 -8.11738 -4.437673 0 0.7764706 0
v 2.332489 -8.237374 -4.321078 0 0.8470588 0
v 0.4808121 -8.237374 -4.364843 0 0.6352941 0
v -0.482933 -8.237374 -2.78312 0 0.8941177 0
v 0.4149933 -8.117383 -4.484533 0 0.5921569 0
v -3.178192 -6.376522 1.952857 0 0.1411765 0
v -2.230095 -6.366013 0.1643306 0 0 0
v -2.367989 -6.487887 0.1693954 0 0 0
v -3.304825 -6.382886 -1.551057 0 0 0
v -3.25119 -6.497678 1.835497 0 0.1764706 0
v -5.201027 -6.403903 2.025996 0 0 0
v -3.369133 -6.503606 -1.428571 0 0 0
v -5.32766 -6.410268 -1.477918 0 0 0
v -5.253471 -6.529114 -1.360436 0 0 0
v -6.275757 -6.420777 0.3106087 0 0 0
v -5.135529 -6.523185 1.903632 0 0 0
v -6.136673 -6.538903 0.305666 0 0 0
v -0.6474152 -7.116331 2.216325 0 0 0
v -1.688843 -7.121421 0.4160227 0 0 0
v -1.758148 -7.241573 0.5374807 0 0 0
v -3.7687 -7.128858 0.4177927 0 0 0
v -0.7861099 -7.236822 2.217877 0 0 0
v -1.685844 -7.11868 4.0184 0 0.427451 0
v -3.699425 -7.248515 0.5390971 0 0 0
v -4.807121 -7.131204 2.219867 0 0 0
v -1.755356 -7.239014 3.89989 0 0.5882353 0
v -3.765694 -7.126115 4.020172 0 0 0
v -3.696632 -7.245955 3.901506 0 0.5019608 0
v -4.668663 -7.250705 2.22111 0 0 0
v -2.425659 -7.315396 2.758131 0 0.9568627 0
v -1.383308 -7.272521 4.702978 0 0 0
v -1.310265 -7.391579 4.585227 0 0 0
v 0.8221588 -7.361464 4.772698 0 0 0
v -2.287163 -7.435407 2.762509 0 0.945098 0
v -1.26255 -7.382739 0.8830038 0 0.9529412 0
v 0.7566986 -7.478848 4.650568 0 0 0
v 1.985268 -7.396431 2.897572 0 0 0
v -1.19709 -7.501831 1.005133 0 0.8235294 0
v 0.9429169 -7.396431 0.9527242 0 0.5921569 0
v 0.8698807 -7.516431 1.070475 0 0.7843137 0
v 1.846771 -7.516431 2.893194 0 0 0
v 3.37513 -8.154563 5.10024 0 0 0
v 4.383385 -8.160549 3.383688 0 0 0
v 4.243439 -8.279576 3.382308 0 0 0
v 3.400787 -8.152659 1.652193 0 0 0
v 3.305252 -8.274006 4.979314 0 0 0
v 1.384285 -8.140688 5.085296 0 0 0
v 3.329514 -8.272238 1.771303 0 0 0
v 1.409943 -8.138786 1.637248 0 0.1098039 0
v 1.477409 -8.259331 1.757306 0 0.3803922 0
v 1.453156 -8.261097 4.965317 0 0 0
v 0.4016953 -8.1328 3.3538 0 0.454902 0
v 0.5392303 -8.25376 3.354312 0 0.4823529 0
v 5.59185 -9.45895 3.310413 0 0 0
v 6.55027 -9.45895 1.565542 0 0 0
v 6.411736 -9.57895 1.568495 0 0 0
v 5.518379 -9.45895 -0.1369084 0 0 0
v 5.520027 -9.57895 3.191916 0 0 0
v 3.60154 -9.45895 3.352833 0 0 0
v 3.668243 -9.57895 3.231384 0 0 0
v 2.569641 -9.45895 1.650382 0 0 0
v 2.708176 -9.57895 1.64743 0 0 0
v 3.528061 -9.45895 -0.09448828 0 0 0
v 5.451668 -9.57895 -0.01545939 0 0 0
v 3.599884 -9.57895 0.02400817 0 0 0
v 3.200027 -8.423574 0.5015896 0 0 0
v 5.190033 -8.423574 0.4466824 0 0 0
v 5.11747 -8.543574 0.3286389 0 0 0
v 6.137482 -8.423574 -1.304167 0 0 0
v 3.265968 -8.543574 0.3797244 0 0 0
v 2.157471 -8.423574 -1.194353 0 0.6588235 0
v 5.99897 -8.543574 -1.300346 0 0 0
v 5.094933 -8.423574 -3.00011 0 0.0627451 0
v 2.295982 -8.543574 -1.198175 0 0.6666667 0
v 3.17749 -8.543574 -2.82716 0 0.9058824 0
v 3.104927 -8.423574 -2.945203 0 0.9058824 0
v 5.028984 -8.543574 -2.878245 0 0.1254902 0
vn 0.4810526 0.3724211 0.7936567
vn 0.4810536 -0.3724202 0.7936565
vn -0.4467974 -0.3724184 0.8134351
vn -0.4467975 0.3724182 0.8134351
vn 0.229247 0.8968814 0.3782189
vn -0.2129293 0.8968794 0.3876448
vn -0.4467975 0.3724182 0.8134351
vn -0.4467974 -0.3724184 0.8134351
vn -0.9278521 -0.3724236 0.01977567
vn -0.9278525 0.3724225 0.01977601
vn -0.2129293 0.8968794 0.3876448
vn -0.4810546 -0.3724197 -0.7936562
vn -0.4421679 0.8968828 0.009423789
vn -0.4810517 0.3724217 -0.793657
vn -0.2292453 0.8968818 -0.378219
vn 0.4468014 0.3724221 -0.8134311
vn 0.4468015 -0.3724223 -0.813431
vn 0.9278512 -0.3724259 -0.01977452
vn 0.9278522 0.3724236 -0.01977552
vn 0.4810536 -0.3724202 0.7936565
vn 0.4810526 0.3724211 0.7936567
vn 0.4421667 0.8968834 -0.009423736
vn 0.2129215 0.8968824 -0.3876421
vn 0.229247 0.8968814 0.3782189
vn -0.2292453 0.8968818 -0.378219
vn -0.2129293 0.8968794 0.3876448
vn -0.4421679 0.8968828 0.009423789
vn -0.4810517 0.3724217 -0.793657
vn -0.4810546 -0.3724197 -0.7936562
vn 0.4468015 -0.3724223 -0.813431
vn 0.4468014 0.3724221 -0.8134311
vn 0.2129215 0.8968824 -0.3876421
vn -0.2292453 0.8968818 -0.378219
vn 0.4629334 0.3704265 -0.8052806
vn 0.4670143 -0.3744204 -0.8010662
vn 0.9242931 -0.3816412 0.005680431
vn 0.9308925 0.36527 -0.004119921
vn 0.2210249 0.8966743 -0.3835663
vn 0.4657675 0.3669019 0.80526
vn 0.4542941 -0.3796175 0.8059202
vn 0.2231867 0.8958313 0.3842838
vn 0.4449581 0.8955497 -0.001788131
vn -0.2179821 0.8971043 0.3843016
vn -0.219597 0.8976777 -0.3820364
vn -0.4403348 0.8978294 0.002767378
vn -0.461805 0.377021 -0.8028644
vn -0.4608367 -0.3666941 -0.8081862
vn 0.4670143 -0.3744204 -0.8010662
vn 0.4629334 0.3704265 -0.8052806
vn -0.219597 0.8976777 -0.3820364
vn 0.2210249 0.8966743 -0.3835663
vn 0.4542941 -0.3796175 0.8059202
vn -0.4727142 -0.3708096 0.7994008
vn -0.4593512 0.3735268 0.8058997
vn 0.4657675 0.3669019 0.80526
vn -0.2179821 0.8971043 0.3843016
vn 0.2231867 0.8958313 0.3842838
vn -0.9309388 -0.3650974 -0.007524949
vn -0.4608367 -0.3666941 -0.8081862
vn -0.461805 0.377021 -0.8028644
vn -0.9255874 0.3785044 0.004724729
vn -0.4727142 -0.3708096 0.7994008
vn -0.4593512 0.3735268 0.8058997
vn -0.4403348 0.8978294 0.002767378
vn -0.219597 0.8976777 -0.3820364
vn -0.2179821 0.8971043 0.3843016
vn -0.4421701 -0.3763621 -0.8141481
vn 0.4882588 -0.3731141 -0.7889165
vn 0.5029379 0.3709631 -0.7806663
vn -0.4263936 0.3924466 -0.8149688
vn 0.2779328 0.8951332 -0.3485541
vn -0.1635376 0.9165634 -0.3649207
vn -0.4759265 0.3709637 0.7974209
vn -0.4924383 -0.3679278 0.7887545
vn -0.9281877 -0.3714294 -0.02253332
vn -0.9195603 0.3924446 -0.01990319
vn -0.1887688 0.8951331 0.4038603
vn -0.3995872 0.916562 0.01562597
vn -0.1635376 0.9165634 -0.3649207
vn -0.4263936 0.3924466 -0.8149688
vn -0.4421701 -0.3763621 -0.8141481
vn 0.4477848 0.3547931 0.8207379
vn 0.4302284 -0.3790424 0.8192865
vn -0.4924383 -0.3679278 0.7887545
vn -0.4759265 0.3709637 0.7974209
vn 0.2476387 0.8773226 0.411072
vn -0.1887688 0.8951331 0.4038603
vn -0.463684 -0.3792308 -0.8007379
vn 0.4633671 -0.3788859 -0.8010845
vn 0.4892319 -0.01801869 -0.8719676
vn -0.5050715 0.00976124 -0.8630223
vn 0.5058792 -0.006754442 -0.8625779
vn -0.4929989 0.009193006 -0.8699813
vn 0.4610658 0.3753577 -0.8040677
vn -0.467305 0.3665538 -0.8045274
vn 0.2186957 0.8974392 -0.3831123
vn -0.2240416 0.895803 -0.3838519
vn -0.4891228 -0.3770362 -0.786513
vn 0.4383537 -0.3696319 -0.8192791
vn 0.4709616 0.006216367 -0.8821318
vn -0.5281811 -0.01061923 -0.8490654
vn 0.435659 0.4047102 -0.8039969
vn -0.5016174 0.3884284 -0.7729834
vn 0.2088668 0.9235322 -0.3216564
vn -0.240885 0.9205694 -0.3074515
vn -0.4461045 0.8902497 0.09190273
vn -0.240885 0.9205694 -0.3074515
vn 0.2088668 0.9235322 -0.3216564
vn 0.4390205 0.8965087 0.05944126
vn -0.204974 0.8633877 0.4610286
vn 0.435659 0.4047102 -0.8039969
vn 0.2289263 0.8666049 0.4433832
vn 0.9221857 0.3866071 -0.01040779
vn 0.4709616 0.006216367 -0.8821318
vn 0.4843126 0.3539969 0.8000797
vn 0.9992649 0.01437236 -0.03554069
vn 0.4383537 -0.3696319 -0.8192791
vn 0.5331116 0.009362656 0.8459931
vn 0.9303452 -0.3651862 -0.03311904
vn 0.4962806 -0.3679357 0.7863389
vn 0.4406432 -0.3734809 -0.8162999
vn 0.8139122 0.3026107 -0.4959573
vn 0.4203609 0.3599515 -0.8329055
vn -0.4860207 -0.3724206 -0.7906243
vn -0.4683871 0.348564 -0.81186
vn -0.544687 -0.2058716 -0.8129779
vn -0.4129322 0.2973779 0.8608446
vn -0.4416852 -0.3724185 0.8162222
vn -0.9277117 -0.3724188 0.02559623
vn -0.9358401 0.3485709 0.05197741
vn -0.5408014 -0.2882279 0.7902269
vn -0.4860207 -0.3724206 -0.7906243
vn -0.9785922 -0.2054315 -0.01246043
vn -0.4683871 0.348564 -0.81186
vn -0.544687 -0.2058716 -0.8129779
vn -0.441686 0.3724182 0.816222
vn -0.4817826 -0.4512064 0.7511979
vn -0.9232127 -0.3842881 -0.0009991534
vn -0.9277107 0.3724213 0.02559646
vn -0.2104933 0.8968794 0.3889728
vn -0.5058262 -0.3842836 -0.7723121
vn -0.4421015 0.8968821 0.0121978
vn -0.4860221 0.3724199 -0.7906237
vn -0.2316179 0.8968808 -0.3767732
vn 0.4734402 0.3782197 -0.79549
vn 0.4824195 -0.3659453 -0.7958364
vn 0.9262887 -0.3763104 0.01948693
vn 0.9297895 0.3678778 0.01254863
vn 0.4435064 -0.3827525 0.8104336
vn 0.225629 0.8979856 -0.3777744
vn 0.4571299 0.3620475 0.8123755
vn 0.4437401 0.8961293 0.006850135
vn 0.2187521 0.8950037 0.3887365
vn -0.2154547 0.8987297 -0.3819219
vn -0.2246323 0.8957661 0.3835928
vn -0.4407545 0.8976243 -0.002464829
vn 0.4435064 -0.3827525 0.8104336
vn -0.4831483 -0.3788442 0.7893319
vn -0.4724089 0.3665744 0.8015317
vn 0.4571299 0.3620475 0.8123755
vn -0.2246323 0.8957661 0.3835928
vn 0.2187521 0.8950037 0.3887365
vn -0.9293238 -0.3684817 -0.02405408
vn -0.4465252 -0.3620396 -0.8182558
vn -0.4530077 0.3827455 -0.8051646
vn -0.9262141 0.3769134 -0.007986424
vn -0.4831483 -0.3788442 0.7893319
vn -0.2154547 0.8987297 -0.3819219
vn -0.4724089 0.3665744 0.8015317
vn -0.4407545 0.8976243 -0.002464829
vn -0.2246323 0.8957661 0.3835928
vn 0.4532884 0.3724219 -0.8098343
vn 0.4532875 -0.3724223 -0.8098346
vn 0.9279827 -0.3724184 -0.01235946
vn 0.927982 0.37242 -0.01235913
vn 0.4746947 -0.3724228 0.7974749
vn 0.4746957 0.3724223 0.7974746
vn 0.4422331 0.8968808 -0.005889637
vn 0.2160122 0.8968824 -0.3859284
vn 0.2262132 0.8968828 0.3800381
vn -0.2262138 0.896883 -0.3800371
vn -0.4422333 0.8968807 0.005889373
vn -0.2160115 0.8968825 0.3859285
vn -0.4746961 0.3724226 -0.7974741
vn -0.4746946 -0.3724232 -0.7974748
vn 0.4532875 -0.3724223 -0.8098346
vn 0.4532884 0.3724219 -0.8098343
vn -0.2262138 0.896883 -0.3800371
vn 0.2160122 0.8968824 -0.3859284
vn -0.4532879 0.3724219 0.8098345
vn -0.4532883 -0.3724218 0.8098344
vn -0.9279827 -0.3724182 0.01235941
vn -0.9279821 0.3724199 0.01235907
vn -0.4746946 -0.3724232 -0.7974748
vn -0.4746961 0.3724226 -0.7974741
vn -0.4422333 0.8968807 0.005889373
vn -0.2160115 0.8968825 0.3859285
vn -0.2262138 0.896883 -0.3800371
vn 0.4746957 0.3724223 0.7974746
vn 0.4746947 -0.3724228 0.7974749
vn -0.4532883 -0.3724218 0.8098344
vn -0.4532879 0.3724219 0.8098345
vn 0.2262132 0.8968828 0.3800381
vn -0.2160115 0.8968825 0.3859285
vn 0.464032 0.3724215 -0.8037267
vn 0.464031 -0.372422 -0.803727
vn 0.9280634 -0.3724222 0
vn 0.9280627 0.372424 0
vn 0.4640326 -0.3724213 0.8037264
vn 0.4640347 0.3724201 0.8037257
vn 0.4422668 0.8968836 0
vn 0.221135 0.8968818 -0.3830174
vn 0.2211388 0.896881 0.383017
vn -0.2211344 0.8968819 -0.3830177
vn -0.4422881 0.8968731 0
vn -0.2211339 0.8968819 0.3830179
vn -0.4640319 0.3724217 -0.8037266
vn -0.4640317 -0.3724216 -0.8037268
vn 0.464031 -0.372422 -0.803727
vn 0.464032 0.3724215 -0.8037267
vn 0.221135 0.8968818 -0.3830174
vn -0.2211344 0.8968819 -0.3830177
vn -0.4640313 0.3724216 0.803727
vn -0.464031 -0.3724218 0.8037271
vn -0.9280637 -0.3724215 0
vn -0.9280681 0.3724106 0
vn -0.2211339 0.8968819 0.3830179
vn -0.4640317 -0.3724216 -0.8037268
vn -0.4422881 0.8968731 0
vn -0.4640319 0.3724217 -0.8037266
vn -0.2211344 0.8968819 -0.3830177
vn 0.4640347 0.3724201 0.8037257
vn 0.4640326 -0.3724213 0.8037264
vn -0.464031 -0.3724218 0.8037271
vn -0.4640313 0.3724216 0.803727
vn -0.2211339 0.8968819 0.3830179
vn 0.2211388 0.896881 0.383017
vn 0.4952068 -0.01078391 0.8687082
vn 0.4657219 -0.3654053 0.8059666
vn -0.4632538 -0.3659621 0.8071355
vn -0.5046705 0.01501063 0.8631816
vn 0.5076005 -0.01342319 0.8614879
vn -0.4896049 0.009679078 0.8718907
vn 0.4626941 0.3764823 0.8026053
vn -0.4656726 0.3689342 0.8043859
vn 0.219562 0.8976196 0.3821931
vn -0.2228552 0.89629 0.3834056
vn -0.5046705 0.01501063 0.8631816
vn -0.4632538 -0.3659621 0.8071355
vn -0.9278618 -0.3729146 0.002713694
vn -0.9996668 0.02580895 0.0003933084
vn -0.463684 -0.3792308 -0.8007379
vn -0.5050715 0.00976124 -0.8630223
vn -0.4896049 0.009679078 0.8718907
vn -0.4929989 0.009193006 -0.8699813
vn -0.9998909 0.0143557 0.003457444
vn -0.4656726 0.3689342 0.8043859
vn -0.467305 0.3665538 -0.8045274
vn -0.9319252 0.3626498 0.000778213
vn -0.2228552 0.89629 0.3834056
vn -0.2240416 0.895803 -0.3838519
vn -0.4459433 0.8950612 0.0002320154
vn 0.9282276 -0.3720107 0.001234071
vn 0.4657219 -0.3654053 0.8059666
vn 0.4952068 -0.01078391 0.8687082
vn 0.9995938 -0.02797616 -0.005448836
vn 0.4633671 -0.3788859 -0.8010845
vn 0.4892319 -0.01801869 -0.8719676
vn 0.5076005 -0.01342319 0.8614879
vn 0.9996915 -0.02478763 -0.001592323
vn 0.5058792 -0.006754442 -0.8625779
vn 0.9253104 0.3792091 -0.001016325
vn 0.4626941 0.3764823 0.8026053
vn 0.4610658 0.3753577 -0.8040677
vn 0.4398364 0.8980776 -0.0006772284
vn 0.219562 0.8976196 0.3821931
vn 0.2186957 0.8974392 -0.3831123
vn -0.2228552 0.89629 0.3834056
vn -0.2240416 0.895803 -0.3838519
vn -0.4459433 0.8950612 0.0002320154
vn -0.9244101 -0.3798839 0.03397447
vn -0.4891228 -0.3770362 -0.786513
vn -0.5281811 -0.01061923 -0.8490654
vn -0.9991655 -0.01808035 0.03662418
vn -0.465467 -0.005958837 0.8850452
vn -0.4309737 -0.375232 0.8206477
vn -0.4345856 0.3369561 0.8352221
vn -0.9338723 0.3531133 0.05651145
vn -0.204974 0.8633877 0.4610286
vn -0.5016174 0.3884284 -0.7729834
vn -0.4461045 0.8902497 0.09190273
vn -0.240885 0.9205694 -0.3074515
vn 0.5331116 0.009362656 0.8459931
vn 0.4962806 -0.3679357 0.7863389
vn -0.4309737 -0.375232 0.8206477
vn -0.465467 -0.005958837 0.8850452
vn 0.4843126 0.3539969 0.8000797
vn -0.4345856 0.3369561 0.8352221
vn 0.2289263 0.8666049 0.4433832
vn -0.204974 0.8633877 0.4610286
vn 0.2104831 0.8968829 -0.3889703
vn -0.2316179 0.8968808 -0.3767732
vn -0.4860221 0.3724199 -0.7906237
vn 0.4416885 0.3724231 -0.8162183
vn -0.5058262 -0.3842836 -0.7723121
vn 0.3382062 -0.4966266 -0.7993614
vn -0.4465252 -0.3620396 -0.8182558
vn -0.2134297 -0.8950066 -0.3916771
vn 0.2297897 -0.8957744 -0.3805062
vn 0.4824195 -0.3659453 -0.7958364
vn -0.4530077 0.3827455 -0.8051646
vn 0.4734402 0.3782197 -0.79549
vn -0.2154547 0.8987297 -0.3819219
vn 0.225629 0.8979856 -0.3777744
vn 0.5102124 0.2338846 0.827636
vn 0.4860215 -0.3724205 0.7906238
vn -0.4416852 -0.3724185 0.8162222
vn -0.4129322 0.2973779 0.8608446
vn 0.4788575 -0.3266039 0.8148775
vn -0.5408014 -0.2882279 0.7902269
vn 0.4860237 0.3724192 0.7906231
vn 0.4232713 -0.5666955 0.706893
vn -0.4817826 -0.4512064 0.7511979
vn -0.441686 0.3724182 0.816222
vn 0.2316192 0.8968804 0.3767733
vn -0.2104933 0.8968794 0.3889728
vn 0.8695371 -0.4925109 -0.0365827
vn 0.4232713 -0.5666955 0.706893
vn 0.4860237 0.3724192 0.7906231
vn 0.9277108 0.3724211 -0.02559713
vn 0.6820902 -0.5733094 -0.4539486
vn 0.2316192 0.8968804 0.3767733
vn 0.4416885 0.3724231 -0.8162183
vn 0.3382062 -0.4966266 -0.7993614
vn 0.4421018 0.896882 -0.01219873
vn -0.2104933 0.8968794 0.3889728
vn 0.2104831 0.8968829 -0.3889703
vn -0.4421015 0.8968821 0.0121978
vn -0.2316179 0.8968808 -0.3767732
vn 0.9272632 -0.3735998 -0.02462161
vn 0.4860215 -0.3724205 0.7906238
vn 0.5102124 0.2338846 0.827636
vn 0.9131398 0.4075993 -0.006204757
vn 0.4788575 -0.3266039 0.8148775
vn 0.911558 -0.4068716 -0.05930784
vn 0.8296124 -0.117102 -0.5459216
vn 0.8139122 0.3026107 -0.4959573
vn 0.4406432 -0.3734809 -0.8162999
vn 0.561187 -0.3082384 -0.7681525
vn 0.4203609 0.3599515 -0.8329055
vn -0.544687 -0.2058716 -0.8129779
vn -0.7062051 0.3410654 0.6204423
vn -0.7062054 -0.3410667 0.6204413
vn -0.9105744 -0.3410684 0.2335093
vn -0.9105746 0.3410676 0.2335101
vn -0.2629539 0.869441 0.4182433
vn -0.4936838 0.8694426 -0.01860076
vn -0.8904211 -0.3410704 -0.3013659
vn -0.4936826 -0.8694432 -0.0186008
vn -0.8904217 0.3410685 -0.3013662
vn -0.6575118 -0.3410686 -0.6718262
vn -0.6575131 0.3410666 -0.6718259
vn -0.2307335 0.8694416 -0.4368447
vn 0.7062054 0.341065 -0.6204422
vn 0.7062052 -0.3410669 -0.6204414
vn 0.9105739 -0.3410695 -0.2335097
vn 0.9105744 0.3410681 -0.2335099
vn 0.8904209 -0.3410706 0.3013661
vn 0.2629542 0.8694408 -0.4182436
vn 0.2530653 0.3410664 -0.9053351
vn 0.890421 0.3410698 0.3013667
vn 0.6575112 -0.3410693 0.6718265
vn 0.657512 0.3410678 0.6718264
vn 0.4936825 0.8694433 0.01860115
vn 0.2307323 0.8694422 0.4368443
vn -0.2629539 0.869441 0.4182433
vn -0.4936838 0.8694426 -0.01860076
vn -0.2307335 0.8694416 -0.4368447
vn -0.2307319 -0.8694428 -0.4368434
vn -0.1842192 -0.3410681 -0.9218112
vn -0.6575118 -0.3410686 -0.6718262
vn -0.6575131 0.3410666 -0.6718259
vn -0.1842195 0.3410663 -0.9218118
vn -0.2307335 0.8694416 -0.4368447
vn 0.2530656 -0.3410675 -0.9053347
vn 0.2530653 0.3410664 -0.9053351
vn 0.2629542 0.8694408 -0.4182436
vn 0.7062052 -0.3410669 -0.6204414
vn 0.2629532 -0.8694417 -0.4182424
vn 0.7062054 0.341065 -0.6204422
vn 0.2307309 -0.8694431 0.4368431
vn 0.1842185 -0.3410685 0.9218112
vn 0.6575112 -0.3410693 0.6718265
vn 0.657512 0.3410678 0.6718264
vn 0.1842193 0.3410667 0.9218117
vn 0.2307323 0.8694422 0.4368443
vn -0.2530658 -0.3410679 0.9053344
vn -0.2530654 0.3410667 0.905335
vn -0.2629539 0.869441 0.4182433
vn -0.7062051 0.3410654 0.6204423
vn -0.7062054 -0.3410667 0.6204413
vn -0.2629536 -0.8694419 0.4182418
vn 0.2530656 -0.3410675 -0.9053347
vn -0.1842192 -0.3410681 -0.9218112
vn -0.2307319 -0.8694428 -0.4368434
vn 0.2629532 -0.8694417 -0.4182424
vn -0.4936826 -0.8694432 -0.0186008
vn -0.6575118 -0.3410686 -0.6718262
vn -0.8904211 -0.3410704 -0.3013659
vn -0.2629536 -0.8694419 0.4182418
vn -0.9105744 -0.3410684 0.2335093
vn -0.7062054 -0.3410667 0.6204413
vn 0.4936817 -0.8694438 0.01860075
vn 0.9105739 -0.3410695 -0.2335097
vn 0.7062052 -0.3410669 -0.6204414
vn 0.8904209 -0.3410706 0.3013661
vn 0.6575112 -0.3410693 0.6718265
vn 0.2307309 -0.8694431 0.4368431
vn -0.2530658 -0.3410679 0.9053344
vn 0.1842185 -0.3410685 0.9218112
vn -0.6769719 0.350101 0.647409
vn -0.6951931 -0.3435042 0.6314359
vn -0.9089751 -0.3311788 0.2531501
vn -0.8966526 0.3501031 0.2710018
vn -0.2402025 0.8748797 0.4205811
vn -0.4843319 0.8748814 0.00227883
vn -0.9064218 -0.3260991 -0.268438
vn -0.5342812 -0.844609 -0.03433746
vn -0.8991616 0.3501081 -0.2625502
vn -0.6917671 -0.3261024 -0.6442946
vn -0.6830083 0.3501064 -0.6410345
vn -0.2441337 0.8748801 -0.4183101
vn -0.3010461 -0.8446131 -0.4427188
vn -0.2438273 -0.3311862 -0.9115174
vn -0.6917671 -0.3261024 -0.6442946
vn -0.2221907 0.3501044 -0.9099771
vn -0.6830083 0.3501064 -0.6410345
vn -0.2441337 0.8748801 -0.4183101
vn 0.2401999 0.8748804 -0.4205809
vn 0.213649 0.3501046 -0.9120202
vn 0.6769695 0.3501035 -0.6474101
vn 0.1906302 -0.3435044 -0.9196004
vn 0.6646898 -0.3536424 -0.6581219
vn 0.1902808 -0.8729435 -0.4491802
vn 0.2136077 -0.8885327 0.4060559
vn 0.2096792 -0.3589609 0.9094953
vn 0.6779619 -0.3625817 0.6394547
vn 0.6830097 0.3501051 0.6410336
vn 0.2221917 0.3501041 0.9099769
vn 0.2441359 0.8748798 0.4183097
vn -0.2402025 0.8748797 0.4205811
vn -0.2291147 -0.3536426 0.9068866
vn -0.2136494 0.3501039 0.9120204
vn -0.6769719 0.350101 0.647409
vn -0.6951931 -0.3435042 0.6314359
vn -0.2901946 -0.8729436 0.3921179
vn 0.1906302 -0.3435044 -0.9196004
vn -0.2438273 -0.3311862 -0.9115174
vn -0.3010461 -0.8446131 -0.4427188
vn 0.1902808 -0.8729435 -0.4491802
vn -0.2901946 -0.8729436 0.3921179
vn -0.5342812 -0.844609 -0.03433746
vn -0.6917671 -0.3261024 -0.6442946
vn -0.9064218 -0.3260991 -0.268438
vn -0.6951931 -0.3435042 0.6314359
vn -0.9089751 -0.3311788 0.2531501
vn 0.2136077 -0.8885327 0.4060559
vn 0.2096792 -0.3589609 0.9094953
vn -0.2291147 -0.3536426 0.9068866
vn 0.4582666 -0.8885339 -0.02234492
vn 0.6779619 -0.3625817 0.6394547
vn 0.8952354 -0.3625861 0.2590075
vn 0.8898814 -0.3589581 -0.2815319
vn 0.6646898 -0.3536424 -0.6581219
vn -0.1635376 0.9165634 -0.3649207
vn -0.1887688 0.8951331 0.4038603
vn -0.3995872 0.916562 0.01562597
vn 0.2779328 0.8951332 -0.3485541
vn 0.4783026 0.877319 0.03921898
vn 0.2476387 0.8773226 0.411072
vn 0.5029379 0.3709631 -0.7806663
vn 0.4477848 0.3547931 0.8207379
vn 0.9342337 0.3547885 0.03650354
vn 0.4882588 -0.3731141 -0.7889165
vn 0.4302284 -0.3790424 0.8192865
vn 0.9268028 -0.3742081 0.03170113
vn 0.2401999 0.8748804 -0.4205809
vn -0.4843319 0.8748814 0.00227883
vn -0.2441337 0.8748801 -0.4183101
vn -0.2402025 0.8748797 0.4205811
vn 0.4843329 0.8748809 -0.002278668
vn 0.2441359 0.8748798 0.4183097
vn 0.6830097 0.3501051 0.6410336
vn 0.8966531 0.3501021 -0.2710014
vn 0.6769695 0.3501035 -0.6474101
vn 0.6646898 -0.3536424 -0.6581219
vn 0.8898814 -0.3589581 -0.2815319
vn 0.8991616 0.3501083 0.2625503
vn 0.6779619 -0.3625817 0.6394547
vn 0.8952354 -0.3625861 0.2590075
vn 0.3382062 -0.4966266 -0.7993614
vn -0.5058262 -0.3842836 -0.7723121
vn -0.544687 -0.2058716 -0.8129779
vn -0.9232127 -0.3842881 -0.0009991534
vn 0.561187 -0.3082384 -0.7681525
vn -0.9785922 -0.2054315 -0.01246043
vn -0.4817826 -0.4512064 0.7511979
vn -0.5408014 -0.2882279 0.7902269
vn 0.6820902 -0.5733094 -0.4539486
vn 0.8296124 -0.117102 -0.5459216
vn 0.4232713 -0.5666955 0.706893
vn 0.4788575 -0.3266039 0.8148775
vn 0.911558 -0.4068716 -0.05930784
vn 0.8695371 -0.4925109 -0.0365827
vn 0.4640326 -0.3724213 0.8037264
vn 0.9280634 -0.3724222 0
vn 0.4422691 -0.8968824 0
vn 0.464031 -0.372422 -0.803727
vn 0.2211333 -0.896882 -0.3830179
vn -0.4640317 -0.3724216 -0.8037268
vn -0.221134 -0.8968819 -0.3830179
vn -0.4422701 -0.8968819 0
vn -0.9280637 -0.3724215 0
vn -0.464031 -0.3724218 0.8037271
vn -0.2211334 -0.896882 0.3830179
vn 0.2211355 -0.8968817 0.3830174
vn 0.4746947 -0.3724228 0.7974749
vn 0.9279827 -0.3724184 -0.01235946
vn 0.4422355 -0.8968796 -0.005890116
vn 0.4532875 -0.3724223 -0.8098346
vn 0.2262116 -0.896883 0.3800383
vn -0.4532883 -0.3724218 0.8098344
vn 0.2160109 -0.8968825 -0.3859287
vn -0.2262114 -0.8968833 -0.3800378
vn -0.4746946 -0.3724232 -0.7974748
vn -0.2160118 -0.8968825 0.3859284
vn -0.4422356 -0.8968796 0.005889936
vn -0.9279827 -0.3724182 0.01235941
vn -0.4831483 -0.3788442 0.7893319
vn 0.4435064 -0.3827525 0.8104336
vn 0.2102886 -0.8987296 0.3847906
vn 0.9262887 -0.3763104 0.01948693
vn -0.2307565 -0.8979738 0.3746926
vn -0.9293238 -0.3684817 -0.02405408
vn 0.4406378 -0.8976452 0.008447924
vn 0.4824195 -0.3659453 -0.7958364
vn 0.2297897 -0.8957744 -0.3805062
vn -0.2134297 -0.8950066 -0.3916771
vn -0.4436468 -0.8961095 -0.01285243
vn -0.4465252 -0.3620396 -0.8182558
vn 0.4962806 -0.3679357 0.7863389
vn 0.9303452 -0.3651862 -0.03311904
vn 0.4521065 -0.8918397 -0.01488478
vn 0.4383537 -0.3696319 -0.8192791
vn 0.2454746 -0.8937452 0.3754488
vn -0.4309737 -0.375232 0.8206477
vn 0.2179509 -0.8948976 -0.38943
vn -0.4891228 -0.3770362 -0.786513
vn -0.2240691 -0.8999219 -0.374077
vn -0.9244101 -0.3798839 0.03397447
vn -0.1963275 -0.8987371 0.3920805
vn -0.4317018 -0.9018547 0.01707902
vn 0.9282276 -0.3720107 0.001234071
vn 0.4633671 -0.3788859 -0.8010845
vn 0.2228542 -0.8977041 -0.3800834
vn -0.463684 -0.3792308 -0.8007379
vn 0.4444022 -0.8958253 0.001917395
vn 0.4657219 -0.3654053 0.8059666
vn -0.2185777 -0.8987405 -0.3801177
vn -0.9278618 -0.3729146 0.002713694
vn 0.2243015 -0.8949585 0.3856657
vn -0.4632538 -0.3659621 0.8071355
vn -0.2187769 -0.8960449 0.3863163
vn -0.4400895 -0.8979502 0.002575662
vn -0.9281877 -0.3714294 -0.02253332
vn -0.4924383 -0.3679278 0.7887545
vn -0.2518258 -0.8863218 0.3886095
vn 0.4302284 -0.3790424 0.8192865
vn -0.4527682 -0.891597 0.007474667
vn -0.4421701 -0.3763621 -0.8141481
vn 0.1853651 -0.8987216 0.3974156
vn 0.9268028 -0.3742081 0.03170113
vn -0.2213112 -0.8991601 -0.3775348
vn 0.4882588 -0.3731141 -0.7889165
vn 0.2283019 -0.8991843 -0.3732904
vn 0.4352169 -0.9000652 0.02165146
vn 0.4542941 -0.3796175 0.8059202
vn 0.9242931 -0.3816412 0.005680431
vn 0.4349424 -0.900455 0.002425815
vn 0.4670143 -0.3744204 -0.8010662
vn 0.2109659 -0.8991905 0.3833404
vn -0.4727142 -0.3708096 0.7994008
vn 0.2175069 -0.8980689 -0.3823128
vn -0.4608367 -0.3666941 -0.8081862
vn -0.2246847 -0.8947529 -0.3859199
vn -0.2307549 -0.8956538 0.3802057
vn -0.9309388 -0.3650974 -0.007524949
vn -0.4488451 -0.8935987 -0.004417542
vn 0.4810536 -0.3724202 0.7936565
vn 0.9278512 -0.3724259 -0.01977452
vn 0.4421635 -0.896885 -0.009422548
vn 0.4468015 -0.3724223 -0.813431
vn 0.2292491 -0.8968809 0.3782188
vn -0.4467974 -0.3724184 0.8134351
vn -0.2129288 -0.8968796 0.3876445
vn -0.9278521 -0.3724236 0.01977567
vn -0.4421664 -0.8968836 0.009423264
vn -0.4810546 -0.3724197 -0.7936562
vn 0.2129216 -0.8968824 -0.3876421
vn -0.2292506 -0.8968806 -0.3782184
vn -0.4416852 -0.3724185 0.8162222
vn 0.4860215 -0.3724205 0.7906238
vn 0.2316168 -0.8968808 0.3767738
vn 0.9272632 -0.3735998 -0.02462161
vn -0.2104922 -0.8968796 0.3889731
vn -0.9277117 -0.3724188 0.02559623
vn 0.442102 -0.8968818 -0.01219962
vn 0.4406432 -0.3734809 -0.8162999
vn -0.4421059 -0.8968799 0.01219753
vn -0.231616 -0.8968811 -0.3767737
vn -0.4860207 -0.3724206 -0.7906243
vn 0.2104864 -0.8968824 -0.38897
vt 0.2093385 0.4588293
vt 0.2093385 0.5815792
vt 0.2261749 0.5815851
vt 0.2261749 0.4588352
vt 0.2099375 0.4577877
vt 0.2256022 0.4577931
vt 0.1566616 0.4588668
vt 0.1566616 0.5816566
vt 0.1710924 0.5815824
vt 0.1710924 0.4587926
vt 0.1576868 0.4578567
vt 0.1858211 0.5816522
vt 0.1711131 0.4577877
vt 0.1858211 0.4588624
vt 0.1848167 0.4578526
vt 0.4108168 0.6052313
vt 0.4108168 0.6876919
vt 0.4253203 0.6940299
vt 0.4253203 0.6115693
vt 0.4399796 0.687892
vt 0.4399796 0.6054314
vt 0.4253311 0.6100193
vt 0.4118372 0.6041225
vt 0.4389701 0.6043087
vt 0.4119822 0.592515
vt 0.4391152 0.5927011
vt 0.4256212 0.5868043
vt 0.1891625 0.458803
vt 0.1891625 0.5815972
vt 0.205997 0.5815973
vt 0.205997 0.4588031
vt 0.2054316 0.4577878
vt 0.1897689 0.4577877
vt 0.6297714 0.204771
vt 0.7077401 0.204721
vt 0.7137302 0.1899436
vt 0.6359442 0.190018
vt 0.6286521 0.203767
vt 0.6295004 0.1755649
vt 0.7071685 0.1755649
vt 0.6284089 0.1765902
vt 0.6344009 0.1900319
vt 0.6166551 0.1768688
vt 0.6168982 0.2040456
vt 0.6109062 0.1906039
vt 0.4898911 0.2735594
vt 0.6070996 0.2735594
vt 0.6070853 0.2567206
vt 0.489758 0.2565293
vt 0.4888712 0.2729749
vt 0.4887472 0.2571094
vt 0.4564647 0.5761173
vt 0.473302 0.5761845
vt 0.473302 0.4590124
vt 0.4562732 0.4588231
vt 0.4727141 0.4579641
vt 0.4568498 0.4577877
vt 0.6068943 0.1602853
vt 0.6070767 0.1457982
vt 0.4898831 0.1457982
vt 0.489752 0.1603583
vt 0.6069724 0.1749606
vt 0.4897661 0.1750054
vt 0.4887472 0.1603572
vt 0.4888691 0.146816
vt 0.4887604 0.1739936
vt 0.4792865 0.3897972
vt 0.4794021 0.3711441
vt 0.354826 0.3711441
vt 0.3536206 0.3897972
vt 0.3538095 0.3717626
vt 0.3526796 0.3892476
vt 0.3548907 0.3370994
vt 0.4784142 0.3370994
vt 0.478702 0.3206182
vt 0.3536103 0.3206182
vt 0.3538798 0.3361063
vt 0.3526796 0.3206572
vt 0.3527589 0.3058283
vt 0.3536949 0.304794
vt 0.4793561 0.304794
vt 0.3547863 0.4500641
vt 0.4779775 0.4500641
vt 0.4772055 0.4314158
vt 0.3537221 0.4314158
vt 0.3536772 0.4495211
vt 0.3526796 0.4320415
vt 0.2829777 0.4531212
vt 0.3005677 0.4528887
vt 0.2997843 0.3615817
vt 0.2821559 0.3589016
vt 0.3005677 0.3433725
vt 0.2829201 0.3392362
vt 0.3000579 0.3203828
vt 0.2824497 0.3205526
vt 0.2994496 0.3193734
vt 0.2830097 0.319532
vt 0.2192342 0.4534129
vt 0.2363455 0.4533784
vt 0.2369503 0.3579275
vt 0.2198333 0.355127
vt 0.2364166 0.3204814
vt 0.2192342 0.3202835
vt 0.2358524 0.3195578
vt 0.2198386 0.3193734
vt 0.05091487 0.5868044
vt 0.03690113 0.591521
vt 0.03650369 0.6033907
vt 0.05011998 0.6105447
vt 0.06453142 0.5939893
vt 0.03548128 0.6044387
vt 0.064134 0.6058587
vt 0.05009232 0.6121143
vt 0.03553888 0.6302933
vt 0.0651301 0.6070867
vt 0.05014526 0.6385576
vt 0.03548127 0.6947575
vt 0.06518542 0.6323644
vt 0.05008696 0.701293
vt 0.0651272 0.6953028
vt 0.5506386 0.8761014
vt 0.5548036 0.813572
vt 0.5501397 0.8119085
vt 0.5338066 0.8761013
vt 0.5338066 0.8086
vt 0.5344269 0.8073235
vt 0.4305815 0.8120737
vt 0.4305815 0.8761632
vt 0.4449575 0.8760883
vt 0.4449575 0.8085895
vt 0.431623 0.8105626
vt 0.4597371 0.8761573
vt 0.444986 0.8073235
vt 0.4597371 0.8086585
vt 0.4587241 0.8073875
vt 0.8119659 0.565634
vt 0.8677838 0.565634
vt 0.8642986 0.551258
vt 0.811891 0.551258
vt 0.8109558 0.5646053
vt 0.8643675 0.5364783
vt 0.8108861 0.5512299
vt 0.8119599 0.5364783
vt 0.8109502 0.537479
vt 0.5078276 0.5627988
vt 0.5987881 0.562782
vt 0.6043 0.5477811
vt 0.5134792 0.5478948
vt 0.5973601 0.5336612
vt 0.5066758 0.5618086
vt 0.5066696 0.5336612
vt 0.5119349 0.5479426
vt 0.5056002 0.5346991
vt 0.4950819 0.5624311
vt 0.4940064 0.5353215
vt 0.4887472 0.5491875
vt 0.3481604 0.141845
vt 0.3482779 0.1250161
vt 0.2121943 0.1250161
vt 0.2120711 0.1418504
vt 0.2111485 0.1256211
vt 0.2110338 0.1412837
vt 0.3483964 0.03619344
vt 0.3487082 0.02184856
vt 0.2125115 0.02184856
vt 0.2121993 0.03630263
vt 0.3482208 0.05099778
vt 0.2114845 0.02287135
vt 0.212027 0.05100546
vt 0.2111941 0.03632011
vt 0.2110338 0.04999888
vt 0.00167071 0.6061554
vt 0.00167071 0.6954172
vt 0.01689415 0.7019489
vt 0.01689415 0.6126871
vt 0.03213986 0.6954458
vt 0.03213986 0.6061839
vt 0.01689564 0.611137
vt 0.00268641 0.6050406
vt 0.03112564 0.6050672
vt 0.002707193 0.5928742
vt 0.0169372 0.5868043
vt 0.03114643 0.5929009
vt 0.2402917 0.3203887
vt 0.2402917 0.4533108
vt 0.2578818 0.4533108
vt 0.2578818 0.3203888
vt 0.2408901 0.3193734
vt 0.2573082 0.3193735
vt 0.1512499 0.3204547
vt 0.1512499 0.453372
vt 0.1663984 0.4532956
vt 0.1663984 0.3203783
vt 0.1817176 0.4533695
vt 0.1817176 0.3204522
vt 0.1664098 0.3193734
vt 0.1522705 0.3194447
vt 0.1807084 0.3194424
vt 0.2612233 0.3204152
vt 0.2612233 0.4532893
vt 0.2788145 0.4532917
vt 0.2788145 0.3204176
vt 0.2618143 0.3193734
vt 0.2782335 0.3193756
vt 0.3801154 0.6042967
vt 0.3801154 0.6887747
vt 0.3938906 0.6945049
vt 0.3938906 0.6100268
vt 0.4074754 0.6885304
vt 0.4074754 0.6040524
vt 0.3938765 0.6084769
vt 0.3811232 0.6031719
vt 0.4064535 0.6029457
vt 0.380947 0.5923356
vt 0.393524 0.5868043
vt 0.4062772 0.5921094
vt 0.3536949 0.4089361
vt 0.4794933 0.4089361
vt 0.4794933 0.3931386
vt 0.3536949 0.3931386
vt 0.3526796 0.3937258
vt 0.3526796 0.4083512
vt 0.3537516 0.3678026
vt 0.4795454 0.3678026
vt 0.4794783 0.3540932
vt 0.3536845 0.3540932
vt 0.3527417 0.3667898
vt 0.4795462 0.3404408
vt 0.3526796 0.3540974
vt 0.3537525 0.3404408
vt 0.3527425 0.3414579
vt 0.3537249 0.4280744
vt 0.4794778 0.4280744
vt 0.4794743 0.4122775
vt 0.3537214 0.4122775
vt 0.3526796 0.4128719
vt 0.3526829 0.4274969
vt 0.3046986 0.3638682
vt 0.3039091 0.4528727
vt 0.3214985 0.4531104
vt 0.3223279 0.3611944
vt 0.3039091 0.3468178
vt 0.3215583 0.3426882
vt 0.3044624 0.3204093
vt 0.3220708 0.3205843
vt 0.3050621 0.3193734
vt 0.3215016 0.3195367
vt 0.1854411 0.3612313
vt 0.1850591 0.4531559
vt 0.200317 0.4530021
vt 0.2006805 0.3584708
vt 0.2155271 0.4529361
vt 0.2158927 0.3587109
vt 0.1851995 0.3427346
vt 0.2156428 0.339064
vt 0.2004295 0.3386709
vt 0.1850591 0.3206185
vt 0.2155304 0.3203753
vt 0.2003206 0.3204214
vt 0.1860658 0.3196004
vt 0.2145076 0.3193734
vt 0.2003118 0.3194164
vt 0.08417127 0.7010958
vt 0.09938389 0.6946456
vt 0.09897856 0.6349502
vt 0.08376378 0.6416066
vt 0.06891587 0.6945528
vt 0.06852683 0.6333065
vt 0.09920885 0.624215
vt 0.08399297 0.6309747
vt 0.06876541 0.6217959
vt 0.08417159 0.6127266
vt 0.09938389 0.6062617
vt 0.06891247 0.6061424
vt 0.0841759 0.6111684
vt 0.09837412 0.6051343
vt 0.06993232 0.6050212
vt 0.09833013 0.5929516
vt 0.06988833 0.5928385
vt 0.08408655 0.5868044
vt 0.1326552 0.4534338
vt 0.1477534 0.4534139
vt 0.1478097 0.3551266
vt 0.1327118 0.3548486
vt 0.1181668 0.3573202
vt 0.1181137 0.4533683
vt 0.1182626 0.3233047
vt 0.1328109 0.321697
vt 0.1192932 0.3221876
vt 0.1479085 0.3202851
vt 0.1328513 0.3206892
vt 0.1469207 0.3193734
vt 0.3906133 0.2243084
vt 0.483793 0.2237176
vt 0.4838437 0.2066022
vt 0.38783 0.2071869
vt 0.3540041 0.2237886
vt 0.3538224 0.2066023
vt 0.352849 0.2231595
vt 0.3526796 0.2071423
vt 0.8108862 0.5695344
vt 0.810886 0.5851948
vt 0.8119013 0.5858074
vt 0.8119015 0.5689754
vt 0.8643108 0.5858074
vt 0.8677214 0.5689754
vt 0.3483266 0.01850714
vt 0.3493383 0.01794623
vt 0.3492556 0.002285399
vt 0.3482378 0.001674624
vt 0.2121347 0.01850715
vt 0.2120459 0.001670721
vt 0.2111165 0.01793361
vt 0.2110339 0.002269066
vt 0.4940381 0.582975
vt 0.5543506 0.582975
vt 0.5543593 0.5661402
vt 0.4902906 0.5661402
vt 0.4922303 0.582362
vt 0.4887472 0.5667136
vt 0.8119276 0.4656851
vt 0.871483 0.4656851
vt 0.8677361 0.4488503
vt 0.8119363 0.4488503
vt 0.810886 0.4650797
vt 0.8108941 0.4494166
vt 0.8738316 0.1404878
vt 0.8695875 0.1257768
vt 0.8295795 0.1257768
vt 0.8356491 0.1404878
vt 0.8711068 0.1477126
vt 0.8284522 0.1267826
vt 0.8292439 0.1549373
vt 0.866729 0.1549373
vt 0.8340993 0.1404696
vt 0.8168455 0.1265392
vt 0.8281398 0.1539134
vt 0.8108861 0.139983
vt 0.8165333 0.1536701
vt 0.8755013 0.07426245
vt 0.8694317 0.05955142
vt 0.8289151 0.05955142
vt 0.8326401 0.07426245
vt 0.8272676 0.06056967
vt 0.831084 0.07424402
vt 0.8286738 0.08095963
vt 0.8301426 0.08247603
vt 0.869096 0.08871195
vt 0.8251518 0.08678043
vt 0.8256186 0.0887042
vt 0.810886 0.08743218
vt 0.353895 0.1073698
vt 0.4843033 0.1073698
vt 0.48424 0.09322743
vt 0.3538317 0.09322744
vt 0.3527468 0.1072657
vt 0.3526796 0.09225103
vt 0.4842407 0.09121167
vt 0.4854058 0.09225102
vt 0.3538324 0.09121168
vt 0.4843137 0.07772802
vt 0.3539054 0.07772803
vt 0.3527572 0.07793573
vt 0.1038041 0.6077036
vt 0.1027253 0.6952738
vt 0.1168621 0.7008463
vt 0.1179409 0.613276
vt 0.1188779 0.7007968
vt 0.1039187 0.6059921
vt 0.1027253 0.6064343
vt 0.1199566 0.6132266
vt 0.1323669 0.6945465
vt 0.1334457 0.6069762
vt 0.1189274 0.6119083
vt 0.1332484 0.6052725
vt 0.1325608 0.5927205
vt 0.1175521 0.5868043
vt 0.103231 0.5934402
vt 0.3269172 0.4521046
vt 0.3274543 0.450946
vt 0.3256693 0.4509457
vt 0.3256693 0.3205326
vt 0.3274543 0.3205329
vt 0.3269172 0.3193736
vt 0.3434058 0.4509458
vt 0.3434058 0.3205327
vt 0.3438525 0.3193734
vt 0.3451125 0.4509455
vt 0.3438525 0.4521044
vt 0.3451125 0.3205324
vt 0.4853836 0.1289021
vt 0.4842557 0.1283568
vt 0.4842308 0.1301485
vt 0.3538648 0.1301485
vt 0.3538898 0.1283568
vt 0.3527006 0.1289021
vt 0.484236 0.1124102
vt 0.3538701 0.1124102
vt 0.3526796 0.111972
vt 0.3538408 0.1107112
vt 0.4842068 0.1107112
vt 0.4853626 0.111972
vt 0.9529475 0.2720958
vt 0.9609146 0.2582661
vt 0.960151 0.2572325
vt 0.9516924 0.2719152
vt 0.9516614 0.2425676
vt 0.9609125 0.2562491
vt 0.9529161 0.2424362
vt 0.9347133 0.2425855
vt 0.9511679 0.2414296
vt 0.9352044 0.2414464
vt 0.9347444 0.2719331
vt 0.9352379 0.273123
vt 0.9512014 0.2731061
vt 0.9334896 0.2721164
vt 0.9254932 0.2583035
vt 0.9262548 0.2572682
vt 0.9334583 0.2424568
vt 0.9254911 0.2562865
vt 0.1599733 0.1773578
vt 0.1599733 0.3140857
vt 0.1743837 0.3125917
vt 0.1743837 0.1772865
vt 0.1601375 0.1762101
vt 0.1754367 0.1761344
vt 0.176488 0.3124925
vt 0.1754421 0.3137774
vt 0.176488 0.1772865
vt 0.1909163 0.3125636
vt 0.1909163 0.1773575
vt 0.190755 0.1762098
vt 0.06361639 0.3137825
vt 0.06413236 0.3126038
vt 0.06231378 0.3125044
vt 0.06413236 0.1772937
vt 0.06231378 0.1772934
vt 0.06362323 0.1761344
vt 0.0813001 0.1761344
vt 0.08078232 0.1772937
vt 0.08260836 0.1772934
vt 0.08078232 0.3140266
vt 0.08260836 0.3141876
vt 0.08130068 0.3152936
vt 0.002977506 0.316032
vt 0.003496897 0.314913
vt 0.00167071 0.3149403
vt 0.00167071 0.1772991
vt 0.003496897 0.1773272
vt 0.002978982 0.1761361
vt 0.02065585 0.1761344
vt 0.02014684 0.3141703
vt 0.02014684 0.1773256
vt 0.02196529 0.1772971
vt 0.02196529 0.3139806
vt 0.02065644 0.3152434
vt 0.3009611 0.8871736
vt 0.2865599 0.895467
vt 0.286702 0.8968005
vt 0.3019979 0.8879918
vt 0.301998 0.9233419
vt 0.286702 0.9144693
vt 0.285509 0.897287
vt 0.285509 0.9139341
vt 0.3009611 0.9241118
vt 0.2865599 0.9157581
vt 0.3172979 0.9145222
vt 0.3174727 0.915809
vt 0.3030633 0.9241154
vt 0.3172978 0.8968481
vt 0.3185241 0.9139883
vt 0.3185241 0.8973412
vt 0.3174726 0.8955179
vt 0.3030632 0.8871772
vt 0.2200919 0.5937675
vt 0.2503599 0.5935487
vt 0.234842 0.5868044
vt 0.2208554 0.6074769
vt 0.2363725 0.6141195
vt 0.2511233 0.607156
vt 0.2198675 0.6086257
vt 0.2521622 0.6082819
vt 0.2364221 0.6157123
vt 0.2198675 0.6922829
vt 0.2521622 0.691039
vt 0.2364221 0.6986681
vt 0.3846054 0.4775179
vt 0.3997186 0.4577877
vt 0.3844754 0.4644201
vt 0.415092 0.4642531
vt 0.3999788 0.4839833
vt 0.4152221 0.4773509
vt 0.4153945 0.4790981
vt 0.3989326 0.4853567
vt 0.3844523 0.4792669
vt 0.3844523 0.5711961
vt 0.3989326 0.5777837
vt 0.4010368 0.4853452
vt 0.4153945 0.5715623
vt 0.4010368 0.5778095
vt 0.8376614 0.9287139
vt 0.8231229 0.9370646
vt 0.8241398 0.9376738
vt 0.8231229 0.9538996
vt 0.8385541 0.930437
vt 0.8241399 0.9533224
vt 0.8376614 0.9623837
vt 0.8376538 0.9612088
vt 0.84493 0.9329568
vt 0.8444104 0.9338553
vt 0.8521956 0.9540395
vt 0.8511637 0.9534525
vt 0.8511975 0.9377533
vt 0.8522293 0.937154
vt 0.9646991 0.92946
vt 0.9725981 0.9431376
vt 0.9731849 0.9421002
vt 0.9883955 0.9431376
vt 0.9878104 0.9421002
vt 0.996294 0.92946
vt 0.9951228 0.9294373
vt 0.9878099 0.9167745
vt 0.988395 0.9157825
vt 0.9725975 0.9157825
vt 0.9731845 0.9167745
vt 0.965872 0.9294373
vt 0.9342819 0.750549
vt 0.925491 0.7657828
vt 0.926683 0.7657725
vt 0.9342881 0.7810166
vt 0.9348882 0.7515535
vt 0.9518698 0.750549
vt 0.934894 0.7799913
vt 0.9513102 0.7799913
vt 0.951876 0.7810166
vt 0.9513044 0.7515535
vt 0.9595154 0.7657725
vt 0.9606668 0.7657828
vt 0.7547734 0.9539627
vt 0.7547734 0.9371281
vt 0.753755 0.9377421
vt 0.7401923 0.9287138
vt 0.7537536 0.953405
vt 0.7401923 0.9623831
vt 0.7401894 0.9299123
vt 0.7256112 0.9371343
vt 0.7266225 0.9377454
vt 0.7266211 0.9534082
vt 0.7401866 0.9612381
vt 0.7256112 0.9539689
vt 0.2641309 0.9372733
vt 0.2493041 0.9287138
vt 0.2493146 0.9299014
vt 0.2344773 0.9372758
vt 0.2631265 0.937875
vt 0.2641309 0.9543948
vt 0.2355028 0.9378772
vt 0.2344773 0.9543973
vt 0.2355028 0.9538264
vt 0.2493041 0.9629567
vt 0.2631265 0.9538242
vt 0.2493147 0.9618
vt 0.9342862 0.6795861
vt 0.9518774 0.6795861
vt 0.9512826 0.6785418
vt 0.9606735 0.6643542
vt 0.9348632 0.6785415
vt 0.9254912 0.6643542
vt 0.9594929 0.664325
vt 0.9518785 0.6491225
vt 0.9266542 0.6643245
vt 0.9342873 0.6491224
vt 0.9348645 0.6501077
vt 0.9512839 0.650108
vt 0.1821698 0.9151434
vt 0.1983339 0.9244727
vt 0.1983227 0.9233204
vt 0.2144888 0.9151638
vt 0.1831733 0.9145775
vt 0.1821667 0.8964948
vt 0.2134627 0.9145967
vt 0.2144888 0.8965099
vt 0.1831701 0.8971005
vt 0.1983287 0.8871737
vt 0.1983171 0.888365
vt 0.2134622 0.897115
vt 0.8847336 0.9371257
vt 0.8701522 0.9287139
vt 0.8701601 0.9299172
vt 0.8555707 0.9371355
vt 0.8837261 0.9377445
vt 0.8847336 0.9539592
vt 0.8565933 0.9377503
vt 0.8555707 0.953969
vt 0.8565925 0.9534107
vt 0.8837253 0.9534048
vt 0.8701522 0.9623808
vt 0.8701585 0.9612379
vt 0.7872775 0.9371281
vt 0.7726962 0.9287138
vt 0.7727063 0.9299059
vt 0.7581149 0.937134
vt 0.7862728 0.9377345
vt 0.7872775 0.9539626
vt 0.7862728 0.9533973
vt 0.7726962 0.9623829
vt 0.7727063 0.9612314
vt 0.7581149 0.9539685
vt 0.75914 0.93774
vt 0.75914 0.9534028
vt 0.8197815 0.9539626
vt 0.8197815 0.9371281
vt 0.8187767 0.9377345
vt 0.8052002 0.9287137
vt 0.8187767 0.9533973
vt 0.8052002 0.9623827
vt 0.8052102 0.9299059
vt 0.7906189 0.9371338
vt 0.8052102 0.9612314
vt 0.7916439 0.9534026
vt 0.7906189 0.9539683
vt 0.7916439 0.9377399
usemtl MV_RockHexic_Rocks
f 1/1/1 3/3/3 2/2/2
f 1/1/1 4/4/4 3/3/3
f 5/5/5 4/4/4 1/1/1
f 5/5/5 6/6/6 4/4/4
f 7/7/7 9/9/9 8/8/8
f 7/7/7 10/10/10 9/9/9
f 11/11/11 10/10/10 7/7/7
f 10/10/10 12/12/12 9/9/9
f 11/11/11 13/13/13 10/10/10
f 10/10/10 14/14/14 12/12/12
f 13/13/13 14/14/14 10/10/10
f 13/13/13 15/15/15 14/14/14
f 16/16/16 18/18/18 17/17/17
f 16/16/16 19/19/19 18/18/18
f 19/19/19 20/20/20 18/18/18
f 19/19/19 21/21/21 20/20/20
f 16/16/16 22/22/22 19/19/19
f 22/22/22 21/21/21 19/19/19
f 16/16/16 23/23/23 22/22/22
f 22/22/22 24/24/24 21/21/21
f 22/22/22 23/23/23 25/25/25
f 26/26/26 24/24/24 22/22/22
f 25/25/25 26/26/26 22/22/22
f 25/25/25 27/27/27 26/26/26
f 28/28/28 30/30/30 29/29/29
f 28/28/28 31/31/31 30/30/30
f 32/32/32 31/31/31 28/28/28
f 32/32/32 28/28/28 33/33/33
f 34/34/34 36/36/36 35/35/35
f 34/34/34 37/37/37 36/36/36
f 37/37/37 34/34/34 38/38/38
f 36/36/36 37/37/37 39/39/39
f 36/36/36 39/39/39 40/40/40
f 37/37/37 41/41/41 39/39/39
f 37/37/37 42/42/42 41/41/41
f 37/37/37 38/38/38 42/42/42
f 42/42/42 38/38/38 41/41/41
f 43/43/43 41/41/41 38/38/38
f 38/38/38 44/44/44 43/43/43
f 44/44/44 45/45/45 43/43/43
f 46/46/46 48/48/48 47/47/47
f 46/46/46 49/49/49 48/48/48
f 50/50/50 49/49/49 46/46/46
f 50/50/50 51/51/51 49/49/49
f 52/52/52 54/54/54 53/53/53
f 52/52/52 55/55/55 54/54/54
f 56/56/56 54/54/54 55/55/55
f 56/56/56 55/55/55 57/57/57
f 58/58/58 60/60/60 59/59/59
f 58/58/58 61/61/61 60/60/60
f 62/62/62 61/61/61 58/58/58
f 62/62/62 63/63/63 61/61/61
f 60/60/60 61/61/61 64/64/64
f 64/64/64 61/61/61 63/63/63
f 60/60/60 64/64/64 65/65/65
f 64/64/64 63/63/63 66/66/66
f 67/67/67 69/69/69 68/68/68
f 67/67/67 70/70/70 69/69/69
f 71/71/71 69/69/69 70/70/70
f 71/71/71 70/70/70 72/72/72
f 73/73/73 75/75/75 74/74/74
f 73/73/73 76/76/76 75/75/75
f 77/77/77 76/76/76 73/73/73
f 77/77/77 78/78/78 76/76/76
f 79/79/79 76/76/76 78/78/78
f 79/79/79 80/80/80 76/76/76
f 75/75/75 76/76/76 80/80/80
f 75/75/75 80/80/80 81/81/81
f 82/82/82 84/84/84 83/83/83
f 82/82/82 85/85/85 84/84/84
f 86/86/86 85/85/85 82/82/82
f 86/86/86 87/87/87 85/85/85
f 88/88/88 90/90/90 89/89/89
f 88/88/88 91/91/91 90/90/90
f 91/91/91 92/92/92 90/90/90
f 91/91/91 93/93/93 92/92/92
f 93/93/93 94/94/94 92/92/92
f 93/93/93 95/95/95 94/94/94
f 96/96/96 94/94/94 95/95/95
f 96/96/96 95/95/95 97/97/97
f 98/98/98 100/100/100 99/99/99
f 98/98/98 101/101/101 100/100/100
f 101/101/101 102/102/102 100/100/100
f 101/101/101 103/103/103 102/102/102
f 104/104/104 102/102/102 103/103/103
f 104/104/104 103/103/103 105/105/105
f 106/106/106 108/108/108 107/107/107
f 106/106/106 109/109/109 108/108/108
f 110/110/110 109/109/109 106/106/106
f 111/111/111 108/108/108 109/109/109
f 110/110/110 112/112/112 109/109/109
f 111/111/111 109/109/109 113/113/113
f 113/113/113 109/109/109 112/112/112
f 114/114/114 111/111/111 113/113/113
f 113/113/113 112/112/112 115/115/115
f 114/114/114 113/113/113 116/116/116
f 116/116/116 113/113/113 115/115/115
f 117/117/117 114/114/114 116/116/116
f 116/116/116 115/115/115 118/118/118
f 117/117/117 116/116/116 119/119/119
f 116/116/116 118/118/118 120/120/120
f 116/116/116 120/120/120 119/119/119
f 121/121/121 123/123/123 122/122/122
f 124/124/124 123/123/123 121/121/121
f 124/124/124 125/125/125 123/123/123
f 126/126/126 123/123/123 125/125/125
f 127/127/127 129/129/129 128/128/128
f 127/127/127 130/130/130 129/129/129
f 131/131/131 130/130/130 127/127/127
f 130/130/130 132/132/132 129/129/129
f 131/131/131 133/133/133 130/130/130
f 130/130/130 134/134/134 132/132/132
f 135/135/135 130/130/130 133/133/133
f 135/135/135 134/134/134 130/130/130
f 136/136/136 138/138/138 137/137/137
f 136/136/136 139/139/139 138/138/138
f 140/140/140 139/139/139 136/136/136
f 139/139/139 141/141/141 138/138/138
f 140/140/140 142/142/142 139/139/139
f 139/139/139 143/143/143 141/141/141
f 144/144/144 139/139/139 142/142/142
f 144/144/144 143/143/143 139/139/139
f 145/145/145 147/147/147 146/146/146
f 145/145/145 148/148/148 147/147/147
f 148/148/148 149/149/149 147/147/147
f 148/148/148 145/145/145 150/150/150
f 148/148/148 151/151/151 149/149/149
f 148/148/148 150/150/150 152/152/152
f 151/151/151 148/148/148 152/152/152
f 151/151/151 152/152/152 153/153/153
f 152/152/152 150/150/150 154/154/154
f 155/155/155 153/153/153 152/152/152
f 154/154/154 155/155/155 152/152/152
f 154/154/154 156/156/156 155/155/155
f 157/157/157 159/159/159 158/158/158
f 157/157/157 160/160/160 159/159/159
f 161/161/161 159/159/159 160/160/160
f 161/161/161 160/160/160 162/162/162
f 163/163/163 165/165/165 164/164/164
f 163/163/163 166/166/166 165/165/165
f 167/167/167 166/166/166 163/163/163
f 168/168/168 165/165/165 166/166/166
f 167/167/167 169/169/169 166/166/166
f 168/168/168 166/166/166 170/170/170
f 170/170/170 166/166/166 169/169/169
f 170/170/170 169/169/169 171/171/171
f 172/172/172 174/174/174 173/173/173
f 172/172/172 175/175/175 174/174/174
f 175/175/175 176/176/176 174/174/174
f 175/175/175 177/177/177 176/176/176
f 172/172/172 178/178/178 175/175/175
f 177/177/177 175/175/175 178/178/178
f 172/172/172 179/179/179 178/178/178
f 177/177/177 178/178/178 180/180/180
f 180/180/180 178/178/178 179/179/179
f 179/179/179 181/181/181 180/180/180
f 181/181/181 182/182/182 180/180/180
f 182/182/182 183/183/183 180/180/180
f 184/184/184 186/186/186 185/185/185
f 184/184/184 187/187/187 186/186/186
f 188/188/188 187/187/187 184/184/184
f 188/188/188 189/189/189 187/187/187
f 190/190/190 192/192/192 191/191/191
f 190/190/190 193/193/193 192/192/192
f 193/193/193 194/194/194 192/192/192
f 193/193/193 195/195/195 194/194/194
f 196/196/196 193/193/193 190/190/190
f 196/196/196 195/195/195 193/193/193
f 196/196/196 190/190/190 197/197/197
f 196/196/196 198/198/198 195/195/195
f 199/199/199 201/201/201 200/200/200
f 199/199/199 202/202/202 201/201/201
f 202/202/202 199/199/199 203/203/203
f 202/202/202 203/203/203 204/204/204
f 205/205/205 207/207/207 206/206/206
f 205/205/205 208/208/208 207/207/207
f 208/208/208 209/209/209 207/207/207
f 208/208/208 210/210/210 209/209/209
f 205/205/205 211/211/211 208/208/208
f 210/210/210 208/208/208 211/211/211
f 205/205/205 212/212/212 211/211/211
f 210/210/210 211/211/211 213/213/213
f 213/213/213 211/211/211 212/212/212
f 212/212/212 214/214/214 213/213/213
f 214/214/214 215/215/215 213/213/213
f 215/215/215 216/216/216 213/213/213
f 217/217/217 219/219/219 218/218/218
f 217/217/217 220/220/220 219/219/219
f 221/221/221 220/220/220 217/217/217
f 221/221/221 217/217/217 222/222/222
f 223/223/223 225/225/225 224/224/224
f 223/223/223 226/226/226 225/225/225
f 227/227/227 226/226/226 223/223/223
f 226/226/226 228/228/228 225/225/225
f 227/227/227 229/229/229 226/226/226
f 226/226/226 230/230/230 228/228/228
f 231/231/231 226/226/226 229/229/229
f 231/231/231 230/230/230 226/226/226
f 232/232/232 234/234/234 233/233/233
f 232/232/232 235/235/235 234/234/234
f 236/236/236 235/235/235 232/232/232
f 236/236/236 232/232/232 237/237/237
f 238/238/238 240/240/240 239/239/239
f 238/238/238 241/241/241 240/240/240
f 242/242/242 241/241/241 238/238/238
f 242/242/242 243/243/243 241/241/241
f 244/244/244 243/243/243 242/242/242
f 244/244/244 245/245/245 243/243/243
f 246/246/246 245/245/245 244/244/244
f 246/246/246 247/247/247 245/245/245
f 248/248/248 250/250/250 249/249/249
f 248/248/248 251/251/251 250/250/250
f 251/251/251 252/252/252 250/250/250
f 251/251/251 253/253/253 252/252/252
f 254/254/254 251/251/251 248/248/248
f 251/251/251 255/255/255 253/253/253
f 254/254/254 256/256/256 251/251/251
f 251/251/251 256/256/256 255/255/255
f 257/257/257 256/256/256 254/254/254
f 256/256/256 258/258/258 255/255/255
f 257/257/257 259/259/259 256/256/256
f 256/256/256 259/259/259 258/258/258
f 260/260/260 259/259/259 257/257/257
f 261/261/261 258/258/258 259/259/259
f 260/260/260 262/262/262 259/259/259
f 261/261/261 259/259/259 262/262/262
f 263/263/263 265/265/265 264/264/264
f 263/263/263 266/266/266 265/265/265
f 267/267/267 266/266/266 263/263/263
f 267/267/267 268/268/268 266/266/266
f 266/266/266 269/269/269 265/265/265
f 268/268/268 270/270/270 266/266/266
f 266/266/266 270/270/270 269/269/269
f 268/268/268 271/271/271 270/270/270
f 272/272/272 269/269/269 270/270/270
f 271/271/271 272/272/272 270/270/270
f 272/272/272 273/273/273 269/269/269
f 271/271/271 274/274/274 272/272/272
f 273/273/273 272/272/272 275/275/275
f 274/274/274 275/275/275 272/272/272
f 273/273/273 275/275/275 276/276/276
f 274/274/274 277/277/277 275/275/275
f 276/276/276 275/275/275 277/277/277
f 278/278/278 276/276/276 277/277/277
f 277/277/277 279/279/279 278/278/278
f 280/280/280 278/278/278 279/279/279
f 281/281/281 283/283/283 282/282/282
f 281/281/281 284/284/284 283/283/283
f 285/285/285 284/284/284 281/281/281
f 285/285/285 281/281/281 286/286/286
f 287/287/287 284/284/284 285/285/285
f 288/288/288 283/283/283 284/284/284
f 287/287/287 288/288/288 284/284/284
f 289/289/289 288/288/288 287/287/287
f 288/288/288 290/290/290 283/283/283
f 289/289/289 291/291/291 288/288/288
f 291/291/291 290/290/290 288/288/288
f 291/291/291 292/292/292 290/290/290
f 293/293/293 295/295/295 294/294/294
f 293/293/293 296/296/296 295/295/295
f 297/297/297 296/296/296 293/293/293
f 297/297/297 298/298/298 296/296/296
f 299/299/299 298/298/298 297/297/297
f 299/299/299 300/300/300 298/298/298
f 301/301/301 303/303/303 302/302/302
f 301/301/301 304/304/304 303/303/303
f 305/305/305 303/303/303 304/304/304
f 305/305/305 304/304/304 306/306/306
f 307/307/307 309/309/309 308/308/308
f 307/307/307 310/310/310 309/309/309
f 311/311/311 310/310/310 307/307/307
f 311/311/311 312/312/312 310/310/310
f 313/313/313 312/312/312 311/311/311
f 313/313/313 314/314/314 312/312/312
f 315/315/315 317/317/317 316/316/316
f 315/315/315 318/318/318 317/317/317
f 319/319/319 318/318/318 315/315/315
f 319/319/319 320/320/320 318/318/318
f 321/321/321 323/323/323 322/322/322
f 321/321/321 324/324/324 323/323/323
f 325/325/325 324/324/324 321/321/321
f 325/325/325 326/326/326 324/324/324
f 327/327/327 329/329/329 328/328/328
f 327/327/327 330/330/330 329/329/329
f 331/331/331 330/330/330 327/327/327
f 330/330/330 332/332/332 329/329/329
f 331/331/331 333/333/333 330/330/330
f 334/334/334 333/333/333 331/331/331
f 330/330/330 335/335/335 332/332/332
f 333/333/333 335/335/335 330/330/330
f 336/336/336 332/332/332 335/335/335
f 333/333/333 337/337/337 335/335/335
f 338/338/338 336/336/336 335/335/335
f 335/335/335 337/337/337 339/339/339
f 339/339/339 338/338/338 335/335/335
f 340/340/340 342/342/342 341/341/341
f 340/340/340 343/343/343 342/342/342
f 344/344/344 342/342/342 343/343/343
f 344/344/344 343/343/343 345/345/345
f 346/346/346 345/345/345 343/343/343
f 347/347/347 343/343/343 340/340/340
f 346/346/346 343/343/343 347/347/347
f 347/347/347 340/340/340 348/348/348
f 349/349/349 346/346/346 347/347/347
f 349/349/349 347/347/347 350/350/350
f 351/351/351 349/349/349 350/350/350
f 352/352/352 354/354/354 353/353/353
f 352/352/352 355/355/355 354/354/354
f 355/355/355 352/352/352 356/356/356
f 355/355/355 356/356/356 357/357/357
f 358/358/358 354/354/354 355/355/355
f 359/359/359 354/354/354 358/358/358
f 358/358/358 355/355/355 360/360/360
f 357/357/357 360/360/360 355/355/355
f 360/360/360 361/361/361 358/358/358
f 360/360/360 362/362/362 361/361/361
f 362/362/362 360/360/360 357/357/357
f 362/362/362 357/357/357 363/363/363
f 364/364/364 366/366/366 365/365/365
f 364/364/364 367/367/367 366/366/366
f 368/368/368 366/366/366 367/367/367
f 367/367/367 364/364/364 369/369/369
f 369/369/369 364/364/364 370/370/370
f 368/368/368 367/367/367 371/371/371
f 371/371/371 372/372/372 368/368/368
f 371/371/371 373/373/373 372/372/372
f 374/374/374 371/371/371 367/367/367
f 373/373/373 371/371/371 374/374/374
f 367/367/367 369/369/369 374/374/374
f 373/373/373 374/374/374 375/375/375
f 376/376/376 375/375/375 374/374/374
f 376/376/376 374/374/374 369/369/369
f 369/369/369 377/377/377 376/376/376
f 369/369/369 378/378/378 377/377/377
f 379/379/379 381/381/381 380/380/380
f 382/382/382 380/380/380 381/381/381
f 382/382/382 383/383/383 380/380/380
f 384/384/384 383/383/383 382/382/382
f 383/383/383 385/385/385 380/380/380
f 386/386/386 383/383/383 384/384/384
f 383/383/383 386/386/386 385/385/385
f 386/386/386 384/384/384 387/387/387
f 388/388/388 385/385/385 386/386/386
f 385/385/385 388/388/388 389/389/389
f 388/388/388 386/386/386 390/390/390
f 391/391/391 393/393/393 392/392/392
f 392/392/392 393/393/393 394/394/394
f 392/392/392 394/394/394 395/395/395
f 396/396/396 395/395/395 394/394/394
f 395/395/395 397/397/397 392/392/392
f 398/398/398 395/395/395 396/396/396
f 395/395/395 398/398/398 397/397/397
f 398/398/398 396/396/396 399/399/399
f 399/399/399 400/400/400 398/398/398
f 401/401/401 398/398/398 400/400/400
f 401/401/401 397/397/397 398/398/398
f 397/397/397 401/401/401 402/402/402
f 403/403/403 405/405/405 404/404/404
f 403/403/403 406/406/406 405/405/405
f 406/406/406 407/407/407 405/405/405
f 408/408/408 405/405/405 407/407/407
f 408/408/408 407/407/407 409/409/409
f 406/406/406 410/410/410 407/407/407
f 411/411/411 407/407/407 410/410/410
f 411/411/411 410/410/410 412/412/412
f 410/410/410 406/406/406 413/413/413
f 414/414/414 413/413/413 406/406/406
f 414/414/414 406/406/406 415/415/415
f 413/413/413 414/414/414 416/416/416
f 417/417/417 413/413/413 416/416/416
f 417/417/417 418/418/418 413/413/413
f 410/410/410 413/413/413 418/418/418
f 419/419/419 410/410/410 418/418/418
f 419/419/419 418/418/418 420/420/420
f 421/421/421 423/423/423 422/422/422
f 421/421/421 424/424/424 423/423/423
f 424/424/424 421/421/421 425/425/425
f 424/424/424 425/425/425 426/426/426
f 427/427/427 423/423/423 424/424/424
f 428/428/428 423/423/423 427/427/427
f 427/427/427 424/424/424 429/429/429
f 426/426/426 429/429/429 424/424/424
f 429/429/429 430/430/430 427/427/427
f 429/429/429 431/431/431 430/430/430
f 431/431/431 429/429/429 426/426/426
f 431/431/431 426/426/426 432/432/432
f 433/433/433 435/435/435 434/434/434
f 435/435/435 436/436/436 434/434/434
f 435/435/435 437/437/437 436/436/436
f 438/438/438 436/436/436 437/437/437
f 436/436/436 438/438/438 439/439/439
f 434/434/434 436/436/436 440/440/440
f 436/436/436 439/439/439 440/440/440
f 439/439/439 441/441/441 440/440/440
f 434/434/434 440/440/440 442/442/442
f 441/441/441 442/442/442 440/440/440
f 441/441/441 443/443/443 442/442/442
f 442/442/442 443/443/443 444/444/444
f 445/445/445 447/447/447 446/446/446
f 446/446/446 447/447/447 448/448/448
f 446/446/446 448/448/448 449/449/449
f 450/450/450 449/449/449 448/448/448
f 449/449/449 450/450/450 451/451/451
f 449/449/449 452/452/452 446/446/446
f 449/449/449 451/451/451 453/453/453
f 449/449/449 453/453/453 452/452/452
f 451/451/451 454/454/454 453/453/453
f 455/455/455 453/453/453 454/454/454
f 455/455/455 452/452/452 453/453/453
f 452/452/452 455/455/455 456/456/456
f 457/457/457 459/459/459 458/458/458
f 457/457/457 460/460/460 459/459/459
f 459/459/459 460/460/460 461/461/461
f 459/459/459 461/461/461 462/462/462
f 463/463/463 459/459/459 462/462/462
f 463/463/463 462/462/462 464/464/464
f 465/465/465 462/462/462 461/461/461
f 465/465/465 466/466/466 462/462/462
f 460/460/460 467/467/467 461/461/461
f 468/468/468 461/461/461 467/467/467
f 468/468/468 469/469/469 461/461/461
f 460/460/460 470/470/470 467/467/467
f 471/471/471 467/467/467 470/470/470
f 471/471/471 470/470/470 472/472/472
f 470/470/470 473/473/473 472/472/472
f 473/473/473 470/470/470 460/460/460
f 473/473/473 460/460/460 474/474/474
f 475/475/475 477/477/477 476/476/476
f 475/475/475 476/476/476 478/478/478
f 476/476/476 479/479/479 478/478/478
f 476/476/476 480/480/480 479/479/479
f 481/481/481 478/478/478 479/479/479
f 479/479/479 480/480/480 482/482/482
f 481/481/481 479/479/479 483/483/483
f 479/479/479 482/482/482 483/483/483
f 484/484/484 481/481/481 483/483/483
f 483/483/483 482/482/482 485/485/485
f 484/484/484 483/483/483 486/486/486
f 483/483/483 485/485/485 486/486/486
f 487/487/487 489/489/489 488/488/488
f 487/487/487 488/488/488 490/490/490
f 490/490/490 491/491/491 487/487/487
f 490/490/490 492/492/492 491/491/491
f 493/493/493 491/491/491 492/492/492
f 494/494/494 487/487/487 491/491/491
f 494/494/494 495/495/495 487/487/487
f 496/496/496 495/495/495 494/494/494
f 496/496/496 494/494/494 497/497/497
f 493/493/493 498/498/498 491/491/491
f 491/491/491 498/498/498 494/494/494
f 498/498/498 497/497/497 494/494/494
f 498/498/498 493/493/493 499/499/499
f 498/498/498 500/500/500 497/497/497
f 498/498/498 499/499/499 500/500/500
f 501/501/501 503/503/503 502/502/502
f 504/504/504 502/502/502 503/503/503
f 501/501/501 505/505/505 503/503/503
f 504/504/504 503/503/503 506/506/506
f 507/507/507 504/504/504 506/506/506
f 507/507/507 506/506/506 508/508/508
f 509/509/509 505/505/505 501/501/501
f 509/509/509 510/510/510 505/505/505
f 511/511/511 507/507/507 508/508/508
f 511/511/511 508/508/508 512/512/512
f 509/509/509 513/513/513 510/510/510
f 511/511/511 512/512/512 513/513/513
f 509/509/509 514/514/514 513/513/513
f 511/511/511 513/513/513 514/514/514
f 515/515/515 517/517/517 516/516/516
f 518/518/518 516/516/516 517/517/517
f 518/518/518 517/517/517 519/519/519
f 520/520/520 518/518/518 519/519/519
f 520/520/520 519/519/519 521/521/521
f 521/521/521 519/519/519 517/517/517
f 520/520/520 521/521/521 522/522/522
f 522/522/522 521/521/521 517/517/517
f 520/520/520 522/522/522 523/523/523
f 524/524/524 523/523/523 522/522/522
f 524/524/524 522/522/522 525/525/525
f 515/515/515 524/524/524 525/525/525
f 525/525/525 522/522/522 517/517/517
f 515/515/515 525/525/525 526/526/526
f 517/517/517 526/526/526 525/525/525
f 515/515/515 526/526/526 517/517/517
f 527/527/527 529/529/529 528/528/528
f 530/530/530 528/528/528 529/529/529
f 527/527/527 531/531/531 529/529/529
f 532/532/532 531/531/531 527/527/527
f 530/530/530 529/529/529 533/533/533
f 530/530/530 533/533/533 534/534/534
f 534/534/534 533/533/533 529/529/529
f 529/529/529 531/531/531 534/534/534
f 530/530/530 534/534/534 535/535/535
f 532/532/532 536/536/536 531/531/531
f 531/531/531 536/536/536 534/534/534
f 535/535/535 534/534/534 537/537/537
f 536/536/536 537/537/537 534/534/534
f 532/532/532 537/537/537 536/536/536
f 535/535/535 537/537/537 538/538/538
f 532/532/532 538/538/538 537/537/537
f 539/539/539 541/541/541 540/540/540
f 542/542/542 540/540/540 541/541/541
f 539/539/539 543/543/543 541/541/541
f 544/544/544 543/543/543 539/539/539
f 542/542/542 541/541/541 545/545/545
f 545/545/545 541/541/541 543/543/543
f 546/546/546 542/542/542 545/545/545
f 546/546/546 545/545/545 547/547/547
f 548/548/548 547/547/547 545/545/545
f 544/544/544 549/549/549 543/543/543
f 543/543/543 549/549/549 545/545/545
f 549/549/549 548/548/548 545/545/545
f 550/550/550 549/549/549 544/544/544
f 550/550/550 548/548/548 549/549/549
f 551/551/551 553/553/553 552/552/552
f 554/554/554 552/552/552 553/553/553
f 551/551/551 555/555/555 553/553/553
f 556/556/556 555/555/555 551/551/551
f 554/554/554 553/553/553 557/557/557
f 558/558/558 554/554/554 557/557/557
f 559/559/559 557/557/557 553/553/553
f 558/558/558 557/557/557 559/559/559
f 553/553/553 555/555/555 559/559/559
f 560/560/560 558/558/558 559/559/559
f 556/556/556 561/561/561 555/555/555
f 560/560/560 561/561/561 556/556/556
f 555/555/555 561/561/561 559/559/559
f 560/560/560 559/559/559 562/562/562
f 561/561/561 562/562/562 559/559/559
f 560/560/560 562/562/562 561/561/561
f 563/563/563 565/565/565 564/564/564
f 566/566/566 564/564/564 565/565/565
f 563/563/563 567/567/567 565/565/565
f 568/568/568 567/567/567 563/563/563
f 566/566/566 565/565/565 569/569/569
f 570/570/570 566/566/566 569/569/569
f 568/568/568 571/571/571 567/567/567
f 572/572/572 571/571/571 568/568/568
f 565/565/565 567/567/567 573/573/573
f 567/567/567 571/571/571 573/573/573
f 569/569/569 565/565/565 573/573/573
f 572/572/572 573/573/573 571/571/571
f 570/570/570 569/569/569 574/574/574
f 572/572/572 570/570/570 574/574/574
f 573/573/573 574/574/574 569/569/569
f 572/572/572 574/574/574 573/573/573
f 575/575/575 577/577/577 576/576/576
f 578/578/578 576/576/576 577/577/577
f 575/575/575 579/579/579 577/577/577
f 580/580/580 579/579/579 575/575/575
f 578/578/578 577/577/577 581/581/581
f 581/581/581 577/577/577 579/579/579
f 582/582/582 578/578/578 581/581/581
f 580/580/580 583/583/583 579/579/579
f 583/583/583 581/581/581 579/579/579
f 584/584/584 583/583/583 580/580/580
f 584/584/584 585/585/585 583/583/583
f 582/582/582 585/585/585 584/584/584
f 583/583/583 585/585/585 581/581/581
f 582/582/582 581/581/581 586/586/586
f 585/585/585 586/586/586 581/581/581
f 582/582/582 586/586/586 585/585/585
f 587/587/587 589/589/589 588/588/588
f 590/590/590 588/588/588 589/589/589
f 587/587/587 591/591/591 589/589/589
f 592/592/592 591/591/591 587/587/587
f 590/590/590 589/589/589 593/593/593
f 594/594/594 590/590/590 593/593/593
f 595/595/595 593/593/593 589/589/589
f 589/589/589 591/591/591 595/595/595
f 594/594/594 593/593/593 595/595/595
f 592/592/592 596/596/596 591/591/591
f 591/591/591 596/596/596 595/595/595
f 597/597/597 596/596/596 592/592/592
f 594/594/594 598/598/598 597/597/597
f 594/594/594 595/595/595 598/598/598
f 596/596/596 598/598/598 595/595/595
f 597/597/597 598/598/598 596/596/596
f 599/599/599 601/601/601 600/600/600
f 602/602/602 600/600/600 601/601/601
f 599/599/599 603/603/603 601/601/601
f 604/604/604 603/603/603 599/599/599
f 604/604/604 605/605/605 603/603/603
f 601/601/601 603/603/603 605/605/605
f 606/606/606 605/605/605 604/604/604
f 606/606/606 607/607/607 605/605/605
f 605/605/605 607/607/607 601/601/601
f 608/608/608 607/607/607 606/606/606
f 602/602/602 601/601/601 609/609/609
f 608/608/608 602/602/602 609/609/609
f 607/607/607 610/610/610 601/601/601
f 608/608/608 610/610/610 607/607/607
f 608/608/608 609/609/609 610/610/610
f 610/610/610 609/609/609 601/601/601
f 611/611/611 613/613/613 612/612/612
f 614/614/614 612/612/612 613/613/613
f 611/611/611 615/615/615 613/613/613
f 616/616/616 615/615/615 611/611/611
f 614/614/614 613/613/613 617/617/617
f 617/617/617 613/613/613 615/615/615
f 618/618/618 614/614/614 617/617/617
f 616/616/616 619/619/619 615/615/615
f 615/615/615 619/619/619 617/617/617
f 616/616/616 620/620/620 619/619/619
f 619/619/619 620/620/620 617/617/617
f 616/616/616 621/621/621 620/620/620
f 618/618/618 617/617/617 622/622/622
f 620/620/620 622/622/622 617/617/617
f 621/621/621 622/622/622 620/620/620
f 621/621/621 618/618/618 622/622/622
