mtllib P_RockDesert_CliffHalf01.mtl
v 17.8663 15.70979 9.933018
v 14.20509 13.60417 12.4077
v 15.10444 14.60002 13.55232
v 9.5508 6.03284 9.314519
v 10.94387 6.249396 6.539883
v 9.564296 3.91251 5.954894
v -14.2094 16.05563 14.55555
v -14.40257 15.79812 11.41074
v -14.11236 16.52431 14.62485
v -19.99271 16.26919 0.01406907
v -20.29614 16.82793 -1.451622
v -20.01361 17.39524 0.006935231
v 2.418814 16.24323 -20.6554
v 3.871561 16.66934 -20.81234
v 2.469956 17.00354 -20.59257
v -9.784373 17.27805 -17.38486
v -11.02197 16.9395 -16.84745
v -9.953273 16.56445 -17.26707
v -9.953273 16.56445 -17.26707
v -4.085135 16.27264 -20.39867
v -4.08223 16.96692 -20.26468
v 2.418814 16.24323 -20.6554
v 2.469956 17.00354 -20.59257
v -3.854428 17.62785 -19.18519
v -9.342224 17.85203 -17.00779
v 2.563857 17.61851 -19.94056
v 3.871561 16.66934 -20.81234
v -4.607242 17.63301 -13.11618
v 2.858024 17.66477 -14.56029
v 9.150449 17.61317 -19.35632
v 10.97923 17.69918 -13.29407
v 2.334807 17.96522 -6.94151
v 11.35607 17.97752 -7.167646
v -10.49602 17.62244 -11.03888
v -5.340667 17.81969 -6.798229
v 17.53537 17.69904 -12.00244
v 18.75608 17.89232 -6.356993
v 9.670676 18.19937 -0.3270641
v 1.723557 18.19937 0.07890227
v 17.05022 18.02669 -0.2595254
v 9.315543 16.50001 -20.14676
v 15.17042 17.43252 -17.44905
v 24.10381 17.59802 -5.446605
v 22.23976 17.5561 -0.2591491
v 22.44277 16.88307 0.09505791
v 18.88421 17.69059 5.145992
v 24.57426 16.69021 -5.574304
v 24.25499 16.35012 -4.24596
v 24.46952 15.73621 -5.570652
v 13.23949 18.0926 5.253624
v 22.89375 17.60001 -10.24598
v 7.356679 18.27345 5.659482
v 23.71157 16.68744 -10.70151
v 24.57426 16.69021 -5.574304
v 23.72867 15.82441 -10.76136
v 22.60539 14.10481 -5.211858
v 22.17458 14.50483 -10.2219
v 22.98573 16.3393 -12.23988
v 19.77524 17.4218 -14.33654
v 22.98573 16.3393 -12.23988
v 23.71157 16.68744 -10.70151
v 20.77375 16.47965 -14.91285
v 15.70121 16.55939 -18.06874
v 14.4621 15.1029 -17.20333
v 9.041367 15.28891 -19.36321
v 8.447124 12.44894 -18.39157
v 13.39023 12.22268 -15.84612
v 2.408923 12.73797 -19.28563
v 2.418814 16.24323 -20.6554
v 7.804559 8.891702 -15.61203
v 8.78574 8.269279 -14.68783
v 2.081539 9.510069 -16.76636
v 7.042126 8.604011 -15.11377
v 2.037194 9.165693 -16.12303
v 17.59992 12.32218 -12.87041
v 19.24634 15.12023 -14.12852
v 13.456 8.045987 -10.94267
v 10.14851 7.954281 -13.74012
v 20.47964 11.77921 -9.409094
v 22.17458 14.50483 -10.2219
v 17.36162 9.719432 -8.155731
v 10.01217 7.606993 -13.18395
v 8.78574 8.269279 -14.68783
v 13.39023 12.22268 -15.84612
v 7.395164 8.411813 -13.975
v 9.794368 6.800919 -12.8374
v 12.94735 7.333664 -10.41063
v 17.36162 9.719432 -8.155731
v 7.349597 8.248294 -13.82287
v 7.050546 7.08306 -13.15303
v 1.955139 8.723372 -14.3594
v 1.99157 9.055148 -14.66797
v 1.953126 7.303049 -13.69453
v -1.879694 6.743307 -13.43066
v 5.851012 5.806684 -12.04205
v -1.889742 8.410425 -14.2072
v -6.83712 7.735293 -11.9941
v -1.942936 8.721994 -14.42852
v -7.293521 9.338873 -12.60826
v -9.707884 7.877816 -9.725375
v -10.69277 10.42938 -10.70114
v 8.697015 5.190391 -11.28447
v 10.941 5.121096 -9.025682
v 11.9738 3.492689 -6.352042
v 15.2073 6.571858 -7.137809
v 3.488425 0.0635214 -9.435841
v 6.096746 -0.1505276 -8.528984
v 8.220786 -0.2731456 -7.142073
v 11.9738 3.492689 -6.352042
v 2.985602 -4.749167 -7.908295
v 5.192889 -4.812807 -7.163429
v 0.4700075 -4.634221 -8.21348
v 0.6373819 0.2897849 -9.748158
v 0.1496677 -8.742325 -7.772106
v 2.782154 -8.894669 -7.202598
v 5.080126 -8.801232 -6.302212
v 6.867762 -4.862592 -5.899411
v 9.257143 -0.3489169 -5.168999
v 7.629958 -4.859469 -4.069281
v 12.41402 3.508733 -3.462275
v 9.201574 -0.356737 -2.746562
v 15.42681 6.554014 -3.837812
v 11.92694 3.563526 -0.2615968
v 15.42681 6.554014 -3.837812
v 14.19692 6.623678 -0.2127382
v 8.915588 -0.5187089 -0.2864272
v 10.75755 3.583654 3.028465
v 7.988101 -0.5494264 2.317017
v 9.564296 3.91251 5.954894
v 7.084787 -0.2875759 4.903493
v 6.934028 -5.23392 2.311595
v 6.585177 -5.018577 4.453424
v 6.093403 -0.2077779 6.992746
v 6.309135 -9.325767 2.958466
v 6.212327 -9.277621 4.872019
v 5.598079 -4.941176 6.321168
v 6.212327 -9.277621 4.872019
v 4.696808 -0.09639583 8.598555
v 5.144975 -9.215053 6.19585
v 4.250961 -4.873993 7.605535
v 3.732432 -9.146197 7.317205
v 2.326803 -4.786638 8.128974
v 2.168588 -8.81646 7.660389
v -0.01634984 -4.607172 8.51417
v -0.1596706 -8.856859 8.16413
v -2.412199 -4.478322 8.647839
v -2.370543 -8.750719 7.966216
v 6.093403 -0.2077779 6.992746
v 6.86055 5.866096 11.46201
v 9.5508 6.03284 9.314519
v 7.084787 -0.2875759 4.903493
v 9.564296 3.91251 5.954894
v 4.171969 9.058497 14.7991
v 8.331401 9.498144 13.31977
v 3.728576 5.013629 12.78761
v 0.1390406 9.001402 15.33009
v 0.3570612 4.804064 13.26881
v -3.951663 9.11535 15.02095
v -3.321015 5.551719 13.38255
v -4.629696 13.4019 17.06406
v 0.2351527 13.2837 16.96139
v 4.171969 9.058497 14.7991
v 4.914072 13.24775 16.34245
v -9.181632 13.72951 15.67407
v -7.774333 10.01598 13.61538
v 0.6199854 14.62873 18.67401
v -4.619843 14.41914 18.99777
v -9.464931 14.79523 17.60177
v -5.182498 15.96122 19.56188
v -4.604146 16.2857 19.59168
v -10.2824 16.38651 18.16345
v -5.26263 16.4567 19.4741
v -10.31373 16.83328 18.05072
v 5.705643 14.55978 18.01098
v 5.829824 16.65669 18.40503
v 0.3374292 16.75866 19.11216
v 10.67753 14.40274 16.44596
v 10.4789 13.12644 14.76068
v 10.74961 16.40634 16.58851
v 0.06796677 18.15069 18.25577
v 5.541437 17.86637 17.61183
v -4.604146 16.2857 19.59168
v -5.182498 15.96122 19.56188
v -5.208891 17.31448 18.80771
v -9.856411 17.67469 17.13384
v -11.93709 17.63099 11.61763
v -6.306641 17.87013 13.00653
v -0.121685 18.64066 12.94875
v -13.21462 17.37416 14.44474
v -14.11236 16.52431 14.62485
v -14.2094 16.05563 14.55555
v -10.2824 16.38651 18.16345
v -13.38975 16.99011 11.39725
v -14.11236 16.52431 14.62485
v -14.40257 15.79812 11.41074
v -14.83818 16.78316 8.48152
v -14.40257 15.79812 11.41074
v -15.69523 15.65677 8.976339
v -18.10076 16.1968 6.623714
v -13.75824 12.70982 7.815359
v -17.51834 17.4164 5.653414
v -16.0202 13.29667 5.364514
v -12.03055 9.898846 7.195223
v -18.83596 15.94769 5.335097
v -13.84891 10.28897 4.284432
v -17.81379 13.91789 -0.8098652
v -15.4027 11.06586 0.04104301
v -13.51875 17.6495 6.015066
v -18.91907 17.06652 5.289822
v -18.83596 15.94769 5.335097
v -19.60779 17.7332 -0.9187465
v -7.179171 17.95447 5.960094
v -20.01361 17.39524 0.006935231
v -19.99271 16.26919 0.01406907
v -18.83596 15.94769 5.335097
v -14.07547 17.64869 -3.523478E-06
v 0.5159811 18.54829 6.135457
v -7.227841 17.929 -0.01480412
v 5.424149 18.18585 11.70549
v 10.49324 17.12539 16.15357
v 15.46636 16.06477 13.64893
v 15.10444 14.60002 13.55232
v 10.4789 13.12644 14.76068
v 14.20509 13.60417 12.4077
v 17.8663 15.70979 9.933018
v 14.99633 16.94015 12.91777
v 11.48758 17.92144 10.40881
v 17.64373 16.99969 9.362951
v -13.30041 17.64433 -6.035062
v 19.08488 16.81316 5.43053
v -19.05612 17.7301 -5.115894
v -17.10087 17.67987 -9.889027
v 15.83996 13.03651 9.139149
v 14.20509 13.60417 12.4077
v 13.324 9.653305 7.869065
v 11.66639 9.821967 11.39887
v 16.92813 13.43438 4.78083
v 19.83749 13.61402 -0.08518942
v 21.45301 12.27271 -4.991062
v 22.17458 14.50483 -10.2219
v -19.7886 16.82091 -5.322353
v -20.29614 16.82793 -1.451622
v -20.01361 17.39524 0.006935231
v -17.2158 13.77997 -4.610629
v -15.68792 13.68473 -9.074429
v -17.93183 16.73468 -10.30733
v -13.02335 17.67629 -13.17504
v -11.02197 16.9395 -16.84745
v -9.784373 17.27805 -17.38486
v -14.00798 16.74792 -14.22917
v -12.38276 13.59979 -12.48425
v -15.68792 13.68473 -9.074429
v -13.18903 10.61494 -7.603091
v -10.69277 10.42938 -10.70114
v -14.643 10.73903 -3.898906
v -17.2158 13.77997 -4.610629
v -11.02197 16.9395 -16.84745
v -14.00798 16.74792 -14.22917
v -9.953273 16.56445 -17.26707
v -8.994092 13.06511 -15.23021
v -3.527972 12.84369 -19.07337
v -4.085135 16.27264 -20.39867
v 2.408923 12.73797 -19.28563
v -2.183931 9.143413 -16.88133
v -3.909708 8.995611 -15.24378
v -10.69277 10.42938 -10.70114
v -8.994092 13.06511 -15.23021
v -12.38276 13.59979 -12.48425
v -14.643 10.73903 -3.898906
v -17.81379 13.91789 -0.8098652
v -20.29614 16.82793 -1.451622
v -19.99271 16.26919 0.01406907
v -17.81379 13.91789 -0.8098652
v -18.83596 15.94769 5.335097
v -16.0202 13.29667 5.364514
v 24.46952 15.73621 -5.570652
v 24.25499 16.35012 -4.24596
v 24.57426 16.69021 -5.574304
v 23.71157 16.68744 -10.70151
v 22.98573 16.3393 -12.23988
v 23.72867 15.82441 -10.76136
v 7.042126 8.604011 -15.11377
v 8.78574 8.269279 -14.68783
v 7.804559 8.891702 -15.61203
v 21.45301 12.27271 -4.991062
v 20.47964 11.77921 -9.409094
v 18.45266 10.36767 -4.518162
v 19.83749 13.61402 -0.08518942
v 15.42681 6.554014 -3.837812
v 17.39519 10.20882 -0.06605992
v 16.92813 13.43438 4.78083
v 14.19692 6.623678 -0.2127382
v 14.72233 10.17639 4.134146
v 15.83996 13.03651 9.139149
v 13.324 9.653305 7.869065
v 12.20916 6.546368 3.316498
v 10.75755 3.583654 3.028465
v 11.92694 3.563526 -0.2615968
v 9.564296 3.91251 5.954894
v 10.94387 6.249396 6.539883
v 11.66639 9.821967 11.39887
v 8.331401 9.498144 13.31977
v 6.86055 5.866096 11.46201
v 10.4789 13.12644 14.76068
v 14.20509 13.60417 12.4077
v 4.171969 9.058497 14.7991
v -7.774333 10.01598 13.61538
v -12.22315 13.35647 12.50656
v -9.181632 13.72951 15.67407
v -10.2572 9.912468 10.44964
v -6.572273 6.51735 12.02246
v -3.951663 9.11535 15.02095
v -12.65453 12.8364 9.796682
v -8.701284 6.896708 9.231215
v -12.03055 9.898846 7.195223
v -10.40885 6.472303 5.639742
v -4.706491 0.3925334 8.419764
v -6.290033 -0.1946191 6.223309
v -2.608144 0.4241875 9.676279
v -3.321015 5.551719 13.38255
v -0.01692504 0.100615 9.983904
v 0.3570612 4.804064 13.26881
v 2.566172 -0.005006757 9.618017
v 3.728576 5.013629 12.78761
v 4.696808 -0.09639583 8.598555
v -13.75824 12.70982 7.815359
v -14.40257 15.79812 11.41074
v -15.69523 15.65677 8.976339
v -13.45315 14.75254 13.92824
v -14.2094 16.05563 14.55555
v -10.2824 16.38651 18.16345
v -9.464931 14.79523 17.60177
v -9.464931 14.79523 17.60177
v 4.250961 -4.873993 7.605535
v 4.696808 -0.09639583 8.598555
v 2.326803 -4.786638 8.128974
v -0.01634984 -4.607172 8.51417
v -2.412199 -4.478322 8.647839
v -4.627329 -4.430289 7.839251
v -4.561507 -8.718324 6.872056
v -6.265558 -5.379944 6.010149
v -6.230918 -8.672219 5.264733
v -7.949775 0.3147444 3.638259
v -7.31226 -5.564822 3.626855
v -7.941002 0.4688676 2.88069
v -7.949775 0.3147444 3.638259
v -7.239267 -5.53942 3.168185
v -7.949775 0.3147444 3.638259
v -10.40885 6.472303 5.639742
v -8.701284 6.896708 9.231215
v -7.949775 0.3147444 3.638259
v -10.42722 6.733285 4.817381
v -7.941002 0.4688676 2.88069
v -6.80153 -8.839173 3.797652
v -7.161127 -8.827411 2.481068
v -7.31226 -5.564822 3.626855
v -7.161127 -8.827411 2.481068
v -8.317046 -5.239908 2.61461
v -8.219998 -8.572425 1.164642
v -7.924014 -4.370038 -4.518657
v -6.373784 -4.527433 -6.132674
v -7.268457 0.9621818 -6.97013
v -8.84535 1.113469 -4.899474
v -9.707884 7.877816 -9.725375
v -6.83712 7.735293 -11.9941
v -5.080336 0.7521423 -8.44696
v -1.879694 6.743307 -13.43066
v -2.34581 0.5096111 -9.378801
v -4.330949 -4.542093 -7.193072
v 1.953126 7.303049 -13.69453
v -2.101346 -4.510485 -7.911485
v -11.88805 7.975179 -6.826972
v -10.69277 10.42938 -10.70114
v -13.18903 10.61494 -7.603091
v -8.87798 -4.317101 -2.315818
v -9.804586 0.8847145 -2.336651
v -8.967732 -5.008748 0.2741403
v -9.832644 0.6309582 1.013257
v -8.317046 -5.239908 2.61461
v -7.776965 -8.730397 -3.052413
v -6.649729 -8.977906 -4.8991
v -8.940775 0.5411201 2.399392
v -7.239267 -5.53942 3.168185
v -7.941002 0.4688676 2.88069
v -6.649729 -8.977906 -4.8991
v -6.373784 -4.527433 -6.132674
v -4.840384 -8.884225 -6.368037
v -8.219998 -8.572425 1.164642
v -8.967732 -5.008748 0.2741403
v -8.40227 -8.571315 -0.9391459
v -8.87798 -4.317101 -2.315818
v -8.967732 -5.008748 0.2741403
v -9.832644 0.6309582 1.013257
v -13.62383 8.020342 0.1325748
v -12.17768 7.248978 3.33911
v -15.4027 11.06586 0.04104301
v -13.84891 10.28897 4.284432
v -14.643 10.73903 -3.898906
v -10.42722 6.733285 4.817381
v -10.40885 6.472303 5.639742
v -13.24401 8.039663 -3.462756
v -9.832644 0.6309582 1.013257
v -9.804586 0.8847145 -2.336651
v -7.941002 0.4688676 2.88069
v -12.17768 7.248978 3.33911
v -8.940775 0.5411201 2.399392
v -14.643 10.73903 -3.898906
v -11.88805 7.975179 -6.826972
v -9.804586 0.8847145 -2.336651
v 7.629958 -4.859469 -4.069281
v 9.201574 -0.356737 -2.746562
v 9.257143 -0.3489169 -5.168999
v 6.95027 -4.90549 -2.141731
v 8.915588 -0.5187089 -0.2864272
v 7.326169 -5.181664 0.3395926
v 6.934028 -5.23392 2.311595
v 8.915588 -0.5187089 -0.2864272
v -6.373784 -4.527433 -6.132674
v -4.330949 -4.542093 -7.193072
v -5.080336 0.7521423 -8.44696
v -7.268457 0.9621818 -6.97013
v -1.517031 -8.346094 -7.820056
v 0.1496677 -8.742325 -7.772106
v -2.101346 -4.510485 -7.911485
v -3.094557 -8.450184 -7.273284
v -2.101346 -4.510485 -7.911485
v -4.330949 -4.542093 -7.193072
v -3.165758 -8.92802 -6.872012
v -5.917358 -9.386323 -5.052272
v -4.005444 -9.369603 -5.988833
v -4.535266 -9.201447 -6.153281
v -6.649729 -8.977906 -4.8991
v -4.840384 -8.884225 -6.368037
v -3.094557 -8.450184 -7.273284
v -3.165758 -8.92802 -6.872012
v -1.49798 -8.795992 -7.432757
v -1.517031 -8.346094 -7.820056
v -4.005444 -9.369603 -5.988833
v 0.1735553 -9.184843 -7.349566
v 0.1496677 -8.742325 -7.772106
v -1.656996 -9.288517 -6.467528
v 2.818655 -9.340071 -6.750923
v 2.782154 -8.894669 -7.202598
v 0.2851848 -9.600657 -6.236785
v 3.291945 -9.755488 -5.599185
v 0.3154373 -9.949617 -5.289955
v -1.772059 -9.811388 -5.702098
v 3.039713 -10.20724 -4.376674
v -2.350353 -9.766321 -3.536475
v 0.3373758 -9.96843 -3.213012
v -3.543175 -9.603562 -5.466273
v -4.239288 -9.5377 -3.505229
v -5.56092 -9.56001 -3.461509
v -7.18133 -9.225957 -3.1785
v -5.917358 -9.386323 -5.052272
v -7.776965 -8.730397 -3.052413
v -6.649729 -8.977906 -4.8991
v -4.998996 -9.662681 -0.8019211
v -6.332742 -9.338571 -1.066915
v -6.296142 -9.437245 1.493035
v -7.832119 -9.046426 1.102783
v -7.816407 -9.0274 -1.082973
v -8.219998 -8.572425 1.164642
v -8.40227 -8.571315 -0.9391459
v -7.18133 -9.225957 -3.1785
v -8.40227 -8.571315 -0.9391459
v -7.776965 -8.730397 -3.052413
v -3.024816 -9.939287 -0.5096543
v -5.304261 -9.675843 1.771333
v -0.1666618 -10.06471 -0.1191631
v -4.326541 -9.759825 2.550851
v -4.357042 -9.548057 2.736726
v 3.074127 -10.4223 -2.643705
v 4.940004 -10.04231 -3.351135
v -1.173582 -9.86883 4.14148
v -1.256838 -10.02474 3.975055
v 2.684904 -10.35551 0.3786165
v 5.140166 -10.28079 -1.477279
v 5.60783 -9.778415 -4.660316
v 5.10957 -9.291671 -5.771881
v 2.818655 -9.340071 -6.750923
v 5.080126 -8.801232 -6.302212
v 5.635375 -9.786246 -1.426392
v 6.730362 -9.527189 -3.340904
v 5.181084 -10.4574 0.5841599
v 1.518397 -10.44558 3.85459
v 6.387428 -9.72082 -1.231279
v 7.153127 -9.084521 -3.24192
v 6.779328 -9.267219 -1.254082
v 1.607035 -9.95569 4.04716
v 4.470773 -9.912982 3.180148
v 4.237395 -10.48598 3.152836
v 5.562071 -9.949744 0.5592728
v 5.733423 -9.932249 0.5739365
v 6.387428 -9.72082 -1.231279
v 6.372849 -9.792171 0.9518319
v 6.779328 -9.267219 -1.254082
v 6.809222 -9.338447 0.85417
v 4.727283 -9.896537 3.168065
v 5.840029 -9.775424 3.079089
v 6.809222 -9.338447 0.85417
v 6.309135 -9.325767 2.958466
v 4.449645 -9.899524 3.376288
v 5.647546 -9.721449 5.016579
v 5.840029 -9.775424 3.079089
v 6.309135 -9.325767 2.958466
v 6.212327 -9.277621 4.872019
v 3.807044 -9.791953 5.610773
v 1.573022 -9.939672 4.266575
v -1.179175 -9.861494 4.376261
v 1.972812 -9.574621 5.978087
v -4.463329 -9.552073 3.113403
v -0.7276535 -9.662367 5.989277
v 2.041476 -9.327337 7.264536
v 3.646464 -9.651927 6.851978
v 3.732432 -9.146197 7.317205
v 2.168588 -8.81646 7.660389
v -0.3429926 -9.340685 7.735039
v -0.1596706 -8.856859 8.16413
v -2.603827 -9.223364 7.394764
v -2.370543 -8.750719 7.966216
v -3.374862 -9.517831 5.31213
v -4.850263 -9.170957 6.140656
v -4.561507 -8.718324 6.872056
v -5.172214 -9.381383 4.041804
v -5.808909 -9.117208 4.998807
v -6.230918 -8.672219 5.264733
v -6.278105 -9.359677 3.672614
v -6.80153 -8.839173 3.797652
v -6.658404 -9.324662 2.396601
v -7.832119 -9.046426 1.102783
v -6.278105 -9.359677 3.672614
v -8.219998 -8.572425 1.164642
v -6.80153 -8.839173 3.797652
v -7.161127 -8.827411 2.481068
v 5.647546 -9.721449 5.016579
v 3.807044 -9.791953 5.610773
v 3.646464 -9.651927 6.851978
v 4.858294 -9.595937 5.991846
v 6.212327 -9.277621 4.872019
v 5.144975 -9.215053 6.19585
v -6.230918 -8.672219 5.264733
v -6.80153 -8.839173 3.797652
v -7.31226 -5.564822 3.626855
v -6.265558 -5.379944 6.010149
v 7.153127 -9.084521 -3.24192
v 6.95027 -4.90549 -2.141731
v 7.629958 -4.859469 -4.069281
v 6.779328 -9.267219 -1.254082
v 7.326169 -5.181664 0.3395926
v 6.809222 -9.338447 0.85417
v 6.309135 -9.325767 2.958466
v -4.840384 -8.884225 -6.368037
v -3.094557 -8.450184 -7.273284
v -4.330949 -4.542093 -7.193072
v -6.373784 -4.527433 -6.132674
v 6.395615 -8.957929 -4.817417
v 7.153127 -9.084521 -3.24192
v 7.629958 -4.859469 -4.069281
v 6.867762 -4.862592 -5.899411
v 5.080126 -8.801232 -6.302212
v 6.867762 -4.862592 -5.899411
v 6.395615 -8.957929 -4.817417
v 6.730362 -9.527189 -3.340904
v 7.153127 -9.084521 -3.24192
v 6.152719 -9.36317 -4.553467
v 5.60783 -9.778415 -4.660316
v 5.10957 -9.291671 -5.771881
v -7.293521 9.338873 -12.60826
v -1.942936 8.721994 -14.42852
v -3.909708 8.995611 -15.24378
v -2.041008 8.792894 -16.28266
v -1.942936 8.721994 -14.42852
v 7.395164 8.411813 -13.975
v 2.037194 9.165693 -16.12303
v 1.99157 9.055148 -14.66797
v 7.042126 8.604011 -15.11377
v 8.78574 8.269279 -14.68783
v -2.183931 9.143413 -16.88133
v 2.081539 9.510069 -16.76636
v -2.041008 8.792894 -16.28266
v -3.909708 8.995611 -15.24378
v 2.081539 9.510069 -16.76636
v -3.527972 12.84369 -19.07337
v -2.183931 9.143413 -16.88133
v 0.6373819 0.2897849 -9.748158
v 3.488425 0.0635214 -9.435841
v 1.953126 7.303049 -13.69453
v -4.604146 16.2857 19.59168
v 0.6199854 14.62873 18.67401
v -4.619843 14.41914 18.99777
v 19.24634 15.12023 -14.12852
v 22.17458 14.50483 -10.2219
v 22.98573 16.3393 -12.23988
v 20.77375 16.47965 -14.91285
v 19.24634 15.12023 -14.12852
v 15.70121 16.55939 -18.06874
vn 0.9096451 -0.1357631 0.3925739
vn 0.5573407 -0.6961923 0.4524242
vn 0.6211525 -0.5210998 0.5853415
vn 0.6477248 -0.5784957 0.4957775
vn 0.7678988 -0.5610377 0.3091411
vn 0.7733802 -0.5311125 0.3461251
vn -0.8867819 -0.2009749 0.4162054
vn -0.9657281 0.01833566 0.2589075
vn -0.8170951 0.446276 0.3649566
vn -0.9043384 -0.4135816 0.1054629
vn -0.9967188 -0.01216433 -0.0800226
vn -0.8149348 0.5580958 0.1562382
vn -0.04679631 -0.150588 -0.9874884
vn 0.07775974 0.1642409 -0.9833506
vn -0.03865515 0.5009669 -0.8646027
vn -0.443042 0.4851432 -0.7538899
vn -0.6488264 0.1456069 -0.7468755
vn -0.4956334 -0.2929389 -0.8176395
vn -0.4956334 -0.2929389 -0.8176395
vn -0.2729612 -0.1677668 -0.9472837
vn -0.2227006 0.4654987 -0.8565719
vn -0.04679631 -0.150588 -0.9874884
vn -0.03865515 0.5009669 -0.8646027
vn -0.07418716 0.9420933 -0.3270421
vn -0.1839499 0.9392546 -0.2897643
vn 0.008154551 0.9272274 -0.3744099
vn 0.07775974 0.1642409 -0.9833506
vn 0.0004857731 0.9999626 -0.0086336
vn -0.004065158 0.9997494 -0.02201805
vn 0.0999561 0.8911718 -0.4425175
vn 0.01044566 0.9993086 -0.03568322
vn -0.01050853 0.9993241 -0.03522785
vn 0.008077814 0.9993598 -0.03485235
vn -0.0008168011 0.999998 0.001823426
vn -0.02223427 0.999393 -0.0268192
vn 0.03203989 0.998197 -0.05075694
vn 0.03926259 0.99906 -0.01837708
vn 0.01469815 0.9997005 -0.01956426
vn -0.01347269 0.9993982 -0.03196389
vn 0.05224888 0.9985965 0.00865942
vn 0.2182965 0.02658714 -0.9755203
vn 0.1957046 0.8860962 -0.4201586
vn 0.5696946 0.8197743 0.05846637
vn 0.5481065 0.7993793 0.2461137
vn 0.8834692 -0.08854853 0.4600448
vn 0.5039456 0.8217422 0.2660424
vn 0.9665627 0.2524936 0.0447616
vn 0.9230068 -0.1222649 0.3648421
vn 0.8912982 -0.4478037 0.07112976
vn 0.06729423 0.9963483 0.05254951
vn 0.4181701 0.8880365 -0.1911149
vn 0.03484121 0.9993831 0.004423953
vn 0.8661993 0.3814897 -0.3227452
vn 0.9665627 0.2524936 0.0447616
vn 0.8332323 -0.4434842 -0.3302208
vn 0.7666408 -0.6276447 0.1353668
vn 0.6427703 -0.6924202 -0.3277203
vn 0.771656 -0.001264133 -0.6360388
vn 0.2832202 0.8993006 -0.3332339
vn 0.771656 -0.001264133 -0.6360388
vn 0.8661993 0.3814897 -0.3227452
vn 0.6691471 0.001933895 -0.7431275
vn 0.4475063 0.002133552 -0.8942782
vn 0.3640514 -0.5816385 -0.7274361
vn 0.214936 -0.4983204 -0.8399281
vn 0.2275804 -0.5146805 -0.8266264
vn 0.4160295 -0.5738987 -0.7053791
vn 0.04280556 -0.48204 -0.8751028
vn -0.04679631 -0.150588 -0.9874884
vn 0.1355741 -0.7301983 -0.6696494
vn 0.0994221 -0.8422002 -0.5299188
vn 0.04886803 -0.7371901 -0.673916
vn -0.06358913 -0.9471744 -0.314352
vn 0.02510724 -0.9522971 -0.3041377
vn 0.5158933 -0.643908 -0.5650103
vn 0.4751185 -0.6596623 -0.5823299
vn 0.5213718 -0.6628692 -0.5373789
vn 0.2399466 -0.8160441 -0.5258305
vn 0.6490543 -0.7046527 -0.2866936
vn 0.6427703 -0.6924202 -0.3277203
vn 0.6151945 -0.7458854 -0.2553245
vn 0.2443054 -0.756956 -0.6060796
vn 0.0994221 -0.8422002 -0.5299188
vn 0.4160295 -0.5738987 -0.7053791
vn -0.0687611 -0.8899174 -0.4509091
vn 0.2937547 -0.650627 -0.7002804
vn 0.5245312 -0.6582441 -0.5399832
vn 0.6151945 -0.7458854 -0.2553245
vn 0.03811657 -0.5870457 -0.808656
vn 0.05160864 -0.5807825 -0.8124213
vn 0.02091262 -0.5628931 -0.8262652
vn 0.003442428 -0.9069031 -0.4213252
vn 0.0335549 -0.4820192 -0.8755178
vn -0.1766429 -0.4682896 -0.8657379
vn 0.1021822 -0.5858007 -0.8039877
vn -0.1565283 -0.5218166 -0.838574
vn -0.4387921 -0.4598499 -0.7720101
vn -0.09975355 -0.8978242 -0.4289066
vn -0.4864532 -0.574625 -0.658156
vn -0.6326643 -0.4739704 -0.6124442
vn -0.5969958 -0.5690491 -0.5654902
vn 0.3126648 -0.6484652 -0.6940704
vn 0.5209839 -0.6546779 -0.5476977
vn 0.6817417 -0.6623033 -0.3107775
vn 0.6677712 -0.6785349 -0.3060591
vn 0.1712999 -0.4047178 -0.8982538
vn 0.3812195 -0.4357758 -0.815335
vn 0.6458924 -0.4724596 -0.5996706
vn 0.6817417 -0.6623033 -0.3107775
vn 0.2201459 -0.2424095 -0.9448668
vn 0.4525234 -0.2749983 -0.8482915
vn 0.01310196 -0.2058632 -0.9784931
vn 0.00481373 -0.4043218 -0.9146041
vn 0.01369445 -0.4269008 -0.9041948
vn 0.2306657 -0.4507848 -0.8623146
vn 0.472451 -0.4320925 -0.7681706
vn 0.742552 -0.297859 -0.5999138
vn 0.8312989 -0.50982 -0.2214173
vn 0.957512 -0.2672876 -0.1082965
vn 0.7573676 -0.6515501 0.04332103
vn 0.8620324 -0.5047672 0.04593653
vn 0.7537182 -0.654175 0.06296027
vn 0.7790974 -0.5811917 0.2349966
vn 0.7537182 -0.654175 0.06296027
vn 0.7435928 -0.5988101 0.2974832
vn 0.8707934 -0.4704763 0.1427262
vn 0.7829154 -0.5294582 0.3266764
vn 0.8739424 -0.3868872 0.294182
vn 0.7733802 -0.5311125 0.3461251
vn 0.8541381 -0.3676311 0.3678254
vn 0.9641563 -0.1543619 0.2158127
vn 0.9314415 -0.1240898 0.3420795
vn 0.7514363 -0.3702117 0.5461564
vn 0.8852333 -0.4386062 0.1548764
vn 0.8584089 -0.4066164 0.3127258
vn 0.7820587 -0.1285557 0.6098012
vn 0.8584089 -0.4066164 0.3127258
vn 0.5156882 -0.3973818 0.7590477
vn 0.6703025 -0.3764491 0.6395159
vn 0.5006303 -0.1722641 0.848348
vn 0.3578385 -0.4070259 0.8404056
vn 0.2214008 -0.1925308 0.9559883
vn 0.1658774 -0.3812773 0.9094572
vn 0.06002001 -0.1969833 0.9785679
vn 0.06455715 -0.4106285 0.9095145
vn -0.2278567 -0.1829707 0.9563488
vn -0.2141948 -0.4298264 0.8771373
vn 0.7514363 -0.3702117 0.5461564
vn 0.4667011 -0.5337003 0.7052333
vn 0.6477248 -0.5784957 0.4957775
vn 0.8541381 -0.3676311 0.3678254
vn 0.7733802 -0.5311125 0.3461251
vn 0.2330025 -0.433127 0.8706956
vn 0.403824 -0.5098844 0.7595684
vn 0.2709164 -0.5109828 0.8157824
vn 0.03746492 -0.4095314 0.9115264
vn 0.01970291 -0.5133229 0.8579693
vn -0.223708 -0.4549977 0.8619349
vn -0.2630714 -0.514209 0.8163226
vn -0.1492423 -0.6992378 0.6991375
vn 0.04906068 -0.6290885 0.775784
vn 0.2330025 -0.433127 0.8706956
vn 0.1609503 -0.626876 0.7623133
vn -0.3833621 -0.736034 0.5579315
vn -0.5134468 -0.5316406 0.6735952
vn 0.08715445 -0.5449053 0.8339558
vn -0.07016472 -0.6243013 0.7780262
vn -0.3522065 -0.6734227 0.6499634
vn -0.1372819 -0.1580627 0.9778394
vn 0.03752812 0.170647 0.9846174
vn -0.4753845 -0.1776212 0.8616613
vn -0.1380156 0.4354286 0.8895806
vn -0.4441296 0.4387057 0.7812082
vn 0.1827347 -0.5092695 0.8409832
vn 0.2377171 0.2137171 0.9475313
vn 0.09481933 0.1979847 0.9756082
vn 0.3674601 -0.5000073 0.7841976
vn 0.3499732 -0.6679043 0.6568277
vn 0.4389011 0.2587073 0.8604861
vn 0.01615029 0.8671504 0.4977846
vn 0.1680677 0.8502678 0.4987966
vn 0.03752812 0.170647 0.9846174
vn -0.1372819 -0.1580627 0.9778394
vn -0.08621491 0.8557925 0.5100845
vn -0.2126858 0.9061566 0.3655747
vn -0.1453997 0.9883258 0.04550792
vn -0.06559085 0.9969468 0.04236653
vn -0.02570615 0.9984328 0.04971144
vn -0.4707953 0.8655767 0.1706714
vn -0.8170951 0.446276 0.3649566
vn -0.8867819 -0.2009749 0.4162054
vn -0.4753845 -0.1776212 0.8616613
vn -0.531123 0.8417619 0.0966716
vn -0.8170951 0.446276 0.3649566
vn -0.9657281 0.01833566 0.2589075
vn -0.4433756 0.8271427 0.3453305
vn -0.9657281 0.01833566 0.2589075
vn -0.7993566 -0.02229493 0.6004432
vn -0.7303786 0.0179012 0.6828079
vn -0.6825544 -0.5901565 0.4310856
vn -0.2722787 0.9102308 0.3120005
vn -0.6978999 -0.6459768 0.3092729
vn -0.7254423 -0.5563772 0.4051886
vn -0.8545521 -0.4010261 0.3300283
vn -0.7524762 -0.5777344 0.3162319
vn -0.7440432 -0.6681089 0.005494215
vn -0.8110681 -0.5824128 0.05444249
vn -0.1035821 0.9920034 0.0721115
vn -0.7631007 0.5285019 0.371972
vn -0.8545521 -0.4010261 0.3300283
vn -0.4087115 0.9123428 -0.02419587
vn -0.0590629 0.9982451 -0.004280265
vn -0.8149348 0.5580958 0.1562382
vn -0.9043384 -0.4135816 0.1054629
vn -0.8545521 -0.4010261 0.3300283
vn -0.0196852 0.9997924 0.005266968
vn -0.01746321 0.9997659 -0.01277477
vn -0.03828212 0.9990759 -0.01953788
vn 0.07704429 0.9955465 0.05432552
vn 0.2843497 0.8372535 0.4670672
vn 0.6943642 0.2124841 0.6875383
vn 0.6211525 -0.5210998 0.5853415
vn 0.3499732 -0.6679043 0.6568277
vn 0.5573407 -0.6961923 0.4524242
vn 0.9096451 -0.1357631 0.3925739
vn 0.4266096 0.815712 0.3906637
vn 0.1068583 0.9891381 0.1009311
vn 0.590462 0.7458435 0.3083379
vn -0.004733821 0.9999523 -0.008536294
vn 0.9172442 -0.1049863 0.3842408
vn -0.4201254 0.9006441 -0.1110624
vn -0.3321669 0.9141939 -0.2321956
vn 0.7384798 -0.6118309 0.2833911
vn 0.5573407 -0.6961923 0.4524242
vn 0.7402808 -0.6089606 0.2848708
vn 0.5945528 -0.5901937 0.5460572
vn 0.7631575 -0.5788761 0.2872159
vn 0.7175159 -0.5900002 0.3702305
vn 0.7243537 -0.6712823 0.1571365
vn 0.6427703 -0.6924202 -0.3277203
vn -0.9703988 0.005944941 -0.2414347
vn -0.9967188 -0.01216433 -0.0800226
vn -0.8149348 0.5580958 0.1562382
vn -0.7323667 -0.6597094 -0.1685897
vn -0.6502945 -0.6523679 -0.3892727
vn -0.8445697 0.05368996 -0.532747
vn -0.2194331 0.9515948 -0.2152125
vn -0.6488264 0.1456069 -0.7468755
vn -0.443042 0.4851432 -0.7538899
vn -0.6750717 0.1303141 -0.7261518
vn -0.5546718 -0.6158127 -0.559566
vn -0.6502945 -0.6523679 -0.3892727
vn -0.7077472 -0.5851771 -0.3958052
vn -0.5969958 -0.5690491 -0.5654902
vn -0.7903162 -0.5825806 -0.1897372
vn -0.7323667 -0.6597094 -0.1685897
vn -0.6488264 0.1456069 -0.7468755
vn -0.6750717 0.1303141 -0.7261518
vn -0.4956334 -0.2929389 -0.8176395
vn -0.5215887 -0.5672307 -0.6373339
vn -0.2704495 -0.5075721 -0.8180634
vn -0.2729612 -0.1677668 -0.9472837
vn 0.04280556 -0.48204 -0.8751028
vn -0.1878282 -0.7297734 -0.6573822
vn -0.3393334 -0.8695601 -0.3587732
vn -0.5969958 -0.5690491 -0.5654902
vn -0.5215887 -0.5672307 -0.6373339
vn -0.5546718 -0.6158127 -0.559566
vn -0.7903162 -0.5825806 -0.1897372
vn -0.7440432 -0.6681089 0.005494215
vn -0.9967188 -0.01216433 -0.0800226
vn -0.9043384 -0.4135816 0.1054629
vn -0.7440432 -0.6681089 0.005494215
vn -0.8545521 -0.4010261 0.3300283
vn -0.6978999 -0.6459768 0.3092729
vn 0.8912982 -0.4478037 0.07112976
vn 0.9230068 -0.1222649 0.3648421
vn 0.9665627 0.2524936 0.0447616
vn 0.8661993 0.3814897 -0.3227452
vn 0.771656 -0.001264133 -0.6360388
vn 0.8332323 -0.4434842 -0.3302208
vn -0.06358913 -0.9471744 -0.314352
vn 0.0994221 -0.8422002 -0.5299188
vn 0.1355741 -0.7301983 -0.6696494
vn 0.7243537 -0.6712823 0.1571365
vn 0.6490543 -0.7046527 -0.2866936
vn 0.68862 -0.7169176 0.1087735
vn 0.7175159 -0.5900002 0.3702305
vn 0.7537182 -0.654175 0.06296027
vn 0.7482437 -0.5873282 0.3085076
vn 0.7631575 -0.5788761 0.2872159
vn 0.7435928 -0.5988101 0.2974832
vn 0.7441097 -0.5929196 0.3078104
vn 0.7384798 -0.6118309 0.2833911
vn 0.7402808 -0.6089606 0.2848708
vn 0.7673769 -0.5511023 0.3277484
vn 0.7829154 -0.5294582 0.3266764
vn 0.7790974 -0.5811917 0.2349966
vn 0.7733802 -0.5311125 0.3461251
vn 0.7678988 -0.5610377 0.3091411
vn 0.5945528 -0.5901937 0.5460572
vn 0.403824 -0.5098844 0.7595684
vn 0.4667011 -0.5337003 0.7052333
vn 0.3499732 -0.6679043 0.6568277
vn 0.5573407 -0.6961923 0.4524242
vn 0.2330025 -0.433127 0.8706956
vn -0.5134468 -0.5316406 0.6735952
vn -0.6532528 -0.6758194 0.3413634
vn -0.3833621 -0.736034 0.5579315
vn -0.7008427 -0.5508268 0.4532211
vn -0.5658913 -0.5103704 0.6475255
vn -0.223708 -0.4549977 0.8619349
vn -0.7399653 -0.5865113 0.3293264
vn -0.7244907 -0.5030199 0.4712581
vn -0.7254423 -0.5563772 0.4051886
vn -0.8819444 -0.4429052 0.1612731
vn -0.6047905 -0.3516773 0.7145289
vn -0.8082212 -0.2483534 0.5339466
vn -0.2774977 -0.4181446 0.8649567
vn -0.2630714 -0.514209 0.8163226
vn 0.01632414 -0.4325476 0.9014633
vn 0.01970291 -0.5133229 0.8579693
vn 0.2519571 -0.4274271 0.8682302
vn 0.2709164 -0.5109828 0.8157824
vn 0.5156882 -0.3973818 0.7590477
vn -0.6825544 -0.5901565 0.4310856
vn -0.9657281 0.01833566 0.2589075
vn -0.7993566 -0.02229493 0.6004432
vn -0.6557758 -0.6672795 0.3531235
vn -0.8867819 -0.2009749 0.4162054
vn -0.4753845 -0.1776212 0.8616613
vn -0.3522065 -0.6734227 0.6499634
vn -0.3522065 -0.6734227 0.6499634
vn 0.5006303 -0.1722641 0.848348
vn 0.5156882 -0.3973818 0.7590477
vn 0.2214008 -0.1925308 0.9559883
vn 0.06002001 -0.1969833 0.9785679
vn -0.2278567 -0.1829707 0.9563488
vn -0.5856848 -0.1364853 0.798965
vn -0.5021847 -0.4410908 0.7438074
vn -0.8118871 -0.1086513 0.573615
vn -0.7551392 -0.4097617 0.5117227
vn -0.9492689 -0.2631776 0.1721222
vn -0.9657163 -0.09909234 0.2399433
vn -0.8560596 -0.2463837 0.4543754
vn -0.9492689 -0.2631776 0.1721222
vn -0.8924404 -0.1412372 0.4284883
vn -0.9492689 -0.2631776 0.1721222
vn -0.8819444 -0.4429052 0.1612731
vn -0.7244907 -0.5030199 0.4712581
vn -0.9492689 -0.2631776 0.1721222
vn -0.8312165 -0.4709343 0.2954659
vn -0.8560596 -0.2463837 0.4543754
vn -0.8470935 -0.4483929 0.2852654
vn -0.7804211 -0.4806053 0.3999518
vn -0.9657163 -0.09909234 0.2399433
vn -0.7804211 -0.4806053 0.3999518
vn -0.7749174 -0.1381824 0.6167728
vn -0.8317426 -0.4475625 0.3284692
vn -0.823489 -0.1795986 -0.5381545
vn -0.6117184 -0.1821691 -0.7698149
vn -0.6465247 -0.3549417 -0.6752942
vn -0.8169565 -0.3369462 -0.4680271
vn -0.6326643 -0.4739704 -0.6124442
vn -0.4387921 -0.4598499 -0.7720101
vn -0.4311851 -0.3793926 -0.8186212
vn -0.1766429 -0.4682896 -0.8657379
vn -0.216482 -0.3988132 -0.8911136
vn -0.4037155 -0.1784679 -0.8973088
vn 0.0335549 -0.4820192 -0.8755178
vn -0.2157191 -0.1806721 -0.9595951
vn -0.7700259 -0.4753386 -0.4255741
vn -0.5969958 -0.5690491 -0.5654902
vn -0.7077472 -0.5851771 -0.3958052
vn -0.954398 -0.1696409 -0.245655
vn -0.9238685 -0.3215724 -0.2075046
vn -0.9829926 -0.1582517 0.09317729
vn -0.9352584 -0.3076807 0.1749978
vn -0.7749174 -0.1381824 0.6167728
vn -0.8307939 -0.482874 -0.2767928
vn -0.700299 -0.4847948 -0.5239803
vn -0.7419032 -0.2707728 0.6134018
vn -0.8924404 -0.1412372 0.4284883
vn -0.8560596 -0.2463837 0.4543754
vn -0.700299 -0.4847948 -0.5239803
vn -0.6117184 -0.1821691 -0.7698149
vn -0.467177 -0.4215545 -0.7771985
vn -0.8317426 -0.4475625 0.3284692
vn -0.9829926 -0.1582517 0.09317729
vn -0.8884342 -0.457443 -0.03782174
vn -0.954398 -0.1696409 -0.245655
vn -0.9829926 -0.1582517 0.09317729
vn -0.9352584 -0.3076807 0.1749978
vn -0.8723262 -0.4808899 0.08827242
vn -0.7589153 -0.5000923 0.4170794
vn -0.8110681 -0.5824128 0.05444249
vn -0.7524762 -0.5777344 0.3162319
vn -0.7903162 -0.5825806 -0.1897372
vn -0.8312165 -0.4709343 0.2954659
vn -0.8819444 -0.4429052 0.1612731
vn -0.855206 -0.4742074 -0.2091655
vn -0.9352584 -0.3076807 0.1749978
vn -0.9238685 -0.3215724 -0.2075046
vn -0.8560596 -0.2463837 0.4543754
vn -0.7589153 -0.5000923 0.4170794
vn -0.7419032 -0.2707728 0.6134018
vn -0.7903162 -0.5825806 -0.1897372
vn -0.7700259 -0.4753386 -0.4255741
vn -0.9238685 -0.3215724 -0.2075046
vn 0.957512 -0.2672876 -0.1082965
vn 0.8620324 -0.5047672 0.04593653
vn 0.8312989 -0.50982 -0.2214173
vn 0.9725841 -0.219768 0.07604104
vn 0.8707934 -0.4704763 0.1427262
vn 0.9743418 -0.2085159 0.08473018
vn 0.9641563 -0.1543619 0.2158127
vn 0.8707934 -0.4704763 0.1427262
vn -0.6117184 -0.1821691 -0.7698149
vn -0.4037155 -0.1784679 -0.8973088
vn -0.4311851 -0.3793926 -0.8186212
vn -0.6465247 -0.3549417 -0.6752942
vn -0.1818342 -0.3419749 -0.9219487
vn 0.01369445 -0.4269008 -0.9041948
vn -0.2157191 -0.1806721 -0.9595951
vn -0.3155442 -0.3618965 -0.8771903
vn -0.2157191 -0.1806721 -0.9595951
vn -0.4037155 -0.1784679 -0.8973088
vn -0.1643162 -0.7607691 -0.6278779
vn -0.3244151 -0.8783181 -0.3511584
vn -0.1212997 -0.928131 -0.3519365
vn -0.2428219 -0.7796503 -0.57722
vn -0.700299 -0.4847948 -0.5239803
vn -0.467177 -0.4215545 -0.7771985
vn -0.3155442 -0.3618965 -0.8771903
vn -0.1643162 -0.7607691 -0.6278779
vn -0.1496867 -0.7674884 -0.6233421
vn -0.1818342 -0.3419749 -0.9219487
vn -0.1212997 -0.928131 -0.3519365
vn -0.03017789 -0.8221321 -0.5684963
vn 0.01369445 -0.4269008 -0.9041948
vn -0.0886859 -0.8859281 -0.455265
vn 0.1524431 -0.8215525 -0.5493748
vn 0.2306657 -0.4507848 -0.8623146
vn -0.02419598 -0.9206047 -0.3897454
vn 0.1090417 -0.9295599 -0.3521766
vn -0.04093071 -0.9747819 -0.2193743
vn -0.08174323 -0.9604908 -0.2660366
vn 0.03682361 -0.9816622 -0.1870383
vn -0.09138941 -0.9951789 -0.03559341
vn -0.09205546 -0.9950889 -0.03638524
vn -0.1116058 -0.9734258 -0.1999659
vn -0.1122873 -0.9922638 -0.05295383
vn -0.1270482 -0.9910343 -0.04134839
vn -0.4214232 -0.8970967 -0.1327404
vn -0.3244151 -0.8783181 -0.3511584
vn -0.8307939 -0.482874 -0.2767928
vn -0.700299 -0.4847948 -0.5239803
vn -0.147116 -0.9885744 -0.03282375
vn -0.1923312 -0.9812983 -0.007894621
vn -0.2130702 -0.9766859 0.0261871
vn -0.5204211 -0.8408864 0.1485668
vn -0.473317 -0.8800859 -0.03768108
vn -0.8317426 -0.4475625 0.3284692
vn -0.8884342 -0.457443 -0.03782174
vn -0.4214232 -0.8970967 -0.1327404
vn -0.8884342 -0.457443 -0.03782174
vn -0.8307939 -0.482874 -0.2767928
vn -0.08961757 -0.9954293 -0.03300212
vn -0.2729139 -0.9386911 0.2106586
vn -0.09345867 -0.9951957 -0.02917183
vn -0.2640239 -0.9057676 0.3314762
vn -0.2334204 -0.924214 0.3022307
vn -0.004977024 -0.9976926 -0.06771133
vn 0.2931008 -0.9472657 -0.129536
vn -0.109766 -0.8992661 0.423405
vn -0.1961011 -0.8517693 0.4858326
vn -0.06396171 -0.997526 -0.02916895
vn 0.3646251 -0.9292353 -0.05975158
vn 0.3885402 -0.8603831 -0.3298142
vn 0.3819879 -0.7525419 -0.5364382
vn 0.1524431 -0.8215525 -0.5493748
vn 0.472451 -0.4320925 -0.7681706
vn 0.4131233 -0.9093398 -0.04929731
vn 0.5469947 -0.8229193 -0.153625
vn 0.4903115 -0.8674217 0.08470026
vn 0.02284179 -0.8363179 0.5477688
vn 0.4677291 -0.883749 -0.01473766
vn 0.9204779 -0.3825288 -0.07995021
vn 0.9124494 -0.4072053 0.04024921
vn 0.08229784 -0.8306759 0.5506402
vn 0.3332973 -0.8825042 0.3318119
vn 0.3781061 -0.7772495 0.5029106
vn 0.4575843 -0.8876789 0.05140824
vn 0.1292839 -0.9915022 -0.01446417
vn 0.4677291 -0.883749 -0.01473766
vn 0.4821968 -0.8740011 0.0600694
vn 0.9124494 -0.4072053 0.04024921
vn 0.9110443 -0.4060978 0.07129475
vn 0.08726363 -0.9946808 0.05472892
vn 0.4078161 -0.9087595 0.08855632
vn 0.9110443 -0.4060978 0.07129475
vn 0.8852333 -0.4386062 0.1548764
vn 0.04996375 -0.995944 0.0748277
vn 0.4174763 -0.8723372 0.2544433
vn 0.4078161 -0.9087595 0.08855632
vn 0.8852333 -0.4386062 0.1548764
vn 0.8584089 -0.4066164 0.3127258
vn 0.02492358 -0.9910687 0.1310028
vn -0.001155219 -0.9945071 0.1046625
vn -0.06227883 -0.9946912 0.08191898
vn -0.0244414 -0.9880378 0.1522627
vn -0.1032905 -0.9938169 0.0407306
vn -0.03829734 -0.9855655 0.1649064
vn 0.04002795 -0.8655486 0.4992228
vn 0.1374857 -0.8732984 0.4673838
vn 0.3578385 -0.4070259 0.8404056
vn 0.1658774 -0.3812773 0.9094572
vn -0.009403667 -0.8648707 0.5019067
vn 0.06455715 -0.4106285 0.9095145
vn -0.2041454 -0.8616629 0.4646092
vn -0.2141948 -0.4298264 0.8771373
vn -0.121887 -0.9832169 0.1357505
vn -0.3608675 -0.8484476 0.3871841
vn -0.5021847 -0.4410908 0.7438074
vn -0.1344827 -0.9845796 0.1118816
vn -0.4155169 -0.8507949 0.3217045
vn -0.7551392 -0.4097617 0.5117227
vn -0.3878842 -0.9052676 0.1733098
vn -0.8470935 -0.4483929 0.2852654
vn -0.3831139 -0.9126461 0.1424817
vn -0.5204211 -0.8408864 0.1485668
vn -0.3878842 -0.9052676 0.1733098
vn -0.8317426 -0.4475625 0.3284692
vn -0.8470935 -0.4483929 0.2852654
vn -0.7804211 -0.4806053 0.3999518
vn 0.4174763 -0.8723372 0.2544433
vn 0.02492358 -0.9910687 0.1310028
vn 0.1374857 -0.8732984 0.4673838
vn 0.3547741 -0.8409189 0.408645
vn 0.8584089 -0.4066164 0.3127258
vn 0.6703025 -0.3764491 0.6395159
vn -0.7551392 -0.4097617 0.5117227
vn -0.8470935 -0.4483929 0.2852654
vn -0.9657163 -0.09909234 0.2399433
vn -0.8118871 -0.1086513 0.573615
vn 0.9204779 -0.3825288 -0.07995021
vn 0.9725841 -0.219768 0.07604104
vn 0.957512 -0.2672876 -0.1082965
vn 0.9124494 -0.4072053 0.04024921
vn 0.9743418 -0.2085159 0.08473018
vn 0.9110443 -0.4060978 0.07129475
vn 0.8852333 -0.4386062 0.1548764
vn -0.467177 -0.4215545 -0.7771985
vn -0.3155442 -0.3618965 -0.8771903
vn -0.4037155 -0.1784679 -0.8973088
vn -0.6117184 -0.1821691 -0.7698149
vn 0.7343876 -0.4198024 -0.53333
vn 0.9204779 -0.3825288 -0.07995021
vn 0.957512 -0.2672876 -0.1082965
vn 0.742552 -0.297859 -0.5999138
vn 0.472451 -0.4320925 -0.7681706
vn 0.742552 -0.297859 -0.5999138
vn 0.7343876 -0.4198024 -0.53333
vn 0.5469947 -0.8229193 -0.153625
vn 0.9204779 -0.3825288 -0.07995021
vn 0.6168521 -0.6383736 -0.4604049
vn 0.3885402 -0.8603831 -0.3298142
vn 0.3819879 -0.7525419 -0.5364382
vn -0.4864532 -0.574625 -0.658156
vn -0.09975355 -0.8978242 -0.4289066
vn -0.3393334 -0.8695601 -0.3587732
vn -0.07127969 -0.953524 -0.2927648
vn -0.09975355 -0.8978242 -0.4289066
vn -0.0687611 -0.8899174 -0.4509091
vn 0.02510724 -0.9522971 -0.3041377
vn 0.003442428 -0.9069031 -0.4213252
vn -0.06358913 -0.9471744 -0.314352
vn 0.0994221 -0.8422002 -0.5299188
vn -0.1878282 -0.7297734 -0.6573822
vn 0.04886803 -0.7371901 -0.673916
vn -0.07127969 -0.953524 -0.2927648
vn -0.3393334 -0.8695601 -0.3587732
vn 0.04886803 -0.7371901 -0.673916
vn -0.2704495 -0.5075721 -0.8180634
vn -0.1878282 -0.7297734 -0.6573822
vn 0.00481373 -0.4043218 -0.9146041
vn 0.1712999 -0.4047178 -0.8982538
vn 0.0335549 -0.4820192 -0.8755178
vn 0.03752812 0.170647 0.9846174
vn 0.08715445 -0.5449053 0.8339558
vn -0.07016472 -0.6243013 0.7780262
vn 0.4751185 -0.6596623 -0.5823299
vn 0.6427703 -0.6924202 -0.3277203
vn 0.771656 -0.001264133 -0.6360388
vn 0.6691471 0.001933895 -0.7431275
vn 0.4751185 -0.6596623 -0.5823299
vn 0.4475063 0.002133552 -0.8942782
vt 0.4578461 0.13
vt 0.4818222 0.1878835
vt 0.4818222 0.1878834
vt 0.4818221 0.1878834
vt 0.4578461 0.13
vt 0.4578461 0.13
vt 0.3121166 0.4818222
vt 0.2810583 0.4859111
vt 0.3138079 0.4811216
vt 0.13 0.4578461
vt 0.1163676 0.4473857
vt 0.1309371 0.4582343
vt 0.04215391 0.13
vt 0.05020782 0.1195039
vt 0.04234072 0.129549
vt 0.03696591 0.25
vt 0.009037888 0.2642544
vt 0.008614521 0.2497485
vt 0.01000001 0.25
vt 0.01817781 0.1878834
vt 0.03711838 0.1929585
vt 0.04215391 0.13
vt 0.06325076 0.1421803
vt 0.0820649 0.205002
vt 0.07614079 0.25
vt 0.0994335 0.1630704
vt 0.05020782 0.1195039
vt 0.1393656 0.2365002
vt 0.1499793 0.1922531
vt 0.127063 0.127063
vt 0.1848761 0.1581361
vt 0.2050909 0.2240717
vt 0.2315201 0.1810318
vt 0.1323136 0.2784513
vt 0.1840495 0.2629099
vt 0.2157204 0.1220668
vt 0.2604671 0.1378816
vt 0.2727148 0.210657
vt 0.25 0.25
vt 0.2999178 0.1635398
vt 0.08029439 0.08029439
vt 0.1630704 0.09943351
vt 0.2949981 0.08206491
vt 0.3369296 0.0994335
vt 0.37 0.04215391
vt 0.372937 0.127063
vt 0.3059433 0.04121657
vt 0.3262348 0.02402576
vt 0.3121166 0.01817781
vt 0.3290877 0.1961199
vt 0.25 0.07614079
vt 0.3081102 0.2360393
vt 0.25 0.03077683
vt 0.3059434 0.04121654
vt 0.25 0.01000001
vt 0.3121166 0.01817781
vt 0.25 0.01000001
vt 0.2293643 0.01271675
vt 0.2050019 0.0820649
vt 0.2293643 0.01271675
vt 0.25 0.03077686
vt 0.1878834 0.01817781
vt 0.13 0.04215391
vt 0.13 0.04215391
vt 0.08029439 0.08029439
vt 0.08029439 0.08029439
vt 0.13 0.04215391
vt 0.04215391 0.13
vt 0.04215391 0.13
vt 0.08029439 0.08029439
vt 0.1006752 0.06465566
vt 0.04215391 0.13
vt 0.07614855 0.08569734
vt 0.04215391 0.13
vt 0.1878834 0.01817781
vt 0.1878834 0.01817781
vt 0.1878834 0.01817781
vt 0.13 0.04215391
vt 0.25 0.01
vt 0.25 0.01000001
vt 0.25 0.01
vt 0.13 0.04215391
vt 0.1006752 0.06465566
vt 0.13 0.04215391
vt 0.08029439 0.08029439
vt 0.13 0.04215391
vt 0.1878834 0.01817781
vt 0.25 0.01
vt 0.08029439 0.08029439
vt 0.08029439 0.08029439
vt 0.04215391 0.13
vt 0.04215391 0.13
vt 0.04215391 0.13
vt 0.01817781 0.1878834
vt 0.08029439 0.08029439
vt 0.01817781 0.1878834
vt 0.01000001 0.25
vt 0.01817781 0.1878834
vt 0.01000001 0.25
vt 0.01817781 0.3121166
vt 0.01817781 0.3121166
vt 0.13 0.04215391
vt 0.1878834 0.01817781
vt 0.25 0.01000001
vt 0.25 0.01000001
vt 0.08029439 0.08029439
vt 0.13 0.04215391
vt 0.1878834 0.01817781
vt 0.25 0.01000001
vt 0.08029439 0.08029439
vt 0.13 0.04215391
vt 0.04215391 0.13
vt 0.04215391 0.13
vt 0.04215391 0.13
vt 0.08029439 0.08029439
vt 0.13 0.04215391
vt 0.1878834 0.01817781
vt 0.25 0.01000001
vt 0.25 0.01000001
vt 0.3121166 0.01817781
vt 0.3121166 0.01817781
vt 0.3121165 0.01817781
vt 0.37 0.04215391
vt 0.3121165 0.01817781
vt 0.37 0.04215392
vt 0.37 0.04215391
vt 0.4197055 0.08029438
vt 0.4197056 0.08029438
vt 0.4578461 0.13
vt 0.4578461 0.13
vt 0.4197056 0.08029438
vt 0.4578461 0.13
vt 0.4818221 0.1878834
vt 0.4197056 0.08029437
vt 0.4578461 0.13
vt 0.4818221 0.1878834
vt 0.4578461 0.13
vt 0.49 0.25
vt 0.4818222 0.1878834
vt 0.49 0.25
vt 0.49 0.25
vt 0.4818221 0.3121165
vt 0.4818222 0.3121166
vt 0.4578461 0.37
vt 0.4578461 0.37
vt 0.4197056 0.4197056
vt 0.4197056 0.4197056
vt 0.4818221 0.1878834
vt 0.49 0.25
vt 0.4818221 0.1878834
vt 0.4578461 0.13
vt 0.4578461 0.13
vt 0.4818222 0.3121166
vt 0.4891135 0.2432666
vt 0.4818222 0.3121166
vt 0.4578461 0.37
vt 0.4578461 0.37
vt 0.4197057 0.4197057
vt 0.4197057 0.4197057
vt 0.4197057 0.4197057
vt 0.4578461 0.37
vt 0.4818222 0.3121166
vt 0.4818222 0.3121166
vt 0.37 0.4578461
vt 0.37 0.4578461
vt 0.4578461 0.37
vt 0.4197057 0.4197057
vt 0.37 0.4578461
vt 0.4197056 0.4197056
vt 0.425277 0.4149058
vt 0.37 0.4578461
vt 0.4096335 0.4096335
vt 0.3639748 0.4474101
vt 0.4818222 0.3121166
vt 0.4818222 0.3121166
vt 0.4578461 0.37
vt 0.4888166 0.2410111
vt 0.4891136 0.2432666
vt 0.4888166 0.2410111
vt 0.4005666 0.3369296
vt 0.4179351 0.2949981
vt 0.425277 0.4149058
vt 0.4232931 0.422709
vt 0.372937 0.372937
vt 0.3369296 0.4005665
vt 0.2842796 0.3779333
vt 0.3151239 0.3418639
vt 0.3390896 0.3014359
vt 0.2949981 0.4179352
vt 0.3085271 0.468426
vt 0.3121166 0.4818222
vt 0.37 0.4578461
vt 0.2783693 0.4201244
vt 0.3085271 0.468426
vt 0.2810583 0.4859111
vt 0.25 0.4238593
vt 0.2810583 0.4859111
vt 0.25 0.49
vt 0.2090802 0.4846128
vt 0.25 0.49
vt 0.2144677 0.4104085
vt 0.1959991 0.4828907
vt 0.25 0.49
vt 0.1878834 0.4818222
vt 0.1878835 0.4818222
vt 0.1210385 0.4509696
vt 0.13 0.4578461
vt 0.239533 0.3621185
vt 0.1982119 0.4432759
vt 0.1868151 0.4870446
vt 0.1565786 0.3955852
vt 0.2633953 0.3162135
vt 0.1506724 0.4220405
vt 0.13 0.4578461
vt 0.1878834 0.4818222
vt 0.1972213 0.3414154
vt 0.2899854 0.2730855
vt 0.2240717 0.2949091
vt 0.3487752 0.2642411
vt 0.4231485 0.2446019
vt 0.4818222 0.1878834
vt 0.4818222 0.1878834
vt 0.4891136 0.2432666
vt 0.4818222 0.1878835
vt 0.4578461 0.13
vt 0.4179351 0.2050019
vt 0.364395 0.220384
vt 0.4005665 0.1630704
vt 0.1581062 0.3149019
vt 0.4197056 0.08029439
vt 0.127063 0.3729371
vt 0.09943351 0.3369296
vt 0.4578461 0.13
vt 0.4818222 0.1878835
vt 0.4578462 0.13
vt 0.4818222 0.1878835
vt 0.4197056 0.08029439
vt 0.37 0.04215391
vt 0.3121166 0.01817781
vt 0.25 0.01000001
vt 0.08029439 0.4197056
vt 0.1163676 0.4473857
vt 0.1506724 0.4220405
vt 0.08029439 0.4197056
vt 0.04215391 0.37
vt 0.04215391 0.37
vt 0.0820649 0.2949981
vt 0.009037888 0.2642544
vt 0.03696589 0.25
vt 0.01817781 0.3121166
vt 0.01817781 0.3121166
vt 0.04215391 0.37
vt 0.04215391 0.37
vt 0.01817781 0.3121166
vt 0.08029439 0.4197056
vt 0.08029439 0.4197056
vt 0.009037888 0.2642544
vt 0.01817781 0.3121166
vt 0.01000001 0.25
vt 0.01000001 0.25
vt 0.01817781 0.1878834
vt 0.01817781 0.1878834
vt 0.04215391 0.13
vt 0.01817781 0.1878834
vt 0.01528968 0.2098209
vt 0.01817781 0.3121166
vt 0.01000001 0.25
vt 0.01817781 0.3121166
vt 0.08029439 0.4197056
vt 0.1210385 0.4509696
vt 0.1163676 0.4473857
vt 0.13 0.4578461
vt 0.1210385 0.4509696
vt 0.1878834 0.4818222
vt 0.1959991 0.4828907
vt 0.3121166 0.01817781
vt 0.3262348 0.02402576
vt 0.3127856 0.01826589
vt 0.25 0.03077683
vt 0.2293643 0.01271675
vt 0.2515078 0.005345807
vt 0.07614855 0.08569734
vt 0.1006752 0.06465566
vt 0.08015864 0.08047128
vt 0.3121166 0.01817781
vt 0.25 0.01
vt 0.3121166 0.01817781
vt 0.37 0.04215391
vt 0.3121165 0.01817781
vt 0.37 0.04215391
vt 0.4197056 0.08029439
vt 0.37 0.04215392
vt 0.4197056 0.08029439
vt 0.4578461 0.13
vt 0.4578462 0.13
vt 0.4197056 0.08029439
vt 0.4197055 0.08029438
vt 0.37 0.04215391
vt 0.4578461 0.13
vt 0.4578461 0.13
vt 0.4818222 0.1878835
vt 0.4891135 0.2432666
vt 0.49 0.25
vt 0.4891136 0.2432666
vt 0.4818222 0.1878835
vt 0.4818222 0.3121166
vt 0.37 0.4578461
vt 0.3121166 0.4818222
vt 0.37 0.4578461
vt 0.3121165 0.4818221
vt 0.37 0.457846
vt 0.4197057 0.4197057
vt 0.2810583 0.4859111
vt 0.3121166 0.4818221
vt 0.25 0.49
vt 0.25 0.4899999
vt 0.3699999 0.457846
vt 0.3121166 0.4818221
vt 0.4197056 0.4197056
vt 0.4197057 0.4197057
vt 0.4578461 0.37
vt 0.4578461 0.37
vt 0.4818221 0.3121166
vt 0.4818222 0.3121166
vt 0.49 0.25
vt 0.25 0.49
vt 0.2810583 0.4859111
vt 0.25 0.49
vt 0.3121166 0.4818222
vt 0.3121166 0.4818222
vt 0.37 0.4578461
vt 0.37 0.4578461
vt 0.37 0.4578461
vt 0.49 0.25
vt 0.49 0.25
vt 0.4818221 0.3121165
vt 0.4578461 0.37
vt 0.4197056 0.4197056
vt 0.3699999 0.457846
vt 0.3699999 0.457846
vt 0.3121166 0.4818221
vt 0.3121165 0.4818221
vt 0.25 0.4899999
vt 0.25 0.4899999
vt 0.2189417 0.4859111
vt 0.25 0.4899999
vt 0.2189417 0.4859111
vt 0.25 0.4899999
vt 0.25 0.4899999
vt 0.3121166 0.4818221
vt 0.25 0.4899999
vt 0.2189417 0.4859111
vt 0.2189417 0.4859111
vt 0.25 0.4899999
vt 0.2189417 0.4859111
vt 0.25 0.4899999
vt 0.2189417 0.4859111
vt 0.1878834 0.4818222
vt 0.1878834 0.4818222
vt 0.04215391 0.37
vt 0.01817781 0.3121166
vt 0.01817781 0.3121166
vt 0.04215391 0.37
vt 0.01817781 0.3121166
vt 0.01000001 0.25
vt 0.01000001 0.25
vt 0.01817781 0.1878834
vt 0.01817781 0.1878834
vt 0.01000001 0.25
vt 0.04215391 0.13
vt 0.0181778 0.1878834
vt 0.04215391 0.37
vt 0.01817781 0.3121166
vt 0.04215391 0.37
vt 0.08029439 0.4197056
vt 0.08029439 0.4197056
vt 0.13 0.4578462
vt 0.13 0.4578461
vt 0.1878834 0.4818222
vt 0.08029439 0.4197056
vt 0.04215391 0.37
vt 0.1878835 0.4818222
vt 0.2189417 0.4859111
vt 0.2189417 0.4859111
vt 0.04215391 0.37
vt 0.01817781 0.3121166
vt 0.01817781 0.3121166
vt 0.1878834 0.4818222
vt 0.13 0.4578462
vt 0.13 0.4578461
vt 0.08029439 0.4197056
vt 0.13 0.4578462
vt 0.13 0.4578461
vt 0.13 0.4578461
vt 0.1878835 0.4818222
vt 0.13 0.4578461
vt 0.1878835 0.4818222
vt 0.08029439 0.4197056
vt 0.2189417 0.4859111
vt 0.25 0.4899999
vt 0.08029439 0.4197056
vt 0.13 0.4578461
vt 0.08029439 0.4197056
vt 0.2189417 0.4859111
vt 0.1878835 0.4818222
vt 0.1878835 0.4818222
vt 0.08029439 0.4197056
vt 0.04215391 0.37
vt 0.08029439 0.4197056
vt 0.25 0.01000001
vt 0.3121166 0.01817781
vt 0.25 0.01000001
vt 0.3121165 0.01817781
vt 0.37 0.04215391
vt 0.37 0.04215391
vt 0.4197056 0.08029438
vt 0.37 0.04215391
vt 0.01817781 0.3121166
vt 0.01000001 0.25
vt 0.01000001 0.25
vt 0.01817781 0.3121166
vt 0.01817781 0.1878834
vt 0.04215391 0.13
vt 0.0181778 0.1878834
vt 0.01000001 0.25
vt 0.0181778 0.1878834
vt 0.01000001 0.25
vt 0.05953503 0.3720535
vt 0.128054 0.4413747
vt 0.1215725 0.3865149
vt 0.08914639 0.4125133
vt 0.13 0.4578461
vt 0.08029439 0.4197056
vt 0.04215391 0.37
vt 0.05953502 0.3720535
vt 0.03443208 0.3126112
vt 0.01817781 0.3121166
vt 0.1215725 0.3865149
vt 0.0259417 0.25
vt 0.01000001 0.25
vt 0.1087396 0.3148725
vt 0.03443205 0.1873888
vt 0.01817781 0.1878834
vt 0.1042857 0.25
vt 0.1087396 0.1851275
vt 0.1042857 0.25
vt 0.1087396 0.3148725
vt 0.1087396 0.1851275
vt 0.1803047 0.3196954
vt 0.1784158 0.25
vt 0.120718 0.3792821
vt 0.1851275 0.3912604
vt 0.1857621 0.412113
vt 0.1874335 0.4670364
vt 0.128054 0.4413747
vt 0.1878834 0.4818222
vt 0.13 0.4578461
vt 0.25 0.3957143
vt 0.25 0.4177266
vt 0.3145123 0.4030942
vt 0.3125665 0.4670363
vt 0.25 0.4757046
vt 0.3121165 0.4818221
vt 0.25 0.4899999
vt 0.1874335 0.4670363
vt 0.25 0.4899999
vt 0.1878834 0.4818222
vt 0.25 0.3215843
vt 0.3148725 0.3912604
vt 0.25 0.25
vt 0.3196953 0.3196953
vt 0.3196953 0.3196953
vt 0.1803047 0.1803047
vt 0.120718 0.120718
vt 0.3215843 0.25
vt 0.3215843 0.25
vt 0.25 0.1784157
vt 0.1851275 0.1087396
vt 0.120718 0.120718
vt 0.05953504 0.1279465
vt 0.03443204 0.1873888
vt 0.04215391 0.13
vt 0.1851275 0.1087396
vt 0.128054 0.05862536
vt 0.25 0.1042857
vt 0.3196953 0.1803047
vt 0.1874335 0.03296367
vt 0.13 0.04215391
vt 0.1878834 0.01817781
vt 0.3196953 0.1803047
vt 0.3148725 0.1087396
vt 0.3148725 0.1087396
vt 0.25 0.1042857
vt 0.25 0.0954051
vt 0.1874335 0.03296366
vt 0.25 0.02429536
vt 0.1878834 0.01817781
vt 0.25 0.01000001
vt 0.3145968 0.09968012
vt 0.3125665 0.03296368
vt 0.25 0.01000001
vt 0.3121166 0.01817781
vt 0.3202483 0.1097393
vt 0.3719461 0.05862536
vt 0.3125665 0.03296366
vt 0.3121166 0.01817781
vt 0.37 0.04215391
vt 0.3812405 0.1312491
vt 0.3258072 0.1807166
vt 0.3292962 0.25
vt 0.3912604 0.1851275
vt 0.3306089 0.3189598
vt 0.3957144 0.25
vt 0.4655679 0.1873888
vt 0.4404649 0.1279465
vt 0.4578461 0.13
vt 0.4818222 0.1878834
vt 0.4740583 0.25
vt 0.49 0.25
vt 0.4655679 0.3126112
vt 0.4818222 0.3121166
vt 0.3905032 0.3171972
vt 0.4404649 0.3720535
vt 0.4578461 0.37
vt 0.3728026 0.3715357
vt 0.4108536 0.4125133
vt 0.4197056 0.4197056
vt 0.371946 0.4413746
vt 0.3699999 0.457846
vt 0.3422562 0.4542055
vt 0.3125665 0.4670363
vt 0.371946 0.4413746
vt 0.3121165 0.4818221
vt 0.3699999 0.457846
vt 0.3410583 0.4698341
vt 0.3719461 0.05862536
vt 0.3812405 0.1312491
vt 0.4404649 0.1279465
vt 0.4108536 0.08748669
vt 0.37 0.04215391
vt 0.4197056 0.08029438
vt 0.3121165 0.4818221
vt 0.25 0.4899999
vt 0.25 0.4899999
vt 0.3121166 0.4818221
vt 0.25 0.01000001
vt 0.3121165 0.01817781
vt 0.25 0.01000001
vt 0.3121166 0.01817781
vt 0.37 0.04215391
vt 0.37 0.04215391
vt 0.4197056 0.08029438
vt 0.01817781 0.3121166
vt 0.01000001 0.25
vt 0.01000001 0.25
vt 0.01817781 0.3121166
vt 0.1878834 0.01817781
vt 0.25 0.01000001
vt 0.25 0.01000001
vt 0.1878834 0.01817781
vt 0.13 0.04215391
vt 0.1878834 0.01817781
vt 0.08029439 0.08029439
vt 0.128054 0.05862534
vt 0.13 0.04215391
vt 0.08914636 0.08748668
vt 0.120718 0.120718
vt 0.05953505 0.1279465
vt 0.01000001 0.25
vt 0.01817781 0.1878834
vt 0.01528968 0.2098209
vt 0.01817781 0.1878834
vt 0.01817781 0.1878834
vt 0.08029439 0.08029439
vt 0.04215391 0.13
vt 0.04215391 0.13
vt 0.07614855 0.08569734
vt 0.1006752 0.06465566
vt 0.01817781 0.1878834
vt 0.04215391 0.13
vt 0.0182148 0.1877941
vt 0.01528968 0.2098209
vt 0.04215391 0.13
vt 0.01817781 0.1878834
vt 0.01817781 0.1878834
vt 0.04215391 0.13
vt 0.08029439 0.08029439
vt 0.04215391 0.13
vt 0.425277 0.4149058
vt 0.4578461 0.37
vt 0.4197057 0.4197057
vt 0.1878834 0.01817781
vt 0.25 0.01000001
vt 0.2293643 0.01271675
vt 0.1878834 0.01817781
vt 0.1878834 0.01817781
vt 0.13 0.04215391
usemtl MV_RockDesert_Cliff
f 1/1/1 3/3/3 2/2/2
f 4/4/4 6/6/6 5/5/5
f 7/7/7 9/9/9 8/8/8
f 10/10/10 12/12/12 11/11/11
f 13/13/13 15/15/15 14/14/14
f 16/16/16 18/18/18 17/17/17
f 16/16/16 20/20/20 19/19/19
f 16/16/16 21/21/21 20/20/20
f 21/21/21 22/22/22 20/20/20
f 21/21/21 23/23/23 22/22/22
f 24/24/24 21/21/21 16/16/16
f 24/24/24 16/16/16 25/25/25
f 26/26/26 23/23/23 21/21/21
f 26/26/26 21/21/21 24/24/24
f 26/26/26 27/27/27 23/23/23
f 25/25/25 28/28/28 24/24/24
f 24/24/24 29/29/29 26/26/26
f 24/24/24 28/28/28 29/29/29
f 30/30/30 27/27/27 26/26/26
f 26/26/26 29/29/29 31/31/31
f 26/26/26 31/31/31 30/30/30
f 28/28/28 32/32/32 29/29/29
f 29/29/29 33/33/33 31/31/31
f 29/29/29 32/32/32 33/33/33
f 25/25/25 34/34/34 28/28/28
f 28/28/28 35/35/35 32/32/32
f 34/34/34 35/35/35 28/28/28
f 30/30/30 31/31/31 36/36/36
f 31/31/31 33/33/33 37/37/37
f 31/31/31 37/37/37 36/36/36
f 32/32/32 38/38/38 33/33/33
f 35/35/35 39/39/39 32/32/32
f 32/32/32 39/39/39 38/38/38
f 33/33/33 40/40/40 37/37/37
f 33/33/33 38/38/38 40/40/40
f 30/30/30 41/41/41 27/27/27
f 30/30/30 36/36/36 42/42/42
f 42/42/42 41/41/41 30/30/30
f 36/36/36 37/37/37 43/43/43
f 37/37/37 40/40/40 44/44/44
f 37/37/37 44/44/44 43/43/43
f 45/45/45 43/43/43 44/44/44
f 46/46/46 45/45/45 44/44/44
f 40/40/40 46/46/46 44/44/44
f 45/45/45 47/47/47 43/43/43
f 47/47/47 45/45/45 48/48/48
f 45/45/45 49/49/49 48/48/48
f 38/38/38 50/50/50 40/40/40
f 40/40/40 50/50/50 46/46/46
f 36/36/36 43/43/43 51/51/51
f 42/42/42 36/36/36 51/51/51
f 38/38/38 52/52/52 50/50/50
f 39/39/39 52/52/52 38/38/38
f 43/43/43 53/53/53 51/51/51
f 43/43/43 54/54/54 53/53/53
f 53/53/53 54/54/54 49/49/49
f 53/53/53 49/49/49 55/55/55
f 56/56/56 55/55/55 49/49/49
f 45/45/45 56/56/56 49/49/49
f 56/56/56 57/57/57 55/55/55
f 57/57/57 58/58/58 55/55/55
f 42/42/42 51/51/51 59/59/59
f 60/60/60 59/59/59 51/51/51
f 60/60/60 51/51/51 61/61/61
f 59/59/59 60/60/60 62/62/62
f 59/59/59 62/62/62 63/63/63
f 59/59/59 63/63/63 42/42/42
f 42/42/42 63/63/63 41/41/41
f 64/64/64 41/41/41 63/63/63
f 64/64/64 65/65/65 41/41/41
f 65/65/65 27/27/27 41/41/41
f 66/66/66 27/27/27 65/65/65
f 67/67/67 65/65/65 64/64/64
f 67/67/67 66/66/66 65/65/65
f 66/66/66 68/68/68 27/27/27
f 27/27/27 68/68/68 69/69/69
f 70/70/70 68/68/68 66/66/66
f 67/67/67 70/70/70 66/66/66
f 67/67/67 71/71/71 70/70/70
f 70/70/70 72/72/72 68/68/68
f 72/72/72 70/70/70 73/73/73
f 72/72/72 73/73/73 74/74/74
f 75/75/75 67/67/67 64/64/64
f 75/75/75 64/64/64 76/76/76
f 77/77/77 67/67/67 75/75/75
f 77/77/77 78/78/78 67/67/67
f 79/79/79 75/75/75 76/76/76
f 79/79/79 76/76/76 80/80/80
f 75/75/75 79/79/79 81/81/81
f 75/75/75 81/81/81 77/77/77
f 82/82/82 78/78/78 77/77/77
f 82/82/82 83/83/83 78/78/78
f 78/78/78 83/83/83 84/84/84
f 82/82/82 85/85/85 83/83/83
f 86/86/86 82/82/82 77/77/77
f 86/86/86 77/77/77 87/87/87
f 87/87/87 77/77/77 88/88/88
f 89/89/89 85/85/85 82/82/82
f 90/90/90 82/82/82 86/86/86
f 90/90/90 89/89/89 82/82/82
f 91/91/91 85/85/85 89/89/89
f 91/91/91 92/92/92 85/85/85
f 93/93/93 89/89/89 90/90/90
f 93/93/93 91/91/91 89/89/89
f 94/94/94 91/91/91 93/93/93
f 95/95/95 93/93/93 90/90/90
f 94/94/94 96/96/96 91/91/91
f 96/96/96 92/92/92 91/91/91
f 97/97/97 96/96/96 94/94/94
f 96/96/96 98/98/98 92/92/92
f 98/98/98 96/96/96 99/99/99
f 97/97/97 99/99/99 96/96/96
f 100/100/100 99/99/99 97/97/97
f 100/100/100 101/101/101 99/99/99
f 102/102/102 90/90/90 86/86/86
f 102/102/102 95/95/95 90/90/90
f 103/103/103 102/102/102 86/86/86
f 103/103/103 86/86/86 87/87/87
f 104/104/104 103/103/103 87/87/87
f 104/104/104 87/87/87 105/105/105
f 87/87/87 88/88/88 105/105/105
f 106/106/106 95/95/95 102/102/102
f 107/107/107 102/102/102 103/103/103
f 106/106/106 102/102/102 107/107/107
f 107/107/107 103/103/103 108/108/108
f 108/108/108 103/103/103 109/109/109
f 110/110/110 106/106/106 107/107/107
f 111/111/111 107/107/107 108/108/108
f 110/110/110 107/107/107 111/111/111
f 112/112/112 106/106/106 110/110/110
f 112/112/112 113/113/113 106/106/106
f 114/114/114 112/112/112 110/110/110
f 114/114/114 110/110/110 115/115/115
f 115/115/115 110/110/110 111/111/111
f 115/115/115 111/111/111 116/116/116
f 111/111/111 108/108/108 117/117/117
f 117/117/117 108/108/108 118/118/118
f 108/108/108 109/109/109 118/118/118
f 117/117/117 118/118/118 119/119/119
f 118/118/118 109/109/109 120/120/120
f 118/118/118 120/120/120 121/121/121
f 120/120/120 109/109/109 105/105/105
f 120/120/120 105/105/105 122/122/122
f 121/121/121 120/120/120 123/123/123
f 123/123/123 120/120/120 124/124/124
f 123/123/123 124/124/124 125/125/125
f 121/121/121 123/123/123 126/126/126
f 126/126/126 123/123/123 127/127/127
f 126/126/126 127/127/127 128/128/128
f 128/128/128 127/127/127 129/129/129
f 128/128/128 129/129/129 130/130/130
f 131/131/131 128/128/128 130/130/130
f 131/131/131 130/130/130 132/132/132
f 132/132/132 130/130/130 133/133/133
f 134/134/134 131/131/131 132/132/132
f 134/134/134 132/132/132 135/135/135
f 132/132/132 133/133/133 136/136/136
f 137/137/137 132/132/132 136/136/136
f 136/136/136 133/133/133 138/138/138
f 137/137/137 136/136/136 139/139/139
f 136/136/136 138/138/138 140/140/140
f 139/139/139 136/136/136 140/140/140
f 139/139/139 140/140/140 141/141/141
f 141/141/141 140/140/140 142/142/142
f 141/141/141 142/142/142 143/143/143
f 143/143/143 142/142/142 144/144/144
f 143/143/143 144/144/144 145/145/145
f 145/145/145 144/144/144 146/146/146
f 145/145/145 146/146/146 147/147/147
f 148/148/148 149/149/149 138/138/138
f 148/148/148 150/150/150 149/149/149
f 151/151/151 150/150/150 148/148/148
f 151/151/151 152/152/152 150/150/150
f 149/149/149 154/154/154 153/153/153
f 149/149/149 153/153/153 155/155/155
f 155/155/155 153/153/153 156/156/156
f 155/155/155 156/156/156 157/157/157
f 157/157/157 156/156/156 158/158/158
f 157/157/157 158/158/158 159/159/159
f 156/156/156 160/160/160 158/158/158
f 156/156/156 161/161/161 160/160/160
f 162/162/162 161/161/161 156/156/156
f 162/162/162 163/163/163 161/161/161
f 158/158/158 160/160/160 164/164/164
f 158/158/158 164/164/164 165/165/165
f 160/160/160 161/161/161 166/166/166
f 164/164/164 160/160/160 167/167/167
f 160/160/160 166/166/166 167/167/167
f 164/164/164 167/167/167 168/168/168
f 168/168/168 167/167/167 169/169/169
f 167/167/167 170/170/170 169/169/169
f 168/168/168 169/169/169 171/171/171
f 172/172/172 171/171/171 169/169/169
f 172/172/172 173/173/173 171/171/171
f 161/161/161 174/174/174 166/166/166
f 161/161/161 163/163/163 174/174/174
f 166/166/166 174/174/174 175/175/175
f 166/166/166 175/175/175 176/176/176
f 163/163/163 177/177/177 174/174/174
f 163/163/163 178/178/178 177/177/177
f 174/174/174 179/179/179 175/175/175
f 174/174/174 177/177/177 179/179/179
f 180/180/180 176/176/176 175/175/175
f 181/181/181 175/175/175 179/179/179
f 180/180/180 175/175/175 181/181/181
f 182/182/182 176/176/176 180/180/180
f 172/172/172 183/183/183 182/182/182
f 184/184/184 172/172/172 182/182/182
f 182/182/182 180/180/180 184/184/184
f 185/185/185 173/173/173 172/172/172
f 185/185/185 172/172/172 184/184/184
f 186/186/186 185/185/185 184/184/184
f 187/187/187 184/184/184 180/180/180
f 186/186/186 184/184/184 187/187/187
f 188/188/188 180/180/180 181/181/181
f 187/187/187 180/180/180 188/188/188
f 189/189/189 173/173/173 185/185/185
f 186/186/186 189/189/189 185/185/185
f 189/189/189 190/190/190 173/173/173
f 173/173/173 190/190/190 191/191/191
f 173/173/173 191/191/191 192/192/192
f 186/186/186 193/193/193 189/189/189
f 193/193/193 194/194/194 189/189/189
f 193/193/193 195/195/195 194/194/194
f 196/196/196 193/193/193 186/186/186
f 196/196/196 197/197/197 193/193/193
f 196/196/196 198/198/198 197/197/197
f 196/196/196 199/199/199 198/198/198
f 199/199/199 200/200/200 198/198/198
f 201/201/201 196/196/196 186/186/186
f 201/201/201 199/199/199 196/196/196
f 202/202/202 200/200/200 199/199/199
f 203/203/203 200/200/200 202/202/202
f 202/202/202 199/199/199 204/204/204
f 203/203/203 202/202/202 205/205/205
f 205/205/205 202/202/202 206/206/206
f 205/205/205 206/206/206 207/207/207
f 201/201/201 186/186/186 208/208/208
f 208/208/208 186/186/186 187/187/187
f 201/201/201 209/209/209 199/199/199
f 209/209/209 210/210/210 199/199/199
f 211/211/211 201/201/201 208/208/208
f 211/211/211 209/209/209 201/201/201
f 208/208/208 187/187/187 212/212/212
f 212/212/212 187/187/187 188/188/188
f 211/211/211 213/213/213 209/209/209
f 209/209/209 213/213/213 214/214/214
f 209/209/209 214/214/214 215/215/215
f 211/211/211 208/208/208 216/216/216
f 216/216/216 208/208/208 212/212/212
f 212/212/212 188/188/188 217/217/217
f 216/216/216 212/212/212 218/218/218
f 218/218/218 212/212/212 217/217/217
f 217/217/217 188/188/188 219/219/219
f 188/188/188 181/181/181 219/219/219
f 219/219/219 181/181/181 220/220/220
f 181/181/181 179/179/179 220/220/220
f 220/220/220 179/179/179 221/221/221
f 177/177/177 221/221/221 179/179/179
f 177/177/177 222/222/222 221/221/221
f 223/223/223 222/222/222 177/177/177
f 223/223/223 224/224/224 222/222/222
f 222/222/222 225/225/225 221/221/221
f 220/220/220 221/221/221 226/226/226
f 226/226/226 221/221/221 225/225/225
f 219/219/219 220/220/220 227/227/227
f 227/227/227 220/220/220 226/226/226
f 217/217/217 219/219/219 52/52/52
f 52/52/52 219/219/219 227/227/227
f 39/39/39 217/217/217 52/52/52
f 218/218/218 217/217/217 39/39/39
f 52/52/52 227/227/227 50/50/50
f 35/35/35 218/218/218 39/39/39
f 227/227/227 226/226/226 228/228/228
f 50/50/50 227/227/227 228/228/228
f 226/226/226 225/225/225 228/228/228
f 50/50/50 228/228/228 46/46/46
f 229/229/229 218/218/218 35/35/35
f 229/229/229 216/216/216 218/218/218
f 34/34/34 229/229/229 35/35/35
f 228/228/228 230/230/230 46/46/46
f 228/228/228 225/225/225 230/230/230
f 46/46/46 230/230/230 45/45/45
f 231/231/231 216/216/216 229/229/229
f 231/231/231 211/211/211 216/216/216
f 232/232/232 229/229/229 34/34/34
f 232/232/232 231/231/231 229/229/229
f 233/233/233 230/230/230 225/225/225
f 234/234/234 233/233/233 225/225/225
f 235/235/235 233/233/233 234/234/234
f 235/235/235 234/234/234 236/236/236
f 233/233/233 237/237/237 230/230/230
f 237/237/237 45/45/45 230/230/230
f 237/237/237 238/238/238 45/45/45
f 56/56/56 45/45/45 238/238/238
f 238/238/238 239/239/239 56/56/56
f 239/239/239 240/240/240 56/56/56
f 239/239/239 79/79/79 240/240/240
f 232/232/232 241/241/241 231/231/231
f 231/231/231 241/241/241 242/242/242
f 242/242/242 211/211/211 231/231/231
f 242/242/242 243/243/243 211/211/211
f 242/242/242 241/241/241 244/244/244
f 245/245/245 244/244/244 241/241/241
f 245/245/245 241/241/241 246/246/246
f 232/232/232 246/246/246 241/241/241
f 247/247/247 246/246/246 232/232/232
f 247/247/247 232/232/232 34/34/34
f 247/247/247 34/34/34 25/25/25
f 25/25/25 248/248/248 247/247/247
f 25/25/25 249/249/249 248/248/248
f 247/247/247 248/248/248 250/250/250
f 247/247/247 250/250/250 246/246/246
f 251/251/251 246/246/246 250/250/250
f 251/251/251 252/252/252 246/246/246
f 253/253/253 252/252/252 251/251/251
f 253/253/253 251/251/251 254/254/254
f 255/255/255 252/252/252 253/253/253
f 255/255/255 256/256/256 252/252/252
f 257/257/257 251/251/251 258/258/258
f 251/251/251 257/257/257 259/259/259
f 251/251/251 259/259/259 260/260/260
f 261/261/261 260/260/260 259/259/259
f 261/261/261 259/259/259 262/262/262
f 263/263/263 261/261/261 262/262/262
f 263/263/263 262/262/262 69/69/69
f 264/264/264 260/260/260 261/261/261
f 264/264/264 265/265/265 260/260/260
f 260/260/260 265/265/265 99/99/99
f 266/266/266 267/267/267 99/99/99
f 266/266/266 268/268/268 267/267/267
f 207/207/207 256/256/256 269/269/269
f 207/207/207 270/270/270 256/256/256
f 256/256/256 272/272/272 271/271/271
f 256/256/256 273/273/273 272/272/272
f 273/273/273 274/274/274 272/272/272
f 273/273/273 275/275/275 274/274/274
f 276/276/276 278/278/278 277/277/277
f 279/279/279 281/281/281 280/280/280
f 282/282/282 284/284/284 283/283/283
f 88/88/88 286/286/286 285/285/285
f 88/88/88 285/285/285 287/287/287
f 105/105/105 88/88/88 287/287/287
f 288/288/288 287/287/287 285/285/285
f 105/105/105 287/287/287 289/289/289
f 287/287/287 288/288/288 290/290/290
f 289/289/289 287/287/287 290/290/290
f 290/290/290 288/288/288 291/291/291
f 289/289/289 290/290/290 292/292/292
f 290/290/290 291/291/291 293/293/293
f 292/292/292 290/290/290 293/293/293
f 293/293/293 291/291/291 294/294/294
f 293/293/293 294/294/294 295/295/295
f 292/292/292 293/293/293 296/296/296
f 296/296/296 293/293/293 295/295/295
f 297/297/297 292/292/292 296/296/296
f 297/297/297 298/298/298 292/292/292
f 299/299/299 297/297/297 296/296/296
f 299/299/299 296/296/296 300/300/300
f 296/296/296 295/295/295 300/300/300
f 300/300/300 295/295/295 301/301/301
f 300/300/300 301/301/301 150/150/150
f 150/150/150 301/301/301 302/302/302
f 150/150/150 302/302/302 303/303/303
f 301/301/301 304/304/304 302/302/302
f 301/301/301 305/305/305 304/304/304
f 302/302/302 304/304/304 163/163/163
f 302/302/302 163/163/163 306/306/306
f 307/307/307 309/309/309 308/308/308
f 307/307/307 308/308/308 310/310/310
f 311/311/311 307/307/307 310/310/310
f 159/159/159 307/307/307 311/311/311
f 159/159/159 312/312/312 307/307/307
f 313/313/313 310/310/310 308/308/308
f 311/311/311 310/310/310 314/314/314
f 310/310/310 313/313/313 315/315/315
f 314/314/314 310/310/310 315/315/315
f 314/314/314 315/315/315 316/316/316
f 317/317/317 311/311/311 314/314/314
f 317/317/317 314/314/314 318/318/318
f 319/319/319 311/311/311 317/317/317
f 319/319/319 320/320/320 311/311/311
f 321/321/321 320/320/320 319/319/319
f 321/321/321 322/322/322 320/320/320
f 323/323/323 322/322/322 321/321/321
f 323/323/323 324/324/324 322/322/322
f 325/325/325 324/324/324 323/323/323
f 325/325/325 149/149/149 324/324/324
f 315/315/315 313/313/313 326/326/326
f 326/326/326 313/313/313 327/327/327
f 326/326/326 327/327/327 328/328/328
f 327/327/327 313/313/313 308/308/308
f 327/327/327 308/308/308 329/329/329
f 329/329/329 330/330/330 327/327/327
f 329/329/329 331/331/331 330/330/330
f 329/329/329 332/332/332 331/331/331
f 308/308/308 333/333/333 329/329/329
f 308/308/308 164/164/164 333/333/333
f 334/334/334 335/335/335 323/323/323
f 334/334/334 323/323/323 336/336/336
f 336/336/336 323/323/323 321/321/321
f 336/336/336 321/321/321 337/337/337
f 337/337/337 321/321/321 319/319/319
f 337/337/337 319/319/319 338/338/338
f 338/338/338 319/319/319 317/317/317
f 338/338/338 317/317/317 339/339/339
f 147/147/147 338/338/338 339/339/339
f 147/147/147 339/339/339 340/340/340
f 339/339/339 317/317/317 318/318/318
f 340/340/340 339/339/339 341/341/341
f 339/339/339 318/318/318 341/341/341
f 340/340/340 341/341/341 342/342/342
f 341/341/341 318/318/318 343/343/343
f 341/341/341 343/343/343 344/344/344
f 344/344/344 346/346/346 345/345/345
f 344/344/344 345/345/345 347/347/347
f 318/318/318 349/349/349 348/348/348
f 318/318/318 350/350/350 349/349/349
f 351/351/351 349/349/349 352/352/352
f 351/351/351 352/352/352 353/353/353
f 354/354/354 347/347/347 355/355/355
f 354/354/354 356/356/356 347/347/347
f 357/357/357 347/347/347 358/358/358
f 357/357/357 358/358/358 359/359/359
f 360/360/360 362/362/362 361/361/361
f 360/360/360 363/363/363 362/362/362
f 363/363/363 364/364/364 362/362/362
f 362/362/362 364/364/364 365/365/365
f 362/362/362 365/365/365 366/366/366
f 366/366/366 365/365/365 367/367/367
f 366/366/366 367/367/367 368/368/368
f 369/369/369 366/366/366 368/368/368
f 368/368/368 367/367/367 370/370/370
f 369/369/369 368/368/368 371/371/371
f 368/368/368 370/370/370 113/113/113
f 371/371/371 368/368/368 113/113/113
f 371/371/371 113/113/113 112/112/112
f 363/363/363 372/372/372 364/364/364
f 372/372/372 373/373/373 364/364/364
f 372/372/372 374/374/374 373/373/373
f 375/375/375 363/363/363 360/360/360
f 375/375/375 376/376/376 363/363/363
f 377/377/377 376/376/376 375/375/375
f 377/377/377 378/378/378 376/376/376
f 379/379/379 378/378/378 377/377/377
f 380/380/380 375/375/375 360/360/360
f 380/380/380 360/360/360 381/381/381
f 379/379/379 382/382/382 378/378/378
f 383/383/383 382/382/382 379/379/379
f 383/383/383 384/384/384 382/382/382
f 385/385/385 360/360/360 386/386/386
f 385/385/385 386/386/386 387/387/387
f 388/388/388 379/379/379 389/389/389
f 388/388/388 389/389/389 390/390/390
f 390/390/390 391/391/391 380/380/380
f 390/390/390 392/392/392 391/391/391
f 382/382/382 394/394/394 393/393/393
f 382/382/382 395/395/395 394/394/394
f 395/395/395 396/396/396 394/394/394
f 395/395/395 397/397/397 396/396/396
f 394/394/394 396/396/396 398/398/398
f 399/399/399 397/397/397 395/395/395
f 399/399/399 315/315/315 397/397/397
f 400/400/400 315/315/315 399/399/399
f 394/394/394 398/398/398 401/401/401
f 402/402/402 394/394/394 401/401/401
f 402/402/402 401/401/401 403/403/403
f 404/404/404 399/399/399 405/405/405
f 404/404/404 405/405/405 406/406/406
f 401/401/401 407/407/407 374/374/374
f 401/401/401 374/374/374 408/408/408
f 409/409/409 401/401/401 408/408/408
f 409/409/409 408/408/408 363/363/363
f 410/410/410 412/412/412 411/411/411
f 410/410/410 411/411/411 413/413/413
f 413/413/413 411/411/411 414/414/414
f 413/413/413 414/414/414 415/415/415
f 415/415/415 128/128/128 416/416/416
f 415/415/415 417/417/417 128/128/128
f 418/418/418 420/420/420 419/419/419
f 418/418/418 421/421/421 420/420/420
f 422/422/422 112/112/112 423/423/423
f 422/422/422 424/424/424 112/112/112
f 425/425/425 426/426/426 422/422/422
f 425/425/425 427/427/427 426/426/426
f 428/428/428 430/430/430 429/429/429
f 428/428/428 429/429/429 431/431/431
f 432/432/432 431/431/431 429/429/429
f 432/432/432 433/433/433 431/431/431
f 433/433/433 428/428/428 431/431/431
f 433/433/433 434/434/434 428/428/428
f 434/434/434 436/436/436 435/435/435
f 434/434/434 437/437/437 436/436/436
f 436/436/436 438/438/438 435/435/435
f 437/437/437 439/439/439 436/436/436
f 437/437/437 440/440/440 439/439/439
f 436/436/436 441/441/441 438/438/438
f 439/439/439 441/441/441 436/436/436
f 440/440/440 442/442/442 439/439/439
f 440/440/440 443/443/443 442/442/442
f 442/442/442 444/444/444 439/439/439
f 439/439/439 444/444/444 441/441/441
f 442/442/442 445/445/445 444/444/444
f 441/441/441 444/444/444 446/446/446
f 438/438/438 441/441/441 447/447/447
f 441/441/441 446/446/446 447/447/447
f 444/444/444 445/445/445 448/448/448
f 444/444/444 448/448/448 446/446/446
f 446/446/446 449/449/449 447/447/447
f 448/448/448 450/450/450 446/446/446
f 446/446/446 450/450/450 449/449/449
f 438/438/438 447/447/447 451/451/451
f 447/447/447 452/452/452 451/451/451
f 447/447/447 449/449/449 452/452/452
f 453/453/453 438/438/438 451/451/451
f 453/453/453 451/451/451 452/452/452
f 438/438/438 453/453/453 454/454/454
f 438/438/438 454/454/454 455/455/455
f 456/456/456 455/455/455 454/454/454
f 456/456/456 457/457/457 455/455/455
f 449/449/449 458/458/458 452/452/452
f 459/459/459 453/453/453 452/452/452
f 459/459/459 452/452/452 458/458/458
f 460/460/460 459/459/459 458/458/458
f 459/459/459 460/460/460 461/461/461
f 453/453/453 459/459/459 462/462/462
f 459/459/459 461/461/461 462/462/462
f 463/463/463 462/462/462 461/461/461
f 463/463/463 464/464/464 462/462/462
f 453/453/453 462/462/462 465/465/465
f 466/466/466 465/465/465 462/462/462
f 466/466/466 467/467/467 465/465/465
f 449/449/449 468/468/468 458/458/458
f 450/450/450 468/468/468 449/449/449
f 460/460/460 458/458/458 469/469/469
f 468/468/468 469/469/469 458/458/458
f 450/450/450 470/470/470 468/468/468
f 468/468/468 471/471/471 469/469/469
f 470/470/470 471/471/471 468/468/468
f 472/472/472 460/460/460 469/469/469
f 472/472/472 469/469/469 471/471/471
f 473/473/473 470/470/470 450/450/450
f 448/448/448 473/473/473 450/450/450
f 474/474/474 473/473/473 448/448/448
f 445/445/445 474/474/474 448/448/448
f 475/475/475 472/472/472 471/471/471
f 470/470/470 476/476/476 471/471/471
f 475/475/475 471/471/471 476/476/476
f 473/473/473 477/477/477 470/470/470
f 477/477/477 476/476/476 470/470/470
f 474/474/474 478/478/478 473/473/473
f 478/478/478 477/477/477 473/473/473
f 445/445/445 479/479/479 474/474/474
f 479/479/479 478/478/478 474/474/474
f 480/480/480 479/479/479 445/445/445
f 480/480/480 445/445/445 481/481/481
f 443/443/443 480/480/480 481/481/481
f 443/443/443 482/482/482 480/480/480
f 479/479/479 483/483/483 478/478/478
f 484/484/484 483/483/483 479/479/479
f 478/478/478 485/485/485 477/477/477
f 483/483/483 485/485/485 478/478/478
f 477/477/477 486/486/486 476/476/476
f 485/485/485 486/486/486 477/477/477
f 484/484/484 487/487/487 483/483/483
f 488/488/488 487/487/487 484/484/484
f 488/488/488 489/489/489 487/487/487
f 490/490/490 476/476/476 486/486/486
f 491/491/491 490/490/490 486/486/486
f 490/490/490 475/475/475 476/476/476
f 485/485/485 492/492/492 486/486/486
f 491/491/491 486/486/486 492/492/492
f 493/493/493 492/492/492 485/485/485
f 483/483/483 493/493/493 485/485/485
f 493/493/493 491/491/491 492/492/492
f 483/483/483 494/494/494 493/493/493
f 494/494/494 491/491/491 493/493/493
f 495/495/495 494/494/494 483/483/483
f 495/495/495 496/496/496 494/494/494
f 497/497/497 496/496/496 495/495/495
f 497/497/497 498/498/498 496/496/496
f 496/496/496 499/499/499 494/494/494
f 494/494/494 499/499/499 491/491/491
f 496/496/496 500/500/500 499/499/499
f 501/501/501 500/500/500 496/496/496
f 501/501/501 502/502/502 500/500/500
f 499/499/499 503/503/503 491/491/491
f 499/499/499 504/504/504 503/503/503
f 504/504/504 499/499/499 505/505/505
f 506/506/506 504/504/504 505/505/505
f 506/506/506 507/507/507 504/504/504
f 503/503/503 504/504/504 508/508/508
f 491/491/491 503/503/503 509/509/509
f 509/509/509 503/503/503 508/508/508
f 491/491/491 509/509/509 490/490/490
f 490/490/490 509/509/509 510/510/510
f 490/490/490 510/510/510 475/475/475
f 509/509/509 508/508/508 511/511/511
f 510/510/510 509/509/509 511/511/511
f 475/475/475 510/510/510 512/512/512
f 475/475/475 512/512/512 472/472/472
f 472/472/472 512/512/512 460/460/460
f 512/512/512 510/510/510 513/513/513
f 510/510/510 511/511/511 513/513/513
f 508/508/508 514/514/514 511/511/511
f 508/508/508 515/515/515 514/514/514
f 516/516/516 514/514/514 515/515/515
f 516/516/516 517/517/517 514/514/514
f 511/511/511 514/514/514 518/518/518
f 517/517/517 518/518/518 514/514/514
f 511/511/511 518/518/518 513/513/513
f 517/517/517 519/519/519 518/518/518
f 519/519/519 520/520/520 518/518/518
f 513/513/513 518/518/518 520/520/520
f 519/519/519 521/521/521 520/520/520
f 512/512/512 513/513/513 522/522/522
f 513/513/513 520/520/520 522/522/522
f 460/460/460 512/512/512 522/522/522
f 521/521/521 523/523/523 520/520/520
f 522/522/522 520/520/520 523/523/523
f 521/521/521 524/524/524 523/523/523
f 460/460/460 522/522/522 525/525/525
f 522/522/522 523/523/523 525/525/525
f 524/524/524 526/526/526 523/523/523
f 525/525/525 523/523/523 526/526/526
f 524/524/524 527/527/527 526/526/526
f 527/527/527 528/528/528 526/526/526
f 525/525/525 526/526/526 528/528/528
f 527/527/527 529/529/529 528/528/528
f 530/530/530 460/460/460 525/525/525
f 460/460/460 530/530/530 531/531/531
f 530/530/530 525/525/525 532/532/532
f 530/530/530 533/533/533 531/531/531
f 534/534/534 530/530/530 532/532/532
f 530/530/530 535/535/535 533/533/533
f 534/534/534 535/535/535 530/530/530
f 536/536/536 538/538/538 537/537/537
f 536/536/536 539/539/539 538/538/538
f 540/540/540 539/539/539 536/536/536
f 540/540/540 541/541/541 539/539/539
f 541/541/541 538/538/538 539/539/539
f 541/541/541 516/516/516 538/538/538
f 542/542/542 544/544/544 543/543/543
f 542/542/542 545/545/545 544/544/544
f 546/546/546 548/548/548 547/547/547
f 546/546/546 547/547/547 549/549/549
f 549/549/549 547/547/547 550/550/550
f 549/549/549 550/550/550 551/551/551
f 551/551/551 550/550/550 131/131/131
f 551/551/551 131/131/131 552/552/552
f 553/553/553 555/555/555 554/554/554
f 553/553/553 556/556/556 555/555/555
f 557/557/557 559/559/559 558/558/558
f 557/557/557 560/560/560 559/559/559
f 561/561/561 562/562/562 557/557/557
f 561/561/561 111/111/111 562/562/562
f 563/563/563 565/565/565 564/564/564
f 563/563/563 564/564/564 566/566/566
f 482/482/482 563/563/563 566/566/566
f 566/566/566 564/564/564 567/567/567
f 482/482/482 566/566/566 568/568/568
f 566/566/566 567/567/567 568/568/568
f 569/569/569 571/571/571 570/570/570
f 570/570/570 571/571/571 572/572/572
f 92/92/92 572/572/572 74/74/74
f 92/92/92 573/573/573 572/572/572
f 574/574/574 576/576/576 575/575/575
f 574/574/574 575/575/575 577/577/577
f 578/578/578 574/574/574 577/577/577
f 579/579/579 580/580/580 575/575/575
f 579/579/579 575/575/575 581/581/581
f 579/579/579 581/581/581 582/582/582
f 583/583/583 585/585/585 584/584/584
f 583/583/583 584/584/584 68/68/68
f 586/586/586 95/95/95 587/587/587
f 586/586/586 588/588/588 95/95/95
f 589/589/589 591/591/591 590/590/590
f 589/589/589 590/590/590 176/176/176
f 592/592/592 594/594/594 593/593/593
f 594/594/594 592/592/592 595/595/595
f 596/596/596 597/597/597 595/595/595
f 596/596/596 64/64/64 597/597/597
