mtllib P_RockHexic_RockSlanted04.mtl
v 0.4669058 7.282067 1.428644 0 0.7254902 0
v -0.6335552 7.913664 -0.2948648 0 0.8627451 0
v 0.3031647 7.910972 -2.098831 0 0.5921569 0
v 2.345973 7.276667 -2.190128 0 0.5921569 0
v 2.509714 6.647763 1.337347 0 0.7607843 0
v 0.2357597 7.827661 -2.214227 0 0.5921569 0
v 3.446435 6.645071 -0.4666197 0 0.7607843 0
v 2.408918 7.152804 -2.311349 0 0.5921569 0
v 3.579598 6.480985 -0.4778634 0 0.6431373 0
v 0.2357597 -6.799956 -2.214227 0 0.2156863 0
v 2.408918 -7.474657 -2.311348 0 0 0
v -4.46969 -4.377666 -2.4188 0 0 0
v -4.46969 5.442847 -2.4188 0 0.1960784 0
v -5.38954 5.442847 -0.8057914 0 0 0
v -5.38954 -4.377666 -0.8057913 0 0 0
v -5.257109 -4.546415 -0.8129247 0 0 0
v -4.408396 -4.546415 -2.301191 0 0 0
v 0.05752465 -6.152742 3.99069 0 0 0
v 0.05752467 3.841997 3.99069 0 0.3490196 0
v 2.163511 3.151989 4.031116 0 0.1254902 0
v 2.163511 -6.842933 4.031116 0 0.1098039 0
v 0.1279543 -6.276566 3.873936 0 0 0
v -0.8275321 -5.620303 2.143198 0 0.7960784 0
v -0.9604584 -5.453295 2.146638 0 0.5529412 0
v 2.104445 -6.923936 3.911929 0 0.2078431 0
v 3.118353 -6.91565 2.230761 0 0 0
v 3.251515 -6.833499 2.227491 0 0 0
v 0.5607075 4.841061 0.7559116 0 0.7960784 0
v -0.4216795 5.496855 -0.9749131 0 0.7607843 0
v -0.4216796 -5.402476 -0.9749131 0 0.8941177 0
v 0.5607075 -6.152763 0.7559115 0 0.8039216 0
v -0.4905023 -5.527941 -0.85772 0 0.945098 0
v 0.429133 -6.23021 0.7625418 0 0.8941177 0
v -2.353125 -4.864664 -0.8714434 0 0.4745098 0
v -2.412375 -4.693716 -0.9895818 0 0.2392157 0
v -3.288429 -4.870197 0.7212157 0 0 0
v -2.369053 -5.539054 2.341122 0 0 0
v -0.505718 -6.23574 2.354428 0 0.8235294 0
v 3.251515 3.161426 2.227491 0 0.4078431 0
v 2.233532 3.851438 0.3834398 0 0.2235294 0
v 2.233532 -6.143314 0.3834398 0 0 0
v 3.251515 -6.833499 2.227491 0 0 0
v 2.163089 -6.267742 0.5002161 0 0 0
v 3.118353 -6.91565 2.230761 0 0 0
v 0.1866491 -5.619796 0.4623253 0 0.8352941 0
v 0.1275453 -5.453299 0.3430133 0 0.8196079 0
v -0.8275321 -5.620303 2.143198 0 0.7960784 0
v 0.1279543 -6.276566 3.873936 0 0 0
v 2.104445 -6.923936 3.911929 0 0.2078431 0
v -3.286921 6.185599 0.7228558 0 0.5921569 0
v -2.350957 6.191112 -0.8709238 0 0.8431373 0
v -0.4907963 5.620327 -0.8572192 0 0.854902 0
v -2.368759 5.609217 2.340621 0 0.5921569 0
v 0.4276305 5.007163 0.7609137 0 0.8392157 0
v -3.420475 6.101852 0.7270349 0 0.3882353 0
v -0.507871 5.0016 2.35391 0 0.6666667 0
v -2.437879 5.484927 2.45832 0 0.5921569 0
v -0.4473929 4.835063 2.472528 0 0.7647059 0
v -3.420475 -4.699679 0.7270349 0 0 0
v -2.437879 -5.414404 2.458321 0 0 0
v 5.080452 3.470412 0.7306724 0 0.5921569 0
v 4.242689 4.066449 -0.7638402 0 0.5137255 0
v 4.242689 -6.239166 -0.7638404 0 0 0
v 5.080452 -6.856436 0.7306724 0 0 0
v 4.173336 -6.362963 -0.6469131 0 0 0
v 4.94863 -6.934101 0.7361481 0 0 0
v 2.588968 -5.777625 -0.6658967 0 0 0
v 2.530657 -5.606768 -0.7843592 0 0 0
v 0.5179863 8.113969 -2.145453 0 0.5921569 0
v -0.443276 8.612968 -3.734131 0 0 0
v -0.443276 -4.339736 -3.734131 0 0 0
v 0.5179863 -5.031279 -2.145453 0 0 0
v -0.5087519 -4.46455 -3.615142 0 0 0
v -2.238012 -3.814949 -3.579629 0 0 0
v -2.299718 -3.642473 -3.696008 0 0 0
v 0.3866569 -5.108608 -2.135305 0 0 0
v -0.4388985 -5.103122 -0.6350349 0 0.9411765 0
v -0.3771933 -5.025329 -0.5186557 0 0.9019608 0
v -2.167577 8.744074 -0.6005804 0 0.8156863 0
v -3.060356 9.207577 -2.076073 0 0.2980392 0
v -2.233518 9.203611 -3.578677 0 0.3647059 0
v -0.5093341 8.73612 -3.614084 0 0 0
v -0.4433929 8.276582 -0.6359875 0 0.854902 0
v -2.299717 9.116378 -3.696009 0 0.3098039 0
v 0.3834457 8.272616 -2.13859 0 0.5921569 0
v -0.443276 8.612968 -3.734131 0 0 0
v 0.5179863 8.113969 -2.145453 0 0.5921569 0
v -2.299718 -3.642473 -3.696008 0 0 0
v -0.443276 -4.339736 -3.734131 0 0 0
v -4.452558 -5.017074 0.7973258 0 0 0
v -4.452558 4.886187 0.7973259 0 0.345098 0
v -2.595726 4.287042 0.7874346 0 0 0
v -2.595726 -5.656674 0.7874346 0 0 0
v -4.385098 -5.141576 0.6790309 0 0 0
v -2.65702 -5.736736 0.6698256 0 0 0
v -5.257109 -4.546415 -0.8129247 0 0 0
v -5.38954 -4.377666 -0.8057913 0 0 0
v -2.437879 -5.414404 2.458321 0 0 0
v -2.437879 5.484927 2.45832 0 0.5921569 0
v -0.4473929 4.835063 2.472528 0 0.7647059 0
v -0.4473929 -6.158728 2.472528 0 0.8039216 0
v -2.369053 -5.539054 2.341122 0 0 0
v -3.288429 -4.870197 0.7212157 0 0 0
v -3.420475 -4.699679 0.7270349 0 0 0
v -0.505718 -6.23574 2.354428 0 0.8235294 0
v 0.429133 -6.23021 0.7625418 0 0.8941177 0
v 0.5607075 -6.152763 0.7559115 0 0.8039216 0
v 0.1275453 -5.453299 0.3430133 0 0.8196079 0
v 0.1275453 4.541623 0.3430133 0 0.6039216 0
v -0.9604585 4.541619 2.146638 0 0.5137255 0
v -0.9604584 -5.453295 2.146638 0 0.5529412 0
v 0.1866491 -5.619796 0.4623253 0 0.8352941 0
v -0.8275321 -5.620303 2.143198 0 0.7960784 0
v 2.494155 -6.208473 2.184147 0 0.5647059 0
v 2.494155 4.096096 2.184147 0 0.4039216 0
v 4.206187 3.485231 2.204667 0 0.5372549 0
v 4.206187 -6.841085 2.204667 0 0 0
v 2.563508 -6.334705 2.06722 0 0.5137255 0
v 1.788213 -5.763568 0.6841583 0 0 0
v 1.656391 -5.591426 0.6896342 0 0 0
v 2.588968 -5.777625 -0.6658967 0 0 0
v 4.173336 -6.362963 -0.6469131 0 0 0
v 4.147876 -6.920045 2.086204 0 0 0
v 5.080452 -6.856436 0.7306724 0 0 0
v 4.94863 -6.934101 0.7361481 0 0 0
v -2.412375 -4.693716 -0.9895818 0 0.2392157 0
v -2.412375 6.107788 -0.9895818 0 0.7960784 0
v -3.420475 6.101852 0.7270349 0 0.3882353 0
v -3.420475 -4.699679 0.7270349 0 0 0
v -2.353125 -4.864664 -0.8714434 0 0.4745098 0
v -3.288429 -4.870197 0.7212157 0 0 0
v 2.530657 4.677512 -0.7843592 0 0.0627451 0
v 1.656391 4.69234 0.6896342 0 0 0
v 1.656391 -5.591426 0.6896342 0 0 0
v 2.530657 -5.606768 -0.7843592 0 0 0
v 1.788213 -5.763568 0.6841583 0 0 0
v 2.588968 -5.777625 -0.6658967 0 0 0
v -2.233635 -4.327839 -0.4805339 0 0.1254902 0
v -2.233635 8.621555 -0.4805339 0 0.7882353 0
v -0.3771933 8.118261 -0.5186556 0 0.8666667 0
v -0.3771933 -5.025329 -0.5186557 0 0.9019608 0
v -2.168159 -4.453522 -0.5995225 0 0.3333333 0
v -0.4388985 -5.103122 -0.6350349 0 0.9411765 0
v -3.063568 -3.809464 -2.079358 0 0 0
v -3.194897 -3.636527 -2.06921 0 0 0
v -2.238012 -3.814949 -3.579629 0 0 0
v -0.5087519 -4.46455 -3.615142 0 0 0
v 0.3866569 -5.108608 -2.135305 0 0 0
v 0.4039614 -7.468896 1.549865 0 0.8784314 0
v 0.4039614 7.158566 1.549865 0 0.6745098 0
v 2.577119 6.483865 1.452743 0 0.7607843 0
v 2.577119 -8.143753 1.452743 0 0 0
v 0.4669057 -7.592759 1.428644 0 0.9176471 0
v 2.509714 -8.227063 1.337347 0 0 0
v -0.6335551 -6.961162 -0.2948647 0 0.9843137 0
v -0.7667184 -6.797076 -0.2836208 0 0.9568627 0
v 0.3031647 -6.963854 -2.098831 0 0.2509804 0
v 2.345973 -7.598157 -2.190128 0 0 0
v 3.446434 -8.229755 -0.4666196 0 0 0
v -2.299717 9.116378 -3.696009 0 0.3098039 0
v -3.194897 9.120672 -2.06921 0 0.2627451 0
v -3.194897 -3.636527 -2.06921 0 0 0
v -2.299718 -3.642473 -3.696008 0 0 0
v -3.063568 -3.809464 -2.079358 0 0 0
v -2.238012 -3.814949 -3.579629 0 0 0
v 0.2357597 7.827661 -2.214227 0 0.5921569 0
v -0.7667184 7.830543 -0.2836208 0 0.854902 0
v -0.7667184 -6.797076 -0.2836208 0 0.9568627 0
v 0.2357597 -6.799956 -2.214227 0 0.2156863 0
v -0.6335551 -6.961162 -0.2948647 0 0.9843137 0
v 0.3031647 -6.963854 -2.098831 0 0.2509804 0
v -1.675876 4.287042 -0.8255737 0 0 0
v -2.612858 4.886187 -2.428691 0 0.3764706 0
v -2.612858 -5.017074 -2.428691 0 0 0
v -1.675876 -5.656674 -0.8255736 0 0.9411765 0
v -2.680318 -5.141576 -2.310396 0 0 0
v -4.408396 -4.546415 -2.301191 0 0 0
v -4.46969 -4.377666 -2.4188 0 0 0
v -4.385098 -5.141576 0.6790309 0 0 0
v -5.257109 -4.546415 -0.8129247 0 0 0
v -2.65702 -5.736736 0.6698256 0 0 0
v -2.595726 -5.656674 0.7874346 0 0 0
v -1.808308 -5.736736 -0.8184403 0 0.8705882 0
v 3.579598 6.480985 -0.4778634 0 0.6431373 0
v 2.408918 7.152804 -2.311349 0 0.5921569 0
v 2.408918 -7.474657 -2.311348 0 0 0
v 3.579598 -8.146634 -0.4778634 0 0 0
v 2.345973 -7.598157 -2.190128 0 0 0
v 0.3031647 -6.963854 -2.098831 0 0.2509804 0
v 0.2357597 -6.799956 -2.214227 0 0.2156863 0
v 3.446434 -8.229755 -0.4666196 0 0 0
v 2.509714 -8.227063 1.337347 0 0 0
v 2.577119 -8.143753 1.452743 0 0 0
v -0.4216795 5.496855 -0.9749131 0 0.7607843 0
v 0.5607075 4.841061 0.7559116 0 0.7960784 0
v 0.4276305 5.007163 0.7609137 0 0.8392157 0
v -0.4907963 5.620327 -0.8572192 0 0.854902 0
v -2.412375 6.107788 -0.9895818 0 0.7960784 0
v -2.350957 6.191112 -0.8709238 0 0.8431373 0
v -3.286921 6.185599 0.7228558 0 0.5921569 0
v -3.420475 6.101852 0.7270349 0 0.3882353 0
v -2.412375 -4.693716 -0.9895818 0 0.2392157 0
v -0.4216796 -5.402476 -0.9749131 0 0.8941177 0
v 2.577119 6.483865 1.452743 0 0.7607843 0
v 2.509714 6.647763 1.337347 0 0.7607843 0
v 3.446435 6.645071 -0.4666197 0 0.7607843 0
v 3.579598 6.480985 -0.4778634 0 0.6431373 0
v 2.577119 -8.143753 1.452743 0 0 0
v 3.579598 -8.146634 -0.4778634 0 0 0
v -0.7667184 7.830543 -0.2836208 0 0.854902 0
v 0.2357597 7.827661 -2.214227 0 0.5921569 0
v 0.3031647 7.910972 -2.098831 0 0.5921569 0
v -0.6335552 7.913664 -0.2948648 0 0.8627451 0
v 0.4669058 7.282067 1.428644 0 0.7254902 0
v 0.4039614 7.158566 1.549865 0 0.6745098 0
v -0.7667184 -6.797076 -0.2836208 0 0.9568627 0
v 0.4039614 -7.468896 1.549865 0 0.8784314 0
v 2.509714 6.647763 1.337347 0 0.7607843 0
v 2.577119 6.483865 1.452743 0 0.7607843 0
v -3.194897 9.120672 -2.06921 0 0.2627451 0
v -2.299717 9.116378 -3.696009 0 0.3098039 0
v -2.233518 9.203611 -3.578677 0 0.3647059 0
v -3.060356 9.207577 -2.076073 0 0.2980392 0
v -2.167577 8.744074 -0.6005804 0 0.8156863 0
v -2.233635 8.621555 -0.4805339 0 0.7882353 0
v -3.194897 -3.636527 -2.06921 0 0 0
v -2.233635 -4.327839 -0.4805339 0 0.1254902 0
v -0.4433929 8.276582 -0.6359875 0 0.854902 0
v -0.3771933 8.118261 -0.5186556 0 0.8666667 0
v -0.3771933 8.118261 -0.5186556 0 0.8666667 0
v -0.4433929 8.276582 -0.6359875 0 0.854902 0
v 0.3834457 8.272616 -2.13859 0 0.5921569 0
v 0.5179863 8.113969 -2.145453 0 0.5921569 0
v -0.3771933 -5.025329 -0.5186557 0 0.9019608 0
v 0.5179863 -5.031279 -2.145453 0 0 0
v -2.612858 4.886187 -2.428691 0 0.3764706 0
v -1.675876 4.287042 -0.8255737 0 0 0
v -1.809046 4.4526 -0.8190453 0 0 0
v -2.680511 5.009909 -2.310059 0 0.4745098 0
v -4.46969 5.442847 -2.4188 0 0.1960784 0
v -4.406404 5.527228 -2.300861 0 0.2431373 0
v -4.46969 -4.377666 -2.4188 0 0 0
v -2.612858 -5.017074 -2.428691 0 0 0
v -2.595726 4.287042 0.7874346 0 0 0
v -2.657917 4.4526 0.6694981 0 0 0
v -1.809046 4.4526 -0.8190453 0 0 0
v -1.675876 4.287042 -0.8255737 0 0 0
v -2.595726 -5.656674 0.7874346 0 0 0
v -1.675876 -5.656674 -0.8255736 0 0.9411765 0
v 4.242689 4.066449 -0.7638402 0 0.5137255 0
v 5.080452 3.470412 0.7306724 0 0.5921569 0
v 4.948235 3.640867 0.7357137 0 0.5921569 0
v 4.173258 4.192328 -0.6467811 0 0.5686275 0
v 4.147305 3.654447 2.086065 0 0.6 0
v 2.563586 4.21962 2.067088 0 0.4117647 0
v 2.589539 4.7575 -0.6657574 0 0.1254902 0
v 1.788609 4.77108 0.6845927 0 0 0
v 1.656391 4.69234 0.6896342 0 0 0
v 2.530657 4.677512 -0.7843592 0 0.0627451 0
v 2.530657 -5.606768 -0.7843592 0 0 0
v 4.242689 -6.239166 -0.7638404 0 0 0
v 4.206187 3.485231 2.204667 0 0.5372549 0
v 4.147305 3.654447 2.086065 0 0.6 0
v 4.948235 3.640867 0.7357137 0 0.5921569 0
v 5.080452 3.470412 0.7306724 0 0.5921569 0
v 4.206187 -6.841085 2.204667 0 0 0
v 5.080452 -6.856436 0.7306724 0 0 0
v 1.656391 4.69234 0.6896342 0 0 0
v 1.788609 4.77108 0.6845927 0 0 0
v 2.563586 4.21962 2.067088 0 0.4117647 0
v 2.494155 4.096096 2.184147 0 0.4039216 0
v 1.656391 -5.591426 0.6896342 0 0 0
v 2.494155 -6.208473 2.184147 0 0.5647059 0
v 4.147305 3.654447 2.086065 0 0.6 0
v 4.206187 3.485231 2.204667 0 0.5372549 0
v 2.233532 3.851438 0.3834398 0 0.2235294 0
v 3.251515 3.161426 2.227491 0 0.4078431 0
v 3.118354 3.327346 2.230761 0 0.3176471 0
v 2.163089 3.975255 0.5002161 0 0.2235294 0
v 0.1275453 4.541623 0.3430133 0 0.6039216 0
v 0.1866492 4.6232 0.4623253 0 0.6470588 0
v -0.8275321 4.622693 2.143198 0 0.6705883 0
v -0.9604585 4.541619 2.146638 0 0.5137255 0
v 0.1275453 -5.453299 0.3430133 0 0.8196079 0
v 2.233532 -6.143314 0.3834398 0 0 0
v 2.163511 3.151989 4.031116 0 0.1254902 0
v 3.251515 -6.833499 2.227491 0 0 0
v 2.163511 -6.842933 4.031116 0 0.1098039 0
v 3.251515 3.161426 2.227491 0 0.4078431 0
v 2.104445 3.31906 3.911929 0 0.1490196 0
v 3.118354 3.327346 2.230761 0 0.3176471 0
v -0.4473929 4.835063 2.472528 0 0.7647059 0
v 0.5607075 -6.152763 0.7559115 0 0.8039216 0
v -0.4473929 -6.158728 2.472528 0 0.8039216 0
v 0.5607075 4.841061 0.7559116 0 0.7960784 0
v -0.507871 5.0016 2.35391 0 0.6666667 0
v 0.4276305 5.007163 0.7609137 0 0.8392157 0
v -5.38954 -4.377666 -0.8057913 0 0 0
v -4.452558 4.886187 0.7973259 0 0.345098 0
v -4.452558 -5.017074 0.7973258 0 0 0
v -5.38954 5.442847 -0.8057914 0 0 0
v -4.384905 5.009909 0.6786933 0 0.2392157 0
v -2.657917 4.4526 0.6694981 0 0 0
v -2.595726 4.287042 0.7874346 0 0 0
v -1.809046 4.4526 -0.8190453 0 0 0
v -2.680511 5.009909 -2.310059 0 0.4745098 0
v -4.406404 5.527228 -2.300861 0 0.2431373 0
v -5.25581 5.527228 -0.811379 0 0 0
v -4.46969 5.442847 -2.4188 0 0.1960784 0
v 2.163089 3.975255 0.5002161 0 0.2235294 0
v -0.8275321 4.622693 2.143198 0 0.6705883 0
v 0.1866492 4.6232 0.4623253 0 0.6470588 0
v 0.1279543 3.966431 3.873936 0 0.4745098 0
v 3.118354 3.327346 2.230761 0 0.3176471 0
v -0.9604585 4.541619 2.146638 0 0.5137255 0
v 2.104445 3.31906 3.911929 0 0.1490196 0
v 0.05752467 3.841997 3.99069 0 0.3490196 0
v 2.163511 3.151989 4.031116 0 0.1254902 0
v -0.9604584 -5.453295 2.146638 0 0.5529412 0
v 0.05752465 -6.152742 3.99069 0 0 0
vn 0.02549322 0.8595762 0.5103711
vn -0.2345206 0.9618848 0.1406335
vn -0.01892806 0.9614016 -0.2744969
vn 0.4327366 0.8587705 -0.2743213
vn 0.4413209 0.76806 0.4640255
vn -0.4314603 0.4599287 -0.7760848
vn 0.6341026 0.7676998 0.09247089
vn 0.4986888 0.3571767 -0.7897685
vn 0.9606791 0.2772355 -0.01536815
vn -0.5403628 -0.277529 -0.7943461
vn 0.3588398 -0.3579338 -0.8620426
vn -0.5113508 -0.2675669 -0.8166567
vn -0.4034886 0.4572545 -0.7925372
vn -0.8875524 0.4572543 0.05629574
vn -0.9632339 -0.267567 -0.02425303
vn -0.6470851 -0.7513661 -0.1293438
vn -0.4408149 -0.7513661 -0.4910512
vn -0.5522706 -0.3565539 0.7535692
vn -0.4097506 0.354913 0.8403221
vn 0.4895513 0.2711414 0.8287472
vn 0.376843 -0.4659748 0.8005353
vn -0.4611925 -0.8553531 0.2359499
vn -0.6369612 -0.7578197 -0.1413858
vn -0.9613888 -0.2710904 -0.04734593
vn -0.00884929 -0.9642419 0.2648759
vn 0.2352888 -0.9624682 -0.1352562
vn 0.8854536 -0.4629079 -0.04108763
vn 0.9614046 0.2727463 0.03620209
vn 0.5410533 0.3593121 -0.7603658
vn 0.3936936 -0.3499151 -0.8500381
vn 0.8776746 -0.4752079 -0.06216686
vn -0.03491537 -0.8438283 -0.5354762
vn 0.2047773 -0.9663647 -0.1555813
vn -0.4402071 -0.7444158 -0.5020585
vn -0.5015959 -0.263348 -0.8240445
vn -0.651255 -0.7452097 -0.143281
vn -0.483137 -0.8456197 0.226949
vn -0.03376035 -0.9674659 0.2507388
vn 0.960757 0.273277 0.04760024
vn 0.5518106 0.3563384 -0.754008
vn 0.4099497 -0.3554534 -0.8399965
vn 0.8854536 -0.4629079 -0.04108763
vn -0.003369267 -0.8543754 -0.5196453
vn 0.2352888 -0.9624682 -0.1352562
vn -0.4200124 -0.7592029 -0.4971928
vn -0.4898735 -0.2722551 -0.8281915
vn -0.6369612 -0.7578197 -0.1413858
vn -0.4611925 -0.8553531 0.2359499
vn -0.00884929 -0.9642419 0.2648759
vn -0.2445748 0.9607881 0.1306503
vn -0.007398065 0.961872 -0.2734
vn 0.4495349 0.8588199 -0.2456559
vn 0.002219297 0.8569834 0.5153393
vn 0.6361338 0.7598225 0.1341771
vn -0.8872729 0.4587942 0.04748261
vn 0.4249077 0.7589895 0.4933441
vn -0.4010698 0.3575901 0.8433697
vn 0.4993801 0.2720699 0.8225555
vn -0.9637983 -0.263982 -0.03750305
vn -0.5505092 -0.3515877 0.7571827
vn 0.9635772 0.2643881 0.04022317
vn 0.5515743 0.3511176 -0.7566255
vn 0.3958719 -0.3549174 -0.846947
vn 0.8784269 -0.4749538 -0.05277441
vn -0.03504592 -0.8485551 -0.5279451
vn 0.2075834 -0.9677138 -0.1429653
vn -0.4459957 -0.7428014 -0.4993335
vn -0.4997258 -0.2628851 -0.8253275
vn 0.9574367 0.2885907 0.005517277
vn 0.5090889 0.3602289 -0.7817056
vn 0.3668323 -0.3523401 -0.8609823
vn 0.8754873 -0.475739 -0.08481983
vn -0.05608246 -0.8444513 -0.5326883
vn -0.4644875 -0.737719 -0.4899205
vn -0.5262204 -0.2597998 -0.809689
vn 0.1997529 -0.9672415 -0.156661
vn -0.02780144 -0.9660641 0.2568021
vn 0.3959862 -0.4743022 0.7862775
vn -0.01344127 0.8684414 0.4956096
vn -0.2617408 0.957736 0.119305
vn -0.0375447 0.9568974 -0.2879892
vn 0.4126405 0.8670091 -0.2793258
vn 0.408011 0.7867674 0.4631675
vn -0.4222617 0.4499319 -0.7869285
vn 0.6108797 0.7861205 0.09402469
vn 0.5090889 0.3602289 -0.7817056
vn 0.9574367 0.2885907 0.005517277
vn -0.5262204 -0.2597998 -0.809689
vn 0.3668323 -0.3523401 -0.8609823
vn -0.5366212 -0.3543471 0.7658171
vn -0.3912837 0.3593685 0.8472021
vn 0.509603 0.2739622 0.8156283
vn 0.3919991 -0.4684039 0.791792
vn -0.4655856 -0.8509471 0.2431439
vn -0.01290974 -0.9646472 0.2632284
vn -0.6470851 -0.7513661 -0.1293438
vn -0.9632339 -0.267567 -0.02425303
vn -0.5505092 -0.3515877 0.7571827
vn -0.4010698 0.3575901 0.8433697
vn 0.4993801 0.2720699 0.8225555
vn 0.3742403 -0.476535 0.7955241
vn -0.483137 -0.8456197 0.226949
vn -0.651255 -0.7452097 -0.143281
vn -0.9637983 -0.263982 -0.03750305
vn -0.03376035 -0.9674659 0.2507388
vn 0.2047773 -0.9663647 -0.1555813
vn 0.8776746 -0.4752079 -0.06216686
vn -0.4898735 -0.2722551 -0.8281915
vn -0.3766809 0.4645446 -0.8014423
vn -0.8839846 0.465671 0.04149358
vn -0.9613888 -0.2710904 -0.04734593
vn -0.4200124 -0.7592029 -0.4971928
vn -0.6369612 -0.7578197 -0.1413858
vn -0.5540584 -0.3498392 0.7554018
vn -0.3982388 0.3560619 0.8453555
vn 0.4988105 0.2662711 0.8247956
vn 0.3717798 -0.4710626 0.7999249
vn -0.4849586 -0.8431059 0.2323526
vn -0.6569974 -0.7403985 -0.142002
vn -0.9644894 -0.2609648 -0.04071369
vn -0.4459957 -0.7428014 -0.4993335
vn -0.03504592 -0.8485551 -0.5279451
vn -0.03306205 -0.9644323 0.262254
vn 0.8784269 -0.4749538 -0.05277441
vn 0.2075834 -0.9677138 -0.1429653
vn -0.5015959 -0.263348 -0.8240445
vn -0.3916477 0.4600442 -0.7968509
vn -0.8872729 0.4587942 0.04748261
vn -0.9637983 -0.263982 -0.03750305
vn -0.4402071 -0.7444158 -0.5020585
vn -0.651255 -0.7452097 -0.143281
vn -0.3749978 0.4683665 -0.800006
vn -0.8801271 0.4720845 0.05012611
vn -0.9644894 -0.2609648 -0.04071369
vn -0.4997258 -0.2628851 -0.8253275
vn -0.6569974 -0.7403985 -0.142002
vn -0.4459957 -0.7428014 -0.4993335
vn -0.5309222 -0.3505805 0.7715018
vn -0.3874145 0.3615771 0.8480401
vn 0.517573 0.2891261 0.8053101
vn 0.3959862 -0.4743022 0.7862775
vn -0.4814335 -0.8425702 0.2414484
vn -0.02780144 -0.9660641 0.2568021
vn -0.6640675 -0.7368875 -0.1265356
vn -0.9657851 -0.2591394 -0.01028551
vn -0.4644875 -0.737719 -0.4899205
vn -0.05608246 -0.8444513 -0.5326883
vn 0.1997529 -0.9672415 -0.156661
vn -0.4986894 -0.357175 0.7897689
vn -0.3588409 0.357933 0.8620425
vn 0.5403622 0.2775289 0.7943466
vn 0.4314621 -0.4599291 0.7760836
vn -0.4327377 -0.8587694 0.2743232
vn 0.01893015 -0.9614022 0.2744949
vn -0.6341023 -0.7677001 -0.09247089
vn -0.9606789 -0.2772359 0.01536837
vn -0.4413217 -0.7680601 -0.4640243
vn -0.02549545 -0.8595765 -0.5103708
vn 0.2345176 -0.9618856 -0.140633
vn -0.4222617 0.4499319 -0.7869285
vn -0.890329 0.4508842 0.06338565
vn -0.9657851 -0.2591394 -0.01028551
vn -0.5262204 -0.2597998 -0.809689
vn -0.6640675 -0.7368875 -0.1265356
vn -0.4644875 -0.737719 -0.4899205
vn -0.4314603 0.4599287 -0.7760848
vn -0.8827862 0.460492 0.09292781
vn -0.9606789 -0.2772359 0.01536837
vn -0.5403628 -0.277529 -0.7943461
vn -0.6341023 -0.7677001 -0.09247089
vn -0.4413217 -0.7680601 -0.4640243
vn 0.9614585 0.2739633 0.02327312
vn 0.5299029 0.359368 -0.7681521
vn 0.3858538 -0.3543462 -0.8517956
vn 0.8810608 -0.4684034 -0.0658042
vn -0.02781315 -0.8509468 -0.5245151
vn -0.4408149 -0.7513661 -0.4910512
vn -0.5113508 -0.2675669 -0.8166567
vn -0.4655856 -0.8509471 0.2431439
vn -0.6470851 -0.7513661 -0.1293438
vn -0.01290974 -0.9646472 0.2632284
vn 0.3919991 -0.4684039 0.791792
vn 0.2199744 -0.9646471 -0.1451453
vn 0.9606791 0.2772355 -0.01536815
vn 0.4986888 0.3571767 -0.7897685
vn 0.3588398 -0.3579338 -0.8620426
vn 0.8827857 -0.460493 -0.09292743
vn -0.02549545 -0.8595765 -0.5103708
vn -0.4413217 -0.7680601 -0.4640243
vn -0.5403628 -0.277529 -0.7943461
vn 0.2345176 -0.9618856 -0.140633
vn 0.01893015 -0.9614022 0.2744949
vn 0.4314621 -0.4599291 0.7760836
vn 0.5410533 0.3593121 -0.7603658
vn 0.9614046 0.2727463 0.03620209
vn 0.6361338 0.7598225 0.1341771
vn 0.4495349 0.8588199 -0.2456559
vn -0.3916477 0.4600442 -0.7968509
vn -0.007398065 0.961872 -0.2734
vn -0.2445748 0.9607881 0.1306503
vn -0.8872729 0.4587942 0.04748261
vn -0.5015959 -0.263348 -0.8240445
vn 0.3936936 -0.3499151 -0.8500381
vn 0.5403622 0.2775289 0.7943466
vn 0.4413209 0.76806 0.4640255
vn 0.6341026 0.7676998 0.09247089
vn 0.9606791 0.2772355 -0.01536815
vn 0.4314621 -0.4599291 0.7760836
vn 0.8827857 -0.460493 -0.09292743
vn -0.8827862 0.460492 0.09292781
vn -0.4314603 0.4599287 -0.7760848
vn -0.01892806 0.9614016 -0.2744969
vn -0.2345206 0.9618848 0.1406335
vn 0.02549322 0.8595762 0.5103711
vn -0.3588409 0.357933 0.8620425
vn -0.9606789 -0.2772359 0.01536837
vn -0.4986894 -0.357175 0.7897689
vn 0.4413209 0.76806 0.4640255
vn 0.5403622 0.2775289 0.7943466
vn -0.890329 0.4508842 0.06338565
vn -0.4222617 0.4499319 -0.7869285
vn -0.0375447 0.9568974 -0.2879892
vn -0.2617408 0.957736 0.119305
vn -0.01344127 0.8684414 0.4956096
vn -0.3874145 0.3615771 0.8480401
vn -0.9657851 -0.2591394 -0.01028551
vn -0.5309222 -0.3505805 0.7715018
vn 0.408011 0.7867674 0.4631675
vn 0.517573 0.2891261 0.8053101
vn 0.517573 0.2891261 0.8053101
vn 0.408011 0.7867674 0.4631675
vn 0.6108797 0.7861205 0.09402469
vn 0.9574367 0.2885907 0.005517277
vn 0.3959862 -0.4743022 0.7862775
vn 0.8754873 -0.475739 -0.08481983
vn 0.5299029 0.359368 -0.7681521
vn 0.9614585 0.2739633 0.02327312
vn 0.6358716 0.7619901 0.1226306
vn 0.4423121 0.8596227 -0.2557518
vn -0.4034886 0.4572545 -0.7925372
vn -0.01521387 0.9604377 -0.2780793
vn -0.5113508 -0.2675669 -0.8166567
vn 0.3858538 -0.3543462 -0.8517956
vn 0.509603 0.2739622 0.8156283
vn 0.4293276 0.7619889 0.4848203
vn 0.6358716 0.7619901 0.1226306
vn 0.9614585 0.2739633 0.02327312
vn 0.3919991 -0.4684039 0.791792
vn 0.8810608 -0.4684034 -0.0658042
vn 0.5515743 0.3511176 -0.7566255
vn 0.9635772 0.2643881 0.04022317
vn 0.6510567 0.7463392 0.1382135
vn 0.4771244 0.8463021 -0.2369075
vn 0.4396353 0.7486829 0.4961803
vn 0.02703544 0.8516037 0.5234885
vn 0.02562493 0.963645 -0.265954
vn -0.2146407 0.9668101 0.1385918
vn -0.8801271 0.4720845 0.05012611
vn -0.3749978 0.4683665 -0.800006
vn -0.4997258 -0.2628851 -0.8253275
vn 0.3958719 -0.3549174 -0.846947
vn 0.4988105 0.2662711 0.8247956
vn 0.4396353 0.7486829 0.4961803
vn 0.6510567 0.7463392 0.1382135
vn 0.9635772 0.2643881 0.04022317
vn 0.3717798 -0.4710626 0.7999249
vn 0.8784269 -0.4749538 -0.05277441
vn -0.8801271 0.4720845 0.05012611
vn -0.2146407 0.9668101 0.1385918
vn 0.02703544 0.8516037 0.5234885
vn -0.3982388 0.3560619 0.8453555
vn -0.9644894 -0.2609648 -0.04071369
vn -0.5540584 -0.3498392 0.7554018
vn 0.4396353 0.7486829 0.4961803
vn 0.4988105 0.2662711 0.8247956
vn 0.5518106 0.3563384 -0.754008
vn 0.960757 0.273277 0.04760024
vn 0.6339585 0.7603687 0.1411953
vn 0.4605182 0.8554243 -0.2370068
vn -0.3766809 0.4645446 -0.8014423
vn 0.009194768 0.9633449 -0.2681084
vn -0.2311944 0.963478 0.135127
vn -0.8839846 0.465671 0.04149358
vn -0.4898735 -0.2722551 -0.8281915
vn 0.4099497 -0.3554534 -0.8399965
vn 0.4895513 0.2711414 0.8287472
vn 0.8854536 -0.4629079 -0.04108763
vn 0.376843 -0.4659748 0.8005353
vn 0.960757 0.273277 0.04760024
vn 0.4193542 0.7577863 0.4999019
vn 0.6339585 0.7603687 0.1411953
vn 0.4993801 0.2720699 0.8225555
vn 0.8776746 -0.4752079 -0.06216686
vn 0.3742403 -0.476535 0.7955241
vn 0.9614046 0.2727463 0.03620209
vn 0.4249077 0.7589895 0.4933441
vn 0.6361338 0.7598225 0.1341771
vn -0.9632339 -0.267567 -0.02425303
vn -0.3912837 0.3593685 0.8472021
vn -0.5366212 -0.3543471 0.7658171
vn -0.8875524 0.4572543 0.05629574
vn 0.005112567 0.8596228 0.5109036
vn 0.4293276 0.7619889 0.4848203
vn 0.509603 0.2739622 0.8156283
vn 0.6358716 0.7619901 0.1226306
vn 0.4423121 0.8596227 -0.2557518
vn -0.01521387 0.9604377 -0.2780793
vn -0.247076 0.9604377 0.1285021
vn -0.4034886 0.4572545 -0.7925372
vn 0.4605182 0.8554243 -0.2370068
vn -0.2311944 0.963478 0.135127
vn 0.009194768 0.9633449 -0.2681084
vn 0.004621809 0.8537089 0.5207299
vn 0.6339585 0.7603687 0.1411953
vn -0.8839846 0.465671 0.04149358
vn 0.4193542 0.7577863 0.4999019
vn -0.4097506 0.354913 0.8403221
vn 0.4895513 0.2711414 0.8287472
vn -0.9613888 -0.2710904 -0.04734593
vn -0.5522706 -0.3565539 0.7535692
vt 0.514151 0.5723919
vt 0.5021425 0.5758893
vt 0.5040626 0.5869078
vt 0.5180025 0.5944949
vt 0.528091 0.5799791
vt 0.5032924 0.5877853
vt 0.5300109 0.5909975
vt 0.5181218 0.595857
vt 0.5308965 0.592136
vt 0.5021425 0.6613078
vt 0.516972 0.6693786
vt 0.3073708 0.8475314
vt 0.3073708 0.7754181
vt 0.2936017 0.7754168
vt 0.2936017 0.8475301
vt 0.2941335 0.8488843
vt 0.3068379 0.8488855
vt 0.5673643 0.8256779
vt 0.5653364 0.7754169
vt 0.551056 0.7835541
vt 0.5530839 0.8338161
vt 0.5672583 0.8270395
vt 0.5787583 0.8300731
vt 0.5796168 0.8289091
vt 0.5538557 0.8346751
vt 0.5519671 0.8452737
vt 0.551056 0.8451845
vt 0.7009862 0.3251401
vt 0.6932721 0.3386246
vt 0.7480611 0.3394063
vt 0.7562502 0.3259287
vt 0.7494287 0.3393016
vt 0.7570942 0.3266848
vt 0.7520589 0.350359
vt 0.7508729 0.3512241
vt 0.7621008 0.3488136
vt 0.7695976 0.3361975
vt 0.7671311 0.3251401
vt 0.1874781 0.783679
vt 0.1732776 0.7754168
vt 0.1725806 0.825659
vt 0.1867811 0.833922
vt 0.1726745 0.8270247
vt 0.1860006 0.8347804
vt 0.1608347 0.8299988
vt 0.1599645 0.8288298
vt 0.1623099 0.840657
vt 0.1756375 0.8484548
vt 0.1874781 0.8454781
vt 0.7066394 0.3866611
vt 0.6966141 0.3846317
vt 0.6932721 0.3953556
vt 0.7133876 0.3994273
vt 0.7002057 0.4081207
vt 0.7075276 0.3859005
vt 0.7102263 0.4101491
vt 0.7147498 0.3995626
vt 0.711368 0.4110311
vt 0.7617458 0.3846317
vt 0.769459 0.3982823
vt 0.8579098 0.0901655
vt 0.8534964 0.1028716
vt 0.9044194 0.09332662
vt 0.9089377 0.08060089
vt 0.9057322 0.09295852
vt 0.909913 0.08118186
vt 0.9096602 0.1017918
vt 0.9086644 0.1028716
vt 0.3956511 0.6879386
vt 0.3829979 0.6814024
vt 0.3812189 0.7464957
vt 0.3938457 0.7539996
vt 0.3813337 0.7478586
vt 0.3712537 0.750211
vt 0.3703974 0.7490216
vt 0.3930955 0.7548479
vt 0.3947605 0.7640965
vt 0.3956511 0.7640281
vt 0.2734804 0.6814024
vt 0.2635301 0.684859
vt 0.2654345 0.6941391
vt 0.2772997 0.7000138
vt 0.2853455 0.6872771
vt 0.2646656 0.6950469
vt 0.2872499 0.6965572
vt 0.2774409 0.7013726
vt 0.2881544 0.6976505
vt 0.2635301 0.7591742
vt 0.2762882 0.7664741
vt 0.9023116 0.1767185
vt 0.8534965 0.1666555
vt 0.8576272 0.1805187
vt 0.9066418 0.1906229
vt 0.9036175 0.1771267
vt 0.907647 0.1900668
vt 0.9083723 0.1677614
vt 0.9074211 0.1666555
vt 0.01833312 0.8302416
vt 0.01652604 0.7754168
vt 0.003042542 0.7831154
vt 0.004865288 0.8384154
vt 0.01822942 0.8316052
vt 0.02913341 0.8341924
vt 0.02998691 0.8330073
vt 0.005621864 0.8392563
vt 0.003931568 0.8492333
vt 0.003042549 0.849174
vt 0.7667208 0.7266746
vt 0.6933268 0.7266746
vt 0.6932721 0.7422891
vt 0.766666 0.7422891
vt 0.7680573 0.7272266
vt 0.7680098 0.7417791
vt 0.5053716 0.8272524
vt 0.5037405 0.7754167
vt 0.4921173 0.782241
vt 0.4937518 0.834186
vt 0.5052617 0.8286236
vt 0.5145023 0.8308678
vt 0.5153568 0.8296779
vt 0.5130052 0.839439
vt 0.5022519 0.8458552
vt 0.4945084 0.8350397
vt 0.4921173 0.8435442
vt 0.4930113 0.843611
vt 0.6805498 0.7607192
vt 0.6805498 0.6814024
vt 0.6657892 0.6814184
vt 0.6657892 0.7607354
vt 0.6800059 0.7620879
vt 0.6663111 0.762103
vt 0.6934124 0.3063489
vt 0.6932721 0.319055
vt 0.7687871 0.319055
vt 0.7689312 0.3063489
vt 0.7701666 0.3185361
vt 0.7702986 0.3068984
vt 0.2112623 0.7465713
vt 0.2106018 0.6814024
vt 0.1980055 0.6880344
vt 0.198676 0.7541807
vt 0.2111556 0.7479393
vt 0.1994316 0.7550268
vt 0.2214393 0.7502462
vt 0.2223024 0.7490485
vt 0.2200133 0.7595472
vt 0.2082893 0.7666348
vt 0.1980055 0.7643278
vt 0.4828978 0.6460074
vt 0.4823298 0.5723919
vt 0.4677167 0.5808142
vt 0.4682846 0.6544306
vt 0.4828113 0.6473719
vt 0.4690747 0.6552895
vt 0.4951817 0.6505638
vt 0.4960575 0.6494033
vt 0.4938238 0.6616069
vt 0.4800872 0.6695244
vt 0.4677167 0.6663325
vt 0.5906219 0.06345308
vt 0.5906183 0.07722058
vt 0.684296 0.07722058
vt 0.6843117 0.06345308
vt 0.6856785 0.07667334
vt 0.685693 0.06397664
vt 0.4705681 0.3862331
vt 0.4706337 0.402352
vt 0.5780461 0.402352
vt 0.5779805 0.386233
vt 0.5793647 0.4017909
vt 0.5793034 0.3867294
vt 0.6107498 0.7826455
vt 0.5982195 0.7754168
vt 0.5966679 0.8251797
vt 0.6091918 0.8326116
vt 0.5967627 0.8265446
vt 0.586557 0.8290105
vt 0.5857019 0.8278298
vt 0.59965 0.8452282
vt 0.5879945 0.8383121
vt 0.6098557 0.8427622
vt 0.6107498 0.8426927
vt 0.6084182 0.8334607
vt 0.5985362 0.08330564
vt 0.5906182 0.09821621
vt 0.6641152 0.1006482
vt 0.6720339 0.08573765
vt 0.6654742 0.1005161
vt 0.6690738 0.1122461
vt 0.6679448 0.1131267
vt 0.6729176 0.08649987
vt 0.6838946 0.08422738
vt 0.6837815 0.08330563
vt 0.2762174 0.7934774
vt 0.2875166 0.7901471
vt 0.286647 0.7890061
vt 0.2760835 0.7921191
vt 0.2625616 0.7862693
vt 0.2633231 0.7853842
vt 0.2611456 0.7754167
vt 0.2602162 0.7755336
vt 0.2602162 0.8405166
vt 0.2738507 0.8482159
vt 0.4717834 0.2928248
vt 0.4705681 0.2933206
vt 0.470588 0.3083818
vt 0.4718048 0.3089433
vt 0.5802516 0.2928248
vt 0.580273 0.3089433
vt 0.60246 0.2279076
vt 0.5907514 0.2248968
vt 0.5906183 0.2258356
vt 0.6015589 0.2286488
vt 0.6086751 0.2428295
vt 0.6100308 0.2429931
vt 0.6758417 0.2248968
vt 0.6834117 0.2399824
vt 0.6047851 0.2541801
vt 0.6058921 0.255068
vt 0.5394953 0.6915575
vt 0.5417905 0.6815476
vt 0.5408498 0.6814024
vt 0.5387298 0.690648
vt 0.526831 0.6964527
vt 0.5266837 0.6978077
vt 0.5417905 0.7555686
vt 0.5290135 0.7627831
vt 0.5170639 0.6929606
vt 0.5161674 0.6940474
vt 0.4182042 0.5735659
vt 0.4176916 0.5723919
vt 0.4049752 0.5724213
vt 0.4044368 0.5735977
vt 0.4182042 0.6710296
vt 0.4044368 0.6710737
vt 0.8598993 0.1466538
vt 0.8544062 0.1370227
vt 0.8534965 0.1381347
vt 0.8586051 0.1470924
vt 0.856302 0.1605704
vt 0.8552619 0.1600275
vt 0.9047359 0.1510198
vt 0.9087414 0.1370227
vt 0.6944997 0.7068204
vt 0.6932721 0.7073517
vt 0.6932721 0.7200583
vt 0.6944997 0.7205895
vt 0.7682354 0.7068204
vt 0.7682354 0.7205895
vt 0.5353008 0.7939643
vt 0.5449709 0.7911901
vt 0.5441052 0.7900311
vt 0.5351598 0.7925969
vt 0.5421865 0.7814828
vt 0.5313038 0.7754168
vt 0.524277 0.7865309
vt 0.5223584 0.7779826
vt 0.5214419 0.7780753
vt 0.5235363 0.7874064
vt 0.5214419 0.8390619
vt 0.5332021 0.8457269
vt 0.04122734 0.1397698
vt 0.03997256 0.1403175
vt 0.04007325 0.1519579
vt 0.04133724 0.1524761
vt 0.1178001 0.1397698
vt 0.1179139 0.152476
vt 0.8548928 0.1089566
vt 0.8538982 0.109517
vt 0.8576973 0.121365
vt 0.8590003 0.1217646
vt 0.9057083 0.118111
vt 0.9099185 0.1309376
vt 0.8534965 0.1298505
vt 0.8544587 0.1309376
vt 0.665305 0.7947471
vt 0.677176 0.7911894
vt 0.6763102 0.7900508
vt 0.6651703 0.7933878
vt 0.6508629 0.7869109
vt 0.6516169 0.7860324
vt 0.6492192 0.7754168
vt 0.6482919 0.7755179
vt 0.6482919 0.8370884
vt 0.662734 0.8449237
vt 0.6945724 0.5762933
vt 0.7686178 0.591908
vt 0.7686878 0.5762933
vt 0.6945025 0.591908
vt 0.6933336 0.5768441
vt 0.6932721 0.5913978
vt 0.416497 0.6826785
vt 0.4017362 0.7641566
vt 0.416497 0.7642008
vt 0.4017362 0.6826341
vt 0.415955 0.6814436
vt 0.4022573 0.6814023
vt 0.6422068 0.83794
vt 0.6274832 0.7954249
vt 0.6295336 0.8451056
vt 0.6401736 0.7886745
vt 0.6276072 0.7940642
vt 0.6177034 0.7911811
vt 0.6168349 0.7923248
vt 0.6195797 0.7818938
vt 0.6313745 0.7754169
vt 0.6412802 0.7784969
vt 0.6394027 0.7877901
vt 0.6422068 0.7786106
vt 0.209908 0.7754169
vt 0.2194327 0.7892892
vt 0.2214087 0.7786499
vt 0.2059402 0.7968089
vt 0.1964167 0.7828946
vt 0.2201934 0.790158
vt 0.1944387 0.7935733
vt 0.205818 0.7981723
vt 0.1935632 0.7947255
vt 0.2214087 0.8403265
vt 0.2070332 0.8483399
usemtl MV_RockHexic_RockSlanted
f 1/1/1 3/3/3 2/2/2
f 1/1/1 4/4/4 3/3/3
f 4/4/4 1/1/1 5/5/5
f 6/6/6 3/3/3 4/4/4
f 4/4/4 5/5/5 7/7/7
f 6/6/6 4/4/4 8/8/8
f 8/8/8 4/4/4 7/7/7
f 8/8/8 7/7/7 9/9/9
f 8/8/8 10/10/10 6/6/6
f 8/8/8 11/11/11 10/10/10
f 12/12/12 14/14/14 13/13/13
f 12/12/12 15/15/15 14/14/14
f 16/16/16 15/15/15 12/12/12
f 16/16/16 12/12/12 17/17/17
f 18/18/18 20/20/20 19/19/19
f 18/18/18 21/21/21 20/20/20
f 22/22/22 21/21/21 18/18/18
f 23/23/23 22/22/22 18/18/18
f 23/23/23 18/18/18 24/24/24
f 22/22/22 25/25/25 21/21/21
f 26/26/26 21/21/21 25/25/25
f 26/26/26 27/27/27 21/21/21
f 28/28/28 30/30/30 29/29/29
f 28/28/28 31/31/31 30/30/30
f 32/32/32 30/30/30 31/31/31
f 32/32/32 31/31/31 33/33/33
f 34/34/34 30/30/30 32/32/32
f 34/34/34 35/35/35 30/30/30
f 32/32/32 36/36/36 34/34/34
f 32/32/32 37/37/37 36/36/36
f 33/33/33 37/37/37 32/32/32
f 33/33/33 38/38/38 37/37/37
f 39/39/39 41/41/41 40/40/40
f 39/39/39 42/42/42 41/41/41
f 43/43/43 41/41/41 42/42/42
f 43/43/43 42/42/42 44/44/44
f 45/45/45 41/41/41 43/43/43
f 45/45/45 46/46/46 41/41/41
f 47/47/47 45/45/45 43/43/43
f 47/47/47 43/43/43 48/48/48
f 44/44/44 48/48/48 43/43/43
f 44/44/44 49/49/49 48/48/48
f 50/50/50 52/52/52 51/51/51
f 50/50/50 53/53/53 52/52/52
f 53/53/53 54/54/54 52/52/52
f 55/55/55 53/53/53 50/50/50
f 53/53/53 56/56/56 54/54/54
f 55/55/55 57/57/57 53/53/53
f 57/57/57 56/56/56 53/53/53
f 57/57/57 58/58/58 56/56/56
f 59/59/59 57/57/57 55/55/55
f 59/59/59 60/60/60 57/57/57
f 61/61/61 63/63/63 62/62/62
f 61/61/61 64/64/64 63/63/63
f 65/65/65 63/63/63 64/64/64
f 65/65/65 64/64/64 66/66/66
f 67/67/67 63/63/63 65/65/65
f 67/67/67 68/68/68 63/63/63
f 69/69/69 71/71/71 70/70/70
f 69/69/69 72/72/72 71/71/71
f 73/73/73 71/71/71 72/72/72
f 74/74/74 71/71/71 73/73/73
f 74/74/74 75/75/75 71/71/71
f 73/73/73 72/72/72 76/76/76
f 77/77/77 76/76/76 72/72/72
f 77/77/77 72/72/72 78/78/78
f 79/79/79 81/81/81 80/80/80
f 79/79/79 82/82/82 81/81/81
f 82/82/82 79/79/79 83/83/83
f 84/84/84 81/81/81 82/82/82
f 82/82/82 83/83/83 85/85/85
f 84/84/84 82/82/82 86/86/86
f 86/86/86 82/82/82 85/85/85
f 86/86/86 85/85/85 87/87/87
f 86/86/86 88/88/88 84/84/84
f 86/86/86 89/89/89 88/88/88
f 90/90/90 92/92/92 91/91/91
f 90/90/90 93/93/93 92/92/92
f 94/94/94 93/93/93 90/90/90
f 94/94/94 95/95/95 93/93/93
f 96/96/96 94/94/94 90/90/90
f 96/96/96 90/90/90 97/97/97
f 98/98/98 100/100/100 99/99/99
f 98/98/98 101/101/101 100/100/100
f 102/102/102 101/101/101 98/98/98
f 103/103/103 102/102/102 98/98/98
f 103/103/103 98/98/98 104/104/104
f 102/102/102 105/105/105 101/101/101
f 106/106/106 101/101/101 105/105/105
f 106/106/106 107/107/107 101/101/101
f 108/108/108 110/110/110 109/109/109
f 108/108/108 111/111/111 110/110/110
f 112/112/112 111/111/111 108/108/108
f 112/112/112 113/113/113 111/111/111
f 114/114/114 116/116/116 115/115/115
f 114/114/114 117/117/117 116/116/116
f 118/118/118 117/117/117 114/114/114
f 119/119/119 118/118/118 114/114/114
f 119/119/119 114/114/114 120/120/120
f 118/118/118 119/119/119 121/121/121
f 118/118/118 121/121/121 122/122/122
f 118/118/118 123/123/123 117/117/117
f 123/123/123 118/118/118 122/122/122
f 123/123/123 124/124/124 117/117/117
f 123/123/123 122/122/122 125/125/125
f 123/123/123 125/125/125 124/124/124
f 126/126/126 128/128/128 127/127/127
f 126/126/126 129/129/129 128/128/128
f 130/130/130 129/129/129 126/126/126
f 130/130/130 131/131/131 129/129/129
f 132/132/132 134/134/134 133/133/133
f 132/132/132 135/135/135 134/134/134
f 136/136/136 134/134/134 135/135/135
f 136/136/136 135/135/135 137/137/137
f 138/138/138 140/140/140 139/139/139
f 138/138/138 141/141/141 140/140/140
f 142/142/142 141/141/141 138/138/138
f 142/142/142 143/143/143 141/141/141
f 144/144/144 142/142/142 138/138/138
f 144/144/144 138/138/138 145/145/145
f 142/142/142 144/144/144 146/146/146
f 142/142/142 146/146/146 147/147/147
f 147/147/147 143/143/143 142/142/142
f 147/147/147 148/148/148 143/143/143
f 149/149/149 151/151/151 150/150/150
f 149/149/149 152/152/152 151/151/151
f 153/153/153 152/152/152 149/149/149
f 153/153/153 154/154/154 152/152/152
f 155/155/155 153/153/153 149/149/149
f 155/155/155 149/149/149 156/156/156
f 153/153/153 155/155/155 157/157/157
f 153/153/153 157/157/157 158/158/158
f 154/154/154 153/153/153 158/158/158
f 154/154/154 158/158/158 159/159/159
f 160/160/160 162/162/162 161/161/161
f 160/160/160 163/163/163 162/162/162
f 164/164/164 162/162/162 163/163/163
f 164/164/164 163/163/163 165/165/165
f 166/166/166 168/168/168 167/167/167
f 166/166/166 169/169/169 168/168/168
f 170/170/170 168/168/168 169/169/169
f 170/170/170 169/169/169 171/171/171
f 172/172/172 174/174/174 173/173/173
f 172/172/172 175/175/175 174/174/174
f 176/176/176 174/174/174 175/175/175
f 177/177/177 174/174/174 176/176/176
f 177/177/177 178/178/178 174/174/174
f 179/179/179 177/177/177 176/176/176
f 179/179/179 180/180/180 177/177/177
f 181/181/181 179/179/179 176/176/176
f 181/181/181 175/175/175 182/182/182
f 181/181/181 176/176/176 183/183/183
f 176/176/176 175/175/175 183/183/183
f 181/181/181 183/183/183 175/175/175
f 184/184/184 186/186/186 185/185/185
f 184/184/184 187/187/187 186/186/186
f 188/188/188 186/186/186 187/187/187
f 189/189/189 186/186/186 188/188/188
f 189/189/189 190/190/190 186/186/186
f 188/188/188 187/187/187 191/191/191
f 192/192/192 191/191/191 187/187/187
f 192/192/192 187/187/187 193/193/193
f 194/194/194 196/196/196 195/195/195
f 194/194/194 197/197/197 196/196/196
f 198/198/198 197/197/197 194/194/194
f 198/198/198 199/199/199 197/197/197
f 198/198/198 200/200/200 199/199/199
f 198/198/198 201/201/201 200/200/200
f 194/194/194 202/202/202 198/198/198
f 194/194/194 203/203/203 202/202/202
f 204/204/204 206/206/206 205/205/205
f 204/204/204 207/207/207 206/206/206
f 208/208/208 207/207/207 204/204/204
f 208/208/208 209/209/209 207/207/207
f 210/210/210 212/212/212 211/211/211
f 210/210/210 213/213/213 212/212/212
f 210/210/210 214/214/214 213/213/213
f 210/210/210 215/215/215 214/214/214
f 216/216/216 215/215/215 210/210/210
f 216/216/216 217/217/217 215/215/215
f 215/215/215 218/218/218 214/214/214
f 215/215/215 219/219/219 218/218/218
f 220/220/220 222/222/222 221/221/221
f 220/220/220 223/223/223 222/222/222
f 220/220/220 224/224/224 223/223/223
f 220/220/220 225/225/225 224/224/224
f 226/226/226 225/225/225 220/220/220
f 226/226/226 227/227/227 225/225/225
f 225/225/225 228/228/228 224/224/224
f 225/225/225 229/229/229 228/228/228
f 230/230/230 232/232/232 231/231/231
f 230/230/230 233/233/233 232/232/232
f 234/234/234 233/233/233 230/230/230
f 234/234/234 235/235/235 233/233/233
f 236/236/236 238/238/238 237/237/237
f 236/236/236 239/239/239 238/238/238
f 240/240/240 239/239/239 236/236/236
f 240/240/240 241/241/241 239/239/239
f 236/236/236 242/242/242 240/240/240
f 236/236/236 243/243/243 242/242/242
f 244/244/244 246/246/246 245/245/245
f 244/244/244 247/247/247 246/246/246
f 248/248/248 247/247/247 244/244/244
f 248/248/248 249/249/249 247/247/247
f 250/250/250 252/252/252 251/251/251
f 250/250/250 253/253/253 252/252/252
f 253/253/253 254/254/254 252/252/252
f 253/253/253 255/255/255 254/254/254
f 255/255/255 253/253/253 256/256/256
f 255/255/255 256/256/256 257/257/257
f 258/258/258 257/257/257 256/256/256
f 258/258/258 256/256/256 259/259/259
f 259/259/259 256/256/256 253/253/253
f 259/259/259 253/253/253 250/250/250
f 250/250/250 260/260/260 259/259/259
f 250/250/250 261/261/261 260/260/260
f 262/262/262 264/264/264 263/263/263
f 262/262/262 265/265/265 264/264/264
f 266/266/266 265/265/265 262/262/262
f 266/266/266 267/267/267 265/265/265
f 268/268/268 270/270/270 269/269/269
f 268/268/268 271/271/271 270/270/270
f 272/272/272 271/271/271 268/268/268
f 272/272/272 273/273/273 271/271/271
f 271/271/271 274/274/274 270/270/270
f 271/271/271 275/275/275 274/274/274
f 276/276/276 278/278/278 277/277/277
f 276/276/276 279/279/279 278/278/278
f 280/280/280 279/279/279 276/276/276
f 280/280/280 281/281/281 279/279/279
f 280/280/280 282/282/282 281/281/281
f 280/280/280 283/283/283 282/282/282
f 276/276/276 284/284/284 280/280/280
f 276/276/276 285/285/285 284/284/284
f 286/286/286 288/288/288 287/287/287
f 286/286/286 287/287/287 289/289/289
f 289/289/289 290/290/290 286/286/286
f 289/289/289 291/291/291 290/290/290
f 292/292/292 294/294/294 293/293/293
f 292/292/292 293/293/293 295/295/295
f 295/295/295 296/296/296 292/292/292
f 295/295/295 297/297/297 296/296/296
f 298/298/298 300/300/300 299/299/299
f 298/298/298 299/299/299 301/301/301
f 301/301/301 299/299/299 302/302/302
f 299/299/299 303/303/303 302/302/302
f 299/299/299 304/304/304 303/303/303
f 305/305/305 302/302/302 303/303/303
f 305/305/305 306/306/306 302/302/302
f 302/302/302 306/306/306 307/307/307
f 301/301/301 302/302/302 308/308/308
f 302/302/302 307/307/307 308/308/308
f 309/309/309 301/301/301 308/308/308
f 309/309/309 308/308/308 307/307/307
f 310/310/310 312/312/312 311/311/311
f 310/310/310 311/311/311 313/313/313
f 313/313/313 314/314/314 310/310/310
f 315/315/315 313/313/313 311/311/311
f 313/313/313 316/316/316 314/314/314
f 315/315/315 317/317/317 313/313/313
f 317/317/317 316/316/316 313/313/313
f 317/317/317 318/318/318 316/316/316
f 319/319/319 317/317/317 315/315/315
f 319/319/319 320/320/320 317/317/317
