mtllib P_RockSpire_Rock13.mtl
v 0.5300695 -2.191772 -3.776599
v 2.762675 -2.140617 -3.996579
v 2.737499 1.222005 -4.162074
v -1.690021 1.418774 -3.715511
v -1.725109 -1.55012 -3.547166
v 2.324561 4.247434 -3.999769
v -2.378279 -1.560604 -2.929141
v -0.3786729 4.395059 -3.68645
v -2.313511 1.476365 -3.08519
v -3.871354 -1.526655 -2.917941
v -3.469383 2.637681 -2.886857
v -1.279057 3.838626 -3.628943
v -0.8736001 4.749125 -3.017005
v -1.802491 4.144488 -3.01645
v -2.769013 4.634481 -2.941862
v -2.979203 7.497912 -2.573533
v -1.875566 8.670713 -2.907359
v 1.494493 4.599308 -2.971144
v 1.266731 10.25805 -2.74949
v -0.4170468 10.38489 -2.683896
v -1.392029 10.35442 -2.714046
v 1.476474 10.54341 -2.451431
v 3.857072 4.55991 -2.243969
v 2.324561 4.247434 -3.999769
v 2.737499 1.222005 -4.162074
v 4.131155 1.547497 -2.60557
v 4.120406 -1.489562 -2.625951
v 2.762675 -2.140617 -3.996579
v 3.59783 -2.117158 -2.939424
v 4.072958 1.59142 0.03506063
v 3.806552 4.550632 0.1147161
v 2.742768 4.004159 2.471159
v 4.075949 -1.466185 0.226759
v 3.748586 -1.953315 0.7948286
v 2.67564 -1.525496 2.931803
v 2.311215 1.095148 4.121436
v 2.237234 -1.532405 4.02561
v 1.9495 7.03627 3.876437
v 2.555958 8.995844 1.715067
v 1.605376 8.899032 3.786899
v 1.025712 10.4279 3.168417
v 2.930378 4.877828 0.2731557
v 2.522572 10.55874 1.201346
v 2.884467 8.225915 0.107231
v 2.539746 10.5753 -1.140726
v 2.594525 4.90828 -1.720719
v 1.476474 10.54341 -2.451431
v 1.266731 10.25805 -2.74949
v 1.494493 4.599308 -2.971144
v 3.806552 4.550632 0.1147161
v 2.742768 4.004159 2.471159
v 2.930378 4.877828 0.2731557
v 2.594525 4.90828 -1.720719
v 3.857072 4.55991 -2.243969
v 2.324561 4.247434 -3.999769
v 1.494493 4.599308 -2.971144
v -0.3786729 4.395059 -3.68645
v -0.8736001 4.749125 -3.017005
v -0.8593112 8.611394 3.607776
v -0.4733751 10.3263 3.030153
v 1.025712 10.4279 3.168417
v 1.605376 8.899032 3.786899
v 1.9495 7.03627 3.876437
v -2.486344 7.575291 3.486194
v -2.544636 0.08698298 3.690375
v 2.311215 1.095148 4.121436
v 2.237234 -1.532405 4.02561
v -1.601788 -1.5447 3.678966
v -3.046741 -1.543114 2.778297
v -1.375987 10.3049 1.283051
v 1.025712 10.4279 3.168417
v -0.4733751 10.3263 3.030153
v 2.522572 10.55874 1.201346
v -1.705368 10.3135 -0.6923186
v 2.539746 10.5753 -1.140726
v 1.476474 10.54341 -2.451431
v -0.4170468 10.38489 -2.683896
v -1.392029 10.35442 -2.714046
v -1.884077 8.600929 1.644023
v -0.4733751 10.3263 3.030153
v -0.8593112 8.611394 3.607776
v -1.375987 10.3049 1.283051
v -2.257413 8.611975 -0.5648276
v -1.705368 10.3135 -0.6923186
v -1.875566 8.670713 -2.907359
v -1.392029 10.35442 -2.714046
v -2.979203 7.497912 -2.573533
v -3.088234 7.710351 -0.7693123
v -4.025531 3.539296 -1.006294
v -3.469383 2.637681 -2.886857
v -3.871354 -1.526655 -2.917941
v -3.8794 7.435985 1.08171
v -4.473136 -1.542542 -0.9022684
v -4.435776 3.24447 0.7660841
v -2.486344 7.575291 3.486194
v -4.469738 -1.540965 0.4275165
v -2.544636 0.08698298 3.690375
v -3.046741 -1.543114 2.778297
v -1.884077 8.600929 1.644023
v -0.8593112 8.611394 3.607776
v -2.486344 7.575291 3.486194
v -3.8794 7.435985 1.08171
v -2.257413 8.611975 -0.5648276
v -3.088234 7.710351 -0.7693123
v -1.601788 -1.5447 3.678966
v 2.237234 -1.532405 4.02561
v 2.67564 -1.525496 2.931803
v -1.604881 -1.581575 0.3471602
v -3.046741 -1.543114 2.778297
v -4.469738 -1.540965 0.4275165
v 2.363061 -2.442067 0.2336974
v 3.748586 -1.953315 0.7948286
v -2.378279 -1.560604 -2.929141
v -4.473136 -1.542542 -0.9022684
v -3.871354 -1.526655 -2.917941
v -0.2058972 -2.228088 -2.286058
v -1.725109 -1.55012 -3.547166
v 0.5300695 -2.191772 -3.776599
v 2.52425 -2.455418 -2.027957
v 3.59783 -2.117158 -2.939424
v 2.762675 -2.140617 -3.996579
vn -0.1492091 -0.7030913 -0.6952693
vn 0.2963802 -0.5893795 -0.7515255
vn 0.3649862 0.03126959 -0.9304877
vn -0.4390646 0.03232779 -0.8978736
vn -0.4062482 -0.521615 -0.7502534
vn 0.2671906 0.5401997 -0.7979934
vn -0.3210873 -0.7670866 -0.5554106
vn -0.1316269 0.5738903 -0.8082848
vn -0.4277963 0.04219605 -0.9028897
vn -0.5207524 -0.569672 -0.6358387
vn -0.6280091 0.08080727 -0.7739992
vn -0.4178801 0.2893835 -0.8611814
vn -0.1183775 0.3654554 -0.9232709
vn -0.2837871 0.1774501 -0.942325
vn -0.205779 0.05256674 -0.9771856
vn -0.7697585 0.3440574 -0.5376769
vn -0.5160858 0.3057268 -0.8001166
vn 0.2212833 0.7160198 -0.6620795
vn 0.3547311 0.3307665 -0.8745053
vn -0.04720049 0.7517148 -0.6577971
vn -0.4389288 0.6748694 -0.5932056
vn 0.4198726 0.7503968 -0.5105014
vn 0.7319692 0.6162339 -0.2906489
vn 0.2671906 0.5401997 -0.7979934
vn 0.3649862 0.03126959 -0.9304877
vn 0.9307349 0.06636967 -0.3596217
vn 0.9147113 -0.276818 -0.2944061
vn 0.2963802 -0.5893795 -0.7515255
vn 0.6068341 -0.7423326 -0.2840682
vn 0.971624 0.04305921 0.2325785
vn 0.7843071 0.5850229 0.2064235
vn 0.9312001 0.1060396 0.3487435
vn 0.9522977 -0.2321187 0.1981156
vn 0.7142636 -0.6183361 0.3278539
vn 0.6383417 -0.6683854 0.3818126
vn 0.559522 0.01219027 0.8287258
vn 0.4153081 -0.6129948 0.6721284
vn 0.5379718 0.08908818 0.8382421
vn 0.9317424 0.1552732 0.3282474
vn 0.4594629 0.2924371 0.8386741
vn 0.2312337 0.771224 0.5930806
vn 0.8367959 0.5386507 0.09812216
vn 0.6537114 0.7224033 0.2253773
vn 0.9987534 0.04920323 -0.008397765
vn 0.672745 0.6935726 -0.257626
vn 0.6540696 0.6601182 -0.3693738
vn 0.4198726 0.7503968 -0.5105014
vn 0.3547311 0.3307665 -0.8745053
vn 0.2212833 0.7160198 -0.6620795
vn 0.7843071 0.5850229 0.2064235
vn 0.9312001 0.1060396 0.3487435
vn 0.8367959 0.5386507 0.09812216
vn 0.6540696 0.6601182 -0.3693738
vn 0.7319692 0.6162339 -0.2906489
vn 0.2671906 0.5401997 -0.7979934
vn 0.2212833 0.7160198 -0.6620795
vn -0.1316269 0.5738903 -0.8082848
vn -0.1183775 0.3654554 -0.9232709
vn -0.3816466 0.332339 0.8624945
vn -0.3974934 0.7344421 0.5500854
vn 0.2312337 0.771224 0.5930806
vn 0.4594629 0.2924371 0.8386741
vn 0.5379718 0.08908818 0.8382421
vn -0.5519874 0.3826206 0.7408856
vn -0.5183078 -0.05883126 0.8531682
vn 0.559522 0.01219027 0.8287258
vn 0.4153081 -0.6129948 0.6721284
vn -0.171677 -0.7092983 0.6836834
vn -0.5496033 -0.6976621 0.4595693
vn -0.6097637 0.768602 0.193492
vn 0.2312337 0.771224 0.5930806
vn -0.3974934 0.7344421 0.5500854
vn 0.6537114 0.7224033 0.2253773
vn -0.6477916 0.7618034 0.004637077
vn 0.672745 0.6935726 -0.257626
vn 0.4198726 0.7503968 -0.5105014
vn -0.04720049 0.7517148 -0.6577971
vn -0.4389288 0.6748694 -0.5932056
vn -0.7376527 0.6197619 0.2678874
vn -0.3974934 0.7344421 0.5500854
vn -0.3816466 0.332339 0.8624945
vn -0.6097637 0.768602 0.193492
vn -0.8292371 0.5578514 -0.03417178
vn -0.6477916 0.7618034 0.004637077
vn -0.5160858 0.3057268 -0.8001166
vn -0.4389288 0.6748694 -0.5932056
vn -0.7697585 0.3440574 -0.5376769
vn -0.8426296 0.5023388 -0.1939877
vn -0.9571107 0.1245518 -0.2615837
vn -0.6280091 0.08080727 -0.7739992
vn -0.5207524 -0.569672 -0.6358387
vn -0.8797913 0.4620461 0.1117175
vn -0.7459996 -0.6542602 -0.1242106
vn -0.9806439 0.06517614 0.1846342
vn -0.5519874 0.3826206 0.7408856
vn -0.7331108 -0.6512855 0.1958977
vn -0.5183078 -0.05883126 0.8531682
vn -0.5496033 -0.6976621 0.4595693
vn -0.7376527 0.6197619 0.2678874
vn -0.3816466 0.332339 0.8624945
vn -0.5519874 0.3826206 0.7408856
vn -0.8797913 0.4620461 0.1117175
vn -0.8292371 0.5578514 -0.03417178
vn -0.8426296 0.5023388 -0.1939877
vn -0.171677 -0.7092983 0.6836834
vn 0.4153081 -0.6129948 0.6721284
vn 0.6383417 -0.6683854 0.3818126
vn -0.09486248 -0.9933477 0.06528035
vn -0.5496033 -0.6976621 0.4595693
vn -0.7331108 -0.6512855 0.1958977
vn 0.04640555 -0.9849616 0.1664246
vn 0.7142636 -0.6183361 0.3278539
vn -0.3210873 -0.7670866 -0.5554106
vn -0.7459996 -0.6542602 -0.1242106
vn -0.5207524 -0.569672 -0.6358387
vn -0.210243 -0.9774069 -0.02176696
vn -0.4062482 -0.521615 -0.7502534
vn -0.1492091 -0.7030913 -0.6952693
vn 0.1171809 -0.9924511 -0.03618488
vn 0.6068341 -0.7423326 -0.2840682
vn 0.2963802 -0.5893795 -0.7515255
vt 0.6008202 0.3455713
vt 0.6269597 0.3453425
vt 0.6269597 0.306165
vt 0.5751492 0.3031259
vt 0.5744789 0.3376944
vt 0.6224025 0.2706493
vt 0.5668551 0.3372983
vt 0.5907736 0.2684424
vt 0.5678796 0.3019279
vt 0.5493745 0.3367556
vt 0.5544566 0.2881023
vt 0.5801824 0.2748196
vt 0.5850377 0.2637624
vt 0.574106 0.2707425
vt 0.562835 0.2648716
vt 0.560646 0.231115
vt 0.573661 0.2177582
vt 0.6127569 0.2656976
vt 0.6106069 0.1993801
vt 0.5909037 0.1976939
vt 0.5794825 0.1979824
vt 0.6131011 0.1958435
vt 0.5673684 0.0730802
vt 0.546136 0.07469195
vt 0.5428598 0.1102572
vt 0.561719 0.1082897
vt 0.5599468 0.1437285
vt 0.54311 0.149614
vt 0.55578 0.1504979
vt 0.5926011 0.1089974
vt 0.5949292 0.07427981
vt 0.6218348 0.08096007
vt 0.5933036 0.1447885
vt 0.5995857 0.1504927
vt 0.6244123 0.145686
vt 0.6395157 0.1153768
vt 0.6370451 0.1459492
vt 0.6395157 0.04561612
vt 0.6154414 0.02217524
vt 0.6392853 0.02355764
vt 0.6326178 0.00496015
vt 0.596637 0.0698528
vt 0.6102094 0.003656555
vt 0.5963671 0.03064934
vt 0.5828347 0.002353877
vt 0.5732164 0.06827968
vt 0.5671147 0.001269034
vt 0.5634111 0.004294136
vt 0.5580488 0.07042991
vt 0.8591109 0.06536232
vt 0.8847803 0.08163361
vt 0.8686324 0.06126857
vt 0.8591116 0.03958585
vt 0.8434696 0.04259013
vt 0.8472713 0.01557133
vt 0.8619232 0.02029319
vt 0.8757164 0.001269056
vt 0.8847803 0.004626273
vt 0.5657782 0.5535362
vt 0.5615113 0.5332329
vt 0.5440784 0.5316164
vt 0.5371299 0.5494574
vt 0.5325698 0.5711743
vt 0.5844251 0.5661331
vt 0.5828778 0.6538416
vt 0.526612 0.6406536
vt 0.526612 0.6714128
vt 0.5713369 0.6726524
vt 0.5877904 0.6728953
vt 0.5586051 0.9242014
vt 0.5298001 0.9453898
vt 0.5474108 0.9443237
vt 0.5129662 0.9218112
vt 0.5631676 0.9011979
vt 0.5136029 0.8943909
vt 0.5265226 0.8794351
vt 0.5487925 0.877417
vt 0.5602192 0.877417
vt 0.4696792 0.5558539
vt 0.452761 0.5355909
vt 0.4461242 0.5556315
vt 0.4737113 0.5359305
vt 0.4957292 0.5558507
vt 0.4970052 0.5359428
vt 0.5229133 0.5553108
vt 0.5204751 0.5355909
vt 0.5195711 0.5690048
vt 0.4985432 0.5664065
vt 0.5016046 0.6152487
vt 0.5232286 0.6259301
vt 0.5235756 0.6746909
vt 0.4773296 0.5694938
vt 0.5003431 0.6747448
vt 0.4810915 0.6185871
vt 0.4484164 0.5677428
vt 0.4847875 0.6746463
vt 0.445618 0.6554206
vt 0.4564769 0.6745556
vt 0.9238297 0.4067653
vt 0.9197555 0.4323815
vt 0.9375797 0.4250894
vt 0.9441297 0.3932232
vt 0.9197555 0.3808501
vt 0.928404 0.3755865
vt 0.8161654 0.8275288
vt 0.8221092 0.7827985
vt 0.8095269 0.7771347
vt 0.7771865 0.825951
vt 0.8049166 0.843986
vt 0.7767125 0.8594778
vt 0.7779025 0.7798151
vt 0.785098 0.7637034
vt 0.7384717 0.833387
vt 0.7611528 0.8588685
vt 0.7378644 0.8508403
vt 0.7471351 0.8085464
vt 0.7315614 0.8254427
vt 0.7300545 0.7991979
vt 0.7515224 0.7768302
vt 0.7413512 0.7637034
vt 0.7285742 0.7729623
usemtl MV_RockSpire_Rocks
f 1/1/1 3/3/3 2/2/2
f 1/1/1 4/4/4 3/3/3
f 5/5/5 4/4/4 1/1/1
f 4/4/4 6/6/6 3/3/3
f 7/7/7 4/4/4 5/5/5
f 4/4/4 8/8/8 6/6/6
f 7/7/7 9/9/9 4/4/4
f 9/9/9 7/7/7 10/10/10
f 9/9/9 10/10/10 11/11/11
f 12/12/12 8/8/8 4/4/4
f 9/9/9 12/12/12 4/4/4
f 12/12/12 13/13/13 8/8/8
f 9/9/9 14/14/14 12/12/12
f 14/14/14 9/9/9 11/11/11
f 12/12/12 14/14/14 13/13/13
f 11/11/11 15/15/15 14/14/14
f 15/15/15 11/11/11 16/16/16
f 15/15/15 16/16/16 17/17/17
f 14/14/14 15/15/15 17/17/17
f 13/13/13 14/14/14 17/17/17
f 13/13/13 17/17/17 18/18/18
f 17/17/17 19/19/19 18/18/18
f 17/17/17 20/20/20 19/19/19
f 20/20/20 17/17/17 21/21/21
f 20/20/20 22/22/22 19/19/19
f 23/23/23 25/25/25 24/24/24
f 26/26/26 25/25/25 23/23/23
f 27/27/27 25/25/25 26/26/26
f 25/25/25 27/27/27 28/28/28
f 27/27/27 29/29/29 28/28/28
f 30/30/30 26/26/26 23/23/23
f 26/26/26 30/30/30 27/27/27
f 31/31/31 30/30/30 23/23/23
f 30/30/30 31/31/31 32/32/32
f 29/29/29 27/27/27 33/33/33
f 27/27/27 30/30/30 33/33/33
f 33/33/33 30/30/30 32/32/32
f 29/29/29 33/33/33 34/34/34
f 34/34/34 33/33/33 32/32/32
f 35/35/35 34/34/34 32/32/32
f 35/35/35 32/32/32 36/36/36
f 35/35/35 36/36/36 37/37/37
f 32/32/32 38/38/38 36/36/36
f 38/38/38 32/32/32 39/39/39
f 40/40/40 38/38/38 39/39/39
f 39/39/39 41/41/41 40/40/40
f 39/39/39 32/32/32 42/42/42
f 39/39/39 43/43/43 41/41/41
f 42/42/42 44/44/44 39/39/39
f 39/39/39 44/44/44 43/43/43
f 44/44/44 45/45/45 43/43/43
f 42/42/42 46/46/46 44/44/44
f 44/44/44 46/46/46 45/45/45
f 45/45/45 46/46/46 47/47/47
f 47/47/47 46/46/46 48/48/48
f 46/46/46 49/49/49 48/48/48
f 50/50/50 52/52/52 51/51/51
f 53/53/53 52/52/52 50/50/50
f 53/53/53 50/50/50 54/54/54
f 53/53/53 54/54/54 55/55/55
f 53/53/53 55/55/55 56/56/56
f 57/57/57 56/56/56 55/55/55
f 57/57/57 58/58/58 56/56/56
f 59/59/59 61/61/61 60/60/60
f 59/59/59 62/62/62 61/61/61
f 59/59/59 63/63/63 62/62/62
f 59/59/59 64/64/64 63/63/63
f 63/63/63 64/64/64 65/65/65
f 63/63/63 65/65/65 66/66/66
f 67/67/67 66/66/66 65/65/65
f 67/67/67 65/65/65 68/68/68
f 69/69/69 68/68/68 65/65/65
f 70/70/70 72/72/72 71/71/71
f 70/70/70 71/71/71 73/73/73
f 73/73/73 74/74/74 70/70/70
f 73/73/73 75/75/75 74/74/74
f 74/74/74 75/75/75 76/76/76
f 74/74/74 76/76/76 77/77/77
f 78/78/78 74/74/74 77/77/77
f 79/79/79 81/81/81 80/80/80
f 79/79/79 80/80/80 82/82/82
f 83/83/83 79/79/79 82/82/82
f 83/83/83 82/82/82 84/84/84
f 85/85/85 83/83/83 84/84/84
f 85/85/85 84/84/84 86/86/86
f 87/87/87 83/83/83 85/85/85
f 87/87/87 88/88/88 83/83/83
f 87/87/87 89/89/89 88/88/88
f 87/87/87 90/90/90 89/89/89
f 89/89/89 90/90/90 91/91/91
f 89/89/89 92/92/92 88/88/88
f 89/89/89 91/91/91 93/93/93
f 89/89/89 94/94/94 92/92/92
f 94/94/94 89/89/89 93/93/93
f 92/92/92 94/94/94 95/95/95
f 96/96/96 94/94/94 93/93/93
f 95/95/95 94/94/94 97/97/97
f 97/97/97 94/94/94 96/96/96
f 96/96/96 98/98/98 97/97/97
f 99/99/99 101/101/101 100/100/100
f 99/99/99 102/102/102 101/101/101
f 103/103/103 102/102/102 99/99/99
f 103/103/103 104/104/104 102/102/102
f 105/105/105 107/107/107 106/106/106
f 105/105/105 108/108/108 107/107/107
f 108/108/108 105/105/105 109/109/109
f 109/109/109 110/110/110 108/108/108
f 107/107/107 108/108/108 111/111/111
f 111/111/111 112/112/112 107/107/107
f 113/113/113 108/108/108 110/110/110
f 113/113/113 110/110/110 114/114/114
f 113/113/113 114/114/114 115/115/115
f 116/116/116 108/108/108 113/113/113
f 111/111/111 108/108/108 116/116/116
f 116/116/116 113/113/113 117/117/117
f 116/116/116 117/117/117 118/118/118
f 112/112/112 111/111/111 119/119/119
f 116/116/116 119/119/119 111/111/111
f 119/119/119 116/116/116 118/118/118
f 112/112/112 119/119/119 120/120/120
f 119/119/119 118/118/118 121/121/121
f 119/119/119 121/121/121 120/120/120
