mtllib P_RockDesert_Hoodoo15.mtl
v -1.549331 10.96722 -1.741956
v -1.755106 10.92219 -1.638242
v -1.705539 10.77177 -1.804214
v -0.3386822 1.00473 1.090418
v -0.5787926 1.072811 0.9200301
v -0.5078807 1.433984 1.144401
v 0.5219321 1.132813 1.115021
v 0.6019354 1.284295 1.322628
v -0.5058188 3.830022 1.52014
v -0.9541118 3.925443 1.181037
v 0.6174002 3.846 1.482919
v -1.370408 6.311238 1.500708
v -0.9026425 6.221383 1.787039
v 0.6020241 6.226991 1.953404
v -1.320113 7.361479 1.988264
v -1.586486 7.381659 1.784223
v -0.6267695 7.259356 2.222108
v 0.7813572 7.34479 2.283379
v -0.5736518 7.507178 2.248152
v 0.7772689 7.596922 2.312555
v -1.443361 7.672883 2.00025
v -1.626486 7.596088 1.819324
v -0.9847577 1.032221 -0.3034724
v -0.7886353 1.031919 -0.9114141
v -0.9483976 1.216284 -0.9988338
v -1.102833 1.385492 -0.3462728
v -0.7611923 1.045137 0.5247122
v -1.11574 3.82235 -0.9912149
v -0.9219539 1.447067 0.6297846
v -0.5787926 1.072811 0.9200301
v -0.5078807 1.433984 1.144401
v -1.162609 3.766749 -0.4343804
v -1.442696 6.25693 -1.675614
v -1.101674 3.880244 0.7869735
v -0.9541118 3.925443 1.181037
v -1.700825 6.194535 -0.6671308
v -1.679702 7.575039 -2.057027
v -1.598068 6.270387 0.9308872
v -1.370408 6.311238 1.500708
v -1.609411 6.320329 0.9392185
v -1.586486 7.381659 1.784223
v -1.831015 7.259436 0.2628085
v -1.857367 7.38502 1.133753
v -1.626486 7.596088 1.819324
v -1.898057 7.583653 1.15467
v -1.750379 7.662004 0.2016085
v -1.821047 7.676012 1.186057
v -1.959648 7.428958 -0.7521208
v -1.829363 7.62935 -0.6846551
v -1.481688 7.803473 -2.133111
v 1.749015 8.156062 -1.500223
v 2.259309 8.042664 -0.7683316
v 2.7382 9.380516 -0.7754825
v 2.237924 9.536121 -1.792219
v 2.799803 10.21255 -0.7123755
v 0.7437963 8.114827 -2.16951
v 2.348417 10.59659 -1.632384
v 0.815794 9.565168 -2.393025
v -0.2217263 8.140393 -2.390532
v 0.8658001 10.65071 -2.308035
v 0.8194193 10.85231 -2.137538
v -0.3703123 10.93925 -2.443107
v -0.3422494 9.624477 -2.720081
v -1.003601 8.135995 -2.165141
v -1.306062 9.684179 -2.56438
v -0.3180645 10.74427 -2.617255
v -1.198527 10.9526 -2.372923
v -1.305537 10.80756 -2.52591
v 1.576157 -3.551849 -1.58855
v 1.436123 -4.13003 -0.4952807
v 1.929228 -3.552262 -0.5153242
v 1.170969 -4.13852 -1.256046
v 0.5369244 -4.166818 -1.339777
v 0.4986024 -4.255191 -0.4511033
v -0.4452362 -4.120862 -1.19464
v 1.528162 -4.136078 0.3438027
v -0.4150166 -4.301893 -0.3744306
v -1.237932 -4.276625 -0.9640969
v -1.340206 -4.364169 0.05760098
v 0.6322689 -4.239583 0.4695795
v 1.404843 -4.116519 1.027519
v 0.6420826 -4.125729 1.165327
v -0.2918544 -4.25791 0.5709696
v -1.095053 -4.382706 0.887928
v -0.1598487 -4.151564 1.366477
v -0.6817958 -4.253044 1.302678
v -1.534535 -3.85681 1.097466
v -1.095053 -4.382706 0.887928
v -1.340206 -4.364169 0.05760098
v -1.912584 -3.709049 -0.2009569
v -1.237932 -4.276625 -0.9640969
v -1.514026 -3.766209 -1.351636
v -1.453221 -1.139834 -1.692507
v -1.960016 -1.204804 -0.4528406
v -1.075822 0.7426026 -1.202272
v -1.589508 -1.118996 1.132072
v -1.347923 0.7135752 -0.3880274
v -1.108445 0.7493377 0.936963
v 1.002984 1.106739 -1.025319
v 1.402189 1.201255 -0.5562946
v 1.60574 1.348641 -0.670081
v 1.153164 1.228341 -1.152676
v 0.6343136 1.03427 -1.183567
v 0.7684207 1.121486 -1.389711
v -0.2345939 1.023588 -1.059536
v -0.3352118 1.093747 -1.372576
v -0.7886353 1.031919 -0.9114141
v -0.9483976 1.216284 -0.9988338
v 2.1818 7.604573 -1.75991
v 2.488452 7.954037 -0.4299659
v 2.232957 7.907952 -1.803579
v 2.387139 7.485023 0.09488142
v 1.647697 6.25693 -1.412332
v 2.370624 7.926022 1.209114
v 1.939514 6.303016 -0.4650649
v 2.327496 7.622897 1.174617
v 1.734574 7.979258 1.98923
v 1.811609 6.274519 0.9292293
v 1.754505 3.903407 -0.6335748
v 1.730991 7.67579 1.909867
v 0.7772689 7.596922 2.312555
v 0.7813572 7.34479 2.283379
v 1.430283 6.320989 1.414762
v 0.6020241 6.226991 1.953404
v 1.656119 3.839141 0.8044099
v 1.60574 1.348641 -0.670081
v 1.438928 3.838294 1.093758
v 0.6174002 3.846 1.482919
v 1.460907 1.508026 0.4278189
v 1.402189 1.201255 -0.5562946
v 1.283622 1.331164 0.3792939
v 1.1899 1.480901 0.9968872
v 0.6019354 1.284295 1.322628
v 1.056175 1.313092 0.8610301
v 0.5219321 1.132813 1.115021
v -1.514026 -3.766209 -1.351636
v -1.237932 -4.276625 -0.9640969
v -0.4452362 -4.120862 -1.19464
v -0.4996185 -3.369195 -1.697443
v 0.5369244 -4.166818 -1.339777
v -0.2845597 -1.087316 -1.839994
v -1.453221 -1.139834 -1.692507
v 0.8113679 -3.467979 -1.860371
v 1.170969 -4.13852 -1.256046
v 1.576157 -3.551849 -1.58855
v 1.928997 -0.9800217 -1.71067
v 1.129303 -1.000581 -1.8946
v -0.3494081 0.710106 -1.326435
v -1.075822 0.7426026 -1.202272
v 0.7209578 0.7114947 -1.514337
v -0.2345939 1.023588 -1.059536
v -0.7886353 1.031919 -0.9114141
v 0.6343136 1.03427 -1.183567
v 1.002984 1.106739 -1.025319
v 1.247079 0.7717803 -1.366784
v 1.778462 0.8665688 -0.6919987
v 2.312318 -0.8795851 -0.5675377
v 1.649051 -3.504122 1.486033
v 1.404843 -4.116519 1.027519
v 0.6420826 -4.125729 1.165327
v 0.6917085 -3.371584 1.825524
v -0.1598487 -4.151564 1.366477
v -0.3053665 -3.392361 1.819953
v -0.6817958 -4.253044 1.302678
v -1.057314 -1.11043 1.72423
v 0.6894082 -0.9928508 2.013918
v -0.990478 -3.609292 1.666856
v -1.095053 -4.382706 0.887928
v -1.534535 -3.85681 1.097466
v -1.589508 -1.118996 1.132072
v -1.108445 0.7493377 0.936963
v -0.8728225 0.7192349 1.256934
v 0.593122 0.791531 1.457059
v -1.319703 7.974752 1.205192
v -1.718603 7.944114 0.7534311
v -2.173031 9.414972 1.103668
v -1.624336 9.327385 1.648652
v -2.18654 10.30831 1.231986
v 0.6710999 8.065601 1.959078
v -1.229104 7.810395 1.035357
v 0.6151141 7.89606 1.744321
v -1.679683 10.19486 1.868692
v -1.594787 10.62711 1.765955
v 0.7566123 10.61396 2.534966
v 0.6831427 9.368788 2.399699
v 1.325294 8.175294 1.850965
v 1.55928 9.342735 2.289461
v 0.6801224 10.44368 2.613143
v 1.627051 10.33216 2.375732
v 1.55928 9.342735 2.289461
v 1.627051 10.33216 2.375732
v 2.037072 10.34342 1.986381
v 2.290468 9.306711 1.563686
v 2.010714 8.115345 1.270183
v 1.325294 8.175294 1.850965
v 1.256913 7.959843 1.642248
v 1.823226 7.94462 1.156994
v 2.259309 8.042664 -0.7683316
v 2.7382 9.380516 -0.7754825
v 2.342305 10.12565 1.650065
v 2.031935 10.56632 1.539296
v 2.799803 10.21255 -0.7123755
v 2.477845 10.60445 -0.7599875
v 2.477845 10.60445 -0.7599875
v 2.348417 10.59659 -1.632384
v 2.799803 10.21255 -0.7123755
v 0.4930563 11.07284 -1.185002
v 0.8194193 10.85231 -2.137538
v 0.1233473 11.00246 0.707581
v 2.031935 10.56632 1.539296
v -0.7169883 11.12462 -1.455613
v -0.3703123 10.93925 -2.443107
v 0.7566123 10.61396 2.534966
v 2.037072 10.34342 1.986381
v 1.627051 10.33216 2.375732
v -1.594787 10.62711 1.765955
v -1.134071 11.00031 0.4406792
v -1.549331 10.96722 -1.741956
v -1.198527 10.9526 -2.372923
v -1.305537 10.80756 -2.52591
v -1.705539 10.77177 -1.804214
v -1.755106 10.92219 -1.638242
v -2.023837 10.8378 -0.7724202
v -2.045508 10.76242 0.09639406
v -2.239744 10.52609 0.02035403
v -2.18654 10.30831 1.231986
v 1.698902 11.49287 -0.5830849
v 1.301956 11.85946 0.9757233
v 1.629024 12.10251 -0.5537685
v 1.35501 11.4219 1.064119
v 0.5197821 11.85675 1.306028
v 0.4928651 11.43908 1.406082
v 1.604387 10.97457 -0.551739
v 1.26536 10.90398 0.9866379
v 0.4692184 10.92589 1.31923
v 1.162397 10.8033 0.8823074
v 1.435619 10.81479 -0.4872484
v -0.1958618 12.28364 -1.498057
v -0.9991235 12.09869 0.09600711
v -0.7473545 12.32692 -1.251299
v -0.2866411 12.25196 -0.01554847
v -0.8697628 11.9275 0.8175116
v 0.6083713 12.17166 -1.275409
v -0.2416816 11.91846 1.109261
v 0.5177379 12.26143 -0.1464164
v 1.343346 12.14275 -1.056538
v 0.5197821 11.85675 1.306028
v 1.629024 12.10251 -0.5537685
v 1.301956 11.85946 0.9757233
v -0.9665651 11.43334 0.8109083
v -0.9991235 12.09869 0.09600711
v -0.8697628 11.9275 0.8175116
v -1.094641 11.45243 0.04593468
v -0.7473545 12.32692 -1.251299
v -0.832442 11.48786 -1.392787
v -0.9210628 11.06216 0.804804
v -1.051013 11.14465 0.02179241
v -0.8115238 11.21657 -1.332107
v -0.9196032 11.03003 -0.002775262
v -0.7905713 10.9249 0.7352208
v 1.304077 11.04625 -1.078554
v 1.604387 10.97457 -0.551739
v 1.698902 11.49287 -0.5830849
v 1.395098 11.53662 -1.127838
v 1.629024 12.10251 -0.5537685
v 0.6027597 11.14515 -1.282743
v 1.343346 12.14275 -1.056538
v 0.6353259 11.49048 -1.333417
v -0.2457786 11.16533 -1.551482
v 0.6083713 12.17166 -1.275409
v -0.2470479 11.48612 -1.607197
v -0.8115238 11.21657 -1.332107
v -0.1958618 12.28364 -1.498057
v -0.832442 11.48786 -1.392787
v -0.7473545 12.32692 -1.251299
v 0.4928651 11.43908 1.406082
v -0.2416816 11.91846 1.109261
v 0.5197821 11.85675 1.306028
v -0.3657026 11.46031 1.188329
v -0.8697628 11.9275 0.8175116
v -0.9665651 11.43334 0.8109083
v 0.4692184 10.92589 1.31923
v -0.3076172 10.99735 1.151249
v -0.9210628 11.06216 0.804804
v -0.7905713 10.9249 0.7352208
v -0.2975688 10.8977 1.019051
v 0.4632287 10.82911 1.178344
v -1.350618 8.107776 -1.652595
v -1.003601 8.135995 -2.165141
v -1.306062 9.684179 -2.56438
v -1.70118 9.624186 -1.861685
v -1.305537 10.80756 -2.52591
v -1.938598 7.989443 -0.3812977
v -1.705539 10.77177 -1.804214
v -2.289838 9.501392 -0.03401041
v -1.718603 7.944114 0.7534311
v -2.173031 9.414972 1.103668
v -2.023837 10.8378 -0.7724202
v -1.755106 10.92219 -1.638242
v -2.239744 10.52609 0.02035403
v -2.18654 10.30831 1.231986
v -2.045508 10.76242 0.09639406
v 1.153164 1.228341 -1.152676
v 1.60574 1.348641 -0.670081
v 1.754505 3.903407 -0.6335748
v 1.235259 3.865865 -1.281364
v 1.939514 6.303016 -0.4650649
v 0.7684207 1.121486 -1.389711
v 1.647697 6.25693 -1.412332
v 0.7372059 3.848168 -1.542759
v -0.3352118 1.093747 -1.372576
v 1.034486 6.237088 -1.784479
v 2.1818 7.604573 -1.75991
v -0.4481916 3.865865 -1.489602
v -0.9483976 1.216284 -0.9988338
v -1.11574 3.82235 -0.9912149
v -0.4125648 6.25693 -1.899235
v -1.442696 6.25693 -1.675614
v 1.294455 7.558429 -2.191107
v 2.232957 7.907952 -1.803579
v 1.298275 7.856335 -2.239243
v -0.389473 7.544623 -2.24081
v -1.679702 7.575039 -2.057027
v -0.4046679 7.834451 -2.179826
v -1.481688 7.803473 -2.133111
v 1.649051 -3.504122 1.486033
v 0.6917085 -3.371584 1.825524
v 0.6894082 -0.9928508 2.013918
v 1.66698 -0.9516079 1.700138
v 0.593122 0.791531 1.457059
v 1.313011 0.9265151 1.140644
v 1.845529 -3.482126 0.7541153
v 1.404843 -4.116519 1.027519
v 1.528162 -4.136078 0.3438027
v 2.154768 -0.9096245 0.8739207
v 1.623846 0.936232 0.513311
v 1.929228 -3.552262 -0.5153242
v 1.436123 -4.13003 -0.4952807
v 2.312318 -0.8795851 -0.5675377
v 1.778462 0.8665688 -0.6919987
v 1.576157 -3.551849 -1.58855
v 1.928997 -0.9800217 -1.71067
v -2.768025 12.87435 0.7562494
v -3.172184 13.61662 -1.33574
v -2.548251 13.3305 0.6893944
v -3.359044 13.28426 -1.458846
v -2.701919 12.42891 0.6193417
v -2.953051 13.75378 -1.934872
v -3.278069 12.88453 -1.48425
v -3.13795 13.38159 -2.081248
v -3.071166 12.94843 -2.082022
v 0.8556292 12.28715 2.784727
v 0.1939011 12.84414 2.718887
v 0.8867616 12.86478 2.688769
v 0.1048243 12.27922 2.857066
v 0.8162878 11.95152 2.663958
v -0.9865179 13.09426 1.642866
v 0.1187513 11.91246 2.746487
v -1.140587 12.47733 1.811597
v -2.548251 13.3305 0.6893944
v -2.768025 12.87435 0.7562494
v -1.084266 11.97332 1.669023
v -2.701919 12.42891 0.6193417
v -2.56745 12.31333 0.5741535
v -1.029891 11.87942 1.572881
v 0.1252071 11.82446 2.606098
v 2.377513 12.90098 -2.750241
v 2.353097 13.01439 0.3715905
v 2.3723 13.23622 -2.645953
v 2.465186 12.41469 0.3195187
v 2.190217 12.47366 -2.698821
v 1.320678 12.81151 2.490224
v 2.343171 12.05506 0.2273795
v 1.349718 12.24114 2.574144
v 0.8867616 12.86478 2.688769
v 1.31917 11.89604 2.451358
v 0.8556292 12.28715 2.784727
v 0.8162878 11.95152 2.663958
v -3.13795 13.38159 -2.081248
v -1.264721 13.78299 -2.153846
v -2.953051 13.75378 -1.934872
v -1.433468 13.15991 -2.41074
v -3.071166 12.94843 -2.082022
v -0.3811359 13.74002 -2.457084
v -1.492324 12.62737 -2.321385
v -0.4414162 13.1326 -2.739643
v 0.7471194 13.68703 -2.95245
v -0.4581438 12.58316 -2.674711
v 0.7717757 13.1767 -3.165754
v 1.97966 13.3285 -3.202588
v 0.7222863 12.77237 -3.10356
v 1.975458 13.08216 -3.284459
v 2.3723 13.23622 -2.645953
v 2.377513 12.90098 -2.750241
v 1.92286 12.85479 -3.226442
v 0.737518 12.64061 -2.987823
v 2.190217 12.47366 -2.698821
v -3.172184 13.61662 -1.33574
v -2.953051 13.75378 -1.934872
v -1.264721 13.78299 -2.153846
v 0.01533747 13.56714 -0.7941784
v -2.548251 13.3305 0.6893944
v -0.3811359 13.74002 -2.457084
v 0.2708902 13.28979 0.8818321
v -0.9865179 13.09426 1.642866
v 1.162184 13.55404 -1.717315
v 0.7471194 13.68703 -2.95245
v 1.807233 13.26175 -0.585876
v 2.3723 13.23622 -2.645953
v 1.97966 13.3285 -3.202588
v 2.353097 13.01439 0.3715905
v 1.835917 13.0828 0.4983249
v 1.320678 12.81151 2.490224
v 0.6889347 13.0013 2.108354
v 0.1939011 12.84414 2.718887
v 0.8867616 12.86478 2.688769
v -0.4046679 7.834451 -2.179826
v -1.829363 7.62935 -0.6846551
v -1.481688 7.803473 -2.133111
v -0.5131016 7.902497 -0.03293061
v 1.298275 7.856335 -2.239243
v -1.750379 7.662004 0.2016085
v 0.7578205 8.022604 0.06215835
v 2.232957 7.907952 -1.803579
v 2.488452 7.954037 -0.4299659
v -0.6396174 7.878488 1.483518
v -1.821047 7.676012 1.186057
v 0.6525264 7.927461 1.583812
v 2.370624 7.926022 1.209114
v -1.443361 7.672883 2.00025
v -1.898057 7.583653 1.15467
v -1.626486 7.596088 1.819324
v -0.609808 7.65714 1.924827
v -0.5736518 7.507178 2.248152
v 0.6390347 7.781947 2.009818
v 1.734574 7.979258 1.98923
v 0.7772689 7.596922 2.312555
v 1.247079 0.7717803 -1.366784
v 1.402189 1.201255 -0.5562946
v 1.002984 1.106739 -1.025319
v 1.778462 0.8665688 -0.6919987
v 1.283622 1.331164 0.3792939
v 1.623846 0.936232 0.513311
v 1.056175 1.313092 0.8610301
v 1.313011 0.9265151 1.140644
v 0.5219321 1.132813 1.115021
v 0.593122 0.791531 1.457059
v -0.3386822 1.00473 1.090418
v -0.8728225 0.7192349 1.256934
v -0.5787926 1.072811 0.9200301
v -0.7611923 1.045137 0.5247122
v -1.108445 0.7493377 0.936963
v -0.9847577 1.032221 -0.3034724
v -1.347923 0.7135752 -0.3880274
v -0.7886353 1.031919 -0.9114141
v -1.075822 0.7426026 -1.202272
v 0.6151141 7.89606 1.744321
v 0.6710999 8.065601 1.959078
v 1.325294 8.175294 1.850965
v 1.256913 7.959843 1.642248
v 0.1418281 7.710785 0.3171835
v 1.823226 7.94462 1.156994
v -0.7816291 7.659918 0.0925262
v -1.229104 7.810395 1.035357
v 0.4275593 7.728838 -1.119178
v -0.4587851 7.687283 -1.358368
v -1.7622 7.817689 -0.350596
v -1.174301 7.911476 -1.586893
v -1.554471 7.828577 0.6646416
v -1.319703 7.974752 1.205192
v -1.718603 7.944114 0.7534311
v -1.938598 7.989443 -0.3812977
v -1.350618 8.107776 -1.652595
v -0.8649951 7.984696 -2.016996
v -1.003601 8.135995 -2.165141
v -0.2454983 7.944696 -2.213587
v -0.2217263 8.140393 -2.390532
v 0.6927791 7.929126 -2.001449
v 0.7437963 8.114827 -2.16951
v 2.048337 7.882733 -0.7989565
v 1.674965 7.950945 -1.324655
v 1.749015 8.156062 -1.500223
v 2.259309 8.042664 -0.7683316
v 2.010714 8.115345 1.270183
v 1.435619 10.81479 -0.4872484
v 1.604387 10.97457 -0.551739
v 1.304077 11.04625 -1.078554
v 1.200967 10.93781 -0.9843242
v 0.6027597 11.14515 -1.282743
v 0.5790348 11.02535 -1.148584
v -0.2457786 11.16533 -1.551482
v 0.4545965 10.96854 -0.02309775
v 1.162397 10.8033 0.8823074
v -0.252708 11.04819 -1.41194
v -0.8115238 11.21657 -1.332107
v 0.4632287 10.82911 1.178344
v 1.26536 10.90398 0.9866379
v 0.4692184 10.92589 1.31923
v -0.3347263 11.01881 -0.08255315
v -0.2975688 10.8977 1.019051
v -0.7043664 11.08485 -1.229976
v -1.051013 11.14465 0.02179241
v -0.9196032 11.03003 -0.002775262
v -0.7905713 10.9249 0.7352208
v 0.1252071 11.82446 2.606098
v 0.1187513 11.91246 2.746487
v 0.8162878 11.95152 2.663958
v 0.7612287 11.86039 2.524329
v -1.029891 11.87942 1.572881
v 1.31917 11.89604 2.451358
v -0.2111115 11.99908 0.2873065
v -2.56745 12.31333 0.5741535
v 1.234241 11.82359 2.327897
v 2.343171 12.05506 0.2273795
v 2.205443 11.96445 0.184985
v -0.4666648 12.27643 -1.388704
v 2.190217 12.47366 -2.698821
v -3.134067 12.7573 -1.486434
v -2.701919 12.42891 0.6193417
v -3.278069 12.88453 -1.48425
v -2.960109 12.80532 -2.002163
v -3.071166 12.94843 -2.082022
v -1.410808 12.50472 -2.222762
v -1.492324 12.62737 -2.321385
v -0.4617107 12.46361 -2.549409
v -0.4581438 12.58316 -2.674711
v 0.737518 12.64061 -2.987823
v 0.7222863 12.77237 -3.10356
v 0.9854931 12.38383 -2.097712
v 1.92286 12.85479 -3.226442
v 2.047142 12.37816 -2.636058
vn -0.3436192 0.9119809 -0.2240908
vn -0.6987013 0.6490135 -0.3009952
vn -0.8494731 0.2827535 -0.4454727
vn -0.2635034 0.2852918 0.9215067
vn -0.6981197 0.2812161 0.6584424
vn -0.5048558 -0.2521349 0.8255596
vn 0.1186565 0.09313556 0.9885578
vn 0.2322529 -0.4056275 0.884039
vn -0.3289534 -0.1498331 0.9323838
vn -0.7600663 -0.1729074 0.6264201
vn 0.2208228 -0.123342 0.9674833
vn -0.7626287 -0.2674352 0.5889617
vn -0.3415889 -0.2557119 0.9043939
vn 0.2171052 -0.2574605 0.9415835
vn -0.4544016 -0.2355335 0.8590944
vn -0.7605499 -0.2788353 0.5863572
vn -0.1882629 -0.2127983 0.9587877
vn 0.2210338 -0.2568153 0.9408454
vn -0.1268748 0.4207429 0.898264
vn 0.07322381 0.3539957 0.9323761
vn -0.4579435 0.525012 0.7173913
vn -0.8277156 0.1925618 0.5270737
vn -0.9649583 0.2623269 0.006340698
vn -0.7742761 0.05127664 -0.6307671
vn -0.7933897 -0.3753131 -0.479242
vn -0.9741015 -0.2260571 -0.00493176
vn -0.89249 0.3014149 0.3355752
vn -0.816592 -0.1508614 -0.557152
vn -0.9114159 -0.2094903 0.3541678
vn -0.6981197 0.2812161 0.6584424
vn -0.5048558 -0.2521349 0.8255596
vn -0.9911613 -0.1259799 -0.04157153
vn -0.6970597 -0.2718831 -0.6634662
vn -0.9475206 -0.1547278 0.2797572
vn -0.7600663 -0.1729074 0.6264201
vn -0.9747236 -0.2107105 -0.07426302
vn -0.7437491 0.1347181 -0.654743
vn -0.9507217 -0.2196468 0.2188231
vn -0.7626287 -0.2674352 0.5889617
vn -0.9472344 -0.2383104 0.2143717
vn -0.7605499 -0.2788353 0.5863572
vn -0.9978528 -0.05265029 0.03895826
vn -0.9723362 -0.1620582 0.168224
vn -0.8277156 0.1925618 0.5270737
vn -0.9473516 0.2940385 0.1267528
vn -0.6842357 0.7291701 0.01150532
vn -0.5102254 0.853836 0.1031219
vn -0.9829328 0.1726557 -0.06350616
vn -0.5699148 0.8216437 -0.009941145
vn -0.3565435 0.6761956 -0.6446986
vn 0.5824094 -0.47539 -0.6593965
vn 0.8134769 -0.5527669 -0.1808426
vn 0.9648305 -0.2000629 -0.1705196
vn 0.6702329 -0.129208 -0.7308168
vn 0.9644884 0.2546401 -0.07014656
vn 0.3301591 -0.4557055 -0.8266363
vn 0.6278 0.5649995 -0.5353904
vn 0.3429097 -0.07043619 -0.9367239
vn 0.002608056 -0.460852 -0.8874732
vn 0.3279028 0.3785676 -0.865544
vn 0.2365829 0.8668175 -0.438926
vn 0.06414866 0.8707608 -0.4875045
vn 0.0351203 -0.07775912 -0.9963534
vn -0.4965619 -0.5030492 -0.7073668
vn -0.5618652 -0.1105916 -0.8198031
vn 0.09837746 0.3909073 -0.9151576
vn -0.2551174 0.8674909 -0.4270535
vn -0.5105326 0.3968329 -0.7628108
vn 0.6271092 -0.3957987 -0.6708781
vn 0.5092334 -0.8560136 -0.08900607
vn 0.9199837 -0.3745976 -0.1153549
vn 0.3547109 -0.8391068 -0.4124076
vn 0.01264511 -0.8515534 -0.5241154
vn 0.05713587 -0.9969912 -0.0523849
vn -0.05275524 -0.8342401 -0.5488719
vn 0.5490204 -0.833328 0.06435062
vn 0.04846313 -0.9958279 -0.07731938
vn -0.321197 -0.8587732 -0.3991755
vn -0.4197978 -0.9075864 -0.007533136
vn 0.07455309 -0.9951037 0.06488776
vn 0.4411215 -0.8131406 0.3797556
vn 0.1063833 -0.8707597 0.4800628
vn 0.09300398 -0.993727 0.06210469
vn -0.3125124 -0.9053215 0.2876263
vn 0.08245051 -0.8171658 0.5704753
vn -0.06809098 -0.8289526 0.5551588
vn -0.792632 -0.3756887 0.4802005
vn -0.3125124 -0.9053215 0.2876263
vn -0.4197978 -0.9075864 -0.007533136
vn -0.9453503 -0.3237349 -0.03883895
vn -0.321197 -0.8587732 -0.3991755
vn -0.596846 -0.4046694 -0.6928329
vn -0.6242651 0.1172748 -0.7723598
vn -0.9892658 0.1255572 -0.07475711
vn -0.5411657 0.5440429 -0.6412152
vn -0.8818899 0.1261196 0.4542731
vn -0.8408252 0.537425 -0.06471004
vn -0.7535549 0.5583192 0.3470371
vn 0.6428264 -0.1325534 -0.754456
vn 0.9801556 -0.06147985 -0.1884545
vn 0.8671668 -0.4395123 -0.2342024
vn 0.6101485 -0.5071707 -0.6086844
vn 0.1261422 -0.2116862 -0.9691631
vn 0.2688914 -0.5753263 -0.7724617
vn -0.2281955 -0.2075568 -0.9512345
vn -0.2613828 -0.5606809 -0.7856946
vn -0.7742761 0.05127664 -0.6307671
vn -0.7933897 -0.3753131 -0.479242
vn 0.7676091 -0.3174092 -0.5568013
vn 0.8090758 0.5809271 -0.08899563
vn 0.6805206 0.5008001 -0.5348747
vn 0.9604502 -0.2783886 0.005938091
vn 0.7440807 -0.2648281 -0.6133596
vn 0.7520835 0.5641286 0.3407775
vn 0.9634366 -0.23646 -0.1260021
vn 0.8920733 -0.272325 0.3606166
vn 0.3954258 0.6150725 0.6821468
vn 0.8998449 -0.242191 0.3627985
vn 0.9658663 -0.08231917 -0.245613
vn 0.6050575 -0.2635927 0.7512818
vn 0.07322381 0.3539957 0.9323761
vn 0.2210338 -0.2568153 0.9408454
vn 0.6314195 -0.2552716 0.7322198
vn 0.2171052 -0.2574605 0.9415835
vn 0.9374196 -0.09444949 0.3351474
vn 0.8671668 -0.4395123 -0.2342024
vn 0.6778669 -0.107665 0.7272584
vn 0.2208228 -0.123342 0.9674833
vn 0.8677426 -0.4150652 0.2733931
vn 0.9801556 -0.06147985 -0.1884545
vn 0.9535861 -0.06577878 0.2938482
vn 0.6722624 -0.4118772 0.6151589
vn 0.2322529 -0.4056275 0.884039
vn 0.7528535 -0.1121984 0.6485547
vn 0.1186565 0.09313556 0.9885578
vn -0.596846 -0.4046694 -0.6928329
vn -0.321197 -0.8587732 -0.3991755
vn -0.05275524 -0.8342401 -0.5488719
vn -0.1404664 -0.2890515 -0.9469522
vn 0.01264511 -0.8515534 -0.5241154
vn -0.1299623 0.09919059 -0.986545
vn -0.6242651 0.1172748 -0.7723598
vn 0.06928783 -0.3182858 -0.9454594
vn 0.3547109 -0.8391068 -0.4124076
vn 0.6271092 -0.3957987 -0.6708781
vn 0.6739112 0.09190757 -0.7330735
vn 0.09889123 0.103675 -0.9896828
vn -0.1263087 0.4915538 -0.8616385
vn -0.5411657 0.5440429 -0.6412152
vn 0.0284965 0.4796967 -0.8769715
vn -0.2281955 -0.2075568 -0.9512345
vn -0.7742761 0.05127664 -0.6307671
vn 0.1261422 -0.2116862 -0.9691631
vn 0.6428264 -0.1325534 -0.754456
vn 0.4455192 0.5396015 -0.7143828
vn 0.8123218 0.5355536 -0.2309016
vn 0.9853008 0.09552906 -0.1416214
vn 0.6304532 -0.3687052 0.6830704
vn 0.4411215 -0.8131406 0.3797556
vn 0.1063833 -0.8707597 0.4800628
vn 0.128444 -0.3313037 0.9347406
vn 0.08245051 -0.8171658 0.5704753
vn -0.06779451 -0.2763823 0.9586536
vn -0.06809098 -0.8289526 0.5551588
vn -0.4686527 0.1152515 0.875832
vn 0.0935334 0.1203995 0.9883094
vn -0.4079756 -0.3008053 0.8620163
vn -0.3125124 -0.9053215 0.2876263
vn -0.792632 -0.3756887 0.4802005
vn -0.8818899 0.1261196 0.4542731
vn -0.7535549 0.5583192 0.3470371
vn -0.4568112 0.5230147 0.7195687
vn 0.05365194 0.4847887 0.8729842
vn -0.4418378 -0.5694183 0.6932116
vn -0.7450915 -0.5714542 0.343917
vn -0.9002016 -0.2012474 0.3861818
vn -0.5313904 -0.276244 0.8008205
vn -0.885125 0.2896277 0.3642384
vn -0.03034622 -0.5638448 0.825323
vn -0.2320732 -0.9067225 0.3521308
vn 0.004025973 -0.900928 0.4339499
vn -0.5486814 0.04794069 0.8346559
vn -0.4283701 0.7024182 0.5684258
vn 0.07767648 0.7216534 0.6878828
vn -0.06549291 -0.2641047 0.9622678
vn 0.3655774 -0.5411865 0.7572783
vn 0.4307901 -0.245231 0.8684939
vn -0.07538111 0.09223288 0.99288
vn 0.4749568 0.3558853 0.8048364
vn 0.4307901 -0.245231 0.8684939
vn 0.4749568 0.3558853 0.8048364
vn 0.6705754 0.4344016 0.6013517
vn 0.8555743 -0.2240863 0.4666668
vn 0.7280691 -0.5546952 0.4027761
vn 0.3655774 -0.5411865 0.7572783
vn 0.2320107 -0.8850382 0.403582
vn 0.3754793 -0.8978085 0.23012
vn 0.8134769 -0.5527669 -0.1808426
vn 0.9648305 -0.2000629 -0.1705196
vn 0.8832323 0.2076367 0.4204614
vn 0.4927334 0.8434572 0.2139951
vn 0.9644884 0.2546401 -0.07014656
vn 0.5517037 0.8340148 0.006504296
vn 0.5517037 0.8340148 0.006504296
vn 0.6278 0.5649995 -0.5353904
vn 0.9644884 0.2546401 -0.07014656
vn 0.1316497 0.9905382 -0.03875939
vn 0.2365829 0.8668175 -0.438926
vn 0.05989682 0.9893191 0.132891
vn 0.4927334 0.8434572 0.2139951
vn -0.04601401 0.9972951 -0.05731659
vn 0.06414866 0.8707608 -0.4875045
vn 0.07767648 0.7216534 0.6878828
vn 0.6705754 0.4344016 0.6013517
vn 0.4749568 0.3558853 0.8048364
vn -0.4283701 0.7024182 0.5684258
vn -0.1467467 0.9808531 0.1280335
vn -0.3436192 0.9119809 -0.2240908
vn -0.2551174 0.8674909 -0.4270535
vn -0.5105326 0.3968329 -0.7628108
vn -0.8494731 0.2827535 -0.4454727
vn -0.6987013 0.6490135 -0.3009952
vn -0.7550614 0.63934 -0.1453504
vn -0.5354176 0.8354292 0.1240404
vn -0.9342489 0.35662 -0.00108661
vn -0.885125 0.2896277 0.3642384
vn 0.9866766 -0.03377106 -0.15915
vn 0.6178959 0.5893221 0.5204846
vn 0.7507918 0.6569813 -0.06846238
vn 0.7593137 -0.01099826 0.6506318
vn 0.09936503 0.6397878 0.7621012
vn 0.06879662 0.03258506 0.9970984
vn 0.8528017 -0.4931804 -0.1717621
vn 0.6632305 -0.5056079 0.5518025
vn 0.04131166 -0.5079536 0.8603932
vn 0.2704042 -0.9402552 0.2068861
vn 0.3219211 -0.9404252 -0.1093946
vn -0.03365925 0.705 -0.7084081
vn -0.7200328 0.6845766 0.1136119
vn -0.5919026 0.7022913 -0.3955229
vn -0.03013092 0.9869722 0.1580446
vn -0.6186655 0.5787293 0.5313431
vn 0.2379322 0.7143185 -0.6581317
vn -0.2266878 0.6742457 0.7028551
vn 0.09236065 0.9885861 0.119025
vn 0.484969 0.6551259 -0.5793231
vn 0.09936503 0.6397878 0.7621012
vn 0.7507918 0.6569813 -0.06846238
vn 0.6178959 0.5893221 0.5204846
vn -0.832364 0.01928214 0.553894
vn -0.7200328 0.6845766 0.1136119
vn -0.6186655 0.5787293 0.5313431
vn -0.9999523 0.009682875 -0.001234428
vn -0.5919026 0.7022913 -0.3955229
vn -0.7558427 -8.649377E-06 -0.6547531
vn -0.7532955 -0.4446368 0.484607
vn -0.9004762 -0.4333736 -0.03646867
vn -0.7051347 -0.4421262 -0.554355
vn -0.422603 -0.9027143 -0.08070715
vn -0.3667264 -0.9143049 0.1719253
vn 0.5043803 -0.4773594 -0.7195335
vn 0.8528017 -0.4931804 -0.1717621
vn 0.9866766 -0.03377106 -0.15915
vn 0.622055 -0.02257756 -0.782648
vn 0.7507918 0.6569813 -0.06846238
vn 0.2224943 -0.4701041 -0.8541068
vn 0.484969 0.6551259 -0.5793231
vn 0.2802833 -0.02778657 -0.959515
vn -0.04127799 -0.4804024 -0.8760763
vn 0.2379322 0.7143185 -0.6581317
vn -0.04346855 -0.02160734 -0.9988211
vn -0.7051347 -0.4421262 -0.554355
vn -0.03365925 0.705 -0.7084081
vn -0.7558427 -8.649377E-06 -0.6547531
vn -0.5919026 0.7022913 -0.3955229
vn 0.06879662 0.03258506 0.9970984
vn -0.2266878 0.6742457 0.7028551
vn 0.09936503 0.6397878 0.7621012
vn -0.3811415 0.04421069 0.9234591
vn -0.6186655 0.5787293 0.5313431
vn -0.832364 0.01928214 0.553894
vn 0.04131166 -0.5079536 0.8603932
vn -0.3475008 -0.4642368 0.8146947
vn -0.7532955 -0.4446368 0.484607
vn -0.3667264 -0.9143049 0.1719253
vn -0.2004626 -0.9375634 0.2842354
vn -0.03305389 -0.948381 0.3154059
vn -0.7575908 -0.4870583 -0.4345461
vn -0.4965619 -0.5030492 -0.7073668
vn -0.5618652 -0.1105916 -0.8198031
vn -0.8989993 -0.1108876 -0.4236795
vn -0.5105326 0.3968329 -0.7628108
vn -0.8537307 -0.4984209 -0.1507334
vn -0.8494731 0.2827535 -0.4454727
vn -0.9885904 -0.1128313 -0.09979024
vn -0.7450915 -0.5714542 0.343917
vn -0.9002016 -0.2012474 0.3861818
vn -0.7550614 0.63934 -0.1453504
vn -0.6987013 0.6490135 -0.3009952
vn -0.9342489 0.35662 -0.00108661
vn -0.885125 0.2896277 0.3642384
vn -0.5354176 0.8354292 0.1240404
vn 0.6101485 -0.5071707 -0.6086844
vn 0.8671668 -0.4395123 -0.2342024
vn 0.9658663 -0.08231917 -0.245613
vn 0.6734522 -0.08948184 -0.733795
vn 0.9634366 -0.23646 -0.1260021
vn 0.2688914 -0.5753263 -0.7724617
vn 0.7440807 -0.2648281 -0.6133596
vn 0.2449655 -0.09754027 -0.9646128
vn -0.2613828 -0.5606809 -0.7856946
vn 0.2634524 -0.238733 -0.9346654
vn 0.7676091 -0.3174092 -0.5568013
vn -0.2494577 -0.1228915 -0.9605564
vn -0.7933897 -0.3753131 -0.479242
vn -0.816592 -0.1508614 -0.557152
vn -0.1190897 -0.2346614 -0.9647548
vn -0.6970597 -0.2718831 -0.6634662
vn 0.2495144 -0.2060482 -0.946196
vn 0.6805206 0.5008001 -0.5348747
vn 0.1549081 0.6109231 -0.7763868
vn -0.05389484 -0.1354778 -0.9893134
vn -0.7437491 0.1347181 -0.654743
vn -0.09494304 0.6993387 -0.7084569
vn -0.3565435 0.6761956 -0.6446986
vn 0.6304532 -0.3687052 0.6830704
vn 0.128444 -0.3313037 0.9347406
vn 0.0935334 0.1203995 0.9883094
vn 0.6451398 0.1203816 0.7545217
vn 0.05365194 0.4847887 0.8729842
vn 0.5407612 0.5243511 0.6577486
vn 0.928948 -0.3159125 0.1930155
vn 0.4411215 -0.8131406 0.3797556
vn 0.5490204 -0.833328 0.06435062
vn 0.9542277 0.1007856 0.2815881
vn 0.82485 0.5105518 0.2428154
vn 0.9199837 -0.3745976 -0.1153549
vn 0.5092334 -0.8560136 -0.08900607
vn 0.9853008 0.09552906 -0.1416214
vn 0.8123218 0.5355536 -0.2309016
vn 0.6271092 -0.3957987 -0.6708781
vn 0.6739112 0.09190757 -0.7330735
vn -0.799957 0.06747522 0.5962516
vn -0.5830496 0.8012072 0.1346112
vn -0.4544248 0.7477663 0.4840906
vn -0.9874326 0.1553386 -0.02909892
vn -0.7593625 -0.5184304 0.3931903
vn -0.36161 0.8419237 -0.4005031
vn -0.8841042 -0.4564079 -0.1002579
vn -0.6633969 0.2152446 -0.716641
vn -0.5926192 -0.3900013 -0.7047706
vn 0.2384849 -0.0747185 0.9682676
vn -0.19683 0.6484058 0.73541
vn 0.2070013 0.668138 0.7146621
vn -0.3031988 -0.03098122 0.9524236
vn 0.1860932 -0.6090406 0.7709987
vn -0.2885086 0.7636675 0.5775593
vn -0.2416334 -0.5812438 0.7770258
vn -0.5990961 0.0165902 0.8005052
vn -0.4544248 0.7477663 0.4840906
vn -0.799957 0.06747522 0.5962516
vn -0.562349 -0.5568008 0.6113399
vn -0.7593625 -0.5184304 0.3931903
vn -0.4291515 -0.8968678 0.107038
vn -0.2738069 -0.9490675 0.1558868
vn -0.1248607 -0.9455862 0.3004606
vn 0.923536 -0.113904 -0.3662064
vn 0.7400111 0.6294504 0.2370144
vn 0.7763884 0.6111901 -0.1538428
vn 0.9726517 -0.1148865 0.2018657
vn 0.6518097 -0.6342103 -0.4158382
vn 0.5680064 0.590188 0.5736262
vn 0.7830612 -0.6156881 0.08799622
vn 0.6660705 -0.1175534 0.7365673
vn 0.2070013 0.668138 0.7146621
vn 0.5389984 -0.6361629 0.5520666
vn 0.2384849 -0.0747185 0.9682676
vn 0.1860932 -0.6090406 0.7709987
vn -0.6633969 0.2152446 -0.716641
vn -0.1077629 0.8991227 -0.4242235
vn -0.36161 0.8419237 -0.4005031
vn -0.2350938 0.1581865 -0.9590141
vn -0.5926192 -0.3900013 -0.7047706
vn -0.1338731 0.8734449 -0.4681581
vn -0.2611744 -0.4270253 -0.8657005
vn -0.3261846 0.1519249 -0.9330179
vn -0.04132074 0.8430109 -0.536307
vn -0.2708425 -0.439957 -0.8562022
vn -0.206417 0.1295235 -0.9698535
vn 0.4118337 0.6698405 -0.6178241
vn -0.1710186 -0.4086754 -0.8965139
vn 0.3963169 0.02541985 -0.9177619
vn 0.7763884 0.6111901 -0.1538428
vn 0.923536 -0.113904 -0.3662064
vn 0.255347 -0.5305311 -0.8082913
vn -0.06724288 -0.8314606 -0.5514995
vn 0.6518097 -0.6342103 -0.4158382
vn -0.5830496 0.8012072 0.1346112
vn -0.36161 0.8419237 -0.4005031
vn -0.1077629 0.8991227 -0.4242235
vn 0.07025248 0.9880504 0.1371896
vn -0.4544248 0.7477663 0.4840906
vn -0.1338731 0.8734449 -0.4681581
vn 0.07338686 0.9803246 0.1832435
vn -0.2885086 0.7636675 0.5775593
vn 0.195182 0.9775638 0.07920223
vn -0.04132074 0.8430109 -0.536307
vn 0.2310251 0.9664075 0.1126236
vn 0.7763884 0.6111901 -0.1538428
vn 0.4118337 0.6698405 -0.6178241
vn 0.7400111 0.6294504 0.2370144
vn 0.1685287 0.9718984 0.1643516
vn 0.5680064 0.590188 0.5736262
vn 0.08223658 0.9749832 0.2065066
vn -0.19683 0.6484058 0.73541
vn 0.2070013 0.668138 0.7146621
vn -0.09494304 0.6993387 -0.7084569
vn -0.5699148 0.8216437 -0.009941145
vn -0.3565435 0.6761956 -0.6446986
vn -0.1102846 0.9938658 -0.008243846
vn 0.1549081 0.6109231 -0.7763868
vn -0.6842357 0.7291701 0.01150532
vn -0.01982952 0.9997911 -0.004968485
vn 0.6805206 0.5008001 -0.5348747
vn 0.8090758 0.5809271 -0.08899563
vn -0.09605149 0.9778984 0.1857117
vn -0.5102254 0.853836 0.1031219
vn -0.05312328 0.9900267 0.1304801
vn 0.7520835 0.5641286 0.3407775
vn -0.4579435 0.525012 0.7173913
vn -0.9473516 0.2940385 0.1267528
vn -0.8277156 0.1925618 0.5270737
vn -0.01866177 0.9002816 0.4349077
vn -0.1268748 0.4207429 0.898264
vn -0.09885572 0.918117 0.383782
vn 0.3954258 0.6150725 0.6821468
vn 0.07322381 0.3539957 0.9323761
vn 0.4455192 0.5396015 -0.7143828
vn 0.9801556 -0.06147985 -0.1884545
vn 0.6428264 -0.1325534 -0.754456
vn 0.8123218 0.5355536 -0.2309016
vn 0.9535861 -0.06577878 0.2938482
vn 0.82485 0.5105518 0.2428154
vn 0.7528535 -0.1121984 0.6485547
vn 0.5407612 0.5243511 0.6577486
vn 0.1186565 0.09313556 0.9885578
vn 0.05365194 0.4847887 0.8729842
vn -0.2635034 0.2852918 0.9215067
vn -0.4568112 0.5230147 0.7195687
vn -0.6981197 0.2812161 0.6584424
vn -0.89249 0.3014149 0.3355752
vn -0.7535549 0.5583192 0.3470371
vn -0.9649583 0.2623269 0.006340698
vn -0.8408252 0.537425 -0.06471004
vn -0.7742761 0.05127664 -0.6307671
vn -0.5411657 0.5440429 -0.6412152
vn 0.004025973 -0.900928 0.4339499
vn -0.03034622 -0.5638448 0.825323
vn 0.3655774 -0.5411865 0.7572783
vn 0.2320107 -0.8850382 0.403582
vn 0.05603658 -0.9960691 0.06860237
vn 0.3754793 -0.8978085 0.23012
vn -0.06763256 -0.9972415 0.03058196
vn -0.2320732 -0.9067225 0.3521308
vn 0.09209576 -0.990662 -0.1005342
vn -0.05855012 -0.9847903 -0.163585
vn -0.4646837 -0.8810977 -0.08795466
vn -0.3952782 -0.8642726 -0.3111078
vn -0.3999997 -0.8981661 0.1824771
vn -0.4418378 -0.5694183 0.6932116
vn -0.7450915 -0.5714542 0.343917
vn -0.8537307 -0.4984209 -0.1507334
vn -0.7575908 -0.4870583 -0.4345461
vn -0.2973074 -0.827786 -0.4757927
vn -0.4965619 -0.5030492 -0.7073668
vn -0.03957609 -0.8449506 -0.5333782
vn 0.002608056 -0.460852 -0.8874732
vn 0.2197638 -0.8478296 -0.4825855
vn 0.3301591 -0.4557055 -0.8266363
vn 0.4328523 -0.8839428 -0.1768726
vn 0.3663941 -0.8361769 -0.408122
vn 0.5824094 -0.47539 -0.6593965
vn 0.8134769 -0.5527669 -0.1808426
vn 0.7280691 -0.5546952 0.4027761
vn 0.3219211 -0.9404252 -0.1093946
vn 0.8528017 -0.4931804 -0.1717621
vn 0.5043803 -0.4773594 -0.7195335
vn 0.1366998 -0.9017743 -0.4100197
vn 0.2224943 -0.4701041 -0.8541068
vn 0.0185878 -0.9228449 -0.384723
vn -0.04127799 -0.4804024 -0.8760763
vn -0.09663823 -0.9922517 -0.07808748
vn 0.2704042 -0.9402552 0.2068861
vn -0.06288959 -0.9064263 -0.4176556
vn -0.7051347 -0.4421262 -0.554355
vn -0.03305389 -0.948381 0.3154059
vn 0.6632305 -0.5056079 0.5518025
vn 0.04131166 -0.5079536 0.8603932
vn -0.04218181 -0.9963008 -0.07486942
vn -0.2004626 -0.9375634 0.2842354
vn -0.373913 -0.8828993 -0.2840387
vn -0.9004762 -0.4333736 -0.03646867
vn -0.422603 -0.9027143 -0.08070715
vn -0.3667264 -0.9143049 0.1719253
vn -0.1248607 -0.9455862 0.3004606
vn -0.2416334 -0.5812438 0.7770258
vn 0.1860932 -0.6090406 0.7709987
vn 0.06398839 -0.9656866 0.2517039
vn -0.2738069 -0.9490675 0.1558868
vn 0.5389984 -0.6361629 0.5520666
vn -0.06640749 -0.9887787 -0.1338167
vn -0.4291515 -0.8968678 0.107038
vn 0.1958966 -0.9648633 0.1751094
vn 0.7830612 -0.6156881 0.08799622
vn 0.2956191 -0.9539518 -0.05084668
vn -0.08116904 -0.9832836 -0.162987
vn 0.6518097 -0.6342103 -0.4158382
vn -0.4773267 -0.8683272 -0.1347857
vn -0.7593625 -0.5184304 0.3931903
vn -0.8841042 -0.4564079 -0.1002579
vn -0.3698692 -0.8319352 -0.413619
vn -0.5926192 -0.3900013 -0.7047706
vn -0.2117904 -0.8907506 -0.4021293
vn -0.2611744 -0.4270253 -0.8657005
vn -0.1264816 -0.8830889 -0.4518366
vn -0.2708425 -0.439957 -0.8562022
vn -0.06724288 -0.8314606 -0.5514995
vn -0.1710186 -0.4086754 -0.8965139
vn -0.03402492 -0.9719191 -0.2328423
vn 0.255347 -0.5305311 -0.8082913
vn 0.1919542 -0.920197 -0.3411613
vt 0.1901565 0.3317699
vt 0.1846756 0.3392726
vt 0.1901565 0.3438607
vt 0.2465828 0.6402482
vt 0.2601448 0.6387675
vt 0.2548221 0.6197748
vt 0.2078173 0.6338331
vt 0.2016467 0.6247678
vt 0.2570213 0.5045489
vt 0.2825473 0.5034617
vt 0.206954 0.5038839
vt 0.3044102 0.3893531
vt 0.2788009 0.3906817
vt 0.2084958 0.3884559
vt 0.2983929 0.3357426
vt 0.3134786 0.3368223
vt 0.2633407 0.3380897
vt 0.1991982 0.3331753
vt 0.2613704 0.3262816
vt 0.1997764 0.3211505
vt 0.3047929 0.3211505
vt 0.3154663 0.3265061
vt 0.2892719 0.3197251
vt 0.3179552 0.3211505
vt 0.3225648 0.3121749
vt 0.2919772 0.3027525
vt 0.249693 0.3182978
vt 0.3264031 0.188042
vt 0.2454912 0.2986828
vt 0.2307533 0.3167661
vt 0.2205716 0.2994195
vt 0.2999032 0.1896895
vt 0.3630357 0.07279339
vt 0.2419673 0.182493
vt 0.2231514 0.1800525
vt 0.3152857 0.07356714
vt 0.3834498 0.0102783
vt 0.2393459 0.06765265
vt 0.2120848 0.06531956
vt 0.2390391 0.06524239
vt 0.2004929 0.01355375
vt 0.2728718 0.02122788
vt 0.2317013 0.01381832
vt 0.1991983 0.003225859
vt 0.2310572 0.00426149
vt 0.2763156 0.002392463
vt 0.2296258 2.191703E-08
vt 0.3215061 0.01450439
vt 0.31847 0.005176041
vt 0.387207 6.8887E-09
vt 0.2041376 0.7947135
vt 0.1991983 0.8236907
vt 0.2635445 0.8442112
vt 0.2706403 0.813783
vt 0.3031614 0.8462907
vt 0.2009237 0.7430689
vt 0.3211468 0.8184578
vt 0.2700837 0.7428494
vt 0.2007353 0.6961219
vt 0.321723 0.7441499
vt 0.3311529 0.7427805
vt 0.3335714 0.6846326
vt 0.2712487 0.6860943
vt 0.1991983 0.6607826
vt 0.2725075 0.6416376
vt 0.3244669 0.6862447
vt 0.3328793 0.6460712
vt 0.3258899 0.6402482
vt -2.818505E-09 0.8327577
vt 0.05203164 0.8514867
vt 0.05315504 0.8275427
vt 0.0142436 0.8558865
vt 0.003879404 0.8844698
vt 0.04489772 0.8956223
vt -3.352298E-10 0.9314712
vt 0.09168827 0.8559535
vt 0.03908651 0.9388703
vt 0.00313922 0.9708727
vt 0.0496098 0.9863741
vt 0.08863351 0.8989746
vt 0.121786 0.8687562
vt 0.1201727 0.9055861
vt 0.08369685 0.9429246
vt 0.09053905 0.9836659
vt 0.1211563 0.9449166
vt 0.1132847 0.9686164
vt 0.6507518 0.7951316
vt 0.6599611 0.8212473
vt 0.6997029 0.8203301
vt 0.7129616 0.7880672
vt 0.7482294 0.8170471
vt 0.7672345 0.7924147
vt 0.784905 0.668004
vt 0.7264404 0.6691555
vt 0.7623025 0.5791323
vt 0.6507518 0.664927
vt 0.7238474 0.579379
vt 0.6606224 0.5773926
vt 0.363374 0.8203649
vt 0.3448521 0.8424191
vt 0.3524418 0.8510943
vt 0.3710721 0.826449
vt 0.3677266 0.8019451
vt 0.3787964 0.806733
vt 0.3556751 0.7619747
vt 0.3699656 0.7549742
vt 0.3448521 0.7369707
vt 0.3488249 0.7287273
vt 0.002467174 0.02187686
vt 0.04655505 0.001011171
vt 1.272825E-09 0.007345726
vt 0.06876586 0.02275901
vt 0.027776 0.0880525
vt 0.1134717 1.01468E-08
vt 0.05675529 0.08228892
vt 0.1126797 0.0146153
vt 0.1612862 5.188031E-09
vt 0.1144239 0.08182114
vt 0.05028523 0.1968158
vt 0.157669 0.01446875
vt 0.1991983 0.02338041
vt 0.1974302 0.03528869
vt 0.1438137 0.08110214
vt 0.1871761 0.08968975
vt 0.1087738 0.1977675
vt 0.04763991 0.3181799
vt 0.1259548 0.1986209
vt 0.1635293 0.2026543
vt 0.09462974 0.3095201
vt 0.05731633 0.3261808
vt 0.09721456 0.3190496
vt 0.124106 0.311424
vt 0.1524165 0.3237454
vt 0.1221236 0.3204187
vt 0.1462108 0.3317699
vt -2.847293E-09 0.5641515
vt 0.01565816 0.5885817
vt 0.0514647 0.5807593
vt 0.045442 0.5447072
vt 0.09680358 0.5825214
vt 0.05408619 0.436023
vt -1.107475E-08 0.4390083
vt 0.1061702 0.5488597
vt 0.1272145 0.5810162
vt 0.1439941 0.5527658
vt 0.1591918 0.4302592
vt 0.1203217 0.4313876
vt 0.05393691 0.350894
vt 0.02051387 0.3496726
vt 0.1031412 0.3503474
vt 0.06100859 0.3361185
vt 0.0358687 0.3360038
vt 0.1011353 0.3352387
vt 0.1195182 0.3317699
vt 0.1288755 0.3473983
vt 0.1582848 0.3431453
vt 0.1846757 0.4260883
vt 0.387207 0.800193
vt 0.4069721 0.8309457
vt 0.4389792 0.8262057
vt 0.4243752 0.7862484
vt 0.4717825 0.8215443
vt 0.4691722 0.7818826
vt 0.496429 0.8239503
vt 0.4984677 0.6721522
vt 0.4153567 0.67387
vt 0.5028356 0.7894765
vt 0.5218267 0.8309457
vt 0.5368395 0.8024471
vt 0.531683 0.6742187
vt 0.5083956 0.5911859
vt 0.492864 0.5914087
vt 0.4238604 0.5944101
vt 0.9683998 0.04049587
vt 0.9727113 0.01563403
vt 0.8998287 -9.843507E-09
vt 0.9006171 0.03307556
vt 0.8569653 0.001035767
vt 0.9627486 0.1416501
vt 0.9777754 0.04203784
vt 0.9723786 0.1359053
vt 0.8580616 0.03363878
vt 0.8389806 0.03573757
vt 0.8389806 0.1534002
vt 0.8981119 0.1484661
vt 0.960238 0.1694208
vt 0.9025282 0.1862482
vt 0.846061 0.1512112
vt 0.8557494 0.1902675
vt 0.4563069 0.9822595
vt 0.5036223 0.9836081
vt 0.5047526 0.9572147
vt 0.4555613 0.9339802
vt 0.3969082 0.9304641
vt 0.3984753 0.9718579
vt 0.387207 0.9656781
vt 0.3875104 0.9312637
vt 0.387207 0.8445916
vt 0.4526487 0.8309457
vt 0.4947576 0.9357942
vt 0.513593 0.9399938
vt 0.4924253 0.8315867
vt 0.5091359 0.8385605
vt 0.748174 0.5276015
vt 0.7104944 0.5103494
vt 0.7487454 0.5436928
vt 0.7518973 0.4304475
vt 0.70604 0.4333961
vt 0.8427882 0.4383102
vt 0.8582331 0.5372108
vt 0.7552308 0.371518
vt 0.707288 0.3748724
vt 0.9196935 0.4917819
vt 0.8798848 0.5436928
vt 0.9029544 0.5300394
vt 0.9157723 0.374273
vt 0.8472777 0.3773676
vt 0.7543014 0.3300511
vt 0.7212642 0.3379039
vt 0.7167385 0.3313018
vt 0.7548655 0.3224779
vt 0.7620013 0.3220818
vt 0.8052458 0.3212272
vt 0.8453147 0.3316868
vt 0.8460329 0.322275
vt 0.9015778 0.3408921
vt 0.1534567 0.8275427
vt 0.181491 0.8964242
vt 0.1821242 0.8276809
vt 0.1617438 0.9004259
vt 0.1821242 0.9308883
vt 0.1632218 0.9374717
vt 0.1291686 0.8338711
vt 0.1366669 0.9024581
vt 0.1384415 0.937281
vt 0.130933 0.9018291
vt 0.121786 0.841814
vt 0.2935634 0.8462906
vt 0.3151793 0.9288241
vt 0.3168907 0.8627692
vt 0.2833277 0.9156308
vt 0.3018982 0.9619386
vt 0.2538117 0.849405
vt 0.2698198 0.9692549
vt 0.2471809 0.9016365
vt 0.217439 0.8524536
vt 0.2323823 0.971252
vt 0.1991983 0.8730621
vt 0.1991983 0.9483439
vt 0.6206965 0.8188108
vt 0.5948148 0.7802139
vt 0.5976688 0.8155451
vt 0.6253095 0.7825811
vt 0.5948148 0.7155858
vt 0.6350663 0.7151209
vt 0.6382514 0.8213687
vt 0.6400224 0.7838142
vt 0.647379 0.7200322
vt 0.6458616 0.7836966
vt 0.6454911 0.8193063
vt 0.596796 0.6954686
vt 0.5948148 0.7133321
vt 0.6197933 0.7151208
vt 0.6204366 0.6971074
vt 0.6483118 0.7091715
vt 0.5981514 0.6607925
vt 0.6488739 0.6922991
vt 0.61465 0.660364
vt 0.5950835 0.6191628
vt 0.6467574 0.6562782
vt 0.6102603 0.6172306
vt 0.5948148 0.593839
vt 0.6482432 0.6165956
vt 0.6075563 0.5911859
vt 0.6476649 0.5921566
vt 0.3481946 0.9256803
vt 0.328829 0.886638
vt 0.3296856 0.9240841
vt 0.3494427 0.8836741
vt 0.3313106 0.8539776
vt 0.3544152 0.8510942
vt 0.3729396 0.9249753
vt 0.3713569 0.8872288
vt 0.3717597 0.8542442
vt 0.3787963 0.8595443
vt 0.3772616 0.8860528
vt 0.3787963 0.9229386
vt 0.7840711 0.8698829
vt 0.7849048 0.8458634
vt 0.7118846 0.8224271
vt 0.7119322 0.855505
vt 0.6584964 0.8212473
vt 0.7849048 0.9298947
vt 0.6573331 0.8551569
vt 0.7114588 0.9419417
vt 0.7844518 0.9841331
vt 0.7127163 0.9963144
vt 0.6506772 0.9036072
vt 0.6496351 0.8625782
vt 0.6628188 0.9418361
vt 0.6699631 1
vt 0.6518351 0.9450312
vt 0.5182007 0.3168069
vt 0.5428071 0.3120448
vt 0.5533936 0.1908012
vt 0.5246829 0.1914075
vt 0.5663411 0.07709029
vt 0.4984008 0.3212213
vt 0.546387 0.07812022
vt 0.4995047 0.1914263
vt 0.446495 0.3212272
vt 0.5150631 0.07800776
vt 0.57105 0.01439847
vt 0.4440411 0.1892046
vt 0.4202007 0.3149838
vt 0.4157782 0.1908965
vt 0.4461884 0.07522581
vt 0.3991213 0.07417797
vt 0.5263968 0.01515618
vt 0.5735729 -9.726298E-09
vt 0.5266539 0.0009570984
vt 0.4467435 0.01374453
vt 0.387207 0.01090377
vt 0.4468029 -8.55563E-09
vt 0.3963384 0.0002171621
vt 0.1180113 0.7973053
vt 0.1575783 0.7993058
vt 0.1781047 0.6881
vt 0.1399567 0.6778194
vt 0.1688516 0.6047676
vt 0.138014 0.5922129
vt 0.08438024 0.7939361
vt 0.1033152 0.8275428
vt 0.07328904 0.826769
vt 0.09496931 0.6710252
vt 0.1053266 0.5885817
vt 0.03233198 0.795278
vt 0.04311853 0.8264132
vt 0.0348008 0.666898
vt 0.05387992 0.5893817
vt 7.965519E-09 0.7971013
vt 1.374676E-08 0.6736243
vt 0.3650434 0.7287273
vt 0.3489555 0.6237521
vt 0.3448522 0.7217287
vt 0.3652008 0.6207991
vt 0.387207 0.7265283
vt 0.3485522 0.5948556
vt 0.3842339 0.6234022
vt 0.3668727 0.5911859
vt 0.387207 0.595225
vt 0.5628205 0.7864827
vt 0.5379648 0.7536159
vt 0.5368395 0.7843505
vt 0.5629822 0.7537056
vt 0.5796449 0.7841799
vt 0.5375485 0.6837035
vt 0.5811221 0.7540694
vt 0.5647333 0.6815008
vt 0.5368395 0.5984367
vt 0.5575716 0.5911859
vt 0.5895453 0.6838152
vt 0.5795955 0.5938084
vt 0.5853267 0.599639
vt 0.5948148 0.6852075
vt 0.5865778 0.752631
vt 0.3400816 0.3211505
vt 0.361454 0.4421109
vt 0.3563966 0.3246713
vt 0.333364 0.4381551
vt 0.3194812 0.3291552
vt 0.3588106 0.5529042
vt 0.3154663 0.4386776
vt 0.3324814 0.5564432
vt 0.3606543 0.5724939
vt 0.3154663 0.5532189
vt 0.3338101 0.5781797
vt 0.317218 0.5752587
vt 0.6832996 0.3212272
vt 0.70604 0.4081868
vt 0.7012835 0.3301938
vt 0.6762109 0.3997261
vt 0.6628451 0.3251736
vt 0.7058396 0.4478803
vt 0.6507518 0.3985322
vt 0.6769764 0.4443288
vt 0.7057192 0.497855
vt 0.650806 0.44499
vt 0.681605 0.4985733
vt 0.691178 0.5549109
vt 0.6622685 0.4974039
vt 0.6794976 0.5546374
vt 0.6873209 0.5772037
vt 0.6714438 0.5773926
vt 0.6685665 0.5529643
vt 0.6559879 0.4991228
vt 0.6507518 0.5697084
vt 0.625317 0.5911858
vt 0.6507518 0.5735409
vt 0.640014 0.4932697
vt 0.5609571 0.4515085
vt 0.5236717 0.5878265
vt 0.6425667 0.4490607
vt 0.4797854 0.4607818
vt 0.4594423 0.5281991
vt 0.5886132 0.3875724
vt 0.6507518 0.3912838
vt 0.5272574 0.3723253
vt 0.6136662 0.3212271
vt 0.6444326 0.3322816
vt 0.475336 0.3594226
vt 0.4764411 0.3845983
vt 0.3904962 0.4331234
vt 0.4169445 0.4571159
vt 0.3942685 0.4876084
vt 0.387207 0.4553812
vt 0.9254794 0.5833806
vt 0.9904992 0.6576495
vt 0.9765794 0.5877178
vt 0.926852 0.6840115
vt 0.84465 0.5773927
vt 0.9851853 0.698938
vt 0.866307 0.6853664
vt 0.7994671 0.595839
vt 0.7849049 0.6596258
vt 0.9301767 0.7556878
vt 0.986806 0.7452402
vt 0.8685964 0.7577501
vt 0.7875988 0.7370793
vt 0.9674137 0.7828593
vt 0.9904992 0.7445523
vt 0.9764188 0.7752222
vt 0.927925 0.7779362
vt 0.9255978 0.7941251
vt 0.8684484 0.7788228
vt 0.8164628 0.7745102
vt 0.8612974 0.7941085
vt 0.6437126 0.8539302
vt 0.6081727 0.8490781
vt 0.6308764 0.8664854
vt 0.6109061 0.8309457
vt 0.5655935 0.8577883
vt 0.555372 0.8423067
vt 0.5436404 0.8702117
vt 0.5269309 0.8591725
vt 0.53228 0.896507
vt 0.513593 0.8944616
vt 0.5354705 0.9373192
vt 0.5274752 0.9633701
vt 0.5447619 0.9481002
vt 0.5637372 0.9554354
vt 0.5435027 0.9734539
vt 0.6032658 0.9632568
vt 0.6062342 0.9803677
vt 0.6311181 0.9519038
vt 0.6437126 0.9646995
vt 0.7925807 0.9431173
vt 0.784905 0.9488539
vt 0.8010888 0.9760664
vt 0.8080463 0.9699547
vt 0.8469588 0.8988692
vt 0.8388079 0.9872626
vt 0.8413754 0.8540775
vt 0.7930414 0.8493591
vt 0.9153756 0.8879737
vt 0.9110989 0.8445825
vt 0.8456393 0.8027908
vt 0.9105961 0.8085308
vt 0.8041773 0.8287235
vt 0.784905 0.8478286
vt 0.7981529 0.8226649
vt 0.8450041 0.794125
vt 0.9116436 0.7992513
vt 0.935143 0.8151314
vt 0.9402229 0.8062558
vt 0.9538692 0.8395982
vt 0.9631451 0.8374153
vt 0.9598958 0.8849587
vt 0.969175 0.8841541
vt 0.9288012 0.9652603
vt 0.9462743 0.9398507
vt 0.9563704 0.9399168
vt 0.9317878 0.9748994
vt 0.8378085 0.9971929
vt 0.9523521 0.224082
vt 0.9593807 0.2184954
vt 0.9399937 0.1968763
vt 0.9362687 0.2028781
vt 0.9052429 0.1940889
vt 0.9056231 0.2011826
vt 0.8630714 0.1902675
vt 0.9113688 0.2546751
vt 0.9536313 0.2901019
vt 0.864284 0.1974228
vt 0.8389804 0.2058903
vt 0.9241489 0.3107665
vt 0.9593807 0.2933017
vt 0.9257703 0.3166662
vt 0.8740521 0.2597326
vt 0.8871219 0.3108263
vt 0.8451248 0.2102336
vt 0.8417248 0.2711778
vt 0.847688 0.2693351
vt 0.8613039 0.3026315
vt 0.679533 0.2587954
vt 0.6777065 0.2646602
vt 0.7108504 0.2690888
vt 0.7098323 0.262534
vt 0.6388192 0.1973613
vt 0.7364336 0.2657347
vt 0.6920431 0.1478454
vt 0.5807305 0.1308575
vt 0.7338793 0.2594582
vt 0.8103721 0.175601
vt 0.8043901 0.1724899
vt 0.7007647 0.06668949
vt 0.8389806 0.03779597
vt 0.5800117 0.02748348
vt 0.5741974 0.1306806
vt 0.5735729 0.02516407
vt 0.5942546 0.005756523
vt 0.590338 1.489106E-08
vt 0.667668 0.01596862
vt 0.6653004 0.009820768
vt 0.7151671 0.01270555
vt 0.7170275 0.006380974
vt 0.775874 0.006179736
vt 0.7767757 5.682579E-09
vt 0.7762237 0.05122187
vt 0.8336181 0.008416547
vt 0.8314885 0.03945176
usemtl MV_RockDesert_Hoodoo
f 1/1/1 3/3/3 2/2/2
f 4/4/4 6/6/6 5/5/5
f 7/7/7 6/6/6 4/4/4
f 7/7/7 8/8/8 6/6/6
f 8/8/8 9/9/9 6/6/6
f 6/6/6 9/9/9 10/10/10
f 8/8/8 11/11/11 9/9/9
f 9/9/9 12/12/12 10/10/10
f 11/11/11 13/13/13 9/9/9
f 9/9/9 13/13/13 12/12/12
f 11/11/11 14/14/14 13/13/13
f 15/15/15 12/12/12 13/13/13
f 15/15/15 16/16/16 12/12/12
f 14/14/14 17/17/17 13/13/13
f 13/13/13 17/17/17 15/15/15
f 14/14/14 18/18/18 17/17/17
f 18/18/18 19/19/19 17/17/17
f 15/15/15 17/17/17 19/19/19
f 18/18/18 20/20/20 19/19/19
f 15/15/15 19/19/19 21/21/21
f 21/21/21 16/16/16 15/15/15
f 21/21/21 22/22/22 16/16/16
f 23/23/23 25/25/25 24/24/24
f 23/23/23 26/26/26 25/25/25
f 27/27/27 26/26/26 23/23/23
f 26/26/26 28/28/28 25/25/25
f 27/27/27 29/29/29 26/26/26
f 30/30/30 29/29/29 27/27/27
f 30/30/30 31/31/31 29/29/29
f 26/26/26 32/32/32 28/28/28
f 29/29/29 32/32/32 26/26/26
f 32/32/32 33/33/33 28/28/28
f 31/31/31 34/34/34 29/29/29
f 29/29/29 34/34/34 32/32/32
f 31/31/31 35/35/35 34/34/34
f 32/32/32 36/36/36 33/33/33
f 34/34/34 36/36/36 32/32/32
f 36/36/36 37/37/37 33/33/33
f 35/35/35 38/38/38 34/34/34
f 34/34/34 38/38/38 36/36/36
f 35/35/35 39/39/39 38/38/38
f 39/39/39 40/40/40 38/38/38
f 40/40/40 39/39/39 41/41/41
f 38/38/38 42/42/42 36/36/36
f 38/38/38 40/40/40 42/42/42
f 40/40/40 41/41/41 43/43/43
f 43/43/43 42/42/42 40/40/40
f 43/43/43 41/41/41 44/44/44
f 43/43/43 44/44/44 45/45/45
f 46/46/46 43/43/43 45/45/45
f 46/46/46 42/42/42 43/43/43
f 45/45/45 47/47/47 46/46/46
f 36/36/36 42/42/42 48/48/48
f 48/48/48 42/42/42 46/46/46
f 36/36/36 48/48/48 37/37/37
f 49/49/49 48/48/48 46/46/46
f 49/49/49 37/37/37 48/48/48
f 49/49/49 50/50/50 37/37/37
f 51/51/51 53/53/53 52/52/52
f 51/51/51 54/54/54 53/53/53
f 54/54/54 55/55/55 53/53/53
f 56/56/56 54/54/54 51/51/51
f 54/54/54 57/57/57 55/55/55
f 56/56/56 58/58/58 54/54/54
f 58/58/58 57/57/57 54/54/54
f 59/59/59 58/58/58 56/56/56
f 58/58/58 60/60/60 57/57/57
f 61/61/61 57/57/57 60/60/60
f 62/62/62 61/61/61 60/60/60
f 59/59/59 63/63/63 58/58/58
f 63/63/63 60/60/60 58/58/58
f 64/64/64 63/63/63 59/59/59
f 64/64/64 65/65/65 63/63/63
f 62/62/62 60/60/60 66/66/66
f 63/63/63 66/66/66 60/60/60
f 65/65/65 66/66/66 63/63/63
f 67/67/67 62/62/62 66/66/66
f 65/65/65 68/68/68 66/66/66
f 67/67/67 66/66/66 68/68/68
f 69/69/69 71/71/71 70/70/70
f 69/69/69 70/70/70 72/72/72
f 73/73/73 72/72/72 70/70/70
f 73/73/73 70/70/70 74/74/74
f 75/75/75 73/73/73 74/74/74
f 74/74/74 70/70/70 76/76/76
f 75/75/75 74/74/74 77/77/77
f 78/78/78 75/75/75 77/77/77
f 78/78/78 77/77/77 79/79/79
f 74/74/74 76/76/76 80/80/80
f 77/77/77 74/74/74 80/80/80
f 80/80/80 76/76/76 81/81/81
f 80/80/80 81/81/81 82/82/82
f 79/79/79 77/77/77 83/83/83
f 77/77/77 80/80/80 83/83/83
f 83/83/83 80/80/80 82/82/82
f 79/79/79 83/83/83 84/84/84
f 83/83/83 82/82/82 85/85/85
f 84/84/84 83/83/83 85/85/85
f 84/84/84 85/85/85 86/86/86
f 87/87/87 89/89/89 88/88/88
f 87/87/87 90/90/90 89/89/89
f 90/90/90 91/91/91 89/89/89
f 90/90/90 92/92/92 91/91/91
f 90/90/90 93/93/93 92/92/92
f 87/87/87 94/94/94 90/90/90
f 90/90/90 94/94/94 93/93/93
f 94/94/94 95/95/95 93/93/93
f 87/87/87 96/96/96 94/94/94
f 94/94/94 97/97/97 95/95/95
f 96/96/96 97/97/97 94/94/94
f 96/96/96 98/98/98 97/97/97
f 99/99/99 101/101/101 100/100/100
f 99/99/99 102/102/102 101/101/101
f 103/103/103 102/102/102 99/99/99
f 103/103/103 104/104/104 102/102/102
f 105/105/105 104/104/104 103/103/103
f 105/105/105 106/106/106 104/104/104
f 107/107/107 106/106/106 105/105/105
f 107/107/107 108/108/108 106/106/106
f 109/109/109 111/111/111 110/110/110
f 109/109/109 110/110/110 112/112/112
f 113/113/113 109/109/109 112/112/112
f 112/112/112 110/110/110 114/114/114
f 113/113/113 112/112/112 115/115/115
f 112/112/112 114/114/114 116/116/116
f 115/115/115 112/112/112 116/116/116
f 116/116/116 114/114/114 117/117/117
f 115/115/115 116/116/116 118/118/118
f 119/119/119 115/115/115 118/118/118
f 116/116/116 117/117/117 120/120/120
f 118/118/118 116/116/116 120/120/120
f 120/120/120 117/117/117 121/121/121
f 120/120/120 121/121/121 122/122/122
f 123/123/123 120/120/120 122/122/122
f 118/118/118 120/120/120 123/123/123
f 123/123/123 122/122/122 124/124/124
f 119/119/119 118/118/118 125/125/125
f 125/125/125 118/118/118 123/123/123
f 126/126/126 119/119/119 125/125/125
f 127/127/127 123/123/123 124/124/124
f 125/125/125 123/123/123 127/127/127
f 127/127/127 124/124/124 128/128/128
f 126/126/126 125/125/125 129/129/129
f 129/129/129 125/125/125 127/127/127
f 130/130/130 126/126/126 129/129/129
f 130/130/130 129/129/129 131/131/131
f 132/132/132 127/127/127 128/128/128
f 129/129/129 127/127/127 132/132/132
f 131/131/131 129/129/129 132/132/132
f 132/132/132 128/128/128 133/133/133
f 131/131/131 132/132/132 134/134/134
f 134/134/134 132/132/132 133/133/133
f 134/134/134 133/133/133 135/135/135
f 136/136/136 138/138/138 137/137/137
f 136/136/136 139/139/139 138/138/138
f 139/139/139 140/140/140 138/138/138
f 136/136/136 141/141/141 139/139/139
f 136/136/136 142/142/142 141/141/141
f 139/139/139 143/143/143 140/140/140
f 143/143/143 144/144/144 140/140/140
f 143/143/143 145/145/145 144/144/144
f 143/143/143 146/146/146 145/145/145
f 139/139/139 147/147/147 143/143/143
f 139/139/139 141/141/141 147/147/147
f 143/143/143 147/147/147 146/146/146
f 142/142/142 148/148/148 141/141/141
f 142/142/142 149/149/149 148/148/148
f 141/141/141 150/150/150 147/147/147
f 141/141/141 148/148/148 150/150/150
f 149/149/149 151/151/151 148/148/148
f 149/149/149 152/152/152 151/151/151
f 148/148/148 151/151/151 153/153/153
f 148/148/148 153/153/153 150/150/150
f 150/150/150 153/153/153 154/154/154
f 150/150/150 154/154/154 155/155/155
f 147/147/147 150/150/150 155/155/155
f 147/147/147 155/155/155 146/146/146
f 146/146/146 155/155/155 156/156/156
f 146/146/146 156/156/156 157/157/157
f 158/158/158 160/160/160 159/159/159
f 158/158/158 161/161/161 160/160/160
f 161/161/161 162/162/162 160/160/160
f 161/161/161 163/163/163 162/162/162
f 163/163/163 164/164/164 162/162/162
f 161/161/161 165/165/165 163/163/163
f 161/161/161 166/166/166 165/165/165
f 163/163/163 167/167/167 164/164/164
f 163/163/163 165/165/165 167/167/167
f 167/167/167 168/168/168 164/164/164
f 167/167/167 169/169/169 168/168/168
f 167/167/167 170/170/170 169/169/169
f 167/167/167 165/165/165 170/170/170
f 165/165/165 171/171/171 170/170/170
f 165/165/165 172/172/172 171/171/171
f 166/166/166 172/172/172 165/165/165
f 166/166/166 173/173/173 172/172/172
f 174/174/174 176/176/176 175/175/175
f 174/174/174 177/177/177 176/176/176
f 177/177/177 178/178/178 176/176/176
f 179/179/179 177/177/177 174/174/174
f 180/180/180 179/179/179 174/174/174
f 180/180/180 181/181/181 179/179/179
f 177/177/177 182/182/182 178/178/178
f 178/178/178 182/182/182 183/183/183
f 182/182/182 184/184/184 183/183/183
f 179/179/179 185/185/185 177/177/177
f 185/185/185 182/182/182 177/177/177
f 186/186/186 185/185/185 179/179/179
f 186/186/186 187/187/187 185/185/185
f 182/182/182 188/188/188 184/184/184
f 185/185/185 188/188/188 182/182/182
f 187/187/187 188/188/188 185/185/185
f 188/188/188 189/189/189 184/184/184
f 187/187/187 189/189/189 188/188/188
f 190/190/190 192/192/192 191/191/191
f 193/193/193 192/192/192 190/190/190
f 194/194/194 193/193/193 190/190/190
f 194/194/194 190/190/190 195/195/195
f 196/196/196 194/194/194 195/195/195
f 196/196/196 197/197/197 194/194/194
f 198/198/198 193/193/193 194/194/194
f 198/198/198 199/199/199 193/193/193
f 192/192/192 193/193/193 200/200/200
f 199/199/199 200/200/200 193/193/193
f 200/200/200 201/201/201 192/192/192
f 199/199/199 202/202/202 200/200/200
f 203/203/203 201/201/201 200/200/200
f 203/203/203 200/200/200 202/202/202
f 204/204/204 206/206/206 205/205/205
f 205/205/205 207/207/207 204/204/204
f 205/205/205 208/208/208 207/207/207
f 204/204/204 207/207/207 209/209/209
f 204/204/204 209/209/209 210/210/210
f 208/208/208 211/211/211 207/207/207
f 208/208/208 212/212/212 211/211/211
f 213/213/213 210/210/210 209/209/209
f 214/214/214 210/210/210 213/213/213
f 214/214/214 213/213/213 215/215/215
f 209/209/209 216/216/216 213/213/213
f 207/207/207 217/217/217 209/209/209
f 207/207/207 211/211/211 217/217/217
f 209/209/209 217/217/217 216/216/216
f 212/212/212 218/218/218 211/211/211
f 212/212/212 219/219/219 218/218/218
f 218/218/218 219/219/219 220/220/220
f 218/218/218 220/220/220 221/221/221
f 211/211/211 218/218/218 222/222/222
f 211/211/211 222/222/222 223/223/223
f 223/223/223 217/217/217 211/211/211
f 217/217/217 223/223/223 224/224/224
f 217/217/217 224/224/224 216/216/216
f 216/216/216 224/224/224 225/225/225
f 216/216/216 225/225/225 226/226/226
f 227/227/227 229/229/229 228/228/228
f 227/227/227 228/228/228 230/230/230
f 230/230/230 228/228/228 231/231/231
f 230/230/230 231/231/231 232/232/232
f 233/233/233 227/227/227 230/230/230
f 234/234/234 230/230/230 232/232/232
f 233/233/233 230/230/230 234/234/234
f 234/234/234 232/232/232 235/235/235
f 236/236/236 233/233/233 234/234/234
f 236/236/236 237/237/237 233/233/233
f 238/238/238 240/240/240 239/239/239
f 238/238/238 239/239/239 241/241/241
f 241/241/241 239/239/239 242/242/242
f 243/243/243 238/238/238 241/241/241
f 241/241/241 242/242/242 244/244/244
f 243/243/243 241/241/241 245/245/245
f 245/245/245 241/241/241 244/244/244
f 246/246/246 243/243/243 245/245/245
f 245/245/245 244/244/244 247/247/247
f 246/246/246 245/245/245 248/248/248
f 248/248/248 245/245/245 247/247/247
f 248/248/248 247/247/247 249/249/249
f 250/250/250 252/252/252 251/251/251
f 250/250/250 251/251/251 253/253/253
f 253/253/253 251/251/251 254/254/254
f 253/253/253 254/254/254 255/255/255
f 256/256/256 250/250/250 253/253/253
f 257/257/257 253/253/253 255/255/255
f 256/256/256 253/253/253 257/257/257
f 257/257/257 255/255/255 258/258/258
f 259/259/259 256/256/256 257/257/257
f 259/259/259 260/260/260 256/256/256
f 261/261/261 263/263/263 262/262/262
f 261/261/261 264/264/264 263/263/263
f 264/264/264 265/265/265 263/263/263
f 266/266/266 264/264/264 261/261/261
f 264/264/264 267/267/267 265/265/265
f 266/266/266 268/268/268 264/264/264
f 268/268/268 267/267/267 264/264/264
f 269/269/269 268/268/268 266/266/266
f 268/268/268 270/270/270 267/267/267
f 269/269/269 271/271/271 268/268/268
f 271/271/271 270/270/270 268/268/268
f 272/272/272 271/271/271 269/269/269
f 271/271/271 273/273/273 270/270/270
f 272/272/272 274/274/274 271/271/271
f 274/274/274 273/273/273 271/271/271
f 274/274/274 275/275/275 273/273/273
f 276/276/276 278/278/278 277/277/277
f 276/276/276 277/277/277 279/279/279
f 279/279/279 277/277/277 280/280/280
f 279/279/279 280/280/280 281/281/281
f 282/282/282 276/276/276 279/279/279
f 283/283/283 279/279/279 281/281/281
f 282/282/282 279/279/279 283/283/283
f 283/283/283 281/281/281 284/284/284
f 285/285/285 283/283/283 284/284/284
f 285/285/285 286/286/286 283/283/283
f 286/286/286 282/282/282 283/283/283
f 286/286/286 287/287/287 282/282/282
f 288/288/288 290/290/290 289/289/289
f 288/288/288 291/291/291 290/290/290
f 291/291/291 292/292/292 290/290/290
f 293/293/293 291/291/291 288/288/288
f 291/291/291 294/294/294 292/292/292
f 293/293/293 295/295/295 291/291/291
f 296/296/296 295/295/295 293/293/293
f 296/296/296 297/297/297 295/295/295
f 298/298/298 294/294/294 291/291/291
f 291/291/291 295/295/295 298/298/298
f 298/298/298 299/299/299 294/294/294
f 297/297/297 300/300/300 295/295/295
f 295/295/295 300/300/300 298/298/298
f 297/297/297 301/301/301 300/300/300
f 300/300/300 302/302/302 298/298/298
f 303/303/303 305/305/305 304/304/304
f 303/303/303 306/306/306 305/305/305
f 306/306/306 307/307/307 305/305/305
f 308/308/308 306/306/306 303/303/303
f 306/306/306 309/309/309 307/307/307
f 308/308/308 310/310/310 306/306/306
f 310/310/310 309/309/309 306/306/306
f 311/311/311 310/310/310 308/308/308
f 310/310/310 312/312/312 309/309/309
f 312/312/312 313/313/313 309/309/309
f 311/311/311 314/314/314 310/310/310
f 314/314/314 312/312/312 310/310/310
f 315/315/315 314/314/314 311/311/311
f 315/315/315 316/316/316 314/314/314
f 316/316/316 317/317/317 314/314/314
f 314/314/314 317/317/317 312/312/312
f 316/316/316 318/318/318 317/317/317
f 312/312/312 319/319/319 313/313/313
f 317/317/317 319/319/319 312/312/312
f 319/319/319 320/320/320 313/313/313
f 319/319/319 321/321/321 320/320/320
f 322/322/322 317/317/317 318/318/318
f 317/317/317 322/322/322 319/319/319
f 322/322/322 321/321/321 319/319/319
f 322/322/322 318/318/318 323/323/323
f 322/322/322 324/324/324 321/321/321
f 322/322/322 323/323/323 325/325/325
f 322/322/322 325/325/325 324/324/324
f 326/326/326 328/328/328 327/327/327
f 326/326/326 329/329/329 328/328/328
f 329/329/329 330/330/330 328/328/328
f 329/329/329 331/331/331 330/330/330
f 332/332/332 329/329/329 326/326/326
f 332/332/332 326/326/326 333/333/333
f 332/332/332 333/333/333 334/334/334
f 335/335/335 331/331/331 329/329/329
f 332/332/332 335/335/335 329/329/329
f 335/335/335 336/336/336 331/331/331
f 337/337/337 332/332/332 334/334/334
f 337/337/337 335/335/335 332/332/332
f 337/337/337 334/334/334 338/338/338
f 339/339/339 336/336/336 335/335/335
f 337/337/337 339/339/339 335/335/335
f 339/339/339 340/340/340 336/336/336
f 341/341/341 339/339/339 337/337/337
f 341/341/341 342/342/342 339/339/339
f 343/343/343 345/345/345 344/344/344
f 343/343/343 344/344/344 346/346/346
f 347/347/347 343/343/343 346/346/346
f 346/346/346 344/344/344 348/348/348
f 347/347/347 346/346/346 349/349/349
f 346/346/346 348/348/348 350/350/350
f 349/349/349 346/346/346 350/350/350
f 349/349/349 350/350/350 351/351/351
f 352/352/352 354/354/354 353/353/353
f 352/352/352 353/353/353 355/355/355
f 356/356/356 352/352/352 355/355/355
f 355/355/355 353/353/353 357/357/357
f 356/356/356 355/355/355 358/358/358
f 355/355/355 357/357/357 359/359/359
f 358/358/358 355/355/355 359/359/359
f 359/359/359 357/357/357 360/360/360
f 359/359/359 360/360/360 361/361/361
f 362/362/362 359/359/359 361/361/361
f 358/358/358 359/359/359 362/362/362
f 362/362/362 361/361/361 363/363/363
f 364/364/364 362/362/362 363/363/363
f 364/364/364 365/365/365 362/362/362
f 365/365/365 358/358/358 362/362/362
f 365/365/365 366/366/366 358/358/358
f 367/367/367 369/369/369 368/368/368
f 367/367/367 368/368/368 370/370/370
f 371/371/371 367/367/367 370/370/370
f 370/370/370 368/368/368 372/372/372
f 371/371/371 370/370/370 373/373/373
f 370/370/370 372/372/372 374/374/374
f 373/373/373 370/370/370 374/374/374
f 374/374/374 372/372/372 375/375/375
f 373/373/373 374/374/374 376/376/376
f 374/374/374 375/375/375 377/377/377
f 376/376/376 374/374/374 377/377/377
f 376/376/376 377/377/377 378/378/378
f 379/379/379 381/381/381 380/380/380
f 379/379/379 380/380/380 382/382/382
f 383/383/383 379/379/379 382/382/382
f 382/382/382 380/380/380 384/384/384
f 383/383/383 382/382/382 385/385/385
f 382/382/382 384/384/384 386/386/386
f 385/385/385 382/382/382 386/386/386
f 386/386/386 384/384/384 387/387/387
f 385/385/385 386/386/386 388/388/388
f 386/386/386 387/387/387 389/389/389
f 388/388/388 386/386/386 389/389/389
f 389/389/389 387/387/387 390/390/390
f 388/388/388 389/389/389 391/391/391
f 389/389/389 390/390/390 392/392/392
f 393/393/393 392/392/392 390/390/390
f 393/393/393 394/394/394 392/392/392
f 395/395/395 391/391/391 389/389/389
f 395/395/395 389/389/389 392/392/392
f 394/394/394 395/395/395 392/392/392
f 396/396/396 391/391/391 395/395/395
f 394/394/394 397/397/397 395/395/395
f 398/398/398 400/400/400 399/399/399
f 398/398/398 401/401/401 400/400/400
f 401/401/401 398/398/398 402/402/402
f 401/401/401 403/403/403 400/400/400
f 401/401/401 402/402/402 404/404/404
f 405/405/405 404/404/404 402/402/402
f 403/403/403 401/401/401 406/406/406
f 403/403/403 406/406/406 407/407/407
f 401/401/401 408/408/408 406/406/406
f 408/408/408 401/401/401 404/404/404
f 407/407/407 406/406/406 409/409/409
f 408/408/408 409/409/409 406/406/406
f 407/407/407 409/409/409 410/410/410
f 409/409/409 408/408/408 411/411/411
f 411/411/411 408/408/408 412/412/412
f 408/408/408 404/404/404 412/412/412
f 412/412/412 413/413/413 411/411/411
f 404/404/404 405/405/405 414/414/414
f 414/414/414 412/412/412 404/404/404
f 413/413/413 412/412/412 414/414/414
f 414/414/414 405/405/405 415/415/415
f 413/413/413 414/414/414 416/416/416
f 414/414/414 415/415/415 416/416/416
f 417/417/417 419/419/419 418/418/418
f 417/417/417 418/418/418 420/420/420
f 421/421/421 417/417/417 420/420/420
f 420/420/420 418/418/418 422/422/422
f 421/421/421 420/420/420 423/423/423
f 424/424/424 421/421/421 423/423/423
f 424/424/424 423/423/423 425/425/425
f 422/422/422 426/426/426 420/420/420
f 423/423/423 420/420/420 426/426/426
f 422/422/422 427/427/427 426/426/426
f 425/425/425 423/423/423 428/428/428
f 423/423/423 426/426/426 428/428/428
f 425/425/425 428/428/428 429/429/429
f 430/430/430 426/426/426 427/427/427
f 430/430/430 427/427/427 431/431/431
f 430/430/430 431/431/431 432/432/432
f 426/426/426 430/430/430 433/433/433
f 428/428/428 426/426/426 433/433/433
f 434/434/434 433/433/433 430/430/430
f 429/429/429 428/428/428 435/435/435
f 428/428/428 433/433/433 435/435/435
f 435/435/435 433/433/433 434/434/434
f 429/429/429 435/435/435 436/436/436
f 435/435/435 434/434/434 437/437/437
f 435/435/435 437/437/437 436/436/436
f 438/438/438 440/440/440 439/439/439
f 438/438/438 439/439/439 441/441/441
f 441/441/441 439/439/439 442/442/442
f 441/441/441 442/442/442 443/443/443
f 443/443/443 442/442/442 444/444/444
f 443/443/443 444/444/444 445/445/445
f 445/445/445 444/444/444 446/446/446
f 445/445/445 446/446/446 447/447/447
f 447/447/447 446/446/446 448/448/448
f 447/447/447 448/448/448 449/449/449
f 449/449/449 448/448/448 450/450/450
f 449/449/449 450/450/450 451/451/451
f 449/449/449 451/451/451 452/452/452
f 452/452/452 451/451/451 453/453/453
f 452/452/452 453/453/453 454/454/454
f 454/454/454 453/453/453 455/455/455
f 454/454/454 455/455/455 456/456/456
f 457/457/457 459/459/459 458/458/458
f 457/457/457 460/460/460 459/459/459
f 461/461/461 460/460/460 457/457/457
f 461/461/461 462/462/462 460/460/460
f 463/463/463 461/461/461 457/457/457
f 463/463/463 457/457/457 464/464/464
f 465/465/465 462/462/462 461/461/461
f 466/466/466 461/461/461 463/463/463
f 466/466/466 465/465/465 461/461/461
f 467/467/467 463/463/463 464/464/464
f 468/468/468 466/466/466 463/463/463
f 468/468/468 463/463/463 467/467/467
f 467/467/467 464/464/464 469/469/469
f 469/469/469 464/464/464 470/470/470
f 469/469/469 470/470/470 471/471/471
f 467/467/467 469/469/469 471/471/471
f 467/467/467 471/471/471 472/472/472
f 468/468/468 467/467/467 472/472/472
f 468/468/468 472/472/472 473/473/473
f 474/474/474 468/468/468 473/473/473
f 474/474/474 466/466/466 468/468/468
f 474/474/474 473/473/473 475/475/475
f 474/474/474 476/476/476 466/466/466
f 476/476/476 474/474/474 475/475/475
f 476/476/476 465/465/465 466/466/466
f 476/476/476 475/475/475 477/477/477
f 478/478/478 476/476/476 477/477/477
f 476/476/476 478/478/478 465/465/465
f 478/478/478 477/477/477 479/479/479
f 478/478/478 480/480/480 465/465/465
f 465/465/465 480/480/480 462/462/462
f 481/481/481 478/478/478 479/479/479
f 478/478/478 481/481/481 480/480/480
f 481/481/481 479/479/479 482/482/482
f 480/480/480 481/481/481 482/482/482
f 480/480/480 482/482/482 483/483/483
f 462/462/462 480/480/480 483/483/483
f 462/462/462 483/483/483 484/484/484
f 485/485/485 487/487/487 486/486/486
f 485/485/485 488/488/488 487/487/487
f 488/488/488 489/489/489 487/487/487
f 488/488/488 490/490/490 489/489/489
f 490/490/490 488/488/488 485/485/485
f 490/490/490 491/491/491 489/489/489
f 490/490/490 485/485/485 492/492/492
f 492/492/492 485/485/485 493/493/493
f 490/490/490 494/494/494 491/491/491
f 494/494/494 490/490/490 492/492/492
f 494/494/494 495/495/495 491/491/491
f 492/492/492 493/493/493 496/496/496
f 496/496/496 493/493/493 497/497/497
f 496/496/496 497/497/497 498/498/498
f 499/499/499 492/492/492 496/496/496
f 494/494/494 492/492/492 499/499/499
f 499/499/499 496/496/496 500/500/500
f 494/494/494 501/501/501 495/495/495
f 501/501/501 494/494/494 499/499/499
f 501/501/501 502/502/502 495/495/495
f 501/501/501 503/503/503 502/502/502
f 501/501/501 499/499/499 503/503/503
f 503/503/503 499/499/499 500/500/500
f 503/503/503 500/500/500 504/504/504
f 505/505/505 507/507/507 506/506/506
f 505/505/505 508/508/508 507/507/507
f 509/509/509 508/508/508 505/505/505
f 508/508/508 510/510/510 507/507/507
f 509/509/509 511/511/511 508/508/508
f 512/512/512 511/511/511 509/509/509
f 508/508/508 513/513/513 510/510/510
f 511/511/511 513/513/513 508/508/508
f 513/513/513 514/514/514 510/510/510
f 513/513/513 515/515/515 514/514/514
f 511/511/511 515/515/515 513/513/513
f 516/516/516 515/515/515 511/511/511
f 515/515/515 517/517/517 514/514/514
f 518/518/518 511/511/511 512/512/512
f 518/518/518 516/516/516 511/511/511
f 518/518/518 512/512/512 519/519/519
f 518/518/518 519/519/519 520/520/520
f 520/520/520 521/521/521 518/518/518
f 516/516/516 518/518/518 521/521/521
f 520/520/520 522/522/522 521/521/521
f 523/523/523 521/521/521 522/522/522
f 516/516/516 521/521/521 523/523/523
f 523/523/523 522/522/522 524/524/524
f 525/525/525 523/523/523 524/524/524
f 525/525/525 516/516/516 523/523/523
f 525/525/525 524/524/524 526/526/526
f 527/527/527 525/525/525 526/526/526
f 527/527/527 516/516/516 525/525/525
f 527/527/527 526/526/526 528/528/528
f 527/527/527 529/529/529 516/516/516
f 530/530/530 529/529/529 527/527/527
f 516/516/516 529/529/529 515/515/515
f 530/530/530 531/531/531 529/529/529
f 515/515/515 529/529/529 531/531/531
f 517/517/517 531/531/531 530/530/530
f 515/515/515 531/531/531 517/517/517
