mtllib P_RockCubic01.mtl
v -0.2854785 -0.1866332 0.2307882
v -0.2789446 0.22361 0.2455632
v -0.2878963 0.1780174 0.2487214
v 0.3178893 0.1811602 0.1618503
v 0.05716516 0.1946958 -0.2459858
v 0.2805358 0.1760835 -0.203502
v -0.2104468 0.2152931 -0.2592381
v -0.2837836 0.2219995 -0.1875286
v 0.3139824 0.1837911 0.2151159
v -0.2789446 0.22361 0.2455632
v -0.06381346 0.2107168 0.2458902
v 0.1030285 0.1992701 0.2465808
v 0.3156944 0.07224856 0.2460449
v 0.3139824 0.1837911 0.2151159
v 0.3178893 0.1811602 0.1618503
v 0.3153301 -0.2002782 -0.06676082
v 0.3159942 -0.199801 0.2472947
v 0.3171412 -0.1823316 -0.2167621
v 0.3007252 0.09747815 -0.2206972
v 0.2805358 0.1760835 -0.203502
v -0.286823 -0.1986293 -0.2768601
v -0.2778825 -0.1968979 0.242696
v -0.07201777 -0.1968552 -0.2560205
v 0.3159942 -0.199801 0.2472947
v 0.3153301 -0.2002782 -0.06676082
v 0.1126475 -0.1967656 -0.2400075
v 0.3171412 -0.1823316 -0.2167621
v -0.2837836 0.2219995 -0.1875286
v -0.2789446 0.22361 0.2455632
v -0.2854785 -0.1866332 0.2307882
v -0.2857559 0.1108598 -0.2856771
v -0.286823 -0.1986293 -0.2768601
v -0.2778825 -0.1968979 0.242696
v -0.2878963 0.1780174 0.2487214
v 0.2805358 0.1760835 -0.203502
v 0.05716516 0.1946958 -0.2459858
v 0.3007252 0.09747815 -0.2206972
v 0.1085911 -0.09902473 -0.251283
v 0.3171412 -0.1823316 -0.2167621
v 0.1126475 -0.1967656 -0.2400075
v -0.07201777 -0.1968552 -0.2560205
v -0.286823 -0.1986293 -0.2768601
v -0.2857559 0.1108598 -0.2856771
v -0.2104468 0.2152931 -0.2592381
v -0.2837836 0.2219995 -0.1875286
v 0.3159942 -0.199801 0.2472947
v -0.2778825 -0.1968979 0.242696
v -0.2878963 0.1780174 0.2487214
v -0.2789446 0.22361 0.2455632
v -0.06381346 0.2107168 0.2458902
v 0.1030285 0.1992701 0.2465808
v 0.2401449 0.1612862 0.2475379
v 0.3139824 0.1837911 0.2151159
v 0.3156944 0.07224856 0.2460449
vn -0.9478606 -0.2459089 0.2027046
vn -0.5464954 0.6200343 0.562939
vn -0.9488501 0.1427588 0.2816084
vn 0.7474372 0.6641402 -0.01598733
vn 0.1322613 0.7079476 -0.6937703
vn 0.5449252 0.685872 -0.4823238
vn -0.09513889 0.761242 -0.6414509
vn -0.6688684 0.7255827 -0.1616941
vn 0.6413158 0.6500968 0.4075392
vn -0.5464954 0.6200343 0.562939
vn 0.04382088 0.752832 0.6567525
vn 0.05264181 0.7158688 0.6962476
vn 0.7089635 0.04358053 0.7038975
vn 0.6413158 0.6500968 0.4075392
vn 0.7474372 0.6641402 -0.01598733
vn 0.6950706 -0.7186938 -0.01887179
vn 0.5760145 -0.5786822 0.577351
vn 0.6473022 -0.5179685 -0.5592035
vn 0.7214238 0.1528496 -0.6754145
vn 0.5449252 0.685872 -0.4823238
vn -0.5582014 -0.5844611 -0.5889113
vn -0.4438796 -0.6370533 0.6301857
vn 0.06354614 -0.7506126 -0.6576797
vn 0.5760145 -0.5786822 0.577351
vn 0.6950706 -0.7186938 -0.01887179
vn 0.07940147 -0.7342349 -0.6742362
vn 0.6473022 -0.5179685 -0.5592035
vn -0.6688684 0.7255827 -0.1616941
vn -0.5464954 0.6200343 0.562939
vn -0.9478606 -0.2459089 0.2027046
vn -0.6561603 0.1437094 -0.7408112
vn -0.5582014 -0.5844611 -0.5889113
vn -0.4438796 -0.6370533 0.6301857
vn -0.9488501 0.1427588 0.2816084
vn 0.5449252 0.685872 -0.4823238
vn 0.1322613 0.7079476 -0.6937703
vn 0.7214238 0.1528496 -0.6754145
vn 0.1130427 -0.03791397 -0.9928665
vn 0.6473022 -0.5179685 -0.5592035
vn 0.07940147 -0.7342349 -0.6742362
vn 0.06354614 -0.7506126 -0.6576797
vn -0.5582014 -0.5844611 -0.5889113
vn -0.6561603 0.1437094 -0.7408112
vn -0.09513889 0.761242 -0.6414509
vn -0.6688684 0.7255827 -0.1616941
vn 0.5760145 -0.5786822 0.577351
vn -0.4438796 -0.6370533 0.6301857
vn -0.9488501 0.1427588 0.2816084
vn -0.5464954 0.6200343 0.562939
vn 0.04382088 0.752832 0.6567525
vn 0.05264181 0.7158688 0.6962476
vn 0.1317732 0.3025838 0.9439698
vn 0.6413158 0.6500968 0.4075392
vn 0.7089635 0.04358053 0.7038975
vt 0.6181786 0.4844687
vt 0.6181786 0.4763275
vt 0.6180151 0.4772328
vt 0.07335892 0.8350167
vt 0.06528617 0.8298342
vt 0.06611406 0.8342687
vt 0.0650396 0.8245226
vt 0.06646617 0.8230685
vt 0.07441639 0.8349398
vt 0.07505243 0.8231739
vt 0.07504801 0.8274429
vt 0.07505243 0.8307539
vt 0.6083785 0.4763274
vt 0.6061646 0.4769313
vt 0.606216 0.4779853
vt 0.613757 0.4825535
vt 0.6137699 0.4763274
vt 0.6133922 0.4855244
vt 0.6078345 0.485586
vt 0.6062625 0.4852494
vt 0.1378821 0.8339536
vt 0.1481831 0.8336998
vt 0.1382634 0.8296906
vt 0.1481831 0.8219243
vt 0.141956 0.8219835
vt 0.1385529 0.8260266
vt 0.1389878 0.8219638
vt 0.8585949 0.4844389
vt 0.8585974 0.4758513
vt 0.8504617 0.4761735
vt 0.8563974 0.4863931
vt 0.8502595 0.4862411
vt 0.8502595 0.4759397
vt 0.8576903 0.4757903
vt 0.1453834 0.8494177
vt 0.1457185 0.8449901
vt 0.1438191 0.8498251
vt 0.1398963 0.8460312
vt 0.1382741 0.8501701
vt 0.1379634 0.8461176
vt 0.1379416 0.8424568
vt 0.1378822 0.8381987
vt 0.1440149 0.8381987
vt 0.146102 0.8396826
vt 0.1462595 0.8382219
vt 0.8460144 0.4721773
vt 0.8460144 0.460406
vt 0.838584 0.4601632
vt 0.8376779 0.4603373
vt 0.8379121 0.4646034
vt 0.8381227 0.4679119
vt 0.8388625 0.4706339
vt 0.8383966 0.4721119
vt 0.8406199 0.4721422
usemtl MV_RockCubic_Rocks
f 1/1/1 3/3/3 2/2/2
f 4/4/4 6/6/6 5/5/5
f 4/4/4 5/5/5 7/7/7
f 4/4/4 7/7/7 8/8/8
f 4/4/4 8/8/8 9/9/9
f 10/10/10 9/9/9 8/8/8
f 11/11/11 9/9/9 10/10/10
f 11/11/11 12/12/12 9/9/9
f 13/13/13 15/15/15 14/14/14
f 13/13/13 16/16/16 15/15/15
f 17/17/17 16/16/16 13/13/13
f 15/15/15 16/16/16 18/18/18
f 15/15/15 18/18/18 19/19/19
f 20/20/20 15/15/15 19/19/19
f 21/21/21 23/23/23 22/22/22
f 22/22/22 23/23/23 24/24/24
f 24/24/24 23/23/23 25/25/25
f 25/25/25 23/23/23 26/26/26
f 25/25/25 26/26/26 27/27/27
f 28/28/28 30/30/30 29/29/29
f 28/28/28 31/31/31 30/30/30
f 30/30/30 31/31/31 32/32/32
f 30/30/30 32/32/32 33/33/33
f 33/33/33 34/34/34 30/30/30
f 35/35/35 37/37/37 36/36/36
f 37/37/37 38/38/38 36/36/36
f 38/38/38 37/37/37 39/39/39
f 38/38/38 39/39/39 40/40/40
f 38/38/38 40/40/40 41/41/41
f 38/38/38 41/41/41 42/42/42
f 43/43/43 38/38/38 42/42/42
f 38/38/38 43/43/43 36/36/36
f 43/43/43 44/44/44 36/36/36
f 43/43/43 45/45/45 44/44/44
f 46/46/46 48/48/48 47/47/47
f 49/49/49 48/48/48 46/46/46
f 49/49/49 46/46/46 50/50/50
f 50/50/50 46/46/46 51/51/51
f 51/51/51 46/46/46 52/52/52
f 52/52/52 53/53/53 51/51/51
f 54/54/54 52/52/52 46/46/46
f 53/53/53 52/52/52 54/54/54
