mtllib P_RockHexic_Rocks03.mtl
v -3.995125 6.672258 2.057709 0 0.5254902 0
v -3.995125 -4.416453 2.057709 0 0.2588235 0
v -5.036568 -4.416453 0.2538735 0 0.1254902 0
v -5.036568 6.672258 0.2538735 0 0.5686275 0
v -3.995125 -4.416453 -1.549961 0 0.6588235 0
v -3.995125 6.672258 -1.549961 0 0.8392157 0
v -1.912235 -4.416453 -1.549961 0 0 0
v -1.912235 6.672258 -1.549961 0 0.3215686 0
v -3.925842 6.792259 -1.429961 0 0.854902 0
v -4.898006 6.792259 0.2538735 0 0.6666667 0
v -1.912235 6.672258 -1.549961 0 0.3215686 0
v -1.912235 -4.416453 -1.549961 0 0 0
v -0.8707905 -4.416453 0.2538735 0 0 0
v -0.8707905 6.672258 0.2538735 0 0.9960784 0
v -1.912235 -4.416453 2.057709 0 0.1647059 0
v -1.912235 6.672258 2.057709 0 0.9882353 0
v -1.009356 6.792259 0.2538735 0 0.9921569 0
v -1.981518 6.792259 1.937708 0 0.9647059 0
v -3.995125 -4.416453 2.057709 0 0.2588235 0
v -3.995125 6.672258 2.057709 0 0.5254902 0
v -1.069918 6.92181 0.2268787 0 0.9764706 0
v -1.069918 -8.649845 0.2268787 0 0.2784314 0
v -2.143589 -8.649845 -1.520168 0 0.5254902 0
v -2.143589 6.92181 -1.520168 0 0.4823529 0
v -1.167437 -8.649845 -3.323518 0 0 0
v -1.167437 6.92181 -3.323518 0 0 0
v 0.8823853 -8.649845 -3.379821 0 0 0
v 0.8823853 6.92181 -3.379821 0 0.1529412 0
v -1.094887 7.041811 -3.205466 0 0 0
v -2.005077 7.041811 -1.523973 0 0.3803922 0
v 0.8823853 6.92181 -3.379821 0 0.1529412 0
v 0.8823853 -8.649845 -3.379821 0 0 0
v 1.956055 -8.649845 -1.632773 0 0 0
v 1.956055 6.92181 -1.632773 0 0.8235294 0
v 0.9799042 -8.649845 0.170576 0 0.4156863 0
v 0.9799042 6.92181 0.170576 0 0.9960784 0
v 1.817543 7.041811 -1.628969 0 0.8235294 0
v 0.9073524 7.041811 0.05252346 0 0.9960784 0
v -1.069918 -8.649845 0.2268787 0 0.2784314 0
v -1.069918 6.92181 0.2268787 0 0.9764706 0
v -0.718771 5.661241 3.443313 0 0.6588235 0
v -0.718771 0.7894312 3.443313 0 0.09019608 0
v -1.698647 0.7894312 1.937651 0 0 0
v -1.698647 5.661241 1.937651 0 0.9411765 0
v -0.8846436 5.661241 0.3362215 0 0.6588235 0
v -0.809063 5.781241 0.4523575 0 0.6666667 0
v -1.56028 5.781241 1.930264 0 0.9686275 0
v -0.8846436 0.648831 0.3362215 0 0 0
v -1.560612 0.6585031 1.930648 0 0 0
v 0.9092369 5.661241 0.240455 0 0.8235294 0
v 0.9092369 0.6488214 0.240455 0 0 0
v 0.9092369 5.661241 0.240455 0 0.8235294 0
v 0.9092369 0.6488214 0.240455 0 0 0
v 1.889112 0.6488214 1.746117 0 0.6588235 0
v 1.889112 5.661241 1.746117 0 0.7647059 0
v 1.075109 0.648831 3.347546 0 0.227451 0
v 1.075109 5.661241 3.347546 0 0.6588235 0
v -0.718771 0.7894312 3.443313 0 0.09019608 0
v -0.718771 5.661241 3.443313 0 0.6588235 0
v 0.9995289 5.781241 3.23141 0 0.6588235 0
v 1.750746 5.781241 1.753504 0 0.7960784 0
v -1.912235 6.672258 -1.549961 0 0.3215686 0
v -0.8707905 6.672258 0.2538735 0 0.9960784 0
v -1.009356 6.792259 0.2538735 0 0.9921569 0
v -1.981518 6.792259 -1.429961 0 0.4588235 0
v -3.995125 6.672258 -1.549961 0 0.8392157 0
v -3.925842 6.792259 -1.429961 0 0.854902 0
v -3.925842 6.792259 1.937708 0 0.9333333 0
v -4.898006 6.792259 0.2538735 0 0.6666667 0
v -1.981518 6.792259 1.937708 0 0.9647059 0
v -5.036568 6.672258 0.2538735 0 0.5686275 0
v -1.912235 6.672258 2.057709 0 0.9882353 0
v -3.995125 6.672258 2.057709 0 0.5254902 0
v 0.8823853 6.92181 -3.379821 0 0.1529412 0
v 1.956055 6.92181 -1.632773 0 0.8235294 0
v 1.817543 7.041811 -1.628969 0 0.8235294 0
v 0.8164234 7.041811 -3.257963 0 0.2156863 0
v -1.167437 6.92181 -3.323518 0 0 0
v -1.094887 7.041811 -3.205466 0 0 0
v -2.005077 7.041811 -1.523973 0 0.3803922 0
v -1.003958 7.041811 0.1050217 0 0.945098 0
v -2.143589 6.92181 -1.520168 0 0.4823529 0
v 0.9073524 7.041811 0.05252346 0 0.9960784 0
v -1.069918 6.92181 0.2268787 0 0.9764706 0
v 0.9799042 6.92181 0.170576 0 0.9960784 0
v 0.8644066 0.3903652 0.1621041 0 0 0
v 1.811583 0.3903652 1.688549 0 0.6588235 0
v 1.673088 0.5104795 1.69295 0 0.5882353 0
v 0.7989693 0.5104795 0.284244 0 0 0
v -0.9311218 0.3903556 0.2191595 0 0 0
v -0.8579388 0.5212799 0.3364073 0 0 0
v -0.5497513 0.6052709 3.257207 0 0.2352941 0
v 0.9171467 0.5141016 3.138614 0 0.3411765 0
v 0.8276997 0.4127756 3.285604 0 0.4392157 0
v -1.641319 0.6402746 1.798636 0 0 0
v -1.779474 0.5309473 1.80266 0 0 0
v -0.8945217 0.6210991 3.115255 0 0.09019608 0
v -0.8005486 0.4409919 3.269462 0 0.2078431 0
v -1.779474 0.5309473 1.80266 0 0 0
v -0.9311218 0.3903556 0.2191595 0 0 0
v -0.8579388 0.5212799 0.3364073 0 0 0
v -1.820986 -6.394939 1.836751 0 0.1803922 0
v -0.9726334 -6.394939 0.2532505 0 0.3490196 0
v 0.8228951 -6.394939 0.1961951 0 0.4 0
v 0.8644066 0.3903652 0.1621041 0 0 0
v -0.8005486 0.4409919 3.269462 0 0.2078431 0
v -0.8738098 -6.394939 3.363197 0 0.1686275 0
v -0.8945217 0.6210991 3.115255 0 0.09019608 0
v 3.766359 7.16853 -1.667743 0 0.6588235 0
v 4.79055 7.146061 -0.01383423 0 0.6588235 0
v 4.65332 7.268787 -0.009194661 0 0.6588235 0
v 3.702141 7.289655 -1.545348 0 0.6588235 0
v 1.822079 7.206863 -1.607374 0 0.8235294 0
v 1.896439 7.325258 -1.489483 0 0.8235294 0
v 0.9021206 7.222728 0.1066494 0 0.9960784 0
v 1.041918 7.339992 0.1025354 0 0.9960784 0
v 1.993097 7.319124 1.638689 0 0.8901961 0
v 3.7988 7.283523 1.582824 0 0.6588235 0
v 1.926311 7.200259 1.760559 0 0.8862745 0
v 1.68869 -4.373889 1.73943 0 0 0
v 1.705555 -6.777931 1.735367 0 0.372549 0
v 0.6752853 -6.736523 0.0856506 0 0.4235294 0
v 0.6582413 -4.330487 0.08988445 0 0 0
v 1.926311 7.200259 1.760559 0 0.8862745 0
v 1.586327 -6.617641 -1.616275 0 0 0
v 0.9021206 7.222728 0.1066494 0 0.9960784 0
v 1.570229 -4.252461 -1.616405 0 0 0
v 3.545475 -6.54132 -1.702077 0 0 0
v 1.822079 7.206863 -1.607374 0 0.8235294 0
v 3.525579 -4.218682 -1.697597 0 0 0
v 3.766359 7.16853 -1.667743 0 0.6588235 0
v 3.65579 -6.701039 1.666363 0 0 0
v 1.705555 -6.777931 1.735367 0 0.372549 0
v 1.68869 -4.373889 1.73943 0 0 0
v 3.637585 -4.339688 1.670462 0 0 0
v 4.575752 -6.582775 -0.05236467 0 0 0
v 3.868021 7.03831 1.699997 0 0.6588235 0
v 1.926311 7.200259 1.760559 0 0.8862745 0
v 3.7988 7.283523 1.582824 0 0.6588235 0
v 4.556026 -4.262084 -0.04805141 0 0 0
v 3.545475 -6.54132 -1.702077 0 0 0
v 3.525579 -4.218682 -1.697597 0 0 0
v 4.79055 7.146061 -0.01383423 0 0.6588235 0
v 4.65332 7.268787 -0.009194661 0 0.6588235 0
v 3.766359 7.16853 -1.667743 0 0.6588235 0
v 0.8276997 0.4127756 3.285604 0 0.4392157 0
v -0.8005486 0.4409919 3.269462 0 0.2078431 0
v -0.5497513 0.6052709 3.257207 0 0.2352941 0
v -0.8738098 -6.394939 3.363197 0 0.1686275 0
v 0.9217186 -6.394939 3.306141 0 0 0
v 1.811583 0.3903652 1.688549 0 0.6588235 0
v 1.770071 -6.394939 1.72264 0 0.3568628 0
v 0.9171467 0.5141016 3.138614 0 0.3411765 0
v 1.673088 0.5104795 1.69295 0 0.5882353 0
v 0.8228951 -6.394939 0.1961951 0 0.4 0
v 0.8644066 0.3903652 0.1621041 0 0 0
v 0.9092369 5.661241 0.240455 0 0.8235294 0
v -0.809063 5.781241 0.4523575 0 0.6666667 0
v -0.8846436 5.661241 0.3362215 0 0.6588235 0
v 0.8464508 5.781241 0.3639778 0 0.8313726 0
v 1.889112 5.661241 1.746117 0 0.7647059 0
v 1.750746 5.781241 1.753504 0 0.7960784 0
v -0.6559849 5.781241 3.31979 0 0.6588235 0
v -1.56028 5.781241 1.930264 0 0.9686275 0
v -1.698647 5.661241 1.937651 0 0.9411765 0
v 0.9995289 5.781241 3.23141 0 0.6588235 0
v -0.718771 5.661241 3.443313 0 0.6588235 0
v 1.075109 5.661241 3.347546 0 0.6588235 0
v -1.698647 0.7894312 1.937651 0 0 0
v -0.718771 0.7894312 3.443313 0 0.09019608 0
v -0.6564693 0.6585031 3.319938 0 0.1764706 0
v 1.075109 0.648831 3.347546 0 0.227451 0
v -1.560612 0.6585031 1.930648 0 0 0
v 1.000027 0.5395074 3.231506 0 0.3019608 0
v 1.889112 0.6488214 1.746117 0 0.6588235 0
v -0.8089485 0.5395074 0.4518637 0 0 0
v -0.8846436 0.648831 0.3362215 0 0 0
v 0.9092369 0.6488214 0.240455 0 0 0
v 0.8464508 0.5287071 0.3639778 0 0 0
v 1.750746 0.5287071 1.753504 0 0 0
v 0.9217186 -6.394939 3.306141 0 0 0
v 1.770071 -6.394939 1.72264 0 0.3568628 0
v 1.631577 -6.514939 1.727041 0 0.4078431 0
v 0.8228951 -6.394939 0.1961951 0 0.4 0
v 0.8486595 -6.514939 3.188402 0 0.08627451 0
v -0.8738098 -6.394939 3.363197 0 0.1686275 0
v 0.7574577 -6.514939 0.3183349 0 0.4156863 0
v -0.9726334 -6.394939 0.2532505 0 0.3490196 0
v -0.8083744 -6.514939 3.241057 0 0.254902 0
v -1.820986 -6.394939 1.836751 0 0.1803922 0
v -1.682491 -6.514939 1.832351 0 0.2627451 0
v -0.8995743 -6.514939 0.3709895 0 0.3568628 0
v 0.9799042 -8.649845 0.170576 0 0.4156863 0
v 1.956055 -8.649845 -1.632773 0 0 0
v 1.817543 -8.769846 -1.628969 0 0 0
v 0.8823853 -8.649845 -3.379821 0 0 0
v 0.9073524 -8.769846 0.05252346 0 0.3882353 0
v -1.069918 -8.649845 0.2268787 0 0.2784314 0
v 0.8164234 -8.769846 -3.257963 0 0 0
v -1.167437 -8.649845 -3.323518 0 0 0
v -1.003958 -8.769846 0.1050217 0 0.2784314 0
v -2.143589 -8.649845 -1.520168 0 0.5254902 0
v -1.094887 -8.769846 -3.205466 0 0 0
v -2.005077 -8.769846 -1.523973 0 0.5882353 0
v -1.912235 -4.416453 2.057709 0 0.1647059 0
v -0.8707905 -4.416453 0.2538735 0 0 0
v -1.009356 -4.536453 0.2538735 0 0 0
v -1.912235 -4.416453 -1.549961 0 0 0
v -1.981518 -4.536453 1.937708 0 0.2039216 0
v -3.995125 -4.416453 2.057709 0 0.2588235 0
v -1.981518 -4.536453 -1.429961 0 0 0
v -3.925842 -4.536453 1.937708 0 0.3490196 0
v -5.036568 -4.416453 0.2538735 0 0.1254902 0
v -3.925842 -4.536453 -1.429961 0 0.6588235 0
v -3.995125 -4.416453 -1.549961 0 0.6588235 0
v -4.898006 -4.536453 0.2538735 0 0.2431373 0
v 4.575752 -6.582775 -0.05236467 0 0 0
v 3.545475 -6.54132 -1.702077 0 0 0
v 3.477158 -6.664961 -1.579001 0 0 0
v 1.586327 -6.617641 -1.616275 0 0 0
v 4.433319 -6.70292 -0.04786633 0 0 0
v 3.65579 -6.701039 1.666363 0 0 0
v 3.57819 -6.81332 1.549601 0 0 0
v 1.705555 -6.777931 1.735367 0 0.372549 0
v 1.656094 -6.737101 -1.499271 0 0 0
v 0.6752853 -6.736523 0.0856506 0 0.4235294 0
v 1.766806 -6.885886 1.613551 0 0.3372549 0
v 0.8099461 -6.847895 0.08130249 0 0.4078431 0
vn -0.4640333 0.3724198 0.8037267
vn -0.4640326 -0.3724214 0.8037264
vn -0.9280652 -0.3724177 0
vn -0.9280657 0.3724167 0
vn -0.4640326 -0.3724213 -0.8037264
vn -0.4640327 0.3724198 -0.8037271
vn 0.4640315 -0.3724216 -0.8037269
vn 0.4640319 0.3724203 -0.8037273
vn -0.2211359 0.8968806 -0.3830194
vn -0.442277 0.8968785 0
vn 0.4640319 0.3724203 -0.8037273
vn 0.4640315 -0.3724216 -0.8037269
vn 0.9280636 -0.3724217 0
vn 0.9280641 0.3724205 0
vn 0.4640318 -0.3724217 0.8037267
vn 0.4640318 0.3724202 0.8037273
vn 0.4422715 0.8968812 0
vn 0.2211351 0.896881 0.3830193
vn -0.4640326 -0.3724214 0.8037264
vn -0.4640333 0.3724198 0.8037267
vn -0.44179 0.3724183 0.8161656
vn -0.4417899 -0.3724183 0.8161656
vn -0.927715 -0.3724185 0.02548159
vn -0.9277148 0.3724192 0.02548126
vn -0.4859245 -0.3724191 -0.7906841
vn -0.4859243 0.3724193 -0.7906842
vn 0.4417905 -0.3724197 -0.8161646
vn 0.4417897 0.3724202 -0.8161649
vn -0.2315702 0.8968801 -0.376804
vn -0.4421064 0.8968804 0.01214331
vn 0.4417897 0.3724202 -0.8161649
vn 0.4417905 -0.3724197 -0.8161646
vn 0.9277145 -0.3724197 -0.02548141
vn 0.9277148 0.3724189 -0.02548152
vn 0.4859252 -0.3724203 0.7906832
vn 0.4859254 0.3724202 0.790683
vn 0.4421073 0.89688 -0.01214364
vn 0.2315683 0.8968809 0.3768033
vn -0.4417899 -0.3724183 0.8161656
vn -0.44179 0.3724183 0.8161656
vn -0.4205259 0.3724198 0.8273218
vn -0.4332446 -0.3479576 0.8313991
vn -0.9356238 -0.3479565 0.05945214
vn -0.9267452 0.3724185 0.04947442
vn -0.5062178 0.3724202 -0.7778476
vn -0.2412394 0.8968808 -0.3706864
vn -0.4416463 0.8968794 0.02357716
vn -0.5095082 -0.3961376 -0.7638563
vn -0.4882704 -0.8707091 0.05880198
vn 0.4205258 0.3724196 -0.8273219
vn 0.4197863 -0.3728398 -0.8275083
vn 0.4205258 0.3724196 -0.8273219
vn 0.4197863 -0.3728398 -0.8275083
vn 0.9266158 -0.3728396 -0.0487223
vn 0.9267448 0.3724198 -0.04947454
vn 0.4920941 -0.3961372 0.7751895
vn 0.5062191 0.3724189 0.7778473
vn -0.4332446 -0.3479576 0.8313991
vn -0.4205259 0.3724198 0.8273218
vn 0.2412415 0.8968802 0.3706865
vn 0.4416438 0.8968807 -0.02357665
vn 0.4640319 0.3724203 -0.8037273
vn 0.9280641 0.3724205 0
vn 0.4422715 0.8968812 0
vn 0.2211352 0.8968809 -0.3830194
vn -0.4640327 0.3724198 -0.8037271
vn -0.2211359 0.8968806 -0.3830194
vn -0.2211369 0.8968808 0.3830188
vn -0.442277 0.8968785 0
vn 0.2211351 0.896881 0.3830193
vn -0.9280657 0.3724167 0
vn 0.4640318 0.3724202 0.8037273
vn -0.4640333 0.3724198 0.8037267
vn 0.4417897 0.3724202 -0.8161649
vn 0.9277148 0.3724189 -0.02548152
vn 0.4421073 0.89688 -0.01214364
vn 0.2105354 0.896881 -0.3889464
vn -0.4859243 0.3724193 -0.7906842
vn -0.2315702 0.8968801 -0.376804
vn -0.4421064 0.8968804 0.01214331
vn -0.2105393 0.8968798 0.3889472
vn -0.9277148 0.3724192 0.02548126
vn 0.2315683 0.8968809 0.3768033
vn -0.44179 0.3724183 0.8161656
vn 0.4859254 0.3724202 0.790683
vn 0.4394431 0.368916 -0.8190182
vn 0.9312658 0.3639848 -0.01609528
vn 0.453177 0.891192 -0.02018541
vn 0.2143801 0.8917757 -0.3984689
vn -0.4841945 0.3481074 -0.8027309
vn -0.2203519 0.8806863 -0.419329
vn -0.02415671 0.741587 0.6704217
vn 0.553402 0.6896377 0.467061
vn 0.4167345 0.3356421 0.8447939
vn -0.3855765 0.9223379 -0.02496876
vn -0.9194203 0.3924463 0.0255383
vn -0.4945524 0.7310971 0.4700159
vn -0.4582691 0.1673033 0.8729256
vn -0.9194203 0.3924463 0.0255383
vn -0.4841945 0.3481074 -0.8027309
vn -0.2203519 0.8806863 -0.419329
vn -0.9293773 -0.3677368 0.03205658
vn -0.4905104 -0.3728877 -0.7876257
vn 0.4371227 -0.3757504 -0.8171508
vn 0.4394431 0.368916 -0.8190182
vn -0.4582691 0.1673033 0.8729256
vn -0.4414757 -0.3667726 0.8188877
vn -0.4945524 0.7310971 0.4700159
vn 0.4466432 0.36583 -0.8165037
vn 0.9343721 0.3552507 -0.0273045
vn 0.4575501 0.8890999 -0.01221859
vn 0.2253835 0.8937176 -0.3879062
vn -0.4808866 0.3830539 -0.788681
vn -0.2164717 0.9013061 -0.3752165
vn -0.9203655 0.3899564 0.02934808
vn -0.4262756 0.9044704 0.01491674
vn -0.1929705 0.8998009 0.3913065
vn 0.3314377 0.7920247 0.5126851
vn -0.4302969 0.379413 0.8190789
vn -0.4727859 0.001366902 0.8811763
vn -0.4262833 -0.3970733 0.8127825
vn -0.9214607 -0.3880107 0.01891735
vn -0.9994123 0.006557569 0.0336459
vn -0.4302969 0.379413 0.8190789
vn -0.481356 -0.3700026 -0.7946033
vn -0.9203655 0.3899564 0.02934808
vn -0.5352519 0.004749439 -0.8446792
vn 0.4386952 -0.361211 -0.8228446
vn -0.4808866 0.3830539 -0.788681
vn 0.4631319 -0.001264815 -0.8862885
vn 0.4466432 0.36583 -0.8165037
vn 0.5018111 -0.3879808 0.7730826
vn -0.4262833 -0.3970733 0.8127825
vn -0.4727859 0.001366902 0.8811763
vn 0.5261019 -0.004859236 0.8504075
vn 0.9283426 -0.3693508 -0.04195257
vn 0.5174914 0.2172478 0.827651
vn -0.4302969 0.379413 0.8190789
vn 0.3314377 0.7920247 0.5126851
vn 0.9993974 -0.005923432 -0.03420186
vn 0.4386952 -0.361211 -0.8228446
vn 0.4631319 -0.001264815 -0.8862885
vn 0.9343721 0.3552507 -0.0273045
vn 0.4575501 0.8890999 -0.01221859
vn 0.4466432 0.36583 -0.8165037
vn 0.4167345 0.3356421 0.8447939
vn -0.4582691 0.1673033 0.8729256
vn -0.02415671 0.741587 0.6704217
vn -0.4414757 -0.3667726 0.8188877
vn 0.4885225 -0.3714888 0.7895201
vn 0.9312658 0.3639848 -0.01609528
vn 0.9264759 -0.3752728 -0.02850702
vn 0.553402 0.6896377 0.467061
vn 0.453177 0.891192 -0.02018541
vn 0.4371227 -0.3757504 -0.8171508
vn 0.4394431 0.368916 -0.8190182
vn 0.4205258 0.3724196 -0.8273219
vn -0.2412394 0.8968808 -0.3706864
vn -0.5062178 0.3724202 -0.7778476
vn 0.2004033 0.8968804 -0.3942637
vn 0.9267448 0.3724198 -0.04947454
vn 0.4416438 0.8968807 -0.02357665
vn -0.2004035 0.8968806 0.3942635
vn -0.4416463 0.8968794 0.02357716
vn -0.9267452 0.3724185 0.04947442
vn 0.2412415 0.8968802 0.3706865
vn -0.4205259 0.3724198 0.8273218
vn 0.5062191 0.3724189 0.7778473
vn -0.9356238 -0.3479565 0.05945214
vn -0.4332446 -0.3479576 0.8313991
vn -0.2514913 -0.8707101 0.42263
vn 0.4920941 -0.3961372 0.7751895
vn -0.4882704 -0.8707091 0.05880198
vn 0.1998742 -0.9090164 0.3657041
vn 0.9266158 -0.3728396 -0.0487223
vn -0.2534362 -0.9090166 -0.3308457
vn -0.5095082 -0.3961376 -0.7638563
vn 0.4197863 -0.3728398 -0.8275083
vn 0.1969974 -0.897921 -0.3936113
vn 0.4396686 -0.8979209 -0.02072616
vn 0.4885225 -0.3714888 0.7895201
vn 0.9264759 -0.3752728 -0.02850702
vn 0.4420474 -0.8968817 -0.01404664
vn 0.4371227 -0.3757504 -0.8171508
vn 0.2331865 -0.8968822 0.3758011
vn -0.4414757 -0.3667726 0.8188877
vn 0.2088568 -0.8968822 -0.3898475
vn -0.4905104 -0.3728877 -0.7876257
vn -0.2088595 -0.8968813 0.3898483
vn -0.9293773 -0.3677368 0.03205658
vn -0.4420491 -0.8968809 0.01404647
vn -0.2331866 -0.8968821 -0.3758012
vn 0.4859252 -0.3724203 0.7906832
vn 0.9277145 -0.3724197 -0.02548141
vn 0.4421059 -0.8968806 -0.0121435
vn 0.4417905 -0.3724197 -0.8161646
vn 0.2315679 -0.896881 0.3768033
vn -0.4417899 -0.3724183 0.8161656
vn 0.2105368 -0.8968808 -0.3889462
vn -0.4859245 -0.3724191 -0.7906841
vn -0.2105391 -0.8968798 0.3889472
vn -0.927715 -0.3724185 0.02548159
vn -0.2315704 -0.8968801 -0.3768038
vn -0.4421076 -0.8968798 0.01214362
vn 0.4640318 -0.3724217 0.8037267
vn 0.9280636 -0.3724217 0
vn 0.4422699 -0.8968821 0
vn 0.4640315 -0.3724216 -0.8037269
vn 0.2211345 -0.8968821 0.3830172
vn -0.4640326 -0.3724214 0.8037264
vn 0.2211339 -0.8968819 -0.3830179
vn -0.2211353 -0.8968818 0.3830173
vn -0.9280652 -0.3724177 0
vn -0.2211353 -0.8968818 -0.3830174
vn -0.4640326 -0.3724213 -0.8037264
vn -0.4422759 -0.8968791 0
vn 0.9283426 -0.3693508 -0.04195257
vn 0.4386952 -0.361211 -0.8228446
vn 0.2217735 -0.8835472 -0.4125055
vn -0.481356 -0.3700026 -0.7946033
vn 0.4478638 -0.8926299 -0.05128329
vn 0.5018111 -0.3879808 0.7730826
vn 0.2523158 -0.9098067 0.3295279
vn -0.4262833 -0.3970733 0.8127825
vn -0.2066986 -0.8911588 -0.4038709
vn -0.9214607 -0.3880107 0.01891735
vn -0.1820577 -0.9181454 0.3519431
vn -0.4160881 -0.9090477 -0.02242982
vt 0.3492187 0.7062676
vt 0.3492187 0.8000555
vt 0.3584729 0.8000974
vt 0.3584729 0.7063095
vt 0.3760823 0.800096
vt 0.3760823 0.7063081
vt 0.3844376 0.8000526
vt 0.3844376 0.7062647
vt 0.3754666 0.7052903
vt 0.3590287 0.7052917
vt 0.387779 0.7058817
vt 0.387779 0.7996255
vt 0.3968801 0.80009
vt 0.3968801 0.7063462
vt 0.4144939 0.8000795
vt 0.4144939 0.7063357
vt 0.3974464 0.7053001
vt 0.4138885 0.7052903
vt 0.4230066 0.7996046
vt 0.4230066 0.7058609
vt 0.3536555 0.0363585
vt 0.48536 0.03635849
vt 0.485402 0.02765648
vt 0.3536975 0.02765649
vt 0.4854019 0.01031259
vt 0.3536974 0.01031259
vt 0.4853598 0.001670709
vt 0.3536554 0.001670715
vt 0.3526796 0.01090061
vt 0.3526797 0.02707254
vt 0.3532606 0.0743866
vt 0.4849031 0.0743866
vt 0.4853677 0.06583775
vt 0.3537252 0.06583775
vt 0.4853721 0.04849441
vt 0.3537296 0.04849441
vt 0.3526796 0.06524349
vt 0.3526837 0.04907208
vt 0.4849119 0.03969991
vt 0.3532693 0.03969992
vt 0.8118665 0.8783479
vt 0.8530721 0.8783479
vt 0.8531094 0.8710671
vt 0.8119038 0.8710671
vt 0.8119048 0.8558772
vt 0.810887 0.8564388
vt 0.810886 0.8704571
vt 0.8542996 0.8558772
vt 0.854214 0.8704612
vt 0.8118685 0.8479681
vt 0.8542634 0.8479681
vt 0.8115183 0.8446266
vt 0.8538932 0.8446266
vt 0.854306 0.8374819
vt 0.8119311 0.8374819
vt 0.8543218 0.8222964
vt 0.811947 0.8222964
vt 0.8527363 0.8142558
vt 0.8115501 0.8142558
vt 0.8109007 0.8228475
vt 0.810886 0.8368617
vt 0.9519132 0.4767111
vt 0.9607214 0.4614544
vt 0.9595345 0.4614513
vt 0.9513122 0.4756931
vt 0.9342981 0.4767111
vt 0.9348689 0.4756931
vt 0.9348702 0.4472095
vt 0.926648 0.4614513
vt 0.9513135 0.4472095
vt 0.9254912 0.4614544
vt 0.9519145 0.4461976
vt 0.9342995 0.4461976
vt 0.1018158 0.9547262
vt 0.1168361 0.9633977
vt 0.1168387 0.9622107
vt 0.1028334 0.9541251
vt 0.1018158 0.9373842
vt 0.1028334 0.937955
vt 0.1168387 0.9298705
vt 0.130844 0.9379561
vt 0.1168361 0.9287138
vt 0.130844 0.9541262
vt 0.1318563 0.9373854
vt 0.1318563 0.9547274
vt 0.6732614 0.9965085
vt 0.6868541 0.9897189
vt 0.6858652 0.9890623
vt 0.6733209 0.9953281
vt 0.6605866 0.9881322
vt 0.6616215 0.9876012
vt 0.6767922 0.9679292
vt 0.6868364 0.9752987
vt 0.6868541 0.9738523
vt 0.6624578 0.9735864
vt 0.6614912 0.9729542
vt 0.6736785 0.9674205
vt 0.6750562 0.9667428
vt 0.8116361 0.5255787
vt 0.812714 0.5103763
vt 0.8116081 0.5109639
vt 0.870217 0.52557
vt 0.8701059 0.5103763
vt 0.8700132 0.5027493
vt 0.8126214 0.5027493
vt 0.8124114 0.5325686
vt 0.8702356 0.5331369
vt 0.8108861 0.5318084
vt 0.9729258 0.851035
vt 0.9893803 0.851035
vt 0.988797 0.850013
vt 0.9735144 0.8500136
vt 0.9646992 0.8367833
vt 0.9658728 0.8367786
vt 0.9729258 0.8225337
vt 0.9735137 0.8235429
vt 0.9887962 0.8235422
vt 0.9964379 0.8367773
vt 0.9893804 0.8225337
vt 0.5868438 0.1424568
vt 0.6071759 0.1422484
vt 0.6068214 0.1340988
vt 0.5864724 0.1343093
vt 0.488942 0.1421932
vt 0.6057273 0.117777
vt 0.4887473 0.1339871
vt 0.5857237 0.1179494
vt 0.6049957 0.1092831
vt 0.4887921 0.1175333
vt 0.5853522 0.109503
vt 0.4890316 0.1092831
vt 0.6069553 0.08145959
vt 0.6072169 0.07297938
vt 0.5868907 0.07276658
vt 0.5869898 0.08124307
vt 0.6058567 0.09794077
vt 0.4908541 0.08142799
vt 0.4890969 0.07303384
vt 0.4887473 0.08200096
vt 0.5862346 0.09771837
vt 0.605019 0.1059416
vt 0.5853804 0.1057172
vt 0.4898457 0.09788391
vt 0.4887808 0.09728273
vt 0.489169 0.1059416
vt 0.8127376 0.4755711
vt 0.8122383 0.4690264
vt 0.8108861 0.4701191
vt 0.8700327 0.4690264
vt 0.8703015 0.476793
vt 0.812678 0.4914197
vt 0.8700345 0.4919837
vt 0.8118581 0.4770102
vt 0.8116419 0.4908032
vt 0.8694987 0.4994078
vt 0.8121423 0.4988438
vt 0.4544435 0.989531
vt 0.4554607 0.9749092
vt 0.4544435 0.9743385
vt 0.4554607 0.9889299
vt 0.4676021 0.9971278
vt 0.4676043 0.9959406
vt 0.4797479 0.97491
vt 0.4676043 0.9678993
vt 0.4676021 0.9667427
vt 0.4797479 0.9889307
vt 0.4807606 0.9743394
vt 0.4807606 0.9895319
vt 0.4247883 0.9743349
vt 0.4247883 0.989529
vt 0.4257961 0.9889463
vt 0.4379436 0.997131
vt 0.4257961 0.9749265
vt 0.4379441 0.9959657
vt 0.4511021 0.9895341
vt 0.4379441 0.9679155
vt 0.4379435 0.9667428
vt 0.4511021 0.97434
vt 0.4500844 0.97493
vt 0.4500844 0.9889522
vt 0.3786339 0.997131
vt 0.3917924 0.9895341
vt 0.3907748 0.9889523
vt 0.3917924 0.97434
vt 0.3786312 0.9959632
vt 0.3654753 0.9895338
vt 0.3907748 0.9749301
vt 0.3786339 0.9667428
vt 0.3664876 0.988952
vt 0.3654753 0.9743397
vt 0.3664876 0.9749299
vt 0.3786312 0.9679189
vt 0.01669094 0.9634013
vt 0.03171116 0.9547296
vt 0.03069355 0.9541478
vt 0.03171118 0.9373859
vt 0.01668827 0.9622335
vt 0.001670714 0.9547293
vt 0.03069356 0.9379759
vt 0.01669095 0.9287138
vt 0.002683004 0.9541475
vt 0.001670716 0.9373855
vt 0.01668829 0.9298899
vt 0.002683015 0.9379756
vt 0.9342998 0.3446328
vt 0.9254913 0.3598895
vt 0.9266633 0.3598845
vt 0.9342998 0.3751461
vt 0.9348859 0.3456428
vt 0.9519169 0.3446328
vt 0.9348859 0.3741262
vt 0.951331 0.3456428
vt 0.9607254 0.3598894
vt 0.951331 0.3741262
vt 0.9519169 0.3751461
vt 0.9595535 0.3598845
vt 0.9893098 0.2576885
vt 0.9728577 0.2576886
vt 0.9734389 0.2587328
vt 0.9646992 0.2721299
vt 0.9887081 0.2587332
vt 0.9975229 0.2719906
vt 0.9963415 0.2720268
vt 0.9892838 0.2862928
vt 0.9658552 0.2721562
vt 0.9728317 0.2862928
vt 0.988688 0.2853101
vt 0.9734076 0.2853097
usemtl MV_RockHexic_Rocks
f 1/1/1 3/3/3 2/2/2
f 1/1/1 4/4/4 3/3/3
f 4/4/4 5/5/5 3/3/3
f 4/4/4 6/6/6 5/5/5
f 6/6/6 7/7/7 5/5/5
f 6/6/6 8/8/8 7/7/7
f 4/4/4 9/9/9 6/6/6
f 4/4/4 10/10/10 9/9/9
f 11/11/11 13/13/13 12/12/12
f 11/11/11 14/14/14 13/13/13
f 14/14/14 15/15/15 13/13/13
f 14/14/14 16/16/16 15/15/15
f 16/16/16 14/14/14 17/17/17
f 16/16/16 17/17/17 18/18/18
f 16/16/16 19/19/19 15/15/15
f 16/16/16 20/20/20 19/19/19
f 21/21/21 23/23/23 22/22/22
f 21/21/21 24/24/24 23/23/23
f 24/24/24 25/25/25 23/23/23
f 24/24/24 26/26/26 25/25/25
f 26/26/26 27/27/27 25/25/25
f 26/26/26 28/28/28 27/27/27
f 24/24/24 29/29/29 26/26/26
f 24/24/24 30/30/30 29/29/29
f 31/31/31 33/33/33 32/32/32
f 31/31/31 34/34/34 33/33/33
f 34/34/34 35/35/35 33/33/33
f 34/34/34 36/36/36 35/35/35
f 36/36/36 34/34/34 37/37/37
f 36/36/36 37/37/37 38/38/38
f 36/36/36 39/39/39 35/35/35
f 36/36/36 40/40/40 39/39/39
f 41/41/41 43/43/43 42/42/42
f 41/41/41 44/44/44 43/43/43
f 43/43/43 44/44/44 45/45/45
f 44/44/44 46/46/46 45/45/45
f 44/44/44 47/47/47 46/46/46
f 43/43/43 45/45/45 48/48/48
f 48/48/48 49/49/49 43/43/43
f 48/48/48 45/45/45 50/50/50
f 48/48/48 50/50/50 51/51/51
f 52/52/52 54/54/54 53/53/53
f 52/52/52 55/55/55 54/54/54
f 55/55/55 56/56/56 54/54/54
f 55/55/55 57/57/57 56/56/56
f 57/57/57 58/58/58 56/56/56
f 57/57/57 59/59/59 58/58/58
f 55/55/55 60/60/60 57/57/57
f 55/55/55 61/61/61 60/60/60
f 62/62/62 64/64/64 63/63/63
f 62/62/62 65/65/65 64/64/64
f 66/66/66 65/65/65 62/62/62
f 66/66/66 67/67/67 65/65/65
f 64/64/64 65/65/65 67/67/67
f 67/67/67 68/68/68 64/64/64
f 67/67/67 69/69/69 68/68/68
f 68/68/68 70/70/70 64/64/64
f 71/71/71 68/68/68 69/69/69
f 72/72/72 70/70/70 68/68/68
f 71/71/71 73/73/73 68/68/68
f 72/72/72 68/68/68 73/73/73
f 74/74/74 76/76/76 75/75/75
f 74/74/74 77/77/77 76/76/76
f 78/78/78 77/77/77 74/74/74
f 78/78/78 79/79/79 77/77/77
f 76/76/76 77/77/77 79/79/79
f 79/79/79 80/80/80 76/76/76
f 80/80/80 81/81/81 76/76/76
f 82/82/82 81/81/81 80/80/80
f 81/81/81 83/83/83 76/76/76
f 82/82/82 84/84/84 81/81/81
f 84/84/84 83/83/83 81/81/81
f 84/84/84 85/85/85 83/83/83
f 86/86/86 88/88/88 87/87/87
f 86/86/86 89/89/89 88/88/88
f 90/90/90 89/89/89 86/86/86
f 90/90/90 91/91/91 89/89/89
f 88/88/88 89/89/89 92/92/92
f 89/89/89 91/91/91 92/92/92
f 92/92/92 93/93/93 88/88/88
f 92/92/92 94/94/94 93/93/93
f 91/91/91 95/95/95 92/92/92
f 96/96/96 95/95/95 91/91/91
f 96/96/96 97/97/97 95/95/95
f 95/95/95 97/97/97 92/92/92
f 92/92/92 97/97/97 98/98/98
f 99/99/99 101/101/101 100/100/100
f 102/102/102 99/99/99 100/100/100
f 102/102/102 100/100/100 103/103/103
f 100/100/100 104/104/104 103/103/103
f 100/100/100 105/105/105 104/104/104
f 106/106/106 99/99/99 102/102/102
f 102/102/102 107/107/107 106/106/106
f 106/106/106 108/108/108 99/99/99
f 109/109/109 111/111/111 110/110/110
f 109/109/109 112/112/112 111/111/111
f 113/113/113 112/112/112 109/109/109
f 113/113/113 114/114/114 112/112/112
f 111/111/111 112/112/112 114/114/114
f 115/115/115 114/114/114 113/113/113
f 114/114/114 116/116/116 111/111/111
f 115/115/115 116/116/116 114/114/114
f 116/116/116 117/117/117 111/111/111
f 115/115/115 117/117/117 116/116/116
f 117/117/117 118/118/118 111/111/111
f 115/115/115 119/119/119 117/117/117
f 119/119/119 118/118/118 117/117/117
f 120/120/120 122/122/122 121/121/121
f 120/120/120 123/123/123 122/122/122
f 124/124/124 123/123/123 120/120/120
f 123/123/123 125/125/125 122/122/122
f 124/124/124 126/126/126 123/123/123
f 123/123/123 127/127/127 125/125/125
f 126/126/126 127/127/127 123/123/123
f 127/127/127 128/128/128 125/125/125
f 126/126/126 129/129/129 127/127/127
f 127/127/127 130/130/130 128/128/128
f 129/129/129 130/130/130 127/127/127
f 129/129/129 131/131/131 130/130/130
f 132/132/132 134/134/134 133/133/133
f 132/132/132 135/135/135 134/134/134
f 136/136/136 135/135/135 132/132/132
f 137/137/137 134/134/134 135/135/135
f 137/137/137 138/138/138 134/134/134
f 138/138/138 137/137/137 139/139/139
f 136/136/136 140/140/140 135/135/135
f 140/140/140 137/137/137 135/135/135
f 141/141/141 140/140/140 136/136/136
f 141/141/141 142/142/142 140/140/140
f 143/143/143 139/139/139 137/137/137
f 140/140/140 143/143/143 137/137/137
f 142/142/142 143/143/143 140/140/140
f 143/143/143 144/144/144 139/139/139
f 142/142/142 145/145/145 143/143/143
f 146/146/146 148/148/148 147/147/147
f 146/146/146 147/147/147 149/149/149
f 149/149/149 150/150/150 146/146/146
f 151/151/151 146/146/146 150/150/150
f 151/151/151 150/150/150 152/152/152
f 151/151/151 153/153/153 146/146/146
f 151/151/151 154/154/154 153/153/153
f 155/155/155 151/151/151 152/152/152
f 155/155/155 156/156/156 151/151/151
f 157/157/157 159/159/159 158/158/158
f 157/157/157 158/158/158 160/160/160
f 161/161/161 157/157/157 160/160/160
f 161/161/161 160/160/160 162/162/162
f 162/162/162 160/160/160 158/158/158
f 158/158/158 163/163/163 162/162/162
f 158/158/158 164/164/164 163/163/163
f 165/165/165 163/163/163 164/164/164
f 163/163/163 166/166/166 162/162/162
f 165/165/165 167/167/167 163/163/163
f 167/167/167 166/166/166 163/163/163
f 167/167/167 168/168/168 166/166/166
f 169/169/169 171/171/171 170/170/170
f 172/172/172 170/170/170 171/171/171
f 169/169/169 173/173/173 171/171/171
f 172/172/172 171/171/171 174/174/174
f 174/174/174 171/171/171 173/173/173
f 175/175/175 172/172/172 174/174/174
f 173/173/173 176/176/176 174/174/174
f 177/177/177 176/176/176 173/173/173
f 178/178/178 176/176/176 177/177/177
f 178/178/178 179/179/179 176/176/176
f 175/175/175 179/179/179 178/178/178
f 176/176/176 179/179/179 174/174/174
f 175/175/175 174/174/174 180/180/180
f 179/179/179 180/180/180 174/174/174
f 175/175/175 180/180/180 179/179/179
f 181/181/181 183/183/183 182/182/182
f 184/184/184 182/182/182 183/183/183
f 181/181/181 185/185/185 183/183/183
f 186/186/186 185/185/185 181/181/181
f 184/184/184 183/183/183 187/187/187
f 187/187/187 183/183/183 185/185/185
f 188/188/188 184/184/184 187/187/187
f 186/186/186 189/189/189 185/185/185
f 190/190/190 189/189/189 186/186/186
f 185/185/185 189/189/189 191/191/191
f 190/190/190 191/191/191 189/189/189
f 188/188/188 191/191/191 190/190/190
f 187/187/187 185/185/185 191/191/191
f 188/188/188 187/187/187 192/192/192
f 191/191/191 192/192/192 187/187/187
f 188/188/188 192/192/192 191/191/191
f 193/193/193 195/195/195 194/194/194
f 196/196/196 194/194/194 195/195/195
f 193/193/193 197/197/197 195/195/195
f 198/198/198 197/197/197 193/193/193
f 196/196/196 195/195/195 199/199/199
f 199/199/199 195/195/195 197/197/197
f 200/200/200 196/196/196 199/199/199
f 198/198/198 201/201/201 197/197/197
f 197/197/197 201/201/201 199/199/199
f 202/202/202 201/201/201 198/198/198
f 200/200/200 199/199/199 203/203/203
f 202/202/202 200/200/200 203/203/203
f 201/201/201 204/204/204 199/199/199
f 202/202/202 204/204/204 201/201/201
f 202/202/202 203/203/203 204/204/204
f 204/204/204 203/203/203 199/199/199
f 205/205/205 207/207/207 206/206/206
f 208/208/208 206/206/206 207/207/207
f 205/205/205 209/209/209 207/207/207
f 210/210/210 209/209/209 205/205/205
f 208/208/208 207/207/207 211/211/211
f 211/211/211 207/207/207 209/209/209
f 210/210/210 212/212/212 209/209/209
f 209/209/209 212/212/212 211/211/211
f 213/213/213 212/212/212 210/210/210
f 208/208/208 211/211/211 214/214/214
f 208/208/208 214/214/214 215/215/215
f 213/213/213 215/215/215 214/214/214
f 212/212/212 216/216/216 211/211/211
f 213/213/213 216/216/216 212/212/212
f 213/213/213 214/214/214 216/216/216
f 216/216/216 214/214/214 211/211/211
f 217/217/217 219/219/219 218/218/218
f 220/220/220 218/218/218 219/219/219
f 217/217/217 221/221/221 219/219/219
f 222/222/222 221/221/221 217/217/217
f 222/222/222 223/223/223 221/221/221
f 219/219/219 221/221/221 223/223/223
f 224/224/224 223/223/223 222/222/222
f 220/220/220 219/219/219 225/225/225
f 219/219/219 223/223/223 225/225/225
f 226/226/226 220/220/220 225/225/225
f 224/224/224 227/227/227 223/223/223
f 225/225/225 223/223/223 227/227/227
f 226/226/226 225/225/225 228/228/228
f 224/224/224 226/226/226 228/228/228
f 225/225/225 227/227/227 228/228/228
f 224/224/224 228/228/228 227/227/227
