mtllib P_RockSpire_Rock08.mtl
v 1.415397 1.820773 -1.291415
v 1.070847 1.763086 -1.741832
v 1.740336 0.6259013 -1.71288
v -1.07725 4.848147 -0.4021292
v -1.650801 4.036118 -0.4635104
v -0.5011129 4.761713 -0.8296441
v -0.4304819 3.628891 -1.618123
v -1.948811 1.639995 -1.08487
v -0.4333229 4.621792 -0.8988175
v -1.22408 1.339078 -1.686113
v -2.103866 1.306848 -0.8717721
v -1.163866 0.04248116 -1.419504
v -0.9653902 -1.541468 -1.118461
v -0.006349564 1.807574 -1.502382
v 0.3796415 3.680918 -1.497634
v 0.9187002 1.909996 -1.369759
v 0.9543171 3.926568 -1.302985
v 1.415397 1.820773 -1.291415
v 1.810725 2.347603 -0.9725087
v 1.976422 3.855626 -0.403798
v 1.201273 4.473904 -0.8258222
v 1.896095 4.394541 -0.3028956
v 1.54334 4.510517 -0.5134698
v 0.53477 4.753928 0.2125833
v -0.5011129 4.761713 -0.8296441
v -0.4333229 4.621792 -0.8988175
v 0.4868498 4.948382 0.2081474
v -1.006742 -2.069356 -0.6852536
v -0.1856441 -2.033273 -1.527169
v -0.9653902 -1.541468 -1.118461
v -0.809413 -0.7363681 -1.827168
v 0.9574871 -1.779338 -1.483885
v -0.07579231 0.2816063 -2.063011
v -1.03746 1.316363 -1.974056
v 0.1122856 1.649057 -2.013432
v 1.070847 1.763086 -1.741832
v 1.740336 0.6259013 -1.71288
v 2.20968 -0.9482357 -1.345455
v 2.177773 -1.547304 -1.293736
v 2.278503 0.6571252 -1.256161
v 1.415397 1.820773 -1.291415
v -1.163866 0.04248116 -1.419504
v -0.9653902 -1.541468 -1.118461
v -0.809413 -0.7363681 -1.827168
v -1.22408 1.339078 -1.686113
v -1.03746 1.316363 -1.974056
v 0.9187002 1.909996 -1.369759
v 1.070847 1.763086 -1.741832
v 1.415397 1.820773 -1.291415
v 0.1122856 1.649057 -2.013432
v -0.006349564 1.807574 -1.502382
v -1.03746 1.316363 -1.974056
v -1.22408 1.339078 -1.686113
v 0.53477 4.753928 0.2125833
v 1.417638 4.481021 0.6300242
v 1.347986 4.83065 0.6550521
v 0.4868498 4.948382 0.2081474
v 1.896095 4.394541 -0.3028956
v 1.976422 3.855626 -0.403798
v 1.417638 4.481021 0.6300242
v 1.665024 3.052738 0.8891177
v 2.015179 3.259348 -0.3285423
v 1.810725 2.347603 -0.9725087
v 1.223018 3.339265 1.879296
v 1.096606 4.884935 1.470158
v 1.347986 4.83065 0.6550521
v 0.9398718 2.649576 2.006695
v 1.231071 1.521369 0.7668643
v 0.7637472 1.679959 1.726256
v 1.570538 -0.7488517 1.194378
v 1.71961 1.751288 -0.6593512
v 1.818463 2.042536 -0.8071513
v 1.552959 1.786118 -1.132838
v 1.415397 1.820773 -1.291415
v 2.032777 1.295769 -1.050055
v 2.278503 0.6571252 -1.256161
v 2.030182 -0.9659509 0.1760727
v 2.001595 -1.48087 0.1754843
v 1.450366 -1.494057 1.345559
v 2.177773 -1.547304 -1.293736
v 2.20968 -0.9482357 -1.345455
v 1.54334 4.510517 -0.5134698
v 1.896095 4.394541 -0.3028956
v 1.417638 4.481021 0.6300242
v 0.53477 4.753928 0.2125833
v 1.201273 4.473904 -0.8258222
v -0.4333229 4.621792 -0.8988175
v 1.096606 4.884935 1.470158
v 0.4868498 4.948382 0.2081474
v 1.347986 4.83065 0.6550521
v 0.5353851 4.87979 1.704578
v -0.177681 5.078272 0.6625096
v -0.5011129 4.761713 -0.8296441
v -1.355306 5.07196 0.8603308
v -1.07725 4.848147 -0.4021292
v -0.1856441 -2.033273 -1.527169
v 2.177773 -1.547304 -1.293736
v 0.9574871 -1.779338 -1.483885
v -0.3429003 -1.856653 1.088208
v -1.006742 -2.069356 -0.6852536
v -1.127609 -2.000515 0.6330163
v 2.001595 -1.48087 0.1754843
v 1.450366 -1.494057 1.345559
v -1.650801 4.036118 -0.4635104
v -1.07725 4.848147 -0.4021292
v -1.355306 5.07196 0.8603308
v -2.105479 4.002214 0.9022506
v -2.440194 2.835431 1.005426
v -1.948811 1.639995 -1.08487
v -2.421328 1.233244 -0.1408496
v -2.103866 1.306848 -0.8717721
v -2.660626 1.692384 0.8292677
v -0.9653902 -1.541468 -1.118461
v -1.932593 -0.1354124 1.046743
v -1.006742 -2.069356 -0.6852536
v -1.127609 -2.000515 0.6330163
v -0.8477249 -0.4731483 1.467353
v 1.450366 -1.494057 1.345559
v -0.3429003 -1.856653 1.088208
v -1.127609 -2.000515 0.6330163
v -1.932593 -0.1354124 1.046743
v 0.2139244 1.690443 1.948495
v -2.660626 1.692384 0.8292677
v -2.440194 2.835431 1.005426
v 0.4183302 0.9450973 1.969363
v 1.570538 -0.7488517 1.194378
v 0.7637472 1.679959 1.726256
v 0.9398718 2.649576 2.006695
v 0.2507334 3.274296 2.020314
v -2.105479 4.002214 0.9022506
v 1.223018 3.339265 1.879296
v -1.355306 5.07196 0.8603308
v 0.6074047 4.146985 1.944134
v 1.096606 4.884935 1.470158
v 0.5353851 4.87979 1.704578
vn 0.5757987 0.3368183 -0.7449895
vn 0.3197988 0.6095652 -0.7253683
vn 0.4453807 0.108807 -0.8887053
vn -0.4326693 0.7805002 -0.451239
vn -0.7647527 0.3941845 -0.5096783
vn 0.02214852 0.7595086 -0.6501201
vn -0.1856007 0.3076398 -0.9332257
vn -0.768598 0.1112454 -0.6299853
vn 0.3255778 0.6482948 -0.6882681
vn -0.620804 0.147937 -0.7698812
vn -0.8467754 -0.08185681 -0.5256148
vn -0.7855272 -0.1822708 -0.591375
vn -0.7475138 -0.3651778 -0.5548588
vn -0.0007030907 0.5345811 -0.8451169
vn 0.1582858 0.2661043 -0.9508596
vn 0.1539539 0.5449738 -0.8241976
vn 0.3517578 0.356325 -0.8656206
vn 0.5757987 0.3368183 -0.7449895
vn 0.8208713 -0.007203471 -0.5710679
vn 0.9495202 0.204646 -0.2377636
vn 0.3383091 0.7316547 -0.5918009
vn 0.8311111 0.5427835 -0.1209981
vn 0.4020844 0.8392543 -0.3660335
vn 0.4850994 0.6164033 -0.6202624
vn 0.02214852 0.7595086 -0.6501201
vn 0.3255778 0.6482948 -0.6882681
vn 0.4180728 0.7625847 -0.4936394
vn -0.527384 -0.8220063 -0.214876
vn -0.08787882 -0.7862768 -0.6115932
vn -0.7475138 -0.3651778 -0.5548588
vn -0.5095476 -0.2542387 -0.8220243
vn 0.213584 -0.645406 -0.733371
vn 0.03491895 -0.08866365 -0.9954494
vn -0.514158 0.4022 -0.7575466
vn -0.001601026 0.5747848 -0.818303
vn 0.3197988 0.6095652 -0.7253683
vn 0.4453807 0.108807 -0.8887053
vn 0.8011826 -0.1090143 -0.5884066
vn 0.6865314 -0.5660468 -0.4563614
vn 0.9364976 0.2243139 -0.269547
vn 0.5757987 0.3368183 -0.7449895
vn -0.7855272 -0.1822708 -0.591375
vn -0.7475138 -0.3651778 -0.5548588
vn -0.5095476 -0.2542387 -0.8220243
vn -0.620804 0.147937 -0.7698812
vn -0.514158 0.4022 -0.7575466
vn 0.1539539 0.5449738 -0.8241976
vn 0.3197988 0.6095652 -0.7253683
vn 0.5757987 0.3368183 -0.7449895
vn -0.001601026 0.5747848 -0.818303
vn -0.0007030907 0.5345811 -0.8451169
vn -0.514158 0.4022 -0.7575466
vn -0.620804 0.147937 -0.7698812
vn 0.4850994 0.6164033 -0.6202624
vn 0.8928224 0.4401764 0.09546051
vn 0.733528 0.6078123 -0.3041397
vn 0.4180728 0.7625847 -0.4936394
vn 0.8311111 0.5427835 -0.1209981
vn 0.9495202 0.204646 -0.2377636
vn 0.8928224 0.4401764 0.09546051
vn 0.9312868 -0.06329937 0.3587453
vn 0.9992767 -0.03373181 0.01755928
vn 0.8208713 -0.007203471 -0.5710679
vn 0.66489 0.04295515 0.7457051
vn 0.5564448 0.7029383 0.4429978
vn 0.733528 0.6078123 -0.3041397
vn 0.4859434 -0.1539116 0.8603314
vn 0.9217414 -0.0118413 0.3876242
vn 0.6680117 -0.1113975 0.7357655
vn 0.8140249 0.07803933 0.5755635
vn 0.9916964 0.0644404 0.1112911
vn 0.9481586 -0.2698747 -0.1678186
vn 0.8213654 0.2358733 -0.5193483
vn 0.5757987 0.3368183 -0.7449895
vn 0.8863699 0.4424185 -0.1364337
vn 0.9364976 0.2243139 -0.269547
vn 0.9554244 0.03503718 0.2931495
vn 0.7521145 -0.6194393 0.2249861
vn 0.4755399 -0.5768747 0.6641365
vn 0.6865314 -0.5660468 -0.4563614
vn 0.8011826 -0.1090143 -0.5884066
vn 0.4020844 0.8392543 -0.3660335
vn 0.8311111 0.5427835 -0.1209981
vn 0.8928224 0.4401764 0.09546051
vn 0.4850994 0.6164033 -0.6202624
vn 0.3383091 0.7316547 -0.5918009
vn 0.3255778 0.6482948 -0.6882681
vn 0.5564448 0.7029383 0.4429978
vn 0.4180728 0.7625847 -0.4936394
vn 0.733528 0.6078123 -0.3041397
vn 0.007743354 0.712738 0.7013877
vn 0.06389359 0.9976957 -0.02282452
vn 0.02214852 0.7595086 -0.6501201
vn -0.502932 0.8012484 0.3241305
vn -0.4326693 0.7805002 -0.451239
vn -0.08787882 -0.7862768 -0.6115932
vn 0.6865314 -0.5660468 -0.4563614
vn 0.213584 -0.645406 -0.733371
vn -0.0629646 -0.7736229 0.6305103
vn -0.527384 -0.8220063 -0.214876
vn -0.5078104 -0.7949262 0.3319954
vn 0.7521145 -0.6194393 0.2249861
vn 0.4755399 -0.5768747 0.6641365
vn -0.7647527 0.3941845 -0.5096783
vn -0.4326693 0.7805002 -0.451239
vn -0.502932 0.8012484 0.3241305
vn -0.8330072 0.4039792 0.378021
vn -0.8759138 0.1710119 0.4511429
vn -0.768598 0.1112454 -0.6299853
vn -0.9556357 -0.1122563 -0.2723215
vn -0.8467754 -0.08185681 -0.5256148
vn -0.9271163 -0.02571645 0.3738903
vn -0.7475138 -0.3651778 -0.5548588
vn -0.7759959 -0.3054973 0.5518169
vn -0.527384 -0.8220063 -0.214876
vn -0.5078104 -0.7949262 0.3319954
vn -0.293048 -0.2337335 0.9270877
vn 0.4755399 -0.5768747 0.6641365
vn -0.0629646 -0.7736229 0.6305103
vn -0.5078104 -0.7949262 0.3319954
vn -0.7759959 -0.3054973 0.5518169
vn -0.05991341 -0.05535011 0.9966678
vn -0.9271163 -0.02571645 0.3738903
vn -0.8759138 0.1710119 0.4511429
vn 0.1393863 -0.05413433 0.9887573
vn 0.8140249 0.07803933 0.5755635
vn 0.6680117 -0.1113975 0.7357655
vn 0.4859434 -0.1539116 0.8603314
vn -0.165697 0.0881448 0.9822296
vn -0.8330072 0.4039792 0.378021
vn 0.66489 0.04295515 0.7457051
vn -0.502932 0.8012484 0.3241305
vn 0.03396707 0.2382607 0.970607
vn 0.5564448 0.7029383 0.4429978
vn 0.007743354 0.712738 0.7013877
vt 0.4297188 0.1789547
vt 0.4252875 0.1808489
vt 0.4297188 0.1922987
vt 0.4006585 0.8796878
vt 0.3961478 0.8890231
vt 0.4067544 0.8798777
vt 0.409458 0.8918859
vt 0.3971922 0.9144947
vt 0.4076928 0.8812423
vt 0.4051906 0.9167449
vt 0.3961478 0.9180323
vt 0.4079847 0.9297574
vt 0.4126828 0.9454581
vt 0.4168898 0.9097586
vt 0.4176811 0.8899006
vt 0.4262069 0.9070539
vt 0.4231524 0.886281
vt 0.4314533 0.9070752
vt 0.434597 0.9007962
vt 0.4337018 0.8846859
vt 0.4247256 0.8799396
vt 0.4319565 0.8792323
vt 0.4281531 0.8787796
vt 0.5847681 0.6773478
vt 0.5833133 0.6884782
vt 0.5847681 0.6892664
vt 0.5827159 0.6772828
vt 0.5428598 0.1927762
vt 0.5513774 0.193048
vt 0.543331 0.1875828
vt 0.5450149 0.1797041
vt 0.5633053 0.1905092
vt 0.5527529 0.1693668
vt 0.5428599 0.158452
vt 0.554862 0.1551503
vt 0.5648624 0.1538937
vt 0.5717077 0.1657622
vt 0.5764353 0.1819243
vt 0.5760397 0.1881096
vt 0.5773306 0.1651969
vt 0.5684727 0.153036
vt 0.05819778 0.6653411
vt 0.05819778 0.6821458
vt 0.06374021 0.6725237
vt 0.05835299 0.6515566
vt 0.06124384 0.6512349
vt 0.6690641 0.1697912
vt 0.6731004 0.1688039
vt 0.6689917 0.1645682
vt 0.6744315 0.1790995
vt 0.6690166 0.1795302
vt 0.6722346 0.1909201
vt 0.6689917 0.1924042
vt 0.4366925 0.7583538
vt 0.4366925 0.767907
vt 0.4400134 0.766231
vt 0.4385021 0.7573322
vt 0.8853667 0.1175949
vt 0.8852196 0.1233392
vt 0.8946063 0.1149093
vt 0.8996434 0.1293071
vt 0.8869556 0.1293631
vt 0.8816914 0.139633
vt 0.9091704 0.1244983
vt 0.9024587 0.1092118
vt 0.8942784 0.1112368
vt 0.9114477 0.1311981
vt 0.900622 0.1449558
vt 0.9100243 0.1414943
vt 0.9087657 0.1677823
vt 0.8858151 0.1451939
vt 0.8838781 0.1425032
vt 0.8808193 0.1454956
vt 0.8790734 0.1453101
vt 0.8826603 0.1506927
vt 0.8816633 0.1577324
vt 0.8988473 0.1719346
vt 0.8996449 0.1772037
vt 0.9114477 0.1751145
vt 0.8847272 0.1803601
vt 0.88326 0.1743134
vt 0.5877105 0.3523701
vt 0.5874103 0.3481094
vt 0.5765158 0.3481094
vt 0.5762485 0.358254
vt 0.5889738 0.3570237
vt 0.5819246 0.3725049
vt 0.9759942 0.1092118
vt 0.9853927 0.1203766
vt 0.9847944 0.1103021
vt 0.9713764 0.1135428
vt 0.9782727 0.1247422
vt 0.991002 0.1341945
vt 0.9713764 0.135083
vt 0.984505 0.137838
vt 0.9640627 0.8262072
vt 0.9629716 0.8013674
vt 0.9628145 0.814288
vt 0.9912201 0.8239741
vt 0.973935 0.8334553
vt 0.9876869 0.8327646
vt 0.9783598 0.8010281
vt 0.9912201 0.805012
vt 0.09097389 0.7864982
vt 0.0900054 0.7780604
vt 0.0770107 0.7757837
vt 0.07700729 0.7869052
vt 0.07616026 0.7990482
vt 0.09769939 0.8114048
vt 0.08814431 0.8156728
vt 0.09557855 0.8148793
vt 0.07815815 0.8109336
vt 0.09769939 0.8445403
vt 0.07561351 0.8299849
vt 0.09324152 0.8500544
vt 0.07959398 0.8493967
vt 0.9006627 0.4336189
vt 0.8777097 0.4462591
vt 0.8964956 0.4483729
vt 0.9045458 0.449102
vt 0.9114082 0.4290881
vt 0.8879494 0.4121985
vt 0.9172175 0.4094523
vt 0.9139925 0.3978196
vt 0.8865075 0.420114
vt 0.8757292 0.4386211
vt 0.8821604 0.4127747
vt 0.8795972 0.4029134
vt 0.8861849 0.3958166
vt 0.9094342 0.3860091
vt 0.8759887 0.3960008
vt 0.9006863 0.3755865
vt 0.8816745 0.3870789
vt 0.8757292 0.3798085
vt 0.8816558 0.3793856
usemtl MV_RockSpire_Rocks
f 1/1/1 3/3/3 2/2/2
f 4/4/4 6/6/6 5/5/5
f 6/6/6 7/7/7 5/5/5
f 8/8/8 5/5/5 7/7/7
f 7/7/7 6/6/6 9/9/9
f 7/7/7 10/10/10 8/8/8
f 8/8/8 10/10/10 11/11/11
f 12/12/12 11/11/11 10/10/10
f 12/12/12 13/13/13 11/11/11
f 7/7/7 14/14/14 10/10/10
f 14/14/14 7/7/7 15/15/15
f 15/15/15 7/7/7 9/9/9
f 14/14/14 15/15/15 16/16/16
f 17/17/17 15/15/15 9/9/9
f 17/17/17 16/16/16 15/15/15
f 17/17/17 18/18/18 16/16/16
f 18/18/18 17/17/17 19/19/19
f 17/17/17 20/20/20 19/19/19
f 21/21/21 17/17/17 9/9/9
f 21/21/21 20/20/20 17/17/17
f 21/21/21 22/22/22 20/20/20
f 21/21/21 23/23/23 22/22/22
f 24/24/24 26/26/26 25/25/25
f 24/24/24 25/25/25 27/27/27
f 28/28/28 30/30/30 29/29/29
f 29/29/29 30/30/30 31/31/31
f 32/32/32 29/29/29 31/31/31
f 33/33/33 32/32/32 31/31/31
f 34/34/34 33/33/33 31/31/31
f 35/35/35 33/33/33 34/34/34
f 33/33/33 35/35/35 36/36/36
f 33/33/33 36/36/36 37/37/37
f 32/32/32 33/33/33 38/38/38
f 33/33/33 37/37/37 38/38/38
f 39/39/39 32/32/32 38/38/38
f 38/38/38 37/37/37 40/40/40
f 40/40/40 37/37/37 41/41/41
f 42/42/42 44/44/44 43/43/43
f 44/44/44 42/42/42 45/45/45
f 44/44/44 45/45/45 46/46/46
f 47/47/47 49/49/49 48/48/48
f 50/50/50 47/47/47 48/48/48
f 50/50/50 51/51/51 47/47/47
f 51/51/51 50/50/50 52/52/52
f 51/51/51 52/52/52 53/53/53
f 54/54/54 56/56/56 55/55/55
f 54/54/54 57/57/57 56/56/56
f 58/58/58 60/60/60 59/59/59
f 60/60/60 61/61/61 59/59/59
f 61/61/61 62/62/62 59/59/59
f 63/63/63 59/59/59 62/62/62
f 64/64/64 61/61/61 60/60/60
f 64/64/64 60/60/60 65/65/65
f 65/65/65 60/60/60 66/66/66
f 64/64/64 67/67/67 61/61/61
f 61/61/61 67/67/67 68/68/68
f 67/67/67 69/69/69 68/68/68
f 68/68/68 69/69/69 70/70/70
f 62/62/62 61/61/61 71/71/71
f 61/61/61 68/68/68 71/71/71
f 63/63/63 62/62/62 72/72/72
f 62/62/62 71/71/71 72/72/72
f 72/72/72 73/73/73 63/63/63
f 72/72/72 71/71/71 73/73/73
f 74/74/74 63/63/63 73/73/73
f 73/73/73 71/71/71 75/75/75
f 74/74/74 73/73/73 75/75/75
f 75/75/75 71/71/71 68/68/68
f 76/76/76 74/74/74 75/75/75
f 68/68/68 77/77/77 75/75/75
f 70/70/70 77/77/77 68/68/68
f 77/77/77 76/76/76 75/75/75
f 78/78/78 77/77/77 70/70/70
f 78/78/78 70/70/70 79/79/79
f 77/77/77 78/78/78 80/80/80
f 76/76/76 77/77/77 80/80/80
f 81/81/81 76/76/76 80/80/80
f 82/82/82 84/84/84 83/83/83
f 82/82/82 85/85/85 84/84/84
f 85/85/85 82/82/82 86/86/86
f 85/85/85 86/86/86 87/87/87
f 88/88/88 90/90/90 89/89/89
f 89/89/89 91/91/91 88/88/88
f 89/89/89 92/92/92 91/91/91
f 92/92/92 89/89/89 93/93/93
f 91/91/91 92/92/92 94/94/94
f 92/92/92 93/93/93 95/95/95
f 92/92/92 95/95/95 94/94/94
f 96/96/96 98/98/98 97/97/97
f 96/96/96 97/97/97 99/99/99
f 96/96/96 99/99/99 100/100/100
f 99/99/99 101/101/101 100/100/100
f 97/97/97 102/102/102 99/99/99
f 99/99/99 102/102/102 103/103/103
f 104/104/104 106/106/106 105/105/105
f 104/104/104 107/107/107 106/106/106
f 108/108/108 107/107/107 104/104/104
f 109/109/109 108/108/108 104/104/104
f 109/109/109 110/110/110 108/108/108
f 111/111/111 110/110/110 109/109/109
f 110/110/110 112/112/112 108/108/108
f 110/110/110 111/111/111 113/113/113
f 110/110/110 114/114/114 112/112/112
f 113/113/113 115/115/115 110/110/110
f 110/110/110 116/116/116 114/114/114
f 110/110/110 115/115/115 116/116/116
f 117/117/117 119/119/119 118/118/118
f 117/117/117 120/120/120 119/119/119
f 117/117/117 121/121/121 120/120/120
f 122/122/122 121/121/121 117/117/117
f 122/122/122 123/123/123 121/121/121
f 123/123/123 122/122/122 124/124/124
f 117/117/117 118/118/118 125/125/125
f 117/117/117 125/125/125 122/122/122
f 125/125/125 118/118/118 126/126/126
f 125/125/125 126/126/126 127/127/127
f 122/122/122 125/125/125 127/127/127
f 122/122/122 127/127/127 128/128/128
f 129/129/129 124/124/124 122/122/122
f 128/128/128 129/129/129 122/122/122
f 129/129/129 130/130/130 124/124/124
f 129/129/129 128/128/128 131/131/131
f 129/129/129 132/132/132 130/130/130
f 129/129/129 131/131/131 133/133/133
f 129/129/129 133/133/133 132/132/132
f 133/133/133 131/131/131 134/134/134
f 133/133/133 135/135/135 132/132/132
f 133/133/133 134/134/134 135/135/135
