mtllib P_RockSpire_Shelf08.mtl
v -2.274451 34.63362 -9.812749
v -3.193843 35.65782 -14.10638
v -3.025172 34.29224 -13.98684
v 4.736549 23.7688 -13.54747
v 5.351654 17.55182 -19.30626
v 7.701658 14.83098 -14.11217
v -10.75013 -6.831716 -14.977
v -9.824121 -8.101682 -9.939479
v -9.227197 -8.89662 -14.47395
v 14.18996 15.00637 11.48356
v 16.03744 11.53113 9.355237
v 16.19287 11.81407 9.996266
v 2.118269 34.73531 10.70306
v -5.573768 33.0962 12.96879
v -5.932117 35.09309 11.59362
v -14.03634 32.84808 -7.44714
v -14.3675 34.50822 -7.497529
v -11.33112 34.03861 -4.162742
v 0.2554774 -7.638389 -23.31526
v 0.8000164 -8.776023 -22.15295
v 4.917621 -8.668694 -21.17312
v 18.31273 2.107398 8.994295
v 19.90235 -6.123743 9.657037
v 17.13093 -5.991337 10.59154
v 3.529243 3.114646 16.61828
v 4.909059 11.48889 14.67793
v 5.88494 11.53684 15.99579
v -3.351172 5.387156 9.365679
v -3.119482 4.768802 10.05023
v -9.835374 6.0838 12.31825
v -3.025172 34.29224 -13.98684
v -3.193843 35.65782 -14.10638
v -4.880241 35.64405 -17.08991
v -4.112882 29.2568 -17.17151
v -1.769895 30.01346 -13.31931
v 4.118884 34.85077 -11.1862
v 6.091563 29.755 -10.87351
v 5.935294 34.86389 -8.625013
v -0.3818702 24.66526 -13.76385
v 4.736549 23.7688 -13.54747
v -4.117648 24.14306 -16.99915
v -10.47347 29.59924 -15.81588
v -10.84237 33.85736 -16.74819
v -10.70732 36.00789 -16.42197
v -12.20956 23.83764 -15.31902
v -6.001756 15.8037 -18.37078
v -12.84104 14.65971 -15.61349
v -14.47995 6.81627 -17.38619
v -6.6444 4.282982 -20.62333
v -15.94909 -2.684382 -20.15172
v -13.37044 -5.729751 -21.54975
v -7.237351 -5.645834 -22.69179
v -11.8002 32.50026 7.88133
v -12.72396 34.54154 3.604748
v -11.39075 34.71136 7.416971
v -14.36697 28.95754 0.7992812
v -12.07862 28.75337 8.126495
v -15.04788 32.80082 -2.04142
v -12.6338 23.92584 6.980597
v -14.82974 29.23751 -7.691469
v -14.66932 32.34687 -5.019818
v -14.03634 32.84808 -7.44714
v -14.36345 23.2062 -0.7301469
v -13.66268 14.35668 6.006133
v -15.77464 29.04183 -9.626639
v -14.11137 20.26429 -6.925955
v -14.07813 15.76877 -4.90685
v -15.48116 6.869462 1.090279
v -15.24749 11.72414 -5.773927
v -14.41949 3.860901 6.037516
v -16.36238 4.16794 -7.627223
v -17.57609 -6.18021 -0.2642165
v -10.02046 -6.177294 10.49395
v -19.32233 -6.167367 -6.878718
v -19.31611 -6.096433 -7.596252
v -15.56532 33.31616 -10.64402
v -14.3675 34.50822 -7.497529
v -15.41506 34.90403 -10.23782
v -10.70732 36.00789 -16.42197
v -10.84237 33.85736 -16.74819
v -10.47347 29.59924 -15.81588
v -12.20956 23.83764 -15.31902
v -15.5749 19.98566 -8.920053
v -16.68446 16.47591 -8.190146
v -12.84104 14.65971 -15.61349
v -17.4985 11.75991 -8.676766
v -19.51814 4.700713 -9.873332
v -14.47995 6.81627 -17.38619
v -19.78787 -5.348163 -14.35882
v -20.90277 -2.999304 -10.06217
v -15.94909 -2.684382 -20.15172
v -20.70784 -6.058858 -9.35096
v -13.37044 -5.729751 -21.54975
v -19.69246 -5.891659 -14.13389
v -4.117648 24.14306 -16.99915
v -4.361784 17.48649 -20.93488
v -2.759368 23.6375 -18.9584
v -6.001756 15.8037 -18.37078
v -5.142647 5.851985 -22.17016
v -6.6444 4.282982 -20.62333
v -7.237351 -5.645834 -22.69179
v -7.237351 -5.645834 -22.69179
v -4.905396 -7.924869 -22.49012
v -5.668166 -5.888687 -23.69468
v -10.75013 -6.831716 -14.977
v -13.62936 -6.182205 -14.3961
v -13.37044 -5.729751 -21.54975
v -19.69246 -5.891659 -14.13389
v -19.31611 -6.096433 -7.596252
v -20.70784 -6.058858 -9.35096
v -13.66127 -6.254234 -6.406322
v -19.32233 -6.167367 -6.878718
v -17.57609 -6.18021 -0.2642165
v -11.29021 -6.942018 -8.896142
v -1.846154 -6.203628 1.985415
v -10.02046 -6.177294 10.49395
v -9.824121 -8.101682 -9.939479
v -9.227197 -8.89662 -14.47395
v -0.01275401 -7.581066 -3.803721
v 0.2162004 -9.291155 -10.20586
v -0.08389404 -9.57603 -14.72106
v 0.2941367 -6.405078 8.178901
v -8.099328 -5.961181 12.33229
v -3.849064 -5.705981 16.95221
v 3.167541 -6.071782 19.67452
v 15.07635 -6.066274 5.365763
v 9.887626 -6.572616 0.7846327
v 6.939065 -7.058322 -1.894948
v 5.144633 -7.991935 -4.526023
v 12.27695 -6.112575 -6.269248
v 7.338897 -9.300568 -8.594007
v 10.03626 -7.495919 -8.619682
v 14.50864 -5.983922 21.40999
v 5.67858 -5.858241 21.58747
v 17.13093 -5.991337 10.59154
v 16.90251 -5.968089 17.1233
v 18.75564 -5.934228 12.22948
v 21.07894 -6.027025 4.642833
v 19.90235 -6.123743 9.657037
v 20.16264 -6.031315 -2.820378
v 21.5252 -5.82457 -1.715449
v 20.13091 -6.00794 -11.63911
v 13.16695 -6.256982 -16.87331
v 11.2899 -7.440151 -17.44573
v 9.635104 -9.24368 -16.78116
v 6.887917 -9.090582 -17.52699
v 0.8000164 -8.776023 -22.15295
v 0.2554774 -7.638389 -23.31526
v 4.917621 -8.668694 -21.17312
v 6.167161 -7.45959 -22.32642
v 8.216187 -7.657011 -18.45707
v 18.31273 2.107398 8.994295
v 17.13093 -5.991337 10.59154
v 16.01595 2.363479 9.837075
v 17.34696 10.25902 8.032165
v 16.03744 11.53113 9.355237
v 18.50779 2.259727 5.977989
v 15.99472 14.53298 2.305921
v 19.90235 -6.123743 9.657037
v 21.07894 -6.027025 4.642833
v 21.5252 -5.82457 -1.715449
v 18.20152 4.226392 -1.84371
v 15.96846 14.43649 -1.924478
v 15.43103 18.68757 -1.457912
v 16.68662 14.52275 7.147643
v 15.2045 21.96121 3.576696
v 15.20278 21.67365 0.2585012
v 15.93929 20.28478 6.660643
v 15.21404 20.32469 8.175118
v 15.65169 14.24273 8.48491
v 14.18996 15.00637 11.48356
v 14.7345 19.13972 11.50347
v 14.79752 27.15545 11.16765
v 15.61347 26.16831 8.701647
v 13.02326 26.91533 13.92388
v 12.59099 19.47392 13.90597
v 12.50171 15.12577 13.71831
v 16.01595 2.363479 9.837075
v 17.13093 -5.991337 10.59154
v 18.75564 -5.934228 12.22948
v 17.25905 3.708737 11.08968
v 16.03744 11.53113 9.355237
v 16.89801 4.100522 -11.13454
v 20.13091 -6.00794 -11.63911
v 20.16264 -6.031315 -2.820378
v 16.94134 4.163568 -2.851129
v 14.64545 14.6019 -11.01101
v 14.78636 14.27816 -2.887106
v 14.29063 17.69171 -11.04614
v 14.25647 19.0392 -2.367283
v 14.10572 20.29882 -10.51918
v 14.01414 24.021 -7.951979
v 14.06507 21.9723 -0.330714
v 13.62901 30.08221 3.053663
v 13.687 29.24382 -6.557453
v 13.70513 32.47031 -5.920876
v 13.4937 35.03139 -3.722148
v 14.07235 22.2797 3.62484
v 13.38046 35.36282 4.932441
v 14.57183 26.84238 7.785816
v 14.5281 21.08893 6.512402
v 14.10576 30.50421 6.692476
v 14.02407 27.76692 10.82606
v 12.63631 31.46156 10.19336
v 9.215502 35.42752 9.381475
v 12.53543 27.32139 13.63182
v 8.632481 32.86953 14.0237
v 10.81161 31.1247 13.85696
v 14.06507 21.9723 -0.330714
v 15.43103 18.68757 -1.457912
v 15.20278 21.67365 0.2585012
v 14.25647 19.0392 -2.367283
v 14.78636 14.27816 -2.887106
v 15.96846 14.43649 -1.924478
v 16.94134 4.163568 -2.851129
v 18.20152 4.226392 -1.84371
v 20.16264 -6.031315 -2.820378
v 21.5252 -5.82457 -1.715449
v 14.07235 22.2797 3.62484
v 14.06507 21.9723 -0.330714
v 15.20278 21.67365 0.2585012
v 15.2045 21.96121 3.576696
v 14.5281 21.08893 6.512402
v 15.93929 20.28478 6.660643
v 15.21404 20.32469 8.175118
v 13.70513 32.47031 -5.920876
v 13.4937 35.03139 -3.722148
v 10.56023 34.82212 -8.801157
v 11.5152 32.75151 -8.652416
v 13.687 29.24382 -6.557453
v 8.403879 34.75196 -9.646505
v 11.89993 28.95825 -8.696912
v 14.01414 24.021 -7.951979
v 8.01892 30.72713 -10.05828
v 13.16307 24.22115 -9.195902
v 14.10572 20.29882 -10.51918
v 8.105064 25.00341 -11.78871
v 6.559137 29.7288 -9.904088
v 10.20776 20.39101 -12.09894
v 14.29063 17.69171 -11.04614
v 7.701658 14.83098 -14.11217
v 12.99779 14.36034 -12.35927
v 14.64545 14.6019 -11.01101
v 13.03694 4.192396 -14.55186
v 16.89801 4.100522 -11.13454
v 8.699869 4.613833 -16.33641
v 13.16695 -6.256982 -16.87331
v 20.13091 -6.00794 -11.63911
v 8.216187 -7.657011 -18.45707
v 11.2899 -7.440151 -17.44573
v 9.635104 -9.24368 -16.78116
v 6.887917 -9.090582 -17.52699
v 5.87404 5.070929 -20.46282
v 5.351654 17.55182 -19.30626
v 6.167161 -7.45959 -22.32642
v 0.3564062 17.51525 -20.61582
v 0.5602057 5.024359 -21.81359
v 2.451727 23.81458 -17.82547
v 4.736549 23.7688 -13.54747
v 0.2718061 24.05602 -18.73165
v -2.759368 23.6375 -18.9584
v -4.361784 17.48649 -20.93488
v -5.142647 5.851985 -22.17016
v 0.379134 -5.850687 -23.28994
v 0.2554774 -7.638389 -23.31526
v -4.905396 -7.924869 -22.49012
v -5.668166 -5.888687 -23.69468
v -7.237351 -5.645834 -22.69179
v 14.5281 21.08893 6.512402
v 15.21404 20.32469 8.175118
v 15.61347 26.16831 8.701647
v 14.57183 26.84238 7.785816
v 12.53543 27.32139 13.63182
v 14.79752 27.15545 11.16765
v 13.02326 26.91533 13.92388
v 14.02407 27.76692 10.82606
v 15.61347 26.16831 8.701647
v 14.57183 26.84238 7.785816
v 12.50171 15.12577 13.71831
v 14.18996 15.00637 11.48356
v 14.97118 14.18709 12.73153
v 12.64037 14.34895 15.4249
v 9.302971 14.16593 15.64041
v 8.960334 14.58824 14.24459
v 5.88494 11.53684 15.99579
v 4.909059 11.48889 14.67793
v 14.18996 15.00637 11.48356
v 16.19287 11.81407 9.996266
v 14.97118 14.18709 12.73153
v 16.90251 -5.968089 17.1233
v 12.64037 14.34895 15.4249
v 13.36418 4.87136 18.39916
v 14.50864 -5.983922 21.40999
v 17.25905 3.708737 11.08968
v 16.03744 11.53113 9.355237
v 18.75564 -5.934228 12.22948
v 2.351593 32.72218 13.96049
v -5.53608 28.432 13.85012
v -5.573768 33.0962 12.96879
v 8.632481 32.86953 14.0237
v -4.098142 23.76001 13.66442
v 8.45035 24.75463 13.89564
v 10.81161 31.1247 13.85696
v 12.53543 27.32139 13.63182
v 13.02326 26.91533 13.92388
v 12.59099 19.47392 13.90597
v 8.449334 16.78662 14.04026
v 12.50171 15.12577 13.71831
v 8.960334 14.58824 14.24459
v -4.389587 14.41399 13.95817
v 4.909059 11.48889 14.67793
v -6.0864 3.785989 15.1045
v 3.529243 3.114646 16.61828
v -6.891447 14.64979 11.3916
v -5.870464 22.65218 10.50607
v -12.6338 23.92584 6.980597
v -6.995951 28.28057 10.75121
v -12.07862 28.75337 8.126495
v -7.023533 31.87545 10.55609
v -11.8002 32.50026 7.88133
v -11.39075 34.71136 7.416971
v -6.786724 35.36679 10.10471
v -13.66268 14.35668 6.006133
v -9.376009 4.104708 11.4133
v -14.41949 3.860901 6.037516
v -10.02046 -6.177294 10.49395
v -8.099328 -5.961181 12.33229
v -3.849064 -5.705981 16.95221
v 3.167541 -6.071782 19.67452
v 5.417631 3.048677 19.09212
v 5.67858 -5.858241 21.58747
v 14.50864 -5.983922 21.40999
v 5.88494 11.53684 15.99579
v 13.36418 4.87136 18.39916
v 9.302971 14.16593 15.64041
v 12.64037 14.34895 15.4249
v -14.11137 20.26429 -6.925955
v -14.07813 15.76877 -4.90685
v -16.68446 16.47591 -8.190146
v -15.24749 11.72414 -5.773927
v -17.4985 11.75991 -8.676766
v -16.36238 4.16794 -7.627223
v -19.51814 4.700713 -9.873332
v -20.90277 -2.999304 -10.06217
v -19.31611 -6.096433 -7.596252
v -20.70784 -6.058858 -9.35096
v -11.33112 34.03861 -4.162742
v -14.66932 32.34687 -5.019818
v -14.03634 32.84808 -7.44714
v -15.04788 32.80082 -2.04142
v -12.72396 34.54154 3.604748
v -7.974523 34.73403 -3.694268
v -14.3675 34.50822 -7.497529
v -3.68485 34.85352 2.556932
v -11.39075 34.71136 7.416971
v -6.786724 35.36679 10.10471
v 9.215502 35.42752 9.381475
v -5.932117 35.09309 11.59362
v 2.118269 34.73531 10.70306
v 8.632481 32.86953 14.0237
v 2.351593 32.72218 13.96049
v -5.573768 33.0962 12.96879
v 13.38046 35.36282 4.932441
v 13.4937 35.03139 -3.722148
v 10.56023 34.82212 -8.801157
v -9.207559 35.34405 -11.49795
v -15.41506 34.90403 -10.23782
v -10.70732 36.00789 -16.42197
v -4.880241 35.64405 -17.08991
v -3.193843 35.65782 -14.10638
v -2.274451 34.63362 -9.812749
v 5.935294 34.86389 -8.625013
v 8.403879 34.75196 -9.646505
v 4.118884 34.85077 -11.1862
v -3.025172 34.29224 -13.98684
v -0.3818702 24.66526 -13.76385
v 2.451727 23.81458 -17.82547
v 4.736549 23.7688 -13.54747
v 0.2718061 24.05602 -18.73165
v -2.759368 23.6375 -18.9584
v -4.117648 24.14306 -16.99915
v -6.786724 35.36679 10.10471
v -5.932117 35.09309 11.59362
v -7.023533 31.87545 10.55609
v -5.573768 33.0962 12.96879
v -6.995951 28.28057 10.75121
v -5.53608 28.432 13.85012
v -4.098142 23.76001 13.66442
v -5.870464 22.65218 10.50607
v -4.389587 14.41399 13.95817
v -17.68461 5.239344 6.482076
v -15.50089 13.02037 9.451536
v -15.74653 6.671433 9.829089
v -17.67741 13.90784 2.918521
v -13.81745 19.4149 8.055812
v -16.22655 18.84286 1.468117
v -16.57452 16.73432 -4.206676
v -18.22195 13.464 -5.78946
v -18.70603 5.121233 -2.825042
v -17.37728 4.14356 -7.036298
v -18.37381 5.682464 3.706321
v -20.03064 -2.111086 -2.599475
v -19.05604 -3.749237 -7.272229
v -18.94893 2.192845 6.048172
v -17.98523 5.076979 7.215255
v -16.10624 0.7409722 10.1815
v -16.22399 6.224425 10.43674
v -19.3451 -0.07197881 1.798505
v -20.13007 -4.758042 6.826747
v -20.93732 -6.115654 1.595528
v -21.53133 -6.120822 -3.222782
v -19.7083 -5.789493 -7.222229
v -18.22195 13.464 -5.78946
v -13.7182 18.14956 -4.567969
v -16.57452 16.73432 -4.206676
v -6.945862 9.945086 -11.67507
v -4.295454 16.48732 -9.258034
v 3.363926 11.47078 -1.226369
v -0.4374318 18.80053 -6.077785
v 3.966145 18.74257 -2.59156
v 5.309729 14.75976 0.8670586
v 5.41666 11.60332 2.370352
v -17.37728 4.14356 -7.036298
v 4.175107 4.150106 2.831655
v -9.152703 2.327063 -12.75925
v 2.172551 3.613827 -1.418103
v 5.214449 -1.309879 1.741826
v -11.22137 -5.916023 -12.68582
v -19.05604 -3.749237 -7.272229
v -19.7083 -5.789493 -7.222229
v -10.85799 -6.001881 -12.74184
v 2.071402 -5.692069 -0.922263
v 4.927197 -5.578 2.600157
v -16.10624 0.7409722 10.1815
v -20.13007 -4.758042 6.826747
v -18.94893 2.192845 6.048172
v -17.02824 -4.611118 10.74907
v -12.84426 -4.622702 11.80198
v -10.43097 1.868841 12.37957
v -16.22399 6.224425 10.43674
v -9.835374 6.0838 12.31825
v -3.119482 4.768802 10.05023
v -2.90103 -2.385874 9.708305
v -10.10431 -6.040097 10.315
v -2.980732 -5.956997 8.483877
v 1.071469 -6.076362 7.939805
v -13.81745 19.4149 8.055812
v -7.184083 19.57414 10.97604
v -9.276845 11.34273 11.75621
v -15.50089 13.02037 9.451536
v -15.74653 6.671433 9.829089
v -9.80254 6.431264 11.97823
v -9.835374 6.0838 12.31825
v -2.90103 -2.385874 9.708305
v -3.119482 4.768802 10.05023
v -3.351172 5.387156 9.365679
v 1.581321 5.520142 6.636015
v 1.308323 -2.113631 7.448242
v 1.071469 -6.076362 7.939805
v 3.499984 -5.817154 4.329315
v 5.214449 -1.309879 1.741826
v 4.927197 -5.578 2.600157
v 4.175107 4.150106 2.831655
v 5.41666 11.60332 2.370352
v 3.180868 13.25207 5.434503
v 5.309729 14.75976 0.8670586
v 3.868482 16.13722 4.768888
v 2.138879 20.33832 3.022591
v 3.966145 18.74257 -2.59156
v 1.74602 20.08759 5.642972
v -1.20126 16.02471 8.463026
v -1.643767 20.89916 8.560481
v -7.184083 19.57414 10.97604
v -9.276845 11.34273 11.75621
v -9.80254 6.431264 11.97823
v -9.835374 6.0838 12.31825
v -15.74653 6.671433 9.829089
v -17.98523 5.076979 7.215255
v -17.68461 5.239344 6.482076
v -16.22399 6.224425 10.43674
v -9.835374 6.0838 12.31825
v -13.7182 18.14956 -4.567969
v -16.22655 18.84286 1.468117
v -16.57452 16.73432 -4.206676
v -10.83659 19.88089 -2.008673
v -13.81745 19.4149 8.055812
v -4.295454 16.48732 -9.258034
v -5.457702 21.03599 5.480552
v -7.184083 19.57414 10.97604
v -1.643767 20.89916 8.560481
v -4.046817 20.41098 -2.683112
v -0.4374318 18.80053 -6.077785
v 3.966145 18.74257 -2.59156
v 0.4779004 20.83423 2.752152
v 1.74602 20.08759 5.642972
v 2.138879 20.33832 3.022591
v 3.499984 -5.817154 4.329315
v -2.980732 -5.956997 8.483877
v 1.071469 -6.076362 7.939805
v 2.071402 -5.692069 -0.922263
v 4.927197 -5.578 2.600157
v -10.85799 -6.001881 -12.74184
v -11.76052 -6.063055 -1.589328
v -11.22137 -5.916023 -12.68582
v -19.7083 -5.789493 -7.222229
v -21.53133 -6.120822 -3.222782
v -20.93732 -6.115654 1.595528
v -14.12491 -6.226177 7.173988
v -10.10431 -6.040097 10.315
v -20.13007 -4.758042 6.826747
v -12.84426 -4.622702 11.80198
v -17.02824 -4.611118 10.74907
vn 0.04741738 0.9987648 0.01484988
vn 0.6518893 0.7372535 -0.1774759
vn 0.8051081 0.2481294 -0.5387326
vn 0.4776428 0.4581983 -0.7496077
vn 0.6662536 0.2580887 -0.6996402
vn 0.6558391 0.2132361 -0.7241585
vn -0.493747 -0.8421934 -0.2166203
vn -0.4024974 -0.8912153 0.20912
vn -0.481974 -0.8681279 -0.1185537
vn 0.8731872 0.2999462 0.3841568
vn 0.9469847 0.2494024 0.2025301
vn 0.9218915 0.3656233 -0.1282023
vn 0.0547335 0.6831684 0.7282069
vn -0.4776545 0.3476866 0.8068211
vn -0.4045697 0.6881613 0.6022934
vn -0.9259368 0.1811134 0.3314198
vn -0.6801187 0.557602 0.4759397
vn -0.3390241 0.9339468 0.1131644
vn 0.009802195 -0.366018 -0.9305561
vn 0.02703888 -0.8904048 -0.4543658
vn 0.2324701 -0.8908913 -0.3902185
vn 0.7806353 0.17897 0.598814
vn 0.6301257 -0.5587929 0.5391588
vn 0.3482615 -0.9341143 0.07838584
vn -0.4911466 0.2549829 0.8329218
vn -0.3429857 0.3186156 0.8836543
vn -0.4810279 0.4863689 0.7294227
vn 0.5656509 0.2282723 0.7924209
vn 0.8248677 0.2899916 0.4852814
vn 0.05755424 0.3788503 0.9236666
vn 0.8051081 0.2481294 -0.5387326
vn 0.6518893 0.7372535 -0.1774759
vn 0.3390296 0.6181061 -0.7092276
vn 0.3657606 0.06740742 -0.9282647
vn 0.5740327 0.1591672 -0.8032137
vn 0.3707405 0.7025904 -0.6073865
vn 0.630595 0.2969716 -0.717048
vn 0.129614 0.9204612 -0.368716
vn 0.319916 0.6071067 -0.7273756
vn 0.4776428 0.4581983 -0.7496077
vn -0.1069398 0.4116939 -0.905026
vn -0.4688097 -0.05361937 -0.8816703
vn -0.4527601 -0.04652648 -0.8904177
vn -0.3462322 0.7427308 -0.5731267
vn -0.6162251 0.07190222 -0.784281
vn -0.629439 0.184732 -0.7547719
vn -0.6668099 0.2035657 -0.716886
vn -0.6203148 0.2816975 -0.7320219
vn -0.5566613 0.2143724 -0.8026037
vn -0.6368417 0.08799712 -0.7659564
vn -0.298097 -0.5843024 -0.7548038
vn -0.5105744 -0.3645771 -0.7787152
vn -0.7544942 0.1805994 0.6309695
vn -0.6474813 0.7472219 0.1497582
vn -0.5582114 0.7182403 0.4153684
vn -0.9783132 0.00839276 0.2069611
vn -0.7500308 0.008619358 0.6613468
vn -0.8713089 0.4906316 0.01007295
vn -0.8082086 -0.0002426604 0.5888963
vn -0.9747265 0.04815115 0.2181507
vn -0.813189 0.5667024 -0.1325596
vn -0.9259368 0.1811134 0.3314198
vn -0.9955502 -0.02821592 0.08990986
vn -0.8824435 0.07687681 0.4640942
vn -0.9976646 0.02790497 -0.06234283
vn -0.9418885 0.08158564 0.325868
vn -0.9478063 0.119501 0.2956057
vn -0.9752387 0.1518762 0.1607583
vn -0.9160742 0.1231303 0.3816372
vn -0.8618224 0.03410814 0.506062
vn -0.872821 0.152751 0.4635198
vn -0.7111726 -0.6454113 0.2787075
vn -0.5195862 -0.7023123 0.4866082
vn -0.7983245 -0.6012504 0.03429471
vn -0.6715354 -0.7055578 0.226337
vn -0.9798772 0.03393197 -0.1966958
vn -0.6801187 0.557602 0.4759397
vn -0.7660078 0.6427057 0.01270872
vn -0.3462322 0.7427308 -0.5731267
vn -0.4527601 -0.04652648 -0.8904177
vn -0.4688097 -0.05361937 -0.8816703
vn -0.6162251 0.07190222 -0.784281
vn -0.9869424 0.1572688 0.03480154
vn -0.965516 0.2285062 0.1247548
vn -0.6668099 0.2035657 -0.716886
vn -0.9762183 0.173701 0.129714
vn -0.9544955 0.2139551 0.2077531
vn -0.6203148 0.2816975 -0.7320219
vn -0.8850842 -0.1053762 -0.4533452
vn -0.9716375 0.1280237 0.1988227
vn -0.6368417 0.08799712 -0.7659564
vn -0.7458748 -0.6287345 0.2199178
vn -0.298097 -0.5843024 -0.7548038
vn -0.60022 -0.7503607 -0.276938
vn -0.1069398 0.4116939 -0.905026
vn -0.4828494 0.2394159 -0.8423398
vn -0.2723837 0.6727371 -0.6879185
vn -0.629439 0.184732 -0.7547719
vn -0.4052736 0.1547664 -0.9009998
vn -0.5566613 0.2143724 -0.8026037
vn -0.5105744 -0.3645771 -0.7787152
vn -0.5105744 -0.3645771 -0.7787152
vn -0.2568612 -0.7799179 -0.5707455
vn -0.270312 -0.2288007 -0.9351907
vn -0.493747 -0.8421934 -0.2166203
vn -0.1225285 -0.9900869 -0.06866447
vn -0.298097 -0.5843024 -0.7548038
vn -0.60022 -0.7503607 -0.276938
vn -0.6715354 -0.7055578 0.226337
vn -0.7458748 -0.6287345 0.2199178
vn -0.07393349 -0.9966441 0.03513292
vn -0.7983245 -0.6012504 0.03429471
vn -0.7111726 -0.6454113 0.2787075
vn -0.3009585 -0.9460195 0.1202965
vn -0.03837494 -0.9966338 0.07244591
vn -0.5195862 -0.7023123 0.4866082
vn -0.4024974 -0.8912153 0.20912
vn -0.481974 -0.8681279 -0.1185537
vn -0.06856156 -0.9669941 0.2454012
vn -0.06237007 -0.9849102 0.1614372
vn -0.03374024 -0.9987625 -0.03654031
vn -0.01314801 -0.9997512 0.01801829
vn -0.4839551 -0.6937277 0.533413
vn -0.392411 -0.5744537 0.718343
vn -0.3902228 -0.6475068 0.6545694
vn 0.02572519 -0.9995769 0.01357559
vn 0.07426183 -0.9966421 0.03449252
vn 0.0993787 -0.9802349 0.1710654
vn 0.07748865 -0.9529276 0.2931286
vn 0.1837817 -0.9812812 0.05754653
vn 0.2736562 -0.9273126 0.2553498
vn 0.4766859 -0.8611597 0.176563
vn 0.4376132 -0.4988909 0.7480659
vn -0.2446917 -0.4859864 0.8390133
vn 0.3482615 -0.9341143 0.07838584
vn 0.7153363 -0.6089979 0.3426596
vn 0.8315098 -0.5389665 -0.1345603
vn 0.8039182 -0.582928 0.1179428
vn 0.6301257 -0.5587929 0.5391588
vn 0.6069319 -0.7342324 -0.3041982
vn 0.842017 -0.4298863 -0.3258913
vn 0.7879523 -0.4946402 -0.3666909
vn 0.5509913 -0.4334413 -0.7131179
vn 0.5660836 -0.5418736 -0.6212265
vn 0.3929531 -0.8700677 -0.2976074
vn 0.1693294 -0.9490712 -0.2656904
vn 0.02703888 -0.8904048 -0.4543658
vn 0.009802195 -0.366018 -0.9305561
vn 0.2324701 -0.8908913 -0.3902185
vn 0.5554985 -0.3499335 -0.7542996
vn 0.5538968 -0.3752038 -0.7432499
vn 0.7806353 0.17897 0.598814
vn 0.3482615 -0.9341143 0.07838584
vn 0.9745108 0.1237603 0.1871149
vn 0.9332277 0.1450731 0.3286944
vn 0.9469847 0.2494024 0.2025301
vn 0.9750617 0.214607 0.05655412
vn 0.986337 0.1518036 -0.06399244
vn 0.6301257 -0.5587929 0.5391588
vn 0.8039182 -0.582928 0.1179428
vn 0.842017 -0.4298863 -0.3258913
vn 0.8755362 0.2297754 -0.4250172
vn 0.8745223 0.1748997 -0.4523503
vn 0.8624673 0.2403934 -0.4453775
vn 0.9590483 0.1599431 0.2337613
vn 0.7070497 0.7051526 0.05329743
vn 0.7490561 0.5985828 -0.2839254
vn 0.8650438 0.4680626 0.1806009
vn 0.9734935 0.1692977 0.1537816
vn 0.8444151 0.1701415 0.5079517
vn 0.8731872 0.2999462 0.3841568
vn 0.8927909 -0.02839399 0.4495755
vn 0.8256736 0.4777075 0.3000978
vn 0.940441 0.2982887 -0.1630785
vn 0.4152276 0.3913164 0.8212536
vn 0.4186282 -0.03563868 0.9074582
vn 0.4242813 0.5625048 0.7096293
vn 0.9745108 0.1237603 0.1871149
vn 0.3482615 -0.9341143 0.07838584
vn 0.8315098 -0.5389665 -0.1345603
vn 0.9733624 0.09189641 -0.2100494
vn 0.9469847 0.2494024 0.2025301
vn 0.8787247 0.2367319 -0.4144889
vn 0.7879523 -0.4946402 -0.3666909
vn 0.6069319 -0.7342324 -0.3041982
vn 0.8747715 0.2278928 -0.4275977
vn 0.8882421 0.1511401 -0.4338001
vn 0.8933125 0.1685436 -0.4166363
vn 0.8143745 0.168191 -0.5554332
vn 0.9223474 0.2002505 -0.3304165
vn 0.7985651 0.2242318 -0.5585821
vn 0.953383 0.1683322 -0.2504497
vn 0.9106315 0.3564319 -0.2090615
vn 0.9964465 0.05888713 -0.06022228
vn 0.9375657 0.09728193 -0.3339264
vn 0.9275187 0.1883232 -0.3228675
vn 0.6820779 0.7228228 -0.1108915
vn 0.8381332 0.5454649 0.0009057602
vn 0.6663864 0.7371798 0.1117816
vn 0.9454845 0.2529157 -0.2051649
vn 0.8577251 0.5136259 -0.02227667
vn 0.9804305 0.1853735 0.06627743
vn 0.7699454 0.5839881 0.2571807
vn 0.7799797 0.4736469 0.4090114
vn 0.2532324 0.9152694 0.3132976
vn 0.3316339 0.4657808 0.8204067
vn 0.2278975 0.5298544 0.8168948
vn 0.4953511 0.3595223 0.790804
vn 0.9106315 0.3564319 -0.2090615
vn 0.8624673 0.2403934 -0.4453775
vn 0.7490561 0.5985828 -0.2839254
vn 0.9223474 0.2002505 -0.3304165
vn 0.8933125 0.1685436 -0.4166363
vn 0.8745223 0.1748997 -0.4523503
vn 0.8747715 0.2278928 -0.4275977
vn 0.8755362 0.2297754 -0.4250172
vn 0.6069319 -0.7342324 -0.3041982
vn 0.842017 -0.4298863 -0.3258913
vn 0.8381332 0.5454649 0.0009057602
vn 0.9106315 0.3564319 -0.2090615
vn 0.7490561 0.5985828 -0.2839254
vn 0.7070497 0.7051526 0.05329743
vn 0.8577251 0.5136259 -0.02227667
vn 0.8650438 0.4680626 0.1806009
vn 0.9734935 0.1692977 0.1537816
vn 0.9275187 0.1883232 -0.3228675
vn 0.6820779 0.7228228 -0.1108915
vn 0.3844514 0.71355 -0.5856991
vn 0.6013417 0.1567362 -0.7834679
vn 0.9375657 0.09728193 -0.3339264
vn 0.006442004 0.6350474 -0.7724463
vn 0.5972302 0.1726388 -0.7832701
vn 0.953383 0.1683322 -0.2504497
vn 0.04260764 0.1904908 -0.9807639
vn 0.655032 0.3056532 -0.6910204
vn 0.7985651 0.2242318 -0.5585821
vn 0.3961034 0.2759564 -0.8757569
vn 0.3975169 0.3563491 -0.8455741
vn 0.3780034 0.2345645 -0.8955964
vn 0.8143745 0.168191 -0.5554332
vn 0.6558391 0.2132361 -0.7241585
vn 0.4691585 0.1780151 -0.8649861
vn 0.8882421 0.1511401 -0.4338001
vn 0.519335 0.1725836 -0.8369624
vn 0.8787247 0.2367319 -0.4144889
vn 0.6225473 0.161541 -0.7657281
vn 0.5509913 -0.4334413 -0.7131179
vn 0.7879523 -0.4946402 -0.3666909
vn 0.5538968 -0.3752038 -0.7432499
vn 0.5660836 -0.5418736 -0.6212265
vn 0.3929531 -0.8700677 -0.2976074
vn 0.1693294 -0.9490712 -0.2656904
vn 0.5947618 0.1279198 -0.7936593
vn 0.6662536 0.2580887 -0.6996402
vn 0.5554985 -0.3499335 -0.7542996
vn 0.1615676 0.199345 -0.9665182
vn 0.159007 0.1192784 -0.9800456
vn 0.4494044 0.7262896 -0.5201336
vn 0.4776428 0.4581983 -0.7496077
vn 0.1404216 0.7512183 -0.6449441
vn -0.2723837 0.6727371 -0.6879185
vn -0.4828494 0.2394159 -0.8423398
vn -0.4052736 0.1547664 -0.9009998
vn 0.08688445 0.04206813 -0.9953298
vn 0.009802195 -0.366018 -0.9305561
vn -0.2568612 -0.7799179 -0.5707455
vn -0.270312 -0.2288007 -0.9351907
vn -0.5105744 -0.3645771 -0.7787152
vn 0.8577251 0.5136259 -0.02227667
vn 0.9734935 0.1692977 0.1537816
vn 0.940441 0.2982887 -0.1630785
vn 0.9454845 0.2529157 -0.2051649
vn 0.3316339 0.4657808 0.8204067
vn 0.8256736 0.4777075 0.3000978
vn 0.4152276 0.3913164 0.8212536
vn 0.7699454 0.5839881 0.2571807
vn 0.940441 0.2982887 -0.1630785
vn 0.9454845 0.2529157 -0.2051649
vn 0.4242813 0.5625048 0.7096293
vn 0.8731872 0.2999462 0.3841568
vn 0.7839484 0.5405038 0.3054188
vn 0.3523168 0.6105371 0.7093077
vn -0.2084248 0.6837315 0.6993356
vn -0.1254688 0.5372697 0.8340257
vn -0.4810279 0.4863689 0.7294227
vn -0.3429857 0.3186156 0.8836543
vn 0.8731872 0.2999462 0.3841568
vn 0.9218915 0.3656233 -0.1282023
vn 0.7839484 0.5405038 0.3054188
vn 0.7153363 -0.6089979 0.3426596
vn 0.3523168 0.6105371 0.7093077
vn 0.4794323 0.2927464 0.8273115
vn 0.4376132 -0.4988909 0.7480659
vn 0.9733624 0.09189641 -0.2100494
vn 0.9469847 0.2494024 0.2025301
vn 0.8315098 -0.5389665 -0.1345603
vn -0.03034816 0.4817552 0.8757802
vn -0.5646026 -0.04311157 0.8242362
vn -0.4776545 0.3476866 0.8068211
vn 0.2278975 0.5298544 0.8168948
vn -0.4689466 -0.06121723 0.8811024
vn -0.0008482258 0.006979975 0.9999753
vn 0.4953511 0.3595223 0.790804
vn 0.3316339 0.4657808 0.8204067
vn 0.4152276 0.3913164 0.8212536
vn 0.4186282 -0.03563868 0.9074582
vn 0.02740954 0.05224083 0.9982583
vn 0.4242813 0.5625048 0.7096293
vn -0.1254688 0.5372697 0.8340257
vn -0.3984947 0.1315672 0.907685
vn -0.3429857 0.3186156 0.8836543
vn -0.4906773 0.1134333 0.8639264
vn -0.4911466 0.2549829 0.8329218
vn -0.6465262 0.1393525 0.7500566
vn -0.6832188 -0.005726322 0.7301913
vn -0.8082086 -0.0002426604 0.5888963
vn -0.7002156 -0.08000151 0.709435
vn -0.7500308 0.008619358 0.6613468
vn -0.6985605 0.09486283 0.709235
vn -0.7544942 0.1805994 0.6309695
vn -0.5582114 0.7182403 0.4153684
vn -0.4125095 0.824223 0.3879336
vn -0.8824435 0.07687681 0.4640942
vn -0.7216539 0.05567206 0.6900118
vn -0.8618224 0.03410814 0.506062
vn -0.5195862 -0.7023123 0.4866082
vn -0.4839551 -0.6937277 0.533413
vn -0.392411 -0.5744537 0.718343
vn -0.3902228 -0.6475068 0.6545694
vn -0.4118954 0.2962514 0.8617292
vn -0.2446917 -0.4859864 0.8390133
vn 0.4376132 -0.4988909 0.7480659
vn -0.4810279 0.4863689 0.7294227
vn 0.4794323 0.2927464 0.8273115
vn -0.2084248 0.6837315 0.6993356
vn 0.3523168 0.6105371 0.7093077
vn -0.9418885 0.08158564 0.325868
vn -0.9478063 0.119501 0.2956057
vn -0.965516 0.2285062 0.1247548
vn -0.9160742 0.1231303 0.3816372
vn -0.9762183 0.173701 0.129714
vn -0.872821 0.152751 0.4635198
vn -0.9544955 0.2139551 0.2077531
vn -0.9716375 0.1280237 0.1988227
vn -0.6715354 -0.7055578 0.226337
vn -0.7458748 -0.6287345 0.2199178
vn -0.3390241 0.9339468 0.1131644
vn -0.813189 0.5667024 -0.1325596
vn -0.9259368 0.1811134 0.3314198
vn -0.8713089 0.4906316 0.01007295
vn -0.6474813 0.7472219 0.1497582
vn -0.05750053 0.9980605 0.02385001
vn -0.6801187 0.557602 0.4759397
vn -0.02521967 0.9989616 -0.03794352
vn -0.5582114 0.7182403 0.4153684
vn -0.4125095 0.824223 0.3879336
vn 0.2532324 0.9152694 0.3132976
vn -0.4045697 0.6881613 0.6022934
vn 0.0547335 0.6831684 0.7282069
vn 0.2278975 0.5298544 0.8168948
vn -0.03034816 0.4817552 0.8757802
vn -0.4776545 0.3476866 0.8068211
vn 0.6663864 0.7371798 0.1117816
vn 0.6820779 0.7228228 -0.1108915
vn 0.3844514 0.71355 -0.5856991
vn 0.001236684 0.9933135 0.1154421
vn -0.7660078 0.6427057 0.01270872
vn -0.3462322 0.7427308 -0.5731267
vn 0.3390296 0.6181061 -0.7092276
vn 0.6518893 0.7372535 -0.1774759
vn 0.04741738 0.9987648 0.01484988
vn 0.129614 0.9204612 -0.368716
vn 0.006442004 0.6350474 -0.7724463
vn 0.3707405 0.7025904 -0.6073865
vn 0.8051081 0.2481294 -0.5387326
vn 0.319916 0.6071067 -0.7273756
vn 0.4494044 0.7262896 -0.5201336
vn 0.4776428 0.4581983 -0.7496077
vn 0.1404216 0.7512183 -0.6449441
vn -0.2723837 0.6727371 -0.6879185
vn -0.1069398 0.4116939 -0.905026
vn -0.4125095 0.824223 0.3879336
vn -0.4045697 0.6881613 0.6022934
vn -0.6985605 0.09486283 0.709235
vn -0.4776545 0.3476866 0.8068211
vn -0.7002156 -0.08000151 0.709435
vn -0.5646026 -0.04311157 0.8242362
vn -0.4689466 -0.06121723 0.8811024
vn -0.6832188 -0.005726322 0.7301913
vn -0.3984947 0.1315672 0.907685
vn -0.9189904 0.3646484 0.1499608
vn -0.672214 0.2110873 0.709627
vn -0.6015235 0.5320269 0.5959169
vn -0.9579883 0.2252495 0.1775419
vn -0.5268952 0.6979343 0.4850455
vn -0.6935277 0.7203675 0.009488018
vn -0.673298 0.6258618 -0.3936584
vn -0.8008835 0.3119605 -0.5111423
vn -0.9887761 0.09407511 -0.1160676
vn -0.7562897 0.1239029 -0.6423971
vn -0.9794759 0.15294 0.1312875
vn -0.9586235 0.2632137 -0.1084417
vn -0.7563058 0.2201895 -0.6160503
vn -0.9401516 0.1841667 0.2867011
vn -0.8747362 0.4603738 0.1513025
vn -0.5955147 0.07467552 0.7998661
vn -0.6011659 0.4734348 0.6437849
vn -0.9801553 0.1944938 0.03831189
vn -0.8226782 -0.408101 0.3957955
vn -0.7838582 -0.6107614 0.1119677
vn -0.8388726 -0.5257266 -0.1410827
vn -0.650965 -0.5347704 -0.5387627
vn -0.8008835 0.3119605 -0.5111423
vn -0.3135903 0.764147 -0.5636848
vn -0.673298 0.6258618 -0.3936584
vn 0.171376 0.1540552 -0.9730865
vn 0.2263961 0.4574868 -0.8599132
vn 0.7885695 -0.1441525 -0.5978112
vn 0.4292593 0.5652323 -0.7044494
vn 0.7513034 0.4819424 -0.4508599
vn 0.9931049 0.08392357 -0.08185042
vn 0.9935156 -0.05071012 0.1017613
vn -0.7562897 0.1239029 -0.6423971
vn 0.9923519 0.007118473 0.1232353
vn 0.09478886 0.05636261 -0.9939005
vn 0.7916557 -0.01883116 -0.6106772
vn 0.9938965 0.01302216 -0.1095452
vn -0.3852307 -0.5664139 -0.7285415
vn -0.7563058 0.2201895 -0.6160503
vn -0.650965 -0.5347704 -0.5387627
vn 0.12701 -0.6694739 -0.7318969
vn 0.5050555 -0.7036747 -0.4997607
vn 0.825643 -0.5612066 0.05797282
vn -0.5955147 0.07467552 0.7998661
vn -0.8226782 -0.408101 0.3957955
vn -0.9401516 0.1841667 0.2867011
vn -0.4945364 -0.445729 0.7461631
vn -0.1148357 -0.482085 0.868566
vn -0.004253276 -0.03947261 0.9992116
vn -0.6011659 0.4734348 0.6437849
vn 0.05755424 0.3788503 0.9236666
vn 0.8248677 0.2899916 0.4852814
vn 0.3461439 -0.1166552 0.9309006
vn 0.0850073 -0.8287714 0.553093
vn 0.1155602 -0.8260059 0.5516884
vn 0.4456801 -0.6778726 0.5846863
vn -0.5268952 0.6979343 0.4850455
vn -0.009230579 0.5659378 0.8243963
vn 0.006451491 0.08156592 0.9966471
vn -0.672214 0.2110873 0.709627
vn -0.6015235 0.5320269 0.5959169
vn 0.05712498 0.4147121 0.9081578
vn 0.05755424 0.3788503 0.9236666
vn 0.3461439 -0.1166552 0.9309006
vn 0.8248677 0.2899916 0.4852814
vn 0.5656509 0.2282723 0.7924209
vn 0.657411 0.01082919 0.7534544
vn 0.6683402 0.05310695 0.7419575
vn 0.4456801 -0.6778726 0.5846863
vn 0.5901632 -0.7119766 0.3805218
vn 0.9938965 0.01302216 -0.1095452
vn 0.825643 -0.5612066 0.05797282
vn 0.9923519 0.007118473 0.1232353
vn 0.9935156 -0.05071012 0.1017613
vn 0.7199939 -0.0009026169 0.6939798
vn 0.9931049 0.08392357 -0.08185042
vn 0.8439263 0.1727642 0.5078789
vn 0.6088949 0.7903166 0.06816589
vn 0.7513034 0.4819424 -0.4508599
vn 0.657699 0.6067097 0.4464698
vn 0.5021154 0.01984951 0.8645728
vn 0.3574346 0.6947056 0.6241992
vn -0.009230579 0.5659378 0.8243963
vn 0.006451491 0.08156592 0.9966471
vn 0.05712498 0.4147121 0.9081578
vn 0.05755424 0.3788503 0.9236666
vn -0.6015235 0.5320269 0.5959169
vn -0.8747362 0.4603738 0.1513025
vn -0.9189904 0.3646484 0.1499608
vn -0.6011659 0.4734348 0.6437849
vn 0.05755424 0.3788503 0.9236666
vn -0.3135903 0.764147 -0.5636848
vn -0.6935277 0.7203675 0.009488018
vn -0.673298 0.6258618 -0.3936584
vn -0.1742789 0.9510072 -0.2553668
vn -0.5268952 0.6979343 0.4850455
vn 0.2263961 0.4574868 -0.8599132
vn -0.08892455 0.9948097 0.04945709
vn -0.009230579 0.5659378 0.8243963
vn 0.3574346 0.6947056 0.6241992
vn -0.007554049 0.9551165 -0.2961341
vn 0.4292593 0.5652323 -0.7044494
vn 0.7513034 0.4819424 -0.4508599
vn 0.1834872 0.9810755 -0.06183307
vn 0.657699 0.6067097 0.4464698
vn 0.6088949 0.7903166 0.06816589
vn 0.5901632 -0.7119766 0.3805218
vn 0.1155602 -0.8260059 0.5516884
vn 0.4456801 -0.6778726 0.5846863
vn 0.5050555 -0.7036747 -0.4997607
vn 0.825643 -0.5612066 0.05797282
vn 0.12701 -0.6694739 -0.7318969
vn 0.006823855 -0.9998783 -0.01402979
vn -0.3852307 -0.5664139 -0.7285415
vn -0.650965 -0.5347704 -0.5387627
vn -0.8388726 -0.5257266 -0.1410827
vn -0.7838582 -0.6107614 0.1119677
vn -0.09643313 -0.9833844 0.153804
vn 0.0850073 -0.8287714 0.553093
vn -0.8226782 -0.408101 0.3957955
vn -0.1148357 -0.482085 0.868566
vn -0.4945364 -0.445729 0.7461631
vt 0.6479675 0.5442927
vt 0.6479675 0.5340388
vt 0.6442595 0.5360598
vt 0.5468891 0.9511694
vt 0.5361501 0.9712674
vt 0.5468891 0.9784274
vt 0.5036176 0.3208592
vt 0.5036176 0.3360175
vt 0.5084652 0.3236698
vt 0.7141799 0.1865508
vt 0.7141799 0.1982521
vt 0.715351 0.19753
vt 0.0952417 0.8384088
vt 0.08980707 0.8578585
vt 0.0952417 0.859661
vt 0.7862058 0.6166155
vt 0.781648 0.6147343
vt 0.781648 0.6264759
vt 0.5428495 0.3208593
vt 0.5404349 0.3236421
vt 0.5428495 0.335735
vt 0.08709058 0.9504247
vt 0.08709057 0.9748343
vt 0.09378851 0.973564
vt 0.8392994 0.1924189
vt 0.8432824 0.1673906
vt 0.8392994 0.1671199
vt 0.05331775 0.5788999
vt 0.05117022 0.5791358
vt 0.05331775 0.5996134
vt 0.3588591 0.005773825
vt 0.3580883 0.001653201
vt 0.3513859 0.002584409
vt 0.3543922 0.0240148
vt 0.3634064 0.01988532
vt 0.3809275 0.004639343
vt 0.3873147 0.01954692
vt 0.3877767 0.003759408
vt 0.3680803 0.03609593
vt 0.3828731 0.03826175
vt 0.3554692 0.03928168
vt 0.3372224 0.02282805
vt 0.3349757 0.008798683
vt 0.3352426 0.002024501
vt 0.3336807 0.03991311
vt 0.3505932 0.06400819
vt 0.3331929 0.06649283
vt 0.3286697 0.08995654
vt 0.3491794 0.09820527
vt 0.3242504 0.1186223
vt 0.3311433 0.1278495
vt 0.3477673 0.1277364
vt 0.3823055 0.216797
vt 0.3952316 0.2121839
vt 0.3840954 0.2104325
vt 0.4020098 0.2297321
vt 0.3806371 0.2274718
vt 0.4114386 0.2197633
vt 0.3822213 0.2416036
vt 0.4267676 0.2312328
vt 0.4199286 0.2214147
vt 0.4272061 0.2202105
vt 0.4043671 0.2468263
vt 0.3818574 0.2697262
vt 0.4324762 0.2325423
vt 0.4212776 0.2571398
vt 0.413926 0.2693572
vt 0.3937064 0.2935097
vt 0.4151695 0.2817084
vt 0.3783031 0.3001002
vt 0.4180817 0.3044143
vt 0.3934102 0.3322005
vt 0.3616902 0.3256038
vt 0.4126845 0.335012
vt 0.4147829 0.3350366
vt 0.4368483 0.2198584
vt 0.4277469 0.2155183
vt 0.4358894 0.2151103
vt 0.4535613 0.2104325
vt 0.4542123 0.217157
vt 0.4499525 0.2311293
vt 0.4465975 0.2488082
vt 0.4270688 0.2591854
vt 0.4238685 0.2694666
vt 0.4444183 0.2754596
vt 0.4237578 0.2834717
vt 0.4250103 0.3049181
vt 0.4470431 0.2991799
vt 0.4346299 0.3352601
vt 0.4230821 0.3276134
vt 0.451969 0.3278964
vt 0.4199822 0.3360697
vt 0.4547822 0.3360008
vt 0.4337892 0.3367054
vt 0.3463646 0.4591466
vt 0.3544476 0.4800349
vt 0.351665 0.460941
vt 0.3463646 0.4842951
vt 0.3523917 0.514027
vt 0.3472767 0.5183862
vt 0.3484302 0.5478431
vt 0.2730027 0.3389161
vt 0.2690732 0.3332945
vt 0.2678763 0.3370876
vt 0.2968984 0.3333877
vt 0.3034238 0.3389682
vt 0.28652 0.3510489
vt 0.3148297 0.3524821
vt 0.3292122 0.3400158
vt 0.3276425 0.3463419
vt 0.3218943 0.3248588
vt 0.3308698 0.3387598
vt 0.3430176 0.3229851
vt 0.3118659 0.3238429
vt 0.3202626 0.2826843
vt 0.3544025 0.2864428
vt 0.3067278 0.322372
vt 0.2951245 0.3290872
vt 0.3035057 0.2888036
vt 0.2881484 0.2997322
vt 0.2782393 0.308457
vt 0.3307188 0.2667573
vt 0.3552527 0.278733
vt 0.3583837 0.2607061
vt 0.3521572 0.2396959
vt 0.2980143 0.2376148
vt 0.2966118 0.257752
vt 0.2956169 0.269341
vt 0.2926343 0.2782035
vt 0.2761549 0.2647379
vt 0.2792125 0.2804302
vt 0.2745622 0.2741555
vt 0.3360245 0.2104325
vt 0.3521314 0.2304922
vt 0.3064221 0.2235895
vt 0.3218906 0.2125176
vt 0.3073193 0.2169281
vt 0.2856901 0.2250412
vt 0.2993303 0.2188587
vt 0.2701094 0.2404083
vt 0.2702597 0.2352904
vt 0.2498353 0.2561388
vt 0.2501087 0.2815199
vt 0.2519917 0.2869306
vt 0.2562634 0.2896644
vt 0.2594403 0.2973217
vt 0.2596224 0.3195711
vt 0.2580357 0.3228324
vt 0.2545798 0.3083215
vt 0.2498353 0.3074221
vt 0.2550954 0.2958324
vt 0.02949953 0.4346864
vt 0.03846462 0.4570786
vt 0.03501291 0.4327068
vt 0.02539267 0.4110034
vt 0.03013303 0.4065062
vt 0.0218025 0.434842
vt 0.01185831 0.399042
vt 0.03194148 0.4589472
vt 0.0178852 0.4600651
vt 0.001653199 0.4607501
vt 0.002474303 0.4303471
vt 0.001653202 0.4000051
vt 0.00191798 0.3874781
vt 0.02255865 0.3986043
vt 0.01319726 0.377149
vt 0.005248287 0.3785212
vt 0.02022548 0.3818008
vt 0.02501776 0.3810869
vt 0.02752931 0.398688
vt 0.03678349 0.3952987
vt 0.03432921 0.3837041
vt 0.03019781 0.360842
vt 0.02333227 0.3644528
vt 0.03975248 0.3602017
vt 0.04336515 0.3813165
vt 0.0447906 0.3937741
vt 0.4296759 0.6546745
vt 0.4290006 0.6788232
vt 0.4347394 0.6791816
vt 0.4347394 0.6512588
vt 0.4341204 0.6288315
vt 0.02525373 0.3274637
vt 0.03401283 0.3568953
vt 0.05354891 0.3480538
vt 0.04346858 0.3189564
vt 0.01384705 0.2983987
vt 0.03211987 0.2911335
vt 0.00993737 0.2902269
vt 0.02734587 0.2779771
vt 0.007725076 0.2828823
vt 0.00836754 0.2707303
vt 0.02803522 0.2682684
vt 0.02506465 0.2445124
vt 0.004605875 0.2558757
vt 0.001653202 0.2472667
vt 0.003542258 0.2386125
vt 0.03636578 0.2634878
vt 0.02286381 0.2297767
vt 0.03866277 0.2483698
vt 0.04383271 0.2640446
vt 0.03207707 0.2405226
vt 0.04482909 0.2423876
vt 0.04049115 0.2331907
vt 0.03810777 0.2211646
vt 0.05354891 0.2391002
vt 0.05224249 0.2217622
vt 0.05133222 0.2282971
vt 0.04783542 0.4640565
vt 0.04885458 0.4745382
vt 0.05123565 0.4655009
vt 0.04514501 0.4730047
vt 0.04345625 0.4869359
vt 0.04752199 0.4870206
vt 0.04355355 0.5169147
vt 0.0478124 0.5173092
vt 0.04653856 0.5478318
vt 0.05123565 0.5478624
vt 0.5818613 0.8327011
vt 0.5805901 0.8212882
vt 0.5774975 0.8233958
vt 0.5785758 0.8329654
vt 0.5815157 0.8413194
vt 0.5774975 0.8422911
vt 0.5800927 0.8464289
vt 0.4117929 0.00966689
vt 0.4124455 0.001653196
vt 0.4007749 0.003945904
vt 0.4037447 0.009878391
vt 0.4117875 0.01899563
vt 0.394094 0.004459067
vt 0.4053345 0.02078086
vt 0.4127717 0.03445365
vt 0.3931645 0.01633057
vt 0.4095166 0.03448744
vt 0.4119644 0.0463066
vt 0.3933648 0.03371227
vt 0.3892679 0.01921652
vt 0.3998727 0.04699139
vt 0.4125693 0.05403243
vt 0.3923634 0.06404666
vt 0.408592 0.06428614
vt 0.4141009 0.06288502
vt 0.4089293 0.09452146
vt 0.4221137 0.0930159
vt 0.3954062 0.09437789
vt 0.409486 0.1256185
vt 0.4325927 0.1221255
vt 0.394651 0.1306644
vt 0.4039859 0.1293962
vt 0.4000226 0.1343914
vt 0.3917259 0.134456
vt 0.3846343 0.09508526
vt 0.3818758 0.0586885
vt 0.3862904 0.1319555
vt 0.3668714 0.05969131
vt 0.3687018 0.09615516
vt 0.3736026 0.04018673
vt 0.3828731 0.03826175
vt 0.3667948 0.04003345
vt 0.3581244 0.04152826
vt 0.3532963 0.06021118
vt 0.3521722 0.09428912
vt 0.3689968 0.1281183
vt 0.3689209 0.1332812
vt 0.3548787 0.1340583
vt 0.3516005 0.128786
vt 0.3477673 0.1277364
vt 0.880209 0.09658647
vt 0.883359 0.09800293
vt 0.8839015 0.0809493
vt 0.880209 0.07967253
vt 0.7796646 0.8811387
vt 0.7757758 0.8722329
vt 0.778017 0.8815351
vt 0.7782764 0.8719356
vt 0.7758573 0.8647732
vt 0.7796646 0.8631278
vt 0.1933874 0.9429712
vt 0.197853 0.9361609
vt 0.1935928 0.9352723
vt 0.188502 0.9442918
vt 0.1911587 0.9536662
vt 0.1953594 0.9532241
vt 0.1932893 0.9635035
vt 0.197853 0.9648951
vt 0.1280699 0.7365978
vt 0.120768 0.7457511
vt 0.1297058 0.739477
vt 0.1342537 0.7994112
vt 0.1400107 0.7393849
vt 0.1446461 0.7678035
vt 0.1484883 0.8002928
vt 0.1205019 0.7697067
vt 0.1194272 0.7463518
vt 0.1194272 0.7982004
vt 0.3993185 0.3476892
vt 0.421597 0.3602512
vt 0.4220967 0.3467643
vt 0.3818682 0.3482192
vt 0.4180759 0.3735321
vt 0.3830883 0.3704967
vt 0.3761808 0.3528807
vt 0.3718356 0.362914
vt 0.370231 0.364087
vt 0.3719681 0.38563
vt 0.3835017 0.3935526
vt 0.372694 0.3981725
vt 0.382059 0.3999707
vt 0.4192822 0.4007027
vt 0.3931017 0.4091745
vt 0.4236991 0.4318758
vt 0.3957633 0.4340492
vt 0.4285097 0.3993084
vt 0.4259146 0.3758358
vt 0.4477744 0.3712648
vt 0.4285793 0.3601011
vt 0.4450016 0.3578597
vt 0.4284353 0.349979
vt 0.4439666 0.3470983
vt 0.442881 0.340609
vt 0.4276151 0.3400118
vt 0.4521397 0.3987011
vt 0.4361176 0.4299225
vt 0.454953 0.4291348
vt 0.4394637 0.4594491
vt 0.4324695 0.4593293
vt 0.4165118 0.4598759
vt 0.3946562 0.4615876
vt 0.3883054 0.434938
vt 0.3859619 0.4614838
vt 0.3616902 0.4615876
vt 0.3892062 0.409408
vt 0.3668064 0.4292634
vt 0.3798794 0.4016047
vt 0.3708233 0.4009316
vt 0.2393577 0.6047319
vt 0.2339379 0.6173378
vt 0.2444957 0.6173804
vt 0.2347891 0.6295744
vt 0.2435354 0.6312173
vt 0.233771 0.6515589
vt 0.2446634 0.6525662
vt 0.2426658 0.6752213
vt 0.233771 0.6826673
vt 0.2391522 0.683641
vt 0.5654122 0.1238863
vt 0.5678306 0.1140584
vt 0.5605525 0.1123418
vt 0.5759673 0.1171685
vt 0.587306 0.1310367
vt 0.5620392 0.1332482
vt 0.5609009 0.111438
vt 0.5722215 0.1528462
vt 0.5952736 0.1396978
vt 0.5958595 0.1552566
vt 0.5720737 0.1953817
vt 0.5985095 0.1594485
vt 0.585134 0.1787052
vt 0.5848951 0.2000373
vt 0.5933487 0.1837683
vt 0.6015956 0.1620493
vt 0.5549338 0.1999812
vt 0.5325423 0.1883893
vt 0.5235124 0.1738783
vt 0.5437222 0.1193576
vt 0.5552826 0.1050248
vt 0.5331191 0.1088602
vt 0.5235124 0.1229909
vt 0.5289414 0.1313671
vt 0.5385606 0.1394977
vt 0.5303012 0.1622405
vt 0.5242833 0.1671576
vt 0.5262094 0.154063
vt 0.5288467 0.131917
vt 0.9875237 0.4623258
vt 0.973249 0.460919
vt 0.978352 0.4740888
vt 0.9753704 0.4543715
vt 0.9806622 0.4472722
vt 0.9875237 0.447964
vt 0.4337084 0.741482
vt 0.4293461 0.7422047
vt 0.4330871 0.7514559
vt 0.4256737 0.7472182
vt 0.4329508 0.7615055
vt 0.4235409 0.7604632
vt 0.4241888 0.7731729
vt 0.4337084 0.7767656
vt 0.4241162 0.8002671
vt 0.0132098 0.6810256
vt 0.005190605 0.6574283
vt 0.003416226 0.6757933
vt 0.02453411 0.6563715
vt 0.00976931 0.6384422
vt 0.02913618 0.6416922
vt 0.0454456 0.6484459
vt 0.0498717 0.6586923
vt 0.04037968 0.682658
vt 0.05236928 0.6853315
vt 0.02140929 0.6802902
vt 0.03907086 0.7040231
vt 0.05236928 0.7087879
vt 0.01427628 0.6903626
vt 0.01109334 0.6815469
vt 0.001774214 0.693001
vt 0.00165319 0.677219
vt 0.02642909 0.6974522
vt 0.01137419 0.7108059
vt 0.02652854 0.7155403
vt 0.04060798 0.7162507
vt 0.05207108 0.7149298
vt 0.498826 0.6509869
vt 0.5127243 0.6642296
vt 0.5088785 0.6564749
vt 0.4858709 0.6792873
vt 0.5056788 0.6879385
vt 0.4944447 0.715355
vt 0.5135954 0.7008246
vt 0.5147964 0.7156312
vt 0.5047608 0.7220274
vt 0.4963054 0.7235575
vt 0.4714184 0.6532212
vt 0.4750628 0.7208806
vt 0.4635203 0.6728576
vt 0.4717589 0.7124148
vt 0.4588391 0.7234939
vt 0.4398589 0.6676347
vt 0.4486237 0.6488726
vt 0.4427847 0.6472035
vt 0.4395778 0.6686337
vt 0.4451624 0.7131267
vt 0.4469164 0.7235575
vt 0.8185597 0.2226562
vt 0.835535 0.2104325
vt 0.8149088 0.2104963
vt 0.8344417 0.2225429
vt 0.8328694 0.2349781
vt 0.8132646 0.2398447
vt 0.8028783 0.2206513
vt 0.8008763 0.2399387
vt 0.8014268 0.256642
vt 0.8218586 0.259427
vt 0.835535 0.2415749
vt 0.8319626 0.2593128
vt 0.8304922 0.2699279
vt 0.9339803 0.4507228
vt 0.9132529 0.4472723
vt 0.9145818 0.4720242
vt 0.9344254 0.470088
vt 0.9319388 0.4884493
vt 0.9136373 0.4863904
vt 0.9132529 0.4874485
vt 0.6949341 0.1734642
vt 0.6990607 0.1531295
vt 0.698063 0.1509957
vt 0.6835995 0.1493488
vt 0.6828219 0.1716397
vt 0.6827394 0.1832444
vt 0.6703017 0.1807041
vt 0.6632167 0.1664974
vt 0.6639631 0.1791658
vt 0.669758 0.1513824
vt 0.6697219 0.12982
vt 0.6813341 0.1266148
vt 0.6676211 0.1199916
vt 0.6798239 0.1180218
vt 0.6802143 0.1050248
vt 0.6632167 0.1067446
vt 0.6869886 0.1070891
vt 0.6968154 0.1201056
vt 0.6997817 0.1061726
vt 0.7139928 0.1110548
vt 0.7158504 0.1349872
vt 0.7152036 0.1491626
vt 0.7159229 0.1503336
vt 0.9269194 0.9440677
vt 0.924814 0.9343827
vt 0.9225634 0.9338099
vt 0.9292068 0.9440238
vt 0.9225634 0.9622507
vt 0.7212268 0.8261405
vt 0.7078075 0.8395367
vt 0.723288 0.8343027
vt 0.7113006 0.8211229
vt 0.6874532 0.8402988
vt 0.723288 0.7956473
vt 0.6852853 0.8148519
vt 0.6722663 0.8256455
vt 0.6727606 0.8079858
vt 0.705654 0.8020584
vt 0.7106611 0.7886578
vt 0.6963971 0.7806481
vt 0.6860499 0.7958535
vt 0.6767963 0.7956665
vt 0.6834406 0.7917004
vt 0.3701446 0.6655987
vt 0.3917862 0.6713759
vt 0.3826417 0.6637419
vt 0.3616902 0.6789784
vt 0.3636526 0.6659132
vt 0.3616902 0.7300082
vt 0.3874021 0.710043
vt 0.3625337 0.730674
vt 0.3909567 0.7381756
vt 0.4030913 0.7342576
vt 0.4122694 0.7235149
vt 0.4108466 0.6979198
vt 0.4097086 0.6830958
vt 0.4220584 0.7114198
vt 0.4184361 0.685977
vt 0.4243993 0.6970381
usemtl MV_RockSpire_Shelves
f 1/1/1 3/3/3 2/2/2
f 4/4/4 6/6/6 5/5/5
f 7/7/7 9/9/9 8/8/8
f 10/10/10 12/12/12 11/11/11
f 13/13/13 15/15/15 14/14/14
f 16/16/16 18/18/18 17/17/17
f 19/19/19 21/21/21 20/20/20
f 22/22/22 24/24/24 23/23/23
f 25/25/25 27/27/27 26/26/26
f 28/28/28 30/30/30 29/29/29
f 31/31/31 33/33/33 32/32/32
f 31/31/31 34/34/34 33/33/33
f 31/31/31 35/35/35 34/34/34
f 35/35/35 31/31/31 36/36/36
f 35/35/35 36/36/36 37/37/37
f 38/38/38 37/37/37 36/36/36
f 39/39/39 34/34/34 35/35/35
f 35/35/35 40/40/40 39/39/39
f 40/40/40 35/35/35 37/37/37
f 39/39/39 41/41/41 34/34/34
f 34/34/34 42/42/42 33/33/33
f 41/41/41 42/42/42 34/34/34
f 33/33/33 42/42/42 43/43/43
f 33/33/33 43/43/43 44/44/44
f 41/41/41 45/45/45 42/42/42
f 45/45/45 41/41/41 46/46/46
f 45/45/45 46/46/46 47/47/47
f 48/48/48 47/47/47 46/46/46
f 48/48/48 46/46/46 49/49/49
f 50/50/50 48/48/48 49/49/49
f 51/51/51 50/50/50 49/49/49
f 49/49/49 52/52/52 51/51/51
f 53/53/53 55/55/55 54/54/54
f 53/53/53 54/54/54 56/56/56
f 56/56/56 57/57/57 53/53/53
f 54/54/54 58/58/58 56/56/56
f 59/59/59 57/57/57 56/56/56
f 60/60/60 56/56/56 58/58/58
f 60/60/60 58/58/58 61/61/61
f 62/62/62 60/60/60 61/61/61
f 59/59/59 56/56/56 63/63/63
f 63/63/63 56/56/56 60/60/60
f 63/63/63 64/64/64 59/59/59
f 65/65/65 60/60/60 62/62/62
f 63/63/63 60/60/60 66/66/66
f 66/66/66 60/60/60 65/65/65
f 63/63/63 67/67/67 64/64/64
f 67/67/67 63/63/63 66/66/66
f 67/67/67 68/68/68 64/64/64
f 69/69/69 68/68/68 67/67/67
f 68/68/68 70/70/70 64/64/64
f 71/71/71 68/68/68 69/69/69
f 70/70/70 68/68/68 72/72/72
f 70/70/70 72/72/72 73/73/73
f 72/72/72 68/68/68 74/74/74
f 74/74/74 68/68/68 71/71/71
f 74/74/74 71/71/71 75/75/75
f 65/65/65 62/62/62 76/76/76
f 76/76/76 62/62/62 77/77/77
f 76/76/76 77/77/77 78/78/78
f 76/76/76 78/78/78 79/79/79
f 76/76/76 79/79/79 80/80/80
f 76/76/76 80/80/80 81/81/81
f 76/76/76 81/81/81 65/65/65
f 65/65/65 81/81/81 82/82/82
f 65/65/65 82/82/82 83/83/83
f 66/66/66 65/65/65 83/83/83
f 66/66/66 83/83/83 84/84/84
f 85/85/85 83/83/83 82/82/82
f 85/85/85 84/84/84 83/83/83
f 85/85/85 86/86/86 84/84/84
f 85/85/85 87/87/87 86/86/86
f 85/85/85 88/88/88 87/87/87
f 87/87/87 88/88/88 89/89/89
f 90/90/90 87/87/87 89/89/89
f 88/88/88 91/91/91 89/89/89
f 89/89/89 92/92/92 90/90/90
f 89/89/89 91/91/91 93/93/93
f 89/89/89 94/94/94 92/92/92
f 89/89/89 93/93/93 94/94/94
f 95/95/95 97/97/97 96/96/96
f 95/95/95 96/96/96 98/98/98
f 98/98/98 96/96/96 99/99/99
f 98/98/98 99/99/99 100/100/100
f 101/101/101 100/100/100 99/99/99
f 102/102/102 104/104/104 103/103/103
f 105/105/105 102/102/102 103/103/103
f 106/106/106 102/102/102 105/105/105
f 106/106/106 107/107/107 102/102/102
f 106/106/106 108/108/108 107/107/107
f 108/108/108 106/106/106 109/109/109
f 108/108/108 109/109/109 110/110/110
f 111/111/111 109/109/109 106/106/106
f 111/111/111 112/112/112 109/109/109
f 111/111/111 113/113/113 112/112/112
f 106/106/106 105/105/105 114/114/114
f 106/106/106 114/114/114 111/111/111
f 111/111/111 115/115/115 113/113/113
f 115/115/115 116/116/116 113/113/113
f 105/105/105 117/117/117 114/114/114
f 105/105/105 103/103/103 118/118/118
f 111/111/111 114/114/114 119/119/119
f 114/114/114 117/117/117 119/119/119
f 111/111/111 119/119/119 115/115/115
f 120/120/120 117/117/117 118/118/118
f 120/120/120 119/119/119 117/117/117
f 121/121/121 118/118/118 103/103/103
f 120/120/120 118/118/118 121/121/121
f 115/115/115 122/122/122 116/116/116
f 123/123/123 116/116/116 122/122/122
f 122/122/122 124/124/124 123/123/123
f 125/125/125 124/124/124 122/122/122
f 125/125/125 122/122/122 126/126/126
f 127/127/127 122/122/122 115/115/115
f 127/127/127 126/126/126 122/122/122
f 115/115/115 119/119/119 128/128/128
f 115/115/115 128/128/128 127/127/127
f 129/129/129 119/119/119 120/120/120
f 119/119/119 129/129/129 128/128/128
f 130/130/130 127/127/127 128/128/128
f 127/127/127 130/130/130 126/126/126
f 129/129/129 120/120/120 131/131/131
f 131/131/131 120/120/120 121/121/121
f 132/132/132 128/128/128 129/129/129
f 130/130/130 128/128/128 132/132/132
f 132/132/132 129/129/129 131/131/131
f 133/133/133 125/125/125 126/126/126
f 133/133/133 134/134/134 125/125/125
f 133/133/133 126/126/126 135/135/135
f 135/135/135 136/136/136 133/133/133
f 135/135/135 137/137/137 136/136/136
f 135/135/135 126/126/126 138/138/138
f 135/135/135 138/138/138 139/139/139
f 140/140/140 138/138/138 126/126/126
f 130/130/130 140/140/140 126/126/126
f 140/140/140 141/141/141 138/138/138
f 130/130/130 142/142/142 140/140/140
f 130/130/130 143/143/143 142/142/142
f 130/130/130 132/132/132 143/143/143
f 132/132/132 144/144/144 143/143/143
f 132/132/132 145/145/145 144/144/144
f 132/132/132 131/131/131 145/145/145
f 145/145/145 131/131/131 146/146/146
f 131/131/131 121/121/121 146/146/146
f 147/147/147 146/146/146 121/121/121
f 103/103/103 147/147/147 121/121/121
f 103/103/103 148/148/148 147/147/147
f 147/147/147 149/149/149 146/146/146
f 148/148/148 150/150/150 149/149/149
f 151/151/151 146/146/146 149/149/149
f 151/151/151 149/149/149 150/150/150
f 152/152/152 154/154/154 153/153/153
f 154/154/154 152/152/152 155/155/155
f 154/154/154 155/155/155 156/156/156
f 155/155/155 152/152/152 157/157/157
f 157/157/157 158/158/158 155/155/155
f 157/157/157 152/152/152 159/159/159
f 157/157/157 159/159/159 160/160/160
f 161/161/161 157/157/157 160/160/160
f 161/161/161 162/162/162 157/157/157
f 162/162/162 158/158/158 157/157/157
f 162/162/162 163/163/163 158/158/158
f 158/158/158 163/163/163 164/164/164
f 156/156/156 155/155/155 165/165/165
f 158/158/158 165/165/165 155/155/155
f 164/164/164 166/166/166 158/158/158
f 164/164/164 167/167/167 166/166/166
f 158/158/158 166/166/166 168/168/168
f 158/158/158 168/168/168 165/165/165
f 169/169/169 165/165/165 168/168/168
f 165/165/165 170/170/170 156/156/156
f 169/169/169 170/170/170 165/165/165
f 156/156/156 170/170/170 171/171/171
f 169/169/169 172/172/172 170/170/170
f 171/171/171 170/170/170 172/172/172
f 169/169/169 173/173/173 172/172/172
f 169/169/169 174/174/174 173/173/173
f 175/175/175 172/172/172 173/173/173
f 175/175/175 176/176/176 172/172/172
f 176/176/176 171/171/171 172/172/172
f 176/176/176 177/177/177 171/171/171
f 178/178/178 180/180/180 179/179/179
f 178/178/178 181/181/181 180/180/180
f 181/181/181 178/178/178 182/182/182
f 183/183/183 185/185/185 184/184/184
f 183/183/183 186/186/186 185/185/185
f 186/186/186 183/183/183 187/187/187
f 186/186/186 187/187/187 188/188/188
f 189/189/189 188/188/188 187/187/187
f 189/189/189 190/190/190 188/188/188
f 190/190/190 189/189/189 191/191/191
f 192/192/192 190/190/190 191/191/191
f 193/193/193 190/190/190 192/192/192
f 192/192/192 194/194/194 193/193/193
f 192/192/192 195/195/195 194/194/194
f 194/194/194 195/195/195 196/196/196
f 197/197/197 194/194/194 196/196/196
f 193/193/193 194/194/194 198/198/198
f 197/197/197 199/199/199 194/194/194
f 198/198/198 194/194/194 200/200/200
f 200/200/200 201/201/201 198/198/198
f 202/202/202 200/200/200 194/194/194
f 199/199/199 202/202/202 194/194/194
f 200/200/200 202/202/202 203/203/203
f 204/204/204 202/202/202 199/199/199
f 202/202/202 204/204/204 203/203/203
f 205/205/205 204/204/204 199/199/199
f 204/204/204 206/206/206 203/203/203
f 207/207/207 204/204/204 205/205/205
f 204/204/204 208/208/208 206/206/206
f 207/207/207 208/208/208 204/204/204
f 209/209/209 211/211/211 210/210/210
f 209/209/209 210/210/210 212/212/212
f 213/213/213 212/212/212 210/210/210
f 213/213/213 210/210/210 214/214/214
f 215/215/215 213/213/213 214/214/214
f 215/215/215 214/214/214 216/216/216
f 217/217/217 215/215/215 216/216/216
f 217/217/217 216/216/216 218/218/218
f 219/219/219 221/221/221 220/220/220
f 219/219/219 222/222/222 221/221/221
f 223/223/223 222/222/222 219/219/219
f 223/223/223 224/224/224 222/222/222
f 224/224/224 223/223/223 225/225/225
f 226/226/226 228/228/228 227/227/227
f 226/226/226 229/229/229 228/228/228
f 230/230/230 229/229/229 226/226/226
f 229/229/229 231/231/231 228/228/228
f 230/230/230 232/232/232 229/229/229
f 233/233/233 232/232/232 230/230/230
f 229/229/229 234/234/234 231/231/231
f 232/232/232 234/234/234 229/229/229
f 234/234/234 38/38/38 231/231/231
f 233/233/233 235/235/235 232/232/232
f 235/235/235 233/233/233 236/236/236
f 237/237/237 234/234/234 232/232/232
f 237/237/237 232/232/232 235/235/235
f 234/234/234 238/238/238 38/38/38
f 234/234/234 237/237/237 238/238/238
f 38/38/38 238/238/238 37/37/37
f 238/238/238 237/237/237 37/37/37
f 40/40/40 37/37/37 237/237/237
f 239/239/239 235/235/235 236/236/236
f 239/239/239 237/237/237 235/235/235
f 239/239/239 40/40/40 237/237/237
f 240/240/240 239/239/239 236/236/236
f 241/241/241 40/40/40 239/239/239
f 240/240/240 242/242/242 239/239/239
f 241/241/241 239/239/239 242/242/242
f 240/240/240 243/243/243 242/242/242
f 244/244/244 242/242/242 243/243/243
f 245/245/245 244/244/244 243/243/243
f 246/246/246 241/241/241 242/242/242
f 246/246/246 242/242/242 244/244/244
f 245/245/245 247/247/247 244/244/244
f 245/245/245 248/248/248 247/247/247
f 249/249/249 244/244/244 247/247/247
f 246/246/246 244/244/244 249/249/249
f 249/249/249 247/247/247 250/250/250
f 249/249/249 250/250/250 251/251/251
f 249/249/249 251/251/251 252/252/252
f 241/241/241 246/246/246 253/253/253
f 249/249/249 253/253/253 246/246/246
f 241/241/241 253/253/253 254/254/254
f 249/249/249 255/255/255 253/253/253
f 253/253/253 256/256/256 254/254/254
f 257/257/257 253/253/253 255/255/255
f 253/253/253 257/257/257 256/256/256
f 256/256/256 258/258/258 254/254/254
f 259/259/259 254/254/254 258/258/258
f 256/256/256 260/260/260 258/258/258
f 261/261/261 260/260/260 256/256/256
f 261/261/261 256/256/256 262/262/262
f 257/257/257 262/262/262 256/256/256
f 257/257/257 263/263/263 262/262/262
f 257/257/257 255/255/255 264/264/264
f 263/263/263 257/257/257 264/264/264
f 255/255/255 265/265/265 264/264/264
f 264/264/264 265/265/265 266/266/266
f 264/264/264 266/266/266 267/267/267
f 263/263/263 264/264/264 267/267/267
f 268/268/268 263/263/263 267/267/267
f 269/269/269 271/271/271 270/270/270
f 269/269/269 272/272/272 271/271/271
f 273/273/273 275/275/275 274/274/274
f 273/273/273 274/274/274 276/276/276
f 276/276/276 274/274/274 277/277/277
f 276/276/276 277/277/277 278/278/278
f 279/279/279 281/281/281 280/280/280
f 279/279/279 282/282/282 281/281/281
f 279/279/279 283/283/283 282/282/282
f 279/279/279 284/284/284 283/283/283
f 284/284/284 285/285/285 283/283/283
f 284/284/284 286/286/286 285/285/285
f 287/287/287 289/289/289 288/288/288
f 288/288/288 289/289/289 290/290/290
f 290/290/290 289/289/289 291/291/291
f 290/290/290 291/291/291 292/292/292
f 290/290/290 292/292/292 293/293/293
f 288/288/288 290/290/290 294/294/294
f 294/294/294 295/295/295 288/288/288
f 290/290/290 296/296/296 294/294/294
f 297/297/297 299/299/299 298/298/298
f 298/298/298 300/300/300 297/297/297
f 301/301/301 300/300/300 298/298/298
f 301/301/301 302/302/302 300/300/300
f 302/302/302 303/303/303 300/300/300
f 302/302/302 304/304/304 303/303/303
f 304/304/304 302/302/302 305/305/305
f 302/302/302 306/306/306 305/305/305
f 302/302/302 301/301/301 307/307/307
f 302/302/302 307/307/307 306/306/306
f 307/307/307 308/308/308 306/306/306
f 307/307/307 309/309/309 308/308/308
f 301/301/301 310/310/310 307/307/307
f 311/311/311 309/309/309 307/307/307
f 310/310/310 311/311/311 307/307/307
f 312/312/312 311/311/311 310/310/310
f 312/312/312 313/313/313 311/311/311
f 314/314/314 312/312/312 310/310/310
f 315/315/315 314/314/314 310/310/310
f 315/315/315 316/316/316 314/314/314
f 317/317/317 316/316/316 315/315/315
f 317/317/317 318/318/318 316/316/316
f 318/318/318 317/317/317 319/319/319
f 318/318/318 319/319/319 320/320/320
f 321/321/321 320/320/320 319/319/319
f 321/321/321 319/319/319 322/322/322
f 314/314/314 316/316/316 323/323/323
f 324/324/324 314/314/314 323/323/323
f 314/314/314 324/324/324 312/312/312
f 324/324/324 323/323/323 325/325/325
f 324/324/324 325/325/325 326/326/326
f 324/324/324 326/326/326 327/327/327
f 312/312/312 324/324/324 327/327/327
f 312/312/312 327/327/327 328/328/328
f 313/313/313 312/312/312 328/328/328
f 313/313/313 328/328/328 329/329/329
f 330/330/330 313/313/313 329/329/329
f 330/330/330 329/329/329 331/331/331
f 332/332/332 330/330/330 331/331/331
f 313/313/313 330/330/330 333/333/333
f 332/332/332 334/334/334 330/330/330
f 333/333/333 330/330/330 334/334/334
f 334/334/334 335/335/335 333/333/333
f 334/334/334 336/336/336 335/335/335
f 337/337/337 339/339/339 338/338/338
f 340/340/340 338/338/338 339/339/339
f 340/340/340 339/339/339 341/341/341
f 342/342/342 340/340/340 341/341/341
f 342/342/342 341/341/341 343/343/343
f 342/342/342 343/343/343 344/344/344
f 345/345/345 342/342/342 344/344/344
f 346/346/346 345/345/345 344/344/344
f 347/347/347 349/349/349 348/348/348
f 348/348/348 350/350/350 347/347/347
f 347/347/347 350/350/350 351/351/351
f 352/352/352 347/347/347 351/351/351
f 352/352/352 353/353/353 347/347/347
f 354/354/354 352/352/352 351/351/351
f 355/355/355 354/354/354 351/351/351
f 354/354/354 355/355/355 356/356/356
f 357/357/357 354/354/354 356/356/356
f 357/357/357 356/356/356 358/358/358
f 358/358/358 359/359/359 357/357/357
f 359/359/359 360/360/360 357/357/357
f 359/359/359 361/361/361 360/360/360
f 359/359/359 362/362/362 361/361/361
f 354/354/354 357/357/357 363/363/363
f 363/363/363 364/364/364 354/354/354
f 364/364/364 365/365/365 354/354/354
f 353/353/353 352/352/352 366/366/366
f 366/366/366 367/367/367 353/353/353
f 366/366/366 368/368/368 367/367/367
f 366/366/366 369/369/369 368/368/368
f 366/366/366 370/370/370 369/369/369
f 371/371/371 370/370/370 366/366/366
f 366/366/366 352/352/352 371/371/371
f 371/371/371 352/352/352 354/354/354
f 372/372/372 354/354/354 365/365/365
f 365/365/365 373/373/373 372/372/372
f 372/372/372 374/374/374 354/354/354
f 354/354/354 374/374/374 371/371/371
f 374/374/374 375/375/375 371/371/371
f 376/376/376 378/378/378 377/377/377
f 376/376/376 377/377/377 379/379/379
f 379/379/379 380/380/380 376/376/376
f 381/381/381 376/376/376 380/380/380
f 382/382/382 384/384/384 383/383/383
f 383/383/383 384/384/384 385/385/385
f 386/386/386 385/385/385 384/384/384
f 386/386/386 387/387/387 385/385/385
f 386/386/386 388/388/388 387/387/387
f 386/386/386 389/389/389 388/388/388
f 389/389/389 390/390/390 388/388/388
f 391/391/391 393/393/393 392/392/392
f 391/391/391 392/392/392 394/394/394
f 395/395/395 394/394/394 392/392/392
f 395/395/395 396/396/396 394/394/394
f 394/394/394 396/396/396 397/397/397
f 394/394/394 397/397/397 398/398/398
f 399/399/399 394/394/394 398/398/398
f 399/399/399 398/398/398 400/400/400
f 394/394/394 401/401/401 391/391/391
f 399/399/399 401/401/401 394/394/394
f 402/402/402 399/399/399 400/400/400
f 403/403/403 402/402/402 400/400/400
f 401/401/401 404/404/404 391/391/391
f 391/391/391 404/404/404 405/405/405
f 406/406/406 405/405/405 404/404/404
f 406/406/406 407/407/407 405/405/405
f 408/408/408 401/401/401 399/399/399
f 408/408/408 404/404/404 401/401/401
f 402/402/402 408/408/408 399/399/399
f 409/409/409 404/404/404 408/408/408
f 408/408/408 410/410/410 409/409/409
f 408/408/408 402/402/402 410/410/410
f 410/410/410 402/402/402 411/411/411
f 411/411/411 402/402/402 403/403/403
f 403/403/403 412/412/412 411/411/411
f 413/413/413 415/415/415 414/414/414
f 414/414/414 416/416/416 413/413/413
f 414/414/414 417/417/417 416/416/416
f 418/418/418 416/416/416 417/417/417
f 419/419/419 418/418/418 417/417/417
f 420/420/420 418/418/418 419/419/419
f 418/418/418 420/420/420 421/421/421
f 418/418/418 421/421/421 422/422/422
f 423/423/423 413/413/413 416/416/416
f 424/424/424 418/418/418 422/422/422
f 423/423/423 416/416/416 425/425/425
f 425/425/425 416/416/416 418/418/418
f 424/424/424 426/426/426 418/418/418
f 425/425/425 418/418/418 426/426/426
f 426/426/426 424/424/424 427/427/427
f 427/427/427 425/425/425 426/426/426
f 428/428/428 423/423/423 425/425/425
f 428/428/428 429/429/429 423/423/423
f 428/428/428 430/430/430 429/429/429
f 428/428/428 425/425/425 431/431/431
f 431/431/431 425/425/425 427/427/427
f 431/431/431 427/427/427 432/432/432
f 427/427/427 433/433/433 432/432/432
f 434/434/434 436/436/436 435/435/435
f 434/434/434 435/435/435 437/437/437
f 434/434/434 437/437/437 438/438/438
f 434/434/434 438/438/438 439/439/439
f 439/439/439 440/440/440 434/434/434
f 439/439/439 441/441/441 440/440/440
f 442/442/442 441/441/441 439/439/439
f 442/442/442 439/439/439 443/443/443
f 438/438/438 443/443/443 439/439/439
f 443/443/443 438/438/438 444/444/444
f 443/443/443 444/444/444 445/445/445
f 446/446/446 443/443/443 445/445/445
f 447/447/447 449/449/449 448/448/448
f 447/447/447 450/450/450 449/449/449
f 451/451/451 449/449/449 450/450/450
f 451/451/451 452/452/452 449/449/449
f 451/451/451 453/453/453 452/452/452
f 454/454/454 456/456/456 455/455/455
f 454/454/454 457/457/457 456/456/456
f 454/454/454 458/458/458 457/457/457
f 458/458/458 454/454/454 459/459/459
f 458/458/458 459/459/459 460/460/460
f 458/458/458 460/460/460 461/461/461
f 461/461/461 460/460/460 462/462/462
f 458/458/458 461/461/461 463/463/463
f 458/458/458 463/463/463 457/457/457
f 457/457/457 463/463/463 464/464/464
f 457/457/457 464/464/464 465/465/465
f 465/465/465 456/456/456 457/457/457
f 465/465/465 464/464/464 466/466/466
f 465/465/465 466/466/466 467/467/467
f 467/467/467 466/466/466 468/468/468
f 466/466/466 469/469/469 468/468/468
f 468/468/468 470/470/470 467/467/467
f 471/471/471 465/465/465 467/467/467
f 467/467/467 470/470/470 471/471/471
f 465/465/465 471/471/471 456/456/456
f 470/470/470 472/472/472 471/471/471
f 471/471/471 472/472/472 473/473/473
f 474/474/474 471/471/471 473/473/473
f 474/474/474 456/456/456 471/471/471
f 456/456/456 474/474/474 475/475/475
f 456/456/456 475/475/475 476/476/476
f 477/477/477 479/479/479 478/478/478
f 477/477/477 478/478/478 480/480/480
f 477/477/477 480/480/480 481/481/481
f 482/482/482 484/484/484 483/483/483
f 483/483/483 485/485/485 482/482/482
f 483/483/483 486/486/486 485/485/485
f 482/482/482 485/485/485 487/487/487
f 488/488/488 485/485/485 486/486/486
f 489/489/489 488/488/488 486/486/486
f 490/490/490 488/488/488 489/489/489
f 485/485/485 491/491/491 487/487/487
f 491/491/491 485/485/485 488/488/488
f 491/491/491 492/492/492 487/487/487
f 492/492/492 491/491/491 493/493/493
f 494/494/494 488/488/488 490/490/490
f 491/491/491 488/488/488 494/494/494
f 491/491/491 494/494/494 493/493/493
f 495/495/495 494/494/494 490/490/490
f 493/493/493 494/494/494 496/496/496
f 496/496/496 494/494/494 495/495/495
f 497/497/497 499/499/499 498/498/498
f 498/498/498 500/500/500 497/497/497
f 500/500/500 501/501/501 497/497/497
f 498/498/498 502/502/502 500/500/500
f 498/498/498 503/503/503 502/502/502
f 502/502/502 503/503/503 504/504/504
f 505/505/505 504/504/504 503/503/503
f 506/506/506 505/505/505 503/503/503
f 507/507/507 506/506/506 503/503/503
f 508/508/508 503/503/503 498/498/498
f 503/503/503 508/508/508 507/507/507
f 498/498/498 509/509/509 508/508/508
f 508/508/508 510/510/510 507/507/507
f 511/511/511 508/508/508 509/509/509
f 512/512/512 510/510/510 508/508/508
f 511/511/511 512/512/512 508/508/508
