mtllib P_RockSpire_Rock09.mtl
v 2.365612 6.782597 -0.4553643
v 2.364141 6.808713 -0.3857045
v 0.9857454 6.890164 -1.091891
v 1.533886 7.002781 0.364277
v 2.662609 6.396587 0.1064571
v 2.705391 6.439562 -0.4539064
v 2.941914 6.128465 -0.3124381
v 1.569013 6.584419 1.208158
v 1.991204 6.294565 1.19792
v 1.26234 6.994516 0.5988795
v 0.521585 6.94307 0.542268
v -0.2869473 6.760509 -1.684249
v -0.2411613 6.723794 -1.803178
v -0.6353645 6.675652 -1.60603
v -1.695104 6.264594 1.112909
v 1.217472 6.098553 1.795859
v -0.5218791 5.753416 1.95925
v -1.295228 6.550052 0.5602233
v -1.249851 6.490199 -0.9584662
v -1.946012 5.892519 -0.2630878
v -1.456616 6.484687 0.8224773
v -1.856661 6.205035 1.093415
v -2.331939 5.766747 0.8170903
v -2.215933 5.729939 0.1878996
v 2.705391 6.439562 -0.4539064
v 2.364141 6.808713 -0.3857045
v 2.365612 6.782597 -0.4553643
v 2.649673 6.419323 -0.5220641
v 0.9857454 6.890164 -1.091891
v -0.2411613 6.723794 -1.803178
v -0.2616061 5.853034 -2.312899
v -0.3546416 5.674363 -2.372801
v 2.941914 6.128465 -0.3124381
v 1.163641 4.580274 -1.378796
v -0.5804719 4.977153 -2.4491
v -0.5940152 4.111227 -2.397528
v 2.078912 4.856994 -0.8380898
v 2.916691 4.672131 -0.3035532
v 2.929055 4.645204 -0.1920927
v 0.9707178 2.050272 -1.77926
v -0.4169545 1.219796 -2.472835
v -0.5703977 0.06212092 -2.55932
v -0.7230321 1.114635 -2.649875
v 1.173304 -0.0811204 -1.553074
v -0.4089965 -1.106625 -2.380324
v 1.340762 -1.14681 -1.402248
v 1.372593 -1.273236 -1.333513
v 2.929055 4.645204 -0.1920927
v 3.216868 4.376863 -0.4775043
v 2.894801 4.06918 0.7331611
v 2.499304 4.643532 0.6198213
v 2.941914 6.128465 -0.3124381
v 2.517677 6.305653 0.4166749
v 2.662609 6.396587 0.1064571
v 1.991204 6.294565 1.19792
v 2.079974 4.417811 1.207936
v 1.971521 2.718325 1.571587
v 2.789943 2.695083 0.9848253
v 2.787858 -0.1755598 1.180453
v 2.841306 -0.1205218 1.090435
v 1.63572 5.775333 1.803153
v 1.532474 1.920856 2.303182
v 1.217472 6.098553 1.795859
v 1.569013 6.584419 1.208158
v -0.5218791 5.753416 1.95925
v 0.02830212 0.9498342 2.533601
v 1.978062 -0.7265167 1.748219
v 1.751198 -0.7342128 2.096196
v 0.1676376 -1.088544 2.317638
v 0.8297396 -1.419542 2.224774
v 1.197271 -1.374443 2.148513
v 2.240225 -1.425327 0.4357804
v 3.13464 -0.4030265 0.3019679
v 3.186646 -0.2856817 0.2531179
v 3.079572 0.560755 -0.4470663
v 2.841306 -0.1205218 1.090435
v 2.789943 2.695083 0.9848253
v 3.079572 0.560755 -0.4470663
v 2.960121 2.441644 -0.3207938
v 2.894801 4.06918 0.7331611
v 3.216868 4.376863 -0.4775043
v 3.176759 4.401924 -0.6033966
v 2.641907 4.347828 -1.332422
v 2.662106 4.479426 -1.278312
v 1.758558 4.252121 -1.774933
v 2.537291 2.146995 -1.110673
v 2.668435 -0.3330348 -1.233044
v 3.186646 -0.2856817 0.2531179
v 3.13464 -0.4030265 0.3019679
v 1.922446 1.906247 -1.654199
v 1.501039 2.274043 -1.827545
v 1.709242 -0.701762 -1.743747
v 1.905605 -0.8239315 -1.722847
v 2.249472 -0.9007422 -1.512721
v 1.872868 -1.545247 -0.646943
v 2.240225 -1.425327 0.4357804
v 1.340762 -1.14681 -1.402248
v 1.372593 -1.273236 -1.333513
v 1.700455 -0.9310939 -1.685392
v 1.709242 -0.701762 -1.743747
v 1.905605 -0.8239315 -1.722847
v 1.922446 1.906247 -1.654199
v 1.173304 -0.0811204 -1.553074
v 1.501039 2.274043 -1.827545
v 0.9707178 2.050272 -1.77926
v 1.501172 4.272795 -1.834574
v 1.758558 4.252121 -1.774933
v 1.256904 4.500941 -1.432489
v 1.163641 4.580274 -1.378796
v 2.249472 -0.9007422 -1.512721
v 1.905605 -0.8239315 -1.722847
v 1.700455 -0.9310939 -1.685392
v 1.372593 -1.273236 -1.333513
v 1.872868 -1.545247 -0.646943
v 1.727657 -1.611832 -0.6111321
v 2.240225 -1.425327 0.4357804
v 0.9243001 -1.732158 -0.7970952
v -0.005745895 -1.813518 -0.3915094
v 1.197271 -1.374443 2.148513
v -0.4089965 -1.106625 -2.380324
v 0.8297396 -1.419542 2.224774
v -0.8531348 -1.373887 -2.167151
v -0.9107242 -1.324774 -2.229807
v -1.100769 -1.340655 -2.14916
v -2.48536 -1.645699 -0.7837183
v -1.992278 -1.733489 -0.5102961
v -2.950715 -1.536533 -0.5132384
v -0.6605899 -1.723824 1.141162
v 0.1676376 -1.088544 2.317638
v -1.431965 -0.8860962 1.801812
v -1.797662 -1.686909 0.6228763
v -2.580141 -0.6607251 1.510017
v -2.961457 -1.480625 0.2949924
v -3.212813 -1.447423 -0.08545118
v -0.5703977 0.06212092 -2.55932
v -0.9107242 -1.324774 -2.229807
v -0.4089965 -1.106625 -2.380324
v -2.243075 -0.6812727 -1.867314
v -1.100769 -1.340655 -2.14916
v -2.48536 -1.645699 -0.7837183
v -2.950715 -1.536533 -0.5132384
v -2.181437 1.101296 -2.155945
v -0.7230321 1.114635 -2.649875
v -1.961351 1.389143 -2.267005
v -2.571896 1.666559 -1.41643
v -2.306643 2.464269 -1.374639
v -3.029531 -1.457635 -0.443935
v -3.212813 -1.447423 -0.08545118
v -3.55287 -0.07405257 0.3385702
v -3.509339 1.169 0.1387039
v -3.100488 2.037927 -0.5649065
v -2.931028 2.644372 -0.4771329
v -1.431965 -0.8860962 1.801812
v -2.583146 -0.554458 1.545352
v -1.229375 0.07807356 1.872856
v -2.646107 2.694605 1.361641
v -0.7732869 2.535062 2.01914
v -2.68385 2.806998 1.289263
v -2.564719 2.892576 0.9890499
v -3.192835 2.829586 0.977797
v -3.089561 2.901517 0.5876699
v -2.931028 2.644372 -0.4771329
v -1.551595 2.686028 -0.8771269
v -2.306643 2.464269 -1.374639
v -2.507754 2.93427 0.982519
v -1.472926 2.743784 -0.8539686
v -2.507754 2.93427 0.982519
v -0.7732869 2.535062 2.01914
v -2.564719 2.892576 0.9890499
v -2.479733 3.02606 0.9597503
v -2.485976 4.988509 0.8081865
v -2.535277 5.011508 0.7292375
v -2.331939 5.766747 0.8170903
v -2.215933 5.729939 0.1878996
v -1.856661 6.205035 1.093415
v -0.5218791 5.753416 1.95925
v -1.695104 6.264594 1.112909
v 0.02830212 0.9498342 2.533601
v -1.229375 0.07807356 1.872856
v 0.1676376 -1.088544 2.317638
v -1.431965 -0.8860962 1.801812
v -2.646107 2.694605 1.361641
v -2.68385 2.806998 1.289263
v -3.192835 2.829586 0.977797
v -3.43915 1.605255 0.9219254
v -3.485401 0.6639352 0.9453602
v -2.583146 -0.554458 1.545352
v -2.580141 -0.6607251 1.510017
v -3.335878 2.382242 0.9082329
v -3.089561 2.901517 0.5876699
v -3.100488 2.037927 -0.5649065
v -2.931028 2.644372 -0.4771329
v -3.509339 1.169 0.1387039
v -3.55287 -0.07405257 0.3385702
v -2.961457 -1.480625 0.2949924
v -3.212813 -1.447423 -0.08545118
v -2.535277 5.011508 0.7292375
v -1.946012 5.892519 -0.2630878
v -2.215933 5.729939 0.1878996
v -1.09401 4.462804 -1.611236
v -1.472926 2.743784 -0.8539686
v -2.479733 3.02606 0.9597503
v -2.507754 2.93427 0.982519
v -0.5804719 4.977153 -2.4491
v -1.249851 6.490199 -0.9584662
v -0.6353645 6.675652 -1.60603
v -1.022438 1.385009 -1.687045
v -1.551595 2.686028 -0.8771269
v -1.088527 1.317565 -1.739342
v -0.5940152 4.111227 -2.397528
v -0.5191469 1.236398 -2.431238
v -0.9344388 1.278089 -1.883979
v -0.4169545 1.219796 -2.472835
v -0.4089507 5.769416 -2.329764
v -0.3546416 5.674363 -2.372801
v -0.2411613 6.723794 -1.803178
v -0.2616061 5.853034 -2.312899
v -1.088527 1.317565 -1.739342
v -2.306643 2.464269 -1.374639
v -1.961351 1.389143 -2.267005
v -1.551595 2.686028 -0.8771269
v -1.088527 1.317565 -1.739342
v -1.961351 1.389143 -2.267005
v -0.7230321 1.114635 -2.649875
v -0.9344388 1.278089 -1.883979
v -1.022438 1.385009 -1.687045
v -0.5191469 1.236398 -2.431238
v -0.4169545 1.219796 -2.472835
v 2.078912 4.856994 -0.8380898
v 1.163641 4.580274 -1.378796
v 1.256904 4.500941 -1.432489
v 2.143258 4.778972 -0.8844792
v 1.501172 4.272795 -1.834574
v 2.916691 4.672131 -0.3035532
v 2.662106 4.479426 -1.278312
v 1.758558 4.252121 -1.774933
v 3.176759 4.401924 -0.6033966
v 3.216868 4.376863 -0.4775043
v 2.929055 4.645204 -0.1920927
vn 0.4688109 0.7201999 -0.5113984
vn 0.4795823 0.8768468 -0.03376917
vn 0.2061016 0.8501762 -0.4844816
vn 0.2367297 0.9586797 0.1577731
vn 0.7603478 0.5392359 0.3620716
vn 0.7672702 0.5447289 -0.3384773
vn 0.95663 0.1992664 -0.2124901
vn 0.2581076 0.7731603 0.5793131
vn 0.677651 0.4449691 0.5854841
vn 0.03907464 0.9496959 0.3107264
vn -0.1202493 0.9556886 0.2686997
vn -0.1682101 0.9624668 -0.2129858
vn -0.02396247 0.7286104 -0.6845091
vn -0.5190184 0.7392723 -0.4290645
vn -0.2777163 0.7625563 0.5842785
vn 0.1097616 0.5187876 0.8478277
vn -0.2164609 0.3987015 0.8911688
vn -0.3958518 0.9181409 -0.01785492
vn -0.6607697 0.6698118 -0.3387264
vn -0.8340102 0.404049 -0.3757277
vn -0.3833797 0.9036239 0.1910077
vn -0.6305666 0.5998769 0.4924768
vn -0.8434631 0.4365139 0.3130907
vn -0.8670927 0.3615527 -0.3426806
vn 0.7672702 0.5447289 -0.3384773
vn 0.4795823 0.8768468 -0.03376917
vn 0.4688109 0.7201999 -0.5113984
vn 0.5676276 0.2793555 -0.7744413
vn 0.2061016 0.8501762 -0.4844816
vn -0.02396247 0.7286104 -0.6845091
vn 0.2143496 0.322396 -0.9220169
vn 0.1106024 0.1303444 -0.9852804
vn 0.95663 0.1992664 -0.2124901
vn 0.3538788 0.1838364 -0.9170464
vn -0.2572411 0.02919405 -0.9659062
vn -0.2653801 0.0056856 -0.9641271
vn 0.4800995 0.3113875 -0.8200868
vn 0.8158532 0.4898926 -0.3072276
vn 0.8996527 0.348896 0.2624817
vn 0.1989268 -0.008225081 -0.9799799
vn 0.246777 0.1618119 -0.9554675
vn 0.09749471 -0.09867087 -0.9903327
vn 0.03129597 0.4458127 -0.894579
vn 0.06289077 -0.07693153 -0.9950509
vn 0.194708 -0.4324747 -0.8803717
vn 0.05029105 -0.3481943 -0.9360724
vn 0.2094496 -0.7408485 -0.6381806
vn 0.8996527 0.348896 0.2624817
vn 0.9603508 0.2784341 -0.01417051
vn 0.8176168 0.230379 0.527663
vn 0.7823559 0.294779 0.5486571
vn 0.95663 0.1992664 -0.2124901
vn 0.8069242 0.2833454 0.5182555
vn 0.7603478 0.5392359 0.3620716
vn 0.677651 0.4449691 0.5854841
vn 0.7616327 0.1317108 0.6344823
vn 0.7170483 0.07250477 0.6932423
vn 0.8456132 0.04209356 0.5321339
vn 0.7489412 -0.2226294 0.6241179
vn 0.9159172 -0.02883348 0.4003304
vn 0.50857 0.2238079 0.8314244
vn 0.5033726 0.05621818 0.8622387
vn 0.1097616 0.5187876 0.8478277
vn 0.2581076 0.7731603 0.5793131
vn -0.2164609 0.3987015 0.8911688
vn -0.1556128 -0.009698294 0.9877705
vn 0.7537979 -0.3374769 0.5638246
vn 0.5973273 -0.2347208 0.7668809
vn -0.1703549 -0.3948533 0.9028123
vn 0.09470471 -0.6703508 0.7359761
vn 0.3488274 -0.6738624 0.6513287
vn 0.5485254 -0.8237858 0.1431673
vn 0.8596964 -0.4970264 0.1178427
vn 0.9924596 -0.1060608 0.06144065
vn 0.9760248 0.03579788 -0.2146956
vn 0.9159172 -0.02883348 0.4003304
vn 0.8456132 0.04209356 0.5321339
vn 0.9760248 0.03579788 -0.2146956
vn 0.9858831 -0.01813156 -0.1664506
vn 0.8176168 0.230379 0.527663
vn 0.9603508 0.2784341 -0.01417051
vn 0.8442776 0.36386 -0.3934479
vn 0.6277789 0.05415619 -0.7765054
vn 0.5188574 0.5944879 -0.6143054
vn 0.3284495 0.3067645 -0.8933176
vn 0.7689627 0.01596072 -0.6390944
vn 0.7959248 -0.2335243 -0.5585428
vn 0.9924596 -0.1060608 0.06144065
vn 0.8596964 -0.4970264 0.1178427
vn 0.5155617 0.01763174 -0.8566711
vn 0.1315459 -0.02936572 -0.9908751
vn -0.2054844 -0.1173333 -0.9716012
vn 0.2796663 -0.3157699 -0.9066842
vn 0.6305289 -0.4980906 -0.5952638
vn 0.4970145 -0.8207185 -0.2817761
vn 0.5485254 -0.8237858 0.1431673
vn 0.05029105 -0.3481943 -0.9360724
vn 0.2094496 -0.7408485 -0.6381806
vn -0.1311967 -0.5210136 -0.8434052
vn -0.2054844 -0.1173333 -0.9716012
vn 0.2796663 -0.3157699 -0.9066842
vn 0.5155617 0.01763174 -0.8566711
vn 0.06289077 -0.07693153 -0.9950509
vn 0.1315459 -0.02936572 -0.9908751
vn 0.1989268 -0.008225081 -0.9799799
vn -0.2338991 0.4388072 -0.8676056
vn 0.3284495 0.3067645 -0.8933176
vn -0.2174288 0.5634417 -0.7970309
vn 0.3538788 0.1838364 -0.9170464
vn 0.6305289 -0.4980906 -0.5952638
vn 0.2796663 -0.3157699 -0.9066842
vn -0.1311967 -0.5210136 -0.8434052
vn 0.2094496 -0.7408485 -0.6381806
vn 0.4970145 -0.8207185 -0.2817761
vn 0.247869 -0.9500456 -0.1896687
vn 0.5485254 -0.8237858 0.1431673
vn 0.155329 -0.961954 -0.2247608
vn 0.03176911 -0.9982504 -0.04986823
vn 0.3488274 -0.6738624 0.6513287
vn 0.194708 -0.4324747 -0.8803717
vn 0.09470471 -0.6703508 0.7359761
vn 0.03184487 -0.8799161 -0.4740607
vn -0.1712464 -0.5469891 -0.8194373
vn -0.3132656 -0.6497403 -0.6926054
vn -0.3295003 -0.8789938 -0.344673
vn -0.09594046 -0.9930687 -0.06789759
vn -0.567765 -0.7519618 -0.3349573
vn -0.1187087 -0.9334126 0.3385988
vn -0.1703549 -0.3948533 0.9028123
vn -0.3070367 -0.4296797 0.8491783
vn -0.2022088 -0.9233192 0.3264861
vn -0.5242233 -0.4753091 0.7065913
vn -0.5191978 -0.7627678 0.3855113
vn -0.7954047 -0.6058637 -0.01613899
vn 0.09749471 -0.09867087 -0.9903327
vn -0.1712464 -0.5469891 -0.8194373
vn 0.194708 -0.4324747 -0.8803717
vn -0.6262103 -0.2589687 -0.7353883
vn -0.3132656 -0.6497403 -0.6926054
vn -0.3295003 -0.8789938 -0.344673
vn -0.567765 -0.7519618 -0.3349573
vn -0.6625947 0.01484233 -0.748831
vn 0.03129597 0.4458127 -0.894579
vn -0.2472945 0.44086 -0.8628371
vn -0.81261 0.1393089 -0.5659136
vn -0.2713215 0.6926374 -0.6683099
vn -0.8424084 -0.2515628 -0.4765127
vn -0.7954047 -0.6058637 -0.01613899
vn -0.9819257 -0.1887549 0.01390645
vn -0.9669445 0.06651822 -0.2461578
vn -0.8785297 0.1946027 -0.4362516
vn -0.5969146 0.7218469 -0.3501857
vn -0.3070367 -0.4296797 0.8491783
vn -0.485749 -0.1483175 0.8614231
vn -0.3281369 -0.0115803 0.9445592
vn -0.3947777 0.2325807 0.8888514
vn -0.4423118 0.0742239 0.8937848
vn -0.2509203 0.7500092 0.6119846
vn -0.1757135 0.9748259 0.137256
vn -0.6822197 0.6247937 0.3797487
vn -0.4900925 0.8542748 -0.1732741
vn -0.5969146 0.7218469 -0.3501857
vn -0.1238627 0.7865259 -0.6050083
vn -0.2713215 0.6926374 -0.6683099
vn -0.7012589 0.6483629 0.2964143
vn -0.7496581 0.2800472 -0.5996551
vn -0.7012589 0.6483629 0.2964143
vn -0.4423118 0.0742239 0.8937848
vn -0.1757135 0.9748259 0.137256
vn -0.9560847 0.1540506 0.2493397
vn -0.7055847 0.08134996 0.7039407
vn -0.996893 0.07507857 0.02382401
vn -0.8434631 0.4365139 0.3130907
vn -0.8670927 0.3615527 -0.3426806
vn -0.6305666 0.5998769 0.4924768
vn -0.2164609 0.3987015 0.8911688
vn -0.2777163 0.7625563 0.5842785
vn -0.1556128 -0.009698294 0.9877705
vn -0.3281369 -0.0115803 0.9445592
vn -0.1703549 -0.3948533 0.9028123
vn -0.3070367 -0.4296797 0.8491783
vn -0.3947777 0.2325807 0.8888514
vn -0.2509203 0.7500092 0.6119846
vn -0.6822197 0.6247937 0.3797487
vn -0.8701271 0.08923874 0.4846806
vn -0.8558897 -0.03839353 0.5157311
vn -0.485749 -0.1483175 0.8614231
vn -0.5242233 -0.4753091 0.7065913
vn -0.9324149 0.2183085 0.2879995
vn -0.4900925 0.8542748 -0.1732741
vn -0.8785297 0.1946027 -0.4362516
vn -0.5969146 0.7218469 -0.3501857
vn -0.9669445 0.06651822 -0.2461578
vn -0.9819257 -0.1887549 0.01390645
vn -0.5191978 -0.7627678 0.3855113
vn -0.7954047 -0.6058637 -0.01613899
vn -0.996893 0.07507857 0.02382401
vn -0.8340102 0.404049 -0.3757277
vn -0.8670927 0.3615527 -0.3426806
vn -0.8530359 -0.01701137 -0.521575
vn -0.7496581 0.2800472 -0.5996551
vn -0.9560847 0.1540506 0.2493397
vn -0.7012589 0.6483629 0.2964143
vn -0.2572411 0.02919405 -0.9659062
vn -0.6607697 0.6698118 -0.3387264
vn -0.5190184 0.7392723 -0.4290645
vn -0.4734328 0.4313265 -0.7679966
vn -0.1238627 0.7865259 -0.6050083
vn 0.08225385 0.8299765 -0.5517005
vn -0.2653801 0.0056856 -0.9641271
vn -0.4355917 0.5923583 -0.6777695
vn -0.3526992 0.8292131 -0.4336001
vn 0.246777 0.1618119 -0.9554675
vn -0.4720616 0.3526374 -0.8079633
vn 0.1106024 0.1303444 -0.9852804
vn -0.02396247 0.7286104 -0.6845091
vn 0.2143496 0.322396 -0.9220169
vn 0.08225385 0.8299765 -0.5517005
vn -0.2713215 0.6926374 -0.6683099
vn -0.2472945 0.44086 -0.8628371
vn -0.1238627 0.7865259 -0.6050083
vn 0.08225385 0.8299765 -0.5517005
vn -0.2472945 0.44086 -0.8628371
vn 0.03129597 0.4458127 -0.894579
vn -0.3526992 0.8292131 -0.4336001
vn -0.4734328 0.4313265 -0.7679966
vn -0.4355917 0.5923583 -0.6777695
vn 0.246777 0.1618119 -0.9554675
vn 0.4800995 0.3113875 -0.8200868
vn 0.3538788 0.1838364 -0.9170464
vn -0.2174288 0.5634417 -0.7970309
vn 0.2942107 0.7960051 -0.5289764
vn -0.2338991 0.4388072 -0.8676056
vn 0.8158532 0.4898926 -0.3072276
vn 0.5188574 0.5944879 -0.6143054
vn 0.3284495 0.3067645 -0.8933176
vn 0.8442776 0.36386 -0.3934479
vn 0.9603508 0.2784341 -0.01417051
vn 0.8996527 0.348896 0.2624817
vt 0.9855937 0.007563339
vt 0.9849166 0.007158809
vt 0.9833714 0.02449474
vt 0.9727731 0.01055953
vt 0.9821076 0.001402515
vt 0.9876856 0.004344773
vt 0.987821 0.001269017
vt 0.9650438 0.005205485
vt 0.9677287 0.001269018
vt 0.9689183 0.01174064
vt 0.9650363 0.01913186
vt 0.9814207 0.04015829
vt 0.9828339 0.04043658
vt 0.9786102 0.0430117
vt 0.9464904 0.03685855
vt 0.957453 0.005068167
vt 0.9455662 0.020666
vt 0.95408 0.03634015
vt 0.9688127 0.04499787
vt 0.9581595 0.04750345
vt 0.9506334 0.0363115
vt 0.945722 0.03851663
vt 0.9456009 0.04472248
vt 0.9522887 0.04738516
vt 0.8680922 0.379634
vt 0.8664628 0.3755864
vt 0.8658258 0.3759203
vt 0.8671276 0.3799236
vt 0.8515261 0.3756355
vt 0.8376129 0.378408
vt 0.8332531 0.3884879
vt 0.8322598 0.3905644
vt 0.8710608 0.3829465
vt 0.8514902 0.4016484
vt 0.8306955 0.3985198
vt 0.8317252 0.4082082
vt 0.8618567 0.3978621
vt 0.872036 0.399288
vt 0.8731911 0.3995187
vt 0.8483374 0.4303439
vt 0.8341171 0.4406188
vt 0.8332121 0.4537173
vt 0.8306955 0.4420244
vt 0.8532125 0.4540389
vt 0.8367068 0.4666578
vt 0.8564008 0.4658378
vt 0.8573346 0.4672026
vt 0.2377499 0.8094757
vt 0.2334972 0.8125895
vt 0.2433925 0.8162702
vt 0.2463892 0.8094878
vt 0.2362644 0.792814
vt 0.2443141 0.7907929
vt 0.2411597 0.7897617
vt 0.2537414 0.7908249
vt 0.2538152 0.8119307
vt 0.2576661 0.8310391
vt 0.2464443 0.8316903
vt 0.2488925 0.8639395
vt 0.2478516 0.8633277
vt 0.2607727 0.7966127
vt 0.2663378 0.8399315
vt 0.264689 0.7926694
vt 0.2578076 0.7872595
vt 0.2828316 0.79528
vt 0.2828316 0.8497621
vt 0.260199 0.8697228
vt 0.2643243 0.8697737
vt 0.2812563 0.8726287
vt 0.274403 0.8768051
vt 0.2703556 0.8765489
vt 0.2508168 0.877237
vt 0.2408153 0.8664063
vt 0.2399829 0.8651114
vt 0.2368246 0.8552673
vt 0.9424402 0.5811501
vt 0.9424402 0.5494739
vt 0.9294915 0.572928
vt 0.9308664 0.5518282
vt 0.9412987 0.5339633
vt 0.9317916 0.5300891
vt 0.9303643 0.5297472
vt 0.9202152 0.5299362
vt 0.9209126 0.5284848
vt 0.9107196 0.5306293
vt 0.9206873 0.5547195
vt 0.9191396 0.5825524
vt 0.9364142 0.5827433
vt 0.9365181 0.5840692
vt 0.9117486 0.5570619
vt 0.9077718 0.5527645
vt 0.908417 0.5862667
vt 0.9097215 0.5876921
vt 0.9137263 0.5887188
vt 0.9194616 0.5962231
vt 0.9320263 0.5954005
vt 0.4295393 0.6041226
vt 0.4294052 0.6055273
vt 0.4347095 0.6018401
vt 0.4352021 0.5992824
vt 0.4369272 0.6006793
vt 0.4374776 0.5699868
vt 0.4291259 0.5921685
vt 0.4345588 0.565841
vt 0.4291259 0.5682581
vt 0.4351804 0.5433865
vt 0.4372931 0.5436409
vt 0.4305489 0.5406641
vt 0.429363 0.5397421
vt 0.9658354 0.2502584
vt 0.9670048 0.2458763
vt 0.965996 0.2437967
vt 0.961289 0.2414148
vt 0.9555303 0.2490078
vt 0.9547129 0.2475633
vt 0.9449503 0.2563384
vt 0.9542533 0.2383294
vt 0.9470006 0.2295706
vt 0.9231924 0.250425
vt 0.9669728 0.2188808
vt 0.9212375 0.2467033
vt 0.9633751 0.2147974
vt 0.9638553 0.2139715
vt 0.962397 0.2121747
vt 0.9434403 0.2015472
vt 0.942057 0.2077399
vt 0.9390323 0.1973506
vt 0.9283843 0.2272777
vt 0.9180587 0.2397902
vt 0.9185672 0.2208747
vt 0.9304179 0.2133757
vt 0.9180587 0.2075293
vt 0.9302565 0.199752
vt 0.9335674 0.1958435
vt 0.8359804 0.9654161
vt 0.8301963 0.9807765
vt 0.8359804 0.9785196
vt 0.8155769 0.9730504
vt 0.8278956 0.9808729
vt 0.806499 0.9834119
vt 0.8005012 0.981958
vt 0.8186191 0.9531549
vt 0.835497 0.9535874
vt 0.8215021 0.9500235
vt 0.8107886 0.9464242
vt 0.8134276 0.937522
vt 0.7993737 0.9810246
vt 0.7955226 0.9807262
vt 0.7903674 0.9650511
vt 0.7924858 0.9511768
vt 0.8008953 0.9417917
vt 0.8022652 0.9349943
vt 0.3362823 0.8716858
vt 0.3462742 0.8675126
vt 0.3347818 0.8609678
vt 0.3462742 0.8309268
vt 0.8873183 0.07354352
vt 0.8873183 0.09652593
vt 0.8909286 0.09646743
vt 0.8885591 0.103116
vt 0.8930542 0.1035826
vt 0.9049326 0.1061641
vt 0.9146211 0.0932571
vt 0.9168913 0.1031807
vt 0.8912148 0.09589364
vt 0.9146782 0.09233651
vt 0.3126779 0.8242868
vt 0.2931519 0.8300561
vt 0.3129931 0.8247634
vt 0.3126294 0.8232305
vt 0.3119008 0.8011267
vt 0.3129158 0.8007662
vt 0.3100438 0.7924468
vt 0.3154271 0.7920061
vt 0.3041494 0.7879054
vt 0.2886348 0.7940483
vt 0.3029582 0.7872595
vt 0.2853697 0.8484017
vt 0.2999689 0.8572994
vt 0.288925 0.8708525
vt 0.3029115 0.867973
vt 0.3101268 0.8274775
vt 0.310911 0.8261276
vt 0.3168171 0.8254801
vt 0.3201619 0.8390794
vt 0.3212682 0.8496178
vt 0.3116703 0.8639801
vt 0.3121105 0.8651183
vt 0.318817 0.8303853
vt 0.3198662 0.824148
vt 0.3319224 0.8322361
vt 0.3294157 0.8255786
vt 0.3285489 0.8428978
vt 0.3282931 0.8570406
vt 0.326864 0.8726518
vt 0.3319224 0.8717812
vt 0.1014538 0.9064799
vt 0.112819 0.8965519
vt 0.1076053 0.8983916
vt 0.1290654 0.9125733
vt 0.1211955 0.9318992
vt 0.1008708 0.9287623
vt 0.1004795 0.9297973
vt 0.1388422 0.9067671
vt 0.1235013 0.8897614
vt 0.1331691 0.8876153
vt 0.1305626 0.9471559
vt 0.1205839 0.9325656
vt 0.1302437 0.9479312
vt 0.138513 0.9164969
vt 0.1397707 0.9487941
vt 0.1325741 0.9483578
vt 0.1409965 0.9489645
vt 0.1396926 0.8978198
vt 0.1404771 0.8988813
vt 0.1380994 0.8870154
vt 0.1409965 0.89685
vt 0.2308786 0.6878719
vt 0.2230349 0.6770144
vt 0.2209971 0.6905615
vt 0.2308786 0.6715537
vt 0.3830943 0.1810397
vt 0.3829701 0.1924987
vt 0.3940024 0.1829345
vt 0.3853957 0.1804227
vt 0.3829701 0.1800943
vt 0.3930898 0.1796853
vt 0.3940946 0.1789547
vt 0.5658669 0.3609483
vt 0.5652232 0.3728974
vt 0.5663257 0.3723706
vt 0.5667196 0.3606451
vt 0.5716555 0.3726327
vt 0.5661791 0.3497951
vt 0.5737104 0.3583002
vt 0.5727188 0.3698597
vt 0.5706636 0.3492715
vt 0.5697468 0.3481095
vt 0.5652232 0.3489825
usemtl MV_RockSpire_Rocks
f 1/1/1 3/3/3 2/2/2
f 2/2/2 3/3/3 4/4/4
f 2/2/2 4/4/4 5/5/5
f 5/5/5 6/6/6 2/2/2
f 5/5/5 7/7/7 6/6/6
f 4/4/4 8/8/8 5/5/5
f 8/8/8 9/9/9 5/5/5
f 10/10/10 4/4/4 3/3/3
f 10/10/10 8/8/8 4/4/4
f 3/3/3 11/11/11 10/10/10
f 10/10/10 11/11/11 8/8/8
f 11/11/11 3/3/3 12/12/12
f 3/3/3 13/13/13 12/12/12
f 12/12/12 13/13/13 14/14/14
f 14/14/14 11/11/11 12/12/12
f 11/11/11 15/15/15 8/8/8
f 15/15/15 16/16/16 8/8/8
f 16/16/16 15/15/15 17/17/17
f 14/14/14 18/18/18 11/11/11
f 14/14/14 19/19/19 18/18/18
f 18/18/18 19/19/19 20/20/20
f 21/21/21 15/15/15 11/11/11
f 11/11/11 18/18/18 21/21/21
f 21/21/21 18/18/18 20/20/20
f 15/15/15 21/21/21 22/22/22
f 21/21/21 20/20/20 22/22/22
f 20/20/20 23/23/23 22/22/22
f 24/24/24 23/23/23 20/20/20
f 25/25/25 27/27/27 26/26/26
f 28/28/28 27/27/27 25/25/25
f 27/27/27 28/28/28 29/29/29
f 28/28/28 30/30/30 29/29/29
f 28/28/28 31/31/31 30/30/30
f 31/31/31 28/28/28 32/32/32
f 33/33/33 28/28/28 25/25/25
f 32/32/32 28/28/28 34/34/34
f 35/35/35 32/32/32 34/34/34
f 34/34/34 36/36/36 35/35/35
f 34/34/34 28/28/28 37/37/37
f 37/37/37 28/28/28 33/33/33
f 38/38/38 37/37/37 33/33/33
f 33/33/33 39/39/39 38/38/38
f 36/36/36 34/34/34 40/40/40
f 36/36/36 40/40/40 41/41/41
f 42/42/42 41/41/41 40/40/40
f 41/41/41 42/42/42 43/43/43
f 42/42/42 40/40/40 44/44/44
f 45/45/45 42/42/42 44/44/44
f 45/45/45 44/44/44 46/46/46
f 46/46/46 47/47/47 45/45/45
f 48/48/48 50/50/50 49/49/49
f 48/48/48 51/51/51 50/50/50
f 51/51/51 48/48/48 52/52/52
f 52/52/52 53/53/53 51/51/51
f 54/54/54 53/53/53 52/52/52
f 55/55/55 53/53/53 54/54/54
f 51/51/51 53/53/53 56/56/56
f 50/50/50 51/51/51 56/56/56
f 56/56/56 53/53/53 55/55/55
f 57/57/57 50/50/50 56/56/56
f 57/57/57 58/58/58 50/50/50
f 57/57/57 59/59/59 58/58/58
f 58/58/58 59/59/59 60/60/60
f 61/61/61 56/56/56 55/55/55
f 56/56/56 62/62/62 57/57/57
f 56/56/56 61/61/61 62/62/62
f 63/63/63 61/61/61 55/55/55
f 64/64/64 63/63/63 55/55/55
f 61/61/61 63/63/63 65/65/65
f 65/65/65 62/62/62 61/61/61
f 65/65/65 66/66/66 62/62/62
f 67/67/67 57/57/57 62/62/62
f 57/57/57 67/67/67 59/59/59
f 66/66/66 68/68/68 62/62/62
f 68/68/68 67/67/67 62/62/62
f 68/68/68 66/66/66 69/69/69
f 69/69/69 70/70/70 68/68/68
f 68/68/68 70/70/70 71/71/71
f 67/67/67 68/68/68 71/71/71
f 71/71/71 72/72/72 67/67/67
f 67/67/67 72/72/72 59/59/59
f 72/72/72 73/73/73 59/59/59
f 73/73/73 60/60/60 59/59/59
f 73/73/73 74/74/74 60/60/60
f 74/74/74 75/75/75 60/60/60
f 76/76/76 78/78/78 77/77/77
f 78/78/78 79/79/79 77/77/77
f 79/79/79 80/80/80 77/77/77
f 79/79/79 81/81/81 80/80/80
f 81/81/81 79/79/79 82/82/82
f 83/83/83 82/82/82 79/79/79
f 84/84/84 82/82/82 83/83/83
f 85/85/85 84/84/84 83/83/83
f 83/83/83 79/79/79 86/86/86
f 86/86/86 79/79/79 78/78/78
f 85/85/85 83/83/83 86/86/86
f 78/78/78 87/87/87 86/86/86
f 87/87/87 78/78/78 88/88/88
f 87/87/87 88/88/88 89/89/89
f 86/86/86 90/90/90 85/85/85
f 90/90/90 86/86/86 87/87/87
f 85/85/85 90/90/90 91/91/91
f 90/90/90 92/92/92 91/91/91
f 93/93/93 90/90/90 87/87/87
f 94/94/94 93/93/93 87/87/87
f 94/94/94 87/87/87 95/95/95
f 89/89/89 95/95/95 87/87/87
f 89/89/89 96/96/96 95/95/95
f 97/97/97 99/99/99 98/98/98
f 97/97/97 100/100/100 99/99/99
f 101/101/101 99/99/99 100/100/100
f 102/102/102 101/101/101 100/100/100
f 97/97/97 103/103/103 100/100/100
f 103/103/103 104/104/104 100/100/100
f 103/103/103 105/105/105 104/104/104
f 105/105/105 106/106/106 104/104/104
f 107/107/107 104/104/104 106/106/106
f 105/105/105 108/108/108 106/106/106
f 105/105/105 109/109/109 108/108/108
f 110/110/110 112/112/112 111/111/111
f 113/113/113 112/112/112 110/110/110
f 110/110/110 114/114/114 113/113/113
f 114/114/114 115/115/115 113/113/113
f 116/116/116 115/115/115 114/114/114
f 117/117/117 113/113/113 115/115/115
f 117/117/117 115/115/115 116/116/116
f 118/118/118 117/117/117 116/116/116
f 116/116/116 119/119/119 118/118/118
f 117/117/117 120/120/120 113/113/113
f 119/119/119 121/121/121 118/118/118
f 117/117/117 122/122/122 120/120/120
f 122/122/122 117/117/117 118/118/118
f 122/122/122 123/123/123 120/120/120
f 122/122/122 124/124/124 123/123/123
f 125/125/125 124/124/124 122/122/122
f 125/125/125 122/122/122 126/126/126
f 122/122/122 118/118/118 126/126/126
f 127/127/127 125/125/125 126/126/126
f 121/121/121 128/128/128 118/118/118
f 128/128/128 121/121/121 129/129/129
f 128/128/128 129/129/129 130/130/130
f 118/118/118 128/128/128 131/131/131
f 131/131/131 128/128/128 130/130/130
f 126/126/126 118/118/118 131/131/131
f 132/132/132 131/131/131 130/130/130
f 132/132/132 133/133/133 131/131/131
f 126/126/126 131/131/131 133/133/133
f 133/133/133 127/127/127 126/126/126
f 133/133/133 134/134/134 127/127/127
f 135/135/135 137/137/137 136/136/136
f 136/136/136 138/138/138 135/135/135
f 139/139/139 138/138/138 136/136/136
f 139/139/139 140/140/140 138/138/138
f 140/140/140 141/141/141 138/138/138
f 138/138/138 142/142/142 135/135/135
f 143/143/143 135/135/135 142/142/142
f 142/142/142 144/144/144 143/143/143
f 144/144/144 142/142/142 145/145/145
f 145/145/145 142/142/142 138/138/138
f 146/146/146 144/144/144 145/145/145
f 147/147/147 138/138/138 141/141/141
f 145/145/145 138/138/138 147/147/147
f 147/147/147 141/141/141 148/148/148
f 148/148/148 149/149/149 147/147/147
f 149/149/149 150/150/150 147/147/147
f 145/145/145 147/147/147 150/150/150
f 151/151/151 145/145/145 150/150/150
f 145/145/145 151/151/151 146/146/146
f 151/151/151 152/152/152 146/146/146
f 153/153/153 155/155/155 154/154/154
f 155/155/155 156/156/156 154/154/154
f 157/157/157 159/159/159 158/158/158
f 159/159/159 160/160/160 158/158/158
f 159/159/159 161/161/161 160/160/160
f 161/161/161 159/159/159 162/162/162
f 159/159/159 163/163/163 162/162/162
f 163/163/163 164/164/164 162/162/162
f 165/165/165 163/163/163 159/159/159
f 165/165/165 166/166/166 163/163/163
f 167/167/167 169/169/169 168/168/168
f 170/170/170 167/167/167 168/168/168
f 171/171/171 170/170/170 168/168/168
f 172/172/172 170/170/170 171/171/171
f 172/172/172 171/171/171 173/173/173
f 174/174/174 172/172/172 173/173/173
f 175/175/175 173/173/173 171/171/171
f 176/176/176 175/175/175 171/171/171
f 176/176/176 171/171/171 168/168/168
f 177/177/177 175/175/175 176/176/176
f 176/176/176 168/168/168 178/178/178
f 178/178/178 168/168/168 179/179/179
f 179/179/179 180/180/180 178/178/178
f 179/179/179 181/181/181 180/180/180
f 182/182/182 179/179/179 168/168/168
f 168/168/168 183/183/183 182/182/182
f 184/184/184 182/182/182 183/183/183
f 182/182/182 184/184/184 185/185/185
f 182/182/182 185/185/185 186/186/186
f 182/182/182 186/186/186 187/187/187
f 181/181/181 187/187/187 188/188/188
f 187/187/187 186/186/186 188/188/188
f 189/189/189 185/185/185 184/184/184
f 184/184/184 190/190/190 189/189/189
f 189/189/189 190/190/190 191/191/191
f 190/190/190 192/192/192 191/191/191
f 193/193/193 189/189/189 191/191/191
f 189/189/189 193/193/193 185/185/185
f 193/193/193 186/186/186 185/185/185
f 193/193/193 194/194/194 186/186/186
f 188/188/188 186/186/186 194/194/194
f 195/195/195 188/188/188 194/194/194
f 196/196/196 195/195/195 194/194/194
f 197/197/197 199/199/199 198/198/198
f 200/200/200 197/197/197 198/198/198
f 201/201/201 197/197/197 200/200/200
f 202/202/202 197/197/197 201/201/201
f 202/202/202 201/201/201 203/203/203
f 200/200/200 198/198/198 204/204/204
f 204/204/204 198/198/198 205/205/205
f 204/204/204 205/205/205 206/206/206
f 201/201/201 200/200/200 207/207/207
f 207/207/207 208/208/208 201/201/201
f 207/207/207 209/209/209 208/208/208
f 200/200/200 204/204/204 210/210/210
f 207/207/207 200/200/200 210/210/210
f 207/207/207 210/210/210 211/211/211
f 211/211/211 212/212/212 207/207/207
f 210/210/210 213/213/213 211/211/211
f 214/214/214 204/204/204 206/206/206
f 204/204/204 214/214/214 215/215/215
f 206/206/206 216/216/216 214/214/214
f 214/214/214 217/217/217 215/215/215
f 216/216/216 217/217/217 214/214/214
f 218/218/218 220/220/220 219/219/219
f 218/218/218 219/219/219 221/221/221
f 222/222/222 224/224/224 223/223/223
f 224/224/224 222/222/222 225/225/225
f 226/226/226 225/225/225 222/222/222
f 224/224/224 225/225/225 227/227/227
f 227/227/227 228/228/228 224/224/224
f 229/229/229 231/231/231 230/230/230
f 229/229/229 232/232/232 231/231/231
f 231/231/231 232/232/232 233/233/233
f 234/234/234 232/232/232 229/229/229
f 232/232/232 235/235/235 233/233/233
f 235/235/235 232/232/232 234/234/234
f 233/233/233 235/235/235 236/236/236
f 235/235/235 234/234/234 237/237/237
f 234/234/234 238/238/238 237/237/237
f 234/234/234 239/239/239 238/238/238
