mtllib P_RockDesert_HoodooCliff04.mtl
v 2.791595 -0.5630016 -8.595215
v 0.4969482 -7.312582 -7.547058
v 2.791595 -7.450956 -8.595215
v 0.4981079 -0.5630016 -7.390198
v 2.814911 5.831347 -8.345917
v 2.791595 -0.5630016 -8.595215
v 0.5882263 5.831347 -7.175995
v -1.79538 -0.5630016 -8.595215
v 0.4981079 -0.5630016 -7.390198
v -1.638458 5.831347 -8.345917
v -3.932556 -0.5960445 -7.709961
v -3.713409 5.831339 -7.48645
v -1.310028 13.31889 -7.462372
v -1.638458 5.831347 -8.345917
v -3.164368 13.31888 -6.694275
v -5.495209 5.831347 -6.119232
v -4.756714 13.31889 -5.472412
v -8.309692 5.831347 -2.262482
v -5.495209 5.831347 -6.119232
v -6.746643 13.31889 -2.025757
v -4.449036 18.11238 -5.164429
v -6.326233 18.10684 -1.913025
v -6.740326 22.19809 -2.025909
v -4.751648 22.20982 -5.470398
v -3.160309 22.20982 -6.691467
v -3.645691 27.22367 -4.359924
v -2.946869 18.11238 -6.317078
v -5.247375 27.01413 -1.624512
v -1.307159 22.20982 -7.459045
v -1.197601 18.11238 -7.041656
v -0.9052124 27.24101 -5.916748
v -2.380371 27.22253 -5.332397
v 0.681488 22.20982 -6.414185
v 0.6796265 18.11238 -6.055328
v -3.912231 29.52557 -1.274414
v -2.701263 29.6508 -3.436768
v -3.243011 29.36082 -0.04400635
v -2.380371 27.22253 -5.332397
v -1.717102 29.64586 -4.218201
v -4.366638 26.7435 -0.03866577
v -3.951202 29.2951 1.202789
v -5.295837 26.6081 1.563202
v -3.566345 29.27096 2.38562
v -4.704712 26.59687 3.041199
v -2.372986 29.74039 4.143555
v -2.677887 26.99059 5.268921
v -0.9161377 29.58033 4.247772
v -1.234497 27.21943 5.850433
v 0.3722839 29.59735 4.073669
v 0.3947449 27.23413 5.06778
v 1.694641 29.68815 4.288422
v 2.081604 27.2876 5.85376
v 2.950775 29.67961 4.170319
v 3.668457 27.27085 5.264801
v 4.037354 29.67702 3.385742
v 4.991882 27.27243 4.28656
v 4.872101 29.65226 2.379486
v 5.97821 27.26611 3.013611
v 5.374725 29.63553 1.210541
v 6.589813 27.24761 1.54068
v 4.752106 29.61288 -0.05651855
v 5.701691 27.2283 -0.04336548
v 5.387817 29.63517 -1.339233
v 6.589722 27.24765 -1.62384
v 3.074066 29.64204 -4.420685
v 3.733093 27.22152 -5.333252
v 1.985168 29.67292 -4.530884
v 2.248077 27.24002 -5.91748
v 0.7060547 29.61503 -4.130554
v 0.6810913 27.20076 -5.145081
v -0.5717468 29.70569 -4.304779
v -0.9052124 27.24101 -5.916748
v -1.717102 29.64586 -4.218201
v 7.154388 22.8777 -0.1118774
v 8.319305 22.87769 -2.100555
v 4.523315 22.20982 -6.691467
v 8.300781 22.9512 1.861115
v 7.473267 23.18404 3.665863
v 6.123627 23.16276 5.242157
v 4.400848 22.83047 6.496216
v 7.721375 18.46898 1.814941
v 6.971985 18.85056 3.539154
v 6.630463 18.26859 -0.05236816
v 7.729706 18.24912 -1.928284
v 4.306122 18.11238 -6.317078
v 2.556824 18.11238 -7.041656
v 2.670166 22.20982 -7.459045
v 2.500366 22.68468 7.276001
v 0.5404053 22.46548 6.2677
v -1.38501 22.13881 7.374878
v 0.7003784 18.21963 5.982025
v -1.179047 18.02353 6.981506
v -3.234131 21.78523 6.649872
v -6.036987 21.49485 3.848236
v -2.994537 17.867 6.239532
v -5.295837 26.6081 1.563202
v -5.757324 18.24086 3.612457
v -6.785004 21.66752 1.981781
v -6.785004 21.66752 1.981781
v -6.33432 17.97103 1.846893
v 2.546204 18.53542 6.939331
v 0.7003784 18.21963 5.982025
v 4.284546 18.71262 6.206421
v 4.562744 13.35131 6.630035
v 2.707886 13.34671 7.398193
v 0.7003784 18.21963 5.982025
v 0.723877 13.34564 6.354797
v -1.179047 18.02353 6.981506
v 4.889862 5.831347 7.414856
v 2.814911 5.831347 8.274323
v 4.928802 -0.5960445 7.638336
v 6.15097 13.35129 5.407257
v 5.796783 18.91311 5.039734
v -1.302002 13.32686 7.392212
v 0.5882263 5.831347 7.105225
v -2.490784 5.831339 8.274323
v -3.247864 13.18386 6.581268
v -5.294891 6.011347 7.56897
v 6.671661 5.831347 6.047607
v 4.889862 5.831347 7.414856
v 6.764038 -0.6994762 6.230103
v 7.350067 13.33001 3.810638
v 8.038879 5.831347 4.265839
v 8.172272 -0.5960522 4.394867
v 6.764038 -0.6994762 6.230103
v 8.898346 5.831347 2.190887
v 8.106445 13.31889 1.954132
v 9.057526 -0.5630016 2.25766
v 8.172272 -0.5960522 4.394867
v 6.940796 13.31889 -0.03582764
v 7.594025 5.831347 -0.03579712
v 8.898346 5.831339 -2.262512
v 8.106445 13.31888 -2.025757
v 4.52417 13.31889 -6.694275
v 7.714081 -0.5630016 -0.03582764
v 7.594025 5.831347 -0.03579712
v 9.057526 -0.5630093 -2.329285
v 7.714081 -0.5630016 -0.03582764
v 4.889862 5.831347 -7.48645
v 9.057526 -0.5630093 -2.329285
v 5.320892 -0.6705608 -7.433228
v 2.814911 5.831347 -8.345917
v 2.66983 13.31889 -7.462372
v 5.320892 -0.6705608 -7.433228
v 2.791595 -7.450956 -8.595215
v 5.320892 -7.580602 -7.433228
v 9.057526 -0.5630093 -2.329285
v 0.5882263 5.831347 -7.175995
v 0.6799011 13.31889 -6.416809
v 9.057526 -7.534765 -2.329285
v 7.869354 -7.396116 -0.03582764
v 7.251953 -9.861141 -1.923737
v 9.057526 -7.491018 2.25766
v 6.640747 -9.818897 -0.1296082
v 8.172272 -7.529562 4.394867
v 6.764038 -0.6994762 6.230103
v 7.251923 -9.783743 1.696869
v 6.764038 -7.720205 6.230103
v 6.503571 -9.827198 3.302307
v 5.50885 -10.34903 1.890106
v 4.626007 -10.36517 -0.2145996
v 4.630524 -10.31508 3.675476
v 4.928802 -7.532026 7.638336
v 5.569031 -9.91711 4.835266
v 3.960876 -9.770208 5.855743
v 2.791595 -0.5630016 8.776276
v 2.791595 -7.509932 8.799835
v 2.318542 -9.739981 6.462677
v 2.5802 -10.28316 4.027863
v 2.697662 -10.35701 2.090668
v 0.4981079 -0.5630016 8.275543
v 0.4992371 -7.441045 8.435486
v -2.361847 -0.5630093 9.479706
v 0.3208313 -9.628996 6.517761
v -2.392975 -7.523275 9.499512
v -6.125336 -0.5960445 7.98587
v 0.5355225 -10.26402 4.190308
v -6.172119 -7.579802 8.014832
v -9.368835 -0.5960522 4.394867
v -2.070953 -9.614805 6.714508
v -9.396729 -7.618551 4.358978
v -10.25409 -0.5630016 2.25769
v 0.3587341 -10.26377 2.048187
v -2.116333 -10.02088 4.693604
v -4.470917 -9.500608 6.004425
v -7.926819 -9.312017 4.091858
v -4.641357 -9.793013 3.957428
v -2.104095 -10.08368 2.413696
v 2.127319 -10.44246 0.06845093
v -10.24994 -7.565221 2.230499
v -5.044312 -9.827579 2.266296
v 0.03967285 -10.35649 0.005065918
v 4.02179 -10.36107 -2.626343
v 1.974335 -10.59832 -3.098114
v 4.567017 -9.757757 -5.867432
v 2.563324 -9.590933 -6.633545
v 2.791595 -7.450956 -8.595215
v -1.776489 -10.28597 0.05853271
v 0.1878052 -10.41207 -3.2854
v 0.5090332 -9.476019 -6.306396
v 0.4969482 -7.312582 -7.547058
v -1.978882 -10.26346 -3.112885
v -4.80603 -10.01619 -0.2703247
v -1.539734 -9.529982 -6.405457
v -8.563568 -9.208868 2.284454
v -4.392334 -10.11538 -2.833435
v -1.938934 -7.634245 -8.411987
v -1.79538 -0.5630016 -8.595215
v -6.961304 -9.265188 0.2008057
v -9.12027 -7.465032 -0.03497314
v -3.354279 -9.418333 -5.89035
v -4.140533 -7.508146 -7.544922
v -3.932556 -0.5960445 -7.709961
v -4.892395 -9.304457 -4.997986
v -5.925903 -7.441603 -6.207428
v -6.972229 -9.224745 -1.857605
v -8.745209 -7.464086 -2.326843
v -8.591461 -0.5630016 -2.329285
v -8.913116 -0.5630016 -0.03579712
v -8.612793 5.831347 -0.03579712
v -9.595001 6.622057 2.399597
v -5.925903 -7.441603 -6.207428
v -8.591461 -0.5630016 -2.329285
v -5.767792 -0.6994762 -6.301727
v -3.932556 -0.5960445 -7.709961
v -5.925903 -7.441603 -6.207428
v -4.140533 -7.508146 -7.544922
v -6.746643 13.31889 -2.025757
v -5.58316 13.31889 -0.03582764
v -9.595001 6.622057 2.399597
v -6.746643 13.31889 1.954132
v -8.309692 5.831347 -2.262482
v -8.913116 -0.5630016 -0.03579712
v -8.591461 -0.5630016 -2.329285
v -5.495209 5.831347 -6.119232
v -8.591461 -0.5630016 -2.329285
v -5.767792 -0.6994762 -6.301727
v -3.713409 5.831339 -7.48645
v -9.368835 -0.5960522 4.394867
v -10.25409 -0.5630016 2.25769
v -8.706085 6.505396 4.458923
v -6.746643 13.31889 1.954132
v -6.265289 14.12145 3.825195
v -5.294891 6.011347 7.56897
v -6.125336 -0.5960445 7.98587
v -3.247864 13.18386 6.581268
v -2.994537 17.867 6.239532
v -5.757324 18.24086 3.612457
v -6.33432 17.97103 1.846893
v -6.746643 13.31889 1.954132
v -5.228668 18.0662 -0.03579712
v -5.58316 13.31889 -0.03582764
v -6.326233 18.10684 -1.913025
v -6.746643 13.31889 -2.025757
v -6.740326 22.19809 -2.025909
v -5.590942 21.99413 -0.02816772
v -5.247375 27.01413 -1.624512
v -4.366638 26.7435 -0.03866577
v -5.295837 26.6081 1.563202
v -2.946869 18.11238 -6.317078
v -4.449036 18.11238 -5.164429
v -4.756714 13.31889 -5.472412
v -3.164368 13.31888 -6.694275
v -1.197601 18.11238 -7.041656
v -1.310028 13.31889 -7.462372
v 0.6796265 18.11238 -6.055328
v 0.6799011 13.31889 -6.416809
v 2.556824 18.11238 -7.041656
v 2.66983 13.31889 -7.462372
v 2.670166 22.20982 -7.459045
v 2.248077 27.24002 -5.91748
v 0.6810913 27.20076 -5.145081
v -1.307159 22.20982 -7.459045
v 0.6799011 13.31889 -6.416809
v 2.248077 27.24002 -5.91748
v 4.523315 22.20982 -6.691467
v 4.306122 18.11238 -6.317078
v 2.556824 18.11238 -7.041656
v 4.52417 13.31889 -6.694275
v 8.106445 13.31888 -2.025757
v 7.729706 18.24912 -1.928284
v 4.52417 13.31889 -6.694275
v 7.729706 18.24912 -1.928284
v 6.940796 13.31889 -0.03582764
v -4.613831 35.26036 3.319794
v -2.806793 33.182 6.056702
v -4.773285 33.17044 3.502502
v -2.269928 35.1591 5.760529
v -1.139313 33.33803 6.611908
v -0.6834106 35.14285 6.253632
v -2.111633 36.84369 5.17572
v -0.6587219 36.84078 5.548096
v -4.290192 36.90454 2.974823
v -4.893707 36.91196 1.536743
v -5.263245 35.28152 1.718018
v -2.251526 38.52156 5.158478
v -0.7759399 38.53155 5.463257
v -2.082855 43.18608 4.811584
v -4.09256 43.23579 2.782227
v -4.483154 38.54952 2.945801
v -4.691437 43.30015 1.447479
v -5.140015 38.53417 1.534302
v 0.7580566 36.86961 4.575897
v 0.9576721 35.17478 5.316833
v -0.6834106 35.14285 6.253632
v 0.6402588 33.53143 5.723572
v -1.139313 33.33803 6.611908
v 2.492249 33.72554 6.58316
v 2.584595 35.19817 6.257385
v 4.162537 33.87508 5.916565
v 4.009827 35.21753 5.7258
v -0.5401001 31.62553 5.111725
v 0.9508057 31.82613 4.685883
v 2.510803 31.9981 5.097992
v -2.200867 31.60628 4.938873
v -2.806793 33.182 6.056702
v -4.773285 33.17044 3.502502
v -3.65744 31.13567 2.81311
v 3.964264 32.15344 4.847534
v 5.476532 33.97898 4.790375
v 0.3722839 29.59735 4.073669
v 1.694641 29.68815 4.288422
v -0.9161377 29.58033 4.247772
v -2.372986 29.74039 4.143555
v -3.566345 29.27096 2.38562
v 2.950775 29.67961 4.170319
v -3.951202 29.2951 1.202789
v 5.186066 32.26369 3.909943
v 4.037354 29.67702 3.385742
v -4.181885 31.12396 1.414276
v -3.243011 29.36082 -0.04400635
v -4.773285 33.17044 3.502502
v 6.489685 34.06387 3.350555
v 5.144745 35.22198 4.679657
v 6.118652 32.33733 2.707916
v 4.872101 29.65226 2.379486
v -3.317383 31.28329 -0.08935547
v -3.912231 29.52557 -1.274414
v -5.475891 33.09674 1.826935
v -4.613831 35.26036 3.319794
v -5.035675 33.21264 -0.03030396
v -4.200226 31.31468 -1.568542
v -5.587097 33.05701 -2.191315
v -3.20993 31.41466 -4.028259
v -2.701263 29.6508 -3.436768
v -4.629181 33.12993 -4.852753
v -1.717102 29.64586 -4.218201
v -1.942657 31.62255 -4.781097
v -2.599854 33.23349 -6.044037
v -0.5717468 29.70569 -4.304779
v -0.3204651 31.79436 -5.277557
v -1.15033 33.40271 -6.594421
v 0.7060547 29.61503 -4.130554
v 1.169617 31.93416 -4.888794
v -1.15033 33.40271 -6.594421
v 0.6033936 33.56703 -5.810516
v 1.985168 29.67292 -4.530884
v 2.744934 32.07649 -5.3508
v 0.6033936 33.56703 -5.810516
v 3.074066 29.64204 -4.420685
v 2.474915 33.7365 -6.664551
v 4.298096 32.20251 -4.799103
v 5.387817 29.63517 -1.339233
v 6.637146 32.41808 -1.976257
v 7.230225 34.12429 -2.342957
v 4.752106 29.61288 -0.05651855
v 5.842682 32.32393 -0.1643677
v 5.374725 29.63553 1.210541
v 4.82605 33.87579 -5.580383
v 4.879822 35.28795 -5.138519
v 7.019318 35.25588 -2.109833
v 6.690765 32.39217 1.318054
v 6.678955 34.03295 -0.09054565
v 7.16394 34.11896 1.682281
v 6.392487 35.25119 0.005096436
v 6.738739 35.23509 1.719391
v 6.078125 35.22681 3.313629
v 4.79007 36.92624 3.02002
v 5.353088 36.91958 1.584991
v 4.158417 38.58492 2.977692
v 3.799957 38.63406 4.241516
v 4.372253 36.96513 4.280426
v 2.784637 38.59904 5.147614
v 3.175873 36.92619 5.188721
v 3.245392 43.63295 3.730499
v 2.295563 43.56721 4.574738
v 1.803558 38.58344 5.439209
v 1.300323 43.49553 4.697388
v 2.07843 36.9012 5.559235
v 4.009827 35.21753 5.7258
v 2.584595 35.19817 6.257385
v 0.9576721 35.17478 5.316833
v 0.5674133 38.56176 4.676788
v 0.1800537 43.38092 4.283051
v -0.8060608 43.2723 4.843994
v 1.997375 46.04904 3.917572
v 0.9142151 46.49599 3.72049
v -0.00958252 46.39542 3.60141
v -0.9409485 46.28951 3.921448
v 2.96817 45.81767 3.266632
v 3.508667 46.10753 2.345123
v 2.224731 46.95555 2.457611
v 0.9017944 46.87366 2.744629
v 3.652924 43.60873 2.608521
v 3.526733 46.40547 1.176178
v 4.675629 38.55444 1.710327
v 4.167664 43.53944 1.504089
v 4.688202 38.56187 -0.04751587
v 4.215454 43.50193 -0.08374023
v 2.549011 46.91568 1.167511
v 3.747345 46.41802 -0.3479309
v -0.03881836 46.75876 2.847778
v 4.154327 46.43923 -1.626038
v 4.752045 43.46253 -1.792847
v 1.177338 46.87095 1.294556
v 2.939392 46.87319 -0.3193359
v 3.217224 45.83036 -3.75946
v 3.851868 43.43376 -4.311493
v 2.772339 46.70221 -1.952515
v 1.565674 46.83181 -0.1700134
v 0.007995605 46.75547 1.444733
v -1.431091 46.60742 3.341644
v 1.966064 45.96288 -4.038483
v 1.496887 46.57379 -2.001556
v 0.2280273 46.76055 -0.04943848
v -1.952515 45.69276 4.134521
v -1.64743 46.55276 1.7771
v -2.564789 46.41273 2.951416
v -3.561462 45.60154 2.409454
v -3.058258 46.27581 1.6203
v -1.329102 46.41082 0.01028442
v 0.5228882 46.48543 -1.941132
v -3.821808 45.8331 1.246857
v -2.817535 45.93071 -0.04083252
v -4.575348 43.29198 -0.04995728
v 0.7256775 45.68179 -4.047089
v -1.141235 46.00377 -1.907288
v -3.681488 45.26021 -0.1662903
v -4.947418 38.50365 -0.04367065
v -4.893707 36.91196 1.536743
v -4.636322 36.90294 -0.07611084
v -4.773956 43.28678 -1.833984
v -5.236298 38.51016 -1.970337
v -4.981171 36.89983 -1.97348
v -4.842773 35.29485 -0.04690552
v -2.163269 45.625 -1.603027
v -3.666504 44.96077 -1.358032
v -3.75293 41.88955 -3.749542
v -3.11554 44.38831 -2.880249
v -2.261902 41.86514 -4.944855
v -1.696686 44.78736 -3.982513
v -0.9890137 42.22791 -5.131531
v -0.6601868 45.35817 -4.233856
v 0.2670288 42.8129 -4.644806
v -0.9694824 38.52071 -5.646057
v 1.968262 43.02733 -4.976593
v 0.3111267 38.43083 -4.995941
v 2.190552 38.53231 -5.583771
v 4.150604 38.61383 -4.739746
v 4.150604 38.61383 -4.739746
v 4.752045 43.46253 -1.792847
v 2.433075 36.91489 -5.638824
v 4.186462 36.9232 -4.888428
v 5.28363 38.57883 -1.909119
v 5.904175 36.90896 -1.809082
v 4.688202 38.56187 -0.04751587
v 4.215454 43.50193 -0.08374023
v 4.752045 43.46253 -1.792847
v 5.299591 36.91039 -0.01864624
v 4.675629 38.55444 1.710327
v 7.019318 35.25588 -2.109833
v 4.186462 36.9232 -4.888428
v 4.879822 35.28795 -5.138519
v 6.392487 35.25119 0.005096436
v 6.738739 35.23509 1.719391
v 5.299591 36.91039 -0.01864624
v 4.82605 33.87579 -5.580383
v 2.807739 35.29209 -6.25351
v 5.904175 36.90896 -1.809082
v 6.392487 35.25119 0.005096436
v 0.6033936 33.56703 -5.810516
v 2.474915 33.7365 -6.664551
v 0.8720398 35.2607 -5.47287
v 2.433075 36.91489 -5.638824
v 4.186462 36.9232 -4.888428
v 4.879822 35.28795 -5.138519
v 0.5952148 36.85855 -4.924377
v -0.6192627 35.30652 -6.227722
v -0.727356 36.917 -5.62323
v -1.15033 33.40271 -6.594421
v 0.6033936 33.56703 -5.810516
v -2.593597 35.30809 -5.699768
v -2.599854 33.23349 -6.044037
v -1.15033 33.40271 -6.594421
v -4.629181 33.12993 -4.852753
v -2.286377 36.92243 -5.227478
v -2.500885 38.54006 -5.255157
v -4.371307 35.27622 -4.448181
v -5.587097 33.05701 -2.191315
v -3.960419 36.95089 -4.096924
v -5.329987 35.28341 -2.121185
v -5.035675 33.21264 -0.03030396
v -5.475891 33.09674 1.826935
v -4.636322 36.90294 -0.07611084
v -4.893707 36.91196 1.536743
v -4.842773 35.29485 -0.04690552
v -3.960419 36.95089 -4.096924
v -5.236298 38.51016 -1.970337
v -2.500885 38.54006 -5.255157
v -3.986084 38.5092 -3.941559
v -2.261902 41.86514 -4.944855
v -0.9890137 42.22791 -5.131531
v -3.75293 41.88955 -3.749542
v -4.773956 43.28678 -1.833984
v -5.236298 38.51016 -1.970337
v 0.3111267 38.43083 -4.995941
v -0.727356 36.917 -5.62323
v 0.5952148 36.85855 -4.924377
v -2.994537 17.867 6.239532
v -1.179047 18.02353 6.981506
v -1.302002 13.32686 7.392212
v -3.247864 13.18386 6.581268
v -2.380371 27.22253 -5.332397
v -3.645691 27.22367 -4.359924
v -4.751648 22.20982 -5.470398
v -3.160309 22.20982 -6.691467
v 4.009827 35.21753 5.7258
v 5.476532 33.97898 4.790375
v 4.162537 33.87508 5.916565
v 0.723877 13.34564 6.354797
v 2.707886 13.34671 7.398193
v 0.5882263 5.831347 7.105225
v -2.361847 -0.5630093 9.479706
v -6.125336 -0.5960445 7.98587
v -2.490784 5.831339 8.274323
v 0.4981079 -0.5630016 8.275543
v 3.175873 36.92619 5.188721
v 5.144745 35.22198 4.679657
v 4.009827 35.21753 5.7258
v 4.372253 36.96513 4.280426
v 4.79007 36.92624 3.02002
v 5.144745 35.22198 4.679657
v -4.483154 38.54952 2.945801
v -2.251526 38.52156 5.158478
v -4.290192 36.90454 2.974823
v -5.140015 38.53417 1.534302
v -4.290192 36.90454 2.974823
v -4.893707 36.91196 1.536743
v 2.190552 38.53231 -5.583771
v 0.3111267 38.43083 -4.995941
v 0.5952148 36.85855 -4.924377
v -3.234131 21.78523 6.649872
v -1.38501 22.13881 7.374878
v -2.994537 17.867 6.239532
v 6.123627 23.16276 5.242157
v 7.473267 23.18404 3.665863
v 5.796783 18.91311 5.039734
v 5.796783 18.91311 5.039734
v 4.284546 18.71262 6.206421
vn -0.02410002 0.02038932 -0.9995016
vn -0.02768497 -0.3258138 -0.9450285
vn 0.001120475 -0.3094605 -0.9509116
vn -0.008772569 0.01787301 -0.9998018
vn -0.03651454 0.07493271 -0.9965198
vn -0.02410002 0.02038932 -0.9995016
vn -9.832095E-05 0.06790075 -0.9976921
vn 0.02860627 0.01356611 -0.9994987
vn -0.008772569 0.01787301 -0.9998018
vn 0.04284197 0.0759005 -0.9961946
vn -0.4961811 0.02039637 -0.8679794
vn -0.4983425 0.08689749 -0.8626144
vn 0.04888085 0.1008542 -0.9936997
vn 0.04284197 0.0759005 -0.9961946
vn -0.4966336 0.1090339 -0.8610846
vn -0.721539 0.09599159 -0.6856873
vn -0.7364635 0.1182244 -0.6660665
vn -0.948962 0.1416569 -0.281788
vn -0.721539 0.09599159 -0.6856873
vn -0.9799474 0.1715025 -0.101439
vn -0.75235 -0.007138966 -0.658725
vn -0.9999216 -0.008309735 0.009373955
vn -0.9952984 0.09632912 -0.01008202
vn -0.7482148 0.09755095 -0.6562457
vn -0.4965192 0.09777842 -0.8625011
vn -0.6995084 0.3880683 -0.6000758
vn -0.5000095 -0.007160287 -0.8659903
vn -0.9286234 0.3704079 0.021371
vn 0.02956951 0.0913768 -0.9953773
vn 0.05371745 -0.007054649 -0.9985313
vn 0.0414155 0.3833856 -0.9226593
vn -0.4376172 0.3968734 -0.806835
vn -0.0006960499 0.08795666 -0.9961241
vn 7.187606E-05 -0.005902443 -0.9999826
vn -0.983363 0.1607575 0.08458337
vn -0.7586986 0.0797301 -0.6465443
vn -0.9851751 0.1714299 0.006475817
vn -0.4376172 0.3968734 -0.806835
vn -0.4022607 0.09654598 -0.9104204
vn -0.9436239 0.3302374 0.02274139
vn -0.9753726 0.1846192 -0.1206814
vn -0.9344093 0.3510462 -0.06038104
vn -0.8777677 0.1602164 0.4515026
vn -0.8083693 0.3462118 0.4761054
vn -0.5741801 0.06490397 0.8161524
vn -0.5393542 0.3602357 0.7611355
vn 0.05324019 0.07135683 0.9960289
vn 0.02727371 0.3797546 0.9246852
vn 0.02136847 0.07590206 0.9968863
vn -0.007928774 0.3706818 0.9287261
vn -0.06774227 0.09818777 0.9928596
vn -0.05188791 0.3812133 0.9230298
vn 0.385458 0.0737021 0.9197772
vn 0.4112292 0.4039826 0.8171222
vn 0.6930936 0.03349615 0.720069
vn 0.6251293 0.4052376 0.6670801
vn 0.8595318 0.03042243 0.510176
vn 0.7814406 0.4167143 0.4644348
vn 0.9968291 0.006043575 -0.07934234
vn 0.914835 0.3995236 -0.0588044
vn 0.9998233 0.007413531 -0.01727777
vn 0.9341149 0.3569617 -0.002788309
vn 0.9986884 0.007407104 -0.05066295
vn 0.9174412 0.3917814 -0.06934674
vn 0.5269977 0.04723195 -0.8485531
vn 0.5357295 0.3804668 -0.7538162
vn -0.08142508 0.08105133 -0.9933783
vn -0.05520387 0.3618203 -0.930612
vn -0.01683936 0.06531609 -0.9977225
vn -0.01730856 0.3581401 -0.9335074
vn 0.03307948 0.04523934 -0.9984283
vn 0.0414155 0.3833856 -0.9226593
vn -0.4022607 0.09654598 -0.9104204
vn 0.9936439 0.1123829 0.006470053
vn 0.9886331 0.1179926 -0.09317955
vn 0.591207 0.09364045 -0.8010654
vn 0.9933141 0.1082359 -0.0401497
vn 0.8462923 0.1377165 0.5146101
vn 0.6806906 0.1334178 0.7203193
vn 0.481868 0.113383 0.8688772
vn 0.9976821 -0.02233613 -0.06427708
vn 0.8550711 -0.01783598 0.518204
vn 0.9997434 -0.02265031 0.0002040795
vn 0.9980105 -0.02204941 -0.05906775
vn 0.6064029 -0.01162035 -0.7950727
vn -0.05386538 -0.007029018 -0.9985234
vn -0.02977012 0.09139607 -0.9953696
vn -0.03261916 0.09977118 0.9944756
vn 0.009819475 0.1003986 0.9948989
vn 0.0354569 0.09807982 0.9945467
vn 0.004051003 0.003304127 0.9999863
vn 0.06807974 -0.001920672 0.997678
vn -0.557699 0.07367257 0.8267674
vn -0.8387182 0.07316759 0.539628
vn -0.5374869 -0.002809159 0.8432674
vn -0.9344093 0.3510462 -0.06038104
vn -0.845799 -0.01282328 0.5333476
vn -0.9948695 0.08321165 -0.05753673
vn -0.9948695 0.08321165 -0.05753673
vn -0.9915854 -0.0001186605 -0.1294543
vn -0.04390775 0.0009216027 0.9990352
vn 0.004051003 0.003304127 0.9999863
vn 0.5006073 0.008920356 0.8656285
vn 0.4973707 0.1025223 0.861459
vn -0.04459237 0.1014234 0.9938434
vn 0.004051003 0.003304127 0.9999863
vn -0.02360062 0.08180732 0.9963687
vn 0.06807974 -0.001920672 0.997678
vn 0.509657 0.07630319 0.8569875
vn 0.004221675 0.1051763 0.9944447
vn 0.5321783 0.02125548 0.8463655
vn 0.7049056 0.09990983 0.7022294
vn 0.7001107 -0.00312616 0.7140275
vn 0.05882641 0.107023 0.9925148
vn -0.01199772 0.1230351 0.9923298
vn 0.02087822 0.1508099 0.9883422
vn -0.4894699 0.1707516 0.8551393
vn -0.5005729 0.1736198 0.8481055
vn 0.7064485 0.06940034 0.7043537
vn 0.509657 0.07630319 0.8569875
vn 0.7067584 0.01455107 0.7073054
vn 0.8636193 0.09683996 0.4947562
vn 0.8649535 0.06822108 0.4971935
vn 0.8656873 0.01409095 0.5003868
vn 0.7067584 0.01455107 0.7073054
vn 0.9958643 0.06269928 -0.06575058
vn 0.9935144 0.0882652 -0.07168343
vn 0.9980689 0.01480698 -0.06032707
vn 0.8656873 0.01409095 0.5003868
vn 0.9972399 0.07423878 -0.001062183
vn 0.9985699 0.05346199 -1.555203E-06
vn 0.9957265 0.06867684 -0.06174295
vn 0.9936979 0.09417851 -0.06078586
vn 0.6057957 0.1000422 -0.7893055
vn 0.9998872 0.01501659 -1.820473E-05
vn 0.9985699 0.05346199 -1.555203E-06
vn 0.9978964 0.01896904 -0.06199182
vn 0.9998872 0.01501659 -1.820473E-05
vn 0.6083388 0.07247449 -0.7903615
vn 0.9978964 0.01896904 -0.06199182
vn 0.6305774 0.01627134 -0.7759558
vn -0.03651454 0.07493271 -0.9965198
vn -0.04536466 0.1016748 -0.9937828
vn 0.6305774 0.01627134 -0.7759558
vn 0.001120475 -0.3094605 -0.9509116
vn 0.5810996 -0.3262279 -0.7455861
vn 0.9978964 0.01896904 -0.06199182
vn -9.832095E-05 0.06790075 -0.9976921
vn -0.00168427 0.08773039 -0.9961428
vn 0.954464 -0.2872131 -0.0806676
vn 0.9608983 -0.2769014 -3.138429E-05
vn 0.5990779 -0.7992478 -0.04804634
vn 0.9551299 -0.2955105 -0.02001075
vn 0.5361356 -0.8439245 -0.01871329
vn 0.8271049 -0.3268308 0.4572517
vn 0.7067584 0.01455107 0.7073054
vn 0.6281032 -0.7773332 -0.03520632
vn 0.6580666 -0.3571265 0.6628794
vn 0.499568 -0.824703 0.2651353
vn 0.1888584 -0.9816005 0.028162
vn 0.1297353 -0.9915364 -0.004926288
vn 0.1080238 -0.9847962 0.1360421
vn 0.4803933 -0.3507191 0.8038771
vn 0.39024 -0.8318111 0.3947188
vn 0.2292197 -0.8507563 0.4729398
vn 0.09891071 0.05120055 0.9937782
vn 0.1464185 -0.3559311 0.9229706
vn 0.06560922 -0.8600123 0.5060379
vn 0.002099983 -0.9909205 0.134432
vn -0.01004195 -0.9995533 0.02815036
vn 0.05625082 0.08635011 0.9946756
vn 0.07413854 -0.3993939 0.9137768
vn 0.01645046 0.08479301 0.9962627
vn 0.01335768 -0.8753489 0.4833074
vn -0.02041843 -0.3946825 0.9185906
vn -0.5520099 0.06007832 0.8316704
vn -0.03648414 -0.9916781 0.1234645
vn -0.5106555 -0.3957722 0.7632794
vn -0.8394968 0.0446519 0.5415269
vn -0.04055585 -0.8911479 0.4518967
vn -0.7912685 -0.3718332 0.4854216
vn -0.9980259 0.04400856 -0.04480665
vn -0.04943053 -0.9979887 0.03968756
vn -0.07714764 -0.9888372 0.1274717
vn -0.2316773 -0.8939074 0.3837383
vn -0.4125792 -0.8663191 0.2815486
vn -0.1242373 -0.9881874 0.08972635
vn -0.08108833 -0.9956856 0.0451107
vn -0.009242658 -0.9994457 0.03198391
vn -0.929912 -0.3614094 -0.06816843
vn -0.1510653 -0.9883232 0.01991286
vn -0.05536384 -0.9976953 0.03923048
vn 0.1242588 -0.9886745 -0.08415788
vn -0.006391876 -0.9926781 -0.1206207
vn 0.3498223 -0.8214386 -0.4504032
vn -0.000238071 -0.8170364 -0.5765859
vn 0.001120475 -0.3094605 -0.9509116
vn -0.06815775 -0.99691 0.03905092
vn -0.05953548 -0.9885998 -0.1382971
vn -0.0476759 -0.8302642 -0.5553271
vn -0.02768497 -0.3258138 -0.9450285
vn -0.06864222 -0.990021 -0.1230719
vn -0.1933247 -0.9811179 0.005767465
vn -0.03736247 -0.8456416 -0.5324419
vn -0.5212275 -0.8513263 -0.05970987
vn -0.2194199 -0.9660297 -0.1365338
vn -0.0237566 -0.3645411 -0.9308842
vn 0.02860627 0.01356611 -0.9994987
vn -0.4355184 -0.8938431 -0.1066229
vn -0.8638437 -0.3999598 -0.306278
vn -0.2734078 -0.8413725 -0.4661978
vn -0.4584457 -0.3630495 -0.8111859
vn -0.4961811 0.02039637 -0.8679794
vn -0.4548242 -0.7897402 -0.4116374
vn -0.6720433 -0.3430352 -0.6562658
vn -0.5283701 -0.8292372 -0.1821831
vn -0.8685465 -0.3636893 -0.3366853
vn -0.9265581 0.03403993 -0.3746082
vn -0.9506938 0.03895151 -0.3076752
vn -0.9557453 0.1808866 -0.232015
vn -0.970221 0.2343273 -0.06133528
vn -0.6720433 -0.3430352 -0.6562658
vn -0.9265581 0.03403993 -0.3746082
vn -0.7161244 0.02706922 -0.6974476
vn -0.4961811 0.02039637 -0.8679794
vn -0.6720433 -0.3430352 -0.6562658
vn -0.4584457 -0.3630495 -0.8111859
vn -0.9799474 0.1715025 -0.101439
vn -0.9778357 0.1976707 -0.0690194
vn -0.970221 0.2343273 -0.06133528
vn -0.957623 0.2544257 -0.1350023
vn -0.948962 0.1416569 -0.281788
vn -0.9506938 0.03895151 -0.3076752
vn -0.9265581 0.03403993 -0.3746082
vn -0.721539 0.09599159 -0.6856873
vn -0.9265581 0.03403993 -0.3746082
vn -0.7161244 0.02706922 -0.6974476
vn -0.4983425 0.08689749 -0.8626144
vn -0.8394968 0.0446519 0.5415269
vn -0.9980259 0.04400856 -0.04480665
vn -0.8169959 0.2057451 0.5386897
vn -0.957623 0.2544257 -0.1350023
vn -0.8272849 0.2009787 0.5246021
vn -0.5005729 0.1736198 0.8481055
vn -0.5520099 0.06007832 0.8316704
vn -0.4894699 0.1707516 0.8551393
vn -0.5374869 -0.002809159 0.8432674
vn -0.845799 -0.01282328 0.5333476
vn -0.9915854 -0.0001186605 -0.1294543
vn -0.957623 0.2544257 -0.1350023
vn -0.999948 -0.009207602 -0.004371521
vn -0.9778357 0.1976707 -0.0690194
vn -0.9999216 -0.008309735 0.009373955
vn -0.9799474 0.1715025 -0.101439
vn -0.9952984 0.09632912 -0.01008202
vn -0.9961419 0.08766066 0.004138513
vn -0.9286234 0.3704079 0.021371
vn -0.9436239 0.3302374 0.02274139
vn -0.9344093 0.3510462 -0.06038104
vn -0.5000095 -0.007160287 -0.8659903
vn -0.75235 -0.007138966 -0.658725
vn -0.7364635 0.1182244 -0.6660665
vn -0.4966336 0.1090339 -0.8610846
vn 0.05371745 -0.007054649 -0.9985313
vn 0.04888085 0.1008542 -0.9936997
vn 7.187606E-05 -0.005902443 -0.9999826
vn -0.00168427 0.08773039 -0.9961428
vn -0.05386538 -0.007029018 -0.9985234
vn -0.04536466 0.1016748 -0.9937828
vn -0.02977012 0.09139607 -0.9953696
vn -0.05520387 0.3618203 -0.930612
vn -0.01730856 0.3581401 -0.9335074
vn 0.02956951 0.0913768 -0.9953773
vn -0.00168427 0.08773039 -0.9961428
vn -0.05520387 0.3618203 -0.930612
vn 0.591207 0.09364045 -0.8010654
vn 0.6064029 -0.01162035 -0.7950727
vn -0.05386538 -0.007029018 -0.9985234
vn 0.6057957 0.1000422 -0.7893055
vn 0.9936979 0.09417851 -0.06078586
vn 0.9980105 -0.02204941 -0.05906775
vn 0.6057957 0.1000422 -0.7893055
vn 0.9980105 -0.02204941 -0.05906775
vn 0.9972399 0.07423878 -0.001062183
vn -0.8223988 0.2134799 0.5273392
vn -0.5297468 -0.2210982 0.8188308
vn -0.8341894 -0.2084345 0.5105712
vn -0.4974509 0.2801971 0.8209947
vn 0.04110202 -0.2050053 0.9778975
vn 0.1313516 0.2713851 0.9534656
vn -0.4914107 0.162002 0.8557283
vn 0.164666 0.2251624 0.9603057
vn -0.8249492 0.09380367 0.5573686
vn -0.9932089 0.0322372 0.1117889
vn -0.9835351 0.1568603 0.08974157
vn -0.4687046 0.03400476 0.8827003
vn 0.1727318 0.07172404 0.982354
vn -0.4073958 0.1822316 0.8948856
vn -0.8176607 0.1777515 0.5475724
vn -0.8259951 -0.00202651 0.5636737
vn -0.9682008 0.2115905 0.133479
vn -0.9882751 -0.02798625 0.150097
vn -0.02078902 0.1589297 0.987071
vn -0.05672854 0.2835711 0.9572718
vn 0.1313516 0.2713851 0.9534656
vn 0.09556245 -0.2334986 0.9676499
vn 0.04110202 -0.2050053 0.9778975
vn -0.03419847 -0.1835001 0.9824247
vn -0.0463268 0.3049415 0.9512437
vn 0.4982541 -0.1735449 0.8494852
vn 0.4850451 0.3185861 0.8143919
vn 0.1275115 -0.4794271 0.8682686
vn 0.01805985 -0.426841 0.9041463
vn 0.02024699 -0.4734238 0.8806021
vn -0.4096461 -0.514417 0.7533693
vn -0.5297468 -0.2210982 0.8188308
vn -0.8341894 -0.2084345 0.5105712
vn -0.8080362 -0.3657515 0.4618478
vn 0.4274157 -0.4680534 0.773461
vn 0.7366629 -0.09446973 0.6696293
vn 0.02136847 0.07590206 0.9968863
vn -0.06774227 0.09818777 0.9928596
vn 0.05324019 0.07135683 0.9960289
vn -0.5741801 0.06490397 0.8161524
vn -0.8777677 0.1602164 0.4515026
vn 0.385458 0.0737021 0.9197772
vn -0.9753726 0.1846192 -0.1206814
vn 0.667354 -0.4182874 0.6161772
vn 0.6930936 0.03349615 0.720069
vn -0.9256989 -0.3736601 -0.0588188
vn -0.9851751 0.1714299 0.006475817
vn -0.8341894 -0.2084345 0.5105712
vn 0.8760151 -0.02566383 0.4816005
vn 0.7059615 0.3714658 0.6030188
vn 0.8110391 -0.3844932 0.4408862
vn 0.8595318 0.03042243 0.510176
vn -0.9469801 -0.3212745 0.003391896
vn -0.983363 0.1607575 0.08458337
vn -0.9665241 -0.2498958 0.05816647
vn -0.8223988 0.2134799 0.5273392
vn -0.9634637 -0.2677115 -0.008256626
vn -0.8796484 -0.4745428 0.03206074
vn -0.9567916 -0.285084 -0.05724426
vn -0.6136058 -0.532665 -0.5828859
vn -0.7586986 0.0797301 -0.6465443
vn -0.7351363 -0.2637483 -0.6245089
vn -0.4022607 0.09654598 -0.9104204
vn -0.2978698 -0.5198973 -0.8006124
vn -0.3791354 -0.260265 -0.8879856
vn 0.03307948 0.04523934 -0.9984283
vn 0.08882285 -0.4726334 -0.8767715
vn -0.0001116902 -0.2113018 -0.9774209
vn -0.01683936 0.06531609 -0.9977225
vn -0.03690736 -0.4227074 -0.9055144
vn -0.0001116902 -0.2113018 -0.9774209
vn 0.08867622 -0.2045158 -0.9748384
vn -0.08142508 0.08105133 -0.9933783
vn 0.06444502 -0.4552417 -0.8880326
vn 0.08867622 -0.2045158 -0.9748384
vn 0.5269977 0.04723195 -0.8485531
vn -0.007295755 -0.1545564 -0.9879571
vn 0.5553877 -0.4498192 -0.6994334
vn 0.9986884 0.007407104 -0.05066295
vn 0.8956125 -0.4274715 -0.123071
vn 0.9717743 -0.1009527 -0.213221
vn 0.9998233 0.007413531 -0.01727777
vn 0.9332566 -0.3586226 -0.02054315
vn 0.9968291 0.006043575 -0.07934234
vn 0.6161764 -0.1408622 -0.7749094
vn 0.6409518 0.3225209 -0.6965351
vn 0.9238088 0.3588762 -0.1333609
vn 0.9282598 -0.3701061 -0.03681121
vn 0.9979354 -0.06341629 -0.01016153
vn 0.998394 0.006053091 0.05632675
vn 0.9057966 0.421098 0.04700078
vn 0.8812572 0.4634122 0.09292423
vn 0.7991812 0.4401693 0.4093415
vn 0.8258256 0.4582315 0.3286885
vn 0.8558193 0.5005255 0.1305667
vn 0.9167758 0.2297252 0.3267238
vn 0.8060501 0.2081237 0.5540468
vn 0.7429764 0.4015155 0.5355105
vn 0.4460268 0.1513157 0.8821358
vn 0.456373 0.3087119 0.8345183
vn 0.7965388 0.1768992 0.5781286
vn 0.3840756 0.2183517 0.8971111
vn -0.1502784 0.06229752 0.986679
vn -0.1304478 0.1880049 0.9734668
vn -0.1591986 0.1991816 0.9669449
vn 0.4850451 0.3185861 0.8143919
vn -0.0463268 0.3049415 0.9512437
vn -0.05672854 0.2835711 0.9572718
vn 0.01212096 0.04462133 0.9989305
vn 0.04457102 0.1857813 0.9815797
vn 0.1965423 0.1922013 0.9614727
vn 0.3050325 0.5339524 0.7885748
vn -0.05536698 0.6759328 0.7348805
vn 0.007707618 0.6807888 0.7324392
vn 0.0573239 0.6266478 0.7771914
vn 0.6921879 0.4212996 0.5859886
vn 0.8018778 0.4870413 0.3460965
vn 0.2636523 0.9278056 0.2639399
vn -0.02581 0.9744465 0.2231319
vn 0.9288423 0.1393749 0.3432588
vn 0.7838621 0.6027234 0.1492809
vn 0.9502391 0.2394863 0.1992287
vn 0.9714603 0.1445351 0.1880814
vn 0.9618998 0.2273781 0.1518155
vn 0.9744967 0.1429502 0.1729778
vn 0.2373063 0.9701466 0.0500135
vn 0.7582554 0.6403662 0.1223926
vn -0.08202054 0.9783662 0.1899269
vn 0.7590505 0.6441348 -0.09451292
vn 0.9855154 0.1645474 -0.04103229
vn -0.06792785 0.9973396 -0.02644822
vn 0.2032163 0.9789761 -0.01757894
vn 0.4784886 0.599066 -0.6420035
vn 0.6715139 0.2111818 -0.7102615
vn 0.1229611 0.9658635 -0.2280094
vn -0.06267218 0.9946057 -0.08265458
vn -0.1258115 0.9914767 -0.0338429
vn -0.1806393 0.9206634 0.3460469
vn 0.005738229 0.6937563 -0.720187
vn -0.07288299 0.9668921 -0.2445559
vn -0.1484602 0.982688 -0.1108333
vn -0.3771478 0.4278437 0.8214069
vn -0.1782763 0.9816031 -0.06835838
vn -0.4697822 0.8093889 0.352412
vn -0.7720472 0.4587901 0.4398351
vn -0.4439341 0.8956885 -0.02578027
vn -0.2492864 0.9524198 -0.1753651
vn -0.1761241 0.9511423 -0.2535915
vn -0.7736656 0.6332733 -0.02015942
vn -0.3888136 0.8827295 -0.2638424
vn -0.9658011 0.2573178 -0.03187137
vn -0.1297543 0.6728244 -0.7283345
vn -0.331732 0.89669 -0.2930886
vn -0.7336431 0.6489458 -0.2015867
vn -0.9988895 -0.04529911 0.01294995
vn -0.9932089 0.0322372 0.1117889
vn -0.9999338 -0.004939381 0.01039318
vn -0.9058333 0.3265912 -0.2698227
vn -0.9817303 -0.01281553 -0.1898455
vn -0.9896035 0.05410339 -0.1332585
vn -0.9915972 0.1293287 0.002994312
vn -0.4288851 0.8412022 -0.3292969
vn -0.6834859 0.6677147 -0.2949647
vn -0.7228898 0.2249216 -0.6533303
vn -0.5935468 0.5750921 -0.5630021
vn -0.449872 0.2224071 -0.8649569
vn -0.4715447 0.5745141 -0.6690136
vn 0.01768725 0.2006267 -0.9795081
vn -0.1895483 0.6414087 -0.7434153
vn 0.03162616 0.1801125 -0.9831375
vn 0.0850642 0.05565341 -0.9948199
vn 0.05174196 0.1948782 -0.9794617
vn 0.09449385 0.05218793 -0.9941566
vn 0.02965935 0.06313906 -0.997564
vn 0.693236 0.1338622 -0.7081701
vn 0.693236 0.1338622 -0.7081701
vn 0.9855154 0.1645474 -0.04103229
vn 0.02180084 0.1804875 -0.9833357
vn 0.6301767 0.297099 -0.717363
vn 0.9791179 0.1941162 -0.06039179
vn 0.8985884 0.4326254 -0.07330877
vn 0.9618998 0.2273781 0.1518155
vn 0.9744967 0.1429502 0.1729778
vn 0.9855154 0.1645474 -0.04103229
vn 0.8806683 0.4600712 0.1129501
vn 0.9502391 0.2394863 0.1992287
vn 0.9238088 0.3588762 -0.1333609
vn 0.6301767 0.297099 -0.717363
vn 0.6409518 0.3225209 -0.6965351
vn 0.9057966 0.421098 0.04700078
vn 0.8812572 0.4634122 0.09292423
vn 0.8806683 0.4600712 0.1129501
vn 0.6161764 -0.1408622 -0.7749094
vn 0.07662829 0.2922259 -0.9532744
vn 0.8985884 0.4326254 -0.07330877
vn 0.9057966 0.421098 0.04700078
vn 0.08867622 -0.2045158 -0.9748384
vn -0.007295755 -0.1545564 -0.9879571
vn -0.008077683 0.2691233 -0.9630719
vn 0.02180084 0.1804875 -0.9833357
vn 0.6301767 0.297099 -0.717363
vn 0.6409518 0.3225209 -0.6965351
vn 0.05459381 0.1599641 -0.985612
vn 0.122392 0.2476237 -0.9610946
vn 0.1273859 0.1898057 -0.9735228
vn -0.0001116902 -0.2113018 -0.9774209
vn 0.08867622 -0.2045158 -0.9748384
vn -0.4147995 0.257001 -0.8728642
vn -0.3791354 -0.260265 -0.8879856
vn -0.0001116902 -0.2113018 -0.9774209
vn -0.7351363 -0.2637483 -0.6245089
vn -0.4138866 0.1497279 -0.8979306
vn -0.4483998 0.04157858 -0.8928655
vn -0.7577736 0.2325094 -0.6096872
vn -0.9567916 -0.285084 -0.05724426
vn -0.7543858 0.1363478 -0.6421147
vn -0.9809778 0.174559 -0.08492143
vn -0.9634637 -0.2677115 -0.008256626
vn -0.9665241 -0.2498958 0.05816647
vn -0.9999338 -0.004939381 0.01039318
vn -0.9932089 0.0322372 0.1117889
vn -0.9915972 0.1293287 0.002994312
vn -0.7543858 0.1363478 -0.6421147
vn -0.9817303 -0.01281553 -0.1898455
vn -0.4483998 0.04157858 -0.8928655
vn -0.760378 0.0312869 -0.6487268
vn -0.449872 0.2224071 -0.8649569
vn 0.01768725 0.2006267 -0.9795081
vn -0.7228898 0.2249216 -0.6533303
vn -0.9058333 0.3265912 -0.2698227
vn -0.9817303 -0.01281553 -0.1898455
vn 0.09449385 0.05218793 -0.9941566
vn 0.1273859 0.1898057 -0.9735228
vn 0.05459381 0.1599641 -0.985612
vn -0.5374869 -0.002809159 0.8432674
vn 0.06807974 -0.001920672 0.997678
vn 0.05882641 0.107023 0.9925148
vn -0.4894699 0.1707516 0.8551393
vn -0.4376172 0.3968734 -0.806835
vn -0.6995084 0.3880683 -0.6000758
vn -0.7482148 0.09755095 -0.6562457
vn -0.4965192 0.09777842 -0.8625011
vn 0.4850451 0.3185861 0.8143919
vn 0.7366629 -0.09446973 0.6696293
vn 0.4982541 -0.1735449 0.8494852
vn -0.02360062 0.08180732 0.9963687
vn -0.04459237 0.1014234 0.9938434
vn -0.01199772 0.1230351 0.9923298
vn 0.01645046 0.08479301 0.9962627
vn -0.5520099 0.06007832 0.8316704
vn 0.02087822 0.1508099 0.9883422
vn 0.05625082 0.08635011 0.9946756
vn 0.456373 0.3087119 0.8345183
vn 0.7059615 0.3714658 0.6030188
vn 0.4850451 0.3185861 0.8143919
vn 0.7429764 0.4015155 0.5355105
vn 0.8258256 0.4582315 0.3286885
vn 0.7059615 0.3714658 0.6030188
vn -0.8259951 -0.00202651 0.5636737
vn -0.4687046 0.03400476 0.8827003
vn -0.8249492 0.09380367 0.5573686
vn -0.9882751 -0.02798625 0.150097
vn -0.8249492 0.09380367 0.5573686
vn -0.9932089 0.0322372 0.1117889
vn 0.02965935 0.06313906 -0.997564
vn 0.09449385 0.05218793 -0.9941566
vn 0.05459381 0.1599641 -0.985612
vn -0.557699 0.07367257 0.8267674
vn 0.0354569 0.09807982 0.9945467
vn -0.5374869 -0.002809159 0.8432674
vn 0.6806906 0.1334178 0.7203193
vn 0.8462923 0.1377165 0.5146101
vn 0.7001107 -0.00312616 0.7140275
vn 0.7001107 -0.00312616 0.7140275
vn 0.5006073 0.008920356 0.8656285
vt 0.4818222 0.3121166
vt 0.4578461 0.37
vt 0.4818222 0.3121166
vt 0.4578461 0.37
vt 0.4818222 0.3121166
vt 0.4818222 0.3121166
vt 0.4578461 0.37
vt 0.4197057 0.4197057
vt 0.4578461 0.37
vt 0.4197056 0.4197056
vt 0.37 0.4578461
vt 0.37 0.4578461
vt 0.4197056 0.4197056
vt 0.4197056 0.4197056
vt 0.3699999 0.457846
vt 0.3121166 0.4818222
vt 0.3121166 0.4818221
vt 0.1878835 0.4818222
vt 0.3121166 0.4818222
vt 0.1878835 0.4818222
vt 0.3121165 0.4818221
vt 0.1878835 0.4818222
vt 0.1878835 0.4818222
vt 0.3121165 0.4818221
vt 0.3699999 0.457846
vt 0.3121165 0.4818221
vt 0.37 0.4578461
vt 0.1878834 0.4818222
vt 0.4197056 0.4197056
vt 0.4197057 0.4197057
vt 0.4197056 0.4197056
vt 0.3699999 0.457846
vt 0.4578461 0.37
vt 0.4578461 0.37
vt 0.1878935 0.4817848
vt 0.3121065 0.4817847
vt 0.1300194 0.4578126
vt 0.37 0.457846
vt 0.3699806 0.4578125
vt 0.13 0.4578461
vt 0.08032178 0.4196782
vt 0.08029439 0.4197057
vt 0.04218746 0.3699806
vt 0.04215391 0.37
vt 0.01003876 0.25
vt 0.01000001 0.25
vt 0.01821524 0.1878935
vt 0.01817781 0.1878834
vt 0.04218747 0.1300194
vt 0.04215391 0.13
vt 0.08032179 0.08032179
vt 0.08029439 0.08029439
vt 0.1300194 0.04218747
vt 0.13 0.04215391
vt 0.1878935 0.01821524
vt 0.1878834 0.01817781
vt 0.25 0.01003876
vt 0.25 0.01000001
vt 0.3121065 0.01821524
vt 0.3121166 0.01817781
vt 0.3699806 0.04218747
vt 0.37 0.04215391
vt 0.4196782 0.08032178
vt 0.4197056 0.08029437
vt 0.4899613 0.25
vt 0.49 0.25
vt 0.4817848 0.3121065
vt 0.4818222 0.3121166
vt 0.4578126 0.3699807
vt 0.4578461 0.37
vt 0.4196783 0.4196783
vt 0.4197056 0.4197056
vt 0.3699806 0.4578125
vt 0.37 0.04215391
vt 0.4197056 0.08029437
vt 0.49 0.25
vt 0.3121166 0.01817781
vt 0.25 0.01000001
vt 0.1878834 0.01817781
vt 0.13 0.04215391
vt 0.3121166 0.01817781
vt 0.25 0.01000001
vt 0.37 0.04215391
vt 0.4197056 0.08029437
vt 0.49 0.25
vt 0.4818221 0.3121166
vt 0.4818222 0.3121166
vt 0.08029439 0.08029439
vt 0.04215391 0.13
vt 0.01817781 0.1878834
vt 0.04215391 0.13
vt 0.01817781 0.1878834
vt 0.01000001 0.25
vt 0.04215391 0.37
vt 0.01000001 0.25
vt 0.08029439 0.4197057
vt 0.04215391 0.37
vt 0.08029439 0.4197057
vt 0.08029439 0.4197057
vt 0.08029439 0.4197056
vt 0.08029439 0.08029439
vt 0.04215391 0.13
vt 0.13 0.04215391
vt 0.13 0.04215391
vt 0.08029439 0.08029439
vt 0.04215391 0.13
vt 0.04215391 0.13
vt 0.01817781 0.1878834
vt 0.13 0.04215391
vt 0.08029439 0.08029439
vt 0.13 0.04215391
vt 0.1878834 0.01817781
vt 0.1878835 0.01817781
vt 0.01817781 0.1878834
vt 0.04215391 0.13
vt 0.01817781 0.1878834
vt 0.01000001 0.25
vt 0.01000001 0.25
vt 0.1878834 0.01817781
vt 0.13 0.04215391
vt 0.1878834 0.01817781
vt 0.25 0.01000001
vt 0.25 0.01000001
vt 0.25 0.01000001
vt 0.1878834 0.01817781
vt 0.3121166 0.01817781
vt 0.3121166 0.01817781
vt 0.3121166 0.01817781
vt 0.25 0.01000001
vt 0.37 0.04215391
vt 0.37 0.04215391
vt 0.4197056 0.08029439
vt 0.4197056 0.08029438
vt 0.49 0.25
vt 0.37 0.04215391
vt 0.37 0.04215391
vt 0.4197057 0.08029439
vt 0.37 0.04215391
vt 0.49 0.25
vt 0.4197057 0.08029439
vt 0.49 0.25
vt 0.4818222 0.3121166
vt 0.4818221 0.3121166
vt 0.49 0.25
vt 0.4818222 0.3121166
vt 0.49 0.25
vt 0.4197057 0.08029439
vt 0.4578461 0.37
vt 0.4578461 0.37
vt 0.4197056 0.08029439
vt 0.37 0.04215391
vt 0.372937 0.127063
vt 0.3121166 0.01817781
vt 0.3369296 0.0994335
vt 0.25 0.01000001
vt 0.1878834 0.01817781
vt 0.2949981 0.08206491
vt 0.1878834 0.01817781
vt 0.25 0.07614079
vt 0.2604671 0.1378816
vt 0.3027787 0.1585846
vt 0.2157204 0.1220668
vt 0.13 0.04215391
vt 0.2050019 0.0820649
vt 0.1630704 0.09943351
vt 0.08029439 0.08029439
vt 0.08029439 0.08029439
vt 0.127063 0.127063
vt 0.1848761 0.1581361
vt 0.2315201 0.1810318
vt 0.04215391 0.13
vt 0.04215391 0.13
vt 0.01817781 0.1878834
vt 0.0994335 0.1630704
vt 0.01817781 0.1878834
vt 0.01000001 0.25
vt 0.1585846 0.1972213
vt 0.01000001 0.25
vt 0.04215391 0.3700001
vt 0.0820649 0.205002
vt 0.04215391 0.37
vt 0.08029439 0.4197056
vt 0.2050909 0.2240717
vt 0.1378816 0.239533
vt 0.07614079 0.25
vt 0.09943351 0.3369296
vt 0.1220668 0.2842796
vt 0.1810318 0.26848
vt 0.2759283 0.2050909
vt 0.08029439 0.4197056
vt 0.1581361 0.315124
vt 0.25 0.25
vt 0.3418639 0.1848761
vt 0.3189682 0.2315201
vt 0.4238592 0.25
vt 0.4179351 0.2949981
vt 0.4818222 0.3121166
vt 0.2240717 0.2949091
vt 0.3024072 0.2802573
vt 0.4005666 0.3369296
vt 0.4578461 0.37
vt 0.2758928 0.3227981
vt 0.1972213 0.3414154
vt 0.372937 0.372937
vt 0.127063 0.3729371
vt 0.2464448 0.3648469
vt 0.4197056 0.4197056
vt 0.4197057 0.4197057
vt 0.1630704 0.4005666
vt 0.13 0.4578461
vt 0.3369296 0.4005665
vt 0.37 0.4578461
vt 0.37 0.4578461
vt 0.2949981 0.4179352
vt 0.3121166 0.4818222
vt 0.205002 0.4179352
vt 0.1878834 0.4818222
vt 0.1878834 0.4818222
vt 0.13 0.4578461
vt 0.13 0.4578461
vt 0.08029439 0.4197057
vt 0.3121166 0.4818222
vt 0.1878834 0.4818222
vt 0.3121166 0.4818221
vt 0.37 0.4578461
vt 0.3121166 0.4818222
vt 0.37 0.4578461
vt 0.1878835 0.4818222
vt 0.13 0.4578461
vt 0.08029439 0.4197057
vt 0.08029439 0.4197056
vt 0.1878835 0.4818222
vt 0.13 0.4578461
vt 0.1878834 0.4818222
vt 0.3121166 0.4818222
vt 0.1878834 0.4818222
vt 0.3121166 0.4818221
vt 0.37 0.4578461
vt 0.04215391 0.3700001
vt 0.08029439 0.4197056
vt 0.04215391 0.37
vt 0.08029439 0.4197056
vt 0.04215391 0.37
vt 0.01000001 0.25
vt 0.01000001 0.25
vt 0.01000001 0.25
vt 0.01000001 0.25
vt 0.04215391 0.37
vt 0.08029439 0.4197056
vt 0.08029439 0.4197056
vt 0.13 0.4578461
vt 0.13 0.4578461
vt 0.1878835 0.4818222
vt 0.1878835 0.4818222
vt 0.1878835 0.4818222
vt 0.13 0.4578461
vt 0.1878834 0.4818222
vt 0.13 0.4578461
vt 0.08029439 0.4197057
vt 0.37 0.4578461
vt 0.3121165 0.4818221
vt 0.3121166 0.4818221
vt 0.3699999 0.457846
vt 0.4197057 0.4197057
vt 0.4197056 0.4197056
vt 0.4578461 0.37
vt 0.4578461 0.37
vt 0.4818221 0.3121166
vt 0.4818221 0.3121166
vt 0.4818222 0.3121166
vt 0.4818222 0.3121166
vt 0.4578461 0.37
vt 0.4197056 0.4197056
vt 0.4578461 0.37
vt 0.4818222 0.3121166
vt 0.49 0.25
vt 0.49 0.25
vt 0.4818221 0.3121166
vt 0.49 0.25
vt 0.4197056 0.08029438
vt 0.4197056 0.08029437
vt 0.49 0.25
vt 0.4197056 0.08029437
vt 0.37 0.04215391
vt 0.04215391 0.37
vt 0.01000001 0.25
vt 0.04215391 0.37
vt 0.01000001 0.25
vt 0.01817781 0.1878834
vt 0.01817781 0.1878834
vt 0.01000001 0.25
vt 0.01817781 0.1878834
vt 0.04215391 0.37
vt 0.08029439 0.4197056
vt 0.08029439 0.4197056
vt 0.01000001 0.25
vt 0.01817781 0.1878834
vt 0.01000001 0.25
vt 0.04215391 0.37
vt 0.04215391 0.37
vt 0.08029439 0.4197056
vt 0.08029439 0.4197057
vt 0.04215391 0.13
vt 0.04215391 0.13
vt 0.01817781 0.1878834
vt 0.04215391 0.13
vt 0.01817781 0.1878834
vt 0.08029439 0.08029439
vt 0.08029438 0.08029438
vt 0.13 0.04215391
vt 0.13 0.04215391
vt 0.01820654 0.1878912
vt 0.04217967 0.1300149
vt 0.08031541 0.08031541
vt 0.01002975 0.25
vt 0.01000001 0.25
vt 0.04215391 0.37
vt 0.04217966 0.3699851
vt 0.1300149 0.04217967
vt 0.1878834 0.01817781
vt 0.04218747 0.1300194
vt 0.08032179 0.08032179
vt 0.01821524 0.1878935
vt 0.01003876 0.25
vt 0.04218746 0.3699806
vt 0.1300194 0.04218747
vt 0.08032178 0.4196782
vt 0.1878911 0.01820654
vt 0.1878935 0.01821524
vt 0.08031541 0.4196846
vt 0.1300194 0.4578126
vt 0.04215391 0.37
vt 0.25 0.01000001
vt 0.1878834 0.01817781
vt 0.25 0.01002975
vt 0.25 0.01003876
vt 0.1300149 0.4578204
vt 0.1878935 0.4817848
vt 0.08029439 0.4197056
vt 0.04215391 0.37
vt 0.13 0.4578462
vt 0.1878911 0.4817935
vt 0.1878834 0.4818222
vt 0.3121088 0.4817934
vt 0.3121065 0.4817847
vt 0.3121165 0.4818221
vt 0.3699806 0.4578125
vt 0.3699851 0.4578203
vt 0.37 0.457846
vt 0.4196783 0.4196783
vt 0.4196846 0.4196846
vt 0.4197057 0.4197057
vt 0.4578126 0.3699807
vt 0.4578204 0.3699852
vt 0.4197056 0.4197056
vt 0.4578462 0.37
vt 0.4817848 0.3121065
vt 0.4817935 0.3121089
vt 0.4578462 0.37
vt 0.4899613 0.25
vt 0.4818222 0.3121166
vt 0.4899703 0.25
vt 0.4196782 0.08032178
vt 0.4196845 0.0803154
vt 0.4197056 0.08029439
vt 0.3699806 0.04218747
vt 0.3699852 0.04217967
vt 0.3121065 0.01821524
vt 0.49 0.25
vt 0.49 0.25
vt 0.4197056 0.08029439
vt 0.3121089 0.01820654
vt 0.37 0.04215391
vt 0.3121166 0.01817781
vt 0.3700001 0.04215391
vt 0.3121166 0.01817781
vt 0.25 0.01000001
vt 0.25 0.01000001
vt 0.3121166 0.01817781
vt 0.25 0.01000001
vt 0.1878834 0.01817781
vt 0.1878834 0.01817781
vt 0.13 0.04215391
vt 0.13 0.04215391
vt 0.1878834 0.01817781
vt 0.13 0.04215391
vt 0.08029439 0.08029439
vt 0.08029439 0.08029439
vt 0.08029439 0.08029439
vt 0.13 0.04215391
vt 0.08029438 0.08029438
vt 0.04215391 0.13
vt 0.04215391 0.13
vt 0.04215391 0.13
vt 0.01817781 0.1878834
vt 0.1630704 0.09943351
vt 0.127063 0.127063
vt 0.0994335 0.1630704
vt 0.0820649 0.205002
vt 0.2050019 0.0820649
vt 0.25 0.07614079
vt 0.2157204 0.1220668
vt 0.1848761 0.1581361
vt 0.25 0.01000001
vt 0.2949981 0.08206491
vt 0.3121166 0.01817781
vt 0.3121166 0.01817781
vt 0.37 0.04215391
vt 0.37 0.04215391
vt 0.2586135 0.1406446
vt 0.3369296 0.0994335
vt 0.1585846 0.1972213
vt 0.372937 0.127063
vt 0.4197056 0.08029439
vt 0.2315201 0.1810318
vt 0.3027787 0.1585846
vt 0.4238592 0.25
vt 0.49 0.25
vt 0.3287825 0.2112576
vt 0.2759283 0.2050909
vt 0.2050909 0.2240717
vt 0.1378816 0.239533
vt 0.4179351 0.2949981
vt 0.3085215 0.2508026
vt 0.25 0.25
vt 0.07614079 0.25
vt 0.1810318 0.26848
vt 0.1270588 0.2814556
vt 0.09943351 0.3369296
vt 0.1581361 0.315124
vt 0.2240717 0.2949091
vt 0.2949092 0.2759283
vt 0.127063 0.3729371
vt 0.1972213 0.3414154
vt 0.13 0.4578461
vt 0.4005666 0.3369296
vt 0.274083 0.3098438
vt 0.1630704 0.4005666
vt 0.13 0.4578461
vt 0.08029439 0.4197056
vt 0.13 0.4578462
vt 0.1878834 0.4818222
vt 0.1878834 0.4818222
vt 0.1878834 0.4818222
vt 0.13 0.4578462
vt 0.2527922 0.3423533
vt 0.205002 0.4179352
vt 0.3121166 0.4818222
vt 0.2949981 0.4179352
vt 0.37 0.4578461
vt 0.3369296 0.4005665
vt 0.4197056 0.4197056
vt 0.372937 0.372937
vt 0.4578461 0.37
vt 0.4197056 0.4197056
vt 0.4818222 0.3121166
vt 0.4578461 0.37
vt 0.4818222 0.3121166
vt 0.49 0.25
vt 0.49 0.25
vt 0.4197056 0.08029439
vt 0.4818222 0.3121166
vt 0.4899999 0.25
vt 0.4197056 0.08029439
vt 0.4197056 0.08029439
vt 0.37 0.04215391
vt 0.37 0.04215391
vt 0.4197056 0.08029439
vt 0.37 0.04215391
vt 0.3121166 0.01817781
vt 0.4197056 0.08029439
vt 0.4899999 0.25
vt 0.49 0.25
vt 0.3700001 0.04215391
vt 0.3121166 0.01817781
vt 0.37 0.04215391
vt 0.49 0.25
vt 0.4818222 0.3121166
vt 0.4197056 0.08029439
vt 0.3700001 0.04215391
vt 0.4578462 0.37
vt 0.4818222 0.3121166
vt 0.4578462 0.37
vt 0.4818222 0.3121166
vt 0.4899999 0.25
vt 0.49 0.25
vt 0.4578461 0.3699999
vt 0.4197056 0.4197056
vt 0.4197056 0.4197056
vt 0.4197056 0.4197056
vt 0.4578462 0.37
vt 0.37 0.457846
vt 0.37 0.457846
vt 0.4197057 0.4197057
vt 0.3121165 0.4818221
vt 0.37 0.457846
vt 0.37 0.457846
vt 0.3121165 0.4818221
vt 0.1878834 0.4818222
vt 0.3121165 0.4818221
vt 0.1878834 0.4818222
vt 0.13 0.4578462
vt 0.08029439 0.4197057
vt 0.13 0.4578462
vt 0.08029439 0.4197056
vt 0.13 0.4578462
vt 0.3121165 0.4818221
vt 0.1878834 0.4818222
vt 0.37 0.457846
vt 0.3121165 0.4818222
vt 0.37 0.4578461
vt 0.4197056 0.4197056
vt 0.3121166 0.4818222
vt 0.1878834 0.4818222
vt 0.1878834 0.4818222
vt 0.4578461 0.37
vt 0.4197056 0.4197056
vt 0.4578461 0.3699999
vt 0.01000001 0.25
vt 0.01817781 0.1878834
vt 0.01817781 0.1878834
vt 0.01000001 0.25
vt 0.37 0.457846
vt 0.3121165 0.4818221
vt 0.3121165 0.4818221
vt 0.3699999 0.457846
vt 0.13 0.04215391
vt 0.1878834 0.01817781
vt 0.13 0.04215391
vt 0.04215391 0.13
vt 0.08029439 0.08029439
vt 0.04215391 0.13
vt 0.01817781 0.1878834
vt 0.01000001 0.25
vt 0.01817781 0.1878834
vt 0.04215391 0.13
vt 0.13 0.04215391
vt 0.1878834 0.01817781
vt 0.13 0.04215391
vt 0.1878834 0.01817781
vt 0.25 0.01000001
vt 0.1878834 0.01817781
vt 0.04215391 0.37
vt 0.01000001 0.25
vt 0.04215391 0.37
vt 0.08029439 0.4197057
vt 0.04215391 0.37
vt 0.08029439 0.4197056
vt 0.4818222 0.3121166
vt 0.4578461 0.37
vt 0.4578461 0.3699999
vt 0.01000001 0.25
vt 0.01817781 0.1878834
vt 0.01000001 0.25
vt 0.1878834 0.01817781
vt 0.25 0.01000001
vt 0.1878835 0.01817781
vt 0.1878835 0.01817781
vt 0.13 0.04215391
usemtl MV_RockDesert_Cliff
f 1/1/1 3/3/3 2/2/2
f 1/1/1 2/2/2 4/4/4
f 5/5/5 6/6/6 4/4/4
f 5/5/5 4/4/4 7/7/7
f 7/7/7 9/9/9 8/8/8
f 7/7/7 8/8/8 10/10/10
f 10/10/10 8/8/8 11/11/11
f 10/10/10 11/11/11 12/12/12
f 13/13/13 14/14/14 12/12/12
f 13/13/13 12/12/12 15/15/15
f 15/15/15 12/12/12 16/16/16
f 15/15/15 16/16/16 17/17/17
f 17/17/17 19/19/19 18/18/18
f 17/17/17 18/18/18 20/20/20
f 21/21/21 17/17/17 20/20/20
f 21/21/21 20/20/20 22/22/22
f 21/21/21 22/22/22 23/23/23
f 21/21/21 23/23/23 24/24/24
f 25/25/25 21/21/21 24/24/24
f 26/26/26 24/24/24 23/23/23
f 25/25/25 27/27/27 21/21/21
f 26/26/26 23/23/23 28/28/28
f 29/29/29 27/27/27 25/25/25
f 29/29/29 30/30/30 27/27/27
f 31/31/31 29/29/29 25/25/25
f 31/31/31 25/25/25 32/32/32
f 33/33/33 30/30/30 29/29/29
f 33/33/33 34/34/34 30/30/30
f 26/26/26 28/28/28 35/35/35
f 26/26/26 35/35/35 36/36/36
f 28/28/28 37/37/37 35/35/35
f 38/38/38 26/26/26 36/36/36
f 38/38/38 36/36/36 39/39/39
f 28/28/28 40/40/40 37/37/37
f 40/40/40 41/41/41 37/37/37
f 40/40/40 42/42/42 41/41/41
f 42/42/42 43/43/43 41/41/41
f 42/42/42 44/44/44 43/43/43
f 44/44/44 45/45/45 43/43/43
f 44/44/44 46/46/46 45/45/45
f 46/46/46 47/47/47 45/45/45
f 46/46/46 48/48/48 47/47/47
f 48/48/48 49/49/49 47/47/47
f 48/48/48 50/50/50 49/49/49
f 50/50/50 51/51/51 49/49/49
f 50/50/50 52/52/52 51/51/51
f 52/52/52 53/53/53 51/51/51
f 52/52/52 54/54/54 53/53/53
f 54/54/54 55/55/55 53/53/53
f 54/54/54 56/56/56 55/55/55
f 56/56/56 57/57/57 55/55/55
f 56/56/56 58/58/58 57/57/57
f 58/58/58 59/59/59 57/57/57
f 58/58/58 60/60/60 59/59/59
f 60/60/60 61/61/61 59/59/59
f 60/60/60 62/62/62 61/61/61
f 62/62/62 63/63/63 61/61/61
f 62/62/62 64/64/64 63/63/63
f 64/64/64 65/65/65 63/63/63
f 64/64/64 66/66/66 65/65/65
f 66/66/66 67/67/67 65/65/65
f 66/66/66 68/68/68 67/67/67
f 68/68/68 69/69/69 67/67/67
f 68/68/68 70/70/70 69/69/69
f 70/70/70 71/71/71 69/69/69
f 70/70/70 72/72/72 71/71/71
f 72/72/72 73/73/73 71/71/71
f 72/72/72 38/38/38 73/73/73
f 60/60/60 74/74/74 62/62/62
f 62/62/62 75/75/75 64/64/64
f 62/62/62 74/74/74 75/75/75
f 76/76/76 66/66/66 64/64/64
f 76/76/76 64/64/64 75/75/75
f 60/60/60 77/77/77 74/74/74
f 58/58/58 77/77/77 60/60/60
f 58/58/58 78/78/78 77/77/77
f 56/56/56 78/78/78 58/58/58
f 56/56/56 79/79/79 78/78/78
f 54/54/54 79/79/79 56/56/56
f 54/54/54 80/80/80 79/79/79
f 52/52/52 80/80/80 54/54/54
f 78/78/78 81/81/81 77/77/77
f 78/78/78 82/82/82 81/81/81
f 77/77/77 83/83/83 74/74/74
f 77/77/77 81/81/81 83/83/83
f 74/74/74 84/84/84 75/75/75
f 74/74/74 83/83/83 84/84/84
f 85/85/85 75/75/75 84/84/84
f 85/85/85 76/76/76 75/75/75
f 76/76/76 85/85/85 86/86/86
f 76/76/76 86/86/86 87/87/87
f 52/52/52 88/88/88 80/80/80
f 50/50/50 88/88/88 52/52/52
f 50/50/50 89/89/89 88/88/88
f 48/48/48 89/89/89 50/50/50
f 48/48/48 90/90/90 89/89/89
f 46/46/46 90/90/90 48/48/48
f 90/90/90 91/91/91 89/89/89
f 90/90/90 92/92/92 91/91/91
f 46/46/46 93/93/93 90/90/90
f 93/93/93 46/46/46 44/44/44
f 93/93/93 44/44/44 94/94/94
f 94/94/94 95/95/95 93/93/93
f 96/96/96 94/94/94 44/44/44
f 94/94/94 97/97/97 95/95/95
f 96/96/96 98/98/98 94/94/94
f 99/99/99 97/97/97 94/94/94
f 99/99/99 100/100/100 97/97/97
f 89/89/89 102/102/102 101/101/101
f 89/89/89 101/101/101 88/88/88
f 88/88/88 101/101/101 103/103/103
f 88/88/88 103/103/103 80/80/80
f 101/101/101 104/104/104 103/103/103
f 101/101/101 105/105/105 104/104/104
f 106/106/106 105/105/105 101/101/101
f 106/106/106 107/107/107 105/105/105
f 108/108/108 107/107/107 106/106/106
f 105/105/105 109/109/109 104/104/104
f 105/105/105 110/110/110 109/109/109
f 110/110/110 111/111/111 109/109/109
f 103/103/103 104/104/104 112/112/112
f 103/103/103 112/112/112 113/113/113
f 108/108/108 114/114/114 107/107/107
f 114/114/114 115/115/115 107/107/107
f 114/114/114 116/116/116 115/115/115
f 117/117/117 116/116/116 114/114/114
f 117/117/117 118/118/118 116/116/116
f 104/104/104 119/119/119 112/112/112
f 104/104/104 120/120/120 119/119/119
f 120/120/120 111/111/111 121/121/121
f 120/120/120 121/121/121 119/119/119
f 113/113/113 112/112/112 122/122/122
f 113/113/113 122/122/122 82/82/82
f 112/112/112 119/119/119 123/123/123
f 112/112/112 123/123/123 122/122/122
f 119/119/119 124/124/124 123/123/123
f 119/119/119 125/125/125 124/124/124
f 122/122/122 123/123/123 126/126/126
f 82/82/82 122/122/122 127/127/127
f 122/122/122 126/126/126 127/127/127
f 123/123/123 128/128/128 126/126/126
f 123/123/123 129/129/129 128/128/128
f 82/82/82 127/127/127 81/81/81
f 81/81/81 127/127/127 130/130/130
f 81/81/81 130/130/130 83/83/83
f 127/127/127 126/126/126 131/131/131
f 127/127/127 131/131/131 130/130/130
f 130/130/130 131/131/131 132/132/132
f 130/130/130 132/132/132 133/133/133
f 132/132/132 134/134/134 133/133/133
f 126/126/126 128/128/128 135/135/135
f 126/126/126 135/135/135 136/136/136
f 136/136/136 137/137/137 132/132/132
f 136/136/136 138/138/138 137/137/137
f 132/132/132 139/139/139 134/134/134
f 140/140/140 139/139/139 132/132/132
f 140/140/140 141/141/141 139/139/139
f 134/134/134 139/139/139 142/142/142
f 134/134/134 142/142/142 143/143/143
f 139/139/139 1/1/1 142/142/142
f 139/139/139 144/144/144 1/1/1
f 144/144/144 145/145/145 1/1/1
f 144/144/144 146/146/146 145/145/145
f 146/146/146 141/141/141 147/147/147
f 143/143/143 142/142/142 148/148/148
f 143/143/143 148/148/148 149/149/149
f 146/146/146 147/147/147 150/150/150
f 135/135/135 150/150/150 147/147/147
f 135/135/135 151/151/151 150/150/150
f 128/128/128 151/151/151 135/135/135
f 146/146/146 150/150/150 152/152/152
f 152/152/152 150/150/150 151/151/151
f 128/128/128 153/153/153 151/151/151
f 129/129/129 153/153/153 128/128/128
f 152/152/152 151/151/151 154/154/154
f 154/154/154 151/151/151 153/153/153
f 129/129/129 155/155/155 153/153/153
f 156/156/156 155/155/155 129/129/129
f 154/154/154 153/153/153 157/157/157
f 157/157/157 153/153/153 155/155/155
f 156/156/156 158/158/158 155/155/155
f 111/111/111 158/158/158 156/156/156
f 157/157/157 155/155/155 159/159/159
f 159/159/159 155/155/155 158/158/158
f 160/160/160 154/154/154 157/157/157
f 161/161/161 152/152/152 154/154/154
f 160/160/160 161/161/161 154/154/154
f 162/162/162 157/157/157 159/159/159
f 162/162/162 160/160/160 157/157/157
f 111/111/111 163/163/163 158/158/158
f 159/159/159 158/158/158 164/164/164
f 164/164/164 158/158/158 163/163/163
f 165/165/165 159/159/159 164/164/164
f 165/165/165 162/162/162 159/159/159
f 164/164/164 163/163/163 165/165/165
f 166/166/166 163/163/163 111/111/111
f 110/110/110 166/166/166 111/111/111
f 165/165/165 163/163/163 167/167/167
f 166/166/166 167/167/167 163/163/163
f 168/168/168 162/162/162 165/165/165
f 165/165/165 167/167/167 168/168/168
f 169/169/169 160/160/160 162/162/162
f 168/168/168 169/169/169 162/162/162
f 170/170/170 161/161/161 160/160/160
f 169/169/169 170/170/170 160/160/160
f 115/115/115 166/166/166 110/110/110
f 115/115/115 171/171/171 166/166/166
f 171/171/171 167/167/167 166/166/166
f 171/171/171 172/172/172 167/167/167
f 168/168/168 167/167/167 172/172/172
f 173/173/173 172/172/172 171/171/171
f 174/174/174 169/169/169 168/168/168
f 168/168/168 172/172/172 174/174/174
f 173/173/173 175/175/175 172/172/172
f 174/174/174 172/172/172 175/175/175
f 176/176/176 175/175/175 173/173/173
f 174/174/174 177/177/177 169/169/169
f 177/177/177 170/170/170 169/169/169
f 176/176/176 178/178/178 175/175/175
f 179/179/179 178/178/178 176/176/176
f 174/174/174 175/175/175 180/180/180
f 180/180/180 177/177/177 174/174/174
f 180/180/180 175/175/175 178/178/178
f 179/179/179 181/181/181 178/178/178
f 182/182/182 181/181/181 179/179/179
f 177/177/177 183/183/183 170/170/170
f 180/180/180 184/184/184 177/177/177
f 184/184/184 183/183/183 177/177/177
f 180/180/180 178/178/178 185/185/185
f 185/185/185 184/184/184 180/180/180
f 178/178/178 181/181/181 186/186/186
f 178/178/178 186/186/186 185/185/185
f 185/185/185 187/187/187 184/184/184
f 185/185/185 186/186/186 187/187/187
f 187/187/187 188/188/188 184/184/184
f 184/184/184 188/188/188 183/183/183
f 183/183/183 189/189/189 170/170/170
f 170/170/170 189/189/189 161/161/161
f 182/182/182 190/190/190 181/181/181
f 186/186/186 181/181/181 190/190/190
f 186/186/186 191/191/191 187/187/187
f 187/187/187 191/191/191 188/188/188
f 188/188/188 192/192/192 183/183/183
f 183/183/183 192/192/192 189/189/189
f 189/189/189 193/193/193 161/161/161
f 161/161/161 193/193/193 152/152/152
f 189/189/189 194/194/194 193/193/193
f 192/192/192 194/194/194 189/189/189
f 193/193/193 195/195/195 152/152/152
f 194/194/194 195/195/195 193/193/193
f 146/146/146 152/152/152 195/195/195
f 196/196/196 146/146/146 195/195/195
f 194/194/194 196/196/196 195/195/195
f 196/196/196 197/197/197 146/146/146
f 188/188/188 198/198/198 192/192/192
f 191/191/191 198/198/198 188/188/188
f 192/192/192 199/199/199 194/194/194
f 199/199/199 196/196/196 194/194/194
f 198/198/198 199/199/199 192/192/192
f 200/200/200 197/197/197 196/196/196
f 199/199/199 200/200/200 196/196/196
f 200/200/200 201/201/201 197/197/197
f 198/198/198 202/202/202 199/199/199
f 202/202/202 200/200/200 199/199/199
f 191/191/191 203/203/203 198/198/198
f 203/203/203 202/202/202 198/198/198
f 204/204/204 201/201/201 200/200/200
f 202/202/202 204/204/204 200/200/200
f 205/205/205 203/203/203 191/191/191
f 186/186/186 205/205/205 191/191/191
f 186/186/186 190/190/190 205/205/205
f 203/203/203 206/206/206 202/202/202
f 206/206/206 204/204/204 202/202/202
f 204/204/204 207/207/207 201/201/201
f 4/4/4 201/201/201 207/207/207
f 4/4/4 207/207/207 208/208/208
f 205/205/205 209/209/209 203/203/203
f 209/209/209 206/206/206 203/203/203
f 205/205/205 190/190/190 210/210/210
f 205/205/205 210/210/210 209/209/209
f 211/211/211 207/207/207 204/204/204
f 206/206/206 211/211/211 204/204/204
f 208/208/208 207/207/207 212/212/212
f 211/211/211 212/212/212 207/207/207
f 208/208/208 212/212/212 213/213/213
f 214/214/214 212/212/212 211/211/211
f 214/214/214 211/211/211 206/206/206
f 214/214/214 215/215/215 212/212/212
f 214/214/214 206/206/206 216/216/216
f 216/216/216 215/215/215 214/214/214
f 209/209/209 216/216/216 206/206/206
f 216/216/216 217/217/217 215/215/215
f 209/209/209 217/217/217 216/216/216
f 209/209/209 210/210/210 217/217/217
f 218/218/218 217/217/217 210/210/210
f 218/218/218 210/210/210 219/219/219
f 219/219/219 210/210/210 190/190/190
f 219/219/219 190/190/190 182/182/182
f 220/220/220 219/219/219 182/182/182
f 220/220/220 182/182/182 221/221/221
f 222/222/222 217/217/217 223/223/223
f 222/222/222 223/223/223 224/224/224
f 225/225/225 226/226/226 224/224/224
f 225/225/225 227/227/227 226/226/226
f 228/228/228 18/18/18 220/220/220
f 228/228/228 220/220/220 229/229/229
f 229/229/229 220/220/220 230/230/230
f 229/229/229 230/230/230 231/231/231
f 232/232/232 233/233/233 220/220/220
f 232/232/232 234/234/234 233/233/233
f 235/235/235 236/236/236 18/18/18
f 235/235/235 237/237/237 236/236/236
f 238/238/238 237/237/237 235/235/235
f 238/238/238 213/213/213 237/237/237
f 230/230/230 240/240/240 239/239/239
f 230/230/230 239/239/239 241/241/241
f 242/242/242 230/230/230 241/241/241
f 242/242/242 241/241/241 243/243/243
f 239/239/239 244/244/244 241/241/241
f 239/239/239 245/245/245 244/244/244
f 241/241/241 244/244/244 246/246/246
f 241/241/241 246/246/246 243/243/243
f 243/243/243 246/246/246 247/247/247
f 243/243/243 247/247/247 248/248/248
f 249/249/249 243/243/243 248/248/248
f 249/249/249 250/250/250 243/243/243
f 251/251/251 250/250/250 249/249/249
f 251/251/251 252/252/252 250/250/250
f 253/253/253 252/252/252 251/251/251
f 253/253/253 254/254/254 252/252/252
f 255/255/255 253/253/253 251/251/251
f 256/256/256 251/251/251 249/249/249
f 255/255/255 251/251/251 256/256/256
f 257/257/257 255/255/255 256/256/256
f 256/256/256 249/249/249 98/98/98
f 257/257/257 256/256/256 258/258/258
f 258/258/258 256/256/256 98/98/98
f 258/258/258 98/98/98 259/259/259
f 260/260/260 262/262/262 261/261/261
f 260/260/260 263/263/263 262/262/262
f 264/264/264 263/263/263 260/260/260
f 264/264/264 265/265/265 263/263/263
f 266/266/266 265/265/265 264/264/264
f 266/266/266 267/267/267 265/265/265
f 268/268/268 267/267/267 266/266/266
f 268/268/268 269/269/269 267/267/267
f 270/270/270 268/268/268 266/266/266
f 270/270/270 266/266/266 33/33/33
f 271/271/271 270/270/270 33/33/33
f 271/271/271 33/33/33 272/272/272
f 272/272/272 33/33/33 273/273/273
f 272/272/272 273/273/273 31/31/31
f 274/274/274 10/10/10 265/265/265
f 274/274/274 148/148/148 10/10/10
f 66/66/66 270/270/270 275/275/275
f 66/66/66 276/276/276 270/270/270
f 277/277/277 143/143/143 278/278/278
f 277/277/277 279/279/279 143/143/143
f 280/280/280 277/277/277 281/281/281
f 280/280/280 282/282/282 277/277/277
f 83/83/83 280/280/280 283/283/283
f 83/83/83 284/284/284 280/280/280
f 285/285/285 287/287/287 286/286/286
f 285/285/285 286/286/286 288/288/288
f 288/288/288 286/286/286 289/289/289
f 288/288/288 289/289/289 290/290/290
f 291/291/291 288/288/288 290/290/290
f 285/285/285 288/288/288 291/291/291
f 291/291/291 290/290/290 292/292/292
f 285/285/285 291/291/291 293/293/293
f 294/294/294 285/285/285 293/293/293
f 294/294/294 295/295/295 285/285/285
f 296/296/296 291/291/291 292/292/292
f 296/296/296 292/292/292 297/297/297
f 298/298/298 296/296/296 297/297/297
f 299/299/299 296/296/296 298/298/298
f 299/299/299 300/300/300 296/296/296
f 301/301/301 300/300/300 299/299/299
f 301/301/301 302/302/302 300/300/300
f 297/297/297 292/292/292 303/303/303
f 292/292/292 304/304/304 303/303/303
f 292/292/292 305/305/305 304/304/304
f 305/305/305 306/306/306 304/304/304
f 305/305/305 307/307/307 306/306/306
f 304/304/304 306/306/306 308/308/308
f 304/304/304 308/308/308 309/309/309
f 309/309/309 308/308/308 310/310/310
f 309/309/309 310/310/310 311/311/311
f 312/312/312 306/306/306 307/307/307
f 313/313/313 308/308/308 306/306/306
f 312/312/312 313/313/313 306/306/306
f 314/314/314 310/310/310 308/308/308
f 313/313/313 314/314/314 308/308/308
f 315/315/315 312/312/312 307/307/307
f 315/315/315 307/307/307 316/316/316
f 315/315/315 316/316/316 317/317/317
f 315/315/315 317/317/317 318/318/318
f 314/314/314 319/319/319 310/310/310
f 319/319/319 320/320/320 310/310/310
f 321/321/321 314/314/314 313/313/313
f 321/321/321 322/322/322 314/314/314
f 322/322/322 319/319/319 314/314/314
f 323/323/323 321/321/321 313/313/313
f 323/323/323 313/313/313 312/312/312
f 324/324/324 323/323/323 312/312/312
f 324/324/324 312/312/312 315/315/315
f 325/325/325 324/324/324 315/315/315
f 325/325/325 315/315/315 318/318/318
f 322/322/322 326/326/326 319/319/319
f 327/327/327 325/325/325 318/318/318
f 326/326/326 328/328/328 319/319/319
f 319/319/319 328/328/328 320/320/320
f 326/326/326 329/329/329 328/328/328
f 327/327/327 318/318/318 330/330/330
f 331/331/331 327/327/327 330/330/330
f 330/330/330 318/318/318 332/332/332
f 328/328/328 333/333/333 320/320/320
f 334/334/334 320/320/320 333/333/333
f 329/329/329 335/335/335 328/328/328
f 328/328/328 335/335/335 333/333/333
f 329/329/329 336/336/336 335/335/335
f 331/331/331 330/330/330 337/337/337
f 338/338/338 331/331/331 337/337/337
f 330/330/330 332/332/332 339/339/339
f 337/337/337 330/330/330 339/339/339
f 295/295/295 339/339/339 332/332/332
f 295/295/295 332/332/332 340/340/340
f 337/337/337 339/339/339 341/341/341
f 342/342/342 337/337/337 341/341/341
f 338/338/338 337/337/337 342/342/342
f 342/342/342 341/341/341 343/343/343
f 338/338/338 342/342/342 344/344/344
f 344/344/344 342/342/342 343/343/343
f 338/338/338 344/344/344 345/345/345
f 344/344/344 343/343/343 346/346/346
f 347/347/347 345/345/345 344/344/344
f 348/348/348 344/344/344 346/346/346
f 347/347/347 344/344/344 348/348/348
f 348/348/348 346/346/346 349/349/349
f 350/350/350 347/347/347 348/348/348
f 351/351/351 348/348/348 349/349/349
f 350/350/350 348/348/348 351/351/351
f 351/351/351 349/349/349 352/352/352
f 353/353/353 350/350/350 351/351/351
f 353/353/353 351/351/351 354/354/354
f 354/354/354 351/351/351 355/355/355
f 354/354/354 355/355/355 356/356/356
f 357/357/357 353/353/353 354/354/354
f 357/357/357 354/354/354 358/358/358
f 358/358/358 354/354/354 359/359/359
f 360/360/360 357/357/357 358/358/358
f 358/358/358 359/359/359 361/361/361
f 360/360/360 358/358/358 362/362/362
f 362/362/362 358/358/358 361/361/361
f 363/363/363 360/360/360 362/362/362
f 363/363/363 362/362/362 364/364/364
f 362/362/362 365/365/365 364/364/364
f 366/366/366 363/363/363 364/364/364
f 366/366/366 364/364/364 367/367/367
f 367/367/367 364/364/364 365/365/365
f 368/368/368 366/366/366 367/367/367
f 362/362/362 361/361/361 369/369/369
f 362/362/362 369/369/369 365/365/365
f 365/365/365 369/369/369 370/370/370
f 365/365/365 370/370/370 371/371/371
f 368/368/368 367/367/367 372/372/372
f 336/336/336 368/368/368 372/372/372
f 336/336/336 372/372/372 335/335/335
f 367/367/367 365/365/365 373/373/373
f 372/372/372 367/367/367 373/373/373
f 335/335/335 372/372/372 374/374/374
f 372/372/372 373/373/373 374/374/374
f 335/335/335 374/374/374 333/333/333
f 375/375/375 365/365/365 371/371/371
f 375/375/375 373/373/373 365/365/365
f 376/376/376 373/373/373 375/375/375
f 376/376/376 374/374/374 373/373/373
f 377/377/377 333/333/333 374/374/374
f 377/377/377 374/374/374 376/376/376
f 334/334/334 333/333/333 377/377/377
f 378/378/378 377/377/377 376/376/376
f 378/378/378 376/376/376 379/379/379
f 380/380/380 378/378/378 379/379/379
f 381/381/381 378/378/378 380/380/380
f 381/381/381 382/382/382 378/378/378
f 383/383/383 382/382/382 381/381/381
f 383/383/383 384/384/384 382/382/382
f 385/385/385 381/381/381 380/380/380
f 386/386/386 383/383/383 381/381/381
f 386/386/386 381/381/381 385/385/385
f 387/387/387 384/384/384 383/383/383
f 388/388/388 383/383/383 386/386/386
f 388/388/388 387/387/387 383/383/383
f 387/387/387 389/389/389 384/384/384
f 389/389/389 390/390/390 384/384/384
f 389/389/389 391/391/391 390/390/390
f 303/303/303 391/391/391 389/389/389
f 303/303/303 392/392/392 391/391/391
f 393/393/393 303/303/303 389/389/389
f 393/393/393 389/389/389 387/387/387
f 297/297/297 303/303/303 393/393/393
f 394/394/394 393/393/393 387/387/387
f 394/394/394 387/387/387 388/388/388
f 395/395/395 297/297/297 393/393/393
f 395/395/395 393/393/393 394/394/394
f 298/298/298 297/297/297 395/395/395
f 396/396/396 388/388/388 386/386/386
f 397/397/397 394/394/394 388/388/388
f 396/396/396 397/397/397 388/388/388
f 398/398/398 395/395/395 394/394/394
f 397/397/397 398/398/398 394/394/394
f 399/399/399 298/298/298 395/395/395
f 398/398/398 399/399/399 395/395/395
f 400/400/400 396/396/396 386/386/386
f 400/400/400 386/386/386 385/385/385
f 396/396/396 400/400/400 401/401/401
f 401/401/401 400/400/400 385/385/385
f 397/397/397 396/396/396 402/402/402
f 396/396/396 401/401/401 402/402/402
f 398/398/398 397/397/397 403/403/403
f 397/397/397 402/402/402 403/403/403
f 401/401/401 385/385/385 404/404/404
f 385/385/385 380/380/380 404/404/404
f 402/402/402 401/401/401 405/405/405
f 405/405/405 401/401/401 404/404/404
f 404/404/404 380/380/380 406/406/406
f 380/380/380 379/379/379 406/406/406
f 404/404/404 406/406/406 407/407/407
f 405/405/405 404/404/404 407/407/407
f 407/407/407 406/406/406 408/408/408
f 407/407/407 408/408/408 409/409/409
f 402/402/402 405/405/405 410/410/410
f 403/403/403 402/402/402 410/410/410
f 411/411/411 405/405/405 407/407/407
f 411/411/411 407/407/407 409/409/409
f 410/410/410 405/405/405 411/411/411
f 398/398/398 403/403/403 412/412/412
f 399/399/399 398/398/398 412/412/412
f 413/413/413 411/411/411 409/409/409
f 413/413/413 409/409/409 414/414/414
f 403/403/403 410/410/410 415/415/415
f 412/412/412 403/403/403 415/415/415
f 410/410/410 411/411/411 416/416/416
f 416/416/416 411/411/411 413/413/413
f 415/415/415 410/410/410 416/416/416
f 417/417/417 413/413/413 414/414/414
f 417/417/417 414/414/414 418/418/418
f 416/416/416 413/413/413 419/419/419
f 417/417/417 419/419/419 413/413/413
f 415/415/415 416/416/416 420/420/420
f 420/420/420 416/416/416 419/419/419
f 412/412/412 415/415/415 421/421/421
f 421/421/421 415/415/415 420/420/420
f 399/399/399 412/412/412 422/422/422
f 422/422/422 412/412/412 421/421/421
f 419/419/419 417/417/417 423/423/423
f 423/423/423 417/417/417 418/418/418
f 420/420/420 419/419/419 424/424/424
f 419/419/419 423/423/423 424/424/424
f 421/421/421 420/420/420 425/425/425
f 425/425/425 420/420/420 424/424/424
f 426/426/426 399/399/399 422/422/422
f 399/399/399 426/426/426 298/298/298
f 426/426/426 299/299/299 298/298/298
f 422/422/422 421/421/421 427/427/427
f 427/427/427 421/421/421 425/425/425
f 426/426/426 422/422/422 428/428/428
f 428/428/428 422/422/422 427/427/427
f 426/426/426 429/429/429 299/299/299
f 426/426/426 428/428/428 429/429/429
f 429/429/429 301/301/301 299/299/299
f 428/428/428 427/427/427 430/430/430
f 429/429/429 428/428/428 430/430/430
f 427/427/427 425/425/425 431/431/431
f 430/430/430 427/427/427 431/431/431
f 425/425/425 424/424/424 432/432/432
f 431/431/431 425/425/425 432/432/432
f 429/429/429 433/433/433 301/301/301
f 429/429/429 430/430/430 433/433/433
f 430/430/430 431/431/431 434/434/434
f 433/433/433 430/430/430 434/434/434
f 433/433/433 435/435/435 301/301/301
f 435/435/435 302/302/302 301/301/301
f 424/424/424 436/436/436 432/432/432
f 424/424/424 423/423/423 436/436/436
f 431/431/431 432/432/432 437/437/437
f 434/434/434 431/431/431 437/437/437
f 433/433/433 434/434/434 438/438/438
f 433/433/433 438/438/438 435/435/435
f 435/435/435 439/439/439 302/302/302
f 439/439/439 440/440/440 302/302/302
f 439/439/439 441/441/441 440/440/440
f 442/442/442 439/439/439 435/435/435
f 438/438/438 442/442/442 435/435/435
f 443/443/443 441/441/441 439/439/439
f 442/442/442 443/443/443 439/439/439
f 443/443/443 444/444/444 441/441/441
f 444/444/444 445/445/445 441/441/441
f 438/438/438 434/434/434 446/446/446
f 434/434/434 437/437/437 446/446/446
f 438/438/438 447/447/447 442/442/442
f 438/438/438 446/446/446 447/447/447
f 447/447/447 448/448/448 442/442/442
f 447/447/447 449/449/449 448/448/448
f 446/446/446 449/449/449 447/447/447
f 449/449/449 450/450/450 448/448/448
f 446/446/446 451/451/451 449/449/449
f 449/449/449 451/451/451 450/450/450
f 437/437/437 451/451/451 446/446/446
f 451/451/451 452/452/452 450/450/450
f 437/437/437 453/453/453 451/451/451
f 451/451/451 453/453/453 452/452/452
f 432/432/432 453/453/453 437/437/437
f 432/432/432 436/436/436 453/453/453
f 453/453/453 454/454/454 452/452/452
f 453/453/453 436/436/436 454/454/454
f 454/454/454 455/455/455 452/452/452
f 436/436/436 456/456/456 454/454/454
f 436/436/436 423/423/423 456/456/456
f 423/423/423 418/418/418 456/456/456
f 456/456/456 457/457/457 454/454/454
f 454/454/454 457/457/457 455/455/455
f 456/456/456 458/458/458 457/457/457
f 418/418/418 458/458/458 456/456/456
f 418/418/418 459/459/459 458/458/458
f 460/460/460 418/418/418 461/461/461
f 460/460/460 462/462/462 458/458/458
f 460/460/460 463/463/463 462/462/462
f 460/460/460 461/461/461 464/464/464
f 465/465/465 463/463/463 460/460/460
f 465/465/465 460/460/460 464/464/464
f 466/466/466 465/465/465 464/464/464
f 467/467/467 466/466/466 464/464/464
f 467/467/467 464/464/464 468/468/468
f 466/466/466 469/469/469 465/465/465
f 470/470/470 469/469/469 466/466/466
f 470/470/470 379/379/379 469/469/469
f 471/471/471 472/472/472 465/465/465
f 471/471/471 473/473/473 472/472/472
f 379/379/379 475/475/475 474/474/474
f 379/379/379 474/474/474 476/476/476
f 473/473/473 477/477/477 361/361/361
f 473/473/473 361/361/361 478/478/478
f 476/476/476 371/371/371 479/479/479
f 476/476/476 480/480/480 371/371/371
f 478/478/478 482/482/482 481/481/481
f 478/478/478 481/481/481 483/483/483
f 484/484/484 478/478/478 483/483/483
f 485/485/485 478/478/478 484/484/484
f 485/485/485 486/486/486 478/478/478
f 484/484/484 483/483/483 487/487/487
f 487/487/487 483/483/483 488/488/488
f 487/487/487 488/488/488 489/489/489
f 483/483/483 490/490/490 488/488/488
f 483/483/483 491/491/491 490/490/490
f 489/489/489 488/488/488 492/492/492
f 488/488/488 493/493/493 492/492/492
f 488/488/488 494/494/494 493/493/493
f 492/492/492 493/493/493 495/495/495
f 489/489/489 492/492/492 496/496/496
f 455/455/455 489/489/489 496/496/496
f 455/455/455 496/496/496 497/497/497
f 492/492/492 495/495/495 498/498/498
f 496/496/496 492/492/492 498/498/498
f 499/499/499 498/498/498 495/495/495
f 496/496/496 498/498/498 500/500/500
f 499/499/499 501/501/501 498/498/498
f 500/500/500 498/498/498 501/501/501
f 501/501/501 499/499/499 502/502/502
f 500/500/500 501/501/501 444/444/444
f 501/501/501 502/502/502 445/445/445
f 444/444/444 501/501/501 445/445/445
f 445/445/445 502/502/502 503/503/503
f 445/445/445 503/503/503 295/295/295
f 504/504/504 295/295/295 505/505/505
f 504/504/504 506/506/506 295/295/295
f 507/507/507 444/444/444 508/508/508
f 509/509/509 496/496/496 507/507/507
f 507/507/507 508/508/508 510/510/510
f 509/509/509 507/507/507 510/510/510
f 511/511/511 509/509/509 510/510/510
f 512/512/512 509/509/509 511/511/511
f 512/512/512 455/455/455 509/509/509
f 511/511/511 510/510/510 513/513/513
f 510/510/510 514/514/514 513/513/513
f 510/510/510 515/515/515 514/514/514
f 516/516/516 517/517/517 455/455/455
f 516/516/516 518/518/518 517/517/517
f 519/519/519 521/521/521 520/520/520
f 519/519/519 522/522/522 521/521/521
f 523/523/523 525/525/525 524/524/524
f 523/523/523 526/526/526 525/525/525
f 527/527/527 529/529/529 528/528/528
f 527/527/527 528/528/528 334/334/334
f 530/530/530 110/110/110 531/531/531
f 530/530/530 532/532/532 110/110/110
f 118/118/118 534/534/534 533/533/533
f 118/118/118 533/533/533 535/535/535
f 535/535/535 533/533/533 536/536/536
f 535/535/535 536/536/536 115/115/115
f 537/537/537 539/539/539 538/538/538
f 537/537/537 538/538/538 540/540/540
f 540/540/540 377/377/377 541/541/541
f 540/540/540 542/542/542 377/377/377
f 543/543/543 291/291/291 544/544/544
f 543/543/543 545/545/545 291/291/291
f 546/546/546 547/547/547 543/543/543
f 546/546/546 548/548/548 547/547/547
f 549/549/549 551/551/551 550/550/550
f 549/549/549 484/484/484 551/551/551
f 552/552/552 108/108/108 553/553/553
f 552/552/552 554/554/554 108/108/108
f 555/555/555 82/82/82 556/556/556
f 555/555/555 557/557/557 82/82/82
f 80/80/80 558/558/558 555/555/555
f 80/80/80 559/559/559 558/558/558
