mtllib P_RockHexic_RockSlanted03.mtl
v 1.929603 1.354361 1.742954 0 0.8156863 0
v 0.8869416 1.597249 0.3608143 0 0 0
v 1.791237 1.221856 1.750341 0 0.7294118 0
v 1.84022 0.9823582 1.706982 0 0.7921569 0
v 1.837912 0.982603 1.66401 0 0.7843137 0
v 1.851505 0.9794702 1.685852 0 0.7882353 0
v -3.954634 7.583952 -1.553125 0 0.4431373 0
v -3.954634 -3.277154 -1.553125 0 0 0
v -1.871745 -3.944098 -1.553125 0 0 0
v -1.871745 6.926567 -1.553125 0 0.6627451 0
v -0.8302997 -4.598554 0.25071 0 0 0
v -0.8302997 6.270678 0.25071 0 0.9764706 0
v -1.871745 -4.598555 2.054545 0 0 0
v -1.871745 6.270675 2.054545 0 0.6745098 0
v -0.9485812 6.416781 0.2555524 0 0.9803922 0
v -1.932265 7.03644 -1.448262 0 0.6588235 0
v -4.996077 7.583955 0.25071 0 0.6901961 0
v -3.954634 -3.277154 -1.553125 0 0 0
v -3.954634 7.583952 -1.553125 0 0.4431373 0
v -4.996077 -3.286335 0.25071 0 0 0
v -3.954634 6.94592 2.054545 0 0.4509804 0
v -3.954634 -3.944102 2.054545 0 0 0
v -1.871745 6.270675 2.054545 0 0.6745098 0
v -1.871745 -4.598555 2.054545 0 0 0
v -4.877724 -3.43204 0.2458391 0 0 0
v -3.894053 -4.053736 1.949715 0 0 0
v -1.126946 7.696515 -3.326682 0 0.6705883 0
v -1.126946 -7.541138 -3.326682 0 0 0
v 0.922876 -8.187952 -3.382984 0 0 0
v 0.922876 7.050084 -3.382984 0 0.6431373 0
v 1.996545 -8.831972 -1.635937 0 0 0
v 1.996545 6.404631 -1.635937 0 0.572549 0
v 1.020395 -8.831972 0.1674125 0 0 0
v 1.020395 6.404631 0.1674125 0 0.5529412 0
v 1.878438 6.550712 -1.627852 0 0.5843138 0
v 0.8652502 7.159925 -3.2765 0 0.7058824 0
v -2.103098 7.696516 -1.523332 0 0.5372549 0
v -1.126946 -7.541138 -3.326682 0 0 0
v -1.126946 7.696515 -3.326682 0 0.6705883 0
v -2.103098 -7.541138 -1.523332 0 0 0
v -1.029427 7.050084 0.2237152 0 0.9843137 0
v -1.029427 -8.187953 0.2237152 0 0 0
v 1.020395 6.404631 0.1674125 0 0.5529412 0
v 1.020395 -8.831972 0.1674125 0 0 0
v -1.985009 -7.687282 -1.531435 0 0 0
v -0.9717515 -8.297585 0.1172557 0 0 0
v -0.8906311 1.457719 0.2159961 0 0 0
v -0.931484 -5.366424 0.2495462 0 0 0
v 0.8639879 -6.014904 0.1925371 0 0 0
v 0.9048973 1.457729 0.1589406 0 0 0
v 1.837912 0.982603 1.66401 0 0.7843137 0
v 1.797127 1.107459 1.596836 0 0.8235294 0
v 1.84022 0.9823582 1.706982 0 0.7921569 0
v 1.760369 1.159331 1.6883 0 0.8352941 0
v 1.851505 0.9794702 1.685852 0 0.7882353 0
v 1.811148 -6.577013 1.718995 0 0 0
v 1.84022 0.9823582 1.706982 0 0.7921569 0
v 0.9615115 -6.576389 3.305565 0 0 0
v 0.8694904 0.9025813 3.299073 0 0.2156863 0
v 0.961463 1.016284 3.145997 0 0.2784314 0
v -1.738984 1.598311 1.799497 0 0.5803922 0
v -1.600829 1.707638 1.795472 0 0.5607843 0
v -0.854031 1.318256 3.112092 0 0.1254902 0
v -0.7600578 1.121497 3.292852 0 0.1960784 0
v -1.779849 -5.366344 1.833057 0 0 0
v -0.8906311 1.457719 0.2159961 0 0 0
v -0.931484 -5.366424 0.2495462 0 0 0
v -0.831947 -6.014353 3.327808 0 0 0
v -1.663443 -5.517719 1.822811 0 0 0
v -0.7762317 -6.124895 3.222858 0 0 0
v 0.8435006 0.9054778 3.299392 0 0.227451 0
v 0.8694904 0.9025813 3.299073 0 0.2156863 0
v 0.9615115 -6.576389 3.305565 0 0 0
v 0.7620232 1.01633 3.298567 0 0.3921569 0
v -0.5092605 1.261329 3.254044 0 0.5254902 0
v 0.7511761 1.03043 3.295149 0 0.4039216 0
v 1.929603 5.304988 1.742954 0 0.8156863 0
v 1.1156 1.258193 3.344383 0 0.4823529 0
v 1.1156 5.304994 3.344383 0 0.227451 0
v 1.929603 1.354361 1.742954 0 0.8156863 0
v 0.9497277 5.887356 0.2372916 0 0.8156863 0
v 0.9497277 1.719833 0.2372916 0 0 0
v 1.812011 5.452024 1.754346 0 0.8470588 0
v 0.8944466 5.995389 0.3449864 0 0.7254902 0
v -0.8441528 1.716195 0.3330581 0 0 0
v -0.8441528 6.441183 0.3330581 0 0.9803922 0
v 0.961463 1.016284 3.145997 0 0.2784314 0
v 0.8694904 0.9025813 3.299073 0 0.2156863 0
v 0.9614627 1.016284 3.145998 0 0.2784314 0
v 0.8435006 0.9054778 3.299392 0 0.227451 0
v 0.7620232 1.01633 3.298567 0 0.3921569 0
v 0.7511761 1.03043 3.295149 0 0.4039216 0
v 0.9060487 1.129859 3.137414 0 0.4392157 0
v -0.5092605 1.261329 3.254044 0 0.5254902 0
v 1.713579 1.196803 1.689787 0 0.8352941 0
v 1.760369 1.159331 1.6883 0 0.8352941 0
v 0.961463 1.016284 3.145997 0 0.2784314 0
v 0.9614627 1.016284 3.145998 0 0.2784314 0
v 1.84022 0.9823582 1.706982 0 0.7921569 0
v 1.797127 1.107459 1.596836 0 0.8235294 0
v 0.9048973 1.457729 0.1589406 0 0 0
v 0.83946 1.577843 0.2810805 0 0 0
v -0.8906311 1.457719 0.2159961 0 0 0
v -0.817448 1.588644 0.3332438 0 0 0
v -1.738984 1.598311 1.799497 0 0.5803922 0
v -1.600829 1.707638 1.795472 0 0.5607843 0
v -0.854031 1.318256 3.112092 0 0.1254902 0
v -0.7600578 1.121497 3.292852 0 0.1960784 0
v 4.615698 -7.679134 -0.05540904 0 0 0
v 3.695785 -7.797424 1.663311 0 0 0
v 3.678076 -3.879569 1.667298 0 0 0
v 4.596517 -3.814907 -0.05121487 0 0 0
v 3.905738 5.032574 1.696478 0 0.02352941 0
v 3.585357 -7.007144 -1.705103 0 0 0
v 4.828212 5.076096 -0.01741049 0 0.1490196 0
v 3.56607 -3.530587 -1.700761 0 0 0
v 1.610719 -3.185097 -1.619568 0 0 0
v 1.6263 -6.490058 -1.619442 0 0 0
v 1.859665 6.123125 -1.610642 0 0.6156863 0
v 3.804003 5.549143 -1.67126 0 0.1882353 0
v 4.710777 5.210792 -0.01046615 0 0.09411765 0
v 3.749377 5.658647 -1.563826 0 0.2470588 0
v 1.929603 1.354361 1.742954 0 0.8156863 0
v 0.9497277 1.719833 0.2372916 0 0 0
v 0.8869416 1.597249 0.3608143 0 0 0
v -0.7684578 1.606871 0.4487002 0 0 0
v -0.8441528 1.716195 0.3330581 0 0 0
v 1.040517 1.14512 3.228342 0 0 0
v 1.791237 1.221856 1.750341 0 0.7294118 0
v 1.929603 1.354361 1.742954 0 0.8156863 0
v 1.1156 1.258193 3.344383 0 0.4823529 0
v -1.520121 1.725867 1.927484 0 0 0
v -1.658156 1.856795 1.934487 0 0.5333334 0
v -0.6159786 1.34653 3.316774 0 0.5294118 0
v -0.6782802 1.490758 3.440149 0 0.5176471 0
v -1.658156 1.856795 1.934487 0 0.5333334 0
v -0.6782802 1.490758 3.440149 0 0.5176471 0
v -0.6159786 1.34653 3.316774 0 0.5294118 0
v -0.6782802 5.868396 3.440149 0 0.6862745 0
v 1.1156 5.304994 3.344383 0 0.227451 0
v 1.1156 1.258193 3.344383 0 0.4823529 0
v -1.658156 6.428644 1.934487 0 0.8156863 0
v -0.8441528 6.441183 0.3330581 0 0.9803922 0
v -0.8441528 1.716195 0.3330581 0 0 0
v 0.9398257 6.13716 0.1032944 0 0.5333334 0
v 1.610719 -3.185097 -1.619568 0 0 0
v 1.859665 6.123125 -1.610642 0 0.6156863 0
v 0.698732 -3.263123 0.08672099 0 0 0
v 1.6263 -6.490058 -1.619442 0 0 0
v 1.964049 5.5769 1.757151 0 0.6784314 0
v 0.7152335 -6.599562 0.08262192 0 0 0
v 1.729181 -3.691322 1.736267 0 0 0
v 3.905738 5.032574 1.696478 0 0.02352941 0
v 1.745543 -7.264246 1.732325 0 0 0
v 3.678076 -3.879569 1.667298 0 0 0
v 3.695785 -7.797424 1.663311 0 0 0
v -3.954634 7.583952 -1.553125 0 0.4431373 0
v -1.871745 6.926567 -1.553125 0 0.6627451 0
v -1.932265 7.03644 -1.448262 0 0.6588235 0
v -3.899711 7.657244 -1.448275 0 0.5176471 0
v -4.996077 7.583955 0.25071 0 0.6901961 0
v -4.877568 7.658195 0.2461092 0 0.7568628 0
v -3.89457 7.053746 1.949434 0 0.6705883 0
v -3.954634 6.94592 2.054545 0 0.4509804 0
v -1.926338 6.417724 1.949772 0 0.7843137 0
v -0.9485812 6.416781 0.2555524 0 0.9803922 0
v -1.871745 6.270675 2.054545 0 0.6745098 0
v -0.8302997 6.270678 0.25071 0 0.9764706 0
v -1.126946 7.696515 -3.326682 0 0.6705883 0
v 0.922876 7.050084 -3.382984 0 0.6431373 0
v 0.8652502 7.159925 -3.2765 0 0.7058824 0
v -1.069151 7.769842 -3.223376 0 0.7490196 0
v -2.103098 7.696516 -1.523332 0 0.5372549 0
v -0.9717797 7.159925 0.1172431 0 0.9882353 0
v 1.878438 6.550712 -1.627852 0 0.5843138 0
v -1.985002 7.769842 -1.531428 0 0.5450981 0
v -1.029427 7.050084 0.2237152 0 0.9843137 0
v 0.9625846 6.550712 0.06410377 0 0.7921569 0
v 1.996545 6.404631 -1.635937 0 0.572549 0
v 1.020395 6.404631 0.1674125 0 0.5529412 0
v 1.859665 6.123125 -1.610642 0 0.6156863 0
v 3.804003 5.549143 -1.67126 0 0.1882353 0
v 3.749377 5.658647 -1.563826 0 0.2470588 0
v 1.92151 6.198236 -1.507073 0 0.5254902 0
v 1.061332 6.211357 0.09555929 0 0.4392157 0
v 0.9398257 6.13716 0.1032944 0 0.5333334 0
v 2.024208 5.684688 1.65044 0 0.4196078 0
v 4.710777 5.210792 -0.01046615 0 0.09411765 0
v 1.964049 5.5769 1.757151 0 0.6784314 0
v 3.849288 5.176524 1.594067 0 0.02745098 0
v 4.828212 5.076096 -0.01741049 0 0.1490196 0
v 3.905738 5.032574 1.696478 0 0.02352941 0
v -0.8441528 6.441183 0.3330581 0 0.9803922 0
v 0.9497277 5.887356 0.2372916 0 0.8156863 0
v 0.8944466 5.995389 0.3449864 0 0.7254902 0
v -0.7835172 6.51441 0.4347485 0 0.9803922 0
v -1.540064 6.503102 1.923417 0 0.7529412 0
v -1.658156 6.428644 1.934487 0 0.8156863 0
v -0.6234563 5.977976 3.332171 0 0.7568628 0
v -0.6782802 5.868396 3.440149 0 0.6862745 0
v 1.812011 5.452024 1.754346 0 0.8470588 0
v 1.055093 5.450952 3.242596 0 0.2862745 0
v 1.1156 5.304994 3.344383 0 0.227451 0
v 1.929603 5.304988 1.742954 0 0.8156863 0
v -1.871745 -4.598555 2.054545 0 0 0
v -3.894053 -4.053736 1.949715 0 0 0
v -3.954634 -3.944102 2.054545 0 0 0
v -1.92672 -4.672007 1.949682 0 0 0
v -0.9486013 -4.672007 0.2555311 0 0 0
v -0.8302997 -4.598554 0.25071 0 0 0
v -1.932112 -4.053251 -1.448199 0 0 0
v -4.877724 -3.43204 0.2458391 0 0 0
v -1.871745 -3.944098 -1.553125 0 0 0
v -3.899933 -3.424317 -1.448404 0 0 0
v -4.996077 -3.286335 0.25071 0 0 0
v -3.954634 -3.277154 -1.553125 0 0 0
v 1.020395 -8.831972 0.1674125 0 0 0
v -0.9717515 -8.297585 0.1172557 0 0 0
v -1.029427 -8.187953 0.2237152 0 0 0
v 0.9625554 -8.905414 0.06409777 0 0 0
v 1.996545 -8.831972 -1.635937 0 0 0
v 0.8652762 -8.297585 -3.276484 0 0 0
v -1.985009 -7.687282 -1.531435 0 0 0
v 1.878417 -8.905414 -1.627873 0 0 0
v 0.922876 -8.187952 -3.382984 0 0 0
v -1.069161 -7.687282 -3.223378 0 0 0
v -2.103098 -7.541138 -1.523332 0 0 0
v -1.126946 -7.541138 -3.326682 0 0 0
v 0.9615115 -6.576389 3.305565 0 0 0
v -0.7762317 -6.124895 3.222858 0 0 0
v -0.831947 -6.014353 3.327808 0 0 0
v 0.9042351 -6.650993 3.202595 0 0 0
v 1.692481 -6.650617 1.728075 0 0 0
v 1.811148 -6.577013 1.718995 0 0 0
v 0.8058733 -6.124895 0.2993082 0 0 0
v 0.8639879 -6.014904 0.1925371 0 0 0
v -0.8757216 -5.51738 0.3527809 0 0 0
v -1.663443 -5.517719 1.822811 0 0 0
v -0.931484 -5.366424 0.2495462 0 0 0
v -1.779849 -5.366344 1.833057 0 0 0
v 3.585357 -7.007144 -1.705103 0 0 0
v 1.6263 -6.490058 -1.619442 0 0 0
v 1.686769 -6.637497 -1.51792 0 0 0
v 0.7152335 -6.599562 0.08262192 0 0 0
v 3.527437 -7.12592 -1.599085 0 0 0
v 4.615698 -7.679134 -0.05540904 0 0 0
v 0.834384 -6.741805 0.07302045 0 0 0
v 1.745543 -7.264246 1.732325 0 0 0
v 1.804612 -7.366437 1.626323 0 0 0
v 3.695785 -7.797424 1.663311 0 0 0
v 4.497657 -7.756396 -0.04596803 0 0 0
v 3.636906 -7.868089 1.561321 0 0 0
vn 0.9254012 -0.369085 -0.08607473
vn 0.1419155 -0.8659498 -0.4795738
vn 0.3939597 -0.9094978 -0.1327012
vn 0.8871881 0.2741576 0.3711267
vn 0.9123172 0.1756877 -0.36988
vn 0.862682 0.5048887 -0.02944808
vn -0.3950562 0.4616771 -0.7942197
vn -0.5047764 -0.2733434 -0.818831
vn 0.3949245 -0.3585778 -0.8458467
vn 0.5346454 0.356862 -0.7660313
vn 0.8855713 -0.4612674 -0.0547345
vn 0.9608154 0.2757777 0.02793615
vn 0.395421 -0.4612524 0.7942849
vn 0.5054047 0.2734223 0.818417
vn 0.631908 0.765221 0.1230008
vn 0.448648 0.8572134 -0.252785
vn -0.8867623 0.4591641 0.05311275
vn -0.5047764 -0.2733434 -0.818831
vn -0.3950562 0.4616771 -0.7942197
vn -0.9605534 -0.2766273 -0.02853829
vn -0.3938415 0.362075 0.8448613
vn -0.5346414 -0.357519 0.7657276
vn 0.5054047 0.2734223 0.818417
vn 0.395421 -0.4612524 0.7942849
vn -0.6311818 -0.7655076 -0.1249308
vn -0.4476053 -0.8581716 0.2513784
vn -0.4168093 0.4615778 -0.7830811
vn -0.5269693 -0.2757111 -0.8039196
vn 0.3725568 -0.3574899 -0.8563892
vn 0.5133612 0.3569533 -0.7804132
vn 0.8837407 -0.4612665 -0.07896589
vn 0.9611914 0.2758775 0.00161328
vn 0.4170998 -0.4612667 0.7831097
vn 0.5269153 0.2758785 0.8038976
vn 0.6348165 0.7653825 0.1058194
vn 0.4407994 0.857857 -0.2641539
vn -0.8835568 0.4615794 0.07919443
vn -0.5269693 -0.2757111 -0.8039196
vn -0.4168093 0.4615778 -0.7830811
vn -0.9612392 -0.275711 -0.001646945
vn -0.3727219 0.3569528 0.8565413
vn -0.5133246 -0.3574911 0.780191
vn 0.5269153 0.2758785 0.8038976
vn 0.4170998 -0.4612667 0.7831097
vn -0.6350919 -0.7651249 -0.1060293
vn -0.4403209 -0.858222 0.2637661
vn -0.4842676 0.3482085 -0.802643
vn -0.5352603 -0.2644121 -0.802236
vn 0.3607394 -0.3631428 -0.859066
vn 0.4633583 0.3904051 -0.7955394
vn 0.9123172 0.1756877 -0.36988
vn 0.8739088 0.406212 -0.2669745
vn 0.8871881 0.2741576 0.3711267
vn 0.7528915 0.6378521 0.16217
vn 0.862682 0.5048887 -0.02944808
vn 0.882003 -0.4639734 -0.082458
vn 0.8871881 0.2741576 0.3711267
vn 0.4147141 -0.4568029 0.7869838
vn 0.4241886 0.3223511 0.8462588
vn 0.7984812 0.242884 0.5508494
vn -0.9076766 0.4159199 0.05598142
vn -0.3051375 0.9494332 0.07394388
vn -0.4422444 0.6875823 0.575891
vn -0.4382908 0.21502 0.8727357
vn -0.9660939 -0.2580743 0.007761408
vn -0.4842676 0.3482085 -0.802643
vn -0.5352603 -0.2644121 -0.802236
vn -0.5214964 -0.3531114 0.7767586
vn -0.6601902 -0.7421499 -0.1155964
vn -0.4547465 -0.8523487 0.2582776
vn 0.1563218 0.2429314 0.9573651
vn 0.4241886 0.3223511 0.8462588
vn 0.4147141 -0.4568029 0.7869838
vn 0.2791918 0.3055336 0.9103303
vn 0.0374128 0.7403605 0.6711681
vn 0.2000021 0.5274888 0.8256844
vn 0.9616191 0.273438 -0.02281008
vn 0.4913881 -0.400159 0.7735699
vn 0.5473723 0.2761105 0.7900295
vn 0.9254012 -0.369085 -0.08607473
vn 0.4934574 0.3614702 -0.7910999
vn 0.4023918 -0.3483136 -0.8466159
vn 0.6400252 0.7627321 0.09277655
vn 0.4312817 0.8611585 -0.2690763
vn -0.5092267 -0.3963476 -0.763935
vn -0.4387755 0.4620205 -0.7707224
vn 0.7984812 0.242884 0.5508494
vn 0.4241886 0.3223511 0.8462588
vn 0.2426328 0.9351211 0.2582209
vn 0.1563218 0.2429314 0.9573651
vn 0.2791918 0.3055336 0.9103303
vn 0.2000021 0.5274888 0.8256844
vn 0.4374265 0.7553326 0.4879864
vn 0.0374128 0.7403605 0.6711681
vn 0.4739295 0.8740208 0.1071377
vn 0.7528915 0.6378521 0.16217
vn 0.7984812 0.242884 0.5508494
vn 0.3504796 0.8587224 0.3738449
vn 0.8871881 0.2741576 0.3711267
vn 0.8739088 0.406212 -0.2669745
vn 0.4633583 0.3904051 -0.7955394
vn 0.2731467 0.9105511 -0.310302
vn -0.4842676 0.3482085 -0.802643
vn -0.2005434 0.9037353 -0.3782127
vn -0.9076766 0.4159199 0.05598142
vn -0.3051375 0.9494332 0.07394388
vn -0.4422444 0.6875823 0.575891
vn -0.4382908 0.21502 0.8727357
vn 0.8894187 -0.446502 -0.0978274
vn 0.4348864 -0.4693114 0.7685184
vn 0.5258903 -0.007043791 0.8505232
vn 0.9993465 -0.009703194 -0.0348199
vn 0.5289798 0.2695284 0.8046955
vn 0.3761673 -0.3330876 -0.8646103
vn 0.9585509 0.2848911 -0.00414892
vn 0.4624271 -0.003928311 -0.8866486
vn -0.5353776 0.006643123 -0.8445868
vn -0.5267985 -0.2758282 -0.8039913
vn -0.4193559 0.4640613 -0.7802485
vn 0.5037255 0.3488934 -0.7902746
vn 0.600129 0.7952871 0.0858117
vn 0.4173167 0.861963 -0.2878657
vn 0.9254012 -0.369085 -0.08607473
vn 0.4023918 -0.3483136 -0.8466159
vn 0.1419155 -0.8659498 -0.4795738
vn -0.2760276 -0.8878538 -0.3681364
vn -0.5092267 -0.3963476 -0.763935
vn 0.1718249 -0.9320378 0.3190326
vn 0.3939597 -0.9094978 -0.1327012
vn 0.9254012 -0.369085 -0.08607473
vn 0.4913881 -0.400159 0.7735699
vn -0.5362381 -0.8434172 -0.03310983
vn -0.9447932 -0.3258834 0.03414375
vn -0.3251164 -0.8839424 0.3360734
vn -0.4622372 -0.3419059 0.8181914
vn -0.9447932 -0.3258834 0.03414375
vn -0.4622372 -0.3419059 0.8181914
vn -0.3251164 -0.8839424 0.3360734
vn -0.3506548 0.357728 0.8654894
vn 0.5473723 0.2761105 0.7900295
vn 0.4913881 -0.400159 0.7735699
vn -0.8828624 0.4583391 0.1023675
vn -0.4387755 0.4620205 -0.7707224
vn -0.5092267 -0.3963476 -0.763935
vn -0.8776468 0.473004 0.07748094
vn -0.5353776 0.006643123 -0.8445868
vn -0.4193559 0.4640613 -0.7802485
vn -0.9993433 0.01082727 0.03457852
vn -0.5267985 -0.2758282 -0.8039913
vn -0.3701197 0.3667466 0.8535271
vn -0.9580619 -0.2865053 -0.005660169
vn -0.4728135 0.002092008 0.8811601
vn 0.5289798 0.2695284 0.8046955
vn -0.5064158 -0.3792662 0.7744032
vn 0.5258903 -0.007043791 0.8505232
vn 0.4348864 -0.4693114 0.7685184
vn -0.3950562 0.4616771 -0.7942197
vn 0.5346454 0.356862 -0.7660313
vn 0.448648 0.8572134 -0.252785
vn -0.004071295 0.9617683 -0.2738343
vn -0.8867623 0.4591641 0.05311275
vn -0.2429595 0.9613166 0.1297729
vn 0.009187765 0.8612525 0.5080942
vn -0.3938415 0.362075 0.8448613
vn 0.426938 0.7625117 0.486107
vn 0.631908 0.765221 0.1230008
vn 0.5054047 0.2734223 0.818417
vn 0.9608154 0.2757777 0.02793615
vn -0.4168093 0.4615778 -0.7830811
vn 0.5133612 0.3569533 -0.7804132
vn 0.4407994 0.857857 -0.2641539
vn -0.01109888 0.9621837 -0.2721752
vn -0.8835568 0.4615794 0.07919443
vn 0.01985248 0.8578569 0.513505
vn 0.6348165 0.7653825 0.1058194
vn -0.2339523 0.9621838 0.1395301
vn -0.3727219 0.3569528 0.8565413
vn 0.435707 0.7653834 0.4736536
vn 0.9611914 0.2758775 0.00161328
vn 0.5269153 0.2758785 0.8038976
vn -0.4193559 0.4640613 -0.7802485
vn 0.5037255 0.3488934 -0.7902746
vn 0.4173167 0.861963 -0.2878657
vn -0.01788437 0.9592659 -0.2819378
vn -0.2371344 0.9629909 0.1281239
vn -0.8776468 0.473004 0.07748094
vn 0.005525417 0.8663521 0.4994032
vn 0.600129 0.7952871 0.0858117
vn -0.3701197 0.3667466 0.8535271
vn 0.4184066 0.7719417 0.4785832
vn 0.9585509 0.2848911 -0.00414892
vn 0.5289798 0.2695284 0.8046955
vn -0.4387755 0.4620205 -0.7707224
vn 0.4934574 0.3614702 -0.7910999
vn 0.4312817 0.8611585 -0.2690763
vn -0.0225417 0.9630119 -0.2685142
vn -0.2360904 0.9604274 0.1477855
vn -0.8828624 0.4583391 0.1023675
vn 0.03131424 0.8580201 0.5126606
vn -0.3506548 0.357728 0.8654894
vn 0.6400252 0.7627321 0.09277655
vn 0.4469861 0.7658291 0.4622869
vn 0.5473723 0.2761105 0.7900295
vn 0.9616191 0.273438 -0.02281008
vn 0.395421 -0.4612524 0.7942849
vn -0.4476053 -0.8581716 0.2513784
vn -0.5346414 -0.357519 0.7657276
vn 0.004287703 -0.9620609 0.2728013
vn 0.2383541 -0.9620576 -0.1327872
vn 0.8855713 -0.4612674 -0.0547345
vn -0.007660229 -0.8583819 -0.5129542
vn -0.6311818 -0.7655076 -0.1249308
vn 0.3949245 -0.3585778 -0.8458467
vn -0.4247657 -0.7616227 -0.4893925
vn -0.9605534 -0.2766273 -0.02853829
vn -0.5047764 -0.2733434 -0.818831
vn 0.4170998 -0.4612667 0.7831097
vn -0.4403209 -0.858222 0.2637661
vn -0.5133246 -0.3574911 0.780191
vn 0.01182174 -0.9620644 0.2725661
vn 0.8837407 -0.4612665 -0.07896589
vn -0.0199133 -0.8582214 -0.5128932
vn -0.6350919 -0.7651249 -0.1060293
vn 0.234676 -0.9620646 -0.1391365
vn 0.3725568 -0.3574899 -0.8563892
vn -0.4360341 -0.7651247 -0.4737705
vn -0.9612392 -0.275711 -0.001646945
vn -0.5269693 -0.2757111 -0.8039196
vn 0.4147141 -0.4568029 0.7869838
vn -0.4547465 -0.8523487 0.2582776
vn -0.5214964 -0.3531114 0.7767586
vn 0.01629076 -0.9598249 0.2801263
vn 0.2344437 -0.9621632 -0.1388457
vn 0.882003 -0.4639734 -0.082458
vn -0.03652742 -0.8548413 -0.5176023
vn 0.3607394 -0.3631428 -0.859066
vn -0.4628583 -0.7437798 -0.4822383
vn -0.6601902 -0.7421499 -0.1155964
vn -0.5352603 -0.2644121 -0.802236
vn -0.9660939 -0.2580743 0.007761408
vn 0.3761673 -0.3330876 -0.8646103
vn -0.5267985 -0.2758282 -0.8039913
vn -0.4082902 -0.7651908 -0.4977773
vn -0.9580619 -0.2865053 -0.005660169
vn 0.005195507 -0.8357811 -0.5490382
vn 0.8894187 -0.446502 -0.0978274
vn -0.6145291 -0.7766913 -0.1382196
vn -0.5064158 -0.3792662 0.7744032
vn -0.414952 -0.8798385 0.2317306
vn 0.4348864 -0.4693114 0.7685184
vn 0.2567845 -0.9495586 -0.1800007
vn 0.04295622 -0.9706558 0.2366054
vt 0.1712187 0.9845371
vt 0.1712187 0.971627
vt 0.1701733 0.9841852
vt 0.9094077 0.8489755
vt 0.9090937 0.8489755
vt 0.9092582 0.8490702
vt 0.5906183 0.5472028
vt 0.6711559 0.5472028
vt 0.676047 0.539067
vt 0.5954384 0.539067
vt 0.6809019 0.5236293
vt 0.600304 0.5236293
vt 0.6809584 0.5163273
vt 0.6003605 0.5163273
vt 0.5992238 0.5240608
vt 0.594627 0.5386425
vt 0.5908208 0.4865741
vt 0.6711478 0.4793749
vt 0.5906183 0.4793749
vt 0.6714184 0.4865741
vt 0.5955604 0.5020078
vt 0.6763043 0.5020078
vt 0.6003733 0.5102423
vt 0.680963 0.5102423
vt 0.6724875 0.4870114
vt 0.6771054 0.5015896
vt 0.3376767 0.2881054
vt 0.4506675 0.2881054
vt 0.4554093 0.2804536
vt 0.3424156 0.2804536
vt 0.4601851 0.2652479
vt 0.347202 0.2652479
vt 0.4602398 0.257694
vt 0.3472568 0.257694
vt 0.346122 0.2656583
vt 0.3416044 0.2800075
vt 0.3378732 0.3016447
vt 0.450656 0.2941904
vt 0.3376767 0.2941904
vt 0.4508525 0.3016447
vt 0.3426687 0.3168495
vt 0.4556509 0.3168495
vt 0.3472604 0.3246001
vt 0.460232 0.3246001
vt 0.4519247 0.3020607
vt 0.4564521 0.3164096
vt 0.7786376 0.7291272
vt 0.8292409 0.7294402
vt 0.8340495 0.7228209
vt 0.7786376 0.7224734
vt 0.7822553 0.7093681
vt 0.7813253 0.7099441
vt 0.7822598 0.7090882
vt 0.7809462 0.7095084
vt 0.7822799 0.7091774
vt 0.8383135 0.7095302
vt 0.7822598 0.7090882
vt 0.8384051 0.702849
vt 0.7829475 0.7028495
vt 0.7820952 0.703449
vt 0.7794574 0.5435407
vt 0.7786375 0.5440676
vt 0.781614 0.5552584
vt 0.7830857 0.5567532
vt 0.8311015 0.5432128
vt 0.78028 0.5369542
vt 0.8308823 0.536634
vt 0.8360012 0.5563022
vt 0.8322152 0.5436006
vt 0.8368062 0.5558583
vt 0.7845851 0.563123
vt 0.7846048 0.5632237
vt 0.8400509 0.5632237
vt 0.7837684 0.5628017
vt 0.7820288 0.557509
vt 0.7836641 0.5627381
vt 0.861872 0.5799077
vt 0.8919271 0.5729931
vt 0.8619192 0.5729931
vt 0.8911668 0.5799077
vt 0.8575548 0.5932255
vt 0.888458 0.5932255
vt 0.8607849 0.5802951
vt 0.8567569 0.5927626
vt 0.8885334 0.5996287
vt 0.8534965 0.5996287
vt 0.9734817 0.8708867
vt 0.9748215 0.8711306
vt 0.9734817 0.8708867
vt 0.9749222 0.870967
vt 0.9752121 0.8702217
vt 0.9752297 0.8701119
vt 0.9736225 0.870266
vt 0.9797407 0.8617757
vt 0.9613295 0.8698211
vt 0.9611469 0.8701839
vt 0.9734817 0.8708867
vt 0.9734817 0.8708867
vt 0.960986 0.8711306
vt 0.9604324 0.8701935
vt 0.954641 0.8588037
vt 0.9556504 0.8585783
vt 0.961848 0.8480757
vt 0.9622964 0.8486527
vt 0.9751317 0.8483003
vt 0.9745643 0.8488842
vt 0.9801443 0.8590386
vt 0.980963 0.8606989
vt 0.06029258 0.6744636
vt 0.06754239 0.6753144
vt 0.06718412 0.6462652
vt 0.05993418 0.6458122
vt 0.06754239 0.5801663
vt 0.04581673 0.6696371
vt 0.06033904 0.5798696
vt 0.04548994 0.6438603
vt 0.03833737 0.6414281
vt 0.03866409 0.6659327
vt 0.03861934 0.5723919
vt 0.04587691 0.5765181
vt 0.05991336 0.5788785
vt 0.04633193 0.5757043
vt 0.9743617 0.8045368
vt 0.9608465 0.8045363
vt 0.9616217 0.8053358
vt 0.9558632 0.8157924
vt 0.954641 0.8158588
vt 0.9803357 0.8159603
vt 0.9741801 0.8053063
vt 0.9743617 0.8045368
vt 0.9810585 0.8160738
vt 0.9615803 0.826609
vt 0.960806 0.8275816
vt 0.9741456 0.8265764
vt 0.9743224 0.8275816
vt 0.887657 0.6125423
vt 0.8903681 0.625862
vt 0.8914245 0.6253343
vt 0.8579102 0.625862
vt 0.8619151 0.6323532
vt 0.89192 0.6323532
vt 0.8537591 0.6125423
vt 0.8534966 0.6057138
vt 0.8885299 0.6057138
vt 0.02484898 0.5723962
vt 0.03225229 0.6414374
vt 0.03196536 0.5723919
vt 0.02514539 0.6421233
vt 0.03192257 0.6659384
vt 0.0103798 0.5763943
vt 0.024836 0.6668576
vt 0.01068934 0.6451415
vt 0.003042538 0.5801662
vt 0.01036038 0.6716291
vt 0.003404442 0.6462725
vt 0.003042541 0.6753173
vt 0.07204162 0.9046223
vt 0.07202023 0.9207976
vt 0.07267848 0.920165
vt 0.07269876 0.9048865
vt 0.08562773 0.8972842
vt 0.08545922 0.8979946
vt 0.09824877 0.9063058
vt 0.09916931 0.906085
vt 0.09824879 0.9216186
vt 0.08548956 0.9285097
vt 0.09916931 0.9222939
vt 0.08558318 0.9296321
vt 0.9251763 0.3046772
vt 0.9175969 0.3186765
vt 0.9184701 0.3184332
vt 0.9256227 0.3052225
vt 0.9403747 0.3046772
vt 0.9470723 0.3184332
vt 0.92566 0.3316421
vt 0.9398823 0.3052225
vt 0.9479938 0.3186765
vt 0.9399197 0.3316422
vt 0.9252158 0.3326735
vt 0.9404142 0.3326735
vt 0.9245287 0.8656375
vt 0.9395579 0.8656375
vt 0.9389458 0.8649828
vt 0.924817 0.8649845
vt 0.9183347 0.8531681
vt 0.9175967 0.8530005
vt 0.9259453 0.8412833
vt 0.9464015 0.8532082
vt 0.9256924 0.8403592
vt 0.9399964 0.8413181
vt 0.9474934 0.8531061
vt 0.9406481 0.8403966
vt 0.9546411 0.2049765
vt 0.9622244 0.2166496
vt 0.9624258 0.2157719
vt 0.9553316 0.2048515
vt 0.9612627 0.1939888
vt 0.9610217 0.1932904
vt 0.9743172 0.1939715
vt 0.974973 0.1932724
vt 0.9755254 0.2157726
vt 0.9814314 0.2049011
vt 0.9825761 0.2049533
vt 0.9762215 0.2166496
vt 0.0387955 0.92231
vt 0.03941642 0.906773
vt 0.03877829 0.9061337
vt 0.03943273 0.9220521
vt 0.0521855 0.9289394
vt 0.05237392 0.9296432
vt 0.06499504 0.9205868
vt 0.052231 0.8984136
vt 0.06593513 0.9208001
vt 0.06499493 0.9052836
vt 0.05234407 0.8972842
vt 0.06593513 0.9045996
vt 0.9403944 0.4739377
vt 0.9471121 0.4876829
vt 0.9479703 0.4879411
vt 0.939963 0.4744685
vt 0.9252077 0.4739377
vt 0.918532 0.4876829
vt 0.9399289 0.5009041
vt 0.9257143 0.4744685
vt 0.9175968 0.4879411
vt 0.9256804 0.5009041
vt 0.9403585 0.5019512
vt 0.9251717 0.5019512
vt 0.9746365 0.7438016
vt 0.9801998 0.7559105
vt 0.9810398 0.7561674
vt 0.9742035 0.7443231
vt 0.9618217 0.744334
vt 0.9613087 0.7438016
vt 0.9555811 0.755811
vt 0.954641 0.7560639
vt 0.9617668 0.7674866
vt 0.9741178 0.7674875
vt 0.9612452 0.7685301
vt 0.9745488 0.768531
vt 0.9256146 0.6086161
vt 0.9175969 0.6213382
vt 0.9187626 0.621272
vt 0.924599 0.6338509
vt 0.9262975 0.6093139
vt 0.9408691 0.6086161
vt 0.9253089 0.6329712
vt 0.939837 0.6338569
vt 0.9396542 0.632977
vt 0.9479573 0.6212447
vt 0.9406548 0.6093144
vt 0.947284 0.6211264
usemtl MV_RockHexic_RockSlanted
f 1/1/1 3/3/3 2/2/2
f 4/4/4 6/6/6 5/5/5
f 7/7/7 9/9/9 8/8/8
f 7/7/7 10/10/10 9/9/9
f 10/10/10 11/11/11 9/9/9
f 10/10/10 12/12/12 11/11/11
f 12/12/12 13/13/13 11/11/11
f 12/12/12 14/14/14 13/13/13
f 10/10/10 15/15/15 12/12/12
f 10/10/10 16/16/16 15/15/15
f 17/17/17 19/19/19 18/18/18
f 17/17/17 18/18/18 20/20/20
f 21/21/21 17/17/17 20/20/20
f 21/21/21 20/20/20 22/22/22
f 23/23/23 21/21/21 22/22/22
f 23/23/23 22/22/22 24/24/24
f 22/22/22 20/20/20 25/25/25
f 22/22/22 25/25/25 26/26/26
f 27/27/27 29/29/29 28/28/28
f 27/27/27 30/30/30 29/29/29
f 30/30/30 31/31/31 29/29/29
f 30/30/30 32/32/32 31/31/31
f 32/32/32 33/33/33 31/31/31
f 32/32/32 34/34/34 33/33/33
f 30/30/30 35/35/35 32/32/32
f 30/30/30 36/36/36 35/35/35
f 37/37/37 39/39/39 38/38/38
f 37/37/37 38/38/38 40/40/40
f 41/41/41 37/37/37 40/40/40
f 41/41/41 40/40/40 42/42/42
f 43/43/43 41/41/41 42/42/42
f 43/43/43 42/42/42 44/44/44
f 42/42/42 40/40/40 45/45/45
f 42/42/42 45/45/45 46/46/46
f 47/47/47 49/49/49 48/48/48
f 47/47/47 50/50/50 49/49/49
f 50/50/50 51/51/51 49/49/49
f 50/50/50 52/52/52 51/51/51
f 53/53/53 51/51/51 52/52/52
f 52/52/52 54/54/54 53/53/53
f 49/49/49 51/51/51 55/55/55
f 49/49/49 55/55/55 56/56/56
f 57/57/57 56/56/56 55/55/55
f 57/57/57 58/58/58 56/56/56
f 58/58/58 57/57/57 59/59/59
f 57/57/57 60/60/60 59/59/59
f 61/61/61 63/63/63 62/62/62
f 64/64/64 63/63/63 61/61/61
f 64/64/64 61/61/61 65/65/65
f 65/65/65 61/61/61 66/66/66
f 65/65/65 66/66/66 67/67/67
f 65/65/65 68/68/68 64/64/64
f 68/68/68 65/65/65 69/69/69
f 68/68/68 69/69/69 70/70/70
f 71/71/71 64/64/64 68/68/68
f 68/68/68 72/72/72 71/71/71
f 68/68/68 73/73/73 72/72/72
f 71/71/71 74/74/74 64/64/64
f 74/74/74 75/75/75 64/64/64
f 74/74/74 76/76/76 75/75/75
f 77/77/77 79/79/79 78/78/78
f 77/77/77 78/78/78 80/80/80
f 81/81/81 77/77/77 80/80/80
f 81/81/81 80/80/80 82/82/82
f 81/81/81 83/83/83 77/77/77
f 81/81/81 84/84/84 83/83/83
f 85/85/85 81/81/81 82/82/82
f 85/85/85 86/86/86 81/81/81
f 87/87/87 89/89/89 88/88/88
f 88/88/88 89/89/89 90/90/90
f 90/90/90 89/89/89 91/91/91
f 89/89/89 92/92/92 91/91/91
f 93/93/93 92/92/92 89/89/89
f 94/94/94 92/92/92 93/93/93
f 94/94/94 93/93/93 95/95/95
f 96/96/96 95/95/95 93/93/93
f 97/97/97 96/96/96 93/93/93
f 97/97/97 93/93/93 98/98/98
f 96/96/96 97/97/97 99/99/99
f 95/95/95 96/96/96 100/100/100
f 95/95/95 100/100/100 101/101/101
f 101/101/101 102/102/102 95/95/95
f 95/95/95 102/102/102 94/94/94
f 103/103/103 102/102/102 101/101/101
f 103/103/103 104/104/104 102/102/102
f 102/102/102 104/104/104 94/94/94
f 105/105/105 104/104/104 103/103/103
f 105/105/105 106/106/106 104/104/104
f 104/104/104 106/106/106 94/94/94
f 106/106/106 107/107/107 94/94/94
f 94/94/94 107/107/107 108/108/108
f 109/109/109 111/111/111 110/110/110
f 109/109/109 112/112/112 111/111/111
f 112/112/112 113/113/113 111/111/111
f 114/114/114 112/112/112 109/109/109
f 112/112/112 115/115/115 113/113/113
f 114/114/114 116/116/116 112/112/112
f 116/116/116 115/115/115 112/112/112
f 117/117/117 116/116/116 114/114/114
f 117/117/117 114/114/114 118/118/118
f 119/119/119 116/116/116 117/117/117
f 119/119/119 120/120/120 116/116/116
f 116/116/116 120/120/120 115/115/115
f 120/120/120 121/121/121 115/115/115
f 120/120/120 122/122/122 121/121/121
f 123/123/123 125/125/125 124/124/124
f 124/124/124 125/125/125 126/126/126
f 124/124/124 126/126/126 127/127/127
f 126/126/126 125/125/125 128/128/128
f 125/125/125 129/129/129 128/128/128
f 130/130/130 128/128/128 129/129/129
f 130/130/130 131/131/131 128/128/128
f 127/127/127 126/126/126 132/132/132
f 132/132/132 126/126/126 128/128/128
f 127/127/127 132/132/132 133/133/133
f 133/133/133 132/132/132 134/134/134
f 128/128/128 134/134/134 132/132/132
f 131/131/131 134/134/134 128/128/128
f 131/131/131 135/135/135 134/134/134
f 136/136/136 138/138/138 137/137/137
f 139/139/139 136/136/136 137/137/137
f 140/140/140 139/139/139 137/137/137
f 140/140/140 137/137/137 141/141/141
f 139/139/139 142/142/142 136/136/136
f 136/136/136 142/142/142 143/143/143
f 136/136/136 143/143/143 144/144/144
f 145/145/145 147/147/147 146/146/146
f 145/145/145 146/146/146 148/148/148
f 148/148/148 146/146/146 149/149/149
f 150/150/150 145/145/145 148/148/148
f 148/148/148 149/149/149 151/151/151
f 150/150/150 148/148/148 152/152/152
f 152/152/152 148/148/148 151/151/151
f 153/153/153 150/150/150 152/152/152
f 152/152/152 151/151/151 154/154/154
f 153/153/153 152/152/152 155/155/155
f 156/156/156 152/152/152 154/154/154
f 156/156/156 155/155/155 152/152/152
f 157/157/157 159/159/159 158/158/158
f 157/157/157 160/160/160 159/159/159
f 161/161/161 160/160/160 157/157/157
f 161/161/161 162/162/162 160/160/160
f 161/161/161 163/163/163 162/162/162
f 160/160/160 162/162/162 163/163/163
f 159/159/159 160/160/160 163/163/163
f 161/161/161 164/164/164 163/163/163
f 163/163/163 165/165/165 159/159/159
f 164/164/164 165/165/165 163/163/163
f 166/166/166 159/159/159 165/165/165
f 164/164/164 167/167/167 165/165/165
f 168/168/168 166/166/166 165/165/165
f 168/168/168 165/165/165 167/167/167
f 169/169/169 171/171/171 170/170/170
f 169/169/169 172/172/172 171/171/171
f 173/173/173 172/172/172 169/169/169
f 171/171/171 172/172/172 174/174/174
f 175/175/175 171/171/171 174/174/174
f 173/173/173 176/176/176 172/172/172
f 172/172/172 176/176/176 174/174/174
f 173/173/173 174/174/174 176/176/176
f 173/173/173 177/177/177 174/174/174
f 174/174/174 178/178/178 175/175/175
f 177/177/177 178/178/178 174/174/174
f 179/179/179 175/175/175 178/178/178
f 177/177/177 180/180/180 178/178/178
f 179/179/179 178/178/178 180/180/180
f 181/181/181 183/183/183 182/182/182
f 181/181/181 184/184/184 183/183/183
f 181/181/181 185/185/185 184/184/184
f 181/181/181 186/186/186 185/185/185
f 187/187/187 183/183/183 184/184/184
f 187/187/187 184/184/184 185/185/185
f 186/186/186 187/187/187 185/185/185
f 188/188/188 183/183/183 187/187/187
f 186/186/186 189/189/189 187/187/187
f 188/188/188 187/187/187 190/190/190
f 189/189/189 190/190/190 187/187/187
f 191/191/191 188/188/188 190/190/190
f 189/189/189 192/192/192 190/190/190
f 191/191/191 190/190/190 192/192/192
f 193/193/193 195/195/195 194/194/194
f 193/193/193 196/196/196 195/195/195
f 193/193/193 197/197/197 196/196/196
f 195/195/195 196/196/196 197/197/197
f 193/193/193 198/198/198 197/197/197
f 197/197/197 199/199/199 195/195/195
f 198/198/198 199/199/199 197/197/197
f 198/198/198 200/200/200 199/199/199
f 201/201/201 195/195/195 199/199/199
f 200/200/200 202/202/202 199/199/199
f 202/202/202 201/201/201 199/199/199
f 200/200/200 203/203/203 202/202/202
f 203/203/203 201/201/201 202/202/202
f 203/203/203 204/204/204 201/201/201
f 205/205/205 207/207/207 206/206/206
f 205/205/205 206/206/206 208/208/208
f 205/205/205 208/208/208 209/209/209
f 209/209/209 208/208/208 206/206/206
f 205/205/205 209/209/209 210/210/210
f 211/211/211 209/209/209 206/206/206
f 210/210/210 209/209/209 211/211/211
f 206/206/206 212/212/212 211/211/211
f 210/210/210 211/211/211 213/213/213
f 212/212/212 214/214/214 211/211/211
f 213/213/213 211/211/211 214/214/214
f 215/215/215 214/214/214 212/212/212
f 213/213/213 214/214/214 216/216/216
f 215/215/215 216/216/216 214/214/214
f 217/217/217 219/219/219 218/218/218
f 217/217/217 218/218/218 220/220/220
f 221/221/221 217/217/217 220/220/220
f 220/220/220 218/218/218 222/222/222
f 218/218/218 223/223/223 222/222/222
f 221/221/221 220/220/220 224/224/224
f 222/222/222 224/224/224 220/220/220
f 221/221/221 224/224/224 222/222/222
f 221/221/221 222/222/222 225/225/225
f 223/223/223 226/226/226 222/222/222
f 225/225/225 222/222/222 226/226/226
f 227/227/227 226/226/226 223/223/223
f 225/225/225 226/226/226 228/228/228
f 227/227/227 228/228/228 226/226/226
f 229/229/229 231/231/231 230/230/230
f 229/229/229 230/230/230 232/232/232
f 229/229/229 232/232/232 233/233/233
f 230/230/230 233/233/233 232/232/232
f 229/229/229 233/233/233 234/234/234
f 234/234/234 233/233/233 235/235/235
f 230/230/230 235/235/235 233/233/233
f 234/234/234 235/235/235 236/236/236
f 237/237/237 235/235/235 230/230/230
f 236/236/236 235/235/235 237/237/237
f 237/237/237 230/230/230 238/238/238
f 236/236/236 237/237/237 239/239/239
f 240/240/240 237/237/237 238/238/238
f 240/240/240 239/239/239 237/237/237
f 241/241/241 243/243/243 242/242/242
f 244/244/244 242/242/242 243/243/243
f 241/241/241 245/245/245 243/243/243
f 246/246/246 245/245/245 241/241/241
f 244/244/244 243/243/243 247/247/247
f 247/247/247 243/243/243 245/245/245
f 248/248/248 244/244/244 247/247/247
f 248/248/248 247/247/247 249/249/249
f 249/249/249 247/247/247 245/245/245
f 250/250/250 248/248/248 249/249/249
f 246/246/246 251/251/251 245/245/245
f 250/250/250 251/251/251 246/246/246
f 245/245/245 251/251/251 249/249/249
f 250/250/250 249/249/249 252/252/252
f 252/252/252 249/249/249 251/251/251
f 250/250/250 252/252/252 251/251/251
