mtllib P_RockCubic10.mtl
v 1.449947 -1.424267 -1.862716
v 1.623443 -1.39676 -1.698116
v 1.611505 0.5273206 -1.726105
v 1.486641 0.5237634 -1.825217
v 1.436378 -0.508107 -1.849648
v 1.130215 0.5256895 -1.795583
v 0.7989615 0.5221252 -1.769813
v 1.178083 -1.571742 -1.828943
v 0.4714201 0.5133527 -1.74088
v -0.01708617 -1.21837 -1.645065
v 0.5100974 -1.572614 -1.695015
v -0.1606523 -1.565957 -1.624989
v -0.01729026 -0.1860075 -1.643973
v 0.0901545 0.5551825 -1.701633
v -0.4069292 -0.2249429 -1.608601
v -1.551161 -0.5744529 -1.662671
v -1.222794 -1.339895 -1.660784
v -0.9087068 -1.587991 -1.657014
v -1.543879 -1.179186 -1.644232
v -1.53261 0.1962529 -1.668988
v -0.5926439 0.861789 -1.688583
v -1.628939 0.8884983 -1.671116
v -1.565863 1.54202 -1.674971
v -0.2385522 1.612492 -1.693763
v 0.05456337 1.641352 -1.696542
v 0.7442893 0.5499828 -1.657699
v 1.451193 0.5742393 -1.589337
v 1.47456 0.5384324 -1.615526
v 1.258739 1.789886 -1.60024
v 0.7042598 1.746469 -1.633216
v 1.448004 1.660711 -1.582753
v 1.602005 -1.468811 -1.610221
v 1.623443 -1.39676 -1.698116
v 1.449947 -1.424267 -1.862716
v 1.178083 -1.571742 -1.828943
v 1.315477 -1.585104 -1.662582
v 1.540512 -1.530068 -0.8369488
v 0.5100974 -1.572614 -1.695015
v -0.5294591 -1.597022 -1.404797
v -0.1606523 -1.565957 -1.624989
v -0.9087068 -1.587991 -1.657014
v 1.241224 -1.570673 -0.3886641
v 1.539082 -1.530654 -0.3991453
v 1.591013 -1.584624 0.2633389
v 0.5483037 -1.595173 0.9008771
v 1.242714 -1.590118 1.605677
v 1.632195 -1.585769 1.149884
v 1.641628 -1.43788 1.557714
v 0.7590524 -1.592265 1.674907
v -1.647245 -1.590032 1.494972
v -0.1431063 -1.567848 1.799622
v -1.638471 -1.562453 1.646662
v -1.109013 -1.592671 -0.9727867
v -1.658358 -1.589659 -0.5653864
v -1.32733 -1.400878 -1.462991
v -1.222794 -1.339895 -1.660784
v -1.613863 -1.191445 -1.569402
v -1.543879 -1.179186 -1.644232
v 1.611505 0.5273206 -1.726105
v 1.130215 0.5256895 -1.795583
v 1.486641 0.5237634 -1.825217
v 1.47456 0.5384324 -1.615526
v 1.597135 0.5257012 -1.121701
v 0.7442893 0.5499828 -1.657699
v 0.7989615 0.5221252 -1.769813
v 0.4714201 0.5133527 -1.74088
v 0.0901545 0.5551825 -1.701633
v 1.451193 0.5742393 -1.589337
v 1.47456 0.5384324 -1.615526
v 1.597135 0.5257012 -1.121701
v 1.592413 0.5714975 -0.9316282
v 1.448004 1.660711 -1.582753
v 1.561621 0.1414563 -0.4690304
v 1.611505 0.5273206 -1.726105
v 1.532375 1.76473 -0.6638731
v 1.459551 1.798687 -1.399549
v 1.453098 1.582557 -0.16205
v 1.534119 1.757507 -0.5432065
v 1.570053 -1.266398 -0.4755301
v 1.623443 -1.39676 -1.698116
v 1.602005 -1.468811 -1.610221
v 1.540512 -1.530068 -0.8369488
v 1.539082 -1.530654 -0.3991453
v 1.591013 -1.584624 0.2633389
v 1.494469 0.7856187 0.1963526
v 1.526451 1.036968 1.115207
v 1.632195 -1.585769 1.149884
v 1.399302 1.600103 0.4237306
v 1.333565 1.72314 -0.3593675
v 1.484825 1.683031 1.184694
v 1.503199 1.631412 1.652253
v 1.537197 1.039091 1.713858
v 1.616882 -0.7852497 1.566979
v 1.641628 -1.43788 1.557714
v 1.459551 1.798687 -1.399549
v 1.258739 1.789886 -1.60024
v 1.448004 1.660711 -1.582753
v 0.7042598 1.746469 -1.633216
v 1.532375 1.76473 -0.6638731
v 1.333565 1.72314 -0.3593675
v -0.00371942 1.584536 -1.035887
v 1.534119 1.757507 -0.5432065
v 1.453098 1.582557 -0.16205
v 0.05456337 1.641352 -1.696542
v -0.2385522 1.612492 -1.693763
v -1.565863 1.54202 -1.674971
v -1.629965 1.489195 -0.8460569
v -1.5777 1.473383 -0.2290685
v 0.7995758 1.637587 -0.08121077
v 1.265039 1.69093 0.3404167
v 1.399302 1.600103 0.4237306
v 1.484825 1.683031 1.184694
v 1.332075 1.70789 0.9138912
v 1.281286 1.672574 1.66336
v 1.503199 1.631412 1.652253
v 0.5628397 1.632875 1.721255
v -0.3657912 1.564799 1.713941
v -1.249948 1.508304 1.639729
v -1.604803 1.477887 1.209437
v -1.564794 1.458017 1.541397
v -1.613863 -1.191445 -1.569402
v -1.543879 -1.179186 -1.644232
v -1.551161 -0.5744529 -1.662671
v -1.628595 0.2007792 -1.477923
v -1.53261 0.1962529 -1.668988
v -1.658358 -1.589659 -0.5653864
v -1.62097 1.087802 -0.1002372
v -1.651487 -0.4343997 1.653992
v -1.647245 -1.590032 1.494972
v -1.628939 0.8884983 -1.671116
v -1.648756 -1.339496 1.678125
v -1.638471 -1.562453 1.646662
v -1.616255 0.3898332 1.622016
v -1.621088 1.297144 1.563317
v -1.66268 0.9123034 -1.573285
v -1.65822 1.442745 -1.095576
v -1.565863 1.54202 -1.674971
v -1.629965 1.489195 -0.8460569
v -1.5777 1.473383 -0.2290685
v -1.604803 1.477887 1.209437
v -1.564794 1.458017 1.541397
v -1.53861 1.384224 1.616554
v 1.281286 1.672574 1.66336
v 1.503199 1.631412 1.652253
v 0.5628397 1.632875 1.721255
v 1.537197 1.039091 1.713858
v 0.9519941 0.6680572 1.785413
v -0.3657912 1.564799 1.713941
v 0.05384652 -1.539755 1.803156
v 1.616882 -0.7852497 1.566979
v 0.7590524 -1.592265 1.674907
v 1.242714 -1.590118 1.605677
v 1.641628 -1.43788 1.557714
v -0.1431063 -1.567848 1.799622
v -1.651487 -0.4343997 1.653992
v -1.648756 -1.339496 1.678125
v -1.638471 -1.562453 1.646662
v -1.616255 0.3898332 1.622016
v -1.249948 1.508304 1.639729
v -1.53861 1.384224 1.616554
v -1.621088 1.297144 1.563317
v -1.564794 1.458017 1.541397
vn 0.3559727 -0.382218 -0.852756
vn 0.8737025 -0.2983652 -0.3842163
vn 0.717433 0.6069287 -0.3419465
vn 0.2282325 0.624008 -0.7473447
vn 0.006521903 0.01122247 -0.9999158
vn -0.04271143 0.6776165 -0.7341741
vn -0.07584085 0.618858 -0.7818331
vn 0.007675613 -0.6818184 -0.7314813
vn -0.05591834 0.4788664 -0.8761051
vn -0.1238855 -0.01199605 -0.992224
vn -0.1179842 -0.7194517 -0.6844479
vn -0.03931714 -0.6537118 -0.7557216
vn -0.1112328 -0.02932891 -0.9933615
vn -0.03098674 -0.009581186 -0.9994739
vn -0.02153267 -0.02698196 -0.999404
vn -0.5039659 0.01085115 -0.8636554
vn -0.2563403 -0.3962523 -0.8816313
vn -0.140833 -0.6986494 -0.7014664
vn -0.4371687 -0.3438883 -0.8310382
vn -0.4943517 -0.04512673 -0.8680898
vn -0.01423367 -0.02549911 -0.9995735
vn -0.6256903 0.02011815 -0.7798121
vn -0.5188074 0.6122046 -0.5966946
vn -0.05883149 0.7222834 -0.6890904
vn -0.06839924 0.712657 -0.6981702
vn 0.03645494 0.6174557 -0.7857605
vn 0.5858957 0.442082 -0.6791831
vn 0.1916014 0.9580453 -0.2131622
vn 0.1125609 0.7247024 -0.6798063
vn -0.06965545 0.8634665 -0.4995736
vn 0.6813194 0.2245558 -0.6966912
vn 0.7456988 -0.6536372 -0.1291968
vn 0.8737025 -0.2983652 -0.3842163
vn 0.3559727 -0.382218 -0.852756
vn 0.007675613 -0.6818184 -0.7314813
vn 0.2410337 -0.9545833 -0.1751387
vn 0.6945243 -0.7185938 0.03548129
vn -0.1179842 -0.7194517 -0.6844479
vn 0.00776832 -0.9991841 -0.03963197
vn -0.03931714 -0.6537118 -0.7557216
vn -0.140833 -0.6986494 -0.7014664
vn 0.06334316 -0.9978337 -0.01776386
vn 0.7056743 -0.7058666 -0.06145061
vn 0.7120153 -0.7010516 -0.03950851
vn -0.002105752 -0.9999976 0.0006081518
vn 0.1577579 -0.7167047 0.6792988
vn 0.7215669 -0.6917503 0.02868455
vn 0.7216791 -0.3401802 0.6028738
vn 0.1135424 -0.7265134 0.6777068
vn -0.6906362 -0.719583 0.07226264
vn -0.0357056 -0.6467263 0.761886
vn -0.5874411 -0.574287 0.5701819
vn -0.1216703 -0.9877924 -0.09727519
vn -0.7076941 -0.7025194 -0.07507145
vn -0.4360156 -0.8319895 -0.343051
vn -0.2563403 -0.3962523 -0.8816313
vn -0.8170596 -0.3952343 -0.4197659
vn -0.4371687 -0.3438883 -0.8310382
vn 0.717433 0.6069287 -0.3419465
vn -0.04271143 0.6776165 -0.7341741
vn 0.2282325 0.624008 -0.7473447
vn 0.1916014 0.9580453 -0.2131622
vn 0.9347897 0.3506178 -0.05688087
vn 0.03645494 0.6174557 -0.7857605
vn -0.07584085 0.618858 -0.7818331
vn -0.05591834 0.4788664 -0.8761051
vn -0.03098674 -0.009581186 -0.9994739
vn 0.5858957 0.442082 -0.6791831
vn 0.1916014 0.9580453 -0.2131622
vn 0.9347897 0.3506178 -0.05688087
vn 0.9988031 0.04888879 -0.001484517
vn 0.6813194 0.2245558 -0.6966912
vn 0.9982323 0.02671842 0.0530877
vn 0.717433 0.6069287 -0.3419465
vn 0.6824434 0.7278038 0.067622
vn 0.6418981 0.7533656 -0.1428537
vn 0.9125612 0.38703 0.1320604
vn 0.8286193 0.54733 0.1175586
vn 0.9984439 -0.05566142 -0.003408335
vn 0.8737025 -0.2983652 -0.3842163
vn 0.7456988 -0.6536372 -0.1291968
vn 0.6945243 -0.7185938 0.03548129
vn 0.7056743 -0.7058666 -0.06145061
vn 0.7120153 -0.7010516 -0.03950851
vn 0.9975322 0.07012358 0.003493613
vn 0.9965518 0.0660694 -0.05019297
vn 0.7215669 -0.6917503 0.02868455
vn 0.8686935 0.4929658 -0.04854264
vn 0.08471227 0.9802995 0.1784285
vn 0.7142945 0.6995392 -0.02069651
vn 0.6408522 0.5329553 0.5525098
vn 0.7290496 0.06384805 0.6814765
vn 0.7834241 -0.008138378 0.6214341
vn 0.7216791 -0.3401802 0.6028738
vn 0.6418981 0.7533656 -0.1428537
vn 0.1125609 0.7247024 -0.6798063
vn 0.6813194 0.2245558 -0.6966912
vn -0.06965545 0.8634665 -0.4995736
vn 0.6824434 0.7278038 0.067622
vn 0.08471227 0.9802995 0.1784285
vn -0.09724349 0.9940103 0.04987226
vn 0.8286193 0.54733 0.1175586
vn 0.9125612 0.38703 0.1320604
vn -0.06839924 0.712657 -0.6981702
vn -0.05883149 0.7222834 -0.6890904
vn -0.5188074 0.6122046 -0.5966946
vn -0.6788719 0.7301186 0.0778451
vn -0.6754041 0.7366333 0.0346498
vn -0.106433 0.9941444 0.01868149
vn 0.2082829 0.9780626 0.003435255
vn 0.8686935 0.4929658 -0.04854264
vn 0.7142945 0.6995392 -0.02069651
vn 0.0772815 0.9967866 -0.02107444
vn 0.07607073 0.7507782 0.6561596
vn 0.6408522 0.5329553 0.5525098
vn -0.03716394 0.7234877 0.6893361
vn -0.08730612 0.7075077 0.701292
vn -0.1368643 0.710627 0.6901286
vn -0.7094071 0.704658 0.01409454
vn -0.5986501 0.7170097 0.3570927
vn -0.8170596 -0.3952343 -0.4197659
vn -0.4371687 -0.3438883 -0.8310382
vn -0.5039659 0.01085115 -0.8636554
vn -0.9767096 -0.02973658 -0.2124948
vn -0.4943517 -0.04512673 -0.8680898
vn -0.7076941 -0.7025194 -0.07507145
vn -0.9986374 0.05077294 0.01205968
vn -0.7377301 0.02856219 0.6744913
vn -0.6906362 -0.719583 0.07226264
vn -0.6256903 0.02011815 -0.7798121
vn -0.7214839 -0.04198737 0.691157
vn -0.5874411 -0.574287 0.5701819
vn -0.7369477 0.04147357 0.6746764
vn -0.890278 0.1319855 0.4358726
vn -0.9691857 0.1102966 -0.2202583
vn -0.9527433 0.3031017 -0.02023867
vn -0.5188074 0.6122046 -0.5966946
vn -0.6788719 0.7301186 0.0778451
vn -0.6754041 0.7366333 0.0346498
vn -0.7094071 0.704658 0.01409454
vn -0.5986501 0.7170097 0.3570927
vn -0.4185975 0.2853398 0.8621818
vn 0.07607073 0.7507782 0.6561596
vn 0.6408522 0.5329553 0.5525098
vn -0.03716394 0.7234877 0.6893361
vn 0.7290496 0.06384805 0.6814765
vn 0.06480505 0.01050447 0.9978427
vn -0.08730612 0.7075077 0.701292
vn 0.07015371 -0.3371704 0.9388261
vn 0.7834241 -0.008138378 0.6214341
vn 0.1135424 -0.7265134 0.6777068
vn 0.1577579 -0.7167047 0.6792988
vn 0.7216791 -0.3401802 0.6028738
vn -0.0357056 -0.6467263 0.761886
vn -0.7377301 0.02856219 0.6744913
vn -0.7214839 -0.04198737 0.691157
vn -0.5874411 -0.574287 0.5701819
vn -0.7369477 0.04147357 0.6746764
vn -0.1368643 0.710627 0.6901286
vn -0.4185975 0.2853398 0.8621818
vn -0.890278 0.1319855 0.4358726
vn -0.5986501 0.7170097 0.3570927
vt 0.06125921 0.9201356
vt 0.06470896 0.9196625
vt 0.066041 0.8815473
vt 0.06357022 0.8815579
vt 0.06173555 0.9019693
vt 0.05650735 0.8812177
vt 0.04993905 0.8810082
vt 0.05575005 0.9228219
vt 0.04343988 0.8809036
vt 0.03234394 0.9147727
vt 0.04250469 0.92224
vt 0.02921485 0.9215335
vt 0.03318047 0.8943204
vt 0.03591672 0.8797485
vt 0.02542586 0.8947602
vt 0.002471873 0.9007769
vt 0.008354984 0.9162068
vt 0.01437633 0.9213755
vt 0.002122533 0.9127552
vt 0.003467476 0.8855265
vt 0.02263598 0.873114
vt 0.002122537 0.8717353
vt 0.0039048 0.8588415
vt 0.03026392 0.8585321
vt 0.03609563 0.8581998
vt 0.04887129 0.8803648
vt 0.06289391 0.88043
vt 0.06332944 0.8811694
vt 0.06007108 0.8561955
vt 0.04905087 0.8566188
vt 0.06371503 0.858901
vt 0.4757144 0.9129272
vt 0.4752572 0.914642
vt 0.4786886 0.9179331
vt 0.4841292 0.9173437
vt 0.4814267 0.914036
vt 0.4770356 0.8976226
vt 0.4973892 0.9147561
vt 0.5180413 0.9091156
vt 0.5106949 0.9134332
vt 0.5255315 0.9141518
vt 0.4830308 0.8887788
vt 0.477111 0.8889421
vt 0.4761689 0.8758203
vt 0.4969162 0.8632884
vt 0.4832206 0.8492413
vt 0.4754475 0.8582379
vt 0.4752577 0.8500975
vt 0.4928192 0.8479184
vt 0.5405136 0.851729
vt 0.5107137 0.8455281
vt 0.5403472 0.8487105
vt 0.529578 0.9006068
vt 0.5405136 0.8925833
vt 0.5337944 0.9102801
vt 0.5316814 0.9141695
vt 0.5393991 0.9123441
vt 0.5379996 0.9138163
vt 0.5876056 0.787517
vt 0.5854707 0.796921
vt 0.588554 0.7905334
vt 0.5845792 0.7892657
vt 0.5763206 0.7834844
vt 0.580161 0.8030847
vt 0.5826412 0.8028701
vt 0.5797827 0.808728
vt 0.5763206 0.8155069
vt 0.6333818 0.1280899
vt 0.6326323 0.1276165
vt 0.6327312 0.1374809
vt 0.6338111 0.1412023
vt 0.6549 0.1272719
vt 0.6257331 0.1507193
vt 0.6322128 0.1255189
vt 0.657718 0.1454291
vt 0.6577867 0.1307868
vt 0.6546179 0.1554778
vt 0.6576815 0.1478261
vt 0.5978484 0.151822
vt 0.5941362 0.1277564
vt 0.592804 0.1295469
vt 0.5923272 0.1448766
vt 0.5927078 0.1535462
vt 0.5921928 0.166744
vt 0.6391299 0.1632946
vt 0.6449033 0.1812913
vt 0.5929317 0.1843264
vt 0.6555281 0.1670305
vt 0.6573129 0.1513757
vt 0.6577867 0.1820795
vt 0.6571689 0.1913949
vt 0.6454722 0.1931513
vt 0.6091642 0.1918798
vt 0.596217 0.1922797
vt 0.3172727 0.91796
vt 0.3132516 0.9219036
vt 0.317035 0.921668
vt 0.3022588 0.9224722
vt 0.3188739 0.9034109
vt 0.3150024 0.8973591
vt 0.2883754 0.9105838
vt 0.3189346 0.9010234
vt 0.3174421 0.8935516
vt 0.2893845 0.9236588
vt 0.2835787 0.9235622
vt 0.2572772 0.9229671
vt 0.2561861 0.9065533
vt 0.2573517 0.8943424
vt 0.3044881 0.8917884
vt 0.3137929 0.8834924
vt 0.3164912 0.8819193
vt 0.318325 0.8668047
vt 0.3152357 0.8721283
vt 0.3143888 0.857282
vt 0.3187955 0.8575696
vt 0.3001623 0.8560148
vt 0.2817606 0.8560148
vt 0.2642247 0.8573431
vt 0.2571067 0.8658196
vt 0.2579719 0.8592586
vt 0.8848102 0.8980922
vt 0.8850744 0.8995904
vt 0.8970636 0.8999546
vt 0.912413 0.8962752
vt 0.9123518 0.9000836
vt 0.8769035 0.8781729
vt 0.9300087 0.8689563
vt 0.8998206 0.8341625
vt 0.8769059 0.8373168
vt 0.9260494 0.9001063
vt 0.881874 0.8336845
vt 0.8774559 0.8343105
vt 0.9161752 0.8348038
vt 0.934165 0.8359668
vt 0.9265114 0.8981593
vt 0.9370326 0.888687
vt 0.9390274 0.9001955
vt 0.9379631 0.8837445
vt 0.9376674 0.8715199
vt 0.9377528 0.8429878
vt 0.9373721 0.8364129
vt 0.935917 0.8349278
vt 0.9584786 0.6176748
vt 0.9574965 0.613304
vt 0.9582233 0.6319682
vt 0.9457123 0.6131127
vt 0.9387849 0.6250252
vt 0.9575907 0.6504122
vt 0.895724 0.644502
vt 0.9095569 0.6128401
vt 0.8941876 0.6305034
vt 0.8938832 0.6208836
vt 0.8966102 0.6128401
vt 0.8953199 0.648423
vt 0.9189888 0.6773667
vt 0.9010448 0.6780121
vt 0.8966306 0.6779608
vt 0.9353042 0.6760265
vt 0.9571773 0.6679308
vt 0.9549489 0.673731
vt 0.953306 0.6754026
vt 0.956458 0.6741537
usemtl MV_RockCubic_Rocks
f 1/1/1 3/3/3 2/2/2
f 1/1/1 4/4/4 3/3/3
f 1/1/1 5/5/5 4/4/4
f 6/6/6 4/4/4 5/5/5
f 7/7/7 6/6/6 5/5/5
f 5/5/5 1/1/1 8/8/8
f 7/7/7 5/5/5 9/9/9
f 10/10/10 5/5/5 8/8/8
f 8/8/8 11/11/11 10/10/10
f 10/10/10 11/11/11 12/12/12
f 9/9/9 5/5/5 13/13/13
f 13/13/13 5/5/5 10/10/10
f 14/14/14 9/9/9 13/13/13
f 13/13/13 10/10/10 15/15/15
f 15/15/15 10/10/10 12/12/12
f 15/15/15 14/14/14 13/13/13
f 16/16/16 15/15/15 12/12/12
f 16/16/16 12/12/12 17/17/17
f 12/12/12 18/18/18 17/17/17
f 16/16/16 17/17/17 19/19/19
f 20/20/20 15/15/15 16/16/16
f 20/20/20 21/21/21 15/15/15
f 21/21/21 14/14/14 15/15/15
f 22/22/22 21/21/21 20/20/20
f 23/23/23 21/21/21 22/22/22
f 23/23/23 24/24/24 21/21/21
f 24/24/24 25/25/25 21/21/21
f 21/21/21 25/25/25 14/14/14
f 25/25/25 26/26/26 14/14/14
f 27/27/27 26/26/26 25/25/25
f 27/27/27 28/28/28 26/26/26
f 25/25/25 29/29/29 27/27/27
f 30/30/30 29/29/29 25/25/25
f 31/31/31 27/27/27 29/29/29
f 32/32/32 34/34/34 33/33/33
f 32/32/32 35/35/35 34/34/34
f 36/36/36 35/35/35 32/32/32
f 37/37/37 36/36/36 32/32/32
f 36/36/36 38/38/38 35/35/35
f 36/36/36 39/39/39 38/38/38
f 39/39/39 40/40/40 38/38/38
f 41/41/41 40/40/40 39/39/39
f 37/37/37 42/42/42 36/36/36
f 42/42/42 39/39/39 36/36/36
f 43/43/43 42/42/42 37/37/37
f 42/42/42 43/43/43 44/44/44
f 45/45/45 42/42/42 44/44/44
f 45/45/45 39/39/39 42/42/42
f 46/46/46 45/45/45 44/44/44
f 46/46/46 44/44/44 47/47/47
f 48/48/48 46/46/46 47/47/47
f 46/46/46 49/49/49 45/45/45
f 39/39/39 45/45/45 49/49/49
f 50/50/50 39/39/39 49/49/49
f 51/51/51 50/50/50 49/49/49
f 52/52/52 50/50/50 51/51/51
f 39/39/39 50/50/50 53/53/53
f 53/53/53 41/41/41 39/39/39
f 54/54/54 53/53/53 50/50/50
f 55/55/55 41/41/41 53/53/53
f 53/53/53 54/54/54 55/55/55
f 55/55/55 56/56/56 41/41/41
f 57/57/57 55/55/55 54/54/54
f 55/55/55 57/57/57 56/56/56
f 56/56/56 57/57/57 58/58/58
f 59/59/59 61/61/61 60/60/60
f 62/62/62 59/59/59 60/60/60
f 63/63/63 59/59/59 62/62/62
f 64/64/64 62/62/62 60/60/60
f 64/64/64 60/60/60 65/65/65
f 64/64/64 65/65/65 66/66/66
f 67/67/67 64/64/64 66/66/66
f 68/68/68 70/70/70 69/69/69
f 71/71/71 70/70/70 68/68/68
f 68/68/68 72/72/72 71/71/71
f 71/71/71 73/73/73 70/70/70
f 70/70/70 73/73/73 74/74/74
f 71/71/71 72/72/72 75/75/75
f 76/76/76 75/75/75 72/72/72
f 77/77/77 71/71/71 75/75/75
f 77/77/77 73/73/73 71/71/71
f 77/77/77 75/75/75 78/78/78
f 73/73/73 79/79/79 74/74/74
f 79/79/79 80/80/80 74/74/74
f 79/79/79 81/81/81 80/80/80
f 81/81/81 79/79/79 82/82/82
f 83/83/83 82/82/82 79/79/79
f 79/79/79 84/84/84 83/83/83
f 84/84/84 79/79/79 73/73/73
f 77/77/77 85/85/85 73/73/73
f 73/73/73 85/85/85 84/84/84
f 86/86/86 84/84/84 85/85/85
f 87/87/87 84/84/84 86/86/86
f 88/88/88 85/85/85 77/77/77
f 86/86/86 85/85/85 88/88/88
f 89/89/89 88/88/88 77/77/77
f 86/86/86 88/88/88 90/90/90
f 90/90/90 91/91/91 86/86/86
f 92/92/92 86/86/86 91/91/91
f 93/93/93 86/86/86 92/92/92
f 86/86/86 93/93/93 87/87/87
f 93/93/93 94/94/94 87/87/87
f 95/95/95 97/97/97 96/96/96
f 95/95/95 96/96/96 98/98/98
f 98/98/98 99/99/99 95/95/95
f 100/100/100 99/99/99 98/98/98
f 101/101/101 100/100/100 98/98/98
f 102/102/102 99/99/99 100/100/100
f 103/103/103 102/102/102 100/100/100
f 101/101/101 98/98/98 104/104/104
f 105/105/105 101/101/101 104/104/104
f 101/101/101 105/105/105 106/106/106
f 101/101/101 106/106/106 107/107/107
f 101/101/101 107/107/107 108/108/108
f 109/109/109 100/100/100 101/101/101
f 109/109/109 101/101/101 108/108/108
f 110/110/110 100/100/100 109/109/109
f 111/111/111 100/100/100 110/110/110
f 112/112/112 111/111/111 110/110/110
f 113/113/113 112/112/112 110/110/110
f 110/110/110 109/109/109 113/113/113
f 112/112/112 113/113/113 114/114/114
f 114/114/114 115/115/115 112/112/112
f 114/114/114 113/113/113 116/116/116
f 113/113/113 109/109/109 116/116/116
f 109/109/109 117/117/117 116/116/116
f 117/117/117 109/109/109 108/108/108
f 118/118/118 117/117/117 108/108/108
f 118/118/118 108/108/108 119/119/119
f 118/118/118 119/119/119 120/120/120
f 121/121/121 123/123/123 122/122/122
f 124/124/124 123/123/123 121/121/121
f 124/124/124 125/125/125 123/123/123
f 126/126/126 124/124/124 121/121/121
f 127/127/127 124/124/124 126/126/126
f 128/128/128 127/127/127 126/126/126
f 129/129/129 128/128/128 126/126/126
f 124/124/124 130/130/130 125/125/125
f 131/131/131 128/128/128 129/129/129
f 132/132/132 131/131/131 129/129/129
f 133/133/133 127/127/127 128/128/128
f 133/133/133 134/134/134 127/127/127
f 124/124/124 135/135/135 130/130/130
f 127/127/127 135/135/135 124/124/124
f 136/136/136 130/130/130 135/135/135
f 136/136/136 135/135/135 127/127/127
f 136/136/136 137/137/137 130/130/130
f 138/138/138 137/137/137 136/136/136
f 139/139/139 138/138/138 136/136/136
f 139/139/139 136/136/136 127/127/127
f 127/127/127 140/140/140 139/139/139
f 134/134/134 140/140/140 127/127/127
f 141/141/141 140/140/140 134/134/134
f 142/142/142 141/141/141 134/134/134
f 143/143/143 145/145/145 144/144/144
f 144/144/144 145/145/145 146/146/146
f 146/146/146 145/145/145 147/147/147
f 145/145/145 148/148/148 147/147/147
f 149/149/149 146/146/146 147/147/147
f 148/148/148 149/149/149 147/147/147
f 149/149/149 150/150/150 146/146/146
f 149/149/149 151/151/151 150/150/150
f 150/150/150 151/151/151 152/152/152
f 150/150/150 152/152/152 153/153/153
f 149/149/149 154/154/154 151/151/151
f 148/148/148 154/154/154 149/149/149
f 155/155/155 154/154/154 148/148/148
f 154/154/154 155/155/155 156/156/156
f 156/156/156 157/157/157 154/154/154
f 158/158/158 155/155/155 148/148/148
f 159/159/159 158/158/158 148/148/148
f 158/158/158 159/159/159 160/160/160
f 160/160/160 161/161/161 158/158/158
f 160/160/160 159/159/159 162/162/162
