mtllib P_RockHexic_Piece06.mtl
v 0.9011097 -0.9342914 -1.560758 0 0 0
v -0.86796 -0.4699845 -1.497855 0 0 0
v 0.8647919 -0.9999998 -1.497854 0 0 0
v -0.9011002 -0.3830704 -1.560759 0 0 0
v 0.9011097 0.9342917 -1.560758 0 0.8470588 0
v -0.9011002 1.485593 -1.560759 0 0.6431373 0
v 0.8647919 -0.9999998 -1.497854 0 0 0
v -0.86796 -0.4699845 -1.497855 0 0 0
v -1.731157 -0.4699848 -0.00275167 0 0.8235294 0
v -0.8647823 -0.9999998 1.497854 0 0.9921569 0
v -0.9011002 -0.9342914 1.560759 0 0.9921569 0
v -1.802204 -0.3830704 1.296169E-07 0 0.8196079 0
v 0.9011078 -1.485593 1.56076 0 0.9333333 0
v 0.8679676 -1.530015 1.497855 0 0.9294118 0
v 1.731167 -1.530015 0.002751868 0 0 0
v 1.802214 -1.485593 1.296169E-07 0 0 0
v 0.9011097 -0.9342914 -1.560758 0 0 0
v -1.802204 -0.3830704 1.296169E-07 0 0.8196079 0
v -1.731157 -0.4699848 -0.00275167 0 0.8235294 0
v -0.86796 -0.4699845 -1.497855 0 0 0
v -0.9011002 -0.3830704 -1.560759 0 0 0
v -1.802204 1.485593 1.296169E-07 0 0.5254902 0
v -0.9011002 1.485593 -1.560759 0 0.6431373 0
v -0.9011002 0.9342917 1.560759 0 0.8627451 0
v -0.9011002 -0.9342914 1.560759 0 0.9921569 0
v -1.802204 1.485593 1.296169E-07 0 0.5254902 0
v -0.8647823 1 1.497854 0 0.945098 0
v -0.9011002 0.9342917 1.560759 0 0.8627451 0
v -1.731157 1.530015 -0.00275163 0 0.4980392 0
v -0.86796 1.530015 -1.497855 0 0.654902 0
v -0.9011002 1.485593 -1.560759 0 0.6431373 0
v 0.8647919 1 -1.497854 0 0.7568628 0
v 0.9011097 0.9342917 -1.560758 0 0.8470588 0
v 1.731167 0.4699848 0.002751838 0 0.9882353 0
v 0.8679676 0.4699851 1.497855 0 0.9411765 0
v 1.802214 0.3830706 1.296169E-07 0 0.9647059 0
v 0.9011078 0.3830706 1.56076 0 0.8745098 0
v -0.9011002 0.9342917 1.560759 0 0.8627451 0
v -0.8647823 1 1.497854 0 0.945098 0
v 0.8679676 0.4699851 1.497855 0 0.9411765 0
v 0.9011078 0.3830706 1.56076 0 0.8745098 0
v -0.9011002 -0.9342914 1.560759 0 0.9921569 0
v 0.9011078 -1.485593 1.56076 0 0.9333333 0
v 1.802214 0.3830706 1.296169E-07 0 0.9647059 0
v 1.802214 -1.485593 1.296169E-07 0 0 0
v 0.9011097 -0.9342914 -1.560758 0 0 0
v 1.802214 -1.485593 1.296169E-07 0 0 0
v 1.802214 0.3830706 1.296169E-07 0 0.9647059 0
v 0.9011097 0.9342917 -1.560758 0 0.8470588 0
v 1.731167 0.4699848 0.002751838 0 0.9882353 0
v 0.8647919 1 -1.497854 0 0.7568628 0
vn 0.397837 -0.3578788 -0.8447772
vn -0.4176881 -0.7696022 -0.4829587
vn 0.0002524193 -0.8599998 -0.5102944
vn -0.5038932 -0.2784247 -0.8176621
vn 0.5326808 0.3578785 -0.7669251
vn -0.3974796 0.4593283 -0.7943724
vn 0.0002524193 -0.8599998 -0.5102944
vn -0.4176881 -0.7696022 -0.4829587
vn -0.6270987 -0.7696021 -0.1202493
vn -0.4418025 -0.8599991 0.2553668
vn -0.5326809 -0.357878 0.7669253
vn -0.9600629 -0.2784244 -0.02755314
vn 0.3974791 -0.4593284 0.7943726
vn 0.00946534 -0.9612867 0.2753878
vn 0.2432247 -0.9612867 -0.1294971
vn 0.8866864 -0.4593285 -0.05295835
vn 0.397837 -0.3578788 -0.8447772
vn -0.9600629 -0.2784244 -0.02755314
vn -0.6270987 -0.7696021 -0.1202493
vn -0.4176881 -0.7696022 -0.4829587
vn -0.5038932 -0.2784247 -0.8176621
vn -0.8866872 0.4593268 0.0529586
vn -0.3974796 0.4593283 -0.7943724
vn -0.3978368 0.3578793 0.8447771
vn -0.5326809 -0.357878 0.7669253
vn -0.8866872 0.4593268 0.0529586
vn -0.0002524248 0.8599998 0.5102943
vn -0.3978368 0.3578793 0.8447771
vn -0.2432277 0.961286 0.1294973
vn -0.009465518 0.9612866 -0.2753877
vn -0.3974796 0.4593283 -0.7943724
vn 0.4418024 0.8599994 -0.2553658
vn 0.5326808 0.3578785 -0.7669251
vn 0.6270979 0.7696027 0.1202494
vn 0.4176883 0.7696015 0.4829597
vn 0.9600626 0.2784252 0.02755374
vn 0.5038929 0.278424 0.8176625
vn -0.3978368 0.3578793 0.8447771
vn -0.0002524248 0.8599998 0.5102943
vn 0.4176883 0.7696015 0.4829597
vn 0.5038929 0.278424 0.8176625
vn -0.5326809 -0.357878 0.7669253
vn 0.3974791 -0.4593284 0.7943726
vn 0.9600626 0.2784252 0.02755374
vn 0.8866864 -0.4593285 -0.05295835
vn 0.397837 -0.3578788 -0.8447772
vn 0.8866864 -0.4593285 -0.05295835
vn 0.9600626 0.2784252 0.02755374
vn 0.5326808 0.3578785 -0.7669251
vn 0.6270979 0.7696027 0.1202494
vn 0.4418024 0.8599994 -0.2553658
vt 0.8402501 0.5485871
vt 0.8141629 0.541746
vt 0.8396928 0.5495606
vt 0.8136969 0.5404598
vt 0.8402501 0.5210484
vt 0.8136969 0.51292
vt 0.9414563 0.9349411
vt 0.9192446 0.9215871
vt 0.8971143 0.9341411
vt 0.8971143 0.9600952
vt 0.8961573 0.9605661
vt 0.8961573 0.9335716
vt 0.9192594 0.9744554
vt 0.919326 0.9734492
vt 0.9414563 0.9608952
vt 0.9423615 0.9613502
vt 0.9423615 0.9343556
vt 0.8111532 0.1083498
vt 0.8098097 0.1088956
vt 0.8097826 0.1343365
vt 0.8111248 0.1349079
vt 0.8386184 0.1083498
vt 0.83859 0.1349079
vt 0.8288325 0.09473807
vt 0.8013685 0.09473807
vt 0.9193562 0.8632682
vt 0.9415625 0.8778689
vt 0.9425548 0.877418
vt 0.919258 0.8642645
vt 0.8970352 0.8766477
vt 0.8961574 0.8761952
vt 0.8970351 0.902681
vt 0.8961574 0.903272
vt 0.9193397 0.9162853
vt 0.9415625 0.9039021
vt 0.919356 0.9174218
vt 0.9425548 0.9044947
vt 0.07186899 0.9401967
vt 0.07078166 0.9405346
vt 0.07309302 0.9671363
vt 0.07427243 0.9678645
vt 0.09878901 0.9459559
vt 0.1011936 0.973624
vt 0.07078166 0.9812736
vt 0.09770283 0.9870331
vt 0.4547594 0.9778888
vt 0.4813182 0.9859954
vt 0.4813182 0.9584749
vt 0.4547594 0.9503695
vt 0.4808182 0.9571599
vt 0.455283 0.9493663
usemtl MV_RockHexic_Pieces
f 1/1/1 3/3/3 2/2/2
f 1/1/1 2/2/2 4/4/4
f 4/4/4 5/5/5 1/1/1
f 4/4/4 6/6/6 5/5/5
f 7/7/7 9/9/9 8/8/8
f 7/7/7 10/10/10 9/9/9
f 11/11/11 9/9/9 10/10/10
f 11/11/11 12/12/12 9/9/9
f 13/13/13 11/11/11 10/10/10
f 13/13/13 10/10/10 14/14/14
f 13/13/13 14/14/14 15/15/15
f 10/10/10 15/15/15 14/14/14
f 10/10/10 7/7/7 15/15/15
f 13/13/13 15/15/15 16/16/16
f 16/16/16 15/15/15 7/7/7
f 16/16/16 7/7/7 17/17/17
f 18/18/18 20/20/20 19/19/19
f 18/18/18 21/21/21 20/20/20
f 22/22/22 21/21/21 18/18/18
f 22/22/22 23/23/23 21/21/21
f 24/24/24 22/22/22 18/18/18
f 24/24/24 18/18/18 25/25/25
f 26/26/26 28/28/28 27/27/27
f 26/26/26 27/27/27 29/29/29
f 26/26/26 29/29/29 30/30/30
f 26/26/26 30/30/30 31/31/31
f 32/32/32 30/30/30 29/29/29
f 31/31/31 30/30/30 32/32/32
f 32/32/32 29/29/29 27/27/27
f 31/31/31 32/32/32 33/33/33
f 27/27/27 34/34/34 32/32/32
f 27/27/27 35/35/35 34/34/34
f 36/36/36 34/34/34 35/35/35
f 36/36/36 35/35/35 37/37/37
f 38/38/38 40/40/40 39/39/39
f 38/38/38 41/41/41 40/40/40
f 41/41/41 38/38/38 42/42/42
f 41/41/41 42/42/42 43/43/43
f 44/44/44 41/41/41 43/43/43
f 44/44/44 43/43/43 45/45/45
f 46/46/46 48/48/48 47/47/47
f 46/46/46 49/49/49 48/48/48
f 49/49/49 50/50/50 48/48/48
f 49/49/49 51/51/51 50/50/50
