mtllib P_RockDesert_HoodooCliff07.mtl
v -14.25842 47.72541 -0.5437317
v -13.22864 45.60879 -1.001312
v -13.73071 47.58394 -0.4781799
v -13.22864 45.60879 -1.001312
v -12.8288 45.44483 0.06643677
v -13.73071 47.58394 -0.4781799
v -4.667358 28.61243 -5.564453
v -6.914917 30.3264 -5.050293
v -7.717102 28.78294 -4.996185
v -8.004272 23.28299 -4.882355
v -9.677612 23.28299 -2.420837
v -9.00592 29.18392 -2.26593
v -4.955566 23.283 -6.17981
v -0.7346802 28.58879 -5.563843
v -11.33179 23.28299 -3.533051
v -11.93231 29.58029 -3.705078
v -0.8256226 23.18835 -6.357178
v 2.205933 28.55015 -5.566986
v -17.16003 23.42009 -4.319
v -17.07263 29.94064 -3.298065
v -19.59442 23.52475 -3.476746
v -18.58203 28.44312 -3.280212
v -20.53656 23.56953 -1.176727
v -19.50494 28.7312 -1.198639
v -19.54218 28.72558 -0.05914307
v -20.53656 23.56953 1.369904
v -19.505 28.7312 1.090149
v -19.39038 23.61215 3.337067
v -18.4577 28.3827 2.880554
v -19.84247 14.60042 3.743225
v -20.86401 14.61647 1.401825
v -21.11774 8.434427 3.885651
v -20.86401 14.61646 -1.206696
v -22.25635 8.459352 1.267792
v -22.97656 -2.355787 4.641541
v -19.94598 14.56217 -3.842102
v -24.37335 -2.352224 1.447449
v -21.32153 -10.79487 3.752014
v -22.60834 -10.79461 1.151917
v -22.25635 8.45933 -1.382019
v -24.37341 -2.352171 -1.760529
v -22.60828 -10.79461 -1.45813
v -17.6427 14.43491 -5.579651
v -21.13483 8.431917 -4.212372
v -22.97644 -2.355932 -5.15451
v -21.32159 -10.79489 -4.220917
v -11.3584 14.33021 -4.273285
v -18.40704 8.367014 -6.480103
v -19.60559 -2.36167 -7.820984
v -18.21063 -10.79524 -6.394775
v -9.646667 14.33001 -2.505066
v -11.37616 8.350817 -5.006104
v -11.92261 -2.359961 -6.204956
v -11.67249 -10.79484 -4.890259
v -7.9151 14.32981 -4.108765
v -9.626038 8.350481 -2.678986
v -10.03406 -2.359625 -3.194183
v -9.82666 -10.56268 -2.723175
v -4.831116 14.33022 -6.328094
v -7.85553 8.350145 -4.24707
v -8.123535 -2.359297 -5.344727
v -7.959412 -10.32783 -4.671875
v -4.748047 8.35084 -6.433807
v -4.825134 -2.362829 -7.738983
v -4.409912 -10.79474 -6.336884
v -0.5457153 14.23312 -6.519867
v -0.2314453 -2.347059 -7.936951
v -0.2354126 -10.79447 -6.519287
v -0.3587646 8.252092 -6.62851
v 2.241577 23.15142 -6.22998
v 3.837402 -2.356512 -7.754913
v 3.473022 -10.79517 -6.354706
v 3.327332 8.233896 -6.463013
v 2.892578 14.20742 -6.368774
v 7.880249 -2.357054 -5.658539
v 7.402039 -10.00881 -4.574646
v 7.039734 8.449656 -4.712189
v 6.429321 14.42386 -4.64267
v 11.85046 -2.381475 -7.727142
v 10.88861 -10.79462 -6.323608
v 10.87708 8.596872 -6.419159
v 15.883 -2.380468 -7.728424
v 14.59894 -10.79552 -6.323303
v 6.20575 16.5978 -4.619507
v 10.57227 14.94404 -6.072815
v 14.77661 8.471064 -6.416718
v 18.58441 -2.359892 -6.395355
v 17.086 -10.79503 -5.232574
v 10.77557 17.84235 -5.381439
v 5.511414 23.34946 -4.547577
v 14.91425 14.75342 -6.192139
v 17.38196 8.360453 -5.312134
v 5.323059 27.43349 -3.927582
v 8.815369 28.71265 -5.581573
v 14.67651 19.60236 -5.422852
v 9.785645 23.50863 -6.19986
v 17.68353 14.84673 -5.230225
v 16.3396 20.92127 -4.635071
v 14.27924 23.36294 -6.178284
v 12.68451 28.66499 -5.571075
v 23.23486 14.57252 -1.977081
v 18.4118 23.28299 -1.813477
v 16.83789 23.30124 -5.035736
v 15.07965 28.61598 -4.610565
v 16.41681 28.61243 -1.649506
v 16.41681 28.61243 1.311188
v 13.10327 31.67414 -5.736755
v 15.7301 31.60968 -4.260956
v 8.908203 31.88819 -5.044586
v 7.627502 28.01559 -2.662598
v 8.039734 31.0341 -2.916382
v 9.124817 35.18493 -5.325104
v 8.408813 34.01174 -3.414276
v 13.00891 34.69675 -6.385956
v 16.09033 34.61136 -4.269623
v 17.08362 31.58327 -1.300842
v 5.756287 36.91865 -2.75235
v 5.921204 38.83038 -4.017365
v 6.544861 34.26939 -0.1831665
v 17.57513 34.55986 -1.059265
v 16.83917 31.58145 1.77121
v 15.34583 37.48503 -4.207611
v 16.69415 37.42024 -1.316742
v 4.310791 35.78411 -3.404205
v 3.698486 36.79165 -5.201385
v 5.542908 36.39665 -0.3106995
v 7.671021 34.52325 3.002319
v 5.430969 37.6014 3.190033
v 4.905518 36.0988 3.213928
v 5.048401 35.61306 -0.4091187
v 3.391052 34.12761 -4.033783
v 4.779236 34.3731 -0.459137
v 4.222656 34.45592 3.281708
v 17.06549 34.55605 2.384888
v 4.987061 31.3155 -0.3385925
v 3.221436 31.37085 -3.57608
v 3.391052 34.12761 -4.033783
v 4.446472 31.37815 3.024475
v 2.848328 34.76526 6.238495
v 2.983521 31.68157 5.702362
v 3.954712 28.38096 2.886566
v 15.06128 31.60298 4.476288
v 14.68835 34.60094 5.063904
v 16.35797 37.47892 1.737274
v 12.25531 31.64211 5.411804
v 11.07422 34.6593 6.060059
v 15.08728 28.61243 4.271881
v 15.81317 40.28061 -1.574219
v 15.65039 40.40179 1.089661
v 14.4823 37.32894 4.314392
v 14.27631 40.05693 3.56488
v 11.18274 37.55551 5.304962
v 12.87018 28.61243 5.226166
v 12.25531 31.64211 5.411804
v 7.837219 28.61243 5.226166
v 7.505615 31.64789 5.384491
v 11.29132 40.45173 4.549866
v 8.123779 37.63383 5.281616
v 8.316101 40.57309 4.560059
v 13.91028 44.42605 3.807098
v 12.34576 44.32758 4.693604
v 13.5379 46.96893 3.524414
v 8.747192 44.39526 4.714478
v 11.71179 47.70679 4.09848
v 8.747192 44.39526 4.714478
v 8.979309 47.36826 4.107178
v 6.0672 44.0504 3.431793
v 7.425659 46.76052 2.838409
v 6.938293 47.30565 0.8699951
v 5.577454 40.63659 3.197388
v 8.316101 40.57309 4.560059
v 5.866455 43.92179 1.09494
v 6.944397 47.30711 -0.9884338
v 5.577454 40.63659 3.197388
v 5.379822 38.59873 4.163879
v 8.123779 37.63383 5.281616
v 6.214905 44.00531 -1.720978
v 7.621155 46.90842 -2.671112
v 5.887878 42.08423 0.7131653
v 6.12677 42.17563 -2.1427
v 6.933105 44.05901 -3.650818
v 6.133057 40.89 -3.527191
v 9.31781 40.57549 -5.361511
v 9.574463 44.3661 -5.121735
v 12.37988 40.47633 -5.379974
v 12.70404 44.34398 -5.119293
v 14.60126 40.3587 -4.14563
v 14.81903 44.31306 -4.057404
v 15.81317 40.28061 -1.574219
v 15.26953 44.15398 -1.681366
v 3.704529 44.03326 3.237427
v 5.211182 44.26097 0.9017944
v 4.390381 44.15895 -3.362854
v 3.005859 44.40094 -4.666656
v 3.193726 40.7738 -5.324646
v 0.2280884 44.39837 -4.673004
v 0.1317139 40.87297 -5.306183
v 5.220093 44.3014 -1.426636
v 3.276184 47.29282 -1.047272
v 2.590576 46.55214 -2.313446
v 3.276184 47.29282 -1.047272
v 3.276184 47.29026 0.5090637
v 2.86554 46.17791 2.34494
v 2.181396 44.36864 4.226105
v 2.052307 47.74874 2.639832
v -0.1779175 44.39227 4.226288
v 0.3534546 47.72374 2.71875
v 3.425842 40.54585 4.521454
v 3.123718 37.64038 5.381409
v -0.001159668 37.68759 5.010803
v 0.4017334 40.68957 4.189484
v 2.779358 36.33118 5.809082
v 4.063232 36.5755 5.209656
v -0.4040527 34.68561 5.832153
v -0.5123901 31.62677 5.682434
v -3.518494 31.69567 5.619324
v -2.62915 34.77238 6.004181
v -4.855347 32.45678 4.263611
v -5.442078 30.04926 4.631073
v -4.16687 28.61243 5.226166
v -4.085754 34.8643 3.896149
v -6.342102 28.51836 4.765167
v -2.487549 37.83946 5.265717
v -3.889282 37.94504 3.594879
v -5.44165 23.28299 5.836853
v -8.439697 23.17832 4.461731
v -8.741333 28.93873 1.798889
v -0.772644 23.28299 5.836853
v -0.8250732 28.61243 5.226166
v -10.04065 23.19572 2.060211
v -12.33685 29.35428 3.067963
v 3.036926 23.28299 5.836853
v 2.639099 28.60498 5.216888
v -0.7652588 16.35726 5.996552
v -5.506592 14.86609 5.996002
v -8.357239 14.40973 4.277222
v 3.103394 15.69827 5.996002
v -11.62323 23.21293 3.005463
v -10.01526 14.33393 2.325836
v -16.77911 29.4264 3.204926
v -14.09058 31.97467 2.708984
v -15.97119 31.94252 2.626862
v -14.31622 33.48871 2.113403
v -15.75085 33.4642 2.050812
v -14.10699 34.91103 3.290375
v -16.34534 35.17745 3.181641
v -13.75403 36.7438 3.943756
v -16.43762 36.69799 3.827118
v -17.10242 23.4288 3.872833
v -18.4577 28.3827 2.880554
v -19.39038 23.61215 3.337067
v -11.6543 14.259 3.744843
v -17.56915 14.4458 5.057983
v -19.84247 14.60042 3.743225
v -18.37451 8.371534 5.784149
v -21.11774 8.434427 3.885651
v -11.67499 8.278841 4.403076
v -9.998352 8.260904 2.70462
v -19.60651 -2.360754 6.999451
v -22.97656 -2.355787 4.641541
v -12.2406 -2.436255 5.505249
v -18.21014 -10.79515 5.674194
v -21.32153 -10.79487 3.752014
v -11.96619 -10.86544 4.456268
v -10.19263 -10.4181 2.636261
v -10.43018 -2.45487 3.214294
v -8.398438 -9.965551 5.286102
v -8.598694 -2.4737 6.184662
v -5.477539 -10.79484 8.345795
v -8.302185 8.242754 5.056061
v -5.83197 -2.362883 9.828979
v -0.7692261 -10.79481 9.236725
v -5.549927 8.351007 8.450195
v -0.7354126 -2.362959 10.75482
v 3.072449 -10.79484 8.437225
v -0.6611328 9.041895 9.244263
v 3.423035 -2.362875 9.896729
v 7.135986 -10.00959 4.479736
v 3.156921 8.414667 8.529297
v 7.799072 -2.392696 6.608185
v 10.75641 -10.79502 5.994293
v 7.257507 8.325315 5.72113
v 11.91107 -2.403648 7.818695
v 14.59906 -10.79518 5.992065
v 7.144409 14.35998 5.557678
v 16.06616 -2.403145 7.817535
v 19.95374 -10.63793 4.771912
v 11.13824 8.310273 6.524994
v 6.758606 23.28999 4.196838
v 10.84113 14.3307 5.99231
v 15.04755 8.310807 6.519867
v 22.18268 -2.374956 5.996948
v 6.104797 27.42718 3.922821
v 10.65607 23.28299 5.836823
v 14.71051 14.33103 5.989258
v 6.061646 27.86653 2.711517
v 21.95776 8.405 5.001556
v 14.46564 23.28299 5.836823
v 21.30804 14.3307 4.898743
v 23.8255 -2.482599 1.85907
v 23.49048 8.294261 1.579651
v 21.46112 -10.7448 1.40332
v 14.53485 -10.74554 1.852631
v 14.59906 -10.79518 5.992065
v 10.6972 -10.73862 1.854126
v 10.75641 -10.79502 5.994293
v 7.117065 -9.978003 1.375336
v 7.135986 -10.00959 4.479736
v 3.053772 -10.74077 1.975128
v 3.072449 -10.79484 8.437225
v -0.7710571 -10.74077 1.975128
v -0.7692261 -10.79481 9.236725
v -5.542175 -10.60133 1.981049
v -5.477539 -10.79484 8.345795
v -7.998108 -10.6682 1.145508
v -8.398438 -9.965551 5.286102
v -9.560425 -10.86353 0.6385498
v -10.19263 -10.4181 2.636261
v -11.10474 -11.0566 1.083618
v -11.96619 -10.86544 4.456268
v -18.2793 -11.05543 1.486511
v -18.21014 -10.79515 5.674194
v -22.60834 -10.79461 1.151917
v -21.32153 -10.79487 3.752014
v -22.60828 -10.79461 -1.45813
v -18.27423 -11.05268 -1.833954
v -21.32159 -10.79489 -4.220917
v -18.21063 -10.79524 -6.394775
v -11.09827 -11.05019 -1.408569
v -11.67249 -10.79484 -4.890259
v -9.555359 -10.85756 -0.9075928
v -9.82666 -10.56268 -2.723175
v -7.994507 -10.66269 -1.366486
v -7.959412 -10.32783 -4.671875
v -5.547974 -10.5913 -2.178436
v -4.409912 -10.79474 -6.336884
v -0.7710571 -10.74012 -2.193817
v -0.2354126 -10.79447 -6.519287
v 3.053833 -10.74073 -2.184937
v 3.473022 -10.79517 -6.354706
v 7.116333 -9.977133 -1.577332
v 7.402039 -10.00881 -4.574646
v 10.69604 -10.73884 -2.187836
v 10.88861 -10.79462 -6.323608
v 14.53485 -10.74555 -2.184845
v 14.59894 -10.79552 -6.323303
v 21.48517 -10.7208 -1.973541
v 23.85516 -2.453081 -2.290771
v 23.51489 8.318607 -1.849579
v 23.22626 14.53083 1.378876
v 18.4118 23.28299 1.480774
v 16.9325 23.28299 4.775055
v 16.83917 31.58145 1.77121
v 17.08362 31.58327 -1.300842
v 16.41681 28.61243 -1.649506
v 16.41681 28.61243 -1.649506
v 15.7301 31.60968 -4.260956
v 15.07965 28.61598 -4.610565
v 6.800293 28.22968 2.477264
v 6.872925 31.38396 2.628815
v 7.671021 34.52325 3.002319
v 7.931519 34.69457 6.003174
v 11.07422 34.6593 6.060059
v 12.25531 31.64211 5.411804
v 5.328003 27.7263 -0.1064758
v 5.733765 28.0452 -0.05300903
v 4.942383 28.28448 -0.1391296
v 3.954712 28.38096 2.886566
v 4.446472 31.37815 3.024475
v 4.987061 31.3155 -0.3385925
v 3.384705 28.61408 -3.118347
v 3.221436 31.37085 -3.57608
v 6.872925 31.38396 2.628815
v 6.377869 31.2062 -0.1253357
v 7.671021 34.52325 3.002319
v 6.544861 34.26939 -0.1831665
v 8.039734 31.0341 -2.916382
v 8.408813 34.01174 -3.414276
v 7.627502 28.01559 -2.662598
v 5.313232 27.67991 -2.904541
v 5.328003 27.7263 -0.1064758
v 5.323059 27.43349 -3.927582
v 3.384705 28.61408 -3.118347
v 3.384705 28.61408 -3.118347
v 3.221436 31.37085 -3.57608
v 2.291077 31.5306 -6.145386
v 7.671021 34.52325 3.002319
v 5.430969 37.6014 3.190033
v 5.379822 38.59873 4.163879
v 5.379822 38.59873 4.163879
v 4.905518 36.0988 3.213928
v 4.063232 36.5755 5.209656
v 4.222656 34.45592 3.281708
v -16.77911 29.4264 3.204926
v -18.4577 28.3827 2.880554
v -19.505 28.7312 1.090149
v -18.42633 31.14106 1.485962
v -15.97119 31.94252 2.626862
v -17.39667 31.94909 1.371155
v -18.37256 31.1202 -0.07479858
v -18.42633 31.14106 1.485962
v -19.54218 28.72558 -0.05914307
v -17.70404 31.99067 -0.4711304
v -18.29742 31.10255 -1.632751
v -19.50494 28.7312 -1.198639
v -16.75574 32.04687 -2.038818
v -17.07263 29.94064 -3.298065
v -18.58203 28.44312 -3.280212
v -16.16864 31.20476 -2.685455
v -14.98267 32.09333 -2.596619
v -17.07263 29.94064 -3.298065
v -17.70404 31.99067 -0.4711304
v -16.84473 33.46916 1.084534
v -17.07269 33.50129 -0.3239136
v -16.75574 32.04687 -2.038818
v -16.34509 33.54488 -1.511383
v -14.98267 32.09333 -2.596619
v -14.99872 33.58028 -1.934174
v -11.93231 29.58029 -3.705078
v -16.16864 31.20476 -2.685455
v -11.69659 31.53567 -2.50473
v -14.98267 32.09333 -2.596619
v -9.00592 29.18392 -2.26593
v -13.07544 32.10728 -1.880432
v -9.165527 30.66726 -1.295227
v -7.717102 28.78294 -4.996185
v -6.984619 31.21887 -1.96286
v -11.71643 32.04811 -0.209137
v -13.6546 33.59072 -1.398651
v -9.151001 30.52192 -0.04553223
v -6.954224 31.44806 -0.1855164
v -12.21143 32.02984 1.272949
v -12.80988 33.57097 -0.1408691
v -9.436768 30.32892 0.7694397
v -12.33685 29.35428 3.067963
v -14.09058 31.97467 2.708984
v -8.741333 28.93873 1.798889
v -6.612732 31.21893 1.201416
v -6.342102 28.51836 4.765167
v -6.311646 33.15031 0.2983093
v -5.442078 30.04926 4.631073
v -6.019348 32.98429 1.144287
v -4.855347 32.45678 4.263611
v -5.594299 34.78428 0.8087158
v -4.085754 34.8643 3.896149
v -14.31622 33.48871 2.113403
v -13.14539 33.53095 1.245972
v -12.21143 32.02984 1.272949
v -5.792358 34.84064 -2.629364
v -5.024231 37.89443 0.7924805
v -5.039612 37.92912 -2.268097
v -4.831665 35.01849 -5.50943
v -4.060242 38.04104 -4.948578
v -5.792358 34.84064 -2.629364
v -4.060242 38.04104 -4.948578
v -4.286865 41.01759 -1.90683
v -3.288879 41.06358 -4.387756
v -4.085754 34.8643 3.896149
v -5.024231 37.89443 0.7924805
v -3.889282 37.94504 3.594879
v -4.454163 41.00458 0.7762146
v -5.039612 37.92912 -2.268097
v -4.286865 41.01759 -1.90683
v -3.69281 41.02577 3.29361
v -3.768555 44.41447 0.8771362
v -4.286865 41.01759 -1.90683
v -3.1073 44.414 3.23053
v -3.689148 44.45192 -1.549927
v -2.567566 47.41707 0.6332703
v -2.273254 47.28832 2.21405
v -2.585083 47.50212 -0.9542236
v -2.90863 44.40828 -3.883057
v -2.190552 47.19653 -2.547638
v -0.8330688 47.36878 -3.05719
v -0.9256592 48.01224 -1.107727
v 0.5460815 47.71452 -3.052734
v -0.9262695 48.05176 0.8469543
v -0.9892578 47.44123 2.721191
v 0.8560791 48.20309 -1.12384
v 2.424377 47.60769 -3.045074
v 0.8492432 48.20163 0.827301
v 0.3534546 47.72374 2.71875
v 1.957764 48.08927 -1.130676
v 2.590576 46.55214 -2.313446
v 1.944641 48.02006 0.808136
v 2.052307 47.74874 2.639832
v 3.276184 47.29026 0.5090637
v 2.86554 46.17791 2.34494
v 15.17053 44.26631 1.11731
v 14.5744 46.98476 1.211823
v 14.57611 46.98346 -1.099731
v 15.26953 44.15398 -1.681366
v 13.38263 47.98416 -3.581696
v 14.81903 44.31306 -4.057404
v 11.68463 47.94009 -4.377411
v 12.70404 44.34398 -5.119293
v 8.856323 47.69806 -4.361847
v 9.574463 44.3661 -5.121735
v 6.933105 44.05901 -3.650818
v 15.65039 40.40179 1.089661
v 15.81317 40.28061 -1.574219
v 15.65039 40.40179 1.089661
v 13.91028 44.42605 3.807098
v 14.5744 46.98476 1.211823
v 13.5379 46.96893 3.524414
v 11.71179 47.70679 4.09848
v 11.7265 49.146 0.7792358
v 14.57611 46.98346 -1.099731
v 8.979309 47.36826 4.107178
v 11.72638 49.14694 -1.123383
v 13.38263 47.98416 -3.581696
v 11.68463 47.94009 -4.377411
v 9.84137 49.1879 0.769989
v 7.425659 46.76052 2.838409
v 6.938293 47.30565 0.8699951
v 9.841064 49.18791 -1.131958
v 8.856323 47.69806 -4.361847
v 6.944397 47.30711 -0.9884338
v 7.621155 46.90842 -2.671112
v -7.717102 28.78294 -4.996185
v -6.914917 30.3264 -5.050293
v -6.984619 31.21887 -1.96286
v -6.313416 33.01127 -2.523926
v -5.91156 32.67245 -5.280151
v -6.311646 33.15031 0.2983093
v -6.954224 31.44806 -0.1855164
v -2.90863 44.40828 -3.883057
v -0.8330688 47.36878 -3.05719
v -2.190552 47.19653 -2.547638
v -1.479553 44.38504 -4.710693
v -3.288879 41.06358 -4.387756
v -1.644348 40.95166 -5.372711
v 0.1317139 40.87297 -5.306183
v 0.2280884 44.39837 -4.673004
v 0.5460815 47.71452 -3.052734
v 3.005859 44.40094 -4.666656
v 2.424377 47.60769 -3.045074
v 4.390381 44.15895 -3.362854
v 2.590576 46.55214 -2.313446
v -3.1073 44.414 3.23053
v -2.273254 47.28832 2.21405
v -0.9892578 47.44123 2.721191
v -1.911865 44.3777 4.187317
v 0.3534546 47.72374 2.71875
v -0.1779175 44.39227 4.226288
v -5.91156 32.67245 -5.280151
v -4.831665 35.01849 -5.50943
v -5.792358 34.84064 -2.629364
v -6.313416 33.01127 -2.523926
v -5.792358 34.84064 -2.629364
v -5.594299 34.78428 0.8087158
v -6.311646 33.15031 0.2983093
v -0.5113525 31.50886 -6.131989
v -1.873657 34.64095 -6.896057
v -3.437012 31.62669 -6.230255
v 0.04492188 34.42894 -6.700134
v 2.291077 31.5306 -6.145386
v 2.9505 35.086 -6.158051
v -0.5113525 31.50886 -6.131989
v 2.205933 28.55015 -5.566986
v -0.7346802 28.58879 -5.563843
v -3.437012 31.62669 -6.230255
v -4.667358 28.61243 -5.564453
v -6.914917 30.3264 -5.050293
v -5.91156 32.67245 -5.280151
v -1.873657 34.64095 -6.896057
v -4.831665 35.01849 -5.50943
v -1.758972 37.79631 -6.134369
v -4.060242 38.04104 -4.948578
v 0.08831787 37.65096 -6.003174
v 2.815979 36.95008 -5.921021
v 3.221436 31.37085 -3.57608
v 3.698486 36.79165 -5.201385
v 4.310791 35.78411 -3.404205
v 5.921204 38.83038 -4.017365
v 3.012756 37.98015 -5.744659
v 0.1317139 40.87297 -5.306183
v 3.193726 40.7738 -5.324646
v 5.921204 38.83038 -4.017365
v 6.133057 40.89 -3.527191
v 9.221313 37.88021 -5.343323
v 9.124817 35.18493 -5.325104
v 13.00891 34.69675 -6.385956
v 9.31781 40.57549 -5.361511
v 12.6944 37.58654 -5.882965
v 12.37988 40.47633 -5.379974
v 15.34583 37.48503 -4.207611
v 14.60126 40.3587 -4.14563
v 13.00891 34.69675 -6.385956
v 15.81317 40.28061 -1.574219
v -4.060242 38.04104 -4.948578
v -1.644348 40.95166 -5.372711
v -3.288879 41.06358 -4.387756
v -1.758972 37.79631 -6.134369
v 0.08831787 37.65096 -6.003174
v 0.1317139 40.87297 -5.306183
v -2.346008 40.90654 4.527252
v -0.1779175 44.39227 4.226288
v 0.4017334 40.68957 4.189484
v -1.911865 44.3777 4.187317
v -3.69281 41.02577 3.29361
v -3.1073 44.414 3.23053
v -2.346008 40.90654 4.527252
v -2.346008 40.90654 4.527252
v -2.487549 37.83946 5.265717
v 0.4017334 40.68957 4.189484
v -0.4040527 34.68561 5.832153
v 3.123718 37.64038 5.381409
v -0.001159668 37.68759 5.010803
v -2.487549 37.83946 5.265717
v 0.4017334 40.68957 4.189484
v -0.1779175 44.39227 4.226288
v 3.425842 40.54585 4.521454
v -17.51251 36.85824 -2.861877
v -16.63531 43.02515 -1.896057
v -17.55475 43.23742 -0.4395752
v -18.86536 36.77727 -0.7073059
v -17.37286 43.11313 1.394135
v -18.51135 36.71119 1.951477
v -18.37659 35.45628 -0.5774231
v -18.04797 35.39484 1.642365
v -17.23108 35.33842 -2.426208
v -18.86536 36.77727 -0.7073059
v -17.51251 36.85824 -2.861877
v -17.37286 43.11313 1.394135
v -16.02441 42.67054 2.710846
v -16.43762 36.69799 3.827118
v -18.04797 35.39484 1.642365
v -16.43762 36.69799 3.827118
v -16.34534 35.17745 3.181641
v -16.84473 33.46916 1.084534
v -15.75085 33.4642 2.050812
v -17.39667 31.94909 1.371155
v -15.97119 31.94252 2.626862
v -17.07269 33.50129 -0.3239136
v -16.84473 33.46916 1.084534
v -18.37659 35.45628 -0.5774231
v -16.34509 33.54488 -1.511383
v -17.23108 35.33842 -2.426208
v -14.99872 33.58028 -1.934174
v -15.13562 35.09658 -3.076752
v -16.43762 36.69799 3.827118
v -16.02441 42.67054 2.710846
v -14.25513 42.15325 2.807953
v -0.8250732 28.61243 5.226166
v -0.5123901 31.62677 5.682434
v 2.639099 28.60498 5.216888
v -4.16687 28.61243 5.226166
v -0.5123901 31.62677 5.682434
v -3.518494 31.69567 5.619324
v 3.384705 28.61408 -3.118347
v 5.313232 27.67991 -2.904541
v 5.328003 27.7263 -0.1064758
v 4.942383 28.28448 -0.1391296
v -15.04773 36.92412 -3.629517
v -15.00989 42.57312 -2.402557
v -16.63531 43.02515 -1.896057
v -17.51251 36.85824 -2.861877
v -15.13562 35.09658 -3.076752
v -17.51251 36.85824 -2.861877
v -17.23108 35.33842 -2.426208
v -15.89386 47.19347 0.8803101
v -15.10406 45.82834 2.108826
v -16.37897 46.04319 1.287781
v -17.37286 43.11313 1.394135
v -16.02441 42.67054 2.710846
v -13.80518 45.57201 1.870972
v -15.89386 47.19347 0.8803101
v -14.66821 47.60206 0.8948364
v -15.10406 45.82834 2.108826
v -16.02441 42.67054 2.710846
v -14.25513 42.15325 2.807953
v -13.06348 45.42647 1.079132
v -14.13904 47.46109 0.9288635
v -14.66821 47.60206 0.8948364
v -12.80035 41.77155 1.667847
v -13.75403 36.7438 3.943756
v -11.56134 36.82416 2.277802
v -13.06348 45.42647 1.079132
v -13.73071 47.58394 -0.4781799
v -12.8288 45.44483 0.06643677
v -14.10699 34.91103 3.290375
v -13.75403 36.7438 3.943756
v -12.18365 34.71488 1.927216
v -12.80035 41.77155 1.667847
v -12.44098 41.73295 -0.1342773
v -10.95685 36.89957 -0.3421021
v -13.36346 42.06771 -1.758789
v -12.18365 34.71488 1.927216
v -12.53308 36.94183 -2.694092
v -15.00989 42.57312 -2.402557
v -15.04773 36.92412 -3.629517
v -11.58783 34.68534 -0.2553711
v -13.04279 34.83933 -2.237427
v -15.13562 35.09658 -3.076752
v -11.58783 34.68534 -0.2553711
v -13.14539 33.53095 1.245972
v -14.31622 33.48871 2.113403
v -14.10699 34.91103 3.290375
v -13.04279 34.83933 -2.237427
v -15.13562 35.09658 -3.076752
v -14.99872 33.58028 -1.934174
v -12.21143 32.02984 1.272949
v -13.14539 33.53095 1.245972
v -11.71643 32.04811 -0.209137
v -13.07544 32.10728 -1.880432
v -14.99872 33.58028 -1.934174
v -14.98267 32.09333 -2.596619
v -12.8288 45.44483 0.06643677
v -12.44098 41.73295 -0.1342773
v -13.06348 45.42647 1.079132
v -13.22864 45.60879 -1.001312
v -12.44098 41.73295 -0.1342773
v -13.36346 42.06771 -1.758789
v -14.37231 45.83319 -1.659698
v -15.00989 42.57312 -2.402557
v -15.63806 47.26335 -0.5254822
v -14.25842 47.72541 -0.5437317
v -15.6557 46.00475 -1.402771
v -16.63531 43.02515 -1.896057
v -16.50568 46.09314 -0.229248
v -17.55475 43.23742 -0.4395752
v -16.37897 46.04319 1.287781
v -17.37286 43.11313 1.394135
v -15.89386 47.19347 0.8803101
v -14.66821 47.60206 0.8948364
v -14.13904 47.46109 0.9288635
v -13.73071 47.58394 -0.4781799
v 14.68835 34.60094 5.063904
v 17.06549 34.55605 2.384888
v 14.4823 37.32894 4.314392
v 11.07422 34.6593 6.060059
v 11.18274 37.55551 5.304962
v 7.931519 34.69457 6.003174
v 8.123779 37.63383 5.281616
v -3.288879 41.06358 -4.387756
v -3.689148 44.45192 -1.549927
vn 0.1063046 0.8818097 -0.4594683
vn 0.6916153 0.2656263 -0.6716479
vn 0.6067749 0.7012249 -0.3743099
vn 0.6916153 0.2656263 -0.6716479
vn 0.9683132 0.245371 -0.04650367
vn 0.6067749 0.7012249 -0.3743099
vn -0.1618207 0.008919683 -0.9867799
vn -0.6957834 0.2500074 -0.6733363
vn -0.6232734 0.2251485 -0.7488915
vn -0.6349508 0.0181361 -0.7723397
vn -0.1520855 0.02579485 -0.9880307
vn -0.189912 0.4408464 -0.8772616
vn -0.2204797 0.04320456 -0.9744343
vn 0.00242176 -0.03402919 -0.9994179
vn 0.3589711 0.05137447 -0.9319338
vn 0.2350375 0.2680151 -0.9343047
vn -0.0002207795 0.07476224 -0.9972013
vn 0.4420714 0.1047925 -0.8908375
vn -0.1320595 0.1031832 -0.9858568
vn -0.3022097 0.3795716 -0.874411
vn -0.7101842 0.1248735 -0.6928529
vn -0.6140096 0.253357 -0.7475309
vn -0.9751361 0.1172316 -0.1880593
vn -0.9109193 0.3274403 -0.2510157
vn -0.9489145 0.3151121 -0.01629711
vn -0.9606273 0.1224826 0.2493859
vn -0.9025854 0.3162137 0.2921447
vn -0.6372361 0.1303554 0.7595642
vn -0.5715234 0.240411 0.7845786
vn -0.704448 0.1309248 0.6975757
vn -0.9668382 0.1298155 0.2199361
vn -0.7565249 0.1780339 0.6292648
vn -0.9753135 0.1302245 -0.1783401
vn -0.9591904 0.2016983 0.1981706
vn -0.7705274 -0.01901832 0.6371231
vn -0.7685374 0.1409605 -0.6240836
vn -0.9781271 -0.009658443 0.207784
vn -0.530125 -0.7077618 0.4669483
vn -0.6793225 -0.7174594 0.1541853
vn -0.9617521 0.2056256 -0.1809724
vn -0.9803417 -0.008433648 -0.1971273
vn -0.6788313 -0.7197148 -0.1455979
vn -0.1837329 0.1364368 -0.9734615
vn -0.7911722 0.1923263 -0.5805663
vn -0.7963684 -0.01697223 -0.6045737
vn -0.5455976 -0.7130736 -0.4402833
vn 0.4719313 0.08050625 -0.877952
vn -0.2269308 0.1551751 -0.9614692
vn -0.2468666 -0.02293856 -0.968778
vn -0.1317589 -0.6811853 -0.720157
vn -0.009702561 0.02461658 -0.9996499
vn 0.5385033 0.07235111 -0.8395115
vn 0.5323748 -0.01856431 -0.8463052
vn 0.4248924 -0.658733 -0.6209165
vn -0.6366296 -0.01042837 -0.7710992
vn 0.0675306 0.05561636 -0.9961659
vn 0.09388837 -0.009038163 -0.9955418
vn 0.160461 -0.8730373 -0.4604977
vn -0.3020705 0.001910877 -0.9532837
vn -0.6374467 0.05002239 -0.768869
vn -0.6376145 -0.004036073 -0.770345
vn -0.4782135 -0.6553351 -0.5846775
vn -0.3260737 0.06489851 -0.943114
vn -0.3041538 -0.01766368 -0.9524592
vn -0.2118906 -0.7326864 -0.6467403
vn -5.248503E-05 0.01791901 -0.9998394
vn 0.001156873 -0.02151173 -0.999768
vn -0.004523651 -0.7606915 -0.6490979
vn 0.001042414 0.07074257 -0.9974941
vn 0.2460641 0.08342855 -0.9656563
vn 0.2516579 -0.02058657 -0.9675973
vn 0.2126885 -0.7410979 -0.6368182
vn 0.24765 0.08143372 -0.9654211
vn 0.2450079 0.03570477 -0.9688634
vn -0.02311619 -0.02258018 -0.9994778
vn -0.01822666 -0.8292765 -0.5585412
vn 0.01575421 0.06307036 -0.9978848
vn 0.06213757 0.06494485 -0.9959524
vn -0.2123985 -0.02198173 -0.9769359
vn -0.2232647 -0.7194507 -0.6576804
vn -0.2117428 0.056474 -0.9756924
vn 0.2280062 -0.02730543 -0.9732767
vn 0.1378278 -0.7359809 -0.662824
vn 0.09837924 0.04500247 -0.9941309
vn -0.1800853 0.09499941 -0.9790528
vn 0.1885005 0.08138584 -0.978695
vn 0.5053927 -0.04154434 -0.8618888
vn 0.3377042 -0.7601728 -0.5550612
vn -0.1343367 0.02948589 -0.990497
vn 0.07949238 0.0466789 -0.995742
vn 0.1593367 0.09989113 -0.9821576
vn 0.456391 0.06386833 -0.8874841
vn 0.09390859 0.7294481 -0.6775593
vn -0.4397548 0.220457 -0.8706402
vn 0.1931393 0.01340965 -0.9810797
vn -0.1517436 -0.01007156 -0.9883686
vn 0.4449386 0.1162059 -0.8879898
vn 0.5555707 0.01619019 -0.8313117
vn 0.2326729 0.002536166 -0.9725518
vn 0.1666028 0.08674232 -0.9822012
vn 0.8620288 0.2214411 -0.4559278
vn 0.8911641 0.3295379 -0.3118194
vn 0.7186335 0.0309658 -0.6946993
vn 0.6682096 0.09616959 -0.7377313
vn 0.9712695 0.09326733 -0.2189448
vn 0.966846 0.1041451 0.2331579
vn 0.1940309 -0.06546838 -0.9788084
vn 0.7395052 -0.1162046 -0.6630449
vn -0.6560422 0.01886562 -0.7544883
vn -0.6903567 0.6601302 -0.2960334
vn -0.8939503 0.0725522 -0.4422545
vn -0.4917519 -0.1164315 -0.8629159
vn -0.870285 -0.1759832 -0.4600368
vn 0.1785355 -0.0008491758 -0.9839331
vn 0.7670416 0.04944077 -0.6396897
vn 0.9736246 -0.1505585 -0.1714272
vn -0.02266077 -0.7781913 -0.6276183
vn 0.05773664 -0.1097496 -0.992281
vn -0.9605329 -0.2636269 -0.08875498
vn 0.9884657 0.06864549 -0.1349942
vn 0.9390344 -0.1374465 0.3151553
vn 0.7355383 0.2159591 -0.642141
vn 0.9506984 0.2659064 -0.1595818
vn 0.8310173 -0.4152039 -0.3701569
vn 0.7176608 -0.176279 -0.6737126
vn 0.01929307 -0.9992061 -0.03485555
vn -0.9579026 -0.1900814 0.2151551
vn 0.05954019 -0.8547696 0.515581
vn 0.8969821 -0.3471693 0.2736726
vn 0.8947147 -0.4431643 -0.05559734
vn 0.9195128 -0.1774986 -0.3507001
vn 0.9798852 -0.1572784 -0.122835
vn 0.939989 -0.149318 0.3067976
vn 0.9107746 0.07994146 0.4050913
vn 0.9903662 -0.02290539 -0.1365658
vn 0.9145956 -0.06652638 -0.3988598
vn 0.9195128 -0.1774986 -0.3507001
vn 0.9420129 -0.04903765 0.3319745
vn 0.3929822 0.007605651 0.9195147
vn 0.5183455 -0.120535 0.846634
vn 0.7938547 0.5336119 0.2916387
vn 0.619606 -0.09388053 0.7792785
vn 0.5348303 0.07555313 0.8415749
vn 0.8940766 0.2817211 0.3482245
vn 0.1643806 -0.1002276 0.9812918
vn 0.117805 0.03796787 0.9923106
vn 0.6620004 0.1148755 0.7406477
vn 0.9698239 0.1799292 -0.164521
vn 0.942908 0.1906515 0.2730871
vn 0.5562193 0.2716688 0.7853764
vn 0.6472549 0.1546059 0.7464303
vn 0.1483436 0.2513816 0.9564525
vn 0.1840552 0.06231753 0.9809384
vn 0.1643806 -0.1002276 0.9812918
vn -0.4937726 0.06047381 0.8674858
vn -0.6743181 -0.02817884 0.7379031
vn 0.169062 0.09620086 0.9808993
vn -0.1572124 0.2648823 0.9513788
vn -0.2055992 0.1420526 0.9682717
vn 0.6845612 0.1018749 0.7218015
vn 0.2282202 0.06520389 0.9714237
vn 0.6508127 0.4734834 0.5935118
vn -0.2525529 0.1277222 0.9591163
vn 0.2196191 0.632121 0.7430952
vn -0.2525529 0.1277222 0.9591163
vn -0.3011721 0.5911552 0.7482185
vn -0.8115271 0.2070151 0.5464142
vn -0.6948357 0.5517454 0.4612813
vn -0.7833548 0.6119053 0.1092118
vn -0.01629319 0.3070904 0.9515408
vn -0.2055992 0.1420526 0.9682717
vn -0.9806044 0.1958561 0.007452553
vn -0.8017162 0.5746953 -0.1642453
vn -0.01629319 0.3070904 0.9515408
vn 0.07481152 0.07643606 0.9942639
vn -0.1572124 0.2648823 0.9513788
vn -0.9582776 0.1969056 -0.2072006
vn -0.7482591 0.4858294 -0.4517502
vn -0.2617052 0.8587058 0.4406072
vn -0.2018417 0.7496143 -0.6303478
vn -0.7608559 0.1962726 -0.6185268
vn -0.01597056 0.2464217 -0.969031
vn -0.2537742 0.0910331 -0.9629703
vn -0.2749635 0.1498302 -0.9497084
vn 0.2200319 0.08617614 -0.9716788
vn 0.2494207 0.1466481 -0.9572271
vn 0.7349507 0.1222609 -0.6670081
vn 0.7699001 0.1797502 -0.6123266
vn 0.9698239 0.1799292 -0.164521
vn 0.9736331 0.1839572 -0.1349016
vn 0.6791413 0.3722051 0.6326377
vn 0.8570377 0.4442142 0.2610749
vn 0.7186245 0.4419251 -0.5369182
vn 0.3913902 0.3788217 -0.8386346
vn 0.2932244 0.1878645 -0.937404
vn 3.850733E-06 0.3220699 -0.9467159
vn 0.0333325 0.190608 -0.9811002
vn 0.8500828 0.490385 -0.1920462
vn 0.7305352 0.6628748 -0.1640586
vn 0.7651728 0.539191 -0.351829
vn 0.7305352 0.6628748 -0.1640586
vn 0.7195507 0.6712683 0.1778925
vn 0.7080185 0.4888123 0.5096787
vn 0.2758754 0.2811109 0.9191678
vn 0.3773064 0.7314926 0.5679423
vn -0.005294955 0.2347649 0.9720377
vn -0.03625175 0.779852 0.6249133
vn 0.2467959 0.2344753 0.9402729
vn 0.163206 0.2642726 0.9505386
vn -0.0004583317 0.2658128 0.9640245
vn 0.001271993 0.1470952 0.9891216
vn 0.1057696 0.2720228 0.9564604
vn 0.6833023 -0.06272956 0.7274359
vn -0.01399302 0.07898322 0.9967777
vn -0.01288704 -0.1229231 0.9923325
vn -0.34298 0.028467 0.9389113
vn -0.3494304 0.13091 0.927772
vn -0.7835129 0.2449127 0.5710738
vn -0.6405954 0.2866955 0.7123505
vn -0.1908127 0.07949476 0.9784023
vn -0.8298021 0.2037306 0.5195405
vn -0.5320547 0.3027366 0.7907391
vn -0.3620857 0.2188641 0.9060864
vn -0.8453196 0.1435905 0.5146033
vn -0.2170872 0.06870912 0.973731
vn -0.6392659 0.09681707 0.7628667
vn -0.2256607 0.461123 0.8581624
vn -1.285802E-06 0.06793609 0.9976897
vn -0.002806515 -0.01502363 0.9998832
vn -0.1584195 0.08563629 0.9836512
vn 0.2841603 0.2393945 0.928409
vn 0.172497 0.09175879 0.9807268
vn 0.3768673 0.08035021 0.9227756
vn -0.001036032 0.1745819 0.9846421
vn -0.3575611 0.1662119 0.9189797
vn -0.7010614 0.06111867 0.7104769
vn 0.2068182 0.1756169 0.9624889
vn 0.3337642 0.04853654 0.9414062
vn -0.1143486 0.05698957 0.9918047
vn -0.2384599 0.2326834 0.9428655
vn 0.2361006 0.335659 0.9119154
vn -0.2814783 0.338745 0.8977872
vn 0.2653237 -0.1708754 0.9488967
vn -0.3910499 -0.1423171 0.9092997
vn 0.2169098 -0.4960059 0.8407902
vn -0.3694752 -0.4791539 0.7961782
vn 0.3077157 -0.06858532 0.9490033
vn -0.371205 -0.08851963 0.9243219
vn -0.0810729 0.09803239 0.9918755
vn -0.5715234 0.240411 0.7845786
vn -0.6372361 0.1303554 0.7595642
vn 0.4344327 0.07878338 0.8972521
vn -0.124283 0.1184995 0.9851454
vn -0.704448 0.1309248 0.6975757
vn -0.186572 0.1327222 0.973435
vn -0.7565249 0.1780339 0.6292648
vn 0.487858 0.06782132 0.8702844
vn -0.08236711 0.07862744 0.9934955
vn -0.2213297 -0.02116667 0.9749693
vn -0.7705274 -0.01901832 0.6371231
vn 0.4864482 -0.0149479 0.8735815
vn -0.1220647 -0.6801993 0.7227926
vn -0.530125 -0.7077618 0.4669483
vn 0.3849996 -0.6636245 0.6413875
vn 0.1676789 -0.8513903 0.4970094
vn -0.05093309 -0.01391509 0.9986051
vn -0.6275392 -0.6342221 0.4516158
vn -0.8065746 -0.009830861 0.5910507
vn -0.3749156 -0.7139 0.5914263
vn -0.7720991 0.1017673 0.6273009
vn -0.5028239 -0.01844225 0.8641921
vn 0.002826806 -0.733807 0.6793521
vn -0.468183 0.20305 0.8599856
vn 0.01119593 -0.02337773 0.999664
vn 0.3331645 -0.7259389 0.601676
vn 0.002888847 0.2632678 0.9647185
vn 0.420119 -0.03678634 0.9067231
vn 0.08983845 -0.8794097 0.4675122
vn 0.3372059 0.1964336 0.9207096
vn 0.174221 -0.06273142 0.9827064
vn -0.1771205 -0.7500205 0.6372579
vn 0.1561382 0.114728 0.9810496
vn -0.1372434 -0.05013636 0.9892677
vn 0.08010802 -0.7633045 0.641053
vn 0.06691177 0.1115054 0.9915086
vn 0.1364951 -0.0519661 0.9892768
vn 0.4438856 -0.7134182 0.5422177
vn -0.1031099 0.08624455 0.9909239
vn -0.02998088 0.05236284 0.998178
vn -0.1064892 0.0573432 0.992659
vn 0.1081822 0.0989168 0.9891977
vn 0.6558269 -0.0914468 0.749352
vn -0.1138794 0.6162158 0.7793006
vn -0.1466428 0.04696588 0.9880739
vn 0.1052517 0.06260862 0.9924728
vn -0.1383142 0.9817346 0.1306381
vn 0.640269 0.08612952 0.7633069
vn 0.1716827 0.1112175 0.9788543
vn 0.619715 0.1914539 0.7611168
vn 0.971684 -0.1233644 0.2015231
vn 0.9751312 0.050963 0.2156893
vn 0.630135 -0.7653477 0.1310447
vn 0.003428975 -0.9999932 -0.001323155
vn 0.08010802 -0.7633045 0.641053
vn -0.1055705 -0.9943947 -0.005835964
vn -0.1771205 -0.7500205 0.6372579
vn -0.0120126 -0.9999177 -0.004504777
vn 0.08983845 -0.8794097 0.4675122
vn 0.09168521 -0.9957772 -0.004640556
vn 0.3331645 -0.7259389 0.601676
vn -0.01102959 -0.9999158 -0.006827908
vn 0.002826806 -0.733807 0.6793521
vn -0.0570955 -0.9983399 0.007589399
vn -0.3749156 -0.7139 0.5914263
vn 0.001322971 -0.9981017 0.0615732
vn -0.6275392 -0.6342221 0.4516158
vn 0.1295804 -0.9885782 0.07695507
vn 0.1676789 -0.8513903 0.4970094
vn 0.1323265 -0.9881377 0.07793408
vn 0.3849996 -0.6636245 0.6413875
vn -0.02686336 -0.9992585 0.0275819
vn -0.1220647 -0.6801993 0.7227926
vn -0.6793225 -0.7174594 0.1541853
vn -0.530125 -0.7077618 0.4669483
vn -0.6788313 -0.7197148 -0.1455979
vn -0.0249561 -0.999274 -0.02879002
vn -0.5455976 -0.7130736 -0.4402833
vn -0.1317589 -0.6811853 -0.720157
vn 0.1017063 -0.9930367 -0.059448
vn 0.4248924 -0.658733 -0.6209165
vn 0.1238851 -0.9908084 -0.05432413
vn 0.160461 -0.8730373 -0.4604977
vn 0.02971565 -0.9985843 -0.04411713
vn -0.4782135 -0.6553351 -0.5846775
vn -0.03206919 -0.9994711 -0.005390776
vn -0.2118906 -0.7326864 -0.6467403
vn -0.01197717 -0.9998786 0.009961518
vn -0.004523651 -0.7606915 -0.6490979
vn 0.08893051 -0.9959767 0.01103093
vn 0.2126885 -0.7410979 -0.6368182
vn -0.008081768 -0.9999446 0.006747569
vn -0.01822666 -0.8292765 -0.5585412
vn -0.1087768 -0.9940632 0.002419036
vn -0.2232647 -0.7194507 -0.6576804
vn -0.0001644577 -0.9999782 0.006611387
vn 0.1378278 -0.7359809 -0.662824
vn 0.61939 -0.7141123 -0.3261899
vn 0.8894377 -0.09595233 -0.446871
vn 0.8788953 0.04909893 -0.4744811
vn 0.9400723 0.2630119 0.2169996
vn 0.8881299 0.4082736 0.21104
vn 0.6062534 0.271666 0.7474319
vn 0.9390344 -0.1374465 0.3151553
vn 0.9736246 -0.1505585 -0.1714272
vn 0.9712695 0.09326733 -0.2189448
vn 0.9712695 0.09326733 -0.2189448
vn 0.7395052 -0.1162046 -0.6630449
vn 0.6682096 0.09616959 -0.7377313
vn -0.8383988 0.4893311 0.240089
vn -0.9653654 0.08448818 0.2468432
vn -0.9579026 -0.1900814 0.2151551
vn -0.5137047 -0.04649647 0.8567063
vn 0.117805 0.03796787 0.9923106
vn 0.1643806 -0.1002276 0.9812918
vn 0.09414776 0.9948291 -0.0380973
vn -0.7117524 0.6998261 -0.06043224
vn 0.828845 0.5506989 -0.09872562
vn 0.7938547 0.5336119 0.2916387
vn 0.9420129 -0.04903765 0.3319745
vn 0.9903662 -0.02290539 -0.1365658
vn 0.809119 0.4575875 -0.3687006
vn 0.9145956 -0.06652638 -0.3988598
vn -0.9653654 0.08448818 0.2468432
vn -0.9833853 0.1046297 -0.1483437
vn -0.9579026 -0.1900814 0.2151551
vn -0.9605329 -0.2636269 -0.08875498
vn -0.8939503 0.0725522 -0.4422545
vn -0.870285 -0.1759832 -0.4600368
vn -0.6903567 0.6601302 -0.2960334
vn 0.1413367 0.9844338 -0.1044704
vn 0.09414776 0.9948291 -0.0380973
vn 0.09390859 0.7294481 -0.6775593
vn 0.809119 0.4575875 -0.3687006
vn 0.809119 0.4575875 -0.3687006
vn 0.9145956 -0.06652638 -0.3988598
vn 0.5552163 -0.1518988 -0.8177174
vn -0.9579026 -0.1900814 0.2151551
vn 0.05954019 -0.8547696 0.515581
vn 0.07481152 0.07643606 0.9942639
vn 0.07481152 0.07643606 0.9942639
vn 0.8969821 -0.3471693 0.2736726
vn 0.6833023 -0.06272956 0.7274359
vn 0.939989 -0.149318 0.3067976
vn -0.2384599 0.2326834 0.9428655
vn -0.5715234 0.240411 0.7845786
vn -0.9025854 0.3162137 0.2921447
vn -0.7410384 0.5306867 0.4113803
vn -0.2814783 0.338745 0.8977872
vn -0.713709 0.5053885 0.4849762
vn -0.8083472 0.5876092 -0.03591888
vn -0.7410384 0.5306867 0.4113803
vn -0.9489145 0.3151121 -0.01629711
vn -0.7943813 0.5919384 -0.1362622
vn -0.7128699 0.5760199 -0.4000219
vn -0.9109193 0.3274403 -0.2510157
vn -0.5173053 0.4620504 -0.7203504
vn -0.3022097 0.3795716 -0.874411
vn -0.6140096 0.253357 -0.7475309
vn -0.2085846 0.4862036 -0.8485861
vn 0.006832551 0.4288336 -0.9033577
vn -0.3022097 0.3795716 -0.874411
vn -0.7943813 0.5919384 -0.1362622
vn -0.8739437 -0.1222219 0.4704085
vn -0.975859 -0.1131237 -0.1868214
vn -0.5173053 0.4620504 -0.7203504
vn -0.6215911 -0.1168623 -0.7745758
vn 0.006832551 0.4288336 -0.9033577
vn 0.01760088 -0.1279887 -0.9916195
vn 0.2350375 0.2680151 -0.9343047
vn -0.2085846 0.4862036 -0.8485861
vn 0.3127158 0.7186962 -0.621035
vn 0.006832551 0.4288336 -0.9033577
vn -0.189912 0.4408464 -0.8772616
vn 0.3641805 0.5954285 -0.7161268
vn 0.04084554 0.9171834 -0.3963662
vn -0.6232734 0.2251485 -0.7488915
vn -0.7834566 0.5907139 -0.1930097
vn 0.6140458 0.7889811 -0.02137031
vn 0.5798452 -0.1275518 -0.80468
vn 0.03716568 0.9943679 0.09925292
vn -0.708421 0.6968033 0.1122712
vn 0.6092495 0.5768535 0.5441095
vn 0.968823 -0.1317635 -0.2098102
vn 0.1251165 0.826817 0.548379
vn 0.2841603 0.2393945 0.928409
vn 0.2361006 0.335659 0.9119154
vn -0.2256607 0.461123 0.8581624
vn -0.728452 0.5378344 0.4243725
vn -0.5320547 0.3027366 0.7907391
vn -0.9332818 0.3162751 0.1701622
vn -0.6405954 0.2866955 0.7123505
vn -0.8847265 0.2919853 0.3633232
vn -0.7835129 0.2449127 0.5710738
vn -0.9387713 0.2512371 0.2357718
vn -0.8298021 0.2037306 0.5195405
vn 0.2653237 -0.1708754 0.9488967
vn 0.7821321 -0.1661618 0.6005495
vn 0.6092495 0.5768535 0.5441095
vn -0.947702 0.2928368 -0.1269155
vn -0.9661065 0.1737132 0.1909503
vn -0.9564327 0.2449934 -0.1587916
vn -0.6951668 0.2295225 -0.6812214
vn -0.715768 0.2803572 -0.6395906
vn -0.947702 0.2928368 -0.1269155
vn -0.715768 0.2803572 -0.6395906
vn -0.9580679 0.2152582 -0.1891291
vn -0.7311069 0.2368621 -0.6398274
vn -0.8298021 0.2037306 0.5195405
vn -0.9661065 0.1737132 0.1909503
vn -0.8453196 0.1435905 0.5146033
vn -0.9745848 0.1787182 0.1350714
vn -0.9564327 0.2449934 -0.1587916
vn -0.9580679 0.2152582 -0.1891291
vn -0.8395886 0.1555769 0.5204678
vn -0.9550644 0.2711111 0.1197951
vn -0.9580679 0.2152582 -0.1891291
vn -0.7772509 0.2967219 0.5548308
vn -0.9445899 0.276456 -0.1769804
vn -0.6959925 0.7085534 0.1163903
vn -0.6125904 0.6618544 0.4320668
vn -0.67851 0.7214618 -0.1382647
vn -0.7143971 0.3240037 -0.6202084
vn -0.5758057 0.6654584 -0.4749873
vn -0.2179646 0.7402455 -0.6360252
vn -0.2158953 0.9661478 -0.1412362
vn -0.03971884 0.7911205 -0.6103694
vn -0.2137313 0.9688538 0.1250653
vn -0.239763 0.7359272 0.6331862
vn -0.007076088 0.992067 -0.1255114
vn 0.4326964 0.7092274 -0.5565702
vn -0.0004216899 0.993305 0.1155199
vn -0.03625175 0.779852 0.6249133
vn 0.3705437 0.9203757 -0.1249237
vn 0.7651728 0.539191 -0.351829
vn 0.3769334 0.9144141 0.1475401
vn 0.3773064 0.7314926 0.5679423
vn 0.7195507 0.6712683 0.1778925
vn 0.7080185 0.4888123 0.5096787
vn 0.9600031 0.1556357 0.2327477
vn 0.827255 0.524188 0.2021787
vn 0.830888 0.5490758 -0.09022648
vn 0.9736331 0.1839572 -0.1349016
vn 0.6146331 0.644048 -0.4554432
vn 0.7699001 0.1797502 -0.6123266
vn 0.2014115 0.6491177 -0.7335392
vn 0.2494207 0.1466481 -0.9572271
vn -0.3838294 0.5828399 -0.7162211
vn -0.2749635 0.1498302 -0.9497084
vn -0.7608559 0.1962726 -0.6185268
vn 0.942908 0.1906515 0.2730871
vn 0.9698239 0.1799292 -0.164521
vn 0.942908 0.1906515 0.2730871
vn 0.6845612 0.1018749 0.7218015
vn 0.827255 0.524188 0.2021787
vn 0.6508127 0.4734834 0.5935118
vn 0.2196191 0.632121 0.7430952
vn 0.2808073 0.9414445 0.1866268
vn 0.830888 0.5490758 -0.09022648
vn -0.3011721 0.5911552 0.7482185
vn 0.264385 0.9552134 -0.1329214
vn 0.6146331 0.644048 -0.4554432
vn 0.2014115 0.6491177 -0.7335392
vn -0.2650576 0.9442348 0.1953589
vn -0.6948357 0.5517454 0.4612813
vn -0.7833548 0.6119053 0.1092118
vn -0.2732852 0.9463704 -0.1723322
vn -0.3838294 0.5828399 -0.7162211
vn -0.8017162 0.5746953 -0.1642453
vn -0.7482591 0.4858294 -0.4517502
vn -0.6232734 0.2251485 -0.7488915
vn -0.6957834 0.2500074 -0.6733363
vn -0.7834566 0.5907139 -0.1930097
vn -0.9342598 0.3425654 -0.09903286
vn -0.7344992 0.1986553 -0.6488814
vn -0.9332818 0.3162751 0.1701622
vn -0.708421 0.6968033 0.1122712
vn -0.7143971 0.3240037 -0.6202084
vn -0.2179646 0.7402455 -0.6360252
vn -0.5758057 0.6654584 -0.4749873
vn -0.2387021 0.3355979 -0.9112602
vn -0.7311069 0.2368621 -0.6398274
vn -0.2197131 0.2186157 -0.9507541
vn 0.0333325 0.190608 -0.9811002
vn 3.850733E-06 0.3220699 -0.9467159
vn -0.03971884 0.7911205 -0.6103694
vn 0.3913902 0.3788217 -0.8386346
vn 0.4326964 0.7092274 -0.5565702
vn 0.7186245 0.4419251 -0.5369182
vn 0.7651728 0.539191 -0.351829
vn -0.7772509 0.2967219 0.5548308
vn -0.6125904 0.6618544 0.4320668
vn -0.239763 0.7359272 0.6331862
vn -0.2923278 0.2717329 0.9169001
vn -0.03625175 0.779852 0.6249133
vn -0.005294955 0.2347649 0.9720377
vn -0.7344992 0.1986553 -0.6488814
vn -0.6951668 0.2295225 -0.6812214
vn -0.947702 0.2928368 -0.1269155
vn -0.9342598 0.3425654 -0.09903286
vn -0.947702 0.2928368 -0.1269155
vn -0.9387713 0.2512371 0.2357718
vn -0.9332818 0.3162751 0.1701622
vn 0.03654565 -0.1842063 -0.982208
vn -0.1308051 0.05582107 -0.9898354
vn -0.1736297 -0.1019216 -0.9795227
vn 0.09233038 0.002344644 -0.9957257
vn 0.5552163 -0.1518988 -0.8177174
vn 0.598328 -0.06893876 -0.7982801
vn 0.03654565 -0.1842063 -0.982208
vn 0.4420714 0.1047925 -0.8908375
vn 0.00242176 -0.03402919 -0.9994179
vn -0.1736297 -0.1019216 -0.9795227
vn -0.1618207 0.008919683 -0.9867799
vn -0.6957834 0.2500074 -0.6733363
vn -0.7344992 0.1986553 -0.6488814
vn -0.1308051 0.05582107 -0.9898354
vn -0.6951668 0.2295225 -0.6812214
vn -0.1749145 0.2420236 -0.9543739
vn -0.715768 0.2803572 -0.6395906
vn 0.07242221 0.2048343 -0.9761137
vn 0.342194 0.1201701 -0.9319133
vn 0.9145956 -0.06652638 -0.3988598
vn 0.7176608 -0.176279 -0.6737126
vn 0.8310173 -0.4152039 -0.3701569
vn 0.05773664 -0.1097496 -0.992281
vn 0.312416 0.09586344 -0.945096
vn 0.0333325 0.190608 -0.9811002
vn 0.2932244 0.1878645 -0.937404
vn 0.05773664 -0.1097496 -0.992281
vn -0.01597056 0.2464217 -0.969031
vn -0.2681652 0.0676695 -0.9609934
vn -0.4917519 -0.1164315 -0.8629159
vn 0.1785355 -0.0008491758 -0.9839331
vn -0.2537742 0.0910331 -0.9629703
vn 0.2019949 0.1379082 -0.9696285
vn 0.2200319 0.08617614 -0.9716788
vn 0.7355383 0.2159591 -0.642141
vn 0.7349507 0.1222609 -0.6670081
vn 0.1785355 -0.0008491758 -0.9839331
vn 0.9698239 0.1799292 -0.164521
vn -0.715768 0.2803572 -0.6395906
vn -0.2197131 0.2186157 -0.9507541
vn -0.7311069 0.2368621 -0.6398274
vn -0.1749145 0.2420236 -0.9543739
vn 0.07242221 0.2048343 -0.9761137
vn 0.0333325 0.190608 -0.9811002
vn -0.3339234 0.1593803 0.9290281
vn -0.005294955 0.2347649 0.9720377
vn 0.001271993 0.1470952 0.9891216
vn -0.2923278 0.2717329 0.9169001
vn -0.8395886 0.1555769 0.5204678
vn -0.7772509 0.2967219 0.5548308
vn -0.3339234 0.1593803 0.9290281
vn -0.3339234 0.1593803 0.9290281
vn -0.3620857 0.2188641 0.9060864
vn 0.001271993 0.1470952 0.9891216
vn -0.01399302 0.07898322 0.9967777
vn 0.163206 0.2642726 0.9505386
vn -0.0004583317 0.2658128 0.9640245
vn -0.3620857 0.2188641 0.9060864
vn 0.001271993 0.1470952 0.9891216
vn -0.005294955 0.2347649 0.9720377
vn 0.2467959 0.2344753 0.9402729
vn -0.6057137 -0.05415666 -0.7938375
vn -0.5645394 0.2559455 -0.7847211
vn -0.9334411 0.278397 -0.2262363
vn -0.9736221 -0.07218277 -0.216448
vn -0.8505048 0.2602132 0.4570894
vn -0.882639 -0.08624824 0.4620709
vn -0.8740101 -0.4501474 -0.182958
vn -0.7928605 -0.4624823 0.3968405
vn -0.5647328 -0.4409449 -0.6975991
vn -0.9736221 -0.07218277 -0.216448
vn -0.6057137 -0.05415666 -0.7938375
vn -0.8505048 0.2602132 0.4570894
vn -0.3301652 0.2252578 0.9166514
vn -0.371205 -0.08851963 0.9243219
vn -0.7928605 -0.4624823 0.3968405
vn -0.371205 -0.08851963 0.9243219
vn -0.3694752 -0.4791539 0.7961782
vn -0.8739437 -0.1222219 0.4704085
vn -0.3910499 -0.1423171 0.9092997
vn -0.713709 0.5053885 0.4849762
vn -0.2814783 0.338745 0.8977872
vn -0.975859 -0.1131237 -0.1868214
vn -0.8739437 -0.1222219 0.4704085
vn -0.8740101 -0.4501474 -0.182958
vn -0.6215911 -0.1168623 -0.7745758
vn -0.5647328 -0.4409449 -0.6975991
vn 0.01760088 -0.1279887 -0.9916195
vn -0.001333117 -0.4419752 -0.8970262
vn -0.371205 -0.08851963 0.9243219
vn -0.3301652 0.2252578 0.9166514
vn 0.3308786 0.2036696 0.9214326
vn -0.002806515 -0.01502363 0.9998832
vn -0.01288704 -0.1229231 0.9923325
vn 0.3768673 0.08035021 0.9227756
vn -0.1908127 0.07949476 0.9784023
vn -0.01288704 -0.1229231 0.9923325
vn -0.34298 0.028467 0.9389113
vn 0.809119 0.4575875 -0.3687006
vn 0.1413367 0.9844338 -0.1044704
vn 0.09414776 0.9948291 -0.0380973
vn 0.828845 0.5506989 -0.09872562
vn 0.03869224 -0.04061285 -0.9984255
vn 0.07108118 0.2072145 -0.9757098
vn -0.5645394 0.2559455 -0.7847211
vn -0.6057137 -0.05415666 -0.7938375
vn -0.001333117 -0.4419752 -0.8970262
vn -0.6057137 -0.05415666 -0.7938375
vn -0.5647328 -0.4409449 -0.6975991
vn -0.534298 0.7521285 0.3857829
vn -0.1698325 0.3932034 0.9036304
vn -0.7661896 0.4215782 0.4850003
vn -0.8505048 0.2602132 0.4570894
vn -0.3301652 0.2252578 0.9166514
vn 0.4241303 0.3352152 0.8412755
vn -0.534298 0.7521285 0.3857829
vn -0.02476199 0.8790888 0.4760146
vn -0.1698325 0.3932034 0.9036304
vn -0.3301652 0.2252578 0.9166514
vn 0.3308786 0.2036696 0.9214326
vn 0.8505 0.2729184 0.4496279
vn 0.4524887 0.7040465 0.5473322
vn -0.02476199 0.8790888 0.4760146
vn 0.8341583 0.2005589 0.5137664
vn 0.3077157 -0.06858532 0.9490033
vn 0.8420238 -0.02935913 0.5386407
vn 0.8505 0.2729184 0.4496279
vn 0.6067749 0.7012249 -0.3743099
vn 0.9683132 0.245371 -0.04650367
vn 0.2169098 -0.4960059 0.8407902
vn 0.3077157 -0.06858532 0.9490033
vn 0.7075436 -0.5072561 0.4920096
vn 0.8341583 0.2005589 0.5137664
vn 0.9697205 0.1975026 -0.1436484
vn 0.9849979 -0.01077307 -0.1722298
vn 0.6590825 0.1845925 -0.7290651
vn 0.7075436 -0.5072561 0.4920096
vn 0.6336229 -0.02298509 -0.7733005
vn 0.07108118 0.2072145 -0.9757098
vn 0.03869224 -0.04061285 -0.9984255
vn 0.849084 -0.5021105 -0.164138
vn 0.5238858 -0.4621404 -0.7155207
vn -0.001333117 -0.4419752 -0.8970262
vn 0.849084 -0.5021105 -0.164138
vn 0.7821321 -0.1661618 0.6005495
vn 0.2653237 -0.1708754 0.9488967
vn 0.2169098 -0.4960059 0.8407902
vn 0.5238858 -0.4621404 -0.7155207
vn -0.001333117 -0.4419752 -0.8970262
vn 0.01760088 -0.1279887 -0.9916195
vn 0.6092495 0.5768535 0.5441095
vn 0.7821321 -0.1661618 0.6005495
vn 0.6140458 0.7889811 -0.02137031
vn 0.3641805 0.5954285 -0.7161268
vn 0.01760088 -0.1279887 -0.9916195
vn 0.006832551 0.4288336 -0.9033577
vn 0.9683132 0.245371 -0.04650367
vn 0.9697205 0.1975026 -0.1436484
vn 0.8505 0.2729184 0.4496279
vn 0.6916153 0.2656263 -0.6716479
vn 0.9697205 0.1975026 -0.1436484
vn 0.6590825 0.1845925 -0.7290651
vn 0.08193536 0.3527147 -0.9321368
vn 0.07108118 0.2072145 -0.9757098
vn -0.4343093 0.7739636 -0.4608208
vn 0.1063046 0.8818097 -0.4594683
vn -0.473297 0.4006943 -0.7844961
vn -0.5645394 0.2559455 -0.7847211
vn -0.848285 0.4487621 -0.2811142
vn -0.9334411 0.278397 -0.2262363
vn -0.7661896 0.4215782 0.4850003
vn -0.8505048 0.2602132 0.4570894
vn -0.534298 0.7521285 0.3857829
vn -0.02476199 0.8790888 0.4760146
vn 0.4524887 0.7040465 0.5473322
vn 0.6067749 0.7012249 -0.3743099
vn 0.5348303 0.07555313 0.8415749
vn 0.9107746 0.07994146 0.4050913
vn 0.5562193 0.2716688 0.7853764
vn 0.117805 0.03796787 0.9923106
vn 0.1483436 0.2513816 0.9564525
vn -0.5137047 -0.04649647 0.8567063
vn -0.1572124 0.2648823 0.9513788
vn -0.7311069 0.2368621 -0.6398274
vn -0.9445899 0.276456 -0.1769804
vt 0.7940312 0.625
vt 0.782063 0.6119233
vt 0.7811191 0.6268247
vt 0.782063 0.6119233
vt 0.7820629 0.6366773
vt 0.7820629 0.6263465
vt 0.625 0.3927464
vt 0.625 0.375
vt 0.625 0.375
vt 0.5902998 0.375
vt 0.5902998 0.3588759
vt 0.625 0.3588759
vt 0.5902998 0.3927464
vt 0.6250001 0.4351667
vt 0.5902998 0.3429371
vt 0.625 0.3429371
vt 0.5902998 0.4351667
vt 0.6250001 0.4457719
vt 0.5902997 0.2780447
vt 0.6249999 0.2780447
vt 0.5902998 0.25
vt 0.625 0.25
vt 0.5902998 0.1666667
vt 0.625 0.1666667
vt 0.625 0.1249994
vt 0.5902998 0.08333333
vt 0.625 0.08333334
vt 0.5902998 0
vt 0.625 0
vt 0.5236695 0
vt 0.5236695 0.08333331
vt 0.4791685 0
vt 0.5236696 0.1666667
vt 0.4791685 0.08333333
vt 0.4270842 0
vt 0.5236695 0.25
vt 0.4270842 0.08333334
vt 0.375 0
vt 0.375 0.08333333
vt 0.4791684 0.1666667
vt 0.4270842 0.1666667
vt 0.375 0.1666667
vt 0.5236695 0.2780447
vt 0.4791684 0.25
vt 0.4270842 0.25
vt 0.375 0.25
vt 0.5236695 0.3429371
vt 0.4791684 0.2780447
vt 0.4270842 0.2780447
vt 0.375 0.2780447
vt 0.5236696 0.3588759
vt 0.4791684 0.3429372
vt 0.4270842 0.3429372
vt 0.375 0.3429372
vt 0.5236696 0.375
vt 0.4791685 0.3588759
vt 0.4270842 0.3588759
vt 0.375 0.3588759
vt 0.5236696 0.3927464
vt 0.4791685 0.375
vt 0.4270842 0.375
vt 0.375 0.375
vt 0.4791685 0.3927464
vt 0.4270842 0.3927464
vt 0.375 0.3927464
vt 0.5236695 0.4351667
vt 0.4270842 0.4351667
vt 0.375 0.4351667
vt 0.4791684 0.4351667
vt 0.5902999 0.4457718
vt 0.4270842 0.4457719
vt 0.375 0.4457718
vt 0.4791684 0.4457718
vt 0.5236696 0.4457718
vt 0.4270842 0.4563769
vt 0.375 0.4563769
vt 0.4791685 0.4563769
vt 0.5236695 0.4563768
vt 0.4270843 0.466982
vt 0.375 0.4669819
vt 0.4791685 0.4669819
vt 0.4270842 0.477587
vt 0.375 0.477587
vt 0.5398982 0.4563768
vt 0.5236696 0.4669819
vt 0.4791684 0.477587
vt 0.4270842 0.5
vt 0.375 0.5
vt 0.5429387 0.4669819
vt 0.5902998 0.4563769
vt 0.5236695 0.477587
vt 0.4791685 0.5
vt 0.625 0.4563769
vt 0.625 0.466982
vt 0.5573688 0.477587
vt 0.5902998 0.4669819
vt 0.5236695 0.5
vt 0.571087 0.5
vt 0.5902998 0.477587
vt 0.625 0.477587
vt 0.5236696 0.5833334
vt 0.5902998 0.5833333
vt 0.5902998 0.5
vt 0.625 0.5
vt 0.625 0.5833333
vt 0.625 0.6666666
vt 0.625 0.477587
vt 0.625 0.5
vt 0.625 0.466982
vt 0.625 0.466982
vt 0.625 0.466982
vt 0.6250001 0.466982
vt 0.6250001 0.466982
vt 0.6250001 0.4775871
vt 0.625 0.5
vt 0.6249999 0.5833332
vt 0.625 0.4563769
vt 0.6250001 0.4563769
vt 0.6250001 0.6250001
vt 0.625 0.5833333
vt 0.625 0.6666666
vt 0.625 0.5
vt 0.625 0.5833333
vt 0.625 0.4510744
vt 0.625 0.4510743
vt 0.625 0.625
vt 0.6250001 0.7830181
vt 0.625 0.7936231
vt 0.625 0.7989256
vt 0.625 0.625
vt 0.625 0.4457718
vt 0.625 0.625
vt 0.6249999 0.8042282
vt 0.625 0.6666666
vt 0.625 0.6250001
vt 0.6249999 0.4457718
vt 0.625 0.4457718
vt 0.6249999 0.8042281
vt 0.6249999 0.8042282
vt 0.625 0.8042283
vt 0.625 0.8042283
vt 0.625 0.75
vt 0.6250001 0.7500001
vt 0.625 0.6666666
vt 0.625 0.7724131
vt 0.625 0.772413
vt 0.625 0.75
vt 0.625 0.5833333
vt 0.6250001 0.6666667
vt 0.625 0.75
vt 0.625 0.7499999
vt 0.6249999 0.7724129
vt 0.625 0.772413
vt 0.625 0.7724131
vt 0.625 0.7830181
vt 0.625 0.7830181
vt 0.625 0.772413
vt 0.6250001 0.7830183
vt 0.6250001 0.7830182
vt 0.625 0.7499999
vt 0.625 0.772413
vt 0.625 0.75
vt 0.6250001 0.7830181
vt 0.625 0.772413
vt 0.6250001 0.7830181
vt 0.625 0.783018
vt 0.625 0.7936231
vt 0.625 0.7936231
vt 0.625 0.7936231
vt 0.625 0.7936231
vt 0.6250001 0.7830182
vt 0.625 0.7936231
vt 0.625 0.4563769
vt 0.625 0.7936231
vt 0.6249999 0.7936231
vt 0.6250001 0.7830183
vt 0.625 0.4563769
vt 0.625 0.4563769
vt 0.625 0.7936231
vt 0.625 0.4563769
vt 0.625 0.4563769
vt 0.6249999 0.4563769
vt 0.6249999 0.4669819
vt 0.6250001 0.466982
vt 0.6249999 0.477587
vt 0.625 0.4775871
vt 0.625 0.5000001
vt 0.625 0.5
vt 0.625 0.5833333
vt 0.6250001 0.5833333
vt 0.625 0.7936231
vt 0.625 0.7936231
vt 0.625 0.4563769
vt 0.6250001 0.4457718
vt 0.6249999 0.4457718
vt 0.625 0.4351667
vt 0.6249999 0.4351667
vt 0.625 0.4563769
vt 0.625 0.4563769
vt 0.625 0.4563769
vt 0.6686232 0.5833333
vt 0.625 0.7936231
vt 0.625 0.7936231
vt 0.625 0.8042281
vt 0.625 0.8042282
vt 0.6249999 0.8148332
vt 0.625 0.8148333
vt 0.625 0.8042281
vt 0.6249999 0.8042282
vt 0.625 0.8148333
vt 0.625 0.8148333
vt 0.6249999 0.8042282
vt 0.6249999 0.7989256
vt 0.625 0.8148333
vt 0.6249999 0.8148332
vt 0.625 0.8572536
vt 0.625 0.8572536
vt 0.625 0.875
vt 0.625 0.875
vt 0.625 0.8572536
vt 0.625 0.875
vt 0.625 0.875
vt 0.6250001 0.8572537
vt 0.625 0.875
vt 0.5902998 0.8572536
vt 0.5902998 0.8749999
vt 0.625 0.8911241
vt 0.5902998 0.8148333
vt 0.6250001 0.8148333
vt 0.5902997 0.8911241
vt 0.625 0.9070629
vt 0.5902998 0.8042282
vt 0.625 0.8042283
vt 0.5236695 0.8148333
vt 0.5236695 0.8572536
vt 0.5236695 0.875
vt 0.5236695 0.8042282
vt 0.5902997 0.9070628
vt 0.5236695 0.8911241
vt 0.625 0.9719553
vt 0.625 0.9070629
vt 0.625 0.9719553
vt 0.625 0.9070629
vt 0.625 0.9719553
vt 0.625 0.9070629
vt 0.625 0.9719553
vt 0.625 0.9070629
vt 0.6249999 0.9719552
vt 0.5902998 0.9719553
vt 0.625 1
vt 0.5902998 1
vt 0.5236695 0.9070628
vt 0.5236695 0.9719553
vt 0.5236695 1
vt 0.4791684 0.9719553
vt 0.4791684 1
vt 0.4791684 0.9070629
vt 0.4791684 0.8911241
vt 0.4270842 0.9719552
vt 0.4270841 0.9999999
vt 0.4270842 0.9070628
vt 0.375 0.9719553
vt 0.375 1
vt 0.375 0.9070629
vt 0.375 0.8911241
vt 0.4270841 0.8911239
vt 0.375 0.875
vt 0.4270841 0.8749999
vt 0.375 0.8572536
vt 0.4791684 0.875
vt 0.4270842 0.8572536
vt 0.375 0.8148333
vt 0.4791685 0.8572536
vt 0.4270842 0.8148333
vt 0.375 0.8042282
vt 0.4791685 0.8148333
vt 0.4270842 0.8042282
vt 0.375 0.7936231
vt 0.4791684 0.8042282
vt 0.4270842 0.7936231
vt 0.375 0.783018
vt 0.4791685 0.7936231
vt 0.4270842 0.7830181
vt 0.375 0.772413
vt 0.5236696 0.7936231
vt 0.4270842 0.772413
vt 0.375 0.75
vt 0.4791685 0.7830181
vt 0.5902998 0.7936231
vt 0.5236695 0.7830181
vt 0.4791685 0.772413
vt 0.4270842 0.75
vt 0.625 0.7936232
vt 0.5902998 0.7830181
vt 0.5236695 0.772413
vt 0.625 0.7936232
vt 0.4791685 0.75
vt 0.5902998 0.772413
vt 0.5236696 0.75
vt 0.4270842 0.6666666
vt 0.4791685 0.6666666
vt 0.375 0.6666666
vt 0.352587 0.6666666
vt 0.352587 0.75
vt 0.3419819 0.6666666
vt 0.3419819 0.75
vt 0.3313769 0.6666666
vt 0.3313769 0.75
vt 0.3207718 0.6666666
vt 0.3207718 0.75
vt 0.3101667 0.6666666
vt 0.3101667 0.75
vt 0.2677464 0.6666666
vt 0.2677464 0.75
vt 0.25 0.6666666
vt 0.25 0.75
vt 0.2338759 0.6666666
vt 0.2338759 0.75
vt 0.2179372 0.6666666
vt 0.2179372 0.75
vt 0.1530447 0.6666666
vt 0.1530447 0.75
vt 0.125 0.6666666
vt 0.125 0.75
vt 0.125 0.5833333
vt 0.1530447 0.5833333
vt 0.125 0.5
vt 0.1530447 0.5
vt 0.2179372 0.5833333
vt 0.2179372 0.5
vt 0.2338759 0.5833333
vt 0.2338759 0.5
vt 0.25 0.5833333
vt 0.25 0.5
vt 0.2677464 0.5833333
vt 0.2677464 0.5
vt 0.3101667 0.5833333
vt 0.3101667 0.5
vt 0.3207718 0.5833332
vt 0.3207718 0.5
vt 0.3313769 0.5833333
vt 0.3313769 0.5
vt 0.341982 0.5833333
vt 0.3419819 0.5
vt 0.3525871 0.5833333
vt 0.352587 0.5
vt 0.375 0.5833333
vt 0.4270843 0.5833334
vt 0.4791685 0.5833334
vt 0.5236696 0.6666667
vt 0.5902998 0.6666666
vt 0.5902998 0.75
vt 0.625 0.6666666
vt 0.6249999 0.5833332
vt 0.625 0.5833333
vt 0.625 0.5833333
vt 0.625 0.5
vt 0.625 0.5
vt 0.625 0.7830181
vt 0.625 0.7830181
vt 0.6250001 0.7830181
vt 0.6250001 0.7830181
vt 0.625 0.772413
vt 0.625 0.7724131
vt 0.625 0.6250001
vt 0.625 0.6250001
vt 0.625 0.6250001
vt 0.625 0.8042283
vt 0.6249999 0.8042281
vt 0.625 0.6250001
vt 0.6250001 0.4457719
vt 0.6249999 0.4457718
vt 0.625 0.7830181
vt 0.625 0.6250001
vt 0.6250001 0.7830181
vt 0.6250001 0.6250001
vt 0.625 0.466982
vt 0.6250001 0.466982
vt 0.625 0.466982
vt 0.6249999 0.4563769
vt 0.6249999 0.6250001
vt 0.625 0.4563769
vt 0.6250001 0.4457719
vt 0.6250001 0.4457719
vt 0.6249999 0.4457718
vt 0.625 0.4457719
vt 0.6250001 0.7830181
vt 0.625 0.7936231
vt 0.6249999 0.7936231
vt 0.6249999 0.7936231
vt 0.625 0.7989256
vt 0.6249999 0.7989256
vt 0.6249999 0.8042282
vt 0.8469553 0.75
vt 0.875 0.75
vt 0.875 0.6666666
vt 0.8528686 0.6666666
vt 0.8469553 0.75
vt 0.8528686 0.6666666
vt 0.8528375 0.6249999
vt 0.8528686 0.6666666
vt 0.875 0.6250005
vt 0.8528375 0.6249999
vt 0.8528064 0.5833332
vt 0.875 0.5833333
vt 0.8528064 0.5833332
vt 0.8469552 0.5
vt 0.875 0.5
vt 0.8424875 0.5789853
vt 0.8424875 0.5789853
vt 0.8469552 0.4999999
vt 0.8528375 0.6249999
vt 0.8528686 0.6666666
vt 0.8528375 0.6249999
vt 0.8528064 0.5833332
vt 0.8528064 0.5833331
vt 0.8424875 0.5789853
vt 0.8424876 0.5789853
vt 0.7820628 0.5
vt 0.834336 0.5833332
vt 0.7820628 0.5833333
vt 0.834336 0.5833332
vt 0.766124 0.5
vt 0.7820628 0.5833333
vt 0.7661242 0.5833333
vt 0.75 0.5
vt 0.7500001 0.5833333
vt 0.7820629 0.6249999
vt 0.7820628 0.5833333
vt 0.7661242 0.6250001
vt 0.7500001 0.6250004
vt 0.7820629 0.6666666
vt 0.7820629 0.6249999
vt 0.7661241 0.6666666
vt 0.7820629 0.75
vt 0.7820629 0.75
vt 0.7661241 0.75
vt 0.7500001 0.6666666
vt 0.75 0.75
vt 0.75 0.6458335
vt 0.75 0.75
vt 0.75 0.6666667
vt 0.75 0.75
vt 0.75 0.6666666
vt 0.7499999 0.7499999
vt 0.7820629 0.7499999
vt 0.7820628 0.6666666
vt 0.7820629 0.6666666
vt 0.7500001 0.5833334
vt 0.75 0.6666666
vt 0.7500001 0.5833334
vt 0.7499999 0.5
vt 0.75 0.5
vt 0.7500001 0.5833334
vt 0.75 0.5
vt 0.7500001 0.5833334
vt 0.75 0.5
vt 0.7499999 0.7499999
vt 0.75 0.6666666
vt 0.75 0.75
vt 0.75 0.6666666
vt 0.7500001 0.5833334
vt 0.7500001 0.5833334
vt 0.75 0.75
vt 0.75 0.6666666
vt 0.7500001 0.5833334
vt 0.75 0.75
vt 0.7500001 0.5833334
vt 0.75 0.6666666
vt 0.75 0.75
vt 0.75 0.5833333
vt 0.75 0.5
vt 0.75 0.5
vt 0.7322537 0.5
vt 0.7322537 0.5833333
vt 0.6898333 0.5
vt 0.7322537 0.6666666
vt 0.7322537 0.75
vt 0.6898333 0.5833333
vt 0.6792282 0.5
vt 0.6898333 0.6666666
vt 0.6898333 0.75
vt 0.6792283 0.5833333
vt 0.6686231 0.5
vt 0.6792282 0.6666666
vt 0.6792282 0.75
vt 0.6686231 0.6666666
vt 0.6686231 0.75
vt 0.625 0.6666666
vt 0.625 0.6666666
vt 0.625 0.5833333
vt 0.6250001 0.5833333
vt 0.625 0.5
vt 0.625 0.5
vt 0.625 0.477587
vt 0.625 0.4775871
vt 0.625 0.4669819
vt 0.6250001 0.466982
vt 0.625 0.4563769
vt 0.6250001 0.6666667
vt 0.625 0.5833333
vt 0.6250001 0.6666667
vt 0.625 0.7499999
vt 0.625 0.6666666
vt 0.625 0.75
vt 0.647413 0.75
vt 0.6474129 0.6666666
vt 0.625 0.5833333
vt 0.658018 0.75
vt 0.647413 0.5833333
vt 0.625 0.5
vt 0.647413 0.5
vt 0.658018 0.6666666
vt 0.6686231 0.75
vt 0.6686231 0.6666666
vt 0.6580181 0.5833333
vt 0.658018 0.5
vt 0.6686232 0.5833333
vt 0.6686231 0.5
vt 0.75 0.5
vt 0.75 0.5
vt 0.7500001 0.5833333
vt 0.7500001 0.5833334
vt 0.75 0.5
vt 0.75 0.6458335
vt 0.7500001 0.6250004
vt 0.625 0.375
vt 0.625 0.3927464
vt 0.625 0.375
vt 0.625 0.3927464
vt 0.625 0.375
vt 0.6250001 0.3927464
vt 0.6249999 0.4351667
vt 0.625 0.4351667
vt 0.625 0.4351667
vt 0.6250001 0.4457718
vt 0.625 0.4457718
vt 0.625 0.4563769
vt 0.625 0.4563769
vt 0.625 0.8749999
vt 0.625 0.875
vt 0.625 0.8572536
vt 0.6250001 0.8572537
vt 0.625 0.8148333
vt 0.6249999 0.8148332
vt 0.75 0.5
vt 0.7499999 0.5
vt 0.7500001 0.5833334
vt 0.7500001 0.5833334
vt 0.7500001 0.5833334
vt 0.75 0.6666666
vt 0.75 0.6458335
vt 0.625 0.4351667
vt 0.625 0.3927464
vt 0.6249999 0.3927464
vt 0.625 0.4351667
vt 0.625 0.4457719
vt 0.625 0.4457718
vt 0.625 0.4351667
vt 0.6250001 0.4457719
vt 0.6250001 0.4351667
vt 0.6249999 0.3927464
vt 0.625 0.3927464
vt 0.625 0.375
vt 0.625 0.375
vt 0.625 0.3927464
vt 0.6249999 0.375
vt 0.6249999 0.3927464
vt 0.625 0.375
vt 0.625 0.4351667
vt 0.625 0.4457719
vt 0.6249999 0.4457718
vt 0.625 0.4510743
vt 0.625 0.4510744
vt 0.6250001 0.4563769
vt 0.6249999 0.4457718
vt 0.6249999 0.4351667
vt 0.6249999 0.4457718
vt 0.6250001 0.4563769
vt 0.6249999 0.4563769
vt 0.625 0.466982
vt 0.6250001 0.466982
vt 0.6250001 0.4775871
vt 0.6249999 0.4669819
vt 0.625 0.477587
vt 0.6249999 0.477587
vt 0.625 0.5
vt 0.625 0.5000001
vt 0.6250001 0.4775871
vt 0.625 0.5833333
vt 0.625 0.375
vt 0.6250001 0.3927464
vt 0.625 0.375
vt 0.6249999 0.3927464
vt 0.625 0.4351667
vt 0.6249999 0.4351667
vt 0.625 0.8572536
vt 0.6249999 0.8148332
vt 0.625 0.8148333
vt 0.6250001 0.8572537
vt 0.625 0.875
vt 0.625 0.8749999
vt 0.625 0.8572536
vt 0.625 0.8572536
vt 0.6250001 0.8572537
vt 0.625 0.8148333
vt 0.625 0.8148333
vt 0.6249999 0.8042282
vt 0.625 0.8148333
vt 0.6250001 0.8572537
vt 0.625 0.8148333
vt 0.6249999 0.8148332
vt 0.625 0.8042281
vt 0.8528063 0.5833331
vt 0.8528064 0.5833332
vt 0.8528375 0.6249999
vt 0.8528374 0.6249999
vt 0.8528686 0.6666666
vt 0.8528686 0.6666666
vt 0.8528374 0.6249999
vt 0.8528686 0.6666666
vt 0.8528064 0.5833332
vt 0.8528374 0.6249999
vt 0.8528063 0.5833331
vt 0.8528686 0.6666666
vt 0.8469553 0.75
vt 0.8469552 0.7499999
vt 0.8528686 0.6666666
vt 0.8469552 0.7499999
vt 0.8469553 0.75
vt 0.8528686 0.6666666
vt 0.8469553 0.75
vt 0.8528686 0.6666666
vt 0.8469553 0.75
vt 0.8528375 0.6249999
vt 0.8528686 0.6666666
vt 0.8528374 0.6249999
vt 0.8528064 0.5833331
vt 0.8528064 0.5833332
vt 0.8424876 0.5789853
vt 0.8424876 0.5789853
vt 0.6249999 0.9719552
vt 0.625 0.9719553
vt 0.625 0.9070629
vt 0.6250001 0.8148333
vt 0.6249999 0.8148332
vt 0.625 0.8042283
vt 0.625 0.8572536
vt 0.6249999 0.8148332
vt 0.625 0.8572536
vt 0.6250001 0.4457719
vt 0.6249999 0.4563769
vt 0.6249999 0.6250001
vt 0.625 0.6250001
vt 0.8424876 0.5789853
vt 0.8424875 0.5789853
vt 0.8528064 0.5833332
vt 0.8528063 0.5833331
vt 0.8424876 0.5789853
vt 0.8528063 0.5833331
vt 0.8528064 0.5833332
vt 0.834247 0.6666666
vt 0.8330963 0.7458006
vt 0.8404598 0.6775593
vt 0.8564376 0.662123
vt 0.8469553 0.75
vt 0.7820629 0.6969255
vt 0.834247 0.6666666
vt 0.7939345 0.6666666
vt 0.8330963 0.7458006
vt 0.8469552 0.75
vt 0.7820629 0.75
vt 0.7820629 0.6494067
vt 0.7820629 0.6646392
vt 0.7820629 0.6698674
vt 0.7820629 0.6666666
vt 0.7820628 0.7499999
vt 0.7820629 0.6666666
vt 0.7820629 0.6494067
vt 0.7820629 0.6263466
vt 0.7820629 0.6366773
vt 0.7820629 0.75
vt 0.7820628 0.7499999
vt 0.7820629 0.6666666
vt 0.7820629 0.6666666
vt 0.7820629 0.6249999
vt 0.7820629 0.6249999
vt 0.7820628 0.5833333
vt 0.7820629 0.6666666
vt 0.7820629 0.5833333
vt 0.834336 0.5833332
vt 0.834336 0.5833332
vt 0.7820629 0.6249999
vt 0.7820629 0.5833333
vt 0.834336 0.5833332
vt 0.7820629 0.6249999
vt 0.7820628 0.6666666
vt 0.7820629 0.7499999
vt 0.7820629 0.75
vt 0.7820629 0.5833333
vt 0.834336 0.5833332
vt 0.834336 0.5833331
vt 0.7820629 0.6666666
vt 0.7820628 0.6666666
vt 0.7820629 0.6249999
vt 0.7820628 0.5833333
vt 0.834336 0.5833331
vt 0.834336 0.5833332
vt 0.7820629 0.6366773
vt 0.7820629 0.6249999
vt 0.7820629 0.6494067
vt 0.7820629 0.6119232
vt 0.7820629 0.6249999
vt 0.7820628 0.5833333
vt 0.8045935 0.605723
vt 0.834336 0.5833332
vt 0.8342915 0.6250002
vt 0.7940312 0.625
vt 0.8344738 0.6101111
vt 0.8528064 0.5833332
vt 0.8417723 0.6283648
vt 0.8528375 0.6249999
vt 0.840413 0.6736307
vt 0.8528686 0.6666666
vt 0.834247 0.6666666
vt 0.7939345 0.6666666
vt 0.7820629 0.6646392
vt 0.7820629 0.6263466
vt 0.6250001 0.7500001
vt 0.625 0.6666666
vt 0.625 0.75
vt 0.625 0.772413
vt 0.6249999 0.7724129
vt 0.6250001 0.7830181
vt 0.6250001 0.7830183
vt 0.75 0.5
vt 0.7500001 0.5833334
usemtl MV_RockDesert_Cliff
f 1/1/1 3/3/3 2/2/2
f 4/4/4 6/6/6 5/5/5
f 7/7/7 9/9/9 8/8/8
f 10/10/10 9/9/9 7/7/7
f 11/11/11 9/9/9 10/10/10
f 11/11/11 12/12/12 9/9/9
f 10/10/10 7/7/7 13/13/13
f 13/13/13 7/7/7 14/14/14
f 15/15/15 12/12/12 11/11/11
f 15/15/15 16/16/16 12/12/12
f 13/13/13 14/14/14 17/17/17
f 17/17/17 14/14/14 18/18/18
f 19/19/19 16/16/16 15/15/15
f 19/19/19 20/20/20 16/16/16
f 21/21/21 20/20/20 19/19/19
f 21/21/21 22/22/22 20/20/20
f 23/23/23 22/22/22 21/21/21
f 23/23/23 24/24/24 22/22/22
f 23/23/23 25/25/25 24/24/24
f 26/26/26 25/25/25 23/23/23
f 26/26/26 27/27/27 25/25/25
f 28/28/28 27/27/27 26/26/26
f 28/28/28 29/29/29 27/27/27
f 30/30/30 28/28/28 26/26/26
f 30/30/30 26/26/26 31/31/31
f 31/31/31 26/26/26 23/23/23
f 32/32/32 30/30/30 31/31/31
f 33/33/33 23/23/23 21/21/21
f 31/31/31 23/23/23 33/33/33
f 32/32/32 31/31/31 34/34/34
f 34/34/34 31/31/31 33/33/33
f 35/35/35 32/32/32 34/34/34
f 33/33/33 21/21/21 36/36/36
f 36/36/36 21/21/21 19/19/19
f 35/35/35 34/34/34 37/37/37
f 38/38/38 35/35/35 37/37/37
f 38/38/38 37/37/37 39/39/39
f 34/34/34 33/33/33 40/40/40
f 37/37/37 34/34/34 40/40/40
f 40/40/40 33/33/33 36/36/36
f 39/39/39 37/37/37 41/41/41
f 37/37/37 40/40/40 41/41/41
f 39/39/39 41/41/41 42/42/42
f 36/36/36 19/19/19 43/43/43
f 43/43/43 19/19/19 15/15/15
f 40/40/40 36/36/36 44/44/44
f 41/41/41 40/40/40 44/44/44
f 44/44/44 36/36/36 43/43/43
f 42/42/42 41/41/41 45/45/45
f 41/41/41 44/44/44 45/45/45
f 42/42/42 45/45/45 46/46/46
f 43/43/43 15/15/15 47/47/47
f 47/47/47 15/15/15 11/11/11
f 44/44/44 43/43/43 48/48/48
f 45/45/45 44/44/44 48/48/48
f 48/48/48 43/43/43 47/47/47
f 46/46/46 45/45/45 49/49/49
f 45/45/45 48/48/48 49/49/49
f 46/46/46 49/49/49 50/50/50
f 47/47/47 11/11/11 51/51/51
f 51/51/51 11/11/11 10/10/10
f 48/48/48 47/47/47 52/52/52
f 49/49/49 48/48/48 52/52/52
f 52/52/52 47/47/47 51/51/51
f 50/50/50 49/49/49 53/53/53
f 49/49/49 52/52/52 53/53/53
f 50/50/50 53/53/53 54/54/54
f 51/51/51 10/10/10 55/55/55
f 55/55/55 10/10/10 13/13/13
f 52/52/52 51/51/51 56/56/56
f 53/53/53 52/52/52 56/56/56
f 56/56/56 51/51/51 55/55/55
f 54/54/54 53/53/53 57/57/57
f 53/53/53 56/56/56 57/57/57
f 54/54/54 57/57/57 58/58/58
f 55/55/55 13/13/13 59/59/59
f 59/59/59 13/13/13 17/17/17
f 56/56/56 55/55/55 60/60/60
f 57/57/57 56/56/56 60/60/60
f 60/60/60 55/55/55 59/59/59
f 58/58/58 57/57/57 61/61/61
f 57/57/57 60/60/60 61/61/61
f 58/58/58 61/61/61 62/62/62
f 60/60/60 59/59/59 63/63/63
f 61/61/61 60/60/60 63/63/63
f 62/62/62 61/61/61 64/64/64
f 61/61/61 63/63/63 64/64/64
f 62/62/62 64/64/64 65/65/65
f 59/59/59 17/17/17 66/66/66
f 63/63/63 59/59/59 66/66/66
f 65/65/65 64/64/64 67/67/67
f 65/65/65 67/67/67 68/68/68
f 64/64/64 63/63/63 69/69/69
f 63/63/63 66/66/66 69/69/69
f 64/64/64 69/69/69 67/67/67
f 66/66/66 17/17/17 70/70/70
f 17/17/17 18/18/18 70/70/70
f 68/68/68 67/67/67 71/71/71
f 68/68/68 71/71/71 72/72/72
f 67/67/67 69/69/69 73/73/73
f 67/67/67 73/73/73 71/71/71
f 69/69/69 66/66/66 74/74/74
f 66/66/66 70/70/70 74/74/74
f 69/69/69 74/74/74 73/73/73
f 72/72/72 71/71/71 75/75/75
f 72/72/72 75/75/75 76/76/76
f 71/71/71 73/73/73 77/77/77
f 71/71/71 77/77/77 75/75/75
f 73/73/73 74/74/74 78/78/78
f 73/73/73 78/78/78 77/77/77
f 76/76/76 75/75/75 79/79/79
f 76/76/76 79/79/79 80/80/80
f 75/75/75 77/77/77 81/81/81
f 75/75/75 81/81/81 79/79/79
f 80/80/80 79/79/79 82/82/82
f 80/80/80 82/82/82 83/83/83
f 84/84/84 74/74/74 70/70/70
f 74/74/74 84/84/84 78/78/78
f 77/77/77 78/78/78 85/85/85
f 77/77/77 85/85/85 81/81/81
f 79/79/79 81/81/81 86/86/86
f 79/79/79 86/86/86 82/82/82
f 83/83/83 82/82/82 87/87/87
f 83/83/83 87/87/87 88/88/88
f 78/78/78 84/84/84 89/89/89
f 78/78/78 89/89/89 85/85/85
f 84/84/84 70/70/70 90/90/90
f 89/89/89 84/84/84 90/90/90
f 81/81/81 85/85/85 91/91/91
f 81/81/81 91/91/91 86/86/86
f 82/82/82 86/86/86 92/92/92
f 82/82/82 92/92/92 87/87/87
f 70/70/70 93/93/93 90/90/90
f 70/70/70 18/18/18 93/93/93
f 90/90/90 93/93/93 94/94/94
f 85/85/85 89/89/89 95/95/95
f 85/85/85 95/95/95 91/91/91
f 89/89/89 90/90/90 96/96/96
f 90/90/90 94/94/94 96/96/96
f 95/95/95 89/89/89 96/96/96
f 86/86/86 91/91/91 97/97/97
f 86/86/86 97/97/97 92/92/92
f 91/91/91 95/95/95 98/98/98
f 91/91/91 98/98/98 97/97/97
f 95/95/95 96/96/96 99/99/99
f 98/98/98 95/95/95 99/99/99
f 96/96/96 94/94/94 100/100/100
f 96/96/96 100/100/100 99/99/99
f 92/92/92 97/97/97 101/101/101
f 97/97/97 98/98/98 102/102/102
f 97/97/97 102/102/102 101/101/101
f 98/98/98 99/99/99 103/103/103
f 102/102/102 98/98/98 103/103/103
f 99/99/99 104/104/104 103/103/103
f 99/99/99 100/100/100 104/104/104
f 103/103/103 104/104/104 105/105/105
f 103/103/103 105/105/105 102/102/102
f 102/102/102 105/105/105 106/106/106
f 104/104/104 100/100/100 107/107/107
f 104/104/104 107/107/107 108/108/108
f 100/100/100 94/94/94 109/109/109
f 100/100/100 109/109/109 107/107/107
f 109/109/109 94/94/94 110/110/110
f 109/109/109 110/110/110 111/111/111
f 112/112/112 109/109/109 111/111/111
f 107/107/107 109/109/109 112/112/112
f 112/112/112 111/111/111 113/113/113
f 108/108/108 107/107/107 114/114/114
f 107/107/107 112/112/112 114/114/114
f 108/108/108 114/114/114 115/115/115
f 116/116/116 108/108/108 115/115/115
f 112/112/112 113/113/113 117/117/117
f 112/112/112 117/117/117 118/118/118
f 117/117/117 113/113/113 119/119/119
f 116/116/116 115/115/115 120/120/120
f 121/121/121 116/116/116 120/120/120
f 120/120/120 115/115/115 122/122/122
f 120/120/120 122/122/122 123/123/123
f 118/118/118 117/117/117 124/124/124
f 118/118/118 124/124/124 125/125/125
f 117/117/117 119/119/119 126/126/126
f 126/126/126 119/119/119 127/127/127
f 126/126/126 127/127/127 128/128/128
f 129/129/129 126/126/126 128/128/128
f 130/130/130 124/124/124 117/117/117
f 130/130/130 117/117/117 126/126/126
f 129/129/129 130/130/130 126/126/126
f 131/131/131 124/124/124 130/130/130
f 132/132/132 130/130/130 129/129/129
f 131/131/131 130/130/130 132/132/132
f 132/132/132 129/129/129 133/133/133
f 134/134/134 120/120/120 123/123/123
f 121/121/121 120/120/120 134/134/134
f 133/133/133 135/135/135 132/132/132
f 132/132/132 135/135/135 136/136/136
f 132/132/132 136/136/136 137/137/137
f 133/133/133 138/138/138 135/135/135
f 139/139/139 138/138/138 133/133/133
f 139/139/139 140/140/140 138/138/138
f 140/140/140 141/141/141 138/138/138
f 142/142/142 121/121/121 134/134/134
f 142/142/142 134/134/134 143/143/143
f 134/134/134 123/123/123 144/144/144
f 145/145/145 142/142/142 143/143/143
f 145/145/145 143/143/143 146/146/146
f 147/147/147 121/121/121 142/142/142
f 147/147/147 106/106/106 121/121/121
f 144/144/144 123/123/123 148/148/148
f 144/144/144 148/148/148 149/149/149
f 150/150/150 144/144/144 149/149/149
f 150/150/150 149/149/149 151/151/151
f 152/152/152 150/150/150 151/151/151
f 153/153/153 147/147/147 142/142/142
f 153/153/153 142/142/142 154/154/154
f 155/155/155 153/153/153 154/154/154
f 155/155/155 154/154/154 156/156/156
f 152/152/152 151/151/151 157/157/157
f 158/158/158 152/152/152 157/157/157
f 158/158/158 157/157/157 159/159/159
f 157/157/157 151/151/151 160/160/160
f 157/157/157 160/160/160 161/161/161
f 159/159/159 157/157/157 161/161/161
f 161/161/161 160/160/160 162/162/162
f 159/159/159 161/161/161 163/163/163
f 161/161/161 162/162/162 164/164/164
f 165/165/165 161/161/161 164/164/164
f 165/165/165 164/164/164 166/166/166
f 167/167/167 165/165/165 166/166/166
f 167/167/167 166/166/166 168/168/168
f 167/167/167 168/168/168 169/169/169
f 170/170/170 165/165/165 167/167/167
f 170/170/170 171/171/171 165/165/165
f 167/167/167 169/169/169 172/172/172
f 173/173/173 172/172/172 169/169/169
f 172/172/172 174/174/174 167/167/167
f 175/175/175 159/159/159 174/174/174
f 175/175/175 176/176/176 159/159/159
f 173/173/173 177/177/177 172/172/172
f 178/178/178 177/177/177 173/173/173
f 172/172/172 179/179/179 174/174/174
f 172/172/172 177/177/177 180/180/180
f 172/172/172 180/180/180 179/179/179
f 178/178/178 181/181/181 177/177/177
f 182/182/182 177/177/177 181/181/181
f 182/182/182 180/180/180 177/177/177
f 183/183/183 182/182/182 181/181/181
f 183/183/183 181/181/181 184/184/184
f 185/185/185 183/183/183 184/184/184
f 185/185/185 184/184/184 186/186/186
f 187/187/187 185/185/185 186/186/186
f 187/187/187 186/186/186 188/188/188
f 189/189/189 187/187/187 188/188/188
f 189/189/189 188/188/188 190/190/190
f 191/191/191 174/174/174 179/179/179
f 192/192/192 179/179/179 180/180/180
f 191/191/191 179/179/179 192/192/192
f 193/193/193 180/180/180 182/182/182
f 182/182/182 194/194/194 193/193/193
f 182/182/182 195/195/195 194/194/194
f 195/195/195 196/196/196 194/194/194
f 195/195/195 197/197/197 196/196/196
f 193/193/193 198/198/198 180/180/180
f 192/192/192 180/180/180 198/198/198
f 193/193/193 199/199/199 198/198/198
f 193/193/193 200/200/200 199/199/199
f 192/192/192 198/198/198 201/201/201
f 192/192/192 201/201/201 202/202/202
f 203/203/203 192/192/192 202/202/202
f 203/203/203 191/191/191 192/192/192
f 204/204/204 191/191/191 203/203/203
f 204/204/204 203/203/203 205/205/205
f 206/206/206 204/204/204 205/205/205
f 206/206/206 205/205/205 207/207/207
f 208/208/208 191/191/191 204/204/204
f 208/208/208 174/174/174 191/191/191
f 209/209/209 174/174/174 208/208/208
f 209/209/209 175/175/175 174/174/174
f 210/210/210 209/209/209 208/208/208
f 210/210/210 208/208/208 211/211/211
f 212/212/212 175/175/175 209/209/209
f 212/212/212 213/213/213 175/175/175
f 139/139/139 213/213/213 212/212/212
f 212/212/212 214/214/214 139/139/139
f 215/215/215 139/139/139 214/214/214
f 216/216/216 215/215/215 214/214/214
f 215/215/215 140/140/140 139/139/139
f 216/216/216 214/214/214 217/217/217
f 218/218/218 216/216/216 217/217/217
f 219/219/219 216/216/216 218/218/218
f 219/219/219 220/220/220 216/216/216
f 218/218/218 217/217/217 221/221/221
f 222/222/222 220/220/220 219/219/219
f 221/221/221 217/217/217 223/223/223
f 221/221/221 223/223/223 224/224/224
f 225/225/225 220/220/220 222/222/222
f 225/225/225 222/222/222 226/226/226
f 226/226/226 222/222/222 227/227/227
f 228/228/228 220/220/220 225/225/225
f 228/228/228 229/229/229 220/220/220
f 226/226/226 227/227/227 230/230/230
f 230/230/230 227/227/227 231/231/231
f 232/232/232 229/229/229 228/228/228
f 232/232/232 233/233/233 229/229/229
f 234/234/234 228/228/228 225/225/225
f 235/235/235 225/225/225 226/226/226
f 234/234/234 225/225/225 235/235/235
f 236/236/236 226/226/226 230/230/230
f 235/235/235 226/226/226 236/236/236
f 237/237/237 232/232/232 228/228/228
f 237/237/237 228/228/228 234/234/234
f 230/230/230 231/231/231 238/238/238
f 236/236/236 230/230/230 239/239/239
f 239/239/239 230/230/230 238/238/238
f 238/238/238 231/231/231 240/240/240
f 240/240/240 231/231/231 241/241/241
f 240/240/240 241/241/241 242/242/242
f 242/242/242 241/241/241 243/243/243
f 242/242/242 243/243/243 244/244/244
f 244/244/244 243/243/243 245/245/245
f 244/244/244 245/245/245 246/246/246
f 246/246/246 245/245/245 247/247/247
f 246/246/246 247/247/247 248/248/248
f 238/238/238 240/240/240 249/249/249
f 249/249/249 240/240/240 250/250/250
f 249/249/249 250/250/250 251/251/251
f 252/252/252 238/238/238 249/249/249
f 239/239/239 238/238/238 252/252/252
f 253/253/253 249/249/249 251/251/251
f 252/252/252 249/249/249 253/253/253
f 253/253/253 251/251/251 254/254/254
f 255/255/255 253/253/253 254/254/254
f 255/255/255 254/254/254 256/256/256
f 257/257/257 252/252/252 253/253/253
f 257/257/257 253/253/253 255/255/255
f 258/258/258 239/239/239 252/252/252
f 258/258/258 252/252/252 257/257/257
f 259/259/259 255/255/255 256/256/256
f 259/259/259 256/256/256 260/260/260
f 261/261/261 257/257/257 255/255/255
f 261/261/261 255/255/255 259/259/259
f 262/262/262 259/259/259 260/260/260
f 262/262/262 260/260/260 263/263/263
f 264/264/264 259/259/259 262/262/262
f 264/264/264 261/261/261 259/259/259
f 265/265/265 261/261/261 264/264/264
f 266/266/266 257/257/257 261/261/261
f 265/265/265 266/266/266 261/261/261
f 266/266/266 258/258/258 257/257/257
f 267/267/267 266/266/266 265/265/265
f 267/267/267 268/268/268 266/266/266
f 268/268/268 258/258/258 266/266/266
f 269/269/269 268/268/268 267/267/267
f 268/268/268 270/270/270 258/258/258
f 270/270/270 239/239/239 258/258/258
f 270/270/270 236/236/236 239/239/239
f 269/269/269 271/271/271 268/268/268
f 271/271/271 270/270/270 268/268/268
f 272/272/272 271/271/271 269/269/269
f 273/273/273 236/236/236 270/270/270
f 271/271/271 273/273/273 270/270/270
f 273/273/273 235/235/235 236/236/236
f 272/272/272 274/274/274 271/271/271
f 274/274/274 273/273/273 271/271/271
f 275/275/275 274/274/274 272/272/272
f 276/276/276 235/235/235 273/273/273
f 274/274/274 276/276/276 273/273/273
f 276/276/276 234/234/234 235/235/235
f 275/275/275 277/277/277 274/274/274
f 277/277/277 276/276/276 274/274/274
f 278/278/278 277/277/277 275/275/275
f 279/279/279 234/234/234 276/276/276
f 277/277/277 279/279/279 276/276/276
f 279/279/279 237/237/237 234/234/234
f 278/278/278 280/280/280 277/277/277
f 280/280/280 279/279/279 277/277/277
f 281/281/281 280/280/280 278/278/278
f 282/282/282 237/237/237 279/279/279
f 280/280/280 282/282/282 279/279/279
f 281/281/281 283/283/283 280/280/280
f 283/283/283 282/282/282 280/280/280
f 284/284/284 283/283/283 281/281/281
f 282/282/282 285/285/285 237/237/237
f 285/285/285 232/232/232 237/237/237
f 284/284/284 286/286/286 283/283/283
f 287/287/287 286/286/286 284/284/284
f 283/283/283 288/288/288 282/282/282
f 288/288/288 285/285/285 282/282/282
f 286/286/286 288/288/288 283/283/283
f 285/285/285 289/289/289 232/232/232
f 289/289/289 233/233/233 232/232/232
f 288/288/288 290/290/290 285/285/285
f 290/290/290 289/289/289 285/285/285
f 286/286/286 291/291/291 288/288/288
f 291/291/291 290/290/290 288/288/288
f 287/287/287 292/292/292 286/286/286
f 292/292/292 291/291/291 286/286/286
f 289/289/289 293/293/293 233/233/233
f 290/290/290 294/294/294 289/289/289
f 294/294/294 293/293/293 289/289/289
f 291/291/291 295/295/295 290/290/290
f 295/295/295 294/294/294 290/290/290
f 293/293/293 141/141/141 233/233/233
f 140/140/140 233/233/233 141/141/141
f 293/293/293 296/296/296 141/141/141
f 294/294/294 155/155/155 293/293/293
f 155/155/155 296/296/296 293/293/293
f 292/292/292 297/297/297 291/291/291
f 297/297/297 295/295/295 291/291/291
f 295/295/295 298/298/298 294/294/294
f 298/298/298 155/155/155 294/294/294
f 297/297/297 299/299/299 295/295/295
f 299/299/299 298/298/298 295/295/295
f 300/300/300 297/297/297 292/292/292
f 301/301/301 299/299/299 297/297/297
f 300/300/300 301/301/301 297/297/297
f 302/302/302 300/300/300 292/292/292
f 302/302/302 292/292/292 287/287/287
f 303/303/303 302/302/302 287/287/287
f 303/303/303 287/287/287 304/304/304
f 305/305/305 303/303/303 304/304/304
f 305/305/305 304/304/304 306/306/306
f 307/307/307 305/305/305 306/306/306
f 307/307/307 306/306/306 308/308/308
f 309/309/309 307/307/307 308/308/308
f 309/309/309 308/308/308 310/310/310
f 311/311/311 309/309/309 310/310/310
f 311/311/311 310/310/310 312/312/312
f 313/313/313 311/311/311 312/312/312
f 313/313/313 312/312/312 314/314/314
f 315/315/315 313/313/313 314/314/314
f 315/315/315 314/314/314 316/316/316
f 317/317/317 315/315/315 316/316/316
f 317/317/317 316/316/316 318/318/318
f 319/319/319 317/317/317 318/318/318
f 319/319/319 318/318/318 320/320/320
f 321/321/321 319/319/319 320/320/320
f 321/321/321 320/320/320 322/322/322
f 323/323/323 321/321/321 322/322/322
f 323/323/323 322/322/322 324/324/324
f 325/325/325 321/321/321 323/323/323
f 325/325/325 326/326/326 321/321/321
f 326/326/326 319/319/319 321/321/321
f 327/327/327 326/326/326 325/325/325
f 327/327/327 328/328/328 326/326/326
f 326/326/326 329/329/329 319/319/319
f 328/328/328 329/329/329 326/326/326
f 329/329/329 317/317/317 319/319/319
f 328/328/328 330/330/330 329/329/329
f 329/329/329 331/331/331 317/317/317
f 330/330/330 331/331/331 329/329/329
f 331/331/331 315/315/315 317/317/317
f 330/330/330 332/332/332 331/331/331
f 331/331/331 333/333/333 315/315/315
f 332/332/332 333/333/333 331/331/331
f 333/333/333 313/313/313 315/315/315
f 332/332/332 334/334/334 333/333/333
f 333/333/333 335/335/335 313/313/313
f 334/334/334 335/335/335 333/333/333
f 335/335/335 311/311/311 313/313/313
f 334/334/334 336/336/336 335/335/335
f 335/335/335 337/337/337 311/311/311
f 336/336/336 337/337/337 335/335/335
f 337/337/337 309/309/309 311/311/311
f 336/336/336 338/338/338 337/337/337
f 337/337/337 339/339/339 309/309/309
f 338/338/338 339/339/339 337/337/337
f 339/339/339 307/307/307 309/309/309
f 338/338/338 340/340/340 339/339/339
f 339/339/339 341/341/341 307/307/307
f 340/340/340 341/341/341 339/339/339
f 341/341/341 305/305/305 307/307/307
f 340/340/340 342/342/342 341/341/341
f 341/341/341 343/343/343 305/305/305
f 342/342/342 343/343/343 341/341/341
f 343/343/343 303/303/303 305/305/305
f 342/342/342 344/344/344 343/343/343
f 343/343/343 345/345/345 303/303/303
f 344/344/344 345/345/345 343/343/343
f 345/345/345 302/302/302 303/303/303
f 344/344/344 346/346/346 345/345/345
f 345/345/345 347/347/347 302/302/302
f 346/346/346 347/347/347 345/345/345
f 347/347/347 300/300/300 302/302/302
f 346/346/346 88/88/88 347/347/347
f 347/347/347 348/348/348 300/300/300
f 88/88/88 348/348/348 347/347/347
f 88/88/88 87/87/87 348/348/348
f 348/348/348 301/301/301 300/300/300
f 87/87/87 349/349/349 348/348/348
f 348/348/348 349/349/349 301/301/301
f 87/87/87 92/92/92 349/349/349
f 92/92/92 101/101/101 349/349/349
f 349/349/349 350/350/350 301/301/301
f 349/349/349 101/101/101 350/350/350
f 301/301/301 350/350/350 299/299/299
f 101/101/101 351/351/351 350/350/350
f 101/101/101 102/102/102 351/351/351
f 102/102/102 106/106/106 351/351/351
f 350/350/350 352/352/352 299/299/299
f 350/350/350 351/351/351 352/352/352
f 299/299/299 352/352/352 298/298/298
f 351/351/351 106/106/106 147/147/147
f 351/351/351 147/147/147 352/352/352
f 352/352/352 147/147/147 153/153/153
f 352/352/352 153/153/153 298/298/298
f 298/298/298 153/153/153 155/155/155
f 106/106/106 354/354/354 353/353/353
f 106/106/106 355/355/355 354/354/354
f 356/356/356 357/357/357 354/354/354
f 356/356/356 358/358/358 357/357/357
f 155/155/155 360/360/360 359/359/359
f 155/155/155 156/156/156 360/360/360
f 156/156/156 361/361/361 360/360/360
f 156/156/156 362/362/362 361/361/361
f 155/155/155 359/359/359 296/296/296
f 156/156/156 363/363/363 362/362/362
f 156/156/156 364/364/364 363/363/363
f 365/365/365 296/296/296 359/359/359
f 365/365/365 359/359/359 366/366/366
f 367/367/367 296/296/296 365/365/365
f 367/367/367 368/368/368 296/296/296
f 369/369/369 368/368/368 367/367/367
f 369/369/369 367/367/367 370/370/370
f 370/370/370 367/367/367 371/371/371
f 370/370/370 371/371/371 372/372/372
f 373/373/373 366/366/366 359/359/359
f 373/373/373 374/374/374 366/366/366
f 375/375/375 374/374/374 373/373/373
f 375/375/375 376/376/376 374/374/374
f 376/376/376 377/377/377 374/374/374
f 376/376/376 378/378/378 377/377/377
f 374/374/374 377/377/377 379/379/379
f 374/374/374 379/379/379 366/366/366
f 380/380/380 366/366/366 379/379/379
f 380/380/380 381/381/381 366/366/366
f 94/94/94 380/380/380 379/379/379
f 94/94/94 382/382/382 380/380/380
f 382/382/382 383/383/383 380/380/380
f 382/382/382 18/18/18 383/383/383
f 18/18/18 385/385/385 384/384/384
f 18/18/18 386/386/386 385/385/385
f 175/175/175 362/362/362 158/158/158
f 362/362/362 388/388/388 387/387/387
f 362/362/362 389/389/389 388/388/388
f 390/390/390 391/391/391 388/388/388
f 390/390/390 392/392/392 391/391/391
f 391/391/391 392/392/392 139/139/139
f 391/391/391 139/139/139 393/393/393
f 394/394/394 396/396/396 395/395/395
f 394/394/394 397/397/397 396/396/396
f 397/397/397 394/394/394 398/398/398
f 397/397/397 398/398/398 399/399/399
f 400/400/400 396/396/396 401/401/401
f 400/400/400 401/401/401 399/399/399
f 400/400/400 402/402/402 396/396/396
f 400/400/400 399/399/399 403/403/403
f 404/404/404 402/402/402 400/400/400
f 404/404/404 400/400/400 403/403/403
f 404/404/404 405/405/405 402/402/402
f 404/404/404 403/403/403 406/406/406
f 407/407/407 405/405/405 404/404/404
f 407/407/407 408/408/408 405/405/405
f 409/409/409 404/404/404 406/406/406
f 409/409/409 406/406/406 410/410/410
f 404/404/404 409/409/409 411/411/411
f 412/412/412 399/399/399 413/413/413
f 412/412/412 413/413/413 414/414/414
f 415/415/415 412/412/412 414/414/414
f 415/415/415 414/414/414 416/416/416
f 417/417/417 415/415/415 416/416/416
f 417/417/417 416/416/416 418/418/418
f 419/419/419 411/411/411 420/420/420
f 419/419/419 420/420/420 421/421/421
f 421/421/421 420/420/420 422/422/422
f 423/423/423 419/419/419 421/421/421
f 421/421/421 422/422/422 424/424/424
f 423/423/423 421/421/421 425/425/425
f 426/426/426 423/423/423 425/425/425
f 426/426/426 425/425/425 427/427/427
f 428/428/428 421/421/421 424/424/424
f 425/425/425 421/421/421 428/428/428
f 428/428/428 424/424/424 429/429/429
f 427/427/427 425/425/425 430/430/430
f 425/425/425 428/428/428 430/430/430
f 427/427/427 430/430/430 431/431/431
f 430/430/430 428/428/428 432/432/432
f 428/428/428 429/429/429 433/433/433
f 431/431/431 430/430/430 434/434/434
f 430/430/430 432/432/432 434/434/434
f 434/434/434 432/432/432 435/435/435
f 435/435/435 432/432/432 436/436/436
f 434/434/434 435/435/435 437/437/437
f 431/431/431 434/434/434 438/438/438
f 438/438/438 434/434/434 437/437/437
f 438/438/438 437/437/437 439/439/439
f 440/440/440 431/431/431 438/438/438
f 438/438/438 439/439/439 441/441/441
f 440/440/440 438/438/438 442/442/442
f 441/441/441 442/442/442 438/438/438
f 441/441/441 443/443/443 442/442/442
f 444/444/444 440/440/440 442/442/442
f 443/443/443 444/444/444 442/442/442
f 443/443/443 445/445/445 444/444/444
f 436/436/436 447/447/447 446/446/446
f 436/436/436 448/448/448 447/447/447
f 449/449/449 444/444/444 450/450/450
f 449/449/449 450/450/450 451/451/451
f 452/452/452 451/451/451 453/453/453
f 452/452/452 454/454/454 451/451/451
f 455/455/455 451/451/451 456/456/456
f 455/455/455 456/456/456 457/457/457
f 458/458/458 459/459/459 444/444/444
f 458/458/458 460/460/460 459/459/459
f 460/460/460 461/461/461 459/459/459
f 462/462/462 459/459/459 461/461/461
f 462/462/462 461/461/461 463/463/463
f 460/460/460 464/464/464 461/461/461
f 464/464/464 465/465/465 461/461/461
f 466/466/466 461/461/461 465/465/465
f 464/464/464 467/467/467 465/465/465
f 466/466/466 465/465/465 468/468/468
f 467/467/467 469/469/469 465/465/465
f 468/468/468 465/465/465 469/469/469
f 467/467/467 470/470/470 469/469/469
f 468/468/468 469/469/469 471/471/471
f 472/472/472 468/468/468 471/471/471
f 472/472/472 471/471/471 473/473/473
f 474/474/474 473/473/473 471/471/471
f 474/474/474 471/471/471 475/475/475
f 475/475/475 471/471/471 469/469/469
f 476/476/476 474/474/474 475/475/475
f 477/477/477 469/469/469 470/470/470
f 475/475/475 469/469/469 477/477/477
f 477/477/477 470/470/470 478/478/478
f 476/476/476 475/475/475 479/479/479
f 479/479/479 475/475/475 477/477/477
f 480/480/480 476/476/476 479/479/479
f 481/481/481 477/477/477 478/478/478
f 479/479/479 477/477/477 481/481/481
f 481/481/481 478/478/478 482/482/482
f 480/480/480 479/479/479 483/483/483
f 483/483/483 479/479/479 481/481/481
f 484/484/484 480/480/480 483/483/483
f 484/484/484 483/483/483 201/201/201
f 485/485/485 481/481/481 482/482/482
f 483/483/483 481/481/481 485/485/485
f 201/201/201 483/483/483 485/485/485
f 485/485/485 482/482/482 486/486/486
f 201/201/201 485/485/485 487/487/487
f 487/487/487 485/485/485 486/486/486
f 487/487/487 486/486/486 488/488/488
f 489/489/489 491/491/491 490/490/490
f 489/489/489 492/492/492 491/491/491
f 492/492/492 493/493/493 491/491/491
f 492/492/492 494/494/494 493/493/493
f 494/494/494 495/495/495 493/493/493
f 494/494/494 496/496/496 495/495/495
f 496/496/496 497/497/497 495/495/495
f 496/496/496 498/498/498 497/497/497
f 498/498/498 178/178/178 497/497/497
f 498/498/498 499/499/499 178/178/178
f 500/500/500 492/492/492 489/489/489
f 500/500/500 501/501/501 492/492/492
f 151/151/151 502/502/502 489/489/489
f 151/151/151 489/489/489 503/503/503
f 503/503/503 489/489/489 504/504/504
f 503/503/503 504/504/504 505/505/505
f 504/504/504 506/506/506 505/505/505
f 504/504/504 507/507/507 506/506/506
f 508/508/508 507/507/507 504/504/504
f 507/507/507 509/509/509 506/506/506
f 508/508/508 510/510/510 507/507/507
f 511/511/511 510/510/510 508/508/508
f 511/511/511 512/512/512 510/510/510
f 507/507/507 513/513/513 509/509/509
f 510/510/510 513/513/513 507/507/507
f 513/513/513 514/514/514 509/509/509
f 513/513/513 515/515/515 514/514/514
f 512/512/512 516/516/516 510/510/510
f 510/510/510 516/516/516 513/513/513
f 516/516/516 515/515/515 513/513/513
f 512/512/512 517/517/517 516/516/516
f 516/516/516 518/518/518 515/515/515
f 517/517/517 518/518/518 516/516/516
f 517/517/517 519/519/519 518/518/518
f 520/520/520 522/522/522 521/521/521
f 521/521/521 522/522/522 523/523/523
f 521/521/521 523/523/523 524/524/524
f 522/522/522 525/525/525 523/523/523
f 522/522/522 526/526/526 525/525/525
f 527/527/527 529/529/529 528/528/528
f 527/527/527 528/528/528 530/530/530
f 531/531/531 527/527/527 530/530/530
f 531/531/531 530/530/530 532/532/532
f 533/533/533 532/532/532 530/530/530
f 533/533/533 530/530/530 534/534/534
f 534/534/534 530/530/530 528/528/528
f 534/534/534 528/528/528 535/535/535
f 536/536/536 534/534/534 535/535/535
f 536/536/536 535/535/535 537/537/537
f 538/538/538 536/536/536 537/537/537
f 538/538/538 537/537/537 539/539/539
f 540/540/540 542/542/542 541/541/541
f 540/540/540 543/543/543 542/542/542
f 543/543/543 544/544/544 542/542/542
f 543/543/543 545/545/545 544/544/544
f 546/546/546 548/548/548 547/547/547
f 546/546/546 549/549/549 548/548/548
f 549/549/549 551/551/551 550/550/550
f 549/549/549 552/552/552 551/551/551
f 553/553/553 555/555/555 554/554/554
f 553/553/553 554/554/554 556/556/556
f 557/557/557 556/556/556 558/558/558
f 557/557/557 559/559/559 556/556/556
f 560/560/560 559/559/559 557/557/557
f 560/560/560 561/561/561 559/559/559
f 561/561/561 562/562/562 559/559/559
f 561/561/561 563/563/563 562/562/562
f 564/564/564 562/562/562 563/563/563
f 564/564/564 565/565/565 562/562/562
f 565/565/565 566/566/566 562/562/562
f 565/565/565 567/567/567 566/566/566
f 567/567/567 568/568/568 566/566/566
f 556/556/556 566/566/566 568/568/568
f 567/567/567 569/569/569 568/568/568
f 556/556/556 568/568/568 570/570/570
f 571/571/571 556/556/556 570/570/570
f 558/558/558 556/556/556 571/571/571
f 557/557/557 558/558/558 131/131/131
f 557/557/557 131/131/131 572/572/572
f 573/573/573 131/131/131 558/558/558
f 571/571/571 573/573/573 558/558/558
f 573/573/573 574/574/574 131/131/131
f 575/575/575 573/573/573 571/571/571
f 575/575/575 571/571/571 576/576/576
f 571/571/571 570/570/570 576/576/576
f 576/576/576 570/570/570 577/577/577
f 576/576/576 577/577/577 578/578/578
f 579/579/579 576/576/576 578/578/578
f 579/579/579 578/578/578 580/580/580
f 581/581/581 579/579/579 580/580/580
f 582/582/582 579/579/579 581/581/581
f 583/583/583 582/582/582 581/581/581
f 581/581/581 580/580/580 584/584/584
f 583/583/583 581/581/581 585/585/585
f 585/585/585 581/581/581 584/584/584
f 585/585/585 584/584/584 586/586/586
f 587/587/587 585/585/585 586/586/586
f 587/587/587 586/586/586 588/588/588
f 115/115/115 585/585/585 587/587/587
f 115/115/115 589/589/589 585/585/585
f 123/123/123 587/587/587 588/588/588
f 123/123/123 588/588/588 590/590/590
f 591/591/591 593/593/593 592/592/592
f 591/591/591 592/592/592 594/594/594
f 595/595/595 594/594/594 592/592/592
f 595/595/595 592/592/592 596/596/596
f 597/597/597 599/599/599 598/598/598
f 597/597/597 598/598/598 600/600/600
f 601/601/601 600/600/600 602/602/602
f 601/601/601 603/603/603 600/600/600
f 224/224/224 604/604/604 601/601/601
f 224/224/224 605/605/605 604/604/604
f 605/605/605 606/606/606 604/604/604
f 605/605/605 210/210/210 606/606/606
f 607/607/607 608/608/608 210/210/210
f 607/607/607 212/212/212 608/608/608
f 217/217/217 607/607/607 609/609/609
f 217/217/217 609/609/609 610/610/610
f 611/611/611 204/204/204 612/612/612
f 611/611/611 613/613/613 204/204/204
f 614/614/614 616/616/616 615/615/615
f 614/614/614 617/617/617 616/616/616
f 617/617/617 618/618/618 616/616/616
f 617/617/617 619/619/619 618/618/618
f 620/620/620 619/619/619 617/617/617
f 620/620/620 621/621/621 619/619/619
f 622/622/622 620/620/620 623/623/623
f 622/622/622 623/623/623 624/624/624
f 619/619/619 626/626/626 625/625/625
f 619/619/619 627/627/627 626/626/626
f 628/628/628 629/629/629 619/619/619
f 628/628/628 630/630/630 629/629/629
f 631/631/631 630/630/630 628/628/628
f 631/631/631 632/632/632 630/630/630
f 633/633/633 632/632/632 631/631/631
f 633/633/633 634/634/634 632/632/632
f 635/635/635 636/636/636 628/628/628
f 635/635/635 628/628/628 637/637/637
f 638/638/638 635/635/635 637/637/637
f 638/638/638 637/637/637 639/639/639
f 640/640/640 638/638/638 639/639/639
f 640/640/640 639/639/639 641/641/641
f 642/642/642 644/644/644 643/643/643
f 642/642/642 247/247/247 644/644/644
f 645/645/645 140/140/140 646/646/646
f 645/645/645 647/647/647 140/140/140
f 648/648/648 645/645/645 649/649/649
f 648/648/648 649/649/649 650/650/650
f 651/651/651 653/653/653 652/652/652
f 651/651/651 654/654/654 653/653/653
f 655/655/655 657/657/657 656/656/656
f 655/655/655 658/658/658 657/657/657
f 659/659/659 660/660/660 655/655/655
f 659/659/659 661/661/661 660/660/660
f 662/662/662 664/664/664 663/663/663
f 663/663/663 664/664/664 665/665/665
f 663/663/663 665/665/665 666/666/666
f 667/667/667 669/669/669 668/668/668
f 667/667/667 668/668/668 670/670/670
f 667/667/667 670/670/670 671/671/671
f 667/667/667 671/671/671 672/672/672
f 673/673/673 667/667/667 672/672/672
f 667/667/667 673/673/673 674/674/674
f 674/674/674 675/675/675 667/667/667
f 673/673/673 672/672/672 676/676/676
f 677/677/677 676/676/676 672/672/672
f 677/677/677 678/678/678 676/676/676
f 679/679/679 680/680/680 674/674/674
f 679/679/679 681/681/681 680/680/680
f 682/682/682 678/678/678 683/683/683
f 682/682/682 684/684/684 678/678/678
f 678/678/678 686/686/686 685/685/685
f 678/678/678 687/687/687 686/686/686
f 687/687/687 688/688/688 686/686/686
f 689/689/689 687/687/687 678/678/678
f 687/687/687 690/690/690 688/688/688
f 690/690/690 691/691/691 688/688/688
f 690/690/690 692/692/692 691/691/691
f 693/693/693 690/690/690 687/687/687
f 693/693/693 694/694/694 690/690/690
f 694/694/694 692/692/692 690/690/690
f 694/694/694 695/695/695 692/692/692
f 689/689/689 696/696/696 687/687/687
f 697/697/697 696/696/696 689/689/689
f 698/698/698 697/697/697 689/689/689
f 698/698/698 689/689/689 699/699/699
f 697/697/697 433/433/433 696/696/696
f 433/433/433 700/700/700 696/696/696
f 433/433/433 429/429/429 700/700/700
f 429/429/429 701/701/701 700/700/700
f 429/429/429 702/702/702 701/701/701
f 703/703/703 433/433/433 704/704/704
f 703/703/703 705/705/705 433/433/433
f 706/706/706 707/707/707 429/429/429
f 706/706/706 708/708/708 707/707/707
f 709/709/709 685/685/685 710/710/710
f 709/709/709 711/711/711 685/685/685
f 712/712/712 709/709/709 713/713/713
f 712/712/712 713/713/713 714/714/714
f 715/715/715 712/712/712 714/714/714
f 715/715/715 714/714/714 716/716/716
f 712/712/712 715/715/715 717/717/717
f 712/712/712 717/717/717 718/718/718
f 719/719/719 715/715/715 716/716/716
f 719/719/719 717/717/717 715/715/715
f 719/719/719 716/716/716 720/720/720
f 721/721/721 719/719/719 720/720/720
f 719/719/719 721/721/721 717/717/717
f 721/721/721 720/720/720 722/722/722
f 723/723/723 721/721/721 722/722/722
f 717/717/717 721/721/721 723/723/723
f 723/723/723 722/722/722 724/724/724
f 717/717/717 723/723/723 725/725/725
f 718/718/718 717/717/717 725/725/725
f 718/718/718 725/725/725 726/726/726
f 718/718/718 726/726/726 727/727/727
f 718/718/718 727/727/727 728/728/728
f 729/729/729 730/730/730 144/144/144
f 729/729/729 144/144/144 731/731/731
f 732/732/732 729/729/729 731/731/731
f 732/732/732 731/731/731 733/733/733
f 734/734/734 732/732/732 733/733/733
f 734/734/734 733/733/733 735/735/735
f 736/736/736 463/463/463 737/737/737
f 736/736/736 737/737/737 472/472/472
