mtllib P_RockCubic07.mtl
v 0.1588563 0.2324632 -1.103419
v 0.1633195 0.5453199 -1.076904
v 0.1307057 -0.2174833 -1.094604
v 1.101467 0.8598669 1.019687
v 1.331806 -0.3084171 1.080573
v 0.4805604 0.8034669 1.137731
v 1.129189 -0.5175715 1.147262
v 0.925481 -0.7544938 1.155325
v 0.06814204 0.7299074 1.150626
v -1.541152 0.4809726 1.152761
v -1.303315 -0.4623666 1.147159
v -0.1416234 -0.7742873 1.161024
v -0.8056668 -0.6665903 1.141469
v -1.46542 -0.2105281 1.145019
v -1.726178 0.05855912 0.9778249
v -1.713541 0.3615023 1.010103
v 1.101467 0.8598669 1.019687
v 0.4805604 0.8034669 1.137731
v 1.33597 0.8868396 0.4535055
v 0.3043537 0.8385315 -0.004412236
v 0.06814204 0.7299074 1.150626
v 0.4558295 0.8937513 -1.067827
v 0.2563638 0.8616999 -0.9829367
v 1.386529 0.8795812 0.1928004
v 1.305838 0.8556057 -1.076684
v 1.377358 0.8577283 -0.7778242
v 0.1461287 0.8047466 0.3831746
v 0.03040317 0.7144701 0.3752813
v -1.541152 0.4809726 1.152761
v -1.630948 0.4517663 -0.1100063
v -1.64855 0.4688157 0.9782869
v -1.058097 0.5511112 -1.023287
v -1.659414 0.4404086 -0.832156
v 0.1186122 0.74886 -0.8566918
v -0.1523496 0.7066781 -1.088498
v 0.1785688 0.707665 -0.9398486
v 0.2116871 0.7468019 -0.3917921
v 0.2259817 0.7374641 -0.01772332
v 1.101467 0.8598669 1.019687
v 1.33597 0.8868396 0.4535055
v 1.331806 -0.3084171 1.080573
v 1.463721 -0.3806694 0.7856061
v 1.515111 -0.1753137 0.528936
v 1.386529 0.8795812 0.1928004
v 1.433977 -0.6281299 0.5005732
v 1.555914 -0.1044693 -0.1755148
v 1.377358 0.8577283 -0.7778242
v 0.925481 -0.7544938 1.155325
v 1.129189 -0.5175715 1.147262
v 1.22086 -0.7227716 0.7196378
v 1.444397 -0.07166594 -1.192053
v 1.305838 0.8556057 -1.076684
v 1.475865 -0.602491 -0.09979276
v 1.512196 -0.6014719 -0.993565
v 1.529214 -0.5126362 -1.094162
v 1.407277 -0.4415127 -1.251237
v 1.305838 0.8556057 -1.076684
v 1.407277 -0.4415127 -1.251237
v 1.444397 -0.07166594 -1.192053
v 0.2399711 0.6413329 -1.097245
v 0.4558295 0.8937513 -1.067827
v 0.2563638 0.8616999 -0.9829367
v 1.031096 -0.574703 -1.226674
v 1.123933 -0.7799179 -1.091934
v 0.04895392 -0.7712747 -1.016193
v 0.1588563 0.2324632 -1.103419
v 0.1633195 0.5453199 -1.076904
v 0.1307057 -0.2174833 -1.094604
v -1.079624 -0.6896763 -0.9772006
v -1.668265 -0.4210675 -1.002376
v -0.1523496 0.7066781 -1.088498
v 0.1785688 0.707665 -0.9398486
v -1.058097 0.5511112 -1.023287
v -1.692571 0.1229685 -0.9479606
v -1.659414 0.4404086 -0.832156
v 1.407277 -0.4415127 -1.251237
v 1.512196 -0.6014719 -0.993565
v 1.529214 -0.5126362 -1.094162
v 1.123933 -0.7799179 -1.091934
v 1.433977 -0.6281299 0.5005732
v 1.22086 -0.7227716 0.7196378
v 0.925481 -0.7544938 1.155325
v -0.1416234 -0.7742873 1.161024
v -1.009001 -0.7638751 -0.8801685
v 0.04895392 -0.7712747 -1.016193
v -1.079624 -0.6896763 -0.9772006
v -1.29844 -0.7576489 -0.2101688
v -1.447533 -0.6688191 -0.7299033
v -1.661908 -0.483872 -0.9415354
v -1.668265 -0.4210675 -1.002376
v -0.7706079 -0.7556656 0.9580281
v -0.8056668 -0.6665903 1.141469
v -1.129459 -0.718634 0.69878
v -1.303315 -0.4623666 1.147159
v -1.630948 0.4517663 -0.1100063
v -1.692571 0.1229685 -0.9479606
v -1.659414 0.4404086 -0.832156
v -1.678205 0.08218731 -0.2856543
v -1.668265 -0.4210675 -1.002376
v -1.661908 -0.483872 -0.9415354
v -1.658848 -0.2063819 0.0003497263
v -1.29844 -0.7576489 -0.2101688
v -1.303315 -0.4623666 1.147159
v -1.726178 0.05855912 0.9778249
v -1.46542 -0.2105281 1.145019
v -1.713541 0.3615023 1.010103
v -1.64855 0.4688157 0.9782869
v -1.541152 0.4809726 1.152761
v 0.3043537 0.8385315 -0.004412236
v 0.03040317 0.7144701 0.3752813
v 0.2259817 0.7374641 -0.01772332
v 0.2116871 0.7468019 -0.3917921
v 0.2563638 0.8616999 -0.9829367
v 0.1785688 0.707665 -0.9398486
v 0.2399711 0.6413329 -1.097245
v 0.1633195 0.5453199 -1.076904
vn -0.5806761 0.04226659 -0.8130368
vn -0.1879266 0.2491907 -0.9500461
vn -0.1116375 -0.05497506 -0.9922272
vn 0.4075568 0.6891824 0.5991035
vn 0.6846254 -0.1034699 0.7215137
vn -0.02052967 0.6998912 0.7139543
vn 0.4921549 -0.3326377 0.8044475
vn 0.2269021 -0.6858271 0.6914888
vn -0.1200538 0.6854054 0.7181967
vn -0.360273 0.6041743 0.710758
vn -0.4639925 -0.5094033 0.7247201
vn -0.01281008 -0.6884632 0.7251582
vn -0.1929414 -0.6205032 0.7600983
vn -0.4937625 -0.2671822 0.8275338
vn -0.9033803 -0.2180798 0.3692497
vn -0.8987876 0.2148206 0.3821425
vn 0.4075568 0.6891824 0.5991035
vn -0.02052967 0.6998912 0.7139543
vn 0.6094996 0.7668211 0.2012354
vn -0.4091185 0.9119998 -0.02963665
vn -0.1200538 0.6854054 0.7181967
vn -0.113197 0.7595618 -0.6405095
vn -0.5902511 0.7384455 -0.3260399
vn 0.6807962 0.7310939 0.04492376
vn 0.4669363 0.6443748 -0.6056002
vn 0.6934039 0.7142416 -0.09513137
vn -0.3337221 0.9426643 -0.003697383
vn -0.3628356 0.9310741 -0.038096
vn -0.360273 0.6041743 0.710758
vn -0.710098 0.7040213 -0.0107187
vn -0.5556427 0.8239773 0.111007
vn -0.1916852 0.6925319 -0.6954541
vn -0.694194 0.6285741 -0.3506982
vn 0.1536551 0.9815028 -0.1142034
vn -0.0549313 0.701573 -0.7104773
vn -0.4307118 0.781818 -0.4508302
vn -0.4906025 0.8705887 0.03720924
vn -0.5062744 0.8587575 -0.07887854
vn 0.4075568 0.6891824 0.5991035
vn 0.6094996 0.7668211 0.2012354
vn 0.6846254 -0.1034699 0.7215137
vn 0.9073752 -0.2328261 0.349946
vn 0.9864624 0.02595308 0.1619213
vn 0.6807962 0.7310939 0.04492376
vn 0.7792101 -0.6133262 0.1290838
vn 0.999762 0.02003025 0.008642696
vn 0.6934039 0.7142416 -0.09513137
vn 0.2269021 -0.6858271 0.6914888
vn 0.4921549 -0.3326377 0.8044475
vn 0.4705483 -0.8531162 0.2253377
vn 0.7052242 0.1660538 -0.6892641
vn 0.4669363 0.6443748 -0.6056002
vn 0.9286106 -0.3684744 0.04369209
vn 0.7619283 -0.6199096 -0.1875563
vn 0.836283 -0.3427334 -0.4279771
vn 0.4022805 -0.2136873 -0.8902293
vn 0.4669363 0.6443748 -0.6056002
vn 0.4022805 -0.2136873 -0.8902293
vn 0.7052242 0.1660538 -0.6892641
vn -0.4251831 0.2829363 -0.8597479
vn -0.113197 0.7595618 -0.6405095
vn -0.5902511 0.7384455 -0.3260399
vn -0.04313488 -0.2848316 -0.9576066
vn 0.1833967 -0.8714672 -0.4548743
vn -0.07258759 -0.7585537 -0.6475549
vn -0.5806761 0.04226659 -0.8130368
vn -0.1879266 0.2491907 -0.9500461
vn -0.1116375 -0.05497506 -0.9922272
vn -0.1701731 -0.5926645 -0.7872674
vn -0.6878231 -0.2375575 -0.6859052
vn -0.0549313 0.701573 -0.7104773
vn -0.4307118 0.781818 -0.4508302
vn -0.1916852 0.6925319 -0.6954541
vn -0.7787079 0.1265054 -0.6145002
vn -0.694194 0.6285741 -0.3506982
vn 0.4022805 -0.2136873 -0.8902293
vn 0.7619283 -0.6199096 -0.1875563
vn 0.836283 -0.3427334 -0.4279771
vn 0.1833967 -0.8714672 -0.4548743
vn 0.7792101 -0.6133262 0.1290838
vn 0.4705483 -0.8531162 0.2253377
vn 0.2269021 -0.6858271 0.6914888
vn -0.01281008 -0.6884632 0.7251582
vn -0.1324316 -0.9474661 -0.2911526
vn -0.07258759 -0.7585537 -0.6475549
vn -0.1701731 -0.5926645 -0.7872674
vn -0.4511638 -0.8897986 0.0686278
vn -0.4779876 -0.8674366 -0.1381362
vn -0.7679978 -0.5762522 -0.2794867
vn -0.6878231 -0.2375575 -0.6859052
vn -0.1747127 -0.958779 0.2240945
vn -0.1929414 -0.6205032 0.7600983
vn -0.4171236 -0.891798 0.1752264
vn -0.4639925 -0.5094033 0.7247201
vn -0.710098 0.7040213 -0.0107187
vn -0.7787079 0.1265054 -0.6145002
vn -0.694194 0.6285741 -0.3506982
vn -0.999551 0.02958144 0.004770822
vn -0.6878231 -0.2375575 -0.6859052
vn -0.7679978 -0.5762522 -0.2794867
vn -0.9348857 -0.349674 0.06096565
vn -0.4511638 -0.8897986 0.0686278
vn -0.4639925 -0.5094033 0.7247201
vn -0.9033803 -0.2180798 0.3692497
vn -0.4937625 -0.2671822 0.8275338
vn -0.8987876 0.2148206 0.3821425
vn -0.5556427 0.8239773 0.111007
vn -0.360273 0.6041743 0.710758
vn -0.4091185 0.9119998 -0.02963665
vn -0.3628356 0.9310741 -0.038096
vn -0.5062744 0.8587575 -0.07887854
vn -0.4906025 0.8705887 0.03720924
vn -0.5902511 0.7384455 -0.3260399
vn -0.4307118 0.781818 -0.4508302
vn -0.4251831 0.2829363 -0.8597479
vn -0.1879266 0.2491907 -0.9500461
vt 0.3385237 0.4850433
vt 0.3381401 0.4788277
vt 0.3381401 0.4939676
vt 0.564069 0.137209
vt 0.5404543 0.1363753
vt 0.564871 0.1496076
vt 0.5369726 0.1410319
vt 0.5329676 0.1457628
vt 0.5647159 0.1579181
vt 0.564871 0.1902003
vt 0.545657 0.1884809
vt 0.5359139 0.1667185
vt 0.5401041 0.1793716
vt 0.5510958 0.1908683
vt 0.5572288 0.1950391
vt 0.563112 0.193866
vt 0.9609511 0.9588846
vt 0.9631835 0.9465705
vt 0.9497713 0.9635944
vt 0.940541 0.9432006
vt 0.9633473 0.9384066
vt 0.9195104 0.9463154
vt 0.9211507 0.9423571
vt 0.9446054 0.9646288
vt 0.9194167 0.9631805
vt 0.9253509 0.9645638
vt 0.9481858 0.9400256
vt 0.9479641 0.9377512
vt 0.9630526 0.9065477
vt 0.937993 0.9049193
vt 0.959574 0.9044408
vt 0.9200149 0.9163631
vt 0.9236677 0.9044408
vt 0.9235726 0.9396353
vt 0.9189206 0.9342981
vt 0.9219081 0.9408429
vt 0.9327986 0.9414278
vt 0.9402103 0.94167
vt 0.4715255 0.1890777
vt 0.4713531 0.1779837
vt 0.4482869 0.191499
vt 0.4464814 0.1858047
vt 0.4502667 0.1805642
vt 0.4709263 0.1728587
vt 0.4413357 0.1803707
vt 0.4509745 0.1665747
vt 0.4695847 0.1536539
vt 0.4398254 0.1931444
vt 0.4443582 0.1928897
vt 0.4398254 0.1846667
vt 0.4507467 0.1463485
vt 0.4693132 0.1476949
vt 0.4412461 0.1684846
vt 0.4403963 0.1508079
vt 0.4420474 0.1487444
vt 0.4433967 0.1454949
vt 0.9601882 0.4136524
vt 0.9344174 0.4159214
vt 0.9417818 0.4165833
vt 0.9557302 0.3925574
vt 0.9607878 0.3967883
vt 0.96015 0.3928316
vt 0.931716 0.4084843
vt 0.9277209 0.4103523
vt 0.9277209 0.3890267
vt 0.9476059 0.3910258
vt 0.9538206 0.3910536
vt 0.9386834 0.390551
vt 0.9291419 0.3666277
vt 0.9343459 0.3549065
vt 0.9569554 0.3847645
vt 0.9570993 0.391314
vt 0.9537272 0.3668265
vt 0.9451503 0.3543181
vt 0.9514984 0.3549064
vt 0.4098813 0.8583146
vt 0.4150809 0.8567007
vt 0.4131538 0.8561773
vt 0.412447 0.8642673
vt 0.4444745 0.8606558
vt 0.4484266 0.865247
vt 0.456552 0.8717943
vt 0.4549479 0.8928999
vt 0.413222 0.9067593
vt 0.4122254 0.885633
vt 0.4112195 0.9079781
vt 0.4260022 0.913555
vt 0.4155255 0.9156411
vt 0.41107 0.9194851
vt 0.4098814 0.919495
vt 0.4499357 0.9049998
vt 0.4535389 0.9059621
vt 0.4442515 0.911665
vt 0.452932 0.9157487
vt 0.812242 0.867556
vt 0.8060596 0.8842976
vt 0.812314 0.8818727
vt 0.804975 0.8711869
vt 0.7953047 0.8856133
vt 0.7940359 0.8844352
vt 0.799139 0.8656434
vt 0.7884107 0.8701231
vt 0.7936883 0.8430856
vt 0.8039567 0.8461376
vt 0.7986318 0.8429888
vt 0.8099527 0.8453708
vt 0.8121137 0.8459686
vt 0.812314 0.8425254
vt 0.6282622 0.3271831
vt 0.6248691 0.3199385
vt 0.6262758 0.3276615
vt 0.6273023 0.3350074
vt 0.6309191 0.3464004
vt 0.6277618 0.3458879
vt 0.6268315 0.3491494
vt 0.6248691 0.3489536
usemtl MV_RockCubic_Rocks
f 1/1/1 3/3/3 2/2/2
f 4/4/4 6/6/6 5/5/5
f 5/5/5 6/6/6 7/7/7
f 6/6/6 8/8/8 7/7/7
f 9/9/9 8/8/8 6/6/6
f 10/10/10 8/8/8 9/9/9
f 11/11/11 8/8/8 10/10/10
f 8/8/8 11/11/11 12/12/12
f 11/11/11 13/13/13 12/12/12
f 11/11/11 10/10/10 14/14/14
f 10/10/10 15/15/15 14/14/14
f 10/10/10 16/16/16 15/15/15
f 17/17/17 19/19/19 18/18/18
f 18/18/18 19/19/19 20/20/20
f 18/18/18 20/20/20 21/21/21
f 20/20/20 19/19/19 22/22/22
f 20/20/20 22/22/22 23/23/23
f 19/19/19 24/24/24 22/22/22
f 22/22/22 24/24/24 25/25/25
f 24/24/24 26/26/26 25/25/25
f 21/21/21 20/20/20 27/27/27
f 27/27/27 20/20/20 28/28/28
f 21/21/21 27/27/27 28/28/28
f 21/21/21 28/28/28 29/29/29
f 29/29/29 28/28/28 30/30/30
f 31/31/31 29/29/29 30/30/30
f 28/28/28 32/32/32 30/30/30
f 30/30/30 32/32/32 33/33/33
f 32/32/32 28/28/28 34/34/34
f 34/34/34 35/35/35 32/32/32
f 36/36/36 35/35/35 34/34/34
f 37/37/37 36/36/36 34/34/34
f 37/37/37 34/34/34 28/28/28
f 28/28/28 38/38/38 37/37/37
f 39/39/39 41/41/41 40/40/40
f 40/40/40 41/41/41 42/42/42
f 42/42/42 43/43/43 40/40/40
f 40/40/40 43/43/43 44/44/44
f 41/41/41 45/45/45 42/42/42
f 45/45/45 43/43/43 42/42/42
f 43/43/43 46/46/46 44/44/44
f 45/45/45 46/46/46 43/43/43
f 47/47/47 44/44/44 46/46/46
f 41/41/41 48/48/48 45/45/45
f 49/49/49 48/48/48 41/41/41
f 45/45/45 48/48/48 50/50/50
f 46/46/46 51/51/51 47/47/47
f 51/51/51 52/52/52 47/47/47
f 45/45/45 53/53/53 46/46/46
f 53/53/53 45/45/45 54/54/54
f 54/54/54 55/55/55 53/53/53
f 46/46/46 53/53/53 55/55/55
f 46/46/46 55/55/55 51/51/51
f 55/55/55 56/56/56 51/51/51
f 57/57/57 59/59/59 58/58/58
f 57/57/57 58/58/58 60/60/60
f 57/57/57 60/60/60 61/61/61
f 62/62/62 61/61/61 60/60/60
f 60/60/60 58/58/58 63/63/63
f 58/58/58 64/64/64 63/63/63
f 65/65/65 63/63/63 64/64/64
f 60/60/60 63/63/63 66/66/66
f 60/60/60 66/66/66 67/67/67
f 66/66/66 63/63/63 68/68/68
f 68/68/68 63/63/63 65/65/65
f 68/68/68 65/65/65 69/69/69
f 68/68/68 69/69/69 70/70/70
f 71/71/71 67/67/67 68/68/68
f 71/71/71 72/72/72 67/67/67
f 73/73/73 71/71/71 68/68/68
f 73/73/73 68/68/68 70/70/70
f 74/74/74 73/73/73 70/70/70
f 75/75/75 73/73/73 74/74/74
f 76/76/76 78/78/78 77/77/77
f 79/79/79 76/76/76 77/77/77
f 77/77/77 80/80/80 79/79/79
f 81/81/81 79/79/79 80/80/80
f 81/81/81 82/82/82 79/79/79
f 82/82/82 83/83/83 79/79/79
f 83/83/83 84/84/84 79/79/79
f 79/79/79 84/84/84 85/85/85
f 85/85/85 84/84/84 86/86/86
f 83/83/83 87/87/87 84/84/84
f 88/88/88 86/86/86 84/84/84
f 87/87/87 88/88/88 84/84/84
f 88/88/88 89/89/89 86/86/86
f 87/87/87 89/89/89 88/88/88
f 86/86/86 89/89/89 90/90/90
f 91/91/91 87/87/87 83/83/83
f 92/92/92 91/91/91 83/83/83
f 93/93/93 87/87/87 91/91/91
f 92/92/92 93/93/93 91/91/91
f 93/93/93 94/94/94 87/87/87
f 94/94/94 93/93/93 92/92/92
f 95/95/95 97/97/97 96/96/96
f 95/95/95 96/96/96 98/98/98
f 98/98/98 96/96/96 99/99/99
f 98/98/98 99/99/99 100/100/100
f 100/100/100 101/101/101 98/98/98
f 101/101/101 100/100/100 102/102/102
f 101/101/101 102/102/102 103/103/103
f 104/104/104 98/98/98 101/101/101
f 103/103/103 104/104/104 101/101/101
f 104/104/104 95/95/95 98/98/98
f 105/105/105 104/104/104 103/103/103
f 104/104/104 106/106/106 95/95/95
f 107/107/107 95/95/95 106/106/106
f 106/106/106 108/108/108 107/107/107
f 109/109/109 111/111/111 110/110/110
f 109/109/109 112/112/112 111/111/111
f 109/109/109 113/113/113 112/112/112
f 113/113/113 114/114/114 112/112/112
f 113/113/113 115/115/115 114/114/114
f 116/116/116 114/114/114 115/115/115
