mtllib P_RockDesert_Hoodoo07.mtl
v -0.986832 11.39797 -0.781337 1 1 1
v -0.6062762 11.28638 -0.7461789 1 1 1
v -0.5932894 11.37414 -0.8007948 1 1 1
v -1.197553 0.8600138 -0.1977715 1 1 1
v -0.8506359 0.8600138 -1.090911 1 1 1
v -0.4143872 2.372595 -0.620248 1 1 1
v -0.6953576 2.372595 -0.1372898 1 1 1
v -0.9368837 0.8600138 0.9368837 1 1 1
v -0.2993499 3.907934 -0.622656 1 1 1
v -0.4294205 2.372595 0.5159699 1 1 1
v -0.5803203 3.907934 -0.1396978 1 1 1
v -0.3983059 5.300109 -0.9051048 1 1 1
v -0.3143898 3.908977 0.5137988 1 1 1
v -0.746955 5.288346 -0.1966088 1 1 1
v -0.3576268 5.453091 -0.8324519 1 1 1
v -0.4648147 5.303999 0.6873461 1 1 1
v -0.6305346 5.492885 -0.2193391 1 1 1
v -0.4053318 5.509617 0.62304 1 1 1
v -1.005937 9.944389 -0.1938591 1 1 1
v -0.6458024 10.14828 0.6773626 1 1 1
v -0.7228893 9.998652 0.8425256 1 1 1
v -0.8457088 10.1442 -0.1787727 1 1 1
v -0.6571814 9.93296 -1.052753 1 1 1
v -0.4210124 10.15311 -0.8458964 1 1 1
v -0.4328412 10.35106 0.4586913 1 1 1
v -0.5722462 10.34822 -0.1383358 1 1 1
v -0.3916317 10.36118 -0.6093007 1 1 1
v 0.07812102 10.3863 -0.6801175 1 1 1
v -0.01081955 10.37726 -0.09279759 1 1 1
v 0.0603033 10.37603 0.5714314 1 1 1
v 0.5506424 10.40624 -0.03812326 1 1 1
v 0.5525587 10.40266 0.455238 1 1 1
v 0.9329541 10.2126 0.6806495 1 1 1
v 0.9302063 10.21773 -0.02682935 1 1 1
v 0.5487263 10.40982 -0.5314846 1 1 1
v 0.9274584 10.22286 -0.7343081 1 1 1
v 0.2526118 10.18913 -0.9474471 1 1 1
v 1.081302 10.02326 -0.8740414 1 1 1
v 0.9274584 10.22286 -0.7343081 1 1 1
v 0.2526118 10.18913 -0.9474471 1 1 1
v 0.2020839 9.937587 -1.180373 1 1 1
v 1.099234 9.7365 -0.8900182 1 1 1
v -0.4210124 10.15311 -0.8458964 1 1 1
v -0.3916317 10.36118 -0.6093007 1 1 1
v 0.07812102 10.3863 -0.6801175 1 1 1
v -0.6571814 9.93296 -1.052753 1 1 1
v 0.2050876 9.833655 -1.201224 1 1 1
v -0.6688777 9.834181 -1.071908 1 1 1
v -0.39694 9.338311 -0.9096973 1 1 1
v 0.304062 9.353499 -1.028909 1 1 1
v 1.006265 9.368503 -0.8192822 1 1 1
v -0.1285998 7.461424 -0.6895169 1 1 1
v 0.3360321 7.435039 -0.69181 1 1 1
v 0.7649055 7.415175 -0.4754526 1 1 1
v -0.191176 6.403378 -0.5986441 1 1 1
v 0.2041517 6.367767 -0.6334858 1 1 1
v 0.5837139 6.335229 -0.4760666 1 1 1
v -0.2353724 5.863038 -0.5288544 1 1 1
v 0.08962192 5.865954 -0.5625206 1 1 1
v 0.4199952 5.865669 -0.4515459 1 1 1
v 0.6029487 5.53336 -0.6107032 1 1 1
v 0.1113422 5.534115 -0.7714316 1 1 1
v -0.3009923 5.502 -0.6171665 1 1 1
v -0.9368837 0.8600138 0.9368837 1 1 1
v -1.316877 0.2763261 1.353573 1 1 1
v -1.686658 0.2763261 -0.2560276 1 1 1
v -1.197553 0.8600138 -0.1977715 1 1 1
v -1.194528 0.2763261 -1.523018 1 1 1
v -0.8506359 0.8600138 -1.090911 1 1 1
v 1.081642 10.02301 0.8417293 1 1 1
v 0.9329541 10.2126 0.6806495 1 1 1
v 0.9302063 10.21773 -0.02682935 1 1 1
v 1.081354 10.02334 -0.01503878 1 1 1
v 0.9274584 10.22286 -0.7343081 1 1 1
v 1.081302 10.02326 -0.8740414 1 1 1
v 1.101743 9.736852 0.8006936 1 1 1
v 1.10047 9.736562 -0.04484056 1 1 1
v 1.099234 9.7365 -0.8900182 1 1 1
v 1.006265 9.368503 -0.8192822 1 1 1
v 1.00894 9.368091 -0.08729061 1 1 1
v 1.011614 9.367679 0.644701 1 1 1
v 0.7649055 7.415175 -0.4754526 1 1 1
v 0.774989 7.412195 -0.01081096 1 1 1
v 0.6096569 7.443498 0.4738376 1 1 1
v 0.5837139 6.335229 -0.4760666 1 1 1
v 0.624621 6.329065 -0.07256015 1 1 1
v 0.5161762 6.353815 0.3483717 1 1 1
v 0.4199952 5.865669 -0.4515459 1 1 1
v 0.4479217 5.858548 -0.1111314 1 1 1
v 0.4017062 5.838018 0.2155576 1 1 1
v 0.5794638 5.497139 0.3697251 1 1 1
v 0.6528482 5.51951 -0.1072862 1 1 1
v 0.6029487 5.53336 -0.6107032 1 1 1
v 0.2803968 9.351808 0.812867 1 1 1
v -0.4520294 9.336123 0.6500305 1 1 1
v -0.694209 9.742569 0.8336787 1 1 1
v 0.1817701 9.760226 1.070805 1 1 1
v -0.6458024 10.14828 0.6773626 1 1 1
v -0.4328412 10.35106 0.4586913 1 1 1
v 0.0603033 10.37603 0.5714314 1 1 1
v 0.2270613 10.17441 0.8472703 1 1 1
v 0.5525587 10.40266 0.455238 1 1 1
v -0.7228893 9.998652 0.8425256 1 1 1
v 0.9329541 10.2126 0.6806495 1 1 1
v 0.1633728 9.941676 1.100536 1 1 1
v -0.694209 9.742569 0.8336787 1 1 1
v 1.081642 10.02301 0.8417293 1 1 1
v 0.1817701 9.760226 1.070805 1 1 1
v 1.101743 9.736852 0.8006936 1 1 1
v 1.011614 9.367679 0.644701 1 1 1
v 0.2803968 9.351808 0.812867 1 1 1
v 0.6096569 7.443498 0.4738376 1 1 1
v 0.1184241 7.471895 0.5004669 1 1 1
v -0.4520294 9.336123 0.6500305 1 1 1
v 0.5161762 6.353815 0.3483717 1 1 1
v -0.3384931 7.494028 0.317268 1 1 1
v 0.09879434 6.395448 0.4048583 1 1 1
v -0.3038065 6.425832 0.2798337 1 1 1
v 0.4017062 5.838018 0.2155576 1 1 1
v 0.07961632 5.892697 0.321141 1 1 1
v -0.3069209 5.9512 0.2444125 1 1 1
v -0.3403052 5.541653 0.4075668 1 1 1
v 0.09233445 5.553353 0.5126188 1 1 1
v 0.5794638 5.497139 0.3697251 1 1 1
v 1.049203 -0.3791448 1.539833 1 1 1
v 1.14449 -3.284232 1.668336 1 1 1
v 0.03476081 -3.412168 2.093233 1 1 1
v 0.0292601 -0.4977788 1.931615 1 1 1
v -1.629906 -3.406175 1.700155 1 1 1
v -1.500472 -0.4903586 1.576697 1 1 1
v 0.876135 0.3667214 1.340107 1 1 1
v 1.29676 -0.3802567 1.242297 1 1 1
v 1.136474 0.3674893 1.025508 1 1 1
v 0.9354919 0.861562 0.9361457 1 1 1
v 0.01216836 0.2763261 1.66193 1 1 1
v -1.316877 0.2763261 1.353573 1 1 1
v 5.960464E-08 0.8600138 1.154253 1 1 1
v 0.09201442 2.372595 0.642673 1 1 1
v -0.9368837 0.8600138 0.9368837 1 1 1
v -0.4294205 2.372595 0.5159699 1 1 1
v 0.6410079 2.372595 0.5097092 1 1 1
v 0.6967144 3.116623 0.5086571 1 1 1
v -0.3143898 3.908977 0.5137988 1 1 1
v 0.6635026 3.909127 0.5299836 1 1 1
v 0.2070393 3.909895 0.6407104 1 1 1
v -0.4648147 5.303999 0.6873461 1 1 1
v 0.3012362 5.370133 0.8536401 1 1 1
v -0.4053318 5.509617 0.62304 1 1 1
v 0.2303562 5.532086 0.7778265 1 1 1
v 0.9396698 5.339186 0.682036 1 1 1
v 0.8407302 5.464437 0.6332948 1 1 1
v 1.031289 5.329983 0.5676499 1 1 1
v 0.9468197 5.456657 0.5211136 1 1 1
v 1.29676 -0.3802567 1.242297 1 1 1
v 1.14449 -3.284232 1.668336 1 1 1
v 1.049203 -0.3791448 1.539833 1 1 1
v 1.417626 -3.28466 1.342404 1 1 1
v 1.56044 -0.5112646 0.04656584 1 1 1
v 1.707801 -3.422074 0.05460144 1 1 1
v 1.558992 -0.4922433 -1.482767 1 1 1
v 1.685902 -3.407948 -1.607937 1 1 1
v 1.341214 0.2763261 -1.304518 1 1 1
v 1.343575 0.276707 0.02387758 1 1 1
v 1.136474 0.3674893 1.025508 1 1 1
v 0.9368837 0.8600138 -0.9368835 1 1 1
v 1.077019 0.8826196 -0.03856348 1 1 1
v 0.9354919 0.861562 0.9361457 1 1 1
v 0.6410079 2.372595 0.5097092 1 1 1
v 0.7259346 2.372595 -0.03101948 1 1 1
v 0.6967144 3.116623 0.5086571 1 1 1
v 0.6410079 2.372595 -0.5331609 1 1 1
v 0.7698515 3.90882 0.419562 1 1 1
v 0.6635026 3.909127 0.5299836 1 1 1
v 0.9396698 5.339186 0.682036 1 1 1
v 1.031289 5.329983 0.5676499 1 1 1
v 0.8409712 3.908043 -0.03340285 1 1 1
v 0.7686063 3.90795 -0.4612953 1 1 1
v 0.6815843 3.907934 -0.556401 1 1 1
v 1.032161 5.295909 -0.07404885 1 1 1
v 0.9468197 5.456657 0.5211136 1 1 1
v 1.013693 5.476598 -0.09343517 1 1 1
v 1.044762 5.281345 -0.7538689 1 1 1
v 0.9719814 5.279029 -0.8517077 1 1 1
v 0.9488714 5.48713 -0.7193627 1 1 1
v 0.8669868 5.488352 -0.8167843 1 1 1
v -1.500472 -0.4903586 1.576697 1 1 1
v -1.629906 -3.406175 1.700155 1 1 1
v -2.10092 -3.414163 -0.3026529 1 1 1
v -1.92609 -0.5004761 -0.2759544 1 1 1
v -1.316877 0.2763261 1.353573 1 1 1
v -1.477312 -3.407683 -1.882822 1 1 1
v -1.686658 0.2763261 -0.2560276 1 1 1
v -1.359648 -0.4920681 -1.734261 1 1 1
v -1.194528 0.2763261 -1.523018 1 1 1
v 0.6805478 11.46545 -0.9050219 1 1 1
v 1.012537 11.7147 -0.4445972 1 1 1
v 1.032072 11.88672 -0.770053 1 1 1
v 1.149503 12.46303 -0.69728 1 1 1
v 1.122123 11.91499 0.2534182 1 1 1
v 1.210067 12.64049 -0.443701 1 1 1
v 1.125196 12.73934 -0.6010741 1 1 1
v 1.06561 12.66333 -0.7667238 1 1 1
v 1.272181 12.5083 0.3246011 1 1 1
v 1.163061 12.0335 0.3654551 1 1 1
v 0.5351376 11.59492 0.6497942 1 1 1
v 0.5391749 11.68059 0.7489325 1 1 1
v 1.149503 12.46303 -0.69728 1 1 1
v 1.06561 12.66333 -0.7667238 1 1 1
v 1.032072 11.88672 -0.770053 1 1 1
v 0.3692743 12.5563 -1.042146 1 1 1
v -0.103939 11.81146 -1.216729 1 1 1
v 0.6805478 11.46545 -0.9050219 1 1 1
v 0.7664992 12.74423 -0.8722519 1 1 1
v 1.125196 12.73934 -0.6010741 1 1 1
v -0.2520437 12.72056 -0.9374777 1 1 1
v 0.4920824 12.86662 -0.7869964 1 1 1
v -0.5580494 12.52599 -1.095907 1 1 1
v -0.7621194 12.1527 -1.189585 1 1 1
v -0.4947037 11.85306 -1.232201 1 1 1
v -1.048496 11.70606 -1.043438 1 1 1
v 0.5351376 11.59492 0.6497942 1 1 1
v 1.122123 11.91499 0.2534182 1 1 1
v 1.012537 11.7147 -0.4445972 1 1 1
v 0.2666898 11.22694 -0.7140844 1 1 1
v 0.6805478 11.46545 -0.9050219 1 1 1
v -0.00791899 11.37538 0.3991002 1 1 1
v -0.6569659 11.40445 0.6085821 1 1 1
v 0.5391749 11.68059 0.7489325 1 1 1
v -0.3856613 12.01178 1.005878 1 1 1
v -0.6760445 11.88299 0.9960601 1 1 1
v -0.8525758 11.35652 0.5416869 1 1 1
v -0.6441244 11.29548 0.02938296 1 1 1
v -1.1302 11.41059 -0.2993262 1 1 1
v -0.5465052 11.23333 -0.4487041 1 1 1
v -0.6062762 11.28638 -0.7461789 1 1 1
v -0.986832 11.39797 -0.781337 1 1 1
v -0.5932894 11.37414 -0.8007948 1 1 1
v -0.4947037 11.85306 -1.232201 1 1 1
v -0.103939 11.81146 -1.216729 1 1 1
v -0.986832 11.39797 -0.781337 1 1 1
v -1.048496 11.70606 -1.043438 1 1 1
v -0.7481971 12.088 0.9267769 1 1 1
v -0.6760445 11.88299 0.9960601 1 1 1
v -0.8525758 11.35652 0.5416869 1 1 1
v -1.038155 12.06276 0.4153546 1 1 1
v -1.1302 11.41059 -0.2993262 1 1 1
v -1.204355 12.00887 -0.3548355 1 1 1
v -1.234215 11.72726 -0.6431834 1 1 1
v -0.986832 11.39797 -0.781337 1 1 1
v -0.9613049 12.29268 -0.5580058 1 1 1
v -1.048496 11.70606 -1.043438 1 1 1
v -0.7621194 12.1527 -1.189585 1 1 1
v -0.6760445 11.88299 0.9960601 1 1 1
v -0.7481971 12.088 0.9267769 1 1 1
v -0.3856613 12.01178 1.005878 1 1 1
v -0.46862 12.28316 0.9339285 1 1 1
v -0.2548273 12.08765 0.9968355 1 1 1
v -0.2283593 12.28258 0.9542982 1 1 1
v 0.5391749 11.68059 0.7489325 1 1 1
v 0.1456994 12.40326 0.9026452 1 1 1
v 0.7507156 12.51948 0.6530406 1 1 1
v 1.163061 12.0335 0.3654551 1 1 1
v 1.081756 12.59048 0.4409823 1 1 1
v 1.272181 12.5083 0.3246011 1 1 1
v -0.5580494 12.52599 -1.095907 1 1 1
v -0.9613049 12.29268 -0.5580058 1 1 1
v -0.7621194 12.1527 -1.189585 1 1 1
v -0.2520437 12.72056 -0.9374777 1 1 1
v -0.2621249 12.61575 0.2386102 1 1 1
v 0.5681691 12.94798 -0.5558807 1 1 1
v 0.8494983 12.92535 -0.4831818 1 1 1
v 0.4920824 12.86662 -0.7869964 1 1 1
v 0.7664992 12.74423 -0.8722519 1 1 1
v 1.125196 12.73934 -0.6010741 1 1 1
v 1.210067 12.64049 -0.443701 1 1 1
v 1.272181 12.5083 0.3246011 1 1 1
v 1.081756 12.59048 0.4409823 1 1 1
v 0.7507156 12.51948 0.6530406 1 1 1
v 0.1456994 12.40326 0.9026452 1 1 1
v -0.2283593 12.28258 0.9542982 1 1 1
v -0.46862 12.28316 0.9339285 1 1 1
v -0.7481971 12.088 0.9267769 1 1 1
v -1.038155 12.06276 0.4153546 1 1 1
v -1.204355 12.00887 -0.3548355 1 1 1
v 0.2192064 10.31672 0.573761 1 1 1
v 0.6826375 10.54257 0.4339283 1 1 1
v 0.5254065 10.15963 0.08265741 1 1 1
v -0.2396196 10.18089 0.4900774 1 1 1
v -0.5545787 10.22734 -0.1927164 1 1 1
v -0.7041082 10.50457 0.6229435 1 1 1
v -0.7762169 10.41715 -0.06738124 1 1 1
v -0.5559528 10.45474 -0.6269512 1 1 1
v -0.4303336 10.24632 -0.4081153 1 1 1
v 0.2790337 10.25543 -0.5285601 1 1 1
v 0.5130365 10.31133 -0.6103593 1 1 1
v 0.2653795 10.5785 -0.8354021 1 1 1
v -0.7041082 10.50457 0.6229435 1 1 1
v 0.2192064 10.31672 0.573761 1 1 1
v -0.2396196 10.18089 0.4900774 1 1 1
v -0.4405067 10.81894 0.599409 1 1 1
v -0.7278478 11.11997 0.4386202 1 1 1
v -0.4968426 11.3436 0.2310328 1 1 1
v 0.07909198 10.88941 0.6314998 1 1 1
v 0.4942937 11.03051 0.6329561 1 1 1
v 0.6826375 10.54257 0.4339283 1 1 1
v 0.5825272 11.37554 0.3248337 1 1 1
v 0.7478783 11.39007 0.1232891 1 1 1
v -0.555423 10.913 -0.5803688 1 1 1
v -0.07821742 11.22743 -0.7875279 1 1 1
v -0.5421073 11.28793 -0.4734991 1 1 1
v -0.2144282 10.96698 -0.8092268 1 1 1
v -0.5559528 10.45474 -0.6269512 1 1 1
v 0.2653795 10.5785 -0.8354021 1 1 1
v 0.4469486 11.27374 -0.7094396 1 1 1
v 0.7843626 11.06857 -0.440167 1 1 1
v 0.5130365 10.31133 -0.6103593 1 1 1
v -0.555423 10.913 -0.5803688 1 1 1
v -0.5421073 11.28793 -0.4734991 1 1 1
v -0.7967119 11.15607 -0.1416792 1 1 1
v -0.7762169 10.41715 -0.06738124 1 1 1
v -0.5559528 10.45474 -0.6269512 1 1 1
v -0.796549 11.19906 0.2307527 1 1 1
v -0.7041082 10.50457 0.6229435 1 1 1
v -0.7278478 11.11997 0.4386202 1 1 1
v -0.4968426 11.3436 0.2310328 1 1 1
v -0.7278478 11.11997 0.4386202 1 1 1
v -0.796549 11.19906 0.2307527 1 1 1
v -0.7967119 11.15607 -0.1416792 1 1 1
v -0.5421073 11.28793 -0.4734991 1 1 1
v -0.2331405 11.41454 -0.3631671 1 1 1
v -0.07821742 11.22743 -0.7875279 1 1 1
v 0.4469486 11.27374 -0.7094396 1 1 1
v 0.5825272 11.37554 0.3248337 1 1 1
v 0.6137301 11.50369 -0.1520853 1 1 1
v 0.7478783 11.39007 0.1232891 1 1 1
v 0.4469486 11.27374 -0.7094396 1 1 1
v 0.7843626 11.06857 -0.440167 1 1 1
v 0.6137301 11.50369 -0.1520853 1 1 1
v 0.7478783 11.39007 0.1232891 1 1 1
v 0.8476934 10.69369 0.2462886 1 1 1
v 0.4942937 11.03051 0.6329561 1 1 1
v 0.6826375 10.54257 0.4339283 1 1 1
v 0.5254065 10.15963 0.08265741 1 1 1
v 0.7982458 10.61505 -0.2451736 1 1 1
v 0.5130365 10.31133 -0.6103593 1 1 1
v -0.3983059 5.300109 -0.9051048 1 1 1
v 0.2608392 5.488124 -1.005835 1 1 1
v -0.3576268 5.453091 -0.8324519 1 1 1
v 0.3176751 5.272886 -1.048098 1 1 1
v 0.8669868 5.488352 -0.8167843 1 1 1
v -0.2993499 3.907934 -0.622656 1 1 1
v 0.9719814 5.279029 -0.8517077 1 1 1
v 0.2145684 3.907934 -0.6870592 1 1 1
v -0.4143872 2.372595 -0.620248 1 1 1
v 0.6815843 3.907934 -0.556401 1 1 1
v 0.09953109 2.372595 -0.6846513 1 1 1
v 0.6410079 2.372595 -0.5331609 1 1 1
v -0.8506359 0.8600138 -1.090911 1 1 1
v 0.04312384 0.8600138 -1.222262 1 1 1
v 0.9368837 0.8600138 -0.9368835 1 1 1
v 1.341214 0.2763261 -1.304518 1 1 1
v 0.07334295 0.2763261 -1.709351 1 1 1
v -1.194528 0.2763261 -1.523018 1 1 1
v 1.558992 -0.4922433 -1.482767 1 1 1
v 0.09967206 -0.5007092 -1.94873 1 1 1
v 1.685902 -3.407948 -1.607937 1 1 1
v -1.359648 -0.4920681 -1.734261 1 1 1
v 0.1046199 -3.414393 -2.125515 1 1 1
v -1.477312 -3.407683 -1.882822 1 1 1
v -0.3069209 5.9512 0.2444125 1 1 1
v -0.3403052 5.541653 0.4075668 1 1 1
v -0.4768848 5.53165 -0.2009405 1 1 1
v -0.3970726 5.94644 -0.1740232 1 1 1
v -0.3009923 5.502 -0.6171665 1 1 1
v -0.2353724 5.863038 -0.5288544 1 1 1
v -0.191176 6.403378 -0.5986441 1 1 1
v -0.3772699 6.423715 -0.2193451 1 1 1
v -0.3038065 6.425832 0.2798337 1 1 1
v -0.1285998 7.461424 -0.6895169 1 1 1
v -0.3849613 7.48462 -0.2683047 1 1 1
v -0.3384931 7.494028 0.317268 1 1 1
v -0.39694 9.338311 -0.9096973 1 1 1
v -0.6886275 9.331577 -0.2145489 1 1 1
v -0.4520294 9.336123 0.6500305 1 1 1
v -0.6688777 9.834181 -1.071908 1 1 1
v -1.009764 9.833109 -0.1995597 1 1 1
v -0.694209 9.742569 0.8336787 1 1 1
v -0.7228893 9.998652 0.8425256 1 1 1
v -1.005937 9.944389 -0.1938591 1 1 1
v -0.6571814 9.93296 -1.052753 1 1 1
v 1.707801 -3.422074 0.05460144 1 1 1
v 1.039693 -3.609639 0.9128378 1 1 1
v 1.417626 -3.28466 1.342404 1 1 1
v 1.14449 -3.284232 1.668336 1 1 1
v 1.247696 -3.702834 0.02454545 1 1 1
v 0.01620059 -3.703408 1.53319 1 1 1
v 1.685902 -3.407948 -1.607937 1 1 1
v 0.7668338 -3.611539 1.237129 1 1 1
v 0.03476081 -3.412168 2.093233 1 1 1
v 1.243082 -3.702787 -1.206257 1 1 1
v 0.1046199 -3.414393 -2.125515 1 1 1
v 0.06735978 -3.703733 -1.585993 1 1 1
v -1.477312 -3.407683 -1.882822 1 1 1
v -0.1569798 -3.708297 -0.1201297 1 1 1
v -1.105154 -3.70329 -1.411378 1 1 1
v -2.10092 -3.414163 -0.3026529 1 1 1
v -1.563231 -3.703393 -0.2392082 1 1 1
v -1.629906 -3.406175 1.700155 1 1 1
v -1.219464 -3.703269 1.244461 1 1 1
v 0.2608392 5.488124 -1.005835 1 1 1
v 0.8669868 5.488352 -0.8167843 1 1 1
v 0.6029487 5.53336 -0.6107032 1 1 1
v 0.9488714 5.48713 -0.7193627 1 1 1
v 0.1113422 5.534115 -0.7714316 1 1 1
v 0.6528482 5.51951 -0.1072862 1 1 1
v -0.3576268 5.453091 -0.8324519 1 1 1
v 1.013693 5.476598 -0.09343517 1 1 1
v -0.3009923 5.502 -0.6171665 1 1 1
v -0.6305346 5.492885 -0.2193391 1 1 1
v -0.4768848 5.53165 -0.2009405 1 1 1
v -0.4053318 5.509617 0.62304 1 1 1
v -0.3403052 5.541653 0.4075668 1 1 1
v 0.2303562 5.532086 0.7778265 1 1 1
v 0.09233445 5.553353 0.5126188 1 1 1
v 0.8407302 5.464437 0.6332948 1 1 1
v 0.5794638 5.497139 0.3697251 1 1 1
v 0.9468197 5.456657 0.5211136 1 1 1
vn -0.4668782 -0.767485 -0.4393081
vn -0.1388769 -0.852192 -0.5044622
vn -0.04625005 -0.6088936 -0.7919025
vn -0.8512012 0.5214387 -0.05965023
vn -0.5058964 0.5690399 -0.6482766
vn -0.5605188 0.2200199 -0.7983796
vn -0.9715559 0.2273859 -0.06614166
vn -0.579788 0.5758433 0.5764116
vn -0.5677697 -0.08475059 -0.8188131
vn -0.651506 0.2249348 0.7245303
vn -0.9970624 -0.03599292 -0.06760921
vn -0.5849137 0.08504713 -0.8066245
vn -0.6500947 -0.0495418 0.7582364
vn -0.9871532 0.1453939 -0.06625119
vn -0.4602402 0.6856056 -0.5640247
vn -0.6668661 0.1329787 0.7332164
vn -0.6711297 0.736025 -0.08861171
vn -0.4712052 0.7333813 0.490018
vn -0.9328779 0.3557686 -0.05628084
vn -0.4925838 0.7665865 0.4119542
vn -0.6553162 0.3363503 0.6763352
vn -0.6855789 0.7233659 -0.08199628
vn -0.5643032 0.4531285 -0.6900989
vn -0.348312 0.7608929 -0.5474675
vn -0.2921048 0.9161068 0.2746327
vn -0.4162596 0.9077373 -0.05235401
vn -0.3274422 0.8886527 -0.3210577
vn -0.04479123 0.932555 -0.3582387
vn -0.05226762 0.9986053 0.007443825
vn -0.06222253 0.9317853 0.3576375
vn 0.2028546 0.9791885 0.006311749
vn 0.1768993 0.9589149 0.2217858
vn 0.4679133 0.8160315 0.3393374
vn 0.6329898 0.7741553 0.002746843
vn 0.1870485 0.9611549 -0.2029635
vn 0.490408 0.7981275 -0.3499892
vn 0.04704329 0.7477916 -0.6622648
vn 0.736623 0.4023036 -0.5436344
vn 0.490408 0.7981275 -0.3499892
vn 0.04704329 0.7477916 -0.6622648
vn 0.06122075 0.4236417 -0.9037586
vn 0.8047301 -0.1031226 -0.5846154
vn -0.348312 0.7608929 -0.5474675
vn -0.3274422 0.8886527 -0.3210577
vn -0.04479123 0.932555 -0.3582387
vn -0.5643032 0.4531285 -0.6900989
vn 0.07255262 -0.08216164 -0.9939746
vn -0.6272323 -0.1602056 -0.7621769
vn -0.5328965 -0.3534752 -0.7688151
vn 0.1113962 -0.2474051 -0.9624872
vn 0.780161 -0.2521506 -0.5725111
vn -0.5288019 -0.1122188 -0.841294
vn 0.1676712 -0.1256803 -0.977799
vn 0.8278689 -0.1595558 -0.5377499
vn -0.5465147 -0.05382013 -0.8357183
vn 0.1623737 -0.1179636 -0.9796527
vn 0.7912055 -0.2200832 -0.5705763
vn -0.6237421 0.1650167 -0.7640127
vn 0.05609395 0.1780842 -0.9824151
vn 0.7594033 0.1897142 -0.6223465
vn 0.2961648 0.9240228 -0.241802
vn -0.03703068 0.842495 -0.53743
vn -0.3944989 0.8055857 -0.4420435
vn -0.579788 0.5758433 0.5764116
vn -0.6152186 0.5038488 0.6063354
vn -0.8827381 0.4653021 -0.06532526
vn -0.8512012 0.5214387 -0.05965023
vn -0.5435213 0.4911334 -0.6807148
vn -0.5058964 0.5690399 -0.6482766
vn 0.7092515 0.357367 0.6076604
vn 0.4679133 0.8160315 0.3393374
vn 0.6329898 0.7741553 0.002746843
vn 0.9345328 0.3558771 -0.0001308903
vn 0.490408 0.7981275 -0.3499892
vn 0.736623 0.4023036 -0.5436344
vn 0.7847127 -0.2222739 0.5786366
vn 0.9960998 -0.08821818 -0.001662238
vn 0.8047301 -0.1031226 -0.5846154
vn 0.780161 -0.2521506 -0.5725111
vn 0.9809365 -0.1921626 0.02893292
vn 0.752862 -0.3226732 0.5736555
vn 0.8278689 -0.1595558 -0.5377499
vn 0.9851526 -0.1430497 0.09492723
vn 0.647325 -0.1683645 0.7433867
vn 0.7912055 -0.2200832 -0.5705763
vn 0.9681386 -0.2354556 0.08525395
vn 0.6425756 -0.2242213 0.7326809
vn 0.7594033 0.1897142 -0.6223465
vn 0.9935617 0.101679 0.04996495
vn 0.7303743 0.1947237 0.654703
vn 0.3160762 0.9244683 0.2131999
vn 0.5163521 0.8553668 0.04157238
vn 0.2961648 0.9240228 -0.241802
vn -0.002098042 -0.342716 0.9394367
vn -0.6308229 -0.4250523 0.6491479
vn -0.6603224 -0.3488276 0.6650516
vn 0.004413156 -0.3093202 0.9509478
vn -0.4925838 0.7665865 0.4119542
vn -0.2921048 0.9161068 0.2746327
vn -0.06222253 0.9317853 0.3576375
vn 0.006406947 0.7720314 0.6355521
vn 0.1768993 0.9589149 0.2217858
vn -0.6553162 0.3363503 0.6763352
vn 0.4679133 0.8160315 0.3393374
vn -0.02029816 0.3086334 0.9509645
vn -0.6603224 -0.3488276 0.6650516
vn 0.7092515 0.357367 0.6076604
vn 0.004413156 -0.3093202 0.9509478
vn 0.7847127 -0.2222739 0.5786366
vn 0.752862 -0.3226732 0.5736555
vn -0.002098042 -0.342716 0.9394367
vn 0.647325 -0.1683645 0.7433867
vn -0.1020494 -0.1221012 0.9872574
vn -0.6308229 -0.4250523 0.6491479
vn 0.6425756 -0.2242213 0.7326809
vn -0.7674349 -0.1114485 0.6313659
vn -0.08557352 -0.1281253 0.9880593
vn -0.7567776 -0.04951474 0.6517944
vn 0.7303743 0.1947237 0.654703
vn 0.01714102 0.1632703 0.9864325
vn -0.7486569 0.1412177 0.6477426
vn -0.3875712 0.8576342 0.3380119
vn 0.04567055 0.8697267 0.491416
vn 0.3160762 0.9244683 0.2131999
vn 0.5640239 0.1969745 0.8019215
vn 0.5420967 -0.4319386 0.7208053
vn 0.07900144 -0.4691128 0.8795977
vn 0.05832236 0.1841277 0.9811705
vn -0.634366 -0.4380473 0.6369414
vn -0.6902298 0.199524 0.695538
vn 0.4673733 0.4523504 0.7595665
vn 0.8823437 0.1820457 0.4339689
vn 0.8544596 0.3557088 0.3786422
vn 0.6874574 0.4512067 0.5690474
vn 0.03191326 0.4782864 0.8776239
vn -0.6152186 0.5038488 0.6063354
vn 0.001469597 0.5057865 0.8626574
vn -0.001260672 0.1683943 0.9857189
vn -0.579788 0.5758433 0.5764116
vn -0.651506 0.2249348 0.7245303
vn 0.732087 0.1417384 0.6663025
vn 0.7339988 -0.05167193 0.6771822
vn -0.6500947 -0.0495418 0.7582364
vn 0.4926374 -0.09590648 0.8649337
vn 0.008435506 -0.07447155 0.9971874
vn -0.6668661 0.1329787 0.7332164
vn 0.04856817 0.1668605 0.9847836
vn -0.4712052 0.7333813 0.490018
vn -0.0005493904 0.8012134 0.5983783
vn 0.5526987 0.2114221 0.8061172
vn 0.302178 0.8317403 0.4657215
vn 0.9165821 0.1492801 0.370935
vn 0.5788981 0.7913203 0.1966956
vn 0.8823437 0.1820457 0.4339689
vn 0.5420967 -0.4319386 0.7208053
vn 0.5640239 0.1969745 0.8019215
vn 0.7972082 -0.4305065 0.4232297
vn 0.9834005 0.1529505 0.09761979
vn 0.8788863 -0.4631481 0.114248
vn 0.7910496 0.1948158 -0.5799028
vn 0.7228524 -0.4304611 -0.5405439
vn 0.7078056 0.4723884 -0.5252243
vn 0.9312172 0.3578748 0.06899435
vn 0.8544596 0.3557088 0.3786422
vn 0.6681354 0.514132 -0.5378322
vn 0.9367518 0.3496393 0.01575934
vn 0.6874574 0.4512067 0.5690474
vn 0.732087 0.1417384 0.6663025
vn 0.9967563 0.0802878 -0.005557177
vn 0.7339988 -0.05167193 0.6771822
vn 0.7442145 0.1384249 -0.6534396
vn 0.9088005 -0.116932 0.4005104
vn 0.4926374 -0.09590648 0.8649337
vn 0.5526987 0.2114221 0.8061172
vn 0.9165821 0.1492801 0.370935
vn 0.9925497 -0.1218153 0.002502955
vn 0.9134548 -0.1487129 -0.378794
vn 0.5263556 -0.1597244 -0.8351275
vn 0.9975486 0.06950326 0.00812259
vn 0.5788981 0.7913203 0.1966956
vn 0.6521499 0.7578785 0.01791058
vn 0.9293988 0.06415129 -0.3634592
vn 0.5785505 0.04803685 -0.8142308
vn 0.6220374 0.7505005 -0.2232008
vn 0.3508464 0.7403844 -0.5733566
vn -0.6902298 0.199524 0.695538
vn -0.634366 -0.4380473 0.6369414
vn -0.8916831 -0.4477104 -0.0667581
vn -0.9820217 0.1749202 -0.07096697
vn -0.6152186 0.5038488 0.6063354
vn -0.5606287 -0.4373533 -0.7031483
vn -0.8827381 0.4653021 -0.06532526
vn -0.6116756 0.1915794 -0.7675613
vn -0.5435213 0.4911334 -0.6807148
vn 0.4926898 -0.6222409 -0.6083364
vn 0.8037815 -0.5944793 -0.02301245
vn 0.7890369 -0.2374222 -0.566614
vn 0.8814499 -0.0408149 -0.4705105
vn 0.8183396 -0.5594409 0.1317051
vn 0.9371386 0.3427007 -0.0657836
vn 0.7169275 0.6455669 -0.2631699
vn 0.5946454 0.371454 -0.7130349
vn 0.8806567 0.2801546 0.3820435
vn 0.8323289 -0.29417 0.4697793
vn 0.3924315 -0.8096561 0.436411
vn 0.4062312 -0.3502211 0.8439913
vn 0.8814499 -0.0408149 -0.4705105
vn 0.5946454 0.371454 -0.7130349
vn 0.7890369 -0.2374222 -0.566614
vn 0.1863449 0.3157076 -0.9303786
vn 0.08904598 -0.2960695 -0.9510067
vn 0.4926898 -0.6222409 -0.6083364
vn 0.3043984 0.5460536 -0.7804915
vn 0.7169275 0.6455669 -0.2631699
vn -0.2432354 0.8867595 -0.3930575
vn 0.03096714 0.8409147 -0.540281
vn -0.3818102 0.6510483 -0.6560161
vn -0.4837233 0.295521 -0.8238199
vn -0.05227296 -0.2612208 -0.9638627
vn -0.6563272 -0.2076343 -0.725343
vn 0.3924315 -0.8096561 0.436411
vn 0.8183396 -0.5594409 0.1317051
vn 0.8037815 -0.5944793 -0.02301245
vn 0.1923475 -0.9259582 -0.3249674
vn 0.4926898 -0.6222409 -0.6083364
vn 0.1458652 -0.9430472 0.2989739
vn 0.03151191 -0.7717174 0.6351843
vn 0.4062312 -0.3502211 0.8439913
vn 0.0101464 -0.1479016 0.9889501
vn -0.3346253 -0.2637163 0.9046986
vn -0.5147527 -0.7293746 0.4506022
vn -0.09901106 -0.990776 0.09251876
vn -0.7626366 -0.6427498 0.07251305
vn -0.1263305 -0.9919881 0.0004979084
vn -0.1388769 -0.852192 -0.5044622
vn -0.4668782 -0.767485 -0.4393081
vn -0.04625005 -0.6088936 -0.7919025
vn -0.05227296 -0.2612208 -0.9638627
vn 0.08904598 -0.2960695 -0.9510067
vn -0.4668782 -0.767485 -0.4393081
vn -0.6563272 -0.2076343 -0.725343
vn -0.6474885 0.3859703 0.6571038
vn -0.3346253 -0.2637163 0.9046986
vn -0.5147527 -0.7293746 0.4506022
vn -0.8407279 0.42712 0.3327839
vn -0.7626366 -0.6427498 0.07251305
vn -0.9418954 0.3354359 0.01777291
vn -0.9730913 -0.0364618 -0.2275167
vn -0.4668782 -0.767485 -0.4393081
vn -0.7116086 0.6939768 -0.1095877
vn -0.6563272 -0.2076343 -0.725343
vn -0.4837233 0.295521 -0.8238199
vn -0.3346253 -0.2637163 0.9046986
vn -0.6474885 0.3859703 0.6571038
vn 0.0101464 -0.1479016 0.9889501
vn -0.2930243 0.6704577 0.6816329
vn 0.1248171 0.02663872 0.9918221
vn -0.05949524 0.5770365 0.8145485
vn 0.4062312 -0.3502211 0.8439913
vn 0.1712335 0.4799683 0.8604124
vn 0.2847969 0.5228049 0.8034711
vn 0.8323289 -0.29417 0.4697793
vn 0.4254304 0.622915 0.6564951
vn 0.8806567 0.2801546 0.3820435
vn -0.3818102 0.6510483 -0.6560161
vn -0.7116086 0.6939768 -0.1095877
vn -0.4837233 0.295521 -0.8238199
vn -0.2432354 0.8867595 -0.3930575
vn -0.3258372 0.913208 0.2447067
vn -0.02377514 0.9993421 -0.02738608
vn 0.2816053 0.9592826 -0.02179787
vn 0.03096714 0.8409147 -0.540281
vn 0.3043984 0.5460536 -0.7804915
vn 0.7169275 0.6455669 -0.2631699
vn 0.9371386 0.3427007 -0.0657836
vn 0.8806567 0.2801546 0.3820435
vn 0.4254304 0.622915 0.6564951
vn 0.2847969 0.5228049 0.8034711
vn 0.1712335 0.4799683 0.8604124
vn -0.05949524 0.5770365 0.8145485
vn -0.2930243 0.6704577 0.6816329
vn -0.6474885 0.3859703 0.6571038
vn -0.8407279 0.42712 0.3327839
vn -0.9418954 0.3354359 0.01777291
vn 0.2189504 -0.5475435 0.8076243
vn 0.6708786 -0.3795879 0.6370518
vn 0.4691627 -0.8774783 0.09959061
vn -0.153446 -0.8567422 0.4923893
vn -0.4466538 -0.8860365 -0.1242567
vn -0.6186007 -0.3111132 0.7214859
vn -0.8964069 -0.4347771 -0.08616038
vn -0.6007669 -0.3865868 -0.6997355
vn -0.2385133 -0.8888457 -0.3912349
vn -0.004540463 -0.893315 -0.4494082
vn 0.4935923 -0.6365009 -0.5926493
vn 0.1932162 -0.2793597 -0.9405454
vn -0.6186007 -0.3111132 0.7214859
vn 0.2189504 -0.5475435 0.8076243
vn -0.153446 -0.8567422 0.4923893
vn -0.07445707 0.2753974 0.9584427
vn -0.5156242 0.4794281 0.7101271
vn -0.2296924 0.8965653 0.3786981
vn -0.08617754 0.2058309 0.9747857
vn 0.3353803 0.2849781 0.8979463
vn 0.6708786 -0.3795879 0.6370518
vn 0.2921433 0.7680212 0.5699085
vn 0.7634005 0.6013022 0.2359137
vn -0.7385702 0.1169358 -0.663958
vn -0.1401892 0.5511486 -0.8225462
vn -0.5787233 0.6530575 -0.4884623
vn -0.3300046 0.1104811 -0.9374918
vn -0.6007669 -0.3865868 -0.6997355
vn 0.1932162 -0.2793597 -0.9405454
vn 0.3679496 0.5453944 -0.7530988
vn 0.8750827 0.1767034 -0.450562
vn 0.4935923 -0.6365009 -0.5926493
vn -0.7385702 0.1169358 -0.663958
vn -0.5787233 0.6530575 -0.4884623
vn -0.8814502 0.4188897 -0.2181217
vn -0.8964069 -0.4347771 -0.08616038
vn -0.6007669 -0.3865868 -0.6997355
vn -0.8210261 0.5450331 0.1698679
vn -0.6186007 -0.3111132 0.7214859
vn -0.5156242 0.4794281 0.7101271
vn -0.2296924 0.8965653 0.3786981
vn -0.5156242 0.4794281 0.7101271
vn -0.8210261 0.5450331 0.1698679
vn -0.8814502 0.4188897 -0.2181217
vn -0.5787233 0.6530575 -0.4884623
vn -0.1612659 0.9699727 -0.1820616
vn -0.1401892 0.5511486 -0.8225462
vn 0.3679496 0.5453944 -0.7530988
vn 0.2921433 0.7680212 0.5699085
vn 0.3810467 0.9169764 -0.1181428
vn 0.7634005 0.6013022 0.2359137
vn 0.3679496 0.5453944 -0.7530988
vn 0.8750827 0.1767034 -0.450562
vn 0.3810467 0.9169764 -0.1181428
vn 0.7634005 0.6013022 0.2359137
vn 0.9473343 -0.1479728 0.2840099
vn 0.3353803 0.2849781 0.8979463
vn 0.6708786 -0.3795879 0.6370518
vn 0.4691627 -0.8774783 0.09959061
vn 0.9290247 -0.2985968 -0.218525
vn 0.4935923 -0.6365009 -0.5926493
vn -0.5849137 0.08504713 -0.8066245
vn -0.005622743 0.7070044 -0.7071868
vn -0.4602402 0.6856056 -0.5640247
vn 0.06907097 0.01521875 -0.9974957
vn 0.3508464 0.7403844 -0.5733566
vn -0.5677697 -0.08475059 -0.8188131
vn 0.5785505 0.04803685 -0.8142308
vn 0.06506737 -0.1306009 -0.9892976
vn -0.5605188 0.2200199 -0.7983796
vn 0.5263556 -0.1597244 -0.8351275
vn 0.07494313 0.1650165 -0.9834394
vn 0.7442145 0.1384249 -0.6534396
vn -0.5058964 0.5690399 -0.6482766
vn 0.06646142 0.5033703 -0.861511
vn 0.6681354 0.514132 -0.5378322
vn 0.7078056 0.4723884 -0.5252243
vn 0.07082446 0.4671499 -0.8813369
vn -0.5435213 0.4911334 -0.6807148
vn 0.7910496 0.1948158 -0.5799028
vn 0.08112521 0.1759114 -0.9810575
vn 0.7228524 -0.4304611 -0.5405439
vn -0.6116756 0.1915794 -0.7675613
vn 0.07212213 -0.455944 -0.8870814
vn -0.5606287 -0.4373533 -0.7031483
vn -0.7486569 0.1412177 0.6477426
vn -0.3875712 0.8576342 0.3380119
vn -0.6613973 0.7431193 -0.1016237
vn -0.9882126 0.1077646 -0.1087314
vn -0.3944989 0.8055857 -0.4420435
vn -0.6237421 0.1650167 -0.7640127
vn -0.5465147 -0.05382013 -0.8357183
vn -0.9853836 0.000977809 -0.1703474
vn -0.7567776 -0.04951474 0.6517944
vn -0.5288019 -0.1122188 -0.841294
vn -0.9814321 -0.08495713 -0.1719692
vn -0.7674349 -0.1114485 0.6313659
vn -0.5328965 -0.3534752 -0.7688151
vn -0.9221617 -0.375288 -0.09368382
vn -0.6308229 -0.4250523 0.6491479
vn -0.6272323 -0.1602056 -0.7621769
vn -0.9643804 -0.2586325 -0.05549461
vn -0.6603224 -0.3488276 0.6650516
vn -0.6553162 0.3363503 0.6763352
vn -0.9328779 0.3557686 -0.05628084
vn -0.5643032 0.4531285 -0.6900989
vn 0.8788863 -0.4631481 0.114248
vn 0.2917748 -0.941689 0.1675982
vn 0.7972082 -0.4305065 0.4232297
vn 0.5420967 -0.4319386 0.7208053
vn 0.298503 -0.952231 0.06443677
vn 0.05998971 -0.9571763 0.2832219
vn 0.7228524 -0.4304611 -0.5405439
vn 0.215629 -0.9453749 0.2444799
vn 0.07900144 -0.4691128 0.8795977
vn 0.2582237 -0.9516953 -0.1661224
vn 0.07212213 -0.455944 -0.8870814
vn 0.0236569 -0.960012 -0.2789578
vn -0.5606287 -0.4373533 -0.7031483
vn 0.0114453 -0.9998918 0.009242681
vn -0.1836272 -0.9560276 -0.2286753
vn -0.8916831 -0.4477104 -0.0667581
vn -0.2897072 -0.9569461 -0.01799258
vn -0.634366 -0.4380473 0.6369414
vn -0.2136909 -0.9558058 0.2019197
vn -0.005622743 0.7070044 -0.7071868
vn 0.3508464 0.7403844 -0.5733566
vn 0.2961648 0.9240228 -0.241802
vn 0.6220374 0.7505005 -0.2232008
vn -0.03703068 0.842495 -0.53743
vn 0.5163521 0.8553668 0.04157238
vn -0.4602402 0.6856056 -0.5640247
vn 0.6521499 0.7578785 0.01791058
vn -0.3944989 0.8055857 -0.4420435
vn -0.6711297 0.736025 -0.08861171
vn -0.6613973 0.7431193 -0.1016237
vn -0.4712052 0.7333813 0.490018
vn -0.3875712 0.8576342 0.3380119
vn -0.0005493904 0.8012134 0.5983783
vn 0.04567055 0.8697267 0.491416
vn 0.302178 0.8317403 0.4657215
vn 0.3160762 0.9244683 0.2131999
vn 0.5788981 0.7913203 0.1966956
vt 0.2701099 0.6005909
vt 0.2701099 0.6272919
vt 0.2750003 0.6270734
vt 0.8216212 0.3178061
vt 0.8744137 0.3171544
vt 0.8357271 0.2136291
vt 0.808819 0.2140855
vt 0.7422416 0.3178522
vt 0.8338667 0.108769
vt 0.7610838 0.213983
vt 0.8069586 0.1092254
vt 0.8542245 0.01383004
vt 0.7592078 0.1090519
vt 0.8136354 0.01523127
vt 0.8487207 0.003370814
vt 0.7504067 0.01411134
vt 0.8130904 0.001142441
vt 0.7536021 0
vt 0.9413909 0.4544773
vt 0.8818833 0.4268854
vt 0.8706722 0.4350747
vt 0.9402874 0.4398501
vt 1 0.4320222
vt 0.9858074 0.4120581
vt 0.8967274 0.4087529
vt 0.9374555 0.4177938
vt 0.9695854 0.4057615
vt 0.9744186 0.3747629
vt 0.9343516 0.380779
vt 0.8890386 0.3762586
vt 0.9306244 0.3437643
vt 0.8969676 0.3437643
vt 0.8816736 0.3231543
vt 0.9299374 0.3231543
vt 0.9642812 0.3437643
vt 0.9782012 0.3231543
vt 0.9927382 0.3676062
vt 0.7414964 0.3412259
vt 0.7288849 0.3271167
vt 0.6844034 0.3391728
vt 0.6840041 0.3601631
vt 0.7451392 0.3600652
vt 0.6387518 0.3458075
vt 0.6380653 0.3277809
vt 0.6699005 0.3231542
vt 0.6254385 0.3659634
vt 0.685149 0.3672885
vt 0.6255403 0.3728552
vt 0.6473596 0.3999045
vt 0.6951051 0.3946941
vt 0.7416047 0.3836758
vt 0.6800958 0.5161092
vt 0.7117328 0.5136798
vt 0.7400152 0.5072847
vt 0.6842279 0.5841334
vt 0.7113875 0.5835065
vt 0.736679 0.5794249
vt 0.6854163 0.6185704
vt 0.7074985 0.6160426
vt 0.7293864 0.6111199
vt 0.7451392 0.6339726
vt 0.7125489 0.6411983
vt 0.6843159 0.6442897
vt 0.558241 0.7446834
vt 0.5940931 0.774417
vt 0.6224834 0.6657079
vt 0.5782542 0.6680511
vt 0.5940931 0.5779942
vt 0.558241 0.6062192
vt 0.7422416 0.01153974
vt 0.7300286 2.815181E-08
vt 0.6818904 0.00154644
vt 0.6839775 0.01379351
vt 0.6337523 0.003092916
vt 0.6255637 0.01607898
vt 0.7404205 0.0309561
vt 0.6829177 0.03322798
vt 0.6254386 0.03548314
vt 0.6309538 0.06084844
vt 0.6807441 0.05891711
vt 0.7305343 0.05698572
vt 0.6592264 0.1940352
vt 0.690878 0.1929427
vt 0.7229853 0.190538
vt 0.6616714 0.2684679
vt 0.689316 0.2675662
vt 0.7173699 0.265429
vt 0.6640329 0.3012829
vt 0.6873308 0.3006927
vt 0.7093986 0.301501
vt 0.7217382 0.3231543
vt 0.6895664 0.3224545
vt 0.6550632 0.3231544
vt 0.2913963 0.6674495
vt 0.2913963 0.6165637
vt 0.2778206 0.6005909
vt 0.2750003 0.6620573
vt 0.5515295 0.595962
vt 0.5350896 0.5779943
vt 0.5019384 0.5837137
vt 0.4928274 0.6061224
vt 0.4679008 0.581452
vt 0.558241 0.6098866
vt 0.4440176 0.6028792
vt 0.4994354 0.6280329
vt 0.5576293 0.6247622
vt 0.4355988 0.6205139
vt 0.4990366 0.6377527
vt 0.4355988 0.6359846
vt 0.443056 0.6516202
vt 0.4934718 0.6534408
vt 0.4799515 0.7556675
vt 0.5132579 0.7516333
vt 0.5426127 0.6438522
vt 0.4916207 0.8145009
vt 0.5434086 0.740975
vt 0.5199649 0.8112139
vt 0.5466222 0.8024381
vt 0.5016107 0.8393527
vt 0.5236169 0.8376295
vt 0.5492309 0.8289775
vt 0.5543595 0.8583382
vt 0.5253556 0.8641647
vt 0.4920004 0.8657987
vt 0.4521498 0.3773332
vt 0.4355988 0.5519022
vt 0.5103121 0.5779942
vt 0.5208133 0.4014194
vt 0.6241664 0.5698299
vt 0.6254386 0.3940228
vt 0.4667021 0.3272561
vt 0.4355988 0.3662295
vt 0.4493049 0.3154066
vt 0.4647808 0.2840232
vt 0.5249103 0.3467187
vt 0.6157878 0.3406706
vt 0.5282766 0.2949297
vt 0.5277214 0.1881413
vt 0.5923388 0.2906662
vt 0.5633822 0.1855702
vt 0.4904612 0.1816221
vt 0.4892081 0.1377371
vt 0.5607947 0.0949499
vt 0.4941545 0.09209302
vt 0.5251372 0.09747439
vt 0.5756215 0.01963542
vt 0.5234786 0.01884494
vt 0.5723401 0.005136412
vt 0.5289419 0.006963716
vt 0.4800605 0.01249127
vt 0.4872812 0.003799007
vt 0.4739096 0.008749809
vt 0.480147 1.339988E-08
vt 0.4046715 0.3957131
vt 0.4355988 0.593766
vt 0.4237428 0.3969606
vt 0.414716 0.5923341
vt 0.324672 0.4036461
vt 0.3285826 0.6005909
vt 0.2205738 0.4031253
vt 0.2153269 0.6005909
vt 0.2309664 0.3520973
vt 0.3213769 0.3513943
vt 0.3884731 0.3459557
vt 0.2535302 0.3146486
vt 0.3153073 0.3118309
vt 0.3809852 0.3136168
vt 0.3491841 0.2128871
vt 0.3127898 0.2126522
vt 0.3486961 0.1619908
vt 0.2782149 0.2134077
vt 0.3422553 0.1077611
vt 0.3492644 0.1083173
vt 0.3596146 0.009409796
vt 0.3522739 0.00954772
vt 0.3117687 0.1076172
vt 0.2823063 0.1082672
vt 0.2754209 0.1088331
vt 0.3086405 0.01217855
vt 0.34859 0.001464046
vt 0.3070681 1.798717E-05
vt 0.2624507 0.01343279
vt 0.2554491 0.01407163
vt 0.2641552 -1.17606E-08
vt 0.2571355 0.0004523298
vt 0.6323568 0.6967976
vt 0.6254386 0.8958434
vt 0.7657404 0.8970597
vt 0.7619619 0.6980967
vt 0.6441215 0.6442898
vt 0.8589771 0.8959461
vt 0.7567267 0.6448188
vt 0.8481683 0.6969143
vt 0.831621 0.6442898
vt 0.9616907 0.1125116
vt 0.9453154 0.07835954
vt 0.9318743 0.09953326
vt 0.8925214 0.09126873
vt 0.9347084 0.02947687
vt 0.8814538 0.0729091
vt 0.8744137 0.08356656
vt 0.8790476 0.09547663
vt 0.8940142 0.02106978
vt 0.9270211 0.02110236
vt 0.9616907 0.007151867
vt 0.9563682 1.40471E-08
vt 0.9315342 0.9328646
vt 0.9427626 0.9260419
vt 0.8916349 0.9291853
vt 0.9255228 0.8806143
vt 0.8700568 0.854373
vt 0.8589771 0.9087929
vt 0.9438851 0.9055985
vt 0.9511327 0.9289396
vt 0.9333525 0.83698
vt 0.9512964 0.8858358
vt 0.9154599 0.8181815
vt 0.8878071 0.8072953
vt 0.8695014 0.8276596
vt 0.8589771 0.7904569
vt 0.3858388 0.9160866
vt 0.4300674 0.8967376
vt 0.4346692 0.8504596
vt 0.3911584 0.8246371
vt 0.4208779 0.8167405
vt 0.3546031 0.8926789
vt 0.3081591 0.8961198
vt 0.3842399 0.922052
vt 0.3178079 0.922052
vt 0.2991444 0.9178175
vt 0.2964326 0.8890002
vt 0.318668 0.8589174
vt 0.2913962 0.828758
vt 0.333017 0.8293649
vt 0.3336726 0.8084053
vt 0.3086805 0.7992936
vt 0.3351317 0.8043503
vt 0.3470739 0.7738566
vt 0.3728361 0.7813073
vt 0.3086805 0.7992936
vt 0.3078311 0.7787358
vt 0.8696532 0.7841492
vt 0.8833696 0.7904569
vt 0.9204549 0.7586545
vt 0.8728738 0.7454309
vt 0.9188945 0.6982473
vt 0.8783438 0.6918934
vt 0.8981588 0.673027
vt 0.9204549 0.6690226
vt 0.8589771 0.6820961
vt 0.9000711 0.6499514
vt 0.8694171 0.6442897
vt 0.5875758 0.9196575
vt 0.602851 0.9198164
vt 0.5882217 0.8986366
vt 0.6075275 0.8982626
vt 0.5899504 0.8886865
vt 0.601671 0.8829514
vt 0.558241 0.841775
vt 0.6020751 0.855948
vt 0.6037374 0.8117802
vt 0.5771058 0.7905514
vt 0.6075275 0.7866058
vt 0.6026455 0.774417
vt 0.4301583 0.7235556
vt 0.391995 0.752789
vt 0.4355988 0.7450055
vt 0.4205229 0.6990754
vt 0.3402802 0.6979559
vt 0.3974251 0.6398437
vt 0.3933975 0.6218597
vt 0.4128616 0.6472815
vt 0.4195041 0.6323975
vt 0.4022239 0.6083531
vt 0.3917162 0.6044193
vt 0.3394818 0.6005909
vt 0.3309716 0.610783
vt 0.315365 0.6330048
vt 0.2962517 0.6737987
vt 0.2913962 0.7004046
vt 0.2919804 0.7160192
vt 0.2913962 0.7382866
vt 0.3252553 0.7593351
vt 0.3771406 0.7738567
vt 0.4990138 0.9618599
vt 0.5307769 0.9553289
vt 0.5251989 0.9329565
vt 0.4694709 0.952781
vt 0.4549659 0.9035536
vt 0.4355987 0.9549076
vt 0.4380426 0.9084752
vt 0.458383 0.8727533
vt 0.4654364 0.8901516
vt 0.5144026 0.8888455
vt 0.5307769 0.8852115
vt 0.5153398 0.8657985
vt 0.8912128 0.320971
vt 0.8771168 0.2587617
vt 0.8744137 0.2902432
vt 0.9090924 0.30169
vt 0.9337758 0.3194826
vt 0.9528535 0.3021738
vt 0.9094288 0.2661673
vt 0.9155035 0.2373584
vt 0.892785 0.2258592
vt 0.9459053 0.2289356
vt 0.9528536 0.2169589
vt 0.1181354 0.8901517
vt 0.1390656 0.9208202
vt 0.1446373 0.8877351
vt 0.1205074 0.9137024
vt 0.08736436 0.8938431
vt 0.09873553 0.9492791
vt 0.147932 0.9556958
vt 0.1421572 0.9790657
vt 0.08736437 0.9672273
vt 0.1740814 0.8877352
vt 0.147932 0.892472
vt 0.1555556 0.9107147
vt 0.2052003 0.9208922
vt 0.2054793 0.8877352
vt 0.1503379 0.9348755
vt 0.1948004 0.9668703
vt 0.1542298 0.9502413
vt 0.8867685 0.1945459
vt 0.8744138 0.215413
vt 0.888745 0.2169589
vt 0.9141536 0.2156853
vt 0.935024 0.1944999
vt 0.9255561 0.1725147
vt 0.9539608 0.1639578
vt 0.9456767 0.1295097
vt 0.8744138 0.1246874
vt 0.9063775 0.1171598
vt 0.8871753 0.1125116
vt 0.05873598 0.8877352
vt 0.05420841 0.9106133
vt 0.08736423 0.9185417
vt 0.08736423 0.9391711
vt 0.04640981 0.9634812
vt 0.07422934 0.9795495
vt 0.03986258 0.9786009
vt 0.006241923 0.9645815
vt 0.02979581 0.9336807
vt -1.68031E-08 0.9166054
vt 0.09430218 0.01128588
vt 0.1398177 0.002146815
vt 0.09737841 -6.79493E-09
vt 0.1431993 0.01718342
vt 0.1809295 -1.488914E-08
vt 0.09724586 0.0979192
vt 0.1876007 0.01461717
vt 0.13235 0.100176
vt 0.08555253 0.198576
vt 0.1640414 0.09880476
vt 0.1206567 0.2008328
vt 0.1574009 0.1992429
vt 0.05254255 0.3056112
vt 0.1136139 0.3098859
vt 0.1742248 0.3066227
vt 0.2007304 0.3525077
vt 0.114749 0.3571368
vt 0.0281143 0.3510727
vt 0.2138463 0.4067261
vt 0.1148605 0.4126109
vt 0.2153269 0.6009603
vt 0.0151656 0.405063
vt 0.1080892 0.6073867
vt 1.880283E-10 0.5991948
vt 0.7858065 0.5974746
vt 0.7765111 0.6257992
vt 0.8190252 0.6251329
vt 0.8149703 0.5968699
vt 0.8434194 0.626079
vt 0.8356827 0.6016328
vt 0.8383596 0.5646033
vt 0.8165974 0.5642114
vt 0.7824127 0.565195
vt 0.841006 0.4922162
vt 0.8177115 0.4917677
vt 0.7782938 0.4924721
vt 0.8562548 0.3638852
vt 0.8155962 0.3661394
vt 0.7544639 0.3677209
vt 0.8706723 0.329851
vt 0.8191916 0.3321623
vt 0.7457605 0.3405773
vt 0.7451394 0.3231544
vt 0.818513 0.3245864
vt 0.8689955 0.3231544
vt 0.2577119 0.7266537
vt 0.2276413 0.794906
vt 0.257177 0.815722
vt 0.2440286 0.84157
vt 0.2285201 0.7333378
vt 0.1698461 0.8524808
vt 0.230958 0.6168679
vt 0.2145007 0.8206531
vt 0.1777689 0.8877352
vt 0.2095463 0.6519348
vt 0.1184223 0.6073867
vt 0.1259267 0.6452025
vt 0.01729343 0.6481741
vt 0.1333306 0.7457725
vt 0.05091906 0.6751089
vt 5.196565E-09 0.7625694
vt 0.03836074 0.759872
vt 0.06152219 0.8877352
vt 0.08363032 0.8527052
vt 0.9400526 0.5719931
vt 0.9748603 0.5496771
vt 0.9556623 0.5400983
vt 0.9783013 0.5419238
vt 0.9275785 0.5586806
vt 0.9498584 0.5061314
vt 0.8975301 0.5707785
vt 0.9713962 0.4996077
vt 0.8983848 0.5553678
vt 0.8706722 0.5345005
vt 0.8807942 0.5305724
vt 0.8706722 0.4751368
vt 0.8791131 0.4881253
vt 0.9083779 0.4544772
vt 0.9047067 0.4741045
vt 0.9477974 0.454503
vt 0.9365947 0.4759564
vt 0.9562268 0.4602327
usemtl MV_RockDesert_Hoodoo
f 1/1/1 3/3/3 2/2/2
f 4/4/4 6/6/6 5/5/5
f 4/4/4 7/7/7 6/6/6
f 8/8/8 7/7/7 4/4/4
f 7/7/7 9/9/9 6/6/6
f 8/8/8 10/10/10 7/7/7
f 7/7/7 11/11/11 9/9/9
f 10/10/10 11/11/11 7/7/7
f 11/11/11 12/12/12 9/9/9
f 10/10/10 13/13/13 11/11/11
f 11/11/11 14/14/14 12/12/12
f 13/13/13 14/14/14 11/11/11
f 14/14/14 15/15/15 12/12/12
f 13/13/13 16/16/16 14/14/14
f 14/14/14 17/17/17 15/15/15
f 16/16/16 17/17/17 14/14/14
f 16/16/16 18/18/18 17/17/17
f 19/19/19 21/21/21 20/20/20
f 19/19/19 20/20/20 22/22/22
f 23/23/23 19/19/19 22/22/22
f 23/23/23 22/22/22 24/24/24
f 22/22/22 20/20/20 25/25/25
f 24/24/24 22/22/22 26/26/26
f 22/22/22 25/25/25 26/26/26
f 24/24/24 26/26/26 27/27/27
f 28/28/28 27/27/27 26/26/26
f 29/29/29 26/26/26 25/25/25
f 28/28/28 26/26/26 29/29/29
f 29/29/29 25/25/25 30/30/30
f 31/31/31 29/29/29 30/30/30
f 31/31/31 30/30/30 32/32/32
f 33/33/33 31/31/31 32/32/32
f 33/33/33 34/34/34 31/31/31
f 35/35/35 29/29/29 31/31/31
f 34/34/34 35/35/35 31/31/31
f 35/35/35 28/28/28 29/29/29
f 34/34/34 36/36/36 35/35/35
f 36/36/36 28/28/28 35/35/35
f 36/36/36 37/37/37 28/28/28
f 38/38/38 40/40/40 39/39/39
f 38/38/38 41/41/41 40/40/40
f 41/41/41 38/38/38 42/42/42
f 41/41/41 43/43/43 40/40/40
f 40/40/40 43/43/43 44/44/44
f 40/40/40 44/44/44 45/45/45
f 41/41/41 46/46/46 43/43/43
f 46/46/46 41/41/41 47/47/47
f 41/41/41 42/42/42 47/47/47
f 46/46/46 47/47/47 48/48/48
f 49/49/49 48/48/48 47/47/47
f 50/50/50 47/47/47 42/42/42
f 49/49/49 47/47/47 50/50/50
f 50/50/50 42/42/42 51/51/51
f 52/52/52 49/49/49 50/50/50
f 53/53/53 50/50/50 51/51/51
f 52/52/52 50/50/50 53/53/53
f 53/53/53 51/51/51 54/54/54
f 55/55/55 52/52/52 53/53/53
f 56/56/56 53/53/53 54/54/54
f 55/55/55 53/53/53 56/56/56
f 56/56/56 54/54/54 57/57/57
f 58/58/58 55/55/55 56/56/56
f 59/59/59 56/56/56 57/57/57
f 58/58/58 56/56/56 59/59/59
f 59/59/59 57/57/57 60/60/60
f 59/59/59 60/60/60 61/61/61
f 59/59/59 61/61/61 62/62/62
f 58/58/58 59/59/59 62/62/62
f 58/58/58 62/62/62 63/63/63
f 64/64/64 66/66/66 65/65/65
f 64/64/64 67/67/67 66/66/66
f 67/67/67 68/68/68 66/66/66
f 67/67/67 69/69/69 68/68/68
f 70/70/70 72/72/72 71/71/71
f 70/70/70 73/73/73 72/72/72
f 73/73/73 74/74/74 72/72/72
f 73/73/73 75/75/75 74/74/74
f 73/73/73 70/70/70 76/76/76
f 75/75/75 73/73/73 77/77/77
f 73/73/73 76/76/76 77/77/77
f 75/75/75 77/77/77 78/78/78
f 79/79/79 78/78/78 77/77/77
f 80/80/80 77/77/77 76/76/76
f 79/79/79 77/77/77 80/80/80
f 80/80/80 76/76/76 81/81/81
f 82/82/82 79/79/79 80/80/80
f 83/83/83 80/80/80 81/81/81
f 82/82/82 80/80/80 83/83/83
f 83/83/83 81/81/81 84/84/84
f 85/85/85 82/82/82 83/83/83
f 86/86/86 83/83/83 84/84/84
f 85/85/85 83/83/83 86/86/86
f 86/86/86 84/84/84 87/87/87
f 88/88/88 85/85/85 86/86/86
f 89/89/89 86/86/86 87/87/87
f 88/88/88 86/86/86 89/89/89
f 89/89/89 87/87/87 90/90/90
f 89/89/89 90/90/90 91/91/91
f 89/89/89 91/91/91 92/92/92
f 88/88/88 89/89/89 92/92/92
f 88/88/88 92/92/92 93/93/93
f 94/94/94 96/96/96 95/95/95
f 94/94/94 97/97/97 96/96/96
f 98/98/98 100/100/100 99/99/99
f 98/98/98 101/101/101 100/100/100
f 101/101/101 102/102/102 100/100/100
f 103/103/103 101/101/101 98/98/98
f 101/101/101 104/104/104 102/102/102
f 103/103/103 105/105/105 101/101/101
f 105/105/105 104/104/104 101/101/101
f 105/105/105 103/103/103 106/106/106
f 105/105/105 107/107/107 104/104/104
f 105/105/105 106/106/106 108/108/108
f 107/107/107 105/105/105 108/108/108
f 107/107/107 108/108/108 109/109/109
f 110/110/110 109/109/109 108/108/108
f 110/110/110 108/108/108 111/111/111
f 112/112/112 110/110/110 111/111/111
f 112/112/112 111/111/111 113/113/113
f 113/113/113 111/111/111 114/114/114
f 115/115/115 112/112/112 113/113/113
f 113/113/113 114/114/114 116/116/116
f 115/115/115 113/113/113 117/117/117
f 117/117/117 113/113/113 116/116/116
f 117/117/117 116/116/116 118/118/118
f 119/119/119 115/115/115 117/117/117
f 120/120/120 117/117/117 118/118/118
f 119/119/119 117/117/117 120/120/120
f 120/120/120 118/118/118 121/121/121
f 120/120/120 121/121/121 122/122/122
f 120/120/120 122/122/122 123/123/123
f 119/119/119 120/120/120 123/123/123
f 119/119/119 123/123/123 124/124/124
f 125/125/125 127/127/127 126/126/126
f 125/125/125 128/128/128 127/127/127
f 128/128/128 129/129/129 127/127/127
f 128/128/128 130/130/130 129/129/129
f 131/131/131 128/128/128 125/125/125
f 131/131/131 125/125/125 132/132/132
f 131/131/131 132/132/132 133/133/133
f 131/131/131 133/133/133 134/134/134
f 135/135/135 130/130/130 128/128/128
f 131/131/131 135/135/135 128/128/128
f 134/134/134 135/135/135 131/131/131
f 135/135/135 136/136/136 130/130/130
f 137/137/137 136/136/136 135/135/135
f 134/134/134 137/137/137 135/135/135
f 134/134/134 138/138/138 137/137/137
f 137/137/137 139/139/139 136/136/136
f 137/137/137 140/140/140 139/139/139
f 137/137/137 138/138/138 140/140/140
f 134/134/134 141/141/141 138/138/138
f 141/141/141 142/142/142 138/138/138
f 138/138/138 143/143/143 140/140/140
f 138/138/138 142/142/142 144/144/144
f 138/138/138 145/145/145 143/143/143
f 138/138/138 144/144/144 145/145/145
f 145/145/145 146/146/146 143/143/143
f 144/144/144 147/147/147 145/145/145
f 145/145/145 147/147/147 146/146/146
f 147/147/147 148/148/148 146/146/146
f 147/147/147 149/149/149 148/148/148
f 144/144/144 150/150/150 147/147/147
f 150/150/150 149/149/149 147/147/147
f 150/150/150 151/151/151 149/149/149
f 151/151/151 150/150/150 152/152/152
f 151/151/151 152/152/152 153/153/153
f 154/154/154 156/156/156 155/155/155
f 154/154/154 155/155/155 157/157/157
f 158/158/158 154/154/154 157/157/157
f 158/158/158 157/157/157 159/159/159
f 160/160/160 158/158/158 159/159/159
f 160/160/160 159/159/159 161/161/161
f 162/162/162 158/158/158 160/160/160
f 163/163/163 154/154/154 158/158/158
f 162/162/162 163/163/163 158/158/158
f 163/163/163 164/164/164 154/154/154
f 165/165/165 163/163/163 162/162/162
f 166/166/166 164/164/164 163/163/163
f 165/165/165 166/166/166 163/163/163
f 166/166/166 167/167/167 164/164/164
f 166/166/166 168/168/168 167/167/167
f 165/165/165 169/169/169 166/166/166
f 166/166/166 169/169/169 168/168/168
f 170/170/170 168/168/168 169/169/169
f 165/165/165 171/171/171 169/169/169
f 169/169/169 172/172/172 170/170/170
f 172/172/172 173/173/173 170/170/170
f 174/174/174 173/173/173 172/172/172
f 174/174/174 172/172/172 175/175/175
f 169/169/169 176/176/176 172/172/172
f 171/171/171 176/176/176 169/169/169
f 176/176/176 175/175/175 172/172/172
f 171/171/171 177/177/177 176/176/176
f 178/178/178 177/177/177 171/171/171
f 176/176/176 179/179/179 175/175/175
f 177/177/177 179/179/179 176/176/176
f 179/179/179 180/180/180 175/175/175
f 179/179/179 181/181/181 180/180/180
f 182/182/182 177/177/177 178/178/178
f 177/177/177 182/182/182 179/179/179
f 182/182/182 181/181/181 179/179/179
f 182/182/182 178/178/178 183/183/183
f 182/182/182 184/184/184 181/181/181
f 184/184/184 182/182/182 183/183/183
f 184/184/184 183/183/183 185/185/185
f 186/186/186 188/188/188 187/187/187
f 186/186/186 189/189/189 188/188/188
f 190/190/190 189/189/189 186/186/186
f 189/189/189 191/191/191 188/188/188
f 190/190/190 192/192/192 189/189/189
f 189/189/189 193/193/193 191/191/191
f 192/192/192 193/193/193 189/189/189
f 192/192/192 194/194/194 193/193/193
f 195/195/195 197/197/197 196/196/196
f 197/197/197 198/198/198 196/196/196
f 196/196/196 198/198/198 199/199/199
f 198/198/198 200/200/200 199/199/199
f 200/200/200 198/198/198 201/201/201
f 201/201/201 198/198/198 202/202/202
f 200/200/200 203/203/203 199/199/199
f 199/199/199 203/203/203 204/204/204
f 205/205/205 199/199/199 204/204/204
f 206/206/206 205/205/205 204/204/204
f 207/207/207 209/209/209 208/208/208
f 210/210/210 208/208/208 209/209/209
f 211/211/211 210/210/210 209/209/209
f 209/209/209 212/212/212 211/211/211
f 213/213/213 208/208/208 210/210/210
f 213/213/213 214/214/214 208/208/208
f 215/215/215 213/213/213 210/210/210
f 215/215/215 216/216/216 213/213/213
f 215/215/215 210/210/210 217/217/217
f 210/210/210 211/211/211 217/217/217
f 218/218/218 217/217/217 211/211/211
f 211/211/211 219/219/219 218/218/218
f 218/218/218 219/219/219 220/220/220
f 221/221/221 223/223/223 222/222/222
f 223/223/223 221/221/221 224/224/224
f 223/223/223 224/224/224 225/225/225
f 226/226/226 224/224/224 221/221/221
f 226/226/226 221/221/221 227/227/227
f 228/228/228 227/227/227 221/221/221
f 229/229/229 227/227/227 228/228/228
f 229/229/229 230/230/230 227/227/227
f 227/227/227 230/230/230 231/231/231
f 227/227/227 231/231/231 226/226/226
f 226/226/226 231/231/231 232/232/232
f 232/232/232 231/231/231 233/233/233
f 226/226/226 232/232/232 234/234/234
f 226/226/226 234/234/234 224/224/224
f 234/234/234 232/232/232 233/233/233
f 234/234/234 235/235/235 224/224/224
f 233/233/233 235/235/235 234/234/234
f 235/235/235 225/225/225 224/224/224
f 233/233/233 236/236/236 235/235/235
f 235/235/235 237/237/237 225/225/225
f 237/237/237 238/238/238 225/225/225
f 239/239/239 225/225/225 238/238/238
f 240/240/240 238/238/238 237/237/237
f 241/241/241 238/238/238 240/240/240
f 242/242/242 244/244/244 243/243/243
f 245/245/245 244/244/244 242/242/242
f 246/246/246 244/244/244 245/245/245
f 245/245/245 247/247/247 246/246/246
f 247/247/247 248/248/248 246/246/246
f 248/248/248 249/249/249 246/246/246
f 248/248/248 247/247/247 250/250/250
f 248/248/248 251/251/251 249/249/249
f 248/248/248 250/250/250 251/251/251
f 252/252/252 251/251/251 250/250/250
f 253/253/253 255/255/255 254/254/254
f 254/254/254 255/255/255 256/256/256
f 256/256/256 255/255/255 257/257/257
f 256/256/256 257/257/257 258/258/258
f 257/257/257 255/255/255 259/259/259
f 258/258/258 257/257/257 260/260/260
f 260/260/260 257/257/257 261/261/261
f 262/262/262 257/257/257 259/259/259
f 257/257/257 262/262/262 261/261/261
f 263/263/263 261/261/261 262/262/262
f 262/262/262 264/264/264 263/263/263
f 265/265/265 267/267/267 266/266/266
f 266/266/266 268/268/268 265/265/265
f 269/269/269 268/268/268 266/266/266
f 270/270/270 268/268/268 269/269/269
f 271/271/271 270/270/270 269/269/269
f 268/268/268 270/270/270 272/272/272
f 270/270/270 271/271/271 272/272/272
f 271/271/271 273/273/273 272/272/272
f 271/271/271 274/274/274 273/273/273
f 275/275/275 274/274/274 271/271/271
f 271/271/271 276/276/276 275/275/275
f 277/277/277 276/276/276 271/271/271
f 277/277/277 271/271/271 269/269/269
f 277/277/277 269/269/269 278/278/278
f 279/279/279 278/278/278 269/269/269
f 279/279/279 269/269/269 280/280/280
f 280/280/280 269/269/269 281/281/281
f 269/269/269 282/282/282 281/281/281
f 266/266/266 282/282/282 269/269/269
f 282/282/282 266/266/266 283/283/283
f 284/284/284 283/283/283 266/266/266
f 285/285/285 287/287/287 286/286/286
f 287/287/287 285/285/285 288/288/288
f 288/288/288 289/289/289 287/287/287
f 288/288/288 290/290/290 289/289/289
f 290/290/290 291/291/291 289/289/289
f 289/289/289 291/291/291 292/292/292
f 293/293/293 287/287/287 289/289/289
f 292/292/292 293/293/293 289/289/289
f 294/294/294 287/287/287 293/293/293
f 292/292/292 294/294/294 293/293/293
f 295/295/295 287/287/287 294/294/294
f 294/294/294 292/292/292 296/296/296
f 294/294/294 296/296/296 295/295/295
f 297/297/297 299/299/299 298/298/298
f 300/300/300 297/297/297 298/298/298
f 300/300/300 301/301/301 297/297/297
f 300/300/300 302/302/302 301/301/301
f 303/303/303 300/300/300 298/298/298
f 300/300/300 303/303/303 302/302/302
f 304/304/304 303/303/303 298/298/298
f 303/303/303 304/304/304 302/302/302
f 298/298/298 305/305/305 304/304/304
f 306/306/306 302/302/302 304/304/304
f 307/307/307 306/306/306 304/304/304
f 308/308/308 310/310/310 309/309/309
f 308/308/308 309/309/309 311/311/311
f 308/308/308 311/311/311 312/312/312
f 311/311/311 313/313/313 312/312/312
f 313/313/313 311/311/311 309/309/309
f 314/314/314 313/313/313 309/309/309
f 315/315/315 313/313/313 314/314/314
f 315/315/315 316/316/316 313/313/313
f 317/317/317 319/319/319 318/318/318
f 317/317/317 320/320/320 319/319/319
f 317/317/317 321/321/321 320/320/320
f 322/322/322 319/319/319 320/320/320
f 323/323/323 322/322/322 320/320/320
f 323/323/323 324/324/324 322/322/322
f 325/325/325 327/327/327 326/326/326
f 325/325/325 328/328/328 327/327/327
f 329/329/329 328/328/328 325/325/325
f 325/325/325 330/330/330 329/329/329
f 331/331/331 329/329/329 330/330/330
f 330/330/330 332/332/332 331/331/331
f 330/330/330 325/325/325 333/333/333
f 330/330/330 334/334/334 332/332/332
f 334/334/334 330/330/330 333/333/333
f 333/333/333 335/335/335 334/334/334
f 336/336/336 338/338/338 337/337/337
f 339/339/339 337/337/337 338/338/338
f 340/340/340 337/337/337 339/339/339
f 340/340/340 339/339/339 341/341/341
f 340/340/340 341/341/341 342/342/342
f 343/343/343 340/340/340 342/342/342
f 344/344/344 337/337/337 340/340/340
f 340/340/340 343/343/343 344/344/344
f 344/344/344 345/345/345 337/337/337
f 344/344/344 343/343/343 345/345/345
f 346/346/346 348/348/348 347/347/347
f 346/346/346 347/347/347 349/349/349
f 349/349/349 347/347/347 350/350/350
f 351/351/351 346/346/346 349/349/349
f 349/349/349 350/350/350 352/352/352
f 351/351/351 349/349/349 353/353/353
f 353/353/353 349/349/349 352/352/352
f 354/354/354 351/351/351 353/353/353
f 353/353/353 352/352/352 355/355/355
f 354/354/354 353/353/353 356/356/356
f 356/356/356 353/353/353 355/355/355
f 356/356/356 355/355/355 357/357/357
f 358/358/358 354/354/354 356/356/356
f 359/359/359 356/356/356 357/357/357
f 358/358/358 356/356/356 359/359/359
f 359/359/359 357/357/357 360/360/360
f 359/359/359 360/360/360 361/361/361
f 358/358/358 359/359/359 362/362/362
f 359/359/359 361/361/361 362/362/362
f 358/358/358 362/362/362 363/363/363
f 362/362/362 361/361/361 364/364/364
f 363/363/363 362/362/362 365/365/365
f 362/362/362 364/364/364 365/365/365
f 365/365/365 364/364/364 366/366/366
f 363/363/363 365/365/365 367/367/367
f 365/365/365 366/366/366 368/368/368
f 367/367/367 365/365/365 368/368/368
f 367/367/367 368/368/368 369/369/369
f 370/370/370 372/372/372 371/371/371
f 370/370/370 373/373/373 372/372/372
f 373/373/373 374/374/374 372/372/372
f 373/373/373 375/375/375 374/374/374
f 373/373/373 376/376/376 375/375/375
f 370/370/370 377/377/377 373/373/373
f 373/373/373 377/377/377 376/376/376
f 370/370/370 378/378/378 377/377/377
f 377/377/377 379/379/379 376/376/376
f 378/378/378 380/380/380 377/377/377
f 377/377/377 380/380/380 379/379/379
f 378/378/378 381/381/381 380/380/380
f 380/380/380 382/382/382 379/379/379
f 381/381/381 383/383/383 380/380/380
f 380/380/380 383/383/383 382/382/382
f 381/381/381 384/384/384 383/383/383
f 383/383/383 385/385/385 382/382/382
f 384/384/384 386/386/386 383/383/383
f 383/383/383 386/386/386 385/385/385
f 384/384/384 387/387/387 386/386/386
f 388/388/388 386/386/386 387/387/387
f 388/388/388 389/389/389 386/386/386
f 389/389/389 385/385/385 386/386/386
f 389/389/389 390/390/390 385/385/385
f 391/391/391 393/393/393 392/392/392
f 394/394/394 392/392/392 393/393/393
f 391/391/391 392/392/392 395/395/395
f 396/396/396 395/395/395 392/392/392
f 397/397/397 391/391/391 395/395/395
f 394/394/394 398/398/398 392/392/392
f 396/396/396 392/392/392 398/398/398
f 394/394/394 396/396/396 398/398/398
f 394/394/394 399/399/399 396/396/396
f 397/397/397 395/395/395 400/400/400
f 401/401/401 397/397/397 400/400/400
f 401/401/401 400/400/400 402/402/402
f 402/402/402 400/400/400 395/395/395
f 403/403/403 401/401/401 402/402/402
f 402/402/402 395/395/395 404/404/404
f 395/395/395 396/396/396 404/404/404
f 403/403/403 402/402/402 405/405/405
f 405/405/405 402/402/402 404/404/404
f 406/406/406 403/403/403 405/405/405
f 405/405/405 404/404/404 407/407/407
f 406/406/406 405/405/405 407/407/407
f 407/407/407 404/404/404 396/396/396
f 408/408/408 406/406/406 407/407/407
f 399/399/399 409/409/409 396/396/396
f 399/399/399 408/408/408 409/409/409
f 408/408/408 407/407/407 409/409/409
f 407/407/407 396/396/396 409/409/409
f 410/410/410 412/412/412 411/411/411
f 413/413/413 411/411/411 412/412/412
f 410/410/410 414/414/414 412/412/412
f 413/413/413 412/412/412 415/415/415
f 416/416/416 414/414/414 410/410/410
f 413/413/413 415/415/415 417/417/417
f 416/416/416 418/418/418 414/414/414
f 419/419/419 418/418/418 416/416/416
f 419/419/419 420/420/420 418/418/418
f 421/421/421 420/420/420 419/419/419
f 421/421/421 422/422/422 420/420/420
f 423/423/423 422/422/422 421/421/421
f 423/423/423 424/424/424 422/422/422
f 425/425/425 424/424/424 423/423/423
f 417/417/417 415/415/415 426/426/426
f 425/425/425 426/426/426 424/424/424
f 417/417/417 426/426/426 427/427/427
f 425/425/425 427/427/427 426/426/426
