mtllib P_RockHexic_Spire04.mtl
v -3.339967 13.54873 -0.8483384 0 0 0
v -5.292731 13.46746 -1.041958 0 0 0
v -5.228123 13.34658 -0.918422 0 0 0
v 3.214814 -16.44469 0.6191273 0 0.3058824 0
v 2.214523 -16.41258 -1.07425 0 0 0
v 2.246669 -4.000578 -1.057088 0 0 0
v 3.24481 -3.05729 0.5975319 0 0 0
v 2.305828 -2.346791 -1.019698 0 0 0
v 3.214545 0.7228124 0.6193209 0 0 0
v 2.246669 1.315504 -1.057088 0 0 0
v 4.187719 -2.259386 0.593177 0 0 0
v 3.214545 18.18293 0.6193209 0 0.9490196 0
v 2.246669 18.18293 -1.057088 0 0.8156863 0
v 5.150296 18.18293 0.6193209 0 0.7921569 0
v 3.283827 18.30293 0.499321 0 0.9529412 0
v 5.081014 18.30293 0.4993209 0 0.8 0
v 5.150296 0.1301203 0.6193209 0 0 0
v 6.118171 18.18293 -1.057088 0 0.1529412 0
v 6.118171 0.1301203 -1.057088 0 0 0
v 6.045566 -2.237501 -1.096353 0 0 0
v 5.143398 -2.374677 0.5941442 0 0 0
v 6.038694 -2.452941 -1.101194 0 0 0
v 5.12841 -2.547815 0.5668309 0 0 0
v 6.064187 -2.589237 -1.062302 0 0 0
v 5.141978 -2.69177 0.5889603 0 0 0
v 6.117708 -16.4447 -1.057133 0 0 0
v 5.150224 -16.44469 0.6190583 0 0 0
v 5.080824 -16.5647 0.4996499 0 0 0
v 3.283629 -16.5647 0.499663 0 0.3254902 0
v 5.150296 -16.4447 -2.733498 0 0 0
v 6.117708 -16.4447 -1.057133 0 0 0
v 6.064187 -2.589237 -1.062302 0 0 0
v 5.150296 -2.341771 -2.733498 0 0 0
v 6.038694 -2.452941 -1.101194 0 0 0
v 6.045566 -2.237501 -1.096353 0 0 0
v 6.118171 0.1301203 -1.057088 0 0 0
v 3.214545 -3.457359 -2.733498 0 0 0
v 3.214545 -16.4447 -2.733498 0 0 0
v 5.150296 0.7228124 -2.733498 0 0 0
v 6.118171 18.18293 -1.057088 0 0.1529412 0
v 5.150296 18.18293 -2.733498 0 0.3411765 0
v 2.246669 -4.000578 -1.057088 0 0 0
v 2.214523 -16.41258 -1.07425 0 0 0
v 2.305828 -2.346791 -1.019698 0 0 0
v 3.282776 -1.713343 -2.733498 0 0 0
v 2.246669 1.315504 -1.057088 0 0 0
v 3.214545 1.315504 -2.733498 0 0 0
v 3.214545 18.18293 -2.733498 0 0.7803922 0
v 2.246669 18.18293 -1.057088 0 0.8156863 0
v -0.7902463 17.87916 0.6503636 0 1 0
v -0.7902463 -17.42843 0.6503636 0 0.5019608 0
v 0.2662052 -17.42843 -1.179464 0 0.7882353 0
v 0.2662052 17.87916 -1.179464 0 0.7686275 0
v 2.379109 -17.42843 -1.179464 0 0.6 0
v 2.379109 17.87916 -1.179464 0 0.8156863 0
v 3.43556 -17.42843 0.6503636 0 0.7882353 0
v 3.43556 17.87916 0.6503636 0 0.9647059 0
v 3.43556 17.87916 0.6503636 0 0.9647059 0
v 3.43556 -17.42843 0.6503636 0 0.7882353 0
v 2.379109 -17.42843 2.480192 0 0 0
v 2.379109 17.87916 2.480192 0 0.2470588 0
v 0.2662052 -17.42843 2.480192 0 0 0
v 2.309827 -17.54844 2.360192 0 0.1411765 0
v 0.3354872 -17.54844 2.360192 0 0 0
v 0.2662052 17.87916 2.480192 0 0.8 0
v 2.309827 17.99916 2.360192 0 0.2901961 0
v 0.3354872 17.99916 2.360192 0 0.8980392 0
v -0.7902463 -17.42843 0.6503636 0 0.5019608 0
v -0.7902463 17.87916 0.6503636 0 1 0
v -0.6933728 18.20397 -2.681346 0 0.7568628 0
v -0.6933728 -17.16256 -2.681346 0 0.7647059 0
v 0.2745026 -17.16256 -4.357756 0 0 0
v 0.2745026 18.20397 -4.357756 0 0.1764706 0
v 2.210253 -17.16256 -4.357756 0 0 0
v 2.210253 18.20397 -4.357756 0 0 0
v 3.178129 -17.16256 -2.681346 0 0.1764706 0
v 3.178129 18.20397 -2.681346 0 0.7921569 0
v 3.178129 18.20397 -2.681346 0 0.7921569 0
v 3.178129 -17.16256 -2.681346 0 0.1764706 0
v 2.210253 -17.16256 -1.004936 0 0.4235294 0
v 2.210253 18.20397 -1.004936 0 0.8156863 0
v 0.2745026 -17.16256 -1.004936 0 0.682353 0
v 2.140971 -17.28256 -1.124936 0 0.5960785 0
v 0.3437846 -17.28256 -1.124936 0 0.7882353 0
v 0.2745026 18.20397 -1.004936 0 0.7882353 0
v -0.6933728 -17.16256 -2.681346 0 0.7647059 0
v -0.6933728 18.20397 -2.681346 0 0.7568628 0
v 0.3437846 18.32397 -1.124936 0 0.7882353 0
v 2.140971 18.32397 -1.124936 0 0.7960784 0
v -3.54339 18.13797 -0.9151384 0 0.5686275 0
v -3.54339 -17.16256 -0.9151384 0 0.4784314 0
v -2.575514 -17.16256 -2.591548 0 0 0
v -2.575514 18.13797 -2.591548 0 0.3607843 0
v -0.6397635 -17.16256 -2.591548 0 0.7882353 0
v -0.6397635 18.13797 -2.591548 0 0.772549 0
v 0.3281119 -17.16256 -0.9151384 0 0.572549 0
v 0.3281119 18.13797 -0.9151384 0 0.7882353 0
v 0.3281119 18.13797 -0.9151384 0 0.7882353 0
v 0.3281119 -17.16256 -0.9151384 0 0.572549 0
v -0.6397635 -17.16256 0.7612709 0 0.3647059 0
v -0.6397635 18.13797 0.7612709 0 1 0
v -2.575514 -17.16256 0.7612709 0 0.9333333 0
v -2.506232 -17.28256 0.6412709 0 0.9098039 0
v -0.7090455 -17.28256 0.6412709 0 0.4078431 0
v -2.575514 18.13797 0.7612709 0 0.9411765 0
v -3.54339 -17.16256 -0.9151384 0 0.4784314 0
v -3.54339 18.13797 -0.9151384 0 0.5686275 0
v -2.506232 18.25797 0.6412709 0 0.9607843 0
v -0.7090455 18.25797 0.6412709 0 1 0
v -2.475441 -17.17066 4.04076 0 0.7882353 0
v -3.443316 -17.17066 2.36435 0 0.9686275 0
v -3.378071 3.304171 2.363439 0 0 0
v -2.410196 3.304171 4.039849 0 0 0
v -3.454213 17.66643 2.443029 0 0.7137255 0
v -2.486337 17.66643 4.11944 0 0.7686275 0
v -0.5396898 -17.17066 4.04076 0 0 0
v -0.6093543 -17.29066 3.920765 0 0.0627451 0
v -2.406541 -17.29066 3.920765 0 0.7921569 0
v -0.4744451 3.304171 4.039849 0 0 0
v 0.4281858 -17.17066 2.36435 0 0 0
v 0.4934305 3.304171 2.363439 0 0.8078431 0
v 0.417289 17.66643 2.443029 0 0.8431373 0
v -0.5505863 17.66643 4.11944 0 0 0
v -0.6205046 17.78643 4.000105 0 0 0
v -2.417691 17.78643 4.000105 0 0.7843137 0
v -3.378071 3.304171 2.363439 0 0 0
v -3.443316 -17.17066 2.36435 0 0.9686275 0
v -2.475441 -17.17066 0.6879401 0 0.9294118 0
v -2.410196 3.304171 0.6870293 0 0 0
v -0.5396898 -17.17066 0.6879401 0 0.2352941 0
v -2.486337 17.66643 0.7666201 0 0.8980392 0
v -3.454213 17.66643 2.443029 0 0.7137255 0
v -0.5505863 17.66643 0.7666201 0 1 0
v -0.4744451 3.304171 0.6870293 0 0 0
v 0.4281858 -17.17066 2.36435 0 0 0
v 0.4934305 3.304171 2.363439 0 0.8078431 0
v 0.417289 17.66643 2.443029 0 0.8431373 0
v 2.074455 -6.609687 2.259912 0 0.945098 0
v 1.753764 -17.06996 2.097757 0 0.3019608 0
v 2.950746 -17.07292 0.03330639 0 0.454902 0
v 3.271436 -6.61264 0.1954613 0 0.8901961 0
v 5.336401 -17.11898 0.03739115 0 0 0
v 5.657091 -6.658702 0.1995462 0 0.9254902 0
v 5.263218 -17.23874 0.1554083 0 0 0
v 3.016106 -17.19535 0.1515607 0 0.6235294 0
v 6.525074 -17.16209 2.105927 0 0 0
v 6.845764 -6.701808 2.268082 0 0.7882353 0
v 2.942436 -17.11307 4.166293 0 0 0
v 1.753764 -17.06996 2.097757 0 0.3019608 0
v 2.074455 -6.609687 2.259912 0 0.945098 0
v 3.263127 -6.652794 4.328448 0 0.3803922 0
v 5.328093 -17.15913 4.170378 0 0 0
v 5.648782 -6.698855 4.332533 0 0.0627451 0
v 6.525074 -17.16209 2.105927 0 0 0
v 6.845764 -6.701808 2.268082 0 0.7882353 0
v 3.336309 -6.533031 4.210431 0 0.5921569 0
v 5.583422 -6.576418 4.214278 0 0.1647059 0
v -0.4123881 2.203085 3.901791 0 0.9254902 0
v -0.4123881 -17.16256 3.901791 0 0 0
v 0.5554873 -17.16256 2.225382 0 0 0
v 0.5554873 2.203085 2.225382 0 0.9960784 0
v 2.491238 -17.16256 2.225382 0 0.4235294 0
v 2.491238 2.203085 2.225382 0 0.9803922 0
v 3.459113 -17.16256 3.901791 0 0 0
v 3.459113 2.203085 3.901791 0 0.1647059 0
v 3.459113 2.203085 3.901791 0 0.1647059 0
v 3.459113 -17.16256 3.901791 0 0 0
v 2.491238 -17.16256 5.578201 0 0 0
v 2.491238 2.203085 5.578201 0 0 0
v 0.5554873 -17.16256 5.578201 0 0 0
v 2.421956 -17.28256 5.458201 0 0 0
v 0.6247693 -17.28256 5.458201 0 0 0
v 0.5554873 2.203085 5.578201 0 0.7882353 0
v -0.4123881 -17.16256 3.901791 0 0 0
v -0.4123881 2.203085 3.901791 0 0.9254902 0
v 0.6247693 2.323085 5.458201 0 0.7882353 0
v 2.421956 2.323085 5.458201 0 0 0
v -2.990707 -16.51337 -1.141732 0 0.2588235 0
v -1.942583 -16.48126 0.6326218 0 0.854902 0
v -1.976267 -4.069257 0.6146398 0 0 0
v -3.022138 -3.125969 -1.119104 0 0 0
v -2.038255 -2.415469 0.5754615 0 0 0
v -2.990425 0.654134 -1.141935 0 0 0
v -1.976267 1.246826 0.6146398 0 0 0
v -4.010137 -2.328064 -1.114541 0 0 0
v -3.025063 13.47927 -1.137437 0 0 0
v -2.010889 13.47928 0.6191359 0 0 0
v -5.053392 13.31207 -1.137435 0 0 0
v -4.985007 13.44358 -1.017464 0 0 0
v -3.094631 13.5994 -1.017462 0 0 0
v -5.018744 0.06144214 -1.141934 0 0 0
v -6.032903 0.06144214 0.6146401 0 0 0
v -6.067551 13.31207 0.6191395 0 0 0
v -5.956825 -2.30618 0.6557822 0 0.7882353 0
v -5.011516 -2.443355 -1.115554 0 0 0
v -5.949624 -2.521619 0.6608546 0 0.7882353 0
v -4.995811 -2.616494 -1.086934 0 0.1411765 0
v -5.976336 -2.657915 0.6201027 0 0.7882353 0
v -5.010028 -2.760448 -1.110122 0 0.1960784 0
v -6.032417 -16.51337 0.614687 0 0.7137255 0
v -5.018669 -16.51337 -1.141659 0 0 0
v -4.949273 -16.63338 -1.022263 0 0 0
v -3.05951 -16.63338 -1.022277 0 0.4352941 0
v -5.018743 -16.51337 2.371215 0 0.7176471 0
v -6.032417 -16.51337 0.614687 0 0.7137255 0
v -5.976336 -2.657915 0.6201027 0 0.7882353 0
v -5.018743 -2.41045 2.371215 0 0.7882353 0
v -5.949624 -2.521619 0.6608546 0 0.7882353 0
v -5.956825 -2.30618 0.6557822 0 0.7882353 0
v -6.032903 0.06144214 0.6146401 0 0 0
v -5.018743 0.654134 2.371215 0 0.7686275 0
v -6.067551 13.31207 0.6191395 0 0 0
v -5.053381 13.47927 2.375713 0 0 0
v -2.990425 -3.526037 2.371215 0 0 0
v -3.06192 -1.782021 2.371215 0 0 0
v -2.990425 1.246826 2.371215 0 0 0
v -2.990425 -16.51337 2.371215 0 0.7529412 0
v -4.949461 -16.63338 2.251215 0 0.7882353 0
v -1.976267 -4.069257 0.6146398 0 0 0
v -1.942583 -16.48126 0.6326218 0 0.854902 0
v -2.038255 -2.415469 0.5754615 0 0 0
v -1.976267 1.246826 0.6146398 0 0 0
v -2.010889 13.47928 0.6191359 0 0 0
v -3.025048 13.47928 2.375711 0 0.6901961 0
v -3.094707 13.5994 2.25582 0 0.6470588 0
v -4.984462 13.5994 2.255823 0 0 0
v -4.70435 -17.42854 5.487184 0 0 0
v -5.672225 -17.42854 3.810775 0 0 0
v -5.717375 6.637161 3.918179 0 0 0
v -4.749499 6.637161 5.594588 0 0 0
v -2.813748 6.637161 5.594588 0 0 0
v -2.7686 -17.42854 5.487184 0 0 0
v -2.883255 6.757161 5.475124 0 0 0
v -4.680442 6.757161 5.475124 0 0 0
v -1.845873 6.637161 3.918179 0 0 0
v -1.800724 -17.42854 3.810775 0 0.8588235 0
v 2.308374 17.78681 2.175725 0 0.2392157 0
v 2.308374 7.896058 2.175725 0 0 0
v 3.300738 7.896058 0.4568995 0 0 0
v 3.300738 17.78681 0.4568995 0 0.9372549 0
v 5.285466 7.896058 0.4568995 0 0 0
v 5.285466 17.78681 0.4568995 0 0.7882353 0
v 6.277831 7.896058 2.175725 0 0 0
v 6.277831 17.78681 2.175725 0 0.5450981 0
v 6.277831 17.78681 2.175725 0 0.5450981 0
v 6.277831 7.896058 2.175725 0 0 0
v 5.285466 7.896058 3.89455 0 0 0
v 5.285466 17.78681 3.89455 0 0 0
v 3.300738 7.896058 3.89455 0 0 0
v 5.216184 7.776058 3.77455 0 0 0
v 3.37002 7.776058 3.77455 0 0 0
v 3.300738 17.78681 3.89455 0 0.1647059 0
v 2.308374 7.896058 2.175725 0 0 0
v 2.308374 17.78681 2.175725 0 0.2392157 0
v 3.37002 17.90681 3.77455 0 0.2588235 0
v 5.216184 17.90681 3.77455 0 0.0627451 0
v -3.439296 -6.772611 -2.865738 0 0.8588235 0
v -3.439296 -17.2656 -2.865738 0 0 0
v -2.226878 -17.2656 -4.965708 0 0 0
v -2.226878 -6.772611 -4.965708 0 0.6392157 0
v 0.1979588 -17.2656 -4.965708 0 0 0
v 0.1979588 -6.772611 -4.965708 0 0.7882353 0
v 1.410376 -17.2656 -2.865738 0 0.6392157 0
v 1.410376 -6.772611 -2.865738 0 0 0
v 1.410376 -6.772611 -2.865738 0 0 0
v 1.410376 -17.2656 -2.865738 0 0.6392157 0
v 0.1979588 -17.2656 -0.7657681 0 0.4235294 0
v 0.1979588 -6.772611 -0.7657681 0 0 0
v -2.226878 -17.2656 -0.7657681 0 0.7882353 0
v 0.1286768 -17.3856 -0.8857681 0 0.5803922 0
v -2.157596 -17.3856 -0.8857681 0 0.7058824 0
v -2.226878 -6.772611 -0.7657681 0 0 0
v 0.1286768 -6.652611 -0.8857681 0 0 0
v -2.157596 -6.652611 -0.8857681 0 0.09019608 0
v -3.439296 -17.2656 -2.865738 0 0 0
v -3.439296 -6.772611 -2.865738 0 0.8588235 0
v -3.811808 18.01528 -3.840507 0 0 0
v -3.811808 2.29059 -3.840507 0 0 0
v -2.687207 2.29059 -5.788373 0 0 0
v -2.687207 18.01528 -5.788373 0 0 0
v -0.4380025 2.29059 -5.788373 0 0 0
v -0.4380025 18.01528 -5.788373 0 0.7686275 0
v 0.6865988 2.29059 -3.840507 0 0 0
v 0.6865988 18.01528 -3.840507 0 0 0
v 0.6865988 18.01528 -3.840507 0 0 0
v 0.6865988 2.29059 -3.840507 0 0 0
v -0.4380025 2.29059 -1.89264 0 0 0
v -0.4380025 18.01528 -1.89264 0 0.7372549 0
v -2.687207 2.29059 -1.89264 0 0 0
v -0.5072845 2.17059 -2.01264 0 0 0
v -2.617925 2.17059 -2.01264 0 0 0
v -2.687207 18.01528 -1.89264 0 0.9843137 0
v -3.811808 2.29059 -3.840507 0 0 0
v -3.811808 18.01528 -3.840507 0 0 0
v -2.617925 18.13528 -2.01264 0 0.9960784 0
v -0.5072846 18.13528 -2.01264 0 0.7686275 0
v -0.7133009 18.01528 -5.851083 0 0.5450981 0
v -0.7133009 5.40484 -5.851083 0 0 0
v 0.2545747 5.40484 -7.527492 0 0 0
v 0.2545747 18.01528 -7.527492 0 0 0
v 2.190326 5.40484 -7.527492 0 0 0
v 2.190326 18.01528 -7.527492 0 0 0
v 3.158201 5.40484 -5.851083 0 0 0
v 3.158201 18.01528 -5.851083 0 0 0
v 3.158201 18.01528 -5.851083 0 0 0
v 3.158201 5.40484 -5.851083 0 0 0
v 2.190326 5.40484 -4.174674 0 0 0
v 2.190326 18.01528 -4.174674 0 0.0627451 0
v 0.2545747 5.40484 -4.174674 0 0 0
v 2.121044 5.28484 -4.294674 0 0 0
v 0.3238567 5.28484 -4.294674 0 0 0
v 0.2545747 18.01528 -4.174674 0 0.0627451 0
v -0.7133009 5.40484 -5.851083 0 0 0
v -0.7133009 18.01528 -5.851083 0 0.5450981 0
v 0.3238567 18.13528 -4.294674 0 0.1529412 0
v 2.121044 18.13528 -4.294674 0 0 0
v -5.421788 13.53179 2.468619 0 0 0
v -6.370496 13.25686 0.6758493 0 0 0
v -6.405405 17.60044 0.693486 0 0.3764706 0
v -5.456616 17.69232 2.486215 0 0.1882353 0
v -3.507065 13.63419 2.535878 0 0.6666667 0
v -3.571782 13.50907 2.413441 0 0 0
v -3.541906 17.8242 2.553481 0 0.7490196 0
v -2.444907 13.67251 0.8083295 0 0 0
v -2.479748 17.86254 0.8259326 0 0.9098039 0
v -2.444907 13.67251 0.8083295 0 0 0
v -2.479748 17.86254 0.8259326 0 0.9098039 0
v -3.300995 17.76941 -0.9494462 0 0.9058824 0
v -3.266197 13.67403 -0.9670272 0 0 0
v -5.327564 17.63898 -1.024359 0 0.7372549 0
v -5.292731 13.46746 -1.041958 0 0 0
v -6.405405 17.60044 0.693486 0 0.3764706 0
v -6.370496 13.25686 0.6758493 0 0 0
v 6.118171 18.18293 -1.057088 0 0.1529412 0
v 5.150296 18.18293 0.6193209 0 0.7921569 0
v 5.081014 18.30293 0.4993209 0 0.8 0
v 5.979608 18.30293 -1.057088 0 0.2705882 0
v 5.081014 18.30293 -2.613498 0 0.4705882 0
v 5.150296 18.18293 -2.733498 0 0.3411765 0
v 3.283827 18.30293 0.499321 0 0.9529412 0
v 3.214545 18.18293 -2.733498 0 0.7803922 0
v 3.283827 18.30293 -2.613498 0 0.7686275 0
v 2.385233 18.30293 -1.057088 0 0.8509804 0
v 3.214545 18.18293 0.6193209 0 0.9490196 0
v 2.246669 18.18293 -1.057088 0 0.8156863 0
v 3.43556 17.87916 0.6503636 0 0.9647059 0
v 2.379109 17.87916 2.480192 0 0.2470588 0
v 2.309827 17.99916 2.360192 0 0.2901961 0
v 3.296996 17.99916 0.6503636 0 0.9529412 0
v 2.379109 17.87916 -1.179464 0 0.8156863 0
v 0.3354872 17.99916 2.360192 0 0.8980392 0
v 2.309827 17.99916 -1.059464 0 0.8196079 0
v 0.2662052 17.87916 -1.179464 0 0.7686275 0
v -0.6516823 17.99916 0.6503636 0 1 0
v 0.2662052 17.87916 2.480192 0 0.8 0
v -0.7902463 17.87916 0.6503636 0 1 0
v 0.3354872 17.99916 -1.059464 0 0.7882353 0
v -0.7902463 -17.42843 0.6503636 0 0.5019608 0
v 0.2662052 -17.42843 2.480192 0 0 0
v 0.3354872 -17.54844 2.360192 0 0 0
v -0.6516823 -17.54844 0.6503636 0 0.3137255 0
v 0.2662052 -17.42843 -1.179464 0 0.7882353 0
v 0.3354872 -17.54844 -1.059464 0 0.7411765 0
v 2.309827 -17.54844 -1.059464 0 0.4392157 0
v 2.379109 -17.42843 -1.179464 0 0.6 0
v 3.43556 -17.42843 0.6503636 0 0.7882353 0
v 3.296996 -17.54844 0.6503636 0 0.7882353 0
v 2.309827 -17.54844 2.360192 0 0.1411765 0
v 2.379109 -17.42843 2.480192 0 0 0
v -0.6933728 -17.16256 -2.681346 0 0.7647059 0
v 0.2745026 -17.16256 -1.004936 0 0.682353 0
v 0.3437846 -17.28256 -1.124936 0 0.7882353 0
v -0.5548087 -17.28256 -2.681346 0 0.7882353 0
v 0.2745026 -17.16256 -4.357756 0 0 0
v 0.3437847 -17.28256 -4.237756 0 0 0
v 2.210253 -17.16256 -4.357756 0 0 0
v 2.140971 -17.28256 -4.237756 0 0 0
v 3.039565 -17.28256 -2.681346 0 0.2980392 0
v 2.140971 -17.28256 -1.124936 0 0.5960785 0
v 3.178129 -17.16256 -2.681346 0 0.1764706 0
v 2.210253 -17.16256 -1.004936 0 0.4235294 0
v 0.3281119 18.13797 -0.9151384 0 0.7882353 0
v -0.6397635 18.13797 0.7612709 0 1 0
v -0.7090455 18.25797 0.6412709 0 1 0
v 0.1895478 18.25797 -0.9151384 0 0.7686275 0
v -0.6397635 18.13797 -2.591548 0 0.772549 0
v -2.506232 18.25797 0.6412709 0 0.9607843 0
v -0.7090455 18.25797 -2.471548 0 0.7764706 0
v -2.575514 18.13797 -2.591548 0 0.3607843 0
v -3.404825 18.25797 -0.9151384 0 0.9058824 0
v -2.575514 18.13797 0.7612709 0 0.9411765 0
v -3.54339 18.13797 -0.9151384 0 0.5686275 0
v -2.506232 18.25797 -2.471548 0 1 0
v -3.54339 -17.16256 -0.9151384 0 0.4784314 0
v -2.575514 -17.16256 0.7612709 0 0.9333333 0
v -2.506232 -17.28256 0.6412709 0 0.9098039 0
v -3.404825 -17.28256 -0.9151384 0 0.6078432 0
v -2.575514 -17.16256 -2.591548 0 0 0
v -2.506232 -17.28256 -2.471548 0 0 0
v -0.6397635 -17.16256 -2.591548 0 0.7882353 0
v -0.7090455 -17.28256 -2.471548 0 0.7882353 0
v 0.1895479 -17.28256 -0.9151384 0 0.6117647 0
v -0.7090455 -17.28256 0.6412709 0 0.4078431 0
v 0.3281119 -17.16256 -0.9151384 0 0.572549 0
v -0.6397635 -17.16256 0.7612709 0 0.3647059 0
v -3.443316 -17.17066 2.36435 0 0.9686275 0
v -2.475441 -17.17066 4.04076 0 0.7882353 0
v -2.406541 -17.29066 3.920765 0 0.7921569 0
v -3.305134 -17.29066 2.364355 0 0.9764706 0
v -2.406541 -17.29066 0.8079454 0 0.8941177 0
v -2.475441 -17.17066 0.6879401 0 0.9294118 0
v -0.6093542 -17.29066 0.8079454 0 0.345098 0
v -0.5396898 -17.17066 0.6879401 0 0.2352941 0
v 0.2892394 -17.29066 2.364355 0 0 0
v -0.6093543 -17.29066 3.920765 0 0.0627451 0
v 0.4281858 -17.17066 2.36435 0 0 0
v -0.5396898 -17.17066 4.04076 0 0 0
v 6.845764 -6.701808 2.268082 0 0.7882353 0
v 5.648782 -6.698855 4.332533 0 0.0627451 0
v 5.583422 -6.576418 4.214278 0 0.1647059 0
v 6.710907 -6.579199 2.269692 0 0.7882353 0
v 3.336309 -6.533031 4.210431 0 0.5921569 0
v 5.591263 -6.538596 0.3212817 0 0.9254902 0
v 5.657091 -6.658702 0.1995462 0 0.9254902 0
v 2.216666 -6.492428 2.262021 0 0.9803922 0
v 3.263127 -6.652794 4.328448 0 0.3803922 0
v 2.074455 -6.609687 2.259912 0 0.945098 0
v 3.271436 -6.61264 0.1954613 0 0.8901961 0
v 3.34415 -6.49521 0.317434 0 0.9686275 0
v -6.032417 -16.51337 0.614687 0 0.7137255 0
v -5.018743 -16.51337 2.371215 0 0.7176471 0
v -4.949461 -16.63338 2.251215 0 0.7882353 0
v -5.894339 -16.63338 0.6146401 0 0.7960784 0
v -5.018669 -16.51337 -1.141659 0 0 0
v -4.949273 -16.63338 -1.022263 0 0 0
v -3.05951 -16.63338 -1.022277 0 0.4352941 0
v -3.058203 -16.63116 2.251235 0 0.8470588 0
v -2.990425 -16.51337 2.371215 0 0.7529412 0
v -2.082142 -16.60555 0.6324779 0 0.9019608 0
v -2.990707 -16.51337 -1.141732 0 0.2588235 0
v -1.942583 -16.48126 0.6326218 0 0.854902 0
v -6.067551 13.31207 0.6191395 0 0 0
v -5.053392 13.31207 -1.137435 0 0 0
v -4.985007 13.44358 -1.017464 0 0 0
v -5.929653 13.44358 0.6187104 0 0 0
v -5.053381 13.47927 2.375713 0 0 0
v -4.984462 13.5994 2.255823 0 0 0
v -3.094631 13.5994 -1.017462 0 0 0
v -2.149756 13.5994 0.6191151 0 0 0
v -3.094707 13.5994 2.25582 0 0.6470588 0
v -3.025063 13.47927 -1.137437 0 0 0
v -3.025048 13.47928 2.375711 0 0.6901961 0
v -2.010889 13.47928 0.6191359 0 0 0
v 6.277831 17.78681 2.175725 0 0.5450981 0
v 5.285466 17.78681 3.89455 0 0 0
v 5.216184 17.90681 3.77455 0 0.0627451 0
v 6.139267 17.90681 2.175725 0 0.7215686 0
v 5.216184 17.90681 0.5768995 0 0.7882353 0
v 5.285466 17.78681 0.4568995 0 0.7882353 0
v 3.37002 17.90681 3.77455 0 0.2588235 0
v 3.300738 17.78681 0.4568995 0 0.9372549 0
v 2.446938 17.90681 2.175725 0 0.3019608 0
v 3.300738 17.78681 3.89455 0 0.1647059 0
v 2.308374 17.78681 2.175725 0 0.2392157 0
v 3.37002 17.90681 0.5768995 0 0.9568627 0
v 1.410376 -6.772611 -2.865738 0 0 0
v 0.1979588 -6.772611 -0.7657681 0 0 0
v 0.1286768 -6.652611 -0.8857681 0 0 0
v 1.271812 -6.652611 -2.865738 0 0 0
v 0.1979588 -6.772611 -4.965708 0 0.7882353 0
v 0.1286768 -6.652611 -4.845708 0 0.7882353 0
v -2.226878 -6.772611 -4.965708 0 0.6392157 0
v -2.157596 -6.652611 -0.8857681 0 0.09019608 0
v -2.157596 -6.652611 -4.845708 0 0.6980392 0
v -3.439296 -6.772611 -2.865738 0 0.8588235 0
v -2.226878 -6.772611 -0.7657681 0 0 0
v -3.300732 -6.652611 -2.865738 0 0.8352941 0
v -3.439296 -17.2656 -2.865738 0 0 0
v -2.226878 -17.2656 -0.7657681 0 0.7882353 0
v -2.157596 -17.3856 -0.8857681 0 0.7058824 0
v -3.300732 -17.3856 -2.865738 0 0 0
v -2.226878 -17.2656 -4.965708 0 0 0
v -2.157596 -17.3856 -4.845708 0 0 0
v 0.1979588 -17.2656 -4.965708 0 0 0
v 0.1286768 -17.3856 -4.845708 0 0 0
v 0.1286768 -17.3856 -0.8857681 0 0.5803922 0
v 1.410376 -17.2656 -2.865738 0 0.6392157 0
v 0.1979588 -17.2656 -0.7657681 0 0.4235294 0
v 1.271812 -17.3856 -2.865738 0 0.5568628 0
v 0.6865988 18.01528 -3.840507 0 0 0
v -0.4380025 18.01528 -1.89264 0 0.7372549 0
v -0.5072846 18.13528 -2.01264 0 0.7686275 0
v 0.5480348 18.13528 -3.840507 0 0 0
v -0.4380025 18.01528 -5.788373 0 0.7686275 0
v -0.5072845 18.13528 -5.668374 0 0.7254902 0
v -2.617925 18.13528 -2.01264 0 0.9960784 0
v -2.687207 18.01528 -5.788373 0 0 0
v -2.617925 18.13528 -5.668374 0 0 0
v -3.673244 18.13528 -3.840507 0 0 0
v -2.687207 18.01528 -1.89264 0 0.9843137 0
v -3.811808 18.01528 -3.840507 0 0 0
v -3.811808 2.29059 -3.840507 0 0 0
v -2.687207 2.29059 -1.89264 0 0 0
v -2.617925 2.17059 -2.01264 0 0 0
v -3.673244 2.17059 -3.840507 0 0 0
v -2.687207 2.29059 -5.788373 0 0 0
v -2.617925 2.17059 -5.668374 0 0 0
v -0.4380025 2.29059 -5.788373 0 0 0
v -0.5072845 2.17059 -5.668374 0 0 0
v -0.5072845 2.17059 -2.01264 0 0 0
v 0.5480348 2.17059 -3.840507 0 0 0
v 0.6865988 2.29059 -3.840507 0 0 0
v -0.4380025 2.29059 -1.89264 0 0 0
v -5.228123 13.34658 -0.918422 0 0 0
v -5.292731 13.46746 -1.041958 0 0 0
v -6.370496 13.25686 0.6758493 0 0 0
v -6.23363 13.16899 0.6794881 0 0 0
v -5.347356 13.41625 2.351085 0 0 0
v -5.421788 13.53179 2.468619 0 0 0
v -3.339967 13.54873 -0.8483384 0 0 0
v -3.571782 13.50907 2.413441 0 0 0
v -2.578624 13.5496 0.7978376 0 0 0
v -2.444907 13.67251 0.8083295 0 0 0
v -3.507065 13.63419 2.535878 0 0.6666667 0
v -3.266197 13.67403 -0.9670272 0 0 0
v -5.292731 13.46746 -1.041958 0 0 0
v -5.672225 -17.42854 3.810775 0 0 0
v -4.749499 6.637161 2.24177 0 0 0
v -5.717375 6.637161 3.918179 0 0 0
v -4.70435 -17.42854 2.134365 0 0.7607843 0
v -2.813748 6.637161 2.24177 0 0 0
v -2.7686 -17.42854 2.134365 0 0.9411765 0
v -4.634843 -17.54854 2.25383 0 0.7529412 0
v -2.837656 -17.54854 2.25383 0 0.9568627 0
v -1.800724 -17.42854 3.810775 0 0.8588235 0
v -1.845873 6.637161 3.918179 0 0 0
v -0.6933728 18.20397 -2.681346 0 0.7568628 0
v 0.3437846 18.32397 -1.124936 0 0.7882353 0
v 0.2745026 18.20397 -1.004936 0 0.7882353 0
v -0.5548087 18.32397 -2.681346 0 0.772549 0
v 0.2745026 18.20397 -4.357756 0 0.1764706 0
v 0.3437847 18.32397 -4.237756 0 0.1098039 0
v 2.210253 18.20397 -4.357756 0 0 0
v 2.140971 18.32397 -4.237756 0 0 0
v 3.039565 18.32397 -2.681346 0 0.7882353 0
v 2.140971 18.32397 -1.124936 0 0.7960784 0
v 3.178129 18.20397 -2.681346 0 0.7921569 0
v 2.210253 18.20397 -1.004936 0 0.8156863 0
v 1.753764 -17.06996 2.097757 0 0.3019608 0
v 3.016106 -17.19535 0.1515607 0 0.6235294 0
v 2.950746 -17.07292 0.03330639 0 0.454902 0
v 1.888622 -17.19257 2.096147 0 0.3764706 0
v 5.263218 -17.23874 0.1554083 0 0 0
v 3.008265 -17.23318 4.044558 0 0 0
v 2.942436 -17.11307 4.166293 0 0 0
v 6.382863 -17.27934 2.103818 0 0 0
v 5.336401 -17.11898 0.03739115 0 0 0
v 6.525074 -17.16209 2.105927 0 0 0
v 5.328093 -17.15913 4.170378 0 0 0
v 5.255379 -17.27656 4.048405 0 0 0
v -5.456616 17.69232 2.486215 0 0.1882353 0
v -6.405405 17.60044 0.693486 0 0.3764706 0
v -6.268052 17.72944 0.6988566 0 0.5686275 0
v -5.327564 17.63898 -1.024359 0 0.7372549 0
v -5.38399 17.81506 2.369367 0 0.2941177 0
v -3.541906 17.8242 2.553481 0 0.7490196 0
v -5.265121 17.76531 -0.899639 0 0.7882353 0
v -3.300995 17.76941 -0.9494462 0 0.9058824 0
v -3.376789 17.88684 -0.8297548 0 0.945098 0
v -2.479748 17.86254 0.8259326 0 0.9098039 0
v -3.608283 17.93744 2.431741 0 0.7960784 0
v -2.615255 17.97313 0.8166493 0 0.9254902 0
v 0.2545747 5.40484 -7.527492 0 0 0
v -0.7133009 5.40484 -5.851083 0 0 0
v -0.5747369 5.28484 -5.851083 0 0 0
v 0.2545747 5.40484 -4.174674 0 0 0
v 0.3238567 5.28484 -4.294674 0 0 0
v 0.3238567 5.28484 -7.407492 0 0 0
v 2.190326 5.40484 -7.527492 0 0 0
v 2.121044 5.28484 -7.407492 0 0 0
v 2.121044 5.28484 -4.294674 0 0 0
v 3.019637 5.28484 -5.851083 0 0 0
v 3.158201 5.40484 -5.851083 0 0 0
v 2.190326 5.40484 -4.174674 0 0 0
v 0.2545747 18.01528 -4.174674 0 0.0627451 0
v -0.7133009 18.01528 -5.851083 0 0.5450981 0
v -0.5747369 18.13528 -5.851083 0 0.6862745 0
v 0.3238567 18.13528 -4.294674 0 0.1529412 0
v 0.2545747 18.01528 -7.527492 0 0 0
v 0.3238567 18.13528 -7.407492 0 0 0
v 2.121044 18.13528 -7.407492 0 0 0
v 2.121044 18.13528 -4.294674 0 0 0
v 2.190326 18.01528 -7.527492 0 0 0
v 3.019637 18.13528 -5.851083 0 0 0
v 2.190326 18.01528 -4.174674 0 0.0627451 0
v 3.158201 18.01528 -5.851083 0 0 0
v 3.300738 7.896058 0.4568995 0 0 0
v 2.308374 7.896058 2.175725 0 0 0
v 2.446938 7.776058 2.175725 0 0 0
v 3.300738 7.896058 3.89455 0 0 0
v 3.37002 7.776058 3.77455 0 0 0
v 3.37002 7.776058 0.5768995 0 0 0
v 5.285466 7.896058 0.4568995 0 0 0
v 5.216184 7.776058 0.5768995 0 0 0
v 5.216184 7.776058 3.77455 0 0 0
v 6.277831 7.896058 2.175725 0 0 0
v 6.139267 7.776058 2.175725 0 0 0
v 5.285466 7.896058 3.89455 0 0 0
v -4.70435 -17.42854 2.134365 0 0.7607843 0
v -5.672225 -17.42854 3.810775 0 0 0
v -5.533437 -17.54854 3.810239 0 0 0
v -4.634843 -17.54854 5.366648 0 0 0
v -4.634843 -17.54854 2.25383 0 0.7529412 0
v -4.70435 -17.42854 5.487184 0 0 0
v -2.837656 -17.54854 2.25383 0 0.9568627 0
v -2.7686 -17.42854 5.487184 0 0 0
v -1.939063 -17.54854 3.810239 0 0.8392157 0
v -2.7686 -17.42854 2.134365 0 0.9411765 0
v -1.800724 -17.42854 3.810775 0 0.8588235 0
v -2.837656 -17.54854 5.366648 0 0.0627451 0
v -4.749499 6.637161 5.594588 0 0 0
v -5.717375 6.637161 3.918179 0 0 0
v -5.579036 6.757161 3.918715 0 0 0
v -4.680442 6.757161 5.475124 0 0 0
v -4.680442 6.757161 2.362305 0 0 0
v -4.749499 6.637161 2.24177 0 0 0
v -2.883255 6.757161 2.362305 0 0 0
v -2.813748 6.637161 2.24177 0 0 0
v -2.883255 6.757161 5.475124 0 0 0
v -1.845873 6.637161 3.918179 0 0 0
v -1.984662 6.757161 3.918715 0 0 0
v -2.813748 6.637161 5.594588 0 0 0
v 2.354092 -16.53707 -1.074098 0 0.1960784 0
v 2.214523 -16.41258 -1.07425 0 0 0
v 3.214814 -16.44469 0.6191273 0 0.3058824 0
v 3.214545 -16.4447 -2.733498 0 0 0
v 3.283629 -16.5647 0.499663 0 0.3254902 0
v 3.282323 -16.56238 -2.61352 0 0 0
v 5.081014 -16.5647 -2.613498 0 0 0
v 5.150296 -16.4447 -2.733498 0 0 0
v 5.080824 -16.5647 0.4996499 0 0 0
v 6.117708 -16.4447 -1.057133 0 0 0
v 5.979608 -16.5647 -1.057088 0 0 0
v 5.150224 -16.44469 0.6190583 0 0 0
v 0.5554873 -17.16256 2.225382 0 0 0
v -0.4123881 -17.16256 3.901791 0 0 0
v -0.2738241 -17.28256 3.901791 0 0 0
v 0.5554873 -17.16256 5.578201 0 0 0
v 0.6247693 -17.28256 5.458201 0 0 0
v 0.6247694 -17.28256 2.345382 0 0 0
v 2.491238 -17.16256 2.225382 0 0.4235294 0
v 2.421956 -17.28256 2.345382 0 0.2235294 0
v 3.320549 -17.28256 3.901791 0 0 0
v 2.421956 -17.28256 5.458201 0 0 0
v 3.459113 -17.16256 3.901791 0 0 0
v 2.491238 -17.16256 5.578201 0 0 0
v 0.5554873 2.203085 5.578201 0 0.7882353 0
v -0.4123881 2.203085 3.901791 0 0.9254902 0
v -0.2738241 2.323085 3.901791 0 0.9333333 0
v 0.5554873 2.203085 2.225382 0 0.9960784 0
v 0.6247693 2.323085 5.458201 0 0.7882353 0
v 0.6247694 2.323085 2.345382 0 1 0
v 2.491238 2.203085 2.225382 0 0.9803922 0
v 2.421956 2.323085 2.345382 0 0.9960784 0
v 3.320549 2.323085 3.901791 0 0.3019608 0
v 2.421956 2.323085 5.458201 0 0 0
v 3.459113 2.203085 3.901791 0 0.1647059 0
v 2.491238 2.203085 5.578201 0 0 0
v -2.486337 17.66643 4.11944 0 0.7686275 0
v -3.454213 17.66643 2.443029 0 0.7137255 0
v -3.316285 17.78643 2.443694 0 0.6901961 0
v -2.417691 17.78643 4.000105 0 0.7843137 0
v -2.417691 17.78643 0.8872851 0 0.8823529 0
v -2.486337 17.66643 0.7666201 0 0.8980392 0
v -0.6205045 17.78643 0.8872851 0 1 0
v -0.5505863 17.66643 0.7666201 0 1 0
v 0.417289 17.66643 2.443029 0 0.8431373 0
v 0.2780888 17.78643 2.443694 0 0.8156863 0
v -0.6205046 17.78643 4.000105 0 0 0
v -0.5505863 17.66643 4.11944 0 0 0
vn 0.3036921 -0.8799024 -0.3654353
vn -0.407533 -0.3719393 -0.8340132
vn -0.1159391 -0.9067078 -0.4055108
vn -0.4619005 -0.3723057 0.8050071
vn -0.9323189 -0.361613 -0.004180744
vn -0.9998683 0.01510972 0.005922856
vn -0.4934666 0.001036751 0.8697641
vn -0.9998939 0.009833839 0.01074817
vn -0.5011375 -0.00519894 0.8653521
vn -0.9999682 -0.007669875 -0.002212261
vn 0.00455754 -0.005584044 0.999974
vn -0.4640326 0.3724194 0.8037273
vn -0.9280636 0.372422 0
vn 0.4640287 0.372422 0.8037283
vn -0.2211373 0.8968803 0.3830197
vn 0.2211315 0.8968814 0.3830204
vn 0.5020272 -0.009966222 0.8647944
vn 0.9280663 0.372415 0
vn 0.9999117 -0.01230554 0.00502451
vn 0.9996506 -0.02641798 -0.0008776438
vn 0.5068267 -0.09408738 0.8568981
vn 0.9968953 0.06251852 -0.04786638
vn 0.5251466 0.02381727 0.8506784
vn 0.9938547 0.1020819 0.04280278
vn 0.5153272 0.07524502 0.8536838
vn 0.9288246 -0.3705196 -0.0003048034
vn 0.4644532 -0.37079 0.8042375
vn 0.2211744 -0.8964453 0.3840152
vn -0.2241106 -0.8964345 0.3823344
vn 0.4647843 -0.3716576 -0.8036456
vn 0.9288246 -0.3705196 -0.0003048034
vn 0.9938547 0.1020819 0.04280278
vn 0.5080587 -0.002986515 -0.8613172
vn 0.9968953 0.06251852 -0.04786638
vn 0.9996506 -0.02641798 -0.0008776438
vn 0.9999117 -0.01230554 0.00502451
vn -0.5082416 0.01295559 -0.8611171
vn -0.4579813 -0.3762064 -0.8054328
vn 0.5000001 0 -0.8660253
vn 0.9280663 0.372415 0
vn 0.4640304 0.3724205 -0.8037281
vn -0.9998683 0.01510972 0.005922856
vn -0.9323189 -0.361613 -0.004180744
vn -0.9998939 0.009833839 0.01074817
vn -0.4952869 0.001186081 -0.8687286
vn -0.9999682 -0.007669875 -0.002212261
vn -0.5026589 -0.005681397 -0.8644661
vn -0.4640346 0.3724176 -0.803727
vn -0.9280636 0.372422 0
vn -0.9280647 0.372419 0
vn -0.9280652 -0.3724177 0
vn -0.4640343 -0.372418 -0.8037269
vn -0.4640353 0.3724174 -0.8037267
vn 0.4640329 -0.3724195 -0.803727
vn 0.4640342 0.3724186 -0.8037268
vn 0.9280653 -0.3724175 0
vn 0.9280646 0.3724192 0
vn 0.9280646 0.3724192 0
vn 0.9280653 -0.3724175 0
vn 0.4640325 -0.3724197 0.8037273
vn 0.4640333 0.3724191 0.803727
vn -0.4640312 -0.3724195 0.803728
vn 0.2211368 -0.8968804 0.3830194
vn -0.2211351 -0.8968804 0.3830208
vn -0.4640325 0.3724187 0.8037277
vn 0.2211377 0.8968803 0.3830193
vn -0.221137 0.89688 0.3830206
vn -0.9280652 -0.3724177 0
vn -0.9280647 0.372419 0
vn -0.9280641 0.3724204 0
vn -0.9280642 -0.3724203 0
vn -0.4640312 -0.3724209 -0.8037274
vn -0.464033 0.3724196 -0.8037269
vn 0.4640307 -0.3724203 -0.803728
vn 0.4640327 0.372419 -0.8037274
vn 0.9280649 -0.3724185 0
vn 0.9280649 0.3724185 0
vn 0.9280649 0.3724185 0
vn 0.9280649 -0.3724185 0
vn 0.4640308 -0.3724204 0.8037279
vn 0.4640307 0.3724206 0.8037279
vn -0.464033 -0.3724188 0.8037272
vn 0.2211341 -0.8968809 0.3830201
vn -0.2211377 -0.8968801 0.3830197
vn -0.4640322 0.3724194 0.8037275
vn -0.9280642 -0.3724203 0
vn -0.9280641 0.3724204 0
vn -0.2211364 0.8968804 0.3830199
vn 0.2211341 0.896881 0.3830199
vn -0.9280636 0.3724219 0
vn -0.9280642 -0.3724202 0
vn -0.464031 -0.3724203 -0.8037278
vn -0.4640326 0.3724189 -0.8037275
vn 0.4640308 -0.37242 -0.803728
vn 0.4640329 0.3724191 -0.8037273
vn 0.928065 -0.3724182 0
vn 0.9280649 0.3724185 0
vn 0.9280649 0.3724185 0
vn 0.928065 -0.3724182 0
vn 0.464031 -0.3724203 0.8037278
vn 0.4640292 0.3724214 0.8037284
vn -0.4640332 -0.3724189 0.8037272
vn -0.2211377 -0.8968803 0.3830194
vn 0.2211342 -0.8968809 0.38302
vn -0.4640328 0.3724192 0.8037272
vn -0.9280642 -0.3724202 0
vn -0.9280636 0.3724219 0
vn -0.2211373 0.8968803 0.3830196
vn 0.2211324 0.8968813 0.3830202
vn -0.4645709 -0.371418 0.8038797
vn -0.9288483 -0.3704603 0
vn -0.999999 -0.001053957 -0.000891602
vn -0.4993686 -0.002913872 0.8663848
vn -0.9293674 0.3691552 0.0007877431
vn -0.4651712 0.3678314 0.8051805
vn 0.4634966 -0.3733764 0.8035926
vn 0.2206138 -0.8970575 0.3829065
vn -0.221663 -0.8966973 0.3831441
vn 0.5013978 -0.001844366 0.8652149
vn 0.9272741 -0.3743832 0
vn 0.999999 0.001060872 -0.0008866652
vn 0.9267495 0.375679 0.0007973269
vn 0.4633902 0.3710921 0.8047112
vn 0.2204685 0.8966354 0.3839774
vn -0.2222237 0.8960333 0.384371
vn -0.999999 -0.001053957 -0.000891602
vn -0.9288483 -0.3704603 0
vn -0.4645669 -0.3714649 -0.8038603
vn -0.4986013 0.001858819 -0.8668295
vn 0.4634905 -0.3734252 -0.8035734
vn -0.4646814 0.373737 -0.8027403
vn -0.9293674 0.3691552 0.0007877431
vn 0.4628803 0.3769989 -0.8022554
vn 0.500625 0.002904134 -0.8656594
vn 0.9272741 -0.3743832 0
vn 0.999999 0.001060872 -0.0008866652
vn 0.9267495 0.375679 0.0007973269
vn -0.9177414 0.3971679 0.002867366
vn -0.9377165 -0.347349 -0.006039576
vn -0.4716064 -0.3489523 -0.809827
vn -0.4528932 0.3955751 -0.7990044
vn 0.4566589 -0.3738868 -0.8072616
vn 0.4743538 0.3706874 -0.7984856
vn 0.2028734 -0.8972626 -0.3921253
vn -0.2397281 -0.8874148 -0.3937327
vn 0.917741 -0.397169 -0.002865927
vn 0.9377164 0.3473493 0.006040604
vn -0.4743542 -0.3706873 0.7984855
vn -0.9377165 -0.347349 -0.006039576
vn -0.9177414 0.3971679 0.002867366
vn -0.4566655 0.3738831 0.8072597
vn 0.452895 -0.3955725 0.7990047
vn 0.4716058 0.3489499 0.8098283
vn 0.917741 -0.397169 -0.002865927
vn 0.9377164 0.3473493 0.006040604
vn -0.2028842 0.8972608 0.3921238
vn 0.239729 0.887413 0.3937363
vn -0.928064 0.3724207 0
vn -0.9280651 -0.372418 0
vn -0.464031 -0.3724203 -0.8037278
vn -0.4640321 0.3724207 -0.8037269
vn 0.4640309 -0.3724205 -0.8037278
vn 0.4640317 0.3724208 -0.803727
vn 0.928065 -0.3724183 0
vn 0.9280639 0.3724209 0
vn 0.9280639 0.3724209 0
vn 0.928065 -0.3724183 0
vn 0.464031 -0.3724208 0.8037276
vn 0.4640321 0.3724206 0.803727
vn -0.464031 -0.3724201 0.8037279
vn 0.2211343 -0.8968811 0.3830194
vn -0.2211343 -0.8968806 0.3830204
vn -0.4640321 0.3724212 0.8037267
vn -0.9280651 -0.372418 0
vn -0.928064 0.3724207 0
vn -0.2211356 0.8968817 0.3830174
vn 0.2211357 0.8968812 0.3830183
vn 0.4618379 -0.3721792 -0.8051015
vn 0.9321724 -0.3619905 0.004189882
vn 0.9998558 0.01598771 -0.005734636
vn 0.4934148 0.0009108202 -0.8697937
vn 0.9998868 0.01028751 -0.01097908
vn 0.5012821 -0.004731029 -0.865271
vn 0.9999765 -0.006542933 0.00204008
vn -0.004491088 -0.005745078 -0.9999734
vn 0.4521908 0.3811005 -0.8064031
vn 0.9274582 0.3739268 7.563583E-05
vn -0.4779817 0.3460698 -0.8073223
vn -0.2790604 0.8674059 -0.4119858
vn 0.1884328 0.8982667 -0.3970013
vn -0.5017977 -0.01082131 -0.8649174
vn -0.9998866 -0.01415462 -0.005133109
vn -0.9385352 0.3450448 -0.009791299
vn -0.9996125 -0.02782464 0.0007209665
vn -0.5066396 -0.09822933 -0.8565438
vn -0.9966168 0.06507263 0.05020544
vn -0.5250403 0.02393903 -0.8507406
vn -0.9932762 0.1070391 -0.04410186
vn -0.5152807 0.07922242 -0.853352
vn -0.9288625 -0.3704248 0.0003175162
vn -0.4644615 -0.3707287 -0.804261
vn -0.2211807 -0.8964354 -0.3840346
vn 0.2239082 -0.8964275 -0.3824694
vn -0.4648111 -0.3716285 0.8036435
vn -0.9288625 -0.3704248 0.0003175162
vn -0.9932762 0.1070391 -0.04410186
vn -0.5079802 -0.003054379 0.8613633
vn -0.9966168 0.06507263 0.05020544
vn -0.9996125 -0.02782464 0.0007209665
vn -0.9998866 -0.01415462 -0.005133109
vn -0.4995121 -0.0009142318 0.8663064
vn -0.9385352 0.3450448 -0.009791299
vn -0.4726064 0.379053 0.7955891
vn 0.5084483 0.0134542 0.8609874
vn 0.4949602 0.001373001 0.8689146
vn 0.5031734 -0.005420024 0.8641685
vn 0.4579752 -0.3759691 0.805547
vn -0.2209758 -0.8969453 0.3829607
vn 0.9998558 0.01598771 -0.005734636
vn 0.9321724 -0.3619905 0.004189882
vn 0.9998868 0.01028751 -0.01097908
vn 0.9999765 -0.006542933 0.00204008
vn 0.9274582 0.3739268 7.563583E-05
vn 0.4636424 0.372858 0.8037491
vn 0.2207855 0.8968376 0.3833226
vn -0.2499458 0.8978989 0.3623598
vn -0.4635124 -0.3753747 0.8026519
vn -0.9276003 -0.3735737 -0.0006386071
vn -0.9285273 0.3712635 0.0006362086
vn -0.4645488 0.3694625 0.8047931
vn 0.4639183 0.370618 0.8046255
vn 0.4641488 -0.3742207 0.8028229
vn 0.2209929 0.8965488 0.3838781
vn -0.2216135 0.8963349 0.3840197
vn 0.9276007 0.3735728 0.0006391902
vn 0.9285267 -0.3712652 -0.0006359016
vn -0.9280644 0.3724197 0
vn -0.9280642 -0.3724203 0
vn -0.4640327 -0.3724205 -0.8037267
vn -0.4640306 0.3724207 -0.8037279
vn 0.4640326 -0.3724205 -0.8037268
vn 0.4640304 0.3724206 -0.803728
vn 0.9280643 -0.3724199 0
vn 0.9280653 0.3724175 0
vn 0.9280653 0.3724175 0
vn 0.9280643 -0.3724199 0
vn 0.4640316 -0.3724209 0.8037271
vn 0.4640321 0.3724196 0.8037275
vn -0.4640318 -0.3724211 0.803727
vn 0.2211348 -0.8968815 0.3830182
vn -0.2211348 -0.8968816 0.383018
vn -0.4640339 0.3724183 0.803727
vn -0.9280642 -0.3724203 0
vn -0.9280644 0.3724197 0
vn -0.2211393 0.8968799 0.3830196
vn 0.221136 0.8968806 0.3830197
vn -0.9280636 0.3724217 0
vn -0.9280627 -0.3724239 0
vn -0.4640371 -0.3724169 -0.8037259
vn -0.4640323 0.372421 -0.8037267
vn 0.4640315 -0.3724203 -0.8037276
vn 0.4640321 0.3724211 -0.8037267
vn 0.9280645 -0.3724196 0
vn 0.9280638 0.3724211 0
vn 0.9280638 0.3724211 0
vn 0.9280645 -0.3724196 0
vn 0.4640298 -0.3724212 0.8037281
vn 0.4640331 0.3724203 0.8037266
vn -0.46403 -0.3724212 0.803728
vn 0.2211329 -0.8968812 0.3830201
vn -0.221133 -0.8968812 0.3830199
vn -0.4640333 0.3724203 0.8037264
vn 0.2211371 0.8968812 0.3830175
vn -0.2211372 0.8968813 0.3830174
vn -0.9280627 -0.3724239 0
vn -0.9280636 0.3724217 0
vn -0.9280645 0.3724196 0
vn -0.928064 -0.3724208 0
vn -0.4640318 -0.372421 -0.803727
vn -0.4640323 0.3724185 -0.8037279
vn 0.4640318 -0.3724203 -0.8037273
vn 0.4640324 0.3724197 -0.8037273
vn 0.928064 -0.3724207 0
vn 0.928065 0.3724184 0
vn 0.928065 0.3724184 0
vn 0.928064 -0.3724207 0
vn 0.4640324 -0.3724208 0.8037267
vn 0.4640307 0.3724206 0.8037279
vn -0.4640322 -0.3724209 0.8037267
vn 0.2211361 -0.8968814 0.3830177
vn -0.2211357 -0.8968814 0.3830179
vn -0.464032 0.3724199 0.8037274
vn -0.928064 -0.3724208 0
vn -0.9280645 0.3724196 0
vn -0.2211363 0.8968806 0.3830195
vn 0.221134 0.8968809 0.38302
vn -0.9280637 0.3724216 0
vn -0.9280644 -0.3724197 0
vn -0.4640313 -0.372421 -0.8037273
vn -0.4640329 0.3724196 -0.803727
vn 0.4640317 -0.3724206 -0.8037273
vn 0.464033 0.3724182 -0.8037276
vn 0.9280642 -0.3724203 0
vn 0.9280635 0.372422 0
vn 0.9280635 0.372422 0
vn 0.9280642 -0.3724203 0
vn 0.4640313 -0.3724208 0.8037274
vn 0.4640349 0.3724181 0.8037266
vn -0.4640314 -0.3724214 0.803727
vn 0.2211346 -0.8968813 0.3830187
vn -0.2211345 -0.8968818 0.3830179
vn -0.4640346 0.3724174 0.803727
vn -0.9280644 -0.3724197 0
vn -0.9280637 0.3724216 0
vn -0.2211407 0.8968793 0.38302
vn 0.2211406 0.8968797 0.383019
vn -0.4704629 -0.3746474 0.7989392
vn -0.8917153 -0.4517879 -0.02704722
vn -0.9369998 0.347372 -0.03693409
vn -0.5080285 0.3606066 0.7822211
vn 0.4502088 -0.3607035 0.8168262
vn 0.2479859 -0.884919 0.3942352
vn 0.4237063 0.3878351 0.81857
vn 0.9322975 -0.3578623 0.05249724
vn 0.9167638 0.3961139 0.05136123
vn 0.9322975 -0.3578623 0.05249724
vn 0.9167638 0.3961139 0.05136123
vn 0.4971146 0.3841331 -0.7780224
vn 0.5286026 -0.3498299 -0.7734328
vn -0.446447 0.35923 -0.8195357
vn -0.407533 -0.3719393 -0.8340132
vn -0.9369998 0.347372 -0.03693409
vn -0.8917153 -0.4517879 -0.02704722
vn 0.9280663 0.372415 0
vn 0.4640287 0.372422 0.8037283
vn 0.2211315 0.8968814 0.3830204
vn 0.4422818 0.8968762 0
vn 0.2211341 0.8968807 -0.3830205
vn 0.4640304 0.3724205 -0.8037281
vn -0.2211373 0.8968803 0.3830197
vn -0.4640346 0.3724176 -0.803727
vn -0.2211405 0.8968795 -0.3830196
vn -0.4422697 0.8968822 0
vn -0.4640326 0.3724194 0.8037273
vn -0.9280636 0.372422 0
vn 0.9280646 0.3724192 0
vn 0.4640333 0.3724191 0.803727
vn 0.2211377 0.8968803 0.3830193
vn 0.4422738 0.8968801 0
vn 0.4640342 0.3724186 -0.8037268
vn -0.221137 0.89688 0.3830206
vn 0.2211396 0.8968801 -0.3830189
vn -0.4640353 0.3724174 -0.8037267
vn -0.4422737 0.8968801 0
vn -0.4640325 0.3724187 0.8037277
vn -0.9280647 0.372419 0
vn -0.2211407 0.8968796 -0.3830194
vn -0.9280652 -0.3724177 0
vn -0.4640312 -0.3724195 0.803728
vn -0.2211351 -0.8968804 0.3830208
vn -0.4422764 -0.8968788 0
vn -0.4640343 -0.372418 -0.8037269
vn -0.2211397 -0.8968798 -0.3830195
vn 0.2211374 -0.8968804 -0.3830191
vn 0.4640329 -0.3724195 -0.803727
vn 0.9280653 -0.3724175 0
vn 0.4422765 -0.8968788 0
vn 0.2211368 -0.8968804 0.3830194
vn 0.4640325 -0.3724197 0.8037273
vn -0.9280642 -0.3724203 0
vn -0.464033 -0.3724188 0.8037272
vn -0.2211377 -0.8968801 0.3830197
vn -0.4422712 -0.8968814 0
vn -0.4640312 -0.3724209 -0.8037274
vn -0.2211343 -0.8968812 -0.3830193
vn 0.4640307 -0.3724203 -0.803728
vn 0.221134 -0.8968809 -0.3830202
vn 0.4422742 -0.8968799 0
vn 0.2211341 -0.8968809 0.3830201
vn 0.9280649 -0.3724185 0
vn 0.4640308 -0.3724204 0.8037279
vn 0.9280649 0.3724185 0
vn 0.4640292 0.3724214 0.8037284
vn 0.2211324 0.8968813 0.3830202
vn 0.4422752 0.8968794 0
vn 0.4640329 0.3724191 -0.8037273
vn -0.2211373 0.8968803 0.3830196
vn 0.2211374 0.8968803 -0.3830197
vn -0.4640326 0.3724189 -0.8037275
vn -0.4422694 0.8968823 0
vn -0.4640328 0.3724192 0.8037272
vn -0.9280636 0.3724219 0
vn -0.2211372 0.8968801 -0.3830198
vn -0.9280642 -0.3724202 0
vn -0.4640332 -0.3724189 0.8037272
vn -0.2211377 -0.8968803 0.3830194
vn -0.4422714 -0.8968813 0
vn -0.464031 -0.3724203 -0.8037278
vn -0.2211341 -0.8968809 -0.38302
vn 0.4640308 -0.37242 -0.803728
vn 0.2211342 -0.8968807 -0.3830203
vn 0.4422747 -0.8968797 0
vn 0.2211342 -0.8968809 0.38302
vn 0.928065 -0.3724182 0
vn 0.464031 -0.3724203 0.8037278
vn -0.9288483 -0.3704603 0
vn -0.4645709 -0.371418 0.8038797
vn -0.221663 -0.8966973 0.3831441
vn -0.443003 -0.8965201 0
vn -0.2216596 -0.8967059 -0.3831261
vn -0.4645669 -0.3714649 -0.8038603
vn 0.2206072 -0.897067 -0.3828881
vn 0.4634905 -0.3734252 -0.8035734
vn 0.4415355 -0.8972437 0
vn 0.2206138 -0.8970575 0.3829065
vn 0.9272741 -0.3743832 0
vn 0.4634966 -0.3733764 0.8035926
vn 0.9377164 0.3473493 0.006040604
vn 0.4716058 0.3489499 0.8098283
vn 0.239729 0.887413 0.3937363
vn 0.4620758 0.8867799 0.01036045
vn -0.2028842 0.8972608 0.3921238
vn 0.2408067 0.8959998 -0.3730905
vn 0.4743538 0.3706874 -0.7984856
vn -0.4222567 0.9064337 0.008785162
vn -0.4566655 0.3738831 0.8072597
vn -0.9177414 0.3971679 0.002867366
vn -0.4528932 0.3955751 -0.7990044
vn -0.2009564 0.9058073 -0.3730009
vn -0.9288625 -0.3704248 0.0003175162
vn -0.4648111 -0.3716285 0.8036435
vn -0.2209758 -0.8969453 0.3829607
vn -0.4432029 -0.8964213 -2.31268E-05
vn -0.4644615 -0.3707287 -0.804261
vn -0.2211807 -0.8964354 -0.3840346
vn 0.2239082 -0.8964275 -0.3824694
vn 0.2203531 -0.8989109 0.3786869
vn 0.4579752 -0.3759691 0.805547
vn 0.4614301 -0.8871726 0.002674296
vn 0.4618379 -0.3721792 -0.8051015
vn 0.9321724 -0.3619905 0.004189882
vn -0.9385352 0.3450448 -0.009791299
vn -0.4779817 0.3460698 -0.8073223
vn -0.2790604 0.8674059 -0.4119858
vn -0.496671 0.8672212 -0.03528759
vn -0.4726064 0.379053 0.7955891
vn -0.2499458 0.8978989 0.3623598
vn 0.1884328 0.8982667 -0.3970013
vn 0.4419593 0.8970351 -2.866824E-05
vn 0.2207855 0.8968376 0.3833226
vn 0.4521908 0.3811005 -0.8064031
vn 0.4636424 0.372858 0.8037491
vn 0.9274582 0.3739268 7.563583E-05
vn 0.9280653 0.3724175 0
vn 0.4640321 0.3724196 0.8037275
vn 0.221136 0.8968806 0.3830197
vn 0.4422765 0.8968788 0
vn 0.2211342 0.8968809 -0.3830201
vn 0.4640304 0.3724206 -0.803728
vn -0.2211393 0.8968799 0.3830196
vn -0.4640306 0.3724207 -0.8037279
vn -0.4422735 0.8968803 0
vn -0.4640339 0.3724183 0.803727
vn -0.9280644 0.3724197 0
vn -0.2211341 0.8968809 -0.38302
vn 0.9280638 0.3724211 0
vn 0.4640331 0.3724203 0.8037266
vn 0.2211371 0.8968812 0.3830175
vn 0.4422708 0.8968816 0
vn 0.4640321 0.3724211 -0.8037267
vn 0.2211355 0.8968816 -0.3830177
vn -0.4640323 0.372421 -0.8037267
vn -0.2211372 0.8968813 0.3830174
vn -0.2211358 0.8968815 -0.3830177
vn -0.9280636 0.3724217 0
vn -0.4640333 0.3724203 0.8037264
vn -0.4422699 0.8968821 0
vn -0.9280627 -0.3724239 0
vn -0.46403 -0.3724212 0.803728
vn -0.221133 -0.8968812 0.3830199
vn -0.4422669 -0.8968835 0
vn -0.4640371 -0.3724169 -0.8037259
vn -0.221144 -0.8968791 -0.3830185
vn 0.4640315 -0.3724203 -0.8037276
vn 0.2211354 -0.8968807 -0.3830197
vn 0.2211329 -0.8968812 0.3830201
vn 0.9280645 -0.3724196 0
vn 0.4640298 -0.3724212 0.8037281
vn 0.4422735 -0.8968801 0
vn 0.928065 0.3724184 0
vn 0.4640307 0.3724206 0.8037279
vn 0.221134 0.8968809 0.38302
vn 0.442275 0.8968795 0
vn 0.4640324 0.3724197 -0.8037273
vn 0.2211365 0.8968804 -0.3830195
vn -0.2211363 0.8968806 0.3830195
vn -0.4640323 0.3724185 -0.8037279
vn -0.2211366 0.8968799 -0.3830211
vn -0.4422729 0.8968806 0
vn -0.464032 0.3724199 0.8037274
vn -0.9280645 0.3724196 0
vn -0.928064 -0.3724208 0
vn -0.4640322 -0.3724209 0.8037267
vn -0.2211357 -0.8968814 0.3830179
vn -0.4422712 -0.8968814 0
vn -0.4640318 -0.372421 -0.803727
vn -0.2211353 -0.8968815 -0.383018
vn 0.4640318 -0.3724203 -0.8037273
vn 0.2211355 -0.8968809 -0.3830194
vn 0.2211361 -0.8968814 0.3830177
vn 0.4422712 -0.8968813 0
vn 0.928064 -0.3724207 0
vn 0.4640324 -0.3724208 0.8037267
vn -0.1159391 -0.9067078 -0.4055108
vn -0.407533 -0.3719393 -0.8340132
vn -0.8917153 -0.4517879 -0.02704722
vn -0.2819394 -0.9594229 0.004232246
vn -0.1535897 -0.9043009 0.3983092
vn -0.4704629 -0.3746474 0.7989392
vn 0.3036921 -0.8799024 -0.3654353
vn 0.2479859 -0.884919 0.3942352
vn 0.4662048 -0.8845513 0.01490234
vn 0.9322975 -0.3578623 0.05249724
vn 0.4502088 -0.3607035 0.8168262
vn 0.5286026 -0.3498299 -0.7734328
vn -0.407533 -0.3719393 -0.8340132
vn -0.9276003 -0.3735737 -0.0006386071
vn -0.4641481 0.3742203 -0.8028235
vn -0.9285273 0.3712635 0.0006362086
vn -0.4639152 -0.3706201 -0.8046263
vn 0.4635117 0.3753743 -0.8026525
vn 0.464546 -0.3694656 -0.8047932
vn -0.2209878 -0.8965499 -0.3838784
vn 0.2216089 -0.8963366 -0.3840186
vn 0.9285267 -0.3712652 -0.0006359016
vn 0.9276007 0.3735728 0.0006391902
vn -0.9280641 0.3724204 0
vn -0.2211364 0.8968804 0.3830199
vn -0.4640322 0.3724194 0.8037275
vn -0.4422715 0.8968812 0
vn -0.464033 0.3724196 -0.8037269
vn -0.2211374 0.8968806 -0.3830189
vn 0.4640327 0.372419 -0.8037274
vn 0.2211372 0.8968801 -0.3830198
vn 0.4422745 0.8968797 0
vn 0.2211341 0.896881 0.3830199
vn 0.9280649 0.3724185 0
vn 0.4640307 0.3724206 0.8037279
vn -0.9377165 -0.347349 -0.006039576
vn -0.2397281 -0.8874148 -0.3937327
vn -0.4716064 -0.3489523 -0.809827
vn -0.4620768 -0.8867794 -0.01035821
vn 0.2028734 -0.8972626 -0.3921253
vn -0.2408079 -0.8959998 0.3730898
vn -0.4743542 -0.3706873 0.7984855
vn 0.4222549 -0.9064346 -0.008782747
vn 0.4566589 -0.3738868 -0.8072616
vn 0.917741 -0.397169 -0.002865927
vn 0.452895 -0.3955725 0.7990047
vn 0.2009604 -0.905806 0.3730018
vn -0.5080285 0.3606066 0.7822211
vn -0.9369998 0.347372 -0.03693409
vn -0.4856276 0.8736951 -0.02868482
vn -0.446447 0.35923 -0.8195357
vn -0.2847714 0.8880913 0.360831
vn 0.4237063 0.3878351 0.81857
vn -0.2548169 0.8815973 -0.3973091
vn 0.4971146 0.3841331 -0.7780224
vn 0.1991312 0.9031031 -0.3804624
vn 0.9167638 0.3961139 0.05136123
vn 0.1581696 0.9116412 0.3793319
vn 0.3954328 0.9184498 0.009106795
vn -0.4640313 -0.372421 -0.8037273
vn -0.9280644 -0.3724197 0
vn -0.4422729 -0.8968804 0
vn -0.4640314 -0.3724214 0.803727
vn -0.2211345 -0.8968818 0.3830179
vn -0.2211346 -0.8968814 -0.3830186
vn 0.4640317 -0.3724206 -0.8037273
vn 0.2211352 -0.8968811 -0.383019
vn 0.2211346 -0.8968813 0.3830187
vn 0.4422723 -0.8968808 0
vn 0.9280642 -0.3724203 0
vn 0.4640313 -0.3724208 0.8037274
vn -0.4640346 0.3724174 0.803727
vn -0.9280637 0.3724216 0
vn -0.4422702 0.8968819 0
vn -0.2211407 0.8968793 0.38302
vn -0.4640329 0.3724196 -0.803727
vn -0.2211374 0.8968806 -0.3830188
vn 0.2211382 0.8968796 -0.3830208
vn 0.2211406 0.8968797 0.383019
vn 0.464033 0.3724182 -0.8037276
vn 0.4422696 0.8968822 0
vn 0.4640349 0.3724181 0.8037266
vn 0.9280635 0.372422 0
vn -0.4640327 -0.3724205 -0.8037267
vn -0.9280642 -0.3724203 0
vn -0.442272 -0.8968809 0
vn -0.4640318 -0.3724211 0.803727
vn -0.2211348 -0.8968816 0.383018
vn -0.2211367 -0.8968812 -0.3830178
vn 0.4640326 -0.3724205 -0.8037268
vn 0.2211364 -0.8968813 -0.3830179
vn 0.2211348 -0.8968815 0.3830182
vn 0.9280643 -0.3724199 0
vn 0.4422724 -0.8968807 0
vn 0.4640316 -0.3724209 0.8037271
vn -0.4639152 -0.3706201 -0.8046263
vn -0.9276003 -0.3735737 -0.0006386071
vn -0.44184 -0.8970937 -0.0006401804
vn -0.2206593 -0.8974249 0.3820182
vn -0.2209878 -0.8965499 -0.3838784
vn -0.4635124 -0.3753747 0.8026519
vn 0.2216089 -0.8963366 -0.3840186
vn 0.4641488 -0.3742207 0.8028229
vn 0.4427021 -0.8966686 -0.0006417657
vn 0.464546 -0.3694656 -0.8047932
vn 0.9285267 -0.3712652 -0.0006359016
vn 0.221278 -0.897213 0.3821583
vn -0.4645488 0.3694625 0.8047931
vn -0.9285273 0.3712635 0.0006362086
vn -0.4427047 0.8966672 0.0006423713
vn -0.2216135 0.8963349 0.3840197
vn -0.2212774 0.8972126 -0.3821594
vn -0.4641481 0.3742203 -0.8028235
vn 0.2206586 0.8974245 -0.3820197
vn 0.4635117 0.3753743 -0.8026525
vn 0.2209929 0.8965488 0.3838781
vn 0.9276007 0.3735728 0.0006391902
vn 0.4418413 0.897093 0.000640503
vn 0.4639183 0.370618 0.8046255
vn -0.4622131 -0.8867648 -0.002681488
vn -0.9323189 -0.361613 -0.004180744
vn -0.4619005 -0.3723057 0.8050071
vn -0.4579813 -0.3762064 -0.8054328
vn -0.2241106 -0.8964345 0.3823344
vn -0.2204788 -0.8989976 -0.3784078
vn 0.2209578 -0.8969522 -0.382955
vn 0.4647843 -0.3716576 -0.8036456
vn 0.2211744 -0.8964453 0.3840152
vn 0.9288246 -0.3705196 -0.0003048034
vn 0.4431587 -0.8964432 1.748334E-05
vn 0.4644532 -0.37079 0.8042375
vn -0.464031 -0.3724203 -0.8037278
vn -0.9280651 -0.372418 0
vn -0.442275 -0.8968795 0
vn -0.464031 -0.3724201 0.8037279
vn -0.2211343 -0.8968806 0.3830204
vn -0.2211343 -0.8968808 -0.3830202
vn 0.4640309 -0.3724205 -0.8037278
vn 0.2211341 -0.8968809 -0.3830202
vn 0.4422747 -0.8968796 0
vn 0.2211343 -0.8968811 0.3830194
vn 0.928065 -0.3724183 0
vn 0.464031 -0.3724208 0.8037276
vn -0.4640321 0.3724212 0.8037267
vn -0.928064 0.3724207 0
vn -0.4422713 0.8968813 0
vn -0.4640321 0.3724207 -0.8037269
vn -0.2211356 0.8968817 0.3830174
vn -0.2211356 0.8968813 -0.3830181
vn 0.4640317 0.3724208 -0.803727
vn 0.2211355 0.8968814 -0.3830181
vn 0.442271 0.8968814 0
vn 0.2211357 0.8968812 0.3830183
vn 0.9280639 0.3724209 0
vn 0.4640321 0.3724206 0.803727
vn -0.4651712 0.3678314 0.8051805
vn -0.9293674 0.3691552 0.0007877431
vn -0.4434898 0.8962791 0.0008004552
vn -0.2222237 0.8960333 0.384371
vn -0.221805 0.8971231 -0.3820635
vn -0.4646814 0.373737 -0.8027403
vn 0.2200564 0.8977224 -0.3816669
vn 0.4628803 0.3769989 -0.8022554
vn 0.9267495 0.375679 0.0007973269
vn 0.4410521 0.8974811 0.0007934406
vn 0.2204685 0.8966354 0.3839774
vn 0.4633902 0.3710921 0.8047112
vt 0.2348654 0.2741542
vt 0.2348654 0.2838254
vt 0.2354757 0.2835308
vt 0.3368316 0.6739014
vt 0.3417821 0.6737573
vt 0.341623 0.6123402
vt 0.3366832 0.6076581
vt 0.3413303 0.6041566
vt 0.336833 0.5889533
vt 0.341623 0.5860352
vt 0.3320175 0.6037099
vt 0.336833 0.5025572
vt 0.341623 0.5025719
vt 0.3272545 0.5025572
vt 0.3364902 0.5019644
vt 0.3275973 0.5019644
vt 0.3272545 0.591886
vt 0.3224661 0.5025719
vt 0.3224661 0.5919007
vt 0.3228254 0.6036165
vt 0.3272886 0.6042804
vt 0.3228594 0.6046826
vt 0.3273628 0.6051374
vt 0.3227332 0.6053567
vt 0.3272957 0.6058495
vt 0.3224684 0.6739161
vt 0.3272548 0.6739014
vt 0.3275983 0.6744962
vt 0.3364912 0.6744962
vt 0.1536952 0.6736809
vt 0.1584837 0.6736724
vt 0.1582188 0.6051129
vt 0.1536952 0.6038968
vt 0.1580927 0.6044387
vt 0.1581267 0.6033726
vt 0.158486 0.5916569
vt 0.1441167 0.609417
vt 0.1441167 0.6736809
vt 0.1536952 0.5887327
vt 0.158486 0.502328
vt 0.1536952 0.5023365
vt 0.139329 0.6120964
vt 0.1391699 0.6735135
vt 0.1396218 0.6039129
vt 0.1444543 0.6007872
vt 0.139329 0.5857914
vt 0.1441167 0.5857999
vt 0.1441167 0.5023365
vt 0.139329 0.502328
vt 0.4567441 0.4900859
vt 0.4567441 0.6647949
vt 0.46197 0.6648041
vt 0.46197 0.4900951
vt 0.4724251 0.6648041
vt 0.4724251 0.4900951
vt 0.4776543 0.6647949
vt 0.4776543 0.4900859
vt 0.5293198 0.470588
vt 0.5293198 0.6452968
vt 0.5345464 0.6452807
vt 0.5345464 0.4705719
vt 0.5450015 0.6452807
vt 0.5348893 0.6458755
vt 0.5446588 0.6458755
vt 0.5450015 0.4705719
vt 0.5348893 0.4699792
vt 0.5446588 0.4699792
vt 0.55023 0.6452968
vt 0.55023 0.470588
vt 0.505439 0.4708649
vt 0.505439 0.6458656
vt 0.5102267 0.645874
vt 0.5102267 0.4708734
vt 0.5198052 0.645874
vt 0.5198052 0.4708734
vt 0.524596 0.6458656
vt 0.524596 0.4708649
vt 0.6022303 0.4688416
vt 0.6022303 0.643842
vt 0.6070187 0.6438273
vt 0.6070187 0.4688269
vt 0.6165972 0.6438273
vt 0.6073616 0.6444221
vt 0.6162544 0.6444221
vt 0.6165972 0.4688269
vt 0.6213873 0.643842
vt 0.6213873 0.4688416
vt 0.6162544 0.4682342
vt 0.6073616 0.4682342
vt 0.4815581 0.4784289
vt 0.4815581 0.6531029
vt 0.4863458 0.6531115
vt 0.4863458 0.4784374
vt 0.4959242 0.6531115
vt 0.4959242 0.4784374
vt 0.500715 0.6531029
vt 0.500715 0.4784289
vt 0.5544686 0.4694048
vt 0.5544686 0.6440786
vt 0.559257 0.6440639
vt 0.559257 0.46939
vt 0.5688354 0.6440639
vt 0.5684927 0.6446587
vt 0.5595998 0.6446587
vt 0.5688354 0.46939
vt 0.5736255 0.6440786
vt 0.5736255 0.4694048
vt 0.5684927 0.4687973
vt 0.5595998 0.4687973
vt 0.4260592 0.6658687
vt 0.4308493 0.6658834
vt 0.4305265 0.5645701
vt 0.4257364 0.5645553
vt 0.4309032 0.4935021
vt 0.4261131 0.4934874
vt 0.4164807 0.6658687
vt 0.4168255 0.6664635
vt 0.4257184 0.6664635
vt 0.4161579 0.5645553
vt 0.4116924 0.6658834
vt 0.4113695 0.5645701
vt 0.4117462 0.4935021
vt 0.4165346 0.4934874
vt 0.4168807 0.4928946
vt 0.4257735 0.4928946
vt 0.2983297 0.5732192
vt 0.2980069 0.6745327
vt 0.3027946 0.6745412
vt 0.3031174 0.5732276
vt 0.3123731 0.6745412
vt 0.3027408 0.50216
vt 0.297953 0.5021514
vt 0.3123192 0.50216
vt 0.3126959 0.5732276
vt 0.3171639 0.6745327
vt 0.3174867 0.5732192
vt 0.31711 0.5021514
vt 0.7136308 0.8520326
vt 0.7136308 0.9038172
vt 0.7195498 0.9036608
vt 0.7195498 0.8518762
vt 0.731356 0.9035269
vt 0.731356 0.8517422
vt 0.7310123 0.9041297
vt 0.7198917 0.9042559
vt 0.7372431 0.9035493
vt 0.7372431 0.8517646
vt 0.7585708 0.9037567
vt 0.7644568 0.903742
vt 0.7644568 0.8519568
vt 0.7585708 0.8519715
vt 0.7467647 0.9036228
vt 0.7467647 0.8518376
vt 0.7408445 0.9034741
vt 0.7408445 0.8516889
vt 0.758227 0.8513691
vt 0.7471065 0.851243
vt 0.3432497 0.7161116
vt 0.3432497 0.8119367
vt 0.3480375 0.8119451
vt 0.3480375 0.7161201
vt 0.3576159 0.8119451
vt 0.3576159 0.7161201
vt 0.3624067 0.8119367
vt 0.3624067 0.7161116
vt 0.7864717 0.4672501
vt 0.7864717 0.5630751
vt 0.7912601 0.5630603
vt 0.7912601 0.4672354
vt 0.8008386 0.5630603
vt 0.791603 0.5636552
vt 0.8004959 0.5636552
vt 0.8008386 0.4672354
vt 0.8056287 0.5630751
vt 0.8056287 0.4672501
vt 0.8004959 0.4666427
vt 0.791603 0.4666427
vt 0.7146593 0.390569
vt 0.7198473 0.3904011
vt 0.7196805 0.3289842
vt 0.7145038 0.3243254
vt 0.7193738 0.3208011
vt 0.7146607 0.3056208
vt 0.7196805 0.3026792
vt 0.709615 0.3203772
vt 0.7144893 0.2421594
vt 0.7195092 0.2421505
vt 0.7044528 0.2429868
vt 0.7047912 0.2423355
vt 0.7141452 0.2415644
vt 0.7046242 0.3085535
vt 0.6996075 0.3085447
vt 0.6994361 0.2429779
vt 0.699984 0.3202599
vt 0.70466 0.3209476
vt 0.7000197 0.3213259
vt 0.7047377 0.3218042
vt 0.6998875 0.3220005
vt 0.7046673 0.3225167
vt 0.6996099 0.3905601
vt 0.7046245 0.390569
vt 0.704968 0.3911622
vt 0.714319 0.3911622
vt 0.7150311 0.1508009
vt 0.7200478 0.1508164
vt 0.7197704 0.08225685
vt 0.7150311 0.08101695
vt 0.7196382 0.08158208
vt 0.7196738 0.08051609
vt 0.7200503 0.068801
vt 0.7150311 0.06585281
vt 0.7202217 0.003234298
vt 0.7152025 0.002391509
vt 0.7049946 0.0865371
vt 0.7053484 0.07790737
vt 0.7049946 0.06292006
vt 0.7049946 0.1508009
vt 0.7146884 0.1513958
vt 0.6999772 0.0892405
vt 0.6998105 0.1506573
vt 0.7002839 0.08105759
vt 0.6999772 0.0629355
vt 0.7001485 0.002406902
vt 0.7051659 0.002391462
vt 0.7055107 0.001798131
vt 0.7148615 0.001798131
vt 0.6393504 0.772606
vt 0.6441405 0.7726117
vt 0.6441405 0.6535288
vt 0.6393504 0.6535231
vt 0.6297719 0.653541
vt 0.6297719 0.772624
vt 0.6301148 0.6529477
vt 0.6390076 0.652931
vt 0.6249835 0.6535648
vt 0.6249835 0.7726477
vt 0.4815581 0.8587742
vt 0.4815581 0.9077156
vt 0.4864669 0.9077243
vt 0.4864669 0.8587829
vt 0.4962878 0.9077243
vt 0.4962878 0.8587829
vt 0.5011997 0.9077156
vt 0.5011997 0.8587742
vt 0.2973984 0.8584179
vt 0.2973984 0.9073592
vt 0.302308 0.9073442
vt 0.302308 0.8584028
vt 0.3121288 0.9073442
vt 0.3026508 0.907939
vt 0.311786 0.907939
vt 0.3121288 0.8584028
vt 0.3170401 0.9073592
vt 0.3170401 0.8584179
vt 0.311786 0.8578101
vt 0.3026508 0.8578101
vt 0.6722386 0.8518896
vt 0.6722386 0.9038109
vt 0.6782361 0.9038216
vt 0.6782361 0.8519002
vt 0.6902346 0.9038216
vt 0.6902346 0.8519002
vt 0.6962358 0.9038109
vt 0.6962358 0.8518896
vt 0.8785591 0.1692843
vt 0.8785591 0.2212056
vt 0.8845573 0.2211871
vt 0.8845573 0.1692658
vt 0.8965558 0.2211871
vt 0.8849002 0.221782
vt 0.8962131 0.221782
vt 0.8965558 0.1692658
vt 0.8849002 0.1686731
vt 0.8962131 0.1686731
vt 0.9025562 0.2212056
vt 0.9025562 0.1692843
vt 0.001798128 0.7806201
vt 0.001798128 0.858429
vt 0.007361109 0.8584388
vt 0.007361109 0.78063
vt 0.01849062 0.8584388
vt 0.01849062 0.78063
vt 0.02405715 0.858429
vt 0.02405715 0.7806201
vt 0.5772218 0.7784308
vt 0.5772218 0.8562396
vt 0.5827855 0.8562225
vt 0.5827855 0.7784137
vt 0.5939151 0.8562225
vt 0.5831285 0.8568173
vt 0.5935723 0.8568173
vt 0.5939151 0.7784137
vt 0.5994808 0.8562396
vt 0.5994808 0.7784308
vt 0.5935723 0.7778209
vt 0.5831285 0.7778209
vt 0.8518796 0.2415644
vt 0.8518796 0.3039633
vt 0.8566673 0.3039719
vt 0.8566673 0.2415729
vt 0.8662457 0.3039719
vt 0.8662457 0.2415729
vt 0.8710365 0.3039634
vt 0.8710365 0.2415644
vt 0.8464003 0.7030411
vt 0.8464003 0.76544
vt 0.8511887 0.7654253
vt 0.8511887 0.7030264
vt 0.8607672 0.7654253
vt 0.8515316 0.7660201
vt 0.8604245 0.7660201
vt 0.8607672 0.7030264
vt 0.8655573 0.76544
vt 0.8655573 0.7030411
vt 0.8604245 0.7024336
vt 0.8515316 0.7024336
vt 0.1085822 0.9309383
vt 0.1132887 0.9322754
vt 0.1132827 0.9107817
vt 0.1085833 0.9103503
vt 0.09910379 0.9305098
vt 0.09942923 0.9311273
vt 0.09910379 0.909776
vt 0.09384762 0.930379
vt 0.09384762 0.9096451
vt 0.2039777 0.9306321
vt 0.2039777 0.9098982
vt 0.1999086 0.9103342
vt 0.1999123 0.9305997
vt 0.1898756 0.9108965
vt 0.1898763 0.9315389
vt 0.1845425 0.9110342
vt 0.1845365 0.932528
vt 0.9659494 0.5590518
vt 0.9576542 0.5638411
vt 0.9582466 0.5641802
vt 0.965948 0.5597337
vt 0.9736494 0.56418
vt 0.9742446 0.5638409
vt 0.9582466 0.5730729
vt 0.9742446 0.5734192
vt 0.9736494 0.5730726
vt 0.965948 0.5775191
vt 0.9576542 0.5734194
vt 0.9659494 0.5782084
vt 0.8197493 0.839774
vt 0.8106951 0.8345463
vt 0.8106976 0.8352289
vt 0.819158 0.8401138
vt 0.8197493 0.8502289
vt 0.802237 0.8401133
vt 0.819158 0.849883
vt 0.8106951 0.8554562
vt 0.802237 0.8498827
vt 0.8016407 0.8397736
vt 0.8016407 0.8502285
vt 0.8106976 0.8547675
vt 0.1718151 0.9250486
vt 0.1808694 0.9198212
vt 0.1802756 0.919482
vt 0.171815 0.9243666
vt 0.1627607 0.9198212
vt 0.1633545 0.9194819
vt 0.1633545 0.9097127
vt 0.1627607 0.9093663
vt 0.1718151 0.9041389
vt 0.171815 0.9048281
vt 0.1802756 0.9097127
vt 0.1808694 0.9093664
vt 0.9680489 0.07186954
vt 0.9680489 0.06229111
vt 0.9674582 0.06263576
vt 0.9674582 0.07152855
vt 0.9597538 0.0766589
vt 0.9597569 0.07597508
vt 0.9514587 0.07186981
vt 0.9520555 0.0715288
vt 0.9520555 0.062636
vt 0.9597569 0.05818948
vt 0.9514587 0.06229137
vt 0.9597538 0.05750202
vt 0.9739307 0.7320366
vt 0.9656355 0.7272472
vt 0.9656381 0.7279298
vt 0.9733394 0.7323763
vt 0.9739307 0.7416149
vt 0.9579368 0.732376
vt 0.9733394 0.7412691
vt 0.9656355 0.7464039
vt 0.9579368 0.7412687
vt 0.9573404 0.7320362
vt 0.9573404 0.7416146
vt 0.9656381 0.7457153
vt 0.968161 0.01616567
vt 0.968161 0.006587237
vt 0.9675703 0.006931885
vt 0.9675703 0.01582468
vt 0.9598659 0.02095503
vt 0.959869 0.02027121
vt 0.9515708 0.01616594
vt 0.9521676 0.01582493
vt 0.9521676 0.006932127
vt 0.959869 0.002485606
vt 0.9515708 0.006587498
vt 0.9598659 0.001798148
vt 0.9681106 0.04375858
vt 0.9681106 0.03418014
vt 0.9675215 0.03452571
vt 0.9675215 0.04341851
vt 0.9598202 0.04786503
vt 0.9598155 0.04854793
vt 0.9521189 0.04341875
vt 0.9515204 0.04375884
vt 0.9521189 0.03452595
vt 0.9598203 0.03007943
vt 0.9515204 0.0341804
vt 0.9598156 0.02939105
vt 0.9269444 0.06340906
vt 0.91672 0.057502
vt 0.9167336 0.05816735
vt 0.9263644 0.06373144
vt 0.9071029 0.06372173
vt 0.9263644 0.07484986
vt 0.9269444 0.07521296
vt 0.9071029 0.07484014
vt 0.9064955 0.06339882
vt 0.9064955 0.07520272
vt 0.91672 0.08110978
vt 0.9167337 0.08040424
vt 0.8543682 0.09697674
vt 0.8544709 0.08694219
vt 0.8538768 0.08728088
vt 0.8537829 0.09663126
vt 0.8456288 0.1019077
vt 0.8456367 0.1012262
vt 0.837586 0.09646987
vt 0.8458197 0.08252063
vt 0.84583 0.08183708
vt 0.8375865 0.08695985
vt 0.8369892 0.09680375
vt 0.8369892 0.08660606
vt 0.9479241 0.04444672
vt 0.9479241 0.0344102
vt 0.9473299 0.03475441
vt 0.9473299 0.044103
vt 0.9392269 0.0494641
vt 0.9392242 0.04877917
vt 0.9392242 0.03007665
vt 0.9311263 0.03475216
vt 0.9311263 0.04410378
vt 0.9392269 0.02939106
vt 0.9305351 0.04444586
vt 0.9305351 0.03440934
vt 0.1254688 0.9342251
vt 0.1169637 0.9391356
vt 0.1175561 0.9394747
vt 0.1254674 0.9349071
vt 0.1333787 0.9394745
vt 0.1339739 0.9391354
vt 0.1175561 0.9486097
vt 0.1339739 0.948956
vt 0.1254674 0.9531771
vt 0.1169637 0.9489563
vt 0.1254688 0.9538665
vt 0.1333787 0.9486095
vt 0.9168876 0.001798135
vt 0.9064966 0.007797456
vt 0.9070889 0.008136543
vt 0.9168862 0.002480045
vt 0.9272786 0.00779715
vt 0.9266835 0.008136254
vt 0.9272786 0.0197955
vt 0.9070889 0.01944926
vt 0.9266835 0.01944897
vt 0.9168876 0.02579482
vt 0.9064966 0.0197958
vt 0.9168862 0.02510547
vt 0.9061179 0.4561492
vt 0.9165088 0.4621486
vt 0.9165057 0.4614647
vt 0.9067085 0.4558081
vt 0.9061179 0.4441506
vt 0.9067085 0.4444952
vt 0.9165088 0.4381515
vt 0.9165057 0.4388389
vt 0.9263029 0.4558084
vt 0.9268997 0.444151
vt 0.9268997 0.4561495
vt 0.9263029 0.4444955
vt 0.6249835 0.9166958
vt 0.6249835 0.9278253
vt 0.6255734 0.9274819
vt 0.6255734 0.917038
vt 0.6346218 0.911131
vt 0.6346179 0.911816
vt 0.6346179 0.9327037
vt 0.64426 0.9166957
vt 0.6436623 0.9170379
vt 0.6436623 0.9274818
vt 0.6346218 0.93339
vt 0.64426 0.9278252
vt 0.5008346 0.9280146
vt 0.5008346 0.9168851
vt 0.5002439 0.9172298
vt 0.5002439 0.9276736
vt 0.4911963 0.9335794
vt 0.4911994 0.9328956
vt 0.481558 0.9280149
vt 0.4821548 0.9276738
vt 0.4911994 0.912008
vt 0.4821548 0.91723
vt 0.481558 0.9168854
vt 0.4911963 0.9113205
vt 0.9026053 0.1596602
vt 0.9020061 0.1599986
vt 0.9106975 0.1650202
vt 0.9106905 0.1643454
vt 0.9187942 0.1596501
vt 0.9193888 0.1599933
vt 0.9026066 0.1503049
vt 0.9187779 0.1508563
vt 0.9106075 0.1462394
vt 0.9106349 0.1455727
vt 0.9193714 0.1505102
vt 0.9020061 0.1499581
vt 0.9020061 0.1599986
vt 0.5772218 0.7735966
vt 0.5820094 0.6545315
vt 0.5772218 0.654514
vt 0.5820094 0.7736141
vt 0.5915879 0.6545494
vt 0.5915879 0.773632
vt 0.5823523 0.7742079
vt 0.5912452 0.7742246
vt 0.5963787 0.7736326
vt 0.5963787 0.6545499
vt 0.1627607 0.9663526
vt 0.163357 0.957114
vt 0.1627607 0.9567743
vt 0.163357 0.9660068
vt 0.1710558 0.971142
vt 0.1710584 0.9704533
vt 0.179351 0.966353
vt 0.1787597 0.9660071
vt 0.1787597 0.9571144
vt 0.1710583 0.9526678
vt 0.179351 0.9567747
vt 0.1710558 0.9519852
vt 0.9064966 0.04710193
vt 0.9070667 0.03563961
vt 0.9064966 0.03529383
vt 0.9070667 0.04676212
vt 0.9166942 0.03007966
vt 0.9166942 0.05232454
vt 0.9167177 0.05300729
vt 0.9263218 0.03564207
vt 0.9167177 0.02939109
vt 0.9269388 0.03529644
vt 0.9269388 0.04710454
vt 0.9263218 0.04676458
vt 0.8482204 0.9536291
vt 0.856912 0.9586523
vt 0.8569093 0.9579681
vt 0.8656037 0.9536365
vt 0.8488103 0.9532875
vt 0.8482377 0.944145
vt 0.8649971 0.9533008
vt 0.8656037 0.9435979
vt 0.8649967 0.943947
vt 0.8569745 0.9392085
vt 0.8488263 0.9444919
vt 0.8569945 0.9398768
vt 0.9576037 0.5054681
vt 0.9658989 0.5102573
vt 0.9658989 0.5095752
vt 0.9741941 0.5054682
vt 0.9736003 0.5051289
vt 0.9581974 0.5051289
vt 0.9576037 0.4958898
vt 0.9581974 0.4962362
vt 0.9736003 0.4962362
vt 0.9658989 0.4917899
vt 0.9658989 0.4911007
vt 0.9741941 0.4958898
vt 0.9576089 0.4810103
vt 0.9659041 0.4857993
vt 0.9659027 0.48511
vt 0.9582013 0.4806637
vt 0.9741993 0.48101
vt 0.9736041 0.4806635
vt 0.9736041 0.4717709
vt 0.9582013 0.4717711
vt 0.9741993 0.4714318
vt 0.9659027 0.4673246
vt 0.9576089 0.471432
vt 0.9659041 0.4666427
vt 0.9452394 0.7468888
vt 0.9537444 0.7419783
vt 0.9531536 0.7416373
vt 0.9537444 0.7321575
vt 0.9531536 0.7325022
vt 0.9452424 0.746205
vt 0.9367344 0.7419785
vt 0.9373312 0.7416375
vt 0.9452424 0.7279347
vt 0.9367344 0.7321578
vt 0.9373312 0.7325024
vt 0.9452394 0.7272472
vt 0.9613114 0.6809307
vt 0.9696065 0.6761414
vt 0.9690135 0.6758021
vt 0.9690135 0.6669093
vt 0.9613122 0.6802486
vt 0.9696065 0.6665629
vt 0.9536108 0.6758024
vt 0.9613114 0.6617739
vt 0.9536108 0.6669096
vt 0.9530163 0.6761416
vt 0.9530163 0.6665632
vt 0.9613122 0.6624631
vt 0.9576098 0.7168012
vt 0.965905 0.7215902
vt 0.9659009 0.720902
vt 0.9581995 0.7164558
vt 0.9736023 0.7164556
vt 0.9742001 0.716801
vt 0.9736023 0.7075629
vt 0.9742001 0.7072227
vt 0.9581995 0.7075631
vt 0.965905 0.7024336
vt 0.9659009 0.7031167
vt 0.9576098 0.7072229
vt 0.9673277 0.09535084
vt 0.9679188 0.09570076
vt 0.9679188 0.08596942
vt 0.9594838 0.1002544
vt 0.967328 0.08630711
vt 0.9594999 0.09957452
vt 0.9518365 0.09504855
vt 0.9512364 0.09538365
vt 0.9596709 0.08178502
vt 0.9513329 0.08580703
vt 0.9519244 0.08615618
vt 0.9596726 0.08109979
vt 0.9513611 0.2134042
vt 0.9513611 0.2229826
vt 0.9519518 0.2226416
vt 0.9596562 0.227772
vt 0.9596531 0.2270881
vt 0.9519518 0.2137488
vt 0.9596562 0.2086151
vt 0.9596531 0.2093025
vt 0.9673544 0.213749
vt 0.9673544 0.2226418
vt 0.9679513 0.2134044
vt 0.9679513 0.2229829
vt 0.9594864 0.4573085
vt 0.9677814 0.4525192
vt 0.9671837 0.4521757
vt 0.9677814 0.4429407
vt 0.9594824 0.4566222
vt 0.9671837 0.4432829
vt 0.9594864 0.4381515
vt 0.9594824 0.4388365
vt 0.9517812 0.443283
vt 0.9517812 0.4521758
vt 0.9511914 0.4429408
vt 0.9511914 0.4525193
vt 0.9576542 0.5961722
vt 0.9659494 0.6009613
vt 0.9659447 0.600275
vt 0.9582433 0.5958288
vt 0.9736461 0.5958286
vt 0.9742446 0.596172
vt 0.9736461 0.5869359
vt 0.9742446 0.5865937
vt 0.9659494 0.5818046
vt 0.9659447 0.5824897
vt 0.9582433 0.5869362
vt 0.9576542 0.5865939
usemtl MV_RockHexic_Spire
f 1/1/1 3/3/3 2/2/2
f 4/4/4 6/6/6 5/5/5
f 4/4/4 7/7/7 6/6/6
f 7/7/7 8/8/8 6/6/6
f 9/9/9 8/8/8 7/7/7
f 9/9/9 10/10/10 8/8/8
f 4/4/4 11/11/11 7/7/7
f 7/7/7 11/11/11 9/9/9
f 12/12/12 10/10/10 9/9/9
f 12/12/12 13/13/13 10/10/10
f 14/14/14 12/12/12 9/9/9
f 14/14/14 15/15/15 12/12/12
f 14/14/14 16/16/16 15/15/15
f 14/14/14 9/9/9 17/17/17
f 11/11/11 17/17/17 9/9/9
f 18/18/18 14/14/14 17/17/17
f 18/18/18 17/17/17 19/19/19
f 20/20/20 19/19/19 17/17/17
f 20/20/20 17/17/17 21/21/21
f 11/11/11 21/21/21 17/17/17
f 22/22/22 20/20/20 21/21/21
f 22/22/22 21/21/21 23/23/23
f 21/21/21 11/11/11 23/23/23
f 24/24/24 22/22/22 23/23/23
f 11/11/11 25/25/25 23/23/23
f 24/24/24 23/23/23 25/25/25
f 26/26/26 24/24/24 25/25/25
f 26/26/26 25/25/25 27/27/27
f 25/25/25 11/11/11 4/4/4
f 25/25/25 4/4/4 27/27/27
f 4/4/4 28/28/28 27/27/27
f 4/4/4 29/29/29 28/28/28
f 30/30/30 32/32/32 31/31/31
f 30/30/30 33/33/33 32/32/32
f 33/33/33 34/34/34 32/32/32
f 34/34/34 33/33/33 35/35/35
f 33/33/33 36/36/36 35/35/35
f 37/37/37 33/33/33 30/30/30
f 37/37/37 30/30/30 38/38/38
f 33/33/33 39/39/39 36/36/36
f 39/39/39 40/40/40 36/36/36
f 39/39/39 41/41/41 40/40/40
f 42/42/42 37/37/37 38/38/38
f 42/42/42 38/38/38 43/43/43
f 44/44/44 37/37/37 42/42/42
f 37/37/37 45/45/45 33/33/33
f 44/44/44 45/45/45 37/37/37
f 45/45/45 39/39/39 33/33/33
f 46/46/46 45/45/45 44/44/44
f 47/47/47 41/41/41 39/39/39
f 45/45/45 47/47/47 39/39/39
f 46/46/46 47/47/47 45/45/45
f 47/47/47 48/48/48 41/41/41
f 49/49/49 47/47/47 46/46/46
f 49/49/49 48/48/48 47/47/47
f 50/50/50 52/52/52 51/51/51
f 50/50/50 53/53/53 52/52/52
f 53/53/53 54/54/54 52/52/52
f 53/53/53 55/55/55 54/54/54
f 55/55/55 56/56/56 54/54/54
f 55/55/55 57/57/57 56/56/56
f 58/58/58 60/60/60 59/59/59
f 58/58/58 61/61/61 60/60/60
f 61/61/61 62/62/62 60/60/60
f 62/62/62 63/63/63 60/60/60
f 62/62/62 64/64/64 63/63/63
f 61/61/61 65/65/65 62/62/62
f 65/65/65 61/61/61 66/66/66
f 65/65/65 66/66/66 67/67/67
f 65/65/65 68/68/68 62/62/62
f 65/65/65 69/69/69 68/68/68
f 70/70/70 72/72/72 71/71/71
f 70/70/70 73/73/73 72/72/72
f 73/73/73 74/74/74 72/72/72
f 73/73/73 75/75/75 74/74/74
f 75/75/75 76/76/76 74/74/74
f 75/75/75 77/77/77 76/76/76
f 78/78/78 80/80/80 79/79/79
f 78/78/78 81/81/81 80/80/80
f 81/81/81 82/82/82 80/80/80
f 82/82/82 83/83/83 80/80/80
f 82/82/82 84/84/84 83/83/83
f 81/81/81 85/85/85 82/82/82
f 85/85/85 86/86/86 82/82/82
f 85/85/85 87/87/87 86/86/86
f 81/81/81 88/88/88 85/85/85
f 81/81/81 89/89/89 88/88/88
f 90/90/90 92/92/92 91/91/91
f 90/90/90 93/93/93 92/92/92
f 93/93/93 94/94/94 92/92/92
f 93/93/93 95/95/95 94/94/94
f 95/95/95 96/96/96 94/94/94
f 95/95/95 97/97/97 96/96/96
f 98/98/98 100/100/100 99/99/99
f 98/98/98 101/101/101 100/100/100
f 101/101/101 102/102/102 100/100/100
f 100/100/100 102/102/102 103/103/103
f 100/100/100 103/103/103 104/104/104
f 101/101/101 105/105/105 102/102/102
f 105/105/105 106/106/106 102/102/102
f 105/105/105 107/107/107 106/106/106
f 101/101/101 108/108/108 105/105/105
f 101/101/101 109/109/109 108/108/108
f 110/110/110 112/112/112 111/111/111
f 110/110/110 113/113/113 112/112/112
f 113/113/113 114/114/114 112/112/112
f 113/113/113 115/115/115 114/114/114
f 116/116/116 113/113/113 110/110/110
f 110/110/110 117/117/117 116/116/116
f 110/110/110 118/118/118 117/117/117
f 116/116/116 119/119/119 113/113/113
f 120/120/120 119/119/119 116/116/116
f 120/120/120 121/121/121 119/119/119
f 122/122/122 119/119/119 121/121/121
f 122/122/122 123/123/123 119/119/119
f 123/123/123 113/113/113 119/119/119
f 123/123/123 115/115/115 113/113/113
f 115/115/115 123/123/123 124/124/124
f 115/115/115 124/124/124 125/125/125
f 126/126/126 128/128/128 127/127/127
f 126/126/126 129/129/129 128/128/128
f 129/129/129 130/130/130 128/128/128
f 126/126/126 131/131/131 129/129/129
f 126/126/126 132/132/132 131/131/131
f 129/129/129 131/131/131 133/133/133
f 129/129/129 134/134/134 130/130/130
f 129/129/129 133/133/133 134/134/134
f 134/134/134 135/135/135 130/130/130
f 134/134/134 136/136/136 135/135/135
f 133/133/133 136/136/136 134/134/134
f 133/133/133 137/137/137 136/136/136
f 138/138/138 140/140/140 139/139/139
f 138/138/138 141/141/141 140/140/140
f 141/141/141 142/142/142 140/140/140
f 141/141/141 143/143/143 142/142/142
f 140/140/140 142/142/142 144/144/144
f 140/140/140 144/144/144 145/145/145
f 143/143/143 146/146/146 142/142/142
f 143/143/143 147/147/147 146/146/146
f 148/148/148 150/150/150 149/149/149
f 148/148/148 151/151/151 150/150/150
f 152/152/152 151/151/151 148/148/148
f 152/152/152 153/153/153 151/151/151
f 154/154/154 153/153/153 152/152/152
f 154/154/154 155/155/155 153/153/153
f 153/153/153 156/156/156 151/151/151
f 153/153/153 157/157/157 156/156/156
f 158/158/158 160/160/160 159/159/159
f 158/158/158 161/161/161 160/160/160
f 161/161/161 162/162/162 160/160/160
f 161/161/161 163/163/163 162/162/162
f 163/163/163 164/164/164 162/162/162
f 163/163/163 165/165/165 164/164/164
f 166/166/166 168/168/168 167/167/167
f 166/166/166 169/169/169 168/168/168
f 169/169/169 170/170/170 168/168/168
f 170/170/170 171/171/171 168/168/168
f 170/170/170 172/172/172 171/171/171
f 169/169/169 173/173/173 170/170/170
f 173/173/173 174/174/174 170/170/170
f 173/173/173 175/175/175 174/174/174
f 169/169/169 176/176/176 173/173/173
f 169/169/169 177/177/177 176/176/176
f 178/178/178 180/180/180 179/179/179
f 178/178/178 181/181/181 180/180/180
f 181/181/181 182/182/182 180/180/180
f 183/183/183 182/182/182 181/181/181
f 183/183/183 184/184/184 182/182/182
f 178/178/178 185/185/185 181/181/181
f 181/181/181 185/185/185 183/183/183
f 186/186/186 184/184/184 183/183/183
f 186/186/186 187/187/187 184/184/184
f 188/188/188 186/186/186 183/183/183
f 186/186/186 188/188/188 189/189/189
f 186/186/186 189/189/189 190/190/190
f 188/188/188 183/183/183 191/191/191
f 185/185/185 191/191/191 183/183/183
f 192/192/192 188/188/188 191/191/191
f 192/192/192 193/193/193 188/188/188
f 194/194/194 192/192/192 191/191/191
f 194/194/194 191/191/191 195/195/195
f 185/185/185 195/195/195 191/191/191
f 196/196/196 194/194/194 195/195/195
f 196/196/196 195/195/195 197/197/197
f 195/195/195 185/185/185 197/197/197
f 198/198/198 196/196/196 197/197/197
f 185/185/185 199/199/199 197/197/197
f 198/198/198 197/197/197 199/199/199
f 200/200/200 198/198/198 199/199/199
f 200/200/200 199/199/199 201/201/201
f 199/199/199 185/185/185 178/178/178
f 199/199/199 178/178/178 201/201/201
f 178/178/178 202/202/202 201/201/201
f 178/178/178 203/203/203 202/202/202
f 204/204/204 206/206/206 205/205/205
f 204/204/204 207/207/207 206/206/206
f 207/207/207 208/208/208 206/206/206
f 208/208/208 207/207/207 209/209/209
f 207/207/207 210/210/210 209/209/209
f 207/207/207 211/211/211 210/210/210
f 211/211/211 212/212/212 210/210/210
f 211/211/211 213/213/213 212/212/212
f 214/214/214 207/207/207 204/204/204
f 215/215/215 211/211/211 207/207/207
f 214/214/214 215/215/215 207/207/207
f 216/216/216 213/213/213 211/211/211
f 215/215/215 216/216/216 211/211/211
f 214/214/214 204/204/204 217/217/217
f 217/217/217 204/204/204 218/218/218
f 219/219/219 214/214/214 217/217/217
f 219/219/219 217/217/217 220/220/220
f 221/221/221 214/214/214 219/219/219
f 221/221/221 215/215/215 214/214/214
f 222/222/222 215/215/215 221/221/221
f 222/222/222 216/216/216 215/215/215
f 223/223/223 216/216/216 222/222/222
f 223/223/223 224/224/224 216/216/216
f 216/216/216 224/224/224 213/213/213
f 213/213/213 224/224/224 225/225/225
f 213/213/213 225/225/225 226/226/226
f 227/227/227 229/229/229 228/228/228
f 227/227/227 230/230/230 229/229/229
f 231/231/231 230/230/230 227/227/227
f 231/231/231 227/227/227 232/232/232
f 230/230/230 231/231/231 233/233/233
f 230/230/230 233/233/233 234/234/234
f 235/235/235 231/231/231 232/232/232
f 235/235/235 232/232/232 236/236/236
f 237/237/237 239/239/239 238/238/238
f 237/237/237 240/240/240 239/239/239
f 240/240/240 241/241/241 239/239/239
f 240/240/240 242/242/242 241/241/241
f 242/242/242 243/243/243 241/241/241
f 242/242/242 244/244/244 243/243/243
f 245/245/245 247/247/247 246/246/246
f 245/245/245 248/248/248 247/247/247
f 248/248/248 249/249/249 247/247/247
f 249/249/249 250/250/250 247/247/247
f 249/249/249 251/251/251 250/250/250
f 248/248/248 252/252/252 249/249/249
f 252/252/252 253/253/253 249/249/249
f 252/252/252 254/254/254 253/253/253
f 248/248/248 255/255/255 252/252/252
f 248/248/248 256/256/256 255/255/255
f 257/257/257 259/259/259 258/258/258
f 257/257/257 260/260/260 259/259/259
f 260/260/260 261/261/261 259/259/259
f 260/260/260 262/262/262 261/261/261
f 262/262/262 263/263/263 261/261/261
f 262/262/262 264/264/264 263/263/263
f 265/265/265 267/267/267 266/266/266
f 265/265/265 268/268/268 267/267/267
f 268/268/268 269/269/269 267/267/267
f 269/269/269 270/270/270 267/267/267
f 269/269/269 271/271/271 270/270/270
f 268/268/268 272/272/272 269/269/269
f 272/272/272 268/268/268 273/273/273
f 272/272/272 273/273/273 274/274/274
f 272/272/272 275/275/275 269/269/269
f 272/272/272 276/276/276 275/275/275
f 277/277/277 279/279/279 278/278/278
f 277/277/277 280/280/280 279/279/279
f 280/280/280 281/281/281 279/279/279
f 280/280/280 282/282/282 281/281/281
f 282/282/282 283/283/283 281/281/281
f 282/282/282 284/284/284 283/283/283
f 285/285/285 287/287/287 286/286/286
f 285/285/285 288/288/288 287/287/287
f 288/288/288 289/289/289 287/287/287
f 289/289/289 290/290/290 287/287/287
f 289/289/289 291/291/291 290/290/290
f 288/288/288 292/292/292 289/289/289
f 292/292/292 293/293/293 289/289/289
f 292/292/292 294/294/294 293/293/293
f 288/288/288 295/295/295 292/292/292
f 288/288/288 296/296/296 295/295/295
f 297/297/297 299/299/299 298/298/298
f 297/297/297 300/300/300 299/299/299
f 300/300/300 301/301/301 299/299/299
f 300/300/300 302/302/302 301/301/301
f 302/302/302 303/303/303 301/301/301
f 302/302/302 304/304/304 303/303/303
f 305/305/305 307/307/307 306/306/306
f 305/305/305 308/308/308 307/307/307
f 308/308/308 309/309/309 307/307/307
f 309/309/309 310/310/310 307/307/307
f 309/309/309 311/311/311 310/310/310
f 308/308/308 312/312/312 309/309/309
f 312/312/312 313/313/313 309/309/309
f 312/312/312 314/314/314 313/313/313
f 308/308/308 315/315/315 312/312/312
f 308/308/308 316/316/316 315/315/315
f 317/317/317 319/319/319 318/318/318
f 317/317/317 320/320/320 319/319/319
f 321/321/321 320/320/320 317/317/317
f 322/322/322 321/321/321 317/317/317
f 321/321/321 323/323/323 320/320/320
f 324/324/324 323/323/323 321/321/321
f 324/324/324 325/325/325 323/323/323
f 326/326/326 328/328/328 327/327/327
f 326/326/326 329/329/329 328/328/328
f 329/329/329 330/330/330 328/328/328
f 329/329/329 331/331/331 330/330/330
f 331/331/331 332/332/332 330/330/330
f 331/331/331 333/333/333 332/332/332
f 334/334/334 336/336/336 335/335/335
f 334/334/334 337/337/337 336/336/336
f 334/334/334 338/338/338 337/337/337
f 338/338/338 336/336/336 337/337/337
f 334/334/334 339/339/339 338/338/338
f 338/338/338 340/340/340 336/336/336
f 341/341/341 338/338/338 339/339/339
f 340/340/340 338/338/338 342/342/342
f 341/341/341 342/342/342 338/338/338
f 340/340/340 342/342/342 343/343/343
f 341/341/341 343/343/343 342/342/342
f 344/344/344 340/340/340 343/343/343
f 341/341/341 345/345/345 343/343/343
f 344/344/344 343/343/343 345/345/345
f 346/346/346 348/348/348 347/347/347
f 346/346/346 349/349/349 348/348/348
f 350/350/350 349/349/349 346/346/346
f 351/351/351 348/348/348 349/349/349
f 350/350/350 352/352/352 349/349/349
f 351/351/351 349/349/349 352/352/352
f 353/353/353 352/352/352 350/350/350
f 352/352/352 354/354/354 351/351/351
f 355/355/355 351/351/351 354/354/354
f 355/355/355 354/354/354 356/356/356
f 356/356/356 357/357/357 353/353/353
f 353/353/353 357/357/357 352/352/352
f 352/352/352 357/357/357 354/354/354
f 356/356/356 354/354/354 357/357/357
f 358/358/358 360/360/360 359/359/359
f 358/358/358 361/361/361 360/360/360
f 362/362/362 361/361/361 358/358/358
f 362/362/362 363/363/363 361/361/361
f 362/362/362 364/364/364 363/363/363
f 364/364/364 361/361/361 363/363/363
f 364/364/364 360/360/360 361/361/361
f 362/362/362 365/365/365 364/364/364
f 366/366/366 364/364/364 365/365/365
f 360/360/360 364/364/364 367/367/367
f 366/366/366 367/367/367 364/364/364
f 360/360/360 367/367/367 368/368/368
f 369/369/369 367/367/367 366/366/366
f 369/369/369 368/368/368 367/367/367
f 370/370/370 372/372/372 371/371/371
f 370/370/370 373/373/373 372/372/372
f 374/374/374 373/373/373 370/370/370
f 374/374/374 375/375/375 373/373/373
f 376/376/376 375/375/375 374/374/374
f 377/377/377 373/373/373 375/375/375
f 377/377/377 372/372/372 373/373/373
f 376/376/376 377/377/377 375/375/375
f 372/372/372 377/377/377 378/378/378
f 376/376/376 378/378/378 377/377/377
f 372/372/372 378/378/378 379/379/379
f 376/376/376 380/380/380 378/378/378
f 381/381/381 379/379/379 378/378/378
f 381/381/381 378/378/378 380/380/380
f 382/382/382 384/384/384 383/383/383
f 382/382/382 385/385/385 384/384/384
f 386/386/386 385/385/385 382/382/382
f 387/387/387 384/384/384 385/385/385
f 386/386/386 388/388/388 385/385/385
f 387/387/387 385/385/385 388/388/388
f 389/389/389 388/388/388 386/386/386
f 388/388/388 390/390/390 387/387/387
f 391/391/391 387/387/387 390/390/390
f 391/391/391 390/390/390 392/392/392
f 389/389/389 392/392/392 390/390/390
f 388/388/388 393/393/393 390/390/390
f 389/389/389 390/390/390 393/393/393
f 389/389/389 393/393/393 388/388/388
f 394/394/394 396/396/396 395/395/395
f 394/394/394 397/397/397 396/396/396
f 398/398/398 397/397/397 394/394/394
f 398/398/398 399/399/399 397/397/397
f 400/400/400 399/399/399 398/398/398
f 401/401/401 397/397/397 399/399/399
f 401/401/401 396/396/396 397/397/397
f 400/400/400 401/401/401 399/399/399
f 396/396/396 401/401/401 402/402/402
f 400/400/400 402/402/402 401/401/401
f 396/396/396 402/402/402 403/403/403
f 400/400/400 404/404/404 402/402/402
f 405/405/405 403/403/403 402/402/402
f 405/405/405 402/402/402 404/404/404
f 406/406/406 408/408/408 407/407/407
f 406/406/406 409/409/409 408/408/408
f 406/406/406 410/410/410 409/409/409
f 406/406/406 411/411/411 410/410/410
f 412/412/412 409/409/409 410/410/410
f 411/411/411 412/412/412 410/410/410
f 412/412/412 408/408/408 409/409/409
f 411/411/411 413/413/413 412/412/412
f 408/408/408 412/412/412 414/414/414
f 413/413/413 414/414/414 412/412/412
f 408/408/408 414/414/414 415/415/415
f 413/413/413 416/416/416 414/414/414
f 417/417/417 415/415/415 414/414/414
f 417/417/417 414/414/414 416/416/416
f 418/418/418 420/420/420 419/419/419
f 418/418/418 421/421/421 420/420/420
f 422/422/422 420/420/420 421/421/421
f 418/418/418 423/423/423 421/421/421
f 422/422/422 421/421/421 423/423/423
f 418/418/418 424/424/424 423/423/423
f 423/423/423 425/425/425 422/422/422
f 426/426/426 422/422/422 425/425/425
f 426/426/426 425/425/425 427/427/427
f 428/428/428 427/427/427 425/425/425
f 424/424/424 429/429/429 423/423/423
f 424/424/424 428/428/428 429/429/429
f 428/428/428 425/425/425 429/429/429
f 423/423/423 429/429/429 425/425/425
f 430/430/430 432/432/432 431/431/431
f 430/430/430 433/433/433 432/432/432
f 434/434/434 433/433/433 430/430/430
f 434/434/434 435/435/435 433/433/433
f 432/432/432 433/433/433 435/435/435
f 432/432/432 435/435/435 436/436/436
f 437/437/437 432/432/432 436/436/436
f 438/438/438 432/432/432 437/437/437
f 437/437/437 436/436/436 439/439/439
f 439/439/439 438/438/438 437/437/437
f 439/439/439 436/436/436 440/440/440
f 439/439/439 441/441/441 438/438/438
f 439/439/439 440/440/440 441/441/441
f 442/442/442 444/444/444 443/443/443
f 442/442/442 445/445/445 444/444/444
f 446/446/446 445/445/445 442/442/442
f 446/446/446 447/447/447 445/445/445
f 447/447/447 444/444/444 445/445/445
f 447/447/447 448/448/448 444/444/444
f 447/447/447 449/449/449 448/448/448
f 447/447/447 450/450/450 449/449/449
f 451/451/451 448/448/448 449/449/449
f 452/452/452 449/449/449 450/450/450
f 451/451/451 449/449/449 453/453/453
f 452/452/452 453/453/453 449/449/449
f 454/454/454 456/456/456 455/455/455
f 454/454/454 457/457/457 456/456/456
f 454/454/454 458/458/458 457/457/457
f 458/458/458 456/456/456 457/457/457
f 454/454/454 459/459/459 458/458/458
f 458/458/458 460/460/460 456/456/456
f 461/461/461 458/458/458 459/459/459
f 458/458/458 462/462/462 460/460/460
f 463/463/463 460/460/460 462/462/462
f 463/463/463 462/462/462 464/464/464
f 464/464/464 465/465/465 461/461/461
f 461/461/461 465/465/465 458/458/458
f 458/458/458 465/465/465 462/462/462
f 464/464/464 462/462/462 465/465/465
f 466/466/466 468/468/468 467/467/467
f 466/466/466 469/469/469 468/468/468
f 470/470/470 469/469/469 466/466/466
f 471/471/471 468/468/468 469/469/469
f 470/470/470 471/471/471 469/469/469
f 472/472/472 471/471/471 470/470/470
f 471/471/471 473/473/473 468/468/468
f 472/472/472 474/474/474 471/471/471
f 473/473/473 471/471/471 474/474/474
f 475/475/475 474/474/474 472/472/472
f 475/475/475 476/476/476 473/473/473
f 473/473/473 474/474/474 477/477/477
f 475/475/475 473/473/473 477/477/477
f 475/475/475 477/477/477 474/474/474
f 478/478/478 480/480/480 479/479/479
f 478/478/478 481/481/481 480/480/480
f 482/482/482 481/481/481 478/478/478
f 482/482/482 483/483/483 481/481/481
f 483/483/483 480/480/480 481/481/481
f 484/484/484 483/483/483 482/482/482
f 483/483/483 485/485/485 480/480/480
f 484/484/484 485/485/485 483/483/483
f 485/485/485 486/486/486 480/480/480
f 487/487/487 485/485/485 484/484/484
f 487/487/487 488/488/488 486/486/486
f 485/485/485 489/489/489 486/486/486
f 487/487/487 486/486/486 489/489/489
f 487/487/487 489/489/489 485/485/485
f 490/490/490 492/492/492 491/491/491
f 490/490/490 493/493/493 492/492/492
f 494/494/494 493/493/493 490/490/490
f 495/495/495 492/492/492 493/493/493
f 494/494/494 495/495/495 493/493/493
f 495/495/495 496/496/496 492/492/492
f 497/497/497 495/495/495 494/494/494
f 496/496/496 495/495/495 498/498/498
f 497/497/497 498/498/498 495/495/495
f 496/496/496 498/498/498 499/499/499
f 497/497/497 499/499/499 498/498/498
f 500/500/500 496/496/496 499/499/499
f 497/497/497 501/501/501 499/499/499
f 500/500/500 499/499/499 501/501/501
f 502/502/502 504/504/504 503/503/503
f 502/502/502 505/505/505 504/504/504
f 506/506/506 505/505/505 502/502/502
f 506/506/506 507/507/507 505/505/505
f 507/507/507 504/504/504 505/505/505
f 508/508/508 507/507/507 506/506/506
f 507/507/507 509/509/509 504/504/504
f 508/508/508 509/509/509 507/507/507
f 509/509/509 510/510/510 504/504/504
f 508/508/508 511/511/511 509/509/509
f 509/509/509 511/511/511 510/510/510
f 508/508/508 512/512/512 511/511/511
f 513/513/513 510/510/510 511/511/511
f 513/513/513 511/511/511 512/512/512
f 514/514/514 516/516/516 515/515/515
f 514/514/514 517/517/517 516/516/516
f 518/518/518 517/517/517 514/514/514
f 518/518/518 516/516/516 517/517/517
f 518/518/518 519/519/519 516/516/516
f 518/518/518 514/514/514 520/520/520
f 521/521/521 519/519/519 518/518/518
f 522/522/522 521/521/521 518/518/518
f 522/522/522 518/518/518 520/520/520
f 521/521/521 522/522/522 523/523/523
f 520/520/520 523/523/523 522/522/522
f 521/521/521 523/523/523 524/524/524
f 520/520/520 525/525/525 523/523/523
f 520/520/520 526/526/526 525/525/525
f 527/527/527 529/529/529 528/528/528
f 527/527/527 528/528/528 530/530/530
f 530/530/530 528/528/528 531/531/531
f 530/530/530 531/531/531 532/532/532
f 532/532/532 533/533/533 530/530/530
f 532/532/532 534/534/534 533/533/533
f 531/531/531 535/535/535 532/532/532
f 531/531/531 536/536/536 535/535/535
f 537/537/537 539/539/539 538/538/538
f 537/537/537 538/538/538 540/540/540
f 541/541/541 537/537/537 540/540/540
f 541/541/541 540/540/540 542/542/542
f 543/543/543 541/541/541 542/542/542
f 544/544/544 542/542/542 540/540/540
f 544/544/544 540/540/540 538/538/538
f 543/543/543 542/542/542 544/544/544
f 538/538/538 545/545/545 544/544/544
f 543/543/543 544/544/544 545/545/545
f 538/538/538 546/546/546 545/545/545
f 543/543/543 545/545/545 547/547/547
f 548/548/548 545/545/545 546/546/546
f 548/548/548 547/547/547 545/545/545
f 549/549/549 551/551/551 550/550/550
f 549/549/549 550/550/550 552/552/552
f 553/553/553 552/552/552 550/550/550
f 549/549/549 552/552/552 554/554/554
f 553/553/553 554/554/554 552/552/552
f 549/549/549 554/554/554 555/555/555
f 554/554/554 553/553/553 556/556/556
f 557/557/557 556/556/556 553/553/553
f 557/557/557 558/558/558 556/556/556
f 559/559/559 556/556/556 558/558/558
f 555/555/555 560/560/560 559/559/559
f 555/555/555 554/554/554 560/560/560
f 554/554/554 556/556/556 560/560/560
f 559/559/559 560/560/560 556/556/556
f 561/561/561 563/563/563 562/562/562
f 564/564/564 562/562/562 563/563/563
f 561/561/561 565/565/565 563/563/563
f 566/566/566 565/565/565 561/561/561
f 564/564/564 563/563/563 567/567/567
f 565/565/565 567/567/567 563/563/563
f 568/568/568 564/564/564 567/567/567
f 568/568/568 567/567/567 569/569/569
f 565/565/565 569/569/569 567/567/567
f 570/570/570 568/568/568 569/569/569
f 570/570/570 571/571/571 566/566/566
f 566/566/566 571/571/571 565/565/565
f 565/565/565 572/572/572 569/569/569
f 570/570/570 569/569/569 572/572/572
f 565/565/565 571/571/571 572/572/572
f 570/570/570 572/572/572 571/571/571
f 573/573/573 575/575/575 574/574/574
f 576/576/576 574/574/574 575/575/575
f 576/576/576 575/575/575 577/577/577
f 573/573/573 578/578/578 575/575/575
f 578/578/578 577/577/577 575/575/575
f 579/579/579 578/578/578 573/573/573
f 578/578/578 580/580/580 577/577/577
f 579/579/579 580/580/580 578/578/578
f 580/580/580 581/581/581 577/577/577
f 579/579/579 582/582/582 580/580/580
f 580/580/580 582/582/582 581/581/581
f 579/579/579 583/583/583 582/582/582
f 584/584/584 581/581/581 582/582/582
f 584/584/584 582/582/582 583/583/583
f 585/585/585 587/587/587 586/586/586
f 585/585/585 588/588/588 587/587/587
f 589/589/589 586/586/586 587/587/587
f 588/588/588 590/590/590 587/587/587
f 589/589/589 587/587/587 590/590/590
f 588/588/588 591/591/591 590/590/590
f 589/589/589 590/590/590 591/591/591
f 591/591/591 588/588/588 592/592/592
f 589/589/589 591/591/591 593/593/593
f 591/591/591 592/592/592 594/594/594
f 593/593/593 591/591/591 594/594/594
f 595/595/595 594/594/594 592/592/592
f 593/593/593 594/594/594 596/596/596
f 595/595/595 596/596/596 594/594/594
f 597/597/597 599/599/599 598/598/598
f 600/600/600 598/598/598 599/599/599
f 600/600/600 599/599/599 601/601/601
f 597/597/597 602/602/602 599/599/599
f 603/603/603 602/602/602 597/597/597
f 604/604/604 601/601/601 599/599/599
f 604/604/604 599/599/599 602/602/602
f 603/603/603 604/604/604 602/602/602
f 604/604/604 605/605/605 601/601/601
f 606/606/606 604/604/604 603/603/603
f 604/604/604 607/607/607 605/605/605
f 606/606/606 607/607/607 604/604/604
f 608/608/608 605/605/605 607/607/607
f 608/608/608 607/607/607 606/606/606
f 609/609/609 611/611/611 610/610/610
f 610/610/610 611/611/611 612/612/612
f 609/609/609 613/613/613 611/611/611
f 613/613/613 612/612/612 611/611/611
f 610/610/610 612/612/612 614/614/614
f 613/613/613 615/615/615 612/612/612
f 616/616/616 614/614/614 612/612/612
f 612/612/612 615/615/615 617/617/617
f 618/618/618 617/617/617 615/615/615
f 618/618/618 619/619/619 617/617/617
f 616/616/616 612/612/612 620/620/620
f 612/612/612 617/617/617 620/620/620
f 619/619/619 620/620/620 617/617/617
f 619/619/619 616/616/616 620/620/620
f 621/621/621 623/623/623 622/622/622
f 621/621/621 624/624/624 623/623/623
f 622/622/622 623/623/623 625/625/625
f 624/624/624 625/625/625 623/623/623
f 622/622/622 625/625/625 626/626/626
f 624/624/624 627/627/627 625/625/625
f 626/626/626 625/625/625 627/627/627
f 626/626/626 627/627/627 628/628/628
f 627/627/627 624/624/624 629/629/629
f 630/630/630 628/628/628 627/627/627
f 627/627/627 629/629/629 631/631/631
f 630/630/630 627/627/627 631/631/631
f 632/632/632 631/631/631 629/629/629
f 632/632/632 630/630/630 631/631/631
f 633/633/633 635/635/635 634/634/634
f 633/633/633 634/634/634 636/636/636
f 633/633/633 637/637/637 635/635/635
f 633/633/633 636/636/636 638/638/638
f 638/638/638 637/637/637 633/633/633
f 636/636/636 639/639/639 638/638/638
f 638/638/638 639/639/639 637/637/637
f 636/636/636 640/640/640 639/639/639
f 639/639/639 641/641/641 637/637/637
f 642/642/642 639/639/639 640/640/640
f 639/639/639 643/643/643 641/641/641
f 642/642/642 643/643/643 639/639/639
f 644/644/644 641/641/641 643/643/643
f 644/644/644 643/643/643 642/642/642
f 645/645/645 647/647/647 646/646/646
f 648/648/648 646/646/646 647/647/647
f 648/648/648 647/647/647 649/649/649
f 645/645/645 650/650/650 647/647/647
f 651/651/651 650/650/650 645/645/645
f 652/652/652 647/647/647 650/650/650
f 652/652/652 649/649/649 647/647/647
f 651/651/651 652/652/652 650/650/650
f 649/649/649 652/652/652 653/653/653
f 651/651/651 653/653/653 652/652/652
f 649/649/649 653/653/653 654/654/654
f 651/651/651 655/655/655 653/653/653
f 656/656/656 654/654/654 653/653/653
f 656/656/656 653/653/653 655/655/655
f 657/657/657 659/659/659 658/658/658
f 660/660/660 658/658/658 659/659/659
f 657/657/657 661/661/661 659/659/659
f 660/660/660 659/659/659 662/662/662
f 663/663/663 660/660/660 662/662/662
f 664/664/664 662/662/662 659/659/659
f 664/664/664 659/659/659 661/661/661
f 663/663/663 662/662/662 664/664/664
f 661/661/661 665/665/665 664/664/664
f 663/663/663 664/664/664 665/665/665
f 661/661/661 666/666/666 665/665/665
f 663/663/663 665/665/665 667/667/667
f 668/668/668 665/665/665 666/666/666
f 668/668/668 667/667/667 665/665/665
f 669/669/669 671/671/671 670/670/670
f 669/669/669 672/672/672 671/671/671
f 670/670/670 671/671/671 673/673/673
f 670/670/670 673/673/673 674/674/674
f 675/675/675 673/673/673 671/671/671
f 674/674/674 673/673/673 675/675/675
f 675/675/675 671/671/671 672/672/672
f 674/674/674 675/675/675 676/676/676
f 677/677/677 676/676/676 675/675/675
f 672/672/672 678/678/678 675/675/675
f 677/677/677 675/675/675 678/678/678
f 672/672/672 679/679/679 678/678/678
f 680/680/680 677/677/677 678/678/678
f 680/680/680 678/678/678 679/679/679
