mtllib P_RockSpire_RockClump01.mtl
v 1.43319 -0.0910702 -1.51164
v 0.8026199 -0.1830019 -1.607868
v 1.150323 -0.2643913 -1.557158
v 0.7485201 -0.3137702 0.5494819
v 0.5481717 -0.4507518 0.8460082
v 0.5633981 -0.4120181 0.8582323
v 0.7475491 -0.3461858 0.5008477
v 0.9107376 -0.2414141 0.4570411
v 0.8517529 -0.1232478 0.6173095
v 0.7035965 -0.2168475 0.6715698
v 0.8898358 -0.250386 0.1743281
v 0.4149944 -0.4544748 -0.2757581
v 0.2645088 -0.5209908 -0.1665896
v 0.001679297 -0.3921736 -0.4064759
v 0.1235926 -0.3947933 -0.3891124
v 0.1238477 -0.4809776 -0.2349842
v -0.09139963 -0.4322273 -0.2457523
v -0.4087931 -0.8270351 0.04385819
v -0.379639 -0.8400598 0.3177056
v 0.3352943 -0.5616727 0.9235594
v 0.3043397 -0.5570357 0.9508055
v -0.3932755 -0.829612 0.3659265
v 0.3043397 -0.5570357 0.9508055
v 0.5633981 -0.4120181 0.8582323
v 0.5481717 -0.4507518 0.8460082
v 0.1539274 -0.345059 1.019052
v 0.6119808 -0.155453 0.8503804
v 0.4000983 0.07631226 0.9438906
v 0.7035965 -0.2168475 0.6715698
v 0.7485201 -0.3137702 0.5494819
v 0.4190754 0.1029287 0.9053293
v 0.6782081 -0.1798589 0.7036625
v 0.0923708 0.4523788 0.8302826
v 0.07745894 0.4405414 0.8501961
v 0.7099904 -0.1742307 0.6710297
v 0.8517529 -0.1232478 0.6173095
v 0.5412618 0.136311 0.4677248
v 0.3351091 0.370878 0.1606848
v -0.007628689 0.5213318 0.6762108
v 0.7150024 0.12582 0.4031584
v 0.8435225 -0.08846492 0.6036991
v 0.9107376 -0.2414141 0.4570411
v -0.3932755 -0.829612 0.3659265
v 0.1539274 -0.345059 1.019052
v 0.3043397 -0.5570357 0.9508055
v -0.4018457 -0.03925289 0.9284342
v 0.4000983 0.07631226 0.9438906
v -0.6793928 -0.2663789 0.6108384
v 0.07745894 0.4405414 0.8501961
v -0.8209993 -0.01178601 0.531381
v -0.1930275 0.4473296 0.832315
v -0.5415232 0.2563783 0.8590152
v -0.5280173 0.2891063 0.8431492
v 0.07745894 0.4405414 0.8501961
v -0.1930275 0.4473296 0.832315
v 0.0923708 0.4523788 0.8302826
v -0.007628689 0.5213318 0.6762108
v -0.6186739 0.179181 0.1673218
v -0.5280173 0.2891063 0.8431492
v 0.05564274 0.475571 -0.003081664
v 0.3351091 0.370878 0.1606848
v 0.003930206 0.4431472 -0.08021523
v -0.2340788 0.2449102 -0.3776976
v -0.4563085 0.1283899 -0.3662713
v -0.8209993 -0.01178601 0.531381
v -0.5415232 0.2563783 0.8590152
v -0.8440734 -0.05516148 -0.224408
v -0.830468 -0.06113888 -0.2475767
v 0.05564274 0.475571 -0.003081664
v 0.003930206 0.4431472 -0.08021523
v 0.3351091 0.370878 0.1606848
v 0.1945108 0.2168976 -0.05997605
v -0.0555085 0.05914023 -0.3388529
v -0.02622164 0.04149836 -0.3500469
v -0.2340788 0.2449102 -0.3776976
v -0.4563085 0.1283899 -0.3662713
v -0.2538131 -0.2118578 -0.297286
v 0.3968463 0.2321506 0.09974962
v 0.4996906 0.1736607 0.4024198
v 0.5412618 0.136311 0.4677248
v 0.5412618 0.136311 0.4677248
v 0.6669509 0.1349038 0.05930531
v 0.7150024 0.12582 0.4031584
v 0.3968463 0.2321506 0.09974962
v 0.410725 0.133334 -0.2079159
v 0.1945108 0.2168976 -0.05997605
v 0.05313274 0.01777336 -0.4310279
v -0.02622164 0.04149836 -0.3500469
v 0.0728756 -0.00950352 -0.4511581
v 0.410725 0.133334 -0.2079159
v 0.05313274 0.01777336 -0.4310279
v 0.1378869 -0.1554912 -0.423481
v -0.08498244 -0.2538826 -0.4444311
v 0.001679297 -0.3921736 -0.4064759
v 0.1235926 -0.3947933 -0.3891124
v 0.5092751 -0.1500757 -0.2434232
v 0.6669509 0.1349038 0.05930531
v 0.4171739 -0.4327259 -0.2878096
v 0.4149944 -0.4544748 -0.2757581
v 0.6536003 -0.3141343 -0.07395716
v 0.8898358 -0.250386 0.1743281
v 0.7599986 -0.07430276 0.05563645
v 0.7150024 0.12582 0.4031584
v 0.9107376 -0.2414141 0.4570411
v 0.8435225 -0.08846492 0.6036991
v -0.09139963 -0.4322273 -0.2457523
v 0.001679297 -0.3921736 -0.4064759
v -0.08498244 -0.2538826 -0.4444311
v -0.2002563 -0.2217042 -0.3270555
v -0.02622164 0.04149836 -0.3500469
v 0.05313274 0.01777336 -0.4310279
v 0.0728756 -0.00950352 -0.4511581
v -0.0555085 0.05914023 -0.3388529
v -0.2538131 -0.2118578 -0.297286
v -0.5195435 -0.6272599 -0.1024374
v -0.830468 -0.06113888 -0.2475767
v -0.4563085 0.1283899 -0.3662713
v -0.8440734 -0.05516148 -0.224408
v -0.4087931 -0.8270351 0.04385819
v 0.1238477 -0.4809776 -0.2349842
v -0.5401983 -0.6239462 -0.06055785
v -0.8209993 -0.01178601 0.531381
v -0.6793928 -0.2663789 0.6108384
v -0.3932755 -0.829612 0.3659265
v -0.379639 -0.8400598 0.3177056
v -1.94962 0.1480156 -0.1085786
v -1.577917 -0.2056024 -0.9570405
v -1.274442 0.08302326 -0.6595489
v -1.665205 0.2310197 -0.1621301
v -1.520867 0.2095272 -0.04661015
v -2.075762 -0.0124668 0.1566999
v -1.744549 -0.0865308 0.4186814
v -1.396862 -0.04876252 0.4710933
v -1.184258 0.04811014 0.3501491
v -1.53477 0.224828 -0.2078703
v -0.8929701 -0.06091788 -0.3338418
v -1.022401 -0.03205047 0.1807467
v -1.130198 0.004883553 0.3707585
v -1.577917 -0.2056024 -0.9570405
v -1.555827 -0.2581373 -0.9714175
v -1.274442 0.08302326 -0.6595489
v -1.097616 -0.3623405 -0.5689202
v -0.8929701 -0.06091788 -0.3338418
v -0.8759414 -0.3066205 -0.3467141
v -1.555827 -0.2581373 -0.9714175
v -1.577917 -0.2056024 -0.9570405
v -1.951973 -0.3658631 -0.5875651
v -1.94962 0.1480156 -0.1085786
v -2.136528 -0.3592561 -0.1015916
v -2.141432 -0.1571209 0.1694054
v -2.075762 -0.0124668 0.1566999
v -1.097616 -0.3623405 -0.5689202
v -1.555827 -0.2581373 -0.9714175
v -1.951973 -0.3658631 -0.5875651
v -1.284045 -0.4863965 -0.1195587
v -0.8759414 -0.3066205 -0.3467141
v -1.026148 -0.5156865 0.2268067
v -1.100057 -0.5186659 0.3654485
v -2.136528 -0.3592561 -0.1015916
v -1.970298 -0.3932476 0.2652503
v -1.987485 -0.3410439 0.346397
v -1.178767 -0.4534023 0.5092975
v -1.592756 -0.3478842 0.6023566
v -2.141432 -0.1571209 0.1694054
v -1.987485 -0.3410439 0.346397
v -2.136528 -0.3592561 -0.1015916
v -2.075762 -0.0124668 0.1566999
v -1.744549 -0.0865308 0.4186814
v -1.588364 -0.2704646 0.5977752
v -1.592756 -0.3478842 0.6023566
v -1.178767 -0.4534023 0.5092975
v -1.396862 -0.04876252 0.4710933
v -1.130198 0.004883553 0.3707585
v -1.184258 0.04811014 0.3501491
v -1.130198 0.004883553 0.3707585
v -1.100057 -0.5186659 0.3654485
v -1.178767 -0.4534023 0.5092975
v -1.022401 -0.03205047 0.1807467
v -1.026148 -0.5156865 0.2268067
v -0.8759414 -0.3066205 -0.3467141
v -0.8929701 -0.06091788 -0.3338418
v 1.323858 -0.6169587 -1.306313
v 0.9650844 -0.5680112 -1.404667
v 1.332972 -0.6133797 -1.032639
v 0.6390505 -0.5093046 -1.19948
v 0.510372 -0.4512197 -0.3992032
v 1.182218 -0.4732763 -0.2857912
v 1.362868 -0.5072287 -0.4403435
v 0.5456555 -0.4282548 -0.3364089
v 0.2106517 -0.4018206 -0.5746143
v 0.3014302 -0.4499035 -1.232926
v 1.462437 -0.1535022 -0.5131147
v 1.332972 -0.6133797 -1.032639
v 1.362868 -0.5072287 -0.4403435
v 1.420617 -0.3084731 -1.408562
v 1.506445 0.04299678 -0.8977584
v 1.323858 -0.6169587 -1.306313
v 1.481209 -0.05941478 -1.478773
v 1.387107 -0.3706494 -1.581781
v 0.9650844 -0.5680112 -1.404667
v 1.068889 -0.3441865 -1.674381
v 1.367437 -0.2939006 -1.465872
v 1.43319 -0.0910702 -1.51164
v 0.7525537 -0.0365065 -1.659248
v 0.8026199 -0.1830019 -1.607868
v 1.150323 -0.2643913 -1.557158
v 1.021403 -0.2848089 -1.630916
v 1.506445 0.04299678 -0.8977584
v 0.7285256 0.1050013 -0.6334054
v 0.6938979 0.1363988 -0.7076481
v 1.017039 -0.06583469 -0.5111636
v 0.5456555 -0.4282548 -0.3364089
v 1.409479 -0.1746337 -0.4346924
v 1.462437 -0.1535022 -0.5131147
v 1.362868 -0.5072287 -0.4403435
v 1.210768 -0.4436595 -0.279199
v 1.182218 -0.4732763 -0.2857912
v 0.7525537 -0.0365065 -1.659248
v 1.481209 -0.05941478 -1.478773
v 1.506445 0.04299678 -0.8977584
v 0.4100475 0.03070107 -1.410071
v 0.6938979 0.1363988 -0.7076481
v 0.348249 0.1295429 -0.8799796
v 0.7525537 -0.0365065 -1.659248
v 0.4100475 0.03070107 -1.410071
v 0.4035513 -0.1518217 -1.563896
v 0.8026199 -0.1830019 -1.607868
v 0.3655162 -0.2765208 -1.489199
v 0.6428055 -0.482432 -1.257788
v 1.068889 -0.3441865 -1.674381
v 0.3014302 -0.4499035 -1.232926
v 0.9650844 -0.5680112 -1.404667
v 0.6390505 -0.5093046 -1.19948
v 1.150323 -0.2643913 -1.557158
v 0.8026199 -0.1830019 -1.607868
v 1.021403 -0.2848089 -1.630916
v 1.068889 -0.3441865 -1.674381
v 1.387107 -0.3706494 -1.581781
v 1.367437 -0.2939006 -1.465872
v 0.6938979 0.1363988 -0.7076481
v 0.7285256 0.1050013 -0.6334054
v 0.348249 0.1295429 -0.8799796
v 0.2106517 -0.4018206 -0.5746143
v 0.5456555 -0.4282548 -0.3364089
v 0.3014302 -0.4499035 -1.232926
v 0.3655162 -0.2765208 -1.489199
v 0.4100475 0.03070107 -1.410071
v 0.4035513 -0.1518217 -1.563896
v 1.16059 -0.3435167 1.307815
v 1.385821 -0.0301816 0.833687
v 1.369985 -0.1409421 0.7735566
v 1.226345 -0.000533305 1.468192
v 1.191527 -0.0159202 1.492137
v 1.084257 -0.4004193 1.313607
v 0.5949687 -0.3023628 1.466081
v 1.115357 0.05389017 1.510717
v 1.175332 0.06034183 1.45744
v 0.5990219 0.3031634 1.347142
v 0.3705451 0.1789726 1.404697
v 0.3375668 0.0884948 1.398139
v 0.3630557 -0.06227559 0.9811411
v 0.4809766 0.2785551 1.143726
v 0.3273016 0.1665894 1.343272
v 0.5820965 0.2770503 0.8603797
v 0.4101251 -0.0948834 0.8873972
v 0.3459087 -0.1603359 1.021559
v 0.6968393 0.278217 0.7941637
v 0.9485407 -0.246821 0.6299678
v 0.8636424 -0.2769524 0.6862393
v 1.057698 0.09390612 0.6107585
v 1.068089 0.1409953 0.6339361
v 0.9920095 -0.2087577 0.616226
v 0.5358562 -0.308434 1.440153
v 0.5949687 -0.3023628 1.466081
v 0.5621347 -0.3871821 1.366453
v 1.084257 -0.4004193 1.313607
v 0.4797884 -0.3537615 1.206834
v 0.8929629 -0.324198 0.771399
v 1.177064 -0.3757218 1.080356
v 1.16059 -0.3435167 1.307815
v 1.309975 -0.2231823 0.75097
v 0.9485407 -0.246821 0.6299678
v 0.8636424 -0.2769524 0.6862393
v 0.3459087 -0.1603359 1.021559
v 0.4101251 -0.0948834 0.8873972
v 0.3705451 0.1789726 1.404697
v 0.3375668 0.0884948 1.398139
v 0.3273016 0.1665894 1.343272
v 0.3459087 -0.1603359 1.021559
v 0.3630557 -0.06227559 0.9811411
v 0.4797884 -0.3537615 1.206834
v 0.5358562 -0.308434 1.440153
v 0.5621347 -0.3871821 1.366453
v 0.5949687 -0.3023628 1.466081
v 1.226345 -0.000533305 1.468192
v 1.175332 0.06034183 1.45744
v 1.365168 0.05165292 0.9195224
v 0.9263436 0.1987583 1.05261
v 1.272197 0.08335377 0.7181076
v 1.068089 0.1409953 0.6339361
v 0.5919571 0.3345842 1.26584
v 1.115357 0.05389017 1.510717
v 0.5990219 0.3031634 1.347142
v 0.7220229 0.294286 0.8305227
v 0.6968393 0.278217 0.7941637
v 0.5820965 0.2770503 0.8603797
v 0.5347706 0.324172 1.230471
v 0.3705451 0.1789726 1.404697
v 0.4809766 0.2785551 1.143726
v 0.3273016 0.1665894 1.343272
v 0.9920095 -0.2087577 0.616226
v 0.9485407 -0.246821 0.6299678
v 1.309975 -0.2231823 0.75097
v 1.286862 0.0291468 0.7036159
v 1.057698 0.09390612 0.6107585
v 1.369985 -0.1409421 0.7735566
v 1.177064 -0.3757218 1.080356
v 1.16059 -0.3435167 1.307815
v 1.385821 -0.0301816 0.833687
v 1.272197 0.08335377 0.7181076
v 1.068089 0.1409953 0.6339361
v 1.365168 0.05165292 0.9195224
v 1.226345 -0.000533305 1.468192
vn 0.4483993 0.03700796 -0.8930669
vn -0.09052304 -0.3876931 -0.9173329
vn 0.3054941 0.2281711 -0.9244519
vn 0.7131888 -0.5182974 0.4719423
vn 0.6088265 -0.7049351 0.3638638
vn 0.6637206 -0.2555801 0.7029608
vn 0.5506318 -0.8244059 0.1309947
vn 0.9535421 -0.2628849 0.1471362
vn 0.7134183 0.06711788 0.6975167
vn 0.7539162 -0.1979458 0.6264406
vn 0.9334736 -0.2370797 -0.2691102
vn 0.4204621 -0.7508954 -0.5092815
vn 0.2506029 -0.9228084 -0.2926139
vn -0.195749 -0.611673 -0.7665106
vn 0.1929674 -0.4756454 -0.8582103
vn -0.02008785 -0.8231859 -0.5674165
vn -0.260837 -0.6117634 -0.7467996
vn -0.2845062 -0.9046017 -0.3174146
vn -0.07321722 -0.996809 0.03179638
vn 0.4316407 -0.8341382 0.3433656
vn 0.1166465 -0.6010961 0.7906181
vn -0.4454754 -0.8230122 0.352424
vn 0.1166465 -0.6010961 0.7906181
vn 0.6637206 -0.2555801 0.7029608
vn 0.6088265 -0.7049351 0.3638638
vn -0.0800726 -0.2083147 0.9747787
vn 0.7394774 0.178733 0.6490206
vn 0.3694377 0.3020776 0.8787861
vn 0.7539162 -0.1979458 0.6264406
vn 0.7131888 -0.5182974 0.4719423
vn 0.6712564 0.5733626 0.4697556
vn 0.8004162 0.4070774 0.4400249
vn 0.3787819 0.8262044 0.417026
vn 0.1101549 0.5855736 0.8030999
vn 0.4506187 0.311578 0.8365775
vn 0.7134183 0.06711788 0.6975167
vn 0.5491263 0.790195 0.2721251
vn 0.6377139 0.7229199 -0.2659094
vn 0.0182772 0.9960513 0.08687889
vn 0.5436072 0.8112937 0.2151599
vn 0.5968255 0.6153478 0.5149236
vn 0.9535421 -0.2628849 0.1471362
vn -0.4454754 -0.8230122 0.352424
vn -0.0800726 -0.2083147 0.9747787
vn 0.1166465 -0.6010961 0.7906181
vn -0.3686623 -0.1386318 0.9191678
vn 0.3694377 0.3020776 0.8787861
vn -0.7416557 -0.4467556 0.5003561
vn 0.1101549 0.5855736 0.8030999
vn -0.9556528 0.1226246 0.2677518
vn -0.2658406 0.7679404 0.5827489
vn -0.5653352 0.2862813 0.7735885
vn -0.5222092 0.7417304 0.4208724
vn 0.1101549 0.5855736 0.8030999
vn -0.2658406 0.7679404 0.5827489
vn 0.3787819 0.8262044 0.417026
vn 0.0182772 0.9960513 0.08687889
vn -0.5655267 0.818354 -0.1023532
vn -0.5222092 0.7417304 0.4208724
vn 0.1501895 0.926056 -0.3462131
vn 0.6377139 0.7229199 -0.2659094
vn 0.08968867 0.8433653 -0.5298028
vn -0.0438974 0.5570991 -0.829285
vn -0.3581263 0.4047105 -0.8414006
vn -0.9556528 0.1226246 0.2677518
vn -0.5653352 0.2862813 0.7735885
vn -0.9390962 0.2031955 -0.2771463
vn -0.6642123 0.02489264 -0.7471294
vn 0.1501895 0.926056 -0.3462131
vn 0.08968867 0.8433653 -0.5298028
vn 0.6377139 0.7229199 -0.2659094
vn 0.3700264 0.701346 -0.6092572
vn 0.1501619 0.2946579 -0.943731
vn -0.2566127 0.6073149 -0.7518767
vn -0.0438974 0.5570991 -0.829285
vn -0.3581263 0.4047105 -0.8414006
vn -0.2362103 -0.2486986 -0.9393369
vn 0.511903 0.8002493 -0.3123402
vn 0.8616069 0.3984101 -0.3144885
vn 0.5491263 0.790195 0.2721251
vn 0.5491263 0.790195 0.2721251
vn 0.6483847 0.700865 -0.2972972
vn 0.5436072 0.8112937 0.2151599
vn 0.511903 0.8002493 -0.3123402
vn 0.3881296 0.6697084 -0.6331242
vn 0.3700264 0.701346 -0.6092572
vn -0.2352329 0.6457886 -0.7263764
vn -0.2566127 0.6073149 -0.7518767
vn 0.07910607 0.3017752 -0.9500915
vn 0.3881296 0.6697084 -0.6331242
vn -0.2352329 0.6457886 -0.7263764
vn 0.3453735 -0.05009399 -0.9371274
vn -0.4329788 -0.1554548 -0.8878981
vn -0.195749 -0.611673 -0.7665106
vn 0.1929674 -0.4756454 -0.8582103
vn 0.6005234 0.1060939 -0.7925376
vn 0.6483847 0.700865 -0.2972972
vn 0.4879065 -0.2679225 -0.8307616
vn 0.4204621 -0.7508954 -0.5092815
vn 0.7399356 -0.1907033 -0.6450794
vn 0.9334736 -0.2370797 -0.2691102
vn 0.8340858 0.2973178 -0.4646537
vn 0.5436072 0.8112937 0.2151599
vn 0.9535421 -0.2628849 0.1471362
vn 0.5968255 0.6153478 0.5149236
vn -0.260837 -0.6117634 -0.7467996
vn -0.195749 -0.611673 -0.7665106
vn -0.4329788 -0.1554548 -0.8878981
vn -0.5927984 -0.1539037 -0.7905085
vn -0.2566127 0.6073149 -0.7518767
vn -0.2352329 0.6457886 -0.7263764
vn 0.07910607 0.3017752 -0.9500915
vn 0.1501619 0.2946579 -0.943731
vn -0.2362103 -0.2486986 -0.9393369
vn -0.4407989 -0.5743014 -0.6898364
vn -0.6642123 0.02489264 -0.7471294
vn -0.3581263 0.4047105 -0.8414006
vn -0.9390962 0.2031955 -0.2771463
vn -0.2845062 -0.9046017 -0.3174146
vn -0.02008785 -0.8231859 -0.5674165
vn -0.8287171 -0.5403661 -0.1457142
vn -0.9556528 0.1226246 0.2677518
vn -0.7416557 -0.4467556 0.5003561
vn -0.4454754 -0.8230122 0.352424
vn -0.07321722 -0.996809 0.03179638
vn -0.5901014 0.8032221 -0.08133043
vn -0.274538 0.4298907 -0.8601296
vn 0.3381903 0.7264956 -0.5981902
vn -0.2041316 0.9767873 -0.06493779
vn 0.08766099 0.9623882 0.2571469
vn -0.6881427 0.6299055 0.3601093
vn -0.3552475 0.6229587 0.6969374
vn 0.04977625 0.6190178 0.783798
vn 0.2597147 0.8595168 0.4402036
vn 0.1525341 0.9815618 -0.1151946
vn 0.8508618 0.4784251 -0.2171258
vn 0.8357552 0.476246 0.2733184
vn 0.6160331 0.4905352 0.6163428
vn -0.274538 0.4298907 -0.8601296
vn 0.04408959 -0.3769686 -0.9251761
vn 0.3381903 0.7264956 -0.5981902
vn 0.5225679 -0.6060771 -0.599661
vn 0.8508618 0.4784251 -0.2171258
vn 0.8755771 -0.3987629 -0.2726774
vn 0.04408959 -0.3769686 -0.9251761
vn -0.274538 0.4298907 -0.8601296
vn -0.7082632 -0.4713975 -0.5254976
vn -0.5901014 0.8032221 -0.08133043
vn -0.8462356 -0.5094938 -0.1558893
vn -0.9329315 0.1339395 0.3342142
vn -0.6881427 0.6299055 0.3601093
vn 0.5225679 -0.6060771 -0.599661
vn 0.04408959 -0.3769686 -0.9251761
vn -0.7082632 -0.4713975 -0.5254976
vn 0.02432103 -0.9904427 -0.1357639
vn 0.8755771 -0.3987629 -0.2726774
vn 0.6871473 -0.7018762 0.1876126
vn 0.5200953 -0.7465638 0.4149017
vn -0.8462356 -0.5094938 -0.1558893
vn -0.4129001 -0.8842549 0.21819
vn -0.6528621 -0.3446609 0.6745221
vn 0.405353 -0.4708642 0.7835661
vn -0.2001135 -0.4503041 0.8701614
vn -0.9329315 0.1339395 0.3342142
vn -0.6528621 -0.3446609 0.6745221
vn -0.8462356 -0.5094938 -0.1558893
vn -0.6881427 0.6299055 0.3601093
vn -0.3552475 0.6229587 0.6969374
vn -0.1459613 0.2728055 0.9509324
vn -0.2001135 -0.4503041 0.8701614
vn 0.405353 -0.4708642 0.7835661
vn 0.04977625 0.6190178 0.783798
vn 0.6160331 0.4905352 0.6163428
vn 0.2597147 0.8595168 0.4402036
vn 0.6160331 0.4905352 0.6163428
vn 0.5200953 -0.7465638 0.4149017
vn 0.405353 -0.4708642 0.7835661
vn 0.8357552 0.476246 0.2733184
vn 0.6871473 -0.7018762 0.1876126
vn 0.8755771 -0.3987629 -0.2726774
vn 0.8508618 0.4784251 -0.2171258
vn 0.4836161 -0.8442906 -0.2308436
vn -0.216973 -0.8794526 -0.4236577
vn 0.5319359 -0.8454414 0.04767612
vn -0.2020899 -0.9684674 -0.1457076
vn -0.2558341 -0.9155825 0.310254
vn 0.05035727 -0.691054 0.7210467
vn 0.6272943 -0.680794 0.3781818
vn -0.3291637 -0.2397273 0.9133357
vn -0.8338469 -0.3242051 0.4467554
vn -0.730702 -0.6197802 -0.2862642
vn 0.8685668 0.313647 0.383689
vn 0.5319359 -0.8454414 0.04767612
vn 0.6272943 -0.680794 0.3781818
vn 0.9540436 -0.2021082 -0.2212532
vn 0.7704696 0.6322954 0.08111177
vn 0.4836161 -0.8442906 -0.2308436
vn 0.7586362 0.4390308 -0.4813762
vn 0.6615542 -0.01404126 -0.7497659
vn -0.216973 -0.8794526 -0.4236577
vn 0.02356966 -0.09824308 -0.9948833
vn 0.5923788 0.2711876 -0.7586466
vn 0.4483993 0.03700796 -0.8930669
vn -0.01272513 0.4711396 -0.8819669
vn -0.09052304 -0.3876931 -0.9173329
vn 0.3054941 0.2281711 -0.9244519
vn 0.2613289 0.7024881 -0.6619802
vn 0.7704696 0.6322954 0.08111177
vn -0.08290187 0.7704329 0.6321079
vn -0.0330676 0.9805005 0.1937148
vn 0.0715154 0.6792665 0.730399
vn -0.3291637 -0.2397273 0.9133357
vn 0.5095117 0.4353743 0.7421907
vn 0.8685668 0.313647 0.383689
vn 0.6272943 -0.680794 0.3781818
vn 0.2946493 -0.04116521 0.9547184
vn 0.05035727 -0.691054 0.7210467
vn -0.01272513 0.4711396 -0.8819669
vn 0.7586362 0.4390308 -0.4813762
vn 0.7704696 0.6322954 0.08111177
vn -0.5788381 0.7427018 -0.3366609
vn -0.0330676 0.9805005 0.1937148
vn -0.6108163 0.7815735 0.1266742
vn -0.01272513 0.4711396 -0.8819669
vn -0.5788381 0.7427018 -0.3366609
vn -0.6295181 0.05111213 -0.7753029
vn -0.09052304 -0.3876931 -0.9173329
vn -0.686347 -0.3918559 -0.61268
vn -0.2551808 -0.8051458 -0.5353719
vn 0.02356966 -0.09824308 -0.9948833
vn -0.730702 -0.6197802 -0.2862642
vn -0.216973 -0.8794526 -0.4236577
vn -0.2020899 -0.9684674 -0.1457076
vn 0.3054941 0.2281711 -0.9244519
vn -0.09052304 -0.3876931 -0.9173329
vn 0.2613289 0.7024881 -0.6619802
vn 0.02356966 -0.09824308 -0.9948833
vn 0.6615542 -0.01404126 -0.7497659
vn 0.5923788 0.2711876 -0.7586466
vn -0.0330676 0.9805005 0.1937148
vn -0.08290187 0.7704329 0.6321079
vn -0.6108163 0.7815735 0.1266742
vn -0.8338469 -0.3242051 0.4467554
vn -0.3291637 -0.2397273 0.9133357
vn -0.730702 -0.6197802 -0.2862642
vn -0.686347 -0.3918559 -0.61268
vn -0.5788381 0.7427018 -0.3366609
vn -0.6295181 0.05111213 -0.7753029
vn 0.6990584 -0.5587551 0.4462177
vn 0.9869688 0.1019301 -0.1245107
vn 0.8924685 -0.2552775 -0.371932
vn 0.8156345 0.1359008 0.56238
vn 0.4176553 -0.163503 0.8937734
vn 0.2495477 -0.8725126 0.4200568
vn -0.1154735 -0.3754036 0.9196401
vn 0.1875767 0.4229168 0.8865418
vn 0.5105157 0.7707814 0.3811426
vn -0.02088056 0.750012 0.6610945
vn -0.4081189 0.501809 0.7626446
vn -0.7762867 -0.07711383 0.6256456
vn -0.908663 0.2026188 -0.3650714
vn -0.678963 0.7013158 -0.217176
vn -0.894434 0.4363321 0.09798922
vn -0.5278658 0.6674021 -0.5252925
vn -0.69396 -0.1488065 -0.7044688
vn -0.874173 -0.4137911 -0.2541623
vn -0.2611282 0.6341969 -0.7277406
vn -0.1186709 -0.5138503 -0.8496323
vn -0.3338056 -0.6592628 -0.6737555
vn 0.03531588 0.1907004 -0.9810128
vn 0.2284856 0.7413255 -0.6310553
vn 0.05305145 -0.2428304 -0.968617
vn -0.581398 -0.4557665 0.6739832
vn -0.1154735 -0.3754036 0.9196401
vn -0.3360544 -0.8941791 0.2958228
vn 0.2495477 -0.8725126 0.4200568
vn -0.592638 -0.8043948 -0.04158494
vn -0.05667169 -0.9407499 -0.3343322
vn 0.4700107 -0.8813686 -0.04774158
vn 0.6990584 -0.5587551 0.4462177
vn 0.590984 -0.605391 -0.5331413
vn -0.1186709 -0.5138503 -0.8496323
vn -0.3338056 -0.6592628 -0.6737555
vn -0.874173 -0.4137911 -0.2541623
vn -0.69396 -0.1488065 -0.7044688
vn -0.4081189 0.501809 0.7626446
vn -0.7762867 -0.07711383 0.6256456
vn -0.894434 0.4363321 0.09798922
vn -0.874173 -0.4137911 -0.2541623
vn -0.908663 0.2026188 -0.3650714
vn -0.592638 -0.8043948 -0.04158494
vn -0.581398 -0.4557665 0.6739832
vn -0.3360544 -0.8941791 0.2958228
vn -0.1154735 -0.3754036 0.9196401
vn 0.8156345 0.1359008 0.56238
vn 0.5105157 0.7707814 0.3811426
vn 0.8115961 0.5788591 0.07895557
vn 0.3780121 0.9247674 0.04372534
vn 0.556774 0.6993367 -0.448253
vn 0.2284856 0.7413255 -0.6310553
vn 0.008208864 0.9828245 0.1843601
vn 0.1875767 0.4229168 0.8865418
vn -0.02088056 0.750012 0.6610945
vn 0.1322251 0.9710264 -0.1990583
vn -0.2611282 0.6341969 -0.7277406
vn -0.5278658 0.6674021 -0.5252925
vn -0.3735353 0.9262419 0.05047133
vn -0.4081189 0.501809 0.7626446
vn -0.678963 0.7013158 -0.217176
vn -0.894434 0.4363321 0.09798922
vn 0.05305145 -0.2428304 -0.968617
vn -0.1186709 -0.5138503 -0.8496323
vn 0.590984 -0.605391 -0.5331413
vn 0.6163859 0.1563142 -0.7717735
vn 0.03531588 0.1907004 -0.9810128
vn 0.8924685 -0.2552775 -0.371932
vn 0.4700107 -0.8813686 -0.04774158
vn 0.6990584 -0.5587551 0.4462177
vn 0.9869688 0.1019301 -0.1245107
vn 0.556774 0.6993367 -0.448253
vn 0.2284856 0.7413255 -0.6310553
vn 0.8115961 0.5788591 0.07895557
vn 0.8156345 0.1359008 0.56238
vt 0.2076082 0.5518848
vt 0.2019383 0.5582952
vt 0.2076082 0.558443
vt 0.8710017 0.6129343
vt 0.8807918 0.6125444
vt 0.8805678 0.6117622
vt 0.8702493 0.6140317
vt 0.8661764 0.6110345
vt 0.8695937 0.6084467
vt 0.8735659 0.6109092
vt 0.8610396 0.6162945
vt 0.8610396 0.6340702
vt 0.86597 0.635429
vt 0.8647916 0.6432339
vt 0.8631822 0.6407696
vt 0.866674 0.6388089
vt 0.869656 0.6424786
vt 0.8826451 0.6463094
vt 0.8875995 0.6412229
vt 0.8863589 0.6159068
vt 0.8873636 0.6159624
vt 0.8887025 0.6405653
vt 0.9911202 0.07930215
vt 0.9843293 0.07834064
vt 0.9845531 0.07909079
vt 0.9936775 0.07282622
vt 0.9819492 0.07271025
vt 0.985877 0.06517619
vt 0.9773247 0.07483917
vt 0.9747605 0.07742411
vt 0.9846677 0.06467791
vt 0.9781521 0.07374761
vt 0.9864793 0.05292633
vt 0.9871752 0.05308631
vt 0.9769713 0.07388805
vt 0.9733552 0.0740333
vt 0.9739546 0.06447783
vt 0.9699377 0.0563447
vt 0.984683 0.05004153
vt 0.9699589 0.06639614
vt 0.9730251 0.07310108
vt 0.9699377 0.07721075
vt 0.9431086 0.3729551
vt 0.9495237 0.3484102
vt 0.9431086 0.3483312
vt 0.961915 0.357926
vt 0.9577451 0.34211
vt 0.9591026 0.3700104
vt 0.9695378 0.3469758
vt 0.9666297 0.3721064
vt 0.9720743 0.3521928
vt 0.9704171 0.3595209
vt 0.9711145 0.3593034
vt 0.930625 0.9840347
vt 0.9370875 0.983345
vt 0.9301321 0.9835423
vt 0.9317398 0.9795269
vt 0.949124 0.9655097
vt 0.9466722 0.9831952
vt 0.9298683 0.9619418
vt 0.9242597 0.9663304
vt 0.9313333 0.9598699
vt 0.9385949 0.9517799
vt 0.9450651 0.9517799
vt 0.9561991 0.9745953
vt 0.9473201 0.9835651
vt 0.9563089 0.9549564
vt 0.956009 0.9543625
vt 0.4272968 0.857531
vt 0.4275302 0.8600417
vt 0.4326928 0.8505763
vt 0.4348907 0.8580964
vt 0.4360385 0.8685742
vt 0.4367636 0.8683991
vt 0.4297653 0.8709487
vt 0.4302114 0.8754812
vt 0.4404008 0.8733295
vt 0.4366338 0.8516401
vt 0.4390829 0.8449314
vt 0.4404008 0.8433356
vt 0.9464427 0.2598051
vt 0.954973 0.2668127
vt 0.9507968 0.2588765
vt 0.9496837 0.2690736
vt 0.953772 0.2760095
vt 0.9478757 0.2753219
vt 0.9490514 0.2862949
vt 0.9464427 0.285513
vt 0.7251412 0.9387042
vt 0.7260121 0.9499257
vt 0.7260121 0.9388497
vt 0.7210589 0.9395788
vt 0.7206081 0.9346186
vt 0.7165377 0.9361105
vt 0.7154211 0.9386201
vt 0.7181883 0.9495437
vt 0.7242096 0.9593155
vt 0.712059 0.945542
vt 0.7115688 0.9455966
vt 0.713192 0.9542674
vt 0.7130485 0.9632984
vt 0.7182907 0.959801
vt 0.7241172 0.9662154
vt 0.7135373 0.9687229
vt 0.7180896 0.9709266
vt 0.1174494 0.9606766
vt 0.1173462 0.9557968
vt 0.1131913 0.9555669
vt 0.1113392 0.9595001
vt 0.1065889 0.9547479
vt 0.107902 0.9520462
vt 0.1087461 0.9515027
vt 0.1058891 0.955321
vt 0.1106021 0.9608671
vt 0.1181832 0.9713714
vt 0.1015827 0.9699488
vt 0.1004795 0.9606178
vt 0.1013114 0.9705846
vt 0.1240512 0.9737422
vt 0.1206345 0.9578229
vt 0.1179108 0.9725041
vt 0.1004795 0.9849478
vt 0.1079616 0.985841
vt 0.1242594 0.9799005
vt 0.1246392 0.9787944
vt 0.03138638 0.9616129
vt 0.03138638 0.9837685
vt 0.04050669 0.9808036
vt 0.03685835 0.9659076
vt 0.04128483 0.9648924
vt 0.03178785 0.9542832
vt 0.04196904 0.9519945
vt 0.05004634 0.9545934
vt 0.05320426 0.9596139
vt 0.03924562 0.9682927
vt 0.05261936 0.9775784
vt 0.05514465 0.9649611
vt 0.05470362 0.9596914
vt 0.5148264 0.1703465
vt 0.5134332 0.1709048
vt 0.5245718 0.1787596
vt 0.5134332 0.185386
vt 0.5229986 0.1909596
vt 0.516386 0.1922251
vt 0.5039401 0.9763387
vt 0.5049878 0.975278
vt 0.4957405 0.9662197
vt 0.5049878 0.950578
vt 0.4910701 0.9544601
vt 0.4940601 0.9465327
vt 0.498192 0.945752
vt 0.9676428 0.6666525
vt 0.9676428 0.6817169
vt 0.981043 0.6825306
vt 0.9788693 0.6625502
vt 0.9681523 0.6591885
vt 0.9810668 0.6522257
vt 0.9847961 0.6513469
vt 0.9929177 0.6781329
vt 0.9969645 0.6691415
vt 0.998731 0.6682855
vt 0.9887019 0.650642
vt 0.997072 0.656968
vt 0.06079287 0.9117912
vt 0.05627532 0.9062072
vt 0.05500836 0.9141653
vt 0.064854 0.9107535
vt 0.06377608 0.9005896
vt 0.05926494 0.8949344
vt 0.05715083 0.8948386
vt 0.05500836 0.8865439
vt 0.06555883 0.8924815
vt 0.06745094 0.8877903
vt 0.06849886 0.8892736
vt 0.8434696 0.08615963
vt 0.8575693 0.08836468
vt 0.8562428 0.08417165
vt 0.8438768 0.09157601
vt 0.8570677 0.09216338
vt 0.8500619 0.1054779
vt 0.8434696 0.1041876
vt 0.4497666 0.1728993
vt 0.4487446 0.1801101
vt 0.4547683 0.1720237
vt 0.4533146 0.185948
vt 0.4685474 0.1865073
vt 0.4699029 0.1734798
vt 0.4666137 0.1703465
vt 0.4699029 0.1857741
vt 0.4660889 0.1928116
vt 0.4535657 0.1926337
vt 0.6592709 0.4997565
vt 0.6718103 0.5121415
vt 0.6713996 0.5018036
vt 0.6597053 0.5153153
vt 0.6507444 0.504195
vt 0.6705052 0.516597
vt 0.6510835 0.5142802
vt 0.6608891 0.5187984
vt 0.6690573 0.5218567
vt 0.6601306 0.5236486
vt 0.6590269 0.5167282
vt 0.6520348 0.515522
vt 0.6507444 0.5251096
vt 0.655709 0.5246052
vt 0.6579873 0.5204148
vt 0.6585071 0.5231377
vt 0.8601074 0.08417164
vt 0.8747818 0.085791
vt 0.8748902 0.08441281
vt 0.8699718 0.09128692
vt 0.8749083 0.1051494
vt 0.8638198 0.09425288
vt 0.8624917 0.0929564
vt 0.8610444 0.1049706
vt 0.8655074 0.1043224
vt 0.8655604 0.1053004
vt 0.4993804 0.1864309
vt 0.4971043 0.1721171
vt 0.4855316 0.1703466
vt 0.4938062 0.1924034
vt 0.4802675 0.1854302
vt 0.4831029 0.1924034
vt 0.80659 0.6293358
vt 0.7984199 0.6293201
vt 0.8015775 0.6345394
vt 0.8081583 0.6342282
vt 0.8014166 0.6390807
vt 0.8050348 0.6461611
vt 0.8142268 0.6384189
vt 0.7994807 0.6461737
vt 0.8120398 0.6473344
vt 0.8046364 0.6473345
vt 0.7433355 0.3502593
vt 0.7425427 0.3572433
vt 0.7445467 0.3529119
vt 0.7460541 0.3520094
vt 0.7454582 0.3455838
vt 0.7425427 0.3457131
vt 0.9154006 0.1720168
vt 0.9139856 0.1733242
vt 0.9221761 0.1724241
vt 0.9215044 0.1916417
vt 0.9139856 0.1927065
vt 0.9308681 0.1892007
vt 0.933291 0.1819901
vt 0.9301258 0.1724256
vt 0.9334281 0.1774441
vt 0.5358638 0.3668959
vt 0.5289875 0.3718322
vt 0.5305938 0.3726951
vt 0.5307497 0.364641
vt 0.5312053 0.364089
vt 0.5371056 0.3661768
vt 0.5383716 0.3581822
vt 0.5305713 0.3625929
vt 0.5300609 0.3637458
vt 0.5289875 0.355927
vt 0.5321016 0.3532113
vt 0.5336076 0.3533247
vt 0.8056725 0.7489631
vt 0.8114151 0.7482849
vt 0.8091474 0.7450089
vt 0.8117199 0.7518305
vt 0.8053226 0.7504216
vt 0.8040908 0.7487239
vt 0.8121409 0.753901
vt 0.8048567 0.7602181
vt 0.8040908 0.7587212
vt 0.8105446 0.7608045
vt 0.8113169 0.7606246
vt 0.8056027 0.7607998
vt 0.7992764 0.7607706
vt 0.8000396 0.760093
vt 0.798458 0.7598436
vt 0.8011816 0.7519253
vt 0.7955681 0.7599885
vt 0.7919882 0.7511125
vt 0.7984 0.7490363
vt 0.8015528 0.7508202
vt 0.7943745 0.7450092
vt 0.7902387 0.7494129
vt 0.7905161 0.7509981
vt 0.7918143 0.760815
vt 0.7902387 0.759031
vt 0.1812761 0.5520988
vt 0.1821135 0.5533566
vt 0.1824703 0.5518847
vt 0.1881531 0.555171
vt 0.1879976 0.5535277
vt 0.1857666 0.5592819
vt 0.1821154 0.5599087
vt 0.1832599 0.5607625
vt 0.1812761 0.5600664
vt 0.8146791 0.7573606
vt 0.8155907 0.7573779
vt 0.8146791 0.7483197
vt 0.8211553 0.752028
vt 0.8169195 0.7455465
vt 0.820469 0.7450091
vt 0.8257 0.7565827
vt 0.8163071 0.758433
vt 0.8252408 0.7578212
vt 0.8252808 0.7493475
vt 0.8257852 0.7488825
vt 0.8273058 0.7503457
vt 0.8267028 0.756254
vt 0.828383 0.7596037
vt 0.8277992 0.7551219
vt 0.8292662 0.7588183
vt 0.4171012 0.1793569
vt 0.4164731 0.1793074
vt 0.4176566 0.1837353
vt 0.4214749 0.1822043
vt 0.4219391 0.1789547
vt 0.4190897 0.1842855
vt 0.4158551 0.1875914
vt 0.4168813 0.1904636
vt 0.4209968 0.1849183
vt 0.4223402 0.1821342
vt 0.4227495 0.1792201
vt 0.4224581 0.1856936
vt 0.4227495 0.1922036
usemtl MV_RockSpire_Rocks
f 1/1/1 3/3/3 2/2/2
f 4/4/4 6/6/6 5/5/5
f 4/4/4 5/5/5 7/7/7
f 8/8/8 4/4/4 7/7/7
f 4/4/4 8/8/8 9/9/9
f 4/4/4 9/9/9 10/10/10
f 7/7/7 11/11/11 8/8/8
f 7/7/7 12/12/12 11/11/11
f 7/7/7 13/13/13 12/12/12
f 7/7/7 5/5/5 13/13/13
f 13/13/13 14/14/14 12/12/12
f 15/15/15 12/12/12 14/14/14
f 13/13/13 16/16/16 14/14/14
f 16/16/16 17/17/17 14/14/14
f 16/16/16 13/13/13 18/18/18
f 19/19/19 18/18/18 13/13/13
f 19/19/19 13/13/13 5/5/5
f 20/20/20 19/19/19 5/5/5
f 20/20/20 5/5/5 21/21/21
f 19/19/19 20/20/20 21/21/21
f 19/19/19 21/21/21 22/22/22
f 23/23/23 25/25/25 24/24/24
f 23/23/23 24/24/24 26/26/26
f 24/24/24 27/27/27 26/26/26
f 27/27/27 28/28/28 26/26/26
f 29/29/29 27/27/27 24/24/24
f 24/24/24 30/30/30 29/29/29
f 28/28/28 27/27/27 31/31/31
f 27/27/27 29/29/29 32/32/32
f 31/31/31 27/27/27 32/32/32
f 28/28/28 31/31/31 33/33/33
f 28/28/28 33/33/33 34/34/34
f 35/35/35 32/32/32 29/29/29
f 36/36/36 35/35/35 29/29/29
f 31/31/31 32/32/32 37/37/37
f 33/33/33 31/31/31 37/37/37
f 32/32/32 35/35/35 37/37/37
f 33/33/33 37/37/37 38/38/38
f 39/39/39 33/33/33 38/38/38
f 35/35/35 40/40/40 37/37/37
f 35/35/35 41/41/41 40/40/40
f 41/41/41 35/35/35 36/36/36
f 42/42/42 41/41/41 36/36/36
f 43/43/43 45/45/45 44/44/44
f 44/44/44 46/46/46 43/43/43
f 44/44/44 47/47/47 46/46/46
f 46/46/46 48/48/48 43/43/43
f 47/47/47 49/49/49 46/46/46
f 46/46/46 50/50/50 48/48/48
f 49/49/49 51/51/51 46/46/46
f 46/46/46 52/52/52 50/50/50
f 51/51/51 52/52/52 46/46/46
f 53/53/53 52/52/52 51/51/51
f 54/54/54 56/56/56 55/55/55
f 56/56/56 57/57/57 55/55/55
f 57/57/57 58/58/58 55/55/55
f 58/58/58 59/59/59 55/55/55
f 57/57/57 60/60/60 58/58/58
f 57/57/57 61/61/61 60/60/60
f 62/62/62 58/58/58 60/60/60
f 58/58/58 62/62/62 63/63/63
f 64/64/64 58/58/58 63/63/63
f 65/65/65 59/59/59 58/58/58
f 65/65/65 66/66/66 59/59/59
f 67/67/67 65/65/65 58/58/58
f 67/67/67 58/58/58 64/64/64
f 68/68/68 67/67/67 64/64/64
f 69/69/69 71/71/71 70/70/70
f 71/71/71 72/72/72 70/70/70
f 72/72/72 73/73/73 70/70/70
f 72/72/72 74/74/74 73/73/73
f 73/73/73 75/75/75 70/70/70
f 73/73/73 76/76/76 75/75/75
f 73/73/73 77/77/77 76/76/76
f 71/71/71 78/78/78 72/72/72
f 79/79/79 78/78/78 71/71/71
f 71/71/71 80/80/80 79/79/79
f 79/79/79 80/80/80 78/78/78
f 81/81/81 83/83/83 82/82/82
f 81/81/81 82/82/82 84/84/84
f 85/85/85 84/84/84 82/82/82
f 85/85/85 86/86/86 84/84/84
f 86/86/86 85/85/85 87/87/87
f 86/86/86 87/87/87 88/88/88
f 89/89/89 91/91/91 90/90/90
f 90/90/90 92/92/92 89/89/89
f 92/92/92 93/93/93 89/89/89
f 93/93/93 92/92/92 94/94/94
f 92/92/92 95/95/95 94/94/94
f 92/92/92 90/90/90 96/96/96
f 96/96/96 95/95/95 92/92/92
f 96/96/96 90/90/90 97/97/97
f 95/95/95 96/96/96 98/98/98
f 95/95/95 98/98/98 99/99/99
f 99/99/99 98/98/98 100/100/100
f 98/98/98 96/96/96 100/100/100
f 99/99/99 100/100/100 101/101/101
f 102/102/102 96/96/96 97/97/97
f 100/100/100 96/96/96 102/102/102
f 100/100/100 102/102/102 101/101/101
f 103/103/103 102/102/102 97/97/97
f 102/102/102 104/104/104 101/101/101
f 103/103/103 105/105/105 102/102/102
f 102/102/102 105/105/105 104/104/104
f 106/106/106 108/108/108 107/107/107
f 106/106/106 109/109/109 108/108/108
f 110/110/110 108/108/108 109/109/109
f 110/110/110 111/111/111 108/108/108
f 112/112/112 108/108/108 111/111/111
f 109/109/109 113/113/113 110/110/110
f 109/109/109 114/114/114 113/113/113
f 109/109/109 106/106/106 114/114/114
f 115/115/115 114/114/114 106/106/106
f 114/114/114 115/115/115 116/116/116
f 117/117/117 114/114/114 116/116/116
f 115/115/115 118/118/118 116/116/116
f 115/115/115 106/106/106 119/119/119
f 106/106/106 120/120/120 119/119/119
f 115/115/115 121/121/121 118/118/118
f 119/119/119 121/121/121 115/115/115
f 122/122/122 118/118/118 121/121/121
f 123/123/123 122/122/122 121/121/121
f 124/124/124 123/123/123 121/121/121
f 121/121/121 119/119/119 124/124/124
f 124/124/124 119/119/119 125/125/125
f 126/126/126 128/128/128 127/127/127
f 126/126/126 129/129/129 128/128/128
f 126/126/126 130/130/130 129/129/129
f 130/130/130 126/126/126 131/131/131
f 130/130/130 131/131/131 132/132/132
f 133/133/133 130/130/130 132/132/132
f 134/134/134 130/130/130 133/133/133
f 135/135/135 128/128/128 129/129/129
f 129/129/129 130/130/130 135/135/135
f 130/130/130 134/134/134 135/135/135
f 135/135/135 136/136/136 128/128/128
f 135/135/135 134/134/134 136/136/136
f 136/136/136 134/134/134 137/137/137
f 134/134/134 138/138/138 137/137/137
f 139/139/139 141/141/141 140/140/140
f 140/140/140 141/141/141 142/142/142
f 141/141/141 143/143/143 142/142/142
f 143/143/143 144/144/144 142/142/142
f 145/145/145 147/147/147 146/146/146
f 147/147/147 148/148/148 146/146/146
f 149/149/149 148/148/148 147/147/147
f 149/149/149 150/150/150 148/148/148
f 150/150/150 151/151/151 148/148/148
f 152/152/152 154/154/154 153/153/153
f 154/154/154 152/152/152 155/155/155
f 155/155/155 152/152/152 156/156/156
f 155/155/155 156/156/156 157/157/157
f 157/157/157 158/158/158 155/155/155
f 158/158/158 154/154/154 155/155/155
f 158/158/158 159/159/159 154/154/154
f 159/159/159 158/158/158 160/160/160
f 160/160/160 161/161/161 159/159/159
f 162/162/162 160/160/160 158/158/158
f 160/160/160 163/163/163 161/161/161
f 162/162/162 163/163/163 160/160/160
f 164/164/164 166/166/166 165/165/165
f 165/165/165 167/167/167 164/164/164
f 165/165/165 168/168/168 167/167/167
f 169/169/169 168/168/168 165/165/165
f 169/169/169 165/165/165 170/170/170
f 169/169/169 170/170/170 171/171/171
f 172/172/172 168/168/168 169/169/169
f 169/169/169 171/171/171 172/172/172
f 171/171/171 173/173/173 172/172/172
f 174/174/174 172/172/172 173/173/173
f 175/175/175 177/177/177 176/176/176
f 178/178/178 175/175/175 176/176/176
f 176/176/176 179/179/179 178/178/178
f 179/179/179 180/180/180 178/178/178
f 178/178/178 180/180/180 181/181/181
f 182/182/182 184/184/184 183/183/183
f 185/185/185 183/183/183 184/184/184
f 184/184/184 186/186/186 185/185/185
f 186/186/186 184/184/184 187/187/187
f 184/184/184 188/188/188 187/187/187
f 187/187/187 189/189/189 186/186/186
f 190/190/190 186/186/186 189/189/189
f 186/186/186 190/190/190 185/185/185
f 190/190/190 191/191/191 185/185/185
f 192/192/192 194/194/194 193/193/193
f 192/192/192 193/193/193 195/195/195
f 195/195/195 196/196/196 192/192/192
f 195/195/195 193/193/193 197/197/197
f 195/195/195 198/198/198 196/196/196
f 195/195/195 197/197/197 199/199/199
f 200/200/200 199/199/199 197/197/197
f 200/200/200 201/201/201 199/199/199
f 199/199/199 202/202/202 195/195/195
f 198/198/198 195/195/195 202/202/202
f 198/198/198 202/202/202 203/203/203
f 204/204/204 198/198/198 203/203/203
f 203/203/203 205/205/205 204/204/204
f 206/206/206 203/203/203 202/202/202
f 206/206/206 202/202/202 207/207/207
f 208/208/208 210/210/210 209/209/209
f 211/211/211 208/208/208 209/209/209
f 211/211/211 209/209/209 212/212/212
f 208/208/208 211/211/211 213/213/213
f 208/208/208 213/213/213 214/214/214
f 215/215/215 214/214/214 213/213/213
f 211/211/211 212/212/212 216/216/216
f 213/213/213 211/211/211 216/216/216
f 213/213/213 216/216/216 215/215/215
f 217/217/217 216/216/216 212/212/212
f 215/215/215 216/216/216 217/217/217
f 218/218/218 220/220/220 219/219/219
f 220/220/220 218/218/218 221/221/221
f 220/220/220 221/221/221 222/222/222
f 221/221/221 223/223/223 222/222/222
f 224/224/224 226/226/226 225/225/225
f 226/226/226 224/224/224 227/227/227
f 226/226/226 227/227/227 228/228/228
f 229/229/229 228/228/228 227/227/227
f 229/229/229 227/227/227 230/230/230
f 229/229/229 231/231/231 228/228/228
f 229/229/229 230/230/230 232/232/232
f 231/231/231 229/229/229 233/233/233
f 229/229/229 232/232/232 233/233/233
f 234/234/234 236/236/236 235/235/235
f 236/236/236 237/237/237 235/235/235
f 236/236/236 238/238/238 237/237/237
f 236/236/236 239/239/239 238/238/238
f 240/240/240 242/242/242 241/241/241
f 241/241/241 242/242/242 243/243/243
f 244/244/244 241/241/241 243/243/243
f 245/245/245 243/243/243 242/242/242
f 246/246/246 245/245/245 242/242/242
f 242/242/242 247/247/247 246/246/246
f 247/247/247 248/248/248 246/246/246
f 249/249/249 251/251/251 250/250/250
f 250/250/250 252/252/252 249/249/249
f 252/252/252 253/253/253 249/249/249
f 253/253/253 254/254/254 249/249/249
f 253/253/253 255/255/255 254/254/254
f 253/253/253 252/252/252 256/256/256
f 256/256/256 255/255/255 253/253/253
f 257/257/257 256/256/256 252/252/252
f 258/258/258 255/255/255 256/256/256
f 258/258/258 259/259/259 255/255/255
f 260/260/260 255/255/255 259/259/259
f 261/261/261 263/263/263 262/262/262
f 262/262/262 264/264/264 261/261/261
f 264/264/264 265/265/265 261/261/261
f 265/265/265 266/266/266 261/261/261
f 264/264/264 267/267/267 265/265/265
f 268/268/268 265/265/265 267/267/267
f 265/265/265 268/268/268 269/269/269
f 267/267/267 270/270/270 268/268/268
f 271/271/271 270/270/270 267/267/267
f 272/272/272 268/268/268 270/270/270
f 273/273/273 275/275/275 274/274/274
f 276/276/276 274/274/274 275/275/275
f 276/276/276 275/275/275 277/277/277
f 277/277/277 278/278/278 276/276/276
f 279/279/279 276/276/276 278/278/278
f 276/276/276 279/279/279 280/280/280
f 281/281/281 279/279/279 278/278/278
f 282/282/282 281/281/281 278/278/278
f 283/283/283 282/282/282 278/278/278
f 283/283/283 278/278/278 277/277/277
f 277/277/277 284/284/284 283/283/283
f 285/285/285 283/283/283 284/284/284
f 286/286/286 288/288/288 287/287/287
f 289/289/289 287/287/287 288/288/288
f 290/290/290 289/289/289 288/288/288
f 287/287/287 289/289/289 291/291/291
f 292/292/292 287/287/287 291/291/291
f 291/291/291 293/293/293 292/292/292
f 287/287/287 292/292/292 294/294/294
f 295/295/295 297/297/297 296/296/296
f 296/296/296 297/297/297 298/298/298
f 297/297/297 299/299/299 298/298/298
f 298/298/298 299/299/299 300/300/300
f 296/296/296 298/298/298 301/301/301
f 302/302/302 296/296/296 301/301/301
f 302/302/302 301/301/301 303/303/303
f 304/304/304 298/298/298 300/300/300
f 298/298/298 304/304/304 301/301/301
f 300/300/300 305/305/305 304/304/304
f 304/304/304 305/305/305 306/306/306
f 303/303/303 301/301/301 307/307/307
f 304/304/304 307/307/307 301/301/301
f 304/304/304 306/306/306 307/307/307
f 307/307/307 308/308/308 303/303/303
f 306/306/306 309/309/309 307/307/307
f 310/310/310 308/308/308 307/307/307
f 307/307/307 309/309/309 310/310/310
f 311/311/311 313/313/313 312/312/312
f 311/311/311 314/314/314 313/313/313
f 311/311/311 315/315/315 314/314/314
f 314/314/314 316/316/316 313/313/313
f 317/317/317 313/313/313 316/316/316
f 317/317/317 316/316/316 318/318/318
f 314/314/314 319/319/319 316/316/316
f 315/315/315 320/320/320 314/314/314
f 314/314/314 320/320/320 319/319/319
f 315/315/315 321/321/321 320/320/320
f 320/320/320 322/322/322 319/319/319
f 323/323/323 319/319/319 322/322/322
