mtllib P_RockCubic_Metric_1x1x2.mtl
v -0.4880203 1.822957 0.9400505
v -0.8993134 1.63378 0.9096205
v -0.9329323 1.856091 0.735571
v -0.4880203 1.822957 0.9400505
v -0.9329323 1.856091 0.735571
v -0.04965822 1.972595 0.6162329
v -0.9329323 1.856091 0.735571
v -0.9567055 1.94397 0.3986918
v -0.04965822 1.972595 0.6162329
v -0.4880203 1.822957 0.9400505
v -0.8592057 0.5830308 0.9344794
v -0.8993134 1.63378 0.9096205
v -0.08175506 1.820245 0.9583872
v -0.248156 -0.3405228 0.945143
v -0.4880203 1.822957 0.9400505
v -0.8592057 0.5830308 0.9344794
v -0.8993134 1.63378 0.9096205
v -0.8592057 0.5830308 0.9344794
v -0.8454117 0.7498438 0.4442191
v -0.8592057 0.5830308 0.9344794
v -0.975409 -0.3948837 0.8820927
v -0.9371209 -0.2021451 -0.2399803
v -0.9371209 -0.2021451 -0.2399803
v -0.8454117 0.7498438 0.4442191
v -0.849978 1.016228 -0.0916091
v -0.9614854 0.4947631 -1.017074
v -0.9371209 -0.2021451 -0.2399803
v -0.9382082 -0.8478981 -0.9814764
v -0.9614854 0.4947631 -1.017074
v -1.012217 1.804779 -0.9933184
v -0.849978 1.016228 -0.0916091
v -0.9614854 0.4947631 -1.017074
v 0.02374785 -0.9447553 -1.035146
v -0.9614854 0.4947631 -1.017074
v -0.9382082 -0.8478981 -0.9814764
v -0.7107187 -1.980932 -0.9567324
v -0.1433473 -1.982207 -0.9797441
v 0.02374785 -0.9447553 -1.035146
v 0.8628058 -1.9171 -0.9958689
v -0.6415239 1.975026 -0.9851844
v -0.9127451 1.976706 -0.8219472
v -1.012217 1.804779 -0.9933184
v -1.012217 1.804779 -0.9933184
v -0.9127451 1.976706 -0.8219472
v -0.9692369 1.984182 -0.3916613
v -0.9692369 1.984182 -0.3916613
v -0.849978 1.016228 -0.0916091
v -1.012217 1.804779 -0.9933184
v -0.9567055 1.94397 0.3986918
v -0.9692369 1.984182 -0.3916613
v -0.04965822 1.972595 0.6162329
v 1.008542 1.890384 -0.783164
v 1.045064 1.968006 0.01821575
v 0.9718909 1.979417 -0.4868217
v 0.3262305 1.973264 -0.9570177
v -0.6415239 1.975026 -0.9851844
v 0.8705611 1.861344 -0.9680017
v 0.8705611 1.861344 -0.9680017
v 0.9964918 1.450189 -0.9603626
v 1.008542 1.890384 -0.783164
v 0.9876875 -0.1338594 -0.9904191
v 0.9964918 1.450189 -0.9603626
v 0.8705611 1.861344 -0.9680017
v 0.9785551 -1.307861 -0.9912167
v 0.8628058 -1.9171 -0.9958689
v 0.9851508 -1.920158 -0.8245183
v -0.7107187 -1.980932 -0.9567324
v -0.9455591 -1.967291 -0.7134244
v -0.7890877 -1.987982 0.6367729
v -0.9267601 -1.94502 0.5699314
v -0.7890877 -1.987982 0.6367729
v -0.9455591 -1.967291 -0.7134244
v -0.7890877 -1.987982 0.6367729
v -0.9502625 -1.873833 0.9973474
v -0.4002784 -1.980582 0.9932452
v -0.9267601 -1.94502 0.5699314
v -0.9502625 -1.873833 0.9973474
v -0.7890877 -1.987982 0.6367729
v -0.9267601 -1.94502 0.5699314
v -0.9455591 -1.967291 -0.7134244
v -0.9826837 -1.615465 0.1148026
v -1.004786 -1.334587 1.00277
v -0.9502625 -1.873833 0.9973474
v -0.9267601 -1.94502 0.5699314
v -0.9826837 -1.615465 0.1148026
v -0.9502625 -1.873833 0.9973474
v -0.9826837 -1.615465 0.1148026
v -0.9234453 -1.877035 -0.9350736
v -0.9382082 -0.8478981 -0.9814764
v -0.9382082 -0.8478981 -0.9814764
v -1.004786 -1.334587 1.00277
v -0.975409 -0.3948837 0.8820927
v -0.9371209 -0.2021451 -0.2399803
v -0.9455591 -1.967291 -0.7134244
v -0.9234453 -1.877035 -0.9350736
v -0.9826837 -1.615465 0.1148026
v -0.7107187 -1.980932 -0.9567324
v -0.9234453 -1.877035 -0.9350736
v -0.9455591 -1.967291 -0.7134244
v -0.9234453 -1.877035 -0.9350736
v -0.7107187 -1.980932 -0.9567324
v -0.9382082 -0.8478981 -0.9814764
v -0.9626984 -0.4991198 1.008419
v -1.004786 -1.334587 1.00277
v -0.975409 -0.3948837 0.8820927
v -0.975409 -0.3948837 0.8820927
v -0.8913063 -0.3857007 0.9694251
v -0.9626984 -0.4991198 1.008419
v -0.05637968 -0.3937397 1.015867
v -0.9626984 -0.4991198 1.008419
v -0.8913063 -0.3857007 0.9694251
v -0.248156 -0.3405228 0.945143
v -0.05637968 -0.3937397 1.015867
v -0.8913063 -0.3857007 0.9694251
v -0.8913063 -0.3857007 0.9694251
v -0.8592057 0.5830308 0.9344794
v -0.248156 -0.3405228 0.945143
v -0.8592057 0.5830308 0.9344794
v -0.8913063 -0.3857007 0.9694251
v -0.975409 -0.3948837 0.8820927
v -0.05637968 -0.3937397 1.015867
v -0.248156 -0.3405228 0.945143
v -0.08175506 1.820245 0.9583872
v -0.04965822 1.972595 0.6162329
v 0.05135881 1.955675 0.9767216
v -0.08175506 1.820245 0.9583872
v -0.08175506 1.820245 0.9583872
v -0.4880203 1.822957 0.9400505
v -0.04965822 1.972595 0.6162329
v -0.08175506 1.820245 0.9583872
v 0.05135881 1.955675 0.9767216
v -0.05637968 -0.3937397 1.015867
v 0.8407455 1.926491 0.9453737
v 0.05135881 1.955675 0.9767216
v 1.013239 1.974324 0.7005555
v 0.05135881 1.955675 0.9767216
v -0.04965822 1.972595 0.6162329
v 1.013239 1.974324 0.7005555
v 1.013239 1.974324 0.7005555
v 1.045064 1.968006 0.01821575
v 0.9718909 1.979417 -0.4868217
v -0.9692369 1.984182 -0.3916613
v -0.6415239 1.975026 -0.9851844
v 0.3262305 1.973264 -0.9570177
v -0.9127451 1.976706 -0.8219472
v 0.8407455 1.926491 0.9453737
v 1.005254 1.687606 1.002207
v 0.05135881 1.955675 0.9767216
v 0.8407455 1.926491 0.9453737
v 1.013239 1.974324 0.7005555
v 1.005254 1.687606 1.002207
v 1.005254 1.687606 1.002207
v 1.045064 1.968006 0.01821575
v 1.022302 0.5860482 -0.4818253
v 1.005254 1.687606 1.002207
v 1.035074 0.6037459 0.9460523
v 1.002493 -1.980544 1.011703
v 1.005254 1.687606 1.002207
v 1.013239 1.974324 0.7005555
v 1.045064 1.968006 0.01821575
v 1.035074 0.6037459 0.9460523
v 1.105638 -1.978339 0.258046
v 1.002493 -1.980544 1.011703
v 1.002493 -1.980544 1.011703
v 1.105638 -1.978339 0.258046
v 1.079481 -1.959182 -0.3147587
v -0.8993134 1.63378 0.9096205
v -0.8952355 1.545382 0.4694714
v -0.9329323 1.856091 0.735571
v -0.9567055 1.94397 0.3986918
v -0.9692369 1.984182 -0.3916613
v -0.849978 1.016228 -0.0916091
v -0.8993134 1.63378 0.9096205
v -0.8454117 0.7498438 0.4442191
v -0.8952355 1.545382 0.4694714
v -0.849978 1.016228 -0.0916091
v 0.02374785 -0.9447553 -1.035146
v -1.012217 1.804779 -0.9933184
v -0.9614854 0.4947631 -1.017074
v -0.6415239 1.975026 -0.9851844
v 0.9876875 -0.1338594 -0.9904191
v 0.8705611 1.861344 -0.9680017
v 0.9785551 -1.307861 -0.9912167
v 0.8628058 -1.9171 -0.9958689
v 1.008542 1.890384 -0.783164
v 0.9718909 1.979417 -0.4868217
v 0.8705611 1.861344 -0.9680017
v 0.3262305 1.973264 -0.9570177
v 1.008542 1.890384 -0.783164
v 1.022302 0.5860482 -0.4818253
v 1.045064 1.968006 0.01821575
v 0.9964918 1.450189 -0.9603626
v 0.9876875 -0.1338594 -0.9904191
v 1.079481 -1.959182 -0.3147587
v 1.022302 0.5860482 -0.4818253
v 1.105638 -1.978339 0.258046
v 1.035074 0.6037459 0.9460523
v 1.005254 1.687606 1.002207
v 0.9876875 -0.1338594 -0.9904191
v 0.9785551 -1.307861 -0.9912167
v 1.079481 -1.959182 -0.3147587
v 0.9851508 -1.920158 -0.8245183
v 0.9851508 -1.920158 -0.8245183
v 0.8628058 -1.9171 -0.9958689
v -0.1433473 -1.982207 -0.9797441
v 1.079481 -1.959182 -0.3147587
v -0.7107187 -1.980932 -0.9567324
v -0.7890877 -1.987982 0.6367729
v -0.1433473 -1.982207 -0.9797441
v 1.079481 -1.959182 -0.3147587
v -0.4002784 -1.980582 0.9932452
v 1.002493 -1.980544 1.011703
v -0.9626984 -0.4991198 1.008419
v -0.9502625 -1.873833 0.9973474
v -1.004786 -1.334587 1.00277
v -0.4002784 -1.980582 0.9932452
v -0.05637968 -0.3937397 1.015867
v 1.002493 -1.980544 1.011703
v 1.005254 1.687606 1.002207
v 0.05135881 1.955675 0.9767216
vn -0.3126321 0.5557927 0.7702957
vn -0.3126321 0.5557927 0.7702957
vn -0.3126321 0.5557927 0.7702957
vn -0.08005787 0.9417006 0.3267885
vn -0.08005787 0.9417006 0.3267885
vn -0.08005787 0.9417006 0.3267885
vn -0.09209472 0.9619006 0.2574215
vn -0.09209472 0.9619006 0.2574215
vn -0.09209472 0.9619006 0.2574215
vn -0.08309763 0.02039953 0.9963326
vn -0.08309763 0.02039953 0.9963326
vn -0.08309763 0.02039953 0.9963326
vn -0.04510641 -0.002649584 0.9989786
vn -0.04510641 -0.002649584 0.9989786
vn -0.01668819 0.0005032134 0.9998606
vn -0.01668819 0.0005032134 0.9998606
vn -0.9983782 -0.03908792 -0.04139024
vn -0.9983782 -0.03908792 -0.04139024
vn -0.9983782 -0.03908792 -0.04139024
vn -0.9956363 0.09324484 0.003713787
vn -0.9928386 0.1186993 -0.01348914
vn -0.9928386 0.1186993 -0.01348914
vn -0.9969417 0.06625924 0.04143621
vn -0.9969417 0.06625924 0.04143621
vn -0.9969417 0.06625924 0.04143621
vn -0.9944771 0.06070246 0.08561895
vn -0.9997261 -0.01690279 0.01618663
vn -0.9997261 -0.01690279 0.01618663
vn -0.9997261 -0.01690279 0.01618663
vn -0.9889941 -0.04087832 0.1421957
vn -0.9889941 -0.04087832 0.1421957
vn -0.9889941 -0.04087832 0.1421957
vn -0.05844196 -0.02747024 -0.9979128
vn -0.05844196 -0.02747024 -0.9979128
vn -0.05844196 -0.02747024 -0.9979128
vn -0.04057419 -0.02995723 -0.9987273
vn -0.01268527 -0.05128458 -0.9986035
vn -0.01268527 -0.05128458 -0.9986035
vn -0.01268527 -0.05128458 -0.9986035
vn -0.3345183 0.7552993 -0.5635782
vn -0.3345183 0.7552993 -0.5635782
vn -0.3345183 0.7552993 -0.5635782
vn -0.8053308 0.5813992 -0.1158332
vn -0.8053308 0.5813992 -0.1158332
vn -0.8053308 0.5813992 -0.1158332
vn -0.9909427 -0.09167396 0.09812521
vn -0.9909427 -0.09167396 0.09812521
vn -0.9909427 -0.09167396 0.09812521
vn -0.04382708 0.9977131 0.05145772
vn -0.04382708 0.9977131 0.05145772
vn -0.04382708 0.9977131 0.05145772
vn 0.7653633 0.6363205 -0.09651552
vn 0.7653633 0.6363205 -0.09651552
vn 0.7653633 0.6363205 -0.09651552
vn 0.02870581 0.2349637 -0.9715802
vn 0.02870581 0.2349637 -0.9715802
vn 0.02870581 0.2349637 -0.9715802
vn 0.7641021 0.2227851 -0.6054046
vn 0.7641021 0.2227851 -0.6054046
vn 0.7641021 0.2227851 -0.6054046
vn 0.1195432 0.0181709 -0.9926627
vn 0.1195432 0.0181709 -0.9926627
vn 0.1195432 0.0181709 -0.9926627
vn 0.8035926 -0.1482728 -0.5764149
vn 0.8035926 -0.1482728 -0.5764149
vn 0.8035926 -0.1482728 -0.5764149
vn -0.06589046 -0.9977975 -0.007654628
vn -0.06589046 -0.9977975 -0.007654628
vn -0.06589046 -0.9977975 -0.007654628
vn -0.3071015 -0.9514449 0.02100941
vn -0.3071015 -0.9514449 0.02100941
vn -0.3071015 -0.9514449 0.02100941
vn -0.184247 -0.9577483 0.2208422
vn -0.184247 -0.9577483 0.2208422
vn -0.184247 -0.9577483 0.2208422
vn -0.3541642 -0.9254373 0.1346607
vn -0.3541642 -0.9254373 0.1346607
vn -0.3541642 -0.9254373 0.1346607
vn -0.9893713 -0.1444146 0.01699868
vn -0.9893713 -0.1444146 0.01699868
vn -0.9893713 -0.1444146 0.01699868
vn -0.9948952 -0.1006655 0.0070785
vn -0.9948952 -0.1006655 0.0070785
vn -0.9804149 -0.195788 -0.02130105
vn -0.9804149 -0.195788 -0.02130105
vn -0.9804149 -0.195788 -0.02130105
vn -0.9994384 0.01541593 -0.02975326
vn -0.9984982 -0.01667632 -0.05218443
vn -0.9984982 -0.01667632 -0.05218443
vn -0.9990196 0.03409971 -0.028232
vn -0.9994384 0.01541593 -0.02975326
vn -0.9990196 0.03409971 -0.028232
vn -0.9990196 0.03409971 -0.028232
vn -0.9951985 0.0657233 -0.07252774
vn -0.9951985 0.0657233 -0.07252774
vn -0.9951985 0.0657233 -0.07252774
vn -0.4372614 -0.8168478 -0.3762475
vn -0.4372614 -0.8168478 -0.3762475
vn -0.4372614 -0.8168478 -0.3762475
vn -0.1236183 -0.04646749 -0.9912413
vn -0.1236183 -0.04646749 -0.9912413
vn -0.1236183 -0.04646749 -0.9912413
vn -0.9889678 0.04887484 0.1398356
vn -0.9889678 0.04887484 0.1398356
vn -0.9889678 0.04887484 0.1398356
vn -0.6191571 0.5739766 0.535906
vn -0.6191571 0.5739766 0.535906
vn -0.6191571 0.5739766 0.535906
vn -0.04860598 0.3519659 0.93475
vn -0.04860598 0.3519659 0.93475
vn -0.04860598 0.3519659 0.93475
vn -0.02882753 0.7596084 0.6497416
vn -0.02882753 0.7596084 0.6497416
vn -0.02882753 0.7596084 0.6497416
vn 0.03525979 0.03486126 0.9987699
vn 0.03525979 0.03486126 0.9987699
vn 0.03525979 0.03486126 0.9987699
vn -0.7220016 0.0488217 0.6901668
vn -0.7220016 0.0488217 0.6901668
vn -0.7220016 0.0488217 0.6901668
vn -0.3409231 0.02049376 0.9398678
vn -0.3409231 0.02049376 0.9398678
vn -0.3409231 0.02049376 0.9398678
vn -0.7094378 0.6661583 0.2300675
vn -0.7094378 0.6661583 0.2300675
vn -0.7094378 0.6661583 0.2300675
vn -0.01221382 0.9138896 0.405779
vn -0.01221382 0.9138896 0.405779
vn -0.01221382 0.9138896 0.405779
vn -0.1601171 0.02378478 0.9868115
vn -0.1601171 0.02378478 0.9868115
vn -0.1601171 0.02378478 0.9868115
vn 0.04482231 0.9740403 0.2218927
vn 0.04482231 0.9740403 0.2218927
vn 0.04482231 0.9740403 0.2218927
vn -0.005465553 0.9988124 0.04841309
vn 0.002889227 0.9999566 0.008860257
vn -0.005465553 0.9988124 0.04841309
vn -0.0008891912 0.9999564 -0.009299817
vn 0.0153163 0.9996753 0.02036691
vn 0.002889227 0.9999566 0.008860257
vn -0.004628665 0.9998276 -0.01798076
vn -0.004628665 0.9998276 -0.01798076
vn 0.002292966 0.9998657 -0.01623164
vn -0.004628665 0.9998276 -0.01798076
vn 0.04797206 0.2623325 0.9637844
vn 0.04797206 0.2623325 0.9637844
vn 0.04797206 0.2623325 0.9637844
vn 0.6224623 0.5589877 0.5477896
vn 0.6224623 0.5589877 0.5477896
vn 0.6224623 0.5589877 0.5477896
vn 0.999078 -0.02817617 0.03239148
vn 0.999078 -0.02817617 0.03239148
vn 0.999078 -0.02817617 0.03239148
vn 0.8873649 0.0005254518 0.4610677
vn 0.8873649 0.0005254518 0.4610677
vn 0.8873649 0.0005254518 0.4610677
vn 0.9987029 0.02099292 0.04638723
vn 0.9987029 0.02099292 0.04638723
vn 0.9987029 0.02099292 0.04638723
vn 0.9907272 -0.009046702 0.1355643
vn 0.9907272 -0.009046702 0.1355643
vn 0.9907272 -0.009046702 0.1355643
vn -0.1648615 -0.9859884 -0.02544691
vn -0.1648615 -0.9859884 -0.02544691
vn -0.1648615 -0.9859884 -0.02544691
vn -0.9905912 -0.1356567 0.01806734
vn -0.9886535 -0.1468848 0.03145149
vn -0.9886535 -0.1468848 0.03145149
vn -0.9886535 -0.1468848 0.03145149
vn -0.9931175 -0.1138943 0.02730718
vn -0.9931175 -0.1138943 0.02730718
vn -0.9980325 -0.06261138 0.003327924
vn -0.9980325 -0.06261138 0.003327924
vn -0.9980325 -0.06261138 0.003327924
vn -0.997842 -0.0617887 -0.02221416
vn 0.008638248 0.0184643 -0.9997922
vn 0.008638248 0.0184643 -0.9997922
vn 0.008638248 0.0184643 -0.9997922
vn 0.01274614 0.02001071 -0.9997185
vn 0.01226064 0.01195373 -0.9998534
vn 0.01226064 0.01195373 -0.9998534
vn 0.04608183 0.0003198809 -0.9989377
vn 0.04556962 -0.001029265 -0.9989606
vn 0.1566484 0.9510588 -0.2663614
vn 0.1566484 0.9510588 -0.2663614
vn 0.1566484 0.9510588 -0.2663614
vn 0.1885889 0.9438339 -0.271315
vn 0.998963 1.988064E-05 -0.04552842
vn 0.998963 1.988064E-05 -0.04552842
vn 0.998963 1.988064E-05 -0.04552842
vn 0.9982079 -0.003273902 -0.05975165
vn 0.998083 -0.00437607 -0.06173483
vn 0.9957179 0.01639706 -0.09097792
vn 0.9957179 0.01639706 -0.09097792
vn 0.9995127 0.02979559 -0.009309469
vn 0.9995653 0.02798152 -0.009287437
vn 0.9995653 0.02798152 -0.009287437
vn 0.9879332 -0.007579898 -0.1546949
vn 0.9879332 -0.007579898 -0.1546949
vn 0.9879332 -0.007579898 -0.1546949
vn 0.9819818 -0.03972169 -0.1847541
vn 0.06343797 -0.995991 -0.06306805
vn 0.06343797 -0.995991 -0.06306805
vn 0.06343797 -0.995991 -0.06306805
vn 0.06680953 -0.993838 -0.08844553
vn -0.00242985 -0.9999868 -0.004543419
vn -0.00242985 -0.9999868 -0.004543419
vn -0.00242985 -0.9999868 -0.004543419
vn 0.01706176 -0.9998492 0.003243664
vn 0.01670279 -0.9998573 0.002538191
vn 0.0002386255 -0.9998705 -0.01608817
vn 0.02174415 -0.007854833 0.9997327
vn 0.02174415 -0.007854833 0.9997327
vn 0.02174415 -0.007854833 0.9997327
vn -0.006729777 -0.01279619 0.9998955
vn -0.006729777 -0.01279619 0.9998955
vn 0.007803107 0.002582774 0.9999663
vn -0.02174613 0.0176525 0.9996076
vn -0.02174613 0.0176525 0.9996076
vt 0.956034 0.2359238
vt 0.9636418 0.2394183
vt 0.9643324 0.2353121
vt 0.8473744 0.1396276
vt 0.8510462 0.147894
vt 0.8534806 0.1316048
vt 0.8510462 0.147894
vt 0.8572731 0.1484126
vt 0.8534806 0.1316048
vt 0.956034 0.2359238
vt 0.9628912 0.2588276
vt 0.9636418 0.2394183
vt 0.9485239 0.2359738
vt 0.9516022 0.2758875
vt 0.956034 0.2359238
vt 0.9628912 0.2588276
vt 0.929255 0.1644103
vt 0.9293197 0.1838192
vt 0.9382958 0.1805022
vt 0.9293197 0.1838192
vt 0.9307083 0.2018672
vt 0.9513461 0.1977656
vt 0.9513461 0.1977656
vt 0.9382958 0.1805022
vt 0.9480572 0.1753273
vt 0.9653454 0.1845281
vt 0.9513461 0.1977656
vt 0.9653454 0.2093345
vt 0.9653454 0.1845281
vt 0.9642537 0.1603565
vt 0.9480572 0.1753273
vt 0.9653454 0.1845281
vt 0.9295284 0.0557829
vt 0.9119782 0.02876069
vt 0.9118113 0.0535661
vt 0.9155082 0.07459132
vt 0.9259834 0.07486758
vt 0.9295284 0.0557829
vt 0.9445915 0.07411392
vt 0.8829141 0.1429289
vt 0.879833 0.1478985
vt 0.882953 0.1497838
vt 0.9642537 0.1603565
vt 0.9610499 0.1572505
vt 0.9530786 0.1573262
vt 0.9530786 0.1573262
vt 0.9480572 0.1753273
vt 0.9642537 0.1603565
vt 0.8572731 0.1484126
vt 0.8718727 0.1488362
vt 0.8534806 0.1316048
vt 0.9154783 0.07965037
vt 0.9302561 0.0782181
vt 0.9209694 0.07800502
vt 0.9364216 0.002033623
vt 0.9185495 0.001568721
vt 0.9464227 0.004343086
vt 0.912138 0.08018305
vt 0.9122127 0.08778118
vt 0.9154783 0.07965037
vt 0.9476938 0.04123943
vt 0.9485652 0.01199203
vt 0.9464227 0.004343086
vt 0.9116525 0.1387272
vt 0.9116276 0.149978
vt 0.914727 0.1500378
vt 0.7694975 0.947652
vt 0.7649902 0.9433265
vt 0.7400583 0.9462911
vt 0.7412847 0.9437419
vt 0.7400583 0.9462911
vt 0.7649902 0.9433265
vt 0.7400583 0.9462911
vt 0.7333869 0.9433265
vt 0.7334945 0.953492
vt 0.7412847 0.9437419
vt 0.7333869 0.9433265
vt 0.7400583 0.9462911
vt 0.9372391 0.2303347
vt 0.9609334 0.2301338
vt 0.9454582 0.224039
vt 0.9289209 0.2192808
vt 0.9293043 0.2292281
vt 0.9372391 0.2303347
vt 0.9454582 0.224039
vt 0.9293043 0.2292281
vt 0.9454582 0.224039
vt 0.9649912 0.228358
vt 0.9653454 0.2093345
vt 0.9653454 0.2093345
vt 0.9289209 0.2192808
vt 0.9307083 0.2018672
vt 0.9513461 0.1977656
vt 0.9609334 0.2301338
vt 0.9649912 0.228358
vt 0.9454582 0.224039
vt 0.7694975 0.947652
vt 0.7690838 0.9437173
vt 0.7649902 0.9433265
vt 0.9116277 0.07257821
vt 0.9155082 0.07459132
vt 0.9118113 0.0535661
vt 0.928432 0.2038507
vt 0.9289209 0.2192808
vt 0.9307083 0.2018672
vt 0.9307083 0.2018672
vt 0.9291278 0.2017281
vt 0.928432 0.2038507
vt 0.9480323 0.2768703
vt 0.9647728 0.2788169
vt 0.9634699 0.2767219
vt 0.8088496 0.8479026
vt 0.8077357 0.8442945
vt 0.8077357 0.8597409
vt 0.9634699 0.2767219
vt 0.9628912 0.2588276
vt 0.9516022 0.2758875
vt 0.9293197 0.1838192
vt 0.9291278 0.2017281
vt 0.9307083 0.2018672
vt 0.9480323 0.2768703
vt 0.9516022 0.2758875
vt 0.9485239 0.2359738
vt 0.2874388 0.8784428
vt 0.2870024 0.8850486
vt 0.2895361 0.8850486
vt 0.8471348 0.1321193
vt 0.8473744 0.1396276
vt 0.8534806 0.1316048
vt 0.9485239 0.2359738
vt 0.9460582 0.2334722
vt 0.9480323 0.2768703
vt 0.8476137 0.1150798
vt 0.846845 0.1296513
vt 0.8521835 0.1119521
vt 0.846845 0.1296513
vt 0.8534806 0.1316048
vt 0.8521835 0.1119521
vt 0.8521835 0.1119521
vt 0.8647933 0.1115316
vt 0.8741047 0.1130065
vt 0.8718727 0.1488362
vt 0.8829141 0.1429289
vt 0.8826305 0.1250474
vt 0.879833 0.1478985
vt 0.9314927 0.2340114
vt 0.9284319 0.2384239
vt 0.9460582 0.2334722
vt 0.9474832 0.07898031
vt 0.9428719 0.07810107
vt 0.9484459 0.08339732
vt 0.9484459 0.08339732
vt 0.9302561 0.0782181
vt 0.9210351 0.1037446
vt 0.9484459 0.08339732
vt 0.9473933 0.1034191
vt 0.9486227 0.1511551
vt 0.9484459 0.08339732
vt 0.9428719 0.07810107
vt 0.9302561 0.0782181
vt 0.9473933 0.1034191
vt 0.9346525 0.1511165
vt 0.9486227 0.1511551
vt 0.7332295 0.9794047
vt 0.7471565 0.981269
vt 0.7577355 0.9807537
vt 0.929255 0.1644103
vt 0.9374248 0.1658312
vt 0.9323465 0.1602264
vt 0.938513 0.1584456
vt 0.9530786 0.1573262
vt 0.9480572 0.1753273
vt 0.929255 0.1644103
vt 0.9382958 0.1805022
vt 0.9374248 0.1658312
vt 0.9480572 0.1753273
vt 0.9295284 0.0557829
vt 0.9116277 0.004547041
vt 0.9119782 0.02876069
vt 0.9185495 0.001568721
vt 0.9476938 0.04123943
vt 0.9464227 0.004343086
vt 0.9470011 0.0629151
vt 0.9445915 0.07411392
vt 0.8795764 0.1124053
vt 0.8741047 0.1130065
vt 0.882953 0.1150002
vt 0.8826305 0.1250474
vt 0.9154783 0.07965037
vt 0.9210351 0.1037446
vt 0.9302561 0.0782181
vt 0.9122127 0.08778118
vt 0.9116624 0.1170414
vt 0.9240897 0.1507615
vt 0.9210351 0.1037446
vt 0.9346525 0.1511165
vt 0.9473933 0.1034191
vt 0.9484459 0.08339732
vt 0.9116624 0.1170414
vt 0.9116525 0.1387272
vt 0.9240897 0.1507615
vt 0.914727 0.1500378
vt 0.7671458 0.9789811
vt 0.7703043 0.9767118
vt 0.7699533 0.9581313
vt 0.7577355 0.9807537
vt 0.7694975 0.947652
vt 0.7400583 0.9462911
vt 0.7699533 0.9581313
vt 0.7577355 0.9807537
vt 0.7334945 0.953492
vt 0.7332295 0.9794047
vt 0.9647728 0.2788169
vt 0.9645475 0.3042106
vt 0.9655523 0.2942496
vt 0.9543923 0.3061824
vt 0.9480323 0.2768703
vt 0.9284791 0.3061818
vt 0.9284319 0.2384239
vt 0.9460582 0.2334722
usemtl MV_RockCubic_Metric
f 1/1/1 3/3/3 2/2/2
f 4/4/4 6/6/6 5/5/5
f 7/7/7 9/9/9 8/8/8
f 10/10/10 12/12/12 11/11/11
f 10/10/10 14/14/14 13/13/13
f 15/15/15 16/16/16 14/14/14
f 17/17/17 19/19/19 18/18/18
f 20/20/20 22/22/22 21/21/21
f 20/20/20 24/24/24 23/23/23
f 24/24/24 25/25/25 23/23/23
f 25/25/25 26/26/26 23/23/23
f 27/27/27 29/29/29 28/28/28
f 30/30/30 32/32/32 31/31/31
f 33/33/33 35/35/35 34/34/34
f 36/36/36 35/35/35 37/37/37
f 35/35/35 38/38/38 37/37/37
f 39/39/39 37/37/37 38/38/38
f 40/40/40 42/42/42 41/41/41
f 43/43/43 45/45/45 44/44/44
f 46/46/46 48/48/48 47/47/47
f 49/49/49 51/51/51 50/50/50
f 52/52/52 54/54/54 53/53/53
f 55/55/55 57/57/57 56/56/56
f 58/58/58 60/60/60 59/59/59
f 61/61/61 63/63/63 62/62/62
f 64/64/64 66/66/66 65/65/65
f 67/67/67 69/69/69 68/68/68
f 70/70/70 72/72/72 71/71/71
f 73/73/73 75/75/75 74/74/74
f 76/76/76 78/78/78 77/77/77
f 79/79/79 81/81/81 80/80/80
f 82/82/82 81/81/81 83/83/83
f 84/84/84 86/86/86 85/85/85
f 87/87/87 89/89/89 88/88/88
f 90/90/90 87/87/87 91/91/91
f 92/92/92 90/90/90 91/91/91
f 93/93/93 90/90/90 92/92/92
f 94/94/94 96/96/96 95/95/95
f 97/97/97 99/99/99 98/98/98
f 100/100/100 102/102/102 101/101/101
f 103/103/103 105/105/105 104/104/104
f 106/106/106 108/108/108 107/107/107
f 109/109/109 111/111/111 110/110/110
f 112/112/112 114/114/114 113/113/113
f 115/115/115 117/117/117 116/116/116
f 118/118/118 120/120/120 119/119/119
f 121/121/121 123/123/123 122/122/122
f 124/124/124 126/126/126 125/125/125
f 127/127/127 129/129/129 128/128/128
f 130/130/130 132/132/132 131/131/131
f 133/133/133 135/135/135 134/134/134
f 136/136/136 138/138/138 137/137/137
f 139/139/139 140/140/140 137/137/137
f 137/137/137 140/140/140 141/141/141
f 137/137/137 141/141/141 142/142/142
f 141/141/141 143/143/143 142/142/142
f 141/141/141 144/144/144 143/143/143
f 145/145/145 142/142/142 143/143/143
f 146/146/146 148/148/148 147/147/147
f 149/149/149 151/151/151 150/150/150
f 152/152/152 154/154/154 153/153/153
f 155/155/155 157/157/157 156/156/156
f 158/158/158 160/160/160 159/159/159
f 161/161/161 163/163/163 162/162/162
f 164/164/164 166/166/166 165/165/165
f 167/167/167 169/169/169 168/168/168
f 168/168/168 169/169/169 170/170/170
f 168/168/168 170/170/170 171/171/171
f 168/168/168 171/171/171 172/172/172
f 173/173/173 175/175/175 174/174/174
f 174/174/174 175/175/175 176/176/176
f 177/177/177 179/179/179 178/178/178
f 178/178/178 180/180/180 177/177/177
f 180/180/180 181/181/181 177/177/177
f 180/180/180 182/182/182 181/181/181
f 181/181/181 183/183/183 177/177/177
f 183/183/183 184/184/184 177/177/177
f 185/185/185 187/187/187 186/186/186
f 187/187/187 188/188/188 186/186/186
f 189/189/189 191/191/191 190/190/190
f 189/189/189 190/190/190 192/192/192
f 193/193/193 192/192/192 190/190/190
f 194/194/194 193/193/193 195/195/195
f 196/196/196 194/194/194 195/195/195
f 197/197/197 196/196/196 190/190/190
f 197/197/197 190/190/190 198/198/198
f 199/199/199 201/201/201 200/200/200
f 201/201/201 202/202/202 200/200/200
f 203/203/203 205/205/205 204/204/204
f 206/206/206 205/205/205 203/203/203
f 207/207/207 209/209/209 208/208/208
f 208/208/208 209/209/209 210/210/210
f 211/211/211 208/208/208 210/210/210
f 211/211/211 210/210/210 212/212/212
f 213/213/213 215/215/215 214/214/214
f 213/213/213 214/214/214 216/216/216
f 213/213/213 216/216/216 217/217/217
f 217/217/217 216/216/216 218/218/218
f 217/217/217 218/218/218 219/219/219
f 219/219/219 220/220/220 217/217/217
