mtllib P_RockCubic09.mtl
v 3.313145 0.4107402 -0.1287486
v 3.19145 0.4351012 -0.7179973
v 3.332914 -0.1983191 -0.6355839
v 3.296774 0.4057839 0.9787897
v 3.39448 -1.168213 0.7928289
v 3.283478 -1.161467 -0.6484914
v 3.280439 -1.398594 -0.3288235
v 3.321283 -1.429737 0.4978958
v 3.332914 -0.1983191 -0.6355839
v 3.046179 -1.138877 -0.7859293
v 3.283478 -1.161467 -0.6484914
v 3.19145 0.4351012 -0.7179973
v 3.024307 0.4763948 -0.7756971
v 1.84012 -0.3298665 -0.731756
v 2.432068 0.5701645 -0.7282446
v 2.275898 -1.366587 -0.7779387
v 1.463865 0.7512628 -0.7404506
v 1.276384 -1.412246 -0.7980888
v 1.165932 -0.5670267 -0.8439729
v 1.009802 -1.412468 -1.008495
v 3.024307 0.4763948 -0.7756971
v 3.19145 0.4351012 -0.7179973
v 3.313145 0.4107402 -0.1287486
v 2.432068 0.5701645 -0.7282446
v 3.296774 0.4057839 0.9787897
v 1.740292 0.6987301 1.222784
v 1.463865 0.7512628 -0.7404506
v 3.046179 -1.138877 -0.7859293
v 2.275898 -1.366587 -0.7779387
v 3.283478 -1.161467 -0.6484914
v 3.280439 -1.398594 -0.3288235
v 2.051752 -1.58605 0.5605639
v 3.321283 -1.429737 0.4978958
v 3.39448 -1.168213 0.7928289
v 2.327927 -1.268859 0.9698243
v 0.8823091 -1.37743 1.136438
v 0.7628136 -1.645378 0.7056713
v 1.276384 -1.412246 -0.7980888
v 0.3004247 -1.513471 1.191288
v 1.009802 -1.412468 -1.008495
v -0.7419299 -1.553417 1.052948
v 1.001758 -1.393412 -1.235486
v -0.4821548 -1.585039 0.2157546
v -1.001219 -1.463056 -1.268446
v 0.3483886 -1.363023 -1.524013
v 1.04142 -1.14176 -1.538798
v -2.171375 -1.588065 0.585908
v -2.667376 -1.379936 1.186538
v -2.836597 -1.478955 0.4691327
v -2.41473 -1.592669 -0.7078293
v -2.697651 -1.545649 -0.700507
v -2.217453 -1.552475 -0.973567
v -2.218166 -1.503594 -1.235521
v 3.296774 0.4057839 0.9787897
v 3.39448 -1.168213 0.7928289
v 2.327927 -1.268859 0.9698243
v 1.740292 0.6987301 1.222784
v 0.8823091 -1.37743 1.136438
v -0.4747313 -0.6709058 1.222975
v 0.3004247 -1.513471 1.191288
v -0.7419299 -1.553417 1.052948
v -2.667376 -1.379936 1.186538
v 0.09142122 1.70176 1.144059
v 1.708592 0.8020204 1.221192
v 1.763962 1.875882 1.097764
v -2.585926 1.263718 1.225566
v -2.912239 0.6446397 1.196313
v -1.294435 1.550904 1.154843
v -2.903154 1.249031 1.105098
v -2.736668 1.517211 0.9523191
v 1.740292 0.6987301 1.222784
v 1.595783 0.7770952 -0.01779588
v 1.463865 0.7512628 -0.7404506
v 1.708592 0.8020204 1.221192
v 1.671679 2.000227 0.05098799
v 1.763962 1.875882 1.097764
v 1.349903 0.9771689 -0.7303087
v 1.321911 0.8193492 -0.6364874
v 1.513817 1.904684 -0.5977687
v -2.667376 -1.379936 1.186538
v -2.836597 -1.478955 0.4691327
v -2.912239 0.6446397 1.196313
v -2.87841 -0.2989212 -0.702445
v -2.697651 -1.545649 -0.700507
v -2.866922 0.6570162 -0.7005803
v -2.903154 1.249031 1.105098
v -2.76206 1.392837 -0.3210515
v -2.627237 1.393106 -0.7074594
v -2.736668 1.517211 0.9523191
v 1.009802 -1.412468 -1.008495
v 1.165932 -0.5670267 -0.8439729
v 1.001758 -1.393412 -1.235486
v 1.04142 -1.14176 -1.538798
v 1.110926 -0.7213576 -1.539072
v 1.230905 0.1176815 -1.530311
v 1.304138 0.5086001 -1.414547
v 1.322111 0.7719205 -0.9152533
v 1.233267 0.7772415 -1.360347
v 1.463865 0.7512628 -0.7404506
v 0.3483886 -1.363023 -1.524013
v 1.04142 -1.14176 -1.538798
v 1.110926 -0.7213576 -1.539072
v 0.766178 0.7637522 -1.514244
v 1.230905 0.1176815 -1.530311
v 1.304138 0.5086001 -1.414547
v 1.233267 0.7772415 -1.360347
v -1.12187 -0.7273558 -1.453456
v -1.001219 -1.463056 -1.268446
v -2.218166 -1.503594 -1.235521
v 0.3479365 0.7472161 -1.4785
v -2.229483 0.7698869 -1.451624
v -0.8583661 0.9468062 -1.466743
v -0.06409848 1.094269 -1.350032
v -1.91375 1.083218 -1.387406
v 1.322111 0.7719205 -0.9152533
v 0.766178 0.7637522 -1.514244
v 1.233267 0.7772415 -1.360347
v 0.3691577 0.7563964 -0.8427221
v 0.3479365 0.7472161 -1.4785
v -0.06409848 1.094269 -1.350032
v 1.041441 0.8101791 -0.7387954
v -0.0633107 1.138201 -0.8233376
v 1.321911 0.8193492 -0.6364874
v 1.463865 0.7512628 -0.7404506
v 1.595783 0.7770952 -0.01779588
v -2.03001 1.099405 -0.7449372
v -1.91375 1.083218 -1.387406
v -2.229483 0.7698869 -1.451624
v -2.225925 1.011715 -0.7351904
v 1.041441 0.8101791 -0.7387954
v 1.321911 0.8193492 -0.6364874
v 1.349903 0.9771689 -0.7303087
v 0.1404628 1.881302 -0.7530696
v 1.327453 1.829998 -0.7454856
v 1.513817 1.904684 -0.5977687
v 0.3736209 1.979434 -0.6740828
v -0.0633107 1.138201 -0.8233376
v 0.3691577 0.7563964 -0.8427221
v -2.03001 1.099405 -0.7449372
v -2.627237 1.393106 -0.7074594
v -2.225925 1.011715 -0.7351904
v -2.34808 0.4135597 -0.7444637
v -2.866922 0.6570162 -0.7005803
v -2.87841 -0.2989212 -0.702445
v -2.41473 -1.592669 -0.7078293
v -2.697651 -1.545649 -0.700507
v 1.513817 1.904684 -0.5977687
v 0.3736209 1.979434 -0.6740828
v 1.327453 1.829998 -0.7454856
v 1.342916 2.037794 -0.4321271
v 1.671679 2.000227 0.05098799
v 1.763962 1.875882 1.097764
v 0.09142122 1.70176 1.144059
v -1.834803 1.577538 0.2953983
v -1.294435 1.550904 1.154843
v -2.736668 1.517211 0.9523191
v -2.627237 1.393106 -0.7074594
v 0.1404628 1.881302 -0.7530696
v -2.76206 1.392837 -0.3210515
v -2.241152 0.4987183 -0.8529498
v -2.41473 -1.592669 -0.7078293
v -2.217453 -1.552475 -0.973567
v -2.34808 0.4135597 -0.7444637
v -2.218166 -1.503594 -1.235521
v -2.225925 1.011715 -0.7351904
v -2.229483 0.7698869 -1.451624
vn 0.764631 0.6440089 -0.02433158
vn 0.6247535 0.5661703 -0.537712
vn 0.8627165 0.02953793 -0.5048246
vn 0.6441746 0.5087894 0.5711151
vn 0.7241982 -0.35168 0.5931764
vn 0.731575 -0.3789504 -0.5667404
vn 0.6470917 -0.723012 -0.2419214
vn 0.6093692 -0.7639799 0.2121413
vn 0.8627165 0.02953793 -0.5048246
vn 0.255447 -0.3837312 -0.8874104
vn 0.731575 -0.3789504 -0.5667404
vn 0.6247535 0.5661703 -0.537712
vn 0.2055335 0.6672643 -0.7159011
vn 0.04850637 0.02167489 -0.9985877
vn 0.09745672 0.7192827 -0.6878477
vn 0.04596413 -0.6381688 -0.7685232
vn 0.466383 0.691876 -0.5511756
vn 0.2542374 -0.7211943 -0.6443928
vn 0.7474431 -0.09232683 -0.6578789
vn 0.6122454 -0.7424393 -0.2719181
vn 0.2055335 0.6672643 -0.7159011
vn 0.6247535 0.5661703 -0.537712
vn 0.764631 0.6440089 -0.02433158
vn 0.09745672 0.7192827 -0.6878477
vn 0.6441746 0.5087894 0.5711151
vn 0.3957354 0.370517 0.840304
vn 0.466383 0.691876 -0.5511756
vn 0.255447 -0.3837312 -0.8874104
vn 0.04596413 -0.6381688 -0.7685232
vn 0.731575 -0.3789504 -0.5667404
vn 0.6470917 -0.723012 -0.2419214
vn 0.09474136 -0.9725127 0.2127043
vn 0.6093692 -0.7639799 0.2121413
vn 0.7241982 -0.35168 0.5931764
vn 0.1622818 -0.5094418 0.8450643
vn 0.1332859 -0.4932146 0.8596361
vn 0.0729192 -0.9826511 0.1705279
vn 0.2542374 -0.7211943 -0.6443928
vn 0.05625896 -0.590117 0.8053551
vn 0.6122454 -0.7424393 -0.2719181
vn -0.02639973 -0.7699974 0.6375008
vn 0.6212128 -0.7429357 -0.2492815
vn -0.01164938 -0.9995413 -0.02795513
vn -0.03102973 -0.7744787 -0.6318384
vn 0.01194732 -0.6306146 -0.7760043
vn 0.6151108 -0.3364748 -0.7130381
vn -0.0840144 -0.9883322 0.1270474
vn -0.4959349 -0.5260742 0.690865
vn -0.7542303 -0.6495193 0.09623597
vn -0.2884893 -0.8233232 -0.4887871
vn -0.547773 -0.5830331 -0.6000143
vn -0.5473545 -0.7757819 -0.3139516
vn -0.6010948 -0.5671517 -0.5630489
vn 0.6441746 0.5087894 0.5711151
vn 0.7241982 -0.35168 0.5931764
vn 0.1622818 -0.5094418 0.8450643
vn 0.3957354 0.370517 0.840304
vn 0.1332859 -0.4932146 0.8596361
vn -0.003198677 -0.05669795 0.9983863
vn 0.05625896 -0.590117 0.8053551
vn -0.02639973 -0.7699974 0.6375008
vn -0.4959349 -0.5260742 0.690865
vn -0.06976097 0.6752852 0.7342502
vn 0.6668958 0.1161058 0.73605
vn 0.6190203 0.5769379 0.5328758
vn -0.1589677 0.3535844 0.9217957
vn -0.7392253 -0.0009705558 0.6734576
vn -0.0719142 0.7976276 0.5988476
vn -0.7939142 0.3480023 0.4985926
vn -0.461851 0.8410482 0.2816586
vn 0.3957354 0.370517 0.840304
vn 0.9439664 -0.2723807 -0.1863762
vn 0.466383 0.691876 -0.5511756
vn 0.6668958 0.1161058 0.73605
vn 0.7086992 0.7021635 -0.06864426
vn 0.6190203 0.5769379 0.5328758
vn 0.5724222 -0.2039282 -0.7941953
vn 0.6921706 0.4522587 -0.5624607
vn 0.7083613 0.4522742 -0.5419155
vn -0.4959349 -0.5260742 0.690865
vn -0.7542303 -0.6495193 0.09623597
vn -0.7392253 -0.0009705558 0.6734576
vn -0.7303129 -0.03920913 -0.6819866
vn -0.547773 -0.5830331 -0.6000143
vn -0.7319547 0.07504526 -0.6772079
vn -0.7939142 0.3480023 0.4985926
vn -0.7348415 0.6619684 -0.1476683
vn -0.4435613 0.5991419 -0.6665451
vn -0.461851 0.8410482 0.2816586
vn 0.6122454 -0.7424393 -0.2719181
vn 0.7474431 -0.09232683 -0.6578789
vn 0.6212128 -0.7429357 -0.2492815
vn 0.6151108 -0.3364748 -0.7130381
vn 0.6754581 -0.1016942 -0.7303524
vn 0.6695985 -0.05154548 -0.7409325
vn 0.820007 0.1243331 -0.5586859
vn 0.6273323 0.7186638 -0.2999608
vn 0.4972992 0.739241 -0.4541104
vn 0.466383 0.691876 -0.5511756
vn 0.01194732 -0.6306146 -0.7760043
vn 0.6151108 -0.3364748 -0.7130381
vn 0.6754581 -0.1016942 -0.7303524
vn 0.02549279 0.7011954 -0.7125133
vn 0.6695985 -0.05154548 -0.7409325
vn 0.820007 0.1243331 -0.5586859
vn 0.4972992 0.739241 -0.4541104
vn -0.07317376 -0.1084824 -0.9914016
vn -0.03102973 -0.7744787 -0.6318384
vn -0.6010948 -0.5671517 -0.5630489
vn 0.1219998 0.6108153 -0.7823175
vn -0.6941445 0.2648748 -0.6693316
vn 0.002874968 0.2994844 -0.9540968
vn 0.2691571 0.8292236 -0.4898394
vn -0.2656904 0.7797998 -0.5668518
vn 0.6273323 0.7186638 -0.2999608
vn 0.02549279 0.7011954 -0.7125133
vn 0.4972992 0.739241 -0.4541104
vn 0.2954248 0.7832155 -0.5470811
vn 0.1219998 0.6108153 -0.7823175
vn 0.2691571 0.8292236 -0.4898394
vn 0.05196906 0.6105299 -0.7902863
vn 0.2053676 0.5930485 -0.7785356
vn 0.6921706 0.4522587 -0.5624607
vn 0.466383 0.691876 -0.5511756
vn 0.9439664 -0.2723807 -0.1863762
vn -0.2009918 0.5902904 -0.781767
vn -0.2656904 0.7797998 -0.5668518
vn -0.6941445 0.2648748 -0.6693316
vn -0.3872117 0.2945324 -0.8736807
vn 0.05196906 0.6105299 -0.7902863
vn 0.6921706 0.4522587 -0.5624607
vn 0.5724222 -0.2039282 -0.7941953
vn -0.06205957 0.4849711 -0.8723254
vn 0.2714521 0.3901507 -0.8798273
vn 0.7083613 0.4522742 -0.5419155
vn -0.05336238 0.9173999 -0.3943729
vn 0.2053676 0.5930485 -0.7785356
vn 0.2954248 0.7832155 -0.5470811
vn -0.2009918 0.5902904 -0.781767
vn -0.4435613 0.5991419 -0.6665451
vn -0.3872117 0.2945324 -0.8736807
vn -0.4182337 0.03359564 -0.9077179
vn -0.7319547 0.07504526 -0.6772079
vn -0.7303129 -0.03920913 -0.6819866
vn -0.2884893 -0.8233232 -0.4887871
vn -0.547773 -0.5830331 -0.6000143
vn 0.7083613 0.4522742 -0.5419155
vn -0.05336238 0.9173999 -0.3943729
vn 0.2714521 0.3901507 -0.8798273
vn 0.1253164 0.9692431 -0.2118102
vn 0.7086992 0.7021635 -0.06864426
vn 0.6190203 0.5769379 0.5328758
vn -0.06976097 0.6752852 0.7342502
vn -0.1204617 0.9926661 0.01015304
vn -0.0719142 0.7976276 0.5988476
vn -0.461851 0.8410482 0.2816586
vn -0.4435613 0.5991419 -0.6665451
vn -0.06205957 0.4849711 -0.8723254
vn -0.7348415 0.6619684 -0.1476683
vn -0.9392281 0.06092952 -0.3378434
vn -0.2884893 -0.8233232 -0.4887871
vn -0.5473545 -0.7757819 -0.3139516
vn -0.4182337 0.03359564 -0.9077179
vn -0.6010948 -0.5671517 -0.5630489
vn -0.3872117 0.2945324 -0.8736807
vn -0.6941445 0.2648748 -0.6693316
vt 0.9744974 0.002467428
vt 0.9627386 0.002122557
vt 0.9646871 0.01474712
vt 0.9964408 0.002122557
vt 0.9933897 0.03345494
vt 0.9647558 0.03379852
vt 0.9711768 0.03837027
vt 0.9875974 0.03869643
vt 0.3849002 0.9403816
vt 0.3825644 0.959795
vt 0.3872556 0.9593633
vt 0.3799673 0.9285343
vt 0.3765696 0.9283272
vt 0.3562147 0.948136
vt 0.3646731 0.9285197
vt 0.3683047 0.9668942
vt 0.3451425 0.9283272
vt 0.3489451 0.9712404
vt 0.3438825 0.9551361
vt 0.3437717 0.9722475
vt 0.976709 0.809934
vt 0.9798428 0.8083588
vt 0.9806058 0.7964674
vt 0.9649217 0.8105988
vt 0.9772152 0.7747759
vt 0.9458923 0.7741567
vt 0.9458923 0.813433
vt 0.1016993 0.5035349
vt 0.1004049 0.5188263
vt 0.1048253 0.499099
vt 0.1110421 0.4997941
vt 0.1263573 0.5256943
vt 0.1274292 0.5004658
vt 0.1334836 0.4994706
vt 0.1350506 0.5208779
vt 0.1357378 0.5497555
vt 0.1269163 0.5514254
vt 0.09821839 0.5385437
vt 0.1357378 0.5613835
vt 0.09359073 0.5434347
vt 0.1311435 0.5817353
vt 0.089101 0.5431847
vt 0.1150582 0.5751255
vt 0.08487418 0.5827043
vt 0.08225685 0.5555672
vt 0.08327768 0.5417912
vt 0.1193739 0.6091462
vt 0.1304364 0.6199511
vt 0.1159308 0.6220459
vt 0.09339127 0.6116541
vt 0.09305254 0.6172415
vt 0.08850831 0.6072742
vt 0.0833525 0.6068088
vt 0.5892065 0.1994162
vt 0.5580028 0.199831
vt 0.5576225 0.2211626
vt 0.5973502 0.2298549
vt 0.5576819 0.2499923
vt 0.5737418 0.2757604
vt 0.5558847 0.2617337
vt 0.5567723 0.2823204
vt 0.5631689 0.3201765
vt 0.6197832 0.2608392
vt 0.5994421 0.23032
vt 0.6206241 0.2274886
vt 0.6152856 0.3144776
vt 0.6035686 0.3218732
vt 0.6189657 0.2884685
vt 0.615532 0.3207041
vt 0.6206241 0.3169134
vt 0.9572746 0.3155027
vt 0.9581469 0.2907889
vt 0.9572746 0.2764083
vt 0.9593431 0.3153891
vt 0.9823614 0.2914475
vt 0.9804942 0.3123186
vt 0.9618405 0.2764032
vt 0.9587948 0.2783422
vt 0.9801745 0.2785583
vt 0.8772516 0.9618793
vt 0.8914492 0.9638595
vt 0.8769035 0.9218085
vt 0.9146127 0.940416
vt 0.9146754 0.9650828
vt 0.9145286 0.9214571
vt 0.8786829 0.9098167
vt 0.9069854 0.9068527
vt 0.9146754 0.9067875
vt 0.8817324 0.9044406
vt 0.5890781 0.7792317
vt 0.5909939 0.7623673
vt 0.5845578 0.7792393
vt 0.5781665 0.7748193
vt 0.577493 0.7665684
vt 0.5763207 0.7500722
vt 0.5779911 0.7422069
vt 0.587417 0.7361637
vt 0.5785615 0.7367594
vt 0.5909939 0.7363722
vt 0.9211349 0.3735038
vt 0.9168421 0.3597305
vt 0.9085158 0.3582982
vt 0.8790165 0.3649459
vt 0.8918918 0.3558116
vt 0.884102 0.3543181
vt 0.878744 0.3556932
vt 0.9083155 0.4025845
vt 0.9228402 0.4003009
vt 0.9234758 0.4244421
vt 0.8792763 0.373245
vt 0.8784885 0.4243574
vt 0.8751611 0.3971426
vt 0.8722894 0.3813815
vt 0.8722894 0.4180607
vt 0.3220567 0.8177603
vt 0.3123915 0.80475
vt 0.3137072 0.8144135
vt 0.3269123 0.7994453
vt 0.314593 0.7967269
vt 0.3187963 0.7891225
vt 0.3265351 0.812924
vt 0.3290845 0.7910432
vt 0.3275187 0.8187624
vt 0.3249377 0.8211603
vt 0.3385593 0.8263502
vt 0.3377121 0.7529868
vt 0.3247603 0.7529254
vt 0.3244651 0.7465699
vt 0.3385593 0.7492117
vt 0.8356448 0.5103736
vt 0.8384691 0.5055861
vt 0.8361788 0.5034369
vt 0.8081174 0.513863
vt 0.8217392 0.4946389
vt 0.8224421 0.4907073
vt 0.8089603 0.5089105
vt 0.8183293 0.525263
vt 0.8293487 0.5221686
vt 0.7977858 0.5584325
vt 0.786454 0.5652167
vt 0.7971347 0.5626382
vt 0.8057866 0.5711095
vt 0.7961324 0.5771272
vt 0.8119309 0.5876026
vt 0.8384691 0.5937964
vt 0.8346393 0.5980027
vt 0.8297855 0.2841522
vt 0.8280562 0.2615434
vt 0.8267729 0.2805058
vt 0.8331053 0.2806976
vt 0.8427352 0.2871183
vt 0.8634354 0.2887444
vt 0.8638751 0.2556072
vt 0.8465452 0.2176263
vt 0.8636891 0.2281575
vt 0.8593282 0.1996112
vt 0.8263822 0.2021748
vt 0.8263822 0.256959
vt 0.8340109 0.1994161
vt 0.5715624 0.1465259
vt 0.5691161 0.1880793
vt 0.5744159 0.1871635
vt 0.5694088 0.1482711
vt 0.5795993 0.1861369
vt 0.5691161 0.1363754
vt 0.5833757 0.141014
usemtl MV_RockCubic_Rocks
f 1/1/1 3/3/3 2/2/2
f 3/3/3 1/1/1 4/4/4
f 5/5/5 3/3/3 4/4/4
f 3/3/3 5/5/5 6/6/6
f 7/7/7 6/6/6 5/5/5
f 8/8/8 7/7/7 5/5/5
f 9/9/9 11/11/11 10/10/10
f 12/12/12 9/9/9 10/10/10
f 13/13/13 12/12/12 10/10/10
f 13/13/13 10/10/10 14/14/14
f 15/15/15 13/13/13 14/14/14
f 14/14/14 10/10/10 16/16/16
f 15/15/15 14/14/14 17/17/17
f 18/18/18 14/14/14 16/16/16
f 17/17/17 14/14/14 19/19/19
f 14/14/14 18/18/18 19/19/19
f 19/19/19 18/18/18 20/20/20
f 21/21/21 23/23/23 22/22/22
f 23/23/23 21/21/21 24/24/24
f 25/25/25 23/23/23 24/24/24
f 26/26/26 25/25/25 24/24/24
f 26/26/26 24/24/24 27/27/27
f 28/28/28 30/30/30 29/29/29
f 29/29/29 30/30/30 31/31/31
f 32/32/32 29/29/29 31/31/31
f 32/32/32 31/31/31 33/33/33
f 34/34/34 32/32/32 33/33/33
f 35/35/35 32/32/32 34/34/34
f 35/35/35 36/36/36 32/32/32
f 37/37/37 29/29/29 32/32/32
f 36/36/36 37/37/37 32/32/32
f 29/29/29 37/37/37 38/38/38
f 36/36/36 39/39/39 37/37/37
f 38/38/38 37/37/37 40/40/40
f 39/39/39 41/41/41 37/37/37
f 37/37/37 42/42/42 40/40/40
f 41/41/41 43/43/43 37/37/37
f 37/37/37 44/44/44 42/42/42
f 37/37/37 43/43/43 44/44/44
f 42/42/42 44/44/44 45/45/45
f 45/45/45 46/46/46 42/42/42
f 47/47/47 43/43/43 41/41/41
f 48/48/48 47/47/47 41/41/41
f 47/47/47 48/48/48 49/49/49
f 50/50/50 43/43/43 47/47/47
f 49/49/49 50/50/50 47/47/47
f 43/43/43 50/50/50 44/44/44
f 49/49/49 51/51/51 50/50/50
f 50/50/50 52/52/52 44/44/44
f 52/52/52 53/53/53 44/44/44
f 54/54/54 56/56/56 55/55/55
f 57/57/57 56/56/56 54/54/54
f 58/58/58 56/56/56 57/57/57
f 58/58/58 57/57/57 59/59/59
f 59/59/59 60/60/60 58/58/58
f 59/59/59 61/61/61 60/60/60
f 62/62/62 61/61/61 59/59/59
f 57/57/57 63/63/63 59/59/59
f 63/63/63 57/57/57 64/64/64
f 65/65/65 63/63/63 64/64/64
f 66/66/66 62/62/62 59/59/59
f 63/63/63 66/66/66 59/59/59
f 66/66/66 67/67/67 62/62/62
f 68/68/68 66/66/66 63/63/63
f 69/69/69 67/67/67 66/66/66
f 70/70/70 66/66/66 68/68/68
f 70/70/70 69/69/69 66/66/66
f 71/71/71 73/73/73 72/72/72
f 74/74/74 71/71/71 72/72/72
f 75/75/75 74/74/74 72/72/72
f 76/76/76 74/74/74 75/75/75
f 72/72/72 77/77/77 75/75/75
f 77/77/77 72/72/72 78/78/78
f 77/77/77 79/79/79 75/75/75
f 80/80/80 82/82/82 81/81/81
f 82/82/82 83/83/83 81/81/81
f 83/83/83 84/84/84 81/81/81
f 82/82/82 85/85/85 83/83/83
f 82/82/82 86/86/86 85/85/85
f 85/85/85 86/86/86 87/87/87
f 87/87/87 88/88/88 85/85/85
f 89/89/89 87/87/87 86/86/86
f 90/90/90 92/92/92 91/91/91
f 91/91/91 92/92/92 93/93/93
f 91/91/91 93/93/93 94/94/94
f 94/94/94 95/95/95 91/91/91
f 95/95/95 96/96/96 91/91/91
f 97/97/97 91/91/91 96/96/96
f 97/97/97 96/96/96 98/98/98
f 99/99/99 91/91/91 97/97/97
f 100/100/100 102/102/102 101/101/101
f 100/100/100 103/103/103 102/102/102
f 104/104/104 102/102/102 103/103/103
f 105/105/105 104/104/104 103/103/103
f 106/106/106 105/105/105 103/103/103
f 103/103/103 100/100/100 107/107/107
f 100/100/100 108/108/108 107/107/107
f 107/107/107 108/108/108 109/109/109
f 103/103/103 107/107/107 110/110/110
f 107/107/107 109/109/109 111/111/111
f 110/110/110 107/107/107 112/112/112
f 112/112/112 107/107/107 111/111/111
f 113/113/113 110/110/110 112/112/112
f 114/114/114 112/112/112 111/111/111
f 114/114/114 113/113/113 112/112/112
f 115/115/115 117/117/117 116/116/116
f 115/115/115 116/116/116 118/118/118
f 119/119/119 118/118/118 116/116/116
f 118/118/118 119/119/119 120/120/120
f 121/121/121 115/115/115 118/118/118
f 122/122/122 118/118/118 120/120/120
f 123/123/123 115/115/115 121/121/121
f 124/124/124 115/115/115 123/123/123
f 125/125/125 124/124/124 123/123/123
f 126/126/126 122/122/122 120/120/120
f 120/120/120 127/127/127 126/126/126
f 126/126/126 127/127/127 128/128/128
f 129/129/129 126/126/126 128/128/128
f 130/130/130 132/132/132 131/131/131
f 133/133/133 132/132/132 130/130/130
f 134/134/134 132/132/132 133/133/133
f 134/134/134 135/135/135 132/132/132
f 134/134/134 133/133/133 136/136/136
f 133/133/133 130/130/130 137/137/137
f 138/138/138 137/137/137 130/130/130
f 133/133/133 137/137/137 139/139/139
f 133/133/133 139/139/139 140/140/140
f 139/139/139 141/141/141 140/140/140
f 141/141/141 142/142/142 140/140/140
f 140/140/140 142/142/142 143/143/143
f 142/142/142 144/144/144 143/143/143
f 142/142/142 145/145/145 144/144/144
f 144/144/144 145/145/145 146/146/146
f 147/147/147 149/149/149 148/148/148
f 150/150/150 147/147/147 148/148/148
f 151/151/151 147/147/147 150/150/150
f 151/151/151 150/150/150 148/148/148
f 151/151/151 148/148/148 152/152/152
f 153/153/153 152/152/152 148/148/148
f 153/153/153 148/148/148 154/154/154
f 153/153/153 154/154/154 155/155/155
f 155/155/155 154/154/154 156/156/156
f 154/154/154 148/148/148 157/157/157
f 154/154/154 157/157/157 156/156/156
f 157/157/157 148/148/148 158/158/158
f 156/156/156 157/157/157 159/159/159
f 160/160/160 162/162/162 161/161/161
f 163/163/163 160/160/160 161/161/161
f 160/160/160 164/164/164 162/162/162
f 163/163/163 165/165/165 160/160/160
f 160/160/160 166/166/166 164/164/164
f 160/160/160 165/165/165 166/166/166
