mtllib P_RockDesert_Shelf03.mtl
v -8.921722 1.795561 -3.376212
v -10.2047 -0.1458955 -1.858865
v -9.528763 -0.2494477 -3.648291
v -9.452341 2.30336 -1.465003
v -8.396574 3.110108 -3.253665
v -10.2494 -0.09045988 1.10942
v -8.907104 3.537821 -1.498783
v -8.470263 4.419409 -3.314846
v -9.487402 2.287992 0.8767538
v -9.121527 0.242837 3.449799
v -8.860514 5.004812 -1.53029
v -7.798805 6.020521 -3.121324
v -8.625353 2.410653 3.240403
v -7.678453 0.901616 5.075559
v -8.950141 3.517536 0.6496487
v -7.487506 6.604268 -1.773954
v -6.99599 7.351435 -2.869564
v -7.47398 7.414805 -2.029226
v -7.392712 2.95311 5.026035
v -6.535204 0.9921118 6.451766
v -6.179114 3.099162 6.332609
v -8.23872 3.651796 2.93841
v -8.913769 4.979584 0.5898418
v -7.517025 6.625018 0.4326958
v -7.509094 7.464145 0.001057625
v -7.137271 4.02249 4.6478
v -6.006205 3.951416 6.026418
v -8.297934 5.052556 2.940728
v -7.27132 6.57046 2.458063
v -7.366899 7.551525 2.262727
v -7.259508 4.950374 4.578342
v -6.096729 4.809548 6.014577
v -6.672483 6.648345 3.954191
v -6.423408 7.558619 3.663822
v -5.967824 6.435091 5.78364
v -4.4699 4.62603 6.95735
v -5.856483 6.881644 5.536279
v -4.417603 6.482893 6.732445
v -4.307681 6.895339 6.470934
v -7.831243 2.000393 -4.466662
v -9.528763 -0.2494477 -3.648291
v -8.686813 -0.4916996 -4.899651
v -8.921722 1.795561 -3.376212
v -7.3643 3.193671 -4.25753
v -8.396574 3.110108 -3.253665
v -7.397932 4.441916 -4.293202
v -8.470263 4.419409 -3.314846
v -6.898706 5.953788 -4.153209
v -7.798805 6.020521 -3.121324
v -6.394521 6.756797 -3.942484
v -6.99599 7.351435 -2.869564
v -5.94488 7.610016 -3.803356
v -6.625429 7.675001 -2.727648
v 6.879708 1.118657 -4.435911
v 6.101969 -0.6550919 -6.950782
v 7.127479 -0.599475 -4.861213
v 5.566795 1.170249 -6.789419
v 4.189701 -0.8757315 -9.77573
v 6.496371 2.808247 -4.234622
v 4.021922 1.411846 -8.911323
v 2.005368 -0.7297779 -10.82113
v 2.007125 1.945113 -10.36355
v 3.700807 3.358605 -8.383094
v 1.78064 3.805414 -9.808912
v 4.926743 3.149072 -6.570789
v 3.662593 5.339112 -8.423054
v 1.694802 5.721696 -9.928099
v 4.660417 5.283152 -6.786081
v 3.286275 6.684342 -7.600776
v 1.374607 6.999143 -9.510474
v 5.113664 6.897799 -6.253677
v 5.101161 3.050964 -6.352173
v 5.022176 5.069234 -6.332654
v 6.603048 4.633047 -4.294184
v 6.779599 6.794945 -4.35508
v 8.080091 5.069217 -3.360714
v 7.961282 2.995346 -3.374027
v 8.180075 6.745907 -3.434527
v 6.712801 6.99274 -4.31584
v 6.078108 7.724367 -3.897329
v 4.746506 7.740427 -5.765232
v 8.101171 6.924245 -3.360296
v 10.04587 6.824097 -1.458383
v 9.931614 6.996258 -1.411877
v 10.59037 6.941743 1.317126
v 10.09921 5.04033 -1.31112
v 9.82719 3.112495 -1.379213
v 8.441011 1.061681 -3.57613
v 10.74947 5.156824 1.324337
v 9.536187 7.06476 3.344098
v 9.574884 5.500826 3.499061
v 10.41805 3.51541 1.274098
v 9.683886 3.753522 3.441145
v 10.32757 1.103881 -1.503217
v 10.80975 -0.5192497 -1.544383
v 9.065572 -0.8606953 -3.708233
v 9.95661 -0.8674172 -2.593042
v 10.89188 -0.8607409 -1.553816
v 12.35164 -0.6400855 1.567343
v 10.95734 1.781309 1.434541
v 10.27071 1.873488 3.72785
v 11.30103 1.190369 1.484248
v 10.62533 1.177585 3.755194
v 11.02395 0.5503708 3.83298
v 11.71247 0.6088477 1.493798
v 12.21153 0.4346626 1.603391
v 11.60176 -0.3855301 4.028682
v 11.49273 0.3854112 4.067595
v 10.21659 -0.3739473 5.944971
v 9.964262 -0.0007005185 5.684233
v 8.921899 1.720563 4.922666
v 10.27071 1.873488 3.72785
v 10.62533 1.177585 3.755194
v 9.819216 0.1128503 5.560546
v 8.945453 0.09309556 6.045963
v 6.565071 1.855601 6.109581
v 7.261564 0.2566262 6.597348
v 9.964262 -0.0007005185 5.684233
v 11.02395 0.5503708 3.83298
v 9.098211 0.0008154064 6.19002
v 11.49273 0.3854112 4.067595
v 11.71247 0.6088477 1.493798
v 12.21153 0.4346626 1.603391
v 10.80975 -0.5192497 -1.544383
v 7.419639 0.0134844 6.889464
v 9.183439 -0.007498413 6.369579
v 9.222259 -0.3539004 6.500603
v 10.21659 -0.3739473 5.944971
v 7.534668 -0.01004104 7.191064
v 4.091728 -0.2318521 7.541828
v 4.131033 -0.03880906 7.352494
v 2.774086 -0.2169156 7.460103
v 0.8514318 -0.9036953 5.876845
v -1.65753 -0.2933344 7.473439
v 1.0589 -0.3206237 7.28209
v -1.047928 -0.8818946 5.615588
v -4.289333 -0.2927641 7.238614
v -3.063967 -0.7826433 5.61801
v -6.090705 0.1066049 6.241351
v -4.551461 -0.4524345 4.872062
v -7.146465 -0.3042437 4.739187
v -5.776612 -0.6475913 3.904447
v -8.319872 -0.626821 3.119781
v -6.918779 -0.6370749 2.587022
v -9.648159 -0.6817805 1.022442
v 2.653718 -1.073158 4.69032
v 0.2309666 -0.9905233 4.430792
v -1.864873 -0.6931633 3.935377
v -3.582306 -0.6282435 3.328523
v -5.531857 -0.5423253 1.963314
v -7.676857 -0.6621757 0.7149143
v 5.875049 -0.9905955 5.473661
v 3.615302 -0.9866552 6.295713
v 4.231568 -0.9821702 7.368708
v 2.729397 -0.6399875 6.971996
v 7.218482 -1.103985 6.710986
v 7.511247 -1.017586 4.417361
v 9.690015 -1.042484 5.461324
v 4.29782 -1.062537 3.606725
v 8.448702 -1.044182 3.091127
v 10.99788 -1.096268 3.832596
v 1.419177 -0.9251143 2.880816
v 5.317264 -0.988295 2.093881
v -0.9728184 -0.6325396 2.109337
v 8.929579 -1.037818 1.563786
v 2.460144 -0.9904934 0.9274249
v -3.033903 -0.537042 1.195054
v 5.992664 -0.9042204 0.1548462
v 0.005702972 -0.8612261 -0.1084766
v -5.247389 -0.5484196 -0.01398563
v 3.309533 -0.9496182 -1.24755
v -2.423342 -0.8184041 -1.078555
v 0.9842205 -0.8809098 -2.278508
v 8.503222 -1.112352 -0.5029554
v 5.92846 -0.9193392 -1.323404
v 3.858751 -0.9579153 -3.289846
v 11.51782 -1.197613 1.551082
v 12.35164 -0.6400855 1.567343
v 11.60176 -0.3855301 4.028682
v 10.89188 -0.8607409 -1.553816
v 10.36621 -1.099867 -1.39465
v 9.95661 -0.8674172 -2.593042
v 7.353056 -1.00386 -2.404566
v 8.576438 -1.167934 -3.379305
v 9.065572 -0.8606953 -3.708233
v 7.127479 -0.599475 -4.861213
v 5.650056 -0.901085 -3.899697
v 6.666777 -0.9227406 -4.597918
v 6.101969 -0.6550919 -6.950782
v 4.113899 -0.9914508 -5.112427
v 5.323485 -1.030438 -6.705366
v 4.189701 -0.8757315 -9.77573
v 1.891598 -1.017865 -4.36961
v 2.635809 -1.241363 -6.093788
v 3.858263 -1.28262 -9.194749
v 2.005368 -0.7297779 -10.82113
v -1.382069 -0.812107 -3.197152
v 3.581947 -1.156565 -8.287446
v 1.80932 -1.357368 -10.23908
v -1.028971 -0.5161526 -11.23232
v -0.2195635 -1.132798 -5.116084
v -4.572281 -0.7243884 -1.977192
v 0.9773092 -1.392888 -6.657184
v 1.327482 -1.241953 -9.144536
v -1.057615 -1.398502 -10.309
v -4.777578 -0.9622995 -11.06792
v -3.552544 -0.729937 -3.865332
v -7.213108 -0.6288689 -1.097095
v -2.257668 -0.8132279 -5.476769
v -0.8293781 -1.09433 -7.15938
v -1.102245 -1.280434 -9.262482
v -4.661688 -1.53533 -10.5367
v -7.012489 -0.931915 -9.794117
v -6.650919 -0.7647139 -2.852402
v -9.604651 -0.7046902 -1.780516
v -10.2494 -0.09045988 1.10942
v -10.2047 -0.1458955 -1.858865
v -8.758643 -0.7771681 -3.511002
v -8.022003 -1.072023 -5.172977
v -9.528763 -0.2494477 -3.648291
v -8.686813 -0.4916996 -4.899651
v -9.205681 -0.2441378 -6.435842
v -5.858355 -0.7312855 -4.315944
v -8.507065 -0.8602827 -7.610559
v -8.90778 -0.2285035 -7.855058
v -4.689342 -0.9551219 -6.212366
v -6.353364 -1.227023 -8.034553
v -6.82626 -1.477945 -9.300705
v -4.204804 -1.322281 -9.196363
v -3.022202 -1.030599 -7.35828
v 8.241261 6.84145 4.445104
v 9.536187 7.06476 3.344098
v 9.574884 5.500826 3.499061
v 8.321431 4.828136 4.547048
v 9.683886 3.753522 3.441145
v 8.499945 3.519175 4.651128
v 10.27071 1.873488 3.72785
v 8.921899 1.720563 4.922666
v 6.257416 3.568432 5.784436
v 6.565071 1.855601 6.109581
v 6.024718 4.776522 5.707513
v 6.190649 6.683496 5.594494
v 5.796701 7.591711 5.388049
v 7.677087 7.817543 4.402599
v 3.240265 7.600048 5.956405
v 3.291779 6.654566 6.173332
v 0.3643541 7.152398 6.42129
v 2.91931 4.66603 6.297581
v 0.4442205 6.61873 6.53376
v -2.267759 6.840515 6.606405
v 3.623626 3.298592 6.629685
v -2.331818 6.382109 6.759315
v -4.307681 6.895339 6.470934
v -4.417603 6.482893 6.732445
v 0.5626965 4.715713 6.822671
v -2.297256 4.572632 6.998785
v -4.4699 4.62603 6.95735
v 3.792833 1.58418 6.986967
v 7.261564 0.2566262 6.597348
v 4.131033 -0.03880906 7.352494
v 2.774086 -0.2169156 7.460103
v 0.984726 3.840713 7.003544
v -1.817178 3.784179 7.162703
v 1.02846 2.358854 7.069471
v -4.274299 3.635288 6.837115
v -6.096729 4.809548 6.014577
v -6.006205 3.951416 6.026418
v -1.862431 2.609089 7.232895
v -4.512768 2.473768 7.224176
v -6.179114 3.099162 6.332609
v 1.080052 0.5249674 7.704456
v -1.832585 0.4338062 7.904507
v -4.632192 0.5354434 7.565269
v -6.535204 0.9921118 6.451766
v -1.65753 -0.2933344 7.473439
v -4.289333 -0.2927641 7.238614
v -6.090705 0.1066049 6.241351
v -7.146465 -0.3042437 4.739187
v -7.678453 0.901616 5.075559
v -8.319872 -0.626821 3.119781
v -9.121527 0.242837 3.449799
v -9.648159 -0.6817805 1.022442
v -10.2494 -0.09045988 1.10942
v 1.0589 -0.3206237 7.28209
v 2.729397 -0.6399875 6.971996
v 0.8514318 -0.9036953 5.876845
v 3.615302 -0.9866552 6.295713
v 4.231568 -0.9821702 7.368708
v 4.213159 -0.5279055 7.658376
v 4.091728 -0.2318521 7.541828
v 7.534668 -0.01004104 7.191064
v 7.655104 -0.3653939 7.181836
v 7.218482 -1.103985 6.710986
v 9.222259 -0.3539004 6.500603
v 9.183439 -0.007498413 6.369579
v 9.690015 -1.042484 5.461324
v 10.21659 -0.3739473 5.944971
v 11.60176 -0.3855301 4.028682
v 10.99788 -1.096268 3.832596
v 2.007125 1.945113 -10.36355
v -1.028971 -0.5161526 -11.23232
v 2.005368 -0.7297779 -10.82113
v -0.9206409 2.255485 -10.49824
v 1.78064 3.805414 -9.808912
v -4.777578 -0.9622995 -11.06792
v -0.8895626 3.583524 -10.08081
v 1.694802 5.721696 -9.928099
v -4.032342 2.153311 -10.04467
v -7.012489 -0.931915 -9.794117
v -0.9124146 4.928397 -10.31796
v 1.374607 6.999143 -9.510474
v -6.216948 2.021565 -8.859537
v -8.90778 -0.2285035 -7.855058
v -8.024521 3.066387 -7.072369
v -3.693797 3.333766 -9.695051
v -5.719908 3.333016 -8.510328
v -7.435112 3.865433 -6.653698
v -1.034369 6.279359 -9.982718
v -1.020033 6.925326 -9.590258
v -3.579374 4.5102 -9.908329
v -5.604772 4.655265 -8.692636
v -7.196144 4.706119 -6.519509
v -3.388386 6.103119 -9.86137
v -5.305208 6.078878 -8.667253
v -6.882048 6.086269 -6.605391
v -3.177626 6.971814 -9.385862
v -3.0751 7.149219 -9.101658
v -4.712396 7.427035 -7.877906
v -4.96889 6.953063 -8.299111
v -6.39719 6.964489 -6.336533
v -6.054067 7.440187 -6.040497
v -5.94488 7.610016 -3.803356
v -6.054067 7.440187 -6.040497
v -4.712396 7.427035 -7.877906
v -4.391323 7.519634 -6.321609
v -3.0751 7.149219 -9.101658
v -3.482561 7.331402 -7.237325
v -3.04686 7.237138 -7.810379
v -1.658783 7.100189 -8.480517
v -1.02241 7.060954 -8.448993
v -1.020033 6.925326 -9.590258
v 1.374607 6.999143 -9.510474
v 1.261746 7.00956 -8.38036
v 2.276618 7.094069 -7.853006
v 3.286275 6.684342 -7.600776
v -3.56278 8.279315 -5.029076
v -3.450838 7.54595 -7.077013
v -4.694411 8.400837 -3.872503
v -6.625429 7.675001 -2.727648
v -2.317637 8.374017 -5.76069
v -2.928764 7.559755 -7.690657
v -3.97439 8.604784 -3.469867
v -2.963775 8.646885 -4.202899
v -4.484885 8.744078 -2.452139
v -5.541902 8.16898 -2.562265
v -3.604858 8.767763 -2.960809
v -1.70112 8.893478 -4.716535
v -4.987358 8.582105 -1.370512
v -0.924963 8.022909 -6.793155
v -0.8521919 8.584738 -5.852339
v -1.215027 8.276107 -5.927062
v -0.4789257 8.878565 -4.95118
v 0.05156803 8.686927 -5.834179
v 0.7829514 8.73857 -5.545917
v -2.360058 8.776106 -3.32881
v 0.7185774 8.866077 -4.720406
v 1.807594 8.804294 -5.190775
v -3.838758 8.882782 -1.711611
v -0.9680395 8.802851 -3.454418
v 1.855517 8.866201 -4.223885
v 3.526645 8.764919 -4.375193
v 0.9449815 8.37376 -6.607706
v 0.138422 8.305508 -6.011057
v 0.6196308 8.402668 -6.001229
v -2.255127 9.011324 -2.018757
v 0.454052 8.842653 -3.248563
v 2.855086 8.86627 -3.485213
v 4.553508 8.778052 -3.23957
v 1.813337 8.877653 -2.889862
v 3.109899 8.881401 -2.300128
v 5.26221 8.79368 -1.969048
v -0.510148 9.012472 -2.198686
v 1.234846 9.002497 -2.14775
v 4.29515 8.892843 -1.394779
v 6.137288 8.777975 -0.3579154
v 2.818151 8.960802 -1.902387
v -2.073045 9.149214 -0.2126126
v -0.1356392 9.105051 -0.2797785
v 1.783856 9.0399 -0.2551394
v 3.488221 8.92819 -0.1278367
v 5.166809 8.791924 0.2054453
v -3.83857 9.048254 -0.09586
v -5.135396 8.633979 -0.08223867
v -5.95615 8.229266 -1.090078
v -6.604288 7.696024 -1.741425
v -7.47398 7.414805 -2.029226
v -6.99599 7.351435 -2.869564
v -7.509094 7.464145 0.001057625
v -6.897762 7.911915 0.114769
v -7.366899 7.551525 2.262727
v -5.946405 8.247656 0.2528944
v -6.542799 7.927704 2.001128
v -6.423408 7.558619 3.663822
v -5.025275 8.570858 1.113775
v -5.793691 7.890263 3.284831
v -5.856483 6.881644 5.536279
v -5.574134 8.199617 1.632208
v -3.783802 9.058685 1.361389
v -4.850311 7.93003 4.038014
v -4.307681 6.895339 6.470934
v -4.425189 8.552317 2.065023
v -4.984073 8.113989 2.797334
v -3.526947 8.543741 2.748803
v -3.251344 9.061966 2.5253
v -2.124266 9.160421 1.423663
v -4.042437 8.119746 3.661793
v -2.493748 9.00667 3.462486
v -3.523919 7.506137 5.513086
v -2.267759 6.840515 6.606405
v -1.797622 9.126822 2.714915
v -0.2923546 9.119656 1.413851
v -2.753748 8.222236 4.703263
v -1.485029 7.544168 5.821872
v 0.3643541 7.152398 6.42129
v -1.325003 9.010871 3.774406
v 1.54988 9.061316 1.304457
v -0.2121534 9.107119 2.742817
v 0.769804 7.74473 5.658692
v 3.240265 7.600048 5.956405
v -1.016866 8.82123 4.866283
v 3.217783 8.949062 1.210943
v 1.390258 9.07514 2.536865
v -0.06220436 9.030718 3.867867
v 2.829568 8.176911 5.310462
v 5.796701 7.591711 5.388049
v 0.6846628 8.883108 4.714117
v 1.178745 9.039649 3.662537
v 2.877908 8.983511 2.263474
v 5.009746 8.794718 1.289874
v 2.165541 8.916633 4.308612
v 2.387804 8.988369 3.26283
v 6.505186 8.761049 1.008104
v 4.666449 8.830564 2.137309
v 6.058295 8.767958 2.276473
v 4.538054 8.63328 4.676845
v 3.797768 8.874712 3.913347
v 5.458282 8.720391 4.020653
v 4.118218 8.853626 2.94024
v 5.203154 8.836355 3.30001
v 6.715797 8.56442 3.412971
v 7.318755 8.707959 2.611027
v 6.834742 8.306556 3.473722
v 7.467616 8.42919 2.631195
v 7.94436 8.5517 1.02466
v 7.8434 8.180701 -0.3774399
v 6.707784 8.16717 -2.136862
v 6.189302 8.555176 -2.008274
v 5.547055 8.572716 -1.652275
v 4.574522 8.249054 -3.111061
v 5.277963 8.348944 -3.593785
v 3.449388 8.255322 -4.406683
v 4.08839 8.348351 -4.996105
v 2.164862 8.303625 -5.494168
v 5.540001 8.179008 -3.730165
v 2.618027 8.334019 -6.052589
v 4.285992 8.184661 -5.232978
v 2.728346 8.191359 -6.308178
v 0.9963799 8.188692 -6.977016
v -0.9661026 7.765967 -7.346539
v -1.521509 7.577234 -8.108662
v -1.053104 7.475116 -8.250842
v 1.11546 7.705707 -7.6861
v 3.023672 7.752273 -6.992381
v 4.746506 7.740427 -5.765232
v 6.078108 7.724367 -3.897329
v 7.343223 7.692228 -2.520696
v 6.712801 6.99274 -4.31584
v 8.101171 6.924245 -3.360296
v 8.923458 7.73669 -0.8245139
v 9.931614 6.996258 -1.411877
v 8.367552 8.147858 1.044343
v 8.039144 8.202561 1.067793
v 9.525328 7.70831 1.203749
v 10.59037 6.941743 1.317126
v 7.753281 8.231879 2.649314
v 7.483665 8.287991 2.609715
v 8.836182 7.869797 2.986315
v 9.536187 7.06476 3.344098
v 6.882443 8.242338 3.711581
v 6.761512 8.265667 3.607358
v 7.677087 7.817543 4.402599
v 8.241261 6.84145 4.445104
v 5.627666 7.958086 4.254384
v 5.402678 8.051493 4.244997
v 4.805655 8.203117 4.702411
v 5.009881 8.121777 4.824431
v 4.746506 7.740427 -5.765232
v 3.286275 6.684342 -7.600776
v 5.113664 6.897799 -6.253677
v 3.023672 7.752273 -6.992381
v 2.276618 7.094069 -7.853006
v 1.264287 7.193511 -8.32189
v 1.11546 7.705707 -7.6861
v 1.261746 7.00956 -8.38036
v -1.053104 7.475116 -8.250842
v -1.043615 7.236032 -8.351582
v -1.02241 7.060954 -8.448993
v -1.658783 7.100189 -8.480517
v -1.701908 7.314245 -8.274209
v -1.521509 7.577234 -8.108662
v -3.04686 7.237138 -7.810379
v -2.944614 7.393111 -7.734048
v -2.928764 7.559755 -7.690657
v -3.482561 7.331402 -7.237325
v -3.450838 7.54595 -7.077013
v -3.446642 7.436378 -7.145891
v -4.391323 7.519634 -6.321609
v 7.961282 2.995346 -3.374027
v 6.496371 2.808247 -4.234622
v 6.879708 1.118657 -4.435911
v 8.441011 1.061681 -3.57613
v 7.127479 -0.599475 -4.861213
v 9.065572 -0.8606953 -3.708233
v 4.553508 8.778052 -3.23957
v 3.526645 8.764919 -4.375193
v 3.469787 8.621166 -4.398273
v 4.568973 8.388725 -3.145077
v 5.26221 8.79368 -1.969048
v 5.404634 8.683199 -1.810218
v 6.137288 8.777975 -0.3579154
v 5.547055 8.572716 -1.652275
v 4.574522 8.249054 -3.111061
v 3.449388 8.255322 -4.406683
v 2.109017 8.593231 -5.363622
v 2.164862 8.303625 -5.494168
v 3.526645 8.764919 -4.375193
v 2.109017 8.593231 -5.363622
v 3.469787 8.621166 -4.398273
v 1.807594 8.804294 -5.190775
v 0.6067762 8.542034 -5.82283
v 2.164862 8.303625 -5.494168
v 0.6196308 8.402668 -6.001229
v 0.7829514 8.73857 -5.545917
v 0.138422 8.305508 -6.011057
v 0.1140003 8.502515 -5.870312
v 0.05156803 8.686927 -5.834179
v -1.010545 8.38816 -5.851332
v -1.215027 8.276107 -5.927062
v -0.8521919 8.584738 -5.852339
v -2.317637 8.374017 -5.76069
v 6.761512 8.265667 3.607358
v 6.834742 8.306556 3.473722
v 7.467616 8.42919 2.631195
v 7.483665 8.287991 2.609715
v 8.040511 8.347631 1.03782
v 8.039144 8.202561 1.067793
v 7.8434 8.180701 -0.3774399
v 7.94436 8.5517 1.02466
v 7.318755 8.707959 2.611027
v -9.205681 -0.2441378 -6.435842
v -8.90778 -0.2285035 -7.855058
v -8.024521 3.066387 -7.072369
v -8.322798 2.055082 -5.472999
v -8.686813 -0.4916996 -4.899651
v -7.435112 3.865433 -6.653698
v -7.831243 2.000393 -4.466662
v -7.745485 3.294109 -5.160388
v -7.196144 4.706119 -6.519509
v -7.3643 3.193671 -4.25753
v -7.7101 4.587712 -5.163706
v -6.882048 6.086269 -6.605391
v -7.397932 4.441916 -4.293202
v -7.237179 6.035088 -4.988539
v -6.39719 6.964489 -6.336533
v -6.898706 5.953788 -4.153209
v -6.729007 6.872586 -4.735897
v -6.054067 7.440187 -6.040497
v -6.394521 6.756797 -3.942484
v -5.94488 7.610016 -3.803356
v -3.251344 9.061966 2.5253
v -2.493748 9.00667 3.462486
v -3.526947 8.543741 2.748803
v -4.425189 8.552317 2.065023
v 5.482774 8.31724 4.1945
v 6.834742 8.306556 3.473722
v 6.761512 8.265667 3.607358
v 6.715797 8.56442 3.412971
v 5.402678 8.051493 4.244997
v 5.458282 8.720391 4.020653
v 4.805655 8.203117 4.702411
v 4.538054 8.63328 4.676845
v 4.74118 8.351858 4.700057
v 2.829568 8.176911 5.310462
vn -0.8046714 0.344977 -0.483213
vn -0.9522477 -0.24586 -0.1810452
vn -0.8679528 -0.2484065 -0.4300606
vn -0.9193987 0.3546068 -0.170176
vn -0.8316077 0.1940723 -0.5203505
vn -0.9440718 -0.2498386 0.2151956
vn -0.9684519 0.1910872 -0.1599585
vn -0.8540869 0.1730243 -0.490508
vn -0.9257519 0.3447894 0.1552538
vn -0.810694 -0.2303282 0.5382603
vn -0.9331697 0.3378259 -0.1227516
vn -0.7775178 0.4542853 -0.4348459
vn -0.855684 0.298184 0.4229555
vn -0.7507499 -0.1567834 0.6417114
vn -0.9672016 0.2183767 0.1297407
vn -0.9250495 0.3660108 -0.1015852
vn -0.6753728 0.6307024 -0.3822122
vn -0.7889339 0.601054 -0.1277401
vn -0.7741528 0.2692696 0.572871
vn -0.6420693 -0.1371537 0.7542784
vn -0.563318 0.277443 0.7782663
vn -0.8999709 0.1901592 0.3922906
vn -0.9378305 0.3313808 0.1032511
vn -0.9399328 0.3354238 0.06338206
vn -0.8578506 0.5138299 -0.008431213
vn -0.8072718 0.1451641 0.5720485
vn -0.6034728 0.1399658 0.7850033
vn -0.8862895 0.2873437 0.3632143
vn -0.8835106 0.3632172 0.2957741
vn -0.8179979 0.5278947 0.2284876
vn -0.8269075 0.1780326 0.5334121
vn -0.6690648 0.06433715 0.7404141
vn -0.8274971 0.3599443 0.4309162
vn -0.6119555 0.6821314 0.4002589
vn -0.6688496 0.3504999 0.6555837
vn -0.2845564 0.02824485 0.9582431
vn -0.559983 0.6527064 0.5102876
vn -0.263293 0.3187117 0.9105491
vn -0.2099124 0.6852658 0.6973863
vn -0.9272482 0.3504882 -0.1317907
vn -0.8679528 -0.2484065 -0.4300606
vn -0.9098607 -0.4029281 -0.09900732
vn -0.8046714 0.344977 -0.483213
vn -0.9645749 0.1667899 -0.2043927
vn -0.8316077 0.1940723 -0.5203505
vn -0.9675131 0.1637673 -0.1926099
vn -0.8540869 0.1730243 -0.490508
vn -0.8855923 0.4458398 -0.1302049
vn -0.7775178 0.4542853 -0.4348459
vn -0.8389715 0.5322584 -0.1132602
vn -0.6753728 0.6307024 -0.3822122
vn -0.5536912 0.797722 -0.238884
vn -0.5022505 0.8216877 -0.2693952
vn 0.6795759 0.2578606 -0.6867929
vn 0.8084254 -0.3733398 -0.4550448
vn 0.6385006 -0.4002913 -0.6573309
vn 0.8169264 0.2791146 -0.5047042
vn 0.6250115 -0.3431951 -0.7011262
vn 0.6912668 0.1226351 -0.7121171
vn 0.6937571 0.2780122 -0.6643871
vn 0.2808593 -0.2937971 -0.9136747
vn 0.3489993 0.2681905 -0.8979273
vn 0.7335548 0.1628699 -0.6598263
vn 0.3817986 0.116171 -0.9169156
vn 0.8136635 0.1594844 -0.5590318
vn 0.730504 0.2322705 -0.6421949
vn 0.3933305 0.1981556 -0.8977892
vn 0.7737919 0.09506107 -0.6262664
vn 0.5709542 0.5050313 -0.6472671
vn 0.2446932 0.7698876 -0.589405
vn 0.6543653 0.3242081 -0.6831509
vn 0.8199494 0.1686659 -0.5470235
vn 0.7870589 -0.006668039 -0.6168419
vn 0.6747572 -0.04085932 -0.7369078
vn 0.6545348 0.1765127 -0.7351378
vn 0.6344222 -0.05654563 -0.7709157
vn 0.6146935 0.08600047 -0.7840638
vn 0.6281465 0.2110151 -0.7489357
vn 0.5743556 0.5831876 -0.5744632
vn 0.4942776 0.7640083 -0.4147056
vn 0.4759004 0.7219082 -0.5023619
vn 0.5032127 0.6499957 -0.5694582
vn 0.8417069 0.2822269 -0.4603016
vn 0.6213481 0.701342 -0.3493508
vn 0.8925089 0.4391862 0.1026808
vn 0.8872548 -0.05778738 -0.4576457
vn 0.8675098 0.08341173 -0.4903767
vn 0.6078835 0.2364262 -0.7580107
vn 0.9928482 -0.02884011 0.1158484
vn 0.7351227 0.398307 0.5485857
vn 0.7819384 0.04370955 0.6218215
vn 0.9948782 0.08960861 0.04677311
vn 0.8157912 0.1482856 0.5590135
vn 0.8328108 0.2746663 -0.4806086
vn 0.8120846 0.250095 -0.5272297
vn 0.5924887 -0.3820084 -0.7092438
vn 0.6843255 -0.421853 -0.5947593
vn 0.7712125 -0.4173902 -0.4806421
vn 0.9316146 -0.360349 -0.04735833
vn 0.9326037 0.3607582 -0.01019136
vn 0.7666143 0.4128774 0.491767
vn 0.871585 0.4877632 -0.04926078
vn 0.725086 0.5365914 0.431648
vn 0.4871602 0.8069038 0.3340378
vn 0.5938034 0.7887071 -0.1591811
vn 0.7914078 0.6042005 -0.09281953
vn 0.8534095 -0.2615641 0.4508619
vn 0.631462 0.6613787 0.404764
vn 0.658324 -0.1567847 0.7362256
vn 0.5120137 0.6306499 0.5832005
vn 0.5177159 0.3944741 0.7591841
vn 0.7666143 0.4128774 0.491767
vn 0.725086 0.5365914 0.431648
vn 0.4586253 0.6656737 0.5886777
vn 0.3128482 0.7127768 0.6277542
vn 0.3306241 0.3097634 0.8914787
vn 0.2414165 0.6200634 0.7464848
vn 0.5120137 0.6306499 0.5832005
vn 0.4871602 0.8069038 0.3340378
vn 0.1260877 0.9614685 0.2442954
vn 0.631462 0.6613787 0.404764
vn 0.5938034 0.7887071 -0.1591811
vn 0.7914078 0.6042005 -0.09281953
vn 0.8120846 0.250095 -0.5272297
vn 0.07152095 0.9435998 0.3232711
vn 0.2917088 0.8120757 0.5054098
vn 0.4678639 -0.1702144 0.8672546
vn 0.658324 -0.1567847 0.7362256
vn 0.1456115 0.7350989 0.6621381
vn 0.01111266 0.5219137 0.852926
vn 0.110938 0.5301625 0.8406073
vn -0.03515081 -0.2580777 0.9654845
vn -0.03826689 -0.9758788 0.2149331
vn -0.01787585 -0.7579656 0.6520496
vn -0.02680182 -0.7439799 0.6676642
vn -0.0500055 -0.9895075 0.1355521
vn -0.2526549 -0.7800967 0.5723764
vn -0.1129395 -0.9887167 0.09840708
vn -0.4472227 -0.7298497 0.5170216
vn -0.1201738 -0.9882802 0.09413076
vn -0.3612916 -0.8171074 0.4492257
vn -0.02061425 -0.9913847 0.1293503
vn -0.3288545 -0.8881485 0.3210092
vn 0.01018187 -0.9992822 0.03648828
vn -0.402132 -0.9057251 0.1339845
vn -0.01824997 -0.9997789 0.01044525
vn -0.06302872 -0.9976891 -0.02537318
vn -0.07697611 -0.9949448 -0.06449425
vn -0.03289315 -0.9992083 -0.02238039
vn 0.02756367 -0.9995584 -0.01109775
vn 0.02860868 -0.9995877 0.002447746
vn -0.009020279 -0.9999591 0.0006351545
vn -0.0840179 -0.9906895 0.1071231
vn -0.08249687 -0.8687038 0.4884137
vn -0.1493432 -0.8513101 0.5029591
vn 0.1219924 -0.8966763 0.4255461
vn -0.006752854 -0.999908 -0.01176807
vn 0.2633334 -0.9052729 0.3333715
vn -0.004491494 -0.9999769 -0.005099521
vn -0.02096962 -0.9997712 -0.004222175
vn 0.3489649 -0.9125823 0.213113
vn -0.06017504 -0.9975695 -0.03512882
vn -0.003232116 -0.9997749 -0.02097115
vn -0.07295951 -0.9972759 -0.01084855
vn -0.03771312 -0.9992866 0.00200177
vn -0.03087083 -0.9994868 -0.008555244
vn -0.03837042 -0.9989123 0.02649594
vn -0.02112153 -0.9997765 -0.000835782
vn -0.05430581 -0.9982947 0.02141811
vn -0.00542191 -0.9992242 0.03900776
vn -0.004399962 -0.9999895 -0.001278767
vn -0.04630668 -0.9981884 0.03841372
vn -0.02437061 -0.9993485 0.0266216
vn -0.05105193 -0.9985462 0.0172942
vn -0.02666195 -0.9996126 0.007990461
vn 0.01636769 -0.9995 0.02704957
vn 0.3275107 -0.9448036 0.00910411
vn 0.9316146 -0.360349 -0.04735833
vn 0.8534095 -0.2615641 0.4508619
vn 0.7712125 -0.4173902 -0.4806421
vn 0.218667 -0.9659935 -0.1379907
vn 0.6843255 -0.421853 -0.5947593
vn -0.06445447 -0.9979202 -0.0009425392
vn 0.1268672 -0.9633801 -0.2362278
vn 0.5924887 -0.3820084 -0.7092438
vn 0.6385006 -0.4002913 -0.6573309
vn -0.008849065 -0.9998939 0.011571
vn 0.1302557 -0.9800804 -0.1499199
vn 0.8084254 -0.3733398 -0.4550448
vn 0.04528452 -0.9978129 0.0481547
vn 0.2490617 -0.9651183 -0.08071545
vn 0.6250115 -0.3431951 -0.7011262
vn 0.004340176 -0.9956135 0.09346121
vn 0.05549197 -0.9967713 0.05803259
vn 0.220032 -0.9586933 -0.1802587
vn 0.2808593 -0.2937971 -0.9136747
vn -0.04954032 -0.9983737 0.02820905
vn 0.01787524 -0.9975476 0.06767001
vn 0.0896271 -0.9362551 -0.339696
vn 0.02318891 -0.2245446 -0.9741879
vn -0.07893101 -0.9938716 0.07738979
vn -0.02252286 -0.9990457 0.03742207
vn -0.020557 -0.9987249 0.04610866
vn 0.0007663108 -0.9983662 0.05713518
vn 0.03685538 -0.9463069 -0.3211617
vn -0.2719119 -0.2199056 -0.9368594
vn -0.02519105 -0.999159 0.03235299
vn 0.01333803 -0.9991688 0.03852207
vn -0.0629379 -0.9953273 0.07322817
vn -0.0752986 -0.9955524 0.05661837
vn -0.006938932 -0.9952532 0.09707213
vn -0.08462323 -0.925915 -0.3681309
vn -0.6052366 -0.1972932 -0.7712095
vn 0.01326108 -0.9979304 0.06292067
vn -0.3789377 -0.9238598 -0.05375247
vn -0.9440718 -0.2498386 0.2151956
vn -0.9522477 -0.24586 -0.1810452
vn -0.3103561 -0.948482 -0.06372628
vn -0.2640267 -0.9631345 0.05159336
vn -0.8679528 -0.2484065 -0.4300606
vn -0.9098607 -0.4029281 -0.09900732
vn -0.970403 -0.2294767 0.07522319
vn 0.03499434 -0.9965551 0.07518812
vn -0.5269023 -0.8396403 -0.131826
vn -0.8907896 -0.1434374 -0.4311839
vn 0.03143767 -0.9929522 0.1142696
vn -0.02327644 -0.9940543 0.1063693
vn -0.3301599 -0.9098054 -0.251493
vn 0.02878315 -0.9901995 0.1366619
vn 0.003083174 -0.9925284 0.1219747
vn 0.5504817 0.2598327 0.7933832
vn 0.7351227 0.398307 0.5485857
vn 0.7819384 0.04370955 0.6218215
vn 0.5551471 0.08224845 0.8276756
vn 0.8157912 0.1482856 0.5590135
vn 0.5526253 0.1904352 0.8113813
vn 0.7666143 0.4128774 0.491767
vn 0.5177159 0.3944741 0.7591841
vn 0.3517043 0.2066844 0.9130091
vn 0.3306241 0.3097634 0.8914787
vn 0.3252566 0.1132228 0.938823
vn 0.3428061 0.1669237 0.9244569
vn 0.2624758 0.6195108 0.7398059
vn 0.3657196 0.7177803 0.5924869
vn 0.1198204 0.5547358 0.8233537
vn 0.1705636 0.1526592 0.9734491
vn 0.0270055 0.5315754 0.8465804
vn 0.1955726 0.1782083 0.9643615
vn 0.09978753 0.1817175 0.9782746
vn -0.01627802 0.5873365 0.8091791
vn 0.2030704 0.2156491 0.9551219
vn 0.01809777 0.2417093 0.97018
vn -0.2099124 0.6852658 0.6973863
vn -0.263293 0.3187117 0.9105491
vn 0.1117378 0.1894324 0.9755152
vn -0.006165045 0.1038194 0.9945771
vn -0.2845564 0.02824485 0.9582431
vn 0.1873307 0.2381012 0.9530032
vn 0.2414165 0.6200634 0.7464848
vn 0.110938 0.5301625 0.8406073
vn -0.03515081 -0.2580777 0.9654845
vn 0.120813 0.1957381 0.973186
vn 0.0003547346 0.1363957 0.9906544
vn 0.09424557 0.1866834 0.9778891
vn -0.2308606 0.1292304 0.9643666
vn -0.6690648 0.06433715 0.7404141
vn -0.6034728 0.1399658 0.7850033
vn -0.004245252 0.199116 0.9799668
vn -0.2451567 0.2356336 0.9404122
vn -0.563318 0.277443 0.7782663
vn 0.0678309 -0.04776989 0.9965526
vn -0.01362413 -0.1084472 0.9940089
vn -0.3269911 -0.1559352 0.9320735
vn -0.6420693 -0.1371537 0.7542784
vn -0.01787585 -0.7579656 0.6520496
vn -0.2526549 -0.7800967 0.5723764
vn -0.4472227 -0.7298497 0.5170216
vn -0.3612916 -0.8171074 0.4492257
vn -0.7507499 -0.1567834 0.6417114
vn -0.3288545 -0.8881485 0.3210092
vn -0.810694 -0.2303282 0.5382603
vn -0.402132 -0.9057251 0.1339845
vn -0.9440718 -0.2498386 0.2151956
vn -0.02680182 -0.7439799 0.6676642
vn -0.1493432 -0.8513101 0.5029591
vn -0.03826689 -0.9758788 0.2149331
vn -0.0840179 -0.9906895 0.1071231
vn -0.08249687 -0.8687038 0.4884137
vn -0.0238012 -0.2328069 0.9722316
vn 0.01111266 0.5219137 0.852926
vn 0.1456115 0.7350989 0.6621381
vn 0.3065286 -0.2152603 0.9272018
vn 0.1219924 -0.8966763 0.4255461
vn 0.4678639 -0.1702144 0.8672546
vn 0.2917088 0.8120757 0.5054098
vn 0.2633334 -0.9052729 0.3333715
vn 0.658324 -0.1567847 0.7362256
vn 0.8534095 -0.2615641 0.4508619
vn 0.3489649 -0.9125823 0.213113
vn 0.3489993 0.2681905 -0.8979273
vn 0.02318891 -0.2245446 -0.9741879
vn 0.2808593 -0.2937971 -0.9136747
vn -0.01988616 0.2810965 -0.9594734
vn 0.3817986 0.116171 -0.9169156
vn -0.2719119 -0.2199056 -0.9368594
vn -0.01395962 0.08533149 -0.9962548
vn 0.3933305 0.1981556 -0.8977892
vn -0.3016196 0.3473112 -0.8879192
vn -0.6052366 -0.1972932 -0.7712095
vn 0.0003407967 0.0275013 -0.9996217
vn 0.2446932 0.7698876 -0.589405
vn -0.5046881 0.4000986 -0.7649909
vn -0.8907896 -0.1434374 -0.4311839
vn -0.7885224 0.4740802 -0.3917658
vn -0.3282383 0.122724 -0.9365887
vn -0.5746543 0.2557137 -0.7774206
vn -0.8532461 0.3229933 -0.4094463
vn -0.02612731 0.3546104 -0.9346491
vn -0.001706592 0.8303685 -0.5572122
vn -0.323774 -0.01766366 -0.9459696
vn -0.6576578 0.07065019 -0.7499965
vn -0.883148 0.1763725 -0.4346752
vn -0.303642 0.3104781 -0.9007802
vn -0.6309016 0.3208246 -0.7064239
vn -0.8358436 0.3699728 -0.4055683
vn -0.2313985 0.6677477 -0.7075081
vn -0.06860033 0.932605 -0.3543189
vn -0.2362845 0.9192075 -0.3150036
vn -0.5218264 0.6255162 -0.5800229
vn -0.7319155 0.6005371 -0.3219549
vn -0.4596391 0.8704323 -0.1762939
vn -0.5536912 0.797722 -0.238884
vn -0.4596391 0.8704323 -0.1762939
vn -0.2362845 0.9192075 -0.3150036
vn -0.1785808 0.960273 -0.2144403
vn -0.06860033 0.932605 -0.3543189
vn -0.2363854 0.9038461 -0.3566289
vn -0.145915 0.9250159 -0.3507911
vn 0.002463278 0.9047686 -0.4258964
vn 0.03663059 0.8454484 -0.5327994
vn -0.001706592 0.8303685 -0.5572122
vn 0.2446932 0.7698876 -0.589405
vn 0.08761599 0.8542359 -0.5124494
vn 0.3360445 0.7869303 -0.5175084
vn 0.5709542 0.5050313 -0.6472671
vn -0.2987876 0.9045897 -0.3040453
vn -0.4912877 0.6934798 -0.5269936
vn -0.3591641 0.8950619 -0.264321
vn -0.5022505 0.8216877 -0.2693952
vn -0.1752615 0.920934 -0.3480863
vn -0.3868536 0.7011025 -0.5989988
vn -0.2190467 0.9539254 -0.2050487
vn -0.1821547 0.966553 -0.180541
vn -0.2764113 0.9550706 -0.1069444
vn -0.4353121 0.8857182 -0.1612657
vn -0.1317004 0.9817607 -0.1371167
vn -0.1057672 0.9833386 -0.1478461
vn -0.3446821 0.9350885 -0.08248564
vn -0.07349806 0.9376644 -0.3396815
vn -0.07847207 0.612718 -0.7863961
vn -0.03777159 0.8484727 -0.5278897
vn -0.03747498 0.9909028 -0.1292565
vn 0.03071054 0.7328514 -0.6796953
vn 0.09944548 0.8985853 -0.4273817
vn -0.0681861 0.9941725 -0.08349638
vn 0.002579356 0.9979097 -0.06457222
vn 0.1452183 0.9053797 -0.3989978
vn -0.1540779 0.9848539 -0.07951672
vn -0.008565005 0.9988494 -0.0471858
vn 0.01746288 0.9988613 -0.04439711
vn 0.4614823 0.7276627 -0.5074852
vn -0.00118296 0.9655242 -0.2603107
vn -0.1003015 0.8642262 -0.4930038
vn -0.01221752 0.9014583 -0.4326937
vn -0.04449224 0.9925299 -0.1135998
vn -0.003104508 0.9978226 -0.06588235
vn 0.03657386 0.998616 -0.03779557
vn 0.6160703 0.6289003 -0.4742804
vn 0.01579716 0.9974126 -0.07013246
vn 0.05783552 0.9946227 -0.08591136
vn 0.6023444 0.7178536 -0.3490952
vn 0.002340544 0.9940765 -0.1086578
vn 0.02737184 0.9954758 -0.09098769
vn 0.05828656 0.9981159 -0.01916573
vn 0.1842108 0.9777999 -0.09986906
vn 0.06146028 0.9950286 -0.07836262
vn -0.02536264 0.9988706 -0.04017816
vn 0.02141752 0.9993623 -0.02857144
vn 0.04404791 0.9989053 -0.0157465
vn 0.06565548 0.9978416 0.001225858
vn 0.05218694 0.9986242 0.005116251
vn -0.1943493 0.9803591 -0.03353057
vn -0.3651684 0.9309409 -0.001029714
vn -0.4280204 0.8993804 -0.08895776
vn -0.4352939 0.8936102 -0.1094529
vn -0.7889339 0.601054 -0.1277401
vn -0.6753728 0.6307024 -0.3822122
vn -0.8578506 0.5138299 -0.008431213
vn -0.4226084 0.9060055 -0.02358148
vn -0.8179979 0.5278947 0.2284876
vn -0.3832587 0.9233592 0.0228189
vn -0.3423192 0.9309474 0.1271007
vn -0.6119555 0.6821314 0.4002589
vn -0.3899902 0.9097585 0.1422924
vn -0.2597842 0.9337637 0.2461656
vn -0.559983 0.6527064 0.5102876
vn -0.3152053 0.9359857 0.1567687
vn -0.25154 0.9631055 0.09568427
vn -0.2299931 0.9196647 0.3183079
vn -0.2099124 0.6852658 0.6973863
vn -0.3843852 0.8764513 0.2899674
vn -0.2351267 0.9475684 0.2164014
vn -0.4630142 0.7585785 0.4584501
vn -0.3389531 0.8827576 0.3253458
vn -0.02209206 0.9997127 0.009299217
vn -0.2870054 0.9086224 0.30337
vn -0.2539299 0.9253516 0.2815031
vn -0.1742317 0.8459932 0.5039234
vn -0.01627802 0.5873365 0.8091791
vn -0.02239698 0.9976241 0.0651506
vn 0.02443467 0.9997013 0.0006251722
vn -0.2724946 0.8355535 0.4770713
vn -0.07748199 0.7448152 0.662757
vn 0.0270055 0.5315754 0.8465804
vn -0.09661657 0.9727633 0.2107056
vn 0.04722093 0.9988738 -0.004615786
vn 0.01324222 0.9990945 0.04043418
vn -0.001117721 0.7258291 0.6878742
vn 0.1198204 0.5547358 0.8233537
vn -0.09359495 0.8416037 0.5319241
vn 0.07512949 0.9971694 -0.002948948
vn 0.04245066 0.9989106 0.01937829
vn -0.002693064 0.9920146 0.1260939
vn 0.05183021 0.7899573 0.6109673
vn 0.2624758 0.6195108 0.7398059
vn 0.02314955 0.8720707 0.4888322
vn 0.03056634 0.9952611 0.09230939
vn 0.07483382 0.9971116 0.0129745
vn 0.05407524 0.9985353 -0.00180779
vn 0.04621055 0.9323053 0.3587079
vn 0.06192883 0.9969229 0.04805769
vn 0.1138062 0.9920094 -0.05445734
vn 0.05869366 0.9982584 -0.005935226
vn 0.07110003 0.9970692 0.02824405
vn 0.2455644 0.7043958 0.6659766
vn 0.05330274 0.9779163 0.2020854
vn 0.3232877 0.8001322 0.5052459
vn 0.06233562 0.9980333 0.00661238
vn 0.08272518 0.9939054 0.0728602
vn 0.4172762 0.7429785 0.5233197
vn 0.5045294 0.8140474 0.2877096
vn 0.6779698 0.2735111 0.6823113
vn 0.8410515 0.2788113 0.4635696
vn 0.6291265 0.7772951 -0.003482861
vn 0.3546551 0.9168588 -0.183275
vn 0.4136375 0.8621164 -0.2926762
vn 0.2165722 0.9534013 -0.2100536
vn 0.4319804 0.8317459 -0.3486999
vn 0.4784217 0.7666934 -0.4281282
vn 0.1825739 0.9641711 -0.1924605
vn 0.425577 0.7853771 -0.4495185
vn 0.1507401 0.9754027 -0.1608323
vn 0.238007 0.8854211 -0.399227
vn 0.4477742 0.8229531 -0.3496374
vn 0.1186584 0.971518 -0.2051168
vn 0.3596791 0.8546028 -0.3745464
vn 0.2299871 0.8688474 -0.4384177
vn 0.04283171 0.8894972 -0.4549288
vn -0.04800187 0.9231524 -0.3814257
vn -0.08600596 0.8105636 -0.5793009
vn -0.004475665 0.7060424 -0.7081554
vn 0.1212147 0.8190881 -0.5607153
vn 0.3366387 0.7213157 -0.6052918
vn 0.4759004 0.7219082 -0.5023619
vn 0.4942776 0.7640083 -0.4147056
vn 0.4049422 0.8343794 -0.3739424
vn 0.5743556 0.5831876 -0.5744632
vn 0.5032127 0.6499957 -0.5694582
vn 0.4267551 0.8742167 -0.2315713
vn 0.6213481 0.701342 -0.3493508
vn 0.2766522 0.960741 -0.02098147
vn 0.7048373 0.7059016 0.07005136
vn 0.4990558 0.8663641 0.01888709
vn 0.8925089 0.4391862 0.1026808
vn 0.2384696 0.9647855 0.1110011
vn 0.6450828 0.6903431 0.3275584
vn 0.4785401 0.8239103 0.3035972
vn 0.7351227 0.398307 0.5485857
vn 0.1375179 0.9381538 0.3177361
vn 0.2952586 0.7128299 0.6361572
vn 0.3657196 0.7177803 0.5924869
vn 0.5504817 0.2598327 0.7933832
vn 0.172383 0.9006423 0.398908
vn 0.4647376 0.6592633 0.5910929
vn 0.3944159 0.6114148 0.6860088
vn 0.2688664 0.8952624 0.355269
vn 0.4759004 0.7219082 -0.5023619
vn 0.5709542 0.5050313 -0.6472671
vn 0.6543653 0.3242081 -0.6831509
vn 0.3366387 0.7213157 -0.6052918
vn 0.3360445 0.7869303 -0.5175084
vn 0.2140193 0.5433901 -0.8117407
vn 0.1212147 0.8190881 -0.5607153
vn 0.08761599 0.8542359 -0.5124494
vn -0.004475665 0.7060424 -0.7081554
vn -0.0002807126 0.4840039 -0.8750658
vn 0.03663059 0.8454484 -0.5327994
vn 0.002463278 0.9047686 -0.4258964
vn -0.187106 0.5691779 -0.8006421
vn -0.08600596 0.8105636 -0.5793009
vn -0.145915 0.9250159 -0.3507911
vn -0.4619012 0.5410835 -0.7027631
vn -0.3868536 0.7011025 -0.5989988
vn -0.2363854 0.9038461 -0.3566289
vn -0.4912877 0.6934798 -0.5269936
vn -0.5997787 0.5016003 -0.6234282
vn -0.1785808 0.960273 -0.2144403
vn 0.6146935 0.08600047 -0.7840638
vn 0.6912668 0.1226351 -0.7121171
vn 0.6795759 0.2578606 -0.6867929
vn 0.6078835 0.2364262 -0.7580107
vn 0.6385006 -0.4002913 -0.6573309
vn 0.5924887 -0.3820084 -0.7092438
vn 0.6160703 0.6289003 -0.4742804
vn 0.4614823 0.7276627 -0.5074852
vn 0.6391153 0.2158867 -0.7381901
vn 0.7993143 -0.02596798 -0.6003519
vn 0.6023444 0.7178536 -0.3490952
vn 0.8344778 0.2391004 -0.4964654
vn 0.1842108 0.9777999 -0.09986906
vn 0.4319804 0.8317459 -0.3486999
vn 0.4784217 0.7666934 -0.4281282
vn 0.425577 0.7853771 -0.4495185
vn 0.391109 0.5427527 -0.743272
vn 0.238007 0.8854211 -0.399227
vn 0.4614823 0.7276627 -0.5074852
vn 0.391109 0.5427527 -0.743272
vn 0.6391153 0.2158867 -0.7381901
vn 0.1452183 0.9053797 -0.3989978
vn 0.1414393 0.6424684 -0.7531462
vn 0.238007 0.8854211 -0.399227
vn -0.01221752 0.9014583 -0.4326937
vn 0.09944548 0.8985853 -0.4273817
vn -0.1003015 0.8642262 -0.4930038
vn 0.01633166 0.5299016 -0.8479019
vn 0.03071054 0.7328514 -0.6796953
vn -0.06330223 0.3574842 -0.9317713
vn -0.03777159 0.8484727 -0.5278897
vn -0.07847207 0.612718 -0.7863961
vn -0.1752615 0.920934 -0.3480863
vn 0.2952586 0.7128299 0.6361572
vn 0.6779698 0.2735111 0.6823113
vn 0.8410515 0.2788113 0.4635696
vn 0.6450828 0.6903431 0.3275584
vn 0.9713883 0.2272706 0.0689415
vn 0.7048373 0.7059016 0.07005136
vn 0.3546551 0.9168588 -0.183275
vn 0.6291265 0.7772951 -0.003482861
vn 0.5045294 0.8140474 0.2877096
vn -0.970403 -0.2294767 0.07522319
vn -0.8907896 -0.1434374 -0.4311839
vn -0.7885224 0.4740802 -0.3917658
vn -0.9259584 0.3182066 0.2033359
vn -0.9098607 -0.4029281 -0.09900732
vn -0.8532461 0.3229933 -0.4094463
vn -0.9272482 0.3504882 -0.1317907
vn -0.9483887 0.2488912 0.1964996
vn -0.883148 0.1763725 -0.4346752
vn -0.9645749 0.1667899 -0.2043927
vn -0.9828494 0.1771803 0.05112913
vn -0.8358436 0.3699728 -0.4055683
vn -0.9675131 0.1637673 -0.1926099
vn -0.9211738 0.3812111 0.0782115
vn -0.7319155 0.6005371 -0.3219549
vn -0.8855923 0.4458398 -0.1302049
vn -0.8189123 0.5609811 0.1211732
vn -0.4596391 0.8704323 -0.1762939
vn -0.8389715 0.5322584 -0.1132602
vn -0.5536912 0.797722 -0.238884
vn -0.3389531 0.8827576 0.3253458
vn -0.2539299 0.9253516 0.2815031
vn -0.4630142 0.7585785 0.4584501
vn -0.3843852 0.8764513 0.2899674
vn 0.4857495 0.3064305 0.8186256
vn 0.6779698 0.2735111 0.6823113
vn 0.2952586 0.7128299 0.6361572
vn 0.4172762 0.7429785 0.5233197
vn 0.4647376 0.6592633 0.5910929
vn 0.3232877 0.8001322 0.5052459
vn 0.3944159 0.6114148 0.6860088
vn 0.2455644 0.7043958 0.6659766
vn 0.4290694 0.2397276 0.870879
vn 0.05183021 0.7899573 0.6109673
vt 0.9459221 0.5371599
vt 0.9999999 0.5691179
vt 0.9978334 0.5294603
vt 0.9377018 0.5800853
vt 0.9117389 0.5414786
vt 0.9999999 0.6399657
vt 0.9052414 0.5808158
vt 0.8811466 0.5386351
vt 0.9391002 0.6360267
vt 0.9862829 0.7009686
vt 0.8702159 0.5791135
vt 0.8393395 0.5451024
vt 0.9319472 0.6965263
vt 0.9627469 0.7460523
vt 0.9067349 0.6320937
vt 0.8241563 0.5783504
vt 0.8031769 0.5537855
vt 0.8047921 0.571656
vt 0.9124632 0.7445596
vt 0.9543481 0.7842242
vt 0.9023094 0.7813445
vt 0.900169 0.6900946
vt 0.8718768 0.6296703
vt 0.8246189 0.6310527
vt 0.8045484 0.6200854
vt 0.8854993 0.735832
vt 0.8809994 0.7741335
vt 0.8673479 0.6887664
vt 0.8251778 0.6807435
vt 0.80244 0.6748457
vt 0.8642225 0.7328684
vt 0.8612078 0.7727517
vt 0.8203307 0.7192836
vt 0.7972032 0.7127573
vt 0.8218718 0.7665271
vt 0.8562929 0.8029923
vt 0.810553 0.7607623
vt 0.8119329 0.796375
vt 0.8014252 0.7902918
vt 0.8851943 0.3639485
vt 0.8565755 0.4205344
vt 0.8850615 0.4282622
vt 0.8550524 0.3691998
vt 0.8865435 0.3326562
vt 0.8574556 0.3354645
vt 0.8777228 0.3062823
vt 0.8474822 0.3083072
vt 0.8781208 0.2683745
vt 0.8508534 0.2666093
vt 0.8828926 0.2451759
vt 0.8586279 0.2291854
vt 0.8865435 0.221904
vt 0.863985 0.2179871
vt 0.6845568 0.1844566
vt 0.6383174 0.1223993
vt 0.6414417 0.1787214
vt 0.6842327 0.1195912
vt 0.6320344 0.04210558
vt 0.7268625 0.1839694
vt 0.6896497 0.05791663
vt 0.6392865 -4.076614E-09
vt 0.704888 0.007416131
vt 0.7387159 0.06514692
vt 0.7516631 0.01612999
vt 0.7342708 0.1170583
vt 0.7865603 0.0616194
vt 0.7979132 0.01046719
vt 0.786067 0.1074546
vt 0.8219023 0.07584331
vt 0.8305694 0.01594228
vt 0.8249823 0.1215258
vt 0.7319025 0.1236227
vt 0.7809029 0.1210818
vt 0.770503 0.1813625
vt 0.8220881 0.178908
vt 0.7790159 0.2144148
vt 0.7292331 0.2155381
vt 0.8190668 0.2115975
vt 0.8271359 0.1790307
vt 0.8474822 0.182576
vt 0.8474244 0.1287449
vt 0.8237554 0.2124466
vt 0.8201635 0.2721914
vt 0.8247395 0.2721208
vt 0.8276301 0.3402359
vt 0.7772653 0.278078
vt 0.7313116 0.2765162
vt 0.6807651 0.2170813
vt 0.7841025 0.3437779
vt 0.8379911 0.3779621
vt 0.8004591 0.3836503
vt 0.7452691 0.3418058
vt 0.7578345 0.3852422
vt 0.6811491 0.2801086
vt 0.6405288 0.285006
vt 0.632324 0.2214077
vt 0.6321625 0.2543318
vt 0.6320344 0.28586
vt 0.6402225 0.3692363
vt 0.7022565 0.3519287
vt 0.7114453 0.3988229
vt 0.6871459 0.3565777
vt 0.6937204 0.40317
vt 0.6776441 0.4089567
vt 0.6719868 0.3608504
vt 0.6666434 0.3676668
vt 0.6538785 0.4192797
vt 0.6728832 0.4183835
vt 0.6622187 0.451876
vt 0.6713537 0.4433858
vt 0.04621985 0.6909863
vt 0.04171402 0.6470821
vt 0.03277237 0.6432475
vt 0.01485627 0.691134
vt 0.02268535 0.7142364
vt 0.06988919 0.7507014
vt 0.04459965 0.7514446
vt 0.009897159 0.6912094
vt 0.0224298 0.6394438
vt 0.01732212 0.7145036
vt 0.009686767 0.6362931
vt 0.04805231 0.586112
vt 0.03675882 0.580245
vt 0.1100601 0.5490011
vt 0.03628748 0.7546022
vt 0.01285575 0.7163351
vt 0.00898606 0.718793
vt -1.081332E-09 0.692537
vt 0.02926325 0.7581617
vt 0.08495077 0.8215384
vt 0.08789144 0.817084
vt 0.1100601 0.8417101
vt 0.1227221 0.4123426
vt 0.05926686 0.4000416
vt 0.1104852 0.4399927
vt 0.09270246 0.3771718
vt 0.01558013 0.3537058
vt 0.05734964 0.3447795
vt 0.001032588 0.3057354
vt 0.04420736 0.3065859
vt 0.0008492353 0.2623539
vt 0.03487525 0.2697707
vt 0.0009654446 0.2147384
vt 0.03375461 0.2273915
vt 0.007392455 0.155268
vt 0.1709956 0.4198162
vt 0.1320572 0.376173
vt 0.1041044 0.3329254
vt 0.08272983 0.2942334
vt 0.06844334 0.237905
vt 0.04733504 0.1810801
vt 0.2178769 0.4854099
vt 0.1654377 0.4643513
vt 0.160831 0.4938215
vt 0.1424177 0.4617566
vt 0.2229636 0.5297816
vt 0.2623929 0.4922763
vt 0.2859559 0.546242
vt 0.2163472 0.4262202
vt 0.2983448 0.4830409
vt 0.3327458 0.5374514
vt 0.17649 0.3666299
vt 0.2572852 0.4146401
vt 0.1472303 0.3136109
vt 0.3293186 0.462754
vt 0.2231532 0.3476618
vt 0.1244342 0.263731
vt 0.2983668 0.3897415
vt 0.1953561 0.2891931
vt 0.1023764 0.2062755
vt 0.2704579 0.3213266
vt 0.1663733 0.2325395
vt 0.244425 0.2651544
vt 0.3512937 0.4182961
vt 0.3186952 0.3616976
vt 0.3100635 0.2927416
vt 0.3745914 0.5042412
vt 0.3936612 0.5165358
vt 0.3462743 0.5490012
vt 0.4113907 0.4366207
vt 0.3977756 0.431704
vt 0.4097751 0.4026784
vt 0.359334 0.3648656
vt 0.3941905 0.3669558
vt 0.4101665 0.3680206
vt 0.3943611 0.3153439
vt 0.3514924 0.3100575
vt 0.3797273 0.3135701
vt 0.4060906 0.2608534
vt 0.3409957 0.2635405
vt 0.3856192 0.2537999
vt 0.4113907 0.1791315
vt 0.2901462 0.2417018
vt 0.3269057 0.2225634
vt 0.3937733 0.1854347
vt 0.3886996 0.1247638
vt 0.2160184 0.2103829
vt 0.3765604 0.1973275
vt 0.3717577 0.133772
vt 0.3420552 0.06826586
vt 0.2623494 0.1945918
vt 0.141764 0.1815462
vt 0.3042517 0.1861209
vt 0.3480459 0.1458341
vt 0.3211243 0.08679747
vt 0.2690319 0.01245683
vt 0.1875636 0.1632914
vt 0.08237266 0.155246
vt 0.2336365 0.1546796
vt 0.2815846 0.1473649
vt 0.3059631 0.1049576
vt 0.2588462 0.02538805
vt 0.2106451 1.530774E-08
vt 0.1170162 0.1324228
vt 0.04894166 0.1047189
vt -1.306579E-08 0.1458551
vt 0.04373044 0.09237639
vt 0.08880185 0.08673311
vt 0.1239567 0.06878125
vt 0.0811627 0.07066912
vt 0.1126172 0.06178958
vt 0.1277141 0.02480065
vt 0.1528511 0.1182179
vt 0.1525466 0.01592037
vt 0.153905 0.003548066
vt 0.1997304 0.1027131
vt 0.1944227 0.04342999
vt 0.2024832 0.01329874
vt 0.2491178 0.05671092
vt 0.2457289 0.1085486
vt 0.5933169 0.07070777
vt 0.5844781 0.03805608
vt 0.5522542 0.03968942
vt 0.5507131 0.0720029
vt 0.513604 0.03975076
vt 0.5232987 0.06979442
vt 0.475402 0.02863084
vt 0.4868715 0.06254924
vt 0.5394337 0.1251088
vt 0.5055881 0.1205487
vt 0.5650224 0.1288146
vt 0.6049306 0.1216879
vt 0.6227473 0.1297013
vt 0.614618 0.08287355
vt 0.6320343 0.1923253
vt 0.6138973 0.1927148
vt 0.6306263 0.2633736
vt 0.5725694 0.2050063
vt 0.6202227 0.2623499
vt 0.628778 0.3280757
vt 0.5458609 0.1902494
vt 0.6206132 0.3304657
vt 0.6306644 0.3775569
vt 0.624757 0.3810673
vt 0.582054 0.2626699
vt 0.5840122 0.3326463
vt 0.5870601 0.3854271
vt 0.5124892 0.1890849
vt 0.4756037 0.1064568
vt 0.4810088 0.1836679
vt 0.4798162 0.21706
vt 0.564642 0.2539025
vt 0.5682247 0.3223173
vt 0.5331992 0.2552212
vt 0.5640255 0.3821431
vt 0.5822864 0.4240811
vt 0.5637138 0.4232389
vt 0.5435774 0.3253216
vt 0.5434154 0.3900527
vt 0.5488366 0.4290078
vt 0.5004614 0.2573038
vt 0.5038692 0.3284978
vt 0.5053207 0.3962569
vt 0.5048646 0.4410838
vt 0.4831059 0.3250798
vt 0.4833488 0.3889864
vt 0.4828366 0.431511
vt 0.4583187 0.4568061
vt 0.4887922 0.4680923
vt 0.4345345 0.4847438
vt 0.4579395 0.5031209
vt 0.4113907 0.5156942
vt 0.4258331 0.5294603
vt 0.4774393 0.2588555
vt 0.4652477 0.2184721
vt 0.4493496 0.2638383
vt 0.4492298 0.1969757
vt 0.4606262 0.1827195
vt 0.4737263 0.1826548
vt 0.4789772 0.1850623
vt 0.4761473 0.1006458
vt 0.468209 0.0982677
vt 0.447416 0.1097314
vt 0.4591641 0.05961761
vt 0.4652559 0.05992425
vt 0.432137 0.04858536
vt 0.4514563 0.03505109
vt 0.4283344 -2.250869E-08
vt 0.4113907 0.01568467
vt 0.2169039 0.8113934
vt 0.1387118 0.7531985
vt 0.1534311 0.8234147
vt 0.2072405 0.741918
vt 0.2618458 0.7964482
vt 0.1103952 0.6655754
vt 0.240522 0.735684
vt 0.3030777 0.7880799
vt 0.1923915 0.666579
vt 0.1100601 0.6062153
vt 0.2683581 0.7314817
vt 0.3333814 0.7737451
vt 0.1879596 0.6094494
vt 0.1321366 0.5490012
vt 0.2168203 0.5538451
vt 0.2234328 0.6684799
vt 0.2227517 0.6146145
vt 0.2412711 0.5626915
vt 0.3006482 0.7219783
vt 0.3184345 0.717954
vt 0.248442 0.6680036
vt 0.2512752 0.6134664
vt 0.2623957 0.564585
vt 0.2853347 0.6664832
vt 0.284786 0.6152319
vt 0.2940738 0.5674229
vt 0.3098213 0.6658555
vt 0.316718 0.6661683
vt 0.3246234 0.6202598
vt 0.3091489 0.6180969
vt 0.3184703 0.5742863
vt 0.3333814 0.5791291
vt 0.6890266 0.8966582
vt 0.7416562 0.8875098
vt 0.7779178 0.8458787
vt 0.7399369 0.846401
vt 0.7972032 0.8004293
vt 0.7560847 0.819933
vt 0.7669684 0.8065389
vt 0.775033 0.7699361
vt 0.7708387 0.7549347
vt 0.7972032 0.7488841
vt 0.7831604 0.6922271
vt 0.757166 0.7008543
vt 0.7397876 0.6794347
vt 0.7270755 0.6567011
vt 0.7080182 0.8334328
vt 0.7529431 0.820016
vt 0.6871063 0.8664792
vt 0.6674657 0.9185293
vt 0.7191363 0.7999104
vt 0.7647369 0.8043485
vt 0.6746421 0.8514302
vt 0.6868159 0.823491
vt 0.6538405 0.8689425
vt 0.6597824 0.8935657
vt 0.6613392 0.8452948
vt 0.6932745 0.7906942
vt 0.6303697 0.8866036
vt 0.7349136 0.7612975
vt 0.7144682 0.7644977
vt 0.7169631 0.7727576
vt 0.6923975 0.7603313
vt 0.7097267 0.7430509
vt 0.6993302 0.7271325
vt 0.6635725 0.8136921
vt 0.6806949 0.733002
vt 0.6858875 0.7045755
vt 0.6335582 0.8574309
vt 0.6594002 0.7798537
vt 0.6630943 0.7085122
vt 0.6576006 0.6678882
vt 0.7221395 0.7176975
vt 0.7120209 0.7400571
vt 0.7096518 0.7286379
vt 0.6330459 0.8180704
vt 0.6473129 0.7470399
vt 0.6405033 0.6885688
vt 0.6255665 0.6493796
vt 0.6319336 0.716526
vt 0.6113218 0.6887214
vt 0.5920167 0.6391628
vt 0.6282244 0.7755344
vt 0.6179234 0.7342111
vt 0.5838826 0.6652278
vt 0.549463 0.6267704
vt 0.6037644 0.6977635
vt 0.5900706 0.8232176
vt 0.5814247 0.7766882
vt 0.5706311 0.7310684
vt 0.5583633 0.6911162
vt 0.5412862 0.6528608
vt 0.5961151 0.8659128
vt 0.600987 0.8968995
vt 0.6274818 0.9111727
vt 0.6442041 0.9232064
vt 0.6544529 0.9424272
vt 0.6715279 0.9266205
vt 0.6069964 0.95393
vt 0.6028107 0.9399501
vt 0.5533103 0.9624217
vt 0.5958664 0.9179958
vt 0.5565931 0.9413999
vt 0.5154337 0.947295
vt 0.5720081 0.9005593
vt 0.5223253 0.93029
vt 0.4658616 0.9436298
vt 0.5612644 0.9163702
vt 0.5615444 0.8722633
vt 0.4998322 0.9117616
vt 0.4358521 0.9116251
vt 0.5464156 0.8912544
vt 0.5304362 0.9084288
vt 0.5256116 0.8734378
vt 0.5313753 0.8656873
vt 0.5518365 0.8330348
vt 0.5052044 0.890527
vt 0.505159 0.8525548
vt 0.4566184 0.8879035
vt 0.4218609 0.8637171
vt 0.5195996 0.8320338
vt 0.5424002 0.7893211
vt 0.4743609 0.8652818
vt 0.4388961 0.8409293
vt 0.4137111 0.800005
vt 0.4917566 0.826337
vt 0.5351904 0.7448385
vt 0.5106335 0.7943918
vt 0.4317746 0.7863262
vt 0.4113907 0.7290103
vt 0.4637307 0.8247319
vt 0.5283113 0.7045952
vt 0.5070421 0.7551175
vt 0.4830697 0.7967296
vt 0.4308881 0.735397
vt 0.4114681 0.665093
vt 0.4587072 0.7833765
vt 0.4814936 0.7660733
vt 0.505413 0.7182252
vt 0.516569 0.6623016
vt 0.4606915 0.7459496
vt 0.4844373 0.7351568
vt 0.5153128 0.6251787
vt 0.4985247 0.6749356
vt 0.4877838 0.6424937
vt 0.4386386 0.6913407
vt 0.4613674 0.7049704
vt 0.4496396 0.6659588
vt 0.4825455 0.6922204
vt 0.4683714 0.6682519
vt 0.4568403 0.6327963
vt 0.4731327 0.6142098
vt 0.4538309 0.6302841
vt 0.4708458 0.6107717
vt 0.5066674 0.5909667
vt 0.5388356 0.5860121
vt 0.5861266 0.6038357
vt 0.5872365 0.6168634
vt 0.5822524 0.6340411
vt 0.6204595 0.6495615
vt 0.6285481 0.6302578
vt 0.6568452 0.6695716
vt 0.6677562 0.6512433
vt 0.6893127 0.6944736
vt 0.6297663 0.6232982
vt 0.7002255 0.6807383
vt 0.6716995 0.6452914
vt 0.7051413 0.6767682
vt 0.729882 0.7145349
vt 0.7472048 0.7593744
vt 0.7673383 0.768611
vt 0.7678738 0.7567013
vt 0.7441663 0.7079783
vt 0.7180876 0.666141
vt 0.6801894 0.6315254
vt 0.6292149 0.609601
vt 0.5900976 0.5866807
vt 0.6330503 0.5922853
vt 0.6030759 0.5642154
vt 0.542102 0.5579271
vt 0.5479419 0.5308231
vt 0.502501 0.5809894
vt 0.5038583 0.5889392
vt 0.4910948 0.5542383
vt 0.4800362 0.5294603
vt 0.4682001 0.6040611
vt 0.4707424 0.6102784
vt 0.4532883 0.5800265
vt 0.4382255 0.5652335
vt 0.4477412 0.6303978
vt 0.4509112 0.6327322
vt 0.4257542 0.6150944
vt 0.4181859 0.6018851
vt 0.4404143 0.6631606
vt 0.4421521 0.6684724
vt 0.4350438 0.6851031
vt 0.4308058 0.6808777
vt 0.3333814 0.5572063
vt 0.3729118 0.5899349
vt 0.3573554 0.5490012
vt 0.3428563 0.5954114
vt 0.3649809 0.6126483
vt 0.3660733 0.6355678
vt 0.3483604 0.6396865
vt 0.3707561 0.6359042
vt 0.3564766 0.6910331
vt 0.3628127 0.691094
vt 0.3676933 0.6907299
vt 0.3663987 0.7059116
vt 0.3595825 0.7070103
vt 0.3523064 0.7024865
vt 0.3553928 0.7409238
vt 0.35128 0.7382957
vt 0.3471441 0.7376378
vt 0.3473369 0.7527834
vt 0.3410312 0.7519485
vt 0.3441509 0.7519181
vt 0.3333814 0.7767757
vt 0.3761195 0.7767757
vt 0.3412005 0.7806551
vt 0.338888 0.8212799
vt 0.3744119 0.8232321
vt 0.3333814 0.8639296
vt 0.3761195 0.8696089
vt 0.385524 0.6199824
vt 0.3861384 0.5855022
vt 0.3827881 0.5846134
vt 0.3762416 0.6225681
vt 0.3861384 0.6549645
vt 0.3833418 0.6598601
vt 0.3861279 0.6991583
vt 0.3805434 0.6647352
vt 0.3729117 0.6234984
vt 0.3739914 0.5845235
vt 0.3843231 0.5513327
vt 0.3769264 0.5490012
vt 0.3861384 0.5490012
vt 0.394198 0.5820208
vt 0.3893178 0.5510148
vt 0.3867162 0.5884811
vt 0.394117 0.6173565
vt 0.4020686 0.5818714
vt 0.3989791 0.6174272
vt 0.3877492 0.612662
vt 0.3993945 0.6293647
vt 0.3935851 0.6292289
vt 0.38893 0.6298873
vt 0.3916618 0.6566508
vt 0.3940968 0.6619468
vt 0.3879372 0.6519195
vt 0.3861384 0.6880638
vt 0.4093 0.6880637
vt 0.4082738 0.6904098
vt 0.4057919 0.7044911
vt 0.4091662 0.7054474
vt 0.4057651 0.737043
vt 0.4093 0.736967
vt 0.4048236 0.77158
vt 0.400435 0.7372133
vt 0.3984259 0.7049036
vt 0.8867795 0.214298
vt 0.9193072 0.2179871
vt 0.9154064 0.1326908
vt 0.8733287 0.1512251
vt 0.8474822 0.210014
vt 0.9077897 0.1085274
vt 0.8476427 0.144925
vt 0.8705974 0.1174357
vt 0.9082926 0.08695214
vt 0.8474822 0.1133687
vt 0.8774467 0.08734766
vt 0.916602 0.05335695
vt 0.8550873 0.08492622
vt 0.8794203 0.05002955
vt 0.9132942 0.02870085
vt 0.8581443 0.04609315
vt 0.8761986 0.02622702
vt 0.9076832 0.01416838
vt 0.8557406 0.02329184
vt 0.8554777 -4.105614E-10
vt 0.645812 0.4740951
vt 0.6320342 0.451876
vt 0.6320343 0.479163
vt 0.6408556 0.4983295
vt 0.392859 0.7545692
vt 0.3933824 0.7893586
vt 0.3932388 0.7873058
vt 0.3891696 0.7856622
vt 0.398426 0.753607
vt 0.3862317 0.7529135
vt 0.3935922 0.7371165
vt 0.3861384 0.729031
vt 0.3907944 0.7349638
vt 0.398426 0.6880638
usemtl MV_RockDesert_Shelf
f 1/1/1 3/3/3 2/2/2
f 1/1/1 2/2/2 4/4/4
f 5/5/5 1/1/1 4/4/4
f 4/4/4 2/2/2 6/6/6
f 5/5/5 4/4/4 7/7/7
f 8/8/8 5/5/5 7/7/7
f 4/4/4 6/6/6 9/9/9
f 7/7/7 4/4/4 9/9/9
f 9/9/9 6/6/6 10/10/10
f 8/8/8 7/7/7 11/11/11
f 12/12/12 8/8/8 11/11/11
f 9/9/9 10/10/10 13/13/13
f 13/13/13 10/10/10 14/14/14
f 7/7/7 9/9/9 15/15/15
f 11/11/11 7/7/7 15/15/15
f 15/15/15 9/9/9 13/13/13
f 12/12/12 11/11/11 16/16/16
f 17/17/17 12/12/12 16/16/16
f 17/17/17 16/16/16 18/18/18
f 13/13/13 14/14/14 19/19/19
f 19/19/19 14/14/14 20/20/20
f 19/19/19 20/20/20 21/21/21
f 15/15/15 13/13/13 22/22/22
f 22/22/22 13/13/13 19/19/19
f 11/11/11 15/15/15 23/23/23
f 16/16/16 11/11/11 23/23/23
f 23/23/23 15/15/15 22/22/22
f 18/18/18 16/16/16 24/24/24
f 16/16/16 23/23/23 24/24/24
f 18/18/18 24/24/24 25/25/25
f 26/26/26 19/19/19 21/21/21
f 22/22/22 19/19/19 26/26/26
f 26/26/26 21/21/21 27/27/27
f 23/23/23 22/22/22 28/28/28
f 24/24/24 23/23/23 28/28/28
f 28/28/28 22/22/22 26/26/26
f 25/25/25 24/24/24 29/29/29
f 24/24/24 28/28/28 29/29/29
f 25/25/25 29/29/29 30/30/30
f 31/31/31 26/26/26 27/27/27
f 28/28/28 26/26/26 31/31/31
f 29/29/29 28/28/28 31/31/31
f 31/31/31 27/27/27 32/32/32
f 30/30/30 29/29/29 33/33/33
f 29/29/29 31/31/31 33/33/33
f 33/33/33 31/31/31 32/32/32
f 30/30/30 33/33/33 34/34/34
f 33/33/33 32/32/32 35/35/35
f 34/34/34 33/33/33 35/35/35
f 35/35/35 32/32/32 36/36/36
f 34/34/34 35/35/35 37/37/37
f 35/35/35 36/36/36 38/38/38
f 37/37/37 35/35/35 38/38/38
f 37/37/37 38/38/38 39/39/39
f 40/40/40 42/42/42 41/41/41
f 40/40/40 41/41/41 43/43/43
f 44/44/44 40/40/40 43/43/43
f 44/44/44 43/43/43 45/45/45
f 46/46/46 44/44/44 45/45/45
f 46/46/46 45/45/45 47/47/47
f 48/48/48 46/46/46 47/47/47
f 48/48/48 47/47/47 49/49/49
f 50/50/50 48/48/48 49/49/49
f 50/50/50 49/49/49 51/51/51
f 52/52/52 50/50/50 51/51/51
f 52/52/52 51/51/51 53/53/53
f 54/54/54 56/56/56 55/55/55
f 54/54/54 55/55/55 57/57/57
f 57/57/57 55/55/55 58/58/58
f 59/59/59 54/54/54 57/57/57
f 57/57/57 58/58/58 60/60/60
f 60/60/60 58/58/58 61/61/61
f 60/60/60 61/61/61 62/62/62
f 63/63/63 60/60/60 62/62/62
f 63/63/63 62/62/62 64/64/64
f 65/65/65 57/57/57 60/60/60
f 65/65/65 60/60/60 63/63/63
f 66/66/66 63/63/63 64/64/64
f 66/66/66 64/64/64 67/67/67
f 68/68/68 63/63/63 66/66/66
f 68/68/68 65/65/65 63/63/63
f 69/69/69 66/66/66 67/67/67
f 69/69/69 68/68/68 66/66/66
f 69/69/69 67/67/67 70/70/70
f 71/71/71 68/68/68 69/69/69
f 72/72/72 57/57/57 65/65/65
f 59/59/59 57/57/57 72/72/72
f 73/73/73 65/65/65 68/68/68
f 73/73/73 72/72/72 65/65/65
f 68/68/68 71/71/71 73/73/73
f 74/74/74 59/59/59 72/72/72
f 74/74/74 72/72/72 73/73/73
f 75/75/75 73/73/73 71/71/71
f 75/75/75 74/74/74 73/73/73
f 76/76/76 59/59/59 74/74/74
f 76/76/76 77/77/77 59/59/59
f 78/78/78 74/74/74 75/75/75
f 78/78/78 76/76/76 74/74/74
f 75/75/75 71/71/71 79/79/79
f 78/78/78 75/75/75 79/79/79
f 80/80/80 79/79/79 71/71/71
f 80/80/80 71/71/71 81/81/81
f 78/78/78 79/79/79 82/82/82
f 83/83/83 78/78/78 82/82/82
f 83/83/83 76/76/76 78/78/78
f 83/83/83 82/82/82 84/84/84
f 83/83/83 84/84/84 85/85/85
f 83/83/83 86/86/86 76/76/76
f 86/86/86 77/77/77 76/76/76
f 85/85/85 86/86/86 83/83/83
f 86/86/86 87/87/87 77/77/77
f 87/87/87 88/88/88 77/77/77
f 85/85/85 89/89/89 86/86/86
f 89/89/89 87/87/87 86/86/86
f 90/90/90 89/89/89 85/85/85
f 90/90/90 91/91/91 89/89/89
f 91/91/91 92/92/92 89/89/89
f 89/89/89 92/92/92 87/87/87
f 91/91/91 93/93/93 92/92/92
f 87/87/87 94/94/94 88/88/88
f 92/92/92 94/94/94 87/87/87
f 95/95/95 88/88/88 94/94/94
f 95/95/95 96/96/96 88/88/88
f 96/96/96 95/95/95 97/97/97
f 97/97/97 95/95/95 98/98/98
f 95/95/95 99/99/99 98/98/98
f 93/93/93 100/100/100 92/92/92
f 92/92/92 100/100/100 94/94/94
f 100/100/100 95/95/95 94/94/94
f 93/93/93 101/101/101 100/100/100
f 101/101/101 102/102/102 100/100/100
f 100/100/100 102/102/102 95/95/95
f 101/101/101 103/103/103 102/102/102
f 102/102/102 103/103/103 104/104/104
f 102/102/102 104/104/104 105/105/105
f 105/105/105 95/95/95 102/102/102
f 95/95/95 106/106/106 99/99/99
f 106/106/106 107/107/107 99/99/99
f 106/106/106 108/108/108 107/107/107
f 108/108/108 109/109/109 107/107/107
f 108/108/108 110/110/110 109/109/109
f 111/111/111 113/113/113 112/112/112
f 111/111/111 114/114/114 113/113/113
f 111/111/111 115/115/115 114/114/114
f 116/116/116 115/115/115 111/111/111
f 116/116/116 117/117/117 115/115/115
f 113/113/113 114/114/114 118/118/118
f 113/113/113 118/118/118 119/119/119
f 114/114/114 115/115/115 120/120/120
f 120/120/120 115/115/115 117/117/117
f 114/114/114 120/120/120 118/118/118
f 119/119/119 118/118/118 121/121/121
f 122/122/122 119/119/119 121/121/121
f 122/122/122 121/121/121 123/123/123
f 124/124/124 122/122/122 123/123/123
f 120/120/120 117/117/117 125/125/125
f 118/118/118 120/120/120 126/126/126
f 126/126/126 120/120/120 125/125/125
f 118/118/118 126/126/126 127/127/127
f 118/118/118 127/127/127 128/128/128
f 126/126/126 125/125/125 129/129/129
f 125/125/125 130/130/130 129/129/129
f 117/117/117 130/130/130 125/125/125
f 117/117/117 131/131/131 130/130/130
f 131/131/131 132/132/132 130/130/130
f 133/133/133 135/135/135 134/134/134
f 133/133/133 134/134/134 136/136/136
f 136/136/136 134/134/134 137/137/137
f 136/136/136 137/137/137 138/138/138
f 138/138/138 137/137/137 139/139/139
f 138/138/138 139/139/139 140/140/140
f 140/140/140 139/139/139 141/141/141
f 140/140/140 141/141/141 142/142/142
f 142/142/142 141/141/141 143/143/143
f 142/142/142 143/143/143 144/144/144
f 144/144/144 143/143/143 145/145/145
f 146/146/146 133/133/133 136/136/136
f 147/147/147 136/136/136 138/138/138
f 146/146/146 136/136/136 147/147/147
f 148/148/148 138/138/138 140/140/140
f 147/147/147 138/138/138 148/148/148
f 149/149/149 140/140/140 142/142/142
f 148/148/148 140/140/140 149/149/149
f 150/150/150 142/142/142 144/144/144
f 149/149/149 142/142/142 150/150/150
f 144/144/144 145/145/145 151/151/151
f 150/150/150 144/144/144 151/151/151
f 152/152/152 133/133/133 146/146/146
f 152/152/152 153/153/153 133/133/133
f 152/152/152 154/154/154 153/153/153
f 153/153/153 154/154/154 155/155/155
f 152/152/152 156/156/156 154/154/154
f 157/157/157 156/156/156 152/152/152
f 157/157/157 152/152/152 146/146/146
f 157/157/157 158/158/158 156/156/156
f 157/157/157 146/146/146 159/159/159
f 159/159/159 146/146/146 147/147/147
f 160/160/160 158/158/158 157/157/157
f 160/160/160 157/157/157 159/159/159
f 160/160/160 161/161/161 158/158/158
f 159/159/159 147/147/147 162/162/162
f 162/162/162 147/147/147 148/148/148
f 160/160/160 159/159/159 163/163/163
f 163/163/163 159/159/159 162/162/162
f 162/162/162 148/148/148 164/164/164
f 164/164/164 148/148/148 149/149/149
f 165/165/165 161/161/161 160/160/160
f 165/165/165 160/160/160 163/163/163
f 163/163/163 162/162/162 166/166/166
f 166/166/166 162/162/162 164/164/164
f 164/164/164 149/149/149 167/167/167
f 167/167/167 149/149/149 150/150/150
f 165/165/165 163/163/163 168/168/168
f 168/168/168 163/163/163 166/166/166
f 166/166/166 164/164/164 169/169/169
f 169/169/169 164/164/164 167/167/167
f 167/167/167 150/150/150 170/170/170
f 170/170/170 150/150/150 151/151/151
f 168/168/168 166/166/166 171/171/171
f 171/171/171 166/166/166 169/169/169
f 169/169/169 167/167/167 172/172/172
f 172/172/172 167/167/167 170/170/170
f 171/171/171 169/169/169 173/173/173
f 173/173/173 169/169/169 172/172/172
f 174/174/174 165/165/165 168/168/168
f 175/175/175 168/168/168 171/171/171
f 174/174/174 168/168/168 175/175/175
f 176/176/176 171/171/171 173/173/173
f 175/175/175 171/171/171 176/176/176
f 174/174/174 177/177/177 165/165/165
f 165/165/165 177/177/177 161/161/161
f 161/161/161 177/177/177 178/178/178
f 161/161/161 178/178/178 179/179/179
f 177/177/177 180/180/180 178/178/178
f 177/177/177 181/181/181 180/180/180
f 174/174/174 181/181/181 177/177/177
f 181/181/181 182/182/182 180/180/180
f 183/183/183 174/174/174 175/175/175
f 183/183/183 181/181/181 174/174/174
f 181/181/181 184/184/184 182/182/182
f 183/183/183 184/184/184 181/181/181
f 182/182/182 184/184/184 185/185/185
f 184/184/184 186/186/186 185/185/185
f 183/183/183 175/175/175 187/187/187
f 187/187/187 184/184/184 183/183/183
f 187/187/187 175/175/175 176/176/176
f 184/184/184 188/188/188 186/186/186
f 187/187/187 188/188/188 184/184/184
f 188/188/188 189/189/189 186/186/186
f 187/187/187 176/176/176 190/190/190
f 190/190/190 188/188/188 187/187/187
f 188/188/188 191/191/191 189/189/189
f 190/190/190 191/191/191 188/188/188
f 191/191/191 192/192/192 189/189/189
f 190/190/190 176/176/176 193/193/193
f 176/176/176 173/173/173 193/193/193
f 194/194/194 191/191/191 190/190/190
f 190/190/190 193/193/193 194/194/194
f 191/191/191 195/195/195 192/192/192
f 195/195/195 196/196/196 192/192/192
f 193/193/193 173/173/173 197/197/197
f 173/173/173 172/172/172 197/197/197
f 191/191/191 198/198/198 195/195/195
f 194/194/194 198/198/198 191/191/191
f 195/195/195 199/199/199 196/196/196
f 198/198/198 199/199/199 195/195/195
f 199/199/199 200/200/200 196/196/196
f 194/194/194 193/193/193 201/201/201
f 193/193/193 197/197/197 201/201/201
f 197/197/197 172/172/172 202/202/202
f 172/172/172 170/170/170 202/202/202
f 203/203/203 198/198/198 194/194/194
f 194/194/194 201/201/201 203/203/203
f 198/198/198 204/204/204 199/199/199
f 203/203/203 204/204/204 198/198/198
f 199/199/199 205/205/205 200/200/200
f 204/204/204 205/205/205 199/199/199
f 205/205/205 206/206/206 200/200/200
f 201/201/201 197/197/197 207/207/207
f 197/197/197 202/202/202 207/207/207
f 202/202/202 170/170/170 208/208/208
f 170/170/170 151/151/151 208/208/208
f 203/203/203 201/201/201 209/209/209
f 201/201/201 207/207/207 209/209/209
f 210/210/210 204/204/204 203/203/203
f 203/203/203 209/209/209 210/210/210
f 204/204/204 211/211/211 205/205/205
f 210/210/210 211/211/211 204/204/204
f 205/205/205 212/212/212 206/206/206
f 211/211/211 212/212/212 205/205/205
f 212/212/212 213/213/213 206/206/206
f 207/207/207 202/202/202 214/214/214
f 202/202/202 208/208/208 214/214/214
f 151/151/151 215/215/215 208/208/208
f 151/151/151 145/145/145 215/215/215
f 215/215/215 145/145/145 216/216/216
f 215/215/215 216/216/216 217/217/217
f 208/208/208 215/215/215 218/218/218
f 218/218/218 215/215/215 217/217/217
f 208/208/208 218/218/218 214/214/214
f 214/214/214 218/218/218 219/219/219
f 218/218/218 217/217/217 220/220/220
f 219/219/219 218/218/218 220/220/220
f 219/219/219 220/220/220 221/221/221
f 222/222/222 219/219/219 221/221/221
f 207/207/207 214/214/214 223/223/223
f 214/214/214 219/219/219 223/223/223
f 209/209/209 207/207/207 223/223/223
f 224/224/224 219/219/219 222/222/222
f 224/224/224 222/222/222 225/225/225
f 209/209/209 223/223/223 226/226/226
f 210/210/210 209/209/209 226/226/226
f 223/223/223 219/219/219 227/227/227
f 227/227/227 219/219/219 224/224/224
f 223/223/223 227/227/227 226/226/226
f 228/228/228 224/224/224 225/225/225
f 227/227/227 224/224/224 228/228/228
f 228/228/228 225/225/225 213/213/213
f 212/212/212 228/228/228 213/213/213
f 229/229/229 227/227/227 228/228/228
f 229/229/229 228/228/228 212/212/212
f 226/226/226 227/227/227 229/229/229
f 211/211/211 229/229/229 212/212/212
f 230/230/230 211/211/211 210/210/210
f 210/210/210 226/226/226 230/230/230
f 226/226/226 229/229/229 230/230/230
f 230/230/230 229/229/229 211/211/211
f 231/231/231 233/233/233 232/232/232
f 231/231/231 234/234/234 233/233/233
f 234/234/234 235/235/235 233/233/233
f 234/234/234 236/236/236 235/235/235
f 236/236/236 237/237/237 235/235/235
f 236/236/236 238/238/238 237/237/237
f 239/239/239 238/238/238 236/236/236
f 239/239/239 240/240/240 238/238/238
f 241/241/241 236/236/236 234/234/234
f 241/241/241 239/239/239 236/236/236
f 242/242/242 234/234/234 231/231/231
f 242/242/242 241/241/241 234/234/234
f 243/243/243 242/242/242 231/231/231
f 243/243/243 231/231/231 244/244/244
f 245/245/245 242/242/242 243/243/243
f 245/245/245 246/246/246 242/242/242
f 246/246/246 241/241/241 242/242/242
f 247/247/247 246/246/246 245/245/245
f 248/248/248 239/239/239 241/241/241
f 246/246/246 248/248/248 241/241/241
f 247/247/247 249/249/249 246/246/246
f 249/249/249 248/248/248 246/246/246
f 250/250/250 249/249/249 247/247/247
f 251/251/251 240/240/240 239/239/239
f 248/248/248 251/251/251 239/239/239
f 250/250/250 252/252/252 249/249/249
f 253/253/253 252/252/252 250/250/250
f 253/253/253 254/254/254 252/252/252
f 249/249/249 255/255/255 248/248/248
f 252/252/252 255/255/255 249/249/249
f 255/255/255 251/251/251 248/248/248
f 254/254/254 256/256/256 252/252/252
f 252/252/252 256/256/256 255/255/255
f 254/254/254 257/257/257 256/256/256
f 251/251/251 258/258/258 240/240/240
f 258/258/258 259/259/259 240/240/240
f 258/258/258 260/260/260 259/259/259
f 258/258/258 261/261/261 260/260/260
f 255/255/255 262/262/262 251/251/251
f 256/256/256 262/262/262 255/255/255
f 262/262/262 258/258/258 251/251/251
f 257/257/257 263/263/263 256/256/256
f 256/256/256 263/263/263 262/262/262
f 262/262/262 264/264/264 258/258/258
f 261/261/261 258/258/258 264/264/264
f 263/263/263 264/264/264 262/262/262
f 257/257/257 265/265/265 263/263/263
f 266/266/266 265/265/265 257/257/257
f 266/266/266 267/267/267 265/265/265
f 263/263/263 268/268/268 264/264/264
f 265/265/265 268/268/268 263/263/263
f 267/267/267 269/269/269 265/265/265
f 265/265/265 269/269/269 268/268/268
f 267/267/267 270/270/270 269/269/269
f 268/268/268 271/271/271 264/264/264
f 261/261/261 264/264/264 271/271/271
f 269/269/269 272/272/272 268/268/268
f 268/268/268 272/272/272 271/271/271
f 270/270/270 273/273/273 269/269/269
f 269/269/269 273/273/273 272/272/272
f 270/270/270 274/274/274 273/273/273
f 275/275/275 271/271/271 272/272/272
f 276/276/276 275/275/275 272/272/272
f 276/276/276 272/272/272 273/273/273
f 277/277/277 276/276/276 273/273/273
f 277/277/277 273/273/273 274/274/274
f 278/278/278 277/277/277 274/274/274
f 278/278/278 274/274/274 279/279/279
f 280/280/280 278/278/278 279/279/279
f 280/280/280 279/279/279 281/281/281
f 282/282/282 280/280/280 281/281/281
f 282/282/282 281/281/281 283/283/283
f 275/275/275 284/284/284 271/271/271
f 261/261/261 271/271/271 284/284/284
f 284/284/284 285/285/285 261/261/261
f 285/285/285 284/284/284 286/286/286
f 285/285/285 286/286/286 287/287/287
f 261/261/261 285/285/285 288/288/288
f 261/261/261 288/288/288 289/289/289
f 290/290/290 261/261/261 289/289/289
f 291/291/291 290/290/290 289/289/289
f 288/288/288 292/292/292 289/289/289
f 291/291/291 289/289/289 292/292/292
f 288/288/288 293/293/293 292/292/292
f 294/294/294 291/291/291 292/292/292
f 293/293/293 294/294/294 292/292/292
f 294/294/294 295/295/295 291/291/291
f 293/293/293 296/296/296 294/294/294
f 294/294/294 296/296/296 297/297/297
f 296/296/296 298/298/298 297/297/297
f 296/296/296 299/299/299 298/298/298
f 300/300/300 302/302/302 301/301/301
f 300/300/300 301/301/301 303/303/303
f 304/304/304 300/300/300 303/303/303
f 303/303/303 301/301/301 305/305/305
f 304/304/304 303/303/303 306/306/306
f 307/307/307 304/304/304 306/306/306
f 303/303/303 305/305/305 308/308/308
f 306/306/306 303/303/303 308/308/308
f 308/308/308 305/305/305 309/309/309
f 307/307/307 306/306/306 310/310/310
f 311/311/311 307/307/307 310/310/310
f 308/308/308 309/309/309 312/312/312
f 312/312/312 309/309/309 313/313/313
f 312/312/312 313/313/313 314/314/314
f 306/306/306 308/308/308 315/315/315
f 315/315/315 308/308/308 312/312/312
f 310/310/310 306/306/306 315/315/315
f 316/316/316 312/312/312 314/314/314
f 315/315/315 312/312/312 316/316/316
f 316/316/316 314/314/314 317/317/317
f 311/311/311 310/310/310 318/318/318
f 319/319/319 311/311/311 318/318/318
f 310/310/310 315/315/315 320/320/320
f 320/320/320 315/315/315 316/316/316
f 318/318/318 310/310/310 320/320/320
f 321/321/321 316/316/316 317/317/317
f 320/320/320 316/316/316 321/321/321
f 321/321/321 317/317/317 322/322/322
f 318/318/318 320/320/320 323/323/323
f 319/319/319 318/318/318 323/323/323
f 323/323/323 320/320/320 321/321/321
f 324/324/324 321/321/321 322/322/322
f 323/323/323 321/321/321 324/324/324
f 324/324/324 322/322/322 325/325/325
f 319/319/319 323/323/323 326/326/326
f 326/326/326 323/323/323 324/324/324
f 327/327/327 319/319/319 326/326/326
f 328/328/328 327/327/327 326/326/326
f 329/329/329 324/324/324 325/325/325
f 326/326/326 324/324/324 329/329/329
f 328/328/328 326/326/326 329/329/329
f 329/329/329 325/325/325 330/330/330
f 328/328/328 329/329/329 330/330/330
f 328/328/328 330/330/330 331/331/331
f 332/332/332 334/334/334 333/333/333
f 332/332/332 335/335/335 334/334/334
f 335/335/335 336/336/336 334/334/334
f 335/335/335 337/337/337 336/336/336
f 336/336/336 337/337/337 338/338/338
f 338/338/338 339/339/339 336/336/336
f 336/336/336 339/339/339 340/340/340
f 336/336/336 340/340/340 341/341/341
f 340/340/340 342/342/342 341/341/341
f 340/340/340 343/343/343 342/342/342
f 343/343/343 344/344/344 342/342/342
f 342/342/342 344/344/344 345/345/345
f 346/346/346 335/335/335 332/332/332
f 346/346/346 347/347/347 335/335/335
f 346/346/346 332/332/332 348/348/348
f 348/348/348 332/332/332 349/349/349
f 350/350/350 347/347/347 346/346/346
f 350/350/350 351/351/351 347/347/347
f 352/352/352 346/346/346 348/348/348
f 352/352/352 353/353/353 346/346/346
f 353/353/353 350/350/350 346/346/346
f 354/354/354 352/352/352 348/348/348
f 353/353/353 352/352/352 354/354/354
f 348/348/348 349/349/349 355/355/355
f 354/354/354 348/348/348 355/355/355
f 353/353/353 354/354/354 356/356/356
f 353/353/353 357/357/357 350/350/350
f 357/357/357 353/353/353 356/356/356
f 358/358/358 354/354/354 355/355/355
f 356/356/356 354/354/354 358/358/358
f 359/359/359 351/351/351 350/350/350
f 357/357/357 360/360/360 350/350/350
f 350/350/350 361/361/361 359/359/359
f 357/357/357 362/362/362 360/360/360
f 363/363/363 360/360/360 362/362/362
f 362/362/362 364/364/364 363/363/363
f 357/357/357 356/356/356 365/365/365
f 362/362/362 357/357/357 365/365/365
f 362/362/362 366/366/366 364/364/364
f 366/366/366 367/367/367 364/364/364
f 356/356/356 358/358/358 368/368/368
f 365/365/365 356/356/356 368/368/368
f 362/362/362 365/365/365 369/369/369
f 366/366/366 362/362/362 369/369/369
f 366/366/366 370/370/370 367/367/367
f 370/370/370 371/371/371 367/367/367
f 361/361/361 372/372/372 359/359/359
f 361/361/361 373/373/373 372/372/372
f 372/372/372 373/373/373 374/374/374
f 365/365/365 368/368/368 375/375/375
f 369/369/369 365/365/365 375/375/375
f 366/366/366 369/369/369 376/376/376
f 370/370/370 366/366/366 376/376/376
f 370/370/370 377/377/377 371/371/371
f 377/377/377 378/378/378 371/371/371
f 377/377/377 370/370/370 379/379/379
f 370/370/370 376/376/376 379/379/379
f 377/377/377 380/380/380 378/378/378
f 377/377/377 379/379/379 380/380/380
f 380/380/380 381/381/381 378/378/378
f 376/376/376 369/369/369 382/382/382
f 369/369/369 375/375/375 382/382/382
f 379/379/379 376/376/376 383/383/383
f 376/376/376 382/382/382 383/383/383
f 380/380/380 384/384/384 381/381/381
f 384/384/384 385/385/385 381/381/381
f 380/380/380 379/379/379 386/386/386
f 379/379/379 383/383/383 386/386/386
f 380/380/380 386/386/386 384/384/384
f 382/382/382 375/375/375 387/387/387
f 383/383/383 382/382/382 388/388/388
f 382/382/382 387/387/387 388/388/388
f 386/386/386 383/383/383 389/389/389
f 383/383/383 388/388/388 389/389/389
f 384/384/384 386/386/386 390/390/390
f 386/386/386 389/389/389 390/390/390
f 384/384/384 391/391/391 385/385/385
f 384/384/384 390/390/390 391/391/391
f 375/375/375 392/392/392 387/387/387
f 375/375/375 368/368/368 392/392/392
f 368/368/368 393/393/393 392/392/392
f 368/368/368 358/358/358 393/393/393
f 393/393/393 358/358/358 394/394/394
f 358/358/358 355/355/355 394/394/394
f 355/355/355 395/395/395 394/394/394
f 355/355/355 349/349/349 395/395/395
f 349/349/349 396/396/396 395/395/395
f 349/349/349 397/397/397 396/396/396
f 395/395/395 396/396/396 398/398/398
f 395/395/395 398/398/398 399/399/399
f 394/394/394 395/395/395 399/399/399
f 399/399/399 398/398/398 400/400/400
f 393/393/393 394/394/394 401/401/401
f 394/394/394 399/399/399 401/401/401
f 399/399/399 400/400/400 402/402/402
f 401/401/401 399/399/399 402/402/402
f 402/402/402 400/400/400 403/403/403
f 392/392/392 393/393/393 404/404/404
f 404/404/404 393/393/393 401/401/401
f 402/402/402 403/403/403 405/405/405
f 405/405/405 403/403/403 406/406/406
f 401/401/401 402/402/402 407/407/407
f 404/404/404 401/401/401 407/407/407
f 407/407/407 402/402/402 405/405/405
f 392/392/392 404/404/404 408/408/408
f 387/387/387 392/392/392 408/408/408
f 405/405/405 406/406/406 409/409/409
f 409/409/409 406/406/406 410/410/410
f 411/411/411 404/404/404 407/407/407
f 408/408/408 404/404/404 411/411/411
f 407/407/407 405/405/405 412/412/412
f 411/411/411 407/407/407 412/412/412
f 412/412/412 405/405/405 409/409/409
f 413/413/413 411/411/411 412/412/412
f 408/408/408 411/411/411 414/414/414
f 387/387/387 408/408/408 415/415/415
f 415/415/415 408/408/408 414/414/414
f 388/388/388 387/387/387 415/415/415
f 413/413/413 412/412/412 416/416/416
f 412/412/412 409/409/409 416/416/416
f 417/417/417 413/413/413 416/416/416
f 409/409/409 410/410/410 418/418/418
f 416/416/416 409/409/409 418/418/418
f 418/418/418 410/410/410 419/419/419
f 415/415/415 414/414/414 420/420/420
f 420/420/420 414/414/414 417/417/417
f 388/388/388 415/415/415 421/421/421
f 421/421/421 415/415/415 420/420/420
f 389/389/389 388/388/388 421/421/421
f 417/417/417 416/416/416 422/422/422
f 416/416/416 418/418/418 422/422/422
f 418/418/418 419/419/419 423/423/423
f 422/422/422 418/418/418 423/423/423
f 423/423/423 419/419/419 424/424/424
f 420/420/420 417/417/417 425/425/425
f 425/425/425 417/417/417 422/422/422
f 389/389/389 421/421/421 426/426/426
f 390/390/390 389/389/389 426/426/426
f 421/421/421 420/420/420 427/427/427
f 427/427/427 420/420/420 425/425/425
f 426/426/426 421/421/421 427/427/427
f 423/423/423 424/424/424 428/428/428
f 428/428/428 424/424/424 429/429/429
f 422/422/422 423/423/423 430/430/430
f 425/425/425 422/422/422 430/430/430
f 430/430/430 423/423/423 428/428/428
f 390/390/390 426/426/426 431/431/431
f 391/391/391 390/390/390 431/431/431
f 426/426/426 427/427/427 432/432/432
f 431/431/431 426/426/426 432/432/432
f 427/427/427 425/425/425 433/433/433
f 433/433/433 425/425/425 430/430/430
f 432/432/432 427/427/427 433/433/433
f 428/428/428 429/429/429 434/434/434
f 434/434/434 429/429/429 435/435/435
f 430/430/430 428/428/428 436/436/436
f 433/433/433 430/430/430 436/436/436
f 436/436/436 428/428/428 434/434/434
f 432/432/432 433/433/433 437/437/437
f 437/437/437 433/433/433 436/436/436
f 431/431/431 432/432/432 438/438/438
f 438/438/438 432/432/432 437/437/437
f 391/391/391 431/431/431 439/439/439
f 439/439/439 431/431/431 438/438/438
f 437/437/437 436/436/436 440/440/440
f 436/436/436 434/434/434 440/440/440
f 438/438/438 437/437/437 441/441/441
f 441/441/441 437/437/437 440/440/440
f 391/391/391 439/439/439 442/442/442
f 391/391/391 442/442/442 385/385/385
f 439/439/439 438/438/438 443/443/443
f 443/443/443 438/438/438 441/441/441
f 439/439/439 444/444/444 442/442/442
f 439/439/439 443/443/443 444/444/444
f 440/440/440 434/434/434 445/445/445
f 440/440/440 445/445/445 446/446/446
f 441/441/441 440/440/440 446/446/446
f 446/446/446 445/445/445 447/447/447
f 443/443/443 441/441/441 448/448/448
f 448/448/448 441/441/441 446/446/446
f 446/446/446 447/447/447 449/449/449
f 448/448/448 446/446/446 449/449/449
f 443/443/443 448/448/448 449/449/449
f 443/443/443 449/449/449 444/444/444
f 449/449/449 447/447/447 450/450/450
f 449/449/449 450/450/450 451/451/451
f 449/449/449 451/451/451 444/444/444
f 451/451/451 450/450/450 452/452/452
f 451/451/451 452/452/452 453/453/453
f 444/444/444 451/451/451 454/454/454
f 444/444/444 454/454/454 442/442/442
f 442/442/442 454/454/454 455/455/455
f 442/442/442 455/455/455 385/385/385
f 385/385/385 455/455/455 456/456/456
f 385/385/385 456/456/456 457/457/457
f 457/457/457 458/458/458 385/385/385
f 459/459/459 458/458/458 457/457/457
f 459/459/459 457/457/457 460/460/460
f 460/460/460 457/457/457 456/456/456
f 461/461/461 459/459/459 460/460/460
f 461/461/461 460/460/460 462/462/462
f 463/463/463 461/461/461 462/462/462
f 460/460/460 456/456/456 464/464/464
f 462/462/462 460/460/460 464/464/464
f 463/463/463 462/462/462 465/465/465
f 374/374/374 463/463/463 465/465/465
f 374/374/374 465/465/465 372/372/372
f 465/465/465 462/462/462 466/466/466
f 462/462/462 464/464/464 466/466/466
f 372/372/372 465/465/465 467/467/467
f 465/465/465 466/466/466 467/467/467
f 372/372/372 467/467/467 468/468/468
f 359/359/359 372/372/372 468/468/468
f 359/359/359 468/468/468 469/469/469
f 359/359/359 469/469/469 351/351/351
f 469/469/469 470/470/470 351/351/351
f 470/470/470 469/469/469 471/471/471
f 468/468/468 471/471/471 469/469/469
f 468/468/468 472/472/472 471/471/471
f 467/467/467 472/472/472 468/468/468
f 467/467/467 473/473/473 472/472/472
f 466/466/466 473/473/473 467/467/467
f 466/466/466 474/474/474 473/473/473
f 464/464/464 474/474/474 466/466/466
f 464/464/464 475/475/475 474/474/474
f 456/456/456 475/475/475 464/464/464
f 456/456/456 476/476/476 475/475/475
f 476/476/476 477/477/477 475/475/475
f 476/476/476 478/478/478 477/477/477
f 455/455/455 476/476/476 456/456/456
f 479/479/479 478/478/478 476/476/476
f 455/455/455 479/479/479 476/476/476
f 479/479/479 480/480/480 478/478/478
f 481/481/481 479/479/479 455/455/455
f 455/455/455 482/482/482 481/481/481
f 483/483/483 480/480/480 479/479/479
f 481/481/481 483/483/483 479/479/479
f 483/483/483 484/484/484 480/480/480
f 482/482/482 485/485/485 481/481/481
f 485/485/485 483/483/483 481/481/481
f 482/482/482 486/486/486 485/485/485
f 487/487/487 484/484/484 483/483/483
f 485/485/485 487/487/487 483/483/483
f 487/487/487 488/488/488 484/484/484
f 486/486/486 489/489/489 485/485/485
f 489/489/489 487/487/487 485/485/485
f 486/486/486 490/490/490 489/489/489
f 491/491/491 488/488/488 487/487/487
f 489/489/489 491/491/491 487/487/487
f 491/491/491 492/492/492 488/488/488
f 490/490/490 493/493/493 489/489/489
f 493/493/493 491/491/491 489/489/489
f 490/490/490 494/494/494 493/493/493
f 493/493/493 435/435/435 491/491/491
f 493/493/493 494/494/494 495/495/495
f 496/496/496 435/435/435 493/493/493
f 493/493/493 495/495/495 496/496/496
f 434/434/434 435/435/435 496/496/496
f 495/495/495 434/434/434 496/496/496
f 497/497/497 499/499/499 498/498/498
f 497/497/497 498/498/498 500/500/500
f 501/501/501 500/500/500 498/498/498
f 500/500/500 501/501/501 502/502/502
f 500/500/500 502/502/502 503/503/503
f 502/502/502 501/501/501 504/504/504
f 503/503/503 502/502/502 505/505/505
f 506/506/506 502/502/502 504/504/504
f 505/505/505 502/502/502 506/506/506
f 506/506/506 504/504/504 507/507/507
f 506/506/506 507/507/507 508/508/508
f 509/509/509 505/505/505 506/506/506
f 506/506/506 508/508/508 509/509/509
f 509/509/509 510/510/510 505/505/505
f 509/509/509 508/508/508 511/511/511
f 512/512/512 510/510/510 509/509/509
f 509/509/509 511/511/511 512/512/512
f 512/512/512 513/513/513 510/510/510
f 514/514/514 512/512/512 511/511/511
f 512/512/512 515/515/515 513/513/513
f 514/514/514 516/516/516 512/512/512
f 512/512/512 516/516/516 515/515/515
f 517/517/517 516/516/516 514/514/514
f 516/516/516 517/517/517 515/515/515
f 518/518/518 520/520/520 519/519/519
f 518/518/518 521/521/521 520/520/520
f 521/521/521 522/522/522 520/520/520
f 521/521/521 523/523/523 522/522/522
f 524/524/524 526/526/526 525/525/525
f 524/524/524 527/527/527 526/526/526
f 528/528/528 527/527/527 524/524/524
f 528/528/528 529/529/529 527/527/527
f 530/530/530 529/529/529 528/528/528
f 531/531/531 529/529/529 530/530/530
f 527/527/527 529/529/529 531/531/531
f 527/527/527 531/531/531 532/532/532
f 526/526/526 527/527/527 532/532/532
f 526/526/526 532/532/532 533/533/533
f 534/534/534 526/526/526 533/533/533
f 534/534/534 533/533/533 535/535/535
f 536/536/536 538/538/538 537/537/537
f 536/536/536 537/537/537 539/539/539
f 539/539/539 537/537/537 540/540/540
f 540/540/540 537/537/537 541/541/541
f 540/540/540 541/541/541 542/542/542
f 539/539/539 540/540/540 543/543/543
f 544/544/544 540/540/540 542/542/542
f 543/543/543 540/540/540 545/545/545
f 544/544/544 545/545/545 540/540/540
f 543/543/543 545/545/545 546/546/546
f 547/547/547 545/545/545 544/544/544
f 546/546/546 545/545/545 547/547/547
f 547/547/547 544/544/544 548/548/548
f 546/546/546 547/547/547 549/549/549
f 550/550/550 547/547/547 548/548/548
f 549/549/549 547/547/547 550/550/550
f 551/551/551 553/553/553 552/552/552
f 551/551/551 554/554/554 553/553/553
f 554/554/554 555/555/555 553/553/553
f 554/554/554 556/556/556 555/555/555
f 555/555/555 556/556/556 557/557/557
f 557/557/557 558/558/558 555/555/555
f 558/558/558 553/553/553 555/555/555
f 558/558/558 559/559/559 553/553/553
f 560/560/560 562/562/562 561/561/561
f 560/560/560 563/563/563 562/562/562
f 564/564/564 563/563/563 560/560/560
f 563/563/563 565/565/565 562/562/562
f 564/564/564 566/566/566 563/563/563
f 563/563/563 567/567/567 565/565/565
f 566/566/566 567/567/567 563/563/563
f 567/567/567 568/568/568 565/565/565
f 566/566/566 569/569/569 567/567/567
f 567/567/567 570/570/570 568/568/568
f 569/569/569 570/570/570 567/567/567
f 570/570/570 571/571/571 568/568/568
f 569/569/569 572/572/572 570/570/570
f 570/570/570 573/573/573 571/571/571
f 572/572/572 573/573/573 570/570/570
f 573/573/573 574/574/574 571/571/571
f 572/572/572 575/575/575 573/573/573
f 573/573/573 576/576/576 574/574/574
f 575/575/575 576/576/576 573/573/573
f 576/576/576 577/577/577 574/574/574
f 575/575/575 578/578/578 576/576/576
f 577/577/577 576/576/576 579/579/579
f 579/579/579 576/576/576 578/578/578
f 580/580/580 582/582/582 581/581/581
f 580/580/580 583/583/583 582/582/582
f 584/584/584 586/586/586 585/585/585
f 587/587/587 584/584/584 585/585/585
f 584/584/584 588/588/588 586/586/586
f 587/587/587 589/589/589 584/584/584
f 590/590/590 588/588/588 584/584/584
f 584/584/584 589/589/589 591/591/591
f 590/590/590 584/584/584 592/592/592
f 584/584/584 591/591/591 592/592/592
f 590/590/590 592/592/592 593/593/593
f 591/591/591 593/593/593 592/592/592
