mtllib P_RockHexic_RockSlanted10.mtl
v -0.5454203 8.674429 -3.275226 0 0.7882353 0
v -0.4832742 8.777909 -3.372985 0 0.772549 0
v 1.492399 8.182382 -3.371749 0 0.7176471 0
v 2.848527 6.60193 1.569479 0 0.5294118 0
v 3.880433 -10.11498 3.27193 0 0 0
v 3.880433 6.077365 3.27193 0 0.5960785 0
v 2.848527 -9.486523 1.569479 0 0.1098039 0
v 0.8582164 7.126587 1.611899 0 0.1019608 0
v 2.793528 6.704185 1.669609 0 0.5411765 0
v 0.9136612 7.199686 1.709675 0 0.1372549 0
v 0.8582164 -8.858205 1.611899 0 0.345098 0
v -0.1002034 7.126587 3.35677 0 0.1921569 0
v -0.1002034 -8.858205 3.35677 0 0.9254902 0
v 0.9316875 6.60193 5.059221 0 0.1686275 0
v -0.1002034 -8.858205 3.35677 0 0.9254902 0
v -0.1002034 7.126587 3.35677 0 0.1921569 0
v 0.9316875 -9.486523 5.059221 0 0 0
v 2.922013 6.077365 5.0168 0 0.4823529 0
v 2.922013 -10.11498 5.0168 0 0.3490196 0
v 3.880433 6.077365 3.27193 0 0.5960785 0
v 3.880433 -10.11498 3.27193 0 0 0
v 1.71517 -8.055139 5.090889 0 0.09019608 0
v 0.8847175 5.4381 6.854841 0 0.254902 0
v 1.879525 5.438128 5.129804 0 0.227451 0
v 0.7067324 -8.051877 6.807013 0 0 0
v -1.128649 6.066307 6.851793 0 0.1411765 0
v -1.284622 -7.414028 6.792165 0 0.6509804 0
v -2.147233 6.69536 5.123744 0 0.6509804 0
v -2.267176 -6.780242 5.060701 0 0.6784314 0
v -2.267176 -6.780242 5.060701 0 0.6784314 0
v -1.152403 6.695912 3.398679 0 0.2313726 0
v -2.147233 6.69536 5.123744 0 0.6509804 0
v -1.259023 -6.78396 3.344082 0 0 0
v 0.7319933 -7.420976 3.358929 0 0 0
v 0.8608611 6.067024 3.401553 0 0.2784314 0
v 1.71517 -8.055139 5.090889 0 0.09019608 0
v 1.879525 5.438128 5.129804 0 0.227451 0
v -0.6845692 -7.925843 4.603959 0 0.9372549 0
v -1.847686 6.087726 6.479086 0 0 0
v -0.6845692 6.203388 4.603959 0 0.1058824 0
v -1.847686 -7.925843 6.479086 0 0.6039216 0
v -4.053145 6.798952 6.409365 0 0 0
v -4.053145 -7.297403 6.409365 0 0.572549 0
v -1.895081 6.2319 6.379471 0 0 0
v -3.993387 6.908284 6.313025 0 0 0
v -5.095504 -6.669072 4.464519 0 0.5411765 0
v -5.095504 7.61056 4.464519 0 0.6588235 0
v -1.617888 8.07653 0.9272873 0 0.9960784 0
v -1.617888 -7.322151 0.9272873 0 0.827451 0
v -2.657821 -7.322151 2.728493 0 0.9686275 0
v -2.657821 8.07653 2.728493 0 0.7607843 0
v -4.73767 -6.693703 2.728495 0 0.6980392 0
v -4.73767 8.704855 2.728495 0 0.7372549 0
v -5.777602 -6.065379 0.92729 0 0.2352941 0
v -5.777602 9.333302 0.92729 0 0 0
v -3.27156 9.77697 -3.798731 0 0.2588235 0
v -2.207732 -7.026571 -2.011535 0 0.8705882 0
v -2.207732 9.148645 -2.011535 0 0.8 0
v -3.27156 -6.398123 -3.798731 0 0.7176471 0
v -5.351226 10.40542 -3.771033 0 0.2862745 0
v -3.327188 9.8799 -3.699347 0 0.1882353 0
v -5.297838 10.47535 -3.673101 0 0.3607843 0
v -5.351226 -5.769799 -3.771033 0 0 0
v -6.36708 10.40542 -1.956139 0 0 0
v -6.36708 -5.769799 -1.956139 0 0.2862745 0
v -5.303252 9.77697 -0.1689422 0 0.6588235 0
v -6.36708 -5.769799 -1.956139 0 0.2862745 0
v -6.36708 10.40542 -1.956139 0 0 0
v -5.303252 -6.398123 -0.1689422 0 0.2627451 0
v -3.223586 9.148645 -0.1966402 0 0.9411765 0
v -3.223586 -7.026571 -0.1966402 0 0.5803922 0
v -2.207732 9.148645 -2.011535 0 0.8 0
v -2.207732 -7.026571 -2.011535 0 0.8705882 0
v -0.4299764 8.485684 -5.310514 0 0.9411765 0
v 0.5038921 -5.649545 -3.692993 0 0 0
v 0.5038921 7.857376 -3.692993 0 0.3764706 0
v -0.4299764 -5.021082 -5.310514 0 0.8235294 0
v -2.297729 9.114146 -5.310513 0 0.9215686 0
v -2.297729 -4.392773 -5.310513 0 0.7058824 0
v -3.231612 9.114146 -3.692991 0 0.4941176 0
v -3.231612 -4.392773 -3.692991 0 0.6666667 0
v -2.297729 8.485684 -2.07547 0 0.7803922 0
v -3.231612 -4.392773 -3.692991 0 0.6666667 0
v -3.231612 9.114146 -3.692991 0 0.4941176 0
v -2.297729 -5.021082 -2.07547 0 0 0
v -0.4299764 7.857376 -2.075472 0 0.9294118 0
v -0.4299764 -5.649545 -2.075472 0 0 0
v 0.5038921 7.857376 -3.692993 0 0.3764706 0
v 0.5038921 -5.649545 -3.692993 0 0 0
v 1.074449 6.33419 -4.359536 0 0 0
v 2.079719 8.773799 -6.1657 0 0.6588235 0
v 1.041098 8.773802 -4.363677 0 0.09411765 0
v 2.113069 6.282256 -6.161564 0 0 0
v 4.161847 8.145333 -6.166936 0 0.4 0
v 0.961732 3.992009 -4.370077 0 0 0
v 4.194749 5.773115 -6.162905 0 0 0
v 5.205393 7.517 -4.366142 0 0.254902 0
v 5.237824 5.315916 -4.362216 0 0.5411765 0
v 2.000291 3.958168 -6.17212 0 0 0
v 4.081361 3.62122 -6.17359 0 0 0
v 5.123872 3.318116 -4.373018 0 0.1529412 0
v 1.990329 -4.326488 -6.041744 0 0.6666667 0
v 0.9519049 -4.327956 -4.239661 0 0 0
v 4.070203 -4.950138 -6.043485 0 0.9215686 0
v 5.111654 -5.575401 -4.243149 0 0.9215686 0
v 5.440731 -8.734101 -1.469881 0 0 0
v 4.729907 6.921165 0.3539896 0 0.654902 0
v 5.663533 6.960413 -1.403177 0 0.6588235 0
v 4.493497 -8.734107 0.2810606 0 0.6588235 0
v 2.503556 -8.105671 0.3362986 0 0 0
v 2.746488 7.645051 0.4331979 0 0.3960784 0
v 4.678475 7.066136 0.258696 0 0.7176471 0
v 2.801237 7.75136 0.3338053 0 0.4313726 0
v 1.460863 -7.477362 -1.359412 0 0 0
v 1.6967 8.408392 -1.244755 0 0.1411765 0
v 4.529618 6.548195 0.2454753 0 0.6666667 0
v 5.389604 -12.81846 1.664299 0 0 0
v 5.389604 5.919908 1.664299 0 0.6588235 0
v 4.529618 -12.18998 0.2454753 0 0 0
v 2.870881 7.17668 0.2808281 0 0.4980392 0
v 2.870881 -11.56169 0.2808281 0 0.0627451 0
v 2.072145 7.17668 1.735005 0 0.5137255 0
v 2.072145 -11.56169 1.735005 0 0.6627451 0
v 2.932115 6.548195 3.15383 0 0.5372549 0
v 2.072145 -11.56169 1.735005 0 0.6627451 0
v 2.072145 7.17668 1.735005 0 0.5137255 0
v 2.932115 -12.18998 3.15383 0 0.5686275 0
v 4.590852 5.919908 3.118477 0 0.3411765 0
v 4.590852 -12.81846 3.118477 0 0 0
v 5.389604 5.919908 1.664299 0 0.6588235 0
v 5.389604 -12.81846 1.664299 0 0 0
v 2.084582 8.145333 -2.562891 0 0.7294118 0
v 1.074449 6.33419 -4.359536 0 0 0
v 1.041098 8.773802 -4.363677 0 0.09411765 0
v 2.117509 5.876991 -2.558847 0 0 0
v 4.166764 7.516997 -2.56412 0 0.7803922 0
v 0.961732 3.992009 -4.370077 0 0 0
v 4.199204 5.367853 -2.560186 0 0.2470588 0
v 5.205393 7.517 -4.366142 0 0.254902 0
v 5.237824 5.315916 -4.362216 0 0.5411765 0
v 5.123872 3.318116 -4.373018 0 0.1529412 0
v 2.004243 3.688906 -2.569504 0 0 0
v 0.9519049 -4.327956 -4.239661 0 0 0
v 1.993341 -4.9531 -2.439318 0 0.3333333 0
v 4.085313 3.35196 -2.570976 0 0.1529412 0
v 5.111654 -5.575401 -4.243149 0 0.9215686 0
v 4.073215 -5.576881 -2.441065 0 0.5607843 0
v 2.050084 -5.056013 -2.536464 0 0.4666667 0
v 4.020847 -5.647009 -2.53817 0 0.6117647 0
v -1.897777 7.026534 4.290126 0 0.6156863 0
v -2.871026 -8.357173 2.300855 0 0.9607843 0
v -3.006122 7.701259 2.431666 0 0.7411765 0
v -1.782081 -9.017183 4.186573 0 0.9372549 0
v 0.291068 6.439446 4.259933 0 0.2705882 0
v 0.3956368 -9.67739 4.186378 0 0.9215686 0
v 0.2368574 6.576131 4.163042 0 0.2901961 0
v -1.841946 7.133713 4.191899 0 0.6784314 0
v 1.37157 6.526858 2.371279 0 0.4156863 0
v 1.484695 -9.676595 2.300961 0 0.8470588 0
v 0.6325084 7.603754 2.048168 0 0.1294118 0
v -0.3655995 -9.974289 0.4705248 0 0.9882353 0
v -0.3655995 8.087713 0.4705248 0 0.3176471 0
v 0.6325084 -10.6026 2.048168 0 0.7372549 0
v 2.497834 7.119883 1.972604 0 0.5921569 0
v 2.497834 -11.23106 1.972604 0 0.6705883 0
v 3.365067 7.119883 0.3193966 0 0.6431373 0
v 3.365067 -11.23106 0.3193966 0 0 0
v 2.36696 7.603754 -1.258245 0 0.4117647 0
v 3.365067 -11.23106 0.3193966 0 0 0
v 3.365067 7.119883 0.3193966 0 0.6431373 0
v 2.36696 -10.6026 -1.258245 0 0.9058824 0
v 0.5016338 8.087713 -1.182681 0 0.1490196 0
v 2.313874 7.705939 -1.157047 0 0.2705882 0
v 0.559078 8.161179 -1.08596 0 0.1215686 0
v 0.5016338 -9.974289 -1.182681 0 0.9098039 0
v -0.3655995 8.087713 0.4705248 0 0.3176471 0
v -0.3655995 -9.974289 0.4705248 0 0.9882353 0
v -3.006122 7.701259 2.431666 0 0.7411765 0
v -2.871026 -8.357173 2.300855 0 0.9607843 0
v -1.782253 -8.357139 0.4149417 0 0.8588235 0
v -1.92607 7.788177 0.5430063 0 0.9882353 0
v 0.4003125 -9.016326 0.4230713 0 0.6784314 0
v 0.2632418 7.20086 0.5128363 0 0.1019608 0
v 1.484695 -9.676595 2.300961 0 0.8470588 0
v 1.37157 6.526858 2.371279 0 0.4156863 0
v -1.157277 -7.723863 -2.360756 0 0.7686275 0
v 0.04844163 9.079873 -3.74287 0 0.6156863 0
v -0.9072032 9.079874 -2.138278 0 0.972549 0
v -0.171975 -7.765016 -4.015186 0 0.6588235 0
v 1.753457 -8.519401 -3.989099 0 0.3686275 0
v -0.125741 -7.908229 -3.917908 0 0.6588235 0
v 1.694627 -8.623845 -3.893668 0 0.2666667 0
v 1.915898 8.451303 -3.717551 0 0.7137255 0
v 2.69357 -9.263898 -2.308584 0 0 0
v 2.827697 7.822873 -2.087639 0 0.9764706 0
v -1.726928 7.014859 2.659111 0 0.6901961 0
v -0.6845692 -7.925843 4.603959 0 0.9372549 0
v -0.6845692 6.203388 4.603959 0 0.1058824 0
v -1.726928 -7.297403 2.659111 0 0.1882353 0
v -3.932387 7.710805 2.589392 0 0.6588235 0
v -3.932387 -6.669072 2.589392 0 0.9411765 0
v -5.095504 7.61056 4.464519 0 0.6588235 0
v -5.095504 -6.669072 4.464519 0 0.5411765 0
v 2.526124 6.646818 -5.007681 0 0 0
v 1.540593 8.047975 -3.270057 0 0.7058824 0
v 2.582054 8.047601 -5.072101 0 0.4862745 0
v 1.44864 6.65297 -3.227868 0 0 0
v -0.5454203 8.674429 -3.275226 0 0.7882353 0
v 1.469514 3.35196 -3.281442 0 0 0
v 2.508058 3.318116 -5.083485 0 0 0
v 2.495841 -5.479519 -4.953653 0 0.8823529 0
v 1.457417 -5.480999 -3.151569 0 0.5411765 0
v -0.6891316 6.789126 -3.291531 0 0.2980392 0
v -1.592669 9.304897 -5.077501 0 0.972549 0
v -1.749419 6.919127 -5.135005 0 0.1411765 0
v -1.654082 3.992009 -5.080544 0 0 0
v -0.6115559 3.688906 -3.279971 0 0 0
v -1.663908 -4.232074 -4.950165 0 0.682353 0
v -0.6224567 -4.857218 -3.149821 0 0.2509804 0
v -0.565715 -4.960132 -3.24695 0 0.3764706 0
v 1.405048 -5.551128 -3.248658 0 0.5019608 0
v -1.654082 3.992009 -5.080544 0 0 0
v -1.663908 -4.232074 -4.950165 0 0.682353 0
v -0.625469 -4.230606 -6.752248 0 0.8235294 0
v -0.6155232 3.958168 -6.882587 0 0 0
v -0.671935 6.912979 -6.914816 0 0 0
v -1.749419 6.919127 -5.135005 0 0.1411765 0
v -1.592669 9.304897 -5.077501 0 0.972549 0
v -0.5517615 9.305112 -6.879672 0 0.8352941 0
v 1.465547 3.62122 -6.884058 0 0 0
v 1.454391 -4.854255 -6.753989 0 0 0
v 1.465837 6.776821 -6.851155 0 0 0
v 2.508058 3.318116 -5.083485 0 0 0
v 2.495841 -5.479519 -4.953653 0 0.8823529 0
v 2.526124 6.646818 -5.007681 0 0 0
v 2.582054 8.047601 -5.072101 0 0.4862745 0
v 1.536426 8.674173 -6.875346 0 0.4627451 0
v 1.483353 8.777873 -6.778095 0 0.5450981 0
v -4.73767 9.333302 -0.8739156 0 0.8627451 0
v -5.777602 9.333302 0.92729 0 0 0
v -5.777602 -6.065379 0.92729 0 0.2352941 0
v -4.73767 -6.065379 -0.8739155 0 0.345098 0
v -2.657821 -6.693703 -0.8739169 0 0.7411765 0
v -2.657821 8.704855 -0.873917 0 0.854902 0
v -1.617888 8.07653 0.9272873 0 0.9960784 0
v -1.617888 -7.322151 0.9272873 0 0.827451 0
v 4.398055 -8.105672 -3.165585 0 0.8784314 0
v 5.440731 -8.734101 -1.469881 0 0 0
v 5.663533 6.960413 -1.403177 0 0.6588235 0
v 4.613741 7.723586 -3.081137 0 0.6235294 0
v 2.408113 -7.477358 -3.110353 0 0.6980392 0
v 2.630325 8.447663 -3.001922 0 0.9686275 0
v 1.6967 8.408392 -1.244755 0 0.1411765 0
v 1.460863 -7.477362 -1.359412 0 0 0
v -2.230432 -7.508242 0.5897771 0 0.8980392 0
v -3.102904 -6.87998 -1.08826 0 0.3137255 0
v -3.157336 9.209839 -0.8780348 0 0.9411765 0
v -2.295968 8.581326 0.778617 0 0.9686275 0
v -0.4305955 7.952965 0.860986 0 0.3803922 0
v -0.340979 -8.13665 0.673209 0 0.945098 0
v -0.4776314 8.092697 0.7617006 0 0.454902 0
v -2.235327 8.684858 0.6840865 0 0.9686275 0
v 0.5734396 7.952971 -0.713297 0 0.0627451 0
v 0.6760023 -8.136655 -0.9213946 0 0.5450981 0
v -0.21717 -8.519372 -0.680241 0 0.8862745 0
v -1.157277 -7.723863 -2.360756 0 0.7686275 0
v -0.9072032 9.079874 -2.138278 0 0.972549 0
v 0.004617631 8.451301 -0.5083619 0 0.3411765 0
v 1.708263 -9.263888 -0.6541519 0 0.5921569 0
v 1.872058 7.82287 -0.4830455 0 0.0627451 0
v 2.827697 7.822873 -2.087639 0 0.9764706 0
v 2.69357 -9.263898 -2.308584 0 0 0
v 1.823536 7.962404 -0.5810373 0 0.06666667 0
v 0.06407518 8.554568 -0.6048838 0 0.345098 0
v -3.102904 -6.87998 -1.08826 0 0.3137255 0
v -2.153301 9.209834 -2.452316 0 0.827451 0
v -3.157336 9.209839 -0.8780348 0 0.9411765 0
v -2.085922 -6.879974 -2.682862 0 0.8509804 0
v -0.2879277 8.581326 -2.369949 0 0.9137255 0
v -0.1964699 -7.508242 -2.599428 0 0.8235294 0
v -2.038872 -7.019118 -2.583805 0 0.8784314 0
v -0.2569682 -7.611687 -2.505122 0 0.8235294 0
v 0.6760023 -8.136655 -0.9213946 0 0.5450981 0
v 0.5734396 7.952971 -0.713297 0 0.0627451 0
v 5.663533 6.960413 -1.403177 0 0.6588235 0
v 4.729907 6.921165 0.3539896 0 0.654902 0
v 4.678475 7.066136 0.258696 0 0.7176471 0
v 5.555679 7.103028 -1.392485 0 0.6588235 0
v 4.613741 7.723586 -3.081137 0 0.6235294 0
v 2.801237 7.75136 0.3338053 0 0.4313726 0
v 4.562016 7.825419 -2.980549 0 0.6509804 0
v 2.630325 8.447663 -3.001922 0 0.9686275 0
v 2.684777 8.51065 -2.905436 0 0.972549 0
v 1.807573 8.473751 -1.254255 0 0.1686275 0
v 1.6967 8.408392 -1.244755 0 0.1411765 0
v 2.746488 7.645051 0.4331979 0 0.3960784 0
v 1.37157 6.526858 2.371279 0 0.4156863 0
v 0.291068 6.439446 4.259933 0 0.2705882 0
v 0.2368574 6.576131 4.163042 0 0.2901961 0
v 1.258521 6.658833 2.377133 0 0.4078431 0
v 0.2632418 7.20086 0.5128363 0 0.1019608 0
v 0.2058171 7.299475 0.6123282 0 0.1019608 0
v -1.841946 7.133713 4.191899 0 0.6784314 0
v -1.92607 7.788177 0.5430063 0 0.9882353 0
v -1.872986 7.857056 0.6411862 0 0.9921569 0
v -2.89465 7.774354 2.427095 0 0.7764706 0
v -3.006122 7.701259 2.431666 0 0.7411765 0
v -1.897777 7.026534 4.290126 0 0.6156863 0
v 0.6760023 -8.136655 -0.9213946 0 0.5450981 0
v -0.1964699 -7.508242 -2.599428 0 0.8235294 0
v -0.2569682 -7.611687 -2.505122 0 0.8235294 0
v 0.5658417 -8.204256 -0.9226032 0 0.6784314 0
v -0.387021 -8.204256 0.5714641 0 0.9686275 0
v -0.340979 -8.13665 0.673209 0 0.945098 0
v -2.168924 -7.611687 0.4927809 0 0.9058824 0
v -2.230432 -7.508242 0.5897771 0 0.8980392 0
v -2.991734 -7.019118 -1.089739 0 0.5568628 0
v -2.038872 -7.019118 -2.583805 0 0.8784314 0
v -3.102904 -6.87998 -1.08826 0 0.3137255 0
v -2.085922 -6.879974 -2.682862 0 0.8509804 0
v 2.69357 -9.263898 -2.308584 0 0 0
v 1.753457 -8.519401 -3.989099 0 0.3686275 0
v 1.694627 -8.623845 -3.893668 0 0.2666667 0
v 2.58344 -9.327616 -2.304853 0 0 0
v 1.659603 -9.327616 -0.7536357 0 0.6235294 0
v 1.708263 -9.263888 -0.6541519 0 0.5921569 0
v -0.1607636 -8.623845 -0.7783029 0 0.7803922 0
v -0.125741 -7.908229 -3.917908 0 0.6588235 0
v -0.21717 -8.519372 -0.680241 0 0.8862745 0
v -1.05071 -7.873351 -2.368132 0 0.7215686 0
v -0.171975 -7.765016 -4.015186 0 0.6588235 0
v -1.157277 -7.723863 -2.360756 0 0.7686275 0
v -5.095504 7.61056 4.464519 0 0.6588235 0
v -3.993387 6.908284 6.313025 0 0 0
v -4.053145 6.798952 6.409365 0 0 0
v -4.985081 7.679965 4.462761 0 0.6588235 0
v -3.932387 7.710805 2.589392 0 0.6588235 0
v -3.884676 7.775416 2.68922 0 0.6588235 0
v -1.786708 7.113089 2.755487 0 0.6862745 0
v -1.726928 7.014859 2.659111 0 0.6901961 0
v -0.7951511 6.340665 4.605721 0 0.0627451 0
v -1.895081 6.2319 6.379471 0 0 0
v -0.6845692 6.203388 4.603959 0 0.1058824 0
v -1.847686 6.087726 6.479086 0 0 0
v -3.157336 9.209839 -0.8780348 0 0.9411765 0
v -2.235327 8.684858 0.6840865 0 0.9686275 0
v -2.295968 8.581326 0.778617 0 0.9686275 0
v -3.046972 9.27702 -0.8769374 0 0.9568627 0
v -2.107274 9.27702 -2.350341 0 0.8235294 0
v -2.153301 9.209834 -2.452316 0 0.827451 0
v -0.3495792 8.684858 -2.272727 0 0.9215686 0
v -0.4776314 8.092697 0.7617006 0 0.454902 0
v -0.2879277 8.581326 -2.369949 0 0.9137255 0
v 0.4620664 8.092696 -0.7117045 0 0.08235294 0
v -0.4305955 7.952965 0.860986 0 0.3803922 0
v 0.5734396 7.952971 -0.713297 0 0.0627451 0
v -0.9072032 9.079874 -2.138278 0 0.972549 0
v 0.06407518 8.554568 -0.6048838 0 0.345098 0
v 0.004617631 8.451301 -0.5083619 0 0.3411765 0
v -0.7950143 9.146733 -2.140551 0 0.9803922 0
v 0.09930208 9.146735 -3.642177 0 0.6352941 0
v 0.04844163 9.079873 -3.74287 0 0.6156863 0
v 1.858778 8.554568 -3.61833 0 0.7098039 0
v 1.915898 8.451303 -3.717551 0 0.7137255 0
v 2.717853 7.962404 -2.082666 0 0.9686275 0
v 1.823536 7.962404 -0.5810373 0 0.06666667 0
v 2.827697 7.822873 -2.087639 0 0.9764706 0
v 1.872058 7.82287 -0.4830455 0 0.0627451 0
v 0.8847175 5.4381 6.854841 0 0.254902 0
v 1.769189 5.575154 5.135281 0 0.2196078 0
v 1.879525 5.438128 5.129804 0 0.227451 0
v 0.8608611 6.067024 3.401553 0 0.2784314 0
v 0.8342522 5.575156 6.756726 0 0.2431373 0
v -1.128649 6.066307 6.851793 0 0.1411765 0
v 0.8052508 6.169672 3.500364 0 0.2666667 0
v -1.152403 6.695912 3.398679 0 0.2313726 0
v -1.070767 6.169675 6.753935 0 0.1529412 0
v -2.147233 6.69536 5.123744 0 0.6509804 0
v -2.034705 6.764194 5.119018 0 0.5960785 0
v -1.099768 6.764193 3.497573 0 0.2156863 0
v -0.5454203 8.674429 -3.275226 0 0.7882353 0
v 1.492399 8.182382 -3.371749 0 0.7176471 0
v 1.540593 8.047975 -3.270057 0 0.7058824 0
v 2.582054 8.047601 -5.072101 0 0.4862745 0
v 2.473121 8.182364 -5.069966 0 0.5019608 0
v 1.536426 8.674173 -6.875346 0 0.4627451 0
v 1.483353 8.777873 -6.778095 0 0.5450981 0
v -0.4832742 8.777909 -3.372985 0 0.772549 0
v -1.592669 9.304897 -5.077501 0 0.972549 0
v -0.4923898 9.373396 -6.779469 0 0.8901961 0
v -0.5517615 9.305112 -6.879672 0 0.8352941 0
v -1.47325 9.373446 -5.081342 0 0.972549 0
v 5.000009 -5.645618 -4.237383 0 0.945098 0
v 2.050084 -5.056013 -2.536464 0 0.4666667 0
v 4.020847 -5.647009 -2.53817 0 0.6117647 0
v 4.073215 -5.576881 -2.441065 0 0.5607843 0
v 5.111654 -5.575401 -4.243149 0 0.9215686 0
v 4.013196 -5.053226 -5.943224 0 0.9686275 0
v 4.070203 -4.950138 -6.043485 0 0.9215686 0
v 1.063286 -4.46362 -4.24231 0 0.1098039 0
v 1.993341 -4.9531 -2.439318 0 0.3333333 0
v 0.9519049 -4.327956 -4.239661 0 0 0
v 2.042433 -4.46223 -5.941522 0 0.7960784 0
v 1.990329 -4.326488 -6.041744 0 0.6666667 0
v 0.5016338 8.087713 -1.182681 0 0.1490196 0
v 0.559078 8.161179 -1.08596 0 0.1215686 0
v -0.2533706 8.161179 0.4628098 0 0.2588235 0
v -0.3655995 8.087713 0.4705248 0 0.3176471 0
v 0.6855943 7.705939 1.94697 0 0.09803922 0
v 0.6325084 7.603754 2.048168 0 0.1294118 0
v 2.313874 7.705939 -1.157047 0 0.2705882 0
v 2.44039 7.250698 1.875883 0 0.5411765 0
v 2.497834 7.119883 1.972604 0 0.5921569 0
v 3.252838 7.250698 0.3271116 0 0.6 0
v 2.36696 7.603754 -1.258245 0 0.4117647 0
v 3.365067 7.119883 0.3193966 0 0.6431373 0
v 0.5016338 -9.974289 -1.182681 0 0.9098039 0
v -0.3655995 -9.974289 0.4705248 0 0.9882353 0
v -0.2553047 -10.11403 0.4609143 0 0.9921569 0
v 0.6325084 -10.6026 2.048168 0 0.7372549 0
v 0.556419 -10.11403 -1.086474 0 0.9294118 0
v 2.36696 -10.6026 -1.258245 0 0.9058824 0
v 0.6852611 -10.70619 1.947605 0 0.7921569 0
v 2.497834 -11.23106 1.972604 0 0.6705883 0
v 2.314207 -10.70619 -1.157682 0 0.9137255 0
v 3.365067 -11.23106 0.3193966 0 0 0
v 3.254773 -11.29835 0.3290071 0 0 0
v 2.443049 -11.29835 1.876397 0 0.6705883 0
v -1.782253 -8.357139 0.4149417 0 0.8588235 0
v -2.871026 -8.357173 2.300855 0 0.9607843 0
v -2.758672 -8.492901 2.295684 0 0.9647059 0
v -1.782081 -9.017183 4.186573 0 0.9372549 0
v -1.72937 -8.492771 0.5129743 0 0.8509804 0
v 0.4003125 -9.016326 0.4230713 0 0.6784314 0
v -1.724209 -9.119916 4.087393 0 0.9529412 0
v 0.3956368 -9.67739 4.186378 0 0.9215686 0
v 0.3440617 -9.119916 0.5209153 0 0.7568628 0
v 1.484695 -9.676595 2.300961 0 0.8470588 0
v 0.3442026 -9.746931 4.087377 0 0.9411765 0
v 1.373716 -9.746799 2.304302 0 0.8470588 0
v 4.529618 6.548195 0.2454753 0 0.6666667 0
v 5.389604 5.919908 1.664299 0 0.6588235 0
v 5.280302 6.064356 1.672982 0 0.6470588 0
v 4.590852 5.919908 3.118477 0 0.3411765 0
v 4.475154 6.652673 0.3446306 0 0.7215686 0
v 2.870881 7.17668 0.2808281 0 0.4980392 0
v 4.539545 6.064356 3.021575 0 0.2980392 0
v 2.932115 6.548195 3.15383 0 0.5372549 0
v 2.986579 6.652673 3.054674 0 0.572549 0
v 2.072145 7.17668 1.735005 0 0.5137255 0
v 2.922189 7.240989 0.3777292 0 0.4941176 0
v 2.181446 7.240989 1.726323 0 0.4901961 0
v 4.529618 -12.18998 0.2454753 0 0 0
v 2.870881 -11.56169 0.2808281 0 0.0627451 0
v 2.922189 -11.70614 0.3777292 0 0.0627451 0
v 2.072145 -11.56169 1.735005 0 0.6627451 0
v 4.475154 -12.29446 0.3446306 0 0 0
v 5.389604 -12.81846 1.664299 0 0 0
v 2.181446 -11.70614 1.726323 0 0.6784314 0
v 2.932115 -12.18998 3.15383 0 0.5686275 0
v 2.986579 -12.29446 3.054674 0 0.5450981 0
v 4.590852 -12.81846 3.118477 0 0 0
v 5.280302 -12.88277 1.672982 0 0 0
v 4.539545 -12.88277 3.021575 0 0 0
v 4.398055 -8.105672 -3.165585 0 0.8784314 0
v 2.408113 -7.477358 -3.110353 0 0.6980392 0
v 2.460989 -7.614426 -3.013997 0 0.7098039 0
v 1.460863 -7.477362 -1.359412 0 0 0
v 4.342515 -8.208566 -3.066075 0 0.9215686 0
v 5.440731 -8.734101 -1.469881 0 0 0
v 1.570295 -7.614427 -1.367795 0 0.0627451 0
v 2.503556 -8.105671 0.3362986 0 0 0
v 2.556107 -8.208568 0.2356072 0 0.09019608 0
v 4.493497 -8.734107 0.2810606 0 0.6588235 0
v 5.328313 -8.802707 -1.462677 0 0.0627451 0
v 4.437633 -8.802708 0.1835249 0 0.6627451 0
v 4.161847 8.145333 -6.166936 0 0.4 0
v 5.205393 7.517 -4.366142 0 0.254902 0
v 5.09237 7.653003 -4.361973 0 0.2705882 0
v 4.166764 7.516997 -2.56412 0 0.7803922 0
v 4.103554 8.248483 -6.068459 0 0.4039216 0
v 2.079719 8.773799 -6.1657 0 0.6588235 0
v 4.113039 7.653002 -2.662898 0 0.8352941 0
v 2.084582 8.145333 -2.562891 0 0.7294118 0
v 2.139948 8.248482 -2.661728 0 0.8039216 0
v 1.041098 8.773802 -4.363677 0 0.09411765 0
v 2.130509 8.843962 -6.067283 0 0.654902 0
v 1.151191 8.843961 -4.368203 0 0.08235294 0
v 0.5038921 7.857376 -3.692993 0 0.3764706 0
v -0.4299764 7.857376 -2.075472 0 0.9294118 0
v -0.4808291 7.997101 -2.173819 0 0.9529412 0
v -2.297729 8.485684 -2.07547 0 0.7803922 0
v 0.3932949 7.997101 -3.68786 0 0.4666667 0
v -0.4299764 8.485684 -5.310514 0 0.9411765 0
v -2.240948 8.589274 -2.173817 0 0.8117647 0
v -3.231612 9.114146 -3.692991 0 0.4941176 0
v -0.4867572 8.589274 -5.212167 0 0.9490196 0
v -2.297729 9.114146 -5.310513 0 0.9215686 0
v -3.121014 9.181448 -3.698125 0 0.5921569 0
v -2.246876 9.181448 -5.212166 0 0.9372549 0
v -2.297729 -4.392773 -5.310513 0 0.7058824 0
v -3.231612 -4.392773 -3.692991 0 0.6666667 0
v -3.121014 -4.532498 -3.698125 0 0.6745098 0
v -2.297729 -5.021082 -2.07547 0 0 0
v -2.246876 -4.532498 -5.212166 0 0.6901961 0
v -0.4299764 -5.021082 -5.310514 0 0.8235294 0
v -2.240948 -5.124672 -2.173817 0 0 0
v -0.4299764 -5.649545 -2.075472 0 0 0
v -0.4867572 -5.124672 -5.212167 0 0.8235294 0
v 0.5038921 -5.649545 -3.692993 0 0 0
v -0.4808291 -5.716846 -2.173819 0 0 0
v 0.3932949 -5.716846 -3.687859 0 0.0627451 0
v -5.351226 10.40542 -3.771033 0 0.2862745 0
v -5.297838 10.47535 -3.673101 0 0.3607843 0
v -6.255686 10.47535 -1.961838 0 0 0
v -6.36708 10.40542 -1.956139 0 0 0
v -5.247624 9.8799 -0.2683262 0 0.6627451 0
v -5.303252 9.77697 -0.1689422 0 0.6588235 0
v -3.327188 9.8799 -3.699347 0 0.1882353 0
v -3.276974 9.284454 -0.2945723 0 0.9333333 0
v -3.223586 9.148645 -0.1966402 0 0.9411765 0
v -2.319126 9.284454 -2.005836 0 0.7803922 0
v -3.27156 9.77697 -3.798731 0 0.2588235 0
v -2.207732 9.148645 -2.011535 0 0.8 0
v -5.351226 -5.769799 -3.771033 0 0 0
v -6.36708 -5.769799 -1.956139 0 0.2862745 0
v -6.255686 -5.905607 -1.961838 0 0.2431373 0
v -5.303252 -6.398123 -0.1689422 0 0.2627451 0
v -5.297838 -5.905607 -3.673101 0 0 0
v -3.27156 -6.398123 -3.798731 0 0.7176471 0
v -5.247624 -6.501053 -0.2683262 0 0.2901961 0
v -3.223586 -7.026571 -0.1966402 0 0.5803922 0
v -3.327188 -6.501053 -3.699347 0 0.6745098 0
v -2.207732 -7.026571 -2.011535 0 0.8705882 0
v -3.276974 -7.096499 -0.2945722 0 0.5058824 0
v -2.319126 -7.096499 -2.005836 0 0.8627451 0
v 1.457417 -5.480999 -3.151569 0 0.5411765 0
v 2.495841 -5.479519 -4.953653 0 0.8823529 0
v 2.384195 -5.549737 -4.947872 0 0.7529412 0
v 1.405048 -5.551128 -3.248658 0 0.5019608 0
v -0.565715 -4.960132 -3.24695 0 0.3764706 0
v 1.397382 -4.957345 -6.653711 0 0 0
v 1.454391 -4.854255 -6.753989 0 0 0
v -1.552527 -4.367739 -4.952795 0 0.7137255 0
v -0.6224567 -4.857218 -3.149821 0 0.2509804 0
v -1.663908 -4.232074 -4.950165 0 0.682353 0
v -0.573366 -4.366349 -6.652007 0 0.8235294 0
v -0.625469 -4.230606 -6.752248 0 0.8235294 0
v -2.657821 8.704855 -0.873917 0 0.854902 0
v -1.617888 8.07653 0.9272873 0 0.9960784 0
v -1.729348 8.212338 0.9315027 0 0.9960784 0
v -2.657821 8.07653 2.728493 0 0.7607843 0
v -2.714767 8.807785 -0.7752826 0 0.9333333 0
v -4.73767 9.333302 -0.8739156 0 0.8627451 0
v -2.7099 8.212338 2.629859 0 0.772549 0
v -4.73767 8.704855 2.728495 0 0.7372549 0
v -4.680724 8.807785 2.62986 0 0.8313726 0
v -5.777602 9.333302 0.92729 0 0 0
v -4.685591 9.403231 -0.7752813 0 0.8823529 0
v -5.666142 9.403231 0.9230747 0 0 0
v -4.73767 -6.065379 -0.8739155 0 0.345098 0
v -5.777602 -6.065379 0.92729 0 0.2352941 0
v -5.666142 -6.201187 0.9230744 0 0.2039216 0
v -4.73767 -6.693703 2.728495 0 0.6980392 0
v -4.685591 -6.201187 -0.7752813 0 0.3490196 0
v -2.657821 -6.693703 -0.8739169 0 0.7411765 0
v -4.680724 -6.796633 2.62986 0 0.7254902 0
v -2.657821 -7.322151 2.728493 0 0.9686275 0
v -2.714767 -6.796633 -0.7752826 0 0.8117647 0
v -1.617888 -7.322151 0.9272873 0 0.827451 0
v -2.7099 -7.392079 2.629859 0 0.972549 0
v -1.729348 -7.392079 0.9315026 0 0.854902 0
v -3.932387 -6.669072 2.589392 0 0.9411765 0
v -5.095504 -6.669072 4.464519 0 0.5411765 0
v -4.983568 -6.802873 4.464278 0 0.5647059 0
v -4.053145 -7.297403 6.409365 0 0.572549 0
v -3.88287 -6.802873 2.689779 0 0.9490196 0
v -1.726928 -7.297403 2.659111 0 0.1882353 0
v -3.993027 -7.400021 6.312444 0 0.6352941 0
v -1.847686 -7.925843 6.479086 0 0.6039216 0
v -1.787046 -7.400021 2.756032 0 0.3058824 0
v -0.6845692 -7.925843 4.603959 0 0.9372549 0
v -0.7965052 -7.997169 4.604199 0 0.9568627 0
v -1.897203 -7.997168 6.378699 0 0.6705883 0
v -1.259023 -6.78396 3.344082 0 0 0
v -2.267176 -6.780242 5.060701 0 0.6784314 0
v -2.157021 -6.918281 5.056386 0 0.8470588 0
v -1.284622 -7.414028 6.792165 0 0.6509804 0
v -1.209095 -6.921817 3.442541 0 0 0
v 0.7319933 -7.420976 3.358929 0 0 0
v -1.227876 -7.517156 6.693648 0 0.6470588 0
v 0.7067324 -8.051877 6.807013 0 0 0
v 0.6734045 -7.524248 3.456666 0 0 0
v 1.71517 -8.055139 5.090889 0 0.09019608 0
v 0.6546384 -8.119589 6.707772 0 0 0
v 1.602549 -8.123125 5.093928 0 0.1529412 0
v 0.8582164 7.126587 1.611899 0 0.1019608 0
v 0.9136612 7.199686 1.709675 0 0.1372549 0
v 0.01205611 7.199686 3.351111 0 0.1960784 0
v -0.1002034 7.126587 3.35677 0 0.1921569 0
v 2.793528 6.704185 1.669609 0 0.5411765 0
v 0.9866866 6.704185 4.959091 0 0.1686275 0
v 0.9316875 6.60193 5.059221 0 0.1686275 0
v 2.866568 6.208685 4.919025 0 0.4156863 0
v 2.922013 6.077365 5.0168 0 0.4823529 0
v 3.768173 6.208685 3.27759 0 0.5529412 0
v 2.848527 6.60193 1.569479 0 0.5294118 0
v 3.880433 6.077365 3.27193 0 0.5960785 0
v 0.8582164 -8.858205 1.611899 0 0.345098 0
v -0.1002034 -8.858205 3.35677 0 0.9254902 0
v 0.01080056 -8.995565 3.349834 0 0.9254902 0
v 0.9316875 -9.486523 5.059221 0 0 0
v 0.9119104 -8.995565 1.709301 0 0.509804 0
v 2.848527 -9.486523 1.569479 0 0.1098039 0
v 2.793757 -9.589706 1.669192 0 0.2352941 0
v 3.880433 -10.11498 3.27193 0 0 0
v 0.9864576 -9.589706 4.959508 0 0.1647059 0
v 2.922013 -10.11498 5.0168 0 0.3490196 0
v 3.769428 -10.18385 3.278867 0 0.09019608 0
v 2.868319 -10.18385 4.919399 0 0.3568628 0
vn -0.3835199 0.3760333 0.8435113
vn 0.003662023 0.8592631 0.5115209
vn 0.4182688 0.7730408 0.4769267
vn 0.5070775 0.3614135 -0.7824658
vn 0.8839683 -0.4616768 -0.07385574
vn 0.9567894 0.2907423 0.004780395
vn 0.3778036 -0.3570087 -0.8542888
vn -0.4247494 0.4487759 -0.7862494
vn 0.4074253 0.8690241 -0.2807165
vn -0.04286518 0.9565218 -0.2884936
vn -0.5220326 -0.275641 -0.807158
vn -0.8913993 0.4487742 0.06331673
vn -0.9612312 -0.2756398 -0.007566567
vn -0.3883283 0.3614121 0.8476924
vn -0.9612312 -0.2756398 -0.007566567
vn -0.8913993 0.4487742 0.06331673
vn -0.5182917 -0.3570082 0.7771221
vn 0.5173016 0.2907417 0.8049027
vn 0.4118704 -0.4616835 0.7856278
vn 0.9567894 0.2907423 0.004780395
vn 0.8839683 -0.4616768 -0.07385574
vn 0.8808748 -0.4707036 -0.04997746
vn 0.505536 0.2702123 0.8194015
vn 0.9629754 0.2686348 0.02266427
vn 0.384586 -0.4696665 0.7946742
vn -0.3915996 0.3572747 0.8479413
vn -0.5423275 -0.3560062 0.7610128
vn -0.8821625 0.4671914 0.05934357
vn -0.9626667 -0.2684332 -0.03487829
vn -0.9626667 -0.2684332 -0.03487829
vn -0.3929374 0.4667758 -0.7922882
vn -0.8821625 0.4671914 0.05934357
vn -0.4999943 -0.2695331 -0.8230174
vn 0.3996139 -0.357576 -0.8440664
vn 0.5330543 0.3562432 -0.7674268
vn 0.8808748 -0.4707036 -0.04997746
vn 0.9629754 0.2686348 0.02266427
vn 0.8906923 -0.4541456 -0.02047259
vn 0.4752688 0.2608466 0.8402848
vn 0.95941 0.2737808 0.06765078
vn 0.3773955 -0.4541452 0.807047
vn -0.4227183 0.3409471 0.8396811
vn -0.5522436 -0.3596873 0.7520983
vn 0.4045182 0.7421709 0.5343664
vn -0.01132366 0.835841 0.5488548
vn -0.9569948 -0.2845137 -0.05668253
vn -0.8877436 0.4583312 0.04293916
vn 0.959756 0.2794994 0.02735806
vn 0.8872039 -0.4584176 -0.05217823
vn 0.3984144 -0.4584176 0.7944301
vn 0.5035701 0.2795014 0.8174937
vn -0.5318884 -0.3582054 0.7673224
vn -0.3985726 0.3582055 0.8442918
vn -0.959755 -0.279503 -0.0273577
vn -0.8872026 0.45842 0.05217825
vn 0.5216247 0.3582048 -0.7743366
vn 0.8864295 -0.4584192 -0.06398901
vn 0.9600344 0.2795025 0.01457416
vn 0.3872955 -0.3582062 -0.8495237
vn -0.4089542 0.4584186 -0.7890557
vn 0.4358615 0.8608387 -0.2626435
vn -0.01550758 0.960911 -0.2764228
vn -0.5144117 -0.2795019 -0.8107153
vn -0.8864309 0.4584164 0.06398843
vn -0.9600343 -0.2795027 -0.01457503
vn -0.3872955 0.3582052 0.8495241
vn -0.9600343 -0.2795027 -0.01457503
vn -0.8864309 0.4584164 0.06398843
vn -0.5216228 -0.3582063 0.7743371
vn 0.5144116 0.2795012 0.8107157
vn 0.4089578 -0.4584182 0.789054
vn 0.9600344 0.2795025 0.01457416
vn 0.8864295 -0.4584192 -0.06398901
vn 0.5390552 0.3550997 -0.7637563
vn 0.8824871 -0.46657 -0.05940515
vn 0.9624835 0.2697823 0.0290319
vn 0.3919074 -0.3550999 -0.8487124
vn -0.3897997 0.4665688 -0.7939582
vn -0.5063822 -0.2697833 -0.8190202
vn -0.8824855 0.466573 0.0594046
vn -0.962483 -0.2697847 -0.0290305
vn -0.391904 0.3550999 0.8487139
vn -0.962483 -0.2697847 -0.0290305
vn -0.8824855 0.466573 0.0594046
vn -0.5390533 -0.3550986 0.7637582
vn 0.5063848 0.2697842 0.8190183
vn 0.389799 -0.4665701 0.7939578
vn 0.9624835 0.2697823 0.0290319
vn 0.8824871 -0.46657 -0.05940515
vn -0.9998832 0.01499874 0.002960681
vn -0.4015791 0.4535243 -0.7956443
vn -0.8913467 0.4503076 0.05219357
vn -0.4932837 0.009758756 -0.8698137
vn 0.5295548 0.3616066 -0.7673412
vn -0.9996649 0.02588676 -0.0001467918
vn 0.5064743 -0.005993232 -0.8622342
vn 0.9568955 0.2891732 0.02701704
vn 0.9997371 -0.02288627 -0.00138162
vn -0.5049101 0.00827782 -0.8631323
vn 0.4887238 -0.01964751 -0.8722173
vn 0.9995832 -0.02825592 -0.005918469
vn -0.5051253 -0.2883341 -0.8134568
vn -0.959917 -0.2792983 -0.02349177
vn 0.3956369 -0.3666184 -0.8420585
vn 0.8870908 -0.4587147 -0.05148573
vn 0.8788833 -0.4701362 -0.08084642
vn 0.5389349 0.2487097 0.8047935
vn 0.967684 0.252163 -0.001141307
vn 0.4135269 -0.4685677 0.7806663
vn -0.5149728 -0.3553845 0.7800673
vn -0.3525136 0.3464511 0.8693134
vn 0.467225 0.7314934 0.4966068
vn 0.05966347 0.8362937 0.5450258
vn -0.9640309 -0.2657878 -0.001137868
vn -0.871349 0.4793541 0.1047401
vn 0.531343 0.3509802 -0.7710302
vn 0.8750746 -0.4760588 -0.08724961
vn 0.9660428 0.2581812 0.0101878
vn 0.3656647 -0.3509787 -0.8620344
vn -0.395799 0.4760624 -0.7853075
vn -0.5268295 -0.2581808 -0.8098108
vn -0.87507 0.4760668 0.08725166
vn -0.9660438 -0.2581774 -0.01018808
vn -0.3656676 0.3509788 0.8620331
vn -0.9660438 -0.2581774 -0.01018808
vn -0.87507 0.4760668 0.08725166
vn -0.5313429 -0.3509813 0.7710298
vn 0.5268251 0.2581817 0.8098133
vn 0.3957923 -0.4760624 0.7853108
vn 0.9660428 0.2581812 0.0101878
vn 0.8750746 -0.4760588 -0.08724961
vn -0.400793 0.354735 0.8447059
vn -0.9998832 0.01499874 0.002960681
vn -0.8913467 0.4503076 0.05219357
vn -0.4893948 0.009522195 0.8720104
vn 0.5019109 0.2854835 0.8164464
vn -0.9996649 0.02588676 -0.0001467918
vn 0.5081102 -0.01214214 0.8612065
vn 0.9568955 0.2891732 0.02701704
vn 0.9997371 -0.02288627 -0.00138162
vn 0.9995832 -0.02825592 -0.005918469
vn -0.5045951 0.01643192 0.8631998
vn -0.959917 -0.2792983 -0.02349177
vn -0.5300419 -0.3502367 0.7722629
vn 0.4956124 -0.009656599 0.8684902
vn 0.8870908 -0.4587147 -0.05148573
vn 0.4014634 -0.4510202 0.7971248
vn -0.4376874 -0.8602979 0.2613758
vn 0.01426562 -0.9598341 0.2802054
vn -0.3977119 0.3407825 0.8518759
vn -0.9582039 -0.2845909 -0.02921202
vn -0.8939136 0.4431957 0.0670536
vn -0.5314957 -0.3638901 0.7649158
vn 0.5036526 0.2770318 0.8182833
vn 0.3985461 -0.4598007 0.7935643
vn 0.3967838 0.7707887 0.4984449
vn -0.0202001 0.8488721 0.5282123
vn 0.9558769 0.2926085 0.02606959
vn 0.8895929 -0.4537414 -0.0523768
vn -0.3728976 0.3617508 0.8544494
vn -0.9628814 -0.2697414 0.009940982
vn -0.8906522 0.4476702 0.07956198
vn -0.5077338 -0.3550823 0.784935
vn 0.5322125 0.2920147 0.7946555
vn 0.4215722 -0.4666083 0.7775304
vn 0.9563137 0.2920157 -0.01381407
vn 0.8793374 -0.4666049 -0.09510784
vn 0.4910307 0.3617504 -0.7924806
vn 0.8793374 -0.4666049 -0.09510784
vn 0.9563137 0.2920157 -0.01381407
vn 0.3572013 -0.3550837 -0.8638997
vn -0.4407924 0.4476718 -0.7780051
vn 0.3989537 0.8698825 -0.2900695
vn -0.05127376 0.9559711 -0.2889471
vn -0.5391323 -0.2697373 -0.7978585
vn -0.8906522 0.4476702 0.07956198
vn -0.9628814 -0.2697414 0.009940982
vn -0.8939136 0.4431957 0.0670536
vn -0.9582039 -0.2845909 -0.02921202
vn -0.50019 -0.2781593 -0.8200228
vn -0.4158235 0.4632932 -0.7825921
vn 0.4029971 -0.3507808 -0.8453083
vn 0.5186778 0.3762282 -0.7677407
vn 0.8895929 -0.4537414 -0.0523768
vn 0.9558769 0.2926085 0.02606959
vn -0.9710575 -0.2348439 -0.04353929
vn -0.3742939 0.4786786 -0.7942109
vn -0.8783503 0.4754355 0.04961759
vn -0.500581 -0.2458992 -0.8300315
vn 0.3937118 -0.3447384 -0.8521423
vn -0.4599365 -0.7280289 -0.5083624
vn -0.04584829 -0.8378453 -0.543979
vn 0.5514998 0.3605173 -0.7522468
vn 0.874266 -0.4817404 -0.05987504
vn 0.9634005 0.2644644 0.04379531
vn 0.5640188 0.3685589 -0.7389501
vn 0.8906923 -0.4541456 -0.02047259
vn 0.95941 0.2737808 0.06765078
vn 0.4284234 -0.3596869 -0.8289021
vn -0.3711722 0.4764354 -0.7970198
vn -0.475975 -0.284514 -0.8321657
vn -0.8877436 0.4583312 0.04293916
vn -0.9569948 -0.2845137 -0.05668253
vn 0.9996025 -0.02297237 0.01634701
vn 0.5109717 0.2817514 0.8121108
vn 0.9658829 0.2583866 0.01751257
vn 0.4724368 -0.00965999 0.8813115
vn -0.3835199 0.3760333 0.8435113
vn 0.5021496 -0.0009687076 0.8647802
vn 0.9999676 -0.003774808 -0.007112882
vn 0.8870847 -0.4587276 -0.05147611
vn 0.401484 -0.4509459 0.7971565
vn -0.5234303 0.008002737 0.8520309
vn -0.8652816 0.4981237 0.05621859
vn -0.9997033 0.01706642 -0.01737578
vn -0.9999009 -0.01403204 -0.001179895
vn -0.4995905 -0.001344971 0.8662607
vn -0.9599203 -0.2792897 -0.023457
vn -0.5300311 -0.3501468 0.772311
vn -0.4376856 -0.8602853 0.2614202
vn 0.0142729 -0.9598231 0.2802427
vn -0.9999009 -0.01403204 -0.001179895
vn -0.9599203 -0.2792897 -0.023457
vn -0.5051341 -0.2884286 -0.8134177
vn -0.4954664 -0.01155631 -0.8685502
vn -0.4885007 0.009622862 -0.8725104
vn -0.9997033 0.01706642 -0.01737578
vn -0.8652816 0.4981237 0.05621859
vn -0.3854829 0.4798506 -0.7881284
vn 0.4973438 -0.002715076 -0.8675492
vn 0.3956082 -0.3667111 -0.8420316
vn 0.5028408 -0.01235281 -0.8642908
vn 0.9999676 -0.003774808 -0.007112882
vn 0.8870847 -0.4587276 -0.05147611
vn 0.9996025 -0.02297237 0.01634701
vn 0.9658829 0.2583866 0.01751257
vn 0.5346953 0.3376052 -0.7746766
vn 0.4445957 0.8553639 -0.2658708
vn -0.3984152 0.4584157 -0.7944309
vn -0.8872026 0.45842 0.05217825
vn -0.959755 -0.279503 -0.0273577
vn -0.5035702 -0.2795013 -0.8174938
vn 0.3985732 -0.3582055 -0.8442915
vn 0.5318881 0.3582065 -0.7673221
vn 0.959756 0.2794994 0.02735806
vn 0.8872039 -0.4584176 -0.05217823
vn 0.3695968 -0.3584062 -0.8572883
vn 0.8788833 -0.4701362 -0.08084642
vn 0.967684 0.252163 -0.001141307
vn 0.5201646 0.3565216 -0.7760935
vn -0.5292177 -0.2672759 -0.8052902
vn -0.4087183 0.4871828 -0.7717527
vn -0.871349 0.4793541 0.1047401
vn -0.9640309 -0.2657878 -0.001137868
vn -0.5718105 -0.3629496 0.7357312
vn -0.9591873 -0.2728806 -0.07413512
vn -0.8850977 0.4649184 0.02128114
vn -0.4319546 0.3476139 0.8322138
vn 0.4679367 0.2645176 0.8432471
vn 0.3546729 -0.47018 0.8081695
vn 0.4113255 0.7540614 0.5120573
vn -0.005293422 0.8514851 0.5243522
vn 0.9589507 0.2735723 0.07464486
vn 0.8866348 -0.4620338 -0.02008659
vn -0.5641963 -0.3521912 0.7467556
vn -0.9710575 -0.2348439 -0.04353929
vn -0.8783503 0.4754355 0.04961759
vn -0.4017714 0.3538474 0.8446134
vn 0.3633255 -0.484844 0.7955632
vn 0.495828 0.2608792 0.8283095
vn 0.9634005 0.2644644 0.04379531
vn 0.874266 -0.4817404 -0.05987504
vn 0.428511 0.7528636 0.4995745
vn 0.01425095 0.8519471 0.523434
vn -0.9591873 -0.2728806 -0.07413512
vn -0.3529123 0.4730608 -0.8072585
vn -0.8850977 0.4649184 0.02128114
vn -0.4676078 -0.2638234 -0.8436469
vn 0.572731 0.3643846 -0.7343045
vn 0.433567 -0.3461622 -0.8319804
vn -0.4092291 -0.7557213 -0.5112894
vn 0.008652094 -0.8522114 -0.5231261
vn 0.8866348 -0.4620338 -0.02008659
vn 0.9589507 0.2735723 0.07464486
vn 0.967684 0.252163 -0.001141307
vn 0.5389349 0.2487097 0.8047935
vn 0.467225 0.7314934 0.4966068
vn 0.6635357 0.7367157 0.1302706
vn 0.5201646 0.3565216 -0.7760935
vn 0.05966347 0.8362937 0.5450258
vn 0.4743453 0.8483945 -0.2349964
vn -0.4087183 0.4871828 -0.7717527
vn 0.0203543 0.9707853 -0.2390849
vn -0.1996756 0.9636345 0.1775901
vn -0.871349 0.4793541 0.1047401
vn -0.3525136 0.3464511 0.8693134
vn 0.9558769 0.2926085 0.02606959
vn 0.5036526 0.2770318 0.8182833
vn 0.3967838 0.7707887 0.4984449
vn 0.6060712 0.783779 0.1355297
vn 0.5186778 0.3762282 -0.7677407
vn 0.4144264 0.87729 -0.2421016
vn -0.0202001 0.8488721 0.5282123
vn -0.4158235 0.4632932 -0.7825921
vn -0.03882434 0.9664876 -0.2537607
vn -0.2671933 0.9513741 0.1532811
vn -0.8939136 0.4431957 0.0670536
vn -0.3977119 0.3407825 0.8518759
vn 0.8866348 -0.4620338 -0.02008659
vn 0.433567 -0.3461622 -0.8319804
vn 0.008652094 -0.8522114 -0.5231261
vn 0.2354636 -0.9629434 -0.131518
vn -0.01819261 -0.9644142 0.2637693
vn 0.3546729 -0.47018 0.8081695
vn -0.4689605 -0.8549979 0.2214832
vn -0.5718105 -0.3629496 0.7357312
vn -0.6334594 -0.7573333 -0.1586677
vn -0.4092291 -0.7557213 -0.5112894
vn -0.9591873 -0.2728806 -0.07413512
vn -0.4676078 -0.2638234 -0.8436469
vn 0.874266 -0.4817404 -0.05987504
vn 0.3937118 -0.3447384 -0.8521423
vn -0.04584829 -0.8378453 -0.543979
vn 0.197676 -0.9672185 -0.1594131
vn -0.04538808 -0.9677382 0.247836
vn 0.3633255 -0.484844 0.7955632
vn -0.5033149 -0.8371797 0.214019
vn -0.4599365 -0.7280289 -0.5083624
vn -0.5641963 -0.3521912 0.7467556
vn -0.6871168 -0.7097881 -0.1551494
vn -0.500581 -0.2458992 -0.8300315
vn -0.9710575 -0.2348439 -0.04353929
vn -0.8877436 0.4583312 0.04293916
vn -0.01132366 0.835841 0.5488548
vn -0.4227183 0.3409471 0.8396811
vn -0.2441264 0.9553354 0.166543
vn -0.3711722 0.4764354 -0.7970198
vn 9.01126E-05 0.9718094 -0.235768
vn 0.4594449 0.8656333 -0.198971
vn 0.5640188 0.3685589 -0.7389501
vn 0.6261545 0.7582641 0.1815662
vn 0.4045182 0.7421709 0.5343664
vn 0.95941 0.2737808 0.06765078
vn 0.4752688 0.2608466 0.8402848
vn -0.8850977 0.4649184 0.02128114
vn -0.005293422 0.8514851 0.5243522
vn -0.4319546 0.3476139 0.8322138
vn -0.231975 0.9635221 0.1334644
vn 0.0214435 0.9649865 -0.2614217
vn -0.3529123 0.4730608 -0.8072585
vn 0.4715048 0.8542524 -0.218943
vn 0.4113255 0.7540614 0.5120573
vn 0.572731 0.3643846 -0.7343045
vn 0.6350483 0.7556695 0.1602414
vn 0.4679367 0.2645176 0.8432471
vn 0.9589507 0.2735723 0.07464486
vn -0.8783503 0.4754355 0.04961759
vn 0.01425095 0.8519471 0.523434
vn -0.4017714 0.3538474 0.8446134
vn -0.2224475 0.964638 0.1413884
vn 0.01771896 0.9652193 -0.2608402
vn -0.3742939 0.4786786 -0.7942109
vn 0.4664139 0.85305 -0.2340164
vn 0.5514998 0.3605173 -0.7522468
vn 0.6423371 0.7535043 0.1401224
vn 0.428511 0.7528636 0.4995745
vn 0.9634005 0.2644644 0.04379531
vn 0.495828 0.2608792 0.8283095
vn 0.505536 0.2702123 0.8194015
vn 0.6330354 0.7647704 0.1199687
vn 0.9629754 0.2686348 0.02266427
vn 0.5330543 0.3562432 -0.7674268
vn 0.4224201 0.764591 0.4867874
vn -0.3915996 0.3572747 0.8479413
vn 0.4457594 0.8586974 -0.2528587
vn -0.3929374 0.4667758 -0.7922882
vn 0.00714641 0.8573048 0.5147596
vn -0.8821625 0.4671914 0.05934357
vn -0.23596 0.9623924 0.1346244
vn -0.00164066 0.9627023 -0.2705579
vn -0.3835199 0.3760333 0.8435113
vn 0.4182688 0.7730408 0.4769267
vn 0.5109717 0.2817514 0.8121108
vn 0.9658829 0.2583866 0.01751257
vn 0.628511 0.7692869 0.1147676
vn 0.5346953 0.3376052 -0.7746766
vn 0.4445957 0.8553639 -0.2658708
vn 0.003662023 0.8592631 0.5115209
vn -0.8652816 0.4981237 0.05621859
vn 0.006140567 0.9629483 -0.269616
vn -0.3854829 0.4798506 -0.7881284
vn -0.2236294 0.9656653 0.1322134
vn 0.2464435 -0.9610246 -0.1252887
vn -0.4376874 -0.8602979 0.2613758
vn 0.01426562 -0.9598341 0.2802054
vn 0.4014634 -0.4510202 0.7971248
vn 0.8870908 -0.4587147 -0.05148573
vn 0.001962422 -0.8627151 -0.5056863
vn 0.3956369 -0.3666184 -0.8420585
vn -0.6243003 -0.7724726 -0.1163413
vn -0.5300419 -0.3502367 0.7722629
vn -0.959917 -0.2792983 -0.02349177
vn -0.4148158 -0.7739499 -0.4784657
vn -0.5051253 -0.2883341 -0.8134568
vn -0.4407924 0.4476718 -0.7780051
vn -0.05127376 0.9559711 -0.2889471
vn -0.2668777 0.9559706 0.1220512
vn -0.8906522 0.4476702 0.07956198
vn -0.01187776 0.869882 0.4931167
vn -0.3728976 0.3617508 0.8544494
vn 0.3989537 0.8698825 -0.2900695
vn 0.4100592 0.7914118 0.453342
vn 0.5322125 0.2920147 0.7946555
vn 0.606065 0.7914131 0.07969026
vn 0.4910307 0.3617504 -0.7924806
vn 0.9563137 0.2920157 -0.01381407
vn -0.5391323 -0.2697373 -0.7978585
vn -0.9628814 -0.2697414 0.009940982
vn -0.647308 -0.7550738 -0.1041922
vn -0.5077338 -0.3550823 0.784935
vn -0.4536627 -0.7550696 -0.4733499
vn 0.3572013 -0.3550837 -0.8638997
vn -0.4516269 -0.8528395 0.2621029
vn 0.4215722 -0.4666083 0.7775304
vn -0.04106142 -0.8528407 -0.5205543
vn 0.8793374 -0.4666049 -0.09510784
vn 0.219331 -0.964036 -0.1500946
vn 0.001176269 -0.9640373 0.2657645
vn -0.50019 -0.2781593 -0.8200228
vn -0.9582039 -0.2845909 -0.02921202
vn -0.6234899 -0.7724412 -0.1208095
vn -0.5314957 -0.3638901 0.7649158
vn -0.413531 -0.7715715 -0.4833938
vn 0.4029971 -0.3507808 -0.8453083
vn -0.4385748 -0.8621961 0.2535155
vn 0.3985461 -0.4598007 0.7935643
vn 0.006075408 -0.859131 -0.5117198
vn 0.8895929 -0.4537414 -0.0523768
vn 0.01149513 -0.9615808 0.2742814
vn 0.2469858 -0.9602199 -0.1302907
vn 0.531343 0.3509802 -0.7710302
vn 0.9660428 0.2581812 0.0101878
vn 0.6655983 0.7350311 0.1292606
vn 0.5268251 0.2581817 0.8098133
vn 0.4835424 0.8422742 -0.2382451
vn -0.395799 0.4760624 -0.7853075
vn 0.4661418 0.7350315 0.4923825
vn -0.3656676 0.3509788 0.8620331
vn 0.05832762 0.8422734 0.5358858
vn -0.87507 0.4760668 0.08725166
vn 0.02922766 0.9669378 -0.2533317
vn -0.1981067 0.9669392 0.1605691
vn 0.3656647 -0.3509787 -0.8620344
vn -0.5268295 -0.2581808 -0.8098108
vn -0.4661449 -0.735031 -0.4923803
vn -0.9660438 -0.2581774 -0.01018808
vn -0.05832842 -0.8422734 -0.5358856
vn 0.8750746 -0.4760588 -0.08724961
vn -0.6656033 -0.7350265 -0.1292602
vn -0.5313429 -0.3509813 0.7710298
vn -0.4835416 -0.8422745 0.2382458
vn 0.3957923 -0.4760624 0.7853108
vn 0.1981212 -0.9669363 -0.1605676
vn -0.02923357 -0.9669374 0.2533328
vn 0.3695968 -0.3584062 -0.8572883
vn -0.5292177 -0.2672759 -0.8052902
vn -0.4380002 -0.7628205 -0.4756686
vn -0.9640309 -0.2657878 -0.001137868
vn -0.02250765 -0.8573877 -0.5141788
vn 0.8788833 -0.4701362 -0.08084642
vn -0.6381168 -0.7625836 -0.1061753
vn -0.5149728 -0.3553845 0.7800673
vn -0.4431028 -0.8568874 0.2634462
vn 0.4135269 -0.4685677 0.7806663
vn 0.2294797 -0.9630184 -0.1411903
vn 0.006873686 -0.9627217 0.2704066
vn 0.5295548 0.3616066 -0.7673412
vn 0.9568955 0.2891732 0.02701704
vn 0.6222036 0.7738184 0.1186081
vn 0.5019109 0.2854835 0.8164464
vn 0.4370076 0.8620117 -0.2568274
vn -0.4015791 0.4535243 -0.7956443
vn 0.4139217 0.7731419 0.4805419
vn -0.400793 0.354735 0.8447059
vn -0.004981029 0.8607932 0.5089304
vn -0.8913467 0.4503076 0.05219357
vn -0.01554751 0.9605587 -0.2776423
vn -0.2494727 0.9599793 0.1272915
vn 0.9624835 0.2697823 0.0290319
vn 0.5063848 0.2697842 0.8190183
vn 0.434046 0.7551478 0.4912799
vn -0.391904 0.3550999 0.8487139
vn 0.6424865 0.7551456 0.1302544
vn 0.5390552 0.3550997 -0.7637563
vn 0.01985815 0.8528796 0.5217298
vn -0.8824855 0.466573 0.0594046
vn 0.4617602 0.8528793 -0.2436687
vn -0.3897997 0.4665688 -0.7939582
vn -0.2253111 0.9640251 0.1410337
vn 0.009476708 0.9640241 -0.2656459
vn -0.5063822 -0.2697833 -0.8190202
vn -0.962483 -0.2697847 -0.0290305
vn -0.6424832 -0.7551486 -0.1302531
vn -0.5390533 -0.3550986 0.7637582
vn -0.4340447 -0.7551468 -0.4912826
vn 0.3919074 -0.3550999 -0.8487124
vn -0.4617598 -0.8528791 0.2436702
vn 0.389799 -0.4665701 0.7939578
vn -0.01985493 -0.8528797 -0.5217299
vn 0.8824871 -0.46657 -0.05940515
vn -0.009482054 -0.964024 0.265646
vn 0.2253138 -0.9640244 -0.1410343
vn -0.4089542 0.4584186 -0.7890557
vn -0.01550758 0.960911 -0.2764228
vn -0.2437366 0.9609107 0.1313129
vn -0.8864309 0.4584164 0.06398843
vn 0.004025613 0.8608389 0.5088617
vn -0.3872955 0.3582052 0.8495241
vn 0.4358615 0.8608387 -0.2626435
vn 0.4220093 0.7713696 0.4763373
vn 0.5144116 0.2795012 0.8107157
vn 0.6266914 0.7713715 0.1106522
vn 0.5216247 0.3582048 -0.7743366
vn 0.9600344 0.2795025 0.01457416
vn -0.5144117 -0.2795019 -0.8107153
vn -0.9600343 -0.2795027 -0.01457503
vn -0.6266917 -0.7713711 -0.1106535
vn -0.5216228 -0.3582063 0.7743371
vn -0.4220097 -0.7713702 -0.4763358
vn 0.3872955 -0.3582062 -0.8495237
vn -0.4358594 -0.8608394 0.2626445
vn 0.4089578 -0.4584182 0.789054
vn -0.004026563 -0.8608395 -0.5088606
vn 0.8864295 -0.4584192 -0.06398901
vn 0.01551351 -0.9609116 0.2764206
vn 0.2437317 -0.9609119 -0.1313138
vn 0.401484 -0.4509459 0.7971565
vn 0.8870847 -0.4587276 -0.05147611
vn 0.2464343 -0.9610306 -0.1252612
vn 0.0142729 -0.9598231 0.2802427
vn -0.4376856 -0.8602853 0.2614202
vn 0.001942192 -0.8627337 -0.5056548
vn 0.3956082 -0.3667111 -0.8420316
vn -0.6243023 -0.7724743 -0.1163191
vn -0.5300311 -0.3501468 0.772311
vn -0.9599203 -0.2792897 -0.023457
vn -0.4148153 -0.77397 -0.4784337
vn -0.5051341 -0.2884286 -0.8134177
vn 0.5318881 0.3582065 -0.7673221
vn 0.959756 0.2794994 0.02735806
vn 0.6251671 0.7713674 0.1189891
vn 0.5035701 0.2795014 0.8174937
vn 0.4393181 0.8608395 -0.2568169
vn -0.3984152 0.4584157 -0.7944309
vn 0.4156291 0.7713695 0.4819145
vn -0.3985726 0.3582055 0.8442918
vn -0.002748494 0.8608388 0.5088704
vn -0.8872026 0.45842 0.05217825
vn -0.01183465 0.960911 -0.2766044
vn -0.2454577 0.9609122 0.1280555
vn -0.5035702 -0.2795013 -0.8174938
vn -0.959755 -0.279503 -0.0273577
vn -0.625162 -0.7713715 -0.1189887
vn -0.5318884 -0.3582054 0.7673224
vn -0.4156299 -0.7713695 -0.4819139
vn 0.3985732 -0.3582055 -0.8442915
vn -0.4393192 -0.8608389 0.2568171
vn 0.3984144 -0.4584176 0.7944301
vn 0.002748849 -0.8608389 -0.5088702
vn 0.8872039 -0.4584176 -0.05217823
vn 0.01183096 -0.9609115 0.2766031
vn 0.2454619 -0.9609111 -0.1280558
vn -0.475975 -0.284514 -0.8321657
vn -0.9569948 -0.2845137 -0.05668253
vn -0.6122115 -0.7795131 -0.1325011
vn -0.5522436 -0.3596873 0.7520983
vn -0.3907118 -0.7795136 -0.4895945
vn 0.4284234 -0.3596869 -0.8289021
vn -0.4358428 -0.8646235 0.2499347
vn 0.3773955 -0.4541452 0.807047
vn 0.03026478 -0.8646232 -0.5015085
vn 0.8906923 -0.4541456 -0.02047259
vn 0.2596128 -0.9590601 -0.1131592
vn 0.01396964 -0.9590602 0.2828575
vn -0.4999943 -0.2695331 -0.8230174
vn -0.9626667 -0.2684332 -0.03487829
vn -0.6357154 -0.7611777 -0.1283526
vn -0.5423275 -0.3560062 0.7610128
vn -0.4229929 -0.7618762 -0.4905321
vn 0.3996139 -0.357576 -0.8440664
vn -0.4538414 -0.8561621 0.2470113
vn 0.384586 -0.4696665 0.7946742
vn -0.006145543 -0.8568884 -0.5154654
vn 0.8808748 -0.4707036 -0.04997746
vn -0.006719307 -0.9631867 0.2687494
vn 0.2305373 -0.963811 -0.1338695
vn -0.4247494 0.4487759 -0.7862494
vn -0.04286518 0.9565218 -0.2884936
vn -0.2664673 0.9565213 0.1185836
vn -0.8913993 0.4487742 0.06331673
vn 0.4074253 0.8690241 -0.2807165
vn -0.01834237 0.8690229 0.4944317
vn -0.3883283 0.3614121 0.8476924
vn 0.4038117 0.7894168 0.4623389
vn 0.5173016 0.2907417 0.8049027
vn 0.606806 0.7894174 0.09277128
vn 0.5070775 0.3614135 -0.7824658
vn 0.9567894 0.2907423 0.004780395
vn -0.5220326 -0.275641 -0.807158
vn -0.9612312 -0.2756398 -0.007566567
vn -0.6345776 -0.7649919 -0.1099942
vn -0.5182917 -0.3570082 0.7771221
vn -0.4332426 -0.7649931 -0.476536
vn 0.3778036 -0.3570087 -0.8542888
vn -0.01718105 -0.8577755 -0.5137373
vn 0.8839683 -0.4616768 -0.07385574
vn -0.4427769 -0.8577754 0.2610939
vn 0.4118704 -0.4616835 0.7856278
vn 0.2345484 -0.962222 -0.1382599
vn 0.009134541 -0.9622245 0.2721041
vt 0.1302928 0.9716269
vt 0.1294388 0.9718953
vt 0.1302928 0.9871728
vt 0.1684058 0.315113
vt 0.1760537 0.4390602
vt 0.1760537 0.3189892
vt 0.1684058 0.4344136
vt 0.1536469 0.3112222
vt 0.1679977 0.3143539
vt 0.1540578 0.3106793
vt 0.1536469 0.4297541
vt 0.1465359 0.3112082
vt 0.1465359 0.4297402
vt 0.2406307 0.314566
vt 0.2482736 0.4292114
vt 0.2482736 0.3106794
vt 0.2406307 0.4338667
vt 0.2258716 0.3184559
vt 0.2258716 0.438527
vt 0.2187556 0.3184598
vt 0.2187556 0.4385309
vt 0.5796884 0.2864115
vt 0.4796868 0.2793542
vt 0.4796248 0.2867397
vt 0.5797269 0.2789247
vt 0.4751615 0.2643837
vt 0.5751287 0.2641168
vt 0.4705681 0.2567984
vt 0.5704978 0.2567984
vt 0.5705541 0.2507133
vt 0.4705681 0.2433325
vt 0.4706241 0.2507133
vt 0.5705289 0.2432335
vt 0.5751208 0.2284281
vt 0.4750984 0.2283627
vt 0.5797445 0.2211001
vt 0.4796807 0.2207719
vt 0.3564911 0.5612347
vt 0.3651257 0.4573157
vt 0.3564911 0.4564622
vt 0.3651257 0.5612305
vt 0.3814794 0.4520419
vt 0.3814794 0.5565705
vt 0.3654766 0.4562468
vt 0.3810358 0.4512313
vt 0.3891987 0.5519157
vt 0.3891987 0.4460279
vt 0.346996 0.1426017
vt 0.4611819 0.1426017
vt 0.4611778 0.1348809
vt 0.346992 0.1348809
vt 0.4565177 0.1194582
vt 0.3423328 0.1194582
vt 0.4518625 0.1117562
vt 0.3376767 0.1117562
vt 0.2009063 0.271906
vt 0.3254952 0.2640216
vt 0.2055512 0.2640216
vt 0.3208494 0.271906
vt 0.196246 0.2873274
vt 0.2001422 0.2723188
vt 0.1957266 0.2869318
vt 0.31619 0.2873274
vt 0.1962315 0.2948645
vt 0.3161755 0.2948645
vt 0.02600633 0.3153355
vt 0.03388564 0.4306235
vt 0.03388564 0.3106794
vt 0.02600633 0.4352787
vt 0.01058485 0.3199947
vt 0.01058485 0.4399388
vt 0.003042544 0.3199989
vt 0.003042544 0.4399429
vt 0.4752412 0.1939081
vt 0.5800452 0.1869869
vt 0.4798874 0.1869869
vt 0.5753978 0.1939081
vt 0.470581 0.207758
vt 0.5707388 0.207758
vt 0.4705681 0.2146868
vt 0.5707259 0.2146868
vt 0.4752247 0.1601186
vt 0.570726 0.1532019
vt 0.4705681 0.1532019
vt 0.5753814 0.1601186
vt 0.4798838 0.1739685
vt 0.5800416 0.1739685
vt 0.4798874 0.1809018
vt 0.5800453 0.1809018
vt 0.4887293 0.4770729
vt 0.4705681 0.4698242
vt 0.470643 0.4775298
vt 0.4890395 0.4693629
vt 0.4750491 0.4543317
vt 0.5061058 0.4777074
vt 0.4926358 0.4538839
vt 0.4796041 0.4465444
vt 0.4959219 0.4461148
vt 0.5062819 0.4699994
vt 0.5086015 0.4545397
vt 0.510745 0.446788
vt 0.5677108 0.4693617
vt 0.5677965 0.4770657
vt 0.5721563 0.4538863
vt 0.5766887 0.4461148
vt 0.4643871 0.0326843
vt 0.3483811 0.02575681
vt 0.3479957 0.0326843
vt 0.464483 0.02565182
vt 0.4600327 0.01083088
vt 0.3432224 0.01097406
vt 0.3473118 0.02536071
vt 0.3424286 0.01136933
vt 0.4554875 0.003042525
vt 0.3376767 0.0031188
vt 0.04464485 0.04634629
vt 0.188243 0.03997255
vt 0.04929245 0.03997255
vt 0.183594 0.04634629
vt 0.03998418 0.05864641
vt 0.1789348 0.0586464
vt 0.03997256 0.06457268
vt 0.1789231 0.06457267
vt 0.04462975 0.07702733
vt 0.1789232 0.07065776
vt 0.03997256 0.07065777
vt 0.1835789 0.07702732
vt 0.04928878 0.08932754
vt 0.1882394 0.08932754
vt 0.04929206 0.09525809
vt 0.1882427 0.09525808
vt 0.4751344 0.4163963
vt 0.4886545 0.4090714
vt 0.4705681 0.4086145
vt 0.4919509 0.4168354
vt 0.4796144 0.4318893
vt 0.506031 0.408437
vt 0.4955471 0.4323145
vt 0.4795291 0.4395999
vt 0.4958469 0.4400296
vt 0.51067 0.4393564
vt 0.5081849 0.4161837
vt 0.5677224 0.4090786
vt 0.5722643 0.416845
vt 0.5105044 0.4316434
vt 0.5766144 0.4400296
vt 0.5767107 0.4323205
vt 0.5730227 0.4172751
vt 0.5772354 0.4319387
vt 0.0641918 0.3157474
vt 0.07235847 0.429762
vt 0.07235847 0.3106794
vt 0.06433488 0.4347196
vt 0.04799793 0.3202374
vt 0.04822823 0.439751
vt 0.04839087 0.3192207
vt 0.06377061 0.3149564
vt 0.03997073 0.319661
vt 0.04014301 0.4398174
vt 0.09549037 0.1630284
vt 0.1028834 0.2933784
vt 0.1028834 0.1594433
vt 0.09549037 0.298034
vt 0.08165803 0.1666166
vt 0.08165803 0.3026944
vt 0.07521864 0.1666204
vt 0.07521864 0.3026981
vt 0.06173597 0.1635781
vt 0.06913356 0.3032312
vt 0.06913356 0.1671535
vt 0.06173597 0.2985836
vt 0.04790384 0.1599888
vt 0.06134209 0.1628195
vt 0.04832958 0.1594433
vt 0.04790384 0.2939239
vt 0.04146919 0.1599756
vt 0.04146919 0.2939107
vt 0.1962886 0.2579365
vt 0.3153719 0.2579365
vt 0.3154547 0.2498589
vt 0.1957267 0.2499181
vt 0.3204787 0.2337162
vt 0.2002185 0.2337209
vt 0.3254273 0.225721
vt 0.2052705 0.2255489
vt 0.3203866 0.06641495
vt 0.1957266 0.05844872
vt 0.1957694 0.06553875
vt 0.3206476 0.05910251
vt 0.3261292 0.04478147
vt 0.3217061 0.05875159
vt 0.3269063 0.04521185
vt 0.2002787 0.0445649
vt 0.3315816 0.03777118
vt 0.2048725 0.03777119
vt 0.3426811 0.4511881
vt 0.350406 0.5619622
vt 0.350406 0.4571898
vt 0.3426811 0.5573177
vt 0.3263271 0.446028
vt 0.3263271 0.552659
vt 0.3176979 0.4467563
vt 0.3176979 0.552644
vt 0.4900831 0.1086179
vt 0.4797361 0.1012347
vt 0.4796936 0.1089667
vt 0.4900845 0.1006187
vt 0.4751895 0.08573703
vt 0.5145611 0.1009299
vt 0.514767 0.1086418
vt 0.580003 0.1089667
vt 0.5800591 0.1012573
vt 0.4891762 0.08476066
vt 0.4705681 0.0779511
vt 0.4882665 0.07690194
vt 0.5099669 0.07774705
vt 0.5121611 0.08548249
vt 0.5709499 0.07806256
vt 0.5755321 0.08580526
vt 0.5762928 0.08623138
vt 0.5805818 0.1008728
vt 0.5100033 0.1462716
vt 0.5709855 0.145956
vt 0.5709398 0.1382516
vt 0.5102195 0.1385647
vt 0.4883121 0.1391226
vt 0.4883032 0.1471169
vt 0.4706045 0.1460675
vt 0.4705681 0.1383447
vt 0.5126196 0.1231173
vt 0.575466 0.1227996
vt 0.4892201 0.1232644
vt 0.5148035 0.1153769
vt 0.5800388 0.1150518
vt 0.4901192 0.1154005
vt 0.4797301 0.1150518
vt 0.4751478 0.1228307
vt 0.4743806 0.1232293
vt 0.3376911 0.1718167
vt 0.3376767 0.1795323
vt 0.4518625 0.1795323
vt 0.4518768 0.1718167
vt 0.4565361 0.156394
vt 0.3423512 0.156394
vt 0.346996 0.1486868
vt 0.4611818 0.1486868
vt 0.3128241 0.4332301
vt 0.320617 0.4377664
vt 0.320617 0.3213747
vt 0.3127571 0.3158399
vt 0.2980033 0.4287805
vt 0.2979746 0.3106794
vt 0.291052 0.3110548
vt 0.2909756 0.4288663
vt 0.1340197 0.434687
vt 0.1404508 0.4299909
vt 0.1400939 0.3106794
vt 0.1337451 0.3153769
vt 0.1199432 0.3201244
vt 0.1200393 0.4394359
vt 0.1202849 0.3190863
vt 0.13329 0.3146123
vt 0.11249 0.3201755
vt 0.11249 0.4394878
vt 0.326183 0.01005097
vt 0.3203426 0.00304253
vt 0.1957266 0.00391873
vt 0.2003309 0.01070799
vt 0.3315916 0.02437134
vt 0.2048821 0.02459159
vt 0.2048301 0.03168609
vt 0.3315381 0.0316861
vt 0.2038505 0.0242242
vt 0.1995619 0.01114337
vt 0.07844356 0.429992
vt 0.08624912 0.3107395
vt 0.07880045 0.3106794
vt 0.08598827 0.4300528
vt 0.1000512 0.3154875
vt 0.09996893 0.4348002
vt 0.08633035 0.431086
vt 0.09951522 0.4355636
vt 0.1064049 0.4394878
vt 0.1064049 0.3201744
vt 0.268922 0.9431736
vt 0.2689221 0.9579314
vt 0.2699154 0.9574654
vt 0.269916 0.9435981
vt 0.2827543 0.9357282
vt 0.2830069 0.9643872
vt 0.2830082 0.9365519
vt 0.296587 0.9430406
vt 0.2960998 0.9434738
vt 0.2960991 0.9573411
vt 0.296587 0.9577984
vt 0.2827543 0.9652438
vt 0.4731179 0.8893306
vt 0.4872797 0.8815872
vt 0.4864088 0.8809183
vt 0.4730173 0.88824
vt 0.4589572 0.8802816
vt 0.4595694 0.879644
vt 0.4864104 0.8649688
vt 0.4589572 0.863484
vt 0.459571 0.8636945
vt 0.4729625 0.8563728
vt 0.4731183 0.8557427
vt 0.4872801 0.8647935
vt 0.9756771 0.0615286
vt 0.9826863 0.04852042
vt 0.9818675 0.04878594
vt 0.9752573 0.06105348
vt 0.9621187 0.06105348
vt 0.9616545 0.06152858
vt 0.9555045 0.04878592
vt 0.954641 0.0485204
vt 0.9621148 0.03651837
vt 0.9752533 0.03651838
vt 0.9616503 0.03551261
vt 0.975673 0.03551261
vt 0.9415708 0.2733456
vt 0.9262882 0.2732827
vt 0.9269003 0.2738959
vt 0.9413487 0.2739555
vt 0.9475498 0.2858207
vt 0.9481844 0.2860004
vt 0.9393541 0.2977253
vt 0.9186803 0.2858168
vt 0.9395154 0.2985922
vt 0.9247892 0.2977262
vt 0.9175968 0.2858867
vt 0.9241168 0.2985922
vt 0.2214659 0.8636498
vt 0.2208575 0.8804255
vt 0.2214659 0.8810643
vt 0.2208571 0.8638588
vt 0.2071425 0.8557427
vt 0.2073085 0.8563797
vt 0.1937007 0.8653913
vt 0.192838 0.8652157
vt 0.1937009 0.881959
vt 0.207231 0.8894707
vt 0.1928382 0.8826299
vt 0.2071427 0.8905714
vt 0.9615612 0.4058036
vt 0.9554673 0.3932028
vt 0.954641 0.3929414
vt 0.9619881 0.4053224
vt 0.9749463 0.4053224
vt 0.9754065 0.4058036
vt 0.9814715 0.393203
vt 0.9619926 0.3810835
vt 0.9823316 0.3929416
vt 0.9749508 0.3810835
vt 0.961566 0.3800798
vt 0.9754114 0.3800798
vt 0.9754139 0.3482653
vt 0.981497 0.3608792
vt 0.9823387 0.3611302
vt 0.9749725 0.3487583
vt 0.9620124 0.3487583
vt 0.961565 0.3482654
vt 0.9554887 0.3608792
vt 0.954641 0.3611303
vt 0.9620131 0.3729999
vt 0.9749733 0.3729999
vt 0.9615659 0.3739946
vt 0.9754148 0.3739946
vt 0.5355135 0.9284604
vt 0.5233357 0.920848
vt 0.5224801 0.9215202
vt 0.5224796 0.9059308
vt 0.5355856 0.9273718
vt 0.5485456 0.919814
vt 0.5233365 0.9061004
vt 0.5355126 0.8972842
vt 0.5479169 0.919191
vt 0.5485456 0.9042257
vt 0.5479177 0.9044434
vt 0.5356678 0.8979196
vt 0.9484344 0.1546983
vt 0.940247 0.1679021
vt 0.9407253 0.1688893
vt 0.9252918 0.1688893
vt 0.9257054 0.1678969
vt 0.9175968 0.1547044
vt 0.9184136 0.1544593
vt 0.9475717 0.1544689
vt 0.9407515 0.140497
vt 0.9257377 0.1410252
vt 0.9253192 0.1404918
vt 0.9402792 0.1410293
vt 0.9402778 0.06521156
vt 0.9184316 0.05182033
vt 0.9257353 0.06521149
vt 0.9253046 0.06568196
vt 0.9407275 0.06568202
vt 0.9475878 0.05182039
vt 0.9484425 0.05154907
vt 0.9257417 0.03842923
vt 0.9175969 0.05154905
vt 0.925312 0.03741647
vt 0.9402841 0.03842922
vt 0.9407348 0.03741647
vt 0.9615763 0.5044213
vt 0.9619983 0.5049019
vt 0.9749645 0.5049019
vt 0.9754169 0.5044213
vt 0.9814606 0.516654
vt 0.9823222 0.5169138
vt 0.955474 0.516654
vt 0.9749364 0.5284061
vt 0.975387 0.529406
vt 0.9619702 0.5284061
vt 0.9546412 0.5169137
vt 0.9615464 0.529406
vt 0.9615598 0.4669049
vt 0.975402 0.4669049
vt 0.9749685 0.4658956
vt 0.9823254 0.454044
vt 0.9620124 0.4658956
vt 0.954641 0.4540441
vt 0.9814928 0.4537759
vt 0.9754067 0.4411827
vt 0.9554925 0.453776
vt 0.9615645 0.4411827
vt 0.9620168 0.4416563
vt 0.9749729 0.4416563
vt 0.8046684 0.8799636
vt 0.8046684 0.8638157
vt 0.8036588 0.8642663
vt 0.7898554 0.8557427
vt 0.8036584 0.8795308
vt 0.7897993 0.8880028
vt 0.7895856 0.8565949
vt 0.7750416 0.8638174
vt 0.7895297 0.8871667
vt 0.7750402 0.8799631
vt 0.7755151 0.8642633
vt 0.7755147 0.879531
vt 0.07375447 0.9716271
vt 0.06214823 0.9777877
vt 0.06315389 0.9782237
vt 0.06214832 0.9900893
vt 0.07402028 0.972456
vt 0.08536129 0.977768
vt 0.06315397 0.9896322
vt 0.07375465 0.9962303
vt 0.07402045 0.9953817
vt 0.08536129 0.9900696
vt 0.08488675 0.9782054
vt 0.08488675 0.9896138
vt 0.04445194 0.971627
vt 0.03284127 0.9777742
vt 0.03385188 0.9782257
vt 0.03284137 0.9900767
vt 0.04472243 0.9724705
vt 0.05606313 0.9777823
vt 0.03385197 0.9896349
vt 0.04445196 0.996232
vt 0.04472244 0.9953978
vt 0.05606313 0.9900848
vt 0.05559297 0.9782333
vt 0.05559298 0.9896426
vt 0.9401158 0.1749743
vt 0.9246364 0.1749744
vt 0.9252986 0.1758434
vt 0.9175968 0.1879492
vt 0.9399349 0.1758445
vt 0.9485559 0.1879491
vt 0.9186794 0.1880421
vt 0.9260367 0.2009239
vt 0.9266592 0.2003106
vt 0.9415165 0.2009239
vt 0.9479145 0.1881129
vt 0.9412954 0.2003115
vt 0.1052544 0.9207932
vt 0.1187956 0.9295378
vt 0.1186973 0.9284369
vt 0.1323369 0.9221557
vt 0.1058652 0.9201506
vt 0.1052544 0.9046664
vt 0.1314651 0.9214762
vt 0.1323371 0.9060288
vt 0.1314652 0.9061941
vt 0.1187957 0.8972843
vt 0.1058653 0.9048689
vt 0.1186331 0.8979083
vt 0.9615675 0.3421803
vt 0.9754171 0.3421803
vt 0.9749695 0.3411754
vt 0.9823403 0.3293153
vt 0.9620059 0.3411754
vt 0.9546409 0.3293154
vt 0.9814937 0.3290516
vt 0.9754138 0.31645
vt 0.9554785 0.3290517
vt 0.9615641 0.3164501
vt 0.9749664 0.3169279
vt 0.9620027 0.316928
vt 0.9754158 0.284632
vt 0.9615658 0.2846319
vt 0.9620097 0.2856414
vt 0.954641 0.2974982
vt 0.9749736 0.2856415
vt 0.9823409 0.2974983
vt 0.9554839 0.2977664
vt 0.9615662 0.3103649
vt 0.9814996 0.2977665
vt 0.9754161 0.3103649
vt 0.96201 0.3098915
vt 0.9749738 0.3098915
vt 0.92531 0.1061178
vt 0.9257424 0.1065975
vt 0.9402837 0.1065975
vt 0.9407318 0.1061178
vt 0.9475882 0.1200005
vt 0.9484404 0.1202624
vt 0.9184335 0.1200004
vt 0.9402793 0.1334035
vt 0.9407273 0.1344067
vt 0.925738 0.1334035
vt 0.9175968 0.1202624
vt 0.9253054 0.1344067
vt 0.861627 0.9049966
vt 0.861627 0.9204193
vt 0.8626347 0.9199815
vt 0.8757697 0.9281295
vt 0.8626347 0.9054394
vt 0.8757696 0.8972843
vt 0.8760362 0.9272875
vt 0.8899127 0.9204171
vt 0.8760361 0.8981314
vt 0.8899127 0.9049944
vt 0.8894376 0.9199794
vt 0.8894376 0.9054374
vt 0.9253047 0.1000327
vt 0.9407275 0.1000326
vt 0.9402776 0.09956215
vt 0.9257352 0.09956226
vt 0.9184315 0.08617114
vt 0.9475875 0.08617096
vt 0.9484424 0.08589957
vt 0.9257414 0.07277992
vt 0.9175968 0.08589982
vt 0.9253118 0.07176711
vt 0.9402838 0.07277992
vt 0.9407347 0.07176711
vt 0.9175969 0.01718708
vt 0.9253067 0.03133139
vt 0.9257426 0.03032809
vt 0.9407292 0.03133139
vt 0.9184369 0.01692507
vt 0.9253094 0.003042547
vt 0.9402844 0.03032808
vt 0.9484417 0.01718716
vt 0.9475927 0.01692515
vt 0.9407319 0.003042548
vt 0.9257452 0.003522138
vt 0.940287 0.003522139
vt 0.8555418 0.9204186
vt 0.8555418 0.9049959
vt 0.8545341 0.9054369
vt 0.8413991 0.8972842
vt 0.8545341 0.919979
vt 0.8413991 0.9281297
vt 0.8411326 0.8981295
vt 0.8272561 0.9049953
vt 0.8411326 0.9272859
vt 0.8272561 0.920418
vt 0.8277311 0.9054364
vt 0.8277311 0.9199785
vt 0.5928639 0.8802913
vt 0.5928639 0.8639302
vt 0.5918574 0.8643775
vt 0.5779585 0.8557426
vt 0.5918574 0.8798606
vt 0.5779586 0.8884649
vt 0.5776929 0.8565969
vt 0.5630529 0.8639162
vt 0.577693 0.8876279
vt 0.563053 0.8802774
vt 0.5635285 0.8798473
vt 0.5635285 0.8643642
vt 0.6358961 0.8972842
vt 0.6229117 0.9043074
vt 0.6237794 0.9049771
vt 0.6229093 0.9197999
vt 0.6359872 0.898375
vt 0.6488794 0.9057534
vt 0.6237769 0.919626
vt 0.6358958 0.9282723
vt 0.6482628 0.9063835
vt 0.6488794 0.9212521
vt 0.6360525 0.9276346
vt 0.6482603 0.9210324
vt 0.4959414 0.9431186
vt 0.495461 0.9435459
vt 0.495461 0.9574317
vt 0.4959414 0.9578794
vt 0.4828584 0.9365657
vt 0.4828584 0.9643931
vt 0.4825982 0.9652498
vt 0.4702556 0.9574128
vt 0.4692552 0.9578594
vt 0.4702556 0.943527
vt 0.4825982 0.9357283
vt 0.4692552 0.9430987
vt 0.3698542 0.9431098
vt 0.3698542 0.9578716
vt 0.3708626 0.9574348
vt 0.3834607 0.9652519
vt 0.3708626 0.9435557
vt 0.3834607 0.9357283
vt 0.3837278 0.9365764
vt 0.3970677 0.9431085
vt 0.3837278 0.9644129
vt 0.3970677 0.9578704
vt 0.3965931 0.9435545
vt 0.3965931 0.9574336
usemtl MV_RockHexic_RockSlanted
f 1/1/1 3/3/3 2/2/2
f 4/4/4 6/6/6 5/5/5
f 4/4/4 5/5/5 7/7/7
f 8/8/8 4/4/4 7/7/7
f 8/8/8 9/9/9 4/4/4
f 8/8/8 10/10/10 9/9/9
f 8/8/8 7/7/7 11/11/11
f 12/12/12 8/8/8 11/11/11
f 12/12/12 11/11/11 13/13/13
f 14/14/14 16/16/16 15/15/15
f 14/14/14 15/15/15 17/17/17
f 18/18/18 14/14/14 17/17/17
f 18/18/18 17/17/17 19/19/19
f 20/20/20 18/18/18 19/19/19
f 20/20/20 19/19/19 21/21/21
f 22/22/22 24/24/24 23/23/23
f 22/22/22 23/23/23 25/25/25
f 25/25/25 23/23/23 26/26/26
f 25/25/25 26/26/26 27/27/27
f 27/27/27 26/26/26 28/28/28
f 27/27/27 28/28/28 29/29/29
f 30/30/30 32/32/32 31/31/31
f 30/30/30 31/31/31 33/33/33
f 31/31/31 34/34/34 33/33/33
f 31/31/31 35/35/35 34/34/34
f 35/35/35 36/36/36 34/34/34
f 35/35/35 37/37/37 36/36/36
f 38/38/38 40/40/40 39/39/39
f 38/38/38 39/39/39 41/41/41
f 41/41/41 39/39/39 42/42/42
f 41/41/41 42/42/42 43/43/43
f 42/42/42 39/39/39 44/44/44
f 42/42/42 44/44/44 45/45/45
f 42/42/42 46/46/46 43/43/43
f 42/42/42 47/47/47 46/46/46
f 48/48/48 50/50/50 49/49/49
f 48/48/48 51/51/51 50/50/50
f 51/51/51 52/52/52 50/50/50
f 51/51/51 53/53/53 52/52/52
f 53/53/53 54/54/54 52/52/52
f 53/53/53 55/55/55 54/54/54
f 56/56/56 58/58/58 57/57/57
f 56/56/56 57/57/57 59/59/59
f 60/60/60 56/56/56 59/59/59
f 60/60/60 61/61/61 56/56/56
f 60/60/60 62/62/62 61/61/61
f 60/60/60 59/59/59 63/63/63
f 64/64/64 60/60/60 63/63/63
f 64/64/64 63/63/63 65/65/65
f 66/66/66 68/68/68 67/67/67
f 66/66/66 67/67/67 69/69/69
f 70/70/70 66/66/66 69/69/69
f 70/70/70 69/69/69 71/71/71
f 72/72/72 70/70/70 71/71/71
f 72/72/72 71/71/71 73/73/73
f 74/74/74 76/76/76 75/75/75
f 74/74/74 75/75/75 77/77/77
f 78/78/78 74/74/74 77/77/77
f 78/78/78 77/77/77 79/79/79
f 80/80/80 78/78/78 79/79/79
f 80/80/80 79/79/79 81/81/81
f 82/82/82 84/84/84 83/83/83
f 82/82/82 83/83/83 85/85/85
f 86/86/86 82/82/82 85/85/85
f 86/86/86 85/85/85 87/87/87
f 88/88/88 86/86/86 87/87/87
f 88/88/88 87/87/87 89/89/89
f 90/90/90 92/92/92 91/91/91
f 90/90/90 91/91/91 93/93/93
f 93/93/93 91/91/91 94/94/94
f 95/95/95 90/90/90 93/93/93
f 93/93/93 94/94/94 96/96/96
f 96/96/96 94/94/94 97/97/97
f 96/96/96 97/97/97 98/98/98
f 95/95/95 93/93/93 99/99/99
f 99/99/99 93/93/93 96/96/96
f 100/100/100 96/96/96 98/98/98
f 99/99/99 96/96/96 100/100/100
f 100/100/100 98/98/98 101/101/101
f 95/95/95 99/99/99 102/102/102
f 102/102/102 99/99/99 100/100/100
f 95/95/95 102/102/102 103/103/103
f 102/102/102 100/100/100 104/104/104
f 104/104/104 100/100/100 101/101/101
f 104/104/104 101/101/101 105/105/105
f 106/106/106 108/108/108 107/107/107
f 106/106/106 107/107/107 109/109/109
f 107/107/107 110/110/110 109/109/109
f 107/107/107 111/111/111 110/110/110
f 111/111/111 107/107/107 112/112/112
f 111/111/111 112/112/112 113/113/113
f 111/111/111 114/114/114 110/110/110
f 111/111/111 115/115/115 114/114/114
f 116/116/116 118/118/118 117/117/117
f 116/116/116 117/117/117 119/119/119
f 120/120/120 116/116/116 119/119/119
f 120/120/120 119/119/119 121/121/121
f 122/122/122 120/120/120 121/121/121
f 122/122/122 121/121/121 123/123/123
f 124/124/124 126/126/126 125/125/125
f 124/124/124 125/125/125 127/127/127
f 128/128/128 124/124/124 127/127/127
f 128/128/128 127/127/127 129/129/129
f 130/130/130 128/128/128 129/129/129
f 130/130/130 129/129/129 131/131/131
f 132/132/132 134/134/134 133/133/133
f 132/132/132 133/133/133 135/135/135
f 136/136/136 132/132/132 135/135/135
f 135/135/135 133/133/133 137/137/137
f 136/136/136 135/135/135 138/138/138
f 139/139/139 136/136/136 138/138/138
f 139/139/139 138/138/138 140/140/140
f 141/141/141 140/140/140 138/138/138
f 135/135/135 137/137/137 142/142/142
f 138/138/138 135/135/135 142/142/142
f 142/142/142 137/137/137 143/143/143
f 142/142/142 143/143/143 144/144/144
f 141/141/141 138/138/138 145/145/145
f 138/138/138 142/142/142 145/145/145
f 145/145/145 142/142/142 144/144/144
f 146/146/146 141/141/141 145/145/145
f 146/146/146 145/145/145 147/147/147
f 145/145/145 144/144/144 147/147/147
f 147/147/147 144/144/144 148/148/148
f 147/147/147 148/148/148 149/149/149
f 150/150/150 152/152/152 151/151/151
f 150/150/150 151/151/151 153/153/153
f 154/154/154 150/150/150 153/153/153
f 154/154/154 153/153/153 155/155/155
f 150/150/150 154/154/154 156/156/156
f 150/150/150 156/156/156 157/157/157
f 158/158/158 154/154/154 155/155/155
f 158/158/158 155/155/155 159/159/159
f 160/160/160 162/162/162 161/161/161
f 160/160/160 161/161/161 163/163/163
f 164/164/164 160/160/160 163/163/163
f 164/164/164 163/163/163 165/165/165
f 166/166/166 164/164/164 165/165/165
f 166/166/166 165/165/165 167/167/167
f 168/168/168 170/170/170 169/169/169
f 168/168/168 169/169/169 171/171/171
f 172/172/172 168/168/168 171/171/171
f 172/172/172 173/173/173 168/168/168
f 172/172/172 174/174/174 173/173/173
f 172/172/172 171/171/171 175/175/175
f 176/176/176 172/172/172 175/175/175
f 176/176/176 175/175/175 177/177/177
f 178/178/178 180/180/180 179/179/179
f 178/178/178 181/181/181 180/180/180
f 181/181/181 182/182/182 180/180/180
f 181/181/181 183/183/183 182/182/182
f 183/183/183 184/184/184 182/182/182
f 183/183/183 185/185/185 184/184/184
f 186/186/186 188/188/188 187/187/187
f 186/186/186 187/187/187 189/189/189
f 187/187/187 190/190/190 189/189/189
f 190/190/190 191/191/191 189/189/189
f 190/190/190 192/192/192 191/191/191
f 187/187/187 193/193/193 190/190/190
f 193/193/193 194/194/194 190/190/190
f 193/193/193 195/195/195 194/194/194
f 196/196/196 198/198/198 197/197/197
f 196/196/196 197/197/197 199/199/199
f 200/200/200 196/196/196 199/199/199
f 200/200/200 199/199/199 201/201/201
f 202/202/202 200/200/200 201/201/201
f 202/202/202 201/201/201 203/203/203
f 204/204/204 206/206/206 205/205/205
f 204/204/204 205/205/205 207/207/207
f 207/207/207 205/205/205 208/208/208
f 204/204/204 207/207/207 209/209/209
f 204/204/204 209/209/209 210/210/210
f 211/211/211 210/210/210 209/209/209
f 211/211/211 209/209/209 212/212/212
f 207/207/207 208/208/208 213/213/213
f 213/213/213 208/208/208 214/214/214
f 213/213/213 214/214/214 215/215/215
f 213/213/213 215/215/215 216/216/216
f 207/207/207 213/213/213 217/217/217
f 213/213/213 216/216/216 217/217/217
f 207/207/207 217/217/217 209/209/209
f 217/217/217 216/216/216 218/218/218
f 217/217/217 218/218/218 219/219/219
f 209/209/209 217/217/217 219/219/219
f 209/209/209 219/219/219 212/212/212
f 220/220/220 212/212/212 219/219/219
f 220/220/220 221/221/221 212/212/212
f 222/222/222 224/224/224 223/223/223
f 222/222/222 225/225/225 224/224/224
f 222/222/222 226/226/226 225/225/225
f 222/222/222 227/227/227 226/226/226
f 228/228/228 226/226/226 227/227/227
f 228/228/228 229/229/229 226/226/226
f 224/224/224 225/225/225 230/230/230
f 224/224/224 230/230/230 231/231/231
f 225/225/225 226/226/226 232/232/232
f 229/229/229 232/232/232 226/226/226
f 225/225/225 232/232/232 230/230/230
f 231/231/231 230/230/230 233/233/233
f 231/231/231 233/233/233 234/234/234
f 230/230/230 235/235/235 233/233/233
f 230/230/230 232/232/232 235/235/235
f 232/232/232 236/236/236 235/235/235
f 232/232/232 237/237/237 236/236/236
f 229/229/229 237/237/237 232/232/232
f 229/229/229 238/238/238 237/237/237
f 239/239/239 241/241/241 240/240/240
f 239/239/239 242/242/242 241/241/241
f 239/239/239 243/243/243 242/242/242
f 239/239/239 244/244/244 243/243/243
f 245/245/245 243/243/243 244/244/244
f 245/245/245 246/246/246 243/243/243
f 247/247/247 249/249/249 248/248/248
f 247/247/247 250/250/250 249/249/249
f 251/251/251 250/250/250 247/247/247
f 251/251/251 252/252/252 250/250/250
f 253/253/253 252/252/252 251/251/251
f 253/253/253 251/251/251 254/254/254
f 255/255/255 257/257/257 256/256/256
f 255/255/255 258/258/258 257/257/257
f 259/259/259 258/258/258 255/255/255
f 259/259/259 255/255/255 260/260/260
f 258/258/258 259/259/259 261/261/261
f 258/258/258 261/261/261 262/262/262
f 263/263/263 259/259/259 260/260/260
f 263/263/263 260/260/260 264/264/264
f 265/265/265 267/267/267 266/266/266
f 265/265/265 268/268/268 267/267/267
f 269/269/269 268/268/268 265/265/265
f 269/269/269 270/270/270 268/268/268
f 271/271/271 270/270/270 269/269/269
f 271/271/271 269/269/269 272/272/272
f 268/268/268 270/270/270 273/273/273
f 268/268/268 273/273/273 274/274/274
f 275/275/275 277/277/277 276/276/276
f 275/275/275 276/276/276 278/278/278
f 278/278/278 276/276/276 279/279/279
f 278/278/278 279/279/279 280/280/280
f 280/280/280 281/281/281 278/278/278
f 280/280/280 282/282/282 281/281/281
f 279/279/279 283/283/283 280/280/280
f 279/279/279 284/284/284 283/283/283
f 285/285/285 287/287/287 286/286/286
f 285/285/285 288/288/288 287/287/287
f 289/289/289 288/288/288 285/285/285
f 290/290/290 287/287/287 288/288/288
f 289/289/289 291/291/291 288/288/288
f 290/290/290 288/288/288 291/291/291
f 292/292/292 291/291/291 289/289/289
f 292/292/292 293/293/293 291/291/291
f 292/292/292 294/294/294 293/293/293
f 294/294/294 291/291/291 293/293/293
f 294/294/294 290/290/290 291/291/291
f 292/292/292 295/295/295 294/294/294
f 295/295/295 290/290/290 294/294/294
f 295/295/295 296/296/296 290/290/290
f 297/297/297 299/299/299 298/298/298
f 297/297/297 300/300/300 299/299/299
f 301/301/301 300/300/300 297/297/297
f 302/302/302 299/299/299 300/300/300
f 301/301/301 302/302/302 300/300/300
f 302/302/302 303/303/303 299/299/299
f 304/304/304 302/302/302 301/301/301
f 304/304/304 305/305/305 302/302/302
f 305/305/305 303/303/303 302/302/302
f 304/304/304 306/306/306 305/305/305
f 305/305/305 306/306/306 303/303/303
f 304/304/304 307/307/307 306/306/306
f 307/307/307 303/303/303 306/306/306
f 307/307/307 308/308/308 303/303/303
f 309/309/309 311/311/311 310/310/310
f 309/309/309 312/312/312 311/311/311
f 309/309/309 313/313/313 312/312/312
f 309/309/309 314/314/314 313/313/313
f 312/312/312 313/313/313 315/315/315
f 314/314/314 315/315/315 313/313/313
f 312/312/312 315/315/315 311/311/311
f 314/314/314 316/316/316 315/315/315
f 311/311/311 315/315/315 317/317/317
f 316/316/316 317/317/317 315/315/315
f 311/311/311 317/317/317 318/318/318
f 316/316/316 319/319/319 317/317/317
f 320/320/320 318/318/318 317/317/317
f 320/320/320 317/317/317 319/319/319
f 321/321/321 323/323/323 322/322/322
f 321/321/321 324/324/324 323/323/323
f 321/321/321 325/325/325 324/324/324
f 321/321/321 326/326/326 325/325/325
f 324/324/324 327/327/327 323/323/323
f 324/324/324 325/325/325 327/327/327
f 326/326/326 327/327/327 325/325/325
f 327/327/327 328/328/328 323/323/323
f 326/326/326 329/329/329 327/327/327
f 327/327/327 330/330/330 328/328/328
f 329/329/329 330/330/330 327/327/327
f 331/331/331 328/328/328 330/330/330
f 329/329/329 332/332/332 330/330/330
f 331/331/331 330/330/330 332/332/332
f 333/333/333 335/335/335 334/334/334
f 333/333/333 334/334/334 336/336/336
f 337/337/337 333/333/333 336/336/336
f 337/337/337 336/336/336 338/338/338
f 337/337/337 338/338/338 339/339/339
f 336/336/336 339/339/339 338/338/338
f 336/336/336 334/334/334 339/339/339
f 337/337/337 339/339/339 340/340/340
f 334/334/334 341/341/341 339/339/339
f 341/341/341 340/340/340 339/339/339
f 334/334/334 342/342/342 341/341/341
f 341/341/341 343/343/343 340/340/340
f 342/342/342 343/343/343 341/341/341
f 342/342/342 344/344/344 343/343/343
f 345/345/345 347/347/347 346/346/346
f 345/345/345 346/346/346 348/348/348
f 345/345/345 348/348/348 349/349/349
f 349/349/349 348/348/348 346/346/346
f 345/345/345 349/349/349 350/350/350
f 349/349/349 346/346/346 351/351/351
f 350/350/350 349/349/349 351/351/351
f 351/351/351 346/346/346 352/352/352
f 350/350/350 351/351/351 353/353/353
f 351/351/351 352/352/352 354/354/354
f 353/353/353 351/351/351 354/354/354
f 355/355/355 354/354/354 352/352/352
f 353/353/353 354/354/354 356/356/356
f 355/355/355 356/356/356 354/354/354
f 357/357/357 359/359/359 358/358/358
f 357/357/357 358/358/358 360/360/360
f 357/357/357 360/360/360 361/361/361
f 358/358/358 361/361/361 360/360/360
f 357/357/357 361/361/361 362/362/362
f 362/362/362 361/361/361 363/363/363
f 358/358/358 363/363/363 361/361/361
f 362/362/362 363/363/363 364/364/364
f 358/358/358 365/365/365 363/363/363
f 364/364/364 363/363/363 365/365/365
f 358/358/358 366/366/366 365/365/365
f 364/364/364 365/365/365 367/367/367
f 368/368/368 365/365/365 366/366/366
f 368/368/368 367/367/367 365/365/365
f 369/369/369 371/371/371 370/370/370
f 370/370/370 371/371/371 372/372/372
f 369/369/369 370/370/370 373/373/373
f 374/374/374 369/369/369 373/373/373
f 370/370/370 372/372/372 375/375/375
f 375/375/375 373/373/373 370/370/370
f 376/376/376 375/375/375 372/372/372
f 374/374/374 373/373/373 377/377/377
f 375/375/375 377/377/377 373/373/373
f 378/378/378 374/374/374 377/377/377
f 376/376/376 378/378/378 379/379/379
f 378/378/378 377/377/377 379/379/379
f 380/380/380 377/377/377 375/375/375
f 376/376/376 380/380/380 375/375/375
f 376/376/376 379/379/379 380/380/380
f 380/380/380 379/379/379 377/377/377
f 381/381/381 383/383/383 382/382/382
f 384/384/384 382/382/382 383/383/383
f 384/384/384 385/385/385 382/382/382
f 386/386/386 385/385/385 384/384/384
f 386/386/386 387/387/387 385/385/385
f 387/387/387 382/382/382 385/385/385
f 387/387/387 388/388/388 382/382/382
f 389/389/389 381/381/381 388/388/388
f 388/388/388 387/387/387 390/390/390
f 391/391/391 390/390/390 387/387/387
f 389/389/389 388/388/388 392/392/392
f 391/391/391 389/389/389 392/392/392
f 388/388/388 390/390/390 392/392/392
f 391/391/391 392/392/392 390/390/390
f 393/393/393 395/395/395 394/394/394
f 396/396/396 395/395/395 393/393/393
f 396/396/396 393/393/393 397/397/397
f 397/397/397 393/393/393 398/398/398
f 393/393/393 394/394/394 398/398/398
f 397/397/397 398/398/398 399/399/399
f 400/400/400 398/398/398 394/394/394
f 401/401/401 400/400/400 394/394/394
f 401/401/401 402/402/402 400/400/400
f 399/399/399 398/398/398 403/403/403
f 400/400/400 403/403/403 398/398/398
f 402/402/402 403/403/403 400/400/400
f 399/399/399 403/403/403 404/404/404
f 402/402/402 404/404/404 403/403/403
f 405/405/405 407/407/407 406/406/406
f 405/405/405 408/408/408 407/407/407
f 406/406/406 407/407/407 409/409/409
f 408/408/408 409/409/409 407/407/407
f 408/408/408 410/410/410 409/409/409
f 406/406/406 409/409/409 411/411/411
f 410/410/410 412/412/412 409/409/409
f 411/411/411 409/409/409 412/412/412
f 410/410/410 413/413/413 412/412/412
f 411/411/411 412/412/412 414/414/414
f 413/413/413 414/414/414 412/412/412
f 415/415/415 411/411/411 414/414/414
f 413/413/413 416/416/416 414/414/414
f 415/415/415 414/414/414 416/416/416
f 417/417/417 419/419/419 418/418/418
f 420/420/420 418/418/418 419/419/419
f 417/417/417 421/421/421 419/419/419
f 422/422/422 421/421/421 417/417/417
f 420/420/420 419/419/419 423/423/423
f 423/423/423 419/419/419 421/421/421
f 424/424/424 420/420/420 423/423/423
f 422/422/422 425/425/425 421/421/421
f 423/423/423 421/421/421 425/425/425
f 426/426/426 425/425/425 422/422/422
f 424/424/424 427/427/427 426/426/426
f 426/426/426 427/427/427 425/425/425
f 425/425/425 428/428/428 423/423/423
f 424/424/424 423/423/423 428/428/428
f 425/425/425 427/427/427 428/428/428
f 424/424/424 428/428/428 427/427/427
f 429/429/429 431/431/431 430/430/430
f 432/432/432 430/430/430 431/431/431
f 429/429/429 433/433/433 431/431/431
f 434/434/434 433/433/433 429/429/429
f 432/432/432 431/431/431 435/435/435
f 435/435/435 431/431/431 433/433/433
f 436/436/436 432/432/432 435/435/435
f 434/434/434 437/437/437 433/433/433
f 435/435/435 433/433/433 437/437/437
f 438/438/438 437/437/437 434/434/434
f 436/436/436 435/435/435 439/439/439
f 438/438/438 436/436/436 439/439/439
f 437/437/437 439/439/439 435/435/435
f 438/438/438 439/439/439 440/440/440
f 437/437/437 440/440/440 439/439/439
f 438/438/438 440/440/440 437/437/437
f 441/441/441 443/443/443 442/442/442
f 444/444/444 442/442/442 443/443/443
f 441/441/441 445/445/445 443/443/443
f 446/446/446 445/445/445 441/441/441
f 444/444/444 443/443/443 447/447/447
f 445/445/445 447/447/447 443/443/443
f 448/448/448 444/444/444 447/447/447
f 448/448/448 447/447/447 449/449/449
f 445/445/445 449/449/449 447/447/447
f 450/450/450 448/448/448 449/449/449
f 450/450/450 451/451/451 446/446/446
f 446/446/446 451/451/451 445/445/445
f 450/450/450 449/449/449 452/452/452
f 452/452/452 449/449/449 445/445/445
f 452/452/452 445/445/445 451/451/451
f 450/450/450 452/452/452 451/451/451
f 453/453/453 455/455/455 454/454/454
f 456/456/456 454/454/454 455/455/455
f 453/453/453 457/457/457 455/455/455
f 458/458/458 457/457/457 453/453/453
f 456/456/456 455/455/455 459/459/459
f 459/459/459 455/455/455 457/457/457
f 460/460/460 456/456/456 459/459/459
f 460/460/460 459/459/459 461/461/461
f 459/459/459 457/457/457 461/461/461
f 462/462/462 460/460/460 461/461/461
f 462/462/462 463/463/463 458/458/458
f 458/458/458 463/463/463 457/457/457
f 457/457/457 464/464/464 461/461/461
f 462/462/462 461/461/461 464/464/464
f 457/457/457 463/463/463 464/464/464
f 462/462/462 464/464/464 463/463/463
f 465/465/465 467/467/467 466/466/466
f 468/468/468 466/466/466 467/467/467
f 465/465/465 469/469/469 467/467/467
f 470/470/470 469/469/469 465/465/465
f 468/468/468 467/467/467 471/471/471
f 472/472/472 468/468/468 471/471/471
f 473/473/473 471/471/471 467/467/467
f 472/472/472 471/471/471 473/473/473
f 473/473/473 467/467/467 469/469/469
f 474/474/474 472/472/472 473/473/473
f 474/474/474 475/475/475 470/470/470
f 470/470/470 475/475/475 469/469/469
f 469/469/469 476/476/476 473/473/473
f 474/474/474 473/473/473 476/476/476
f 469/469/469 475/475/475 476/476/476
f 474/474/474 476/476/476 475/475/475
f 477/477/477 479/479/479 478/478/478
f 480/480/480 478/478/478 479/479/479
f 477/477/477 481/481/481 479/479/479
f 482/482/482 481/481/481 477/477/477
f 480/480/480 479/479/479 483/483/483
f 481/481/481 483/483/483 479/479/479
f 484/484/484 480/480/480 483/483/483
f 484/484/484 483/483/483 485/485/485
f 481/481/481 485/485/485 483/483/483
f 486/486/486 484/484/484 485/485/485
f 482/482/482 487/487/487 481/481/481
f 486/486/486 487/487/487 482/482/482
f 485/485/485 481/481/481 487/487/487
f 486/486/486 485/485/485 488/488/488
f 485/485/485 487/487/487 488/488/488
f 486/486/486 488/488/488 487/487/487
f 489/489/489 491/491/491 490/490/490
f 492/492/492 490/490/490 491/491/491
f 489/489/489 493/493/493 491/491/491
f 494/494/494 493/493/493 489/489/489
f 492/492/492 491/491/491 495/495/495
f 495/495/495 491/491/491 493/493/493
f 496/496/496 492/492/492 495/495/495
f 494/494/494 497/497/497 493/493/493
f 495/495/495 493/493/493 497/497/497
f 498/498/498 497/497/497 494/494/494
f 496/496/496 495/495/495 499/499/499
f 498/498/498 496/496/496 499/499/499
f 495/495/495 497/497/497 500/500/500
f 498/498/498 500/500/500 497/497/497
f 495/495/495 500/500/500 499/499/499
f 498/498/498 499/499/499 500/500/500
f 501/501/501 503/503/503 502/502/502
f 504/504/504 502/502/502 503/503/503
f 501/501/501 505/505/505 503/503/503
f 506/506/506 505/505/505 501/501/501
f 504/504/504 503/503/503 507/507/507
f 507/507/507 503/503/503 505/505/505
f 508/508/508 504/504/504 507/507/507
f 506/506/506 509/509/509 505/505/505
f 507/507/507 505/505/505 509/509/509
f 510/510/510 509/509/509 506/506/506
f 508/508/508 507/507/507 511/511/511
f 510/510/510 508/508/508 511/511/511
f 512/512/512 507/507/507 509/509/509
f 510/510/510 512/512/512 509/509/509
f 510/510/510 511/511/511 512/512/512
f 512/512/512 511/511/511 507/507/507
f 513/513/513 515/515/515 514/514/514
f 513/513/513 516/516/516 515/515/515
f 514/514/514 515/515/515 517/517/517
f 516/516/516 517/517/517 515/515/515
f 516/516/516 518/518/518 517/517/517
f 514/514/514 517/517/517 519/519/519
f 518/518/518 520/520/520 517/517/517
f 520/520/520 519/519/519 517/517/517
f 518/518/518 521/521/521 520/520/520
f 520/520/520 522/522/522 519/519/519
f 521/521/521 522/522/522 520/520/520
f 523/523/523 519/519/519 522/522/522
f 521/521/521 524/524/524 522/522/522
f 523/523/523 522/522/522 524/524/524
f 525/525/525 527/527/527 526/526/526
f 528/528/528 526/526/526 527/527/527
f 525/525/525 529/529/529 527/527/527
f 530/530/530 529/529/529 525/525/525
f 528/528/528 527/527/527 531/531/531
f 531/531/531 527/527/527 529/529/529
f 532/532/532 528/528/528 531/531/531
f 530/530/530 533/533/533 529/529/529
f 531/531/531 529/529/529 533/533/533
f 534/534/534 533/533/533 530/530/530
f 532/532/532 531/531/531 535/535/535
f 533/533/533 535/535/535 531/531/531
f 532/532/532 536/536/536 534/534/534
f 534/534/534 536/536/536 533/533/533
f 533/533/533 536/536/536 535/535/535
f 532/532/532 535/535/535 536/536/536
f 537/537/537 539/539/539 538/538/538
f 537/537/537 540/540/540 539/539/539
f 541/541/541 539/539/539 540/540/540
f 538/538/538 539/539/539 542/542/542
f 541/541/541 542/542/542 539/539/539
f 538/538/538 542/542/542 543/543/543
f 542/542/542 541/541/541 544/544/544
f 545/545/545 544/544/544 541/541/541
f 545/545/545 546/546/546 544/544/544
f 543/543/543 542/542/542 547/547/547
f 542/542/542 544/544/544 547/547/547
f 546/546/546 547/547/547 544/544/544
f 543/543/543 547/547/547 548/548/548
f 546/546/546 548/548/548 547/547/547
f 549/549/549 551/551/551 550/550/550
f 552/552/552 550/550/550 551/551/551
f 549/549/549 553/553/553 551/551/551
f 554/554/554 553/553/553 549/549/549
f 552/552/552 551/551/551 555/555/555
f 553/553/553 555/555/555 551/551/551
f 556/556/556 552/552/552 555/555/555
f 556/556/556 555/555/555 557/557/557
f 553/553/553 557/557/557 555/555/555
f 558/558/558 556/556/556 557/557/557
f 554/554/554 559/559/559 553/553/553
f 557/557/557 553/553/553 559/559/559
f 558/558/558 557/557/557 560/560/560
f 554/554/554 558/558/558 560/560/560
f 557/557/557 559/559/559 560/560/560
f 554/554/554 560/560/560 559/559/559
f 561/561/561 563/563/563 562/562/562
f 564/564/564 562/562/562 563/563/563
f 561/561/561 565/565/565 563/563/563
f 566/566/566 565/565/565 561/561/561
f 564/564/564 563/563/563 567/567/567
f 567/567/567 563/563/563 565/565/565
f 568/568/568 564/564/564 567/567/567
f 566/566/566 569/569/569 565/565/565
f 567/567/567 565/565/565 569/569/569
f 570/570/570 569/569/569 566/566/566
f 568/568/568 567/567/567 571/571/571
f 569/569/569 571/571/571 567/567/567
f 568/568/568 572/572/572 570/570/570
f 570/570/570 572/572/572 569/569/569
f 569/569/569 572/572/572 571/571/571
f 568/568/568 571/571/571 572/572/572
f 573/573/573 575/575/575 574/574/574
f 576/576/576 574/574/574 575/575/575
f 573/573/573 577/577/577 575/575/575
f 578/578/578 577/577/577 573/573/573
f 576/576/576 575/575/575 579/579/579
f 577/577/577 579/579/579 575/575/575
f 580/580/580 576/576/576 579/579/579
f 578/578/578 581/581/581 577/577/577
f 577/577/577 581/581/581 579/579/579
f 582/582/582 581/581/581 578/578/578
f 582/582/582 583/583/583 581/581/581
f 580/580/580 583/583/583 582/582/582
f 579/579/579 581/581/581 583/583/583
f 580/580/580 579/579/579 584/584/584
f 579/579/579 583/583/583 584/584/584
f 580/580/580 584/584/584 583/583/583
f 585/585/585 587/587/587 586/586/586
f 588/588/588 586/586/586 587/587/587
f 585/585/585 589/589/589 587/587/587
f 590/590/590 589/589/589 585/585/585
f 588/588/588 587/587/587 591/591/591
f 591/591/591 587/587/587 589/589/589
f 592/592/592 588/588/588 591/591/591
f 590/590/590 593/593/593 589/589/589
f 591/591/591 589/589/589 593/593/593
f 594/594/594 593/593/593 590/590/590
f 592/592/592 591/591/591 595/595/595
f 593/593/593 595/595/595 591/591/591
f 592/592/592 596/596/596 594/594/594
f 594/594/594 596/596/596 593/593/593
f 593/593/593 596/596/596 595/595/595
f 592/592/592 595/595/595 596/596/596
f 597/597/597 599/599/599 598/598/598
f 597/597/597 600/600/600 599/599/599
f 601/601/601 598/598/598 599/599/599
f 600/600/600 602/602/602 599/599/599
f 601/601/601 599/599/599 602/602/602
f 600/600/600 603/603/603 602/602/602
f 603/603/603 604/604/604 602/602/602
f 601/601/601 602/602/602 604/604/604
f 603/603/603 605/605/605 604/604/604
f 601/601/601 604/604/604 606/606/606
f 605/605/605 606/606/606 604/604/604
f 607/607/607 601/601/601 606/606/606
f 605/605/605 608/608/608 606/606/606
f 607/607/607 606/606/606 608/608/608
f 609/609/609 611/611/611 610/610/610
f 612/612/612 610/610/610 611/611/611
f 609/609/609 613/613/613 611/611/611
f 614/614/614 613/613/613 609/609/609
f 614/614/614 615/615/615 613/613/613
f 615/615/615 611/611/611 613/613/613
f 616/616/616 615/615/615 614/614/614
f 612/612/612 611/611/611 617/617/617
f 615/615/615 617/617/617 611/611/611
f 618/618/618 612/612/612 617/617/617
f 618/618/618 619/619/619 616/616/616
f 616/616/616 619/619/619 615/615/615
f 618/618/618 617/617/617 620/620/620
f 620/620/620 617/617/617 615/615/615
f 620/620/620 615/615/615 619/619/619
f 618/618/618 620/620/620 619/619/619
