mtllib P_RockSpire_Rock18.mtl
v 5.798319 -1.08324 -0.1507282
v 5.136709 -1.181728 -1.880987
v 5.397032 -1.169008 -1.085542
v -4.236605 -3.788686 1.24386
v -3.447002 -4.508554 2.939518
v -4.34932 -3.717771 0.7993525
v -2.890227 -4.533649 0.9138204
v -3.447002 -4.508554 2.939518
v -3.611051 -4.526865 3.521415
v -4.542696 -3.568054 0.7897996
v -4.587135 -3.609393 0.7129323
v -4.917063 -3.442002 0.5181985
v -4.865642 -2.003497 -2.722318
v -3.497302 -2.202511 -3.386902
v -4.983228 -1.731515 -2.959105
v 3.760709 10.04976 -0.4813147
v 3.816159 9.983958 -0.5957233
v 3.676582 9.96895 1.267453
v 3.972636 9.256541 0.002901324
v 4.016722 9.056087 -0.9085147
v 3.967412 9.346644 -1.974987
v 4.148906 8.925328 -0.8431053
v 4.239985 8.094531 -1.159526
v 4.152256 8.202196 -1.285477
v 4.216901 8.026682 -1.983957
v 4.206245 7.827369 -2.112248
v 3.864333 9.281362 -2.143345
v 3.579097 9.583666 -2.286866
v 3.924034 9.144003 0.8896924
v 4.055967 9.016919 0.8151814
v 4.062446 8.255832 1.222617
v 3.865957 8.758395 2.562993
v 3.727457 9.022323 2.460917
v 3.930838 8.155733 2.574635
v 4.009298 7.992358 2.567227
v 3.816159 9.983958 -0.5957233
v 3.579097 9.583666 -2.286866
v 3.967412 9.346644 -1.974987
v 2.828415 10.20791 -2.338154
v 3.760709 10.04976 -0.4813147
v 0.3517928 10.63646 -1.216992
v 0.5076056 10.58635 -3.547347
v -0.7672346 10.82911 -3.217073
v -3.027502 11.1775 -1.926712
v -1.576614 10.5523 -3.22551
v -3.002589 10.64428 -2.78243
v -3.599952 10.67818 -2.220842
v -3.598343 11.03599 -1.400084
v 0.2819228 10.45379 0.2031451
v 3.676582 9.96895 1.267453
v -1.308867 10.81106 -0.8190323
v -3.135716 10.68477 -0.07397895
v -3.960578 10.758 -0.3731397
v -3.252063 10.60929 -0.01496064
v -3.941421 10.71087 -0.2917277
v -3.24551 10.50839 0.4172571
v -3.169426 10.11531 1.520727
v -1.588687 9.955923 2.368854
v -1.642647 9.907715 2.426768
v -2.935788 9.619699 2.234226
v -0.3795548 9.788969 2.23945
v 0.800059 9.759163 2.310883
v 3.24796 9.267682 2.508043
v 3.727457 9.022323 2.460917
v 3.972636 9.256541 0.002901324
v 5.307428 8.12655 0.6482484
v 4.055967 9.016919 0.8151814
v 5.415702 8.040068 -0.373152
v 4.148906 8.925328 -0.8431053
v 5.174596 8.206704 -0.8584082
v 4.062446 8.255832 1.222617
v 4.055967 9.016919 0.8151814
v 5.307428 8.12655 0.6482484
v 5.243595 7.535224 0.9278291
v 5.243595 7.535224 0.9278291
v 5.307428 8.12655 0.6482484
v 5.360901 7.453495 0.8235084
v 5.394611 7.96918 0.4804694
v 5.415702 8.040068 -0.373152
v 5.704849 3.321186 -0.2372778
v 5.666564 3.018884 1.326732
v 5.301023 7.185252 2.678188
v 5.43973 3.114387 2.87534
v 5.48169 1.458134 2.618882
v 5.636189 0.09122588 2.050549
v 5.772668 -1.570662 0.9386292
v 5.798319 -1.08324 -0.1507282
v 5.344312 -2.164466 0.8825724
v 5.295105 -2.18688 1.014594
v 4.74928 -2.188051 -0.5380005
v 5.397032 -1.169008 -1.085542
v 4.7419 -1.789043 -1.465282
v 5.136709 -1.181728 -1.880987
v 4.880711 -1.474362 -2.068342
v 4.241298 -1.339136 -2.855234
v 3.875063 -0.7418886 -3.445194
v 4.98798 0.3012417 -2.443411
v 4.999626 3.989731 -2.251798
v 5.20407 7.495879 -0.9257667
v 5.174596 8.206704 -0.8584082
v 5.066617 7.487286 -1.630439
v 5.037055 7.618072 -1.574049
v 5.066131 7.637928 -0.9995506
v 4.686081 7.543604 2.86623
v 5.301023 7.185252 2.678188
v 4.013136 7.432251 3.574055
v 4.006405 3.151466 4.023442
v 5.43973 3.114387 2.87534
v 3.895874 7.345843 3.631385
v 0.07682899 7.063122 3.683277
v 0.8646305 3.455562 3.90295
v -2.183689 6.04012 3.586396
v 4.932206 1.546201 3.207256
v 5.48169 1.458134 2.618882
v 2.980376 1.12311 4.031631
v -3.118315 1.965946 4.011404
v -3.272372 5.604001 3.127357
v -4.181568 2.407951 3.135183
v -4.166764 1.948631 3.331841
v -4.031806 -4.104242 3.303799
v -3.256476 -4.530135 3.902586
v -3.125326 -4.490243 3.988599
v -1.357115 -4.48288 4.076614
v 3.286127 -0.1179664 3.652837
v 1.906261 -0.6830721 4.118844
v 1.5419 -1.726983 4.177672
v 0.8142574 -2.866283 4.163198
v 4.515819 -1.249218 2.235722
v 5.636189 0.09122588 2.050549
v 5.772668 -1.570662 0.9386292
v 5.295105 -2.18688 1.014594
v 2.723256 -2.132417 3.349053
v 0.8518491 -4.477563 3.449753
v 0.2815833 -4.481596 3.877167
v -0.04214488 -4.546913 3.885395
v 4.216901 8.026682 -1.983957
v 5.066617 7.487286 -1.630439
v 5.037055 7.618072 -1.574049
v 4.206245 7.827369 -2.112248
v 4.135681 4.093241 -2.778221
v 1.395533 9.016848 -4.053615
v 4.999626 3.989731 -2.251798
v 3.864333 9.281362 -2.143345
v 4.98798 0.3012417 -2.443411
v 3.579097 9.583666 -2.286866
v 2.828415 10.20791 -2.338154
v 3.875063 -0.7418886 -3.445194
v 0.6328816 9.863146 -3.961601
v 0.5076056 10.58635 -3.547347
v 0.05567906 9.767562 -3.924861
v -0.7672346 10.82911 -3.217073
v -1.576614 10.5523 -3.22551
v 1.207177 9.053144 -4.077428
v 1.900741 4.242718 -4.427793
v 2.399011 -0.2871945 -4.393377
v 0.4555352 6.769031 -4.023571
v -3.589783 9.375153 -2.642444
v -3.002589 10.64428 -2.78243
v -3.599952 10.67818 -2.220842
v 3.982938 -1.430934 -2.943011
v 4.241298 -1.339136 -2.855234
v 1.629762 -1.806613 -4.086495
v 0.8194969 3.902376 -4.219623
v -1.083185 6.637695 -3.547848
v 1.491365 -1.71931 -4.139693
v 1.185053 -1.971549 -4.041984
v 0.1750809 -1.861819 -3.962559
v -3.062703 6.838321 -3.05303
v -4.277207 6.86001 -2.67907
v -4.33952 6.741193 -2.722818
v -1.241374 6.496692 -3.561692
v -0.3674966 2.463733 -3.983486
v -1.527481 6.38328 -3.856037
v -0.04049185 -1.983784 -3.922516
v 0.2226203 -2.626559 -3.47284
v -1.116363 -3.057681 -2.865308
v -0.08826736 -1.691099 -3.985574
v -0.7433099 2.427226 -4.28547
v -0.5758817 -1.518879 -4.179051
v -3.244374 2.698205 -3.632372
v -3.247783 6.661187 -3.288422
v -3.283279 -2.607438 -3.151373
v -2.90134 -3.271543 -2.708742
v -1.489859 -3.706974 -2.53151
v -0.939681 -3.127428 -2.769219
v -3.497302 -2.202511 -3.386902
v -4.865642 -2.003497 -2.722318
v -4.840713 4.69003 -3.041186
v -4.577601 6.494073 -2.954505
v -4.506476 6.630943 -2.903409
v -5.054175 1.842115 -3.01788
v -5.063798 -1.512049 -2.978832
v -4.983228 -1.731515 -2.959105
v 4.239985 8.094531 -1.159526
v 5.037055 7.618072 -1.574049
v 5.066131 7.637928 -0.9995506
v 4.216901 8.026682 -1.983957
v 5.174596 8.206704 -0.8584082
v 5.066131 7.637928 -0.9995506
v 5.20407 7.495879 -0.9257667
v 4.239985 8.094531 -1.159526
v 4.148906 8.925328 -0.8431053
v 4.241298 -1.339136 -2.855234
v 3.982938 -1.430934 -2.943011
v 4.880711 -1.474362 -2.068342
v 4.7419 -1.789043 -1.465282
v 3.899623 -2.324506 -1.015709
v 4.74928 -2.188051 -0.5380005
v 1.607564 -2.598723 -2.387125
v 1.629762 -1.806613 -4.086495
v 0.2226203 -2.626559 -3.47284
v 1.185053 -1.971549 -4.041984
v 4.374131 -2.214029 0.8654103
v 1.917817 -2.814496 -0.4315051
v 1.14966 -2.936504 -1.398877
v 2.428028 -2.814422 1.575856
v 1.058374 -4.523557 0.7359489
v 5.295105 -2.18688 1.014594
v 5.344312 -2.164466 0.8825724
v 3.451666 -2.22021 2.591213
v 2.70525 -2.538475 2.601502
v 2.723256 -2.132417 3.349053
v -0.939681 -3.127428 -2.769219
v -1.116363 -3.057681 -2.865308
v -0.3589215 -4.527539 -0.8522917
v -1.293592 -4.513922 -1.364331
v -1.489859 -3.706974 -2.53151
v -2.102809 -4.527487 -0.7497168
v -2.90134 -3.271543 -2.708742
v -4.170675 -3.450178 -1.228737
v -3.283279 -2.607438 -3.151373
v -4.865642 -2.003497 -2.722318
v -5.213102 -2.512734 -1.649848
v -5.224836 -3.268619 -0.6752146
v -5.267283 -3.30952 -0.1390328
v -2.890227 -4.533649 0.9138204
v -4.34932 -3.717771 0.7993525
v -3.447002 -4.508554 2.939518
v -4.587135 -3.609393 0.7129323
v -4.917063 -3.442002 0.5181985
v -4.542696 -3.568054 0.7897996
v -4.236605 -3.788686 1.24386
v -0.04214488 -4.546913 3.885395
v -3.611051 -4.526865 3.521415
v -3.256476 -4.530135 3.902586
v -3.125326 -4.490243 3.988599
v -1.357115 -4.48288 4.076614
v 0.7471473 -4.546872 3.32472
v 0.2815833 -4.481596 3.877167
v 1.00198 -4.495852 2.911558
v 0.8518491 -4.477563 3.449753
v -4.277207 6.86001 -2.67907
v -4.792436 6.537367 -0.8526739
v -4.33952 6.741193 -2.722818
v -3.700019 9.327793 -2.537455
v -3.589783 9.375153 -2.642444
v -3.599952 10.67818 -2.220842
v -3.815244 9.342714 -1.504708
v -3.598343 11.03599 -1.400084
v -3.960578 10.758 -0.3731397
v -3.935384 9.605529 0.1656722
v -3.941421 10.71087 -0.2917277
v -4.369836 8.112074 0.2261353
v -5.038472 5.703392 -0.3546896
v -4.580095 5.750143 0.5004034
v -5.268391 1.684425 0.3622961
v -5.306676 1.875681 0.2000714
v -5.297127 -2.866909 0.3271932
v -5.410212 -0.7523099 -0.9370728
v -5.289599 1.955621 -0.4057099
v -5.318852 2.016533 -1.983047
v -4.577601 6.494073 -2.954505
v -4.506476 6.630943 -2.903409
v -4.840713 4.69003 -3.041186
v -5.054175 1.842115 -3.01788
v -5.063798 -1.512049 -2.978832
v -5.04867 -1.696506 -2.817842
v -4.983228 -1.731515 -2.959105
v -4.865642 -2.003497 -2.722318
v -4.986475 -1.892415 -2.517977
v -5.213102 -2.512734 -1.649848
v -5.297495 -3.235348 -0.3660298
v -5.224836 -3.268619 -0.6752146
v -5.267283 -3.30952 -0.1390328
v -4.917063 -3.442002 0.5181985
v -4.33952 6.741193 -2.722818
v -4.792436 6.537367 -0.8526739
v -4.506476 6.630943 -2.903409
v -3.247783 6.661187 -3.288422
v -3.062703 6.838321 -3.05303
v -1.377734 6.462337 -3.623819
v -1.241374 6.496692 -3.561692
v -1.527481 6.38328 -3.856037
v -3.252063 10.60929 -0.01496064
v -3.935384 9.605529 0.1656722
v -3.941421 10.71087 -0.2917277
v -3.282792 9.800495 0.575899
v -4.369836 8.112074 0.2261353
v -3.603406 5.856147 0.7530419
v -4.580095 5.750143 0.5004034
v -4.034994 3.419811 0.9327382
v -5.268391 1.684425 0.3622961
v -4.559137 0.1683533 0.8176496
v -5.297127 -2.866909 0.3271932
v -4.542696 -3.568054 0.7897996
v -4.917063 -3.442002 0.5181985
v -1.480237 6.850771 2.849632
v -3.15942 5.905038 2.928448
v -3.1557 6.084406 2.79486
v -3.001024 7.432355 2.627595
v -1.26797 8.105338 2.838797
v 0.1963932 7.537086 2.620085
v -2.918343 9.368537 2.338066
v -3.150357 9.222094 2.260831
v -3.490631 8.764921 2.063568
v -2.935788 9.619699 2.234226
v -1.642647 9.907715 2.426768
v -0.3795548 9.788969 2.23945
v -1.588687 9.955923 2.368854
v 0.800059 9.759163 2.310883
v 3.24796 9.267682 2.508043
v 3.930838 8.155733 2.574635
v 3.919636 7.967508 2.64403
v 4.009298 7.992358 2.567227
v 3.865957 8.758395 2.562993
v 3.727457 9.022323 2.460917
v -2.183689 6.04012 3.586396
v -3.272372 5.604001 3.127357
v -3.15942 5.905038 2.928448
v -1.480237 6.850771 2.849632
v 0.07682899 7.063122 3.683277
v 0.1963932 7.537086 2.620085
v 4.013136 7.432251 3.574055
v 3.919636 7.967508 2.64403
v 4.009298 7.992358 2.567227
v 4.686081 7.543604 2.86623
v 4.062446 8.255832 1.222617
v 5.243595 7.535224 0.9278291
v 5.301023 7.185252 2.678188
v 5.360901 7.453495 0.8235084
v -4.031806 -4.104242 3.303799
v -3.256476 -4.530135 3.902586
v -3.611051 -4.526865 3.521415
v -4.013416 -4.207779 3.264991
v -4.301589 -3.886892 2.769809
v -4.166764 1.948631 3.331841
v -4.277812 2.071728 3.036345
v -4.181568 2.407951 3.135183
v -3.697407 5.389434 2.500437
v -3.272372 5.604001 3.127357
v -3.15942 5.905038 2.928448
v -3.603627 5.768728 1.895947
v -3.1557 6.084406 2.79486
v -3.652318 7.009912 2.048275
v -3.001024 7.432355 2.627595
v -3.490631 8.764921 2.063568
v -3.685836 5.677073 1.617197
v -4.0147 3.291663 1.067222
v -4.320201 0.1998376 1.140259
v -3.603406 5.856147 0.7530419
v -4.034994 3.419811 0.9327382
v -3.282792 9.800495 0.575899
v -4.559137 0.1683533 0.8176496
v -4.542696 -3.568054 0.7897996
v -4.288247 -3.63834 1.268753
v -4.236605 -3.788686 1.24386
v -3.335718 9.935866 1.413731
v -3.150357 9.222094 2.260831
v -2.935788 9.619699 2.234226
v -3.169426 10.11531 1.520727
v -3.24551 10.50839 0.4172571
v -3.26297 10.50388 0.1491651
v -3.252063 10.60929 -0.01496064
v 1.058374 -4.523557 0.7359489
v 2.428028 -2.814422 1.575856
v 1.917817 -2.814496 -0.4315051
v 1.00198 -4.495852 2.911558
v 2.70525 -2.538475 2.601502
v 0.8518491 -4.477563 3.449753
v 2.723256 -2.132417 3.349053
v -4.301589 -3.886892 2.769809
v -3.447002 -4.508554 2.939518
v -4.236605 -3.788686 1.24386
v -4.013416 -4.207779 3.264991
v -3.611051 -4.526865 3.521415
vn 0.9441739 -0.2601452 -0.2021392
vn 0.8519976 -0.3257279 -0.4098799
vn 0.6712531 -0.7076712 -0.2205013
vn -0.8289745 -0.55028 0.09996644
vn -0.8828077 -0.4051723 -0.2376677
vn -0.5035716 -0.8630999 -0.03839753
vn -0.2570013 -0.9613527 -0.09874843
vn -0.8828077 -0.4051723 -0.2376677
vn -0.497859 -0.8235363 0.2718904
vn -0.7142445 -0.372303 0.5926596
vn -0.5423203 -0.7601831 0.3577855
vn -0.6722697 -0.5677497 0.4750935
vn -0.6132754 -0.633691 -0.4715178
vn -0.292851 -0.3727277 -0.8805182
vn -0.6221569 -0.454617 -0.637373
vn 0.5209443 0.8534949 0.01278618
vn 0.8248868 0.5582815 -0.08878898
vn 0.5946299 0.7636602 0.2514723
vn 0.858289 0.5123049 0.02972803
vn 0.9337351 0.3361425 -0.1230731
vn 0.8660582 0.4008812 -0.2987265
vn 0.655714 0.6008077 -0.4572411
vn 0.6183538 0.5993532 -0.5083448
vn 0.9248383 0.3579333 -0.128677
vn 0.8531176 0.4049722 -0.3289192
vn 0.6191437 0.212368 -0.7560165
vn 0.7014164 0.2342624 -0.6731539
vn 0.6338619 0.5086893 -0.5826271
vn 0.9185309 0.3503023 0.1832739
vn 0.6679344 0.6034121 0.4356117
vn 0.7517596 0.5145914 0.4123751
vn 0.629644 0.2173931 0.7458476
vn 0.5333589 0.5807696 0.6150082
vn 0.6155923 0.2994182 0.7289683
vn 0.5908445 0.695051 0.4096425
vn 0.8248868 0.5582815 -0.08878898
vn 0.6338619 0.5086893 -0.5826271
vn 0.8660582 0.4008812 -0.2987265
vn 0.4128184 0.8254237 -0.3850412
vn 0.5209443 0.8534949 0.01278618
vn 0.1527432 0.9861934 0.06397042
vn 0.1707105 0.8051432 -0.5679808
vn -0.01105 0.861957 -0.5068608
vn -0.1727888 0.9702728 -0.169454
vn -0.2779907 0.4577555 -0.8445005
vn -0.3708882 0.4925939 -0.7872695
vn -0.7945212 0.4481841 -0.4097158
vn -0.6147879 0.7883124 -0.02448363
vn 0.09138189 0.9723475 0.2149181
vn 0.5946299 0.7636602 0.2514723
vn 0.08351693 0.9764118 0.1991104
vn -0.05775059 0.9360092 0.3472054
vn -0.7344528 0.6529602 0.1849923
vn -0.456769 0.7031606 0.5449103
vn -0.5921054 0.5314435 0.6057879
vn -0.6119099 0.7509103 0.2483951
vn -0.476289 0.7645674 0.4342643
vn 0.03668556 0.8586864 0.5111866
vn -0.06019258 0.5530777 0.8309524
vn -0.4501366 0.5221085 0.7244169
vn 0.1093124 0.6593961 0.7438062
vn -0.004805753 0.6519776 0.758223
vn 0.158669 0.5199752 0.8393152
vn 0.5333589 0.5807696 0.6150082
vn 0.858289 0.5123049 0.02972803
vn 0.7329126 0.5177854 0.4412906
vn 0.6679344 0.6034121 0.4356117
vn 0.9021245 0.4081841 -0.139847
vn 0.655714 0.6008077 -0.4572411
vn 0.6580402 0.5015299 -0.5616502
vn 0.7517596 0.5145914 0.4123751
vn 0.6679344 0.6034121 0.4356117
vn 0.7329126 0.5177854 0.4412906
vn 0.6556023 0.6097981 0.4453446
vn 0.6556023 0.6097981 0.4453446
vn 0.7329126 0.5177854 0.4412906
vn 0.9554213 0.2127041 0.204761
vn 0.9739352 0.189965 0.1239493
vn 0.9021245 0.4081841 -0.139847
vn 0.9888237 0.0395315 -0.1437536
vn 0.9956356 0.03695638 0.08569673
vn 0.8118804 0.409622 0.4160048
vn 0.8632408 0.01240197 0.50464
vn 0.855428 -0.133096 0.5005279
vn 0.8348504 -0.1805968 0.5200093
vn 0.8978966 -0.3763291 0.2283812
vn 0.9441739 -0.2601452 -0.2021392
vn 0.6078632 -0.7917154 -0.06073834
vn 0.4777945 -0.817285 0.3221144
vn 0.4529225 -0.8698003 -0.1957263
vn 0.6712531 -0.7076712 -0.2205013
vn 0.547577 -0.7727961 -0.3208515
vn 0.8519976 -0.3257279 -0.4098799
vn 0.6542715 -0.610465 -0.4463869
vn 0.5884978 -0.4973831 -0.6374012
vn 0.5508139 -0.2330011 -0.8014452
vn 0.8147177 -0.01097683 -0.5797539
vn 0.7763872 0.06654876 -0.6267329
vn 0.8910264 0.187705 -0.4133264
vn 0.6580402 0.5015299 -0.5616502
vn 0.8167585 0.2133849 -0.5360713
vn 0.7192777 0.6063502 -0.3390856
vn 0.6402602 0.5290179 -0.5569623
vn 0.5015687 0.7661267 0.4018442
vn 0.8118804 0.409622 0.4160048
vn 0.2965096 0.5633975 0.7711453
vn 0.3209986 0.001906448 0.9470777
vn 0.8632408 0.01240197 0.50464
vn 0.1247102 0.3025808 0.9449297
vn -0.1513866 0.5833471 0.7979901
vn -0.01521315 0.06558603 0.9977309
vn -0.3181303 0.4641235 0.8266695
vn 0.6009889 -0.2367712 0.7633818
vn 0.855428 -0.133096 0.5005279
vn 0.2062788 -0.07754678 0.9754156
vn -0.3112455 0.08270372 0.946724
vn -0.6585644 0.3849751 0.6465966
vn -0.820425 0.2192232 0.5280567
vn -0.7520195 0.111871 0.6495781
vn -0.7895489 -0.1628253 0.5916929
vn -0.4020889 -0.7010996 0.5888836
vn -0.2213864 -0.477545 0.8502581
vn -0.0110868 -0.6047412 0.7963449
vn 0.4878457 -0.2370444 0.8401289
vn 0.1711267 -0.01627352 0.9851146
vn 0.2485919 -0.131163 0.9596866
vn 0.2308184 -0.1812344 0.9559692
vn 0.5967528 -0.3540689 0.7200842
vn 0.8348504 -0.1805968 0.5200093
vn 0.8978966 -0.3763291 0.2283812
vn 0.4777945 -0.817285 0.3221144
vn 0.575157 -0.4540658 0.6804548
vn 0.5374516 -0.6984276 0.4725937
vn 0.2962734 -0.6271732 0.7203303
vn 0.08102096 -0.8477257 0.5242106
vn 0.8531176 0.4049722 -0.3289192
vn 0.8167585 0.2133849 -0.5360713
vn 0.7192777 0.6063502 -0.3390856
vn 0.6191437 0.212368 -0.7560165
vn 0.5652452 0.09581528 -0.8193396
vn 0.3881154 0.2558685 -0.88538
vn 0.7763872 0.06654876 -0.6267329
vn 0.7014164 0.2342624 -0.6731539
vn 0.8147177 -0.01097683 -0.5797539
vn 0.6338619 0.5086893 -0.5826271
vn 0.4128184 0.8254237 -0.3850412
vn 0.5508139 -0.2330011 -0.8014452
vn 0.1385449 0.3761778 -0.9161308
vn 0.1707105 0.8051432 -0.5679808
vn -0.1985858 0.2185784 -0.955399
vn -0.01105 0.861957 -0.5068608
vn -0.2779907 0.4577555 -0.8445005
vn 0.03769633 0.1298776 -0.9908132
vn 0.2196825 0.0580776 -0.9738411
vn 0.2344662 -0.1160221 -0.9651759
vn -0.2427656 0.02459269 -0.9697732
vn -0.5362312 0.1456707 -0.8314062
vn -0.3708882 0.4925939 -0.7872695
vn -0.7945212 0.4481841 -0.4097158
vn 0.3963428 -0.6955636 -0.5992526
vn 0.5884978 -0.4973831 -0.6374012
vn 0.2915857 -0.6101727 -0.7366593
vn -0.2155795 0.01605506 -0.9763542
vn -0.2355321 0.08169876 -0.9684265
vn 0.002277031 -0.2384403 -0.9711545
vn 0.07132975 -0.5871564 -0.8063247
vn -0.07313665 -0.1167177 -0.9904686
vn -0.1944249 0.4953983 -0.8466283
vn -0.6838877 0.3831982 -0.6208517
vn -0.4851317 0.7993008 -0.3546344
vn 0.07085651 0.3709186 -0.9259583
vn 0.2224381 0.06484642 -0.9727879
vn 0.1442628 0.5238523 -0.839504
vn -0.04350714 -0.4612873 -0.8861835
vn 0.08593749 -0.8131498 -0.5756754
vn 0.02408822 -0.6341351 -0.7728469
vn 0.2073067 -0.07844768 -0.9751256
vn 0.213194 0.07091904 -0.9744325
vn 0.03367524 -0.2235846 -0.9741026
vn -0.2811457 0.01530892 -0.959543
vn -0.214225 0.5442628 -0.8111015
vn -0.268246 -0.6421219 -0.718139
vn -0.2618674 -0.7144429 -0.6488428
vn 0.09926154 -0.7187248 -0.6881729
vn 0.238556 -0.7627352 -0.6011041
vn -0.292851 -0.3727277 -0.8805182
vn -0.6132754 -0.633691 -0.4715178
vn -0.7602508 0.1238453 -0.6377155
vn -0.7202781 0.3138565 -0.6186224
vn -0.5394125 0.709181 -0.4539786
vn -0.7321857 0.01159394 -0.6810063
vn -0.7521015 -0.132323 -0.6456269
vn -0.6221569 -0.454617 -0.637373
vn 0.6183538 0.5993532 -0.5083448
vn 0.7192777 0.6063502 -0.3390856
vn 0.6402602 0.5290179 -0.5569623
vn 0.8531176 0.4049722 -0.3289192
vn 0.6580402 0.5015299 -0.5616502
vn 0.6402602 0.5290179 -0.5569623
vn 0.8910264 0.187705 -0.4133264
vn 0.6183538 0.5993532 -0.5083448
vn 0.655714 0.6008077 -0.4572411
vn 0.5884978 -0.4973831 -0.6374012
vn 0.3963428 -0.6955636 -0.5992526
vn 0.6542715 -0.610465 -0.4463869
vn 0.547577 -0.7727961 -0.3208515
vn 0.277656 -0.9378101 -0.2083734
vn 0.4529225 -0.8698003 -0.1957263
vn 0.278295 -0.9155515 -0.2903742
vn 0.2915857 -0.6101727 -0.7366593
vn 0.08593749 -0.8131498 -0.5756754
vn 0.07132975 -0.5871564 -0.8063247
vn 0.1386659 -0.9902085 0.01609252
vn 0.4810642 -0.849334 -0.2172764
vn 0.4262662 -0.8326066 -0.3536432
vn 0.5872549 -0.8093385 -0.01015133
vn 0.4777432 -0.8642749 -0.1574494
vn 0.4777945 -0.817285 0.3221144
vn 0.6078632 -0.7917154 -0.06073834
vn 0.4033635 -0.8321104 0.3806445
vn 0.5848483 -0.7800704 0.2223573
vn 0.575157 -0.4540658 0.6804548
vn 0.238556 -0.7627352 -0.6011041
vn 0.02408822 -0.6341351 -0.7728469
vn 0.2723945 -0.9005569 -0.3388193
vn 0.007709196 -0.910015 -0.4145036
vn 0.09926154 -0.7187248 -0.6881729
vn -0.2156927 -0.9535936 -0.2100855
vn -0.2618674 -0.7144429 -0.6488428
vn -0.4007877 -0.839327 -0.3672866
vn -0.268246 -0.6421219 -0.718139
vn -0.6132754 -0.633691 -0.4715178
vn -0.836701 -0.4079806 -0.3653536
vn -0.6531527 -0.7077221 -0.2692972
vn -0.7476147 -0.662622 0.04476907
vn -0.2570013 -0.9613527 -0.09874843
vn -0.5035716 -0.8630999 -0.03839753
vn -0.8828077 -0.4051723 -0.2376677
vn -0.5423203 -0.7601831 0.3577855
vn -0.6722697 -0.5677497 0.4750935
vn -0.7142445 -0.372303 0.5926596
vn -0.8289745 -0.55028 0.09996644
vn 0.08102096 -0.8477257 0.5242106
vn -0.497859 -0.8235363 0.2718904
vn -0.4020889 -0.7010996 0.5888836
vn -0.2213864 -0.477545 0.8502581
vn -0.0110868 -0.6047412 0.7963449
vn 0.2021894 -0.9714182 0.1243632
vn 0.2962734 -0.6271732 0.7203303
vn 0.5469671 -0.8321612 0.09129445
vn 0.5374516 -0.6984276 0.4725937
vn -0.6838877 0.3831982 -0.6208517
vn -0.9649782 0.2418844 -0.1015342
vn -0.4851317 0.7993008 -0.3546344
vn -0.8747359 0.212589 -0.4354803
vn -0.5362312 0.1456707 -0.8314062
vn -0.7945212 0.4481841 -0.4097158
vn -0.9739343 0.1940859 -0.1173996
vn -0.6147879 0.7883124 -0.02448363
vn -0.7344528 0.6529602 0.1849923
vn -0.842189 0.2641411 0.4700503
vn -0.5921054 0.5314435 0.6057879
vn -0.8310558 0.2306034 0.5061308
vn -0.9896712 0.1304247 0.05950164
vn -0.6172234 0.1336243 0.7753578
vn -0.7916413 0.03841858 0.6097771
vn -0.9825286 0.07303462 0.1711829
vn -0.8729553 -0.119913 0.4728317
vn -0.9988171 -0.02627139 -0.04091752
vn -0.9977707 0.06629768 -0.00764391
vn -0.9913539 0.05831785 -0.1175434
vn -0.7202781 0.3138565 -0.6186224
vn -0.5394125 0.709181 -0.4539786
vn -0.7602508 0.1238453 -0.6377155
vn -0.7321857 0.01159394 -0.6810063
vn -0.7521015 -0.132323 -0.6456269
vn -0.9130471 -0.3698086 -0.1720079
vn -0.6221569 -0.454617 -0.637373
vn -0.6132754 -0.633691 -0.4715178
vn -0.9317918 -0.2852583 -0.2244812
vn -0.836701 -0.4079806 -0.3653536
vn -0.947469 -0.3119718 -0.07054061
vn -0.6531527 -0.7077221 -0.2692972
vn -0.7476147 -0.662622 0.04476907
vn -0.6722697 -0.5677497 0.4750935
vn -0.4851317 0.7993008 -0.3546344
vn -0.9649782 0.2418844 -0.1015342
vn -0.5394125 0.709181 -0.4539786
vn -0.214225 0.5442628 -0.8111015
vn -0.1944249 0.4953983 -0.8466283
vn -0.04165025 0.926047 -0.3751029
vn 0.07085651 0.3709186 -0.9259583
vn 0.1442628 0.5238523 -0.839504
vn -0.456769 0.7031606 0.5449103
vn -0.842189 0.2641411 0.4700503
vn -0.5921054 0.5314435 0.6057879
vn -0.9274917 0.1894623 0.3222781
vn -0.8310558 0.2306034 0.5061308
vn -0.8191737 0.1399647 0.5562054
vn -0.6172234 0.1336243 0.7753578
vn -0.7546279 0.1223902 0.6446373
vn -0.7916413 0.03841858 0.6097771
vn -0.6729913 0.0251759 0.7392218
vn -0.8729553 -0.119913 0.4728317
vn -0.7142445 -0.372303 0.5926596
vn -0.6722697 -0.5677497 0.4750935
vn -0.2350927 0.4881223 0.8405165
vn -0.6334857 0.5742227 0.5186175
vn -0.6439022 0.2998832 0.7038892
vn -0.418573 0.1176913 0.9005251
vn 0.033884 0.1278445 0.9912152
vn -0.04541418 0.5593651 0.8276765
vn -0.3108499 0.2534091 0.9160547
vn -0.6221314 0.2802603 0.7310313
vn -0.9007749 0.1552785 0.4055776
vn -0.4501366 0.5221085 0.7244169
vn -0.06019258 0.5530777 0.8309524
vn 0.1093124 0.6593961 0.7438062
vn 0.03668556 0.8586864 0.5111866
vn -0.004805753 0.6519776 0.758223
vn 0.158669 0.5199752 0.8393152
vn 0.6155923 0.2994182 0.7289683
vn 0.1290379 0.6860119 0.7160566
vn 0.5908445 0.695051 0.4096425
vn 0.629644 0.2173931 0.7458476
vn 0.5333589 0.5807696 0.6150082
vn -0.3181303 0.4641235 0.8266695
vn -0.6585644 0.3849751 0.6465966
vn -0.6334857 0.5742227 0.5186175
vn -0.2350927 0.4881223 0.8405165
vn -0.1513866 0.5833471 0.7979901
vn -0.04541418 0.5593651 0.8276765
vn 0.2965096 0.5633975 0.7711453
vn 0.1290379 0.6860119 0.7160566
vn 0.5908445 0.695051 0.4096425
vn 0.5015687 0.7661267 0.4018442
vn 0.7517596 0.5145914 0.4123751
vn 0.6556023 0.6097981 0.4453446
vn 0.8118804 0.409622 0.4160048
vn 0.9554213 0.2127041 0.204761
vn -0.7895489 -0.1628253 0.5916929
vn -0.4020889 -0.7010996 0.5888836
vn -0.497859 -0.8235363 0.2718904
vn -0.7542817 -0.6173404 0.2234947
vn -0.9082164 -0.4029127 0.1131561
vn -0.7520195 0.111871 0.6495781
vn -0.9799447 0.09487968 0.1752318
vn -0.820425 0.2192232 0.5280567
vn -0.9061792 0.3412181 0.2498187
vn -0.6585644 0.3849751 0.6465966
vn -0.6334857 0.5742227 0.5186175
vn -0.9379684 0.2019418 0.2818415
vn -0.6439022 0.2998832 0.7038892
vn -0.9450337 0.06817947 0.3197857
vn -0.418573 0.1176913 0.9005251
vn -0.9007749 0.1552785 0.4055776
vn -0.9926581 0.1173618 0.02925788
vn -0.9852223 0.1328786 0.108076
vn -0.9512545 0.0424903 0.3054659
vn -0.8191737 0.1399647 0.5562054
vn -0.7546279 0.1223902 0.6446373
vn -0.9274917 0.1894623 0.3222781
vn -0.6729913 0.0251759 0.7392218
vn -0.7142445 -0.372303 0.5926596
vn -0.9634963 -0.1794666 0.1986622
vn -0.8289745 -0.55028 0.09996644
vn -0.9205093 0.3235882 0.218982
vn -0.6221314 0.2802603 0.7310313
vn -0.4501366 0.5221085 0.7244169
vn -0.476289 0.7645674 0.4342643
vn -0.6119099 0.7509103 0.2483951
vn -0.9959882 0.08879682 -0.01106999
vn -0.456769 0.7031606 0.5449103
vn 0.4777432 -0.8642749 -0.1574494
vn 0.5872549 -0.8093385 -0.01015133
vn 0.4810642 -0.849334 -0.2172764
vn 0.5469671 -0.8321612 0.09129445
vn 0.5848483 -0.7800704 0.2223573
vn 0.5374516 -0.6984276 0.4725937
vn 0.575157 -0.4540658 0.6804548
vn -0.9082164 -0.4029127 0.1131561
vn -0.8828077 -0.4051723 -0.2376677
vn -0.8289745 -0.55028 0.09996644
vn -0.7542817 -0.6173404 0.2234947
vn -0.497859 -0.8235363 0.2718904
vt 0.3492047 0.4319294
vt 0.3492047 0.4518665
vt 0.3496565 0.4428708
vt 0.3489142 0.5445499
vt 0.3498462 0.5647209
vt 0.3498462 0.5397421
vt 0.2222692 0.4093131
vt 0.2224824 0.3878313
vt 0.2222692 0.3816635
vt 0.2101463 0.5552863
vt 0.2108937 0.554686
vt 0.2101463 0.5518847
vt 0.4428484 0.6012067
vt 0.4424262 0.584921
vt 0.4400157 0.6012067
vt 0.9416055 0.6828405
vt 0.9423045 0.6840804
vt 0.9431267 0.664107
vt 0.9504662 0.6779086
vt 0.9522764 0.6877765
vt 0.9486879 0.6991299
vt 0.9538007 0.6870866
vt 0.9626512 0.6908157
vt 0.9613817 0.6921518
vt 0.963026 0.6997136
vt 0.9651046 0.7011818
vt 0.9492458 0.7010013
vt 0.9457394 0.702507
vt 0.9520012 0.6684417
vt 0.9534288 0.6692542
vt 0.9617664 0.6652009
vt 0.9567807 0.6506421
vt 0.953808 0.6516708
vt 0.9632985 0.6507555
vt 0.9651046 0.6508799
vt 0.4792373 0.7914013
vt 0.497321 0.7943506
vt 0.4940055 0.790144
vt 0.4978219 0.8023475
vt 0.4780058 0.7919654
vt 0.4853335 0.8287053
vt 0.5104281 0.827506
vt 0.5066589 0.8411202
vt 0.4923806 0.8651277
vt 0.5065443 0.8498698
vt 0.5015073 0.865109
vt 0.4953516 0.8714178
vt 0.4865784 0.8711834
vt 0.4700118 0.8291968
vt 0.4591618 0.7925295
vt 0.4807483 0.8464665
vt 0.4723479 0.8659893
vt 0.4754135 0.8749135
vt 0.4716778 0.86724
vt 0.474534 0.8746979
vt 0.467013 0.8670968
vt 0.455094 0.8661123
vt 0.4462594 0.8489574
vt 0.4456179 0.8495332
vt 0.4473857 0.8635261
vt 0.4478665 0.8359987
vt 0.4473286 0.8232973
vt 0.4456179 0.7969918
vt 0.4461818 0.7918777
vt 0.8321321 0.638363
vt 0.817968 0.6455517
vt 0.8313112 0.647145
vt 0.8167649 0.6345801
vt 0.8302422 0.6293201
vt 0.8193105 0.6293201
vt 0.218459 0.6762227
vt 0.2116465 0.6715537
vt 0.2116465 0.6881234
vt 0.2173515 0.6911562
vt 0.7553651 0.6561211
vt 0.7510566 0.6506422
vt 0.7545254 0.6572994
vt 0.7497169 0.6527472
vt 0.7406107 0.6540756
vt 0.7534318 0.703333
vt 0.7705276 0.7027047
vt 0.7745759 0.6556006
vt 0.7864187 0.6978341
vt 0.7877007 0.7158199
vt 0.7850801 0.731596
vt 0.7774559 0.7517604
vt 0.7648878 0.7492984
vt 0.7780689 0.7578537
vt 0.7794815 0.7577404
vt 0.7629354 0.7611653
vt 0.7550917 0.7522072
vt 0.7522604 0.7592184
vt 0.7466533 0.7541005
vt 0.7452585 0.7574613
vt 0.7363664 0.7575554
vt 0.7285742 0.7525024
vt 0.7371472 0.7398386
vt 0.7303668 0.7007626
vt 0.7360093 0.6609778
vt 0.7350057 0.6533547
vt 0.7285742 0.6626834
vt 0.7288386 0.6611601
vt 0.7348279 0.6595848
vt 0.1069259 0.5649832
vt 0.1004795 0.5692226
vt 0.1145546 0.5658211
vt 0.1177126 0.611852
vt 0.1018173 0.6130627
vt 0.1158979 0.5666775
vt 0.157092 0.5671312
vt 0.1511643 0.6064389
vt 0.1819896 0.5765713
vt 0.1084724 0.629606
vt 0.1023585 0.6308427
vt 0.1300881 0.6329407
vt 0.1949541 0.6197507
vt 0.1937485 0.5804529
vt 0.2056543 0.6141611
vt 0.2058964 0.6191313
vt 0.2084993 0.6842231
vt 0.2007474 0.6894059
vt 0.1993537 0.6890783
vt 0.1804165 0.6902106
vt 0.1274624 0.6464238
vt 0.1428676 0.6516217
vt 0.147506 0.6625938
vt 0.1560721 0.6743338
vt 0.1143604 0.6592098
vt 0.1013511 0.6455483
vt 0.1004795 0.6633341
vt 0.1060535 0.6696386
vt 0.134712 0.6676339
vt 0.1564151 0.6915643
vt 0.162738 0.6912803
vt 0.1662594 0.6917634
vt 0.3325432 0.4107895
vt 0.3417611 0.4162402
vt 0.3414286 0.4148006
vt 0.3324493 0.4130188
vt 0.3321234 0.4535837
vt 0.3020101 0.4019028
vt 0.3414463 0.4542336
vt 0.3285938 0.3974656
vt 0.3417611 0.4939778
vt 0.3254842 0.3943509
vt 0.3173294 0.387771
vt 0.3298853 0.5059959
vt 0.2937034 0.3928419
vt 0.2922787 0.3848074
vt 0.2875047 0.3939119
vt 0.2785393 0.3821264
vt 0.2698628 0.3852012
vt 0.2999782 0.4015516
vt 0.3080131 0.4533692
vt 0.3139225 0.501935
vt 0.2921667 0.4261341
vt 0.2483562 0.3976844
vt 0.2545182 0.3840805
vt 0.2481003 0.3834042
vt 0.3311422 0.5130405
vt 0.3339135 0.511964
vt 0.3058357 0.5181347
vt 0.2964242 0.4570107
vt 0.2756367 0.4274028
vt 0.3043345 0.5172498
vt 0.3010713 0.5199284
vt 0.2901918 0.5188158
vt 0.2543236 0.4251458
vt 0.2412613 0.4248021
vt 0.2406039 0.4261154
vt 0.2739511 0.4289454
vt 0.2838306 0.4724408
vt 0.2708784 0.4303981
vt 0.2878878 0.5201239
vt 0.2908081 0.5266889
vt 0.276467 0.5310634
vt 0.2873366 0.5170293
vt 0.2797832 0.4730835
vt 0.2820638 0.5153697
vt 0.2528533 0.4700249
vt 0.2523473 0.4272307
vt 0.2530872 0.5266807
vt 0.2572887 0.5334654
vt 0.2725346 0.5378531
vt 0.2783791 0.5317259
vt 0.2507291 0.5225182
vt 0.2359975 0.52009
vt 0.23545 0.4484203
vt 0.2380658 0.4289556
vt 0.2388161 0.4274424
vt 0.2334971 0.4790146
vt 0.2337993 0.5150107
vt 0.2346933 0.5173446
vt 0.866398 0.2833654
vt 0.87239 0.2759029
vt 0.866398 0.274362
vt 0.8750295 0.2853845
vt 0.7584752 0.5054916
vt 0.7527207 0.5080911
vt 0.7523651 0.5101555
vt 0.7515461 0.4980528
vt 0.7584752 0.4920159
vt 0.3713278 0.6806698
vt 0.3698604 0.6832425
vt 0.3809862 0.6756315
vt 0.3870707 0.6784778
vt 0.390061 0.6884989
vt 0.3968887 0.6804953
vt 0.3707655 0.7098824
vt 0.3528455 0.7057866
vt 0.3563879 0.7222124
vt 0.3523842 0.7106296
vt 0.4109084 0.6874183
vt 0.3920664 0.7108069
vt 0.3802427 0.7169141
vt 0.414326 0.7096546
vt 0.4026459 0.7229381
vt 0.4144243 0.678009
vt 0.4131339 0.6772039
vt 0.427175 0.7007862
vt 0.4257226 0.7087936
vt 0.4336321 0.7100346
vt 0.3613826 0.736132
vt 0.359993 0.7377682
vt 0.382896 0.7345422
vt 0.3755204 0.7433169
vt 0.3627551 0.7426414
vt 0.3803 0.7531518
vt 0.357889 0.757001
vt 0.3708373 0.7735708
vt 0.3523842 0.7598612
vt 0.3535485 0.7772406
vt 0.3641548 0.7833459
vt 0.3744473 0.7857913
vt 0.3800177 0.7873833
vt 0.3961943 0.764964
vt 0.3918739 0.779823
vt 0.4163956 0.7750957
vt 0.3904557 0.7821109
vt 0.3876977 0.7851211
vt 0.3913589 0.7817894
vt 0.3968055 0.7795959
vt 0.4335611 0.7411895
vt 0.4221911 0.7780585
vt 0.4269615 0.7751228
vt 0.4281442 0.7739066
vt 0.4328025 0.7554393
vt 0.4293093 0.7316833
vt 0.4341544 0.7377346
vt 0.4254847 0.7281069
vt 0.4308467 0.7308177
vt 0.2153064 0.4384952
vt 0.1959459 0.4419558
vt 0.2158094 0.4397727
vt 0.2134806 0.4119487
vt 0.2145511 0.4114412
vt 0.2100248 0.3974178
vt 0.2024404 0.4117849
vt 0.2012017 0.3935665
vt 0.1903538 0.3965502
vt 0.184549 0.4089527
vt 0.1894687 0.3970577
vt 0.1841276 0.4250164
vt 0.1907225 0.4509255
vt 0.1812902 0.4504304
vt 0.1831367 0.4941712
vt 0.1849006 0.4921124
vt 0.1835291 0.5431506
vt 0.197178 0.520393
vt 0.191403 0.491253
vt 0.2083729 0.4905984
vt 0.218425 0.4424278
vt 0.2178384 0.4409561
vt 0.2194952 0.4618373
vt 0.2193569 0.4924815
vt 0.2189423 0.5285777
vt 0.2172039 0.5305629
vt 0.2186878 0.530941
vt 0.2160808 0.53387
vt 0.2139479 0.5326721
vt 0.2047358 0.5393426
vt 0.1909807 0.5471163
vt 0.1942658 0.547476
vt 0.1885248 0.5479149
vt 0.1812761 0.5493467
vt 0.578758 0.9093443
vt 0.5657055 0.9254652
vt 0.5813891 0.9096175
vt 0.5764688 0.8963306
vt 0.573253 0.8962457
vt 0.5671259 0.8781855
vt 0.5657055 0.877417
vt 0.5700876 0.8779681
vt 0.2180373 0.225786
vt 0.2243561 0.2372963
vt 0.2253992 0.2253702
vt 0.2177632 0.2346043
vt 0.227436 0.2537605
vt 0.2170589 0.2772149
vt 0.227284 0.2793315
vt 0.2191537 0.303797
vt 0.2302447 0.3235643
vt 0.221238 0.3391423
vt 0.2256753 0.3723195
vt 0.2170589 0.3791255
vt 0.221079 0.3781148
vt 0.8435252 0.1702683
vt 0.8388056 0.1904816
vt 0.840652 0.1898388
vt 0.854119 0.184109
vt 0.8558489 0.1643013
vt 0.845577 0.1507872
vt 0.8738844 0.1772946
vt 0.8730722 0.1800918
vt 0.8693793 0.1848816
vt 0.8765354 0.176669
vt 0.8756124 0.16255
vt 0.8705897 0.1497777
vt 0.87595 0.1618198
vt 0.8667287 0.1377264
vt 0.8542759 0.1140331
vt 0.8407295 0.1103591
vt 0.8388162 0.1110745
vt 0.8388056 0.1100367
vt 0.847152 0.1092119
vt 0.8502991 0.1097982
vt 0.1806369 0.7805142
vt 0.1882112 0.7907677
vt 0.1900292 0.7890171
vt 0.1865945 0.7711084
vt 0.1738646 0.756978
vt 0.1847105 0.7528813
vt 0.1648105 0.7155261
vt 0.174827 0.7139891
vt 0.1753987 0.7128488
vt 0.1704644 0.70664
vt 0.1893314 0.7087522
vt 0.1892544 0.6957829
vt 0.1707872 0.6997949
vt 0.1900292 0.6943017
vt 0.1877497 0.3859223
vt 0.1812761 0.3910284
vt 0.1855441 0.3906602
vt 0.188241 0.3870026
vt 0.1934355 0.3831368
vt 0.1825523 0.3209879
vt 0.1856763 0.3194185
vt 0.1842908 0.3158973
vt 0.1883936 0.283414
vt 0.1812761 0.2816502
vt 0.1831018 0.2782638
vt 0.194512 0.2788547
vt 0.1843844 0.2762299
vt 0.1918862 0.2656583
vt 0.18499 0.2616382
vt 0.1901975 0.2468485
vt 0.1976177 0.2796051
vt 0.2056418 0.3047315
vt 0.2075562 0.3379495
vt 0.2066893 0.2769809
vt 0.2069886 0.3032452
vt 0.2051831 0.2345307
vt 0.2111646 0.3380091
vt 0.2145209 0.3780801
vt 0.2093122 0.3792415
vt 0.2096754 0.3808375
vt 0.1961201 0.233761
vt 0.1875301 0.2421246
vt 0.1873767 0.2378491
vt 0.1947391 0.231933
vt 0.2062829 0.2268071
vt 0.209169 0.226635
vt 0.2108358 0.2253702
vt 0.7808492 0.5166376
vt 0.7652455 0.5043753
vt 0.7613484 0.5257981
vt 0.7843229 0.4935134
vt 0.7643268 0.4929369
vt 0.7849589 0.4878048
vt 0.7613484 0.4842803
vt 0.7026989 0.5101581
vt 0.6952881 0.5047415
vt 0.6952881 0.5248418
vt 0.7021735 0.5040381
vt 0.6994732 0.4997565
usemtl MV_RockSpire_Rocks
f 1/1/1 3/3/3 2/2/2
f 4/4/4 6/6/6 5/5/5
f 7/7/7 9/9/9 8/8/8
f 10/10/10 12/12/12 11/11/11
f 13/13/13 15/15/15 14/14/14
f 16/16/16 18/18/18 17/17/17
f 19/19/19 17/17/17 18/18/18
f 17/17/17 19/19/19 20/20/20
f 20/20/20 21/21/21 17/17/17
f 22/22/22 20/20/20 19/19/19
f 22/22/22 23/23/23 20/20/20
f 20/20/20 23/23/23 24/24/24
f 21/21/21 20/20/20 24/24/24
f 24/24/24 23/23/23 25/25/25
f 21/21/21 24/24/24 25/25/25
f 25/25/25 26/26/26 21/21/21
f 26/26/26 27/27/27 21/21/21
f 28/28/28 21/21/21 27/27/27
f 19/19/19 18/18/18 29/29/29
f 30/30/30 19/19/19 29/29/29
f 31/31/31 30/30/30 29/29/29
f 32/32/32 29/29/29 18/18/18
f 31/31/31 29/29/29 32/32/32
f 33/33/33 32/32/32 18/18/18
f 31/31/31 32/32/32 34/34/34
f 34/34/34 35/35/35 31/31/31
f 36/36/36 38/38/38 37/37/37
f 37/37/37 39/39/39 36/36/36
f 39/39/39 40/40/40 36/36/36
f 41/41/41 40/40/40 39/39/39
f 41/41/41 39/39/39 42/42/42
f 43/43/43 41/41/41 42/42/42
f 44/44/44 41/41/41 43/43/43
f 43/43/43 45/45/45 44/44/44
f 44/44/44 45/45/45 46/46/46
f 46/46/46 47/47/47 44/44/44
f 44/44/44 47/47/47 48/48/48
f 40/40/40 41/41/41 49/49/49
f 49/49/49 50/50/50 40/40/40
f 44/44/44 51/51/51 41/41/41
f 51/51/51 49/49/49 41/41/41
f 44/44/44 48/48/48 52/52/52
f 51/51/51 44/44/44 52/52/52
f 48/48/48 53/53/53 52/52/52
f 53/53/53 54/54/54 52/52/52
f 53/53/53 55/55/55 54/54/54
f 54/54/54 56/56/56 52/52/52
f 56/56/56 57/57/57 52/52/52
f 57/57/57 51/51/51 52/52/52
f 58/58/58 51/51/51 57/57/57
f 58/58/58 49/49/49 51/51/51
f 59/59/59 58/58/58 57/57/57
f 59/59/59 57/57/57 60/60/60
f 58/58/58 61/61/61 49/49/49
f 62/62/62 49/49/49 61/61/61
f 49/49/49 62/62/62 50/50/50
f 50/50/50 62/62/62 63/63/63
f 50/50/50 63/63/63 64/64/64
f 65/65/65 67/67/67 66/66/66
f 65/65/65 66/66/66 68/68/68
f 69/69/69 65/65/65 68/68/68
f 69/69/69 68/68/68 70/70/70
f 71/71/71 73/73/73 72/72/72
f 71/71/71 74/74/74 73/73/73
f 75/75/75 77/77/77 76/76/76
f 77/77/77 78/78/78 76/76/76
f 79/79/79 76/76/76 78/78/78
f 79/79/79 78/78/78 77/77/77
f 80/80/80 79/79/79 77/77/77
f 80/80/80 77/77/77 81/81/81
f 81/81/81 77/77/77 82/82/82
f 81/81/81 82/82/82 83/83/83
f 81/81/81 83/83/83 84/84/84
f 81/81/81 84/84/84 85/85/85
f 86/86/86 81/81/81 85/85/85
f 87/87/87 81/81/81 86/86/86
f 87/87/87 80/80/80 81/81/81
f 87/87/87 86/86/86 88/88/88
f 86/86/86 89/89/89 88/88/88
f 90/90/90 87/87/87 88/88/88
f 91/91/91 87/87/87 90/90/90
f 90/90/90 92/92/92 91/91/91
f 92/92/92 93/93/93 91/91/91
f 92/92/92 94/94/94 93/93/93
f 93/93/93 94/94/94 95/95/95
f 96/96/96 93/93/93 95/95/95
f 96/96/96 97/97/97 93/93/93
f 93/93/93 97/97/97 87/87/87
f 87/87/87 97/97/97 80/80/80
f 97/97/97 98/98/98 80/80/80
f 79/79/79 80/80/80 98/98/98
f 98/98/98 99/99/99 79/79/79
f 99/99/99 100/100/100 79/79/79
f 98/98/98 101/101/101 99/99/99
f 101/101/101 102/102/102 99/99/99
f 102/102/102 103/103/103 99/99/99
f 104/104/104 106/106/106 105/105/105
f 106/106/106 107/107/107 105/105/105
f 107/107/107 108/108/108 105/105/105
f 106/106/106 109/109/109 107/107/107
f 106/106/106 110/110/110 109/109/109
f 109/109/109 110/110/110 111/111/111
f 109/109/109 111/111/111 107/107/107
f 112/112/112 111/111/111 110/110/110
f 108/108/108 107/107/107 113/113/113
f 108/108/108 113/113/113 114/114/114
f 115/115/115 113/113/113 107/107/107
f 111/111/111 115/115/115 107/107/107
f 111/111/111 112/112/112 116/116/116
f 117/117/117 116/116/116 112/112/112
f 117/117/117 118/118/118 116/116/116
f 118/118/118 119/119/119 116/116/116
f 116/116/116 119/119/119 120/120/120
f 121/121/121 116/116/116 120/120/120
f 116/116/116 121/121/121 122/122/122
f 116/116/116 122/122/122 123/123/123
f 124/124/124 114/114/114 113/113/113
f 115/115/115 124/124/124 113/113/113
f 125/125/125 115/115/115 111/111/111
f 125/125/125 111/111/111 116/116/116
f 124/124/124 115/115/115 125/125/125
f 116/116/116 126/126/126 125/125/125
f 126/126/126 124/124/124 125/125/125
f 116/116/116 123/123/123 127/127/127
f 127/127/127 126/126/126 116/116/116
f 124/124/124 128/128/128 114/114/114
f 129/129/129 114/114/114 128/128/128
f 128/128/128 130/130/130 129/129/129
f 128/128/128 131/131/131 130/130/130
f 131/131/131 128/128/128 132/132/132
f 128/128/128 124/124/124 132/132/132
f 132/132/132 124/124/124 126/126/126
f 132/132/132 126/126/126 127/127/127
f 127/127/127 133/133/133 132/132/132
f 127/127/127 134/134/134 133/133/133
f 127/127/127 123/123/123 134/134/134
f 123/123/123 135/135/135 134/134/134
f 136/136/136 138/138/138 137/137/137
f 136/136/136 137/137/137 139/139/139
f 140/140/140 139/139/139 137/137/137
f 140/140/140 141/141/141 139/139/139
f 140/140/140 137/137/137 142/142/142
f 141/141/141 143/143/143 139/139/139
f 140/140/140 142/142/142 144/144/144
f 143/143/143 141/141/141 145/145/145
f 146/146/146 145/145/145 141/141/141
f 144/144/144 147/147/147 140/140/140
f 141/141/141 148/148/148 146/146/146
f 148/148/148 149/149/149 146/146/146
f 148/148/148 150/150/150 149/149/149
f 150/150/150 151/151/151 149/149/149
f 152/152/152 151/151/151 150/150/150
f 148/148/148 141/141/141 153/153/153
f 150/150/150 148/148/148 153/153/153
f 140/140/140 154/154/154 141/141/141
f 154/154/154 153/153/153 141/141/141
f 140/140/140 147/147/147 155/155/155
f 155/155/155 154/154/154 140/140/140
f 154/154/154 156/156/156 153/153/153
f 156/156/156 150/150/150 153/153/153
f 152/152/152 150/150/150 157/157/157
f 152/152/152 157/157/157 158/158/158
f 158/158/158 157/157/157 159/159/159
f 160/160/160 155/155/155 147/147/147
f 160/160/160 147/147/147 161/161/161
f 160/160/160 162/162/162 155/155/155
f 154/154/154 163/163/163 156/156/156
f 163/163/163 154/154/154 155/155/155
f 164/164/164 150/150/150 156/156/156
f 164/164/164 157/157/157 150/150/150
f 163/163/163 164/164/164 156/156/156
f 162/162/162 165/165/165 155/155/155
f 165/165/165 163/163/163 155/155/155
f 165/165/165 162/162/162 166/166/166
f 167/167/167 163/163/163 165/165/165
f 166/166/166 167/167/167 165/165/165
f 168/168/168 157/157/157 164/164/164
f 168/168/168 169/169/169 157/157/157
f 169/169/169 168/168/168 170/170/170
f 168/168/168 164/164/164 171/171/171
f 163/163/163 172/172/172 164/164/164
f 171/171/171 164/164/164 172/172/172
f 163/163/163 167/167/167 172/172/172
f 172/172/172 173/173/173 171/171/171
f 166/166/166 174/174/174 167/167/167
f 175/175/175 174/174/174 166/166/166
f 174/174/174 175/175/175 176/176/176
f 167/167/167 177/177/177 172/172/172
f 167/167/167 174/174/174 177/177/177
f 172/172/172 178/178/178 173/173/173
f 177/177/177 178/178/178 172/172/172
f 177/177/177 174/174/174 179/179/179
f 177/177/177 179/179/179 178/178/178
f 173/173/173 178/178/178 180/180/180
f 180/180/180 178/178/178 179/179/179
f 173/173/173 180/180/180 181/181/181
f 182/182/182 179/179/179 174/174/174
f 182/182/182 174/174/174 176/176/176
f 183/183/183 182/182/182 176/176/176
f 176/176/176 184/184/184 183/183/183
f 184/184/184 176/176/176 185/185/185
f 182/182/182 186/186/186 179/179/179
f 180/180/180 179/179/179 186/186/186
f 186/186/186 182/182/182 187/187/187
f 181/181/181 180/180/180 188/188/188
f 189/189/189 181/181/181 188/188/188
f 181/181/181 189/189/189 190/190/190
f 188/188/188 180/180/180 191/191/191
f 191/191/191 180/180/180 186/186/186
f 191/191/191 186/186/186 192/192/192
f 193/193/193 192/192/192 186/186/186
f 194/194/194 196/196/196 195/195/195
f 194/194/194 195/195/195 197/197/197
f 198/198/198 200/200/200 199/199/199
f 198/198/198 199/199/199 201/201/201
f 198/198/198 201/201/201 202/202/202
f 203/203/203 205/205/205 204/204/204
f 204/204/204 205/205/205 206/206/206
f 204/204/204 206/206/206 207/207/207
f 207/207/207 206/206/206 208/208/208
f 204/204/204 207/207/207 209/209/209
f 210/210/210 204/204/204 209/209/209
f 210/210/210 209/209/209 211/211/211
f 212/212/212 210/210/210 211/211/211
f 213/213/213 207/207/207 208/208/208
f 214/214/214 209/209/209 207/207/207
f 207/207/207 213/213/213 214/214/214
f 211/211/211 209/209/209 215/215/215
f 209/209/209 214/214/214 215/215/215
f 213/213/213 216/216/216 214/214/214
f 214/214/214 217/217/217 215/215/215
f 213/213/213 208/208/208 218/218/218
f 208/208/208 219/219/219 218/218/218
f 216/216/216 213/213/213 220/220/220
f 220/220/220 213/213/213 218/218/218
f 216/216/216 220/220/220 221/221/221
f 220/220/220 218/218/218 222/222/222
f 220/220/220 222/222/222 221/221/221
f 211/211/211 215/215/215 223/223/223
f 223/223/223 224/224/224 211/211/211
f 215/215/215 225/225/225 223/223/223
f 215/215/215 217/217/217 225/225/225
f 226/226/226 223/223/223 225/225/225
f 226/226/226 227/227/227 223/223/223
f 227/227/227 226/226/226 228/228/228
f 228/228/228 226/226/226 225/225/225
f 229/229/229 227/227/227 228/228/228
f 230/230/230 229/229/229 228/228/228
f 229/229/229 230/230/230 231/231/231
f 231/231/231 230/230/230 232/232/232
f 230/230/230 233/233/233 232/232/232
f 230/230/230 234/234/234 233/233/233
f 234/234/234 230/230/230 235/235/235
f 236/236/236 228/228/228 225/225/225
f 236/236/236 225/225/225 217/217/217
f 237/237/237 230/230/230 228/228/228
f 230/230/230 237/237/237 235/235/235
f 237/237/237 228/228/228 236/236/236
f 237/237/237 236/236/236 238/238/238
f 239/239/239 235/235/235 237/237/237
f 235/235/235 239/239/239 240/240/240
f 241/241/241 239/239/239 237/237/237
f 242/242/242 241/241/241 237/237/237
f 243/243/243 236/236/236 217/217/217
f 244/244/244 236/236/236 243/243/243
f 244/244/244 243/243/243 245/245/245
f 243/243/243 246/246/246 245/245/245
f 243/243/243 247/247/247 246/246/246
f 243/243/243 217/217/217 248/248/248
f 249/249/249 243/243/243 248/248/248
f 250/250/250 248/248/248 217/217/217
f 249/249/249 248/248/248 251/251/251
f 248/248/248 250/250/250 251/251/251
f 252/252/252 254/254/254 253/253/253
f 253/253/253 255/255/255 252/252/252
f 252/252/252 255/255/255 256/256/256
f 256/256/256 255/255/255 257/257/257
f 258/258/258 257/257/257 255/255/255
f 253/253/253 258/258/258 255/255/255
f 258/258/258 259/259/259 257/257/257
f 258/258/258 260/260/260 259/259/259
f 258/258/258 261/261/261 260/260/260
f 262/262/262 260/260/260 261/261/261
f 263/263/263 261/261/261 258/258/258
f 253/253/253 263/263/263 258/258/258
f 264/264/264 263/263/263 253/253/253
f 265/265/265 263/263/263 264/264/264
f 266/266/266 265/265/265 264/264/264
f 267/267/267 266/266/266 264/264/264
f 268/268/268 266/266/266 267/267/267
f 267/267/267 269/269/269 268/268/268
f 264/264/264 270/270/270 267/267/267
f 264/264/264 253/253/253 270/270/270
f 270/270/270 269/269/269 267/267/267
f 270/270/270 253/253/253 271/271/271
f 269/269/269 270/270/270 271/271/271
f 271/271/271 253/253/253 272/272/272
f 272/272/272 253/253/253 273/273/273
f 271/271/271 272/272/272 274/274/274
f 271/271/271 274/274/274 275/275/275
f 271/271/271 275/275/275 276/276/276
f 269/269/269 271/271/271 276/276/276
f 276/276/276 277/277/277 269/269/269
f 276/276/276 278/278/278 277/277/277
f 278/278/278 279/279/279 277/277/277
f 277/277/277 279/279/279 280/280/280
f 280/280/280 269/269/269 277/277/277
f 281/281/281 280/280/280 279/279/279
f 269/269/269 280/280/280 281/281/281
f 269/269/269 281/281/281 268/268/268
f 281/281/281 282/282/282 268/268/268
f 283/283/283 282/282/282 281/281/281
f 284/284/284 282/282/282 283/283/283
f 268/268/268 282/282/282 284/284/284
f 284/284/284 285/285/285 268/268/268
f 286/286/286 288/288/288 287/287/287
f 286/286/286 289/289/289 288/288/288
f 286/286/286 290/290/290 289/289/289
f 290/290/290 291/291/291 289/289/289
f 290/290/290 292/292/292 291/291/291
f 289/289/289 291/291/291 293/293/293
f 291/291/291 292/292/292 293/293/293
f 294/294/294 296/296/296 295/295/295
f 294/294/294 295/295/295 297/297/297
f 297/297/297 295/295/295 298/298/298
f 299/299/299 297/297/297 298/298/298
f 300/300/300 299/299/299 298/298/298
f 301/301/301 299/299/299 300/300/300
f 301/301/301 300/300/300 302/302/302
f 302/302/302 303/303/303 301/301/301
f 304/304/304 303/303/303 302/302/302
f 305/305/305 303/303/303 304/304/304
f 304/304/304 306/306/306 305/305/305
f 307/307/307 309/309/309 308/308/308
f 307/307/307 310/310/310 309/309/309
f 307/307/307 311/311/311 310/310/310
f 312/312/312 311/311/311 307/307/307
f 313/313/313 310/310/310 311/311/311
f 310/310/310 313/313/313 314/314/314
f 310/310/310 314/314/314 315/315/315
f 314/314/314 313/313/313 316/316/316
f 317/317/317 316/316/316 313/313/313
f 311/311/311 317/317/317 313/313/313
f 311/311/311 318/318/318 317/317/317
f 311/311/311 312/312/312 318/318/318
f 318/318/318 319/319/319 317/317/317
f 312/312/312 320/320/320 318/318/318
f 321/321/321 320/320/320 312/312/312
f 312/312/312 322/322/322 321/321/321
f 312/312/312 323/323/323 322/322/322
f 322/322/322 323/323/323 324/324/324
f 322/322/322 325/325/325 321/321/321
f 326/326/326 321/321/321 325/325/325
f 327/327/327 329/329/329 328/328/328
f 327/327/327 330/330/330 329/329/329
f 330/330/330 327/327/327 331/331/331
f 330/330/330 331/331/331 332/332/332
f 332/332/332 331/331/331 333/333/333
f 332/332/332 333/333/333 334/334/334
f 333/333/333 335/335/335 334/334/334
f 336/336/336 335/335/335 333/333/333
f 335/335/335 336/336/336 337/337/337
f 337/337/337 336/336/336 338/338/338
f 339/339/339 338/338/338 336/336/336
f 338/338/338 339/339/339 340/340/340
f 341/341/341 343/343/343 342/342/342
f 343/343/343 341/341/341 344/344/344
f 345/345/345 344/344/344 341/341/341
f 346/346/346 345/345/345 341/341/341
f 346/346/346 347/347/347 345/345/345
f 346/346/346 348/348/348 347/347/347
f 348/348/348 349/349/349 347/347/347
f 349/349/349 348/348/348 350/350/350
f 351/351/351 349/349/349 350/350/350
f 351/351/351 352/352/352 349/349/349
f 353/353/353 352/352/352 351/351/351
f 354/354/354 352/352/352 353/353/353
f 354/354/354 353/353/353 355/355/355
f 355/355/355 356/356/356 354/354/354
f 349/349/349 352/352/352 357/357/357
f 354/354/354 357/357/357 352/352/352
f 347/347/347 349/349/349 358/358/358
f 349/349/349 357/357/357 358/358/358
f 359/359/359 345/345/345 347/347/347
f 359/359/359 347/347/347 358/358/358
f 357/357/357 354/354/354 360/360/360
f 358/358/358 357/357/357 360/360/360
f 360/360/360 361/361/361 358/358/358
f 359/359/359 358/358/358 361/361/361
f 362/362/362 360/360/360 354/354/354
f 354/354/354 356/356/356 362/362/362
f 363/363/363 359/359/359 361/361/361
f 363/363/363 364/364/364 359/359/359
f 359/359/359 365/365/365 345/345/345
f 364/364/364 365/365/365 359/359/359
f 345/345/345 365/365/365 366/366/366
f 365/365/365 364/364/364 366/366/366
f 356/356/356 367/367/367 362/362/362
f 367/367/367 356/356/356 368/368/368
f 367/367/367 368/368/368 369/369/369
f 369/369/369 370/370/370 367/367/367
f 370/370/370 371/371/371 367/367/367
f 362/362/362 367/367/367 372/372/372
f 371/371/371 372/372/372 367/367/367
f 372/372/372 373/373/373 362/362/362
f 372/372/372 371/371/371 373/373/373
f 374/374/374 376/376/376 375/375/375
f 375/375/375 377/377/377 374/374/374
f 375/375/375 378/378/378 377/377/377
f 378/378/378 379/379/379 377/377/377
f 378/378/378 380/380/380 379/379/379
f 381/381/381 383/383/383 382/382/382
f 384/384/384 381/381/381 382/382/382
f 382/382/382 385/385/385 384/384/384
