mtllib P_RockDesert_CliffHalf03.mtl
v 4.076423 -28.90617 -10.17316
v 4.410437 -29.90129 -9.733475
v 4.809156 -29.38719 -10.60088
v 10.39864 18.66316 -3.037106
v 10.19738 19.1947 -2.7454
v 7.831953 19.28537 -4.619616
v 8.114303 18.54959 -4.888139
v 1.580422 -30.53902 -8.248388
v -0.0846995 -29.41682 -9.184363
v 0.1460424 -30.84892 -8.102375
v 1.564581 -29.40805 -9.080063
v 2.823761 -30.26277 -8.206957
v -0.7909437 -21.51797 -10.74212
v 2.750711 -28.85907 -9.245469
v 4.410437 -29.90129 -9.733475
v 4.076423 -28.90617 -10.17316
v 2.63577 -24.48805 -10.67983
v 3.865669 -25.02744 -11.35026
v 3.189231 -17.37599 -11.60898
v 1.151552 -21.51797 -11.08586
v 4.413787 -25.07855 -12.11422
v 4.809156 -29.38719 -10.60088
v 4.438968 -19.56989 -12.33507
v 6.367781 -25.5378 -12.18054
v 6.331644 -29.18777 -10.78067
v 5.241279 -20.07128 -12.5116
v 9.043462 -25.40024 -11.16951
v 7.78657 -29.58032 -9.492606
v 6.930074 -19.47837 -12.59756
v 10.34582 -19.58501 -11.50489
v 10.46985 -18.20754 -10.9659
v 6.749444 -17.69216 -12.14151
v 10.28289 -15.70466 -10.09789
v 6.492374 -15.88321 -11.38445
v 10.39559 -13.97967 -9.74028
v 6.487689 -14.30549 -11.17492
v 3.554636 -13.52033 -11.85207
v 6.868359 -12.45127 -11.04232
v 0.9376268 -13.47358 -11.93727
v 10.95591 -12.46566 -9.092988
v 13.28006 -14.45048 -7.123561
v 14.63225 -12.42636 -6.951002
v 11.77268 -8.217225 -9.629399
v 15.19572 -8.635779 -7.311634
v 7.959783 -8.278886 -11.49532
v 4.187211 -8.300429 -12.33622
v 12.33038 -3.656208 -9.721118
v 15.60593 -3.540981 -6.913717
v 8.45508 -3.769725 -11.58076
v 1.152493 -8.323804 -12.2572
v 4.388812 -3.849462 -12.24308
v 9.173034 0.8170475 -12.20355
v 12.88805 1.977534 -9.985136
v 1.555962 -3.973981 -11.98869
v 4.677231 0.3840394 -12.85209
v 10.12208 4.975827 -13.70459
v 14.47046 5.304295 -11.22389
v 2.19814 0.3633504 -12.50222
v 5.035821 4.850377 -14.54437
v 10.85274 9.766179 -15.28835
v 15.51226 9.784879 -12.41681
v 1.330801 5.821042 -14.18797
v 5.449141 9.736379 -16.60082
v 11.93895 13.44341 -15.74513
v 16.69017 13.45868 -12.96033
v 12.16166 17.08759 -15.62532
v 16.79576 17.11512 -13.23868
v 6.512851 16.802 -17.34605
v 6.405169 13.8874 -16.88293
v -2.02515 14.15852 -18.03819
v 0.4084393 17.21402 -17.85055
v -1.613467 17.70513 -18.59826
v -3.761027 17.91748 -18.47253
v -5.977237 17.87345 -18.03174
v -0.2248868 10.91038 -16.36482
v -4.65279 14.59822 -18.12979
v -11.62946 17.82656 -16.29218
v -5.033196 11.20062 -16.09948
v -9.560997 13.28112 -15.35052
v -15.33135 17.95395 -12.8304
v -14.11183 13.47079 -11.87798
v -19.36081 18.29177 -8.940231
v -17.7385 13.47377 -8.567555
v -22.83027 17.803 -4.885649
v -21.07617 13.49241 -4.658522
v -10.29217 12.76756 -16.13402
v -2.590866 5.716069 -13.71444
v -7.232101 9.890414 -16.10888
v -0.1945812 0.3686147 -12.28324
v -0.9911203 -4.04998 -11.69888
v -3.597394 0.9173016 -11.81651
v -1.5728 -9.106469 -11.79388
v -5.435205 5.141443 -14.27777
v -3.447537 -4.264677 -11.10449
v -1.357268 -14.38547 -11.56139
v -4.133427 -9.741946 -10.47313
v -3.407515 -14.72683 -10.43828
v -1.514475 -21.42292 -9.816379
v -7.150256 0.595908 -12.75622
v -6.521465 -11.05145 -8.801343
v -2.627094 -21.51797 -9.473143
v -0.7894606 -29.18274 -8.251746
v -5.977657 -4.199712 -12.10068
v -5.93716 -14.08393 -8.803656
v -8.709289 -11.54439 -6.604022
v -8.485164 -9.214185 -10.36434
v -8.380721 -14.49379 -6.639442
v -10.96542 -9.757792 -4.838158
v -10.39316 -14.84257 -3.75867
v -5.394134 -21.52443 -8.742257
v -8.139838 -21.59837 -6.625293
v -1.917864 -29.38654 -9.181525
v -4.054607 -29.44462 -8.306386
v -5.843971 -29.72437 -6.140809
v -1.299451 -30.90474 -7.662456
v -0.5616027 -30.57441 -7.418949
v -2.768664 -31.35109 -6.816691
v -4.269217 -31.86011 -5.155095
v -4.081428 -31.94978 5.152071
v -3.888833 -29.46784 8.293693
v -2.648555 -31.3743 6.792193
v -5.604574 -29.79874 6.13059
v -5.496003 -21.99912 8.713096
v -5.272075 -32.46069 2.832723
v -5.778254 -21.71113 8.515591
v -6.594546 -30.31889 3.208559
v -7.861928 -21.77672 6.476993
v -5.770889 -32.66005 0.04420941
v -2.452901 -33.95358 3.006222
v -3.246532 -34.20936 0.02990877
v -7.20433 -30.43012 0.05262807
v -5.399446 -32.39374 -2.775035
v -6.912637 -14.7492 7.747587
v -5.83865 -20.62951 8.907947
v -9.53901 -21.79349 3.49196
v -6.758761 -30.24993 -3.143339
v -4.269217 -31.86011 -5.155095
v -5.843971 -29.72437 -6.140809
v -10.3771 -21.757 0.09135973
v -9.847085 -21.69242 -3.432171
v -8.139838 -21.59837 -6.625293
v -8.644207 -15.00282 5.640726
v -6.843714 -14.58772 8.260304
v -7.630338 -13.73253 10.05211
v -10.61156 -15.15056 2.849155
v -10.39316 -14.84257 -3.75867
v -8.380721 -14.49379 -6.639442
v -11.44098 -15.09109 -0.4373422
v -8.393908 -8.96405 7.717844
v -8.737217 -9.029354 9.718397
v -8.237685 -8.969766 10.66054
v -6.566481 -6.536897 12.22468
v -6.77574 -5.255589 11.24528
v -8.264543 -9.025329 8.221929
v -6.676054 -4.544781 9.813704
v -6.853987 -4.006491 9.451362
v -10.19673 -9.333158 5.534012
v -9.730106 -3.970754 8.142208
v -11.82178 -9.714417 2.632888
v -11.79835 -4.301958 5.638821
v -12.9483 -0.3275475 9.685695
v -12.14558 -10.24459 -0.6872393
v -10.96542 -9.757792 -4.838158
v -15.34144 -0.6463799 7.029339
v -14.57387 4.511753 11.00271
v -13.15736 -4.922583 2.630879
v -17.53546 4.545046 8.19587
v -14.87142 9.286061 12.07275
v -13.2543 -5.656128 -0.7200937
v -14.9631 -0.9224238 2.940054
v -18.13607 9.252919 8.645362
v -15.44257 13.66718 12.54062
v -17.6912 4.67606 4.371344
v -15.29249 -1.247965 -0.5496886
v -18.95369 13.61723 8.869171
v -16.59444 17.77048 13.28698
v -20.41524 17.74459 9.420317
v -19.74314 9.967916 4.717
v -21.17953 13.66389 4.641596
v -22.83035 17.78122 4.885781
v -18.54618 4.983319 0.8699474
v -12.40208 -5.900466 -3.208629
v -20.54256 9.995648 0.3960866
v -21.97678 13.67824 0.04572725
v -23.65587 17.79439 4.597207E-05
v -14.89736 -0.7229667 -2.992117
v -12.69089 -5.824365 -4.312044
v -21.07617 13.49241 -4.658522
v -22.83027 17.803 -4.885649
v -19.72734 11.5382 -4.493196
v -17.7385 13.47377 -8.567555
v -18.88201 6.151822 -2.814295
v -17.6723 3.226765 -2.487728
v -19.05732 6.068264 -3.42809
v -15.22421 -0.662559 -4.07567
v -12.48324 -8.684167 -6.064122
v -8.709289 -11.54439 -6.604022
v -10.752 -9.695293 -8.1137
v -19.69763 5.942257 -4.384136
v -20.21635 11.01237 -5.159175
v -17.90439 3.121399 -3.364655
v -13.56738 -5.696246 -5.119038
v -13.24292 -7.219311 -7.260217
v -12.07066 -7.765207 -8.742752
v -12.93002 -5.086378 -8.486018
v -13.93634 -5.440282 -6.594956
v -16.06461 -0.8505282 -4.987662
v -16.04131 -1.128898 -6.373629
v -18.61661 2.962239 -4.357967
v -18.94103 3.114868 -5.813632
v -15.06994 -1.377166 -7.636242
v -10.99507 -4.591381 -11.31007
v -12.71835 -0.8920283 -11.49753
v -18.49674 3.811551 -7.856113
v -14.65269 4.125042 -12.33257
v -19.71123 5.289301 -5.850874
v -20.30827 10.20317 -6.613334
v -19.20172 9.261975 -9.093177
v -18.97956 12.03586 -9.428988
v -18.23484 13.25404 -8.981259
v 8.157178 -29.18007 2.440019
v 9.8634 -28.48434 -0.001254941
v 8.70431 -29.82666 0.03259524
v 9.247409 -27.88532 2.804982
v 13.65823 -20.42227 -0.3251867
v 12.3985 -21.44723 3.435378
v 11.29732 -24.71092 -2.33038
v 9.519468 -28.5435 -2.368968
v 13.04244 -19.89151 -3.200517
v 12.45445 -24.64168 -3.931215
v 16.14127 -14.56056 -0.1656936
v 15.41945 -14.55048 3.19528
v 10.56462 -21.39758 5.959234
v 13.45286 -14.5271 6.037056
v 18.00319 -8.834937 -0.1823252
v 17.42735 -9.430639 3.089086
v 15.88939 -13.47703 -3.540802
v 13.77433 -18.28228 -3.289418
v 17.2849 -8.875624 -4.108169
v 18.71894 -3.848942 -0.3125836
v 17.89201 -3.718021 -3.614749
v 18.1023 -4.031225 2.895755
v 14.89332 -9.557024 5.859064
v 16.13387 -4.277354 5.81459
v 18.41094 2.956059 3.845429
v 16.02269 2.232853 6.856959
v 19.09007 3.109736 0.8109832
v 18.33454 2.819245 -3.103976
v 19.47951 3.495371 0.8819063
v 18.97833 3.925215 3.843257
v 17.2924 3.687925 7.391853
v 18.97506 4.397808 3.778288
v 17.2615 4.265543 7.407301
v 19.46674 4.191376 1.102192
v 19.30537 3.667592 -1.906303
v 19.36544 3.925128 -1.921948
v 18.46157 3.756868 -3.980269
v 15.89764 2.78872 -6.472982
v 15.60593 -3.540981 -6.913717
v 12.88805 1.977534 -9.985136
v 12.33038 -3.656208 -9.721118
v 15.19572 -8.635779 -7.311634
v 14.63225 -12.42636 -6.951002
v 13.28006 -14.45048 -7.123561
v 12.87913 -16.4143 -7.252769
v 10.28289 -15.70466 -10.09789
v 10.39559 -13.97967 -9.74028
v 10.46985 -18.20754 -10.9659
v 12.75284 -18.34801 -8.001339
v 10.34582 -19.58501 -11.50489
v 13.6441 -20.77147 -4.721243
v 12.77356 -20.50576 -8.477081
v 11.92964 -25.40874 -8.58973
v 9.043462 -25.40024 -11.16951
v 7.78657 -29.58032 -9.492606
v 10.28463 -28.95474 -7.255514
v 10.6932 -28.74777 -3.737727
v 8.70431 -29.82666 0.03259524
v 9.8634 -28.48434 -0.001254941
v 9.519468 -28.5435 -2.368968
v 8.158624 -29.74534 -3.426549
v 10.6932 -28.74777 -3.737727
v 9.166657 -29.52254 -4.207325
v 10.28463 -28.95474 -7.255514
v 9.328195 -30.13301 -6.568748
v 7.78657 -29.58032 -9.492606
v 6.977409 -30.49926 -5.275422
v 7.504965 -30.20586 -8.916069
v 6.331644 -29.18777 -10.78067
v 6.013663 -30.44941 -6.978517
v 5.784135 -30.10496 -9.666614
v 4.809156 -29.38719 -10.60088
v 4.410437 -29.90129 -9.733475
v 2.823761 -30.26277 -8.206957
v 4.279146 -30.56167 -7.623929
v 4.449508 -31.3103 -5.217899
v 5.609983 -31.45901 -2.770863
v 2.749874 -32.01112 -4.885109
v 1.580422 -30.53902 -8.248388
v 6.501197 -31.16249 0.05482484
v 8.157178 -29.18007 2.440019
v 5.535414 -30.49264 2.773238
v 3.261828 -32.82722 -2.750632
v 1.127195 -32.07698 -5.26057
v 0.1460424 -30.84892 -8.102375
v 4.008235 -33.04816 0.08476406
v 3.490615 -32.46474 2.533553
v 1.492213 -33.46588 -3.0956
v 0.1413993 -32.67007 -4.944723
v -0.6016166 -31.4987 -6.38531
v 1.571533 -34.34449 0.03099521
v 1.79416 -33.61426 2.293365
v -0.3047193 -33.85029 -3.143336
v -0.5682372 -34.83767 0.1157734
v -0.04064081 -34.35238 2.419029
v -1.265848 -32.90202 -4.638279
v -3.246532 -34.20936 0.02990877
v -2.452901 -33.95358 3.006222
v -2.481019 -33.60218 -3.124018
v -5.399446 -32.39374 -2.775035
v -5.770889 -32.66005 0.04420941
v -4.269217 -31.86011 -5.155095
v -2.768664 -31.35109 -6.816691
v -1.299451 -30.90474 -7.662456
v -0.5616027 -30.57441 -7.418949
v -1.203452 -30.94294 7.636416
v -1.195824 -32.88235 4.640988
v -4.081428 -31.94978 5.152071
v -2.648555 -31.3743 6.792193
v -1.195824 -32.88235 4.640988
v -5.272075 -32.46069 2.832723
v -4.081428 -31.94978 5.152071
v -2.452901 -33.95358 3.006222
v 0.1811581 -32.54575 4.892457
v -0.04064081 -34.35238 2.419029
v 0.07168321 -30.49274 7.828266
v -1.203452 -30.94294 7.636416
v 1.463188 -32.02299 4.840045
v 1.79416 -33.61426 2.293365
v 1.189079 -29.92249 7.6399
v 2.730056 -31.28869 4.562198
v 3.490615 -32.46474 2.533553
v 2.313836 -29.28292 7.259843
v 4.109104 -30.44883 4.071069
v 5.535414 -30.49264 2.773238
v 3.605464 -28.63393 6.614747
v 6.76633 -28.32185 4.17556
v 8.157178 -29.18007 2.440019
v 9.247409 -27.88532 2.804982
v 5.12274 -28.16746 5.564378
v 8.009657 -26.86628 4.956972
v 12.3985 -21.44723 3.435378
v 10.56462 -21.39758 5.959234
v 6.040421 -26.57366 6.659176
v 4.083703 -27.1754 7.895645
v 8.106285 -21.34577 7.771697
v 13.45286 -14.5271 6.037056
v 2.458826 -27.90607 8.319804
v 5.970612 -21.42443 9.183023
v 1.154632 -28.52988 8.769787
v 10.57399 -14.82578 8.172044
v 3.860985 -21.93004 10.13223
v -0.1651041 -29.0545 8.964231
v 7.809464 -14.16078 9.660414
v 1.329897 -21.60464 10.83563
v -1.864082 -29.32082 9.129157
v -2.648555 -31.3743 6.792193
v -3.888833 -29.46784 8.293693
v -0.84312 -21.51797 10.71277
v 4.766837 -13.91303 10.46328
v -3.097065 -21.58608 10.05084
v 1.784904 -12.87621 13.06183
v 2.268881 -13.5505 10.65168
v -1.97399 -13.06061 12.78004
v 1.582664 -8.12577 13.13138
v -5.293512 -21.69149 8.872345
v -5.496003 -21.99912 8.713096
v 4.891751 -8.283973 10.32178
v 1.964756 -8.135694 10.38315
v 8.989851 -8.085745 9.716101
v -4.932612 -13.46072 11.72235
v -5.83865 -20.62951 8.907947
v -5.778254 -21.71113 8.515591
v -7.630338 -13.73253 10.05211
v 5.229774 -3.640044 10.50359
v 0.6153455 -4.771754 10.72453
v -2.459553 -8.738082 13.02827
v -5.920817 -9.029081 11.95794
v -8.237685 -8.969766 10.66054
v -6.566481 -6.536897 12.22468
v -2.794144 -6.401766 13.26604
v 0.04285399 -6.272108 13.45493
v 0.41801 -5.383262 12.46717
v 9.397991 -3.898353 9.697411
v 5.199145 0.6686921 11.1943
v 9.944276 0.3615651 10.33921
v 13.22528 -4.39311 8.174181
v 13.85431 1.607852 8.992565
v 11.97196 -9.318705 8.172635
v 14.89332 -9.557024 5.859064
v 17.42735 -9.430639 3.089086
v 15.41945 -14.55048 3.19528
v 16.13387 -4.277354 5.81459
v 16.02269 2.232853 6.856959
v 17.2924 3.687925 7.391853
v 14.66344 3.160203 9.750958
v 17.2615 4.265543 7.407301
v 10.85223 4.025105 11.71945
v 15.25908 4.761685 10.43959
v 18.21924 5.160596 7.959565
v 17.82582 4.387224 7.6378
v 18.21126 6.728215 8.838567
v 15.57948 6.861617 11.13696
v 19.0243 9.659368 9.616155
v 15.74644 9.327237 12.38563
v 19.9071 13.45362 10.20707
v 10.87799 6.709401 12.44024
v 5.517741 4.9287 12.3473
v 16.34143 12.96732 13.29438
v 20.88388 17.07861 10.78718
v 17.09947 16.27589 14.21707
v 10.79785 9.44354 13.46327
v 11.14005 12.96894 14.52806
v 11.55987 16.324 15.59586
v 5.22039 9.840322 14.1997
v 5.459448 13.59381 15.4318
v 5.718747 17.30635 16.6141
v 0.6681165 0.4102406 11.5533
v 0.3089577 5.141499 13.32852
v 0.022841 9.857587 15.5179
v 0.1251994 13.78006 16.76008
v 0.1112934 17.75824 18.1578
v -3.136659 -4.150461 10.28688
v -3.008523 -4.62886 10.65726
v -6.676054 -4.544781 9.813704
v -6.853987 -4.006491 9.451362
v -3.694413 0.04414227 11.58004
v -4.489012 4.876011 13.46223
v -4.870485 9.813642 15.54398
v -4.896785 13.71104 16.39925
v -5.304139 17.69222 17.5525
v -7.73347 0.06761888 10.65928
v -8.886559 4.566754 12.37442
v -9.730106 -3.970754 8.142208
v -8.393908 -8.96405 7.717844
v -12.9483 -0.3275475 9.685695
v -14.57387 4.511753 11.00271
v -10.05621 9.738324 14.44469
v -14.87142 9.286061 12.07275
v -10.74984 13.69269 15.28807
v -11.59614 17.71454 16.22375
v -15.44257 13.66718 12.54062
v -16.59444 17.77048 13.28698
v 2.268881 -13.5505 10.65168
v 1.329897 -21.60464 10.83563
v 1.784904 -12.87621 13.06183
v 1.964756 -8.135694 10.38315
v 1.582664 -8.12577 13.13138
v 0.6153455 -4.771754 10.72453
v 0.41801 -5.383262 12.46717
v 14.47046 5.304295 -11.22389
v 12.88805 1.977534 -9.985136
v 15.89764 2.78872 -6.472982
v 17.77999 5.283284 -7.788424
v 18.46157 3.756868 -3.980269
v 19.71457 5.180045 -5.047698
v 19.60958 4.00105 -2.035327
v 19.36544 3.925128 -1.921948
v 20.2958 4.983488 -3.782527
v 20.84319 5.102805 -0.2178271
v 19.46674 4.191376 1.102192
v 20.08236 4.280635 1.195391
v 18.97506 4.397808 3.778288
v 19.44239 4.509521 3.87795
v 17.2615 4.265543 7.407301
v 17.82582 4.387224 7.6378
v 14.66344 3.160203 9.750958
v -8.709289 -11.54439 -6.604022
v -6.521465 -11.05145 -8.801343
v -8.485164 -9.214185 -10.36434
v -10.752 -9.695293 -8.1137
v -9.560997 13.28112 -15.35052
v -14.76582 13.23969 -12.44958
v -10.29217 12.76756 -16.13402
v -14.11183 13.47079 -11.87798
v -18.23484 13.25404 -8.981259
v -15.49742 12.0876 -13.04426
v -18.97956 12.03586 -9.428988
v -17.7385 13.47377 -8.567555
v -20.21635 11.01237 -5.159175
v -19.72734 11.5382 -4.493196
v 22.45724 17.69807 5.341081
v 19.9071 13.45362 10.20707
v 20.88388 17.07861 10.78718
v 21.43465 13.82135 5.195711
v 23.50407 17.6979 0.09829961
v 19.0243 9.659368 9.616155
v 22.28639 13.80209 0.1688122
v 23.26475 17.69764 -4.920801
v 20.42434 9.939603 5.002297
v 18.21126 6.728215 8.838567
v 22.0442 13.76568 -4.612484
v 20.35273 17.15775 -9.197528
v 21.09226 9.899945 0.2280444
v 20.02378 6.972631 4.525136
v 18.21924 5.160596 7.959565
v 20.08578 13.7422 -9.058963
v 16.79576 17.11512 -13.23868
v 16.69017 13.45868 -12.96033
v 20.80087 9.830785 -4.224082
v 18.8283 9.787562 -8.45304
v 15.51226 9.784879 -12.41681
v 20.83094 6.936755 0.2282375
v 20.64382 5.239701 1.804605
v 20.27053 5.309987 3.988593
v 17.82582 4.387224 7.6378
v 19.44239 4.509521 3.87795
v 20.08236 4.280635 1.195391
v 19.60958 4.00105 -2.035327
v 20.84319 5.102805 -0.2178271
v 18.17814 7.460186 -7.907055
v 14.47046 5.304295 -11.22389
v 17.77999 5.283284 -7.788424
v 20.95466 5.310904 0.06376803
v 20.33674 6.848832 -3.96477
v 20.39793 5.36889 -4.0529
v 19.71457 5.180045 -5.047698
v 20.2958 4.983488 -3.782527
v -19.20172 9.261975 -9.093177
v -18.49674 3.811551 -7.856113
v -14.65269 4.125042 -12.33257
v -15.7204 8.59184 -13.06791
v -18.97956 12.03586 -9.428988
v -15.49742 12.0876 -13.04426
v -10.70104 4.375462 -14.25289
v -11.7634 9.067784 -15.7143
v -10.06109 0.5170189 -12.97996
v -12.71835 -0.8920283 -11.49753
v -11.46235 11.71331 -16.24183
v -14.76582 13.23969 -12.44958
v -8.964971 9.327966 -16.01263
v -8.260948 4.655381 -14.53338
v -8.97293 -4.264068 -12.52929
v -10.99507 -4.591381 -11.31007
v -9.859136 -7.315927 -11.17453
v -12.93002 -5.086378 -8.486018
v -12.07066 -7.765207 -8.742752
v -10.752 -9.695293 -8.1137
v 7.831953 19.28537 -4.619616
v 3.672551 19.56446 -8.306968
v 4.088254 18.67827 -8.650176
v 8.114303 18.54959 -4.888139
v 12.02423 18.82021 1.277469
v 10.55109 19.15811 -2.270283
v 10.82488 18.69162 -2.406165
v 10.39864 18.66316 -3.037106
v 10.19738 19.1947 -2.7454
v 9.519468 -28.5435 -2.368968
v 11.29732 -24.71092 -2.33038
v 12.45445 -24.64168 -3.931215
v 10.6932 -28.74777 -3.737727
v -3.008523 -4.62886 10.65726
v 0.6153455 -4.771754 10.72453
v 0.41801 -5.383262 12.46717
v -2.973607 -5.108653 11.97889
v -6.676054 -4.544781 9.813704
v 0.04285399 -6.272108 13.45493
v -6.77574 -5.255589 11.24528
v -2.794144 -6.401766 13.26604
v -6.566481 -6.536897 12.22468
v -1.514475 -21.42292 -9.816379
v -0.0846995 -29.41682 -9.184363
v -0.7909437 -21.51797 -10.74212
v -0.7894606 -29.18274 -8.251746
v 0.1460424 -30.84892 -8.102375
v -0.5616027 -30.57441 -7.418949
v -0.6016166 -31.4987 -6.38531
v 19.47951 3.495371 0.8819063
v 19.30537 3.667592 -1.906303
v 19.09007 3.109736 0.8109832
v 18.33454 2.819245 -3.103976
v 11.44448 18.60186 -2.995572
v 10.39864 18.66316 -3.037106
v 8.114303 18.54959 -4.888139
v 13.89855 17.88424 -7.418663
v 10.82488 18.69162 -2.406165
v 16.71029 18.28223 -2.658673
v 16.73772 18.49861 2.044542
v 12.02423 18.82021 1.277469
v 7.462249 17.77275 -10.87889
v 4.444314 18.32537 -8.831626
v 4.088254 18.67827 -8.650176
v 2.587661 18.18619 -12.4121
v 0.7115498 17.92935 -17.21872
v 1.611792 18.92846 -12.42633
v 0.7142498 19.62791 -11.69638
v 3.672551 19.56446 -8.306968
v 6.447103 17.42123 -16.71852
v 22.63733 18.35336 -4.589515
v 22.87506 18.36248 0.2432734
v 2.841567 19.55164 -7.34607
v 7.702362 19.56378 -4.219828
v 7.831953 19.28537 -4.619616
v 10.00026 19.39434 -2.361117
v 10.19738 19.1947 -2.7454
v 10.23569 19.35626 -2.075454
v 10.55109 19.15811 -2.270283
v 8.347415 19.57405 0.0291345
v 0.8710442 19.84369 -4.519944
v -0.8505659 19.83039 -10.69091
v -1.426868 18.63207 -17.62768
v 0.4084393 17.21402 -17.85055
v -1.613467 17.70513 -18.59826
v 6.512851 16.802 -17.34605
v -3.1133 18.88042 -17.52099
v -3.761027 17.91748 -18.47253
v -5.977237 17.87345 -18.03174
v 12.08181 17.40535 -15.13879
v 12.16166 17.08759 -15.62532
v -5.734554 18.79363 -17.06573
v -11.62946 17.82656 -16.29218
v 16.52966 17.54791 -12.76556
v 16.79576 17.11512 -13.23868
v 19.9206 17.67059 -8.849376
v 20.35273 17.15775 -9.197528
v 23.26475 17.69764 -4.920801
v 23.50407 17.6979 0.09829961
v 21.62928 18.50128 5.086322
v 22.45724 17.69807 5.341081
v 20.15508 17.8119 10.23263
v 20.88388 17.07861 10.78718
v 15.41499 18.39482 6.06739
v 16.16822 17.04013 13.3425
v 17.09947 16.27589 14.21707
v 14.48036 17.60212 10.25976
v 9.159241 19.13784 5.286241
v 11.14919 17.23587 14.40483
v 11.55987 16.324 15.59586
v 7.91152 18.18344 10.16317
v 5.558974 18.16666 15.43616
v 5.718747 17.30635 16.6141
v 0.1831345 19.70849 1.165686
v 0.3977875 19.28849 5.88935
v 0.188903 18.66981 16.99213
v 0.1112934 17.75824 18.1578
v 0.3309906 18.80747 11.38458
v -4.915864 18.6145 16.44443
v -5.304139 17.69222 17.5525
v -6.71786 18.75652 11.4417
v -7.817594 19.42707 5.982861
v -7.590904 20.02714 0.2845997
v -7.205523 20.00164 -5.688408
v -10.83181 18.60354 15.22988
v -11.59614 17.71454 16.22375
v -13.24652 18.77458 10.3626
v -14.99624 18.97927 5.364089
v -15.59304 19.39322 6.896219E-05
v -15.56247 18.68157 12.48112
v -16.59444 17.77048 13.28698
v -19.15205 18.68361 8.845719
v -20.41524 17.74459 9.420317
v -21.41069 18.75295 4.584941
v -22.83035 17.78122 4.885781
v -22.18066 18.75467 6.44535E-05
v -23.65587 17.79439 4.597207E-05
v -21.70186 18.7628 -4.827658
v -22.83027 17.803 -4.885649
v -14.99624 19.33036 -5.363949
v -18.4388 19.26123 -8.571492
v -19.36081 18.29177 -8.940231
v -12.88533 19.31709 -10.17656
v -14.8284 19.01583 -12.20044
v -15.33135 17.95395 -12.8304
v -11.09141 18.87081 -15.38588
v -6.040639 19.79715 -11.39788
vn -0.6200816 -0.3701188 -0.6917448
vn -0.3036765 -0.7785659 -0.5491955
vn -0.3300014 -0.5685015 -0.7535947
vn 0.3483348 0.858525 -0.3762947
vn 0.5229488 0.7100182 -0.4715916
vn 0.4203426 0.7764099 -0.4695742
vn 0.3581823 0.8213357 -0.4439743
vn 0.1499085 -0.7471565 -0.6475219
vn -0.4182347 -0.4006793 -0.8151907
vn -0.2612043 -0.7286111 -0.6331653
vn 0.0394407 -0.4564589 -0.8888699
vn 0.004511507 -0.8165352 -0.5772781
vn -0.4174163 -0.1887301 -0.8889008
vn -0.2558097 -0.436047 -0.8628004
vn -0.3036765 -0.7785659 -0.5491955
vn -0.6200816 -0.3701188 -0.6917448
vn -0.3770212 -0.2031963 -0.9036406
vn -0.6093315 -0.175484 -0.7732532
vn -0.0707122 0.01774232 -0.997339
vn -0.06578083 -0.1560551 -0.9855555
vn -0.3832448 -0.1739427 -0.9071203
vn -0.3300014 -0.5685015 -0.7535947
vn -0.3848319 0.08228047 -0.9193119
vn 0.1517783 -0.2457633 -0.9573734
vn 0.1737245 -0.5604256 -0.8097795
vn -0.2419455 0.0490111 -0.9690512
vn 0.5260469 -0.2840648 -0.801612
vn 0.4685558 -0.6219755 -0.6273771
vn 0.132787 0.1025959 -0.9858204
vn 0.5529757 0.05937191 -0.8310794
vn 0.5786698 0.2626117 -0.7721246
vn 0.1016057 0.3122702 -0.9445441
vn 0.5428452 0.1899666 -0.8180659
vn 0.1342869 0.2351224 -0.9626446
vn 0.5010453 0.04387016 -0.8643084
vn 0.2525817 0.06055563 -0.9656788
vn 0.1095905 -0.08364415 -0.9904512
vn 0.3226453 -0.06967222 -0.9439523
vn -0.07747127 -0.08038334 -0.9937488
vn 0.4938537 -0.119113 -0.8613482
vn 0.7466136 -0.2171666 -0.6288139
vn 0.7190087 -0.2588932 -0.6449813
vn 0.4998579 -0.1193697 -0.857842
vn 0.7139115 -0.1281613 -0.6884077
vn 0.3293516 -0.1075204 -0.9380655
vn 0.09752094 -0.04767177 -0.9940911
vn 0.5656903 -0.07130683 -0.821529
vn 0.7496795 -0.02876189 -0.6611758
vn 0.3198662 -0.09608703 -0.9425778
vn -0.08906791 -0.003308095 -0.9960201
vn 0.04437786 -0.0620093 -0.9970885
vn 0.3391609 -0.2755937 -0.8994543
vn 0.6093812 -0.3160102 -0.727181
vn -0.1025828 -0.03117772 -0.9942358
vn 0.01322751 -0.2440278 -0.969678
vn 0.3489909 -0.3843955 -0.854661
vn 0.6017292 -0.4215471 -0.6783952
vn -0.1181252 -0.2146749 -0.969516
vn 0.01235266 -0.3676513 -0.9298816
vn 0.3446663 -0.2763183 -0.8971362
vn 0.6129522 -0.3164953 -0.7239615
vn -0.1234914 -0.3657214 -0.9224954
vn 0.06560799 -0.3020289 -0.9510385
vn 0.371908 -0.1356513 -0.9183045
vn 0.6342342 -0.1820313 -0.7514064
vn 0.3287951 0.4068381 -0.8522773
vn 0.5677797 0.389238 -0.7253413
vn 0.1758854 0.3315128 -0.9269108
vn 0.1575037 -0.1350532 -0.9782398
vn 0.008345972 -0.2783286 -0.9604497
vn 0.2419301 0.2642848 -0.9336077
vn 0.1679714 0.2755208 -0.9465062
vn -0.08141162 0.3560857 -0.9309002
vn -0.2427299 0.3039462 -0.9212486
vn -0.05158968 -0.3744226 -0.925822
vn -0.1911346 -0.2945332 -0.9363321
vn -0.5075617 0.1974373 -0.8386893
vn -0.04492363 -0.3298064 -0.9429791
vn -0.3131983 0.1194822 -0.9421417
vn -0.656316 0.1777444 -0.7332504
vn -0.5841959 0.4333252 -0.6862539
vn -0.718245 0.2380631 -0.6537967
vn -0.7830006 0.3370834 -0.5227666
vn -0.8978958 0.2247387 -0.378518
vn -0.8168075 -0.412909 -0.4029041
vn -0.1295974 0.5018819 -0.855172
vn 0.03589536 -0.3646923 -0.930436
vn 0.1198299 -0.08613366 -0.989051
vn -0.1343811 -0.209434 -0.9685448
vn -0.195645 -0.04499506 -0.979642
vn 0.06826057 -0.2501035 -0.9658099
vn -0.2812593 -0.02086468 -0.9594049
vn 0.189195 -0.3450965 -0.9193007
vn -0.04330882 -0.1499049 -0.9877514
vn -0.3353524 -0.107755 -0.93591
vn -0.4949626 -0.04541093 -0.8677268
vn -0.4885145 -0.1139024 -0.8650895
vn -0.397666 -0.1751475 -0.9006582
vn 0.1871359 -0.2384467 -0.9529551
vn -0.4334685 -0.3482516 -0.8311594
vn -0.1899113 -0.1147328 -0.9750744
vn -0.2171719 -0.3901104 -0.8947906
vn 0.227475 -0.2525667 -0.9404601
vn -0.5750361 -0.08390487 -0.8138141
vn -0.6702748 -0.4460868 -0.5930753
vn -0.1134258 -0.6124592 -0.7823224
vn -0.7306201 -0.09165506 -0.6766045
vn -0.8752037 -0.4555202 -0.1628493
vn -0.8971246 -0.1307307 -0.4219915
vn -0.5199125 -0.108217 -0.8473371
vn -0.775407 -0.1507466 -0.6132044
vn 0.03030629 -0.3561278 -0.9339457
vn -0.4538547 -0.4185193 -0.786675
vn -0.7112272 -0.4487443 -0.5410956
vn 0.1934763 -0.7045465 -0.6827747
vn -0.1575816 -0.6614608 -0.7332379
vn -0.2689499 -0.7781938 -0.5675213
vn -0.4470765 -0.7550218 -0.4796507
vn -0.4425138 -0.7403236 0.5060657
vn -0.4919957 -0.4362865 0.7533886
vn -0.2651529 -0.7738043 0.5752572
vn -0.7167974 -0.4464535 0.5356125
vn -0.5769252 -0.2044869 0.7907859
vn -0.6210448 -0.7187264 0.3126272
vn -0.703146 -0.18157 0.6874722
vn -0.8386497 -0.4477741 0.3101049
vn -0.8003653 -0.1467953 0.5812629
vn -0.6864091 -0.7272144 -0.001355941
vn -0.2505048 -0.8917656 0.3768308
vn -0.3515556 -0.935647 -0.03120016
vn -0.8955799 -0.4443216 0.02269004
vn -0.6140256 -0.7326872 -0.2934999
vn -0.8798894 -0.1468685 0.4519119
vn -0.7859833 -0.2328353 0.5727286
vn -0.9108515 -0.2032374 0.359227
vn -0.8450924 -0.4567834 -0.277791
vn -0.4470765 -0.7550218 -0.4796507
vn -0.7112272 -0.4487443 -0.5410956
vn -0.9711972 -0.2371081 0.02357322
vn -0.9213794 -0.2094854 -0.3273773
vn -0.775407 -0.1507466 -0.6132044
vn -0.7913268 -0.1151543 0.600451
vn -0.9769645 -0.2084616 -0.04565229
vn -0.8882044 -0.2747089 0.3682771
vn -0.9145302 -0.1423331 0.37865
vn -0.8971246 -0.1307307 -0.4219915
vn -0.7306201 -0.09165506 -0.6766045
vn -0.9877061 -0.153555 -0.02928222
vn -0.8199149 -0.1535584 0.5515065
vn -0.9915785 0.07079674 0.1084435
vn -0.7556912 -0.01453691 0.6547668
vn -0.5144618 0.231687 0.8256211
vn -0.5908193 0.6849565 0.4263416
vn -0.995711 0.005298116 0.09236716
vn -0.6332292 0.5760304 0.5169234
vn -0.3992741 -0.107228 0.9105396
vn -0.7881793 -0.2219334 0.5740374
vn -0.474692 -0.4118669 0.7778388
vn -0.9179567 -0.2232314 0.3279077
vn -0.7429507 -0.4769335 0.4696367
vn -0.4206704 -0.4922874 0.7620299
vn -0.9755582 -0.2049205 -0.07933422
vn -0.8752037 -0.4555202 -0.1628493
vn -0.7693477 -0.5390572 0.3428141
vn -0.4889229 -0.3241158 0.8098786
vn -0.8920985 -0.3899193 0.2283052
vn -0.8521306 -0.3290592 0.4069318
vn -0.5462667 -0.2273395 0.8061696
vn -0.9394577 -0.3327925 -0.08166048
vn -0.8668364 -0.4840923 0.1193703
vn -0.8349658 -0.2223113 0.5033984
vn -0.5880718 -0.2492415 0.769448
vn -0.9168832 -0.380908 0.1193076
vn -0.8908337 -0.4536949 -0.02400243
vn -0.7862092 -0.2794498 0.5511651
vn -0.5936147 0.3021286 0.745882
vn -0.7784199 0.286581 0.5585103
vn -0.9203261 -0.3072492 0.2420699
vn -0.895497 -0.3394533 0.2878483
vn -0.910048 0.2820204 0.3037715
vn -0.9146088 -0.4016282 0.04674989
vn -0.9289491 -0.3654489 -0.05916788
vn -0.933265 -0.3591836 -0.001858387
vn -0.919004 -0.3938213 -0.01834592
vn -0.9639372 0.2661078 0.003411816
vn -0.8708543 -0.4901803 0.03655275
vn -0.8057777 -0.4184015 0.4191212
vn -0.8168075 -0.412909 -0.4029041
vn -0.8978958 0.2247387 -0.378518
vn -0.9872497 -0.1317024 -0.08940056
vn -0.7830006 0.3370834 -0.5227666
vn -0.9569818 -0.2785214 0.08131191
vn -0.8779684 -0.4703079 0.08934226
vn -0.88189 -0.1774899 0.4367693
vn -0.7506702 -0.487688 0.4457069
vn -0.7869452 -0.6017575 0.1364012
vn -0.6702748 -0.4460868 -0.5930753
vn -0.5589918 -0.7353528 -0.3831244
vn -0.9173097 -0.1657982 0.3620137
vn -0.9208062 0.3186854 0.2248455
vn -0.78121 -0.4511834 0.4314446
vn -0.8099601 -0.4112344 0.4181517
vn -0.8843486 -0.3916343 -0.2540673
vn -0.7116017 -0.4565757 -0.5340053
vn -0.7845222 -0.2847103 -0.5508765
vn -0.9133855 -0.3688937 -0.1721756
vn -0.7738228 -0.5059633 0.3810505
vn -0.850971 -0.4945526 -0.1768223
vn -0.8119895 -0.4450066 0.37768
vn -0.8881636 -0.4484688 -0.1002052
vn -0.7600886 -0.4002975 -0.5118859
vn -0.6119634 -0.268015 -0.7440893
vn -0.5934342 -0.3361732 -0.7313163
vn -0.8076205 -0.3499645 -0.4746304
vn -0.5868871 -0.3352077 -0.7370206
vn -0.9653176 -0.240988 -0.1004321
vn -0.9812164 0.09592197 -0.1673721
vn -0.8405126 -0.1079316 -0.5309327
vn -0.8206302 0.3317547 -0.465301
vn -0.6026684 0.761534 -0.2384466
vn 0.5420704 -0.7042847 0.4584133
vn 0.8296765 -0.5537079 0.07102415
vn 0.6328644 -0.7657225 0.1146814
vn 0.7086294 -0.5497814 0.4422497
vn 0.9121991 -0.4096937 -0.006611852
vn 0.8289977 -0.3943846 0.3965143
vn 0.9106056 -0.3668096 0.1903897
vn 0.7533044 -0.6372114 0.1627703
vn 0.966947 -0.2503019 -0.04860651
vn 0.9220266 -0.2953677 0.2502497
vn 0.9320138 -0.362284 -0.01002927
vn 0.8620749 -0.3276671 0.3866019
vn 0.6592201 -0.3472742 0.6669554
vn 0.6890146 -0.2436898 0.6825498
vn 0.9762636 -0.2161707 -0.0134009
vn 0.894534 -0.2182477 0.3900986
vn 0.8802614 -0.3429771 -0.3278821
vn 0.8835238 -0.3575442 -0.3025689
vn 0.9123027 -0.1789583 -0.3683445
vn 0.9956707 -0.08910423 -0.02646197
vn 0.9168879 -0.04924071 -0.3960958
vn 0.9161782 -0.1090851 0.3856398
vn 0.696541 -0.1723186 0.6965178
vn 0.7309421 -0.1266005 0.6705937
vn 0.8565125 -0.3814966 0.3476301
vn 0.725238 -0.3918437 0.5661169
vn 0.91636 -0.399229 0.03001162
vn 0.8759691 -0.2928706 -0.383282
vn 0.9307143 -0.3620689 0.05173895
vn 0.9113606 -0.2769097 0.304537
vn 0.7847241 -0.2931314 0.5461522
vn 0.7081677 -0.6645809 0.2383919
vn 0.6544362 -0.6949783 0.2978566
vn 0.7348232 -0.6681131 0.1168752
vn 0.8986793 -0.3973782 -0.1856506
vn 0.6953534 -0.7109793 -0.1048431
vn 0.6472638 -0.6569712 -0.3865728
vn 0.7387482 -0.3568612 -0.5717528
vn 0.7496795 -0.02876189 -0.6611758
vn 0.6093812 -0.3160102 -0.727181
vn 0.5656903 -0.07130683 -0.821529
vn 0.7139115 -0.1281613 -0.6884077
vn 0.7190087 -0.2588932 -0.6449813
vn 0.7466136 -0.2171666 -0.6288139
vn 0.8922383 -0.01349405 -0.4513631
vn 0.5428452 0.1899666 -0.8180659
vn 0.5010453 0.04387016 -0.8643084
vn 0.5786698 0.2626117 -0.7721246
vn 0.9114809 0.1697939 -0.3746634
vn 0.5529757 0.05937191 -0.8310794
vn 0.9931439 -0.06863845 0.09462534
vn 0.8951735 -0.05466017 -0.4423536
vn 0.8407507 -0.3353645 -0.4250517
vn 0.5260469 -0.2840648 -0.801612
vn 0.4685558 -0.6219755 -0.6273771
vn 0.7402954 -0.605256 -0.2926226
vn 0.7456861 -0.6017645 0.2860625
vn 0.6328644 -0.7657225 0.1146814
vn 0.8296765 -0.5537079 0.07102415
vn 0.7533044 -0.6372114 0.1627703
vn 0.4723294 -0.8782216 0.07504411
vn 0.7456861 -0.6017645 0.2860625
vn 0.4321734 -0.8691733 0.2403415
vn 0.7402954 -0.605256 -0.2926226
vn 0.4544587 -0.8878737 -0.07174715
vn 0.4685558 -0.6219755 -0.6273771
vn 0.2915437 -0.9554718 -0.04556267
vn 0.291357 -0.8925949 -0.3440718
vn 0.1737245 -0.5604256 -0.8097795
vn 0.14219 -0.977318 -0.156944
vn 0.05877532 -0.9042899 -0.4228536
vn -0.3300014 -0.5685015 -0.7535947
vn -0.3036765 -0.7785659 -0.5491955
vn 0.004511507 -0.8165352 -0.5772781
vn 0.07705843 -0.9532527 -0.2921838
vn 0.3001208 -0.9085716 -0.2905602
vn 0.4877034 -0.8581405 -0.1604379
vn 0.2636204 -0.8686221 -0.4195236
vn 0.1499085 -0.7471565 -0.6475219
vn 0.5490178 -0.8270485 0.1207072
vn 0.5420704 -0.7042847 0.4584133
vn 0.513537 -0.702212 0.4931308
vn 0.4217439 -0.8590316 -0.2901669
vn 0.2266359 -0.8525801 -0.4708964
vn -0.2612043 -0.7286111 -0.6331653
vn 0.5359398 -0.8415957 0.06697179
vn 0.5255189 -0.7306259 0.4359079
vn 0.2876516 -0.8779725 -0.3826498
vn 0.09200451 -0.836755 -0.5397927
vn -0.04126054 -0.8272952 -0.5602502
vn 0.3559499 -0.9343991 -0.01407663
vn 0.4050079 -0.8315541 0.3801135
vn 0.05110827 -0.9163814 -0.3970305
vn 0.02053123 -0.9992132 -0.03393248
vn 0.1297002 -0.9224682 0.3636348
vn -0.09828154 -0.8464319 -0.5233487
vn -0.3515556 -0.935647 -0.03120016
vn -0.2505048 -0.8917656 0.3768308
vn -0.2611282 -0.8951573 -0.3612555
vn -0.6140256 -0.7326872 -0.2934999
vn -0.6864091 -0.7272144 -0.001355941
vn -0.4470765 -0.7550218 -0.4796507
vn -0.2689499 -0.7781938 -0.5675213
vn 0.1934763 -0.7045465 -0.6827747
vn -0.1575816 -0.6614608 -0.7332379
vn -0.005409338 -0.7575631 0.6527396
vn -0.0481908 -0.8356621 0.5471257
vn -0.4425138 -0.7403236 0.5060657
vn -0.2651529 -0.7738043 0.5752572
vn -0.0481908 -0.8356621 0.5471257
vn -0.6210448 -0.7187264 0.3126272
vn -0.4425138 -0.7403236 0.5060657
vn -0.2505048 -0.8917656 0.3768308
vn 0.2409411 -0.7956548 0.5557705
vn 0.1297002 -0.9224682 0.3636348
vn 0.2676104 -0.6899738 0.6725481
vn -0.005409338 -0.7575631 0.6527396
vn 0.4291655 -0.7192531 0.5463442
vn 0.4050079 -0.8315541 0.3801135
vn 0.4480325 -0.6255548 0.6387082
vn 0.5228594 -0.6487153 0.5529798
vn 0.5255189 -0.7306259 0.4359079
vn 0.5293077 -0.6031272 0.5967168
vn 0.5304285 -0.6183243 0.5799316
vn 0.513537 -0.702212 0.4931308
vn 0.5389505 -0.6240542 0.5657638
vn 0.4569509 -0.6499209 0.607288
vn 0.5420704 -0.7042847 0.4584133
vn 0.7086294 -0.5497814 0.4422497
vn 0.50393 -0.6446006 0.5749303
vn 0.5618923 -0.5233603 0.6406022
vn 0.8289977 -0.3943846 0.3965143
vn 0.6592201 -0.3472742 0.6669554
vn 0.5303664 -0.509545 0.677551
vn 0.5059432 -0.4895848 0.7101608
vn 0.5396463 -0.3014911 0.7860566
vn 0.6890146 -0.2436898 0.6825498
vn 0.4347494 -0.4624059 0.7727701
vn 0.4445362 -0.2462779 0.8612403
vn 0.30568 -0.4262974 0.8513697
vn 0.528557 -0.1852721 0.8284333
vn 0.3129047 -0.2105876 0.9261444
vn 0.1233 -0.4303496 0.8942015
vn 0.360872 -0.1063084 0.9265366
vn 0.1520887 -0.2101903 0.9657583
vn -0.1695349 -0.4311041 0.886232
vn -0.2651529 -0.7738043 0.5752572
vn -0.4919957 -0.4362865 0.7533886
vn -0.1015394 -0.2366933 0.9662639
vn 0.1888378 -0.02989068 0.9815533
vn -0.3245612 -0.220539 0.9197949
vn 0.6072439 -0.09725752 0.7885404
vn 0.6580311 -0.01938264 0.7527413
vn -0.1744354 -0.1594604 0.971671
vn 0.6721162 0.1363243 0.7277882
vn -0.4847327 -0.2241977 0.8454405
vn -0.5769252 -0.2044869 0.7907859
vn 0.1137806 -0.01673379 0.9933649
vn 0.5974381 0.1130182 0.793911
vn 0.3018938 -0.05543631 0.9517284
vn -0.3885697 -0.2000558 0.8994394
vn -0.7859833 -0.2328353 0.5727286
vn -0.703146 -0.18157 0.6874722
vn -0.8882044 -0.2747089 0.3682771
vn 0.1212913 -0.1080264 0.9867212
vn 0.2619168 0.2641547 0.9282359
vn -0.1615659 -0.1103087 0.9806775
vn -0.3898387 -0.1598625 0.9069012
vn -0.7556912 -0.01453691 0.6547668
vn -0.5144618 0.231687 0.8256211
vn -0.153506 0.2880153 0.9452423
vn 0.1998616 0.3543917 0.9134888
vn 0.4804891 0.7306967 0.4849872
vn 0.2750539 -0.1112082 0.9549754
vn 0.1221847 -0.2397965 0.9631036
vn 0.2505639 -0.2650299 0.9311159
vn 0.5229161 -0.1343821 0.8417245
vn 0.5203518 -0.3664378 0.7713348
vn 0.5172862 -0.1189305 0.8475084
vn 0.696541 -0.1723186 0.6965178
vn 0.894534 -0.2182477 0.3900986
vn 0.8620749 -0.3276671 0.3866019
vn 0.7309421 -0.1266005 0.6705937
vn 0.725238 -0.3918437 0.5661169
vn 0.7847241 -0.2931314 0.5461522
vn 0.4898794 -0.5356533 0.6878181
vn 0.6544362 -0.6949783 0.2978566
vn 0.2166219 -0.3440019 0.9136398
vn 0.4703645 -0.4111477 0.7808424
vn 0.7576581 -0.3948613 0.5196526
vn 0.52074 -0.7994822 0.2994296
vn 0.7695137 -0.297844 0.5649228
vn 0.4517951 -0.3627368 0.815048
vn 0.8004407 -0.2980574 0.5200543
vn 0.4223675 -0.3398482 0.8403029
vn 0.8189483 -0.2896794 0.4953884
vn 0.1723442 -0.3297471 0.9282049
vn 0.1263128 -0.328179 0.9361323
vn 0.4453647 -0.3059727 0.8414458
vn 0.7878145 0.2888694 0.5439693
vn 0.4468997 0.2531248 0.8580259
vn 0.1578373 -0.3329757 0.9296314
vn 0.1638597 -0.3048901 0.9381856
vn 0.2194886 0.277883 0.9352036
vn 0.1589581 -0.33375 0.9291627
vn 0.1688912 -0.3112042 0.9352153
vn 0.2508382 0.3142395 0.9156057
vn 0.05319814 -0.2615052 0.9637349
vn 0.099968 -0.3606411 0.9273319
vn 0.1025881 -0.336446 0.9360982
vn 0.08592612 -0.3016327 0.9495443
vn 0.08162685 0.2880392 0.9541334
vn -0.1285003 0.1547443 0.9795621
vn -0.05074085 0.7979399 0.6005974
vn -0.6332292 0.5760304 0.5169234
vn -0.3992741 -0.107228 0.9105396
vn -0.1075823 -0.3232216 0.9401882
vn -0.08394007 -0.3889594 0.9174228
vn -0.09756251 -0.3215831 0.9418417
vn -0.1218745 -0.2680261 0.9556718
vn -0.1466864 0.290987 0.9454151
vn -0.2072417 -0.375593 0.9033166
vn -0.2171156 -0.3674246 0.9043561
vn -0.474692 -0.4118669 0.7778388
vn -0.8199149 -0.1535584 0.5515065
vn -0.4206704 -0.4922874 0.7620299
vn -0.4889229 -0.3241158 0.8098786
vn -0.2876512 -0.2877476 0.9134867
vn -0.5462667 -0.2273395 0.8061696
vn -0.3326502 -0.2523671 0.9086555
vn -0.3523593 0.2958627 0.8878672
vn -0.5880718 -0.2492415 0.769448
vn -0.5936147 0.3021286 0.745882
vn 0.6580311 -0.01938264 0.7527413
vn 0.1520887 -0.2101903 0.9657583
vn 0.6072439 -0.09725752 0.7885404
vn 0.5974381 0.1130182 0.793911
vn 0.6721162 0.1363243 0.7277882
vn 0.2619168 0.2641547 0.9282359
vn 0.4804891 0.7306967 0.4849872
vn 0.6017292 -0.4215471 -0.6783952
vn 0.6093812 -0.3160102 -0.727181
vn 0.7387482 -0.3568612 -0.5717528
vn 0.7286035 -0.3989662 -0.5567432
vn 0.6472638 -0.6569712 -0.3865728
vn 0.750047 -0.4589978 -0.4761833
vn 0.5046205 -0.8602734 -0.07271816
vn 0.6953534 -0.7109793 -0.1048431
vn 0.7678732 -0.5927165 -0.2430184
vn 0.8447964 -0.5332007 -0.04490139
vn 0.7348232 -0.6681131 0.1168752
vn 0.5131292 -0.8538353 0.08754224
vn 0.7081677 -0.6645809 0.2383919
vn 0.4938731 -0.8489316 0.1881607
vn 0.6544362 -0.6949783 0.2978566
vn 0.52074 -0.7994822 0.2994296
vn 0.4898794 -0.5356533 0.6878181
vn -0.6702748 -0.4460868 -0.5930753
vn -0.4334685 -0.3482516 -0.8311594
vn -0.1134258 -0.6124592 -0.7823224
vn -0.5589918 -0.7353528 -0.3831244
vn -0.3131983 0.1194822 -0.9421417
vn -0.3723545 0.8087685 -0.4552425
vn -0.1295974 0.5018819 -0.855172
vn -0.5841959 0.4333252 -0.6862539
vn -0.6026684 0.761534 -0.2384466
vn -0.6253508 0.3230137 -0.710351
vn -0.8206302 0.3317547 -0.465301
vn -0.7830006 0.3370834 -0.5227666
vn -0.9208062 0.3186854 0.2248455
vn -0.9872497 -0.1317024 -0.08940056
vn 0.927384 0.2805982 0.2474341
vn 0.8189483 -0.2896794 0.4953884
vn 0.7878145 0.2888694 0.5439693
vn 0.9398983 -0.2691317 0.2101414
vn 0.9708602 0.2314992 0.06195653
vn 0.8004407 -0.2980574 0.5200543
vn 0.955976 -0.2877659 0.05745156
vn 0.9128692 0.2705353 -0.3057458
vn 0.9464921 -0.2305828 0.2257969
vn 0.7695137 -0.297844 0.5649228
vn 0.9264237 -0.28584 -0.2450196
vn 0.7543141 0.3200685 -0.5732071
vn 0.977232 -0.2075969 0.04383142
vn 0.9537293 -0.1132074 0.27854
vn 0.7576581 -0.3948613 0.5196526
vn 0.8118176 -0.2306218 -0.5364381
vn 0.5677797 0.389238 -0.7253413
vn 0.6342342 -0.1820313 -0.7514064
vn 0.9335801 -0.2560918 -0.2506895
vn 0.7971494 -0.3102566 -0.5179707
vn 0.6129522 -0.3164953 -0.7239615
vn 0.9988211 -0.03053284 0.03773667
vn 0.9296864 -0.3283229 0.1669947
vn 0.9055398 -0.3226238 0.2755207
vn 0.52074 -0.7994822 0.2994296
vn 0.4938731 -0.8489316 0.1881607
vn 0.5131292 -0.8538353 0.08754224
vn 0.5046205 -0.8602734 -0.07271816
vn 0.8447964 -0.5332007 -0.04490139
vn 0.7955505 -0.2236526 -0.5630977
vn 0.6017292 -0.4215471 -0.6783952
vn 0.7286035 -0.3989662 -0.5567432
vn 0.9695591 -0.2410056 0.043259
vn 0.9479671 -0.09217533 -0.3047329
vn 0.9120922 -0.2162215 -0.3483331
vn 0.750047 -0.4589978 -0.4761833
vn 0.7678732 -0.5927165 -0.2430184
vn -0.8405126 -0.1079316 -0.5309327
vn -0.8076205 -0.3499645 -0.4746304
vn -0.5868871 -0.3352077 -0.7370206
vn -0.6450679 -0.151132 -0.7490304
vn -0.8206302 0.3317547 -0.465301
vn -0.6253508 0.3230137 -0.710351
vn -0.2434479 -0.3190822 -0.9159256
vn -0.3370175 -0.2008883 -0.9198169
vn -0.1699678 -0.2658081 -0.9489241
vn -0.5934342 -0.3361732 -0.7313163
vn -0.3487045 0.1920155 -0.9173523
vn -0.3723545 0.8087685 -0.4552425
vn 0.004605363 -0.201125 -0.9795548
vn 0.03382999 -0.3334234 -0.94217
vn -0.1324518 -0.2429315 -0.9609582
vn -0.6119634 -0.268015 -0.7440893
vn -0.3645003 -0.4288382 -0.8265817
vn -0.7845222 -0.2847103 -0.5508765
vn -0.7116017 -0.4565757 -0.5340053
vn -0.5589918 -0.7353528 -0.3831244
vn 0.4203426 0.7764099 -0.4695742
vn 0.3543432 0.8855091 -0.3005239
vn 0.5648425 0.682344 -0.4640687
vn 0.3581823 0.8213357 -0.4439743
vn 0.1384622 0.9903675 -0.000650468
vn 0.62187 0.7248176 -0.2965083
vn 0.4251124 0.8730457 -0.2388948
vn 0.3483348 0.858525 -0.3762947
vn 0.5229488 0.7100182 -0.4715916
vn 0.7533044 -0.6372114 0.1627703
vn 0.9106056 -0.3668096 0.1903897
vn 0.9220266 -0.2953677 0.2502497
vn 0.7456861 -0.6017645 0.2860625
vn -0.05074085 0.7979399 0.6005974
vn 0.2619168 0.2641547 0.9282359
vn 0.4804891 0.7306967 0.4849872
vn -0.08338968 0.8255022 0.5582045
vn -0.6332292 0.5760304 0.5169234
vn 0.1998616 0.3543917 0.9134888
vn -0.5908193 0.6849565 0.4263416
vn -0.153506 0.2880153 0.9452423
vn -0.5144618 0.231687 0.8256211
vn -0.397666 -0.1751475 -0.9006582
vn -0.4182347 -0.4006793 -0.8151907
vn -0.4174163 -0.1887301 -0.8889008
vn -0.2171719 -0.3901104 -0.8947906
vn -0.2612043 -0.7286111 -0.6331653
vn -0.1575816 -0.6614608 -0.7332379
vn -0.04126054 -0.8272952 -0.5602502
vn 0.9307143 -0.3620689 0.05173895
vn 0.8986793 -0.3973782 -0.1856506
vn 0.91636 -0.399229 0.03001162
vn 0.8759691 -0.2928706 -0.383282
vn 0.06443461 0.9933046 -0.0958868
vn 0.3483348 0.858525 -0.3762947
vn 0.3581823 0.8213357 -0.4439743
vn 0.02699993 0.9948105 -0.0980977
vn 0.4251124 0.8730457 -0.2388948
vn 0.02326031 0.9972066 -0.07097837
vn 0.03712062 0.9992257 -0.0130403
vn 0.1384622 0.9903675 -0.000650468
vn 0.06488756 0.9932556 -0.09608813
vn 0.3434701 0.8940285 -0.2876481
vn 0.5648425 0.682344 -0.4640687
vn 0.3652003 0.9073523 -0.2081841
vn 0.2767921 0.8219934 -0.4977077
vn 0.512808 0.7996899 -0.3122883
vn 0.2603042 0.942063 -0.211563
vn 0.3543432 0.8855091 -0.3005239
vn 0.1137201 0.9004695 -0.4197886
vn 0.3824351 0.9088156 -0.1667262
vn 0.4151929 0.9091403 0.03284452
vn 0.08151627 0.9950877 -0.05617476
vn 0.1537521 0.9776173 -0.1436135
vn 0.4203426 0.7764099 -0.4695742
vn 0.2622609 0.9515852 -0.1603272
vn 0.5229488 0.7100182 -0.4715916
vn 0.3138795 0.9462224 -0.07837597
vn 0.62187 0.7248176 -0.2965083
vn 0.09192379 0.9948302 0.04316086
vn 0.03842726 0.9991767 -0.0130063
vn 0.04106905 0.9962568 -0.07606347
vn 0.2121543 0.8381009 -0.5025708
vn 0.2419301 0.2642848 -0.9336077
vn 0.1679714 0.2755208 -0.9465062
vn 0.1758854 0.3315128 -0.9269108
vn -0.002170245 0.8933747 -0.4493072
vn -0.08141162 0.3560857 -0.9309002
vn -0.2427299 0.3039462 -0.9212486
vn 0.1311658 0.9273061 -0.3505696
vn 0.3287951 0.4068381 -0.8522773
vn -0.1112837 0.8926317 -0.4368348
vn -0.5075617 0.1974373 -0.8386893
vn 0.2312565 0.9223165 -0.3096009
vn 0.5677797 0.389238 -0.7253413
vn 0.2790904 0.9141233 -0.2940871
vn 0.7543141 0.3200685 -0.5732071
vn 0.9128692 0.2705353 -0.3057458
vn 0.9708602 0.2314992 0.06195653
vn 0.3453065 0.9281898 0.1386621
vn 0.927384 0.2805982 0.2474341
vn 0.2782907 0.9099047 0.3076164
vn 0.7878145 0.2888694 0.5439693
vn 0.04306103 0.9937438 0.1030486
vn 0.1271627 0.9084113 0.3982694
vn 0.4468997 0.2531248 0.8580259
vn 0.04649242 0.9842866 0.1703478
vn 0.08083516 0.9900637 0.1150634
vn 0.1559052 0.9208385 0.3574215
vn 0.2194886 0.277883 0.9352036
vn 0.09469564 0.9865132 0.1335081
vn 0.1735176 0.932835 0.3157698
vn 0.2508382 0.3142395 0.9156057
vn 0.0263009 0.9981687 0.05447529
vn 0.03022413 0.9937041 0.1078829
vn 0.06835995 0.9291496 0.3633291
vn 0.08162685 0.2880392 0.9541334
vn 0.03973734 0.9963464 0.07559658
vn -0.05790399 0.9361435 0.3468177
vn -0.1466864 0.290987 0.9454151
vn -0.01022592 0.9978838 0.06421303
vn -0.02402378 0.9949698 0.097252
vn -0.02705374 0.9985806 0.04587994
vn -0.03358769 0.9992626 -0.01860457
vn -0.1168141 0.9321753 0.3426422
vn -0.3523593 0.2958627 0.8878672
vn -0.02509719 0.998218 0.05413845
vn -0.05506572 0.9961045 0.06887482
vn -0.07989897 0.9964256 0.02742456
vn -0.2003881 0.9395894 0.2775183
vn -0.5936147 0.3021286 0.745882
vn -0.2694842 0.9385478 0.2156533
vn -0.7784199 0.286581 0.5585103
vn -0.321652 0.9379154 0.1298258
vn -0.910048 0.2820204 0.3037715
vn -0.3561998 0.934314 0.01337871
vn -0.9639372 0.2661078 0.003411816
vn -0.400347 0.900205 -0.171328
vn -0.8978958 0.2247387 -0.378518
vn -0.07249455 0.9973474 -0.006535493
vn -0.3195977 0.9074801 -0.2726484
vn -0.718245 0.2380631 -0.6537967
vn -0.06196692 0.9953843 -0.07328242
vn -0.2993564 0.8794305 -0.3701187
vn -0.656316 0.1777444 -0.7332504
vn -0.2337638 0.8717759 -0.4305361
vn -0.03458567 0.9948321 -0.09546196
vt 0.221687 0.6237677
vt 0.221687 0.6348326
vt 0.2275539 0.6284088
vt 0.2374945 0.6523525
vt 0.2417956 0.6493512
vt 0.2417956 0.6278682
vt 0.2356472 0.6319665
vt 0.8312578 0.4823016
vt 0.8164648 0.4694766
vt 0.8171389 0.484783
vt 0.8323119 0.4703236
vt 0.8433355 0.4802967
vt 0.813934 0.3910898
vt 0.8441337 0.4653964
vt 0.8602876 0.4755879
vt 0.8578364 0.4652762
vt 0.845957 0.4214041
vt 0.8583099 0.4263113
vt 0.8547167 0.3520175
vt 0.8330485 0.3915769
vt 0.8643341 0.4260688
vt 0.8651671 0.4696993
vt 0.8667327 0.3727827
vt 0.8831283 0.4313435
vt 0.8801318 0.4682793
vt 0.8744846 0.3777636
vt 0.9080622 0.432631
vt 0.8928072 0.4744415
vt 0.8911045 0.3727598
vt 0.923028 0.3768607
vt 0.9241881 0.3643697
vt 0.8895438 0.3560802
vt 0.922418 0.3413289
vt 0.8869593 0.3395382
vt 0.9237674 0.3252511
vt 0.887266 0.3246275
vt 0.859844 0.314773
vt 0.8914705 0.3071412
vt 0.8346419 0.3129502
vt 0.9290885 0.311798
vt 0.948944 0.3345923
vt 0.9625623 0.3159916
vt 0.9390032 0.2706081
vt 0.9696959 0.2793153
vt 0.9039327 0.2669246
vt 0.8682693 0.2642142
vt 0.9460908 0.2268666
vt 0.9750694 0.2310061
vt 0.9103926 0.2236602
vt 0.8388443 0.2630795
vt 0.8716956 0.2216017
vt 0.9195552 0.179054
vt 0.9537237 0.1725771
vt 0.8440161 0.2217668
vt 0.8765676 0.1802059
vt 0.9316553 0.1375299
vt 0.9713991 0.1397075
vt 0.8522519 0.1796672
vt 0.8832535 0.1351876
vt 0.9419471 0.08971476
vt 0.9842097 0.09553411
vt 0.8474283 0.1245266
vt 0.8909705 0.08568121
vt 0.9541882 0.05425551
vt 0.9974205 0.06003875
vt 0.9575085 0.01945168
vt 1 0.02454008
vt 0.9044681 0.01722779
vt 0.90195 0.04582824
vt 0.8216639 0.03764535
vt 0.8460858 0.009660816
vt 0.8274381 0.002982952
vt 0.8066278 6.853556E-05
vt 0.784757 9.654971E-09
vt 0.8362975 0.07195701
vt 0.7965036 0.03202767
vt 0.7284024 1.06413E-08
vt 0.7896544 0.06719294
vt 0.7458836 0.04596857
vt 0.6892903 0.001514238
vt 0.6985753 0.04648814
vt 0.6466687 0.0014053
vt 0.6602939 0.04903794
vt 0.6090102 0.009735597
vt 0.6242297 0.05235863
vt 0.7393957 0.04953402
vt 0.8090157 0.1242652
vt 0.7679428 0.07872869
vt 0.8289077 0.1787493
vt 0.819082 0.221649
vt 0.7957484 0.1724389
vt 0.8117696 0.2699029
vt 0.7818618 0.1276873
vt 0.7946795 0.2233077
vt 0.8117678 0.3211102
vt 0.7855049 0.2765099
vt 0.7907333 0.3248747
vt 0.806072 0.3910363
vt 0.7621997 0.1725907
vt 0.76033 0.290145
vt 0.7949478 0.3918632
vt 0.8088265 0.4681033
vt 0.7712097 0.2201609
vt 0.7649131 0.3196051
vt 0.7368672 0.2967057
vt 0.743512 0.2694756
vt 0.7390394 0.3251998
vt 0.7139666 0.2807338
vt 0.7166584 0.3313511
vt 0.7674826 0.3915468
vt 0.738852 0.3937016
vt 0.7987495 0.4683052
vt 0.7772197 0.4689779
vt 0.7577152 0.4736378
vt 0.8027162 0.4851983
vt 0.8097293 0.4826936
vt 0.787532 0.4898907
vt 0.7712291 0.4962373
vt 0.06642224 0.5163404
vt 0.0358423 0.4928918
vt 0.04915091 0.514539
vt 0.0584502 0.4917725
vt 0.03336138 0.4187644
vt 0.09002662 0.5184137
vt 0.0355488 0.4153488
vt 0.08768794 0.4946662
vt 0.05731314 0.4106929
vt 0.117491 0.5196626
vt 0.0855833 0.540166
vt 0.1151536 0.541166
vt 0.1188155 0.4948881
vt 0.1443992 0.5190285
vt 0.04409079 0.3476014
vt 0.03181251 0.4050029
vt 0.08783422 0.4069927
vt 0.1492952 0.4953706
vt 0.1663147 0.517911
vt 0.1773946 0.4938994
vt 0.1215525 0.405269
vt 0.1551182 0.4071574
vt 0.1843331 0.4119805
vt 0.06617015 0.3457025
vt 0.03906332 0.3461463
vt 0.02250143 0.3354718
vt 0.09510445 0.3423516
vt 0.1588123 0.341978
vt 0.1847062 0.3451982
vt 0.1277104 0.340406
vt 0.04583128 0.2896211
vt 0.02681528 0.2886965
vt 0.01721139 0.2892756
vt 0.000441285 0.2708808
vt 0.01012097 0.2586493
vt 0.04082806 0.2904109
vt 0.02387179 0.2527219
vt 0.0275515 0.2473168
vt 0.06872512 0.2886189
vt 0.04303663 0.2392872
vt 0.09838348 0.2884325
vt 0.06928204 0.2372784
vt 0.0312617 0.1959176
vt 0.1308189 0.2934019
vt 0.1698161 0.2933639
vt 0.05930555 0.1929257
vt 0.02011558 0.1459509
vt 0.09971279 0.2400962
vt 0.05017271 0.1381302
vt 0.01005619 0.1003851
vt 0.1322241 0.2476033
vt 0.09849294 0.1977191
vt 0.04641353 0.09250887
vt 0.006090408 0.05788175
vt 0.08732272 0.137562
vt 0.1325747 0.2008169
vt 0.04505036 0.04953985
vt 0 0.01625506
vt 0.04115219 0.006875901
vt 0.08599142 0.08246411
vt 0.08812961 0.0440632
vt 0.0873865 0.001048906
vt 0.1220327 0.1333
vt 0.1554616 0.2529759
vt 0.1285746 0.08119221
vt 0.1333705 0.04300014
vt 0.1354592 0
vt 0.1558144 0.1977349
vt 0.1664189 0.2517713
vt 0.1779946 0.04859428
vt 0.1819122 0.003626013
vt 0.1750724 0.0705163
vt 0.2125359 0.05924417
vt 0.1580022 0.1225325
vt 0.1536567 0.1530523
vt 0.1641118 0.1229928
vt 0.1666169 0.196564
vt 0.1831643 0.2794637
vt 0.1846858 0.3168211
vt 0.2012934 0.2943129
vt 0.1739883 0.1226408
vt 0.1819945 0.07422669
vt 0.1623674 0.153631
vt 0.1750852 0.2483495
vt 0.19548 0.2640415
vt 0.2086719 0.272832
vt 0.2070312 0.2454204
vt 0.1897246 0.2453523
vt 0.1762635 0.1962147
vt 0.189648 0.1992646
vt 0.1726749 0.1533964
vt 0.1870747 0.15148
vt 0.2009095 0.2046593
vt 0.2324525 0.2470465
vt 0.235956 0.2078411
vt 0.2063973 0.1468246
vt 0.245931 0.155966
vt 0.1881904 0.1290958
vt 0.1961517 0.08191234
vt 0.2190557 0.09448051
vt 0.2220863 0.06938744
vt 0.2170247 0.06001391
vt 0.3861989 0.8635548
vt 0.3635113 0.8560664
vt 0.3639108 0.8705572
vt 0.3896298 0.8493583
vt 0.3573013 0.773558
vt 0.3933567 0.7827231
vt 0.3392923 0.8193434
vt 0.3404067 0.858655
vt 0.3286104 0.771195
vt 0.3247472 0.8180941
vt 0.3563699 0.7136993
vt 0.3882134 0.712433
vt 0.416157 0.7831817
vt 0.4139932 0.7131237
vt 0.3533244 0.6561335
vt 0.3848948 0.6605355
vt 0.3227283 0.7058438
vt 0.3271154 0.7547775
vt 0.3148471 0.6600823
vt 0.3487979 0.6073505
vt 0.3161191 0.6093994
vt 0.3794045 0.6078822
vt 0.4096235 0.6635071
vt 0.4061359 0.6111125
vt 0.3834139 0.539758
vt 0.4110597 0.5480972
vt 0.3545608 0.5393003
vt 0.3163512 0.5456923
vt 0.3552719 0.5350056
vt 0.3831154 0.5296596
vt 0.416157 0.5319994
vt 0.3821188 0.5251697
vt 0.4158324 0.5264879
vt 0.3568486 0.5281992
vt 0.3280693 0.5354078
vt 0.3277687 0.5328614
vt 0.3072685 0.5370824
vt 0.2818072 0.5515945
vt 0.2822164 0.6130519
vt 0.2460079 0.5658876
vt 0.2524605 0.6205798
vt 0.2819824 0.6627935
vt 0.2879337 0.6997377
vt 0.2867075 0.7211786
vt 0.2866479 0.7406769
vt 0.2564555 0.7393574
vt 0.2586651 0.722408
vt 0.250171 0.763685
vt 0.2808136 0.759903
vt 0.245931 0.7774321
vt 0.315111 0.7797852
vt 0.2779104 0.7808961
vt 0.27992 0.8292198
vt 0.2525913 0.8348656
vt 0.2709756 0.8756674
vt 0.2941792 0.8647023
vt 0.3283285 0.8598571
vt 0.1795296 0.5658983
vt 0.1787947 0.5516587
vt 0.1558742 0.5528703
vt 0.145745 0.5676509
vt 0.1446724 0.541166
vt 0.1393107 0.5569572
vt 0.1109249 0.5423076
vt 0.117909 0.5548339
vt 0.08723526 0.5651999
vt 0.1276684 0.5789073
vt 0.09325905 0.5699283
vt 0.0724883 0.5766447
vt 0.1101074 0.5862438
vt 0.08370347 0.5850804
vt 0.0724883 0.5915428
vt 0.08096826 0.5973507
vt 0.09394597 0.6144804
vt 0.1018426 0.602155
vt 0.1260647 0.6046305
vt 0.1511132 0.5963796
vt 0.1280122 0.6225837
vt 0.09231618 0.6267608
vt 0.178773 0.5898715
vt 0.2008109 0.5715775
vt 0.202433 0.599689
vt 0.1501936 0.6217883
vt 0.1223989 0.6375782
vt 0.09226944 0.641082
vt 0.1785017 0.617943
vt 0.2003068 0.6235426
vt 0.1455036 0.6396234
vt 0.1249675 0.6485716
vt 0.1085801 0.6512654
vt 0.1766572 0.6439317
vt 0.1974474 0.6420724
vt 0.1432423 0.6573452
vt 0.1753648 0.6652525
vt 0.1972982 0.6611947
vt 0.1263723 0.6625893
vt 0.1701224 0.6886352
vt 0.1991475 0.6832787
vt 0.1402096 0.6770856
vt 0.1379576 0.7016511
vt 0.1647086 0.7083558
vt 0.1160015 0.6875802
vt 0.1014112 0.6707621
vt 0.09464142 0.6551361
vt 0.09745407 0.6476294
vt 0.5781358 0.7144266
vt 0.5781358 0.6886156
vt 0.5531397 0.6863286
vt 0.5651044 0.7040253
vt 0.4095365 0.5075913
vt 0.4461104 0.5123152
vt 0.4386533 0.5008956
vt 0.4182465 0.5227811
vt 0.3969995 0.50232
vt 0.3939535 0.5251698
vt 0.4041125 0.4764725
vt 0.4156787 0.4825601
vt 0.3850494 0.4961013
vt 0.3767657 0.5164796
vt 0.3935668 0.4703024
vt 0.373062 0.4884289
vt 0.3617773 0.5032477
vt 0.3827105 0.4639109
vt 0.3597556 0.4801272
vt 0.3440851 0.4819078
vt 0.369859 0.4578498
vt 0.3361135 0.4569582
vt 0.3194882 0.467421
vt 0.3106045 0.4532185
vt 0.3540877 0.4541748
vt 0.3265248 0.4401246
vt 0.2863474 0.3878363
vt 0.3077985 0.3836575
vt 0.3482013 0.4356923
vt 0.3683595 0.4407029
vt 0.3341403 0.3817798
vt 0.2855438 0.3157722
vt 0.3840003 0.4484072
vt 0.3566802 0.381682
vt 0.396693 0.4546915
vt 0.3161352 0.3169176
vt 0.3779363 0.386617
vt 0.4092198 0.4606456
vt 0.3453825 0.3103668
vt 0.4034882 0.3847848
vt 0.4255295 0.4646665
vt 0.4278885 0.4901499
vt 0.4435189 0.4702152
vt 0.4241659 0.3866791
vt 0.3759231 0.3096077
vt 0.444675 0.3913471
vt 0.4092345 0.2972759
vt 0.4003986 0.3085655
vt 0.4446404 0.3038486
vt 0.4149213 0.2527589
vt 0.4638151 0.3974802
vt 0.4652736 0.4009571
vt 0.3788298 0.2569609
vt 0.4070532 0.2586988
vt 0.3388304 0.2519054
vt 0.4710343 0.3133233
vt 0.4699021 0.388041
vt 0.4678941 0.3990205
vt 0.4940927 0.3227005
vt 0.3794353 0.2125838
vt 0.4230722 0.2278554
vt 0.452984 0.2632563
vt 0.4842534 0.2722972
vt 0.5044906 0.2772903
vt 0.4927534 0.2490197
vt 0.4583427 0.2411604
vt 0.4315766 0.2363432
vt 0.427157 0.229837
vt 0.3381079 0.2121923
vt 0.3840907 0.1706027
vt 0.337129 0.1701366
vt 0.2987656 0.2160377
vt 0.2986006 0.1571462
vt 0.3069804 0.2636692
vt 0.2752973 0.267924
vt 0.2469032 0.2702304
vt 0.2623563 0.320282
vt 0.267406 0.2170887
vt 0.2750591 0.1537334
vt 0.2648405 0.1374377
vt 0.2932069 0.1399419
vt 0.2656031 0.1320159
vt 0.3333602 0.1315883
vt 0.2897876 0.1226742
vt 0.2579674 0.1212851
vt 0.2606475 0.1297174
vt 0.2605908 0.1045749
vt 0.2893986 0.101016
vt 0.2562468 0.07438196
vt 0.291602 0.07483854
vt 0.2516119 0.0364368
vt 0.3362755 0.1047213
vt 0.386073 0.1276334
vt 0.2900895 0.03793629
vt 0.245931 -1.111065E-08
vt 0.2867835 0.00393143
vt 0.3407049 0.07681482
vt 0.3417628 0.04091508
vt 0.3419517 0.006520421
vt 0.3955205 0.07764013
vt 0.3979965 0.03933303
vt 0.4001712 0.001501191
vt 0.4278103 0.1772702
vt 0.437593 0.1292148
vt 0.4472983 0.08027487
vt 0.4512278 0.04051148
vt 0.4565508 -8.73153E-09
vt 0.4587919 0.2272147
vt 0.4577649 0.2307159
vt 0.4916431 0.2359493
vt 0.493205 0.2319232
vt 0.4693264 0.1855182
vt 0.4835177 0.1367609
vt 0.4941412 0.08609386
vt 0.4986911 0.04759272
vt 0.5074084 0.008050737
vt 0.5065962 0.1919117
vt 0.523708 0.1470588
vt 0.5187591 0.2377891
vt 0.5014896 0.2841286
vt 0.5547179 0.2036681
vt 0.5760042 0.1570594
vt 0.5420375 0.0951029
vt 0.5841517 0.110141
vt 0.5530003 0.05683974
vt 0.5656174 0.01790299
vt 0.5936953 0.06859298
vt 0.6090102 0.02966532
vt 0.5545276 0.6074938
vt 0.5531397 0.6863285
vt 0.5775439 0.6026217
vt 0.5531397 0.5556536
vt 0.5793402 0.5571829
vt 0.5560498 0.5251697
vt 0.5725356 0.5320282
vt 0.02440256 0.541166
vt -3.104695E-09 0.5554733
vt 0.02666804 0.5919445
vt 0.05184614 0.5785072
vt 0.05058164 0.6178689
vt 0.06693253 0.6074359
vt 0.05998958 0.6376337
vt 0.05740595 0.6384802
vt 0.07060931 0.6205666
vt 0.07248829 0.6550872
vt 0.05602627 0.6670254
vt 0.06190747 0.668644
vt 0.04930393 0.6915163
vt 0.05385078 0.6929578
vt 0.02937268 0.7238537
vt 0.03472067 0.7266615
vt -1.193496E-08 0.7441064
vt 0.6029376 0.7027574
vt 0.602775 0.6725349
vt 0.5793402 0.6698271
vt 0.5793403 0.7008846
vt 0.6068314 0.6688564
vt 0.5890335 0.6138211
vt 0.5965554 0.669827
vt 0.5974203 0.6139744
vt 0.5873296 0.5662007
vt 0.5801492 0.613732
vt 0.5793403 0.565009
vt 0.5935516 0.5664403
vt 0.5990593 0.5269108
vt 0.6068314 0.5251697
vt 0.5514032 0.710246
vt 0.506801 0.755228
vt 0.5429814 0.7615194
vt 0.5127091 0.7081355
vt 0.5531397 0.6604878
vt 0.4691168 0.7489311
vt 0.5139869 0.6602851
vt 0.5531397 0.6116896
vt 0.4739862 0.7055719
vt 0.4398502 0.7408363
vt 0.5136195 0.613788
vt 0.5443177 0.5676081
vt 0.4748052 0.6599956
vt 0.4449073 0.7007733
vt 0.4248204 0.7324397
vt 0.5110581 0.5689229
vt 0.5394062 0.5251697
vt 0.5040337 0.5280043
vt 0.4740354 0.6166403
vt 0.471251 0.5738684
vt 0.4670417 0.5324019
vt 0.4459185 0.659947
vt 0.4292232 0.6751388
vt 0.42926 0.6959208
vt 0.4168666 0.7290079
vt 0.4204498 0.6941268
vt 0.4192746 0.6687799
vt 0.416157 0.6370891
vt 0.4283017 0.6557618
vt 0.4479319 0.578696
vt 0.4224203 0.5432647
vt 0.4264267 0.5796138
vt 0.4304369 0.6585777
vt 0.4446799 0.6189107
vt 0.4305149 0.618212
vt 0.4278455 0.6079569
vt 0.4266492 0.6207583
vt 0.645175 0.0881755
vt 0.6488678 0.1425814
vt 0.6904964 0.1355671
vt 0.6824623 0.09110744
vt 0.6486264 0.06115074
vt 0.6858264 0.05760632
vt 0.7306572 0.1325524
vt 0.7234603 0.08497614
vt 0.7342472 0.1716543
vt 0.7066185 0.18587
vt 0.7278158 0.05897397
vt 0.692727 0.04764963
vt 0.7508976 0.08343155
vt 0.7546197 0.1306684
vt 0.7426453 0.2187761
vt 0.721794 0.2225445
vt 0.7316849 0.2494874
vt 0.7001659 0.2300661
vt 0.7077804 0.2559231
vt 0.7192376 0.2759541
vt 0.2368495 0.541166
vt 0.2356472 0.5808356
vt 0.2432877 0.584466
vt 0.2432877 0.5440888
vt 0.2402588 0.584466
vt 0.2359446 0.6199733
vt 0.2399684 0.6213217
vt 0.2402588 0.6278683
vt 0.2356472 0.6248969
vt 0.2356472 0.5845332
vt 0.2349682 0.5439948
vt 0.221687 0.541166
vt 0.221687 0.5836053
vt 0.2061578 0.6788223
vt 0.202433 0.7138931
vt 0.2193377 0.7143676
vt 0.2187537 0.6809683
vt 0.202433 0.6424197
vt 0.2291092 0.7123405
vt 0.2161971 0.643504
vt 0.2306552 0.684828
vt 0.2250969 0.647274
vt 0.202433 0.541166
vt 0.221687 0.6173486
vt 0.2112672 0.5413825
vt 0.2123544 0.6159902
vt 0.2162185 0.6338164
vt 0.2090529 0.6313506
vt 0.202433 0.6424197
vt 0.226134 0.6237677
vt 0.2304695 0.5970475
vt 0.221687 0.6226353
vt 0.221687 0.5845331
vt 0.7401996 0.8285468
vt 0.7413358 0.8184165
vt 0.7268392 0.7938217
vt 0.6939469 0.8459526
vt 0.746787 0.8234204
vt 0.7357036 0.8797448
vt 0.7809185 0.8867975
vt 0.7804775 0.8402725
vt 0.6700216 0.7791325
vt 0.69422 0.752907
vt 0.6965676 0.7495987
vt 0.6624739 0.7298989
vt 0.6189432 0.7049608
vt 0.663937 0.7201815
vt 0.6724278 0.7123242
vt 0.7006865 0.7457202
vt 0.6152878 0.7609913
vt 0.7085467 0.9338014
vt 0.7546506 0.9431541
vt 0.7111266 0.7391528
vt 0.7341084 0.790399
vt 0.7300099 0.7911804
vt 0.7485901 0.8152595
vt 0.7445616 0.8166775
vt 0.750984 0.8179551
vt 0.7486047 0.8207855
vt 0.7740093 0.802808
vt 0.7412242 0.7242395
vt 0.6844156 0.6986811
vt 0.618293 0.6835196
vt 0.6131371 0.7014394
vt 0.6090102 0.6807141
vt 0.6090102 0.760976
vt 0.6218308 0.6673729
vt 0.6133927 0.6601831
vt 0.6208404 0.6395666
vt 0.6222743 0.8174175
vt 0.6174049 0.8176116
vt 0.6299961 0.642907
vt 0.6457654 0.5878583
vt 0.6386513 0.8635389
vt 0.6336118 0.8655916
vt 0.6713891 0.9017786
vt 0.6672897 0.9056437
vt 0.7042907 0.9396291
vt 0.7521808 0.9492737
vt 0.8030416 0.9382197
vt 0.8040905 0.9468955
vt 0.8544773 0.9318993
vt 0.8585687 0.9400312
vt 0.8214794 0.88003
vt 0.8899742 0.8985066
vt 0.8968393 0.9090645
vt 0.8629373 0.87754
vt 0.8232481 0.81849
vt 0.9075289 0.8517807
vt 0.9181564 0.857868
vt 0.8717011 0.8140665
vt 0.9257954 0.799202
vt 0.9366744 0.8028381
vt 0.7968353 0.7260156
vt 0.8418193 0.7351754
vt 0.9486796 0.7496928
vt 0.9597734 0.751054
vt 0.8946132 0.7427888
vt 0.9508241 0.6998972
vt 0.9618132 0.6981957
vt 0.9053979 0.6752086
vt 0.854696 0.6563638
vt 0.7997475 0.6499363
vt 0.7417752 0.6449051
vt 0.9477496 0.6413167
vt 0.958196 0.6358224
vt 0.9045231 0.6109301
vt 0.8590769 0.5867221
vt 0.8084925 0.5729582
vt 0.9282284 0.5918331
vt 0.9372517 0.5835033
vt 0.8985084 0.5520422
vt 0.9056384 0.5411659
vt 0.8608593 0.5240867
vt 0.8655778 0.5113215
vt 0.8179145 0.5099813
vt 0.819825 0.4962373
vt 0.7708217 0.5075088
vt 0.771671 0.4970098
vt 0.7560567 0.570865
vt 0.7302176 0.5331433
vt 0.7277778 0.5241757
vt 0.706731 0.5840962
vt 0.6900313 0.5626079
vt 0.6844493 0.5573224
vt 0.653948 0.5938931
vt 0.6851587 0.6478235
usemtl MV_RockDesert_Cliff
f 1/1/1 3/3/3 2/2/2
f 4/4/4 6/6/6 5/5/5
f 4/4/4 7/7/7 6/6/6
f 8/8/8 10/10/10 9/9/9
f 8/8/8 9/9/9 11/11/11
f 12/12/12 8/8/8 11/11/11
f 13/13/13 11/11/11 9/9/9
f 12/12/12 11/11/11 14/14/14
f 14/14/14 15/15/15 12/12/12
f 14/14/14 16/16/16 15/15/15
f 17/17/17 14/14/14 11/11/11
f 18/18/18 16/16/16 14/14/14
f 18/18/18 14/14/14 17/17/17
f 19/19/19 18/18/18 17/17/17
f 17/17/17 11/11/11 20/20/20
f 13/13/13 20/20/20 11/11/11
f 20/20/20 19/19/19 17/17/17
f 21/21/21 16/16/16 18/18/18
f 21/21/21 22/22/22 16/16/16
f 19/19/19 23/23/23 18/18/18
f 23/23/23 21/21/21 18/18/18
f 24/24/24 22/22/22 21/21/21
f 24/24/24 25/25/25 22/22/22
f 23/23/23 26/26/26 21/21/21
f 26/26/26 24/24/24 21/21/21
f 27/27/27 25/25/25 24/24/24
f 27/27/27 28/28/28 25/25/25
f 29/29/29 27/27/27 24/24/24
f 26/26/26 29/29/29 24/24/24
f 29/29/29 30/30/30 27/27/27
f 31/31/31 30/30/30 29/29/29
f 32/32/32 29/29/29 26/26/26
f 31/31/31 29/29/29 32/32/32
f 32/32/32 26/26/26 23/23/23
f 33/33/33 31/31/31 32/32/32
f 34/34/34 32/32/32 23/23/23
f 33/33/33 32/32/32 34/34/34
f 34/34/34 23/23/23 19/19/19
f 34/34/34 35/35/35 33/33/33
f 19/19/19 36/36/36 34/34/34
f 34/34/34 36/36/36 35/35/35
f 37/37/37 36/36/36 19/19/19
f 38/38/38 35/35/35 36/36/36
f 37/37/37 38/38/38 36/36/36
f 39/39/39 37/37/37 19/19/19
f 39/39/39 19/19/19 20/20/20
f 38/38/38 40/40/40 35/35/35
f 40/40/40 41/41/41 35/35/35
f 40/40/40 42/42/42 41/41/41
f 43/43/43 42/42/42 40/40/40
f 43/43/43 44/44/44 42/42/42
f 45/45/45 40/40/40 38/38/38
f 45/45/45 43/43/43 40/40/40
f 46/46/46 38/38/38 37/37/37
f 46/46/46 45/45/45 38/38/38
f 47/47/47 44/44/44 43/43/43
f 47/47/47 48/48/48 44/44/44
f 49/49/49 43/43/43 45/45/45
f 49/49/49 47/47/47 43/43/43
f 50/50/50 37/37/37 39/39/39
f 50/50/50 46/46/46 37/37/37
f 51/51/51 45/45/45 46/46/46
f 51/51/51 49/49/49 45/45/45
f 52/52/52 47/47/47 49/49/49
f 52/52/52 53/53/53 47/47/47
f 54/54/54 46/46/46 50/50/50
f 54/54/54 51/51/51 46/46/46
f 55/55/55 49/49/49 51/51/51
f 55/55/55 52/52/52 49/49/49
f 56/56/56 53/53/53 52/52/52
f 56/56/56 57/57/57 53/53/53
f 58/58/58 51/51/51 54/54/54
f 58/58/58 55/55/55 51/51/51
f 59/59/59 52/52/52 55/55/55
f 59/59/59 56/56/56 52/52/52
f 60/60/60 57/57/57 56/56/56
f 60/60/60 61/61/61 57/57/57
f 62/62/62 55/55/55 58/58/58
f 62/62/62 59/59/59 55/55/55
f 63/63/63 56/56/56 59/59/59
f 63/63/63 60/60/60 56/56/56
f 64/64/64 61/61/61 60/60/60
f 64/64/64 65/65/65 61/61/61
f 66/66/66 65/65/65 64/64/64
f 66/66/66 67/67/67 65/65/65
f 68/68/68 66/66/66 64/64/64
f 69/69/69 64/64/64 60/60/60
f 68/68/68 64/64/64 69/69/69
f 69/69/69 60/60/60 63/63/63
f 70/70/70 69/69/69 63/63/63
f 71/71/71 68/68/68 69/69/69
f 71/71/71 69/69/69 70/70/70
f 72/72/72 71/71/71 70/70/70
f 70/70/70 73/73/73 72/72/72
f 74/74/74 73/73/73 70/70/70
f 75/75/75 63/63/63 59/59/59
f 70/70/70 63/63/63 75/75/75
f 75/75/75 59/59/59 62/62/62
f 74/74/74 70/70/70 76/76/76
f 76/76/76 70/70/70 75/75/75
f 77/77/77 74/74/74 76/76/76
f 78/78/78 75/75/75 62/62/62
f 76/76/76 75/75/75 78/78/78
f 77/77/77 76/76/76 79/79/79
f 79/79/79 76/76/76 78/78/78
f 80/80/80 77/77/77 79/79/79
f 80/80/80 79/79/79 81/81/81
f 82/82/82 80/80/80 81/81/81
f 82/82/82 81/81/81 83/83/83
f 84/84/84 82/82/82 83/83/83
f 84/84/84 83/83/83 85/85/85
f 78/78/78 86/86/86 79/79/79
f 78/78/78 62/62/62 87/87/87
f 87/87/87 62/62/62 58/58/58
f 78/78/78 88/88/88 86/86/86
f 87/87/87 88/88/88 78/78/78
f 87/87/87 58/58/58 89/89/89
f 89/89/89 58/58/58 54/54/54
f 89/89/89 54/54/54 90/90/90
f 90/90/90 54/54/54 50/50/50
f 87/87/87 89/89/89 91/91/91
f 91/91/91 89/89/89 90/90/90
f 90/90/90 50/50/50 92/92/92
f 92/92/92 50/50/50 39/39/39
f 87/87/87 93/93/93 88/88/88
f 91/91/91 93/93/93 87/87/87
f 91/91/91 90/90/90 94/94/94
f 94/94/94 90/90/90 92/92/92
f 92/92/92 39/39/39 95/95/95
f 95/95/95 39/39/39 20/20/20
f 95/95/95 20/20/20 13/13/13
f 96/96/96 92/92/92 95/95/95
f 94/94/94 92/92/92 96/96/96
f 97/97/97 95/95/95 13/13/13
f 96/96/96 95/95/95 97/97/97
f 97/97/97 13/13/13 98/98/98
f 91/91/91 99/99/99 93/93/93
f 94/94/94 99/99/99 91/91/91
f 94/94/94 96/96/96 100/100/100
f 100/100/100 96/96/96 97/97/97
f 98/98/98 101/101/101 97/97/97
f 101/101/101 98/98/98 102/102/102
f 94/94/94 103/103/103 99/99/99
f 100/100/100 103/103/103 94/94/94
f 100/100/100 97/97/97 104/104/104
f 104/104/104 97/97/97 101/101/101
f 105/105/105 100/100/100 104/104/104
f 100/100/100 106/106/106 103/103/103
f 105/105/105 104/104/104 107/107/107
f 108/108/108 105/105/105 107/107/107
f 108/108/108 107/107/107 109/109/109
f 107/107/107 104/104/104 110/110/110
f 104/104/104 101/101/101 110/110/110
f 107/107/107 110/110/110 111/111/111
f 101/101/101 102/102/102 112/112/112
f 110/110/110 101/101/101 112/112/112
f 111/111/111 110/110/110 113/113/113
f 110/110/110 112/112/112 113/113/113
f 111/111/111 113/113/113 114/114/114
f 115/115/115 112/112/112 102/102/102
f 115/115/115 113/113/113 112/112/112
f 115/115/115 102/102/102 116/116/116
f 115/115/115 117/117/117 113/113/113
f 117/117/117 114/114/114 113/113/113
f 117/117/117 118/118/118 114/114/114
f 119/119/119 121/121/121 120/120/120
f 119/119/119 120/120/120 122/122/122
f 123/123/123 122/122/122 120/120/120
f 124/124/124 119/119/119 122/122/122
f 122/122/122 123/123/123 125/125/125
f 124/124/124 122/122/122 126/126/126
f 122/122/122 125/125/125 127/127/127
f 127/127/127 126/126/126 122/122/122
f 128/128/128 124/124/124 126/126/126
f 129/129/129 124/124/124 128/128/128
f 129/129/129 128/128/128 130/130/130
f 128/128/128 126/126/126 131/131/131
f 132/132/132 128/128/128 131/131/131
f 133/133/133 127/127/127 125/125/125
f 134/134/134 133/133/133 125/125/125
f 127/127/127 135/135/135 126/126/126
f 135/135/135 131/131/131 126/126/126
f 132/132/132 131/131/131 136/136/136
f 137/137/137 132/132/132 136/136/136
f 137/137/137 136/136/136 138/138/138
f 139/139/139 136/136/136 131/131/131
f 135/135/135 139/139/139 131/131/131
f 140/140/140 138/138/138 136/136/136
f 139/139/139 140/140/140 136/136/136
f 140/140/140 141/141/141 138/138/138
f 142/142/142 135/135/135 127/127/127
f 133/133/133 142/142/142 127/127/127
f 134/134/134 143/143/143 133/133/133
f 134/134/134 144/144/144 143/143/143
f 145/145/145 139/139/139 135/135/135
f 142/142/142 145/145/145 135/135/135
f 146/146/146 141/141/141 140/140/140
f 146/146/146 147/147/147 141/141/141
f 148/148/148 140/140/140 139/139/139
f 148/148/148 146/146/146 140/140/140
f 145/145/145 148/148/148 139/139/139
f 149/149/149 142/142/142 133/133/133
f 143/143/143 149/149/149 133/133/133
f 143/143/143 144/144/144 150/150/150
f 150/150/150 144/144/144 151/151/151
f 152/152/152 150/150/150 151/151/151
f 152/152/152 153/153/153 150/150/150
f 143/143/143 150/150/150 154/154/154
f 154/154/154 150/150/150 153/153/153
f 143/143/143 154/154/154 149/149/149
f 154/154/154 153/153/153 155/155/155
f 149/149/149 154/154/154 155/155/155
f 149/149/149 155/155/155 156/156/156
f 149/149/149 157/157/157 142/142/142
f 157/157/157 145/145/145 142/142/142
f 158/158/158 157/157/157 149/149/149
f 159/159/159 148/148/148 145/145/145
f 157/157/157 159/159/159 145/145/145
f 158/158/158 160/160/160 157/157/157
f 160/160/160 159/159/159 157/157/157
f 161/161/161 160/160/160 158/158/158
f 159/159/159 162/162/162 148/148/148
f 162/162/162 146/146/146 148/148/148
f 162/162/162 163/163/163 146/146/146
f 161/161/161 164/164/164 160/160/160
f 165/165/165 164/164/164 161/161/161
f 160/160/160 166/166/166 159/159/159
f 166/166/166 162/162/162 159/159/159
f 164/164/164 166/166/166 160/160/160
f 165/165/165 167/167/167 164/164/164
f 168/168/168 167/167/167 165/165/165
f 166/166/166 169/169/169 162/162/162
f 169/169/169 163/163/163 162/162/162
f 164/164/164 170/170/170 166/166/166
f 167/167/167 170/170/170 164/164/164
f 170/170/170 169/169/169 166/166/166
f 168/168/168 171/171/171 167/167/167
f 172/172/172 171/171/171 168/168/168
f 167/167/167 173/173/173 170/170/170
f 171/171/171 173/173/173 167/167/167
f 170/170/170 174/174/174 169/169/169
f 173/173/173 174/174/174 170/170/170
f 172/172/172 175/175/175 171/171/171
f 176/176/176 175/175/175 172/172/172
f 176/176/176 177/177/177 175/175/175
f 171/171/171 178/178/178 173/173/173
f 175/175/175 178/178/178 171/171/171
f 177/177/177 179/179/179 175/175/175
f 175/175/175 179/179/179 178/178/178
f 177/177/177 180/180/180 179/179/179
f 178/178/178 181/181/181 173/173/173
f 173/173/173 181/181/181 174/174/174
f 174/174/174 182/182/182 169/169/169
f 169/169/169 182/182/182 163/163/163
f 179/179/179 183/183/183 178/178/178
f 178/178/178 183/183/183 181/181/181
f 180/180/180 184/184/184 179/179/179
f 179/179/179 184/184/184 183/183/183
f 180/180/180 185/185/185 184/184/184
f 174/174/174 186/186/186 182/182/182
f 181/181/181 186/186/186 174/174/174
f 163/163/163 182/182/182 187/187/187
f 186/186/186 187/187/187 182/182/182
f 185/185/185 188/188/188 184/184/184
f 185/185/185 189/189/189 188/188/188
f 184/184/184 188/188/188 190/190/190
f 184/184/184 190/190/190 183/183/183
f 188/188/188 191/191/191 190/190/190
f 183/183/183 192/192/192 181/181/181
f 183/183/183 190/190/190 192/192/192
f 181/181/181 193/193/193 186/186/186
f 193/193/193 181/181/181 192/192/192
f 190/190/190 194/194/194 192/192/192
f 194/194/194 193/193/193 192/192/192
f 193/193/193 195/195/195 186/186/186
f 186/186/186 195/195/195 187/187/187
f 187/187/187 196/196/196 163/163/163
f 196/196/196 197/197/197 163/163/163
f 196/196/196 198/198/198 197/197/197
f 190/190/190 199/199/199 194/194/194
f 190/190/190 200/200/200 199/199/199
f 194/194/194 201/201/201 193/193/193
f 193/193/193 201/201/201 195/195/195
f 199/199/199 201/201/201 194/194/194
f 195/195/195 202/202/202 187/187/187
f 187/187/187 202/202/202 196/196/196
f 198/198/198 196/196/196 203/203/203
f 198/198/198 203/203/203 204/204/204
f 204/204/204 203/203/203 205/205/205
f 196/196/196 206/206/206 203/203/203
f 196/196/196 202/202/202 206/206/206
f 203/203/203 206/206/206 205/205/205
f 201/201/201 207/207/207 195/195/195
f 195/195/195 207/207/207 202/202/202
f 208/208/208 206/206/206 202/202/202
f 208/208/208 205/205/205 206/206/206
f 208/208/208 202/202/202 207/207/207
f 201/201/201 209/209/209 207/207/207
f 199/199/199 209/209/209 201/201/201
f 207/207/207 209/209/209 210/210/210
f 207/207/207 210/210/210 208/208/208
f 208/208/208 211/211/211 205/205/205
f 211/211/211 212/212/212 205/205/205
f 211/211/211 213/213/213 212/212/212
f 214/214/214 211/211/211 208/208/208
f 214/214/214 213/213/213 211/211/211
f 214/214/214 208/208/208 210/210/210
f 214/214/214 215/215/215 213/213/213
f 216/216/216 210/210/210 209/209/209
f 216/216/216 209/209/209 199/199/199
f 216/216/216 214/214/214 210/210/210
f 199/199/199 217/217/217 216/216/216
f 217/217/217 214/214/214 216/216/216
f 217/217/217 218/218/218 214/214/214
f 199/199/199 200/200/200 217/217/217
f 219/219/219 218/218/218 217/217/217
f 200/200/200 219/219/219 217/217/217
f 200/200/200 220/220/220 219/219/219
f 221/221/221 223/223/223 222/222/222
f 221/221/221 222/222/222 224/224/224
f 225/225/225 224/224/224 222/222/222
f 225/225/225 226/226/226 224/224/224
f 225/225/225 222/222/222 227/227/227
f 222/222/222 228/228/228 227/227/227
f 225/225/225 227/227/227 229/229/229
f 230/230/230 229/229/229 227/227/227
f 231/231/231 226/226/226 225/225/225
f 231/231/231 232/232/232 226/226/226
f 232/232/232 233/233/233 226/226/226
f 232/232/232 234/234/234 233/233/233
f 235/235/235 232/232/232 231/231/231
f 235/235/235 236/236/236 232/232/232
f 237/237/237 231/231/231 225/225/225
f 238/238/238 225/225/225 229/229/229
f 237/237/237 225/225/225 238/238/238
f 239/239/239 235/235/235 231/231/231
f 239/239/239 231/231/231 237/237/237
f 240/240/240 236/236/236 235/235/235
f 241/241/241 235/235/235 239/239/239
f 241/241/241 240/240/240 235/235/235
f 240/240/240 242/242/242 236/236/236
f 242/242/242 243/243/243 236/236/236
f 242/242/242 244/244/244 243/243/243
f 245/245/245 244/244/244 242/242/242
f 245/245/245 246/246/246 244/244/244
f 247/247/247 242/242/242 240/240/240
f 247/247/247 245/245/245 242/242/242
f 248/248/248 247/247/247 240/240/240
f 248/248/248 240/240/240 241/241/241
f 249/249/249 245/245/245 247/247/247
f 250/250/250 246/246/246 245/245/245
f 249/249/249 250/250/250 245/245/245
f 250/250/250 251/251/251 246/246/246
f 252/252/252 251/251/251 250/250/250
f 252/252/252 253/253/253 251/251/251
f 254/254/254 252/252/252 250/250/250
f 254/254/254 250/250/250 249/249/249
f 255/255/255 254/254/254 249/249/249
f 255/255/255 256/256/256 254/254/254
f 257/257/257 256/256/256 255/255/255
f 255/255/255 248/248/248 257/257/257
f 258/258/258 257/257/257 248/248/248
f 258/258/258 248/248/248 241/241/241
f 258/258/258 241/241/241 259/259/259
f 260/260/260 258/258/258 259/259/259
f 260/260/260 259/259/259 261/261/261
f 259/259/259 241/241/241 239/239/239
f 259/259/259 239/239/239 262/262/262
f 262/262/262 239/239/239 237/237/237
f 262/262/262 237/237/237 263/263/263
f 263/263/263 237/237/237 238/238/238
f 263/263/263 238/238/238 264/264/264
f 265/265/265 264/264/264 238/238/238
f 265/265/265 238/238/238 229/229/229
f 266/266/266 264/264/264 265/265/265
f 266/266/266 267/267/267 264/264/264
f 265/265/265 268/268/268 266/266/266
f 265/265/265 269/269/269 268/268/268
f 229/229/229 269/269/269 265/265/265
f 269/269/269 270/270/270 268/268/268
f 229/229/229 271/271/271 269/269/269
f 230/230/230 271/271/271 229/229/229
f 271/271/271 272/272/272 269/269/269
f 269/269/269 272/272/272 270/270/270
f 272/272/272 271/271/271 230/230/230
f 270/270/270 272/272/272 273/273/273
f 272/272/272 230/230/230 273/273/273
f 270/270/270 273/273/273 274/274/274
f 273/273/273 275/275/275 274/274/274
f 273/273/273 276/276/276 275/275/275
f 230/230/230 276/276/276 273/273/273
f 230/230/230 277/277/277 276/276/276
f 278/278/278 280/280/280 279/279/279
f 278/278/278 281/281/281 280/280/280
f 281/281/281 282/282/282 280/280/280
f 281/281/281 283/283/283 282/282/282
f 283/283/283 284/284/284 282/282/282
f 283/283/283 285/285/285 284/284/284
f 285/285/285 286/286/286 284/284/284
f 287/287/287 283/283/283 281/281/281
f 287/287/287 285/285/285 283/283/283
f 285/285/285 288/288/288 286/286/286
f 288/288/288 289/289/289 286/286/286
f 290/290/290 285/285/285 287/287/287
f 290/290/290 288/288/288 285/285/285
f 288/288/288 291/291/291 289/289/289
f 291/291/291 292/292/292 289/289/289
f 291/291/291 293/293/293 292/292/292
f 294/294/294 293/293/293 291/291/291
f 295/295/295 288/288/288 290/290/290
f 295/295/295 291/291/291 288/288/288
f 287/287/287 295/295/295 290/290/290
f 294/294/294 291/291/291 295/295/295
f 287/287/287 296/296/296 295/295/295
f 281/281/281 296/296/296 287/287/287
f 296/296/296 294/294/294 295/295/295
f 281/281/281 297/297/297 296/296/296
f 278/278/278 297/297/297 281/281/281
f 296/296/296 298/298/298 294/294/294
f 297/297/297 298/298/298 296/296/296
f 298/298/298 299/299/299 294/294/294
f 278/278/278 300/300/300 297/297/297
f 301/301/301 300/300/300 278/278/278
f 301/301/301 302/302/302 300/300/300
f 297/297/297 303/303/303 298/298/298
f 300/300/300 303/303/303 297/297/297
f 298/298/298 304/304/304 299/299/299
f 303/303/303 304/304/304 298/298/298
f 304/304/304 305/305/305 299/299/299
f 302/302/302 306/306/306 300/300/300
f 300/300/300 306/306/306 303/303/303
f 302/302/302 307/307/307 306/306/306
f 303/303/303 308/308/308 304/304/304
f 306/306/306 308/308/308 303/303/303
f 304/304/304 309/309/309 305/305/305
f 308/308/308 309/309/309 304/304/304
f 309/309/309 310/310/310 305/305/305
f 307/307/307 311/311/311 306/306/306
f 306/306/306 311/311/311 308/308/308
f 307/307/307 312/312/312 311/311/311
f 308/308/308 313/313/313 309/309/309
f 311/311/311 313/313/313 308/308/308
f 312/312/312 314/314/314 311/311/311
f 311/311/311 314/314/314 313/313/313
f 312/312/312 315/315/315 314/314/314
f 310/310/310 309/309/309 316/316/316
f 313/313/313 316/316/316 309/309/309
f 315/315/315 317/317/317 314/314/314
f 315/315/315 318/318/318 317/317/317
f 314/314/314 319/319/319 313/313/313
f 314/314/314 317/317/317 319/319/319
f 313/313/313 319/319/319 316/316/316
f 317/317/317 320/320/320 319/319/319
f 317/317/317 321/321/321 320/320/320
f 319/319/319 320/320/320 322/322/322
f 319/319/319 322/322/322 316/316/316
f 316/316/316 322/322/322 323/323/323
f 316/316/316 323/323/323 324/324/324
f 316/316/316 324/324/324 310/310/310
f 310/310/310 324/324/324 325/325/325
f 326/326/326 328/328/328 327/327/327
f 326/326/326 329/329/329 328/328/328
f 330/330/330 332/332/332 331/331/331
f 330/330/330 331/331/331 333/333/333
f 334/334/334 330/330/330 333/333/333
f 334/334/334 333/333/333 335/335/335
f 336/336/336 330/330/330 334/334/334
f 336/336/336 337/337/337 330/330/330
f 338/338/338 334/334/334 335/335/335
f 338/338/338 335/335/335 339/339/339
f 340/340/340 336/336/336 334/334/334
f 340/340/340 334/334/334 338/338/338
f 341/341/341 338/338/338 339/339/339
f 341/341/341 339/339/339 342/342/342
f 343/343/343 340/340/340 338/338/338
f 343/343/343 338/338/338 341/341/341
f 344/344/344 341/341/341 342/342/342
f 344/344/344 342/342/342 345/345/345
f 346/346/346 343/343/343 341/341/341
f 346/346/346 341/341/341 344/344/344
f 347/347/347 344/344/344 345/345/345
f 347/347/347 345/345/345 348/348/348
f 347/347/347 348/348/348 349/349/349
f 350/350/350 344/344/344 347/347/347
f 350/350/350 346/346/346 344/344/344
f 347/347/347 349/349/349 351/351/351
f 350/350/350 347/347/347 351/351/351
f 352/352/352 351/351/351 349/349/349
f 352/352/352 353/353/353 351/351/351
f 350/350/350 351/351/351 354/354/354
f 346/346/346 350/350/350 354/354/354
f 353/353/353 354/354/354 351/351/351
f 343/343/343 346/346/346 355/355/355
f 346/346/346 354/354/354 355/355/355
f 353/353/353 356/356/356 354/354/354
f 356/356/356 355/355/355 354/354/354
f 357/357/357 356/356/356 353/353/353
f 343/343/343 355/355/355 358/358/358
f 340/340/340 343/343/343 358/358/358
f 356/356/356 359/359/359 355/355/355
f 359/359/359 358/358/358 355/355/355
f 340/340/340 358/358/358 360/360/360
f 336/336/336 340/340/340 360/360/360
f 357/357/357 361/361/361 356/356/356
f 361/361/361 359/359/359 356/356/356
f 359/359/359 362/362/362 358/358/358
f 362/362/362 360/360/360 358/358/358
f 336/336/336 360/360/360 363/363/363
f 337/337/337 336/336/336 363/363/363
f 361/361/361 364/364/364 359/359/359
f 364/364/364 362/362/362 359/359/359
f 362/362/362 365/365/365 360/360/360
f 365/365/365 363/363/363 360/360/360
f 337/337/337 363/363/363 366/366/366
f 367/367/367 337/337/337 366/366/366
f 367/367/367 366/366/366 368/368/368
f 369/369/369 366/366/366 363/363/363
f 365/365/365 369/369/369 363/363/363
f 370/370/370 365/365/365 362/362/362
f 364/364/364 370/370/370 362/362/362
f 371/371/371 368/368/368 366/366/366
f 369/369/369 371/371/371 366/366/366
f 372/372/372 369/369/369 365/365/365
f 370/370/370 373/373/373 365/365/365
f 372/372/372 374/374/374 369/369/369
f 374/374/374 371/371/371 369/369/369
f 375/375/375 374/374/374 372/372/372
f 368/368/368 371/371/371 376/376/376
f 368/368/368 376/376/376 377/377/377
f 378/378/378 373/373/373 370/370/370
f 378/378/378 379/379/379 373/373/373
f 380/380/380 370/370/370 364/364/364
f 380/380/380 378/378/378 370/370/370
f 374/374/374 381/381/381 371/371/371
f 381/381/381 376/376/376 371/371/371
f 382/382/382 377/377/377 376/376/376
f 382/382/382 383/383/383 377/377/377
f 376/376/376 384/384/384 382/382/382
f 376/376/376 381/381/381 384/384/384
f 385/385/385 379/379/379 378/378/378
f 385/385/385 386/386/386 379/379/379
f 387/387/387 381/381/381 374/374/374
f 375/375/375 387/387/387 374/374/374
f 388/388/388 384/384/384 381/381/381
f 387/387/387 388/388/388 381/381/381
f 388/388/388 389/389/389 384/384/384
f 389/389/389 388/388/388 390/390/390
f 390/390/390 388/388/388 387/387/387
f 390/390/390 387/387/387 391/391/391
f 391/391/391 387/387/387 375/375/375
f 391/391/391 375/375/375 392/392/392
f 375/375/375 393/393/393 392/392/392
f 394/394/394 385/385/385 378/378/378
f 394/394/394 378/378/378 380/380/380
f 395/395/395 386/386/386 385/385/385
f 396/396/396 385/385/385 394/394/394
f 396/396/396 395/395/395 385/385/385
f 397/397/397 394/394/394 380/380/380
f 398/398/398 396/396/396 394/394/394
f 398/398/398 394/394/394 397/397/397
f 397/397/397 380/380/380 399/399/399
f 399/399/399 380/380/380 364/364/364
f 399/399/399 364/364/364 361/361/361
f 400/400/400 399/399/399 361/361/361
f 400/400/400 361/361/361 357/357/357
f 401/401/401 400/400/400 357/357/357
f 401/401/401 357/357/357 402/402/402
f 403/403/403 399/399/399 400/400/400
f 403/403/403 397/397/397 399/399/399
f 404/404/404 397/397/397 403/403/403
f 404/404/404 398/398/398 397/397/397
f 405/405/405 398/398/398 404/404/404
f 405/405/405 406/406/406 398/398/398
f 406/406/406 396/396/396 398/398/398
f 407/407/407 406/406/406 405/405/405
f 406/406/406 408/408/408 396/396/396
f 408/408/408 395/395/395 396/396/396
f 409/409/409 408/408/408 406/406/406
f 410/410/410 409/409/409 406/406/406
f 410/410/410 406/406/406 411/411/411
f 412/412/412 409/409/409 410/410/410
f 412/412/412 413/413/413 409/409/409
f 413/413/413 408/408/408 409/409/409
f 414/414/414 413/413/413 412/412/412
f 414/414/414 415/415/415 413/413/413
f 416/416/416 415/415/415 414/414/414
f 413/413/413 417/417/417 408/408/408
f 415/415/415 417/417/417 413/413/413
f 408/408/408 418/418/418 395/395/395
f 417/417/417 418/418/418 408/408/408
f 416/416/416 419/419/419 415/415/415
f 420/420/420 419/419/419 416/416/416
f 420/420/420 421/421/421 419/419/419
f 415/415/415 422/422/422 417/417/417
f 419/419/419 422/422/422 415/415/415
f 422/422/422 418/418/418 417/417/417
f 421/421/421 423/423/423 419/419/419
f 419/419/419 423/423/423 422/422/422
f 421/421/421 424/424/424 423/423/423
f 423/423/423 425/425/425 422/422/422
f 422/422/422 425/425/425 418/418/418
f 424/424/424 426/426/426 423/423/423
f 423/423/423 426/426/426 425/425/425
f 424/424/424 427/427/427 426/426/426
f 418/418/418 428/428/428 395/395/395
f 395/395/395 428/428/428 386/386/386
f 425/425/425 429/429/429 418/418/418
f 418/418/418 429/429/429 428/428/428
f 426/426/426 430/430/430 425/425/425
f 425/425/425 430/430/430 429/429/429
f 427/427/427 431/431/431 426/426/426
f 426/426/426 431/431/431 430/430/430
f 427/427/427 432/432/432 431/431/431
f 428/428/428 433/433/433 386/386/386
f 386/386/386 433/433/433 434/434/434
f 433/433/433 435/435/435 434/434/434
f 433/433/433 436/436/436 435/435/435
f 428/428/428 437/437/437 433/433/433
f 429/429/429 437/437/437 428/428/428
f 437/437/437 436/436/436 433/433/433
f 430/430/430 438/438/438 429/429/429
f 429/429/429 438/438/438 437/437/437
f 431/431/431 439/439/439 430/430/430
f 430/430/430 439/439/439 438/438/438
f 432/432/432 440/440/440 431/431/431
f 431/431/431 440/440/440 439/439/439
f 432/432/432 441/441/441 440/440/440
f 437/437/437 442/442/442 436/436/436
f 438/438/438 442/442/442 437/437/437
f 439/439/439 443/443/443 438/438/438
f 438/438/438 443/443/443 442/442/442
f 442/442/442 444/444/444 436/436/436
f 436/436/436 444/444/444 445/445/445
f 442/442/442 446/446/446 444/444/444
f 443/443/443 446/446/446 442/442/442
f 443/443/443 447/447/447 446/446/446
f 439/439/439 448/448/448 443/443/443
f 448/448/448 447/447/447 443/443/443
f 440/440/440 448/448/448 439/439/439
f 448/448/448 449/449/449 447/447/447
f 441/441/441 450/450/450 440/440/440
f 440/440/440 450/450/450 448/448/448
f 450/450/450 449/449/449 448/448/448
f 441/441/441 451/451/451 450/450/450
f 450/450/450 452/452/452 449/449/449
f 451/451/451 452/452/452 450/450/450
f 451/451/451 453/453/453 452/452/452
f 454/454/454 456/456/456 455/455/455
f 457/457/457 456/456/456 454/454/454
f 457/457/457 458/458/458 456/456/456
f 459/459/459 458/458/458 457/457/457
f 459/459/459 460/460/460 458/458/458
f 461/461/461 463/463/463 462/462/462
f 461/461/461 464/464/464 463/463/463
f 465/465/465 463/463/463 464/464/464
f 464/464/464 466/466/466 465/465/465
f 467/467/467 465/465/465 466/466/466
f 467/467/467 468/468/468 465/465/465
f 467/467/467 466/466/466 469/469/469
f 469/469/469 470/470/470 467/467/467
f 471/471/471 468/468/468 467/467/467
f 471/471/471 467/467/467 472/472/472
f 472/472/472 473/473/473 471/471/471
f 472/472/472 474/474/474 473/473/473
f 474/474/474 475/475/475 473/473/473
f 474/474/474 476/476/476 475/475/475
f 476/476/476 477/477/477 475/475/475
f 478/478/478 480/480/480 479/479/479
f 478/478/478 481/481/481 480/480/480
f 482/482/482 484/484/484 483/483/483
f 482/482/482 483/483/483 485/485/485
f 485/485/485 483/483/483 486/486/486
f 486/486/486 483/483/483 487/487/487
f 486/486/486 487/487/487 488/488/488
f 485/485/485 486/486/486 489/489/489
f 489/489/489 486/486/486 490/490/490
f 489/489/489 490/490/490 491/491/491
f 492/492/492 494/494/494 493/493/493
f 492/492/492 493/493/493 495/495/495
f 496/496/496 492/492/492 495/495/495
f 495/495/495 493/493/493 497/497/497
f 496/496/496 495/495/495 498/498/498
f 499/499/499 496/496/496 498/498/498
f 495/495/495 497/497/497 500/500/500
f 498/498/498 495/495/495 500/500/500
f 500/500/500 497/497/497 501/501/501
f 499/499/499 498/498/498 502/502/502
f 503/503/503 499/499/499 502/502/502
f 498/498/498 500/500/500 504/504/504
f 502/502/502 498/498/498 504/504/504
f 500/500/500 501/501/501 505/505/505
f 504/504/504 500/500/500 505/505/505
f 505/505/505 501/501/501 506/506/506
f 503/503/503 502/502/502 507/507/507
f 508/508/508 503/503/503 507/507/507
f 508/508/508 507/507/507 509/509/509
f 502/502/502 504/504/504 510/510/510
f 507/507/507 502/502/502 510/510/510
f 509/509/509 507/507/507 511/511/511
f 507/507/507 510/510/510 511/511/511
f 509/509/509 511/511/511 512/512/512
f 510/510/510 504/504/504 513/513/513
f 504/504/504 505/505/505 513/513/513
f 514/514/514 513/513/513 505/505/505
f 505/505/505 506/506/506 515/515/515
f 505/505/505 515/515/515 514/514/514
f 515/515/515 506/506/506 516/516/516
f 515/515/515 516/516/516 517/517/517
f 514/514/514 515/515/515 517/517/517
f 514/514/514 517/517/517 518/518/518
f 519/519/519 514/514/514 518/518/518
f 519/519/519 520/520/520 514/514/514
f 512/512/512 511/511/511 521/521/521
f 512/512/512 521/521/521 522/522/522
f 522/522/522 521/521/521 523/523/523
f 513/513/513 514/514/514 524/524/524
f 520/520/520 524/524/524 514/514/514
f 511/511/511 525/525/525 521/521/521
f 525/525/525 513/513/513 524/524/524
f 511/511/511 510/510/510 525/525/525
f 510/510/510 513/513/513 525/525/525
f 526/526/526 523/523/523 521/521/521
f 526/526/526 521/521/521 525/525/525
f 525/525/525 524/524/524 526/526/526
f 526/526/526 524/524/524 520/520/520
f 523/523/523 526/526/526 527/527/527
f 526/526/526 520/520/520 528/528/528
f 526/526/526 528/528/528 527/527/527
f 529/529/529 531/531/531 530/530/530
f 529/529/529 532/532/532 531/531/531
f 533/533/533 532/532/532 529/529/529
f 533/533/533 534/534/534 532/532/532
f 532/532/532 535/535/535 531/531/531
f 534/534/534 536/536/536 532/532/532
f 532/532/532 536/536/536 535/535/535
f 531/531/531 535/535/535 537/537/537
f 531/531/531 537/537/537 538/538/538
f 534/534/534 539/539/539 536/536/536
f 540/540/540 539/539/539 534/534/534
f 540/540/540 86/86/86 539/539/539
f 86/86/86 541/541/541 539/539/539
f 541/541/541 536/536/536 539/539/539
f 86/86/86 88/88/88 541/541/541
f 536/536/536 542/542/542 535/535/535
f 536/536/536 541/541/541 542/542/542
f 542/542/542 541/541/541 88/88/88
f 535/535/535 542/542/542 537/537/537
f 542/542/542 88/88/88 93/93/93
f 93/93/93 537/537/537 542/542/542
f 93/93/93 99/99/99 537/537/537
f 538/538/538 537/537/537 543/543/543
f 543/543/543 537/537/537 99/99/99
f 538/538/538 543/543/543 544/544/544
f 543/543/543 99/99/99 103/103/103
f 544/544/544 543/543/543 545/545/545
f 103/103/103 545/545/545 543/543/543
f 546/546/546 544/544/544 545/545/545
f 103/103/103 106/106/106 545/545/545
f 546/546/546 545/545/545 547/547/547
f 547/547/547 545/545/545 106/106/106
f 547/547/547 106/106/106 548/548/548
f 549/549/549 551/551/551 550/550/550
f 549/549/549 552/552/552 551/551/551
f 553/553/553 555/555/555 554/554/554
f 556/556/556 554/554/554 555/555/555
f 556/556/556 557/557/557 554/554/554
f 558/558/558 560/560/560 559/559/559
f 558/558/558 561/561/561 560/560/560
f 562/562/562 564/564/564 563/563/563
f 562/562/562 565/565/565 564/564/564
f 566/566/566 565/565/565 562/562/562
f 567/567/567 564/564/564 565/565/565
f 566/566/566 568/568/568 565/565/565
f 567/567/567 565/565/565 569/569/569
f 569/569/569 565/565/565 568/568/568
f 569/569/569 568/568/568 570/570/570
f 571/571/571 573/573/573 572/572/572
f 571/571/571 572/572/572 574/574/574
f 575/575/575 574/574/574 572/572/572
f 575/575/575 576/576/576 574/574/574
f 576/576/576 575/575/575 577/577/577
f 578/578/578 580/580/580 579/579/579
f 579/579/579 580/580/580 581/581/581
f 582/582/582 584/584/584 583/583/583
f 585/585/585 584/584/584 582/582/582
f 583/583/583 586/586/586 582/582/582
f 586/586/586 587/587/587 582/582/582
f 587/587/587 585/585/585 582/582/582
f 587/587/587 586/586/586 588/588/588
f 588/588/588 586/586/586 589/589/589
f 584/584/584 585/585/585 590/590/590
f 584/584/584 590/590/590 591/591/591
f 591/591/591 592/592/592 584/584/584
f 590/590/590 593/593/593 591/591/591
f 593/593/593 592/592/592 591/591/591
f 590/590/590 594/594/594 593/593/593
f 593/593/593 595/595/595 592/592/592
f 593/593/593 594/594/594 595/595/595
f 592/592/592 595/595/595 596/596/596
f 596/596/596 595/595/595 594/594/594
f 592/592/592 596/596/596 597/597/597
f 585/585/585 598/598/598 590/590/590
f 590/590/590 598/598/598 594/594/594
f 599/599/599 585/585/585 587/587/587
f 600/600/600 587/587/587 588/588/588
f 600/600/600 599/599/599 587/587/587
f 596/596/596 601/601/601 597/597/597
f 597/597/597 601/601/601 602/602/602
f 597/597/597 602/602/602 603/603/603
f 603/603/603 602/602/602 604/604/604
f 603/603/603 604/604/604 605/605/605
f 605/605/605 604/604/604 606/606/606
f 605/605/605 606/606/606 607/607/607
f 606/606/606 589/589/589 607/607/607
f 606/606/606 604/604/604 608/608/608
f 608/608/608 604/604/604 602/602/602
f 589/589/589 606/606/606 608/608/608
f 609/609/609 602/602/602 601/601/601
f 608/608/608 602/602/602 609/609/609
f 596/596/596 610/610/610 601/601/601
f 610/610/610 609/609/609 601/601/601
f 610/610/610 596/596/596 611/611/611
f 596/596/596 594/594/594 611/611/611
f 611/611/611 594/594/594 612/612/612
f 598/598/598 612/612/612 594/594/594
f 611/611/611 612/612/612 613/613/613
f 598/598/598 614/614/614 612/612/612
f 615/615/615 611/611/611 613/613/613
f 610/610/610 611/611/611 615/615/615
f 615/615/615 613/613/613 616/616/616
f 615/615/615 616/616/616 617/617/617
f 618/618/618 614/614/614 598/598/598
f 618/618/618 619/619/619 614/614/614
f 585/585/585 618/618/618 598/598/598
f 615/615/615 617/617/617 620/620/620
f 610/610/610 615/615/615 620/620/620
f 620/620/620 617/617/617 621/621/621
f 622/622/622 619/619/619 618/618/618
f 622/622/622 623/623/623 619/619/619
f 624/624/624 618/618/618 585/585/585
f 624/624/624 622/622/622 618/618/618
f 624/624/624 623/623/623 622/622/622
f 624/624/624 625/625/625 623/623/623
f 599/599/599 624/624/624 585/585/585
f 599/599/599 625/625/625 624/624/624
f 599/599/599 626/626/626 625/625/625
f 600/600/600 626/626/626 599/599/599
f 600/600/600 627/627/627 626/626/626
f 628/628/628 627/627/627 600/600/600
f 628/628/628 629/629/629 627/627/627
f 628/628/628 600/600/600 588/588/588
f 630/630/630 629/629/629 628/628/628
f 630/630/630 631/631/631 629/629/629
f 628/628/628 588/588/588 632/632/632
f 630/630/630 628/628/628 632/632/632
f 632/632/632 588/588/588 589/589/589
f 633/633/633 631/631/631 630/630/630
f 633/633/633 634/634/634 631/631/631
f 630/630/630 632/632/632 635/635/635
f 633/633/633 630/630/630 635/635/635
f 632/632/632 589/589/589 636/636/636
f 635/635/635 632/632/632 636/636/636
f 636/636/636 589/589/589 608/608/608
f 637/637/637 634/634/634 633/633/633
f 633/633/633 635/635/635 637/637/637
f 637/637/637 638/638/638 634/634/634
f 637/637/637 635/635/635 639/639/639
f 635/635/635 636/636/636 639/639/639
f 640/640/640 638/638/638 637/637/637
f 637/637/637 639/639/639 640/640/640
f 640/640/640 641/641/641 638/638/638
f 636/636/636 608/608/608 642/642/642
f 608/608/608 609/609/609 642/642/642
f 639/639/639 636/636/636 643/643/643
f 636/636/636 642/642/642 643/643/643
f 644/644/644 641/641/641 640/640/640
f 644/644/644 645/645/645 641/641/641
f 640/640/640 639/639/639 646/646/646
f 639/639/639 643/643/643 646/646/646
f 640/640/640 646/646/646 644/644/644
f 647/647/647 645/645/645 644/644/644
f 647/647/647 648/648/648 645/645/645
f 644/644/644 646/646/646 649/649/649
f 644/644/644 649/649/649 647/647/647
f 646/646/646 643/643/643 650/650/650
f 646/646/646 650/650/650 649/649/649
f 643/643/643 642/642/642 651/651/651
f 643/643/643 651/651/651 650/650/650
f 642/642/642 609/609/609 652/652/652
f 642/642/642 652/652/652 651/651/651
f 653/653/653 648/648/648 647/647/647
f 653/653/653 654/654/654 648/648/648
f 647/647/647 649/649/649 655/655/655
f 647/647/647 655/655/655 653/653/653
f 649/649/649 650/650/650 656/656/656
f 649/649/649 656/656/656 655/655/655
f 650/650/650 651/651/651 657/657/657
f 650/650/650 657/657/657 656/656/656
f 658/658/658 654/654/654 653/653/653
f 658/658/658 659/659/659 654/654/654
f 653/653/653 660/660/660 658/658/658
f 660/660/660 659/659/659 658/658/658
f 653/653/653 655/655/655 660/660/660
f 660/660/660 661/661/661 659/659/659
f 655/655/655 662/662/662 660/660/660
f 662/662/662 661/661/661 660/660/660
f 655/655/655 656/656/656 662/662/662
f 662/662/662 663/663/663 661/661/661
f 656/656/656 664/664/664 662/662/662
f 664/664/664 663/663/663 662/662/662
f 656/656/656 657/657/657 664/664/664
f 664/664/664 665/665/665 663/663/663
f 666/666/666 665/665/665 664/664/664
f 657/657/657 666/666/666 664/664/664
f 666/666/666 667/667/667 665/665/665
f 657/657/657 668/668/668 666/666/666
f 651/651/651 668/668/668 657/657/657
f 651/651/651 652/652/652 668/668/668
f 669/669/669 667/667/667 666/666/666
f 668/668/668 669/669/669 666/666/666
f 669/669/669 670/670/670 667/667/667
f 652/652/652 671/671/671 668/668/668
f 668/668/668 671/671/671 669/669/669
f 672/672/672 670/670/670 669/669/669
f 671/671/671 672/672/672 669/669/669
f 672/672/672 673/673/673 670/670/670
f 674/674/674 673/673/673 672/672/672
f 671/671/671 674/674/674 672/672/672
f 674/674/674 621/621/621 673/673/673
f 620/620/620 621/621/621 674/674/674
f 652/652/652 675/675/675 671/671/671
f 675/675/675 674/674/674 671/671/671
f 675/675/675 620/620/620 674/674/674
f 609/609/609 675/675/675 652/652/652
f 610/610/610 620/620/620 675/675/675
f 609/609/609 610/610/610 675/675/675
