mtllib P_RockDesert_Hoodoo06.mtl
v 1.134408 8.225504 -1.216231
v 0.3704983 7.111398 -0.5933316
v 0.491231 7.114974 -0.4038408
v 0.2549137 3.813565 -0.6082366
v 0.8045245 5.637918 -0.8939216
v 0.5237432 5.673027 -1.075355
v 0.2351306 5.688478 -1.243963
v 0.4780096 6.298692 -1.181471
v 0.1484395 6.32233 -1.344989
v 0.4455243 6.848547 -1.185476
v 0.120004 6.881545 -1.348684
v -0.08725566 3.899745 -0.7403457
v -0.09838851 5.716306 -1.249177
v -0.2114113 6.345613 -1.355796
v 0.1156085 2.070415 -1.177536
v 0.7185474 2.117891 -0.9974729
v 0.2284577 0.5654268 -1.823328
v 1.150227 0.7422404 -1.527004
v -0.7178447 0.4690752 -1.623556
v -0.4600244 2.021606 -1.043369
v -1.417182 0.451663 -0.9595591
v -0.8887907 1.980036 -0.6137383
v -0.4593996 3.964917 -0.6903725
v -0.7478312 4.030247 -0.4356623
v -0.4334044 5.73896 -1.249786
v -1.017306 5.741076 -0.9176757
v -0.7259725 5.746774 -1.08593
v -0.5645635 6.360284 -1.343052
v -1.188439 5.752317 -0.6284962
v -1.355246 5.753974 -0.3366773
v -1.399534 6.326269 -0.6945856
v -1.555057 6.319746 -0.361038
v -1.197639 6.327315 -1.00462
v -0.8816575 6.344221 -1.195264
v -0.2412661 6.911598 -1.323838
v 0.1001007 7.015939 -1.295344
v -0.2469138 7.041862 -1.263363
v -0.5925102 6.940149 -1.324473
v -0.5851088 7.074862 -1.272052
v -0.9161427 6.897748 -1.180007
v -1.253751 6.8486 -1.01823
v -0.894577 7.025498 -1.12643
v -1.227662 6.969976 -0.9826345
v -1.003544 -0.2156489 -2.155777
v -1.95372 -0.2187736 -1.257252
v -2.088494 -0.8908532 -1.327008
v -1.03826 -0.9003413 -2.305012
v 0.2895666 -0.1557431 -2.457578
v -1.029522 -2.071086 -2.318516
v -2.073271 -2.078913 -1.318829
v 0.3889331 -0.8815143 -2.615938
v 1.554685 -0.03885365 -2.151815
v 1.722822 -0.8470857 -2.28231
v 1.725845 -2.050236 -2.264241
v 0.407577 -2.068449 -2.616208
v 1.605629 -3.735448 -2.08908
v -0.9269425 -3.73951 -2.14959
v -1.884708 -3.752196 -1.221538
v 0.398304 -3.74376 -2.419354
v -0.7828264 -4.012333 -1.934377
v -1.633749 -4.024038 -1.150144
v 0.3592738 -4.004686 -2.186583
v 1.461917 -3.9907 -1.850324
v 2.266852 -3.981705 -1.091745
v 2.477275 -3.737318 -1.197484
v -2.007709 -0.09431434 1.180944
v -0.9755371 0.1063142 2.076557
v -1.019037 -0.3579116 2.252946
v -2.100886 -0.6814835 1.293702
v -2.365221 -0.208426 -0.05998003
v -2.093744 -1.895189 1.337112
v -1.01025 -1.774791 2.308079
v -2.489955 -0.8801785 -0.06197655
v -1.95372 -0.2187736 -1.257252
v -2.088494 -0.8908532 -1.327008
v -2.073271 -2.078913 -1.318829
v -2.468965 -2.072962 -0.03993499
v -1.884708 -3.752196 -1.221538
v -2.245139 -3.719839 -0.03666745
v -1.896877 -3.530556 1.244269
v -1.916768 -3.977181 -0.03608226
v -0.8842908 -3.461254 2.144685
v -1.64438 -3.887024 1.102164
v -0.7500981 -3.784954 1.907334
v 0.9571656 5.584287 0.6650138
v 1.121364 5.570762 0.3758281
v 0.4906077 3.586534 0.3865465
v 0.7932342 5.627393 0.9448185
v 0.2133162 3.684213 0.659181
v 1.207321 2.0728 0.6206886
v 0.7571273 6.396614 0.9871304
v 0.946111 6.351304 0.6813083
v 0.7593358 2.055409 1.061066
v 1.853112 0.7646523 0.8660138
v 1.210244 0.6765614 1.575294
v 0.1514555 2.029848 1.217075
v 0.2529282 0.6212139 1.842114
v -0.4532395 2.002616 1.049381
v -0.7090286 0.5762935 1.597108
v -0.5172313 3.944485 0.6309029
v -0.15558 3.815233 0.7486211
v -0.4449611 5.74171 1.239295
v -0.1066743 5.749731 1.247363
v -0.5633214 6.382442 1.399499
v 0.2305528 5.734783 1.253075
v -0.2026078 6.383014 1.417077
v -0.6038579 6.931886 1.389792
v 0.5145087 5.679976 1.098354
v -0.2407518 6.931936 1.387153
v -0.598498 7.060044 1.334747
v -0.2485503 7.057311 1.322965
v 0.1436209 6.378623 1.356705
v 0.4217628 6.372104 1.142009
v 0.1040677 6.931909 1.389022
v 0.07584725 7.060365 1.319102
v 0.4846553 6.898767 1.14458
v 0.2423078 6.926221 1.271141
v 0.2235232 7.053688 1.243943
v 0.7202542 6.900964 1.068907
v 0.4669254 7.023948 1.133506
v 0.6873163 7.022016 1.038481
v 0.946111 6.351304 0.6813083
v 1.121364 5.570762 0.3758281
v 0.9571656 5.584287 0.6650138
v 1.117009 6.342805 0.3748454
v 0.9061612 6.853006 0.7253309
v 0.7202542 6.900964 1.068907
v 0.7571273 6.396614 0.9871304
v 0.6873163 7.022016 1.038481
v 0.8519467 6.977809 0.697219
v 1.08526 6.874458 0.373015
v 1.024023 7.005254 0.3575881
v 1.153412 6.82442 0.01761615
v 1.084736 6.965248 0.01824796
v 1.168048 6.275727 0.01337206
v 1.124101 5.556528 0.04260147
v 1.160706 6.834033 -0.3490267
v 1.11038 6.958207 -0.3386044
v 0.5964267 3.588526 0.009513021
v 0.4906077 3.586534 0.3865465
v 1.122993 5.550128 -0.2909639
v 1.152449 6.33134 -0.335766
v 0.9522987 6.882604 -0.6565168
v 0.8947483 7.01087 -0.6286623
v 0.9860681 6.34983 -0.654727
v 0.9637188 5.585738 -0.5895765
v 0.7709022 6.867897 -0.9869391
v 0.7230662 7.006755 -0.9467377
v 0.5030155 3.689634 -0.3499916
v 1.359499 2.102805 0.0195235
v 1.207321 2.0728 0.6206886
v 0.8045245 5.637918 -0.8939216
v 0.7945682 6.309503 -0.9764921
v 0.5237432 5.673027 -1.075355
v 0.4780096 6.298692 -1.181471
v 0.2549137 3.813565 -0.6082366
v 0.4455243 6.848547 -1.185476
v 0.4084063 6.983642 -1.13309
v 0.120004 6.881545 -1.348684
v 0.1001007 7.015939 -1.295344
v 0.7185474 2.117891 -0.9974729
v 1.17505 2.128228 -0.5694788
v 1.150227 0.7422404 -1.527004
v 1.844458 0.6740541 -0.899477
v 1.554685 -0.03885365 -2.151815
v 2.102109 0.6824179 -0.01714563
v 1.853112 0.7646523 0.8660138
v 2.463034 -0.08485532 -1.241625
v 1.722822 -0.8470857 -2.28231
v 2.811494 -0.06894016 -0.02493191
v 2.516299 0.05734253 1.162564
v 2.663317 -0.8612544 -1.301505
v 3.027332 -0.8400526 -0.005228043
v 2.735435 -0.7204005 1.225681
v 2.706928 -1.987929 1.231197
v 3.025694 -2.049757 0.009327888
v 2.503036 -3.774174 1.128782
v 2.797442 -3.73313 0.003019983
v 2.671608 -2.055959 -1.292364
v 1.725845 -2.050236 -2.264241
v 2.477275 -3.737318 -1.197484
v 1.605629 -3.735448 -2.08908
v 1.135294 8.447594 1.320688
v 0.3505095 7.121142 0.6299421
v 0.1640503 7.130735 0.755342
v 0.3188547 8.397846 1.724536
v -0.03473079 7.166391 0.8524424
v -0.1255582 8.394369 1.749174
v -0.2556994 7.203121 0.8688412
v -0.4766883 7.220904 0.8515043
v -1.068377 8.546309 1.750727
v -0.6781633 7.233388 0.7535057
v -0.1856159 10.75006 2.113183
v -1.339365 10.88802 2.115083
v 0.3582221 10.75277 2.083031
v 1.357318 10.77681 1.588833
v -0.1134492 12.15499 2.758465
v -1.641211 12.32709 2.75904
v 1.716367 10.79453 1.143498
v 1.428702 8.485888 0.9567692
v 2.385807 12.18169 1.468832
v 1.926174 12.16551 2.059779
v 2.436327 13.02865 1.530623
v 2.044759 12.94708 2.152156
v 0.6066815 12.15696 2.716371
v 0.7774613 12.93119 2.835221
v 1.896054 13.81039 2.032343
v 0.8003239 13.70436 2.675085
v 0.04396735 12.86746 2.884757
v -1.605584 12.91979 2.875783
v 0.1206012 13.55439 2.727327
v -1.392439 13.37371 2.70661
v 1.135294 8.447594 1.320688
v 0.4708533 7.1127 0.4457835
v 0.3505095 7.121142 0.6299421
v 1.428702 8.485888 0.9567692
v 0.5639693 7.145727 0.2430721
v 1.643264 8.441565 0.05472553
v 0.5852717 7.152244 0.01581419
v 0.5776881 7.137493 -0.2065958
v 1.590228 8.363062 -0.404989
v 1.590228 8.363062 -0.404989
v 0.491231 7.114974 -0.4038408
v 0.5776881 7.137493 -0.2065958
v 1.134408 8.225504 -1.216231
v 1.356233 10.66633 -1.515651
v 0.9007703 10.63235 -1.866307
v 0.7622136 8.152439 -1.502779
v 1.91403 10.73112 -0.5229158
v 1.643264 8.441565 0.05472553
v 1.928052 12.11629 -2.043401
v 1.978931 10.77001 0.03964674
v 1.428702 8.485888 0.9567692
v 1.716367 10.79453 1.143498
v 2.662322 12.13897 -0.7315225
v 2.737588 12.16309 0.01050639
v 2.385807 12.18169 1.468832
v 2.799545 13.01727 0.0223707
v 2.436327 13.02865 1.530623
v 2.809217 12.93227 -0.7353704
v 2.069856 12.90609 -2.094413
v 1.447327 12.9014 -2.576756
v 1.327407 12.10493 -2.507201
v 1.459851 13.6803 -2.375178
v 2.042176 13.69242 -1.925804
v 2.61524 13.81826 -0.6712534
v 2.514497 13.96751 0.02681684
v 2.173227 13.96681 1.440751
v 2.044759 12.94708 2.152156
v 1.896054 13.81039 2.032343
v -1.53442 8.026743 -0.7634852
v -1.087603 7.168656 -0.2149545
v -0.9908484 7.160394 -0.418519
v -1.757518 8.258545 0.05966747
v -1.104993 7.146554 0.009917617
v -1.088074 7.117734 0.2478891
v -2.182682 10.67674 0.04569435
v -1.909672 10.55665 -0.9616158
v -1.723969 8.257816 0.4877938
v -0.9999249 7.152082 0.4211968
v -2.763663 12.11651 0.01959765
v -2.39361 12.05295 -1.3151
v -2.141626 10.68478 0.5696024
v -1.426818 8.482506 1.455196
v -0.8610412 7.248229 0.6136857
v -0.6781633 7.233388 0.7535057
v -1.068377 8.546309 1.750727
v -1.339365 10.88802 2.115083
v -1.777996 10.85994 1.753433
v -1.641211 12.32709 2.75904
v -2.221389 12.31651 2.281099
v -1.605584 12.91979 2.875783
v -2.707553 12.13266 0.7149507
v -2.205966 12.9098 2.38227
v -1.392439 13.37371 2.70661
v -1.922082 13.33549 2.244975
v -2.719263 12.88788 0.7606816
v -2.443768 13.58064 0.7231416
v -2.775636 12.86813 0.04103887
v -2.493486 13.55969 0.05220401
v -2.402286 12.83784 -1.341339
v -2.135871 13.5558 -1.233285
v -2.000395 12.86196 -1.94877
v -1.758654 13.58645 -1.796844
v 1.134408 8.225504 -1.216231
v 0.1883028 7.105297 -0.7283702
v 0.3704983 7.111398 -0.5933316
v 0.7622136 8.152439 -1.502779
v -0.02933362 7.095712 -0.846719
v -0.1250385 8.010096 -1.728885
v -0.2652143 7.109284 -0.8716614
v -0.4766825 7.108575 -0.8444574
v -0.18498 10.56201 -2.142997
v 0.9007703 10.63235 -1.866307
v -0.5734617 8.008791 -1.653612
v -0.6778382 7.166507 -0.7361736
v -0.7337252 10.56041 -2.050883
v -1.294622 8.005281 -1.125442
v -0.8638871 7.176826 -0.6059146
v -0.9908484 7.160394 -0.418519
v -1.53442 8.026743 -0.7634852
v -1.909672 10.55665 -0.9616158
v -1.616226 10.55611 -1.40455
v -2.39361 12.05295 -1.3151
v -2.002543 12.0673 -1.900598
v -2.402286 12.83784 -1.341339
v -2.000395 12.86196 -1.94877
v -0.8325549 12.0725 -2.75351
v -0.106347 12.07415 -2.874102
v -0.8123048 12.90296 -2.832824
v -1.758654 13.58645 -1.796844
v -0.7534614 13.79518 -2.610216
v -0.05859452 12.90639 -2.958367
v -0.05247962 13.7807 -2.725205
v 1.327407 12.10493 -2.507201
v 1.356233 10.66633 -1.515651
v 1.928052 12.11629 -2.043401
v 1.447327 12.9014 -2.576756
v 1.459851 13.6803 -2.375178
v 0.3154879 7.077341 0.9444239
v 0.6873163 7.022016 1.038481
v 0.4669254 7.023948 1.133506
v 0.518913 7.07158 0.8342116
v 0.1640503 7.130735 0.755342
v 0.8519467 6.977809 0.697219
v 0.3505095 7.121142 0.6299421
v 0.6614 7.045255 0.5715011
v 1.024023 7.005254 0.3575881
v 0.4708533 7.1127 0.4457835
v 0.7939962 7.07549 0.3003302
v 1.084736 6.965248 0.01824796
v 0.5639693 7.145727 0.2430721
v 0.8350041 7.058745 0.01703107
v 1.11038 6.958207 -0.3386044
v 0.5852717 7.152244 0.01581419
v 0.8440343 7.047849 -0.2725999
v 0.8947483 7.01087 -0.6286623
v 0.5776881 7.137493 -0.2065958
v 0.6929896 7.062923 -0.5162516
v 0.7230662 7.006755 -0.9467377
v 0.491231 7.114974 -0.4038408
v 0.5467823 7.059078 -0.7700346
v 0.4084063 6.983642 -1.13309
v 0.3704983 7.111398 -0.5933316
v 0.2983546 7.044469 -0.9307301
v 0.1001007 7.015939 -1.295344
v 0.1883028 7.105297 -0.7283702
v 0.03538352 7.055826 -1.071031
v -0.2469138 7.041862 -1.263363
v -0.02933362 7.095712 -0.846719
v -0.2560641 7.075574 -1.067512
v -0.5851088 7.074862 -1.272052
v -0.2652143 7.109284 -0.8716614
v -0.5308956 7.09172 -1.058254
v -0.894577 7.025498 -1.12643
v -0.4766825 7.108575 -0.8444574
v -0.7862076 7.096002 -0.931302
v -1.227662 6.969976 -0.9826345
v -0.6778382 7.166507 -0.7361736
v -1.045775 7.0734 -0.7942746
v -1.376374 6.994716 -0.6512308
v -0.8638871 7.176826 -0.6059146
v -1.183611 7.077554 -0.5348749
v -1.575247 6.974937 -0.3525777
v -0.9908484 7.160394 -0.418519
v -1.331425 7.071798 -0.283766
v -1.65839 6.952053 0.09821092
v -1.087603 7.168656 -0.2149545
v -1.381692 7.049302 0.05406427
v -1.142533 7.030492 0.3166658
v -1.104993 7.146554 0.009917617
v -1.115303 7.074113 0.2822775
v -1.089366 7.04286 0.458547
v -1.088074 7.117734 0.2478891
v -1.044646 7.097471 0.4398719
v -1.174922 7.043735 0.8389931
v -0.9999249 7.152082 0.4211968
v -1.017982 7.145982 0.7263395
v -0.9016113 7.046405 1.151606
v -0.8610412 7.248229 0.6136857
v -0.7898874 7.139895 0.9525559
v -0.598498 7.060044 1.334747
v -0.6781633 7.233388 0.7535057
v -0.5375931 7.140473 1.093126
v -0.2485503 7.057311 1.322965
v -0.4766883 7.220904 0.8515043
v -0.2521248 7.130216 1.095903
v 0.07584725 7.060365 1.319102
v -0.2556994 7.203121 0.8688412
v 0.02055822 7.113378 1.085772
v 0.2235232 7.053688 1.243943
v -0.03473079 7.166391 0.8524424
v 0.1937867 7.092212 0.9996426
v 0.1640503 7.130735 0.755342
v -1.253751 6.8486 -1.01823
v -1.399534 6.326269 -0.6945856
v -1.197639 6.327315 -1.00462
v -1.423351 6.868875 -0.6838138
v -1.227662 6.969976 -0.9826345
v -1.376374 6.994716 -0.6512308
v -1.555057 6.319746 -0.361038
v -1.619219 6.850212 -0.367034
v -1.575247 6.974937 -0.3525777
v -1.606435 6.85123 0.09434164
v -1.65839 6.952053 0.09821092
v -1.380377 6.40121 0.0783478
v -1.34912 5.758998 -0.000665307
v -1.355246 5.753974 -0.3366773
v -1.237961 6.487763 0.4608449
v -1.163776 6.940551 0.3460504
v -0.8591072 4.068891 -0.05278838
v -0.7478312 4.030247 -0.4356623
v -1.346168 5.749994 0.3238965
v -1.15568 1.971904 -0.00814712
v -0.8887907 1.980036 -0.6137383
v -1.787101 0.4615836 -0.03292334
v -1.417182 0.451663 -0.9595591
v -1.565227 0.4594083 0.9193261
v -1.000924 1.981231 0.600454
v -0.7090286 0.5762935 1.597108
v -0.4532395 2.002616 1.049381
v -0.7747352 4.037332 0.3375678
v -0.5172313 3.944485 0.6309029
v -1.191076 5.745059 0.6100687
v -1.02513 5.747081 0.9014634
v -1.192742 6.490249 0.6020774
v -0.7329057 5.765584 1.079751
v -0.4449611 5.74171 1.239295
v -1.116329 6.950738 0.4901866
v -1.142533 7.030492 0.3166658
v -1.089366 7.04286 0.458547
v -1.061935 6.4356 0.9798732
v -0.8714598 6.361955 1.19292
v -0.5633214 6.382442 1.399499
v -1.171764 6.934486 0.8857782
v -1.174922 7.043735 0.8389931
v -0.9181754 6.914926 1.197159
v -0.6038579 6.931886 1.389792
v -0.9016113 7.046405 1.151606
v -0.598498 7.060044 1.334747
v 0.3845969 -3.8129 2.274934
v -0.7500981 -3.784954 1.907334
v -0.8842908 -3.461254 2.144685
v 0.3797967 -3.944182 2.101634
v 1.615975 -3.90122 1.905947
v 0.3188833 -4.021215 1.540791
v -0.4850022 -3.920131 1.396767
v -1.64438 -3.887024 1.102164
v -1.118446 -3.974535 0.7914814
v -1.916768 -3.977181 -0.03608226
v 1.504332 -4.040257 1.788192
v 2.273542 -4.016479 1.002462
v 1.853955 -3.718466 1.838031
v 2.503036 -3.774174 1.128782
v 2.797442 -3.73313 0.003019983
v 1.228644 -4.125546 1.381799
v 1.884076 -4.129886 0.7863757
v 2.550817 -3.979633 -0.05355168
v 2.477275 -3.737318 -1.197484
v 2.266852 -3.981705 -1.091745
v 0.8615073 -4.094499 0.5168011
v 1.935654 -4.115405 -0.03390056
v 1.763772 -4.111813 -0.8359246
v 0.24084 -4.045692 0.7605874
v 1.08585 -4.104611 -0.02442178
v 1.162285 -4.113353 -1.434605
v 1.461917 -3.9907 -1.850324
v -0.3008614 -4.009643 0.5349233
v 0.8145601 -4.103504 -0.5607976
v 0.14508 -4.077201 -0.006068811
v 0.308944 -4.113553 -1.599684
v 0.3592738 -4.004686 -2.186583
v 0.2321617 -4.101944 -0.7939579
v -0.6092808 -4.043777 -0.01538171
v -0.5315015 -4.115175 -1.411469
v -0.7828264 -4.012333 -1.934377
v -0.3461931 -4.08654 -0.5675927
v -1.326356 -4.04852 -0.02348291
v -1.142882 -4.103359 -0.8204401
v -1.633749 -4.024038 -1.150144
v -2.245139 -3.719839 -0.03666745
v -1.884708 -3.752196 -1.221538
v -1.65839 6.952053 0.09821092
v -1.142533 7.030492 0.3166658
v -1.163776 6.940551 0.3460504
v -1.606435 6.85123 0.09434164
v 0.2235232 7.053688 1.243943
v 0.1937867 7.092212 0.9996426
v 0.1640503 7.130735 0.755342
v 0.3027239 6.992055 1.002729
v 0.3488468 6.846255 1.070144
v 0.2423078 6.926221 1.271141
v 0.4217628 6.372104 1.142009
v 0.4846553 6.898767 1.14458
v 0.4217628 6.372104 1.142009
v 0.3488468 6.846255 1.070144
v 0.3027239 6.992055 1.002729
v 0.4669254 7.023948 1.133506
v 0.1640503 7.130735 0.755342
v 0.3154879 7.077341 0.9444239
v 2.06307 0.1509476 1.574179
v 2.516299 0.05734253 1.162564
v 2.735435 -0.7204005 1.225681
v 1.909438 -0.4593084 2.019634
v 1.554721 0.1797996 2.04458
v 1.961924 -1.83178 2.013785
v 2.706928 -1.987929 1.231197
v 1.853955 -3.718466 1.838031
v 2.503036 -3.774174 1.128782
v 1.615975 -3.90122 1.905947
v 1.706744 -2.038875 2.062658
v 0.3845969 -3.8129 2.274934
v 1.718412 -0.311964 2.183947
v 0.288561 0.149754 2.379442
v 1.665456 -0.5643642 2.061175
v 0.3998326 -2.033907 2.456419
v -0.8842908 -3.461254 2.144685
v -1.01025 -1.774791 2.308079
v 0.3758174 -0.574795 2.428898
v -1.019037 -0.3579116 2.252946
v 0.3543656 -0.3182769 2.562593
v -0.9755371 0.1063142 2.076557
v 1.853112 0.7646523 0.8660138
v 2.516299 0.05734253 1.162564
v 2.06307 0.1509476 1.574179
v 1.210244 0.6765614 1.575294
v 1.554721 0.1797996 2.04458
v 0.2529282 0.6212139 1.842114
v 0.288561 0.149754 2.379442
v -0.7090286 0.5762935 1.597108
v -0.9755371 0.1063142 2.076557
v -1.565227 0.4594083 0.9193261
v -2.007709 -0.09431434 1.180944
v -1.787101 0.4615836 -0.03292334
v -2.365221 -0.208426 -0.05998003
v -1.417182 0.451663 -0.9595591
v -1.95372 -0.2187736 -1.257252
v -0.7178447 0.4690752 -1.623556
v -1.003544 -0.2156489 -2.155777
v 0.2284577 0.5654268 -1.823328
v 0.2895666 -0.1557431 -2.457578
v 1.150227 0.7422404 -1.527004
v 1.554685 -0.03885365 -2.151815
v -1.482894 13.74755 1.853143
v -1.922082 13.33549 2.244975
v -2.443768 13.58064 0.7231416
v -1.388985 13.82898 0.4219748
v -2.493486 13.55969 0.05220401
v -1.392439 13.37371 2.70661
v -2.135871 13.5558 -1.233285
v -0.5990318 14.04165 1.247155
v -1.112204 14.07083 -0.6886529
v -1.758654 13.58645 -1.796844
v -0.7534614 13.79518 -2.610216
v -0.08825729 14.11269 -1.241515
v -0.05247962 13.7807 -2.725205
v 1.459851 13.6803 -2.375178
v -0.3815621 14.1028 -0.4933624
v 0.7769695 14.14009 -1.06446
v 2.042176 13.69242 -1.925804
v 2.61524 13.81826 -0.6712534
v -0.6640836 14.11731 0.5183908
v 0.6497135 14.13074 -0.3514555
v 1.315828 14.14365 -0.2452942
v 2.514497 13.96751 0.02681684
v 2.173227 13.96681 1.440751
v 0.4733417 14.11755 0.6355978
v 1.148919 14.13741 0.7461895
v 1.896054 13.81039 2.032343
v 0.8003239 13.70436 2.675085
v 0.3749401 14.11007 1.186581
v 0.1206012 13.55439 2.727327
vn 0.7213717 -0.4070359 -0.5603078
vn 0.7002151 0.3340651 -0.6309512
vn 0.8334261 0.3390702 -0.4363858
vn 0.5002498 -0.005792865 -0.8658618
vn 0.7138796 -0.1760696 -0.6777725
vn 0.4982576 -0.1868487 -0.8466563
vn 0.2573222 -0.2044463 -0.9444507
vn 0.4964026 -0.04166203 -0.8670921
vn 0.2255952 -0.05707666 -0.9725477
vn 0.479816 0.2071462 -0.852565
vn 0.2216341 0.215657 -0.9509839
vn 0.05148872 -0.04430274 -0.9976904
vn -0.008430883 -0.2156506 -0.9764342
vn -0.01335946 -0.06382437 -0.9978718
vn 0.0304634 0.3247323 -0.9453152
vn 0.472396 0.3821485 -0.794232
vn -0.03193475 0.5502278 -0.8344037
vn 0.3890916 0.5680898 -0.725177
vn -0.4165984 0.5433757 -0.7288269
vn -0.4552455 0.2792737 -0.8454335
vn -0.7006673 0.5376399 -0.4690509
vn -0.8023121 0.254449 -0.5399546
vn -0.463404 -0.07766557 -0.8827371
vn -0.843486 -0.1055754 -0.5266738
vn -0.2338836 -0.2371392 -0.9429016
vn -0.6647296 -0.2933034 -0.687101
vn -0.4682992 -0.2588511 -0.844803
vn -0.2378082 -0.09063513 -0.9670742
vn -0.8275307 -0.3023006 -0.4730827
vn -0.9432815 -0.2853409 -0.1697075
vn -0.8539993 -0.2021129 -0.4794116
vn -0.9650002 -0.2316725 -0.1228924
vn -0.6865066 -0.1853735 -0.703097
vn -0.4559074 -0.1397895 -0.8789808
vn -0.008772779 0.2177414 -0.9759671
vn 0.1763894 0.7474669 -0.6404529
vn 0.04429049 0.7975398 -0.6016383
vn -0.2138404 0.220457 -0.9516675
vn -0.1406109 0.7742645 -0.6170437
vn -0.4459893 0.1846108 -0.8757924
vn -0.696245 0.149721 -0.7020161
vn -0.349854 0.7466527 -0.5657844
vn -0.5455997 0.6624362 -0.5133218
vn -0.4384131 0.4284834 -0.7900608
vn -0.7574161 0.4324684 -0.4891747
vn -0.8423145 0.09455422 -0.5306277
vn -0.462048 0.1003445 -0.8811598
vn -0.02691272 0.434058 -0.9004829
vn -0.4638047 -0.05950465 -0.8839369
vn -0.8484032 -0.06869287 -0.5248746
vn 0.01952138 0.1050921 -0.9942709
vn 0.4195994 0.4688875 -0.7772264
vn 0.5013756 0.1174636 -0.8572193
vn 0.505453 -0.06330552 -0.8605288
vn 0.02770407 -0.05887077 -0.9978811
vn 0.4601648 -0.4204994 -0.7819389
vn -0.4296788 -0.3938901 -0.8125433
vn -0.7758196 -0.4324859 -0.4594126
vn 0.03495259 -0.4088787 -0.9119191
vn -0.2329482 -0.8535294 -0.4660717
vn -0.4108917 -0.8756359 -0.2538303
vn 0.01526849 -0.8544856 -0.5192507
vn 0.2613353 -0.8606299 -0.4370583
vn 0.4506297 -0.853666 -0.2611268
vn 0.7884932 -0.4204589 -0.4488797
vn -0.7792685 0.4596607 0.4259726
vn -0.4315543 0.5353601 0.7260513
vn -0.4387288 0.1646686 0.8834032
vn -0.8483027 0.1198962 0.5157592
vn -0.9042188 0.4250539 -0.0414429
vn -0.8442495 -0.05876397 0.5327191
vn -0.4097189 -0.03873813 0.9113889
vn -0.9957799 0.08859821 -0.0239322
vn -0.7574161 0.4324684 -0.4891747
vn -0.8423145 0.09455422 -0.5306277
vn -0.8484032 -0.06869287 -0.5248746
vn -0.9971892 -0.07437727 -0.009035006
vn -0.7758196 -0.4324859 -0.4594126
vn -0.8951483 -0.445437 0.01718562
vn -0.7638202 -0.3944193 0.5108935
vn -0.4587169 -0.8868771 0.05502731
vn -0.4035226 -0.3603578 0.8410183
vn -0.4049632 -0.8514717 0.333168
vn -0.276039 -0.8312209 0.4825706
vn 0.8515676 -0.1336242 0.506929
vn 0.9499992 -0.1386366 0.2797883
vn 0.8495144 0.1036982 0.5172736
vn 0.6739581 -0.1354066 0.7262545
vn 0.4527116 0.03967876 0.8907737
vn 0.7764812 0.4473971 0.4437486
vn 0.675925 -0.02197661 0.7366427
vn 0.8695644 0.01497747 0.4935924
vn 0.4621581 0.4014646 0.7907187
vn 0.7000591 0.6091216 0.3726771
vn 0.3730915 0.6260905 0.6846995
vn 0.0001614901 0.3389275 0.9408125
vn -0.01835056 0.6102989 0.7919587
vn -0.4494579 0.2899309 0.8449425
vn -0.4038619 0.5863355 0.7022153
vn -0.5564777 -0.07121249 0.8278052
vn -0.07856906 -0.0226872 0.9966505
vn -0.2615725 -0.2715535 0.9261957
vn 0.001831221 -0.2368494 0.9715447
vn -0.2874145 -0.1361685 0.9480776
vn 0.2822182 -0.174668 0.9433154
vn 0.02469757 -0.1055064 0.9941119
vn -0.2765228 0.200436 0.9398726
vn 0.4611445 -0.1365737 0.8767517
vn 0.02021481 0.2398386 0.9706023
vn -0.1968155 0.7060824 0.6802288
vn 0.01995545 0.7651367 0.6435587
vn 0.3407774 -0.05838104 0.9383296
vn 0.4943385 -0.01010049 0.8692108
vn 0.3264199 0.2203291 0.9191872
vn 0.2049358 0.7578189 0.6194447
vn -0.06608004 0.08390608 0.9942802
vn 0.7599807 0.2297627 0.607979
vn 0.5978161 0.6918266 0.4049593
vn 0.65095 0.1459083 0.7449663
vn -0.1186561 0.6106172 0.7829863
vn 0.4942016 0.7067335 0.5062535
vn 0.8695644 0.01497747 0.4935924
vn 0.9499992 -0.1386366 0.2797883
vn 0.8515676 -0.1336242 0.506929
vn 0.951729 0.01778981 0.3064237
vn 0.8641918 0.2092855 0.457572
vn 0.65095 0.1459083 0.7449663
vn 0.675925 -0.02197661 0.7366427
vn 0.4942016 0.7067335 0.5062535
vn 0.6013113 0.7446441 0.2897068
vn 0.919373 0.2533256 0.3009644
vn 0.6269429 0.7532659 0.1988292
vn 0.9735919 0.2148895 0.0770797
vn 0.68279 0.7298011 0.03447142
vn 0.9988853 -0.01034947 0.04605461
vn 0.9884962 -0.1501024 0.01856128
vn 0.9443438 0.2065083 -0.2560647
vn 0.6948189 0.6988686 -0.1697335
vn 0.9930869 0.1173687 0.001724281
vn 0.8495144 0.1036982 0.5172736
vn 0.9537476 -0.1667865 -0.2500952
vn 0.9641756 -0.02325552 -0.2642435
vn 0.8372107 0.2368895 -0.4929114
vn 0.5426366 0.7876053 -0.2919306
vn 0.8695344 -0.01456994 -0.4936575
vn 0.8606302 -0.164696 -0.4818618
vn 0.6954243 0.2272911 -0.6817066
vn 0.4569915 0.7503967 -0.47756
vn 0.8512415 0.06249733 -0.5210392
vn 0.8886342 0.4586121 0.002056506
vn 0.7764812 0.4473971 0.4437486
vn 0.7138796 -0.1760696 -0.6777725
vn 0.7210576 -0.02741249 -0.6923327
vn 0.4982576 -0.1868487 -0.8466563
vn 0.4964026 -0.04166203 -0.8670921
vn 0.5002498 -0.005792865 -0.8658618
vn 0.479816 0.2071462 -0.852565
vn 0.3251764 0.7571867 -0.5665056
vn 0.2216341 0.215657 -0.9509839
vn 0.1763894 0.7474669 -0.6404529
vn 0.472396 0.3821485 -0.794232
vn 0.7824776 0.4345553 -0.4459715
vn 0.3890916 0.5680898 -0.725177
vn 0.6945589 0.5906594 -0.4107425
vn 0.4195994 0.4688875 -0.7772264
vn 0.7992359 0.5998149 -0.03800112
vn 0.7000591 0.6091216 0.3726771
vn 0.7634864 0.4662634 -0.4468634
vn 0.5013756 0.1174636 -0.8572193
vn 0.8785366 0.4758417 -0.04181198
vn 0.7775582 0.4915492 0.3921513
vn 0.8620343 0.1250829 -0.4911732
vn 0.9913986 0.1291305 -0.02131229
vn 0.8726773 0.1340303 0.4695427
vn 0.8699151 -0.06435444 0.4889849
vn 0.9976222 -0.06861882 -0.006433324
vn 0.7817607 -0.4439663 0.4378861
vn 0.9062248 -0.4227956 -0.0006958371
vn 0.8674543 -0.06510242 -0.493239
vn 0.505453 -0.06330552 -0.8605288
vn 0.7884932 -0.4204589 -0.4488797
vn 0.4601648 -0.4204994 -0.7819389
vn 0.5956597 -0.3857447 0.7045499
vn 0.6808 0.3760859 0.6285465
vn 0.5123522 0.3639858 0.7778236
vn 0.2381161 -0.3793854 0.8940735
vn 0.3341813 0.3704226 0.866666
vn -0.02403611 -0.3952917 0.9182411
vn 0.02813087 0.3127105 0.9494318
vn -0.1583053 0.3213052 0.93365
vn -0.3265717 -0.3773766 0.8665667
vn -0.4267889 0.2693694 0.8633026
vn 0.01011268 -0.2837648 0.9588406
vn -0.3299834 -0.329585 0.8845817
vn 0.2422612 -0.3004479 0.9225186
vn 0.5969006 -0.3142501 0.7382118
vn 0.01256964 -0.304392 0.9524639
vn -0.3494145 -0.2868605 0.8919756
vn 0.8505409 -0.3242482 0.414057
vn 0.8348039 -0.3737429 0.4042509
vn 0.8706136 -0.2868207 0.3997074
vn 0.6190671 -0.3174343 0.7183254
vn 0.9149462 0.08683667 0.3941229
vn 0.6793556 0.0177961 0.7335934
vn 0.2447006 -0.3115369 0.9181865
vn 0.2739342 0.008564653 0.9617103
vn 0.4812904 0.6512213 0.5867455
vn 0.1476417 0.6628158 0.7340826
vn 0.02090929 0.0273594 0.9994069
vn -0.3552062 0.1504354 0.9226038
vn -0.06171864 0.6532113 0.7546561
vn -0.2407169 0.6592429 0.7123582
vn 0.5956597 -0.3857447 0.7045499
vn 0.8217928 0.3647603 0.4377289
vn 0.6808 0.3760859 0.6285465
vn 0.8348039 -0.3737429 0.4042509
vn 0.9240283 0.2918364 0.2469884
vn 0.9209631 -0.3793408 0.08903733
vn 0.9659366 0.2579246 0.02101165
vn 0.928558 0.304036 -0.2129371
vn 0.8891962 -0.3983673 -0.2250189
vn 0.8891962 -0.3983673 -0.2250189
vn 0.8334261 0.3390702 -0.4363858
vn 0.928558 0.304036 -0.2129371
vn 0.7213717 -0.4070359 -0.5603078
vn 0.7257546 -0.3221394 -0.6078705
vn 0.4258809 -0.3164766 -0.847625
vn 0.4485838 -0.4162198 -0.7909068
vn 0.9058028 -0.3229508 -0.2742699
vn 0.9209631 -0.3793408 0.08903733
vn 0.7203752 -0.3198541 -0.615429
vn 0.9439455 -0.3217686 0.07370094
vn 0.8348039 -0.3737429 0.4042509
vn 0.8505409 -0.3242482 0.414057
vn 0.9114823 -0.317016 -0.2621087
vn 0.9539757 -0.2872915 0.08598828
vn 0.8706136 -0.2868207 0.3997074
vn 0.989023 0.08994956 0.1172288
vn 0.9149462 0.08683667 0.3941229
vn 0.9698963 0.02742527 -0.2419688
vn 0.7610006 0.008776289 -0.6486919
vn 0.4362252 0.04025602 -0.8989366
vn 0.4226897 -0.2976242 -0.8560101
vn 0.3443663 0.6446648 -0.6825095
vn 0.5947856 0.6292036 -0.5003328
vn 0.7316961 0.6471607 -0.2140186
vn 0.6558459 0.7539801 0.03714873
vn 0.5714541 0.7578616 0.3147793
vn 0.6793556 0.0177961 0.7335934
vn 0.4812904 0.6512213 0.5867455
vn -0.8521867 -0.3845648 -0.3548068
vn -0.929831 0.3326856 -0.1572722
vn -0.8672338 0.3342833 -0.3689991
vn -0.9427704 -0.3270448 -0.06500453
vn -0.9402984 0.3337983 0.0664655
vn -0.9095122 0.2819797 0.3054096
vn -0.9581069 -0.2767542 -0.07374431
vn -0.8845077 -0.2684737 -0.3815339
vn -0.9072495 -0.3606354 0.2164266
vn -0.9190382 0.1637072 0.358565
vn -0.9779232 -0.1909754 -0.08482203
vn -0.8933414 -0.1985574 -0.4031328
vn -0.9402378 -0.274904 0.2009495
vn -0.7256184 -0.390268 0.5667176
vn -0.7103532 0.09480436 0.6974314
vn -0.4267889 0.2693694 0.8633026
vn -0.3265717 -0.3773766 0.8665667
vn -0.3299834 -0.329585 0.8845817
vn -0.7783771 -0.3128053 0.5443178
vn -0.3494145 -0.2868605 0.8919756
vn -0.8026091 -0.2361651 0.5477633
vn -0.3552062 0.1504354 0.9226038
vn -0.9582124 -0.2060371 0.1984382
vn -0.8042459 0.212828 0.5548809
vn -0.2407169 0.6592429 0.7123582
vn -0.5909561 0.6895144 0.4187371
vn -0.9599915 0.2014361 0.1945249
vn -0.6507427 0.7459674 0.1416565
vn -0.9793215 0.1792783 -0.09374779
vn -0.7008066 0.7108198 -0.06004504
vn -0.8973129 0.1716091 -0.4066691
vn -0.6737638 0.6863832 -0.2737161
vn -0.7263 0.1442476 -0.6720722
vn -0.5636215 0.6728793 -0.4791287
vn 0.7213717 -0.4070359 -0.5603078
vn 0.496852 0.3152746 -0.808542
vn 0.7002151 0.3340651 -0.6309512
vn 0.4485838 -0.4162198 -0.7909068
vn 0.2848885 0.3708065 -0.883935
vn 0.07515518 -0.4361117 -0.8967488
vn 0.003094601 0.336872 -0.9415454
vn -0.2674934 0.4335448 -0.8605151
vn 0.04496782 -0.3064181 -0.9508343
vn 0.4258809 -0.3164766 -0.847625
vn -0.3441052 -0.4159764 -0.8417572
vn -0.5235471 0.2637204 -0.8101544
vn -0.3774031 -0.296584 -0.8772713
vn -0.6631484 -0.3994222 -0.6330056
vn -0.7162081 0.2680558 -0.644354
vn -0.8672338 0.3342833 -0.3689991
vn -0.8521867 -0.3845648 -0.3548068
vn -0.8845077 -0.2684737 -0.3815339
vn -0.6964111 -0.2780216 -0.6616008
vn -0.8933414 -0.1985574 -0.4031328
vn -0.70579 -0.2105243 -0.6764171
vn -0.8973129 0.1716091 -0.4066691
vn -0.7263 0.1442476 -0.6720722
vn -0.3744633 -0.2421247 -0.8950714
vn 0.04312652 -0.2717129 -0.9614116
vn -0.3902917 0.1010573 -0.9151284
vn -0.5636215 0.6728793 -0.4791287
vn -0.310438 0.6967425 -0.6466669
vn 0.04484808 0.07373945 -0.9962686
vn 0.04237319 0.6864622 -0.7259299
vn 0.4226897 -0.2976242 -0.8560101
vn 0.7257546 -0.3221394 -0.6078705
vn 0.7203752 -0.3198541 -0.615429
vn 0.4362252 0.04025602 -0.8989366
vn 0.3443663 0.6446648 -0.6825095
vn -0.271944 0.852617 0.4461957
vn 0.4942016 0.7067335 0.5062535
vn -0.1186561 0.6106172 0.7829863
vn 0.1930115 0.9754575 0.1059679
vn 0.5123522 0.3639858 0.7778236
vn 0.6013113 0.7446441 0.2897068
vn 0.6808 0.3760859 0.6285465
vn 0.2430238 0.9607863 0.1335257
vn 0.6269429 0.7532659 0.1988292
vn 0.8217928 0.3647603 0.4377289
vn 0.2733696 0.9563022 0.1037071
vn 0.68279 0.7298011 0.03447142
vn 0.9240283 0.2918364 0.2469884
vn 0.3275948 0.9446411 -0.01830055
vn 0.6948189 0.6988686 -0.1697335
vn 0.9659366 0.2579246 0.02101165
vn 0.2938693 0.9540009 -0.05935576
vn 0.5426366 0.7876053 -0.2919306
vn 0.928558 0.304036 -0.2129371
vn 0.215415 0.9701427 -0.1114437
vn 0.4569915 0.7503967 -0.47756
vn 0.8334261 0.3390702 -0.4363858
vn 0.1338093 0.9761049 -0.1712147
vn 0.3251764 0.7571867 -0.5665056
vn 0.7002151 0.3340651 -0.6309512
vn 0.1108067 0.9736143 -0.1994921
vn 0.1763894 0.7474669 -0.6404529
vn 0.496852 0.3152746 -0.808542
vn 0.1005132 0.9806762 -0.1678433
vn 0.04429049 0.7975398 -0.6016383
vn 0.2848885 0.3708065 -0.883935
vn 0.05876671 0.987752 -0.1445427
vn -0.1406109 0.7742645 -0.6170437
vn 0.003094601 0.336872 -0.9415454
vn -0.01086385 0.988005 -0.1540396
vn -0.349854 0.7466527 -0.5657844
vn -0.2674934 0.4335448 -0.8605151
vn -0.1421883 0.9642006 -0.2238298
vn -0.5455997 0.6624362 -0.5133218
vn -0.5235471 0.2637204 -0.8101544
vn -0.2680693 0.9375715 -0.2215822
vn -0.5960053 0.7299905 -0.3345021
vn -0.7162081 0.2680558 -0.644354
vn -0.3155777 0.9330627 -0.1726401
vn -0.7501367 0.6216299 -0.2255465
vn -0.8672338 0.3342833 -0.3689991
vn -0.3339504 0.9395208 -0.07601251
vn -0.7898544 0.4950049 0.3620774
vn -0.929831 0.3326856 -0.1572722
vn -0.3441508 0.9242222 0.1654499
vn -0.663023 0.5867115 0.4649411
vn -0.9402984 0.3337983 0.0664655
vn -0.5460665 0.7945465 0.2655318
vn -0.8521481 0.518843 0.06815933
vn -0.9095122 0.2819797 0.3054096
vn -0.6900654 0.7190477 0.0823411
vn -0.8354168 0.5230042 0.1689539
vn -0.9190382 0.1637072 0.358565
vn -0.4846794 0.8657306 0.1248854
vn -0.4945569 0.6583546 0.5674352
vn -0.7103532 0.09480436 0.6974314
vn -0.2298855 0.9222041 0.3109539
vn -0.1968155 0.7060824 0.6802288
vn -0.4267889 0.2693694 0.8633026
vn -0.0710597 0.9480873 0.3099696
vn 0.01995545 0.7651367 0.6435587
vn -0.1583053 0.3213052 0.93365
vn 0.05242383 0.9572238 0.2845597
vn 0.2049358 0.7578189 0.6194447
vn 0.02813087 0.3127105 0.9494318
vn 0.128072 0.9704588 0.2044682
vn 0.5978161 0.6918266 0.4049593
vn 0.3341813 0.3704226 0.866666
vn 0.4537054 0.8859861 0.09581295
vn 0.5123522 0.3639858 0.7778236
vn -0.696245 0.149721 -0.7020161
vn -0.8539993 -0.2021129 -0.4794116
vn -0.6865066 -0.1853735 -0.703097
vn -0.86174 0.1628554 -0.4805021
vn -0.5455997 0.6624362 -0.5133218
vn -0.5960053 0.7299905 -0.3345021
vn -0.9650002 -0.2316725 -0.1228924
vn -0.9758041 -0.007501848 -0.2185177
vn -0.7501367 0.6216299 -0.2255465
vn -0.8659908 -0.08208956 0.4932759
vn -0.7898544 0.4950049 0.3620774
vn -0.9323696 -0.1189331 0.3413824
vn -0.9750437 -0.1868864 0.1198467
vn -0.9432815 -0.2853409 -0.1697075
vn -0.9034461 0.06434382 0.4238456
vn -0.7957594 0.1564255 0.5850624
vn -0.9924786 -0.1118726 -0.04970669
vn -0.843486 -0.1055754 -0.5266738
vn -0.9542163 -0.1296227 0.2695723
vn -0.960228 0.2705844 -0.06889283
vn -0.8023121 0.254449 -0.5399546
vn -0.8324037 0.5505334 -0.06338039
vn -0.7006673 0.5376399 -0.4690509
vn -0.7159509 0.574355 0.3969014
vn -0.8184057 0.2811514 0.5011646
vn -0.4038619 0.5863355 0.7022153
vn -0.4494579 0.2899309 0.8449425
vn -0.8889699 -0.09745121 0.4474771
vn -0.5564777 -0.07121249 0.8278052
vn -0.8840085 -0.1460394 0.4440737
vn -0.7481259 -0.20083 0.6324357
vn -0.9541948 0.04424851 0.2958957
vn -0.5280061 -0.2539494 0.8103822
vn -0.2615725 -0.2715535 0.9261957
vn -0.9824395 0.1510337 0.1095514
vn -0.663023 0.5867115 0.4649411
vn -0.8521481 0.518843 0.06815933
vn -0.8511368 -0.08022413 0.5187776
vn -0.6108727 -0.152521 0.7768989
vn -0.2874145 -0.1361685 0.9480776
vn -0.9320357 0.08871266 0.3513397
vn -0.8354168 0.5230042 0.1689539
vn -0.6507009 0.129715 0.7481728
vn -0.2765228 0.200436 0.9398726
vn -0.4945569 0.6583546 0.5674352
vn -0.1968155 0.7060824 0.6802288
vn 0.0152879 -0.444002 0.8958954
vn -0.276039 -0.8312209 0.4825706
vn -0.4035226 -0.3603578 0.8410183
vn -0.07596043 -0.8779572 0.4726744
vn 0.3891942 -0.4990209 0.7742777
vn -0.1079017 -0.9876243 0.1138222
vn -0.1011996 -0.9853945 0.1369536
vn -0.4049632 -0.8514717 0.333168
vn -0.05888907 -0.9903186 0.1257028
vn -0.4587169 -0.8868771 0.05502731
vn 0.2190477 -0.8805043 0.4203929
vn 0.4416198 -0.8666477 0.2321501
vn 0.5433497 -0.3448427 0.7654114
vn 0.7817607 -0.4439663 0.4378861
vn 0.9062248 -0.4227956 -0.0006958371
vn -0.0002807785 -0.9951474 0.09839465
vn 0.1140269 -0.9925134 0.04376129
vn 0.5200167 -0.8536581 -0.02916272
vn 0.7884932 -0.4204589 -0.4488797
vn 0.4506297 -0.853666 -0.2611268
vn -0.04985226 -0.9987025 0.01039212
vn 0.1167761 -0.9930702 -0.01322837
vn 0.1109143 -0.9917225 -0.06468788
vn -0.08668898 -0.9952672 0.04391358
vn -0.02288972 -0.9997182 0.006283348
vn 0.06336878 -0.9922051 -0.1073003
vn 0.2613353 -0.8606299 -0.4370583
vn -0.05539937 -0.9955867 0.07574978
vn -0.0127428 -0.9998438 0.01224838
vn -0.04115833 -0.9982908 0.04148903
vn 0.003802778 -0.9948189 -0.101592
vn 0.01526849 -0.8544856 -0.5192507
vn -0.01173995 -0.9996638 0.02312096
vn -0.0180688 -0.9974043 0.06970015
vn -0.04201575 -0.9962418 -0.0757419
vn -0.2329482 -0.8535294 -0.4660717
vn -0.00961116 -0.9990045 0.04356015
vn -0.07427561 -0.9947762 0.07002466
vn -0.07305409 -0.9973159 -0.00489853
vn -0.4108917 -0.8756359 -0.2538303
vn -0.8951483 -0.445437 0.01718562
vn -0.7758196 -0.4324859 -0.4594126
vn -0.7898544 0.4950049 0.3620774
vn -0.663023 0.5867115 0.4649411
vn -0.7957594 0.1564255 0.5850624
vn -0.8659908 -0.08208956 0.4932759
vn 0.5978161 0.6918266 0.4049593
vn 0.4537054 0.8859861 0.09581295
vn 0.5123522 0.3639858 0.7778236
vn 0.1316466 0.7404974 0.6590393
vn 0.2738077 0.253502 0.9277748
vn 0.7599807 0.2297627 0.607979
vn 0.4943385 -0.01010049 0.8692108
vn -0.06608004 0.08390608 0.9942802
vn 0.4943385 -0.01010049 0.8692108
vn 0.2738077 0.253502 0.9277748
vn 0.1316466 0.7404974 0.6590393
vn -0.1186561 0.6106172 0.7829863
vn 0.5123522 0.3639858 0.7778236
vn -0.271944 0.852617 0.4461957
vn 0.6116856 0.5386556 0.5793884
vn 0.7775582 0.4915492 0.3921513
vn 0.8726773 0.1340303 0.4695427
vn 0.5794706 0.06987025 0.8119926
vn 0.4023958 0.5640585 0.7210518
vn 0.4869985 -0.03775544 0.8725864
vn 0.8699151 -0.06435444 0.4889849
vn 0.5433497 -0.3448427 0.7654114
vn 0.7817607 -0.4439663 0.4378861
vn 0.3891942 -0.4990209 0.7742777
vn 0.2749302 -0.05571672 0.9598485
vn 0.0152879 -0.444002 0.8958954
vn 0.4646478 0.01864682 0.8852992
vn -0.01090196 0.557264 0.8302639
vn 0.2574736 -0.2004381 0.9452682
vn 0.08440262 -0.04337577 0.9954872
vn -0.4035226 -0.3603578 0.8410183
vn -0.4097189 -0.03873813 0.9113889
vn 0.06863014 -0.2243708 0.9720842
vn -0.4387288 0.1646686 0.8834032
vn 0.02582606 -0.05180155 0.9983234
vn -0.4315543 0.5353601 0.7260513
vn 0.7000591 0.6091216 0.3726771
vn 0.7775582 0.4915492 0.3921513
vn 0.6116856 0.5386556 0.5793884
vn 0.3730915 0.6260905 0.6846995
vn 0.4023958 0.5640585 0.7210518
vn -0.01835056 0.6102989 0.7919587
vn -0.01090196 0.557264 0.8302639
vn -0.4038619 0.5863355 0.7022153
vn -0.4315543 0.5353601 0.7260513
vn -0.7159509 0.574355 0.3969014
vn -0.7792685 0.4596607 0.4259726
vn -0.8324037 0.5505334 -0.06338039
vn -0.9042188 0.4250539 -0.0414429
vn -0.7006673 0.5376399 -0.4690509
vn -0.7574161 0.4324684 -0.4891747
vn -0.4165984 0.5433757 -0.7288269
vn -0.4384131 0.4284834 -0.7900608
vn -0.03193475 0.5502278 -0.8344037
vn -0.02691272 0.434058 -0.9004829
vn 0.3890916 0.5680898 -0.725177
vn 0.4195994 0.4688875 -0.7772264
vn -0.2397415 0.9346755 0.2624991
vn -0.5909561 0.6895144 0.4187371
vn -0.6507427 0.7459674 0.1416565
vn -0.3048719 0.9506449 0.05768441
vn -0.7008066 0.7108198 -0.06004504
vn -0.2407169 0.6592429 0.7123582
vn -0.6737638 0.6863832 -0.2737161
vn -0.1519555 0.9698617 0.1904675
vn -0.2533595 0.9659427 -0.05256898
vn -0.5636215 0.6728793 -0.4791287
vn -0.310438 0.6967425 -0.6466669
vn -0.05265391 0.9895906 -0.1339327
vn 0.04237319 0.6864622 -0.7259299
vn 0.3443663 0.6446648 -0.6825095
vn -0.07698838 0.996978 0.01036865
vn 0.08070415 0.9876057 -0.1346172
vn 0.5947856 0.6292036 -0.5003328
vn 0.7316961 0.6471607 -0.2140186
vn -0.1803386 0.9816042 0.06269865
vn -0.02228923 0.9997436 0.003991019
vn 0.1011982 0.9933385 -0.05511408
vn 0.6558459 0.7539801 0.03714873
vn 0.5714541 0.7578616 0.3147793
vn -0.02544631 0.9995198 0.01768516
vn 0.05065719 0.9947592 0.08881454
vn 0.4812904 0.6512213 0.5867455
vn 0.1476417 0.6628158 0.7340826
vn -0.02732181 0.9826248 0.183581
vn -0.06171864 0.6532113 0.7546561
vt 0.3545158 0.37565
vt 0.3647719 0.3315176
vt 0.3545158 0.3285619
vt 0.08479348 0.6793538
vt 0.120487 0.6031768
vt 0.1100908 0.5951275
vt 0.09909959 0.5880928
vt 0.1117379 0.5666078
vt 0.09884328 0.5589586
vt 0.1124098 0.543557
vt 0.09973196 0.5355673
vt 0.07116596 0.6696913
vt 0.08404039 0.583675
vt 0.08263481 0.5543573
vt 0.07895213 0.7374832
vt 0.1043945 0.7451501
vt 0.08650468 0.786524
vt 0.1255339 0.7944079
vt 0.04039468 0.7858772
vt 0.05078129 0.7369608
vt 4.459912E-09 0.7944079
vt 0.0256122 0.7439539
vt 0.05378845 0.6645687
vt 0.03764771 0.6646832
vt 0.06883486 0.5795564
vt 0.03798025 0.5811605
vt 0.05343302 0.5800264
vt 0.06640173 0.5506861
vt 0.0265539 0.5853635
vt 0.0152551 0.5900598
vt 0.01994543 0.5582792
vt 0.008603356 0.5643264
vt 0.03308725 0.5534077
vt 0.04999143 0.5515584
vt 0.08303411 0.5314486
vt 0.09866347 0.5310009
vt 0.08251069 0.5273424
vt 0.06711034 0.5269328
vt 0.06730168 0.5225917
vt 0.0503426 0.5287561
vt 0.03269201 0.5311016
vt 0.05113955 0.5248612
vt 0.03389834 0.5271213
vt -6.676227E-09 0.9377314
vt 0.01343739 0.9918768
vt 0.03870406 0.9984463
vt 0.02472516 0.9387957
vt -8.15498E-09 0.8745515
vt 0.0728903 0.9402591
vt 0.08811604 0.9998903
vt 0.02717593 0.8694015
vt 0.01102565 0.8195582
vt 0.04272437 0.8117017
vt 0.09289435 0.813848
vt 0.07637695 0.8705887
vt 0.1656278 0.8243156
vt 0.1463794 0.9403569
vt 0.160818 0.9952086
vt 0.1499773 0.8761754
vt 0.1634981 0.9366632
vt 0.1754433 0.9849328
vt 0.1656903 0.8811048
vt 0.1804933 0.8341292
vt 0.2028197 0.8057462
vt 0.1918527 0.794408
vt 0.8771788 0.8163801
vt 0.8209656 0.8144223
vt 0.8149154 0.8360885
vt 0.8750671 0.843459
vt 0.9387392 0.8185711
vt 0.876297 0.9006513
vt 0.8161438 0.9028608
vt 0.9424988 0.8493465
vt 0.9866633 0.8210614
vt 0.9936279 0.8517421
vt 0.9962574 0.9077596
vt 0.9444305 0.9056337
vt 0.9936185 0.9878299
vt 0.9454377 0.9846384
vt 0.8820061 0.9788731
vt 0.9412476 0.9989505
vt 0.8262227 0.9829673
vt 0.8856427 0.9972515
vt 0.835817 0.9989505
vt 0.6055604 0.3907205
vt 0.5946991 0.3927905
vt 0.6302524 0.4851575
vt 0.6162049 0.3872842
vt 0.6458504 0.4788872
vt 0.6049045 0.5577322
vt 0.615867 0.3506282
vt 0.6037757 0.3543225
vt 0.6306704 0.5558968
vt 0.582283 0.6203613
vt 0.6203584 0.6204411
vt 0.6605184 0.5550724
vt 0.6676583 0.6197819
vt 0.6864715 0.5554879
vt 0.7092023 0.6204411
vt 0.6782778 0.4648886
vt 0.663429 0.4714683
vt 0.6761939 0.3778107
vt 0.6607038 0.3782253
vt 0.6814217 0.3466178
vt 0.6453095 0.379733
vt 0.6650347 0.3474056
vt 0.6813955 0.3205412
vt 0.6306337 0.3835697
vt 0.6646656 0.3214317
vt 0.6800959 0.3146829
vt 0.6638742 0.3157057
vt 0.6484259 0.3486708
vt 0.6331656 0.350421
vt 0.6488293 0.3222652
vt 0.6489006 0.3163641
vt 0.6285988 0.3256309
vt 0.6411231 0.3232907
vt 0.6412591 0.3173072
vt 0.616879 0.3263696
vt 0.6288807 0.3197007
vt 0.6176493 0.3206669
vt 0.1280451 0.03424519
vt 0.1159241 0.07282557
vt 0.1274179 0.07023687
vt 0.1158295 0.03668983
vt 0.1296256 0.01036292
vt 0.1433849 0.005872509
vt 0.1400265 0.02993009
vt 0.1416073 0
vt 0.1277139 0.004133198
vt 0.1153856 0.01156879
vt 0.1139802 0.00497454
vt 0.09974746 0.0152007
vt 0.09899929 0.008042725
vt 0.09971716 0.04098853
vt 0.1005693 0.0741937
vt 0.08290132 0.01555979
vt 0.0828129 0.009313251
vt 0.09306882 0.1618959
vt 0.1092795 0.1603395
vt 0.08515533 0.07516414
vt 0.08342013 0.03897041
vt 0.06634487 0.01218164
vt 0.06697956 0.005648113
vt 0.06680975 0.03737199
vt 0.06956492 0.07278277
vt 0.04903533 0.012034
vt 0.05035006 0.005060749
vt 0.07541239 0.1571241
vt 0.1021682 0.2376989
vt 0.1282028 0.2366094
vt 0.05371073 0.06963898
vt 0.04978557 0.03832062
vt 0.0421554 0.06603095
vt 0.03673813 0.03661012
vt 0.06068039 0.1497913
vt 0.03618551 0.01063628
vt 0.03818414 0.003903362
vt 0.0249653 0.006717432
vt 0.02720284 0.0001586343
vt 0.04795636 0.2337346
vt 0.07288493 0.2361768
vt 0.02839294 0.3027336
vt 0.06522521 0.3104188
vt 0.004122079 0.3438984
vt 0.1088807 0.3103717
vt 0.1468397 0.3026529
vt 0.05642912 0.3517513
vt 0 0.3833574
vt 0.1165507 0.3514247
vt 0.1680387 0.3406409
vt 0.05593132 0.3898452
vt 0.1199035 0.3892385
vt 0.1734333 0.3787036
vt 0.1733653 0.437726
vt 0.1205571 0.4457621
vt 0.1663288 0.5197648
vt 0.1176823 0.5225918
vt 0.05644723 0.445761
vt 0.0008684993 0.4396062
vt 0.05862841 0.5225724
vt 0.007595362 0.5170506
vt 0.4705365 0.5693374
vt 0.5090411 0.6291593
vt 0.5188555 0.6268186
vt 0.5126126 0.5640633
vt 0.5287079 0.6233053
vt 0.5331457 0.5610048
vt 0.538659 0.6199657
vt 0.5483837 0.6176708
vt 0.5748772 0.5473003
vt 0.5563599 0.6161391
vt 0.5212912 0.448658
vt 0.5727389 0.4341318
vt 0.4961766 0.4524729
vt 0.4449788 0.4606504
vt 0.5140952 0.3803981
vt 0.582283 0.3616676
vt 0.423513 0.4644216
vt 0.4528064 0.571305
vt 0.3856907 0.4026697
vt 0.4133517 0.3974394
vt 0.3773731 0.3631048
vt 0.402796 0.3612664
vt 0.4808279 0.3855356
vt 0.4682504 0.3499461
vt 0.4013864 0.3203976
vt 0.459294 0.314683
vt 0.5026984 0.3475698
vt 0.5772721 0.3336369
vt 0.4920077 0.3167046
vt 0.5620817 0.314683
vt 0.3091239 0.3285619
vt 0.3509753 0.3652851
vt 0.3545158 0.3554364
vt 0.2994926 0.3484856
vt 0.348849 0.3755782
vt 0.2994926 0.392613
vt 0.3503433 0.3862873
vt 0.3531451 0.3965129
vt 0.3070674 0.4134689
vt 0.6836187 0.2524908
vt 0.6672164 0.3005164
vt 0.6773285 0.3006146
vt 0.6407934 0.2532565
vt 0.6387264 0.141025
vt 0.6175757 0.1377842
vt 0.6233349 0.2527192
vt 0.6907333 0.1449135
vt 0.7057143 0.2501373
vt 0.6260018 0.07779408
vt 0.7175518 0.1446979
vt 0.7452713 0.2476926
vt 0.7658439 0.1430911
vt 0.694455 0.08583865
vt 0.7296146 0.08672573
vt 0.7933095 0.08520079
vt 0.7341124 0.04751216
vt 0.7999641 0.04630652
vt 0.6988922 0.05021799
vt 0.6281934 0.04220553
vt 0.5993039 0.03582486
vt 0.5981748 0.07195869
vt 0.6117493 4.605361E-08
vt 0.6387188 0.005605228
vt 0.7032144 0.007253453
vt 0.7349616 0.0006073368
vt 0.7966433 4.331787E-08
vt 0.8242055 0.04759808
vt 0.8204253 0.005781817
vt 0.5122556 0.2743188
vt 0.4762162 0.3124651
vt 0.4837174 0.314683
vt 0.4803362 0.2567458
vt 0.4663554 0.3118435
vt 0.4553356 0.3115842
vt 0.5005465 0.1418495
vt 0.5404795 0.1556932
vt 0.4607345 0.2538979
vt 0.4464125 0.3091135
vt 0.5185286 0.07222765
vt 0.5718195 0.08612864
vt 0.4766071 0.1379463
vt 0.4141677 0.2377665
vt 0.4361666 0.3038205
vt 0.4269826 0.3042768
vt 0.3957056 0.2341587
vt 0.3962307 0.1208068
vt 0.4190899 0.1228801
vt 0.3799719 0.04763289
vt 0.4103312 0.04912828
vt 0.3773731 0.01919558
vt 0.4867591 0.06679666
vt 0.4087469 0.02069076
vt 0.3839769 5.009033E-08
vt 0.4126675 0.002881441
vt 0.4889349 0.03105528
vt 0.4899687 4.277916E-08
vt 0.5217713 0.03682499
vt 0.5205245 0.005509408
vt 0.5773116 0.04951781
vt 0.5721374 0.01621828
vt 0.5981748 0.05431377
vt 0.5914695 0.02029789
vt 0.3006214 0.2808048
vt 0.2428658 0.3235716
vt 0.2490786 0.328562
vt 0.2876287 0.2728571
vt 0.2348023 0.3185851
vt 0.2502488 0.2619884
vt 0.2247403 0.3143248
vt 0.2149018 0.312046
vt 0.2728153 0.1488448
vt 0.3177758 0.1663704
vt 0.2291317 0.2575087
vt 0.2047857 0.3091837
vt 0.2469738 0.143363
vt 0.1892384 0.2587118
vt 0.1946656 0.3089144
vt 0.18615 0.311706
vt 0.1734333 0.2620128
vt 0.1786207 0.1499215
vt 0.1981555 0.1448353
vt 0.1734333 0.07522883
vt 0.1995105 0.06793591
vt 0.1793386 0.04263609
vt 0.2062915 0.03464221
vt 0.2641706 0.06608542
vt 0.2983467 0.07338589
vt 0.272482 0.03094165
vt 0.2203263 0.01155404
vt 0.2785893 8.425325E-08
vt 0.3079709 0.0384407
vt 0.3114367 0.007729738
vt 0.3572279 0.09908743
vt 0.3332579 0.1783517
vt 0.377373 0.1162775
vt 0.3695896 0.06687739
vt 0.3730822 0.03948793
vt 0.2316031 0.6519696
vt 0.2439715 0.6392475
vt 0.2327295 0.6409085
vt 0.242537 0.6513613
vt 0.2304767 0.6630305
vt 0.259078 0.6490884
vt 0.2411024 0.6634751
vt 0.254822 0.6585025
vt 0.2746627 0.6582828
vt 0.250566 0.6679165
vt 0.2670985 0.6659168
vt 0.2855639 0.6706094
vt 0.2595343 0.6735509
vt 0.2758623 0.6763566
vt 0.2956026 0.6843294
vt 0.2661608 0.6821039
vt 0.2835213 0.687814
vt 0.2944538 0.7010438
vt 0.27144 0.6912987
vt 0.2836737 0.7012666
vt 0.2956026 0.7181023
vt 0.2728937 0.7014894
vt 0.2842184 0.7151099
vt 0.2876223 0.7335384
vt 0.2728341 0.7121174
vt 0.2782724 0.7278212
vt 0.2794577 0.7475433
vt 0.2689225 0.7221039
vt 0.2713067 0.7399326
vt 0.2648044 0.7547527
vt 0.2631558 0.7323219
vt 0.2595843 0.7469353
vt 0.2515562 0.7633355
vt 0.2543643 0.739118
vt 0.2483724 0.7533142
vt 0.2353014 0.7654663
vt 0.2451886 0.7432929
vt 0.2349283 0.7545501
vt 0.2181262 0.7682922
vt 0.2345553 0.7436339
vt 0.2209757 0.7556362
vt 0.203848 0.7585583
vt 0.2238253 0.7429801
vt 0.2088928 0.7486346
vt 0.1882488 0.7516329
vt 0.2139376 0.7387109
vt 0.1965889 0.7422688
vt 0.1734333 0.7357398
vt 0.2049289 0.7329047
vt 0.1859526 0.730088
vt 0.1888445 0.7137028
vt 0.1984718 0.7244362
vt 0.1909418 0.7141641
vt 0.1874251 0.7066182
vt 0.1930391 0.7146254
vt 0.1898603 0.7059529
vt 0.1743662 0.6934765
vt 0.1922956 0.7052877
vt 0.1838295 0.6935264
vt 0.177429 0.674116
vt 0.1932927 0.6935763
vt 0.1872375 0.6788063
vt 0.1849981 0.6591484
vt 0.1970461 0.6834967
vt 0.1938048 0.6668838
vt 0.1993293 0.6509274
vt 0.2026115 0.6746193
vt 0.2051571 0.6597248
vt 0.2124527 0.6429925
vt 0.210985 0.6685223
vt 0.2163029 0.6534383
vt 0.2202597 0.6423702
vt 0.2201531 0.6638842
vt 0.2253682 0.6527003
vt 0.2304767 0.6630305
vt 0.2922778 0.3388631
vt 0.2804791 0.3622941
vt 0.2914248 0.363765
vt 0.279723 0.3365671
vt 0.2901405 0.3332748
vt 0.2774026 0.3309007
vt 0.2677831 0.3613491
vt 0.2684031 0.3359581
vt 0.2669464 0.3303412
vt 0.2474067 0.3355932
vt 0.2478958 0.330516
vt 0.2452535 0.3582177
vt 0.2490901 0.3887433
vt 0.2643386 0.3892306
vt 0.2257677 0.3546949
vt 0.2293053 0.333917
vt 0.2460371 0.4714761
vt 0.2616741 0.4743171
vt 0.2344219 0.3889072
vt 0.2509063 0.5684145
vt 0.2741941 0.570209
vt 0.2632557 0.6356868
vt 0.2994926 0.6392475
vt 0.2169893 0.6363493
vt 0.2211296 0.5684134
vt 0.1734333 0.6355766
vt 0.192637 0.5704215
vt 0.2272055 0.473152
vt 0.210219 0.4788747
vt 0.2191949 0.3898572
vt 0.2035612 0.3905422
vt 0.2187175 0.3547373
vt 0.1911118 0.391332
vt 0.1796209 0.3941084
vt 0.2220818 0.3336078
vt 0.230207 0.3298358
vt 0.2229968 0.3294613
vt 0.1997815 0.3578005
vt 0.1873997 0.3622709
vt 0.1734333 0.3630418
vt 0.2050962 0.3336897
vt 0.2071267 0.328562
vt 0.1872701 0.3359189
vt 0.1738438 0.3369063
vt 0.188923 0.329865
vt 0.1760969 0.3309475
vt 0.3744549 0.7182986
vt 0.4062581 0.6714293
vt 0.3962913 0.6620269
vt 0.3827955 0.7204387
vt 0.3750766 0.7794365
vt 0.4093711 0.7251757
vt 0.4263633 0.6903884
vt 0.4551572 0.6414163
vt 0.4625393 0.6695902
vt 0.5108848 0.6442206
vt 0.3823371 0.7759628
vt 0.4077742 0.8215421
vt 0.3744549 0.7911388
vt 0.3982469 0.8302431
vt 0.445454 0.8586952
vt 0.4047719 0.7688412
vt 0.4231455 0.8066976
vt 0.4520465 0.8482826
vt 0.5044015 0.8601218
vt 0.5031142 0.8491926
vt 0.4489667 0.7636322
vt 0.459763 0.8200004
vt 0.4985646 0.8228681
vt 0.446009 0.7320428
vt 0.4706443 0.7810989
vt 0.5338577 0.8034217
vt 0.5484257 0.8226021
vt 0.4634095 0.7103297
vt 0.4986848 0.7758844
vt 0.4822871 0.737923
vt 0.5527665 0.7666937
vt 0.5784972 0.7767908
vt 0.5170712 0.7524264
vt 0.4926834 0.7036192
vt 0.5554212 0.7258365
vt 0.582283 0.7213184
vt 0.5144401 0.7230115
vt 0.5026389 0.6710134
vt 0.5366376 0.690046
vt 0.5579695 0.6720269
vt 0.5145389 0.6291593
vt 0.5637715 0.6614381
vt 0.3699449 0.3502493
vt 0.3699449 0.3285619
vt 0.3661292 0.3307649
vt 0.3647719 0.3488982
vt 0.3732292 0.3897635
vt 0.3638725 0.3827067
vt 0.3545158 0.37565
vt 0.3623279 0.3882459
vt 0.3620239 0.3961844
vt 0.3715309 0.3957644
vt 0.3545158 0.417933
vt 0.3018478 0.4351664
vt 0.3151133 0.4557491
vt 0.3074445 0.4340141
vt 0.3071347 0.4260766
vt 0.2994926 0.4296135
vt 0.3151133 0.4134689
vt 0.307303 0.4215412
vt 0.8501471 0.6226433
vt 0.8243952 0.6278067
vt 0.8149155 0.6643491
vt 0.8623811 0.6505253
vt 0.8791206 0.6204411
vt 0.8596557 0.7156235
vt 0.8160722 0.7245076
vt 0.8622202 0.8057259
vt 0.823938 0.8097285
vt 0.8739491 0.8144225
vt 0.8719472 0.7255421
vt 0.9350263 0.8103092
vt 0.8731453 0.6432542
vt 0.9413753 0.622068
vt 0.8740882 0.6556119
vt 0.9367808 0.725383
vt 0.9919742 0.7950909
vt 1 0.7147288
vt 0.9378158 0.6562392
vt 1 0.6476508
vt 0.9404289 0.6437218
vt 0.9959927 0.6260633
vt 0.8928289 0.3618899
vt 0.9158348 0.3429878
vt 0.8901917 0.3296737
vt 0.8537976 0.338279
vt 0.8609728 0.3146829
vt 0.8065192 0.338727
vt 0.798875 0.3159042
vt 0.7658878 0.3624953
vt 0.7452977 0.3461996
vt 0.7354965 0.4049276
vt 0.7094376 0.4011955
vt 0.7381012 0.4511428
vt 0.7092023 0.4628252
vt 0.767189 0.4886106
vt 0.7437783 0.5120823
vt 0.8078659 0.5097464
vt 0.7989049 0.5407254
vt 0.8539355 0.5062043
vt 0.8619205 0.5375175
vt 0.8926497 0.4800287
vt 0.9158349 0.50675
vt 0.6484779 0.6583507
vt 0.6298038 0.6362706
vt 0.5916108 0.7007851
vt 0.6385473 0.7254797
vt 0.582283 0.7313651
vt 0.6591613 0.620441
vt 0.5854679 0.794693
vt 0.6846877 0.6952692
vt 0.6413084 0.7794228
vt 0.5972032 0.8247364
vt 0.6363396 0.8726944
vt 0.6829777 0.8158078
vt 0.6673188 0.8854765
vt 0.7398968 0.8854765
vt 0.6771314 0.7780693
vt 0.7247773 0.8167337
vt 0.7713932 0.8708191
vt 0.8114509 0.8185773
vt 0.6746456 0.7281954
vt 0.726212 0.7823823
vt 0.758032 0.7845056
vt 0.8149155 0.784921
vt 0.8137781 0.7158263
vt 0.7281873 0.7348261
vt 0.7605305 0.7368323
vt 0.8061703 0.6857655
vt 0.7617344 0.6445696
vt 0.7292915 0.7082804
vt 0.7300873 0.6352065
usemtl MV_RockDesert_Hoodoo
f 1/1/1 3/3/3 2/2/2
f 4/4/4 6/6/6 5/5/5
f 6/6/6 4/4/4 7/7/7
f 8/8/8 6/6/6 7/7/7
f 8/8/8 7/7/7 9/9/9
f 10/10/10 8/8/8 9/9/9
f 10/10/10 9/9/9 11/11/11
f 7/7/7 4/4/4 12/12/12
f 9/9/9 7/7/7 13/13/13
f 12/12/12 13/13/13 7/7/7
f 11/11/11 9/9/9 14/14/14
f 9/9/9 13/13/13 14/14/14
f 4/4/4 15/15/15 12/12/12
f 4/4/4 16/16/16 15/15/15
f 16/16/16 17/17/17 15/15/15
f 16/16/16 18/18/18 17/17/17
f 15/15/15 17/17/17 19/19/19
f 15/15/15 19/19/19 20/20/20
f 12/12/12 15/15/15 20/20/20
f 20/20/20 19/19/19 21/21/21
f 20/20/20 21/21/21 22/22/22
f 23/23/23 20/20/20 22/22/22
f 12/12/12 20/20/20 23/23/23
f 23/23/23 22/22/22 24/24/24
f 13/13/13 12/12/12 25/25/25
f 14/14/14 13/13/13 25/25/25
f 25/25/25 12/12/12 23/23/23
f 26/26/26 23/23/23 24/24/24
f 23/23/23 27/27/27 25/25/25
f 27/27/27 23/23/23 26/26/26
f 14/14/14 25/25/25 28/28/28
f 28/28/28 25/25/25 27/27/27
f 24/24/24 29/29/29 26/26/26
f 29/29/29 24/24/24 30/30/30
f 31/31/31 29/29/29 30/30/30
f 31/31/31 30/30/30 32/32/32
f 33/33/33 29/29/29 31/31/31
f 33/33/33 26/26/26 29/29/29
f 34/34/34 27/27/27 26/26/26
f 34/34/34 26/26/26 33/33/33
f 28/28/28 27/27/27 34/34/34
f 35/35/35 14/14/14 28/28/28
f 11/11/11 14/14/14 35/35/35
f 36/36/36 11/11/11 35/35/35
f 36/36/36 35/35/35 37/37/37
f 35/35/35 28/28/28 38/38/38
f 37/37/37 35/35/35 38/38/38
f 38/38/38 28/28/28 34/34/34
f 37/37/37 38/38/38 39/39/39
f 40/40/40 34/34/34 33/33/33
f 38/38/38 34/34/34 40/40/40
f 39/39/39 38/38/38 40/40/40
f 40/40/40 33/33/33 41/41/41
f 39/39/39 40/40/40 42/42/42
f 42/42/42 40/40/40 41/41/41
f 42/42/42 41/41/41 43/43/43
f 44/44/44 46/46/46 45/45/45
f 44/44/44 47/47/47 46/46/46
f 48/48/48 47/47/47 44/44/44
f 46/46/46 47/47/47 49/49/49
f 46/46/46 49/49/49 50/50/50
f 48/48/48 51/51/51 47/47/47
f 52/52/52 51/51/51 48/48/48
f 52/52/52 53/53/53 51/51/51
f 51/51/51 53/53/53 54/54/54
f 47/47/47 51/51/51 55/55/55
f 51/51/51 54/54/54 55/55/55
f 47/47/47 55/55/55 49/49/49
f 55/55/55 54/54/54 56/56/56
f 50/50/50 49/49/49 57/57/57
f 50/50/50 57/57/57 58/58/58
f 49/49/49 55/55/55 59/59/59
f 55/55/55 56/56/56 59/59/59
f 49/49/49 59/59/59 57/57/57
f 58/58/58 57/57/57 60/60/60
f 58/58/58 60/60/60 61/61/61
f 57/57/57 62/62/62 60/60/60
f 57/57/57 59/59/59 62/62/62
f 59/59/59 63/63/63 62/62/62
f 59/59/59 56/56/56 63/63/63
f 56/56/56 64/64/64 63/63/63
f 56/56/56 65/65/65 64/64/64
f 66/66/66 68/68/68 67/67/67
f 66/66/66 69/69/69 68/68/68
f 70/70/70 69/69/69 66/66/66
f 68/68/68 69/69/69 71/71/71
f 68/68/68 71/71/71 72/72/72
f 70/70/70 73/73/73 69/69/69
f 74/74/74 73/73/73 70/70/70
f 74/74/74 75/75/75 73/73/73
f 73/73/73 75/75/75 76/76/76
f 69/69/69 73/73/73 77/77/77
f 73/73/73 76/76/76 77/77/77
f 69/69/69 77/77/77 71/71/71
f 77/77/77 76/76/76 78/78/78
f 77/77/77 78/78/78 79/79/79
f 71/71/71 77/77/77 79/79/79
f 72/72/72 71/71/71 80/80/80
f 71/71/71 79/79/79 80/80/80
f 80/80/80 79/79/79 81/81/81
f 72/72/72 80/80/80 82/82/82
f 80/80/80 81/81/81 83/83/83
f 82/82/82 80/80/80 83/83/83
f 82/82/82 83/83/83 84/84/84
f 85/85/85 87/87/87 86/86/86
f 88/88/88 87/87/87 85/85/85
f 87/87/87 88/88/88 89/89/89
f 89/89/89 90/90/90 87/87/87
f 91/91/91 88/88/88 85/85/85
f 91/91/91 85/85/85 92/92/92
f 89/89/89 93/93/93 90/90/90
f 93/93/93 94/94/94 90/90/90
f 93/93/93 95/95/95 94/94/94
f 96/96/96 95/95/95 93/93/93
f 96/96/96 97/97/97 95/95/95
f 98/98/98 97/97/97 96/96/96
f 98/98/98 99/99/99 97/97/97
f 100/100/100 98/98/98 96/96/96
f 101/101/101 96/96/96 93/93/93
f 100/100/100 96/96/96 101/101/101
f 101/101/101 93/93/93 89/89/89
f 102/102/102 100/100/100 101/101/101
f 101/101/101 103/103/103 102/102/102
f 104/104/104 102/102/102 103/103/103
f 89/89/89 105/105/105 101/101/101
f 103/103/103 101/101/101 105/105/105
f 104/104/104 103/103/103 106/106/106
f 106/106/106 103/103/103 105/105/105
f 107/107/107 104/104/104 106/106/106
f 105/105/105 89/89/89 108/108/108
f 108/108/108 89/89/89 88/88/88
f 107/107/107 106/106/106 109/109/109
f 110/110/110 107/107/107 109/109/109
f 110/110/110 109/109/109 111/111/111
f 106/106/106 105/105/105 112/112/112
f 112/112/112 105/105/105 108/108/108
f 109/109/109 106/106/106 112/112/112
f 113/113/113 108/108/108 88/88/88
f 112/112/112 108/108/108 113/113/113
f 113/113/113 88/88/88 91/91/91
f 111/111/111 109/109/109 114/114/114
f 109/109/109 112/112/112 114/114/114
f 114/114/114 112/112/112 113/113/113
f 111/111/111 114/114/114 115/115/115
f 116/116/116 113/113/113 91/91/91
f 114/114/114 113/113/113 117/117/117
f 115/115/115 114/114/114 117/117/117
f 115/115/115 117/117/117 118/118/118
f 116/116/116 91/91/91 119/119/119
f 120/120/120 116/116/116 119/119/119
f 120/120/120 119/119/119 121/121/121
f 122/122/122 124/124/124 123/123/123
f 122/122/122 123/123/123 125/125/125
f 126/126/126 122/122/122 125/125/125
f 127/127/127 122/122/122 126/126/126
f 127/127/127 128/128/128 122/122/122
f 129/129/129 127/127/127 126/126/126
f 129/129/129 126/126/126 130/130/130
f 130/130/130 126/126/126 131/131/131
f 126/126/126 125/125/125 131/131/131
f 130/130/130 131/131/131 132/132/132
f 132/132/132 131/131/131 133/133/133
f 132/132/132 133/133/133 134/134/134
f 131/131/131 125/125/125 135/135/135
f 131/131/131 135/135/135 133/133/133
f 125/125/125 123/123/123 136/136/136
f 125/125/125 136/136/136 135/135/135
f 134/134/134 133/133/133 137/137/137
f 134/134/134 137/137/137 138/138/138
f 139/139/139 136/136/136 123/123/123
f 123/123/123 140/140/140 139/139/139
f 135/135/135 136/136/136 141/141/141
f 136/136/136 139/139/139 141/141/141
f 133/133/133 135/135/135 142/142/142
f 133/133/133 142/142/142 137/137/137
f 135/135/135 141/141/141 142/142/142
f 138/138/138 137/137/137 143/143/143
f 138/138/138 143/143/143 144/144/144
f 137/137/137 142/142/142 145/145/145
f 137/137/137 145/145/145 143/143/143
f 142/142/142 141/141/141 146/146/146
f 142/142/142 146/146/146 145/145/145
f 144/144/144 143/143/143 147/147/147
f 144/144/144 147/147/147 148/148/148
f 149/149/149 146/146/146 141/141/141
f 141/141/141 139/139/139 149/149/149
f 140/140/140 150/150/150 139/139/139
f 140/140/140 151/151/151 150/150/150
f 145/145/145 146/146/146 152/152/152
f 146/146/146 149/149/149 152/152/152
f 143/143/143 145/145/145 153/153/153
f 145/145/145 152/152/152 153/153/153
f 143/143/143 153/153/153 147/147/147
f 153/153/153 152/152/152 154/154/154
f 153/153/153 154/154/154 155/155/155
f 147/147/147 153/153/153 155/155/155
f 152/152/152 149/149/149 156/156/156
f 147/147/147 155/155/155 157/157/157
f 148/148/148 147/147/147 157/157/157
f 148/148/148 157/157/157 158/158/158
f 158/158/158 157/157/157 159/159/159
f 158/158/158 159/159/159 160/160/160
f 149/149/149 161/161/161 156/156/156
f 149/149/149 162/162/162 161/161/161
f 139/139/139 162/162/162 149/149/149
f 162/162/162 163/163/163 161/161/161
f 139/139/139 150/150/150 162/162/162
f 162/162/162 164/164/164 163/163/163
f 150/150/150 164/164/164 162/162/162
f 164/164/164 165/165/165 163/163/163
f 150/150/150 166/166/166 164/164/164
f 151/151/151 166/166/166 150/150/150
f 151/151/151 167/167/167 166/166/166
f 164/164/164 168/168/168 165/165/165
f 166/166/166 168/168/168 164/164/164
f 168/168/168 169/169/169 165/165/165
f 167/167/167 170/170/170 166/166/166
f 166/166/166 170/170/170 168/168/168
f 167/167/167 171/171/171 170/170/170
f 168/168/168 172/172/172 169/169/169
f 170/170/170 172/172/172 168/168/168
f 171/171/171 173/173/173 170/170/170
f 170/170/170 173/173/173 172/172/172
f 171/171/171 174/174/174 173/173/173
f 173/173/173 174/174/174 175/175/175
f 173/173/173 175/175/175 176/176/176
f 172/172/172 173/173/173 176/176/176
f 176/176/176 175/175/175 177/177/177
f 176/176/176 177/177/177 178/178/178
f 169/169/169 172/172/172 179/179/179
f 172/172/172 176/176/176 179/179/179
f 179/179/179 176/176/176 178/178/178
f 169/169/169 179/179/179 180/180/180
f 179/179/179 178/178/178 181/181/181
f 180/180/180 179/179/179 181/181/181
f 180/180/180 181/181/181 182/182/182
f 183/183/183 185/185/185 184/184/184
f 186/186/186 185/185/185 183/183/183
f 186/186/186 187/187/187 185/185/185
f 188/188/188 187/187/187 186/186/186
f 188/188/188 189/189/189 187/187/187
f 188/188/188 190/190/190 189/189/189
f 191/191/191 190/190/190 188/188/188
f 191/191/191 192/192/192 190/190/190
f 191/191/191 188/188/188 193/193/193
f 191/191/191 193/193/193 194/194/194
f 188/188/188 186/186/186 195/195/195
f 188/188/188 195/195/195 193/193/193
f 186/186/186 183/183/183 196/196/196
f 186/186/186 196/196/196 195/195/195
f 194/194/194 193/193/193 197/197/197
f 194/194/194 197/197/197 198/198/198
f 183/183/183 199/199/199 196/196/196
f 183/183/183 200/200/200 199/199/199
f 196/196/196 199/199/199 201/201/201
f 196/196/196 201/201/201 202/202/202
f 195/195/195 196/196/196 202/202/202
f 202/202/202 201/201/201 203/203/203
f 202/202/202 203/203/203 204/204/204
f 193/193/193 195/195/195 205/205/205
f 195/195/195 202/202/202 205/205/205
f 205/205/205 202/202/202 204/204/204
f 193/193/193 205/205/205 197/197/197
f 205/205/205 204/204/204 206/206/206
f 197/197/197 205/205/205 206/206/206
f 206/206/206 204/204/204 207/207/207
f 206/206/206 207/207/207 208/208/208
f 198/198/198 197/197/197 209/209/209
f 197/197/197 206/206/206 209/209/209
f 209/209/209 206/206/206 208/208/208
f 198/198/198 209/209/209 210/210/210
f 209/209/209 208/208/208 211/211/211
f 210/210/210 209/209/209 211/211/211
f 210/210/210 211/211/211 212/212/212
f 213/213/213 215/215/215 214/214/214
f 213/213/213 214/214/214 216/216/216
f 216/216/216 214/214/214 217/217/217
f 216/216/216 217/217/217 218/218/218
f 218/218/218 217/217/217 219/219/219
f 218/218/218 219/219/219 220/220/220
f 218/218/218 220/220/220 221/221/221
f 222/222/222 224/224/224 223/223/223
f 222/222/222 223/223/223 225/225/225
f 222/222/222 225/225/225 226/226/226
f 225/225/225 227/227/227 226/226/226
f 225/225/225 228/228/228 227/227/227
f 222/222/222 226/226/226 229/229/229
f 230/230/230 222/222/222 229/229/229
f 229/229/229 226/226/226 231/231/231
f 230/230/230 229/229/229 232/232/232
f 233/233/233 230/230/230 232/232/232
f 233/233/233 232/232/232 234/234/234
f 232/232/232 229/229/229 235/235/235
f 229/229/229 231/231/231 235/235/235
f 234/234/234 232/232/232 236/236/236
f 232/232/232 235/235/235 236/236/236
f 234/234/234 236/236/236 237/237/237
f 237/237/237 236/236/236 238/238/238
f 237/237/237 238/238/238 239/239/239
f 236/236/236 235/235/235 240/240/240
f 236/236/236 240/240/240 238/238/238
f 235/235/235 231/231/231 241/241/241
f 235/235/235 241/241/241 240/240/240
f 231/231/231 242/242/242 241/241/241
f 231/231/231 243/243/243 242/242/242
f 241/241/241 242/242/242 244/244/244
f 241/241/241 244/244/244 245/245/245
f 240/240/240 241/241/241 245/245/245
f 240/240/240 245/245/245 246/246/246
f 238/238/238 240/240/240 246/246/246
f 238/238/238 246/246/246 247/247/247
f 239/239/239 238/238/238 247/247/247
f 239/239/239 247/247/247 248/248/248
f 249/249/249 239/239/239 248/248/248
f 249/249/249 248/248/248 250/250/250
f 251/251/251 253/253/253 252/252/252
f 251/251/251 252/252/252 254/254/254
f 254/254/254 252/252/252 255/255/255
f 254/254/254 255/255/255 256/256/256
f 251/251/251 254/254/254 257/257/257
f 251/251/251 257/257/257 258/258/258
f 254/254/254 256/256/256 259/259/259
f 259/259/259 256/256/256 260/260/260
f 258/258/258 257/257/257 261/261/261
f 258/258/258 261/261/261 262/262/262
f 254/254/254 263/263/263 257/257/257
f 254/254/254 259/259/259 263/263/263
f 259/259/259 260/260/260 264/264/264
f 264/264/264 260/260/260 265/265/265
f 264/264/264 265/265/265 266/266/266
f 264/264/264 266/266/266 267/267/267
f 264/264/264 267/267/267 268/268/268
f 259/259/259 264/264/264 269/269/269
f 264/264/264 268/268/268 269/269/269
f 259/259/259 269/269/269 263/263/263
f 269/269/269 268/268/268 270/270/270
f 269/269/269 270/270/270 271/271/271
f 263/263/263 269/269/269 271/271/271
f 271/271/271 270/270/270 272/272/272
f 257/257/257 263/263/263 273/273/273
f 263/263/263 271/271/271 273/273/273
f 257/257/257 273/273/273 261/261/261
f 271/271/271 272/272/272 274/274/274
f 273/273/273 271/271/271 274/274/274
f 274/274/274 272/272/272 275/275/275
f 274/274/274 275/275/275 276/276/276
f 273/273/273 274/274/274 277/277/277
f 277/277/277 274/274/274 276/276/276
f 261/261/261 273/273/273 277/277/277
f 277/277/277 276/276/276 278/278/278
f 261/261/261 277/277/277 279/279/279
f 279/279/279 277/277/277 278/278/278
f 262/262/262 261/261/261 279/279/279
f 279/279/279 278/278/278 280/280/280
f 262/262/262 279/279/279 281/281/281
f 281/281/281 279/279/279 280/280/280
f 281/281/281 280/280/280 282/282/282
f 283/283/283 281/281/281 282/282/282
f 283/283/283 282/282/282 284/284/284
f 285/285/285 287/287/287 286/286/286
f 285/285/285 286/286/286 288/288/288
f 288/288/288 286/286/286 289/289/289
f 288/288/288 289/289/289 290/290/290
f 290/290/290 289/289/289 291/291/291
f 290/290/290 291/291/291 292/292/292
f 288/288/288 290/290/290 293/293/293
f 288/288/288 293/293/293 294/294/294
f 290/290/290 292/292/292 295/295/295
f 295/295/295 292/292/292 296/296/296
f 290/290/290 297/297/297 293/293/293
f 290/290/290 295/295/295 297/297/297
f 295/295/295 296/296/296 298/298/298
f 298/298/298 296/296/296 299/299/299
f 298/298/298 299/299/299 300/300/300
f 298/298/298 300/300/300 301/301/301
f 298/298/298 301/301/301 302/302/302
f 295/295/295 298/298/298 303/303/303
f 298/298/298 302/302/302 303/303/303
f 295/295/295 303/303/303 297/297/297
f 303/303/303 302/302/302 304/304/304
f 303/303/303 304/304/304 305/305/305
f 297/297/297 303/303/303 305/305/305
f 305/305/305 304/304/304 306/306/306
f 305/305/305 306/306/306 307/307/307
f 297/297/297 305/305/305 308/308/308
f 293/293/293 297/297/297 308/308/308
f 308/308/308 305/305/305 307/307/307
f 293/293/293 308/308/308 309/309/309
f 294/294/294 293/293/293 309/309/309
f 308/308/308 307/307/307 310/310/310
f 309/309/309 308/308/308 310/310/310
f 310/310/310 307/307/307 311/311/311
f 310/310/310 311/311/311 312/312/312
f 313/313/313 310/310/310 312/312/312
f 309/309/309 310/310/310 313/313/313
f 313/313/313 312/312/312 314/314/314
f 294/294/294 309/309/309 315/315/315
f 315/315/315 309/309/309 313/313/313
f 316/316/316 294/294/294 315/315/315
f 316/316/316 315/315/315 317/317/317
f 315/315/315 313/313/313 318/318/318
f 318/318/318 313/313/313 314/314/314
f 318/318/318 314/314/314 319/319/319
f 320/320/320 322/322/322 321/321/321
f 320/320/320 321/321/321 323/323/323
f 324/324/324 320/320/320 323/323/323
f 323/323/323 321/321/321 325/325/325
f 324/324/324 323/323/323 326/326/326
f 323/323/323 325/325/325 327/327/327
f 326/326/326 323/323/323 327/327/327
f 327/327/327 325/325/325 328/328/328
f 326/326/326 327/327/327 329/329/329
f 327/327/327 328/328/328 330/330/330
f 329/329/329 327/327/327 330/330/330
f 330/330/330 328/328/328 331/331/331
f 329/329/329 330/330/330 332/332/332
f 330/330/330 331/331/331 333/333/333
f 332/332/332 330/330/330 333/333/333
f 333/333/333 331/331/331 334/334/334
f 332/332/332 333/333/333 335/335/335
f 333/333/333 334/334/334 336/336/336
f 335/335/335 333/333/333 336/336/336
f 336/336/336 334/334/334 337/337/337
f 335/335/335 336/336/336 338/338/338
f 336/336/336 337/337/337 339/339/339
f 338/338/338 336/336/336 339/339/339
f 339/339/339 337/337/337 340/340/340
f 338/338/338 339/339/339 341/341/341
f 339/339/339 340/340/340 342/342/342
f 341/341/341 339/339/339 342/342/342
f 342/342/342 340/340/340 343/343/343
f 341/341/341 342/342/342 344/344/344
f 342/342/342 343/343/343 345/345/345
f 344/344/344 342/342/342 345/345/345
f 345/345/345 343/343/343 346/346/346
f 344/344/344 345/345/345 347/347/347
f 345/345/345 346/346/346 348/348/348
f 347/347/347 345/345/345 348/348/348
f 348/348/348 346/346/346 349/349/349
f 347/347/347 348/348/348 350/350/350
f 348/348/348 349/349/349 351/351/351
f 350/350/350 348/348/348 351/351/351
f 351/351/351 349/349/349 352/352/352
f 350/350/350 351/351/351 353/353/353
f 351/351/351 352/352/352 354/354/354
f 353/353/353 351/351/351 354/354/354
f 354/354/354 352/352/352 355/355/355
f 353/353/353 354/354/354 356/356/356
f 354/354/354 355/355/355 357/357/357
f 356/356/356 354/354/354 357/357/357
f 357/357/357 355/355/355 358/358/358
f 356/356/356 357/357/357 359/359/359
f 357/357/357 358/358/358 360/360/360
f 359/359/359 357/357/357 360/360/360
f 360/360/360 358/358/358 361/361/361
f 359/359/359 360/360/360 362/362/362
f 360/360/360 361/361/361 363/363/363
f 362/362/362 360/360/360 363/363/363
f 363/363/363 361/361/361 364/364/364
f 362/362/362 363/363/363 365/365/365
f 363/363/363 364/364/364 366/366/366
f 365/365/365 363/363/363 366/366/366
f 366/366/366 364/364/364 367/367/367
f 365/365/365 366/366/366 368/368/368
f 366/366/366 367/367/367 369/369/369
f 368/368/368 366/366/366 369/369/369
f 369/369/369 367/367/367 370/370/370
f 368/368/368 369/369/369 371/371/371
f 369/369/369 370/370/370 372/372/372
f 371/371/371 369/369/369 372/372/372
f 372/372/372 370/370/370 373/373/373
f 371/371/371 372/372/372 374/374/374
f 372/372/372 373/373/373 375/375/375
f 374/374/374 372/372/372 375/375/375
f 375/375/375 373/373/373 376/376/376
f 374/374/374 375/375/375 377/377/377
f 375/375/375 376/376/376 378/378/378
f 377/377/377 375/375/375 378/378/378
f 378/378/378 376/376/376 379/379/379
f 377/377/377 378/378/378 380/380/380
f 378/378/378 379/379/379 381/381/381
f 380/380/380 378/378/378 381/381/381
f 381/381/381 379/379/379 382/382/382
f 380/380/380 381/381/381 383/383/383
f 381/381/381 382/382/382 384/384/384
f 383/383/383 381/381/381 384/384/384
f 384/384/384 382/382/382 385/385/385
f 383/383/383 384/384/384 386/386/386
f 384/384/384 385/385/385 387/387/387
f 386/386/386 384/384/384 387/387/387
f 387/387/387 385/385/385 388/388/388
f 386/386/386 387/387/387 389/389/389
f 387/387/387 388/388/388 390/390/390
f 389/389/389 387/387/387 390/390/390
f 390/390/390 388/388/388 391/391/391
f 389/389/389 390/390/390 392/392/392
f 390/390/390 391/391/391 393/393/393
f 392/392/392 390/390/390 393/393/393
f 392/392/392 393/393/393 394/394/394
f 395/395/395 397/397/397 396/396/396
f 395/395/395 396/396/396 398/398/398
f 399/399/399 395/395/395 398/398/398
f 399/399/399 398/398/398 400/400/400
f 398/398/398 396/396/396 401/401/401
f 400/400/400 398/398/398 402/402/402
f 398/398/398 401/401/401 402/402/402
f 400/400/400 402/402/402 403/403/403
f 403/403/403 402/402/402 404/404/404
f 403/403/403 404/404/404 405/405/405
f 402/402/402 401/401/401 406/406/406
f 402/402/402 406/406/406 404/404/404
f 401/401/401 407/407/407 406/406/406
f 401/401/401 408/408/408 407/407/407
f 404/404/404 406/406/406 409/409/409
f 404/404/404 409/409/409 410/410/410
f 408/408/408 411/411/411 407/407/407
f 411/411/411 408/408/408 412/412/412
f 406/406/406 407/407/407 413/413/413
f 406/406/406 413/413/413 409/409/409
f 407/407/407 411/411/411 413/413/413
f 412/412/412 414/414/414 411/411/411
f 412/412/412 415/415/415 414/414/414
f 415/415/415 416/416/416 414/414/414
f 415/415/415 417/417/417 416/416/416
f 414/414/414 416/416/416 418/418/418
f 414/414/414 418/418/418 419/419/419
f 411/411/411 414/414/414 419/419/419
f 419/419/419 418/418/418 420/420/420
f 419/419/419 420/420/420 421/421/421
f 411/411/411 419/419/419 422/422/422
f 422/422/422 419/419/419 421/421/421
f 422/422/422 413/413/413 411/411/411
f 422/422/422 421/421/421 423/423/423
f 409/409/409 413/413/413 424/424/424
f 413/413/413 422/422/422 424/424/424
f 425/425/425 422/422/422 423/423/423
f 424/424/424 422/422/422 425/425/425
f 409/409/409 424/424/424 426/426/426
f 426/426/426 424/424/424 425/425/425
f 410/410/410 409/409/409 426/426/426
f 423/423/423 427/427/427 425/425/425
f 427/427/427 423/423/423 428/428/428
f 410/410/410 426/426/426 429/429/429
f 430/430/430 410/410/410 429/429/429
f 430/430/430 429/429/429 431/431/431
f 426/426/426 425/425/425 432/432/432
f 432/432/432 425/425/425 427/427/427
f 429/429/429 426/426/426 432/432/432
f 433/433/433 427/427/427 428/428/428
f 432/432/432 427/427/427 433/433/433
f 433/433/433 428/428/428 434/434/434
f 431/431/431 429/429/429 435/435/435
f 429/429/429 432/432/432 435/435/435
f 435/435/435 432/432/432 433/433/433
f 431/431/431 435/435/435 436/436/436
f 437/437/437 433/433/433 434/434/434
f 435/435/435 433/433/433 437/437/437
f 436/436/436 435/435/435 437/437/437
f 437/437/437 434/434/434 438/438/438
f 436/436/436 437/437/437 439/439/439
f 439/439/439 437/437/437 438/438/438
f 439/439/439 438/438/438 440/440/440
f 441/441/441 443/443/443 442/442/442
f 441/441/441 442/442/442 444/444/444
f 445/445/445 441/441/441 444/444/444
f 446/446/446 444/444/444 442/442/442
f 446/446/446 442/442/442 447/447/447
f 448/448/448 447/447/447 442/442/442
f 448/448/448 449/449/449 447/447/447
f 449/449/449 448/448/448 450/450/450
f 445/445/445 444/444/444 451/451/451
f 452/452/452 445/445/445 451/451/451
f 452/452/452 453/453/453 445/445/445
f 454/454/454 453/453/453 452/452/452
f 455/455/455 454/454/454 452/452/452
f 444/444/444 456/456/456 451/451/451
f 444/444/444 446/446/446 456/456/456
f 457/457/457 451/451/451 456/456/456
f 457/457/457 452/452/452 451/451/451
f 455/455/455 452/452/452 458/458/458
f 459/459/459 455/455/455 458/458/458
f 459/459/459 458/458/458 460/460/460
f 461/461/461 456/456/456 446/446/446
f 457/457/457 456/456/456 461/461/461
f 462/462/462 452/452/452 457/457/457
f 462/462/462 458/458/458 452/452/452
f 462/462/462 457/457/457 461/461/461
f 458/458/458 463/463/463 460/460/460
f 458/458/458 462/462/462 463/463/463
f 461/461/461 446/446/446 464/464/464
f 464/464/464 446/446/446 447/447/447
f 462/462/462 461/461/461 465/465/465
f 463/463/463 462/462/462 465/465/465
f 465/465/465 461/461/461 464/464/464
f 460/460/460 463/463/463 466/466/466
f 460/460/460 466/466/466 467/467/467
f 464/464/464 447/447/447 468/468/468
f 468/468/468 447/447/447 449/449/449
f 463/463/463 465/465/465 469/469/469
f 466/466/466 463/463/463 469/469/469
f 465/465/465 464/464/464 470/470/470
f 470/470/470 464/464/464 468/468/468
f 469/469/469 465/465/465 470/470/470
f 471/471/471 467/467/467 466/466/466
f 471/471/471 472/472/472 467/467/467
f 466/466/466 469/469/469 473/473/473
f 469/469/469 470/470/470 473/473/473
f 466/466/466 473/473/473 471/471/471
f 470/470/470 468/468/468 474/474/474
f 474/474/474 468/468/468 449/449/449
f 473/473/473 470/470/470 474/474/474
f 475/475/475 472/472/472 471/471/471
f 475/475/475 476/476/476 472/472/472
f 471/471/471 473/473/473 477/477/477
f 473/473/473 474/474/474 477/477/477
f 471/471/471 477/477/477 475/475/475
f 474/474/474 449/449/449 478/478/478
f 477/477/477 474/474/474 478/478/478
f 449/449/449 450/450/450 478/478/478
f 476/476/476 475/475/475 479/479/479
f 475/475/475 477/477/477 479/479/479
f 477/477/477 478/478/478 479/479/479
f 476/476/476 479/479/479 480/480/480
f 478/478/478 480/480/480 479/479/479
f 478/478/478 450/450/450 480/480/480
f 481/481/481 480/480/480 450/450/450
f 481/481/481 482/482/482 480/480/480
f 483/483/483 485/485/485 484/484/484
f 483/483/483 486/486/486 485/485/485
f 487/487/487 489/489/489 488/488/488
f 487/487/487 490/490/490 489/489/489
f 487/487/487 491/491/491 490/490/490
f 487/487/487 492/492/492 491/491/491
f 493/493/493 491/491/491 492/492/492
f 494/494/494 496/496/496 495/495/495
f 497/497/497 496/496/496 494/494/494
f 497/497/497 494/494/494 498/498/498
f 499/499/499 497/497/497 498/498/498
f 499/499/499 498/498/498 500/500/500
f 501/501/501 503/503/503 502/502/502
f 501/501/501 504/504/504 503/503/503
f 505/505/505 504/504/504 501/501/501
f 503/503/503 504/504/504 506/506/506
f 503/503/503 506/506/506 507/507/507
f 507/507/507 506/506/506 508/508/508
f 507/507/507 508/508/508 509/509/509
f 506/506/506 510/510/510 508/508/508
f 506/506/506 511/511/511 510/510/510
f 504/504/504 511/511/511 506/506/506
f 511/511/511 512/512/512 510/510/510
f 505/505/505 513/513/513 504/504/504
f 514/514/514 513/513/513 505/505/505
f 504/504/504 515/515/515 511/511/511
f 513/513/513 515/515/515 504/504/504
f 511/511/511 516/516/516 512/512/512
f 515/515/515 516/516/516 511/511/511
f 516/516/516 517/517/517 512/512/512
f 516/516/516 518/518/518 517/517/517
f 515/515/515 519/519/519 516/516/516
f 519/519/519 518/518/518 516/516/516
f 519/519/519 515/515/515 513/513/513
f 519/519/519 520/520/520 518/518/518
f 514/514/514 521/521/521 513/513/513
f 519/519/519 513/513/513 521/521/521
f 519/519/519 521/521/521 520/520/520
f 522/522/522 521/521/521 514/514/514
f 522/522/522 520/520/520 521/521/521
f 523/523/523 525/525/525 524/524/524
f 526/526/526 525/525/525 523/523/523
f 526/526/526 527/527/527 525/525/525
f 528/528/528 527/527/527 526/526/526
f 528/528/528 529/529/529 527/527/527
f 530/530/530 529/529/529 528/528/528
f 530/530/530 531/531/531 529/529/529
f 532/532/532 531/531/531 530/530/530
f 532/532/532 533/533/533 531/531/531
f 534/534/534 533/533/533 532/532/532
f 534/534/534 535/535/535 533/533/533
f 536/536/536 535/535/535 534/534/534
f 536/536/536 537/537/537 535/535/535
f 538/538/538 537/537/537 536/536/536
f 538/538/538 539/539/539 537/537/537
f 540/540/540 539/539/539 538/538/538
f 540/540/540 541/541/541 539/539/539
f 542/542/542 541/541/541 540/540/540
f 542/542/542 543/543/543 541/541/541
f 544/544/544 546/546/546 545/545/545
f 544/544/544 547/547/547 546/546/546
f 547/547/547 548/548/548 546/546/546
f 549/549/549 544/544/544 545/545/545
f 547/547/547 550/550/550 548/548/548
f 551/551/551 544/544/544 549/549/549
f 551/551/551 547/547/547 544/544/544
f 547/547/547 552/552/552 550/550/550
f 552/552/552 553/553/553 550/550/550
f 552/552/552 554/554/554 553/553/553
f 552/552/552 555/555/555 554/554/554
f 555/555/555 556/556/556 554/554/554
f 555/555/555 557/557/557 556/556/556
f 558/558/558 552/552/552 547/547/547
f 552/552/552 558/558/558 555/555/555
f 555/555/555 559/559/559 557/557/557
f 559/559/559 560/560/560 557/557/557
f 559/559/559 561/561/561 560/560/560
f 558/558/558 547/547/547 562/562/562
f 562/562/562 547/547/547 551/551/551
f 555/555/555 558/558/558 563/563/563
f 555/555/555 563/563/563 559/559/559
f 563/563/563 558/558/558 562/562/562
f 559/559/559 564/564/564 561/561/561
f 559/559/559 563/563/563 564/564/564
f 564/564/564 565/565/565 561/561/561
f 564/564/564 566/566/566 565/565/565
f 563/563/563 562/562/562 567/567/567
f 567/567/567 562/562/562 551/551/551
f 564/564/564 563/563/563 567/567/567
f 564/564/564 568/568/568 566/566/566
f 564/564/564 567/567/567 568/568/568
f 568/568/568 569/569/569 566/566/566
f 568/568/568 570/570/570 569/569/569
f 567/567/567 551/551/551 571/571/571
f 568/568/568 567/567/567 571/571/571
f 568/568/568 571/571/571 570/570/570
f 571/571/571 551/551/551 549/549/549
f 571/571/571 572/572/572 570/570/570
f 571/571/571 549/549/549 572/572/572
