mtllib P_RockCubic02.mtl
v -0.3075384 0.2656309 -0.02842278
v -0.208628 0.2185168 0.3098905
v -0.3073647 0.1635486 0.322059
v -0.06896065 0.2152197 0.1289478
v -0.3070276 0.2824025 -0.2473653
v -0.08386633 0.2071098 0.3055742
v -0.1161877 0.2587616 -0.3274235
v -0.1812946 0.2671232 -0.332697
v 0.05273149 0.220382 -0.30299
v 0.2080042 0.1819778 -0.02384252
v 0.2478783 0.1803992 -0.2756602
v 0.3733148 0.1514725 0.2761888
v 0.1388393 0.177355 0.296418
v 0.3532615 0.1507148 0.285777
v 0.3531493 0.1553569 -0.1147382
v 0.3725675 0.1499956 -0.04444742
v 0.303657 0.1569345 -0.228587
v 0.2807707 0.1594405 -0.2690621
v -0.3051473 -0.05153293 0.3194046
v -0.3075384 0.2656309 -0.02842278
v -0.3073647 0.1635486 0.322059
v -0.3067318 -0.1767826 0.2631331
v -0.3070276 0.2824025 -0.2473653
v -0.3057154 0.178966 -0.331238
v -0.305475 -0.1877647 -0.2889049
v -0.3076781 -0.1869728 -0.08178187
v -0.1812946 0.2671232 -0.332697
v -0.3070276 0.2824025 -0.2473653
v -0.3057154 0.178966 -0.331238
v -0.1809848 -0.2179025 -0.3213591
v -0.03317156 -0.2273694 -0.3192832
v -0.1161877 0.2587616 -0.3274235
v 0.05273149 0.220382 -0.30299
v 0.2478783 0.1803992 -0.2756602
v 0.2807707 0.1594405 -0.2690621
v 0.2852159 -0.1494969 -0.2663815
v 0.2523932 -0.2341732 -0.2721259
v 0.1253519 -0.2385179 -0.2951228
v -0.2927866 -0.1362207 -0.3064055
v -0.305475 -0.1877647 -0.2889049
v 0.2430176 -0.21701 0.3051977
v 0.02931228 -0.2345196 0.3057886
v -0.1187929 -0.2180652 0.3151324
v 0.3532615 0.1507148 0.285777
v 0.3460931 -0.1149742 0.3005188
v 0.3381927 -0.1400997 0.2950348
v 0.3708481 -0.08032308 0.2900222
v 0.3733148 0.1514725 0.2761888
v 0.1388393 0.177355 0.296418
v -0.3073647 0.1635486 0.322059
v -0.08386633 0.2071098 0.3055742
v -0.208628 0.2185168 0.3098905
v -0.3051473 -0.05153293 0.3194046
v -0.3067318 -0.1767826 0.2631331
v -0.2431255 -0.1977746 0.2794147
v 0.2852159 -0.1494969 -0.2663815
v 0.2523932 -0.2341732 -0.2721259
v 0.3284349 -0.2309358 0.1678079
v 0.3758082 -0.02632154 -0.02511524
v 0.3410889 0.006730758 -0.1422034
v 0.2807707 0.1594405 -0.2690621
v 0.303657 0.1569345 -0.228587
v 0.3531493 0.1553569 -0.1147382
v 0.3725675 0.1499956 -0.04444742
v 0.3791424 -0.1286969 0.2345937
v 0.3733148 0.1514725 0.2761888
v 0.3381927 -0.1400997 0.2950348
v 0.3708481 -0.08032308 0.2900222
v 0.3460931 -0.1149742 0.3005188
v 0.2430176 -0.21701 0.3051977
v 0.3381927 -0.1400997 0.2950348
v 0.3284349 -0.2309358 0.1678079
v 0.02931228 -0.2345196 0.3057886
v 0.3117701 -0.2397158 0.1204168
v 0.2523932 -0.2341732 -0.2721259
v 0.1253519 -0.2385179 -0.2951228
v -0.1809848 -0.2179025 -0.3213591
v -0.03317156 -0.2273694 -0.3192832
v -0.200089 -0.2181812 0.01804321
v -0.305475 -0.1877647 -0.2889049
v -0.1187929 -0.2180652 0.3151324
v -0.3076781 -0.1869728 -0.08178187
v -0.2431255 -0.1977746 0.2794147
v -0.3067318 -0.1767826 0.2631331
vn -0.6495504 0.7566012 0.07509264
vn -0.07185819 0.7489811 0.6586834
vn -0.6594942 0.3345964 0.6731365
vn 0.1483427 0.9865123 0.06919512
vn -0.6326548 0.7535256 -0.1787376
vn 0.1092185 0.7219442 0.6832774
vn 0.2027582 0.7147753 -0.6693171
vn 0.009715386 0.6974695 -0.7165487
vn 0.2382822 0.7033371 -0.6697302
vn 0.1634688 0.9861173 0.02916631
vn 0.3180269 0.6721523 -0.6686331
vn 0.6990271 0.5732168 0.4275321
vn 0.110223 0.5218834 0.8458656
vn 0.2221642 0.5285445 0.8193191
vn 0.7557357 0.6175412 -0.2179596
vn 0.81723 0.5674419 -0.1007212
vn 0.8126369 0.4267868 -0.3968304
vn 0.6148786 0.345181 -0.7090658
vn -0.6897562 -0.08677281 0.7188233
vn -0.6495504 0.7566012 0.07509264
vn -0.6594942 0.3345964 0.6731365
vn -0.7452716 -0.553371 0.3719555
vn -0.6326548 0.7535256 -0.1787376
vn -0.6882111 0.1326261 -0.7132852
vn -0.7183279 -0.5543749 -0.4203255
vn -0.9190829 -0.3940542 -0.002832602
vn 0.009715386 0.6974695 -0.7165487
vn -0.6326548 0.7535256 -0.1787376
vn -0.6882111 0.1326261 -0.7132852
vn -0.1477007 -0.7062739 -0.6923596
vn 0.02651238 -0.678077 -0.7345126
vn 0.2027582 0.7147753 -0.6693171
vn 0.2382822 0.7033371 -0.6697302
vn 0.3180269 0.6721523 -0.6686331
vn 0.6148786 0.345181 -0.7090658
vn 0.7000886 -0.1607075 -0.6957363
vn 0.4715042 -0.6469158 -0.5993193
vn 0.1118337 -0.6188269 -0.7775259
vn -0.4406272 -0.12001 -0.8896321
vn -0.7183279 -0.5543749 -0.4203255
vn 0.2081871 -0.6267207 0.750919
vn -0.008980155 -0.8122029 0.583306
vn -0.1078052 -0.6833206 0.7221156
vn 0.2221642 0.5285445 0.8193191
vn 0.4167615 -0.1692545 0.8931197
vn 0.5863654 -0.4697994 0.6598971
vn 0.7736199 -0.07561366 0.6291223
vn 0.6990271 0.5732168 0.4275321
vn 0.110223 0.5218834 0.8458656
vn -0.6594942 0.3345964 0.6731365
vn 0.1092185 0.7219442 0.6832774
vn -0.07185819 0.7489811 0.6586834
vn -0.6897562 -0.08677281 0.7188233
vn -0.7452716 -0.553371 0.3719555
vn -0.3364769 -0.731432 0.5931193
vn 0.7000886 -0.1607075 -0.6957363
vn 0.4715042 -0.6469158 -0.5993193
vn 0.6192642 -0.7789534 0.0987088
vn 0.9779187 -0.1430757 -0.15233
vn 0.9357631 -0.03623259 -0.350763
vn 0.6148786 0.345181 -0.7090658
vn 0.8126369 0.4267868 -0.3968304
vn 0.7557357 0.6175412 -0.2179596
vn 0.81723 0.5674419 -0.1007212
vn 0.9309722 -0.3241789 0.1679249
vn 0.6990271 0.5732168 0.4275321
vn 0.5863654 -0.4697994 0.6598971
vn 0.7736199 -0.07561366 0.6291223
vn 0.4167615 -0.1692545 0.8931197
vn 0.2081871 -0.6267207 0.750919
vn 0.5863654 -0.4697994 0.6598971
vn 0.6192642 -0.7789534 0.0987088
vn -0.008980155 -0.8122029 0.583306
vn 0.3674333 -0.9297832 -0.02227246
vn 0.4715042 -0.6469158 -0.5993193
vn 0.1118337 -0.6188269 -0.7775259
vn -0.1477007 -0.7062739 -0.6923596
vn 0.02651238 -0.678077 -0.7345126
vn -0.1841634 -0.982831 0.01127127
vn -0.7183279 -0.5543749 -0.4203255
vn -0.1078052 -0.6833206 0.7221156
vn -0.9190829 -0.3940542 -0.002832602
vn -0.3364769 -0.731432 0.5931193
vn -0.7452716 -0.553371 0.3719555
vt 0.07106058 0.7887843
vt 0.0777482 0.7907313
vt 0.07795048 0.7887843
vt 0.07417043 0.7935148
vt 0.06672993 0.7888067
vt 0.077666 0.7932082
vt 0.06514453 0.7926021
vt 0.0650396 0.7913095
vt 0.06562044 0.7959583
vt 0.07114457 0.7990254
vt 0.06615491 0.7998348
vt 0.07708795 0.8022884
vt 0.07748517 0.7976316
vt 0.07727601 0.8018902
vt 0.06933904 0.8019161
vt 0.07073094 0.8022972
vt 0.06707916 0.8009425
vt 0.06627642 0.8004911
vt 0.1405395 0.7881888
vt 0.1468531 0.7950619
vt 0.1448035 0.7881194
vt 0.1380595 0.7893139
vt 0.1472017 0.7994025
vt 0.1451571 0.8010738
vt 0.1378822 0.8002622
vt 0.1378822 0.7961543
vt 0.07463078 0.8090594
vt 0.07480518 0.8065422
vt 0.07272591 0.8067111
vt 0.06503959 0.809692
vt 0.06504475 0.8126292
vt 0.07455191 0.810358
vt 0.07402158 0.8137478
vt 0.07349471 0.8176584
vt 0.07312538 0.8183358
vt 0.06701991 0.8188233
vt 0.06529968 0.818284
vt 0.06503959 0.815778
vt 0.06651689 0.8073722
vt 0.06548783 0.8071859
vt 0.7886978 0.48098
vt 0.7895052 0.4768064
vt 0.7895052 0.4738475
vt 0.7812036 0.4823629
vt 0.7864619 0.4827918
vt 0.7869718 0.4826933
vt 0.7857209 0.4832094
vt 0.7811412 0.482761
vt 0.7811468 0.4780744
vt 0.7823949 0.4692991
vt 0.7810459 0.4736167
vt 0.7810928 0.4711312
vt 0.7866279 0.4698113
vt 0.7890756 0.4700788
vt 0.7893587 0.4713702
vt 0.851914 0.4602795
vt 0.8502596 0.4601632
vt 0.8503621 0.4689271
vt 0.8543389 0.4650901
vt 0.8549946 0.4627426
vt 0.8580387 0.4601632
vt 0.8579805 0.4609793
vt 0.8579367 0.4632649
vt 0.8578311 0.4646705
vt 0.8523643 0.4702601
vt 0.8579296 0.4710264
vt 0.8521824 0.4714368
vt 0.8533412 0.4713446
vt 0.8526756 0.4715452
vt 0.8061989 0.4712111
vt 0.8060304 0.469299
vt 0.8034747 0.4695129
vt 0.8061919 0.4754542
vt 0.8025308 0.4698431
vt 0.7947459 0.4709938
vt 0.7942809 0.4735128
vt 0.7937503 0.4795791
vt 0.7937967 0.4766512
vt 0.8004789 0.4799796
vt 0.7943974 0.4820402
vt 0.8063745 0.4783864
vt 0.7985045 0.4820968
vt 0.8056663 0.4808432
vt 0.8053473 0.4820968
usemtl MV_RockCubic_Rocks
f 1/1/1 3/3/3 2/2/2
f 2/2/2 4/4/4 1/1/1
f 4/4/4 5/5/5 1/1/1
f 2/2/2 6/6/6 4/4/4
f 7/7/7 5/5/5 4/4/4
f 5/5/5 7/7/7 8/8/8
f 9/9/9 7/7/7 4/4/4
f 10/10/10 9/9/9 4/4/4
f 4/4/4 6/6/6 10/10/10
f 10/10/10 11/11/11 9/9/9
f 6/6/6 12/12/12 10/10/10
f 13/13/13 12/12/12 6/6/6
f 14/14/14 12/12/12 13/13/13
f 10/10/10 12/12/12 15/15/15
f 15/15/15 11/11/11 10/10/10
f 12/12/12 16/16/16 15/15/15
f 15/15/15 17/17/17 11/11/11
f 11/11/11 17/17/17 18/18/18
f 19/19/19 21/21/21 20/20/20
f 20/20/20 22/22/22 19/19/19
f 20/20/20 23/23/23 22/22/22
f 23/23/23 24/24/24 22/22/22
f 22/22/22 24/24/24 25/25/25
f 25/25/25 26/26/26 22/22/22
f 27/27/27 29/29/29 28/28/28
f 27/27/27 30/30/30 29/29/29
f 27/27/27 31/31/31 30/30/30
f 32/32/32 31/31/31 27/27/27
f 33/33/33 31/31/31 32/32/32
f 34/34/34 31/31/31 33/33/33
f 35/35/35 31/31/31 34/34/34
f 31/31/31 35/35/35 36/36/36
f 31/31/31 36/36/36 37/37/37
f 37/37/37 38/38/38 31/31/31
f 29/29/29 30/30/30 39/39/39
f 40/40/40 29/29/29 39/39/39
f 30/30/30 40/40/40 39/39/39
f 41/41/41 43/43/43 42/42/42
f 44/44/44 43/43/43 41/41/41
f 44/44/44 41/41/41 45/45/45
f 45/45/45 41/41/41 46/46/46
f 45/45/45 47/47/47 44/44/44
f 48/48/48 44/44/44 47/47/47
f 43/43/43 44/44/44 49/49/49
f 50/50/50 43/43/43 49/49/49
f 51/51/51 50/50/50 49/49/49
f 50/50/50 51/51/51 52/52/52
f 43/43/43 50/50/50 53/53/53
f 53/53/53 54/54/54 43/43/43
f 43/43/43 54/54/54 55/55/55
f 56/56/56 58/58/58 57/57/57
f 59/59/59 58/58/58 56/56/56
f 59/59/59 56/56/56 60/60/60
f 60/60/60 56/56/56 61/61/61
f 60/60/60 61/61/61 62/62/62
f 63/63/63 60/60/60 62/62/62
f 59/59/59 60/60/60 63/63/63
f 64/64/64 59/59/59 63/63/63
f 65/65/65 58/58/58 59/59/59
f 59/59/59 64/64/64 65/65/65
f 66/66/66 65/65/65 64/64/64
f 58/58/58 65/65/65 67/67/67
f 68/68/68 65/65/65 66/66/66
f 67/67/67 65/65/65 68/68/68
f 69/69/69 67/67/67 68/68/68
f 70/70/70 72/72/72 71/71/71
f 70/70/70 73/73/73 72/72/72
f 72/72/72 73/73/73 74/74/74
f 74/74/74 75/75/75 72/72/72
f 76/76/76 75/75/75 74/74/74
f 74/74/74 73/73/73 76/76/76
f 73/73/73 77/77/77 76/76/76
f 77/77/77 78/78/78 76/76/76
f 79/79/79 77/77/77 73/73/73
f 80/80/80 77/77/77 79/79/79
f 81/81/81 79/79/79 73/73/73
f 82/82/82 80/80/80 79/79/79
f 83/83/83 79/79/79 81/81/81
f 82/82/82 79/79/79 83/83/83
f 84/84/84 82/82/82 83/83/83
