mtllib P_RockHexic_Piece04.mtl
v -0.9011059 -9.373995 -1.560759 0 0 0
v -1.728545 -9.43779 -4.089174E-07 0 0 0
v -0.864274 -9.43779 -1.496964 0 0 0
v -1.80221 -9.373995 -3.642139E-07 0 0 0
v -1.80221 9.373996 -3.642139E-07 0 0.5607843 0
v -0.9011059 9.373996 -1.560759 0 0.4980392 0
v -0.901104 9.373996 1.560759 0 0.6588235 0
v -0.901104 -9.373995 1.560759 0 0 0
v -1.728545 9.437791 -4.051921E-07 0 0.8627451 0
v -0.864274 9.437791 -1.496964 0 0.7568628 0
v -0.901104 -9.373995 1.560759 0 0 0
v -1.728545 -9.43779 -4.089174E-07 0 0 0
v -1.80221 -9.373995 -3.642139E-07 0 0 0
v -0.8642721 -9.43779 1.496964 0 0 0
v 0.8642712 -9.43779 -1.496964 0 0 0
v -0.864274 -9.43779 -1.496964 0 0 0
v -0.9011059 -9.373995 -1.560759 0 0 0
v 0.901104 -9.373995 -1.560759 0 0 0
v 1.728544 -9.43779 5.782846E-07 0 0 0
v 0.8642712 -9.43779 1.496965 0 0 0
v 1.802208 -9.373995 5.894605E-07 0 0 0
v 0.901104 -9.373995 1.56076 0 0 0
v -0.901104 -9.373995 1.560759 0 0 0
v 0.8642712 -9.43779 1.496965 0 0 0
v -0.8642721 -9.43779 1.496964 0 0 0
v 0.901104 -9.373995 1.56076 0 0 0
v 0.901104 9.373996 1.56076 0 0.5490196 0
v -0.901104 9.373996 1.560759 0 0.6588235 0
v 1.802208 9.373996 5.894605E-07 0 0.3686275 0
v 1.802208 -9.373995 5.894605E-07 0 0 0
v -0.9011059 9.373996 -1.560759 0 0.4980392 0
v -0.9011059 -9.373995 -1.560759 0 0 0
v 0.901104 -9.373995 -1.560759 0 0 0
v 0.901104 9.373996 -1.560759 0 0.5058824 0
v 0.8642712 9.437791 -1.496964 0 0.9568627 0
v -0.864274 9.437791 -1.496964 0 0.7568628 0
v 0.901104 9.373996 -1.560759 0 0.5058824 0
v 0.901104 -9.373995 -1.560759 0 0 0
v 1.802208 -9.373995 5.894605E-07 0 0 0
v 1.802208 9.373996 5.894605E-07 0 0.3686275 0
v 1.728544 9.437791 5.745593E-07 0 0.9843137 0
v 0.8642712 9.437791 -1.496964 0 0.9568627 0
v -0.901104 9.373996 1.560759 0 0.6588235 0
v -1.80221 9.373996 -3.642139E-07 0 0.5607843 0
v -1.728545 9.437791 -4.051921E-07 0 0.8627451 0
v -0.8642721 9.437791 1.496964 0 0.6588235 0
v 0.8642712 9.437791 -1.496964 0 0.9568627 0
v -0.864274 9.437791 -1.496964 0 0.7568628 0
v 1.728544 9.437791 5.745593E-07 0 0.9843137 0
v 0.8642712 9.437791 1.496965 0 0.9098039 0
v 0.901104 9.373996 1.56076 0 0.5490196 0
v 1.802208 9.373996 5.894605E-07 0 0.3686275 0
vn -0.4640324 -0.37242 -0.8037271
vn -0.4422685 -0.8968828 0
vn -0.2211366 -0.8968809 -0.3830186
vn -0.9280632 -0.3724227 0
vn -0.9280633 0.3724226 0
vn -0.4640343 0.3724188 -0.8037266
vn -0.4640319 0.3724204 0.8037272
vn -0.4640338 -0.3724192 0.8037267
vn -0.4422684 0.8968828 0
vn -0.2211397 0.8968803 -0.3830183
vn -0.4640338 -0.3724192 0.8037267
vn -0.4422685 -0.8968828 0
vn -0.9280632 -0.3724227 0
vn -0.2211396 -0.8968804 0.3830181
vn 0.221137 -0.8968812 -0.3830178
vn -0.2211366 -0.8968809 -0.3830186
vn -0.4640324 -0.37242 -0.8037271
vn 0.4640344 -0.37242 -0.803726
vn 0.4422717 -0.8968811 0
vn 0.2211339 -0.8968817 0.3830183
vn 0.9280641 -0.3724204 0
vn 0.4640325 -0.3724211 0.8037266
vn -0.4640338 -0.3724192 0.8037267
vn 0.2211339 -0.8968817 0.3830183
vn -0.2211396 -0.8968804 0.3830181
vn 0.4640325 -0.3724211 0.8037266
vn 0.4640325 0.3724211 0.8037266
vn -0.4640319 0.3724204 0.8037272
vn 0.9280648 0.3724186 0
vn 0.9280641 -0.3724204 0
vn -0.4640343 0.3724188 -0.8037266
vn -0.4640324 -0.37242 -0.8037271
vn 0.4640344 -0.37242 -0.803726
vn 0.4640324 0.3724212 -0.8037264
vn 0.2211339 0.8968818 -0.3830182
vn -0.2211397 0.8968803 -0.3830183
vn 0.4640324 0.3724212 -0.8037264
vn 0.4640344 -0.37242 -0.803726
vn 0.9280641 -0.3724204 0
vn 0.9280648 0.3724186 0
vn 0.4422745 0.8968798 0
vn 0.2211339 0.8968818 -0.3830182
vn -0.4640319 0.3724204 0.8037272
vn -0.9280633 0.3724226 0
vn -0.4422684 0.8968828 0
vn -0.2211364 0.896881 0.3830185
vn 0.2211339 0.8968818 -0.3830182
vn -0.2211397 0.8968803 -0.3830183
vn 0.4422745 0.8968798 0
vn 0.2211342 0.8968816 0.3830183
vn 0.4640325 0.3724211 0.8037266
vn 0.9280648 0.3724186 0
vt 0.601099 0.5678591
vt 0.5750701 0.5688384
vt 0.6005426 0.5688655
vt 0.5745409 0.5678307
vt 0.5745409 0.2922768
vt 0.601099 0.2923052
vt 0.5609291 0.2939598
vt 0.5609291 0.5695137
vt 0.5750701 0.2914091
vt 0.6005426 0.2914363
vt 0.9260673 0.4108553
vt 0.9041121 0.3970463
vt 0.9031131 0.3975839
vt 0.9261281 0.4097752
vt 0.9261281 0.3588257
vt 0.9041121 0.3715715
vt 0.9031131 0.3710235
vt 0.9260673 0.3577344
vt 0.9481441 0.3715546
vt 0.9481441 0.3970294
vt 0.9490215 0.3710058
vt 0.9490215 0.3975663
vt 0.5567638 0.5683299
vt 0.5307305 0.5692618
vt 0.5561981 0.569245
vt 0.530211 0.5683475
vt 0.530211 0.2921399
vt 0.5567638 0.2921223
vt 0.5163684 0.2915316
vt 0.5163684 0.5677392
vt 0.5916532 0.00301757
vt 0.5916532 0.2793204
vt 0.6182065 0.279324
vt 0.6182065 0.003021112
vt 0.6176413 0.002086075
vt 0.5921733 0.002082674
vt 0.6052643 0.2923967
vt 0.6052643 0.5685044
vt 0.6318231 0.5684918
vt 0.6318231 0.2923841
vt 0.6312686 0.2914091
vt 0.6057953 0.2914212
vt 0.392844 0.991362
vt 0.4161687 0.9788726
vt 0.4153377 0.9782856
vt 0.3929664 0.9902644
vt 0.3946284 0.939348
vt 0.4161687 0.9528273
vt 0.3722571 0.9513269
vt 0.3714262 0.9767851
vt 0.3703858 0.9773083
vt 0.3712522 0.9507651
usemtl MV_RockHexic_Pieces
f 1/1/1 3/3/3 2/2/2
f 1/1/1 2/2/2 4/4/4
f 5/5/5 1/1/1 4/4/4
f 5/5/5 6/6/6 1/1/1
f 7/7/7 5/5/5 4/4/4
f 7/7/7 4/4/4 8/8/8
f 6/6/6 5/5/5 9/9/9
f 6/6/6 9/9/9 10/10/10
f 11/11/11 13/13/13 12/12/12
f 11/11/11 12/12/12 14/14/14
f 15/15/15 14/14/14 12/12/12
f 15/15/15 12/12/12 16/16/16
f 17/17/17 15/15/15 16/16/16
f 17/17/17 18/18/18 15/15/15
f 14/14/14 15/15/15 19/19/19
f 18/18/18 19/19/19 15/15/15
f 14/14/14 19/19/19 20/20/20
f 18/18/18 21/21/21 19/19/19
f 22/22/22 20/20/20 19/19/19
f 22/22/22 19/19/19 21/21/21
f 23/23/23 25/25/25 24/24/24
f 23/23/23 24/24/24 26/26/26
f 27/27/27 23/23/23 26/26/26
f 27/27/27 28/28/28 23/23/23
f 29/29/29 27/27/27 26/26/26
f 29/29/29 26/26/26 30/30/30
f 31/31/31 33/33/33 32/32/32
f 31/31/31 34/34/34 33/33/33
f 31/31/31 35/35/35 34/34/34
f 31/31/31 36/36/36 35/35/35
f 37/37/37 39/39/39 38/38/38
f 37/37/37 40/40/40 39/39/39
f 37/37/37 41/41/41 40/40/40
f 37/37/37 42/42/42 41/41/41
f 43/43/43 45/45/45 44/44/44
f 43/43/43 46/46/46 45/45/45
f 47/47/47 45/45/45 46/46/46
f 47/47/47 48/48/48 45/45/45
f 46/46/46 49/49/49 47/47/47
f 43/43/43 50/50/50 46/46/46
f 46/46/46 50/50/50 49/49/49
f 43/43/43 51/51/51 50/50/50
f 51/51/51 49/49/49 50/50/50
f 51/51/51 52/52/52 49/49/49
