mtllib P_RockClassic6.mtl
v 0.3258562 -0.2463519 0.958226 1 1 1
v 0.3345146 0.1992417 1.163433 1 1 1
v 0.45467 0.2101643 0.9371352 1 1 1
v 0.5959721 0.3524008 0.6534913 1 1 1
v 0.45467 0.2101643 0.9371352 1 1 1
v 0.3345146 0.1992417 1.163433 1 1 1
v 0.5959721 0.3524008 0.6534913 1 1 1
v 0.5393209 0.02376576 0.7407872 1 1 1
v 0.45467 0.2101643 0.9371352 1 1 1
v 0.3345146 0.1992417 1.163433 1 1 1
v -0.1818542 0.277057 1.221852 1 1 1
v 0.1395645 0.2750429 1.196815 1 1 1
v 0.1884737 -0.1607652 1.181035 1 1 1
v 0.3258562 -0.2463519 0.958226 1 1 1
v -0.1651287 -0.2011318 1.202486 1 1 1
v -0.371501 0.01398062 1.188672 1 1 1
v -0.18262 -0.4091372 0.9015654 1 1 1
v -0.18262 -0.4091372 0.9015654 1 1 1
v 0.1884737 -0.1607652 1.181035 1 1 1
v 0.3258562 -0.2463519 0.958226 1 1 1
v 0.07971954 -0.4437319 0.7027746 1 1 1
v 0.5512133 -0.2703732 0.6943505 1 1 1
v -0.07687664 -0.4872307 0.6071896 1 1 1
v -0.18262 -0.4091372 0.9015654 1 1 1
v -0.371501 0.01398062 1.188672 1 1 1
v -0.1651287 -0.2011318 1.202486 1 1 1
v -0.4051867 -0.361698 0.5810291 1 1 1
v -0.6833324 0.06179558 0.583949 1 1 1
v -0.73491 -0.240098 0.001285492 1 1 1
v -0.8456773 0.1819077 0.2724444 1 1 1
v -0.8822221 0.05562355 0.02109502 1 1 1
v -0.8833436 0.07638571 -0.2224943 1 1 1
v -0.2090702 -0.4773487 0.4556864 1 1 1
v -0.07687664 -0.4872307 0.6071896 1 1 1
v 0.06181622 -0.6272376 0.3823752 1 1 1
v -0.6726532 -0.3288276 -0.297779 1 1 1
v -0.9411744 0.03080528 -0.583164 1 1 1
v 0.2725897 -0.6311424 0.469225 1 1 1
v 0.07971954 -0.4437319 0.7027746 1 1 1
v 0.47647 -0.6418853 0.3551023 1 1 1
v 0.1106262 -0.5723003 -0.4262776 1 1 1
v -0.1924686 -0.6067123 -0.3387457 1 1 1
v -0.6796227 -0.4106443 -0.8801005 1 1 1
v -0.2342806 -0.579448 -0.7834941 1 1 1
v -0.2554331 -0.5293819 -0.893188 1 1 1
v -0.2958822 -0.3212815 -1.099807 1 1 1
v -0.7208566 -0.3239852 -0.925901 1 1 1
v -0.8480157 0.3192258 -0.8930423 1 1 1
v -0.371501 0.01398062 1.188672 1 1 1
v -0.6833324 0.06179558 0.583949 1 1 1
v -0.8456773 0.1819077 0.2724444 1 1 1
v -0.527483 0.5200881 0.4844283 1 1 1
v -0.2171774 0.3272752 1.155305 1 1 1
v -0.1818542 0.277057 1.221852 1 1 1
v -0.1152697 0.4153281 1.005599 1 1 1
v -0.6415491 0.5280663 0.2380235 1 1 1
v -0.8833436 0.07638571 -0.2224943 1 1 1
v -0.8822221 0.05562355 0.02109502 1 1 1
v -0.6549978 0.4986233 -0.08147769 1 1 1
v -0.5445757 0.4547233 -0.5506339 1 1 1
v -0.9411744 0.03080528 -0.583164 1 1 1
v -0.8480157 0.3192258 -0.8930423 1 1 1
v 0.1106262 -0.5723003 -0.4262776 1 1 1
v -0.1924686 -0.6067123 -0.3387457 1 1 1
v 0.06181622 -0.6272376 0.3823752 1 1 1
v -0.2342806 -0.579448 -0.7834941 1 1 1
v 0.2388992 -0.3817196 -0.5933794 1 1 1
v -0.07050228 -0.3742157 -1.050388 1 1 1
v -0.2554331 -0.5293819 -0.893188 1 1 1
v -0.2958822 -0.3212815 -1.099807 1 1 1
v 0.2119827 -0.1326588 -1.046847 1 1 1
v 0.4772043 -0.5739676 -0.1862383 1 1 1
v 0.7654896 -0.05258234 -0.4749678 1 1 1
v 0.47647 -0.6418853 0.3551023 1 1 1
v 0.5363379 -0.002247255 -0.7669325 1 1 1
v 0.4027958 0.04608231 -0.9939375 1 1 1
v 0.9027414 0.09017731 0.2180893 1 1 1
v 0.6497517 -0.377434 0.5366026 1 1 1
v 0.9292688 0.2840321 0.195936 1 1 1
v 0.8963461 0.3601815 0.03295998 1 1 1
v 0.7984247 0.3970351 -0.3980639 1 1 1
v 0.6792068 0.4338962 -0.5972186 1 1 1
v 0.5194921 0.3735694 -0.8143771 1 1 1
v 0.3927736 0.383469 -1.052408 1 1 1
v 0.2725897 -0.6311424 0.469225 1 1 1
v 0.07971954 -0.4437319 0.7027746 1 1 1
v 0.5512133 -0.2703732 0.6943505 1 1 1
v 0.47647 -0.6418853 0.3551023 1 1 1
v 0.6497517 -0.377434 0.5366026 1 1 1
v 0.9027414 0.09017731 0.2180893 1 1 1
v 0.5393209 0.02376576 0.7407872 1 1 1
v 0.3258562 -0.2463519 0.958226 1 1 1
v 0.45467 0.2101643 0.9371352 1 1 1
v 0.9292688 0.2840321 0.195936 1 1 1
v 0.5959721 0.3524008 0.6534913 1 1 1
v -0.8480157 0.3192258 -0.8930423 1 1 1
v -0.7208566 -0.3239852 -0.925901 1 1 1
v -0.5971746 0.3177435 -1.179575 1 1 1
v -0.5265331 -0.1428466 -1.134738 1 1 1
v -0.6796227 -0.4106443 -0.8801005 1 1 1
v -0.2958822 -0.3212815 -1.099807 1 1 1
v -0.5034647 0.1708768 -1.197749 1 1 1
v -0.1247149 0.4365747 -1.176479 1 1 1
v -0.07050228 -0.3742157 -1.050388 1 1 1
v 0.1577053 0.393061 -1.14024 1 1 1
v 0.2119827 -0.1326588 -1.046847 1 1 1
v 0.3927736 0.383469 -1.052408 1 1 1
v 0.4027958 0.04608231 -0.9939375 1 1 1
v -0.5971746 0.3177435 -1.179575 1 1 1
v -0.5445757 0.4547233 -0.5506339 1 1 1
v -0.8480157 0.3192258 -0.8930423 1 1 1
v -0.1247149 0.4365747 -1.176479 1 1 1
v -0.02240849 0.546964 -0.7123645 1 1 1
v -0.6549978 0.4986233 -0.08147769 1 1 1
v -0.6415491 0.5280663 0.2380235 1 1 1
v -0.527483 0.5200881 0.4844283 1 1 1
v 0.3927736 0.383469 -1.052408 1 1 1
v 0.1577053 0.393061 -1.14024 1 1 1
v 0.4779797 0.4354493 -0.837134 1 1 1
v 0.5194921 0.3735694 -0.8143771 1 1 1
v 0.6792068 0.4338962 -0.5972186 1 1 1
v 0.8546753 0.3528982 0.2632211 1 1 1
v 0.7984247 0.3970351 -0.3980639 1 1 1
v 0.8963461 0.3601815 0.03295998 1 1 1
v 0.9292688 0.2840321 0.195936 1 1 1
v 0.6358986 0.3524205 0.5631257 1 1 1
v 0.5959721 0.3524008 0.6534913 1 1 1
v 0.259223 0.3541913 1.042032 1 1 1
v 0.3345146 0.1992417 1.163433 1 1 1
v -0.1152697 0.4153281 1.005599 1 1 1
v 0.1395645 0.2750429 1.196815 1 1 1
v 0.09097195 0.3582633 1.121818 1 1 1
v -0.2171774 0.3272752 1.155305 1 1 1
v -0.1818542 0.277057 1.221852 1 1 1
vn 0.5666637 -0.6210517 0.5414675
vn 0.5994725 0.1885966 0.7778587
vn 0.8780712 -0.06182615 0.4745193
vn 0.5842733 0.7205307 0.3734439
vn 0.8780712 -0.06182615 0.4745193
vn 0.5994725 0.1885966 0.7778587
vn 0.5842733 0.7205307 0.3734439
vn 0.8277287 -0.08060741 0.5553086
vn 0.8780712 -0.06182615 0.4745193
vn 0.5994725 0.1885966 0.7778587
vn -0.2104362 0.4090361 0.8879223
vn 0.1897199 0.3172653 0.9291658
vn 0.3661389 -0.4543337 0.8121103
vn 0.5666637 -0.6210517 0.5414675
vn -0.2127914 -0.5293809 0.8212647
vn -0.6568894 -0.09587441 0.7478666
vn -0.2728824 -0.8604968 0.4302097
vn -0.2728824 -0.8604968 0.4302097
vn 0.3661389 -0.4543337 0.8121103
vn 0.5666637 -0.6210517 0.5414675
vn 0.1371202 -0.8541725 0.5015849
vn 0.6487177 -0.3939225 0.6511455
vn -0.1893839 -0.9297571 0.3157301
vn -0.2728824 -0.8604968 0.4302097
vn -0.6568894 -0.09587441 0.7478666
vn -0.2127914 -0.5293809 0.8212647
vn -0.6278666 -0.7363795 0.2520491
vn -0.870984 -0.2798573 0.4038152
vn -0.7552738 -0.6399727 0.1414082
vn -0.9560515 0.1253765 0.2650401
vn -0.9781471 -0.1699814 0.1197269
vn -0.9962895 0.08606175 0.0007812491
vn -0.4266534 -0.8931875 0.1420672
vn -0.1893839 -0.9297571 0.3157301
vn -0.2273415 -0.9590834 0.168745
vn -0.684305 -0.7206671 0.1112014
vn -0.999788 0.01612451 0.01280941
vn 0.08133485 -0.8956596 0.4372397
vn 0.1371202 -0.8541725 0.5015849
vn 0.4607211 -0.8691208 0.179903
vn 0.2523717 -0.9209145 -0.2970269
vn -0.2136507 -0.9764628 0.02956125
vn -0.579711 -0.7481485 -0.3228142
vn 0.03504129 -0.9652578 -0.2589394
vn -0.008051575 -0.8502124 -0.5263782
vn -0.0336949 -0.453181 -0.8907814
vn -0.7193754 -0.439243 -0.538112
vn -0.7968066 0.5361426 -0.2786582
vn -0.6568894 -0.09587441 0.7478666
vn -0.870984 -0.2798573 0.4038152
vn -0.9560515 0.1253765 0.2650401
vn -0.3973805 0.8625621 0.3131698
vn -0.4243808 0.7029274 0.5707839
vn -0.2104362 0.4090361 0.8879223
vn -0.01485376 0.9576187 0.287656
vn -0.529713 0.8402144 0.1159479
vn -0.9962895 0.08606175 0.0007812491
vn -0.9781471 -0.1699814 0.1197269
vn -0.5914275 0.7989404 -0.1091228
vn -0.4464539 0.8898064 -0.09446398
vn -0.999788 0.01612451 0.01280941
vn -0.7968066 0.5361426 -0.2786582
vn 0.2523717 -0.9209145 -0.2970269
vn -0.2136507 -0.9764628 0.02956125
vn -0.2273415 -0.9590834 0.168745
vn 0.03504129 -0.9652578 -0.2589394
vn 0.5129529 -0.7063063 -0.4878635
vn 0.3120909 -0.5881737 -0.7460905
vn -0.008051575 -0.8502124 -0.5263782
vn -0.0336949 -0.453181 -0.8907814
vn 0.4525442 -0.4392133 -0.776077
vn 0.5223886 -0.8116918 -0.2612788
vn 0.8396707 -0.3370606 -0.4258442
vn 0.4607211 -0.8691208 0.179903
vn 0.7509737 -0.3611673 -0.552808
vn 0.6702763 -0.2617218 -0.6944288
vn 0.9526463 -0.2365674 0.1910524
vn 0.7541668 -0.4975819 0.4285376
vn 0.9587653 0.2017176 0.2001974
vn 0.7604995 0.6440927 -0.08237138
vn 0.7740939 0.5838581 -0.2447209
vn 0.673664 0.6432129 -0.3639424
vn 0.8233296 0.1253466 -0.5535492
vn 0.5552414 0.4573749 -0.6946332
vn 0.08133485 -0.8956596 0.4372397
vn 0.1371202 -0.8541725 0.5015849
vn 0.6487177 -0.3939225 0.6511455
vn 0.4607211 -0.8691208 0.179903
vn 0.7541668 -0.4975819 0.4285376
vn 0.9526463 -0.2365674 0.1910524
vn 0.8277287 -0.08060741 0.5553086
vn 0.5666637 -0.6210517 0.5414675
vn 0.8780712 -0.06182615 0.4745193
vn 0.9587653 0.2017176 0.2001974
vn 0.5842733 0.7205307 0.3734439
vn -0.7968066 0.5361426 -0.2786582
vn -0.7193754 -0.439243 -0.538112
vn -0.4487353 0.4787526 -0.7546076
vn -0.3391681 -0.2978311 -0.8923349
vn -0.579711 -0.7481485 -0.3228142
vn -0.0336949 -0.453181 -0.8907814
vn -0.1306439 -0.08977118 -0.9873567
vn 0.01019824 0.6358023 -0.7717846
vn 0.3120909 -0.5881737 -0.7460905
vn 0.2555966 0.4318709 -0.8649613
vn 0.4525442 -0.4392133 -0.776077
vn 0.5552414 0.4573749 -0.6946332
vn 0.6702763 -0.2617218 -0.6944288
vn -0.4487353 0.4787526 -0.7546076
vn -0.4464539 0.8898064 -0.09446398
vn -0.7968066 0.5361426 -0.2786582
vn 0.01019824 0.6358023 -0.7717846
vn 0.009067774 0.9933079 -0.1151397
vn -0.5914275 0.7989404 -0.1091228
vn -0.529713 0.8402144 0.1159479
vn -0.3973805 0.8625621 0.3131698
vn 0.5552414 0.4573749 -0.6946332
vn 0.2555966 0.4318709 -0.8649613
vn 0.5013243 0.7803771 -0.3737454
vn 0.8233296 0.1253466 -0.5535492
vn 0.673664 0.6432129 -0.3639424
vn 0.5630835 0.7545526 0.3370271
vn 0.7740939 0.5838581 -0.2447209
vn 0.7604995 0.6440927 -0.08237138
vn 0.9587653 0.2017176 0.2001974
vn 0.2938161 0.9437181 0.1518821
vn 0.5842733 0.7205307 0.3734439
vn 0.3360493 0.859583 0.3849519
vn 0.5994725 0.1885966 0.7778587
vn -0.01485376 0.9576187 0.287656
vn 0.1897199 0.3172653 0.9291658
vn 0.1351521 0.8495461 0.5099072
vn -0.4243808 0.7029274 0.5707839
vn -0.2104362 0.4090361 0.8879223
vt 0.3543811 0.6647921
vt 0.3442936 0.6812763
vt 0.3543811 0.6883087
vt 0.1217589 0.4354649
vt 0.118525 0.4462891
vt 0.1217589 0.4540501
vt 0.1213789 0.6257975
vt 0.113369 0.6403866
vt 0.1213789 0.6445787
vt 0.8324189 0.5040932
vt 0.8192127 0.4783192
vt 0.8247783 0.4949627
vt 0.8482239 0.4900455
vt 0.8569787 0.4967442
vt 0.8442068 0.4709816
vt 0.8298943 0.4642677
vt 0.8569787 0.4678345
vt 0.174565 0.9150043
vt 0.1695575 0.9434886
vt 0.1793343 0.9410815
vt 0.1853008 0.9196229
vt 0.1932912 0.9434886
vt 0.1878613 0.9101539
vt 0.8545527 0.11059
vt 0.8269448 0.1157749
vt 0.8415685 0.122817
vt 0.8513308 0.09050608
vt 0.8264642 0.08034337
vt 0.8469262 0.05494583
vt 0.8231606 0.06096578
vt 0.8310213 0.0494144
vt 0.8353348 0.03707457
vt 0.8649926 0.08859873
vt 0.8670745 0.09827185
vt 0.8816066 0.09089208
vt 0.8584356 0.04202604
vt 0.8420577 0.01854849
vt 0.8876414 0.09848845
vt 0.8692698 0.1047058
vt 0.8981543 0.09552789
vt 0.8981543 0.04979181
vt 0.886426 0.05071306
vt 0.8728471 0.01389766
vt 0.8931642 0.02725267
vt 0.8927369 0.02061915
vt 0.8879333 0.006489754
vt 0.869205 0.009878159
vt 0.8418241 0
vt 0.2260571 0.5452027
vt 0.224 0.5819631
vt 0.2268133 0.6010656
vt 0.2494073 0.5858688
vt 0.2448173 0.5451679
vt 0.2432404 0.5408106
vt 0.2528086 0.5511298
vt 0.2483163 0.6005726
vt 0.2245288 0.6265016
vt 0.2219734 0.6142821
vt 0.2486315 0.6168485
vt 0.2528086 0.6385083
vt 0.2232966 0.6460066
vt 0.2405033 0.6611018
vt 0.7454529 0.8945417
vt 0.7324886 0.895701
vt 0.7374077 0.9370677
vt 0.73418 0.8714941
vt 0.7587004 0.8863066
vt 0.7498221 0.858291
vt 0.736032 0.8651921
vt 0.7438889 0.8528772
vt 0.7699833 0.8607684
vt 0.7579494 0.9117339
vt 0.7911072 0.897657
vt 0.752347 0.9409198
vt 0.7859144 0.8789287
vt 0.7841039 0.8650514
vt 0.7983198 0.9356505
vt 0.768661 0.9516305
vt 0.8072801 0.9339042
vt 0.8098888 0.9241268
vt 0.8098888 0.8998939
vt 0.8077693 0.887777
vt 0.8006377 0.8744906
vt 0.7974105 0.8602727
vt 0.6272354 0.3010979
vt 0.6110115 0.304544
vt 0.6279202 0.3264451
vt 0.6383553 0.3063798
vt 0.637249 0.3242064
vt 0.6383553 0.3528061
vt 0.6187515 0.3399425
vt 0.6147308 0.3211031
vt 0.6079912 0.3463793
vt 0.633853 0.3627796
vt 0.6123991 0.3567805
vt 0.1196059 0.7825985
vt 0.08508801 0.7846222
vt 0.1159716 0.7983484
vt 0.09162343 0.7982178
vt 0.08061707 0.7856598
vt 0.08091176 0.8086929
vt 0.1075311 0.8023138
vt 0.1196059 0.8241959
vt 0.07685804 0.8199177
vt 0.1159558 0.8385887
vt 0.08816123 0.8368359
vt 0.1148608 0.8505325
vt 0.09706473 0.8481026
vt 0.8092117 0
vt 0.8123035 0.0336429
vt 0.8231602 0.01400188
vt 0.7873869 0.001741439
vt 0.7866688 0.02695446
vt 0.8213615 0.05839977
vt 0.8231602 0.07557233
vt 0.8185396 0.08946098
vt 0.7603245 0.01069658
vt 0.7723322 0.005017564
vt 0.7583008 0.02277987
vt 0.7548418 0.02423829
vt 0.7492304 0.03674339
vt 0.7436647 0.08469739
vt 0.7433453 0.04813468
vt 0.7399435 0.07212334
vt 0.737793 0.0817515
vt 0.7565355 0.1000464
vt 0.7588892 0.1047884
vt 0.7785225 0.1239601
vt 0.7721767 0.1318285
vt 0.7985048 0.1199875
vt 0.784071 0.132185
vt 0.7876263 0.1274461
vt 0.8027735 0.1277392
vt 0.8006706 0.131816
usemtl MV_RockClassic_Rocks
f 1/1/1 3/3/3 2/2/2
f 4/4/4 6/6/6 5/5/5
f 7/7/7 9/9/9 8/8/8
f 10/10/10 12/12/12 11/11/11
f 11/11/11 13/13/13 10/10/10
f 13/13/13 14/14/14 10/10/10
f 11/11/11 15/15/15 13/13/13
f 15/15/15 11/11/11 16/16/16
f 13/13/13 15/15/15 17/17/17
f 18/18/18 20/20/20 19/19/19
f 21/21/21 20/20/20 18/18/18
f 20/20/20 21/21/21 22/22/22
f 18/18/18 23/23/23 21/21/21
f 24/24/24 26/26/26 25/25/25
f 25/25/25 27/27/27 24/24/24
f 27/27/27 25/25/25 28/28/28
f 29/29/29 27/27/27 28/28/28
f 30/30/30 29/29/29 28/28/28
f 30/30/30 31/31/31 29/29/29
f 32/32/32 29/29/29 31/31/31
f 27/27/27 33/33/33 24/24/24
f 27/27/27 29/29/29 33/33/33
f 24/24/24 33/33/33 34/34/34
f 33/33/33 35/35/35 34/34/34
f 29/29/29 35/35/35 33/33/33
f 29/29/29 32/32/32 36/36/36
f 32/32/32 37/37/37 36/36/36
f 35/35/35 38/38/38 34/34/34
f 38/38/38 39/39/39 34/34/34
f 35/35/35 40/40/40 38/38/38
f 35/35/35 41/41/41 40/40/40
f 29/29/29 42/42/42 35/35/35
f 36/36/36 42/42/42 29/29/29
f 36/36/36 43/43/43 42/42/42
f 37/37/37 43/43/43 36/36/36
f 44/44/44 42/42/42 43/43/43
f 45/45/45 44/44/44 43/43/43
f 43/43/43 46/46/46 45/45/45
f 37/37/37 47/47/47 43/43/43
f 37/37/37 48/48/48 47/47/47
f 49/49/49 51/51/51 50/50/50
f 52/52/52 51/51/51 49/49/49
f 52/52/52 49/49/49 53/53/53
f 49/49/49 54/54/54 53/53/53
f 55/55/55 52/52/52 53/53/53
f 51/51/51 52/52/52 56/56/56
f 51/51/51 56/56/56 57/57/57
f 58/58/58 51/51/51 57/57/57
f 59/59/59 57/57/57 56/56/56
f 59/59/59 60/60/60 57/57/57
f 60/60/60 61/61/61 57/57/57
f 61/61/61 60/60/60 62/62/62
f 63/63/63 65/65/65 64/64/64
f 64/64/64 66/66/66 63/63/63
f 66/66/66 67/67/67 63/63/63
f 68/68/68 67/67/67 66/66/66
f 69/69/69 68/68/68 66/66/66
f 68/68/68 69/69/69 70/70/70
f 67/67/67 68/68/68 71/71/71
f 72/72/72 63/63/63 67/67/67
f 67/67/67 73/73/73 72/72/72
f 63/63/63 72/72/72 74/74/74
f 72/72/72 73/73/73 74/74/74
f 75/75/75 67/67/67 71/71/71
f 67/67/67 75/75/75 73/73/73
f 71/71/71 76/76/76 75/75/75
f 77/77/77 74/74/74 73/73/73
f 74/74/74 77/77/77 78/78/78
f 77/77/77 73/73/73 79/79/79
f 73/73/73 80/80/80 79/79/79
f 73/73/73 81/81/81 80/80/80
f 73/73/73 75/75/75 81/81/81
f 82/82/82 81/81/81 75/75/75
f 83/83/83 82/82/82 75/75/75
f 75/75/75 76/76/76 83/83/83
f 76/76/76 84/84/84 83/83/83
f 85/85/85 87/87/87 86/86/86
f 87/87/87 85/85/85 88/88/88
f 87/87/87 88/88/88 89/89/89
f 87/87/87 89/89/89 90/90/90
f 91/91/91 87/87/87 90/90/90
f 91/91/91 92/92/92 87/87/87
f 93/93/93 92/92/92 91/91/91
f 94/94/94 91/91/91 90/90/90
f 94/94/94 95/95/95 91/91/91
f 96/96/96 98/98/98 97/97/97
f 98/98/98 99/99/99 97/97/97
f 99/99/99 100/100/100 97/97/97
f 100/100/100 99/99/99 101/101/101
f 98/98/98 102/102/102 99/99/99
f 102/102/102 101/101/101 99/99/99
f 98/98/98 103/103/103 102/102/102
f 101/101/101 102/102/102 104/104/104
f 103/103/103 105/105/105 102/102/102
f 104/104/104 102/102/102 106/106/106
f 105/105/105 106/106/106 102/102/102
f 107/107/107 106/106/106 105/105/105
f 107/107/107 108/108/108 106/106/106
f 109/109/109 111/111/111 110/110/110
f 109/109/109 110/110/110 112/112/112
f 113/113/113 112/112/112 110/110/110
f 114/114/114 113/113/113 110/110/110
f 115/115/115 113/113/113 114/114/114
f 113/113/113 115/115/115 116/116/116
f 112/112/112 113/113/113 117/117/117
f 112/112/112 117/117/117 118/118/118
f 119/119/119 117/117/117 113/113/113
f 117/117/117 119/119/119 120/120/120
f 121/121/121 120/120/120 119/119/119
f 121/121/121 119/119/119 113/113/113
f 121/121/121 113/113/113 122/122/122
f 123/123/123 121/121/121 122/122/122
f 123/123/123 122/122/122 124/124/124
f 125/125/125 124/124/124 122/122/122
f 122/122/122 113/113/113 126/126/126
f 125/125/125 122/122/122 126/126/126
f 126/126/126 113/113/113 116/116/116
f 125/125/125 126/126/126 127/127/127
f 116/116/116 128/128/128 126/126/126
f 126/126/126 128/128/128 127/127/127
f 128/128/128 129/129/129 127/127/127
f 116/116/116 130/130/130 128/128/128
f 131/131/131 129/129/129 128/128/128
f 128/128/128 130/130/130 132/132/132
f 128/128/128 132/132/132 131/131/131
f 130/130/130 133/133/133 132/132/132
f 131/131/131 132/132/132 134/134/134
f 134/134/134 132/132/132 133/133/133
