mtllib P_RockSpire_Rock02.mtl
v 0.4629326 0.9749106 1.014949
v -1.649796 -0.105177 1.06999
v -1.40617 0.7848076 0.1976448
v 0.02968597 1.230692 0.5069082
v 0.113102 1.232906 0.07865342
v 1.170555 0.6037942 0.9476367
v 1.358864 0.5435013 -0.0381831
v 1.081257 0.7217029 -0.8029338
v 0.5855942 0.982001 -1.086385
v -0.206852 1.226871 0.2852266
v -1.131935 0.5688629 -0.9788877
v 0.06904602 0.7579631 -1.258896
v 0.5747261 0.8849951 -1.231518
v -1.649796 -0.105177 1.06999
v -1.696678 -0.2418929 1.026184
v -1.40617 0.7848076 0.1976448
v -1.353168 -0.3190822 -0.3812824
v -1.131935 0.5688629 -0.9788877
v -1.144375 -0.0722272 -1.06418
v -1.696678 -0.2418929 1.026184
v -1.649796 -0.105177 1.06999
v -0.4553947 -0.4945105 1.402403
v 0.4629326 0.9749106 1.014949
v 0.7498245 -0.3815602 1.261298
v 1.288048 0.2175252 1.031885
v 1.170555 0.6037942 0.9476367
v -1.353168 -0.3190822 -0.3812824
v -1.696678 -0.2418929 1.026184
v -0.4553947 -0.4945105 1.402403
v -0.2040863 -0.5571175 -0.5130786
v -1.144375 -0.0722272 -1.06418
v 0.2328758 -0.4917982 -1.426801
v 0.6006432 -0.476274 -1.42442
v 0.7498245 -0.3815602 1.261298
v 1.330124 -0.3403021 0.5135935
v 1.509617 -0.1855884 0.4751936
v 0.9753151 -0.2822642 -1.399961
v 1.606937 -0.06017855 -0.6178021
v 1.288048 0.2175252 1.031885
v 1.509617 -0.1855884 0.4751936
v 0.7498245 -0.3815602 1.261298
v 1.170555 0.6037942 0.9476367
v 1.358864 0.5435013 -0.0381831
v 1.582325 0.1413468 -0.6017678
v 1.606937 -0.06017855 -0.6178021
v 0.9753151 -0.2822642 -1.399961
v 1.081257 0.7217029 -0.8029338
v 0.5747261 0.8849951 -1.231518
v 0.5855942 0.982001 -1.086385
v 0.5747261 0.8849951 -1.231518
v 0.6006432 -0.476274 -1.42442
v 0.9753151 -0.2822642 -1.399961
v 0.06904602 0.7579631 -1.258896
v 0.2328758 -0.4917982 -1.426801
v -1.144375 -0.0722272 -1.06418
v -1.131935 0.5688629 -0.9788877
vn 0.1712987 0.7314904 0.6599839
vn -0.666766 0.2998966 0.6822647
vn -0.7399037 0.6686307 0.07399725
vn -0.01230979 0.9392228 0.3430875
vn 0.1438694 0.9845739 -0.09957881
vn 0.624661 0.5800362 0.5228353
vn 0.7728654 0.631709 0.06019043
vn 0.6638703 0.6661523 -0.3398784
vn 0.2306564 0.9029455 -0.3626115
vn -0.2534328 0.9669133 0.02916241
vn -0.6245376 0.491547 -0.6069055
vn -0.1844845 0.5352849 -0.8242788
vn 0.235516 0.5681722 -0.7884876
vn -0.666766 0.2998966 0.6822647
vn -0.8121814 -0.4662439 0.3506821
vn -0.7399037 0.6686307 0.07399725
vn -0.7391062 -0.6220296 -0.2584594
vn -0.6245376 0.491547 -0.6069055
vn -0.6327802 -0.3444203 -0.6935157
vn -0.8121814 -0.4662439 0.3506821
vn -0.666766 0.2998966 0.6822647
vn -0.1053808 -0.5889262 0.801287
vn 0.1712987 0.7314904 0.6599839
vn 0.2988147 -0.5864112 0.7528822
vn 0.721797 0.1020681 0.6845372
vn 0.624661 0.5800362 0.5228353
vn -0.7391062 -0.6220296 -0.2584594
vn -0.8121814 -0.4662439 0.3506821
vn -0.1053808 -0.5889262 0.801287
vn -0.08229618 -0.993699 -0.07609063
vn -0.6327802 -0.3444203 -0.6935157
vn -0.1203264 -0.6324761 -0.7651769
vn 0.1817735 -0.6656724 -0.723767
vn 0.2988147 -0.5864112 0.7528822
vn 0.4677517 -0.8667836 0.1729009
vn 0.9214218 -0.3119862 0.2316172
vn 0.5325708 -0.3545561 -0.768543
vn 0.8925119 -0.358165 -0.2741174
vn 0.721797 0.1020681 0.6845372
vn 0.9214218 -0.3119862 0.2316172
vn 0.2988147 -0.5864112 0.7528822
vn 0.624661 0.5800362 0.5228353
vn 0.7728654 0.631709 0.06019043
vn 0.9018614 0.326065 -0.2834212
vn 0.8925119 -0.358165 -0.2741174
vn 0.5325708 -0.3545561 -0.768543
vn 0.6638703 0.6661523 -0.3398784
vn 0.235516 0.5681722 -0.7884876
vn 0.2306564 0.9029455 -0.3626115
vn 0.235516 0.5681722 -0.7884876
vn 0.1817735 -0.6656724 -0.723767
vn 0.5325708 -0.3545561 -0.768543
vn -0.1844845 0.5352849 -0.8242788
vn -0.1203264 -0.6324761 -0.7651769
vn -0.6327802 -0.3444203 -0.6935157
vn -0.6245376 0.491547 -0.6069055
vt 0.03138638 0.9616129
vt 0.03138638 0.9837685
vt 0.04050669 0.9808036
vt 0.03685835 0.9659076
vt 0.04128483 0.9648924
vt 0.03178785 0.9542832
vt 0.04196904 0.9519945
vt 0.05004634 0.9545934
vt 0.05320426 0.9596139
vt 0.03924562 0.9682927
vt 0.05261936 0.9775784
vt 0.05514465 0.9649611
vt 0.05470362 0.9596914
vt 0.5148264 0.1703465
vt 0.5134332 0.1709048
vt 0.5245718 0.1787596
vt 0.5134332 0.185386
vt 0.5229986 0.1909596
vt 0.516386 0.1922251
vt 0.5039401 0.9763387
vt 0.5049878 0.975278
vt 0.4957405 0.9662197
vt 0.5049878 0.950578
vt 0.4910701 0.9544601
vt 0.4940601 0.9465327
vt 0.498192 0.945752
vt 0.9676428 0.6666525
vt 0.9676428 0.6817169
vt 0.981043 0.6825306
vt 0.9788693 0.6625502
vt 0.9681523 0.6591885
vt 0.9810668 0.6522257
vt 0.9847961 0.6513469
vt 0.9929177 0.6781329
vt 0.9969645 0.6691415
vt 0.998731 0.6682855
vt 0.9887019 0.650642
vt 0.997072 0.656968
vt 0.06079287 0.9117912
vt 0.05627532 0.9062072
vt 0.05500836 0.9141653
vt 0.064854 0.9107535
vt 0.06377608 0.9005896
vt 0.05926494 0.8949344
vt 0.05715083 0.8948386
vt 0.05500836 0.8865439
vt 0.06555883 0.8924815
vt 0.06745094 0.8877903
vt 0.06849886 0.8892736
vt 0.8434696 0.08615963
vt 0.8575693 0.08836468
vt 0.8562428 0.08417165
vt 0.8438768 0.09157601
vt 0.8570677 0.09216338
vt 0.8500619 0.1054779
vt 0.8434696 0.1041876
usemtl MV_RockSpire_Rocks
f 1/1/1 3/3/3 2/2/2
f 1/1/1 4/4/4 3/3/3
f 1/1/1 5/5/5 4/4/4
f 5/5/5 1/1/1 6/6/6
f 5/5/5 6/6/6 7/7/7
f 8/8/8 5/5/5 7/7/7
f 9/9/9 5/5/5 8/8/8
f 10/10/10 3/3/3 4/4/4
f 4/4/4 5/5/5 10/10/10
f 5/5/5 9/9/9 10/10/10
f 10/10/10 11/11/11 3/3/3
f 10/10/10 9/9/9 11/11/11
f 11/11/11 9/9/9 12/12/12
f 9/9/9 13/13/13 12/12/12
f 14/14/14 16/16/16 15/15/15
f 15/15/15 16/16/16 17/17/17
f 16/16/16 18/18/18 17/17/17
f 18/18/18 19/19/19 17/17/17
f 20/20/20 22/22/22 21/21/21
f 22/22/22 23/23/23 21/21/21
f 24/24/24 23/23/23 22/22/22
f 24/24/24 25/25/25 23/23/23
f 25/25/25 26/26/26 23/23/23
f 27/27/27 29/29/29 28/28/28
f 29/29/29 27/27/27 30/30/30
f 30/30/30 27/27/27 31/31/31
f 30/30/30 31/31/31 32/32/32
f 32/32/32 33/33/33 30/30/30
f 33/33/33 29/29/29 30/30/30
f 33/33/33 34/34/34 29/29/29
f 34/34/34 33/33/33 35/35/35
f 35/35/35 36/36/36 34/34/34
f 37/37/37 35/35/35 33/33/33
f 35/35/35 38/38/38 36/36/36
f 37/37/37 38/38/38 35/35/35
f 39/39/39 41/41/41 40/40/40
f 40/40/40 42/42/42 39/39/39
f 40/40/40 43/43/43 42/42/42
f 44/44/44 43/43/43 40/40/40
f 44/44/44 40/40/40 45/45/45
f 44/44/44 45/45/45 46/46/46
f 47/47/47 43/43/43 44/44/44
f 44/44/44 46/46/46 47/47/47
f 46/46/46 48/48/48 47/47/47
f 49/49/49 47/47/47 48/48/48
f 50/50/50 52/52/52 51/51/51
f 53/53/53 50/50/50 51/51/51
f 51/51/51 54/54/54 53/53/53
f 54/54/54 55/55/55 53/53/53
f 53/53/53 55/55/55 56/56/56
