mtllib P_RockDesert_CliffB04.mtl
v -21.84373 4.234032 -5.601437
v -22.48331 2.315323 -5.767635
v -20.06277 2.130627 -11.02256
v 14.76954 47.23601 -8.78759
v 18.55248 46.52332 -6.498432
v 17.46419 47.50829 -6.087532
v 15.43657 46.17999 -9.450629
v 11.95613 47.01944 -11.13608
v 12.58746 46.0236 -12.07639
v 15.34906 41.63967 -9.241478
v 18.46558 41.65193 -6.511597
v 10.95062 41.16611 -12.41018
v 21.11345 46.02452 -3.470543
v 7.441659 42.77068 -14.08977
v 8.238795 46.04507 -13.33271
v 7.882241 39.32547 -12.95306
v 21.18136 41.65019 -3.444693
v 21.56004 45.9809 0.1273575
v 21.61228 41.83214 0.2283192
v 20.49834 39.68689 -3.200264
v 21.40289 38.08934 0.633194
v 20.9777 34.21584 -1.881756
v 21.20935 33.02959 0.8744011
v 20.78886 31.24097 -1.603916
v 19.99877 27.20654 -2.272924
v 20.56937 26.59569 0.09640217
v 20.19184 22.00981 -2.37196
v 21.0163 21.7101 -0.2722759
v 19.32094 18.50457 -3.884428
v 20.23462 22.23148 -3.22369
v 21.23928 17.27605 -0.3405552
v 21.64701 12.8452 -4.003109
v 22.41203 12.58797 -0.08612061
v 24.91552 5.815228 -3.932848
v 25.77167 5.745487 0.6191311
v 26.7885 1.875031 -4.213343
v 27.65036 1.837708 0.7457094
v 29.02689 -1.915005 0.7709484
v 28.1166 -1.916412 -4.636276
v 24.52713 1.867306 -8.97579
v 25.95104 -1.950592 -9.891781
v 22.52913 5.854938 -8.241844
v 20.25751 1.904655 -13.15224
v 21.84313 -1.996201 -14.44108
v 19.40312 13.26649 -7.567364
v 18.79071 5.89075 -11.93216
v 15.34994 1.994297 -16.11338
v 15.99568 -2.108822 -17.42638
v 13.77973 6.184883 -14.77835
v 15.97145 13.6155 -9.496597
v 12.4873 13.78875 -10.86765
v 17.34831 16.67249 -6.418085
v 20.37939 20.5175 -5.030558
v 14.33247 16.9171 -8.286636
v 18.44717 19.93283 -7.32881
v 15.63483 20.31859 -9.965927
v 19.34361 23.27556 -7.098636
v 21.15365 22.69135 -4.291647
v 21.54876 26.99937 -4.54031
v 16.98206 23.6994 -10.21906
v 13.98448 23.91647 -12.15068
v 20.31758 26.58807 -6.578613
v 20.97276 31.91602 -6.05966
v 21.9383 30.90853 -3.638979
v 22.09861 33.94164 -3.654962
v 21.51925 38.68649 -4.097679
v 17.66464 27.06594 -10.37692
v 13.48143 28.40434 -11.84897
v 17.28422 32.23452 -10.21936
v 13.43595 32.48895 -11.90128
v 20.35786 37.45364 -6.822618
v 19.63493 41.15602 -7.267164
v 17.29351 36.77278 -10.38606
v 13.62413 37.25634 -12.60534
v 16.62622 41.18675 -10.25528
v 13.09721 40.80875 -13.01529
v 17.46419 47.50829 -6.087532
v 18.55248 46.52332 -6.498432
v 21.11345 46.02452 -3.470543
v 19.82569 46.99477 -3.335857
v 21.56004 45.9809 0.1273575
v 20.00011 46.93377 0.1680431
v 20.67302 45.97756 3.719514
v 19.27584 46.92235 3.482235
v 18.43523 45.95427 7.076073
v 17.29718 46.85201 6.772615
v 15.57717 45.85953 10.73121
v 14.75154 46.70124 10.16252
v 11.8298 45.9679 14.0375
v 11.23161 46.77647 13.37608
v 7.337837 46.2187 15.68723
v 13.35951 46.80017 9.391994
v 7.040438 46.97972 14.69356
v 3.444534 46.25101 16.62192
v 14.83123 47.20308 4.873279
v 15.34472 47.61404 0.2963972
v 3.4176 47.00023 15.4647
v -0.6598125 45.7111 15.24816
v 8.584718 46.85672 11.93014
v -0.4454784 46.55645 14.23428
v -5.001233 45.11444 12.84139
v 9.550871 47.63189 6.912936
v 3.469984 47.01505 11.81189
v 14.90024 47.54692 -3.698618
v -4.497429 46.02662 11.70322
v -9.163083 45.11541 10.9367
v -2.11648 46.80258 9.398263
v 3.440319 47.50768 6.549744
v 9.384892 47.97913 0.7633772
v 13.32808 47.45362 -7.282955
v 14.76954 47.23601 -8.78759
v 11.95613 47.01944 -11.13608
v -8.186187 45.93259 10.10874
v -12.71366 45.52802 8.404252
v -12.09598 46.22036 7.828261
v -6.98735 46.43301 7.988522
v -3.07786 47.55425 4.58269
v -8.190707 46.94736 4.289988
v -13.24788 46.36617 4.145609
v 9.097866 47.83907 -3.940268
v 3.594942 47.83299 1.529626
v -8.265325 46.99213 0.1777594
v -14.16798 46.13379 0.5915046
v -2.485973 47.8793 0.2916968
v 8.230282 47.71511 -8.192566
v 3.082599 47.7454 -3.070017
v 7.952837 46.91579 -12.3558
v 12.58746 46.0236 -12.07639
v 8.238795 46.04507 -13.33271
v 3.642459 47.34695 -8.39551
v 5.133207 47.04462 -12.80866
v 5.403829 46.1596 -13.90662
v 4.806406 46.76029 -12.71436
v 3.311193 47.05544 -8.607231
v 1.616147 47.55996 -5.446203
v 1.287116 47.30752 -5.732861
v -1.679137 47.72002 -2.566184
v -1.780519 47.40093 -3.021109
v -4.62495 47.39699 -2.479213
v -7.843232 46.97858 -2.391226
v -13.077 46.27995 -3.085356
v -6.532162 45.93949 -6.383887
v -4.858733 46.66633 -3.045293
v -2.374593 46.48933 -3.751721
v -13.7966 45.58301 -3.35013
v -14.73016 45.47044 0.5151546
v -11.49327 45.3548 -6.551281
v -11.00377 45.88414 -6.237844
v -8.823576 45.32784 -9.547278
v -8.49726 45.76755 -9.110245
v -5.359524 45.29987 -11.29585
v -5.222034 45.62271 -10.8481
v -1.191309 45.0097 -12.62446
v -1.079798 45.63885 -12.01004
v 3.940385 45.84713 -13.09312
v 3.828886 46.14971 -12.51082
v -1.816494 46.12371 -7.826492
v 0.4022819 46.56663 -6.271637
v 2.366435 46.37722 -9.104383
v 2.605896 46.5431 -8.991906
v -13.24788 46.36617 4.145609
v -14.73016 45.47044 0.5151546
v -14.16798 46.13379 0.5915046
v -13.95918 45.54509 4.441971
v -12.09598 46.22036 7.828261
v -12.71366 45.52802 8.404252
v -13.44027 41.63707 4.579565
v -12.12495 41.68443 8.441915
v -14.08819 41.61152 0.56991
v -13.7966 45.58301 -3.35013
v -13.90967 41.73049 -3.252046
v -13.54692 38.19472 0.6729739
v -13.53678 38.05336 -3.084585
v -12.85684 38.2959 4.653233
v -13.86454 33.86049 0.5842018
v -13.47401 33.63332 -2.824858
v -9.278682 41.46736 10.90148
v -9.163083 45.11541 10.9367
v -11.75627 37.9799 8.453847
v -13.09383 34.0025 4.079851
v -13.12818 31.33386 1.095087
v -12.56073 31.13868 -2.067696
v -5.162642 41.45904 12.70784
v -5.001233 45.11444 12.84139
v -9.21778 37.58564 10.79363
v -11.71193 33.51353 7.530859
v -12.38338 31.46609 4.220937
v -13.78704 24.48544 0.5242805
v -13.00325 24.38959 -2.742357
v -0.6945924 41.85881 14.9897
v -0.6598125 45.7111 15.24816
v -0.7059447 37.91963 14.38147
v -5.32306 37.62063 12.36803
v -1.367279 32.94645 14.10667
v -6.096725 32.06697 12.20527
v -0.6646748 28.00581 15.13138
v -9.467243 33.03695 9.883448
v -5.500137 28.30708 12.10033
v -9.034 29.21574 9.347564
v -10.74336 30.24135 7.152538
v -0.1819191 24.0177 14.18182
v -4.645504 24.33761 11.57168
v -8.530304 24.48844 8.931728
v -11.4441 24.57819 6.539976
v 5.130138 22.67645 15.92757
v 3.78196 27.7337 16.46163
v -13.308 24.56048 3.680725
v -0.9865646 19.44457 13.77256
v -5.516846 19.61706 11.30273
v -9.230606 19.80886 8.829511
v -12.16221 19.8868 6.394421
v -14.07719 19.86201 3.455524
v 2.670223 19.55018 15.17417
v -14.60045 19.79048 0.247694
v -13.82489 19.69141 -3.056593
v -15.52852 14.40092 0.3274059
v -14.67573 14.31274 -3.23753
v -14.9189 14.48521 3.775368
v -12.99451 14.50211 6.902847
v -9.953959 14.49608 9.446943
v -19.32874 6.045685 0.6915092
v -18.25564 6.289299 -3.529829
v -18.58223 6.076092 5.11661
v -16.36893 6.049106 9.229736
v -6.00254 14.30621 12.00538
v -13.06991 6.423664 12.53586
v -1.806417 13.89182 14.67926
v -8.645542 7.096741 15.27372
v 2.029842 14.24012 16.49524
v -3.41695 7.893322 18.80887
v 3.369101 10.27993 19.13405
v 2.701241 14.39143 17.20685
v -5.828491 2.982124 20.35495
v -3.352673 2.284679 21.76358
v -10.00448 2.030846 17.10251
v -7.032657 -0.6845779 21.6367
v -4.319717 -1.536556 23.27135
v -3.912494 -3.345127 21.84797
v -7.362436 -2.389416 20.28896
v -12.19335 -1.095566 17.90867
v -11.82677 -1.863022 17.80124
v -16.15366 -1.086025 15.53427
v -15.95351 -2.225807 15.36776
v -20.77337 -1.890217 11.41793
v -14.83957 2.059105 14.25107
v -18.53976 2.079445 10.31081
v -22.89718 -1.890217 6.172379
v -20.70595 2.092937 5.645055
v -23.79568 -1.890217 0.7779884
v -19.2137 5.6101 -2.020258
v -21.22378 2.195564 -1.499352
v -23.43479 -1.808098 -1.554796
v -20.86477 2.0495 -3.277004
v -23.05265 -1.725975 -3.885063
v -19.56009 4.472992 -3.08746
v -18.29841 5.77956 -4.295362
v -16.49641 6.14053 -8.324152
v -16.239 6.41264 -8.07375
v -14.76843 9.987019 -7.594608
v -21.84373 4.234032 -5.601437
v -22.4302 2.29488 -5.195599
v -23.75144 -1.755463 -5.509514
v -22.48331 2.315323 -5.767635
v -23.791 -1.760391 -6.16305
v -22.14617 -1.744816 -11.515
v -20.06277 2.130627 -11.02256
v 4.806406 46.76029 -12.71436
v 3.828886 46.14971 -12.51082
v 3.940385 45.84713 -13.09312
v 4.914318 46.02966 -13.71073
v 5.282223 42.32394 -13.80264
v 5.133207 47.04462 -12.80866
v 5.403829 46.1596 -13.90662
v 8.238795 46.04507 -13.33271
v 7.441659 42.77068 -14.08977
v -1.330811 42.04848 -12.78159
v -1.191309 45.0097 -12.62446
v 3.861416 39.02384 -13.14229
v 7.882241 39.32547 -12.95306
v -5.693344 41.59739 -11.95474
v -5.359524 45.29987 -11.29585
v -0.8422298 37.83104 -13.16862
v -9.447346 41.6129 -9.799744
v -8.823576 45.32784 -9.547278
v -5.200102 37.86132 -11.98819
v -12.08214 41.90085 -6.72606
v -11.49327 45.3548 -6.551281
v -9.047333 37.88033 -9.701237
v -13.90967 41.73049 -3.252046
v -13.7966 45.58301 -3.35013
v -13.53678 38.05336 -3.084585
v -11.9961 37.91268 -6.620987
v -13.47401 33.63332 -2.824858
v -11.60804 33.48599 -6.16904
v -12.56073 31.13868 -2.067696
v -9.049564 33.32805 -9.164055
v -10.76074 30.89481 -5.216917
v -13.00325 24.38959 -2.742357
v -5.322177 32.99434 -11.32255
v -8.239084 29.94807 -8.489997
v -10.98992 24.25902 -5.901085
v -13.82489 19.69141 -3.056593
v -0.8826466 32.86688 -12.14424
v -4.696241 28.76902 -10.70846
v -7.822443 24.1423 -8.689795
v -11.75696 19.58422 -6.25906
v -14.67573 14.31274 -3.23753
v 2.443825 33.85307 -11.85123
v -0.190691 28.32908 -11.45985
v -3.774868 24.02671 -10.57826
v -12.50576 14.24321 -6.696064
v -18.25564 6.289299 -3.529829
v -14.76843 9.987019 -7.594608
v -8.513007 19.48611 -9.078648
v -9.107742 14.20073 -9.264845
v -4.363518 19.42567 -11.16698
v 0.7472477 23.946 -11.26916
v 2.302834 28.30807 -11.23454
v 6.035192 33.74642 -11.64653
v -10.81269 10.75935 -10.69468
v -4.791063 14.22108 -12.08061
v 0.2504005 19.40236 -12.1455
v 3.996568 23.81848 -11.03298
v -11.95783 8.256924 -11.55384
v -16.239 6.41264 -8.07375
v -7.981527 7.990582 -14.84885
v -6.984993 10.06797 -14.08582
v -3.661266 7.339043 -16.6431
v -2.398886 10.03041 -15.61837
v 0.6733589 6.364971 -16.55299
v -0.03976631 14.26556 -13.21526
v 4.204577 19.30864 -11.85534
v 3.777364 14.10929 -12.69288
v 7.882116 18.43211 -11.32158
v 7.510765 13.98664 -12.04507
v 6.996063 23.767 -10.85231
v 7.242325 6.442257 -16.2263
v 2.974098 2.362053 -18.06271
v 7.231215 2.224777 -17.73902
v 9.387571 -1.987595 -19.27127
v -2.900314 2.255188 -18.22758
v 2.593987 -2.122044 -19.89545
v -2.922089 -2.167873 -19.29934
v 4.77542 28.31342 -11.05578
v 8.142227 28.87088 -10.60316
v 9.969747 23.55746 -10.34418
v 10.24891 32.84397 -12.33512
v 13.48143 28.40434 -11.84897
v 13.98448 23.91647 -12.15068
v 14.33247 16.9171 -8.286636
v 15.63483 20.31859 -9.965927
v 13.43595 32.48895 -11.90128
v 13.62413 37.25634 -12.60534
v 10.34928 37.56466 -12.96114
v 13.09721 40.80875 -13.01529
v 10.95062 41.16611 -12.41018
v 3.311193 47.05544 -8.607231
v 2.605896 46.5431 -8.991906
v 3.828886 46.14971 -12.51082
v 4.806406 46.76029 -12.71436
v -3.269165 -3.194588 -18.14893
v 2.593987 -2.122044 -19.89545
v -2.922089 -2.167873 -19.29934
v 2.465557 -2.978241 -19.13834
v 9.387571 -1.987595 -19.27127
v 9.028141 -3.115246 -18.37329
v 12.38202 -1.817951 -17.13976
v 11.9156 -2.886452 -16.02143
v 2.517503 -3.457352 -12.74859
v 10.59292 -3.47805 -11.92729
v -5.234291 -3.904099 -11.41893
v 17.44313 -3.355835 -10.54688
v 15.10269 -3.1823 -16.40961
v 2.591081 -3.99535 -6.334717
v -6.353039 -3.930466 -5.202899
v 11.68462 -3.993881 -6.097145
v -10.76377 -3.721134 -10.36373
v -14.23156 -3.630127 -4.37141
v -6.53951 -3.388317 0.7328033
v 2.591949 -3.993881 0.6355362
v -15.42866 -3.110008 0.777092
v 20.25145 -3.169426 -13.23254
v 21.84313 -1.996201 -14.44108
v 15.99568 -2.108822 -17.42638
v 25.95104 -1.950592 -9.891781
v 24.23459 -3.102158 -9.132896
v 28.1166 -1.916412 -4.636276
v 19.68887 -3.333523 -5.303289
v 26.79578 -3.039264 -4.363207
v 29.02689 -1.915005 0.7709484
v 12.05857 -4.000217 0.6345921
v 27.65644 -3.042873 0.7747364
v 28.11709 -2.036488 6.162384
v 20.35452 -3.362995 0.7287083
v 26.78452 -3.1814 5.893616
v 25.89231 -2.352417 11.36722
v 19.64946 -3.554821 6.736727
v 11.60639 -3.570793 7.431512
v 2.525079 -3.413601 7.696946
v 24.17686 -3.509125 10.60699
v 21.66524 -2.942833 15.82092
v 17.63148 -3.782776 12.53574
v 10.4642 -3.525002 15.59816
v 20.12406 -4.066043 14.71764
v 16.44482 -2.362579 20.56277
v 15.62577 -3.562038 19.42989
v 14.50679 -2.012035 21.63527
v 14.18865 -3.091454 20.95716
v 8.969052 -3.497238 23.98999
v 2.483471 -3.159996 16.0003
v 2.491052 -3.071728 24.78368
v 2.541241 -1.96273 25.81495
v 9.272788 -2.386841 25.00653
v -4.319717 -1.536556 23.27135
v -3.912494 -3.345127 21.84797
v -5.390722 -3.050579 13.63659
v -7.362436 -2.389416 20.28896
v -6.292324 -3.18132 7.14583
v -12.64014 -3.000347 12.31064
v -14.69124 -2.995907 6.81929
v -11.48764 -2.804806 16.82838
v -11.82677 -1.863022 17.80124
v -15.90852 -3.005905 14.143
v -15.95351 -2.225807 15.36776
v -20.77337 -1.890217 11.41793
v -19.23362 -2.99147 10.68325
v -22.89718 -1.890217 6.172379
v -21.75528 -2.99147 5.918377
v -23.79568 -1.890217 0.7779884
v -22.61146 -2.99147 0.7833824
v -23.43479 -1.808098 -1.554796
v -22.18317 -2.992485 -1.784891
v -23.05265 -1.725975 -3.885063
v -21.75996 -3.002274 -4.351759
v -23.75144 -1.755463 -5.509514
v -22.67991 -2.652706 -5.362078
v -23.791 -1.760391 -6.16305
v -22.14617 -1.744816 -11.515
v -21.61795 -2.625053 -10.54782
v -19.29111 -3.040256 -9.617458
v -15.06018 -3.143887 -13.73698
v -17.16444 -2.72546 -16.17813
v -14.13561 -3.467583 -17.24173
v -12.79401 -3.551697 -14.58852
v -9.924252 -3.507953 -16.09858
v -11.44147 -3.217537 -18.45135
v -5.350426 -3.067676 -19.98577
v -1.367279 32.94645 14.10667
v 3.78196 27.7337 16.46163
v -0.6646748 28.00581 15.13138
v 3.314989 33.22844 15.77884
v -0.7059447 37.91963 14.38147
v 3.494969 38.20833 15.56881
v -0.6945924 41.85881 14.9897
v 3.40023 42.26662 16.23466
v -0.6598125 45.7111 15.24816
v 3.444534 46.25101 16.62192
v 7.15402 42.26406 15.3043
v 7.337837 46.2187 15.68723
v 7.338179 38.28294 14.97053
v 7.536226 33.01559 15.69959
v 7.836723 27.87661 16.46654
v 11.54908 41.9487 13.74352
v 11.8298 45.9679 14.0375
v 11.52025 38.00124 13.495
v 11.60108 32.58128 14.12535
v 15.33988 41.77518 10.56535
v 15.57717 45.85953 10.73121
v 15.29898 37.76324 10.46631
v 18.31013 41.82187 7.096562
v 18.43523 45.95427 7.076073
v 8.407473 23.07257 16.24717
v 5.130138 22.67645 15.92757
v 8.431877 22.42312 16.69035
v 13.01687 22.0167 14.41968
v 13.6707 22.40548 13.28598
v 17.128 20.03355 10.01101
v 12.52085 27.37067 13.95983
v 17.27359 22.00764 8.587575
v 16.12069 26.96964 10.37722
v 20.64118 41.84689 3.808163
v 20.67302 45.97756 3.719514
v 21.61228 41.83214 0.2283192
v 21.56004 45.9809 0.1273575
v 21.40289 38.08934 0.633194
v 20.4877 38.09496 4.217474
v 21.20935 33.02959 0.8744011
v 18.28059 37.72633 7.39033
v 20.46275 32.26467 4.273996
v 20.56937 26.59569 0.09640217
v 18.70033 32.3228 7.414959
v 20.08565 26.48886 3.527494
v 21.0163 21.7101 -0.2722759
v 15.41007 32.26338 11.22106
v 18.80036 26.68396 6.592651
v 20.52048 21.6169 3.03323
v 21.23928 17.27605 -0.3405552
v 18.95221 21.78933 6.267154
v 20.72063 17.25515 3.188221
v 22.41203 12.58797 -0.08612061
v 19.08282 17.61485 6.789079
v 21.80985 12.50949 3.7687
v 25.77167 5.745487 0.6191311
v 19.89734 12.63319 7.275251
v 18.42483 12.71629 11.15141
v 24.99652 5.650047 5.099637
v 27.65036 1.837708 0.7457094
v 22.65485 5.576572 9.22982
v 18.93143 5.633457 13.6865
v 26.48427 1.760971 5.630832
v 28.11709 -2.036488 6.162384
v 29.02689 -1.915005 0.7709484
v 25.89231 -2.352417 11.36722
v 24.17907 1.537529 10.28499
v 21.66524 -2.942833 15.82092
v 20.2262 1.427643 14.51653
v 16.44482 -2.362579 20.56277
v 14.86533 1.576557 19.65402
v 14.50679 -2.012035 21.63527
v 14.12522 5.778107 18.00017
v 9.272788 -2.386841 25.00653
v 14.18865 -3.091454 20.95716
v 8.969052 -3.497238 23.98999
v 8.942354 1.79744 22.9842
v 2.541241 -1.96273 25.81495
v 13.99324 14.26401 17.65821
v 18.28263 13.91967 14.21237
v 8.744288 5.962833 20.97341
v 2.728521 1.977905 23.54661
v -4.319717 -1.536556 23.27135
v -3.352673 2.284679 21.76358
v -3.41695 7.893322 18.80887
v 3.000982 5.940262 21.29202
v 3.369101 10.27993 19.13405
v 9.3998 14.6553 19.52868
v 4.227034 10.94548 20.61083
v 3.723038 10.26335 20.7826
v 3.756526 14.87579 19.43273
v 3.780694 19.54731 18.4808
v 8.807294 18.93312 18.77426
v 13.51719 18.42245 16.76557
v 16.44984 20.21471 13.95755
v 17.02323 20.03912 12.41106
v 13.69791 20.68132 16.52177
v 8.74877 21.24213 18.83546
v 5.717104 21.41477 18.80611
v 13.5909 21.67688 15.59492
v 8.673635 22.08349 17.84832
v 18.93143 5.633457 13.6865
v 18.28263 13.91967 14.21237
v 18.42483 12.71629 11.15141
v 17.02323 20.03912 12.41106
v 17.128 20.03355 10.01101
v -5.257113 6.419235 -19.15073
v -6.441196 6.102954 -19.54509
v -5.750679 2.309868 -20.07106
v -4.666599 2.430122 -19.67363
v -3.416882 6.282646 -17.63581
v -2.900314 2.255188 -18.22758
v 0.6733589 6.364971 -16.55299
v -2.922089 -2.167873 -19.29934
v -4.733656 -2.028233 -20.37376
v -5.74744 -2.225464 -20.60548
v -5.350426 -3.067676 -19.98577
v -3.269165 -3.194588 -18.14893
v 10.95062 41.16611 -12.41018
v 13.09721 40.80875 -13.01529
v 16.62622 41.18675 -10.25528
v 15.34906 41.63967 -9.241478
v 19.63493 41.15602 -7.267164
v 18.46558 41.65193 -6.511597
v 21.51925 38.68649 -4.097679
v 20.49834 39.68689 -3.200264
v 20.23462 22.23148 -3.22369
v 20.37939 20.5175 -5.030558
v 19.32094 18.50457 -3.884428
v 21.15365 22.69135 -4.291647
v 20.23986 27.27999 -3.261017
v 21.54876 26.99937 -4.54031
v 19.99877 27.20654 -2.272924
v 20.19184 22.00981 -2.37196
v 20.78886 31.24097 -1.603916
v 20.94139 31.14495 -2.283958
v 21.9383 30.90853 -3.638979
v 22.09861 33.94164 -3.654962
v 21.12883 34.13734 -2.325581
v 20.9777 34.21584 -1.881756
v 20.49834 39.68689 -3.200264
v 21.51925 38.68649 -4.097679
v 9.969747 23.55746 -10.34418
v 6.996063 23.767 -10.85231
v 7.882116 18.43211 -11.32158
v 11.41681 17.84215 -10.04412
v 7.510765 13.98664 -12.04507
v 7.242325 6.442257 -16.2263
v 10.98286 5.987896 -14.98787
v 7.231215 2.224777 -17.73902
v 11.70634 1.62542 -16.16875
v 12.38202 -1.817951 -17.13976
v 9.387571 -1.987595 -19.27127
v -1.780519 47.40093 -3.021109
v -1.679137 47.72002 -2.566184
v -4.62495 47.39699 -2.479213
v -4.671366 47.22567 -2.667974
v -7.843232 46.97858 -2.391226
v -4.858733 46.66633 -3.045293
v -2.374593 46.48933 -3.751721
v 0.6419011 46.77032 -6.134784
v 1.287116 47.30752 -5.732861
v 0.4022819 46.56663 -6.271637
v 3.311193 47.05544 -8.607231
v 2.366435 46.37722 -9.104383
v 2.605896 46.5431 -8.991906
v -11.44147 -3.217537 -18.45135
v -5.350426 -3.067676 -19.98577
v -5.74744 -2.225464 -20.60548
v -12.33533 -0.8948898 -19.56701
v -14.13561 -3.467583 -17.24173
v -14.38801 -0.6534233 -18.64467
v -17.16444 -2.72546 -16.17813
v -12.12685 -0.04893875 -19.37808
v -11.37428 2.34766 -18.76719
v -5.750679 2.309868 -20.07106
v -6.441196 6.102954 -19.54509
v -17.34948 -1.074974 -16.78349
v -21.61795 -2.625053 -10.54782
v -22.14617 -1.744816 -11.515
v -17.3529 -0.55756 -16.89358
v -20.06277 2.130627 -11.02256
v -14.02503 -0.02243423 -18.78062
v -15.47867 2.440708 -15.59859
v -15.70607 6.98711 -15.58225
v -19.25603 5.09269 -11.23208
v -11.25184 6.914059 -18.57008
v -7.19903 6.473289 -19.10532
v -5.257113 6.419235 -19.15073
v -6.027889 7.09285 -18.69051
v 3.777364 14.10929 -12.69288
v -0.03976631 14.26556 -13.21526
v -2.398886 10.03041 -15.61837
v 0.6733589 6.364971 -16.55299
v 8.431877 22.42312 16.69035
v 5.357744 22.03905 17.78014
v 5.130138 22.67645 15.92757
v 8.673635 22.08349 17.84832
v 5.717104 21.41477 18.80611
v 8.74877 21.24213 18.83546
v 13.01687 22.0167 14.41968
v 13.5909 21.67688 15.59492
v 17.128 20.03355 10.01101
v 17.02323 20.03912 12.41106
v 13.69791 20.68132 16.52177
v 16.44984 20.21471 13.95755
v 11.9156 -2.886452 -16.02143
v 15.10269 -3.1823 -16.40961
v 15.99568 -2.108822 -17.42638
v 12.38202 -1.817951 -17.13976
v 11.70634 1.62542 -16.16875
v 15.34994 1.994297 -16.11338
v 13.77973 6.184883 -14.77835
v 10.98286 5.987896 -14.98787
v 12.4873 13.78875 -10.86765
v 3.780694 19.54731 18.4808
v 5.357744 22.03905 17.78014
v 5.717104 21.41477 18.80611
v 3.520401 19.56929 16.23217
v 3.363007 14.81695 19.14962
v 3.756526 14.87579 19.43273
v 4.227034 10.94548 20.61083
v 3.693863 10.54531 20.28044
v 3.723038 10.26335 20.7826
v 3.000982 5.940262 21.29202
v -21.84373 4.234032 -5.601437
v -18.29841 5.77956 -4.295362
v -19.56009 4.472992 -3.08746
v -20.53946 5.515137 -6.743873
v -20.95994 5.397945 -6.962555
v -18.0162 5.980354 -9.923901
v -19.25603 5.09269 -11.23208
v -15.70607 6.98711 -15.58225
v -16.49641 6.14053 -8.324152
v -14.2756 7.608982 -13.952
v -11.25184 6.914059 -18.57008
v -12.33844 7.894264 -11.96494
v -16.239 6.41264 -8.07375
v -11.95783 8.256924 -11.55384
v -9.954352 7.619122 -17.14825
v -7.19903 6.473289 -19.10532
v -6.027889 7.09285 -18.69051
v -8.281393 7.698853 -15.18694
v -7.981527 7.990582 -14.84885
v -4.481058 7.124065 -17.07128
v -3.661266 7.339043 -16.6431
v 0.6733589 6.364971 -16.55299
v -3.416882 6.282646 -17.63581
v -5.257113 6.419235 -19.15073
v -19.25603 5.09269 -11.23208
v -20.95994 5.397945 -6.962555
v -21.84373 4.234032 -5.601437
v -20.06277 2.130627 -11.02256
vn -0.8364388 0.5247627 0.1580958
vn -0.9284292 0.342262 -0.1444851
vn -0.806874 0.3301947 -0.4898222
vn 0.2581757 0.8949106 -0.3639786
vn 0.6744453 0.4143377 -0.6111038
vn 0.2927753 0.9239608 -0.2461282
vn 0.6057444 0.3428407 -0.718007
vn 0.2026173 0.8839034 -0.4214984
vn 0.4730661 0.3481942 -0.8093017
vn 0.5120879 0.5673792 -0.6448619
vn 0.7176053 0.4859251 -0.4989183
vn 0.2555926 0.15282 -0.95463
vn 0.8443179 0.4170581 -0.3364372
vn 0.1717762 -0.07244136 -0.9824689
vn 0.2152275 0.4340996 -0.874777
vn 0.03362647 -0.1640129 -0.9858849
vn 0.8994411 -0.1246906 -0.4188769
vn 0.8874301 0.4571101 0.05931358
vn 0.9981487 -0.04550248 0.04035638
vn 0.9876546 0.1338332 -0.08140723
vn 0.9986075 -0.03902552 0.03549735
vn 0.9982097 0.01465155 0.05798848
vn 0.9979147 -0.05465464 0.03433876
vn 0.9928808 -0.1147272 0.03202001
vn 0.9975739 -0.06925998 -0.007021134
vn 0.9989918 -0.009586293 -0.04385657
vn 0.9830534 -0.02686582 -0.1813399
vn 0.991644 0.05351041 -0.1173832
vn 0.9300289 -0.04584716 -0.3646154
vn 0.9399297 -0.1578118 0.3027006
vn 0.9788044 0.1770663 -0.1029049
vn 0.8475466 0.3821225 -0.368303
vn 0.9313638 0.3629169 -0.0292036
vn 0.8577878 0.4231361 -0.2918149
vn 0.9028087 0.4298573 0.01261628
vn 0.875454 0.3982781 -0.2737789
vn 0.9199685 0.3915381 0.01886393
vn 0.9722264 -0.2339594 0.006229512
vn 0.9253133 -0.2596381 -0.2763756
vn 0.7451854 0.4245483 -0.5142545
vn 0.8075883 -0.2618715 -0.528417
vn 0.7183455 0.4134534 -0.5594962
vn 0.5533905 0.4196817 -0.7194625
vn 0.6038072 -0.2603241 -0.7534244
vn 0.650999 0.4202713 -0.6321174
vn 0.5308294 0.4183166 -0.7370422
vn 0.2453541 0.3593839 -0.900358
vn 0.2304105 -0.2593452 -0.9378971
vn 0.2245343 0.4068376 -0.8854759
vn 0.4789964 0.439893 -0.7596424
vn 0.3521256 0.381317 -0.8547543
vn 0.6898262 0.08542674 -0.7189173
vn 0.9245008 -0.3358142 -0.1803527
vn 0.4451863 0.06207107 -0.893284
vn 0.7069296 -0.3585127 -0.6096878
vn 0.2969838 -0.4292172 -0.8529791
vn 0.7854417 -0.1677871 -0.5957589
vn 0.983425 -0.1601658 0.08498354
vn 0.9901439 -0.1196447 0.07280259
vn 0.6261603 -0.1636673 -0.762323
vn 0.06820253 -0.2140461 -0.9744397
vn 0.8287259 -0.08033833 -0.5538584
vn 0.8506005 -0.004695617 -0.5257915
vn 0.9782701 -0.1249084 0.1654861
vn 0.9920525 0.04695163 0.1167364
vn 0.939551 0.3246383 0.108876
vn 0.6263814 -0.02939912 -0.7789622
vn 0.08874104 -0.05469428 -0.994552
vn 0.6030087 -0.01438801 -0.7976049
vn 0.2699898 -0.05454917 -0.9613168
vn 0.8278797 0.06206148 -0.5574617
vn 0.7134587 0.6110806 -0.3428663
vn 0.6340623 0.006442802 -0.7732551
vn 0.3304876 -0.06413161 -0.9416289
vn 0.4895288 0.6262059 -0.6068178
vn 0.2419582 0.5066778 -0.8274865
vn 0.2927753 0.9239608 -0.2461282
vn 0.6744453 0.4143377 -0.6111038
vn 0.8443179 0.4170581 -0.3364372
vn 0.3910035 0.9113245 -0.1288561
vn 0.8874301 0.4571101 0.05931358
vn 0.3595158 0.9322937 0.03971113
vn 0.819307 0.4467109 0.3594238
vn 0.3412587 0.924281 0.1710178
vn 0.7295185 0.4210442 0.5390032
vn 0.3028689 0.9208517 0.245566
vn 0.669767 0.3740391 0.6414881
vn 0.2855339 0.9180368 0.275098
vn 0.4881415 0.3564753 0.796645
vn 0.2163045 0.9190546 0.3294711
vn 0.2707164 0.3967846 0.877083
vn 0.07237185 0.9934488 0.08844116
vn 0.1120922 0.9452196 0.3065867
vn -0.05055851 0.4070558 0.912003
vn 0.09093866 0.9917501 0.09034349
vn 0.09795541 0.9948642 0.02549758
vn -0.06095608 0.9372932 0.3431703
vn -0.4004687 0.3984881 0.8251254
vn 0.03161035 0.9980406 0.05399823
vn -0.2414443 0.9135428 0.3273289
vn -0.4292296 0.4241161 0.7974255
vn 0.05081742 0.9928799 0.1077356
vn -0.03413572 0.9971855 0.06675241
vn 0.0692304 0.9975793 -0.0065371
vn -0.2386818 0.909158 0.3412665
vn -0.4461471 0.4174044 0.7916605
vn -0.1124422 0.984338 0.1357772
vn -0.02574465 0.9949379 0.09713779
vn 0.02507013 0.9994853 0.02001639
vn 0.04327559 0.9958242 -0.08038277
vn 0.2581757 0.8949106 -0.3639786
vn 0.2026173 0.8839034 -0.4214984
vn -0.1731112 0.9089656 0.3792281
vn -0.7478964 0.3725163 0.5494385
vn -0.3397191 0.8933317 0.294193
vn -0.1030083 0.9805516 0.1670566
vn -0.08578248 0.9911199 0.1016006
vn -0.1165793 0.9902336 0.07646356
vn -0.4345434 0.892859 0.1182151
vn 0.01210056 0.9992161 -0.03769318
vn -0.01346832 0.9996318 0.02355574
vn -0.1372512 0.9905103 -0.007165479
vn -0.5053604 0.8628808 -0.006909607
vn -0.07007589 0.9975384 -0.002533993
vn 0.008145352 0.9948403 -0.1011255
vn -0.01753574 0.9988101 -0.045507
vn 0.09402055 0.9056473 -0.4134768
vn 0.4730661 0.3481942 -0.8093017
vn 0.2152275 0.4340996 -0.874777
vn -0.2604996 0.9445207 -0.2000517
vn -0.2427439 0.8701299 -0.4288931
vn -0.1628284 0.4296746 -0.8881817
vn -0.5510286 0.7243765 -0.4143021
vn -0.4992165 0.8080546 -0.3127791
vn -0.1881479 0.9546234 -0.2308562
vn -0.4069979 0.8160976 -0.4102893
vn -0.1139522 0.9621161 -0.2476845
vn -0.2758481 0.7848678 -0.5548788
vn -0.129726 0.9273289 -0.3510446
vn -0.08940538 0.9840114 -0.1540401
vn -0.3984877 0.890659 -0.2189386
vn -0.02525665 0.989933 -0.1392653
vn -0.07219335 0.8521748 -0.518253
vn -0.197375 0.8789086 -0.434238
vn -0.8516212 0.3896678 -0.3505714
vn -0.9545329 0.2981003 -0.001767856
vn -0.6986325 0.4533918 -0.5534877
vn -0.300644 0.894348 -0.3312929
vn -0.5310798 0.4893122 -0.691757
vn -0.2207811 0.922352 -0.3170528
vn -0.3073978 0.4935451 -0.8135846
vn -0.1399949 0.9168773 -0.3738147
vn -0.1904027 0.4455744 -0.874763
vn -0.1331264 0.9069812 -0.3995779
vn -0.3741743 0.4532142 -0.8090677
vn -0.3596465 0.8379713 -0.4104371
vn -0.07992548 0.9896623 -0.1190821
vn -0.2911465 0.9140391 -0.2824294
vn -0.2971303 0.9267185 -0.2300139
vn -0.4659369 0.8281695 -0.3115095
vn -0.4345434 0.892859 0.1182151
vn -0.9545329 0.2981003 -0.001767856
vn -0.5053604 0.8628808 -0.006909607
vn -0.9226896 0.3048454 0.2360367
vn -0.3397191 0.8933317 0.294193
vn -0.7478964 0.3725163 0.5494385
vn -0.9616491 -0.1382441 0.2368958
vn -0.8243782 -0.08740082 0.559251
vn -0.9910703 -0.1259402 0.04380384
vn -0.8516212 0.3896678 -0.3505714
vn -0.9563149 -0.0477267 -0.2884164
vn -0.9959788 -0.05348128 0.07187464
vn -0.9671915 -0.06463825 -0.2456879
vn -0.9662668 -0.07094554 0.2475788
vn -0.9904716 -0.1279344 0.05097793
vn -0.9387394 -0.2080133 -0.2747707
vn -0.5276952 -0.0355671 0.8486888
vn -0.4461471 0.4174044 0.7916605
vn -0.8338094 -0.08465757 0.5455227
vn -0.9562677 -0.1161176 0.2684563
vn -0.9941401 -0.1002157 0.04052358
vn -0.9352468 -0.1507491 -0.320294
vn -0.4203978 -0.04846642 0.9060445
vn -0.4292296 0.4241161 0.7974255
vn -0.5623814 -0.06674949 0.8241794
vn -0.8536898 -0.16758 0.4930827
vn -0.9371122 -0.1140956 0.329853
vn -0.9902769 0.1361323 -0.02863018
vn -0.9127858 0.1407179 -0.3834327
vn -0.363333 -0.092034 0.9271024
vn -0.4004687 0.3984881 0.8251254
vn -0.3469443 -0.05437218 0.9363084
vn -0.415857 -0.0419396 0.9084625
vn -0.3721405 0.04240082 0.9272075
vn -0.499495 -0.04709321 0.8650358
vn -0.4053868 -0.07431432 0.9111196
vn -0.6528665 -0.1392483 0.7445638
vn -0.5471557 -0.1305276 0.8267909
vn -0.6746562 -0.1438603 0.7239773
vn -0.8175853 -0.1209214 0.5629674
vn -0.4153229 -0.1169364 0.9021268
vn -0.5410966 -0.08762788 0.8363826
vn -0.6262637 -0.02655636 0.7791589
vn -0.7648332 0.05046605 0.6422487
vn -0.389023 0.3057398 0.8690134
vn -0.1765936 -0.02079541 0.9840642
vn -0.927187 0.1088051 0.3584492
vn -0.4344744 0.115306 0.8932729
vn -0.5209859 0.109919 0.8464582
vn -0.5913 0.118125 0.7977537
vn -0.7445225 0.1343666 0.6539357
vn -0.925342 0.1550879 0.3459623
vn -0.5273013 0.1880409 0.8286096
vn -0.984589 0.1694853 -0.04311914
vn -0.904932 0.170817 -0.3897687
vn -0.9539424 0.2977841 -0.03631051
vn -0.8876621 0.2948965 -0.3536837
vn -0.8935962 0.30531 0.3290467
vn -0.7308829 0.3156139 0.605143
vn -0.5757874 0.3240024 0.7506607
vn -0.8840526 0.4673689 -0.00416301
vn -0.8241456 0.4916189 -0.2812383
vn -0.838349 0.4629591 0.2878193
vn -0.7084571 0.4744864 0.5224473
vn -0.5060353 0.3481612 0.789121
vn -0.5590357 0.4705641 0.6826774
vn -0.424993 0.3937944 0.8150502
vn -0.5097799 0.4797678 0.7141059
vn -0.5295464 0.3377958 0.7781225
vn -0.3807192 0.4984829 0.7788246
vn -0.7284254 0.3154293 0.6081947
vn -0.8635512 0.1585522 0.4786862
vn -0.473726 0.4500009 0.7570224
vn -0.2912238 0.445422 0.8466333
vn -0.5258435 0.4702861 0.7087451
vn -0.5517727 0.01995068 0.8337559
vn -0.4226962 -0.1197383 0.8983266
vn -0.2606407 -0.8920051 0.3693147
vn -0.3858992 -0.7994745 0.4603503
vn -0.5395338 0.07641094 0.8384895
vn -0.4332238 -0.5693067 0.6987181
vn -0.595254 0.1547439 0.7884967
vn -0.4692993 -0.5481327 0.6923212
vn -0.8179384 -0.1804154 0.5462848
vn -0.5494612 0.4916117 0.6755815
vn -0.7122684 0.5089959 0.4833187
vn -0.9461868 -0.1635504 0.2792521
vn -0.8277818 0.4986292 0.2571893
vn -0.9887988 -0.1490843 0.007134482
vn -0.7992411 0.5739354 -0.1783587
vn -0.8610437 0.4867188 -0.1473385
vn -0.9766664 -0.1379084 -0.1646331
vn -0.8733398 0.4416815 0.2054143
vn -0.9596094 -0.2134582 0.1832633
vn -0.8038142 0.5922651 0.05572098
vn -0.6277932 0.7739409 -0.08301332
vn -0.4048888 0.9117023 -0.06974319
vn -0.7083608 0.6062978 -0.3614249
vn -0.7268277 0.4376729 -0.5293052
vn -0.8364388 0.5247627 0.1580958
vn -0.8752158 0.3220029 0.360987
vn -0.930041 -0.2581275 0.2615225
vn -0.9284292 0.342262 -0.1444851
vn -0.9620116 -0.2328391 -0.1425468
vn -0.8489063 -0.1038106 -0.5182485
vn -0.806874 0.3301947 -0.4898222
vn -0.5510286 0.7243765 -0.4143021
vn -0.3596465 0.8379713 -0.4104371
vn -0.3741743 0.4532142 -0.8090677
vn -0.5177282 0.3250811 -0.7913784
vn -0.06007184 -0.05922605 -0.9964355
vn -0.2427439 0.8701299 -0.4288931
vn -0.1628284 0.4296746 -0.8881817
vn 0.2152275 0.4340996 -0.874777
vn 0.1717762 -0.07244136 -0.9824689
vn -0.1767106 0.06220431 -0.9822953
vn -0.1904027 0.4455744 -0.874763
vn 0.007714456 -0.1719445 -0.9850765
vn 0.03362647 -0.1640129 -0.9858849
vn -0.3718191 0.06096782 -0.926301
vn -0.3073978 0.4935451 -0.8135846
vn -0.09709153 -0.1108498 -0.9890832
vn -0.6316577 0.04780524 -0.7737721
vn -0.5310798 0.4893122 -0.691757
vn -0.3605507 -0.07649367 -0.9295977
vn -0.8164563 0.03226117 -0.5765051
vn -0.6986325 0.4533918 -0.5534877
vn -0.6245331 -0.08581294 -0.7762696
vn -0.9563149 -0.0477267 -0.2884164
vn -0.8516212 0.3896678 -0.3505714
vn -0.9671915 -0.06463825 -0.2456879
vn -0.8257856 -0.08072947 -0.5581765
vn -0.9387394 -0.2080133 -0.2747707
vn -0.8113936 -0.2423974 -0.5318684
vn -0.9352468 -0.1507491 -0.320294
vn -0.651353 -0.2043288 -0.7307455
vn -0.8126269 -0.1777087 -0.5550289
vn -0.9127858 0.1407179 -0.3834327
vn -0.3765438 -0.1725278 -0.9101917
vn -0.6447185 -0.152344 -0.7490857
vn -0.7664475 0.1190899 -0.6311702
vn -0.904932 0.170817 -0.3897687
vn -0.05588236 -0.1707258 -0.9837326
vn -0.3491833 -0.1292278 -0.9281008
vn -0.5733932 0.07417849 -0.8159153
vn -0.7406188 0.1560543 -0.6535525
vn -0.8876621 0.2948965 -0.3536837
vn 0.08340487 -0.1865319 -0.9789022
vn -0.04013943 -0.0954487 -0.9946248
vn -0.3049521 0.0530651 -0.9508882
vn -0.72181 0.3158025 -0.6158403
vn -0.8241456 0.4916189 -0.2812383
vn -0.7268277 0.4376729 -0.5293052
vn -0.5529921 0.144949 -0.8204813
vn -0.55206 0.3383289 -0.7620783
vn -0.3352269 0.1681098 -0.9270179
vn -0.03354086 0.06996547 -0.9969854
vn 0.0794402 -0.06892312 -0.9944541
vn -0.02858667 -0.1956054 -0.980266
vn -0.5508861 0.4936105 -0.6729585
vn -0.3569621 0.3790094 -0.853774
vn -0.05389778 0.1840781 -0.9814328
vn 0.08589786 0.0733879 -0.9935974
vn -0.5368797 0.6464223 -0.542124
vn -0.7083608 0.6062978 -0.3614249
vn -0.3275012 0.685195 -0.6505772
vn -0.3857059 0.512175 -0.7674033
vn 0.008275233 0.6219856 -0.782985
vn -0.05935574 0.4495166 -0.8912978
vn 0.1088671 0.3762761 -0.9200893
vn -0.01974684 0.3329734 -0.9427294
vn 0.1208555 0.1595786 -0.9797595
vn 0.1295254 0.2978613 -0.9457811
vn 0.2226578 0.1352532 -0.9654688
vn 0.1959286 0.3181131 -0.9275861
vn 0.1548879 0.05743511 -0.9862611
vn 0.1956053 0.3869657 -0.9011083
vn 0.04778376 0.367713 -0.9287109
vn 0.204971 0.3666725 -0.9074901
vn 0.3452386 -0.1577381 -0.9251643
vn 0.3272328 0.2440785 -0.912877
vn 0.0139861 -0.1884496 -0.9819833
vn 0.2375737 -0.3245353 -0.915552
vn 0.0984138 -0.06280334 -0.9931619
vn -0.05953854 -0.1339696 -0.9891953
vn 0.01219827 -0.08816452 -0.9960312
vn -0.07847339 -0.1837793 -0.9798301
vn 0.08874104 -0.05469428 -0.994552
vn 0.06820253 -0.2140461 -0.9744397
vn 0.4451863 0.06207107 -0.893284
vn 0.2969838 -0.4292172 -0.8529791
vn 0.2699898 -0.05454917 -0.9613168
vn 0.3304876 -0.06413161 -0.9416289
vn -0.03141652 -0.05999557 -0.9977041
vn 0.2419582 0.5066778 -0.8274865
vn 0.2555926 0.15282 -0.95463
vn -0.4992165 0.8080546 -0.3127791
vn -0.4659369 0.8281695 -0.3115095
vn -0.3596465 0.8379713 -0.4104371
vn -0.5510286 0.7243765 -0.4143021
vn 0.07970726 -0.9417624 -0.3266962
vn 0.0139861 -0.1884496 -0.9819833
vn 0.2375737 -0.3245353 -0.915552
vn 0.002042226 -0.8859951 -0.46369
vn 0.3452386 -0.1577381 -0.9251643
vn 0.1868453 -0.8779975 -0.4406919
vn 0.2083307 -0.2103008 -0.9551816
vn 0.1267451 -0.9333026 -0.3359791
vn 0.0131571 -0.9974153 -0.07063721
vn 0.02346865 -0.9968436 -0.07584219
vn 0.001171942 -0.9985042 -0.05466274
vn 0.03811871 -0.9981785 -0.04676155
vn 0.02575466 -0.8984443 -0.4383316
vn -0.00244676 -0.9997039 -0.02421067
vn -0.0238556 -0.9994934 0.02107104
vn 0.03706284 -0.9985344 -0.03943849
vn -0.04865678 -0.9982545 -0.03347469
vn -0.0528703 -0.9982897 0.02494866
vn -0.03465579 -0.9978729 0.05521367
vn -0.0224704 -0.9988168 0.04312647
vn -0.02651716 -0.9985895 0.04599862
vn 0.2023079 -0.9445376 -0.2586895
vn 0.6038072 -0.2603241 -0.7534244
vn 0.2304105 -0.2593452 -0.9378971
vn 0.8075883 -0.2618715 -0.528417
vn 0.2723229 -0.9456234 -0.1778667
vn 0.9253133 -0.2596381 -0.2763756
vn 0.05610541 -0.9982436 -0.01902556
vn 0.3513927 -0.9301427 -0.1065727
vn 0.9722264 -0.2339594 0.006229512
vn 0.0294605 -0.9993538 0.02059235
vn 0.3890406 -0.9211392 -0.0122529
vn 0.9310463 -0.2273422 0.2854267
vn 0.05204305 -0.9986296 -0.005520522
vn 0.3592481 -0.9300875 0.0766684
vn 0.8183392 -0.2390997 0.5226396
vn 0.03066401 -0.9994429 -0.01317366
vn -0.005334787 -0.9997264 0.02277698
vn -0.02771259 -0.9986867 0.04309126
vn 0.2806449 -0.9511751 0.1284698
vn 0.6794714 -0.3056072 0.6670254
vn -0.02864978 -0.9992862 -0.02462345
vn -0.02365515 -0.9995647 0.01762946
vn 0.1788933 -0.9681303 0.1752739
vn 0.5768183 -0.2205848 0.7865259
vn 0.1554614 -0.9384899 0.3083319
vn 0.5170876 -0.116639 0.847948
vn 0.2412365 -0.8795865 0.4100397
vn 0.1447439 -0.8954748 0.4209207
vn -0.02153362 -0.9997503 0.005968594
vn -0.1005907 -0.8826146 0.4592091
vn -0.1133566 -0.1132127 0.9870832
vn 0.319216 -0.1436736 0.9367278
vn -0.4226962 -0.1197383 0.8983266
vn -0.2606407 -0.8920051 0.3693147
vn -0.02951891 -0.999166 0.02821484
vn -0.3858992 -0.7994745 0.4603503
vn -0.02938663 -0.9990441 0.03236139
vn -0.001071703 -0.9996573 0.02615753
vn -0.01290146 -0.9998341 0.01285564
vn -0.1645593 -0.9329324 0.3202459
vn -0.4332238 -0.5693067 0.6987181
vn -0.2084493 -0.9393315 0.2724064
vn -0.4692993 -0.5481327 0.6923212
vn -0.8179384 -0.1804154 0.5462848
vn -0.2764133 -0.9400914 0.1995591
vn -0.9461868 -0.1635504 0.2792521
vn -0.3589307 -0.9264902 0.1130691
vn -0.9887988 -0.1490843 0.007134482
vn -0.4116142 -0.9112419 0.01455647
vn -0.9766664 -0.1379084 -0.1646331
vn -0.4039963 -0.9134923 -0.04815363
vn -0.9596094 -0.2134582 0.1832633
vn -0.3349238 -0.9422116 0.007958512
vn -0.930041 -0.2581275 0.2615225
vn -0.500147 -0.8634944 0.06504222
vn -0.9620116 -0.2328391 -0.1425468
vn -0.8489063 -0.1038106 -0.5182485
vn -0.4560659 -0.8616443 -0.2226501
vn -0.1236462 -0.990661 -0.05746808
vn -0.1384923 -0.9900181 -0.02615717
vn -0.4204028 -0.7779011 -0.4670454
vn -0.2726271 -0.8506357 -0.4495479
vn -0.07250652 -0.9968964 -0.03066709
vn 0.001468975 -0.9967926 -0.08001517
vn -0.1617416 -0.8329721 -0.5291476
vn 0.1106413 -0.8132662 -0.5712764
vn -0.3721405 0.04240082 0.9272075
vn -0.1765936 -0.02079541 0.9840642
vn -0.4053868 -0.07431432 0.9111196
vn -0.1396461 0.09166951 0.9859491
vn -0.3469443 -0.05437218 0.9363084
vn -0.07160522 -0.04213925 0.9965425
vn -0.363333 -0.092034 0.9271024
vn -0.03633952 -0.1131647 0.9929115
vn -0.4004687 0.3984881 0.8251254
vn -0.05055851 0.4070558 0.912003
vn 0.2724277 -0.09529137 0.9574459
vn 0.2707164 0.3967846 0.877083
vn 0.2452646 0.008605747 0.969418
vn 0.2200247 0.1171586 0.9684333
vn 0.21883 0.04137038 0.9748856
vn 0.4911753 -0.07272732 0.8680193
vn 0.4881415 0.3564753 0.796645
vn 0.4947792 0.03520661 0.8683053
vn 0.5138966 0.09583467 0.8524823
vn 0.700737 -0.03985876 0.7123054
vn 0.669767 0.3740391 0.6414881
vn 0.6861411 0.04208891 0.7262499
vn 0.7907121 -0.002761377 0.6121821
vn 0.7295185 0.4210442 0.5390032
vn 0.2137446 0.3232894 0.9218445
vn -0.389023 0.3057398 0.8690134
vn 0.1101435 0.8682544 0.4837383
vn 0.4241203 0.8277623 0.3673302
vn 0.6995465 0.2287292 0.6769916
vn 0.8776775 0.3269799 0.3503803
vn 0.5835252 0.03450725 0.8113616
vn 0.8171384 0.1076252 0.5663053
vn 0.7570419 -0.003311309 0.653358
vn 0.9104125 0.002358665 0.4136948
vn 0.819307 0.4467109 0.3594238
vn 0.9981487 -0.04550248 0.04035638
vn 0.8874301 0.4571101 0.05931358
vn 0.9986075 -0.03902552 0.03549735
vn 0.9117141 0.009416069 0.4107174
vn 0.9979147 -0.05465464 0.03433876
vn 0.786225 0.04036903 0.6166202
vn 0.9357551 -0.04445292 0.3498378
vn 0.9989918 -0.009586293 -0.04385657
vn 0.8192305 0.000889061 0.5734637
vn 0.9553856 -0.02200543 0.2945404
vn 0.991644 0.05351041 -0.1173832
vn 0.6985396 0.04848202 0.7139272
vn 0.8568392 -0.03131986 0.5146314
vn 0.9590176 0.05528581 0.2779004
vn 0.9788044 0.1770663 -0.1029049
vn 0.87874 0.05736105 0.4738415
vn 0.9458061 0.1505282 0.2877363
vn 0.9313638 0.3629169 -0.0292036
vn 0.8941978 0.1654768 0.415966
vn 0.8895312 0.3475938 0.296501
vn 0.9028087 0.4298573 0.01261628
vn 0.8499014 0.3022024 0.4316726
vn 0.9453884 0.2153926 0.2446361
vn 0.8511049 0.4233165 0.3105215
vn 0.9199685 0.3915381 0.01886393
vn 0.7742279 0.3894789 0.4988761
vn 0.7350379 0.2736188 0.6203645
vn 0.8610468 0.4050474 0.3074656
vn 0.9310463 -0.2273422 0.2854267
vn 0.9722264 -0.2339594 0.006229512
vn 0.8183392 -0.2390997 0.5226396
vn 0.7427275 0.4134937 0.5266678
vn 0.6794714 -0.3056072 0.6670254
vn 0.6542395 0.3929914 0.6461644
vn 0.5768183 -0.2205848 0.7865259
vn 0.5501927 0.3923432 0.7371262
vn 0.5170876 -0.116639 0.847948
vn 0.5612832 0.2214238 0.7974539
vn 0.319216 -0.1436736 0.9367278
vn 0.2412365 -0.8795865 0.4100397
vn 0.1447439 -0.8954748 0.4209207
vn 0.2818404 0.4415249 0.8518344
vn -0.1133566 -0.1132127 0.9870832
vn 0.5305545 0.1367144 0.8365531
vn 0.888572 0.1434798 0.4357217
vn 0.2697056 0.2853059 0.9197062
vn -0.07284524 0.469504 0.8799202
vn -0.4226962 -0.1197383 0.8983266
vn -0.2912238 0.445422 0.8466333
vn -0.3807192 0.4984829 0.7788246
vn -0.12119 0.4014921 0.907809
vn -0.7284254 0.3154293 0.6081947
vn 0.2324572 0.1779059 0.9561973
vn -0.2373584 0.2443393 0.9401911
vn -0.5664927 0.3094929 0.7637409
vn -0.3335509 0.2066276 0.9198092
vn -0.6756583 0.2999852 0.6734202
vn 0.1863524 0.09720763 0.9776623
vn 0.5232008 0.1423996 0.8402281
vn 0.7217028 0.4785638 0.5001219
vn 0.8091138 0.574226 0.1248978
vn 0.5507138 0.3929453 0.7364159
vn 0.1945314 0.394053 0.8982648
vn -0.220436 0.4527457 0.8639614
vn 0.4150297 0.8517582 0.3197786
vn 0.1504537 0.8692175 0.4709828
vn 0.7350379 0.2736188 0.6203645
vn 0.888572 0.1434798 0.4357217
vn 0.9453884 0.2153926 0.2446361
vn 0.8091138 0.574226 0.1248978
vn 0.8776775 0.3269799 0.3503803
vn 0.3927642 0.5157815 -0.7613841
vn -0.02799336 0.3714587 -0.9280274
vn 0.05675024 0.1502102 -0.9870239
vn 0.459552 0.1668326 -0.872341
vn 0.3777593 0.5033855 -0.7771106
vn 0.3272328 0.2440785 -0.912877
vn 0.1088671 0.3762761 -0.9200893
vn 0.2375737 -0.3245353 -0.915552
vn 0.4309877 -0.2108297 -0.8773826
vn 0.01149822 -0.2279894 -0.9735957
vn 0.1106413 -0.8132662 -0.5712764
vn 0.07970726 -0.9417624 -0.3266962
vn 0.2555926 0.15282 -0.95463
vn 0.2419582 0.5066778 -0.8274865
vn 0.4895288 0.6262059 -0.6068178
vn 0.5120879 0.5673792 -0.6448619
vn 0.7134587 0.6110806 -0.3428663
vn 0.7176053 0.4859251 -0.4989183
vn 0.939551 0.3246383 0.108876
vn 0.9876546 0.1338332 -0.08140723
vn 0.9399297 -0.1578118 0.3027006
vn 0.9245008 -0.3358142 -0.1803527
vn 0.9300289 -0.04584716 -0.3646154
vn 0.983425 -0.1601658 0.08498354
vn 0.8758026 -0.1322161 0.4642075
vn 0.9901439 -0.1196447 0.07280259
vn 0.9975739 -0.06925998 -0.007021134
vn 0.9830534 -0.02686582 -0.1813399
vn 0.9928808 -0.1147272 0.03202001
vn 0.887135 -0.1477696 0.4372135
vn 0.9782701 -0.1249084 0.1654861
vn 0.9920525 0.04695163 0.1167364
vn 0.8923723 0.05923411 0.4473959
vn 0.9982097 0.01465155 0.05798848
vn 0.9876546 0.1338332 -0.08140723
vn 0.939551 0.3246383 0.108876
vn 0.01219827 -0.08816452 -0.9960312
vn 0.1548879 0.05743511 -0.9862611
vn 0.2226578 0.1352532 -0.9654688
vn 0.4045366 0.1779748 -0.8970369
vn 0.1959286 0.3181131 -0.9275861
vn 0.1956053 0.3869657 -0.9011083
vn 0.2012548 0.3626064 -0.9099523
vn 0.204971 0.3666725 -0.9074901
vn 0.1958541 0.3359801 -0.921281
vn 0.2083307 -0.2103008 -0.9551816
vn 0.3452386 -0.1577381 -0.9251643
vn -0.2758481 0.7848678 -0.5548788
vn -0.1139522 0.9621161 -0.2476845
vn -0.129726 0.9273289 -0.3510446
vn -0.125013 0.7016206 -0.7014987
vn -0.08940538 0.9840114 -0.1540401
vn -0.07219335 0.8521748 -0.518253
vn -0.197375 0.8789086 -0.434238
vn -0.4331803 0.7980079 -0.4189728
vn -0.4069979 0.8160976 -0.4102893
vn -0.2911465 0.9140391 -0.2824294
vn -0.4992165 0.8080546 -0.3127791
vn -0.2971303 0.9267185 -0.2300139
vn -0.4659369 0.8281695 -0.3115095
vn -0.1617416 -0.8329721 -0.5291476
vn 0.1106413 -0.8132662 -0.5712764
vn 0.01149822 -0.2279894 -0.9735957
vn -0.2837042 -0.1447871 -0.947918
vn -0.2726271 -0.8506357 -0.4495479
vn -0.4380005 -0.1904027 -0.8785798
vn -0.4204028 -0.7779011 -0.4670454
vn -0.2270729 0.2311958 -0.9460372
vn -0.3448569 0.1956148 -0.9180461
vn 0.05675024 0.1502102 -0.9870239
vn -0.02799336 0.3714587 -0.9280274
vn -0.5898968 -0.2837765 -0.7559714
vn -0.4560659 -0.8616443 -0.2226501
vn -0.8489063 -0.1038106 -0.5182485
vn -0.632535 0.2427144 -0.7355198
vn -0.806874 0.3301947 -0.4898222
vn -0.4296816 0.3265329 -0.8418729
vn -0.6416201 0.2982928 -0.7066435
vn -0.5973635 0.5960595 -0.5365351
vn -0.7461659 0.5216516 -0.4136619
vn -0.3028248 0.5390569 -0.7859483
vn -0.1522319 0.5736496 -0.8048301
vn 0.3927642 0.5157815 -0.7613841
vn 0.1288765 0.874779 -0.4670678
vn 0.1295254 0.2978613 -0.9457811
vn -0.01974684 0.3329734 -0.9427294
vn -0.05935574 0.4495166 -0.8912978
vn 0.1088671 0.3762761 -0.9200893
vn 0.1101435 0.8682544 0.4837383
vn -0.4419464 0.7939225 0.4175767
vn -0.389023 0.3057398 0.8690134
vn 0.1504537 0.8692175 0.4709828
vn -0.220436 0.4527457 0.8639614
vn 0.1945314 0.394053 0.8982648
vn 0.4241203 0.8277623 0.3673302
vn 0.4150297 0.8517582 0.3197786
vn 0.8776775 0.3269799 0.3503803
vn 0.8091138 0.574226 0.1248978
vn 0.5507138 0.3929453 0.7364159
vn 0.7217028 0.4785638 0.5001219
vn 0.1267451 -0.9333026 -0.3359791
vn 0.02575466 -0.8984443 -0.4383316
vn 0.2304105 -0.2593452 -0.9378971
vn 0.2083307 -0.2103008 -0.9551816
vn 0.1958541 0.3359801 -0.921281
vn 0.2453541 0.3593839 -0.900358
vn 0.2245343 0.4068376 -0.8854759
vn 0.2012548 0.3626064 -0.9099523
vn 0.3521256 0.381317 -0.8547543
vn -0.6756583 0.2999852 0.6734202
vn -0.4419464 0.7939225 0.4175767
vn -0.220436 0.4527457 0.8639614
vn -0.8376877 0.3531045 0.4166491
vn -0.8365298 0.1243421 0.5336263
vn -0.3335509 0.2066276 0.9198092
vn -0.2373584 0.2443393 0.9401911
vn -0.8842043 0.2446405 0.3979117
vn -0.5664927 0.3094929 0.7637409
vn -0.12119 0.4014921 0.907809
vn -0.8364388 0.5247627 0.1580958
vn -0.6277932 0.7739409 -0.08301332
vn -0.8038142 0.5922651 0.05572098
vn -0.3643633 0.9228775 0.1246459
vn -0.7109267 0.6957241 -0.102719
vn -0.3230129 0.9462588 -0.01602969
vn -0.7461659 0.5216516 -0.4136619
vn -0.5973635 0.5960595 -0.5365351
vn -0.4048888 0.9117023 -0.06974319
vn -0.2443985 0.967958 -0.0576762
vn -0.3028248 0.5390569 -0.7859483
vn -0.3070562 0.9375202 -0.1636229
vn -0.7083608 0.6062978 -0.3614249
vn -0.5368797 0.6464223 -0.542124
vn -0.04410814 0.9612966 -0.2719619
vn -0.1522319 0.5736496 -0.8048301
vn 0.1288765 0.874779 -0.4670678
vn -0.098376 0.9498016 -0.2969832
vn -0.3275012 0.685195 -0.6505772
vn 0.16217 0.8885893 -0.4290803
vn 0.008275233 0.6219856 -0.782985
vn 0.1088671 0.3762761 -0.9200893
vn 0.3777593 0.5033855 -0.7771106
vn 0.3927642 0.5157815 -0.7613841
vn -0.7461659 0.5216516 -0.4136619
vn -0.7109267 0.6957241 -0.102719
vn -0.8364388 0.5247627 0.1580958
vn -0.806874 0.3301947 -0.4898222
vt 0.3866449 0.7463426
vt 0.369998 0.742862
vt 0.369998 0.78143
vt 0.5094432 0.4318921
vt 0.5451385 0.440883
vt 0.5421196 0.4315993
vt 0.5084307 0.4414567
vt 0.4783806 0.4315993
vt 0.4754166 0.4406349
vt 0.5070345 0.4800819
vt 0.5421551 0.482341
vt 0.4616328 0.480752
vt 0.5787832 0.4470417
vt 0.4318377 0.4643492
vt 0.4428155 0.4370381
vt 0.4399176 0.4940184
vt 0.57717 0.4843844
vt 0.6043763 0.4476069
vt 0.6032681 0.4830107
vt 0.5739127 0.5005645
vt 0.6028345 0.5147312
vt 0.5823769 0.547526
vt 0.6007889 0.5576982
vt 0.5816236 0.5727224
vt 0.5708749 0.606514
vt 0.5890018 0.6120693
vt 0.56876 0.6509728
vt 0.5867429 0.6540905
vt 0.5524029 0.6802272
vt 0.5636441 0.6491559
vt 0.5853713 0.6920702
vt 0.5619738 0.730333
vt 0.5913068 0.7329588
vt 0.5773998 0.7928663
vt 0.6114156 0.7939379
vt 0.5842242 0.8279626
vt 0.6209012 0.8287439
vt 0.6269783 0.8618318
vt 0.5871322 0.8613624
vt 0.5408867 0.8264395
vt 0.5411577 0.8601636
vt 0.5362905 0.7908185
vt 0.4899965 0.8229027
vt 0.4887461 0.85748
vt 0.5266379 0.7251123
vt 0.4915184 0.7876968
vt 0.4433315 0.818356
vt 0.4365205 0.8539084
vt 0.4451087 0.7813191
vt 0.4950559 0.7194857
vt 0.4666736 0.7152902
vt 0.5240993 0.6943854
vt 0.5520164 0.6639643
vt 0.4952025 0.6899779
vt 0.5260684 0.6675106
vt 0.493457 0.662097
vt 0.5342587 0.63972
vt 0.5622045 0.6460176
vt 0.5649685 0.6096199
vt 0.5011086 0.6343636
vt 0.4718966 0.6302083
vt 0.5447322 0.6122359
vt 0.5543956 0.5673165
vt 0.5748853 0.5765659
vt 0.5771872 0.5508384
vt 0.5734209 0.509948
vt 0.5056129 0.606217
vt 0.4732121 0.5915357
vt 0.507032 0.561846
vt 0.474639 0.556682
vt 0.5487651 0.5196542
vt 0.5436611 0.487536
vt 0.508258 0.5231741
vt 0.473539 0.5162239
vt 0.5075129 0.4850081
vt 0.4696896 0.485539
vt 0.9825821 0.07245041
vt 0.990987 0.06699543
vt 0.9827961 0.03408815
vt 0.9753157 0.04231111
vt 0.9600245 0.01300431
vt 0.9518392 0.02359015
vt 0.9306229 0.001217767
vt 0.925184 0.01206187
vt 0.8961097 4.091932E-09
vt 0.8924311 0.009376205
vt 0.8564289 0.001606067
vt 0.8561617 0.01013922
vt 0.8147053 0.01112609
vt 0.8162231 0.01854352
vt 0.7807589 0.03409337
vt 0.8545489 0.02366146
vt 0.7860949 0.0410831
vt 0.7547991 0.05648521
vt 0.893269 0.03599113
vt 0.9276032 0.05527231
vt 0.762625 0.06241282
vt 0.7438937 0.09191453
vt 0.8130352 0.04416595
vt 0.7519185 0.09544296
vt 0.73899 0.134158
vt 0.852652 0.06248001
vt 0.7882753 0.08030399
vt 0.9531578 0.07833263
vt 0.7493181 0.1362914
vt 0.7314275 0.1726093
vt 0.7771537 0.1312148
vt 0.8246488 0.1067812
vt 0.8945286 0.09434839
vt 0.9702244 0.1071812
vt 0.9879118 0.1046931
vt 0.990198 0.136001
vt 0.7419745 0.169909
vt 0.7312381 0.2099249
vt 0.7382521 0.2084697
vt 0.7626483 0.1721427
vt 0.8057375 0.1619221
vt 0.7822846 0.1989631
vt 0.7580761 0.2348743
vt 0.9258039 0.1198599
vt 0.8602796 0.1307773
vt 0.8104902 0.2200316
vt 0.7782072 0.2590469
vt 0.8384858 0.1792345
vt 0.9510384 0.1471507
vt 0.8897001 0.1573324
vt 0.9786785 0.1699328
vt 1 0.1363692
vt 0.9869947 0.1728776
vt 0.9291118 0.1828851
vt 0.9675395 0.1923515
vt 0.9768017 0.1954472
vt 0.9652822 0.1941684
vt 0.9290222 0.1860145
vt 0.8984601 0.182219
vt 0.8989004 0.1856962
vt 0.8627532 0.1916165
vt 0.8643745 0.1937888
vt 0.8466768 0.2079124
vt 0.830458 0.2299375
vt 0.8092012 0.2698307
vt 0.8648787 0.2408381
vt 0.848206 0.2101476
vt 0.8648767 0.1956988
vt 0.8075223 0.2761967
vt 0.7760017 0.2633749
vt 0.8413107 0.2761967
vt 0.84152 0.2711967
vt 0.8754821 0.2726128
vt 0.8740265 0.2681347
vt 0.9049531 0.2572724
vt 0.9024922 0.2540602
vt 0.9350537 0.2349531
vt 0.9312705 0.2310708
vt 0.9643908 0.2001761
vt 0.9597524 0.1980235
vt 0.8981705 0.2151515
vt 0.8988815 0.1903488
vt 0.928397 0.1909425
vt 0.9287506 0.1893077
vt 0.1798038 0.4585165
vt 0.2133111 0.4662571
vt 0.2112056 0.4601146
vt 0.1792582 0.4662707
vt 0.1467745 0.459961
vt 0.143698 0.4666303
vt 0.1769969 0.4990608
vt 0.1420695 0.498772
vt 0.2114067 0.4984851
vt 0.2424608 0.4630701
vt 0.2421474 0.4959688
vt 0.2093447 0.5270652
vt 0.2400067 0.5269436
vt 0.1750626 0.526948
vt 0.2111085 0.564187
vt 0.2379493 0.5645591
vt 0.1146654 0.4988013
vt 0.1138943 0.4676854
vt 0.141211 0.5299292
vt 0.1805734 0.5634772
vt 0.2051687 0.5851572
vt 0.2295413 0.585177
vt 0.08931314 0.495633
vt 0.08762072 0.4644459
vt 0.1155869 0.5317127
vt 0.1488605 0.5675423
vt 0.1777204 0.5844256
vt 0.2118755 0.6438094
vt 0.2365336 0.6427449
vt 0.05915058 0.4888299
vt 0.05675451 0.4561315
vt 0.06434674 0.5221229
vt 0.09269644 0.528303
vt 0.06854739 0.5649357
vt 0.09630123 0.5761967
vt 0.05862212 0.6066438
vt 0.1238929 0.5703066
vt 0.09581262 0.6075694
vt 0.1273469 0.6022036
vt 0.1496209 0.5943226
vt 0.06533476 0.6397687
vt 0.09812958 0.6403333
vt 0.1296853 0.6417809
vt 0.1567162 0.6429214
vt 0.037464 0.6467884
vt 0.036319 0.6052411
vt 0.1848649 0.6438249
vt 0.07098225 0.6792678
vt 0.1028106 0.6811977
vt 0.1325623 0.6821943
vt 0.1599935 0.6834369
vt 0.1889245 0.6844207
vt 0.050112 0.6754211
vt 0.2164684 0.6843991
vt 0.2414553 0.6833565
vt 0.2184829 0.7311273
vt 0.2453985 0.7298283
vt 0.1887551 0.7310432
vt 0.1582605 0.7301835
vt 0.1296549 0.7282652
vt 0.2257254 0.8058733
vt 0.2574162 0.8013163
vt 0.1876694 0.8064603
vt 0.1483847 0.8060469
vt 0.09859516 0.7270585
vt 0.1128719 0.8009158
vt 0.06597374 0.7275711
vt 0.07908481 0.7919894
vt 0.04124539 0.721637
vt 0.03670953 0.7815354
vt 0.01645072 0.754974
vt 0.03369775 0.7199678
vt 0.03054831 0.826104
vt 0.01270399 0.8301988
vt 0.06791135 0.8369825
vt 0.02337155 0.8588628
vt 0.003078786 0.8641276
vt 0.01374384 0.8786252
vt 0.03531236 0.8731979
vt 0.06712709 0.8659068
vt 0.06709902 0.8720502
vt 0.09671629 0.8687196
vt 0.09761833 0.8781648
vt 0.1422688 0.8784626
vt 0.1036483 0.8402919
vt 0.1453522 0.8422207
vt 0.1905706 0.8786252
vt 0.1890285 0.8425112
vt 0.2369311 0.8775836
vt 0.2475931 0.8085205
vt 0.2486921 0.8396269
vt 0.2550446 0.87573
vt 0.2622894 0.8399096
vt 0.2730829 0.8738574
vt 0.2572572 0.8181418
vt 0.263803 0.8054231
vt 0.2920378 0.7992501
vt 0.2893163 0.7967818
vt 0.2814336 0.7651734
vt 0.2836794 0.8214421
vt 0.2819752 0.8386242
vt 0.2881484 0.8741971
vt 0.2867818 0.8383003
vt 0.2935867 0.8740477
vt 0.3330478 0.8704966
vt 0.3234624 0.8357565
vt 0.8151565 0.434221
vt 0.8089484 0.4428251
vt 0.8121803 0.4452444
vt 0.8206393 0.4408032
vt 0.825875 0.4722239
vt 0.8178562 0.4315991
vt 0.8250437 0.4393709
vt 0.844636 0.4389299
vt 0.8432451 0.4671946
vt 0.7715294 0.4783168
vt 0.7703366 0.4529721
vt 0.814349 0.501301
vt 0.8442448 0.4965975
vt 0.7352486 0.4846655
vt 0.7332239 0.4529748
vt 0.7791089 0.5140144
vt 0.6983278 0.4869421
vt 0.7000571 0.4549153
vt 0.7412523 0.5163124
vt 0.6663387 0.4864566
vt 0.6682422 0.4566641
vt 0.7031155 0.5186332
vt 0.6392696 0.4895255
vt 0.638341 0.456534
vt 0.643557 0.5207701
vt 0.6688415 0.5205012
vt 0.6455379 0.5585448
vt 0.6725876 0.5581929
vt 0.6510613 0.5795038
vt 0.703621 0.557623
vt 0.6769209 0.5800475
vt 0.6540266 0.6372778
vt 0.7405301 0.5580786
vt 0.7091703 0.5861858
vt 0.6814919 0.6367373
vt 0.6515695 0.6777999
vt 0.7777062 0.5566322
vt 0.7453694 0.5939515
vt 0.7163821 0.6355255
vt 0.6796054 0.6770223
vt 0.6487659 0.7241753
vt 0.8015077 0.5464724
vt 0.78296 0.595152
vt 0.7545961 0.6339945
vt 0.6785329 0.7229748
vt 0.6269783 0.7945922
vt 0.6670106 0.760389
vt 0.7151878 0.6756047
vt 0.7143126 0.7210447
vt 0.7549089 0.6735115
vt 0.7918822 0.6321281
vt 0.8012076 0.5940323
vt 0.8282866 0.5454906
vt 0.7086166 0.7511016
vt 0.7580266 0.7180392
vt 0.7939562 0.6710532
vt 0.8159347 0.6315141
vt 0.7045146 0.7729397
vt 0.6595788 0.791629
vt 0.7476012 0.7724794
vt 0.7511691 0.7543349
vt 0.7878469 0.7753977
vt 0.7921124 0.7519125
vt 0.8212383 0.7814061
vt 0.7986796 0.7148995
vt 0.8231813 0.6697814
vt 0.8260101 0.714278
vt 0.849805 0.6753903
vt 0.852205 0.7134371
vt 0.8382424 0.6303747
vt 0.8702472 0.7772748
vt 0.846828 0.8140931
vt 0.8782699 0.8130367
vt 0.9029575 0.8475866
vt 0.8025395 0.8181332
vt 0.8533891 0.8522729
vt 0.8089239 0.8557373
vt 0.8194566 0.5926903
vt 0.8432027 0.5862005
vt 0.8591995 0.630659
vt 0.8636649 0.5508107
vt 0.8890655 0.5870904
vt 0.8965843 0.625106
vt 0.8885314 0.6854182
vt 0.9029575 0.6553535
vt 0.886619 0.5522096
vt 0.8880489 0.5112518
vt 0.8641529 0.5103132
vt 0.883572 0.4811115
vt 0.8646424 0.4793221
vt 0.3844753 0.4561315
vt 0.3765632 0.458802
vt 0.3760185 0.4843474
vt 0.384935 0.4843474
vt 0.3355987 0.1319055
vt 0.3670992 0.1736798
vt 0.3458891 0.1311791
vt 0.3606207 0.1749759
vt 0.382319 0.2300608
vt 0.3740161 0.2299452
vt 0.3741274 0.2604296
vt 0.3637384 0.2601059
vt 0.3094708 0.1944567
vt 0.3269214 0.2617275
vt 0.2757067 0.1362273
vt 0.3362387 0.3208156
vt 0.3763376 0.2845593
vt 0.2581902 0.2141881
vt 0.2224752 0.1457548
vt 0.2833586 0.2878919
vt 0.2507761 0.09496625
vt 0.1923489 0.08496119
vt 0.174282 0.1618829
vt 0.2022383 0.2349461
vt 0.1474655 0.09063499
vt 0.3661637 0.3353474
vt 0.3806296 0.3444263
vt 0.3871816 0.288609
vt 0.3563416 0.3909416
vt 0.3451144 0.3795207
vt 0.320601 0.4239686
vt 0.3008322 0.3544517
vt 0.3144523 0.4142747
vt 0.2799042 0.4473735
vt 0.2304321 0.3109354
vt 0.2757693 0.43648
vt 0.2339124 0.4561315
vt 0.2543909 0.3777555
vt 0.2320779 0.4447321
vt 0.185499 0.4537949
vt 0.2040575 0.3899986
vt 0.1745319 0.3275042
vt 0.1453653 0.2553824
vt 0.1864696 0.4378598
vt 0.137148 0.4331724
vt 0.1514919 0.3910834
vt 0.1055733 0.3426445
vt 0.1413919 0.417612
vt 0.08355109 0.4053338
vt 0.09018117 0.3954887
vt 0.06917863 0.3929397
vt 0.07365187 0.3884592
vt 0.03375576 0.3556235
vt 0.07859065 0.2797468
vt 0.008105481 0.3059492
vt 3.296157E-09 0.3093276
vt 0.02652347 0.3609933
vt -5.054894E-09 0.2466436
vt 0.01260022 0.2458292
vt 0.07412302 0.2094917
vt 0.01486376 0.2134126
vt 0.1235411 0.1829417
vt 0.0631835 0.1473466
vt 0.1011591 0.114533
vt 0.03035252 0.1700311
vt 0.02155316 0.1701248
vt 0.03874251 0.1265658
vt 0.02879328 0.1297844
vt 0.04615729 0.07930613
vt 0.05661609 0.08957294
vt 0.08194306 0.04664107
vt 0.08735852 0.05514519
vt 0.1225719 0.02336885
vt 0.1260311 0.03298497
vt 0.1423749 0.01931388
vt 0.1479234 0.028777
vt 0.162221 0.01543695
vt 0.1697891 0.02453323
vt 0.1731802 0.004993848
vt 0.1751679 0.01411089
vt 0.1783086 0.002731086
vt 0.2261698 -1.196843E-08
vt 0.2199596 0.007194683
vt 0.2194102 0.02867821
vt 0.2650752 0.0503858
vt 0.2784155 0.02619099
vt 0.295956 0.04740122
vt 0.2786498 0.06607677
vt 0.2993174 0.08461384
vt 0.3136933 0.06540544
vt 0.34415 0.1097193
vt 0.6557792 0.1083821
vt 0.6329182 0.1578
vt 0.6573049 0.1515189
vt 0.6312869 0.1103058
vt 0.6511528 0.0666761
vt 0.62762 0.06792554
vt 0.6529991 0.03348434
vt 0.6304594 0.03367442
vt 0.6529748 0.0008565183
vt 0.6309696 -2.887037E-08
vt 0.5996485 0.03591065
vt 0.5991715 0.002588414
vt 0.597807 0.06975289
vt 0.6014823 0.1151414
vt 0.6045945 0.1595324
vt 0.5613269 0.04092814
vt 0.5597154 0.007077666
vt 0.561385 0.07437608
vt 0.5654322 0.1209241
vt 0.519181 0.04340705
vt 0.5172208 0.008899651
vt 0.5200809 0.07747749
vt 0.4812651 0.0432547
vt 0.4791527 0.008154005
vt 0.6008466 0.2007243
vt 0.6222551 0.201539
vt 0.6030482 0.2065154
vt 0.5599126 0.2120546
vt 0.5496304 0.2085946
vt 0.5099391 0.2294934
vt 0.5596261 0.1658606
vt 0.501335 0.2120082
vt 0.5168745 0.1699145
vt 0.4487104 0.0429218
vt 0.4469123 0.007730482
vt 0.424219 0.0417787
vt 0.422942 0.006365408
vt 0.4287148 0.07371338
vt 0.4528403 0.07497726
vt 0.4326525 0.1167809
vt 0.4840525 0.07826175
vt 0.4548992 0.1246253
vt 0.4350418 0.1706605
vt 0.4827315 0.1245822
vt 0.4554278 0.1731108
vt 0.431442 0.2123743
vt 0.5245544 0.1247964
vt 0.479516 0.1722064
vt 0.4512872 0.2146306
vt 0.430768 0.2502471
vt 0.4781925 0.2138067
vt 0.4518576 0.2519944
vt 0.42513 0.2911505
vt 0.4810127 0.249728
vt 0.4484321 0.2935071
vt 0.407048 0.3522327
vt 0.4791034 0.2929983
vt 0.508543 0.2933586
vt 0.4346588 0.3549531
vt 0.395634 0.3869357
vt 0.4714668 0.3561549
vt 0.5195013 0.3554231
vt 0.4279713 0.3894359
vt 0.4202475 0.4232443
vt 0.3871816 0.4198977
vt 0.4616243 0.4271879
vt 0.4671588 0.3922299
vt 0.5133385 0.4315992
vt 0.5157272 0.392627
vt 0.5730917 0.4254813
vt 0.5785375 0.3902974
vt 0.5918332 0.4216803
vt 0.5743636 0.3530785
vt 0.6451615 0.4229273
vt 0.5909958 0.4302646
vt 0.6425573 0.4315992
vt 0.6363087 0.3859499
vt 0.6960424 0.4148714
vt 0.5712568 0.280551
vt 0.5243523 0.2846988
vt 0.626594 0.3492358
vt 0.6824247 0.3802087
vt 0.731238 0.4048552
vt 0.7159731 0.372195
vt 0.7002558 0.3227707
vt 0.6682745 0.3454306
vt 0.6538305 0.307563
vt 0.612475 0.2749138
vt 0.6549657 0.3033348
vt 0.6595222 0.3088705
vt 0.6513385 0.2688833
vt 0.645173 0.2286059
vt 0.6117006 0.2376489
vt 0.5690181 0.2443108
vt 0.5341541 0.229635
vt 0.5225461 0.2306935
vt 0.5659281 0.2250772
vt 0.6117764 0.2179828
vt 0.6327496 0.214294
vt 0.5618144 0.2160128
vt 0.6071843 0.2102211
vt 0.3600655 0.5828925
vt 0.3760185 0.5134203
vt 0.3550653 0.5204434
vt 0.3697035 0.4584347
vt 0.3550653 0.4561315
vt 0.7980044 0.2761967
vt 0.7888588 0.2789013
vt 0.7908294 0.3117797
vt 0.7994969 0.3107228
vt 0.8182049 0.2767278
vt 0.8188509 0.311612
vt 0.848385 0.2761967
vt 0.8135124 0.3500821
vt 0.7962851 0.3492266
vt 0.7891036 0.3508414
vt 0.7956293 0.3576868
vt 0.8192537 0.3579668
vt 0.7684673 0.390567
vt 0.7849784 0.3809389
vt 0.7888587 0.342754
vt 0.7749769 0.3445846
vt 0.7882847 0.3064557
vt 0.7766317 0.3091505
vt 0.7801656 0.2761967
vt 0.7684673 0.2770969
vt 0.3490973 0.6046426
vt 0.3392974 0.6181162
vt 0.3525098 0.6354313
vt 0.3373629 0.6005294
vt 0.3484973 0.5616204
vt 0.3330478 0.5638923
vt 0.3550653 0.5627701
vt 0.3536161 0.6070753
vt 0.3525353 0.5292982
vt 0.3481197 0.5297477
vt 0.3344762 0.5314173
vt 0.3330478 0.5056624
vt 0.3463781 0.5043379
vt 0.3496196 0.5038807
vt 0.3460566 0.4561315
vt 0.3345605 0.4646272
vt 0.4606515 0.6299827
vt 0.4407075 0.625846
vt 0.4400596 0.6720524
vt 0.4679205 0.6798449
vt 0.4311218 0.7096848
vt 0.399039 0.7739731
vt 0.4278783 0.7807756
vt 0.3871816 0.8099852
vt 0.422226 0.818595
vt 0.4181053 0.8485317
vt 0.3874366 0.8476846
vt 0.3803589 0.6820436
vt 0.3832812 0.6815064
vt 0.3801347 0.6597794
vt 0.3785674 0.6601869
vt 0.3724078 0.6354312
vt 0.3699981 0.6605102
vt 0.3703576 0.6820134
vt 0.37283 0.7154307
vt 0.3808795 0.7163423
vt 0.3703956 0.7145846
vt 0.3799377 0.742862
vt 0.3699981 0.7404162
vt 0.3720328 0.7414101
vt 0.9908882 0.6964709
vt 0.9901274 0.6438872
vt 0.9829642 0.6444971
vt 0.9710782 0.6988618
vt 0.9927381 0.7217626
vt 0.9687894 0.7180907
vt 0.9860912 0.7489682
vt 0.9638267 0.697893
vt 0.9432835 0.6941927
vt 0.9440765 0.6460903
vt 0.9115046 0.6530012
vt 0.9720188 0.7479239
vt 0.9843419 0.804502
vt 0.9768848 0.8047965
vt 0.9676014 0.7474799
vt 0.9437708 0.7902833
vt 0.9634236 0.7147251
vt 0.9418945 0.7377064
vt 0.9029575 0.7390528
vt 0.9184821 0.7829967
vt 0.904175 0.6935382
vt 0.9082412 0.6604485
vt 0.9088205 0.6453784
vt 0.9029575 0.6529718
vt 0.3605546 0.756511
vt 0.3378938 0.76754
vt 0.3330479 0.8134294
vt 0.3605546 0.8351704
vt 0.3514343 0.6642309
vt 0.3480565 0.6365334
vt 0.3330478 0.6417898
vt 0.3612002 0.6617043
vt 0.3572281 0.6354312
vt 0.3689703 0.6585852
vt 0.3514224 0.7080656
vt 0.3625849 0.7080218
vt 0.3330478 0.7565109
vt 0.3510569 0.7465767
vt 0.3699981 0.7053875
vt 0.3607542 0.7362832
vt 0.731238 0.4200247
vt 0.7565463 0.4261925
vt 0.7684672 0.4186817
vt 0.7402917 0.4121604
vt 0.7357721 0.3816653
vt 0.7637087 0.3824191
vt 0.7519504 0.344409
vt 0.731238 0.3432031
vt 0.7368693 0.2761967
vt 0.02025237 0.6755576
vt 0.02178365 0.6526421
vt 0.01251253 0.6579713
vt 0.03928213 0.6748291
vt 0.01610828 0.7164068
vt 0.01277993 0.7156354
vt 0.002148621 0.7490245
vt 0.006240176 0.7528129
vt 0.002079226 0.7553587
vt -1.458423E-08 0.7929752
vt 0.9450154 0.4315992
vt 0.9712691 0.4505692
vt 0.9737843 0.4359585
vt 0.9431664 0.4462057
vt 0.939604 0.4442524
vt 0.9324851 0.4792254
vt 0.9171997 0.4766532
vt 0.9031706 0.5224187
vt 0.9511083 0.4824738
vt 0.9216312 0.5248471
vt 0.9029574 0.5683447
vt 0.9450054 0.5292272
vt 0.9541388 0.4831009
vt 0.949774 0.5299643
vt 0.9193094 0.5708049
vt 0.9182987 0.5998214
vt 0.9268627 0.6061575
vt 0.9412292 0.5734399
vt 0.945088 0.5739528
vt 0.9457409 0.6095173
vt 0.9526981 0.6133181
vt 0.9737843 0.6438872
vt 0.9466779 0.6198512
vt 0.9271693 0.6138908
vt 0.3793716 0.6158758
vt 0.3685793 0.5873585
vt 0.3550653 0.5828925
vt 0.3550653 0.6251724
usemtl MV_RockDesert_Cliff
f 1/1/1 3/3/3 2/2/2
f 4/4/4 6/6/6 5/5/5
f 4/4/4 5/5/5 7/7/7
f 8/8/8 4/4/4 7/7/7
f 8/8/8 7/7/7 9/9/9
f 5/5/5 10/10/10 7/7/7
f 5/5/5 11/11/11 10/10/10
f 7/7/7 10/10/10 12/12/12
f 7/7/7 12/12/12 9/9/9
f 13/13/13 11/11/11 5/5/5
f 9/9/9 12/12/12 14/14/14
f 9/9/9 14/14/14 15/15/15
f 12/12/12 16/16/16 14/14/14
f 13/13/13 17/17/17 11/11/11
f 18/18/18 17/17/17 13/13/13
f 18/18/18 19/19/19 17/17/17
f 17/17/17 20/20/20 11/11/11
f 19/19/19 20/20/20 17/17/17
f 19/19/19 21/21/21 20/20/20
f 21/21/21 22/22/22 20/20/20
f 21/21/21 23/23/23 22/22/22
f 24/24/24 22/22/22 23/23/23
f 23/23/23 25/25/25 24/24/24
f 23/23/23 26/26/26 25/25/25
f 26/26/26 27/27/27 25/25/25
f 26/26/26 28/28/28 27/27/27
f 28/28/28 29/29/29 27/27/27
f 29/29/29 30/30/30 27/27/27
f 28/28/28 31/31/31 29/29/29
f 31/31/31 32/32/32 29/29/29
f 31/31/31 33/33/33 32/32/32
f 33/33/33 34/34/34 32/32/32
f 33/33/33 35/35/35 34/34/34
f 35/35/35 36/36/36 34/34/34
f 35/35/35 37/37/37 36/36/36
f 36/36/36 37/37/37 38/38/38
f 36/36/36 38/38/38 39/39/39
f 40/40/40 36/36/36 39/39/39
f 34/34/34 36/36/36 40/40/40
f 40/40/40 39/39/39 41/41/41
f 32/32/32 34/34/34 42/42/42
f 34/34/34 40/40/40 42/42/42
f 43/43/43 40/40/40 41/41/41
f 42/42/42 40/40/40 43/43/43
f 43/43/43 41/41/41 44/44/44
f 29/29/29 32/32/32 45/45/45
f 32/32/32 42/42/42 45/45/45
f 42/42/42 43/43/43 46/46/46
f 45/45/45 42/42/42 46/46/46
f 47/47/47 43/43/43 44/44/44
f 46/46/46 43/43/43 47/47/47
f 47/47/47 44/44/44 48/48/48
f 46/46/46 47/47/47 49/49/49
f 50/50/50 46/46/46 49/49/49
f 45/45/45 46/46/46 50/50/50
f 50/50/50 49/49/49 51/51/51
f 29/29/29 45/45/45 52/52/52
f 52/52/52 45/45/45 50/50/50
f 53/53/53 29/29/29 52/52/52
f 54/54/54 50/50/50 51/51/51
f 52/52/52 50/50/50 54/54/54
f 53/53/53 52/52/52 55/55/55
f 52/52/52 54/54/54 56/56/56
f 52/52/52 56/56/56 55/55/55
f 55/55/55 57/57/57 53/53/53
f 57/57/57 55/55/55 56/56/56
f 53/53/53 57/57/57 58/58/58
f 59/59/59 58/58/58 57/57/57
f 57/57/57 56/56/56 60/60/60
f 60/60/60 56/56/56 61/61/61
f 59/59/59 57/57/57 62/62/62
f 62/62/62 57/57/57 60/60/60
f 63/63/63 59/59/59 62/62/62
f 63/63/63 64/64/64 59/59/59
f 65/65/65 64/64/64 63/63/63
f 66/66/66 65/65/65 63/63/63
f 67/67/67 60/60/60 61/61/61
f 62/62/62 60/60/60 67/67/67
f 63/63/63 62/62/62 67/67/67
f 67/67/67 61/61/61 68/68/68
f 69/69/69 67/67/67 68/68/68
f 63/63/63 67/67/67 69/69/69
f 69/69/69 68/68/68 70/70/70
f 66/66/66 63/63/63 71/71/71
f 71/71/71 63/63/63 69/69/69
f 72/72/72 66/66/66 71/71/71
f 73/73/73 69/69/69 70/70/70
f 71/71/71 69/69/69 73/73/73
f 72/72/72 71/71/71 73/73/73
f 73/73/73 70/70/70 74/74/74
f 72/72/72 73/73/73 75/75/75
f 75/75/75 73/73/73 74/74/74
f 75/75/75 74/74/74 76/76/76
f 77/77/77 79/79/79 78/78/78
f 77/77/77 80/80/80 79/79/79
f 80/80/80 81/81/81 79/79/79
f 80/80/80 82/82/82 81/81/81
f 82/82/82 83/83/83 81/81/81
f 82/82/82 84/84/84 83/83/83
f 84/84/84 85/85/85 83/83/83
f 84/84/84 86/86/86 85/85/85
f 86/86/86 87/87/87 85/85/85
f 86/86/86 88/88/88 87/87/87
f 88/88/88 89/89/89 87/87/87
f 88/88/88 90/90/90 89/89/89
f 90/90/90 88/88/88 86/86/86
f 90/90/90 91/91/91 89/89/89
f 92/92/92 86/86/86 84/84/84
f 90/90/90 86/86/86 92/92/92
f 90/90/90 93/93/93 91/91/91
f 93/93/93 90/90/90 92/92/92
f 93/93/93 94/94/94 91/91/91
f 95/95/95 84/84/84 82/82/82
f 92/92/92 84/84/84 95/95/95
f 96/96/96 82/82/82 80/80/80
f 95/95/95 82/82/82 96/96/96
f 93/93/93 97/97/97 94/94/94
f 97/97/97 98/98/98 94/94/94
f 93/93/93 92/92/92 99/99/99
f 99/99/99 92/92/92 95/95/95
f 97/97/97 93/93/93 99/99/99
f 97/97/97 100/100/100 98/98/98
f 100/100/100 101/101/101 98/98/98
f 99/99/99 95/95/95 102/102/102
f 102/102/102 95/95/95 96/96/96
f 97/97/97 99/99/99 103/103/103
f 100/100/100 97/97/97 103/103/103
f 103/103/103 99/99/99 102/102/102
f 96/96/96 80/80/80 104/104/104
f 104/104/104 80/80/80 77/77/77
f 100/100/100 105/105/105 101/101/101
f 105/105/105 106/106/106 101/101/101
f 100/100/100 103/103/103 107/107/107
f 105/105/105 100/100/100 107/107/107
f 103/103/103 102/102/102 108/108/108
f 107/107/107 103/103/103 108/108/108
f 102/102/102 96/96/96 109/109/109
f 109/109/109 96/96/96 104/104/104
f 108/108/108 102/102/102 109/109/109
f 104/104/104 77/77/77 110/110/110
f 110/110/110 77/77/77 111/111/111
f 110/110/110 111/111/111 112/112/112
f 105/105/105 113/113/113 106/106/106
f 113/113/113 114/114/114 106/106/106
f 113/113/113 115/115/115 114/114/114
f 113/113/113 105/105/105 116/116/116
f 113/113/113 116/116/116 115/115/115
f 105/105/105 107/107/107 116/116/116
f 107/107/107 108/108/108 117/117/117
f 116/116/116 107/107/107 117/117/117
f 115/115/115 116/116/116 118/118/118
f 116/116/116 117/117/117 118/118/118
f 115/115/115 118/118/118 119/119/119
f 120/120/120 104/104/104 110/110/110
f 109/109/109 104/104/104 120/120/120
f 108/108/108 109/109/109 121/121/121
f 117/117/117 108/108/108 121/121/121
f 121/121/121 109/109/109 120/120/120
f 119/119/119 118/118/118 122/122/122
f 119/119/119 122/122/122 123/123/123
f 118/118/118 117/117/117 124/124/124
f 117/117/117 121/121/121 124/124/124
f 118/118/118 124/124/124 122/122/122
f 120/120/120 110/110/110 125/125/125
f 125/125/125 110/110/110 112/112/112
f 121/121/121 120/120/120 126/126/126
f 124/124/124 121/121/121 126/126/126
f 126/126/126 120/120/120 125/125/125
f 125/125/125 112/112/112 127/127/127
f 127/127/127 112/112/112 128/128/128
f 127/127/127 128/128/128 129/129/129
f 130/130/130 125/125/125 127/127/127
f 126/126/126 125/125/125 130/130/130
f 131/131/131 127/127/127 129/129/129
f 130/130/130 127/127/127 131/131/131
f 131/131/131 129/129/129 132/132/132
f 130/130/130 131/131/131 133/133/133
f 130/130/130 133/133/133 134/134/134
f 134/134/134 135/135/135 130/130/130
f 130/130/130 135/135/135 126/126/126
f 134/134/134 136/136/136 135/135/135
f 126/126/126 135/135/135 137/137/137
f 136/136/136 137/137/137 135/135/135
f 136/136/136 138/138/138 137/137/137
f 124/124/124 126/126/126 137/137/137
f 139/139/139 124/124/124 137/137/137
f 122/122/122 124/124/124 139/139/139
f 122/122/122 139/139/139 140/140/140
f 123/123/123 122/122/122 140/140/140
f 123/123/123 140/140/140 141/141/141
f 141/141/141 140/140/140 142/142/142
f 140/140/140 143/143/143 142/142/142
f 142/142/142 143/143/143 144/144/144
f 123/123/123 141/141/141 145/145/145
f 123/123/123 145/145/145 146/146/146
f 141/141/141 147/147/147 145/145/145
f 141/141/141 148/148/148 147/147/147
f 141/141/141 142/142/142 148/148/148
f 148/148/148 149/149/149 147/147/147
f 148/148/148 150/150/150 149/149/149
f 150/150/150 151/151/151 149/149/149
f 148/148/148 152/152/152 150/150/150
f 150/150/150 152/152/152 151/151/151
f 148/148/148 142/142/142 152/152/152
f 152/152/152 153/153/153 151/151/151
f 152/152/152 154/154/154 153/153/153
f 142/142/142 154/154/154 152/152/152
f 154/154/154 155/155/155 153/153/153
f 154/154/154 156/156/156 155/155/155
f 142/142/142 157/157/157 154/154/154
f 157/157/157 156/156/156 154/154/154
f 142/142/142 144/144/144 157/157/157
f 144/144/144 158/158/158 157/157/157
f 157/157/157 158/158/158 159/159/159
f 157/157/157 159/159/159 156/156/156
f 159/159/159 160/160/160 156/156/156
f 161/161/161 163/163/163 162/162/162
f 161/161/161 162/162/162 164/164/164
f 165/165/165 161/161/161 164/164/164
f 165/165/165 164/164/164 166/166/166
f 162/162/162 167/167/167 164/164/164
f 164/164/164 168/168/168 166/166/166
f 164/164/164 167/167/167 168/168/168
f 162/162/162 169/169/169 167/167/167
f 170/170/170 169/169/169 162/162/162
f 170/170/170 171/171/171 169/169/169
f 171/171/171 172/172/172 169/169/169
f 171/171/171 173/173/173 172/172/172
f 169/169/169 174/174/174 167/167/167
f 169/169/169 172/172/172 174/174/174
f 173/173/173 175/175/175 172/172/172
f 173/173/173 176/176/176 175/175/175
f 166/166/166 168/168/168 177/177/177
f 166/166/166 177/177/177 178/178/178
f 167/167/167 179/179/179 168/168/168
f 167/167/167 174/174/174 179/179/179
f 172/172/172 180/180/180 174/174/174
f 172/172/172 175/175/175 180/180/180
f 176/176/176 181/181/181 175/175/175
f 176/176/176 182/182/182 181/181/181
f 178/178/178 177/177/177 183/183/183
f 178/178/178 183/183/183 184/184/184
f 168/168/168 185/185/185 177/177/177
f 168/168/168 179/179/179 185/185/185
f 174/174/174 186/186/186 179/179/179
f 174/174/174 180/180/180 186/186/186
f 175/175/175 187/187/187 180/180/180
f 175/175/175 181/181/181 187/187/187
f 182/182/182 188/188/188 181/181/181
f 182/182/182 189/189/189 188/188/188
f 184/184/184 183/183/183 190/190/190
f 184/184/184 190/190/190 191/191/191
f 183/183/183 192/192/192 190/190/190
f 183/183/183 193/193/193 192/192/192
f 177/177/177 193/193/193 183/183/183
f 193/193/193 194/194/194 192/192/192
f 177/177/177 185/185/185 193/193/193
f 193/193/193 195/195/195 194/194/194
f 185/185/185 195/195/195 193/193/193
f 195/195/195 196/196/196 194/194/194
f 185/185/185 197/197/197 195/195/195
f 179/179/179 197/197/197 185/185/185
f 179/179/179 186/186/186 197/197/197
f 197/197/197 198/198/198 195/195/195
f 195/195/195 198/198/198 196/196/196
f 186/186/186 199/199/199 197/197/197
f 197/197/197 199/199/199 198/198/198
f 186/186/186 200/200/200 199/199/199
f 180/180/180 200/200/200 186/186/186
f 180/180/180 187/187/187 200/200/200
f 198/198/198 201/201/201 196/196/196
f 199/199/199 202/202/202 198/198/198
f 198/198/198 202/202/202 201/201/201
f 200/200/200 203/203/203 199/199/199
f 199/199/199 203/203/203 202/202/202
f 187/187/187 204/204/204 200/200/200
f 200/200/200 204/204/204 203/203/203
f 196/196/196 201/201/201 205/205/205
f 196/196/196 205/205/205 206/206/206
f 187/187/187 207/207/207 204/204/204
f 181/181/181 207/207/207 187/187/187
f 181/181/181 188/188/188 207/207/207
f 202/202/202 208/208/208 201/201/201
f 203/203/203 209/209/209 202/202/202
f 202/202/202 209/209/209 208/208/208
f 204/204/204 210/210/210 203/203/203
f 203/203/203 210/210/210 209/209/209
f 207/207/207 211/211/211 204/204/204
f 204/204/204 211/211/211 210/210/210
f 188/188/188 212/212/212 207/207/207
f 207/207/207 212/212/212 211/211/211
f 201/201/201 213/213/213 205/205/205
f 201/201/201 208/208/208 213/213/213
f 188/188/188 214/214/214 212/212/212
f 189/189/189 214/214/214 188/188/188
f 189/189/189 215/215/215 214/214/214
f 215/215/215 216/216/216 214/214/214
f 215/215/215 217/217/217 216/216/216
f 214/214/214 218/218/218 212/212/212
f 214/214/214 216/216/216 218/218/218
f 212/212/212 219/219/219 211/211/211
f 212/212/212 218/218/218 219/219/219
f 211/211/211 220/220/220 210/210/210
f 211/211/211 219/219/219 220/220/220
f 217/217/217 221/221/221 216/216/216
f 217/217/217 222/222/222 221/221/221
f 216/216/216 223/223/223 218/218/218
f 216/216/216 221/221/221 223/223/223
f 218/218/218 224/224/224 219/219/219
f 218/218/218 223/223/223 224/224/224
f 210/210/210 220/220/220 225/225/225
f 210/210/210 225/225/225 209/209/209
f 219/219/219 226/226/226 220/220/220
f 219/219/219 224/224/224 226/226/226
f 209/209/209 225/225/225 227/227/227
f 209/209/209 227/227/227 208/208/208
f 220/220/220 228/228/228 225/225/225
f 220/220/220 226/226/226 228/228/228
f 208/208/208 227/227/227 229/229/229
f 208/208/208 229/229/229 213/213/213
f 225/225/225 230/230/230 227/227/227
f 225/225/225 228/228/228 230/230/230
f 227/227/227 231/231/231 229/229/229
f 227/227/227 230/230/230 231/231/231
f 232/232/232 213/213/213 229/229/229
f 232/232/232 229/229/229 231/231/231
f 228/228/228 233/233/233 230/230/230
f 230/230/230 233/233/233 234/234/234
f 226/226/226 235/235/235 228/228/228
f 228/228/228 235/235/235 233/233/233
f 234/234/234 233/233/233 236/236/236
f 236/236/236 233/233/233 235/235/235
f 234/234/234 236/236/236 237/237/237
f 238/238/238 237/237/237 236/236/236
f 238/238/238 236/236/236 239/239/239
f 239/239/239 236/236/236 240/240/240
f 236/236/236 235/235/235 240/240/240
f 239/239/239 240/240/240 241/241/241
f 241/241/241 240/240/240 242/242/242
f 235/235/235 242/242/242 240/240/240
f 241/241/241 242/242/242 243/243/243
f 244/244/244 243/243/243 242/242/242
f 226/226/226 245/245/245 235/235/235
f 235/235/235 245/245/245 242/242/242
f 245/245/245 244/244/244 242/242/242
f 224/224/224 245/245/245 226/226/226
f 245/245/245 246/246/246 244/244/244
f 224/224/224 246/246/246 245/245/245
f 246/246/246 247/247/247 244/244/244
f 223/223/223 246/246/246 224/224/224
f 246/246/246 248/248/248 247/247/247
f 223/223/223 248/248/248 246/246/246
f 248/248/248 249/249/249 247/247/247
f 221/221/221 248/248/248 223/223/223
f 249/249/249 248/248/248 221/221/221
f 250/250/250 249/249/249 221/221/221
f 222/222/222 250/250/250 221/221/221
f 250/250/250 251/251/251 249/249/249
f 249/249/249 251/251/251 252/252/252
f 252/252/252 251/251/251 253/253/253
f 252/252/252 253/253/253 254/254/254
f 251/251/251 250/250/250 255/255/255
f 251/251/251 255/255/255 253/253/253
f 256/256/256 255/255/255 250/250/250
f 256/256/256 250/250/250 222/222/222
f 257/257/257 256/256/256 222/222/222
f 257/257/257 222/222/222 258/258/258
f 222/222/222 259/259/259 258/258/258
f 260/260/260 253/253/253 255/255/255
f 254/254/254 253/253/253 261/261/261
f 260/260/260 261/261/261 253/253/253
f 254/254/254 261/261/261 262/262/262
f 263/263/263 261/261/261 260/260/260
f 262/262/262 261/261/261 263/263/263
f 262/262/262 263/263/263 264/264/264
f 263/263/263 265/265/265 264/264/264
f 263/263/263 266/266/266 265/265/265
f 267/267/267 269/269/269 268/268/268
f 267/267/267 270/270/270 269/269/269
f 270/270/270 271/271/271 269/269/269
f 272/272/272 270/270/270 267/267/267
f 272/272/272 273/273/273 270/270/270
f 271/271/271 270/270/270 273/273/273
f 274/274/274 271/271/271 273/273/273
f 274/274/274 275/275/275 271/271/271
f 269/269/269 271/271/271 276/276/276
f 269/269/269 276/276/276 277/277/277
f 275/275/275 278/278/278 271/271/271
f 275/275/275 279/279/279 278/278/278
f 277/277/277 276/276/276 280/280/280
f 277/277/277 280/280/280 281/281/281
f 271/271/271 282/282/282 276/276/276
f 271/271/271 278/278/278 282/282/282
f 281/281/281 280/280/280 283/283/283
f 281/281/281 283/283/283 284/284/284
f 276/276/276 285/285/285 280/280/280
f 276/276/276 282/282/282 285/285/285
f 284/284/284 283/283/283 286/286/286
f 284/284/284 286/286/286 287/287/287
f 280/280/280 288/288/288 283/283/283
f 280/280/280 285/285/285 288/288/288
f 287/287/287 286/286/286 289/289/289
f 287/287/287 289/289/289 290/290/290
f 286/286/286 291/291/291 289/289/289
f 283/283/283 292/292/292 286/286/286
f 286/286/286 292/292/292 291/291/291
f 283/283/283 288/288/288 292/292/292
f 292/292/292 293/293/293 291/291/291
f 292/292/292 294/294/294 293/293/293
f 288/288/288 294/294/294 292/292/292
f 294/294/294 295/295/295 293/293/293
f 285/285/285 296/296/296 288/288/288
f 288/288/288 296/296/296 294/294/294
f 294/294/294 297/297/297 295/295/295
f 296/296/296 297/297/297 294/294/294
f 297/297/297 298/298/298 295/295/295
f 285/285/285 299/299/299 296/296/296
f 282/282/282 299/299/299 285/285/285
f 296/296/296 300/300/300 297/297/297
f 299/299/299 300/300/300 296/296/296
f 297/297/297 301/301/301 298/298/298
f 300/300/300 301/301/301 297/297/297
f 301/301/301 302/302/302 298/298/298
f 282/282/282 303/303/303 299/299/299
f 278/278/278 303/303/303 282/282/282
f 299/299/299 304/304/304 300/300/300
f 303/303/303 304/304/304 299/299/299
f 300/300/300 305/305/305 301/301/301
f 304/304/304 305/305/305 300/300/300
f 301/301/301 306/306/306 302/302/302
f 305/305/305 306/306/306 301/301/301
f 306/306/306 307/307/307 302/302/302
f 278/278/278 308/308/308 303/303/303
f 279/279/279 308/308/308 278/278/278
f 303/303/303 309/309/309 304/304/304
f 308/308/308 309/309/309 303/303/303
f 304/304/304 310/310/310 305/305/305
f 309/309/309 310/310/310 304/304/304
f 306/306/306 311/311/311 307/307/307
f 311/311/311 312/312/312 307/307/307
f 311/311/311 313/313/313 312/312/312
f 305/305/305 314/314/314 306/306/306
f 314/314/314 311/311/311 306/306/306
f 310/310/310 314/314/314 305/305/305
f 314/314/314 315/315/315 311/311/311
f 315/315/315 313/313/313 311/311/311
f 310/310/310 316/316/316 314/314/314
f 316/316/316 315/315/315 314/314/314
f 309/309/309 317/317/317 310/310/310
f 317/317/317 316/316/316 310/310/310
f 308/308/308 318/318/318 309/309/309
f 318/318/318 317/317/317 309/309/309
f 319/319/319 318/318/318 308/308/308
f 279/279/279 319/319/319 308/308/308
f 315/315/315 320/320/320 313/313/313
f 316/316/316 321/321/321 315/315/315
f 321/321/321 320/320/320 315/315/315
f 317/317/317 322/322/322 316/316/316
f 322/322/322 321/321/321 316/316/316
f 318/318/318 323/323/323 317/317/317
f 323/323/323 322/322/322 317/317/317
f 313/313/313 320/320/320 324/324/324
f 313/313/313 324/324/324 325/325/325
f 320/320/320 326/326/326 324/324/324
f 320/320/320 327/327/327 326/326/326
f 321/321/321 327/327/327 320/320/320
f 328/328/328 326/326/326 327/327/327
f 328/328/328 327/327/327 329/329/329
f 329/329/329 327/327/327 321/321/321
f 330/330/330 328/328/328 329/329/329
f 329/329/329 321/321/321 331/331/331
f 322/322/322 331/331/331 321/321/321
f 332/332/332 331/331/331 322/322/322
f 323/323/323 332/332/332 322/322/322
f 332/332/332 333/333/333 331/331/331
f 334/334/334 333/333/333 332/332/332
f 334/334/334 335/335/335 333/333/333
f 335/335/335 330/330/330 333/333/333
f 336/336/336 334/334/334 332/332/332
f 336/336/336 332/332/332 323/323/323
f 335/335/335 337/337/337 330/330/330
f 337/337/337 338/338/338 330/330/330
f 337/337/337 339/339/339 338/338/338
f 338/338/338 339/339/339 340/340/340
f 341/341/341 330/330/330 338/338/338
f 338/338/338 340/340/340 342/342/342
f 338/338/338 342/342/342 341/341/341
f 341/341/341 342/342/342 343/343/343
f 344/344/344 336/336/336 323/323/323
f 344/344/344 323/323/323 318/318/318
f 319/319/319 344/344/344 318/318/318
f 345/345/345 336/336/336 344/344/344
f 319/319/319 345/345/345 344/344/344
f 345/345/345 346/346/346 336/336/336
f 345/345/345 319/319/319 347/347/347
f 346/346/346 345/345/345 348/348/348
f 345/345/345 347/347/347 348/348/348
f 346/346/346 348/348/348 349/349/349
f 350/350/350 346/346/346 349/349/349
f 350/350/350 349/349/349 351/351/351
f 352/352/352 348/348/348 347/347/347
f 353/353/353 352/352/352 347/347/347
f 319/319/319 354/354/354 347/347/347
f 353/353/353 347/347/347 354/354/354
f 319/319/319 279/279/279 354/354/354
f 354/354/354 355/355/355 353/353/353
f 279/279/279 355/355/355 354/354/354
f 279/279/279 356/356/356 355/355/355
f 357/357/357 359/359/359 358/358/358
f 357/357/357 360/360/360 359/359/359
f 361/361/361 363/363/363 362/362/362
f 361/361/361 362/362/362 364/364/364
f 364/364/364 362/362/362 365/365/365
f 364/364/364 365/365/365 366/366/366
f 366/366/366 365/365/365 367/367/367
f 366/366/366 367/367/367 368/368/368
f 369/369/369 364/364/364 366/366/366
f 370/370/370 366/366/366 368/368/368
f 369/369/369 366/366/366 370/370/370
f 371/371/371 361/361/361 364/364/364
f 371/371/371 364/364/364 369/369/369
f 368/368/368 372/372/372 370/370/370
f 368/368/368 373/373/373 372/372/372
f 374/374/374 369/369/369 370/370/370
f 375/375/375 371/371/371 369/369/369
f 375/375/375 369/369/369 374/374/374
f 376/376/376 370/370/370 372/372/372
f 374/374/374 370/370/370 376/376/376
f 377/377/377 361/361/361 371/371/371
f 378/378/378 371/371/371 375/375/375
f 378/378/378 377/377/377 371/371/371
f 379/379/379 375/375/375 374/374/374
f 380/380/380 374/374/374 376/376/376
f 379/379/379 374/374/374 380/380/380
f 381/381/381 378/378/378 375/375/375
f 381/381/381 375/375/375 379/379/379
f 372/372/372 373/373/373 382/382/382
f 373/373/373 383/383/383 382/382/382
f 373/373/373 384/384/384 383/383/383
f 382/382/382 383/383/383 385/385/385
f 382/382/382 385/385/385 386/386/386
f 372/372/372 382/382/382 386/386/386
f 386/386/386 385/385/385 387/387/387
f 376/376/376 372/372/372 388/388/388
f 388/388/388 372/372/372 386/386/386
f 386/386/386 387/387/387 389/389/389
f 388/388/388 386/386/386 389/389/389
f 389/389/389 387/387/387 390/390/390
f 391/391/391 376/376/376 388/388/388
f 380/380/380 376/376/376 391/391/391
f 389/389/389 390/390/390 392/392/392
f 392/392/392 390/390/390 393/393/393
f 394/394/394 388/388/388 389/389/389
f 391/391/391 388/388/388 394/394/394
f 394/394/394 389/389/389 392/392/392
f 392/392/392 393/393/393 395/395/395
f 395/395/395 393/393/393 396/396/396
f 397/397/397 394/394/394 392/392/392
f 397/397/397 392/392/392 395/395/395
f 398/398/398 391/391/391 394/394/394
f 398/398/398 394/394/394 397/397/397
f 399/399/399 380/380/380 391/391/391
f 399/399/399 391/391/391 398/398/398
f 395/395/395 396/396/396 400/400/400
f 400/400/400 396/396/396 401/401/401
f 402/402/402 397/397/397 395/395/395
f 402/402/402 395/395/395 400/400/400
f 403/403/403 398/398/398 397/397/397
f 403/403/403 397/397/397 402/402/402
f 400/400/400 401/401/401 404/404/404
f 404/404/404 401/401/401 405/405/405
f 406/406/406 400/400/400 404/404/404
f 404/404/404 405/405/405 406/406/406
f 406/406/406 402/402/402 400/400/400
f 406/406/406 405/405/405 407/407/407
f 406/406/406 407/407/407 408/408/408
f 408/408/408 402/402/402 406/406/406
f 408/408/408 403/403/403 402/402/402
f 409/409/409 403/403/403 408/408/408
f 410/410/410 398/398/398 403/403/403
f 410/410/410 399/399/399 398/398/398
f 411/411/411 403/403/403 409/409/409
f 411/411/411 410/410/410 403/403/403
f 409/409/409 412/412/412 411/411/411
f 409/409/409 413/413/413 412/412/412
f 411/411/411 412/412/412 414/414/414
f 411/411/411 414/414/414 415/415/415
f 415/415/415 410/410/410 411/411/411
f 415/415/415 416/416/416 410/410/410
f 416/416/416 399/399/399 410/410/410
f 417/417/417 416/416/416 415/415/415
f 416/416/416 418/418/418 399/399/399
f 418/418/418 380/380/380 399/399/399
f 418/418/418 379/379/379 380/380/380
f 417/417/417 419/419/419 416/416/416
f 419/419/419 418/418/418 416/416/416
f 420/420/420 379/379/379 418/418/418
f 419/419/419 420/420/420 418/418/418
f 420/420/420 381/381/381 379/379/379
f 417/417/417 421/421/421 419/419/419
f 422/422/422 421/421/421 417/417/417
f 423/423/423 421/421/421 422/422/422
f 419/419/419 421/421/421 423/423/423
f 423/423/423 422/422/422 424/424/424
f 423/423/423 424/424/424 425/425/425
f 423/423/423 426/426/426 419/419/419
f 423/423/423 425/425/425 426/426/426
f 426/426/426 420/420/420 419/419/419
f 426/426/426 425/425/425 427/427/427
f 426/426/426 428/428/428 420/420/420
f 426/426/426 427/427/427 428/428/428
f 428/428/428 381/381/381 420/420/420
f 428/428/428 427/427/427 429/429/429
f 428/428/428 430/430/430 381/381/381
f 428/428/428 429/429/429 430/430/430
f 430/430/430 429/429/429 431/431/431
f 430/430/430 378/378/378 381/381/381
f 430/430/430 431/431/431 432/432/432
f 430/430/430 432/432/432 378/378/378
f 432/432/432 431/431/431 433/433/433
f 378/378/378 432/432/432 434/434/434
f 432/432/432 433/433/433 434/434/434
f 434/434/434 433/433/433 435/435/435
f 434/434/434 377/377/377 378/378/378
f 434/434/434 435/435/435 436/436/436
f 435/435/435 437/437/437 436/436/436
f 436/436/436 437/437/437 438/438/438
f 436/436/436 438/438/438 439/439/439
f 440/440/440 434/434/434 436/436/436
f 440/440/440 436/436/436 439/439/439
f 434/434/434 440/440/440 377/377/377
f 441/441/441 440/440/440 439/439/439
f 441/441/441 439/439/439 442/442/442
f 443/443/443 441/441/441 442/442/442
f 440/440/440 441/441/441 444/444/444
f 440/440/440 444/444/444 377/377/377
f 443/443/443 444/444/444 441/441/441
f 377/377/377 444/444/444 445/445/445
f 445/445/445 444/444/444 443/443/443
f 377/377/377 445/445/445 361/361/361
f 445/445/445 443/443/443 446/446/446
f 361/361/361 445/445/445 446/446/446
f 361/361/361 446/446/446 447/447/447
f 448/448/448 450/450/450 449/449/449
f 448/448/448 449/449/449 451/451/451
f 452/452/452 448/448/448 451/451/451
f 452/452/452 451/451/451 453/453/453
f 454/454/454 452/452/452 453/453/453
f 454/454/454 453/453/453 455/455/455
f 456/456/456 454/454/454 455/455/455
f 456/456/456 455/455/455 457/457/457
f 457/457/457 455/455/455 458/458/458
f 457/457/457 458/458/458 459/459/459
f 455/455/455 453/453/453 460/460/460
f 455/455/455 460/460/460 458/458/458
f 453/453/453 451/451/451 461/461/461
f 453/453/453 461/461/461 460/460/460
f 451/451/451 449/449/449 462/462/462
f 451/451/451 462/462/462 461/461/461
f 459/459/459 458/458/458 463/463/463
f 459/459/459 463/463/463 464/464/464
f 458/458/458 460/460/460 465/465/465
f 458/458/458 465/465/465 463/463/463
f 460/460/460 461/461/461 466/466/466
f 460/460/460 466/466/466 465/465/465
f 464/464/464 463/463/463 467/467/467
f 464/464/464 467/467/467 468/468/468
f 463/463/463 465/465/465 469/469/469
f 463/463/463 469/469/469 467/467/467
f 468/468/468 467/467/467 470/470/470
f 468/468/468 470/470/470 471/471/471
f 449/449/449 472/472/472 462/462/462
f 449/449/449 473/473/473 472/472/472
f 473/473/473 474/474/474 472/472/472
f 472/472/472 474/474/474 475/475/475
f 472/472/472 475/475/475 476/476/476
f 462/462/462 472/472/472 476/476/476
f 477/477/477 476/476/476 475/475/475
f 462/462/462 476/476/476 478/478/478
f 461/461/461 462/462/462 478/478/478
f 461/461/461 478/478/478 466/466/466
f 478/478/478 476/476/476 479/479/479
f 476/476/476 477/477/477 479/479/479
f 466/466/466 478/478/478 480/480/480
f 478/478/478 479/479/479 480/480/480
f 471/471/471 470/470/470 481/481/481
f 471/471/471 481/481/481 482/482/482
f 482/482/482 481/481/481 483/483/483
f 482/482/482 483/483/483 484/484/484
f 481/481/481 485/485/485 483/483/483
f 481/481/481 486/486/486 485/485/485
f 470/470/470 486/486/486 481/481/481
f 486/486/486 487/487/487 485/485/485
f 470/470/470 488/488/488 486/486/486
f 467/467/467 488/488/488 470/470/470
f 467/467/467 469/469/469 488/488/488
f 486/486/486 489/489/489 487/487/487
f 488/488/488 489/489/489 486/486/486
f 489/489/489 490/490/490 487/487/487
f 469/469/469 491/491/491 488/488/488
f 488/488/488 491/491/491 489/489/489
f 489/489/489 492/492/492 490/490/490
f 491/491/491 492/492/492 489/489/489
f 492/492/492 493/493/493 490/490/490
f 469/469/469 494/494/494 491/491/491
f 465/465/465 494/494/494 469/469/469
f 465/465/465 466/466/466 494/494/494
f 466/466/466 480/480/480 494/494/494
f 494/494/494 495/495/495 491/491/491
f 491/491/491 495/495/495 492/492/492
f 494/494/494 480/480/480 495/495/495
f 492/492/492 496/496/496 493/493/493
f 495/495/495 496/496/496 492/492/492
f 496/496/496 497/497/497 493/493/493
f 480/480/480 498/498/498 495/495/495
f 495/495/495 498/498/498 496/496/496
f 480/480/480 479/479/479 498/498/498
f 496/496/496 499/499/499 497/497/497
f 498/498/498 499/499/499 496/496/496
f 499/499/499 500/500/500 497/497/497
f 479/479/479 501/501/501 498/498/498
f 498/498/498 501/501/501 499/499/499
f 479/479/479 477/477/477 501/501/501
f 499/499/499 502/502/502 500/500/500
f 501/501/501 502/502/502 499/499/499
f 502/502/502 503/503/503 500/500/500
f 477/477/477 504/504/504 501/501/501
f 501/501/501 504/504/504 502/502/502
f 477/477/477 505/505/505 504/504/504
f 502/502/502 506/506/506 503/503/503
f 504/504/504 506/506/506 502/502/502
f 506/506/506 507/507/507 503/503/503
f 505/505/505 508/508/508 504/504/504
f 504/504/504 508/508/508 506/506/506
f 505/505/505 509/509/509 508/508/508
f 506/506/506 510/510/510 507/507/507
f 508/508/508 510/510/510 506/506/506
f 507/507/507 510/510/510 511/511/511
f 507/507/507 511/511/511 512/512/512
f 510/510/510 513/513/513 511/511/511
f 508/508/508 514/514/514 510/510/510
f 510/510/510 514/514/514 513/513/513
f 509/509/509 514/514/514 508/508/508
f 514/514/514 515/515/515 513/513/513
f 514/514/514 516/516/516 515/515/515
f 509/509/509 516/516/516 514/514/514
f 516/516/516 517/517/517 515/515/515
f 516/516/516 518/518/518 517/517/517
f 519/519/519 517/517/517 518/518/518
f 520/520/520 516/516/516 509/509/509
f 520/520/520 518/518/518 516/516/516
f 518/518/518 521/521/521 519/519/519
f 522/522/522 519/519/519 521/521/521
f 522/522/522 521/521/521 523/523/523
f 518/518/518 524/524/524 521/521/521
f 524/524/524 525/525/525 521/521/521
f 526/526/526 520/520/520 509/509/509
f 526/526/526 509/509/509 527/527/527
f 528/528/528 518/518/518 520/520/520
f 528/528/528 524/524/524 518/518/518
f 524/524/524 529/529/529 525/525/525
f 529/529/529 530/530/530 525/525/525
f 529/529/529 531/531/531 530/530/530
f 532/532/532 531/531/531 529/529/529
f 533/533/533 529/529/529 524/524/524
f 532/532/532 529/529/529 533/533/533
f 533/533/533 524/524/524 528/528/528
f 534/534/534 532/532/532 533/533/533
f 535/535/535 528/528/528 520/520/520
f 535/535/535 520/520/520 526/526/526
f 528/528/528 536/536/536 533/533/533
f 536/536/536 528/528/528 535/535/535
f 533/533/533 536/536/536 537/537/537
f 538/538/538 536/536/536 535/535/535
f 539/539/539 538/538/538 535/535/535
f 540/540/540 535/535/535 526/526/526
f 539/539/539 535/535/535 540/540/540
f 540/540/540 526/526/526 541/541/541
f 541/541/541 526/526/526 527/527/527
f 541/541/541 527/527/527 542/542/542
f 543/543/543 542/542/542 527/527/527
f 542/542/542 544/544/544 541/541/541
f 544/544/544 540/540/540 541/541/541
f 545/545/545 539/539/539 540/540/540
f 544/544/544 545/545/545 540/540/540
f 545/545/545 546/546/546 539/539/539
f 545/545/545 544/544/544 547/547/547
f 545/545/545 547/547/547 548/548/548
f 549/549/549 551/551/551 550/550/550
f 551/551/551 552/552/552 550/550/550
f 551/551/551 553/553/553 552/552/552
f 554/554/554 556/556/556 555/555/555
f 554/554/554 557/557/557 556/556/556
f 558/558/558 557/557/557 554/554/554
f 558/558/558 559/559/559 557/557/557
f 560/560/560 559/559/559 558/558/558
f 557/557/557 559/559/559 561/561/561
f 556/556/556 557/557/557 562/562/562
f 557/557/557 561/561/561 562/562/562
f 556/556/556 562/562/562 563/563/563
f 562/562/562 564/564/564 563/563/563
f 561/561/561 564/564/564 562/562/562
f 561/561/561 565/565/565 564/564/564
f 566/566/566 568/568/568 567/567/567
f 566/566/566 569/569/569 568/568/568
f 569/569/569 570/570/570 568/568/568
f 569/569/569 571/571/571 570/570/570
f 571/571/571 572/572/572 570/570/570
f 571/571/571 573/573/573 572/572/572
f 574/574/574 576/576/576 575/575/575
f 574/574/574 575/575/575 577/577/577
f 578/578/578 574/574/574 577/577/577
f 578/578/578 577/577/577 579/579/579
f 580/580/580 574/574/574 578/578/578
f 580/580/580 581/581/581 574/574/574
f 582/582/582 580/580/580 578/578/578
f 583/583/583 578/578/578 579/579/579
f 582/582/582 578/578/578 583/583/583
f 583/583/583 579/579/579 584/584/584
f 585/585/585 583/583/583 584/584/584
f 586/586/586 582/582/582 583/583/583
f 585/585/585 586/586/586 583/583/583
f 586/586/586 587/587/587 582/582/582
f 588/588/588 587/587/587 586/586/586
f 588/588/588 586/586/586 585/585/585
f 588/588/588 585/585/585 589/589/589
f 590/590/590 592/592/592 591/591/591
f 590/590/590 593/593/593 592/592/592
f 590/590/590 54/54/54 593/593/593
f 593/593/593 594/594/594 592/592/592
f 54/54/54 51/51/51 593/593/593
f 593/593/593 51/51/51 594/594/594
f 595/595/595 594/594/594 51/51/51
f 51/51/51 596/596/596 595/595/595
f 596/596/596 597/597/597 595/595/595
f 596/596/596 598/598/598 597/597/597
f 597/597/597 598/598/598 599/599/599
f 597/597/597 599/599/599 600/600/600
f 601/601/601 603/603/603 602/602/602
f 601/601/601 604/604/604 603/603/603
f 603/603/603 604/604/604 605/605/605
f 605/605/605 604/604/604 606/606/606
f 606/606/606 604/604/604 601/601/601
f 606/606/606 601/601/601 607/607/607
f 601/601/601 608/608/608 607/607/607
f 601/601/601 609/609/609 608/608/608
f 610/610/610 607/607/607 608/608/608
f 608/608/608 609/609/609 611/611/611
f 612/612/612 610/610/610 608/608/608
f 608/608/608 611/611/611 613/613/613
f 612/612/612 608/608/608 613/613/613
f 614/614/614 616/616/616 615/615/615
f 614/614/614 617/617/617 616/616/616
f 618/618/618 617/617/617 614/614/614
f 618/618/618 619/619/619 617/617/617
f 620/620/620 619/619/619 618/618/618
f 621/621/621 616/616/616 617/617/617
f 619/619/619 621/621/621 617/617/617
f 622/622/622 616/616/616 621/621/621
f 622/622/622 623/623/623 616/616/616
f 624/624/624 623/623/623 622/622/622
f 620/620/620 625/625/625 619/619/619
f 626/626/626 625/625/625 620/620/620
f 626/626/626 627/627/627 625/625/625
f 627/627/627 628/628/628 625/625/625
f 628/628/628 619/619/619 625/625/625
f 629/629/629 628/628/628 627/627/627
f 619/619/619 630/630/630 621/621/621
f 628/628/628 630/630/630 619/619/619
f 621/621/621 630/630/630 622/622/622
f 631/631/631 630/630/630 628/628/628
f 629/629/629 631/631/631 628/628/628
f 631/631/631 622/622/622 630/630/630
f 632/632/632 631/631/631 629/629/629
f 632/632/632 629/629/629 633/633/633
f 634/634/634 631/631/631 632/632/632
f 634/634/634 622/622/622 631/631/631
f 635/635/635 622/622/622 634/634/634
f 622/622/622 635/635/635 624/624/624
f 636/636/636 624/624/624 635/635/635
f 636/636/636 635/635/635 637/637/637
f 638/638/638 640/640/640 639/639/639
f 638/638/638 641/641/641 640/640/640
f 642/642/642 644/644/644 643/643/643
f 642/642/642 643/643/643 645/645/645
f 646/646/646 645/645/645 643/643/643
f 646/646/646 647/647/647 645/645/645
f 648/648/648 642/642/642 645/645/645
f 648/648/648 645/645/645 649/649/649
f 650/650/650 648/648/648 649/649/649
f 650/650/650 649/649/649 651/651/651
f 652/652/652 651/651/651 649/649/649
f 652/652/652 653/653/653 651/651/651
f 654/654/654 656/656/656 655/655/655
f 654/654/654 657/657/657 656/656/656
f 658/658/658 656/656/656 657/657/657
f 658/658/658 659/659/659 656/656/656
f 660/660/660 659/659/659 658/658/658
f 660/660/660 658/658/658 661/661/661
f 661/661/661 662/662/662 660/660/660
f 663/663/663 665/665/665 664/664/664
f 205/205/205 663/663/663 664/664/664
f 205/205/205 666/666/666 663/663/663
f 213/213/213 666/666/666 205/205/205
f 232/232/232 666/666/666 213/213/213
f 666/666/666 667/667/667 663/663/663
f 666/666/666 232/232/232 667/667/667
f 667/667/667 668/668/668 663/663/663
f 669/669/669 668/668/668 667/667/667
f 232/232/232 670/670/670 667/667/667
f 669/669/669 667/667/667 670/670/670
f 232/232/232 231/231/231 670/670/670
f 669/669/669 670/670/670 671/671/671
f 671/671/671 670/670/670 231/231/231
f 671/671/671 231/231/231 672/672/672
f 673/673/673 675/675/675 674/674/674
f 673/673/673 674/674/674 676/676/676
f 673/673/673 676/676/676 677/677/677
f 674/674/674 678/678/678 676/676/676
f 677/677/677 676/676/676 678/678/678
f 677/677/677 678/678/678 679/679/679
f 678/678/678 680/680/680 679/679/679
f 674/674/674 681/681/681 678/678/678
f 678/678/678 682/682/682 680/680/680
f 681/681/681 682/682/682 678/678/678
f 682/682/682 683/683/683 680/680/680
f 681/681/681 684/684/684 682/682/682
f 684/684/684 681/681/681 685/685/685
f 684/684/684 685/685/685 686/686/686
f 682/682/682 687/687/687 683/683/683
f 684/684/684 687/687/687 682/682/682
f 687/687/687 688/688/688 683/683/683
f 687/687/687 689/689/689 688/688/688
f 690/690/690 684/684/684 686/686/686
f 684/684/684 690/690/690 687/687/687
f 690/690/690 689/689/689 687/687/687
f 690/690/690 686/686/686 691/691/691
f 692/692/692 690/690/690 691/691/691
f 690/690/690 692/692/692 689/689/689
f 691/691/691 693/693/693 692/692/692
f 693/693/693 694/694/694 692/692/692
f 695/695/695 692/692/692 694/694/694
f 695/695/695 689/689/689 692/692/692
f 695/695/695 696/696/696 689/689/689
f 697/697/697 699/699/699 698/698/698
f 697/697/697 700/700/700 699/699/699
