mtllib P_RockDesert_CliffB02.mtl
v 10.13775 46.42146 8.783709
v 10.72674 45.65805 9.270167
v 8.838971 45.60101 11.63978
v 8.893737 46.35833 10.8037
v 6.571867 46.22217 12.67614
v 6.377939 46.86836 8.984082
v 2.375134 46.21538 14.54763
v 11.87437 46.68148 6.776412
v 2.554741 46.92397 9.3385
v 0.2273788 46.39054 14.55
v 8.473804 46.85427 4.758331
v -1.427299 46.94312 9.775692
v 3.10313 47.05455 4.874174
v 12.32713 46.64634 0.9315214
v 8.434622 46.86357 0.6359835
v 15.58188 46.74484 -0.1832561
v 14.48434 46.21299 4.707182
v 15.986 46.32914 -0.6002712
v 11.85568 46.64309 -3.773346
v 14.53701 46.71584 -5.264852
v 15.0297 46.29113 -5.805193
v 11.8876 46.83348 -8.581533
v 13.4622 46.28798 -9.833313
v 9.632295 46.75319 -6.969001
v 7.483508 46.95601 -4.191917
v 3.625295 47.18905 0.2500467
v 9.924582 46.8259 -12.09253
v 10.84143 46.27781 -13.44131
v 8.285248 46.74823 -10.37567
v 5.647253 46.82148 -12.7351
v 8.216236 46.28046 -15.61311
v 5.339485 47.04992 -8.201731
v 1.370368 46.3808 -17.01148
v 4.964424 46.27678 -17.49525
v 2.957634 47.29406 -4.336182
v 2.140469 47.15185 -9.935078
v -1.900702 47.20268 -10.22512
v -1.888468 46.34764 -16.17319
v -3.574273 46.744 -15.37226
v -5.245537 46.71014 -14.55441
v -1.841904 47.32382 -3.925179
v -1.821585 47.16191 0.5385361
v -1.554577 47.05455 5.135594
v -6.12034 47.06688 -8.800079
v -6.416205 47.15527 -4.185822
v -6.556829 47.07471 0.2268581
v -6.255363 46.92539 4.893141
v -5.376983 46.88559 9.059258
v -9.970776 46.92472 -7.836097
v -8.914515 46.25219 -13.60674
v -10.74504 46.93573 -3.825035
v -10.84505 46.94167 0.2446604
v -9.74936 46.89067 4.088858
v -3.394678 46.66937 13.24619
v -8.643231 46.57393 7.727359
v -4.025201 46.20104 13.86797
v -0.1112843 45.84442 14.87428
v -7.051164 46.37325 12.21446
v -6.878769 46.4626 12.07652
v -10.32492 46.21532 9.850163
v -9.932896 46.32653 9.626802
v -12.62513 46.07391 7.352732
v -12.16977 46.2326 7.140408
v -12.76501 46.4392 3.639401
v -13.80985 45.92671 4.065274
v -12.80953 45.71478 7.517445
v -16.30519 45.75214 0.8941832
v -15.05129 46.30656 0.7016048
v -16.70338 45.8209 -3.356256
v -15.83387 46.35333 -3.334827
v -15.39411 45.84203 -7.276529
v -14.36177 46.25947 -7.15563
v -13.22587 45.82309 -10.89325
v -12.29617 46.26863 -10.56916
v -9.877129 45.62286 -13.76604
v 2.375134 46.21538 14.54763
v -0.1112843 45.84442 14.87428
v 0.2273788 46.39054 14.55
v 2.32933 45.64079 15.20685
v 6.571867 46.22217 12.67614
v 6.382066 45.66648 13.32065
v 8.893737 46.35833 10.8037
v 8.838971 45.60101 11.63978
v 8.636103 45.25016 11.55522
v 10.72674 45.65805 9.270167
v 6.334002 45.22355 13.40827
v 2.272632 45.28261 15.19916
v 8.211104 41.80645 11.90609
v 10.609 41.76694 9.240977
v 12.66018 37.47422 10.0993
v 6.005261 41.66135 13.79706
v 10.11496 37.51869 12.70844
v 10.63755 30.67535 9.593386
v 2.442568 42.06197 14.59069
v -0.241394 45.30895 14.63935
v -4.025201 46.20104 13.86797
v 6.93445 37.57291 14.94383
v 8.572808 31.49858 13.61
v 5.75879 32.32637 15.57047
v 3.556507 37.85998 15.78735
v 2.260126 32.12009 16.17171
v -0.8427677 42.34126 14.16151
v -0.09127045 38.15113 15.37776
v -1.389893 32.29496 15.74736
v -4.243188 42.47554 13.50119
v -4.022017 38.23859 14.50204
v -5.019238 32.89203 14.71701
v -4.014201 45.84866 13.79478
v -7.180837 46.02903 12.34195
v -7.051164 46.37325 12.21446
v -7.279563 42.36068 11.85831
v -10.44401 45.9339 9.898433
v -10.91566 42.25081 9.798513
v -7.711763 38.19242 12.85796
v -11.47881 38.06948 10.4275
v -9.090269 31.13481 11.64902
v -5.549265 31.45197 13.46033
v -7.736692 23.98545 12.92117
v -10.71954 23.98387 10.54435
v -4.22255 23.98388 14.4478
v -2.00393 31.52393 14.458
v -5.59534 19.58431 14.52387
v -9.071909 19.58431 12.64168
v -0.2950869 23.98387 14.97756
v 1.557097 31.14741 14.87716
v -7.309365 14.94244 14.59983
v -10.02844 15.45081 12.35684
v -1.597216 19.58431 15.41854
v -3.201947 14.51402 16.02689
v -7.479405 14.39631 14.59144
v -3.284268 14.19032 16.07117
v 3.497401 23.98387 14.46868
v 5.41453 31.42754 14.57914
v 1.61358 14.15409 15.51088
v 2.570342 19.5843 15.21244
v 6.647838 23.98387 12.92671
v 8.109776 30.44678 12.54328
v 6.248108 19.58431 13.94106
v 9.346625 23.98387 10.58135
v 5.328697 13.84278 15.22933
v 9.314277 19.5843 11.77182
v 11.82924 23.89075 7.333436
v 12.78526 29.80695 7.90016
v 11.91557 19.53101 8.817043
v 12.854 23.4824 5.875588
v 9.091954 13.85541 13.48212
v 11.56449 13.3601 11.89933
v 14.24867 13.1415 9.518019
v 13.46178 18.62067 5.878789
v 18.21541 6.80362 10.07108
v 14.95617 7.521078 14.51821
v 10.35938 7.509531 17.46281
v 18.21162 2.587733 12.18441
v 20.98943 6.29429 6.866957
v 20.92791 2.82043 8.973433
v 21.85624 -1.031013 10.50218
v 19.44231 -0.8264198 14.5641
v 14.57763 2.529043 16.73927
v 4.976969 7.504928 19.18419
v 9.368489 2.533666 19.86865
v 15.82369 -1.182022 19.59938
v 0.6611978 8.665847 17.80263
v 15.74028 -1.650505 19.52393
v 19.21072 -1.652847 14.52144
v 9.81082 -1.703484 23.19962
v 9.826727 -1.196991 23.29579
v 2.975492 -1.75095 25.1109
v 3.463827 2.913743 21.23381
v 3.064224 -0.9385986 25.28118
v -1.209602 3.500022 18.79525
v -2.69079 -1.036312 22.21874
v 2.747931 -3.095417 22.30763
v -3.338502 -3.136322 21.59543
v -2.407734 -0.001476288 21.9407
v -9.944766 -1.724335 22.55905
v -4.6318 9.476218 17.2349
v -9.905347 -1.278069 22.76567
v -15.38039 -1.731407 19.37037
v -15.51851 -1.209801 19.62467
v -13.46885 2.586143 17.54006
v -7.265201 2.743313 19.19222
v -8.821438 9.560276 16.27878
v -8.4916 14.02235 16.07632
v 11.87437 46.68148 6.776412
v 10.72674 45.65805 9.270167
v 10.13775 46.42146 8.783709
v 13.15353 45.54242 6.204471
v 14.48434 46.21299 4.707182
v 14.60644 45.66427 4.235184
v 13.92048 44.12976 4.203049
v 14.16044 40.8544 2.3055
v 12.5826 41.50433 4.687737
v -1.209602 3.500022 18.79525
v 3.463827 2.913743 21.23381
v 3.064224 -0.9385986 25.28118
v -2.407734 -0.001476288 21.9407
v -22.82298 -1.708664 -8.939526
v -22.26819 -1.475674 -11.01356
v -22.35769 -1.246853 -11.05002
v -23.24879 -0.7798462 -8.938265
v -23.44765 -0.8323898 -2.083319
v -23.22977 -1.747013 -2.20426
v -21.19194 2.537485 -7.223035
v -21.33826 -0.9635468 4.979031
v -21.2954 -2.031872 4.628353
v -23.01804 -1.598888 8.85495
v -20.4578 2.816288 -1.386681
v -18.23844 7.716019 -5.779029
v -23.06228 -0.9537621 10.10302
v -22.91385 -1.764004 9.863862
v -18.51023 2.464502 5.130182
v -18.45985 8.203837 -0.09439373
v -20.10217 -1.216583 15.13883
v -19.90214 -1.727917 14.89695
v -15.51851 -1.209801 19.62467
v -15.38039 -1.731407 19.37037
v -18.05295 2.010078 13.94945
v -13.46885 2.586143 17.54006
v -20.29794 2.360981 11.06814
v -20.39943 2.361156 9.64718
v -13.51046 9.451001 13.42119
v -8.821438 9.560276 16.27878
v -8.4916 14.02235 16.07632
v -11.91221 14.28796 12.67127
v -16.33508 8.907328 10.57536
v -14.99244 14.10449 9.808061
v -16.65847 8.780592 9.790253
v -17.79882 8.137033 5.283299
v -16.55003 14.46062 5.643928
v -16.04118 14.72313 0.05077242
v -14.54356 14.93802 -3.315956
v -13.53042 14.73946 -7.260693
v -16.53189 7.690038 -10.6608
v -14.22745 19.66335 -5.529438
v -15.99088 15.41524 0.3676434
v -14.44395 19.58788 -1.036188
v -15.5169 15.27408 5.811986
v -15.63136 14.66638 5.684538
v -15.24133 19.5436 2.398739
v -13.42501 15.17898 9.295295
v -13.5942 14.4414 9.150985
v -14.14601 19.58431 6.615985
v -10.02844 15.45081 12.35684
v -10.34393 14.36773 12.12505
v -7.309365 14.94244 14.59983
v -7.479405 14.39631 14.59144
v -11.96522 19.58431 9.961829
v -9.071909 19.58431 12.64168
v -10.71954 23.98387 10.54435
v -7.736692 23.98545 12.92117
v -13.07818 23.98387 7.484931
v -14.01586 24.03148 3.93956
v -12.27862 30.37418 8.90035
v -9.090269 31.13481 11.64902
v -13.93833 24.06891 1.118404
v -14.14821 30.27787 6.107912
v -11.47881 38.06948 10.4275
v -7.711763 38.19242 12.85796
v -13.00039 37.79744 7.387786
v -14.34885 30.29778 3.305944
v -14.21277 23.88978 -2.925213
v -13.16486 23.92949 -6.934978
v -12.64689 19.28786 -9.008312
v -14.39293 30.17911 -5.766253
v -15.34746 30.14034 -1.003937
v -16.52695 37.64713 -4.515537
v -15.91656 37.41235 -0.01329231
v -16.85668 41.65078 -3.359215
v -12.57125 37.7328 3.862478
v -16.47564 41.67575 0.9023848
v -13.70104 42.02591 4.095132
v -13.12085 42.04 7.337
v -10.91566 42.25081 9.798513
v -13.80985 45.92671 4.065274
v -12.80953 45.71478 7.517445
v -10.44401 45.9339 9.898433
v -16.38264 45.1768 0.8315095
v -16.30519 45.75214 0.8941832
v -16.70338 45.8209 -3.356256
v -16.7761 45.25751 -3.357805
v -15.02979 41.81121 -7.189005
v -15.39411 45.84203 -7.276529
v -15.42328 45.41498 -7.234293
v -10.32492 46.21532 9.850163
v -12.62513 46.07391 7.352732
v -7.051164 46.37325 12.21446
v -7.180837 46.02903 12.34195
v -3.338502 -3.136322 21.59543
v -9.944766 -1.724335 22.55905
v -2.69079 -1.036312 22.21874
v -8.393832 -3.188919 18.87728
v -15.38039 -1.731407 19.37037
v -12.95235 -3.194603 16.21691
v -19.90214 -1.727917 14.89695
v -16.63617 -3.188919 12.47358
v -22.91385 -1.764004 9.863862
v -20.04918 -3.146457 8.5323
v -23.01804 -1.598888 8.85495
v -21.2954 -2.031872 4.628353
v -19.98577 -3.166286 3.904328
v -23.22977 -1.747013 -2.20426
v -21.51411 -3.095695 -2.502014
v -22.82298 -1.708664 -8.939526
v -17.9836 -3.220619 2.324612
v -14.28196 -3.311111 7.101208
v -9.282457 -3.35329 11.58549
v -3.417898 -3.311119 15.2956
v -19.11093 -3.094276 -7.507905
v -22.26819 -1.475674 -11.01356
v -21.23459 -1.636448 -11.76945
v -15.78663 -3.233749 -3.420431
v -10.92667 -3.398395 1.316288
v -4.830424 -3.48045 6.182514
v -16.44801 -3.069111 -12.03773
v -19.61652 -1.62368 -14.47632
v -15.02926 -1.621223 -19.02003
v -12.3079 -3.21159 -8.798611
v -6.755136 -3.388477 -4.490772
v -13.52183 -2.333652 -17.86717
v -9.733948 -1.792915 -22.1354
v -9.456943 -2.298534 -21.70061
v -7.947214 -3.152924 -13.49086
v -2.984776 -3.078846 -17.17518
v -2.004818 -3.277481 -9.921413
v -0.02088809 -3.478912 0.3688297
v 1.585772 -2.294754 -23.07121
v -4.119669 -2.285748 -23.78226
v 2.978043 -3.12849 -14.59909
v 4.774604 -3.337292 -5.454878
v 2.364596 -1.766606 -23.73042
v -3.873008 -1.853527 -24.09988
v 8.059725 -1.615025 -22.67127
v 8.293494 -2.318166 -20.44125
v 15.82218 -1.638532 -20.20378
v 15.21774 -2.305641 -19.36019
v 19.66021 -1.464655 -15.75177
v 18.86676 -2.485359 -15.83602
v 9.505569 -3.138553 -11.22927
v 15.16668 -3.117443 -6.758703
v 22.67677 -2.685708 -9.38018
v 11.32751 -3.277481 -0.6014919
v 19.17894 -3.064003 -1.714066
v 7.001872 -3.388477 5.213037
v 16.65341 -3.122112 4.088233
v 1.924613 -3.398403 10.6362
v 13.15386 -3.209194 9.488237
v 8.2842 -3.233753 14.17982
v 2.651969 -3.215881 17.85792
v 8.708929 -3.086628 20.22405
v 2.747931 -3.095417 22.30763
v 2.975492 -1.75095 25.1109
v 9.81082 -1.703484 23.19962
v 13.39566 -3.094357 16.39241
v 15.74028 -1.650505 19.52393
v 17.20867 -3.047745 12.70314
v 19.21072 -1.652847 14.52144
v 19.59323 -2.6185 8.992162
v 21.47766 -1.826324 10.35378
v 21.85405 -2.61747 4.165103
v 23.86757 -1.453396 4.168447
v 24.16298 -2.510311 -2.118225
v 25.53565 -1.317551 -3.806694
v 23.92621 -1.119227 -9.818349
v 18.86676 -2.485359 -15.83602
v 22.67677 -2.685708 -9.38018
v 23.92621 -1.119227 -9.818349
v 19.66021 -1.464655 -15.75177
v 19.9601 -0.2572319 -15.57446
v 24.09106 -0.008460214 -9.720864
v 25.53565 -1.317551 -3.806694
v 15.95921 -0.6895592 -20.4408
v 15.82218 -1.638532 -20.20378
v 18.67843 2.552239 -15.20365
v 14.08062 2.552449 -18.96863
v 12.39281 7.682252 -18.20162
v 22.47314 2.551679 -8.484624
v 17.47805 7.480694 -14.62828
v 12.1859 7.942567 -18.11172
v 16.91468 8.15739 -14.39895
v 21.01674 6.979649 -8.458911
v 20.31147 7.732824 -8.505644
v 25.60858 -0.861805 -4.564507
v 23.86757 -1.453396 4.168447
v 22.45992 2.97422 -3.76775
v 21.44334 6.257495 -4.103458
v 20.92885 6.814629 -4.070633
v 22.74323 2.7112 2.962463
v 22.40598 6.316719 2.000398
v 24.05202 -1.055519 4.031246
v 21.47766 -1.826324 10.35378
v 20.92791 2.82043 8.973433
v 20.98943 6.29429 6.866957
v 21.85624 -1.031013 10.50218
v 19.21072 -1.652847 14.52144
v 19.44231 -0.8264198 14.5641
v -9.456943 -2.298534 -21.70061
v -4.119669 -2.285748 -23.78226
v -3.873008 -1.853527 -24.09988
v -9.733948 -1.792915 -22.1354
v -9.885705 -0.8739662 -22.09561
v -3.634501 -0.8678856 -24.02743
v 2.364596 -1.766606 -23.73042
v -15.35891 -0.9073601 -19.02783
v -15.02926 -1.621223 -19.02003
v 2.764205 -0.866686 -23.84396
v 8.059725 -1.615025 -22.67127
v -19.85625 -0.9235153 -14.56186
v -19.61652 -1.62368 -14.47632
v 7.803829 -0.8804085 -23.02831
v 15.82218 -1.638532 -20.20378
v 15.95921 -0.6895592 -20.4408
v 14.08062 2.552449 -18.96863
v 5.916485 2.55185 -20.2535
v 1.518135 2.45467 -21.54308
v -3.950353 2.544942 -20.95324
v -9.309818 2.508383 -19.37799
v 5.00867 6.762051 -20.07519
v 12.39281 7.682252 -18.20162
v 12.1859 7.942567 -18.11172
v 1.383008 6.313617 -20.43364
v -13.89375 2.515912 -16.18081
v -9.681311 5.03884 -19.0344
v -4.320882 7.723774 -19.38229
v -17.82537 2.514344 -12.20222
v -13.9411 5.032594 -16.08756
v -21.5989 -0.9330826 -11.77069
v -21.23459 -1.636448 -11.76945
v -22.26819 -1.475674 -11.01356
v -22.35769 -1.246853 -11.05002
v -23.24879 -0.7798462 -8.938265
v -21.19194 2.537485 -7.223035
v -17.6947 4.175624 -11.74781
v -16.53189 7.690038 -10.6608
v -18.23844 7.716019 -5.779029
v -13.3244 7.707629 -14.59563
v -9.164778 7.719167 -17.57114
v -12.09059 14.73095 -9.724722
v -13.53042 14.73946 -7.260693
v -9.388397 14.16831 -13.2452
v -5.731916 13.95643 -15.12947
v -12.64689 19.28786 -9.008312
v -14.22745 19.66335 -5.529438
v -9.97937 18.88255 -12.18993
v -1.420497 13.65322 -16.19978
v -6.808847 18.88874 -14.06303
v -10.75302 23.96893 -10.29441
v -13.16486 23.92949 -6.934978
v -3.018414 18.88874 -15.27872
v -7.655209 23.98387 -12.78636
v -12.25904 30.22433 -9.424767
v -14.39293 30.17911 -5.766253
v -4.073591 23.98387 -14.2754
v -9.374555 30.22488 -12.19667
v -14.35374 37.86078 -8.271036
v -16.52695 37.64713 -4.515537
v -5.875634 30.21498 -14.15738
v -11.44804 37.86163 -11.70692
v -15.02979 41.81121 -7.189005
v -16.85668 41.65078 -3.359215
v -12.37208 41.81065 -10.68128
v -15.42328 45.41498 -7.234293
v -8.034966 37.67514 -14.61231
v -8.877831 41.95478 -13.24264
v -1.903669 30.21498 -15.12882
v -4.111156 37.57128 -16.33664
v -5.443757 42.27604 -14.42547
v -0.1690884 23.98387 -14.7791
v 1.018454 18.88873 -15.46747
v 2.564704 13.87312 -16.23584
v 4.261559 8.20066 -18.56551
v 4.432422 7.670084 -18.81078
v 9.425497 8.808735 -16.50012
v 9.006526 9.131423 -16.45742
v 6.727643 13.87936 -15.8437
v 4.778202 18.8744 -14.55614
v 3.727254 23.98387 -14.23784
v 2.146404 30.21498 -15.01839
v 0.2278433 37.52196 -17.04051
v 5.055521 37.60645 -15.27375
v 5.696069 30.20385 -13.91878
v -3.437653 42.35325 -15.13012
v 2.155763 41.78188 -16.66178
v -1.888672 42.06552 -15.90086
v -4.183908 46.20878 -15.54196
v -2.41919 45.98494 -16.28947
v 1.880707 45.40364 -17.25613
v -5.970118 46.14714 -14.77666
v -1.888468 46.34764 -16.17319
v -3.574273 46.744 -15.37226
v -5.245537 46.71014 -14.55441
v -8.914515 46.25219 -13.60674
v 1.370368 46.3808 -17.01148
v -9.877129 45.62286 -13.76604
v 4.964424 46.27678 -17.49525
v 4.73805 44.55553 -17.08173
v 5.898254 45.61725 -16.67028
v 7.923567 44.22594 -15.99634
v 8.017111 45.53623 -15.83254
v 4.876081 41.24713 -16.65512
v -13.26519 45.43209 -10.87295
v -13.22587 45.82309 -10.89325
v -15.39411 45.84203 -7.276529
v 6.92876 37.30716 -14.81381
v 8.213569 41.14462 -14.86043
v 10.20308 36.85503 -13.92751
v 7.942369 29.63068 -12.15341
v 10.62116 29.80433 -12.08377
v 9.459105 22.91062 -11.06268
v 11.99982 24.78507 -10.60905
v 12.66018 37.47422 10.0993
v 12.78526 29.80695 7.90016
v 10.63755 30.67535 9.593386
v 13.9996 37.05687 5.504852
v 10.609 41.76694 9.240977
v 12.5826 41.50433 4.687737
v 10.72674 45.65805 9.270167
v 13.15353 45.54242 6.204471
v 15.17739 36.60436 3.575076
v 14.16044 40.8544 2.3055
v 15.70867 36.29806 0.2627497
v 15.46476 40.62944 -0.6593418
v 13.92048 44.12976 4.203049
v 15.85816 29.95519 1.507615
v 14.94186 29.83185 5.853309
v 15.06405 24.68974 3.897084
v 15.16485 24.71553 -1.715462
v 14.9408 22.42148 4.396067
v 15.45439 29.76035 -2.599368
v 15.26614 36.16837 -3.786169
v 15.61811 43.63083 -1.198387
v 14.70449 40.32956 -5.071084
v 15.75243 45.61027 -1.306679
v 14.60644 45.66427 4.235184
v 15.986 46.32914 -0.6002712
v 14.48434 46.21299 4.707182
v 15.0297 46.29113 -5.805193
v 14.94626 45.51581 -5.967578
v 13.4622 46.28798 -9.833313
v 14.7357 43.67553 -6.079285
v 13.54787 45.52301 -9.641819
v 10.84143 46.27781 -13.44131
v 11.03678 45.60917 -13.21917
v 8.216236 46.28046 -15.61311
v 13.67257 43.33813 -9.917497
v 13.30737 40.73695 -8.80488
v 8.017111 45.53623 -15.83254
v 4.964424 46.27678 -17.49525
v 5.898254 45.61725 -16.67028
v 10.99428 44.1024 -13.41302
v 7.923567 44.22594 -15.99634
v 11.11445 40.86142 -12.2488
v 14.16878 36.68156 -8.111455
v 8.213569 41.14462 -14.86043
v 4.876081 41.24713 -16.65512
v 4.73805 44.55553 -17.08173
v 10.20308 36.85503 -13.92751
v 12.52083 36.68129 -11.64885
v 10.62116 29.80433 -12.08377
v 13.26713 29.54132 -9.752294
v 11.99982 24.78507 -10.60905
v 14.50969 29.49377 -6.313991
v 13.1112 24.9422 -8.444427
v 14.46286 24.6487 -5.347249
v 13.77704 22.09172 -7.968967
v 14.70603 21.73159 -4.355703
v 15.25338 21.80362 -0.1545792
v 15.04229 21.4233 0.1221313
v 14.50782 21.31808 -4.123755
v 14.31325 19.71442 1.290939
v 13.63199 19.16217 5.503627
v 13.603 21.68539 -8.03046
v 13.33387 19.43345 -3.126874
v 13.46178 18.62067 5.878789
v 13.0839 20.22218 5.766693
v 12.28571 19.95622 -8.418439
v 14.55486 18.85436 1.703112
v 11.91557 19.53101 8.817043
v 11.82924 23.89075 7.333436
v 12.854 23.4824 5.875588
v 11.72515 20.058 -9.56732
v 9.459105 22.91062 -11.06268
v 13.16112 18.89676 -2.74456
v 16.99162 13.19643 4.819015
v 14.24867 13.1415 9.518019
v 17.14814 13.01463 0.5882841
v 19.30595 7.436445 5.788224
v 18.21541 6.80362 10.07108
v 19.60357 6.925808 6.041216
v 19.24395 7.64511 1.014724
v 19.55514 7.19026 1.228435
v 18.20661 7.958599 -4.113012
v 18.61713 7.504249 -3.942155
v 14.84029 13.48773 -5.210146
v 16.80339 8.982908 -9.159783
v 14.08551 13.76453 -9.468045
v 11.98748 19.51483 -8.032717
v 11.90742 19.13418 -9.741674
v 10.59332 18.90586 -11.58918
v 8.445313 19.14543 -13.00944
v 13.49072 9.050965 -13.21576
v 17.23878 8.664008 -8.95273
v 13.90571 8.762114 -13.21503
v 10.45689 13.69499 -13.61149
v 9.006526 9.131423 -16.45742
v 9.425497 8.808735 -16.50012
v 6.727643 13.87936 -15.8437
v 4.778202 18.8744 -14.55614
v 6.938364 24.01835 -12.57498
v 7.942369 29.63068 -12.15341
v 3.727254 23.98387 -14.23784
v 5.696069 30.20385 -13.91878
v 5.055521 37.60645 -15.27375
v 2.146404 30.21498 -15.01839
v 18.21541 6.80362 10.07108
v 19.60357 6.925808 6.041216
v 20.98943 6.29429 6.866957
v 21.97925 6.594013 1.729907
v 19.55514 7.19026 1.228435
v 22.40598 6.316719 2.000398
v 20.92885 6.814629 -4.070633
v 21.44334 6.257495 -4.103458
v 18.61713 7.504249 -3.942155
v 20.31147 7.732824 -8.505644
v 17.23878 8.664008 -8.95273
v 16.91468 8.15739 -14.39895
v 16.80339 8.982908 -9.159783
v 18.20661 7.958599 -4.113012
v 13.90571 8.762114 -13.21503
v 12.1859 7.942567 -18.11172
v 9.425497 8.808735 -16.50012
v 5.00867 6.762051 -20.07519
v 4.432422 7.670084 -18.81078
v 1.383008 6.313617 -20.43364
v 13.9996 37.05687 5.504852
v 15.17739 36.60436 3.575076
v 14.94186 29.83185 5.853309
v 15.06405 24.68974 3.897084
v 14.9408 22.42148 4.396067
v 13.63199 19.16217 5.503627
v 13.0839 20.22218 5.766693
v 10.63755 30.67535 9.593386
v 8.109776 30.44678 12.54328
v 8.572808 31.49858 13.61
v 5.41453 31.42754 14.57914
v 5.75879 32.32637 15.57047
v 1.557097 31.14741 14.87716
v 2.260126 32.12009 16.17171
v -2.00393 31.52393 14.458
v -1.389893 32.29496 15.74736
v -5.549265 31.45197 13.46033
v -5.019238 32.89203 14.71701
v -8.34614 14.23385 15.78129
v -3.284268 14.19032 16.07117
v -8.4916 14.02235 16.07632
v -7.479405 14.39631 14.59144
v -11.91221 14.28796 12.67127
v -10.34393 14.36773 12.12505
v -11.34318 14.47661 12.55796
v -14.99244 14.10449 9.808061
v -13.5942 14.4414 9.150985
v -14.43536 14.33406 9.615156
v -16.55003 14.46062 5.643928
v -15.63136 14.66638 5.684538
v -16.26211 14.62946 5.698389
v -16.04118 14.72313 0.05077242
vn 0.369896 0.8737502 0.3158126
vn 0.7677528 0.2675954 0.5821927
vn 0.679482 0.1386451 0.7204733
vn 0.3833839 0.8468969 0.3684867
vn 0.2658542 0.8584558 0.4386059
vn 0.05702065 0.994062 0.09267931
vn 0.1182718 0.8686091 0.4811756
vn 0.375472 0.8688552 0.3226631
vn 0.029529 0.9963334 0.0802978
vn -0.01756927 0.8850614 0.4651425
vn 0.0516008 0.9982873 0.02756583
vn 0.006809785 0.9979457 0.06370166
vn 0.02020666 0.9995162 0.02364532
vn 0.01109995 0.999935 -0.002610001
vn 0.05943485 0.9982094 0.006749912
vn 0.2817061 0.9577779 0.05747375
vn 0.8136702 0.34988 0.4642465
vn 0.9371911 0.3444748 0.05486437
vn 0.0175712 0.9998088 0.008573081
vn 0.2810485 0.9569263 -0.0728267
vn 0.8389915 0.4860204 -0.2446986
vn 0.1237966 0.9902604 -0.06370814
vn 0.7192771 0.5599091 -0.4112692
vn 0.0315332 0.9995025 0.0006095178
vn 0.06880659 0.9976045 -0.00713074
vn 0.03341106 0.9992377 0.02019321
vn 0.09882537 0.9894868 -0.1055905
vn 0.5649295 0.5933853 -0.573366
vn 0.02002387 0.9997957 -0.002731873
vn 0.04054751 0.9948984 -0.09237534
vn 0.4351741 0.6059831 -0.6658889
vn 0.06016257 0.9974341 -0.03880257
vn -0.1031961 0.7424156 -0.6619439
vn 0.1661985 0.5300029 -0.8315498
vn 0.0357851 0.9993559 -0.002686951
vn 0.01878879 0.997542 -0.06750605
vn -0.01282578 0.9976995 -0.06656776
vn -0.1086773 0.7589526 -0.6420127
vn -0.11184 0.8782285 -0.4649802
vn -0.201612 0.8944057 -0.3992378
vn -0.01378965 0.9998949 0.004487254
vn -0.01336178 0.9995206 0.0279287
vn -0.01117099 0.9996154 0.02538426
vn -0.06390317 0.9964269 -0.05522425
vn -0.0386674 0.9992512 -0.001325289
vn -0.02976537 0.9993 0.02266132
vn -0.03922625 0.9985119 0.0378858
vn -0.0584941 0.996412 0.06116916
vn -0.1030687 0.9921446 -0.07089409
vn -0.2325846 0.8632982 -0.4479069
vn -0.09065321 0.9957924 -0.01339888
vn -0.09096324 0.9954296 0.0290801
vn -0.0906176 0.9937918 0.06454828
vn -0.09347643 0.9360539 0.3392128
vn -0.09725694 0.9925836 0.07293096
vn -0.3156343 0.3591256 0.878296
vn -0.1727045 0.2635625 0.9490563
vn -0.3653456 0.7313429 0.5758995
vn -0.1598875 0.9591501 0.2333814
vn -0.4491543 0.7596963 0.4702361
vn -0.160095 0.978615 0.1291602
vn -0.4714231 0.8390093 0.2717051
vn -0.2023001 0.9723865 0.1163578
vn -0.2682523 0.9550431 0.1262276
vn -0.7474193 0.5584763 0.3598176
vn -0.805751 0.3536574 0.4750702
vn -0.7901891 0.5200834 0.3242134
vn -0.289461 0.9507071 0.1112128
vn -0.8334704 0.5450308 -0.09093116
vn -0.3165493 0.9479872 -0.03341906
vn -0.7631237 0.5387205 -0.356963
vn -0.2707154 0.952799 -0.1374309
vn -0.6540604 0.5099267 -0.5587306
vn -0.2613108 0.9331374 -0.2469235
vn -0.4740797 0.3015424 -0.8272368
vn 0.1182718 0.8686091 0.4811756
vn -0.1727045 0.2635625 0.9490563
vn -0.01756927 0.8850614 0.4651425
vn 0.1520799 0.295658 0.9431109
vn 0.2658542 0.8584558 0.4386059
vn 0.4719806 0.3185691 0.8220389
vn 0.3833839 0.8468969 0.3684867
vn 0.679482 0.1386451 0.7204733
vn 0.6781408 -0.1649624 0.7161792
vn 0.7677528 0.2675954 0.5821927
vn 0.4974383 -0.03515285 0.8667868
vn 0.07838834 -0.1071528 0.9911476
vn 0.6626665 0.1960208 0.7228063
vn 0.8187224 0.1677264 0.5491461
vn 0.8457332 0.1332372 0.5167041
vn 0.444179 0.1827167 0.8771087
vn 0.693096 0.1380931 0.7074943
vn 0.7748661 -0.1623055 0.6109332
vn 0.07163364 0.09798993 0.992606
vn -0.2082711 -0.1913886 0.959163
vn -0.3156343 0.3591256 0.878296
vn 0.4289584 0.1725016 0.8867006
vn 0.5619686 -0.4438724 0.6979746
vn 0.3168193 -0.3692803 0.8736461
vn 0.088223 0.1806133 0.9795895
vn 0.03235216 -0.4124545 0.9104036
vn -0.1774158 0.05803748 0.9824232
vn -0.1510157 0.1703677 0.9737397
vn -0.1946939 -0.3752504 0.9062458
vn -0.3358479 0.06883571 0.9393976
vn -0.3388291 0.1486224 0.9290351
vn -0.3745157 -0.2488455 0.8932042
vn -0.3349769 -0.1680927 0.9271113
vn -0.5057573 0.1901665 0.8414549
vn -0.3653456 0.7313429 0.5758995
vn -0.4908171 0.08730147 0.8668778
vn -0.6378109 0.2467059 0.7296119
vn -0.6680686 0.08948202 0.7386997
vn -0.5162739 0.1080444 0.8495809
vn -0.7080685 0.06495167 0.7031503
vn -0.5847924 -0.02650672 0.8107498
vn -0.3862583 -0.2940464 0.8742661
vn -0.4943518 0.08527373 0.8650692
vn -0.6877524 0.0696326 0.722598
vn -0.267865 0.08410391 0.9597786
vn -0.2315938 -0.3868516 0.8925862
vn -0.3554454 0.133964 0.9250472
vn -0.5822802 0.1229377 0.8036393
vn -0.02366648 0.06201379 0.9977947
vn -0.01545603 -0.4357257 0.8999468
vn -0.4486287 0.1297471 0.8842499
vn -0.6333844 0.09345521 0.7681733
vn -0.06371891 0.108295 0.9920747
vn -0.100101 0.1199576 0.9877196
vn -0.3117462 0.7510314 0.5820362
vn -0.07708348 0.2418843 0.9672384
vn 0.2716658 0.02987123 0.961928
vn 0.2563032 -0.5245029 0.8119146
vn 0.06997959 0.2425759 0.9676051
vn 0.1834969 0.1025871 0.9776527
vn 0.5606248 0.02818365 0.8275902
vn 0.5721644 -0.4173623 0.7060005
vn 0.4294616 0.1455326 0.8912817
vn 0.7120382 0.04654287 0.7005965
vn 0.2437126 0.3399488 0.9083166
vn 0.6359458 0.2002181 0.7453091
vn 0.8024331 -0.006835129 0.5967029
vn 0.7685273 -0.09572341 0.632616
vn 0.782831 0.2382861 0.5748004
vn 0.7573435 -0.02841759 0.6523982
vn 0.4953505 0.3783385 0.7819769
vn 0.6409295 0.4331905 0.633684
vn 0.7587563 0.4540069 0.4670832
vn 0.8525367 0.3283181 0.4066797
vn 0.7422717 0.4382249 0.5069436
vn 0.6391848 0.4145227 0.647776
vn 0.4011172 0.4323821 0.8075585
vn 0.7275054 0.4060757 0.5530266
vn 0.7148823 0.6232479 0.3170261
vn 0.8249824 0.3490751 0.4444666
vn 0.8974785 0.02155544 0.4405313
vn 0.812664 0.1461014 0.5641201
vn 0.5852255 0.4702592 0.6605812
vn 0.06454929 0.4339213 0.8986355
vn 0.3425657 0.5221381 0.7810382
vn 0.6568938 0.2051491 0.7255372
vn -0.08322413 0.3632502 0.9279672
vn 0.5381052 -0.6171587 0.5740715
vn 0.6306049 -0.6581609 0.4112928
vn 0.3274169 -0.6150937 0.7172572
vn 0.3876299 0.2452054 0.8886042
vn -0.1004716 -0.4398811 0.8924181
vn -0.04480255 0.5840224 0.8105003
vn -0.06459486 0.335228 0.9399201
vn -0.1507359 0.4840817 0.8619417
vn -0.1984525 -0.3184395 0.9269373
vn -0.03421757 -0.9357786 0.350924
vn -0.08281711 -0.9148077 0.3953077
vn -0.1973721 0.4813609 0.8540117
vn -0.20794 -0.5832552 0.7852225
vn -0.0743586 0.2599309 0.96276
vn -0.1983323 0.2546107 0.9464871
vn -0.4103508 -0.7382529 0.5353457
vn -0.5764996 0.1029642 0.8105841
vn -0.424806 0.5357957 0.7297004
vn -0.1430523 0.5183832 0.8430984
vn -0.3591632 0.2875649 0.8878672
vn -0.3020898 0.5302063 0.7922267
vn 0.375472 0.8688552 0.3226631
vn 0.7677528 0.2675954 0.5821927
vn 0.369896 0.8737502 0.3158126
vn 0.7786311 0.05352812 0.6251947
vn 0.8136702 0.34988 0.4642465
vn 0.8883569 -0.2902955 0.3557394
vn 0.8539061 -0.2540871 0.4541852
vn 0.9176365 0.08370709 0.3885053
vn 0.8772788 0.04873067 0.477501
vn -0.1507359 0.4840817 0.8619417
vn -0.04480255 0.5840224 0.8105003
vn -0.06459486 0.335228 0.9399201
vn -0.1973721 0.4813609 0.8540117
vn -0.6964396 -0.6970611 -0.1705219
vn -0.6139696 -0.661081 -0.4312927
vn -0.8246614 0.0714493 -0.5610957
vn -0.9535915 0.1804558 -0.2410374
vn -0.9744539 0.1794073 0.1351019
vn -0.8118162 -0.579684 0.07014981
vn -0.8157508 0.5455942 -0.1920356
vn -0.9347354 0.3490305 -0.06668913
vn -0.8277957 -0.5608957 0.01225781
vn -0.9560288 -0.2034524 -0.211225
vn -0.8728663 0.4707332 0.1285092
vn -0.8650438 0.4635227 -0.1919528
vn -0.961042 0.2101878 0.1794977
vn -0.7444484 -0.6404318 0.1887954
vn -0.8969196 0.4412793 0.02842094
vn -0.94357 0.3303676 0.02308605
vn -0.7695848 0.06169014 0.6355576
vn -0.5456115 -0.7231395 0.4235297
vn -0.5764996 0.1029642 0.8105841
vn -0.4103508 -0.7382529 0.5353457
vn -0.6004087 0.527131 0.6013671
vn -0.424806 0.5357957 0.7297004
vn -0.7655026 0.5429261 0.3453074
vn -0.8402364 0.5387108 -0.06159058
vn -0.6210981 0.3516789 0.7003992
vn -0.3591632 0.2875649 0.8878672
vn -0.3020898 0.5302063 0.7922267
vn -0.5076553 0.6596785 0.5541755
vn -0.7963692 0.3985395 0.4549313
vn -0.6719095 0.6130739 0.4155455
vn -0.9192752 0.3544139 0.1712422
vn -0.9583127 0.2703291 0.0925144
vn -0.7910047 0.5960039 0.1381705
vn -0.9415554 0.3037658 -0.1456017
vn -0.9369448 0.271714 -0.2197863
vn -0.8884626 0.2715666 -0.3699808
vn -0.7618929 0.4841972 -0.4302003
vn -0.9683796 0.05242184 -0.243912
vn -0.9748861 0.190837 -0.1147972
vn -0.9791342 0.1400088 -0.1472879
vn -0.9346288 0.1382675 0.3276447
vn -0.6177541 0.7575045 0.2111083
vn -0.9763313 0.216243 0.00403263
vn -0.7668444 0.09934527 0.634098
vn -0.5190947 0.745581 0.417911
vn -0.9065377 0.1725331 0.3852554
vn -0.6333844 0.09345521 0.7681733
vn -0.4488713 0.7237443 0.5241267
vn -0.4486287 0.1297471 0.8842499
vn -0.3117462 0.7510314 0.5820362
vn -0.7460656 0.1290149 0.6532545
vn -0.5822802 0.1229377 0.8036393
vn -0.6877524 0.0696326 0.722598
vn -0.4943518 0.08527373 0.8650692
vn -0.8689833 0.05503147 0.4917718
vn -0.987205 0.07571886 0.1403313
vn -0.7924801 -0.02014207 0.6095652
vn -0.5847924 -0.02650672 0.8107498
vn -0.9996595 0.02327229 0.01179886
vn -0.9723859 0.02989554 0.2314561
vn -0.7080685 0.06495167 0.7031503
vn -0.5162739 0.1080444 0.8495809
vn -0.9564264 0.03513269 0.2898523
vn -0.9871017 0.004294324 0.160037
vn -0.9953457 -0.03295617 -0.09055887
vn -0.9026241 0.01170654 -0.4302705
vn -0.8470178 0.07415475 -0.5263666
vn -0.9299527 -0.1430018 -0.3387307
vn -0.9873517 -0.1231559 0.0998465
vn -0.9639168 -0.1092222 -0.242765
vn -0.9433683 -0.1292784 0.3055214
vn -0.9890099 -0.04085011 -0.1420943
vn -0.9585172 -0.03791774 0.2825014
vn -0.909522 -0.09095803 0.4055816
vn -0.9077334 -0.09149975 0.4094481
vn -0.9248603 0.003253915 0.3802931
vn -0.6680686 0.08948202 0.7386997
vn -0.7474193 0.5584763 0.3598176
vn -0.805751 0.3536574 0.4750702
vn -0.6378109 0.2467059 0.7296119
vn -0.9298261 0.05166573 0.3643543
vn -0.7901891 0.5200834 0.3242134
vn -0.8334704 0.5450308 -0.09093116
vn -0.9899733 0.04826855 -0.1327518
vn -0.8628343 -0.04576184 -0.5034112
vn -0.7631237 0.5387205 -0.356963
vn -0.8971094 -0.02006928 -0.4413524
vn -0.4491543 0.7596963 0.4702361
vn -0.4714231 0.8390093 0.2717051
vn -0.3653456 0.7313429 0.5758995
vn -0.5057573 0.1901665 0.8414549
vn -0.08281711 -0.9148077 0.3953077
vn -0.20794 -0.5832552 0.7852225
vn -0.1984525 -0.3184395 0.9269373
vn -0.07025798 -0.9656507 0.2501647
vn -0.4103508 -0.7382529 0.5353457
vn -0.1219492 -0.9798728 0.1580428
vn -0.5456115 -0.7231395 0.4235297
vn -0.1511414 -0.9805999 0.1248205
vn -0.7444484 -0.6404318 0.1887954
vn -0.2766485 -0.9599583 0.04410997
vn -0.9560288 -0.2034524 -0.211225
vn -0.8277957 -0.5608957 0.01225781
vn -0.3175291 -0.9478263 0.0282942
vn -0.8118162 -0.579684 0.07014981
vn -0.3256761 -0.9454774 -0.002773882
vn -0.6964396 -0.6970611 -0.1705219
vn -0.02662918 -0.9996432 -0.00207865
vn -0.02264397 -0.9997213 0.006673467
vn -0.0127036 -0.9997826 0.01652971
vn -0.0009645004 -0.9997167 0.02378135
vn -0.1957888 -0.977129 -0.08298029
vn -0.6139696 -0.661081 -0.4312927
vn -0.5302048 -0.7490387 -0.3972705
vn -0.02278354 -0.999669 -0.01195184
vn -0.017702 -0.9998314 -0.004884352
vn -0.005002823 -0.9999665 0.006474807
vn -0.1448194 -0.98047 -0.1330635
vn -0.5639008 -0.6908644 -0.4524625
vn -0.4776397 -0.6133136 -0.6290523
vn -0.01885721 -0.9990702 -0.03877027
vn -0.008577351 -0.9998178 -0.01705022
vn -0.1693454 -0.9623826 -0.2124663
vn -0.3768334 -0.4287256 -0.8210913
vn -0.1847455 -0.9092147 -0.373092
vn -0.02755939 -0.9977559 -0.06102012
vn -0.008853034 -0.9968131 -0.07927947
vn 0.0005423168 -0.9997055 -0.02426159
vn 0.005014597 -0.999961 -0.00726811
vn 0.05559139 -0.928356 -0.3675116
vn -0.0990025 -0.8659134 -0.4902984
vn 0.02033998 -0.9977853 -0.06333031
vn 0.01213566 -0.9997755 -0.01736974
vn 0.1101905 -0.5618094 -0.8198953
vn -0.1134032 -0.3657063 -0.9237958
vn 0.1979996 -0.6576045 -0.7268786
vn 0.06706497 -0.9698377 -0.2343441
vn 0.4806446 -0.5386571 -0.6919749
vn 0.2033169 -0.9280765 -0.3119875
vn 0.7329372 -0.3951289 -0.5537836
vn 0.3615935 -0.880589 -0.3062892
vn 0.025078 -0.9983702 -0.05126294
vn 0.03231006 -0.9989589 -0.03220346
vn 0.4197782 -0.8878648 -0.1883676
vn 0.02271446 -0.9997197 -0.006678054
vn 0.06955256 -0.9975781 0.0006431473
vn 0.0180445 -0.9998304 0.00370318
vn 0.06268058 -0.9979455 0.01326319
vn 0.00839118 -0.9998339 0.01617768
vn 0.04146996 -0.9991025 0.008630279
vn 0.01634757 -0.999676 0.01951151
vn 0.007815727 -0.9996413 0.02561438
vn 0.1060441 -0.9725042 0.2073409
vn -0.03421757 -0.9357786 0.350924
vn -0.1004716 -0.4398811 0.8924181
vn 0.3274169 -0.6150937 0.7172572
vn 0.1490893 -0.9766881 0.154443
vn 0.5381052 -0.6171587 0.5740715
vn 0.209397 -0.9700943 0.1227602
vn 0.6306049 -0.6581609 0.4112928
vn 0.2496299 -0.9639164 0.09246662
vn 0.6559755 -0.6926948 0.2997833
vn 0.3067276 -0.9472286 0.09314655
vn 0.7760089 -0.5900846 0.2227341
vn 0.4296474 -0.9016966 0.04844065
vn 0.8911133 -0.4534445 0.0174732
vn 0.8153646 -0.4270468 -0.3909113
vn 0.3615935 -0.880589 -0.3062892
vn 0.4197782 -0.8878648 -0.1883676
vn 0.8153646 -0.4270468 -0.3909113
vn 0.7329372 -0.3951289 -0.5537836
vn 0.771368 0.2089358 -0.6011134
vn 0.8934763 0.2251459 -0.3885994
vn 0.8911133 -0.4534445 0.0174732
vn 0.5358011 0.1573046 -0.8295616
vn 0.4806446 -0.5386571 -0.6919749
vn 0.6980783 0.4038381 -0.591271
vn 0.4012856 0.4180378 -0.8149934
vn 0.3784978 0.3903379 -0.8392709
vn 0.8492737 0.4615159 -0.2563924
vn 0.679709 0.4588032 -0.5722721
vn 0.2194206 0.7614356 -0.6099759
vn 0.4214475 0.8301343 -0.3650464
vn 0.8456687 0.4923452 -0.2060113
vn 0.529153 0.8449917 -0.07737006
vn 0.9801749 0.153621 -0.1251309
vn 0.7760089 -0.5900846 0.2227341
vn 0.9174579 0.3966312 -0.03089566
vn 0.8713483 0.4880853 -0.05024901
vn 0.5092174 0.8603623 0.02177939
vn 0.9361356 0.3169082 0.1523791
vn 0.8498457 0.522643 0.06787203
vn 0.9675719 0.1096405 0.2275601
vn 0.6559755 -0.6926948 0.2997833
vn 0.8249824 0.3490751 0.4444666
vn 0.7148823 0.6232479 0.3170261
vn 0.8974785 0.02155544 0.4405313
vn 0.6306049 -0.6581609 0.4112928
vn 0.812664 0.1461014 0.5641201
vn -0.1847455 -0.9092147 -0.373092
vn -0.0990025 -0.8659134 -0.4902984
vn -0.1134032 -0.3657063 -0.9237958
vn -0.3768334 -0.4287256 -0.8210913
vn -0.3888541 0.3185721 -0.8644676
vn -0.1171677 0.3278484 -0.9374365
vn 0.1101905 -0.5618094 -0.8198953
vn -0.6054771 0.2272921 -0.7627161
vn -0.4776397 -0.6133136 -0.6290523
vn 0.1153032 0.2403486 -0.9638142
vn 0.1979996 -0.6576045 -0.7268786
vn -0.7716339 0.1781747 -0.6106021
vn -0.5639008 -0.6908644 -0.4524625
vn 0.2182488 0.1755729 -0.9599696
vn 0.4806446 -0.5386571 -0.6919749
vn 0.5358011 0.1573046 -0.8295616
vn 0.4012856 0.4180378 -0.8149934
vn 0.1842708 0.4005487 -0.897555
vn 0.05164967 0.4559034 -0.8885294
vn -0.1568674 0.4696135 -0.8688244
vn -0.3870201 0.3851007 -0.8378024
vn 0.1005526 0.5362869 -0.8380248
vn 0.3784978 0.3903379 -0.8392709
vn 0.2194206 0.7614356 -0.6099759
vn 0.02464285 0.3751782 -0.9266251
vn -0.5947564 0.389294 -0.7033598
vn -0.4162948 0.2572845 -0.8720684
vn -0.1842382 0.4214095 -0.8879585
vn -0.7069452 0.4282987 -0.5628398
vn -0.6441765 0.2786179 -0.7123262
vn -0.768392 0.224334 -0.599373
vn -0.5302048 -0.7490387 -0.3972705
vn -0.6139696 -0.661081 -0.4312927
vn -0.8246614 0.0714493 -0.5610957
vn -0.9535915 0.1804558 -0.2410374
vn -0.8157508 0.5455942 -0.1920356
vn -0.7809141 0.3202549 -0.5362926
vn -0.7618929 0.4841972 -0.4302003
vn -0.8650438 0.4635227 -0.1919528
vn -0.6263313 0.4821221 -0.6125907
vn -0.4085734 0.466903 -0.7842636
vn -0.7731218 0.2605541 -0.5782683
vn -0.8884626 0.2715666 -0.3699808
vn -0.5613573 0.3079 -0.7681639
vn -0.3056751 0.3200762 -0.896724
vn -0.8470178 0.07415475 -0.5263666
vn -0.9683796 0.05242184 -0.243912
vn -0.6593687 0.1072687 -0.7441279
vn -0.07290131 0.3346546 -0.9395168
vn -0.4152912 0.1331077 -0.8998975
vn -0.7257736 0.03330375 -0.6871271
vn -0.9026241 0.01170654 -0.4302705
vn -0.1845375 0.139021 -0.9729435
vn -0.5074166 0.03993828 -0.8607748
vn -0.7753308 -0.1154273 -0.6209176
vn -0.9299527 -0.1430018 -0.3387307
vn -0.2643444 0.03752512 -0.963698
vn -0.6069381 -0.1126001 -0.7867321
vn -0.8177506 -0.06475425 -0.5719185
vn -0.9639168 -0.1092222 -0.242765
vn -0.3843406 -0.1285029 -0.9142042
vn -0.6784055 -0.03753756 -0.7337281
vn -0.8628343 -0.04576184 -0.5034112
vn -0.9890099 -0.04085011 -0.1420943
vn -0.7193825 -0.07916466 -0.6900883
vn -0.8971094 -0.02006928 -0.4413524
vn -0.475817 0.00404931 -0.879535
vn -0.4808327 -0.01711983 -0.8766452
vn -0.1256327 -0.1468052 -0.9811547
vn -0.2494442 0.02125063 -0.968156
vn -0.3130182 0.04516263 -0.9486727
vn 0.001067075 0.03688635 -0.9993189
vn 0.05742707 0.168456 -0.9840349
vn 0.1127575 0.3165082 -0.9418643
vn 0.1987579 0.443614 -0.8739005
vn 0.1364247 0.6695992 -0.7300858
vn 0.239759 0.7882213 -0.5667652
vn 0.3726761 0.4348235 -0.8197812
vn 0.3328083 0.3161174 -0.8884303
vn 0.293463 0.2220888 -0.9298151
vn 0.2744709 0.04252256 -0.9606548
vn 0.1854548 -0.1327944 -0.9736387
vn 0.03550077 -0.05228374 -0.998001
vn 0.1634073 -0.2295305 -0.9594862
vn 0.4692636 -0.09330758 -0.8781147
vn -0.3435903 0.01472934 -0.9390042
vn -0.008665173 -0.1122361 -0.9936438
vn -0.2938417 -0.06415801 -0.9536985
vn -0.3776698 0.2738543 -0.8845165
vn -0.3089434 0.1721929 -0.9353628
vn -0.1164185 -0.003347825 -0.9931946
vn -0.3256621 0.2742928 -0.9048247
vn -0.1086773 0.7589526 -0.6420127
vn -0.11184 0.8782285 -0.4649802
vn -0.201612 0.8944057 -0.3992378
vn -0.2325846 0.8632982 -0.4479069
vn -0.1031961 0.7424156 -0.6619439
vn -0.4740797 0.3015424 -0.8272368
vn 0.1661985 0.5300029 -0.8315498
vn 0.1847332 -0.1699912 -0.9679756
vn 0.3520105 -0.09515104 -0.9311471
vn 0.497758 -0.07973476 -0.8636431
vn 0.522517 -0.01626837 -0.8524737
vn 0.1755983 -0.2357228 -0.9558243
vn -0.7529522 -0.08477005 -0.6525925
vn -0.6540604 0.5099267 -0.5587306
vn -0.7631237 0.5387205 -0.356963
vn 0.20496 -0.2463164 -0.9472696
vn 0.5132145 -0.1321293 -0.8480287
vn 0.5143189 -0.07377967 -0.8544195
vn 0.3497867 -0.1640928 -0.9223464
vn 0.4322728 -0.1874568 -0.8820432
vn 0.5328143 0.01946034 -0.8460085
vn 0.5794356 -0.1342895 -0.8038785
vn 0.8457332 0.1332372 0.5167041
vn 0.7685273 -0.09572341 0.632616
vn 0.7748661 -0.1623055 0.6109332
vn 0.8523057 0.2070142 0.4803333
vn 0.8187224 0.1677264 0.5491461
vn 0.8772788 0.04873067 0.477501
vn 0.7677528 0.2675954 0.5821927
vn 0.7786311 0.05352812 0.6251947
vn 0.9080687 0.1770306 0.3795675
vn 0.9176365 0.08370709 0.3885053
vn 0.9953127 0.08073505 0.05323974
vn 0.9967302 0.03127815 0.07450143
vn 0.8539061 -0.2540871 0.4541852
vn 0.9978916 -0.03125811 0.05687862
vn 0.8696035 -0.03251303 0.492679
vn 0.9267608 -0.07955838 0.3671305
vn 0.9935167 -0.05104258 -0.1015833
vn 0.8831674 -0.07359668 0.4632483
vn 0.9875847 -0.04788577 -0.1496116
vn 0.9810485 0.03088056 -0.1912857
vn 0.9922037 -0.1115865 0.05550041
vn 0.9734529 -0.01020109 -0.22866
vn 0.9874274 -0.1572308 -0.0163009
vn 0.8883569 -0.2902955 0.3557394
vn 0.9371911 0.3444748 0.05486437
vn 0.8136702 0.34988 0.4642465
vn 0.8389915 0.4860204 -0.2446986
vn 0.9643965 -0.04567768 -0.2604859
vn 0.7192771 0.5599091 -0.4112692
vn 0.9648814 -0.08127555 -0.2497964
vn 0.8925701 0.02168939 -0.4503868
vn 0.5649295 0.5933853 -0.573366
vn 0.7490566 0.03644946 -0.6615026
vn 0.4351741 0.6059831 -0.6658889
vn 0.8767169 -0.09724113 -0.471075
vn 0.9089881 -0.03978398 -0.4149193
vn 0.522517 -0.01626837 -0.8524737
vn 0.1661985 0.5300029 -0.8315498
vn 0.3520105 -0.09515104 -0.9311471
vn 0.7211744 -0.07411883 -0.6887772
vn 0.497758 -0.07973476 -0.8636431
vn 0.7580571 -0.04617523 -0.6505516
vn 0.9358442 0.05324937 -0.3483678
vn 0.5132145 -0.1321293 -0.8480287
vn 0.1755983 -0.2357228 -0.9558243
vn 0.1847332 -0.1699912 -0.9679756
vn 0.5143189 -0.07377967 -0.8544195
vn 0.8033121 0.02917252 -0.5948434
vn 0.4322728 -0.1874568 -0.8820432
vn 0.840609 -0.08638653 -0.5347092
vn 0.5794356 -0.1342895 -0.8038785
vn 0.9508659 -0.05846539 -0.3040328
vn 0.8922777 -0.003161041 -0.451476
vn 0.9627808 -0.02388085 -0.2692266
vn 0.8805255 -0.1597657 -0.4462619
vn 0.9474438 -0.2383294 -0.2134227
vn 0.967728 -0.2503734 -0.02856038
vn 0.890654 -0.4546803 -0.001184448
vn 0.8357559 -0.5219197 -0.1706224
vn 0.9743496 -0.2232375 -0.02842301
vn 0.9213459 0.09583656 0.3767455
vn 0.7642341 -0.4003608 -0.5056258
vn 0.852722 -0.4802848 -0.2054062
vn 0.8525367 0.3283181 0.4066797
vn 0.7767308 0.1332452 0.615577
vn 0.8280287 -0.4192576 -0.3722789
vn 0.9593589 0.2778258 0.04943045
vn 0.782831 0.2382861 0.5748004
vn 0.8024331 -0.006835129 0.5967029
vn 0.7573435 -0.02841759 0.6523982
vn 0.7578858 0.08613257 -0.6466764
vn 0.5328143 0.01946034 -0.8460085
vn 0.9654996 0.09232783 -0.2434875
vn 0.8785305 0.440185 0.18553
vn 0.7587563 0.4540069 0.4670832
vn 0.9038129 0.402396 -0.1456006
vn 0.850248 0.4988115 0.1681233
vn 0.7422717 0.4382249 0.5069436
vn 0.5576453 0.8167743 0.1480255
vn 0.8696008 0.4861629 -0.08625641
vn 0.5737062 0.819056 0.002936531
vn 0.8078139 0.575186 -0.1288327
vn 0.5322079 0.846612 0.001646951
vn 0.8872101 0.4200286 -0.1908775
vn 0.7309721 0.5919644 -0.3394968
vn 0.8287466 0.3932262 -0.3981864
vn 0.9759627 -0.1422501 -0.1651116
vn 0.8704051 0.2598307 -0.41819
vn 0.6918374 0.2663356 -0.6711381
vn 0.518792 0.2550188 -0.8159781
vn 0.5777894 0.5287114 -0.6217908
vn 0.4577521 0.8858321 -0.07592355
vn 0.3666441 0.8662988 -0.3392617
vn 0.5876452 0.3155023 -0.7450714
vn 0.3726761 0.4348235 -0.8197812
vn 0.239759 0.7882213 -0.5667652
vn 0.3328083 0.3161174 -0.8884303
vn 0.293463 0.2220888 -0.9298151
vn 0.4860028 0.06218442 -0.8717421
vn 0.3497867 -0.1640928 -0.9223464
vn 0.2744709 0.04252256 -0.9606548
vn 0.4692636 -0.09330758 -0.8781147
vn 0.1634073 -0.2295305 -0.9594862
vn 0.1854548 -0.1327944 -0.9736387
vn 0.7422717 0.4382249 0.5069436
vn 0.5576453 0.8167743 0.1480255
vn 0.7148823 0.6232479 0.3170261
vn 0.467922 0.8836964 0.01139233
vn 0.5737062 0.819056 0.002936531
vn 0.8498457 0.522643 0.06787203
vn 0.5092174 0.8603623 0.02177939
vn 0.8713483 0.4880853 -0.05024901
vn 0.5322079 0.846612 0.001646951
vn 0.529153 0.8449917 -0.07737006
vn 0.4577521 0.8858321 -0.07592355
vn 0.4214475 0.8301343 -0.3650464
vn 0.7309721 0.5919644 -0.3394968
vn 0.8078139 0.575186 -0.1288327
vn 0.3666441 0.8662988 -0.3392617
vn 0.2194206 0.7614356 -0.6099759
vn 0.239759 0.7882213 -0.5667652
vn 0.1005526 0.5362869 -0.8380248
vn 0.1364247 0.6695992 -0.7300858
vn 0.02464285 0.3751782 -0.9266251
vn 0.8523057 0.2070142 0.4803333
vn 0.9080687 0.1770306 0.3795675
vn 0.8696035 -0.03251303 0.492679
vn 0.9267608 -0.07955838 0.3671305
vn 0.8831674 -0.07359668 0.4632483
vn 0.9213459 0.09583656 0.3767455
vn 0.7767308 0.1332452 0.615577
vn 0.7748661 -0.1623055 0.6109332
vn 0.5721644 -0.4173623 0.7060005
vn 0.5619686 -0.4438724 0.6979746
vn 0.2563032 -0.5245029 0.8119146
vn 0.3168193 -0.3692803 0.8736461
vn -0.01545603 -0.4357257 0.8999468
vn 0.03235216 -0.4124545 0.9104036
vn -0.2315938 -0.3868516 0.8925862
vn -0.1946939 -0.3752504 0.9062458
vn -0.3862583 -0.2940464 0.8742661
vn -0.3745157 -0.2488455 0.8932042
vn -0.1017007 0.939756 0.3263672
vn -0.07708348 0.2418843 0.9672384
vn -0.3020898 0.5302063 0.7922267
vn -0.3117462 0.7510314 0.5820362
vn -0.5076553 0.6596785 0.5541755
vn -0.4488713 0.7237443 0.5241267
vn -0.145795 0.9756109 0.1640954
vn -0.6719095 0.6130739 0.4155455
vn -0.5190947 0.745581 0.417911
vn -0.2005419 0.9665551 0.1598572
vn -0.7910047 0.5960039 0.1381705
vn -0.6177541 0.7575045 0.2111083
vn -0.2795086 0.9547397 0.1017209
vn -0.9415554 0.3037658 -0.1456017
vt 0.7536209 0.8130494
vt 0.7476706 0.8103263
vt 0.7357015 0.8333851
vt 0.7421408 0.8298502
vt 0.7355719 0.8545932
vt 0.7652308 0.8430719
vt 0.7355719 0.8939789
vt 0.7633032 0.7923868
vt 0.7758126 0.874226
vt 0.7430728 0.9107581
vt 0.7909997 0.8119277
vt 0.7862969 0.9069216
vt 0.8088695 0.8543287
vt 0.8074862 0.7684644
vt 0.8234173 0.7978537
vt 0.8048604 0.73907
vt 0.7703401 0.7648535
vt 0.8066686 0.7345558
vt 0.8459732 0.7557461
vt 0.8482969 0.7295334
vt 0.8507606 0.7238979
vt 0.8835329 0.7386779
vt 0.887776 0.7221209
vt 0.8787729 0.7619792
vt 0.8645533 0.7884375
vt 0.8432698 0.8340783
vt 0.9178796 0.7418022
vt 0.9251789 0.7300572
vt 0.910152 0.7606443
vt 0.9378475 0.7730494
vt 0.9513527 0.7430342
vt 0.9034493 0.7912137
vt 0.9862198 0.7917281
vt 0.9774457 0.7619289
vt 0.881525 0.8232827
vt 0.9282046 0.8101875
vt 0.9445934 0.8408016
vt 0.9910321 0.8201739
vt 0.9906912 0.8360662
vt 0.9901196 0.8520117
vt 0.8950703 0.8622845
vt 0.8600287 0.8777351
vt 0.8230876 0.8917059
vt 0.948155 0.8788418
vt 0.9130664 0.8972301
vt 0.8789955 0.9137423
vt 0.8413873 0.9276952
vt 0.8056931 0.9353594
vt 0.954037 0.9123849
vt 0.9954607 0.8841565
vt 0.9253337 0.9324341
vt 0.8938162 0.9474104
vt 0.8598827 0.9522532
vt 0.7659615 0.9344978
vt 0.827494 0.9563636
vt 0.7632428 0.9417204
vt 0.7416558 0.9146776
vt 0.7867763 0.9596002
vt 0.7872643 0.957747
vt 0.8167045 0.9770237
vt 0.8170969 0.9731475
vt 0.8442774 0.9863567
vt 0.8443673 0.9820113
vt 0.8738831 0.9744084
vt 0.8741404 0.9842025
vt 0.8435919 0.988465
vt 0.907666 0.9927218
vt 0.9048565 0.9820943
vt 0.9423468 0.9809968
vt 0.9392014 0.9741306
vt 0.9684744 0.9570677
vt 0.9639689 0.9493024
vt 0.9892212 0.9274824
vt 0.983486 0.9212223
vt 1 0.8912951
vt 0.1690678 0.003274252
vt 0.1905318 0.006541112
vt 0.1874395 0.001683115
vt 0.1698573 0.00859783
vt 0.1320428 0.002231909
vt 0.1340551 0.00737827
vt 0.1110535 0
vt 0.1120264 0.006996227
vt 0.1137106 0.009934817
vt 0.09445002 0.005111296
vt 0.1345191 0.01121862
vt 0.1703376 0.01165349
vt 0.1175574 0.03958452
vt 0.09543947 0.03836303
vt 0.07841315 0.07569932
vt 0.1375655 0.04190956
vt 0.1017573 0.07683698
vt 0.09540792 0.1334354
vt 0.168517 0.03882246
vt 0.1915029 0.01096764
vt 0.2234014 0.002690132
vt 0.1303098 0.07762972
vt 0.1154917 0.1288139
vt 0.1407437 0.1228358
vt 0.1597112 0.07555292
vt 0.1710314 0.1248212
vt 0.1963583 0.03602119
vt 0.1906644 0.07264645
vt 0.2019949 0.1228998
vt 0.2250445 0.03431037
vt 0.2237567 0.07117817
vt 0.2324159 0.1169902
vt 0.2232631 0.00565839
vt 0.2494716 0.003068642
vt 0.2482855 5.115712E-05
vt 0.2500242 0.0341324
vt 0.275908 0.002211793
vt 0.2798818 0.03362485
vt 0.254324 0.07038327
vt 0.285078 0.06975009
vt 0.2653853 0.129921
vt 0.2361911 0.1284966
vt 0.2545754 0.191914
vt 0.2786544 0.1903111
vt 0.2254392 0.1930361
vt 0.2064689 0.1286608
vt 0.2372269 0.2306465
vt 0.2658272 0.2293174
vt 0.1921663 0.1935402
vt 0.1762635 0.1322994
vt 0.2519332 0.2703138
vt 0.2738368 0.2644454
vt 0.2035698 0.2313817
vt 0.2176625 0.2750501
vt 0.2533826 0.2749714
vt 0.2183933 0.2778423
vt 0.1594211 0.1933895
vt 0.1430901 0.1298877
vt 0.1761627 0.278018
vt 0.1677992 0.2314366
vt 0.1315442 0.1925649
vt 0.1188085 0.1371216
vt 0.1355752 0.2308044
vt 0.1070457 0.1912186
vt 0.1442165 0.280668
vt 0.1080406 0.2295843
vt 0.08385152 0.1900952
vt 0.07601638 0.1398984
vt 0.0840083 0.2283086
vt 0.07420688 0.1927216
vt 0.1109742 0.2796343
vt 0.08887094 0.2829901
vt 0.06447562 0.28349
vt 0.06901026 0.2343259
vt 0.0308808 0.3382094
vt 0.06144119 0.3347088
vt 0.1025355 0.3364446
vt 0.03218834 0.3755822
vt 0.005220626 0.3406854
vt 0.007017782 0.3717059
vt 0 0.4056379
vt 0.02309778 0.4063196
vt 0.06601907 0.3787696
vt 0.1496112 0.3373221
vt 0.1124624 0.3804556
vt 0.05708695 0.412347
vt 0.1856915 0.3263411
vt 0.05775489 0.4163024
vt 0.02505289 0.41335
vt 0.1106889 0.4187906
vt 0.1106109 0.4145201
vt 0.1703064 0.4200893
vt 0.1637902 0.377798
vt 0.1696502 0.4132527
vt 0.2022918 0.3710549
vt 0.2170265 0.4119214
vt 0.1705614 0.4298253
vt 0.2221904 0.4294619
vt 0.2144377 0.4029106
vt 0.2792769 0.417698
vt 0.2306213 0.3188231
vt 0.2790644 0.4140125
vt 0.3238452 0.4155267
vt 0.3251801 0.411219
vt 0.3063909 0.3775455
vt 0.2543265 0.3775071
vt 0.2658794 0.3173223
vt 0.2629361 0.2790524
vt 0.728044 0.3542317
vt 0.7386599 0.3652188
vt 0.7438482 0.3586899
vt 0.7161571 0.3629029
vt 0.7043361 0.3554921
vt 0.7027181 0.3597971
vt 0.7076868 0.3732281
vt 0.7027181 0.399792
vt 0.7178926 0.3966514
vt 0.7027181 0.4122615
vt 0.7027181 0.3671038
vt 0.6694036 0.3542317
vt 0.6731505 0.4090266
vt 0.2527207 0.8384826
vt 0.2684435 0.8360903
vt 0.2689177 0.8341241
vt 0.2535648 0.8305306
vt 0.1975879 0.832248
vt 0.1982216 0.8400612
vt 0.2339801 0.8023602
vt 0.1344257 0.8346234
vt 0.1373941 0.843716
vt 0.1066065 0.8408231
vt 0.1841168 0.8010278
vt 0.2141793 0.7581638
vt 0.09632239 0.8355237
vt 0.09807718 0.8424219
vt 0.1258699 0.8051978
vt 0.1678028 0.755034
vt 0.04785022 0.8386344
vt 0.04945372 0.8429686
vt 9.678831E-10 0.8392946
vt 0.001854862 0.843716
vt 0.05222213 0.8107067
vt 0.01164718 0.8063218
vt 0.08123337 0.8072208
vt 0.09317809 0.8069599
vt 0.04450031 0.7467153
vt 0.009792613 0.7461945
vt 0.009915212 0.7078983
vt 0.04605097 0.7050748
vt 0.07475042 0.7509183
vt 0.07699088 0.7061928
vt 0.08200759 0.7518677
vt 0.12195 0.7565815
vt 0.1149318 0.7024096
vt 0.1597433 0.6991172
vt 0.1838736 0.6966199
vt 0.2139873 0.6975718
vt 0.2503319 0.7574474
vt 0.2005472 0.6556969
vt 0.1568959 0.6932413
vt 0.1640676 0.6571764
vt 0.1109516 0.6954429
vt 0.1123771 0.7006315
vt 0.1376809 0.6582074
vt 0.07730278 0.6968504
vt 0.07901948 0.7031507
vt 0.1003345 0.6586093
vt 0.04396185 0.6950041
vt 0.04680588 0.7042535
vt 0.01910714 0.6997111
vt 0.01967377 0.7043954
vt 0.0675901 0.6591741
vt 0.03863625 0.6595996
vt 0.05907963 0.6215369
vt 0.03240836 0.6218908
vt 0.08988795 0.6210289
vt 0.1213107 0.6199899
vt 0.07523946 0.5664899
vt 0.04488742 0.5604005
vt 0.1443556 0.6191477
vt 0.102702 0.5668451
vt 0.05944772 0.5007843
vt 0.03044873 0.5000895
vt 0.08814908 0.5025924
vt 0.1262535 0.5661632
vt 0.1783431 0.619945
vt 0.2088691 0.6188416
vt 0.2255045 0.658238
vt 0.2010993 0.5655109
vt 0.1641528 0.5667427
vt 0.1946014 0.5017717
vt 0.1561081 0.5045992
vt 0.1851798 0.4676711
vt 0.1161746 0.5024872
vt 0.1491696 0.4682329
vt 0.1162141 0.4657539
vt 0.08813092 0.4662164
vt 0.06257617 0.4648108
vt 0.1160541 0.4323114
vt 0.08527803 0.4347403
vt 0.06000374 0.4332449
vt 0.1489356 0.438205
vt 0.1481371 0.4332826
vt 0.1840801 0.4319197
vt 0.1843619 0.4367509
vt 0.21235 0.4655476
vt 0.2132506 0.4309859
vt 0.2130449 0.4346552
vt 0.06007007 0.4308207
vt 0.08613483 0.431627
vt 0.03278332 0.4298252
vt 0.03210041 0.4328025
vt 0.3442101 0.6382424
vt 0.32518 0.5840649
vt 0.3401204 0.6444075
vt 0.3586736 0.5912172
vt 0.3429714 0.5330528
vt 0.3734783 0.5484593
vt 0.3730887 0.4875921
vt 0.3988464 0.5112584
vt 0.4104213 0.4539087
vt 0.426331 0.4760008
vt 0.4187412 0.451332
vt 0.4571411 0.4588675
vt 0.4653657 0.4688519
vt 0.511413 0.4312085
vt 0.5167186 0.4453482
vt 0.5687468 0.4234394
vt 0.4819787 0.4830767
vt 0.4479454 0.5221562
vt 0.418529 0.5716591
vt 0.3970654 0.6271394
vt 0.5628206 0.4572478
vt 0.5871238 0.4246262
vt 0.5951936 0.4320888
vt 0.5339553 0.4920166
vt 0.5021791 0.5407836
vt 0.4713708 0.6001513
vt 0.6053506 0.472119
vt 0.6206525 0.441201
vt 0.6664956 0.4722379
vt 0.5849768 0.5123411
vt 0.557959 0.5662248
vt 0.6592761 0.4869388
vt 0.7014937 0.5116283
vt 0.6982778 0.5147566
vt 0.631695 0.5412171
vt 0.670935 0.5768259
vt 0.6115378 0.5971438
vt 0.528266 0.6309488
vt 0.7281547 0.6053582
vt 0.7246568 0.5561886
vt 0.6591704 0.6312634
vt 0.5852274 0.6615905
vt 0.7350134 0.6107341
vt 0.7277544 0.5576705
vt 0.7355719 0.6603706
vt 0.7171757 0.6661465
vt 0.727712 0.7297602
vt 0.7195869 0.7261783
vt 0.6966454 0.769408
vt 0.6959982 0.762749
vt 0.641669 0.6917626
vt 0.6134696 0.7467979
vt 0.6480151 0.8055452
vt 0.555291 0.7247563
vt 0.5777029 0.7889133
vt 0.4991886 0.6980466
vt 0.5246961 0.7773157
vt 0.4451332 0.66435
vt 0.4734541 0.7568622
vt 0.4258971 0.723699
vt 0.3855999 0.6824326
vt 0.3757646 0.7372862
vt 0.3483332 0.6906107
vt 0.32518 0.6969764
vt 0.3526161 0.7512859
vt 0.4157827 0.7703436
vt 0.3933894 0.7950456
vt 0.4531536 0.7962806
vt 0.441236 0.815928
vt 0.4883478 0.8101093
vt 0.4800541 0.8281001
vt 0.5327089 0.8211086
vt 0.5360692 0.8378733
vt 0.589404 0.8300782
vt 0.6059319 0.8386391
vt 0.6538346 0.8150893
vt 0.8285174 0.4700047
vt 0.8307627 0.5330902
vt 0.8436014 0.5321946
vt 0.837153 0.4723389
vt 0.8475403 0.4738851
vt 0.8531301 0.5327686
vt 0.8459441 0.5853618
vt 0.8410699 0.4234394
vt 0.8331591 0.4255391
vt 0.8720396 0.4714431
vt 0.8701657 0.4278789
vt 0.914845 0.4260241
vt 0.8761839 0.5364805
vt 0.9147724 0.469574
vt 0.9171711 0.4259911
vt 0.9208205 0.4693795
vt 0.9142921 0.5297568
vt 0.9208205 0.5268833
vt 0.8492782 0.5791883
vt 0.8508303 0.6448576
vt 0.8831927 0.5741631
vt 0.9111823 0.5665032
vt 0.9160587 0.5649411
vt 0.8857413 0.6293353
vt 0.9159091 0.6183902
vt 0.8540967 0.6440386
vt 0.8525335 0.688008
vt 0.8913332 0.6724395
vt 0.9194797 0.6535095
vt 0.8593653 0.6898025
vt 0.8574288 0.7149284
vt 0.864477 0.7154288
vt 0.4804586 0.4234393
vt 0.5293043 0.420919
vt 0.5322458 0.4171341
vt 0.4798169 0.4193006
vt 0.4781426 0.4115059
vt 0.533405 0.4085706
vt 0.5785049 0.4132428
vt 0.4244651 0.4141543
vt 0.4272365 0.4200994
vt 0.5816467 0.4053546
vt 0.617931 0.4089867
vt 0.3728585 0.4160049
vt 0.374637 0.4218684
vt 0.6170615 0.4028683
vt 0.6678137 0.4050348
vt 0.6694036 0.396872
vt 0.6480897 0.3698844
vt 0.5905866 0.3741033
vt 0.5619472 0.3772756
vt 0.5178058 0.3791547
vt 0.470751 0.3819492
vt 0.5813055 0.3384979
vt 0.630213 0.3267267
vt 0.6281818 0.324591
vt 0.5551266 0.3441826
vt 0.4233617 0.3837894
vt 0.4655938 0.3604348
vt 0.506889 0.3348273
vt 0.377955 0.385291
vt 0.4216543 0.3622611
vt 0.3487758 0.4166254
vt 0.3518335 0.4224643
vt 0.3409508 0.4215135
vt 0.340317 0.4196038
vt 0.32518 0.4158015
vt 0.3330055 0.3861822
vt 0.3765528 0.3709532
vt 0.3798827 0.3401659
vt 0.3480064 0.3402182
vt 0.4195749 0.3388824
vt 0.4628567 0.3370639
vt 0.4074926 0.2775808
vt 0.3869799 0.2779344
vt 0.4419501 0.2814662
vt 0.4772654 0.281682
vt 0.3986911 0.2387695
vt 0.3730476 0.2359327
vt 0.431516 0.2412858
vt 0.5144902 0.2822579
vt 0.4629854 0.2398755
vt 0.4163009 0.1979121
vt 0.384921 0.1990544
vt 0.4966661 0.2381324
vt 0.4495953 0.1965359
vt 0.3989784 0.1450175
vt 0.3685746 0.1460359
vt 0.482732 0.1949289
vt 0.4317253 0.1439038
vt 0.3755169 0.08056193
vt 0.3445045 0.08303001
vt 0.4660507 0.1424782
vt 0.4109845 0.07951315
vt 0.3646281 0.04695826
vt 0.3359579 0.04878971
vt 0.3984165 0.04605153
vt 0.3603807 0.01631385
vt 0.4483626 0.07975284
vt 0.4349604 0.04338057
vt 0.500179 0.140616
vt 0.4850644 0.07889221
vt 0.4656626 0.03906126
vt 0.5145418 0.1930453
vt 0.528275 0.2361459
vt 0.5450292 0.2783968
vt 0.5692092 0.3263786
vt 0.5716693 0.3308638
vt 0.6005157 0.3183612
vt 0.5970197 0.3158027
vt 0.5753616 0.2762257
vt 0.5535304 0.2342905
vt 0.5422626 0.1910427
vt 0.530736 0.1385876
vt 0.5209887 0.07723805
vt 0.5510786 0.07390464
vt 0.5536575 0.1367871
vt 0.483694 0.03748498
vt 0.5326087 0.03977244
vt 0.4986261 0.03926774
vt 0.4780618 0.004904385
vt 0.4945298 0.006030084
vt 0.531376 0.008979731
vt 0.4614727 0.006230754
vt 0.4979996 0.002647846
vt 0.4818618 -1.260029E-08
vt 0.4659387 0.001025119
vt 0.4343992 0.006659086
vt 0.5261464 0.0008411015
vt 0.4278958 0.01254346
vt 0.5555453 -1.200453E-08
vt 0.5528945 0.01479642
vt 0.5597684 0.005083228
vt 0.5732099 0.01590459
vt 0.572781 0.004623723
vt 0.5536026 0.04299497
vt 0.3909042 0.01552175
vt 0.39113 0.01215793
vt 0.3605993 0.01264906
vt 0.5637535 0.07548004
vt 0.5722585 0.04200046
vt 0.5855635 0.07761626
vt 0.5642633 0.1403674
vt 0.5844193 0.13754
vt 0.5742958 0.197003
vt 0.5912495 0.1796414
vt 0.9096411 0.08892325
vt 0.8883554 0.1537981
vt 0.8963874 0.1457521
vt 0.8761136 0.09167677
vt 0.8990684 0.05078745
vt 0.8677484 0.05258533
vt 0.9016052 0.01759543
vt 0.8836586 0.01889462
vt 0.8636338 0.09554609
vt 0.8526474 0.0582118
vt 0.8382292 0.09733549
vt 0.8322805 0.05985449
vt 0.8689508 0.03071965
vt 0.8455006 0.1520709
vt 0.8779441 0.1540914
vt 0.8598891 0.197458
vt 0.8148536 0.1953866
vt 0.8624235 0.2169517
vt 0.8110851 0.1521162
vt 0.8042059 0.09682188
vt 0.8298785 0.03409602
vt 0.7943404 0.06049571
vt 0.8303851 0.01721058
vt 0.8719293 0.01799336
vt 0.8371161 0.01143474
vt 0.8756734 0.01339437
vt 0.7923464 0.009458187
vt 0.7904064 0.01598525
vt 0.7553684 0.007242955
vt 0.7879772 0.03156364
vt 0.756771 0.01389605
vt 0.7187966 0.004643548
vt 0.7208062 0.01054457
vt 0.6938193 0.002420095
vt 0.7537927 0.03255169
vt 0.7604299 0.05496544
vt 0.6911066 0.00859748
vt 0.6694036 -9.867565E-09
vt 0.6783788 0.006439356
vt 0.7183581 0.0233373
vt 0.6888559 0.01969211
vt 0.7264635 0.05150909
vt 0.7664204 0.09035314
vt 0.6972945 0.04658395
vt 0.6733961 0.0432378
vt 0.6712321 0.0147303
vt 0.7082967 0.08468391
vt 0.7331796 0.08823518
vt 0.7208081 0.1458243
vt 0.7470024 0.1503396
vt 0.7340872 0.1900064
vt 0.7782702 0.1526069
vt 0.7547992 0.1900179
vt 0.7834964 0.1943327
vt 0.7590844 0.214921
vt 0.7907192 0.2197454
vt 0.8262397 0.2208621
vt 0.8276845 0.2240901
vt 0.7918221 0.2232491
vt 0.834196 0.2386913
vt 0.8660141 0.2444646
vt 0.7578892 0.2182771
vt 0.7955958 0.2390466
vt 0.8682884 0.2491268
vt 0.8671223 0.2351858
vt 0.7501496 0.232195
vt 0.8377748 0.2463192
vt 0.8881018 0.2414805
vt 0.8780783 0.2036541
vt 0.8689992 0.207221
vt 0.7393333 0.2306221
vt 0.7222784 0.2044624
vt 0.7979231 0.2436688
vt 0.8669845 0.2971089
vt 0.897142 0.2976468
vt 0.8331632 0.297313
vt 0.8784564 0.3479737
vt 0.9096411 0.3542317
vt 0.8810847 0.3525913
vt 0.8398294 0.3445332
vt 0.8422071 0.348668
vt 0.7956313 0.3395326
vt 0.7979445 0.3437039
vt 0.7800295 0.2900119
vt 0.7514102 0.3282784
vt 0.7436392 0.285778
vt 0.7521972 0.2359336
vt 0.7379742 0.2385627
vt 0.7192135 0.2391547
vt 0.7017782 0.235427
vt 0.7092996 0.3244724
vt 0.7541547 0.3313178
vt 0.710335 0.3271734
vt 0.6998575 0.2829426
vt 0.6704541 0.3201842
vt 0.6711329 0.323162
vt 0.6713567 0.2785297
vt 0.6787602 0.2351751
vt 0.7034826 0.1930731
vt 0.7125697 0.1457925
vt 0.6809378 0.1910135
vt 0.6922371 0.1390405
vt 0.6832211 0.07493369
vt 0.6733057 0.1365937
vt 0.8285174 0.7221209
vt 0.8013722 0.6976281
vt 0.7945607 0.7096288
vt 0.76577 0.6751597
vt 0.7817235 0.6612889
vt 0.7637613 0.6789841
vt 0.7495563 0.6272562
vt 0.745705 0.6291933
vt 0.767253 0.6185704
vt 0.7355719 0.5913338
vt 0.7565297 0.5751511
vt 0.7365242 0.5329835
vt 0.7588554 0.5717633
vt 0.7695069 0.6155452
vt 0.7638473 0.5293332
vt 0.7566711 0.4855277
vt 0.7838338 0.4860945
vt 0.802686 0.4411282
vt 0.8120132 0.4481456
vt 0.8285174 0.4234393
vt 0.06418451 0.076457
vt 0.05294625 0.07917287
vt 0.05633537 0.1385017
vt 0.05410996 0.1812582
vt 0.05546517 0.2009618
vt 0.06732808 0.2294684
vt 0.07217477 0.2205438
vt 0.3089112 0.7482244
vt 0.2893109 0.7213038
vt 0.279595 0.7229149
vt 0.2777834 0.6946568
vt 0.2689177 0.6954461
vt 0.2829387 0.6619284
vt 0.2708381 0.6650975
vt 0.2935497 0.6330182
vt 0.2816498 0.6354802
vt 0.3089112 0.6054444
vt 0.2975154 0.6071889
vt 0.3013187 0.5764829
vt 0.2689177 0.6054444
vt 0.3039252 0.577696
vt 0.2891144 0.5731161
vt 0.3086418 0.5365775
vt 0.295186 0.5412778
vt 0.304169 0.5388455
vt 0.314086 0.5009318
vt 0.3011103 0.5039692
vt 0.3092579 0.5026
vt 0.3022314 0.4646575
vt 0.2962292 0.4698237
vt 0.3005446 0.4665521
vt 0.2689177 0.4298252
usemtl MV_RockDesert_Cliff
f 1/1/1 3/3/3 2/2/2
f 1/1/1 4/4/4 3/3/3
f 1/1/1 5/5/5 4/4/4
f 1/1/1 6/6/6 5/5/5
f 6/6/6 7/7/7 5/5/5
f 8/8/8 6/6/6 1/1/1
f 6/6/6 9/9/9 7/7/7
f 9/9/9 10/10/10 7/7/7
f 8/8/8 11/11/11 6/6/6
f 11/11/11 9/9/9 6/6/6
f 9/9/9 12/12/12 10/10/10
f 11/11/11 13/13/13 9/9/9
f 13/13/13 12/12/12 9/9/9
f 14/14/14 11/11/11 8/8/8
f 15/15/15 13/13/13 11/11/11
f 14/14/14 15/15/15 11/11/11
f 14/14/14 8/8/8 16/16/16
f 16/16/16 8/8/8 17/17/17
f 16/16/16 17/17/17 18/18/18
f 19/19/19 14/14/14 16/16/16
f 19/19/19 15/15/15 14/14/14
f 20/20/20 16/16/16 18/18/18
f 19/19/19 16/16/16 20/20/20
f 20/20/20 18/18/18 21/21/21
f 22/22/22 20/20/20 21/21/21
f 22/22/22 21/21/21 23/23/23
f 24/24/24 19/19/19 20/20/20
f 24/24/24 20/20/20 22/22/22
f 19/19/19 25/25/25 15/15/15
f 24/24/24 25/25/25 19/19/19
f 15/15/15 26/26/26 13/13/13
f 25/25/25 26/26/26 15/15/15
f 27/27/27 22/22/22 23/23/23
f 27/27/27 23/23/23 28/28/28
f 29/29/29 24/24/24 22/22/22
f 29/29/29 22/22/22 27/27/27
f 30/30/30 27/27/27 28/28/28
f 27/27/27 30/30/30 29/29/29
f 30/30/30 28/28/28 31/31/31
f 29/29/29 32/32/32 24/24/24
f 24/24/24 32/32/32 25/25/25
f 29/29/29 30/30/30 32/32/32
f 33/33/33 30/30/30 31/31/31
f 33/33/33 31/31/31 34/34/34
f 32/32/32 35/35/35 25/25/25
f 25/25/25 35/35/35 26/26/26
f 30/30/30 36/36/36 32/32/32
f 30/30/30 33/33/33 36/36/36
f 32/32/32 36/36/36 35/35/35
f 33/33/33 37/37/37 36/36/36
f 33/33/33 38/38/38 37/37/37
f 38/38/38 39/39/39 37/37/37
f 37/37/37 39/39/39 40/40/40
f 36/36/36 41/41/41 35/35/35
f 36/36/36 37/37/37 41/41/41
f 35/35/35 42/42/42 26/26/26
f 35/35/35 41/41/41 42/42/42
f 26/26/26 42/42/42 43/43/43
f 26/26/26 43/43/43 13/13/13
f 13/13/13 43/43/43 12/12/12
f 37/37/37 40/40/40 44/44/44
f 37/37/37 45/45/45 41/41/41
f 37/37/37 44/44/44 45/45/45
f 41/41/41 46/46/46 42/42/42
f 41/41/41 45/45/45 46/46/46
f 42/42/42 47/47/47 43/43/43
f 42/42/42 46/46/46 47/47/47
f 43/43/43 48/48/48 12/12/12
f 43/43/43 47/47/47 48/48/48
f 40/40/40 49/49/49 44/44/44
f 40/40/40 50/50/50 49/49/49
f 44/44/44 51/51/51 45/45/45
f 44/44/44 49/49/49 51/51/51
f 45/45/45 52/52/52 46/46/46
f 45/45/45 51/51/51 52/52/52
f 46/46/46 53/53/53 47/47/47
f 46/46/46 52/52/52 53/53/53
f 12/12/12 48/48/48 54/54/54
f 12/12/12 54/54/54 10/10/10
f 47/47/47 55/55/55 48/48/48
f 47/47/47 53/53/53 55/55/55
f 10/10/10 54/54/54 56/56/56
f 10/10/10 56/56/56 57/57/57
f 54/54/54 58/58/58 56/56/56
f 48/48/48 59/59/59 54/54/54
f 54/54/54 59/59/59 58/58/58
f 48/48/48 55/55/55 59/59/59
f 59/59/59 60/60/60 58/58/58
f 59/59/59 61/61/61 60/60/60
f 55/55/55 61/61/61 59/59/59
f 61/61/61 62/62/62 60/60/60
f 55/55/55 63/63/63 61/61/61
f 53/53/53 63/63/63 55/55/55
f 61/61/61 63/63/63 62/62/62
f 53/53/53 64/64/64 63/63/63
f 63/63/63 64/64/64 62/62/62
f 52/52/52 64/64/64 53/53/53
f 62/62/62 64/64/64 65/65/65
f 62/62/62 65/65/65 66/66/66
f 64/64/64 67/67/67 65/65/65
f 52/52/52 68/68/68 64/64/64
f 64/64/64 68/68/68 67/67/67
f 51/51/51 68/68/68 52/52/52
f 68/68/68 69/69/69 67/67/67
f 51/51/51 70/70/70 68/68/68
f 68/68/68 70/70/70 69/69/69
f 49/49/49 70/70/70 51/51/51
f 70/70/70 71/71/71 69/69/69
f 49/49/49 72/72/72 70/70/70
f 70/70/70 72/72/72 71/71/71
f 50/50/50 72/72/72 49/49/49
f 72/72/72 73/73/73 71/71/71
f 50/50/50 74/74/74 72/72/72
f 72/72/72 74/74/74 73/73/73
f 74/74/74 50/50/50 75/75/75
f 74/74/74 75/75/75 73/73/73
f 76/76/76 78/78/78 77/77/77
f 76/76/76 77/77/77 79/79/79
f 80/80/80 76/76/76 79/79/79
f 80/80/80 79/79/79 81/81/81
f 82/82/82 80/80/80 81/81/81
f 82/82/82 81/81/81 83/83/83
f 81/81/81 84/84/84 83/83/83
f 83/83/83 84/84/84 85/85/85
f 79/79/79 86/86/86 81/81/81
f 81/81/81 86/86/86 84/84/84
f 77/77/77 87/87/87 79/79/79
f 79/79/79 87/87/87 86/86/86
f 85/85/85 84/84/84 88/88/88
f 85/85/85 88/88/88 89/89/89
f 88/88/88 90/90/90 89/89/89
f 84/84/84 86/86/86 91/91/91
f 84/84/84 91/91/91 88/88/88
f 88/88/88 92/92/92 90/90/90
f 91/91/91 92/92/92 88/88/88
f 92/92/92 93/93/93 90/90/90
f 86/86/86 94/94/94 91/91/91
f 86/86/86 87/87/87 94/94/94
f 77/77/77 95/95/95 87/87/87
f 96/96/96 95/95/95 77/77/77
f 91/91/91 97/97/97 92/92/92
f 94/94/94 97/97/97 91/91/91
f 92/92/92 98/98/98 93/93/93
f 97/97/97 98/98/98 92/92/92
f 97/97/97 99/99/99 98/98/98
f 100/100/100 99/99/99 97/97/97
f 94/94/94 100/100/100 97/97/97
f 100/100/100 101/101/101 99/99/99
f 87/87/87 102/102/102 94/94/94
f 102/102/102 100/100/100 94/94/94
f 87/87/87 95/95/95 102/102/102
f 103/103/103 101/101/101 100/100/100
f 102/102/102 103/103/103 100/100/100
f 103/103/103 104/104/104 101/101/101
f 95/95/95 105/105/105 102/102/102
f 105/105/105 103/103/103 102/102/102
f 106/106/106 104/104/104 103/103/103
f 105/105/105 106/106/106 103/103/103
f 106/106/106 107/107/107 104/104/104
f 95/95/95 108/108/108 105/105/105
f 96/96/96 108/108/108 95/95/95
f 108/108/108 96/96/96 109/109/109
f 109/109/109 105/105/105 108/108/108
f 96/96/96 110/110/110 109/109/109
f 109/109/109 111/111/111 105/105/105
f 111/111/111 106/106/106 105/105/105
f 112/112/112 111/111/111 109/109/109
f 112/112/112 113/113/113 111/111/111
f 111/111/111 114/114/114 106/106/106
f 113/113/113 114/114/114 111/111/111
f 114/114/114 107/107/107 106/106/106
f 113/113/113 115/115/115 114/114/114
f 114/114/114 116/116/116 107/107/107
f 107/107/107 116/116/116 117/117/117
f 116/116/116 118/118/118 117/117/117
f 116/116/116 119/119/119 118/118/118
f 117/117/117 118/118/118 120/120/120
f 117/117/117 120/120/120 121/121/121
f 118/118/118 122/122/122 120/120/120
f 118/118/118 123/123/123 122/122/122
f 121/121/121 120/120/120 124/124/124
f 121/121/121 124/124/124 125/125/125
f 123/123/123 126/126/126 122/122/122
f 123/123/123 127/127/127 126/126/126
f 120/120/120 122/122/122 128/128/128
f 120/120/120 128/128/128 124/124/124
f 122/122/122 126/126/126 129/129/129
f 122/122/122 129/129/129 128/128/128
f 129/129/129 126/126/126 130/130/130
f 129/129/129 130/130/130 131/131/131
f 125/125/125 124/124/124 132/132/132
f 125/125/125 132/132/132 133/133/133
f 128/128/128 129/129/129 134/134/134
f 134/134/134 129/129/129 131/131/131
f 124/124/124 128/128/128 135/135/135
f 124/124/124 135/135/135 132/132/132
f 128/128/128 134/134/134 135/135/135
f 133/133/133 132/132/132 136/136/136
f 133/133/133 136/136/136 137/137/137
f 132/132/132 135/135/135 138/138/138
f 132/132/132 138/138/138 136/136/136
f 137/137/137 136/136/136 139/139/139
f 137/137/137 139/139/139 93/93/93
f 135/135/135 134/134/134 140/140/140
f 135/135/135 140/140/140 138/138/138
f 136/136/136 138/138/138 141/141/141
f 136/136/136 141/141/141 139/139/139
f 93/93/93 139/139/139 142/142/142
f 93/93/93 142/142/142 143/143/143
f 139/139/139 144/144/144 142/142/142
f 139/139/139 141/141/141 144/144/144
f 145/145/145 143/143/143 142/142/142
f 138/138/138 146/146/146 141/141/141
f 138/138/138 140/140/140 146/146/146
f 141/141/141 147/147/147 144/144/144
f 141/141/141 146/146/146 147/147/147
f 144/144/144 147/147/147 148/148/148
f 144/144/144 148/148/148 149/149/149
f 147/147/147 150/150/150 148/148/148
f 146/146/146 151/151/151 147/147/147
f 147/147/147 151/151/151 150/150/150
f 140/140/140 152/152/152 146/146/146
f 146/146/146 152/152/152 151/151/151
f 151/151/151 153/153/153 150/150/150
f 154/154/154 150/150/150 153/153/153
f 154/154/154 153/153/153 155/155/155
f 153/153/153 156/156/156 155/155/155
f 153/153/153 157/157/157 156/156/156
f 151/151/151 158/158/158 153/153/153
f 152/152/152 158/158/158 151/151/151
f 158/158/158 157/157/157 153/153/153
f 140/140/140 159/159/159 152/152/152
f 134/134/134 159/159/159 140/140/140
f 152/152/152 160/160/160 158/158/158
f 159/159/159 160/160/160 152/152/152
f 158/158/158 161/161/161 157/157/157
f 160/160/160 161/161/161 158/158/158
f 134/134/134 162/162/162 159/159/159
f 131/131/131 162/162/162 134/134/134
f 163/163/163 157/157/157 161/161/161
f 163/163/163 164/164/164 157/157/157
f 165/165/165 163/163/163 161/161/161
f 165/165/165 161/161/161 166/166/166
f 160/160/160 166/166/166 161/161/161
f 167/167/167 165/165/165 166/166/166
f 159/159/159 168/168/168 160/160/160
f 168/168/168 166/166/166 160/160/160
f 162/162/162 168/168/168 159/159/159
f 168/168/168 169/169/169 166/166/166
f 167/167/167 166/166/166 169/169/169
f 162/162/162 170/170/170 168/168/168
f 171/171/171 167/167/167 169/169/169
f 172/172/172 167/167/167 171/171/171
f 172/172/172 171/171/171 173/173/173
f 171/171/171 169/169/169 174/174/174
f 175/175/175 171/171/171 174/174/174
f 176/176/176 170/170/170 162/162/162
f 131/131/131 176/176/176 162/162/162
f 175/175/175 174/174/174 177/177/177
f 178/178/178 175/175/175 177/177/177
f 178/178/178 177/177/177 179/179/179
f 180/180/180 179/179/179 177/177/177
f 181/181/181 174/174/174 170/170/170
f 181/181/181 177/177/177 174/174/174
f 180/180/180 177/177/177 181/181/181
f 176/176/176 181/181/181 170/170/170
f 182/182/182 180/180/180 181/181/181
f 182/182/182 181/181/181 176/176/176
f 131/131/131 182/182/182 176/176/176
f 131/131/131 183/183/183 182/182/182
f 184/184/184 186/186/186 185/185/185
f 184/184/184 185/185/185 187/187/187
f 184/184/184 187/187/187 188/188/188
f 189/189/189 188/188/188 187/187/187
f 187/187/187 190/190/190 189/189/189
f 187/187/187 191/191/191 190/190/190
f 187/187/187 192/192/192 191/191/191
f 193/193/193 195/195/195 194/194/194
f 193/193/193 196/196/196 195/195/195
f 197/197/197 199/199/199 198/198/198
f 197/197/197 200/200/200 199/199/199
f 197/197/197 201/201/201 200/200/200
f 197/197/197 202/202/202 201/201/201
f 203/203/203 200/200/200 201/201/201
f 202/202/202 204/204/204 201/201/201
f 202/202/202 205/205/205 204/204/204
f 204/204/204 205/205/205 206/206/206
f 203/203/203 201/201/201 207/207/207
f 207/207/207 201/201/201 204/204/204
f 208/208/208 203/203/203 207/207/207
f 209/209/209 204/204/204 206/206/206
f 206/206/206 210/210/210 209/209/209
f 207/207/207 204/204/204 211/211/211
f 204/204/204 209/209/209 211/211/211
f 208/208/208 207/207/207 212/212/212
f 212/212/212 207/207/207 211/211/211
f 210/210/210 213/213/213 209/209/209
f 210/210/210 214/214/214 213/213/213
f 214/214/214 215/215/215 213/213/213
f 214/214/214 216/216/216 215/215/215
f 217/217/217 213/213/213 215/215/215
f 217/217/217 215/215/215 218/218/218
f 219/219/219 209/209/209 213/213/213
f 219/219/219 213/213/213 217/217/217
f 211/211/211 209/209/209 220/220/220
f 220/220/220 209/209/209 219/219/219
f 221/221/221 217/217/217 218/218/218
f 221/221/221 218/218/218 222/222/222
f 223/223/223 221/221/221 222/222/222
f 223/223/223 224/224/224 221/221/221
f 225/225/225 217/217/217 221/221/221
f 224/224/224 225/225/225 221/221/221
f 225/225/225 219/219/219 217/217/217
f 224/224/224 226/226/226 225/225/225
f 227/227/227 219/219/219 225/225/225
f 227/227/227 220/220/220 219/219/219
f 225/225/225 226/226/226 227/227/227
f 228/228/228 211/211/211 220/220/220
f 228/228/228 220/220/220 227/227/227
f 226/226/226 228/228/228 227/227/227
f 226/226/226 229/229/229 228/228/228
f 212/212/212 211/211/211 228/228/228
f 229/229/229 212/212/212 228/228/228
f 229/229/229 230/230/230 212/212/212
f 231/231/231 212/212/212 230/230/230
f 231/231/231 208/208/208 212/212/212
f 232/232/232 208/208/208 231/231/231
f 232/232/232 233/233/233 208/208/208
f 234/234/234 232/232/232 231/231/231
f 235/235/235 231/231/231 230/230/230
f 234/234/234 231/231/231 236/236/236
f 236/236/236 231/231/231 235/235/235
f 237/237/237 235/235/235 230/230/230
f 237/237/237 230/230/230 238/238/238
f 236/236/236 235/235/235 239/239/239
f 239/239/239 235/235/235 237/237/237
f 240/240/240 237/237/237 238/238/238
f 240/240/240 238/238/238 241/241/241
f 239/239/239 237/237/237 242/242/242
f 242/242/242 237/237/237 240/240/240
f 243/243/243 240/240/240 241/241/241
f 243/243/243 241/241/241 244/244/244
f 245/245/245 243/243/243 244/244/244
f 245/245/245 244/244/244 246/246/246
f 247/247/247 240/240/240 243/243/243
f 242/242/242 240/240/240 247/247/247
f 247/247/247 243/243/243 248/248/248
f 249/249/249 247/247/247 248/248/248
f 249/249/249 248/248/248 250/250/250
f 251/251/251 242/242/242 247/247/247
f 251/251/251 247/247/247 249/249/249
f 252/252/252 239/239/239 242/242/242
f 252/252/252 242/242/242 251/251/251
f 253/253/253 251/251/251 249/249/249
f 253/253/253 249/249/249 254/254/254
f 255/255/255 239/239/239 252/252/252
f 255/255/255 236/236/236 239/239/239
f 256/256/256 252/252/252 251/251/251
f 256/256/256 251/251/251 253/253/253
f 257/257/257 253/253/253 254/254/254
f 257/257/257 254/254/254 258/258/258
f 259/259/259 253/253/253 257/257/257
f 259/259/259 256/256/256 253/253/253
f 260/260/260 252/252/252 256/256/256
f 260/260/260 255/255/255 252/252/252
f 261/261/261 236/236/236 255/255/255
f 261/261/261 234/234/234 236/236/236
f 262/262/262 234/234/234 261/261/261
f 262/262/262 263/263/263 234/234/234
f 264/264/264 262/262/262 261/261/261
f 265/265/265 261/261/261 255/255/255
f 264/264/264 261/261/261 265/265/265
f 265/265/265 255/255/255 260/260/260
f 266/266/266 264/264/264 265/265/265
f 266/266/266 265/265/265 267/267/267
f 267/267/267 265/265/265 260/260/260
f 268/268/268 266/266/266 267/267/267
f 269/269/269 260/260/260 256/256/256
f 267/267/267 260/260/260 269/269/269
f 269/269/269 256/256/256 259/259/259
f 270/270/270 267/267/267 269/269/269
f 268/268/268 267/267/267 270/270/270
f 271/271/271 269/269/269 259/259/259
f 270/270/270 269/269/269 271/271/271
f 271/271/271 259/259/259 272/272/272
f 272/272/272 259/259/259 257/257/257
f 272/272/272 257/257/257 273/273/273
f 274/274/274 270/270/270 271/271/271
f 274/274/274 271/271/271 272/272/272
f 275/275/275 272/272/272 273/273/273
f 274/274/274 272/272/272 275/275/275
f 275/275/275 273/273/273 276/276/276
f 274/274/274 277/277/277 270/270/270
f 277/277/277 268/268/268 270/270/270
f 278/278/278 277/277/277 274/274/274
f 279/279/279 277/277/277 278/278/278
f 277/277/277 280/280/280 268/268/268
f 279/279/279 280/280/280 277/277/277
f 280/280/280 281/281/281 268/268/268
f 282/282/282 280/280/280 279/279/279
f 280/280/280 283/283/283 281/281/281
f 282/282/282 283/283/283 280/280/280
f 284/284/284 275/275/275 276/276/276
f 284/284/284 285/285/285 275/275/275
f 286/286/286 284/284/284 276/276/276
f 286/286/286 276/276/276 287/287/287
f 288/288/288 290/290/290 289/289/289
f 288/288/288 289/289/289 291/291/291
f 291/291/291 289/289/289 292/292/292
f 291/291/291 292/292/292 293/293/293
f 293/293/293 292/292/292 294/294/294
f 293/293/293 294/294/294 295/295/295
f 295/295/295 294/294/294 296/296/296
f 295/295/295 296/296/296 297/297/297
f 298/298/298 297/297/297 296/296/296
f 299/299/299 297/297/297 298/298/298
f 297/297/297 299/299/299 300/300/300
f 300/300/300 299/299/299 301/301/301
f 300/300/300 301/301/301 302/302/302
f 302/302/302 301/301/301 303/303/303
f 304/304/304 297/297/297 300/300/300
f 304/304/304 300/300/300 302/302/302
f 305/305/305 295/295/295 297/297/297
f 305/305/305 297/297/297 304/304/304
f 306/306/306 293/293/293 295/295/295
f 306/306/306 295/295/295 305/305/305
f 307/307/307 291/291/291 293/293/293
f 307/307/307 293/293/293 306/306/306
f 302/302/302 303/303/303 308/308/308
f 309/309/309 308/308/308 303/303/303
f 310/310/310 308/308/308 309/309/309
f 311/311/311 304/304/304 302/302/302
f 311/311/311 302/302/302 308/308/308
f 312/312/312 305/305/305 304/304/304
f 312/312/312 304/304/304 311/311/311
f 313/313/313 306/306/306 305/305/305
f 313/313/313 305/305/305 312/312/312
f 308/308/308 310/310/310 314/314/314
f 314/314/314 310/310/310 315/315/315
f 314/314/314 315/315/315 316/316/316
f 317/317/317 311/311/311 308/308/308
f 317/317/317 308/308/308 314/314/314
f 318/318/318 312/312/312 311/311/311
f 318/318/318 311/311/311 317/317/317
f 314/314/314 316/316/316 319/319/319
f 319/319/319 316/316/316 320/320/320
f 319/319/319 320/320/320 321/321/321
f 322/322/322 317/317/317 314/314/314
f 322/322/322 314/314/314 319/319/319
f 323/323/323 319/319/319 321/321/321
f 323/323/323 322/322/322 319/319/319
f 324/324/324 317/317/317 322/322/322
f 324/324/324 318/318/318 317/317/317
f 325/325/325 312/312/312 318/318/318
f 325/325/325 313/313/313 312/312/312
f 326/326/326 323/323/323 321/321/321
f 326/326/326 321/321/321 327/327/327
f 328/328/328 322/322/322 323/323/323
f 328/328/328 324/324/324 322/322/322
f 329/329/329 318/318/318 324/324/324
f 329/329/329 325/325/325 318/318/318
f 327/327/327 330/330/330 326/326/326
f 327/327/327 331/331/331 330/330/330
f 326/326/326 330/330/330 332/332/332
f 333/333/333 323/323/323 326/326/326
f 326/326/326 332/332/332 333/333/333
f 333/333/333 328/328/328 323/323/323
f 333/333/333 332/332/332 334/334/334
f 333/333/333 334/334/334 335/335/335
f 335/335/335 328/328/328 333/333/333
f 335/335/335 334/334/334 336/336/336
f 335/335/335 336/336/336 337/337/337
f 338/338/338 324/324/324 328/328/328
f 335/335/335 338/338/338 328/328/328
f 337/337/337 338/338/338 335/335/335
f 338/338/338 329/329/329 324/324/324
f 337/337/337 339/339/339 338/338/338
f 339/339/339 329/329/329 338/338/338
f 340/340/340 339/339/339 337/337/337
f 339/339/339 341/341/341 329/329/329
f 341/341/341 325/325/325 329/329/329
f 340/340/340 342/342/342 339/339/339
f 342/342/342 341/341/341 339/339/339
f 341/341/341 343/343/343 325/325/325
f 343/343/343 313/313/313 325/325/325
f 342/342/342 344/344/344 341/341/341
f 344/344/344 343/343/343 341/341/341
f 343/343/343 345/345/345 313/313/313
f 345/345/345 306/306/306 313/313/313
f 345/345/345 307/307/307 306/306/306
f 346/346/346 345/345/345 343/343/343
f 344/344/344 346/346/346 343/343/343
f 347/347/347 307/307/307 345/345/345
f 346/346/346 347/347/347 345/345/345
f 347/347/347 348/348/348 307/307/307
f 348/348/348 291/291/291 307/307/307
f 348/348/348 288/288/288 291/291/291
f 349/349/349 288/288/288 348/348/348
f 349/349/349 350/350/350 288/288/288
f 349/349/349 351/351/351 350/350/350
f 349/349/349 352/352/352 351/351/351
f 353/353/353 349/349/349 348/348/348
f 353/353/353 352/352/352 349/349/349
f 353/353/353 348/348/348 347/347/347
f 353/353/353 354/354/354 352/352/352
f 355/355/355 353/353/353 347/347/347
f 355/355/355 354/354/354 353/353/353
f 355/355/355 347/347/347 346/346/346
f 355/355/355 356/356/356 354/354/354
f 357/357/357 355/355/355 346/346/346
f 357/357/357 356/356/356 355/355/355
f 357/357/357 346/346/346 344/344/344
f 357/357/357 358/358/358 356/356/356
f 359/359/359 357/357/357 344/344/344
f 359/359/359 358/358/358 357/357/357
f 359/359/359 344/344/344 342/342/342
f 359/359/359 360/360/360 358/358/358
f 361/361/361 359/359/359 342/342/342
f 361/361/361 360/360/360 359/359/359
f 361/361/361 342/342/342 340/340/340
f 361/361/361 362/362/362 360/360/360
f 340/340/340 362/362/362 361/361/361
f 340/340/340 363/363/363 362/362/362
f 364/364/364 366/366/366 365/365/365
f 364/364/364 367/367/367 366/366/366
f 366/366/366 367/367/367 368/368/368
f 366/366/366 368/368/368 369/369/369
f 370/370/370 366/366/366 369/369/369
f 367/367/367 371/371/371 368/368/368
f 367/367/367 372/372/372 371/371/371
f 373/373/373 368/368/368 371/371/371
f 373/373/373 371/371/371 374/374/374
f 375/375/375 373/373/373 374/374/374
f 376/376/376 368/368/368 373/373/373
f 376/376/376 369/369/369 368/368/368
f 375/375/375 377/377/377 373/373/373
f 377/377/377 376/376/376 373/373/373
f 378/378/378 377/377/377 375/375/375
f 378/378/378 379/379/379 377/377/377
f 379/379/379 380/380/380 377/377/377
f 377/377/377 380/380/380 376/376/376
f 379/379/379 381/381/381 380/380/380
f 370/370/370 369/369/369 382/382/382
f 383/383/383 370/370/370 382/382/382
f 384/384/384 369/369/369 376/376/376
f 380/380/380 384/384/384 376/376/376
f 384/384/384 382/382/382 369/369/369
f 381/381/381 385/385/385 380/380/380
f 380/380/380 385/385/385 384/384/384
f 381/381/381 386/386/386 385/385/385
f 385/385/385 387/387/387 384/384/384
f 387/387/387 382/382/382 384/384/384
f 385/385/385 388/388/388 387/387/387
f 383/383/383 382/382/382 389/389/389
f 387/387/387 389/389/389 382/382/382
f 390/390/390 383/383/383 389/389/389
f 388/388/388 391/391/391 387/387/387
f 391/391/391 389/389/389 387/387/387
f 388/388/388 392/392/392 391/391/391
f 391/391/391 393/393/393 389/389/389
f 390/390/390 389/389/389 393/393/393
f 394/394/394 390/390/390 393/393/393
f 394/394/394 393/393/393 395/395/395
f 396/396/396 398/398/398 397/397/397
f 396/396/396 399/399/399 398/398/398
f 398/398/398 399/399/399 400/400/400
f 398/398/398 400/400/400 401/401/401
f 402/402/402 398/398/398 401/401/401
f 399/399/399 403/403/403 400/400/400
f 399/399/399 404/404/404 403/403/403
f 402/402/402 401/401/401 405/405/405
f 406/406/406 402/402/402 405/405/405
f 404/404/404 407/407/407 403/403/403
f 404/404/404 408/408/408 407/407/407
f 406/406/406 405/405/405 409/409/409
f 410/410/410 406/406/406 409/409/409
f 410/410/410 409/409/409 411/411/411
f 412/412/412 411/411/411 409/409/409
f 413/413/413 409/409/409 405/405/405
f 412/412/412 409/409/409 413/413/413
f 414/414/414 405/405/405 401/401/401
f 413/413/413 405/405/405 414/414/414
f 415/415/415 401/401/401 400/400/400
f 414/414/414 401/401/401 415/415/415
f 416/416/416 400/400/400 403/403/403
f 415/415/415 400/400/400 416/416/416
f 417/417/417 412/412/412 413/413/413
f 417/417/417 418/418/418 412/412/412
f 419/419/419 418/418/418 417/417/417
f 420/420/420 417/417/417 413/413/413
f 420/420/420 413/413/413 414/414/414
f 416/416/416 403/403/403 421/421/421
f 421/421/421 403/403/403 407/407/407
f 415/415/415 416/416/416 422/422/422
f 421/421/421 422/422/422 416/416/416
f 414/414/414 415/415/415 423/423/423
f 414/414/414 423/423/423 420/420/420
f 422/422/422 423/423/423 415/415/415
f 421/421/421 407/407/407 424/424/424
f 421/421/421 425/425/425 422/422/422
f 424/424/424 425/425/425 421/421/421
f 426/426/426 424/424/424 407/407/407
f 408/408/408 426/426/426 407/407/407
f 408/408/408 427/427/427 426/426/426
f 426/426/426 427/427/427 428/428/428
f 426/426/426 428/428/428 429/429/429
f 430/430/430 426/426/426 429/429/429
f 426/426/426 430/430/430 424/424/424
f 424/424/424 430/430/430 431/431/431
f 431/431/431 432/432/432 424/424/424
f 424/424/424 432/432/432 425/425/425
f 433/433/433 432/432/432 431/431/431
f 425/425/425 432/432/432 433/433/433
f 433/433/433 431/431/431 434/434/434
f 422/422/422 425/425/425 435/435/435
f 425/425/425 433/433/433 435/435/435
f 422/422/422 435/435/435 436/436/436
f 422/422/422 436/436/436 423/423/423
f 437/437/437 435/435/435 433/433/433
f 437/437/437 433/433/433 438/438/438
f 439/439/439 436/436/436 435/435/435
f 439/439/439 435/435/435 437/437/437
f 440/440/440 423/423/423 436/436/436
f 440/440/440 436/436/436 439/439/439
f 441/441/441 437/437/437 438/438/438
f 441/441/441 438/438/438 442/442/442
f 443/443/443 439/439/439 437/437/437
f 443/443/443 437/437/437 441/441/441
f 444/444/444 423/423/423 440/440/440
f 444/444/444 420/420/420 423/423/423
f 445/445/445 440/440/440 439/439/439
f 445/445/445 439/439/439 443/443/443
f 446/446/446 443/443/443 441/441/441
f 446/446/446 441/441/441 447/447/447
f 448/448/448 444/444/444 440/440/440
f 448/448/448 440/440/440 445/445/445
f 449/449/449 445/445/445 443/443/443
f 449/449/449 443/443/443 446/446/446
f 450/450/450 446/446/446 447/447/447
f 450/450/450 447/447/447 451/451/451
f 452/452/452 448/448/448 445/445/445
f 452/452/452 445/445/445 449/449/449
f 453/453/453 449/449/449 446/446/446
f 453/453/453 446/446/446 450/450/450
f 454/454/454 450/450/450 451/451/451
f 454/454/454 451/451/451 455/455/455
f 456/456/456 452/452/452 449/449/449
f 456/456/456 449/449/449 453/453/453
f 457/457/457 453/453/453 450/450/450
f 457/457/457 450/450/450 454/454/454
f 458/458/458 454/454/454 455/455/455
f 458/458/458 455/455/455 459/459/459
f 460/460/460 454/454/454 458/458/458
f 460/460/460 457/457/457 454/454/454
f 461/461/461 460/460/460 458/458/458
f 462/462/462 453/453/453 457/457/457
f 462/462/462 456/456/456 453/453/453
f 463/463/463 457/457/457 460/460/460
f 463/463/463 462/462/462 457/457/457
f 464/464/464 452/452/452 456/456/456
f 465/465/465 456/456/456 462/462/462
f 465/465/465 464/464/464 456/456/456
f 466/466/466 462/462/462 463/463/463
f 466/466/466 465/465/465 462/462/462
f 464/464/464 467/467/467 452/452/452
f 467/467/467 448/448/448 452/452/452
f 467/467/467 468/468/468 448/448/448
f 468/468/468 444/444/444 448/448/448
f 468/468/468 469/469/469 444/444/444
f 469/469/469 420/420/420 444/444/444
f 469/469/469 470/470/470 420/420/420
f 471/471/471 420/420/420 470/470/470
f 472/472/472 471/471/471 470/470/470
f 472/472/472 470/470/470 473/473/473
f 474/474/474 473/473/473 470/470/470
f 474/474/474 470/470/470 469/469/469
f 475/475/475 474/474/474 469/469/469
f 475/475/475 469/469/469 468/468/468
f 476/476/476 475/475/475 468/468/468
f 476/476/476 468/468/468 467/467/467
f 477/477/477 476/476/476 467/467/467
f 477/477/477 467/467/467 464/464/464
f 478/478/478 477/477/477 464/464/464
f 478/478/478 464/464/464 465/465/465
f 479/479/479 477/477/477 478/478/478
f 479/479/479 480/480/480 477/477/477
f 481/481/481 478/478/478 465/465/465
f 481/481/481 465/465/465 466/466/466
f 482/482/482 479/479/479 478/478/478
f 483/483/483 478/478/478 481/481/481
f 482/482/482 478/478/478 483/483/483
f 484/484/484 481/481/481 466/466/466
f 485/485/485 483/483/483 481/481/481
f 485/485/485 481/481/481 484/484/484
f 486/486/486 483/483/483 485/485/485
f 486/486/486 482/482/482 483/483/483
f 484/484/484 466/466/466 487/487/487
f 487/487/487 466/466/466 463/463/463
f 488/488/488 486/486/486 485/485/485
f 484/484/484 488/488/488 485/485/485
f 484/484/484 489/489/489 488/488/488
f 490/490/490 489/489/489 484/484/484
f 490/490/490 484/484/484 487/487/487
f 491/491/491 490/490/490 487/487/487
f 488/488/488 492/492/492 486/486/486
f 491/491/491 487/487/487 493/493/493
f 487/487/487 463/463/463 493/493/493
f 486/486/486 492/492/492 494/494/494
f 493/493/493 463/463/463 460/460/460
f 495/495/495 486/486/486 494/494/494
f 482/482/482 486/486/486 495/495/495
f 495/495/495 494/494/494 496/496/496
f 497/497/497 495/495/495 496/496/496
f 497/497/497 496/496/496 498/498/498
f 482/482/482 495/495/495 499/499/499
f 479/479/479 482/482/482 499/499/499
f 493/493/493 460/460/460 500/500/500
f 500/500/500 501/501/501 493/493/493
f 461/461/461 500/500/500 460/460/460
f 501/501/501 500/500/500 461/461/461
f 501/501/501 461/461/461 502/502/502
f 479/479/479 499/499/499 503/503/503
f 504/504/504 503/503/503 499/499/499
f 504/504/504 505/505/505 503/503/503
f 506/506/506 479/479/479 503/503/503
f 505/505/505 507/507/507 503/503/503
f 506/506/506 503/503/503 507/507/507
f 508/508/508 506/506/506 507/507/507
f 508/508/508 507/507/507 509/509/509
f 510/510/510 512/512/512 511/511/511
f 510/510/510 511/511/511 513/513/513
f 514/514/514 510/510/510 513/513/513
f 514/514/514 513/513/513 515/515/515
f 516/516/516 514/514/514 515/515/515
f 516/516/516 515/515/515 517/517/517
f 515/515/515 513/513/513 518/518/518
f 515/515/515 518/518/518 519/519/519
f 519/519/519 518/518/518 520/520/520
f 519/519/519 520/520/520 521/521/521
f 522/522/522 519/519/519 521/521/521
f 518/518/518 523/523/523 520/520/520
f 518/518/518 524/524/524 523/523/523
f 524/524/524 525/525/525 523/523/523
f 523/523/523 525/525/525 526/526/526
f 527/527/527 526/526/526 525/525/525
f 520/520/520 523/523/523 528/528/528
f 523/523/523 526/526/526 528/528/528
f 521/521/521 520/520/520 529/529/529
f 520/520/520 528/528/528 529/529/529
f 522/522/522 521/521/521 530/530/530
f 521/521/521 529/529/529 531/531/531
f 530/530/530 521/521/521 531/531/531
f 522/522/522 530/530/530 532/532/532
f 522/522/522 532/532/532 533/533/533
f 534/534/534 533/533/533 532/532/532
f 534/534/534 535/535/535 533/533/533
f 536/536/536 534/534/534 532/532/532
f 536/536/536 532/532/532 537/537/537
f 530/530/530 537/537/537 532/532/532
f 538/538/538 536/536/536 537/537/537
f 530/530/530 539/539/539 537/537/537
f 530/530/530 531/531/531 539/539/539
f 538/538/538 537/537/537 540/540/540
f 539/539/539 540/540/540 537/537/537
f 541/541/541 538/538/538 540/540/540
f 541/541/541 540/540/540 542/542/542
f 543/543/543 541/541/541 542/542/542
f 539/539/539 544/544/544 540/540/540
f 544/544/544 542/542/542 540/540/540
f 539/539/539 531/531/531 545/545/545
f 539/539/539 545/545/545 544/544/544
f 543/543/543 542/542/542 546/546/546
f 547/547/547 543/543/543 546/546/546
f 547/547/547 546/546/546 548/548/548
f 549/549/549 546/546/546 542/542/542
f 544/544/544 549/549/549 542/542/542
f 549/549/549 550/550/550 546/546/546
f 544/544/544 551/551/551 549/549/549
f 544/544/544 545/545/545 551/551/551
f 531/531/531 552/552/552 545/545/545
f 531/531/531 529/529/529 552/552/552
f 549/549/549 553/553/553 550/550/550
f 549/549/549 551/551/551 553/553/553
f 550/550/550 553/553/553 554/554/554
f 550/550/550 554/554/554 555/555/555
f 551/551/551 556/556/556 553/553/553
f 545/545/545 557/557/557 551/551/551
f 551/551/551 557/557/557 556/556/556
f 545/545/545 552/552/552 557/557/557
f 557/557/557 558/558/558 556/556/556
f 557/557/557 559/559/559 558/558/558
f 552/552/552 559/559/559 557/557/557
f 559/559/559 560/560/560 558/558/558
f 529/529/529 561/561/561 552/552/552
f 552/552/552 561/561/561 559/559/559
f 529/529/529 528/528/528 561/561/561
f 561/561/561 562/562/562 559/559/559
f 559/559/559 562/562/562 560/560/560
f 528/528/528 563/563/563 561/561/561
f 561/561/561 563/563/563 562/562/562
f 528/528/528 526/526/526 563/563/563
f 563/563/563 564/564/564 562/562/562
f 562/562/562 564/564/564 560/560/560
f 526/526/526 565/565/565 563/563/563
f 563/563/563 565/565/565 564/564/564
f 526/526/526 566/566/566 565/565/565
f 527/527/527 566/566/566 526/526/526
f 567/567/567 565/565/565 566/566/566
f 527/527/527 567/567/567 566/566/566
f 568/568/568 564/564/564 565/565/565
f 567/567/567 568/568/568 565/565/565
f 527/527/527 569/569/569 567/567/567
f 569/569/569 568/568/568 567/567/567
f 527/527/527 570/570/570 569/569/569
f 568/568/568 571/571/571 564/564/564
f 564/564/564 571/571/571 560/560/560
f 572/572/572 571/571/571 568/568/568
f 569/569/569 572/572/572 568/568/568
f 573/573/573 569/569/569 570/570/570
f 573/573/573 570/570/570 574/574/574
f 575/575/575 560/560/560 571/571/571
f 572/572/572 575/575/575 571/571/571
f 576/576/576 572/572/572 569/569/569
f 573/573/573 576/576/576 569/569/569
f 573/573/573 574/574/574 577/577/577
f 578/578/578 577/577/577 574/574/574
f 578/578/578 574/574/574 579/579/579
f 560/560/560 575/575/575 580/580/580
f 560/560/560 580/580/580 581/581/581
f 582/582/582 575/575/575 572/572/572
f 576/576/576 582/582/582 572/572/572
f 573/573/573 583/583/583 576/576/576
f 573/573/573 584/584/584 583/583/583
f 576/576/576 585/585/585 582/582/582
f 576/576/576 583/583/583 585/585/585
f 584/584/584 586/586/586 583/583/583
f 584/584/584 587/587/587 586/586/586
f 587/587/587 588/588/588 586/586/586
f 583/583/583 586/586/586 589/589/589
f 588/588/588 589/589/589 586/586/586
f 583/583/583 589/589/589 585/585/585
f 588/588/588 590/590/590 589/589/589
f 590/590/590 591/591/591 589/589/589
f 585/585/585 589/589/589 591/591/591
f 590/590/590 592/592/592 591/591/591
f 585/585/585 591/591/591 593/593/593
f 582/582/582 585/585/585 593/593/593
f 593/593/593 591/591/591 594/594/594
f 593/593/593 594/594/594 595/595/595
f 582/582/582 593/593/593 596/596/596
f 595/595/595 596/596/596 593/593/593
f 582/582/582 596/596/596 575/575/575
f 575/575/575 596/596/596 597/597/597
f 595/595/595 597/597/597 596/596/596
f 597/597/597 580/580/580 575/575/575
f 598/598/598 580/580/580 597/597/597
f 598/598/598 597/597/597 595/595/595
f 580/580/580 598/598/598 581/581/581
f 599/599/599 581/581/581 598/598/598
f 599/599/599 598/598/598 595/595/595
f 595/595/595 594/594/594 600/600/600
f 601/601/601 600/600/600 594/594/594
f 601/601/601 602/602/602 600/600/600
f 595/595/595 600/600/600 603/603/603
f 599/599/599 595/595/595 603/603/603
f 602/602/602 604/604/604 600/600/600
f 603/603/603 600/600/600 604/604/604
f 602/602/602 605/605/605 604/604/604
f 603/603/603 604/604/604 606/606/606
f 599/599/599 603/603/603 606/606/606
f 599/599/599 606/606/606 607/607/607
f 599/599/599 608/608/608 581/581/581
f 608/608/608 599/599/599 607/607/607
f 609/609/609 581/581/581 608/608/608
f 608/608/608 607/607/607 610/610/610
f 609/609/609 608/608/608 611/611/611
f 611/611/611 608/608/608 610/610/610
f 612/612/612 609/609/609 611/611/611
f 611/611/611 610/610/610 613/613/613
f 614/614/614 616/616/616 615/615/615
f 615/615/615 616/616/616 617/617/617
f 615/615/615 617/617/617 618/618/618
f 619/619/619 617/617/617 616/616/616
f 618/618/618 617/617/617 620/620/620
f 620/620/620 617/617/617 619/619/619
f 620/620/620 619/619/619 621/621/621
f 618/618/618 620/620/620 622/622/622
f 622/622/622 620/620/620 623/623/623
f 622/622/622 623/623/623 624/624/624
f 624/624/624 623/623/623 625/625/625
f 622/622/622 624/624/624 626/626/626
f 622/622/622 626/626/626 627/627/627
f 624/624/624 625/625/625 628/628/628
f 628/628/628 625/625/625 629/629/629
f 628/628/628 629/629/629 630/630/630
f 630/630/630 629/629/629 631/631/631
f 630/630/630 631/631/631 632/632/632
f 632/632/632 631/631/631 633/633/633
f 634/634/634 636/636/636 635/635/635
f 634/634/634 143/143/143 636/636/636
f 143/143/143 637/637/637 636/636/636
f 143/143/143 145/145/145 637/637/637
f 145/145/145 638/638/638 637/637/637
f 638/638/638 145/145/145 639/639/639
f 639/639/639 145/145/145 640/640/640
f 641/641/641 643/643/643 642/642/642
f 643/643/643 644/644/644 642/642/642
f 643/643/643 645/645/645 644/644/644
f 645/645/645 646/646/646 644/644/644
f 645/645/645 647/647/647 646/646/646
f 647/647/647 648/648/648 646/646/646
f 647/647/647 649/649/649 648/648/648
f 649/649/649 650/650/650 648/648/648
f 649/649/649 651/651/651 650/650/650
f 652/652/652 654/654/654 653/653/653
f 655/655/655 652/652/652 653/653/653
f 656/656/656 654/654/654 652/652/652
f 657/657/657 652/652/652 655/655/655
f 656/656/656 652/652/652 658/658/658
f 657/657/657 658/658/658 652/652/652
f 659/659/659 656/656/656 658/658/658
f 660/660/660 658/658/658 657/657/657
f 659/659/659 658/658/658 661/661/661
f 660/660/660 661/661/661 658/658/658
f 662/662/662 659/659/659 661/661/661
f 663/663/663 661/661/661 660/660/660
f 662/662/662 661/661/661 664/664/664
f 663/663/663 664/664/664 661/661/661
f 662/662/662 664/664/664 665/665/665
f 665/665/665 664/664/664 663/663/663
