mtllib P_RockSpire_Rock15.mtl
v 1.542283 8.353755 3.045223
v 0.5154054 7.863153 3.690289
v -0.152422 8.443184 2.922575
v -1.272066 5.718138 2.621316
v -0.152422 8.443184 2.922575
v 0.5154054 7.863153 3.690289
v 1.460552 7.761657 -2.273622
v 1.652286 7.415515 -3.361279
v 1.812412 7.452476 -3.418451
v -3.234971 6.375416 2.084801
v -2.735613 2.797485 2.388576
v -2.84873 2.995115 2.245524
v -3.21031 5.627089 2.063345
v -2.854157 3.122293 2.15496
v -2.556619 4.53642 -0.1827592
v -2.113141 4.751533 -2.605078
v -2.332059 6.518877 -2.750792
v -2.036319 4.694783 -2.706813
v -2.523971 7.870612 -2.378777
v -3.037777 8.055355 0.3528426
v -2.159954 9.798541 -1.690584
v -2.381138 9.883806 -0.2050189
v -3.03458 7.269145 2.113091
v -2.599883 9.451719 0.8602999
v -2.289684 8.018177 2.411094
v -1.361273 9.700072 2.559365
v -1.357742 10.55965 1.787119
v -4.07382 3.082655 1.462096
v -2.84873 2.995115 2.245524
v -2.735613 2.797485 2.388576
v -4.406856 1.806165 1.325257
v -3.248774 -0.6103057 2.249102
v -1.151237 2.901736 2.640489
v -4.073943 -0.6757541 1.691274
v -4.054568 -2.509819 1.232131
v -3.362779 -2.913089 1.584818
v -2.17674 -2.682297 2.428108
v -0.04117544 -2.183895 2.838482
v 1.636529 -2.811446 3.096569
v 0.05254881 -1.960572 2.948973
v 1.960846 -2.204852 3.171836
v 0.8434203 -0.6790415 4.075561
v 2.956293 -1.768234 2.587242
v 2.74418 -3.414676 1.819037
v 2.740895 -0.8173582 3.310104
v 2.179188 -0.7045496 4.070078
v 2.658352 0.2547108 3.936748
v 0.412697 2.830614 3.714341
v 2.628981 2.901427 3.861725
v 0.1202162 5.410103 3.660062
v 1.612143 7.6153 3.675605
v 0.5154054 7.863153 3.690289
v 1.542283 8.353755 3.045223
v -1.272066 5.718138 2.621316
v -2.289684 8.018177 2.411094
v -3.234971 6.375416 2.084801
v -3.03458 7.269145 2.113091
v -0.3157606 8.589743 2.791991
v -0.152422 8.443184 2.922575
v -1.361273 9.700072 2.559365
v -0.2373289 9.393032 2.767802
v -1.357742 10.55965 1.787119
v -1.033008 10.8269 1.501499
v 0.1225148 10.84352 1.258119
v 2.461673 10.10567 1.388752
v 2.300832 8.98131 2.372072
v 1.065058 8.545966 3.013963
v 1.542283 8.353755 3.045223
v 1.668086 8.180631 3.070518
v 2.300698 7.843191 2.605068
v 2.562579 4.656306 3.072193
v -1.151237 2.901736 2.640489
v 0.8434203 -0.6790415 4.075561
v 0.05254881 -1.960572 2.948973
v -0.04117544 -2.183895 2.838482
v 2.66908 3.016892 3.287356
v 2.562579 4.656306 3.072193
v 2.745119 1.533206 3.392536
v 3.196058 3.592851 0.7965987
v 3.496254 -0.6967382 0.8495855
v 2.300698 7.843191 2.605068
v 3.659437 3.577753 -1.907426
v 3.008418 7.929068 -1.456752
v 2.698751 10.12053 0.2136071
v 2.461673 10.10567 1.388752
v 2.300832 8.98131 2.372072
v 2.631936 10.24237 0.27264
v 2.072132 10.59208 -0.9715538
v 2.952388 7.828732 -1.840435
v 1.926443 10.21466 -1.908022
v 3.425168 6.046746 -2.616764
v 2.618435 7.477372 -3.124432
v 3.276933 6.047728 -2.901048
v 3.044086 2.062158 -3.328315
v 3.844663 -0.6912312 -1.228657
v 3.495351 -1.431546 -2.081775
v 3.72693 -1.463195 -1.478095
v 2.941831 -3.378979 0.7551976
v 2.956293 -1.768234 2.587242
v 2.74418 -3.414676 1.819037
v 2.740895 -0.8173582 3.310104
v 2.658352 0.2547108 3.936748
v 2.179188 -0.7045496 4.070078
v 1.960846 -2.204852 3.171836
v 2.628981 2.901427 3.861725
v 2.148164 5.255181 3.737029
v 2.103874 5.800037 3.289957
v 1.612143 7.6153 3.675605
v 1.668086 8.180631 3.070518
v 1.542283 8.353755 3.045223
v 2.103874 5.800037 3.289957
v 2.66908 3.016892 3.287356
v 2.745119 1.533206 3.392536
v 2.562579 4.656306 3.072193
v 1.855251 10.33098 -1.798817
v 0.2280656 10.22825 -2.19488
v 1.926443 10.21466 -1.908022
v 1.356255 7.987217 -2.12954
v -1.077475 7.873308 -2.547028
v -1.383994 10.48464 -1.693003
v -2.159954 9.798541 -1.690584
v -2.523971 7.870612 -2.378777
v -2.332059 6.518877 -2.750792
v -2.036319 4.694783 -2.706813
v 2.795884 7.901624 -1.90095
v 2.952388 7.828732 -1.840435
v 1.450465 7.858172 -2.184111
v 0.1261077 3.639745 -2.316771
v -2.069743 -2.126536 -2.733315
v 0.1303097 -0.7757662 -2.394604
v -3.525045 1.576446 -2.971658
v -3.616068 2.981135 -2.962095
v -3.306253 4.012016 -2.910803
v -3.698937 4.014319 -2.631426
v -2.143791 -2.257227 -2.696792
v -4.142742 -2.664191 -1.032051
v -4.095964 -2.836665 -0.9667841
v 0.2131609 -3.318529 -2.186337
v 0.5557397 -3.28175 -2.251811
v 0.6671966 -3.334024 -2.290172
v -1.383994 10.48464 -1.693003
v -2.381138 9.883806 -0.2050189
v -2.159954 9.798541 -1.690584
v -0.9871809 10.84823 -0.7031485
v 0.2280656 10.22825 -2.19488
v -1.146792 10.76419 0.04713012
v -2.599883 9.451719 0.8602999
v -1.357742 10.55965 1.787119
v -1.033008 10.8269 1.501499
v 0.1225148 10.84352 1.258119
v 0.945962 10.86454 -0.3844286
v 2.461673 10.10567 1.388752
v 2.631936 10.24237 0.27264
v 1.855251 10.33098 -1.798817
v 2.072132 10.59208 -0.9715538
v 1.926443 10.21466 -1.908022
v -3.306253 4.012016 -2.910803
v -2.036319 4.694783 -2.706813
v -2.113141 4.751533 -2.605078
v -3.698937 4.014319 -2.631426
v -4.123888 3.989026 -1.078537
v -2.556619 4.53642 -0.1827592
v -4.043474 4.004489 -0.4838665
v -4.07382 3.082655 1.462096
v -2.84873 2.995115 2.245524
v -4.07382 3.082655 1.462096
v -4.123888 3.989026 -1.078537
v -4.043474 4.004489 -0.4838665
v -4.406856 1.806165 1.325257
v -4.263545 -2.613632 -0.5213969
v -4.341755 -2.472467 0.3326845
v -4.073943 -0.6757541 1.691274
v -4.054568 -2.509819 1.232131
v -4.095964 -2.836665 -0.9667841
v -4.142742 -2.664191 -1.032051
v -3.525045 1.576446 -2.971658
v -3.616068 2.981135 -2.962095
v -3.698937 4.014319 -2.631426
v 0.1303097 -0.7757662 -2.394604
v 0.6671966 -3.334024 -2.290172
v 0.9248032 -2.942657 -3.063272
v 0.9735125 -0.6851688 -3.775302
v 1.304729 2.154331 -4.169631
v 0.1261077 3.639745 -2.316771
v 1.208807 3.640871 -3.989788
v 1.652286 7.415515 -3.361279
v 1.460552 7.761657 -2.273622
v 1.450465 7.858172 -2.184111
v 1.812412 7.452476 -3.418451
v 0.9735125 -0.6851688 -3.775302
v 0.9248032 -2.942657 -3.063272
v 1.098141 -3.054516 -2.985754
v 1.610748 -3.210868 -2.612024
v 1.272063 -3.273621 -2.747989
v 3.495351 -1.431546 -2.081775
v 3.044086 2.062158 -3.328315
v 1.304729 2.154331 -4.169631
v 1.318133 3.929358 -4.006402
v 1.208807 3.640871 -3.989788
v 1.652286 7.415515 -3.361279
v 1.812412 7.452476 -3.418451
v 3.276933 6.047728 -2.901048
v 2.069119 7.400081 -3.473423
v 2.618435 7.477372 -3.124432
v 1.610748 -3.210868 -2.612024
v 3.72693 -1.463195 -1.478095
v 3.495351 -1.431546 -2.081775
v 2.941831 -3.378979 0.7551976
v 1.272063 -3.273621 -2.747989
v 0.6671966 -3.334024 -2.290172
v 0.9248032 -2.942657 -3.063272
v 1.098141 -3.054516 -2.985754
v -0.1221667 -3.580628 0.210918
v 0.2131609 -3.318529 -2.186337
v -1.478498 -3.567191 -1.080166
v -2.679007 -3.574663 0.3007528
v -2.143791 -2.257227 -2.696792
v -2.873097 -3.556325 -0.4473498
v -4.095964 -2.836665 -0.9667841
v -4.341755 -2.472467 0.3326845
v -4.054568 -2.509819 1.232131
v -3.362779 -2.913089 1.584818
v -2.17674 -2.682297 2.428108
v 0.7367674 -3.576037 1.143069
v 1.636529 -2.811446 3.096569
v 2.61982 -3.48804 1.747508
v 2.74418 -3.414676 1.819037
v 2.618435 7.477372 -3.124432
v 1.812412 7.452476 -3.418451
v 2.069119 7.400081 -3.473423
v 1.450465 7.858172 -2.184111
v 2.795884 7.901624 -1.90095
v 2.952388 7.828732 -1.840435
vn 0.2702772 0.5547804 0.7868729
vn -0.2217805 0.399152 0.8896579
vn -0.3624987 0.4226911 0.8306184
vn -0.3912016 0.02268919 0.9200253
vn -0.3624987 0.4226911 0.8306184
vn -0.2217805 0.399152 0.8896579
vn -0.894782 0.2770124 -0.3501847
vn -0.6182184 0.5243167 -0.5855749
vn -0.1832067 0.6770769 -0.7127427
vn -0.8675267 0.0397706 0.495798
vn -0.3818724 0.04033355 0.9233345
vn -0.7511525 0.2225444 0.6214853
vn -0.9528881 -0.085962 0.2908863
vn -0.9630033 -0.1777963 -0.2025173
vn -0.9078413 0.419164 -0.01121345
vn -0.792529 0.3841433 -0.4736367
vn -0.5703314 -0.02105206 -0.8211449
vn -0.09315387 0.1449794 -0.9850398
vn -0.6972142 0.2097906 -0.6854782
vn -0.9857846 0.1504596 -0.07477055
vn -0.6740723 0.4834603 -0.5584736
vn -0.7966725 0.6039671 -0.02316742
vn -0.7892047 0.2224278 0.5724351
vn -0.8480726 0.4910968 0.1989897
vn -0.4909416 0.2199048 0.8429818
vn -0.3745912 0.426466 0.8232911
vn -0.4418003 0.7506606 0.4912446
vn -0.6975548 0.4747962 0.5366433
vn -0.7511525 0.2225444 0.6214853
vn -0.3818724 0.04033355 0.9233345
vn -0.9071846 0.06677797 0.4153997
vn -0.410221 -0.05562865 0.910288
vn -0.3804576 -0.01756192 0.9246317
vn -0.7726536 -0.08955272 0.6284798
vn -0.7555588 -0.4639952 0.4624278
vn -0.4753103 -0.6756994 0.5634806
vn -0.2628491 -0.526319 0.8086401
vn -0.2605718 -0.1352354 0.955936
vn 0.09594767 -0.547496 0.8312895
vn -0.7846672 0.003656193 0.6199065
vn 0.3173185 -0.4241351 0.8481854
vn -0.3146101 -0.2117498 0.9253013
vn 0.8445442 -0.2537187 0.4715633
vn 0.6652786 -0.6370729 0.3892845
vn 0.8541254 -0.2178151 0.4722568
vn 0.3393652 -0.262735 0.9032173
vn 0.6661689 -0.001309651 0.7457998
vn -0.323288 0.01136878 0.9462324
vn 0.7681853 0.1570636 0.620663
vn -0.353443 0.02100542 0.9352202
vn 0.5282462 0.306198 0.7919589
vn -0.2217805 0.399152 0.8896579
vn 0.2702772 0.5547804 0.7868729
vn -0.3912016 0.02268919 0.9200253
vn -0.4909416 0.2199048 0.8429818
vn -0.8675267 0.0397706 0.495798
vn -0.7892047 0.2224278 0.5724351
vn -0.2479334 0.1197128 0.9613521
vn -0.3624987 0.4226911 0.8306184
vn -0.3745912 0.426466 0.8232911
vn 0.005936271 0.4060866 0.9138153
vn -0.4418003 0.7506606 0.4912446
vn -0.2140753 0.9148825 0.3422891
vn 0.1318292 0.9188122 0.3720285
vn 0.6788804 0.5970754 0.4273435
vn 0.7032796 0.3571754 0.6146736
vn 0.009211488 0.2230332 0.9747673
vn 0.2702772 0.5547804 0.7868729
vn 0.6516241 0.3572803 0.6691315
vn 0.8527235 0.128236 0.5063775
vn 0.8650258 0.1268049 0.485439
vn -0.3804576 -0.01756192 0.9246317
vn -0.3146101 -0.2117498 0.9253013
vn -0.7846672 0.003656193 0.6199065
vn -0.2605718 -0.1352354 0.955936
vn 0.8969985 0.07882272 0.4349491
vn 0.8650258 0.1268049 0.485439
vn 0.9773551 0.04154171 0.2074884
vn 0.9763322 0.09618025 0.1937131
vn 0.9776725 -0.06005688 0.201369
vn 0.8527235 0.128236 0.5063775
vn 0.9938184 0.04571476 -0.1011692
vn 0.9775416 0.2083605 -0.03159599
vn 0.9520441 0.3052578 -0.02073129
vn 0.6788804 0.5970754 0.4273435
vn 0.7032796 0.3571754 0.6146736
vn 0.6776295 0.7317161 0.07355238
vn 0.5373298 0.8139223 -0.2209233
vn 0.8234677 0.4279223 -0.3725366
vn 0.5124515 0.4480132 -0.7325827
vn 0.9629518 0.1646258 -0.2135933
vn 0.519585 0.6177174 -0.5903023
vn 0.7330539 0.1272587 -0.6681597
vn 0.6995028 -0.05379052 -0.7126026
vn 0.9966075 -0.04939931 -0.06582593
vn 0.7654077 -0.3322297 -0.5511574
vn 0.9238621 -0.3364464 -0.1824352
vn 0.6684211 -0.7437314 -0.008758442
vn 0.8445442 -0.2537187 0.4715633
vn 0.6652786 -0.6370729 0.3892845
vn 0.8541254 -0.2178151 0.4722568
vn 0.6661689 -0.001309651 0.7457998
vn 0.3393652 -0.262735 0.9032173
vn 0.3173185 -0.4241351 0.8481854
vn 0.7681853 0.1570636 0.620663
vn 0.9080157 0.185383 0.3756868
vn 0.8933975 0.2046037 0.3999728
vn 0.5282462 0.306198 0.7919589
vn 0.6516241 0.3572803 0.6691315
vn 0.2702772 0.5547804 0.7868729
vn 0.8933975 0.2046037 0.3999728
vn 0.8969985 0.07882272 0.4349491
vn 0.9773551 0.04154171 0.2074884
vn 0.8650258 0.1268049 0.485439
vn 0.2824537 0.8334149 -0.4750153
vn 0.0269702 0.5733776 -0.8188472
vn 0.5124515 0.4480132 -0.7325827
vn 0.09367546 0.1262152 -0.9875701
vn 0.01777888 0.148019 -0.9888247
vn -0.3562768 0.7406428 -0.5696623
vn -0.6740723 0.4834603 -0.5584736
vn -0.6972142 0.2097906 -0.6854782
vn -0.5703314 -0.02105206 -0.8211449
vn -0.09315387 0.1449794 -0.9850398
vn 0.3738995 0.5390688 -0.7547212
vn 0.8234677 0.4279223 -0.3725366
vn -0.2599252 0.5225612 -0.8120152
vn -0.3663127 0.06141155 -0.928463
vn 0.007126044 -0.1420599 -0.9898324
vn -0.4021424 -0.05167347 -0.9141178
vn -0.5213066 -0.04101815 -0.8523831
vn -0.567091 0.002283336 -0.823652
vn -0.2327008 0.3983102 -0.8872426
vn -0.7369946 0.5172094 -0.4351247
vn -0.2711254 -0.4799993 -0.8343211
vn -0.8318845 -0.2474399 -0.496731
vn -0.6495827 -0.6793005 -0.3414574
vn -0.07022755 -0.7242364 -0.6859663
vn -0.261145 0.04511907 -0.9642446
vn -0.3052912 -0.8365129 -0.4550203
vn -0.3562768 0.7406428 -0.5696623
vn -0.7966725 0.6039671 -0.02316742
vn -0.6740723 0.4834603 -0.5584736
vn -0.2469084 0.9579361 -0.1462691
vn 0.0269702 0.5733776 -0.8188472
vn -0.5507694 0.8345899 0.01061864
vn -0.8480726 0.4910968 0.1989897
vn -0.4418003 0.7506606 0.4912446
vn -0.2140753 0.9148825 0.3422891
vn 0.1318292 0.9188122 0.3720285
vn 0.1360873 0.9877985 -0.07572564
vn 0.6788804 0.5970754 0.4273435
vn 0.6776295 0.7317161 0.07355238
vn 0.2824537 0.8334149 -0.4750153
vn 0.5373298 0.8139223 -0.2209233
vn 0.5124515 0.4480132 -0.7325827
vn -0.2327008 0.3983102 -0.8872426
vn -0.09315387 0.1449794 -0.9850398
vn -0.792529 0.3841433 -0.4736367
vn -0.7369946 0.5172094 -0.4351247
vn -0.8268483 0.5544537 -0.09435517
vn -0.9078413 0.419164 -0.01121345
vn -0.6874849 0.7041112 0.1777413
vn -0.6975548 0.4747962 0.5366433
vn -0.7511525 0.2225444 0.6214853
vn -0.6975548 0.4747962 0.5366433
vn -0.8268483 0.5544537 -0.09435517
vn -0.6874849 0.7041112 0.1777413
vn -0.9071846 0.06677797 0.4153997
vn -0.9430994 -0.3207323 -0.08771656
vn -0.8945725 -0.4333418 0.1093387
vn -0.7726536 -0.08955272 0.6284798
vn -0.7555588 -0.4639952 0.4624278
vn -0.6495827 -0.6793005 -0.3414574
vn -0.8318845 -0.2474399 -0.496731
vn -0.5213066 -0.04101815 -0.8523831
vn -0.567091 0.002283336 -0.823652
vn -0.7369946 0.5172094 -0.4351247
vn -0.4021424 -0.05167347 -0.9141178
vn -0.3052912 -0.8365129 -0.4550203
vn -0.4134163 -0.4506074 -0.7912269
vn -0.2706074 -0.1900906 -0.9437358
vn -0.2348019 -0.02305401 -0.9717699
vn -0.3663127 0.06141155 -0.928463
vn -0.6534413 0.1009314 -0.7502182
vn -0.6182184 0.5243167 -0.5855749
vn -0.894782 0.2770124 -0.3501847
vn -0.2599252 0.5225612 -0.8120152
vn -0.1832067 0.6770769 -0.7127427
vn -0.2706074 -0.1900906 -0.9437358
vn -0.4134163 -0.4506074 -0.7912269
vn 0.1309409 -0.5880582 -0.7981492
vn 0.4847947 -0.7010718 -0.5229459
vn 0.1201087 -0.8540094 -0.5062034
vn 0.7654077 -0.3322297 -0.5511574
vn 0.6995028 -0.05379052 -0.7126026
vn -0.2348019 -0.02305401 -0.9717699
vn -0.125889 0.153001 -0.9801748
vn -0.6534413 0.1009314 -0.7502182
vn -0.6182184 0.5243167 -0.5855749
vn -0.1832067 0.6770769 -0.7127427
vn 0.7330539 0.1272587 -0.6681597
vn 0.1902378 0.5199138 -0.8327661
vn 0.519585 0.6177174 -0.5903023
vn 0.4847947 -0.7010718 -0.5229459
vn 0.9238621 -0.3364464 -0.1824352
vn 0.7654077 -0.3322297 -0.5511574
vn 0.6684211 -0.7437314 -0.008758442
vn 0.1201087 -0.8540094 -0.5062034
vn -0.3052912 -0.8365129 -0.4550203
vn -0.4134163 -0.4506074 -0.7912269
vn 0.1309409 -0.5880582 -0.7981492
vn 0.03581695 -0.9985587 -0.03997178
vn -0.07022755 -0.7242364 -0.6859663
vn -0.1059377 -0.9493418 -0.2958502
vn -0.2490398 -0.9534627 0.1699651
vn -0.2711254 -0.4799993 -0.8343211
vn -0.3087878 -0.9355931 -0.1712183
vn -0.6495827 -0.6793005 -0.3414574
vn -0.8945725 -0.4333418 0.1093387
vn -0.7555588 -0.4639952 0.4624278
vn -0.4753103 -0.6756994 0.5634806
vn -0.2628491 -0.526319 0.8086401
vn -0.01567709 -0.9848278 0.1728249
vn 0.09594767 -0.547496 0.8312895
vn 0.1902901 -0.9556863 0.2246182
vn 0.6652786 -0.6370729 0.3892845
vn 0.519585 0.6177174 -0.5903023
vn -0.1832067 0.6770769 -0.7127427
vn 0.1902378 0.5199138 -0.8327661
vn -0.2599252 0.5225612 -0.8120152
vn 0.3738995 0.5390688 -0.7547212
vn 0.8234677 0.4279223 -0.3725366
vt 0.7958818 0.6293201
vt 0.7879327 0.6400862
vt 0.7958818 0.6479158
vt 0.5823853 0.8711137
vt 0.5823853 0.8410363
vt 0.572879 0.8462138
vt 0.4438515 0.1920096
vt 0.44535 0.1800719
vt 0.4438515 0.1789547
vt 0.5179043 0.8358297
vt 0.5129662 0.874879
vt 0.5146653 0.8727697
vt 0.5178434 0.8440289
vt 0.5157063 0.8714118
vt 0.541638 0.8568162
vt 0.5679642 0.8553769
vt 0.5703411 0.8360866
vt 0.5690139 0.8560366
vt 0.5668866 0.82115
vt 0.5373674 0.8180956
vt 0.5598949 0.7997876
vt 0.5438042 0.7982931
vt 0.5178248 0.8260366
vt 0.5321116 0.8026201
vt 0.5144503 0.817726
vt 0.5129662 0.7992612
vt 0.5217313 0.7901441
vt 0.5199772 0.4590686
vt 0.5069893 0.4606546
vt 0.5059009 0.4628862
vt 0.524074 0.4728788
vt 0.5128345 0.499945
vt 0.4886537 0.4624408
vt 0.5216191 0.5002337
vt 0.5219365 0.5202423
vt 0.5147041 0.5249963
vt 0.502042 0.5230917
vt 0.4786825 0.5185856
vt 0.460716 0.5261883
vt 0.4776191 0.5161975
vt 0.4569583 0.519696
vt 0.4689842 0.5026737
vt 0.445618 0.5152409
vt 0.4482434 0.5330529
vt 0.4479291 0.5048566
vt 0.4543861 0.5035058
vt 0.4486925 0.4931864
vt 0.4720921 0.4640321
vt 0.4478993 0.4641985
vt 0.4742132 0.435674
vt 0.4570084 0.4121624
vt 0.4689066 0.4089976
vt 0.4571719 0.4039555
vt 0.488818 0.4315666
vt 0.498908 0.4059421
vt 0.5097587 0.4234777
vt 0.5072167 0.4137846
vt 0.4772721 0.4005639
vt 0.4756079 0.4022555
vt 0.4881413 0.387944
vt 0.4760757 0.391802
vt 0.4873855 0.3784203
vt 0.4835901 0.3755864
vt 0.4708327 0.3758462
vt 0.445618 0.3849106
vt 0.448302 0.3972991
vt 0.4622969 0.4016494
vt 0.4571719 0.4039555
vt 0.4558789 0.4059061
vt 0.448878 0.4097897
vt 0.4475351 0.4448454
vt 0.7187895 0.3166504
vt 0.7039858 0.3566874
vt 0.7174113 0.3700609
vt 0.7187895 0.3724398
vt 0.5404498 0.281174
vt 0.5389488 0.2630894
vt 0.5408225 0.2974795
vt 0.5136988 0.2739823
vt 0.5120568 0.3210529
vt 0.5354788 0.227869
vt 0.4842755 0.2730854
vt 0.4913435 0.2253453
vt 0.5106913 0.2020628
vt 0.5234551 0.2026603
vt 0.5335466 0.2153251
vt 0.5113809 0.2007145
vt 0.4977831 0.1958435
vt 0.4870757 0.2262009
vt 0.4872921 0.1993718
vt 0.477778 0.245596
vt 0.4727374 0.229127
vt 0.4746217 0.2453297
vt 0.4677192 0.2884433
vt 0.4894496 0.3201711
vt 0.4796073 0.3275549
vt 0.4862665 0.3283824
vt 0.5093938 0.3498771
vt 0.5303012 0.3332542
vt 0.5209422 0.3506732
vt 0.538649 0.3230916
vt 0.5460535 0.3116535
vt 0.5468364 0.3218431
vt 0.5361326 0.3375951
vt 0.5466546 0.2827025
vt 0.5464069 0.2565936
vt 0.5417987 0.2503822
vt 0.5468364 0.2304076
vt 0.5405442 0.2239642
vt 0.5403202 0.2219693
vt 0.3475229 0.3821264
vt 0.3458988 0.4131873
vt 0.3475229 0.4293914
vt 0.3442991 0.3952362
vt 0.5722727 0.3755865
vt 0.5550799 0.3805296
vt 0.5733032 0.3767508
vt 0.5720919 0.4020062
vt 0.5462715 0.4088539
vt 0.537167 0.3809775
vt 0.5303447 0.3900257
vt 0.5307384 0.4119418
vt 0.5358006 0.4262508
vt 0.5429683 0.4451044
vt 0.5877028 0.3996063
vt 0.5895355 0.4000019
vt 0.5733914 0.4032188
vt 0.5684432 0.4513883
vt 0.5575673 0.5182402
vt 0.578177 0.4987149
vt 0.5338587 0.4819454
vt 0.5298014 0.4670968
vt 0.5308602 0.4553427
vt 0.526612 0.455988
vt 0.5570554 0.5197771
vt 0.536322 0.527379
vt 0.5371951 0.5290784
vt 0.5846186 0.5256186
vt 0.5882208 0.5245179
vt 0.5895355 0.5248594
vt 0.95665 0.8052169
vt 0.9414703 0.8178412
vt 0.9573944 0.8137861
vt 0.945474 0.8019398
vt 0.9602765 0.7871367
vt 0.9374671 0.8045307
vt 0.9300479 0.8214856
vt 0.9187185 0.8088064
vt 0.9215047 0.8049055
vt 0.922865 0.7920427
vt 0.9398404 0.7812336
vt 0.9187185 0.7668275
vt 0.9307063 0.7637033
vt 0.954155 0.7698357
vt 0.9449372 0.7683541
vt 0.9552484 0.7689573
vt 0.8448642 0.4699615
vt 0.8306955 0.4697407
vt 0.8313338 0.4709682
vt 0.8485985 0.4736896
vt 0.8503752 0.4912351
vt 0.8317571 0.4979716
vt 0.8484265 0.4975091
vt 0.8453372 0.5187476
vt 0.8306955 0.5250055
vt 0.866398 0.2087274
vt 0.8935626 0.1971292
vt 0.8870162 0.1973592
vt 0.8689196 0.2225739
vt 0.8919497 0.2696728
vt 0.8825716 0.2686926
vt 0.866398 0.2499669
vt 0.8726222 0.2697132
vt 0.896872 0.2718239
vt 0.8974948 0.2698927
vt 0.9155208 0.2222777
vt 0.9145297 0.2069232
vt 0.9102754 0.1958436
vt 0.1567362 0.5026857
vt 0.1549453 0.5306942
vt 0.163319 0.5265212
vt 0.1714 0.5019001
vt 0.1759366 0.4708636
vt 0.1565103 0.4543183
vt 0.1742306 0.4545571
vt 0.167651 0.4131357
vt 0.1559054 0.4091882
vt 0.1549453 0.4081184
vt 0.1681958 0.4127411
vt 0.06760969 0.6544773
vt 0.06760969 0.6786637
vt 0.06953497 0.6797926
vt 0.07519116 0.6811245
vt 0.07149439 0.6819821
vt 0.09542802 0.6608813
vt 0.08965851 0.6236711
vt 0.07057527 0.6236456
vt 0.07031656 0.6041318
vt 0.06918617 0.6072978
vt 0.07318538 0.5655109
vt 0.07492914 0.5651101
vt 0.09129887 0.5797671
vt 0.07775109 0.5656622
vt 0.08375497 0.5644497
vt 0.589933 0.8187612
vt 0.5944616 0.7924165
vt 0.5889087 0.7968103
vt 0.6207748 0.7938395
vt 0.5896378 0.8227637
vt 0.596419 0.827593
vt 0.5874142 0.8273288
vt 0.5876786 0.8252968
vt 0.6251906 0.8276861
vt 0.598991 0.8319885
vt 0.6161531 0.8460913
vt 0.6345218 0.8540903
vt 0.6011716 0.8579665
vt 0.62734 0.8585713
vt 0.6257759 0.8728366
vt 0.6400808 0.8710232
vt 0.648542 0.8650779
vt 0.6500407 0.8568133
vt 0.6549076 0.8415866
vt 0.6321076 0.8156502
vt 0.6493993 0.7996049
vt 0.6322213 0.793972
vt 0.6325448 0.7924165
vt 0.8474928 0.6360673
vt 0.8486548 0.6453938
vt 0.8498597 0.642794
vt 0.8346703 0.6461908
vt 0.8349471 0.6311309
vt 0.8346703 0.6293201
usemtl MV_RockSpire_Rocks
f 1/1/1 3/3/3 2/2/2
f 4/4/4 6/6/6 5/5/5
f 7/7/7 9/9/9 8/8/8
f 10/10/10 12/12/12 11/11/11
f 10/10/10 13/13/13 12/12/12
f 13/13/13 14/14/14 12/12/12
f 14/14/14 15/15/15 12/12/12
f 13/13/13 15/15/15 14/14/14
f 13/13/13 16/16/16 15/15/15
f 13/13/13 17/17/17 16/16/16
f 17/17/17 18/18/18 16/16/16
f 13/13/13 19/19/19 17/17/17
f 20/20/20 13/13/13 10/10/10
f 13/13/13 20/20/20 19/19/19
f 20/20/20 21/21/21 19/19/19
f 20/20/20 22/22/22 21/21/21
f 23/23/23 20/20/20 10/10/10
f 22/22/22 20/20/20 24/24/24
f 23/23/23 24/24/24 20/20/20
f 24/24/24 23/23/23 25/25/25
f 25/25/25 26/26/26 24/24/24
f 26/26/26 27/27/27 24/24/24
f 28/28/28 30/30/30 29/29/29
f 28/28/28 31/31/31 30/30/30
f 31/31/31 32/32/32 30/30/30
f 33/33/33 30/30/30 32/32/32
f 34/34/34 32/32/32 31/31/31
f 34/34/34 35/35/35 32/32/32
f 35/35/35 36/36/36 32/32/32
f 36/36/36 37/37/37 32/32/32
f 38/38/38 32/32/32 37/37/37
f 33/33/33 32/32/32 38/38/38
f 37/37/37 39/39/39 38/38/38
f 33/33/33 38/38/38 40/40/40
f 39/39/39 41/41/41 38/38/38
f 41/41/41 42/42/42 38/38/38
f 43/43/43 41/41/41 39/39/39
f 43/43/43 39/39/39 44/44/44
f 41/41/41 43/43/43 45/45/45
f 41/41/41 46/46/46 42/42/42
f 46/46/46 47/47/47 42/42/42
f 42/42/42 47/47/47 48/48/48
f 33/33/33 42/42/42 48/48/48
f 47/47/47 49/49/49 48/48/48
f 49/49/49 50/50/50 48/48/48
f 33/33/33 48/48/48 50/50/50
f 50/50/50 49/49/49 51/51/51
f 50/50/50 51/51/51 52/52/52
f 51/51/51 53/53/53 52/52/52
f 54/54/54 50/50/50 52/52/52
f 33/33/33 50/50/50 54/54/54
f 33/33/33 54/54/54 55/55/55
f 33/33/33 55/55/55 30/30/30
f 55/55/55 56/56/56 30/30/30
f 57/57/57 56/56/56 55/55/55
f 54/54/54 58/58/58 55/55/55
f 54/54/54 59/59/59 58/58/58
f 58/58/58 60/60/60 55/55/55
f 58/58/58 61/61/61 60/60/60
f 60/60/60 61/61/61 62/62/62
f 63/63/63 62/62/62 61/61/61
f 63/63/63 61/61/61 64/64/64
f 61/61/61 65/65/65 64/64/64
f 66/66/66 65/65/65 61/61/61
f 67/67/67 58/58/58 59/59/59
f 58/58/58 67/67/67 61/61/61
f 67/67/67 59/59/59 68/68/68
f 61/61/61 67/67/67 68/68/68
f 61/61/61 68/68/68 66/66/66
f 68/68/68 69/69/69 66/66/66
f 70/70/70 66/66/66 69/69/69
f 71/71/71 70/70/70 69/69/69
f 72/72/72 74/74/74 73/73/73
f 74/74/74 75/75/75 73/73/73
f 76/76/76 78/78/78 77/77/77
f 79/79/79 77/77/77 78/78/78
f 80/80/80 79/79/79 78/78/78
f 79/79/79 81/81/81 77/77/77
f 80/80/80 82/82/82 79/79/79
f 83/83/83 81/81/81 79/79/79
f 83/83/83 79/79/79 82/82/82
f 81/81/81 83/83/83 84/84/84
f 81/81/81 84/84/84 85/85/85
f 81/81/81 85/85/85 86/86/86
f 85/85/85 84/84/84 87/87/87
f 84/84/84 88/88/88 87/87/87
f 88/88/88 84/84/84 89/89/89
f 84/84/84 83/83/83 89/89/89
f 90/90/90 88/88/88 89/89/89
f 91/91/91 89/89/89 83/83/83
f 91/91/91 83/83/83 82/82/82
f 89/89/89 91/91/91 92/92/92
f 92/92/92 91/91/91 93/93/93
f 94/94/94 93/93/93 91/91/91
f 91/91/91 82/82/82 94/94/94
f 82/82/82 95/95/95 94/94/94
f 94/94/94 95/95/95 96/96/96
f 95/95/95 97/97/97 96/96/96
f 95/95/95 82/82/82 80/80/80
f 97/97/97 95/95/95 80/80/80
f 97/97/97 80/80/80 98/98/98
f 98/98/98 80/80/80 99/99/99
f 98/98/98 99/99/99 100/100/100
f 99/99/99 80/80/80 101/101/101
f 101/101/101 80/80/80 78/78/78
f 78/78/78 102/102/102 101/101/101
f 101/101/101 102/102/102 103/103/103
f 103/103/103 104/104/104 101/101/101
f 78/78/78 105/105/105 102/102/102
f 78/78/78 106/106/106 105/105/105
f 78/78/78 107/107/107 106/106/106
f 108/108/108 105/105/105 106/106/106
f 107/107/107 108/108/108 106/106/106
f 107/107/107 109/109/109 108/108/108
f 109/109/109 107/107/107 77/77/77
f 108/108/108 109/109/109 110/110/110
f 111/111/111 113/113/113 112/112/112
f 111/111/111 112/112/112 114/114/114
f 115/115/115 117/117/117 116/116/116
f 118/118/118 116/116/116 117/117/117
f 118/118/118 119/119/119 116/116/116
f 120/120/120 116/116/116 119/119/119
f 121/121/121 120/120/120 119/119/119
f 122/122/122 121/121/121 119/119/119
f 122/122/122 119/119/119 123/123/123
f 123/123/123 119/119/119 124/124/124
f 118/118/118 117/117/117 125/125/125
f 125/125/125 117/117/117 126/126/126
f 125/125/125 127/127/127 118/118/118
f 127/127/127 128/128/128 118/118/118
f 119/119/119 118/118/118 128/128/128
f 124/124/124 119/119/119 128/128/128
f 129/129/129 124/124/124 128/128/128
f 129/129/129 128/128/128 130/130/130
f 124/124/124 129/129/129 131/131/131
f 131/131/131 132/132/132 124/124/124
f 133/133/133 124/124/124 132/132/132
f 133/133/133 132/132/132 134/134/134
f 131/131/131 129/129/129 135/135/135
f 136/136/136 131/131/131 135/135/135
f 136/136/136 135/135/135 137/137/137
f 129/129/129 138/138/138 135/135/135
f 138/138/138 129/129/129 130/130/130
f 130/130/130 139/139/139 138/138/138
f 130/130/130 140/140/140 139/139/139
f 138/138/138 139/139/139 140/140/140
f 141/141/141 143/143/143 142/142/142
f 144/144/144 141/141/141 142/142/142
f 145/145/145 141/141/141 144/144/144
f 142/142/142 146/146/146 144/144/144
f 146/146/146 142/142/142 147/147/147
f 147/147/147 148/148/148 146/146/146
f 148/148/148 149/149/149 146/146/146
f 149/149/149 144/144/144 146/146/146
f 150/150/150 144/144/144 149/149/149
f 151/151/151 145/145/145 144/144/144
f 150/150/150 151/151/151 144/144/144
f 151/151/151 150/150/150 152/152/152
f 152/152/152 153/153/153 151/151/151
f 154/154/154 145/145/145 151/151/151
f 153/153/153 155/155/155 151/151/151
f 151/151/151 155/155/155 154/154/154
f 154/154/154 155/155/155 156/156/156
f 157/157/157 159/159/159 158/158/158
f 159/159/159 157/157/157 160/160/160
f 160/160/160 161/161/161 159/159/159
f 162/162/162 159/159/159 161/161/161
f 163/163/163 162/162/162 161/161/161
f 162/162/162 163/163/163 164/164/164
f 162/162/162 164/164/164 165/165/165
f 166/166/166 168/168/168 167/167/167
f 167/167/167 169/169/169 166/166/166
f 169/169/169 167/167/167 170/170/170
f 169/169/169 170/170/170 171/171/171
f 169/169/169 171/171/171 172/172/172
f 173/173/173 172/172/172 171/171/171
f 170/170/170 174/174/174 171/171/171
f 175/175/175 174/174/174 170/170/170
f 170/170/170 176/176/176 175/175/175
f 170/170/170 167/167/167 176/176/176
f 177/177/177 176/176/176 167/167/167
f 167/167/167 178/178/178 177/177/177
f 179/179/179 181/181/181 180/180/180
f 179/179/179 182/182/182 181/181/181
f 182/182/182 179/179/179 183/183/183
f 179/179/179 184/184/184 183/183/183
f 184/184/184 185/185/185 183/183/183
f 185/185/185 184/184/184 186/186/186
f 184/184/184 187/187/187 186/186/186
f 187/187/187 184/184/184 188/188/188
f 187/187/187 188/188/188 189/189/189
f 190/190/190 192/192/192 191/191/191
f 192/192/192 190/190/190 193/193/193
f 194/194/194 192/192/192 193/193/193
f 195/195/195 193/193/193 190/190/190
f 195/195/195 190/190/190 196/196/196
f 190/190/190 197/197/197 196/196/196
f 196/196/196 197/197/197 198/198/198
f 198/198/198 197/197/197 199/199/199
f 198/198/198 199/199/199 200/200/200
f 198/198/198 200/200/200 201/201/201
f 202/202/202 196/196/196 198/198/198
f 198/198/198 201/201/201 203/203/203
f 198/198/198 203/203/203 202/202/202
f 203/203/203 204/204/204 202/202/202
f 205/205/205 207/207/207 206/206/206
f 205/205/205 206/206/206 208/208/208
f 208/208/208 209/209/209 205/205/205
f 209/209/209 208/208/208 210/210/210
f 209/209/209 210/210/210 211/211/211
f 211/211/211 212/212/212 209/209/209
f 210/210/210 208/208/208 213/213/213
f 213/213/213 214/214/214 210/210/210
f 213/213/213 215/215/215 214/214/214
f 213/213/213 216/216/216 215/215/215
f 217/217/217 214/214/214 215/215/215
f 215/215/215 218/218/218 217/217/217
f 215/215/215 216/216/216 218/218/218
f 219/219/219 217/217/217 218/218/218
f 220/220/220 219/219/219 218/218/218
f 216/216/216 220/220/220 218/218/218
f 221/221/221 220/220/220 216/216/216
f 216/216/216 222/222/222 221/221/221
f 223/223/223 222/222/222 216/216/216
f 213/213/213 224/224/224 216/216/216
f 224/224/224 223/223/223 216/216/216
f 224/224/224 213/213/213 208/208/208
f 225/225/225 223/223/223 224/224/224
f 208/208/208 226/226/226 224/224/224
f 226/226/226 225/225/225 224/224/224
f 208/208/208 227/227/227 226/226/226
f 225/225/225 226/226/226 227/227/227
f 228/228/228 230/230/230 229/229/229
f 229/229/229 231/231/231 228/228/228
f 231/231/231 232/232/232 228/228/228
f 228/228/228 232/232/232 233/233/233
