mtllib P_RockDesert_CliffA02.mtl
v 12.06932 46.35833 11.99385
v 8.615002 45.66648 14.92221
v 8.9785 46.22217 14.17123
v 11.88953 45.60101 12.87184
v 13.77253 46.42146 9.762882
v 14.41404 45.65805 10.25559
v 16.06323 46.68148 7.556881
v 11.61555 45.25016 12.7363
v 17.70296 45.54242 6.903023
v 19.31406 46.21299 5.26563
v 19.49879 45.66427 4.735917
v 20.90399 46.32914 -0.6197462
v 18.78323 44.12976 4.660368
v 13.54669 41.50433 4.36697
v 20.74856 45.61027 -1.402126
v 19.91056 46.29113 -6.406693
v 19.94799 43.63083 -1.251951
v 19.88976 45.51581 -6.575229
v 17.84623 46.28798 -10.88668
v 19.18601 43.67553 -6.53804
v 17.98796 45.52301 -10.65477
v 17.30606 43.33814 -10.62931
v 11.40806 41.76694 8.719489
v 8.9263 41.80645 11.40596
v 12.39874 37.21532 4.040071
v 11.01993 37.47422 8.284943
v 13.75309 36.74257 2.78756
v 15.31108 40.8544 2.176593
v 14.23627 36.41459 0.209774
v 15.59447 40.62944 -0.4901619
v 14.52583 36.28491 -3.219433
v 15.23153 40.32956 -4.587717
v 13.47406 36.68158 -7.070608
v 13.94081 40.73696 -8.261301
v 11.54223 29.49378 -4.569918
v 11.76815 29.76036 -1.693398
v 11.63839 29.93636 1.148026
v 11.46128 29.47992 4.142392
v 9.013468 29.75848 5.342237
v 10.54831 23.32287 2.513426
v 10.77693 23.82809 -0.7498693
v 10.42662 20.30349 2.581791
v 10.70606 23.71498 -3.166065
v 10.69746 19.82686 -0.1116705
v 10.4779 19.45838 0.05079651
v 10.67088 19.72503 -2.74524
v 10.4507 19.36421 -2.607148
v 9.778376 20.05055 -4.898735
v 9.781113 23.79544 -5.347397
v 10.20504 29.49323 -6.935532
v 7.948574 23.33709 3.637246
v 7.134557 23.89075 4.518909
v 7.734085 20.1227 3.534378
v 7.441595 30.67535 6.537618
v 8.65081 37.51869 10.44124
v 6.390717 41.64519 13.49771
v 8.513844 45.22355 14.98477
v 2.968524 45.5526 18.01764
v 2.850284 45.17531 18.01736
v 2.02491 41.80637 15.32986
v 5.702227 37.52127 12.57417
v 5.942253 31.49785 9.517285
v 3.785867 32.26057 11.22435
v 5.450092 23.98387 6.411454
v 5.397359 30.44678 8.458101
v 6.820681 19.53101 5.363792
v 3.647606 23.98387 7.795559
v 3.40283 31.39185 10.10973
v 1.542609 23.98387 8.66834
v 5.083712 19.5843 7.080288
v 3.120453 19.58431 8.347127
v 4.883755 13.8554 8.688078
v 2.573828 13.84278 9.798963
v 6.564528 13.34851 7.800063
v 7.676727 18.59189 3.65106
v 7.925817 19.05222 3.406029
v 9.084309 18.80591 0.8495979
v 8.538391 7.567909 10.393
v 5.631305 7.557335 12.4262
v 8.070728 13.07853 6.292837
v 8.82346 18.34058 1.153706
v 8.793586 18.66626 -1.75628
v 8.563957 18.21566 -1.463359
v 9.406681 13.01844 3.339709
v 10.52406 6.910858 7.247417
v 10.23389 2.546974 13.77563
v 6.466907 2.545376 16.37291
v 9.753725 12.78181 0.8608598
v 12.28603 7.433872 4.367833
v 12.69687 2.660038 9.938428
v 12.65831 6.948318 4.604457
v 14.46751 6.323249 5.458413
v 12.85722 7.612586 0.8440199
v 13.26722 7.169739 1.000179
v 12.38745 7.926956 -2.946564
v 9.124244 13.25638 -2.40171
v 11.12873 8.935654 -6.155006
v 7.2948 18.71863 -4.542811
v 8.465611 13.62328 -5.080155
v 6.819361 18.91937 -5.397369
v 15.05281 2.843918 7.373126
v 16.32625 6.316719 1.630463
v 16.6424 2.7112 2.431237
v 15.65618 6.257495 -3.367809
v 16.47405 2.97422 -3.130705
v 15.56873 6.979641 -6.768843
v 16.63377 2.551674 -6.938732
v 13.98558 7.480648 -11.23704
v 14.91062 2.552193 -11.82952
v 15.87838 -0.2572784 -12.11161
v 17.97102 -0.008468628 -7.893163
v 18.87289 -0.861805 -3.77693
v 17.84932 -1.119236 -7.962471
v 15.58606 -1.464699 -12.30477
v 18.81122 -1.317551 -3.152187
v 17.58915 -1.055519 3.306548
v 17.43668 -1.453396 3.419518
v 17.71578 -2.510311 -1.760848
v 15.80866 -2.61747 3.416764
v 15.46734 -1.826324 8.516382
v 15.78094 -1.031013 8.639503
v 13.72205 -1.652847 11.95063
v 13.9132 -0.8264198 11.98691
v 11.27108 -1.650505 16.0728
v 11.34307 -1.182022 16.13545
v 6.951847 -1.703484 19.10166
v 6.981165 -1.196991 19.18156
v 8.9785 46.22217 14.17123
v 8.615002 45.66648 14.92221
v 2.968524 45.5526 18.01764
v 3.159864 46.16882 17.18954
v -0.5134907 45.54656 18.412
v 0.150671 46.17928 17.80668
v -5.541575 45.67993 17.76012
v -4.582611 46.2369 16.88546
v -9.265318 45.95217 15.80645
v -8.925969 46.06306 15.56276
v -12.73425 45.95619 12.77741
v -12.20728 46.15839 12.46604
v -13.66813 46.02069 8.769206
v 9.140686 46.86836 10.05747
v 4.319568 46.92397 10.52199
v -0.5026541 46.9273 11.1875
v -5.243202 46.83529 10.56204
v -9.503156 46.71886 9.357022
v 13.77253 46.42146 9.762882
v 12.06932 46.35833 11.99385
v 16.06323 46.68148 7.556881
v 12.08618 46.85427 5.367582
v 5.255603 47.05455 5.524432
v -0.4964085 47.05455 5.821771
v -13.16629 46.23397 8.51785
v -5.796863 46.92539 5.550088
v -9.752839 46.89067 4.676996
v -12.94905 46.43921 4.110254
v -13.97021 45.92671 4.544233
v -13.89068 45.62403 8.973186
v -16.64419 45.75214 1.026816
v -15.39912 46.30656 0.8206196
v -17.12433 45.8209 -3.630777
v -10.85734 46.94167 0.3201475
v -6.110979 47.07471 0.3029652
v -0.7965612 47.16191 0.6540365
v -16.27098 46.35333 -3.633806
v -15.69868 45.8413 -7.934082
v -10.77333 46.93573 -4.227438
v -5.958639 47.15527 -4.653942
v -14.6584 46.25947 -7.858044
v -13.3471 45.82095 -11.92861
v -9.892488 46.92472 -8.695217
v -12.38516 46.26863 -11.63806
v -9.662411 45.62286 -15.08125
v -8.635751 46.25219 -14.97374
v -4.591547 46.71014 -16.05055
v -5.611574 47.06688 -9.804697
v -0.8869324 47.20268 -11.40637
v -0.8194027 47.32382 -4.3638
v -2.743653 46.744 -16.96132
v -3.411125 46.20878 -17.09085
v -5.375242 46.14714 -16.22399
v -0.8790236 46.34764 -17.83158
v 2.730789 46.3808 -18.79325
v 3.651584 47.15185 -11.10696
v 4.912148 47.29406 -4.825827
v 5.884567 47.18905 0.3297348
v 12.03574 46.86357 0.7625303
v 10.69169 46.95601 -4.663653
v 7.757923 47.04992 -9.170378
v 7.90716 46.82148 -14.21164
v 16.86298 46.64634 1.087708
v 16.18253 46.64309 -4.178627
v 20.39828 46.74484 -0.1566048
v 19.31406 46.21299 5.26563
v 20.90399 46.32914 -0.6197462
v 19.39785 46.71584 -5.814931
v 19.91056 46.29113 -6.406693
v 13.27687 46.75319 -7.772665
v 16.01708 46.83348 -9.539658
v 17.84623 46.28798 -10.88668
v 11.39535 46.74823 -11.5769
v 13.3002 46.8259 -13.44227
v 14.29396 46.27781 -14.88764
v 10.85673 46.28046 -17.29609
v 6.727676 46.27678 -19.36785
v -8.635751 46.25219 -14.97374
v -5.375242 46.14714 -16.22399
v -4.591547 46.71014 -16.05055
v -9.662411 45.62286 -15.08125
v -8.237093 41.83974 -12.67079
v -4.852793 42.27587 -13.67879
v -3.411125 46.20878 -17.09085
v -11.66698 41.63511 -10.36852
v -13.35972 45.42375 -11.87506
v -13.3471 45.82095 -11.92861
v -10.06527 37.4976 -9.937893
v -7.042834 37.50748 -12.01708
v -6.723852 30.21498 -7.900829
v -3.644562 37.57128 -13.18542
v -2.939978 42.35325 -14.37913
v -4.405204 30.21498 -9.180195
v -1.46584 45.98494 -17.91565
v -0.8790236 46.34764 -17.83158
v -2.743653 46.744 -16.96132
v 3.280502 45.40364 -19.01136
v 2.730789 46.3808 -18.79325
v 6.727676 46.27678 -19.36785
v -1.479782 42.06552 -15.06413
v -0.1193352 37.52196 -13.79828
v 2.445553 41.78188 -15.93475
v -1.78637 30.21498 -9.819759
v 6.425232 44.55553 -18.79806
v 4.17908 37.45243 -12.78309
v 5.238642 41.24713 -16.18742
v 7.865078 45.61725 -18.41758
v 10.18292 44.22594 -17.3998
v 10.58115 45.53623 -17.50152
v 10.85673 46.28046 -17.29609
v 14.11204 44.10241 -14.57024
v 14.55198 45.60917 -14.61666
v 17.30606 43.33814 -10.62931
v 14.29396 46.27781 -14.88764
v 17.98796 45.52301 -10.65477
v 17.84623 46.28798 -10.88668
v 0.8846426 30.21498 -9.749427
v -0.6790208 23.98387 -8.468826
v -2.97272 23.98387 -8.171478
v -5.077715 23.98387 -7.298691
v -6.898725 23.96892 -5.835163
v -8.625133 30.21498 -6.07192
v -6.410637 18.88255 -6.95136
v -4.540972 18.88874 -8.039741
v -6.379339 14.16831 -8.158432
v -2.3148 18.88874 -8.749943
v -4.085384 13.95642 -9.373694
v 1.610957 23.98387 -8.152851
v 0.05502415 18.88874 -8.862408
v -1.364242 13.65322 -10.1268
v 3.315224 30.20386 -9.075287
v -7.061228 7.749321 -11.90089
v -9.968316 7.738754 -9.867695
v -7.98701 14.73095 -5.848712
v -3.698753 7.75354 -13.12834
v -8.035898 5.164246 -14.80711
v 1.34747 13.92985 -10.26173
v 2.347069 18.90378 -8.403427
v 3.674783 23.98387 -7.282917
v 5.182215 29.55416 -8.007972
v 5.329105 22.84846 -6.355594
v 4.451778 19.14262 -7.26812
v 6.407526 36.94817 -12.93482
v 8.478069 41.13941 -13.81968
v 8.237797 29.44534 -8.930243
v 9.16048 36.76459 -11.75309
v 11.30597 40.86143 -11.30414
v 11.48685 36.68132 -9.888214
v 13.94081 40.73696 -8.261301
v 13.47406 36.68158 -7.070608
v 10.20504 29.49323 -6.935532
v 11.54223 29.49378 -4.569918
v 8.565372 23.8034 -6.809137
v 9.781113 23.79544 -5.347397
v 9.778376 20.05055 -4.898735
v 9.492119 19.72429 -4.919249
v 7.526758 19.1186 -4.814674
v 6.797687 19.72555 -5.36362
v 6.819361 18.91937 -5.397369
v 5.848421 18.89177 -6.373919
v 8.465611 13.62328 -5.080155
v 6.309547 13.65822 -7.810196
v 9.126278 9.040379 -8.976126
v 11.12873 8.935654 -6.155006
v 6.446983 9.132133 -11.16902
v 4.191475 13.95643 -9.770309
v 3.278324 8.20478 -12.62207
v 6.788357 8.811554 -11.40693
v 3.520332 7.685131 -12.94107
v 0.6874447 6.462093 -14.04336
v 1.127131 2.551952 -17.30572
v 5.522854 2.551804 -15.99769
v 4.366913 6.788235 -14.72762
v -3.491806 2.552349 -17.2986
v 2.151305 -0.8666916 -19.57792
v -3.22358 -0.8678856 -19.81713
v 11.63556 2.552402 -14.94329
v 6.999981 -0.880455 -18.25279
v 10.1218 7.682217 -13.90825
v 9.896107 7.943279 -13.74293
v 14.91062 2.552193 -11.82952
v 13.98558 7.480648 -11.23704
v 13.13317 -0.6896057 -16.12111
v 15.87838 -0.2572784 -12.11161
v 15.58606 -1.464699 -12.30477
v 12.96892 -1.638577 -15.95367
v 7.133585 -1.61507 -17.97865
v 1.761593 -1.766609 -19.52278
v -3.419863 -1.853527 -19.87426
v -3.623117 -2.285748 -19.61253
v 1.060229 -2.294754 -19.02077
v -8.021158 -2.298534 -17.8972
v -8.249416 -1.792915 -18.25548
v -8.375257 -0.8739662 -18.22471
v -12.88539 -0.9073601 -15.69595
v -12.61288 -1.621223 -15.68834
v -16.59149 -0.9235153 -12.01553
v -16.39289 -1.62368 -11.94421
v -7.896749 2.551933 -15.875
v -11.66389 2.551823 -13.27834
v -11.37301 5.158962 -12.49218
v 1.060229 -2.294754 -19.02077
v -3.623117 -2.285748 -19.61253
v -8.021158 -2.298534 -17.8972
v -2.701468 -3.078846 -14.16814
v -11.37072 -2.333652 -14.73835
v -8.249416 -1.792915 -18.25548
v -12.61288 -1.621223 -15.68834
v -13.78196 -3.069111 -9.93476
v -16.39289 -1.62368 -11.94421
v -17.69939 -1.636448 -9.713684
v -6.777106 -3.152924 -11.13217
v -15.97627 -3.094276 -6.202074
v -18.49743 -1.475674 -9.090813
v -18.89315 -1.708664 -7.381761
v -10.37041 -3.21159 -7.265646
v -17.95637 -3.095695 -2.0771
v -19.28037 -1.747013 -1.831743
v -13.23697 -3.233749 -2.833896
v -15.04733 -3.220619 1.900154
v -16.68462 -3.166286 3.201879
v -16.74942 -3.146457 7.015437
v -17.65149 -2.031872 3.798492
v -19.03669 -1.598888 7.281308
v -18.97732 -1.764004 8.112676
v -13.93701 -3.188919 10.26314
v -16.53678 -1.727917 12.26006
v -11.99709 -3.311111 5.836184
v -9.232251 -3.398395 1.069272
v -5.832322 -3.388477 -3.715884
v -10.90146 -3.194603 13.34774
v -12.90222 -1.731407 15.94626
v -7.913076 -3.35329 9.531343
v -4.434473 -3.48045 5.079158
v -7.171642 -3.188919 15.53994
v -8.423136 -1.724335 18.57381
v -3.339898 -3.311119 12.58855
v -3.155051 -3.136322 17.77977
v -2.586885 -1.036312 18.29339
v 1.280331 -3.215881 14.69997
v 0.614027 -3.398403 8.749098
v -0.7047644 -3.478912 0.2885437
v 5.924677 -3.086628 16.64971
v 1.52705 -3.095417 18.36664
v 1.837523 -1.75095 20.6766
v 6.951847 -1.703484 19.10166
v 9.274632 -3.094357 13.49235
v 11.27108 -1.650505 16.0728
v 5.357288 -3.233753 11.66913
v 12.08283 -3.047745 10.45231
v 13.72205 -1.652847 11.95063
v 8.949112 -3.209194 7.803152
v 13.94925 -2.6185 7.394374
v 15.46734 -1.826324 8.516382
v 4.419537 -3.388477 4.280286
v 11.76001 -3.122112 3.35342
v 15.80866 -2.61747 3.416764
v 17.43668 -1.453396 3.419518
v 7.817886 -3.277481 -0.5110245
v 13.82238 -3.064003 -1.427811
v 17.71578 -2.510311 -1.760848
v 3.022821 -3.337292 -4.510329
v 16.81763 -2.685715 -7.63698
v 18.81122 -1.317551 -3.152187
v 17.84932 -1.119236 -7.962471
v 10.80557 -3.117443 -5.584713
v 14.78659 -2.485394 -12.52424
v 15.58606 -1.464699 -12.30477
v -2.028391 -3.277481 -8.190861
v 6.717955 -3.138553 -9.268566
v 12.30039 -2.305679 -15.36595
v 12.96892 -1.638577 -15.95367
v 1.921665 -3.12849 -12.04538
v 6.925674 -2.318199 -16.33804
v 7.133585 -1.61507 -17.97865
v 1.761593 -1.766609 -19.52278
v -18.89315 -1.708664 -7.381761
v -18.49743 -1.475674 -9.090813
v -18.55001 -1.246853 -9.120926
v -19.13929 -0.7798462 -7.381593
v -17.93849 -0.9330826 -9.715403
v -19.39431 -0.8323898 -1.732267
v -19.28037 -1.747013 -1.831743
v -14.7742 2.551884 -10.00939
v -16.59149 -0.9235153 -12.01553
v -16.39289 -1.62368 -11.94421
v -17.69939 -1.636448 -9.713684
v -16.96462 2.540123 -5.97943
v -14.40027 4.287727 -9.317608
v -11.37301 5.158962 -12.49218
v -11.66389 2.551823 -13.27834
v -12.24874 7.722644 -7.170496
v -16.28918 2.833153 -1.142315
v -17.60934 -0.9635468 4.08812
v -13.25467 7.746437 -3.722145
v -17.65149 -2.031872 3.798492
v -16.68462 -3.166286 3.201879
v -17.95637 -3.095695 -2.0771
v -19.03669 -1.598888 7.281308
v -19.00051 -0.9537621 8.310504
v -18.97732 -1.764004 8.112676
v -14.63184 2.498718 4.199975
v -13.12811 8.193183 0.2241497
v -16.65943 -1.216583 12.45989
v -16.53678 -1.727917 12.26006
v -16.23421 2.360981 9.133022
v -14.71035 2.010078 11.50709
v -16.31145 2.361156 7.955135
v -11.83961 8.837446 7.488947
v -9.792176 9.335342 9.301365
v -12.04662 8.72138 6.94871
v -10.06956 14.03381 6.453829
v -12.73803 8.132004 3.880439
v -10.95256 14.45438 3.752075
v -10.44098 14.72271 0.2174835
v -9.429701 14.93802 -1.846035
v -8.868248 14.73946 -4.311007
v -7.98701 14.73095 -5.848712
v -9.968316 7.738754 -9.867695
v -7.966255 19.28786 -5.066345
v -6.410637 18.88255 -6.95136
v -6.379339 14.16831 -8.158432
v -6.898725 23.96892 -5.835163
v -8.86066 19.66335 -3.009248
v -8.310572 23.92949 -3.85803
v -8.625133 30.21498 -6.07192
v -10.29814 15.41524 0.4189444
v -8.972291 19.58788 -0.383934
v -8.905699 23.88978 -1.498457
v -10.02769 15.27408 3.765465
v -10.19885 14.66638 3.720564
v -9.446651 19.5436 1.619911
v -8.754796 15.17898 5.917305
v -8.959467 14.43252 5.895293
v -8.813753 19.58431 4.083943
v -7.546913 19.58431 6.047204
v -8.748792 24.06891 0.8702507
v -10.01638 30.17384 -3.649713
v -8.262182 23.98387 4.611098
v -6.878081 23.98387 6.413587
v -8.811095 24.03148 2.525516
v -10.6436 30.14034 -0.5087471
v -8.864325 30.21498 6.257238
v -7.114954 30.79704 8.448712
v -9.894782 30.2495 4.219132
v -9.954927 30.29778 2.32542
v -11.37112 37.54328 6.558467
v -10.9139 37.52127 9.68294
v -10.33665 37.71828 3.182499
v -13.02795 37.41235 0.06937027
v -13.93961 37.47797 -3.830626
v -13.42037 41.82342 7.885105
v -12.63574 41.80645 11.24416
v -12.79149 42.0191 4.011552
v -15.43679 41.67575 0.9156079
v -13.89068 45.62403 8.973186
v -12.889 45.64095 12.84171
v -12.73425 45.95619 12.77741
v -13.66813 46.02069 8.769206
v -13.97021 45.92671 4.544233
v -15.86172 41.62346 -3.219883
v -16.63818 45.1768 0.9544907
v -16.64419 45.75214 1.026816
v -17.12433 45.8209 -3.630777
v -17.11715 45.25751 -3.610414
v -15.69868 45.8413 -7.934082
v -14.27156 41.63503 -7.094228
v -15.67951 45.40952 -7.862101
v -13.3471 45.82095 -11.92861
v -13.35972 45.42375 -11.87506
v -11.66698 41.63511 -10.36852
v -12.42212 37.49675 -7.149626
v -10.06527 37.4976 -9.937893
v -6.723852 30.21498 -7.900829
v 1.52705 -3.095417 18.36664
v -3.155051 -3.136322 17.77977
v -2.586885 -1.036312 18.29339
v 1.837523 -1.75095 20.6766
v 1.932517 -0.9385986 20.81878
v -2.314816 -0.001476288 18.06708
v -8.423136 -1.724335 18.57381
v 6.981165 -1.196991 19.18156
v 6.951847 -1.703484 19.10166
v 2.080103 2.946224 17.45155
v 6.466907 2.545376 16.37291
v -8.390865 -1.278069 18.74463
v -12.90222 -1.731407 15.94626
v -1.419371 3.530536 15.25469
v 2.268827 7.553119 13.65365
v 5.631305 7.557335 12.4262
v -13.01654 -1.209801 16.15651
v -16.53678 -1.727917 12.26006
v -16.65943 -1.216583 12.45989
v -14.71035 2.010078 11.50709
v -11.35642 2.586143 14.48076
v -9.792176 9.335342 9.301365
v -6.230913 2.743313 15.85148
v -0.5005999 8.616295 12.07821
v 2.573828 13.84278 9.798963
v 4.883755 13.8554 8.688078
v -6.607224 9.435417 11.14467
v -3.773146 9.358436 11.52834
v 0.3607321 14.12583 9.848481
v -2.57416 14.09306 10.12239
v -5.945673 13.8822 10.45258
v -8.053414 14.19125 8.221571
v -11.83961 8.837446 7.488947
v -10.06956 14.03381 6.453829
v 0.8908949 19.5843 9.064382
v 3.120453 19.58431 8.347127
v -2.504762 14.44101 10.06248
v -5.142435 14.34572 9.24759
v -1.478932 19.58431 9.176847
v 1.542609 23.98387 8.66834
v 3.647606 23.98387 7.795559
v -4.995606 14.91847 9.183554
v -6.925088 14.3412 7.736074
v -0.7510939 23.98387 8.965699
v -3.799501 19.58431 8.66189
v -6.629957 15.4508 7.760063
v -8.959467 14.43252 5.895293
v -8.754796 15.17898 5.917305
v -7.546913 19.58431 6.047204
v -5.840793 19.58431 7.59873
v -6.878081 23.98387 6.413587
v -5.104897 23.98387 7.779786
v -7.114954 30.79704 8.448712
v -4.824308 31.0757 9.783032
v -3.041073 23.98387 8.649721
v -2.321855 31.18266 10.3961
v 0.3292513 30.95868 10.36313
v 3.40283 31.39185 10.10973
v 10.42662 20.30349 2.581791
v 9.084309 18.80591 0.8495979
v 7.925817 19.05222 3.406029
v 10.4779 19.45838 0.05079651
v 10.4507 19.36421 -2.607148
v 8.793586 18.66626 -1.75628
v 9.492119 19.72429 -4.919249
v 9.778376 20.05055 -4.898735
v 10.67088 19.72503 -2.74524
v 7.526758 19.1186 -4.814674
v 8.563957 18.21566 -1.463359
v 7.2948 18.71863 -4.542811
v 6.819361 18.91937 -5.397369
v -10.9139 37.52127 9.68294
v -7.114954 30.79704 8.448712
v -8.864325 30.21498 6.257238
v -8.16282 37.52127 11.98426
v -12.63574 41.80645 11.24416
v -4.799334 32.39083 11.35598
v -9.501614 41.80637 13.67645
v -12.889 45.64095 12.84171
v -4.945427 37.52127 13.48568
v -2.055856 31.82149 11.85953
v -1.380069 37.52127 14.12386
v 0.821085 31.82149 11.84325
v -5.87101 41.8059 15.23136
v -9.571652 45.57497 16.03655
v 2.229107 37.52127 13.84492
v 3.785867 32.26057 11.22435
v 5.702227 37.52127 12.57417
v -9.265318 45.95217 15.80645
v -12.73425 45.95619 12.77741
v -5.541575 45.67993 17.76012
v -1.92373 41.80619 15.78147
v 2.02491 41.80637 15.32986
v 6.390717 41.64519 13.49771
v 2.850284 45.17531 18.01736
v -5.608277 45.3013 17.71571
v -0.7985821 44.95919 18.219
v -0.5134907 45.54656 18.412
v 2.968524 45.5526 18.01764
v 10.52406 6.910858 7.247417
v 12.65831 6.948318 4.604457
v 14.46751 6.323249 5.458413
v 15.89769 6.594013 1.405278
v 16.32625 6.316719 1.630463
v 13.26722 7.169739 1.000179
v 15.12077 6.814629 -3.300695
v 15.65618 6.257495 -3.367809
v 14.85441 7.732815 -6.66194
v 15.56873 6.979641 -6.768843
v 12.80373 7.488934 -2.936373
v 13.34615 8.157345 -10.91864
v 13.98558 7.480648 -11.23704
v 12.38745 7.926956 -2.946564
v 12.85722 7.612586 0.8440199
v 11.12873 8.935654 -6.155006
v 11.56538 8.631546 -6.177864
v 9.126278 9.040379 -8.976126
v 9.506232 8.749542 -9.122431
v 6.446983 9.132133 -11.16902
v 6.788357 8.811554 -11.40693
v 9.896107 7.943279 -13.74293
v 10.1218 7.682217 -13.90825
v 4.366913 6.788235 -14.72762
v 3.520332 7.685131 -12.94107
v 0.6874447 6.462093 -14.04336
v 9.013468 29.75848 5.342237
v 11.46128 29.47992 4.142392
v 10.54831 23.32287 2.513426
v 7.948574 23.33709 3.637246
v 10.42662 20.30349 2.581791
v 7.925817 19.05222 3.406029
v 7.734085 20.1227 3.534378
v 10.18292 44.22594 -17.3998
v 6.425232 44.55553 -18.79806
v 5.238642 41.24713 -16.18742
v 8.478069 41.13941 -13.81968
v 14.11204 44.10241 -14.57024
v 11.30597 40.86143 -11.30414
v 17.30606 43.33814 -10.62931
v 13.94081 40.73696 -8.261301
v 19.18601 43.67553 -6.53804
v 15.23153 40.32956 -4.587717
v 19.94799 43.63083 -1.251951
v 15.59447 40.62944 -0.4901619
v 18.78323 44.12976 4.660368
v 15.31108 40.8544 2.176593
v 17.70296 45.54242 6.903023
v 13.54669 41.50433 4.36697
v -11.37301 5.158962 -12.49218
v -12.24874 7.722644 -7.170496
v -14.40027 4.287727 -9.317608
v -9.968316 7.738754 -9.867695
v -8.035898 5.164246 -14.80711
v -7.061228 7.749321 -11.90089
v -4.799334 32.39083 11.35598
v -4.824308 31.0757 9.783032
v -7.114954 30.79704 8.448712
v -2.055856 31.82149 11.85953
v -2.321855 31.18266 10.3961
v 0.821085 31.82149 11.84325
v 0.3292513 30.95868 10.36313
v 3.785867 32.26057 11.22435
v 3.40283 31.39185 10.10973
v 5.942253 31.49785 9.517285
v 5.397359 30.44678 8.458101
v 7.441595 30.67535 6.537618
v -11.66389 2.551823 -13.27834
v -14.7742 2.551884 -10.00939
v -16.59149 -0.9235153 -12.01553
v -12.88539 -0.9073601 -15.69595
v -17.93849 -0.9330826 -9.715403
v -18.55001 -1.246853 -9.120926
v -18.49743 -1.475674 -9.090813
v -17.69939 -1.636448 -9.713684
v -5.815082 14.11844 10.21146
v -2.57416 14.09306 10.12239
v -5.945673 13.8822 10.45258
v -5.142435 14.34572 9.24759
v -8.053414 14.19125 8.221571
v -6.925088 14.3412 7.736074
v -7.637408 14.40017 8.093796
v -10.06956 14.03381 6.453829
v -8.959467 14.43252 5.895293
v -9.616834 14.28945 6.269648
v -10.95256 14.45438 3.752075
v -10.19885 14.66638 3.720564
v -10.7069 14.62729 3.766308
v -10.44098 14.72271 0.2174835
vn 0.3462575 0.8550971 0.3858947
vn 0.4879766 0.268253 0.8306137
vn 0.2509256 0.8683028 0.4278863
vn 0.6306223 0.07065428 0.7728671
vn 0.3288436 0.8829138 0.3351493
vn 0.7402521 -0.03109731 0.6716098
vn 0.332615 0.8807554 0.3371013
vn 0.5478392 -0.5447963 0.6348773
vn 0.6650572 -0.1761934 0.7257099
vn 0.782253 0.3841584 0.4904107
vn 0.881702 -0.3123828 0.3535796
vn 0.9120505 0.4051609 0.06331377
vn 0.6623002 -0.6201171 0.4204917
vn 0.6657965 -0.5014907 0.5524691
vn 0.9753681 -0.2190219 -0.02620014
vn 0.8055469 0.5351461 -0.2543873
vn 0.7955962 -0.6043414 0.04240637
vn 0.9430289 -0.1591861 -0.2921581
vn 0.6706714 0.5758213 -0.4675784
vn 0.7791044 -0.5849968 -0.2253333
vn 0.8450753 -0.126154 -0.5195507
vn 0.6695174 -0.5854721 -0.4571312
vn 0.7047576 -0.4637356 0.5369041
vn 0.5996304 -0.4293561 0.6753493
vn 0.7407228 -0.2061388 0.6394033
vn 0.7809312 -0.299612 0.5480685
vn 0.8416689 -0.2385888 0.4844263
vn 0.7077056 -0.5768937 0.4078558
vn 0.946107 -0.3104014 0.09237182
vn 0.8160601 -0.5726822 0.07798121
vn 0.9472686 -0.3061956 -0.09448041
vn 0.81193 -0.5597739 -0.1655983
vn 0.86198 -0.2966671 -0.4110708
vn 0.6844783 -0.5901722 -0.4280026
vn 0.9113703 -0.2843712 -0.2975517
vn 0.9633737 -0.2674161 -0.01999621
vn 0.9644684 -0.2546217 0.07048903
vn 0.7807037 -0.2221144 0.584095
vn 0.6018155 -0.2655266 0.7532023
vn 0.8225994 -0.1452675 0.5497523
vn 0.9955202 -0.09309853 0.01650127
vn 0.755502 -0.3359699 0.5624419
vn 0.969032 -0.1100667 -0.2210481
vn 0.9614269 -0.269093 0.05698444
vn 0.6827963 -0.721128 0.1173183
vn 0.9232321 -0.3179967 -0.2156861
vn 0.6144176 -0.7723727 -0.1610327
vn 0.7286254 -0.316463 -0.6074178
vn 0.8320203 -0.1429826 -0.5360022
vn 0.7576454 -0.2978867 -0.580721
vn 0.590023 -0.1397277 0.7952038
vn 0.7007291 -0.1439295 0.6987582
vn 0.6617038 -0.01498822 0.7496156
vn 0.6835088 -0.3717794 0.6281687
vn 0.636813 -0.3113393 0.705363
vn 0.4550329 -0.4372777 0.7757147
vn 0.4841408 -0.391123 0.7827072
vn 0.2895402 0.3069895 0.9066002
vn 0.2440793 -0.3885337 0.8885195
vn 0.2167153 -0.4783189 0.8510262
vn 0.449731 -0.3136524 0.83628
vn 0.4755856 -0.5974655 0.6456417
vn 0.3248396 -0.5726585 0.7526894
vn 0.6545386 -0.09239046 0.7503621
vn 0.5017221 -0.4954137 0.7091123
vn 0.7740172 0.1205363 0.6215854
vn 0.5179905 -0.09519573 0.8500727
vn 0.2442359 -0.6239168 0.7423454
vn 0.2563062 -0.09117027 0.9622864
vn 0.6032006 0.1390364 0.7853776
vn 0.4013226 0.1239275 0.9075143
vn 0.4940898 0.3487586 0.7963935
vn 0.2128575 0.360527 0.9081365
vn 0.678585 0.3630211 0.6385437
vn 0.8799496 0.09996631 0.4644302
vn 0.7873712 -0.2110791 0.579217
vn 0.701813 -0.6932539 0.1638827
vn 0.6260234 0.5298027 0.572192
vn 0.3893781 0.5560518 0.7342964
vn 0.8127583 0.3441789 0.470069
vn 0.9722407 -0.06814109 0.223841
vn 0.573469 -0.7968118 -0.1903264
vn 0.9623405 -0.1970555 -0.1872693
vn 0.8977801 0.3492058 0.2684143
vn 0.6736741 0.5549905 0.4880049
vn 0.5951107 0.5693727 0.5671491
vn 0.3619916 0.6023734 0.711413
vn 0.9321665 0.3610455 -0.02667982
vn 0.7527729 0.5844095 0.3029827
vn 0.6754234 0.524484 0.518382
vn 0.4249808 0.8717303 0.2438804
vn 0.5891508 0.7021434 0.3998699
vn 0.7965212 0.6033751 0.03863229
vn 0.4832968 0.8719336 0.07845929
vn 0.7669162 0.6391894 -0.05724047
vn 0.9128896 0.360144 -0.1921688
vn 0.6903537 0.6722142 -0.2674695
vn 0.8942021 -0.2347217 -0.3811932
vn 0.8261164 0.3974109 -0.399495
vn 0.7565358 0.06108971 -0.6510926
vn 0.7723047 0.4105244 0.4847838
vn 0.8410606 0.5282282 0.1165853
vn 0.940994 0.2869304 0.179447
vn 0.8841333 0.4672199 -0.003733245
vn 0.9475076 0.3197308 -0.001207117
vn 0.8732751 0.4783801 -0.09242943
vn 0.9117156 0.3735049 -0.1710813
vn 0.7255452 0.4887403 -0.484476
vn 0.778531 0.350198 -0.5208175
vn 0.8467357 0.1586331 -0.5078132
vn 0.9384604 0.1920027 -0.2871011
vn 0.9887903 0.1298106 -0.07377702
vn 0.875535 -0.3760592 -0.3033444
vn 0.8030434 -0.3717072 -0.4657844
vn 0.9173242 -0.3969112 0.03127106
vn 0.9698424 0.07645775 0.2314301
vn 0.8168973 -0.5271127 0.2341599
vn 0.4939141 -0.8671432 0.06412188
vn 0.3635803 -0.9248471 0.1116564
vn 0.7023152 -0.6417638 0.3080466
vn 0.9001217 0.01652313 0.4353251
vn 0.6824247 -0.6120245 0.3996531
vn 0.8386351 0.1346407 0.5277907
vn 0.5945221 -0.5786247 0.5583342
vn 0.7057903 0.1775395 0.6858132
vn 0.3701483 -0.577933 0.7273126
vn 0.4296823 0.2124785 0.8776252
vn 0.2509256 0.8683028 0.4278863
vn 0.4879766 0.268253 0.8306137
vn 0.2895402 0.3069895 0.9066002
vn 0.1552088 0.8880278 0.4328011
vn -0.007057403 0.3263493 0.9452229
vn 0.02978473 0.9016078 0.4315279
vn -0.2277426 0.4423924 0.8674228
vn -0.07080048 0.9444179 0.321033
vn -0.309415 0.8129147 0.4933884
vn -0.1271883 0.9648327 0.2300455
vn -0.5369543 0.7790169 0.3237481
vn -0.199169 0.9709646 0.1325122
vn -0.5447043 0.8343549 0.08455243
vn 0.04856067 0.9951367 0.08570224
vn 0.02252424 0.9970051 0.07398318
vn -0.005685128 0.9975244 0.0700909
vn -0.03625018 0.9970806 0.06720278
vn -0.08133856 0.9946394 0.06384788
vn 0.3288436 0.8829138 0.3351493
vn 0.3462575 0.8550971 0.3858947
vn 0.332615 0.8807554 0.3371013
vn 0.04255018 0.9987067 0.02782815
vn 0.01591981 0.9996381 0.02168684
vn -0.01086659 0.9996506 0.02409598
vn -0.2565795 0.9649085 0.05584458
vn -0.0234766 0.9993948 0.02567076
vn -0.07899009 0.9962364 0.03568885
vn -0.2689347 0.9594171 0.08481129
vn -0.8506791 0.4623553 0.2501454
vn -0.9628137 0.2341685 0.1347396
vn -0.8234331 0.4615694 0.3300177
vn -0.2868713 0.9518322 0.1082604
vn -0.8716334 0.4815495 -0.09146232
vn -0.0836686 0.9961652 0.02558392
vn -0.02659553 0.9994445 0.02008278
vn -0.01189613 0.9996208 0.02483368
vn -0.3156178 0.9483041 -0.03323729
vn -0.7958078 0.4823521 -0.3660961
vn -0.08375702 0.9964092 -0.01238712
vn -0.03470949 0.9993967 -0.001279913
vn -0.268158 0.9538758 -0.1349532
vn -0.6780311 0.4601963 -0.5731432
vn -0.09529574 0.9932543 -0.06606518
vn -0.2586361 0.9342551 -0.2455094
vn -0.4657198 0.1139792 -0.8775613
vn -0.229844 0.857907 -0.4595295
vn -0.2027231 0.8923711 -0.4032086
vn -0.05837951 0.9969734 -0.05134107
vn -0.01172848 0.9980487 -0.06132905
vn -0.01240518 0.9999156 0.003855118
vn -0.121677 0.8746653 -0.4692071
vn -0.4128909 0.06164166 -0.9086922
vn -0.3214641 0.04163707 -0.9460059
vn -0.1198506 0.7501696 -0.6502934
vn -0.1151013 0.7324615 -0.6710081
vn 0.01455642 0.9979923 -0.06164089
vn 0.02830465 0.9995944 -0.00315612
vn 0.02660752 0.9994938 0.01743995
vn 0.04745803 0.998858 0.005520345
vn 0.05462569 0.9984751 -0.007969888
vn 0.04733739 0.9981874 -0.0371623
vn 0.03359213 0.9955836 -0.08766402
vn 0.006412622 0.9999751 -0.002960211
vn 0.01295764 0.9998854 0.007833431
vn 0.2380241 0.97009 0.04764269
vn 0.782253 0.3841584 0.4904107
vn 0.9120505 0.4051609 0.06331377
vn 0.263191 0.9622666 -0.06909015
vn 0.8055469 0.5351461 -0.2543873
vn 0.02428264 0.999705 -0.0005906243
vn 0.106215 0.9921227 -0.06641491
vn 0.6706714 0.5758213 -0.4675784
vn 0.01582802 0.9998717 -0.002484807
vn 0.07896414 0.9916531 -0.1019252
vn 0.5142657 0.5881155 -0.6242204
vn 0.3988665 0.5887325 -0.7030645
vn 0.1494851 0.501587 -0.8520944
vn -0.229844 0.857907 -0.4595295
vn -0.3214641 0.04163707 -0.9460059
vn -0.2027231 0.8923711 -0.4032086
vn -0.4657198 0.1139792 -0.8775613
vn -0.3815071 -0.4137477 -0.8265986
vn -0.2442494 -0.3932051 -0.8864152
vn -0.4128909 0.06164166 -0.9086922
vn -0.6383603 -0.4153089 -0.6480854
vn -0.71785 -0.3002731 -0.6281142
vn -0.6780311 0.4601963 -0.5731432
vn -0.6043973 -0.37772 -0.7014496
vn -0.3919124 -0.3415677 -0.854246
vn -0.5601485 -0.3440099 -0.7535853
vn -0.2173716 -0.326422 -0.9198904
vn -0.332917 -0.4219442 -0.8432849
vn -0.3405731 -0.3403212 -0.8764654
vn -0.3357411 -0.05382805 -0.9404151
vn -0.1198506 0.7501696 -0.6502934
vn -0.121677 0.8746653 -0.4692071
vn -0.1616921 -0.2483315 -0.9550849
vn -0.1151013 0.7324615 -0.6710081
vn 0.1494851 0.501587 -0.8520944
vn -0.3040693 -0.4908892 -0.8164371
vn -0.03734232 -0.4159253 -0.9086318
vn -0.1399825 -0.5612229 -0.8157412
vn -0.1148944 -0.3445317 -0.9317173
vn 0.1313697 -0.504195 -0.8535393
vn -0.04584514 -0.5336545 -0.8444591
vn 0.05594633 -0.6386696 -0.7674446
vn 0.3191223 -0.2171608 -0.9224978
vn 0.4044674 -0.4899495 -0.7722407
vn 0.4663168 -0.175781 -0.8669773
vn 0.3988665 0.5887325 -0.7030645
vn 0.5538569 -0.5261774 -0.645275
vn 0.6853074 -0.1267809 -0.7171334
vn 0.6695174 -0.5854721 -0.4571312
vn 0.5142657 0.5881155 -0.6242204
vn 0.8450753 -0.126154 -0.5195507
vn 0.6706714 0.5758213 -0.4675784
vn 0.1343598 -0.3502584 -0.9269662
vn -0.006139402 -0.06953257 -0.9975607
vn -0.2648733 -0.07075974 -0.9616836
vn -0.5061631 -0.06959659 -0.859625
vn -0.7247135 -0.07313427 -0.6851581
vn -0.7398853 -0.3483793 -0.5755012
vn -0.6600854 0.129237 -0.7399899
vn -0.4140103 0.1490457 -0.8979871
vn -0.5447279 0.3560657 -0.7592685
vn -0.1914049 0.1582601 -0.9686682
vn -0.2972722 0.3561267 -0.8858911
vn 0.2529364 -0.06978697 -0.9649627
vn 0.04500607 0.185113 -0.9816861
vn -0.08965559 0.3658462 -0.9263468
vn 0.3058756 -0.3583028 -0.8820767
vn -0.3525856 0.6237859 -0.697549
vn -0.5644004 0.6245032 -0.5398591
vn -0.7593912 0.3118465 -0.5710313
vn -0.1343583 0.57345 -0.8081479
vn -0.3441488 0.5520704 -0.7594603
vn 0.09531677 0.3605739 -0.9278476
vn 0.3322177 0.2167906 -0.9179506
vn 0.4114403 -0.09693764 -0.906267
vn 0.08028598 -0.3714258 -0.9249849
vn 0.2919759 -0.1548895 -0.9438004
vn 0.555995 0.1855421 -0.8102121
vn 0.1085185 -0.4998843 -0.8592668
vn 0.4321969 -0.5802403 -0.6903094
vn 0.2667478 -0.3964001 -0.8784717
vn 0.520049 -0.3391798 -0.7839045
vn 0.5572302 -0.5580708 -0.6148589
vn 0.7046276 -0.2997114 -0.6431742
vn 0.6844783 -0.5901722 -0.4280026
vn 0.86198 -0.2966671 -0.4110708
vn 0.7576454 -0.2978867 -0.580721
vn 0.9113703 -0.2843712 -0.2975517
vn 0.3476753 -0.2842016 -0.8935051
vn 0.8320203 -0.1429826 -0.5360022
vn 0.7286254 -0.316463 -0.6074178
vn 0.3803129 -0.6583273 -0.6495901
vn 0.4364686 -0.6037176 -0.6670983
vn 0.4499235 -0.1290326 -0.8836965
vn 0.7565358 0.06108971 -0.6510926
vn 0.6688243 0.1559439 -0.7268807
vn 0.8261164 0.3974109 -0.399495
vn 0.6443238 0.4057169 -0.6482598
vn 0.5552773 0.6700619 -0.4926298
vn 0.6903537 0.6722142 -0.2674695
vn 0.3576935 0.5880514 -0.7254316
vn 0.3945346 0.396563 -0.8289031
vn 0.1251747 0.5066012 -0.8530455
vn 0.1492479 0.8581281 -0.491265
vn -0.00500151 0.7470086 -0.6647955
vn -0.006409389 0.5721766 -0.8201054
vn 0.07245366 0.5769925 -0.8135294
vn 0.1553775 0.4694968 -0.8691551
vn -0.0101246 0.6486872 -0.7609878
vn -0.1049902 0.5901654 -0.800426
vn 0.1738613 0.2310902 -0.957272
vn -0.1092639 0.3002951 -0.9475675
vn 0.4239503 0.3971877 -0.813946
vn 0.2752163 0.1668299 -0.9467965
vn 0.3330871 0.479179 -0.8120593
vn 0.1390549 0.8188741 -0.5568744
vn 0.778531 0.350198 -0.5208175
vn 0.7255452 0.4887403 -0.484476
vn 0.5827492 0.130473 -0.8021098
vn 0.8467357 0.1586331 -0.5078132
vn 0.8030434 -0.3717072 -0.4657844
vn 0.5367501 -0.4910353 -0.6861368
vn 0.2477854 -0.6033731 -0.7579864
vn 0.1571676 -0.5043933 -0.8490498
vn -0.108931 -0.3165725 -0.9422929
vn -0.1025617 -0.8325992 -0.5442975
vn 0.07474618 -0.8998138 -0.4298232
vn -0.2093435 -0.8842098 -0.4175504
vn -0.3880882 -0.3913535 -0.834404
vn -0.3944992 0.281668 -0.874662
vn -0.6075102 0.2090682 -0.766304
vn -0.5001899 -0.5724136 -0.6497329
vn -0.7799455 0.1767258 -0.6003773
vn -0.6039853 -0.6399304 -0.4750693
vn -0.3779759 0.4637738 -0.8012791
vn -0.5716354 0.4642989 -0.6765053
vn -0.5713957 0.5392807 -0.6186141
vn 0.07474618 -0.8998138 -0.4298232
vn -0.1025617 -0.8325992 -0.5442975
vn -0.2093435 -0.8842098 -0.4175504
vn -0.009427071 -0.9953257 -0.09611445
vn -0.1998858 -0.9471356 -0.2509581
vn -0.3880882 -0.3913535 -0.834404
vn -0.5001899 -0.5724136 -0.6497329
vn -0.1735703 -0.9720823 -0.1578904
vn -0.6039853 -0.6399304 -0.4750693
vn -0.5857428 -0.6907656 -0.4239675
vn -0.03341734 -0.9967049 -0.0739104
vn -0.2388418 -0.9659554 -0.09942213
vn -0.6889963 -0.5769315 -0.4386733
vn -0.7679816 -0.6138741 -0.1826548
vn -0.02293612 -0.9986314 -0.04700284
vn -0.390554 -0.9205719 -0.003860707
vn -0.8752878 -0.4783371 0.07116902
vn -0.0276775 -0.9995117 -0.01449744
vn -0.03239225 -0.9994721 -0.002511384
vn -0.3831584 -0.9230613 0.03387774
vn -0.3380665 -0.9396869 0.05195699
vn -0.8881873 -0.459335 0.01160129
vn -0.9696942 -0.134864 -0.2037273
vn -0.8150404 -0.5431759 0.2016661
vn -0.1835534 -0.9715604 0.1495945
vn -0.6062641 -0.6485928 0.4601861
vn -0.02767818 -0.9995841 0.008096946
vn -0.02173372 -0.9997458 -0.006007021
vn -0.01046445 -0.9997292 -0.02078547
vn -0.1464293 -0.971207 0.1879241
vn -0.4484244 -0.6834766 0.5759994
vn -0.01568348 -0.9996746 0.02012073
vn -0.006095872 -0.9999506 0.007842722
vn -0.0836648 -0.9542291 0.2871358
vn -0.2186746 -0.5384531 0.8137872
vn -0.001039768 -0.9995829 0.02885934
vn -0.09794402 -0.8898237 0.4456691
vn -0.2113859 -0.2711176 0.9390481
vn 0.01039416 -0.9994752 0.03068075
vn 0.01124486 -0.9997434 0.01966639
vn 0.006795837 -0.9999391 -0.008691042
vn 0.1365118 -0.9617839 0.2373525
vn -0.03771323 -0.9148424 0.4020461
vn -0.09245529 -0.4078505 0.9083557
vn 0.3701483 -0.577933 0.7273126
vn 0.1876514 -0.9674296 0.1699025
vn 0.5945221 -0.5786247 0.5583342
vn 0.02177882 -0.9994928 0.02323407
vn 0.2549414 -0.9575284 0.1347007
vn 0.6824247 -0.6120245 0.3996531
vn 0.05446085 -0.9984545 0.0110747
vn 0.3019272 -0.9472263 0.1077134
vn 0.7023152 -0.6417638 0.3080466
vn 0.02399591 -0.9996996 0.005002918
vn 0.08076221 -0.9965685 0.01813099
vn 0.3635803 -0.9248471 0.1116564
vn 0.8168973 -0.5271127 0.2341599
vn 0.03001969 -0.999523 -0.00725225
vn 0.08903191 -0.9960222 0.003612429
vn 0.4939141 -0.8671432 0.06412188
vn 0.01610488 -0.999657 -0.02065435
vn 0.4726813 -0.8676859 -0.1539271
vn 0.9173242 -0.3969112 0.03127106
vn 0.875535 -0.3760592 -0.3033444
vn 0.04217088 -0.9984123 -0.03734504
vn 0.4185234 -0.861578 -0.2872655
vn 0.8030434 -0.3717072 -0.4657844
vn 0.0009361749 -0.9995681 -0.02937193
vn 0.03346981 -0.9974912 -0.06237822
vn 0.2337727 -0.9092491 -0.3444071
vn 0.5367501 -0.4910353 -0.6861368
vn 0.02777624 -0.9966314 -0.07716454
vn 0.09435641 -0.9549593 -0.2813353
vn 0.2477854 -0.6033731 -0.7579864
vn 0.1571676 -0.5043933 -0.8490498
vn -0.7679816 -0.6138741 -0.1826548
vn -0.6889963 -0.5769315 -0.4386733
vn -0.8462575 0.1146572 -0.5202902
vn -0.9462771 0.2465999 -0.2091605
vn -0.7944648 0.250484 -0.5532482
vn -0.9598489 0.2471082 0.1327693
vn -0.8752878 -0.4783371 0.07116902
vn -0.7070606 0.4842341 -0.5153472
vn -0.7799455 0.1767258 -0.6003773
vn -0.6039853 -0.6399304 -0.4750693
vn -0.5857428 -0.6907656 -0.4239675
vn -0.7901208 0.5917768 -0.1597166
vn -0.7356965 0.5143282 -0.4407007
vn -0.5713957 0.5392807 -0.6186141
vn -0.5716354 0.4642989 -0.6765053
vn -0.7215277 0.5943365 -0.355193
vn -0.8254358 0.5485365 0.1332802
vn -0.9182399 0.392255 -0.05451191
vn -0.8349432 0.5335998 -0.1346891
vn -0.8881873 -0.459335 0.01160129
vn -0.3831584 -0.9230613 0.03387774
vn -0.390554 -0.9205719 -0.003860707
vn -0.9696942 -0.134864 -0.2037273
vn -0.9409507 0.292525 0.1704139
vn -0.8150404 -0.5431759 0.2016661
vn -0.8551615 0.5182492 0.01080071
vn -0.9056613 0.4228748 0.03089644
vn -0.7838557 0.1006034 0.6127391
vn -0.6062641 -0.6485928 0.4601861
vn -0.7453924 0.5851052 0.3194403
vn -0.6118824 0.5603641 0.5582043
vn -0.8115909 0.579031 -0.07773919
vn -0.7725316 0.4904995 0.4032433
vn -0.5968484 0.464993 0.6538758
vn -0.8941934 0.4319708 0.1175565
vn -0.6751982 0.6040865 0.4233048
vn -0.9240265 0.3767551 0.06504423
vn -0.7895293 0.5998674 0.1296246
vn -0.9221749 0.3637741 -0.1313849
vn -0.9287508 0.3058437 -0.2094794
vn -0.8775574 0.3236758 -0.3537329
vn -0.7593912 0.3118465 -0.5710313
vn -0.5644004 0.6245032 -0.5398591
vn -0.8514606 0.09329959 -0.5160523
vn -0.6600854 0.129237 -0.7399899
vn -0.5447279 0.3560657 -0.7592685
vn -0.7247135 -0.07313427 -0.6851581
vn -0.9711567 0.06694037 -0.2288532
vn -0.9013444 -0.08701356 -0.4242723
vn -0.7398853 -0.3483793 -0.5755012
vn -0.9626589 0.2424289 -0.1204831
vn -0.9818141 0.1191731 -0.1477801
vn -0.9904565 -0.1080093 -0.08561458
vn -0.9224899 0.2149357 0.320648
vn -0.5816423 0.7806501 0.2286432
vn -0.9852421 0.1710195 -0.007093475
vn -0.7549548 0.1840998 0.6294049
vn -0.4830745 0.7684326 0.4197026
vn -0.9124396 0.1432917 0.3833035
vn -0.7449958 0.1183328 0.6564896
vn -0.9970113 -0.07652032 0.01063517
vn -0.8936812 -0.3443472 -0.2876786
vn -0.8846673 -0.07698708 0.4598225
vn -0.6997208 -0.08995779 0.7087302
vn -0.9921833 -0.0467736 0.115692
vn -0.947996 -0.2895466 0.1321609
vn -0.8249913 -0.3035301 0.4767166
vn -0.5786546 -0.3751751 0.7241565
vn -0.9749629 -0.1989405 0.09934787
vn -0.9732441 -0.188202 0.1318178
vn -0.9412417 -0.3376724 0.00644002
vn -0.7613227 -0.4483749 0.4683457
vn -0.9305723 -0.3152537 0.1861459
vn -0.8487593 -0.4107852 0.3329613
vn -0.887097 -0.4314042 -0.1641627
vn -0.9497081 -0.3117235 0.0297159
vn -0.8080046 -0.3699928 0.4585128
vn -0.8874704 -0.3849806 0.25335
vn -0.8297585 -0.4002811 0.388942
vn -0.9628137 0.2341685 0.1347396
vn -0.8382843 0.1445621 0.5257197
vn -0.5369543 0.7790169 0.3237481
vn -0.5447043 0.8343549 0.08455243
vn -0.8506791 0.4623553 0.2501454
vn -0.9144156 -0.3923221 -0.09963719
vn -0.9151905 -0.1863209 0.3573667
vn -0.8234331 0.4615694 0.3300177
vn -0.8716334 0.4815495 -0.09146232
vn -0.9739758 -0.1931407 -0.118608
vn -0.7958078 0.4823521 -0.3660961
vn -0.809609 -0.3826351 -0.4451109
vn -0.8758023 -0.2397574 -0.4189113
vn -0.6780311 0.4601963 -0.5731432
vn -0.71785 -0.3002731 -0.6281142
vn -0.6383603 -0.4153089 -0.6480854
vn -0.7656932 -0.4002091 -0.5035341
vn -0.6043973 -0.37772 -0.7014496
vn -0.5601485 -0.3440099 -0.7535853
vn -0.03771323 -0.9148424 0.4020461
vn -0.09794402 -0.8898237 0.4456691
vn -0.2113859 -0.2711176 0.9390481
vn -0.09245529 -0.4078505 0.9083557
vn -0.06101122 0.2996294 0.9521029
vn -0.2146387 0.4348628 0.8745425
vn -0.2186746 -0.5384531 0.8137872
vn 0.4296823 0.2124785 0.8776252
vn 0.3701483 -0.577933 0.7273126
vn -0.0326295 0.6416497 0.7663035
vn 0.3619916 0.6023734 0.711413
vn -0.2014266 0.2150505 0.9556049
vn -0.4484244 -0.6834766 0.5759994
vn -0.1631572 0.5914304 0.789677
vn 0.01870381 0.5768399 0.8166431
vn 0.3893781 0.5560518 0.7342964
vn -0.5869761 0.1024129 0.8031007
vn -0.6062641 -0.6485928 0.4601861
vn -0.7838557 0.1006034 0.6127391
vn -0.6118824 0.5603641 0.5582043
vn -0.4223713 0.5810358 0.6957011
vn -0.5968484 0.464993 0.6538758
vn -0.1231467 0.5832523 0.802902
vn -0.1024777 0.4823973 0.8699375
vn 0.2128575 0.360527 0.9081365
vn 0.4940898 0.3487586 0.7963935
vn -0.3259895 0.4418958 0.8357387
vn -0.04467301 0.4111675 0.9104645
vn 0.02804678 0.2813728 0.9591886
vn -0.05934587 0.2956043 0.9534653
vn -0.2683362 0.5077204 0.8186671
vn -0.5082695 0.6463705 0.5690933
vn -0.7725316 0.4904995 0.4032433
vn -0.6751982 0.6040865 0.4233048
vn 0.1663836 0.1095476 0.979957
vn 0.4013226 0.1239275 0.9075143
vn -0.09932838 0.1744586 0.9796418
vn -0.2791554 0.7463415 0.6041908
vn -0.06722968 0.1128337 0.9913368
vn 0.2563062 -0.09117027 0.9622864
vn 0.5179905 -0.09519573 0.8500727
vn -0.4356078 0.1918101 0.8794627
vn -0.4229432 0.7441209 0.5171105
vn -0.006990038 -0.08032075 0.9967446
vn -0.3501804 0.1245258 0.9283679
vn -0.6182433 0.1713862 0.7670737
vn -0.4830745 0.7684326 0.4197026
vn -0.7549548 0.1840998 0.6294049
vn -0.7449958 0.1183328 0.6564896
vn -0.5726297 0.1147642 0.8117417
vn -0.6997208 -0.08995779 0.7087302
vn -0.4822203 -0.09028829 0.8713848
vn -0.5786546 -0.3751751 0.7241565
vn -0.3309604 -0.5456529 0.7698885
vn -0.2443863 -0.08306827 0.9661134
vn -0.1587958 -0.6044549 0.7806524
vn 0.05334384 -0.5827905 0.8108698
vn 0.2442359 -0.6239168 0.7423454
vn 0.755502 -0.3359699 0.5624419
vn 0.701813 -0.6932539 0.1638827
vn 0.7873712 -0.2110791 0.579217
vn 0.6827963 -0.721128 0.1173183
vn 0.6144176 -0.7723727 -0.1610327
vn 0.573469 -0.7968118 -0.1903264
vn 0.3803129 -0.6583273 -0.6495901
vn 0.7286254 -0.316463 -0.6074178
vn 0.9232321 -0.3179967 -0.2156861
vn 0.4364686 -0.6037176 -0.6670983
vn 0.9623405 -0.1970555 -0.1872693
vn 0.8942021 -0.2347217 -0.3811932
vn 0.7565358 0.06108971 -0.6510926
vn -0.7613227 -0.4483749 0.4683457
vn -0.5786546 -0.3751751 0.7241565
vn -0.8249913 -0.3035301 0.4767166
vn -0.5010343 -0.442501 0.7437457
vn -0.8080046 -0.3699928 0.4585128
vn -0.3218407 -0.5582296 0.764721
vn -0.4883509 -0.4465983 0.749709
vn -0.8382843 0.1445621 0.5257197
vn -0.2952541 -0.4012981 0.8670553
vn -0.09640397 -0.6492619 0.7544305
vn -0.0431448 -0.3618012 0.9312564
vn 0.1290651 -0.6505715 0.7483976
vn -0.2592943 -0.4816617 0.8371192
vn -0.5426097 0.09351226 0.8347635
vn 0.2050365 -0.3331523 0.9203095
vn 0.3248396 -0.5726585 0.7526894
vn 0.449731 -0.3136524 0.83628
vn -0.309415 0.8129147 0.4933884
vn -0.5369543 0.7790169 0.3237481
vn -0.2277426 0.4423924 0.8674228
vn -0.0358413 -0.4926663 0.8694799
vn 0.2167153 -0.4783189 0.8510262
vn 0.4550329 -0.4372777 0.7757147
vn 0.2440793 -0.3885337 0.8885195
vn -0.256809 -0.3339209 0.9069432
vn -0.02388574 -0.4232136 0.905715
vn -0.007057403 0.3263493 0.9452229
vn 0.2895402 0.3069895 0.9066002
vn 0.6736741 0.5549905 0.4880049
vn 0.4249808 0.8717303 0.2438804
vn 0.5891508 0.7021434 0.3998699
vn 0.4434056 0.8947086 0.05373944
vn 0.8410606 0.5282282 0.1165853
vn 0.4832968 0.8719336 0.07845929
vn 0.5041379 0.8601243 0.07766039
vn 0.8841333 0.4672199 -0.003733245
vn 0.5124114 0.8580695 0.03392997
vn 0.8732751 0.4783801 -0.09242943
vn 0.483343 0.8729721 0.06556908
vn 0.405679 0.872674 -0.2717805
vn 0.7255452 0.4887403 -0.484476
vn 0.7669162 0.6391894 -0.05724047
vn 0.7965212 0.6033751 0.03863229
vn 0.6903537 0.6722142 -0.2674695
vn 0.4303975 0.9023981 -0.02087049
vn 0.5552773 0.6700619 -0.4926298
vn 0.306681 0.9204593 -0.2422836
vn 0.3576935 0.5880514 -0.7254316
vn 0.1492479 0.8581281 -0.491265
vn 0.1390549 0.8188741 -0.5568744
vn 0.3330871 0.479179 -0.8120593
vn -0.0101246 0.6486872 -0.7609878
vn -0.00500151 0.7470086 -0.6647955
vn -0.006409389 0.5721766 -0.8201054
vn 0.6018155 -0.2655266 0.7532023
vn 0.7807037 -0.2221144 0.584095
vn 0.8225994 -0.1452675 0.5497523
vn 0.590023 -0.1397277 0.7952038
vn 0.755502 -0.3359699 0.5624419
vn 0.7873712 -0.2110791 0.579217
vn 0.6617038 -0.01498822 0.7496156
vn 0.4044674 -0.4899495 -0.7722407
vn 0.1313697 -0.504195 -0.8535393
vn 0.05594633 -0.6386696 -0.7674446
vn 0.4321969 -0.5802403 -0.6903094
vn 0.5538569 -0.5261774 -0.645275
vn 0.5572302 -0.5580708 -0.6148589
vn 0.6695174 -0.5854721 -0.4571312
vn 0.6844783 -0.5901722 -0.4280026
vn 0.7791044 -0.5849968 -0.2253333
vn 0.81193 -0.5597739 -0.1655983
vn 0.7955962 -0.6043414 0.04240637
vn 0.8160601 -0.5726822 0.07798121
vn 0.6623002 -0.6201171 0.4204917
vn 0.7077056 -0.5768937 0.4078558
vn 0.6650572 -0.1761934 0.7257099
vn 0.6657965 -0.5014907 0.5524691
vn -0.5713957 0.5392807 -0.6186141
vn -0.7215277 0.5943365 -0.355193
vn -0.7356965 0.5143282 -0.4407007
vn -0.5644004 0.6245032 -0.5398591
vn -0.3441488 0.5520704 -0.7594603
vn -0.3525856 0.6237859 -0.697549
vn -0.3218407 -0.5582296 0.764721
vn -0.3309604 -0.5456529 0.7698885
vn -0.5786546 -0.3751751 0.7241565
vn -0.09640397 -0.6492619 0.7544305
vn -0.1587958 -0.6044549 0.7806524
vn 0.1290651 -0.6505715 0.7483976
vn 0.05334384 -0.5827905 0.8108698
vn 0.3248396 -0.5726585 0.7526894
vn 0.2442359 -0.6239168 0.7423454
vn 0.4755856 -0.5974655 0.6456417
vn 0.5017221 -0.4954137 0.7091123
vn 0.6835088 -0.3717794 0.6281687
vn -0.5716354 0.4642989 -0.6765053
vn -0.7070606 0.4842341 -0.5153472
vn -0.7799455 0.1767258 -0.6003773
vn -0.6075102 0.2090682 -0.766304
vn -0.7944648 0.250484 -0.5532482
vn -0.8462575 0.1146572 -0.5202902
vn -0.6889963 -0.5769315 -0.4386733
vn -0.5857428 -0.6907656 -0.4239675
vn -0.1155398 0.8882875 0.4445175
vn -0.05934587 0.2956043 0.9534653
vn -0.2683362 0.5077204 0.8186671
vn -0.2791554 0.7463415 0.6041908
vn -0.5082695 0.6463705 0.5690933
vn -0.4229432 0.7441209 0.5171105
vn -0.197025 0.952463 0.2323691
vn -0.6751982 0.6040865 0.4233048
vn -0.4830745 0.7684326 0.4197026
vn -0.2603486 0.9380953 0.2284638
vn -0.7895293 0.5998674 0.1296246
vn -0.5816423 0.7806501 0.2286432
vn -0.3342482 0.9338441 0.1273319
vn -0.9221749 0.3637741 -0.1313849
vt 0.5125082 0.00373184
vt 0.5518124 0.0110972
vt 0.5440522 0.006000298
vt 0.5204901 0.01054853
vt 0.4867217 0.002950193
vt 0.4878985 0.009488862
vt 0.4585111 -3.009868E-08
vt 0.5206188 0.01400371
vt 0.4458996 0.009849197
vt 0.4253435 0.00328405
vt 0.4202186 0.008448315
vt 0.3702748 0.003344701
vt 0.4228432 0.02310505
vt 0.4439005 0.05052682
vt 0.3646137 0.01036783
vt 0.3275413 0.00627327
vt 0.3694712 0.02911839
vt 0.3262843 0.01352967
vt 0.3002381 0.009035612
vt 0.3297846 0.03097452
vt 0.3015195 0.01596436
vt 0.3048373 0.03659456
vt 0.4889121 0.04780088
vt 0.5218824 0.04791702
vt 0.446491 0.09104721
vt 0.4872346 0.08795968
vt 0.430253 0.0950915
vt 0.4181939 0.05630515
vt 0.407096 0.09875102
vt 0.3952002 0.05915464
vt 0.3778573 0.1009788
vt 0.3634309 0.06356414
vt 0.3511486 0.09923958
vt 0.3392357 0.06180008
vt 0.3803734 0.166092
vt 0.4028028 0.1624934
vt 0.4265361 0.1599494
vt 0.4517468 0.1632409
vt 0.472441 0.1616384
vt 0.4427335 0.2213932
vt 0.4150995 0.2177135
vt 0.4439269 0.2494236
vt 0.3957254 0.2196415
vt 0.4207793 0.2546222
vt 0.4230947 0.2581061
vt 0.3994355 0.2564958
vt 0.4015547 0.2599175
vt 0.3858556 0.2547356
vt 0.382071 0.2201808
vt 0.3670591 0.1676813
vt 0.4634942 0.2223537
vt 0.4742958 0.2173802
vt 0.463712 0.2523039
vt 0.4891704 0.1536218
vt 0.5153807 0.08814979
vt 0.5502514 0.0501312
vt 0.5527875 0.01523831
vt 0.602243 0.01429766
vt 0.60278 0.01786218
vt 0.584662 0.05049083
vt 0.5459235 0.08906669
vt 0.5201222 0.1458187
vt 0.5436352 0.1393865
vt 0.4972354 0.2168205
vt 0.513953 0.156239
vt 0.4827173 0.2576735
vt 0.5165603 0.2173677
vt 0.5362864 0.1480437
vt 0.5330675 0.2182651
vt 0.5044575 0.257574
vt 0.5235441 0.2582536
vt 0.5186311 0.3102273
vt 0.5379939 0.3112758
vt 0.5039085 0.3142753
vt 0.4649662 0.2664843
vt 0.4618433 0.2621608
vt 0.4358444 0.2646709
vt 0.5164129 0.3658259
vt 0.5459579 0.3668756
vt 0.4849105 0.316442
vt 0.4395015 0.2690268
vt 0.4159062 0.267036
vt 0.4193323 0.2712415
vt 0.4548805 0.3172626
vt 0.4819334 0.3718757
vt 0.5365726 0.4102201
vt 0.5745522 0.4114812
vt 0.4331347 0.3201188
vt 0.4505838 0.3670234
vt 0.4943022 0.4091002
vt 0.4508662 0.3712293
vt 0.4497724 0.3756943
vt 0.4193077 0.3662651
vt 0.4187646 0.3700815
vt 0.3904983 0.3649358
vt 0.4093367 0.3172123
vt 0.369933 0.3574189
vt 0.3998805 0.268373
vt 0.3904333 0.3151176
vt 0.3950307 0.2670804
vt 0.4628741 0.4069433
vt 0.4102775 0.3760242
vt 0.4155048 0.4089831
vt 0.3725299 0.3786911
vt 0.370914 0.408573
vt 0.3451769 0.3732291
vt 0.339176 0.4137208
vt 0.315807 0.3710402
vt 0.3070019 0.4163972
vt 0.3004708 0.4419825
vt 0.3255083 0.437018
vt 0.3550605 0.4429832
vt 0.3255207 0.4474065
vt 0.3002381 0.4534071
vt 0.3604418 0.4470254
vt 0.4185306 0.4430506
vt 0.420144 0.446786
vt 0.3767073 0.4582218
vt 0.4274224 0.4585045
vt 0.4704867 0.4495954
vt 0.4700663 0.4420026
vt 0.5062613 0.4477902
vt 0.5056785 0.4400089
vt 0.5507972 0.4477347
vt 0.5509722 0.4433298
vt 0.5947606 0.449637
vt 0.5952654 0.4448982
vt 0.6675336 0.615285
vt 0.6619259 0.6208583
vt 0.6512398 0.6797348
vt 0.6580402 0.6754339
vt 0.6580056 0.7115751
vt 0.6614532 0.7037576
vt 0.678555 0.7539238
vt 0.6835015 0.7427402
vt 0.7067562 0.7809152
vt 0.7079174 0.7771766
vt 0.7436581 0.8025827
vt 0.7448736 0.7969651
vt 0.7817399 0.7990201
vt 0.7033825 0.6015822
vt 0.7134752 0.6454092
vt 0.7217941 0.6898517
vt 0.7412414 0.7298113
vt 0.7643806 0.7638415
vt 0.692308 0.5600381
vt 0.6776477 0.5816163
vt 0.7050408 0.5332986
vt 0.7360534 0.5618594
vt 0.7547837 0.6224453
vt 0.7690822 0.6739999
vt 0.7825015 0.7937968
vt 0.7870544 0.7199429
vt 0.8063825 0.7522453
vt 0.8207322 0.7788768
vt 0.8198574 0.7893009
vt 0.7805552 0.8016977
vt 0.8587069 0.8025827
vt 0.8569198 0.7908422
vt 0.9011781 0.7931136
vt 0.8480377 0.7491661
vt 0.8342419 0.7072556
vt 0.8155245 0.6614351
vt 0.8987503 0.7854279
vt 0.9349159 0.7679073
vt 0.8878722 0.7350714
vt 0.8774921 0.6913311
vt 0.9312294 0.7588406
vt 0.9632043 0.7354616
vt 0.9246588 0.7141917
vt 0.9578606 0.7277064
vt 0.9801325 0.6937951
vt 0.9762307 0.6848782
vt 0.9738735 0.645946
vt 0.9218605 0.6731716
vt 0.9220943 0.6267982
vt 0.8598355 0.6468511
vt 0.976469 0.6269791
vt 0.9795182 0.6326386
vt 0.9776487 0.6525089
vt 0.9786134 0.6081114
vt 0.9764749 0.5734708
vt 0.9061002 0.5877034
vt 0.8470456 0.5950019
vt 0.7987335 0.6016068
vt 0.7767915 0.548776
vt 0.8285807 0.5446546
vt 0.876942 0.5572401
vt 0.9209127 0.5411869
vt 0.7597036 0.5072625
vt 0.808122 0.4977918
vt 0.7602822 0.4724289
vt 0.7156246 0.4980648
vt 0.7628335 0.4667362
vt 0.8130941 0.464634
vt 0.8167575 0.4585045
vt 0.848358 0.5128054
vt 0.8558803 0.4834478
vt 0.8623157 0.4635367
vt 0.8874222 0.5182121
vt 0.8982686 0.4959268
vt 0.9080278 0.4830883
vt 0.9393664 0.5062996
vt 0.9697719 0.5365973
vt 0.05056584 0.01136853
vt 0.0799678 0.01006333
vt 0.08708622 0.004561595
vt 0.04127159 0.01763954
vt 0.05776156 0.05331644
vt 0.08822813 0.04707127
vt 0.09754796 0.00805725
vt 0.02762884 0.05815247
vt 0.009260937 0.02305275
vt 0.009164413 0.01933766
vt 0.04459565 0.0959356
vt 0.07119165 0.09322519
vt 0.08014346 0.1628895
vt 0.1018478 0.0903338
vt 0.1054369 0.04503615
vt 0.1007595 0.1610543
vt 0.1151095 0.008727981
vt 0.1204356 0.00512843
vt 0.1035737 0.002845363
vt 0.158583 0.0111952
vt 0.1532011 0.002531635
vt 0.1898686 0.001230144
vt 0.118629 0.04661225
vt 0.1340988 0.08873441
vt 0.1545179 0.04684635
vt 0.1245794 0.1594252
vt 0.1882177 0.01763574
vt 0.1745981 0.08784219
vt 0.1804475 0.05029893
vt 0.2013248 0.007308465
vt 0.2240819 0.01962717
vt 0.2271144 0.007239522
vt 0.2294688 0.0003243424
vt 0.2623913 0.02041488
vt 0.2657588 0.006217346
vt 0.2949204 0.02810836
vt 0.2628907 -1.47366E-08
vt 0.3002381 0.007522925
vt 0.2984295 0.0003781309
vt 0.1493539 0.1581618
vt 0.1385181 0.2173498
vt 0.1174809 0.2186319
vt 0.0985729 0.2201389
vt 0.08269294 0.2219714
vt 0.06375632 0.1648239
vt 0.08874767 0.2682349
vt 0.1053311 0.2666664
vt 0.09034656 0.3112237
vt 0.125469 0.2651899
vt 0.1108714 0.3113987
vt 0.1599282 0.2164075
vt 0.1473337 0.2639726
vt 0.1356989 0.3124658
vt 0.1723085 0.1574512
vt 0.08442242 0.3689551
vt 0.0588641 0.3715903
vt 0.07674499 0.3080681
vt 0.1147346 0.3666005
vt 0.07462653 0.3917754
vt 0.1605899 0.308507
vt 0.1688511 0.2629687
vt 0.1796124 0.2158806
vt 0.1905924 0.1631473
vt 0.1960521 0.2261025
vt 0.1889832 0.2603557
vt 0.1953536 0.09134331
vt 0.2120581 0.05102196
vt 0.2183167 0.1621576
vt 0.221707 0.09235275
vt 0.2400334 0.05360409
vt 0.2445198 0.09301733
vt 0.2665028 0.05514888
vt 0.2647881 0.09359837
vt 0.2378323 0.1618538
vt 0.2517826 0.1625
vt 0.2252841 0.2154291
vt 0.2375135 0.2157154
vt 0.2394629 0.2506537
vt 0.2369452 0.2538042
vt 0.2190909 0.2604306
vt 0.211705 0.2548613
vt 0.2122442 0.2623
vt 0.2026192 0.262491
vt 0.2300668 0.3107311
vt 0.2082777 0.3099546
vt 0.2356477 0.3507152
vt 0.2561065 0.3522632
vt 0.2093459 0.3499634
vt 0.1872337 0.3071449
vt 0.1794613 0.359298
vt 0.2124918 0.3526355
vt 0.1817226 0.3638179
vt 0.1553118 0.375921
vt 0.1589665 0.41013
vt 0.2005301 0.408709
vt 0.1887752 0.3707291
vt 0.1162098 0.4123821
vt 0.1684698 0.4400467
vt 0.1185518 0.4425463
vt 0.2578203 0.4063043
vt 0.2142442 0.4385403
vt 0.2421968 0.3600938
vt 0.2401003 0.3578766
vt 0.2902083 0.4064249
vt 0.2798312 0.3615488
vt 0.2723544 0.4349568
vt 0.3002381 0.4318225
vt 0.2979442 0.4430432
vt 0.2713699 0.4439196
vt 0.215992 0.4454312
vt 0.1653015 0.4486032
vt 0.117138 0.4517408
vt 0.1156237 0.4559878
vt 0.1593783 0.454114
vt 0.07605225 0.4591954
vt 0.07347476 0.4544256
vt 0.07191873 0.4459915
vt 0.03185898 0.4498927
vt 0.03470656 0.4563767
vt -5.065811E-09 0.4538767
vt 0.002199417 0.4603049
vt 0.0763752 0.4153177
vt 0.04322417 0.4185858
vt 0.04527182 0.3947265
vt 0.4595182 0.4644341
vt 0.415797 0.4679655
vt 0.3790612 0.4919386
vt 0.4344905 0.5157722
vt 0.3546079 0.5270463
vt 0.3763372 0.4890869
vt 0.34155 0.5207315
vt 0.3417727 0.5753654
vt 0.3142982 0.56198
vt 0.306661 0.5847546
vt 0.403197 0.5511465
vt 0.3289196 0.6134929
vt 0.3005994 0.59193
vt 0.3002381 0.60824
vt 0.3778725 0.5931559
vt 0.3187633 0.6547794
vt 0.3072795 0.6594577
vt 0.3602363 0.638921
vt 0.3527843 0.6854233
vt 0.3403748 0.7003761
vt 0.3470468 0.7351835
vt 0.3327934 0.7075812
vt 0.3268545 0.7418711
vt 0.328966 0.7493286
vt 0.3788057 0.7593715
vt 0.3590609 0.7824028
vt 0.3880134 0.7154215
vt 0.404079 0.6668077
vt 0.4258925 0.6168138
vt 0.412286 0.7816491
vt 0.3991346 0.8090119
vt 0.4321894 0.7412588
vt 0.4553432 0.694151
vt 0.4503826 0.7944882
vt 0.4448747 0.8243843
vt 0.4796057 0.7603581
vt 0.4911813 0.8072121
vt 0.4974684 0.810688
vt 0.5256529 0.7707628
vt 0.5082517 0.7179164
vt 0.4801452 0.6434803
vt 0.571614 0.7796493
vt 0.5348853 0.8036358
vt 0.5421973 0.8239814
vt 0.5857173 0.79992
vt 0.5960708 0.7445566
vt 0.6192385 0.764148
vt 0.556962 0.7354376
vt 0.6158272 0.7115592
vt 0.6336825 0.721991
vt 0.5822717 0.6934379
vt 0.6270099 0.6801708
vt 0.6430065 0.6874433
vt 0.5343563 0.6700278
vt 0.5993717 0.6476117
vt 0.6363491 0.6404544
vt 0.6512399 0.6373175
vt 0.5561506 0.6199754
vt 0.6090309 0.6001968
vt 0.643845 0.5897272
vt 0.5049216 0.5927309
vt 0.6244779 0.5380015
vt 0.6512399 0.5749228
vt 0.6333473 0.5329922
vt 0.5736757 0.5681338
vt 0.596715 0.4974056
vt 0.6044729 0.4978247
vt 0.4519779 0.5688666
vt 0.5294841 0.5424097
vt 0.5687051 0.4762821
vt 0.5737116 0.4696279
vt 0.480576 0.5262825
vt 0.5179704 0.4776713
vt 0.5167855 0.4623157
vt 0.4649771 0.4585046
vt 0.7881884 0.4447875
vt 0.8036999 0.4429959
vt 0.8040559 0.4408635
vt 0.7885286 0.4361042
vt 0.8090834 0.4381871
vt 0.7364661 0.4356017
vt 0.7371587 0.4441393
vt 0.8096237 0.4065899
vt 0.829226 0.4387856
vt 0.8282974 0.4453225
vt 0.808764 0.4447744
vt 0.7741897 0.4055335
vt 0.8031554 0.3904385
vt 0.8300894 0.3835621
vt 0.8372356 0.4078408
vt 0.7819597 0.3586719
vt 0.7289037 0.402168
vt 0.6810817 0.4362673
vt 0.7509089 0.357652
vt 0.6836438 0.4462282
vt 0.6881822 0.4570843
vt 0.7381139 0.4570091
vt 0.6526541 0.4413153
vt 0.6431933 0.4351617
vt 0.6448877 0.4427253
vt 0.6780218 0.4047714
vt 0.7143523 0.3528803
vt 0.60278 0.4374532
vt 0.6044517 0.4422635
vt 0.6337156 0.4048705
vt 0.6104083 0.4080862
vt 0.6446796 0.4050456
vt 0.6461352 0.3459919
vt 0.6277029 0.3415362
vt 0.6512924 0.3471118
vt 0.6549594 0.2983027
vt 0.6801829 0.3529343
vt 0.6807659 0.2946405
vt 0.7130753 0.2928484
vt 0.7313427 0.2914202
vt 0.753646 0.2937995
vt 0.7671262 0.2943338
vt 0.8049867 0.3594886
vt 0.7605238 0.2518843
vt 0.7765893 0.2563155
vt 0.7870547 0.3003082
vt 0.7674052 0.2087768
vt 0.7423018 0.2478528
vt 0.7503017 0.2084941
vt 0.7719547 0.1504071
vt 0.7111897 0.2864155
vt 0.7180945 0.248095
vt 0.7289678 0.2083375
vt 0.6799764 0.2872362
vt 0.6804495 0.2928488
vt 0.6999491 0.2480672
vt 0.6589745 0.2880553
vt 0.6592443 0.2949454
vt 0.6766202 0.2474271
vt 0.6573819 0.2473927
vt 0.7069439 0.2063188
vt 0.7507154 0.1500716
vt 0.671907 0.2066025
vt 0.654057 0.2066213
vt 0.6916758 0.206379
vt 0.7221797 0.149721
vt 0.6580804 0.1483179
vt 0.6364054 0.1429499
vt 0.6778159 0.1480981
vt 0.6953956 0.1479484
vt 0.6584684 0.07962913
vt 0.6291685 0.07942236
vt 0.6888539 0.0787972
vt 0.719894 0.08153738
vt 0.7567608 0.08136313
vt 0.6485437 0.0391873
vt 0.6167967 0.03896995
vt 0.6838796 0.0381528
vt 0.7147164 0.04124816
vt 0.63942 0.003599781
vt 0.60278 0.003033114
vt 0.6032892 0.000151118
vt 0.6411758 6.433291E-09
vt 0.6805102 0.001501068
vt 0.7533329 0.04231926
vt 0.7158768 0.008449045
vt 0.7152953 0.003091919
vt 0.7588066 0.003112081
vt 0.7585313 0.008343226
vt 0.7974189 0.003958564
vt 0.7878355 0.0432145
vt 0.7966747 0.007961533
vt 0.832384 0.005344201
vt 0.8318422 0.009021766
vt 0.8159252 0.04434931
vt 0.7861875 0.08208318
vt 0.8099902 0.08307409
vt 0.7872665 0.1511434
vt 0.0518887 0.781746
vt 0.09562255 0.7803608
vt 0.08873291 0.7611853
vt 0.04449521 0.769919
vt 0.04306681 0.7624446
vt 0.08624928 0.7516201
vt 0.1417214 0.7656113
vt 6.401805E-09 0.76621
vt 0.000602567 0.7708827
vt 0.04611778 0.725638
vt 0.008162581 0.7306278
vt 0.1409559 0.7615202
vt 0.1871637 0.7635005
vt 0.08164608 0.7184793
vt 0.04926909 0.6820409
vt 0.02075784 0.6828797
vt 0.1876368 0.7586684
vt 0.2267551 0.7613348
vt 0.2273264 0.7565928
vt 0.2099786 0.7270918
vt 0.1739697 0.7236118
vt 0.1661716 0.6602793
vt 0.1247758 0.7242569
vt 0.07686835 0.6708374
vt 0.05081058 0.6228498
vt 0.03168901 0.6232725
vt 0.133866 0.660892
vt 0.1073833 0.6626816
vt 0.07079338 0.6194654
vt 0.09708636 0.6188149
vt 0.1273305 0.6196792
vt 0.1503352 0.6155512
vt 0.1882048 0.6637619
vt 0.1718736 0.6158947
vt 0.06522677 0.5687938
vt 0.04615371 0.5693986
vt 0.09642429 0.6155949
vt 0.1219375 0.6153708
vt 0.08663758 0.5679972
vt 0.05828093 0.5280858
vt 0.04061589 0.5286107
vt 0.12049 0.6100898
vt 0.1408395 0.6144364
vt 0.07867396 0.5273593
vt 0.1086977 0.5670695
vt 0.1376785 0.6042443
vt 0.162576 0.6124473
vt 0.1603834 0.6055942
vt 0.1474435 0.5651501
vt 0.1291711 0.5661093
vt 0.1390069 0.5246283
vt 0.1204474 0.5255669
vt 0.1349758 0.4617809
vt 0.1116466 0.4603049
vt 0.1001068 0.5264893
vt 0.08771504 0.460326
vt 0.0636868 0.4633182
vt 0.03593895 0.4603049
vt 0.2848968 0.6744254
vt 0.2744087 0.6569418
vt 0.2607829 0.6791598
vt 0.2882365 0.6511749
vt 0.2910612 0.6266409
vt 0.2747398 0.6325834
vt 0.284935 0.6042013
vt 0.2875769 0.604713
vt 0.2932807 0.6256126
vt 0.266645 0.6029029
vt 0.2722463 0.6350308
vt 0.2641585 0.6051521
vt 0.2607829 0.5967158
vt 0.1791225 0.7951615
vt 0.2408999 0.8283623
vt 0.2462311 0.8086053
vt 0.1790784 0.824313
vt 0.1397694 0.7817461
vt 0.2261949 0.8544384
vt 0.1396928 0.8146228
vt 0.104409 0.781841
vt 0.1788564 0.8563103
vt 0.2311838 0.8804155
vt 0.1784635 0.8899624
vt 0.2307906 0.9066344
vt 0.1394268 0.8504843
vt 0.1050289 0.817739
vt 0.1779333 0.9223993
vt 0.2262201 0.9325471
vt 0.1772796 0.9518486
vt 0.1014501 0.8200886
vt 0.1014501 0.7831061
vt 0.1037533 0.8575308
vt 0.1389667 0.8874657
vt 0.1383639 0.9226957
vt 0.1390058 0.959318
vt 0.1073383 0.9346
vt 0.1072735 0.8568843
vt 0.1098706 0.9016878
vt 0.1044027 0.9045662
vt 0.1038171 0.9356392
vt 0.10145 0.9996453
vt 0.07314089 0.985691
vt 0.06141447 1
vt 0.03346757 0.9713896
vt 0.03081881 0.9749813
vt 0.05388206 0.957662
vt 0.02159233 0.92866
vt 0.01698858 0.9302241
vt 0.01044523 0.8992134
vt 0.004238447 0.9011543
vt 0.04233605 0.922637
vt 0.006424096 0.857402
vt -7.560412E-09 0.8572618
vt 0.04567073 0.9208947
vt 0.05659296 0.9547131
vt 0.04345598 0.8888553
vt 0.03977973 0.890389
vt 0.04929774 0.8572415
vt 0.04561373 0.857512
vt 0.06329866 0.8282829
vt 0.05959167 0.8276325
vt 0.02455219 0.8201316
vt 0.02208512 0.8196374
vt 0.06766844 0.7903205
vt 0.08149756 0.8020156
vt 0.10145 0.7817461
vt 0.2885174 0.4608823
vt 0.2681692 0.4603049
vt 0.2711706 0.5182843
vt 0.2926761 0.5215008
vt 0.2681692 0.5462087
vt 0.2876422 0.560959
vt 0.2905575 0.5513567
vt 0.884308 0.02513725
vt 0.856836 -1.065218E-08
vt 0.8372356 0.01838199
vt 0.8568854 0.0500643
vt 0.9082892 0.06320057
vt 0.8724606 0.08158764
vt 0.9220117 0.1082824
vt 0.8845494 0.1169801
vt 0.9239856 0.1500739
vt 0.8828378 0.1531264
vt 0.9121341 0.1982673
vt 0.8717183 0.1896882
vt 0.8815505 0.2451401
vt 0.860008 0.2116731
vt 0.8645552 0.2606867
vt 0.8372356 0.2243921
vt 0.2919042 0.7165476
vt 0.2607829 0.7550573
vt 0.2890823 0.7574605
vt 0.2650242 0.7225246
vt 0.2869049 0.6791598
vt 0.2607829 0.689849
vt 0.2568662 0.5787668
vt 0.242382 0.5772026
vt 0.2273264 0.5967158
vt 0.2648399 0.5541463
vt 0.2510537 0.5548798
vt 0.2681692 0.5276213
vt 0.2539625 0.5304335
vt 0.2660398 0.4995224
vt 0.2553323 0.5017747
vt 0.252942 0.4776539
vt 0.2425548 0.4814792
vt 0.2273264 0.4603049
vt 0.228515 0.720947
vt 0.2273264 0.762836
vt 0.2525861 0.7627649
vt 0.2525861 0.7142522
vt 0.2989509 0.4603049
vt 0.2928853 0.4617055
vt 0.2926761 0.4638923
vt 0.2989509 0.4671865
vt 0.2366767 0.6147569
vt 0.2607829 0.5967157
vt 0.2342616 0.6137538
vt 0.2472019 0.6179002
vt 0.2318689 0.6421641
vt 0.242931 0.6391941
vt 0.2357005 0.6406953
vt 0.2273263 0.6666719
vt 0.2387548 0.6643386
vt 0.2317651 0.6654024
vt 0.2366007 0.6914489
vt 0.2423376 0.6873312
vt 0.238362 0.6899279
vt 0.2607828 0.7142521
usemtl MV_RockDesert_Cliff
f 1/1/1 3/3/3 2/2/2
f 1/1/1 2/2/2 4/4/4
f 5/5/5 1/1/1 4/4/4
f 5/5/5 4/4/4 6/6/6
f 7/7/7 5/5/5 6/6/6
f 2/2/2 8/8/8 4/4/4
f 4/4/4 8/8/8 6/6/6
f 7/7/7 6/6/6 9/9/9
f 7/7/7 9/9/9 10/10/10
f 11/11/11 10/10/10 9/9/9
f 12/12/12 10/10/10 11/11/11
f 9/9/9 13/13/13 11/11/11
f 6/6/6 14/14/14 9/9/9
f 12/12/12 11/11/11 15/15/15
f 13/13/13 15/15/15 11/11/11
f 16/16/16 12/12/12 15/15/15
f 13/13/13 17/17/17 15/15/15
f 16/16/16 15/15/15 18/18/18
f 17/17/17 18/18/18 15/15/15
f 19/19/19 16/16/16 18/18/18
f 17/17/17 20/20/20 18/18/18
f 19/19/19 18/18/18 21/21/21
f 20/20/20 21/21/21 18/18/18
f 20/20/20 22/22/22 21/21/21
f 6/6/6 23/23/23 14/14/14
f 6/6/6 24/24/24 23/23/23
f 6/6/6 8/8/8 24/24/24
f 23/23/23 25/25/25 14/14/14
f 24/24/24 26/26/26 23/23/23
f 23/23/23 26/26/26 25/25/25
f 14/14/14 25/25/25 27/27/27
f 14/14/14 27/27/27 28/28/28
f 28/28/28 27/27/27 29/29/29
f 28/28/28 29/29/29 30/30/30
f 30/30/30 29/29/29 31/31/31
f 30/30/30 31/31/31 32/32/32
f 32/32/32 31/31/31 33/33/33
f 32/32/32 33/33/33 34/34/34
f 31/31/31 35/35/35 33/33/33
f 29/29/29 36/36/36 31/31/31
f 31/31/31 36/36/36 35/35/35
f 27/27/27 37/37/37 29/29/29
f 29/29/29 37/37/37 36/36/36
f 25/25/25 38/38/38 27/27/27
f 27/27/27 38/38/38 37/37/37
f 25/25/25 39/39/39 38/38/38
f 26/26/26 39/39/39 25/25/25
f 38/38/38 40/40/40 37/37/37
f 37/37/37 40/40/40 41/41/41
f 37/37/37 41/41/41 36/36/36
f 42/42/42 41/41/41 40/40/40
f 36/36/36 43/43/43 35/35/35
f 36/36/36 41/41/41 43/43/43
f 42/42/42 44/44/44 41/41/41
f 42/42/42 45/45/45 44/44/44
f 41/41/41 44/44/44 46/46/46
f 45/45/45 46/46/46 44/44/44
f 41/41/41 46/46/46 43/43/43
f 45/45/45 47/47/47 46/46/46
f 43/43/43 46/46/46 48/48/48
f 43/43/43 48/48/48 49/49/49
f 35/35/35 43/43/43 49/49/49
f 35/35/35 49/49/49 50/50/50
f 51/51/51 39/39/39 52/52/52
f 52/52/52 53/53/53 51/51/51
f 54/54/54 52/52/52 39/39/39
f 26/26/26 54/54/54 39/39/39
f 55/55/55 54/54/54 26/26/26
f 24/24/24 55/55/55 26/26/26
f 56/56/56 55/55/55 24/24/24
f 8/8/8 56/56/56 24/24/24
f 8/8/8 57/57/57 56/56/56
f 2/2/2 57/57/57 8/8/8
f 58/58/58 57/57/57 2/2/2
f 58/58/58 59/59/59 57/57/57
f 57/57/57 59/59/59 60/60/60
f 57/57/57 60/60/60 56/56/56
f 56/56/56 61/61/61 55/55/55
f 61/61/61 62/62/62 55/55/55
f 55/55/55 62/62/62 54/54/54
f 61/61/61 63/63/63 62/62/62
f 54/54/54 64/64/64 52/52/52
f 65/65/65 64/64/64 54/54/54
f 64/64/64 66/66/66 52/52/52
f 52/52/52 66/66/66 53/53/53
f 65/65/65 67/67/67 64/64/64
f 68/68/68 67/67/67 65/65/65
f 68/68/68 69/69/69 67/67/67
f 67/67/67 70/70/70 64/64/64
f 64/64/64 70/70/70 66/66/66
f 67/67/67 71/71/71 70/70/70
f 71/71/71 72/72/72 70/70/70
f 71/71/71 73/73/73 72/72/72
f 70/70/70 72/72/72 74/74/74
f 70/70/70 74/74/74 66/66/66
f 75/75/75 53/53/53 66/66/66
f 75/75/75 76/76/76 53/53/53
f 75/75/75 77/77/77 76/76/76
f 72/72/72 78/78/78 74/74/74
f 72/72/72 79/79/79 78/78/78
f 66/66/66 74/74/74 80/80/80
f 66/66/66 80/80/80 75/75/75
f 75/75/75 81/81/81 77/77/77
f 81/81/81 82/82/82 77/77/77
f 81/81/81 83/83/83 82/82/82
f 75/75/75 84/84/84 81/81/81
f 75/75/75 80/80/80 84/84/84
f 74/74/74 85/85/85 80/80/80
f 74/74/74 78/78/78 85/85/85
f 79/79/79 86/86/86 78/78/78
f 79/79/79 87/87/87 86/86/86
f 81/81/81 88/88/88 83/83/83
f 81/81/81 84/84/84 88/88/88
f 80/80/80 89/89/89 84/84/84
f 80/80/80 85/85/85 89/89/89
f 78/78/78 90/90/90 85/85/85
f 78/78/78 86/86/86 90/90/90
f 85/85/85 91/91/91 89/89/89
f 92/92/92 85/85/85 90/90/90
f 84/84/84 89/89/89 93/93/93
f 91/91/91 93/93/93 89/89/89
f 84/84/84 93/93/93 88/88/88
f 91/91/91 94/94/94 93/93/93
f 88/88/88 93/93/93 95/95/95
f 83/83/83 88/88/88 96/96/96
f 88/88/88 95/95/95 96/96/96
f 96/96/96 95/95/95 97/97/97
f 83/83/83 96/96/96 98/98/98
f 96/96/96 97/97/97 99/99/99
f 99/99/99 98/98/98 96/96/96
f 99/99/99 100/100/100 98/98/98
f 92/92/92 90/90/90 101/101/101
f 102/102/102 92/92/92 101/101/101
f 102/102/102 101/101/101 103/103/103
f 104/104/104 102/102/102 103/103/103
f 104/104/104 103/103/103 105/105/105
f 106/106/106 104/104/104 105/105/105
f 106/106/106 105/105/105 107/107/107
f 108/108/108 106/106/106 107/107/107
f 108/108/108 107/107/107 109/109/109
f 107/107/107 110/110/110 109/109/109
f 105/105/105 111/111/111 107/107/107
f 107/107/107 111/111/111 110/110/110
f 103/103/103 112/112/112 105/105/105
f 105/105/105 112/112/112 111/111/111
f 113/113/113 110/110/110 111/111/111
f 113/113/113 114/114/114 110/110/110
f 115/115/115 113/113/113 111/111/111
f 115/115/115 111/111/111 112/112/112
f 101/101/101 116/116/116 103/103/103
f 103/103/103 116/116/116 112/112/112
f 117/117/117 115/115/115 112/112/112
f 117/117/117 112/112/112 116/116/116
f 118/118/118 115/115/115 117/117/117
f 118/118/118 117/117/117 119/119/119
f 120/120/120 117/117/117 116/116/116
f 101/101/101 121/121/121 116/116/116
f 120/120/120 116/116/116 121/121/121
f 90/90/90 121/121/121 101/101/101
f 122/122/122 120/120/120 121/121/121
f 90/90/90 123/123/123 121/121/121
f 122/122/122 121/121/121 123/123/123
f 86/86/86 123/123/123 90/90/90
f 124/124/124 122/122/122 123/123/123
f 86/86/86 125/125/125 123/123/123
f 124/124/124 123/123/123 125/125/125
f 87/87/87 125/125/125 86/86/86
f 126/126/126 124/124/124 125/125/125
f 87/87/87 127/127/127 125/125/125
f 126/126/126 125/125/125 127/127/127
f 128/128/128 130/130/130 129/129/129
f 128/128/128 131/131/131 130/130/130
f 131/131/131 132/132/132 130/130/130
f 131/131/131 133/133/133 132/132/132
f 133/133/133 134/134/134 132/132/132
f 133/133/133 135/135/135 134/134/134
f 135/135/135 136/136/136 134/134/134
f 135/135/135 137/137/137 136/136/136
f 137/137/137 138/138/138 136/136/136
f 137/137/137 139/139/139 138/138/138
f 139/139/139 140/140/140 138/138/138
f 141/141/141 131/131/131 128/128/128
f 142/142/142 133/133/133 131/131/131
f 141/141/141 142/142/142 131/131/131
f 143/143/143 135/135/135 133/133/133
f 142/142/142 143/143/143 133/133/133
f 144/144/144 137/137/137 135/135/135
f 143/143/143 144/144/144 135/135/135
f 145/145/145 139/139/139 137/137/137
f 144/144/144 145/145/145 137/137/137
f 146/146/146 141/141/141 128/128/128
f 146/146/146 128/128/128 147/147/147
f 148/148/148 141/141/141 146/146/146
f 149/149/149 142/142/142 141/141/141
f 148/148/148 149/149/149 141/141/141
f 150/150/150 143/143/143 142/142/142
f 149/149/149 150/150/150 142/142/142
f 151/151/151 144/144/144 143/143/143
f 150/150/150 151/151/151 143/143/143
f 145/145/145 152/152/152 139/139/139
f 139/139/139 152/152/152 140/140/140
f 153/153/153 145/145/145 144/144/144
f 151/151/151 153/153/153 144/144/144
f 154/154/154 152/152/152 145/145/145
f 153/153/153 154/154/154 145/145/145
f 152/152/152 155/155/155 140/140/140
f 154/154/154 155/155/155 152/152/152
f 140/140/140 155/155/155 156/156/156
f 140/140/140 156/156/156 157/157/157
f 155/155/155 158/158/158 156/156/156
f 155/155/155 159/159/159 158/158/158
f 159/159/159 160/160/160 158/158/158
f 161/161/161 155/155/155 154/154/154
f 161/161/161 159/159/159 155/155/155
f 162/162/162 154/154/154 153/153/153
f 162/162/162 161/161/161 154/154/154
f 163/163/163 153/153/153 151/151/151
f 163/163/163 162/162/162 153/153/153
f 159/159/159 164/164/164 160/160/160
f 164/164/164 165/165/165 160/160/160
f 166/166/166 159/159/159 161/161/161
f 166/166/166 164/164/164 159/159/159
f 167/167/167 161/161/161 162/162/162
f 167/167/167 166/166/166 161/161/161
f 164/164/164 168/168/168 165/165/165
f 168/168/168 169/169/169 165/165/165
f 170/170/170 164/164/164 166/166/166
f 170/170/170 168/168/168 164/164/164
f 168/168/168 171/171/171 169/169/169
f 171/171/171 172/172/172 169/169/169
f 171/171/171 173/173/173 172/172/172
f 173/173/173 171/171/171 168/168/168
f 173/173/173 168/168/168 170/170/170
f 174/174/174 173/173/173 170/170/170
f 175/175/175 170/170/170 166/166/166
f 175/175/175 166/166/166 167/167/167
f 174/174/174 170/170/170 175/175/175
f 176/176/176 175/175/175 167/167/167
f 176/176/176 174/174/174 175/175/175
f 177/177/177 167/167/167 162/162/162
f 176/176/176 167/167/167 177/177/177
f 177/177/177 162/162/162 163/163/163
f 176/176/176 178/178/178 174/174/174
f 174/174/174 178/178/178 179/179/179
f 174/174/174 179/179/179 180/180/180
f 181/181/181 178/178/178 176/176/176
f 182/182/182 181/181/181 176/176/176
f 183/183/183 176/176/176 177/177/177
f 182/182/182 176/176/176 183/183/183
f 184/184/184 177/177/177 163/163/163
f 183/183/183 177/177/177 184/184/184
f 184/184/184 163/163/163 185/185/185
f 185/185/185 163/163/163 151/151/151
f 185/185/185 151/151/151 150/150/150
f 186/186/186 185/185/185 150/150/150
f 186/186/186 150/150/150 149/149/149
f 187/187/187 184/184/184 185/185/185
f 187/187/187 185/185/185 186/186/186
f 188/188/188 183/183/183 184/184/184
f 188/188/188 184/184/184 187/187/187
f 189/189/189 182/182/182 183/183/183
f 189/189/189 183/183/183 188/188/188
f 190/190/190 186/186/186 149/149/149
f 190/190/190 149/149/149 148/148/148
f 191/191/191 187/187/187 186/186/186
f 191/191/191 186/186/186 190/190/190
f 190/190/190 148/148/148 192/192/192
f 191/191/191 190/190/190 192/192/192
f 192/192/192 148/148/148 193/193/193
f 192/192/192 193/193/193 194/194/194
f 195/195/195 192/192/192 194/194/194
f 191/191/191 192/192/192 195/195/195
f 195/195/195 194/194/194 196/196/196
f 197/197/197 187/187/187 191/191/191
f 197/197/197 188/188/188 187/187/187
f 197/197/197 191/191/191 195/195/195
f 198/198/198 195/195/195 196/196/196
f 197/197/197 195/195/195 198/198/198
f 198/198/198 196/196/196 199/199/199
f 200/200/200 188/188/188 197/197/197
f 200/200/200 197/197/197 198/198/198
f 200/200/200 189/189/189 188/188/188
f 201/201/201 198/198/198 199/199/199
f 200/200/200 198/198/198 201/201/201
f 201/201/201 189/189/189 200/200/200
f 201/201/201 199/199/199 202/202/202
f 189/189/189 201/201/201 202/202/202
f 189/189/189 202/202/202 203/203/203
f 182/182/182 189/189/189 203/203/203
f 182/182/182 203/203/203 204/204/204
f 205/205/205 207/207/207 206/206/206
f 205/205/205 206/206/206 208/208/208
f 206/206/206 209/209/209 208/208/208
f 206/206/206 210/210/210 209/209/209
f 211/211/211 210/210/210 206/206/206
f 208/208/208 209/209/209 212/212/212
f 208/208/208 212/212/212 213/213/213
f 213/213/213 214/214/214 208/208/208
f 209/209/209 215/215/215 212/212/212
f 209/209/209 216/216/216 215/215/215
f 210/210/210 216/216/216 209/209/209
f 216/216/216 217/217/217 215/215/215
f 210/210/210 218/218/218 216/216/216
f 211/211/211 219/219/219 210/210/210
f 219/219/219 218/218/218 210/210/210
f 216/216/216 220/220/220 217/217/217
f 218/218/218 220/220/220 216/216/216
f 221/221/221 219/219/219 211/211/211
f 211/211/211 222/222/222 221/221/221
f 211/211/211 223/223/223 222/222/222
f 222/222/222 224/224/224 221/221/221
f 222/222/222 225/225/225 224/224/224
f 224/224/224 225/225/225 226/226/226
f 221/221/221 227/227/227 219/219/219
f 224/224/224 227/227/227 221/221/221
f 219/219/219 228/228/228 218/218/218
f 227/227/227 228/228/228 219/219/219
f 224/224/224 229/229/229 227/227/227
f 229/229/229 228/228/228 227/227/227
f 218/218/218 230/230/230 220/220/220
f 228/228/228 230/230/230 218/218/218
f 231/231/231 224/224/224 226/226/226
f 229/229/229 224/224/224 231/231/231
f 229/229/229 232/232/232 228/228/228
f 229/229/229 231/231/231 233/233/233
f 232/232/232 229/229/229 233/233/233
f 231/231/231 226/226/226 234/234/234
f 235/235/235 231/231/231 234/234/234
f 226/226/226 236/236/236 234/234/234
f 235/235/235 234/234/234 236/236/236
f 226/226/226 237/237/237 236/236/236
f 238/238/238 235/235/235 236/236/236
f 237/237/237 239/239/239 236/236/236
f 238/238/238 236/236/236 239/239/239
f 240/240/240 238/238/238 239/239/239
f 237/237/237 241/241/241 239/239/239
f 240/240/240 239/239/239 242/242/242
f 241/241/241 242/242/242 239/239/239
f 241/241/241 243/243/243 242/242/242
f 232/232/232 244/244/244 228/228/228
f 228/228/228 244/244/244 230/230/230
f 244/244/244 245/245/245 230/230/230
f 230/230/230 245/245/245 246/246/246
f 230/230/230 246/246/246 220/220/220
f 220/220/220 246/246/246 247/247/247
f 220/220/220 247/247/247 217/217/217
f 217/217/217 247/247/247 248/248/248
f 217/217/217 248/248/248 249/249/249
f 247/247/247 250/250/250 248/248/248
f 247/247/247 251/251/251 250/250/250
f 246/246/246 251/251/251 247/247/247
f 251/251/251 252/252/252 250/250/250
f 246/246/246 253/253/253 251/251/251
f 245/245/245 253/253/253 246/246/246
f 251/251/251 254/254/254 252/252/252
f 253/253/253 254/254/254 251/251/251
f 244/244/244 255/255/255 245/245/245
f 245/245/245 256/256/256 253/253/253
f 255/255/255 256/256/256 245/245/245
f 253/253/253 257/257/257 254/254/254
f 256/256/256 257/257/257 253/253/253
f 258/258/258 255/255/255 244/244/244
f 232/232/232 258/258/258 244/244/244
f 254/254/254 259/259/259 252/252/252
f 252/252/252 259/259/259 260/260/260
f 252/252/252 260/260/260 261/261/261
f 254/254/254 262/262/262 259/259/259
f 257/257/257 262/262/262 254/254/254
f 263/263/263 259/259/259 262/262/262
f 256/256/256 264/264/264 257/257/257
f 255/255/255 265/265/265 256/256/256
f 265/265/265 264/264/264 256/256/256
f 258/258/258 266/266/266 255/255/255
f 266/266/266 265/265/265 255/255/255
f 232/232/232 267/267/267 258/258/258
f 267/267/267 266/266/266 258/258/258
f 267/267/267 268/268/268 266/266/266
f 266/266/266 269/269/269 265/265/265
f 269/269/269 266/266/266 268/268/268
f 267/267/267 232/232/232 270/270/270
f 232/232/232 233/233/233 270/270/270
f 271/271/271 270/270/270 233/233/233
f 267/267/267 270/270/270 272/272/272
f 268/268/268 267/267/267 272/272/272
f 271/271/271 273/273/273 270/270/270
f 273/273/273 272/272/272 270/270/270
f 274/274/274 273/273/273 271/271/271
f 274/274/274 275/275/275 273/273/273
f 275/275/275 272/272/272 273/273/273
f 276/276/276 275/275/275 274/274/274
f 276/276/276 277/277/277 275/275/275
f 277/277/277 278/278/278 275/275/275
f 275/275/275 278/278/278 272/272/272
f 277/277/277 279/279/279 278/278/278
f 278/278/278 280/280/280 272/272/272
f 268/268/268 272/272/272 280/280/280
f 278/278/278 281/281/281 280/280/280
f 281/281/281 282/282/282 280/280/280
f 282/282/282 283/283/283 280/280/280
f 284/284/284 280/280/280 283/283/283
f 280/280/280 284/284/284 268/268/268
f 268/268/268 284/284/284 285/285/285
f 286/286/286 285/285/285 284/284/284
f 285/285/285 287/287/287 268/268/268
f 287/287/287 285/285/285 286/286/286
f 269/269/269 268/268/268 287/287/287
f 287/287/287 286/286/286 288/288/288
f 269/269/269 287/287/287 288/288/288
f 269/269/269 288/288/288 289/289/289
f 288/288/288 290/290/290 289/289/289
f 288/288/288 291/291/291 290/290/290
f 289/289/289 290/290/290 292/292/292
f 269/269/269 289/289/289 293/293/293
f 289/289/289 292/292/292 293/293/293
f 269/269/269 293/293/293 265/265/265
f 265/265/265 293/293/293 264/264/264
f 293/293/293 292/292/292 294/294/294
f 293/293/293 294/294/294 264/264/264
f 295/295/295 294/294/294 292/292/292
f 295/295/295 296/296/296 294/294/294
f 296/296/296 297/297/297 294/294/294
f 264/264/264 294/294/294 297/297/297
f 264/264/264 297/297/297 257/257/257
f 257/257/257 297/297/297 262/262/262
f 298/298/298 262/262/262 297/297/297
f 297/297/297 299/299/299 298/298/298
f 297/297/297 300/300/300 299/299/299
f 298/298/298 301/301/301 262/262/262
f 263/263/263 262/262/262 301/301/301
f 299/299/299 302/302/302 298/298/298
f 298/298/298 303/303/303 301/301/301
f 298/298/298 302/302/302 303/303/303
f 300/300/300 304/304/304 299/299/299
f 299/299/299 305/305/305 302/302/302
f 304/304/304 305/305/305 299/299/299
f 300/300/300 306/306/306 304/304/304
f 307/307/307 306/306/306 300/300/300
f 306/306/306 308/308/308 304/304/304
f 306/306/306 309/309/309 308/308/308
f 308/308/308 310/310/310 304/304/304
f 304/304/304 310/310/310 305/305/305
f 308/308/308 311/311/311 310/310/310
f 312/312/312 310/310/310 311/311/311
f 312/312/312 313/313/313 310/310/310
f 313/313/313 305/305/305 310/310/310
f 313/313/313 314/314/314 305/305/305
f 314/314/314 302/302/302 305/305/305
f 314/314/314 315/315/315 302/302/302
f 315/315/315 303/303/303 302/302/302
f 315/315/315 316/316/316 303/303/303
f 317/317/317 316/316/316 315/315/315
f 317/317/317 315/315/315 318/318/318
f 319/319/319 316/316/316 317/317/317
f 319/319/319 320/320/320 316/316/316
f 316/316/316 321/321/321 303/303/303
f 316/316/316 320/320/320 321/321/321
f 301/301/301 303/303/303 321/321/321
f 320/320/320 322/322/322 321/321/321
f 320/320/320 323/323/323 322/322/322
f 323/323/323 324/324/324 322/322/322
f 323/323/323 325/325/325 324/324/324
f 301/301/301 321/321/321 326/326/326
f 326/326/326 321/321/321 322/322/322
f 301/301/301 326/326/326 263/263/263
f 326/326/326 322/322/322 327/327/327
f 327/327/327 263/263/263 326/326/326
f 327/327/327 328/328/328 263/263/263
f 329/329/329 331/331/331 330/330/330
f 329/329/329 332/332/332 331/331/331
f 332/332/332 333/333/333 331/331/331
f 333/333/333 334/334/334 331/331/331
f 333/333/333 335/335/335 334/334/334
f 336/336/336 335/335/335 333/333/333
f 336/336/336 337/337/337 335/335/335
f 336/336/336 338/338/338 337/337/337
f 332/332/332 339/339/339 333/333/333
f 339/339/339 336/336/336 333/333/333
f 340/340/340 338/338/338 336/336/336
f 338/338/338 340/340/340 341/341/341
f 341/341/341 340/340/340 342/342/342
f 339/339/339 343/343/343 336/336/336
f 343/343/343 340/340/340 336/336/336
f 344/344/344 342/342/342 340/340/340
f 344/344/344 345/345/345 342/342/342
f 346/346/346 344/344/344 340/340/340
f 343/343/343 346/346/346 340/340/340
f 346/346/346 347/347/347 344/344/344
f 347/347/347 348/348/348 344/344/344
f 347/347/347 349/349/349 348/348/348
f 349/349/349 350/350/350 348/348/348
f 350/350/350 349/349/349 351/351/351
f 351/351/351 349/349/349 352/352/352
f 353/353/353 352/352/352 349/349/349
f 353/353/353 354/354/354 352/352/352
f 355/355/355 349/349/349 347/347/347
f 355/355/355 353/353/353 349/349/349
f 356/356/356 347/347/347 346/346/346
f 356/356/356 355/355/355 347/347/347
f 357/357/357 346/346/346 343/343/343
f 357/357/357 356/356/356 346/346/346
f 358/358/358 354/354/354 353/353/353
f 358/358/358 359/359/359 354/354/354
f 360/360/360 353/353/353 355/355/355
f 360/360/360 358/358/358 353/353/353
f 361/361/361 355/355/355 356/356/356
f 361/361/361 360/360/360 355/355/355
f 362/362/362 359/359/359 358/358/358
f 362/362/362 363/363/363 359/359/359
f 364/364/364 358/358/358 360/360/360
f 364/364/364 362/362/362 358/358/358
f 365/365/365 363/363/363 362/362/362
f 365/365/365 366/366/366 363/363/363
f 367/367/367 365/365/365 362/362/362
f 367/367/367 362/362/362 364/364/364
f 368/368/368 364/364/364 360/360/360
f 368/368/368 360/360/360 361/361/361
f 369/369/369 361/361/361 356/356/356
f 369/369/369 356/356/356 357/357/357
f 370/370/370 365/365/365 367/367/367
f 370/370/370 371/371/371 365/365/365
f 370/370/370 372/372/372 371/371/371
f 370/370/370 373/373/373 372/372/372
f 374/374/374 373/373/373 370/370/370
f 374/374/374 370/370/370 367/367/367
f 374/374/374 375/375/375 373/373/373
f 376/376/376 367/367/367 364/364/364
f 374/374/374 367/367/367 376/376/376
f 376/376/376 364/364/364 368/368/368
f 377/377/377 375/375/375 374/374/374
f 377/377/377 374/374/374 376/376/376
f 377/377/377 378/378/378 375/375/375
f 379/379/379 376/376/376 368/368/368
f 377/377/377 376/376/376 379/379/379
f 380/380/380 378/378/378 377/377/377
f 380/380/380 377/377/377 379/379/379
f 380/380/380 381/381/381 378/378/378
f 379/379/379 368/368/368 382/382/382
f 382/382/382 368/368/368 361/361/361
f 382/382/382 361/361/361 369/369/369
f 380/380/380 379/379/379 383/383/383
f 383/383/383 379/379/379 382/382/382
f 384/384/384 381/381/381 380/380/380
f 384/384/384 380/380/380 383/383/383
f 384/384/384 385/385/385 381/381/381
f 386/386/386 382/382/382 369/369/369
f 383/383/383 382/382/382 386/386/386
f 384/384/384 383/383/383 387/387/387
f 387/387/387 383/383/383 386/386/386
f 388/388/388 384/384/384 387/387/387
f 386/386/386 369/369/369 389/389/389
f 389/389/389 369/369/369 357/357/357
f 388/388/388 387/387/387 390/390/390
f 390/390/390 391/391/391 388/388/388
f 390/390/390 392/392/392 391/391/391
f 387/387/387 386/386/386 393/393/393
f 390/390/390 387/387/387 393/393/393
f 393/393/393 386/386/386 389/389/389
f 394/394/394 392/392/392 390/390/390
f 390/390/390 393/393/393 394/394/394
f 394/394/394 395/395/395 392/392/392
f 389/389/389 357/357/357 396/396/396
f 396/396/396 357/357/357 343/343/343
f 396/396/396 343/343/343 339/339/339
f 393/393/393 389/389/389 397/397/397
f 394/394/394 393/393/393 397/397/397
f 397/397/397 389/389/389 396/396/396
f 398/398/398 395/395/395 394/394/394
f 394/394/394 397/397/397 398/398/398
f 398/398/398 399/399/399 395/395/395
f 400/400/400 396/396/396 339/339/339
f 397/397/397 396/396/396 400/400/400
f 398/398/398 397/397/397 400/400/400
f 400/400/400 339/339/339 332/332/332
f 401/401/401 399/399/399 398/398/398
f 398/398/398 400/400/400 401/401/401
f 401/401/401 400/400/400 332/332/332
f 401/401/401 402/402/402 399/399/399
f 401/401/401 332/332/332 329/329/329
f 329/329/329 402/402/402 401/401/401
f 329/329/329 403/403/403 402/402/402
f 404/404/404 406/406/406 405/405/405
f 404/404/404 407/407/407 406/406/406
f 407/407/407 408/408/408 406/406/406
f 404/404/404 409/409/409 407/407/407
f 404/404/404 410/410/410 409/409/409
f 408/408/408 407/407/407 411/411/411
f 408/408/408 411/411/411 412/412/412
f 413/413/413 408/408/408 412/412/412
f 413/413/413 414/414/414 408/408/408
f 415/415/415 407/407/407 409/409/409
f 411/411/411 407/407/407 415/415/415
f 415/415/415 416/416/416 411/411/411
f 411/411/411 416/416/416 417/417/417
f 411/411/411 417/417/417 418/418/418
f 419/419/419 416/416/416 415/415/415
f 415/415/415 409/409/409 420/420/420
f 410/410/410 421/421/421 409/409/409
f 420/420/420 409/409/409 421/421/421
f 419/419/419 415/415/415 422/422/422
f 422/422/422 415/415/415 420/420/420
f 410/410/410 423/423/423 421/421/421
f 424/424/424 423/423/423 410/410/410
f 424/424/424 410/410/410 425/425/425
f 421/421/421 423/423/423 426/426/426
f 427/427/427 421/421/421 426/426/426
f 426/426/426 428/428/428 427/427/427
f 420/420/420 421/421/421 429/429/429
f 421/421/421 427/427/427 429/429/429
f 422/422/422 420/420/420 430/430/430
f 430/430/430 420/420/420 429/429/429
f 428/428/428 431/431/431 427/427/427
f 428/428/428 432/432/432 431/431/431
f 433/433/433 427/427/427 431/431/431
f 433/433/433 431/431/431 434/434/434
f 429/429/429 427/427/427 435/435/435
f 435/435/435 427/427/427 433/433/433
f 436/436/436 433/433/433 434/434/434
f 436/436/436 434/434/434 437/437/437
f 438/438/438 433/433/433 436/436/436
f 438/438/438 435/435/435 433/433/433
f 436/436/436 439/439/439 438/438/438
f 440/440/440 429/429/429 435/435/435
f 440/440/440 435/435/435 438/438/438
f 439/439/439 440/440/440 438/438/438
f 430/430/430 429/429/429 440/440/440
f 439/439/439 441/441/441 440/440/440
f 441/441/441 430/430/430 440/440/440
f 441/441/441 442/442/442 430/430/430
f 443/443/443 430/430/430 442/442/442
f 443/443/443 422/422/422 430/430/430
f 444/444/444 422/422/422 443/443/443
f 444/444/444 419/419/419 422/422/422
f 445/445/445 419/419/419 444/444/444
f 445/445/445 446/446/446 419/419/419
f 447/447/447 445/445/445 444/444/444
f 448/448/448 445/445/445 447/447/447
f 448/448/448 449/449/449 445/445/445
f 450/450/450 448/448/448 447/447/447
f 447/447/447 444/444/444 451/451/451
f 451/451/451 444/444/444 443/443/443
f 450/450/450 447/447/447 452/452/452
f 452/452/452 447/447/447 451/451/451
f 453/453/453 450/450/450 452/452/452
f 454/454/454 443/443/443 442/442/442
f 451/451/451 443/443/443 455/455/455
f 455/455/455 443/443/443 454/454/454
f 452/452/452 451/451/451 456/456/456
f 456/456/456 451/451/451 455/455/455
f 457/457/457 454/454/454 442/442/442
f 457/457/457 442/442/442 458/458/458
f 455/455/455 454/454/454 459/459/459
f 459/459/459 454/454/454 457/457/457
f 460/460/460 457/457/457 458/458/458
f 460/460/460 458/458/458 461/461/461
f 462/462/462 457/457/457 460/460/460
f 459/459/459 457/457/457 462/462/462
f 462/462/462 460/460/460 463/463/463
f 464/464/464 455/455/455 459/459/459
f 456/456/456 455/455/455 464/464/464
f 465/465/465 452/452/452 456/456/456
f 453/453/453 452/452/452 465/465/465
f 466/466/466 462/462/462 463/463/463
f 466/466/466 463/463/463 467/467/467
f 468/468/468 459/459/459 462/462/462
f 464/464/464 459/459/459 468/468/468
f 468/468/468 462/462/462 466/466/466
f 469/469/469 456/456/456 464/464/464
f 465/465/465 456/456/456 469/469/469
f 470/470/470 466/466/466 467/467/467
f 470/470/470 467/467/467 471/471/471
f 472/472/472 468/468/468 466/466/466
f 472/472/472 466/466/466 470/470/470
f 473/473/473 464/464/464 468/468/468
f 469/469/469 464/464/464 473/473/473
f 473/473/473 468/468/468 472/472/472
f 474/474/474 472/472/472 470/470/470
f 474/474/474 470/470/470 475/475/475
f 476/476/476 473/473/473 472/472/472
f 476/476/476 472/472/472 474/474/474
f 477/477/477 469/469/469 473/473/473
f 477/477/477 473/473/473 476/476/476
f 478/478/478 465/465/465 469/469/469
f 478/478/478 469/469/469 477/477/477
f 479/479/479 474/474/474 475/475/475
f 479/479/479 475/475/475 480/480/480
f 481/481/481 476/476/476 474/474/474
f 481/481/481 474/474/474 479/479/479
f 482/482/482 477/477/477 476/476/476
f 482/482/482 476/476/476 481/481/481
f 483/483/483 479/479/479 480/480/480
f 483/483/483 480/480/480 484/484/484
f 485/485/485 483/483/483 484/484/484
f 485/485/485 486/486/486 483/483/483
f 487/487/487 479/479/479 483/483/483
f 487/487/487 481/481/481 479/479/479
f 487/487/487 482/482/482 481/481/481
f 488/488/488 477/477/477 482/482/482
f 488/488/488 478/478/478 477/477/477
f 487/487/487 489/489/489 482/482/482
f 489/489/489 488/488/488 482/482/482
f 490/490/490 489/489/489 487/487/487
f 491/491/491 489/489/489 490/490/490
f 491/491/491 492/492/492 489/489/489
f 489/489/489 492/492/492 488/488/488
f 493/493/493 492/492/492 491/491/491
f 494/494/494 478/478/478 488/488/488
f 492/492/492 494/494/494 488/488/488
f 493/493/493 495/495/495 492/492/492
f 492/492/492 495/495/495 494/494/494
f 496/496/496 495/495/495 493/493/493
f 496/496/496 497/497/497 495/495/495
f 495/495/495 497/497/497 498/498/498
f 495/495/495 498/498/498 494/494/494
f 494/494/494 499/499/499 478/478/478
f 498/498/498 499/499/499 494/494/494
f 499/499/499 465/465/465 478/478/478
f 498/498/498 500/500/500 499/499/499
f 499/499/499 453/453/453 465/465/465
f 500/500/500 453/453/453 499/499/499
f 500/500/500 501/501/501 453/453/453
f 502/502/502 504/504/504 503/503/503
f 502/502/502 505/505/505 504/504/504
f 504/504/504 505/505/505 506/506/506
f 504/504/504 506/506/506 507/507/507
f 508/508/508 504/504/504 507/507/507
f 505/505/505 509/509/509 506/506/506
f 505/505/505 510/510/510 509/509/509
f 511/511/511 506/506/506 509/509/509
f 511/511/511 509/509/509 512/512/512
f 508/508/508 507/507/507 513/513/513
f 514/514/514 508/508/508 513/513/513
f 515/515/515 507/507/507 506/506/506
f 515/515/515 506/506/506 511/511/511
f 516/516/516 511/511/511 512/512/512
f 516/516/516 512/512/512 517/517/517
f 514/514/514 513/513/513 518/518/518
f 519/519/519 514/514/514 518/518/518
f 519/519/519 518/518/518 520/520/520
f 521/521/521 520/520/520 518/518/518
f 521/521/521 518/518/518 522/522/522
f 522/522/522 518/518/518 513/513/513
f 523/523/523 521/521/521 522/522/522
f 524/524/524 513/513/513 507/507/507
f 522/522/522 513/513/513 524/524/524
f 524/524/524 507/507/507 515/515/515
f 525/525/525 515/515/515 511/511/511
f 525/525/525 511/511/511 516/516/516
f 526/526/526 516/516/516 517/517/517
f 526/526/526 517/517/517 527/527/527
f 528/528/528 522/522/522 524/524/524
f 523/523/523 522/522/522 528/528/528
f 529/529/529 524/524/524 515/515/515
f 529/529/529 515/515/515 525/525/525
f 528/528/528 524/524/524 529/529/529
f 530/530/530 516/516/516 526/526/526
f 530/530/530 525/525/525 516/516/516
f 531/531/531 529/529/529 525/525/525
f 531/531/531 528/528/528 529/529/529
f 531/531/531 525/525/525 530/530/530
f 532/532/532 523/523/523 528/528/528
f 531/531/531 532/532/532 528/528/528
f 532/532/532 533/533/533 523/523/523
f 533/533/533 534/534/534 523/523/523
f 533/533/533 535/535/535 534/534/534
f 536/536/536 530/530/530 526/526/526
f 536/536/536 526/526/526 537/537/537
f 530/530/530 538/538/538 531/531/531
f 538/538/538 539/539/539 531/531/531
f 540/540/540 530/530/530 536/536/536
f 540/540/540 538/538/538 530/530/530
f 541/541/541 536/536/536 537/537/537
f 541/541/541 537/537/537 542/542/542
f 538/538/538 543/543/543 539/539/539
f 543/543/543 544/544/544 539/539/539
f 545/545/545 536/536/536 541/541/541
f 545/545/545 540/540/540 536/536/536
f 546/546/546 538/538/538 540/540/540
f 546/546/546 543/543/543 538/538/538
f 543/543/543 547/547/547 544/544/544
f 547/547/547 548/548/548 544/544/544
f 547/547/547 549/549/549 548/548/548
f 550/550/550 549/549/549 547/547/547
f 551/551/551 547/547/547 543/543/543
f 550/550/550 547/547/547 551/551/551
f 551/551/551 543/543/543 546/546/546
f 552/552/552 550/550/550 551/551/551
f 552/552/552 551/551/551 553/553/553
f 553/553/553 551/551/551 546/546/546
f 554/554/554 552/552/552 553/553/553
f 554/554/554 553/553/553 555/555/555
f 556/556/556 546/546/546 540/540/540
f 553/553/553 546/546/546 556/556/556
f 555/555/555 553/553/553 556/556/556
f 555/555/555 556/556/556 557/557/557
f 556/556/556 540/540/540 545/545/545
f 557/557/557 556/556/556 545/545/545
f 557/557/557 545/545/545 558/558/558
f 558/558/558 545/545/545 541/541/541
f 558/558/558 541/541/541 559/559/559
f 560/560/560 562/562/562 561/561/561
f 560/560/560 561/561/561 563/563/563
f 561/561/561 564/564/564 563/563/563
f 561/561/561 565/565/565 564/564/564
f 565/565/565 566/566/566 564/564/564
f 564/564/564 566/566/566 567/567/567
f 564/564/564 567/567/567 568/568/568
f 565/565/565 569/569/569 566/566/566
f 570/570/570 569/569/569 565/565/565
f 570/570/570 571/571/571 569/569/569
f 569/569/569 571/571/571 572/572/572
f 573/573/573 575/575/575 574/574/574
f 573/573/573 574/574/574 576/576/576
f 577/577/577 573/573/573 576/576/576
f 576/576/576 574/574/574 578/578/578
f 577/577/577 576/576/576 579/579/579
f 580/580/580 577/577/577 579/579/579
f 576/576/576 578/578/578 581/581/581
f 579/579/579 576/576/576 581/581/581
f 581/581/581 578/578/578 582/582/582
f 581/581/581 582/582/582 583/583/583
f 583/583/583 582/582/582 584/584/584
f 579/579/579 581/581/581 585/585/585
f 585/585/585 581/581/581 583/583/583
f 580/580/580 579/579/579 586/586/586
f 586/586/586 579/579/579 585/585/585
f 583/583/583 584/584/584 587/587/587
f 587/587/587 584/584/584 588/588/588
f 587/587/587 588/588/588 589/589/589
f 590/590/590 580/580/580 586/586/586
f 590/590/590 591/591/591 580/580/580
f 592/592/592 590/590/590 586/586/586
f 593/593/593 583/583/583 587/587/587
f 585/585/585 583/583/583 593/593/593
f 594/594/594 587/587/587 589/589/589
f 593/593/593 587/587/587 594/594/594
f 594/594/594 589/589/589 595/595/595
f 596/596/596 593/593/593 594/594/594
f 597/597/597 592/592/592 586/586/586
f 586/586/586 585/585/585 597/597/597
f 598/598/598 585/585/585 593/593/593
f 598/598/598 597/597/597 585/585/585
f 592/592/592 597/597/597 598/598/598
f 596/596/596 598/598/598 593/593/593
f 592/592/592 598/598/598 599/599/599
f 599/599/599 598/598/598 596/596/596
f 599/599/599 596/596/596 600/600/600
f 601/601/601 603/603/603 602/602/602
f 602/602/602 603/603/603 604/604/604
f 605/605/605 604/604/604 603/603/603
f 602/602/602 604/604/604 606/606/606
f 607/607/607 604/604/604 605/605/605
f 606/606/606 604/604/604 607/607/607
f 607/607/607 605/605/605 608/608/608
f 609/609/609 607/607/607 608/608/608
f 609/609/609 608/608/608 610/610/610
f 606/606/606 607/607/607 611/611/611
f 611/611/611 607/607/607 609/609/609
f 612/612/612 609/609/609 610/610/610
f 612/612/612 610/610/610 613/613/613
f 606/606/606 611/611/611 614/614/614
f 606/606/606 614/614/614 615/615/615
f 611/611/611 616/616/616 614/614/614
f 611/611/611 609/609/609 617/617/617
f 611/611/611 617/617/617 616/616/616
f 617/617/617 609/609/609 612/612/612
f 617/617/617 618/618/618 616/616/616
f 617/617/617 619/619/619 618/618/618
f 617/617/617 612/612/612 619/619/619
f 619/619/619 620/620/620 618/618/618
f 619/619/619 621/621/621 620/620/620
f 622/622/622 612/612/612 613/613/613
f 619/619/619 612/612/612 622/622/622
f 619/619/619 622/622/622 621/621/621
f 622/622/622 613/613/613 623/623/623
f 621/621/621 622/622/622 624/624/624
f 621/621/621 624/624/624 625/625/625
f 625/625/625 624/624/624 626/626/626
f 627/627/627 629/629/629 628/628/628
f 627/627/627 630/630/630 629/629/629
f 630/630/630 631/631/631 629/629/629
f 631/631/631 630/630/630 632/632/632
f 632/632/632 630/630/630 633/633/633
f 634/634/634 636/636/636 635/635/635
f 634/634/634 637/637/637 636/636/636
f 638/638/638 637/637/637 634/634/634
f 638/638/638 639/639/639 637/637/637
f 640/640/640 639/639/639 638/638/638
f 640/640/640 641/641/641 639/639/639
f 642/642/642 641/641/641 640/640/640
f 642/642/642 643/643/643 641/641/641
f 644/644/644 643/643/643 642/642/642
f 644/644/644 645/645/645 643/643/643
f 646/646/646 645/645/645 644/644/644
f 646/646/646 647/647/647 645/645/645
f 648/648/648 647/647/647 646/646/646
f 648/648/648 649/649/649 647/647/647
f 650/650/650 652/652/652 651/651/651
f 650/650/650 651/651/651 653/653/653
f 654/654/654 650/650/650 653/653/653
f 654/654/654 653/653/653 655/655/655
f 656/656/656 658/658/658 657/657/657
f 659/659/659 656/656/656 657/657/657
f 659/659/659 657/657/657 660/660/660
f 661/661/661 659/659/659 660/660/660
f 661/661/661 660/660/660 662/662/662
f 663/663/663 661/661/661 662/662/662
f 663/663/663 662/662/662 664/664/664
f 665/665/665 663/663/663 664/664/664
f 665/665/665 664/664/664 666/666/666
f 667/667/667 665/665/665 666/666/666
f 668/668/668 670/670/670 669/669/669
f 668/668/668 671/671/671 670/670/670
f 672/672/672 674/674/674 673/673/673
f 672/672/672 675/675/675 674/674/674
f 676/676/676 678/678/678 677/677/677
f 679/679/679 676/676/676 677/677/677
f 680/680/680 678/678/678 676/676/676
f 681/681/681 676/676/676 679/679/679
f 680/680/680 676/676/676 682/682/682
f 681/681/681 682/682/682 676/676/676
f 683/683/683 680/680/680 682/682/682
f 684/684/684 682/682/682 681/681/681
f 683/683/683 682/682/682 685/685/685
f 684/684/684 685/685/685 682/682/682
f 686/686/686 683/683/683 685/685/685
f 687/687/687 685/685/685 684/684/684
f 686/686/686 685/685/685 688/688/688
f 687/687/687 688/688/688 685/685/685
f 686/686/686 688/688/688 689/689/689
f 689/689/689 688/688/688 687/687/687
