mtllib P_RockHexic_Piece03.mtl
v -0.901103 -5.642515 -1.560759 0 0 0
v -1.728542 -5.70631 -4.282226E-07 0 0 0
v -0.8642712 -5.70631 -1.496964 0 0 0
v -1.802207 -5.642515 -4.133215E-07 0 0 0
v -1.802207 5.642516 -4.133215E-07 0 0.6588235 0
v -0.901103 5.642516 -1.560759 0 0 0
v -0.9011021 5.642516 1.560759 0 0.654902 0
v -0.9011021 -5.642515 1.560759 0 0 0
v -1.728542 5.706311 -4.244973E-07 0 0.6588235 0
v -0.8642712 5.706311 -1.496964 0 0 0
v 0.9011059 -5.642515 -1.560759 0 0 0
v -0.901103 -5.642515 -1.560759 0 0 0
v -0.8642712 -5.70631 -1.496964 0 0 0
v 0.864274 -5.70631 -1.496964 0 0 0
v -1.728542 -5.70631 -4.282226E-07 0 0 0
v 1.728547 -5.70631 5.55254E-07 0 0 0
v 1.802212 -5.642515 5.403529E-07 0 0 0
v 0.9011068 -5.642515 1.560759 0 0.8666667 0
v 0.864275 -5.70631 1.496964 0 0.8823529 0
v -0.8642702 -5.70631 1.496964 0 0 0
v -0.9011021 -5.642515 1.560759 0 0 0
v -1.802207 -5.642515 -4.133215E-07 0 0 0
v -0.901103 5.642516 -1.560759 0 0 0
v -0.901103 -5.642515 -1.560759 0 0 0
v 0.9011059 -5.642515 -1.560759 0 0 0
v 0.9011059 5.642516 -1.560759 0 0.7176471 0
v 0.864274 5.706311 -1.496964 0 0.8156863 0
v -0.8642712 5.706311 -1.496964 0 0 0
v 0.9011059 5.642516 -1.560759 0 0.7176471 0
v 0.9011059 -5.642515 -1.560759 0 0 0
v 1.802212 -5.642515 5.403529E-07 0 0 0
v 1.802212 5.642516 5.403529E-07 0 0.8078431 0
v 1.728547 5.706311 5.515287E-07 0 0.8705882 0
v 0.864274 5.706311 -1.496964 0 0.8156863 0
v 1.802212 5.642516 5.403529E-07 0 0.8078431 0
v 1.802212 -5.642515 5.403529E-07 0 0 0
v 0.9011068 -5.642515 1.560759 0 0.8666667 0
v 0.9011068 5.642516 1.560759 0 0.9921569 0
v -0.9011021 -5.642515 1.560759 0 0 0
v -0.9011021 5.642516 1.560759 0 0.654902 0
v 0.864275 -5.70631 1.496964 0 0.8823529 0
v -0.8642702 -5.70631 1.496964 0 0 0
v 0.9011068 5.642516 1.560759 0 0.9921569 0
v 1.728547 5.706311 5.515287E-07 0 0.8705882 0
v 1.802212 5.642516 5.403529E-07 0 0.8078431 0
v 0.864275 5.706311 1.496964 0 0.9921569 0
v -0.8642702 5.706311 1.496964 0 0.6431373 0
v -0.9011021 5.642516 1.560759 0 0.654902 0
v 0.864274 5.706311 -1.496964 0 0.8156863 0
v -1.728542 5.706311 -4.244973E-07 0 0.6588235 0
v -1.802207 5.642516 -4.133215E-07 0 0.6588235 0
v -0.8642712 5.706311 -1.496964 0 0 0
vn -0.4640321 -0.3724207 -0.803727
vn -0.4422684 -0.8968828 0
vn -0.2211362 -0.8968813 -0.383018
vn -0.9280632 -0.3724227 0
vn -0.9280632 0.3724227 0
vn -0.4640321 0.3724197 -0.8037274
vn -0.4640319 0.3724198 0.8037275
vn -0.4640302 -0.3724219 0.8037276
vn -0.4422684 0.8968828 0
vn -0.2211366 0.8968806 -0.3830192
vn 0.4640318 -0.3724198 -0.8037276
vn -0.4640321 -0.3724207 -0.803727
vn -0.2211362 -0.8968813 -0.383018
vn 0.2211363 -0.8968807 -0.3830193
vn -0.4422684 -0.8968828 0
vn 0.4422684 -0.8968828 0
vn 0.9280633 -0.3724226 0
vn 0.4640299 -0.3724208 0.8037282
vn 0.2211336 -0.8968812 0.3830196
vn -0.2211334 -0.8968818 0.3830184
vn -0.4640302 -0.3724219 0.8037276
vn -0.9280632 -0.3724227 0
vn -0.4640321 0.3724197 -0.8037274
vn -0.4640321 -0.3724207 -0.803727
vn 0.4640318 -0.3724198 -0.8037276
vn 0.4640299 0.3724221 -0.8037276
vn 0.2211331 0.8968819 -0.3830182
vn -0.2211366 0.8968806 -0.3830192
vn 0.4640299 0.3724221 -0.8037276
vn 0.4640318 -0.3724198 -0.8037276
vn 0.9280633 -0.3724226 0
vn 0.928064 0.3724208 0
vn 0.4422711 0.8968814 0
vn 0.2211331 0.8968819 -0.3830182
vn 0.928064 0.3724208 0
vn 0.9280633 -0.3724226 0
vn 0.4640299 -0.3724208 0.8037282
vn 0.4640322 0.3724203 0.8037271
vn -0.4640302 -0.3724219 0.8037276
vn -0.4640319 0.3724198 0.8037275
vn 0.2211336 -0.8968812 0.3830196
vn -0.2211334 -0.8968818 0.3830184
vn 0.4640322 0.3724203 0.8037271
vn 0.4422711 0.8968814 0
vn 0.928064 0.3724208 0
vn 0.2211365 0.8968812 0.383018
vn -0.2211365 0.8968806 0.3830191
vn -0.4640319 0.3724198 0.8037275
vn 0.2211331 0.8968819 -0.3830182
vn -0.4422684 0.8968828 0
vn -0.9280632 0.3724227 0
vn -0.2211366 0.8968806 -0.3830192
vt 0.148256 0.6960971
vt 0.1222271 0.6970764
vt 0.1476996 0.6971036
vt 0.1216979 0.6960688
vt 0.1216979 0.5302038
vt 0.148256 0.5302322
vt 0.1080862 0.5318868
vt 0.1080862 0.6977518
vt 0.1222271 0.5293362
vt 0.1476996 0.5293633
vt 0.9605727 0.4996731
vt 0.9375789 0.4864527
vt 0.9376045 0.4875919
vt 0.9596585 0.5002719
vt 0.9155505 0.5003428
vt 0.9596585 0.5257028
vt 0.9605728 0.5261878
vt 0.9375789 0.5394821
vt 0.9376045 0.5384537
vt 0.9155505 0.5257737
vt 0.9145851 0.5262617
vt 0.9145851 0.499747
vt 0.6359885 0.5562273
vt 0.6359885 0.7225431
vt 0.6625417 0.7225466
vt 0.6625417 0.5562309
vt 0.6619765 0.5552959
vt 0.6365086 0.5552925
vt 0.7029962 0.2923967
vt 0.7029962 0.458595
vt 0.729555 0.4585824
vt 0.729555 0.2923841
vt 0.7290004 0.2914091
vt 0.7035272 0.2914212
vt 0.6694912 0.5541221
vt 0.6694912 0.7203806
vt 0.6833338 0.7209889
vt 0.6833338 0.5547305
vt 0.7098866 0.7209713
vt 0.7098866 0.5547129
vt 0.6838533 0.7219031
vt 0.7093208 0.7218863
vt 0.9465269 0.9595473
vt 0.9483982 0.933566
vt 0.9473932 0.9330041
vt 0.9475672 0.9590241
vt 0.9691075 0.9725035
vt 0.9689851 0.973601
vt 0.9707695 0.921587
vt 0.9914788 0.9605246
vt 0.9923097 0.9611117
vt 0.9923097 0.9350664
usemtl MV_RockHexic_Pieces
f 1/1/1 3/3/3 2/2/2
f 1/1/1 2/2/2 4/4/4
f 5/5/5 1/1/1 4/4/4
f 5/5/5 6/6/6 1/1/1
f 7/7/7 5/5/5 4/4/4
f 7/7/7 4/4/4 8/8/8
f 6/6/6 5/5/5 9/9/9
f 6/6/6 9/9/9 10/10/10
f 11/11/11 13/13/13 12/12/12
f 11/11/11 14/14/14 13/13/13
f 14/14/14 15/15/15 13/13/13
f 11/11/11 16/16/16 14/14/14
f 11/11/11 17/17/17 16/16/16
f 18/18/18 16/16/16 17/17/17
f 18/18/18 19/19/19 16/16/16
f 20/20/20 16/16/16 19/19/19
f 20/20/20 14/14/14 16/16/16
f 14/14/14 20/20/20 15/15/15
f 21/21/21 15/15/15 20/20/20
f 21/21/21 22/22/22 15/15/15
f 23/23/23 25/25/25 24/24/24
f 23/23/23 26/26/26 25/25/25
f 23/23/23 27/27/27 26/26/26
f 23/23/23 28/28/28 27/27/27
f 29/29/29 31/31/31 30/30/30
f 29/29/29 32/32/32 31/31/31
f 29/29/29 33/33/33 32/32/32
f 29/29/29 34/34/34 33/33/33
f 35/35/35 37/37/37 36/36/36
f 35/35/35 38/38/38 37/37/37
f 38/38/38 39/39/39 37/37/37
f 38/38/38 40/40/40 39/39/39
f 39/39/39 41/41/41 37/37/37
f 39/39/39 42/42/42 41/41/41
f 43/43/43 45/45/45 44/44/44
f 43/43/43 44/44/44 46/46/46
f 43/43/43 46/46/46 47/47/47
f 47/47/47 46/46/46 44/44/44
f 43/43/43 47/47/47 48/48/48
f 47/47/47 44/44/44 49/49/49
f 48/48/48 47/47/47 50/50/50
f 49/49/49 50/50/50 47/47/47
f 48/48/48 50/50/50 51/51/51
f 49/49/49 52/52/52 50/50/50
