mtllib P_RockSpire_RockClump02.mtl
v 1.950137 -0.1595067 -1.033559
v 1.949119 -0.1326644 -1.064205
v 2.01278 -0.2181135 -1.035855
v 1.949119 -0.1326644 -1.064205
v 1.99499 -0.07320929 -1.349581
v 2.07656 -0.1488276 -1.286714
v 0.4276645 -0.02732184 0.5451391
v 0.608034 0.1555799 0.1389801
v 0.6390312 0.1210288 0.1519493
v 0.3661229 -0.005233343 0.5698159
v 0.4367183 -0.1130896 0.7828259
v 0.6053614 -0.1961312 0.6351155
v 0.5576504 -0.09710409 0.4332858
v 0.1092956 -0.154071 0.9268247
v -0.713759 -0.03676104 0.6588718
v -0.6960921 0.0463389 0.4245584
v -1.088462 -0.1154641 0.2938133
v -0.9979606 -0.1108506 0.4155536
v -0.8459731 -0.00240725 0.3162809
v -0.9740648 -0.04873764 0.09375897
v -0.9268077 0.3773319 -0.4598738
v -0.6091602 0.4374713 -0.5917615
v 0.5441865 0.2755354 -0.1485266
v 0.5571394 0.2761675 -0.197817
v -0.5614967 0.436167 -0.6341369
v 0.5571394 0.2761675 -0.197817
v 0.6390312 0.1210288 0.1519493
v 0.608034 0.1555799 0.1389801
v 0.590529 0.08905711 -0.3812562
v 0.7151659 -0.1230295 0.2337704
v 0.7446489 -0.3239387 -0.02945055
v 0.5576504 -0.09710409 0.4332858
v 0.4276645 -0.02732184 0.5451391
v 0.718951 -0.3559853 0.01652818
v 0.5863384 -0.1262181 0.3902463
v 0.5198516 -0.6967682 -0.2601758
v 0.530528 -0.6819827 -0.2892845
v 0.5701556 -0.1374968 0.4446056
v 0.6053614 -0.1961312 0.6351155
v 0.3135653 -0.4652149 0.411606
v -0.096621 -0.739102 0.3922311
v 0.3053735 -0.7881847 -0.2708044
v 0.3421359 -0.4679302 0.6373811
v 0.5930555 -0.2313097 0.6375659
v 0.4367183 -0.1130896 0.7828259
v -0.5614967 0.436167 -0.6341369
v 0.590529 0.08905711 -0.3812562
v 0.5571394 0.2761675 -0.197817
v 0.2296336 -0.2115323 -0.9014389
v 0.7446489 -0.3239387 -0.02945055
v -0.3354534 -0.05068364 -1.03603
v 0.530528 -0.6819827 -0.2892845
v -0.4511401 -0.3040287 -1.118325
v 0.3528137 -0.689518 -0.571527
v 0.1351922 -0.5018896 -0.9836774
v 0.1327469 -0.5356851 -0.9565017
v 0.530528 -0.6819827 -0.2892845
v 0.3528137 -0.689518 -0.571527
v 0.5198516 -0.6967682 -0.2601758
v 0.3053735 -0.7881847 -0.2708044
v -0.6933198 -0.5497837 -0.6648557
v 0.1327469 -0.5356851 -0.9565017
v -0.4197669 -0.864639 0.1960273
v -0.096621 -0.739102 0.3922311
v -0.5427784 -0.847166 0.1825358
v -1.05596 -0.7103671 0.08167922
v -1.199786 -0.5966573 -0.1773238
v -0.4511401 -0.3040287 -1.118325
v 0.1351922 -0.5018896 -0.9836774
v -1.31137 -0.3955166 -0.699622
v -1.330324 -0.3940381 -0.6716998
v -0.4197669 -0.864639 0.1960273
v -0.5427784 -0.847166 0.1825358
v -0.096621 -0.739102 0.3922311
v -0.4576146 -0.6313467 0.3557626
v -0.9483981 -0.5294254 0.2347074
v -0.9474027 -0.5149456 0.2714364
v -1.05596 -0.7103671 0.08167922
v -1.199786 -0.5966573 -0.1773238
v -1.078581 -0.2647046 -0.03092125
v -0.1581222 -0.6192304 0.4821045
v 0.2249159 -0.511641 0.4087591
v 0.3135653 -0.4652149 0.411606
v 0.3135653 -0.4652149 0.411606
v -0.06505103 -0.5364917 0.7898735
v 0.3421359 -0.4679302 0.6373811
v -0.1581222 -0.6192304 0.4821045
v -0.5123681 -0.5799937 0.6700642
v -0.4576146 -0.6313467 0.3557626
v -0.9955335 -0.5073394 0.4032654
v -0.9474027 -0.5149456 0.2714364
v -1.012171 -0.4852566 0.434016
v -0.5123681 -0.5799937 0.6700642
v -0.9955335 -0.5073394 0.4032654
v -0.9751841 -0.3430024 0.4742391
v -1.151277 -0.2520914 0.235456
v -1.088462 -0.1154641 0.2938133
v -0.9979606 -0.1108506 0.4155536
v -0.5557045 -0.3192855 0.7710217
v -0.06505103 -0.5364917 0.7898735
v -0.7210589 -0.05943333 0.6704512
v -0.713759 -0.03676104 0.6588718
v -0.3188878 -0.1356731 0.8115575
v 0.1092956 -0.154071 0.9268247
v -0.06011036 -0.3402383 0.8730665
v 0.3421359 -0.4679302 0.6373811
v 0.4367183 -0.1130896 0.7828259
v 0.5930555 -0.2313097 0.6375659
v -0.9740648 -0.04873764 0.09375897
v -1.088462 -0.1154641 0.2938133
v -1.151277 -0.2520914 0.235456
v -1.08215 -0.2610277 0.04389202
v -0.9474027 -0.5149456 0.2714364
v -0.9955335 -0.5073394 0.4032654
v -1.012171 -0.4852566 0.434016
v -0.9483981 -0.5294254 0.2347074
v -1.078581 -0.2647046 -0.03092125
v -1.110351 0.163802 -0.474306
v -1.330324 -0.3940381 -0.6716998
v -1.199786 -0.5966573 -0.1773238
v -1.31137 -0.3955166 -0.699622
v -0.9268077 0.3773319 -0.4598738
v -0.8459731 -0.00240725 0.3162809
v -1.07541 0.1681752 -0.5212187
v -0.4511401 -0.3040287 -1.118325
v -0.3354534 -0.05068364 -1.03603
v -0.5614967 0.436167 -0.6341369
v -0.6091602 0.4374713 -0.5917615
v -0.1047481 0.1950549 1.630448
v -0.9771687 -0.3138369 1.238898
v -0.6754673 0.05041789 0.9039963
v -0.1627921 0.2822265 1.321382
v -0.03539074 0.2634419 1.169498
v 0.1876619 0.03061508 1.776701
v 0.4785105 -0.0423331 1.429335
v 0.537944 -0.001150647 1.056157
v 0.4057027 0.09825863 0.8223742
v -0.2087678 0.2674062 1.181524
v -0.3106271 -0.1014716 0.5070911
v 0.2338013 -0.01695768 0.6508864
v 0.4318245 0.04713965 0.7669058
v -0.9771687 -0.3138369 1.238898
v -0.9882625 -0.3784569 1.217635
v -0.6754673 0.05041789 0.9039963
v -0.5430324 -0.4778126 0.7376847
v -0.3106271 -0.1014716 0.5070911
v -0.3060822 -0.396592 0.5006788
v -0.9882625 -0.3784569 1.217635
v -0.9771687 -0.3138369 1.238898
v -0.5781198 -0.4623329 1.651764
v -0.1047481 0.1950549 1.630448
v -0.06358298 -0.4056342 1.855253
v 0.2106038 -0.1393942 1.854183
v 0.1876619 0.03061508 1.776701
v -0.5430324 -0.4778126 0.7376847
v -0.9882625 -0.3784569 1.217635
v -0.5781198 -0.4623329 1.651764
v -0.05802647 -0.5804898 0.9490696
v -0.3060822 -0.396592 0.5006788
v 0.3182288 -0.5904421 0.6790694
v 0.4649905 -0.5795457 0.7601049
v -0.06358298 -0.4056342 1.855253
v 0.3331988 -0.417047 1.683832
v 0.4156249 -0.3468744 1.700736
v 0.6122293 -0.4865305 0.8430189
v 0.6962838 -0.3416525 1.282053
v 0.2106038 -0.1393942 1.854183
v 0.4156249 -0.3468744 1.700736
v -0.06358298 -0.4056342 1.855253
v 0.1876619 0.03061508 1.776701
v 0.4785105 -0.0423331 1.429335
v 0.6858153 -0.2496912 1.27352
v 0.6962838 -0.3416525 1.282053
v 0.6122293 -0.4865305 0.8430189
v 0.537944 -0.001150647 1.056157
v 0.4318245 0.04713965 0.7669058
v 0.4057027 0.09825863 0.8223742
v 0.4318245 0.04713965 0.7669058
v 0.4649905 -0.5795457 0.7601049
v 0.6122293 -0.4865305 0.8430189
v 0.2338013 -0.01695768 0.6508864
v 0.3182288 -0.5904421 0.6790694
v -0.3060822 -0.396592 0.5006788
v -0.3106271 -0.1014716 0.5070911
v 1.812133 -0.06121797 -0.8766418
v 1.858584 -0.2566772 -0.8259257
v 1.787076 -0.05796404 -0.8571715
v 1.418049 -0.1887742 -0.8529994
v 1.360214 0.009278786 -0.8909264
v 1.625542 -0.3421323 -0.851989
v 1.948369 -0.4121618 -0.841336
v 1.967688 -0.4348524 -0.83141
v 1.276656 -0.3097604 -0.9121034
v 1.099583 0.00409877 -1.002091
v 1.184043 0.06077193 -0.9724197
v 1.010524 -0.3721718 -1.049457
v 1.253028 -0.5070469 -0.9444814
v 1.590449 -0.6609422 -0.8662738
v 1.643842 -0.4096608 -0.7808927
v 1.87667 -0.742505 -0.7856268
v 1.946303 -0.5069895 -0.7087698
v 1.969939 -0.7447586 -0.8504648
v 2.034335 -0.4876976 -0.7796227
v 1.997825 -0.3709778 -0.9758172
v 1.950137 -0.1595067 -1.033559
v 2.01278 -0.2181135 -1.035855
v 2.056965 -0.4175301 -0.9641694
v 1.949119 -0.1326644 -1.064205
v 2.07656 -0.1488276 -1.286714
v 2.01278 -0.2181135 -1.035855
v 2.07376 -0.4331165 -0.9884759
v 2.056965 -0.4175301 -0.9641694
v 2.034335 -0.4876976 -0.7796227
v 1.969939 -0.7447586 -0.8504648
v 1.986081 -0.7093778 -1.01066
v 2.126171 -0.4683845 -1.417374
v 2.081417 -0.5779554 -1.376178
v 2.00243 -0.5263032 -1.467253
v 2.04762 -0.4362795 -1.495325
v 2.144677 -0.3289411 -1.330861
v 2.080378 -0.2950517 -1.406128
v 1.99499 -0.07320929 -1.349581
v 2.058042 -0.4266306 -1.48619
v 2.106702 -0.2622586 -1.629459
v 2.073421 -0.3841041 -1.614061
v 2.06254 -0.3179725 -1.758982
v 2.055044 -0.3269184 -1.751732
v 2.071206 -0.2382312 -1.740332
v 2.039305 -0.1817049 -1.716919
v 2.016033 -0.1698126 -1.73878
v 2.078468 -0.2088182 -1.599103
v 2.080284 -0.1266135 -1.756759
v 2.085492 -0.1041118 -1.758369
v 2.089249 -0.2469508 -1.597321
v 1.988194 0.0932413 -1.583915
v 2.032256 0.04955288 -1.738028
v 1.971391 0.1115926 -1.581922
v 1.91261 -0.01326626 -1.076422
v 1.949119 -0.1326644 -1.064205
v 1.950137 -0.1595067 -1.033559
v 1.812133 -0.06121797 -0.8766418
v 1.858584 -0.2566772 -0.8259257
v 1.997825 -0.3709778 -0.9758172
v 1.948369 -0.4121618 -0.841336
v 1.986081 -0.7093778 -1.01066
v 1.87667 -0.742505 -0.7856268
v 1.969939 -0.7447586 -0.8504648
v 1.590449 -0.6609422 -0.8662738
v 1.617257 -0.5912552 -1.166452
v 2.081417 -0.5779554 -1.376178
v 2.00243 -0.5263032 -1.467253
v 1.648662 -0.4570115 -1.480873
v 1.253028 -0.5070469 -0.9444814
v 1.241733 -0.347804 -1.382145
v 1.524334 -0.3433011 -1.527997
v 1.040506 -0.3012925 -1.338465
v 1.010524 -0.3721718 -1.049457
v 1.499815 -0.3209366 -1.547324
v 2.022944 -0.4370217 -1.498623
v 1.117628 -0.2901298 -1.466815
v 1.096727 -0.2734836 -1.476919
v 1.215522 -0.1693834 -1.759448
v 1.419374 -0.1655067 -1.851342
v 2.055044 -0.3269184 -1.751732
v 1.855674 -0.253254 -1.81742
v 2.06254 -0.3179725 -1.758982
v 2.073421 -0.3841041 -1.614061
v 2.04762 -0.4362795 -1.495325
v 1.997825 -0.3709778 -0.9758172
v 1.967688 -0.4348524 -0.83141
v 1.948369 -0.4121618 -0.841336
v 2.056965 -0.4175301 -0.9641694
v 2.034335 -0.4876976 -0.7796227
v 1.946303 -0.5069895 -0.7087698
v 1.643842 -0.4096608 -0.7808927
v 1.625542 -0.3421323 -0.851989
v 1.276656 -0.3097604 -0.9121034
v 1.181886 -0.02517915 -1.704145
v 1.096727 -0.2734836 -1.476919
v 1.215522 -0.1693834 -1.759448
v 1.138713 0.03724596 -1.606956
v 1.040506 -0.3012925 -1.338465
v 1.099583 0.00409877 -1.002091
v 1.010524 -0.3721718 -1.049457
v 1.166666 0.1692421 -1.475725
v 1.283563 0.2267567 -1.449183
v 1.24432 0.2108829 -1.482807
v 1.184043 0.06077193 -0.9724197
v 2.039305 -0.1817049 -1.716919
v 2.080284 -0.1266135 -1.756759
v 2.016033 -0.1698126 -1.73878
v 1.982011 -0.09579662 -1.796828
v 1.904674 -0.1333903 -1.776332
v 2.080284 -0.1266135 -1.756759
v 2.085492 -0.1041118 -1.758369
v 1.982011 -0.09579662 -1.796828
v 2.032256 0.04955288 -1.738028
v 1.901307 0.08819862 -1.749832
v 1.971391 0.1115926 -1.581922
v 1.609836 0.2184847 -1.62753
v 1.669988 0.0001119697 -1.807097
v 1.782708 -0.05995403 -1.799104
v 1.60447 0.1979779 -1.680915
v 1.489377 0.1731315 -1.694016
v 1.904674 -0.1333903 -1.776332
v 1.447397 0.2331662 -1.515077
v 1.93703 -0.1867962 -1.792888
v 2.016033 -0.1698126 -1.73878
v 2.071206 -0.2382312 -1.740332
v 2.06254 -0.3179725 -1.758982
v 1.855674 -0.253254 -1.81742
v 1.24432 0.2108829 -1.482807
v 1.283563 0.2267567 -1.449183
v 1.166666 0.1692421 -1.475725
v 1.138713 0.03724596 -1.606956
v 1.375162 0.02963158 -1.779854
v 1.181886 -0.02517915 -1.704145
v 1.443493 -0.07554935 -1.844838
v 1.215522 -0.1693834 -1.759448
v 1.423527 -0.1540646 -1.857541
v 1.419374 -0.1655067 -1.851342
v 1.971391 0.1115926 -1.581922
v 1.447397 0.2331662 -1.515077
v 1.609836 0.2184847 -1.62753
v 1.91261 -0.01326626 -1.076422
v 1.802244 -0.03856374 -0.8911142
v 1.812133 -0.06121797 -0.8766418
v 1.787076 -0.05796404 -0.8571715
v 1.360214 0.009278786 -0.8909264
v 1.283563 0.2267567 -1.449183
v 1.184043 0.06077193 -0.9724197
v 2.022944 -0.4370217 -1.498623
v 2.00243 -0.5263032 -1.467253
v 2.04762 -0.4362795 -1.495325
v 1.648662 -0.4570115 -1.480873
v 1.524334 -0.3433011 -1.527997
v 1.322115 -0.4390876 1.056327
v 1.914424 -0.1448957 1.485334
v 1.954827 -0.3102792 1.489955
v 1.221711 0.06734688 1.070968
v 1.200881 0.04993216 1.021531
v 1.32471 -0.5218951 0.9649363
v 1.361308 -0.4121995 0.3296376
v 1.231498 0.136741 0.9234464
v 1.274977 0.1368278 1.013239
v 1.710668 0.3435186 0.3653683
v 1.685859 0.168317 0.07670364
v 1.675277 0.04360832 0.04165475
v 2.115714 -0.278113 0.2224838
v 1.992034 0.2331479 0.2981559
v 1.772019 0.1274998 0.04750236
v 2.294004 0.1577026 0.5183908
v 2.199415 -0.3432383 0.3120655
v 2.03996 -0.3962027 0.1896681
v 2.330371 0.1542183 0.6777251
v 2.251928 -0.5490391 1.043752
v 2.206218 -0.5824932 0.9238234
v 2.350351 -0.09488665 1.173504
v 2.334652 -0.02481905 1.176717
v 2.264961 -0.4976897 1.099394
v 1.412958 -0.4359861 0.2689418
v 1.361308 -0.4121995 0.3296376
v 1.464627 -0.5580596 0.3276528
v 1.32471 -0.5218951 0.9649363
v 1.699586 -0.5743523 0.2861105
v 2.07634 -0.6142095 0.9292286
v 1.578546 -0.548815 1.157079
v 1.322115 -0.4390876 1.056327
v 1.976665 -0.4327462 1.428425
v 2.251928 -0.5490391 1.043752
v 2.206218 -0.5824932 0.9238234
v 2.03996 -0.3962027 0.1896681
v 2.199415 -0.3432383 0.3120655
v 1.685859 0.168317 0.07670364
v 1.675277 0.04360832 0.04165475
v 1.772019 0.1274998 0.04750236
v 2.03996 -0.3962027 0.1896681
v 2.115714 -0.278113 0.2224838
v 1.699586 -0.5743523 0.2861105
v 1.412958 -0.4359861 0.2689418
v 1.464627 -0.5580596 0.3276528
v 1.361308 -0.4121995 0.3296376
v 1.221711 0.06734688 1.070968
v 1.274977 0.1368278 1.013239
v 1.847064 -0.01431128 1.428924
v 1.904592 0.1602976 0.8593486
v 2.135786 -0.04710013 1.38965
v 2.334652 -0.02481905 1.176717
v 1.821993 0.3586998 0.3852445
v 1.231498 0.136741 0.9234464
v 1.710668 0.3435186 0.3653683
v 2.282527 0.1897497 0.6943585
v 2.330371 0.1542183 0.6777251
v 2.294004 0.1577026 0.5183908
v 1.882782 0.3265966 0.330257
v 1.685859 0.168317 0.07670364
v 1.992034 0.2331479 0.2981559
v 1.772019 0.1274998 0.04750236
v 2.264961 -0.4976897 1.099394
v 2.251928 -0.5490391 1.043752
v 1.976665 -0.4327462 1.428425
v 2.12904 -0.1204631 1.41316
v 2.350351 -0.09488665 1.173504
v 1.954827 -0.3102792 1.489955
v 1.578546 -0.548815 1.157079
v 1.322115 -0.4390876 1.056327
v 1.914424 -0.1448957 1.485334
v 2.135786 -0.04710013 1.38965
v 2.334652 -0.02481905 1.176717
v 1.847064 -0.01431128 1.428924
v 1.221711 0.06734688 1.070968
v -1.887982 -0.07130937 -0.2787027
v -2.138033 -0.2882311 0.2475018
v -2.13551 -0.1634869 0.2809383
v -1.89876 -0.4551789 -0.3511941
v -1.903056 -0.437125 -0.3929931
v -1.914195 0.003565604 -0.3345199
v -2.218395 0.02431064 -0.7688015
v -1.97728 -0.482379 -0.4549606
v -1.968038 -0.491466 -0.3741499
v -2.549368 -0.496666 -0.6553361
v -2.624831 -0.3269576 -0.852479
v -2.61252 -0.2314414 -0.8714573
v -2.768874 0.02407945 -0.5334182
v -2.740203 -0.3751684 -0.5737952
v -2.68571 -0.2832959 -0.8329403
v -2.830851 -0.3209469 -0.286658
v -2.775082 0.06711692 -0.4305194
v -2.714839 0.1073623 -0.5790467
v -2.787671 -0.3388171 -0.1602953
v -2.472772 0.1116355 0.1161327
v -2.487701 0.1495167 0.01608465
v -2.555198 -0.2300549 0.212146
v -2.555036 -0.2835421 0.2021737
v -2.466349 0.0669456 0.156248
v -2.272885 0.05658649 -0.7871344
v -2.218395 0.02431064 -0.7688015
v -2.262156 0.142573 -0.7147757
v -1.914195 0.003565604 -0.3345199
v -2.427663 0.1862527 -0.6425514
v -2.396946 0.1578698 -0.03281346
v -1.993351 0.02134994 -0.09116714
v -1.887982 -0.07130937 -0.2787027
v -2.155349 -0.06205949 0.2571626
v -2.472772 0.1116355 0.1161327
v -2.487701 0.1495167 0.01608465
v -2.714839 0.1073623 -0.5790467
v -2.775082 0.06711692 -0.4305194
v -2.624831 -0.3269576 -0.852479
v -2.61252 -0.2314414 -0.8714573
v -2.68571 -0.2832959 -0.8329403
v -2.714839 0.1073623 -0.5790467
v -2.768874 0.02407945 -0.5334182
v -2.427663 0.1862527 -0.6425514
v -2.272885 0.05658649 -0.7871344
v -2.262156 0.142573 -0.7147757
v -2.218395 0.02431064 -0.7688015
v -1.89876 -0.4551789 -0.3511941
v -1.968038 -0.491466 -0.3741499
v -2.139097 -0.3824968 0.1694056
v -2.439949 -0.4170594 -0.215478
v -2.335546 -0.3212742 0.2673403
v -2.555036 -0.2835421 0.2021737
v -2.615082 -0.4987831 -0.5954554
v -1.97728 -0.482379 -0.4549606
v -2.549368 -0.496666 -0.6553361
v -2.755758 -0.3725455 -0.1718714
v -2.787671 -0.3388171 -0.1602953
v -2.830851 -0.3209469 -0.286658
v -2.671743 -0.460303 -0.605286
v -2.624831 -0.3269576 -0.852479
v -2.740203 -0.3751684 -0.5737952
v -2.68571 -0.2832959 -0.8329403
v -2.466349 0.0669456 0.156248
v -2.472772 0.1116355 0.1161327
v -2.155349 -0.06205949 0.2571626
v -2.309696 -0.2718853 0.2865982
v -2.555198 -0.2300549 0.212146
v -2.13551 -0.1634869 0.2809383
v -1.993351 0.02134994 -0.09116714
v -1.887982 -0.07130937 -0.2787027
v -2.138033 -0.2882311 0.2475018
v -2.335546 -0.3212742 0.2673403
v -2.555036 -0.2835421 0.2021737
v -2.139097 -0.3824968 0.1694056
v -1.89876 -0.4551789 -0.3511941
vn 0.7239507 0.4316674 0.5381066
vn 0.8304948 0.4673992 0.3030123
vn 0.6522151 0.4383794 0.6184165
vn 0.8304948 0.4673992 0.3030123
vn 0.8928254 0.4327165 0.1249769
vn 0.8264973 0.5627784 -0.01351865
vn 0.5425057 0.739839 0.3979018
vn 0.4080914 0.8446515 0.3464466
vn 0.8217212 0.5103099 0.2536891
vn 0.1835342 0.9029469 0.3885898
vn 0.4886893 0.3515025 0.7985166
vn 0.9474538 0.1344262 0.2902772
vn 0.8006556 0.4550502 0.3897179
vn 0.1836274 0.2586531 0.9483562
vn -0.3153759 0.7579988 0.5709431
vn -0.2231828 0.913495 0.340171
vn -0.7973238 0.5606158 0.2235728
vn -0.6797819 0.4501148 0.5790452
vn -0.5167209 0.8125774 0.2696616
vn -0.8066468 0.5699981 0.1562789
vn -0.4948694 0.8629239 -0.1023067
vn -0.1433758 0.9893193 -0.02628402
vn 0.3001511 0.9249521 0.2331802
vn 0.6092585 0.7660024 -0.2050477
vn -0.05340921 0.8666272 -0.4960896
vn 0.6092585 0.7660024 -0.2050477
vn 0.8217212 0.5103099 0.2536891
vn 0.4080914 0.8446515 0.3464466
vn 0.7760587 0.3635953 -0.5152974
vn 0.9250229 0.003449955 0.3798957
vn 0.9810717 -0.1681663 -0.0960136
vn 0.8006556 0.4550502 0.3897179
vn 0.5425057 0.739839 0.3979018
vn 0.7878948 -0.5172387 0.3341945
vn 0.8032709 -0.3132131 0.5066097
vn 0.5981586 -0.7973505 0.0802406
vn 0.7797797 -0.5420648 -0.3132242
vn 0.9831999 -0.1823203 -0.008792855
vn 0.9474538 0.1344262 0.2902772
vn 0.564885 -0.779776 0.2699154
vn 0.1656817 -0.7738901 0.6112639
vn 0.1999898 -0.9776573 -0.06473356
vn 0.5068291 -0.7863722 0.3531895
vn 0.7900616 -0.5476937 0.27538
vn 0.4886893 0.3515025 0.7985166
vn -0.05340921 0.8666272 -0.4960896
vn 0.7760587 0.3635953 -0.5152974
vn 0.6092585 0.7660024 -0.2050477
vn 0.6011665 0.2665539 -0.7533577
vn 0.9810717 -0.1681663 -0.0960136
vn 0.03881983 0.4949591 -0.8680487
vn 0.7797797 -0.5420648 -0.3132242
vn -0.190372 -0.1957561 -0.9619969
vn 0.4925844 -0.7111568 -0.5016139
vn 0.4374964 -0.2940648 -0.8497781
vn 0.2257665 -0.7699955 -0.5967717
vn 0.7797797 -0.5420648 -0.3132242
vn 0.4925844 -0.7111568 -0.5016139
vn 0.5981586 -0.7973505 0.0802406
vn 0.1999898 -0.9776573 -0.06473356
vn -0.164506 -0.8964252 -0.4115333
vn 0.2257665 -0.7699955 -0.5967717
vn -0.08015171 -0.9659449 0.2460204
vn 0.1656817 -0.7738901 0.6112639
vn -0.2487817 -0.9191701 0.3053425
vn -0.6506274 -0.6769001 0.3442239
vn -0.8270893 -0.5539848 0.0949951
vn -0.190372 -0.1957561 -0.9619969
vn 0.4374964 -0.2940648 -0.8497781
vn -0.6285179 -0.3082777 -0.714094
vn -0.9470026 -0.2096571 -0.2433719
vn -0.08015171 -0.9659449 0.2460204
vn -0.2487817 -0.9191701 0.3053425
vn 0.1656817 -0.7738901 0.6112639
vn -0.2250461 -0.8182369 0.5290016
vn -0.6933951 -0.4820883 0.5355316
vn -0.5838724 -0.8105946 0.04504991
vn -0.6506274 -0.6769001 0.3442239
vn -0.8270893 -0.5539848 0.0949951
vn -0.9516295 0.1587953 0.2630312
vn 0.06731623 -0.8664545 0.4946969
vn 0.1831571 -0.3955803 0.8999832
vn 0.564885 -0.779776 0.2699154
vn 0.564885 -0.779776 0.2699154
vn 0.13706 -0.7363829 0.6625367
vn 0.5068291 -0.7863722 0.3531895
vn 0.06731623 -0.8664545 0.4946969
vn -0.2574789 -0.7694463 0.5845143
vn -0.2250461 -0.8182369 0.5290016
vn -0.5549117 -0.8298478 0.05852798
vn -0.5838724 -0.8105946 0.04504991
vn -0.7202026 -0.4721424 0.5083205
vn -0.2574789 -0.7694463 0.5845143
vn -0.5549117 -0.8298478 0.05852798
vn -0.6481395 -0.0004627316 0.7615215
vn -0.9991844 -0.03597668 0.0183363
vn -0.7973238 0.5606158 0.2235728
vn -0.6797819 0.4501148 0.5790452
vn -0.3884361 -0.143005 0.9103115
vn 0.13706 -0.7363829 0.6625367
vn -0.5216823 0.2615427 0.812061
vn -0.3153759 0.7579988 0.5709431
vn -0.2288557 0.268077 0.9358204
vn 0.1836274 0.2586531 0.9483562
vn 0.01152661 -0.2876031 0.9576803
vn 0.5068291 -0.7863722 0.3531895
vn 0.4886893 0.3515025 0.7985166
vn 0.7900616 -0.5476937 0.27538
vn -0.8066468 0.5699981 0.1562789
vn -0.7973238 0.5606158 0.2235728
vn -0.9991844 -0.03597668 0.0183363
vn -0.9874621 -0.02009656 -0.1565714
vn -0.5838724 -0.8105946 0.04504991
vn -0.5549117 -0.8298478 0.05852798
vn -0.7202026 -0.4721424 0.5083205
vn -0.6933951 -0.4820883 0.5355316
vn -0.9516295 0.1587953 0.2630312
vn -0.8526666 0.5215986 -0.02991035
vn -0.9470026 -0.2096571 -0.2433719
vn -0.8270893 -0.5539848 0.0949951
vn -0.6285179 -0.3082777 -0.714094
vn -0.4948694 0.8629239 -0.1023067
vn -0.5167209 0.8125774 0.2696616
vn -0.5822267 0.5143965 -0.6296096
vn -0.190372 -0.1957561 -0.9619969
vn 0.03881983 0.4949591 -0.8680487
vn -0.05340921 0.8666272 -0.4960896
vn -0.1433758 0.9893193 -0.02628402
vn -0.144355 0.8007177 0.5813888
vn -0.9029256 0.3553334 0.2417925
vn -0.6628298 0.6560629 -0.3608851
vn -0.1462628 0.9696892 0.1957296
vn 0.2049231 0.9715148 -0.1190193
vn 0.3140654 0.645763 0.6959548
vn 0.6680724 0.6515864 0.359325
vn 0.766092 0.6411601 -0.04490833
vn 0.4049128 0.8645233 -0.2977331
vn -0.205656 0.958703 -0.1964542
vn -0.2398085 0.4106897 -0.8796737
vn 0.2516792 0.4410199 -0.8614866
vn 0.6034843 0.4868472 -0.6314955
vn -0.9029256 0.3553334 0.2417925
vn -0.8949433 -0.4445812 -0.03773739
vn -0.6628298 0.6560629 -0.3608851
vn -0.5428226 -0.6621456 -0.5166304
vn -0.2398085 0.4106897 -0.8796737
vn -0.2316695 -0.4297244 -0.8727348
vn -0.8949433 -0.4445812 -0.03773739
vn -0.9029256 0.3553334 0.2417925
vn -0.496275 -0.5032308 0.707439
vn -0.144355 0.8007177 0.5813888
vn -0.118775 -0.4968407 0.8596755
vn 0.3063565 0.1898222 0.9327986
vn 0.3140654 0.645763 0.6959548
vn -0.5428226 -0.6621456 -0.5166304
vn -0.8949433 -0.4445812 -0.03773739
vn -0.496275 -0.5032308 0.707439
vn -0.06676569 -0.9977633 -0.003282422
vn -0.2316695 -0.4297244 -0.8727348
vn 0.2427272 -0.7122532 -0.658619
vn 0.4864517 -0.7341561 -0.4736873
vn -0.118775 -0.4968407 0.8596755
vn 0.2993903 -0.8330513 0.4651785
vn 0.6860875 -0.2651909 0.6774641
vn 0.8251297 -0.4217722 -0.3758579
vn 0.9025632 -0.3651408 0.2281488
vn 0.3063565 0.1898222 0.9327986
vn 0.6860875 -0.2651909 0.6774641
vn -0.118775 -0.4968407 0.8596755
vn 0.3140654 0.645763 0.6959548
vn 0.6680724 0.6515864 0.359325
vn 0.9367547 0.3143197 0.1539279
vn 0.9025632 -0.3651408 0.2281488
vn 0.8251297 -0.4217722 -0.3758579
vn 0.766092 0.6411601 -0.04490833
vn 0.6034843 0.4868472 -0.6314955
vn 0.4049128 0.8645233 -0.2977331
vn 0.6034843 0.4868472 -0.6314955
vn 0.4864517 -0.7341561 -0.4736873
vn 0.8251297 -0.4217722 -0.3758579
vn 0.2516792 0.4410199 -0.8614866
vn 0.2427272 -0.7122532 -0.658619
vn -0.2316695 -0.4297244 -0.8727348
vn -0.2398085 0.4106897 -0.8796737
vn 0.6697812 0.4536381 0.5878823
vn 0.3997709 0.1649978 0.9016423
vn 0.238711 0.5122207 0.8250133
vn -0.2043676 -0.01195723 0.9788212
vn -0.1216787 0.5787279 0.8063922
vn -0.03795507 0.3243284 0.9451828
vn 0.4196845 0.4964288 0.7598838
vn 0.3281004 0.7888222 0.5197208
vn -0.3709918 -0.05489991 0.9270118
vn -0.7764316 0.3815745 0.5015525
vn -0.3492769 0.6901191 0.6338305
vn -0.8552488 -0.4238239 0.2981992
vn -0.5099244 -0.7094456 0.4864813
vn -0.4132577 -0.7980652 0.4385316
vn -0.1513152 0.3151942 0.9368865
vn -0.04184143 -0.8206595 0.5698836
vn 0.2507102 0.2025531 0.9466344
vn 0.5133725 -0.8350239 0.1979488
vn 0.7849448 0.2748959 0.5552422
vn 0.4954279 0.4980649 0.7116759
vn 0.7239507 0.4316674 0.5381066
vn 0.6522151 0.4383794 0.6184165
vn 0.7130929 0.5400872 0.4469947
vn 0.8304948 0.4673992 0.3030123
vn 0.8264973 0.5627784 -0.01351865
vn 0.6522151 0.4383794 0.6184165
vn 0.9717798 0.03422622 0.2333938
vn 0.7130929 0.5400872 0.4469947
vn 0.7849448 0.2748959 0.5552422
vn 0.5133725 -0.8350239 0.1979488
vn 0.4868915 -0.8592821 -0.1567513
vn 0.8846285 -0.2175982 -0.4124119
vn 0.553462 -0.7680091 -0.3222451
vn 0.1064352 -0.6700703 -0.7346274
vn 0.4833259 -0.6371589 -0.6003537
vn 0.9772069 0.1675058 -0.1304161
vn 0.9323447 0.2480643 -0.2630543
vn 0.8928254 0.4327165 0.1249769
vn 0.8901877 -0.1784493 -0.4191917
vn 0.9889746 0.1373195 -0.05543021
vn 0.6554564 -0.7095585 -0.2586573
vn 0.6003442 -0.3570444 -0.715616
vn 0.169899 -0.8248014 -0.5392929
vn 0.7772323 0.2885847 -0.5591323
vn 0.839471 -0.08432969 -0.5368211
vn 0.4247298 -0.1185806 -0.8975206
vn 0.9581821 0.2790464 0.06340478
vn 0.6614769 -0.428154 -0.6157374
vn 0.8581988 0.09921887 -0.5036371
vn 0.8959218 0.3853478 0.2209781
vn 0.8421932 0.5179987 0.1496261
vn 0.6747905 0.578164 -0.4586764
vn 0.4969742 0.8657424 0.05921724
vn 0.6610602 0.6726605 0.3324565
vn 0.8304948 0.4673992 0.3030123
vn 0.7239507 0.4316674 0.5381066
vn 0.6697812 0.4536381 0.5878823
vn 0.3997709 0.1649978 0.9016423
vn 0.4954279 0.4980649 0.7116759
vn 0.4196845 0.4964288 0.7598838
vn 0.4868915 -0.8592821 -0.1567513
vn -0.04184143 -0.8206595 0.5698836
vn 0.5133725 -0.8350239 0.1979488
vn -0.4132577 -0.7980652 0.4385316
vn -0.2643737 -0.908217 -0.3244202
vn 0.553462 -0.7680091 -0.3222451
vn 0.1064352 -0.6700703 -0.7346274
vn -0.1720746 -0.7011197 -0.6919693
vn -0.5099244 -0.7094456 0.4864813
vn -0.2680292 -0.8905273 -0.3675886
vn -0.2058706 -0.6869128 -0.6969706
vn -0.8576925 -0.442152 -0.2624219
vn -0.8552488 -0.4238239 0.2981992
vn -0.1884908 -0.8520518 -0.4883431
vn 0.01178068 -0.675086 -0.737645
vn -0.3160066 -0.8733709 -0.3706252
vn -0.7512545 -0.4834971 -0.4492742
vn -0.5712095 -0.3891809 -0.7226741
vn -0.220241 -0.646235 -0.7306671
vn 0.169899 -0.8248014 -0.5392929
vn 0.04733411 -0.398637 -0.9158865
vn 0.6003442 -0.3570444 -0.715616
vn 0.6554564 -0.7095585 -0.2586573
vn 0.4833259 -0.6371589 -0.6003537
vn 0.4954279 0.4980649 0.7116759
vn 0.3281004 0.7888222 0.5197208
vn 0.4196845 0.4964288 0.7598838
vn 0.7130929 0.5400872 0.4469947
vn 0.7849448 0.2748959 0.5552422
vn 0.2507102 0.2025531 0.9466344
vn -0.1513152 0.3151942 0.9368865
vn -0.03795507 0.3243284 0.9451828
vn -0.3709918 -0.05489991 0.9270118
vn -0.6994455 0.2940586 -0.6513874
vn -0.7512545 -0.4834971 -0.4492742
vn -0.5712095 -0.3891809 -0.7226741
vn -0.810635 0.3951501 -0.4321193
vn -0.8576925 -0.442152 -0.2624219
vn -0.7764316 0.3815745 0.5015525
vn -0.8552488 -0.4238239 0.2981992
vn -0.710593 0.6823669 -0.1715604
vn -0.1762312 0.9794312 0.09827004
vn -0.3977106 0.8770555 -0.2694438
vn -0.3492769 0.6901191 0.6338305
vn 0.839471 -0.08432969 -0.5368211
vn 0.6614769 -0.428154 -0.6157374
vn 0.4247298 -0.1185806 -0.8975206
vn 0.1696007 -0.1458323 -0.9746633
vn 0.2629885 0.06268175 -0.9627607
vn 0.6614769 -0.428154 -0.6157374
vn 0.8581988 0.09921887 -0.5036371
vn 0.1696007 -0.1458323 -0.9746633
vn 0.6747905 0.578164 -0.4586764
vn 0.2177873 0.692264 -0.6879966
vn 0.4969742 0.8657424 0.05921724
vn 0.1225533 0.9848428 -0.1227411
vn 0.05576527 0.3447343 -0.9370425
vn 0.06105768 -0.03472329 -0.99753
vn 0.02073351 0.8078802 -0.5889819
vn -0.176553 0.7511682 -0.6360625
vn 0.2629885 0.06268175 -0.9627607
vn 0.02153571 0.9997657 0.002201464
vn 0.33857 0.2634975 -0.9032937
vn 0.4247298 -0.1185806 -0.8975206
vn 0.7772323 0.2885847 -0.5591323
vn 0.6003442 -0.3570444 -0.715616
vn 0.04733411 -0.398637 -0.9158865
vn -0.3977106 0.8770555 -0.2694438
vn -0.1762312 0.9794312 0.09827004
vn -0.710593 0.6823669 -0.1715604
vn -0.810635 0.3951501 -0.4321193
vn -0.2997839 0.515498 -0.8027399
vn -0.6994455 0.2940586 -0.6513874
vn -0.128813 0.2936974 -0.9471795
vn -0.5712095 -0.3891809 -0.7226741
vn -0.1840426 -0.08355932 -0.9793601
vn -0.220241 -0.646235 -0.7306671
vn 0.4969742 0.8657424 0.05921724
vn 0.02153571 0.9997657 0.002201464
vn 0.1225533 0.9848428 -0.1227411
vn 0.6610602 0.6726605 0.3324565
vn 0.3765954 0.8005782 0.4661011
vn 0.6697812 0.4536381 0.5878823
vn 0.238711 0.5122207 0.8250133
vn -0.1216787 0.5787279 0.8063922
vn -0.1762312 0.9794312 0.09827004
vn -0.3492769 0.6901191 0.6338305
vn 0.01178068 -0.675086 -0.737645
vn 0.1064352 -0.6700703 -0.7346274
vn 0.4833259 -0.6371589 -0.6003537
vn -0.1720746 -0.7011197 -0.6919693
vn -0.2058706 -0.6869128 -0.6969706
vn -0.7481303 -0.3531807 0.5617514
vn -0.1265376 0.1434605 0.9815331
vn 0.0299299 -0.2405275 0.9701808
vn -0.7098415 0.3351187 0.6195324
vn -0.9870092 0.09150024 0.132062
vn -0.6846553 -0.7148713 0.142148
vn -0.9057662 -0.1501675 -0.3962793
vn -0.7656281 0.6345952 -0.1053685
vn -0.3085066 0.8739011 0.3756601
vn -0.4153583 0.8757252 -0.2461362
vn -0.463922 0.6075187 -0.6447461
vn -0.3729981 0.01089318 -0.9277682
vn 0.624388 0.02329438 -0.7807669
vn 0.5563296 0.5477229 -0.6248977
vn 0.2590874 0.3501262 -0.9001585
vn 0.801011 0.4627312 -0.3798173
vn 0.8083094 -0.36791 -0.45965
vn 0.3708604 -0.531999 -0.7612093
vn 0.9101237 0.4123443 -0.04058451
vn 0.6938716 -0.6993782 0.1715004
vn 0.5568568 -0.8246353 -0.0994347
vn 0.9404212 -0.05281334 0.3358851
vn 0.7073852 0.5725908 0.4144223
vn 0.8192763 -0.4439239 0.3629296
vn -0.564439 -0.3137914 -0.7635075
vn -0.9057662 -0.1501675 -0.3962793
vn -0.40592 -0.8185555 -0.406443
vn -0.6846553 -0.7148713 0.142148
vn 0.003264787 -0.8347012 -0.5506935
vn 0.09792425 -0.9921004 0.07840779
vn -0.2987652 -0.8121417 0.5011638
vn -0.7481303 -0.3531807 0.5617514
vn 0.1714636 -0.6352004 0.7530741
vn 0.6938716 -0.6993782 0.1715004
vn 0.5568568 -0.8246353 -0.0994347
vn 0.3708604 -0.531999 -0.7612093
vn 0.8083094 -0.36791 -0.45965
vn -0.463922 0.6075187 -0.6447461
vn -0.3729981 0.01089318 -0.9277682
vn 0.2590874 0.3501262 -0.9001585
vn 0.3708604 -0.531999 -0.7612093
vn 0.624388 0.02329438 -0.7807669
vn 0.003264787 -0.8347012 -0.5506935
vn -0.564439 -0.3137914 -0.7635075
vn -0.40592 -0.8185555 -0.406443
vn -0.9057662 -0.1501675 -0.3962793
vn -0.7098415 0.3351187 0.6195324
vn -0.3085066 0.8739011 0.3756601
vn -0.1417152 0.6409874 0.7543553
vn 0.0861185 0.9325614 0.3505892
vn 0.4255182 0.6069455 0.6712313
vn 0.7073852 0.5725908 0.4144223
vn 0.07038452 0.9946196 -0.07601234
vn -0.7656281 0.6345952 -0.1053685
vn -0.4153583 0.8757252 -0.2461362
vn 0.4003525 0.8996304 0.1743076
vn 0.9101237 0.4123443 -0.04058451
vn 0.801011 0.4627312 -0.3798173
vn 0.2904933 0.8618537 -0.4157185
vn -0.463922 0.6075187 -0.6447461
vn 0.5563296 0.5477229 -0.6248977
vn 0.2590874 0.3501262 -0.9001585
vn 0.8192763 -0.4439239 0.3629296
vn 0.6938716 -0.6993782 0.1715004
vn 0.1714636 -0.6352004 0.7530741
vn 0.5616431 0.01475984 0.827248
vn 0.9404212 -0.05281334 0.3358851
vn 0.0299299 -0.2405275 0.9701808
vn -0.2987652 -0.8121417 0.5011638
vn -0.7481303 -0.3531807 0.5617514
vn -0.1265376 0.1434605 0.9815331
vn 0.4255182 0.6069455 0.6712313
vn 0.7073852 0.5725908 0.4144223
vn -0.1417152 0.6409874 0.7543553
vn -0.7098415 0.3351187 0.6195324
vn 0.9844663 0.1521557 0.08760558
vn 0.5781465 -0.365624 0.7294284
vn 0.5253139 0.05946105 0.8488284
vn 0.8329702 -0.5454481 0.09299008
vn 0.8706347 -0.2481616 -0.4247482
vn 0.7892888 0.5843155 -0.1886763
vn 0.6024139 0.1030488 -0.791504
vn 0.4524578 -0.7025959 -0.5492185
vn 0.2425335 -0.9685426 0.05570274
vn 0.03735343 -0.8654042 -0.4996801
vn -0.06989864 -0.5497237 -0.832417
vn -0.1566554 0.1287952 -0.9792196
vn -0.9321335 0.2110306 -0.2942674
vn -0.9018232 -0.3547864 -0.2466608
vn -0.7601017 -0.141163 -0.6342857
vn -0.955978 -0.2806347 0.08573305
vn -0.8226293 0.56082 0.09360501
vn -0.5794898 0.7233962 -0.3753525
vn -0.8693266 -0.2747437 0.4108372
vn -0.3439872 0.7520289 0.5622501
vn -0.3325588 0.8988728 0.2853636
vn -0.6139316 0.1069194 0.7820845
vn -0.5169881 -0.5539858 0.6525512
vn -0.4077121 0.4887224 0.7713114
vn 0.1706517 0.3947435 -0.9028043
vn 0.6024139 0.1030488 -0.791504
vn 0.3171386 0.8248162 -0.4680827
vn 0.7892888 0.5843155 -0.1886763
vn -0.093043 0.9243056 -0.370138
vn 0.1757637 0.9652398 0.1934406
vn 0.6824288 0.6612541 0.3115028
vn 0.9844663 0.1521557 0.08760558
vn 0.3730659 0.5177737 0.769891
vn -0.3439872 0.7520289 0.5622501
vn -0.3325588 0.8988728 0.2853636
vn -0.5794898 0.7233962 -0.3753525
vn -0.8226293 0.56082 0.09360501
vn -0.06989864 -0.5497237 -0.832417
vn -0.1566554 0.1287952 -0.9792196
vn -0.7601017 -0.141163 -0.6342857
vn -0.5794898 0.7233962 -0.3753525
vn -0.9321335 0.2110306 -0.2942674
vn -0.093043 0.9243056 -0.370138
vn 0.1706517 0.3947435 -0.9028043
vn 0.3171386 0.8248162 -0.4680827
vn 0.6024139 0.1030488 -0.791504
vn 0.8329702 -0.5454481 0.09299008
vn 0.2425335 -0.9685426 0.05570274
vn 0.3650651 -0.8008028 0.4748077
vn -0.1082254 -0.9659958 0.2348177
vn -0.1647836 -0.6734374 0.7206445
vn -0.5169881 -0.5539858 0.6525512
vn -0.3129854 -0.9436058 -0.107927
vn 0.4524578 -0.7025959 -0.5492185
vn 0.03735343 -0.8654042 -0.4996801
vn -0.4383949 -0.8586196 0.2656731
vn -0.8693266 -0.2747437 0.4108372
vn -0.955978 -0.2806347 0.08573305
vn -0.6324975 -0.7328891 -0.2506402
vn -0.06989864 -0.5497237 -0.832417
vn -0.9018232 -0.3547864 -0.2466608
vn -0.7601017 -0.141163 -0.6342857
vn -0.4077121 0.4887224 0.7713114
vn -0.3439872 0.7520289 0.5622501
vn 0.3730659 0.5177737 0.769891
vn -0.07259149 -0.1067302 0.9916346
vn -0.6139316 0.1069194 0.7820845
vn 0.5253139 0.05946105 0.8488284
vn 0.6824288 0.6612541 0.3115028
vn 0.9844663 0.1521557 0.08760558
vn 0.5781465 -0.365624 0.7294284
vn -0.1647836 -0.6734374 0.7206445
vn -0.5169881 -0.5539858 0.6525512
vn 0.3650651 -0.8008028 0.4748077
vn 0.8329702 -0.5454481 0.09299008
vt 0.5389954 0.1870256
vt 0.540202 0.1881121
vt 0.540202 0.1839838
vt 0.7425426 0.3166504
vt 0.7425426 0.3287616
vt 0.7470956 0.3260117
vt 0.8710017 0.6129343
vt 0.8807918 0.6125444
vt 0.8805678 0.6117622
vt 0.8702493 0.6140317
vt 0.8661764 0.6110345
vt 0.8695937 0.6084467
vt 0.8735659 0.6109092
vt 0.8610396 0.6162945
vt 0.8610396 0.6340702
vt 0.86597 0.635429
vt 0.8647916 0.6432339
vt 0.8631822 0.6407696
vt 0.866674 0.6388089
vt 0.869656 0.6424786
vt 0.8826451 0.6463094
vt 0.8875995 0.6412229
vt 0.8863589 0.6159068
vt 0.8873636 0.6159624
vt 0.8887025 0.6405653
vt 0.9911202 0.07930215
vt 0.9843293 0.07834064
vt 0.9845531 0.07909079
vt 0.9936775 0.07282622
vt 0.9819492 0.07271025
vt 0.985877 0.06517619
vt 0.9773247 0.07483917
vt 0.9747605 0.07742411
vt 0.9846677 0.06467791
vt 0.9781521 0.07374761
vt 0.9864793 0.05292633
vt 0.9871752 0.05308631
vt 0.9769713 0.07388805
vt 0.9733552 0.0740333
vt 0.9739546 0.06447783
vt 0.9699377 0.0563447
vt 0.984683 0.05004153
vt 0.9699589 0.06639614
vt 0.9730251 0.07310108
vt 0.9699377 0.07721075
vt 0.9431086 0.3729551
vt 0.9495237 0.3484102
vt 0.9431086 0.3483312
vt 0.961915 0.357926
vt 0.9577451 0.34211
vt 0.9591026 0.3700104
vt 0.9695378 0.3469758
vt 0.9666297 0.3721064
vt 0.9720743 0.3521928
vt 0.9704171 0.3595209
vt 0.9711145 0.3593034
vt 0.930625 0.9840347
vt 0.9370875 0.983345
vt 0.9301321 0.9835423
vt 0.9317398 0.9795269
vt 0.949124 0.9655097
vt 0.9466722 0.9831952
vt 0.9298683 0.9619418
vt 0.9242597 0.9663304
vt 0.9313333 0.9598699
vt 0.9385949 0.9517799
vt 0.9450651 0.9517799
vt 0.9561991 0.9745953
vt 0.9473201 0.9835651
vt 0.9563089 0.9549564
vt 0.956009 0.9543625
vt 0.4272968 0.857531
vt 0.4275302 0.8600417
vt 0.4326928 0.8505763
vt 0.4348907 0.8580964
vt 0.4360385 0.8685742
vt 0.4367636 0.8683991
vt 0.4297653 0.8709487
vt 0.4302114 0.8754812
vt 0.4404008 0.8733295
vt 0.4366338 0.8516401
vt 0.4390829 0.8449314
vt 0.4404008 0.8433356
vt 0.9464427 0.2598051
vt 0.954973 0.2668127
vt 0.9507968 0.2588765
vt 0.9496837 0.2690736
vt 0.953772 0.2760095
vt 0.9478757 0.2753219
vt 0.9490514 0.2862949
vt 0.9464427 0.285513
vt 0.7251412 0.9387042
vt 0.7260121 0.9499257
vt 0.7260121 0.9388497
vt 0.7210589 0.9395788
vt 0.7206081 0.9346186
vt 0.7165377 0.9361105
vt 0.7154211 0.9386201
vt 0.7181883 0.9495437
vt 0.7242096 0.9593155
vt 0.712059 0.945542
vt 0.7115688 0.9455966
vt 0.713192 0.9542674
vt 0.7130485 0.9632984
vt 0.7182907 0.959801
vt 0.7241172 0.9662154
vt 0.7135373 0.9687229
vt 0.7180896 0.9709266
vt 0.1174494 0.9606766
vt 0.1173462 0.9557968
vt 0.1131913 0.9555669
vt 0.1113392 0.9595001
vt 0.1065889 0.9547479
vt 0.107902 0.9520462
vt 0.1087461 0.9515027
vt 0.1058891 0.955321
vt 0.1106021 0.9608671
vt 0.1181832 0.9713714
vt 0.1015827 0.9699488
vt 0.1004795 0.9606178
vt 0.1013114 0.9705846
vt 0.1240512 0.9737422
vt 0.1206345 0.9578229
vt 0.1179108 0.9725041
vt 0.1004795 0.9849478
vt 0.1079616 0.985841
vt 0.1242594 0.9799005
vt 0.1246392 0.9787944
vt 0.03138638 0.9616129
vt 0.03138638 0.9837685
vt 0.04050669 0.9808036
vt 0.03685835 0.9659076
vt 0.04128483 0.9648924
vt 0.03178785 0.9542832
vt 0.04196904 0.9519945
vt 0.05004634 0.9545934
vt 0.05320426 0.9596139
vt 0.03924562 0.9682927
vt 0.05261936 0.9775784
vt 0.05514465 0.9649611
vt 0.05470362 0.9596914
vt 0.5148264 0.1703465
vt 0.5134332 0.1709048
vt 0.5245718 0.1787596
vt 0.5134332 0.185386
vt 0.5229986 0.1909596
vt 0.516386 0.1922251
vt 0.5039401 0.9763387
vt 0.5049878 0.975278
vt 0.4957405 0.9662197
vt 0.5049878 0.950578
vt 0.4910701 0.9544601
vt 0.4940601 0.9465327
vt 0.498192 0.945752
vt 0.9676428 0.6666525
vt 0.9676428 0.6817169
vt 0.981043 0.6825306
vt 0.9788693 0.6625502
vt 0.9681523 0.6591885
vt 0.9810668 0.6522257
vt 0.9847961 0.6513469
vt 0.9929177 0.6781329
vt 0.9969645 0.6691415
vt 0.998731 0.6682855
vt 0.9887019 0.650642
vt 0.997072 0.656968
vt 0.06079287 0.9117912
vt 0.05627532 0.9062072
vt 0.05500836 0.9141653
vt 0.064854 0.9107535
vt 0.06377608 0.9005896
vt 0.05926494 0.8949344
vt 0.05715083 0.8948386
vt 0.05500836 0.8865439
vt 0.06555883 0.8924815
vt 0.06745094 0.8877903
vt 0.06849886 0.8892736
vt 0.8434696 0.08615963
vt 0.8575693 0.08836468
vt 0.8562428 0.08417165
vt 0.8438768 0.09157601
vt 0.8570677 0.09216338
vt 0.8500619 0.1054779
vt 0.8434696 0.1041876
vt 0.3636625 0.9482401
vt 0.3606167 0.9586986
vt 0.3649433 0.9478837
vt 0.37964 0.961935
vt 0.3833148 0.9511341
vt 0.3695968 0.9685471
vt 0.3554054 0.9677335
vt 0.3544984 0.9686193
vt 0.3841166 0.9735548
vt 0.3932849 0.9585929
vt 0.3904316 0.9528113
vt 0.3936097 0.9855056
vt 0.3832323 0.9875146
vt 0.3684051 0.9900082
vt 0.3689681 0.9706473
vt 0.3563577 0.9885761
vt 0.3560211 0.9702122
vt 0.3517428 0.9890574
vt 0.3517428 0.9695542
vt 0.3741972 0.1906646
vt 0.3741972 0.1789547
vt 0.3719299 0.1825599
vt 0.371998 0.1931022
vt 0.4751993 0.9530684
vt 0.4662849 0.9572511
vt 0.4769292 0.9575329
vt 0.4795833 0.9702534
vt 0.480527 0.9689078
vt 0.488532 0.9701424
vt 0.4852166 0.9892787
vt 0.4782661 0.9899385
vt 0.4611419 0.9805609
vt 0.4627472 0.9874794
vt 0.4581938 0.9866593
vt 0.4571832 0.9807746
vt 0.4649422 0.969395
vt 0.4611928 0.9692916
vt 0.4629322 0.9543063
vt 0.457644 0.9798463
vt 0.4515416 0.9712705
vt 0.4521004 0.9793986
vt 0.445618 0.9779887
vt 0.4458944 0.9785158
vt 0.4464267 0.9722339
vt 0.4471986 0.9683406
vt 0.4460779 0.9682214
vt 0.4526446 0.9674072
vt 0.4456731 0.9650525
vt 0.445618 0.9635366
vt 0.4528246 0.9697949
vt 0.4524715 0.947963
vt 0.4460355 0.9534695
vt 0.452434 0.946876
vt 0.4743263 0.945752
vt 0.4751993 0.9530684
vt 0.4765724 0.9542337
vt 0.4824728 0.9460034
vt 0.4851623 0.9575078
vt 0.4795913 0.9666498
vt 0.4852012 0.9672251
vt 0.7627567 0.9380442
vt 0.7731614 0.9400893
vt 0.7694379 0.9368152
vt 0.7731614 0.9535966
vt 0.7606475 0.9560816
vt 0.746037 0.9390393
vt 0.7430876 0.9437463
vt 0.7467132 0.9592749
vt 0.7730583 0.9700508
vt 0.7547939 0.976435
vt 0.7452636 0.9661834
vt 0.7586926 0.984879
vt 0.7708481 0.9826135
vt 0.7446027 0.9676374
vt 0.7404849 0.9442501
vt 0.7526478 0.983014
vt 0.7523538 0.9841662
vt 0.7387584 0.9831064
vt 0.7323748 0.9755964
vt 0.7291451 0.946564
vt 0.7285742 0.9562603
vt 0.7286533 0.946428
vt 0.7347703 0.9438605
vt 0.740249 0.9432116
vt 0.1558637 0.9400721
vt 0.1493691 0.9417527
vt 0.1501732 0.9426811
vt 0.1545061 0.9372717
vt 0.146376 0.938797
vt 0.1435346 0.9428871
vt 0.1485039 0.9562848
vt 0.15239 0.9571218
vt 0.1558637 0.9722091
vt 0.4249051 0.9724241
vt 0.4136918 0.9839968
vt 0.4252678 0.9827701
vt 0.4220306 0.966472
vt 0.4082621 0.9830559
vt 0.3977831 0.9536578
vt 0.3961477 0.980684
vt 0.4180492 0.9540945
vt 0.416774 0.947996
vt 0.4182276 0.9504541
vt 0.3966103 0.947996
vt 0.1994002 0.5521623
vt 0.1965593 0.5518848
vt 0.198946 0.55354
vt 0.1967263 0.5566928
vt 0.1994002 0.5588964
vt 0.6111004 0.9479151
vt 0.6096594 0.9476733
vt 0.6114251 0.9519761
vt 0.5997953 0.9501439
vt 0.5990934 0.9558325
vt 0.5916495 0.9538615
vt 0.5901026 0.9694812
vt 0.6089551 0.9656495
vt 0.6113361 0.9607402
vt 0.5931224 0.9693633
vt 0.5963414 0.974349
vt 0.6140131 0.9555229
vt 0.5874141 0.9773868
vt 0.6175875 0.9539906
vt 0.6139843 0.9508689
vt 0.6178078 0.9484323
vt 0.6235647 0.9486954
vt 0.623455 0.9574165
vt 0.5900023 0.9865513
vt 0.5875289 0.9850451
vt 0.5932675 0.990023
vt 0.6060525 0.9903895
vt 0.6093737 0.9788197
vt 0.6125858 0.987844
vt 0.6173677 0.9753832
vt 0.6231391 0.9860035
vt 0.6229826 0.9761838
vt 0.6235647 0.9764088
vt 0.7479517 0.5253449
vt 0.7246638 0.519815
vt 0.7312331 0.5253449
vt 0.7490082 0.5038022
vt 0.7453986 0.4953935
vt 0.7461189 0.4945928
vt 0.7451049 0.4936747
vt 0.7260652 0.4920161
vt 0.7180433 0.5157087
vt 0.7176585 0.4942456
vt 0.4728225 0.1714235
vt 0.4777295 0.1726861
vt 0.4724409 0.1703466
vt 0.4770553 0.1881653
vt 0.4724409 0.1931893
vt 0.5358638 0.3668959
vt 0.5289875 0.3718322
vt 0.5305938 0.3726951
vt 0.5307497 0.364641
vt 0.5312053 0.364089
vt 0.5371056 0.3661768
vt 0.5383716 0.3581822
vt 0.5305713 0.3625929
vt 0.5300609 0.3637458
vt 0.5289875 0.355927
vt 0.5321016 0.3532113
vt 0.5336076 0.3533247
vt 0.8056725 0.7489631
vt 0.8114151 0.7482849
vt 0.8091474 0.7450089
vt 0.8117199 0.7518305
vt 0.8053226 0.7504216
vt 0.8040908 0.7487239
vt 0.8121409 0.753901
vt 0.8048567 0.7602181
vt 0.8040908 0.7587212
vt 0.8105446 0.7608045
vt 0.8113169 0.7606246
vt 0.8056027 0.7607998
vt 0.7992764 0.7607706
vt 0.8000396 0.760093
vt 0.798458 0.7598436
vt 0.8011816 0.7519253
vt 0.7955681 0.7599885
vt 0.7919882 0.7511125
vt 0.7984 0.7490363
vt 0.8015528 0.7508202
vt 0.7943745 0.7450092
vt 0.7902387 0.7494129
vt 0.7905161 0.7509981
vt 0.7918143 0.760815
vt 0.7902387 0.759031
vt 0.1812761 0.5520988
vt 0.1821135 0.5533566
vt 0.1824703 0.5518847
vt 0.1881531 0.555171
vt 0.1879976 0.5535277
vt 0.1857666 0.5592819
vt 0.1821154 0.5599087
vt 0.1832599 0.5607625
vt 0.1812761 0.5600664
vt 0.8146791 0.7573606
vt 0.8155907 0.7573779
vt 0.8146791 0.7483197
vt 0.8211553 0.752028
vt 0.8169195 0.7455465
vt 0.820469 0.7450091
vt 0.8257 0.7565827
vt 0.8163071 0.758433
vt 0.8252408 0.7578212
vt 0.8252808 0.7493475
vt 0.8257852 0.7488825
vt 0.8273058 0.7503457
vt 0.8267028 0.756254
vt 0.828383 0.7596037
vt 0.8277992 0.7551219
vt 0.8292662 0.7588183
vt 0.4171012 0.1793569
vt 0.4164731 0.1793074
vt 0.4176566 0.1837353
vt 0.4214749 0.1822043
vt 0.4219391 0.1789547
vt 0.4190897 0.1842855
vt 0.4158551 0.1875914
vt 0.4168813 0.1904636
vt 0.4209968 0.1849183
vt 0.4223402 0.1821342
vt 0.4227495 0.1792201
vt 0.4224581 0.1856936
vt 0.4227495 0.1922036
vt 0.5358638 0.3668959
vt 0.5289875 0.3718322
vt 0.5305938 0.3726951
vt 0.5307497 0.364641
vt 0.5312053 0.364089
vt 0.5371056 0.3661768
vt 0.5383716 0.3581822
vt 0.5305713 0.3625929
vt 0.5300609 0.3637458
vt 0.5289875 0.355927
vt 0.5321016 0.3532113
vt 0.5336076 0.3533247
vt 0.8056725 0.7489631
vt 0.8114151 0.7482849
vt 0.8091474 0.7450089
vt 0.8117199 0.7518305
vt 0.8053226 0.7504216
vt 0.8040908 0.7487239
vt 0.8121409 0.753901
vt 0.8048567 0.7602181
vt 0.8040908 0.7587212
vt 0.8105446 0.7608045
vt 0.8113169 0.7606246
vt 0.8056027 0.7607998
vt 0.7992764 0.7607706
vt 0.8000396 0.760093
vt 0.798458 0.7598436
vt 0.8011816 0.7519253
vt 0.7955681 0.7599885
vt 0.7919882 0.7511125
vt 0.7984 0.7490363
vt 0.8015528 0.7508202
vt 0.7943745 0.7450092
vt 0.7902387 0.7494129
vt 0.7905161 0.7509981
vt 0.7918143 0.760815
vt 0.7902387 0.759031
vt 0.1812761 0.5520988
vt 0.1821135 0.5533566
vt 0.1824703 0.5518847
vt 0.1881531 0.555171
vt 0.1879976 0.5535277
vt 0.1857666 0.5592819
vt 0.1821154 0.5599087
vt 0.1832599 0.5607625
vt 0.1812761 0.5600664
vt 0.8146791 0.7573606
vt 0.8155907 0.7573779
vt 0.8146791 0.7483197
vt 0.8211553 0.752028
vt 0.8169195 0.7455465
vt 0.820469 0.7450091
vt 0.8257 0.7565827
vt 0.8163071 0.758433
vt 0.8252408 0.7578212
vt 0.8252808 0.7493475
vt 0.8257852 0.7488825
vt 0.8273058 0.7503457
vt 0.8267028 0.756254
vt 0.828383 0.7596037
vt 0.8277992 0.7551219
vt 0.8292662 0.7588183
vt 0.4171012 0.1793569
vt 0.4164731 0.1793074
vt 0.4176566 0.1837353
vt 0.4214749 0.1822043
vt 0.4219391 0.1789547
vt 0.4190897 0.1842855
vt 0.4158551 0.1875914
vt 0.4168813 0.1904636
vt 0.4209968 0.1849183
vt 0.4223402 0.1821342
vt 0.4227495 0.1792201
vt 0.4224581 0.1856936
vt 0.4227495 0.1922036
usemtl MV_RockSpire_Rocks
f 1/1/1 3/3/3 2/2/2
f 4/4/4 6/6/6 5/5/5
f 7/7/7 9/9/9 8/8/8
f 7/7/7 8/8/8 10/10/10
f 11/11/11 7/7/7 10/10/10
f 7/7/7 11/11/11 12/12/12
f 7/7/7 12/12/12 13/13/13
f 10/10/10 14/14/14 11/11/11
f 10/10/10 15/15/15 14/14/14
f 10/10/10 16/16/16 15/15/15
f 10/10/10 8/8/8 16/16/16
f 16/16/16 17/17/17 15/15/15
f 18/18/18 15/15/15 17/17/17
f 16/16/16 19/19/19 17/17/17
f 19/19/19 20/20/20 17/17/17
f 19/19/19 16/16/16 21/21/21
f 22/22/22 21/21/21 16/16/16
f 22/22/22 16/16/16 8/8/8
f 23/23/23 22/22/22 8/8/8
f 23/23/23 8/8/8 24/24/24
f 22/22/22 23/23/23 24/24/24
f 22/22/22 24/24/24 25/25/25
f 26/26/26 28/28/28 27/27/27
f 26/26/26 27/27/27 29/29/29
f 27/27/27 30/30/30 29/29/29
f 30/30/30 31/31/31 29/29/29
f 32/32/32 30/30/30 27/27/27
f 27/27/27 33/33/33 32/32/32
f 31/31/31 30/30/30 34/34/34
f 30/30/30 32/32/32 35/35/35
f 34/34/34 30/30/30 35/35/35
f 31/31/31 34/34/34 36/36/36
f 31/31/31 36/36/36 37/37/37
f 38/38/38 35/35/35 32/32/32
f 39/39/39 38/38/38 32/32/32
f 34/34/34 35/35/35 40/40/40
f 36/36/36 34/34/34 40/40/40
f 35/35/35 38/38/38 40/40/40
f 36/36/36 40/40/40 41/41/41
f 42/42/42 36/36/36 41/41/41
f 38/38/38 43/43/43 40/40/40
f 38/38/38 44/44/44 43/43/43
f 44/44/44 38/38/38 39/39/39
f 45/45/45 44/44/44 39/39/39
f 46/46/46 48/48/48 47/47/47
f 47/47/47 49/49/49 46/46/46
f 47/47/47 50/50/50 49/49/49
f 49/49/49 51/51/51 46/46/46
f 50/50/50 52/52/52 49/49/49
f 49/49/49 53/53/53 51/51/51
f 52/52/52 54/54/54 49/49/49
f 49/49/49 55/55/55 53/53/53
f 54/54/54 55/55/55 49/49/49
f 56/56/56 55/55/55 54/54/54
f 57/57/57 59/59/59 58/58/58
f 59/59/59 60/60/60 58/58/58
f 60/60/60 61/61/61 58/58/58
f 61/61/61 62/62/62 58/58/58
f 60/60/60 63/63/63 61/61/61
f 60/60/60 64/64/64 63/63/63
f 65/65/65 61/61/61 63/63/63
f 61/61/61 65/65/65 66/66/66
f 67/67/67 61/61/61 66/66/66
f 68/68/68 62/62/62 61/61/61
f 68/68/68 69/69/69 62/62/62
f 70/70/70 68/68/68 61/61/61
f 70/70/70 61/61/61 67/67/67
f 71/71/71 70/70/70 67/67/67
f 72/72/72 74/74/74 73/73/73
f 74/74/74 75/75/75 73/73/73
f 75/75/75 76/76/76 73/73/73
f 75/75/75 77/77/77 76/76/76
f 76/76/76 78/78/78 73/73/73
f 76/76/76 79/79/79 78/78/78
f 76/76/76 80/80/80 79/79/79
f 74/74/74 81/81/81 75/75/75
f 82/82/82 81/81/81 74/74/74
f 74/74/74 83/83/83 82/82/82
f 82/82/82 83/83/83 81/81/81
f 84/84/84 86/86/86 85/85/85
f 84/84/84 85/85/85 87/87/87
f 88/88/88 87/87/87 85/85/85
f 88/88/88 89/89/89 87/87/87
f 89/89/89 88/88/88 90/90/90
f 89/89/89 90/90/90 91/91/91
f 92/92/92 94/94/94 93/93/93
f 93/93/93 95/95/95 92/92/92
f 95/95/95 96/96/96 92/92/92
f 96/96/96 95/95/95 97/97/97
f 95/95/95 98/98/98 97/97/97
f 95/95/95 93/93/93 99/99/99
f 99/99/99 98/98/98 95/95/95
f 99/99/99 93/93/93 100/100/100
f 98/98/98 99/99/99 101/101/101
f 98/98/98 101/101/101 102/102/102
f 102/102/102 101/101/101 103/103/103
f 101/101/101 99/99/99 103/103/103
f 102/102/102 103/103/103 104/104/104
f 105/105/105 99/99/99 100/100/100
f 103/103/103 99/99/99 105/105/105
f 103/103/103 105/105/105 104/104/104
f 106/106/106 105/105/105 100/100/100
f 105/105/105 107/107/107 104/104/104
f 106/106/106 108/108/108 105/105/105
f 105/105/105 108/108/108 107/107/107
f 109/109/109 111/111/111 110/110/110
f 109/109/109 112/112/112 111/111/111
f 113/113/113 111/111/111 112/112/112
f 113/113/113 114/114/114 111/111/111
f 115/115/115 111/111/111 114/114/114
f 112/112/112 116/116/116 113/113/113
f 112/112/112 117/117/117 116/116/116
f 112/112/112 109/109/109 117/117/117
f 118/118/118 117/117/117 109/109/109
f 117/117/117 118/118/118 119/119/119
f 120/120/120 117/117/117 119/119/119
f 118/118/118 121/121/121 119/119/119
f 118/118/118 109/109/109 122/122/122
f 109/109/109 123/123/123 122/122/122
f 118/118/118 124/124/124 121/121/121
f 122/122/122 124/124/124 118/118/118
f 125/125/125 121/121/121 124/124/124
f 126/126/126 125/125/125 124/124/124
f 127/127/127 126/126/126 124/124/124
f 124/124/124 122/122/122 127/127/127
f 127/127/127 122/122/122 128/128/128
f 129/129/129 131/131/131 130/130/130
f 129/129/129 132/132/132 131/131/131
f 129/129/129 133/133/133 132/132/132
f 133/133/133 129/129/129 134/134/134
f 133/133/133 134/134/134 135/135/135
f 136/136/136 133/133/133 135/135/135
f 137/137/137 133/133/133 136/136/136
f 138/138/138 131/131/131 132/132/132
f 132/132/132 133/133/133 138/138/138
f 133/133/133 137/137/137 138/138/138
f 138/138/138 139/139/139 131/131/131
f 138/138/138 137/137/137 139/139/139
f 139/139/139 137/137/137 140/140/140
f 137/137/137 141/141/141 140/140/140
f 142/142/142 144/144/144 143/143/143
f 143/143/143 144/144/144 145/145/145
f 144/144/144 146/146/146 145/145/145
f 146/146/146 147/147/147 145/145/145
f 148/148/148 150/150/150 149/149/149
f 150/150/150 151/151/151 149/149/149
f 152/152/152 151/151/151 150/150/150
f 152/152/152 153/153/153 151/151/151
f 153/153/153 154/154/154 151/151/151
f 155/155/155 157/157/157 156/156/156
f 157/157/157 155/155/155 158/158/158
f 158/158/158 155/155/155 159/159/159
f 158/158/158 159/159/159 160/160/160
f 160/160/160 161/161/161 158/158/158
f 161/161/161 157/157/157 158/158/158
f 161/161/161 162/162/162 157/157/157
f 162/162/162 161/161/161 163/163/163
f 163/163/163 164/164/164 162/162/162
f 165/165/165 163/163/163 161/161/161
f 163/163/163 166/166/166 164/164/164
f 165/165/165 166/166/166 163/163/163
f 167/167/167 169/169/169 168/168/168
f 168/168/168 170/170/170 167/167/167
f 168/168/168 171/171/171 170/170/170
f 172/172/172 171/171/171 168/168/168
f 172/172/172 168/168/168 173/173/173
f 172/172/172 173/173/173 174/174/174
f 175/175/175 171/171/171 172/172/172
f 172/172/172 174/174/174 175/175/175
f 174/174/174 176/176/176 175/175/175
f 177/177/177 175/175/175 176/176/176
f 178/178/178 180/180/180 179/179/179
f 181/181/181 178/178/178 179/179/179
f 179/179/179 182/182/182 181/181/181
f 182/182/182 183/183/183 181/181/181
f 181/181/181 183/183/183 184/184/184
f 185/185/185 187/187/187 186/186/186
f 187/187/187 188/188/188 186/186/186
f 187/187/187 189/189/189 188/188/188
f 190/190/190 186/186/186 188/188/188
f 190/190/190 191/191/191 186/186/186
f 191/191/191 190/190/190 192/192/192
f 190/190/190 188/188/188 193/193/193
f 188/188/188 189/189/189 194/194/194
f 188/188/188 194/194/194 193/193/193
f 195/195/195 194/194/194 189/189/189
f 194/194/194 196/196/196 193/193/193
f 193/193/193 196/196/196 197/197/197
f 198/198/198 193/193/193 197/197/197
f 198/198/198 199/199/199 193/193/193
f 199/199/199 198/198/198 200/200/200
f 199/199/199 200/200/200 201/201/201
f 201/201/201 200/200/200 202/202/202
f 201/201/201 202/202/202 203/203/203
f 204/204/204 206/206/206 205/205/205
f 204/204/204 207/207/207 206/206/206
f 208/208/208 210/210/210 209/209/209
f 211/211/211 209/209/209 210/210/210
f 210/210/210 212/212/212 211/211/211
f 213/213/213 211/211/211 212/212/212
f 211/211/211 213/213/213 214/214/214
f 211/211/211 214/214/214 215/215/215
f 216/216/216 211/211/211 215/215/215
f 215/215/215 217/217/217 216/216/216
f 218/218/218 216/216/216 217/217/217
f 219/219/219 216/216/216 218/218/218
f 211/211/211 220/220/220 209/209/209
f 216/216/216 220/220/220 211/211/211
f 221/221/221 209/209/209 220/220/220
f 221/221/221 220/220/220 216/216/216
f 221/221/221 222/222/222 209/209/209
f 223/223/223 216/216/216 219/219/219
f 221/221/221 216/216/216 223/223/223
f 224/224/224 221/221/221 223/223/223
f 223/223/223 219/219/219 225/225/225
f 224/224/224 223/223/223 225/225/225
f 226/226/226 224/224/224 225/225/225
f 226/226/226 225/225/225 227/227/227
f 226/226/226 228/228/228 224/224/224
f 229/229/229 224/224/224 228/228/228
f 229/229/229 228/228/228 230/230/230
f 224/224/224 229/229/229 231/231/231
f 232/232/232 231/231/231 229/229/229
f 231/231/231 232/232/232 233/233/233
f 234/234/234 221/221/221 224/224/224
f 234/234/234 224/224/224 231/231/231
f 231/231/231 221/221/221 234/234/234
f 235/235/235 231/231/231 233/233/233
f 235/235/235 221/221/221 231/231/231
f 233/233/233 236/236/236 235/235/235
f 236/236/236 237/237/237 235/235/235
f 235/235/235 222/222/222 221/221/221
f 238/238/238 235/235/235 237/237/237
f 222/222/222 235/235/235 238/238/238
f 222/222/222 238/238/238 239/239/239
f 239/239/239 238/238/238 240/240/240
f 240/240/240 238/238/238 241/241/241
f 242/242/242 240/240/240 241/241/241
f 242/242/242 243/243/243 240/240/240
f 242/242/242 244/244/244 243/243/243
f 245/245/245 247/247/247 246/246/246
f 246/246/246 248/248/248 245/245/245
f 248/248/248 249/249/249 245/245/245
f 245/245/245 249/249/249 250/250/250
f 250/250/250 249/249/249 251/251/251
f 249/249/249 252/252/252 251/251/251
f 253/253/253 249/249/249 248/248/248
f 254/254/254 252/252/252 249/249/249
f 253/253/253 254/254/254 249/249/249
f 254/254/254 255/255/255 252/252/252
f 254/254/254 253/253/253 256/256/256
f 253/253/253 257/257/257 256/256/256
f 258/258/258 255/255/255 254/254/254
f 255/255/255 258/258/258 259/259/259
f 260/260/260 254/254/254 256/256/256
f 260/260/260 258/258/258 254/254/254
f 256/256/256 261/261/261 260/260/260
f 262/262/262 260/260/260 261/261/261
f 258/258/258 260/260/260 262/262/262
f 262/262/262 263/263/263 258/258/258
f 258/258/258 263/263/263 264/264/264
f 259/259/259 258/258/258 264/264/264
f 265/265/265 264/264/264 263/263/263
f 266/266/266 264/264/264 265/265/265
f 267/267/267 259/259/259 264/264/264
f 267/267/267 268/268/268 259/259/259
f 269/269/269 271/271/271 270/270/270
f 272/272/272 269/269/269 270/270/270
f 272/272/272 270/270/270 273/273/273
f 274/274/274 273/273/273 270/270/270
f 270/270/270 275/275/275 274/274/274
f 270/270/270 276/276/276 275/275/275
f 276/276/276 277/277/277 275/275/275
f 278/278/278 280/280/280 279/279/279
f 281/281/281 278/278/278 279/279/279
f 282/282/282 281/281/281 279/279/279
f 283/283/283 281/281/281 282/282/282
f 282/282/282 284/284/284 283/283/283
f 283/283/283 285/285/285 281/281/281
f 285/285/285 283/283/283 286/286/286
f 287/287/287 285/285/285 286/286/286
f 283/283/283 288/288/288 286/286/286
f 289/289/289 291/291/291 290/290/290
f 291/291/291 292/292/292 290/290/290
f 291/291/291 293/293/293 292/292/292
f 294/294/294 296/296/296 295/295/295
f 295/295/295 296/296/296 297/297/297
f 298/298/298 297/297/297 296/296/296
f 299/299/299 297/297/297 298/298/298
f 298/298/298 300/300/300 299/299/299
f 296/296/296 301/301/301 298/298/298
f 302/302/302 301/301/301 296/296/296
f 303/303/303 298/298/298 301/301/301
f 303/303/303 300/300/300 298/298/298
f 300/300/300 303/303/303 304/304/304
f 304/304/304 303/303/303 301/301/301
f 296/296/296 305/305/305 302/302/302
f 306/306/306 300/300/300 304/304/304
f 305/305/305 307/307/307 302/302/302
f 302/302/302 307/307/307 301/301/301
f 307/307/307 305/305/305 308/308/308
f 307/307/307 308/308/308 309/309/309
f 307/307/307 309/309/309 310/310/310
f 307/307/307 310/310/310 311/311/311
f 301/301/301 307/307/307 311/311/311
f 304/304/304 312/312/312 306/306/306
f 312/312/312 313/313/313 306/306/306
f 314/314/314 312/312/312 304/304/304
f 315/315/315 314/314/314 304/304/304
f 304/304/304 316/316/316 315/315/315
f 304/304/304 301/301/301 316/316/316
f 316/316/316 317/317/317 315/315/315
f 317/317/317 316/316/316 318/318/318
f 301/301/301 318/318/318 316/316/316
f 318/318/318 319/319/319 317/317/317
f 301/301/301 311/311/311 320/320/320
f 318/318/318 301/301/301 320/320/320
f 318/318/318 320/320/320 319/319/319
f 311/311/311 321/321/321 320/320/320
f 319/319/319 320/320/320 321/321/321
f 322/322/322 324/324/324 323/323/323
f 325/325/325 322/322/322 323/323/323
f 323/323/323 326/326/326 325/325/325
f 326/326/326 327/327/327 325/325/325
f 328/328/328 327/327/327 326/326/326
f 329/329/329 328/328/328 326/326/326
f 326/326/326 323/323/323 329/329/329
f 323/323/323 330/330/330 329/329/329
f 330/330/330 331/331/331 329/329/329
f 332/332/332 334/334/334 333/333/333
f 332/332/332 333/333/333 335/335/335
f 332/332/332 335/335/335 336/336/336
f 337/337/337 339/339/339 338/338/338
f 338/338/338 340/340/340 337/337/337
f 340/340/340 341/341/341 337/337/337
f 341/341/341 342/342/342 337/337/337
f 341/341/341 343/343/343 342/342/342
f 341/341/341 340/340/340 344/344/344
f 344/344/344 343/343/343 341/341/341
f 345/345/345 344/344/344 340/340/340
f 346/346/346 343/343/343 344/344/344
f 346/346/346 347/347/347 343/343/343
f 348/348/348 343/343/343 347/347/347
f 349/349/349 351/351/351 350/350/350
f 350/350/350 352/352/352 349/349/349
f 352/352/352 353/353/353 349/349/349
f 353/353/353 354/354/354 349/349/349
f 352/352/352 355/355/355 353/353/353
f 356/356/356 353/353/353 355/355/355
f 353/353/353 356/356/356 357/357/357
f 355/355/355 358/358/358 356/356/356
f 359/359/359 358/358/358 355/355/355
f 360/360/360 356/356/356 358/358/358
f 361/361/361 363/363/363 362/362/362
f 364/364/364 362/362/362 363/363/363
f 364/364/364 363/363/363 365/365/365
f 365/365/365 366/366/366 364/364/364
f 367/367/367 364/364/364 366/366/366
f 364/364/364 367/367/367 368/368/368
f 369/369/369 367/367/367 366/366/366
f 370/370/370 369/369/369 366/366/366
f 371/371/371 370/370/370 366/366/366
f 371/371/371 366/366/366 365/365/365
f 365/365/365 372/372/372 371/371/371
f 373/373/373 371/371/371 372/372/372
f 374/374/374 376/376/376 375/375/375
f 377/377/377 375/375/375 376/376/376
f 378/378/378 377/377/377 376/376/376
f 375/375/375 377/377/377 379/379/379
f 380/380/380 375/375/375 379/379/379
f 379/379/379 381/381/381 380/380/380
f 375/375/375 380/380/380 382/382/382
f 383/383/383 385/385/385 384/384/384
f 384/384/384 385/385/385 386/386/386
f 385/385/385 387/387/387 386/386/386
f 386/386/386 387/387/387 388/388/388
f 384/384/384 386/386/386 389/389/389
f 390/390/390 384/384/384 389/389/389
f 390/390/390 389/389/389 391/391/391
f 392/392/392 386/386/386 388/388/388
f 386/386/386 392/392/392 389/389/389
f 388/388/388 393/393/393 392/392/392
f 392/392/392 393/393/393 394/394/394
f 391/391/391 389/389/389 395/395/395
f 392/392/392 395/395/395 389/389/389
f 392/392/392 394/394/394 395/395/395
f 395/395/395 396/396/396 391/391/391
f 394/394/394 397/397/397 395/395/395
f 398/398/398 396/396/396 395/395/395
f 395/395/395 397/397/397 398/398/398
f 399/399/399 401/401/401 400/400/400
f 399/399/399 402/402/402 401/401/401
f 399/399/399 403/403/403 402/402/402
f 402/402/402 404/404/404 401/401/401
f 405/405/405 401/401/401 404/404/404
f 405/405/405 404/404/404 406/406/406
f 402/402/402 407/407/407 404/404/404
f 403/403/403 408/408/408 402/402/402
f 402/402/402 408/408/408 407/407/407
f 403/403/403 409/409/409 408/408/408
f 408/408/408 410/410/410 407/407/407
f 411/411/411 407/407/407 410/410/410
f 412/412/412 414/414/414 413/413/413
f 413/413/413 415/415/415 412/412/412
f 415/415/415 416/416/416 412/412/412
f 416/416/416 417/417/417 412/412/412
f 416/416/416 418/418/418 417/417/417
f 416/416/416 415/415/415 419/419/419
f 419/419/419 418/418/418 416/416/416
f 420/420/420 419/419/419 415/415/415
f 421/421/421 418/418/418 419/419/419
f 421/421/421 422/422/422 418/418/418
f 423/423/423 418/418/418 422/422/422
f 424/424/424 426/426/426 425/425/425
f 425/425/425 427/427/427 424/424/424
f 427/427/427 428/428/428 424/424/424
f 428/428/428 429/429/429 424/424/424
f 427/427/427 430/430/430 428/428/428
f 431/431/431 428/428/428 430/430/430
f 428/428/428 431/431/431 432/432/432
f 430/430/430 433/433/433 431/431/431
f 434/434/434 433/433/433 430/430/430
f 435/435/435 431/431/431 433/433/433
f 436/436/436 438/438/438 437/437/437
f 439/439/439 437/437/437 438/438/438
f 439/439/439 438/438/438 440/440/440
f 440/440/440 441/441/441 439/439/439
f 442/442/442 439/439/439 441/441/441
f 439/439/439 442/442/442 443/443/443
f 444/444/444 442/442/442 441/441/441
f 445/445/445 444/444/444 441/441/441
f 446/446/446 445/445/445 441/441/441
f 446/446/446 441/441/441 440/440/440
f 440/440/440 447/447/447 446/446/446
f 448/448/448 446/446/446 447/447/447
f 449/449/449 451/451/451 450/450/450
f 452/452/452 450/450/450 451/451/451
f 453/453/453 452/452/452 451/451/451
f 450/450/450 452/452/452 454/454/454
f 455/455/455 450/450/450 454/454/454
f 454/454/454 456/456/456 455/455/455
f 450/450/450 455/455/455 457/457/457
f 458/458/458 460/460/460 459/459/459
f 459/459/459 460/460/460 461/461/461
f 460/460/460 462/462/462 461/461/461
f 461/461/461 462/462/462 463/463/463
f 459/459/459 461/461/461 464/464/464
f 465/465/465 459/459/459 464/464/464
f 465/465/465 464/464/464 466/466/466
f 467/467/467 461/461/461 463/463/463
f 461/461/461 467/467/467 464/464/464
f 463/463/463 468/468/468 467/467/467
f 467/467/467 468/468/468 469/469/469
f 466/466/466 464/464/464 470/470/470
f 467/467/467 470/470/470 464/464/464
f 467/467/467 469/469/469 470/470/470
f 470/470/470 471/471/471 466/466/466
f 469/469/469 472/472/472 470/470/470
f 473/473/473 471/471/471 470/470/470
f 470/470/470 472/472/472 473/473/473
f 474/474/474 476/476/476 475/475/475
f 474/474/474 477/477/477 476/476/476
f 474/474/474 478/478/478 477/477/477
f 477/477/477 479/479/479 476/476/476
f 480/480/480 476/476/476 479/479/479
f 480/480/480 479/479/479 481/481/481
f 477/477/477 482/482/482 479/479/479
f 478/478/478 483/483/483 477/477/477
f 477/477/477 483/483/483 482/482/482
f 478/478/478 484/484/484 483/483/483
f 483/483/483 485/485/485 482/482/482
f 486/486/486 482/482/482 485/485/485
