mtllib P_RockHexic_Piece12.mtl
v -1.234924 -5.626688 -1.835856 0 0 0
v -2.099365 -5.746689 0.1356115 0 0 0
v -1.166321 -5.746688 -1.73202 0 0 0
v -2.223602 -5.626689 0.1431093 0 0 0
v -2.223602 1.936712 0.1431093 0 0.3882353 0
v -1.234924 2.001283 -1.835856 0 0.7843137 0
v -1.171204 2.139574 -1.724742 0 0.2745098 0
v -2.109833 2.058663 0.1565733 0 0.345098 0
v -2.099365 -5.746689 0.1356115 0 0 0
v 0.9176331 -5.746688 -1.857793 0 0 0
v -1.166321 -5.746688 -1.73202 0 0 0
v -0.9484558 -5.746689 1.877467 0 0 0
v -1.004089 -5.626689 1.988801 0 0 0
v -2.223602 -5.626689 0.1431093 0 0 0
v 1.135468 -5.746689 1.751693 0 0 0
v 2.068512 -5.746689 -0.1159391 0 0 0
v 2.192734 -5.626689 -0.1234369 0 0 0
v 1.204071 -5.626689 1.855529 0 0 0
v 0.9732361 -5.626688 -1.969127 0 0 0
v -1.166321 -5.746688 -1.73202 0 0 0
v 0.9176331 -5.746688 -1.857793 0 0 0
v -1.234924 -5.626688 -1.835856 0 0 0
v -0.1140442 2.174162 -1.903504 0 0.6470588 0
v 0.9732361 1.914102 -1.969127 0 0.6588235 0
v -1.234924 2.001283 -1.835856 0 0.7843137 0
v -1.171204 2.139574 -1.724742 0 0.2745098 0
v -0.1570892 2.287865 -1.785563 0 0 0
v 1.139206 1.403758 1.745076 0 0.5647059 0
v 2.192734 1.271804 -0.1234369 0 0.4235294 0
v 1.204071 1.270224 1.855529 0 0.5137255 0
v 2.08287 1.428193 -0.1344748 0 0.2196078 0
v 0.1577148 1.497269 1.805219 0 0.6509804 0
v 0.9480286 2.017675 -1.852408 0 0.4862745 0
v -0.1570892 2.287865 -1.785563 0 0 0
v -0.1140442 2.174162 -1.903504 0 0.6470588 0
v 0.9732361 1.914102 -1.969127 0 0.6588235 0
v -0.9638824 2.024822 1.809616 0 0.6392157 0
v -0.9194183 1.993382 1.868286 0 0.6156863 0
v -1.018036 2.021643 1.810769 0 0.6431373 0
v -2.109833 2.058663 0.1565733 0 0.345098 0
v -1.171204 2.139574 -1.724742 0 0.2745098 0
v -2.223602 1.936712 0.1431093 0 0.3882353 0
v -1.044365 1.893074 1.927847 0 0.5529412 0
v -0.9194183 1.993382 1.868286 0 0.6156863 0
v -1.044365 1.893074 1.927847 0 0.5529412 0
v -1.018036 2.021643 1.810769 0 0.6431373 0
v -0.9457855 1.864469 1.985282 0 0.5137255 0
v 0.1577148 1.497269 1.805219 0 0.6509804 0
v -1.004089 1.82779 1.988801 0 0.509804 0
v -2.223602 1.936712 0.1431093 0 0.3882353 0
v -2.223602 -5.626689 0.1431093 0 0 0
v -1.004089 -5.626689 1.988801 0 0 0
v 0.1516571 1.354074 1.919047 0 0.6235294 0
v 1.139206 1.403758 1.745076 0 0.5647059 0
v 1.204071 1.270224 1.855529 0 0.5137255 0
v 1.204071 -5.626689 1.855529 0 0 0
v -0.9484558 -5.746689 1.877467 0 0 0
v 1.135468 -5.746689 1.751693 0 0 0
v 2.08287 1.428193 -0.1344748 0 0.2196078 0
v 0.9480286 2.017675 -1.852408 0 0.4862745 0
v 0.9732361 1.914102 -1.969127 0 0.6588235 0
v 2.192734 1.271804 -0.1234369 0 0.4235294 0
v 0.9732361 -5.626688 -1.969127 0 0 0
v 2.192734 -5.626689 -0.1234369 0 0 0
v 0.9176331 -5.746688 -1.857793 0 0 0
v 2.068512 -5.746689 -0.1159391 0 0 0
v 1.204071 1.270224 1.855529 0 0.5137255 0
v 1.204071 -5.626689 1.855529 0 0 0
v -0.8191757 5.213349 1.914792 0 0.8235294 0
v -0.6222229 5.251037 1.901335 0 0.8235294 0
v -0.7092667 5.202774 1.96375 0 0.8235294 0
v -0.8297119 5.270869 1.808877 0 0.8235294 0
v -0.8857117 5.159702 1.917632 0 0.8039216 0
v -2.107162 5.240891 0.2414293 0 0.6705883 0
v -1.98056 5.354495 0.2281294 0 0.7921569 0
v -1.134735 5.32957 -1.68044 0 0.7882353 0
v 0.9394684 5.234874 -1.902373 0 0.8039216 0
v 2.168915 5.033134 -0.2146788 0 0.5490196 0
v 1.323395 5.038557 1.693648 0 0.6588235 0
v 2.28923 4.900393 -0.2290506 0 0.3568628 0
v 1.393417 4.904744 1.79349 0 0.6588235 0
v 0.9867249 5.122146 -2.016423 0 0.8117647 0
v 2.168915 5.033134 -0.2146788 0 0.5490196 0
v 0.9394684 5.234874 -1.902373 0 0.8039216 0
v 2.28923 4.900393 -0.2290506 0 0.3568628 0
v 0.9025269 2.19946 -2.031293 0 0.09019608 0
v 2.207611 1.5588 -0.2513113 0 0.3098039 0
v 0.8515015 2.050987 -1.915025 0 0.509804 0
v 1.393417 4.904744 1.79349 0 0.6588235 0
v 1.322418 1.569506 1.776015 0 0.6588235 0
v -1.211456 5.213095 -1.781137 0 0.6156863 0
v 0.9394684 5.234874 -1.902373 0 0.8039216 0
v -1.134735 5.32957 -1.68044 0 0.7882353 0
v 0.9867249 5.122146 -2.016423 0 0.8117647 0
v -0.1539001 2.276068 -1.91232 0 0.1764706 0
v -1.294937 2.319239 -1.78432 0 0 0
v 0.9025269 2.19946 -2.031293 0 0.09019608 0
v -1.251938 2.178221 -1.674237 0 0 0
v 0.8515015 2.050987 -1.915025 0 0.509804 0
v -0.1546021 2.136457 -1.798894 0 0.7294118 0
v 1.322418 1.569506 1.776015 0 0.6588235 0
v 0.2913666 1.667635 1.892215 0 0.6588235 0
v 1.393417 4.904744 1.79349 0 0.6588235 0
v -0.8678284 2.229747 2.02333 0 0.2745098 0
v -0.8079376 5.011384 2.02844 0 0.6784314 0
v -0.8360901 2.054003 1.906442 0 0.6431373 0
v 0.208252 1.57532 1.785504 0 0.6588235 0
v -2.180176 2.295371 0.2429838 0 0 0
v -2.107162 5.240891 0.2414293 0 0.6705883 0
v -0.8857117 5.159702 1.917632 0 0.8039216 0
v -0.8191757 5.213349 1.914792 0 0.8235294 0
v -0.7092667 5.202774 1.96375 0 0.8235294 0
v -0.6689453 5.138839 2.01419 0 0.8039216 0
v 1.323395 5.038557 1.693648 0 0.6588235 0
v -0.6222229 5.251037 1.901335 0 0.8235294 0
v -2.180176 2.295371 0.2429838 0 0 0
v -0.8678284 2.229747 2.02333 0 0.2745098 0
v -0.8360901 2.054003 1.906442 0 0.6431373 0
v -2.072479 2.170127 0.2116652 0 0.1882353 0
v 0.208252 1.57532 1.785504 0 0.6588235 0
v -1.251938 2.178221 -1.674237 0 0 0
v -0.1546021 2.136457 -1.798894 0 0.7294118 0
v 1.274292 1.473809 1.664758 0 0.6588235 0
v 0.2913666 1.667635 1.892215 0 0.6588235 0
v 1.322418 1.569506 1.776015 0 0.6588235 0
v 2.207611 1.5588 -0.2513113 0 0.3098039 0
v 2.097153 1.469366 -0.2185678 0 0.2 0
v 0.8515015 2.050987 -1.915025 0 0.509804 0
v -2.180176 2.295371 0.2429838 0 0 0
v -2.072479 2.170127 0.2116652 0 0.1882353 0
v -1.251938 2.178221 -1.674237 0 0 0
v -1.294937 2.319239 -1.78432 0 0 0
v -2.107162 5.240891 0.2414293 0 0.6705883 0
v -1.211456 5.213095 -1.781137 0 0.6156863 0
v -1.134735 5.32957 -1.68044 0 0.7882353 0
v -1.98056 5.354495 0.2281294 0 0.7921569 0
vn -0.5159327 -0.3522345 -0.7808613
vn -0.4696472 -0.882399 0.0283456
vn -0.2593867 -0.8823875 -0.3925697
vn -0.9342059 -0.3522501 0.05638294
vn -0.94315 0.3280524 0.05338247
vn -0.5372615 0.3172303 -0.7814826
vn -0.3651785 0.839857 -0.4016029
vn -0.5215848 0.848897 0.08557584
vn -0.4696472 -0.882399 0.0283456
vn 0.2103098 -0.8823813 -0.4209192
vn -0.2593867 -0.8823875 -0.3925697
vn -0.2102612 -0.8823973 0.4209101
vn -0.4182759 -0.352247 0.837238
vn -0.9342059 -0.3522501 0.05638294
vn 0.2593873 -0.8823876 0.392569
vn 0.4696773 -0.8823829 -0.02834505
vn 0.9342146 -0.352227 -0.05638368
vn 0.5159352 -0.3522339 0.7808599
vn 0.4182715 -0.3522252 -0.8372493
vn -0.2593867 -0.8823875 -0.3925697
vn 0.2103098 -0.8823813 -0.4209192
vn -0.5159327 -0.3522345 -0.7808613
vn -0.01392409 0.4336491 -0.9009742
vn 0.4625233 0.3522358 -0.8136352
vn -0.5372615 0.3172303 -0.7814826
vn -0.3651785 0.839857 -0.4016029
vn 0.05122169 0.9491659 -0.3105807
vn 0.3266419 0.8464277 0.4205534
vn 0.9658004 0.2580848 -0.02493801
vn 0.5259475 0.3291121 0.7842605
vn 0.6396006 0.7668348 0.0536233
vn 0.2722502 0.8183815 0.5060943
vn 0.4261489 0.8615834 -0.2758102
vn 0.05122169 0.9491659 -0.3105807
vn -0.01392409 0.4336491 -0.9009742
vn 0.4625233 0.3522358 -0.8136352
vn 0.1278028 0.9579287 0.256981
vn 0.1759227 0.8234853 0.539373
vn -0.3329217 0.8497914 0.408678
vn -0.5215848 0.848897 0.08557584
vn -0.3651785 0.839857 -0.4016029
vn -0.94315 0.3280524 0.05338247
vn -0.611678 0.4142993 0.6739481
vn 0.1759227 0.8234853 0.539373
vn -0.611678 0.4142993 0.6739481
vn -0.3329217 0.8497914 0.408678
vn 0.02378453 0.4277696 0.9035748
vn 0.2722502 0.8183815 0.5060943
vn -0.433357 0.1618087 0.8865775
vn -0.94315 0.3280524 0.05338247
vn -0.9342059 -0.3522501 0.05638294
vn -0.4182759 -0.352247 0.837238
vn 0.1314191 0.2886519 0.9483718
vn 0.3266419 0.8464277 0.4205534
vn 0.5259475 0.3291121 0.7842605
vn 0.5159352 -0.3522339 0.7808599
vn -0.2102612 -0.8823973 0.4209101
vn 0.2593873 -0.8823876 0.392569
vn 0.6396006 0.7668348 0.0536233
vn 0.4261489 0.8615834 -0.2758102
vn 0.4625233 0.3522358 -0.8136352
vn 0.9658004 0.2580848 -0.02493801
vn 0.4182715 -0.3522252 -0.8372493
vn 0.9342146 -0.352227 -0.05638368
vn 0.2103098 -0.8823813 -0.4209192
vn 0.4696773 -0.8823829 -0.02834505
vn 0.5259475 0.3291121 0.7842605
vn 0.5159352 -0.3522339 0.7808599
vn -0.3448342 0.6982782 0.6272933
vn 0.07991277 0.9053818 0.4170105
vn -0.1279563 0.6812173 0.7208122
vn -0.2327447 0.9278803 0.291321
vn -0.6358926 0.3980174 0.6612282
vn -0.9176044 0.3838581 0.1032233
vn -0.4263541 0.902637 0.05889462
vn -0.2394673 0.8954107 -0.37536
vn 0.2418954 0.8877549 -0.3916351
vn 0.5405957 0.8411045 -0.01730542
vn 0.357394 0.8400533 0.4081423
vn 0.9476669 0.3062499 -0.09021402
vn 0.5730015 0.308957 0.7590882
vn 0.3968686 0.3636971 -0.8427454
vn 0.5405957 0.8411045 -0.01730542
vn 0.2418954 0.8877549 -0.3916351
vn 0.9476669 0.3062499 -0.09021402
vn 0.3435424 -0.2979177 -0.890631
vn 0.8878841 -0.4321756 -0.1577536
vn 0.1028299 -0.8035716 -0.5862582
vn 0.5730015 0.308957 0.7590882
vn 0.5167437 -0.4056859 0.7539197
vn -0.5384973 0.3725624 -0.7557896
vn 0.2418954 0.8877549 -0.3916351
vn -0.2394673 0.8954107 -0.37536
vn 0.3968686 0.3636971 -0.8427454
vn -0.1253311 -0.3238546 -0.9377688
vn -0.5607272 -0.2934719 -0.7742475
vn 0.3435424 -0.2979177 -0.890631
vn -0.3869201 -0.807784 -0.4447224
vn 0.1028299 -0.8035716 -0.5862582
vn -0.1223995 -0.8569857 -0.5005935
vn 0.5167437 -0.4056859 0.7539197
vn 0.001782166 -0.4283179 0.9036264
vn 0.5730015 0.308957 0.7590882
vn -0.4251087 -0.2283301 0.8758698
vn -0.3979821 0.1177359 0.9098068
vn -0.4496793 -0.7026654 0.5514073
vn -0.171886 -0.9235576 0.3427776
vn -0.9463755 -0.3045749 0.1077378
vn -0.9176044 0.3838581 0.1032233
vn -0.6358926 0.3980174 0.6612282
vn -0.3448342 0.6982782 0.6272933
vn -0.1279563 0.6812173 0.7208122
vn -0.004378135 0.3799894 0.9249805
vn 0.357394 0.8400533 0.4081423
vn 0.07991277 0.9053818 0.4170105
vn -0.9463755 -0.3045749 0.1077378
vn -0.4251087 -0.2283301 0.8758698
vn -0.4496793 -0.7026654 0.5514073
vn -0.58552 -0.8106377 0.005741206
vn -0.171886 -0.9235576 0.3427776
vn -0.3869201 -0.807784 -0.4447224
vn -0.1223995 -0.8569857 -0.5005935
vn 0.2144452 -0.9324327 0.2908309
vn 0.001782166 -0.4283179 0.9036264
vn 0.5167437 -0.4056859 0.7539197
vn 0.8878841 -0.4321756 -0.1577536
vn 0.3286964 -0.9376675 -0.1128639
vn 0.1028299 -0.8035716 -0.5862582
vn -0.9463755 -0.3045749 0.1077378
vn -0.58552 -0.8106377 0.005741206
vn -0.3869201 -0.807784 -0.4447224
vn -0.5607272 -0.2934719 -0.7742475
vn -0.9176044 0.3838581 0.1032233
vn -0.5384973 0.3725624 -0.7557896
vn -0.2394673 0.8954107 -0.37536
vn -0.4263541 0.902637 0.05889462
vt 0.7662894 0.5475876
vt 0.7347094 0.5495756
vt 0.7654459 0.5494716
vt 0.7337204 0.5476978
vt 0.7337204 0.4365326
vt 0.7662894 0.4354734
vt 0.7653172 0.4335602
vt 0.7343644 0.4348553
vt 0.4579317 0.8383508
vt 0.51115 0.8408849
vt 0.485293 0.82428
vt 0.4564273 0.8690265
vt 0.4547595 0.8697563
vt 0.4563537 0.837252
vt 0.4822839 0.8856312
vt 0.5096452 0.8715604
vt 0.51115 0.8724413
vt 0.4821576 0.887351
vt 0.7466334 0.813671
vt 0.7150259 0.8154548
vt 0.7457747 0.8154486
vt 0.7140519 0.8136776
vt 0.7305905 0.6987074
vt 0.7466334 0.7025369
vt 0.7140519 0.7012586
vt 0.7149515 0.6992298
vt 0.7299146 0.6970413
vt 0.04850218 0.882875
vt 0.02021886 0.8688366
vt 0.04856526 0.8849288
vt 0.02153141 0.8675988
vt 0.06103636 0.8754813
vt 0.02152522 0.8365968
vt 0.03569363 0.8280429
vt 0.03415524 0.8271051
vt 0.02021885 0.8355151
vt 0.07499126 0.8656899
vt 0.07491735 0.8668101
vt 0.07566185 0.8652666
vt 0.07544267 0.8361253
vt 0.04854051 0.8207117
vt 0.07667732 0.8351948
vt 0.07689668 0.866651
vt 0.1393773 0.7023571
vt 0.1412397 0.7038572
vt 0.1408094 0.7019171
vt 0.1398082 0.7043024
vt 0.1234844 0.7096517
vt 0.1406684 0.7048436
vt 0.1579667 0.7024972
vt 0.1579667 0.8139262
vt 0.1406684 0.8146678
vt 0.1236149 0.7118063
vt 0.1090018 0.7110152
vt 0.1080862 0.7130268
vt 0.1080862 0.8146366
vt 0.1398085 0.8163922
vt 0.1090592 0.8163628
vt 0.05181773 0.7108918
vt 0.02150788 0.7021554
vt 0.02021882 0.7037263
vt 0.05278461 0.7132447
vt 0.02021882 0.8147819
vt 0.05278461 0.8148411
vt 0.02121084 0.8164906
vt 0.05194451 0.8165464
vt 0.07041598 0.7122262
vt 0.07041598 0.8137992
vt 0.2699639 0.8884034
vt 0.2675187 0.8869085
vt 0.2681857 0.8883224
vt 0.2708758 0.887061
vt 0.2707463 0.888899
vt 0.297906 0.8749128
vt 0.2964845 0.873862
vt 0.297906 0.8431481
vt 0.2720236 0.8265081
vt 0.2445219 0.8406314
vt 0.243072 0.8713463
vt 0.24286 0.8396873
vt 0.2413173 0.872239
vt 0.4547594 0.8932524
vt 0.4865079 0.8940104
vt 0.4558157 0.8915164
vt 0.4872699 0.8960131
vt 0.4547594 0.9362674
vt 0.4873137 0.945201
vt 0.455889 0.938375
vt 0.5061284 0.8945786
vt 0.5063111 0.943674
vt 0.5158997 0.8386109
vt 0.5476111 0.8373703
vt 0.5169448 0.8368719
vt 0.5483949 0.8390005
vt 0.5327677 0.8814192
vt 0.5158997 0.881277
vt 0.5484008 0.8820906
vt 0.5165543 0.8833464
vt 0.5476715 0.8843101
vt 0.5327768 0.8834867
vt 0.1802824 0.9443106
vt 0.1955457 0.9432789
vt 0.1804611 0.8951706
vt 0.2128713 0.9354652
vt 0.2130071 0.8944777
vt 0.2122983 0.9379951
vt 0.1966985 0.944625
vt 0.231597 0.9342457
vt 0.231597 0.8908371
vt 0.2141676 0.8922761
vt 0.2132063 0.8914612
vt 0.2116008 0.8915977
vt 0.2110014 0.8925453
vt 0.1815061 0.8931843
vt 0.2103143 0.8908307
vt 0.1802822 0.8715894
vt 0.2091806 0.8866653
vt 0.2090115 0.8849393
vt 0.1816216 0.8704963
vt 0.222484 0.8766466
vt 0.1802822 0.8402158
vt 0.1940182 0.8314639
vt 0.2358881 0.8681583
vt 0.224184 0.8775067
vt 0.237152 0.8693047
vt 0.2357717 0.8367361
vt 0.2346079 0.8378988
vt 0.2066449 0.8234225
vt 0.0707816 0.9341199
vt 0.07198248 0.9360313
vt 0.1021394 0.935312
vt 0.1032196 0.9331264
vt 0.0707816 0.8908923
vt 0.1032436 0.8906704
vt 0.102479 0.8890942
vt 0.07184253 0.8893223
usemtl MV_RockHexic_Pieces
f 1/1/1 3/3/3 2/2/2
f 1/1/1 2/2/2 4/4/4
f 5/5/5 1/1/1 4/4/4
f 5/5/5 6/6/6 1/1/1
f 7/7/7 6/6/6 5/5/5
f 7/7/7 5/5/5 8/8/8
f 9/9/9 11/11/11 10/10/10
f 12/12/12 9/9/9 10/10/10
f 13/13/13 9/9/9 12/12/12
f 13/13/13 14/14/14 9/9/9
f 15/15/15 12/12/12 10/10/10
f 10/10/10 16/16/16 15/15/15
f 17/17/17 15/15/15 16/16/16
f 17/17/17 18/18/18 15/15/15
f 19/19/19 21/21/21 20/20/20
f 19/19/19 20/20/20 22/22/22
f 22/22/22 23/23/23 19/19/19
f 19/19/19 23/23/23 24/24/24
f 22/22/22 25/25/25 23/23/23
f 26/26/26 23/23/23 25/25/25
f 26/26/26 27/27/27 23/23/23
f 28/28/28 30/30/30 29/29/29
f 28/28/28 29/29/29 31/31/31
f 31/31/31 32/32/32 28/28/28
f 31/31/31 33/33/33 32/32/32
f 32/32/32 33/33/33 34/34/34
f 33/33/33 35/35/35 34/34/34
f 33/33/33 36/36/36 35/35/35
f 37/37/37 32/32/32 34/34/34
f 38/38/38 32/32/32 37/37/37
f 39/39/39 38/38/38 37/37/37
f 40/40/40 37/37/37 34/34/34
f 40/40/40 39/39/39 37/37/37
f 34/34/34 41/41/41 40/40/40
f 39/39/39 40/40/40 42/42/42
f 39/39/39 42/42/42 43/43/43
f 44/44/44 46/46/46 45/45/45
f 44/44/44 45/45/45 47/47/47
f 48/48/48 44/44/44 47/47/47
f 47/47/47 45/45/45 49/49/49
f 49/49/49 45/45/45 50/50/50
f 49/49/49 50/50/50 51/51/51
f 51/51/51 52/52/52 49/49/49
f 48/48/48 47/47/47 53/53/53
f 53/53/53 47/47/47 49/49/49
f 53/53/53 49/49/49 52/52/52
f 54/54/54 48/48/48 53/53/53
f 54/54/54 53/53/53 55/55/55
f 53/53/53 56/56/56 55/55/55
f 52/52/52 56/56/56 53/53/53
f 56/56/56 52/52/52 57/57/57
f 56/56/56 57/57/57 58/58/58
f 59/59/59 61/61/61 60/60/60
f 59/59/59 62/62/62 61/61/61
f 63/63/63 61/61/61 62/62/62
f 63/63/63 62/62/62 64/64/64
f 64/64/64 65/65/65 63/63/63
f 64/64/64 66/66/66 65/65/65
f 64/64/64 62/62/62 67/67/67
f 64/64/64 67/67/67 68/68/68
f 69/69/69 71/71/71 70/70/70
f 69/69/69 70/70/70 72/72/72
f 73/73/73 69/69/69 72/72/72
f 74/74/74 73/73/73 72/72/72
f 75/75/75 74/74/74 72/72/72
f 76/76/76 75/75/75 72/72/72
f 77/77/77 76/76/76 72/72/72
f 72/72/72 70/70/70 77/77/77
f 78/78/78 77/77/77 70/70/70
f 70/70/70 79/79/79 78/78/78
f 80/80/80 78/78/78 79/79/79
f 80/80/80 79/79/79 81/81/81
f 82/82/82 84/84/84 83/83/83
f 82/82/82 83/83/83 85/85/85
f 86/86/86 82/82/82 85/85/85
f 86/86/86 85/85/85 87/87/87
f 87/87/87 88/88/88 86/86/86
f 87/87/87 85/85/85 89/89/89
f 87/87/87 89/89/89 90/90/90
f 91/91/91 93/93/93 92/92/92
f 91/91/91 92/92/92 94/94/94
f 91/91/91 94/94/94 95/95/95
f 91/91/91 95/95/95 96/96/96
f 95/95/95 94/94/94 97/97/97
f 95/95/95 98/98/98 96/96/96
f 95/95/95 97/97/97 99/99/99
f 95/95/95 100/100/100 98/98/98
f 95/95/95 99/99/99 100/100/100
f 101/101/101 103/103/103 102/102/102
f 104/104/104 102/102/102 103/103/103
f 103/103/103 105/105/105 104/104/104
f 102/102/102 104/104/104 106/106/106
f 102/102/102 106/106/106 107/107/107
f 108/108/108 104/104/104 105/105/105
f 105/105/105 109/109/109 108/108/108
f 105/105/105 110/110/110 109/109/109
f 111/111/111 110/110/110 105/105/105
f 112/112/112 111/111/111 105/105/105
f 103/103/103 113/113/113 105/105/105
f 105/105/105 113/113/113 112/112/112
f 103/103/103 114/114/114 113/113/113
f 115/115/115 112/112/112 113/113/113
f 114/114/114 115/115/115 113/113/113
f 116/116/116 118/118/118 117/117/117
f 116/116/116 119/119/119 118/118/118
f 119/119/119 120/120/120 118/118/118
f 119/119/119 121/121/121 120/120/120
f 120/120/120 121/121/121 122/122/122
f 120/120/120 122/122/122 123/123/123
f 124/124/124 120/120/120 123/123/123
f 124/124/124 123/123/123 125/125/125
f 126/126/126 125/125/125 123/123/123
f 127/127/127 123/123/123 122/122/122
f 126/126/126 123/123/123 127/127/127
f 127/127/127 122/122/122 128/128/128
f 126/126/126 127/127/127 128/128/128
f 129/129/129 131/131/131 130/130/130
f 129/129/129 132/132/132 131/131/131
f 133/133/133 132/132/132 129/129/129
f 133/133/133 134/134/134 132/132/132
f 133/133/133 135/135/135 134/134/134
f 133/133/133 136/136/136 135/135/135
