mtllib P_RockSpire_Rock03.mtl
v -0.1771698 1.168508 -1.088906
v -1.036999 0.7323875 -0.3480297
v -0.6242104 0.5639312 -0.8867883
v -0.2077332 -0.6014494 -1.258521
v -0.7197456 -0.513404 -0.7773803
v 0.2243233 -0.7242314 -1.02582
v -0.7259102 -0.5364316 -0.06537352
v 0.3928528 -0.7965743 0.8867657
v 1.273262 -0.7099642 -0.009394612
v 1.21323 -0.6812065 -0.441488
v 0.5370216 -0.7455278 0.913462
v -0.1745338 -0.6500039 1.214357
v -1.111023 -0.4416982 0.4527094
v 1.361973 0.4848666 -0.307298
v 0.2243233 -0.7242314 -1.02582
v 1.21323 -0.6812065 -0.441488
v -0.1270752 0.4379963 -1.190262
v 0.9033127 1.301092 -0.5213048
v -0.2077332 -0.6014494 -1.258521
v -0.06165314 1.26551 -1.098779
v -0.4562721 0.3209422 -1.355407
v -0.7197456 -0.513404 -0.7773803
v -0.9260597 0.3490802 -0.9498528
v -0.2654724 0.4951215 -1.149703
v -0.1771698 1.168508 -1.088906
v -1.105316 1.197151 -0.1787422
v -1.036999 0.7323875 -0.3480297
v -0.6242104 0.5639312 -0.8867883
v -0.8838692 0.496758 -0.7848055
v 0.9033127 1.301092 -0.5213048
v 0.508194 1.116298 0.902266
v 0.3708763 1.239974 0.9172188
v 0.9288292 0.615705 0.4260166
v 0.5370216 -0.7455278 0.913462
v 1.416904 0.3633693 -0.1814511
v 1.361973 0.4848666 -0.307298
v 1.21323 -0.6812065 -0.441488
v 1.326752 -0.6122988 -0.01626246
v 1.273262 -0.7099642 -0.009394612
v -1.105316 1.197151 -0.1787422
v -0.06165314 1.26551 -1.098779
v 0.9033127 1.301092 -0.5213048
v -1.057678 1.173344 0.6043947
v 0.3708763 1.239974 0.9172188
v -0.2652817 1.195857 1.259628
v -1.105316 1.197151 -0.1787422
v -1.057678 1.173344 0.6043947
v -1.380867 0.6814367 0.3004573
v -1.036999 0.7323875 -0.3480297
v -1.361023 0.2449272 0.30086
v -0.7998199 -0.4226691 -0.09640984
v -0.9260597 0.3490802 -0.9498528
v -1.111023 -0.4416982 0.4527094
v -0.7197456 -0.513404 -0.7773803
v -0.7259102 -0.5364316 -0.06537352
v -0.6242104 0.5639312 -0.8867883
v -1.036999 0.7323875 -0.3480297
v -0.8838692 0.496758 -0.7848055
v -0.9260597 0.3490802 -0.9498528
v -0.4562721 0.3209422 -1.355407
v -0.2654724 0.4951215 -1.149703
v 0.3708763 1.239974 0.9172188
v 0.508194 1.116298 0.902266
v -0.2652817 1.195857 1.259628
v -0.1745338 -0.6500039 1.214357
v 0.5370216 -0.7455278 0.913462
v -1.111023 -0.4416982 0.4527094
v -1.361023 0.2449272 0.30086
v -1.057678 1.173344 0.6043947
v -1.380867 0.6814367 0.3004573
vn -0.4603167 0.3303202 -0.8240128
vn -0.8477835 0.05770018 -0.5271944
vn -0.5464094 0.4424063 -0.7111354
vn -0.1030304 -0.5930284 -0.7985625
vn -0.6931966 -0.6589848 -0.2919203
vn 0.2466784 -0.7259352 -0.6420031
vn -0.4826806 -0.8696335 -0.1037166
vn 0.04210544 -0.9606518 0.2745457
vn 0.6049429 -0.779269 0.1636579
vn 0.6214568 -0.5966501 -0.5077402
vn 0.5204888 -0.5232664 0.6747471
vn -0.175538 -0.5881471 0.7894741
vn -0.7717122 -0.5975247 0.2177715
vn 0.8570375 0.2713631 -0.4380055
vn 0.2466784 -0.7259352 -0.6420031
vn 0.6214568 -0.5966501 -0.5077402
vn 0.3146451 0.1714642 -0.9335944
vn 0.5924658 0.7262248 -0.348686
vn -0.1030304 -0.5930284 -0.7985625
vn 0.04228897 0.6854979 -0.7268454
vn -0.2204783 0.2887972 -0.9316574
vn -0.6931966 -0.6589848 -0.2919203
vn -0.8316954 0.1766722 -0.526374
vn -0.2590552 0.4953709 -0.829155
vn -0.4603167 0.3303202 -0.8240128
vn -0.6504351 0.6932084 -0.3104775
vn -0.8477835 0.05770018 -0.5271944
vn -0.5464094 0.4424063 -0.7111354
vn -0.4079174 0.7326835 -0.5447737
vn 0.5924658 0.7262248 -0.348686
vn 0.674877 0.35666 0.6460144
vn 0.3319933 0.8247189 0.4578419
vn 0.8188792 0.2351925 0.523566
vn 0.5204888 -0.5232664 0.6747471
vn 0.9799634 0.1609774 0.1172949
vn 0.8570375 0.2713631 -0.4380055
vn 0.6214568 -0.5966501 -0.5077402
vn 0.9431994 -0.234012 0.2358249
vn 0.6049429 -0.779269 0.1636579
vn -0.6504351 0.6932084 -0.3104775
vn 0.04228897 0.6854979 -0.7268454
vn 0.5924658 0.7262248 -0.348686
vn -0.598285 0.6587486 0.4561856
vn 0.3319933 0.8247189 0.4578419
vn -0.1297947 0.5774987 0.8060078
vn -0.6504351 0.6932084 -0.3104775
vn -0.598285 0.6587486 0.4561856
vn -0.9803605 0.1059352 0.1663462
vn -0.8477835 0.05770018 -0.5271944
vn -0.9741765 -0.1966002 0.1110338
vn -0.8528576 -0.4434949 -0.2755832
vn -0.8316954 0.1766722 -0.526374
vn -0.7717122 -0.5975247 0.2177715
vn -0.6931966 -0.6589848 -0.2919203
vn -0.4826806 -0.8696335 -0.1037166
vn -0.5464094 0.4424063 -0.7111354
vn -0.8477835 0.05770018 -0.5271944
vn -0.4079174 0.7326835 -0.5447737
vn -0.8316954 0.1766722 -0.526374
vn -0.2204783 0.2887972 -0.9316574
vn -0.2590552 0.4953709 -0.829155
vn 0.3319933 0.8247189 0.4578419
vn 0.674877 0.35666 0.6460144
vn -0.1297947 0.5774987 0.8060078
vn -0.175538 -0.5881471 0.7894741
vn 0.5204888 -0.5232664 0.6747471
vn -0.7717122 -0.5975247 0.2177715
vn -0.9741765 -0.1966002 0.1110338
vn -0.598285 0.6587486 0.4561856
vn -0.9803605 0.1059352 0.1663462
vt 0.2076082 0.5518848
vt 0.2019383 0.5582952
vt 0.2076082 0.558443
vt 0.4497666 0.1728993
vt 0.4487446 0.1801101
vt 0.4547683 0.1720237
vt 0.4533146 0.185948
vt 0.4685474 0.1865073
vt 0.4699029 0.1734798
vt 0.4666137 0.1703465
vt 0.4699029 0.1857741
vt 0.4660889 0.1928116
vt 0.4535657 0.1926337
vt 0.6592709 0.4997565
vt 0.6718103 0.5121415
vt 0.6713996 0.5018036
vt 0.6597053 0.5153153
vt 0.6507444 0.504195
vt 0.6705052 0.516597
vt 0.6510835 0.5142802
vt 0.6608891 0.5187984
vt 0.6690573 0.5218567
vt 0.6601306 0.5236486
vt 0.6590269 0.5167282
vt 0.6520348 0.515522
vt 0.6507444 0.5251096
vt 0.655709 0.5246052
vt 0.6579873 0.5204148
vt 0.6585071 0.5231377
vt 0.8601074 0.08417164
vt 0.8747818 0.085791
vt 0.8748902 0.08441281
vt 0.8699718 0.09128692
vt 0.8749083 0.1051494
vt 0.8638198 0.09425288
vt 0.8624917 0.0929564
vt 0.8610444 0.1049706
vt 0.8655074 0.1043224
vt 0.8655604 0.1053004
vt 0.4993804 0.1864309
vt 0.4971043 0.1721171
vt 0.4855316 0.1703466
vt 0.4938062 0.1924034
vt 0.4802675 0.1854302
vt 0.4831029 0.1924034
vt 0.80659 0.6293358
vt 0.7984199 0.6293201
vt 0.8015775 0.6345394
vt 0.8081583 0.6342282
vt 0.8014166 0.6390807
vt 0.8050348 0.6461611
vt 0.8142268 0.6384189
vt 0.7994807 0.6461737
vt 0.8120398 0.6473344
vt 0.8046364 0.6473345
vt 0.7433355 0.3502593
vt 0.7425427 0.3572433
vt 0.7445467 0.3529119
vt 0.7460541 0.3520094
vt 0.7454582 0.3455838
vt 0.7425427 0.3457131
vt 0.9154006 0.1720168
vt 0.9139856 0.1733242
vt 0.9221761 0.1724241
vt 0.9215044 0.1916417
vt 0.9139856 0.1927065
vt 0.9308681 0.1892007
vt 0.933291 0.1819901
vt 0.9301258 0.1724256
vt 0.9334281 0.1774441
usemtl MV_RockSpire_Rocks
f 1/1/1 3/3/3 2/2/2
f 4/4/4 6/6/6 5/5/5
f 7/7/7 5/5/5 6/6/6
f 6/6/6 8/8/8 7/7/7
f 8/8/8 6/6/6 9/9/9
f 6/6/6 10/10/10 9/9/9
f 9/9/9 11/11/11 8/8/8
f 12/12/12 8/8/8 11/11/11
f 8/8/8 12/12/12 7/7/7
f 12/12/12 13/13/13 7/7/7
f 14/14/14 16/16/16 15/15/15
f 14/14/14 15/15/15 17/17/17
f 17/17/17 18/18/18 14/14/14
f 17/17/17 15/15/15 19/19/19
f 17/17/17 20/20/20 18/18/18
f 17/17/17 19/19/19 21/21/21
f 22/22/22 21/21/21 19/19/19
f 22/22/22 23/23/23 21/21/21
f 21/21/21 24/24/24 17/17/17
f 20/20/20 17/17/17 24/24/24
f 20/20/20 24/24/24 25/25/25
f 26/26/26 20/20/20 25/25/25
f 25/25/25 27/27/27 26/26/26
f 28/28/28 25/25/25 24/24/24
f 28/28/28 24/24/24 29/29/29
f 30/30/30 32/32/32 31/31/31
f 33/33/33 30/30/30 31/31/31
f 33/33/33 31/31/31 34/34/34
f 30/30/30 33/33/33 35/35/35
f 30/30/30 35/35/35 36/36/36
f 37/37/37 36/36/36 35/35/35
f 33/33/33 34/34/34 38/38/38
f 35/35/35 33/33/33 38/38/38
f 35/35/35 38/38/38 37/37/37
f 39/39/39 38/38/38 34/34/34
f 37/37/37 38/38/38 39/39/39
f 40/40/40 42/42/42 41/41/41
f 42/42/42 40/40/40 43/43/43
f 42/42/42 43/43/43 44/44/44
f 43/43/43 45/45/45 44/44/44
f 46/46/46 48/48/48 47/47/47
f 48/48/48 46/46/46 49/49/49
f 48/48/48 49/49/49 50/50/50
f 51/51/51 50/50/50 49/49/49
f 51/51/51 49/49/49 52/52/52
f 51/51/51 53/53/53 50/50/50
f 51/51/51 52/52/52 54/54/54
f 53/53/53 51/51/51 55/55/55
f 51/51/51 54/54/54 55/55/55
f 56/56/56 58/58/58 57/57/57
f 58/58/58 59/59/59 57/57/57
f 58/58/58 60/60/60 59/59/59
f 58/58/58 61/61/61 60/60/60
f 62/62/62 64/64/64 63/63/63
f 63/63/63 64/64/64 65/65/65
f 66/66/66 63/63/63 65/65/65
f 67/67/67 65/65/65 64/64/64
f 68/68/68 67/67/67 64/64/64
f 64/64/64 69/69/69 68/68/68
f 69/69/69 70/70/70 68/68/68
