mtllib P_RockDesert_Shelf09.mtl
v 7.159017 -11.66161 3.686382
v 6.200754 -11.66176 4.54278
v 6.745191 -6.177124 4.638772
v 7.648292 -6.177115 3.702379
v 8.343754 -11.66087 2.476779
v 7.000831 -2.294864 4.659455
v 8.514523 -5.830881 2.366508
v 8.816217 -11.62252 -1.164536
v 8.115874 -1.029485 3.679108
v 9.593867 -5.830881 -1.438432
v 9.059239 -11.47945 -3.111124
v 7.163349 -1.154487 6.047556
v 5.633038 -3.065168 5.307832
v 5.842967 -1.883327 6.681982
v 4.481472 -3.409081 5.845644
v 4.792163 -2.043429 7.189486
v 8.245931 0.9408416 6.164933
v 10.57843 -5.83088 -4.283376
v 8.518358 -11.43775 -4.482921
v 10.05785 -5.83088 -5.732747
v 11.70051 3.561132E-07 -4.716865
v 11.07009 4.73566E-07 -6.272574
v 10.64269 1.198908E-07 -1.588004
v 12.35565 5.484045 -6.03781
v 11.99822 5.546211 -6.864161
v 9.996172 0.02644904 0.3670323
v 9.349655 0.05289865 2.322068
v 8.530696 0.1296008 3.392506
v 10.35775 5.912565 2.599375
v 11.59056 5.830881 1.185175
v 11.70762 5.830881 -1.361437
v 12.4437 8.746321 -6.2143
v 12.05528 8.656721 -7.248708
v 12.54186 11.66176 -7.057458
v 12.55227 11.66176 -6.499358
v 12.89817 9.174663 -5.154881
v 13.27561 11.66176 -5.325362
v 12.71309 5.421879 -5.211461
v 12.62559 9.148629 -3.736318
v 13.21178 11.62777 -4.573119
v 12.4464 5.325437 -3.806849
v 12.0289 8.747571 -1.459525
v 12.35018 11.66426 -1.557612
v 12.17116 11.66355 1.250608
v 11.9352 9.292062 1.224015
v 10.49076 9.986263 2.861711
v 10.98577 11.6789 2.461888
v 9.911299 10.60402 4.205801
v 10.13776 11.68321 4.250993
v 8.928179 11.03655 5.491506
v 9.06176 11.69231 5.544055
v 10.45699 10.14963 5.261185
v 10.32261 10.45423 4.979942
v 10.09018 6.0885 5.230933
v 9.35587 10.05884 6.627937
v 9.253224 10.4679 6.341675
v 9.011186 6.020287 6.512351
v 7.642206 9.918276 7.952537
v 7.402412 5.965502 7.772553
v 6.500807 0.9491009 7.15933
v -6.408319 -11.66176 6.603682
v -7.562206 -11.66176 5.648623
v -8.144009 -5.697635 5.978645
v -7.027223 -5.761418 7.087151
v -5.109167 -11.66176 6.833374
v -8.621938 0.4936948 6.428779
v -5.485069 -5.053353 7.454421
v -3.786395 -11.66176 6.875237
v -7.488649 0.380818 7.436173
v -3.518658 -4.341778 7.400105
v -1.605642 -11.66176 6.592539
v -9.117627 5.913986 8.095324
v -9.443757 6.075669 7.602548
v -5.527065 0.3023894 8.013873
v -8.303251 5.825798 8.53084
v -9.02993 8.770404 8.740493
v -1.597687 -4.980216 7.361623
v 0.5196514 -11.66176 6.496845
v -3.215785 0.5830728 7.717526
v -6.457237 5.70436 9.24232
v -8.074316 8.74463 9.250659
v 0.6594642 -5.021102 7.140395
v 2.267165 -11.66176 5.652802
v -0.6839656 1.327431 7.831276
v -4.616146 5.824769 9.39206
v -8.942232 11.62682 9.385665
v -9.497296 8.869672 8.17307
v -9.550836 11.66368 8.743591
v -7.845382 11.66346 9.970479
v -6.115017 11.42436 10.19815
v -6.286127 8.564359 9.720234
v -4.468157 11.43363 10.31229
v -4.533284 8.96526 9.907312
v -1.818487 11.70905 9.864822
v -2.186272 9.292385 9.577626
v -2.723458 5.829078 9.158151
v -0.8517692 10.84971 9.428314
v 0.9573108 11.73029 9.368616
v 0.9237672 10.97907 9.180778
v 3.390322 11.29311 8.132687
v 3.36241 11.01064 8.0692
v 5.974654 11.34471 7.030518
v 5.94103 11.10358 7.00186
v 7.441027 11.72812 6.333166
v 7.323419 11.06817 6.269235
v 9.06176 11.69231 5.544055
v 8.928179 11.03655 5.491506
v 0.4641537 2.477443 7.955112
v -1.109557 6.030089 8.886891
v -0.7657646 8.441481 9.118408
v 0.5258109 9.066491 9.998448
v 0.455631 10.50589 9.928643
v 1.738026 10.52172 9.641298
v 3.877833 10.55312 9.328696
v 4.038809 10.12402 9.60423
v 1.223278 0.945875 7.659333
v -0.3514369 6.155672 9.073252
v 0.4999467 6.342075 9.739416
v 3.981849 6.018937 9.294084
v 1.220238 2.638365 8.173504
v 1.958314 1.150432 7.887043
v 2.639016 2.132691 8.762855
v 2.021225 0.1058632 7.432224
v 4.078352 0.7794899 8.570951
v 6.209411 5.987722 8.398642
v 6.380418 9.909336 8.615138
v 3.17134 -1.356619 7.957977
v 5.644486 0.899192 7.731851
v 7.402412 5.965502 7.772553
v 7.642206 9.918276 7.952537
v 6.500807 0.9491009 7.15933
v 2.516692 -5.813107 6.165024
v 3.948175 -11.66176 5.429579
v 2.750095 -2.620199 6.638847
v 4.792163 -2.043429 7.189486
v 5.842967 -1.883327 6.681982
v 8.245931 0.9408416 6.164933
v 7.163349 -1.154487 6.047556
v 4.481472 -3.409081 5.845644
v 4.30919 -6.485741 5.651764
v 4.955466 -11.66176 5.120327
v 5.405812 -6.485741 5.24732
v 6.200754 -11.66176 4.54278
v 5.633038 -3.065168 5.307832
v 6.745191 -6.177124 4.638772
v 7.000831 -2.294864 4.659455
v -8.166292 -11.66176 -5.272389
v -6.907044 -11.66176 -6.37393
v -7.019762 -5.79656 -7.103609
v -8.300181 -5.79656 -5.887306
v -8.38228 -11.66176 -3.342028
v -7.718629 0.03432094 -8.165483
v -8.796536 -5.799476 -3.859437
v -8.204645 -11.66134 -1.798491
v -9.068638 0.03432084 -6.875492
v -9.21032 5.830881 -9.197407
v -8.509096 -5.722638 -2.156303
v -7.6579 -10.6775 0.4184407
v -9.691761 0.01182739 -4.635308
v -10.66918 5.830881 -7.850456
v -9.70293 8.755953 -9.570438
v -7.833462 -4.757273 0.3043768
v -7.253408 -10.17406 1.849882
v -9.373355 0.08678422 -2.709371
v -10.92949 5.830881 -5.275618
v -11.2167 8.750842 -8.209081
v -7.373971 -4.146472 1.907965
v -7.47424 -10.35262 2.634593
v -8.78149 0.9111807 0.07337596
v -11.76422 11.6708 -8.567704
v -10.19554 11.68102 -9.943471
v -12.01133 11.69486 -5.827247
v -11.47041 8.762868 -5.551432
v -11.5705 11.73832 -3.478645
v -10.59821 5.830881 -3.112993
v -11.08436 8.784599 -3.295819
v -10.97977 11.77615 -0.008811112
v -10.22969 6.368387 -0.04219167
v -10.60473 9.072272 -0.02550138
v -10.06236 11.80288 2.469874
v -8.211011 1.684006 1.939425
v -9.335911 6.749391 2.088294
v -9.763744 9.56706 2.287634
v -10.2575 11.75423 3.779377
v -7.660469 -4.355071 2.769349
v -7.45703 -11.09479 4.006364
v -8.577572 1.41085 2.90479
v -7.802569 -5.208011 4.270368
v -7.562206 -11.66176 5.648623
v -8.144009 -5.697635 5.978645
v -8.908958 0.7339876 4.421267
v -8.621938 0.4936948 6.428779
v -9.689751 6.363507 3.266442
v -10.0375 9.343322 3.54368
v -10.0716 11.63498 6.178854
v -9.919199 5.805834 5.810431
v -9.443757 6.075669 7.602548
v -9.995399 8.720407 5.994643
v -9.550836 11.66368 8.743591
v -9.497296 8.869672 8.17307
v -9.117627 5.913986 8.095324
v -9.02993 8.770404 8.740493
v -12.01133 11.69486 -5.827247
v -11.76422 11.6708 -8.567704
v -10.19554 11.68102 -9.943471
v -10.32445 11.76128 -6.648305
v -11.5705 11.73832 -3.478645
v -7.996075 11.75225 -9.950184
v -9.930394 11.85682 -3.445312
v -10.97977 11.77615 -0.008811112
v -7.922749 11.57739 -6.712981
v -5.615645 11.85342 -9.934409
v -9.415761 11.90039 0.05790352
v -10.06236 11.80288 2.469874
v -5.668993 11.74699 -6.722585
v -2.26054 11.95948 -9.673521
v -7.615818 11.71582 -3.335885
v -9.049473 11.89636 2.007601
v -10.2575 11.75423 3.779377
v -2.531489 12.23881 -6.548134
v 0.8687019 11.99158 -9.174598
v -5.351171 11.90834 -3.275802
v -7.21785 12.10278 0.1381048
v -8.816655 11.85004 3.774713
v -10.0716 11.63498 6.178854
v 0.5175292 12.26093 -6.181222
v 3.538306 11.90805 -9.035629
v -2.345346 12.39572 -3.210096
v -5.115564 12.2743 0.09998223
v -8.311469 11.71821 6.959964
v -9.550836 11.66368 8.743591
v -8.942232 11.62682 9.385665
v -7.845382 11.66346 9.970479
v -6.852486 12.00157 3.710885
v -6.440114 11.79635 7.084361
v -6.115017 11.42436 10.19815
v 3.495509 12.17042 -6.013608
v 6.484705 11.77311 -9.207553
v 0.5551059 12.39572 -3.114457
v -4.875157 12.14514 3.58449
v -4.605527 11.85802 7.106234
v -4.468157 11.43363 10.31229
v -2.223207 12.39572 0.06970487
v 6.529758 11.92075 -6.220758
v 8.958231 11.68332 -9.037135
v -1.97115 11.92842 6.846141
v -1.818487 11.70905 9.864822
v -2.142045 12.23959 3.40238
v 0.6923056 12.39572 0.06988723
v 3.577006 12.26442 -3.079995
v 9.566173 11.70528 -6.743027
v 10.81859 11.68217 -8.923997
v 0.7825196 11.95457 6.533981
v 0.9573108 11.73029 9.368616
v 0.6924535 12.24626 3.321656
v 6.617968 11.99839 -3.154144
v 10.09628 11.7143 -4.328867
v 12.54186 11.66176 -7.057458
v 11.51841 11.66176 -8.608296
v 12.55227 11.66176 -6.499358
v 13.27561 11.66176 -5.325362
v 13.21178 11.62777 -4.573119
v 3.611821 12.27207 -0.05403409
v 3.565351 12.1689 3.058859
v 6.531045 12.01861 -0.1779471
v 9.466203 11.76939 -0.9281901
v 12.35018 11.66426 -1.557612
v 9.31449 11.77417 0.1495445
v 12.17116 11.66355 1.250608
v 3.438621 11.66895 6.789785
v 3.390322 11.29311 8.132687
v 6.343354 11.94454 3.243841
v 8.753821 11.7602 3.409267
v 10.98577 11.6789 2.461888
v 6.064888 11.63247 6.05716
v 5.974654 11.34471 7.030518
v 8.018579 11.74425 5.189748
v 10.13776 11.68321 4.250993
v 7.441027 11.72812 6.333166
v 9.06176 11.69231 5.544055
v 7.740049 -11.36673 -5.786479
v 8.518358 -11.43775 -4.482921
v 10.05785 -5.83088 -5.732747
v 9.070258 -5.83088 -6.862432
v 6.773244 -11.4801 -6.378105
v 11.07009 4.73566E-07 -6.272574
v 6.868019 -5.83088 -6.886206
v 5.979805 -11.5896 -6.517446
v 4.226655 -11.66158 -6.268043
v 10.05889 5.723351E-07 -7.580809
v 11.99822 5.546211 -6.864161
v 4.778823 -5.83088 -6.965832
v 2.068544 -11.66176 -6.09049
v 7.693825 5.837126E-07 -7.731508
v 11.10471 5.740186 -8.097222
v 12.05528 8.656721 -7.248708
v 2.458141 -5.83088 -6.512003
v 0.01681603 -11.66176 -6.182773
v 10.19068 5.85361 -8.519416
v 11.21836 8.813364 -8.385631
v 5.446388 5.899524E-07 -7.814157
v 0.2268683 -5.83088 -5.882035
v -1.975892 -11.66176 -6.3342
v 11.51841 11.66176 -8.608296
v 12.54186 11.66176 -7.057458
v 10.81859 11.68217 -8.923997
v 10.55855 8.699685 -8.727766
v 8.958231 11.68332 -9.037135
v 8.559586 5.596198 -8.529016
v 8.605344 8.568772 -8.862707
v 6.484705 11.77311 -9.207553
v 6.180552 5.423755 -8.681961
v 6.188462 8.348117 -9.06174
v 3.538306 11.90805 -9.035629
v 2.932686 5.609934E-07 -7.430582
v 3.351632 5.219998 -8.582594
v 3.303864 8.541555 -8.872443
v 0.8687019 11.99158 -9.174598
v 0.4836361 5.130079E-07 -6.794995
v 0.7146176 5.854798 -8.632648
v 0.7164465 8.748327 -8.974852
v -2.26054 11.95948 -9.673521
v -1.969752 -5.83088 -6.098047
v -3.934768 -11.66176 -6.370455
v -1.971031 5.39E-07 -7.139272
v -4.153919 -5.830814 -6.920981
v -5.392413 -11.66176 -6.374839
v -2.046105 5.850252 -9.0297
v -2.153322 8.904865 -9.35161
v -5.615645 11.85342 -9.934409
v -5.553836 -5.813251 -7.173803
v -6.907044 -11.66176 -6.37393
v -7.019762 -5.79656 -7.103609
v -4.453523 6.14807E-07 -8.143366
v -6.097332 0.01474012 -8.267258
v -7.718629 0.03432094 -8.165483
v -4.991021 5.840723 -9.219335
v -5.303333 8.847074 -9.576872
v -7.996075 11.75225 -9.950184
v -7.135564 5.831853 -9.219932
v -9.21032 5.830881 -9.197407
v -7.56582 8.792049 -9.585057
v -10.19554 11.68102 -9.943471
v -9.70293 8.755953 -9.570438
v -6.408319 -11.66176 6.603682
v -7.45703 -11.09479 4.006364
v -7.562206 -11.66176 5.648623
v -6.304748 -11.38238 4.424439
v -5.109167 -11.66176 6.833374
v -7.47424 -10.35262 2.634593
v -4.985489 -11.64364 4.466102
v -3.786395 -11.66176 6.875237
v -6.489964 -10.43067 2.437544
v -7.253408 -10.17406 1.849882
v -3.69206 -11.66176 4.467156
v -1.605642 -11.66176 6.592539
v -5.049778 -11.2332 2.376008
v -6.45053 -10.52629 1.024821
v -7.6579 -10.6775 0.4184407
v -1.66718 -11.66176 4.328256
v 0.5196514 -11.66176 6.496845
v -3.661904 -11.66176 2.331011
v -5.120179 -11.41521 0.3073461
v -6.59357 -10.82378 0.3063013
v -8.204645 -11.66134 -1.798491
v -6.873001 -11.65893 -1.766894
v -8.38228 -11.66176 -3.342028
v 0.3480642 -11.66176 4.251303
v 2.267165 -11.66176 5.652802
v -1.730671 -11.66176 2.279966
v -3.710421 -11.66176 0.2782843
v -5.22975 -11.66176 -1.785573
v -7.035218 -11.66176 -3.825715
v -8.166292 -11.66176 -5.272389
v -6.907044 -11.66176 -6.37393
v -5.317689 -11.66176 -3.939873
v -5.392413 -11.66176 -6.374839
v 2.133467 -11.66176 3.885843
v 3.948175 -11.66176 5.429579
v 0.2000665 -11.66176 2.233702
v -1.872152 -11.66176 0.2139143
v -3.867119 -11.66176 -1.816871
v -3.963093 -11.66176 -3.992127
v -3.934768 -11.66176 -6.370455
v 3.903975 -11.66176 4.225957
v 4.955466 -11.66176 5.120327
v 2.084866 -11.66176 2.116807
v -2.084773 -11.66176 -1.849348
v -2.145745 -11.66176 -3.983468
v -1.975892 -11.66176 -6.3342
v 0.008779732 -11.66176 0.1845812
v 5.323186 -11.66176 4.211296
v 6.200754 -11.66176 4.54278
v 7.159017 -11.66161 3.686382
v -0.2248815 -11.66176 -1.819106
v -0.253598 -11.66176 -3.880372
v 0.01681603 -11.66176 -6.182773
v 1.96462 -11.66176 0.08007432
v 3.994626 -11.66176 2.677111
v 5.814236 -11.66176 2.956076
v 8.343754 -11.66087 2.476779
v 1.76861 -11.66176 -3.800766
v 2.068544 -11.66176 -6.09049
v 1.785571 -11.66176 -1.792996
v 4.012815 -11.66176 0.1863431
v 6.230561 -11.65975 -0.3537828
v 8.816217 -11.62252 -1.164536
v 3.951369 -11.66176 -1.878873
v 3.937041 -11.66176 -3.910921
v 4.226655 -11.66158 -6.268043
v 6.721837 -11.65921 -2.912299
v 9.059239 -11.47945 -3.111124
v 6.349512 -11.65372 -4.508338
v 5.979805 -11.5896 -6.517446
v 8.518358 -11.43775 -4.482921
v 6.773244 -11.4801 -6.378105
v 7.740049 -11.36673 -5.786479
v 0.9237672 10.97907 9.180778
v 0.455631 10.50589 9.928643
v -0.8517692 10.84971 9.428314
v 1.738026 10.52172 9.641298
v 3.773075 10.73453 8.809392
v 3.36241 11.01064 8.0692
v 5.94103 11.10358 7.00186
v 3.877833 10.55312 9.328696
v 6.152588 10.55259 7.796972
v 7.323419 11.06817 6.269235
v 6.30406 10.3449 8.320991
v 4.038809 10.12402 9.60423
v 6.380418 9.909336 8.615138
v 7.472084 10.54236 7.101178
v 8.928179 11.03655 5.491506
v 7.589781 10.3485 7.639863
v 7.642206 9.918276 7.952537
v 9.126618 10.56225 6.052884
v 9.911299 10.60402 4.205801
v 9.253224 10.4679 6.341675
v 9.35587 10.05884 6.627937
v 10.08801 10.44016 4.571291
v 10.49076 9.986263 2.861711
v 10.32261 10.45423 4.979942
vn 0.5115374 -0.7203991 0.468353
vn 0.3995475 -0.7002282 0.5916436
vn 0.5724814 -0.05655337 0.817965
vn 0.7472701 -0.06377189 0.6614534
vn 0.6811689 -0.6580089 0.3209881
vn 0.7069399 -0.3254043 0.6279715
vn 0.8961403 -0.09267822 0.4339855
vn 0.6543316 -0.7444378 0.1329008
vn 0.8441997 -0.2372241 0.4806782
vn 0.9551386 -0.1376535 0.2622244
vn 0.6907408 -0.7225598 -0.02800887
vn 0.6904291 -0.4484453 0.5676306
vn 0.4982609 -0.3724762 0.7829416
vn 0.5222626 -0.5111642 0.6826075
vn 0.330259 -0.3717831 0.8675865
vn 0.3130228 -0.5584114 0.7682406
vn 0.7832711 -0.2909616 0.5493885
vn 0.9740156 -0.2222022 -0.04381523
vn 0.5661274 -0.7654189 -0.3059964
vn 0.8404828 -0.2568865 -0.4770723
vn 0.9802374 -0.1956138 -0.02949113
vn 0.847344 -0.1988507 -0.492409
vn 0.9448494 -0.1824571 0.2719727
vn 0.9142152 -0.1223046 -0.3863317
vn 0.8599719 -0.132849 -0.4927468
vn 0.9320425 -0.1906831 0.3081181
vn 0.8520039 -0.1574378 0.4993022
vn 0.8762339 -0.2368538 0.4196598
vn 0.9097711 -0.1723675 0.377632
vn 0.9196194 -0.1646138 0.3566546
vn 0.9689175 -0.1461563 0.1995927
vn 0.9302752 -0.07552776 -0.3590037
vn 0.8825061 -0.0895502 -0.4616966
vn 0.7366855 0.5949477 -0.3214526
vn 0.6507891 0.7215205 -0.236393
vn 0.9863366 -0.1029667 -0.1285998
vn 0.7995716 0.5881037 -0.1217348
vn 0.986255 -0.1188866 -0.1147474
vn 0.9701503 -0.09805463 0.2217967
vn 0.7748829 0.6102727 0.1646928
vn 0.9625193 -0.1226424 0.2418999
vn 0.9817303 -0.09854296 0.1627728
vn 0.7228619 0.6818135 0.1122545
vn 0.7458718 0.5877475 0.3134138
vn 0.9167905 -0.09280357 0.3884362
vn 0.9000956 -0.03294171 0.4344454
vn 0.5826004 0.6927348 0.4250828
vn 0.8777344 0.3141479 0.3617921
vn 0.6779252 0.5922924 0.435439
vn 0.6353127 0.3490579 0.688866
vn 0.5168818 0.5743523 0.6347855
vn 0.8907012 0.2523403 0.3781215
vn 0.5969775 0.794317 0.1125985
vn 0.9178872 -0.1562542 0.3647845
vn 0.6609718 0.2660007 0.7016836
vn 0.3880481 0.8203668 0.4200203
vn 0.6818793 -0.1206019 0.7214539
vn 0.5141467 0.2531438 0.8194946
vn 0.5339864 -0.1233809 0.8364423
vn 0.5119563 -0.2249121 0.8290448
vn -0.361533 -0.7186875 0.5939547
vn -0.6926654 -0.7050512 0.1520439
vn -0.9316091 -0.1133512 0.3453346
vn -0.4591996 -0.1060111 0.8819848
vn -0.08626565 -0.7336318 0.6740494
vn -0.8979566 -0.189028 0.3974198
vn -0.08674606 -0.08899271 0.9922477
vn 0.02688243 -0.7205571 0.6928744
vn -0.5043311 -0.1808092 0.8443685
vn 0.04454656 -0.08192396 0.9956425
vn 0.0445458 -0.7503371 0.6595529
vn -0.6415081 -0.2071111 0.7386287
vn -0.8917813 -0.1549633 0.4251029
vn -0.09442918 -0.169453 0.981004
vn -0.4046786 -0.2105146 0.8898982
vn -0.6358302 -0.1564845 0.7557993
vn 0.05613811 -0.0905863 0.9943051
vn 0.1834552 -0.7013301 0.6888252
vn 0.04896451 -0.1638306 0.9852726
vn -0.1749822 -0.2115453 0.9615768
vn -0.3689357 -0.1795364 0.9119502
vn 0.2407441 -0.1166625 0.9635518
vn 0.201732 -0.7714702 0.6034384
vn 0.07575022 -0.1618631 0.9839016
vn 0.0466715 -0.205732 0.9774948
vn -0.503934 0.5873101 0.6333382
vn -0.8983423 -0.09179421 0.4295987
vn -0.7023938 0.6069776 0.3717811
vn -0.2502588 0.6049734 0.7558954
vn -0.1044848 0.576959 0.8100625
vn -0.1675965 -0.1699325 0.9710996
vn 0.01668479 0.5647331 0.825105
vn 0.04826638 -0.1606246 0.9858347
vn 0.1322445 0.6182989 0.7747372
vn 0.198563 -0.1426883 0.9696457
vn 0.1291903 -0.1938494 0.9724877
vn 0.07232743 -0.0915198 0.9931732
vn 0.2664142 0.5562879 0.7871259
vn 0.2419269 0.3998734 0.8840659
vn 0.3823631 0.503205 0.774973
vn 0.3492117 0.4230449 0.8361125
vn 0.333013 0.5083227 0.7941728
vn 0.3999405 0.4091936 0.820127
vn 0.2688433 0.6500676 0.7107288
vn 0.4293149 0.3852564 0.8168637
vn 0.5168818 0.5743523 0.6347855
vn 0.6353127 0.3490579 0.688866
vn -0.0394844 -0.249509 0.9675671
vn 0.01775898 -0.1870205 0.9821955
vn -0.1795181 -0.1246739 0.9758226
vn -0.183672 -0.03359522 0.9824134
vn -0.03572039 0.4513491 0.8916323
vn 0.1265319 0.6212398 0.7733374
vn 0.1722681 0.7341051 0.6568207
vn 0.2514398 0.2160604 0.943449
vn -0.04047593 -0.2156187 0.9756384
vn -0.368232 -0.2339774 0.8998109
vn -0.2664876 -0.2026121 0.9423018
vn 0.2477365 -0.1160082 0.9618569
vn -0.3415395 -0.3595568 0.8683719
vn -0.443937 -0.3492262 0.8252036
vn -0.2317261 -0.2832645 0.9306257
vn -0.2897042 -0.2636089 0.9200988
vn 0.2058528 -0.2364699 0.9495823
vn 0.4397671 -0.1151614 0.8906979
vn 0.4197081 0.2564667 0.8706722
vn -0.2033785 -0.4521567 0.868442
vn 0.4517017 -0.2285493 0.8623983
vn 0.5339864 -0.1233809 0.8364423
vn 0.5141467 0.2531438 0.8194946
vn 0.5119563 -0.2249121 0.8290448
vn 0.3405285 -0.1122814 0.9335059
vn 0.1792501 -0.7125853 0.6783004
vn 0.1717289 -0.3652411 0.9149362
vn 0.3130228 -0.5584114 0.7682406
vn 0.5222626 -0.5111642 0.6826075
vn 0.7832711 -0.2909616 0.5493885
vn 0.6904291 -0.4484453 0.5676306
vn 0.330259 -0.3717831 0.8675865
vn 0.2977077 -0.07630426 0.9516027
vn 0.2598401 -0.7124256 0.6518687
vn 0.3933612 -0.05443408 0.9177712
vn 0.3995475 -0.7002282 0.5916436
vn 0.4982609 -0.3724762 0.7829416
vn 0.5724814 -0.05655337 0.817965
vn 0.7069399 -0.3254043 0.6279715
vn -0.6626717 -0.6612124 -0.3516596
vn -0.2774125 -0.6807566 -0.6779475
vn -0.3736164 -0.1682463 -0.9121974
vn -0.8587618 -0.1441341 -0.4916844
vn -0.7090929 -0.7050932 -0.005565631
vn -0.3651785 -0.2289552 -0.9023436
vn -0.9941083 -0.1052382 -0.02595485
vn -0.6472368 -0.7190367 0.2531221
vn -0.8404548 -0.2466293 -0.4825037
vn -0.3670352 -0.2148413 -0.9050571
vn -0.9736702 -0.07988957 0.2135039
vn -0.6732554 -0.6064218 0.4230602
vn -0.9809992 -0.191935 -0.02831027
vn -0.8590336 -0.2498034 -0.4468327
vn -0.3518379 -0.1777325 -0.9190328
vn -0.9545052 -0.08011542 0.2872305
vn -0.785246 -0.6180738 0.0370606
vn -0.9649374 -0.1649297 0.204191
vn -0.9792737 -0.202307 0.009750253
vn -0.87277 -0.2136296 -0.438902
vn -0.9955006 -0.0939025 -0.01268475
vn -0.784576 -0.552641 -0.2811201
vn -0.9380818 -0.176914 0.2978319
vn -0.7528065 0.5332812 -0.3858673
vn -0.3059949 0.5643783 -0.7667101
vn -0.8069602 0.5903897 0.01597951
vn -0.9836881 -0.1757593 0.03829389
vn -0.7673919 0.6301292 0.1185204
vn -0.9690824 -0.1796488 0.1691319
vn -0.9753094 -0.1504921 0.1616278
vn -0.7710968 0.6048687 0.1988558
vn -0.9418091 -0.1830095 0.2819631
vn -0.9531789 -0.1451478 0.2652962
vn -0.7072338 0.7033929 0.07112484
vn -0.9820208 -0.1887092 0.004894061
vn -0.984086 -0.171912 0.04495628
vn -0.9891487 -0.1270039 0.07385752
vn -0.774254 0.6324645 -0.02279269
vn -0.9625139 -0.09540714 -0.2538984
vn -0.6690915 -0.6705373 -0.3204629
vn -0.9439629 -0.162972 -0.2870091
vn -0.9898315 -0.09346614 -0.1072275
vn -0.6926654 -0.7050512 0.1520439
vn -0.9316091 -0.1133512 0.3453346
vn -0.9823048 -0.1696957 -0.07924967
vn -0.8979566 -0.189028 0.3974198
vn -0.9660241 -0.1341035 -0.2209383
vn -0.98958 -0.08145627 -0.1187285
vn -0.7553197 0.644306 0.1198414
vn -0.9889554 -0.1367057 0.05725961
vn -0.8917813 -0.1549633 0.4251029
vn -0.9923673 -0.05838092 0.1086217
vn -0.7023938 0.6069776 0.3717811
vn -0.8983423 -0.09179421 0.4295987
vn -0.6415081 -0.2071111 0.7386287
vn -0.6358302 -0.1564845 0.7557993
vn -0.8069602 0.5903897 0.01597951
vn -0.7528065 0.5332812 -0.3858673
vn -0.3059949 0.5643783 -0.7667101
vn -0.001607722 0.999868 -0.01616627
vn -0.7673919 0.6301292 0.1185204
vn -0.00987835 0.6703642 -0.7419665
vn -0.01770953 0.9994323 -0.02866258
vn -0.7710968 0.6048687 0.1988558
vn -0.009386088 0.9999433 -0.005048268
vn -0.02364301 0.6602509 -0.7506729
vn -0.06289861 0.9979935 -0.00726044
vn -0.7072338 0.7033929 0.07112484
vn -0.09406236 0.9954602 -0.01453735
vn 0.0478598 0.6448159 -0.7628379
vn -0.02732023 0.9978679 -0.0592727
vn -0.07889413 0.996503 0.02752359
vn -0.774254 0.6324645 -0.02279269
vn -0.06385975 0.9966878 -0.05035273
vn 0.07676324 0.6658887 -0.7420914
vn -0.1061824 0.99275 -0.0563258
vn -0.06515232 0.9975924 -0.02375913
vn -0.06916547 0.9965807 0.04520167
vn -0.7553197 0.644306 0.1198414
vn 0.01851982 0.9977514 -0.06441338
vn 0.02585888 0.6747991 -0.7375483
vn -0.06370017 0.9974204 -0.03308732
vn -0.07482705 0.997057 -0.01668061
vn -0.03042639 0.9985515 0.0443753
vn -0.7023938 0.6069776 0.3717811
vn -0.503934 0.5873101 0.6333382
vn -0.2502588 0.6049734 0.7558954
vn -0.06579864 0.996439 0.05272328
vn -0.02263361 0.9964422 0.08118302
vn -0.1044848 0.576959 0.8100625
vn 0.05415448 0.9970107 -0.05510854
vn 0.04493212 0.6537977 -0.7553341
vn 0.0199969 0.9995691 -0.0214863
vn -0.04678656 0.9970131 0.06144869
vn -0.03765896 0.9943311 0.09943534
vn 0.01668479 0.5647331 0.825105
vn -0.03455791 0.9993494 0.01031772
vn 0.06676885 0.9969559 -0.04026127
vn 0.07486075 0.6700477 -0.7385336
vn -0.01761525 0.9958608 0.08916822
vn 0.1322445 0.6182989 0.7747372
vn -0.01521712 0.99767 0.06650617
vn 0.02016978 0.999571 0.02123731
vn 0.06287129 0.9978448 -0.01878888
vn 0.03682179 0.9991497 -0.01854702
vn 0.2107636 0.6362625 -0.7421245
vn 0.05542041 0.9931093 0.1032591
vn 0.2664142 0.5562879 0.7871259
vn 0.02575179 0.9969803 0.07326091
vn 0.08108708 0.9966056 -0.01421465
vn 0.04630918 0.9988895 -0.0086658
vn 0.7366855 0.5949477 -0.3214526
vn 0.5294648 0.5952159 -0.6044708
vn 0.6507891 0.7215205 -0.236393
vn 0.7995716 0.5881037 -0.1217348
vn 0.7748829 0.6102727 0.1646928
vn 0.0627314 0.997905 0.01582581
vn 0.0613767 0.9952556 0.07549278
vn 0.08337509 0.9964545 0.01126869
vn 0.05970807 0.9982159 -1.587004E-05
vn 0.7228619 0.6818135 0.1122545
vn 0.06018677 0.9981261 0.01103949
vn 0.7458718 0.5877475 0.3134138
vn 0.09991374 0.9800746 0.171671
vn 0.3823631 0.503205 0.774973
vn 0.06322493 0.9959496 0.06392939
vn 0.04892318 0.9982947 0.03184781
vn 0.5826004 0.6927348 0.4250828
vn 0.01206369 0.989427 0.144529
vn 0.333013 0.5083227 0.7941728
vn 0.02164329 0.9981903 0.05610415
vn 0.6779252 0.5922924 0.435439
vn 0.2688433 0.6500676 0.7107288
vn 0.5168818 0.5743523 0.6347855
vn 0.4912164 -0.7089006 -0.5061289
vn 0.5661274 -0.7654189 -0.3059964
vn 0.8404828 -0.2568865 -0.4770723
vn 0.4522282 -0.2123753 -0.8662485
vn 0.2774814 -0.6859949 -0.6726182
vn 0.847344 -0.1988507 -0.492409
vn 0.0158721 -0.1161597 -0.9931037
vn 0.08373024 -0.7001095 -0.7091092
vn -0.05662894 -0.7445153 -0.6651994
vn 0.4506118 -0.1872473 -0.8728616
vn 0.8599719 -0.132849 -0.4927468
vn -0.08106417 -0.112755 -0.9903105
vn -0.08916643 -0.7360228 -0.6710587
vn 0.04526909 -0.1493677 -0.9877449
vn 0.6279473 -0.1388389 -0.7657715
vn 0.8825061 -0.0895502 -0.4616966
vn -0.1752938 -0.08964028 -0.9804268
vn -0.01142143 -0.7052189 -0.7088977
vn 0.2310045 -0.1280879 -0.9644845
vn 0.6372814 -0.1077153 -0.7630661
vn -0.0385924 -0.1550514 -0.9871523
vn -0.04268802 -0.06617822 -0.9968942
vn 0.1042954 -0.6977531 -0.7087052
vn 0.5294648 0.5952159 -0.6044708
vn 0.7366855 0.5949477 -0.3214526
vn 0.2107636 0.6362625 -0.7421245
vn 0.2551267 -0.09640082 -0.96209
vn 0.07486075 0.6700477 -0.7385336
vn 0.05982759 -0.1330194 -0.9893061
vn 0.06908702 -0.08427808 -0.9940444
vn 0.04493212 0.6537977 -0.7553341
vn 0.004649414 -0.1398568 -0.9901608
vn 0.009643036 -0.0825096 -0.9965436
vn 0.02585888 0.6747991 -0.7375483
vn -0.1626274 -0.1753557 -0.9709803
vn -0.07097778 -0.1649494 -0.9837448
vn -0.01389794 -0.07656182 -0.996968
vn 0.07676324 0.6658887 -0.7420914
vn -0.03928837 -0.2153724 -0.9757414
vn 0.03934321 -0.187305 -0.9815136
vn 0.08378163 -0.08721527 -0.9926601
vn 0.0478598 0.6448159 -0.7628379
vn 0.191861 -0.07868472 -0.9782628
vn 0.1011466 -0.7292475 -0.676733
vn 0.2078978 -0.2186075 -0.9534093
vn 0.1971012 -0.1239417 -0.9725171
vn 0.02207619 -0.7486767 -0.6625677
vn 0.1376746 -0.1866613 -0.9727298
vn 0.1052481 -0.100321 -0.9893728
vn -0.02364301 0.6602509 -0.7506729
vn 0.03393511 -0.1544727 -0.9874141
vn -0.2774125 -0.6807566 -0.6779475
vn -0.3736164 -0.1682463 -0.9121974
vn 0.1803737 -0.1910183 -0.9648717
vn 0.01403115 -0.1789444 -0.9837592
vn -0.3651785 -0.2289552 -0.9023436
vn 0.07713766 -0.1552568 -0.9848579
vn 0.03964977 -0.1128579 -0.9928197
vn -0.00987835 0.6703642 -0.7419665
vn -0.002993189 -0.1472212 -0.9890991
vn -0.3670352 -0.2148413 -0.9050571
vn 0.0008383941 -0.1223213 -0.9924902
vn -0.3059949 0.5643783 -0.7667101
vn -0.3518379 -0.1777325 -0.9190328
vn -0.361533 -0.7186875 0.5939547
vn -0.6690915 -0.6705373 -0.3204629
vn -0.6926654 -0.7050512 0.1520439
vn -0.1389193 -0.9607333 -0.2401937
vn -0.08626565 -0.7336318 0.6740494
vn -0.784576 -0.552641 -0.2811201
vn -0.1508621 -0.9824744 -0.1094744
vn 0.02688243 -0.7205571 0.6928744
vn -0.3125754 -0.9331881 -0.1773604
vn -0.785246 -0.6180738 0.0370606
vn -0.04344163 -0.9987484 -0.02478781
vn 0.0445458 -0.7503371 0.6595529
vn -0.3224625 -0.9443104 -0.06554169
vn -0.2971887 -0.9264241 0.2311216
vn -0.6732554 -0.6064218 0.4230602
vn 0 -1 -2.056859E-07
vn 0.1834552 -0.7013301 0.6888252
vn -0.09931947 -0.9950008 -0.01043627
vn -0.2441013 -0.959587 0.1400255
vn -0.1561178 -0.9184111 0.3635221
vn -0.6472368 -0.7190367 0.2531221
vn -0.05397673 -0.9834261 0.1730886
vn -0.7090929 -0.7050932 -0.005565631
vn 1.866872E-07 -1 -1.760076E-07
vn 0.201732 -0.7714702 0.6034384
vn 0 -1 0
vn -0.07978418 -0.9964178 0.02803807
vn -0.06813508 -0.9941283 0.08406253
vn 1.340652E-05 -0.9999999 0.0003455132
vn -0.6626717 -0.6612124 -0.3516596
vn -0.2774125 -0.6807566 -0.6779475
vn -0.0002001123 -1 0.0001767336
vn 0.02207619 -0.7486767 -0.6625677
vn 2.341574E-07 -1 0
vn 0.1792501 -0.7125853 0.6783004
vn 0 -1 0
vn 0 -1 0
vn -0.02249401 -0.9996099 0.01655919
vn -1.338907E-07 -1 -2.025534E-07
vn 0.1011466 -0.7292475 -0.676733
vn 0 -1 0
vn 0.2598401 -0.7124256 0.6518687
vn 0 -1 0
vn 1.625902E-07 -1 0
vn 0 -1 -1.611562E-07
vn 0.1042954 -0.6977531 -0.7087052
vn 0 -1 0
vn 3.806095E-05 -1 -4.741704E-05
vn 0.3995475 -0.7002282 0.5916436
vn 0.5115374 -0.7203991 0.468353
vn 0 -1 0
vn 0 -1 0
vn -0.01142143 -0.7052189 -0.7088977
vn 0 -1 0
vn 0.0001303062 -1 -8.48569E-05
vn 0.001424402 -0.9999983 -0.001136015
vn 0.6811689 -0.6580089 0.3209881
vn 8.421056E-06 -1 -7.394786E-06
vn -0.08916643 -0.7360228 -0.6710587
vn 0 -1 0
vn 0.0003336855 -0.9999999 -9.679346E-05
vn 0.009001316 -0.9999412 -0.006042278
vn 0.6543316 -0.7444378 0.1329008
vn 0.0005672704 -0.9999998 -0.0003352993
vn 0.003546473 -0.9999881 -0.00337338
vn -0.05662894 -0.7445153 -0.6651994
vn 0.03539095 -0.9991835 -0.01949072
vn 0.6907408 -0.7225598 -0.02800887
vn 0.05855738 -0.9976175 -0.03647252
vn 0.08373024 -0.7001095 -0.7091092
vn 0.5661274 -0.7654189 -0.3059964
vn 0.2774814 -0.6859949 -0.6726182
vn 0.4912164 -0.7089006 -0.5061289
vn 0.2419269 0.3998734 0.8840659
vn -0.03572039 0.4513491 0.8916323
vn 0.07232743 -0.0915198 0.9931732
vn 0.1265319 0.6212398 0.7733374
vn 0.1445603 0.9175944 0.3703009
vn 0.3492117 0.4230449 0.8361125
vn 0.3999405 0.4091936 0.820127
vn 0.1722681 0.7341051 0.6568207
vn 0.2043331 0.9046286 0.3740257
vn 0.4293149 0.3852564 0.8168637
vn 0.2944965 0.7817547 0.5496648
vn 0.2514398 0.2160604 0.943449
vn 0.4197081 0.2564667 0.8706722
vn 0.2212888 0.8909396 0.3965574
vn 0.6353127 0.3490579 0.688866
vn 0.3234529 0.7812834 0.5338299
vn 0.5141467 0.2531438 0.8194946
vn 0.2729603 0.9218193 0.2752125
vn 0.8777344 0.3141479 0.3617921
vn 0.3880481 0.8203668 0.4200203
vn 0.6609718 0.2660007 0.7016836
vn 0.4349611 0.9001423 0.02350882
vn 0.9000956 -0.03294171 0.4344454
vn 0.5969775 0.794317 0.1125985
vt 0.8741445 0.8281662
vt 0.8936278 0.8300317
vt 0.8937198 0.7341652
vt 0.8732278 0.7324769
vt 0.847572 0.8259292
vt 0.8937337 0.6666443
vt 0.8464594 0.7251206
vt 0.7849397 0.8260316
vt 0.8716897 0.6426648
vt 0.7777172 0.7245063
vt 0.7515459 0.8239974
vt 0.9160177 0.6458778
vt 0.9118666 0.6828761
vt 0.9336666 0.6612881
vt 0.9270869 0.6912973
vt 0.9478749 0.6663151
vt 0.9124782 0.6071026
vt 0.7253233 0.7236189
vt 0.7319892 0.8252998
vt 0.7043628 0.7256312
vt 0.7135512 0.6206703
vt 0.6914545 0.623003
vt 0.7710337 0.621586
vt 0.6896769 0.5252874
vt 0.678084 0.5255097
vt 0.8068775 0.6216676
vt 0.8427213 0.6217491
vt 0.8649719 0.6218427
vt 0.8433077 0.518208
vt 0.8130711 0.5173821
vt 0.770457 0.5184304
vt 0.6872053 0.4689562
vt 0.6723149 0.471977
vt 0.6735941 0.4189252
vt 0.6827309 0.4186085
vt 0.7022338 0.4599264
vt 0.6980174 0.4162512
vt 0.7012697 0.5250651
vt 0.7271269 0.460291
vt 0.7107595 0.4165979
vt 0.7258799 0.5266359
vt 0.7678708 0.4674506
vt 0.7652845 0.4164709
vt 0.8125561 0.4154475
vt 0.8127651 0.4568925
vt 0.8480452 0.4475579
vt 0.8391644 0.4174081
vt 0.8736157 0.4376084
vt 0.873398 0.4184436
vt 0.9004349 0.4318542
vt 0.9007386 0.4202055
vt 0.8878146 0.4435708
vt 0.8840212 0.4387932
vt 0.8882155 0.5144468
vt 0.9164817 0.4470759
vt 0.9124575 0.4404245
vt 0.915359 0.517554
vt 0.9478749 0.4529374
vt 0.9451275 0.5217183
vt 0.9386499 0.6106482
vt 0.2550796 0.8514392
vt 0.2765853 0.8543665
vt 0.2890299 0.7511163
vt 0.2678933 0.7488643
vt 0.232205 0.8505058
vt 0.2995944 0.643604
vt 0.240933 0.735328
vt 0.2092185 0.8500919
vt 0.2783082 0.6424742
vt 0.2072903 0.7228141
vt 0.1718791 0.8503922
vt 0.3081681 0.545943
vt 0.3146773 0.5446154
vt 0.2433665 0.6417671
vt 0.293325 0.5460584
vt 0.3070094 0.4950499
vt 0.1737568 0.7334582
vt 0.1352047 0.8501824
vt 0.2039228 0.6372544
vt 0.2601533 0.5457425
vt 0.289631 0.4938528
vt 0.1349765 0.7342719
vt 0.1062608 0.8521483
vt 0.1602329 0.6235808
vt 0.2280731 0.5428422
vt 0.3058507 0.4441567
vt 0.3160539 0.4950348
vt 0.3174304 0.4454542
vt 0.2859371 0.4416471
vt 0.2554782 0.4447303
vt 0.2578157 0.4952363
vt 0.2267661 0.4438824
vt 0.2273413 0.487433
vt 0.1816956 0.4398063
vt 0.1873537 0.4822075
vt 0.19565 0.5429968
vt 0.16522 0.4555716
vt 0.1343939 0.4402046
vt 0.1349089 0.4536422
vt 0.09398082 0.4506219
vt 0.09442829 0.4556581
vt 0.05097056 0.4522345
vt 0.05148187 0.4564646
vt 0.02685141 0.4472671
vt 0.02867112 0.4588096
vt -2.989881E-09 0.4497232
vt 0.002080517 0.4611654
vt 0.1406994 0.6032208
vt 0.1682118 0.5399392
vt 0.1630551 0.4977895
vt 0.1395848 0.4843036
vt 0.1416078 0.4597868
vt 0.1198496 0.4600297
vt 0.08328226 0.4598832
vt 0.07984918 0.4664488
vt 0.1272728 0.6301878
vt 0.1548413 0.5370909
vt 0.1391247 0.5318363
vt 0.0793408 0.5378501
vt 0.1273305 0.5996764
vt 0.1142751 0.6258725
vt 0.1015692 0.6063983
vt 0.1133995 0.6450739
vt 0.07627814 0.6298583
vt 0.04214514 0.5403882
vt 0.04073684 0.4723748
vt 0.09193105 0.668471
vt 0.05052719 0.6297947
vt 0.02245375 0.5422513
vt 0.01992643 0.4737892
vt 0.03661973 0.6303446
vt 0.1039562 0.7501861
vt 0.07748648 0.8523946
vt 0.1007068 0.6939584
vt 0.06473046 0.6820531
vt 0.04740351 0.6804847
vt 0.007951239 0.632873
vt 0.02588156 0.66944
vt 0.07158037 0.7093382
vt 0.0733838 0.762773
vt 0.06052221 0.8530325
vt 0.05502233 0.7636568
vt 0.03985876 0.8543665
vt 0.05264436 0.7046741
vt 0.03292691 0.7597546
vt 0.03034305 0.6929454
vt 0.5921103 0.8274254
vt 0.6136969 0.8303416
vt 0.6269757 0.7288833
vt 0.6033623 0.7259309
vt 0.5583019 0.8271559
vt 0.6448085 0.6265472
vt 0.5673015 0.7250429
vt 0.5319758 0.8277851
vt 0.6197807 0.6234353
vt 0.6605172 0.5228787
vt 0.5384496 0.7246432
vt 0.494903 0.8124519
vt 0.5797903 0.6226045
vt 0.6342848 0.5195096
vt 0.6664161 0.4712174
vt 0.4974203 0.7099741
vt 0.4710495 0.8049483
vt 0.5471489 0.6223422
vt 0.589245 0.5192178
vt 0.6398229 0.4678048
vt 0.4707181 0.7007767
vt 0.4570101 0.8075929
vt 0.500361 0.6099416
vt 0.645361 0.4161
vt 0.6723149 0.4195562
vt 0.5974883 0.4154475
vt 0.5933667 0.4673327
vt 0.5577823 0.4160817
vt 0.5525264 0.5203099
vt 0.5551543 0.4681959
vt 0.4989941 0.417326
vt 0.5002639 0.512349
vt 0.499629 0.4648375
vt 0.4579991 0.4194247
vt 0.4693702 0.5982564
vt 0.4652947 0.5082381
vt 0.4614128 0.4586613
vt 0.4349588 0.4199621
vt 0.4552161 0.7037894
vt 0.4332168 0.820608
vt 0.451899 0.6022008
vt 0.4288497 0.7183433
vt 0.4045266 0.8303416
vt 0.3985528 0.7261781
vt 0.4249099 0.6132618
vt 0.3907469 0.6183672
vt 0.4441536 0.5141846
vt 0.4391113 0.4620182
vt 0.3938337 0.4227875
vt 0.3996246 0.5235753
vt 0.3696435 0.5203183
vt 0.3967291 0.4731814
vt 0.3505502 0.4238991
vt 0.3600969 0.4721087
vt 0.3617584 0.5239633
vt 0.3512159 0.4750313
vt 0.0781141 5.498397E-09
vt 0.03030765 0.001474254
vt 0.00477664 0.0273016
vt 0.06204335 0.0284317
vt 0.118383 0.01006466
vt 0.002299694 0.06547628
vt 0.1171502 0.03854582
vt 0.1779606 0.02389227
vt 0.05854828 0.07015572
vt -1.952403E-08 0.1068065
vt 0.1773825 0.05108382
vt 0.2200012 0.04237643
vt 0.05588716 0.1092335
vt 0.0009295731 0.1653195
vt 0.1167348 0.07891978
vt 0.2108429 0.05945991
vt 0.242973 0.04035588
vt 0.05524229 0.1637321
vt 0.006285364 0.2201823
vt 0.1152539 0.11825
vt 0.176313 0.0892718
vt 0.2413072 0.06534494
vt 0.2845195 0.0461058
vt 0.05839864 0.2170689
vt 0.005965661 0.2667325
vt 0.1128629 0.1703507
vt 0.1733141 0.1256881
vt 0.2961678 0.07745672
vt 0.3284678 0.0577876
vt 0.3390034 0.06903635
vt 0.3479761 0.08868004
vt 0.2380225 0.09934296
vt 0.2963049 0.1100642
vt 0.350302 0.1190642
vt 0.05825844 0.2690083
vt -1.212228E-08 0.3177897
vt 0.1114838 0.220835
vt 0.2336443 0.133508
vt 0.2947139 0.1419334
vt 0.3505503 0.1477872
vt 0.1696628 0.1758563
vt 0.05167916 0.3215984
vt 0.0004364591 0.3609686
vt 0.287384 0.1874021
vt 0.3397914 0.193251
vt 0.2275456 0.1807633
vt 0.166611 0.2265037
vt 0.1090184 0.2734153
vt 0.0396013 0.3738882
vt 0.0004518057 0.3934032
vt 0.2790599 0.234906
vt 0.3282535 0.2409513
vt 0.2231692 0.2299174
vt 0.1047534 0.3262655
vt 0.08094157 0.3855844
vt 0.03105978 0.4252727
vt 0.005214153 0.4058936
vt 0.04073586 0.4260295
vt 0.06035509 0.4398063
vt 0.07350536 0.4394862
vt 0.1614978 0.2771392
vt 0.2156581 0.2795824
vt 0.1564868 0.3278185
vt 0.1405845 0.3781267
vt 0.12672 0.4276163
vt 0.159446 0.3766013
vt 0.1756507 0.427404
vt 0.2809406 0.2814182
vt 0.3045945 0.282106
vt 0.2161338 0.3281161
vt 0.2166238 0.37023
vt 0.197905 0.4080558
vt 0.2655011 0.3262987
vt 0.2827157 0.3258436
vt 0.2483107 0.3593005
vt 0.2298438 0.3951686
vt 0.2687749 0.3504533
vt 0.253408 0.3778074
vt 0.6650557 0.4106308
vt 0.6801467 0.4146923
vt 0.7058398 0.3150143
vt 0.6873199 0.3125792
vt 0.6475403 0.4113443
vt 0.7232593 0.2130798
vt 0.649052 0.3126806
vt 0.6335847 0.4129814
vt 0.6034402 0.4148997
vt 0.7041126 0.2102505
vt 0.7391309 0.1159512
vt 0.6126791 0.3126504
vt 0.5661829 0.4154475
vt 0.6628633 0.210082
vt 0.7221355 0.1099314
vt 0.7399207 0.06139345
vt 0.5729344 0.3138189
vt 0.5304452 0.4153866
vt 0.7057616 0.1071012
vt 0.7240215 0.05622735
vt 0.623739 0.2100561
vt 0.5349562 0.3153716
vt 0.4956605 0.4151904
vt 0.7292047 0.006536715
vt 0.7488586 0.009902958
vt 0.7166716 0.005533501
vt 0.7121397 0.05747769
vt 0.6842316 0.005393083
vt 0.6774062 0.1116382
vt 0.6780497 0.05957543
vt 0.6410828 0.003638256
vt 0.6358969 0.1144428
vt 0.6358231 0.0631129
vt 0.5901426 0.001896024
vt 0.5805575 0.2110824
vt 0.5868796 0.1183789
vt 0.5859821 0.06039486
vt 0.5436268 0.0003326531
vt 0.5388047 0.2126628
vt 0.5410846 0.1074931
vt 0.5409483 0.05677917
vt 0.488683 -5.256187E-09
vt 0.4965524 0.3150465
vt 0.4616031 0.4152471
vt 0.4957645 0.2120715
vt 0.457628 0.313374
vt 0.4362877 0.4153394
vt 0.4926657 0.1068847
vt 0.4906743 0.05344233
vt 0.4301 0.001487644
vt 0.4330147 0.3126083
vt 0.4099891 0.4154475
vt 0.4076474 0.3125784
vt 0.45144 0.2100194
vt 0.4227482 0.2096053
vt 0.3947217 0.2096064
vt 0.4413 0.1068349
vt 0.4357 0.05416124
vt 0.3887391 0.003365938
vt 0.4040613 0.1071369
vt 0.3680631 0.1073488
vt 0.3964002 0.05525143
vt 0.3505502 0.004764551
vt 0.3593066 0.05605663
vt 0.7540943 0.03239009
vt 0.7995436 0.01435665
vt 0.7709413 0.01250299
vt 0.7920234 0.03447251
vt 0.7498441 0.05494671
vt 0.8234738 0.01393587
vt 0.791024 0.05755331
vt 0.7488586 0.0779511
vt 0.8267069 0.03113935
vt 0.8371012 0.01783778
vt 0.7907532 0.08006478
vt 0.7533555 0.1159457
vt 0.8274431 0.056629
vt 0.8512813 0.03215288
vt 0.8620595 0.0113465
vt 0.7927775 0.1153194
vt 0.7546083 0.1529388
vt 0.8279272 0.08100855
vt 0.8634495 0.05590588
vt 0.8637945 0.02996189
vt 0.900684 0.002787288
vt 0.8998756 0.02594679
vt 0.9275839 -5.304237E-09
vt 0.7937255 0.1503943
vt 0.7689595 0.1835064
vt 0.8284405 0.1146168
vt 0.8636646 0.08056726
vt 0.8998814 0.05454004
vt 0.9357409 0.02353011
vt 0.9611401 0.004136383
vt 0.980068 0.02625995
vt 0.9373943 0.05343284
vt 0.9797896 0.05261061
vt 0.7997396 0.1815271
vt 0.7725182 0.2127952
vt 0.8288708 0.1482154
vt 0.8644279 0.1125608
vt 0.9001614 0.07825223
vt 0.9380407 0.07700937
vt 0.9794302 0.07796879
vt 0.793476 0.2122624
vt 0.7777052 0.23038
vt 0.8305393 0.1810287
vt 0.9003805 0.1092666
vt 0.937537 0.1086246
vt 0.9784187 0.1120408
vt 0.8645731 0.1452896
vt 0.7934555 0.2369557
vt 0.7875156 0.2521579
vt 0.8022352 0.268997
vt 0.8994929 0.1416177
vt 0.9353751 0.1415225
vt 0.9753961 0.1466787
vt 0.8660122 0.1793364
vt 0.8204162 0.2141434
vt 0.8152074 0.2457449
vt 0.8230584 0.2898452
vt 0.9335968 0.1766878
vt 0.9733914 0.1823551
vt 0.898648 0.1765889
vt 0.8637648 0.2149485
vt 0.8727352 0.2536362
vt 0.8863468 0.298759
vt 0.899722 0.2142847
vt 0.9350929 0.2144342
vt 0.9760626 0.2199351
vt 0.9171711 0.2626848
vt 0.92019 0.3032936
vt 0.945023 0.2565176
vt 0.980068 0.2504462
vt 0.9441742 0.294131
vt 0.9774961 0.2641649
vt 0.9670188 0.2808089
vt 0.9884645 0.6145107
vt 0.9808384 0.6281134
vt 1 0.6434724
vt 0.9740762 0.6062636
vt 0.9691735 0.5683103
vt 0.9841257 0.5680623
vt 0.9779607 0.5198773
vt 0.960282 0.5712507
vt 0.9636683 0.5236386
vt 0.9770005 0.4926649
vt 0.9542785 0.5259176
vt 0.9543648 0.5712584
vt 0.9488081 0.5273648
vt 0.9627194 0.4976919
vt 0.9747974 0.4617046
vt 0.953413 0.5006064
vt 0.9478751 0.5025746
vt 0.964208 0.4636293
vt 0.9852903 0.4357718
vt 0.958677 0.464232
vt 0.9531205 0.4652109
vt 0.9781093 0.4362909
vt 1 0.4154476
vt 0.9699295 0.4362896
usemtl MV_RockDesert_Shelf
f 1/1/1 3/3/3 2/2/2
f 1/1/1 4/4/4 3/3/3
f 5/5/5 4/4/4 1/1/1
f 4/4/4 6/6/6 3/3/3
f 5/5/5 7/7/7 4/4/4
f 8/8/8 7/7/7 5/5/5
f 4/4/4 9/9/9 6/6/6
f 7/7/7 9/9/9 4/4/4
f 8/8/8 10/10/10 7/7/7
f 11/11/11 10/10/10 8/8/8
f 6/6/6 9/9/9 12/12/12
f 13/13/13 6/6/6 12/12/12
f 13/13/13 12/12/12 14/14/14
f 15/15/15 13/13/13 14/14/14
f 15/15/15 14/14/14 16/16/16
f 9/9/9 17/17/17 12/12/12
f 11/11/11 18/18/18 10/10/10
f 19/19/19 18/18/18 11/11/11
f 19/19/19 20/20/20 18/18/18
f 20/20/20 21/21/21 18/18/18
f 20/20/20 22/22/22 21/21/21
f 18/18/18 23/23/23 10/10/10
f 18/18/18 21/21/21 23/23/23
f 24/24/24 21/21/21 22/22/22
f 22/22/22 25/25/25 24/24/24
f 10/10/10 23/23/23 26/26/26
f 10/10/10 26/26/26 7/7/7
f 9/9/9 7/7/7 27/27/27
f 7/7/7 26/26/26 27/27/27
f 9/9/9 27/27/27 28/28/28
f 9/9/9 28/28/28 17/17/17
f 26/26/26 29/29/29 27/27/27
f 27/27/27 29/29/29 28/28/28
f 23/23/23 30/30/30 26/26/26
f 26/26/26 30/30/30 29/29/29
f 21/21/21 31/31/31 23/23/23
f 23/23/23 31/31/31 30/30/30
f 25/25/25 32/32/32 24/24/24
f 25/25/25 33/33/33 32/32/32
f 32/32/32 33/33/33 34/34/34
f 32/32/32 34/34/34 35/35/35
f 36/36/36 32/32/32 35/35/35
f 24/24/24 32/32/32 36/36/36
f 36/36/36 35/35/35 37/37/37
f 24/24/24 38/38/38 21/21/21
f 24/24/24 36/36/36 38/38/38
f 39/39/39 36/36/36 37/37/37
f 38/38/38 36/36/36 39/39/39
f 39/39/39 37/37/37 40/40/40
f 41/41/41 21/21/21 38/38/38
f 38/38/38 39/39/39 41/41/41
f 21/21/21 41/41/41 31/31/31
f 42/42/42 39/39/39 40/40/40
f 41/41/41 39/39/39 42/42/42
f 41/41/41 42/42/42 31/31/31
f 42/42/42 40/40/40 43/43/43
f 42/42/42 43/43/43 44/44/44
f 45/45/45 31/31/31 42/42/42
f 42/42/42 44/44/44 45/45/45
f 31/31/31 45/45/45 30/30/30
f 46/46/46 45/45/45 44/44/44
f 30/30/30 45/45/45 46/46/46
f 46/46/46 44/44/44 47/47/47
f 30/30/30 46/46/46 29/29/29
f 48/48/48 46/46/46 47/47/47
f 48/48/48 47/47/47 49/49/49
f 50/50/50 48/48/48 49/49/49
f 50/50/50 49/49/49 51/51/51
f 29/29/29 46/46/46 52/52/52
f 46/46/46 53/53/53 52/52/52
f 29/29/29 52/52/52 54/54/54
f 28/28/28 29/29/29 54/54/54
f 28/28/28 54/54/54 17/17/17
f 55/55/55 52/52/52 53/53/53
f 54/54/54 52/52/52 55/55/55
f 55/55/55 53/53/53 56/56/56
f 54/54/54 55/55/55 57/57/57
f 17/17/17 54/54/54 57/57/57
f 57/57/57 55/55/55 58/58/58
f 57/57/57 58/58/58 59/59/59
f 17/17/17 57/57/57 59/59/59
f 17/17/17 59/59/59 60/60/60
f 61/61/61 63/63/63 62/62/62
f 61/61/61 64/64/64 63/63/63
f 65/65/65 64/64/64 61/61/61
f 64/64/64 66/66/66 63/63/63
f 65/65/65 67/67/67 64/64/64
f 68/68/68 67/67/67 65/65/65
f 64/64/64 69/69/69 66/66/66
f 67/67/67 69/69/69 64/64/64
f 68/68/68 70/70/70 67/67/67
f 71/71/71 70/70/70 68/68/68
f 72/72/72 66/66/66 69/69/69
f 72/72/72 73/73/73 66/66/66
f 67/67/67 74/74/74 69/69/69
f 70/70/70 74/74/74 67/67/67
f 69/69/69 75/75/75 72/72/72
f 74/74/74 75/75/75 69/69/69
f 75/75/75 76/76/76 72/72/72
f 71/71/71 77/77/77 70/70/70
f 78/78/78 77/77/77 71/71/71
f 70/70/70 79/79/79 74/74/74
f 77/77/77 79/79/79 70/70/70
f 74/74/74 80/80/80 75/75/75
f 79/79/79 80/80/80 74/74/74
f 75/75/75 81/81/81 76/76/76
f 80/80/80 81/81/81 75/75/75
f 78/78/78 82/82/82 77/77/77
f 83/83/83 82/82/82 78/78/78
f 77/77/77 84/84/84 79/79/79
f 82/82/82 84/84/84 77/77/77
f 79/79/79 85/85/85 80/80/80
f 84/84/84 85/85/85 79/79/79
f 86/86/86 76/76/76 81/81/81
f 87/87/87 76/76/76 86/86/86
f 87/87/87 86/86/86 88/88/88
f 86/86/86 81/81/81 89/89/89
f 81/81/81 90/90/90 89/89/89
f 80/80/80 91/91/91 81/81/81
f 81/81/81 91/91/91 90/90/90
f 85/85/85 91/91/91 80/80/80
f 91/91/91 92/92/92 90/90/90
f 91/91/91 93/93/93 92/92/92
f 85/85/85 93/93/93 91/91/91
f 93/93/93 94/94/94 92/92/92
f 85/85/85 95/95/95 93/93/93
f 93/93/93 95/95/95 94/94/94
f 84/84/84 96/96/96 85/85/85
f 96/96/96 95/95/95 85/85/85
f 95/95/95 97/97/97 94/94/94
f 97/97/97 98/98/98 94/94/94
f 97/97/97 99/99/99 98/98/98
f 99/99/99 100/100/100 98/98/98
f 99/99/99 101/101/101 100/100/100
f 101/101/101 102/102/102 100/100/100
f 101/101/101 103/103/103 102/102/102
f 103/103/103 104/104/104 102/102/102
f 103/103/103 105/105/105 104/104/104
f 105/105/105 106/106/106 104/104/104
f 105/105/105 107/107/107 106/106/106
f 108/108/108 96/96/96 84/84/84
f 109/109/109 95/95/95 96/96/96
f 108/108/108 109/109/109 96/96/96
f 95/95/95 110/110/110 97/97/97
f 109/109/109 110/110/110 95/95/95
f 110/110/110 111/111/111 97/97/97
f 97/97/97 111/111/111 112/112/112
f 111/111/111 113/113/113 112/112/112
f 111/111/111 114/114/114 113/113/113
f 111/111/111 115/115/115 114/114/114
f 84/84/84 116/116/116 108/108/108
f 82/82/82 116/116/116 84/84/84
f 109/109/109 117/117/117 110/110/110
f 118/118/118 111/111/111 110/110/110
f 118/118/118 110/110/110 117/117/117
f 119/119/119 115/115/115 111/111/111
f 119/119/119 111/111/111 118/118/118
f 109/109/109 108/108/108 120/120/120
f 109/109/109 120/120/120 117/117/117
f 108/108/108 116/116/116 121/121/121
f 108/108/108 121/121/121 120/120/120
f 122/122/122 117/117/117 120/120/120
f 122/122/122 118/118/118 117/117/117
f 120/120/120 121/121/121 122/122/122
f 121/121/121 116/116/116 123/123/123
f 116/116/116 82/82/82 123/123/123
f 123/123/123 122/122/122 121/121/121
f 124/124/124 118/118/118 122/122/122
f 124/124/124 119/119/119 118/118/118
f 125/125/125 115/115/115 119/119/119
f 125/125/125 126/126/126 115/115/115
f 122/122/122 127/127/127 124/124/124
f 123/123/123 127/127/127 122/122/122
f 128/128/128 119/119/119 124/124/124
f 128/128/128 125/125/125 119/119/119
f 127/127/127 128/128/128 124/124/124
f 129/129/129 126/126/126 125/125/125
f 129/129/129 130/130/130 126/126/126
f 131/131/131 129/129/129 125/125/125
f 131/131/131 125/125/125 128/128/128
f 132/132/132 123/123/123 82/82/82
f 83/83/83 132/132/132 82/82/82
f 133/133/133 132/132/132 83/83/83
f 127/127/127 123/123/123 134/134/134
f 132/132/132 134/134/134 123/123/123
f 127/127/127 135/135/135 128/128/128
f 135/135/135 131/131/131 128/128/128
f 134/134/134 135/135/135 127/127/127
f 135/135/135 136/136/136 131/131/131
f 136/136/136 137/137/137 131/131/131
f 136/136/136 138/138/138 137/137/137
f 134/134/134 139/139/139 135/135/135
f 133/133/133 140/140/140 132/132/132
f 140/140/140 134/134/134 132/132/132
f 140/140/140 139/139/139 134/134/134
f 141/141/141 140/140/140 133/133/133
f 142/142/142 139/139/139 140/140/140
f 141/141/141 142/142/142 140/140/140
f 143/143/143 142/142/142 141/141/141
f 142/142/142 144/144/144 139/139/139
f 143/143/143 145/145/145 142/142/142
f 145/145/145 144/144/144 142/142/142
f 145/145/145 146/146/146 144/144/144
f 147/147/147 149/149/149 148/148/148
f 147/147/147 150/150/150 149/149/149
f 151/151/151 150/150/150 147/147/147
f 150/150/150 152/152/152 149/149/149
f 151/151/151 153/153/153 150/150/150
f 154/154/154 153/153/153 151/151/151
f 150/150/150 155/155/155 152/152/152
f 153/153/153 155/155/155 150/150/150
f 155/155/155 156/156/156 152/152/152
f 154/154/154 157/157/157 153/153/153
f 158/158/158 157/157/157 154/154/154
f 153/153/153 159/159/159 155/155/155
f 157/157/157 159/159/159 153/153/153
f 155/155/155 160/160/160 156/156/156
f 159/159/159 160/160/160 155/155/155
f 160/160/160 161/161/161 156/156/156
f 158/158/158 162/162/162 157/157/157
f 163/163/163 162/162/162 158/158/158
f 157/157/157 164/164/164 159/159/159
f 162/162/162 164/164/164 157/157/157
f 159/159/159 165/165/165 160/160/160
f 164/164/164 165/165/165 159/159/159
f 160/160/160 166/166/166 161/161/161
f 165/165/165 166/166/166 160/160/160
f 163/163/163 167/167/167 162/162/162
f 168/168/168 167/167/167 163/163/163
f 162/162/162 169/169/169 164/164/164
f 167/167/167 169/169/169 162/162/162
f 161/161/161 166/166/166 170/170/170
f 161/161/161 170/170/170 171/171/171
f 166/166/166 172/172/172 170/170/170
f 166/166/166 173/173/173 172/172/172
f 165/165/165 173/173/173 166/166/166
f 173/173/173 174/174/174 172/172/172
f 164/164/164 175/175/175 165/165/165
f 175/175/175 173/173/173 165/165/165
f 169/169/169 175/175/175 164/164/164
f 173/173/173 176/176/176 174/174/174
f 175/175/175 176/176/176 173/173/173
f 176/176/176 177/177/177 174/174/174
f 169/169/169 178/178/178 175/175/175
f 178/178/178 176/176/176 175/175/175
f 176/176/176 179/179/179 177/177/177
f 178/178/178 179/179/179 176/176/176
f 179/179/179 180/180/180 177/177/177
f 181/181/181 178/178/178 169/169/169
f 167/167/167 181/181/181 169/169/169
f 182/182/182 179/179/179 178/178/178
f 181/181/181 182/182/182 178/178/178
f 179/179/179 183/183/183 180/180/180
f 182/182/182 183/183/183 179/179/179
f 183/183/183 184/184/184 180/180/180
f 185/185/185 181/181/181 167/167/167
f 168/168/168 185/185/185 167/167/167
f 186/186/186 185/185/185 168/168/168
f 187/187/187 182/182/182 181/181/181
f 185/185/185 187/187/187 181/181/181
f 186/186/186 188/188/188 185/185/185
f 188/188/188 187/187/187 185/185/185
f 189/189/189 188/188/188 186/186/186
f 189/189/189 190/190/190 188/188/188
f 190/190/190 191/191/191 188/188/188
f 188/188/188 191/191/191 187/187/187
f 190/190/190 192/192/192 191/191/191
f 187/187/187 193/193/193 182/182/182
f 193/193/193 183/183/183 182/182/182
f 191/191/191 193/193/193 187/187/187
f 183/183/183 194/194/194 184/184/184
f 193/193/193 194/194/194 183/183/183
f 194/194/194 195/195/195 184/184/184
f 192/192/192 196/196/196 191/191/191
f 191/191/191 196/196/196 193/193/193
f 196/196/196 194/194/194 193/193/193
f 192/192/192 197/197/197 196/196/196
f 194/194/194 198/198/198 195/195/195
f 196/196/196 198/198/198 194/194/194
f 197/197/197 198/198/198 196/196/196
f 198/198/198 199/199/199 195/195/195
f 198/198/198 200/200/200 199/199/199
f 197/197/197 200/200/200 198/198/198
f 201/201/201 200/200/200 197/197/197
f 201/201/201 202/202/202 200/200/200
f 203/203/203 205/205/205 204/204/204
f 203/203/203 206/206/206 205/205/205
f 207/207/207 206/206/206 203/203/203
f 206/206/206 208/208/208 205/205/205
f 207/207/207 209/209/209 206/206/206
f 210/210/210 209/209/209 207/207/207
f 206/206/206 211/211/211 208/208/208
f 209/209/209 211/211/211 206/206/206
f 211/211/211 212/212/212 208/208/208
f 210/210/210 213/213/213 209/209/209
f 214/214/214 213/213/213 210/210/210
f 211/211/211 215/215/215 212/212/212
f 215/215/215 216/216/216 212/212/212
f 209/209/209 217/217/217 211/211/211
f 213/213/213 217/217/217 209/209/209
f 217/217/217 215/215/215 211/211/211
f 214/214/214 218/218/218 213/213/213
f 219/219/219 218/218/218 214/214/214
f 215/215/215 220/220/220 216/216/216
f 220/220/220 221/221/221 216/216/216
f 217/217/217 222/222/222 215/215/215
f 222/222/222 220/220/220 215/215/215
f 213/213/213 223/223/223 217/217/217
f 218/218/218 223/223/223 213/213/213
f 223/223/223 222/222/222 217/217/217
f 219/219/219 224/224/224 218/218/218
f 224/224/224 223/223/223 218/218/218
f 225/225/225 224/224/224 219/219/219
f 220/220/220 226/226/226 221/221/221
f 226/226/226 227/227/227 221/221/221
f 222/222/222 228/228/228 220/220/220
f 228/228/228 226/226/226 220/220/220
f 223/223/223 229/229/229 222/222/222
f 229/229/229 228/228/228 222/222/222
f 225/225/225 230/230/230 224/224/224
f 231/231/231 230/230/230 225/225/225
f 231/231/231 232/232/232 230/230/230
f 230/230/230 232/232/232 233/233/233
f 224/224/224 234/234/234 223/223/223
f 230/230/230 234/234/234 224/224/224
f 234/234/234 229/229/229 223/223/223
f 233/233/233 235/235/235 230/230/230
f 230/230/230 235/235/235 234/234/234
f 233/233/233 236/236/236 235/235/235
f 226/226/226 237/237/237 227/227/227
f 237/237/237 238/238/238 227/227/227
f 228/228/228 239/239/239 226/226/226
f 239/239/239 237/237/237 226/226/226
f 234/234/234 240/240/240 229/229/229
f 235/235/235 240/240/240 234/234/234
f 236/236/236 241/241/241 235/235/235
f 235/235/235 241/241/241 240/240/240
f 236/236/236 242/242/242 241/241/241
f 229/229/229 243/243/243 228/228/228
f 240/240/240 243/243/243 229/229/229
f 243/243/243 239/239/239 228/228/228
f 237/237/237 244/244/244 238/238/238
f 244/244/244 245/245/245 238/238/238
f 242/242/242 246/246/246 241/241/241
f 242/242/242 247/247/247 246/246/246
f 241/241/241 248/248/248 240/240/240
f 240/240/240 248/248/248 243/243/243
f 241/241/241 246/246/246 248/248/248
f 243/243/243 249/249/249 239/239/239
f 248/248/248 249/249/249 243/243/243
f 239/239/239 250/250/250 237/237/237
f 250/250/250 244/244/244 237/237/237
f 249/249/249 250/250/250 239/239/239
f 244/244/244 251/251/251 245/245/245
f 251/251/251 252/252/252 245/245/245
f 247/247/247 253/253/253 246/246/246
f 247/247/247 254/254/254 253/253/253
f 246/246/246 255/255/255 248/248/248
f 248/248/248 255/255/255 249/249/249
f 246/246/246 253/253/253 255/255/255
f 250/250/250 256/256/256 244/244/244
f 256/256/256 251/251/251 244/244/244
f 256/256/256 257/257/257 251/251/251
f 252/252/252 251/251/251 258/258/258
f 257/257/257 258/258/258 251/251/251
f 252/252/252 258/258/258 259/259/259
f 257/257/257 260/260/260 258/258/258
f 260/260/260 257/257/257 261/261/261
f 257/257/257 262/262/262 261/261/261
f 249/249/249 263/263/263 250/250/250
f 255/255/255 263/263/263 249/249/249
f 263/263/263 256/256/256 250/250/250
f 253/253/253 264/264/264 255/255/255
f 255/255/255 264/264/264 263/263/263
f 263/263/263 265/265/265 256/256/256
f 265/265/265 257/257/257 256/256/256
f 264/264/264 265/265/265 263/263/263
f 266/266/266 262/262/262 257/257/257
f 265/265/265 266/266/266 257/257/257
f 266/266/266 267/267/267 262/262/262
f 268/268/268 267/267/267 266/266/266
f 265/265/265 268/268/268 266/266/266
f 268/268/268 269/269/269 267/267/267
f 253/253/253 270/270/270 264/264/264
f 254/254/254 270/270/270 253/253/253
f 254/254/254 271/271/271 270/270/270
f 264/264/264 272/272/272 265/265/265
f 272/272/272 268/268/268 265/265/265
f 270/270/270 272/272/272 264/264/264
f 273/273/273 269/269/269 268/268/268
f 272/272/272 273/273/273 268/268/268
f 273/273/273 274/274/274 269/269/269
f 271/271/271 275/275/275 270/270/270
f 270/270/270 275/275/275 272/272/272
f 275/275/275 273/273/273 272/272/272
f 271/271/271 276/276/276 275/275/275
f 277/277/277 274/274/274 273/273/273
f 275/275/275 277/277/277 273/273/273
f 276/276/276 277/277/277 275/275/275
f 277/277/277 278/278/278 274/274/274
f 276/276/276 279/279/279 277/277/277
f 279/279/279 278/278/278 277/277/277
f 279/279/279 280/280/280 278/278/278
f 281/281/281 283/283/283 282/282/282
f 281/281/281 284/284/284 283/283/283
f 285/285/285 284/284/284 281/281/281
f 284/284/284 286/286/286 283/283/283
f 285/285/285 287/287/287 284/284/284
f 288/288/288 287/287/287 285/285/285
f 289/289/289 287/287/287 288/288/288
f 284/284/284 290/290/290 286/286/286
f 287/287/287 290/290/290 284/284/284
f 290/290/290 291/291/291 286/286/286
f 289/289/289 292/292/292 287/287/287
f 293/293/293 292/292/292 289/289/289
f 287/287/287 294/294/294 290/290/290
f 292/292/292 294/294/294 287/287/287
f 290/290/290 295/295/295 291/291/291
f 295/295/295 296/296/296 291/291/291
f 293/293/293 297/297/297 292/292/292
f 298/298/298 297/297/297 293/293/293
f 290/290/290 299/299/299 295/295/295
f 294/294/294 299/299/299 290/290/290
f 295/295/295 300/300/300 296/296/296
f 299/299/299 300/300/300 295/295/295
f 292/292/292 301/301/301 294/294/294
f 297/297/297 301/301/301 292/292/292
f 298/298/298 302/302/302 297/297/297
f 303/303/303 302/302/302 298/298/298
f 296/296/296 300/300/300 304/304/304
f 296/296/296 304/304/304 305/305/305
f 300/300/300 306/306/306 304/304/304
f 300/300/300 307/307/307 306/306/306
f 299/299/299 307/307/307 300/300/300
f 307/307/307 308/308/308 306/306/306
f 294/294/294 309/309/309 299/299/299
f 309/309/309 307/307/307 299/299/299
f 301/301/301 309/309/309 294/294/294
f 307/307/307 310/310/310 308/308/308
f 309/309/309 310/310/310 307/307/307
f 310/310/310 311/311/311 308/308/308
f 301/301/301 312/312/312 309/309/309
f 312/312/312 310/310/310 309/309/309
f 310/310/310 313/313/313 311/311/311
f 312/312/312 313/313/313 310/310/310
f 313/313/313 314/314/314 311/311/311
f 315/315/315 312/312/312 301/301/301
f 297/297/297 315/315/315 301/301/301
f 302/302/302 315/315/315 297/297/297
f 316/316/316 313/313/313 312/312/312
f 315/315/315 316/316/316 312/312/312
f 313/313/313 317/317/317 314/314/314
f 316/316/316 317/317/317 313/313/313
f 317/317/317 318/318/318 314/314/314
f 302/302/302 319/319/319 315/315/315
f 319/319/319 316/316/316 315/315/315
f 320/320/320 317/317/317 316/316/316
f 319/319/319 320/320/320 316/316/316
f 317/317/317 321/321/321 318/318/318
f 320/320/320 321/321/321 317/317/317
f 321/321/321 322/322/322 318/318/318
f 323/323/323 319/319/319 302/302/302
f 303/303/303 323/323/323 302/302/302
f 324/324/324 323/323/323 303/303/303
f 325/325/325 320/320/320 319/319/319
f 323/323/323 325/325/325 319/319/319
f 324/324/324 326/326/326 323/323/323
f 326/326/326 325/325/325 323/323/323
f 327/327/327 326/326/326 324/324/324
f 328/328/328 321/321/321 320/320/320
f 325/325/325 328/328/328 320/320/320
f 321/321/321 329/329/329 322/322/322
f 328/328/328 329/329/329 321/321/321
f 329/329/329 330/330/330 322/322/322
f 327/327/327 331/331/331 326/326/326
f 332/332/332 331/331/331 327/327/327
f 332/332/332 333/333/333 331/331/331
f 326/326/326 334/334/334 325/325/325
f 334/334/334 328/328/328 325/325/325
f 331/331/331 334/334/334 326/326/326
f 333/333/333 335/335/335 331/331/331
f 331/331/331 335/335/335 334/334/334
f 333/333/333 336/336/336 335/335/335
f 334/334/334 337/337/337 328/328/328
f 337/337/337 329/329/329 328/328/328
f 335/335/335 337/337/337 334/334/334
f 329/329/329 338/338/338 330/330/330
f 337/337/337 338/338/338 329/329/329
f 338/338/338 339/339/339 330/330/330
f 336/336/336 340/340/340 335/335/335
f 335/335/335 340/340/340 337/337/337
f 340/340/340 338/338/338 337/337/337
f 336/336/336 341/341/341 340/340/340
f 338/338/338 342/342/342 339/339/339
f 340/340/340 342/342/342 338/338/338
f 341/341/341 342/342/342 340/340/340
f 342/342/342 343/343/343 339/339/339
f 341/341/341 344/344/344 342/342/342
f 342/342/342 344/344/344 343/343/343
f 345/345/345 347/347/347 346/346/346
f 345/345/345 346/346/346 348/348/348
f 349/349/349 345/345/345 348/348/348
f 348/348/348 346/346/346 350/350/350
f 349/349/349 348/348/348 351/351/351
f 352/352/352 349/349/349 351/351/351
f 348/348/348 350/350/350 353/353/353
f 351/351/351 348/348/348 353/353/353
f 353/353/353 350/350/350 354/354/354
f 352/352/352 351/351/351 355/355/355
f 356/356/356 352/352/352 355/355/355
f 351/351/351 353/353/353 357/357/357
f 355/355/355 351/351/351 357/357/357
f 353/353/353 354/354/354 358/358/358
f 357/357/357 353/353/353 358/358/358
f 358/358/358 354/354/354 359/359/359
f 356/356/356 355/355/355 360/360/360
f 361/361/361 356/356/356 360/360/360
f 355/355/355 357/357/357 362/362/362
f 360/360/360 355/355/355 362/362/362
f 357/357/357 358/358/358 363/363/363
f 362/362/362 357/357/357 363/363/363
f 358/358/358 359/359/359 364/364/364
f 363/363/363 358/358/358 364/364/364
f 364/364/364 359/359/359 365/365/365
f 364/364/364 365/365/365 366/366/366
f 363/363/363 364/364/364 366/366/366
f 366/366/366 365/365/365 367/367/367
f 361/361/361 360/360/360 368/368/368
f 369/369/369 361/361/361 368/368/368
f 360/360/360 362/362/362 370/370/370
f 368/368/368 360/360/360 370/370/370
f 362/362/362 363/363/363 371/371/371
f 370/370/370 362/362/362 371/371/371
f 363/363/363 366/366/366 372/372/372
f 371/371/371 363/363/363 372/372/372
f 366/366/366 367/367/367 373/373/373
f 372/372/372 366/366/366 373/373/373
f 373/373/373 367/367/367 374/374/374
f 373/373/373 374/374/374 375/375/375
f 376/376/376 373/373/373 375/375/375
f 372/372/372 373/373/373 376/376/376
f 376/376/376 375/375/375 377/377/377
f 369/369/369 368/368/368 378/378/378
f 379/379/379 369/369/369 378/378/378
f 368/368/368 370/370/370 380/380/380
f 378/378/378 368/368/368 380/380/380
f 370/370/370 371/371/371 381/381/381
f 380/380/380 370/370/370 381/381/381
f 371/371/371 372/372/372 382/382/382
f 382/382/382 372/372/372 376/376/376
f 381/381/381 371/371/371 382/382/382
f 383/383/383 376/376/376 377/377/377
f 382/382/382 376/376/376 383/383/383
f 383/383/383 377/377/377 384/384/384
f 379/379/379 378/378/378 385/385/385
f 386/386/386 379/379/379 385/385/385
f 378/378/378 380/380/380 387/387/387
f 385/385/385 378/378/378 387/387/387
f 381/381/381 382/382/382 388/388/388
f 388/388/388 382/382/382 383/383/383
f 389/389/389 383/383/383 384/384/384
f 388/388/388 383/383/383 389/389/389
f 389/389/389 384/384/384 390/390/390
f 380/380/380 381/381/381 391/391/391
f 391/391/391 381/381/381 388/388/388
f 387/387/387 380/380/380 391/391/391
f 386/386/386 385/385/385 392/392/392
f 393/393/393 386/386/386 392/392/392
f 393/393/393 392/392/392 394/394/394
f 395/395/395 388/388/388 389/389/389
f 391/391/391 388/388/388 395/395/395
f 396/396/396 389/389/389 390/390/390
f 395/395/395 389/389/389 396/396/396
f 396/396/396 390/390/390 397/397/397
f 387/387/387 391/391/391 398/398/398
f 398/398/398 391/391/391 395/395/395
f 385/385/385 387/387/387 399/399/399
f 392/392/392 385/385/385 399/399/399
f 399/399/399 387/387/387 398/398/398
f 394/394/394 392/392/392 400/400/400
f 392/392/392 399/399/399 400/400/400
f 394/394/394 400/400/400 401/401/401
f 402/402/402 396/396/396 397/397/397
f 402/402/402 397/397/397 403/403/403
f 404/404/404 395/395/395 396/396/396
f 398/398/398 395/395/395 404/404/404
f 404/404/404 396/396/396 402/402/402
f 399/399/399 398/398/398 405/405/405
f 400/400/400 399/399/399 405/405/405
f 405/405/405 398/398/398 404/404/404
f 401/401/401 400/400/400 406/406/406
f 400/400/400 405/405/405 406/406/406
f 401/401/401 406/406/406 407/407/407
f 405/405/405 404/404/404 408/408/408
f 408/408/408 404/404/404 402/402/402
f 406/406/406 405/405/405 408/408/408
f 409/409/409 402/402/402 403/403/403
f 408/408/408 402/402/402 409/409/409
f 409/409/409 403/403/403 410/410/410
f 407/407/407 406/406/406 411/411/411
f 406/406/406 408/408/408 411/411/411
f 411/411/411 408/408/408 409/409/409
f 407/407/407 411/411/411 412/412/412
f 413/413/413 409/409/409 410/410/410
f 411/411/411 409/409/409 413/413/413
f 412/412/412 411/411/411 413/413/413
f 413/413/413 410/410/410 414/414/414
f 412/412/412 413/413/413 415/415/415
f 416/416/416 413/413/413 414/414/414
f 415/415/415 413/413/413 416/416/416
f 415/415/415 416/416/416 417/417/417
f 418/418/418 420/420/420 419/419/419
f 421/421/421 418/418/418 419/419/419
f 422/422/422 418/418/418 421/421/421
f 418/418/418 422/422/422 423/423/423
f 424/424/424 423/423/423 422/422/422
f 422/422/422 421/421/421 425/425/425
f 424/424/424 422/422/422 426/426/426
f 426/426/426 422/422/422 425/425/425
f 427/427/427 424/424/424 426/426/426
f 426/426/426 425/425/425 428/428/428
f 429/429/429 428/428/428 425/425/425
f 429/429/429 430/430/430 428/428/428
f 427/427/427 426/426/426 431/431/431
f 431/431/431 426/426/426 428/428/428
f 432/432/432 427/427/427 431/431/431
f 430/430/430 433/433/433 428/428/428
f 431/431/431 428/428/428 433/433/433
f 430/430/430 434/434/434 433/433/433
f 432/432/432 431/431/431 435/435/435
f 435/435/435 431/431/431 433/433/433
f 436/436/436 432/432/432 435/435/435
f 434/434/434 437/437/437 433/433/433
f 435/435/435 433/433/433 437/437/437
f 434/434/434 438/438/438 437/437/437
f 436/436/436 435/435/435 439/439/439
f 439/439/439 435/435/435 437/437/437
f 440/440/440 436/436/436 439/439/439
f 439/439/439 437/437/437 441/441/441
f 439/439/439 441/441/441 440/440/440
