mtllib P_RockHexic_Rocks08.mtl
v -6.527069 3.888018 -2.771798 0 0 0
v -4.814545 3.768862 -2.891795 0 0 0
v -4.883827 3.888863 -2.771795 0 0 0
v -2.517395 3.979177 1.352323 0 0.8392157 0
v -3.675354 3.979177 3.357964 0 0.5647059 0
v -3.675354 -5.369307 3.357964 0 0 0
v -2.517395 -5.369307 1.352323 0 0.3529412 0
v -0.2014847 3.979177 1.352323 0 0.6901961 0
v -0.2707672 4.099178 1.472323 0 0.9019608 0
v -2.44812 4.099178 1.472323 0 0.9764706 0
v -0.2014847 -5.369307 1.352323 0 0 0
v 0.9564743 3.979177 3.357964 0 0.6627451 0
v 0.9564743 -5.369307 3.357964 0 0 0
v -0.2707672 -5.489306 1.472323 0 0 0
v -2.44812 -5.489306 1.472323 0 0.1960784 0
v 2.21331 3.5935 6.275809 0 0 0
v 3.155075 3.5935 4.644624 0 0 0
v 3.155075 -4.738598 4.644624 0 0 0
v 2.190582 -4.738598 6.315172 0 0 0
v 0.2606125 3.572788 6.315739 0 0.3686275 0
v 0.2606125 -4.738597 6.315739 0 0 0
v -0.7042007 3.572787 4.644624 0 0.9411765 0
v -0.7042007 -4.738597 4.644624 0 0 0
v 1.030403 5.003579 -0.7076947 0 0.8235294 0
v -0.212471 5.003579 1.445021 0 0 0
v -0.212471 -4.451405 1.445021 0 0 0
v 1.030403 -4.451405 -0.7076947 0 0.7333333 0
v 3.516144 5.003579 -0.7076947 0 0.6862745 0
v 3.446861 5.123579 -0.5876947 0 0.7294118 0
v 1.099686 5.123579 -0.5876947 0 0.7843137 0
v 3.516144 -4.451405 -0.7076947 0 0.4039216 0
v 4.759018 5.003579 1.445021 0 0.6039216 0
v 4.759018 -4.451405 1.445021 0 0.7019608 0
v 1.099686 -4.571404 -0.5876947 0 0.8235294 0
v 3.446861 -4.571404 -0.5876947 0 0.6078432 0
v -0.2014847 3.979177 5.363604 0 0.9058824 0
v 0.9564743 3.979177 3.357964 0 0.6627451 0
v 0.9564743 -5.369307 3.357964 0 0 0
v -0.2014847 -5.369307 5.363604 0 0 0
v -2.517395 3.979177 5.363604 0 0.6235294 0
v -0.2707672 4.099178 5.243604 0 0.8117647 0
v -2.44812 4.099178 5.243604 0 0.6588235 0
v -2.517395 -5.369307 5.363604 0 0 0
v -3.675354 3.979177 3.357964 0 0.5647059 0
v -3.675354 -5.369307 3.357964 0 0 0
v 4.985229 2.769776 1.255633 0 0 0
v 3.980095 2.769856 2.996573 0 0.0627451 0
v 3.980118 -5.162355 2.996597 0 0 0
v 4.98526 -5.162355 1.255645 0 0.9803922 0
v 6.995544 2.72742 1.255633 0 0 0
v 6.995537 -5.162355 1.255645 0 0.4901961 0
v 8.000717 2.672428 2.996644 0 0 0
v 8.000679 -5.162355 2.996598 0 0 0
v 5.054543 -5.282355 1.375645 0 0.9843137 0
v 6.926254 -5.282355 1.375645 0 0.6980392 0
v 3.516144 5.003579 3.597738 0 0.6588235 0
v 4.759018 5.003579 1.445021 0 0.6039216 0
v 4.759018 -4.451405 1.445021 0 0.7019608 0
v 3.516144 -4.451405 3.597738 0 0 0
v 1.030403 5.003579 3.597738 0 0.8235294 0
v 1.030403 -4.451405 3.597738 0 0.9098039 0
v 1.099686 5.123579 3.477738 0 0.8470588 0
v 3.446861 5.123579 3.477738 0 0.6588235 0
v -0.212471 5.003579 1.445021 0 0 0
v -0.212471 -4.451405 1.445021 0 0 0
v -1.9953 7.154998 -1.674555 0 0 0
v -3.224625 7.154998 0.4547085 0 0.6588235 0
v -3.224625 -5.03265 0.4547085 0 0.3686275 0
v -1.9953 -5.03265 -1.674555 0 0.07843138 0
v 0.4633636 7.154998 -1.674555 0 0 0
v 0.3940811 7.274998 -1.554555 0 0 0
v -1.926018 7.274998 -1.554555 0 0 0
v 0.4633636 -5.03265 -1.674555 0 0.6588235 0
v 1.692696 7.154998 0.4547085 0 0 0
v 1.692696 -5.03265 0.4547085 0 0.8235294 0
v -1.926018 -5.15265 -1.554555 0 0.04705882 0
v 0.3940811 -5.15265 -1.554555 0 0.654902 0
v 7.021751 2.633304 4.727272 0 0 0
v 8.000717 2.672428 2.996644 0 0 0
v 8.000679 -5.162355 2.996598 0 0 0
v 6.995934 -5.162355 4.737392 0 0 0
v 6.047218 2.696692 4.74699 0 0 0
v 6.951408 2.765386 4.608441 0 0 0
v 6.059303 2.818132 4.625173 0 0 0
v 4.937057 -5.015926 4.855488 0 0 0
v 5.065887 -5.197503 4.822401 0 0 0
v 4.984215 2.727659 4.739356 0 0 0
v 4.87146 -5.197503 4.710152 0 0 0
v 4.917328 -5.005953 4.855206 0 0 0
v 3.980095 2.769856 2.996573 0 0.0627451 0
v 3.980118 -5.162355 2.996597 0 0 0
v 1.041191 6.052098 -3.738258 0 0.6078432 0
v 0.03605652 6.052098 -1.997306 0 0.6588235 0
v 0.03605652 -4.962012 -1.997306 0 0.6470588 0
v 1.041191 -4.962012 -3.738258 0 0 0
v 3.051476 6.052098 -3.738258 0 0.4901961 0
v 2.982193 6.172098 -3.618258 0 0.5294118 0
v 1.110474 6.172098 -3.618258 0 0.4941176 0
v 3.051476 -4.962012 -3.738258 0 0 0
v 4.05661 6.052098 -1.997306 0 0.1882353 0
v 4.05661 -4.962012 -1.997306 0 0 0
v 1.110474 -5.082012 -3.618258 0 0 0
v 2.982193 -5.082012 -3.618258 0 0 0
v 0.4633636 7.154998 2.583973 0 0.4941176 0
v 1.692696 7.154998 0.4547085 0 0 0
v 1.692696 -5.03265 0.4547085 0 0.8235294 0
v 0.4633636 -5.03265 2.583973 0 0 0
v -1.9953 7.154998 2.583973 0 0.427451 0
v -1.9953 -5.03265 2.583973 0 0.6431373 0
v -1.926018 7.274998 2.463973 0 0.4470588 0
v 0.3940811 7.274998 2.463973 0 0.4941176 0
v -3.224625 7.154998 0.4547085 0 0.6588235 0
v -3.224625 -5.03265 0.4547085 0 0.3686275 0
v 3.051476 6.052098 -0.2563537 0 0.8235294 0
v 4.05661 6.052098 -1.997306 0 0.1882353 0
v 4.05661 -4.962012 -1.997306 0 0 0
v 3.051476 -4.962012 -0.2563537 0 0.6588235 0
v 1.041191 6.052098 -0.2563537 0 0.8235294 0
v 1.041191 -4.962012 -0.2563537 0 0.8235294 0
v 1.110474 6.172098 -0.3763537 0 0.8235294 0
v 2.982193 6.172098 -0.3763537 0 0.8235294 0
v 0.03605652 6.052098 -1.997306 0 0.6588235 0
v 0.03605652 -4.962012 -1.997306 0 0.6470588 0
v 4.808067 3.18635 -1.667058 0 0 0
v 3.786507 3.229663 0.06639259 0 0 0
v 3.397087 -3.985502 0.0736128 0 0.6588235 0
v 4.487839 -4.031749 -1.777236 0 0 0
v 6.818909 3.105708 -1.648289 0 0 0
v 6.634857 -4.117853 -1.757195 0 0 0
v 7.808182 3.06838 0.1039318 0 0 0
v 7.691132 -4.157709 0.113694 0 0 0
v 4.55117 -4.154224 -1.656435 0 0 0
v 6.559753 -4.234776 -1.637687 0 0 0
v 7.808182 3.06838 0.1039318 0 0 0
v 7.691132 -4.157709 0.113694 0 0 0
v 6.60038 -4.111463 1.964543 0 0 0
v 6.786613 3.111693 1.837382 0 0 0
v 4.453354 -4.025359 1.944503 0 0.7019608 0
v 4.775772 3.192334 1.818613 0 0 0
v 3.397087 -3.985502 0.0736128 0 0.6588235 0
v 3.786507 3.229663 0.06639259 0 0 0
v 2.681374 4.194939 -2.356479 0 0 0
v 2.545113 -2.896248 -2.356479 0 0 0
v 3.674591 -2.896248 -4.312799 0 0 0
v 3.742722 4.194939 -4.194796 0 0 0
v 5.865425 4.194939 -4.194796 0 0 0
v 5.933556 -2.896248 -4.312799 0 0 0
v 6.926781 4.194939 -2.356479 0 0 0
v 7.063042 -2.896248 -2.356479 0 0 0
v 3.743874 -3.016248 -4.1928 0 0 0
v 5.864273 -3.016248 -4.1928 0 0 0
v 6.926781 4.194939 -2.356479 0 0 0
v 7.063042 -2.896248 -2.356479 0 0 0
v 5.933556 -2.896248 -0.4001576 0 0 0
v 5.865425 4.194939 -0.518161 0 0 0
v 3.742722 4.194939 -0.518161 0 0.6588235 0
v 3.674591 -2.896248 -0.4001576 0 0 0
v 2.681374 4.194939 -2.356479 0 0 0
v 2.545113 -2.896248 -2.356479 0 0 0
v -4.751709 2.669511 1.111461 0 0 0
v -5.639641 2.669511 2.64941 0 0 0
v -5.639641 -5.207807 2.64941 0 0 0
v -4.751709 -5.207807 1.111461 0 0 0
v -2.97583 2.669511 1.111461 0 0.6588235 0
v -3.045273 2.789511 1.23137 0 0.6588235 0
v -4.682373 2.789511 1.231374 0 0 0
v -2.97583 -5.207807 1.111461 0 0.372549 0
v -2.087898 2.669511 2.64941 0 0 0
v -2.087898 -5.207807 2.64941 0 0.6431373 0
v -4.682426 -5.327806 1.231461 0 0 0
v -3.045113 -5.327806 1.231461 0 0.372549 0
v -4.41787 5.393844 -2.113832 0 0 0
v -5.349197 5.393845 -0.6195356 0 0 0
v -5.485947 -4.765606 -0.6240097 0 0 0
v -4.482124 -4.765606 -2.234637 0 0.2745098 0
v -2.585365 -4.765606 -2.170613 0 0.1058824 0
v -2.658661 -4.885606 -2.053018 0 0.345098 0
v -4.416931 -4.885606 -2.112369 0 0.3960784 0
v -2.657791 5.475775 -2.054409 0 0.3058824 0
v -4.352097 5.520392 -1.99017 0 0 0
v -2.731911 5.595814 -1.93548 0 0.4627451 0
v -1.692436 -4.765606 -0.4959604 0 0 0
v -1.829277 5.522174 -0.5005524 0 0 0
v -2.760658 5.522174 0.9938378 0 0.6588235 0
v -1.829277 5.522174 -0.5005524 0 0 0
v -1.692436 -4.765606 -0.4959604 0 0 0
v -2.696259 -4.765606 1.114668 0 0.372549 0
v -4.520592 5.475775 0.9344386 0 0.3568628 0
v -4.593018 -4.765606 1.050643 0 0.1686275 0
v -5.349197 5.393845 -0.6195356 0 0 0
v -5.485947 -4.765606 -0.6240097 0 0 0
v -7.487251 3.757999 -1.34871 0 0 0
v -7.487251 -4.133901 -1.34871 0 0 0
v -6.596352 -4.133901 -2.891795 0 0 0
v -6.596352 3.768862 -2.891795 0 0 0
v -4.814545 -4.133901 -2.891795 0 0 0
v -4.814545 3.768862 -2.891795 0 0 0
v -6.527069 -4.253901 -2.771795 0 0 0
v -4.883827 -4.253901 -2.771795 0 0 0
v -3.923645 3.768862 -1.34871 0 0 0
v -3.923645 -4.133901 -1.34871 0 0.07843138 0
v -2.97583 2.669511 4.187358 0 0 0
v -2.087898 2.669511 2.64941 0 0 0
v -2.087898 -5.207807 2.64941 0 0.6431373 0
v -2.97583 -5.207807 4.187358 0 0 0
v -4.751785 -5.207807 4.187358 0 0 0
v -4.757004 2.669511 4.187358 0 0 0
v -5.639641 -5.207807 2.64941 0 0 0
v -5.639641 2.669511 2.64941 0 0 0
v -4.687592 2.789511 4.067358 0 0 0
v -3.045113 2.789511 4.067358 0 0 0
v -6.052269 4.664927 -5.475845 0 0 0
v -6.943176 4.664927 -3.932757 0 0 0
v -6.943176 -3.237837 -3.932757 0 0 0
v -6.052269 -3.237837 -5.475845 0 0 0
v -4.27047 4.664927 -5.475845 0 0 0
v -4.339752 4.784926 -5.355845 0 0 0
v -5.982986 4.784926 -5.355845 0 0 0
v -4.27047 -3.237837 -5.475845 0 0 0
v -3.37957 4.664927 -3.932758 0 0 0
v -3.37957 -3.237837 -3.932758 0 0 0
v -5.982986 -3.357837 -5.355845 0 0 0
v -4.339752 -3.357837 -5.355845 0 0 0
v -4.814545 3.768862 0.1943762 0 0 0
v -3.923645 3.768862 -1.34871 0 0 0
v -3.923645 -4.133901 -1.34871 0 0.07843138 0
v -4.814545 -4.133901 0.1943762 0 0 0
v -6.596352 3.768862 0.1943762 0 0 0
v -6.596352 -4.133901 0.1943762 0 0 0
v -6.527069 3.888863 0.07437664 0 0 0
v -4.883827 3.888863 0.07437658 0 0 0
v -7.487251 3.757999 -1.34871 0 0 0
v -7.487251 -4.133901 -1.34871 0 0 0
v -4.27047 4.664927 -2.389672 0 0 0
v -3.37957 4.664927 -3.932758 0 0 0
v -3.37957 -3.237837 -3.932758 0 0 0
v -4.27047 -3.237837 -2.389672 0 0 0
v -6.052269 4.664927 -2.389672 0 0 0
v -6.052269 -3.237837 -2.389672 0 0 0
v -5.982986 4.784926 -2.509672 0 0 0
v -4.339752 4.784926 -2.509672 0 0 0
v -6.943176 4.664927 -3.932757 0 0 0
v -6.943176 -3.237837 -3.932757 0 0 0
v -1.437088 4.9083 -4.819115 0 0 0
v -2.44223 4.9083 -3.078162 0 0 0
v -2.44223 -5.297242 -3.078162 0 0 0
v -1.437088 -5.297242 -4.819115 0 0 0
v 0.5731888 4.9083 -4.819115 0 0.0627451 0
v 0.5039063 5.0283 -4.699115 0 0.1960784 0
v -1.367805 5.0283 -4.699115 0 0 0
v 0.5731888 -5.297242 -4.819115 0 0 0
v 1.578331 4.9083 -3.078162 0 0.4470588 0
v 1.578331 -5.297242 -3.078162 0 0 0
v -1.367805 -5.417242 -4.699115 0 0 0
v 0.5039063 -5.417242 -4.699115 0 0 0
v -4.766861 4.968504 -3.319441 0 0 0
v -4.903397 -4.274687 -3.327804 0 0 0
v -3.79557 -4.274687 -5.00121 0 0 0
v -3.73455 4.968506 -4.878787 0 0 0
v -1.90535 4.968507 -4.766737 0 0 0
v -1.79245 -4.274687 -4.878505 0 0 0
v -0.8971558 -4.274687 -3.082398 0 0 0
v -1.113396 4.988681 -3.092327 0 0 0
v -1.868942 -4.394687 -4.762966 0 0 0
v -3.733757 -4.394687 -4.877198 0 0 0
v -2.066002 4.968501 -1.531419 0 0 0
v -1.113396 4.988681 -3.092327 0 0 0
v -0.8971558 -4.274687 -3.082398 0 0 0
v -2.004982 -4.274687 -1.408996 0 0 0
v -4.008102 -4.274687 -1.531699 0 0.2156863 0
v -3.932594 4.968503 -1.645758 0 0.2901961 0
v -4.903397 -4.274687 -3.327804 0 0 0
v -4.766861 4.968504 -3.319441 0 0 0
v 0.5731888 4.9083 -1.33721 0 0.09019608 0
v 1.578331 4.9083 -3.078162 0 0.4470588 0
v 1.578331 -5.297242 -3.078162 0 0 0
v 0.5731888 -5.297242 -1.33721 0 0.6588235 0
v -1.437088 4.9083 -1.33721 0 0 0
v -1.437088 -5.297242 -1.33721 0 0.4078431 0
v -1.367805 5.0283 -1.45721 0 0 0
v 0.5039063 5.0283 -1.45721 0 0.2156863 0
v -2.44223 4.9083 -3.078162 0 0 0
v -2.44223 -5.297242 -3.078162 0 0 0
v 7.691132 -4.157709 0.113694 0 0 0
v 6.634857 -4.117853 -1.757195 0 0 0
v 6.559753 -4.234776 -1.637687 0 0 0
v 7.547913 -4.272062 0.112562 0 0 0
v 6.527496 -4.228797 1.844063 0 0 0
v 6.60038 -4.111463 1.964543 0 0 0
v 4.518913 -4.148246 1.825315 0 0.7843137 0
v 4.453354 -4.025359 1.944503 0 0.7019608 0
v 3.530762 -4.110959 0.07506516 0 0.6588235 0
v 4.55117 -4.154224 -1.656435 0 0 0
v 3.397087 -3.985502 0.0736128 0 0.6588235 0
v 4.487839 -4.031749 -1.777236 0 0 0
v 0.2606125 3.572787 2.973509 0 0.7764706 0
v -0.7042007 3.572787 4.644624 0 0.9411765 0
v -0.7042007 -4.738597 4.644624 0 0 0
v 0.2606125 -4.738598 2.973509 0 0 0
v 2.190254 3.572786 2.973509 0 0.4039216 0
v 2.120972 3.692789 3.093508 0 0.627451 0
v 0.329895 3.692789 3.093508 0 0.7843137 0
v 2.190254 -4.738598 2.973509 0 0.5607843 0
v 0.329895 -4.858598 3.093509 0 0 0
v 2.120972 -4.858598 3.093509 0 0.3098039 0
v 3.155075 -4.738598 4.644624 0 0 0
v 3.155075 3.5935 4.644624 0 0 0
v 2.120972 3.692789 3.093508 0 0.627451 0
v 2.190254 3.572786 2.973509 0 0.4039216 0
v 3.155075 3.5935 4.644624 0 0 0
v 3.016518 3.712016 4.644632 0 0.0627451 0
v 2.21331 3.5935 6.275809 0 0 0
v 2.14312 3.712016 6.157392 0 0 0
v 0.3303223 3.692789 6.195009 0 0.5137255 0
v 0.2606125 3.572788 6.315739 0 0.3686275 0
v 0.329895 3.692789 3.093508 0 0.7843137 0
v -0.7042007 3.572787 4.644624 0 0.9411765 0
v -0.5652313 3.692789 4.643922 0 0.8392157 0
v 0.2606125 3.572787 2.973509 0 0.7764706 0
v -2.44812 4.099178 5.243604 0 0.6588235 0
v -2.517395 3.979177 5.363604 0 0.6235294 0
v -3.675354 3.979177 3.357964 0 0.5647059 0
v -3.536789 4.099178 3.357964 0 0.7647059 0
v -2.44812 4.099178 1.472323 0 0.9764706 0
v -2.517395 3.979177 1.352323 0 0.8392157 0
v -0.2707672 4.099178 1.472323 0 0.9019608 0
v -0.2707672 4.099178 5.243604 0 0.8117647 0
v 0.8179092 4.099178 3.357964 0 0.6745098 0
v -0.2014847 3.979177 1.352323 0 0.6901961 0
v -0.2014847 3.979177 5.363604 0 0.9058824 0
v 0.9564743 3.979177 3.357964 0 0.6627451 0
v -2.44812 -5.489306 1.472323 0 0.1960784 0
v -2.517395 -5.369307 1.352323 0 0.3529412 0
v -3.675354 -5.369307 3.357964 0 0 0
v -3.536789 -5.489306 3.357964 0 0 0
v -0.2707672 -5.489306 1.472323 0 0 0
v -2.44812 -5.489306 5.243604 0 0 0
v -2.517395 -5.369307 5.363604 0 0 0
v -0.2707672 -5.489306 5.243604 0 0 0
v -0.2014847 -5.369307 5.363604 0 0 0
v 0.8179092 -5.489306 3.357964 0 0 0
v -0.2014847 -5.369307 1.352323 0 0 0
v 0.9564743 -5.369307 3.357964 0 0 0
v -1.926018 7.274998 2.463973 0 0.4470588 0
v -1.9953 7.154998 2.583973 0 0.427451 0
v -3.224625 7.154998 0.4547085 0 0.6588235 0
v -3.086067 7.274998 0.4547085 0 0.6588235 0
v -1.926018 7.274998 -1.554555 0 0 0
v -1.9953 7.154998 -1.674555 0 0 0
v 0.3940811 7.274998 -1.554555 0 0 0
v 0.3940811 7.274998 2.463973 0 0.4941176 0
v 1.554131 7.274998 0.4547085 0 0 0
v 0.4633636 7.154998 -1.674555 0 0 0
v 0.4633636 7.154998 2.583973 0 0.4941176 0
v 1.692696 7.154998 0.4547085 0 0 0
v -1.926018 -5.15265 -1.554555 0 0.04705882 0
v -1.9953 -5.03265 -1.674555 0 0.07843138 0
v -3.224625 -5.03265 0.4547085 0 0.3686275 0
v -3.086067 -5.15265 0.4547085 0 0.3568628 0
v -1.926018 -5.15265 2.463973 0 0.5568628 0
v -1.9953 -5.03265 2.583973 0 0.6431373 0
v 0.3940811 -5.15265 -1.554555 0 0.654902 0
v 0.3940811 -5.15265 2.463973 0 0 0
v 0.4633636 -5.03265 2.583973 0 0 0
v 1.554131 -5.15265 0.4547085 0 0.8235294 0
v 0.4633636 -5.03265 -1.674555 0 0.6588235 0
v 1.692696 -5.03265 0.4547085 0 0.8235294 0
v -2.731911 5.595814 -1.93548 0 0.4627451 0
v -2.657791 5.475775 -2.054409 0 0.3058824 0
v -1.829277 5.522174 -0.5005524 0 0 0
v -1.969307 5.638522 -0.5052515 0 0 0
v -2.826553 5.638522 0.870189 0 0.6588235 0
v -2.760658 5.522174 0.9938378 0 0.6588235 0
v -4.446472 5.595814 0.8155101 0 0.4352941 0
v -4.352097 5.520392 -1.99017 0 0 0
v -4.520592 5.475775 0.9344386 0 0.3568628 0
v -5.209206 5.520393 -0.6149558 0 0 0
v -4.41787 5.393844 -2.113832 0 0 0
v -5.349197 5.393845 -0.6195356 0 0 0
v -4.687592 2.789511 4.067358 0 0 0
v -4.757004 2.669511 4.187358 0 0 0
v -5.639641 2.669511 2.64941 0 0 0
v -5.501183 2.789511 2.649592 0 0 0
v -4.682373 2.789511 1.231374 0 0 0
v -4.751709 2.669511 1.111461 0 0 0
v -3.045273 2.789511 1.23137 0 0.6588235 0
v -3.045113 2.789511 4.067358 0 0 0
v -2.226509 2.789511 2.649497 0 0 0
v -2.97583 2.669511 1.111461 0 0.6588235 0
v -2.97583 2.669511 4.187358 0 0 0
v -2.087898 2.669511 2.64941 0 0 0
v -6.527069 3.888018 -2.771798 0 0 0
v -6.596352 3.768862 -2.891795 0 0 0
v -4.814545 3.768862 -2.891795 0 0 0
v -7.348694 3.879689 -1.34871 0 0 0
v -7.487251 3.757999 -1.34871 0 0 0
v -6.596352 3.768862 0.1943762 0 0 0
v -6.527069 3.888863 0.07437664 0 0 0
v -4.883827 3.888863 -2.771795 0 0 0
v -4.883827 3.888863 0.07437658 0 0 0
v -4.06221 3.888863 -1.34871 0 0 0
v -4.814545 3.768862 -2.891795 0 0 0
v -4.814545 3.768862 0.1943762 0 0 0
v -3.923645 3.768862 -1.34871 0 0 0
v -5.485947 -4.765606 -0.6240097 0 0 0
v -4.416931 -4.885606 -2.112369 0 0.3960784 0
v -4.482124 -4.765606 -2.234637 0 0.2745098 0
v -5.347466 -4.885606 -0.6193352 0 0 0
v -2.658661 -4.885606 -2.053018 0 0.345098 0
v -4.51973 -4.885606 0.9330487 0 0.2313726 0
v -4.593018 -4.765606 1.050643 0 0.1686275 0
v -2.761452 -4.885606 0.9923988 0 0.372549 0
v -2.696259 -4.765606 1.114668 0 0.372549 0
v -1.692436 -4.765606 -0.4959604 0 0 0
v -1.830917 -4.885606 -0.5006351 0 0 0
v -2.585365 -4.765606 -2.170613 0 0.1058824 0
v -4.903397 -4.274687 -3.327804 0 0 0
v -3.733757 -4.394687 -4.877198 0 0 0
v -3.79557 -4.274687 -5.00121 0 0 0
v -4.765091 -4.394687 -3.319333 0 0 0
v -4.008102 -4.274687 -1.531699 0 0.2156863 0
v -1.868942 -4.394687 -4.762966 0 0 0
v -3.93161 -4.394687 -1.647238 0 0.2705882 0
v -2.004982 -4.274687 -1.408996 0 0 0
v -1.035461 -4.394687 -3.09087 0 0 0
v -1.79245 -4.274687 -4.878505 0 0 0
v -0.8971558 -4.274687 -3.082398 0 0 0
v -2.066795 -4.394687 -1.533008 0 0.0627451 0
v 6.951408 2.765386 4.608441 0 0 0
v 8.000717 2.672428 2.996644 0 0 0
v 7.021751 2.633304 4.727272 0 0 0
v 7.862457 2.796372 2.996641 0 0 0
v 6.995544 2.72742 1.255633 0 0 0
v 5.990402 2.847505 2.996592 0 0 0
v 6.059303 2.818132 4.625173 0 0 0
v 6.926399 2.847505 1.375397 0 0 0
v 4.985229 2.769776 1.255633 0 0 0
v 5.054596 2.886868 1.375406 0 0 0
v 3.980095 2.769856 2.996573 0 0.0627451 0
v 5.054321 2.847505 4.617931 0 0 0
v 6.047218 2.696692 4.74699 0 0 0
v 4.984215 2.727659 4.739356 0 0 0
v 4.118431 2.886868 2.996894 0 0 0
v 0.5039063 5.0283 -4.699115 0 0.1960784 0
v -2.303665 5.0283 -3.078162 0 0 0
v -1.367805 5.0283 -4.699115 0 0 0
v -1.437088 4.9083 -4.819115 0 0 0
v -2.44223 4.9083 -3.078162 0 0 0
v -1.437088 4.9083 -1.33721 0 0 0
v -1.367805 5.0283 -1.45721 0 0 0
v 1.439766 5.0283 -3.078162 0 0.5490196 0
v 0.5039063 5.0283 -1.45721 0 0.2156863 0
v 0.5731888 4.9083 -4.819115 0 0.0627451 0
v 0.5731888 4.9083 -1.33721 0 0.09019608 0
v 1.578331 4.9083 -3.078162 0 0.4470588 0
v 2.982193 6.172098 -3.618258 0 0.5294118 0
v 0.1746216 6.172098 -1.997306 0 0.6588235 0
v 1.110474 6.172098 -3.618258 0 0.4941176 0
v 1.041191 6.052098 -3.738258 0 0.6078432 0
v 0.03605652 6.052098 -1.997306 0 0.6588235 0
v 1.041191 6.052098 -0.2563537 0 0.8235294 0
v 1.110474 6.172098 -0.3763537 0 0.8235294 0
v 3.918045 6.172098 -1.997306 0 0.3921569 0
v 2.982193 6.172098 -0.3763537 0 0.8235294 0
v 3.051476 6.052098 -3.738258 0 0.4901961 0
v 3.051476 6.052098 -0.2563537 0 0.8235294 0
v 4.05661 6.052098 -1.997306 0 0.1882353 0
v 3.446861 5.123579 -0.5876947 0 0.7294118 0
v -0.07390594 5.123579 1.445021 0 0 0
v 1.099686 5.123579 -0.5876947 0 0.7843137 0
v 1.030403 5.003579 -0.7076947 0 0.8235294 0
v -0.212471 5.003579 1.445021 0 0 0
v 1.030403 5.003579 3.597738 0 0.8235294 0
v 1.099686 5.123579 3.477738 0 0.8470588 0
v 4.620453 5.123579 1.445021 0 0.6588235 0
v 3.446861 5.123579 3.477738 0 0.6588235 0
v 3.516144 5.003579 -0.7076947 0 0.6862745 0
v 3.516144 5.003579 3.597738 0 0.6588235 0
v 4.759018 5.003579 1.445021 0 0.6039216 0
v -5.982986 4.784926 -2.509672 0 0 0
v -3.518135 4.784926 -3.932758 0 0 0
v -4.339752 4.784926 -2.509672 0 0 0
v -4.27047 4.664927 -2.389672 0 0 0
v -3.37957 4.664927 -3.932758 0 0 0
v -4.27047 4.664927 -5.475845 0 0 0
v -4.339752 4.784926 -5.355845 0 0 0
v -5.982986 4.784926 -5.355845 0 0 0
v -6.804611 4.784926 -3.932757 0 0 0
v -6.052269 4.664927 -2.389672 0 0 0
v -6.052269 4.664927 -5.475845 0 0 0
v -6.943176 4.664927 -3.932757 0 0 0
v -2.303665 -5.417242 -3.078162 0 0.1529412 0
v -1.367805 -5.417242 -4.699115 0 0 0
v -1.437088 -5.297242 -4.819115 0 0 0
v -2.44223 -5.297242 -3.078162 0 0 0
v 0.5039063 -5.417242 -4.699115 0 0 0
v -1.437088 -5.297242 -1.33721 0 0.4078431 0
v -1.367805 -5.417242 -1.45721 0 0.4941176 0
v 1.439766 -5.417242 -3.078162 0 0 0
v 0.5731888 -5.297242 -4.819115 0 0 0
v 1.578331 -5.297242 -3.078162 0 0 0
v 0.5731888 -5.297242 -1.33721 0 0.6588235 0
v 0.5039063 -5.417242 -1.45721 0 0.6588235 0
v -2.131287 5.090003 -1.657761 0 0 0
v -2.066002 4.968501 -1.531419 0 0 0
v -3.932594 4.968503 -1.645758 0 0.2901961 0
v -1.113396 4.988681 -3.092327 0 0 0
v -3.856148 5.088499 -1.763451 0 0.427451 0
v -4.766861 4.968504 -3.319441 0 0 0
v -1.25148 5.10551 -3.101031 0 0.6117647 0
v -1.98275 5.088499 -4.648357 0 0 0
v -1.90535 4.968507 -4.766737 0 0 0
v -3.73455 4.968506 -4.878787 0 0 0
v -4.627167 5.088499 -3.310291 0 0 0
v -3.672768 5.088499 -4.751935 0 0 0
v -6.804611 -3.357837 -3.932757 0 0 0
v -5.982986 -3.357837 -5.355845 0 0 0
v -6.052269 -3.237837 -5.475845 0 0 0
v -6.943176 -3.237837 -3.932757 0 0 0
v -6.052269 -3.237837 -2.389672 0 0 0
v -5.982986 -3.357837 -2.509672 0 0 0
v -4.339752 -3.357837 -5.355845 0 0 0
v -4.339752 -3.357837 -2.509672 0 0 0
v -4.27047 -3.237837 -2.389672 0 0 0
v -3.518135 -3.357837 -3.932758 0 0 0
v -4.27047 -3.237837 -5.475845 0 0 0
v -3.37957 -3.237837 -3.932758 0 0 0
v -7.348686 -4.253901 -1.34871 0 0 0
v -6.527069 -4.253901 -2.771795 0 0 0
v -6.596352 -4.133901 -2.891795 0 0 0
v -7.487251 -4.133901 -1.34871 0 0 0
v -6.596352 -4.133901 0.1943762 0 0 0
v -6.527069 -4.253901 0.07437625 0 0 0
v -4.883827 -4.253901 -2.771795 0 0 0
v -4.883827 -4.253901 0.07437622 0 0 0
v -4.814545 -4.133901 0.1943762 0 0 0
v -4.06221 -4.253901 -1.34871 0 0.1215686 0
v -4.814545 -4.133901 -2.891795 0 0 0
v -3.923645 -4.133901 -1.34871 0 0.07843138 0
v -5.501076 -5.327806 2.64941 0 0 0
v -4.682426 -5.327806 1.231461 0 0 0
v -4.751709 -5.207807 1.111461 0 0 0
v -5.639641 -5.207807 2.64941 0 0 0
v -4.751785 -5.207807 4.187358 0 0 0
v -4.682426 -5.327806 4.067358 0 0 0
v -3.045113 -5.327806 1.231461 0 0.372549 0
v -2.97583 -5.207807 4.187358 0 0 0
v -3.045113 -5.327806 4.067358 0 0 0
v -2.226463 -5.327806 2.64941 0 0.6078432 0
v -2.97583 -5.207807 1.111461 0 0.372549 0
v -2.087898 -5.207807 2.64941 0 0.6431373 0
v 3.813156 4.314922 -0.6401576 0 0.6588235 0
v 3.742722 4.194939 -0.518161 0 0.6588235 0
v 2.681374 4.194939 -2.356479 0 0 0
v 5.865425 4.194939 -0.518161 0 0 0
v 5.794991 4.314922 -0.6401576 0 0 0
v 6.926781 4.194939 -2.356479 0 0 0
v 6.785912 4.314922 -2.356479 0 0 0
v 5.865425 4.194939 -4.194796 0 0 0
v 5.794991 4.314922 -4.0728 0 0 0
v 3.742722 4.194939 -4.194796 0 0 0
v 2.822243 4.314922 -2.356479 0 0 0
v 3.813156 4.314922 -4.0728 0 0 0
v 7.671677 3.193933 0.1024775 0 0 0
v 7.808182 3.06838 0.1039318 0 0 0
v 6.786613 3.111693 1.837382 0 0 0
v 6.818909 3.105708 -1.648289 0 0 0
v 6.721596 3.234216 1.714629 0 0 0
v 4.775772 3.192334 1.818613 0 0 0
v 4.851463 3.309215 1.697174 0 0.972549 0
v 3.786507 3.229663 0.06639259 0 0 0
v 6.751625 3.22865 -1.527132 0 0 0
v 4.808067 3.18635 -1.667058 0 0 0
v 3.931419 3.343931 0.06756499 0 0.9960784 0
v 4.8815 3.303649 -1.544587 0 0 0
v 0.1746216 -5.082012 -1.997306 0 0.654902 0
v 1.110474 -5.082012 -3.618258 0 0 0
v 1.041191 -4.962012 -3.738258 0 0 0
v 0.03605652 -4.962012 -1.997306 0 0.6470588 0
v 2.982193 -5.082012 -3.618258 0 0 0
v 1.041191 -4.962012 -0.2563537 0 0.8235294 0
v 1.110474 -5.082012 -0.3763537 0 0.8235294 0
v 3.918045 -5.082012 -1.997306 0 0 0
v 3.051476 -4.962012 -3.738258 0 0 0
v 4.05661 -4.962012 -1.997306 0 0 0
v 3.051476 -4.962012 -0.2563537 0 0.6588235 0
v 2.982193 -5.082012 -0.3763537 0 0.5372549 0
v 4.118683 -5.282355 2.996597 0 0 0
v 5.054543 -5.282355 1.375645 0 0.9843137 0
v 4.98526 -5.162355 1.255645 0 0.9803922 0
v 3.980118 -5.162355 2.996597 0 0 0
v 4.87146 -5.197503 4.710152 0 0 0
v 5.054543 -5.282355 4.617548 0 0 0
v 5.065887 -5.197503 4.822401 0 0 0
v 6.926254 -5.282355 1.375645 0 0.6980392 0
v 6.926254 -5.282355 4.617548 0 0 0
v 6.995934 -5.162355 4.737392 0 0 0
v 7.862114 -5.282355 2.996597 0 0 0
v 6.995537 -5.162355 1.255645 0 0.4901961 0
v 8.000679 -5.162355 2.996598 0 0 0
v -0.07390594 -4.571404 1.445021 0 0 0
v 1.099686 -4.571404 -0.5876947 0 0.8235294 0
v 1.030403 -4.451405 -0.7076947 0 0.7333333 0
v -0.212471 -4.451405 1.445021 0 0 0
v 3.446861 -4.571404 -0.5876947 0 0.6078432 0
v 1.030403 -4.451405 3.597738 0 0.9098039 0
v 1.099686 -4.571404 3.477738 0 0.8352941 0
v 4.620453 -4.571404 1.445021 0 0.5490196 0
v 3.516144 -4.451405 -0.7076947 0 0.4039216 0
v 4.759018 -4.451405 1.445021 0 0.7019608 0
v 3.516144 -4.451405 3.597738 0 0 0
v 3.446861 -4.571404 3.477738 0 0 0
v -0.5656357 -4.858598 4.644624 0 0 0
v -0.7042007 -4.738597 4.644624 0 0 0
v 0.2606125 -4.738597 6.315739 0 0 0
v 0.2606125 -4.738598 2.973509 0 0 0
v 0.329895 -4.858598 3.093509 0 0 0
v 2.120972 -4.858598 3.093509 0 0.3098039 0
v 0.329895 -4.858598 6.195739 0 0 0
v 2.120972 -4.858598 6.195739 0 0 0
v 2.190582 -4.738598 6.315172 0 0 0
v 3.01651 -4.858598 4.644624 0 0 0
v 2.190254 -4.738598 2.973509 0 0.5607843 0
v 3.155075 -4.738598 4.644624 0 0 0
v 3.674591 -2.896248 -4.312799 0 0 0
v 2.545113 -2.896248 -2.356479 0 0 0
v 2.683678 -3.016248 -2.356479 0 0 0
v 3.743874 -3.016248 -4.1928 0 0 0
v 3.674591 -2.896248 -0.4001576 0 0 0
v 5.864273 -3.016248 -4.1928 0 0 0
v 3.743874 -3.016248 -0.5201576 0 0 0
v 5.864273 -3.016248 -0.5201576 0 0 0
v 5.933556 -2.896248 -0.4001576 0 0 0
v 6.924477 -3.016248 -2.356479 0 0 0
v 5.933556 -2.896248 -4.312799 0 0 0
v 7.063042 -2.896248 -2.356479 0 0 0
vn -0.2221124 0.8976168 -0.3807232
vn 0.4639701 0.3724698 -0.8037401
vn 0.2209301 0.896894 -0.3831072
vn -0.4640312 0.3724151 -0.8037301
vn -0.9280635 0.3724221 0
vn -0.9280635 -0.3724221 0
vn -0.4640306 -0.3724161 -0.8037299
vn 0.4640312 0.3724209 -0.8037274
vn 0.221134 0.8968813 -0.383019
vn -0.2211466 0.8968775 -0.3830209
vn 0.4640316 -0.3724213 -0.803727
vn 0.928064 0.3724207 0
vn 0.9280634 -0.3724223 0
vn 0.2211343 -0.8968818 -0.383018
vn -0.2211455 -0.8968781 -0.38302
vn 0.4710323 0.3764036 0.7977775
vn 0.9267094 0.3757762 -0.001440297
vn 0.9280636 -0.3724217 0
vn 0.4644592 -0.3717913 0.8037717
vn -0.4582034 0.3728746 0.8068545
vn -0.4639609 -0.3723832 0.8037854
vn -0.9278466 0.3729619 0.0002925931
vn -0.9280635 -0.372422 0
vn -0.4640327 0.3724208 -0.8037266
vn -0.9280634 0.3724224 0
vn -0.9280634 -0.3724224 0
vn -0.4640323 -0.3724211 -0.8037267
vn 0.4640329 0.3724208 -0.8037266
vn 0.2211362 0.8968814 -0.3830176
vn -0.2211362 0.8968815 -0.3830175
vn 0.4640322 -0.3724211 -0.8037267
vn 0.9280634 0.3724224 0
vn 0.9280634 -0.3724224 0
vn -0.2211353 -0.8968816 -0.3830177
vn 0.2211354 -0.8968816 -0.3830176
vn 0.4640313 0.3724217 0.803727
vn 0.928064 0.3724207 0
vn 0.9280634 -0.3724223 0
vn 0.4640319 -0.3724219 0.8037266
vn -0.4640308 0.3724147 0.8037305
vn 0.2211337 0.8968818 0.3830183
vn -0.2211463 0.8968771 0.383022
vn -0.4640303 -0.3724157 0.8037304
vn -0.9280635 0.3724221 0
vn -0.9280635 -0.3724221 0
vn -0.4603414 0.3788165 -0.8028598
vn -0.924119 0.3821047 -0.0003355633
vn -0.927228 -0.3736425 -0.02528867
vn -0.4640305 -0.3724234 -0.8037267
vn 0.4695629 0.372496 -0.8004733
vn 0.464031 -0.3724225 -0.8037269
vn 0.9309311 0.36519 0.001901942
vn 0.927869 -0.3729062 -0.0004757749
vn -0.2211337 -0.8968821 -0.3830175
vn 0.2211338 -0.896882 -0.3830178
vn 0.464031 0.3724225 0.8037268
vn 0.9280634 0.3724224 0
vn 0.9280634 -0.3724224 0
vn 0.4640303 -0.3724214 0.8037277
vn -0.4640309 0.372421 0.8037276
vn -0.4640304 -0.3724228 0.803727
vn -0.2211336 0.8968815 0.3830191
vn 0.2211334 0.8968824 0.383017
vn -0.9280634 0.3724224 0
vn -0.9280634 -0.3724224 0
vn -0.4640333 0.372421 -0.8037261
vn -0.9280673 0.3724126 0
vn -0.9280673 -0.3724126 0
vn -0.4640333 -0.3724207 -0.8037263
vn 0.4640321 0.3724209 -0.8037269
vn 0.221135 0.8968815 -0.3830182
vn -0.221136 0.8968816 -0.3830175
vn 0.4640321 -0.3724213 -0.8037267
vn 0.9280633 0.3724224 0
vn 0.9280634 -0.3724224 0
vn -0.2211361 -0.8968813 -0.383018
vn 0.221135 -0.8968817 -0.3830176
vn 0.485678 0.3461544 0.8026793
vn 0.9309311 0.36519 0.001901942
vn 0.927869 -0.3729062 -0.0004757749
vn 0.4848186 -0.373056 0.7910627
vn 0.02481596 0.387502 0.9215348
vn 0.2647463 0.8747839 0.4057864
vn 0.04333342 0.9191108 0.3916089
vn -0.1338233 -0.2437586 0.9605588
vn -0.1209333 -0.6177533 0.7770174
vn -0.4587924 0.3836754 0.801438
vn -0.6163156 -0.6134202 0.4938326
vn -0.5128447 -0.1624745 0.8429664
vn -0.924119 0.3821047 -0.0003355633
vn -0.927228 -0.3736425 -0.02528867
vn -0.4640325 0.3724211 -0.8037266
vn -0.9280632 0.3724227 0
vn -0.9280632 -0.3724227 0
vn -0.4640323 -0.3724221 -0.8037263
vn 0.4640326 0.3724219 -0.8037261
vn 0.2211349 0.896882 -0.383017
vn -0.221135 0.8968815 -0.3830181
vn 0.4640321 -0.3724213 -0.8037266
vn 0.9280632 0.3724227 0
vn 0.9280632 -0.3724228 0
vn -0.2211343 -0.8968821 -0.3830171
vn 0.2211344 -0.8968817 -0.3830181
vn 0.4640321 0.3724211 0.8037269
vn 0.9280633 0.3724224 0
vn 0.9280634 -0.3724224 0
vn 0.4640321 -0.372421 0.8037269
vn -0.4640326 0.3724214 0.8037264
vn -0.4640325 -0.3724214 0.8037264
vn -0.2211349 0.8968816 0.3830179
vn 0.2211349 0.8968817 0.3830178
vn -0.9280673 0.3724126 0
vn -0.9280673 -0.3724126 0
vn 0.4640313 0.372422 0.8037269
vn 0.9280632 0.3724227 0
vn 0.9280632 -0.3724228 0
vn 0.4640327 -0.3724212 0.8037264
vn -0.4640313 0.3724222 0.8037268
vn -0.4640327 -0.3724212 0.8037264
vn -0.2211332 0.8968822 0.3830176
vn 0.2211332 0.8968821 0.3830177
vn -0.9280632 0.3724227 0
vn -0.9280632 -0.3724227 0
vn -0.439388 0.3994389 -0.8046035
vn -0.9085518 0.4176731 -0.00910372
vn -0.944432 -0.328604 -0.008227376
vn -0.4715479 -0.347387 -0.8105337
vn 0.4832554 0.3655186 -0.7955252
vn 0.4592104 -0.3823775 -0.8018188
vn 0.9367777 0.3498312 0.008110361
vn 0.9170893 -0.398577 0.009140257
vn -0.2533115 -0.8879704 -0.3838513
vn 0.1886038 -0.9056599 -0.3797483
vn 0.9367777 0.3498312 0.008110361
vn 0.9170893 -0.398577 0.009140257
vn 0.4442597 -0.3797831 0.8114174
vn 0.4684533 0.3680311 0.8031841
vn -0.4865048 -0.3447936 0.8027642
vn -0.4542381 0.4019566 0.7950463
vn -0.944432 -0.328604 -0.008227376
vn -0.9085518 0.4176731 -0.00910372
vn -0.923239 0.3842263 0
vn -0.9315209 -0.3636876 0
vn -0.4657617 -0.3636863 -0.8067207
vn -0.4616206 0.3842251 -0.7995483
vn 0.4616188 0.384226 -0.799549
vn 0.4657606 -0.3636863 -0.8067213
vn 0.9232392 0.3842257 0
vn 0.9315211 -0.3636874 0
vn -0.2211357 -0.8968816 -0.3830177
vn 0.2211349 -0.8968816 -0.383018
vn 0.9232392 0.3842257 0
vn 0.9315211 -0.3636874 0
vn 0.4657606 -0.3636866 0.8067213
vn 0.4616191 0.3842258 0.7995489
vn -0.4616205 0.3842257 0.7995481
vn -0.4657617 -0.3636866 0.8067206
vn -0.923239 0.3842263 0
vn -0.9315209 -0.3636876 0
vn -0.4640788 0.3723555 -0.8037302
vn -0.9280875 0.3723601 -0.001206204
vn -0.9280121 -0.37255 -0.0001246506
vn -0.4640327 -0.3724214 -0.8037263
vn 0.4640979 0.3724228 -0.803688
vn 0.2209409 0.8968832 -0.383126
vn -0.2210897 0.8968354 -0.3831522
vn 0.4640327 -0.3724213 -0.8037264
vn 0.9280387 0.3724838 -3.631088E-05
vn 0.9280636 -0.372422 0
vn -0.2211353 -0.8968818 -0.3830173
vn 0.2211353 -0.8968817 -0.3830176
vn -0.4431041 0.3661484 -0.8182873
vn -0.9298053 0.3661484 -0.03738113
vn -0.9299704 -0.3662919 -0.03138864
vn -0.4377969 -0.366296 -0.8210732
vn 0.4921512 -0.3663233 -0.78968
vn 0.2339244 -0.8968839 -0.3753382
vn -0.2080906 -0.8968806 -0.3902608
vn 0.4802527 0.3823738 -0.789397
vn -0.2389482 0.8824167 -0.405271
vn 0.2049452 0.8983215 -0.3886075
vn 0.9299468 -0.3663525 0.03137997
vn 0.9209324 0.3887573 0.02741165
vn 0.4302442 0.3887612 0.8147114
vn 0.9209324 0.3887573 0.02741165
vn 0.9299468 -0.3663525 0.03137997
vn 0.4377789 -0.3663569 0.8210556
vn -0.4971607 0.3823743 0.7788589
vn -0.4921789 -0.3663189 0.7896647
vn -0.9298053 0.3661484 -0.03738113
vn -0.9299704 -0.3662919 -0.03138864
vn -0.9295824 0.3686145 0
vn -0.9280634 -0.3724222 0
vn -0.4640326 -0.372421 -0.8037266
vn -0.4642653 0.3742278 -0.8027524
vn 0.4640325 -0.372421 -0.8037266
vn 0.4639701 0.3724698 -0.8037401
vn -0.2211357 -0.8968815 -0.3830178
vn 0.2211354 -0.8968816 -0.3830178
vn 0.9280636 0.3724217 0
vn 0.9280634 -0.3724222 0
vn 0.4640324 0.3724209 0.8037267
vn 0.9280387 0.3724838 -3.631088E-05
vn 0.9280636 -0.372422 0
vn 0.4640326 -0.3724213 0.8037264
vn -0.4639309 -0.3726174 0.8036942
vn -0.465053 0.3724001 0.8031463
vn -0.9280121 -0.37255 -0.0001246506
vn -0.9280875 0.3723601 -0.001206204
vn -0.2217397 0.8968425 0.3827597
vn 0.2211346 0.8968816 0.3830182
vn -0.464031 0.372421 -0.8037274
vn -0.9280636 0.3724219 0
vn -0.9280636 -0.3724219 0
vn -0.4640311 -0.3724225 -0.8037268
vn 0.4640326 0.3724223 -0.803726
vn 0.2211351 0.8968822 -0.3830166
vn -0.221134 0.8968814 -0.383019
vn 0.4640328 -0.3724207 -0.8037266
vn 0.9280632 0.3724229 0
vn 0.9280632 -0.3724229 0
vn -0.2211335 -0.8968824 -0.383017
vn 0.2211358 -0.8968812 -0.3830186
vn 0.4640326 0.3724203 0.8037269
vn 0.9280636 0.3724217 0
vn 0.9280634 -0.3724222 0
vn 0.4640327 -0.3724213 0.8037263
vn -0.4645693 0.372972 0.8031608
vn -0.4640325 -0.3724213 0.8037264
vn -0.2230467 0.8968212 0.3820497
vn 0.2211357 0.8968809 0.3830191
vn -0.9295824 0.3686145 0
vn -0.9280634 -0.3724222 0
vn 0.464032 0.3724214 0.8037267
vn 0.9280632 0.3724229 0
vn 0.9280632 -0.3724229 0
vn 0.4640324 -0.3724212 0.8037266
vn -0.4640312 0.3724216 0.8037271
vn -0.464031 -0.3724213 0.8037274
vn -0.2211342 0.896882 0.3830175
vn 0.2211348 0.8968817 0.3830179
vn -0.9280636 0.3724219 0
vn -0.9280636 -0.3724219 0
vn -0.4640326 0.372421 -0.8037266
vn -0.9280637 0.3724215 0
vn -0.9280634 -0.3724223 0
vn -0.4640318 -0.3724218 -0.8037267
vn 0.4640325 0.3724213 -0.8037265
vn 0.2211356 0.8968817 -0.3830173
vn -0.2211357 0.8968815 -0.3830178
vn 0.4640318 -0.3724215 -0.8037269
vn 0.9280637 0.3724215 0
vn 0.9280634 -0.3724224 0
vn -0.2211344 -0.8968819 -0.3830174
vn 0.2211344 -0.8968818 -0.3830179
vn -0.9228083 0.3810536 -0.05677144
vn -0.9289939 -0.3656936 -0.05690642
vn -0.415214 -0.3656923 -0.8329865
vn -0.411719 0.382499 -0.8271528
vn 0.5145662 0.3831364 -0.7670906
vn 0.5145409 -0.3647717 -0.7760086
vn 0.9295623 -0.3643443 0.05627682
vn 0.9188972 0.3914051 0.04929326
vn 0.2441364 -0.8968828 -0.3687802
vn -0.197306 -0.8968814 -0.3958209
vn 0.4247728 0.3811731 0.8211426
vn 0.9188972 0.3914051 0.04929326
vn 0.9295623 -0.3643443 0.05627682
vn 0.4152137 -0.3656917 0.8329869
vn -0.5137804 -0.3656946 0.7760782
vn -0.5099584 0.381419 0.7710136
vn -0.9289939 -0.3656936 -0.05690642
vn -0.9228083 0.3810536 -0.05677144
vn 0.4640311 0.3724215 0.8037271
vn 0.9280637 0.3724215 0
vn 0.9280634 -0.3724224 0
vn 0.4640312 -0.3724216 0.8037271
vn -0.4640311 0.3724217 0.8037271
vn -0.4640312 -0.3724215 0.8037271
vn -0.2211336 0.8968819 0.3830179
vn 0.2211337 0.8968818 0.3830181
vn -0.9280637 0.3724215 0
vn -0.9280634 -0.3724223 0
vn 0.9170893 -0.398577 0.009140257
vn 0.4592104 -0.3823775 -0.8018188
vn 0.1886038 -0.9056599 -0.3797483
vn 0.4060194 -0.9138489 0.005329574
vn 0.1815016 -0.9043487 0.3862779
vn 0.4442597 -0.3797831 0.8114174
vn -0.2604014 -0.8866604 0.3821315
vn -0.4865048 -0.3447936 0.8027642
vn -0.4777749 -0.8784775 -0.002920577
vn -0.2533115 -0.8879704 -0.3838513
vn -0.944432 -0.328604 -0.008227376
vn -0.4715479 -0.347387 -0.8105337
vn -0.4640338 0.3724174 -0.8037276
vn -0.9278466 0.3729619 0.0002925931
vn -0.9280635 -0.372422 0
vn -0.4640331 -0.3724213 -0.8037261
vn 0.4630193 0.3713507 -0.8048054
vn 0.2173485 0.896604 -0.3858249
vn -0.2211376 0.8968789 -0.3830228
vn 0.4640319 -0.3724215 -0.8037268
vn -0.2211358 -0.8968816 -0.3830176
vn 0.2211347 -0.8968818 -0.3830177
vn 0.9280636 -0.3724217 0
vn 0.9267094 0.3757762 -0.001440297
vn 0.2173485 0.896604 -0.3858249
vn 0.4630193 0.3713507 -0.8048054
vn 0.9267094 0.3757762 -0.001440297
vn 0.4350985 0.9003708 -0.004673855
vn 0.4710323 0.3764036 0.7977775
vn 0.2173461 0.9003413 0.377023
vn -0.2199579 0.8966275 0.3842886
vn -0.4582034 0.3728746 0.8068545
vn -0.2211376 0.8968789 -0.3830228
vn -0.9278466 0.3729619 0.0002925931
vn -0.4415023 0.8972597 -0.0008327233
vn -0.4640338 0.3724174 -0.8037276
vn -0.2211463 0.8968771 0.383022
vn -0.4640308 0.3724147 0.8037305
vn -0.9280635 0.3724221 0
vn -0.4422677 0.8968831 0
vn -0.2211466 0.8968775 -0.3830209
vn -0.4640312 0.3724151 -0.8037301
vn 0.221134 0.8968813 -0.383019
vn 0.2211337 0.8968818 0.3830183
vn 0.4422713 0.8968813 0
vn 0.4640312 0.3724209 -0.8037274
vn 0.4640313 0.3724217 0.803727
vn 0.928064 0.3724207 0
vn -0.2211455 -0.8968781 -0.38302
vn -0.4640306 -0.3724161 -0.8037299
vn -0.9280635 -0.3724221 0
vn -0.4422677 -0.8968831 0
vn 0.2211343 -0.8968818 -0.383018
vn -0.2211452 -0.8968778 0.3830211
vn -0.4640303 -0.3724157 0.8037304
vn 0.2211344 -0.896882 0.3830172
vn 0.4640319 -0.3724219 0.8037266
vn 0.4422691 -0.8968824 0
vn 0.4640316 -0.3724213 -0.803727
vn 0.9280634 -0.3724223 0
vn -0.2211349 0.8968816 0.3830179
vn -0.4640326 0.3724214 0.8037264
vn -0.9280673 0.3724126 0
vn -0.4422838 0.8968751 0
vn -0.221136 0.8968816 -0.3830175
vn -0.4640333 0.372421 -0.8037261
vn 0.221135 0.8968815 -0.3830182
vn 0.2211349 0.8968817 0.3830178
vn 0.4422688 0.8968826 0
vn 0.4640321 0.3724209 -0.8037269
vn 0.4640321 0.3724211 0.8037269
vn 0.9280633 0.3724224 0
vn -0.2211361 -0.8968813 -0.383018
vn -0.4640333 -0.3724207 -0.8037263
vn -0.9280673 -0.3724126 0
vn -0.4422839 -0.8968751 0
vn -0.2211349 -0.8968817 0.3830176
vn -0.4640325 -0.3724214 0.8037264
vn 0.221135 -0.8968817 -0.3830176
vn 0.221135 -0.8968816 0.383018
vn 0.4640321 -0.372421 0.8037269
vn 0.4422689 -0.8968825 0
vn 0.4640321 -0.3724213 -0.8037267
vn 0.9280634 -0.3724224 0
vn 0.2049452 0.8983215 -0.3886075
vn 0.4802527 0.3823738 -0.789397
vn 0.9209324 0.3887573 0.02741165
vn 0.4217007 0.9067312 0.002670976
vn 0.1881425 0.9067339 0.377407
vn 0.4302442 0.3887612 0.8147114
vn -0.2586132 0.8983216 0.3551584
vn -0.2389482 0.8824167 -0.405271
vn -0.4971607 0.3823743 0.7788589
vn -0.4690878 0.8824168 -0.03601599
vn -0.4431041 0.3661484 -0.8182873
vn -0.9298053 0.3661484 -0.03738113
vn -0.2217397 0.8968425 0.3827597
vn -0.465053 0.3724001 0.8031463
vn -0.9280875 0.3723601 -0.001206204
vn -0.4422659 0.8968838 -0.0005811192
vn -0.2210897 0.8968354 -0.3831522
vn -0.4640788 0.3723555 -0.8037302
vn 0.2209409 0.8968832 -0.383126
vn 0.2211346 0.8968816 0.3830182
vn 0.442181 0.8969259 0.0001041166
vn 0.4640979 0.3724228 -0.803688
vn 0.4640324 0.3724209 0.8037267
vn 0.9280387 0.3724838 -3.631088E-05
vn -0.2221124 0.8976168 -0.3807232
vn -0.4642653 0.3742278 -0.8027524
vn 0.4639701 0.3724698 -0.8037401
vn -0.4496987 0.8931803 -7.369996E-05
vn -0.9295824 0.3686145 0
vn -0.4645693 0.372972 0.8031608
vn -0.2230467 0.8968212 0.3820497
vn 0.2209301 0.896894 -0.3831072
vn 0.2211357 0.8968809 0.3830191
vn 0.4422699 0.8968821 0
vn 0.4639701 0.3724698 -0.8037401
vn 0.4640326 0.3724203 0.8037269
vn 0.9280636 0.3724217 0
vn -0.9299704 -0.3662919 -0.03138864
vn -0.2080906 -0.8968806 -0.3902608
vn -0.4377969 -0.366296 -0.8210732
vn -0.4420271 -0.8968776 -0.01492068
vn 0.2339244 -0.8968839 -0.3753382
vn -0.2339346 -0.8968801 0.3753407
vn -0.4921789 -0.3663189 0.7896647
vn 0.2080902 -0.8968809 0.3902603
vn 0.4377789 -0.3663569 0.8210556
vn 0.9299468 -0.3663525 0.03137997
vn 0.4420267 -0.8968778 0.01492036
vn 0.4921512 -0.3663233 -0.78968
vn -0.9289939 -0.3656936 -0.05690642
vn -0.197306 -0.8968814 -0.3958209
vn -0.415214 -0.3656923 -0.8329865
vn -0.4414418 -0.8968824 -0.02704096
vn -0.5137804 -0.3656946 0.7760782
vn 0.2441364 -0.8968828 -0.3687802
vn -0.244136 -0.896883 0.3687799
vn 0.4152137 -0.3656917 0.8329869
vn 0.4414419 -0.8968823 0.02704171
vn 0.5145409 -0.3647717 -0.7760086
vn 0.9295623 -0.3643443 0.05627682
vn 0.1973058 -0.8968808 0.3958222
vn 0.2647463 0.8747839 0.4057864
vn 0.9309311 0.36519 0.001901942
vn 0.485678 0.3461544 0.8026793
vn 0.4596525 0.8879534 0.01607434
vn 0.4695629 0.372496 -0.8004733
vn 0.02684814 0.9994929 0.01712352
vn 0.04333342 0.9191108 0.3916089
vn 0.2394545 0.8964801 -0.3728068
vn -0.4603414 0.3788165 -0.8028598
vn -0.2060431 0.9035258 -0.3757491
vn -0.924119 0.3821047 -0.0003355633
vn -0.2020829 0.8988403 0.3889069
vn 0.02481596 0.387502 0.9215348
vn -0.4587924 0.3836754 0.801438
vn -0.4283941 0.9035411 0.009588352
vn 0.2211356 0.8968817 -0.3830173
vn -0.4422703 0.8968818 0
vn -0.2211357 0.8968815 -0.3830178
vn -0.4640326 0.372421 -0.8037266
vn -0.9280637 0.3724215 0
vn -0.4640311 0.3724217 0.8037271
vn -0.2211336 0.8968819 0.3830179
vn 0.4422703 0.8968818 0
vn 0.2211337 0.8968818 0.3830181
vn 0.4640325 0.3724213 -0.8037265
vn 0.4640311 0.3724215 0.8037271
vn 0.9280637 0.3724215 0
vn 0.2211349 0.896882 -0.383017
vn -0.4422683 0.8968828 0
vn -0.221135 0.8968815 -0.3830181
vn -0.4640325 0.3724211 -0.8037266
vn -0.9280632 0.3724227 0
vn -0.4640313 0.3724222 0.8037268
vn -0.2211332 0.8968822 0.3830176
vn 0.4422683 0.8968828 0
vn 0.2211332 0.8968821 0.3830177
vn 0.4640326 0.3724219 -0.8037261
vn 0.4640313 0.372422 0.8037269
vn 0.9280632 0.3724227 0
vn 0.2211362 0.8968814 -0.3830176
vn -0.4422691 0.8968824 0
vn -0.2211362 0.8968815 -0.3830175
vn -0.4640327 0.3724208 -0.8037266
vn -0.9280634 0.3724224 0
vn -0.4640309 0.372421 0.8037276
vn -0.2211336 0.8968815 0.3830191
vn 0.4422691 0.8968824 0
vn 0.2211334 0.8968824 0.383017
vn 0.4640329 0.3724208 -0.8037266
vn 0.464031 0.3724225 0.8037268
vn 0.9280634 0.3724224 0
vn -0.2211342 0.896882 0.3830175
vn 0.4422683 0.8968827 0
vn 0.2211348 0.8968817 0.3830179
vn 0.464032 0.3724214 0.8037267
vn 0.9280632 0.3724229 0
vn 0.4640326 0.3724223 -0.803726
vn 0.2211351 0.8968822 -0.3830166
vn -0.221134 0.8968814 -0.383019
vn -0.4422699 0.896882 0
vn -0.4640312 0.3724216 0.8037271
vn -0.464031 0.372421 -0.8037274
vn -0.9280636 0.3724219 0
vn -0.442269 -0.8968825 0
vn -0.2211344 -0.8968819 -0.3830174
vn -0.4640318 -0.3724218 -0.8037267
vn -0.9280634 -0.3724223 0
vn 0.2211344 -0.8968818 -0.3830179
vn -0.4640312 -0.3724215 0.8037271
vn -0.221134 -0.8968818 0.383018
vn 0.442269 -0.8968825 0
vn 0.4640318 -0.3724215 -0.8037269
vn 0.9280634 -0.3724224 0
vn 0.4640312 -0.3724216 0.8037271
vn 0.2211339 -0.8968819 0.3830179
vn 0.2018949 0.8959271 0.3956679
vn 0.4247728 0.3811731 0.8211426
vn -0.5099584 0.381419 0.7710136
vn 0.9188972 0.3914051 0.04929326
vn -0.2446532 0.8981615 0.3653091
vn -0.9228083 0.3810536 -0.05677144
vn 0.4270982 0.9039789 0.0202308
vn 0.2444219 0.898574 -0.3644485
vn 0.5145662 0.3831364 -0.7670906
vn -0.411719 0.382499 -0.8271528
vn -0.438756 0.8982249 -0.02617751
vn -0.1965157 0.8992364 -0.3908393
vn -0.4422698 -0.8968821 0
vn -0.2211335 -0.8968824 -0.383017
vn -0.4640311 -0.3724225 -0.8037268
vn -0.9280636 -0.3724219 0
vn -0.464031 -0.3724213 0.8037274
vn -0.2211342 -0.8968817 0.3830181
vn 0.2211358 -0.8968812 -0.3830186
vn 0.2211351 -0.8968817 0.3830176
vn 0.4640324 -0.3724212 0.8037266
vn 0.4422683 -0.8968828 0
vn 0.4640328 -0.3724207 -0.8037266
vn 0.9280632 -0.3724229 0
vn -0.4422693 -0.8968824 0
vn -0.2211357 -0.8968815 -0.3830178
vn -0.4640326 -0.372421 -0.8037266
vn -0.9280634 -0.3724222 0
vn -0.4640325 -0.3724213 0.8037264
vn -0.2211353 -0.8968817 0.3830176
vn 0.2211354 -0.8968816 -0.3830178
vn 0.2211356 -0.8968816 0.3830175
vn 0.4640327 -0.3724213 0.8037263
vn 0.442269 -0.8968825 0
vn 0.4640325 -0.372421 -0.8037266
vn 0.9280634 -0.3724222 0
vn -0.4422661 -0.8968839 -1.044104E-05
vn -0.2211353 -0.8968818 -0.3830173
vn -0.4640327 -0.3724214 -0.8037263
vn -0.9280121 -0.37255 -0.0001246506
vn -0.4639309 -0.3726174 0.8036942
vn -0.2210299 -0.8969171 0.3829954
vn 0.2211353 -0.8968817 -0.3830176
vn 0.4640326 -0.3724213 0.8037264
vn 0.2211348 -0.8968816 0.3830181
vn 0.4422695 -0.8968822 0
vn 0.4640327 -0.3724213 -0.8037264
vn 0.9280636 -0.372422 0
vn -0.2189253 0.8990485 0.3791877
vn -0.4616205 0.3842257 0.7995481
vn -0.923239 0.3842263 0
vn 0.4616191 0.3842258 0.7995489
vn 0.2189244 0.8990487 0.379188
vn 0.9232392 0.3842257 0
vn 0.4378492 0.8990484 0
vn 0.4616188 0.384226 -0.799549
vn 0.2189234 0.8990487 -0.3791885
vn -0.4616206 0.3842251 -0.7995483
vn -0.4378478 0.8990492 0
vn -0.2189256 0.8990481 -0.3791886
vn 0.4724717 0.8813411 0.002894943
vn 0.9367777 0.3498312 0.008110361
vn 0.4684533 0.3680311 0.8031841
vn 0.4832554 0.3655186 -0.7955252
vn 0.2505042 0.8904519 0.3799252
vn -0.4542381 0.4019566 0.7950463
vn -0.1870985 0.9074457 0.3762134
vn -0.9085518 0.4176731 -0.00910372
vn 0.2575053 0.8891953 -0.3781835
vn -0.439388 0.3994389 -0.8046035
vn -0.4026898 0.9153214 -0.005271945
vn -0.180047 0.9061843 -0.3826396
vn -0.4422683 -0.8968827 0
vn -0.2211343 -0.8968821 -0.3830171
vn -0.4640323 -0.3724221 -0.8037263
vn -0.9280632 -0.3724227 0
vn 0.2211344 -0.8968817 -0.3830181
vn -0.4640327 -0.3724212 0.8037264
vn -0.2211354 -0.8968817 0.3830174
vn 0.4422683 -0.8968828 0
vn 0.4640321 -0.3724213 -0.8037266
vn 0.9280632 -0.3724228 0
vn 0.4640327 -0.3724212 0.8037264
vn 0.2211354 -0.8968818 0.3830174
vn -0.436956 -0.8993031 -0.01798223
vn -0.2211337 -0.8968821 -0.3830175
vn -0.4640305 -0.3724234 -0.8037267
vn -0.927228 -0.3736425 -0.02528867
vn -0.6163156 -0.6134202 0.4938326
vn -0.1223315 -0.9696074 0.2118879
vn -0.1209333 -0.6177533 0.7770174
vn 0.2211338 -0.896882 -0.3830178
vn 0.2335868 -0.8993854 0.3695173
vn 0.4848186 -0.373056 0.7910627
vn 0.4422573 -0.8968882 -3.960951E-05
vn 0.464031 -0.3724225 -0.8037269
vn 0.927869 -0.3729062 -0.0004757749
vn -0.4422691 -0.8968824 0
vn -0.2211353 -0.8968816 -0.3830177
vn -0.4640323 -0.3724211 -0.8037267
vn -0.9280634 -0.3724224 0
vn 0.2211354 -0.8968816 -0.3830176
vn -0.4640304 -0.3724228 0.803727
vn -0.2211324 -0.8968826 0.3830171
vn 0.4422691 -0.8968824 0
vn 0.4640322 -0.3724211 -0.8037267
vn 0.9280634 -0.3724224 0
vn 0.4640303 -0.3724214 0.8037277
vn 0.2211326 -0.8968816 0.3830193
vn -0.4422693 -0.8968824 0
vn -0.9280635 -0.372422 0
vn -0.4639609 -0.3723832 0.8037854
vn -0.4640331 -0.3724213 -0.8037261
vn -0.2211358 -0.8968816 -0.3830176
vn 0.2211347 -0.8968818 -0.3830177
vn -0.2211361 -0.8968814 0.3830177
vn 0.2209199 -0.8965841 0.3838377
vn 0.4644592 -0.3717913 0.8037717
vn 0.4422699 -0.896882 0
vn 0.4640319 -0.3724215 -0.8037268
vn 0.9280636 -0.3724217 0
vn -0.4657617 -0.3636863 -0.8067207
vn -0.9315209 -0.3636876 0
vn -0.4422688 -0.8968825 0
vn -0.2211357 -0.8968816 -0.3830177
vn -0.4657617 -0.3636866 0.8067206
vn 0.2211349 -0.8968816 -0.383018
vn -0.2211357 -0.8968816 0.3830175
vn 0.2211347 -0.8968818 0.3830178
vn 0.4657606 -0.3636866 0.8067213
vn 0.4422693 -0.8968824 0
vn 0.4657606 -0.3636863 -0.8067213
vn 0.9315211 -0.3636874 0
vt 0.8968352 0.9667428
vt 0.8968352 0.9812548
vt 0.8978114 0.9806067
vt 0.7202155 0.4403399
vt 0.7201475 0.4500069
vt 0.7992163 0.4500069
vt 0.7992843 0.4403399
vt 0.7202161 0.4207525
vt 0.7191971 0.4213309
vt 0.7191966 0.4397464
vt 0.7992849 0.4207525
vt 0.7201487 0.410832
vt 0.7992175 0.410832
vt 0.8002958 0.4213309
vt 0.8002952 0.4397464
vt 0.2954457 0.8073288
vt 0.287514 0.8073235
vt 0.287514 0.8777963
vt 0.2956371 0.8778018
vt 0.3119607 0.8075042
vt 0.3119607 0.8778018
vt 0.3201557 0.8074986
vt 0.3201557 0.8777963
vt 0.7202156 0.24712
vt 0.7201425 0.2574959
vt 0.8001121 0.2574959
vt 0.8001851 0.24712
vt 0.7202162 0.2260962
vt 0.7191972 0.2266746
vt 0.7191966 0.2465264
vt 0.8001857 0.2260962
vt 0.7201438 0.2154483
vt 0.8001134 0.2154483
vt 0.801196 0.2465264
vt 0.8011966 0.2266746
vt 0.7202119 0.5191659
vt 0.7202052 0.5289184
vt 0.7992747 0.5289184
vt 0.7992813 0.5191659
vt 0.7202119 0.499578
vt 0.7191965 0.5185775
vt 0.7191965 0.5001615
vt 0.7992813 0.499578
vt 0.7202052 0.4897425
vt 0.7992747 0.4897425
vt 0.504851 0.8073832
vt 0.4964597 0.8073235
vt 0.4964599 0.8744135
vt 0.5048512 0.8744726
vt 0.5218537 0.8077419
vt 0.5218536 0.8744731
vt 0.5304652 0.8081485
vt 0.5304649 0.8744145
vt 0.5054448 0.8754835
vt 0.5212753 0.8754839
vt 0.7202119 0.397023
vt 0.7202048 0.4074906
vt 0.800175 0.4074906
vt 0.8001821 0.397023
vt 0.7202119 0.3759987
vt 0.8001821 0.3759987
vt 0.7191966 0.3765822
vt 0.7191966 0.3964345
vt 0.7202048 0.3654419
vt 0.800175 0.3654419
vt 0.4927605 0.5878233
vt 0.4824977 0.5877511
vt 0.4824977 0.6908333
vt 0.4927605 0.6909056
vt 0.5135553 0.5878239
vt 0.5129769 0.5868049
vt 0.4933541 0.5868043
vt 0.5135553 0.6909062
vt 0.5240872 0.5877523
vt 0.5240872 0.6908346
vt 0.4933541 0.6919165
vt 0.5129769 0.6919171
vt 0.5663892 0.808887
vt 0.558145 0.8085504
vt 0.5581453 0.874817
vt 0.5666074 0.8748227
vt 0.5746314 0.8083509
vt 0.5669866 0.8077695
vt 0.5745317 0.8073234
vt 0.5840188 0.8735846
vt 0.5829299 0.8751203
vt 0.5836224 0.808089
vt 0.5845767 0.8751199
vt 0.5841857 0.8735002
vt 0.5921513 0.8077264
vt 0.5921511 0.874817
vt 0.3202637 0.7063093
vt 0.3118725 0.7062503
vt 0.3118725 0.7994068
vt 0.3202637 0.7994659
vt 0.3372662 0.7063099
vt 0.3366878 0.7052908
vt 0.3208572 0.7052903
vt 0.3372662 0.7994664
vt 0.3458773 0.7062513
vt 0.3458773 0.7994078
vt 0.3208572 0.8004768
vt 0.3366878 0.8004773
vt 0.6119215 0.1129488
vt 0.6119145 0.1233024
vt 0.7149976 0.1233023
vt 0.7150046 0.1129488
vt 0.6119216 0.0921535
vt 0.7150047 0.0921535
vt 0.6109062 0.09273701
vt 0.6109062 0.1123603
vt 0.6119146 0.08171181
vt 0.7149976 0.08171181
vt 0.5159405 0.7063057
vt 0.5074752 0.7062999
vt 0.5074752 0.7994572
vt 0.5159405 0.799463
vt 0.5329434 0.7063057
vt 0.5329434 0.799463
vt 0.5323599 0.7052904
vt 0.516529 0.7052903
vt 0.5414809 0.7063
vt 0.5414809 0.7994573
vt 0.8109691 0.1852419
vt 0.8108861 0.1937827
vt 0.871994 0.1946284
vt 0.8720827 0.1855092
vt 0.8109691 0.1682198
vt 0.8720827 0.1673343
vt 0.8108861 0.1597386
vt 0.871994 0.1582787
vt 0.8730919 0.184925
vt 0.8730919 0.167922
vt 0.8109016 0.2744116
vt 0.8720104 0.2758718
vt 0.8719938 0.2666765
vt 0.8108861 0.2657996
vt 0.8719938 0.248502
vt 0.8108861 0.2487779
vt 0.8720104 0.2395229
vt 0.8109016 0.2403683
vt 0.810886 0.235029
vt 0.8708627 0.2361815
vt 0.8709291 0.2267522
vt 0.8109484 0.2261685
vt 0.8109489 0.2082152
vt 0.8709297 0.2076464
vt 0.8108871 0.1991224
vt 0.8708639 0.1979699
vt 0.87194 0.2261586
vt 0.8719406 0.2082248
vt 0.810886 0.420202
vt 0.8708633 0.4213545
vt 0.8708698 0.4118418
vt 0.8108922 0.4112631
vt 0.8108922 0.3933094
vt 0.8708698 0.3927356
vt 0.8108861 0.3842945
vt 0.8708633 0.383142
vt 0.4704913 0.8083424
vt 0.4630785 0.8082902
vt 0.4630785 0.874916
vt 0.4704913 0.8749682
vt 0.4855112 0.8083429
vt 0.4849315 0.8073238
vt 0.4710853 0.8073235
vt 0.4855112 0.8749686
vt 0.4931183 0.8082911
vt 0.4931183 0.8749169
vt 0.4710848 0.8759791
vt 0.4849328 0.8759795
vt 0.6773635 0.7068141
vt 0.6695822 0.7066599
vt 0.6672824 0.7925649
vt 0.6756693 0.7927311
vt 0.6917142 0.7929429
vt 0.6910884 0.7939456
vt 0.6762149 0.7937493
vt 0.6922615 0.7063177
vt 0.6779418 0.7057472
vt 0.6916557 0.7052902
vt 0.6993723 0.7929884
vt 0.6993723 0.7059675
vt 0.7192014 0.0994482
vt 0.7191965 0.1072948
vt 0.8062105 0.1084523
vt 0.8062158 0.09999539
vt 0.7195937 0.0845615
vt 0.8062156 0.08395133
vt 0.7202815 0.07752099
vt 0.8062101 0.07636427
vt 0.5954928 0.8074145
vt 0.5954928 0.8741636
vt 0.6029304 0.8742159
vt 0.6029304 0.807375
vt 0.6180004 0.8742164
vt 0.6180004 0.8073754
vt 0.6035239 0.8752269
vt 0.617422 0.8752273
vt 0.6256329 0.8073235
vt 0.6256329 0.8741645
vt 0.7034171 0.8083388
vt 0.6959389 0.8083338
vt 0.6959389 0.8749601
vt 0.7034171 0.8749651
vt 0.7184381 0.8749651
vt 0.7184823 0.8083388
vt 0.7259794 0.8749601
vt 0.7259794 0.8083338
vt 0.7178977 0.8073235
vt 0.7040056 0.8073235
vt 0.4045375 0.8083425
vt 0.3970999 0.8082901
vt 0.3970999 0.8751311
vt 0.4045375 0.8751835
vt 0.4196075 0.8083429
vt 0.4190291 0.8073239
vt 0.405131 0.8073235
vt 0.4196075 0.8751839
vt 0.42724 0.808291
vt 0.42724 0.875132
vt 0.405131 0.8761944
vt 0.4190291 0.8761948
vt 0.6364775 0.8083389
vt 0.6289743 0.8083338
vt 0.6289743 0.8751753
vt 0.6364775 0.8751804
vt 0.651548 0.8083389
vt 0.651548 0.8751804
vt 0.6509645 0.8073235
vt 0.637066 0.8073235
vt 0.6591152 0.8084257
vt 0.6591152 0.8751753
vt 0.6699598 0.8083388
vt 0.6624566 0.8083337
vt 0.6624566 0.8751752
vt 0.6699598 0.8751804
vt 0.6850302 0.8083388
vt 0.6850302 0.8751804
vt 0.6844467 0.8073235
vt 0.6705483 0.8073235
vt 0.6925974 0.8083338
vt 0.6925974 0.8751753
vt 0.7202155 0.02728437
vt 0.7201565 0.03567565
vt 0.8064742 0.03567565
vt 0.8065333 0.02728436
vt 0.720216 0.01028193
vt 0.719197 0.01086032
vt 0.7191966 0.02669081
vt 0.8065338 0.01028192
vt 0.7201575 0.001670713
vt 0.8064752 0.001670709
vt 0.8075442 0.02669081
vt 0.8075446 0.01086032
vt 0.7191966 0.6786397
vt 0.7973671 0.6802436
vt 0.7974771 0.67098
vt 0.719299 0.6700076
vt 0.7193845 0.6545298
vt 0.7975707 0.6540306
vt 0.7975544 0.6463447
vt 0.7191966 0.6477247
vt 0.798578 0.654676
vt 0.7984909 0.6704552
vt 0.7193724 0.7076208
vt 0.7191965 0.7156456
vt 0.7975461 0.7174747
vt 0.7975516 0.7081394
vt 0.7975512 0.6911945
vt 0.719372 0.6918308
vt 0.7975453 0.683585
vt 0.7193664 0.6847399
vt 0.7202119 0.06455746
vt 0.7202061 0.07302286
vt 0.8065246 0.07302286
vt 0.8065303 0.06455746
vt 0.7202119 0.0475546
vt 0.8065304 0.0475546
vt 0.7191966 0.0481381
vt 0.7191966 0.06396899
vt 0.7202061 0.03901707
vt 0.8065246 0.03901707
vt 0.7949734 0.9235091
vt 0.8107116 0.9144318
vt 0.8097118 0.9138174
vt 0.7949884 0.9223094
vt 0.780265 0.9138052
vt 0.7792352 0.9144187
vt 0.780265 0.8968089
vt 0.7792352 0.896251
vt 0.7949884 0.888317
vt 0.8097118 0.8968211
vt 0.7949734 0.8871737
vt 0.8107116 0.8962641
vt 0.2215835 0.8083424
vt 0.2135289 0.8082857
vt 0.2135289 0.8785828
vt 0.2215835 0.8786395
vt 0.237904 0.8083429
vt 0.2373256 0.8073239
vt 0.2221771 0.8073234
vt 0.237904 0.87864
vt 0.2221771 0.8796504
vt 0.2373256 0.8796508
vt 0.2461697 0.8785838
vt 0.2461697 0.8081115
vt 0.9734434 0.5070924
vt 0.9728593 0.5081099
vt 0.9891798 0.5081099
vt 0.9885921 0.5070924
vt 0.9971457 0.4943135
vt 0.9959797 0.4942977
vt 0.9885896 0.4808604
vt 0.9891809 0.4798418
vt 0.9658694 0.4939729
vt 0.9728601 0.4798414
vt 0.9734408 0.4808597
vt 0.9646992 0.4939754
vt 0.908711 0.6558964
vt 0.9092987 0.654884
vt 0.8897108 0.654884
vt 0.890295 0.6558964
vt 0.8810869 0.6718451
vt 0.8799167 0.6718476
vt 0.8902948 0.6877937
vt 0.9179189 0.671845
vt 0.9087108 0.6877937
vt 0.8897106 0.6888112
vt 0.9190927 0.6718476
vt 0.9092986 0.6888112
vt 0.9179278 0.7091324
vt 0.9190915 0.7091135
vt 0.9093004 0.6921527
vt 0.9087225 0.6931865
vt 0.9087176 0.7250784
vt 0.8903071 0.6931865
vt 0.889713 0.6921527
vt 0.881097 0.7091324
vt 0.8799168 0.7091135
vt 0.8903022 0.7250784
vt 0.9092952 0.7260742
vt 0.8897079 0.7260742
vt 0.8908972 0.280288
vt 0.8903143 0.2792727
vt 0.8799167 0.297282
vt 0.8810856 0.2972823
vt 0.8908972 0.3142766
vt 0.8903143 0.3152913
vt 0.9105205 0.3142766
vt 0.9105205 0.280288
vt 0.9203321 0.2972823
vt 0.9111096 0.3152913
vt 0.9111096 0.2792727
vt 0.9215072 0.297282
vt 0.8909084 0.319631
vt 0.8903099 0.3186329
vt 0.8799167 0.3366397
vt 0.8811008 0.3366231
vt 0.8909152 0.3536152
vt 0.8903171 0.3546466
vt 0.9105303 0.319631
vt 0.9105371 0.3536152
vt 0.9111109 0.3546466
vt 0.9203447 0.3366231
vt 0.9111038 0.3186329
vt 0.9215043 0.3366397
vt 0.691222 0.9884865
vt 0.6901957 0.9890823
vt 0.7030943 0.9965279
vt 0.7030944 0.9953398
vt 0.7149658 0.9884858
vt 0.7159923 0.9890811
vt 0.7149657 0.9747779
vt 0.691222 0.9747772
vt 0.7159923 0.9741883
vt 0.7030914 0.9679242
vt 0.6901956 0.9741892
vt 0.7030928 0.9667429
vt 0.6268761 0.9747922
vt 0.6278913 0.9742082
vt 0.6148834 0.9667429
vt 0.6148846 0.9679108
vt 0.6028894 0.9748363
vt 0.6018754 0.9742529
vt 0.6028893 0.9886828
vt 0.6268761 0.9886842
vt 0.6148838 0.9956079
vt 0.6018754 0.9892733
vt 0.6278913 0.9892733
vt 0.6148834 0.9967834
vt 0.5145609 0.9748605
vt 0.5135462 0.9742776
vt 0.5135462 0.9893481
vt 0.5265973 0.9679114
vt 0.5265976 0.9667427
vt 0.539649 0.9742776
vt 0.5386338 0.9748605
vt 0.5145609 0.9887589
vt 0.5386338 0.9887589
vt 0.5265973 0.9957082
vt 0.5135462 0.9893481
vt 0.539649 0.989348
vt 0.5265976 0.9968832
vt 0.9646991 0.619543
vt 0.9733197 0.6066414
vt 0.9727218 0.6056436
vt 0.9658828 0.6195259
vt 0.9881986 0.6066414
vt 0.9733247 0.6324105
vt 0.9727272 0.6334423
vt 0.9882037 0.6324105
vt 0.9887781 0.6334423
vt 0.9968008 0.619543
vt 0.9956406 0.6195259
vt 0.9887727 0.6056436
vt 0.5595918 0.9541764
vt 0.5448757 0.9614982
vt 0.5448941 0.9626607
vt 0.5585585 0.9535997
vt 0.5595917 0.937203
vt 0.5311928 0.9535952
vt 0.5585585 0.9377982
vt 0.5448941 0.9287139
vt 0.5311928 0.9377936
vt 0.5301965 0.9541715
vt 0.5301965 0.9371981
vt 0.5448756 0.9298952
vt 0.347901 0.9615874
vt 0.333403 0.9542079
vt 0.3478845 0.9627572
vt 0.3344188 0.9536222
vt 0.3334184 0.9372036
vt 0.3481388 0.9457158
vt 0.3545104 0.9579421
vt 0.3344334 0.9377875
vt 0.3481517 0.9287139
vt 0.3481516 0.9298828
vt 0.3628694 0.9372277
vt 0.3618454 0.9536447
vt 0.3551108 0.9587855
vt 0.3628694 0.9542403
vt 0.3618594 0.9378124
vt 0.4137573 0.9615464
vt 0.4000473 0.9378
vt 0.4000473 0.9536309
vt 0.3990352 0.9542182
vt 0.3990352 0.9372153
vt 0.4137601 0.9287138
vt 0.4137573 0.9298845
vt 0.4274673 0.9536309
vt 0.4274673 0.9377999
vt 0.4137601 0.9627196
vt 0.428485 0.9372152
vt 0.428485 0.9542181
vt 0.4328412 0.9536289
vt 0.4465511 0.9298825
vt 0.4328412 0.937798
vt 0.4318264 0.9372151
vt 0.4465514 0.9287137
vt 0.4612764 0.937215
vt 0.4602611 0.937798
vt 0.4465511 0.9615443
vt 0.4602611 0.9536288
vt 0.4318264 0.954218
vt 0.4612764 0.9542179
vt 0.4465514 0.9627193
vt 0.891013 0.1169126
vt 0.8910131 0.08252729
vt 0.8810869 0.09971996
vt 0.8799167 0.0997225
vt 0.890429 0.08151487
vt 0.9114534 0.08151487
vt 0.9108655 0.08252729
vt 0.9108654 0.1169126
vt 0.9207917 0.0997199
vt 0.8904288 0.1179301
vt 0.9219654 0.09972245
vt 0.9114532 0.1179301
vt 0.4971507 0.9679134
vt 0.509187 0.9887611
vt 0.509187 0.9748626
vt 0.5102049 0.974278
vt 0.5102049 0.9893484
vt 0.4971535 0.9968837
vt 0.4971507 0.9957104
vt 0.4851143 0.9887612
vt 0.4851142 0.9748627
vt 0.4971535 0.9667428
vt 0.4841021 0.9893485
vt 0.4841021 0.974278
vt 0.5258378 0.9378206
vt 0.5258378 0.9536483
vt 0.5268551 0.9542136
vt 0.5268551 0.9372141
vt 0.5121278 0.9615615
vt 0.5121301 0.9287138
vt 0.5121278 0.9299061
vt 0.4984178 0.953647
vt 0.5121301 0.9627126
vt 0.4974052 0.9542122
vt 0.4974052 0.9372128
vt 0.4984178 0.9378193
vt 0.2118335 0.9898488
vt 0.2128664 0.9904684
vt 0.2128664 0.9746513
vt 0.1991963 0.9977027
vt 0.2118332 0.9752327
vt 0.1991683 0.9667428
vt 0.1991942 0.9965295
vt 0.1865096 0.9895563
vt 0.1854703 0.9901516
vt 0.1854702 0.9746513
vt 0.1991733 0.9679237
vt 0.1865091 0.9752353
vt 0.5975167 0.9748834
vt 0.5975167 0.9887791
vt 0.598534 0.9893445
vt 0.598534 0.9742771
vt 0.5854826 0.9667428
vt 0.5854802 0.9679351
vt 0.5854803 0.9957264
vt 0.5734439 0.9748824
vt 0.5724313 0.9742759
vt 0.5734439 0.9887781
vt 0.5854827 0.9968776
vt 0.5724313 0.9893433
vt 0.5560568 0.967927
vt 0.5680916 0.9748734
vt 0.5690898 0.9742749
vt 0.5560402 0.9667428
vt 0.5429905 0.9742801
vt 0.544022 0.9748781
vt 0.5680916 0.9887708
vt 0.544022 0.9887757
vt 0.5429905 0.9893495
vt 0.5560568 0.9957219
vt 0.5690898 0.9893443
vt 0.5560402 0.9968815
vt 0.6442556 0.967927
vt 0.656247 0.9748482
vt 0.6572452 0.9742497
vt 0.6442389 0.9667428
vt 0.6312327 0.9742543
vt 0.6322642 0.974853
vt 0.656247 0.9886956
vt 0.6312327 0.9892742
vt 0.6322642 0.9887003
vt 0.6442556 0.9956216
vt 0.6572452 0.989269
vt 0.6442389 0.9967812
vt 0.8767189 0.896743
vt 0.8777511 0.8961504
vt 0.8622026 0.8871735
vt 0.8777511 0.9141041
vt 0.8767189 0.9135053
vt 0.8622026 0.923081
vt 0.8622023 0.9218864
vt 0.8466541 0.9141042
vt 0.8476857 0.9135053
vt 0.8466541 0.8961504
vt 0.8622023 0.8883619
vt 0.8476857 0.8967431
vt 0.3809505 0.9615767
vt 0.3809523 0.9627345
vt 0.3956938 0.9542304
vt 0.3662108 0.9542283
vt 0.3946605 0.9536676
vt 0.3956938 0.93722
vt 0.3946605 0.9378475
vt 0.3809523 0.9287137
vt 0.3672405 0.9536656
vt 0.3662108 0.9372178
vt 0.3809505 0.9299365
vt 0.3672405 0.9378455
vt 0.4793574 0.929898
vt 0.4930656 0.9378101
vt 0.4940638 0.9372117
vt 0.4793408 0.9287138
vt 0.4930656 0.95364
vt 0.4646178 0.9372175
vt 0.4656492 0.9378156
vt 0.4793574 0.9615576
vt 0.4940638 0.9542134
vt 0.4793408 0.9627171
vt 0.4646178 0.9542193
vt 0.4656492 0.9536454
vt 0.2301186 0.9380952
vt 0.2301186 0.9539228
vt 0.2311359 0.9544882
vt 0.2311359 0.9374887
vt 0.2173597 0.9287139
vt 0.2164086 0.9301807
vt 0.2154609 0.9287139
vt 0.2164087 0.961836
vt 0.2026987 0.9380938
vt 0.2016838 0.9374902
vt 0.2026987 0.9539216
vt 0.216411 0.9629872
vt 0.2016861 0.9544868
vt 0.9108772 0.1223053
vt 0.9208004 0.139495
vt 0.9219641 0.139476
vt 0.9114551 0.1212715
vt 0.9108719 0.1566847
vt 0.8904313 0.1212715
vt 0.8910254 0.1223053
vt 0.8910202 0.1566847
vt 0.9114495 0.1576805
vt 0.8904258 0.1576805
vt 0.8799167 0.1394759
vt 0.8810969 0.1394949
vt 0.9886011 0.4177138
vt 0.989179 0.41668
vt 0.9728587 0.41668
vt 0.9973371 0.4308118
vt 0.9961734 0.4308308
vt 0.9885972 0.4439479
vt 0.9734527 0.4177138
vt 0.9658766 0.4308309
vt 0.9646992 0.4308167
vt 0.9734488 0.4439479
vt 0.9891748 0.4449436
vt 0.9728544 0.4449437
vt 0.8894657 0.8044708
vt 0.8799166 0.8210151
vt 0.8811008 0.8209985
vt 0.8900642 0.805469
vt 0.8894723 0.8375595
vt 0.9079972 0.805469
vt 0.8900704 0.836528
vt 0.9080034 0.836528
vt 0.9085772 0.8375595
vt 0.9169669 0.8209985
vt 0.9085706 0.8044708
vt 0.9181264 0.8210151
usemtl MV_RockHexic_Rocks
f 1/1/1 3/3/3 2/2/2
f 4/4/4 6/6/6 5/5/5
f 4/4/4 7/7/7 6/6/6
f 8/8/8 7/7/7 4/4/4
f 9/9/9 8/8/8 4/4/4
f 9/9/9 4/4/4 10/10/10
f 8/8/8 11/11/11 7/7/7
f 12/12/12 11/11/11 8/8/8
f 12/12/12 13/13/13 11/11/11
f 14/14/14 7/7/7 11/11/11
f 14/14/14 15/15/15 7/7/7
f 16/16/16 18/18/18 17/17/17
f 16/16/16 19/19/19 18/18/18
f 20/20/20 19/19/19 16/16/16
f 20/20/20 21/21/21 19/19/19
f 22/22/22 21/21/21 20/20/20
f 22/22/22 23/23/23 21/21/21
f 24/24/24 26/26/26 25/25/25
f 24/24/24 27/27/27 26/26/26
f 28/28/28 27/27/27 24/24/24
f 29/29/29 28/28/28 24/24/24
f 29/29/29 24/24/24 30/30/30
f 28/28/28 31/31/31 27/27/27
f 32/32/32 31/31/31 28/28/28
f 32/32/32 33/33/33 31/31/31
f 34/34/34 27/27/27 31/31/31
f 34/34/34 31/31/31 35/35/35
f 36/36/36 38/38/38 37/37/37
f 36/36/36 39/39/39 38/38/38
f 40/40/40 39/39/39 36/36/36
f 41/41/41 40/40/40 36/36/36
f 41/41/41 42/42/42 40/40/40
f 40/40/40 43/43/43 39/39/39
f 44/44/44 43/43/43 40/40/40
f 44/44/44 45/45/45 43/43/43
f 46/46/46 48/48/48 47/47/47
f 46/46/46 49/49/49 48/48/48
f 50/50/50 49/49/49 46/46/46
f 50/50/50 51/51/51 49/49/49
f 52/52/52 51/51/51 50/50/50
f 52/52/52 53/53/53 51/51/51
f 54/54/54 49/49/49 51/51/51
f 54/54/54 51/51/51 55/55/55
f 56/56/56 58/58/58 57/57/57
f 56/56/56 59/59/59 58/58/58
f 60/60/60 59/59/59 56/56/56
f 60/60/60 61/61/61 59/59/59
f 62/62/62 60/60/60 56/56/56
f 62/62/62 56/56/56 63/63/63
f 64/64/64 61/61/61 60/60/60
f 64/64/64 65/65/65 61/61/61
f 66/66/66 68/68/68 67/67/67
f 66/66/66 69/69/69 68/68/68
f 70/70/70 69/69/69 66/66/66
f 71/71/71 70/70/70 66/66/66
f 71/71/71 66/66/66 72/72/72
f 70/70/70 73/73/73 69/69/69
f 74/74/74 73/73/73 70/70/70
f 74/74/74 75/75/75 73/73/73
f 76/76/76 69/69/69 73/73/73
f 76/76/76 73/73/73 77/77/77
f 78/78/78 80/80/80 79/79/79
f 78/78/78 81/81/81 80/80/80
f 78/78/78 82/82/82 81/81/81
f 83/83/83 82/82/82 78/78/78
f 83/83/83 84/84/84 82/82/82
f 82/82/82 85/85/85 81/81/81
f 85/85/85 86/86/86 81/81/81
f 85/85/85 82/82/82 87/87/87
f 88/88/88 86/86/86 85/85/85
f 85/85/85 87/87/87 89/89/89
f 88/88/88 85/85/85 89/89/89
f 89/89/89 87/87/87 90/90/90
f 91/91/91 88/88/88 89/89/89
f 90/90/90 91/91/91 89/89/89
f 92/92/92 94/94/94 93/93/93
f 92/92/92 95/95/95 94/94/94
f 96/96/96 95/95/95 92/92/92
f 97/97/97 96/96/96 92/92/92
f 97/97/97 92/92/92 98/98/98
f 96/96/96 99/99/99 95/95/95
f 100/100/100 99/99/99 96/96/96
f 100/100/100 101/101/101 99/99/99
f 102/102/102 95/95/95 99/99/99
f 102/102/102 99/99/99 103/103/103
f 104/104/104 106/106/106 105/105/105
f 104/104/104 107/107/107 106/106/106
f 108/108/108 107/107/107 104/104/104
f 108/108/108 109/109/109 107/107/107
f 110/110/110 108/108/108 104/104/104
f 110/110/110 104/104/104 111/111/111
f 112/112/112 109/109/109 108/108/108
f 112/112/112 113/113/113 109/109/109
f 114/114/114 116/116/116 115/115/115
f 114/114/114 117/117/117 116/116/116
f 118/118/118 117/117/117 114/114/114
f 118/118/118 119/119/119 117/117/117
f 120/120/120 118/118/118 114/114/114
f 120/120/120 114/114/114 121/121/121
f 122/122/122 119/119/119 118/118/118
f 122/122/122 123/123/123 119/119/119
f 124/124/124 126/126/126 125/125/125
f 124/124/124 127/127/127 126/126/126
f 128/128/128 127/127/127 124/124/124
f 128/128/128 129/129/129 127/127/127
f 130/130/130 129/129/129 128/128/128
f 130/130/130 131/131/131 129/129/129
f 129/129/129 132/132/132 127/127/127
f 129/129/129 133/133/133 132/132/132
f 134/134/134 136/136/136 135/135/135
f 134/134/134 137/137/137 136/136/136
f 137/137/137 138/138/138 136/136/136
f 137/137/137 139/139/139 138/138/138
f 139/139/139 140/140/140 138/138/138
f 139/139/139 141/141/141 140/140/140
f 142/142/142 144/144/144 143/143/143
f 142/142/142 145/145/145 144/144/144
f 146/146/146 144/144/144 145/145/145
f 146/146/146 147/147/147 144/144/144
f 148/148/148 147/147/147 146/146/146
f 148/148/148 149/149/149 147/147/147
f 147/147/147 150/150/150 144/144/144
f 147/147/147 151/151/151 150/150/150
f 152/152/152 154/154/154 153/153/153
f 152/152/152 155/155/155 154/154/154
f 156/156/156 154/154/154 155/155/155
f 156/156/156 157/157/157 154/154/154
f 158/158/158 157/157/157 156/156/156
f 158/158/158 159/159/159 157/157/157
f 160/160/160 162/162/162 161/161/161
f 160/160/160 163/163/163 162/162/162
f 164/164/164 163/163/163 160/160/160
f 165/165/165 164/164/164 160/160/160
f 165/165/165 160/160/160 166/166/166
f 164/164/164 167/167/167 163/163/163
f 168/168/168 167/167/167 164/164/164
f 168/168/168 169/169/169 167/167/167
f 170/170/170 163/163/163 167/167/167
f 170/170/170 167/167/167 171/171/171
f 172/172/172 174/174/174 173/173/173
f 172/172/172 175/175/175 174/174/174
f 172/172/172 176/176/176 175/175/175
f 175/175/175 176/176/176 177/177/177
f 175/175/175 177/177/177 178/178/178
f 172/172/172 179/179/179 176/176/176
f 180/180/180 179/179/179 172/172/172
f 180/180/180 181/181/181 179/179/179
f 179/179/179 182/182/182 176/176/176
f 179/179/179 183/183/183 182/182/182
f 184/184/184 186/186/186 185/185/185
f 184/184/184 187/187/187 186/186/186
f 188/188/188 187/187/187 184/184/184
f 188/188/188 189/189/189 187/187/187
f 190/190/190 189/189/189 188/188/188
f 190/190/190 191/191/191 189/189/189
f 192/192/192 194/194/194 193/193/193
f 192/192/192 195/195/195 194/194/194
f 195/195/195 196/196/196 194/194/194
f 195/195/195 197/197/197 196/196/196
f 198/198/198 194/194/194 196/196/196
f 198/198/198 196/196/196 199/199/199
f 200/200/200 196/196/196 197/197/197
f 200/200/200 201/201/201 196/196/196
f 202/202/202 204/204/204 203/203/203
f 202/202/202 205/205/205 204/204/204
f 202/202/202 206/206/206 205/205/205
f 202/202/202 207/207/207 206/206/206
f 207/207/207 208/208/208 206/206/206
f 207/207/207 209/209/209 208/208/208
f 210/210/210 207/207/207 202/202/202
f 210/210/210 202/202/202 211/211/211
f 212/212/212 214/214/214 213/213/213
f 212/212/212 215/215/215 214/214/214
f 216/216/216 215/215/215 212/212/212
f 217/217/217 216/216/216 212/212/212
f 217/217/217 212/212/212 218/218/218
f 216/216/216 219/219/219 215/215/215
f 220/220/220 219/219/219 216/216/216
f 220/220/220 221/221/221 219/219/219
f 222/222/222 215/215/215 219/219/219
f 222/222/222 219/219/219 223/223/223
f 224/224/224 226/226/226 225/225/225
f 224/224/224 227/227/227 226/226/226
f 228/228/228 227/227/227 224/224/224
f 228/228/228 229/229/229 227/227/227
f 230/230/230 228/228/228 224/224/224
f 230/230/230 224/224/224 231/231/231
f 232/232/232 229/229/229 228/228/228
f 232/232/232 233/233/233 229/229/229
f 234/234/234 236/236/236 235/235/235
f 234/234/234 237/237/237 236/236/236
f 238/238/238 237/237/237 234/234/234
f 238/238/238 239/239/239 237/237/237
f 240/240/240 238/238/238 234/234/234
f 240/240/240 234/234/234 241/241/241
f 242/242/242 239/239/239 238/238/238
f 242/242/242 243/243/243 239/239/239
f 244/244/244 246/246/246 245/245/245
f 244/244/244 247/247/247 246/246/246
f 248/248/248 247/247/247 244/244/244
f 249/249/249 248/248/248 244/244/244
f 249/249/249 244/244/244 250/250/250
f 248/248/248 251/251/251 247/247/247
f 252/252/252 251/251/251 248/248/248
f 252/252/252 253/253/253 251/251/251
f 254/254/254 247/247/247 251/251/251
f 254/254/254 251/251/251 255/255/255
f 256/256/256 258/258/258 257/257/257
f 256/256/256 259/259/259 258/258/258
f 260/260/260 258/258/258 259/259/259
f 260/260/260 261/261/261 258/258/258
f 260/260/260 262/262/262 261/261/261
f 260/260/260 263/263/263 262/262/262
f 258/258/258 261/261/261 264/264/264
f 258/258/258 264/264/264 265/265/265
f 266/266/266 268/268/268 267/267/267
f 266/266/266 269/269/269 268/268/268
f 266/266/266 270/270/270 269/269/269
f 266/266/266 271/271/271 270/270/270
f 271/271/271 272/272/272 270/270/270
f 271/271/271 273/273/273 272/272/272
f 274/274/274 276/276/276 275/275/275
f 274/274/274 277/277/277 276/276/276
f 278/278/278 277/277/277 274/274/274
f 278/278/278 279/279/279 277/277/277
f 280/280/280 278/278/278 274/274/274
f 280/280/280 274/274/274 281/281/281
f 282/282/282 279/279/279 278/278/278
f 282/282/282 283/283/283 279/279/279
f 284/284/284 286/286/286 285/285/285
f 284/284/284 287/287/287 286/286/286
f 284/284/284 288/288/288 287/287/287
f 286/286/286 287/287/287 288/288/288
f 284/284/284 289/289/289 288/288/288
f 289/289/289 290/290/290 288/288/288
f 286/286/286 288/288/288 290/290/290
f 289/289/289 291/291/291 290/290/290
f 286/286/286 290/290/290 292/292/292
f 291/291/291 292/292/292 290/290/290
f 286/286/286 292/292/292 293/293/293
f 291/291/291 294/294/294 292/292/292
f 295/295/295 293/293/293 292/292/292
f 295/295/295 292/292/292 294/294/294
f 296/296/296 298/298/298 297/297/297
f 296/296/296 299/299/299 298/298/298
f 300/300/300 299/299/299 296/296/296
f 301/301/301 300/300/300 296/296/296
f 301/301/301 296/296/296 302/302/302
f 300/300/300 303/303/303 299/299/299
f 304/304/304 299/299/299 303/303/303
f 304/304/304 303/303/303 305/305/305
f 300/300/300 306/306/306 303/303/303
f 300/300/300 307/307/307 306/306/306
f 308/308/308 310/310/310 309/309/309
f 308/308/308 311/311/311 310/310/310
f 311/311/311 312/312/312 310/310/310
f 308/308/308 313/313/313 311/311/311
f 311/311/311 313/313/313 312/312/312
f 308/308/308 314/314/314 313/313/313
f 314/314/314 312/312/312 313/313/313
f 314/314/314 315/315/315 312/312/312
f 314/314/314 308/308/308 316/316/316
f 314/314/314 317/317/317 315/315/315
f 314/314/314 316/316/316 318/318/318
f 314/314/314 318/318/318 317/317/317
f 318/318/318 316/316/316 319/319/319
f 318/318/318 319/319/319 317/317/317
f 320/320/320 322/322/322 321/321/321
f 320/320/320 323/323/323 322/322/322
f 324/324/324 322/322/322 323/323/323
f 324/324/324 325/325/325 322/322/322
f 326/326/326 324/324/324 323/323/323
f 326/326/326 323/323/323 320/320/320
f 326/326/326 320/320/320 327/327/327
f 326/326/326 327/327/327 328/328/328
f 328/328/328 329/329/329 326/326/326
f 328/328/328 327/327/327 330/330/330
f 328/328/328 331/331/331 329/329/329
f 328/328/328 330/330/330 331/331/331
f 332/332/332 334/334/334 333/333/333
f 332/332/332 335/335/335 334/334/334
f 336/336/336 335/335/335 332/332/332
f 337/337/337 334/334/334 335/335/335
f 336/336/336 337/337/337 335/335/335
f 337/337/337 338/338/338 334/334/334
f 339/339/339 338/338/338 337/337/337
f 336/336/336 339/339/339 337/337/337
f 339/339/339 340/340/340 338/338/338
f 336/336/336 341/341/341 339/339/339
f 341/341/341 340/340/340 339/339/339
f 341/341/341 336/336/336 342/342/342
f 341/341/341 343/343/343 340/340/340
f 341/341/341 342/342/342 343/343/343
f 344/344/344 346/346/346 345/345/345
f 344/344/344 347/347/347 346/346/346
f 348/348/348 346/346/346 347/347/347
f 344/344/344 348/348/348 347/347/347
f 348/348/348 349/349/349 346/346/346
f 344/344/344 350/350/350 348/348/348
f 350/350/350 344/344/344 351/351/351
f 350/350/350 351/351/351 352/352/352
f 352/352/352 353/353/353 350/350/350
f 352/352/352 351/351/351 354/354/354
f 352/352/352 355/355/355 353/353/353
f 352/352/352 354/354/354 355/355/355
f 356/356/356 358/358/358 357/357/357
f 356/356/356 359/359/359 358/358/358
f 356/356/356 360/360/360 359/359/359
f 360/360/360 358/358/358 359/359/359
f 360/360/360 361/361/361 358/358/358
f 356/356/356 362/362/362 360/360/360
f 363/363/363 361/361/361 360/360/360
f 362/362/362 363/363/363 360/360/360
f 363/363/363 364/364/364 361/361/361
f 362/362/362 365/365/365 363/363/363
f 365/365/365 364/364/364 363/363/363
f 365/365/365 362/362/362 366/366/366
f 365/365/365 367/367/367 364/364/364
f 365/365/365 366/366/366 367/367/367
f 368/368/368 370/370/370 369/369/369
f 368/368/368 371/371/371 370/370/370
f 372/372/372 370/370/370 371/371/371
f 368/368/368 372/372/372 371/371/371
f 372/372/372 373/373/373 370/370/370
f 368/368/368 374/374/374 372/372/372
f 374/374/374 373/373/373 372/372/372
f 374/374/374 368/368/368 375/375/375
f 374/374/374 376/376/376 373/373/373
f 374/374/374 375/375/375 377/377/377
f 377/377/377 376/376/376 374/374/374
f 377/377/377 375/375/375 378/378/378
f 377/377/377 379/379/379 376/376/376
f 377/377/377 378/378/378 379/379/379
f 380/380/380 382/382/382 381/381/381
f 380/380/380 383/383/383 382/382/382
f 384/384/384 382/382/382 383/383/383
f 380/380/380 384/384/384 383/383/383
f 384/384/384 385/385/385 382/382/382
f 380/380/380 386/386/386 384/384/384
f 386/386/386 380/380/380 387/387/387
f 386/386/386 387/387/387 388/388/388
f 388/388/388 389/389/389 386/386/386
f 388/388/388 387/387/387 390/390/390
f 388/388/388 391/391/391 389/389/389
f 388/388/388 390/390/390 391/391/391
f 392/392/392 394/394/394 393/393/393
f 395/395/395 392/392/392 393/393/393
f 395/395/395 393/393/393 396/396/396
f 395/395/395 396/396/396 397/397/397
f 395/395/395 397/397/397 398/398/398
f 398/398/398 392/392/392 395/395/395
f 398/398/398 399/399/399 392/392/392
f 399/399/399 398/398/398 400/400/400
f 399/399/399 400/400/400 401/401/401
f 401/401/401 402/402/402 399/399/399
f 401/401/401 400/400/400 403/403/403
f 401/401/401 404/404/404 402/402/402
f 401/401/401 403/403/403 404/404/404
f 405/405/405 407/407/407 406/406/406
f 405/405/405 406/406/406 408/408/408
f 409/409/409 408/408/408 406/406/406
f 405/405/405 408/408/408 410/410/410
f 409/409/409 410/410/410 408/408/408
f 405/405/405 410/410/410 411/411/411
f 411/411/411 410/410/410 412/412/412
f 409/409/409 412/412/412 410/410/410
f 411/411/411 412/412/412 413/413/413
f 414/414/414 413/413/413 412/412/412
f 409/409/409 415/415/415 412/412/412
f 414/414/414 412/412/412 415/415/415
f 416/416/416 415/415/415 409/409/409
f 416/416/416 414/414/414 415/415/415
f 417/417/417 419/419/419 418/418/418
f 417/417/417 418/418/418 420/420/420
f 421/421/421 417/417/417 420/420/420
f 422/422/422 420/420/420 418/418/418
f 421/421/421 420/420/420 423/423/423
f 422/422/422 423/423/423 420/420/420
f 424/424/424 421/421/421 423/423/423
f 423/423/423 422/422/422 425/425/425
f 426/426/426 425/425/425 422/422/422
f 426/426/426 427/427/427 425/425/425
f 424/424/424 423/423/423 428/428/428
f 423/423/423 425/425/425 428/428/428
f 427/427/427 428/428/428 425/425/425
f 427/427/427 424/424/424 428/428/428
f 429/429/429 431/431/431 430/430/430
f 429/429/429 430/430/430 432/432/432
f 432/432/432 430/430/430 433/433/433
f 434/434/434 429/429/429 432/432/432
f 434/434/434 435/435/435 429/429/429
f 432/432/432 433/433/433 436/436/436
f 436/436/436 434/434/434 432/432/432
f 436/436/436 433/433/433 437/437/437
f 436/436/436 437/437/437 438/438/438
f 434/434/434 436/436/436 438/438/438
f 438/438/438 437/437/437 439/439/439
f 435/435/435 434/434/434 440/440/440
f 440/440/440 441/441/441 435/435/435
f 440/440/440 442/442/442 441/441/441
f 440/440/440 439/439/439 442/442/442
f 434/434/434 438/438/438 443/443/443
f 443/443/443 440/440/440 434/434/434
f 438/438/438 439/439/439 443/443/443
f 440/440/440 443/443/443 439/439/439
f 444/444/444 446/446/446 445/445/445
f 445/445/445 446/446/446 447/447/447
f 445/445/445 447/447/447 448/448/448
f 445/445/445 448/448/448 449/449/449
f 445/445/445 449/449/449 450/450/450
f 444/444/444 445/445/445 450/450/450
f 450/450/450 451/451/451 444/444/444
f 450/450/450 452/452/452 451/451/451
f 451/451/451 453/453/453 444/444/444
f 451/451/451 452/452/452 454/454/454
f 451/451/451 455/455/455 453/453/453
f 451/451/451 454/454/454 455/455/455
f 456/456/456 458/458/458 457/457/457
f 457/457/457 458/458/458 459/459/459
f 457/457/457 459/459/459 460/460/460
f 457/457/457 460/460/460 461/461/461
f 457/457/457 461/461/461 462/462/462
f 456/456/456 457/457/457 462/462/462
f 462/462/462 463/463/463 456/456/456
f 462/462/462 464/464/464 463/463/463
f 463/463/463 465/465/465 456/456/456
f 463/463/463 464/464/464 466/466/466
f 463/463/463 467/467/467 465/465/465
f 463/463/463 466/466/466 467/467/467
f 468/468/468 470/470/470 469/469/469
f 469/469/469 470/470/470 471/471/471
f 469/469/469 471/471/471 472/472/472
f 469/469/469 472/472/472 473/473/473
f 469/469/469 473/473/473 474/474/474
f 468/468/468 469/469/469 474/474/474
f 474/474/474 475/475/475 468/468/468
f 474/474/474 476/476/476 475/475/475
f 475/475/475 477/477/477 468/468/468
f 475/475/475 476/476/476 478/478/478
f 475/475/475 479/479/479 477/477/477
f 475/475/475 478/478/478 479/479/479
f 480/480/480 482/482/482 481/481/481
f 481/481/481 482/482/482 483/483/483
f 481/481/481 483/483/483 484/484/484
f 481/481/481 484/484/484 485/485/485
f 481/481/481 485/485/485 486/486/486
f 480/480/480 481/481/481 486/486/486
f 480/480/480 486/486/486 487/487/487
f 480/480/480 487/487/487 488/488/488
f 488/488/488 489/489/489 480/480/480
f 488/488/488 487/487/487 490/490/490
f 488/488/488 491/491/491 489/489/489
f 488/488/488 490/490/490 491/491/491
f 492/492/492 494/494/494 493/493/493
f 492/492/492 495/495/495 494/494/494
f 496/496/496 492/492/492 493/493/493
f 492/492/492 497/497/497 495/495/495
f 496/496/496 498/498/498 492/492/492
f 492/492/492 498/498/498 497/497/497
f 498/498/498 496/496/496 499/499/499
f 499/499/499 496/496/496 500/500/500
f 499/499/499 500/500/500 501/501/501
f 499/499/499 501/501/501 502/502/502
f 503/503/503 497/497/497 498/498/498
f 498/498/498 499/499/499 503/503/503
f 499/499/499 502/502/502 503/503/503
f 503/503/503 502/502/502 497/497/497
f 504/504/504 506/506/506 505/505/505
f 504/504/504 505/505/505 507/507/507
f 504/504/504 508/508/508 506/506/506
f 508/508/508 509/509/509 506/506/506
f 504/504/504 507/507/507 510/510/510
f 508/508/508 504/504/504 510/510/510
f 511/511/511 510/510/510 507/507/507
f 508/508/508 510/510/510 511/511/511
f 511/511/511 507/507/507 512/512/512
f 511/511/511 512/512/512 513/513/513
f 508/508/508 514/514/514 509/509/509
f 511/511/511 514/514/514 508/508/508
f 511/511/511 513/513/513 515/515/515
f 515/515/515 513/513/513 509/509/509
f 515/515/515 509/509/509 514/514/514
f 511/511/511 515/515/515 514/514/514
f 516/516/516 518/518/518 517/517/517
f 516/516/516 519/519/519 518/518/518
f 516/516/516 520/520/520 519/519/519
f 517/517/517 521/521/521 516/516/516
f 516/516/516 521/521/521 520/520/520
f 517/517/517 522/522/522 521/521/521
f 523/523/523 520/520/520 521/521/521
f 523/523/523 524/524/524 520/520/520
f 521/521/521 522/522/522 525/525/525
f 521/521/521 525/525/525 523/523/523
f 525/525/525 524/524/524 523/523/523
f 525/525/525 522/522/522 526/526/526
f 525/525/525 527/527/527 524/524/524
f 525/525/525 526/526/526 527/527/527
f 528/528/528 530/530/530 529/529/529
f 528/528/528 531/531/531 530/530/530
f 528/528/528 532/532/532 531/531/531
f 529/529/529 533/533/533 528/528/528
f 528/528/528 533/533/533 532/532/532
f 529/529/529 534/534/534 533/533/533
f 535/535/535 532/532/532 533/533/533
f 534/534/534 535/535/535 533/533/533
f 535/535/535 536/536/536 532/532/532
f 534/534/534 537/537/537 535/535/535
f 537/537/537 536/536/536 535/535/535
f 537/537/537 534/534/534 538/538/538
f 537/537/537 539/539/539 536/536/536
f 537/537/537 538/538/538 539/539/539
f 540/540/540 542/542/542 541/541/541
f 540/540/540 543/543/543 542/542/542
f 540/540/540 544/544/544 543/543/543
f 541/541/541 545/545/545 540/540/540
f 540/540/540 545/545/545 544/544/544
f 541/541/541 546/546/546 545/545/545
f 545/545/545 547/547/547 544/544/544
f 546/546/546 548/548/548 545/545/545
f 545/545/545 548/548/548 547/547/547
f 546/546/546 549/549/549 548/548/548
f 549/549/549 547/547/547 548/548/548
f 549/549/549 546/546/546 550/550/550
f 549/549/549 551/551/551 547/547/547
f 549/549/549 550/550/550 551/551/551
f 552/552/552 554/554/554 553/553/553
f 552/552/552 553/553/553 555/555/555
f 552/552/552 555/555/555 556/556/556
f 556/556/556 555/555/555 557/557/557
f 556/556/556 557/557/557 558/558/558
f 558/558/558 557/557/557 559/559/559
f 560/560/560 556/556/556 558/558/558
f 558/558/558 559/559/559 560/560/560
f 560/560/560 552/552/552 556/556/556
f 560/560/560 559/559/559 561/561/561
f 552/552/552 562/562/562 554/554/554
f 560/560/560 562/562/562 552/552/552
f 560/560/560 561/561/561 563/563/563
f 563/563/563 561/561/561 554/554/554
f 563/563/563 554/554/554 562/562/562
f 560/560/560 563/563/563 562/562/562
f 564/564/564 566/566/566 565/565/565
f 564/564/564 565/565/565 567/567/567
f 564/564/564 568/568/568 566/566/566
f 568/568/568 569/569/569 566/566/566
f 568/568/568 570/570/570 569/569/569
f 570/570/570 568/568/568 564/564/564
f 570/570/570 571/571/571 569/569/569
f 564/564/564 567/567/567 572/572/572
f 570/570/570 564/564/564 572/572/572
f 572/572/572 567/567/567 573/573/573
f 570/570/570 574/574/574 571/571/571
f 572/572/572 574/574/574 570/570/570
f 572/572/572 573/573/573 575/575/575
f 575/575/575 573/573/573 571/571/571
f 575/575/575 571/571/571 574/574/574
f 572/572/572 575/575/575 574/574/574
f 576/576/576 578/578/578 577/577/577
f 576/576/576 579/579/579 578/578/578
f 580/580/580 576/576/576 577/577/577
f 576/576/576 581/581/581 579/579/579
f 580/580/580 582/582/582 576/576/576
f 576/576/576 582/582/582 581/581/581
f 582/582/582 580/580/580 583/583/583
f 583/583/583 580/580/580 584/584/584
f 583/583/583 584/584/584 585/585/585
f 583/583/583 585/585/585 586/586/586
f 587/587/587 581/581/581 582/582/582
f 582/582/582 583/583/583 587/587/587
f 583/583/583 586/586/586 587/587/587
f 587/587/587 586/586/586 581/581/581
f 588/588/588 590/590/590 589/589/589
f 588/588/588 591/591/591 590/590/590
f 588/588/588 592/592/592 591/591/591
f 589/589/589 593/593/593 588/588/588
f 588/588/588 593/593/593 592/592/592
f 592/592/592 593/593/593 594/594/594
f 589/589/589 595/595/595 593/593/593
f 596/596/596 594/594/594 593/593/593
f 595/595/595 596/596/596 593/593/593
f 596/596/596 597/597/597 594/594/594
f 595/595/595 598/598/598 596/596/596
f 598/598/598 597/597/597 596/596/596
f 598/598/598 595/595/595 599/599/599
f 598/598/598 600/600/600 597/597/597
f 598/598/598 599/599/599 600/600/600
f 601/601/601 603/603/603 602/602/602
f 601/601/601 604/604/604 603/603/603
f 605/605/605 601/601/601 602/602/602
f 601/601/601 606/606/606 604/604/604
f 605/605/605 607/607/607 601/601/601
f 601/601/601 607/607/607 606/606/606
f 607/607/607 605/605/605 608/608/608
f 608/608/608 605/605/605 609/609/609
f 608/608/608 609/609/609 610/610/610
f 608/608/608 610/610/610 611/611/611
f 612/612/612 606/606/606 607/607/607
f 607/607/607 608/608/608 612/612/612
f 608/608/608 611/611/611 612/612/612
f 612/612/612 611/611/611 606/606/606
f 613/613/613 615/615/615 614/614/614
f 613/613/613 614/614/614 616/616/616
f 613/613/613 616/616/616 617/617/617
f 618/618/618 613/613/613 617/617/617
f 613/613/613 619/619/619 615/615/615
f 618/618/618 619/619/619 613/613/613
f 620/620/620 615/615/615 619/619/619
f 618/618/618 620/620/620 619/619/619
f 620/620/620 621/621/621 615/615/615
f 618/618/618 622/622/622 620/620/620
f 622/622/622 621/621/621 620/620/620
f 622/622/622 618/618/618 623/623/623
f 622/622/622 624/624/624 621/621/621
f 622/622/622 623/623/623 624/624/624
f 625/625/625 627/627/627 626/626/626
f 625/625/625 628/628/628 627/627/627
f 629/629/629 626/626/626 627/627/627
f 630/630/630 627/627/627 628/628/628
f 629/629/629 627/627/627 631/631/631
f 630/630/630 631/631/631 627/627/627
f 629/629/629 631/631/631 632/632/632
f 630/630/630 632/632/632 631/631/631
f 629/629/629 632/632/632 633/633/633
f 630/630/630 634/634/634 632/632/632
f 633/633/633 632/632/632 634/634/634
f 635/635/635 634/634/634 630/630/630
f 633/633/633 634/634/634 636/636/636
f 635/635/635 636/636/636 634/634/634
