mtllib P_RockHexic_Spire01.mtl
v 6.097537 8.030453 -1.349919 0 0 0
v 4.793594 8.447094 -3.601437 0 0 0
v 4.863112 -12.59286 -3.503032 0 0 0
v 6.167039 -12.59286 -1.251537 0 0 0
v 4.799608 7.613855 0.9051574 0 0.8235294 0
v 4.869097 -12.59286 1.003523 0 0 0
v 2.267227 -12.59286 1.007089 0 0 0
v 2.197739 7.613854 0.9087233 0 0.8352941 0
v 4.729172 7.756728 0.7866639 0 0.8627451 0
v 5.959139 8.151529 -1.350308 0 0 0
v 1.699984 14.31234 0.6170657 0 0.6078432 0
v 0.7039789 14.70637 -1.102699 0 0.7686275 0
v 0.8775368 -17.3004 -1.118613 0 0.7294118 0
v 1.873526 -17.3004 0.6011531 0 0.2745098 0
v 0.8822323 -17.3004 2.323572 0 0.6 0
v 0.7086902 14.31234 2.339483 0 0.4 0
v -1.105051 -17.3004 2.326224 0 0.3607843 0
v -1.278609 14.70637 2.342138 0 0.6039216 0
v 1.562938 14.46071 0.6195876 0 0.8 0
v 0.6416422 14.46071 2.220381 0 0.7176471 0
v 0.8221082 18.91283 -1.290389 0 0.254902 0
v -0.1256703 19.24084 -2.926896 0 0.5529412 0
v -0.03154282 -12.42428 -2.935526 0 0.6 0
v 0.9172027 -12.42428 -1.299108 0 0.7686275 0
v -0.02420324 -12.42428 0.3397574 0 0 0
v -0.1211896 18.91282 0.34865 0 0.4784314 0
v -1.918153 -12.42428 0.342553 0 0.09019608 0
v -2.012284 19.24084 0.3511835 0 0.2705882 0
v 0.6848652 19.0576 -1.288414 0 0.3960784 0
v -0.1886442 19.0576 0.229352 0 0.4784314 0
v -0.6490288 13.21231 0.8490064 0 0 0
v -1.640669 13.64578 -0.8632097 0 0.0627451 0
v -1.80966 -15.32017 -0.8477153 0 0.8823529 0
v -0.8179988 -15.32017 0.8644981 0 0 0
v -1.635955 13.21231 2.56384 0 0 0
v -1.804929 -15.32017 2.579331 0 0 0
v -3.783517 -15.32017 2.581951 0 0 0
v -3.614526 13.64578 2.566456 0 0 0
v -1.700967 13.36352 2.444764 0 0.1254902 0
v -0.784227 13.36352 0.8518834 0 0.0627451 0
v -2.429533 -6.622167 -2.173609 0 0.6 0
v -2.490287 6.24493 -2.259603 0 0.6156863 0
v -4.780228 5.845339 -2.25644 0 0 0
v -4.719514 -6.622168 -2.170496 0 0.3686275 0
v -5.922569 5.84534 -0.271704 0 0.6 0
v -5.786301 5.990138 -0.2745009 0 0.6 0
v -4.713766 5.990138 -2.137954 0 0 0
v -5.861855 -6.622168 -0.1857605 0 0 0
v -4.649485 -6.742166 -2.049764 0 0.3607843 0
v -5.722706 -6.742166 -0.18512 0 0 0
v -4.714215 -6.622168 1.795863 0 0 0
v -4.77497 6.244928 1.709868 0 0 0
v 4.428586 7.016798 1.804969 0 0.8392157 0
v 3.209369 7.016798 -0.3099124 0 0.4941176 0
v 3.171071 -8.53707 -0.2697521 0 0 0
v 4.388659 -8.53707 1.844051 0 0 0
v 3.206669 6.637626 3.918234 0 0.2235294 0
v 3.1661 -8.53707 3.957142 0 0 0
v 0.7655434 6.258498 3.916628 0 0.8941177 0
v 0.7273246 -8.53707 3.956774 0 0 0
v 3.171071 -8.53707 -0.2697521 0 0 0
v 3.209369 7.016798 -0.3099124 0 0.4941176 0
v 0.7682132 6.637626 -0.311521 0 0.6313726 0
v 0.7284258 -8.53707 -0.2702805 0 0 0
v -0.4536769 6.258497 1.801746 0 0.5294118 0
v -0.316168 6.400664 1.802916 0 0.4313726 0
v 0.8374662 6.75863 -0.1922734 0 0.9647059 0
v -0.4907828 -8.53707 1.842848 0 0 0
v 0.7973388 -8.65707 -0.1498998 0 0 0
v -0.3525873 -8.65707 1.843181 0 0 0
v 0.7655434 6.258498 3.916628 0 0.8941177 0
v 0.7273246 -8.53707 3.956774 0 0 0
v -0.7766204 -6.169195 2.01494 0 0 0
v -0.7217681 5.841346 2.035955 0 0.6 0
v -2.788207 5.535314 1.814332 0 0.0627451 0
v -2.842038 -6.169195 1.795333 0 0 0
v -4.013405 5.229319 3.493122 0 0.0627451 0
v -3.876422 5.370317 3.509249 0 0.1254902 0
v -2.731761 5.656218 1.940788 0 0.6117647 0
v -4.066595 -6.169195 3.473068 0 0 0
v -2.786462 -6.289194 1.921782 0 0 0
v -3.929349 -6.289194 3.487597 0 0 0
v -3.224813 -6.169194 5.37142 0 0 0
v -3.172154 5.229318 5.393545 0 0 0
v 1.414987 -15.66336 1.444409 0 0 0
v 1.262698 13.70381 1.458373 0 0.8588235 0
v 3.007844 13.07482 1.456041 0 0.09019608 0
v 3.160106 -15.66336 1.442081 0 0 0
v 3.878344 13.07482 -0.05649295 0 0 0
v 4.030607 -15.66336 -0.07045438 0 0 0
v 3.155989 -15.66336 -1.58066 0 0 0
v 3.0037 13.70381 -1.566697 0 0.6 0
v 3.745741 13.24583 -0.0492763 0 0 0
v 2.94709 13.24583 1.338416 0 0.1647059 0
v 2.935222 13.82882 -1.44878 0 0.6 0
v -0.8219283 4.161802 -1.554877 0 0.2705882 0
v -0.5232117 -11.86672 -1.297717 0 0.5254902 0
v -1.470171 -11.90958 -2.926564 0 0.1411765 0
v -1.768888 4.118948 -3.183723 0 0.7686275 0
v -0.8315621 4.109894 -4.818669 0 0.6 0
v -0.7641731 4.233008 -4.700834 0 0.6039216 0
v -1.632582 4.241397 -3.186096 0 0.8078431 0
v -0.5328454 -11.91863 -4.561511 0 0 0
v -1.329394 -12.02706 -2.925088 0 0.2392157 0
v -0.460985 -12.03544 -4.439826 0 0 0
v 1.052723 4.143696 -4.824769 0 0.772549 0
v 1.351439 -11.88483 -4.56761 0 0 0
v 4.793594 8.447094 -3.601437 0 0 0
v 6.097537 8.030453 -1.349919 0 0 0
v 5.959139 8.151529 -1.350308 0 0 0
v 4.723488 8.54633 -3.483907 0 0 0
v 2.191726 8.447094 -3.597871 0 0.6 0
v 2.261346 8.54633 -3.480533 0 0.6 0
v 1.031382 8.151529 -1.343555 0 0.6 0
v 0.8937995 8.030454 -1.342788 0 0.6078432 0
v 4.729172 7.756728 0.7866639 0 0.8627451 0
v 2.267029 7.756729 0.7900384 0 0.7921569 0
v 2.197739 7.613854 0.9087233 0 0.8352941 0
v 4.799608 7.613855 0.9051574 0 0.8235294 0
v 4.863112 -12.59286 -3.503032 0 0 0
v 2.261245 -12.59286 -3.499463 0 0 0
v 2.331086 -12.71286 -3.378998 0 0 0
v 4.794387 -12.71286 -3.382376 0 0 0
v 6.167039 -12.59286 -1.251537 0 0 0
v 2.336762 -12.71286 0.8875789 0 0 0
v 1.10227 -12.71286 -1.24402 0 0.7686275 0
v 6.028879 -12.71286 -1.250778 0 0 0
v 4.869097 -12.59286 1.003523 0 0 0
v 4.800065 -12.71286 0.884203 0 0 0
v 2.267227 -12.59286 1.007089 0 0 0
v 0.963301 -12.59286 -1.244406 0 0.7686275 0
v 0.963301 -12.59286 -1.244406 0 0.7686275 0
v 1.10227 -12.71286 -1.24402 0 0.7686275 0
v 2.331086 -12.71286 -3.378998 0 0 0
v 2.261245 -12.59286 -3.499463 0 0 0
v 0.8937995 8.030454 -1.342788 0 0.6078432 0
v 2.197739 7.613854 0.9087233 0 0.8352941 0
v 2.267227 -12.59286 1.007089 0 0 0
v 2.191726 8.447094 -3.597871 0 0.6 0
v 4.793594 8.447094 -3.601437 0 0 0
v 4.863112 -12.59286 -3.503032 0 0 0
v 0.7039789 14.70637 -1.102699 0 0.7686275 0
v 1.699984 14.31234 0.6170657 0 0.6078432 0
v 1.562938 14.46071 0.6195876 0 0.8 0
v 0.6346338 14.82799 -0.9832939 0 0.7686275 0
v -1.28332 15.10047 -1.100044 0 0 0
v -1.210583 14.82799 2.222855 0 0.6156863 0
v 0.6416422 14.46071 2.220381 0 0.7176471 0
v -1.217591 15.19527 -0.9808207 0 0.0627451 0
v -2.274615 15.10047 0.6223741 0 0.8588235 0
v -2.138888 15.19527 0.6199732 0 0.8588235 0
v -1.278609 14.70637 2.342138 0 0.6039216 0
v 0.7086902 14.31234 2.339483 0 0.4 0
v 0.8775368 -17.3004 -1.118613 0 0.7294118 0
v -1.109746 -17.3004 -1.11596 0 0.9254902 0
v -1.039659 -17.42039 -0.996111 0 0.9294118 0
v 0.809067 -17.42039 -0.9985796 0 0.772549 0
v 1.873526 -17.3004 0.6011531 0 0.2745098 0
v 1.735622 -17.42039 0.6012813 0 0.4470588 0
v 0.8134468 -17.42039 2.203604 0 0.6 0
v 0.8822323 -17.3004 2.323572 0 0.6 0
v -1.961835 -17.42039 0.6062115 0 0.6 0
v -1.03528 -17.42039 2.206072 0 0.5960785 0
v -1.105051 -17.3004 2.326224 0 0.3607843 0
v -2.10104 -17.3004 0.6064591 0 0.6 0
v -0.1256703 19.24084 -2.926896 0 0.5529412 0
v 0.8221082 18.91283 -1.290389 0 0.254902 0
v 0.6848652 19.0576 -1.288414 0 0.3960784 0
v -0.194814 19.36207 -2.807348 0 0.5215687 0
v -2.016753 19.56891 -2.924363 0 0 0
v -1.943861 19.36207 0.2317022 0 0.3019608 0
v -0.1886442 19.0576 0.229352 0 0.4784314 0
v -1.950027 19.66654 -2.804999 0 0 0
v -2.960058 19.56891 -1.285323 0 0 0
v -2.823537 19.66654 -1.287232 0 0 0
v -2.012284 19.24084 0.3511835 0 0.2705882 0
v -0.1211896 18.91282 0.34865 0 0.4784314 0
v -4.775177 -15.32017 0.8697369 0 0 0
v -4.637304 -15.44017 0.8696118 0 0 0
v -3.719495 -15.44017 -0.7251256 0 0 0
v -3.788251 -15.32017 -0.8450963 0 0 0
v -4.606166 14.07933 0.8542407 0 0.2941177 0
v -3.614526 13.64578 2.566456 0 0 0
v -3.783517 -15.32017 2.581951 0 0 0
v -3.619239 14.07933 -0.8605927 0 0.6 0
v -1.640669 13.64578 -0.8632097 0 0.0627451 0
v -1.80966 -15.32017 -0.8477153 0 0.8823529 0
v -1.640669 13.64578 -0.8632097 0 0.0627451 0
v -0.6490288 13.21231 0.8490064 0 0 0
v -0.784227 13.36352 0.8518834 0 0.0627451 0
v -1.708553 13.7676 -0.7440876 0 0.1960784 0
v -3.619239 14.07933 -0.8605927 0 0.6 0
v -3.54522 13.7676 2.447204 0 0.09019608 0
v -1.700967 13.36352 2.444764 0 0.1254902 0
v -3.614526 13.64578 2.566456 0 0 0
v -1.635955 13.21231 2.56384 0 0 0
v -4.606166 14.07933 0.8542407 0 0.2941177 0
v -4.469546 14.17168 0.8512334 0 0.3803922 0
v -3.552806 14.17168 -0.7416474 0 0.6 0
v -4.77497 6.244928 1.709868 0 0 0
v -5.922569 5.84534 -0.271704 0 0.6 0
v -5.786301 5.990138 -0.2745009 0 0.6 0
v -4.706758 6.36605 1.589551 0 0 0
v -2.485023 6.644565 1.706706 0 0.5529412 0
v -4.713766 5.990138 -2.137954 0 0 0
v -2.55263 6.741962 1.5866 0 0.427451 0
v -1.342682 6.644565 -0.2780293 0 0 0
v -2.559642 6.36605 -2.140906 0 0.6392157 0
v -1.480095 6.741962 -0.2768525 0 0 0
v -2.490287 6.24493 -2.259603 0 0.6156863 0
v -4.780228 5.845339 -2.25644 0 0 0
v -2.429533 -6.622167 -2.173609 0 0.6 0
v -4.719514 -6.622168 -2.170496 0 0.3686275 0
v -4.649485 -6.742166 -2.049764 0 0.3607843 0
v -2.498088 -6.742165 -2.052713 0 0.6 0
v -1.281898 -6.622167 -0.1919875 0 0 0
v -4.644527 -6.742166 1.676571 0 0 0
v -5.722706 -6.742166 -0.18512 0 0 0
v -1.419913 -6.742165 -0.1910226 0 0 0
v -2.424239 -6.622167 1.792749 0 0 0
v -2.493134 -6.742165 1.673623 0 0 0
v -4.714215 -6.622168 1.795863 0 0 0
v -5.861855 -6.622168 -0.1857605 0 0 0
v -3.172154 5.229318 5.393545 0 0 0
v -4.013405 5.229319 3.493122 0 0.0627451 0
v -3.876422 5.370317 3.509249 0 0.1254902 0
v -3.091662 5.370317 5.282088 0 0 0
v -1.105706 5.535316 5.615198 0 0 0
v -1.161052 5.656218 5.489161 0 0 0
v -2.731761 5.656218 1.940788 0 0.6117647 0
v 0.1194919 5.841347 3.936412 0 0.5333334 0
v -0.01639137 5.942118 3.920699 0 0.5176471 0
v -0.8011495 5.942118 2.147858 0 0.7137255 0
v -0.7217681 5.841346 2.035955 0 0.6 0
v -2.788207 5.535314 1.814332 0 0.0627451 0
v 1.258554 14.33302 -1.564365 0 0.6196079 0
v 3.0037 13.70381 -1.566697 0 0.6 0
v 2.935222 13.82882 -1.44878 0 0.6 0
v 1.318012 14.41181 -1.446621 0 0.6352941 0
v 0.3880526 14.33303 -0.0518303 0 0.7686275 0
v 0.5193601 14.41181 -0.05892805 0 0.7686275 0
v 1.329879 13.82882 1.340576 0 0.8588235 0
v 3.745741 13.24583 -0.0492763 0 0 0
v 1.262698 13.70381 1.458373 0 0.8588235 0
v 2.94709 13.24583 1.338416 0 0.1647059 0
v 3.007844 13.07482 1.456041 0 0.09019608 0
v 3.155989 -15.66336 -1.58066 0 0 0
v 1.41087 -15.66336 -1.578331 0 0.6 0
v 1.480924 -15.78336 -1.458479 0 0.6 0
v 3.087491 -15.78336 -1.460625 0 0 0
v 4.030607 -15.66336 -0.07045438 0 0 0
v 3.89268 -15.78336 -0.07032396 0 0 0
v 3.091298 -15.78336 1.322115 0 0 0
v 3.160106 -15.66336 1.442081 0 0 0
v 0.6795413 -15.78336 -0.06604064 0 0.3294118 0
v 1.48473 -15.78336 1.32426 0 0 0
v 1.414987 -15.66336 1.444409 0 0 0
v 0.5403692 -15.66336 -0.06579614 0 0.2156863 0
v 1.351439 -11.88483 -4.56761 0 0 0
v -0.5328454 -11.91863 -4.561511 0 0 0
v -0.460985 -12.03544 -4.439826 0 0 0
v 1.284759 -12.00413 -4.445477 0 0 0
v 2.298398 -11.84198 -2.938763 0 0 0
v -1.329394 -12.02706 -2.925088 0 0.2392157 0
v 2.162093 -11.96442 -2.936389 0 0 0
v -0.4520596 -11.98735 -1.416001 0 0.6588235 0
v 1.293684 -11.95604 -1.421652 0 0.7215686 0
v 1.361073 -11.83292 -1.303817 0 0.6666667 0
v -0.5232117 -11.86672 -1.297717 0 0.5254902 0
v -1.470171 -11.90958 -2.926564 0 0.1411765 0
v -2.10104 -17.3004 0.6064591 0 0.6 0
v -1.278609 14.70637 2.342138 0 0.6039216 0
v -1.105051 -17.3004 2.326224 0 0.3607843 0
v -2.274615 15.10047 0.6223741 0 0.8588235 0
v -1.28332 15.10047 -1.100044 0 0 0
v -1.109746 -17.3004 -1.11596 0 0.9254902 0
v 0.7039789 14.70637 -1.102699 0 0.7686275 0
v 0.8775368 -17.3004 -1.118613 0 0.7294118 0
v -1.961835 -17.42039 0.6062115 0 0.6 0
v -1.039659 -17.42039 -0.996111 0 0.9294118 0
v -2.866788 -12.42428 -1.293876 0 0.7686275 0
v -2.012284 19.24084 0.3511835 0 0.2705882 0
v -1.918153 -12.42428 0.342553 0 0.09019608 0
v -2.960058 19.56891 -1.285323 0 0 0
v -2.016753 19.56891 -2.924363 0 0 0
v -1.923361 -12.42428 -2.932927 0 0.1647059 0
v -0.1256703 19.24084 -2.926896 0 0.5529412 0
v -0.03154282 -12.42428 -2.935526 0 0.6 0
v -2.750269 -12.54428 -1.361171 0 0.772549 0
v -1.912275 -12.54428 -2.812974 0 0.2588235 0
v -1.281898 -6.622167 -0.1919875 0 0 0
v -2.490287 6.24493 -2.259603 0 0.6156863 0
v -2.429533 -6.622167 -2.173609 0 0.6 0
v -1.342682 6.644565 -0.2780293 0 0 0
v -2.485023 6.644565 1.706706 0 0.5529412 0
v -2.424239 -6.622167 1.792749 0 0 0
v -4.77497 6.244928 1.709868 0 0 0
v -4.714215 -6.622168 1.795863 0 0 0
v 0.06624711 -6.169195 3.916292 0 0 0
v -0.7217681 5.841346 2.035955 0 0.6 0
v -0.7766204 -6.169195 2.01494 0 0 0
v 0.1194919 5.841347 3.936412 0 0.5333334 0
v -1.105706 5.535316 5.615198 0 0 0
v -1.158352 -6.169195 5.5936 0 0 0
v -3.172154 5.229318 5.393545 0 0 0
v -3.224813 -6.169194 5.37142 0 0 0
v 0.5403692 -15.66336 -0.06579614 0 0.2156863 0
v 1.262698 13.70381 1.458373 0 0.8588235 0
v 1.414987 -15.66336 1.444409 0 0 0
v 0.3880526 14.33303 -0.0518303 0 0.7686275 0
v 1.258554 14.33302 -1.564365 0 0.6196079 0
v 1.41087 -15.66336 -1.578331 0 0.6 0
v 3.0037 13.70381 -1.566697 0 0.6 0
v 3.155989 -15.66336 -1.58066 0 0 0
v 0.6795413 -15.78336 -0.06604064 0 0.3294118 0
v 1.480924 -15.78336 -1.458479 0 0.6 0
v 1.062356 4.195603 -1.560976 0 0.772549 0
v -0.5232117 -11.86672 -1.297717 0 0.5254902 0
v -0.8219283 4.161802 -1.554877 0 0.2705882 0
v 1.361073 -11.83292 -1.303817 0 0.6666667 0
v 1.999681 4.186551 -3.195922 0 0.6156863 0
v 2.298398 -11.84198 -2.938763 0 0 0
v 1.351439 -11.88483 -4.56761 0 0 0
v 1.052723 4.143696 -4.824769 0 0.772549 0
v 3.209369 7.016798 -0.3099124 0 0.4941176 0
v 0.8374662 6.75863 -0.1922734 0 0.9647059 0
v 0.7682132 6.637626 -0.311521 0 0.6313726 0
v 3.142213 7.116596 -0.1907391 0 0.7764706 0
v 4.29169 7.116596 1.803159 0 0.8862745 0
v 4.428586 7.016798 1.804969 0 0.8392157 0
v 3.138057 6.75863 3.798348 0 0.4941176 0
v 3.206669 6.637626 3.918234 0 0.2235294 0
v 0.8333104 6.400664 3.796814 0 0.9098039 0
v -0.316168 6.400664 1.802916 0 0.4313726 0
v 0.7655434 6.258498 3.916628 0 0.8941177 0
v -0.4536769 6.258497 1.801746 0 0.5294118 0
v 0.7273246 -8.53707 3.956774 0 0 0
v -0.3525873 -8.65707 1.843181 0 0 0
v -0.4907828 -8.53707 1.842848 0 0 0
v 0.7963694 -8.65707 3.83711 0 0 0
v 3.096577 -8.65707 3.837439 0 0 0
v 3.1661 -8.53707 3.957142 0 0 0
v 0.7973388 -8.65707 -0.1498998 0 0 0
v 4.249792 -8.65707 1.844221 0 0 0
v 4.388659 -8.53707 1.844051 0 0 0
v 3.101427 -8.65707 -0.1494182 0 0 0
v 0.7284258 -8.53707 -0.2702805 0 0 0
v 3.171071 -8.53707 -0.2697521 0 0 0
v -3.224813 -6.169194 5.37142 0 0 0
v -3.929349 -6.289194 3.487597 0 0 0
v -4.066595 -6.169195 3.473068 0 0 0
v -3.119875 -6.289193 5.313058 0 0 0
v -1.267356 -6.289194 5.514294 0 0 0
v -1.158352 -6.169195 5.5936 0 0 0
v -0.08669182 -6.289194 3.899746 0 0 0
v 0.06624711 -6.169195 3.916292 0 0 0
v -0.7766204 -6.169195 2.01494 0 0 0
v -0.872806 -6.289194 2.125239 0 0 0
v -2.786462 -6.289194 1.921782 0 0 0
v -2.842038 -6.169195 1.795333 0 0 0
v 1.052723 4.143696 -4.824769 0 0.772549 0
v 1.999681 4.186551 -3.195922 0 0.6156863 0
v 1.858904 4.304029 -3.197398 0 0.627451 0
v 1.062356 4.195603 -1.560976 0 0.772549 0
v 0.9815705 4.264325 -4.706485 0 0.7764706 0
v -0.8315621 4.109894 -4.818669 0 0.6 0
v -0.7641731 4.233008 -4.700834 0 0.6039216 0
v -0.7552477 4.2811 -1.67701 0 0.4470588 0
v -1.632582 4.241397 -3.186096 0 0.8078431 0
v -1.768888 4.118948 -3.183723 0 0.7686275 0
v -0.8219283 4.161802 -1.554877 0 0.2705882 0
v 0.9904957 4.312416 -1.682661 0 0.7882353 0
v -1.804929 -15.32017 2.579331 0 0 0
v -0.8179988 -15.32017 0.8644981 0 0 0
v -0.9572733 -15.44017 0.8647514 0 0 0
v -1.80966 -15.32017 -0.8477153 0 0.8823529 0
v -1.875085 -15.44017 2.459489 0 0 0
v -3.783517 -15.32017 2.581951 0 0 0
v -1.879481 -15.44017 -0.7275603 0 0.854902 0
v -3.788251 -15.32017 -0.8450963 0 0 0
v -3.719495 -15.44017 -0.7251256 0 0 0
v -3.715096 -15.44017 2.461924 0 0 0
v -4.775177 -15.32017 0.8697369 0 0 0
v -4.637304 -15.44017 0.8696118 0 0 0
v -2.866788 -12.42428 -1.293876 0 0.7686275 0
v -1.918153 -12.42428 0.342553 0 0.09019608 0
v -1.841362 -12.54428 0.2097131 0 0.2705882 0
v -2.750269 -12.54428 -1.361171 0 0.772549 0
v -0.1002678 -12.54428 -2.815464 0 0.6 0
v -1.912275 -12.54428 -2.812974 0 0.2588235 0
v -1.923361 -12.42428 -2.932927 0 0.1647059 0
v -0.03154282 -12.42428 -2.935526 0 0.6 0
v -0.02420324 -12.42428 0.3397574 0 0 0
v 0.9172027 -12.42428 -1.299108 0 0.7686275 0
v -0.08633152 -12.54428 0.2076094 0 0 0
v 0.7790183 -12.54428 -1.298863 0 0.7686275 0
vn 0.9280505 0.3702694 0.04028668
vn 0.4736181 0.4192681 -0.7745322
vn 0.4632931 -0.3738963 -0.8034681
vn 0.9289027 -0.3703234 -0.0005432185
vn 0.4582625 0.3258646 0.8269267
vn 0.4659173 -0.3687654 0.8043216
vn -0.4625849 -0.3708773 0.8052735
vn -0.4573869 0.3237084 0.8282573
vn 0.21447 0.836495 0.5042607
vn 0.4416976 0.8867244 0.1364658
vn 0.9492642 0.3138573 0.01977176
vn 0.5076051 0.3679539 -0.7790681
vn 0.4639052 -0.3704726 -0.8047
vn 0.9294123 -0.3690407 -0.001331875
vn 0.4660211 -0.3709946 0.8032356
vn 0.4933196 0.3118311 0.8120327
vn -0.4620138 -0.3743505 0.8039932
vn -0.4199711 0.3641085 0.8312938
vn 0.5668347 0.819823 0.08117006
vn 0.3545976 0.8194519 0.4502878
vn 0.9472808 0.3199225 0.0175678
vn 0.5023109 0.3685437 -0.7822144
vn 0.4632782 -0.3713383 -0.8046622
vn 0.9288124 -0.3705454 -0.001902725
vn 0.4599416 -0.3810334 0.8020394
vn 0.4907354 0.3188232 0.8108826
vn -0.4584384 -0.3917606 0.7977204
vn -0.4247128 0.366447 0.82785
vn 0.5526067 0.8303672 0.07152647
vn 0.3392597 0.8301684 0.4424063
vn 0.9536439 0.3002408 0.02046753
vn 0.5135447 0.3625957 -0.7776864
vn 0.4619227 -0.374514 -0.8039693
vn 0.9265943 -0.3760606 -0.001189471
vn 0.4974817 0.3024355 0.8130466
vn 0.464136 -0.3739557 0.8029538
vn -0.4639568 -0.3703398 0.8047314
vn -0.4130061 0.3667342 0.8336259
vn 0.3689079 0.8093232 0.4570591
vn 0.581218 0.8089169 0.08853882
vn 0.4634705 -0.3745805 -0.803047
vn 0.4235858 0.3653118 -0.8289284
vn -0.4920419 0.3123726 -0.8125996
vn -0.4639753 -0.3775865 -0.801346
vn -0.9490477 0.3145925 -0.01844012
vn -0.5548681 0.8287634 -0.07261369
vn -0.3411374 0.8283477 -0.4443706
vn -0.9268575 -0.3754067 0.002235582
vn -0.2205898 -0.8978304 -0.3811046
vn -0.4411522 -0.8974309 0.00157857
vn -0.4624482 -0.3703076 0.8056141
vn -0.50362 0.3695012 0.7809198
vn 0.9082147 0.4178054 0.02417939
vn 0.4341994 0.4172449 -0.7983593
vn 0.4639677 -0.3746439 -0.8027302
vn 0.9274241 -0.3740093 0.001233181
vn 0.42885 0.3690071 0.8245736
vn 0.4632534 -0.3718225 0.8044528
vn -0.4879672 0.3258816 0.8097464
vn -0.4649825 -0.3701968 0.804205
vn 0.4639677 -0.3746439 -0.8027302
vn 0.4341994 0.4172449 -0.7983593
vn -0.4987676 0.3678353 -0.7848109
vn -0.4643257 -0.3731001 -0.8032422
vn -0.9454938 0.3252378 0.0161853
vn -0.5416758 0.8381175 0.0643927
vn -0.336242 0.8868287 -0.3169799
vn -0.9287072 -0.3708139 0.0001603905
vn -0.2215672 -0.8969982 -0.3824947
vn -0.442889 -0.8965765 0.000231037
vn -0.4879672 0.3258816 0.8097464
vn -0.4649825 -0.3701968 0.804205
vn 0.547432 -0.3826149 -0.7442608
vn 0.5180972 0.4162589 -0.7471974
vn -0.4107177 0.3709326 -0.8328986
vn -0.376867 -0.3703056 -0.8490259
vn -0.9405415 0.3291305 -0.08399305
vn -0.5397666 0.8418025 0.004536025
vn -0.2942918 0.8883056 -0.3525699
vn -0.923954 -0.3694657 -0.09901536
vn -0.1799827 -0.8965015 -0.4048347
vn -0.4408473 -0.8963328 -0.04734131
vn -0.5774959 -0.3322923 0.745708
vn -0.5696926 0.3268804 0.7540555
vn -0.4620585 -0.374266 0.8040068
vn -0.387594 0.3509681 0.8524039
vn 0.5084695 0.2645871 0.8194221
vn 0.4659911 -0.3710434 0.8032304
vn 0.9633554 0.2666106 0.02941237
vn 0.9293648 -0.3691603 -0.001327891
vn 0.4638721 -0.3705485 -0.8046841
vn 0.5425467 0.3546389 -0.7614948
vn 0.6533093 0.7445484 0.1372389
vn 0.4464964 0.7441876 0.4968158
vn 0.4761701 0.8474405 -0.234748
vn -0.4683791 0.3766754 0.7992101
vn -0.4547836 -0.3679478 0.8110403
vn -0.9210454 -0.3893527 0.008939834
vn -0.9347601 0.3552677 -0.002918781
vn -0.4731374 0.3509047 -0.8080885
vn -0.2384728 0.8865079 -0.3965282
vn -0.458475 0.888615 -0.01280749
vn -0.459505 -0.3937165 -0.7961423
vn -0.4259185 -0.9046258 0.01567391
vn -0.2059824 -0.9067332 -0.367976
vn 0.4547826 0.3679487 -0.8110405
vn 0.4683783 -0.3766755 -0.7992105
vn 0.4736181 0.4192681 -0.7745322
vn 0.9280505 0.3702694 0.04028668
vn 0.4416976 0.8867244 0.1364658
vn 0.2272394 0.9394108 -0.2566507
vn -0.4766282 0.4172768 -0.7737607
vn -0.2291147 0.9390442 -0.2563249
vn -0.4429056 0.8859837 0.1373591
vn -0.9295937 0.3661551 0.04226188
vn 0.21447 0.836495 0.5042607
vn -0.2141716 0.8360986 0.5050443
vn -0.4573869 0.3237084 0.8282573
vn 0.4582625 0.3258646 0.8269267
vn 0.4632931 -0.3738963 -0.8034681
vn -0.4643241 -0.3759522 -0.8019121
vn -0.2209309 -0.8975267 -0.3816218
vn 0.2209844 -0.8971531 -0.3824684
vn 0.9289027 -0.3703234 -0.0005432185
vn -0.2202297 -0.8965963 0.3842057
vn -0.4414972 -0.8972617 0.001275826
vn 0.4430449 -0.8964995 9.647434E-05
vn 0.4659173 -0.3687654 0.8043216
vn 0.2224049 -0.8962064 0.3838622
vn -0.4625849 -0.3708773 0.8052735
vn -0.927229 -0.3744901 0.001925451
vn -0.927229 -0.3744901 0.001925451
vn -0.4414972 -0.8972617 0.001275826
vn -0.2209309 -0.8975267 -0.3816218
vn -0.4643241 -0.3759522 -0.8019121
vn -0.9295937 0.3661551 0.04226188
vn -0.4573869 0.3237084 0.8282573
vn -0.4625849 -0.3708773 0.8052735
vn -0.4766282 0.4172768 -0.7737607
vn 0.4736181 0.4192681 -0.7745322
vn 0.4632931 -0.3738963 -0.8034681
vn 0.5076051 0.3679539 -0.7790681
vn 0.9492642 0.3138573 0.01977176
vn 0.5668347 0.819823 0.08117006
vn 0.3666049 0.8812063 -0.2984566
vn -0.4252731 0.4300846 -0.796348
vn -0.07494903 0.8805267 0.4680336
vn 0.3545976 0.8194519 0.4502878
vn -0.08209508 0.9466366 -0.3116723
vn -0.9030811 0.4282185 0.03276349
vn -0.3115416 0.9462942 0.08642409
vn -0.4199711 0.3641085 0.8312938
vn 0.4933196 0.3118311 0.8120327
vn 0.4639052 -0.3704726 -0.8047
vn -0.4642318 -0.3738089 -0.8029668
vn -0.2207872 -0.8971373 -0.3826195
vn 0.2215417 -0.8965247 -0.383618
vn 0.9294123 -0.3690407 -0.001331875
vn 0.443533 -0.8962578 -0.0006733114
vn 0.2225439 -0.8966182 0.3828185
vn 0.4660211 -0.3709946 0.8032356
vn -0.4410396 -0.8974875 0.0005274493
vn -0.2197072 -0.897237 0.3830071
vn -0.4620138 -0.3743505 0.8039932
vn -0.9267286 -0.3757296 0.001175719
vn 0.5023109 0.3685437 -0.7822144
vn 0.9472808 0.3199225 0.0175678
vn 0.5526067 0.8303672 0.07152647
vn 0.3491222 0.8846918 -0.3089243
vn -0.4305276 0.4237625 -0.7969137
vn -0.09229013 0.8843192 0.4576702
vn 0.3392597 0.8301684 0.4424063
vn -0.09878644 0.9421338 -0.3203515
vn -0.9058045 0.4227479 0.02832831
vn -0.32705 0.9419486 0.07596746
vn -0.4247128 0.366447 0.82785
vn 0.4907354 0.3188232 0.8108826
vn -0.9294843 -0.3688591 0.001358092
vn -0.4435958 -0.8962266 0.0006810417
vn -0.2225812 -0.8966061 -0.382825
vn -0.466061 -0.3709299 -0.8032423
vn -0.8969815 0.4405109 0.03707322
vn -0.4130061 0.3667342 0.8336259
vn -0.4639568 -0.3703398 0.8047314
vn -0.4186326 0.4385249 -0.7952626
vn 0.5135447 0.3625957 -0.7776864
vn 0.4619227 -0.374514 -0.8039693
vn 0.5135447 0.3625957 -0.7776864
vn 0.9536439 0.3002408 0.02046753
vn 0.581218 0.8089169 0.08853882
vn 0.3829218 0.8768073 -0.2908261
vn -0.4186326 0.4385249 -0.7952626
vn -0.05799446 0.8775434 0.4759771
vn 0.3689079 0.8093232 0.4570591
vn -0.4130061 0.3667342 0.8336259
vn 0.4974817 0.3024355 0.8130466
vn -0.8969815 0.4405109 0.03707322
vn -0.2951902 0.9506786 0.09525219
vn -0.06558388 0.9503174 -0.3042953
vn -0.50362 0.3695012 0.7809198
vn -0.9490477 0.3145925 -0.01844012
vn -0.5548681 0.8287634 -0.07261369
vn -0.3509157 0.8845071 0.307417
vn 0.4283542 0.4295121 0.7950044
vn -0.3411374 0.8283477 -0.4443706
vn 0.09617984 0.9430926 0.3183171
vn 0.9035295 0.4275096 -0.02949769
vn 0.09059459 0.8837489 -0.4591085
vn 0.3244082 0.9427269 -0.07762294
vn 0.4235858 0.3653118 -0.8289284
vn -0.4920419 0.3123726 -0.8125996
vn 0.4634705 -0.3745805 -0.803047
vn -0.4639753 -0.3775865 -0.801346
vn -0.2205898 -0.8978304 -0.3811046
vn 0.2211427 -0.89727 -0.3821028
vn 0.9291915 -0.3695985 -0.0003276813
vn -0.2200836 -0.8964909 0.3845352
vn -0.4411522 -0.8974309 0.00157857
vn 0.4433222 -0.8963623 0.0003428249
vn 0.4661552 -0.3675029 0.8047614
vn 0.2226551 -0.8959816 0.3842418
vn -0.4624482 -0.3703076 0.8056141
vn -0.9268575 -0.3754067 0.002235582
vn -0.5696926 0.3268804 0.7540555
vn -0.9405415 0.3291305 -0.08399305
vn -0.5397666 0.8418025 0.004536025
vn -0.366008 0.8413758 0.3976492
vn 0.341589 0.3667152 0.8653537
vn 0.06403027 0.8875425 0.4562548
vn -0.2942918 0.8883056 -0.3525699
vn 0.9022946 0.4142396 0.1194569
vn 0.3360098 0.9364477 0.1008129
vn 0.1515042 0.9368176 -0.3153082
vn 0.5180972 0.4162589 -0.7471974
vn -0.4107177 0.3709326 -0.8328986
vn -0.3855088 0.470825 -0.7935405
vn 0.5425467 0.3546389 -0.7614948
vn 0.4761701 0.8474405 -0.234748
vn 0.02231752 0.9658086 -0.2582937
vn -0.880742 0.4690481 0.06547876
vn -0.2129663 0.9654885 0.1499244
vn 0.03496937 0.8468491 0.5306824
vn 0.6533093 0.7445484 0.1372389
vn -0.387594 0.3509681 0.8524039
vn 0.4464964 0.7441876 0.4968158
vn 0.5084695 0.2645871 0.8194221
vn 0.4638721 -0.3705485 -0.8046841
vn -0.464278 -0.3737354 -0.8029744
vn -0.2208331 -0.8971238 -0.3826246
vn 0.2214984 -0.8965411 -0.3836047
vn 0.9293648 -0.3691603 -0.001327891
vn 0.4434871 -0.8962805 -0.0006697697
vn 0.2225149 -0.8966271 0.3828145
vn 0.4659911 -0.3710434 0.8032304
vn -0.441102 -0.8974568 0.000530932
vn -0.2197502 -0.8972211 0.3830198
vn -0.4620585 -0.374266 0.8040068
vn -0.9267938 -0.3755689 0.001171104
vn 0.4683783 -0.3766755 -0.7992105
vn -0.459505 -0.3937165 -0.7961423
vn -0.2059824 -0.9067332 -0.367976
vn 0.2361968 -0.8987288 -0.3694559
vn 0.9347604 -0.3552669 0.002919506
vn -0.4259185 -0.9046258 0.01567391
vn 0.458477 -0.888614 0.01280902
vn -0.2037398 -0.8945141 0.3979127
vn 0.2384726 -0.8865079 0.3965283
vn 0.4731375 -0.3509047 0.8080884
vn -0.4547836 -0.3679478 0.8110403
vn -0.9210454 -0.3893527 0.008939834
vn -0.9267286 -0.3757296 0.001175719
vn -0.4199711 0.3641085 0.8312938
vn -0.4620138 -0.3743505 0.8039932
vn -0.9030811 0.4282185 0.03276349
vn -0.4252731 0.4300846 -0.796348
vn -0.4642318 -0.3738089 -0.8029668
vn 0.5076051 0.3679539 -0.7790681
vn 0.4639052 -0.3704726 -0.8047
vn -0.4410396 -0.8974875 0.0005274493
vn -0.2207872 -0.8971373 -0.3826195
vn -0.9359658 -0.3505706 0.03268509
vn -0.4247128 0.366447 0.82785
vn -0.4584384 -0.3917606 0.7977204
vn -0.9058045 0.4227479 0.02832831
vn -0.4305276 0.4237625 -0.7969137
vn -0.4491639 -0.3340489 -0.8286514
vn 0.5023109 0.3685437 -0.7822144
vn 0.4632782 -0.3713383 -0.8046622
vn -0.5115502 -0.8544564 -0.09066769
vn -0.3216116 -0.8524784 -0.4121242
vn 0.9291915 -0.3695985 -0.0003276813
vn 0.4235858 0.3653118 -0.8289284
vn 0.4634705 -0.3745805 -0.803047
vn 0.9035295 0.4275096 -0.02949769
vn 0.4283542 0.4295121 0.7950044
vn 0.4661552 -0.3675029 0.8047614
vn -0.50362 0.3695012 0.7809198
vn -0.4624482 -0.3703076 0.8056141
vn 0.9141056 -0.3935275 0.09770883
vn 0.5180972 0.4162589 -0.7471974
vn 0.547432 -0.3826149 -0.7442608
vn 0.9022946 0.4142396 0.1194569
vn 0.341589 0.3667152 0.8653537
vn 0.4068646 -0.3510065 0.8433597
vn -0.5696926 0.3268804 0.7540555
vn -0.5774959 -0.3322923 0.745708
vn -0.9267938 -0.3755689 0.001171104
vn -0.387594 0.3509681 0.8524039
vn -0.4620585 -0.374266 0.8040068
vn -0.880742 0.4690481 0.06547876
vn -0.3855088 0.470825 -0.7935405
vn -0.464278 -0.3737354 -0.8029744
vn 0.5425467 0.3546389 -0.7614948
vn 0.4638721 -0.3705485 -0.8046841
vn -0.441102 -0.8974568 0.000530932
vn -0.2208331 -0.8971238 -0.3826246
vn 0.4595056 0.3937166 0.7961418
vn -0.4547836 -0.3679478 0.8110403
vn -0.4683791 0.3766754 0.7992101
vn 0.4731375 -0.3509047 0.8080884
vn 0.9210451 0.3893534 -0.008938729
vn 0.9347604 -0.3552669 0.002919506
vn 0.4683783 -0.3766755 -0.7992105
vn 0.4547826 0.3679487 -0.8110405
vn 0.4341994 0.4172449 -0.7983593
vn -0.336242 0.8868287 -0.3169799
vn -0.4987676 0.3678353 -0.7848109
vn 0.1113143 0.9382759 -0.3274867
vn 0.3389494 0.9383785 0.06752242
vn 0.9082147 0.4178054 0.02417939
vn 0.1055011 0.8870391 0.4494788
vn 0.42885 0.3690071 0.8245736
vn -0.3272757 0.8382499 0.436151
vn -0.5416758 0.8381175 0.0643927
vn -0.4879672 0.3258816 0.8097464
vn -0.9454938 0.3252378 0.0161853
vn -0.4649825 -0.3701968 0.804205
vn -0.442889 -0.8965765 0.000231037
vn -0.9287072 -0.3708139 0.0001603905
vn -0.2218533 -0.896468 0.3835702
vn 0.2205836 -0.8967808 0.3835714
vn 0.4632534 -0.3718225 0.8044528
vn -0.2215672 -0.8969982 -0.3824947
vn 0.4416833 -0.8971707 0.0007823975
vn 0.9274241 -0.3740093 0.001233181
vn 0.2208856 -0.897294 -0.382195
vn -0.4643257 -0.3731001 -0.8032422
vn 0.4639677 -0.3746439 -0.8027302
vn -0.5774959 -0.3322923 0.745708
vn -0.4408473 -0.8963328 -0.04734131
vn -0.923954 -0.3694657 -0.09901536
vn -0.2476818 -0.8520499 0.4611557
vn 0.122873 -0.8542255 0.5051744
vn 0.4068646 -0.3510065 0.8433597
vn 0.4121033 -0.910076 0.04396262
vn 0.9141056 -0.3935275 0.09770883
vn 0.547432 -0.3826149 -0.7442608
vn 0.2412242 -0.9029418 -0.3556784
vn -0.1799827 -0.8965015 -0.4048347
vn -0.376867 -0.3703056 -0.8490259
vn 0.4547826 0.3679487 -0.8110405
vn 0.9210451 0.3893534 -0.008938729
vn 0.4259173 0.9046264 -0.01567236
vn 0.4595056 0.3937166 0.7961418
vn 0.2037379 0.8945147 -0.3979124
vn -0.4731374 0.3509047 -0.8080885
vn -0.2384728 0.8865079 -0.3965282
vn -0.2361971 0.8987289 0.3694555
vn -0.458475 0.888615 -0.01280749
vn -0.9347601 0.3552677 -0.002918781
vn -0.4683791 0.3766754 0.7992101
vn 0.2059839 0.9067333 0.3679745
vn 0.464136 -0.3739557 0.8029538
vn 0.9265943 -0.3760606 -0.001189471
vn 0.4409129 -0.8975498 -0.0005283131
vn 0.4619227 -0.374514 -0.8039693
vn 0.2206933 -0.8971637 0.3826117
vn -0.4639568 -0.3703398 0.8047314
vn 0.2196385 -0.8972629 -0.3829858
vn -0.466061 -0.3709299 -0.8032423
vn -0.2225812 -0.8966061 -0.382825
vn -0.2216045 -0.8964982 0.3836436
vn -0.9294843 -0.3688591 0.001358092
vn -0.4435958 -0.8962266 0.0006810417
vn -0.9359658 -0.3505706 0.03268509
vn -0.4584384 -0.3917606 0.7977204
vn -0.2066455 -0.9097982 0.3599513
vn -0.5115502 -0.8544564 -0.09066769
vn 0.2210272 -0.8966861 -0.3835374
vn -0.3216116 -0.8524784 -0.4121242
vn -0.4491639 -0.3340489 -0.8286514
vn 0.4632782 -0.3713383 -0.8046622
vn 0.4599416 -0.3810334 0.8020394
vn 0.9288124 -0.3705454 -0.001902725
vn 0.2280629 -0.9026796 0.3649066
vn 0.4429661 -0.8965379 -0.0009301319
vt 0.008106264 0.6750835
vt 0.001798137 0.6723464
vt 0.001798129 0.7763062
vt 0.008111044 0.7769852
vt 0.02097542 0.6771799
vt 0.020985 0.7770239
vt 0.02754605 0.7763834
vt 0.02753647 0.6765394
vt 0.0206494 0.676438
vt 0.0084542 0.6744512
vt 0.09867859 0.5058104
vt 0.09384764 0.5033721
vt 0.09384763 0.6615124
vt 0.09867242 0.6620044
vt 0.1085054 0.6619794
vt 0.1085116 0.5057855
vt 0.1135136 0.6614625
vt 0.1135136 0.5033222
vt 0.0990316 0.5050422
vt 0.1081702 0.505019
vt 0.6768321 0.4687582
vt 0.6722387 0.4666632
vt 0.6722387 0.6230965
vt 0.6768264 0.6235715
vt 0.6861779 0.6235617
vt 0.6861891 0.4687479
vt 0.6909527 0.6230759
vt 0.6909527 0.4666426
vt 0.6771844 0.4680082
vt 0.6858491 0.4679987
vt 0.7456374 0.618791
vt 0.7408445 0.6161282
vt 0.7408445 0.7591667
vt 0.7456447 0.7596883
vt 0.755427 0.618831
vt 0.7554343 0.7597283
vt 0.7604238 0.7592466
vt 0.7604238 0.6162082
vt 0.7550858 0.6180488
vt 0.7459924 0.6180116
vt 0.8460207 0.8611106
vt 0.8460207 0.7975085
vt 0.8402523 0.7989757
vt 0.8402458 0.8606035
vt 0.8289217 0.7990205
vt 0.8292741 0.7983348
vt 0.8399123 0.7982928
vt 0.8289152 0.8606482
vt 0.8399096 0.86123
vt 0.8292646 0.861272
vt 0.8233594 0.8612001
vt 0.8233594 0.797598
vt 0.5113032 0.7833277
vt 0.50536 0.7826845
vt 0.50536 0.8595099
vt 0.5113027 0.8601526
vt 0.5233752 0.7852491
vt 0.5233821 0.8602009
vt 0.5295039 0.7865271
vt 0.5295167 0.8596069
vt 0.5572697 0.8595329
vt 0.5572697 0.7826844
vt 0.551141 0.7840173
vt 0.5511262 0.8589922
vt 0.5390691 0.7859385
vt 0.5394077 0.7852666
vt 0.5508051 0.7834527
vt 0.5390551 0.8590406
vt 0.5507887 0.8596185
vt 0.5394034 0.8596642
vt 0.5331258 0.786527
vt 0.5331129 0.8596287
vt 0.8756782 0.1649591
vt 0.8757266 0.1056307
vt 0.8714734 0.1066372
vt 0.871419 0.164454
vt 0.8612381 0.1080952
vt 0.8615139 0.1074322
vt 0.8710766 0.10607
vt 0.8611897 0.1644001
vt 0.87102 0.1650769
vt 0.861473 0.1650265
vt 0.8552176 0.1648516
vt 0.8552558 0.1085469
vt 0.04477961 0.4187368
vt 0.04477961 0.2736399
vt 0.04039105 0.2772002
vt 0.04038166 0.4191901
vt 0.03175627 0.2772209
vt 0.03174687 0.4192108
vt 0.02751004 0.4187782
vt 0.02751004 0.2736814
vt 0.03211787 0.2763427
vt 0.04003996 0.2763237
vt 0.02818286 0.2730621
vt 0.6722388 0.7686279
vt 0.6722388 0.8479289
vt 0.6767968 0.8476818
vt 0.6767968 0.7683807
vt 0.6861214 0.7683786
vt 0.6857863 0.7678033
vt 0.6771473 0.7678052
vt 0.6861214 0.8476796
vt 0.6771473 0.8482933
vt 0.6857863 0.8482913
vt 0.6908879 0.7686236
vt 0.6908879 0.8479246
vt 0.7715201 0.2144469
vt 0.7715201 0.2274357
vt 0.7720835 0.2270515
vt 0.7720835 0.214743
vt 0.7827075 0.2080763
vt 0.78267 0.2087145
vt 0.7932716 0.2149861
vt 0.7938949 0.2146945
vt 0.782685 0.233323
vt 0.7932716 0.2272945
vt 0.7938949 0.2276832
vt 0.7827075 0.2340538
vt 0.7974911 0.2273879
vt 0.808641 0.2338248
vt 0.8086412 0.2331373
vt 0.7980851 0.2270432
vt 0.7974911 0.2145136
vt 0.8191974 0.214854
vt 0.8191974 0.2270427
vt 0.7980851 0.2148545
vt 0.808641 0.2080763
vt 0.8086413 0.2087599
vt 0.819791 0.2145132
vt 0.819791 0.2273875
vt 0.145483 0.7813028
vt 0.1458323 0.7819269
vt 0.1580207 0.781891
vt 0.1583569 0.7812649
vt 0.1454878 0.6793737
vt 0.1391795 0.6820529
vt 0.1391699 0.7819235
vt 0.1583569 0.6772772
vt 0.1649178 0.67786
vt 0.1649178 0.7818477
vt 0.8153989 0.3379097
vt 0.8068175 0.342942
vt 0.8074253 0.3432331
vt 0.8154233 0.3385428
vt 0.8239802 0.3426797
vt 0.8154233 0.3567889
vt 0.8074253 0.3523432
vt 0.8234214 0.3429886
vt 0.8239802 0.3524819
vt 0.8234214 0.3520986
vt 0.8153989 0.3575142
vt 0.8068175 0.3527443
vt 0.7408445 0.9488339
vt 0.7493606 0.9537507
vt 0.7493582 0.9530652
vt 0.7414359 0.9484912
vt 0.7408445 0.9390001
vt 0.7414359 0.939343
vt 0.7493581 0.9347689
vt 0.7493606 0.9340831
vt 0.7572803 0.948491
vt 0.7572803 0.9393428
vt 0.7578766 0.9389998
vt 0.7578766 0.9488336
vt 0.994127 0.5861594
vt 0.985984 0.5813646
vt 0.9860274 0.5820383
vt 0.9935853 0.5864885
vt 0.994127 0.5955036
vt 0.9784869 0.5949241
vt 0.9784868 0.5862512
vt 0.9935853 0.5951614
vt 0.985984 0.6000532
vt 0.9860449 0.5993744
vt 0.977841 0.5952584
vt 0.977841 0.5859141
vt 0.7456449 0.6119085
vt 0.7459943 0.612532
vt 0.7550983 0.6124953
vt 0.7554345 0.6118691
vt 0.7456376 0.4666821
vt 0.7408446 0.4693014
vt 0.7408446 0.6123857
vt 0.7554272 0.4666427
vt 0.7604238 0.4692226
vt 0.7604238 0.6123069
vt 0.5139111 0.9391455
vt 0.50536 0.9441719
vt 0.5059595 0.9444588
vt 0.51393 0.9397737
vt 0.5224622 0.9438781
vt 0.51393 0.9579352
vt 0.5059595 0.9535239
vt 0.5139111 0.9586636
vt 0.50536 0.953931
vt 0.5224622 0.9536372
vt 0.5219006 0.9532501
vt 0.5219006 0.944185
vt 0.0707913 0.925639
vt 0.08047995 0.9311817
vt 0.08054492 0.9305001
vt 0.07143087 0.9252862
vt 0.0707913 0.91429
vt 0.08964153 0.9250487
vt 0.07143076 0.9146103
vt 0.08047996 0.9084837
vt 0.08964142 0.9143729
vt 0.08052737 0.9091588
vt 0.09016862 0.9140264
vt 0.09016862 0.9253753
vt 0.0469104 0.9152089
vt 0.0469104 0.9265403
vt 0.04750723 0.9261957
vt 0.04750711 0.9155502
vt 0.05672356 0.9095436
vt 0.06594587 0.9261963
vt 0.05672662 0.9315188
vt 0.05672636 0.9102277
vt 0.06653672 0.9152095
vt 0.06594575 0.9155508
vt 0.06653672 0.9265408
vt 0.05672356 0.9322062
vt 0.2936888 0.8944849
vt 0.2936888 0.884231
vt 0.2930717 0.8845261
vt 0.2930718 0.8940916
vt 0.2847256 0.8995258
vt 0.2846977 0.898801
vt 0.2846976 0.8796556
vt 0.2757623 0.8943127
vt 0.2763236 0.8939305
vt 0.2763236 0.884365
vt 0.2757623 0.8840587
vt 0.2847255 0.8790179
vt 0.4527916 0.844676
vt 0.4527916 0.8360635
vt 0.4522544 0.8363805
vt 0.4522544 0.8443617
vt 0.4452093 0.8487508
vt 0.445298 0.8481002
vt 0.4382716 0.8438951
vt 0.445228 0.8321754
vt 0.4376271 0.844213
vt 0.4382716 0.8359139
vt 0.4376272 0.8356004
vt 0.4451056 0.8285791
vt 0.452584 0.8242618
vt 0.4519893 0.823921
vt 0.4451046 0.8278956
vt 0.4376271 0.8242611
vt 0.4382199 0.8239205
vt 0.4382199 0.8159708
vt 0.4376271 0.8156258
vt 0.4519893 0.8159713
vt 0.4451046 0.8119962
vt 0.4451056 0.8113084
vt 0.452584 0.8156264
vt 0.9883642 0.8737427
vt 0.9964384 0.8690793
vt 0.995832 0.8687341
vt 0.9883513 0.8730546
vt 0.9802899 0.8690808
vt 0.995832 0.8600945
vt 0.9808708 0.8687354
vt 0.9883513 0.8557753
vt 0.9808708 0.8600958
vt 0.9802899 0.8597555
vt 0.9883642 0.8550921
vt 0.9964384 0.859754
vt 0.2132422 0.6631932
vt 0.2084175 0.5054571
vt 0.2084175 0.6636406
vt 0.2132483 0.5030625
vt 0.2230813 0.5030881
vt 0.2230751 0.6632187
vt 0.2280834 0.5055081
vt 0.2280834 0.6636916
vt 0.2135914 0.6638192
vt 0.2227387 0.6638429
vt 0.05306901 0.6667879
vt 0.04848104 0.5107429
vt 0.04848105 0.6672205
vt 0.05307433 0.5086896
vt 0.06243132 0.5087004
vt 0.06242636 0.6667988
vt 0.06719504 0.5107645
vt 0.06719504 0.6672421
vt 0.05364778 0.6673995
vt 0.06194203 0.6674097
vt 0.4169252 0.8529463
vt 0.4113695 0.7887573
vt 0.4113695 0.8523431
vt 0.4169317 0.7873865
vt 0.4282623 0.787432
vt 0.4282558 0.8529918
vt 0.4340308 0.7888482
vt 0.4340308 0.8524339
vt 0.783566 0.8693442
vt 0.7775355 0.8095391
vt 0.7775839 0.8688484
vt 0.7835178 0.8100343
vt 0.7937532 0.8114868
vt 0.7937936 0.869285
vt 0.7980063 0.812444
vt 0.7980445 0.8687306
vt 0.07659867 0.4200706
vt 0.07236195 0.2753276
vt 0.07236195 0.420464
vt 0.07660807 0.2718252
vt 0.08524285 0.2718464
vt 0.08523345 0.4200918
vt 0.08963152 0.27537
vt 0.08963152 0.4205064
vt 0.07694785 0.4206966
vt 0.08489703 0.4207161
vt 0.8468547 0.1059231
vt 0.8516214 0.1849239
vt 0.8516214 0.1056363
vt 0.8468547 0.1852107
vt 0.8375301 0.1059203
vt 0.8375301 0.1852079
vt 0.8329722 0.1849184
vt 0.8329722 0.1056307
vt 0.9162881 0.9021269
vt 0.9157481 0.9138814
vt 0.9162881 0.9142227
vt 0.915748 0.9024615
vt 0.9058469 0.8968935
vt 0.9057863 0.896221
vt 0.8959318 0.9027374
vt 0.8952844 0.9024109
vt 0.8959319 0.9141573
vt 0.905833 0.9197254
vt 0.8952844 0.9145066
vt 0.9057863 0.9204124
vt 0.9270688 0.2267298
vt 0.9166104 0.2320768
vt 0.9166099 0.2327595
vt 0.9264755 0.2263895
vt 0.9264747 0.2150076
vt 0.9270679 0.2146623
vt 0.906747 0.2263889
vt 0.9166106 0.2093034
vt 0.9166107 0.2086151
vt 0.9067469 0.2149878
vt 0.9061525 0.2267288
vt 0.9061525 0.2146422
vt 0.293569 0.8600133
vt 0.292978 0.8699492
vt 0.293569 0.8702888
vt 0.2929779 0.8600683
vt 0.2850018 0.8554422
vt 0.2846672 0.8548634
vt 0.2764227 0.8603773
vt 0.2757635 0.8599943
vt 0.2757623 0.8702855
vt 0.2764193 0.8699809
vt 0.2846675 0.8747396
vt 0.2846646 0.8754217
vt 0.2400455 0.9782415
vt 0.2319839 0.9828467
vt 0.2326124 0.9831412
vt 0.2319839 0.9921387
vt 0.2400813 0.9788746
vt 0.2481072 0.9829282
vt 0.2475502 0.9832167
vt 0.2400813 0.9960921
vt 0.2475502 0.9918255
vt 0.2481072 0.9922201
vt 0.2400455 0.9968253
vt 0.2326124 0.99175
vt 0.9572306 0.8024032
vt 0.9487517 0.7975084
vt 0.948751 0.7981988
vt 0.9402729 0.8024041
vt 0.9566361 0.8027508
vt 0.9572306 0.8121936
vt 0.9408659 0.8027515
vt 0.9402729 0.8121946
vt 0.9408659 0.8118563
vt 0.9566361 0.8118555
vt 0.9487517 0.8170893
vt 0.948751 0.8164083
vt 0.985902 0.5527685
vt 0.9940057 0.5480856
vt 0.9933479 0.5477059
vt 0.9855687 0.5521927
vt 0.9783906 0.5390701
vt 0.9783906 0.5480362
vt 0.977798 0.5480891
vt 0.977798 0.538728
vt 0.9940048 0.538714
vt 0.9859018 0.5340446
vt 0.9933494 0.5390217
vt 0.985901 0.5347295
usemtl MV_RockHexic_Spire
f 1/1/1 3/3/3 2/2/2
f 1/1/1 4/4/4 3/3/3
f 5/5/5 4/4/4 1/1/1
f 5/5/5 6/6/6 4/4/4
f 7/7/7 6/6/6 5/5/5
f 7/7/7 5/5/5 8/8/8
f 1/1/1 9/9/9 5/5/5
f 1/1/1 10/10/10 9/9/9
f 11/11/11 13/13/13 12/12/12
f 11/11/11 14/14/14 13/13/13
f 15/15/15 14/14/14 11/11/11
f 15/15/15 11/11/11 16/16/16
f 17/17/17 15/15/15 16/16/16
f 17/17/17 16/16/16 18/18/18
f 16/16/16 11/11/11 19/19/19
f 16/16/16 19/19/19 20/20/20
f 21/21/21 23/23/23 22/22/22
f 21/21/21 24/24/24 23/23/23
f 25/25/25 24/24/24 21/21/21
f 25/25/25 21/21/21 26/26/26
f 27/27/27 25/25/25 26/26/26
f 27/27/27 26/26/26 28/28/28
f 26/26/26 21/21/21 29/29/29
f 26/26/26 29/29/29 30/30/30
f 31/31/31 33/33/33 32/32/32
f 31/31/31 34/34/34 33/33/33
f 35/35/35 34/34/34 31/31/31
f 35/35/35 36/36/36 34/34/34
f 37/37/37 36/36/36 35/35/35
f 37/37/37 35/35/35 38/38/38
f 31/31/31 39/39/39 35/35/35
f 31/31/31 40/40/40 39/39/39
f 41/41/41 43/43/43 42/42/42
f 41/41/41 44/44/44 43/43/43
f 44/44/44 45/45/45 43/43/43
f 43/43/43 45/45/45 46/46/46
f 43/43/43 46/46/46 47/47/47
f 44/44/44 48/48/48 45/45/45
f 48/48/48 44/44/44 49/49/49
f 48/48/48 49/49/49 50/50/50
f 45/45/45 48/48/48 51/51/51
f 45/45/45 51/51/51 52/52/52
f 53/53/53 55/55/55 54/54/54
f 53/53/53 56/56/56 55/55/55
f 57/57/57 56/56/56 53/53/53
f 57/57/57 58/58/58 56/56/56
f 59/59/59 58/58/58 57/57/57
f 59/59/59 60/60/60 58/58/58
f 61/61/61 63/63/63 62/62/62
f 61/61/61 64/64/64 63/63/63
f 64/64/64 65/65/65 63/63/63
f 63/63/63 65/65/65 66/66/66
f 63/63/63 66/66/66 67/67/67
f 64/64/64 68/68/68 65/65/65
f 68/68/68 64/64/64 69/69/69
f 68/68/68 69/69/69 70/70/70
f 68/68/68 71/71/71 65/65/65
f 68/68/68 72/72/72 71/71/71
f 73/73/73 75/75/75 74/74/74
f 73/73/73 76/76/76 75/75/75
f 76/76/76 77/77/77 75/75/75
f 75/75/75 77/77/77 78/78/78
f 75/75/75 78/78/78 79/79/79
f 76/76/76 80/80/80 77/77/77
f 80/80/80 76/76/76 81/81/81
f 80/80/80 81/81/81 82/82/82
f 77/77/77 80/80/80 83/83/83
f 77/77/77 83/83/83 84/84/84
f 85/85/85 87/87/87 86/86/86
f 85/85/85 88/88/88 87/87/87
f 88/88/88 89/89/89 87/87/87
f 88/88/88 90/90/90 89/89/89
f 89/89/89 90/90/90 91/91/91
f 89/89/89 91/91/91 92/92/92
f 87/87/87 89/89/89 93/93/93
f 92/92/92 93/93/93 89/89/89
f 87/87/87 93/93/93 94/94/94
f 92/92/92 95/95/95 93/93/93
f 96/96/96 98/98/98 97/97/97
f 96/96/96 99/99/99 98/98/98
f 98/98/98 99/99/99 100/100/100
f 99/99/99 101/101/101 100/100/100
f 99/99/99 102/102/102 101/101/101
f 98/98/98 100/100/100 103/103/103
f 103/103/103 104/104/104 98/98/98
f 103/103/103 105/105/105 104/104/104
f 103/103/103 100/100/100 106/106/106
f 103/103/103 106/106/106 107/107/107
f 108/108/108 110/110/110 109/109/109
f 108/108/108 111/111/111 110/110/110
f 112/112/112 111/111/111 108/108/108
f 110/110/110 111/111/111 113/113/113
f 112/112/112 113/113/113 111/111/111
f 110/110/110 113/113/113 114/114/114
f 112/112/112 114/114/114 113/113/113
f 112/112/112 115/115/115 114/114/114
f 114/114/114 116/116/116 110/110/110
f 115/115/115 117/117/117 114/114/114
f 114/114/114 117/117/117 116/116/116
f 115/115/115 118/118/118 117/117/117
f 118/118/118 116/116/116 117/117/117
f 118/118/118 119/119/119 116/116/116
f 120/120/120 122/122/122 121/121/121
f 120/120/120 123/123/123 122/122/122
f 124/124/124 123/123/123 120/120/120
f 125/125/125 122/122/122 123/123/123
f 125/125/125 126/126/126 122/122/122
f 124/124/124 127/127/127 123/123/123
f 128/128/128 127/127/127 124/124/124
f 123/123/123 127/127/127 129/129/129
f 128/128/128 129/129/129 127/127/127
f 123/123/123 129/129/129 125/125/125
f 128/128/128 125/125/125 129/129/129
f 128/128/128 130/130/130 125/125/125
f 130/130/130 126/126/126 125/125/125
f 130/130/130 131/131/131 126/126/126
f 132/132/132 134/134/134 133/133/133
f 132/132/132 135/135/135 134/134/134
f 135/135/135 132/132/132 136/136/136
f 132/132/132 137/137/137 136/136/136
f 132/132/132 138/138/138 137/137/137
f 135/135/135 136/136/136 139/139/139
f 140/140/140 135/135/135 139/139/139
f 140/140/140 141/141/141 135/135/135
f 142/142/142 144/144/144 143/143/143
f 142/142/142 145/145/145 144/144/144
f 146/146/146 145/145/145 142/142/142
f 147/147/147 144/144/144 145/145/145
f 147/147/147 148/148/148 144/144/144
f 146/146/146 149/149/149 145/145/145
f 150/150/150 149/149/149 146/146/146
f 145/145/145 149/149/149 151/151/151
f 150/150/150 151/151/151 149/149/149
f 145/145/145 151/151/151 147/147/147
f 150/150/150 147/147/147 151/151/151
f 150/150/150 152/152/152 147/147/147
f 152/152/152 148/148/148 147/147/147
f 152/152/152 153/153/153 148/148/148
f 154/154/154 156/156/156 155/155/155
f 154/154/154 157/157/157 156/156/156
f 158/158/158 157/157/157 154/154/154
f 156/156/156 157/157/157 159/159/159
f 158/158/158 159/159/159 157/157/157
f 156/156/156 159/159/159 160/160/160
f 158/158/158 160/160/160 159/159/159
f 158/158/158 161/161/161 160/160/160
f 160/160/160 162/162/162 156/156/156
f 161/161/161 163/163/163 160/160/160
f 160/160/160 163/163/163 162/162/162
f 161/161/161 164/164/164 163/163/163
f 164/164/164 162/162/162 163/163/163
f 164/164/164 165/165/165 162/162/162
f 166/166/166 168/168/168 167/167/167
f 166/166/166 169/169/169 168/168/168
f 170/170/170 169/169/169 166/166/166
f 171/171/171 168/168/168 169/169/169
f 171/171/171 172/172/172 168/168/168
f 170/170/170 173/173/173 169/169/169
f 174/174/174 173/173/173 170/170/170
f 169/169/169 173/173/173 175/175/175
f 174/174/174 175/175/175 173/173/173
f 169/169/169 175/175/175 171/171/171
f 174/174/174 171/171/171 175/175/175
f 174/174/174 176/176/176 171/171/171
f 176/176/176 172/172/172 171/171/171
f 176/176/176 177/177/177 172/172/172
f 178/178/178 180/180/180 179/179/179
f 178/178/178 181/181/181 180/180/180
f 181/181/181 178/178/178 182/182/182
f 178/178/178 183/183/183 182/182/182
f 178/178/178 184/184/184 183/183/183
f 181/181/181 182/182/182 185/185/185
f 186/186/186 181/181/181 185/185/185
f 186/186/186 187/187/187 181/181/181
f 188/188/188 190/190/190 189/189/189
f 188/188/188 191/191/191 190/190/190
f 192/192/192 191/191/191 188/188/188
f 193/193/193 190/190/190 191/191/191
f 193/193/193 194/194/194 190/190/190
f 195/195/195 194/194/194 193/193/193
f 195/195/195 196/196/196 194/194/194
f 197/197/197 195/195/195 193/193/193
f 197/197/197 193/193/193 198/198/198
f 192/192/192 197/197/197 198/198/198
f 191/191/191 198/198/198 193/193/193
f 192/192/192 198/198/198 199/199/199
f 191/191/191 199/199/199 198/198/198
f 192/192/192 199/199/199 191/191/191
f 200/200/200 202/202/202 201/201/201
f 200/200/200 203/203/203 202/202/202
f 204/204/204 203/203/203 200/200/200
f 203/203/203 205/205/205 202/202/202
f 204/204/204 206/206/206 203/203/203
f 207/207/207 206/206/206 204/204/204
f 203/203/203 208/208/208 205/205/205
f 208/208/208 203/203/203 206/206/206
f 207/207/207 209/209/209 206/206/206
f 208/208/208 206/206/206 209/209/209
f 207/207/207 208/208/208 209/209/209
f 207/207/207 210/210/210 208/208/208
f 210/210/210 205/205/205 208/208/208
f 210/210/210 211/211/211 205/205/205
f 212/212/212 214/214/214 213/213/213
f 212/212/212 215/215/215 214/214/214
f 216/216/216 215/215/215 212/212/212
f 217/217/217 214/214/214 215/215/215
f 217/217/217 218/218/218 214/214/214
f 216/216/216 219/219/219 215/215/215
f 220/220/220 219/219/219 216/216/216
f 215/215/215 219/219/219 221/221/221
f 220/220/220 221/221/221 219/219/219
f 215/215/215 221/221/221 217/217/217
f 220/220/220 217/217/217 221/221/221
f 220/220/220 222/222/222 217/217/217
f 222/222/222 218/218/218 217/217/217
f 222/222/222 223/223/223 218/218/218
f 224/224/224 226/226/226 225/225/225
f 224/224/224 227/227/227 226/226/226
f 228/228/228 227/227/227 224/224/224
f 229/229/229 226/226/226 227/227/227
f 228/228/228 229/229/229 227/227/227
f 229/229/229 230/230/230 226/226/226
f 231/231/231 229/229/229 228/228/228
f 231/231/231 232/232/232 229/229/229
f 232/232/232 230/230/230 229/229/229
f 231/231/231 233/233/233 232/232/232
f 232/232/232 233/233/233 230/230/230
f 231/231/231 234/234/234 233/233/233
f 234/234/234 230/230/230 233/233/233
f 234/234/234 235/235/235 230/230/230
f 236/236/236 238/238/238 237/237/237
f 236/236/236 239/239/239 238/238/238
f 240/240/240 239/239/239 236/236/236
f 238/238/238 239/239/239 241/241/241
f 240/240/240 241/241/241 239/239/239
f 238/238/238 241/241/241 242/242/242
f 240/240/240 242/242/242 241/241/241
f 242/242/242 243/243/243 238/238/238
f 240/240/240 244/244/244 242/242/242
f 242/242/242 245/245/245 243/243/243
f 244/244/244 245/245/245 242/242/242
f 244/244/244 246/246/246 245/245/245
f 247/247/247 249/249/249 248/248/248
f 247/247/247 250/250/250 249/249/249
f 251/251/251 250/250/250 247/247/247
f 249/249/249 250/250/250 252/252/252
f 251/251/251 252/252/252 250/250/250
f 249/249/249 252/252/252 253/253/253
f 251/251/251 253/253/253 252/252/252
f 251/251/251 254/254/254 253/253/253
f 253/253/253 255/255/255 249/249/249
f 254/254/254 256/256/256 253/253/253
f 253/253/253 256/256/256 255/255/255
f 254/254/254 257/257/257 256/256/256
f 257/257/257 255/255/255 256/256/256
f 257/257/257 258/258/258 255/255/255
f 259/259/259 261/261/261 260/260/260
f 259/259/259 262/262/262 261/261/261
f 263/263/263 262/262/262 259/259/259
f 262/262/262 264/264/264 261/261/261
f 263/263/263 265/265/265 262/262/262
f 262/262/262 266/266/266 264/264/264
f 266/266/266 262/262/262 265/265/265
f 263/263/263 267/267/267 265/265/265
f 266/266/266 265/265/265 267/267/267
f 263/263/263 268/268/268 267/267/267
f 268/268/268 266/266/266 267/267/267
f 268/268/268 269/269/269 266/266/266
f 269/269/269 264/264/264 266/266/266
f 269/269/269 270/270/270 264/264/264
f 271/271/271 273/273/273 272/272/272
f 271/271/271 272/272/272 274/274/274
f 275/275/275 271/271/271 274/274/274
f 275/275/275 276/276/276 271/271/271
f 277/277/277 276/276/276 275/275/275
f 277/277/277 278/278/278 276/276/276
f 276/276/276 279/279/279 271/271/271
f 276/276/276 280/280/280 279/279/279
f 281/281/281 283/283/283 282/282/282
f 281/281/281 282/282/282 284/284/284
f 285/285/285 281/281/281 284/284/284
f 285/285/285 286/286/286 281/281/281
f 287/287/287 286/286/286 285/285/285
f 287/287/287 288/288/288 286/286/286
f 286/286/286 289/289/289 281/281/281
f 286/286/286 290/290/290 289/289/289
f 291/291/291 293/293/293 292/292/292
f 291/291/291 292/292/292 294/294/294
f 295/295/295 291/291/291 294/294/294
f 295/295/295 296/296/296 291/291/291
f 297/297/297 296/296/296 295/295/295
f 297/297/297 298/298/298 296/296/296
f 299/299/299 301/301/301 300/300/300
f 299/299/299 300/300/300 302/302/302
f 303/303/303 299/299/299 302/302/302
f 303/303/303 304/304/304 299/299/299
f 305/305/305 304/304/304 303/303/303
f 305/305/305 306/306/306 304/304/304
f 307/307/307 309/309/309 308/308/308
f 307/307/307 308/308/308 310/310/310
f 311/311/311 307/307/307 310/310/310
f 311/311/311 312/312/312 307/307/307
f 313/313/313 312/312/312 311/311/311
f 313/313/313 314/314/314 312/312/312
f 312/312/312 315/315/315 307/307/307
f 312/312/312 316/316/316 315/315/315
f 317/317/317 319/319/319 318/318/318
f 317/317/317 318/318/318 320/320/320
f 321/321/321 317/317/317 320/320/320
f 321/321/321 320/320/320 322/322/322
f 323/323/323 321/321/321 322/322/322
f 323/323/323 324/324/324 321/321/321
f 325/325/325 327/327/327 326/326/326
f 325/325/325 326/326/326 328/328/328
f 325/325/325 328/328/328 329/329/329
f 325/325/325 329/329/329 330/330/330
f 328/328/328 331/331/331 329/329/329
f 330/330/330 329/329/329 331/331/331
f 328/328/328 326/326/326 331/331/331
f 330/330/330 331/331/331 332/332/332
f 326/326/326 333/333/333 331/331/331
f 332/332/332 331/331/331 333/333/333
f 326/326/326 334/334/334 333/333/333
f 332/332/332 333/333/333 335/335/335
f 336/336/336 333/333/333 334/334/334
f 336/336/336 335/335/335 333/333/333
f 337/337/337 339/339/339 338/338/338
f 337/337/337 338/338/338 340/340/340
f 337/337/337 340/340/340 341/341/341
f 341/341/341 340/340/340 338/338/338
f 337/337/337 341/341/341 342/342/342
f 341/341/341 338/338/338 343/343/343
f 342/342/342 341/341/341 344/344/344
f 342/342/342 344/344/344 345/345/345
f 346/346/346 341/341/341 343/343/343
f 346/346/346 344/344/344 341/341/341
f 345/345/345 344/344/344 346/346/346
f 347/347/347 346/346/346 343/343/343
f 345/345/345 346/346/346 348/348/348
f 347/347/347 348/348/348 346/346/346
f 349/349/349 351/351/351 350/350/350
f 349/349/349 350/350/350 352/352/352
f 349/349/349 352/352/352 353/353/353
f 353/353/353 352/352/352 350/350/350
f 349/349/349 353/353/353 354/354/354
f 354/354/354 353/353/353 355/355/355
f 350/350/350 355/355/355 353/353/353
f 354/354/354 355/355/355 356/356/356
f 357/357/357 356/356/356 355/355/355
f 358/358/358 355/355/355 350/350/350
f 357/357/357 355/355/355 358/358/358
f 358/358/358 350/350/350 359/359/359
f 360/360/360 357/357/357 358/358/358
f 360/360/360 358/358/358 359/359/359
f 361/361/361 363/363/363 362/362/362
f 364/364/364 362/362/362 363/363/363
f 361/361/361 365/365/365 363/363/363
f 366/366/366 365/365/365 361/361/361
f 366/366/366 367/367/367 365/365/365
f 368/368/368 365/365/365 367/367/367
f 368/368/368 363/363/363 365/365/365
f 368/368/368 367/367/367 369/369/369
f 370/370/370 368/368/368 369/369/369
f 370/370/370 371/371/371 368/368/368
f 364/364/364 363/363/363 372/372/372
f 368/368/368 372/372/372 363/363/363
f 371/371/371 372/372/372 368/368/368
f 371/371/371 364/364/364 372/372/372
f 373/373/373 375/375/375 374/374/374
f 376/376/376 374/374/374 375/375/375
f 373/373/373 377/377/377 375/375/375
f 378/378/378 377/377/377 373/373/373
f 376/376/376 375/375/375 379/379/379
f 377/377/377 379/379/379 375/375/375
f 380/380/380 376/376/376 379/379/379
f 380/380/380 379/379/379 381/381/381
f 377/377/377 381/381/381 379/379/379
f 378/378/378 382/382/382 377/377/377
f 381/381/381 377/377/377 382/382/382
f 383/383/383 382/382/382 378/378/378
f 381/381/381 382/382/382 384/384/384
f 383/383/383 384/384/384 382/382/382
f 385/385/385 387/387/387 386/386/386
f 385/385/385 388/388/388 387/387/387
f 389/389/389 387/387/387 388/388/388
f 388/388/388 390/390/390 389/389/389
f 391/391/391 389/389/389 390/390/390
f 391/391/391 392/392/392 389/389/389
f 393/393/393 386/386/386 387/387/387
f 394/394/394 389/389/389 392/392/392
f 393/393/393 387/387/387 395/395/395
f 394/394/394 393/393/393 395/395/395
f 395/395/395 387/387/387 389/389/389
f 394/394/394 395/395/395 396/396/396
f 395/395/395 389/389/389 396/396/396
f 394/394/394 396/396/396 389/389/389
