mtllib P_RockClumpClassic6.mtl
v 0.09314919 0.5546348 -0.1773361 1 1 1
v -0.07328555 0.3640929 0.4924397 1 1 1
v -0.2099165 0.5338663 0.3045607 1 1 1
v -0.240176 0.4434593 -1.157303 1 1 1
v -0.9513871 0.4740911 -0.8284972 1 1 1
v -0.7050187 0.3912197 -1.030199 1 1 1
v -0.9513871 0.4740911 -0.8284972 1 1 1
v -1.060045 0.2398981 -0.916381 1 1 1
v -0.7050187 0.3912197 -1.030199 1 1 1
v -0.8155191 0.3065823 0.7470369 1 1 1
v -0.8752249 0.05840173 0.6422507 1 1 1
v -0.782855 0.07625812 0.4901806 1 1 1
v -0.1620538 -0.1455184 1.356357 1 1 1
v 0.3821985 -0.1524653 0.9987127 1 1 1
v 0.3655046 -0.1552765 0.7319887 1 1 1
v 0.1953708 0.01483926 0.3868415 1 1 1
v 0.2052903 -0.1564476 0.60403 1 1 1
v 0.3655046 -0.1552765 0.7319887 1 1 1
v 0.3897294 0.3150783 0.4814515 1 1 1
v 0.1953708 0.01483926 0.3868415 1 1 1
v 0.3854348 0.04565793 0.4738266 1 1 1
v 0.08316236 0.1624853 0.3242698 1 1 1
v -0.2237499 0.1595743 0.4337386 1 1 1
v -0.1638542 0.001913711 0.4896003 1 1 1
v -0.592801 0.1394058 0.4213726 1 1 1
v -0.5796704 -0.0742887 0.5453904 1 1 1
v -0.782855 0.07625812 0.4901806 1 1 1
v -0.8155191 0.3065823 0.7470369 1 1 1
v -0.8752249 0.05840173 0.6422507 1 1 1
v -0.782855 0.07625812 0.4901806 1 1 1
v -0.1620538 -0.1455184 1.356357 1 1 1
v 0.3821985 -0.1524653 0.9987127 1 1 1
v 0.3655046 -0.1552765 0.7319887 1 1 1
v 0.1953708 0.01483926 0.3868415 1 1 1
v 0.2052903 -0.1564476 0.60403 1 1 1
v 0.3655046 -0.1552765 0.7319887 1 1 1
v 0.3897294 0.3150783 0.4814515 1 1 1
v 0.1953708 0.01483926 0.3868415 1 1 1
v 0.3854348 0.04565793 0.4738266 1 1 1
v 0.08316236 0.1624853 0.3242698 1 1 1
v -0.2237499 0.1595743 0.4337386 1 1 1
v -0.1638542 0.001913711 0.4896003 1 1 1
v -0.592801 0.1394058 0.4213726 1 1 1
v -0.5796704 -0.0742887 0.5453904 1 1 1
v -0.782855 0.07625812 0.4901806 1 1 1
v 1.050923 -0.152657 -0.944863 1 1 1
v 0.5745909 -0.1662351 -1.348495 1 1 1
v 0.283439 -0.1661709 -1.274703 1 1 1
v 0.9832327 0.4063552 1.218434 1 1 1
v 1.136286 0.5412119 1.126593 1 1 1
v 1.1496 0.5109127 1.134666 1 1 1
v 0.7767694 0.3127514 1.318157 1 1 1
v 0.5603786 0.5668418 1.162667 1 1 1
v 0.487093 0.4418595 1.270779 1 1 1
v 0.5603786 0.5668418 1.162667 1 1 1
v 1.136286 0.5412119 1.126593 1 1 1
v 0.9832327 0.4063552 1.218434 1 1 1
v 0.1333698 0.704919 0.6170153 1 1 1
v 0.4257046 0.569051 1.150913 1 1 1
v 0.1282536 0.6299472 0.8433219 1 1 1
v -0.2260378 0.6973562 0.4338834 1 1 1
v -0.1802725 0.2989121 0.5680588 1 1 1
v -0.3905361 0.5350719 0.05479372 1 1 1
v -0.04776925 0.306717 0.7243423 1 1 1
v 0.3946154 -0.1487964 0.8858207 1 1 1
v 0.2868677 0.3800303 1.116804 1 1 1
v 0.4477345 0.2457096 1.2365 1 1 1
v 0.3964741 0.3438588 1.239974 1 1 1
v 0.4444209 -0.1489564 0.9397814 1 1 1
v 0.4888232 -0.1018397 0.9962887 1 1 1
v 0.9071392 0.1848335 1.263147 1 1 1
v 0.7767694 0.3127514 1.318157 1 1 1
v -0.2660772 0.7942998 -0.06964454 1 1 1
v -0.427557 0.6469479 -0.02315317 1 1 1
v -0.4256774 0.6398825 -0.1118206 1 1 1
v -0.2660772 0.7942998 -0.06964454 1 1 1
v -0.4256774 0.6398825 -0.1118206 1 1 1
v -0.3017137 0.7637915 -0.2299374 1 1 1
v 0.4888232 -0.1018397 0.9962887 1 1 1
v 0.4477345 0.2457096 1.2365 1 1 1
v 0.9071392 0.1848335 1.263147 1 1 1
v 0.4883069 -0.3321455 0.7172502 1 1 1
v 0.4444209 -0.1489564 0.9397814 1 1 1
v 0.3946154 -0.1487964 0.8858207 1 1 1
v 0.4128618 -0.403469 0.4689959 1 1 1
v 0.9472925 -0.3848363 0.4092264 1 1 1
v 0.5682269 -0.4270013 0.3420189 1 1 1
v 0.3937598 -0.3822986 0.2767404 1 1 1
v 0.2403214 -0.291933 0.2970842 1 1 1
v 0.5138695 -0.3822976 0.06028011 1 1 1
v 0.244313 -0.279066 0.1436326 1 1 1
v 0.4673981 -0.3208282 -0.08796236 1 1 1
v 0.2449869 -0.2320125 -0.04379874 1 1 1
v 0.06396902 0.2270101 -0.2691393 1 1 1
v 0.5695614 0.1456809 -0.483741 1 1 1
v 0.5355029 0.2529373 -0.5733554 1 1 1
v 0.06396902 0.2270101 -0.2691393 1 1 1
v 0.5355029 0.2529373 -0.5733554 1 1 1
v 0.2717859 0.33572 -0.5390658 1 1 1
v -1.189509 -0.3424904 0.02063784 1 1 1
v -1.460236 -0.3494373 0.6129445 1 1 1
v -1.304259 -0.3522485 0.8299501 1 1 1
v -1.191542 0.1181063 1.055007 1 1 1
v -1.004421 0.2718889 0.8653816 1 1 1
v -0.9634404 0.1500022 1.036293 1 1 1
v -0.6648135 0.2894747 0.3799808 1 1 1
v -0.6535269 0.2352132 0.5823408 1 1 1
v -0.4782403 0.2246954 0.3406935 1 1 1
v -0.5232145 0.1986848 0.5206585 1 1 1
v -1.191542 0.1181063 1.055007 1 1 1
v -0.9766315 -0.1821328 1.031773 1 1 1
v -1.18385 -0.1513141 1.059181 1 1 1
v 0.3155038 0.5051823 -0.463832 1 1 1
v 0.006116688 0.5219001 -0.7824984 1 1 1
v 0.2972409 0.3345101 -0.8239468 1 1 1
v -0.1920815 0.3561772 -1.20535 1 1 1
v -0.1920815 0.3561772 -1.20535 1 1 1
v 0.006116688 0.5219001 -0.7824984 1 1 1
v -0.240176 0.4434593 -1.157303 1 1 1
v -0.8368297 -0.380183 -1.165202 1 1 1
v -0.7050187 0.3912197 -1.030199 1 1 1
v -1.017421 -0.2587869 -1.059953 1 1 1
v -1.060045 0.2398981 -0.916381 1 1 1
v -0.2033392 0.234452 -1.231339 1 1 1
v -0.42941 -0.3660484 -1.291261 1 1 1
v 0.2972409 0.3345101 -0.8239468 1 1 1
v 0.426133 0.03960921 -0.7536184 1 1 1
v -0.2099165 0.5338663 0.3045607 1 1 1
v -0.07328555 0.3640929 0.4924397 1 1 1
v -0.2858196 0.4539647 0.5163609 1 1 1
v -0.5265875 0.4512704 0.5787401 1 1 1
v -0.3100511 0.5836951 0.161912 1 1 1
v 0.09314919 0.5546348 -0.1773361 1 1 1
v -0.713448 0.580619 0.05846024 1 1 1
v -1.219909 0.4413821 0.1568194 1 1 1
v -0.1043486 0.6021397 -0.3125933 1 1 1
v 0.3155038 0.5051823 -0.463832 1 1 1
v 0.006116688 0.5219001 -0.7824984 1 1 1
v -1.355053 0.4692276 -0.2371008 1 1 1
v -1.414268 0.302731 0.01523238 1 1 1
v -0.6638899 0.6039396 -0.3839802 1 1 1
v -0.3605675 0.5585128 -0.7399279 1 1 1
v -0.240176 0.4434593 -1.157303 1 1 1
v -0.9513871 0.4740911 -0.8284972 1 1 1
v -1.202071 0.409008 -0.6175744 1 1 1
v -0.5265875 0.4512704 0.5787401 1 1 1
v -0.2858196 0.4539647 0.5163609 1 1 1
v -0.6055406 0.2173395 0.7108793 1 1 1
v -0.07328555 0.3640929 0.4924397 1 1 1
v -0.1755165 -0.03879178 0.6828812 1 1 1
v -0.5083671 -0.08691196 0.7800465 1 1 1
v 0.1142989 -0.1659403 0.3863411 1 1 1
v -0.02159667 -0.1636034 0.5272745 1 1 1
v 0.4295856 0.3025368 -0.1398844 1 1 1
v 0.09314919 0.5546348 -0.1773361 1 1 1
v 0.3370047 -0.1917969 -0.001394212 1 1 1
v 0.3155038 0.5051823 -0.463832 1 1 1
v 0.4841986 0.1929643 -0.2415531 1 1 1
v 0.5044333 0.08883846 -0.4115055 1 1 1
v 0.2972409 0.3345101 -0.8239468 1 1 1
v 0.426133 0.03960921 -0.7536184 1 1 1
v -0.5083671 -0.08691196 0.7800465 1 1 1
v -0.663937 -0.2730106 0.6976005 1 1 1
v -0.6055406 0.2173395 0.7108793 1 1 1
v -0.826497 -0.3016371 0.6045078 1 1 1
v -1.247226 0.3559012 0.2269628 1 1 1
v -0.9571143 -0.4562892 0.4037851 1 1 1
v -1.414268 0.302731 0.01523238 1 1 1
v -1.264306 -0.4841914 0.04573616 1 1 1
v -1.219909 0.4413821 0.1568194 1 1 1
v -0.5265875 0.4512704 0.5787401 1 1 1
v -0.6055406 0.2173395 0.7108793 1 1 1
v -1.247226 0.3559012 0.2269628 1 1 1
v -1.414268 0.302731 0.01523238 1 1 1
v -1.195881 -0.5045471 -0.4199011 1 1 1
v -1.414268 0.302731 0.01523238 1 1 1
v -1.264306 -0.4841914 0.04573616 1 1 1
v -1.355053 0.4692276 -0.2371008 1 1 1
v -1.140375 -0.3834845 -0.7182904 1 1 1
v -1.024833 -0.5568024 -0.6095685 1 1 1
v -0.7353375 -0.5454242 -1.064645 1 1 1
v -1.202071 0.409008 -0.6175744 1 1 1
v -1.017421 -0.2587869 -1.059953 1 1 1
v -0.8368297 -0.380183 -1.165202 1 1 1
v -1.060045 0.2398981 -0.916381 1 1 1
v -0.9513871 0.4740911 -0.8284972 1 1 1
v -0.663937 -0.2730106 0.6976005 1 1 1
v -0.9571143 -0.4562892 0.4037851 1 1 1
v -0.826497 -0.3016371 0.6045078 1 1 1
v -0.9281519 -0.5099674 0.3389628 1 1 1
v -1.264306 -0.4841914 0.04573616 1 1 1
v -1.139885 -0.5562374 0.02292773 1 1 1
v -1.195881 -0.5045471 -0.4199011 1 1 1
v -1.024833 -0.5568024 -0.6095685 1 1 1
v -0.5080261 -0.4519528 0.440002 1 1 1
v -0.4259592 -0.3776362 0.5388556 1 1 1
v 0.1612624 -0.3945009 -0.3299482 1 1 1
v -0.5083671 -0.08691196 0.7800465 1 1 1
v 0.1142989 -0.1659403 0.3863411 1 1 1
v 0.3370047 -0.1917969 -0.001394212 1 1 1
v -0.02159667 -0.1636034 0.5272745 1 1 1
v -0.1755165 -0.03879178 0.6828812 1 1 1
v 0.1612624 -0.3945009 -0.3299482 1 1 1
v 0.3370047 -0.1917969 -0.001394212 1 1 1
v 0.5044333 0.08883846 -0.4115055 1 1 1
v 0.1368899 -0.4164117 -0.7580418 1 1 1
v 0.3022539 -0.1671095 -0.8012829 1 1 1
v 0.426133 0.03960921 -0.7536184 1 1 1
v -0.402532 -0.5163215 -1.162976 1 1 1
v -0.5283745 -0.5200048 -0.4053868 1 1 1
v -0.5080261 -0.4519528 0.440002 1 1 1
v -0.9281519 -0.5099674 0.3389628 1 1 1
v -0.7353375 -0.5454242 -1.064645 1 1 1
v -1.139885 -0.5562374 0.02292773 1 1 1
v -1.024833 -0.5568024 -0.6095685 1 1 1
v 0.1368899 -0.4164117 -0.7580418 1 1 1
v 0.3022539 -0.1671095 -0.8012829 1 1 1
v -0.402532 -0.5163215 -1.162976 1 1 1
v -0.42941 -0.3660484 -1.291261 1 1 1
v -0.7353375 -0.5454242 -1.064645 1 1 1
v -0.8368297 -0.380183 -1.165202 1 1 1
v 0.426133 0.03960921 -0.7536184 1 1 1
v -0.2033392 0.234452 -1.231339 1 1 1
v -0.592801 0.1394058 0.4213726 1 1 1
v -0.2237499 0.1595743 0.4337386 1 1 1
v -0.4604222 0.3956568 0.5785741 1 1 1
v -0.3172615 0.4321852 0.5956348 1 1 1
v 0.08316236 0.1624853 0.3242698 1 1 1
v 0.186603 0.3469741 0.3759991 1 1 1
v -0.8155191 0.3065823 0.7470369 1 1 1
v -0.5942126 0.4216674 0.7070662 1 1 1
v -0.8828028 0.3079569 1.007028 1 1 1
v -0.415315 0.4864467 0.7730113 1 1 1
v -0.7959054 0.3402176 1.197445 1 1 1
v -0.4350457 0.4631783 1.215657 1 1 1
v 0.2171893 0.4411748 1.099971 1 1 1
v -0.2694168 0.4576552 1.26987 1 1 1
v 0.1304203 0.468861 0.5425333 1 1 1
v 0.3271286 0.4567264 0.7069454 1 1 1
v 0.4655514 0.3898047 0.7258953 1 1 1
v 0.3897294 0.3150783 0.4814515 1 1 1
v -0.8155191 0.3065823 0.7470369 1 1 1
v -0.782855 0.07625812 0.4901806 1 1 1
v -0.5942126 0.4216674 0.7070662 1 1 1
v -0.592801 0.1394058 0.4213726 1 1 1
v -0.4604222 0.3956568 0.5785741 1 1 1
v -0.3172615 0.4321852 0.5956348 1 1 1
v -0.415315 0.4864467 0.7730113 1 1 1
v 0.1304203 0.468861 0.5425333 1 1 1
v 0.186603 0.3469741 0.3759991 1 1 1
v 0.3897294 0.3150783 0.4814515 1 1 1
v -0.8828028 0.3079569 1.007028 1 1 1
v -0.8752249 0.05840173 0.6422507 1 1 1
v -0.8155191 0.3065823 0.7470369 1 1 1
v -0.9323307 0.006845281 0.8183477 1 1 1
v -0.9121206 -0.01676677 0.8827153 1 1 1
v -0.9121206 -0.01676677 0.8827153 1 1 1
v -0.8752249 0.05840173 0.6422507 1 1 1
v -0.9323307 0.006845281 0.8183477 1 1 1
v -0.5654637 -0.1577375 0.703503 1 1 1
v -0.782855 0.07625812 0.4901806 1 1 1
v -0.5796704 -0.0742887 0.5453904 1 1 1
v -0.1476249 -0.1698831 0.7101015 1 1 1
v -0.1638542 0.001913711 0.4896003 1 1 1
v 0.2052903 -0.1564476 0.60403 1 1 1
v 0.1953708 0.01483926 0.3868415 1 1 1
v 0.3655046 -0.1552765 0.7319887 1 1 1
v 0.3854348 0.04565793 0.4738266 1 1 1
v 0.4590717 -0.09026331 0.7233964 1 1 1
v 0.4590717 -0.09026331 0.7233964 1 1 1
v 0.5264791 -0.04017271 1.04365 1 1 1
v 0.5144875 0.2417672 0.9205494 1 1 1
v 0.4413795 0.02213003 1.220577 1 1 1
v 0.3466872 0.2382753 1.252968 1 1 1
v 0.4590717 -0.09026331 0.7233964 1 1 1
v 0.3897294 0.3150783 0.4814515 1 1 1
v 0.3854348 0.04565793 0.4738266 1 1 1
v 0.5144875 0.2417672 0.9205494 1 1 1
v 0.4655514 0.3898047 0.7258953 1 1 1
v 0.4655514 0.3898047 0.7258953 1 1 1
v 0.5144875 0.2417672 0.9205494 1 1 1
v 0.2171893 0.4411748 1.099971 1 1 1
v 0.3466872 0.2382753 1.252968 1 1 1
v -0.1271562 0.2770108 1.397026 1 1 1
v -0.2694168 0.4576552 1.26987 1 1 1
v 0.3897294 0.3150783 0.4814515 1 1 1
v 0.186603 0.3469741 0.3759991 1 1 1
v 0.1953708 0.01483926 0.3868415 1 1 1
v 0.08316236 0.1624853 0.3242698 1 1 1
v 0.3466872 0.2382753 1.252968 1 1 1
v 0.4413795 0.02213003 1.220577 1 1 1
v -0.1271562 0.2770108 1.397026 1 1 1
v -0.1587757 -0.1130841 1.400663 1 1 1
v -0.4600705 0.04333399 1.44715 1 1 1
v -0.1271562 0.2770108 1.397026 1 1 1
v -0.4600705 0.04333399 1.44715 1 1 1
v -0.2694168 0.4576552 1.26987 1 1 1
v -0.7959054 0.3402176 1.197445 1 1 1
v -0.4350457 0.4631783 1.215657 1 1 1
v -0.7127039 0.08073618 1.357879 1 1 1
v -0.1587757 -0.1130841 1.400663 1 1 1
v -0.7127039 0.08073618 1.357879 1 1 1
v -0.4600705 0.04333399 1.44715 1 1 1
v -0.5034992 -0.1157785 1.218342 1 1 1
v -0.7705255 -0.006433785 1.212871 1 1 1
v -0.9121206 -0.01676677 0.8827153 1 1 1
v -0.5654637 -0.1577375 0.703503 1 1 1
v -0.1620538 -0.1455184 1.356357 1 1 1
v -0.1476249 -0.1698831 0.7101015 1 1 1
v 0.3655046 -0.1552765 0.7319887 1 1 1
v 0.4413795 0.02213003 1.220577 1 1 1
v 0.3821985 -0.1524653 0.9987127 1 1 1
v 0.4590717 -0.09026331 0.7233964 1 1 1
v 0.5264791 -0.04017271 1.04365 1 1 1
v -0.7127039 0.08073618 1.357879 1 1 1
v -0.8828028 0.3079569 1.007028 1 1 1
v -0.7959054 0.3402176 1.197445 1 1 1
v -0.9121206 -0.01676677 0.8827153 1 1 1
v -0.7705255 -0.006433785 1.212871 1 1 1
v -0.592801 0.1394058 0.4213726 1 1 1
v -0.2237499 0.1595743 0.4337386 1 1 1
v -0.4604222 0.3956568 0.5785741 1 1 1
v -0.3172615 0.4321852 0.5956348 1 1 1
v 0.08316236 0.1624853 0.3242698 1 1 1
v 0.186603 0.3469741 0.3759991 1 1 1
v -0.8155191 0.3065823 0.7470369 1 1 1
v -0.5942126 0.4216674 0.7070662 1 1 1
v -0.8828028 0.3079569 1.007028 1 1 1
v -0.415315 0.4864467 0.7730113 1 1 1
v -0.7959054 0.3402176 1.197445 1 1 1
v -0.4350457 0.4631783 1.215657 1 1 1
v 0.2171893 0.4411748 1.099971 1 1 1
v -0.2694168 0.4576552 1.26987 1 1 1
v 0.1304203 0.468861 0.5425333 1 1 1
v 0.3271286 0.4567264 0.7069454 1 1 1
v 0.4655514 0.3898047 0.7258953 1 1 1
v 0.3897294 0.3150783 0.4814515 1 1 1
v -0.8155191 0.3065823 0.7470369 1 1 1
v -0.782855 0.07625812 0.4901806 1 1 1
v -0.5942126 0.4216674 0.7070662 1 1 1
v -0.592801 0.1394058 0.4213726 1 1 1
v -0.4604222 0.3956568 0.5785741 1 1 1
v -0.3172615 0.4321852 0.5956348 1 1 1
v -0.415315 0.4864467 0.7730113 1 1 1
v 0.1304203 0.468861 0.5425333 1 1 1
v 0.186603 0.3469741 0.3759991 1 1 1
v 0.3897294 0.3150783 0.4814515 1 1 1
v -0.8828028 0.3079569 1.007028 1 1 1
v -0.8752249 0.05840173 0.6422507 1 1 1
v -0.8155191 0.3065823 0.7470369 1 1 1
v -0.9323307 0.006845281 0.8183477 1 1 1
v -0.9121206 -0.01676677 0.8827153 1 1 1
v -0.9121206 -0.01676677 0.8827153 1 1 1
v -0.8752249 0.05840173 0.6422507 1 1 1
v -0.9323307 0.006845281 0.8183477 1 1 1
v -0.5654637 -0.1577375 0.703503 1 1 1
v -0.782855 0.07625812 0.4901806 1 1 1
v -0.5796704 -0.0742887 0.5453904 1 1 1
v -0.1476249 -0.1698831 0.7101015 1 1 1
v -0.1638542 0.001913711 0.4896003 1 1 1
v 0.2052903 -0.1564476 0.60403 1 1 1
v 0.1953708 0.01483926 0.3868415 1 1 1
v 0.3655046 -0.1552765 0.7319887 1 1 1
v 0.3854348 0.04565793 0.4738266 1 1 1
v 0.4590717 -0.09026331 0.7233964 1 1 1
v 0.4590717 -0.09026331 0.7233964 1 1 1
v 0.5264791 -0.04017271 1.04365 1 1 1
v 0.5144875 0.2417672 0.9205494 1 1 1
v 0.4413795 0.02213003 1.220577 1 1 1
v 0.3466872 0.2382753 1.252968 1 1 1
v 0.4590717 -0.09026331 0.7233964 1 1 1
v 0.3897294 0.3150783 0.4814515 1 1 1
v 0.3854348 0.04565793 0.4738266 1 1 1
v 0.5144875 0.2417672 0.9205494 1 1 1
v 0.4655514 0.3898047 0.7258953 1 1 1
v 0.4655514 0.3898047 0.7258953 1 1 1
v 0.5144875 0.2417672 0.9205494 1 1 1
v 0.2171893 0.4411748 1.099971 1 1 1
v 0.3466872 0.2382753 1.252968 1 1 1
v -0.1271562 0.2770108 1.397026 1 1 1
v -0.2694168 0.4576552 1.26987 1 1 1
v 0.3897294 0.3150783 0.4814515 1 1 1
v 0.186603 0.3469741 0.3759991 1 1 1
v 0.1953708 0.01483926 0.3868415 1 1 1
v 0.08316236 0.1624853 0.3242698 1 1 1
v 0.3466872 0.2382753 1.252968 1 1 1
v 0.4413795 0.02213003 1.220577 1 1 1
v -0.1271562 0.2770108 1.397026 1 1 1
v -0.1587757 -0.1130841 1.400663 1 1 1
v -0.4600705 0.04333399 1.44715 1 1 1
v -0.1271562 0.2770108 1.397026 1 1 1
v -0.4600705 0.04333399 1.44715 1 1 1
v -0.2694168 0.4576552 1.26987 1 1 1
v -0.7959054 0.3402176 1.197445 1 1 1
v -0.4350457 0.4631783 1.215657 1 1 1
v -0.7127039 0.08073618 1.357879 1 1 1
v -0.1587757 -0.1130841 1.400663 1 1 1
v -0.7127039 0.08073618 1.357879 1 1 1
v -0.4600705 0.04333399 1.44715 1 1 1
v -0.5034992 -0.1157785 1.218342 1 1 1
v -0.7705255 -0.006433785 1.212871 1 1 1
v -0.9121206 -0.01676677 0.8827153 1 1 1
v -0.5654637 -0.1577375 0.703503 1 1 1
v -0.1620538 -0.1455184 1.356357 1 1 1
v -0.1476249 -0.1698831 0.7101015 1 1 1
v 0.3655046 -0.1552765 0.7319887 1 1 1
v 0.4413795 0.02213003 1.220577 1 1 1
v 0.3821985 -0.1524653 0.9987127 1 1 1
v 0.4590717 -0.09026331 0.7233964 1 1 1
v 0.5264791 -0.04017271 1.04365 1 1 1
v -0.7127039 0.08073618 1.357879 1 1 1
v -0.8828028 0.3079569 1.007028 1 1 1
v -0.7959054 0.3402176 1.197445 1 1 1
v -0.9121206 -0.01676677 0.8827153 1 1 1
v -0.7705255 -0.006433785 1.212871 1 1 1
v 0.2387505 0.3882909 -0.650798 1 1 1
v 0.04542971 0.1371971 -0.6924714 1 1 1
v -0.1216296 0.1350141 -0.9405954 1 1 1
v -0.07975885 0.3022866 -1.047511 1 1 1
v 0.2387505 0.3882909 -0.650798 1 1 1
v 0.2415555 0.3575566 -0.5192984 1 1 1
v 0.04542971 0.1371971 -0.6924714 1 1 1
v 0.08771014 0.1257511 -0.3619613 1 1 1
v 0.04542971 0.1371971 -0.6924714 1 1 1
v 0.09734052 -0.009437531 -0.7547572 1 1 1
v -0.07023048 -0.00345993 -1.050971 1 1 1
v -0.1216296 0.1350141 -0.9405954 1 1 1
v 0.04542971 0.1371971 -0.6924714 1 1 1
v 0.08771014 0.1257511 -0.3619613 1 1 1
v 0.09734052 -0.009437531 -0.7547572 1 1 1
v 0.2215728 -0.07213116 -0.3966885 1 1 1
v 0.1920844 0.07067105 -0.207297 1 1 1
v 0.08771014 0.1257511 -0.3619613 1 1 1
v 0.2415555 0.3575566 -0.5192984 1 1 1
v 0.4034028 0.3828924 -0.4295312 1 1 1
v 0.1920844 0.07067105 -0.207297 1 1 1
v 0.4805958 0.2808869 -0.2397235 1 1 1
v 0.3734685 0.05466809 -0.1585946 1 1 1
v 0.2387505 0.3882909 -0.650798 1 1 1
v 0.4034028 0.3828924 -0.4295312 1 1 1
v 0.2415555 0.3575566 -0.5192984 1 1 1
v 0.4490943 0.4385057 -0.6041024 1 1 1
v 0.1125181 0.4140018 -1.036928 1 1 1
v -0.07975885 0.3022866 -1.047511 1 1 1
v 0.005443573 0.2681768 -1.250349 1 1 1
v 0.4805958 0.2808869 -0.2397235 1 1 1
v 0.4034028 0.3828924 -0.4295312 1 1 1
v 0.7770643 0.2811522 -0.2375054 1 1 1
v 0.4490943 0.4385057 -0.6041024 1 1 1
v 0.9736493 0.3075113 -0.3573086 1 1 1
v 0.9393823 0.4136059 -0.6839216 1 1 1
v 0.7130327 0.3820156 -1.23649 1 1 1
v 0.9739392 0.4049119 -0.8427098 1 1 1
v 1.091784 0.2349525 -0.9933445 1 1 1
v 0.8611916 0.1916027 -1.381063 1 1 1
v 0.1125181 0.4140018 -1.036928 1 1 1
v 0.263675 0.3976735 -1.247498 1 1 1
v 0.2633321 0.3333316 -1.373121 1 1 1
v 0.005443573 0.2681768 -1.250349 1 1 1
v 0.7770643 0.2811522 -0.2375054 1 1 1
v 0.3734685 0.05466809 -0.1585946 1 1 1
v 0.4805958 0.2808869 -0.2397235 1 1 1
v 0.5758501 0.006790347 -0.1458007 1 1 1
v 0.6435801 -0.01587339 -0.1774714 1 1 1
v 0.3734685 0.05466809 -0.1585946 1 1 1
v 0.5758501 0.006790347 -0.1458007 1 1 1
v 0.3932357 -0.1505369 -0.4425351 1 1 1
v 0.1920844 0.07067105 -0.207297 1 1 1
v 0.2215728 -0.07213116 -0.3966885 1 1 1
v 0.3371018 -0.1696867 -0.8143955 1 1 1
v 0.09734052 -0.009437531 -0.7547572 1 1 1
v 0.1668416 -0.1630914 -1.10429 1 1 1
v 0.283439 -0.1661709 -1.274703 1 1 1
v -0.07023048 -0.00345993 -1.050971 1 1 1
v 0.6435801 -0.01587339 -0.1774714 1 1 1
v 0.5758501 0.006790347 -0.1458007 1 1 1
v 0.7770643 0.2811522 -0.2375054 1 1 1
v 1.136833 0.06586901 -0.4613126 1 1 1
v 0.9856576 -0.01194201 -0.3762235 1 1 1
v 0.9736493 0.3075113 -0.3573086 1 1 1
v 0.2600018 -0.1080727 -1.357118 1 1 1
v -0.003176868 0.02052193 -1.239409 1 1 1
v 0.283439 -0.1661709 -1.274703 1 1 1
v -0.07023048 -0.00345993 -1.050971 1 1 1
v 0.005443573 0.2681768 -1.250349 1 1 1
v 0.1668416 -0.1630914 -1.10429 1 1 1
v 0.2600018 -0.1080727 -1.357118 1 1 1
v 0.005443573 0.2681768 -1.250349 1 1 1
v -0.003176868 0.02052193 -1.239409 1 1 1
v 0.4697522 0.1945415 -1.456543 1 1 1
v 0.2633321 0.3333316 -1.373121 1 1 1
v 0.6025553 -0.06608073 -1.488678 1 1 1
v 0.810467 -0.008711576 -1.453536 1 1 1
v 0.8611916 0.1916027 -1.381063 1 1 1
v 0.2633321 0.3333316 -1.373121 1 1 1
v 0.4697522 0.1945415 -1.456543 1 1 1
v 0.7130327 0.3820156 -1.23649 1 1 1
v 0.8611916 0.1916027 -1.381063 1 1 1
v 0.005443573 0.2681768 -1.250349 1 1 1
v -0.07975885 0.3022866 -1.047511 1 1 1
v -0.07023048 -0.00345993 -1.050971 1 1 1
v -0.1216296 0.1350141 -0.9405954 1 1 1
v 0.8611916 0.1916027 -1.381063 1 1 1
v 0.810467 -0.008711576 -1.453536 1 1 1
v 1.091784 0.2349525 -0.9933445 1 1 1
v 1.099315 -0.1232749 -0.958215 1 1 1
v 1.196694 0.0258977 -0.7043802 1 1 1
v 1.091784 0.2349525 -0.9933445 1 1 1
v 1.196694 0.0258977 -0.7043802 1 1 1
v 0.9739392 0.4049119 -0.8427098 1 1 1
v 0.9736493 0.3075113 -0.3573086 1 1 1
v 0.9393823 0.4136059 -0.6839216 1 1 1
v 1.136833 0.06586901 -0.4613126 1 1 1
v 1.099315 -0.1232749 -0.958215 1 1 1
v 1.136833 0.06586901 -0.4613126 1 1 1
v 1.196694 0.0258977 -0.7043802 1 1 1
v 0.9508347 -0.1176232 -0.6120906 1 1 1
v 0.9856576 -0.01194201 -0.3762235 1 1 1
v 0.6435801 -0.01587339 -0.1774714 1 1 1
v 0.3932357 -0.1505369 -0.4425351 1 1 1
v 1.050923 -0.152657 -0.944863 1 1 1
v 0.3371018 -0.1696867 -0.8143955 1 1 1
v 0.283439 -0.1661709 -1.274703 1 1 1
v 0.810467 -0.008711576 -1.453536 1 1 1
v 0.5745909 -0.1662351 -1.348495 1 1 1
v 0.2600018 -0.1080727 -1.357118 1 1 1
v 0.6025553 -0.06608073 -1.488678 1 1 1
v 0.9071392 0.1848335 1.263147 1 1 1
v 0.7767694 0.3127514 1.318157 1 1 1
v 0.9832327 0.4063552 1.218434 1 1 1
v 1.085808 0.1920367 1.177293 1 1 1
v 1.1496 0.5109127 1.134666 1 1 1
v 1.440357 0.2307268 0.8504261 1 1 1
v 1.327993 0.131231 0.9477965 1 1 1
v 1.315269 0.09021328 0.9206604 1 1 1
v 1.211798 0.5455257 1.06497 1 1 1
v 1.136286 0.5412119 1.126593 1 1 1
v 1.445116 0.4638479 0.6781881 1 1 1
v 1.470225 0.3250478 0.7473752 1 1 1
v 1.469197 0.5625492 0.1550227 1 1 1
v 1.521657 0.2106816 0.4807221 1 1 1
v 1.491262 0.4942757 0.1268079 1 1 1
v 1.516273 0.3265711 0.2862296 1 1 1
v 0.5603786 0.5668418 1.162667 1 1 1
v 0.4257046 0.569051 1.150913 1 1 1
v 0.1333698 0.704919 0.6170153 1 1 1
v 0.8877727 0.657513 0.7369113 1 1 1
v 1.136286 0.5412119 1.126593 1 1 1
v 1.169214 0.6156342 0.8609601 1 1 1
v 1.211798 0.5455257 1.06497 1 1 1
v 1.411622 0.6363434 0.05219626 1 1 1
v 1.445116 0.4638479 0.6781881 1 1 1
v 0.8592775 0.7084044 0.1654169 1 1 1
v 0.05212754 0.7629908 0.04023614 1 1 1
v 1.320223 0.6664528 -0.2022273 1 1 1
v 1.375775 0.6399015 -0.1412877 1 1 1
v -0.2595587 0.7410184 0.3045193 1 1 1
v 0.01838702 0.6795813 0.6885178 1 1 1
v 0.1282536 0.6299472 0.8433219 1 1 1
v -0.2660772 0.7942998 -0.06964454 1 1 1
v 0.1161447 0.7616108 -0.2424185 1 1 1
v -0.3017137 0.7637915 -0.2299374 1 1 1
v -0.04469174 0.7132642 -0.5037806 1 1 1
v 0.6639228 0.736287 -0.4289232 1 1 1
v 0.1799082 0.6862648 -0.6465508 1 1 1
v 0.6318151 0.6962997 -0.6323137 1 1 1
v 1.155797 0.6481524 -0.4670667 1 1 1
v 0.1282536 0.6299472 0.8433219 1 1 1
v -0.1490407 0.6749664 0.5514878 1 1 1
v 0.01838702 0.6795813 0.6885178 1 1 1
v -0.04776925 0.306717 0.7243423 1 1 1
v -0.1802725 0.2989121 0.5680588 1 1 1
v -0.2260378 0.6973562 0.4338834 1 1 1
v 0.2868677 0.3800303 1.116804 1 1 1
v 0.487093 0.4418595 1.270779 1 1 1
v 0.3964741 0.3438588 1.239974 1 1 1
v 0.4257046 0.569051 1.150913 1 1 1
v 0.5603786 0.5668418 1.162667 1 1 1
v 0.4477345 0.2457096 1.2365 1 1 1
v 0.7767694 0.3127514 1.318157 1 1 1
v -0.3193715 0.7368332 0.1515881 1 1 1
v -0.2595587 0.7410184 0.3045193 1 1 1
v -0.3905361 0.5350719 0.05479372 1 1 1
v -0.427557 0.6469479 -0.02315317 1 1 1
v -0.2260378 0.6973562 0.4338834 1 1 1
v 0.01838702 0.6795813 0.6885178 1 1 1
v -0.1490407 0.6749664 0.5514878 1 1 1
v -0.2595587 0.7410184 0.3045193 1 1 1
v -0.3193715 0.7368332 0.1515881 1 1 1
v -0.2660772 0.7942998 -0.06964454 1 1 1
v -0.427557 0.6469479 -0.02315317 1 1 1
v -0.3905361 0.5350719 0.05479372 1 1 1
v -0.4256774 0.6398825 -0.1118206 1 1 1
v -0.427557 0.6469479 -0.02315317 1 1 1
v -0.2384649 0.2915621 0.2610453 1 1 1
v -0.1802725 0.2989121 0.5680588 1 1 1
v -0.3766598 0.5983805 -0.2049429 1 1 1
v 0.3946154 -0.1487964 0.8858207 1 1 1
v -0.1954308 0.3524685 -0.1591471 1 1 1
v 0.2403214 -0.291933 0.2970842 1 1 1
v 0.4128618 -0.403469 0.4689959 1 1 1
v 0.244313 -0.279066 0.1436326 1 1 1
v 0.1539172 -0.1051056 -0.09891936 1 1 1
v 0.2449869 -0.2320125 -0.04379874 1 1 1
v -0.3766598 0.5983805 -0.2049429 1 1 1
v -0.3017137 0.7637915 -0.2299374 1 1 1
v -0.4256774 0.6398825 -0.1118206 1 1 1
v -0.1099064 0.6376148 -0.4599623 1 1 1
v -0.04469174 0.7132642 -0.5037806 1 1 1
v 0.2717859 0.33572 -0.5390658 1 1 1
v -0.1954308 0.3524685 -0.1591471 1 1 1
v 0.1878444 0.5645703 -0.6521316 1 1 1
v 0.1799082 0.6862648 -0.6465508 1 1 1
v 0.2374068 0.5949695 -0.6849376 1 1 1
v 0.06396902 0.2270101 -0.2691393 1 1 1
v 0.1539172 -0.1051056 -0.09891936 1 1 1
v 0.6127007 -0.1144012 -0.3465298 1 1 1
v 0.5695614 0.1456809 -0.483741 1 1 1
v 0.2717859 0.33572 -0.5390658 1 1 1
v 0.2374068 0.5949695 -0.6849376 1 1 1
v 0.1878444 0.5645703 -0.6521316 1 1 1
v 0.5355029 0.2529373 -0.5733554 1 1 1
v 0.6867761 0.3725055 -0.707602 1 1 1
v 0.6835153 0.2664911 -0.6061339 1 1 1
v 0.5695614 0.1456809 -0.483741 1 1 1
v 0.7978122 0.2054594 -0.5579867 1 1 1
v 0.8603662 0.3550253 -0.6464594 1 1 1
v 1.118324 0.4228087 -0.5601538 1 1 1
v 0.7478186 -0.04284708 -0.4040833 1 1 1
v 0.6127007 -0.1144012 -0.3465298 1 1 1
v 0.5661447 -0.2248943 -0.2309469 1 1 1
v 0.6858984 -0.1787732 -0.2587533 1 1 1
v 0.8991425 0.1608546 -0.5126238 1 1 1
v 1.199634 0.2973132 -0.4328763 1 1 1
v 1.181256 0.6215886 -0.4640996 1 1 1
v 1.424197 0.4102218 -0.07817483 1 1 1
v 1.278685 0.1562635 -0.09850269 1 1 1
v 1.45278 0.5168077 -0.02350187 1 1 1
v 1.375775 0.6399015 -0.1412877 1 1 1
v 1.491262 0.4942757 0.1268079 1 1 1
v 1.516273 0.3265711 0.2862296 1 1 1
v 1.521657 0.2106816 0.4807221 1 1 1
v 1.313145 -0.08206426 0.3415866 1 1 1
v 1.199634 0.2973132 -0.4328763 1 1 1
v 0.7478186 -0.04284708 -0.4040833 1 1 1
v 1.278685 0.1562635 -0.09850269 1 1 1
v 0.6858984 -0.1787732 -0.2587533 1 1 1
v 0.8132256 -0.3895324 0.2365326 1 1 1
v 1.313145 -0.08206426 0.3415866 1 1 1
v 1.075795 -0.3194877 0.4508262 1 1 1
v 0.9472925 -0.3848363 0.4092264 1 1 1
v 0.5682269 -0.4270013 0.3420189 1 1 1
v 0.5138695 -0.3822976 0.06028011 1 1 1
v 0.5661447 -0.2248943 -0.2309469 1 1 1
v 0.4673981 -0.3208282 -0.08796236 1 1 1
v 0.2449869 -0.2320125 -0.04379874 1 1 1
v 0.4673981 -0.3208282 -0.08796236 1 1 1
v 0.5661447 -0.2248943 -0.2309469 1 1 1
v 0.6127007 -0.1144012 -0.3465298 1 1 1
v 0.1539172 -0.1051056 -0.09891936 1 1 1
v 1.327993 0.131231 0.9477965 1 1 1
v 1.315269 0.09021328 0.9206604 1 1 1
v 1.085808 0.1920367 1.177293 1 1 1
v 0.9071392 0.1848335 1.263147 1 1 1
v 0.4888232 -0.1018397 0.9962887 1 1 1
v 1.075795 -0.3194877 0.4508262 1 1 1
v 0.4883069 -0.3321455 0.7172502 1 1 1
v 0.9472925 -0.3848363 0.4092264 1 1 1
v 1.313145 -0.08206426 0.3415866 1 1 1
v 1.521657 0.2106816 0.4807221 1 1 1
v 1.440357 0.2307268 0.8504261 1 1 1
v 1.411622 0.6363434 0.05219626 1 1 1
v 1.469197 0.5625492 0.1550227 1 1 1
v 1.445116 0.4638479 0.6781881 1 1 1
v 1.375775 0.6399015 -0.1412877 1 1 1
v 1.491262 0.4942757 0.1268079 1 1 1
v 1.45278 0.5168077 -0.02350187 1 1 1
v 1.181256 0.6215886 -0.4640996 1 1 1
v 1.375775 0.6399015 -0.1412877 1 1 1
v 1.320223 0.6664528 -0.2022273 1 1 1
v 1.155797 0.6481524 -0.4670667 1 1 1
v 0.6318151 0.6962997 -0.6323137 1 1 1
v 1.118324 0.4228087 -0.5601538 1 1 1
v -0.8483298 -0.03448666 1.025094 1 1 1
v -0.6466259 -0.03739768 0.7691752 1 1 1
v -0.9766315 -0.1821328 1.031773 1 1 1
v -0.7270568 -0.1950583 0.7537189 1 1 1
v -0.3275082 -0.05756619 0.5833923 1 1 1
v -0.404579 -0.2712607 0.4853467 1 1 1
v -0.2031464 -0.1207139 0.4240522 1 1 1
v -0.3120761 0.1096102 0.1891557 1 1 1
v -0.4782403 0.2246954 0.3406935 1 1 1
v -0.3933543 0.1109849 -0.06680613 1 1 1
v -0.6648135 0.2894747 0.3799808 1 1 1
v -0.5682067 0.1432456 -0.1818556 1 1 1
v -0.8834963 0.2662063 -0.005379558 1 1 1
v -1.374341 0.2442028 0.4394414 1 1 1
v -1.004421 0.2718889 0.8653816 1 1 1
v -1.052593 0.2606832 0.03678796 1 1 1
v -1.240691 0.08003876 0.004753739 1 1 1
v -1.565371 0.04130332 0.3787371 1 1 1
v -1.530702 0.04479523 0.7494886 1 1 1
v -1.385746 0.1928327 0.8883137 1 1 1
v -1.258441 0.2597544 0.8307508 1 1 1
v -1.191542 0.1181063 1.055007 1 1 1
v -0.3120761 0.1096102 0.1891557 1 1 1
v -0.2057887 -0.1385703 0.2461462 1 1 1
v -0.2031464 -0.1207139 0.4240522 1 1 1
v -0.4782403 0.2246954 0.3406935 1 1 1
v -0.3275082 -0.05756619 0.5833923 1 1 1
v -0.5232145 0.1986848 0.5206585 1 1 1
v -0.6466259 -0.03739768 0.7691752 1 1 1
v -0.6535269 0.2352132 0.5823408 1 1 1
v -0.8483298 -0.03448666 1.025094 1 1 1
v -0.9634404 0.1500022 1.036293 1 1 1
v -1.004421 0.2718889 0.8653816 1 1 1
v -0.3933543 0.1109849 -0.06680613 1 1 1
v -0.2057887 -0.1385703 0.2461462 1 1 1
v -0.3120761 0.1096102 0.1891557 1 1 1
v -0.2510727 -0.1901267 0.06664535 1 1 1
v -0.3024178 -0.2137388 0.02288109 1 1 1
v -0.7239844 -0.1162358 -0.273478 1 1 1
v -0.5979035 -0.2034058 -0.1814227 1 1 1
v -0.5682067 0.1432456 -0.1818556 1 1 1
v -0.3024178 -0.2137388 0.02288109 1 1 1
v -0.2057887 -0.1385703 0.2461462 1 1 1
v -0.2510727 -0.1901267 0.06664535 1 1 1
v -0.5006922 -0.3547095 0.3589993 1 1 1
v -0.2031464 -0.1207139 0.4240522 1 1 1
v -0.404579 -0.2712607 0.4853467 1 1 1
v -0.8580603 -0.3668552 0.5756114 1 1 1
v -0.7270568 -0.1950583 0.7537189 1 1 1
v -1.10053 -0.3534196 0.8531162 1 1 1
v -0.9766315 -0.1821328 1.031773 1 1 1
v -1.304259 -0.3522485 0.8299501 1 1 1
v -1.18385 -0.1513141 1.059181 1 1 1
v -1.378929 -0.2872353 0.8869841 1 1 1
v -1.378929 -0.2872353 0.8869841 1 1 1
v -1.606321 -0.2371447 0.6516145 1 1 1
v -1.530702 0.04479523 0.7494886 1 1 1
v -1.191542 0.1181063 1.055007 1 1 1
v -1.18385 -0.1513141 1.059181 1 1 1
v -1.385746 0.1928327 0.8883137 1 1 1
v -1.606321 -0.2371447 0.6516145 1 1 1
v -1.378929 -0.2872353 0.8869841 1 1 1
v -1.460236 -0.3494373 0.6129445 1 1 1
v -1.304259 -0.3522485 0.8299501 1 1 1
v -0.8580603 -0.3668552 0.5756114 1 1 1
v -1.189509 -0.3424904 0.02063784 1 1 1
v -0.5006922 -0.3547095 0.3589993 1 1 1
v -0.826952 -0.3127505 -0.04405525 1 1 1
v -0.3024178 -0.2137388 0.02288109 1 1 1
v -0.5979035 -0.2034058 -0.1814227 1 1 1
v -1.215847 -0.3100561 -0.01514116 1 1 1
v -0.7239844 -0.1162358 -0.273478 1 1 1
v -0.9854076 -0.153638 -0.2147336 1 1 1
v -1.606321 -0.2371447 0.6516145 1 1 1
v -1.628339 -0.174842 0.4565234 1 1 1
v -1.530702 0.04479523 0.7494886 1 1 1
v -1.565371 0.04130332 0.3787371 1 1 1
v -1.191542 0.1181063 1.055007 1 1 1
v -0.9634404 0.1500022 1.036293 1 1 1
v -0.9766315 -0.1821328 1.031773 1 1 1
v -0.8483298 -0.03448666 1.025094 1 1 1
v -1.565371 0.04130332 0.3787371 1 1 1
v -1.628339 -0.174842 0.4565234 1 1 1
v -1.240691 0.08003876 0.004753739 1 1 1
v -1.215847 -0.3100561 -0.01514116 1 1 1
v -0.9854076 -0.153638 -0.2147336 1 1 1
v -1.189509 -0.3424904 0.02063784 1 1 1
v -1.460236 -0.3494373 0.6129445 1 1 1
v -1.606321 -0.2371447 0.6516145 1 1 1
v -1.240691 0.08003876 0.004753739 1 1 1
v -0.9854076 -0.153638 -0.2147336 1 1 1
v -1.052593 0.2606832 0.03678796 1 1 1
v -0.5682067 0.1432456 -0.1818556 1 1 1
v -0.7239844 -0.1162358 -0.273478 1 1 1
v 0.6318151 0.6962997 -0.6323137 1 1 1
v 0.5639335 0.5665712 -0.6860808 1 1 1
v 1.118324 0.4228087 -0.5601538 1 1 1
v 0.1799082 0.6862648 -0.6465508 1 1 1
v 0.6867761 0.3725055 -0.707602 1 1 1
v 0.2374068 0.5949695 -0.6849376 1 1 1
vn 0.3717141 0.907189 0.1970707
vn 0.5547882 0.5000746 0.6649326
vn 0.2728415 0.9028578 0.3322729
vn 0.06761116 0.7109666 -0.699968
vn -0.3782379 0.7914901 -0.4800829
vn -0.3204112 0.4922872 -0.8093145
vn -0.3782379 0.7914901 -0.4800829
vn -0.6691582 0.2664537 -0.6937072
vn -0.3204112 0.4922872 -0.8093145
vn -0.6841847 0.6371536 -0.3548614
vn -0.8613944 -0.2512107 -0.4414667
vn -0.6227356 -0.1239139 -0.7725579
vn 0.003618127 -0.9150892 0.4032353
vn 0.3382091 -0.9217094 0.1899118
vn 0.3357916 -0.9171839 -0.2145174
vn 0.1889927 -0.4965674 -0.8471733
vn 0.1362287 -0.8985619 -0.4171669
vn 0.3357916 -0.9171839 -0.2145174
vn 0.7034059 0.3673542 -0.6084991
vn 0.1889927 -0.4965674 -0.8471733
vn 0.6881644 -0.3057942 -0.6579663
vn -0.05639233 -0.06623347 -0.9962094
vn -0.1499036 0.05148278 -0.9873593
vn -0.09235784 -0.6123444 -0.7851779
vn -0.2284354 0.1149259 -0.9667519
vn -0.2035925 -0.7455493 -0.6345915
vn -0.6227356 -0.1239139 -0.7725579
vn -0.6841847 0.6371536 -0.3548614
vn -0.8613944 -0.2512107 -0.4414667
vn -0.6227356 -0.1239139 -0.7725579
vn 0.003618127 -0.9150892 0.4032353
vn 0.3382091 -0.9217094 0.1899118
vn 0.3357916 -0.9171839 -0.2145174
vn 0.1889927 -0.4965674 -0.8471733
vn 0.1362287 -0.8985619 -0.4171669
vn 0.3357916 -0.9171839 -0.2145174
vn 0.7034059 0.3673542 -0.6084991
vn 0.1889927 -0.4965674 -0.8471733
vn 0.6881644 -0.3057942 -0.6579663
vn -0.05639233 -0.06623347 -0.9962094
vn -0.1499036 0.05148278 -0.9873593
vn -0.09235784 -0.6123444 -0.7851779
vn -0.2284354 0.1149259 -0.9667519
vn -0.2035925 -0.7455493 -0.6345915
vn -0.6227356 -0.1239139 -0.7725579
vn 0.351864 -0.9349082 -0.04624358
vn 0.07732916 -0.9359891 -0.3434305
vn -0.2399986 -0.928403 -0.2836699
vn 0.2822177 0.282075 0.9169443
vn 0.2548441 0.7170719 0.6487392
vn 0.518819 0.2124327 0.8280696
vn 0.072515 0.04649365 0.996283
vn 0.04363813 0.8333566 0.5510104
vn -0.2453466 0.3405163 0.9076639
vn 0.04363813 0.8333566 0.5510104
vn 0.2548441 0.7170719 0.6487392
vn 0.2822177 0.282075 0.9169443
vn -0.01004709 0.9815547 0.1909171
vn -0.3172826 0.7388514 0.5945002
vn -0.4915871 0.6575793 0.5709043
vn -0.7263423 0.5050069 0.4662563
vn -0.8338723 -0.3505135 0.4263771
vn -0.9318011 -0.3531357 0.08391573
vn -0.7359624 -0.1656075 0.6564553
vn -0.6501411 -0.5823284 0.4880678
vn -0.7330665 -0.005576568 0.6801342
vn -0.4194943 -0.394081 0.8177559
vn -0.5884619 -0.06064581 0.8062474
vn -0.3610312 -0.6725339 0.6460298
vn -0.06579432 -0.6964902 0.7145436
vn 0.2532637 -0.4576761 0.8522852
vn 0.072515 0.04649365 0.996283
vn -0.3031274 0.9529483 -0.001815188
vn -0.9594192 0.254388 0.1216619
vn -0.9728501 0.08989539 -0.213264
vn -0.3031274 0.9529483 -0.001815188
vn -0.9728501 0.08989539 -0.213264
vn -0.5367734 0.7411556 -0.4031907
vn -0.06579432 -0.6964902 0.7145436
vn -0.4194943 -0.394081 0.8177559
vn 0.2532637 -0.4576761 0.8522852
vn -0.1659737 -0.853177 0.4945118
vn -0.3610312 -0.6725339 0.6460298
vn -0.6501411 -0.5823284 0.4880678
vn -0.3819132 -0.8986791 0.2156807
vn 0.3513148 -0.9344029 0.05889887
vn -0.01947576 -0.9996629 0.01717237
vn -0.3722787 -0.9211091 -0.1138713
vn -0.6838295 -0.7238623 0.09165502
vn -0.07985676 -0.9503057 -0.3009019
vn -0.6121913 -0.7748204 -0.1577186
vn -0.1725779 -0.8548146 -0.4893965
vn -0.5545646 -0.7241197 -0.4100107
vn -0.4902524 -0.5450382 -0.6801367
vn -0.2573894 -0.577557 -0.774712
vn -0.2493255 -0.6310335 -0.7345974
vn -0.4902524 -0.5450382 -0.6801367
vn -0.2493255 -0.6310335 -0.7345974
vn -0.3786283 -0.6168249 -0.6900491
vn -0.2174986 -0.915089 -0.3395683
vn -0.3874145 -0.9217094 0.01902206
vn -0.1702987 -0.9171835 0.3602399
vn -0.2721095 0.3673543 0.8893859
vn 0.1115226 0.9332515 0.3414738
vn 0.2888593 0.4944322 0.8198153
vn 0.1946841 0.9806567 0.02026092
vn 0.4506223 0.776309 0.4407766
vn 0.5082543 0.8580824 0.07329588
vn 0.5310091 0.7229448 0.4420184
vn -0.2721095 0.3673543 0.8893859
vn 0.2904601 -0.4965673 0.8179572
vn -0.2328958 -0.3057937 0.9231737
vn 0.6225791 0.7769043 -0.09388795
vn 0.2717946 0.9083323 -0.3178994
vn 0.6981685 0.4612842 -0.5475195
vn 0.2102531 0.3961812 -0.8937752
vn 0.2102531 0.3961812 -0.8937752
vn 0.2717946 0.9083323 -0.3178994
vn 0.06761116 0.7109666 -0.699968
vn -0.4939503 -0.3098967 -0.8123898
vn -0.3204112 0.4922872 -0.8093145
vn -0.7101454 -0.1529165 -0.6872482
vn -0.6691582 0.2664537 -0.6937072
vn 0.1966417 0.1070042 -0.974619
vn 0.09931274 -0.2713123 -0.9573539
vn 0.6981685 0.4612842 -0.5475195
vn 0.8813637 -0.09775201 -0.4622149
vn 0.2728415 0.9028578 0.3322729
vn 0.5547882 0.5000746 0.6649326
vn 0.2410588 0.7104492 0.6611752
vn -0.07401597 0.7373098 0.6714879
vn 0.05594261 0.9820785 0.1799785
vn 0.3717141 0.907189 0.1970707
vn -0.1321761 0.9783638 0.1591664
vn -0.4557802 0.7981222 0.3940374
vn 0.1108276 0.9936144 -0.02115532
vn 0.6225791 0.7769043 -0.09388795
vn 0.2717946 0.9083323 -0.3178994
vn -0.7757813 0.6161503 -0.1360963
vn -0.9579427 0.1709526 0.2304799
vn -0.1003377 0.9923723 -0.07162151
vn -0.01126208 0.9778177 -0.2091549
vn 0.06761116 0.7109666 -0.699968
vn -0.3782379 0.7914901 -0.4800829
vn -0.7869036 0.4439851 -0.4285556
vn -0.07401597 0.7373098 0.6714879
vn 0.2410588 0.7104492 0.6611752
vn -0.2132416 0.3300953 0.9195462
vn 0.5547882 0.5000746 0.6649326
vn 0.4554012 -0.08934553 0.8857918
vn 0.004246463 -0.1366 0.9906172
vn 0.7181511 -0.4165072 0.5574771
vn 0.5894198 -0.4378271 0.6788901
vn 0.8309979 0.4282153 0.3550693
vn 0.3717141 0.907189 0.1970707
vn 0.7965875 -0.5122897 0.3209479
vn 0.6225791 0.7769043 -0.09388795
vn 0.9741005 0.1430558 0.1751091
vn 0.9930625 -0.09360423 -0.07117013
vn 0.6981685 0.4612842 -0.5475195
vn 0.8813637 -0.09775201 -0.4622149
vn 0.004246463 -0.1366 0.9906172
vn -0.1872775 -0.451884 0.8721972
vn -0.2132416 0.3300953 0.9195462
vn -0.5337453 -0.3126175 0.7857393
vn -0.6639838 0.3282694 0.6718369
vn -0.5118731 -0.5580879 0.653088
vn -0.9579427 0.1709526 0.2304799
vn -0.8098105 -0.5232965 0.265269
vn -0.4557802 0.7981222 0.3940374
vn -0.07401597 0.7373098 0.6714879
vn -0.2132416 0.3300953 0.9195462
vn -0.6639838 0.3282694 0.6718369
vn -0.9579427 0.1709526 0.2304799
vn -0.7679064 -0.6120867 -0.1888644
vn -0.9579427 0.1709526 0.2304799
vn -0.8098105 -0.5232965 0.265269
vn -0.7757813 0.6161503 -0.1360963
vn -0.8465415 -0.3747343 -0.3780764
vn -0.327152 -0.9227243 -0.2038418
vn -0.2428526 -0.8844864 -0.3983797
vn -0.7869036 0.4439851 -0.4285556
vn -0.7101454 -0.1529165 -0.6872482
vn -0.4939503 -0.3098967 -0.8123898
vn -0.6691582 0.2664537 -0.6937072
vn -0.3782379 0.7914901 -0.4800829
vn -0.1872775 -0.451884 0.8721972
vn -0.5118731 -0.5580879 0.653088
vn -0.5337453 -0.3126175 0.7857393
vn -0.1317847 -0.9255661 0.3549089
vn -0.8098105 -0.5232965 0.265269
vn -0.2485706 -0.9591928 0.134766
vn -0.7679064 -0.6120867 -0.1888644
vn -0.327152 -0.9227243 -0.2038418
vn 0.1672289 -0.923341 0.345653
vn 0.2853726 -0.7701708 0.570438
vn 0.5202807 -0.8511186 0.07003793
vn 0.004246463 -0.1366 0.9906172
vn 0.7181511 -0.4165072 0.5574771
vn 0.7965875 -0.5122897 0.3209479
vn 0.5894198 -0.4378271 0.6788901
vn 0.4554012 -0.08934553 0.8857918
vn 0.5202807 -0.8511186 0.07003793
vn 0.7965875 -0.5122897 0.3209479
vn 0.9930625 -0.09360423 -0.07117013
vn 0.5476292 -0.7996128 -0.2464178
vn 0.7621157 -0.4255919 -0.4879049
vn 0.8813637 -0.09775201 -0.4622149
vn 0.2268178 -0.8382917 -0.4958031
vn 0.1273081 -0.9910397 0.0404099
vn 0.1672289 -0.923341 0.345653
vn -0.1317847 -0.9255661 0.3549089
vn -0.2428526 -0.8844864 -0.3983797
vn -0.2485706 -0.9591928 0.134766
vn -0.327152 -0.9227243 -0.2038418
vn 0.5476292 -0.7996128 -0.2464178
vn 0.7621157 -0.4255919 -0.4879049
vn 0.2268178 -0.8382917 -0.4958031
vn 0.09931274 -0.2713123 -0.9573539
vn -0.2428526 -0.8844864 -0.3983797
vn -0.4939503 -0.3098967 -0.8123898
vn 0.8813637 -0.09775201 -0.4622149
vn 0.1966417 0.1070042 -0.974619
vn -0.2284354 0.1149259 -0.9667519
vn -0.1499036 0.05148278 -0.9873593
vn -0.2146421 0.7229446 -0.656719
vn -0.1472242 0.7763091 -0.6129186
vn -0.05639233 -0.06623347 -0.9962094
vn 0.1913362 0.4944323 -0.8478957
vn -0.6841847 0.6371536 -0.3548614
vn -0.3914526 0.8580824 -0.3323545
vn -0.8457741 0.5185563 0.1255612
vn -0.1540995 0.9806567 -0.1206885
vn -0.6457627 0.5836574 0.4922749
vn -0.195857 0.8920407 0.4073125
vn 0.3274582 0.8755378 0.3552532
vn -0.0189376 0.8452894 0.5339731
vn 0.08714446 0.9332514 -0.3484935
vn 0.3042072 0.9463354 -0.1091206
vn 0.8168811 0.5632023 -0.1245334
vn 0.7034059 0.3673542 -0.6084991
vn -0.6841847 0.6371536 -0.3548614
vn -0.6227356 -0.1239139 -0.7725579
vn -0.3914526 0.8580824 -0.3323545
vn -0.2284354 0.1149259 -0.9667519
vn -0.2146421 0.7229446 -0.656719
vn -0.1472242 0.7763091 -0.6129186
vn -0.1540995 0.9806567 -0.1206885
vn 0.08714446 0.9332514 -0.3484935
vn 0.1913362 0.4944323 -0.8478957
vn 0.7034059 0.3673542 -0.6084991
vn -0.8457741 0.5185563 0.1255612
vn -0.8613944 -0.2512107 -0.4414667
vn -0.6841847 0.6371536 -0.3548614
vn -0.8400551 -0.5012214 -0.2075681
vn -0.7789312 -0.6122245 0.1358213
vn -0.7789312 -0.6122245 0.1358213
vn -0.8613944 -0.2512107 -0.4414667
vn -0.8400551 -0.5012214 -0.2075681
vn -0.2354122 -0.9496122 -0.2069245
vn -0.6227356 -0.1239139 -0.7725579
vn -0.2035925 -0.7455493 -0.6345915
vn -0.02385206 -0.963852 -0.2653684
vn -0.09235784 -0.6123444 -0.7851779
vn 0.1362287 -0.8985619 -0.4171669
vn 0.1889927 -0.4965674 -0.8471733
vn 0.3357916 -0.9171839 -0.2145174
vn 0.6881644 -0.3057942 -0.6579663
vn 0.8058619 -0.5123612 -0.2967702
vn 0.8058619 -0.5123612 -0.2967702
vn 0.8884491 -0.3919369 0.2388382
vn 0.9395599 0.3234132 0.1123881
vn 0.6652346 -0.2454864 0.7051237
vn 0.5492409 0.3974222 0.7351123
vn 0.8058619 -0.5123612 -0.2967702
vn 0.7034059 0.3673542 -0.6084991
vn 0.6881644 -0.3057942 -0.6579663
vn 0.9395599 0.3234132 0.1123881
vn 0.8168811 0.5632023 -0.1245334
vn 0.8168811 0.5632023 -0.1245334
vn 0.9395599 0.3234132 0.1123881
vn 0.3274582 0.8755378 0.3552532
vn 0.5492409 0.3974222 0.7351123
vn 0.1455306 0.3720177 0.9167463
vn -0.0189376 0.8452894 0.5339731
vn 0.7034059 0.3673542 -0.6084991
vn 0.1913362 0.4944323 -0.8478957
vn 0.1889927 -0.4965674 -0.8471733
vn -0.05639233 -0.06623347 -0.9962094
vn 0.5492409 0.3974222 0.7351123
vn 0.6652346 -0.2454864 0.7051237
vn 0.1455306 0.3720177 0.9167463
vn 0.09530221 -0.5194684 0.8491585
vn -0.2412219 -0.1971434 0.950235
vn 0.1455306 0.3720177 0.9167463
vn -0.2412219 -0.1971434 0.950235
vn -0.0189376 0.8452894 0.5339731
vn -0.6457627 0.5836574 0.4922749
vn -0.195857 0.8920407 0.4073125
vn -0.5608273 -0.1540508 0.8134748
vn 0.09530221 -0.5194684 0.8491585
vn -0.5608273 -0.1540508 0.8134748
vn -0.2412219 -0.1971434 0.950235
vn -0.266997 -0.9043922 0.3328474
vn -0.6970987 -0.5718832 0.4324384
vn -0.7789312 -0.6122245 0.1358213
vn -0.2354122 -0.9496122 -0.2069245
vn 0.003618127 -0.9150892 0.4032353
vn -0.02385206 -0.963852 -0.2653684
vn 0.3357916 -0.9171839 -0.2145174
vn 0.6652346 -0.2454864 0.7051237
vn 0.3382091 -0.9217094 0.1899118
vn 0.8058619 -0.5123612 -0.2967702
vn 0.8884491 -0.3919369 0.2388382
vn -0.5608273 -0.1540508 0.8134748
vn -0.8457741 0.5185563 0.1255612
vn -0.6457627 0.5836574 0.4922749
vn -0.7789312 -0.6122245 0.1358213
vn -0.6970987 -0.5718832 0.4324384
vn -0.2284354 0.1149259 -0.9667519
vn -0.1499036 0.05148278 -0.9873593
vn -0.2146421 0.7229446 -0.656719
vn -0.1472242 0.7763091 -0.6129186
vn -0.05639233 -0.06623347 -0.9962094
vn 0.1913362 0.4944323 -0.8478957
vn -0.6841847 0.6371536 -0.3548614
vn -0.3914526 0.8580824 -0.3323545
vn -0.8457741 0.5185563 0.1255612
vn -0.1540995 0.9806567 -0.1206885
vn -0.6457627 0.5836574 0.4922749
vn -0.195857 0.8920407 0.4073125
vn 0.3274582 0.8755378 0.3552532
vn -0.0189376 0.8452894 0.5339731
vn 0.08714446 0.9332514 -0.3484935
vn 0.3042072 0.9463354 -0.1091206
vn 0.8168811 0.5632023 -0.1245334
vn 0.7034059 0.3673542 -0.6084991
vn -0.6841847 0.6371536 -0.3548614
vn -0.6227356 -0.1239139 -0.7725579
vn -0.3914526 0.8580824 -0.3323545
vn -0.2284354 0.1149259 -0.9667519
vn -0.2146421 0.7229446 -0.656719
vn -0.1472242 0.7763091 -0.6129186
vn -0.1540995 0.9806567 -0.1206885
vn 0.08714446 0.9332514 -0.3484935
vn 0.1913362 0.4944323 -0.8478957
vn 0.7034059 0.3673542 -0.6084991
vn -0.8457741 0.5185563 0.1255612
vn -0.8613944 -0.2512107 -0.4414667
vn -0.6841847 0.6371536 -0.3548614
vn -0.8400551 -0.5012214 -0.2075681
vn -0.7789312 -0.6122245 0.1358213
vn -0.7789312 -0.6122245 0.1358213
vn -0.8613944 -0.2512107 -0.4414667
vn -0.8400551 -0.5012214 -0.2075681
vn -0.2354122 -0.9496122 -0.2069245
vn -0.6227356 -0.1239139 -0.7725579
vn -0.2035925 -0.7455493 -0.6345915
vn -0.02385206 -0.963852 -0.2653684
vn -0.09235784 -0.6123444 -0.7851779
vn 0.1362287 -0.8985619 -0.4171669
vn 0.1889927 -0.4965674 -0.8471733
vn 0.3357916 -0.9171839 -0.2145174
vn 0.6881644 -0.3057942 -0.6579663
vn 0.8058619 -0.5123612 -0.2967702
vn 0.8058619 -0.5123612 -0.2967702
vn 0.8884491 -0.3919369 0.2388382
vn 0.9395599 0.3234132 0.1123881
vn 0.6652346 -0.2454864 0.7051237
vn 0.5492409 0.3974222 0.7351123
vn 0.8058619 -0.5123612 -0.2967702
vn 0.7034059 0.3673542 -0.6084991
vn 0.6881644 -0.3057942 -0.6579663
vn 0.9395599 0.3234132 0.1123881
vn 0.8168811 0.5632023 -0.1245334
vn 0.8168811 0.5632023 -0.1245334
vn 0.9395599 0.3234132 0.1123881
vn 0.3274582 0.8755378 0.3552532
vn 0.5492409 0.3974222 0.7351123
vn 0.1455306 0.3720177 0.9167463
vn -0.0189376 0.8452894 0.5339731
vn 0.7034059 0.3673542 -0.6084991
vn 0.1913362 0.4944323 -0.8478957
vn 0.1889927 -0.4965674 -0.8471733
vn -0.05639233 -0.06623347 -0.9962094
vn 0.5492409 0.3974222 0.7351123
vn 0.6652346 -0.2454864 0.7051237
vn 0.1455306 0.3720177 0.9167463
vn 0.09530221 -0.5194684 0.8491585
vn -0.2412219 -0.1971434 0.950235
vn 0.1455306 0.3720177 0.9167463
vn -0.2412219 -0.1971434 0.950235
vn -0.0189376 0.8452894 0.5339731
vn -0.6457627 0.5836574 0.4922749
vn -0.195857 0.8920407 0.4073125
vn -0.5608273 -0.1540508 0.8134748
vn 0.09530221 -0.5194684 0.8491585
vn -0.5608273 -0.1540508 0.8134748
vn -0.2412219 -0.1971434 0.950235
vn -0.266997 -0.9043922 0.3328474
vn -0.6970987 -0.5718832 0.4324384
vn -0.7789312 -0.6122245 0.1358213
vn -0.2354122 -0.9496122 -0.2069245
vn 0.003618127 -0.9150892 0.4032353
vn -0.02385206 -0.963852 -0.2653684
vn 0.3357916 -0.9171839 -0.2145174
vn 0.6652346 -0.2454864 0.7051237
vn 0.3382091 -0.9217094 0.1899118
vn 0.8058619 -0.5123612 -0.2967702
vn 0.8884491 -0.3919369 0.2388382
vn -0.5608273 -0.1540508 0.8134748
vn -0.8457741 0.5185563 0.1255612
vn -0.6457627 0.5836574 0.4922749
vn -0.7789312 -0.6122245 0.1358213
vn -0.6970987 -0.5718832 0.4324384
vn -0.5042524 0.831472 0.2332034
vn -0.9351397 0.06895801 0.3475033
vn -0.9695359 -0.0637012 0.2365212
vn -0.843927 0.5309288 -0.07682352
vn -0.5042524 0.831472 0.2332034
vn -0.5403964 0.7783002 0.3197196
vn -0.9351397 0.06895801 0.3475033
vn -0.8985714 0.1275225 0.4198897
vn -0.9351397 0.06895801 0.3475033
vn -0.6988388 -0.6731446 0.2418695
vn -0.8399882 -0.539106 -0.06151866
vn -0.9695359 -0.0637012 0.2365212
vn -0.9351397 0.06895801 0.3475033
vn -0.8985714 0.1275225 0.4198897
vn -0.6988388 -0.6731446 0.2418695
vn -0.5234924 -0.7872672 0.3258314
vn -0.5933132 -0.1028093 0.7983795
vn -0.8985714 0.1275225 0.4198897
vn -0.5403964 0.7783002 0.3197196
vn -0.2046233 0.881068 0.426437
vn -0.5933132 -0.1028093 0.7983795
vn -0.1522536 0.6593657 0.7362444
vn -0.1973894 -0.2418111 0.9500341
vn -0.5042524 0.831472 0.2332034
vn -0.2046233 0.881068 0.426437
vn -0.5403964 0.7783002 0.3197196
vn -0.05691746 0.9870963 0.149671
vn -0.3205496 0.9450133 -0.06479021
vn -0.843927 0.5309288 -0.07682352
vn -0.6737812 0.3761134 -0.6360486
vn -0.1522536 0.6593657 0.7362444
vn -0.2046233 0.881068 0.426437
vn 0.2760984 0.5381834 0.7963218
vn -0.05691746 0.9870963 0.149671
vn 0.5627246 0.5933318 0.5755853
vn 0.3940251 0.9113025 0.119465
vn 0.2307534 0.8789433 -0.4173864
vn 0.5009055 0.8617718 -0.08026893
vn 0.852514 0.4070798 -0.3278809
vn 0.5740395 0.400819 -0.7140188
vn -0.3205496 0.9450133 -0.06479021
vn -0.1430115 0.9425948 -0.3017663
vn -0.2668491 0.5352042 -0.8014662
vn -0.6737812 0.3761134 -0.6360486
vn 0.2760984 0.5381834 0.7963218
vn -0.1973894 -0.2418111 0.9500341
vn -0.1522536 0.6593657 0.7362444
vn -0.02661698 -0.4977381 0.8669189
vn 0.2684982 -0.5863639 0.7642553
vn -0.1973894 -0.2418111 0.9500341
vn -0.02661698 -0.4977381 0.8669189
vn -0.1344972 -0.9471655 0.2911837
vn -0.5933132 -0.1028093 0.7983795
vn -0.5234924 -0.7872672 0.3258314
vn -0.2163608 -0.9727545 0.08328732
vn -0.6988388 -0.6731446 0.2418695
vn -0.4000491 -0.9141635 -0.06531344
vn -0.2399986 -0.928403 -0.2836699
vn -0.8399882 -0.539106 -0.06151866
vn 0.2684982 -0.5863639 0.7642553
vn -0.02661698 -0.4977381 0.8669189
vn 0.2760984 0.5381834 0.7963218
vn 0.8740659 -0.1451653 0.4636117
vn 0.4977336 -0.561851 0.6607456
vn 0.5627246 0.5933318 0.5755853
vn -0.4076141 -0.5192449 -0.7511561
vn -0.7246329 -0.3423374 -0.5980905
vn -0.2399986 -0.928403 -0.2836699
vn -0.8399882 -0.539106 -0.06151866
vn -0.6737812 0.3761134 -0.6360486
vn -0.4000491 -0.9141635 -0.06531344
vn -0.4076141 -0.5192449 -0.7511561
vn -0.6737812 0.3761134 -0.6360486
vn -0.7246329 -0.3423374 -0.5980905
vn -0.08700106 0.3124221 -0.945951
vn -0.2668491 0.5352042 -0.8014662
vn 0.03752714 -0.4163474 -0.9084308
vn 0.5039954 -0.2888809 -0.8139634
vn 0.5740395 0.400819 -0.7140188
vn -0.2668491 0.5352042 -0.8014662
vn -0.08700106 0.3124221 -0.945951
vn 0.2307534 0.8789433 -0.4173864
vn 0.5740395 0.400819 -0.7140188
vn -0.6737812 0.3761134 -0.6360486
vn -0.843927 0.5309288 -0.07682352
vn -0.8399882 -0.539106 -0.06151866
vn -0.9695359 -0.0637012 0.2365212
vn 0.5740395 0.400819 -0.7140188
vn 0.5039954 -0.2888809 -0.8139634
vn 0.852514 0.4070798 -0.3278809
vn 0.7852067 -0.5689761 -0.24437
vn 0.9745003 -0.1934117 0.1137591
vn 0.852514 0.4070798 -0.3278809
vn 0.9745003 -0.1934117 0.1137591
vn 0.5009055 0.8617718 -0.08026893
vn 0.5627246 0.5933318 0.5755853
vn 0.3940251 0.9113025 0.119465
vn 0.8740659 -0.1451653 0.4636117
vn 0.7852067 -0.5689761 -0.24437
vn 0.8740659 -0.1451653 0.4636117
vn 0.9745003 -0.1934117 0.1137591
vn 0.325591 -0.9133333 0.2445667
vn 0.4977336 -0.561851 0.6607456
vn 0.2684982 -0.5863639 0.7642553
vn -0.1344972 -0.9471655 0.2911837
vn 0.351864 -0.9349082 -0.04624358
vn -0.2163608 -0.9727545 0.08328732
vn -0.2399986 -0.928403 -0.2836699
vn 0.5039954 -0.2888809 -0.8139634
vn 0.07732916 -0.9359891 -0.3434305
vn -0.4076141 -0.5192449 -0.7511561
vn 0.03752714 -0.4163474 -0.9084308
vn 0.2532637 -0.4576761 0.8522852
vn 0.072515 0.04649365 0.996283
vn 0.2822177 0.282075 0.9169443
vn 0.4869768 -0.3743571 0.78912
vn 0.518819 0.2124327 0.8280696
vn 0.8794029 -0.1668222 0.4458934
vn 0.679311 -0.3703931 0.6335183
vn 0.5695072 -0.6880676 0.4496939
vn 0.598425 0.6118225 0.5172627
vn 0.2548441 0.7170719 0.6487392
vn 0.8298077 0.508469 0.2299531
vn 0.9057286 0.2218064 0.3611892
vn 0.8536379 0.518954 0.04459926
vn 0.9641466 -0.2643827 0.02287007
vn 0.9805335 0.1480416 -0.1289871
vn 0.9860343 -0.1189367 -0.1165778
vn 0.04363813 0.8333566 0.5510104
vn -0.3172826 0.7388514 0.5945002
vn -0.01004709 0.9815547 0.1909171
vn 0.06521939 0.9850392 0.1595123
vn 0.2548441 0.7170719 0.6487392
vn 0.2694454 0.9432358 0.194179
vn 0.598425 0.6118225 0.5172627
vn 0.5789768 0.8152495 -0.01241819
vn 0.8298077 0.508469 0.2299531
vn 0.09309655 0.9941198 0.0553073
vn 0.05777129 0.9963089 0.06349167
vn 0.4818255 0.8402529 -0.2486347
vn 0.7931844 0.516054 -0.3233368
vn -0.5283729 0.7998506 0.2847124
vn -0.2611067 0.8710967 0.4159493
vn -0.4915871 0.6575793 0.5709043
vn -0.3031274 0.9529483 -0.001815188
vn 0.0307296 0.9959885 -0.08403926
vn -0.5367734 0.7411556 -0.4031907
vn -0.4041299 0.6382708 -0.6552019
vn 0.08293533 0.9899216 -0.1147908
vn -0.2671325 0.6219587 -0.7360759
vn 0.147935 0.7284234 -0.6689653
vn 0.3674468 0.6939915 -0.6191596
vn -0.4915871 0.6575793 0.5709043
vn -0.6397642 0.5168446 0.5688352
vn -0.2611067 0.8710967 0.4159493
vn -0.7359624 -0.1656075 0.6564553
vn -0.8338723 -0.3505135 0.4263771
vn -0.7263423 0.5050069 0.4662563
vn -0.7330665 -0.005576568 0.6801342
vn -0.2453466 0.3405163 0.9076639
vn -0.5884619 -0.06064581 0.8062474
vn -0.3172826 0.7388514 0.5945002
vn 0.04363813 0.8333566 0.5510104
vn -0.4194943 -0.394081 0.8177559
vn 0.072515 0.04649365 0.996283
vn -0.751175 0.611868 0.2476967
vn -0.5283729 0.7998506 0.2847124
vn -0.9318011 -0.3531357 0.08391573
vn -0.9594192 0.254388 0.1216619
vn -0.7263423 0.5050069 0.4662563
vn -0.2611067 0.8710967 0.4159493
vn -0.6397642 0.5168446 0.5688352
vn -0.5283729 0.7998506 0.2847124
vn -0.751175 0.611868 0.2476967
vn -0.3031274 0.9529483 -0.001815188
vn -0.9594192 0.254388 0.1216619
vn -0.9318011 -0.3531357 0.08391573
vn -0.9728501 0.08989539 -0.213264
vn -0.9594192 0.254388 0.1216619
vn -0.8209848 -0.5685143 0.05268239
vn -0.8338723 -0.3505135 0.4263771
vn -0.8155417 -0.2389363 -0.5270684
vn -0.6501411 -0.5823284 0.4880678
vn -0.6871659 -0.589859 -0.4241101
vn -0.6838295 -0.7238623 0.09165502
vn -0.3819132 -0.8986791 0.2156807
vn -0.6121913 -0.7748204 -0.1577186
vn -0.6268849 -0.6072666 -0.4881012
vn -0.5545646 -0.7241197 -0.4100107
vn -0.8155417 -0.2389363 -0.5270684
vn -0.5367734 0.7411556 -0.4031907
vn -0.9728501 0.08989539 -0.213264
vn -0.6470202 -0.1664854 -0.7440749
vn -0.4041299 0.6382708 -0.6552019
vn -0.3786283 -0.6168249 -0.6900491
vn -0.6871659 -0.589859 -0.4241101
vn -0.4732648 -0.3218737 -0.8200108
vn -0.2671325 0.6219587 -0.7360759
vn -0.2312216 -0.02269851 -0.9726363
vn -0.4902524 -0.5450382 -0.6801367
vn -0.6268849 -0.6072666 -0.4881012
vn -0.1563041 -0.6235799 -0.7659746
vn -0.2573894 -0.577557 -0.774712
vn -0.3786283 -0.6168249 -0.6900491
vn -0.2312216 -0.02269851 -0.9726363
vn -0.4732648 -0.3218737 -0.8200108
vn -0.2493255 -0.6310335 -0.7345974
vn 0.06905001 -0.2487563 -0.9661016
vn -0.07690746 -0.6830939 -0.72627
vn -0.2573894 -0.577557 -0.774712
vn 0.05348462 -0.5791711 -0.8134496
vn 0.311613 -0.3190655 -0.8950389
vn 0.5501826 -0.06384525 -0.8326001
vn 0.2188956 -0.6662239 -0.7129028
vn -0.1563041 -0.6235799 -0.7659746
vn -0.07752286 -0.7730817 -0.6295514
vn 0.325564 -0.7856172 -0.5261309
vn 0.3260745 -0.5815433 -0.7453073
vn 0.7002666 -0.4072059 -0.5863531
vn 0.6669232 0.3048566 -0.6799087
vn 0.8906143 -0.2074928 -0.4046639
vn 0.7026053 -0.5924803 -0.3940975
vn 0.9404792 0.1390566 -0.3101004
vn 0.7931844 0.516054 -0.3233368
vn 0.9805335 0.1480416 -0.1289871
vn 0.9860343 -0.1189367 -0.1165778
vn 0.9641466 -0.2643827 0.02287007
vn 0.7357937 -0.657215 -0.1633282
vn 0.7002666 -0.4072059 -0.5863531
vn 0.2188956 -0.6662239 -0.7129028
vn 0.7026053 -0.5924803 -0.3940975
vn 0.325564 -0.7856172 -0.5261309
vn 0.3131125 -0.90259 -0.2954519
vn 0.7357937 -0.657215 -0.1633282
vn 0.5206168 -0.8472693 0.1053231
vn 0.3513148 -0.9344029 0.05889887
vn -0.01947576 -0.9996629 0.01717237
vn -0.07985676 -0.9503057 -0.3009019
vn -0.07752286 -0.7730817 -0.6295514
vn -0.1725779 -0.8548146 -0.4893965
vn -0.5545646 -0.7241197 -0.4100107
vn -0.1725779 -0.8548146 -0.4893965
vn -0.07752286 -0.7730817 -0.6295514
vn -0.1563041 -0.6235799 -0.7659746
vn -0.6268849 -0.6072666 -0.4881012
vn 0.679311 -0.3703931 0.6335183
vn 0.5695072 -0.6880676 0.4496939
vn 0.4869768 -0.3743571 0.78912
vn 0.2532637 -0.4576761 0.8522852
vn -0.06579432 -0.6964902 0.7145436
vn 0.5206168 -0.8472693 0.1053231
vn -0.1659737 -0.853177 0.4945118
vn 0.3513148 -0.9344029 0.05889887
vn 0.7357937 -0.657215 -0.1633282
vn 0.9641466 -0.2643827 0.02287007
vn 0.8794029 -0.1668222 0.4458934
vn 0.5789768 0.8152495 -0.01241819
vn 0.8536379 0.518954 0.04459926
vn 0.8298077 0.508469 0.2299531
vn 0.7931844 0.516054 -0.3233368
vn 0.9805335 0.1480416 -0.1289871
vn 0.9404792 0.1390566 -0.3101004
vn 0.6669232 0.3048566 -0.6799087
vn 0.7931844 0.516054 -0.3233368
vn 0.4818255 0.8402529 -0.2486347
vn 0.3674468 0.6939915 -0.6191596
vn 0.147935 0.7284234 -0.6689653
vn 0.5501826 -0.06384525 -0.8326001
vn 0.5775262 -0.06623365 0.8136809
vn 0.6520129 0.05148273 0.756458
vn 0.2904601 -0.4965673 0.8179572
vn 0.4957616 -0.6123443 0.6158367
vn 0.7075611 0.1149258 0.6972441
vn 0.5098844 -0.7455494 0.4291549
vn 0.9382165 -0.1239139 0.3231024
vn 0.7681319 0.6371536 -0.06331404
vn 0.5082543 0.8580824 0.07329588
vn 0.6494971 0.5185564 -0.556105
vn 0.1946841 0.9806567 0.02026092
vn 0.2850989 0.5836571 -0.7603045
vn -0.05073572 0.89204 -0.4490997
vn -0.466236 0.8755377 -0.1267195
vn 0.1115226 0.9332515 0.3414738
vn -0.2679208 0.8452895 -0.4622816
vn -0.6107583 0.3720177 -0.698983
vn -0.8560626 0.3974222 -0.330473
vn -0.8554605 0.323413 0.4044643
vn -0.6255751 0.563202 0.5398697
vn -0.199598 0.9463355 0.2541845
vn -0.2721095 0.3673543 0.8893859
vn 0.7681319 0.6371536 -0.06331404
vn 0.9642626 -0.2512108 -0.08420704
vn 0.9382165 -0.1239139 0.3231024
vn 0.5082543 0.8580824 0.07329588
vn 0.7075611 0.1149258 0.6972441
vn 0.5310091 0.7229448 0.4420184
vn 0.6520129 0.05148273 0.756458
vn 0.4506223 0.776309 0.4407766
vn 0.5775262 -0.06623365 0.8136809
vn 0.2888593 0.4944322 0.8198153
vn 0.1115226 0.9332515 0.3414738
vn 0.6494971 0.5185564 -0.556105
vn 0.9642626 -0.2512108 -0.08420704
vn 0.7681319 0.6371536 -0.06331404
vn 0.821807 -0.5012214 -0.2709438
vn 0.5874324 -0.6122246 -0.5292488
vn 0.0423597 -0.1540508 -0.9871545
vn 0.3603948 -0.5718828 -0.73693
vn 0.2850989 0.5836571 -0.7603045
vn 0.5874324 -0.6122246 -0.5292488
vn 0.9642626 -0.2512108 -0.08420704
vn 0.821807 -0.5012214 -0.2709438
vn 0.3094051 -0.9496122 0.05005154
vn 0.9382165 -0.1239139 0.3231024
vn 0.5098844 -0.7455494 0.4291549
vn 0.1613187 -0.963852 0.2120509
vn 0.4957616 -0.6123443 0.6158367
vn 0.1064738 -0.8985619 0.4257345
vn 0.2904601 -0.4965673 0.8179572
vn -0.1702987 -0.9171835 0.3602399
vn -0.2328958 -0.3057937 0.9231737
vn -0.5246509 -0.5123604 0.6798737
vn -0.5246509 -0.5123604 0.6798737
vn -0.8794199 -0.3919368 0.2701969
vn -0.8554605 0.323413 0.4044643
vn -0.2721095 0.3673543 0.8893859
vn -0.2328958 -0.3057937 0.9231737
vn -0.6255751 0.563202 0.5398697
vn -0.8794199 -0.3919368 0.2701969
vn -0.5246509 -0.5123604 0.6798737
vn -0.3874145 -0.9217094 0.01902206
vn -0.1702987 -0.9171835 0.3602399
vn 0.1613187 -0.963852 0.2120509
vn -0.2174986 -0.915089 -0.3395683
vn 0.3094051 -0.9496122 0.05005154
vn 0.04911115 -0.9043921 -0.4238667
vn 0.5874324 -0.6122246 -0.5292488
vn 0.3603948 -0.5718828 -0.73693
vn -0.5322791 -0.5194682 -0.6684548
vn 0.0423597 -0.1540508 -0.9871545
vn -0.3010345 -0.1971435 -0.9330127
vn -0.8794199 -0.3919368 0.2701969
vn -0.9383476 -0.2454865 -0.2433928
vn -0.8554605 0.323413 0.4044643
vn -0.8560626 0.3974222 -0.330473
vn -0.2721095 0.3673543 0.8893859
vn 0.2888593 0.4944322 0.8198153
vn 0.2904601 -0.4965673 0.8179572
vn 0.5775262 -0.06623365 0.8136809
vn -0.8560626 0.3974222 -0.330473
vn -0.9383476 -0.2454865 -0.2433928
vn -0.6107583 0.3720177 -0.698983
vn -0.5322791 -0.5194682 -0.6684548
vn -0.3010345 -0.1971435 -0.9330127
vn -0.2174986 -0.915089 -0.3395683
vn -0.3874145 -0.9217094 0.01902206
vn -0.8794199 -0.3919368 0.2701969
vn -0.6107583 0.3720177 -0.698983
vn -0.3010345 -0.1971435 -0.9330127
vn -0.2679208 0.8452895 -0.4622816
vn 0.2850989 0.5836571 -0.7603045
vn 0.0423597 -0.1540508 -0.9871545
vn 0.147935 0.7284234 -0.6689653
vn 0.1034208 0.2470407 -0.9634703
vn 0.5501826 -0.06384525 -0.8326001
vn -0.2671325 0.6219587 -0.7360759
vn 0.06905001 -0.2487563 -0.9661016
vn -0.2312216 -0.02269851 -0.9726363
vt 0.06385756 0.9241295
vt 0.08616543 0.8921556
vt 0.07299709 0.8959827
vt 0.4767144 0.9437633
vt 0.4936368 0.911118
vt 0.4821949 0.9212155
vt 0.4936368 0.911118
vt 0.4814818 0.9038043
vt 0.4821949 0.9212155
vt 0.3649554 0.8069307
vt 0.3786347 0.8105662
vt 0.3819418 0.8030843
vt 0.3781912 0.4909803
vt 0.3699644 0.521904
vt 0.3781912 0.5276257
vt 0.5110695 0.7391509
vt 0.4966693 0.7395001
vt 0.4917803 0.7478126
vt 0.5187056 0.7489103
vt 0.5110695 0.7391509
vt 0.5089319 0.7489102
vt 0.5187056 0.733183
vt 0.5145245 0.7170355
vt 0.5070591 0.7201295
vt 0.514719 0.6974611
vt 0.5025346 0.6980385
vt 0.510396 0.6876823
vt 0.3649554 0.8069307
vt 0.3786347 0.8105662
vt 0.3819418 0.8030843
vt 0.3781912 0.4909803
vt 0.3699644 0.521904
vt 0.3781912 0.5276257
vt 0.5110695 0.7391509
vt 0.4966693 0.7395001
vt 0.4917803 0.7478126
vt 0.5187056 0.7489103
vt 0.5110695 0.7391509
vt 0.5089319 0.7489102
vt 0.5187056 0.733183
vt 0.5145245 0.7170355
vt 0.5070591 0.7201295
vt 0.514719 0.6974611
vt 0.5025346 0.6980385
vt 0.510396 0.6876823
vt 0.3781912 0.4909803
vt 0.3699644 0.521904
vt 0.3781912 0.5276257
vt 0.9020672 0.3262777
vt 0.9212837 0.3223181
vt 0.9193439 0.3203335
vt 0.8836269 0.3343449
vt 0.8988647 0.3622866
vt 0.883297 0.3599348
vt 0.8988647 0.3622866
vt 0.9212837 0.3223181
vt 0.9020672 0.3262777
vt 0.9092083 0.4249945
vt 0.8940125 0.3725758
vt 0.8964481 0.4117222
vt 0.2402096 0.4918413
vt 0.221344 0.4704103
vt 0.2157288 0.5225649
vt 0.2255039 0.4527135
vt 0.1896114 0.404809
vt 0.2396755 0.4089332
vt 0.2322178 0.3883896
vt 0.2402096 0.3936701
vt 0.1908836 0.3984399
vt 0.1954098 0.3931799
vt 0.2131805 0.3582001
vt 0.2288818 0.3655539
vt 0.1185665 0.6646366
vt 0.1185665 0.6445789
vt 0.113369 0.6471252
vt 0.6601753 0.3186417
vt 0.6601753 0.2987232
vt 0.6504874 0.3137913
vt 0.1954098 0.3931799
vt 0.2322178 0.3883896
vt 0.2131805 0.3582001
vt 0.1653175 0.4060097
vt 0.1908836 0.3984399
vt 0.1896114 0.404809
vt 0.1498013 0.4251776
vt 0.1278 0.3983355
vt 0.1353321 0.4239249
vt 0.1411209 0.4395981
vt 0.1536789 0.4493098
vt 0.1245537 0.4470263
vt 0.1457958 0.4596643
vt 0.1217976 0.4612246
vt 0.1382217 0.4733744
vt 0.3595161 0
vt 0.3746567 0.03271675
vt 0.3868065 0.02874374
vt 0.3595161 0
vt 0.3868065 0.02874374
vt 0.3865662 0.00969696
vt 0.3781912 0.4909803
vt 0.3699644 0.521904
vt 0.3781912 0.5276257
vt 0.3706152 0.7438252
vt 0.3627062 0.755674
vt 0.3725357 0.7514555
vt 0.3557477 0.7861081
vt 0.3634589 0.7788955
vt 0.3608561 0.7943124
vt 0.3656909 0.7859627
vt 0.5187056 0.7489103
vt 0.5110695 0.7391509
vt 0.5089319 0.7489102
vt 0.4936368 0.9826984
vt 0.4884093 0.9620428
vt 0.4761562 0.9762397
vt 0.4714515 0.9453793
vt 0.4714515 0.9453793
vt 0.4884093 0.9620428
vt 0.4767144 0.9437633
vt 0.4440773 0.9109855
vt 0.4821949 0.9212155
vt 0.454098 0.9031234
vt 0.4814818 0.9038043
vt 0.4652486 0.9443884
vt 0.4379144 0.9306417
vt 0.4761562 0.9762397
vt 0.4638588 0.983315
vt 0.07299709 0.8959827
vt 0.08616543 0.8921556
vt 0.07934201 0.8846159
vt 0.07338762 0.872879
vt 0.0634675 0.8976431
vt 0.06385756 0.9241295
vt 0.04486525 0.8851204
vt 0.03121686 0.859231
vt 0.05123186 0.9216442
vt 0.06017005 0.9411688
vt 0.03610468 0.9398527
vt 0.01004601 0.8674879
vt 0.01850688 0.8533201
vt 0.02838552 0.9020376
vt 0.02470756 0.9247932
vt 0.01224756 0.9411688
vt 0.0002728701 0.9029598
vt 0 0.8850002
vt 0.4806775 0.5175047
vt 0.4816559 0.5265226
vt 0.4936866 0.5095549
vt 0.4876038 0.5330782
vt 0.5099725 0.52246
vt 0.5112042 0.5095549
vt 0.5165694 0.5444326
vt 0.5167068 0.534193
vt 0.4899417 0.5762701
vt 0.4743747 0.569252
vt 0.5167068 0.5688143
vt 0.4767221 0.5885115
vt 0.495402 0.5828342
vt 0.5000117 0.5916376
vt 0.4836912 0.6058388
vt 0.500097 0.6062479
vt 0.8937874 0.9040164
vt 0.8860264 0.9141832
vt 0.9052429 0.9097081
vt 0.8844414 0.9246646
vt 0.9047389 0.9518324
vt 0.8735342 0.9358982
vt 0.8977633 0.9650657
vt 0.8652945 0.9589346
vt 0.03121686 0.859231
vt 0.07338762 0.872879
vt 0.07673991 0.8608704
vt 0.03345716 0.8537893
vt 0.01850688 0.8533201
vt 0.5459819 0.3462019
vt 0.5017093 0.3721991
vt 0.5452973 0.3706198
vt 0.4924459 0.3581247
vt 0.5390481 0.3304052
vt 0.5494249 0.3325682
vt 0.5494249 0.3031883
vt 0.4958705 0.3360071
vt 0.5321972 0.3107758
vt 0.5395291 0.3010979
vt 0.5052654 0.3182278
vt 0.4935175 0.3192406
vt 0.8860264 0.9141832
vt 0.8735342 0.9358982
vt 0.8844414 0.9246646
vt 0.8682637 0.9357594
vt 0.8652945 0.9589346
vt 0.8591242 0.9530967
vt 0.8471923 0.9650657
vt 0.8359294 0.9602172
vt 0.8672848 0.9120962
vt 0.8722949 0.9056799
vt 0.8330636 0.8941444
vt 0.8937874 0.9040164
vt 0.8670406 0.8811515
vt 0.8494177 0.8781241
vt 0.8740335 0.8849296
vt 0.886817 0.889085
vt 0.5839798 0.8992825
vt 0.5997984 0.8893046
vt 0.5819786 0.8680439
vt 0.5648718 0.8956194
vt 0.5636389 0.880075
vt 0.5659366 0.8687015
vt 0.5336921 0.915411
vt 0.5632832 0.9301667
vt 0.5997984 0.9376373
vt 0.5844383 0.9554529
vt 0.5290401 0.9310379
vt 0.5653336 0.9614859
vt 0.5408418 0.9486847
vt 0.5648718 0.8956194
vt 0.5636389 0.880075
vt 0.5336921 0.915411
vt 0.5251734 0.9095984
vt 0.5290401 0.9310379
vt 0.5192068 0.9277964
vt 0.5659366 0.8687015
vt 0.5247014 0.8805027
vt 0.3809025 0.7924491
vt 0.3793344 0.7743981
vt 0.3656909 0.7859627
vt 0.3634589 0.7788955
vt 0.3819418 0.7575901
vt 0.3725357 0.7514555
vt 0.474834 0.6135842
vt 0.4743748 0.6258878
vt 0.4858701 0.6062477
vt 0.4791052 0.6342146
vt 0.4958639 0.6076388
vt 0.5002015 0.6265306
vt 0.5053384 0.6611353
vt 0.5057683 0.6339389
vt 0.4770396 0.6650211
vt 0.488137 0.6724757
vt 0.4922605 0.6788592
vt 0.4807534 0.677848
vt 0.3649554 0.8069307
vt 0.3819418 0.8030843
vt 0.3608561 0.7943124
vt 0.3809025 0.7924491
vt 0.3656909 0.7859627
vt 0.3634589 0.7788955
vt 0.3557477 0.7861081
vt 0.3627062 0.755674
vt 0.3725357 0.7514555
vt 0.3706152 0.7438252
vt 0.7271989 0.8035693
vt 0.7159671 0.8236694
vt 0.7276025 0.8162875
vt 0.7127164 0.8155599
vt 0.7108208 0.8122044
vt 0.4922011 0.6797177
vt 0.5041366 0.6824247
vt 0.4956794 0.6788592
vt 0.4933639 0.6985458
vt 0.510396 0.6876823
vt 0.5025346 0.6980385
vt 0.4924533 0.7206867
vt 0.5070591 0.7201295
vt 0.4966693 0.7395001
vt 0.5110695 0.7391509
vt 0.4917803 0.7478126
vt 0.5089319 0.7489102
vt 0.4944813 0.752792
vt 0.5187503 0.9286885
vt 0.5153856 0.9113069
vt 0.5009415 0.9184985
vt 0.5109262 0.9031234
vt 0.4986122 0.9032054
vt 0.5187503 0.9286885
vt 0.4978999 0.9427128
vt 0.5119677 0.9427128
vt 0.5009415 0.9184985
vt 0.4936369 0.9294133
vt 0.4922605 0.6788592
vt 0.5048134 0.677701
vt 0.5053384 0.6611353
vt 0.5187056 0.664342
vt 0.5175407 0.6382132
vt 0.5057683 0.6339389
vt 0.2923262 0.1475241
vt 0.2844751 0.148584
vt 0.2923262 0.1633782
vt 0.2845891 0.1580737
vt 0.08372021 0.7739197
vt 0.09317064 0.776927
vt 0.07685804 0.7484188
vt 0.09150934 0.7427578
vt 0.0839355 0.7285143
vt 0.5175407 0.6382132
vt 0.5187056 0.6192832
vt 0.5057683 0.6339389
vt 0.4958639 0.6076388
vt 0.5002015 0.6265306
vt 0.5097308 0.6078385
vt 0.09150934 0.7427578
vt 0.08596754 0.7166891
vt 0.0839355 0.7285143
vt 0.09915066 0.7270731
vt 0.095227 0.7144687
vt 0.1080477 0.7105073
vt 0.119936 0.7288448
vt 0.09490061 0.7430196
vt 0.119936 0.7500445
vt 0.1185019 0.7761501
vt 0.09317064 0.776927
vt 0.1085207 0.7744166
vt 0.1163688 0.781682
vt 0.1023896 0.7825989
vt 0.7123926 0.7844682
vt 0.7271989 0.8035693
vt 0.7276025 0.7924695
vt 0.7108208 0.8122044
vt 0.708829 0.7936726
vt 0.3809025 0.7924491
vt 0.3793344 0.7743981
vt 0.3656909 0.7859627
vt 0.3634589 0.7788955
vt 0.3819418 0.7575901
vt 0.3725357 0.7514555
vt 0.474834 0.6135842
vt 0.4743748 0.6258878
vt 0.4858701 0.6062477
vt 0.4791052 0.6342146
vt 0.4958639 0.6076388
vt 0.5002015 0.6265306
vt 0.5053384 0.6611353
vt 0.5057683 0.6339389
vt 0.4770396 0.6650211
vt 0.488137 0.6724757
vt 0.4922605 0.6788592
vt 0.4807534 0.677848
vt 0.3649554 0.8069307
vt 0.3819418 0.8030843
vt 0.3608561 0.7943124
vt 0.3809025 0.7924491
vt 0.3656909 0.7859627
vt 0.3634589 0.7788955
vt 0.3557477 0.7861081
vt 0.3627062 0.755674
vt 0.3725357 0.7514555
vt 0.3706152 0.7438252
vt 0.7271989 0.8035693
vt 0.7159671 0.8236694
vt 0.7276025 0.8162875
vt 0.7127164 0.8155599
vt 0.7108208 0.8122044
vt 0.4922011 0.6797177
vt 0.5041366 0.6824247
vt 0.4956794 0.6788592
vt 0.4933639 0.6985458
vt 0.510396 0.6876823
vt 0.5025346 0.6980385
vt 0.4924533 0.7206867
vt 0.5070591 0.7201295
vt 0.4966693 0.7395001
vt 0.5110695 0.7391509
vt 0.4917803 0.7478126
vt 0.5089319 0.7489102
vt 0.4944813 0.752792
vt 0.5187503 0.9286885
vt 0.5153856 0.9113069
vt 0.5009415 0.9184985
vt 0.5109262 0.9031234
vt 0.4986122 0.9032054
vt 0.5187503 0.9286885
vt 0.4978999 0.9427128
vt 0.5119677 0.9427128
vt 0.5009415 0.9184985
vt 0.4936369 0.9294133
vt 0.4922605 0.6788592
vt 0.5048134 0.677701
vt 0.5053384 0.6611353
vt 0.5187056 0.664342
vt 0.5175407 0.6382132
vt 0.5057683 0.6339389
vt 0.2923262 0.1475241
vt 0.2844751 0.148584
vt 0.2923262 0.1633782
vt 0.2845891 0.1580737
vt 0.08372021 0.7739197
vt 0.09317064 0.776927
vt 0.07685804 0.7484188
vt 0.09150934 0.7427578
vt 0.0839355 0.7285143
vt 0.5175407 0.6382132
vt 0.5187056 0.6192832
vt 0.5057683 0.6339389
vt 0.4958639 0.6076388
vt 0.5002015 0.6265306
vt 0.5097308 0.6078385
vt 0.09150934 0.7427578
vt 0.08596754 0.7166891
vt 0.0839355 0.7285143
vt 0.09915066 0.7270731
vt 0.095227 0.7144687
vt 0.1080477 0.7105073
vt 0.119936 0.7288448
vt 0.09490061 0.7430196
vt 0.119936 0.7500445
vt 0.1185019 0.7761501
vt 0.09317064 0.776927
vt 0.1085207 0.7744166
vt 0.1163688 0.781682
vt 0.1023896 0.7825989
vt 0.7123926 0.7844682
vt 0.7271989 0.8035693
vt 0.7276025 0.7924695
vt 0.7108208 0.8122044
vt 0.708829 0.7936726
vt 0.3634589 0.7788955
vt 0.3793344 0.7743981
vt 0.3819418 0.7575901
vt 0.3725357 0.7514555
vt 0.3634589 0.7788955
vt 0.3656909 0.7859627
vt 0.3793344 0.7743981
vt 0.3809025 0.7924491
vt 0.5145245 0.7170355
vt 0.5070591 0.7201295
vt 0.5110695 0.7391509
vt 0.5187056 0.733183
vt 0.5145245 0.7170355
vt 0.514719 0.6974611
vt 0.5070591 0.7201295
vt 0.5025346 0.6980385
vt 0.510396 0.6876823
vt 0.3809025 0.7924491
vt 0.3656909 0.7859627
vt 0.3608561 0.7943124
vt 0.3819418 0.8030843
vt 0.3649554 0.8069307
vt 0.3786347 0.8105662
vt 0.3634589 0.7788955
vt 0.3608561 0.7943124
vt 0.3656909 0.7859627
vt 0.3557477 0.7861081
vt 0.3627062 0.755674
vt 0.3725357 0.7514555
vt 0.3706152 0.7438252
vt 0.474834 0.6135842
vt 0.4743748 0.6258878
vt 0.4858701 0.6062477
vt 0.4791052 0.6342146
vt 0.4958639 0.6076388
vt 0.5002015 0.6265306
vt 0.5053384 0.6611353
vt 0.5057683 0.6339389
vt 0.5175407 0.6382132
vt 0.5187056 0.664342
vt 0.4770396 0.6650211
vt 0.488137 0.6724757
vt 0.4922605 0.6788592
vt 0.4807534 0.677848
vt 0.7271989 0.8035693
vt 0.7159671 0.8236694
vt 0.7276025 0.8162875
vt 0.7127164 0.8155599
vt 0.4922011 0.6797177
vt 0.5041366 0.6824247
vt 0.4956794 0.6788592
vt 0.4933639 0.6985458
vt 0.510396 0.6876823
vt 0.5025346 0.6980385
vt 0.4924533 0.7206867
vt 0.5070591 0.7201295
vt 0.4966693 0.7395001
vt 0.4917803 0.7478126
vt 0.5110695 0.7391509
vt 0.7108208 0.8122044
vt 0.7127164 0.8155599
vt 0.7271989 0.8035693
vt 0.7123926 0.7844682
vt 0.708829 0.7936726
vt 0.7276025 0.7924695
vt 0.4944813 0.752792
vt 0.5089319 0.7489102
vt 0.4917803 0.7478126
vt 0.5110695 0.7391509
vt 0.5187056 0.7489103
vt 0.4966693 0.7395001
vt 0.5187503 0.9286885
vt 0.4978999 0.9427128
vt 0.5119677 0.9427128
vt 0.5009415 0.9184985
vt 0.4936369 0.9294133
vt 0.5153856 0.9113069
vt 0.5109262 0.9031234
vt 0.4986122 0.9032054
vt 0.4922605 0.6788592
vt 0.5048134 0.677701
vt 0.5053384 0.6611353
vt 0.5187056 0.664342
vt 0.2923262 0.1475241
vt 0.2844751 0.148584
vt 0.2923262 0.1633782
vt 0.2845891 0.1580737
vt 0.08372021 0.7739197
vt 0.09317064 0.776927
vt 0.07685804 0.7484188
vt 0.09150934 0.7427578
vt 0.0839355 0.7285143
vt 0.5175407 0.6382132
vt 0.5187056 0.6192832
vt 0.5057683 0.6339389
vt 0.4958639 0.6076388
vt 0.5002015 0.6265306
vt 0.5097308 0.6078385
vt 0.09150934 0.7427578
vt 0.08596754 0.7166891
vt 0.0839355 0.7285143
vt 0.09915066 0.7270731
vt 0.095227 0.7144687
vt 0.1080477 0.7105073
vt 0.119936 0.7288448
vt 0.09490061 0.7430196
vt 0.119936 0.7500445
vt 0.1185019 0.7761501
vt 0.09317064 0.776927
vt 0.1085207 0.7744166
vt 0.1163688 0.781682
vt 0.1023896 0.7825989
vt 0.7684534 0.6404152
vt 0.7588019 0.6273575
vt 0.7477729 0.6468506
vt 0.765553 0.6578751
vt 0.7362013 0.6625595
vt 0.758954 0.7020035
vt 0.7689815 0.6889038
vt 0.7733076 0.690033
vt 0.7324886 0.6708412
vt 0.7339618 0.6619759
vt 0.7392466 0.7109947
vt 0.7507176 0.7096596
vt 0.7347193 0.7432709
vt 0.7628467 0.7303085
vt 0.7408011 0.7471848
vt 0.754236 0.7408371
vt 0.2844753 0.08818054
vt 0.2835674 0.07673454
vt 0.2371502 0.04396057
vt 0.2463264 0.110651
vt 0.2799797 0.1378803
vt 0.2567253 0.1367378
vt 0.2745781 0.1439514
vt 0.1829147 0.1522198
vt 0.2379971 0.1646767
vt 0.1949081 0.1032352
vt 0.1854305 0.03174782
vt 0.1601925 0.1418533
vt 0.1651382 0.1482716
vt 0.2096653 0.00753212
vt 0.2433872 0.03562927
vt 0.2565136 0.04773903
vt 0.176342 0.002906799
vt 0.159584 0.03564835
vt 0.1614742 0
vt 0.1355934 0.02211952
vt 0.1414032 0.08220863
vt 0.1217976 0.04123497
vt 0.1219769 0.07967377
vt 0.1360168 0.1269093
vt 0.8964481 0.4117222
vt 0.8980026 0.4482965
vt 0.9004078 0.4289141
vt 0.8688793 0.4258862
vt 0.8678131 0.4436369
vt 0.9003086 0.4604721
vt 0.8758163 0.3814793
vt 0.883297 0.3599348
vt 0.8734512 0.3665371
vt 0.8940125 0.3725758
vt 0.8988647 0.3622866
vt 0.8679867 0.361433
vt 0.8836269 0.3343449
vt 0.9080009 0.4831085
vt 0.9058037 0.470911
vt 0.893301 0.4903965
vt 0.9020653 0.4990377
vt 0.9003086 0.4604721
vt 0.9004078 0.4289141
vt 0.8980026 0.4482965
vt 0.9058037 0.470911
vt 0.9080009 0.4831085
vt 0.9212837 0.4926319
vt 0.9020653 0.4990377
vt 0.2157288 0.5225649
vt 0.2141476 0.5381165
vt 0.2190952 0.5325751
vt 0.2060318 0.4939981
vt 0.221344 0.4704103
vt 0.2047443 0.5408106
vt 0.1896114 0.404809
vt 0.1851521 0.5210705
vt 0.1536789 0.4493098
vt 0.1498013 0.4251776
vt 0.1457958 0.4596643
vt 0.146637 0.485446
vt 0.1382217 0.4733744
vt 0.8868291 0.7560501
vt 0.9019729 0.7629471
vt 0.8914063 0.7471809
vt 0.8895826 0.7900238
vt 0.8962213 0.7972336
vt 0.8663014 0.8197784
vt 0.8682321 0.7646255
vt 0.8837102 0.8218613
vt 0.8946265 0.8211937
vt 0.8864766 0.8275414
vt 0.8584009 0.7885895
vt 0.8330637 0.7829933
vt 0.8338567 0.8293343
vt 0.8542789 0.8356285
vt 0.3865662 0.00969696
vt 0.4123974 0.006477356
vt 0.4074745 0.003047943
vt 0.3868065 0.02874374
vt 0.4055119 0.03882408
vt 0.3917542 0.04005432
vt 0.3746567 0.03271675
vt 0.3862896 0.05008316
vt 0.4025726 0.0550251
vt 0.4049397 0.08101845
vt 0.3596935 0.04695511
vt 0.3496208 0.03633118
vt 0.3344097 0.03453445
vt 0.3406811 0.04436684
vt 0.3818474 0.05933571
vt 0.3894768 0.09007835
vt 0.4123974 0.09342194
vt 0.376894 0.1233635
vt 0.3597813 0.1057472
vt 0.3806629 0.1297359
vt 0.3952007 0.1213226
vt 0.3699322 0.137825
vt 0.3491688 0.1423721
vt 0.3291054 0.1475239
vt 0.3165379 0.1197262
vt 0.3894768 0.09007835
vt 0.3596935 0.04695511
vt 0.3597813 0.1057472
vt 0.3406811 0.04436684
vt 0.2968884 0.06849098
vt 0.3165379 0.1197262
vt 0.2909756 0.09919548
vt 0.2877159 0.08585739
vt 0.2844753 0.05119896
vt 0.3048286 0.0375843
vt 0.3344097 0.03453445
vt 0.3177471 0.02957344
vt 0.3177986 0.01447105
vt 0.3177471 0.02957344
vt 0.3344097 0.03453445
vt 0.3496208 0.03633118
vt 0.3283672 0.007453918
vt 0.7689815 0.6889038
vt 0.7733076 0.690033
vt 0.765553 0.6578751
vt 0.7684534 0.6404152
vt 0.8038373 0.6294556
vt 0.8186636 0.7046089
vt 0.827117 0.647747
vt 0.827117 0.6985321
vt 0.794132 0.7262726
vt 0.7628467 0.7303085
vt 0.758954 0.7020035
vt 0.1829147 0.1522198
vt 0.1913738 0.1604481
vt 0.2379971 0.1646767
vt 0.1651382 0.1482716
vt 0.187912 0.1646767
vt 0.1743317 0.1598492
vt 0.1355724 0.1304512
vt 0.1651382 0.1482716
vt 0.1601925 0.1418533
vt 0.1360168 0.1269093
vt 0.1219769 0.07967377
vt 0.1245098 0.1311493
vt 0.5187056 0.733183
vt 0.5145245 0.7170355
vt 0.5110695 0.7391509
vt 0.5070591 0.7201295
vt 0.514719 0.6974611
vt 0.5025346 0.6980385
vt 0.510396 0.6876823
vt 0.474834 0.6135842
vt 0.4743748 0.6258878
vt 0.4858701 0.6062477
vt 0.4791052 0.6342146
vt 0.4958639 0.6076388
vt 0.5002015 0.6265306
vt 0.5053384 0.6611353
vt 0.4770396 0.6650211
vt 0.5057683 0.6339389
vt 0.5175407 0.6382132
vt 0.5187056 0.664342
vt 0.5048134 0.677701
vt 0.4922605 0.6788592
vt 0.488137 0.6724757
vt 0.4807534 0.677848
vt 0.3649554 0.8069307
vt 0.3786347 0.8105662
vt 0.3819418 0.8030843
vt 0.3608561 0.7943124
vt 0.3809025 0.7924491
vt 0.3656909 0.7859627
vt 0.3793344 0.7743981
vt 0.3634589 0.7788955
vt 0.3819418 0.7575901
vt 0.3725357 0.7514555
vt 0.3627062 0.755674
vt 0.7271989 0.8035693
vt 0.7159671 0.8236694
vt 0.7276025 0.8162875
vt 0.7127164 0.8155599
vt 0.7108208 0.8122044
vt 0.7123926 0.7844682
vt 0.708829 0.7936726
vt 0.7276025 0.7924695
vt 0.4922011 0.6797177
vt 0.5041366 0.6824247
vt 0.4956794 0.6788592
vt 0.4933639 0.6985458
vt 0.510396 0.6876823
vt 0.5025346 0.6980385
vt 0.4924533 0.7206867
vt 0.5070591 0.7201295
vt 0.4966693 0.7395001
vt 0.5110695 0.7391509
vt 0.4917803 0.7478126
vt 0.5089319 0.7489102
vt 0.4944813 0.752792
vt 0.5187503 0.9286885
vt 0.5153856 0.9113069
vt 0.5009415 0.9184985
vt 0.4978999 0.9427128
vt 0.5119677 0.9427128
vt 0.4936369 0.9294133
vt 0.1023896 0.7825989
vt 0.1163688 0.781682
vt 0.1085207 0.7744166
vt 0.1185019 0.7761501
vt 0.119936 0.7500445
vt 0.09490061 0.7430196
vt 0.119936 0.7288448
vt 0.09915066 0.7270731
vt 0.1080477 0.7105073
vt 0.095227 0.7144687
vt 0.09150934 0.7427578
vt 0.08596754 0.7166891
vt 0.0839355 0.7285143
vt 0.5153856 0.9113069
vt 0.5109262 0.9031234
vt 0.5009415 0.9184985
vt 0.4986122 0.9032054
vt 0.2923262 0.1475241
vt 0.2844751 0.148584
vt 0.2923262 0.1633782
vt 0.2845891 0.1580737
vt 0.08372021 0.7739197
vt 0.09317064 0.776927
vt 0.07685804 0.7484188
vt 0.09150934 0.7427578
vt 0.0839355 0.7285143
vt 0.09490061 0.7430196
vt 0.1085207 0.7744166
vt 0.1023896 0.7825989
vt 0.5175407 0.6382132
vt 0.5187056 0.6192832
vt 0.5057683 0.6339389
vt 0.4958639 0.6076388
vt 0.5097308 0.6078385
vt 0.9019729 0.8507271
vt 0.8885486 0.8491974
vt 0.8852985 0.8781242
vt 0.8946265 0.8211937
vt 0.8723373 0.8585358
vt 0.8864766 0.8275414
usemtl MV_RockClassic_Rocks
f 1/1/1 3/3/3 2/2/2
f 4/4/4 6/6/6 5/5/5
f 7/7/7 9/9/9 8/8/8
f 10/10/10 12/12/12 11/11/11
f 13/13/13 15/15/15 14/14/14
f 16/16/16 18/18/18 17/17/17
f 19/19/19 21/21/21 20/20/20
f 22/22/22 20/20/20 23/23/23
f 23/23/23 20/20/20 24/24/24
f 23/23/23 24/24/24 25/25/25
f 26/26/26 25/25/25 24/24/24
f 27/27/27 25/25/25 26/26/26
f 28/28/28 30/30/30 29/29/29
f 31/31/31 33/33/33 32/32/32
f 34/34/34 36/36/36 35/35/35
f 37/37/37 39/39/39 38/38/38
f 40/40/40 38/38/38 41/41/41
f 41/41/41 38/38/38 42/42/42
f 41/41/41 42/42/42 43/43/43
f 44/44/44 43/43/43 42/42/42
f 45/45/45 43/43/43 44/44/44
f 46/46/46 48/48/48 47/47/47
f 49/49/49 51/51/51 50/50/50
f 52/52/52 49/49/49 53/53/53
f 53/53/53 54/54/54 52/52/52
f 55/55/55 57/57/57 56/56/56
f 58/58/58 60/60/60 59/59/59
f 61/61/61 63/63/63 62/62/62
f 64/64/64 62/62/62 65/65/65
f 65/65/65 66/66/66 64/64/64
f 65/65/65 67/67/67 66/66/66
f 67/67/67 68/68/68 66/66/66
f 67/67/67 65/65/65 69/69/69
f 69/69/69 70/70/70 67/67/67
f 71/71/71 72/72/72 67/67/67
f 73/73/73 75/75/75 74/74/74
f 76/76/76 78/78/78 77/77/77
f 79/79/79 81/81/81 80/80/80
f 82/82/82 79/79/79 83/83/83
f 84/84/84 82/82/82 83/83/83
f 84/84/84 85/85/85 82/82/82
f 82/82/82 85/85/85 86/86/86
f 87/87/87 86/86/86 85/85/85
f 85/85/85 88/88/88 87/87/87
f 85/85/85 89/89/89 88/88/88
f 90/90/90 87/87/87 88/88/88
f 88/88/88 89/89/89 91/91/91
f 91/91/91 90/90/90 88/88/88
f 90/90/90 91/91/91 92/92/92
f 93/93/93 92/92/92 91/91/91
f 94/94/94 96/96/96 95/95/95
f 97/97/97 99/99/99 98/98/98
f 100/100/100 102/102/102 101/101/101
f 103/103/103 105/105/105 104/104/104
f 106/106/106 104/104/104 107/107/107
f 108/108/108 106/106/106 107/107/107
f 107/107/107 109/109/109 108/108/108
f 110/110/110 112/112/112 111/111/111
f 113/113/113 115/115/115 114/114/114
f 115/115/115 116/116/116 114/114/114
f 117/117/117 119/119/119 118/118/118
f 117/117/117 120/120/120 119/119/119
f 120/120/120 121/121/121 119/119/119
f 122/122/122 121/121/121 120/120/120
f 121/121/121 122/122/122 123/123/123
f 124/124/124 120/120/120 117/117/117
f 120/120/120 124/124/124 125/125/125
f 124/124/124 117/117/117 126/126/126
f 126/126/126 127/127/127 124/124/124
f 128/128/128 130/130/130 129/129/129
f 128/128/128 131/131/131 130/130/130
f 132/132/132 131/131/131 128/128/128
f 132/132/132 128/128/128 133/133/133
f 132/132/132 134/134/134 131/131/131
f 135/135/135 131/131/131 134/134/134
f 132/132/132 133/133/133 136/136/136
f 133/133/133 137/137/137 136/136/136
f 136/136/136 137/137/137 138/138/138
f 134/134/134 139/139/139 135/135/135
f 140/140/140 135/135/135 139/139/139
f 141/141/141 134/134/134 132/132/132
f 136/136/136 141/141/141 132/132/132
f 139/139/139 134/134/134 141/141/141
f 136/136/136 138/138/138 142/142/142
f 142/142/142 141/141/141 136/136/136
f 138/138/138 143/143/143 142/142/142
f 143/143/143 144/144/144 142/142/142
f 142/142/142 144/144/144 141/141/141
f 144/144/144 139/139/139 141/141/141
f 144/144/144 145/145/145 139/139/139
f 146/146/146 148/148/148 147/147/147
f 149/149/149 147/147/147 148/148/148
f 150/150/150 149/149/149 148/148/148
f 151/151/151 150/150/150 148/148/148
f 152/152/152 149/149/149 150/150/150
f 150/150/150 153/153/153 152/152/152
f 154/154/154 149/149/149 152/152/152
f 154/154/154 155/155/155 149/149/149
f 156/156/156 154/154/154 152/152/152
f 155/155/155 154/154/154 157/157/157
f 156/156/156 158/158/158 154/154/154
f 154/154/154 158/158/158 157/157/157
f 158/158/158 156/156/156 159/159/159
f 158/158/158 159/159/159 157/157/157
f 159/159/159 160/160/160 157/157/157
f 161/161/161 160/160/160 159/159/159
f 162/162/162 164/164/164 163/163/163
f 164/164/164 165/165/165 163/163/163
f 164/164/164 166/166/166 165/165/165
f 165/165/165 166/166/166 167/167/167
f 167/167/167 166/166/166 168/168/168
f 168/168/168 169/169/169 167/167/167
f 170/170/170 172/172/172 171/171/171
f 172/172/172 170/170/170 173/173/173
f 174/174/174 173/173/173 170/170/170
f 175/175/175 177/177/177 176/176/176
f 178/178/178 175/175/175 176/176/176
f 179/179/179 175/175/175 178/178/178
f 180/180/180 175/175/175 179/179/179
f 181/181/181 180/180/180 179/179/179
f 179/179/179 178/178/178 182/182/182
f 179/179/179 183/183/183 181/181/181
f 182/182/182 183/183/183 179/179/179
f 181/181/181 183/183/183 184/184/184
f 183/183/183 182/182/182 185/185/185
f 182/182/182 186/186/186 185/185/185
f 187/187/187 189/189/189 188/188/188
f 188/188/188 190/190/190 187/187/187
f 188/188/188 191/191/191 190/190/190
f 190/190/190 191/191/191 192/192/192
f 192/192/192 191/191/191 193/193/193
f 193/193/193 194/194/194 192/192/192
f 195/195/195 187/187/187 190/190/190
f 195/195/195 196/196/196 187/187/187
f 195/195/195 197/197/197 196/196/196
f 187/187/187 196/196/196 198/198/198
f 196/196/196 197/197/197 199/199/199
f 199/199/199 197/197/197 200/200/200
f 199/199/199 201/201/201 196/196/196
f 198/198/198 196/196/196 201/201/201
f 198/198/198 201/201/201 202/202/202
f 203/203/203 205/205/205 204/204/204
f 206/206/206 205/205/205 203/203/203
f 206/206/206 207/207/207 205/205/205
f 208/208/208 205/205/205 207/207/207
f 206/206/206 203/203/203 209/209/209
f 210/210/210 209/209/209 203/203/203
f 210/210/210 203/203/203 211/211/211
f 211/211/211 212/212/212 210/210/210
f 213/213/213 209/209/209 210/210/210
f 212/212/212 214/214/214 210/210/210
f 213/213/213 210/210/210 214/214/214
f 213/213/213 214/214/214 215/215/215
f 216/216/216 218/218/218 217/217/217
f 218/218/218 219/219/219 217/217/217
f 220/220/220 219/219/219 218/218/218
f 220/220/220 221/221/221 219/219/219
f 217/217/217 219/219/219 222/222/222
f 223/223/223 222/222/222 219/219/219
f 224/224/224 226/226/226 225/225/225
f 227/227/227 225/225/225 226/226/226
f 227/227/227 228/228/228 225/225/225
f 229/229/229 228/228/228 227/227/227
f 230/230/230 232/232/232 231/231/231
f 232/232/232 233/233/233 231/231/231
f 234/234/234 233/233/233 232/232/232
f 234/234/234 235/235/235 233/233/233
f 236/236/236 233/233/233 235/235/235
f 237/237/237 236/236/236 235/235/235
f 238/238/238 233/233/233 236/236/236
f 239/239/239 238/238/238 236/236/236
f 239/239/239 236/236/236 240/240/240
f 241/241/241 238/238/238 239/239/239
f 241/241/241 239/239/239 240/240/240
f 242/242/242 244/244/244 243/243/243
f 245/245/245 243/243/243 244/244/244
f 245/245/245 244/244/244 246/246/246
f 247/247/247 246/246/246 244/244/244
f 244/244/244 248/248/248 247/247/247
f 248/248/248 249/249/249 247/247/247
f 249/249/249 250/250/250 247/247/247
f 251/251/251 250/250/250 249/249/249
f 252/252/252 254/254/254 253/253/253
f 253/253/253 255/255/255 252/252/252
f 256/256/256 252/252/252 255/255/255
f 257/257/257 259/259/259 258/258/258
f 260/260/260 257/257/257 258/258/258
f 261/261/261 260/260/260 258/258/258
f 260/260/260 261/261/261 262/262/262
f 263/263/263 260/260/260 262/262/262
f 264/264/264 263/263/263 262/262/262
f 263/263/263 264/264/264 265/265/265
f 266/266/266 265/265/265 264/264/264
f 267/267/267 263/263/263 265/265/265
f 268/268/268 267/267/267 266/266/266
f 269/269/269 267/267/267 268/268/268
f 270/270/270 272/272/272 271/271/271
f 271/271/271 272/272/272 273/273/273
f 274/274/274 273/273/273 272/272/272
f 275/275/275 277/277/277 276/276/276
f 276/276/276 278/278/278 275/275/275
f 279/279/279 278/278/278 276/276/276
f 280/280/280 282/282/282 281/281/281
f 281/281/281 282/282/282 283/283/283
f 283/283/283 282/282/282 284/284/284
f 285/285/285 284/284/284 282/282/282
f 286/286/286 288/288/288 287/287/287
f 288/288/288 289/289/289 287/287/287
f 290/290/290 292/292/292 291/291/291
f 293/293/293 291/291/291 292/292/292
f 292/292/292 294/294/294 293/293/293
f 295/295/295 297/297/297 296/296/296
f 297/297/297 298/298/298 296/296/296
f 299/299/299 298/298/298 297/297/297
f 300/300/300 296/296/296 298/298/298
f 301/301/301 303/303/303 302/302/302
f 304/304/304 301/301/301 302/302/302
f 304/304/304 302/302/302 305/305/305
f 304/304/304 305/305/305 306/306/306
f 306/306/306 307/307/307 304/304/304
f 304/304/304 308/308/308 301/301/301
f 307/307/307 308/308/308 304/304/304
f 308/308/308 307/307/307 309/309/309
f 310/310/310 308/308/308 309/309/309
f 308/308/308 311/311/311 301/301/301
f 308/308/308 312/312/312 311/311/311
f 312/312/312 310/310/310 313/313/313
f 314/314/314 311/311/311 312/312/312
f 314/314/314 312/312/312 313/313/313
f 315/315/315 317/317/317 316/316/316
f 318/318/318 315/315/315 316/316/316
f 318/318/318 319/319/319 315/315/315
f 320/320/320 322/322/322 321/321/321
f 323/323/323 321/321/321 322/322/322
f 323/323/323 324/324/324 321/321/321
f 325/325/325 324/324/324 323/323/323
f 326/326/326 328/328/328 327/327/327
f 328/328/328 329/329/329 327/327/327
f 330/330/330 329/329/329 328/328/328
f 330/330/330 331/331/331 329/329/329
f 332/332/332 329/329/329 331/331/331
f 333/333/333 332/332/332 331/331/331
f 334/334/334 329/329/329 332/332/332
f 335/335/335 334/334/334 332/332/332
f 335/335/335 332/332/332 336/336/336
f 337/337/337 334/334/334 335/335/335
f 337/337/337 335/335/335 336/336/336
f 338/338/338 340/340/340 339/339/339
f 341/341/341 339/339/339 340/340/340
f 341/341/341 340/340/340 342/342/342
f 343/343/343 342/342/342 340/340/340
f 340/340/340 344/344/344 343/343/343
f 344/344/344 345/345/345 343/343/343
f 345/345/345 346/346/346 343/343/343
f 347/347/347 346/346/346 345/345/345
f 348/348/348 350/350/350 349/349/349
f 349/349/349 351/351/351 348/348/348
f 352/352/352 348/348/348 351/351/351
f 353/353/353 355/355/355 354/354/354
f 356/356/356 353/353/353 354/354/354
f 357/357/357 356/356/356 354/354/354
f 356/356/356 357/357/357 358/358/358
f 359/359/359 356/356/356 358/358/358
f 360/360/360 359/359/359 358/358/358
f 359/359/359 360/360/360 361/361/361
f 362/362/362 361/361/361 360/360/360
f 363/363/363 359/359/359 361/361/361
f 364/364/364 363/363/363 362/362/362
f 365/365/365 363/363/363 364/364/364
f 366/366/366 368/368/368 367/367/367
f 367/367/367 368/368/368 369/369/369
f 370/370/370 369/369/369 368/368/368
f 371/371/371 373/373/373 372/372/372
f 372/372/372 374/374/374 371/371/371
f 375/375/375 374/374/374 372/372/372
f 376/376/376 378/378/378 377/377/377
f 377/377/377 378/378/378 379/379/379
f 379/379/379 378/378/378 380/380/380
f 381/381/381 380/380/380 378/378/378
f 382/382/382 384/384/384 383/383/383
f 384/384/384 385/385/385 383/383/383
f 386/386/386 388/388/388 387/387/387
f 389/389/389 387/387/387 388/388/388
f 388/388/388 390/390/390 389/389/389
f 391/391/391 393/393/393 392/392/392
f 393/393/393 394/394/394 392/392/392
f 395/395/395 394/394/394 393/393/393
f 396/396/396 392/392/392 394/394/394
f 397/397/397 399/399/399 398/398/398
f 400/400/400 397/397/397 398/398/398
f 400/400/400 398/398/398 401/401/401
f 400/400/400 401/401/401 402/402/402
f 402/402/402 403/403/403 400/400/400
f 400/400/400 404/404/404 397/397/397
f 403/403/403 404/404/404 400/400/400
f 404/404/404 403/403/403 405/405/405
f 406/406/406 404/404/404 405/405/405
f 404/404/404 407/407/407 397/397/397
f 404/404/404 408/408/408 407/407/407
f 408/408/408 406/406/406 409/409/409
f 410/410/410 407/407/407 408/408/408
f 410/410/410 408/408/408 409/409/409
f 411/411/411 413/413/413 412/412/412
f 414/414/414 411/411/411 412/412/412
f 414/414/414 415/415/415 411/411/411
f 416/416/416 418/418/418 417/417/417
f 419/419/419 418/418/418 416/416/416
f 420/420/420 422/422/422 421/421/421
f 423/423/423 421/421/421 422/422/422
f 424/424/424 426/426/426 425/425/425
f 427/427/427 426/426/426 424/424/424
f 428/428/428 430/430/430 429/429/429
f 431/431/431 429/429/429 430/430/430
f 432/432/432 429/429/429 431/431/431
f 433/433/433 435/435/435 434/434/434
f 433/433/433 436/436/436 435/435/435
f 437/437/437 435/435/435 436/436/436
f 437/437/437 436/436/436 438/438/438
f 439/439/439 441/441/441 440/440/440
f 440/440/440 442/442/442 439/439/439
f 442/442/442 443/443/443 439/439/439
f 443/443/443 444/444/444 439/439/439
f 445/445/445 444/444/444 443/443/443
f 446/446/446 448/448/448 447/447/447
f 448/448/448 449/449/449 447/447/447
f 450/450/450 449/449/449 448/448/448
f 450/450/450 451/451/451 449/449/449
f 452/452/452 449/449/449 451/451/451
f 453/453/453 452/452/452 451/451/451
f 453/453/453 454/454/454 452/452/452
f 455/455/455 452/452/452 454/454/454
f 456/456/456 449/449/449 452/452/452
f 457/457/457 456/456/456 452/452/452
f 457/457/457 452/452/452 458/458/458
f 459/459/459 456/456/456 457/457/457
f 459/459/459 457/457/457 458/458/458
f 460/460/460 462/462/462 461/461/461
f 461/461/461 463/463/463 460/460/460
f 464/464/464 466/466/466 465/465/465
f 467/467/467 464/464/464 465/465/465
f 468/468/468 467/467/467 465/465/465
f 467/467/467 468/468/468 469/469/469
f 470/470/470 467/467/467 469/469/469
f 471/471/471 470/470/470 469/469/469
f 470/470/470 471/471/471 472/472/472
f 473/473/473 470/470/470 472/472/472
f 474/474/474 472/472/472 471/471/471
f 475/475/475 477/477/477 476/476/476
f 475/475/475 478/478/478 477/477/477
f 475/475/475 479/479/479 478/478/478
f 478/478/478 480/480/480 477/477/477
f 481/481/481 483/483/483 482/482/482
f 482/482/482 483/483/483 484/484/484
f 485/485/485 482/482/482 484/484/484
f 484/484/484 483/483/483 486/486/486
f 487/487/487 489/489/489 488/488/488
f 488/488/488 490/490/490 487/487/487
f 491/491/491 490/490/490 488/488/488
f 487/487/487 490/490/490 492/492/492
f 492/492/492 490/490/490 493/493/493
f 494/494/494 493/493/493 490/490/490
f 495/495/495 497/497/497 496/496/496
f 496/496/496 497/497/497 498/498/498
f 499/499/499 501/501/501 500/500/500
f 501/501/501 502/502/502 500/500/500
f 503/503/503 505/505/505 504/504/504
f 506/506/506 504/504/504 505/505/505
f 505/505/505 507/507/507 506/506/506
f 508/508/508 510/510/510 509/509/509
f 510/510/510 511/511/511 509/509/509
f 512/512/512 511/511/511 510/510/510
f 513/513/513 509/509/509 511/511/511
f 514/514/514 516/516/516 515/515/515
f 517/517/517 514/514/514 515/515/515
f 517/517/517 515/515/515 518/518/518
f 517/517/517 518/518/518 519/519/519
f 519/519/519 520/520/520 517/517/517
f 517/517/517 521/521/521 514/514/514
f 520/520/520 521/521/521 517/517/517
f 521/521/521 520/520/520 522/522/522
f 523/523/523 521/521/521 522/522/522
f 521/521/521 524/524/524 514/514/514
f 521/521/521 525/525/525 524/524/524
f 525/525/525 523/523/523 526/526/526
f 527/527/527 524/524/524 525/525/525
f 527/527/527 525/525/525 526/526/526
f 528/528/528 530/530/530 529/529/529
f 531/531/531 530/530/530 528/528/528
f 530/530/530 531/531/531 532/532/532
f 533/533/533 532/532/532 531/531/531
f 533/533/533 531/531/531 534/534/534
f 533/533/533 534/534/534 535/535/535
f 532/532/532 533/533/533 536/536/536
f 536/536/536 537/537/537 532/532/532
f 538/538/538 536/536/536 533/533/533
f 533/533/533 539/539/539 538/538/538
f 539/539/539 540/540/540 538/538/538
f 541/541/541 539/539/539 533/533/533
f 539/539/539 542/542/542 540/540/540
f 541/541/541 542/542/542 539/539/539
f 542/542/542 541/541/541 543/543/543
f 544/544/544 546/546/546 545/545/545
f 546/546/546 544/544/544 547/547/547
f 548/548/548 547/547/547 544/544/544
f 548/548/548 549/549/549 547/547/547
f 549/549/549 548/548/548 550/550/550
f 550/550/550 551/551/551 549/549/549
f 552/552/552 551/551/551 550/550/550
f 553/553/553 547/547/547 549/549/549
f 549/549/549 551/551/551 553/553/553
f 547/547/547 554/554/554 546/546/546
f 547/547/547 553/553/553 554/554/554
f 555/555/555 553/553/553 551/551/551
f 555/555/555 551/551/551 556/556/556
f 546/546/546 554/554/554 557/557/557
f 558/558/558 546/546/546 557/557/557
f 558/558/558 559/559/559 546/546/546
f 554/554/554 560/560/560 557/557/557
f 554/554/554 561/561/561 560/560/560
f 554/554/554 553/553/553 561/561/561
f 562/562/562 560/560/560 561/561/561
f 563/563/563 562/562/562 561/561/561
f 564/564/564 561/561/561 553/553/553
f 563/563/563 561/561/561 564/564/564
f 553/553/553 555/555/555 564/564/564
f 563/563/563 564/564/564 565/565/565
f 564/564/564 566/566/566 565/565/565
f 564/564/564 555/555/555 566/566/566
f 566/566/566 555/555/555 567/567/567
f 568/568/568 570/570/570 569/569/569
f 568/568/568 569/569/569 571/571/571
f 571/571/571 569/569/569 572/572/572
f 573/573/573 572/572/572 569/569/569
f 568/568/568 571/571/571 574/574/574
f 574/574/574 575/575/575 568/568/568
f 576/576/576 575/575/575 574/574/574
f 575/575/575 577/577/577 568/568/568
f 577/577/577 575/575/575 578/578/578
f 576/576/576 579/579/579 575/575/575
f 580/580/580 575/575/575 579/579/579
f 581/581/581 573/573/573 582/582/582
f 583/583/583 573/573/573 581/581/581
f 581/581/581 584/584/584 583/583/583
f 585/585/585 587/587/587 586/586/586
f 588/588/588 585/585/585 586/586/586
f 588/588/588 590/590/590 589/589/589
f 591/591/591 589/589/589 590/590/590
f 592/592/592 594/594/594 593/593/593
f 592/592/592 593/593/593 595/595/595
f 596/596/596 592/592/592 595/595/595
f 595/595/595 593/593/593 597/597/597
f 596/596/596 595/595/595 598/598/598
f 599/599/599 595/595/595 597/597/597
f 598/598/598 595/595/595 600/600/600
f 598/598/598 600/600/600 601/601/601
f 600/600/600 595/595/595 602/602/602
f 595/595/595 599/599/599 602/602/602
f 603/603/603 602/602/602 599/599/599
f 603/603/603 604/604/604 602/602/602
f 605/605/605 607/607/607 606/606/606
f 606/606/606 608/608/608 605/605/605
f 608/608/608 606/606/606 609/609/609
f 605/605/605 608/608/608 610/610/610
f 605/605/605 610/610/610 611/611/611
f 612/612/612 608/608/608 609/609/609
f 612/612/612 610/610/610 608/608/608
f 612/612/612 609/609/609 613/613/613
f 614/614/614 612/612/612 613/613/613
f 615/615/615 611/611/611 610/610/610
f 615/615/615 616/616/616 611/611/611
f 615/615/615 617/617/617 616/616/616
f 617/617/617 615/615/615 618/618/618
f 619/619/619 621/621/621 620/620/620
f 619/619/619 620/620/620 622/622/622
f 620/620/620 623/623/623 622/622/622
f 622/622/622 623/623/623 624/624/624
f 624/624/624 625/625/625 622/622/622
f 624/624/624 623/623/623 626/626/626
f 624/624/624 626/626/626 625/625/625
f 623/623/623 627/627/627 626/626/626
f 623/623/623 628/628/628 627/627/627
f 625/625/625 626/626/626 629/629/629
f 630/630/630 625/625/625 629/629/629
f 630/630/630 629/629/629 631/631/631
f 632/632/632 631/631/631 629/629/629
f 633/633/633 626/626/626 627/627/627
f 626/626/626 633/633/633 629/629/629
f 633/633/633 627/627/627 628/628/628
f 633/633/633 634/634/634 629/629/629
f 634/634/634 633/633/633 628/628/628
f 635/635/635 634/634/634 628/628/628
f 634/634/634 635/635/635 636/636/636
f 637/637/637 634/634/634 636/636/636
f 636/636/636 635/635/635 638/638/638
f 638/638/638 635/635/635 639/639/639
f 640/640/640 636/636/636 638/638/638
f 641/641/641 636/636/636 640/640/640
f 642/642/642 636/636/636 641/641/641
f 637/637/637 636/636/636 642/642/642
f 637/637/637 642/642/642 643/643/643
f 644/644/644 646/646/646 645/645/645
f 645/645/645 646/646/646 647/647/647
f 646/646/646 648/648/648 647/647/647
f 648/648/648 646/646/646 649/649/649
f 650/650/650 648/648/648 649/649/649
f 650/650/650 651/651/651 648/648/648
f 648/648/648 651/651/651 652/652/652
f 648/648/648 652/652/652 653/653/653
f 653/653/653 647/647/647 648/648/648
f 647/647/647 653/653/653 654/654/654
f 654/654/654 653/653/653 655/655/655
f 656/656/656 658/658/658 657/657/657
f 656/656/656 659/659/659 658/658/658
f 660/660/660 659/659/659 656/656/656
f 661/661/661 663/663/663 662/662/662
f 663/663/663 664/664/664 662/662/662
f 662/662/662 664/664/664 665/665/665
f 666/666/666 662/662/662 665/665/665
f 667/667/667 666/666/666 665/665/665
f 667/667/667 668/668/668 666/666/666
f 662/662/662 666/666/666 669/669/669
f 670/670/670 662/662/662 669/669/669
f 662/662/662 670/670/670 671/671/671
f 672/672/672 674/674/674 673/673/673
f 673/673/673 675/675/675 672/672/672
f 676/676/676 675/675/675 673/673/673
f 677/677/677 675/675/675 676/676/676
f 678/678/678 680/680/680 679/679/679
f 680/680/680 678/678/678 681/681/681
f 681/681/681 678/678/678 682/682/682
f 682/682/682 678/678/678 683/683/683
f 684/684/684 686/686/686 685/685/685
f 685/685/685 686/686/686 687/687/687
f 685/685/685 687/687/687 688/688/688
f 689/689/689 688/688/688 687/687/687
f 690/690/690 688/688/688 689/689/689
f 691/691/691 693/693/693 692/692/692
f 693/693/693 694/694/694 692/692/692
f 695/695/695 694/694/694 693/693/693
f 695/695/695 696/696/696 694/694/694
f 697/697/697 694/694/694 696/696/696
f 698/698/698 694/694/694 697/697/697
f 696/696/696 695/695/695 699/699/699
f 699/699/699 697/697/697 696/696/696
f 699/699/699 700/700/700 697/697/697
f 701/701/701 697/697/697 700/700/700
f 702/702/702 697/697/697 701/701/701
f 703/703/703 697/697/697 702/702/702
f 704/704/704 698/698/698 697/697/697
f 704/704/704 697/697/697 703/703/703
f 705/705/705 698/698/698 704/704/704
f 705/705/705 704/704/704 703/703/703
f 706/706/706 708/708/708 707/707/707
f 706/706/706 709/709/709 708/708/708
f 710/710/710 708/708/708 709/709/709
f 710/710/710 709/709/709 711/711/711
f 710/710/710 711/711/711 712/712/712
f 713/713/713 712/712/712 711/711/711
f 713/713/713 714/714/714 712/712/712
f 715/715/715 714/714/714 713/713/713
f 716/716/716 715/715/715 713/713/713
f 717/717/717 719/719/719 718/718/718
f 718/718/718 720/720/720 717/717/717
f 721/721/721 717/717/717 720/720/720
f 721/721/721 722/722/722 717/717/717
f 721/721/721 723/723/723 722/722/722
f 722/722/722 724/724/724 717/717/717
f 725/725/725 727/727/727 726/726/726
f 728/728/728 725/725/725 726/726/726
f 729/729/729 728/728/728 726/726/726
f 728/728/728 729/729/729 730/730/730
f 731/731/731 728/728/728 730/730/730
f 732/732/732 731/731/731 730/730/730
f 731/731/731 732/732/732 733/733/733
f 734/734/734 733/733/733 732/732/732
f 735/735/735 731/731/731 733/733/733
f 734/734/734 735/735/735 733/733/733
f 736/736/736 735/735/735 734/734/734
f 737/737/737 735/735/735 736/736/736
f 738/738/738 740/740/740 739/739/739
f 741/741/741 740/740/740 738/738/738
f 738/738/738 742/742/742 741/741/741
f 743/743/743 740/740/740 741/741/741
f 744/744/744 746/746/746 745/745/745
f 746/746/746 747/747/747 745/745/745
f 747/747/747 749/749/749 748/748/748
f 749/749/749 750/750/750 748/748/748
f 750/750/750 749/749/749 751/751/751
f 752/752/752 750/750/750 751/751/751
f 751/751/751 753/753/753 752/752/752
f 751/751/751 749/749/749 754/754/754
f 751/751/751 755/755/755 753/753/753
f 751/751/751 754/754/754 755/755/755
f 754/754/754 756/756/756 755/755/755
f 757/757/757 759/759/759 758/758/758
f 760/760/760 758/758/758 759/759/759
f 761/761/761 763/763/763 762/762/762
f 763/763/763 764/764/764 762/762/762
f 765/765/765 767/767/767 766/766/766
f 768/768/768 766/766/766 767/767/767
f 767/767/767 769/769/769 768/768/768
f 770/770/770 766/766/766 768/768/768
f 770/770/770 771/771/771 766/766/766
f 772/772/772 766/766/766 771/771/771
f 773/773/773 775/775/775 774/774/774
f 775/775/775 776/776/776 774/774/774
f 777/777/777 774/774/774 776/776/776
f 778/778/778 780/780/780 779/779/779
f 779/779/779 781/781/781 778/778/778
f 779/779/779 780/780/780 782/782/782
f 783/783/783 781/781/781 779/779/779
f 779/779/779 782/782/782 783/783/783
