mtllib P_ShelfClassic4.mtl
v 0.1228446 2.791012 4.99818
v -1.109882 3.93359 4.140303
v 1.625622 4.057653 5.595673
v -1.384052 2.91052 4.407296
v -1.191639 2.36304 4.976869
v -2.951893 2.793035 4.97156
v -2.721027 2.818583 3.577126
v -2.827503 3.53862 3.015476
v -4.500171 2.569652 4.133135
v -3.388721 2.674587 2.780343
v -4.659595 3.56103 0.4449047
v -5.639209 2.675991 2.624411
v -4.81203 2.802936 0.6682984
v -5.711841 2.540883 1.503762
v 4.647106 4.475727 -3.207741
v 3.003338 3.830135 -5.879066
v 4.477978 4.100718 -5.01537
v -0.0213815 4.467834 -2.674366
v 2.905743 4.50884 -0.1329386
v -2.530933 4.432847 -0.1230378
v 4.811138 4.477811 -0.7661898
v 5.949749 4.421952 -1.127145
v 5.751751 4.485164 1.801591
v -1.588276 3.879695 -4.20791
v -3.143726 3.799658 -3.030227
v -0.4621163 3.054 -6.459759
v 1.039959 2.779914 -7.546
v 0.1234549 2.624664 -7.630653
v -1.290424 2.729328 -6.850148
v -2.100086 3.294306 -5.005531
v -2.532154 2.79943 -5.658152
v -3.717548 3.405739 -3.43984
v -5.161243 3.255205 -0.7183385
v -4.659595 3.56103 0.4449047
v -2.827503 3.53862 3.015476
v 1.183025 4.494537 1.771969
v -0.6114694 4.460491 2.524693
v -0.08113491 4.472992 3.60561
v -1.109882 3.93359 4.140303
v 1.625622 4.057653 5.595673
v 2.564007 4.45046 5.348269
v 3.602184 3.627316 6.510102
v 5.079021 4.228247 5.034804
v 3.23341 4.483789 2.173234
v 2.60783 -4.567645 3.04357
v 4.364941 -4.356645 2.430377
v 4.629528 -4.640532 1.051201
v 0.3451651 -4.66064 -0.6548678
v -0.383442 -4.60713 1.300637
v 1.259105 -4.120535 3.804566
v -1.154225 -4.216972 2.895505
v -3.667347 -4.621023 0.4976972
v -4.421588 -3.880248 1.96461
v -5.397296 -4.325756 0.2654302
v -6.302753 -3.533615 1.178787
v -6.441883 -3.513902 0.2617256
v -5.486866 -3.803223 -1.87706
v -3.546406 -4.623266 -5.064522
v -2.049213 -4.680298 -2.987159
v 1.257335 -4.481748 -5.688097
v -2.309467 -4.495722 -6.776623
v -1.216816 -3.974159 -7.779679
v 1.292583 -3.607718 -8.079157
v 3.191387 -3.634989 -7.318281
v 3.196972 -4.506281 -2.520402
v 5.302227 -4.007964 -4.738774
v 6.662487 -3.264414 -5.050234
v 6.790661 -3.609719 -3.835733
v 6.682079 -4.078622 -1.665176
v 5.388653 -4.235834 -2.104703
v -6.302753 -3.533615 1.178787
v -6.637561 -2.843199 0.5832826
v -6.371021 -2.762702 0.9757999
v -6.41286 -1.596872 0.2384867
v -6.309558 -0.8975912 0.206386
v -6.28725 -0.1906995 -0.1481249
v -6.499683 -1.750922 2.351687
v -6.101459 -2.164105 3.676731
v -5.690967 1.412906 0.03824037
v -5.960407 1.988239 -0.8536803
v -6.377796 -0.7329472 3.313177
v -6.662982 0.2357622 1.694045
v -6.19704 1.912241 1.321853
v -5.310504 -1.720565 4.406354
v -5.069599 -2.496533 4.385797
v -6.440753 1.61302 2.1013
v -6.257862 1.009715 3.299174
v -5.639209 2.675991 2.624411
v -5.711841 2.540883 1.503762
v -4.81203 2.802936 0.6682984
v -5.365833 2.836723 -0.2056025
v -4.659595 3.56103 0.4449047
v -5.161243 3.255205 -0.7183385
v -5.46532 1.931679 4.072841
v -4.500171 2.569652 4.133135
v -4.814685 1.74944 4.725673
v -3.657184 2.197656 5.338756
v -2.951893 2.793035 4.97156
v -2.121754 -0.6611358 5.590819
v -1.402363 -2.090526 5.383742
v -2.577656 1.398889 5.564095
v -1.191639 2.36304 4.976869
v -1.102711 0.8927232 5.162422
v 0.3063773 -1.735141 5.007782
v 0.1228446 2.791012 4.99818
v 0.4127921 1.118176 5.32847
v 2.169811 1.732447 5.870262
v 2.854656 -1.173939 6.146019
v 1.625622 4.057653 5.595673
v 4.018078 2.517917 6.731249
v 3.602184 3.627316 6.510102
v 0.9532278 -2.577335 5.23828
v 0.1984366 -3.291106 4.502223
v 1.259105 -4.120535 3.804566
v 1.515484 -2.814078 5.12633
v 2.60783 -4.567645 3.04357
v 5.237774 3.766393 5.392837
v 5.079021 4.228247 5.034804
v 6.152905 3.876211 3.294714
v 5.751751 4.485164 1.801591
v 6.792919 4.055674 -0.9731733
v 5.949749 4.421952 -1.127145
v 4.647106 4.475727 -3.207741
v 4.477978 4.100718 -5.01537
v 3.815319 -0.1284429 6.244849
v 4.067394 -1.384529 5.536201
v 4.323376 2.18677 6.59264
v 5.291851 -2.931263 3.409253
v 4.364941 -4.356645 2.430377
v 6.081524 -2.705463 2.498864
v 4.629528 -4.640532 1.051201
v 6.682079 -4.078622 -1.665176
v 5.677013 -1.073328 4.021515
v 5.068096 1.752442 5.728
v 7.302685 1.668363 0.9812394
v 7.877819 2.413932 -1.893966
v 7.097363 2.741967 -4.481472
v 6.617321 2.64935 -5.211629
v 7.427532 -0.3036608 -5.774133
v 3.003338 3.830135 -5.879066
v 2.895824 1.191684 -7.915594
v 2.028576 -2.578761 -8.333418
v 1.039959 2.779914 -7.546
v 0.1234549 2.624664 -7.630653
v 7.912426 0.4007116 -4.731841
v 8.242413 1.127984 -1.897076
v 6.563335 1.003923 -6.11784
v 0.266857 0.9583651 -8.086866
v -1.290424 2.729328 -6.850148
v 8.183361 -0.9184653 -2.382081
v 8.206188 0.2869826 -3.191068
v 7.44978 -2.03497 -5.191725
v 7.618176 -2.734286 -1.644418
v 7.627697 -2.95343 -2.532062
v 6.790661 -3.609719 -3.835733
v 6.662487 -3.264414 -5.050234
v 6.204784 -2.318661 -6.270964
v 3.191387 -3.634989 -7.318281
v 1.292583 -3.607718 -8.079157
v -1.216816 -3.974159 -7.779679
v 0.7813223 -1.662133 -8.433366
v -1.845326 -1.623533 -6.944153
v 1.738842 -0.4303204 -8.433823
v -1.846516 1.540446 -6.764163
v -2.532154 2.79943 -5.658152
v -2.931263 1.591565 -5.71032
v -3.717548 3.405739 -3.43984
v -5.960407 1.988239 -0.8536803
v -5.161243 3.255205 -0.7183385
v -4.317493 0.08063277 -4.393967
v -5.418018 -0.4399206 -2.64562
v -6.28725 -0.1906995 -0.1481249
v -6.41286 -1.596872 0.2384867
v -3.579487 -3.560531 -5.880252
v -5.486866 -3.803223 -1.87706
v -6.637561 -2.843199 0.5832826
v -6.441883 -3.513902 0.2617256
v -6.302753 -3.533615 1.178787
v -3.546406 -4.623266 -5.064522
v -2.929859 -3.778924 -6.685881
v -2.309467 -4.495722 -6.776623
v -2.131611 -4.071037 -7.342622
v -1.154225 -4.216972 2.895505
v -0.8337289 -3.392537 3.833495
v 1.259105 -4.120535 3.804566
v 0.1984366 -3.291106 4.502223
v -4.421588 -3.880248 1.96461
v 0.3063773 -1.735141 5.007782
v -0.6794015 -2.515379 4.537779
v -3.202839 -3.144018 3.355242
v -1.1693 -2.642413 5.061405
v -1.402363 -2.090526 5.383742
v -2.301014 -2.967177 4.855131
v -5.069599 -2.496533 4.385797
v -5.053302 -3.056702 3.171118
v -6.101459 -2.164105 3.676731
v -4.303974 -3.139231 2.810399
v -5.917285 -2.875767 1.676114
v -6.371021 -2.762702 0.9757999
v -6.302753 -3.533615 1.178787
vn -0.3259498 0.1855682 0.9269958
vn -0.4241199 0.6693414 0.6100036
vn -0.3596121 0.5261371 0.7706224
vn -0.2337103 0.6314117 0.7393909
vn 0.02294567 0.4359444 0.899681
vn -0.0645553 0.8399353 0.5388333
vn -0.4202853 0.833238 0.3592696
vn -0.5725837 0.6693109 0.4734668
vn -0.3343459 0.8787449 0.3406174
vn -0.4739814 0.8184258 0.3248398
vn -0.6350734 0.7164323 0.2888017
vn -0.5148211 0.8394744 0.1739025
vn -0.7489235 0.6027424 0.2753456
vn -0.6085128 0.7657391 -0.2082206
vn 0.171261 0.9729013 -0.1553476
vn 0.1183566 0.8346596 -0.5378987
vn 0.2407955 0.8604091 -0.4491256
vn -0.07635785 0.9874292 -0.1383947
vn 0.0002787724 0.9999981 -0.001923004
vn -0.2355089 0.9717074 0.01789773
vn 0.02860999 0.999559 -0.00795009
vn 0.2717554 0.9579064 -0.0925433
vn 0.3472897 0.9344969 0.0781368
vn -0.2161271 0.9197403 -0.3276688
vn -0.3244024 0.9170114 -0.2320626
vn -0.1592185 0.902776 -0.3995559
vn 0.04158746 0.6567832 -0.7529319
vn -0.2073779 0.5801311 -0.7876817
vn -0.4298629 0.6032693 -0.6717768
vn -0.3115244 0.8531272 -0.4184811
vn -0.6034512 0.5681787 -0.5594816
vn -0.6203108 0.6603174 -0.4233147
vn -0.685288 0.7201515 -0.1084533
vn -0.6350734 0.7164323 0.2888017
vn -0.5725837 0.6693109 0.4734668
vn -0.007252212 0.9999655 0.004049289
vn -0.174842 0.9803749 0.0910791
vn -0.1807537 0.9657091 0.1863709
vn -0.4241199 0.6693414 0.6100036
vn -0.3596121 0.5261371 0.7706224
vn -0.04679235 0.9310644 0.361842
vn 0.01502698 0.472135 0.8813981
vn 0.4251769 0.8278042 0.366012
vn 0.001963909 0.9999402 0.01076
vn 0.1117069 -0.9050357 0.4104046
vn 0.4133127 -0.8103547 0.4153286
vn 0.332059 -0.9323934 0.1427566
vn 0.01138303 -0.9999332 -0.002008507
vn -0.03066254 -0.9924425 0.1188179
vn -0.05539413 -0.8354315 0.5467959
vn -0.1644416 -0.865776 0.4726424
vn -0.1348038 -0.9795594 0.1493029
vn -0.3293281 -0.7810695 0.5305408
vn -0.4000389 -0.9113341 0.09715506
vn -0.7207626 -0.488736 0.4915673
vn -0.8655502 -0.4790311 -0.1461238
vn -0.8322908 -0.4551295 -0.3164636
vn -0.4949645 -0.8219625 -0.2817584
vn -0.01785119 -0.9997888 -0.01017999
vn 0.09356193 -0.9780162 -0.1863613
vn -0.3046761 -0.8560558 -0.4175416
vn -0.210595 -0.4983547 -0.8410068
vn 0.08161669 -0.6295426 -0.7726673
vn 0.3285924 -0.7088454 -0.6241516
vn 0.08720516 -0.9940045 -0.0659565
vn 0.2718074 -0.929363 -0.2498105
vn 0.5994868 -0.6790734 -0.4236449
vn 0.6034583 -0.7665469 -0.2196449
vn 0.5484276 -0.8339868 0.06077221
vn 0.1451414 -0.9852422 -0.09072991
vn -0.7207626 -0.488736 0.4915673
vn -0.9957634 0.02799877 0.08758685
vn -0.9237746 -0.007112915 0.3828706
vn -0.995841 0.08549988 -0.03147354
vn -0.9926151 0.1072993 0.05658708
vn -0.986604 0.1475985 0.06947785
vn -0.9808478 -0.1683425 0.09797037
vn -0.7744114 -0.4007343 0.4895907
vn -0.9279196 0.3683771 0.05712695
vn -0.9437972 0.3242158 -0.06427342
vn -0.8898869 0.01084821 0.4560523
vn -0.9944882 0.07349061 -0.07478288
vn -0.8312066 0.4699575 -0.2970448
vn -0.5284678 -0.07569164 0.8455724
vn -0.407402 -0.5589513 0.7222168
vn -0.9321169 0.3543033 0.07501578
vn -0.8763062 0.1778731 0.4477147
vn -0.5148211 0.8394744 0.1739025
vn -0.6085128 0.7657391 -0.2082206
vn -0.7489235 0.6027424 0.2753456
vn -0.8511163 0.4017397 0.3379441
vn -0.6350734 0.7164323 0.2888017
vn -0.685288 0.7201515 -0.1084533
vn -0.6940007 0.4148086 0.58847
vn -0.3343459 0.8787449 0.3406174
vn -0.5775241 0.2750989 0.7686265
vn -0.3051097 0.4050352 0.8618901
vn -0.0645553 0.8399353 0.5388333
vn 0.003991666 -0.06640089 0.997785
vn 0.06549279 -0.2574225 0.9640769
vn 0.03486259 0.1456627 0.9887199
vn 0.02294567 0.4359444 0.899681
vn 0.1240038 0.06551266 0.9901167
vn -0.1822391 -0.1835627 0.9659677
vn -0.3259498 0.1855682 0.9269958
vn -0.2128484 0.01681677 0.9769405
vn -0.3861597 0.004344961 0.9224217
vn -0.02672394 -0.3440426 0.9385737
vn -0.3596121 0.5261371 0.7706224
vn 0.1192475 0.1028422 0.9875239
vn 0.01502698 0.472135 0.8813981
vn -0.3068545 -0.3877114 0.8692067
vn -0.3401654 -0.5623313 0.7537048
vn -0.05539413 -0.8354315 0.5467959
vn 0.05141063 -0.6436061 0.7636283
vn 0.1117069 -0.9050357 0.4104046
vn 0.7283856 0.3544675 0.5863508
vn 0.4251769 0.8278042 0.366012
vn 0.8305238 0.4648144 0.3068842
vn 0.3472897 0.9344969 0.0781368
vn 0.6633589 0.7476398 -0.03146231
vn 0.2717554 0.9579064 -0.0925433
vn 0.171261 0.9729013 -0.1553476
vn 0.2407955 0.8604091 -0.4491256
vn 0.4111471 -0.2615646 0.8732365
vn 0.4805212 -0.4723904 0.7388821
vn 0.5408771 -0.06172302 0.8388339
vn 0.5782831 -0.5668717 0.5867241
vn 0.4133127 -0.8103547 0.4153286
vn 0.8088065 -0.4302588 0.4008858
vn 0.332059 -0.9323934 0.1427566
vn 0.5484276 -0.8339868 0.06077221
vn 0.8122339 -0.2151778 0.5421942
vn 0.7956457 -0.1139838 0.5949417
vn 0.9426241 0.04783514 0.3304113
vn 0.9125423 0.4089274 -0.006711354
vn 0.7278935 0.5807628 -0.3645349
vn 0.5649292 0.5473754 -0.6174425
vn 0.7377707 0.02045681 -0.6747414
vn 0.1183566 0.8346596 -0.5378987
vn 0.3018368 0.2923528 -0.9074274
vn 0.2324809 -0.202754 -0.9512326
vn 0.04158746 0.6567832 -0.7529319
vn -0.2073779 0.5801311 -0.7876817
vn 0.9232194 0.1367778 -0.3591068
vn 0.9884461 0.1139933 0.09989838
vn 0.5501022 0.2622827 -0.79284
vn -0.2698494 0.159587 -0.9495859
vn -0.4298629 0.6032693 -0.6717768
vn 0.9849171 -0.1564729 0.07385457
vn 0.9897291 0.02697837 -0.1403869
vn 0.8367413 -0.3313554 -0.4359674
vn 0.9000108 -0.3674909 0.2343739
vn 0.8779264 -0.4761926 -0.04985839
vn 0.6034583 -0.7665469 -0.2196449
vn 0.5994868 -0.6790734 -0.4236449
vn 0.535709 -0.3289162 -0.7777082
vn 0.3285924 -0.7088454 -0.6241516
vn 0.08161669 -0.6295426 -0.7726673
vn -0.210595 -0.4983547 -0.8410068
vn -0.2087012 -0.01998926 -0.9777752
vn -0.578451 0.12891 -0.8054668
vn 0.1326516 0.09280737 -0.9868081
vn -0.6076478 0.1336349 -0.782883
vn -0.6034512 0.5681787 -0.5594816
vn -0.7433116 0.1851529 -0.6428112
vn -0.6203108 0.6603174 -0.4233147
vn -0.9437972 0.3242158 -0.06427342
vn -0.685288 0.7201515 -0.1084533
vn -0.7976773 0.1462155 -0.5850914
vn -0.9005041 0.04016771 -0.4329884
vn -0.986604 0.1475985 0.06947785
vn -0.995841 0.08549988 -0.03147354
vn -0.8059784 -0.1095299 -0.5817233
vn -0.8322908 -0.4551295 -0.3164636
vn -0.9957634 0.02799877 0.08758685
vn -0.8655502 -0.4790311 -0.1461238
vn -0.7207626 -0.488736 0.4915673
vn -0.4949645 -0.8219625 -0.2817584
vn -0.7262207 -0.1205221 -0.6768146
vn -0.3046761 -0.8560558 -0.4175416
vn -0.486918 -0.312335 -0.8156947
vn -0.1644416 -0.865776 0.4726424
vn -0.2517031 -0.6375869 0.7280993
vn -0.05539413 -0.8354315 0.5467959
vn -0.3401654 -0.5623313 0.7537048
vn -0.3293281 -0.7810695 0.5305408
vn -0.1822391 -0.1835627 0.9659677
vn 0.2393926 -0.8154244 0.527043
vn -0.120971 -0.911126 0.393974
vn 0.2664925 -0.7890635 0.5534985
vn 0.06549279 -0.2574225 0.9640769
vn 0.0002260947 -0.8379229 0.5457886
vn -0.407402 -0.5589513 0.7222168
vn -0.3063993 -0.931105 0.1978963
vn -0.7744114 -0.4007343 0.4895907
vn -0.253464 -0.8954175 0.3660375
vn -0.5963119 -0.6372496 0.4881854
vn -0.9237746 -0.007112915 0.3828706
vn -0.7207626 -0.488736 0.4915673
vt 0.1778717 0.4882813
vt 0.1867371 0.5035706
vt 0.1917572 0.4749451
vt 0.1760864 0.5040588
vt 0.1701508 0.4985352
vt 0.1629944 0.5144958
vt 0.1753693 0.5204468
vt 0.1838837 0.5236816
vt 0.1603241 0.5308228
vt 0.1767731 0.5306396
vt 0.1917572 0.5523376
vt 0.1647949 0.5481262
vt 0.1841888 0.5534363
vt 0.1725159 0.5555115
vt 0.8308105 0.4219513
vt 0.8152771 0.3946228
vt 0.8158569 0.4115906
vt 0.8571472 0.385025
vt 0.8651733 0.4212036
vt 0.8896484 0.3757019
vt 0.8511047 0.4346313
vt 0.8427734 0.4428406
vt 0.8691101 0.454422
vt 0.8512573 0.364212
vt 0.8681946 0.3565521
vt 0.8260193 0.3612823
vt 0.8091736 0.3682098
vt 0.8127136 0.3598328
vt 0.8262634 0.3518524
vt 0.8463135 0.3548279
vt 0.8422546 0.3468628
vt 0.8671875 0.3488007
vt 0.8972168 0.3484192
vt 0.9047546 0.3587189
vt 0.9193726 0.3858185
vt 0.8890686 0.4151306
vt 0.9034729 0.4033661
vt 0.9100952 0.4127197
vt 0.9202881 0.4061279
vt 0.9200134 0.43573
vt 0.9126282 0.4421387
vt 0.9202881 0.4566345
vt 0.900238 0.4624634
vt 0.8833618 0.4342499
vt 0.9017487 0.5837402
vt 0.9141693 0.5704651
vt 0.9096069 0.5573425
vt 0.8654327 0.5629883
vt 0.8682861 0.5828552
vt 0.8938599 0.597229
vt 0.8690643 0.6003723
vt 0.8372803 0.5907593
vt 0.8370514 0.6079102
vt 0.8220673 0.5965271
vt 0.817276 0.6097717
vt 0.8115387 0.6028748
vt 0.8091736 0.5806885
vt 0.8118744 0.544281
vt 0.8344727 0.5546265
vt 0.8495483 0.516449
vt 0.8143158 0.5238647
vt 0.8187408 0.5092468
vt 0.8386688 0.4944458
vt 0.8584137 0.4923096
vt 0.8806458 0.5339661
vt 0.8878632 0.505188
vt 0.8983765 0.4942627
vt 0.9049835 0.5046692
vt 0.9141693 0.5241394
vt 0.9010925 0.526825
vt 0.2782791 0.4533367
vt 0.2852921 0.4607983
vt 0.2863364 0.4558334
vt 0.2989352 0.4631119
vt 0.3064008 0.462986
vt 0.3138587 0.4662781
vt 0.2962115 0.441515
vt 0.2909701 0.4276867
vt 0.3314137 0.4623737
vt 0.3367732 0.4721966
vt 0.3054943 0.4315853
vt 0.3156137 0.4462299
vt 0.3320932 0.4479179
vt 0.2957282 0.41679
vt 0.2877371 0.4145088
vt 0.3277624 0.4410019
vt 0.3216684 0.430479
vt 0.339926 0.4337978
vt 0.3396614 0.4456215
vt 0.3475442 0.4546661
vt 0.346405 0.4648666
vt 0.3553443 0.4569473
vt 0.3515348 0.4694614
vt 0.3302512 0.4208317
vt 0.3394535 0.4138203
vt 0.3288317 0.4123592
vt 0.3328884 0.4006596
vt 0.3411644 0.3956509
vt 0.307934 0.3839397
vt 0.294018 0.3757896
vt 0.326978 0.3899002
vt 0.3390453 0.3770714
vt 0.3240852 0.3744678
vt 0.2988086 0.3584309
vt 0.3447883 0.36409
vt 0.3276355 0.3593941
vt 0.3345587 0.3421822
vt 0.3099031 0.3341312
vt 0.3580194 0.3468857
vt 0.3404815 0.3242702
vt 0.3510482 0.3261204
vt 0.2928267 0.3492069
vt 0.2820098 0.3556137
vt 0.2726121 0.342947
vt 0.291214 0.3434715
vt 0.2666149 0.3270435
vt 0.3487012 0.3083992
vt 0.3536403 0.3059139
vt 0.3462298 0.2888947
vt 0.3527057 0.2759609
vt 0.3420675 0.2521152
vt 0.349515 0.2488785
vt 0.3537717 0.2256489
vt 0.3473921 0.2084103
vt 0.3187251 0.3259544
vt 0.3071852 0.322485
vt 0.3374622 0.3217583
vt 0.2896309 0.3053341
vt 0.2708008 0.3072147
vt 0.2896369 0.2946014
vt 0.2627358 0.2946129
vt 0.267632 0.2586918
vt 0.3066978 0.3040199
vt 0.3326867 0.3133831
vt 0.3233099 0.2716541
vt 0.3250875 0.247261
vt 0.3264196 0.2261658
vt 0.3257132 0.2189388
vt 0.3012352 0.2193642
vt 0.3493154 0.1906281
vt 0.3169427 0.1782627
vt 0.2807038 0.1672726
vt 0.3364897 0.1618462
vt 0.3360238 0.1517181
vt 0.3069897 0.2280884
vt 0.3147824 0.248745
vt 0.3121042 0.2130413
vt 0.317347 0.1520214
vt 0.3397915 0.1337852
vt 0.2984068 0.2474251
vt 0.3072319 0.2398949
vt 0.2873759 0.2244453
vt 0.2834673 0.2559242
vt 0.2805939 0.2482891
vt 0.2706125 0.2354679
vt 0.2729588 0.222538
vt 0.2836704 0.2101917
vt 0.2694194 0.181097
vt 0.270112 0.1602859
vt 0.2660875 0.1330585
vt 0.2903516 0.1550255
vt 0.2928159 0.1243687
vt 0.3018966 0.1652431
vt 0.326961 0.1265888
vt 0.3429799 0.1144199
vt 0.32939 0.1102715
vt 0.3539581 0.08738708
vt 0.3419728 0.04737473
vt 0.3580191 0.05285263
vt 0.3148041 0.08782768
vt 0.311734 0.06441498
vt 0.3183565 0.0351181
vt 0.3029308 0.02850723
vt 0.2738035 0.1012802
vt 0.2746425 0.05202675
vt 0.2891893 0.02220345
vt 0.2810066 0.02559853
vt 0.2807009 0.01491547
vt 0.261596 0.09304428
vt 0.270426 0.1118355
vt 0.2612076 0.1166935
vt 0.2668753 0.1221848
vt 0.1937027 0.420166
vt 0.1826553 0.4262695
vt 0.1939926 0.4450684
vt 0.1809616 0.4385986
vt 0.191246 0.3884583
vt 0.1653595 0.441803
vt 0.1722031 0.4299622
vt 0.1794739 0.4033813
vt 0.1669617 0.4250183
vt 0.1603088 0.42453
vt 0.1681061 0.4146423
vt 0.1627197 0.3893127
vt 0.1753235 0.3858948
vt 0.1644669 0.3769836
vt 0.1810379 0.3913879
vt 0.1853561 0.3713379
vt 0.1890182 0.3638916
vt 0.1939926 0.3690186
usemtl MV_RockClassic_Shelves
f 1/1/1 3/3/3 2/2/2
f 1/1/1 2/2/2 4/4/4
f 1/1/1 4/4/4 5/5/5
f 4/4/4 6/6/6 5/5/5
f 2/2/2 7/7/7 4/4/4
f 7/7/7 6/6/6 4/4/4
f 7/7/7 2/2/2 8/8/8
f 6/6/6 7/7/7 9/9/9
f 7/7/7 8/8/8 10/10/10
f 10/10/10 9/9/9 7/7/7
f 11/11/11 10/10/10 8/8/8
f 9/9/9 10/10/10 12/12/12
f 13/13/13 10/10/10 11/11/11
f 13/13/13 12/12/12 10/10/10
f 13/13/13 14/14/14 12/12/12
f 15/15/15 17/17/17 16/16/16
f 18/18/18 15/15/15 16/16/16
f 19/19/19 15/15/15 18/18/18
f 19/19/19 18/18/18 20/20/20
f 15/15/15 19/19/19 21/21/21
f 21/21/21 22/22/22 15/15/15
f 23/23/23 22/22/22 21/21/21
f 21/21/21 19/19/19 23/23/23
f 18/18/18 16/16/16 24/24/24
f 18/18/18 25/25/25 20/20/20
f 25/25/25 18/18/18 24/24/24
f 16/16/16 26/26/26 24/24/24
f 26/26/26 16/16/16 27/27/27
f 26/26/26 27/27/27 28/28/28
f 28/28/28 29/29/29 26/26/26
f 26/26/26 29/29/29 30/30/30
f 26/26/26 30/30/30 24/24/24
f 29/29/29 31/31/31 30/30/30
f 30/30/30 31/31/31 32/32/32
f 24/24/24 30/30/30 32/32/32
f 24/24/24 32/32/32 25/25/25
f 33/33/33 25/25/25 32/32/32
f 20/20/20 25/25/25 33/33/33
f 20/20/20 33/33/33 34/34/34
f 35/35/35 20/20/20 34/34/34
f 20/20/20 36/36/36 19/19/19
f 35/35/35 37/37/37 20/20/20
f 20/20/20 37/37/37 36/36/36
f 37/37/37 35/35/35 38/38/38
f 36/36/36 37/37/37 38/38/38
f 39/39/39 38/38/38 35/35/35
f 39/39/39 40/40/40 38/38/38
f 41/41/41 38/38/38 40/40/40
f 36/36/36 38/38/38 41/41/41
f 42/42/42 41/41/41 40/40/40
f 41/41/41 42/42/42 43/43/43
f 43/43/43 23/23/23 41/41/41
f 23/23/23 19/19/19 44/44/44
f 19/19/19 36/36/36 44/44/44
f 44/44/44 36/36/36 41/41/41
f 44/44/44 41/41/41 23/23/23
f 45/45/45 47/47/47 46/46/46
f 48/48/48 47/47/47 45/45/45
f 45/45/45 49/49/49 48/48/48
f 49/49/49 45/45/45 50/50/50
f 49/49/49 50/50/50 51/51/51
f 51/51/51 52/52/52 49/49/49
f 48/48/48 49/49/49 52/52/52
f 52/52/52 51/51/51 53/53/53
f 52/52/52 53/53/53 54/54/54
f 54/54/54 53/53/53 55/55/55
f 56/56/56 54/54/54 55/55/55
f 54/54/54 56/56/56 57/57/57
f 54/54/54 57/57/57 58/58/58
f 54/54/54 59/59/59 52/52/52
f 48/48/48 52/52/52 59/59/59
f 59/59/59 54/54/54 58/58/58
f 58/58/58 60/60/60 59/59/59
f 60/60/60 58/58/58 61/61/61
f 60/60/60 61/61/61 62/62/62
f 60/60/60 62/62/62 63/63/63
f 60/60/60 63/63/63 64/64/64
f 59/59/59 65/65/65 48/48/48
f 60/60/60 65/65/65 59/59/59
f 48/48/48 65/65/65 47/47/47
f 64/64/64 66/66/66 60/60/60
f 66/66/66 65/65/65 60/60/60
f 67/67/67 66/66/66 64/64/64
f 68/68/68 66/66/66 67/67/67
f 66/66/66 68/68/68 69/69/69
f 70/70/70 47/47/47 65/65/65
f 65/65/65 66/66/66 70/70/70
f 47/47/47 70/70/70 69/69/69
f 69/69/69 70/70/70 66/66/66
f 71/71/71 73/73/73 72/72/72
f 73/73/73 74/74/74 72/72/72
f 74/74/74 73/73/73 75/75/75
f 75/75/75 76/76/76 74/74/74
f 77/77/77 75/75/75 73/73/73
f 78/78/78 77/77/77 73/73/73
f 75/75/75 79/79/79 76/76/76
f 79/79/79 80/80/80 76/76/76
f 78/78/78 81/81/81 77/77/77
f 75/75/75 77/77/77 82/82/82
f 81/81/81 82/82/82 77/77/77
f 75/75/75 82/82/82 83/83/83
f 83/83/83 79/79/79 75/75/75
f 81/81/81 78/78/78 84/84/84
f 84/84/84 78/78/78 85/85/85
f 82/82/82 81/81/81 86/86/86
f 86/86/86 83/83/83 82/82/82
f 87/87/87 86/86/86 81/81/81
f 87/87/87 81/81/81 84/84/84
f 88/88/88 83/83/83 86/86/86
f 86/86/86 87/87/87 88/88/88
f 79/79/79 83/83/83 89/89/89
f 88/88/88 89/89/89 83/83/83
f 89/89/89 90/90/90 79/79/79
f 80/80/80 79/79/79 90/90/90
f 90/90/90 91/91/91 80/80/80
f 90/90/90 92/92/92 91/91/91
f 80/80/80 91/91/91 93/93/93
f 92/92/92 93/93/93 91/91/91
f 88/88/88 87/87/87 94/94/94
f 95/95/95 88/88/88 94/94/94
f 96/96/96 94/94/94 87/87/87
f 95/95/95 94/94/94 96/96/96
f 84/84/84 96/96/96 87/87/87
f 95/95/95 96/96/96 97/97/97
f 96/96/96 84/84/84 97/97/97
f 98/98/98 95/95/95 97/97/97
f 84/84/84 99/99/99 97/97/97
f 84/84/84 85/85/85 99/99/99
f 85/85/85 100/100/100 99/99/99
f 97/97/97 101/101/101 98/98/98
f 101/101/101 97/97/97 99/99/99
f 101/101/101 102/102/102 98/98/98
f 100/100/100 103/103/103 99/99/99
f 99/99/99 103/103/103 101/101/101
f 102/102/102 101/101/101 103/103/103
f 104/104/104 103/103/103 100/100/100
f 102/102/102 103/103/103 105/105/105
f 105/105/105 103/103/103 106/106/106
f 103/103/103 104/104/104 106/106/106
f 106/106/106 107/107/107 105/105/105
f 106/106/106 104/104/104 107/107/107
f 107/107/107 104/104/104 108/108/108
f 109/109/109 105/105/105 107/107/107
f 107/107/107 110/110/110 109/109/109
f 110/110/110 107/107/107 108/108/108
f 109/109/109 110/110/110 111/111/111
f 112/112/112 108/108/108 104/104/104
f 112/112/112 104/104/104 113/113/113
f 114/114/114 112/112/112 113/113/113
f 114/114/114 115/115/115 112/112/112
f 108/108/108 112/112/112 115/115/115
f 115/115/115 114/114/114 116/116/116
f 115/115/115 116/116/116 108/108/108
f 111/111/111 110/110/110 117/117/117
f 111/111/111 117/117/117 118/118/118
f 117/117/117 119/119/119 118/118/118
f 119/119/119 120/120/120 118/118/118
f 119/119/119 121/121/121 120/120/120
f 120/120/120 121/121/121 122/122/122
f 123/123/123 122/122/122 121/121/121
f 124/124/124 123/123/123 121/121/121
f 125/125/125 110/110/110 108/108/108
f 108/108/108 116/116/116 126/126/126
f 125/125/125 108/108/108 126/126/126
f 127/127/127 117/117/117 110/110/110
f 110/110/110 125/125/125 127/127/127
f 126/126/126 116/116/116 128/128/128
f 128/128/128 116/116/116 129/129/129
f 130/130/130 128/128/128 129/129/129
f 131/131/131 130/130/130 129/129/129
f 132/132/132 130/130/130 131/131/131
f 125/125/125 126/126/126 133/133/133
f 128/128/128 133/133/133 126/126/126
f 127/127/127 125/125/125 133/133/133
f 133/133/133 128/128/128 130/130/130
f 127/127/127 134/134/134 117/117/117
f 134/134/134 127/127/127 133/133/133
f 119/119/119 117/117/117 134/134/134
f 134/134/134 133/133/133 135/135/135
f 119/119/119 134/134/134 135/135/135
f 135/135/135 133/133/133 130/130/130
f 135/135/135 136/136/136 119/119/119
f 136/136/136 121/121/121 119/119/119
f 137/137/137 121/121/121 136/136/136
f 121/121/121 137/137/137 124/124/124
f 124/124/124 137/137/137 138/138/138
f 138/138/138 137/137/137 139/139/139
f 138/138/138 140/140/140 124/124/124
f 140/140/140 138/138/138 141/141/141
f 139/139/139 142/142/142 141/141/141
f 143/143/143 140/140/140 141/141/141
f 143/143/143 141/141/141 144/144/144
f 136/136/136 145/145/145 137/137/137
f 137/137/137 145/145/145 139/139/139
f 135/135/135 146/146/146 136/136/136
f 146/146/146 145/145/145 136/136/136
f 138/138/138 139/139/139 147/147/147
f 147/147/147 141/141/141 138/138/138
f 139/139/139 141/141/141 147/147/147
f 148/148/148 144/144/144 141/141/141
f 148/148/148 149/149/149 144/144/144
f 150/150/150 146/146/146 135/135/135
f 135/135/135 130/130/130 150/150/150
f 151/151/151 145/145/145 146/146/146
f 150/150/150 151/151/151 146/146/146
f 152/152/152 145/145/145 151/151/151
f 139/139/139 145/145/145 152/152/152
f 152/152/152 151/151/151 150/150/150
f 153/153/153 150/150/150 130/130/130
f 130/130/130 132/132/132 153/153/153
f 154/154/154 150/150/150 153/153/153
f 153/153/153 132/132/132 154/154/154
f 152/152/152 150/150/150 154/154/154
f 154/154/154 132/132/132 155/155/155
f 156/156/156 154/154/154 155/155/155
f 156/156/156 152/152/152 154/154/154
f 152/152/152 157/157/157 139/139/139
f 157/157/157 152/152/152 156/156/156
f 156/156/156 158/158/158 157/157/157
f 142/142/142 139/139/139 157/157/157
f 157/157/157 158/158/158 142/142/142
f 142/142/142 158/158/158 159/159/159
f 159/159/159 160/160/160 142/142/142
f 160/160/160 161/161/161 142/142/142
f 162/162/162 161/161/161 160/160/160
f 163/163/163 142/142/142 161/161/161
f 141/141/141 142/142/142 163/163/163
f 148/148/148 141/141/141 163/163/163
f 161/161/161 148/148/148 163/163/163
f 148/148/148 161/161/161 164/164/164
f 161/161/161 162/162/162 164/164/164
f 148/148/148 164/164/164 149/149/149
f 149/149/149 164/164/164 165/165/165
f 165/165/165 164/164/164 166/166/166
f 162/162/162 166/166/166 164/164/164
f 167/167/167 165/165/165 166/166/166
f 167/167/167 166/166/166 168/168/168
f 169/169/169 167/167/167 168/168/168
f 168/168/168 166/166/166 170/170/170
f 170/170/170 166/166/166 162/162/162
f 170/170/170 171/171/171 168/168/168
f 168/168/168 171/171/171 172/172/172
f 172/172/172 171/171/171 173/173/173
f 170/170/170 174/174/174 171/171/171
f 170/170/170 162/162/162 174/174/174
f 175/175/175 173/173/173 171/171/171
f 174/174/174 175/175/175 171/171/171
f 176/176/176 173/173/173 175/175/175
f 176/176/176 175/175/175 177/177/177
f 178/178/178 176/176/176 177/177/177
f 174/174/174 179/179/179 175/175/175
f 180/180/180 179/179/179 174/174/174
f 180/180/180 174/174/174 162/162/162
f 180/180/180 181/181/181 179/179/179
f 182/182/182 180/180/180 162/162/162
f 180/180/180 182/182/182 181/181/181
f 160/160/160 182/182/182 162/162/162
f 181/181/181 182/182/182 160/160/160
f 183/183/183 185/185/185 184/184/184
f 184/184/184 185/185/185 186/186/186
f 187/187/187 183/183/183 184/184/184
f 184/184/184 186/186/186 188/188/188
f 184/184/184 188/188/188 189/189/189
f 187/187/187 184/184/184 190/190/190
f 189/189/189 190/190/190 184/184/184
f 189/189/189 188/188/188 191/191/191
f 191/191/191 188/188/188 192/192/192
f 191/191/191 193/193/193 189/189/189
f 192/192/192 193/193/193 191/191/191
f 193/193/193 190/190/190 189/189/189
f 192/192/192 194/194/194 193/193/193
f 195/195/195 193/193/193 194/194/194
f 190/190/190 193/193/193 195/195/195
f 195/195/195 194/194/194 196/196/196
f 197/197/197 187/187/187 190/190/190
f 197/197/197 190/190/190 195/195/195
f 195/195/195 196/196/196 198/198/198
f 195/195/195 198/198/198 197/197/197
f 197/197/197 198/198/198 187/187/187
f 199/199/199 198/198/198 196/196/196
f 200/200/200 187/187/187 198/198/198
f 200/200/200 198/198/198 199/199/199
